<?xml version="1.0" encoding="UTF-8"?>
<!-- Created with Inkscape (http://www.inkscape.org/) -->
<svg version="1.1" viewBox="0 0 96 96" xmlns="http://www.w3.org/2000/svg" xmlns:cc="http://creativecommons.org/ns#" xmlns:dc="http://purl.org/dc/elements/1.1/" xmlns:rdf="http://www.w3.org/1999/02/22-rdf-syntax-ns#" xmlns:xlink="http://www.w3.org/1999/xlink">
<defs>
<linearGradient id="linearGradient4071" x1="6" x2="90" y1="47" y2="47" gradientTransform="matrix(1.1071 0 0 1.1071 -4.9939 -3.6207)" gradientUnits="userSpaceOnUse">
<stop stop-color="#b4b9ba" offset="0"/>
<stop stop-color="#fff" offset=".25"/>
<stop stop-color="#98a0a2" offset=".5"/>
<stop stop-color="#f9fafb" offset=".75"/>
<stop stop-color="#b4b8ba" offset="1"/>
</linearGradient>
<linearGradient id="linearGradient4129" x1="1.5" x2="94.5" y1="88.172" y2="88.172" gradientTransform="translate(.14895 .41503)" gradientUnits="userSpaceOnUse">
<stop offset="0"/>
<stop stop-opacity=".58824" offset=".1"/>
<stop stop-opacity=".58824" offset=".9"/>
<stop offset="1"/>
</linearGradient>
<radialGradient id="radialGradient7462" cx="13.948" cy="44.893" r="43.199" gradientTransform="matrix(.97513 0 0 .049191 34.048 80.582)" gradientUnits="userSpaceOnUse" xlink:href="#linearGradient3737"/>
<linearGradient id="linearGradient3737">
<stop stop-color="#fff" offset="0"/>
<stop stop-color="#fff" stop-opacity="0" offset="1"/>
</linearGradient>
<radialGradient id="radialGradient7464" cx="13.948" cy="44.893" r="43.199" gradientTransform="matrix(.88833 0 0 .049191 31.96 -90.317)" gradientUnits="userSpaceOnUse" xlink:href="#linearGradient3737"/>
<linearGradient id="linearGradient4767" x1="2.7714" x2="50.528" y1="-28.642" y2="14.514" gradientUnits="userSpaceOnUse" xlink:href="#linearGradient3737"/>
<clipPath id="clipPath4156-4-1">
<path d="m27.046-55.695-14.214 13.321h0.06127l15.653 21.771 10.231-10.546c-0.2169-1.1522-11.311-23.67-11.732-24.546zm-17.399 16.313-14.888 14.062 21.229 17.515 10.385-10.577zm31.491 12.951-9.7413 9.7136 8.9448 12.458 7.7808-7.555zm-49.84 4.3788-13.754 12.982 26.283 13.846 0.06127-0.0617-0.12253-0.0617 9.8332-10.053-22.301-16.652zm38.015 7.4008-9.8025 9.7753 11.579 9.5594 7.6276-7.4008-8.6691-11.009zm20.187 5.674-7.3825 7.2158 6.1878 8.5418 5.8202-6.1365zm-32.195 6.3215-9.5575 9.4977 13.662 7.185 7.9339-7.6784zm23.312 2.3744-7.1068 6.9383 8.3628 6.9074 5.3608-5.674-0.06127-0.0925-0.0919 0.12335-6.4635-8.2026zm-8.7304 8.5418-7.5051 7.3392 10.354 5.4581c1.3975-1.321 5.6751-6.1229 5.8509-6.3215z" fill="#fff" opacity=".6"/>
</clipPath>
<filter id="filter4325-0-1-4" color-interpolation-filters="sRGB">
<feGaussianBlur stdDeviation="1.439999"/>
</filter>
<radialGradient id="radialGradient3863-2-3" cx="56.055" cy="55.979" r="52.252" gradientTransform="matrix(.6243 -.6243 .3974 .3974 57.19 56.707)" gradientUnits="userSpaceOnUse">
<stop stop-color="#e3e3e3" offset="0"/>
<stop stop-color="#939393" offset="1"/>
</radialGradient>
<linearGradient id="linearGradient3865-1-2" x1="50.76" x2="113.84" y1="42.24" y2="130.51" gradientTransform="matrix(.68606 0 0 .68606 75.974 5.5532)" gradientUnits="userSpaceOnUse">
<stop stop-color="#e8e8e8" offset="0"/>
<stop stop-color="#828282" offset="1"/>
</linearGradient>
<linearGradient id="linearGradient3867-0-9" x1="80.875" x2="82.574" y1="82.615" y2="84.938" gradientUnits="userSpaceOnUse" xlink:href="#linearGradient3298-0-0-0"/>
<linearGradient id="linearGradient3298-0-0-0">
<stop stop-color="#f9f9f9" offset="0"/>
<stop stop-color="#3c3c3c" offset="1"/>
</linearGradient>
<linearGradient id="linearGradient5273" x1="82.312" x2="81.313" y1="85.362" y2="82.652" gradientUnits="userSpaceOnUse" xlink:href="#linearGradient3298-0-0-0"/>
<radialGradient id="radialGradient4322" cx="47.364" cy="18" r="6" gradientTransform="matrix(1.8333 5e-8 0 .33333 -36.833 3)" gradientUnits="userSpaceOnUse">
<stop stop-color="#19c62c" offset="0"/>
<stop stop-color="#0b6b09" offset="1"/>
</radialGradient>
<radialGradient id="radialGradient968" cx="47.364" cy="18" r="6" gradientTransform="matrix(1.8333 5e-8 0 .33333 -36.833 3)" gradientUnits="userSpaceOnUse">
<stop stop-color="#faff00" offset="0"/>
<stop stop-color="#959800" offset="1"/>
</radialGradient>
<radialGradient id="radialGradient976" cx="47.364" cy="18" r="6" gradientTransform="matrix(1.8333 5e-8 0 .33333 -36.833 3)" gradientUnits="userSpaceOnUse" xlink:href="#linearGradient3298-0-0-0"/>
<linearGradient id="linearGradient984" x1="-15.174" x2="6.826" y1="28.047" y2="28.047" gradientUnits="userSpaceOnUse">
<stop stop-color="#9b9b9b" offset="0"/>
<stop stop-color="#1a1a1a" offset="1"/>
</linearGradient>
<radialGradient id="radialGradient994" cx="53.5" cy="10.5" r="6.5" gradientTransform="matrix(1 0 0 .38462 0 6.4615)" gradientUnits="userSpaceOnUse">
<stop stop-color="#ff95f5" offset="0"/>
<stop stop-color="#980076" offset="1"/>
</radialGradient>
</defs>
<metadata>
<rdf:RDF>
<cc:Work rdf:about="">
<dc:format>image/svg+xml</dc:format>
<dc:type rdf:resource="http://purl.org/dc/dcmitype/StillImage"/>
<dc:title/>
<dc:date>2017</dc:date>
<dc:creator>
<cc:Agent>
<dc:title>Cristian Pozzessere "ilnanny"</dc:title>
</cc:Agent>
</dc:creator>
<dc:subject>
<rdf:Bag>
<rdf:li>Global language</rdf:li>
</rdf:Bag>
</dc:subject>
<dc:description>Playing with Inkscape on Gnu/Linux O. S.</dc:description>
<dc:contributor>
<cc:Agent>
<dc:title>In the night, alone like a dog.</dc:title>
</cc:Agent>
</dc:contributor>
<cc:license rdf:resource="http://creativecommons.org/licenses/by-sa/4.0/"/>
</cc:Work>
<cc:License rdf:about="http://creativecommons.org/licenses/by-sa/4.0/">
<cc:permits rdf:resource="http://creativecommons.org/ns#Reproduction"/>
<cc:permits rdf:resource="http://creativecommons.org/ns#Distribution"/>
<cc:requires rdf:resource="http://creativecommons.org/ns#Notice"/>
<cc:requires rdf:resource="http://creativecommons.org/ns#Attribution"/>
<cc:permits rdf:resource="http://creativecommons.org/ns#DerivativeWorks"/>
<cc:requires rdf:resource="http://creativecommons.org/ns#ShareAlike"/>
</cc:License>
</rdf:RDF>
</metadata>
<g transform="translate(0 -1026.5)">
<g transform="translate(-.14896 1026.1)">
<path d="m89.292 0.41503h-82.286c-3.7988 0-6.8571 3.0583-6.8571 6.8571v82.286c0 3.7989 3.0583 6.8571 6.8571 6.8571h82.286c3.7989 0 6.8571-3.0583 6.8571-6.8571v-82.286c0-3.7989-3.0583-6.8571-6.8571-6.8571z" opacity=".15"/>
<path d="m88.649 1.165h-81c-3.7395 0-6.75 3.0105-6.75 6.75v81c0 3.7395 3.0105 6.75 6.75 6.75h81c3.7395 0 6.75-3.0105 6.75-6.75v-81c0-3.7395-3.0105-6.75-6.75-6.75z" opacity=".15"/>
<path d="m88.006 1.915h-79.714c-3.6801 0-6.6429 2.9627-6.6429 6.6429v79.714c0 3.6801 2.9627 6.6429 6.6429 6.6429h79.714c3.6801 0 6.6429-2.9627 6.6429-6.6429v-79.714c0-3.6801-2.9627-6.6429-6.6429-6.6429z" fill="url(#linearGradient4071)"/>
<path d="m11.39 6.8022c-2.8565 0-5.1241 2.3147-5.1241 5.2305v69.369c1.0972 1.7038 2.9688 2.8441 5.1241 2.8441h73.787c2.1553 0 4.0269-1.1402 5.1241-2.8441v-69.369c0-2.9158-2.2676-5.2305-5.1241-5.2305z" fill="#e2daeb" opacity=".77865"/>
<path d="m9.974 5.1445c-3.1166 0-5.668 2.5395-5.668 5.646v69.278c0 3.1065 2.5513 5.646 5.668 5.646h76.792c3.1166 0 5.668-2.5395 5.668-5.646v-69.278c0-3.1065-2.5513-5.646-5.668-5.646zm0 2.3194h76.792c1.8881 0 3.352 1.4801 3.352 3.3266v69.278c0 1.8465-1.4639 3.3266-3.352 3.3266h-76.792c-1.8881 0-3.352-1.4801-3.352-3.3266v-69.278c0-1.8465 1.4639-3.3266 3.352-3.3266z" color="#000000" fill="#1f2224" fill-opacity=".63265" style="text-decoration-line:none;text-indent:0;text-transform:none"/>
<path d="m1.649 82.259v6c0 3.6801 2.9761 6.6562 6.6562 6.6562h79.687c3.6801 0 6.6563-2.9761 6.6563-6.6562v-6c0 3.6801-2.9761 6.6562-6.6563 6.6562h-79.687c-3.6801 0-6.6562-2.9761-6.6562-6.6562z" fill="url(#linearGradient4129)" opacity=".65818"/>
<rect x="5.524" y="80.665" width="84.25" height="4.25" rx="0" ry="4.25" fill="url(#radialGradient7462)" opacity=".55"/>
<rect transform="rotate(90)" x="5.975" y="-90.234" width="76.75" height="4.25" rx="0" ry="4.25" fill="url(#radialGradient7464)" opacity=".669"/>
<g transform="matrix(.65083 0 0 .65083 -23.355 13.931)">
<path d="m131.78 29.594-0.125 0.3125-1.1562 2.7812-0.0312 0.0625v0.03125l-0.34375 2v0.0625 0.0625l0.0312 0.3125-2.0938 0.25-0.0312-0.25v-0.0625l-0.0313-0.0625-0.84375-1.8438-0.03125-0.0625-0.03125-0.0625-1.8438-2.375-0.1875-0.28125-0.34375 0.09375-1.875 0.5-0.34375 0.09375-0.0312 0.34375-0.40625 2.9688v0.0625 0.0625l0.21875 2.0312v0.0625 0.0625l0.0937 0.25-1.9062 0.78125-0.125-0.21875-0.03125-0.0625-0.03125-0.0625-1.2812-1.5625-0.0312-0.03125-0.0625-0.0625-2.4062-1.8125-0.28125-0.21875-0.28125 0.15625-1.6875 1-0.28125 0.15625 0.0312 0.34375 0.40625 3v0.0625l0.0312 0.03125 0.6875 1.9062 0.0312 0.0625 0.0312 0.03125 0.15625 0.25-1.6562 1.2812-0.1875-0.21875-0.0312-0.0625-0.0312-0.03125-1.6562-1.1875-0.0625-0.03125-0.0312-0.03125-2.8125-1.125-0.3125-0.125-0.21875 0.21875-1.4062 1.375-0.21875 0.25 0.125 0.3125 1.1562 2.7812 0.0312 0.0625 0.0312 0.03125 1.1562 1.6562 0.0312 0.0625 0.0625 0.03125 0.21875 0.1875-1.2812 1.6562-0.21875-0.15625-0.0625-0.03125-0.0312-0.03125-1.9062-0.71875-0.0625-0.03125h-0.0625l-3-0.375-0.3125-0.0625-0.1875 0.3125-0.96875 1.6875-0.15625 0.28125 0.1875 0.28125 1.8125 2.4062 0.0625 0.03125 0.0312 0.03125 1.5938 1.3125 0.0312 0.03125 0.0625 0.03125 0.25 0.125-0.78125 1.9062-0.28125-0.09375-0.0625-0.03125h-0.0625l-2.0312-0.1875-0.0312-0.03125-0.06235 0.03125-3 0.40625-0.3125 0.03125-0.0937 0.34375-0.53125 1.875-0.0625 0.3125 0.25 0.21875 2.375 1.8438 0.0625 0.03125 0.0625 0.03125 1.8438 0.84375 0.0625 0.03125h0.0625l0.28125 0.03125-0.28125 2.0938-0.28125-0.03125h-0.0625-0.0625l-2 0.3125-0.0625 0.03125h-0.0625l-2.7812 1.1875-0.3125 0.125v0.3125 1.9688 0.34375l0.3125 0.125 2.7812 1.1562 0.0625 0.03125h0.0625l2 0.34375h0.0625 0.0625l0.28125-0.03125 0.2812 2.0938-0.28125 0.03125h-0.0625l-0.0625 0.03125-1.8438 0.84375-0.0625 0.03125-0.0625 0.03125-2.375 1.8438-0.25 0.21875 0.0625 0.3125 0.53125 1.875 0.0937 0.34375 0.3125 0.03125 3 0.40625h0.0625 0.0312l2.0312-0.1875 0.0625-0.03125h0.0625l0.28125-0.09375 0.78125 1.9062-0.25 0.125-0.0624 0.03125-0.0312 0.03125-1.5938 1.2812-0.0312 0.0625-0.0625 0.03125-1.8125 2.4062-0.1875 0.28125 0.15625 0.28125 0.96875 1.6875 0.1875 0.28125 0.3125-0.03125 3-0.40625h0.0625 0.0312l1.9062-0.71875 0.0625-0.03125 0.06245-0.03125 0.21875-0.15625 1.2812 1.6562-0.21875 0.1875-0.0625 0.03125-0.03125 0.03125-1.1562 1.6562-0.0625 0.0625v0.03125l-1.1562 2.8125-0.125 0.3125 0.21875 0.25 1.4062 1.375 0.21875 0.21875 0.3125-0.125 2.8125-1.1562h0.0312l0.0625-0.03125 1.6562-1.1875 0.0312-0.03125 0.0312-0.0625 0.1875-0.21875 1.6562 1.2812-0.15625 0.21875-0.0312 0.0625-0.0312 0.0625-0.6875 1.9062-0.0312 0.03125v0.0625l-0.40625 3-0.0312 0.3125 0.28125 0.1875 1.6875 0.96875 0.28125 0.15625 0.28125-0.1875 2.4062-1.8125 0.0625-0.03125 0.0312-0.0625 1.2812-1.5938 0.0312-0.03125 0.0312-0.0625 0.125-0.21875 1.9062 0.78125-0.0937 0.25v0.0625 0.0625l-0.21875 2.0312v0.0625 0.03125l0.40625 3 0.0312 0.34375 0.34375 0.0625 1.875 0.53125 0.34375 0.0625 0.1875-0.25 1.8438-2.375 0.03135-0.0625 0.03125-0.0625 0.84375-1.8438 0.0312-0.0625v-0.0625l0.0312-0.28125 2.0938 0.28125-0.0312 0.28125v0.0625 0.0625l0.34375 2.0312v0.03125l0.0312 0.0625 1.1562 2.7812 0.125 0.3125h0.34375 1.9688 0.3125l0.125-0.3125 1.1875-2.7812 0.0312-0.0625v-0.0625l0.3125-2v-0.0625-0.0625-0.28125l2.0625-0.28125 0.0312 0.28125 0.0312 0.0625v0.0625l0.84375 1.875 0.0312 0.03125 0.0312 0.0625 1.875 2.375 0.1875 0.28125 0.3125-0.0937 1.9062-0.53125 0.3125-0.0625 0.0312-0.34375 0.4375-3v-0.03125-0.0625l-0.21875-2.0312v-0.0625l-0.0312-0.0625-0.0937-0.25 1.9375-0.78125 0.125 0.21875v0.0625l0.0625 0.03125 1.2812 1.5938 0.0312 0.03125 0.0625 0.0625 2.375 1.8125 0.28125 0.1875 0.28125-0.15625 1.7188-0.96875 0.28125-0.1875-0.0625-0.3125-0.375-3v-0.0625l-0.0312-0.03125-0.71875-1.9062-0.0312-0.0625-0.031-0.0625-0.15625-0.21875 1.6562-1.2812 0.1875 0.21875 0.0312 0.0625 0.0625 0.03125 1.6562 1.1875 0.0312 0.03125h0.0625l2.7812 1.1562 0.3125 0.125 0.25-0.21875 1.375-1.375 0.21875-0.25-0.125-0.3125-1.125-2.7812-0.0312-0.0625-0.0312-0.0625-1.1875-1.6563-0.0312-0.03125-0.06255-0.03125-0.21875-0.1875 1.2812-1.6562 0.25 0.15625 0.0312 0.03125 0.0625 0.03125 1.9062 0.71875h0.0312 0.0625l3 0.40625 0.34375 0.03125 0.15625-0.28125 1-1.6875 0.15625-0.28125-0.1874-0.28125-1.8438-2.4062-0.03125-0.03125-0.0625-0.0625-1.5625-1.2812-0.0625-0.03125-0.0312-0.03125-0.25-0.125 0.78125-1.9062 0.28125 0.09375h0.0312l0.0625 0.03125 2.0312 0.1875h0.0625 0.0625l3-0.40625 0.3125-0.03125 0.0937-0.34375 0.5-1.875 0.0937-0.3125-0.25-0.21875-2.4062-1.8438-0.0625-0.03125-0.0312-0.03125-1.875-0.84375h-0.0312l-0.0625-0.03125-0.28125-0.0625 0.25-2.0625 0.3125 0.03125h0.0625 0.0625l2-0.34375h0.0312l0.0625-0.03125 2.7812-1.1562 0.3125-0.125v-0.34375-1.9688-0.3125l-0.3125-0.125-2.7812-1.1875h-0.0625l-0.0312-0.03125-2-0.3125h-0.0625-0.0625l-0.3125 0.03125-0.25-2.0625 0.28125-0.0625h0.0625l0.0312-0.03125 1.875-0.84375 0.0312-0.03125 0.0625-0.03125 2.4062-1.8438 0.25-0.21875-0.0937-0.3125-0.5-1.875-0.0937-0.34375-0.3125-0.03125-3-0.40625-0.0625-0.03125-0.0625 0.03125-2.0312 0.1875h-0.0625l-0.0312 0.03125-0.28125 0.09375-0.78125-1.9062 0.25-0.125 0.0312-0.03125 0.0625-0.0625 1.5625-1.2812 0.0625-0.03125 0.0312-0.03125 1.8438-2.4062 0.1875-0.28125-0.15625-0.28125-1-1.6875-0.15625-0.3125-0.34375 0.0625-3 0.375h-0.0625l-0.0312 0.03125-1.9062 0.71875-0.0625 0.03125-0.0312 0.03125-0.25 0.15625-1.2814-1.6562 0.21875-0.1875 0.0625-0.03125 0.0312-0.0625 1.1875-1.6562 0.0312-0.03125 0.0312-0.0625 1.125-2.7812 0.125-0.3125-0.21875-0.25-1.375-1.375-0.25-0.21875-0.3125 0.125-2.7812 1.125-0.0625 0.03125-0.0312 0.03125-1.6562 1.1875-0.0625 0.03125-0.0312 0.0625-0.18745 0.21875-1.6562-1.2812 0.15625-0.25 0.0312-0.03125 0.0312-0.0625 0.71875-1.875 0.0312-0.0625v-0.0625l0.375-3 0.0625-0.34375-0.28125-0.15625-1.7188-1-0.28125-0.15625-0.28125 0.21875-2.375 1.8125-0.0625 0.0625-0.0312 0.03125-1.2812 1.5625-0.0625 0.0625v0.0625l-0.125 0.21875-1.9374-0.78125 0.0937-0.25 0.0312-0.0625v-0.0625l0.21875-2.0312v-0.0625-0.0625l-0.4375-3-0.0312-0.3125-0.3125-0.09375-1.9062-0.5-0.3125-0.09375-0.1875 0.28125-1.875 2.375-0.0312 0.0625-0.0312 0.0625-0.84375 1.8438v0.0625l-0.0312 0.0625-0.0312 0.25-2.0625-0.25v-0.3125-0.0625-0.03125l-0.3125-2v-0.0625l-0.0312-0.0625-1.1875-2.7812-0.125-0.3125h-0.3125-1.9688-0.34375zm1.3125 11.25c3.0049 0 5.8668 0.5801 8.5312 1.5625l-5.0312 9.7188c-1.1193-0.29204-2.2866-0.5-3.5-0.5-2.5358 0-4.8872 0.75317-6.9375 1.9375l-7.5-8.0312c4.0703-2.9329 9.0402-4.6875 14.438-4.6875zm14 4.4062c6.4793 4.4643 10.75 11.881 10.75 20.344 0 0.46501-4e-3 0.91495-0.0312 1.375l-10.813-1.9688c-0.16937-4.0466-2.034-7.6197-4.9375-10.062zm-32.938 4.4688 7.4688 8.0312c-1.5375 2.2438-2.5 4.9229-2.5 7.8438 0 0.99261 0.1463 1.9388 0.34375 2.875l-9.9375 4.5625c-0.74755-2.3574-1.1875-4.8347-1.1875-7.4375 0-6.0479 2.207-11.575 5.8125-15.875zm31.75 21.312 10.75 1.9375c-2.5297 8.0632-9.0364 14.329-17.25 16.5l-1.4375-10.812c3.5908-1.3384 6.441-4.1145 7.9375-7.625zm-23.875 3.0312c2.3181 3.0227 5.8352 5.0548 9.8438 5.4062l1.4688 10.875c-0.0809 9.2e-4 -0.16914 0-0.25 0-8.8764 0-16.595-4.6966-20.969-11.719z" color="#000000" filter="url(#filter4325-0-1-4)" style="text-decoration-line:none;text-indent:0;text-transform:none"/>
<path d="m132.13 28.09-1.1667 2.7894-0.33527 1.9982 0.067 0.76441-3.0174 0.38891-0.13411-0.73759-0.83146-1.8507-1.8507-2.4005-1.8909 0.5096-0.40232 2.9906 0.20116 2.025 0.2548 0.71076-2.8028 1.1667-0.32185-0.68394-1.2874-1.569-2.4139-1.8373-1.6898 0.97898 0.38891 3.004 0.71077 1.8909 0.42914 0.6303-2.4005 1.8507-0.4962-0.57666-1.6495-1.1935-2.8028-1.1399-1.3813 1.3813 1.1533 2.7894 1.1801 1.6495 0.57666 0.4962-1.8507 2.4139-0.61689-0.42914-1.9043-0.72418-2.9906-0.38891-0.97898 1.7032 1.8238 2.4005 1.5825 1.2874 0.67054 0.32186-1.1533 2.8028-0.71076-0.2548-2.025-0.20116-2.9906 0.41573-0.50961 1.8775 2.3871 1.8507 1.8507 0.84487 0.751 0.13411-0.40232 3.004-0.751-0.05364-2.0116 0.32186-2.7894 1.1667v1.958l2.7894 1.1667 2.0116 0.33527 0.751-0.06706 0.40232 3.0174-0.751 0.13411-1.8507 0.83146-2.3871 1.8507 0.50961 1.8909 2.9906 0.40232 2.025-0.20116 0.71076-0.2548 1.1533 2.8028-0.67054 0.32186-1.5825 1.2874-1.8238 2.4139 0.97898 1.6897 2.9906-0.38891 1.9043-0.71077 0.61689-0.42914 1.8507 2.4005-0.57666 0.49619-1.1801 1.6495-1.1533 2.8028 1.3813 1.3813 2.8028-1.1533 1.6495-1.1801 0.4962-0.57666 2.4005 1.8507-0.42914 0.61689-0.71077 1.9043-0.38891 2.9906 1.6898 0.97898 2.4139-1.8239 1.2874-1.5825 0.32185-0.67053 2.8028 1.1533-0.2548 0.71076-0.20116 2.025 0.40232 2.9906 1.8909 0.50961 1.8507-2.3871 0.83146-1.8507 0.13411-0.751 3.0174 0.40232-0.067 0.751 0.33527 2.0116 1.1667 2.7894h1.958l1.1667-2.7894 0.32186-2.0116-0.0536-0.751 3.004-0.40232 0.13411 0.751 0.84487 1.8507 1.8507 2.3871 1.8775-0.50961 0.41573-2.9906-0.20116-2.025-0.25481-0.71076 2.8028-1.1533 0.32186 0.67053 1.2874 1.5825 2.4005 1.8239 1.7032-0.97898-0.38891-2.9906-0.72418-1.9043-0.42914-0.61689 2.4139-1.8507 0.4962 0.57666 1.6495 1.1801 2.7894 1.1533 1.3813-1.3813-1.1399-2.8028-1.1936-1.6495-0.57666-0.49619 1.8507-2.4005 0.6303 0.42914 1.8909 0.71077 3.004 0.38891 0.97898-1.6897-1.8373-2.4139-1.569-1.2874-0.68394-0.32186 1.1667-2.8028 0.71077 0.2548 2.025 0.20116 2.9906-0.40232 0.50959-1.8909-2.4005-1.8507-1.8507-0.83146-0.73759-0.13411 0.38891-3.0174 0.7644 0.06706 1.9982-0.33527 2.7894-1.1667v-1.958l-2.7894-1.1667-1.9982-0.32186-0.7644 0.05364-0.38891-3.004 0.73759-0.13411 1.8507-0.84487 2.4005-1.8507-0.50959-1.8775-2.9906-0.41573-2.025 0.20116-0.71077 0.2548-1.1667-2.8028 0.68394-0.32186 1.569-1.2874 1.8373-2.4005-0.97898-1.7032-3.004 0.38891-1.8909 0.72418-0.6303 0.42914-1.8507-2.4139 0.57666-0.4962 1.1935-1.6495 1.1399-2.7894-1.3813-1.3813-2.7894 1.1399-1.6495 1.1935-0.4962 0.57666-2.4139-1.8507 0.42914-0.6303 0.72418-1.8909 0.38891-3.004-1.7032-0.97898-2.4005 1.8373-1.2874 1.569-0.32186 0.68394-2.8028-1.1667 0.25481-0.71076 0.20116-2.025-0.41574-2.9906-1.8775-0.5096-1.8507 2.4005-0.84487 1.8507-0.13411 0.73759-3.004-0.38891 0.0536-0.76441-0.32186-1.9982-1.1667-2.7894zm0.97898 10.246c3.2634 0 6.3763 0.62886 9.24 1.7568l-5.4581 10.581c-1.2016-0.35199-2.4669-0.54984-3.7818-0.54984-2.6073 0-5.045 0.75362-7.1076 2.0384l-8.1-8.7303c4.233-3.1963 9.4992-5.0961 15.208-5.0961zm13.813 4.1305c6.8848 4.5111 11.439 12.279 11.439 21.122 0 0.66039-0.0307 1.3102-0.0805 1.958l-11.707-2.1189c-0.0502-4.2061-2.0422-7.9444-5.1095-10.38zm-32.802 4.4658 8.1 8.7303c-1.625 2.2248-2.5748 4.9617-2.5748 7.9257 0 1.0942 0.12876 2.1596 0.37549 3.1783l-10.822 4.9619c-0.87197-2.5568-1.3545-5.2902-1.3545-8.1403 0-6.3792 2.3691-12.21 6.2762-16.656zm31.528 21.551 11.721 2.1323c-2.5046 8.6635-9.5289 15.419-18.346 17.541l-1.5959-11.815c3.7635-1.2764 6.7803-4.1739 8.2207-7.8586zm-23.482 2.9638c2.3014 3.1966 5.9752 5.3376 10.152 5.5788l1.5959 11.815c-0.26745 0.0084-0.53515 0.01345-0.80464 0.01345-9.2657 0-17.368-4.998-21.766-12.445l10.822-4.962z" fill="url(#radialGradient3863-2-3)" stroke="url(#linearGradient3865-1-2)"/>
<path transform="matrix(2.2107 0 0 2.2107 -47.743 -122.12)" d="m83.039 84.007a1.2367 1.2367 0 1 1-2.4735 0 1.2367 1.2367 0 1 1 2.4735 0z" fill="#b8b8b8" stroke="url(#linearGradient3867-0-9)" stroke-linejoin="round" stroke-width=".45234"/>
<path transform="matrix(5.7825 0 0 5.7825 -339.92 -422.18)" d="m83.039 84.007a1.2367 1.2367 0 1 1-2.4735 0 1.2367 1.2367 0 1 1 2.4735 0z" fill="none" stroke="url(#linearGradient5273)" stroke-linejoin="round" stroke-width=".34587"/>
</g>
<g transform="translate(28.214 13.248)">
<circle cx="-4.174" cy="28.047" r="13" color="#000000" fill="#4d4d4d" fill-opacity=".14427"/>
<path d="m-4.174 15.047c-7.1797 0-13 5.8203-13 13 0 3.8465 1.6886 7.2761 4.3438 9.6562-2.0625-2.3008-3.3438-5.3231-3.3438-8.6562 0-7.1797 5.8203-13 13-13 3.3332 0 6.3554 1.2812 8.6562 3.3438-2.3802-2.6552-5.8097-4.3438-9.6562-4.3438z" color="#000000" fill="#4d4d4d" fill-opacity=".53957"/>
<path d="m5.4823 19.391c2.0625 2.3008 3.3438 5.3231 3.3438 8.6562 0 7.1797-5.8203 13-13 13-3.3332 0-6.3554-1.2812-8.6562-3.3438 2.3802 2.6552 5.8097 4.3438 9.6562 4.3438 7.1797 0 13-5.8203 13-13 0-3.8465-1.6886-7.2761-4.3438-9.6562z" color="#000000" fill="#fff" fill-opacity=".85971"/>
<path d="m-2.1739 17.047-4 10-10 4 2 2h8l-2 6 2 2h6v-8h8v-6l-2-2-6 2v-8z" color="#000000" fill="#4d4d4d" fill-opacity=".40288"/>
<path d="m-7.174 17.047v8h-8v6h8v8h6v-8h8v-6h-8v-8z" color="#000000" fill="url(#linearGradient984)"/>
<circle cx="-4.174" cy="28.047" r="2" color="#000000" fill="#c5c5c5"/>
<g transform="matrix(.93271 0 -.27718 .75581 -.8527 .41435)" fill-opacity=".51452">
<path d="m-16.295 5.7033c-1e-6 -0.5517 0.08711-1.1034 0.26134-1.6551 0.18874-0.56622 0.45734-1.0744 0.80578-1.5245 0.34844-0.46459 0.76948-0.84207 1.2631-1.1325 0.49363-0.29036 1.0526-0.43555 1.6769-0.43556h12.697c0.29035 1.108e-5 0.53717 0.10164 0.74045 0.30489 0.20324 0.20327 0.30487 0.45009 0.30489 0.74045-1.89e-5 0.29038-0.10165 0.5372-0.30489 0.74045-0.20328 0.20327-0.4501 0.3049-0.74045 0.30489h-12.239c-0.50816 9e-6 -0.92194 0.09438-1.2413 0.28311-0.3049 0.17423-0.55171 0.39201-0.74045 0.65334-0.17423 0.26134-0.29764 0.55172-0.37023 0.87112-0.05808 0.3049-0.08712 0.58801-0.08711 0.84934-3e-6 0.26134 0.02904 0.55171 0.08711 0.87112 0.07259 0.3049 0.196 0.58801 0.37023 0.84934 0.18874 0.26134 0.43556 0.48638 0.74045 0.67512 0.3194 0.17423 0.73319 0.26134 1.2413 0.26134h12.239c0.29035 3.7e-6 0.53717 0.10163 0.74045 0.30489 0.20324 0.20326 0.30487 0.45008 0.30489 0.74045-1.89e-5 0.29038-0.10165 0.53719-0.30489 0.74045-0.20328 0.20326-0.4501 0.30489-0.74045 0.30489h-12.914c-0.59527 2e-6 -1.1252-0.14518-1.5898-0.43556-0.4646-0.29037-0.86386-0.6606-1.1978-1.1107-0.31941-0.46459-0.56623-0.98-0.74045-1.5462-0.17422-0.56622-0.26134-1.1179-0.26134-1.6551"/>
<path d="m3.6538 2.001c-1.1e-6 -0.29036 0.10163-0.53718 0.30489-0.74045 0.20326-0.20325 0.45008-0.30488 0.74045-0.30489h13.045c0.40651 1.108e-5 0.78399 0.079864 1.1325 0.23956 0.36295 0.1452 0.6751 0.34846 0.93645 0.60978 0.27584 0.26135 0.48636 0.56624 0.63156 0.91467 0.15969 0.34846 0.23954 0.72594 0.23956 1.1325-1.8e-5 0.40653-0.07987 0.78401-0.23956 1.1325-0.1452 0.34845-0.35572 0.65335-0.63156 0.91467-0.26135 0.26134-0.5735 0.47186-0.93645 0.63156-0.34846 0.14519-0.72595 0.21778-1.1325 0.21778h-11.325c-0.18875 0.029043-0.34845 0.11615-0.47912 0.26134-0.13067 0.14519-0.196 0.32667-0.196 0.54445v1.8511c-3.2e-6 0.29038-0.10889 0.53719-0.32667 0.74045-0.20326 0.20326-0.44282 0.30489-0.71867 0.30489-0.29037 2e-6 -0.53719-0.10163-0.74045-0.30489-0.20326-0.20326-0.30489-0.45008-0.30489-0.74045v-2.0907c-1.1e-6 -0.36296 0.065333-0.70415 0.196-1.0236 0.13067-0.33392 0.31215-0.61704 0.54445-0.84934 0.24681-0.24681 0.52267-0.43555 0.82756-0.56623 0.31941-0.14518 0.66785-0.21777 1.0453-0.21778h11.564c0.21776 7.3e-6 0.40651-0.072586 0.56623-0.21778 0.17421-0.1597 0.26132-0.3557 0.26134-0.58801-1.7e-5 -0.21777-0.087128-0.40651-0.26134-0.56623-0.15972-0.1597-0.34846-0.23955-0.56623-0.23956h-13.132c-0.29037 9e-6 -0.53719-0.10162-0.74045-0.30489-0.20326-0.20325-0.30489-0.45007-0.30489-0.74045"/>
</g>
<g transform="matrix(.93271 0 -.27718 .75581 -1.7133 1.3157)" fill="#dbe3e2">
<path d="m-16.295 5.7033c-1e-6 -0.5517 0.08711-1.1034 0.26134-1.6551 0.18874-0.56622 0.45734-1.0744 0.80578-1.5245 0.34844-0.46459 0.76948-0.84207 1.2631-1.1325 0.49363-0.29036 1.0526-0.43555 1.6769-0.43556h12.697c0.29035 1.108e-5 0.53717 0.10164 0.74045 0.30489 0.20324 0.20327 0.30487 0.45009 0.30489 0.74045-1.89e-5 0.29038-0.10165 0.5372-0.30489 0.74045-0.20328 0.20327-0.4501 0.3049-0.74045 0.30489h-12.239c-0.50816 9e-6 -0.92194 0.09438-1.2413 0.28311-0.3049 0.17423-0.55171 0.39201-0.74045 0.65334-0.17423 0.26134-0.29764 0.55172-0.37023 0.87112-0.05808 0.3049-0.08712 0.58801-0.08711 0.84934-3e-6 0.26134 0.02904 0.55171 0.08711 0.87112 0.07259 0.3049 0.196 0.58801 0.37023 0.84934 0.18874 0.26134 0.43556 0.48638 0.74045 0.67512 0.3194 0.17423 0.73319 0.26134 1.2413 0.26134h12.239c0.29035 3.7e-6 0.53717 0.10163 0.74045 0.30489 0.20324 0.20326 0.30487 0.45008 0.30489 0.74045-1.89e-5 0.29038-0.10165 0.53719-0.30489 0.74045-0.20328 0.20326-0.4501 0.30489-0.74045 0.30489h-12.914c-0.59527 2e-6 -1.1252-0.14518-1.5898-0.43556-0.4646-0.29037-0.86386-0.6606-1.1978-1.1107-0.31941-0.46459-0.56623-0.98-0.74045-1.5462-0.17422-0.56622-0.26134-1.1179-0.26134-1.6551" fill-opacity=".39004"/>
<path d="m3.6538 2.001c-1.1e-6 -0.29036 0.10163-0.53718 0.30489-0.74045 0.20326-0.20325 0.45008-0.30488 0.74045-0.30489h13.045c0.40651 1.108e-5 0.78399 0.079864 1.1325 0.23956 0.36295 0.1452 0.6751 0.34846 0.93645 0.60978 0.27584 0.26135 0.48636 0.56624 0.63156 0.91467 0.15969 0.34846 0.23954 0.72594 0.23956 1.1325-1.8e-5 0.40653-0.07987 0.78401-0.23956 1.1325-0.1452 0.34845-0.35572 0.65335-0.63156 0.91467-0.26135 0.26134-0.5735 0.47186-0.93645 0.63156-0.34846 0.14519-0.72595 0.21778-1.1325 0.21778h-11.325c-0.18875 0.029043-0.34845 0.11615-0.47912 0.26134-0.13067 0.14519-0.196 0.32667-0.196 0.54445v1.8511c-3.2e-6 0.29038-0.10889 0.53719-0.32667 0.74045-0.20326 0.20326-0.44282 0.30489-0.71867 0.30489-0.29037 2e-6 -0.53719-0.10163-0.74045-0.30489-0.20326-0.20326-0.30489-0.45008-0.30489-0.74045v-2.0907c-1.1e-6 -0.36296 0.065333-0.70415 0.196-1.0236 0.13067-0.33392 0.31215-0.61704 0.54445-0.84934 0.24681-0.24681 0.52267-0.43555 0.82756-0.56623 0.31941-0.14518 0.66785-0.21777 1.0453-0.21778h11.564c0.21776 7.3e-6 0.40651-0.072586 0.56623-0.21778 0.17421-0.1597 0.26132-0.3557 0.26134-0.58801-1.7e-5 -0.21777-0.087128-0.40651-0.26134-0.56623-0.15972-0.1597-0.34846-0.23955-0.56623-0.23956h-13.132c-0.29037 9e-6 -0.53719-0.10162-0.74045-0.30489-0.20326-0.20325-0.30489-0.45007-0.30489-0.74045" fill-opacity=".42739"/>
</g>
</g>
<rect transform="matrix(1.0692 0 0 1.0477 3.5879 38.038)" x="2" y="-30" width="75.966" height="69.024" rx="3.957" ry="3.957" clip-path="url(#clipPath4156-4-1)" fill="url(#linearGradient4767)" opacity=".63"/>
<g transform="translate(-32.811 63.627)">
<rect x="48" y="9" width="12" height="4" rx="2" ry="2" color="#000000" fill="#4d4d4d" fill-opacity=".30824"/>
<rect x="47" y="8" width="12" height="4" rx="2" ry="2" color="#000000" fill="url(#radialGradient4322)"/>
</g>
<g transform="rotate(90 23.043 11.103)" fill="url(#radialGradient994)">
<rect x="48" y="9" width="12" height="4" rx="2" ry="2" color="#000000"/>
<rect x="47" y="8" width="12" height="4" rx="2" ry="2" color="#000000"/>
</g>
<g transform="translate(22.274 6.1157)">
<rect x="48" y="9" width="12" height="4" rx="2" ry="2" color="#000000" fill="#4d4d4d" fill-opacity=".30824"/>
<rect x="47" y="8" width="12" height="4" rx="2" ry="2" color="#000000" fill="url(#radialGradient968)"/>
</g>
<g transform="translate(22.274 13.116)">
<rect x="48" y="9" width="12" height="4" rx="2" ry="2" color="#000000" fill="#4d4d4d" fill-opacity=".30824"/>
<rect x="47" y="8" width="12" height="4" rx="2" ry="2" color="#000000" fill="url(#radialGradient976)"/>
</g>
</g>
</g>
</svg>
