<?xml version="1.0" encoding="UTF-8"?>
<!-- Created with Inkscape (http://www.inkscape.org/) -->
<svg version="1.1" viewBox="0 0 96 96" xmlns="http://www.w3.org/2000/svg" xmlns:cc="http://creativecommons.org/ns#" xmlns:dc="http://purl.org/dc/elements/1.1/" xmlns:rdf="http://www.w3.org/1999/02/22-rdf-syntax-ns#" xmlns:xlink="http://www.w3.org/1999/xlink">
<defs>
<linearGradient id="linearGradient4071" x1="6" x2="90" y1="47" y2="47" gradientTransform="matrix(1.1071 0 0 1.1071 -4.9939 -3.6207)" gradientUnits="userSpaceOnUse">
<stop stop-color="#b0b9be" offset="0"/>
<stop stop-color="#fff" offset=".25"/>
<stop stop-color="#93a2a7" offset=".5"/>
<stop stop-color="#f9fbfb" offset=".75"/>
<stop stop-color="#b0b8be" offset="1"/>
</linearGradient>
<linearGradient id="linearGradient4129" x1="1.5" x2="94.5" y1="88.172" y2="88.172" gradientTransform="translate(.14895 .41503)" gradientUnits="userSpaceOnUse">
<stop offset="0"/>
<stop stop-opacity=".58824" offset=".1"/>
<stop stop-opacity=".58824" offset=".9"/>
<stop offset="1"/>
</linearGradient>
<radialGradient id="radialGradient7462" cx="13.948" cy="44.893" r="43.199" gradientTransform="matrix(.97513 0 0 .049191 34.048 80.582)" gradientUnits="userSpaceOnUse" xlink:href="#linearGradient4050"/>
<linearGradient id="linearGradient4050">
<stop stop-color="#fff" offset="0"/>
<stop stop-color="#fff" stop-opacity="0" offset="1"/>
</linearGradient>
<radialGradient id="radialGradient7464" cx="13.948" cy="44.893" r="43.199" gradientTransform="matrix(.88833 0 0 .049191 31.96 -90.317)" gradientUnits="userSpaceOnUse" xlink:href="#linearGradient4050"/>
<radialGradient id="radialGradient4543" cx="48" cy="-16.128" r="44.544" gradientTransform="matrix(1 0 0 .048851 -16.372 -3.8618)" gradientUnits="userSpaceOnUse" xlink:href="#linearGradient4050"/>
<linearGradient id="linearGradient4388" x1="2.5" x2="93.5" y1="54.297" y2="54.297" gradientTransform="translate(-17.652 -22.602)" gradientUnits="userSpaceOnUse" xlink:href="#linearGradient4160"/>
<linearGradient id="linearGradient4160">
<stop stop-opacity="0" offset="0"/>
<stop stop-opacity=".96471" offset=".031756"/>
<stop stop-opacity="0" offset=".094256"/>
<stop stop-opacity="0" offset=".49595"/>
<stop stop-opacity="0" offset=".90526"/>
<stop stop-opacity=".98824" offset=".96241"/>
<stop stop-opacity="0" offset="1"/>
</linearGradient>
<linearGradient id="linearGradient13490" x1="47.057" x2="48.641" y1="22.252" y2="22.252" gradientTransform="matrix(1 0 0 .99132 -17.354 9.6361)" gradientUnits="userSpaceOnUse">
<stop stop-color="#849699" offset="0"/>
<stop stop-color="#0b0d0d" stop-opacity="0" offset="1"/>
</linearGradient>
<linearGradient id="linearGradient4369" x1="2.5" x2="93.5" y1="11.141" y2="11.141" gradientTransform="translate(-17.652 -22.602)" gradientUnits="userSpaceOnUse" xlink:href="#linearGradient4160"/>
<linearGradient id="linearGradient4767-6" x1="2.7714" x2="50.528" y1="-28.642" y2="14.514" gradientUnits="userSpaceOnUse" xlink:href="#linearGradient4050"/>
<clipPath id="clipPath4156-4-1-2">
<path d="m27.046-55.695-14.214 13.321h0.06127l15.653 21.771 10.231-10.546c-0.2169-1.1522-11.311-23.67-11.732-24.546zm-17.399 16.313-14.888 14.062 21.229 17.515 10.385-10.577zm31.491 12.951-9.7413 9.7136 8.9448 12.458 7.7808-7.555zm-49.84 4.3788-13.754 12.982 26.283 13.846 0.06127-0.0617-0.12253-0.0617 9.8332-10.053-22.301-16.652zm38.015 7.4008-9.8025 9.7753 11.579 9.5594 7.6276-7.4008-8.6691-11.009zm20.187 5.674-7.3825 7.2158 6.1878 8.5418 5.8202-6.1365zm-32.195 6.3215-9.5575 9.4977 13.662 7.185 7.9339-7.6784zm23.312 2.3744-7.1068 6.9383 8.3628 6.9074 5.3608-5.674-0.06127-0.0925-0.0919 0.12335-6.4635-8.2026zm-8.7304 8.5418-7.5051 7.3392 10.354 5.4581c1.3975-1.321 5.6751-6.1229 5.8509-6.3215z" fill="#fff" opacity=".6"/>
</clipPath>
<linearGradient id="linearGradient3370-9" x1="23.576" x2="22.911" y1="-1.2683" y2="54.606" gradientUnits="userSpaceOnUse">
<stop stop-color="#2567a5" offset="0"/>
<stop stop-color="#42b5c3" offset=".5"/>
<stop stop-color="#1e6020" offset="1"/>
</linearGradient>
<filter id="filter4136-7" x="-.46463" y="-.46463" width="1.9293" height="1.9293" color-interpolation-filters="sRGB">
<feGaussianBlur stdDeviation="2.1559548"/>
</filter>
<radialGradient id="radialGradient3372-2" cx="11.7" cy="83.136" r="14.309" gradientTransform="matrix(.99953 .033247 -.028629 1.0087 2.3857 -1.4952)" gradientUnits="userSpaceOnUse" xlink:href="#linearGradient4050"/>
<radialGradient id="radialGradient3411" cx="11.904" cy="80.203" r="14.309" gradientTransform="matrix(1 0 0 .86922 0 10.489)" gradientUnits="userSpaceOnUse" xlink:href="#linearGradient4050"/>
</defs>
<metadata>
<rdf:RDF>
<cc:Work rdf:about="">
<dc:format>image/svg+xml</dc:format>
<dc:type rdf:resource="http://purl.org/dc/dcmitype/StillImage"/>
<dc:title/>
<dc:date>2017</dc:date>
<dc:creator>
<cc:Agent>
<dc:title>Cristian Pozzessere "ilnanny"</dc:title>
</cc:Agent>
</dc:creator>
<dc:subject>
<rdf:Bag>
<rdf:li>Global language</rdf:li>
</rdf:Bag>
</dc:subject>
<dc:description>Playing with Inkscape on Gnu/Linux O. S.</dc:description>
<dc:contributor>
<cc:Agent>
<dc:title>In the night, alone like a dog.</dc:title>
</cc:Agent>
</dc:contributor>
<cc:license rdf:resource="http://creativecommons.org/licenses/by-sa/4.0/"/>
</cc:Work>
<cc:License rdf:about="http://creativecommons.org/licenses/by-sa/4.0/">
<cc:permits rdf:resource="http://creativecommons.org/ns#Reproduction"/>
<cc:permits rdf:resource="http://creativecommons.org/ns#Distribution"/>
<cc:requires rdf:resource="http://creativecommons.org/ns#Notice"/>
<cc:requires rdf:resource="http://creativecommons.org/ns#Attribution"/>
<cc:permits rdf:resource="http://creativecommons.org/ns#DerivativeWorks"/>
<cc:requires rdf:resource="http://creativecommons.org/ns#ShareAlike"/>
</cc:License>
</rdf:RDF>
</metadata>
<g transform="translate(0 -1026.5)">
<g transform="translate(-.14896 1026.1)">
<path d="m89.292 0.41503h-82.286c-3.7988 0-6.8571 3.0583-6.8571 6.8571v82.286c0 3.7989 3.0583 6.8571 6.8571 6.8571h82.286c3.7989 0 6.8571-3.0583 6.8571-6.8571v-82.286c0-3.7989-3.0583-6.8571-6.8571-6.8571z" opacity=".15"/>
<path d="m88.649 1.165h-81c-3.7395 0-6.75 3.0105-6.75 6.75v81c0 3.7395 3.0105 6.75 6.75 6.75h81c3.7395 0 6.75-3.0105 6.75-6.75v-81c0-3.7395-3.0105-6.75-6.75-6.75z" opacity=".15"/>
<path d="m88.006 1.915h-79.714c-3.6801 0-6.6429 2.9627-6.6429 6.6429v79.714c0 3.6801 2.9627 6.6429 6.6429 6.6429h79.714c3.6801 0 6.6429-2.9627 6.6429-6.6429v-79.714c0-3.6801-2.9627-6.6429-6.6429-6.6429z" fill="url(#linearGradient4071)"/>
<path d="m9.974 5.1445c-3.1166 0-5.668 2.5395-5.668 5.646v69.278c0 3.1065 2.5513 5.646 5.668 5.646h76.792c3.1166 0 5.668-2.5395 5.668-5.646v-69.278c0-3.1065-2.5513-5.646-5.668-5.646zm0 2.3194h76.792c1.8881 0 3.352 1.4801 3.352 3.3266v69.278c0 1.8465-1.4639 3.3266-3.352 3.3266h-76.792c-1.8881 0-3.352-1.4801-3.352-3.3266v-69.278c0-1.8465 1.4639-3.3266 3.352-3.3266z" color="#000000" fill="#241f1f" fill-opacity=".63265" style="text-decoration-line:none;text-indent:0;text-transform:none"/>
<path d="m1.649 82.259v6c0 3.6801 2.9761 6.6562 6.6562 6.6562h79.687c3.6801 0 6.6563-2.9761 6.6563-6.6562v-6c0 3.6801-2.9761 6.6562-6.6563 6.6562h-79.687c-3.6801 0-6.6562-2.9761-6.6562-6.6562z" fill="url(#linearGradient4129)" opacity=".65818"/>
<rect x="5.524" y="80.665" width="84.25" height="4.25" rx="0" ry="4.25" fill="url(#radialGradient7462)" opacity=".55"/>
<rect transform="rotate(90)" x="5.975" y="-90.234" width="76.75" height="4.25" rx="0" ry="4.25" fill="url(#radialGradient7464)" opacity=".669"/>
<g transform="matrix(.91298 0 0 .84445 20.288 23.984)">
<path d="m-11.246-7.5079c-2.1685 0-3.9062 1.7424-3.9062 3.9062v70.594c0 2.1638 1.7377 3.9062 3.9062 3.9062h83.188c2.1685 0 3.9062-1.7424 3.9062-3.9062v-70.594c0-2.1638-1.7377-3.9062-3.9062-3.9062z" fill="#ebedee"/>
<rect x="-12.916" y="-6.8257" width="89.088" height="4.352" rx="3.957" ry="3.0577" fill="url(#radialGradient4543)" opacity=".65091"/>
<path d="m-11.246-7.5079c-2.1685 0-3.9062 1.7424-3.9062 3.9062v70.594c0 2.1638 1.7377 3.9062 3.9062 3.9062h83.188c2.1685 0 3.9062-1.7424 3.9062-3.9062v-70.594c0-2.1638-1.7377-3.9062-3.9062-3.9062z" fill="url(#linearGradient4388)" opacity=".28"/>
<g transform="matrix(1.0953 0 0 1.1842 -2.7237 -4.7454)">
<g transform="matrix(.97531 0 0 .91189 .061966 .31416)" opacity=".86545">
<g transform="matrix(1.0157 0 0 .97791 4.3229 8.5215)" stroke="#525252" stroke-linecap="round" stroke-linejoin="round" stroke-width=".7">
<rect x="-12.91" y="-5.0244" width="78.45" height="62.426" fill="#dbe3e2"/>
<rect x="-10.731" y="-2.8241" width="74.092" height="58.025" fill="url(#linearGradient3370-9)"/>
</g>
<path transform="matrix(1.2689 0 0 .97791 -3.2469 -27.248)" d="m11.904 67.765 7.2337 12.346 7.0752 12.438-14.309 0.0915-14.309-0.0915 7.0752-12.438z" fill="#dbe3e2" stroke="#a1d3ea" stroke-linecap="round" stroke-linejoin="round" stroke-width=".27914"/>
<path transform="matrix(1.9043 0 0 1.6936 18.629 -93.677)" d="m11.904 67.765 7.2337 12.346 7.0752 12.438-14.309 0.0915-14.309-0.0915 7.0752-12.438z" fill="#dbe3e2" stroke="#bee9f1" stroke-linecap="round" stroke-linejoin="round" stroke-width=".33298"/>
<circle transform="matrix(.80829 0 0 .74446 -13.792 -14.91)" cx="24.961" cy="43.774" r="5.5682" fill="#fffc33" filter="url(#filter4136-7)" stroke="#ffc903" stroke-linecap="round" stroke-linejoin="round"/>
<circle transform="matrix(.80829 0 0 .74446 -13.792 -14.91)" cx="24.961" cy="43.774" r="5.5682" fill="#fffc33" opacity=".40364" stroke="#ffc903" stroke-linecap="round" stroke-linejoin="round"/>
<path transform="matrix(1.9043 0 0 1.6936 18.629 -93.677)" d="m11.904 67.765 7.2337 12.346 7.0752 12.438-14.309 0.0915-14.309-0.0915 7.0752-12.438z" fill="url(#radialGradient3372-2)" opacity=".73091"/>
<path transform="matrix(1.2689 0 0 .97791 -3.2469 -27.248)" d="m11.904 67.765 7.2337 12.346 7.0752 12.438-14.309 0.0915-14.309-0.0915 7.0752-12.438z" fill="url(#radialGradient3411)" opacity=".66909"/>
</g>
<g fill="#2e3436" stroke="#2d2d2d" stroke-width=".8">
<path d="m18.189 35.586h-2.2854v-2.681h2.2854v2.681m0 13.229c-4e-6 0.48345-0.0073 0.91563-0.02198 1.2965-0.01465 0.3809-0.06593 0.7325-0.15383 1.0548-0.07325 0.3223-0.19778 0.62263-0.37358 0.90098-0.1758 0.27835-0.42486 0.5567-0.74716 0.83506-0.39556 0.33695-0.82041 0.59332-1.2746 0.76913-0.4395 0.19045-0.84971 0.28567-1.2306 0.28568v-2.3953c0.3809-0.0293 0.6739-0.1172 0.87901-0.2637 0.2051-0.1465 0.3516-0.34428 0.4395-0.59333 0.10255-0.2344 0.16115-0.51276 0.1758-0.83506 0.01465-0.3223 0.02197-0.6739 0.02198-1.0548v-11.823h2.2854v11.823"/>
<path d="m31.551 43.101c-1.2e-5 -0.54205-0.10256-1.0695-0.30765-1.5822-0.20511-0.5274-0.49079-0.9962-0.85703-1.4064-0.36626-0.41019-0.80577-0.73982-1.3185-0.98888-0.51276-0.24904-1.0768-0.37357-1.6921-0.37358-0.60066 1.1e-5 -1.15 0.12454-1.6481 0.37358-0.49811 0.23441-0.93029 0.54939-1.2965 0.94493-0.35161 0.39556-0.62996 0.85704-0.83506 1.3844-0.19046 0.51276-0.28568 1.0475-0.28568 1.6042-4e-6 0.61531 0.10255 1.1867 0.30765 1.7141 0.21975 0.52741 0.51275 0.98889 0.87901 1.3844 0.3809 0.3809 0.8204 0.68123 1.3185 0.90098 0.51275 0.21975 1.0548 0.32963 1.6262 0.32963 0.54205 2e-6 1.0548-0.10255 1.5383-0.30765 0.49809-0.2051 0.9376-0.49078 1.3185-0.85703 0.38089-0.3809 0.68122-0.83505 0.90098-1.3625 0.23439-0.5274 0.35159-1.1134 0.3516-1.758m-10.482-6.1091h2.0876v1.8679h0.04395c0.5567-0.7911 1.216-1.3551 1.9778-1.6921 0.77645-0.33694 1.5602-0.50542 2.3513-0.50543 1.0255 1.2e-5 1.9338 0.19046 2.7249 0.57135 0.7911 0.38092 1.4504 0.87902 1.9778 1.4943 0.52739 0.61532 0.92294 1.3185 1.1867 2.1096 0.27834 0.79111 0.41751 1.5895 0.41753 2.3953-1.4e-5 0.77646-0.13919 1.5383-0.41753 2.2854-0.27837 0.73251-0.68124 1.3991-1.2086 1.9997-0.52742 0.586-1.172 1.0621-1.9338 1.4284-0.76182 0.3516-1.6262 0.5274-2.5931 0.5274-0.64461 0-1.2086-0.07325-1.6921-0.21975-0.46881-0.1465-0.87901-0.3223-1.2306-0.5274-0.35161-0.2051-0.63728-0.42485-0.85703-0.65926-0.21976-0.24905-0.38823-0.4688-0.50543-0.65926h-0.04395v5.8234h-2.2854v-16.24"/>
<path d="m45.671 42.31c-0.02931-0.4395-0.14651-0.87167-0.3516-1.2965-0.20511-0.43949-0.48346-0.8204-0.83506-1.1427-0.35161-0.33694-0.76182-0.60797-1.2306-0.81308-0.46881-0.20509-0.97424-0.30764-1.5163-0.30765-0.55671 1.1e-5 -1.0695 0.10256-1.5383 0.30765-0.45416 0.20511-0.85704 0.47614-1.2086 0.81308-0.35161 0.32231-0.62996 0.70322-0.83506 1.1427-0.2051 0.42486-0.32231 0.85704-0.3516 1.2965h7.8671m-7.8671 1.758c0.1465 0.58601 0.35892 1.0914 0.63728 1.5163 0.293 0.41021 0.62262 0.75448 0.98888 1.0328 0.3809 0.2637 0.77645 0.46148 1.1867 0.59333 0.4102 0.1172 0.80575 0.1758 1.1867 0.1758 0.8497 2e-6 1.5676-0.2051 2.1536-0.6153 0.60064-0.42485 1.0401-0.90098 1.3185-1.4284h2.2854c-0.29302 0.79111-0.67392 1.4504-1.1427 1.9778-0.46882 0.5274-0.97424 0.95226-1.5163 1.2746-0.52741 0.30765-1.0768 0.5274-1.6481 0.65926-0.55671 0.1465-1.0695 0.21975-1.5383 0.21975-0.86436 0-1.6774-0.16848-2.4392-0.50543-0.74716-0.3516-1.3991-0.8204-1.9558-1.4064-0.55671-0.586-0.99621-1.2672-1.3185-2.0437-0.3223-0.77645-0.48345-1.5969-0.48345-2.4612 0-0.9083 0.16115-1.7507 0.48345-2.5271 0.33695-0.7911 0.78378-1.4723 1.3405-2.0437 0.57135-0.57134 1.2306-1.0182 1.9778-1.3405 0.7618-0.32229 1.5749-0.48344 2.4392-0.48345 0.8204 1.2e-5 1.6042 0.16116 2.3513 0.48345 0.74715 0.30766 1.4064 0.73984 1.9778 1.2965 0.57134 0.55672 1.0255 1.216 1.3625 1.9778 0.33694 0.76181 0.50542 1.5895 0.50543 2.4832-1.3e-5 0.20511-0.0073 0.43218-0.02197 0.68123-0.01466 0.24906-0.02931 0.41021-0.04395 0.48345h-10.087"/>
<path d="m60.363 43.101c-1.2e-5 -0.8497-0.15384-1.5529-0.46148-2.1096-0.30766-0.57135-0.68857-1.0182-1.1427-1.3405-0.43951-0.33694-0.90099-0.57134-1.3844-0.70321-0.48346-0.13184-0.90099-0.19777-1.2526-0.19778-0.60066 1.1e-5 -1.1647 0.11721-1.6921 0.3516-0.51276 0.23441-0.95959 0.54939-1.3405 0.94493-0.36626 0.39556-0.65926 0.85704-0.87901 1.3844-0.2051 0.52741-0.30766 1.0768-0.30765 1.6481-3e-6 0.55671 0.10255 1.0914 0.30765 1.6042 0.2051 0.51276 0.49078 0.97424 0.85703 1.3844 0.3809 0.39556 0.82773 0.71786 1.3405 0.96691 0.51275 0.2344 1.0768 0.3516 1.6921 0.3516 0.74715 2e-6 1.3844-0.1465 1.9118-0.4395 0.54204-0.30765 0.98887-0.68123 1.3405-1.1207 0.35159-0.4395 0.60797-0.90098 0.76913-1.3844 0.16114-0.4981 0.24172-0.94493 0.24173-1.3405m2.2854 4.417c-1.4e-5 0.99621-0.15384 1.8899-0.46148 2.681-0.29302 0.80576-0.72519 1.487-1.2965 2.0437-0.55672 0.5567-1.2453 0.98155-2.0657 1.2746-0.80577 0.293-1.7287 0.4395-2.7689 0.4395-1.4211-5e-6 -2.6517-0.35161-3.6918-1.0548-1.0255-0.70321-1.7946-1.6335-2.3074-2.7908h2.5491c0.0879 0.1172 0.21242 0.27103 0.37358 0.46148 0.1758 0.2051 0.40287 0.40288 0.68123 0.59333 0.27835 0.19045 0.6153 0.3516 1.0109 0.48345 0.39555 0.1465 0.86435 0.21975 1.4064 0.21975 0.60065-2e-6 1.1574-0.08058 1.6701-0.24173 0.5274-0.1465 0.98155-0.39556 1.3625-0.74716 0.39554-0.33695 0.70319-0.77646 0.92296-1.3185 0.21974-0.54205 0.32962-1.2086 0.32963-1.9997h-0.04395c-0.10256 0.1465-0.26371 0.32963-0.48345 0.54938-0.20511 0.2051-0.47614 0.4102-0.81308 0.6153-0.33696 0.2051-0.74716 0.3809-1.2306 0.5274-0.46881 0.1465-1.0255 0.21975-1.6701 0.21975-1.0109 0-1.9192-0.19778-2.7249-0.59333-0.79111-0.39555-1.4723-0.90098-2.0437-1.5163-0.55671-0.6153-0.98888-1.3039-1.2965-2.0657-0.293-0.7618-0.4395-1.5163-0.4395-2.2634-1e-6 -0.6739 0.13185-1.3844 0.39555-2.1316 0.27835-0.74715 0.68855-1.4357 1.2306-2.0657 0.54205-0.62994 1.2233-1.15 2.0437-1.5602 0.8204-0.41019 1.78-0.61529 2.8787-0.6153 0.9083 1.2e-5 1.7287 0.17581 2.4612 0.5274 0.74714 0.33696 1.3258 0.73984 1.736 1.2086v-1.4064h2.2854v10.526"/>
</g>
</g>
<path d="m29.705-7.5079v78.406h42.145c2.2189 0 3.9971-1.7424 3.9971-3.9063v-70.594c0-2.1638-1.7781-3.9062-3.9971-3.9062z" fill="url(#linearGradient13490)" opacity=".567"/>
<path d="m-11.527-20.414c-2.1827 0-3.9375 1.7548-3.9375 3.9375v12c0-2.1827 1.7548-3.9375 3.9375-3.9375h83.75c2.1827 0 3.9375 1.7548 3.9375 3.9375v-12c0-2.1827-1.7548-3.9375-3.9375-3.9375z" opacity="0"/>
<path d="m-11.23-20.105c-2.1685 0-3.9259 1.7614-3.9259 3.9349v3.9658c0-2.1734 1.7574-3.9349 3.9259-3.9349h83.155c2.1685 0 3.9259 1.7614 3.9259 3.9349v-3.9658c0-2.1734-1.7574-3.9349-3.9259-3.9349z" fill="#e4e8e8" stroke="#738589" stroke-width=".99243"/>
<path d="m-11.23-12.175c-2.1685 0-3.9259 1.7614-3.9259 3.9349v3.9658c0-2.1734 1.7574-3.9349 3.9259-3.9349h83.155c2.1685 0 3.9259 1.7614 3.9259 3.9349v-3.9658c0-2.1734-1.7574-3.9349-3.9259-3.9349z" fill="#e4e8e8" stroke="#738589" stroke-width=".99243"/>
<path d="m-11.23-16.14c-2.1685 0-3.9259 1.7614-3.9259 3.9349v3.9658c0-2.1734 1.7574-3.9349 3.9259-3.9349h83.155c2.1685 0 3.9259 1.7614 3.9259 3.9349v-3.9658c0-2.1734-1.7574-3.9349-3.9259-3.9349z" fill="#e4e8e8" stroke="#738589" stroke-width=".99243"/>
<path d="m-11.246-19.914c-2.1685 0-3.9062 1.7424-3.9062 3.9062v13c0-2.1638 2.0873-4.7846 4.2558-4.7801l83.013 0.17476c2.1685 0.00457 3.7315 2.4415 3.7315 4.6053v-13c0-2.1638-1.7377-3.9062-3.9062-3.9062z" fill="url(#linearGradient4369)" opacity=".25818"/>
<rect transform="matrix(1.1712 0 0 1.2407 -16.712 17.252)" x="2" y="-30" width="75.966" height="69.024" rx="3.957" ry="3.957" clip-path="url(#clipPath4156-4-1-2)" fill="url(#linearGradient4767-6)" opacity=".50781"/>
</g>
</g>
</g>
</svg>
