<?xml version="1.0" encoding="UTF-8"?>
<!-- Created with Inkscape (http://www.inkscape.org/) -->
<svg version="1.1" viewBox="0 0 96 96" xmlns="http://www.w3.org/2000/svg" xmlns:cc="http://creativecommons.org/ns#" xmlns:dc="http://purl.org/dc/elements/1.1/" xmlns:rdf="http://www.w3.org/1999/02/22-rdf-syntax-ns#" xmlns:xlink="http://www.w3.org/1999/xlink">
<defs>
<linearGradient id="linearGradient4071" x1="6" x2="90" y1="47" y2="47" gradientTransform="matrix(1.1071 0 0 1.1071 -4.9939 -3.6207)" gradientUnits="userSpaceOnUse">
<stop stop-color="#b0b9be" offset="0"/>
<stop stop-color="#fff" offset=".25"/>
<stop stop-color="#93a2a7" offset=".5"/>
<stop stop-color="#f9fbfb" offset=".75"/>
<stop stop-color="#b0b8be" offset="1"/>
</linearGradient>
<linearGradient id="linearGradient4129" x1="1.5" x2="94.5" y1="88.172" y2="88.172" gradientTransform="translate(.14895 .41503)" gradientUnits="userSpaceOnUse">
<stop offset="0"/>
<stop stop-opacity=".58824" offset=".1"/>
<stop stop-opacity=".58824" offset=".9"/>
<stop offset="1"/>
</linearGradient>
<radialGradient id="radialGradient7462" cx="13.948" cy="44.893" r="43.199" gradientTransform="matrix(.97513 0 0 .049191 34.048 80.582)" gradientUnits="userSpaceOnUse" xlink:href="#linearGradient4050"/>
<linearGradient id="linearGradient4050">
<stop stop-color="#fff" offset="0"/>
<stop stop-color="#fff" stop-opacity="0" offset="1"/>
</linearGradient>
<radialGradient id="radialGradient7464" cx="13.948" cy="44.893" r="43.199" gradientTransform="matrix(.88833 0 0 .049191 31.96 -90.317)" gradientUnits="userSpaceOnUse" xlink:href="#linearGradient4050"/>
<radialGradient id="radialGradient4543" cx="48" cy="-16.128" r="44.544" gradientTransform="matrix(1 0 0 .048851 -16.372 -3.8618)" gradientUnits="userSpaceOnUse" xlink:href="#linearGradient4050"/>
<linearGradient id="linearGradient4388" x1="2.5" x2="93.5" y1="54.297" y2="54.297" gradientTransform="translate(-17.652 -22.602)" gradientUnits="userSpaceOnUse" xlink:href="#linearGradient4160"/>
<linearGradient id="linearGradient4160">
<stop stop-opacity="0" offset="0"/>
<stop stop-opacity=".96471" offset=".031756"/>
<stop stop-opacity="0" offset=".094256"/>
<stop stop-opacity="0" offset=".49595"/>
<stop stop-opacity="0" offset=".90526"/>
<stop stop-opacity=".98824" offset=".96241"/>
<stop stop-opacity="0" offset="1"/>
</linearGradient>
<linearGradient id="linearGradient4369" x1="2.5" x2="93.5" y1="11.141" y2="11.141" gradientTransform="translate(-17.652 -22.602)" gradientUnits="userSpaceOnUse" xlink:href="#linearGradient4160"/>
<linearGradient id="linearGradient4767-6" x1="2.7714" x2="50.528" y1="-28.642" y2="14.514" gradientUnits="userSpaceOnUse" xlink:href="#linearGradient4050"/>
<clipPath id="clipPath4156-4-1-2">
<path d="m27.046-55.695-14.214 13.321h0.06127l15.653 21.771 10.231-10.546c-0.2169-1.1522-11.311-23.67-11.732-24.546zm-17.399 16.313-14.888 14.062 21.229 17.515 10.385-10.577zm31.491 12.951-9.7413 9.7136 8.9448 12.458 7.7808-7.555zm-49.84 4.3788-13.754 12.982 26.283 13.846 0.06127-0.0617-0.12253-0.0617 9.8332-10.053-22.301-16.652zm38.015 7.4008-9.8025 9.7753 11.579 9.5594 7.6276-7.4008-8.6691-11.009zm20.187 5.674-7.3825 7.2158 6.1878 8.5418 5.8202-6.1365zm-32.195 6.3215-9.5575 9.4977 13.662 7.185 7.9339-7.6784zm23.312 2.3744-7.1068 6.9383 8.3628 6.9074 5.3608-5.674-0.06127-0.0925-0.0919 0.12335-6.4635-8.2026zm-8.7304 8.5418-7.5051 7.3392 10.354 5.4581c1.3975-1.321 5.6751-6.1229 5.8509-6.3215z" fill="#fff" opacity=".6"/>
</clipPath>
<linearGradient id="linearGradient5360" x1="48.992" x2="37" y1="46.125" y2="36" gradientTransform="translate(-73.958 28.611)" gradientUnits="userSpaceOnUse">
<stop stop-color="#cfcfcf" offset="0"/>
<stop stop-color="#b7b7b7" offset=".20986"/>
<stop stop-color="#c9c9c9" offset="1"/>
</linearGradient>
<clipPath id="clipPath3114">
<path d="m0 265h595v312h-595z"/>
</clipPath>
</defs>
<metadata>
<rdf:RDF>
<cc:Work rdf:about="">
<dc:format>image/svg+xml</dc:format>
<dc:type rdf:resource="http://purl.org/dc/dcmitype/StillImage"/>
<dc:title/>
<dc:date>2017</dc:date>
<dc:creator>
<cc:Agent>
<dc:title>Cristian Pozzessere "ilnanny"</dc:title>
</cc:Agent>
</dc:creator>
<dc:subject>
<rdf:Bag>
<rdf:li>Global language</rdf:li>
</rdf:Bag>
</dc:subject>
<dc:description>Playing with Inkscape on Gnu/Linux O. S.</dc:description>
<dc:contributor>
<cc:Agent>
<dc:title>In the night, alone like a dog.</dc:title>
</cc:Agent>
</dc:contributor>
<cc:license rdf:resource="http://creativecommons.org/licenses/by-sa/4.0/"/>
</cc:Work>
<cc:License rdf:about="http://creativecommons.org/licenses/by-sa/4.0/">
<cc:permits rdf:resource="http://creativecommons.org/ns#Reproduction"/>
<cc:permits rdf:resource="http://creativecommons.org/ns#Distribution"/>
<cc:requires rdf:resource="http://creativecommons.org/ns#Notice"/>
<cc:requires rdf:resource="http://creativecommons.org/ns#Attribution"/>
<cc:permits rdf:resource="http://creativecommons.org/ns#DerivativeWorks"/>
<cc:requires rdf:resource="http://creativecommons.org/ns#ShareAlike"/>
</cc:License>
</rdf:RDF>
</metadata>
<g transform="translate(0 -1026.5)">
<g transform="translate(-.14896 1026.1)">
<path d="m89.292 0.41503h-82.286c-3.7988 0-6.8571 3.0583-6.8571 6.8571v82.286c0 3.7989 3.0583 6.8571 6.8571 6.8571h82.286c3.7989 0 6.8571-3.0583 6.8571-6.8571v-82.286c0-3.7989-3.0583-6.8571-6.8571-6.8571z" opacity=".15"/>
<path d="m88.649 1.165h-81c-3.7395 0-6.75 3.0105-6.75 6.75v81c0 3.7395 3.0105 6.75 6.75 6.75h81c3.7395 0 6.75-3.0105 6.75-6.75v-81c0-3.7395-3.0105-6.75-6.75-6.75z" opacity=".15"/>
<path d="m88.006 1.915h-79.714c-3.6801 0-6.6429 2.9627-6.6429 6.6429v79.714c0 3.6801 2.9627 6.6429 6.6429 6.6429h79.714c3.6801 0 6.6429-2.9627 6.6429-6.6429v-79.714c0-3.6801-2.9627-6.6429-6.6429-6.6429z" fill="url(#linearGradient4071)"/>
<path d="m1.649 82.259v6c0 3.6801 2.9761 6.6562 6.6562 6.6562h79.687c3.6801 0 6.6563-2.9761 6.6563-6.6562v-6c0 3.6801-2.9761 6.6562-6.6563 6.6562h-79.687c-3.6801 0-6.6562-2.9761-6.6562-6.6562z" fill="url(#linearGradient4129)" opacity=".65818"/>
<rect x="5.524" y="80.665" width="84.25" height="4.25" rx="0" ry="4.25" fill="url(#radialGradient7462)" opacity=".55"/>
<rect transform="rotate(90)" x="5.975" y="-90.234" width="76.75" height="4.25" rx="0" ry="4.25" fill="url(#radialGradient7464)" opacity=".669"/>
<g transform="matrix(.91298 0 0 .84445 20.288 23.984)">
<path d="m-11.246-7.5079c-2.1685 0-3.9062 1.7424-3.9062 3.9062v70.594c0 2.1638 1.7377 3.9062 3.9062 3.9062h83.188c2.1685 0 3.9062-1.7424 3.9062-3.9062v-70.594c0-2.1638-1.7377-3.9062-3.9062-3.9062z" fill="#ebedee"/>
<rect x="-12.916" y="-6.8257" width="89.088" height="4.352" rx="3.957" ry="3.0577" fill="url(#radialGradient4543)" opacity=".65091"/>
<path d="m-11.246-7.5079c-2.1685 0-3.9062 1.7424-3.9062 3.9062v70.594c0 2.1638 1.7377 3.9062 3.9062 3.9062h83.188c2.1685 0 3.9062-1.7424 3.9062-3.9062v-70.594c0-2.1638-1.7377-3.9062-3.9062-3.9062z" fill="url(#linearGradient4388)" opacity=".28"/>
<g transform="matrix(.14065 0 0 -.15206 -11.327 93.073)" clip-path="url(#clipPath3114)">
<path d="m297.5 277.2c157.59 0 285.34 64.743 285.34 144.61s-127.75 144.61-285.34 144.61-285.34-64.743-285.34-144.61 127.75-144.61 285.34-144.61" fill="#617cbe"/>
<path d="m355.3 375.07s14.155 72.844 14.155 72.846c3.1931 16.441 0.537 28.706-7.8939 36.455-8.1657 7.4988-22.029 11.144-42.381 11.144h-24.512l7.0165 36.093c0.2642 1.3597-0.0934 2.7678-0.9752 3.8364s-2.1953 1.6883-3.5807 1.6883h-33.831c-2.221 0-4.1306-1.5734-4.5538-3.7547l-15.032-77.335c-1.3672 8.7016-4.7331 16.183-10.124 22.354-9.9239 11.359-25.62 17.118-46.656 17.118h-65.574c-2.2211 0-4.1306-1.5734-4.5538-3.7547l-30.424-156.54c-0.26421-1.3608 0.09236-2.7667 0.97412-3.8353 0.88069-1.0687 2.1942-1.6894 3.5797-1.6894h34.1c2.2211 0 4.1307 1.5745 4.5549 3.7536l7.3591 37.864h25.383c13.322 0 24.509 1.4434 33.248 4.2885 8.9336 2.9052 17.154 7.8316 24.402 14.615 5.8544 5.3807 10.694 11.403 14.418 17.902l-6.08-31.28c-0.2642-1.3607 0.0934-2.7666 0.9752-3.8352 0.8818-1.0687 2.1942-1.6894 3.5797-1.6894h33.831c2.221 0 4.1306 1.5744 4.5549 3.7536l16.698 85.926h23.214c9.8927 0 12.788-1.9698 13.574-2.8172 0.7164-0.7722 2.2039-3.4948 0.537-12.077l-13.459-69.261c-0.2642-1.3607 0.0934-2.7666 0.9752-3.8352 0.8817-1.0687 2.1942-1.6894 3.5796-1.6894h34.368c2.221 0 4.1306 1.5744 4.5548 3.7536zm-156.85 60.188c-2.1244-10.919-6.1294-18.709-11.902-23.153-5.8662-4.5162-15.249-6.8071-27.889-6.8071h-15.112l10.929 56.235h19.538c14.356 0 20.139-3.0685 22.461-5.6418 3.2188-3.5689 3.9018-10.705 1.9751-20.633" fill="#fff"/>
<path d="m499.98 478.39c-9.9227 11.359-25.62 17.118-46.655 17.118h-65.574c-2.2222 0-4.1307-1.5734-4.5549-3.7547l-30.424-156.54c-0.2642-1.3608 0.0935-2.7667 0.9741-3.8353 0.8818-1.0687 2.1942-1.6894 3.5808-1.6894h34.1c2.2211 0 4.1306 1.5745 4.5527 3.7536l7.3602 37.864h25.383c13.322 0 24.509 1.4434 33.248 4.2885 8.9336 2.9052 17.154 7.8316 24.402 14.615 6.0435 5.5558 11.019 11.792 14.788 18.534 3.7623 6.734 6.4677 14.251 8.039 22.342 3.8782 19.943 0.7754 35.858-9.2204 47.301zm-35.365-43.139c-2.1254-10.919-6.1293-18.709-11.902-23.153-5.8662-4.5162-15.25-6.8071-27.888-6.8071h-15.114l10.929 56.235h19.539c14.355 0 20.139-3.0685 22.461-5.6418 3.2188-3.5689 3.9019-10.705 1.9751-20.633" fill="#fff"/>
<path d="m174.02 466.17c12.956 0 21.59-2.3908 25.906-7.1744 4.3132-4.7826 5.341-12.992 3.0845-24.626-2.3585-12.116-6.8973-20.764-13.627-25.945s-16.97-7.7694-30.719-7.7694h-20.741l12.732 65.514zm-83.084-131.83h34.1l8.0884 41.618h29.209c12.888 0 23.49 1.3511 31.813 4.0619 8.3235 2.7043 15.888 7.2452 22.696 13.618 5.7148 5.2508 10.337 11.045 13.878 17.381 3.5367 6.3302 6.0499 13.32 7.5352 20.964 3.6076 18.557 0.885 33.01-8.1603 43.363-9.0453 10.354-23.435 15.531-43.161 15.531h-65.574l-30.424-156.54" fill="#08090d"/>
<path d="m263.3 532.49h33.831l-8.0884-41.618h30.14c18.963 0 32.044-3.3101 39.243-9.9216 7.1991-6.6159 9.3557-17.336 6.4774-32.154l-14.155-72.843h-34.368l13.458 69.26c1.5315 7.879 0.9698 13.253-1.6905 16.119-2.6592 2.8655-8.3192 4.3004-16.975 4.3004h-27.038l-17.428-89.68h-33.831l30.424 156.54" fill="#08090d"/>
<path d="m440.18 466.17c12.955 0 21.589-2.3908 25.906-7.1744 4.3133-4.7826 5.3411-12.992 3.0835-24.626-2.3574-12.116-6.8962-20.764-13.627-25.945-6.7286-5.181-16.969-7.7694-30.717-7.7694h-20.742l12.732 65.514zm-83.084-131.83h34.1l8.0884 41.618h29.208c12.888 0 23.49 1.3511 31.813 4.0619 8.3235 2.7043 15.888 7.2452 22.697 13.618 5.7137 5.2508 10.337 11.045 13.878 17.381 3.5367 6.3302 6.0499 13.32 7.5341 20.964 3.6087 18.557 0.8861 33.01-8.1592 43.363-9.0453 10.354-23.435 15.531-43.162 15.531h-65.574l-30.423-156.54" fill="#08090d"/>
</g>
<g transform="matrix(1.0972 0 0 1.1862 93.935 -34.944)">
<path d="m-16.09 60.629-0.66806 6.9404c4.6527 30.15-3.5561 21.725-24.433 21.203z" fill="#e4e4e4"/>
<path d="m-17.782 60.02-24.374 29h1.9499l23.186-28.344 0.21327-0.28125v-0.375c-0.48125-0.27347-0.97496 0-0.97496 0z" fill="#effcfe" stroke="#fefefe" stroke-width=".19966"/>
<path d="m-39.958 92.611 26-31c-2.3286 2.7764-4.3614 3-11 3h-12v15c0 6.6441 0.04437 9.3702-3 13z" fill="url(#linearGradient5360)"/>
<path d="m-13.836 61.439c-3.5475 1.8899-4.583 2.2243-11.222 2.2243h-12v15c0 6.6441 0.04437 9.3702-3 13 4-5 4.0004-8.3567 4-13v-14h11c5 0 8.263 0.39379 11.222-3.2243z" fill="#fff" fill-opacity=".86614"/>
</g>
<path d="m-11.527-20.414c-2.1827 0-3.9375 1.7548-3.9375 3.9375v12c0-2.1827 1.7548-3.9375 3.9375-3.9375h83.75c2.1827 0 3.9375 1.7548 3.9375 3.9375v-12c0-2.1827-1.7548-3.9375-3.9375-3.9375z" opacity="0"/>
<path d="m-11.23-20.105c-2.1685 0-3.9259 1.7614-3.9259 3.9349v3.9658c0-2.1734 1.7574-3.9349 3.9259-3.9349h83.155c2.1685 0 3.9259 1.7614 3.9259 3.9349v-3.9658c0-2.1734-1.7574-3.9349-3.9259-3.9349z" fill="#e4e8e8" stroke="#738589" stroke-width=".99243"/>
<path d="m-11.23-12.175c-2.1685 0-3.9259 1.7614-3.9259 3.9349v3.9658c0-2.1734 1.7574-3.9349 3.9259-3.9349h83.155c2.1685 0 3.9259 1.7614 3.9259 3.9349v-3.9658c0-2.1734-1.7574-3.9349-3.9259-3.9349z" fill="#e4e8e8" stroke="#738589" stroke-width=".99243"/>
<path d="m-11.23-16.14c-2.1685 0-3.9259 1.7614-3.9259 3.9349v3.9658c0-2.1734 1.7574-3.9349 3.9259-3.9349h83.155c2.1685 0 3.9259 1.7614 3.9259 3.9349v-3.9658c0-2.1734-1.7574-3.9349-3.9259-3.9349z" fill="#e4e8e8" stroke="#738589" stroke-width=".99243"/>
<path d="m-11.246-19.914c-2.1685 0-3.9062 1.7424-3.9062 3.9062v13c0-2.1638 2.0873-4.7846 4.2558-4.7801l83.013 0.17476c2.1685 0.00457 3.7315 2.4415 3.7315 4.6053v-13c0-2.1638-1.7377-3.9062-3.9062-3.9062z" fill="url(#linearGradient4369)" opacity=".25818"/>
<rect transform="matrix(1.2146 0 0 1.3114 -18.089 19.372)" x="2" y="-30" width="75.966" height="69.024" rx="3.957" ry="3.957" clip-path="url(#clipPath4156-4-1-2)" fill="url(#linearGradient4767-6)" opacity=".50781"/>
</g>
<path d="m9.974 5.1445c-3.1166 0-5.668 2.5395-5.668 5.646v69.278c0 3.1065 2.5513 5.646 5.668 5.646h76.792c3.1166 0 5.668-2.5395 5.668-5.646v-69.278c0-3.1065-2.5513-5.646-5.668-5.646zm0 2.3194h76.792c1.8881 0 3.352 1.4801 3.352 3.3266v69.278c0 1.8465-1.4639 3.3266-3.352 3.3266h-76.792c-1.8881 0-3.352-1.4801-3.352-3.3266v-69.278c0-1.8465 1.4639-3.3266 3.352-3.3266z" color="#000000" fill="#241f1f" fill-opacity=".63265" style="text-decoration-line:none;text-indent:0;text-transform:none"/>
</g>
</g>
</svg>
