<?xml version="1.0" encoding="UTF-8"?>
<!-- Created with Inkscape (http://www.inkscape.org/) -->
<svg version="1.1" viewBox="0 0 96 96" xmlns="http://www.w3.org/2000/svg" xmlns:cc="http://creativecommons.org/ns#" xmlns:dc="http://purl.org/dc/elements/1.1/" xmlns:rdf="http://www.w3.org/1999/02/22-rdf-syntax-ns#" xmlns:xlink="http://www.w3.org/1999/xlink">
<defs>
<linearGradient id="linearGradient4071" x1="6" x2="90" y1="47" y2="47" gradientTransform="matrix(1.1071 0 0 1.1071 -4.9939 -3.6207)" gradientUnits="userSpaceOnUse">
<stop stop-color="#b0b9be" offset="0"/>
<stop stop-color="#fff" offset=".25"/>
<stop stop-color="#93a2a7" offset=".5"/>
<stop stop-color="#f9fbfb" offset=".75"/>
<stop stop-color="#b0b8be" offset="1"/>
</linearGradient>
<linearGradient id="linearGradient4129" x1="1.5" x2="94.5" y1="88.172" y2="88.172" gradientTransform="translate(.14895 .41503)" gradientUnits="userSpaceOnUse">
<stop offset="0"/>
<stop stop-opacity=".58824" offset=".1"/>
<stop stop-opacity=".58824" offset=".9"/>
<stop offset="1"/>
</linearGradient>
<radialGradient id="radialGradient7462" cx="13.948" cy="44.893" r="43.199" gradientTransform="matrix(.97513 0 0 .049191 34.048 80.582)" gradientUnits="userSpaceOnUse" xlink:href="#linearGradient4050"/>
<linearGradient id="linearGradient4050">
<stop stop-color="#fff" offset="0"/>
<stop stop-color="#fff" stop-opacity="0" offset="1"/>
</linearGradient>
<radialGradient id="radialGradient7464" cx="13.948" cy="44.893" r="43.199" gradientTransform="matrix(.88833 0 0 .049191 31.96 -90.317)" gradientUnits="userSpaceOnUse" xlink:href="#linearGradient4050"/>
<radialGradient id="radialGradient4543" cx="48" cy="-16.128" r="44.544" gradientTransform="matrix(1 0 0 .048851 -16.372 -3.8618)" gradientUnits="userSpaceOnUse" xlink:href="#linearGradient4050"/>
<linearGradient id="linearGradient4388" x1="2.5" x2="93.5" y1="54.297" y2="54.297" gradientTransform="translate(-17.652 -22.602)" gradientUnits="userSpaceOnUse" xlink:href="#linearGradient4160"/>
<linearGradient id="linearGradient4160">
<stop stop-opacity="0" offset="0"/>
<stop stop-opacity=".96471" offset=".031756"/>
<stop stop-opacity="0" offset=".094256"/>
<stop stop-opacity="0" offset=".49595"/>
<stop stop-opacity="0" offset=".90526"/>
<stop stop-opacity=".98824" offset=".96241"/>
<stop stop-opacity="0" offset="1"/>
</linearGradient>
<linearGradient id="linearGradient13490" x1="47.057" x2="48.641" y1="22.252" y2="22.252" gradientTransform="matrix(1 0 0 .99132 -17.354 9.6361)" gradientUnits="userSpaceOnUse">
<stop stop-color="#849699" offset="0"/>
<stop stop-color="#0b0d0d" stop-opacity="0" offset="1"/>
</linearGradient>
<linearGradient id="linearGradient4369" x1="2.5" x2="93.5" y1="11.141" y2="11.141" gradientTransform="translate(-17.652 -22.602)" gradientUnits="userSpaceOnUse" xlink:href="#linearGradient4160"/>
<linearGradient id="linearGradient4767-6" x1="2.7714" x2="50.528" y1="-28.642" y2="14.514" gradientUnits="userSpaceOnUse" xlink:href="#linearGradient4050"/>
<clipPath id="clipPath4156-4-1-2">
<path d="m27.046-55.695-14.214 13.321h0.06127l15.653 21.771 10.231-10.546c-0.2169-1.1522-11.311-23.67-11.732-24.546zm-17.399 16.313-14.888 14.062 21.229 17.515 10.385-10.577zm31.491 12.951-9.7413 9.7136 8.9448 12.458 7.7808-7.555zm-49.84 4.3788-13.754 12.982 26.283 13.846 0.06127-0.0617-0.12253-0.0617 9.8332-10.053-22.301-16.652zm38.015 7.4008-9.8025 9.7753 11.579 9.5594 7.6276-7.4008-8.6691-11.009zm20.187 5.674-7.3825 7.2158 6.1878 8.5418 5.8202-6.1365zm-32.195 6.3215-9.5575 9.4977 13.662 7.185 7.9339-7.6784zm23.312 2.3744-7.1068 6.9383 8.3628 6.9074 5.3608-5.674-0.06127-0.0925-0.0919 0.12335-6.4635-8.2026zm-8.7304 8.5418-7.5051 7.3392 10.354 5.4581c1.3975-1.321 5.6751-6.1229 5.8509-6.3215z" fill="#fff" opacity=".6"/>
</clipPath>
</defs>
<metadata>
<rdf:RDF>
<cc:Work rdf:about="">
<dc:format>image/svg+xml</dc:format>
<dc:type rdf:resource="http://purl.org/dc/dcmitype/StillImage"/>
<dc:title/>
<dc:date>2017</dc:date>
<dc:creator>
<cc:Agent>
<dc:title>Cristian Pozzessere "ilnanny"</dc:title>
</cc:Agent>
</dc:creator>
<dc:subject>
<rdf:Bag>
<rdf:li>Global language</rdf:li>
</rdf:Bag>
</dc:subject>
<dc:description>Playing with Inkscape on Gnu/Linux O. S.</dc:description>
<dc:contributor>
<cc:Agent>
<dc:title>In the night, alone like a dog.</dc:title>
</cc:Agent>
</dc:contributor>
<cc:license rdf:resource="http://creativecommons.org/licenses/by-sa/4.0/"/>
</cc:Work>
<cc:License rdf:about="http://creativecommons.org/licenses/by-sa/4.0/">
<cc:permits rdf:resource="http://creativecommons.org/ns#Reproduction"/>
<cc:permits rdf:resource="http://creativecommons.org/ns#Distribution"/>
<cc:requires rdf:resource="http://creativecommons.org/ns#Notice"/>
<cc:requires rdf:resource="http://creativecommons.org/ns#Attribution"/>
<cc:permits rdf:resource="http://creativecommons.org/ns#DerivativeWorks"/>
<cc:requires rdf:resource="http://creativecommons.org/ns#ShareAlike"/>
</cc:License>
</rdf:RDF>
</metadata>
<g transform="translate(0 -1026.5)">
<g transform="translate(-.14896 1026.1)">
<path d="m89.292 0.41503h-82.286c-3.7988 0-6.8571 3.0583-6.8571 6.8571v82.286c0 3.7989 3.0583 6.8571 6.8571 6.8571h82.286c3.7989 0 6.8571-3.0583 6.8571-6.8571v-82.286c0-3.7989-3.0583-6.8571-6.8571-6.8571z" opacity=".15"/>
<path d="m88.649 1.165h-81c-3.7395 0-6.75 3.0105-6.75 6.75v81c0 3.7395 3.0105 6.75 6.75 6.75h81c3.7395 0 6.75-3.0105 6.75-6.75v-81c0-3.7395-3.0105-6.75-6.75-6.75z" opacity=".15"/>
<path d="m88.006 1.915h-79.714c-3.6801 0-6.6429 2.9627-6.6429 6.6429v79.714c0 3.6801 2.9627 6.6429 6.6429 6.6429h79.714c3.6801 0 6.6429-2.9627 6.6429-6.6429v-79.714c0-3.6801-2.9627-6.6429-6.6429-6.6429z" fill="url(#linearGradient4071)"/>
<path d="m9.974 5.1445c-3.1166 0-5.668 2.5395-5.668 5.646v69.278c0 3.1065 2.5513 5.646 5.668 5.646h76.792c3.1166 0 5.668-2.5395 5.668-5.646v-69.278c0-3.1065-2.5513-5.646-5.668-5.646zm0 2.3194h76.792c1.8881 0 3.352 1.4801 3.352 3.3266v69.278c0 1.8465-1.4639 3.3266-3.352 3.3266h-76.792c-1.8881 0-3.352-1.4801-3.352-3.3266v-69.278c0-1.8465 1.4639-3.3266 3.352-3.3266z" color="#000000" fill="#241f1f" fill-opacity=".63265" style="text-decoration-line:none;text-indent:0;text-transform:none"/>
<path d="m1.649 82.259v6c0 3.6801 2.9761 6.6562 6.6562 6.6562h79.687c3.6801 0 6.6563-2.9761 6.6563-6.6562v-6c0 3.6801-2.9761 6.6562-6.6563 6.6562h-79.687c-3.6801 0-6.6562-2.9761-6.6562-6.6562z" fill="url(#linearGradient4129)" opacity=".65818"/>
<rect x="5.524" y="80.665" width="84.25" height="4.25" rx="0" ry="4.25" fill="url(#radialGradient7462)" opacity=".55"/>
<rect transform="rotate(90)" x="5.975" y="-90.234" width="76.75" height="4.25" rx="0" ry="4.25" fill="url(#radialGradient7464)" opacity=".669"/>
<g transform="matrix(.91298 0 0 .84445 20.288 23.984)">
<path d="m-11.246-7.5079c-2.1685 0-3.9062 1.7424-3.9062 3.9062v70.594c0 2.1638 1.7377 3.9062 3.9062 3.9062h83.188c2.1685 0 3.9062-1.7424 3.9062-3.9062v-70.594c0-2.1638-1.7377-3.9062-3.9062-3.9062z" fill="#ebedee"/>
<rect x="-12.916" y="-6.8257" width="89.088" height="4.352" rx="3.957" ry="3.0577" fill="url(#radialGradient4543)" opacity=".65091"/>
<path d="m-11.246-7.5079c-2.1685 0-3.9062 1.7424-3.9062 3.9062v70.594c0 2.1638 1.7377 3.9062 3.9062 3.9062h83.188c2.1685 0 3.9062-1.7424 3.9062-3.9062v-70.594c0-2.1638-1.7377-3.9062-3.9062-3.9062z" fill="url(#linearGradient4388)" opacity=".28"/>
<g transform="matrix(1.4502 0 0 1.5679 -744.36 -825.79)" fill-opacity=".49804">
<path d="m542.82 524.22c-0.22721-0.0169-0.45728 0.0304-0.67517 0.0907-1.4665 5.0023-3.5832 10.219-6.1672 15.2-3.3323 6.3859-7.43 12.357-11.72 17.077 0.23707 0.15649 0.46769 0.36076 0.81288 0.71883 0.56456 0.58561 0.72823 0.80282 1.3235 1.7635 0.74557 1.2032 1.0415 1.7655 1.3201 2.4891 0.1013 0.26312 0.36711 0.85617 0.58783 1.3168 0.22072 0.46053 0.50869 1.1251 0.64158 1.478 0.13302 0.35343 0.35943 0.90695 0.50385 1.2294 0.14444 0.32227 0.43512 1.0167 0.64494 1.5418 0.20979 0.5247 0.47063 1.1453 0.57776 1.3806 0.13831 0.30355 0.22392 0.42659 0.29561 0.42659 0.12963-5.1e-4 0.94917-0.19646 1.3906-0.33253 0.33231-0.10151 1.3527-0.59893 2.2002-1.0715 0.2303-0.129 0.66755-0.43251 0.97413-0.67518 0.63892-0.50613 2.3794-2.0577 2.5596-2.2808 0.0666-0.0844 0.46216-0.5225 0.8767-0.98083 0.41452-0.45834 1.0673-1.1944 1.4511-1.6359 0.38384-0.44148 0.88715-1.0204 1.1186-1.2831 0.2314-0.263 0.67409-0.77689 0.9842-1.1454 0.76983-0.91463 2.4367-2.5462 3.1138-3.0467 1.2345-0.91187 2.0382-1.3116 3.0299-1.5015 0.73907-0.14106 1.3452-0.0878 2.1934 0.20154 0.69162 0.23425 0.90181 0.33587 1.4242 0.68861 0.21495 0.14444 0.45851 0.30749 0.54418 0.35943 0.40796 0.2468 1.6711 1.3246 2.5529 2.18 1.9234 1.8662 3.8377 3.4717 3.9738 3.3355 0.059-0.0603-0.14825-0.57293-0.76587-1.9113-0.20534-0.44524-0.48263-1.098-0.6147-1.4511-0.13218-0.35325-0.42089-1.0704-0.64158-1.5922-0.2207-0.52214-0.50918-1.2507-0.64159-1.619-0.13217-0.36841-0.41803-1.0971-0.63822-1.619-0.22019-0.52183-0.5351-1.3-0.69868-1.7299-0.16347-0.42978-0.47466-1.2343-0.68861-1.787-0.44709-1.155-1.4535-4.037-2.9996-8.5958-1.54-4.5414-2.2877-6.657-3.1676-8.9351-0.74878-1.9386-2.1462-4.811-2.8955-5.9522-0.5266-0.80231-1.5481-1.8647-2.049-2.133-0.21283-0.11357-0.46671-0.18187-0.73226-0.19816zm-2.7074 1.7971c-0.40107 0.55172-0.86683 1.2604-1.4309 2.217-0.31686 0.53745-0.75274 1.2542-0.97077 1.5922-0.21802 0.33744-0.46932 0.7383-0.55761 0.89016-0.35754 0.61466-1.5412 2.2307-2.4756 3.3792-0.79102 0.97204-2.2919 2.3659-2.8586 2.6536-0.10743 0.055-0.29706 0.16643-0.41986 0.24857-0.27554 0.18525-0.78448 0.38927-1.4679 0.58446-0.57786 0.16517-1.6618 0.69822-2.1263 1.048-0.79482 0.59889-2.5746 2.5154-3.3154 3.5707-0.11525 0.16347-0.29203 0.38738-0.39301 0.49714-0.10088 0.11187-0.2321 0.266-0.29222 0.34598-0.0675 0.0895-0.29237 0.21704-0.58448 0.33591-0.26101 0.10659-0.70114 0.2944-0.9775 0.41651-0.27636 0.12033-1.0395 0.42839-1.6997 0.68189-0.66017 0.25369-1.4646 0.58421-1.787 0.73228-0.3224 0.14783-0.78894 0.34268-1.0346 0.43332-0.68265 0.2516-2.1381 0.83856-2.3648 0.95396-0.11102 0.0567-0.98293 0.41014-1.9348 0.78266-0.95188 0.37286-1.9195 0.76234-2.1498 0.87-0.23028 0.10828-0.7199 0.3165-1.0883 0.46356-0.88491 0.35325-0.88914 0.39005-0.16453 0.86662 0.25229 0.16516 1.1355 0.80315 2.002 1.441 0.18081 0.13408 0.49577 0.35482 0.69868 0.49378 0.20302 0.13936 0.60514 0.43015 0.89686 0.64495 0.29171 0.21446 0.63638 0.45687 0.76587 0.54081 0.21397 0.13936 1.0958 0.77012 1.9382 1.3906 0.18082 0.13407 0.49577 0.35481 0.69868 0.49378 0.34385 0.2358 1.0969 0.7779 1.871 1.347 0.62831 0.46212 1.267 0.88679 1.3369 0.88679 0.0717 0 0.97181-0.35218 1.1421-0.44677 0.2118-0.11695 0.67337-0.23379 1.0413-0.262 0.0594 0 0.12625 0.0169 0.18145 0.0169 0.76961-0.68001 1.5301-1.3693 2.2539-2.0994 0.89631-0.90411 1.76-1.8421 2.5865-2.8149 0.8265-0.97291 1.6177-1.98 2.3748-3.0131 0.75714-1.0326 1.4784-2.0936 2.1666-3.1776 0.68821-1.0842 1.3419-2.1889 1.9617-3.3154 1.2395-2.253 2.3439-4.5832 3.312-6.9532 0.96819-2.3699 1.8021-4.7819 2.5025-7.1985 0.1493-0.51474 0.22563-1.0237 0.36277-1.5384z" fill="#803300"/>
<path d="m542.95 524.79c-0.22721-0.0169-0.45728 0.0304-0.67517 0.0907-1.4665 5.0023-3.5832 10.219-6.1672 15.2-3.3323 6.3859-7.43 12.357-11.72 17.077 0.23707 0.15649 0.46769 0.36076 0.81288 0.71883 0.56456 0.58561 0.72823 0.80282 1.3235 1.7635 0.74557 1.2032 1.0415 1.7655 1.3201 2.4891 0.1013 0.26312 0.36711 0.85617 0.58783 1.3168 0.22072 0.46053 0.50869 1.1251 0.64158 1.478 0.13302 0.35343 0.35943 0.90695 0.50385 1.2294 0.14444 0.32227 0.43512 1.0167 0.64494 1.5418 0.20979 0.5247 0.47063 1.1453 0.57776 1.3806 0.13831 0.30355 0.22392 0.42659 0.29561 0.42659 0.12963-5.1e-4 0.94917-0.19646 1.3906-0.33253 0.33231-0.10151 1.3527-0.59893 2.2002-1.0715 0.2303-0.129 0.66755-0.43251 0.97413-0.67518 0.63892-0.50613 2.3794-2.0577 2.5596-2.2808 0.0666-0.0844 0.46216-0.5225 0.8767-0.98083 0.41452-0.45834 1.0673-1.1944 1.4511-1.6359 0.38384-0.44148 0.88715-1.0204 1.1186-1.2831 0.2314-0.263 0.67409-0.77689 0.9842-1.1454 0.76983-0.91463 2.4367-2.5462 3.1138-3.0467 1.2345-0.91187 2.0382-1.3116 3.0299-1.5015 0.73907-0.14106 1.3452-0.0878 2.1934 0.20154 0.69162 0.23425 0.90181 0.33587 1.4242 0.68861 0.21495 0.14444 0.45851 0.30749 0.54418 0.35943 0.40796 0.2468 1.6711 1.3246 2.5529 2.18 1.9234 1.8662 3.8377 3.4717 3.9738 3.3355 0.059-0.0603-0.14825-0.57293-0.76587-1.9113-0.20534-0.44524-0.48263-1.098-0.6147-1.4511-0.13218-0.35325-0.42089-1.0704-0.64158-1.5922-0.2207-0.52214-0.50918-1.2507-0.64159-1.619-0.13217-0.36841-0.41803-1.0971-0.63822-1.619-0.22019-0.52183-0.5351-1.3-0.69868-1.7299-0.16347-0.42978-0.47466-1.2343-0.68861-1.787-0.44709-1.155-1.4535-4.037-2.9996-8.5958-1.54-4.5414-2.2877-6.657-3.1676-8.9351-0.74878-1.9386-2.1462-4.811-2.8955-5.9522-0.5266-0.80231-1.5481-1.8647-2.049-2.133-0.21283-0.11357-0.46671-0.18187-0.73226-0.19816zm-2.7074 1.7971c-0.40107 0.55172-0.86683 1.2604-1.4309 2.217-0.31686 0.53745-0.75274 1.2542-0.97077 1.5922-0.21802 0.33744-0.46932 0.7383-0.55761 0.89016-0.35754 0.61466-1.5412 2.2307-2.4756 3.3792-0.79102 0.97204-2.2919 2.3659-2.8586 2.6536-0.10743 0.055-0.29706 0.16643-0.41986 0.24857-0.27554 0.18525-0.78448 0.38927-1.4679 0.58446-0.57786 0.16517-1.6618 0.69822-2.1263 1.048-0.79482 0.59889-2.5746 2.5154-3.3154 3.5707-0.11525 0.16347-0.29203 0.38738-0.39301 0.49714-0.10088 0.11187-0.2321 0.266-0.29222 0.34598-0.0675 0.0895-0.29237 0.21704-0.58448 0.33591-0.26101 0.10659-0.70114 0.2944-0.9775 0.41651-0.27636 0.12033-1.0395 0.42839-1.6997 0.68189-0.66017 0.25369-1.4646 0.58421-1.787 0.73228-0.3224 0.14783-0.78894 0.34268-1.0346 0.43332-0.68265 0.2516-2.1381 0.83856-2.3648 0.95396-0.11102 0.0567-0.98293 0.41014-1.9348 0.78266-0.95188 0.37286-1.9195 0.76234-2.1498 0.87-0.23028 0.10828-0.7199 0.3165-1.0883 0.46356-0.88491 0.35325-0.88914 0.39005-0.16453 0.86662 0.25229 0.16516 1.1355 0.80315 2.002 1.441 0.18081 0.13408 0.49577 0.35482 0.69868 0.49378 0.20302 0.13936 0.60514 0.43015 0.89686 0.64495 0.29171 0.21446 0.63638 0.45687 0.76587 0.54081 0.21397 0.13936 1.0958 0.77012 1.9382 1.3906 0.18082 0.13407 0.49577 0.35481 0.69868 0.49378 0.34385 0.2358 1.0969 0.7779 1.871 1.347 0.62831 0.46212 1.267 0.88679 1.3369 0.88679 0.0717 0 0.97181-0.35218 1.1421-0.44677 0.2118-0.11695 0.67337-0.23379 1.0413-0.262 0.0594 0 0.12625 0.0169 0.18145 0.0169 0.76961-0.68001 1.5301-1.3693 2.2539-2.0994 0.89631-0.90411 1.76-1.8421 2.5865-2.8149 0.8265-0.97291 1.6177-1.98 2.3748-3.0131 0.75714-1.0326 1.4784-2.0936 2.1666-3.1776 0.68821-1.0842 1.3419-2.1889 1.9617-3.3154 1.2395-2.253 2.3439-4.5832 3.312-6.9532 0.96819-2.3699 1.8021-4.7819 2.5025-7.1985 0.1493-0.51474 0.22563-1.0237 0.36277-1.5384z" fill="#d45500"/>
<path d="m542.47 523.77c-0.22721-0.0169-0.45728 0.0304-0.67517 0.0907-1.4665 5.0023-3.5832 10.219-6.1672 15.2-3.3323 6.3859-7.43 12.357-11.72 17.077 0.23707 0.15649 0.46769 0.36076 0.81288 0.71883 0.56456 0.58561 0.72823 0.80282 1.3235 1.7635 0.74557 1.2032 1.0415 1.7655 1.3201 2.4891 0.1013 0.26312 0.36711 0.85617 0.58783 1.3168 0.22072 0.46053 0.50869 1.1251 0.64158 1.478 0.13302 0.35343 0.35943 0.90695 0.50385 1.2294 0.14444 0.32227 0.43512 1.0167 0.64494 1.5418 0.20979 0.5247 0.47063 1.1453 0.57776 1.3806 0.13831 0.30355 0.22392 0.42659 0.29561 0.42659 0.12963-5.1e-4 0.94917-0.19646 1.3906-0.33253 0.33231-0.10151 1.3527-0.59893 2.2002-1.0715 0.2303-0.129 0.66755-0.43251 0.97413-0.67518 0.63892-0.50613 2.3794-2.0577 2.5596-2.2808 0.0666-0.0844 0.46216-0.5225 0.8767-0.98083 0.41452-0.45834 1.0673-1.1944 1.4511-1.6359 0.38384-0.44148 0.88715-1.0204 1.1186-1.2831 0.2314-0.263 0.67409-0.77689 0.9842-1.1454 0.76983-0.91463 2.4367-2.5462 3.1138-3.0467 1.2345-0.91187 2.0382-1.3116 3.0299-1.5015 0.73907-0.14106 1.3452-0.0878 2.1934 0.20154 0.69162 0.23425 0.90181 0.33587 1.4242 0.68861 0.21495 0.14444 0.45851 0.30749 0.54418 0.35943 0.40796 0.2468 1.6711 1.3246 2.5529 2.18 1.9234 1.8662 3.8377 3.4717 3.9738 3.3355 0.059-0.0603-0.14825-0.57293-0.76587-1.9113-0.20534-0.44524-0.48263-1.098-0.6147-1.4511-0.13218-0.35325-0.42089-1.0704-0.64158-1.5922-0.2207-0.52214-0.50918-1.2507-0.64159-1.619-0.13217-0.36841-0.41803-1.0971-0.63822-1.619-0.22019-0.52183-0.5351-1.3-0.69868-1.7299-0.16347-0.42978-0.47466-1.2343-0.68861-1.787-0.44709-1.155-1.4535-4.037-2.9996-8.5958-1.54-4.5414-2.2877-6.657-3.1676-8.9351-0.74878-1.9386-2.1462-4.811-2.8955-5.9522-0.5266-0.80231-1.5481-1.8647-2.049-2.133-0.21283-0.11357-0.46671-0.18187-0.73226-0.19816zm-2.7074 1.7971c-0.40107 0.55172-0.86683 1.2604-1.4309 2.217-0.31686 0.53745-0.75274 1.2542-0.97077 1.5922-0.21802 0.33744-0.46932 0.7383-0.55761 0.89016-0.35754 0.61466-1.5412 2.2307-2.4756 3.3792-0.79102 0.97204-2.2919 2.3659-2.8586 2.6536-0.10743 0.055-0.29706 0.16643-0.41986 0.24857-0.27554 0.18525-0.78448 0.38927-1.4679 0.58446-0.57786 0.16517-1.6618 0.69822-2.1263 1.048-0.79482 0.59889-2.5746 2.5154-3.3154 3.5707-0.11525 0.16347-0.29203 0.38738-0.39301 0.49714-0.10088 0.11187-0.2321 0.266-0.29222 0.34598-0.0675 0.0895-0.29237 0.21704-0.58448 0.33591-0.26101 0.10659-0.70114 0.2944-0.9775 0.41651-0.27636 0.12033-1.0395 0.42839-1.6997 0.68189-0.66017 0.25369-1.4646 0.58421-1.787 0.73228-0.3224 0.14783-0.78894 0.34268-1.0346 0.43332-0.68265 0.2516-2.1381 0.83856-2.3648 0.95396-0.11102 0.0567-0.98293 0.41014-1.9348 0.78266-0.95188 0.37286-1.9195 0.76234-2.1498 0.87-0.23028 0.10828-0.7199 0.3165-1.0883 0.46356-0.88491 0.35325-0.88914 0.39005-0.16453 0.86662 0.25229 0.16516 1.1355 0.80315 2.002 1.441 0.18081 0.13408 0.49577 0.35482 0.69868 0.49378 0.20302 0.13936 0.60514 0.43015 0.89686 0.64495 0.29171 0.21446 0.63638 0.45687 0.76587 0.54081 0.21397 0.13936 1.0958 0.77012 1.9382 1.3906 0.18082 0.13407 0.49577 0.35481 0.69868 0.49378 0.34385 0.2358 1.0969 0.7779 1.871 1.347 0.62831 0.46212 1.267 0.88679 1.3369 0.88679 0.0717 0 0.97181-0.35218 1.1421-0.44677 0.2118-0.11695 0.67337-0.23379 1.0413-0.262 0.0594 0 0.12625 0.0169 0.18145 0.0169 0.76961-0.68001 1.5301-1.3693 2.2539-2.0994 0.89631-0.90411 1.76-1.8421 2.5865-2.8149 0.8265-0.97291 1.6177-1.98 2.3748-3.0131 0.75714-1.0326 1.4784-2.0936 2.1666-3.1776 0.68821-1.0842 1.3419-2.1889 1.9617-3.3154 1.2395-2.253 2.3439-4.5832 3.312-6.9532 0.96819-2.3699 1.8021-4.7819 2.5025-7.1985 0.1493-0.51474 0.22563-1.0237 0.36277-1.5384z" fill="#fc0"/>
</g>
<path d="m29.705-7.5079v78.406h42.145c2.2189 0 3.9971-1.7424 3.9971-3.9063v-70.594c0-2.1638-1.7781-3.9062-3.9971-3.9062z" fill="url(#linearGradient13490)" opacity=".567"/>
<path d="m-11.527-20.414c-2.1827 0-3.9375 1.7548-3.9375 3.9375v12c0-2.1827 1.7548-3.9375 3.9375-3.9375h83.75c2.1827 0 3.9375 1.7548 3.9375 3.9375v-12c0-2.1827-1.7548-3.9375-3.9375-3.9375z" opacity="0"/>
<path d="m-11.23-20.105c-2.1685 0-3.9259 1.7614-3.9259 3.9349v3.9658c0-2.1734 1.7574-3.9349 3.9259-3.9349h83.155c2.1685 0 3.9259 1.7614 3.9259 3.9349v-3.9658c0-2.1734-1.7574-3.9349-3.9259-3.9349z" fill="#e4e8e8" stroke="#738589" stroke-width=".99243"/>
<path d="m-11.23-12.175c-2.1685 0-3.9259 1.7614-3.9259 3.9349v3.9658c0-2.1734 1.7574-3.9349 3.9259-3.9349h83.155c2.1685 0 3.9259 1.7614 3.9259 3.9349v-3.9658c0-2.1734-1.7574-3.9349-3.9259-3.9349z" fill="#e4e8e8" stroke="#738589" stroke-width=".99243"/>
<path d="m-11.23-16.14c-2.1685 0-3.9259 1.7614-3.9259 3.9349v3.9658c0-2.1734 1.7574-3.9349 3.9259-3.9349h83.155c2.1685 0 3.9259 1.7614 3.9259 3.9349v-3.9658c0-2.1734-1.7574-3.9349-3.9259-3.9349z" fill="#e4e8e8" stroke="#738589" stroke-width=".99243"/>
<path d="m-11.246-19.914c-2.1685 0-3.9062 1.7424-3.9062 3.9062v13c0-2.1638 2.0873-4.7846 4.2558-4.7801l83.013 0.17476c2.1685 0.00457 3.7315 2.4415 3.7315 4.6053v-13c0-2.1638-1.7377-3.9062-3.9062-3.9062z" fill="url(#linearGradient4369)" opacity=".25818"/>
<rect transform="matrix(1.1712 0 0 1.2407 -16.712 17.252)" x="2" y="-30" width="75.966" height="69.024" rx="3.957" ry="3.957" clip-path="url(#clipPath4156-4-1-2)" fill="url(#linearGradient4767-6)" opacity=".50781"/>
</g>
</g>
</g>
</svg>
