<?xml version="1.0" encoding="UTF-8"?>
<!-- Created with Inkscape (http://www.inkscape.org/) -->
<svg version="1.1" viewBox="0 0 96 96" xmlns="http://www.w3.org/2000/svg" xmlns:cc="http://creativecommons.org/ns#" xmlns:dc="http://purl.org/dc/elements/1.1/" xmlns:rdf="http://www.w3.org/1999/02/22-rdf-syntax-ns#" xmlns:xlink="http://www.w3.org/1999/xlink">
<defs>
<linearGradient id="linearGradient4071" x1="6" x2="90" y1="47" y2="47" gradientTransform="matrix(1.2064 0 0 1.3043 -27.388 -32.369)" gradientUnits="userSpaceOnUse">
<stop stop-color="#b0b9be" offset="0"/>
<stop stop-color="#fff" offset=".25"/>
<stop stop-color="#93a2a7" offset=".5"/>
<stop stop-color="#f9fbfb" offset=".75"/>
<stop stop-color="#b0b8be" offset="1"/>
</linearGradient>
<linearGradient id="linearGradient4129" x1="1.5" x2="94.5" y1="88.172" y2="88.172" gradientTransform="matrix(1.0896 0 0 1.178 -21.785 -27.614)" gradientUnits="userSpaceOnUse">
<stop offset="0"/>
<stop stop-opacity=".58824" offset=".1"/>
<stop stop-opacity=".58824" offset=".9"/>
<stop offset="1"/>
</linearGradient>
<radialGradient id="radialGradient7462" cx="13.948" cy="44.893" r="43.199" gradientTransform="matrix(1.0625 0 0 .057949 15.152 66.825)" gradientUnits="userSpaceOnUse" xlink:href="#linearGradient4050"/>
<linearGradient id="linearGradient4050">
<stop stop-color="#fff" offset="0"/>
<stop stop-color="#fff" stop-opacity="0" offset="1"/>
</linearGradient>
<radialGradient id="radialGradient7464" cx="13.948" cy="44.893" r="43.199" gradientTransform="matrix(1.0465 0 0 .053599 9.5464 -76.463)" gradientUnits="userSpaceOnUse" xlink:href="#linearGradient4050"/>
<radialGradient id="radialGradient4543" cx="48" cy="-16.128" r="44.544" gradientTransform="matrix(.99479 0 0 .048596 -16.128 -3.6911)" gradientUnits="userSpaceOnUse" xlink:href="#linearGradient4050"/>
<linearGradient id="linearGradient4388" x1="2.5" x2="93.5" y1="54.297" y2="54.297" gradientTransform="matrix(.99479 0 0 1.1359 -17.234 -35.774)" gradientUnits="userSpaceOnUse">
<stop stop-opacity="0" offset="0"/>
<stop stop-opacity=".96471" offset=".031756"/>
<stop stop-opacity="0" offset=".094256"/>
<stop stop-opacity="0" offset=".49595"/>
<stop stop-opacity="0" offset=".90526"/>
<stop stop-opacity=".98824" offset=".96241"/>
<stop stop-opacity=".46457" offset="1"/>
</linearGradient>
<linearGradient id="linearGradient4369" x1="2.5" x2="93.5" y1="11.141" y2="11.141" gradientTransform="matrix(.99479 0 0 .99479 -17.401 -22.333)" gradientUnits="userSpaceOnUse">
<stop stop-opacity="0" offset="0"/>
<stop stop-opacity=".96471" offset=".031756"/>
<stop stop-opacity="0" offset=".094256"/>
<stop stop-opacity="0" offset=".49595"/>
<stop stop-opacity="0" offset=".90526"/>
<stop stop-opacity=".98824" offset=".96241"/>
<stop stop-opacity="0" offset="1"/>
</linearGradient>
<linearGradient id="linearGradient4767-6" x1="2.7714" x2="50.528" y1="-28.642" y2="14.514" gradientUnits="userSpaceOnUse" xlink:href="#linearGradient4050"/>
<clipPath id="clipPath4156-4-1-2">
<path d="m27.046-55.695-14.214 13.321h0.06127l15.653 21.771 10.231-10.546c-0.2169-1.1522-11.311-23.67-11.732-24.546zm-17.399 16.313-14.888 14.062 21.229 17.515 10.385-10.577zm31.491 12.951-9.7413 9.7136 8.9448 12.458 7.7808-7.555zm-49.84 4.3788-13.754 12.982 26.283 13.846 0.06127-0.0617-0.12253-0.0617 9.8332-10.053-22.301-16.652zm38.015 7.4008-9.8025 9.7753 11.579 9.5594 7.6276-7.4008-8.6691-11.009zm20.187 5.674-7.3825 7.2158 6.1878 8.5418 5.8202-6.1365zm-32.195 6.3215-9.5575 9.4977 13.662 7.185 7.9339-7.6784zm23.312 2.3744-7.1068 6.9383 8.3628 6.9074 5.3608-5.674-0.06127-0.0925-0.0919 0.12335-6.4635-8.2026zm-8.7304 8.5418-7.5051 7.3392 10.354 5.4581c1.3975-1.321 5.6751-6.1229 5.8509-6.3215z" fill="#fff" opacity=".6"/>
</clipPath>
<linearGradient id="linearGradient994" x1="93.398" x2="2.2661" y1="-18.925" y2="-19.958" gradientTransform="matrix(.99653 0 0 .85554 -17.317 -17.195)" gradientUnits="userSpaceOnUse" spreadMethod="reflect">
<stop stop-color="#ebeced" offset="0"/>
<stop stop-color="#ebeeef" offset=".53342"/>
<stop stop-color="#ff9ffd" offset=".57283"/>
<stop stop-color="#5f187a" offset="1"/>
</linearGradient>
<radialGradient id="radialGradient4210" cx="-48.732" cy="35.074" r="29.024" gradientTransform="matrix(1.3643 0 0 .045364 102.5 -4.3547)" gradientUnits="userSpaceOnUse" xlink:href="#linearGradient4050"/>
<radialGradient id="radialGradient3333-6" cx="48.308" cy="47.141" r="14.161" gradientTransform="matrix(1.0254 .93731 -1.9617 2.6373 103.61 -118.06)" gradientUnits="userSpaceOnUse">
<stop stop-opacity=".22265" offset="0"/>
<stop stop-opacity=".067818" offset=".5"/>
<stop stop-opacity=".024312" offset="1"/>
</radialGradient>
<linearGradient id="linearGradient3335-7" x1="45" x2="73" y1="52" y2="4" gradientTransform="matrix(1.2297 0 0 1.3855 1.6864 -13.922)" gradientUnits="userSpaceOnUse">
<stop stop-opacity=".10677" offset="0"/>
<stop stop-opacity="0" offset="1"/>
</linearGradient>
<linearGradient id="linearGradient3341-2" x1="48.992" x2="37" y1="46.125" y2="36" gradientTransform="matrix(1.2815 0 0 1.3855 1.4127 -17.25)" gradientUnits="userSpaceOnUse">
<stop stop-color="#cfcfcf" offset="0"/>
<stop stop-color="#b7b7b7" offset=".20986"/>
<stop stop-color="#c9c9c9" offset="1"/>
</linearGradient>
</defs>
<metadata>
<rdf:RDF>
<cc:Work rdf:about="">
<dc:format>image/svg+xml</dc:format>
<dc:type rdf:resource="http://purl.org/dc/dcmitype/StillImage"/>
<dc:title/>
<dc:date>2017</dc:date>
<dc:creator>
<cc:Agent>
<dc:title>Cristian Pozzessere "ilnanny"</dc:title>
</cc:Agent>
</dc:creator>
<dc:subject>
<rdf:Bag>
<rdf:li>Global language</rdf:li>
</rdf:Bag>
</dc:subject>
<dc:description>Playing with Inkscape on Gnu/Linux O. S.</dc:description>
<dc:contributor>
<cc:Agent>
<dc:title>In the night, alone like a dog.</dc:title>
</cc:Agent>
</dc:contributor>
<cc:license rdf:resource="http://creativecommons.org/licenses/by-sa/4.0/"/>
</cc:Work>
<cc:License rdf:about="http://creativecommons.org/licenses/by-sa/4.0/">
<cc:permits rdf:resource="http://creativecommons.org/ns#Reproduction"/>
<cc:permits rdf:resource="http://creativecommons.org/ns#Distribution"/>
<cc:requires rdf:resource="http://creativecommons.org/ns#Notice"/>
<cc:requires rdf:resource="http://creativecommons.org/ns#Attribution"/>
<cc:permits rdf:resource="http://creativecommons.org/ns#DerivativeWorks"/>
<cc:requires rdf:resource="http://creativecommons.org/ns#ShareAlike"/>
</cc:License>
</rdf:RDF>
</metadata>
<g transform="translate(0 -1026.5)">
<g transform="translate(-.14896 1026.1)">
<g transform="matrix(.91298 0 0 .84445 20.288 23.984)">
<path d="m75.346-27.614h-89.659c-4.1393 0-7.4716 3.6028-7.4716 8.078v96.936c0 4.4752 3.3323 8.078 7.4716 8.078h89.659c4.1393 0 7.4716-3.6028 7.4716-8.078v-96.936c0-4.4752-3.3323-8.078-7.4716-8.078z" opacity=".15"/>
<path d="m74.646-26.731h-88.258c-4.0746 0-7.3549 3.5465-7.3549 7.9518v95.421c0 4.4053 3.2803 7.9518 7.3549 7.9518h88.258c4.0746 0 7.3549-3.5465 7.3549-7.9518v-95.421c0-4.4053-3.2803-7.9518-7.3549-7.9518z" opacity=".15"/>
<path d="m73.945-25.847h-86.857c-4.0099 0-7.2381 3.4902-7.2381 7.8256v93.907c0 4.3354 3.2282 7.8256 7.2381 7.8256h86.857c4.0099 0 7.2381-3.4902 7.2381-7.8256v-93.907c0-4.3354-3.2282-7.8256-7.2381-7.8256z" fill="url(#linearGradient4071)"/>
<path d="m-11.079-22.043c-3.3959 0-6.1759 2.9916-6.1759 6.6512v81.612c0 3.6596 2.78 6.6512 6.1759 6.6512h83.673c3.3959 0 6.1759-2.9916 6.1759-6.6512v-81.612c0-3.6596-2.78-6.6512-6.1759-6.6512zm0 2.7324h83.673c2.0573 0 3.6524 1.7436 3.6524 3.9188v81.612c0 2.1752-1.5951 3.9188-3.6524 3.9188h-83.673c-2.0573 0-3.6524-1.7436-3.6524-3.9188v-81.612c0-2.1752 1.5951-3.9188 3.6524-3.9188z" color="#000000" fill="#1f2124" style="text-decoration-line:none;text-indent:0;text-transform:none"/>
<path d="m-20.15 68.801v7.0682c0 4.3354 3.2428 7.8413 7.2527 7.8413h86.828c4.0099 0 7.2527-3.506 7.2527-7.8413v-7.0682c0 4.3354-3.2428 7.8413-7.2527 7.8413h-86.828c-4.0099 0-7.2527-3.506-7.2527-7.8413z" fill="url(#linearGradient4129)" opacity=".65818"/>
<rect x="-15.928" y="66.924" width="91.8" height="5.0067" rx="0" ry="5.0067" fill="url(#radialGradient7462)" opacity=".55"/>
<rect transform="rotate(90)" x="-21.064" y="-76.373" width="90.415" height="4.6308" rx="0" ry="4.6308" fill="url(#radialGradient7464)" opacity=".669"/>
<rect transform="scale(1,-1)" x="-15.324" y="-70.239" width="91.681" height="78.71" rx="3.9433" ry="3.3854" fill="url(#linearGradient994)" stroke="#738589" stroke-width=".92736"/>
<path d="m-3.5887-4.0803h79.197v2.6333h-79.197z" fill="url(#radialGradient4210)" stroke-width="1.3325"/>
<path d="m72.907 34.814 4.3652 4.8391v30.245h-30.909z" fill="url(#radialGradient3333-6)" stroke-width="1.3325"/>
<path d="m75.468-11.151v42.95l-30.742 40.179h2.4594l29.244-39.27 0.269-0.38967v-42.084z" fill="url(#linearGradient3335-7)" stroke-width="1.3325"/>
<path d="m44.983 71.421 33.318-42.95c-2.984 3.8466-5.5891 4.1564-14.096 4.1564h-15.378v20.782c0 9.2052 0.05686 12.982-3.8444 18.011z" fill="url(#linearGradient3341-2)" stroke-width="1.3325"/>
<path d="m78.174 28.541c-2.984 3.8466-5.5891 4.1564-14.096 4.1564h-15.378v20.782c0 9.2052 0.05686 12.982-3.8444 18.011 5.1259-6.9274 5.1264-11.578 5.1259-18.011v-19.397h14.096c6.4074 0 10.305-0.52909 14.096-5.5419z" fill="#fff" fill-opacity=".7712" stroke-width="1.3325"/>
<rect x="-12.69" y="-6.6395" width="88.624" height="4.3293" rx="3.9364" ry="3.0417" fill="url(#radialGradient4543)" opacity=".65091"/>
<path d="m-10.861-18.63c-2.1572 0-3.8859 1.9792-3.8859 4.4369v80.184c0 2.4578 1.7287 4.4369 3.8859 4.4369h82.754c2.1572 0 3.8859-1.9792 3.8859-4.4369v-80.184c0-2.4578-1.7287-4.4369-3.8859-4.4369z" fill="url(#linearGradient4388)" opacity=".28"/>
<path d="m-11.308-20.157c-2.1713 0-3.917 1.7457-3.917 3.917v11.937c0-2.1713 1.7457-3.917 3.917-3.917h83.314c2.1713 0 3.917 1.7457 3.917 3.917v-11.937c0-2.1713-1.7457-3.917-3.917-3.917z" opacity="0" stroke-width=".99479"/>
<path d="m-11.012-19.85c-2.1572 0-3.9055 1.7522-3.9055 3.9144v3.9452c0-2.1621 1.7482-3.9144 3.9055-3.9144h82.722c2.1572 0 3.9054 1.7522 3.9054 3.9144v-3.9452c0-2.1621-1.7482-3.9144-3.9054-3.9144z" fill="#e4e8e8" stroke="#738589" stroke-width=".98726"/>
<path d="m-11.012-11.961c-2.1572 0-3.9055 1.7522-3.9055 3.9144v3.9452c0-2.1621 1.7482-3.9144 3.9055-3.9144h82.722c2.1572 0 3.9054 1.7522 3.9054 3.9144v-3.9452c0-2.1621-1.7482-3.9144-3.9054-3.9144z" fill="#e4e8e8" stroke="#738589" stroke-width=".98726"/>
<path d="m-11.012-15.905c-2.1572 0-3.9055 1.7522-3.9055 3.9144v3.9452c0-2.1621 1.7482-3.9144 3.9055-3.9144h82.722c2.1572 0 3.9054 1.7522 3.9054 3.9144v-3.9452c0-2.1621-1.7482-3.9144-3.9054-3.9144z" fill="#e4e8e8" stroke="#738589" stroke-width=".98726"/>
<path d="m-11.029-19.66c-2.1572 0-3.8859 1.7334-3.8859 3.8859v12.932c0-2.1525 2.0764-4.7597 4.2336-4.7552l82.58 0.17385c2.1572 0.00455 3.7121 2.4288 3.7121 4.5813v-12.932c0-2.1525-1.7287-3.8859-3.8859-3.8859z" fill="url(#linearGradient4369)" opacity=".25818"/>
<rect transform="matrix(1.2083 0 0 1.3045 -17.505 19.779)" x="2" y="-30" width="75.966" height="69.024" rx="3.957" ry="3.957" clip-path="url(#clipPath4156-4-1-2)" fill="url(#linearGradient4767-6)" opacity=".589"/>
<g transform="scale(.91962 1.0874)" stroke-width="1.0184" aria-label="DJV">
<path d="m2.5424 5.6645v18.12c4.4007 0.31778 10.274-0.32445 11.776-5.3052 1.9161-4.7883-0.20187-11.748-5.9057-12.493-1.9303-0.3907-3.9114-0.34532-5.8699-0.32168zm-7.6579-5.7882c7.1493 0.30441 14.899-1.0652 21.486 2.3995 9.2027 5.3928 8.6015 21.364-1.3791 25.571-6.376 2.592-13.397 1.4799-20.107 1.7266v-29.697z" fill="#fcfcfc" stroke="#d0d8ff"/>
<path d="m28.699-0.12371h7.6579c-0.11164 9.8869 0.23144 19.794-0.18705 29.668-0.65626 5.2466-5.9027 8.3972-10.893 8.1572-3.4487 1.3023-2.5135-1.8727-2.6048-3.9704-0.94456-3.743 6.3768-0.61838 5.8167-5.383 0.43083-7.6685 0.1123-15.373 0.21019-23.058v-5.4136z" fill="#09001a"/>
<path d="m40.354-0.12371h7.6977c2.6256 7.3065 5.2511 14.613 7.8767 21.919 2.6189-7.3065 5.2379-14.613 7.8568-21.919h7.6977c-3.6665 9.8989-7.333 19.798-11 29.697h-9.1298c-3.6665-9.8989-7.333-19.798-11-29.697z"/>
</g>
</g>
</g>
</g>
</svg>
