<?xml version="1.0" encoding="UTF-8"?>
<!-- Created with Inkscape (http://www.inkscape.org/) -->
<svg version="1.1" viewBox="0 0 96 96" xmlns="http://www.w3.org/2000/svg" xmlns:cc="http://creativecommons.org/ns#" xmlns:dc="http://purl.org/dc/elements/1.1/" xmlns:rdf="http://www.w3.org/1999/02/22-rdf-syntax-ns#" xmlns:xlink="http://www.w3.org/1999/xlink">
<defs>
<linearGradient id="linearGradient4071" x1="6" x2="90" y1="47" y2="47" gradientTransform="matrix(1.1071 0 0 1.1071 -4.9939 -3.6207)" gradientUnits="userSpaceOnUse">
<stop stop-color="#b0b9be" offset="0"/>
<stop stop-color="#fff" offset=".25"/>
<stop stop-color="#93a2a7" offset=".5"/>
<stop stop-color="#f9fbfb" offset=".75"/>
<stop stop-color="#b0b8be" offset="1"/>
</linearGradient>
<linearGradient id="linearGradient4129" x1="1.5" x2="94.5" y1="88.172" y2="88.172" gradientTransform="translate(.14895 .41503)" gradientUnits="userSpaceOnUse">
<stop offset="0"/>
<stop stop-opacity=".58824" offset=".1"/>
<stop stop-opacity=".58824" offset=".9"/>
<stop offset="1"/>
</linearGradient>
<radialGradient id="radialGradient7462" cx="13.948" cy="44.893" r="43.199" gradientTransform="matrix(.97513 0 0 .049191 34.048 80.582)" gradientUnits="userSpaceOnUse" xlink:href="#linearGradient4050"/>
<linearGradient id="linearGradient4050">
<stop stop-color="#fff" offset="0"/>
<stop stop-color="#fff" stop-opacity="0" offset="1"/>
</linearGradient>
<radialGradient id="radialGradient7464" cx="13.948" cy="44.893" r="43.199" gradientTransform="matrix(.88833 0 0 .049191 31.96 -90.317)" gradientUnits="userSpaceOnUse" xlink:href="#linearGradient4050"/>
<radialGradient id="radialGradient4543" cx="48" cy="-16.128" r="44.544" gradientTransform="matrix(1 0 0 .048851 -16.372 -3.8618)" gradientUnits="userSpaceOnUse" xlink:href="#linearGradient4050"/>
<linearGradient id="linearGradient4388" x1="2.5" x2="93.5" y1="54.297" y2="54.297" gradientTransform="translate(-17.652 -22.602)" gradientUnits="userSpaceOnUse" xlink:href="#linearGradient4160"/>
<linearGradient id="linearGradient4160">
<stop stop-opacity="0" offset="0"/>
<stop stop-opacity=".96471" offset=".031756"/>
<stop stop-opacity="0" offset=".094256"/>
<stop stop-opacity="0" offset=".49595"/>
<stop stop-opacity="0" offset=".90526"/>
<stop stop-opacity=".98824" offset=".96241"/>
<stop stop-opacity="0" offset="1"/>
</linearGradient>
<linearGradient id="linearGradient4369" x1="2.5" x2="93.5" y1="11.141" y2="11.141" gradientTransform="translate(-17.652 -22.602)" gradientUnits="userSpaceOnUse" xlink:href="#linearGradient4160"/>
<linearGradient id="linearGradient4767-6" x1="2.7714" x2="50.528" y1="-28.642" y2="14.514" gradientUnits="userSpaceOnUse" xlink:href="#linearGradient4050"/>
<clipPath id="clipPath4156-4-1-2">
<path d="m27.046-55.695-14.214 13.321h0.06127l15.653 21.771 10.231-10.546c-0.2169-1.1522-11.311-23.67-11.732-24.546zm-17.399 16.313-14.888 14.062 21.229 17.515 10.385-10.577zm31.491 12.951-9.7413 9.7136 8.9448 12.458 7.7808-7.555zm-49.84 4.3788-13.754 12.982 26.283 13.846 0.06127-0.0617-0.12253-0.0617 9.8332-10.053-22.301-16.652zm38.015 7.4008-9.8025 9.7753 11.579 9.5594 7.6276-7.4008-8.6691-11.009zm20.187 5.674-7.3825 7.2158 6.1878 8.5418 5.8202-6.1365zm-32.195 6.3215-9.5575 9.4977 13.662 7.185 7.9339-7.6784zm23.312 2.3744-7.1068 6.9383 8.3628 6.9074 5.3608-5.674-0.06127-0.0925-0.0919 0.12335-6.4635-8.2026zm-8.7304 8.5418-7.5051 7.3392 10.354 5.4581c1.3975-1.321 5.6751-6.1229 5.8509-6.3215z" fill="#fff" opacity=".6"/>
</clipPath>
<radialGradient id="radialGradient4108" cx="24.284" cy="94.013" r="30" gradientTransform="matrix(1 0 0 1 0 -.00029599)" gradientUnits="userSpaceOnUse">
<stop stop-color="#92a8b4" offset="0"/>
<stop stop-color="#2a3f48" offset="1"/>
</radialGradient>
</defs>
<metadata>
<rdf:RDF>
<cc:Work rdf:about="">
<dc:format>image/svg+xml</dc:format>
<dc:type rdf:resource="http://purl.org/dc/dcmitype/StillImage"/>
<dc:title/>
<dc:date>2017</dc:date>
<dc:creator>
<cc:Agent>
<dc:title>Cristian Pozzessere "ilnanny"</dc:title>
</cc:Agent>
</dc:creator>
<dc:subject>
<rdf:Bag>
<rdf:li>Global language</rdf:li>
</rdf:Bag>
</dc:subject>
<dc:description>Playing with Inkscape on Gnu/Linux O. S.</dc:description>
<dc:contributor>
<cc:Agent>
<dc:title>In the night, alone like a dog.</dc:title>
</cc:Agent>
</dc:contributor>
<cc:license rdf:resource="http://creativecommons.org/licenses/by-sa/4.0/"/>
</cc:Work>
<cc:License rdf:about="http://creativecommons.org/licenses/by-sa/4.0/">
<cc:permits rdf:resource="http://creativecommons.org/ns#Reproduction"/>
<cc:permits rdf:resource="http://creativecommons.org/ns#Distribution"/>
<cc:requires rdf:resource="http://creativecommons.org/ns#Notice"/>
<cc:requires rdf:resource="http://creativecommons.org/ns#Attribution"/>
<cc:permits rdf:resource="http://creativecommons.org/ns#DerivativeWorks"/>
<cc:requires rdf:resource="http://creativecommons.org/ns#ShareAlike"/>
</cc:License>
</rdf:RDF>
</metadata>
<g transform="translate(0 -1026.5)">
<g transform="translate(-.14896 1026.1)">
<path d="m89.292 0.41503h-82.286c-3.7988 0-6.8571 3.0583-6.8571 6.8571v82.286c0 3.7989 3.0583 6.8571 6.8571 6.8571h82.286c3.7989 0 6.8571-3.0583 6.8571-6.8571v-82.286c0-3.7989-3.0583-6.8571-6.8571-6.8571z" opacity=".15"/>
<path d="m88.649 1.165h-81c-3.7395 0-6.75 3.0105-6.75 6.75v81c0 3.7395 3.0105 6.75 6.75 6.75h81c3.7395 0 6.75-3.0105 6.75-6.75v-81c0-3.7395-3.0105-6.75-6.75-6.75z" opacity=".15"/>
<path d="m88.006 1.915h-79.714c-3.6801 0-6.6429 2.9627-6.6429 6.6429v79.714c0 3.6801 2.9627 6.6429 6.6429 6.6429h79.714c3.6801 0 6.6429-2.9627 6.6429-6.6429v-79.714c0-3.6801-2.9627-6.6429-6.6429-6.6429z" fill="url(#linearGradient4071)"/>
<path d="m9.974 5.1445c-3.1166 0-5.668 2.5395-5.668 5.646v69.278c0 3.1065 2.5513 5.646 5.668 5.646h76.792c3.1166 0 5.668-2.5395 5.668-5.646v-69.278c0-3.1065-2.5513-5.646-5.668-5.646zm0 2.3194h76.792c1.8881 0 3.352 1.4801 3.352 3.3266v69.278c0 1.8465-1.4639 3.3266-3.352 3.3266h-76.792c-1.8881 0-3.352-1.4801-3.352-3.3266v-69.278c0-1.8465 1.4639-3.3266 3.352-3.3266z" color="#000000" fill="#241f1f" fill-opacity=".63265" style="text-decoration-line:none;text-indent:0;text-transform:none"/>
<path d="m1.649 82.259v6c0 3.6801 2.9761 6.6562 6.6562 6.6562h79.687c3.6801 0 6.6563-2.9761 6.6563-6.6562v-6c0 3.6801-2.9761 6.6562-6.6563 6.6562h-79.687c-3.6801 0-6.6562-2.9761-6.6562-6.6562z" fill="url(#linearGradient4129)" opacity=".65818"/>
<rect x="5.524" y="80.665" width="84.25" height="4.25" rx="0" ry="4.25" fill="url(#radialGradient7462)" opacity=".55"/>
<rect transform="rotate(90)" x="5.975" y="-90.234" width="76.75" height="4.25" rx="0" ry="4.25" fill="url(#radialGradient7464)" opacity=".669"/>
<g transform="matrix(.91298 0 0 .84445 20.288 23.984)">
<path d="m-11.246-7.5079c-2.1685 0-3.9062 1.7424-3.9062 3.9062v70.594c0 2.1638 1.7377 3.9062 3.9062 3.9062h83.188c2.1685 0 3.9062-1.7424 3.9062-3.9062v-70.594c0-2.1638-1.7377-3.9062-3.9062-3.9062z" fill="#ebedee"/>
<rect x="-12.916" y="-6.8257" width="89.088" height="4.352" rx="3.957" ry="3.0577" fill="url(#radialGradient4543)" opacity=".65091"/>
<path d="m-11.246-7.5079c-2.1685 0-3.9062 1.7424-3.9062 3.9062v70.594c0 2.1638 1.7377 3.9062 3.9062 3.9062h83.188c2.1685 0 3.9062-1.7424 3.9062-3.9062v-70.594c0-2.1638-1.7377-3.9062-3.9062-3.9062z" fill="url(#linearGradient4388)" opacity=".28"/>
<path d="m-11.527-20.414c-2.1827 0-3.9375 1.7548-3.9375 3.9375v12c0-2.1827 1.7548-3.9375 3.9375-3.9375h83.75c2.1827 0 3.9375 1.7548 3.9375 3.9375v-12c0-2.1827-1.7548-3.9375-3.9375-3.9375z" opacity="0"/>
<path d="m-11.23-20.105c-2.1685 0-3.9259 1.7614-3.9259 3.9349v3.9658c0-2.1734 1.7574-3.9349 3.9259-3.9349h83.155c2.1685 0 3.9259 1.7614 3.9259 3.9349v-3.9658c0-2.1734-1.7574-3.9349-3.9259-3.9349z" fill="#e4e8e8" stroke="#738589" stroke-width=".99243"/>
<path d="m-11.23-12.175c-2.1685 0-3.9259 1.7614-3.9259 3.9349v3.9658c0-2.1734 1.7574-3.9349 3.9259-3.9349h83.155c2.1685 0 3.9259 1.7614 3.9259 3.9349v-3.9658c0-2.1734-1.7574-3.9349-3.9259-3.9349z" fill="#e4e8e8" stroke="#738589" stroke-width=".99243"/>
<path d="m-11.23-16.14c-2.1685 0-3.9259 1.7614-3.9259 3.9349v3.9658c0-2.1734 1.7574-3.9349 3.9259-3.9349h83.155c2.1685 0 3.9259 1.7614 3.9259 3.9349v-3.9658c0-2.1734-1.7574-3.9349-3.9259-3.9349z" fill="#e4e8e8" stroke="#738589" stroke-width=".99243"/>
<path d="m-11.246-19.914c-2.1685 0-3.9062 1.7424-3.9062 3.9062v13c0-2.1638 2.0873-4.7846 4.2558-4.7801l83.013 0.17476c2.1685 0.00457 3.7315 2.4415 3.7315 4.6053v-13c0-2.1638-1.7377-3.9062-3.9062-3.9062z" fill="url(#linearGradient4369)" opacity=".25818"/>
<g transform="matrix(.97217 .38293 -.35419 1.0511 40.596 -75.461)">
<text transform="translate(-23.716 42.513)" x="12.691984" y="35.309242" fill="#000000" font-family="ConkySymbols" letter-spacing="0px" word-spacing="0px" style="line-height:0%" xml:space="preserve"><tspan x="12.691984" y="35.309242" font-size="32px" style="line-height:1.25"> </tspan></text>
<text transform="translate(-23.716 42.513)" x="14.999617" y="32.078552" fill="#000000" font-family="StyleBats" letter-spacing="0px" word-spacing="0px" style="line-height:0%" xml:space="preserve"><tspan x="14.999617" y="32.078552" font-size="32px" style="line-height:1.25"> </tspan></text>
<path d="m-5.7155 98.156c0 1.1807 0.9794 2.1366 2.1802 2.1366h4.2297c0.56247 2.1111 1.4121 4.1282 2.4855 5.9738l-3.0087 3.0087c-0.42456 0.42456-0.64941 0.93313-0.65407 1.4826-0.0048 0.54941 0.19304 1.1087 0.61047 1.5262l5.8866 5.8866c0.83484 0.83483 2.1596 0.8055 3.0087-0.0435l3.0087-3.0087c1.8456 1.0734 3.8628 1.923 5.9738 2.4855v4.2296c0 1.2008 0.95598 2.1802 2.1366 2.1802h8.2849c1.1806 0 2.1366-0.97941 2.1366-2.1802v-4.2296c2.1111-0.56248 4.1282-1.4121 5.9738-2.4855l3.0087 3.0087c0.84911 0.84911 2.1739 0.87844 3.0087 0.0435l5.8866-5.8866c0.83484-0.83483 0.80551-2.1596-0.0436-3.0087l-3.0087-3.0087c1.0734-1.8456 1.923-3.8628 2.4855-5.9738h4.2297c1.2008 0 2.1802-0.95598 2.1802-2.1366v-8.2849c0-1.1806-0.9794-2.1366-2.1802-2.1366h-4.2297c-0.56247-2.1111-1.4121-4.1282-2.4855-5.9738l3.0087-3.0087c0.84911-0.84911 0.87845-2.1739 0.0436-3.0087l-5.8866-5.8866c-0.83484-0.83484-2.1596-0.8055-3.0087 0.04352l-3.0087 3.0087c-1.8456-1.0734-3.8628-1.923-5.9738-2.4855v-4.2297c0-1.2008-0.95598-2.1802-2.1366-2.1802h-8.2849c-1.1806 0-2.1366 0.97942-2.1366 2.1802v4.2297c-2.1111 0.56247-4.1282 1.4121-5.9738 2.4855l-3.0087-3.0087c-0.84911-0.84911-2.1739-0.87845-3.0087-0.04352l-5.8866 5.8866c-0.83484 0.83485-0.80551 2.1596 0.0436 3.0087l3.0087 3.0087c-1.0734 1.8456-1.923 3.8628-2.4855 5.9738h-4.2297c-1.2008 0-2.1802 0.95598-2.1802 2.1366v8.2849zm20.93-4.1424c0-5.0065 4.0633-9.0698 9.0698-9.0698 5.0065 0 9.0698 4.0632 9.0698 9.0698 0 5.0065-4.0633 9.0698-9.0698 9.0698-5.0065 0-9.0698-4.0633-9.0698-9.0698z" display="block" fill="url(#radialGradient4108)" opacity=".79636"/>
<path d="m20.128 63.013c-1.1806 0-2.125 0.98668-2.125 2.1875v1c0-1.2008 0.94436-2.1875 2.125-2.1875h8.3125c1.1806 0 2.125 0.98668 2.125 2.1875v-1c0-1.2008-0.94435-2.1875-2.125-2.1875zm-12.625 5.2188c-0.54168-0.0091-1.0826 0.20753-1.5 0.625l-5.875 5.875c-0.54603 0.54604-0.71216 1.305-0.53125 2 0.08476-0.36282 0.24478-0.71353 0.53125-1l5.875-5.875c0.83484-0.83493 2.1821-0.81786 3.0312 0.03125l3 3.0312c1.8456-1.0734 3.8577-1.9375 5.9688-2.5v-1c-2.1111 0.56247-4.1231 1.4266-5.9688 2.5l-3-3.0312c-0.42456-0.42455-0.98956-0.64714-1.5312-0.65625zm33.563 0c-0.54169 0.0091-1.1067 0.23174-1.5312 0.65625l-3 3.0312c-1.8456-1.0734-3.8577-1.9375-5.9688-2.5v1c2.1111 0.56248 4.1231 1.4266 5.9688 2.5l3-3.0312c0.84911-0.84902 2.1964-0.86608 3.0312-0.03125l5.875 5.875c0.28647 0.28647 0.44649 0.63718 0.53125 1 0.18091-0.69503 0.01479-1.454-0.53125-2l-5.875-5.875c-0.41742-0.41742-0.95831-0.63411-1.5-0.625zm-38.219 13.188c-0.90352 1.6672-1.6585 3.4444-2.1562 5.3125h-4.2188c-1.2008 0-2.1875 0.94436-2.1875 2.125v1c0-1.1806 0.98667-2.125 2.1875-2.125h4.2188c0.56247-2.1111 1.4266-4.1231 2.5-5.9688zm42.875 0-0.34375 0.34375c1.0734 1.8456 1.9375 3.8577 2.5 5.9688h4.2188c1.2008 0 2.1875 0.94436 2.1875 2.125v-1c0-1.1806-0.98667-2.125-2.1875-2.125h-4.2188c-0.49774-1.8681-1.2527-3.6453-2.1562-5.3125zm-30.469 12.094c-0.0089 0.16483-0.03125 0.33295-0.03125 0.5 0 5.0065 4.056 9.0625 9.0625 9.0625 5.0065 0 9.0625-4.056 9.0625-9.0625 0-0.16705-0.02232-0.33517-0.03125-0.5-0.25874 4.7753-4.1918 8.5625-9.0312 8.5625-4.8395 0-8.7725-3.7872-9.0312-8.5625zm-12.406 12.094-2.6875 2.6562c-0.42456 0.42456-0.65159 0.9506-0.65625 1.5-0.0016 0.17978 0.05132 0.35466 0.09375 0.53125 0.09341-0.36844 0.26266-0.73139 0.5625-1.0312l3.0312-3c-0.12354-0.21241-0.22623-0.4394-0.34375-0.65625zm42.875 0c-0.11752 0.21685-0.22021 0.44384-0.34375 0.65625l3.0312 3c0.29374 0.29377 0.46681 0.66362 0.5625 1.0312 0.16225-0.69455-0.0048-1.4735-0.5625-2.0312z" display="block"/>
<path d="m-0.40312 77.732c-0.16225 0.69455 0.0048 1.4735 0.5625 2.0312l2.6875 2.6562c0.11752-0.21685 0.22021-0.44383 0.34375-0.65625l-3.0312-3c-0.29374-0.29375-0.46681-0.66363-0.5625-1.0312zm49.375 0c-0.09569 0.36762-0.26875 0.7375-0.5625 1.0312l-3.0312 3c0.12354 0.21242 0.22623 0.4394 0.34375 0.65625l2.6875-2.6562c0.55775-0.55775 0.72475-1.3367 0.5625-2.0312zm-24.688 7.2188c-5.0065 0-9.0625 4.056-9.0625 9.0625 0 0.16705 0.02232 0.33517 0.03125 0.5 0.25874-4.7753 4.1918-8.5625 9.0312-8.5625 4.8395 0 8.7725 3.7872 9.0312 8.5625 0.0089-0.16483 0.03125-0.33295 0.03125-0.5 0-5.0065-4.056-9.0625-9.0625-9.0625zm-30 13.219v1c0 1.1806 0.98667 2.125 2.1875 2.125h4.2188c0.49773 1.8681 1.2527 3.6453 2.1562 5.3125l0.34375-0.34375c-1.0734-1.8456-1.9375-3.8577-2.5-5.9688h-4.2188c-1.2008 0-2.1875-0.94435-2.1875-2.125zm60 0c0 1.1807-0.98667 2.125-2.1875 2.125h-4.2188c-0.56247 2.1111-1.4266 4.1231-2.5 5.9688l0.34375 0.34375c0.90352-1.6672 1.6585-3.4444 2.1562-5.3125h4.2188c1.2008 0 2.1875-0.94435 2.1875-2.125zm-54.688 13.125c-0.03885 0.15325-0.09238 0.30736-0.09375 0.46875-0.0048 0.54942 0.20758 1.1138 0.625 1.5312l5.875 5.875c0.83484 0.83483 2.1821 0.81777 3.0312-0.0313l3-3.0312c1.8456 1.0734 3.8577 1.9375 5.9688 2.5v-1c-2.1111-0.56249-4.1231-1.4266-5.9688-2.5l-3 3.0312c-0.84911 0.84902-2.1964 0.86608-3.0312 0.0313l-5.875-5.875c-0.28082-0.28082-0.44403-0.63695-0.53125-1zm49.375 0c-0.08476 0.36282-0.24478 0.71354-0.53125 1l-5.875 5.875c-0.83484 0.83492-2.1821 0.81786-3.0312-0.0313l-3-3.0312c-1.8456 1.0734-3.8577 1.9375-5.9688 2.5v1c2.1111-0.56249 4.1231-1.4266 5.9688-2.5l3 3.0312c0.84911 0.84911 2.1964 0.86617 3.0312 0.0313l5.875-5.875c0.54603-0.54603 0.71216-1.305 0.53125-2zm-30.969 10.531v1c0 1.2008 0.94435 2.1875 2.125 2.1875h8.3125c1.1806 0 2.125-0.98667 2.125-2.1875v-1c0 1.2008-0.94435 2.1875-2.125 2.1875h-8.3125c-1.1806 0-2.125-0.98667-2.125-2.1875z" display="block" fill="#fff"/>
</g>
<rect transform="matrix(1.2146 0 0 1.3114 -18.089 19.372)" x="2" y="-30" width="75.966" height="69.024" rx="3.957" ry="3.957" clip-path="url(#clipPath4156-4-1-2)" fill="url(#linearGradient4767-6)" opacity=".50781"/>
</g>
</g>
</g>
</svg>
