<?xml version="1.0" encoding="UTF-8"?>
<!-- Created with Inkscape (http://www.inkscape.org/) -->
<svg version="1.1" viewBox="0 0 96 96" xmlns="http://www.w3.org/2000/svg" xmlns:cc="http://creativecommons.org/ns#" xmlns:dc="http://purl.org/dc/elements/1.1/" xmlns:rdf="http://www.w3.org/1999/02/22-rdf-syntax-ns#" xmlns:xlink="http://www.w3.org/1999/xlink">
<defs>
<linearGradient id="linearGradient4071" x1="6" x2="90" y1="47" y2="47" gradientTransform="matrix(1.1071 0 0 1.1071 -4.9939 -3.6207)" gradientUnits="userSpaceOnUse">
<stop stop-color="#b0b9be" offset="0"/>
<stop stop-color="#fff" offset=".25"/>
<stop stop-color="#93a2a7" offset=".5"/>
<stop stop-color="#f9fbfb" offset=".75"/>
<stop stop-color="#b0b8be" offset="1"/>
</linearGradient>
<linearGradient id="linearGradient4129" x1="1.5" x2="94.5" y1="88.172" y2="88.172" gradientTransform="translate(.14895 .41503)" gradientUnits="userSpaceOnUse">
<stop offset="0"/>
<stop stop-opacity=".58824" offset=".1"/>
<stop stop-opacity=".58824" offset=".9"/>
<stop offset="1"/>
</linearGradient>
<radialGradient id="radialGradient7462" cx="13.948" cy="44.893" r="43.199" gradientTransform="matrix(.97513 0 0 .049191 34.048 80.582)" gradientUnits="userSpaceOnUse" xlink:href="#linearGradient4050"/>
<linearGradient id="linearGradient4050">
<stop stop-color="#fff" offset="0"/>
<stop stop-color="#fff" stop-opacity="0" offset="1"/>
</linearGradient>
<radialGradient id="radialGradient7464" cx="13.948" cy="44.893" r="43.199" gradientTransform="matrix(.88833 0 0 .049191 31.96 -90.317)" gradientUnits="userSpaceOnUse" xlink:href="#linearGradient4050"/>
<radialGradient id="radialGradient4543" cx="48" cy="-16.128" r="44.544" gradientTransform="matrix(1 0 0 .048851 -16.372 -3.8618)" gradientUnits="userSpaceOnUse" xlink:href="#linearGradient4050"/>
<linearGradient id="linearGradient4388" x1="2.5" x2="93.5" y1="54.297" y2="54.297" gradientTransform="translate(-17.652 -22.602)" gradientUnits="userSpaceOnUse">
<stop stop-opacity="0" offset="0"/>
<stop stop-opacity=".96471" offset=".031756"/>
<stop stop-opacity="0" offset=".094256"/>
<stop stop-opacity="0" offset=".49595"/>
<stop stop-opacity="0" offset=".90526"/>
<stop stop-opacity=".98824" offset=".96241"/>
<stop stop-opacity=".781" offset="1"/>
</linearGradient>
<linearGradient id="linearGradient4369" x1="2.5" x2="93.5" y1="11.141" y2="11.141" gradientTransform="translate(-17.652 -22.602)" gradientUnits="userSpaceOnUse">
<stop stop-opacity="0" offset="0"/>
<stop stop-opacity=".96471" offset=".031756"/>
<stop stop-opacity="0" offset=".094256"/>
<stop stop-opacity="0" offset=".49595"/>
<stop stop-opacity="0" offset=".90526"/>
<stop stop-opacity=".98824" offset=".96241"/>
<stop stop-opacity="0" offset="1"/>
</linearGradient>
<linearGradient id="linearGradient4767-6" x1="2.7714" x2="50.528" y1="-28.642" y2="14.514" gradientUnits="userSpaceOnUse" xlink:href="#linearGradient4050"/>
<clipPath id="clipPath4156-4-1-2">
<path d="m27.046-55.695-14.214 13.321h0.06127l15.653 21.771 10.231-10.546c-0.2169-1.1522-11.311-23.67-11.732-24.546zm-17.399 16.313-14.888 14.062 21.229 17.515 10.385-10.577zm31.491 12.951-9.7413 9.7136 8.9448 12.458 7.7808-7.555zm-49.84 4.3788-13.754 12.982 26.283 13.846 0.06127-0.0617-0.12253-0.0617 9.8332-10.053-22.301-16.652zm38.015 7.4008-9.8025 9.7753 11.579 9.5594 7.6276-7.4008-8.6691-11.009zm20.187 5.674-7.3825 7.2158 6.1878 8.5418 5.8202-6.1365zm-32.195 6.3215-9.5575 9.4977 13.662 7.185 7.9339-7.6784zm23.312 2.3744-7.1068 6.9383 8.3628 6.9074 5.3608-5.674-0.06127-0.0925-0.0919 0.12335-6.4635-8.2026zm-8.7304 8.5418-7.5051 7.3392 10.354 5.4581c1.3975-1.321 5.6751-6.1229 5.8509-6.3215z" fill="#fff" opacity=".6"/>
</clipPath>
</defs>
<metadata>
<rdf:RDF>
<cc:Work rdf:about="">
<dc:format>image/svg+xml</dc:format>
<dc:type rdf:resource="http://purl.org/dc/dcmitype/StillImage"/>
<dc:title/>
<dc:date>2017</dc:date>
<dc:creator>
<cc:Agent>
<dc:title>Cristian Pozzessere "ilnanny"</dc:title>
</cc:Agent>
</dc:creator>
<dc:subject>
<rdf:Bag>
<rdf:li>Global language</rdf:li>
</rdf:Bag>
</dc:subject>
<dc:description>Playing with Inkscape on Gnu/Linux O. S.</dc:description>
<dc:contributor>
<cc:Agent>
<dc:title>In the night, alone like a dog.</dc:title>
</cc:Agent>
</dc:contributor>
<cc:license rdf:resource="http://creativecommons.org/licenses/by-sa/4.0/"/>
</cc:Work>
<cc:License rdf:about="http://creativecommons.org/licenses/by-sa/4.0/">
<cc:permits rdf:resource="http://creativecommons.org/ns#Reproduction"/>
<cc:permits rdf:resource="http://creativecommons.org/ns#Distribution"/>
<cc:requires rdf:resource="http://creativecommons.org/ns#Notice"/>
<cc:requires rdf:resource="http://creativecommons.org/ns#Attribution"/>
<cc:permits rdf:resource="http://creativecommons.org/ns#DerivativeWorks"/>
<cc:requires rdf:resource="http://creativecommons.org/ns#ShareAlike"/>
</cc:License>
</rdf:RDF>
</metadata>
<g transform="translate(0 -1026.5)">
<g transform="translate(-.14896 1026.1)">
<path d="m89.292 0.41503h-82.286c-3.7988 0-6.8571 3.0583-6.8571 6.8571v82.286c0 3.7989 3.0583 6.8571 6.8571 6.8571h82.286c3.7989 0 6.8571-3.0583 6.8571-6.8571v-82.286c0-3.7989-3.0583-6.8571-6.8571-6.8571z" opacity=".15"/>
<path d="m88.649 1.165h-81c-3.7395 0-6.75 3.0105-6.75 6.75v81c0 3.7395 3.0105 6.75 6.75 6.75h81c3.7395 0 6.75-3.0105 6.75-6.75v-81c0-3.7395-3.0105-6.75-6.75-6.75z" opacity=".15"/>
<path d="m88.006 1.915h-79.714c-3.6801 0-6.6429 2.9627-6.6429 6.6429v79.714c0 3.6801 2.9627 6.6429 6.6429 6.6429h79.714c3.6801 0 6.6429-2.9627 6.6429-6.6429v-79.714c0-3.6801-2.9627-6.6429-6.6429-6.6429z" fill="url(#linearGradient4071)"/>
<path d="m9.974 5.1445c-3.1166 0-5.668 2.5395-5.668 5.646v69.278c0 3.1065 2.5513 5.646 5.668 5.646h76.792c3.1166 0 5.668-2.5395 5.668-5.646v-69.278c0-3.1065-2.5513-5.646-5.668-5.646zm0 2.3194h76.792c1.8881 0 3.352 1.4801 3.352 3.3266v69.278c0 1.8465-1.4639 3.3266-3.352 3.3266h-76.792c-1.8881 0-3.352-1.4801-3.352-3.3266v-69.278c0-1.8465 1.4639-3.3266 3.352-3.3266z" color="#000000" fill="#241f1f" fill-opacity=".63265" style="text-decoration-line:none;text-indent:0;text-transform:none"/>
<path d="m1.649 82.259v6c0 3.6801 2.9761 6.6562 6.6562 6.6562h79.687c3.6801 0 6.6563-2.9761 6.6563-6.6562v-6c0 3.6801-2.9761 6.6562-6.6563 6.6562h-79.687c-3.6801 0-6.6562-2.9761-6.6562-6.6562z" fill="url(#linearGradient4129)" opacity=".65818"/>
<rect x="5.524" y="80.665" width="84.25" height="4.25" rx="0" ry="4.25" fill="url(#radialGradient7462)" opacity=".55"/>
<rect transform="rotate(90)" x="5.975" y="-90.234" width="76.75" height="4.25" rx="0" ry="4.25" fill="url(#radialGradient7464)" opacity=".669"/>
<g transform="matrix(.91298 0 0 .84445 20.288 23.984)">
<path d="m-11.246-7.5079c-2.1685 0-3.9062 1.7424-3.9062 3.9062v70.594c0 2.1638 1.7377 3.9062 3.9062 3.9062h83.188c2.1685 0 3.9062-1.7424 3.9062-3.9062v-70.594c0-2.1638-1.7377-3.9062-3.9062-3.9062z" fill="#e4eff5"/>
<g opacity=".693" stroke="#000" stroke-linecap="square" stroke-linejoin="round">
<rect x="-10.239" y="-7.1933" width="26.424" height="78.441" fill="#d4f9d7" opacity=".589" stroke-width=".68334" style="paint-order:fill markers stroke"/>
<rect x="42.063" y="-7.1933" width="27.095" height="78.441" fill="#ffeefd" opacity=".589" stroke-width=".68334" style="paint-order:fill markers stroke"/>
<rect transform="rotate(90)" x="17.38" y="-68.584" width="29.294" height="78.599" fill="#fbffff" opacity=".589" stroke-width=".369" style="paint-order:fill markers stroke"/>
</g>
<rect x="-12.916" y="-6.8257" width="89.088" height="4.352" rx="3.957" ry="3.0577" fill="url(#radialGradient4543)" opacity=".65091"/>
<g stroke="#001919">
<path d="m51.855 0.74462c-3.096 0-5.8288 1.7279-7.3444 4.381-8.1698-5.5051-18.798-5.3195-26.887 0.86706-0.0058-0.0072-0.0364 0.0072-0.04221 0-0.97408-1.2019-2.3735-2.0079-3.9677-2.0079-2.9351 0-5.3184 2.5767-5.3184 5.75 0 3.1733 2.3833 5.75 5.3184 5.75 2.9351 0 5.3184-2.5767 5.3184-5.75 0-1.3372-0.4311-2.5376-1.1396-3.5139 8.0175-5.2296 18.694-5.8186 26.718-1.0496-0.79956 1.4122-1.2663 3.0603-1.2663 4.8373 0 1.9266 0.54845 3.7165 1.4773 5.2024l-22.962 14.74-25.79 16.292 8.1464 9.7202 7.5977 10.085 18.066-26.605 15.871-23c1.5677 1.7682 3.7628 2.875 6.2048 2.875 0.98372 0 1.9054-0.17334 2.7858-0.50198 3.3725-1.2589 5.7827-4.7334 5.7827-8.8075 0-5.1377-3.8165-9.2639-8.5685-9.2639zm2.7858 18.071c2.6763 9.948-0.49366 21.78-7.6821 29.115 0.24126-0.21056 0.48215-0.4164 0.71756-0.63889 7.7025-7.2799 10.136-18.639 6.9645-28.476zm-12.156 27.335c-2.9351 0-5.3184 2.5767-5.3184 5.75 0 3.1733 2.3833 5.75 5.3184 5.75 2.9351 0 5.3184-2.5767 5.3184-5.75 0-3.1733-2.3833-5.75-5.3184-5.75z" fill="#00bef7" opacity=".77431" stroke-width="1.4044"/>
<ellipse cx="42.433" cy="51.88" rx="4.9264" ry="5.3262" fill="#ff2323" opacity=".823" stroke-linecap="square" stroke-linejoin="round" stroke-width=".369" style="paint-order:fill markers stroke"/>
<ellipse cx="13.546" cy="9.7538" rx="4.9264" ry="5.3262" fill="#ff3737" opacity=".83" stroke-linecap="square" stroke-linejoin="round" stroke-width=".369" style="paint-order:fill markers stroke"/>
</g>
<path d="m-11.527-20.414c-2.1827 0-3.9375 1.7548-3.9375 3.9375v12c0-2.1827 1.7548-3.9375 3.9375-3.9375h83.75c2.1827 0 3.9375 1.7548 3.9375 3.9375v-12c0-2.1827-1.7548-3.9375-3.9375-3.9375z" opacity="0"/>
<path d="m-11.23-20.105c-2.1685 0-3.9259 1.7614-3.9259 3.9349v3.9658c0-2.1734 1.7574-3.9349 3.9259-3.9349h83.155c2.1685 0 3.9259 1.7614 3.9259 3.9349v-3.9658c0-2.1734-1.7574-3.9349-3.9259-3.9349z" fill="#e4e8e8" stroke="#738589" stroke-width=".99243"/>
<path d="m-11.23-12.175c-2.1685 0-3.9259 1.7614-3.9259 3.9349v3.9658c0-2.1734 1.7574-3.9349 3.9259-3.9349h83.155c2.1685 0 3.9259 1.7614 3.9259 3.9349v-3.9658c0-2.1734-1.7574-3.9349-3.9259-3.9349z" fill="#e4e8e8" stroke="#738589" stroke-width=".99243"/>
<path d="m-11.23-16.14c-2.1685 0-3.9259 1.7614-3.9259 3.9349v3.9658c0-2.1734 1.7574-3.9349 3.9259-3.9349h83.155c2.1685 0 3.9259 1.7614 3.9259 3.9349v-3.9658c0-2.1734-1.7574-3.9349-3.9259-3.9349z" fill="#e4e8e8" stroke="#738589" stroke-width=".99243"/>
<path d="m-11.246-19.914c-2.1685 0-3.9062 1.7424-3.9062 3.9062v13c0-2.1638 2.0873-4.7846 4.2558-4.7801l83.013 0.17476c2.1685 0.00457 3.7315 2.4415 3.7315 4.6053v-13c0-2.1638-1.7377-3.9062-3.9062-3.9062z" fill="url(#linearGradient4369)" opacity=".25818"/>
<rect transform="matrix(1.2146 0 0 1.3114 -18.089 19.372)" x="2" y="-30" width="75.966" height="69.024" rx="3.957" ry="3.957" clip-path="url(#clipPath4156-4-1-2)" fill="url(#linearGradient4767-6)" opacity=".589"/>
<path d="m-11.246-7.5079c-2.1685 0-3.9062 1.7424-3.9062 3.9062v70.594c0 2.1638 1.7377 3.9062 3.9062 3.9062h83.188c2.1685 0 3.9062-1.7424 3.9062-3.9062v-70.594c0-2.1638-1.7377-3.9062-3.9062-3.9062z" fill="url(#linearGradient4388)" opacity=".28"/>
</g>
</g>
</g>
</svg>
