<?xml version="1.0" encoding="UTF-8"?>
<!-- Created with Inkscape (http://www.inkscape.org/) -->
<svg version="1.1" viewBox="0 0 96 96" xmlns="http://www.w3.org/2000/svg" xmlns:cc="http://creativecommons.org/ns#" xmlns:dc="http://purl.org/dc/elements/1.1/" xmlns:rdf="http://www.w3.org/1999/02/22-rdf-syntax-ns#" xmlns:xlink="http://www.w3.org/1999/xlink">
<defs>
<linearGradient id="linearGradient4071" x1="6" x2="90" y1="47" y2="47" gradientTransform="matrix(1.1071 0 0 1.1071 -4.9939 -3.6207)" gradientUnits="userSpaceOnUse">
<stop stop-color="#b2babc" offset="0"/>
<stop stop-color="#fff" offset=".25"/>
<stop stop-color="#96a1a4" offset=".5"/>
<stop stop-color="#fbf9f9" offset=".75"/>
<stop stop-color="#b2b9bc" offset="1"/>
</linearGradient>
<linearGradient id="linearGradient4129" x1="1.5" x2="94.5" y1="88.172" y2="88.172" gradientTransform="translate(.14895 .41503)" gradientUnits="userSpaceOnUse">
<stop offset="0"/>
<stop stop-opacity=".58824" offset=".1"/>
<stop stop-opacity=".58824" offset=".9"/>
<stop offset="1"/>
</linearGradient>
<radialGradient id="radialGradient7462" cx="13.948" cy="44.893" r="43.199" gradientTransform="matrix(.97513 0 0 .049191 34.048 80.582)" gradientUnits="userSpaceOnUse" xlink:href="#linearGradient3737"/>
<linearGradient id="linearGradient3737">
<stop stop-color="#fff" offset="0"/>
<stop stop-color="#fff" stop-opacity="0" offset="1"/>
</linearGradient>
<radialGradient id="radialGradient7464" cx="13.948" cy="44.893" r="43.199" gradientTransform="matrix(.88833 0 0 .049191 31.96 -90.317)" gradientUnits="userSpaceOnUse" xlink:href="#linearGradient3737"/>
<linearGradient id="linearGradient4767" x1="2.7714" x2="50.528" y1="-28.642" y2="14.514" gradientUnits="userSpaceOnUse" xlink:href="#linearGradient3737"/>
<clipPath id="clipPath4156-4-1">
<path d="m27.046-55.695-14.214 13.321h0.06127l15.653 21.771 10.231-10.546c-0.2169-1.1522-11.311-23.67-11.732-24.546zm-17.399 16.313-14.888 14.062 21.229 17.515 10.385-10.577zm31.491 12.951-9.7413 9.7136 8.9448 12.458 7.7808-7.555zm-49.84 4.3788-13.754 12.982 26.283 13.846 0.06127-0.0617-0.12253-0.0617 9.8332-10.053-22.301-16.652zm38.015 7.4008-9.8025 9.7753 11.579 9.5594 7.6276-7.4008-8.6691-11.009zm20.187 5.674-7.3825 7.2158 6.1878 8.5418 5.8202-6.1365zm-32.195 6.3215-9.5575 9.4977 13.662 7.185 7.9339-7.6784zm23.312 2.3744-7.1068 6.9383 8.3628 6.9074 5.3608-5.674-0.06127-0.0925-0.0919 0.12335-6.4635-8.2026zm-8.7304 8.5418-7.5051 7.3392 10.354 5.4581c1.3975-1.321 5.6751-6.1229 5.8509-6.3215z" fill="#fff" opacity=".6"/>
</clipPath>
<linearGradient id="linearGradient3782" x1="47.835" x2="48.322" y1="74.688" y2="28.007" gradientTransform="translate(-26.658 45.267)" gradientUnits="userSpaceOnUse">
<stop stop-color="#520" offset="0"/>
<stop stop-color="#520" stop-opacity="0" offset="1"/>
</linearGradient>
<linearGradient id="linearGradient3746" x1="47.917" x2="76.624" y1="33.305" y2="33.305" gradientTransform="translate(-26.658 44.267)" gradientUnits="userSpaceOnUse">
<stop stop-color="#5cacf5" offset="0"/>
<stop stop-color="#abd4f4" offset="1"/>
</linearGradient>
<linearGradient id="linearGradient3755" x1="19.288" x2="47.995" y1="33.25" y2="33.25" gradientTransform="translate(-26.658 44.267)" gradientUnits="userSpaceOnUse">
<stop stop-color="#5aabf2" offset="0"/>
<stop stop-color="#badaf5" offset="1"/>
</linearGradient>
<linearGradient id="linearGradient3713" x1="31" x2="48.035" y1="47.979" y2="47.979" gradientTransform="translate(-26.658 44.267)" gradientUnits="userSpaceOnUse" xlink:href="#linearGradient3707"/>
<linearGradient id="linearGradient3707">
<stop stop-color="#a8d4fb" offset="0"/>
<stop stop-color="#dff0fa" offset="1"/>
</linearGradient>
<linearGradient id="linearGradient3730" x1="27.395" x2="48.112" y1="59.065" y2="59.065" gradientTransform="translate(-26.658 44.267)" gradientUnits="userSpaceOnUse" xlink:href="#linearGradient3724"/>
<linearGradient id="linearGradient3724">
<stop stop-color="#0d82e4" offset="0"/>
<stop stop-color="#bcdbf7" offset="1"/>
</linearGradient>
<linearGradient id="linearGradient3722" x1="48.077" x2="65.112" y1="47.979" y2="47.979" gradientTransform="translate(-26.658 44.267)" gradientUnits="userSpaceOnUse" xlink:href="#linearGradient3707"/>
<linearGradient id="linearGradient3738" x1="48" x2="69.018" y1="59.065" y2="59.065" gradientTransform="translate(-26.658 44.267)" gradientUnits="userSpaceOnUse" xlink:href="#linearGradient3724"/>
<linearGradient id="linearGradient3773" x1="47.917" x2="76.734" y1="53.65" y2="53.65" gradientTransform="translate(-26.658 44.267)" gradientUnits="userSpaceOnUse" xlink:href="#linearGradient3757"/>
<linearGradient id="linearGradient3757">
<stop stop-color="#389bed" offset="0"/>
<stop stop-color="#c2e5fc" offset="1"/>
</linearGradient>
<linearGradient id="linearGradient3763" x1="19.069" x2="47.886" y1="53.65" y2="53.65" gradientTransform="translate(-26.658 44.267)" gradientUnits="userSpaceOnUse" xlink:href="#linearGradient3757"/>
<linearGradient id="linearGradient3790" x1="31.085" x2="48.112" y1="59.065" y2="59.065" gradientTransform="translate(-26.658 44.267)" gradientUnits="userSpaceOnUse">
<stop stop-color="#1b8cee" offset="0"/>
<stop stop-color="#79b8e8" offset="1"/>
</linearGradient>
<linearGradient id="linearGradient3799" x1="48" x2="69.018" y1="59.065" y2="59.065" gradientTransform="translate(-26.658 44.267)" gradientUnits="userSpaceOnUse">
<stop stop-color="#107cd9" offset="0"/>
<stop stop-color="#79b8e8" offset="1"/>
</linearGradient>
<linearGradient id="linearGradient22267-0" x1="400" x2="416" y1="204.36" y2="204.36" gradientTransform="matrix(1.75 0 0 1.75 -798.29 -271.16)" gradientUnits="userSpaceOnUse">
<stop stop-color="#4daf5b" offset="0"/>
<stop stop-color="#84c98e" offset="1"/>
</linearGradient>
</defs>
<metadata>
<rdf:RDF>
<cc:Work rdf:about="">
<dc:format>image/svg+xml</dc:format>
<dc:type rdf:resource="http://purl.org/dc/dcmitype/StillImage"/>
<dc:title/>
<dc:date>2017</dc:date>
<dc:creator>
<cc:Agent>
<dc:title>Cristian Pozzessere "ilnanny"</dc:title>
</cc:Agent>
</dc:creator>
<dc:subject>
<rdf:Bag>
<rdf:li>Global language</rdf:li>
</rdf:Bag>
</dc:subject>
<dc:description>Playing with Inkscape on Gnu/Linux O. S.</dc:description>
<dc:contributor>
<cc:Agent>
<dc:title>In the night, alone like a dog.</dc:title>
</cc:Agent>
</dc:contributor>
<cc:license rdf:resource="http://creativecommons.org/licenses/by-sa/4.0/"/>
</cc:Work>
<cc:License rdf:about="http://creativecommons.org/licenses/by-sa/4.0/">
<cc:permits rdf:resource="http://creativecommons.org/ns#Reproduction"/>
<cc:permits rdf:resource="http://creativecommons.org/ns#Distribution"/>
<cc:requires rdf:resource="http://creativecommons.org/ns#Notice"/>
<cc:requires rdf:resource="http://creativecommons.org/ns#Attribution"/>
<cc:permits rdf:resource="http://creativecommons.org/ns#DerivativeWorks"/>
<cc:requires rdf:resource="http://creativecommons.org/ns#ShareAlike"/>
</cc:License>
</rdf:RDF>
</metadata>
<g transform="translate(0 -1026.5)">
<g transform="translate(-.14896 1026.1)">
<path d="m89.292 0.41503h-82.286c-3.7988 0-6.8571 3.0583-6.8571 6.8571v82.286c0 3.7989 3.0583 6.8571 6.8571 6.8571h82.286c3.7989 0 6.8571-3.0583 6.8571-6.8571v-82.286c0-3.7989-3.0583-6.8571-6.8571-6.8571z" opacity=".15"/>
<path d="m88.649 1.165h-81c-3.7395 0-6.75 3.0105-6.75 6.75v81c0 3.7395 3.0105 6.75 6.75 6.75h81c3.7395 0 6.75-3.0105 6.75-6.75v-81c0-3.7395-3.0105-6.75-6.75-6.75z" opacity=".15"/>
<path d="m88.006 1.915h-79.714c-3.6801 0-6.6429 2.9627-6.6429 6.6429v79.714c0 3.6801 2.9627 6.6429 6.6429 6.6429h79.714c3.6801 0 6.6429-2.9627 6.6429-6.6429v-79.714c0-3.6801-2.9627-6.6429-6.6429-6.6429z" fill="url(#linearGradient4071)"/>
<path d="m11.39 6.8022c-2.8565 0-5.1241 2.3147-5.1241 5.2305v69.369c1.0972 1.7038 2.9688 2.8441 5.1241 2.8441h73.787c2.1553 0 4.0269-1.1402 5.1241-2.8441v-69.369c0-2.9158-2.2676-5.2305-5.1241-5.2305z" fill="#f5f3f3" opacity=".77865"/>
<path d="m9.974 5.1445c-3.1166 0-5.668 2.5395-5.668 5.646v69.278c0 3.1065 2.5513 5.646 5.668 5.646h76.792c3.1166 0 5.668-2.5395 5.668-5.646v-69.278c0-3.1065-2.5513-5.646-5.668-5.646zm0 2.3194h76.792c1.8881 0 3.352 1.4801 3.352 3.3266v69.278c0 1.8465-1.4639 3.3266-3.352 3.3266h-76.792c-1.8881 0-3.352-1.4801-3.352-3.3266v-69.278c0-1.8465 1.4639-3.3266 3.352-3.3266z" color="#000000" fill="#241f1f" fill-opacity=".63265" style="text-decoration-line:none;text-indent:0;text-transform:none"/>
<path d="m1.649 82.259v6c0 3.6801 2.9761 6.6562 6.6562 6.6562h79.687c3.6801 0 6.6563-2.9761 6.6563-6.6562v-6c0 3.6801-2.9761 6.6562-6.6563 6.6562h-79.687c-3.6801 0-6.6562-2.9761-6.6562-6.6562z" fill="url(#linearGradient4129)" opacity=".65818"/>
<rect x="5.524" y="80.665" width="84.25" height="4.25" rx="0" ry="4.25" fill="url(#radialGradient7462)" opacity=".55"/>
<rect transform="rotate(90)" x="5.975" y="-90.234" width="76.75" height="4.25" rx="0" ry="4.25" fill="url(#radialGradient7464)" opacity=".669"/>
<g transform="matrix(1.3037 0 0 1.3037 20.469 -73.884)">
<path d="m9.7484 67.61c-0.03257 0.0074 8.38e-4 0.02199-0.03125 0.03125-0.03209 0.0093-0.03101-0.01112-0.0625 0s-4.57e-4 0.01832-0.03125 0.03125c-0.03079 0.01293-0.0013-0.0147-0.03125 0-0.02999 0.0147-0.0022 0.01483-0.03125 0.03125-0.02908 0.01642-0.0032-0.01809-0.03125 0a0.49999 0.49999 0 0 1-0.03125 0.03125l-17.25 10.5c-0.02886 0.01761-0.0035-0.01928-0.03125 0-0.02777 0.01928-0.0047 0.01037-0.03125 0.03125-0.02658 0.02088-0.0059 0.0088-0.03125 0.03125-0.02531 0.02241-0.0073 0.0074-0.03125 0.03125-0.02394 0.02387-0.0088 6e-3 -0.03125 0.03125-0.02249 0.02524-0.01028 0.0047-0.03125 0.03125-0.02097 0.02652-0.01188 0.0035-0.03125 0.03125-0.01937 0.02771 0.0177 0.0024 0 0.03125-0.0177 0.0288-0.01528 0.0015-0.03125 0.03125-0.01597 0.02979-0.01706 0.03182-0.03125 0.0625s0.01235-2.17e-4 0 0.03125c-0.01235 0.03147-0.02077-8.9e-4 -0.03125 0.03125s0.0086-0.0015 0 0.03125c-0.0086 0.0327 0.0066 0.02935 0 0.0625s0.0047-0.0022 0 0.03125c-0.0047 0.03348-0.02858-0.0024-0.03125 0.03125-0.0027 0.0337 6.83e-4 0.0287 0 0.0625s-0.0013-0.0025 0 0.03125c0.0013 0.03378-0.0033 0.02886 0 0.0625s0.02597-0.0021 0.03125 0.03125c0.0053 0.03339-0.0072-0.0018 0 0.03125 0.0072 0.03302-0.0092 0.02996 0 0.0625s0.02018-6.9e-4 0.03125 0.03125-0.01293 1.8e-5 0 0.03125c0.01293 0.03123 0.0165 8.35e-4 0.03125 0.03125 0.01475 0.03041-0.01652 0.03301 0 0.0625s0.01302 0.0028 0.03125 0.03125c0.01823 0.02847 0.01137 0.0039 0.03125 0.03125 0.01988 0.02734 0.0098 0.0051 0.03125 0.03125 0.02145 0.02612-0.02296 0.0064 0 0.03125 0.02296 0.02481 0.0069 0.0078 0.03125 0.03125 0.02438 0.02342 0.0055 0.0093 0.03125 0.03125l10.5 8.875a0.49999 0.49999 0 0 1 0 0.75l-10.688 8.5938c-0.02626 0.02113-0.0063 0.0086-0.03125 0.03125-0.02498 0.02263-0.0076 0.0072-0.03125 0.03125-0.0236 0.02406-0.0091 0.0058-0.03125 0.03125-0.02215 0.02541-0.01064 0.0046-0.03125 0.03125-0.02061 0.02667-0.01224 0.0034-0.03125 0.03125-0.01901 0.02783 0.01734 0.0336 0 0.0625s-0.01563 0.0014-0.03125 0.03125c-0.01562 0.02987-0.01742 5.13e-4 -0.03125 0.03125-0.01383 0.03074 0.012-2.46e-4 0 0.03125-0.012 0.0315-0.02112-8.97e-4 -0.03125 0.03125-0.01013 0.03215 0.0082 0.02981 0 0.0625s0.0063-0.0019 0 0.03125c-0.0063 0.03311 0.0043-0.0022 0 0.03125-0.0043 0.03343-0.02889 0.02888-0.03125 0.0625-0.0024 0.03362 3.78e-4 -0.0025 0 0.03125-3.78e-4 0.0337-0.0016 0.02883 0 0.0625s0.02767-0.0023 0.03125 0.03125c0.0036 0.03352-0.0055-2e-3 0 0.03125s-0.0075 0.02964 0 0.0625-0.0094-0.0011 0 0.03125c0.0094 0.03237 0.01996-5.08e-4 0.03125 0.03125 0.01129 0.03176-0.01314 2.11e-4 0 0.03125 0.01314 0.03104 0.01631 0.03229 0.03125 0.0625s-0.01669 2e-3 0 0.03125c0.01669 0.02928 0.01287 3e-3 0.03125 0.03125s0.01124 0.0041 0.03125 0.03125c0.02001 0.02712 0.0097 0.0054 0.03125 0.03125 0.02157 0.0259 0.0082 0.0067 0.03125 0.03125 0.02306 0.02459 0.0068 0.0081 0.03125 0.03125 0.02446 0.02319 0.0055 0.0095 0.03125 0.03125 0.02578 0.02171 0.0042 0.01109 0.03125 0.03125 0.01351 0.01008 0.02949-0.0012 0.03125 0l11.406 7.25a0.49999 0.49999 0 0 1 0.21875 0.4375l-0.03125 1.375a0.49999 0.49999 0 0 1-0.03125 0.1875c-0.0093 0.0225-0.02296 8e-3 -0.03125 0.0312-0.0083 0.0229 0.0073 8e-3 0 0.0312s0.0063 8e-3 0 0.0312c-0.0063 0.0235 0.0053 7e-3 0 0.0312-0.0053 0.0238-0.02695 7e-3 -0.03125 0.0312-0.0043 0.024 0.0033 7e-3 0 0.0312-0.0033 0.0241 0.0023 7e-3 0 0.0312s0.0012 7e-3 0 0.0312c-0.0012 0.0243 1.88e-4 7e-3 0 0.0312-1.88e-4 0.0243-8.45e-4 7e-3 0 0.0312 8.45e-4 0.0243-0.0019 7e-3 0 0.0312 0.0019 0.0243-0.0029 7e-3 0 0.0312s-0.0039 7e-3 0 0.0312c0.0039 0.024 0.02631 7e-3 0.03125 0.0312 6e-3 0.0236-0.0069 8e-3 0 0.0312 0.0069 0.0233-0.0079 8e-3 0 0.0312 0.0079 0.023 0.02235 9e-3 0.03125 0.0312 0.0089 0.0226-0.0099 9e-3 0 0.0312s-0.01079 9e-3 0 0.0312c0.01079 0.0218 0.01954 0.01 0.03125 0.0312 0.01171 0.0213-0.0126 0.0104 0 0.0312s0.01778 0.011 0.03125 0.0312c0.01432 0.0197 0.0161 0.0122 0.03125 0.0312s0.01531 0.0129 0.03125 0.0312c0.01594 0.0184-0.01671 0.0135 0 0.0312s0.01381-0.017 0.03125 0 0.0131 0.015 0.03125 0.0312-0.01882 0.0158 0 0.0312 0.01179-0.0146 0.03125 0 0.01119 0.0175 0.03125 0.0312l17.062 12c0.01799 0.0127 0.01279-0.012 0.03125 0s0.01234 0.02 0.03125 0.0312c0.01933 0.0105 0.01153 0.0215 0.03125 0.0312 0.01972 0.01 0.01117-9e-3 0.03125 0s0.01084-8e-3 0.03125 0 0.01054 0.0238 0.03125 0.0312c0.02071 7e-3 0.01027-7e-3 0.03125 0 0.02122 6e-3 0.0098 0.0262 0.03125 0.0312 0.02143 5e-3 0.0096-4e-3 0.03125 0 0.02161 4e-3 0.0095-3e-3 0.03125 0s0.0094-2e-3 0.03125 0c0.02187 2e-3 0.0093-2e-3 0.03125 0s0.0093-8.5e-4 0.03125 0c0.022 8.4e-4 0.0092 0 0.03125 0 0.022-8.5e-4 0.0093 2e-3 0.03125 0s0.0094 2e-3 0.03125 0c0.02187-2e-3 0.0095 3e-3 0.03125 0s0.0096 4e-3 0.03125 0c0.02161-4e-3 0.0098 5e-3 0.03125 0 0.02143-5e-3 0.01003-0.0254 0.03125-0.0312 0.02098-7e-3 0.01054 7e-3 0.03125 0s0.01084-0.023 0.03125-0.0312c0.02041-8e-3 0.01117 9e-3 0.03125 0s0.01153 0.01 0.03125 0 0.01192-0.0207 0.03125-0.0312c0.01891-0.0113 0.01279-0.0193 0.03125-0.0312 0.01846-0.012 0.01326 0.0127 0.03125 0l10.594-7.5a0.49999 0.49999 0 0 1 0.03125 0 0.49999 0.49999 0 0 1 0.0625-0.0625 0.49999 0.49999 0 0 1 0.03125 0l0.0625-0.0312 6.1562-4.3125a0.49999 0.49999 0 0 1 0.03125-0.0312c0.02269-0.0137 0.0092 0.0147 0.03125 0 0.02204-0.0147 0.0099-0.0156 0.03125-0.0312a0.49999 0.49999 0 0 1 0.03125-0.0312c0.01829-0.0103 0.01335 0.011 0.03125 0 0.0089-5e-3 0.03012 7.2e-4 0.03125 0 0.0011-7.3e-4 -0.0087-0.0254 0-0.0312 0.01704-0.0123 0.01467-0.0183 0.03125-0.0312a0.49999 0.49999 0 0 1 0.0625-0.0625 0.49999 0.49999 0 0 1 0.03125-0.0312c0.01847-0.019-0.01757-0.0114 0-0.0312 0.01757-0.0199 0.01462-0.0106 0.03125-0.0312 0.01663-0.0207 0.0156-0.01 0.03125-0.0312 0.01465-0.0221 0.01764-8e-3 0.03125-0.0312 0.01361-0.0228-0.01254-8e-3 0-0.0312 0.01254-0.0234 0.0198-7e-3 0.03125-0.0312 0.01145-0.0239-0.01033-7e-3 0-0.0312 0.01033-0.0244 0.02206-6e-3 0.03125-0.0312 0.0092-0.0249-8e-3 -6e-3 0-0.0312 8e-3 -0.0253-0.0069-6e-3 0-0.0312 0.0069-0.0256-0.0057-5e-3 0-0.0312 0.0057-0.0259 0.02679-5e-3 0.03125-0.0312 0.0045-0.0261-0.0032-5e-3 0-0.0312 0.0032-0.0263-2e-3 -5e-3 0-0.0312 2e-3 -0.0264-7.99e-4 -5e-3 0-0.0312l-0.03125-2.0312a0.49999 0.49999 0 0 1 0.21875-0.4375l11.062-7.0313c0.0018-0.0012 0.01774 0.01008 0.03125 0 0.02701-0.02016 0.0055-0.0095 0.03125-0.03125 0.02578-0.02171 0.0068-0.0081 0.03125-0.03125 0.02446-0.02319 0.0082-0.0067 0.03125-0.03125 0.02306-0.02459 0.0097-0.0054 0.03125-0.03125 0.02157-0.0259 0.01124-0.0041 0.03125-0.03125 0.02001-0.02712 0.01287-3e-3 0.03125-0.03125s0.01456-2e-3 0.03125-0.03125c0.01669-0.02928-0.01494-1e-3 0-0.03125 0.01494-0.03021 0.01811-0.03146 0.03125-0.0625s-0.01129 5.08e-4 0-0.03125c0.01129-0.03176 0.02184 0.0011 0.03125-0.03125 0.0094-0.03237-0.0075 0.0016 0-0.03125 0.0075-0.03286-0.0055-0.02925 0-0.0625s-0.0036 0.0023 0-0.03125c0.0036-0.03352 0.02965 0.0024 0.03125-0.03125 0.0016-0.03367 3.78e-4 -0.0288 0-0.0625s0.0024 0.0024 0-0.03125c-0.0024-0.03362-0.02692-0.02907-0.03125-0.0625-0.0043-0.03343 0.0063 0.0019 0-0.03125-0.0063-0.03311 0.0082 0.0014 0-0.03125-0.0082-0.03269 0.01013-0.03035 0-0.0625s-0.01925 2.46e-4 -0.03125-0.03125c-0.012-0.0315 0.01383-5.13e-4 0-0.03125-0.01383-0.03074-0.01564-0.0014-0.03125-0.03125-0.01561-0.02987-0.01391-0.0023-0.03125-0.03125-0.01734-0.0289 0.01901-0.03467 0-0.0625s-0.01063-0.0046-0.03125-0.03125c-0.02062-0.02667-0.0091-0.0058-0.03125-0.03125-0.02215-0.02541-0.0076-0.0072-0.03125-0.03125-0.0236-0.02406-0.0063-0.0086-0.03125-0.03125-0.02497-0.02263-5e-3 -0.01012-0.03125-0.03125l-10.562-8.5a0.49999 0.49999 0 0 1 0-0.75l10.5-8.9375c0.02572-0.02194 0.0069-0.0078 0.03125-0.03125 0.02438-0.02342 0.0083-0.0064 0.03125-0.03125 0.02296-0.02481-0.02145-0.0051 0-0.03125 0.02145-0.02612 0.01137-0.0039 0.03125-0.03125 0.01988-0.02734 0.01302-0.0028 0.03125-0.03125 0.01823-0.02847 0.01473-0.0018 0.03125-0.03125 0.01652-0.02949-0.01475-0.03209 0-0.0625s0.01832-1.8e-5 0.03125-0.03125c0.01293-0.03123-0.01107 6.9e-4 0-0.03125s0.02208 0.0013 0.03125-0.03125c0.0092-0.03254-0.0072-0.02948 0-0.0625s-0.0053 0.0021 0-0.03125c0.0053-0.03339 0.02795 0.0024 0.03125-0.03125 0.0033-0.03364-0.0013-0.02872 0-0.0625s6.83e-4 0.0025 0-0.03125c-6.83e-4 -0.0338 0.0027-0.0288 0-0.0625s-0.02659 0.0022-0.03125-0.03125c-0.0047-0.03348 0.0066 0.0019 0-0.03125s0.0086-0.0298 0-0.0625 0.01048 8.9e-4 0-0.03125-0.0189 2.17e-4 -0.03125-0.03125c-0.01235-0.03147 0.01419-5.66e-4 0-0.03125-0.01419-0.03068-0.01528-0.03271-0.03125-0.0625s-0.01355-0.0024-0.03125-0.03125c-0.0177-0.0288 0.01937-0.0035 0-0.03125-0.01937-0.02771-0.01028-0.0047-0.03125-0.03125-0.02097-0.02652-0.0088-6e-3 -0.03125-0.03125-0.02249-0.02524-0.0073-0.0074-0.03125-0.03125-0.02394-0.02387-0.0059-0.0088-0.03125-0.03125-0.02531-0.02241-0.0047-0.01037-0.03125-0.03125-0.02658-0.02088-0.0035-0.01197-0.03125-0.03125-0.02777-0.01928-0.0024 0.01761-0.03125 0l-17.25-10.469c-0.01882-0.01153-0.012-0.02046-0.03125-0.03125s-0.0116 0.01004-0.03125 0-0.01123-0.02197-0.03125-0.03125c-0.02002-0.0093-0.01088 0.0085-0.03125 0-0.02068-0.0077-0.01029-0.02434-0.03125-0.03125-0.02096-0.0069-0.01004 0.0061-0.03125 0s-0.0098 0.0053-0.03125 0c-0.02143-0.0053-0.0096 0.0044-0.03125 0-0.02162-0.0044-0.0095 0.0036-0.03125 0-0.02177-0.0036 0.02189-0.02848 0-0.03125-0.02189-0.0028-0.0093 0.0019-0.03125 0-0.02199-0.0019-0.0092 0.0011-0.03125 0-0.02204-0.0011-0.0092 2.3e-4 -0.03125 0-0.02207-2.3e-4 -0.0092-6.19e-4 -0.03125 0-0.02206 6.19e-4 -0.0092-0.0015-0.03125 0-0.02202 0.0015-0.0093-0.0023-0.03125 0s-0.0094-0.0032-0.03125 0c-0.02184 0.0032-0.0095 0.02725-0.03125 0.03125-0.02153 0.0048-0.0099-0.0057-0.03125 0-0.02133 0.0057-0.01015-0.0065-0.03125 0s-0.01042 0.02397-0.03125 0.03125c-0.02083 0.0073-0.01071-0.0081-0.03125 0s-0.01104-0.0089-0.03125 0 0.01986 0.02162 0 0.03125c-0.01986 0.0096-0.01178-0.01039-0.03125 0s-0.01219-0.01113-0.03125 0-0.01264 0.01939-0.03125 0.03125c-0.01814 0.01256-0.0136 0.018-0.03125 0.03125s-0.01413-0.01392-0.03125 0l-10.594 9.125a0.49999 0.49999 0 0 1-0.625 0l-10.688-9.1875c-0.02122-0.01778-0.0092 0.01673-0.03125 0s-0.0084-0.0156-0.03125-0.03125c-0.02283-0.01565-0.0077-0.01672-0.03125-0.03125-0.02356-0.01453-7e-3 0.01337-0.03125 0-0.02424-0.01337-0.0064-0.01906-0.03125-0.03125s-0.0058 0.01097-0.03125 0c-0.02541-0.01097-0.0053-0.02152-0.03125-0.03125-0.02591-0.0097-0.0049 0.0085-0.03125 0s-0.0045 0.0072-0.03125 0c-0.02673-0.0072-0.0042-0.02536-0.03125-0.03125-0.02705-0.0059-4e-3 0.0046-0.03125 0-0.0273-0.0046-0.0038 0.0033-0.03125 0-0.02749-0.0033-0.0036 0.0019-0.03125 0-0.02761-0.0019-0.03482 5.87e-4 -0.0625 0s-0.0036-7.49e-4 -0.03125 0c-0.0166 0.0018-0.02913-2.88e-4 -0.03125 0-0.0021 2.88e-4 -0.01478-0.0027-0.03125 0-0.03295 0.0055 0.0013-0.0074-0.03125 0z" color="#000000" fill="url(#linearGradient3782)" opacity=".3"/>
<path d="m9.7484 66.61c-0.03257 0.0074 8.38e-4 0.02199-0.03125 0.03125-0.03209 0.0093-0.03101-0.01112-0.0625 0s-4.57e-4 0.01832-0.03125 0.03125c-0.03079 0.01293-0.0013-0.0147-0.03125 0-0.02999 0.0147-0.0022 0.01483-0.03125 0.03125-0.02908 0.01642-0.0032-0.01809-0.03125 0a0.49999 0.49999 0 0 1-0.03125 0.03125l-17.25 10.5c-0.02886 0.01761-0.0035-0.01928-0.03125 0-0.02777 0.01928-0.0047 0.01037-0.03125 0.03125-0.02658 0.02088-0.0059 0.0088-0.03125 0.03125-0.02531 0.02241-0.0073 0.0074-0.03125 0.03125-0.02394 0.02387-0.0088 6e-3 -0.03125 0.03125-0.02249 0.02524-0.01028 0.0047-0.03125 0.03125-0.02097 0.02652-0.01188 0.0035-0.03125 0.03125-0.01937 0.02771 0.0177 0.0024 0 0.03125-0.0177 0.0288-0.01528 0.0015-0.03125 0.03125-0.01597 0.02979-0.01706 0.03182-0.03125 0.0625s0.01235-2.17e-4 0 0.03125c-0.01235 0.03147-0.02077-8.9e-4 -0.03125 0.03125s0.0086-0.0015 0 0.03125c-0.0086 0.0327 0.0066 0.02935 0 0.0625s0.0047-0.0022 0 0.03125c-0.0047 0.03348-0.02858-0.0024-0.03125 0.03125-0.0027 0.0337 6.83e-4 0.0287 0 0.0625s-0.0013-0.0025 0 0.03125c0.0013 0.03378-0.0033 0.02886 0 0.0625s0.02597-0.0021 0.03125 0.03125c0.0053 0.03339-0.0072-0.0018 0 0.03125 0.0072 0.03302-0.0092 0.02996 0 0.0625s0.02018-6.9e-4 0.03125 0.03125-0.01293 1.8e-5 0 0.03125c0.01293 0.03123 0.0165 8.35e-4 0.03125 0.03125 0.01475 0.03041-0.01652 0.03301 0 0.0625s0.01302 0.0028 0.03125 0.03125c0.01823 0.02847 0.01137 0.0039 0.03125 0.03125 0.01988 0.02734 0.0098 0.0051 0.03125 0.03125 0.02145 0.02612-0.02296 0.0064 0 0.03125 0.02296 0.02481 0.0069 0.0078 0.03125 0.03125 0.02438 0.02342 0.0055 0.0093 0.03125 0.03125l10.5 8.875a0.49999 0.49999 0 0 1 0 0.75l-10.688 8.5938c-0.02626 0.02113-0.0063 0.0086-0.03125 0.03125-0.02498 0.02263-0.0076 0.0072-0.03125 0.03125-0.0236 0.02406-0.0091 0.0058-0.03125 0.03125-0.02215 0.02541-0.01064 0.0046-0.03125 0.03125-0.02061 0.02667-0.01224 0.0034-0.03125 0.03125-0.01901 0.02783 0.01734 0.0336 0 0.0625s-0.01563 0.0014-0.03125 0.03125c-0.01562 0.02987-0.01742 5.13e-4 -0.03125 0.03125-0.01383 0.03074 0.012-2.46e-4 0 0.03125-0.012 0.0315-0.02112-8.97e-4 -0.03125 0.03125-0.01013 0.03215 0.0082 0.02981 0 0.0625s0.0063-0.0019 0 0.03125c-0.0063 0.03311 0.0043-0.0022 0 0.03125-0.0043 0.03343-0.02889 0.02888-0.03125 0.0625-0.0024 0.03362 3.78e-4 -0.0025 0 0.03125-3.78e-4 0.0337-0.0016 0.02883 0 0.0625s0.02767-0.0023 0.03125 0.03125c0.0036 0.03352-0.0055-2e-3 0 0.03125s-0.0075 0.02964 0 0.0625-0.0094-0.0011 0 0.03125c0.0094 0.03237 0.01996-5.08e-4 0.03125 0.03125 0.01129 0.03176-0.01314 2.11e-4 0 0.03125 0.01314 0.03104 0.01631 0.03229 0.03125 0.0625s-0.01669 2e-3 0 0.03125c0.01669 0.02928 0.01287 3e-3 0.03125 0.03125s0.01124 0.0041 0.03125 0.03125c0.02001 0.02712 0.0097 0.0054 0.03125 0.03125 0.02157 0.0259 0.0082 0.0067 0.03125 0.03125 0.02306 0.02459 0.0068 0.0081 0.03125 0.03125 0.02446 0.02319 0.0055 0.0095 0.03125 0.03125 0.02578 0.02171 0.0042 0.01109 0.03125 0.03125 0.01351 0.01008 0.02949-0.0012 0.03125 0l11.406 7.25a0.49999 0.49999 0 0 1 0.21875 0.4375l-0.03125 1.375a0.49999 0.49999 0 0 1-0.03125 0.1875c-0.0093 0.0225-0.02296 8e-3 -0.03125 0.0312-0.0083 0.0229 0.0073 8e-3 0 0.0312s0.0063 8e-3 0 0.0312c-0.0063 0.0235 0.0053 7e-3 0 0.0312-0.0053 0.0238-0.02695 7e-3 -0.03125 0.0312-0.0043 0.024 0.0033 7e-3 0 0.0312-0.0033 0.0241 0.0023 7e-3 0 0.0312s0.0012 7e-3 0 0.0312c-0.0012 0.0243 1.88e-4 7e-3 0 0.0312-1.88e-4 0.0243-8.45e-4 7e-3 0 0.0312 8.45e-4 0.0243-0.0019 7e-3 0 0.0312 0.0019 0.0243-0.0029 7e-3 0 0.0312s-0.0039 7e-3 0 0.0312c0.0039 0.024 0.02631 7e-3 0.03125 0.0312 6e-3 0.0236-0.0069 8e-3 0 0.0312 0.0069 0.0233-0.0079 8e-3 0 0.0312 0.0079 0.023 0.02235 9e-3 0.03125 0.0312 0.0089 0.0226-0.0099 9e-3 0 0.0312s-0.01079 9e-3 0 0.0312c0.01079 0.0218 0.01954 0.01 0.03125 0.0312 0.01171 0.0213-0.0126 0.0104 0 0.0312s0.01778 0.011 0.03125 0.0312c0.01432 0.0197 0.0161 0.0122 0.03125 0.0312s0.01531 0.0129 0.03125 0.0312c0.01594 0.0184-0.01671 0.0135 0 0.0312s0.01381-0.017 0.03125 0 0.0131 0.015 0.03125 0.0312-0.01882 0.0158 0 0.0312 0.01179-0.0146 0.03125 0 0.01119 0.0175 0.03125 0.0312l17.062 12c0.01799 0.0127 0.01279-0.012 0.03125 0s0.01234 0.02 0.03125 0.0312c0.01933 0.0105 0.01153 0.0215 0.03125 0.0312 0.01972 0.01 0.01117-9e-3 0.03125 0s0.01084-8e-3 0.03125 0 0.01054 0.0238 0.03125 0.0312c0.02071 7e-3 0.01027-7e-3 0.03125 0 0.02122 6e-3 0.0098 0.0262 0.03125 0.0312 0.02143 5e-3 0.0096-4e-3 0.03125 0 0.02161 4e-3 0.0095-3e-3 0.03125 0s0.0094-2e-3 0.03125 0c0.02187 2e-3 0.0093-2e-3 0.03125 0s0.0093-8.5e-4 0.03125 0c0.022 8.4e-4 0.0092 0 0.03125 0 0.022-8.5e-4 0.0093 2e-3 0.03125 0s0.0094 2e-3 0.03125 0c0.02187-2e-3 0.0095 3e-3 0.03125 0s0.0096 4e-3 0.03125 0c0.02161-4e-3 0.0098 5e-3 0.03125 0 0.02143-5e-3 0.01003-0.0254 0.03125-0.0312 0.02098-7e-3 0.01054 7e-3 0.03125 0s0.01084-0.023 0.03125-0.0312c0.02041-8e-3 0.01117 9e-3 0.03125 0s0.01153 0.01 0.03125 0 0.01192-0.0207 0.03125-0.0312c0.01891-0.0113 0.01279-0.0193 0.03125-0.0312 0.01846-0.012 0.01326 0.0127 0.03125 0l10.594-7.5a0.49999 0.49999 0 0 1 0.03125 0 0.49999 0.49999 0 0 1 0.0625-0.0625 0.49999 0.49999 0 0 1 0.03125 0l0.0625-0.0312 6.1562-4.3125a0.49999 0.49999 0 0 1 0.03125-0.0312c0.02269-0.0137 0.0092 0.0147 0.03125 0 0.02204-0.0147 0.0099-0.0156 0.03125-0.0312a0.49999 0.49999 0 0 1 0.03125-0.0312c0.01829-0.0103 0.01335 0.011 0.03125 0 0.0089-5e-3 0.03012 7.2e-4 0.03125 0 0.0011-7.3e-4 -0.0087-0.0254 0-0.0312 0.01704-0.0123 0.01467-0.0183 0.03125-0.0312a0.49999 0.49999 0 0 1 0.0625-0.0625 0.49999 0.49999 0 0 1 0.03125-0.0312c0.01847-0.019-0.01757-0.0114 0-0.0312 0.01757-0.0199 0.01462-0.0106 0.03125-0.0312 0.01663-0.0207 0.0156-0.01 0.03125-0.0312 0.01465-0.0221 0.01764-8e-3 0.03125-0.0312 0.01361-0.0228-0.01254-8e-3 0-0.0312 0.01254-0.0234 0.0198-7e-3 0.03125-0.0312 0.01145-0.0239-0.01033-7e-3 0-0.0312 0.01033-0.0244 0.02206-6e-3 0.03125-0.0312 0.0092-0.0249-8e-3 -6e-3 0-0.0312 8e-3 -0.0253-0.0069-6e-3 0-0.0312 0.0069-0.0256-0.0057-5e-3 0-0.0312 0.0057-0.0259 0.02679-5e-3 0.03125-0.0312 0.0045-0.0261-0.0032-5e-3 0-0.0312 0.0032-0.0263-2e-3 -5e-3 0-0.0312 2e-3 -0.0264-7.99e-4 -5e-3 0-0.0312l-0.03125-2.0312a0.49999 0.49999 0 0 1 0.21875-0.4375l11.062-7.0313c0.0018-0.0012 0.01774 0.01008 0.03125 0 0.02701-0.02016 0.0055-0.0095 0.03125-0.03125 0.02578-0.02171 0.0068-0.0081 0.03125-0.03125 0.02446-0.02319 0.0082-0.0067 0.03125-0.03125 0.02306-0.02459 0.0097-0.0054 0.03125-0.03125 0.02157-0.0259 0.01124-0.0041 0.03125-0.03125 0.02001-0.02712 0.01287-3e-3 0.03125-0.03125s0.01456-2e-3 0.03125-0.03125c0.01669-0.02928-0.01494-1e-3 0-0.03125 0.01494-0.03021 0.01811-0.03146 0.03125-0.0625s-0.01129 5.08e-4 0-0.03125c0.01129-0.03176 0.02184 0.0011 0.03125-0.03125 0.0094-0.03237-0.0075 0.0016 0-0.03125 0.0075-0.03286-0.0055-0.02925 0-0.0625s-0.0036 0.0023 0-0.03125c0.0036-0.03352 0.02965 0.0024 0.03125-0.03125 0.0016-0.03367 3.78e-4 -0.0288 0-0.0625s0.0024 0.0024 0-0.03125c-0.0024-0.03362-0.02692-0.02907-0.03125-0.0625-0.0043-0.03343 0.0063 0.0019 0-0.03125-0.0063-0.03311 0.0082 0.0014 0-0.03125-0.0082-0.03269 0.01013-0.03035 0-0.0625s-0.01925 2.46e-4 -0.03125-0.03125c-0.012-0.0315 0.01383-5.13e-4 0-0.03125-0.01383-0.03074-0.01564-0.0014-0.03125-0.03125-0.01561-0.02987-0.01391-0.0023-0.03125-0.03125-0.01734-0.0289 0.01901-0.03467 0-0.0625s-0.01063-0.0046-0.03125-0.03125c-0.02062-0.02667-0.0091-0.0058-0.03125-0.03125-0.02215-0.02541-0.0076-0.0072-0.03125-0.03125-0.0236-0.02406-0.0063-0.0086-0.03125-0.03125-0.02497-0.02263-5e-3 -0.01012-0.03125-0.03125l-10.562-8.5a0.49999 0.49999 0 0 1 0-0.75l10.5-8.9375c0.02572-0.02194 0.0069-0.0078 0.03125-0.03125 0.02438-0.02342 0.0083-0.0064 0.03125-0.03125 0.02296-0.02481-0.02145-0.0051 0-0.03125 0.02145-0.02612 0.01137-0.0039 0.03125-0.03125 0.01988-0.02734 0.01302-0.0028 0.03125-0.03125 0.01823-0.02847 0.01473-0.0018 0.03125-0.03125 0.01652-0.02949-0.01475-0.03209 0-0.0625s0.01832-1.8e-5 0.03125-0.03125c0.01293-0.03123-0.01107 6.9e-4 0-0.03125s0.02208 0.0013 0.03125-0.03125c0.0092-0.03254-0.0072-0.02948 0-0.0625s-0.0053 0.0021 0-0.03125c0.0053-0.03339 0.02795 0.0024 0.03125-0.03125 0.0033-0.03364-0.0013-0.02872 0-0.0625s6.83e-4 0.0025 0-0.03125c-6.83e-4 -0.0338 0.0027-0.0288 0-0.0625s-0.02659 0.0022-0.03125-0.03125c-0.0047-0.03348 0.0066 0.0019 0-0.03125s0.0086-0.0298 0-0.0625 0.01048 8.9e-4 0-0.03125-0.0189 2.17e-4 -0.03125-0.03125c-0.01235-0.03147 0.01419-5.66e-4 0-0.03125-0.01419-0.03068-0.01528-0.03271-0.03125-0.0625s-0.01355-0.0024-0.03125-0.03125c-0.0177-0.0288 0.01937-0.0035 0-0.03125-0.01937-0.02771-0.01028-0.0047-0.03125-0.03125-0.02097-0.02652-0.0088-6e-3 -0.03125-0.03125-0.02249-0.02524-0.0073-0.0074-0.03125-0.03125-0.02394-0.02387-0.0059-0.0088-0.03125-0.03125-0.02531-0.02241-0.0047-0.01037-0.03125-0.03125-0.02658-0.02088-0.0035-0.01197-0.03125-0.03125-0.02777-0.01928-0.0024 0.01761-0.03125 0l-17.25-10.469c-0.01882-0.01153-0.012-0.02046-0.03125-0.03125s-0.0116 0.01004-0.03125 0-0.01123-0.02197-0.03125-0.03125c-0.02002-0.0093-0.01088 0.0085-0.03125 0-0.02068-0.0077-0.01029-0.02434-0.03125-0.03125-0.02096-0.0069-0.01004 0.0061-0.03125 0s-0.0098 0.0053-0.03125 0c-0.02143-0.0053-0.0096 0.0044-0.03125 0-0.02162-0.0044-0.0095 0.0036-0.03125 0-0.02177-0.0036 0.02189-0.02848 0-0.03125-0.02189-0.0028-0.0093 0.0019-0.03125 0-0.02199-0.0019-0.0092 0.0011-0.03125 0-0.02204-0.0011-0.0092 2.3e-4 -0.03125 0-0.02207-2.3e-4 -0.0092-6.19e-4 -0.03125 0-0.02206 6.19e-4 -0.0092-0.0015-0.03125 0-0.02202 0.0015-0.0093-0.0023-0.03125 0s-0.0094-0.0032-0.03125 0c-0.02184 0.0032-0.0095 0.02725-0.03125 0.03125-0.02153 0.0048-0.0099-0.0057-0.03125 0-0.02133 0.0057-0.01015-0.0065-0.03125 0s-0.01042 0.02397-0.03125 0.03125c-0.02083 0.0073-0.01071-0.0081-0.03125 0s-0.01104-0.0089-0.03125 0 0.01986 0.02162 0 0.03125c-0.01986 0.0096-0.01178-0.01039-0.03125 0s-0.01219-0.01113-0.03125 0-0.01264 0.01939-0.03125 0.03125c-0.01814 0.01256-0.0136 0.018-0.03125 0.03125s-0.01413-0.01392-0.03125 0l-10.594 9.125a0.49999 0.49999 0 0 1-0.625 0l-10.688-9.1875c-0.02122-0.01778-0.0092 0.01673-0.03125 0s-0.0084-0.0156-0.03125-0.03125c-0.02283-0.01565-0.0077-0.01672-0.03125-0.03125-0.02356-0.01453-7e-3 0.01337-0.03125 0-0.02424-0.01337-0.0064-0.01906-0.03125-0.03125s-0.0058 0.01097-0.03125 0c-0.02541-0.01097-0.0053-0.02152-0.03125-0.03125-0.02591-0.0097-0.0049 0.0085-0.03125 0s-0.0045 0.0072-0.03125 0c-0.02673-0.0072-0.0042-0.02536-0.03125-0.03125-0.02705-0.0059-4e-3 0.0046-0.03125 0-0.0273-0.0046-0.0038 0.0033-0.03125 0-0.02749-0.0033-0.0036 0.0019-0.03125 0-0.02761-0.0019-0.03482 5.87e-4 -0.0625 0s-0.0036-7.49e-4 -0.03125 0c-0.0166 0.0018-0.02913-2.88e-4 -0.03125 0-0.0021 2.88e-4 -0.01478-0.0027-0.03125 0-0.03295 0.0055 0.0013-0.0074-0.03125 0z" color="#000000" fill="#0b5a9a"/>
<path d="m21.301 95.267 17.042 12.021-17.042 12.021-17.042-12.021z" color="#000000" fill="#fdfffe"/>
<path d="m32.726 67.376 17.24 10.494-11.665 9.8966-17.042-10.5z" color="#000000" fill="url(#linearGradient3746)"/>
<path d="m9.8702 67.322-17.24 10.494 11.665 9.8966 17.042-10.5z" color="#000000" fill="url(#linearGradient3755)"/>
<path d="m4.3422 107.27 0.17256-19.754 16.863-10.288v18.023z" fill="url(#linearGradient3713)"/>
<path d="m21.3 119.07 0.1547-20.885-17.017-10.597v19.725z" fill="url(#linearGradient3730)" opacity=".6"/>
<path d="m38.345 107.27-0.06284-19.754-16.917-10.343v18.297z" fill="url(#linearGradient3722)"/>
<path d="m21.497 119.07-0.1547-20.885 17.017-10.597v19.725z" fill="url(#linearGradient3738)" opacity=".6"/>
<path d="m38.301 87.718 11.775 9.4577-17.151 10.939-11.665-9.8966z" color="#000000" fill="url(#linearGradient3773)"/>
<path d="m4.1861 87.718-11.775 9.4577 17.151 10.939 11.665-9.8966z" color="#000000" fill="url(#linearGradient3763)"/>
<path d="m21.301 95.267 17.042 12.021-17.042 12.021-17.042-12.021z" color="#000000" fill="#fdfffe" opacity=".2"/>
<path d="m4.4359 87.86v16.969l5.125 3.2812 11.656-9.9063z" fill="url(#linearGradient3790)" opacity=".6"/>
<path d="m38.311 87.704-12.969 8-4 2.4688v0.125l11.594 9.8125 5.4375-3.4688v-16.875z" fill="url(#linearGradient3799)" opacity=".6"/>
</g>
<rect transform="matrix(1.0692 0 0 1.0477 4.4442 38.894)" x="2" y="-30" width="75.966" height="69.024" rx="3.957" ry="3.957" clip-path="url(#clipPath4156-4-1)" fill="url(#linearGradient4767)" opacity=".50781"/>
<g transform="translate(-18.145 -24.092)">
<circle transform="rotate(-90)" cx="-85.286" cy="86.471" r="19" color="#000000" opacity=".145"/>
<circle transform="rotate(-90)" cx="-84.286" cy="86.471" r="14" color="#000000" fill="url(#linearGradient22267-0)"/>
<path d="m86.478 70.317c-7.732 0-14 6.268-14 14s6.268 14 14 14 14-6.268 14-14-6.268-14-14-14zm0 1.875c6.6826 0 12.094 5.4111 12.094 12.094s-5.4111 12.094-12.094 12.094-12.094-5.4111-12.094-12.094 5.4111-12.094 12.094-12.094z" color="#000000" opacity=".14"/>
<path d="m68.471 84.285c0 9.9174 8.0826 18 18 18s18-8.0826 18-18c0-9.9174-8.0826-18-18-18s-18 8.0826-18 18zm4 0c0-7.7557 6.2443-14 14-14s14 6.2443 14 14-6.2443 14-14 14-14-6.2443-14-14z" color="#000000" color-rendering="auto" dominant-baseline="auto" fill="#fff" image-rendering="auto" shape-rendering="auto" solid-color="#000000" stroke="#000" stroke-opacity=".46844" stroke-width=".1" style="font-feature-settings:normal;font-variant-alternates:normal;font-variant-caps:normal;font-variant-ligatures:normal;font-variant-numeric:normal;font-variant-position:normal;isolation:auto;mix-blend-mode:normal;shape-padding:0;text-decoration-color:#000000;text-decoration-line:none;text-decoration-style:solid;text-indent:0;text-orientation:mixed;text-transform:none;white-space:normal"/>
<path d="m86.046 92.286c4.4183 0 8-3.5817 8-8h3.625l-2.875-3.6875-2.8125-3.6875-5.625 7.375h4.1875c0 2.4839-2.0161 4.5-4.5 4.5-2.4839 0-4.5-2.0161-4.5-4.5 0-2.4839 2.0161-4.5 4.5-4.5v-3.5c-4.4183 0-8 3.5817-8 8 0 4.4183 3.5817 8 8 8z" fill="#fff" stroke="#000" stroke-opacity=".46512" stroke-width=".2"/>
</g>
</g>
</g>
</svg>
