<?xml version="1.0" encoding="UTF-8"?>
<!-- Created with Inkscape (http://www.inkscape.org/) -->
<svg version="1.1" viewBox="0 0 96 96" xmlns="http://www.w3.org/2000/svg" xmlns:cc="http://creativecommons.org/ns#" xmlns:dc="http://purl.org/dc/elements/1.1/" xmlns:rdf="http://www.w3.org/1999/02/22-rdf-syntax-ns#" xmlns:xlink="http://www.w3.org/1999/xlink">
<defs>
<linearGradient id="linearGradient4071" x1="6" x2="90" y1="47" y2="47" gradientTransform="matrix(1.1071 0 0 1.1071 -4.9939 -3.6207)" gradientUnits="userSpaceOnUse">
<stop stop-color="#b0b9be" offset="0"/>
<stop stop-color="#fff" offset=".25"/>
<stop stop-color="#93a2a7" offset=".5"/>
<stop stop-color="#f9fbfb" offset=".75"/>
<stop stop-color="#b0b8be" offset="1"/>
</linearGradient>
<linearGradient id="linearGradient4129" x1="1.5" x2="94.5" y1="88.172" y2="88.172" gradientTransform="translate(.14895 .41503)" gradientUnits="userSpaceOnUse">
<stop offset="0"/>
<stop stop-opacity=".58824" offset=".1"/>
<stop stop-opacity=".58824" offset=".9"/>
<stop offset="1"/>
</linearGradient>
<radialGradient id="radialGradient7462" cx="13.948" cy="44.893" r="43.199" gradientTransform="matrix(.97513 0 0 .049191 34.048 80.582)" gradientUnits="userSpaceOnUse" xlink:href="#linearGradient4050"/>
<linearGradient id="linearGradient4050">
<stop stop-color="#fff" offset="0"/>
<stop stop-color="#fff" stop-opacity="0" offset="1"/>
</linearGradient>
<radialGradient id="radialGradient7464" cx="13.948" cy="44.893" r="43.199" gradientTransform="matrix(.88833 0 0 .049191 31.96 -90.317)" gradientUnits="userSpaceOnUse" xlink:href="#linearGradient4050"/>
<radialGradient id="radialGradient4543" cx="48" cy="-16.128" r="44.544" gradientTransform="matrix(1 0 0 .048851 -16.372 -3.8618)" gradientUnits="userSpaceOnUse" xlink:href="#linearGradient4050"/>
<linearGradient id="linearGradient4388" x1="2.5" x2="93.5" y1="54.297" y2="54.297" gradientTransform="translate(-17.652 -22.602)" gradientUnits="userSpaceOnUse" xlink:href="#linearGradient4160"/>
<linearGradient id="linearGradient4160">
<stop stop-opacity="0" offset="0"/>
<stop stop-opacity=".96471" offset=".031756"/>
<stop stop-opacity="0" offset=".094256"/>
<stop stop-opacity="0" offset=".49595"/>
<stop stop-opacity="0" offset=".90526"/>
<stop stop-opacity=".98824" offset=".96241"/>
<stop stop-opacity="0" offset="1"/>
</linearGradient>
<linearGradient id="linearGradient13490" x1="47.057" x2="48.641" y1="22.252" y2="22.252" gradientTransform="matrix(1 0 0 .99132 -17.354 9.6361)" gradientUnits="userSpaceOnUse">
<stop stop-color="#849699" offset="0"/>
<stop stop-color="#0b0d0d" stop-opacity="0" offset="1"/>
</linearGradient>
<linearGradient id="linearGradient4369" x1="2.5" x2="93.5" y1="11.141" y2="11.141" gradientTransform="translate(-17.652 -22.602)" gradientUnits="userSpaceOnUse" xlink:href="#linearGradient4160"/>
<linearGradient id="linearGradient4767-6" x1="2.7714" x2="50.528" y1="-28.642" y2="14.514" gradientUnits="userSpaceOnUse" xlink:href="#linearGradient4050"/>
<clipPath id="clipPath4156-4-1-2">
<path d="m27.046-55.695-14.214 13.321h0.06127l15.653 21.771 10.231-10.546c-0.2169-1.1522-11.311-23.67-11.732-24.546zm-17.399 16.313-14.888 14.062 21.229 17.515 10.385-10.577zm31.491 12.951-9.7413 9.7136 8.9448 12.458 7.7808-7.555zm-49.84 4.3788-13.754 12.982 26.283 13.846 0.06127-0.0617-0.12253-0.0617 9.8332-10.053-22.301-16.652zm38.015 7.4008-9.8025 9.7753 11.579 9.5594 7.6276-7.4008-8.6691-11.009zm20.187 5.674-7.3825 7.2158 6.1878 8.5418 5.8202-6.1365zm-32.195 6.3215-9.5575 9.4977 13.662 7.185 7.9339-7.6784zm23.312 2.3744-7.1068 6.9383 8.3628 6.9074 5.3608-5.674-0.06127-0.0925-0.0919 0.12335-6.4635-8.2026zm-8.7304 8.5418-7.5051 7.3392 10.354 5.4581c1.3975-1.321 5.6751-6.1229 5.8509-6.3215z" fill="#fff" opacity=".6"/>
</clipPath>
<linearGradient id="linearGradient3613" x1="48" x2="48" y1="20.221" y2="138.66" gradientUnits="userSpaceOnUse" xlink:href="#linearGradient4050"/>
<clipPath id="clipPath3613">
<rect x="6" y="6" width="84" height="84" rx="6" ry="6" fill="#fff"/>
</clipPath>
<filter id="filter3794" x="-.192" y="-.192" width="1.384" height="1.384" color-interpolation-filters="sRGB">
<feGaussianBlur stdDeviation="5.28"/>
</filter>
<linearGradient id="linearGradient3746" x1="15" x2="81" y1="48.273" y2="48.273" gradientTransform="translate(0,4)" gradientUnits="userSpaceOnUse" xlink:href="#linearGradient4050"/>
</defs>
<metadata>
<rdf:RDF>
<cc:Work rdf:about="">
<dc:format>image/svg+xml</dc:format>
<dc:type rdf:resource="http://purl.org/dc/dcmitype/StillImage"/>
<dc:title/>
<dc:date>2017</dc:date>
<dc:creator>
<cc:Agent>
<dc:title>Cristian Pozzessere "ilnanny"</dc:title>
</cc:Agent>
</dc:creator>
<dc:subject>
<rdf:Bag>
<rdf:li>Global language</rdf:li>
</rdf:Bag>
</dc:subject>
<dc:description>Playing with Inkscape on Gnu/Linux O. S.</dc:description>
<dc:contributor>
<cc:Agent>
<dc:title>In the night, alone like a dog.</dc:title>
</cc:Agent>
</dc:contributor>
<cc:license rdf:resource="http://creativecommons.org/licenses/by-sa/4.0/"/>
</cc:Work>
<cc:License rdf:about="http://creativecommons.org/licenses/by-sa/4.0/">
<cc:permits rdf:resource="http://creativecommons.org/ns#Reproduction"/>
<cc:permits rdf:resource="http://creativecommons.org/ns#Distribution"/>
<cc:requires rdf:resource="http://creativecommons.org/ns#Notice"/>
<cc:requires rdf:resource="http://creativecommons.org/ns#Attribution"/>
<cc:permits rdf:resource="http://creativecommons.org/ns#DerivativeWorks"/>
<cc:requires rdf:resource="http://creativecommons.org/ns#ShareAlike"/>
</cc:License>
</rdf:RDF>
</metadata>
<g transform="translate(0 -1026.5)">
<g transform="translate(-.14896 1026.1)">
<path d="m89.292 0.41503h-82.286c-3.7988 0-6.8571 3.0583-6.8571 6.8571v82.286c0 3.7989 3.0583 6.8571 6.8571 6.8571h82.286c3.7989 0 6.8571-3.0583 6.8571-6.8571v-82.286c0-3.7989-3.0583-6.8571-6.8571-6.8571z" opacity=".15"/>
<path d="m88.649 1.165h-81c-3.7395 0-6.75 3.0105-6.75 6.75v81c0 3.7395 3.0105 6.75 6.75 6.75h81c3.7395 0 6.75-3.0105 6.75-6.75v-81c0-3.7395-3.0105-6.75-6.75-6.75z" opacity=".15"/>
<path d="m88.006 1.915h-79.714c-3.6801 0-6.6429 2.9627-6.6429 6.6429v79.714c0 3.6801 2.9627 6.6429 6.6429 6.6429h79.714c3.6801 0 6.6429-2.9627 6.6429-6.6429v-79.714c0-3.6801-2.9627-6.6429-6.6429-6.6429z" fill="url(#linearGradient4071)"/>
<path d="m9.974 5.1445c-3.1166 0-5.668 2.5395-5.668 5.646v69.278c0 3.1065 2.5513 5.646 5.668 5.646h76.792c3.1166 0 5.668-2.5395 5.668-5.646v-69.278c0-3.1065-2.5513-5.646-5.668-5.646zm0 2.3194h76.792c1.8881 0 3.352 1.4801 3.352 3.3266v69.278c0 1.8465-1.4639 3.3266-3.352 3.3266h-76.792c-1.8881 0-3.352-1.4801-3.352-3.3266v-69.278c0-1.8465 1.4639-3.3266 3.352-3.3266z" color="#000000" fill="#241f1f" fill-opacity=".63265" style="text-decoration-line:none;text-indent:0;text-transform:none"/>
<path d="m1.649 82.259v6c0 3.6801 2.9761 6.6562 6.6562 6.6562h79.687c3.6801 0 6.6563-2.9761 6.6563-6.6562v-6c0 3.6801-2.9761 6.6562-6.6563 6.6562h-79.687c-3.6801 0-6.6562-2.9761-6.6562-6.6562z" fill="url(#linearGradient4129)" opacity=".65818"/>
<rect x="5.524" y="80.665" width="84.25" height="4.25" rx="0" ry="4.25" fill="url(#radialGradient7462)" opacity=".55"/>
<rect transform="rotate(90)" x="5.975" y="-90.234" width="76.75" height="4.25" rx="0" ry="4.25" fill="url(#radialGradient7464)" opacity=".669"/>
<g transform="matrix(.91298 0 0 .84445 20.288 23.984)">
<path d="m-11.246-7.5079c-2.1685 0-3.9062 1.7424-3.9062 3.9062v70.594c0 2.1638 1.7377 3.9062 3.9062 3.9062h83.188c2.1685 0 3.9062-1.7424 3.9062-3.9062v-70.594c0-2.1638-1.7377-3.9062-3.9062-3.9062z" fill="#ebedee"/>
<rect x="-12.916" y="-6.8257" width="89.088" height="4.352" rx="3.957" ry="3.0577" fill="url(#radialGradient4543)" opacity=".65091"/>
<path d="m-11.246-7.5079c-2.1685 0-3.9062 1.7424-3.9062 3.9062v70.594c0 2.1638 1.7377 3.9062 3.9062 3.9062h83.188c2.1685 0 3.9062-1.7424 3.9062-3.9062v-70.594c0-2.1638-1.7377-3.9062-3.9062-3.9062z" fill="url(#linearGradient4388)" opacity=".28"/>
<path d="m29.705-7.5079v78.406h42.145c2.2189 0 3.9971-1.7424 3.9971-3.9063v-70.594c0-2.1638-1.7781-3.9062-3.9971-3.9062z" fill="url(#linearGradient13490)" opacity=".567"/>
<path d="m-11.527-20.414c-2.1827 0-3.9375 1.7548-3.9375 3.9375v12c0-2.1827 1.7548-3.9375 3.9375-3.9375h83.75c2.1827 0 3.9375 1.7548 3.9375 3.9375v-12c0-2.1827-1.7548-3.9375-3.9375-3.9375z" opacity="0"/>
<path d="m-11.23-20.105c-2.1685 0-3.9259 1.7614-3.9259 3.9349v3.9658c0-2.1734 1.7574-3.9349 3.9259-3.9349h83.155c2.1685 0 3.9259 1.7614 3.9259 3.9349v-3.9658c0-2.1734-1.7574-3.9349-3.9259-3.9349z" fill="#e4e8e8" stroke="#738589" stroke-width=".99243"/>
<path d="m-11.23-12.175c-2.1685 0-3.9259 1.7614-3.9259 3.9349v3.9658c0-2.1734 1.7574-3.9349 3.9259-3.9349h83.155c2.1685 0 3.9259 1.7614 3.9259 3.9349v-3.9658c0-2.1734-1.7574-3.9349-3.9259-3.9349z" fill="#e4e8e8" stroke="#738589" stroke-width=".99243"/>
<path d="m-11.23-16.14c-2.1685 0-3.9259 1.7614-3.9259 3.9349v3.9658c0-2.1734 1.7574-3.9349 3.9259-3.9349h83.155c2.1685 0 3.9259 1.7614 3.9259 3.9349v-3.9658c0-2.1734-1.7574-3.9349-3.9259-3.9349z" fill="#e4e8e8" stroke="#738589" stroke-width=".99243"/>
<path d="m-11.246-19.914c-2.1685 0-3.9062 1.7424-3.9062 3.9062v13c0-2.1638 2.0873-4.7846 4.2558-4.7801l83.013 0.17476c2.1685 0.00457 3.7315 2.4415 3.7315 4.6053v-13c0-2.1638-1.7377-3.9062-3.9062-3.9062z" fill="url(#linearGradient4369)" opacity=".25818"/>
<g transform="matrix(.99597 0 0 1.0261 -17.29 -22.632)">
<g>
<rect x="15" y="15" width="66" height="66" rx="12" ry="12" clip-path="url(#clipPath3613)" fill="url(#linearGradient3613)" filter="url(#filter3794)" opacity=".1" stroke="#fff" stroke-linecap="round" stroke-width=".5"/>
</g>
<path d="m48 21.031c-19.097 0-34.969 12.762-34.969 28.969 0 9.8126 6.0152 18.31 14.812 23.5-0.22779 1.0474-0.61321 2.3008-1.4688 3.625-1.149 1.7784-2.9471 3.4814-6.2188 4.4062a0.98626 0.98626 0 0 0-0.03125 0c1.04e-4 -3.5e-5 -0.15635 0.06254-0.15625 0.0625 1.01e-4 -4.3e-5 -0.15635 0.06255-0.15625 0.0625 9.7e-5 -5.2e-5 -0.12509 0.09381-0.125 0.09375s-0.15634 0.09382-0.15625 0.09375c8.7e-5 -6.7e-5 -0.12508 0.09382-0.125 0.09375 8.1e-5 -7.4e-5 -0.09382 0.12508-0.09375 0.125 7.4e-5 -8.1e-5 -0.12507 0.12509-0.125 0.125s-0.09381 0.15634-0.09375 0.15625-0.0938 0.1251-0.09375 0.125c5.2e-5 -9.7e-5 -0.06254 0.15635-0.0625 0.15625 4.4e-5 -1.01e-4 -0.06254 0.15635-0.0625 0.15625 3.5e-5 -1.04e-4 -0.03128 0.15636-0.03125 0.15625 2.6e-5 -1.07e-4 -0.03127 0.15636-0.03125 0.15625 1.7e-5 -1.09e-4 -0.03126 0.15636-0.03125 0.15625 8e-6 -1.1e-4 2e-6 0.18761 0 0.1875s1.1e-5 0.15636 0 0.15625 0.03127 0.15636 0.03125 0.15625 0.03128 0.15636 0.03125 0.15625c-2.9e-5 -1.06e-4 0.06254 0.15635 0.0625 0.15625-3.8e-5 -1.03e-4 0.06255 0.15635 0.0625 0.15625-4.6e-5 -1e-4 0.06255 0.15634 0.0625 0.15625-5.5e-5 -9.5e-5 0.09381 0.15634 0.09375 0.15625-6.2e-5 -9.1e-5 0.09382 0.12508 0.09375 0.125s0.12508 0.12508 0.125 0.125 0.12508 0.09382 0.125 0.09375c-8.3e-5 -7.2e-5 0.12509 0.12506 0.125 0.125s0.12509 0.09381 0.125 0.09375c-9.4e-5 -5.7e-5 0.15635 0.06255 0.15625 0.0625-9.8e-5 -4.9e-5 0.15635 0.06254 0.15625 0.0625-1.02e-4 -4.1e-5 0.15636 0.06253 0.15625 0.0625-1.05e-4 -3.2e-5 0.15636 0.03127 0.15625 0.03125-1.08e-4 -2.3e-5 0.15636 0.03126 0.15625 0.03125a0.98626 0.98626 0 0 0 0.03125 0c9.7546 1.0601 16.452-3.3592 20.25-7.0625 2.3307 0.41039 4.728 0.6875 7.2188 0.6875 19.097 0 34.969-12.762 34.969-28.969s-15.872-28.969-34.969-28.969zm2.7812 12.938c0.79039 2.3e-5 1.2145 0.18189 1.7812 0.71875a0.98626 0.98626 0 0 0 0.03125 0 0.98626 0.98626 0 0 0 0 0.03125c0.54254 0.51126 0.68749 0.80252 0.6875 1.5-1e-5 0.7096-0.1205 1.0034-0.6875 1.5312-0.53838 0.49346-1.0139 0.68752-1.8125 0.6875-0.80026 1.7e-5 -1.2926-0.19118-1.8438-0.6875-0.56701-0.52788-0.6875-0.82167-0.6875-1.5312-5e-6 -0.7095 0.12045-1.0033 0.6875-1.5312 0.5686-0.52937 1.0519-0.71873 1.8438-0.71875zm-4.1875 12.188c1.4004 1.8e-5 2.2091 0.30555 2.75 0.75a0.98626 0.98626 0 0 0 0.03125 0.03125 0.98626 0.98626 0 0 0 0.09375 0.09375c0.625 0.5481 0.81249 0.93249 0.8125 1.9062-1.3e-5 0.19526 0.0075 0.67138-0.0625 1.3438-0.04926 0.59111-0.16629 1.1376-0.3125 1.625l-1.875 6.6562c-0.173 0.60545-0.33681 1.2578-0.46875 2-0.13266 0.7461-0.21877 1.3796-0.21875 1.9375-1.5e-5 1.1526 0.24507 2.4816 1.3125 3.3438-0.38105 0.05711-0.65868 0.1875-1.125 0.1875-1.5163 0-2.3846-0.33804-2.9688-0.84375-0.63406-0.57878-0.84375-1.0145-0.84375-1.9062-3e-6 -0.39967 0.02486-0.87902 0.09375-1.375 0.06933-0.51304 0.19431-1.0938 0.34375-1.7188h-0.03125l1.8438-6.5625a0.98626 0.98626 0 0 0 0-0.03125h0.03125a0.98626 0.98626 0 0 0 0-0.0625c0.0114-0.04369 0.02002-0.08155 0.03125-0.125 0.15396-0.59571 0.30098-1.1675 0.40625-1.7188 0.0018-0.0095-0.0018-0.02175 0-0.03125 0.13951-0.67296 0.21874-1.3184 0.21875-1.9375-7e-6 -1.1021-0.19818-2.3322-1.125-3.2188-0.06479-0.06197-0.15111-0.06987-0.21875-0.125 0.42556-0.0802 0.91404-0.21874 1.2812-0.21875z" opacity=".152"/>
<path d="m48 22c-18.225 0-33 12.088-33 27 0 9.4984 5.9998 17.843 15.062 22.656-0.34462 2.5088-1.914 8.6498-9.3438 10.75 9.6229 1.0458 16.014-3.6463 19.406-7.1875 2.5235 0.5055 5.1611 0.78125 7.875 0.78125 18.225 0 33-12.088 33-27s-14.775-27-33-27zm2.7812 9c1.2343 3.5e-5 2.2877 0.42718 3.1562 1.25 0.88379 0.82289 1.3125 1.8107 1.3125 2.9688-1.6e-5 1.1581-0.42871 2.1459-1.3125 2.9688-0.86859 0.80765-1.922 1.2188-3.1562 1.2188-1.2343 2.6e-5 -2.3037-0.4111-3.1875-1.2188-0.88382-0.82283-1.3125-1.8106-1.3125-2.9688-8e-6 -1.1581 0.42868-2.1459 1.3125-2.9688 0.8838-0.82282 1.9532-1.25 3.1875-1.25zm-4.1875 12.188c1.8133 2.3e-5 3.2122 0.45996 4.1875 1.3438 0.99046 0.86859 1.4687 2.0044 1.4688 3.4062-2e-5 0.28954-0.01757 0.79984-0.09375 1.5312-0.06096 0.73144-0.19216 1.3905-0.375 2l-1.875 6.6562c-0.15239 0.53334-0.28436 1.1268-0.40625 1.8125-0.12192 0.68572-0.18751 1.212-0.1875 1.5625-1.1e-5 0.88382 0.19755 1.4925 0.59375 1.8125 0.39618 0.32 1.0872 0.46875 2.0625 0.46875 0.45713 0 0.98344-0.06635 1.5625-0.21875 0.57903-0.16762 0.99094-0.31558 1.25-0.4375l-0.5 2.0625c-1.5086 0.59428-2.726 1.039-3.625 1.3438-0.89906 0.32-1.9364 0.46875-3.125 0.46875-1.8286 0-3.2603-0.42869-4.2812-1.3125-1.0057-0.89904-1.5-2.0348-1.5-3.4062-3e-6 -0.53333 0.0488-1.0764 0.125-1.625 0.07619-0.5638 0.17613-1.2053 0.34375-1.9062l1.875-6.6562c0.16761-0.63998 0.29958-1.2487 0.40625-1.8125 0.1219-0.57903 0.1875-1.0901 0.1875-1.5625-5e-6 -0.85332-0.18078-1.446-0.53125-1.7812-0.35048-0.33522-1.0095-0.53123-2-0.53125-0.48762 2e-5 -0.98191 0.09765-1.5 0.25-0.50286 0.1524-0.94679 0.30038-1.3125 0.4375l0.5-2.0625c1.2343-0.50284 2.4349-0.93075 3.5625-1.2812 1.1276-0.36569 2.1818-0.56248 3.1875-0.5625z" fill="#390"/>
<path d="m48 22c-18.225 0-33 12.088-33 27 0 0.20841 0.0255 0.41773 0.03125 0.625 0.88384-14.266 15.313-25.625 32.969-25.625 17.811 0 32.318 11.557 32.969 26 0.015136-0.33594 0.03125-0.66103 0.03125-1 0-14.912-14.775-27-33-27zm-1.5938 14.219c-0.07734 0.31592-0.125 0.65378-0.125 1-8e-6 1.1581 0.42868 2.1459 1.3125 2.9688 0.8838 0.80765 1.9532 1.2188 3.1875 1.2188 1.2343 2.6e-5 2.2877-0.4111 3.1562-1.2188 0.88379-0.82283 1.3125-1.8106 1.3125-2.9688-5e-6 -0.34622-0.04766-0.68408-0.125-1-0.18135 0.74083-0.56793 1.3919-1.1875 1.9688-0.86859 0.80765-1.922 1.2188-3.1562 1.2188-1.2343 2.6e-5 -2.3037-0.4111-3.1875-1.2188-0.61959-0.57683-1.0062-1.2279-1.1875-1.9688zm-4.25 10.188c-0.31552 1.3e-5 -0.64301 0.05487-0.96875 0.125-0.44524 0.16533-0.88731 0.31405-1.3438 0.5l-0.5 2.0625c0.36571-0.13712 0.80964-0.2851 1.3125-0.4375 0.51809-0.15235 1.0124-0.24998 1.5-0.25 0.99047 2e-5 1.6495 0.19603 2 0.53125 0.19739 0.18882 0.34975 0.4598 0.4375 0.8125 0.05642-0.36125 0.09375-0.71382 0.09375-1.0312-5e-6 -0.85332-0.18078-1.446-0.53125-1.7812-0.35048-0.33522-1.0095-0.53123-2-0.53125zm10.031 2.75c-0.01103 0.13112-0.01567 0.16288-0.03125 0.3125-0.06096 0.73144-0.19216 1.3905-0.375 2l-1.875 6.6562c-0.15239 0.53334-0.28436 1.1268-0.40625 1.8125-0.12192 0.68572-0.18751 1.212-0.1875 1.5625-5e-6 0.37367 0.05429 0.69446 0.125 0.96875 0.02578-0.17278 0.02686-0.33082 0.0625-0.53125 0.12189-0.68571 0.25386-1.2792 0.40625-1.8125l1.875-6.6562c0.18284-0.60951 0.31404-1.2686 0.375-2 0.07618-0.73141 0.09373-1.2417 0.09375-1.5312-3e-6 -0.27346-0.02585-0.52805-0.0625-0.78125zm-10.375 13.906c-0.04575 0.40857-0.0625 0.81934-0.0625 1.2188-3e-6 1.3714 0.49428 2.5072 1.5 3.4062 1.0209 0.88381 2.4527 1.3125 4.2812 1.3125 1.1886 0 2.2259-0.14874 3.125-0.46875 0.89903-0.30476 2.1164-0.74947 3.625-1.3438l0.5-2.0625c-0.25906 0.12192-0.67097 0.26988-1.25 0.4375-0.18875 0.04968-0.35428 0.06168-0.53125 0.09375-0.84103 0.31703-1.762 0.67779-2.3438 0.875-0.89906 0.32-1.9364 0.46875-3.125 0.46875-1.8286 0-3.2603-0.42869-4.2812-1.3125-0.80328-0.71808-1.278-1.6054-1.4375-2.625zm-12.125 10.375c-0.78888 2.9258-2.9421 7.2652-8.9688 8.9688 1.4386 0.15635 2.7988 0.17086 4.0938 0.09375 3.9509-2.7354 4.9814-6.8885 5.25-8.8438-0.1292-0.06861-0.24706-0.14871-0.375-0.21875z" fill="url(#linearGradient3746)"/>
</g>
<rect transform="matrix(1.1712 0 0 1.2407 -16.712 17.252)" x="2" y="-30" width="75.966" height="69.024" rx="3.957" ry="3.957" clip-path="url(#clipPath4156-4-1-2)" fill="url(#linearGradient4767-6)" opacity=".50781"/>
</g>
</g>
</g>
</svg>
