<?xml version="1.0" encoding="UTF-8"?>
<!-- Created with Inkscape (http://www.inkscape.org/) -->
<svg version="1.1" viewBox="0 0 96 96" xmlns="http://www.w3.org/2000/svg" xmlns:cc="http://creativecommons.org/ns#" xmlns:dc="http://purl.org/dc/elements/1.1/" xmlns:rdf="http://www.w3.org/1999/02/22-rdf-syntax-ns#" xmlns:xlink="http://www.w3.org/1999/xlink">
<defs>
<linearGradient id="ButtonShadow-1" x1="45.448" x2="45.448" y1="92.54" y2="7.0165" gradientTransform="scale(1.0059 .99417)" gradientUnits="userSpaceOnUse">
<stop offset="0"/>
<stop stop-opacity=".58824" offset="1"/>
</linearGradient>
<linearGradient id="linearGradient3737-00">
<stop stop-color="#fff" offset="0"/>
<stop stop-color="#fff" stop-opacity="0" offset="1"/>
</linearGradient>
<linearGradient id="linearGradient4201-6" x1="76.758" x2="76.758" y1="27.41" y2="39.188" gradientTransform="matrix(.9873 0 0 1 -27.058 16.325)" gradientUnits="userSpaceOnUse" xlink:href="#linearGradient3737-00"/>
<linearGradient id="linearGradient3716-7" x1="29.3" x2="29.3" y1="52.948" y2="73.401" gradientTransform="matrix(.67646 0 0 .67646 -.40573 24.946)" gradientUnits="userSpaceOnUse" xlink:href="#linearGradient3737-00"/>
<linearGradient id="linearGradient3372-8" x1="46.77" x2="46.77" y1="78.496" y2="91.666" gradientTransform="translate(12 -64)" gradientUnits="userSpaceOnUse" xlink:href="#linearGradient3737-00"/>
<linearGradient id="linearGradient14719" x1="75.918" x2="75.918" y1="63.139" y2="76.55" gradientTransform="translate(-5 -53)" gradientUnits="userSpaceOnUse" xlink:href="#linearGradient3737-00"/>
<linearGradient id="linearGradient14727" x1="29.3" x2="29.3" y1="52.948" y2="73.401" gradientTransform="matrix(-1 0 0 1 100.25 -12)" gradientUnits="userSpaceOnUse" xlink:href="#linearGradient3737-00"/>
<linearGradient id="linearGradient14735" x1="38.535" x2="38.535" y1="8.6325" y2="44.721" gradientTransform="translate(-.97701 -1.023)" gradientUnits="userSpaceOnUse" xlink:href="#linearGradient3737-00"/>
<linearGradient id="linearGradient14743" x1="46.77" x2="46.77" y1="78.496" y2="91.666" gradientTransform="translate(20 -28)" gradientUnits="userSpaceOnUse" xlink:href="#linearGradient3737-00"/>
<linearGradient id="linearGradient14751" x1="35.838" x2="35.838" y1="56.924" y2="86.111" gradientTransform="translate(-13,-6)" gradientUnits="userSpaceOnUse" xlink:href="#linearGradient3737-00"/>
<linearGradient id="linearGradient14759" x1="45.967" x2="45.967" y1="18.874" y2="48.086" gradientTransform="translate(-15.723 2.2332)" gradientUnits="userSpaceOnUse" xlink:href="#linearGradient3737-00"/>
<linearGradient id="linearGradient14767" x1="76.758" x2="76.758" y1="27.41" y2="56.865" gradientTransform="translate(13.348 -4.6749)" gradientUnits="userSpaceOnUse" xlink:href="#linearGradient3737-00"/>
<linearGradient id="linearGradient14775" x1="39.819" x2="45.634" y1="13.056" y2="33.077" gradientTransform="matrix(-.96032 .27889 .27889 .96032 101.44 44.295)" gradientUnits="userSpaceOnUse" xlink:href="#linearGradient3737-00"/>
<linearGradient id="linearGradient14783" x1="75.918" x2="75.918" y1="63.139" y2="76.55" gradientTransform="translate(-55 -23)" gradientUnits="userSpaceOnUse" xlink:href="#linearGradient3737-00"/>
<linearGradient id="linearGradient14799" x1="76.758" x2="76.758" y1="27.41" y2="56.865" gradientTransform="matrix(-1 0 0 1 88.942 -13.675)" gradientUnits="userSpaceOnUse" xlink:href="#linearGradient3737-00"/>
<linearGradient id="linearGradient14807" x1="46.77" x2="46.77" y1="78.496" y2="91.666" gradientTransform="translate(46 -68)" gradientUnits="userSpaceOnUse" xlink:href="#linearGradient3737-00"/>
<linearGradient id="linearGradient14815" x1="76.758" x2="76.758" y1="27.41" y2="39.188" gradientTransform="translate(12.348 46.325)" gradientUnits="userSpaceOnUse" xlink:href="#linearGradient3737-00"/>
<linearGradient id="linearGradient4071" x1="6" x2="90" y1="47" y2="47" gradientTransform="matrix(1.1071 0 0 1.1071 -5.1429 -4.0357)" gradientUnits="userSpaceOnUse">
<stop stop-color="#b2babc" offset="0"/>
<stop stop-color="#fff" offset=".25"/>
<stop stop-color="#96a1a4" offset=".5"/>
<stop stop-color="#fbf9f9" offset=".75"/>
<stop stop-color="#b2b9bc" offset="1"/>
</linearGradient>
<linearGradient id="linearGradient4129" x1="1.5" x2="94.5" y1="88.172" y2="88.172" gradientTransform="translate(-2.95e-6,2.6e-5)" gradientUnits="userSpaceOnUse">
<stop offset="0"/>
<stop stop-opacity=".58824" offset=".1"/>
<stop stop-opacity=".58824" offset=".9"/>
<stop offset="1"/>
</linearGradient>
<radialGradient id="radialGradient7462" cx="13.948" cy="44.893" r="43.199" gradientTransform="matrix(.97513 0 0 .049191 33.899 80.167)" gradientUnits="userSpaceOnUse" xlink:href="#linearGradient3737-00"/>
<radialGradient id="radialGradient7464" cx="13.948" cy="44.893" r="43.199" gradientTransform="matrix(.88833 0 0 .049191 31.545 -90.168)" gradientUnits="userSpaceOnUse" xlink:href="#linearGradient3737-00"/>
<linearGradient id="linearGradient4767" x1="2.7714" x2="50.528" y1="-28.642" y2="14.514" gradientUnits="userSpaceOnUse" xlink:href="#linearGradient3737-00"/>
<clipPath id="clipPath4156-4-1">
<path d="m27.046-55.695-14.214 13.321h0.06127l15.653 21.771 10.231-10.546c-0.2169-1.1522-11.311-23.67-11.732-24.546zm-17.399 16.313-14.888 14.062 21.229 17.515 10.385-10.577zm31.491 12.951-9.7413 9.7136 8.9448 12.458 7.7808-7.555zm-49.84 4.3788-13.754 12.982 26.283 13.846 0.06127-0.0617-0.12253-0.0617 9.8332-10.053-22.301-16.652zm38.015 7.4008-9.8025 9.7753 11.579 9.5594 7.6276-7.4008-8.6691-11.009zm20.187 5.674-7.3825 7.2158 6.1878 8.5418 5.8202-6.1365zm-32.195 6.3215-9.5575 9.4977 13.662 7.185 7.9339-7.6784zm23.312 2.3744-7.1068 6.9383 8.3628 6.9074 5.3608-5.674-0.06127-0.0925-0.0919 0.12335-6.4635-8.2026zm-8.7304 8.5418-7.5051 7.3392 10.354 5.4581c1.3975-1.321 5.6751-6.1229 5.8509-6.3215z" fill="#fff" opacity=".6"/>
</clipPath>
<filter id="filter3174-40" color-interpolation-filters="sRGB">
<feGaussianBlur stdDeviation="1.71"/>
</filter>
<linearGradient id="linearGradient3613-6" x1="48" x2="48" y1="20.221" y2="138.66" gradientUnits="userSpaceOnUse" xlink:href="#linearGradient3737-00"/>
<clipPath id="clipPath4355-01-6">
<rect x="6" y="6" width="84" height="80" rx="6" ry="6" fill="#fff"/>
</clipPath>
<filter id="filter3794-54" x="-.192" y="-.192" width="1.384" height="1.384" color-interpolation-filters="sRGB">
<feGaussianBlur stdDeviation="5.28"/>
</filter>
<filter id="filter3174-025" color-interpolation-filters="sRGB">
<feGaussianBlur stdDeviation="1.71"/>
</filter>
<clipPath id="clipPath4355-73-6">
<rect x="6" y="6" width="84" height="80" rx="6" ry="6" fill="#fff"/>
</clipPath>
<filter id="filter3794-53" x="-.192" y="-.192" width="1.384" height="1.384" color-interpolation-filters="sRGB">
<feGaussianBlur stdDeviation="5.28"/>
</filter>
<filter id="filter3174-47" color-interpolation-filters="sRGB">
<feGaussianBlur stdDeviation="1.71"/>
</filter>
<clipPath id="clipPath4355-2-9">
<rect x="6" y="6" width="84" height="80" rx="6" ry="6" fill="#fff"/>
</clipPath>
<filter id="filter3794-95" x="-.192" y="-.192" width="1.384" height="1.384" color-interpolation-filters="sRGB">
<feGaussianBlur stdDeviation="5.28"/>
</filter>
<filter id="filter3174-08" color-interpolation-filters="sRGB">
<feGaussianBlur stdDeviation="1.71"/>
</filter>
<clipPath id="clipPath4355-889-3">
<rect x="6" y="6" width="84" height="80" rx="6" ry="6" fill="#fff"/>
</clipPath>
<filter id="filter3794-57" x="-.192" y="-.192" width="1.384" height="1.384" color-interpolation-filters="sRGB">
<feGaussianBlur stdDeviation="5.28"/>
</filter>
<clipPath id="clipPath4076-2-5">
<rect x="6" y="6" width="84" height="84" rx="6" ry="6" fill="#f0f"/>
</clipPath>
<linearGradient id="linearGradient3755" x1="56.658" x2="56.658" y1="51.02" y2="23.566" gradientUnits="userSpaceOnUse">
<stop stop-color="#d00000" offset="0"/>
<stop stop-color="#ff3c22" offset="1"/>
</linearGradient>
<linearGradient id="linearGradient1767" x1="45.448" x2="45.448" y1="92.54" y2="7.0165" gradientTransform="scale(1.0059 .99417)" gradientUnits="userSpaceOnUse" xlink:href="#ButtonShadow-1"/>
</defs>
<metadata>
<rdf:RDF>
<cc:Work rdf:about="">
<dc:format>image/svg+xml</dc:format>
<dc:type rdf:resource="http://purl.org/dc/dcmitype/StillImage"/>
<dc:title/>
</cc:Work>
</rdf:RDF>
</metadata>
<path d="m89.143 2.6e-5h-82.286c-3.7988 0-6.8571 3.0583-6.8571 6.8571v82.286c0 3.7989 3.0583 6.8571 6.8571 6.8571h82.286c3.7989 0 6.8571-3.0583 6.8571-6.8571v-82.286c0-3.7989-3.0583-6.8571-6.8571-6.8571z" opacity=".15"/>
<path d="m88.5 0.75003h-81c-3.7395 0-6.75 3.0105-6.75 6.75v81c0 3.7395 3.0105 6.75 6.75 6.75h81c3.7395 0 6.75-3.0105 6.75-6.75v-81c0-3.7395-3.0105-6.75-6.75-6.75z" opacity=".15"/>
<path d="m87.857 1.5h-79.714c-3.6801 0-6.6429 2.9627-6.6429 6.6429v79.714c0 3.6801 2.9627 6.6429 6.6429 6.6429h79.714c3.6801 0 6.6429-2.9627 6.6429-6.6429v-79.714c0-3.6801-2.9627-6.6429-6.6429-6.6429z" fill="url(#linearGradient4071)"/>
<path d="m11.241 6.3872c-2.8565 0-5.1241 2.2884-5.1241 5.171v68.58c1.0972 1.6845 2.9688 2.8117 5.1241 2.8117h73.787c2.1553 0 4.0269-1.1272 5.1241-2.8117v-68.58c0-2.8826-2.2676-5.171-5.1241-5.171z" fill="#4f7699" opacity=".77865"/>
<g transform="translate(81.063 -158.66)">
<g display="none">
<rect x="5" y="7" width="86" height="85" rx="6" ry="6" fill="url(#linearGradient1767)" filter="url(#filter3174-40)" opacity=".9"/>
<rect x="15" y="15" width="66" height="62" rx="12" ry="12" clip-path="url(#clipPath4355-01-6)" fill="url(#linearGradient3613-6)" filter="url(#filter3794-54)" opacity=".1" stroke="#fff" stroke-linecap="round" stroke-width=".5"/>
</g>
<g transform="translate(-19.356 -131.81)">
<g display="none">
<rect x="5" y="7" width="86" height="85" rx="6" ry="6" fill="url(#linearGradient1767)" filter="url(#filter3174-025)" opacity=".9"/>
<rect x="15" y="15" width="66" height="62" rx="12" ry="12" clip-path="url(#clipPath4355-73-6)" fill="url(#linearGradient3613-6)" filter="url(#filter3794-53)" opacity=".1" stroke="#fff" stroke-linecap="round" stroke-width=".5"/>
</g>
<g transform="translate(58.44 170.89)">
<g display="none">
<rect x="5" y="7" width="86" height="85" rx="6" ry="6" fill="url(#linearGradient1767)" filter="url(#filter3174-47)" opacity=".9"/>
<rect x="15" y="15" width="66" height="62" rx="12" ry="12" clip-path="url(#clipPath4355-2-9)" fill="url(#linearGradient3613-6)" filter="url(#filter3794-95)" opacity=".1" stroke="#fff" stroke-linecap="round" stroke-width=".5"/>
</g>
<g transform="translate(285.93 -186.16)">
<g display="none">
<rect x="5" y="7" width="86" height="85" rx="6" ry="6" fill="url(#linearGradient1767)" filter="url(#filter3174-08)" opacity=".9"/>
<rect x="15" y="15" width="66" height="62" rx="12" ry="12" clip-path="url(#clipPath4355-889-3)" fill="url(#linearGradient3613-6)" filter="url(#filter3794-57)" opacity=".1" stroke="#fff" stroke-linecap="round" stroke-width=".5"/>
</g>
<g transform="translate(-406.08 303.58)">
<g clip-path="url(#clipPath4076-2-5)">
<path d="m72.938 9.6563c-3.5005 0-6.464 2.1862-7.625 5.2812-2.9227 0.05208-5.2812 2.4399-5.2812 5.375 0 2.9677 2.4073 5.375 5.375 5.375 1.1753 0 2.2405-0.3911 3.125-1.0312 1.2736 0.82112 2.7782 1.3125 4.4062 1.3125 0.41217 0 0.82299-0.03481 1.2188-0.09375 0.4608 0.55836 1.157 0.9375 1.9375 0.9375 1.11 0 2.0426-0.72039 2.375-1.7188 0.573 0.1721 1.1834 0.28125 1.8125 0.28125 3.4688 0 6.2812-2.8125 6.2812-6.2812 0-2.9051-1.9776-5.3448-4.6562-6.0625 0.02473-0.15323 0.0625-0.30854 0.0625-0.46875 0-1.6188-1.3187-2.9062-2.9375-2.9062-0.86619 0-1.6509 0.37137-2.1875 0.96875-1.1569-0.62848-2.4971-0.96875-3.9062-0.96875z" color="#000000" fill="url(#linearGradient14719)" opacity=".2"/>
<path d="m72.812 35.156c2.1969 0 4 1.7719 4 3.9688 0 0.74779-0.2349 1.4337-0.59375 2.0312 0.39647 0.46247 0.79097 0.9255 1.125 1.4375 0.68153-0.13582 1.4015-0.1875 2.125-0.1875 2.3423 0 4.4861 0.73926 6.2188 2 1.1746-2.4369 3.5287-4.0938 6.25-4.0938 3.8928 0 7.0625 3.3927 7.0625 7.5938 0 1.9117-0.67101 3.6637-1.75 5 1.4288 1.6503 2.3125 3.7998 2.3125 6.125 0 5.2417-4.3854 9.4688-9.7812 9.4688-1.8794 0-3.6351-0.51283-5.125-1.4062-1.1591 1.3147-2.6697 2.3513-4.375 2.9062-2.5789 2.6941-6.226 4.375-10.25 4.375-4.2967 0-8.152-1.917-10.75-4.9375-1.905-0.36612-3.6277-1.2715-5.0312-2.5-0.15556 0.01128-0.31031 0.03125-0.46875 0.03125-2.1099 0-3.9859-1.0224-5.1562-2.5938-0.34661 0.04367-0.70314 0.09375-1.0625 0.09375-4.3553 0-7.875-3.3208-7.875-7.4062 0-4.0855 3.5197-7.4062 7.875-7.4062 0.08406 0 0.16657 0.0288 0.25 0.03125 0.13822-2.2711 2.0844-4.0625 4.5-4.0625 0.05453 0 0.10219 0.02943 0.15625 0.03125 1.8914-5.4662 7.0468-9.375 13.156-9.375 1.3663 0 2.6895 0.19651 3.9375 0.5625 0.71942-1.026 1.9018-1.6875 3.25-1.6875z" color="#000000" fill="url(#linearGradient14727)" opacity=".5"/>
<path d="m51.585 6.9145c-1.4261 0-2.5938 1.1364-2.5938 2.5625 0 0.94222 0.49623 1.7678 1.25 2.2188-0.42979 0.62326-0.75196 1.3181-0.96875 2.0625-0.78008-0.26481-1.587-0.45761-2.4375-0.53125 0.02776-0.15383 0.0625-0.30692 0.0625-0.46875 0-1.4646-1.1917-2.6562-2.6562-2.6562-1.0731 0-1.9888 0.64566-2.4062 1.5625-1.0616-1.0864-2.5256-1.7778-4.1562-1.8125 0-1.3104-1.0646-2.375-2.375-2.375-1.2339 0-2.2293 0.95203-2.3438 2.1562-0.37719-0.13609-0.79464-0.21875-1.2188-0.21875-1.9656 0-3.5625 1.5969-3.5625 3.5625 0 0.06439 0.02787 0.12395 0.03125 0.1875-0.60789-0.07841-1.2167-0.125-1.8438-0.125-1.6687 0-3.2477 0.28484-4.75 0.78125-1.1385-1.0802-2.6817-1.75-4.375-1.75-3.5073 0-6.3438 2.8364-6.3438 6.3438 0 0.5261 0.06691 1.0424 0.1875 1.5312-2.156 0.28208-3.8125 2.1108-3.8125 4.3438 0 0.43842 0.06804 0.85044 0.1875 1.25-0.21782 0.19014-0.4268 0.38341-0.625 0.59375-0.87625-0.74992-2.0137-1.2188-3.2812-1.2188-2.7365 0-4.9375 2.1291-4.9375 4.75 0 2.6209 2.201 4.75 4.9375 4.75 0.4111 0 0.80555-0.06587 1.1875-0.15625 0.96074 3.7711 4.3659 6.5625 8.4375 6.5625 1.2797 0 2.4989-0.28622 3.5938-0.78125 2.6219 2.1439 5.9427 3.4375 9.5938 3.4375 4.9332 0 9.314-2.3606 12.094-6 0.73405 0.43 1.5878 0.6875 2.5 0.6875 2.4273 0 4.4496-1.727 4.875-4.0312 0.03081 2.67e-4 0.06288 0 0.09375 0 3.6133 0 6.7751-1.8405 8.6562-4.625 1.2675 1.3 3.0409 2.0938 5 2.0938 3.5372 0 6.4807-2.6191 6.9375-6.0312 0.4459 0.10707 0.89626 0.1875 1.375 0.1875 3.2761 0 5.9375-2.6614 5.9375-5.9375 0-3.2761-2.6614-5.9375-5.9375-5.9375-0.34246 0-0.67439 0.03796-1 0.09375-0.49243-0.49025-1.1345-0.78125-1.8438-0.78125-0.73343 0-1.4081 0.32335-1.9062 0.84375-0.77547-3.1324-3.5965-5.4687-6.9688-5.4687-0.73385 0-1.4269 0.13939-2.0938 0.34375-0.26558-1.1435-1.2757-2-2.5-2z" color="#000000" fill="url(#linearGradient14735)" opacity=".3"/>
<path d="m64.094 50.5c-1.259 0-2.334 0.69184-2.9062 1.7188-1.9182 0.13278-3.6115 1.0249-4.7812 2.4062-0.53405-0.72001-1.3784-1.1875-2.3438-1.1875-1.6188 0-2.9375 1.3187-2.9375 2.9375 0 0.44432 0.10432 0.84141 0.28125 1.2188-1.5885 0.35705-2.7812 1.7412-2.7812 3.4375 0 1.9656 1.5656 3.5625 3.5312 3.5625 1.5444 0 2.8512-0.99995 3.3438-2.375 1.1421 2.2412 3.4683 3.7812 6.1562 3.7812 1.0952 0 2.1424-0.26513 3.0625-0.71875 0.57196 0.52723 1.3483 0.84375 2.1875 0.84375 1.6569 0 2.9848-1.2636 3.1562-2.875 0.30913 0.04735 0.61513 0.09375 0.9375 0.09375 1.5171 0 2.9214-0.56524 4-1.4688 0.71605 0.81008 1.7713 1.3125 2.9375 1.3125 2.1584 0 3.9062-1.7479 3.9062-3.9062 0-2.1584-1.7479-3.9062-3.9062-3.9062-0.31601 0-0.64322 0.0542-0.9375 0.125-0.71569-2.64-3.1335-4.5938-6-4.5938-1.5007 0-2.8639 0.55146-3.9375 1.4375-0.55212-1.0915-1.662-1.8438-2.9688-1.8438z" color="#000000" fill="url(#linearGradient14743)" opacity=".3"/>
<path d="m17.5 47.312c-0.95045 0-1.8285 0.30559-2.5312 0.8125-0.58004-0.08942-1.1762-0.15625-1.7812-0.15625-2.6437 0-5.0504 0.91554-7 2.4062-0.2252-0.03559-0.45167-0.0625-0.6875-0.0625-2.3125 0-4.1875 1.7719-4.1875 3.9688 0 0.82384 0.26727 1.5839 0.71875 2.2188-0.268 0.97769-0.40625 1.9997-0.40625 3.0625 0 1.0735 0.13301 2.1073 0.40625 3.0938-0.61992-0.27902-1.3073-0.4375-2.0312-0.4375-2.7365 0-4.9375 2.201-4.9375 4.9375 0 2.7365 2.201 4.9688 4.9375 4.9688 0.36612 0 0.719-0.04965 1.0625-0.125-6.43e-4 0.04129 0 0.08355 0 0.125 0 4.3167 3.4958 7.8125 7.8125 7.8125 2.786 0 5.2097-1.4621 6.5938-3.6562 2.0411 1.841 4.7536 2.9688 7.7188 2.9688 4.015 0 7.533-2.072 9.5938-5.1875 1.2942 0.97115 2.8824 1.5625 4.625 1.5625 2.725 0 5.1192-1.4353 6.5-3.5625 0.69317 0.55616 1.5421 0.90625 2.5 0.90625 1.3093 0 2.4789-0.6295 3.2188-1.5938 0.32267 0.20323 0.71549 0.34375 1.125 0.34375 1.1563 0 2.0938-0.93749 2.0938-2.0938s-0.93749-2.0938-2.0938-2.0938c-0.18067 0-0.36401 0.01947-0.53125 0.0625-0.50733-1.456-1.8198-2.5264-3.4062-2.6875-0.08623-1.3481-1.1927-2.4062-2.5625-2.4062-0.3812 0-0.73681 0.07047-1.0625 0.21875-1.4183-1.5835-3.4881-2.5938-5.7812-2.5938-1.0245 0-1.9799 0.20126-2.875 0.5625-0.22426-2.3734-2.2241-4.25-4.6562-4.25-0.28018 0-0.54588 0.04651-0.8125 0.09375 0.03207-0.21766 0.0625-0.42967 0.0625-0.65625 0-2.5052-2.0573-4.5312-4.5625-4.5312-0.93946 0-1.8073 0.2609-2.5312 0.75-0.12466-0.14758-0.24323-0.29637-0.375-0.4375 0.01212-0.12327 0.03125-0.24872 0.03125-0.375 0-2.1969-1.875-3.9688-4.1875-3.9688z" color="#000000" fill="url(#linearGradient14751)" opacity=".5"/>
<path d="m34.09 20.889c-1.7951 0-3.2871 1.3348-3.5312 3.0625-0.99024 0.39781-1.8962 0.90849-2.7188 1.5625-0.48316-0.50848-1.1494-0.84375-1.9062-0.84375-1.4646 0-2.6562 1.1917-2.6562 2.6562 0 0.01073-1.27e-4 0.02055 0 0.03125-1.0357 0.06809-2.0271 0.26679-2.9688 0.59375-0.55027-0.63705-1.3734-1.0312-2.2812-1.0312-1.6368 0-2.9673 1.3085-3 2.9375-0.04347-0.0022-0.08097-0.03125-0.125-0.03125-1.2037 0-2.2233 0.86986-2.4688 2-2.4536 0.16605-4.5626 1.5198-5.7812 3.5-0.4926-0.20835-1.0253-0.3125-1.5938-0.3125-2.274 0-4.125 1.851-4.125 4.125s1.851 4.0938 4.125 4.0938c0.53425 0 1.0316-0.09607 1.5-0.28125 1.2861 2.1833 3.6578 3.625 6.375 3.625 0.87777 0 1.7188-0.15691 2.5-0.4375 2.0858 2.4103 5.156 3.9375 8.5938 3.9375 3.5742 0 6.7584-1.6406 8.8438-4.2188 1.2151 1.3833 2.9829 2.2812 4.9688 2.2812 1.5447 0 2.9666-0.55175 4.0938-1.4375 1.0575 0.54918 2.2573 0.875 3.5312 0.875 1.5489 0 2.9813-0.46094 4.1875-1.25 0.49805 0.25713 1.0571 0.40625 1.6562 0.40625 1.7433 0 3.213-1.236 3.5625-2.875 0.23611 1.5401 1.5501 2.7188 3.1562 2.7188 1.7729 0 3.2188-1.4146 3.2188-3.1875 0-1.6151-1.1974-2.9623-2.75-3.1875 0.04583-0.25866 0.09375-0.54069 0.09375-0.8125 0-2.5052-2.026-4.5312-4.5312-4.5312-0.84007 0-1.6378 0.25822-2.3125 0.65625-0.22397-0.31986-0.4498-0.65593-0.71875-0.9375 0.10594-0.25048 0.15625-0.52343 0.15625-0.8125 0-1.1563-0.93749-2.0938-2.0938-2.0938-0.09318 0-0.19129 0.01945-0.28125 0.03125-0.01718-1.7967-1.4805-3.25-3.2812-3.25-0.47744 0-0.93457 0.09784-1.3438 0.28125-1.4251-2.523-3.8275-4.4148-6.6875-5.1875-0.40134-1.5259-1.7544-2.6562-3.4062-2.6562z" color="#000000" fill="url(#linearGradient14759)" opacity=".5"/>
<path d="m83.629 18.763c-3.0264 0.30734-5.375 2.8925-5.375 6 0 0.50225 0.07128 0.97124 0.1875 1.4375-1.3556-0.82923-2.9508-1.3125-4.6562-1.3125-0.69713 0-1.3801 0.09893-2.0312 0.25-0.47506-1.3625-1.7568-2.3438-3.2812-2.3438-1.9271 0-3.4688 1.5729-3.4688 3.5 0 0.92305 0.35225 1.751 0.9375 2.375-0.19649-0.02238-0.39127 0-0.59375 0-2.8907 0-5.25 2.3281-5.25 5.2188s2.3593 5.25 5.25 5.25c0.40398 0 0.77855-0.06962 1.1562-0.15625 1.0117 1.427 2.4356 2.5193 4.0938 3.1562-0.0042 0.11543-0.03125 0.2273-0.03125 0.34375 0 5.2417 4.2583 9.4688 9.5 9.4688 1.5304 0 2.9698-0.3566 4.25-1 2.6246 1.7834 5.8064 2.8438 9.2188 2.8438 6.8387 0 12.693-4.2051 15.156-10.156 4.7852-0.59661 8.5-4.647 8.5-9.5938 0-5.3573-4.3302-9.7188-9.6875-9.7188-1.1595 0-2.2818 0.22061-3.3125 0.59375-0.85422-0.73119-1.7894-1.3932-2.7812-1.9375 0.0827-0.23333 0.15625-0.48833 0.15625-0.75 0-1.2333-1.0166-2.2188-2.25-2.2188-0.94828 0-1.7699 0.57244-2.0938 1.4062-1.0568-0.24278-2.1573-0.40621-3.2813-0.4375-0.31043-1.2856-1.4628-2.2188-2.8438-2.2188-1.1744 0-2.1886 0.6901-2.6562 1.6875-1.0788-1.0542-2.5545-1.6875-4.1875-1.6875-0.20716 0-0.42324-0.02049-0.625 0z" color="#000000" fill="url(#linearGradient14767)" opacity=".5"/>
<path d="m53.176 66.577c1.3695-0.39771 2.8078 0.36799 3.2055 1.7375 0.26277 0.90483 0.01648 1.8361-0.58162 2.4793 0.58655 0.47866 1.0897 1.0561 1.5055 1.7105 0.67528-0.47186 1.3964-0.88205 2.1926-1.19-0.06956-0.13999-0.14562-0.27731-0.19075-0.43272-0.40846-1.4065 0.40358-2.8832 1.8101-3.2917 1.0305-0.29927 2.09 0.06539 2.7465 0.82944 0.71646-1.3394 1.9296-2.4116 3.4859-2.8997-0.36546-1.2584 0.35998-2.5777 1.6184-2.9431 1.1849-0.34412 2.4063 0.29254 2.8521 1.4171 0.32427-0.23589 0.70211-0.43169 1.1094-0.54996 1.8877-0.54819 3.8665 0.53996 4.4147 2.4276 0.01796 0.06184 0.0078 0.1268 0.02228 0.18878 0.5619-0.24483 1.1335-0.45935 1.7357-0.63424 1.6025-0.46537 3.1983-0.63221 4.7794-0.57446 0.79208-1.3548 2.0873-2.4285 3.7134-2.9007 3.3682-0.97815 6.8831 0.9547 7.8612 4.3229 0.14672 0.50522 0.22646 1.0197 0.24699 1.5228 2.1491-0.3304 4.2499 0.9638 4.8726 3.1082 0.12227 0.42102 0.17183 0.83567 0.16855 1.2527 0.2622 0.12185 0.51679 0.24917 0.76579 0.39589 0.63234-0.96454 1.5939-1.732 2.8112-2.0855 2.6279-0.76317 5.3354 0.66766 6.0663 3.1845s-0.78897 5.1754-3.4169 5.9385c-0.39479 0.11465-0.79196 0.1614-1.184 0.18113 0.12908 3.8894-2.3625 7.5197-6.2725 8.6552-1.2289 0.3569-2.4795 0.42203-3.669 0.252-1.92 2.7901-4.7482 4.9584-8.2544 5.9767-4.7374 1.3758-9.6028 0.33061-13.287-2.3892-0.58501 0.61766-1.3331 1.103-2.2091 1.3574-2.331 0.67695-4.7547-0.41753-5.8058-2.5117-0.02951 0.0088-0.06039 0.01754-0.09003 0.02614-3.47 1.0077-7.0196 0.12201-9.6027-2.0274-0.85466 1.6019-2.3363 2.8588-4.2177 3.4051-3.3969 0.98648-6.954-0.7078-8.3443-3.8572-0.39834 0.22718-0.80841 0.43002-1.2682 0.56353-3.1461 0.91365-6.4442-0.89994-7.3578-4.046-0.91365-3.1461 0.89994-6.4442 4.046-7.3578 0.32887-0.09551 0.65822-0.15163 0.98647-0.18886 0.33617-0.60813 0.87158-1.0666 1.5527-1.2644 0.70433-0.20454 1.4424-0.08217 2.0659 0.27864-0.12887-3.2244 1.9287-6.2548 5.1671-7.1953 0.70473-0.20466 1.4091-0.26407 2.1065-0.25381-0.06387-1.1722 0.66728-2.2764 1.843-2.6179z" color="#000000" fill="url(#linearGradient14775)" opacity=".2"/>
<path d="m22.938 39.656c-3.5005 0-6.464 2.1862-7.625 5.2812-2.9227 0.05208-5.2812 2.4399-5.2812 5.375 0 2.9677 2.4073 5.375 5.375 5.375 1.1753 0 2.2405-0.3911 3.125-1.0312 1.2736 0.82112 2.7782 1.3125 4.4062 1.3125 0.41217 0 0.82299-0.03481 1.2188-0.09375 0.4608 0.55836 1.157 0.9375 1.9375 0.9375 1.11 0 2.0426-0.72039 2.375-1.7188 0.573 0.1721 1.1834 0.28125 1.8125 0.28125 3.4688 0 6.2812-2.8125 6.2812-6.2812 0-2.9051-1.9776-5.3448-4.6562-6.0625 0.02473-0.15323 0.0625-0.30854 0.0625-0.46875 0-1.6188-1.3187-2.9062-2.9375-2.9062-0.86619 0-1.6509 0.37137-2.1875 0.96875-1.1569-0.62848-2.4971-0.96875-3.9062-0.96875z" color="#000000" fill="url(#linearGradient14783)" opacity=".5"/>
<path d="m42.331 39.763c-2.9879 0.30734-5.3067 2.8925-5.3067 6 0 0.50225 0.07037 0.97124 0.18512 1.4375-1.3383-0.82923-2.9133-1.3125-4.5971-1.3125-0.68827 0-1.3625 0.09893-2.0055 0.25-0.46902-1.3625-1.7345-2.3438-3.2396-2.3438-1.9026 0-3.4247 1.5729-3.4247 3.5 0 0.92305 0.34777 1.751 0.92559 2.375-0.194-0.02238-0.3863 0-0.58621 0-2.8539 0-5.1833 2.3281-5.1833 5.2188s2.3294 5.25 5.1833 5.25c0.39885 0 0.76866-0.06962 1.1416-0.15625 0.99889 1.427 2.4046 2.5193 4.0418 3.1562-0.0041 0.11543-0.03085 0.2273-0.03085 0.34375 0 5.2417 4.2042 9.4688 9.3794 9.4688 1.511 0 2.9321-0.3566 4.196-1 2.5913 1.7834 5.7326 2.8438 9.1017 2.8438 6.7518 0 12.532-4.2051 14.964-10.156 4.7244-0.59661 8.3921-4.647 8.3921-9.5938 0-5.3573-4.2752-9.7188-9.5645-9.7188-1.1448 0-2.2528 0.22061-3.2704 0.59375-0.84337-0.73119-1.7666-1.3932-2.7459-1.9375 0.08165-0.23333 0.15427-0.48833 0.15427-0.75 0-1.2333-1.0037-2.2188-2.2214-2.2188-0.93624 0-1.7474 0.57244-2.0672 1.4062-1.0434-0.24278-2.1299-0.40621-3.2396-0.4375-0.30649-1.2856-1.4442-2.2188-2.8076-2.2188-1.1595 0-2.1608 0.6901-2.6225 1.6875-1.0651-1.0542-2.522-1.6875-4.1343-1.6875-0.20453 0-0.41787-0.02049-0.61706 0z" color="#000000" fill="url(#linearGradient4201-6)" opacity=".2"/>
<path d="m18.661 9.7626c3.0264 0.30734 5.375 2.8925 5.375 6 0 0.50225-0.07128 0.97124-0.1875 1.4375 1.3556-0.82923 2.9508-1.3125 4.6562-1.3125 0.69713 0 1.3801 0.09893 2.0312 0.25 0.47506-1.3625 1.7568-2.3438 3.2812-2.3438 1.9271 0 3.4688 1.5729 3.4688 3.5 0 0.92305-0.35225 1.751-0.9375 2.375 0.19649-0.02238 0.39127 0 0.59375 0 2.8907 0 5.25 2.3281 5.25 5.2188s-2.3593 5.25-5.25 5.25c-0.40398 0-0.77855-0.06962-1.1562-0.15625-1.0117 1.427-2.4356 2.5193-4.0938 3.1562 0.0042 0.11543 0.03125 0.2273 0.03125 0.34375 0 5.2417-4.2583 9.4688-9.5 9.4688-1.5304 0-2.9698-0.3566-4.25-1-2.6246 1.7834-5.8064 2.8438-9.2188 2.8438-6.8387 0-12.693-4.2051-15.156-10.156-4.7852-0.59661-8.5-4.647-8.5-9.5938 0-5.3573 4.3302-9.7188 9.6875-9.7188 1.1595 0 2.2818 0.22061 3.3125 0.59375 0.85422-0.73119 1.7894-1.3932 2.7812-1.9375-0.0827-0.23333-0.15625-0.48833-0.15625-0.75 0-1.2333 1.0166-2.2188 2.25-2.2188 0.94828 0 1.7699 0.57244 2.0938 1.4062 1.0568-0.24278 2.1573-0.40621 3.2813-0.4375 0.31043-1.2856 1.4628-2.2188 2.8438-2.2188 1.1744 0 2.1886 0.6901 2.6562 1.6875 1.0788-1.0542 2.5545-1.6875 4.1875-1.6875 0.20716 0 0.42324-0.02049 0.625 0z" color="#000000" fill="url(#linearGradient14799)" opacity=".3"/>
<path d="m90.094 10.5c-1.259 0-2.334 0.69184-2.9062 1.7188-1.9182 0.13278-3.6115 1.0249-4.7812 2.4062-0.53405-0.72001-1.3784-1.1875-2.3438-1.1875-1.6188 0-2.9375 1.3187-2.9375 2.9375 0 0.44432 0.10432 0.84141 0.28125 1.2188-1.5885 0.35705-2.7812 1.7412-2.7812 3.4375 0 1.9656 1.5656 3.5625 3.5312 3.5625 1.5444 0 2.8512-0.99995 3.3438-2.375 1.1421 2.2412 3.4683 3.7812 6.1562 3.7812 1.0952 0 2.1424-0.26513 3.0625-0.71875 0.57196 0.52723 1.3483 0.84375 2.1875 0.84375 1.6569 0 2.9848-1.2636 3.1562-2.875 0.30913 0.04735 0.61513 0.09375 0.9375 0.09375 1.5171 0 2.9214-0.56524 4-1.4688 0.71605 0.81008 1.7713 1.3125 2.9375 1.3125 2.1584 0 3.9062-1.7479 3.9062-3.9062 0-2.1584-1.7479-3.9062-3.9062-3.9062-0.31601 0-0.64322 0.0542-0.9375 0.125-0.71569-2.64-3.1335-4.5938-6-4.5938-1.5007 0-2.8639 0.55146-3.9375 1.4375-0.55212-1.0915-1.662-1.8438-2.9688-1.8438z" color="#000000" fill="url(#linearGradient14807)" opacity=".3"/>
<path d="m82.629 69.763c-3.0264 0.30734-5.375 2.8925-5.375 6 0 0.50225 0.07128 0.97124 0.1875 1.4375-1.3556-0.82923-2.9508-1.3125-4.6562-1.3125-0.69713 0-1.3801 0.09893-2.0312 0.25-0.47506-1.3625-1.7568-2.3438-3.2812-2.3438-1.9271 0-3.4688 1.5729-3.4688 3.5 0 0.92305 0.35225 1.751 0.9375 2.375-0.19649-0.02238-0.39127 0-0.59375 0-2.8907 0-5.25 2.3281-5.25 5.2188s2.3593 5.25 5.25 5.25c0.40398 0 0.77855-0.0696 1.1562-0.15625 1.0117 1.427 2.4356 2.5193 4.0938 3.1562-0.0042 0.11543-0.03125 0.22731-0.03125 0.34375 0 5.2417 4.2583 9.4688 9.5 9.4688 1.5304 0 2.9698-0.3566 4.25-1 2.6246 1.7834 5.8064 2.8438 9.2188 2.8438 6.8387 0 12.693-4.2051 15.156-10.156 4.7852-0.5966 8.5-4.647 8.5-9.5937 0-5.3573-4.3302-9.7188-9.6875-9.7188-1.1595 0-2.2818 0.22061-3.3125 0.59375-0.85422-0.73119-1.7894-1.3932-2.7812-1.9375 0.0827-0.23333 0.15625-0.48833 0.15625-0.75 0-1.2333-1.0166-2.2188-2.25-2.2188-0.94828 0-1.7699 0.57244-2.0938 1.4062-1.0568-0.24278-2.1573-0.40621-3.2813-0.4375-0.31043-1.2856-1.4628-2.2188-2.8438-2.2188-1.1744 0-2.1886 0.6901-2.6562 1.6875-1.0788-1.0542-2.5545-1.6875-4.1875-1.6875-0.20716 0-0.42324-0.02049-0.625 1e-6z" color="#000000" fill="url(#linearGradient14815)" opacity=".2"/>
<path d="m18.155 56.845c-1.4861 0-2.7058 1.1986-2.7058 2.6847 0 0.50585 0.1589 0.96983 0.40165 1.3741-0.2682 0.31284-0.53506 0.62607-0.76102 0.97241-0.46103-0.09187-0.94805-0.12684-1.4375-0.12684-1.5845 0-3.0346 0.50008-4.2067 1.3529-0.7946-1.6484-2.3871-2.7693-4.2279-2.7693-2.6333 0-4.7775 2.295-4.7775 5.1369 0 1.2932 0.45391 2.4783 1.1838 3.3823-0.96656 1.1164-1.5643 2.5704-1.5643 4.1433 0 3.5458 2.9665 6.4052 6.6166 6.4052 1.2714 0 2.459-0.34691 3.4669-0.95127 0.78406 0.88937 1.8059 1.5905 2.9595 1.966 1.7446 1.8225 4.2117 2.9595 6.9337 2.9595 2.9065 0 5.5145-1.2968 7.272-3.34 1.2887-0.24766 2.454-0.86012 3.4034-1.6912 0.10523 0.0076 0.20991 0.02114 0.31709 0.02114 1.4272 0 2.6963-0.69165 3.488-1.7546 0.23447 0.02954 0.47565 0.06342 0.71874 0.06342 2.9462 0 5.3271-2.2464 5.3271-5.01s-2.381-5.01-5.3271-5.01c-0.05686 0-0.11268 0.01948-0.16912 0.02114-0.0935-1.5363-1.41-2.7481-3.0441-2.7481-0.03689 0-0.06913 0.01991-0.1057 0.02114-1.2795-3.6976-4.7669-6.3418-8.8997-6.3418-0.92428 0-1.8194 0.13293-2.6636 0.38051-0.48666-0.69404-1.2865-1.1415-2.1985-1.1415z" color="#000000" fill="url(#linearGradient3716-7)" opacity=".2"/>
<path d="m56.094 14.5c-1.259 0-2.334 0.69184-2.9062 1.7188-1.9182 0.13278-3.6115 1.0249-4.7812 2.4062-0.53405-0.72001-1.3784-1.1875-2.3438-1.1875-1.6188 0-2.9375 1.3187-2.9375 2.9375 0 0.44432 0.10432 0.84141 0.28125 1.2188-1.5885 0.35705-2.7812 1.7412-2.7812 3.4375 0 1.9656 1.5656 3.5625 3.5312 3.5625 1.5444 0 2.8512-0.99995 3.3438-2.375 1.1421 2.2412 3.4683 3.7812 6.1562 3.7812 1.0952 0 2.1424-0.26513 3.0625-0.71875 0.57196 0.52723 1.3483 0.84375 2.1875 0.84375 1.6569 0 2.9848-1.2636 3.1562-2.875 0.30913 0.04735 0.61513 0.09375 0.9375 0.09375 1.5171 0 2.9214-0.56524 4-1.4688 0.71605 0.81008 1.7713 1.3125 2.9375 1.3125 2.1584 0 3.9062-1.7479 3.9062-3.9062 0-2.1584-1.7479-3.9062-3.9062-3.9062-0.31601 0-0.64322 0.0542-0.9375 0.125-0.71569-2.64-3.1335-4.5938-6-4.5938-1.5007 0-2.8639 0.55146-3.9375 1.4375-0.55212-1.0915-1.662-1.8438-2.9688-1.8438z" color="#000000" fill="url(#linearGradient3372-8)" opacity=".3"/>
<path d="m72.938 9.6563c-3.5005 0-6.464 2.1862-7.625 5.2812-2.9227 0.05208-5.2812 2.4399-5.2812 5.375 0 2.9677 2.4073 5.375 5.375 5.375 1.1753 0 2.2405-0.3911 3.125-1.0312 1.2736 0.82112 2.7782 1.3125 4.4062 1.3125 0.41217 0 0.82299-0.03481 1.2188-0.09375 0.4608 0.55836 1.157 0.9375 1.9375 0.9375 1.11 0 2.0426-0.72039 2.375-1.7188 0.573 0.1721 1.1834 0.28125 1.8125 0.28125 3.4688 0 6.2812-2.8125 6.2812-6.2812 0-2.9051-1.9776-5.3448-4.6562-6.0625 0.02473-0.15323 0.0625-0.30854 0.0625-0.46875 0-1.6188-1.3187-2.9062-2.9375-2.9062-0.86619 0-1.6509 0.37137-2.1875 0.96875-1.1569-0.62848-2.4971-0.96875-3.9062-0.96875z" color="#000000" fill="url(#linearGradient14719)" opacity=".2"/>
<path d="m72.812 35.156c2.1969 0 4 1.7719 4 3.9688 0 0.74779-0.2349 1.4337-0.59375 2.0312 0.39647 0.46247 0.79097 0.9255 1.125 1.4375 0.68153-0.13582 1.4015-0.1875 2.125-0.1875 2.3423 0 4.4861 0.73926 6.2188 2 1.1746-2.4369 3.5287-4.0938 6.25-4.0938 3.8928 0 7.0625 3.3927 7.0625 7.5938 0 1.9117-0.67101 3.6637-1.75 5 1.4288 1.6503 2.3125 3.7998 2.3125 6.125 0 5.2417-4.3854 9.4688-9.7812 9.4688-1.8794 0-3.6351-0.51283-5.125-1.4062-1.1591 1.3147-2.6697 2.3513-4.375 2.9062-2.5789 2.6941-6.226 4.375-10.25 4.375-4.2967 0-8.152-1.917-10.75-4.9375-1.905-0.36612-3.6277-1.2715-5.0312-2.5-0.15556 0.01128-0.31031 0.03125-0.46875 0.03125-2.1099 0-3.9859-1.0224-5.1562-2.5938-0.34661 0.04367-0.70314 0.09375-1.0625 0.09375-4.3553 0-7.875-3.3208-7.875-7.4062 0-4.0855 3.5197-7.4062 7.875-7.4062 0.08406 0 0.16657 0.0288 0.25 0.03125 0.13822-2.2711 2.0844-4.0625 4.5-4.0625 0.05453 0 0.10219 0.02943 0.15625 0.03125 1.8914-5.4662 7.0468-9.375 13.156-9.375 1.3663 0 2.6895 0.19651 3.9375 0.5625 0.71942-1.026 1.9018-1.6875 3.25-1.6875z" color="#000000" fill="url(#linearGradient14727)" opacity=".5"/>
<path d="m51.585 6.9145c-1.4261 0-2.5938 1.1364-2.5938 2.5625 0 0.94222 0.49623 1.7678 1.25 2.2188-0.42979 0.62326-0.75196 1.3181-0.96875 2.0625-0.78008-0.26481-1.587-0.45761-2.4375-0.53125 0.02776-0.15383 0.0625-0.30692 0.0625-0.46875 0-1.4646-1.1917-2.6562-2.6562-2.6562-1.0731 0-1.9888 0.64566-2.4062 1.5625-1.0616-1.0864-2.5256-1.7778-4.1562-1.8125 0-1.3104-1.0646-2.375-2.375-2.375-1.2339 0-2.2293 0.95203-2.3438 2.1562-0.37719-0.13609-0.79464-0.21875-1.2188-0.21875-1.9656 0-3.5625 1.5969-3.5625 3.5625 0 0.06439 0.02787 0.12395 0.03125 0.1875-0.60789-0.07841-1.2167-0.125-1.8438-0.125-1.6687 0-3.2477 0.28484-4.75 0.78125-1.1385-1.0802-2.6817-1.75-4.375-1.75-3.5073 0-6.3438 2.8364-6.3438 6.3438 0 0.5261 0.06691 1.0424 0.1875 1.5312-2.156 0.28208-3.8125 2.1108-3.8125 4.3438 0 0.43842 0.06804 0.85044 0.1875 1.25-0.21782 0.19014-0.4268 0.38341-0.625 0.59375-0.87625-0.74992-2.0137-1.2188-3.2812-1.2188-2.7365 0-4.9375 2.1291-4.9375 4.75 0 2.6209 2.201 4.75 4.9375 4.75 0.4111 0 0.80555-0.06587 1.1875-0.15625 0.96074 3.7711 4.3659 6.5625 8.4375 6.5625 1.2797 0 2.4989-0.28622 3.5938-0.78125 2.6219 2.1439 5.9427 3.4375 9.5938 3.4375 4.9332 0 9.314-2.3606 12.094-6 0.73405 0.43 1.5878 0.6875 2.5 0.6875 2.4273 0 4.4496-1.727 4.875-4.0312 0.03081 2.67e-4 0.06288 0 0.09375 0 3.6133 0 6.7751-1.8405 8.6562-4.625 1.2675 1.3 3.0409 2.0938 5 2.0938 3.5372 0 6.4807-2.6191 6.9375-6.0312 0.4459 0.10707 0.89626 0.1875 1.375 0.1875 3.2761 0 5.9375-2.6614 5.9375-5.9375 0-3.2761-2.6614-5.9375-5.9375-5.9375-0.34246 0-0.67439 0.03796-1 0.09375-0.49243-0.49025-1.1345-0.78125-1.8438-0.78125-0.73343 0-1.4081 0.32335-1.9062 0.84375-0.77547-3.1324-3.5965-5.4687-6.9688-5.4687-0.73385 0-1.4269 0.13939-2.0938 0.34375-0.26558-1.1435-1.2757-2-2.5-2z" color="#000000" fill="url(#linearGradient14735)" opacity=".3"/>
<path d="m64.094 50.5c-1.259 0-2.334 0.69184-2.9062 1.7188-1.9182 0.13278-3.6115 1.0249-4.7812 2.4062-0.53405-0.72001-1.3784-1.1875-2.3438-1.1875-1.6188 0-2.9375 1.3187-2.9375 2.9375 0 0.44432 0.10432 0.84141 0.28125 1.2188-1.5885 0.35705-2.7812 1.7412-2.7812 3.4375 0 1.9656 1.5656 3.5625 3.5312 3.5625 1.5444 0 2.8512-0.99995 3.3438-2.375 1.1421 2.2412 3.4683 3.7812 6.1562 3.7812 1.0952 0 2.1424-0.26513 3.0625-0.71875 0.57196 0.52723 1.3483 0.84375 2.1875 0.84375 1.6569 0 2.9848-1.2636 3.1562-2.875 0.30913 0.04735 0.61513 0.09375 0.9375 0.09375 1.5171 0 2.9214-0.56524 4-1.4688 0.71605 0.81008 1.7713 1.3125 2.9375 1.3125 2.1584 0 3.9062-1.7479 3.9062-3.9062 0-2.1584-1.7479-3.9062-3.9062-3.9062-0.31601 0-0.64322 0.0542-0.9375 0.125-0.71569-2.64-3.1335-4.5938-6-4.5938-1.5007 0-2.8639 0.55146-3.9375 1.4375-0.55212-1.0915-1.662-1.8438-2.9688-1.8438z" color="#000000" fill="url(#linearGradient14743)" opacity=".3"/>
<path d="m17.5 47.312c-0.95045 0-1.8285 0.30559-2.5312 0.8125-0.58004-0.08942-1.1762-0.15625-1.7812-0.15625-2.6437 0-5.0504 0.91554-7 2.4062-0.2252-0.03559-0.45167-0.0625-0.6875-0.0625-2.3125 0-4.1875 1.7719-4.1875 3.9688 0 0.82384 0.26727 1.5839 0.71875 2.2188-0.268 0.97769-0.40625 1.9997-0.40625 3.0625 0 1.0735 0.13301 2.1073 0.40625 3.0938-0.61992-0.27902-1.3073-0.4375-2.0312-0.4375-2.7365 0-4.9375 2.201-4.9375 4.9375 0 2.7365 2.201 4.9688 4.9375 4.9688 0.36612 0 0.719-0.04965 1.0625-0.125-6.43e-4 0.04129 0 0.08355 0 0.125 0 4.3167 3.4958 7.8125 7.8125 7.8125 2.786 0 5.2097-1.4621 6.5938-3.6562 2.0411 1.841 4.7536 2.9688 7.7188 2.9688 4.015 0 7.533-2.072 9.5938-5.1875 1.2942 0.97115 2.8824 1.5625 4.625 1.5625 2.725 0 5.1192-1.4353 6.5-3.5625 0.69317 0.55616 1.5421 0.90625 2.5 0.90625 1.3093 0 2.4789-0.6295 3.2188-1.5938 0.32267 0.20323 0.71549 0.34375 1.125 0.34375 1.1563 0 2.0938-0.93749 2.0938-2.0938s-0.93749-2.0938-2.0938-2.0938c-0.18067 0-0.36401 0.01947-0.53125 0.0625-0.50733-1.456-1.8198-2.5264-3.4062-2.6875-0.08623-1.3481-1.1927-2.4062-2.5625-2.4062-0.3812 0-0.73681 0.07047-1.0625 0.21875-1.4183-1.5835-3.4881-2.5938-5.7812-2.5938-1.0245 0-1.9799 0.20126-2.875 0.5625-0.22426-2.3734-2.2241-4.25-4.6562-4.25-0.28018 0-0.54588 0.04651-0.8125 0.09375 0.03207-0.21766 0.0625-0.42967 0.0625-0.65625 0-2.5052-2.0573-4.5312-4.5625-4.5312-0.93946 0-1.8073 0.2609-2.5312 0.75-0.12466-0.14758-0.24323-0.29637-0.375-0.4375 0.01212-0.12327 0.03125-0.24872 0.03125-0.375 0-2.1969-1.875-3.9688-4.1875-3.9688z" color="#000000" fill="url(#linearGradient14751)" opacity=".5"/>
<path d="m34.09 20.889c-1.7951 0-3.2871 1.3348-3.5312 3.0625-0.99024 0.39781-1.8962 0.90849-2.7188 1.5625-0.48316-0.50848-1.1494-0.84375-1.9062-0.84375-1.4646 0-2.6562 1.1917-2.6562 2.6562 0 0.01073-1.27e-4 0.02055 0 0.03125-1.0357 0.06809-2.0271 0.26679-2.9688 0.59375-0.55027-0.63705-1.3734-1.0312-2.2812-1.0312-1.6368 0-2.9673 1.3085-3 2.9375-0.04347-0.0022-0.08097-0.03125-0.125-0.03125-1.2037 0-2.2233 0.86986-2.4688 2-2.4536 0.16605-4.5626 1.5198-5.7812 3.5-0.4926-0.20835-1.0253-0.3125-1.5938-0.3125-2.274 0-4.125 1.851-4.125 4.125s1.851 4.0938 4.125 4.0938c0.53425 0 1.0316-0.09607 1.5-0.28125 1.2861 2.1833 3.6578 3.625 6.375 3.625 0.87777 0 1.7188-0.15691 2.5-0.4375 2.0858 2.4103 5.156 3.9375 8.5938 3.9375 3.5742 0 6.7584-1.6406 8.8438-4.2188 1.2151 1.3833 2.9829 2.2812 4.9688 2.2812 1.5447 0 2.9666-0.55175 4.0938-1.4375 1.0575 0.54918 2.2573 0.875 3.5312 0.875 1.5489 0 2.9813-0.46094 4.1875-1.25 0.49805 0.25713 1.0571 0.40625 1.6562 0.40625 1.7433 0 3.213-1.236 3.5625-2.875 0.23611 1.5401 1.5501 2.7188 3.1562 2.7188 1.7729 0 3.2188-1.4146 3.2188-3.1875 0-1.6151-1.1974-2.9623-2.75-3.1875 0.04583-0.25866 0.09375-0.54069 0.09375-0.8125 0-2.5052-2.026-4.5312-4.5312-4.5312-0.84007 0-1.6378 0.25822-2.3125 0.65625-0.22397-0.31986-0.4498-0.65593-0.71875-0.9375 0.10594-0.25048 0.15625-0.52343 0.15625-0.8125 0-1.1563-0.93749-2.0938-2.0938-2.0938-0.09318 0-0.19129 0.01945-0.28125 0.03125-0.01718-1.7967-1.4805-3.25-3.2812-3.25-0.47744 0-0.93457 0.09784-1.3438 0.28125-1.4251-2.523-3.8275-4.4148-6.6875-5.1875-0.40134-1.5259-1.7544-2.6562-3.4062-2.6562z" color="#000000" fill="url(#linearGradient14759)" opacity=".5"/>
<path d="m53.176 66.577c1.3695-0.39771 2.8078 0.36799 3.2055 1.7375 0.26277 0.90483 0.01648 1.8361-0.58162 2.4793 0.58655 0.47866 1.0897 1.0561 1.5055 1.7105 0.67528-0.47186 1.3964-0.88205 2.1926-1.19-0.06956-0.13999-0.14562-0.27731-0.19075-0.43272-0.40846-1.4065 0.40358-2.8832 1.8101-3.2917 1.0305-0.29927 2.09 0.06539 2.7465 0.82944 0.71646-1.3394 1.9296-2.4116 3.4859-2.8997-0.36546-1.2584 0.35998-2.5777 1.6184-2.9431 1.1849-0.34412 2.4063 0.29254 2.8521 1.4171 0.32427-0.23589 0.70211-0.43169 1.1094-0.54996 1.8877-0.54819 3.8665 0.53996 4.4147 2.4276 0.01796 0.06184 0.0078 0.1268 0.02228 0.18878 0.5619-0.24483 1.1335-0.45935 1.7357-0.63424 1.6025-0.46537 3.1983-0.63221 4.7794-0.57446 0.79208-1.3548 2.0873-2.4285 3.7134-2.9007 3.3682-0.97815 6.8831 0.9547 7.8612 4.3229 0.14672 0.50522 0.22646 1.0197 0.24699 1.5228 2.1491-0.3304 4.2499 0.9638 4.8726 3.1082 0.12227 0.42102 0.17183 0.83567 0.16855 1.2527 0.2622 0.12185 0.51679 0.24917 0.76579 0.39589 0.63234-0.96454 1.5939-1.732 2.8112-2.0855 2.6279-0.76317 5.3354 0.66766 6.0663 3.1845s-0.78897 5.1754-3.4169 5.9385c-0.39479 0.11465-0.79196 0.1614-1.184 0.18113 0.12908 3.8894-2.3625 7.5197-6.2725 8.6552-1.2289 0.3569-2.4795 0.42203-3.669 0.252-1.92 2.7901-4.7482 4.9584-8.2544 5.9767-4.7374 1.3758-9.6028 0.33061-13.287-2.3892-0.58501 0.61766-1.3331 1.103-2.2091 1.3574-2.331 0.67695-4.7547-0.41753-5.8058-2.5117-0.02951 0.0088-0.06039 0.01754-0.09003 0.02614-3.47 1.0077-7.0196 0.12201-9.6027-2.0274-0.85466 1.6019-2.3363 2.8588-4.2177 3.4051-3.3969 0.98648-6.954-0.7078-8.3443-3.8572-0.39834 0.22718-0.80841 0.43002-1.2682 0.56353-3.1461 0.91365-6.4442-0.89994-7.3578-4.046-0.91365-3.1461 0.89994-6.4442 4.046-7.3578 0.32887-0.09551 0.65822-0.15163 0.98647-0.18886 0.33617-0.60813 0.87158-1.0666 1.5527-1.2644 0.70433-0.20454 1.4424-0.08217 2.0659 0.27864-0.12887-3.2244 1.9287-6.2548 5.1671-7.1953 0.70473-0.20466 1.4091-0.26407 2.1065-0.25381-0.06387-1.1722 0.66728-2.2764 1.843-2.6179z" color="#000000" fill="url(#linearGradient14775)" opacity=".2"/>
<path d="m22.938 39.656c-3.5005 0-6.464 2.1862-7.625 5.2812-2.9227 0.05208-5.2812 2.4399-5.2812 5.375 0 2.9677 2.4073 5.375 5.375 5.375 1.1753 0 2.2405-0.3911 3.125-1.0312 1.2736 0.82112 2.7782 1.3125 4.4062 1.3125 0.41217 0 0.82299-0.03481 1.2188-0.09375 0.4608 0.55836 1.157 0.9375 1.9375 0.9375 1.11 0 2.0426-0.72039 2.375-1.7188 0.573 0.1721 1.1834 0.28125 1.8125 0.28125 3.4688 0 6.2812-2.8125 6.2812-6.2812 0-2.9051-1.9776-5.3448-4.6562-6.0625 0.02473-0.15323 0.0625-0.30854 0.0625-0.46875 0-1.6188-1.3187-2.9062-2.9375-2.9062-0.86619 0-1.6509 0.37137-2.1875 0.96875-1.1569-0.62848-2.4971-0.96875-3.9062-0.96875z" color="#000000" fill="url(#linearGradient14783)" opacity=".5"/>
<path d="m18.661 9.7626c3.0264 0.30734 5.375 2.8925 5.375 6 0 0.50225-0.07128 0.97124-0.1875 1.4375 1.3556-0.82923 2.9508-1.3125 4.6562-1.3125 0.69713 0 1.3801 0.09893 2.0312 0.25 0.47506-1.3625 1.7568-2.3438 3.2812-2.3438 1.9271 0 3.4688 1.5729 3.4688 3.5 0 0.92305-0.35225 1.751-0.9375 2.375 0.19649-0.02238 0.39127 0 0.59375 0 2.8907 0 5.25 2.3281 5.25 5.2188s-2.3593 5.25-5.25 5.25c-0.40398 0-0.77855-0.06962-1.1562-0.15625-1.0117 1.427-2.4356 2.5193-4.0938 3.1562 0.0042 0.11543 0.03125 0.2273 0.03125 0.34375 0 5.2417-4.2583 9.4688-9.5 9.4688-1.5304 0-2.9698-0.3566-4.25-1-2.6246 1.7834-5.8064 2.8438-9.2188 2.8438-6.8387 0-12.693-4.2051-15.156-10.156-4.7852-0.59661-8.5-4.647-8.5-9.5938 0-5.3573 4.3302-9.7188 9.6875-9.7188 1.1595 0 2.2818 0.22061 3.3125 0.59375 0.85422-0.73119 1.7894-1.3932 2.7812-1.9375-0.0827-0.23333-0.15625-0.48833-0.15625-0.75 0-1.2333 1.0166-2.2188 2.25-2.2188 0.94828 0 1.7699 0.57244 2.0938 1.4062 1.0568-0.24278 2.1573-0.40621 3.2813-0.4375 0.31043-1.2856 1.4628-2.2188 2.8438-2.2188 1.1744 0 2.1886 0.6901 2.6562 1.6875 1.0788-1.0542 2.5545-1.6875 4.1875-1.6875 0.20716 0 0.42324-0.02049 0.625 0z" color="#000000" fill="url(#linearGradient14799)" opacity=".3"/>
<path d="m90.094 10.5c-1.259 0-2.334 0.69184-2.9062 1.7188-1.9182 0.13278-3.6115 1.0249-4.7812 2.4062-0.53405-0.72001-1.3784-1.1875-2.3438-1.1875-1.6188 0-2.9375 1.3187-2.9375 2.9375 0 0.44432 0.10432 0.84141 0.28125 1.2188-1.5885 0.35705-2.7812 1.7412-2.7812 3.4375 0 1.9656 1.5656 3.5625 3.5312 3.5625 1.5444 0 2.8512-0.99995 3.3438-2.375 1.1421 2.2412 3.4683 3.7812 6.1562 3.7812 1.0952 0 2.1424-0.26513 3.0625-0.71875 0.57196 0.52723 1.3483 0.84375 2.1875 0.84375 1.6569 0 2.9848-1.2636 3.1562-2.875 0.30913 0.04735 0.61513 0.09375 0.9375 0.09375 1.5171 0 2.9214-0.56524 4-1.4688 0.71605 0.81008 1.7713 1.3125 2.9375 1.3125 2.1584 0 3.9062-1.7479 3.9062-3.9062 0-2.1584-1.7479-3.9062-3.9062-3.9062-0.31601 0-0.64322 0.0542-0.9375 0.125-0.71569-2.64-3.1335-4.5938-6-4.5938-1.5007 0-2.8639 0.55146-3.9375 1.4375-0.55212-1.0915-1.662-1.8438-2.9688-1.8438z" color="#000000" fill="url(#linearGradient14807)" opacity=".3"/>
<path d="m82.629 69.763c-3.0264 0.30734-5.375 2.8925-5.375 6 0 0.50225 0.07128 0.97124 0.1875 1.4375-1.3556-0.82923-2.9508-1.3125-4.6562-1.3125-0.69713 0-1.3801 0.09893-2.0312 0.25-0.47506-1.3625-1.7568-2.3438-3.2812-2.3438-1.9271 0-3.4688 1.5729-3.4688 3.5 0 0.92305 0.35225 1.751 0.9375 2.375-0.19649-0.02238-0.39127 0-0.59375 0-2.8907 0-5.25 2.3281-5.25 5.2188s2.3593 5.25 5.25 5.25c0.40398 0 0.77855-0.0696 1.1562-0.15625 1.0117 1.427 2.4356 2.5193 4.0938 3.1562-0.0042 0.11543-0.03125 0.22731-0.03125 0.34375 0 5.2417 4.2583 9.4688 9.5 9.4688 1.5304 0 2.9698-0.3566 4.25-1 2.6246 1.7834 5.8064 2.8438 9.2188 2.8438 6.8387 0 12.693-4.2051 15.156-10.156 4.7852-0.5966 8.5-4.647 8.5-9.5937 0-5.3573-4.3302-9.7188-9.6875-9.7188-1.1595 0-2.2818 0.22061-3.3125 0.59375-0.85422-0.73119-1.7894-1.3932-2.7812-1.9375 0.0827-0.23333 0.15625-0.48833 0.15625-0.75 0-1.2333-1.0166-2.2188-2.25-2.2188-0.94828 0-1.7699 0.57244-2.0938 1.4062-1.0568-0.24278-2.1573-0.40621-3.2813-0.4375-0.31043-1.2856-1.4628-2.2188-2.8438-2.2188-1.1744 0-2.1886 0.6901-2.6562 1.6875-1.0788-1.0542-2.5545-1.6875-4.1875-1.6875-0.20716 0-0.42324-0.02049-0.625 1e-6z" color="#000000" fill="url(#linearGradient14815)" opacity=".2"/>
</g>
</g>
<g transform="translate(-400.09 302.38)" opacity=".865">
<path transform="translate(0,-2)" d="m61.408 46.047a1.0195 1.0195 0 0 0-0.01563 2e-3c-1.39 0.14687-2.5532 0.72683-3.3848 1.3594a1.0195 1.0195 0 0 0-0.04883 0.03906c-1.7656 1.5269-2.4889 3.5758-3.4707 5.0918a1.0195 1.0195 0 0 0-0.02539 0.04297c-4.257 7.337-8.4808 14.71-12.75 22.029a1.0195 1.0195 0 0 0-0.05469 0.10742c-0.85074 1.9565-0.86678 4.2349 0.31445 6.1465 1.2884 2.2564 3.8869 3.3091 6.3379 3.0879l-0.08984 0.0039c9.5549-0.02315 19.101-0.04085 28.656-0.0625a1.0195 1.0195 0 0 0 0.06836-2e-3c2.5986-0.18152 4.9291-1.9375 5.7109-4.4531v-2e-3c0.66906-2.0601 0.18765-4.2706-1.002-6.0117l0.03906 0.0625c-4.7645-8.1945-9.5597-16.368-14.311-24.562a1.0195 1.0195 0 0 0-0.05469-0.08203c-1.3337-1.857-3.5609-3.0095-5.9199-2.7968z" color="#000000" opacity=".05"/>
<path d="m61.512 45.054c-1.1638 0.12298-2.1945 0.62291-2.8948 1.1556-1.5099 1.3058-2.2077 3.249-3.2749 4.8968-4.255 7.3336-8.4831 14.683-12.755 22.007-0.74397 1.711-0.74694 3.6289 0.2533 5.2363 1.0524 1.8622 3.2836 2.7878 5.3841 2.5982 9.5553-0.02315 19.111-0.0487 28.666-0.07035 2.1804-0.15231 4.1684-1.6646 4.8126-3.7557 0.55772-1.7154 0.1329-3.5964-0.90237-5.1117-4.7631-8.1921-9.5426-16.375-14.295-24.573-1.1358-1.5815-3.0237-2.561-4.9935-2.3834z" color="#000000" opacity=".1"/>
<path transform="matrix(1.1579 0 0 1.1556 -2.3913 19.812)" d="m55.391 22.664c-1.2809 0.06895-2.5038 0.82316-3.1426 1.9355l-12.529 21.684c-0.67768 1.1684-0.68035 2.6989-0.0059 3.8691 0.67449 1.1702 1.9989 1.9344 3.3496 1.9336a0.86818 0.86818 0 0 0 2e-3 0l25.092-0.0625c1.3507 7.67e-4 2.6751-0.7634 3.3496-1.9336 0.67449-1.1702 0.67183-2.7008-0.0059-3.8691l-12.561-21.621c-0.70587-1.2287-2.1317-2.0073-3.5469-1.9355a0.86818 0.86818 0 0 0-2e-3 0z" color="#000000" opacity=".15"/>
<path transform="matrix(1.1579 0 0 1.1556 -2.3913 19.812)" d="m55.428 23.539a2.9965 2.9965 0 0 0-2.4277 1.4941l-12.531 21.688a2.9965 2.9965 0 0 0 2.6016 4.4941l25.094-0.0625a2.9965 2.9965 0 0 0 2.582-4.502l-12.562-21.625a2.9965 2.9965 0 0 0-2.7559-1.4863z" color="#000000" opacity=".3"/>
<path transform="matrix(1.1579 0 0 1.1556 -2.3913 18.812)" d="m55.428 23.539a2.9965 2.9965 0 0 0-2.4277 1.4941l-12.531 21.688a2.9965 2.9965 0 0 0 2.6016 4.4941l25.094-0.0625a2.9965 2.9965 0 0 0 2.582-4.502l-12.562-21.625a2.9965 2.9965 0 0 0-2.7559-1.4863z" color="#000000" fill="url(#linearGradient3755)"/>
<path d="m61.906 48c-1.152 0.05532-1.4218 1.2789-1.9688 2.0625-4.6014 7.9371-9.1687 15.882-13.781 23.812-0.4613 0.81992 0.13962 2.0623 1.125 2.0938 2.6346 0.07861 5.2945 0.01355 7.9375 0.03125 7.1315-0.02183 14.275-0.03044 21.406-0.0625 1.0177-0.03644 1.7121-1.2001 1.25-2.125-1.8511-3.0767-3.6637-6.2811-5.5-9.4062-3.0376-5.238-6.1417-10.471-9.1562-15.719-0.2891-0.43498-0.78622-0.7058-1.3125-0.6875zm0.0625 2c2.9432 5.1145 5.9584 10.198 8.9062 15.281 1.735 2.9528 3.481 5.9796 5.25 8.9375-6.9616 0.03024-13.939 0.04117-20.906 0.0625-2.4771-0.01658-4.8933 0.02123-7.2813-0.03125 4.4913-7.7254 8.9291-15.464 13.406-23.188 0.02593-0.04474 0.06781-0.08026 0.09375-0.125 0.272-0.41648 0.41573-0.72113 0.53125-0.9375z" color="#000000" fill="#fff"/>
<path d="m61.812 46a3.4697 3.4628 0 0 0-2.8438 1.75l-14.5 25.062a3.4697 3.4628 0 0 0-0.4375 2.2188 3.4697 3.4628 0 0 1 0.4375-1.2188l14.5-25.062a3.4697 3.4628 0 0 1 2.8438-1.75 3.4697 3.4628 0 0 1 3.1875 1.75l14.531 24.969a3.4697 3.4628 0 0 1 0.4375 1.25 3.4697 3.4628 0 0 0-0.4375-2.25l-14.531-24.969a3.4697 3.4628 0 0 0-3.1875-1.75z" color="#000000" fill="#fff" opacity=".3"/>
<path d="m79.969 73.969a3.4697 3.4628 0 0 1-3.4375 2.9688l-29.063 0.0625a3.4697 3.4628 0 0 1-3.4375-2.9688 3.4697 3.4628 0 0 0 3.4375 3.9688l29.063-0.0625a3.4697 3.4628 0 0 0 3.4375-3.9688z" color="#000000" fill="#500" opacity=".4"/>
<rect x="60" y="57" width="4" height="10" rx="1.9171" ry="2" color="#000000" fill="#fff"/>
<circle transform="translate(-3.9343e-7 -3)" cx="62" cy="73" r="2" color="#000000" fill="#fff"/>
</g>
</g>
</g>
</g>
</g>
<path d="m9.8251 4.7295c-3.1166 0-5.668 2.5395-5.668 5.646v69.278c0 3.1065 2.5513 5.646 5.668 5.646h76.792c3.1166 0 5.668-2.5395 5.668-5.646v-69.278c0-3.1065-2.5513-5.646-5.668-5.646zm0 2.3194h76.792c1.8881 0 3.352 1.4801 3.352 3.3266v69.278c0 1.8465-1.4639 3.3266-3.352 3.3266h-76.792c-1.8881 0-3.352-1.4801-3.352-3.3266v-69.278c0-1.8465 1.4639-3.3266 3.352-3.3266z" color="#000000" fill="#241f1f" fill-opacity=".63265" style="text-decoration-line:none;text-indent:0;text-transform:none"/>
<path d="m1.5 81.844v6c0 3.6801 2.9761 6.6562 6.6562 6.6562h79.688c3.6801 0 6.6563-2.9761 6.6563-6.6562v-6c0 3.6801-2.9761 6.6562-6.6563 6.6562h-79.688c-3.6801 0-6.6562-2.9761-6.6562-6.6562z" fill="url(#linearGradient4129)" opacity=".65818"/>
<rect x="5.375" y="80.25" width="84.25" height="4.25" rx="0" ry="4.25" fill="url(#radialGradient7462)" opacity=".55"/>
<rect transform="rotate(90)" x="5.56" y="-90.085" width="76.75" height="4.25" rx="0" ry="4.25" fill="url(#radialGradient7464)" opacity=".669"/>
<rect transform="matrix(1.0692 0 0 1.0477 4.2952 38.479)" x="2" y="-30" width="75.966" height="69.024" rx="3.957" ry="3.957" clip-path="url(#clipPath4156-4-1)" fill="url(#linearGradient4767)" opacity=".808"/>
</svg>
