<?xml version="1.0" encoding="UTF-8"?>
<!-- Created with Inkscape (http://www.inkscape.org/) -->
<svg version="1.1" viewBox="0 0 96 96" xmlns="http://www.w3.org/2000/svg" xmlns:cc="http://creativecommons.org/ns#" xmlns:dc="http://purl.org/dc/elements/1.1/" xmlns:rdf="http://www.w3.org/1999/02/22-rdf-syntax-ns#" xmlns:xlink="http://www.w3.org/1999/xlink">
<defs>
<linearGradient id="linearGradient3825" x1="6" x2="90" y1="47" y2="47" gradientTransform="matrix(1.1071 0 0 1.1071 -5.1429 -4.0357)" gradientUnits="userSpaceOnUse">
<stop stop-color="#bbc2c7" offset="0"/>
<stop stop-color="#fff" offset=".25"/>
<stop stop-color="#a5aeb9" offset=".5"/>
<stop stop-color="#fbf9f9" offset=".75"/>
<stop stop-color="#b8bfc4" offset="1"/>
</linearGradient>
<radialGradient id="radialGradient3827" cx="48" cy="-27" r="42" gradientTransform="matrix(-1.187 0 0 -.96877 104.98 -24.657)" gradientUnits="userSpaceOnUse">
<stop stop-color="#fff" offset="0"/>
<stop stop-color="#fff" offset=".8"/>
<stop stop-color="#fff" stop-opacity="0" offset="1"/>
</radialGradient>
<linearGradient id="linearGradient3829" x1="1.5" x2="94.5" y1="88.172" y2="88.172" gradientTransform="translate(-3e-6)" gradientUnits="userSpaceOnUse">
<stop offset="0"/>
<stop stop-opacity=".58824" offset=".1"/>
<stop stop-opacity=".58824" offset=".9"/>
<stop offset="1"/>
</linearGradient>
<linearGradient id="linearGradient13189" x1="38.97" x2="43.66" y1="52.984" y2="-28.269" gradientTransform="translate(0,32)" gradientUnits="userSpaceOnUse">
<stop stop-color="#2276c5" offset="0"/>
<stop stop-color="#68baf4" offset="1"/>
</linearGradient>
<radialGradient id="radialGradient4524-3-8" cx="65.325" cy="31.114" r="52.047" gradientTransform="matrix(.83438 0 0 .77744 -5.9896 21.956)" gradientUnits="userSpaceOnUse" xlink:href="#linearGradient3762-0-6-6"/>
<linearGradient id="linearGradient3762-0-6-6">
<stop stop-color="#ffda56" offset="0"/>
<stop stop-color="#ffda56" offset=".64062"/>
<stop stop-color="#ffda56" stop-opacity="0" offset="1"/>
</linearGradient>
<radialGradient id="radialGradient4522-7-2" cx="64" cy="32" r="40" gradientUnits="userSpaceOnUse" xlink:href="#linearGradient3762-0-6-6"/>
<radialGradient id="radialGradient4520-4-6" cx="64" cy="32" r="32" gradientTransform="matrix(1.0209 0 0 .95216 -17.336 10.204)" gradientUnits="userSpaceOnUse">
<stop stop-color="#ffdc4d" offset="0"/>
<stop stop-color="#ffe041" offset=".77642"/>
<stop stop-color="#fffda4" stop-opacity="0" offset="1"/>
</radialGradient>
<radialGradient id="radialGradient4518-8-0" cx="52.148" cy="43.852" r="32" gradientTransform="matrix(.83526 0 0 .81637 -5.4566 15.865)" gradientUnits="userSpaceOnUse">
<stop stop-color="#fff894" offset="0"/>
<stop stop-color="#ffc822" offset=".8"/>
<stop stop-color="#ffb400" offset="1"/>
</radialGradient>
<radialGradient id="radialGradient4508-7-8" cx="57.034" cy="44.185" r="10.81" gradientTransform="matrix(1.3085 0 0 1.3671 -14.244 -18.935)" gradientUnits="userSpaceOnUse" xlink:href="#linearGradient4271-7-4"/>
<linearGradient id="linearGradient4271-7-4">
<stop stop-color="#f60" offset="0"/>
<stop stop-color="#f60" stop-opacity="0" offset="1"/>
</linearGradient>
<radialGradient id="radialGradient4510-5-2" cx="57.034" cy="44.185" r="10.81" gradientTransform="matrix(1.0318 0 0 1.078 -25.806 -6.1593)" gradientUnits="userSpaceOnUse" xlink:href="#linearGradient4271-7-4"/>
<radialGradient id="radialGradient4512-9-0" cx="57.034" cy="44.185" r="10.81" gradientTransform="matrix(1.4363 0 0 1.5006 -43.027 -36.855)" gradientUnits="userSpaceOnUse" xlink:href="#linearGradient4271-7-4"/>
<radialGradient id="radialGradient4514-3-9" cx="57.034" cy="44.185" r="10.81" gradientTransform="matrix(1.9028 0 0 1.6761 -47.124 -47.53)" gradientUnits="userSpaceOnUse" xlink:href="#linearGradient4271-7-4"/>
<linearGradient id="linearGradient4516-3-7" x1="64.996" x2="64.996" y1="-.90906" y2="55.536" gradientTransform="matrix(.58156 0 0 .35801 10.78 18.51)" gradientUnits="userSpaceOnUse">
<stop stop-color="#fff" offset="0"/>
<stop stop-color="#fff" stop-opacity="0" offset="1"/>
</linearGradient>
<filter id="filter4421-9" x="-.11752" y="-.12003" width="1.235" height="1.2401" color-interpolation-filters="sRGB">
<feGaussianBlur stdDeviation="0.56854841"/>
</filter>
<filter id="filter4425-7" x="-.13547" y="-.12851" width="1.2709" height="1.257" color-interpolation-filters="sRGB">
<feGaussianBlur stdDeviation="0.56854841"/>
</filter>
<filter id="filter4429-8" color-interpolation-filters="sRGB">
<feGaussianBlur stdDeviation="0.56854841"/>
</filter>
<filter id="filter4433-5" x="-.068762" y="-.11615" width="1.1375" height="1.2323" color-interpolation-filters="sRGB">
<feGaussianBlur stdDeviation="0.56854841"/>
</filter>
<filter id="filter4437-9" color-interpolation-filters="sRGB">
<feGaussianBlur stdDeviation="0.56854841"/>
</filter>
<filter id="filter4441-7" color-interpolation-filters="sRGB">
<feGaussianBlur stdDeviation="0.56854841"/>
</filter>
<filter id="filter4445-2" color-interpolation-filters="sRGB">
<feGaussianBlur stdDeviation="0.56854841"/>
</filter>
<filter id="filter4449-8" x="-.073075" y="-.10019" width="1.1461" height="1.2004" color-interpolation-filters="sRGB">
<feGaussianBlur stdDeviation="0.56854841"/>
</filter>
<filter id="filter4453-4" color-interpolation-filters="sRGB">
<feGaussianBlur stdDeviation="0.56854841"/>
</filter>
<filter id="filter4457-6" color-interpolation-filters="sRGB">
<feGaussianBlur stdDeviation="0.56854841"/>
</filter>
<filter id="filter4461-2" x="-.10344" y="-.21037" width="1.2069" height="1.4207" color-interpolation-filters="sRGB">
<feGaussianBlur stdDeviation="0.5685484"/>
</filter>
<filter id="filter4465-1" x="-.071041" y="-.11024" width="1.1421" height="1.2205" color-interpolation-filters="sRGB">
<feGaussianBlur stdDeviation="0.5685484"/>
</filter>
<filter id="filter4469-4" color-interpolation-filters="sRGB">
<feGaussianBlur stdDeviation="0.5685484"/>
</filter>
<filter id="filter4473-0" x="-.070045" y="-.12051" width="1.1401" height="1.241" color-interpolation-filters="sRGB">
<feGaussianBlur stdDeviation="0.56854841"/>
</filter>
<linearGradient id="linearGradient14021" x1="39.819" x2="44.586" y1="13.056" y2="29.471" gradientTransform="matrix(-.96032 .27889 .27889 .96032 113.44 9.9471)" gradientUnits="userSpaceOnUse" xlink:href="#linearGradient3814-9-2"/>
<linearGradient id="linearGradient3814-9-2">
<stop stop-color="#fff" offset="0"/>
<stop stop-color="#fff" stop-opacity="0" offset="1"/>
</linearGradient>
<linearGradient id="linearGradient14023" x1="35.838" x2="35.838" y1="56.924" y2="89.995" gradientTransform="translate(-10 -8.3483)" gradientUnits="userSpaceOnUse" xlink:href="#linearGradient3814-9-2"/>
<linearGradient id="linearGradient14027" x1="76.758" x2="71.266" y1="27.41" y2="50.225" gradientTransform="matrix(-1 0 0 1 80.942 32.977)" gradientUnits="userSpaceOnUse" xlink:href="#linearGradient3814-9-2"/>
<linearGradient id="linearGradient14029" x1="75.918" x2="75.918" y1="63.139" y2="76.55" gradientTransform="matrix(-1.0804 0 0 1.0994 90.822 .80183)" gradientUnits="userSpaceOnUse">
<stop stop-color="#fff" offset="0"/>
<stop stop-color="#fff" stop-opacity="0" offset="1"/>
</linearGradient>
<linearGradient id="linearGradient4967" x1="2.7714" x2="50.528" y1="-28.642" y2="14.514" gradientUnits="userSpaceOnUse">
<stop stop-color="#fff" offset="0"/>
<stop stop-color="#fff" stop-opacity="0" offset="1"/>
</linearGradient>
<clipPath id="clipPath4156-4-6">
<path d="m27.046-55.695-14.214 13.321h0.06127l15.653 21.771 10.231-10.546c-0.2169-1.1522-11.311-23.67-11.732-24.546zm-17.399 16.313-14.888 14.062 21.229 17.515 10.385-10.577-16.726-21zm31.491 12.951-9.7413 9.7136 8.9448 12.458 7.7808-7.555-6.9843-14.617zm-49.84 4.3788-13.754 12.982 26.283 13.846 0.06127-0.0617-0.12253-0.0617 9.8332-10.053-22.301-16.652zm38.015 7.4008-9.8025 9.7753 11.579 9.5594 7.6276-7.4008-8.6691-11.009-0.73519-0.9251zm20.187 5.674-7.3825 7.2158 6.1878 8.5418 5.8202-6.1365-4.6256-9.6211zm-32.195 6.3215-9.5575 9.4977 13.662 7.185 7.9339-7.6784-12.039-9.0043zm23.312 2.3744-7.1068 6.9383 8.3628 6.9074 5.3608-5.674-0.06127-0.0925-0.0919 0.12335-6.4635-8.2026zm-8.7304 8.5418-7.5051 7.3392 10.354 5.4581c1.3975-1.321 5.6751-6.1229 5.8509-6.3215l-8.6997-6.4757z" fill="#fff" opacity=".6"/>
</clipPath>
<radialGradient id="radialGradient4992" cx="13.948" cy="44.893" r="43.199" gradientTransform="matrix(.97513 0 0 .049191 33.826 80.064)" gradientUnits="userSpaceOnUse" xlink:href="#linearGradient3814-9-2"/>
<radialGradient id="radialGradient15899" cx="13.948" cy="44.893" r="43.199" gradientTransform="matrix(.88833 0 0 .049191 29.382 -89.635)" gradientUnits="userSpaceOnUse" xlink:href="#linearGradient3814-9-2"/>
<linearGradient id="linearGradient1122" x1="45.967" x2="45.967" y1="28.946" y2="48.086" gradientTransform="translate(44.297 25.982)" gradientUnits="userSpaceOnUse" xlink:href="#linearGradient3814-9-2"/>
</defs>
<metadata>
<rdf:RDF>
<cc:Work rdf:about="">
<dc:format>image/svg+xml</dc:format>
<dc:type rdf:resource="http://purl.org/dc/dcmitype/StillImage"/>
<dc:title/>
</cc:Work>
</rdf:RDF>
</metadata>
<path d="m89.143 0h-82.286c-3.7988 0-6.8571 3.0583-6.8571 6.8571v82.286c0 3.7989 3.0583 6.8571 6.8571 6.8571h82.286c3.7989 0 6.8571-3.0583 6.8571-6.8571v-82.286c0-3.7989-3.0583-6.8571-6.8571-6.8571z" opacity=".15"/>
<path d="m88.5 0.75h-81c-3.7395 0-6.75 3.0105-6.75 6.75v81c0 3.7395 3.0105 6.75 6.75 6.75h81c3.7395 0 6.75-3.0105 6.75-6.75v-81c0-3.7395-3.0105-6.75-6.75-6.75z" opacity=".15"/>
<path d="m87.857 1.5h-79.714c-3.6801 0-6.6429 2.9627-6.6429 6.6429v79.714c0 3.6801 2.9627 6.6429 6.6429 6.6429h79.714c3.6801 0 6.6429-2.9627 6.6429-6.6429v-79.714c0-3.6801-2.9627-6.6429-6.6429-6.6429z" fill="url(#linearGradient3825)"/>
<path d="m8.1429 1.5c-3.6801 0-6.6429 2.9627-6.6429 6.6429v16.607h1.1071v-16.607c0-3.0859 2.4498-5.5357 5.5357-5.5357h79.714c3.0859 0 5.5357 2.4498 5.5357 5.5357v16.607h1.1071v-16.607c0-3.6801-2.9627-6.6429-6.6429-6.6429z" fill="url(#radialGradient3827)" opacity=".45"/>
<path d="m1.5 81.844v6c0 3.6801 2.9761 6.6562 6.6562 6.6562h79.688c3.6801 0 6.6563-2.9761 6.6563-6.6562v-6c0 3.6801-2.9761 6.6562-6.6563 6.6562h-79.688c-3.6801 0-6.6562-2.9761-6.6562-6.6562z" fill="url(#linearGradient3829)" opacity=".89091"/>
<rect x="4" y="5.9" width="88" height="80" rx="6.2141" ry="5.4427" fill="url(#linearGradient13189)"/>
<path d="m9.6041 5.715c-3.1166 0-5.668 2.5395-5.668 5.646v69.278c0 3.1065 2.5513 5.646 5.668 5.646h76.792c3.1166 0 5.668-2.5395 5.668-5.646v-69.278c0-3.1065-2.5514-5.646-5.668-5.646zm0 2.3194h76.792c1.8881 0 3.352 1.4801 3.352 3.3266v69.278c0 1.8465-1.4639 3.3266-3.352 3.3266h-76.792c-1.8881 0-3.352-1.4801-3.352-3.3266v-69.278c0-1.8465 1.4639-3.3266 3.352-3.3266z" color="#000000" fill="#414141" style="text-decoration-line:none;text-indent:0;text-transform:none"/>
<path d="m69.8 10.998-11.962 23.933 22.85-15.787-19.381 19.346 27.012-8.4905-24.903 12.866 28.529-0.36265-27.987 5.1258 27.254 7.8007-28.332-3.116 23.311 15.201-25.903-11.053 17.087 21.112-20.939-17.908 6.8904 20.254-11.626-18.306-0.42853 24.994-4.7266-24.494-7.2933 21.844 2.223-22.84-13.332 15.622 8.8425-18.016-26.298 19.429 22.83-22.988-27.012 8.4905 24.903-12.866-20.812-0.54766 20.27-4.2155-25.776-7.3456 26.854 2.6609-17.072-10.801 19.663 6.6529-17.087-21.112 20.939 17.908-9.1893-24.958 13.925 23.01-0.3925-26.36 5.5476 25.859 8.4427-25.182-3.3725 26.177z" color="#000000" fill="url(#radialGradient4524-3-8)" opacity=".3"/>
<path transform="matrix(.98994 0 0 .92331 -15.356 12.051)" d="m98.641 52-14.654-6.0047 10.654 11.716-13.388-8.4581 8.4581 13.388-11.716-10.654 6.0047 14.654-9.6881-12.527 3.3689 15.474-7.3656-14.019 0.63074 15.824-4.8193-15.085-2.1266 15.693-2.1266-15.693-4.8193 15.085 0.63074-15.824-7.3656 14.019 3.3689-15.474-9.6881 12.527 6.0047-14.654-11.716 10.654 8.4581-13.388-13.388 8.4581 10.654-11.716-14.654 6.0047 12.527-9.6881-15.474 3.3689 14.019-7.3656-15.824 0.63074 15.085-4.8193-15.693-2.1266 15.693-2.1266-15.085-4.8193 15.824 0.63074-14.019-7.3656 15.474 3.3689-12.527-9.6881 14.654 6.0047-10.654-11.716 13.388 8.4581-8.4581-13.388 11.716 10.654-6.0047-14.654 9.6881 12.527-3.3689-15.474 7.3656 14.019-0.63074-15.824 4.8193 15.085 2.1266-15.693 2.1266 15.693 4.8193-15.085-0.63074 15.824 7.3656-14.019-3.3689 15.474 9.6881-12.527-6.0047 14.654 11.716-10.654-8.4581 13.388 13.388-8.4581-10.654 11.716 14.654-6.0047-12.527 9.6881 15.474-3.3689-14.019 7.3656 15.824-0.63074-15.085 4.8193 15.693 2.1266-15.693 2.1266 15.085 4.8193-15.824-0.63074 14.019 7.3656-15.474-3.3689z" color="#000000" fill="url(#radialGradient4522-7-2)" opacity=".8"/>
<ellipse cx="48" cy="40.674" rx="32.668" ry="30.469" color="#000000" fill="url(#radialGradient4520-4-6)"/>
<ellipse cx="48" cy="41.989" rx="26.728" ry="26.124" color="#000000" fill="url(#radialGradient4518-8-0)"/>
<path d="m48 15.865c-14.762 0-26.728 11.696-26.728 26.124s11.967 26.124 26.728 26.124 26.728-11.696 26.728-26.124-11.967-26.124-26.728-26.124zm0 0.96755c14.215 0 25.738 11.263 25.738 25.156s-11.523 25.156-25.738 25.156-25.738-11.263-25.738-25.156 11.523-25.156 25.738-25.156z" color="#000000" fill="#ffc000"/>
<ellipse cx="60.387" cy="41.472" rx="14.146" ry="14.779" color="#000000" fill="url(#radialGradient4508-7-8)" opacity=".3"/>
<ellipse cx="33.04" cy="41.472" rx="11.154" ry="11.653" color="#000000" fill="url(#radialGradient4510-5-2)" opacity=".3"/>
<ellipse cx="38.889" cy="29.45" rx="15.527" ry="16.222" color="#000000" fill="url(#radialGradient4512-9-0)" opacity=".3"/>
<ellipse cx="61.399" cy="26.528" rx="20.57" ry="18.119" color="#000000" fill="url(#radialGradient4514-3-9)" opacity=".3"/>
<ellipse cx="48" cy="29.966" rx="18.61" ry="11.456" color="#000000" fill="url(#linearGradient4516-3-7)" opacity=".5"/>
<path transform="matrix(.98994 0 0 .96755 .48306 .38412)" d="m24.81 39.351c-0.48644 1.5237 0.0317 3.8322 1.8734 3.5386 1.0774 2.3671-3.4187 3.0283-2.4565 5.5284 0.39069 1.4186 2.4627 1.2096 1.5423-0.44499-0.27464-2.1005 2.9952-2.623 2.9997-0.28195 0.91369 1.6127 3.71 2.7178 4.9141 0.84697 0.85384-1.4404-3.4044-3.4838-0.65032-4.1775 2.548 0.77036 3.5376-2.508 1.7883-4.0171-1.2512-1.4606-2.7918 0.09474-3.1004 1.3859-2.1249 1.4956-4.4407-0.98157-4.1928-3.0686-0.75242-0.95344-2.4912-0.48632-2.7178 0.69026z" fill="#f60" filter="url(#filter4421-9)" opacity=".07"/>
<path transform="matrix(.98994 0 0 .96755 .48306 .38412)" d="m41.211 51.528c-1.1403-1.5758-2.3142-4.7414 0.0246-5.7916 2.3942-0.6691 3.112 2.3026 4.93 2.9444 2.0672 0.09268 2.8987 1.7057 2.57 3.5446 0.31242 1.4266 2.5284 3.158 0.0925 3.9475-1.6775 0.43783-3.8348-0.88801-3.6021-2.7638 0.04456-2.1216-2.2411-2.2051-3.5854-1.5065l-0.24715-0.1438-0.18246-0.23077z" fill="#f60" filter="url(#filter4425-7)" opacity=".07"/>
<path transform="matrix(.98994 0 0 .96755 .48306 .38412)" d="m31.271 47.552c2.0676-0.4704 1.5928-3.4727 3.4445-4.142 2.7459 0.54445 1.7901 4.1632 1.6408 6.1658 1.332 1.9684 5.7867 0.4749 5.5454 3.7003-0.42877 2.6355 1.508 4.7387 1.826 7.1091-0.60003 2.6435-4.9458 2.9579-5.5196 0.11003-1.1428-2.1695 3.3334-3.8415 0.38219-5.4696-1.8897-0.83289-4.5492-2.1149-6.029 0.08389-1.4733 1.9468-4.4451-0.12929-4.1283-2.1789 0.29698-2.1872 5.1204-0.81226 3.9456-3.5521-0.34871-0.56815-1.7974-0.9851-1.1075-1.8267z" fill="#f60" filter="url(#filter4429-8)" opacity=".07"/>
<path transform="matrix(.98994 0 0 .96755 .48306 .38412)" d="m34.005 59.481c-1.9162-0.98572-2.8005-4.9222 0.05414-5.1531 2.1846-0.07762 2.9497 2.5892 2.6322 4.3595-0.25837 2.6803 3.6841 2.9829 5.1689 1.363 2.2486-0.1592 4.1713 3.201 6.3801 1.1664 1.0062-0.75363 2.7794-3.5887 3.8333-1.924-0.65567 1.6798-3.7719 2.2218-2.832 4.5608-0.29362 2.2843-3.3065 2.6919-5.0093 1.7422-1.5317-1.0042-3.3235-4.116-5.2419-1.9056-1.7956 1.4246-4.8942-0.2323-4.5964-2.5351-0.10832-0.56242-0.20247-1.1307-0.38897-1.6741z" fill="#f60" filter="url(#filter4433-5)" opacity=".07"/>
<path transform="matrix(.98994 0 0 .96755 .48306 .38412)" d="m57.862 41.588c1.6916-0.3866 3.76-1.1037 5.2527 0.17694 1.6227 1.2104 0.94717 3.4383 1.4656 5.1202 1.0754 1.5788 2.8681 2.6301 3.3903 4.5725 0.5495 1.2124 1.0054 3.0547-0.32076 3.9365-1.6793 0.73423-4.2024 0.78641-5.2021-1.0391-1.2955-1.3245-1.3877-3.3926-2.4846-4.7369-1.8798-0.59972-3.9437-0.11482-5.8556-0.7948-1.655-0.18308-3.1725-1.7224-2.7222-3.4462 0.57506-2.2933 3.031-3.7321 5.3115-3.6481 0.3905-0.02534 0.78214-0.05803 1.1653-0.14112z" fill="#f60" filter="url(#filter4437-9)" opacity=".07"/>
<path transform="matrix(.98994 0 0 .96755 .48306 .38412)" d="m34.875 37.544c1.6916-0.3866 3.76-1.1037 5.2527 0.17694 1.6227 1.2104 0.94717 3.4383 1.4656 5.1202 1.0754 1.5788 2.8681 2.6301 3.3903 4.5725 0.5495 1.2124 1.0054 3.0547-0.32076 3.9365-1.6793 0.73423-4.2024 0.78641-5.2021-1.0391-1.2955-1.3245-1.3877-3.3926-2.4846-4.7369-1.8798-0.59972-3.9437-0.11482-5.8556-0.7948-1.655-0.18307-3.1725-1.7224-2.7222-3.4462 0.57506-2.2933 3.031-3.7321 5.3115-3.6481 0.3905-0.02534 0.78214-0.05803 1.1653-0.14112z" fill="#f60" filter="url(#filter4441-7)" opacity=".07"/>
<path transform="matrix(-.43324 .86997 -.8901 -.42344 124.32 15.439)" d="m55.418 42.073c-1.9162-0.98572-2.8005-4.9222 0.05414-5.1531 2.1846-0.07762 2.9497 2.5892 2.6322 4.3595-0.25837 2.6803 3.6841 2.9829 5.1689 1.363 2.2486-0.1592 4.1713 3.201 6.3801 1.1664 1.0062-0.75363 2.7794-3.5887 3.8333-1.924-0.65567 1.6798-3.7719 2.2218-2.832 4.5608-0.29362 2.2843-3.3065 2.6919-5.0093 1.7422-1.5317-1.0042-3.3235-4.116-5.2419-1.9056-1.7956 1.4246-4.8942-0.2323-4.5964-2.5351-0.10832-0.56242-0.20247-1.1307-0.38897-1.6741z" fill="#f60" filter="url(#filter4445-2)" opacity=".07"/>
<path transform="matrix(-.96193 .22852 -.23381 -.94017 123.83 75.926)" d="m63.496 27.343c1.6916-0.3866 3.76-1.1037 5.2527 0.17694 1.6227 1.2104 0.94717 3.4383 1.4656 5.1202 1.0754 1.5788 2.8681 2.6301 3.3903 4.5725 0.5495 1.2124 1.0054 3.0547-0.32076 3.9365-1.6793 0.73423-4.2024 0.78641-5.2021-1.0391-1.2955-1.3245-1.3877-3.3926-2.4846-4.7369-1.8798-0.59972-3.9437-0.11482-5.8556-0.7948-1.655-0.18307-3.1725-1.7224-2.7222-3.4462 0.57506-2.2933 3.031-3.7321 5.3115-3.6481 0.3905-0.02534 0.78214-0.05803 1.1653-0.14112z" fill="#f60" filter="url(#filter4449-8)" opacity=".07"/>
<path transform="matrix(.98994 0 0 .96755 .48306 .38412)" d="m46.679 46.806c2.0676-0.4704 1.5928-3.4727 3.4445-4.142 2.7459 0.54445 1.7901 4.1632 1.6408 6.1658 1.332 1.9684 5.7867 0.4749 5.5454 3.7003-0.42877 2.6355 1.508 4.7387 1.826 7.1091-0.60003 2.6435-4.9458 2.9579-5.5196 0.11003-1.1428-2.1695 3.3334-3.8415 0.38219-5.4696-1.8897-0.83289-4.5492-2.1149-6.029 0.08389-1.4733 1.9468-4.4451-0.12929-4.1283-2.1789 0.29698-2.1872 5.1204-0.81226 3.9456-3.5521-0.34871-0.56815-1.7974-0.9851-1.1075-1.8267z" fill="#f60" filter="url(#filter4453-4)" opacity=".07"/>
<path transform="matrix(-.96432 -.21868 .22374 -.94251 56.466 106.81)" d="m35.911 43.497c1.6916-0.3866 3.76-1.1037 5.2527 0.17694 1.6227 1.2104 0.94717 3.4383 1.4656 5.1202 1.0754 1.5788 2.8681 2.6301 3.3903 4.5725 0.5495 1.2124 1.0054 3.0547-0.32076 3.9365-1.6793 0.73423-4.2024 0.78641-5.2021-1.0391-1.2955-1.3245-1.3877-3.3926-2.4846-4.7369-1.8798-0.59972-3.9437-0.11482-5.8556-0.7948-1.655-0.18307-3.1725-1.7224-2.7222-3.4462 0.57506-2.2933 3.031-3.7321 5.3115-3.6481 0.3905-0.02534 0.78214-0.05803 1.1653-0.14112z" fill="#f60" filter="url(#filter4457-6)" opacity=".07"/>
<path transform="matrix(-.66782 .71422 -.73074 -.65272 106.03 33.823)" d="m57.655 36.606c-1.1403-1.5758-2.3142-4.7414 0.0246-5.7916 2.3942-0.6691 3.112 2.3026 4.93 2.9444 2.0672 0.09268 2.8987 1.7057 2.57 3.5446 0.31242 1.4266 2.5284 3.158 0.0925 3.9475-1.6775 0.43783-3.8348-0.88801-3.6021-2.7638 0.04456-2.1216-2.2411-2.2051-3.5854-1.5065l-0.24715-0.1438-0.18246-0.23077z" fill="#f60" filter="url(#filter4461-2)" opacity=".07"/>
<path transform="matrix(-.66782 .71422 -.73074 -.65272 106.03 33.823)" d="m47.714 32.629c2.0676-0.4704 1.5928-3.4727 3.4445-4.142 2.7459 0.54445 1.7901 4.1632 1.6408 6.1658 1.332 1.9684 5.7867 0.4749 5.5454 3.7003-0.42877 2.6355 1.508 4.7387 1.826 7.1091-0.60003 2.6435-4.9458 2.9579-5.5196 0.11003-1.1428-2.1695 3.3334-3.8415 0.38219-5.4696-1.8897-0.83289-4.5492-2.1149-6.029 0.08389-1.4733 1.9468-4.4451-0.12929-4.1283-2.1789 0.29698-2.1872 5.1204-0.81226 3.9456-3.5521-0.34871-0.56815-1.7974-0.9851-1.1075-1.8267z" fill="#f60" filter="url(#filter4465-1)" opacity=".07"/>
<path transform="matrix(-.66782 .71422 -.73074 -.65272 106.03 33.823)" d="m50.448 44.558c-1.9162-0.98572-2.8005-4.9222 0.05414-5.1531 2.1846-0.07762 2.9497 2.5892 2.6322 4.3595-0.25837 2.6803 3.6841 2.9829 5.1689 1.363 2.2486-0.1592 4.1713 3.201 6.3801 1.1664 1.0062-0.75363 2.7794-3.5887 3.8333-1.924-0.65567 1.6798-3.7719 2.2218-2.832 4.5608-0.29362 2.2843-3.3065 2.6919-5.0093 1.7422-1.5317-1.0042-3.3235-4.116-5.2419-1.9056-1.7956 1.4246-4.8942-0.2323-4.5964-2.5351-0.10832-0.56242-0.20247-1.1307-0.38897-1.6741z" fill="#f60" filter="url(#filter4469-4)" opacity=".07"/>
<path transform="matrix(.8157 -.54821 .5609 .79725 -12.194 23.898)" d="m35.911 43.497c1.6916-0.3866 3.76-1.1037 5.2527 0.17694 1.6227 1.2104 0.94717 3.4383 1.4656 5.1202 1.0754 1.5788 2.8681 2.6301 3.3903 4.5725 0.5495 1.2124 1.0054 3.0547-0.32076 3.9365-1.6793 0.73423-4.2024 0.78641-5.2021-1.0391-1.2955-1.3245-1.3877-3.3926-2.4846-4.7369-1.8798-0.59972-3.9437-0.11482-5.8556-0.7948-1.655-0.18307-3.1725-1.7224-2.7222-3.4462 0.57506-2.2933 3.031-3.7321 5.3115-3.6481 0.3905-0.02534 0.78214-0.05803 1.1653-0.14112z" fill="#f60" filter="url(#filter4473-0)" opacity=".07"/>
<path d="m65.176 32.229c1.3695-0.39771 2.8078 0.36799 3.2055 1.7375 0.26277 0.90483 0.01648 1.8361-0.58162 2.4793 0.58655 0.47866 1.0897 1.0561 1.5055 1.7105 0.67528-0.47186 1.3964-0.88205 2.1926-1.19-0.06956-0.13999-0.14562-0.27731-0.19075-0.43272-0.40846-1.4065 0.40358-2.8832 1.8101-3.2917 1.0305-0.29927 2.09 0.06539 2.7465 0.82944 0.71646-1.3394 1.9296-2.4116 3.4859-2.8997-0.36546-1.2584 0.35998-2.5777 1.6184-2.9431 1.1849-0.34412 2.4063 0.29254 2.8521 1.4171 0.32427-0.23589 0.70211-0.43169 1.1094-0.54996 1.8877-0.54819 3.8665 0.53996 4.4147 2.4276 0.01796 0.06184 0.0078 0.1268 0.02228 0.18878 0.5619-0.24483 1.1335-0.45935 1.7357-0.63424 1.6025-0.46537-1.5811-0.05775 0 0-4.7794 0.57446 2.9261 36.218-4.7986 26.841-0.58501 0.61766-1.3331 1.103-2.2091 1.3574-2.331 0.67695-4.7547-0.41753-5.8058-2.5117-0.02951 0.0088-0.06039 0.01754-0.09003 0.02614-3.47 1.0077-7.0196 0.12201-9.6027-2.0274-0.85466 1.6019-2.3363 2.8588-4.2177 3.4051-3.3969 0.98648-6.954-0.7078-8.3443-3.8572-0.39834 0.22718-0.80841 0.43002-1.2682 0.56353-3.1461 0.91365-6.4442-0.89994-7.3578-4.046-0.91365-3.1461 0.89994-6.4442 4.046-7.3578 0.32887-0.09551 0.65822-0.15163 0.98647-0.18886 0.33617-0.60813 0.87158-1.0666 1.5527-1.2644 0.70433-0.20454 1.4424-0.08217 2.0659 0.27864-0.12887-3.2244 1.9287-6.2548 5.1671-7.1953 0.70473-0.20466 1.4091-0.26407 2.1065-0.25381-0.06387-1.1722 0.66728-2.2764 1.843-2.6179z" color="#000000" fill="url(#linearGradient14021)"/>
<path d="m20.5 44.964c-0.95045 0-1.8285 0.30559-2.5312 0.8125-0.58004-0.08942-1.1762-0.15625-1.7812-0.15625-2.6437 0-5.0504 0.91554-7 2.4062-0.2252-0.03559-0.45167-0.0625-0.6875-0.0625-6.158-1.3549-6.051 32.072 3.375 29.625 2.786 0 5.2097-1.4621 6.5938-3.6562 2.0411 1.841 4.7536 2.9688 7.7188 2.9688 4.015 0 7.533-2.072 9.5938-5.1875 1.2942 0.97115 2.8824 1.5625 4.625 1.5625 2.725 0 5.1192-1.4353 6.5-3.5625 0.69317 0.55616 1.5421 0.90625 2.5 0.90625 1.3093 0 2.4789-0.6295 3.2188-1.5938 0.32267 0.20323 0.71549 0.34375 1.125 0.34375 1.1563 0 2.0938-0.93749 2.0938-2.0938s-0.93749-2.0938-2.0938-2.0938c-0.18067 0-0.36401 0.01947-0.53125 0.0625-0.50733-1.456-1.8198-2.5264-3.4062-2.6875-0.08623-1.3481-1.1927-2.4062-2.5625-2.4062-0.3812 0-0.73681 0.07047-1.0625 0.21875-1.4183-1.5835-3.4881-2.5938-5.7812-2.5938-1.0245 0-1.9799 0.20126-2.875 0.5625-0.22426-2.3734-2.2241-4.25-4.6562-4.25-0.28018 0-0.54588 0.04651-0.8125 0.09375 0.03207-0.21766 0.0625-0.42967 0.0625-0.65625 0-2.5052-2.0573-4.5312-4.5625-4.5312-0.93946 0-1.8073 0.2609-2.5312 0.75-0.12466-0.14758-0.24323-0.29637-0.375-0.4375 0.01212-0.12327 0.03125-0.24872 0.03125-0.375 0-2.1969-1.875-3.9688-4.1875-3.9688z" color="#000000" fill="url(#linearGradient14023)"/>
<path d="m89.121 46.175-26.065 32.818c25.654 5.6862 26.065-32.818 26.065-32.818zm0.6459 1.8913c-0.67871 0.33356-1.3162 0.72659-1.9082 1.1973-0.48316-0.50848-1.1494-0.84375-1.9062-0.84375-1.4646 0-2.6562 1.1917-2.6562 2.6562 0 0.01073-1.3e-4 0.02055 0 0.03125-1.0357 0.06809-2.0271 0.26679-2.9688 0.59375-0.55027-0.63705-1.3734-1.0312-2.2812-1.0312-1.6368 0-2.9673 1.3085-3 2.9375-0.04347-0.0022-0.08097-0.03125-0.125-0.03125-1.2037 0-2.2233 0.86986-2.4688 2-2.4536 0.16605-4.5626 1.5198-5.7812 3.5-0.4926-0.20835-1.0253-0.3125-1.5938-0.3125-2.274 0-4.125 1.851-4.125 4.125s1.851 4.0938 4.125 4.0938c0.53425 0 1.0316-0.09607 1.5-0.28125 1.2861 2.1833 3.6578 3.625 6.375 3.625 0.87777 0 1.7188-0.15691 2.5-0.4375 2.0858 2.4103 5.156 3.9375 8.5938 3.9375 2.0901 0 4.0391-0.57326 5.7207-1.5547z" color="#000000" fill="url(#linearGradient1122)"/>
<path d="m10.661 56.414c3.0264 0.30734 5.375 2.8925 5.375 6 0 0.50225-0.07128 0.97124-0.1875 1.4375 1.3556-0.82923 2.9508-1.3125 4.6562-1.3125 0.69713 0 1.3801 0.09893 2.0312 0.25 0.47506-1.3625 1.7568-2.3438 3.2812-2.3438 1.9271 0 3.4688 1.5729 3.4688 3.5 0 0.92305-0.35225 1.751-0.9375 2.375 0.19649-0.02238 0.39127 0 0.59375 0 2.8907 0 5.25 2.3281 5.25 5.2188s-2.3593 5.25-5.25 5.25c-0.40398 0-0.77855-0.06962-1.1562-0.15625-1.0117 1.427-2.4356 2.5193-4.0938 3.1562 0.0042 0.11543 0.03125 0.2273 0.03125 0.34375 0 5.2417-3.8634 4.3347-9.1051 4.3347-1.5304 0-1.2754 0.48357-2.5555-0.15983-5.9731-2.7018-7.1426-27.284-2.0269-27.894 0.20716 0 0.42324-0.02049 0.625 1e-6z" color="#000000" fill="url(#linearGradient14027)" opacity=".8"/>
<path d="m14.857 75.495c3.1577 0.05726 5.7058 2.6825 5.7058 5.9095 0 3.2628-2.6008 5.9095-5.8071 5.9095-1.2698 0-2.4206-0.42999-3.3762-1.1338-11.412-2.7093-7.0298-37.315 3.4775-10.685z" color="#000000" fill="url(#linearGradient14029)" opacity=".8"/>
<rect transform="matrix(.91622 0 0 .94165 4.5692 36.262)" x="2" y="-30" width="92" height="92" rx="3.957" ry="3.957" clip-path="url(#clipPath4156-4-6)" fill="url(#linearGradient4967)" opacity=".592"/>
<rect x="5.3019" y="80.148" width="84.25" height="4.25" rx="0" ry="4.25" fill="url(#radialGradient4992)" opacity=".75494"/>
<rect transform="rotate(90)" x="3.3977" y="-89.552" width="76.75" height="4.25" rx="0" ry="4.25" fill="url(#radialGradient15899)" opacity=".70751"/>
<path d="m9.6041 5.715c-3.1166 0-5.668 2.5395-5.668 5.646v69.278c0 3.1065 2.5513 5.646 5.668 5.646h76.792c3.1166 0 5.668-2.5395 5.668-5.646v-69.278c0-3.1065-2.5514-5.646-5.668-5.646zm0 2.3194h76.792c1.8881 0 3.352 1.4801 3.352 3.3266v69.278c0 1.8465-1.4639 3.3266-3.352 3.3266h-76.792c-1.8881 0-3.352-1.4801-3.352-3.3266v-69.278c0-1.8465 1.4639-3.3266 3.352-3.3266z" color="#000000" fill="#414141" style="text-decoration-line:none;text-indent:0;text-transform:none"/>
</svg>
