<?xml version="1.0" encoding="UTF-8"?>
<!-- Created with Inkscape (http://www.inkscape.org/) -->
<svg version="1.1" viewBox="0 0 96 96" xmlns="http://www.w3.org/2000/svg" xmlns:cc="http://creativecommons.org/ns#" xmlns:dc="http://purl.org/dc/elements/1.1/" xmlns:rdf="http://www.w3.org/1999/02/22-rdf-syntax-ns#" xmlns:xlink="http://www.w3.org/1999/xlink">
<defs>
<linearGradient id="linearGradient4098" x1="6" x2="90" y1="47" y2="47" gradientTransform="matrix(1.1354 0 0 1.1337 -40.037 -46.788)" gradientUnits="userSpaceOnUse">
<stop stop-color="#b7b7b7" offset="0"/>
<stop stop-color="#fff" offset=".25"/>
<stop stop-color="#9d9d9d" offset=".5"/>
<stop stop-color="#fafafa" offset=".75"/>
<stop stop-color="#b7b7b7" offset="1"/>
</linearGradient>
<radialGradient id="radialGradient4100" cx="158" cy="6.2132" r="41" gradientTransform="matrix(0 1.6209 -2.0383 0 160.66 -243.04)" gradientUnits="userSpaceOnUse">
<stop stop-color="#fff" offset="0"/>
<stop stop-color="#fff" stop-opacity="0" offset="1"/>
</radialGradient>
<radialGradient id="radialGradient4102" cx="48" cy="-27" r="42" gradientTransform="matrix(-1.0722 0 0 -.87502 199.46 -19.126)" gradientUnits="userSpaceOnUse">
<stop stop-color="#fff" offset="0"/>
<stop stop-color="#fff" offset=".8"/>
<stop stop-color="#fff" stop-opacity="0" offset="1"/>
</radialGradient>
<linearGradient id="linearGradient4104" x1="-94" x2="-10.188" y1="82.984" y2="82.984" gradientTransform="matrix(1 0 0 .73089 200 23.097)" gradientUnits="userSpaceOnUse">
<stop offset="0"/>
<stop stop-opacity=".58824" offset=".1"/>
<stop stop-opacity=".58824" offset=".9"/>
<stop offset="1"/>
</linearGradient>
<linearGradient id="linearGradient4108" x1="6" x2="90" y1="47" y2="47" gradientTransform="matrix(1.1354 0 0 1.1159 -40.037 -45.206)" gradientUnits="userSpaceOnUse">
<stop stop-color="#fff" stop-opacity="0" offset="0"/>
<stop stop-color="#fff" stop-opacity=".85135" offset=".036815"/>
<stop stop-color="#fff" stop-opacity="0" offset=".065061"/>
<stop stop-color="#fff" stop-opacity="0" offset=".94494"/>
<stop stop-color="#fff" stop-opacity=".85135" offset=".96582"/>
<stop stop-color="#fff" stop-opacity="0" offset="1"/>
</linearGradient>
<linearGradient id="linearGradient4110" x1="62" x2="62" y1="8" y2="68" gradientTransform="matrix(1.1857 0 0 1.1642 -42.22 -46.722)" gradientUnits="userSpaceOnUse">
<stop stop-color="#fff" offset="0"/>
<stop stop-color="#fff" stop-opacity="0" offset="1"/>
</linearGradient>
<linearGradient id="linearGradient2977" x1="48" x2="48" y1="90" y2="5.9877" gradientUnits="userSpaceOnUse">
<stop stop-color="#70a83e" offset="0"/>
<stop stop-color="#9fd058" offset="1"/>
</linearGradient>
<linearGradient id="ButtonShadow-3" x1="45.448" x2="45.448" y1="92.54" y2="7.0165" gradientTransform="scale(1.0059 .99417)" gradientUnits="userSpaceOnUse">
<stop offset="0"/>
<stop stop-opacity=".58824" offset="1"/>
</linearGradient>
<filter id="filter3174-4" color-interpolation-filters="sRGB">
<feGaussianBlur stdDeviation="1.71"/>
</filter>
<clipPath id="clipPath2973-9">
<rect x="6" y="6" width="84" height="84" rx="6" ry="6" fill="url(#linearGradient2977)"/>
</clipPath>
<linearGradient id="linearGradient3617-6" x1="48" x2="48" y1="90" y2="5.9877" gradientUnits="userSpaceOnUse" xlink:href="#linearGradient3700-0"/>
<linearGradient id="linearGradient3700-0">
<stop stop-color="#70a83e" offset="0"/>
<stop stop-color="#9fd058" offset="1"/>
</linearGradient>
<radialGradient id="radialGradient4174" cx="14.693" cy="3.0703" r="45.056" gradientTransform="matrix(1 0 0 .89841 0 .31192)" gradientUnits="userSpaceOnUse">
<stop stop-color="#2cffee" offset="0"/>
<stop stop-color="#00586e" offset="1"/>
</radialGradient>
</defs>
<metadata>
<rdf:RDF>
<cc:Work rdf:about="">
<dc:format>image/svg+xml</dc:format>
<dc:type rdf:resource="http://purl.org/dc/dcmitype/StillImage"/>
<dc:title/>
</cc:Work>
</rdf:RDF>
</metadata>
<g transform="translate(0,80)">
<g transform="matrix(1.0034 0 0 1.005 33.489 -38.527)">
<path d="m55.463-41.269h-82.003c-3.7858 0-6.8336 3.0432-6.8336 6.8233v81.88c0 3.7801 3.0478 6.8233 6.8336 6.8233h82.003c3.7858 0 6.8336-3.0432 6.8336-6.8233v-81.88c0-3.7801-3.0478-6.8233-6.8336-6.8233z" opacity=".15"/>
<path d="m54.822-40.522h-80.722c-3.7267 0-6.7268 2.9956-6.7268 6.7167v80.6c0 3.721 3.0002 6.7167 6.7268 6.7167h80.722c3.7267 0 6.7268-2.9956 6.7268-6.7167v-80.6c0-3.721-3.0002-6.7167-6.7268-6.7167z" opacity=".15"/>
<g transform="matrix(.97179 0 0 .97179 .40799 .18323)">
<path d="m55.334-41.119h-81.747c-3.774 0-6.8123 3.0337-6.8123 6.802v81.624c0 3.7683 3.0383 6.802 6.8123 6.802h81.747c3.774 0 6.8123-3.0337 6.8123-6.802v-81.624c0-3.7683-3.0383-6.802-6.8123-6.802z" fill="url(#linearGradient4098)"/>
<g transform="matrix(1.1354 0 0 1.1337 -153.57 -46.221)">
<path d="m112 5.5c-2.7873 0-5 2.2127-5 5v20.719 7 38.594c1.0707 1.6288 2.8969 2.7188 5 2.7188h4 64 4c2.1031 0 3.9293-1.09 5-2.7188v-38.594-7-20.719c0-2.7873-2.2127-5-5-5z" fill="url(#radialGradient4100)" opacity=".2"/>
<path d="m112 4.5c-3.324 0-6 2.676-6 6v15h1v-15c0-2.7873 2.2127-5 5-5h72c2.7873 0 5 2.2127 5 5v15h1v-15c0-3.324-2.676-6-6-6h-72z" fill="url(#radialGradient4102)" opacity=".45"/>
<path d="m106 78.998v0.73089 0.73089 0.73089 1.4618 1.4618c0 2.4295 2.676 4.3853 6 4.3853h72c3.324 0 6-1.9559 6-4.3853v-1.4618-1.4618-0.73089-0.73089-0.73089c0 2.4295-2.676 4.3853-6 4.3853h-72c-3.324 0-6-1.9559-6-4.3853z" fill="url(#linearGradient4104)" opacity=".46965"/>
</g>
<path d="m-25.62-37.409h80.627c2.6275 0 4.7428 2.0633 4.7428 4.6262v71.706c0 2.5629-2.1153 4.6262-4.7428 4.6262h-80.627c-2.6275 0-4.7428-2.0633-4.7428-4.6262v-71.706c0-2.5629 2.1153-4.6262 4.7428-4.6262z" color="#000000" fill="url(#radialGradient4174)"/>
<g transform="matrix(1.0255 0 0 1.024 -214.16 55.247)">
<g display="none">
<rect x="5" y="7" width="86" height="85" rx="6" ry="6" fill="url(#ButtonShadow-3)" filter="url(#filter3174-4)" opacity=".9"/>
</g>
<g transform="matrix(.99981 0 0 .91759 174.94 -94.856)">
<g clip-path="url(#clipPath2973-9)" fill="#ddafe9" opacity=".9">
<path d="m48 48 24-56h16l-40 56z" opacity=".15"/>
<path d="m48 48 55.251 25.677-0.48222 15.993-54.769-41.67z" opacity=".15"/>
<path d="m48 48-59.828 11.516-8.9688-13.25 68.797 1.734z" opacity=".15"/>
<path d="m48 48-49.311-35.783 3.5361-15.604 45.775 51.387z" opacity=".15"/>
<path d="m48 48 17.519-62.073 30.436 12.714-47.955 49.359z" opacity=".15"/>
<path d="m48 48 61.636-19.001 5.8539 32.461-67.49-13.46z" opacity=".15"/>
<path d="m48 48-31.246 56.424-26.723-19.336 57.969-37.089z" opacity=".15"/>
<path d="m48 48-62.812-14.651 11.304-30.988 51.508 45.639z" opacity=".15"/>
<path d="m48 48 45.81 45.403-3.6917 9.0215-42.118-54.425z" opacity=".15"/>
<path d="m48 48-2.9701 64.43-9.1685 3.31 12.139-67.74z" opacity=".15"/>
<path d="m48 48-44.859 46.343-9.0645-3.585 53.924-42.758z" opacity=".15"/>
<path d="m48 48-62.116 17.366-6.0159-7.6698 68.132-9.6964z" opacity=".15"/>
<path d="m48 48-29.147-57.537 6.3493-7.3962 22.797 64.933z" opacity=".15"/>
<path d="m48 48 59.482-24.939 6.921 6.8641-66.403 18.074z" opacity=".15"/>
<path d="m48 48 40.187 45.793-6.8963 14.437-33.29-60.231z" opacity=".15"/>
<path d="m48 48-35.958-49.184 8.1521-13.767 27.806 62.951z" opacity=".15"/>
</g>
<rect x="6" y="6" width="84" height="84" rx="6" ry="6" display="none" fill="url(#linearGradient3617-6)"/>
<rect x="6" y="6" width="84" height="84" rx="6" ry="6" display="none" fill="url(#linearGradient3617-6)"/>
</g>
</g>
<path d="m-24.688-37.812c-3.1961 0-5.8125 2.6003-5.8125 5.7812v70.938c0 3.1809 2.6164 5.7812 5.8125 5.7812h78.75c3.1961 0 5.8125-2.6003 5.8125-5.7812v-70.938c0-3.1809-2.6164-5.7812-5.8125-5.7812h-78.75zm0 2.375h78.75c1.9362 0 3.4375 1.5155 3.4375 3.4062v70.938c0 1.8907-1.5013 3.4062-3.4375 3.4062h-78.75c-1.9362 0-3.4375-1.5155-3.4375-3.4062v-70.938c0-1.8907 1.5013-3.4062 3.4375-3.4062z" color="#000000" fill-opacity=".87149" style="block-progression:tb;text-indent:0;text-transform:none"/>
<path d="m55.334-39.627h-81.747c-3.774 0-6.8122 2.9861-6.8122 6.6954v80.344c0 3.7092 3.0383 6.6954 6.8122 6.6954h81.747c3.774 0 6.8122-2.9861 6.8122-6.6954v-80.344c0-3.7092-3.0383-6.6954-6.8122-6.6954z" fill="url(#linearGradient4108)" opacity=".56985"/>
<g transform="matrix(.35872 0 0 .34898 -31.254 -324.15)">
<rect x="152.02" y="855.32" width="83.185" height="9.6832" rx="4.816" ry="3.3891" fill="none" stroke="#090909" stroke-dashoffset="8.5828" stroke-linecap="round" stroke-linejoin="round" stroke-miterlimit="3.8" stroke-width=".65025"/>
<rect x="191.58" y="871.65" width="47.4" height="166.12" rx=".36183" ry="1.9253" fill="none" stroke="#0f0f0f" stroke-dashoffset="8.5828" stroke-linecap="round" stroke-linejoin="round" stroke-miterlimit="3.6" stroke-width="1.1702"/>
<rect x="193" y="881.08" width="44.513" height="29.529" rx=".39392" ry="2.4035" fill="none" stroke="#0f0f0f" stroke-dashoffset="8.5828" stroke-linecap="round" stroke-linejoin="round" stroke-miterlimit="3.6" stroke-width="1.0412"/>
<rect x="193" y="922.4" width="44.513" height="29.529" rx=".39392" ry="2.4035" fill="none" stroke="#0f0f0f" stroke-dashoffset="8.5828" stroke-linecap="round" stroke-linejoin="round" stroke-miterlimit="3.6" stroke-width="1.0412"/>
<rect x="193" y="963.71" width="44.513" height="29.529" rx=".39392" ry="2.4035" fill="none" stroke="#0f0f0f" stroke-dashoffset="8.5828" stroke-linecap="round" stroke-linejoin="round" stroke-miterlimit="3.6" stroke-width="1.0412"/>
<rect x="193" y="1007.2" width="44.513" height="29.529" rx=".39392" ry="2.4035" fill="none" stroke="#0f0f0f" stroke-dashoffset="8.5828" stroke-linecap="round" stroke-linejoin="round" stroke-miterlimit="3.6" stroke-width="1.0412"/>
<path d="m14.183 842.78-0.0051-10.519 228.5 0.0509 0.2397 10.565s-0.59116-2.011-1.6738-2.7744c-1.0118-0.71342-2.7163-1.4331-4.1461-1.4334-68.839-0.0132-146.39 0.49462-216.76 0.24749-1.3049-4e-3 -3.1333 0.42358-4.1904 1.0441-1.2417 0.72891-1.2945 1.6551-1.9695 2.8192z" fill="#323232" fill-opacity=".7608" stroke="#fff" stroke-width=".36954"/>
<path d="m231.36 864.09c0.11896-0.12566 0.21607-0.31216 0.21607-0.41515 0-0.10309-0.46679-0.68872-1.0373-1.3019l-1.0373-1.1148 0.22733-0.64124c0.44634-1.2596 0.21407-2.3722-0.69573-3.3329-0.43493-0.45922-0.70147-0.63535-1.1871-0.78444-1.415-0.43437-2.8177 0.2154-3.5042 1.6235-1.0184 2.0889 0.62088 4.641 2.86 4.4524 0.35642-0.0298 0.8304-0.14713 1.0532-0.2608l0.40522-0.20612 1.0648 1.1047c0.58568 0.60754 1.1446 1.1046 1.242 1.1046 0.0974 0 0.27438-0.1027 0.39318-0.22799zm-5.5285-2.7286c-1.3693-0.99074-1.2088-3.1833 0.28532-3.9 0.89038-0.42705 1.9344-0.13355 2.5815 0.72539 0.37032 0.49162 0.50028 1.3945 0.29525 2.0507-0.14546 0.4651-0.68973 1.086-1.144 1.3048-0.50005 0.24091-1.5674 0.14514-2.0181-0.18094z" enable-background="new" fill="none" stroke="#090909" stroke-miterlimit="3.8" stroke-width=".65025"/>
<g transform="matrix(1.5348 0 0 1.4127 -4.8684 -387.02)" fill="none" stroke="#191919" stroke-width=".5">
<rect x="16.205" y="873.82" width="21.333" height="144.02" rx="3.3431" ry="2.286" stroke-dashoffset="8.5828" stroke-linecap="round" stroke-width=".48879"/>
<rect x="17.133" y="879.27" width="19.422" height="21.657" rx="3.7818" ry="2.5648" stroke-dashoffset="8.5828" stroke-linecap="round" stroke-width=".5"/>
<rect x="17.133" y="907.96" width="19.422" height="21.657" rx="3.7818" ry="2.5648" stroke-dashoffset="8.5828" stroke-linecap="round" stroke-width=".5"/>
<rect x="17.133" y="937.24" width="19.422" height="21.657" rx="3.7818" ry="2.5648" stroke-dashoffset="8.5828" stroke-linecap="round" stroke-width=".5"/>
<rect x="17.133" y="964.77" width="19.422" height="21.657" rx="3.7818" ry="2.5648" stroke-dashoffset="8.5828" stroke-linecap="round" stroke-width=".5"/>
<rect x="17.133" y="990.85" width="19.422" height="21.657" rx="3.7818" ry="2.5648" stroke-dashoffset="8.5828" stroke-linecap="round" stroke-width=".5"/>
<path d="m25.816 928.03c-0.17944-0.18125-0.32624-0.64798-0.32624-1.0374 0-0.82253-0.29004-1.104-1.6315-1.5836-0.90682-0.32413-1.0224-0.30591-1.6135 0.25487-0.77243 0.73266-1.3758 0.65244-2.0601-0.27385-0.51539-0.69761-0.51536-0.69787 0.07131-1.4991 0.4397-0.60046 0.54114-0.9891 0.40451-1.5498-0.31404-1.2888-0.88113-1.9383-1.6923-1.9383-0.92775 0-1.3994-0.54065-1.289-1.4777 0.08779-0.74444 0.3359-0.94518 1.6558-1.3392 0.60542-0.18073 0.8734-0.48938 1.1679-1.3454 0.36378-1.0574 0.35289-1.1509-0.22578-1.9412l-0.608-0.83027 0.51547-0.69772c0.67838-0.9183 1.2868-1.0074 2.0348-0.2979 0.55766 0.52899 0.69949 0.55128 1.6135 0.25385 1.3602-0.44256 1.6568-0.72529 1.6568-1.5792 0-0.95048 0.54389-1.3783 1.6198-1.274 0.74782 0.0724 0.8804 0.19412 0.95566 0.8774 0.11173 1.0144 0.65809 1.6207 1.8046 2.0027 0.79869 0.26612 1.005 0.23453 1.6601-0.25437 0.93954-0.70132 1.0725-0.69725 1.7712 0.0536 0.69988 0.75215 0.71201 1.1048 0.0664 1.9333-0.90837 1.1659 0.0829 3.1702 1.6435 3.3233 0.78942 0.0775 0.82374 0.13027 0.82374 1.267 0 0.98331-0.0896 1.1999-0.52381 1.2663-1.7025 0.26007-1.7321 0.28613-2.2326 1.9675-0.16116 0.54178-0.0901 0.87682 0.2892 1.3638 0.65686 0.8431 0.63448 1.2707-0.10324 1.9704-0.74766 0.70913-0.80639 0.70933-1.7494 5e-3 -0.74751-0.55792-0.78698-0.56019-1.9541-0.11019-1.1688 0.45065-1.2863 0.61673-1.5096 2.1339-0.0579 0.39418-0.311 0.54873-0.99345 0.60702-0.50357 0.043-1.0624-0.07-1.2418-0.25127zm2.7424-5.6891c1.2119-0.58063 1.9055-1.7673 1.9055-3.2603 0-3.8347-4.8099-5.0972-6.8088-1.7872-0.64221 1.0635-0.66301 2.1641-0.06359 3.3685 0.94142 1.8918 3.0413 2.6016 4.967 1.679z" enable-background="new" stroke-width=".5"/>
<path d="m27.01 939.78c-4.6498 0-8.3748 3.7657-8.3748 8.4602v6.3439c0 1.1736 0.92886 2.1114 2.0913 2.1114h6.2835c4.6498 0 8.3796-3.7608 8.3796-8.4553 0-4.6945-3.7298-8.4602-8.3796-8.4602z" enable-background="new" stroke-width=".5"/>
<path d="m24.638 984.22c-4.4752-1.2682-7.3488-5.8088-6.4607-10.209 0.7463-3.697 3.4333-6.4098 7.095-7.1632 4.4563-0.91693 8.951 2.0776 10.138 6.7542 0.71541 2.8194-0.22269 6.1212-2.3505 8.2725-2.1106 2.134-5.6695 3.125-8.4215 2.3452zm-0.76659-3.097c0.38368-0.64131 0.69762-1.2266 0.69762-1.3006 0-0.0739-0.33077-0.4155-0.73505-0.75894s-0.92255-1.0975-1.1517-1.6757l-0.41663-1.0512-1.3282 0.17764c-0.73054 0.0978-1.4147 0.25897-1.5204 0.35837-0.43437 0.40845 0.68539 2.719 1.9631 4.0509 0.7205 0.75101 1.4188 1.3655 1.5518 1.3655 0.1331 0 0.55573-0.52471 0.93941-1.166zm4.757-2.5923c0.97584-0.582 1.5362-1.6466 1.5362-2.9183 0-2.0194-1.4332-3.4327-3.4497-3.402-1.9542 0.0299-3.222 1.3684-3.222 3.402 0 2.084 1.2237 3.3085 3.326 3.328 0.60792 5e-3 1.4222-0.17867 1.8095-0.4097zm4.6722-3.9292c0.53568-0.12538 1.0233-0.27807 1.0837-0.33899 0.23119-0.23351-0.70416-2.3835-1.4898-3.4243-0.90481-1.1987-2.1574-2.083-2.462-1.7381-0.10735 0.12151-0.45741 0.70482-0.77817 1.2964l-0.58318 1.0756 0.77313 0.65678c0.42521 0.36123 0.95646 1.1194 1.1806 1.6849 0.4372 1.1032 0.63582 1.1719 2.2758 0.78765z" enable-background="new" stroke-width=".5"/>
<g transform="matrix(.37273 0 0 .37631 17.815 881.34)">
<path d="m38 44.834c0 1.6204-6.268 2.934-14 2.934-7.732 0-14-1.3136-14-2.934 0-1.6204 6.268-2.934 14-2.934 7.732 0 14 1.3136 14 2.934z" opacity=".77273" stroke-width="1.3351"/>
<path d="m17.859 36.589s0.14177 4.0828-0.56534 5.0344c-0.70712 0.95163-2.1141 0.96273-2.1141 0.96273-0.90289 0.09998-0.91036 1.914 0 1.914h17.64c0.91036 0 0.90308-1.8153 0-1.914 0 0-1.407-0.0111-2.1141-0.96273-0.70711-0.95163-0.56542-5.0344-0.56542-5.0344h-12.281z" enable-background="new" opacity=".69251" stroke-dashoffset=".5" stroke-linecap="round" stroke-width="1.3351"/>
<path d="m37.335 44.17c0 1.1474-5.8674 2.0776-13.105 2.0776-7.2378 0-13.105-0.93016-13.105-2.0776 0-1.1474 5.8674-2.0776 13.105-2.0776 7.2378 0 13.105 0.93016 13.105 2.0776z" opacity=".99465" stroke-width="1.3351"/>
<rect x=".50012" y="3.5001" width="47" height="33" rx="1.0444" ry="1" stroke-dashoffset=".5" stroke-linecap="round" stroke-width="1.3351"/>
<rect x="3" y="6" width="42" height="28" enable-background="new" stroke-width="1.3351"/>
<path d="m30.058 20.53c-0.64332 0.03859-1.26 0.15946-1.875 0.375l4.4688 4.4688-1.4375 2.8438-2.8438 1.4062-4.4688-4.4375c-0.87553 2.466-0.31626 5.3087 1.6562 7.2812 1.9725 1.9725 4.8152 2.5005 7.2812 1.625l1.6562 1.6562h8.1562c0.10346 0 0.2118-0.02152 0.3125-0.03125l-5.875-5.875c0.86217-2.46 0.30916-5.3158-1.6562-7.2812-1.4741-1.4741-3.445-2.147-5.375-2.0312z" color="#000000" opacity=".2" stroke-dashoffset="1.4" stroke-linecap="round" stroke-width="1.3351"/>
<g transform="matrix(.87569 0 0 .88296 -49.815 -2.7609)" stroke-dashoffset="1.4" stroke-linecap="round" stroke-width="1.5183">
<path transform="matrix(.70711 -.70711 .70711 .70711 44.02 36.468)" d="m32.5 24.188c-2.3628 1.1247-4 3.5229-4 6.3125 0 2.7896 1.6371 5.1878 4 6.3125v18.538h6.0312v-18.538c2.3491-1.1298 3.9688-3.533 3.9688-6.3125 0-2.7795-1.6196-5.1827-3.9688-6.3125v6.3125l-3.0156 1-3.0156-1v-6.3125z" color="#000000"/>
<path transform="matrix(.70711 -.70711 .70711 .70711 44.02 36.468)" d="m31.5 26.344c-1.1409 1.0883-2 2.4483-2 4.1562 0 2.4005 1.409 4.4407 3.4375 5.4062 0.34734 0.16748 0.56656 0.52066 0.5625 0.90625v18.93h4.0312v-18.93c-0.0041-0.38559 0.21516-0.73877 0.5625-0.90625 2.0137-0.96848 3.4062-3.013 3.4062-5.4062 0-1.6978-0.84276-3.0662-1.9688-4.1562v4.1562c-0.0036 0.42786-0.28051 0.80544-0.6875 0.9375l-3.0312 1c-0.20292 0.06717-0.42208 0.06717-0.625 0l-3-1c-0.40699-0.13206-0.68388-0.50964-0.6875-0.9375v-4.1562z" color="#000000" opacity=".4"/>
<rect transform="matrix(.70711 -.70711 .70711 .70711 44.02 36.468)" x="34.5" y="37.5" width="2" height="15" rx="1" ry="1" color="#000000" opacity=".4"/>
</g>
</g>
<g transform="matrix(.39177 0 0 .44264 17.491 990.62)" stroke-width="1.2007">
<path d="m28.575 35.052c-0.20083 0.17322-4.6335 4.8816-4.6335 4.8816s-4.3905-4.7482-4.5552-4.8816c0.29438-0.22117 1.4959-1.0909 4.5648-1.0785 3.0197 0.01221 4.394 0.86413 4.624 1.0785z" opacity=".98"/>
<path d="m19.772 35.411s0.88257-0.90592 4.1516-0.90592c3.2892 0 4.3173 0.94856 4.3173 0.94856m-14.383-6.1169s2.4552-3.354 10.043-3.354c7.6343 0 10.021 3.3007 10.021 3.3007m-25.778-6.4726s4.961-5.3448 15.736-5.3448c10.83 0 15.885 5.3962 15.885 5.3962m-37.713-6.5358s6.9352-7.8576 21.788-7.8576c14.928 0 22.083 7.8576 22.083 7.8576" opacity=".4"/>
<path d="m24 33.562c-1.825 0-3.5332 0.51183-5 1.375l5 5 5-5c-1.4668-0.86317-3.175-1.375-5-1.375z" color="#000000" stroke-dashoffset=".06"/>
<path d="m24 24.562c-4.3194 0-8.2879 1.4652-11.469 3.9062l3.9688 3.9688c2.1186-1.409 4.6399-2.25 7.375-2.25 2.8013 0 5.3825 0.87167 7.5312 2.3438l4.0625-4.0625c-3.1809-2.4411-7.1493-3.9062-11.469-3.9062z" color="#000000" stroke-dashoffset=".06"/>
<path d="m24 16.062c-6.6699 0-12.782 2.3796-17.531 6.3438l3.5625 3.5625c3.8313-3.0729 8.6753-4.9062 13.969-4.9062s10.137 1.8334 13.969 4.9062l3.5625-3.5625c-4.749-3.9642-10.861-6.3438-17.531-6.3438z" color="#000000" stroke-dashoffset=".06"/>
<path d="m24 7.5625c-9.0179 0-17.26 3.3185-23.562 8.8125l3.5625 3.5625c5.3895-4.592 12.365-7.375 20-7.375s14.611 2.783 20 7.375l3.5625-3.5625c-6.3029-5.494-14.545-8.8125-23.562-8.8125z" color="#000000" stroke-dashoffset=".06"/>
<path d="m20.337 35.584c0.38471-0.46644 2.4331-0.92244 3.6381-0.88918 1.205 0.03326 3.4278 0.4072 3.7114 0.81356" color="#000000" opacity=".1" stroke-dashoffset=".06"/>
<path d="m13.811 28.98c2.8185-2.1707 6.6014-3.2981 10.189-3.2471 3.5501-0.05043 7.3718 1.0146 10.172 3.2589" color="#000000" opacity=".1" stroke-dashoffset=".06"/>
<path d="m7.6628 22.853c4.3768-3.4107 10.072-5.5788 15.663-5.6441 6.0139-0.23861 12.359 1.9452 17.006 5.7009" color="#000000" opacity=".1" stroke-dashoffset=".06"/>
<path d="m1.6103 16.854c5.9321-4.9225 13.729-8.0113 21.497-8.1019 8.2089-0.32308 16.95 2.7254 23.259 8.1051" color="#000000" opacity=".1" stroke-dashoffset=".06"/>
</g>
<path d="m82.928 976.09c-0.63071-0.63706-1.1467-2.2775-1.1467-3.6462 0-2.891-1.0194-3.8805-5.7346-5.566-3.1873-1.1393-3.5934-1.0752-5.6711 0.89581-2.7149 2.5752-4.8356 2.2932-7.2408-0.96253-1.8115-2.452-1.8114-2.4529 0.25064-5.2692 1.5455-2.1105 1.902-3.4765 1.4218-5.4474-1.1038-4.5299-3.097-6.8128-5.948-6.8128-3.2609 0-4.9185-1.9003-4.5305-5.1939 0.30856-2.6166 1.1806-3.3221 5.8198-4.7069 2.1279-0.63524 3.0698-1.7201 4.1049-4.7288 1.2786-3.7166 1.2403-4.0451-0.79359-6.8228l-2.137-2.9182 1.8118-2.4524c2.3844-3.2276 4.5227-3.5407 7.1518-1.0471 1.9601 1.8593 2.4586 1.9376 5.6711 0.89223 4.7808-1.5555 5.8235-2.5493 5.8235-5.5506 0-3.3408 1.9117-4.8444 5.6932-4.4779 2.6284 0.25447 3.0944 0.6823 3.359 3.0839 0.39271 3.5654 2.3131 5.6964 6.343 7.0392 2.8072 0.93536 3.5324 0.82433 5.8348-0.89406 3.3023-2.465 3.7696-2.4507 6.2254 0.18839 2.4599 2.6437 2.5026 3.8832 0.23338 6.7952-3.1928 4.0979 0.29138 11.143 5.7766 11.681 2.7747 0.2724 2.8953 0.45788 2.8953 4.4534 0 3.4561-0.31492 4.2175-1.8411 4.4508-5.984 0.9141-6.0879 1.0057-7.8472 6.9154-0.56645 1.9043-0.31669 3.0819 1.0165 4.7936 2.3087 2.9633 2.2301 4.4663-0.36287 6.9255-2.6279 2.4924-2.8343 2.4932-6.1486 0.0176-2.6274-1.961-2.7661-1.969-6.8684-0.3873-4.108 1.584-4.521 2.1677-5.306 7.5003-0.20351 1.3855-1.0931 1.9287-3.4918 2.1336-1.77 0.15114-3.7342-0.24604-4.3648-0.88317zm9.6391-19.996c4.2597-2.0408 6.6974-6.2118 6.6974-11.459 0-13.478-16.906-17.916-23.932-6.2818-2.2572 3.7379-2.3304 7.6063-0.22351 11.84 3.3089 6.6493 10.69 9.1442 17.458 5.9015z" enable-background="new" stroke-width="1.7574"/>
</g>
</g>
<path d="m2.8365-37.409c8.3009 28.095 16.926 55.528 25.678 81.496h26.493c2.6275 0 4.7428-2.077 4.7428-4.6569v-72.182c0-2.5799-2.1153-4.6569-4.7428-4.6569h-52.171z" color="#000000" fill="url(#linearGradient4110)" opacity=".61512"/>
</g>
</g>
</g>
</svg>
