<?xml version="1.0" encoding="UTF-8"?>
<!-- Created with Inkscape (http://www.inkscape.org/) -->
<svg enable-background="new" version="1.1" viewBox="0 0 16 16" xmlns="http://www.w3.org/2000/svg" xmlns:cc="http://creativecommons.org/ns#" xmlns:dc="http://purl.org/dc/elements/1.1/" xmlns:osb="http://www.openswatchbook.org/uri/2009/osb" xmlns:rdf="http://www.w3.org/1999/02/22-rdf-syntax-ns#">
<metadata>
<rdf:RDF>
<cc:Work rdf:about="">
<dc:format>image/svg+xml</dc:format>
<dc:type rdf:resource="http://purl.org/dc/dcmitype/StillImage"/>
<dc:title>Paper Symbolic Icon Theme</dc:title>
</cc:Work>
</rdf:RDF>
</metadata>
<title>Paper Symbolic Icon Theme</title>
<defs>
<filter color-interpolation-filters="sRGB">
<feBlend in2="BackgroundImage" mode="darken"/>
</filter>
</defs>
<g transform="translate(-444 -206)" fill="#555">
<path d="m454.66 213.94c-1.4956 0-2.7188 1.2232-2.7188 2.7188s1.2232 2.7188 2.7188 2.7188c0.4871 0 0.94729-0.14835 1.3438-0.375a0.75008 0.75008 0 0 0 0.15625 0.21875l1.8438 1.8125a0.7513 0.7513 0 1 0 1.0625-1.0625l-1.8438-1.8125a0.75008 0.75008 0 0 0-0.21875-0.15625c0.22665-0.39646 0.375-0.85664 0.375-1.3438 0-1.4956-1.2232-2.7188-2.7188-2.7188zm0 1c0.95516 0 1.7188 0.76359 1.7188 1.7188s-0.76359 1.7188-1.7188 1.7188-1.7188-0.76359-1.7188-1.7188 0.76359-1.7188 1.7188-1.7188z" color="#000000" enable-background="new" style="block-progression:tb;text-indent:0;text-transform:none"/>
<path d="m445.84 207c-0.28125 0.04687-0.84375 0.25-0.84375 1v11s0 1 1 1h7.0625c-1.2435-0.6043-2.125-1.8783-2.125-3.3438 0-2.0408 1.6779-3.7188 3.7188-3.7188s3.7188 1.6779 3.7188 3.7188c0 0.36437-0.18255 0.64558-0.28125 0.96875l0.90625 0.875v-8.5c0-1-1-1-1-1h-5l-2-2h-5s-0.0625-0.0156-0.15625 0z" color="#000000" enable-background="accumulate" style="block-progression:tb;text-indent:0;text-transform:none"/>
</g>
</svg>
