<?xml version="1.0" encoding="UTF-8"?>
<!-- Created with Inkscape (http://www.inkscape.org/) -->
<svg version="1.1" viewBox="0 0 96 96" xmlns="http://www.w3.org/2000/svg" xmlns:cc="http://creativecommons.org/ns#" xmlns:dc="http://purl.org/dc/elements/1.1/" xmlns:rdf="http://www.w3.org/1999/02/22-rdf-syntax-ns#" xmlns:xlink="http://www.w3.org/1999/xlink">
<title>Lila-HD-Icon-Theme</title>
<script xlink:href=""/>
<defs>
<linearGradient id="linearGradient15935" x1="6" x2="90" y1="47" y2="47" gradientTransform="matrix(1.1393 0 0 1.1393 -12.504 -39.001)" gradientUnits="userSpaceOnUse">
<stop stop-color="#b7b7b7" offset="0"/>
<stop stop-color="#fff" offset=".25"/>
<stop stop-color="#9d9d9d" offset=".5"/>
<stop stop-color="#fafafa" offset=".75"/>
<stop stop-color="#b7b7b7" offset="1"/>
</linearGradient>
<radialGradient id="radialGradient15937" cx="158" cy="6.2132" r="41" gradientTransform="matrix(0 1.8467 -2.3222 0 56.61 -315.32)" gradientUnits="userSpaceOnUse">
<stop stop-color="#fff" offset="0"/>
<stop stop-color="#fff" stop-opacity="0" offset="1"/>
</radialGradient>
<radialGradient id="radialGradient15939" cx="48" cy="-27" r="42" gradientTransform="matrix(-1.2215 0 0 -.9969 100.81 -60.221)" gradientUnits="userSpaceOnUse">
<stop stop-color="#fff" offset="0"/>
<stop stop-color="#fff" offset=".8"/>
<stop stop-color="#fff" stop-opacity="0" offset="1"/>
</radialGradient>
<linearGradient id="linearGradient15941" x1="-94" x2="-10.188" y1="82.984" y2="82.984" gradientTransform="matrix(1.1393 0 0 1.0129 101.42 -28.243)" gradientUnits="userSpaceOnUse">
<stop offset="0"/>
<stop stop-opacity=".58824" offset=".1"/>
<stop stop-opacity=".58824" offset=".9"/>
<stop offset="1"/>
</linearGradient>
<radialGradient id="radialGradient15943" cx="14.693" cy=".38068" r="45.056" gradientTransform="matrix(1.0034 0 0 .84287 27.671 8.0804)" gradientUnits="userSpaceOnUse">
<stop stop-color="#c4dcf4" offset="0"/>
<stop stop-color="#f6fbfe" stop-opacity=".99608" offset="1"/>
</radialGradient>
<linearGradient id="linearGradient15945" x1="6" x2="90" y1="47" y2="47" gradientTransform="matrix(1.1393 0 0 1.1393 -12.504 -39.001)" gradientUnits="userSpaceOnUse">
<stop stop-color="#fff" stop-opacity="0" offset="0"/>
<stop stop-color="#fff" stop-opacity=".85135" offset=".036815"/>
<stop stop-color="#fff" stop-opacity="0" offset=".065061"/>
<stop stop-color="#fff" stop-opacity="0" offset=".94494"/>
<stop stop-color="#fff" stop-opacity=".85135" offset=".96582"/>
<stop stop-color="#fff" stop-opacity="0" offset="1"/>
</linearGradient>
<linearGradient id="linearGradient15947" x1="2.4652" x2="59.378" y1=".27862" y2=".27862" gradientTransform="matrix(1.0034 0 0 1.005 27.671 8.0187)" gradientUnits="userSpaceOnUse">
<stop stop-color="#fff" offset="0"/>
<stop stop-color="#fff" stop-opacity="0" offset="1"/>
</linearGradient>
<linearGradient id="linearGradient5855" x1="213.96" x2="282.26" y1="338.62" y2="515.97" gradientTransform="translate(983.36 601.39)" gradientUnits="userSpaceOnUse">
<stop stop-color="#637ddf" offset="0"/>
<stop stop-color="#649afa" offset=".23169"/>
<stop stop-color="#719efa" offset="1"/>
</linearGradient>
</defs>
<metadata>
<rdf:RDF>
<cc:Work rdf:about="">
<dc:format>image/svg+xml</dc:format>
<dc:type rdf:resource="http://purl.org/dc/dcmitype/StillImage"/>
<dc:title>Lila-HD-Icon-Theme</dc:title>
<dc:date>2015-2019</dc:date>
<dc:creator>
<cc:Agent>
<dc:title>Cristian Pozzessere  == ilnanny ==</dc:title>
</cc:Agent>
</dc:creator>
<dc:subject>
<rdf:Bag>
<rdf:li>ilnanny</rdf:li>
<rdf:li>lila_hd</rdf:li>
<rdf:li>lila-hd</rdf:li>
<rdf:li>lila hd icon theme</rdf:li>
<rdf:li>Lila-HD-Icon-Theme lila hd icon lila icon</rdf:li>
</rdf:Bag>
</dc:subject>
<dc:coverage>CC-BY-SA</dc:coverage>
<dc:description>Playing with Inkscape on Gnu/Linux O. S.</dc:description>
<dc:contributor>
<cc:Agent>
<dc:title>In the night, alone like a dog.</dc:title>
</cc:Agent>
</dc:contributor>
<cc:license rdf:resource="http://creativecommons.org/licenses/by-sa/4.0/"/>
</cc:Work>
<cc:License rdf:about="http://creativecommons.org/licenses/by-sa/4.0/">
<cc:permits rdf:resource="http://creativecommons.org/ns#Reproduction"/>
<cc:permits rdf:resource="http://creativecommons.org/ns#Distribution"/>
<cc:requires rdf:resource="http://creativecommons.org/ns#Notice"/>
<cc:requires rdf:resource="http://creativecommons.org/ns#Attribution"/>
<cc:permits rdf:resource="http://creativecommons.org/ns#DerivativeWorks"/>
<cc:requires rdf:resource="http://creativecommons.org/ns#ShareAlike"/>
</cc:License>
</rdf:RDF>
</metadata>
<g transform="translate(0,32)">
<g transform="translate(5.8182 1.4545)">
<path d="m83.196-33.305h-82.029c-3.787 0-6.8357 3.0487-6.8357 6.8357v82.029c0 3.787 3.0487 6.8357 6.8357 6.8357h82.029c3.787 0 6.8357-3.0487 6.8357-6.8357v-82.029c0-3.787-3.0487-6.8357-6.8357-6.8357z" fill="url(#linearGradient15935)"/>
<path d="m1.1675-32.165c-3.1755 0-5.6964 2.5209-5.6964 5.6964v75.549c1.2198 1.8556 3.3004 3.0974 5.6964 3.0974h82.029c2.396 0 4.4766-1.2418 5.6964-3.0974v-75.549c0-3.1755-2.5209-5.6964-5.6964-5.6964z" fill="url(#radialGradient15937)" opacity=".2"/>
<path d="m1.1675-33.305c-3.787 0-6.8357 3.0487-6.8357 6.8357v17.089h1.1393v-17.089c0-3.1755 2.5209-5.6964 5.6964-5.6964h82.029c3.1755 0 5.6964 2.5209 5.6964 5.6964v17.089h1.1393v-17.089c0-3.787-3.0487-6.8357-6.8357-6.8357z" fill="url(#radialGradient15939)" opacity=".45"/>
<path d="m-5.6682 49.228v7.0902c0 3.3669 3.0487 6.0773 6.8357 6.0773h82.029c3.787 0 6.8357-2.7105 6.8357-6.0773v-7.0902c0 3.3669-3.0487 6.0773-6.8357 6.0773h-82.029c-3.787 0-6.8357-2.7105-6.8357-6.0773z" fill="url(#linearGradient15941)" opacity=".46965"/>
<ellipse cx="23.898" cy="51.254" rx="3.4436" ry="3.1329" fill="#1c1c1c" opacity=".71"/>
<ellipse cx="23.898" cy="51.047" rx="2.8653" ry="2.6822" fill="#fff"/>
<ellipse cx="23.898" cy="51.047" rx="1.9422" ry="1.8181" fill="#114751"/>
<ellipse cx="58.015" cy="51.254" rx="3.4436" ry="3.1329" fill="#1c1c1c" opacity=".71"/>
<ellipse cx="58.015" cy="51.047" rx="2.8653" ry="2.6822" fill="#fff"/>
<ellipse cx="58.015" cy="51.047" rx="1.9422" ry="1.8181" fill="#114751"/>
<rect x="34.839" y="50.203" width="12.718" height="3.252" rx="1.1521" ry="1.1538" fill="#0c2f31" fill-opacity=".90455" opacity=".75097" stroke="#fff" stroke-width=".502"/>
<path d="m1.9628 24.677c-1.8851 0-3.6495 0.91815-4.7591 2.2718v15.089c0 2.4045 2.1226 4.3402 4.7591 4.3402h80.905c2.6365 0 4.7591-1.9357 4.7591-4.3402v-15.089c-1.1096-1.3537-2.874-2.2718-4.7591-2.2718h-80.905zm0 3.2552h80.905c1.3594 0 2.3796 0.93033 2.3796 2.1701v11.936c0 1.2398-1.0201 2.1701-2.3796 2.1701h-80.905c-1.3594 0-2.3796-0.93033-2.3796-2.1701v-11.936c0-1.2398 1.0201-2.1701 2.3796-2.1701z" color="#000000" opacity=".02" style="block-progression:tb;text-indent:0;text-transform:none"/>
<path d="m1.9628-29.575h80.905c2.6365 0 4.7591 1.9357 4.7591 4.3402v67.273c0 2.4045-2.1226 4.3402-4.7591 4.3402h-80.905c-2.6365 0-4.7591-1.9357-4.7591-4.3402v-67.273c0-2.4045 2.1226-4.3402 4.7591-4.3402z" color="#000000" fill="url(#radialGradient15943)" opacity=".845"/>
<path d="m2.9069-28.774h79.017c2.575 0 4.648 1.8912 4.648 4.2405v65.727c0 2.3492-2.073 4.2405-4.648 4.2405h-79.017c-2.575 0-4.648-1.8912-4.648-4.2405v-65.727c0-2.3492 2.073-4.2405 4.648-4.2405z" color="#000000" fill="none" stroke="#000" stroke-opacity=".7758" stroke-width="2.2904"/>
<path d="m83.196-33.305h-82.029c-3.787 0-6.8357 3.0487-6.8357 6.8357v82.029c0 3.787 3.0487 6.8357 6.8357 6.8357h82.029c3.787 0 6.8357-3.0487 6.8357-6.8357v-82.029c0-3.787-3.0487-6.8357-6.8357-6.8357z" fill="url(#linearGradient15945)" opacity=".72794"/>
<g transform="matrix(1.0667 0 0 1.0667 -874.54 -215.24)">
<g display="none">
<rect transform="translate(-132.58 958.04)" x="132.58" y="-957.78" width="1543.4" height="483.74" color="#000000" color-rendering="auto" display="inline" fill="#fff" fill-rule="evenodd" image-rendering="auto" shape-rendering="auto" solid-color="#000000" style="isolation:auto;mix-blend-mode:normal"/>
</g>
<g transform="translate(-132.58 958.04)" display="none" fill-rule="evenodd" opacity=".516" shape-rendering="auto">
<rect x="132.58" y="-957.78" width="1543.4" height="483.74" color="#000000" color-rendering="auto" display="inline" fill="#d4d4d4" image-rendering="auto" opacity="1" solid-color="#000000" style="isolation:auto;mix-blend-mode:normal"/>
<rect x="155.78" y="-933.39" width="1496.4" height="435.68" color="#000000" color-rendering="auto" display="inline" fill="#9b9b9b" image-rendering="auto" opacity="1" solid-color="#000000" style="isolation:auto;mix-blend-mode:normal"/>
<rect x="159.03" y="-851.66" width="1492.6" height="272.58" color="#000000" color-rendering="auto" display="inline" fill="#848484" image-rendering="auto" opacity="1" solid-color="#000000" style="isolation:auto;mix-blend-mode:normal"/>
</g>
<g transform="translate(-132.58 958.04)" display="none" fill-rule="evenodd" shape-rendering="auto">
<rect x="132.65" y="-958.03" width="550.42" height="484.3" color="#000000" color-rendering="auto" display="inline" fill="#5c201e" image-rendering="auto" solid-color="#000000" style="isolation:auto;mix-blend-mode:normal"/>
<rect x="156.12" y="-933.03" width="501.94" height="434.3" color="#000000" color-rendering="auto" display="inline" fill="#c24a46" image-rendering="auto" solid-color="#000000" style="isolation:auto;mix-blend-mode:normal"/>
<rect x="658.03" y="-958.04" width="24.94" height="24.94" color="#000000" color-rendering="auto" display="inline" fill="#d98d8a" image-rendering="auto" solid-color="#000000" style="isolation:auto;mix-blend-mode:normal"/>
</g>
</g>
<g transform="matrix(.15376 0 0 .15376 -19.187 117.87)" fill="none" stroke="#000" stroke-opacity=".096296" stroke-width="7.8044" style="paint-order:stroke fill markers">
<path d="m309.4-710.25 122.2 211.68-56.157 0.5268-32.624-56.869-32.856 56.565-27.902-0.011-14.291-24.69 46.81-80.49-33.229-57.826z" color="#000000" color-rendering="auto" image-rendering="auto" shape-rendering="auto" solid-color="#000000" stroke-linejoin="round" style="isolation:auto;mix-blend-mode:normal;paint-order:stroke fill markers"/>
<path d="m353.51-797.44-122.22 211.66-28.535-48.37 32.938-56.688-65.415-0.1719-13.941-24.17 14.236-24.721 93.112 0.2939 33.464-57.69z" color="#000000" color-rendering="auto" image-rendering="auto" shape-rendering="auto" solid-color="#000000" stroke-linejoin="round" style="isolation:auto;mix-blend-mode:normal;paint-order:stroke fill markers"/>
<path d="m362.89-628.24 244.41 0.012-27.622 48.897-65.562-0.1817 32.559 56.737-13.961 24.158-28.527 0.032-46.301-80.784-66.693-0.1353z" color="#000000" color-rendering="auto" image-rendering="auto" shape-rendering="auto" solid-color="#000000" stroke-linejoin="round" style="isolation:auto;mix-blend-mode:normal;paint-order:stroke fill markers"/>
<path d="m505.14-720.99-122.2-211.68 56.157-0.5268 32.624 56.869 32.856-56.565 27.902 0.011 14.291 24.69-46.81 80.49 33.229 57.826z" color="#000000" color-rendering="auto" image-rendering="auto" shape-rendering="auto" solid-color="#000000" stroke-linejoin="round" style="isolation:auto;mix-blend-mode:normal;paint-order:stroke fill markers"/>
<path d="m309.4-710.25 122.2 211.68-56.157 0.5268-32.624-56.869-32.856 56.565-27.902-0.011-14.291-24.69 46.81-80.49-33.229-57.826z" color="#000000" color-rendering="auto" image-rendering="auto" shape-rendering="auto" solid-color="#000000" stroke-linejoin="round" style="isolation:auto;mix-blend-mode:normal;paint-order:stroke fill markers"/>
<path d="m451.34-803.53-244.41-0.012 27.622-48.897 65.562 0.18175-32.559-56.737 13.961-24.159 28.527-0.0315 46.301 80.784 66.693 0.13524z" color="#000000" color-rendering="auto" image-rendering="auto" shape-rendering="auto" solid-color="#000000" stroke-linejoin="round" style="isolation:auto;mix-blend-mode:normal;paint-order:stroke fill markers"/>
<path d="m460.87-633.84 122.22-211.66 28.535 48.37-32.938 56.688 65.415 0.1718 13.941 24.17-14.236 24.721-93.112-0.294-33.464 57.69z" color="#000000" color-rendering="auto" image-rendering="auto" shape-rendering="auto" solid-color="#000000" stroke-linejoin="round" style="isolation:auto;mix-blend-mode:normal;paint-order:stroke fill markers"/>
<g transform="translate(72.039 -1799.4)" display="none" style="paint-order:stroke fill markers">
<path d="m460.61 594.73-250.86-1e-5 -125.43-217.26 125.43-217.25 250.86 1e-5 125.43 217.26z" color="#000000" display="inline" opacity=".236" stroke="#000" stroke-linejoin="round" style="paint-order:stroke fill markers"/>
<path transform="translate(0 -308.27)" d="m385.59 773.07h-100.83l-50.417-87.326 50.417-87.326 100.83 1e-5 50.417 87.326z" color="#000000" display="inline" stroke="#000" stroke-linejoin="round" style="paint-order:stroke fill markers"/>
<path transform="translate(0 -308.27)" d="m1216.6 938.53 123.05 228.14-42.681-1.2616-43.482-79.772-39.651 80.327-32.688-19.798 53.474-100.28-37.116-73.89z" stroke="#000" stroke-linejoin="round" style="paint-order:stroke fill markers"/>
<path id="rect5884" transform="rotate(-30)" d="m-34.742 446.17h48.835v226.23h-48.835z" color="#000000" color-rendering="auto" display="inline" fill="none" image-rendering="auto" opacity=".415" shape-rendering="auto" solid-color="#000000" stroke="#000" stroke-linejoin="round" stroke-opacity=".096296" stroke-width="7.8044" style="isolation:auto;mix-blend-mode:normal;paint-order:stroke fill markers"/>
<path transform="translate(0 -308.27)" d="m251.99 878.64-14.024 24.291h-28.049l-14.024-24.291 14.024-24.291h28.049z" color="#000000" color-rendering="auto" display="inline" image-rendering="auto" opacity=".509" shape-rendering="auto" solid-color="#000000" stroke="#000" stroke-linejoin="round" style="isolation:auto;mix-blend-mode:normal;paint-order:stroke fill markers"/>
<use transform="rotate(60 268.3 489.45)" width="100%" height="100%" stroke="#000000" style="paint-order:stroke fill markers" xlink:href="#rect5884"/>
<path transform="rotate(30 575.24 -154.13)" d="m545.71 467.07h5.3948v115.13h-5.3948z" color="#000000" color-rendering="auto" display="inline" image-rendering="auto" shape-rendering="auto" solid-color="#000000" stroke="#000" style="isolation:auto;mix-blend-mode:normal;paint-order:stroke fill markers"/>
</g>
</g>
<g transform="matrix(.15376 0 0 .15376 -19.187 117.87)" style="paint-order:stroke fill markers">
<path d="m309.4-710.25 122.2 211.68-56.157 0.5268-32.624-56.869-32.856 56.565-27.902-0.011-14.291-24.69 46.81-80.49-33.229-57.826z" color="#000000" color-rendering="auto" fill="#5277c3" fill-rule="evenodd" image-rendering="auto" shape-rendering="auto" solid-color="#000000" style="isolation:auto;mix-blend-mode:normal;paint-order:stroke fill markers"/>
<path d="m353.51-797.44-122.22 211.66-28.535-48.37 32.938-56.688-65.415-0.1719-13.941-24.17 14.236-24.721 93.112 0.2939 33.464-57.69z" color="#000000" color-rendering="auto" fill="#7ebae4" fill-rule="evenodd" image-rendering="auto" shape-rendering="auto" solid-color="#000000" style="isolation:auto;mix-blend-mode:normal;paint-order:stroke fill markers"/>
<path d="m362.89-628.24 244.41 0.012-27.622 48.897-65.562-0.1817 32.559 56.737-13.961 24.158-28.527 0.032-46.301-80.784-66.693-0.1353z" color="#000000" color-rendering="auto" fill="#7ebae4" fill-rule="evenodd" image-rendering="auto" shape-rendering="auto" solid-color="#000000" style="isolation:auto;mix-blend-mode:normal;paint-order:stroke fill markers"/>
<path d="m505.14-720.99-122.2-211.68 56.157-0.5268 32.624 56.869 32.856-56.565 27.902 0.011 14.291 24.69-46.81 80.49 33.229 57.826z" color="#000000" color-rendering="auto" fill="#7ebae4" fill-rule="evenodd" image-rendering="auto" shape-rendering="auto" solid-color="#000000" style="isolation:auto;mix-blend-mode:normal;paint-order:stroke fill markers"/>
<path d="m309.4-710.25 122.2 211.68-56.157 0.5268-32.624-56.869-32.856 56.565-27.902-0.011-14.291-24.69 46.81-80.49-33.229-57.826z" color="#000000" color-rendering="auto" fill="#5277c3" fill-rule="evenodd" image-rendering="auto" shape-rendering="auto" solid-color="#000000" style="isolation:auto;mix-blend-mode:normal;paint-order:stroke fill markers"/>
<path d="m451.34-803.53-244.41-0.012 27.622-48.897 65.562 0.18175-32.559-56.737 13.961-24.159 28.527-0.0315 46.301 80.784 66.693 0.13524z" color="#000000" color-rendering="auto" fill="#5277c3" fill-rule="evenodd" image-rendering="auto" shape-rendering="auto" solid-color="#000000" style="isolation:auto;mix-blend-mode:normal;paint-order:stroke fill markers"/>
<path d="m460.87-633.84 122.22-211.66 28.535 48.37-32.938 56.688 65.415 0.1718 13.941 24.17-14.236 24.721-93.112-0.294-33.464 57.69z" color="#000000" color-rendering="auto" fill="#5277c3" fill-rule="evenodd" image-rendering="auto" shape-rendering="auto" solid-color="#000000" style="isolation:auto;mix-blend-mode:normal;paint-order:stroke fill markers"/>
<g transform="translate(72.039 -1799.4)" display="none" style="paint-order:stroke fill markers">
<path d="m460.61 594.73-250.86-1e-5 -125.43-217.26 125.43-217.25 250.86 1e-5 125.43 217.26z" color="#000000" display="inline" fill="#4e4d52" opacity=".236" style="paint-order:stroke fill markers"/>
<path transform="translate(0 -308.27)" d="m385.59 773.07h-100.83l-50.417-87.326 50.417-87.326 100.83 1e-5 50.417 87.326z" color="#000000" display="inline" fill="#4e4d52" style="paint-order:stroke fill markers"/>
<path transform="translate(0 -308.27)" d="m1216.6 938.53 123.05 228.14-42.681-1.2616-43.482-79.772-39.651 80.327-32.688-19.798 53.474-100.28-37.116-73.89z" fill="url(#linearGradient5855)" fill-rule="evenodd" style="paint-order:stroke fill markers"/>
<rect transform="rotate(-30)" x="-34.742" y="446.17" width="48.835" height="226.23" color="#000000" color-rendering="auto" display="inline" fill="#c53a3a" image-rendering="auto" opacity=".415" shape-rendering="auto" solid-color="#000000" style="isolation:auto;mix-blend-mode:normal;paint-order:stroke fill markers"/>
<path transform="translate(0 -308.27)" d="m251.99 878.64-14.024 24.291h-28.049l-14.024-24.291 14.024-24.291h28.049z" color="#000000" color-rendering="auto" display="inline" fill-rule="evenodd" image-rendering="auto" opacity=".509" shape-rendering="auto" solid-color="#000000" style="isolation:auto;mix-blend-mode:normal;paint-order:stroke fill markers"/>
<use transform="rotate(60 268.3 489.45)" width="100%" height="100%" style="paint-order:stroke fill markers" xlink:href="#rect5884"/>
<rect transform="rotate(30 575.24 -154.13)" x="545.71" y="467.07" width="5.3947" height="115.13" color="#000000" color-rendering="auto" display="inline" fill-opacity=".65079" fill-rule="evenodd" image-rendering="auto" shape-rendering="auto" solid-color="#000000" style="isolation:auto;mix-blend-mode:normal;paint-order:stroke fill markers"/>
</g>
</g>
<path d="m30.145-29.678c8.3294 26.184 16.985 51.751 25.766 75.954h26.584c2.6365 0 4.7591-1.9357 4.7591-4.3402v-67.273c0-2.4045-2.1225-4.3402-4.7591-4.3402h-52.35z" color="#000000" fill="url(#linearGradient15947)" opacity=".30882"/>
</g>
</g>
</svg>
