<?xml version="1.0" encoding="UTF-8"?>
<!-- Created with Inkscape (http://www.inkscape.org/) -->
<svg version="1.1" viewBox="0 0 96 96" xmlns="http://www.w3.org/2000/svg" xmlns:cc="http://creativecommons.org/ns#" xmlns:dc="http://purl.org/dc/elements/1.1/" xmlns:rdf="http://www.w3.org/1999/02/22-rdf-syntax-ns#" xmlns:xlink="http://www.w3.org/1999/xlink">
<defs>
<linearGradient id="linearGradient4160" x2="256" y1="128" y2="128" gradientTransform="matrix(.37317 0 0 .37191 .23462 -47.604)" gradientUnits="userSpaceOnUse">
<stop stop-color="#626F70" offset="0"/>
<stop stop-color="#667374" offset=".1452"/>
<stop stop-color="#737E7F" offset=".2969"/>
<stop stop-color="#889192" offset=".4512"/>
<stop stop-color="#979FA0" offset=".5394"/>
<stop stop-color="#949C9D" offset=".6754"/>
<stop stop-color="#899293" offset=".7947"/>
<stop stop-color="#778283" offset=".9074"/>
<stop stop-color="#626F70" offset="1"/>
</linearGradient>
<linearGradient id="linearGradient4821" x2="256" y1="128" y2="128" gradientTransform="matrix(.37317 0 0 .37191 .23462 -47.604)" gradientUnits="userSpaceOnUse">
<stop stop-color="#fcfcfc" stop-opacity="0" offset="0"/>
<stop stop-color="#fff" offset=".060491"/>
<stop stop-color="#9d9d9d" stop-opacity="0" offset=".5"/>
<stop stop-color="#fafafa" offset=".93951"/>
<stop stop-color="#fff" stop-opacity="0" offset="1"/>
</linearGradient>
<filter id="filter6071-1" x="-.59544" y="-.012247" width="2.1909" height="1.0245" color-interpolation-filters="sRGB">
<feGaussianBlur stdDeviation="1.3064637"/>
</filter>
<filter id="filter6254-6" color-interpolation-filters="sRGB">
<feGaussianBlur stdDeviation="0.05126524"/>
</filter>
<radialGradient id="radialGradient4187" cx="36.593" cy="30.963" r="5.6265" gradientUnits="userSpaceOnUse">
<stop stop-color="#b7b7b7" offset="0"/>
<stop stop-color="#fff" offset=".25"/>
<stop stop-color="#9d9d9d" offset=".5"/>
<stop stop-color="#fafafa" offset=".75"/>
<stop stop-color="#b7b7b7" offset="1"/>
</radialGradient>
<filter id="filter6254-6-3" color-interpolation-filters="sRGB">
<feGaussianBlur stdDeviation="0.05126524"/>
</filter>
<filter color-interpolation-filters="sRGB">
<feGaussianBlur stdDeviation="0.5406058"/>
</filter>
<radialGradient id="radialGradient5097-4" cx="-19.698" cy="65.445" r="19.445" gradientUnits="userSpaceOnUse">
<stop stop-color="#fff" offset="0"/>
<stop stop-color="#292929" offset="1"/>
</radialGradient>
<linearGradient id="linearGradient5099-3" x1="-39.143" x2="-.25254" y1="65.445" y2="65.445" gradientTransform="matrix(1 2e-4 2e-4 1.0389 .0391 -6.0665)" gradientUnits="userSpaceOnUse">
<stop stop-color="#A8AEAF" offset="0"/>
<stop stop-color="#E8EAEA" offset=".5636"/>
<stop stop-color="#B6BBBC" offset="1"/>
</linearGradient>
<linearGradient id="linearGradient5101-6" x1="234" x2="278.41" y1="143.67" y2="143.67" gradientTransform="matrix(.20128 0 0 .29836 16.567 965.1)" gradientUnits="userSpaceOnUse" xlink:href="#SVGID_73_-1-3-7-5"/>
<linearGradient id="SVGID_73_-1-3-7-5" x1="275.7" x2="235.7" y1="108.08" y2="169.08" gradientTransform="matrix(-.92297 -.17618 -.53987 .93364 571.37 62.661)" gradientUnits="userSpaceOnUse">
<stop stop-color="#66d9de" stop-opacity="0" offset=".1273"/>
<stop stop-color="#fff" offset=".4848"/>
<stop stop-color="#f7a4ee" stop-opacity="0" offset=".8727"/>
</linearGradient>
<linearGradient id="linearGradient5103-2" x1="275.7" x2="235.7" y1="108.08" y2="169.08" gradientTransform="matrix(.20359 0 0 .30076 13.896 962.34)" gradientUnits="userSpaceOnUse" xlink:href="#SVGID_73_-1-3-7-5"/>
<linearGradient id="linearGradient5105-2" x1="275.7" x2="235.7" y1="108.08" y2="169.08" gradientTransform="matrix(-.92297 -.17618 -.53987 .93364 571.37 62.661)" gradientUnits="userSpaceOnUse" xlink:href="#SVGID_73_-1-3-7-5"/>
<radialGradient id="radialGradient4347" cx="-8.2172" cy="48.955" r="6.5918" gradientTransform="matrix(1 0 0 1.1096 0 -5.3649)" gradientUnits="userSpaceOnUse">
<stop stop-color="#b7b7b7" offset="0"/>
<stop stop-color="#fff" offset=".25"/>
<stop stop-color="#9d9d9d" offset=".5"/>
<stop stop-color="#fafafa" offset=".75"/>
<stop stop-color="#b7b7b7" offset="1"/>
</radialGradient>
<radialGradient id="radialGradient4349" cx="-8.2172" cy="48.955" r="6.5918" gradientTransform="matrix(1 0 0 1.1096 0 -5.3649)" gradientUnits="userSpaceOnUse" xlink:href="#linearGradient3832-0-6-1-1-7"/>
<linearGradient id="linearGradient3832-0-6-1-1-7">
<stop offset="0"/>
<stop stop-opacity=".58824" offset=".1"/>
<stop stop-opacity=".58824" offset=".9"/>
<stop offset="1"/>
</linearGradient>
<filter id="filter6254-6-2" color-interpolation-filters="sRGB">
<feGaussianBlur stdDeviation="0.05126524"/>
</filter>
<radialGradient id="radialGradient5045" cx="36.593" cy="30.963" r="5.6265" gradientUnits="userSpaceOnUse" xlink:href="#linearGradient3840-5"/>
<linearGradient id="linearGradient3840-5">
<stop stop-color="#bbb" offset="0"/>
<stop stop-color="#494949" offset="9.6e-7"/>
<stop stop-color="#bdbdbd" offset="1.91e-6"/>
<stop stop-color="#606060" offset="3.82e-6"/>
<stop stop-color="#c7c7c7" offset="7.63e-6"/>
<stop stop-color="#494949" offset="1.526e-5"/>
<stop stop-color="#cacaca" offset="3.052e-5"/>
<stop stop-color="#494949" offset="6.103e-5"/>
<stop stop-color="#cacaca" offset=".02431"/>
<stop stop-color="#494949" offset=".046183"/>
<stop stop-color="#cdcdcd" offset=".089853"/>
<stop stop-color="#333" offset=".13783"/>
<stop stop-color="#c9c9c9" offset=".21126"/>
<stop stop-color="#494949" offset=".35758"/>
<stop stop-color="#bbb" offset=".48785"/>
<stop stop-color="#525252" offset=".69923"/>
<stop stop-color="#afafaf" offset=".87341"/>
<stop stop-color="#575757" offset="1"/>
</linearGradient>
</defs>
<metadata>
<rdf:RDF>
<cc:Work rdf:about="">
<dc:format>image/svg+xml</dc:format>
<dc:type rdf:resource="http://purl.org/dc/dcmitype/StillImage"/>
<dc:title/>
</cc:Work>
</rdf:RDF>
</metadata>
<g transform="translate(0,48)">
<g transform="translate(2.0031e-7 -.19798)">
<rect x=".23462" y="-47.604" width="95.531" height="95.208" rx="2.9259" ry="2.3505" fill="url(#linearGradient4160)"/>
<rect x=".23462" y="-47.604" width="95.531" height="95.208" fill="url(#linearGradient4821)"/>
<rect transform="matrix(0 -.37549 -.36536 0 94.863 51.392)" x="12.25" y=".25" width="5.2658" height="256.03" fill="#fff" filter="url(#filter6071-1)" opacity=".81338" stroke="#000" stroke-linejoin="round" stroke-width=".31279"/>
<path d="m1.045 47.627c0.66535-3.4186 3.7358-5.9945 7.4503-5.9945h79.01c3.7144 0 6.7849 2.5759 7.4503 5.9945h-93.91z" fill="#303030" stroke="#e9e9e9" stroke-width=".34677"/>
<path d="m1.5855-46.956c0.65364 0.52641 3.6701 0.92307 7.3192 0.92307h77.619c3.6491 0 6.6655-0.39666 7.3192-0.92307h-92.258z" fill-opacity=".98367" stroke="#eee" stroke-linejoin="round" stroke-width=".4884"/>
<g transform="matrix(.44638 0 0 .27278 -88.41 -7.4489)">
<g transform="matrix(1.2587 0 0 1.2587 173.44 152.58)" fill="#ecfafe" fill-opacity=".94186" filter="url(#filter6254-6)" stroke="#151515" stroke-opacity=".97674" stroke-width="1.8">
<path d="m39.862 28.202-6.538 5.5231m0.61733-6.1203c5.3033 6.7175 5.3033 6.7175 5.3033 6.7175m2.4749-3.3588c0 2.8313-2.2952 5.1265-5.1265 5.1265s-5.1265-2.2952-5.1265-5.1265 2.2952-5.1265 5.1265-5.1265 5.1265 2.2952 5.1265 5.1265z" fill="#ecfafe" fill-opacity=".94186" stroke="#151515" stroke-opacity=".97674" stroke-width="1.8"/>
</g>
<g transform="matrix(1.2587 0 0 1.2587 173.07 152.71)">
<path d="m39.862 28.202-6.538 5.5231m0.61733-6.1203c5.3033 6.7175 5.3033 6.7175 5.3033 6.7175m2.4749-3.3588c0 2.8313-2.2952 5.1265-5.1265 5.1265s-5.1265-2.2952-5.1265-5.1265 2.2952-5.1265 5.1265-5.1265 5.1265 2.2952 5.1265 5.1265z" fill="none" stroke="url(#radialGradient4187)" stroke-width="1px"/>
</g>
</g>
<rect x="23.96" y="43.875" width="7.7945" height="1.8539" rx="2.111" ry=".92694" fill="#fffff7" stroke="#3edb1b" stroke-linejoin="round" stroke-width=".39469"/>
<g transform="matrix(.44638 0 0 .27278 -11.267 -7.4489)">
<g transform="matrix(1.2587 0 0 1.2587 173.44 152.58)" fill="#ecfafe" fill-opacity=".94186" filter="url(#filter6254-6-3)" stroke="#151515" stroke-opacity=".97674" stroke-width="1.8">
<path d="m39.862 28.202-6.538 5.5231m0.61733-6.1203c5.3033 6.7175 5.3033 6.7175 5.3033 6.7175m2.4749-3.3588c0 2.8313-2.2952 5.1265-5.1265 5.1265s-5.1265-2.2952-5.1265-5.1265 2.2952-5.1265 5.1265-5.1265 5.1265 2.2952 5.1265 5.1265z" fill="#ecfafe" fill-opacity=".94186" stroke="#151515" stroke-opacity=".97674" stroke-width="1.8"/>
</g>
<g transform="matrix(1.2587 0 0 1.2587 173.07 152.71)">
<path d="m39.862 28.202-6.538 5.5231m0.61733-6.1203c5.3033 6.7175 5.3033 6.7175 5.3033 6.7175m2.4749-3.3588c0 2.8313-2.2952 5.1265-5.1265 5.1265s-5.1265-2.2952-5.1265-5.1265 2.2952-5.1265 5.1265-5.1265 5.1265 2.2952 5.1265 5.1265z" fill="none" stroke="url(#radialGradient4187)" stroke-width="1px"/>
</g>
</g>
<rect x="58.265" y="43.226" width="2.0421" height="3.1516" fill="#f8fef4" stroke="#0fe033" stroke-width=".26218"/>
<rect x="62.408" y="43.226" width="2.0421" height="3.1516" fill="#f8fef4" stroke="#0fe033" stroke-width=".26218"/>
<rect x="67.122" y="43.226" width="2.0421" height="3.1516" fill="#f8fef4" stroke="#0fe033" stroke-width=".26218"/>
<rect x="71.836" y="43.226" width="2.0421" height="3.1516" fill="#f8fef4" stroke="#0fe033" stroke-width=".26218"/>
<g transform="translate(-199.16 -36.785)">
<g transform="translate(2.8461 -162.71)">
<g transform="matrix(.36853 0 0 .37148 -2.0182 163.26)">
<g transform="matrix(1.034 0 0 1.0011 -548.98 -1067.4)">
<g transform="matrix(.42139 .1651 -.089866 1.1885 1052.1 960.81)">
<g transform="matrix(7.6482 -1.0625 .70273 3.2951 -705.13 -3123.4)">
<g transform="matrix(.99632 0 0 1.0073 -22.831 -7.1705)">
<g transform="translate(0 -8.1786)">
<path d="m97.26 1008.9c0 13.85-14.093 25.078-31.477 25.078-17.384 0-31.477-11.228-31.477-25.078 0-13.85 14.093-25.078 31.477-25.078 17.384 0 31.477 11.228 31.477 25.078z" fill="#454545" fill-opacity=".59657"/>
<path transform="matrix(1.5871 0 0 1.2918 97.081 921.61)" d="m-0.25254 65.445c0 10.739-8.706 19.445-19.445 19.445-10.739 0-19.445-8.706-19.445-19.445s8.706-19.445 19.445-19.445c10.739 0 19.445 8.706 19.445 19.445z" fill="url(#radialGradient5097-4)" stroke="#fff" stroke-linejoin="round" stroke-opacity=".57534" stroke-width=".24155"/>
<path transform="matrix(1.5428 0 0 1.2275 96.209 925.24)" d="m-0.25254 65.445c0 10.739-8.706 19.445-19.445 19.445-10.739 0-19.445-8.706-19.445-19.445s8.706-19.445 19.445-19.445c10.739 0 19.445 8.706 19.445 19.445z" fill="url(#linearGradient5099-3)"/>
<path transform="matrix(.94242 0 0 .99687 2.9763 1.1612)" d="m96.943 1007.8c0.04408 13.215-13.165 24.023-29.5 24.142-16.337 0.119-29.617-10.496-29.661-23.711-0.04388-13.215 13.164-24.023 29.502-24.143 16.336-0.12024 29.615 10.495 29.659 23.71z" fill="url(#linearGradient5101-6)" opacity=".85887"/>
<path d="m95.192 1005.3c0.0446 13.321-13.315 24.217-29.838 24.337-16.524 0.1201-29.956-10.581-30.001-23.902-0.04438-13.321 13.315-24.217 29.84-24.337 16.523-0.12121 29.954 10.58 29.999 23.901z" fill="url(#linearGradient5103-2)" opacity=".85887"/>
<path transform="matrix(.20248 0 0 .29755 14.254 962.62)" d="m112.03 139.42c-2.462 18.627-0.86457 58.14 66.294 69.163 39.936 6.5546 184.76-18.039 208.88-59.354 15.582-27.182-1.8582-60.35-82.643-71.697-74.7-14.677-177.92 32.878-202.03 74.191z" fill="url(#linearGradient5105-2)" opacity=".85887"/>
<g transform="matrix(.20128 0 0 .29067 15.147 965.21)">
<g transform="matrix(.90929 0 0 .94727 27.567 5.8712)">
<g transform="translate(-.6035 5.2245)"></g>
</g>
</g>
<g transform="translate(-1.7382 -10.706)">
<g transform="translate(-.54169 5.562e-8)" fill-rule="evenodd">
<path transform="matrix(1.1775 -1.209e-7 0 .86825 78.055 972.8)" d="m-1.6254 48.955c0 4.0395-2.9512 7.3142-6.5918 7.3142-3.6405 0-6.5918-3.2747-6.5918-7.3142s2.9512-7.3142 6.5918-7.3142c3.6405 0 6.5918 3.2747 6.5918 7.3142z"/>
<path transform="matrix(1.1775 -1.209e-7 0 .81921 78.055 974.84)" d="m-1.6254 48.955c0 4.0395-2.9512 7.3142-6.5918 7.3142-3.6405 0-6.5918-3.2747-6.5918-7.3142s2.9512-7.3142 6.5918-7.3142c3.6405 0 6.5918 3.2747 6.5918 7.3142z" fill="url(#radialGradient4347)"/>
<path transform="matrix(.64734 -6.6467e-8 0 .45036 73.897 992.61)" d="m-1.6254 48.955c0 4.0395-2.9512 7.3142-6.5918 7.3142-3.6405 0-6.5918-3.2747-6.5918-7.3142s2.9512-7.3142 6.5918-7.3142c3.6405 0 6.5918 3.2747 6.5918 7.3142z" fill="url(#radialGradient4349)"/>
<path transform="matrix(.18541 -1.9037e-8 0 .12899 65.049 1006)" d="m-1.6254 48.955c0 4.0395-2.9512 7.3142-6.5918 7.3142-3.6405 0-6.5918-3.2747-6.5918-7.3142s2.9512-7.3142 6.5918-7.3142c3.6405 0 6.5918 3.2747 6.5918 7.3142z" fill="url(#radialGradient4349)"/>
<path transform="matrix(.18541 -1.9037e-8 0 .12899 64.619 1010.7)" d="m-1.6254 48.955c0 4.0395-2.9512 7.3142-6.5918 7.3142-3.6405 0-6.5918-3.2747-6.5918-7.3142s2.9512-7.3142 6.5918-7.3142c3.6405 0 6.5918 3.2747 6.5918 7.3142z" fill="url(#radialGradient4349)"/>
<path transform="matrix(.18541 -1.9037e-8 0 .12899 70.21 1013.1)" d="m-1.6254 48.955c0 4.0395-2.9512 7.3142-6.5918 7.3142-3.6405 0-6.5918-3.2747-6.5918-7.3142s2.9512-7.3142 6.5918-7.3142c3.6405 0 6.5918 3.2747 6.5918 7.3142z" fill="url(#radialGradient4349)"/>
<path transform="matrix(.18541 -1.9037e-8 0 .12899 70.21 1003.9)" d="m-1.6254 48.955c0 4.0395-2.9512 7.3142-6.5918 7.3142-3.6405 0-6.5918-3.2747-6.5918-7.3142s2.9512-7.3142 6.5918-7.3142c3.6405 0 6.5918 3.2747 6.5918 7.3142z" fill="url(#radialGradient4349)"/>
<path transform="matrix(-.18541 1.9037e-8 0 .12899 72.323 1006.5)" d="m-1.6254 48.955c0 4.0395-2.9512 7.3142-6.5918 7.3142-3.6405 0-6.5918-3.2747-6.5918-7.3142s2.9512-7.3142 6.5918-7.3142c3.6405 0 6.5918 3.2747 6.5918 7.3142z" fill="url(#radialGradient4349)"/>
<path transform="matrix(-.18541 1.9037e-8 0 .12899 72.323 1010.7)" d="m-1.6254 48.955c0 4.0395-2.9512 7.3142-6.5918 7.3142-3.6405 0-6.5918-3.2747-6.5918-7.3142s2.9512-7.3142 6.5918-7.3142c3.6405 0 6.5918 3.2747 6.5918 7.3142z" fill="url(#radialGradient4349)"/>
</g>
</g>
</g>
</g>
</g>
</g>
</g>
<path transform="matrix(2.7135 0 0 2.692 630.37 -49.062)" d="m-16.846 18.705c0 2.0524-1.6638 3.7161-3.7161 3.7161-2.0524 0-3.7161-1.6638-3.7161-3.7161 0-2.0524 1.6638-3.7161 3.7161-3.7161 2.0524 0 3.7161 1.6638 3.7161 3.7161z" fill-opacity=".63566"/>
<path transform="matrix(2.7135 0 0 2.692 818.33 144.86)" d="m-16.846 18.705c0 2.0524-1.6638 3.7161-3.7161 3.7161-2.0524 0-3.7161-1.6638-3.7161-3.7161 0-2.0524 1.6638-3.7161 3.7161-3.7161 2.0524 0 3.7161 1.6638 3.7161 3.7161z" fill-opacity=".71705"/>
<path transform="matrix(2.7135 0 0 2.692 817.11 -48.204)" d="m-16.846 18.705c0 2.0524-1.6638 3.7161-3.7161 3.7161-2.0524 0-3.7161-1.6638-3.7161-3.7161 0-2.0524 1.6638-3.7161 3.7161-3.7161 2.0524 0 3.7161 1.6638 3.7161 3.7161z" fill-opacity=".69767"/>
<path transform="matrix(2.7135 0 0 2.692 628.94 143.25)" d="m-16.846 18.705c0 2.0524-1.6638 3.7161-3.7161 3.7161-2.0524 0-3.7161-1.6638-3.7161-3.7161 0-2.0524 1.6638-3.7161 3.7161-3.7161 2.0524 0 3.7161 1.6638 3.7161 3.7161z" fill-opacity=".62403"/>
<g transform="translate(539.93 -23.421)">
<g transform="matrix(1.2741 0 0 1.2741 -57.606 -23.289)">
<g transform="matrix(1.2587 0 0 1.2587 173.44 152.58)" fill="#ecfafe" fill-opacity=".94186" filter="url(#filter6254-6-2)" stroke="#151515" stroke-opacity=".97674" stroke-width="1.8">
<path d="m39.862 28.202-6.538 5.5231m0.61733-6.1203c5.3033 6.7175 5.3033 6.7175 5.3033 6.7175m2.4749-3.3588c0 2.8313-2.2952 5.1265-5.1265 5.1265s-5.1265-2.2952-5.1265-5.1265 2.2952-5.1265 5.1265-5.1265 5.1265 2.2952 5.1265 5.1265z" fill="#ecfafe" fill-opacity=".94186" stroke="#151515" stroke-opacity=".97674" stroke-width="1.8"/>
</g>
<g transform="matrix(1.2587 0 0 1.2587 173.07 152.71)">
<path d="m39.862 28.202-6.538 5.5231m0.61733-6.1203c5.3033 6.7175 5.3033 6.7175 5.3033 6.7175m2.4749-3.3588c0 2.8313-2.2952 5.1265-5.1265 5.1265s-5.1265-2.2952-5.1265-5.1265 2.2952-5.1265 5.1265-5.1265 5.1265 2.2952 5.1265 5.1265z" fill="none" stroke="url(#radialGradient5045)" stroke-width="1px"/>
</g>
</g>
<g transform="matrix(1.2284 0 0 1.2284 -233.39 -212.12)">
<g transform="matrix(1.2587 0 0 1.2587 173.44 152.58)" fill="#ecfafe" fill-opacity=".94186" filter="url(#filter6254-6-2)" stroke="#151515" stroke-opacity=".97674" stroke-width="1.8">
<path d="m39.862 28.202-6.538 5.5231m0.61733-6.1203c5.3033 6.7175 5.3033 6.7175 5.3033 6.7175m2.4749-3.3588c0 2.8313-2.2952 5.1265-5.1265 5.1265s-5.1265-2.2952-5.1265-5.1265 2.2952-5.1265 5.1265-5.1265 5.1265 2.2952 5.1265 5.1265z" fill="#ecfafe" fill-opacity=".94186" stroke="#151515" stroke-opacity=".97674" stroke-width="1.8"/>
</g>
<g transform="matrix(1.2587 0 0 1.2587 173.07 152.71)">
<path d="m39.862 28.202-6.538 5.5231m0.61733-6.1203c5.3033 6.7175 5.3033 6.7175 5.3033 6.7175m2.4749-3.3588c0 2.8313-2.2952 5.1265-5.1265 5.1265s-5.1265-2.2952-5.1265-5.1265 2.2952-5.1265 5.1265-5.1265 5.1265 2.2952 5.1265 5.1265z" fill="none" stroke="url(#radialGradient5045)" stroke-width="1px"/>
</g>
</g>
<g transform="matrix(1.2284 0 0 1.2284 -47.885 -211.44)">
<g transform="matrix(1.2587 0 0 1.2587 173.44 152.58)" fill="#ecfafe" fill-opacity=".94186" filter="url(#filter6254-6-2)" stroke="#151515" stroke-opacity=".97674" stroke-width="1.8">
<path d="m39.862 28.202-6.538 5.5231m0.61733-6.1203c5.3033 6.7175 5.3033 6.7175 5.3033 6.7175m2.4749-3.3588c0 2.8313-2.2952 5.1265-5.1265 5.1265s-5.1265-2.2952-5.1265-5.1265 2.2952-5.1265 5.1265-5.1265 5.1265 2.2952 5.1265 5.1265z" fill="#ecfafe" fill-opacity=".94186" stroke="#151515" stroke-opacity=".97674" stroke-width="1.8"/>
</g>
<g transform="matrix(1.2587 0 0 1.2587 173.07 152.71)">
<path d="m39.862 28.202-6.538 5.5231m0.61733-6.1203c5.3033 6.7175 5.3033 6.7175 5.3033 6.7175m2.4749-3.3588c0 2.8313-2.2952 5.1265-5.1265 5.1265s-5.1265-2.2952-5.1265-5.1265 2.2952-5.1265 5.1265-5.1265 5.1265 2.2952 5.1265 5.1265z" fill="none" stroke="url(#radialGradient5045)" stroke-width="1px"/>
</g>
</g>
<g transform="matrix(1.2741 0 0 1.2741 -244.74 -25.971)">
<g transform="matrix(1.2587 0 0 1.2587 173.44 152.58)" fill="#ecfafe" fill-opacity=".94186" filter="url(#filter6254-6-2)" stroke="#151515" stroke-opacity=".97674" stroke-width="1.8">
<path d="m39.862 28.202-6.538 5.5231m0.61733-6.1203c5.3033 6.7175 5.3033 6.7175 5.3033 6.7175m2.4749-3.3588c0 2.8313-2.2952 5.1265-5.1265 5.1265s-5.1265-2.2952-5.1265-5.1265 2.2952-5.1265 5.1265-5.1265 5.1265 2.2952 5.1265 5.1265z" fill="#ecfafe" fill-opacity=".94186" stroke="#151515" stroke-opacity=".97674" stroke-width="1.8"/>
</g>
<g transform="matrix(1.2587 0 0 1.2587 173.07 152.71)">
<path d="m39.862 28.202-6.538 5.5231m0.61733-6.1203c5.3033 6.7175 5.3033 6.7175 5.3033 6.7175m2.4749-3.3588c0 2.8313-2.2952 5.1265-5.1265 5.1265s-5.1265-2.2952-5.1265-5.1265 2.2952-5.1265 5.1265-5.1265 5.1265 2.2952 5.1265 5.1265z" fill="none" stroke="url(#radialGradient5045)" stroke-width="1px"/>
</g>
</g>
</g>
</g>
</g>
<g transform="matrix(1.0909 0 0 1.092 291.66 -12.963)">
<g transform="matrix(1.0445 0 0 1.0335 -.07215 -1.8249)">
<g transform="matrix(.87759 0 0 .88613 -322.89 -250.49)">
<g transform="translate(.59996 -.8)" clip-rule="evenodd" fill-rule="evenodd">
<g transform="translate(-2.0999 1.1)" fill="#a2a2a2">
<path d="m326.13 347.54c0.38213-0.46025 2.442-2.8993 2.442-2.8993h7.7758c3.9372 0 6.6909 2.0625 6.061 4.7121-0.6288 2.6504-4.381 4.7123-8.2998 4.7123h-5.2123l1.5638-6.5824h3.675l-1.0709 4.5078h0.82462c2.1941 0 4.2709-0.80039 4.7077-2.6377 0.40095-1.6871-1.0544-2.637-3.4168-2.637h-0.86205l-3.5765 3e-3 -8.4431 9.5295-3.3158-9.3633s-0.024-0.0602-0.0547-0.14065c-8e-3 -0.0197-0.071-0.0854-0.10491-0.0727-0.0618 0.0229-0.0519 0.13025-0.0411 0.15341 0.0271 0.0577 0.0348 0.0793 0.0424 0.10774 0.296 0.72291 0.31287 1.9353 0.19258 2.4202-0.65586 2.6442-4.3817 4.7123-8.3001 4.7123h-5.2123l1.564-6.582h3.6748l-1.0709 4.5076h0.82484c2.1936 0 4.2588-0.80038 4.6952-2.6376 0.40073-1.6871-1.0423-2.637-3.4045-2.637h-0.86227l-3.6748-2e-3 0.4927-2.0736h4.8692l6.458-9e-3v9e-3h2.6591s0.75062 2.1993 0.98344 2.8644c1.1141 3.1825 0.92957 3.3974 0.92957 3.3974s-0.13438-0.20534 2.4873-3.3628z"/>
<path d="m306.04 358.83c0-1.4052 8.0413-2.545 17.96-2.545 9.9188 0 17.959 1.1399 17.959 2.545 0 1.4065-8.0406 2.5464-17.959 2.5464-9.9184-2.2e-4 -17.96-1.1399-17.96-2.5464zm17.31 0.89928c2.2653 0 4.1012-0.38039 4.1012-0.84864 0-0.46911-1.836-0.84908-4.1012-0.84908-2.2648 0-4.1008 0.37997-4.1008 0.84908 0 0.46825 1.836 0.84864 4.1008 0.84864z"/>
</g>
<g transform="translate(-1.1999 .5)" fill="#fff">
<path d="m326.13 347.54c0.38213-0.46025 2.442-2.8993 2.442-2.8993h7.7758c3.9372 0 6.6909 2.0625 6.061 4.7121-0.6288 2.6504-4.381 4.7123-8.2998 4.7123h-5.2123l1.5638-6.5824h3.675l-1.0709 4.5078h0.82462c2.1941 0 4.2709-0.80039 4.7077-2.6377 0.40095-1.6871-1.0544-2.637-3.4168-2.637h-0.86205l-3.5765 3e-3 -8.4431 9.5295-3.3158-9.3633s-0.024-0.0602-0.0547-0.14065c-8e-3 -0.0197-0.071-0.0854-0.10491-0.0727-0.0618 0.0229-0.0519 0.13025-0.0411 0.15341 0.0271 0.0577 0.0348 0.0793 0.0424 0.10774 0.296 0.72291 0.31287 1.9353 0.19258 2.4202-0.65586 2.6442-4.3817 4.7123-8.3001 4.7123h-5.2123l1.564-6.582h3.6748l-1.0709 4.5076h0.82484c2.1936 0 4.2588-0.80038 4.6952-2.6376 0.40073-1.6871-1.0423-2.637-3.4045-2.637h-0.86227l-3.6748-2e-3 0.4927-2.0736h4.8692l6.458-9e-3v9e-3h2.6591s0.75062 2.1993 0.98344 2.8644c1.1141 3.1825 0.92957 3.3974 0.92957 3.3974s-0.13438-0.20534 2.4873-3.3628z"/>
<path d="m306.04 358.83c0-1.4052 8.0413-2.545 17.96-2.545 9.9188 0 17.959 1.1399 17.959 2.545 0 1.4065-8.0406 2.5464-17.959 2.5464-9.9184-2.2e-4 -17.96-1.1399-17.96-2.5464zm17.31 0.89928c2.2653 0 4.1012-0.38039 4.1012-0.84864 0-0.46911-1.836-0.84908-4.1012-0.84908-2.2648 0-4.1008 0.37997-4.1008 0.84908 0 0.46825 1.836 0.84864 4.1008 0.84864z"/>
</g>
<path d="m326.13 347.54c0.38213-0.46025 2.442-2.8993 2.442-2.8993h7.7758c3.9372 0 6.6909 2.0625 6.061 4.7121-0.6288 2.6504-4.381 4.7123-8.2998 4.7123h-5.2123l1.5638-6.5824h3.675l-1.0709 4.5078h0.82462c2.1941 0 4.2709-0.80039 4.7077-2.6377 0.40095-1.6871-1.0544-2.637-3.4168-2.637h-0.86205l-3.5765 3e-3 -8.4431 9.5295-3.3158-9.3633s-0.024-0.0602-0.0547-0.14065c-8e-3 -0.0197-0.071-0.0854-0.10491-0.0727-0.0618 0.0229-0.0519 0.13025-0.0411 0.15341 0.0271 0.0577 0.0348 0.0793 0.0424 0.10774 0.296 0.72291 0.31287 1.9353 0.19258 2.4202-0.65586 2.6442-4.3817 4.7123-8.3001 4.7123h-5.2123l1.564-6.582h3.6748l-1.0709 4.5076h0.82484c2.1936 0 4.2588-0.80038 4.6952-2.6376 0.40073-1.6871-1.0423-2.637-3.4045-2.637h-0.86227l-3.6748-2e-3 0.4927-2.0736h4.8692l6.458-9e-3v9e-3h2.6591s0.75062 2.1993 0.98344 2.8644c1.1141 3.1825 0.92957 3.3974 0.92957 3.3974s-0.13438-0.20534 2.4873-3.3628z" fill="#626262"/>
<path d="m306.04 358.83c0-1.4052 8.0413-2.545 17.96-2.545 9.9188 0 17.959 1.1399 17.959 2.545 0 1.4065-8.0406 2.5464-17.959 2.5464-9.9184-2.2e-4 -17.96-1.1399-17.96-2.5464zm17.31 0.89928c2.2653 0 4.1012-0.38039 4.1012-0.84864 0-0.46911-1.836-0.84908-4.1012-0.84908-2.2648 0-4.1008 0.37997-4.1008 0.84908 0 0.46825 1.836 0.84864 4.1008 0.84864z" fill="#616161"/>
</g>
</g>
</g>
</g>
</g>
</g>
</g>
</svg>
