<?xml version="1.0" encoding="UTF-8"?>
<!-- Created with Inkscape (http://www.inkscape.org/) -->
<svg version="1.0" viewBox="0 0 96 96" xmlns="http://www.w3.org/2000/svg" xmlns:cc="http://creativecommons.org/ns#" xmlns:dc="http://purl.org/dc/elements/1.1/" xmlns:rdf="http://www.w3.org/1999/02/22-rdf-syntax-ns#" xmlns:xlink="http://www.w3.org/1999/xlink">
<defs>
<linearGradient id="ButtonShadow" x1="45.448" x2="45.448" y1="92.54" y2="7.0165" gradientTransform="scale(1.0059 .99417)" gradientUnits="userSpaceOnUse">
<stop offset="0"/>
<stop stop-opacity=".58824" offset="1"/>
</linearGradient>
<filter id="filter3174" color-interpolation-filters="sRGB">
<feGaussianBlur stdDeviation="1.71"/>
</filter>
<clipPath id="clipPath4156-4">
<path d="m27.046-55.695-14.214 13.321h0.06127l15.653 21.771 10.231-10.546c-0.2169-1.1522-11.311-23.67-11.732-24.546zm-17.399 16.313-14.888 14.062 21.229 17.515 10.385-10.577-16.726-21zm31.491 12.951-9.7413 9.7136 8.9448 12.458 7.7808-7.555-6.9843-14.617zm-49.84 4.3788-13.754 12.982 26.283 13.846 0.06127-0.0617-0.12253-0.0617 9.8332-10.053-22.301-16.652zm38.015 7.4008-9.8025 9.7753 11.579 9.5594 7.6276-7.4008-8.6691-11.009-0.73519-0.9251zm20.187 5.674-7.3825 7.2158 6.1878 8.5418 5.8202-6.1365-4.6256-9.6211zm-32.195 6.3215-9.5575 9.4977 13.662 7.185 7.9339-7.6784-12.039-9.0043zm23.312 2.3744-7.1068 6.9383 8.3628 6.9074 5.3608-5.674-0.06127-0.0925-0.0919 0.12335-6.4635-8.2026zm-8.7304 8.5418-7.5051 7.3392 10.354 5.4581c1.3975-1.321 5.6751-6.1229 5.8509-6.3215l-8.6997-6.4757z" fill="#fff" opacity=".6"/>
</clipPath>
<linearGradient id="linearGradient4133">
<stop stop-color="#fff" offset="0"/>
<stop stop-color="#fff" stop-opacity="0" offset="1"/>
</linearGradient>
<linearGradient id="linearGradient7426" x1="6" x2="90" y1="47" y2="47" gradientTransform="matrix(1.1071 0 0 1.1071 2.9011 -18.701)" gradientUnits="userSpaceOnUse">
<stop stop-color="#c1adad" offset="0"/>
<stop stop-color="#fff" offset=".25"/>
<stop stop-color="#aa9090" offset=".5"/>
<stop stop-color="#fbf9f9" offset=".75"/>
<stop stop-color="#c1adad" offset="1"/>
</linearGradient>
<radialGradient id="radialGradient7428" cx="158" cy="6.2132" r="41" gradientTransform="matrix(0 1.6209 -2.0383 0 160.66 -243.04)" gradientUnits="userSpaceOnUse">
<stop stop-color="#fff" offset="0"/>
<stop stop-color="#fff" stop-opacity="0" offset="1"/>
</radialGradient>
<radialGradient id="radialGradient7430" cx="48" cy="-27" r="42" gradientTransform="matrix(-1.0722 0 0 -.87502 199.46 -19.126)" gradientUnits="userSpaceOnUse">
<stop stop-color="#fff" offset="0"/>
<stop stop-color="#fff" offset=".8"/>
<stop stop-color="#fff" stop-opacity="0" offset="1"/>
</radialGradient>
<linearGradient id="linearGradient7460" x1="1.5" x2="94.5" y1="88.172" y2="88.172" gradientTransform="translate(8.044 -14.666)" gradientUnits="userSpaceOnUse">
<stop offset="0"/>
<stop stop-opacity=".58824" offset=".1"/>
<stop stop-opacity=".58824" offset=".9"/>
<stop offset="1"/>
</linearGradient>
<radialGradient id="radialGradient7462" cx="13.948" cy="44.893" r="43.199" gradientTransform="matrix(.97513 0 0 .049191 41.943 65.501)" gradientUnits="userSpaceOnUse" xlink:href="#linearGradient4133"/>
<radialGradient id="radialGradient7464" cx="13.948" cy="44.893" r="43.199" gradientTransform="matrix(.88833 0 0 .049191 16.069 -98.752)" gradientUnits="userSpaceOnUse" xlink:href="#linearGradient4133"/>
<linearGradient id="linearGradient7466" x1="2.7714" x2="50.528" y1="-28.642" y2="14.514" gradientUnits="userSpaceOnUse">
<stop stop-color="#fff" offset="0"/>
<stop stop-color="#fff" stop-opacity="0" offset="1"/>
</linearGradient>
<filter id="filter3174-3" color-interpolation-filters="sRGB">
<feGaussianBlur stdDeviation="1.71"/>
</filter>
<filter id="filter3174-5" color-interpolation-filters="sRGB">
<feGaussianBlur stdDeviation="1.71"/>
</filter>
<linearGradient id="linearGradient3688-8-4" x1="48" x2="48" y1="40" y2="88" gradientTransform="matrix(.93601 0 0 .95793 3.1799 3.7865)" gradientUnits="userSpaceOnUse">
<stop stop-color="#fff" offset="0"/>
<stop stop-color="#ddd" offset="1"/>
</linearGradient>
<linearGradient id="linearGradient3710-5-4" x1="48" x2="48" y1="90" y2="84" gradientTransform="matrix(1 0 0 .66667 0 30)" gradientUnits="userSpaceOnUse">
<stop stop-color="#f30" offset="0"/>
<stop stop-color="#ff481a" offset="1"/>
</linearGradient>
<linearGradient id="linearGradient3760-9-9" x1="48" x2="47.801" y1="36" y2="6.064" gradientUnits="userSpaceOnUse">
<stop stop-color="#a4a4a4" offset="0"/>
<stop stop-color="#cecece" offset="1"/>
</linearGradient>
<linearGradient id="linearGradient3796-2-7" x1="51" x2="75" y1="23" y2="30" gradientUnits="userSpaceOnUse" xlink:href="#linearGradient4133" spreadMethod="reflect"/>
<linearGradient id="linearGradient3733-9-7" x1="36" x2="36" y1="37" y2="5.9356" gradientUnits="userSpaceOnUse" xlink:href="#linearGradient4133"/>
<linearGradient id="linearGradient3835-0-6" x1="12" x2="12" y1="79" y2="85" gradientUnits="userSpaceOnUse" xlink:href="#linearGradient3829-3-1"/>
<linearGradient id="linearGradient3829-3-1">
<stop stop-opacity=".34109" offset="0"/>
<stop stop-color="#7f7f7f" stop-opacity="0" offset=".5"/>
<stop stop-color="#fff" stop-opacity=".20155" offset="1"/>
</linearGradient>
<linearGradient id="linearGradient4158" x1="12" x2="12" y1="79" y2="85" gradientTransform="translate(70)" gradientUnits="userSpaceOnUse" xlink:href="#linearGradient3829-3-1"/>
</defs>
<metadata>
<rdf:RDF>
<cc:Work rdf:about="">
<dc:format>image/svg+xml</dc:format>
<dc:type rdf:resource="http://purl.org/dc/dcmitype/StillImage"/>
<dc:title/>
</cc:Work>
</rdf:RDF>
</metadata>
<g display="none">
<rect x="5" y="7" width="86" height="85" rx="6" ry="6" fill="url(#ButtonShadow)" filter="url(#filter3174)" opacity=".9"/>
</g>
<g transform="translate(-1e-6,32)">
<g transform="translate(-8.044 -17.334)">
<path d="m97.187-14.666h-82.286c-3.7988 0-6.8571 3.0583-6.8571 6.8571v82.286c0 3.7989 3.0583 6.8571 6.8571 6.8571h82.286c3.7989 0 6.8571-3.0583 6.8571-6.8571v-82.286c0-3.7989-3.0583-6.8571-6.8571-6.8571z" opacity=".15"/>
<path d="m96.544-13.916h-81c-3.7395 0-6.75 3.0105-6.75 6.75v81c0 3.7395 3.0105 6.75 6.75 6.75h81c3.7395 0 6.75-3.0105 6.75-6.75v-81c0-3.7395-3.0105-6.75-6.75-6.75z" opacity=".15"/>
<path d="m95.901-13.166h-79.714c-3.6801 0-6.6429 2.9627-6.6429 6.6429v79.714c0 3.6801 2.9627 6.6429 6.6429 6.6429h79.714c3.6801 0 6.6429-2.9627 6.6429-6.6429v-79.714c0-3.6801-2.9627-6.6429-6.6429-6.6429z" fill="url(#linearGradient7426)"/>
<rect transform="translate(8.044 -14.666)" x="5.7927" y="6.2128" width="84.846" height="77.52" ry="4.25" fill-opacity=".76735" stroke="#fff" stroke-linecap="round" stroke-linejoin="round" stroke-width=".4"/>
<g transform="matrix(1 0 0 .8873 8.044 -13.256)">
<path d="m18 6v26c0 2.216 1.784 4 4 4h52c2.216 0 4-1.784 4-4v-26h-60zm0.96875 0.96875h58.062v25.031c0 1.6894-1.3419 3.0312-3.0312 3.0312h-52c-1.6894 0-3.0312-1.3419-3.0312-3.0312v-25.031z" color="#000000" opacity=".1"/>
<path d="m18 6v26c0 2.216 1.784 4 4 4h52c2.216 0 4-1.784 4-4v-26h-60z" color="#000000" opacity=".1"/>
<rect x="18" y="42" width="60" height="48" color="#000000" fill="url(#linearGradient3688-8-4)"/>
<rect x="22" y="86" width="52" height="4" color="#000000" fill="url(#linearGradient3710-5-4)"/>
<path d="m32 6v26c0 2.216 1.784 4 4 4h38c2.216 0 4-1.784 4-4v-26h-46zm24 6h12v20h-12v-20z" color="#000000" fill="url(#linearGradient3760-9-9)"/>
<path d="m31 6v26c0 2.216 1.784 4 4 4h1c-2.216 0-4-1.784-4-4v-26h-1z" color="#000000" opacity=".2"/>
<path d="m32 6v26c0 2.216 1.784 4 4 4h38c2.216 0 4-1.784 4-4v-26h-46zm24 6h12v20h-12v-20z" color="#000000" fill="url(#linearGradient3796-2-7)" opacity=".5"/>
<rect x="22" y="80" width="52" height="1" color="#000000" fill="#f30" opacity=".2"/>
<rect x="22" y="72" width="52" height="1" color="#000000" fill="#f30" opacity=".2"/>
<rect x="22" y="64" width="52" height="1" color="#000000" fill="#f30" opacity=".2"/>
<rect x="22" y="56" width="52" height="1" color="#000000" fill="#f30" opacity=".2"/>
<rect x="22" y="48" width="52" height="1" color="#000000" fill="#f30" opacity=".2"/>
<path d="m32 6v1h46v-1h-46zm24 26v1h12v-1h-12z" color="#000000" fill="#fff" opacity=".6"/>
<path d="m17 6v26c0 2.7555 2.2445 5 5 5h52c2.7555 0 5-2.2445 5-5v-26h-1v26c0 2.216-1.784 4-4 4h-52c-2.216 0-4-1.784-4-4v-26h-1z" color="#000000" fill="url(#linearGradient3733-9-7)" opacity=".1"/>
<path d="m56 12v20h1v-19h10v19h1v-20h-12z" color="#000000" opacity=".3"/>
<path d="m13 13-3 5h2v6h2v-6h2l-3-5z" fill="#313131"/>
<path d="m13 13-3 5h0.59375l2.4062-4 2.4062 4h0.59375l-3-5z" opacity=".2"/>
<path d="m10.594 18-0.59375 1h2v-1h-1.4062zm3.4062 0v1h2l-0.59375-1h-1.4062zm-2 6v1h2v-1h-2z" fill="#fff" opacity=".15"/>
<path d="m9 79v6h8v-6h-8zm1 1h6v4h-6v-4z" color="#000000" fill="url(#linearGradient3835-0-6)"/>
<path d="m79 79v6h8v-6h-8zm1 1h6v4h-6v-4z" color="#000000" fill="url(#linearGradient4158)"/>
</g>
<g transform="matrix(1.1071 0 0 1.1071 -107.81 -18.148)">
<path d="m112 5.5c-2.7873 0-5 2.2127-5 5v20.719 7 38.594c1.0707 1.6288 2.8969 2.7188 5 2.7188h4 64 4c2.1031 0 3.9293-1.09 5-2.7188v-38.594-7-20.719c0-2.7873-2.2127-5-5-5z" fill="url(#radialGradient7428)" opacity=".2"/>
<path d="m112 4.5c-3.324 0-6 2.676-6 6v15h1v-15c0-2.7873 2.2127-5 5-5h72c2.7873 0 5 2.2127 5 5v15h1v-15c0-3.324-2.676-6-6-6h-72z" fill="url(#radialGradient7430)" opacity=".45"/>
</g>
<path d="m9.544 67.178v6c0 3.6801 2.9761 6.6562 6.6562 6.6562h79.688c3.6801 0 6.6563-2.9761 6.6563-6.6562v-6c0 3.6801-2.9761 6.6562-6.6563 6.6562h-79.688c-3.6801 0-6.6562-2.9761-6.6562-6.6562z" fill="url(#linearGradient7460)" opacity=".89091"/>
<rect x="13.419" y="65.584" width="84.25" height="4.25" rx="0" ry="4.25" fill="url(#radialGradient7462)" opacity=".55"/>
<rect transform="rotate(90)" x="-9.9156" y="-98.669" width="76.75" height="4.25" rx="0" ry="4.25" fill="url(#radialGradient7464)" opacity=".55"/>
<g transform="translate(251.29 -104.9)">
<g display="none">
<rect x="5" y="7" width="86" height="85" rx="6" ry="6" fill="url(#ButtonShadow)" filter="url(#filter3174-3)" opacity=".9"/>
</g>
</g>
<path d="m17.816-8.0221c-1.9934 0-3.6045 1.6493-3.6088 3.6845l-0.14822 69.961c1.9137 2.5211 1.6653 2.4108 4.8515 2.6791 1.8042-14.861 36.499-73.336 77.418-73.336 0.48808 0 0.96327 0.01986 1.4492 0.02901-0.30286-1.718-1.751-3.0172-3.5236-3.0172z" fill="#fff" opacity=".3"/>
<rect transform="matrix(.9093 0 0 .92838 12.389 19.829)" x="2" y="-30" width="92" height="92" rx="3.957" ry="3.957" clip-path="url(#clipPath4156-4)" fill="url(#linearGradient7466)"/>
<path d="m17.869-9.9361c-3.1166 0-5.668 2.5395-5.668 5.646v69.278c0 3.1065 2.5513 5.646 5.668 5.646h76.792c3.1166 0 5.668-2.5395 5.668-5.646v-69.278c0-3.1065-2.5513-5.646-5.668-5.646h-76.792zm0 2.3194h76.792c1.8881 0 3.352 1.4801 3.352 3.3266v69.278c0 1.8465-1.4639 3.3266-3.352 3.3266h-76.792c-1.8881 0-3.352-1.4801-3.352-3.3266v-69.278c0-1.8465 1.4639-3.3266 3.352-3.3266z" color="#000000" fill="#241f1f" fill-opacity=".63265" style="block-progression:tb;text-indent:0;text-transform:none"/>
</g>
</g>
<g display="none">
<rect x="5" y="7" width="86" height="85" rx="6" ry="6" fill="url(#ButtonShadow)" filter="url(#filter3174-5)" opacity=".9"/>
</g>
</svg>
