<?xml version="1.0" encoding="UTF-8"?>
<!-- Created with Inkscape (http://www.inkscape.org/) -->
<svg version="1.1" viewBox="0 0 96 96" xmlns="http://www.w3.org/2000/svg" xmlns:cc="http://creativecommons.org/ns#" xmlns:dc="http://purl.org/dc/elements/1.1/" xmlns:rdf="http://www.w3.org/1999/02/22-rdf-syntax-ns#" xmlns:xlink="http://www.w3.org/1999/xlink">
<defs>
<linearGradient id="linearGradient4071" x1="6" x2="90" y1="47" y2="47" gradientTransform="matrix(1.1071 0 0 1.1071 -4.9939 -3.6207)" gradientUnits="userSpaceOnUse">
<stop stop-color="#adb9c1" offset="0"/>
<stop stop-color="#fff" offset=".25"/>
<stop stop-color="#90a2aa" offset=".5"/>
<stop stop-color="#f9fafb" offset=".75"/>
<stop stop-color="#adb9c1" offset="1"/>
</linearGradient>
<linearGradient id="linearGradient4129" x1="1.5" x2="94.5" y1="88.172" y2="88.172" gradientTransform="translate(.14895 .41503)" gradientUnits="userSpaceOnUse">
<stop offset="0"/>
<stop stop-opacity=".58824" offset=".1"/>
<stop stop-opacity=".58824" offset=".9"/>
<stop offset="1"/>
</linearGradient>
<radialGradient id="radialGradient7462" cx="13.948" cy="44.893" r="43.199" gradientTransform="matrix(.97513 0 0 .049191 34.048 80.582)" gradientUnits="userSpaceOnUse" xlink:href="#linearGradient3737"/>
<linearGradient id="linearGradient3737">
<stop stop-color="#fff" offset="0"/>
<stop stop-color="#fff" stop-opacity="0" offset="1"/>
</linearGradient>
<radialGradient id="radialGradient7464" cx="13.948" cy="44.893" r="43.199" gradientTransform="matrix(.88833 0 0 .049191 31.96 -90.317)" gradientUnits="userSpaceOnUse" xlink:href="#linearGradient3737"/>
<linearGradient id="linearGradient4767" x1="2.7714" x2="50.528" y1="-28.642" y2="14.514" gradientUnits="userSpaceOnUse" xlink:href="#linearGradient3737"/>
<clipPath id="clipPath4156-4-1">
<path d="m27.046-55.695-14.214 13.321h0.06127l15.653 21.771 10.231-10.546c-0.2169-1.1522-11.311-23.67-11.732-24.546zm-17.399 16.313-14.888 14.062 21.229 17.515 10.385-10.577zm31.491 12.951-9.7413 9.7136 8.9448 12.458 7.7808-7.555zm-49.84 4.3788-13.754 12.982 26.283 13.846 0.06127-0.0617-0.12253-0.0617 9.8332-10.053-22.301-16.652zm38.015 7.4008-9.8025 9.7753 11.579 9.5594 7.6276-7.4008-8.6691-11.009zm20.187 5.674-7.3825 7.2158 6.1878 8.5418 5.8202-6.1365zm-32.195 6.3215-9.5575 9.4977 13.662 7.185 7.9339-7.6784zm23.312 2.3744-7.1068 6.9383 8.3628 6.9074 5.3608-5.674-0.06127-0.0925-0.0919 0.12335-6.4635-8.2026zm-8.7304 8.5418-7.5051 7.3392 10.354 5.4581c1.3975-1.321 5.6751-6.1229 5.8509-6.3215z" fill="#fff" opacity=".6"/>
</clipPath>
<linearGradient id="linearGradient3811" x1="647.28" x2="639.47" y1="349.1" y2="357.89" gradientTransform="matrix(-1.3783 1.2009 -1.2251 -1.3503 1354.9 -244.77)" gradientUnits="userSpaceOnUse">
<stop stop-color="#c80000" offset="0"/>
<stop stop-color="#f3604d" offset="1"/>
</linearGradient>
</defs>
<metadata>
<rdf:RDF>
<cc:Work rdf:about="">
<dc:format>image/svg+xml</dc:format>
<dc:type rdf:resource="http://purl.org/dc/dcmitype/StillImage"/>
<dc:title/>
<dc:date>2017</dc:date>
<dc:creator>
<cc:Agent>
<dc:title>Cristian Pozzessere "ilnanny"</dc:title>
</cc:Agent>
</dc:creator>
<dc:subject>
<rdf:Bag>
<rdf:li>Global language</rdf:li>
</rdf:Bag>
</dc:subject>
<dc:description>Playing with Inkscape on Gnu/Linux O. S.</dc:description>
<dc:contributor>
<cc:Agent>
<dc:title>In the night, alone like a dog.</dc:title>
</cc:Agent>
</dc:contributor>
<cc:license rdf:resource="http://creativecommons.org/licenses/by-sa/4.0/"/>
</cc:Work>
<cc:License rdf:about="http://creativecommons.org/licenses/by-sa/4.0/">
<cc:permits rdf:resource="http://creativecommons.org/ns#Reproduction"/>
<cc:permits rdf:resource="http://creativecommons.org/ns#Distribution"/>
<cc:requires rdf:resource="http://creativecommons.org/ns#Notice"/>
<cc:requires rdf:resource="http://creativecommons.org/ns#Attribution"/>
<cc:permits rdf:resource="http://creativecommons.org/ns#DerivativeWorks"/>
<cc:requires rdf:resource="http://creativecommons.org/ns#ShareAlike"/>
</cc:License>
</rdf:RDF>
</metadata>
<g transform="translate(0 -1026.5)">
<g transform="translate(-.14896 1026.1)">
<path d="m89.292 0.41503h-82.286c-3.7988 0-6.8571 3.0583-6.8571 6.8571v82.286c0 3.7989 3.0583 6.8571 6.8571 6.8571h82.286c3.7989 0 6.8571-3.0583 6.8571-6.8571v-82.286c0-3.7989-3.0583-6.8571-6.8571-6.8571z" opacity=".15"/>
<path d="m88.649 1.165h-81c-3.7395 0-6.75 3.0105-6.75 6.75v81c0 3.7395 3.0105 6.75 6.75 6.75h81c3.7395 0 6.75-3.0105 6.75-6.75v-81c0-3.7395-3.0105-6.75-6.75-6.75z" opacity=".15"/>
<path d="m88.006 1.915h-79.714c-3.6801 0-6.6429 2.9627-6.6429 6.6429v79.714c0 3.6801 2.9627 6.6429 6.6429 6.6429h79.714c3.6801 0 6.6429-2.9627 6.6429-6.6429v-79.714c0-3.6801-2.9627-6.6429-6.6429-6.6429z" fill="url(#linearGradient4071)"/>
<path d="m11.39 6.8022c-2.8565 0-5.1241 2.2884-5.1241 5.171v68.58c1.0972 1.6845 2.9688 2.8117 5.1241 2.8117h73.787c2.1553 0 4.0269-1.1272 5.1241-2.8117v-68.58c0-2.8826-2.2676-5.171-5.1241-5.171z" fill="#f5f3f3" opacity=".77865"/>
<g transform="matrix(1.3046 0 0 1.3046 -14.522 -23.369)">
<path d="m45.562 39c-7.6222 0.038173-15.026 2.6646-21.546 6.4799-4.0155 3.057-6.7798 8.2912-5.7669 13.395 1.0085 2.4177 2.6142 5.8771 5.625 5.9062 3.6991-0.81912 7.3226-1.9817 10.98-2.9741 2.6085-0.54791 2.7573-3.5101 2.5751-5.6472 0.04618-1.8491-1.0959-4.5234 1.7808-4.3754 5.9821-1.8204 12.495-1.6346 18.414 0.34043 0.15625 2.4677-0.16869 5.4001 1.6403 7.3533 3.2861 2.014 6.859 3.5707 10.391 5.1154 2.4271 1.2383 4.6558-0.74987 6.2096-2.4228 2.9823-2.7563 2.478-7.4625 0.95339-10.847-1.6479-3.8814-5.1025-6.6392-8.9423-8.1818-6.9732-3.1586-14.725-4.1098-22.314-4.1424z" opacity=".1"/>
<path d="m45.562 40c-1.5966 0.01671-3.0339 0.14107-4.5938 0.34375-2.6964 0.35038-6.8466 1.4513-9.3125 2.4688-0.88442 0.36491-2.3194 1.0381-3.6562 1.6875s-2.5032 1.2099-3.0625 1.5625c-1.7892 1.1285-3.859 3.7231-4.8438 5.8438-0.47721 1.0275-0.77136 2.2385-0.9375 3.4375s-0.198 2.3323 0.0625 3.2812c0.26798 0.97656 0.91163 2.0489 1.625 3.0312 0.35668 0.49116 0.73987 0.9489 1.0938 1.3125 0.17694 0.1818 0.34145 0.3278 0.53125 0.46875s0.36059 0.28561 0.75 0.34375c0.25834 0.03857 0.37805 0.01777 0.53125 0s0.32165-0.02799 0.5-0.0625c0.3567-0.06903 0.77324-0.19448 1.1875-0.3125 0.76229-0.21707 3.1177-0.88072 5.25-1.4688 2.2752-0.62744 3.4321-0.90989 4.1562-1.1875 0.36207-0.13881 0.6428-0.27446 0.90625-0.53125s0.40635-0.58333 0.46875-0.75c0.13853-0.37011 0.15527-0.65977 0.1875-1.0625 0.03223-0.40273 0.02871-0.88396 0.03125-1.4062 0.0051-1.0446-0.05171-2.2692-0.15625-3.4062-0.083797-0.91172-0.072932-1.4002-0.03125-1.5938 0.04168-0.19351 0.04639-0.1744 0.3125-0.40625-0.16408 0.14296 0.13289-0.08241 0.5-0.21875 0.36711-0.13634 0.86751-0.27408 1.4375-0.4375 1.14-0.32684 2.5646-0.68196 3.8125-0.90625 4.827-0.86766 9.5354-0.62608 14.469 0.78125 1.2198 0.34805 1.6819 0.60168 1.75 0.6875 0.06812 0.08582 0.14664 0.4537 0.125 1.5938-0.02122 1.1177 0.07651 2.266 0.25 3.2188 0.17349 0.95272 0.31042 1.6558 0.90625 2.3125 0.20806 0.22932 0.24703 0.22048 0.34375 0.28125 0.09672 0.06077 0.18362 0.11536 0.3125 0.1875 0.25776 0.14429 0.60226 0.32604 1 0.53125 0.79548 0.41042 1.8438 0.9376 2.9375 1.4688 2.1874 1.0623 4.5447 2.1418 5.625 2.5625 0.67271 0.26189 1.4412 0.44715 2.1875 0.15625s1.3288-0.82534 2.25-1.6875c0.71693-0.67094 1.1339-1.0797 1.4688-1.5s0.53644-0.85676 0.6875-1.3125c1.1418-3.445-0.28387-8.1284-3.125-11.25-1.3458-1.4796-2.3198-2.1953-4.5938-3.3438-4.9955-2.5229-10.85-4.0046-17.75-4.5-2.2301-0.16013-3.9925-0.2355-5.5938-0.21875z" opacity=".15"/>
<path d="m25.483 46.906c0.84201-0.53081 4.8846-2.4938 6.5616-3.1857 2.3295-0.96115 6.5007-2.0657 9.0537-2.3974 3.051-0.39644 5.5559-0.42265 9.9865-0.1045 6.8014 0.48836 12.52 1.931 17.376 4.3831 2.2378 1.1302 3.0045 1.685 4.3062 3.1161 2.6004 2.8572 3.8771 7.365 2.9127 10.275-0.27361 0.82546-0.46875 1.0735-1.8931 2.4065-1.812 1.6958-2.1798 1.8428-3.4088 1.3643-1.963-0.76438-9.5497-4.4535-9.8584-4.7937-0.50946-0.56151-0.89762-2.757-0.85784-4.8521 0.04415-2.3259-0.12376-2.5349-2.6039-3.2426-5.0647-1.4448-9.9596-1.7137-14.931-0.8201-2.5788 0.46351-5.7612 1.3724-6.2271 1.7783-0.66195 0.57674-0.74336 0.98444-0.5713 2.8565 0.20228 2.2001 0.1805 4.8281-0.04496 5.4304-0.22992 0.61408-0.28538 0.63575-4.8373 1.891-2.1338 0.58844-4.5132 1.2504-5.2875 1.4709-0.77432 0.2206-1.5813 0.37517-1.7933 0.34352-0.69151-0.10324-2.8387-3.0802-3.2178-4.4617-0.38482-1.4018 0.01739-4.2592 0.85319-6.0589 0.87036-1.8744 3.0427-4.4907 4.4829-5.399z" opacity=".3"/>
<path d="m25.483 45.906c0.84201-0.53081 4.8846-2.4938 6.5616-3.1857 2.3295-0.96115 6.5007-2.0657 9.0537-2.3974 3.051-0.39644 5.5559-0.42265 9.9865-0.1045 6.8014 0.48836 12.52 1.931 17.376 4.3831 2.2378 1.1302 3.0045 1.685 4.3062 3.1161 2.6004 2.8572 3.8771 7.365 2.9127 10.275-0.27361 0.82546-0.46875 1.0735-1.8931 2.4065-1.812 1.6958-2.1798 1.8428-3.4088 1.3643-1.963-0.76438-9.5497-4.4535-9.8584-4.7937-0.50946-0.56151-0.89762-2.757-0.85784-4.8521 0.04415-2.3259-0.12376-2.5349-2.6039-3.2426-5.0647-1.4448-9.9596-1.7137-14.931-0.8201-2.5788 0.46351-5.7612 1.3724-6.2271 1.7783-0.66195 0.57674-0.74336 0.98444-0.5713 2.8565 0.20228 2.2001 0.1805 4.8281-0.04496 5.4304-0.22992 0.61408-0.28538 0.63575-4.8373 1.891-2.1338 0.58844-4.5132 1.2504-5.2875 1.4709-0.77432 0.2206-1.5813 0.37517-1.7933 0.34352-0.69151-0.10324-2.8387-3.0802-3.2178-4.4617-0.38482-1.4018 0.01739-4.2592 0.85319-6.0589 0.87036-1.8744 3.0427-4.4907 4.4829-5.399z" fill="url(#linearGradient3811)"/>
<path d="m45.562 40c-1.5614 0.01634-2.9433 0.11428-4.4688 0.3125-2.553 0.33176-6.733 1.4451-9.0625 2.4062-1.6769 0.69189-5.7205 2.6567-6.5625 3.1875-1.4402 0.90837-3.5984 3.5318-4.4688 5.4062-0.69815 1.5032-1.0817 3.7355-0.96875 5.25 0.06843-1.3931 0.41299-3.0534 0.96875-4.25 0.87036-1.8744 3.0286-4.4979 4.4688-5.4062 0.84201-0.53081 4.8856-2.4956 6.5625-3.1875 2.3295-0.96115 6.5095-2.0745 9.0625-2.4062 3.051-0.39644 5.5694-0.4119 10-0.09375 6.8014 0.48836 12.52 1.9229 17.375 4.375 2.2378 1.1302 3.0108 1.6939 4.3125 3.125 1.9047 2.0927 3.0636 5.069 3.1875 7.6562 0.18372-2.7854-1.0336-6.2897-3.1875-8.6562-1.3017-1.4311-2.0747-1.9948-4.3125-3.125-4.8553-2.4521-10.574-3.8866-17.375-4.375-2.2153-0.15908-3.9698-0.23509-5.5312-0.21875zm-10.281 12.125c-0.02769 0.37997-0.03505 0.8411 0.03125 1.5625 0.07878 0.85685 0.14424 1.752 0.15625 2.5938 0.02186-1.0638-0.0443-2.3761-0.15625-3.5938-0.02093-0.22771-0.01841-0.37518-0.03125-0.5625z" fill="#fff" opacity=".3"/>
<path d="m47.688 46.531c-1.8557 0.0074-3.6983 0.19616-5.5625 0.53125-2.5788 0.46351-5.7528 1.3753-6.2188 1.7812-0.58143 0.50659-0.71772 0.92853-0.625 2.2812 0.04416-0.60608 0.21813-0.92676 0.625-1.2812 0.46595-0.40598 3.64-1.3177 6.2188-1.7812 4.9712-0.89358 9.8728-0.63231 14.938 0.8125 2.0619 0.5883 2.5213 0.84808 2.5938 2.25 0.04415-2.3259-0.11364-2.5424-2.5938-3.25-3.1654-0.90301-6.2821-1.3562-9.375-1.3438zm11.969 4.8125c0.0052 0.22969 0.0055 0.49051 0 0.78125-0.03978 2.0951 0.36554 4.2822 0.875 4.8438 0.3087 0.34023 7.8807 4.0169 9.8438 4.7812 1.229 0.47847 1.5942 0.35208 3.4062-1.3438 1.4243-1.333 1.6326-1.5808 1.9062-2.4062 0.25805-0.77855 0.32651-1.6799 0.28125-2.625-0.03809 0.57747-0.11564 1.1253-0.28125 1.625-0.27361 0.82546-0.4819 1.0733-1.9062 2.4062-1.812 1.6958-2.1772 1.8222-3.4062 1.3438-1.963-0.76438-9.5351-4.441-9.8438-4.7812-0.49166-0.54189-0.88489-2.5984-0.875-4.625zm-24.188 3.9375c-0.01763 0.85835-0.08682 1.5748-0.1875 1.8438-0.22992 0.61408-0.29179 0.61972-4.8438 1.875-2.1338 0.58844-4.5069 1.2482-5.2812 1.4688-0.77432 0.2206-1.5692 0.3754-1.7812 0.34375-0.69151-0.10324-2.8396-3.056-3.2188-4.4375-0.06338-0.23087-0.10274-0.5139-0.125-0.8125-0.03448 0.70199-0.0039 1.3428 0.125 1.8125 0.37911 1.3815 2.5272 4.3343 3.2188 4.4375 0.21202 0.03165 1.0069-0.12314 1.7812-0.34375 0.77435-0.2205 3.1474-0.88031 5.2812-1.4688 4.552-1.2553 4.6138-1.2609 4.8438-1.875 0.13765-0.36776 0.20633-1.5242 0.1875-2.8438z" opacity=".1"/>
</g>
<path d="m9.974 5.1445c-3.1166 0-5.668 2.5395-5.668 5.646v69.278c0 3.1065 2.5513 5.646 5.668 5.646h76.792c3.1166 0 5.668-2.5395 5.668-5.646v-69.278c0-3.1065-2.5513-5.646-5.668-5.646zm0 2.3194h76.792c1.8881 0 3.352 1.4801 3.352 3.3266v69.278c0 1.8465-1.4639 3.3266-3.352 3.3266h-76.792c-1.8881 0-3.352-1.4801-3.352-3.3266v-69.278c0-1.8465 1.4639-3.3266 3.352-3.3266z" color="#000000" fill="#1f2224" fill-opacity=".63265" style="text-decoration-line:none;text-indent:0;text-transform:none"/>
<path d="m1.649 82.259v6c0 3.6801 2.9761 6.6562 6.6562 6.6562h79.687c3.6801 0 6.6563-2.9761 6.6563-6.6562v-6c0 3.6801-2.9761 6.6562-6.6563 6.6562h-79.687c-3.6801 0-6.6562-2.9761-6.6562-6.6562z" fill="url(#linearGradient4129)" opacity=".65818"/>
<rect x="5.524" y="80.665" width="84.25" height="4.25" rx="0" ry="4.25" fill="url(#radialGradient7462)" opacity=".55"/>
<rect transform="rotate(90)" x="5.975" y="-90.234" width="76.75" height="4.25" rx="0" ry="4.25" fill="url(#radialGradient7464)" opacity=".669"/>
<rect transform="matrix(1.0692 0 0 1.0477 4.4442 38.894)" x="2" y="-30" width="75.966" height="69.024" rx="3.957" ry="3.957" clip-path="url(#clipPath4156-4-1)" fill="url(#linearGradient4767)" opacity=".424"/>
</g>
</g>
</svg>
