<?xml version="1.0" encoding="UTF-8"?>
<!-- Created with Inkscape (http://www.inkscape.org/) -->
<svg version="1.1" viewBox="0 0 96 96" xmlns="http://www.w3.org/2000/svg" xmlns:cc="http://creativecommons.org/ns#" xmlns:dc="http://purl.org/dc/elements/1.1/" xmlns:rdf="http://www.w3.org/1999/02/22-rdf-syntax-ns#" xmlns:xlink="http://www.w3.org/1999/xlink">
<defs>
<linearGradient id="linearGradient4071" x1="6" x2="90" y1="47" y2="47" gradientTransform="matrix(1.1071 0 0 1.1071 -4.9939 -3.6207)" gradientUnits="userSpaceOnUse">
<stop stop-color="#adb9c1" offset="0"/>
<stop stop-color="#fff" offset=".25"/>
<stop stop-color="#90a2aa" offset=".5"/>
<stop stop-color="#f9fafb" offset=".75"/>
<stop stop-color="#adb9c1" offset="1"/>
</linearGradient>
<linearGradient id="linearGradient4129" x1="1.5" x2="94.5" y1="88.172" y2="88.172" gradientTransform="translate(.14895 .41503)" gradientUnits="userSpaceOnUse" xlink:href="#linearGradient3832-0-6-1-1"/>
<linearGradient id="linearGradient3832-0-6-1-1">
<stop offset="0"/>
<stop stop-opacity=".58824" offset=".1"/>
<stop stop-opacity=".58824" offset=".9"/>
<stop offset="1"/>
</linearGradient>
<radialGradient id="radialGradient7462" cx="13.948" cy="44.893" r="43.199" gradientTransform="matrix(.97513 0 0 .049191 34.048 80.582)" gradientUnits="userSpaceOnUse" xlink:href="#linearGradient3737"/>
<linearGradient id="linearGradient3737">
<stop stop-color="#fff" offset="0"/>
<stop stop-color="#fff" stop-opacity="0" offset="1"/>
</linearGradient>
<radialGradient id="radialGradient7464" cx="13.948" cy="44.893" r="43.199" gradientTransform="matrix(.88833 0 0 .049191 31.96 -90.317)" gradientUnits="userSpaceOnUse" xlink:href="#linearGradient3737"/>
<linearGradient id="linearGradient4767" x1="2.7714" x2="50.528" y1="-28.642" y2="14.514" gradientUnits="userSpaceOnUse" xlink:href="#linearGradient3737"/>
<clipPath id="clipPath4156-4-1">
<path d="m27.046-55.695-14.214 13.321h0.06127l15.653 21.771 10.231-10.546c-0.2169-1.1522-11.311-23.67-11.732-24.546zm-17.399 16.313-14.888 14.062 21.229 17.515 10.385-10.577zm31.491 12.951-9.7413 9.7136 8.9448 12.458 7.7808-7.555zm-49.84 4.3788-13.754 12.982 26.283 13.846 0.06127-0.0617-0.12253-0.0617 9.8332-10.053-22.301-16.652zm38.015 7.4008-9.8025 9.7753 11.579 9.5594 7.6276-7.4008-8.6691-11.009zm20.187 5.674-7.3825 7.2158 6.1878 8.5418 5.8202-6.1365zm-32.195 6.3215-9.5575 9.4977 13.662 7.185 7.9339-7.6784zm23.312 2.3744-7.1068 6.9383 8.3628 6.9074 5.3608-5.674-0.06127-0.0925-0.0919 0.12335-6.4635-8.2026zm-8.7304 8.5418-7.5051 7.3392 10.354 5.4581c1.3975-1.321 5.6751-6.1229 5.8509-6.3215z" fill="#fff" opacity=".6"/>
</clipPath>
<linearGradient id="linearGradient3019" x1="11.347" x2="11.347" y1="5.9995" y2="16.972" gradientTransform="matrix(3.3231 0 0 3.281 12.031 10.315)" gradientUnits="userSpaceOnUse" xlink:href="#linearGradient3832-0-6-1-1"/>
<linearGradient id="linearGradient3637">
<stop stop-color="#f0f0f0" offset="0"/>
<stop stop-color="#aaa" offset="1"/>
</linearGradient>
<linearGradient id="linearGradient6507" x1="11.347" x2="11.347" y1="5.9995" y2="16.972" gradientTransform="matrix(3.3231 0 0 3.281 12.031 10.315)" gradientUnits="userSpaceOnUse" xlink:href="#linearGradient3637"/>
</defs>
<metadata>
<rdf:RDF>
<cc:Work rdf:about="">
<dc:format>image/svg+xml</dc:format>
<dc:type rdf:resource="http://purl.org/dc/dcmitype/StillImage"/>
<dc:title/>
<dc:date>2017</dc:date>
<dc:creator>
<cc:Agent>
<dc:title>Cristian Pozzessere "ilnanny"</dc:title>
</cc:Agent>
</dc:creator>
<dc:subject>
<rdf:Bag>
<rdf:li>Global language</rdf:li>
</rdf:Bag>
</dc:subject>
<dc:description>Playing with Inkscape on Gnu/Linux O. S.</dc:description>
<dc:contributor>
<cc:Agent>
<dc:title>In the night, alone like a dog.</dc:title>
</cc:Agent>
</dc:contributor>
<cc:license rdf:resource="http://creativecommons.org/licenses/by-sa/4.0/"/>
</cc:Work>
<cc:License rdf:about="http://creativecommons.org/licenses/by-sa/4.0/">
<cc:permits rdf:resource="http://creativecommons.org/ns#Reproduction"/>
<cc:permits rdf:resource="http://creativecommons.org/ns#Distribution"/>
<cc:requires rdf:resource="http://creativecommons.org/ns#Notice"/>
<cc:requires rdf:resource="http://creativecommons.org/ns#Attribution"/>
<cc:permits rdf:resource="http://creativecommons.org/ns#DerivativeWorks"/>
<cc:requires rdf:resource="http://creativecommons.org/ns#ShareAlike"/>
</cc:License>
</rdf:RDF>
</metadata>
<g transform="translate(0 -1026.5)">
<g transform="translate(-.14896 1026.1)">
<path d="m89.292 0.41503h-82.286c-3.7988 0-6.8571 3.0583-6.8571 6.8571v82.286c0 3.7989 3.0583 6.8571 6.8571 6.8571h82.286c3.7989 0 6.8571-3.0583 6.8571-6.8571v-82.286c0-3.7989-3.0583-6.8571-6.8571-6.8571z" opacity=".15"/>
<path d="m88.649 1.165h-81c-3.7395 0-6.75 3.0105-6.75 6.75v81c0 3.7395 3.0105 6.75 6.75 6.75h81c3.7395 0 6.75-3.0105 6.75-6.75v-81c0-3.7395-3.0105-6.75-6.75-6.75z" opacity=".15"/>
<path d="m88.006 1.915h-79.714c-3.6801 0-6.6429 2.9627-6.6429 6.6429v79.714c0 3.6801 2.9627 6.6429 6.6429 6.6429h79.714c3.6801 0 6.6429-2.9627 6.6429-6.6429v-79.714c0-3.6801-2.9627-6.6429-6.6429-6.6429z" fill="url(#linearGradient4071)"/>
<path d="m11.39 6.8022c-2.8565 0-5.1241 2.2884-5.1241 5.171v68.58c1.0972 1.6845 2.9688 2.8117 5.1241 2.8117h73.787c2.1553 0 4.0269-1.1272 5.1241-2.8117v-68.58c0-2.8826-2.2676-5.171-5.1241-5.171z" fill="#f5f3f3" opacity=".77865"/>
<path d="m9.974 5.1445c-3.1166 0-5.668 2.5395-5.668 5.646v69.278c0 3.1065 2.5513 5.646 5.668 5.646h76.792c3.1166 0 5.668-2.5395 5.668-5.646v-69.278c0-3.1065-2.5513-5.646-5.668-5.646zm0 2.3194h76.792c1.8881 0 3.352 1.4801 3.352 3.3266v69.278c0 1.8465-1.4639 3.3266-3.352 3.3266h-76.792c-1.8881 0-3.352-1.4801-3.352-3.3266v-69.278c0-1.8465 1.4639-3.3266 3.352-3.3266z" color="#000000" fill="#1f2224" fill-opacity=".63265" style="text-decoration-line:none;text-indent:0;text-transform:none"/>
<path d="m1.649 82.259v6c0 3.6801 2.9761 6.6562 6.6562 6.6562h79.687c3.6801 0 6.6563-2.9761 6.6563-6.6562v-6c0 3.6801-2.9761 6.6562-6.6563 6.6562h-79.687c-3.6801 0-6.6562-2.9761-6.6562-6.6562z" fill="url(#linearGradient4129)" opacity=".65818"/>
<rect x="5.524" y="80.665" width="84.25" height="4.25" rx="0" ry="4.25" fill="url(#radialGradient7462)" opacity=".55"/>
<rect transform="rotate(90)" x="5.975" y="-90.234" width="76.75" height="4.25" rx="0" ry="4.25" fill="url(#radialGradient7464)" opacity=".669"/>
<rect transform="matrix(1.0692 0 0 1.0477 4.4442 38.894)" x="2" y="-30" width="75.966" height="69.024" rx="3.957" ry="3.957" clip-path="url(#clipPath4156-4-1)" fill="url(#linearGradient4767)" opacity=".50781"/>
<g transform="matrix(1.3244 0 0 1.3244 -14.036 -16.473)">
<path d="m41.688 28.938c-1.357 0.34727-2.1587 1.6807-3.2505 2.4875-5.9842 5.4213-12.01 10.839-17.968 16.263-1.0151 1.0804-0.363 2.6952 0.75555 3.3838 6.5298 5.8816 13.057 11.77 19.588 17.647 1.2881 0.6618 2.8184 0.21177 4.2174 0.34375 9.0726-0.02084 18.151 0.04168 27.22-0.03125 1.4007-0.22579 1.8338-1.7438 1.6562-2.9724-0.02081-11.821 0.04164-23.648-0.03125-35.465-0.22579-1.4007-1.7438-1.8338-2.9724-1.6562h-29.215zm5.3438 11.5c1.9553 1.892 3.8574 3.8949 5.8438 5.7188 1.1981 0.87252 2.5624-0.02433 3.3274-1.0062 1.5888-1.5708 3.1776-3.1417 4.7664-4.7125 0.59375 0.58333 1.1875 1.1667 1.7812 1.75-1.9009 1.9253-3.923 3.7879-5.75 5.75-0.87056 1.1962 0.01832 2.5684 1.0149 3.3187 1.5679 1.55 3.1359 3.1 4.7038 4.6501-0.58333 0.57292-1.1667 1.1458-1.75 1.7188-1.9551-1.8817-3.8589-3.8727-5.8438-5.6875-1.1986-0.87301-2.5609 0.02584-3.3296 1.004-1.5881 1.5612-3.1761 3.1223-4.7642 4.6835-0.58333-0.5625-1.1667-1.125-1.75-1.6875 1.9413-1.9729 4.0242-3.8248 5.875-5.875 0.77977-1.2887-0.27395-2.5285-1.2355-3.3195-1.5465-1.5289-3.093-3.0578-4.6395-4.5868 0.58333-0.57292 1.1667-1.1458 1.75-1.7188z" opacity=".1"/>
<path transform="translate(2)" d="m39.938 30a0.98855 0.98855 0 0 0-0.65625 0.28125l-19.938 18.031a0.98855 0.98855 0 0 0 0 1.4375l19.938 17.969a0.98855 0.98855 0 0 0 0.65625 0.28125h29.906a0.98855 0.98855 0 0 0 1-1v-36a0.98855 0.98855 0 0 0-1-1zm5.0938 8.9375 6.2812 6.2188a0.98855 0.98855 0 0 0 1.375 0l6.2812-6.2188 3.2812 3.25-6.25 6.1875a0.98855 0.98855 0 0 0 0 1.375l6.2188 6.1562-3.25 3.2188-6.2812-6.1875a0.98855 0.98855 0 0 0-1.375 0l-6.2812 6.1875-3.25-3.1875 6.25-6.1562a0.98855 0.98855 0 0 0 0-1.4375l-6.25-6.1875z" opacity=".15"/>
<path d="m41.938 31-19.938 18.045 19.938 17.955h29.908v-36zm5.1058 6.57 6.9577 6.8696 6.9577-6.8696 4.6731 4.6139-6.9577 6.8696 6.9577 6.8696-4.6731 4.6139-6.9577-6.8696-6.9577 6.8696-4.6731-4.6139 6.9577-6.8696-6.9577-6.8696z" opacity=".3"/>
<path d="m41.938 30-19.938 18.045 19.938 17.955h29.908v-36zm5.1058 6.57 6.9577 6.8696 6.9577-6.8696 4.6731 4.6139-6.9577 6.8696 6.9577 6.8696-4.6731 4.6139-6.9577-6.8696-6.9577 6.8696-4.6731-4.6139 6.9577-6.8696-6.9577-6.8696z" fill="url(#linearGradient6507)"/>
<path d="m41.938 30-19.938 18.045 19.938 17.955h29.908v-36zm5.1058 6.57 6.9577 6.8696 6.9577-6.8696 4.6731 4.6139-6.9577 6.8696 6.9577 6.8696-4.6731 4.6139-6.9577-6.8696-6.9577 6.8696-4.6731-4.6139 6.9577-6.8696-6.9577-6.8696z" fill="url(#linearGradient6507)"/>
<path d="m41.938 30-19.938 18.045 19.938 17.955h29.908v-36zm5.1058 6.57 6.9577 6.8696 6.9577-6.8696 4.6731 4.6139-6.9577 6.8696 6.9577 6.8696-4.6731 4.6139-6.9577-6.8696-6.9577 6.8696-4.6731-4.6139 6.9577-6.8696-6.9577-6.8696z" fill="url(#linearGradient3019)"/>
<path d="m41.938 30-19.938 18.031 0.5625 0.5 19.375-17.531h29.906v-1zm0.9375 11.688-0.5 0.5 6.4688 6.375 0.5-0.5zm22.25 0-6.4375 6.375 0.5 0.5 6.4375-6.375zm-11.125 10.969-6.9688 6.875-4.1562-4.0938-0.5 0.5 4.6562 4.5938 6.9688-6.875 6.9688 6.875 4.6562-4.5938-0.5-0.5-4.1562 4.0938z" fill="#fff" opacity=".75"/>
<path d="m47.031 35.562-4.6562 4.625 0.5 0.5 4.1562-4.125 6.9688 6.875 6.9688-6.875 4.1562 4.125 0.5-0.5-4.6562-4.625-6.9688 6.875zm-24.469 11.969-0.5625 0.5 19.938 17.969h29.906v-1h-29.906zm26.281 0.03125-6.4688 6.375 0.5 0.5 6.4688-6.375zm10.344 0-0.5 0.5 6.4375 6.375 0.5-0.5z" fill="#fefefe" opacity=".289"/>
</g>
</g>
</g>
</svg>
