<?xml version="1.0" encoding="UTF-8"?>
<!-- Created with Inkscape (http://www.inkscape.org/) -->
<svg version="1.1" viewBox="0 0 96 96" xmlns="http://www.w3.org/2000/svg" xmlns:cc="http://creativecommons.org/ns#" xmlns:dc="http://purl.org/dc/elements/1.1/" xmlns:rdf="http://www.w3.org/1999/02/22-rdf-syntax-ns#" xmlns:xlink="http://www.w3.org/1999/xlink">
<defs>
<linearGradient id="linearGradient4071" x1="6" x2="90" y1="47" y2="47" gradientTransform="matrix(1.1071 0 0 1.1071 -4.9939 -3.6207)" gradientUnits="userSpaceOnUse">
<stop stop-color="#adb9c1" offset="0"/>
<stop stop-color="#fff" offset=".25"/>
<stop stop-color="#90a2aa" offset=".5"/>
<stop stop-color="#f9fafb" offset=".75"/>
<stop stop-color="#adb9c1" offset="1"/>
</linearGradient>
<linearGradient id="linearGradient4129" x1="1.5" x2="94.5" y1="88.172" y2="88.172" gradientTransform="translate(.14895 .41503)" gradientUnits="userSpaceOnUse">
<stop offset="0"/>
<stop stop-opacity=".58824" offset=".1"/>
<stop stop-opacity=".58824" offset=".9"/>
<stop offset="1"/>
</linearGradient>
<radialGradient id="radialGradient7462" cx="13.948" cy="44.893" r="43.199" gradientTransform="matrix(.97513 0 0 .049191 34.048 80.582)" gradientUnits="userSpaceOnUse" xlink:href="#linearGradient3737"/>
<linearGradient id="linearGradient3737">
<stop stop-color="#fff" offset="0"/>
<stop stop-color="#fff" stop-opacity="0" offset="1"/>
</linearGradient>
<radialGradient id="radialGradient7464" cx="13.948" cy="44.893" r="43.199" gradientTransform="matrix(.88833 0 0 .049191 31.96 -90.317)" gradientUnits="userSpaceOnUse" xlink:href="#linearGradient3737"/>
<linearGradient id="linearGradient4767" x1="2.7714" x2="50.528" y1="-28.642" y2="14.514" gradientUnits="userSpaceOnUse" xlink:href="#linearGradient3737"/>
<clipPath id="clipPath4156-4-1">
<path d="m27.046-55.695-14.214 13.321h0.06127l15.653 21.771 10.231-10.546c-0.2169-1.1522-11.311-23.67-11.732-24.546zm-17.399 16.313-14.888 14.062 21.229 17.515 10.385-10.577zm31.491 12.951-9.7413 9.7136 8.9448 12.458 7.7808-7.555zm-49.84 4.3788-13.754 12.982 26.283 13.846 0.06127-0.0617-0.12253-0.0617 9.8332-10.053-22.301-16.652zm38.015 7.4008-9.8025 9.7753 11.579 9.5594 7.6276-7.4008-8.6691-11.009zm20.187 5.674-7.3825 7.2158 6.1878 8.5418 5.8202-6.1365zm-32.195 6.3215-9.5575 9.4977 13.662 7.185 7.9339-7.6784zm23.312 2.3744-7.1068 6.9383 8.3628 6.9074 5.3608-5.674-0.06127-0.0925-0.0919 0.12335-6.4635-8.2026zm-8.7304 8.5418-7.5051 7.3392 10.354 5.4581c1.3975-1.321 5.6751-6.1229 5.8509-6.3215z" fill="#fff" opacity=".6"/>
</clipPath>
<linearGradient id="linearGradient3916" x1="46.07" x2="46.07" y1=".92128" y2="17.478" gradientTransform="matrix(-2.6691 0 0 3.1691 171.99 18.593)" gradientUnits="userSpaceOnUse">
<stop stop-color="#131313" offset="0"/>
<stop stop-color="#212121" offset="1"/>
</linearGradient>
</defs>
<metadata>
<rdf:RDF>
<cc:Work rdf:about="">
<dc:format>image/svg+xml</dc:format>
<dc:type rdf:resource="http://purl.org/dc/dcmitype/StillImage"/>
<dc:title/>
<dc:date>2017</dc:date>
<dc:creator>
<cc:Agent>
<dc:title>Cristian Pozzessere "ilnanny"</dc:title>
</cc:Agent>
</dc:creator>
<dc:subject>
<rdf:Bag>
<rdf:li>Global language</rdf:li>
</rdf:Bag>
</dc:subject>
<dc:description>Playing with Inkscape on Gnu/Linux O. S.</dc:description>
<dc:contributor>
<cc:Agent>
<dc:title>In the night, alone like a dog.</dc:title>
</cc:Agent>
</dc:contributor>
<cc:license rdf:resource="http://creativecommons.org/licenses/by-sa/4.0/"/>
</cc:Work>
<cc:License rdf:about="http://creativecommons.org/licenses/by-sa/4.0/">
<cc:permits rdf:resource="http://creativecommons.org/ns#Reproduction"/>
<cc:permits rdf:resource="http://creativecommons.org/ns#Distribution"/>
<cc:requires rdf:resource="http://creativecommons.org/ns#Notice"/>
<cc:requires rdf:resource="http://creativecommons.org/ns#Attribution"/>
<cc:permits rdf:resource="http://creativecommons.org/ns#DerivativeWorks"/>
<cc:requires rdf:resource="http://creativecommons.org/ns#ShareAlike"/>
</cc:License>
</rdf:RDF>
</metadata>
<g transform="translate(0 -1026.5)">
<g transform="translate(-.14896 1026.1)">
<path d="m89.292 0.41503h-82.286c-3.7988 0-6.8571 3.0583-6.8571 6.8571v82.286c0 3.7989 3.0583 6.8571 6.8571 6.8571h82.286c3.7989 0 6.8571-3.0583 6.8571-6.8571v-82.286c0-3.7989-3.0583-6.8571-6.8571-6.8571z" opacity=".15"/>
<path d="m88.649 1.165h-81c-3.7395 0-6.75 3.0105-6.75 6.75v81c0 3.7395 3.0105 6.75 6.75 6.75h81c3.7395 0 6.75-3.0105 6.75-6.75v-81c0-3.7395-3.0105-6.75-6.75-6.75z" opacity=".15"/>
<path d="m88.006 1.915h-79.714c-3.6801 0-6.6429 2.9627-6.6429 6.6429v79.714c0 3.6801 2.9627 6.6429 6.6429 6.6429h79.714c3.6801 0 6.6429-2.9627 6.6429-6.6429v-79.714c0-3.6801-2.9627-6.6429-6.6429-6.6429z" fill="url(#linearGradient4071)"/>
<path d="m11.39 6.8022c-2.8565 0-5.1241 2.2884-5.1241 5.171v68.58c1.0972 1.6845 2.9688 2.8117 5.1241 2.8117h73.787c2.1553 0 4.0269-1.1272 5.1241-2.8117v-68.58c0-2.8826-2.2676-5.171-5.1241-5.171z" fill="#f5f3f3" opacity=".77865"/>
<path d="m9.974 5.1445c-3.1166 0-5.668 2.5395-5.668 5.646v69.278c0 3.1065 2.5513 5.646 5.668 5.646h76.792c3.1166 0 5.668-2.5395 5.668-5.646v-69.278c0-3.1065-2.5513-5.646-5.668-5.646zm0 2.3194h76.792c1.8881 0 3.352 1.4801 3.352 3.3266v69.278c0 1.8465-1.4639 3.3266-3.352 3.3266h-76.792c-1.8881 0-3.352-1.4801-3.352-3.3266v-69.278c0-1.8465 1.4639-3.3266 3.352-3.3266z" color="#000000" fill="#1f2224" fill-opacity=".63265" style="text-decoration-line:none;text-indent:0;text-transform:none"/>
<path d="m1.649 82.259v6c0 3.6801 2.9761 6.6562 6.6562 6.6562h79.687c3.6801 0 6.6563-2.9761 6.6563-6.6562v-6c0 3.6801-2.9761 6.6562-6.6563 6.6562h-79.687c-3.6801 0-6.6562-2.9761-6.6562-6.6562z" fill="url(#linearGradient4129)" opacity=".65818"/>
<rect x="5.524" y="80.665" width="84.25" height="4.25" rx="0" ry="4.25" fill="url(#radialGradient7462)" opacity=".55"/>
<rect transform="rotate(90)" x="5.975" y="-90.234" width="76.75" height="4.25" rx="0" ry="4.25" fill="url(#radialGradient7464)" opacity=".669"/>
<g transform="matrix(1.1545 0 0 1.1545 -7.2689 -7.0013)">
<path d="m33.812 19c-0.50192-0.01094-0.99018 0.19676-0.96875 0.1875-0.62419 0.2696-0.99816 0.74435-1.125 0.90625-0.16087 0.20533-0.2683 0.37113-0.34375 0.46875-0.0057 0.0073-0.02604 0.02473-0.03125 0.03125-0.03126 0.03928-0.06128 0.09206-0.0625 0.09375-0.0017 0.0023-0.09226 0.15377-0.09375 0.15625-0.0015 0.0025-0.09248 0.15365-0.09375 0.15625-0.0013 0.0026-0.06147 0.15355-0.0625 0.15625a0.94916 0.94916 0 0 0-0.03125 0.03125s-0.21858 0.67974-0.46875 1.5938c-0.24649 0.90057-0.54928 2.0562-0.53125 3.25 0.03542 2.346 0.67034 5.729 1.8125 8.8438 2.2919 6.2501 5.4718 13.03 8.3125 18.062 0.0012 0.0021 0.06115 0.12303 0.0625 0.125 0.0014 2e-3 0.09226 0.12313 0.09375 0.125 0.0015 0.0019 0.09213 0.09199 0.09375 0.09375 0.0016 0.0018 0.092 0.12336 0.09375 0.125 0.0017 0.0016 0.12314 0.09224 0.125 0.09375 0.0019 0.0015 0.09179 0.09238 0.09375 0.09375 2e-3 0.0014 0.12294 0.06128 0.125 0.0625 0.0021 0.0012 0.12286 0.06143 0.125 0.0625 0.0021 0.0011 0.15404 0.06159 0.15625 0.0625 0.0022 9.12e-4 0.12273 0.06175 0.125 0.0625 0.0023 7.5e-4 0.12268 0.03066 0.125 0.03125 0.0023 5.85e-4 0.15389 0.03083 0.15625 0.03125 0.0024 4.16e-4 0.12262 0.03101 0.125 0.03125 9.52e-4 9.8e-5 0.03529-0.0018 0.0625 0-0.10867 0.37135-0.22938 0.81398-0.34375 1.1562-0.40276 1.2053-0.962 2.3269-1.1562 2.625-3.3568 0.06301-6.5517 2.2191-8.5 5.5625-1.3357 2.2922-1.8719 4.8149-1.5938 7.125 0.2791 2.3178 1.433 4.4873 3.5312 5.6875 2.0886 1.1947 4.5669 1.1397 6.7188 0.21875 2.1389-0.91545 4.0436-2.6527 5.375-4.9375 1.0206-1.7514 1.4238-3.6045 1.5-5.375 3.41e-4 -6.55e-4 0.02331-0.01454 0.03125-0.03125 0.01853-0.03899 0.03057-0.09217 0.03125-0.09375 9.71e-4 -0.0023 0.0617-0.15392 0.0625-0.15625 8.01e-4 -0.0023 0.03062-0.12262 0.03125-0.125 6.26e-4 -0.0024 0.0308-0.15383 0.03125-0.15625 4.48e-4 -0.0024 0.03098-0.1538 0.03125-0.15625 2.67e-4 -0.0024-8.5e-5 -0.12254 0-0.125 8.5e-5 -0.0025 9.8e-5 -0.15379 0-0.15625-0.02714-1.1086 0.09517-2.4948 0.53125-3.5938 0.01016-0.0256 0.02113-0.03742 0.03125-0.0625 0.0055 0.01206 0.02737 0.05272 0.03125 0.0625 0.43608 1.099 0.55839 2.4851 0.53125 3.5938a0.94916 0.94916 0 0 0 0 0.03125c-2.6e-5 0.0023-1.39e-4 0.12267 0 0.125 1.39e-4 0.0023-3.03e-4 0.15393 0 0.15625 3.03e-4 0.0023 0.03079 0.12271 0.03125 0.125 4.65e-4 0.0023 0.03063 0.12275 0.03125 0.125 6.25e-4 0.0023 0.03047 0.15405 0.03125 0.15625 7.82e-4 0.0022 0.06157 0.12286 0.0625 0.125 6.55e-4 0.0015 0.0135 0.0568 0.03125 0.09375 4.2e-4 0.01137 0.0308 0.01987 0.03125 0.03125 0.07075 1.7817 0.47267 3.6433 1.5 5.4062 1.3314 2.2848 3.2361 4.022 5.375 4.9375 2.1518 0.92097 4.6301 0.97598 6.7188-0.21875 2.0982-1.2002 3.2521-3.3697 3.5312-5.6875 0.27817-2.3101-0.25802-4.8328-1.5938-7.125-1.9543-3.3537-5.1632-5.5127-8.5312-5.5625-0.11531-0.17665-0.27447-0.47467-0.46875-0.90625-9.21e-4 -0.0021-0.06144-0.12297-0.0625-0.125-0.0011-2e-3 -0.0613-0.12305-0.0625-0.125-0.0012-0.0019-0.09242-0.12314-0.09375-0.125-0.0013-0.0019-0.06104-0.09199-0.0625-0.09375-0.0015-0.0018-0.09217-0.12334-0.09375-0.125-0.0016-0.0017-0.12331-0.0922-0.125-0.09375-0.0017-0.0015-0.09196-0.06107-0.09375-0.0625-0.0018-0.0014-0.09187-0.09245-0.09375-0.09375-0.0019-0.0013-0.12303-0.06133-0.125-0.0625-2e-3 -0.0012-0.12296-0.09272-0.125-0.09375-2e-3 -1e-3 -0.12289-0.03037-0.125-0.03125-0.0021-8.84e-4 -0.12283-0.06176-0.125-0.0625 3.2859-5.1108 7.2573-13.194 10.062-20.844 1.1422-3.1147 1.7771-6.4978 1.8125-8.8438 0.01803-1.1938-0.28476-2.3494-0.53125-3.25-0.25016-0.91402-0.46875-1.5938-0.46875-1.5938a0.94916 0.94916 0 0 0-0.03125-0.03125c-1e-3 -0.0027-0.06123-0.15365-0.0625-0.15625-0.0013-0.0026-0.09226-0.15377-0.09375-0.15625-0.0015-0.0025-0.09205-0.15391-0.09375-0.15625-0.0012-0.0017-0.03124-0.05447-0.0625-0.09375-0.0038-0.0048-0.02709-0.02571-0.03125-0.03125-0.08651-0.1151-0.24258-0.38165-0.5625-0.71875-0.20642-0.2175-0.5059-0.4528-0.90625-0.625-0.50864-0.21878-1.04-0.26988-1.625-0.09375-0.97737 0.29443-1.5163 1.065-1.9375 1.7812-3e-3 0.0051-0.02826-0.0051-0.03125 0v0.03125l-11.562 19.219-11.562-19.219c-7e-3 -0.01204-0.02416-0.01919-0.03125-0.03125-0.34189-0.58139-0.82519-1.1336-1.5-1.5-1.79e-4 -2.09e-4 -0.02196-0.0221-0.03125-0.03125-0.04751-0.02479-0.07511-0.07145-0.125-0.09375-0.03315-0.02519-0.03926-0.04807-0.0625-0.0625-0.07901-0.04905-0.14895-0.06731-0.21875-0.09375-0.01232-0.0047-0.01839-0.02666-0.03125-0.03125-0.17145-0.061211-0.37674-0.088338-0.625-0.09375zm6.0625 46c0.09929-4e-3 0.14574 0.0074 0.1875 0.03125 0.07404 0.04235 0.21281 0.13721 0.25 0.6875 0.03511 0.51956-0.12842 1.3577-0.59375 2.1562-0.47035 0.80713-1.1136 1.3867-1.5938 1.625-0.51942 0.25774-0.6996 0.18508-0.75 0.15625-0.07569-0.04329-0.21255-0.12911-0.25-0.6875-0.03557-0.53036 0.13274-1.3964 0.59375-2.1875 0.69523-1.193 1.9153-1.7714 2.1562-1.7812zm16.25 0c0.24093 0.0098 1.461 0.58821 2.1562 1.7812 0.46101 0.79112 0.62932 1.6571 0.59375 2.1875-0.03745 0.55839-0.17431 0.64421-0.25 0.6875-0.0504 0.02883-0.23058 0.1015-0.75-0.15625-0.48014-0.23826-1.1234-0.81787-1.5938-1.625-0.46533-0.79852-0.62886-1.6367-0.59375-2.1562 0.03719-0.55029 0.17596-0.64515 0.25-0.6875 0.04176-0.02389 0.08821-0.0353 0.1875-0.03125z" opacity=".1"/>
<path d="m33.781 19.938c-0.30986-0.0068-0.46743 0.08393-0.5625 0.125-0.41968 0.18126-0.60111 0.43496-0.75 0.625s-0.26328 0.3602-0.375 0.5a1.0484 1.0484 0 0 0-0.1875 0.3125s-0.22733 0.64919-0.46875 1.5312-0.51529 1.9878-0.5 3c0.03282 2.1734 0.67624 5.5178 1.7812 8.5312 2.2712 6.1936 5.4095 12.93 8.2188 17.906a1.0484 1.0484 0 0 0 1.9062-0.21875c0.52854-1.9504 1.1084-4.0067 2.0625-5.7188a1.0484 1.0484 0 0 0 0.03125-0.03125 1.0484 1.0484 0 0 0 0.03125-0.03125l2.5312-4.2188a1.0484 1.0484 0 0 0 0-1.0625l-11.875-19.781c-0.40187-0.68963-0.74174-1.1654-1.4375-1.375 0.02352 0.0071-0.09633-0.08699-0.40625-0.09375zm28.031 0.09375c-0.69576 0.2096-1.0356 0.68537-1.4375 1.375l-15.156 25.25a1.0484 1.0484 0 0 0 0 0.03125c-1.431 2.5485-2.0692 6.0266-2.9688 8.7188-0.44852 1.3423-1.0254 2.5757-1.375 3.0312a1.0484 1.0484 0 0 0-0.0625 0.09375c-0.07579 0.1297-0.05662 0.07314-0.03125 0.0625 0.02175-0.0091-0.05331-0.0043-0.1875 0-0.02236 7.19e-4 -0.0034 0-0.03125 0-3.0667-0.10503-6.1763 1.9195-8.0625 5.1562-1.2381 2.1247-1.7197 4.4473-1.4688 6.5312s1.2654 3.9721 3.0625 5c1.7944 1.0264 3.9466 0.98161 5.875 0.15625s3.7013-2.4099 4.9375-4.5312c1.0024-1.7202 1.4144-3.541 1.4375-5.2812a1.0484 1.0484 0 0 0 0.15625-0.59375c-0.02907-1.1874 0.08244-2.6802 0.59375-3.9688 0.60774-1.5314 1.3469-2.6699 4.0938-3.4688 0.49846-0.13549 0.93572-0.3573 1.2812-0.875 3.3169-4.7728 7.7978-13.935 10.812-22.156 1.105-3.0134 1.7484-6.3578 1.7812-8.5312 0.01529-1.0122-0.25858-2.1179-0.5-3s-0.46875-1.5312-0.46875-1.5312a1.0484 1.0484 0 0 0-0.1875-0.3125c-0.15569-0.19482-0.27362-0.41604-0.53125-0.6875-0.12882-0.13573-0.31961-0.28834-0.59375-0.40625s-0.66362-0.15437-0.96875-0.0625zm-8.2812 36.531a1.0484 1.0484 0 0 0-0.90625 0.4375c-0.41144 0.55457-0.70575 0.70289-1.3125 0.875a1.0484 1.0484 0 0 0-0.375 0.1875 1.0484 1.0484 0 0 0-0.09375 0.0625c-0.80286 0.26773-1.5455 0.52652-2.0312 0.90625a1.0484 1.0484 0 0 0-0.28125 1.3125c0.14202 0.26573 0.28699 0.49698 0.375 0.71875 0.51131 1.2886 0.62282 2.7813 0.59375 3.9688a1.0484 1.0484 0 0 0 0.15625 0.5625c0.01755 1.7493 0.42918 3.5822 1.4375 5.3125 1.2362 2.1214 3.0091 3.7059 4.9375 4.5312s4.0806 0.87017 5.875-0.15625c1.7971-1.0279 2.8116-2.9161 3.0625-5s-0.23061-4.4066-1.4688-6.5312c-1.8862-3.2367-4.9958-5.2613-8.0625-5.1562-0.02781 0-0.0089 7.19e-4 -0.03125 0-0.13418-0.0043-0.20925-0.0091-0.1875 0 0.02537 0.01064 0.04454 0.0672-0.03125-0.0625a1.0484 1.0484 0 0 0-0.0625-0.09375c-0.18682-0.24347-0.43989-0.69995-0.6875-1.25a1.0484 1.0484 0 0 0-0.90625-0.625zm-13.688 7.5c0.23533-0.0096 0.46955 0.03158 0.6875 0.15625 0.39209 0.22428 0.66778 0.68334 0.71875 1.4375 0.05097 0.75416-0.16423 1.7359-0.71875 2.6875-0.55516 0.95267-1.304 1.6546-2 2s-1.2402 0.34513-1.625 0.125c-0.38735-0.22157-0.66752-0.67356-0.71875-1.4375s0.1653-1.769 0.71875-2.7188c0.83388-1.431 2.1262-2.2169 2.9375-2.25zm16.312 0c0.81133 0.03309 2.1036 0.81904 2.9375 2.25 0.55345 0.94974 0.76998 1.9548 0.71875 2.7188s-0.3314 1.2159-0.71875 1.4375c-0.38484 0.22013-0.92899 0.22038-1.625-0.125s-1.4448-1.0473-2-2c-0.55452-0.95158-0.76972-1.9333-0.71875-2.6875 0.05097-0.75416 0.32666-1.2132 0.71875-1.4375 0.21796-0.12467 0.45217-0.16584 0.6875-0.15625z" opacity=".15"/>
<path d="m33.75 21c-0.04115-8.97e-4 -0.08502 0.01398-0.125 0.03125-0.23987 0.1036-0.43058 0.45192-0.71875 0.8125 0 0-0.93044 2.5544-0.90625 4.1562 0.0299 1.9801 0.62789 5.2979 1.6875 8.1875 2.2482 6.131 5.3824 12.868 8.1562 17.781 0.53444-1.9721 1.1398-4.1029 2.1875-5.9688a2.4116 2.4116 0 0 1 0.03125-0.0625l2.5312-4.2188-11.875-19.781c-0.34087-0.58495-0.62566-0.84055-0.84375-0.90625-0.045436-0.01368-0.083854-0.030353-0.125-0.03125zm28.375 0.03125c-0.21809 0.0657-0.50288 0.3213-0.84375 0.90625l-15.156 25.25c-1.2834 2.2857-1.9394 5.7626-2.875 8.5625-0.4678 1.4-1.0195 2.6455-1.5312 3.3125-0.31877 0.54547-0.69392 0.59375-1.1562 0.59375-2.5703-0.10003-5.4258 1.6555-7.1562 4.625-2.2606 3.8793-1.7179 8.414 1.2188 10.094s7.1144-0.12074 9.375-4c1.0405-1.7856 1.4836-3.6917 1.375-5.4062l0.0625 0.09375c-0.03135-1.2804 0.09966-2.8936 0.6875-4.375 0.67426-1.699 1.7864-3.2228 4.7812-4.0938 0.25789-0.0701 0.53822-0.24509 0.6875-0.46875 3.2088-4.6173 7.7342-13.799 10.719-21.938 1.0596-2.8896 1.6576-6.2074 1.6875-8.1875 0.02419-1.6019-0.90625-4.1562-0.90625-4.1562-0.38423-0.48078-0.60526-0.92194-0.96875-0.8125zm-8.6562 36.594c-0.54846 0.73926-1.1525 1.045-1.875 1.25v0.03125c-1.0546 0.3067-1.687 0.59512-2.125 0.9375 0.14683 0.27472 0.2922 0.55636 0.40625 0.84375 0.58785 1.4814 0.71885 3.0946 0.6875 4.375l0.0625-0.09375c-0.10863 1.7146 0.33445 3.6206 1.375 5.4062 2.2606 3.8793 6.4384 5.6798 9.375 4s3.4793-6.2145 1.2188-10.094c-1.7304-2.9695-4.586-4.725-7.1562-4.625-0.46233 0-0.83748-0.04828-1.1562-0.59375-0.26472-0.345-0.54262-0.83797-0.8125-1.4375zm-13.656 5.375c0.4439-0.0181 0.87359 0.09719 1.25 0.3125 1.5057 0.86125 1.6737 3.3339 0.375 5.5625-1.2987 2.2286-3.5568 3.3612-5.0625 2.5s-1.6737-3.3652-0.375-5.5938c0.97401-1.6714 2.4808-2.7269 3.8125-2.7812zm16.375 0c1.3317 0.05431 2.8385 1.1098 3.8125 2.7812 1.2987 2.2286 1.1307 4.7325-0.375 5.5938-1.5057 0.86125-3.7638-0.27142-5.0625-2.5-1.2987-2.2286-1.1307-4.7012 0.375-5.5625 0.37641-0.21531 0.8061-0.3306 1.25-0.3125z" opacity=".3"/>
<path d="m33.75 20c-0.04115-8.97e-4 -0.08502 0.01398-0.125 0.03125-0.23987 0.1036-0.43058 0.45192-0.71875 0.8125 0 0-0.93044 2.5544-0.90625 4.1562 0.0299 1.9801 0.62789 5.2979 1.6875 8.1875 2.2482 6.131 5.3824 12.868 8.1562 17.781 0.53444-1.9721 1.1398-4.1029 2.1875-5.9688a2.4116 2.4116 0 0 1 0.03125-0.0625l2.5312-4.2188-11.875-19.781c-0.34087-0.58495-0.62566-0.84055-0.84375-0.90625-0.045436-0.01368-0.083854-0.030353-0.125-0.03125zm28.375 0.03125c-0.21809 0.0657-0.50288 0.3213-0.84375 0.90625l-15.156 25.25c-1.2834 2.2857-1.9394 5.7626-2.875 8.5625-0.4678 1.4-1.0195 2.6455-1.5312 3.3125-0.31877 0.54547-0.69392 0.59375-1.1562 0.59375-2.5703-0.10003-5.4258 1.6555-7.1562 4.625-2.2606 3.8793-1.7179 8.414 1.2188 10.094s7.1144-0.12074 9.375-4c1.0405-1.7856 1.4836-3.6917 1.375-5.4062l0.0625 0.09375c-0.03135-1.2804 0.09966-2.8936 0.6875-4.375 0.67426-1.699 1.7864-3.2228 4.7812-4.0938 0.25789-0.0701 0.53822-0.24509 0.6875-0.46875 3.2088-4.6173 7.7342-13.799 10.719-21.938 1.0596-2.8896 1.6576-6.2074 1.6875-8.1875 0.02419-1.6019-0.90625-4.1562-0.90625-4.1562-0.38423-0.48078-0.60526-0.92194-0.96875-0.8125zm-8.6562 36.594c-0.54846 0.73926-1.1525 1.045-1.875 1.25v0.03125c-1.0546 0.3067-1.687 0.59512-2.125 0.9375 0.14683 0.27472 0.2922 0.55636 0.40625 0.84375 0.58785 1.4814 0.71885 3.0946 0.6875 4.375l0.0625-0.09375c-0.10863 1.7146 0.33445 3.6206 1.375 5.4062 2.2606 3.8793 6.4384 5.6798 9.375 4s3.4793-6.2145 1.2188-10.094c-1.7304-2.9695-4.586-4.725-7.1562-4.625-0.46233 0-0.83748-0.04828-1.1562-0.59375-0.26472-0.345-0.54262-0.83797-0.8125-1.4375zm-13.656 5.375c0.4439-0.0181 0.87359 0.09719 1.25 0.3125 1.5057 0.86125 1.6737 3.3339 0.375 5.5625-1.2987 2.2286-3.5568 3.3612-5.0625 2.5s-1.6737-3.3652-0.375-5.5938c0.97401-1.6714 2.4808-2.7269 3.8125-2.7812zm16.375 0c1.3317 0.05431 2.8385 1.1098 3.8125 2.7812 1.2987 2.2286 1.1307 4.7325-0.375 5.5938-1.5057 0.86125-3.7638-0.27142-5.0625-2.5-1.2987-2.2286-1.1307-4.7012 0.375-5.5625 0.37641-0.21531 0.8061-0.3306 1.25-0.3125z" fill="url(#linearGradient3916)" opacity=".716"/>
<path d="m33.75 20c-0.04115-8.97e-4 -0.08502 0.01398-0.125 0.03125-0.23987 0.1036-0.43058 0.45192-0.71875 0.8125 0 0-0.93044 2.5544-0.90625 4.1562 0.0016 0.10809 0.02625 0.25923 0.03125 0.375 0.16189-1.5621 0.875-3.5312 0.875-3.5312 0.28817-0.36058 0.47888-0.7089 0.71875-0.8125 0.03998-0.01727 0.08385-0.03215 0.125-0.03125 0.04115 8.97e-4 0.07956 0.01757 0.125 0.03125 0.21809 0.0657 0.50288 0.3213 0.84375 0.90625l11.562 19.281 0.3125-0.5-11.875-19.781c-0.34087-0.58495-0.62566-0.84055-0.84375-0.90625-0.045436-0.01368-0.083854-0.030353-0.125-0.03125zm28.375 0.03125c-0.21809 0.0657-0.50288 0.3213-0.84375 0.90625l-15.156 25.25c-1.2834 2.2857-1.9394 5.7626-2.875 8.5625-0.4678 1.4-1.0195 2.6455-1.5312 3.3125-0.31877 0.54547-0.69392 0.59375-1.1562 0.59375-2.5703-0.10003-5.4258 1.6555-7.1562 4.625-1.0469 1.7965-1.4899 3.7397-1.375 5.4688 0.08088-1.454 0.52728-3.014 1.375-4.4688 1.7304-2.9695 4.586-4.725 7.1562-4.625 0.46233 0 0.83748-0.04828 1.1562-0.59375 0.5118-0.667 1.0635-1.9126 1.5312-3.3125 0.93559-2.7999 1.5916-6.2768 2.875-8.5625l15.156-25.25c0.34087-0.58495 0.62566-0.84055 0.84375-0.90625 0.36349-0.10944 0.58452 0.33172 0.96875 0.8125 0 0 0.71311 1.9692 0.875 3.5312 5e-3 -0.11577 0.029618-0.26691 0.03125-0.375 0.02419-1.6019-0.90625-4.1562-0.90625-4.1562-0.38423-0.48078-0.60526-0.92194-0.96875-0.8125zm-8.6562 36.594c-0.54846 0.73926-1.1525 1.045-1.875 1.25v0.03125c-1.0546 0.3067-1.687 0.59512-2.125 0.9375 0.13146 0.24597 0.26731 0.49378 0.375 0.75 0.41207-0.23994 0.95903-0.45747 1.75-0.6875v-0.03125c0.72254-0.20496 1.3265-0.51074 1.875-1.25 0.26988 0.59953 0.54778 1.0925 0.8125 1.4375 0.31877 0.54547 0.69392 0.59375 1.1562 0.59375 2.5703-0.10003 5.4258 1.6555 7.1562 4.625 0.84772 1.4547 1.2941 3.0148 1.375 4.4688 0.11491-1.729-0.32808-3.6722-1.375-5.4688-1.7304-2.9695-4.586-4.725-7.1562-4.625-0.46233 0-0.83748-0.04828-1.1562-0.59375-0.26472-0.345-0.54262-0.83797-0.8125-1.4375zm-11.188 8.7812c-0.08517 0.79808-0.36276 1.6434-0.84375 2.4688-1.2987 2.2286-3.5568 3.3612-5.0625 2.5-0.69585-0.39803-1.107-1.1521-1.2188-2.0625-0.1355 1.3534 0.27772 2.5242 1.2188 3.0625 1.5057 0.86125 3.7638-0.27142 5.0625-2.5 0.69164-1.1869 0.96462-2.4237 0.84375-3.4688zm11.438 0c-0.12087 1.0451 0.15211 2.2819 0.84375 3.4688 1.2987 2.2286 3.5568 3.3612 5.0625 2.5 0.94103-0.53828 1.3543-1.7091 1.2188-3.0625-0.1117 0.91041-0.5229 1.6645-1.2188 2.0625-1.5057 0.86125-3.7638-0.27142-5.0625-2.5-0.48099-0.82539-0.75858-1.6707-0.84375-2.4688z" fill="#fff" opacity=".75"/>
<path d="m32.031 24.406c-0.0209 0.21124-0.034123 0.4035-0.03125 0.59375 0.0299 1.9801 0.62789 5.2979 1.6875 8.1875 2.2482 6.131 5.3824 12.868 8.1562 17.781 0.53444-1.9721 1.1398-4.1029 2.1875-5.9688a2.4116 2.4116 0 0 1 0.03125-0.0625l2.5312-4.2188-0.3125-0.5-2.2188 3.7188a2.4116 2.4116 0 0 0-0.03125 0.0625c-1.0477 1.8658-1.6531 3.9966-2.1875 5.9688-2.7738-4.9137-5.908-11.65-8.1562-17.781-0.99698-2.7188-1.5653-5.7752-1.6562-7.7812zm31.938 0c-0.09097 2.0061-0.65927 5.0624-1.6562 7.7812-2.9845 8.1389-7.5099 17.32-10.719 21.938-0.14928 0.22366-0.42961 0.39865-0.6875 0.46875-2.9948 0.87096-4.107 2.3947-4.7812 4.0938-0.58784 1.4814-0.71885 3.0946-0.6875 4.375 0.05118-1.0633 0.24662-2.2639 0.6875-3.375 0.67426-1.699 1.7864-3.2228 4.7812-4.0938 0.25789-0.0701 0.53822-0.24509 0.6875-0.46875 3.2088-4.6173 7.7342-13.799 10.719-21.938 1.0596-2.8896 1.6576-6.2074 1.6875-8.1875 0.0029-0.19025-0.01035-0.38251-0.03125-0.59375zm-18.531 38.656-0.0625-0.09375c0.02067 0.32633 0.01961 0.66195 0 1l0.0625 0.09375c-0.0078-0.32011-0.01706-0.64556 0-1zm-0.0625 0.90625c-0.08343 1.4381-0.5325 2.9605-1.375 4.4062-2.2606 3.8793-6.4384 5.6798-9.375 4-1.5683-0.89711-2.4534-2.6028-2.5938-4.5938-0.12527 2.4105 0.76634 4.5484 2.5938 5.5938 2.9366 1.6798 7.1144-0.12074 9.375-4 1.0405-1.7856 1.4836-3.6917 1.375-5.4062zm4.4688-5.375c-0.13736 0.07998-0.26551 0.1644-0.375 0.25 0.14683 0.27472 0.2922 0.55636 0.40625 0.84375 0.44088 1.1111 0.63633 2.3117 0.6875 3.375 0.03135-1.2804-0.09965-2.8936-0.6875-4.375-0.01194-0.03008-0.01866-0.06379-0.03125-0.09375zm0.71875 4.4688c0.01706 0.35444 0.0078 0.67989 0 1l0.0625-0.09375c-0.01961-0.33805-0.02067-0.67367 0-1zm0.0625 0.90625c-0.10863 1.7146 0.33445 3.6206 1.375 5.4062 2.2606 3.8793 6.4384 5.6798 9.375 4 1.8274-1.0453 2.719-3.1833 2.5938-5.5938-0.14038 1.991-1.0254 3.6966-2.5938 4.5938-2.9366 1.6798-7.1144-0.12074-9.375-4-0.8425-1.4458-1.2916-2.9681-1.375-4.4062zm-10.812-2.9688c-1.3317 0.05431-2.8385 1.1098-3.8125 2.7812-0.69164 1.1869-0.96462 2.4467-0.84375 3.5 0.08504-0.80378 0.36256-1.6743 0.84375-2.5 0.97401-1.6714 2.4808-2.7269 3.8125-2.7812 0.4439-0.0181 0.87359 0.09719 1.25 0.3125 0.69585 0.39803 1.107 1.1593 1.2188 2.0625 0.1355-1.3442-0.27772-2.5242-1.2188-3.0625-0.37641-0.21531-0.8061-0.3306-1.25-0.3125zm16.375 0c-0.4439-0.0181-0.87359 0.09719-1.25 0.3125-0.94103 0.53828-1.3543 1.7183-1.2188 3.0625 0.1117-0.90323 0.5229-1.6645 1.2188-2.0625 0.37641-0.21531 0.8061-0.3306 1.25-0.3125 1.3317 0.05431 2.8385 1.1098 3.8125 2.7812 0.48119 0.82575 0.75871 1.6962 0.84375 2.5 0.12087-1.0533-0.15211-2.3131-0.84375-3.5-0.97401-1.6714-2.4808-2.7269-3.8125-2.7812z" fill="#fff" opacity=".518"/>
</g>
<rect transform="matrix(1.0692 0 0 1.0477 4.4442 38.894)" x="2" y="-30" width="75.966" height="69.024" rx="3.957" ry="3.957" clip-path="url(#clipPath4156-4-1)" fill="url(#linearGradient4767)" opacity=".388"/>
</g>
</g>
</svg>
