<?xml version="1.0" encoding="UTF-8"?>
<!-- Created with Inkscape (http://www.inkscape.org/) -->
<svg version="1.1" viewBox="0 0 96 96" xmlns="http://www.w3.org/2000/svg" xmlns:cc="http://creativecommons.org/ns#" xmlns:dc="http://purl.org/dc/elements/1.1/" xmlns:rdf="http://www.w3.org/1999/02/22-rdf-syntax-ns#" xmlns:xlink="http://www.w3.org/1999/xlink">
<defs>
<linearGradient id="linearGradient4071" x1="6" x2="90" y1="47" y2="47" gradientTransform="matrix(1.1071 0 0 1.1071 -4.9939 -3.6207)" gradientUnits="userSpaceOnUse">
<stop stop-color="#adb9c1" offset="0"/>
<stop stop-color="#fff" offset=".25"/>
<stop stop-color="#90a2aa" offset=".5"/>
<stop stop-color="#f9fafb" offset=".75"/>
<stop stop-color="#adb9c1" offset="1"/>
</linearGradient>
<linearGradient id="linearGradient4129" x1="1.5" x2="94.5" y1="88.172" y2="88.172" gradientTransform="translate(.14895 .41503)" gradientUnits="userSpaceOnUse" xlink:href="#linearGradient3832-0-6-1-1"/>
<linearGradient id="linearGradient3832-0-6-1-1">
<stop offset="0"/>
<stop stop-opacity=".58824" offset=".1"/>
<stop stop-opacity=".58824" offset=".9"/>
<stop offset="1"/>
</linearGradient>
<radialGradient id="radialGradient7462" cx="13.948" cy="44.893" r="43.199" gradientTransform="matrix(.97513 0 0 .049191 34.048 80.582)" gradientUnits="userSpaceOnUse" xlink:href="#linearGradient3737"/>
<linearGradient id="linearGradient3737">
<stop stop-color="#fff" offset="0"/>
<stop stop-color="#fff" stop-opacity="0" offset="1"/>
</linearGradient>
<radialGradient id="radialGradient7464" cx="13.948" cy="44.893" r="43.199" gradientTransform="matrix(.88833 0 0 .049191 31.96 -90.317)" gradientUnits="userSpaceOnUse" xlink:href="#linearGradient3737"/>
<linearGradient id="linearGradient4767" x1="2.7714" x2="50.528" y1="-28.642" y2="14.514" gradientUnits="userSpaceOnUse" xlink:href="#linearGradient3737"/>
<clipPath id="clipPath4156-4-1">
<path d="m27.046-55.695-14.214 13.321h0.06127l15.653 21.771 10.231-10.546c-0.2169-1.1522-11.311-23.67-11.732-24.546zm-17.399 16.313-14.888 14.062 21.229 17.515 10.385-10.577zm31.491 12.951-9.7413 9.7136 8.9448 12.458 7.7808-7.555zm-49.84 4.3788-13.754 12.982 26.283 13.846 0.06127-0.0617-0.12253-0.0617 9.8332-10.053-22.301-16.652zm38.015 7.4008-9.8025 9.7753 11.579 9.5594 7.6276-7.4008-8.6691-11.009zm20.187 5.674-7.3825 7.2158 6.1878 8.5418 5.8202-6.1365zm-32.195 6.3215-9.5575 9.4977 13.662 7.185 7.9339-7.6784zm23.312 2.3744-7.1068 6.9383 8.3628 6.9074 5.3608-5.674-0.06127-0.0925-0.0919 0.12335-6.4635-8.2026zm-8.7304 8.5418-7.5051 7.3392 10.354 5.4581c1.3975-1.321 5.6751-6.1229 5.8509-6.3215z" fill="#fff" opacity=".6"/>
</clipPath>
<linearGradient id="linearGradient3875" x1="11.162" x2="11.162" y1="-1.131" y2="16.588" gradientTransform="matrix(3.3931 0 0 2.6525 24 29)" gradientUnits="userSpaceOnUse" xlink:href="#linearGradient3832-0-6-1-1"/>
</defs>
<metadata>
<rdf:RDF>
<cc:Work rdf:about="">
<dc:format>image/svg+xml</dc:format>
<dc:type rdf:resource="http://purl.org/dc/dcmitype/StillImage"/>
<dc:title/>
<dc:date>2017</dc:date>
<dc:creator>
<cc:Agent>
<dc:title>Cristian Pozzessere "ilnanny"</dc:title>
</cc:Agent>
</dc:creator>
<dc:subject>
<rdf:Bag>
<rdf:li>Global language</rdf:li>
</rdf:Bag>
</dc:subject>
<dc:description>Playing with Inkscape on Gnu/Linux O. S.</dc:description>
<dc:contributor>
<cc:Agent>
<dc:title>In the night, alone like a dog.</dc:title>
</cc:Agent>
</dc:contributor>
<cc:license rdf:resource="http://creativecommons.org/licenses/by-sa/4.0/"/>
</cc:Work>
<cc:License rdf:about="http://creativecommons.org/licenses/by-sa/4.0/">
<cc:permits rdf:resource="http://creativecommons.org/ns#Reproduction"/>
<cc:permits rdf:resource="http://creativecommons.org/ns#Distribution"/>
<cc:requires rdf:resource="http://creativecommons.org/ns#Notice"/>
<cc:requires rdf:resource="http://creativecommons.org/ns#Attribution"/>
<cc:permits rdf:resource="http://creativecommons.org/ns#DerivativeWorks"/>
<cc:requires rdf:resource="http://creativecommons.org/ns#ShareAlike"/>
</cc:License>
</rdf:RDF>
</metadata>
<g transform="translate(0 -1026.5)">
<g transform="translate(-.14896 1026.1)">
<path d="m89.292 0.41503h-82.286c-3.7988 0-6.8571 3.0583-6.8571 6.8571v82.286c0 3.7989 3.0583 6.8571 6.8571 6.8571h82.286c3.7989 0 6.8571-3.0583 6.8571-6.8571v-82.286c0-3.7989-3.0583-6.8571-6.8571-6.8571z" opacity=".15"/>
<path d="m88.649 1.165h-81c-3.7395 0-6.75 3.0105-6.75 6.75v81c0 3.7395 3.0105 6.75 6.75 6.75h81c3.7395 0 6.75-3.0105 6.75-6.75v-81c0-3.7395-3.0105-6.75-6.75-6.75z" opacity=".15"/>
<path d="m88.006 1.915h-79.714c-3.6801 0-6.6429 2.9627-6.6429 6.6429v79.714c0 3.6801 2.9627 6.6429 6.6429 6.6429h79.714c3.6801 0 6.6429-2.9627 6.6429-6.6429v-79.714c0-3.6801-2.9627-6.6429-6.6429-6.6429z" fill="url(#linearGradient4071)"/>
<path d="m11.39 6.8022c-2.8565 0-5.1241 2.2884-5.1241 5.171v68.58c1.0972 1.6845 2.9688 2.8117 5.1241 2.8117h73.787c2.1553 0 4.0269-1.1272 5.1241-2.8117v-68.58c0-2.8826-2.2676-5.171-5.1241-5.171z" fill="#f5f3f3" opacity=".77865"/>
<path d="m9.974 5.1445c-3.1166 0-5.668 2.5395-5.668 5.646v69.278c0 3.1065 2.5513 5.646 5.668 5.646h76.792c3.1166 0 5.668-2.5395 5.668-5.646v-69.278c0-3.1065-2.5513-5.646-5.668-5.646zm0 2.3194h76.792c1.8881 0 3.352 1.4801 3.352 3.3266v69.278c0 1.8465-1.4639 3.3266-3.352 3.3266h-76.792c-1.8881 0-3.352-1.4801-3.352-3.3266v-69.278c0-1.8465 1.4639-3.3266 3.352-3.3266z" color="#000000" fill="#1f2224" fill-opacity=".63265" style="text-decoration-line:none;text-indent:0;text-transform:none"/>
<path d="m1.649 82.259v6c0 3.6801 2.9761 6.6562 6.6562 6.6562h79.687c3.6801 0 6.6563-2.9761 6.6563-6.6562v-6c0 3.6801-2.9761 6.6562-6.6563 6.6562h-79.687c-3.6801 0-6.6562-2.9761-6.6562-6.6562z" fill="url(#linearGradient4129)" opacity=".65818"/>
<rect x="5.524" y="80.665" width="84.25" height="4.25" rx="0" ry="4.25" fill="url(#radialGradient7462)" opacity=".55"/>
<rect transform="rotate(90)" x="5.975" y="-90.234" width="76.75" height="4.25" rx="0" ry="4.25" fill="url(#radialGradient7464)" opacity=".669"/>
<g transform="matrix(1.2892 0 0 1.2892 -12.573 -16.687)">
<path d="m54.094 25.094c-1.4228 0.04031-2.0159 1.5663-1.7812 2.7955 0.06969 1.9359-0.13535 3.9234 0.09375 5.8295 0.38319 1.2684 1.8432 1.3731 2.9669 1.25 2.6468 0.10646 5.3677-0.30087 7.9426 0.43599 1.2459 1.2318 0.7937 3.3211 0.90302 4.9684-0.04982 4.7592 0.10838 9.5262-0.09663 14.28 0.19278 2.6882-2.929 2.3617-4.7694 2.3783h-3.2902c-0.06374-2.5481 0.12686-5.1275-0.09375-7.6562-0.42585-1.4147-2.3636-1.6398-3.3383-0.64188-5.9731 3.9701-12.009 7.8924-17.943 11.892-1.1205 0.9795-0.52119 2.8116 0.77581 3.2956 5.9629 3.928 11.904 7.8938 17.88 11.798 1.3838 0.71293 3.0622-0.65693 2.7188-2.1634v-6.6804c3.2805-0.10576 6.6051 0.27553 9.8425-0.34244 5.0954-1.2009 8.6329-6.4049 8.1575-11.57-0.03469-6.6909 0.07113-13.386-0.05616-20.074-0.44114-5.7417-6.0094-10.286-11.708-9.7633-2.7329-0.021581-5.4802 0.042676-8.2045-0.03125zm-27.094 30.031c-4.3218-0.15067-7.8883 4.4392-6.658 8.59 0.93469 4.1992 6.2169 6.5221 9.9309 4.3283 3.8464-1.9158 4.8234-7.5859 1.8128-10.662-1.28-1.4219-3.1707-2.2679-5.0857-2.2561z" opacity=".15"/>
<path d="m54 26a1.0065 1.0065 0 0 0-0.8125 1v6.0938a1.0065 1.0065 0 0 0 1 1h5.9062c2.4344 0 3.6143 0.31851 4.1562 0.875s0.84375 1.7781 0.84375 4.2188v13.625c0 2.4407-0.3018 3.6623-0.84375 4.2188s-1.7218 0.875-4.1562 0.875h-4.9062v-7.9062a1.0065 1.0065 0 0 0-1.5625-0.84375l-18.188 12a1.0065 1.0065 0 0 0 0 1.6875l18.188 12a1.0065 1.0065 0 0 0 1.5625-0.84375v-8h8c5.5261 0 10-4.4739 10-10v-20c0-5.5261-4.4739-10-10-10h-9a1.0065 1.0065 0 0 0-0.1875 0zm-27 30c-3.3053 0-6 2.6947-6 6 0 3.3053 2.6947 6 6 6s6-2.6947 6-6c0-3.3053-2.6947-6-6-6z" opacity=".15"/>
<path d="m54.188 27v6.0938h5.9062c5.0134 0 6 1.0804 6 6.0938v13.625c0 5.0134-0.98662 6.0938-6 6.0938h-5.9062v-8.9062l-18.188 12 18.188 12v-9h9c4.986 0 9-4.014 9-9v-20c0-4.986-4.014-9-9-9zm-27.188 30c-2.7614 0-5 2.2386-5 5 0 2.7614 2.2386 5 5 5s5-2.2386 5-5c0-2.7614-2.2386-5-5-5z" opacity=".3"/>
<path d="m54.188 26v6.0938h5.9062c5.0134 0 6 1.0804 6 6.0938v13.625c0 5.0134-0.98662 6.0938-6 6.0938h-5.9062v-8.9062l-18.188 12 18.188 12v-9h9c4.986 0 9-4.014 9-9v-20c0-4.986-4.014-9-9-9zm-27.188 30c-2.7614 0-5 2.2386-5 5 0 2.7614 2.2386 5 5 5s5-2.2386 5-5c0-2.7614-2.2386-5-5-5z" fill="url(#linearGradient3875)"/>
<path d="m54.188 26v1h9c4.986 0 9 4.014 9 9v-1c0-4.986-4.014-9-9-9zm0 23-18.188 12 0.75 0.5 17.438-11.5zm11.906 2.8125c0 5.0134-0.98662 6.0938-6 6.0938h-5.9062v1h5.9062c5.0134 0 6-1.0804 6-6.0938zm-39.094 4.1875c-2.7614 0-5 2.2386-5 5 0 0.17259 0.01418 0.33192 0.03125 0.5 0.25605-2.5213 2.3799-4.5 4.9688-4.5s4.7127 1.9787 4.9688 4.5c0.01707-0.16808 0.03125-0.32741 0.03125-0.5 0-2.7614-2.2386-5-5-5z" fill="#fff" opacity=".75"/>
<path d="m54.188 31.094v1h5.9062c5.0134 0 6 1.0804 6 6.0938v-1c0-5.0134-0.98662-6.0938-6-6.0938zm18 22.906c0 4.986-4.014 9-9 9h-9v1h9c4.986 0 9-4.014 9-9zm-50.156 6.5c-0.01707 0.16808-0.03125 0.32741-0.03125 0.5 0 2.7614 2.2386 5 5 5s5-2.2386 5-5c0-0.17259-0.01418-0.33192-0.03125-0.5-0.25605 2.5213-2.3799 4.5-4.9688 4.5s-4.7127-1.9787-4.9688-4.5zm14.719 0-0.75 0.5 18.188 12v-1z" fill="#fcfcfc" opacity=".241"/>
</g>
<rect transform="matrix(1.0692 0 0 1.0477 4.4442 38.894)" x="2" y="-30" width="75.966" height="69.024" rx="3.957" ry="3.957" clip-path="url(#clipPath4156-4-1)" fill="url(#linearGradient4767)" opacity=".50781"/>
</g>
</g>
</svg>
