<?xml version="1.0" encoding="UTF-8"?>
<!-- Created with Inkscape (http://www.inkscape.org/) -->
<svg version="1.1" viewBox="0 0 96 96" xmlns="http://www.w3.org/2000/svg" xmlns:cc="http://creativecommons.org/ns#" xmlns:dc="http://purl.org/dc/elements/1.1/" xmlns:rdf="http://www.w3.org/1999/02/22-rdf-syntax-ns#" xmlns:xlink="http://www.w3.org/1999/xlink">
<defs>
<linearGradient id="linearGradient4071" x1="6" x2="90" y1="47" y2="47" gradientTransform="matrix(1.1071 0 0 1.1071 -4.9939 -3.6207)" gradientUnits="userSpaceOnUse">
<stop stop-color="#adb9c1" offset="0"/>
<stop stop-color="#fff" offset=".25"/>
<stop stop-color="#90a2aa" offset=".5"/>
<stop stop-color="#f9fafb" offset=".75"/>
<stop stop-color="#adb9c1" offset="1"/>
</linearGradient>
<linearGradient id="linearGradient4129" x1="1.5" x2="94.5" y1="88.172" y2="88.172" gradientTransform="translate(.14895 .41503)" gradientUnits="userSpaceOnUse" xlink:href="#linearGradient3832-0-6-1-1"/>
<linearGradient id="linearGradient3832-0-6-1-1">
<stop offset="0"/>
<stop stop-opacity=".58824" offset=".1"/>
<stop stop-opacity=".58824" offset=".9"/>
<stop offset="1"/>
</linearGradient>
<radialGradient id="radialGradient7462" cx="13.948" cy="44.893" r="43.199" gradientTransform="matrix(.97513 0 0 .049191 34.048 80.582)" gradientUnits="userSpaceOnUse" xlink:href="#linearGradient3737"/>
<linearGradient id="linearGradient3737">
<stop stop-color="#fff" offset="0"/>
<stop stop-color="#fff" stop-opacity="0" offset="1"/>
</linearGradient>
<radialGradient id="radialGradient7464" cx="13.948" cy="44.893" r="43.199" gradientTransform="matrix(.88833 0 0 .049191 31.96 -90.317)" gradientUnits="userSpaceOnUse" xlink:href="#linearGradient3737"/>
<linearGradient id="linearGradient4767" x1="2.7714" x2="50.528" y1="-28.642" y2="14.514" gradientUnits="userSpaceOnUse" xlink:href="#linearGradient3737"/>
<clipPath id="clipPath4156-4-1">
<path d="m27.046-55.695-14.214 13.321h0.06127l15.653 21.771 10.231-10.546c-0.2169-1.1522-11.311-23.67-11.732-24.546zm-17.399 16.313-14.888 14.062 21.229 17.515 10.385-10.577zm31.491 12.951-9.7413 9.7136 8.9448 12.458 7.7808-7.555zm-49.84 4.3788-13.754 12.982 26.283 13.846 0.06127-0.0617-0.12253-0.0617 9.8332-10.053-22.301-16.652zm38.015 7.4008-9.8025 9.7753 11.579 9.5594 7.6276-7.4008-8.6691-11.009zm20.187 5.674-7.3825 7.2158 6.1878 8.5418 5.8202-6.1365zm-32.195 6.3215-9.5575 9.4977 13.662 7.185 7.9339-7.6784zm23.312 2.3744-7.1068 6.9383 8.3628 6.9074 5.3608-5.674-0.06127-0.0925-0.0919 0.12335-6.4635-8.2026zm-8.7304 8.5418-7.5051 7.3392 10.354 5.4581c1.3975-1.321 5.6751-6.1229 5.8509-6.3215z" fill="#fff" opacity=".6"/>
</clipPath>
<linearGradient id="linearGradient4179" x1="9.1735" x2="9.1735" y1="2" y2="18.002" gradientTransform="matrix(3,0,0,3,12,26)" gradientUnits="userSpaceOnUse" xlink:href="#linearGradient3832-0-6-1-1"/>
</defs>
<metadata>
<rdf:RDF>
<cc:Work rdf:about="">
<dc:format>image/svg+xml</dc:format>
<dc:type rdf:resource="http://purl.org/dc/dcmitype/StillImage"/>
<dc:title/>
<dc:date>2017</dc:date>
<dc:creator>
<cc:Agent>
<dc:title>Cristian Pozzessere "ilnanny"</dc:title>
</cc:Agent>
</dc:creator>
<dc:subject>
<rdf:Bag>
<rdf:li>Global language</rdf:li>
</rdf:Bag>
</dc:subject>
<dc:description>Playing with Inkscape on Gnu/Linux O. S.</dc:description>
<dc:contributor>
<cc:Agent>
<dc:title>In the night, alone like a dog.</dc:title>
</cc:Agent>
</dc:contributor>
<cc:license rdf:resource="http://creativecommons.org/licenses/by-sa/4.0/"/>
</cc:Work>
<cc:License rdf:about="http://creativecommons.org/licenses/by-sa/4.0/">
<cc:permits rdf:resource="http://creativecommons.org/ns#Reproduction"/>
<cc:permits rdf:resource="http://creativecommons.org/ns#Distribution"/>
<cc:requires rdf:resource="http://creativecommons.org/ns#Notice"/>
<cc:requires rdf:resource="http://creativecommons.org/ns#Attribution"/>
<cc:permits rdf:resource="http://creativecommons.org/ns#DerivativeWorks"/>
<cc:requires rdf:resource="http://creativecommons.org/ns#ShareAlike"/>
</cc:License>
</rdf:RDF>
</metadata>
<g transform="translate(0 -1026.5)">
<g transform="translate(-.14896 1026.1)">
<path d="m89.292 0.41503h-82.286c-3.7988 0-6.8571 3.0583-6.8571 6.8571v82.286c0 3.7989 3.0583 6.8571 6.8571 6.8571h82.286c3.7989 0 6.8571-3.0583 6.8571-6.8571v-82.286c0-3.7989-3.0583-6.8571-6.8571-6.8571z" opacity=".15"/>
<path d="m88.649 1.165h-81c-3.7395 0-6.75 3.0105-6.75 6.75v81c0 3.7395 3.0105 6.75 6.75 6.75h81c3.7395 0 6.75-3.0105 6.75-6.75v-81c0-3.7395-3.0105-6.75-6.75-6.75z" opacity=".15"/>
<path d="m88.006 1.915h-79.714c-3.6801 0-6.6429 2.9627-6.6429 6.6429v79.714c0 3.6801 2.9627 6.6429 6.6429 6.6429h79.714c3.6801 0 6.6429-2.9627 6.6429-6.6429v-79.714c0-3.6801-2.9627-6.6429-6.6429-6.6429z" fill="url(#linearGradient4071)"/>
<path d="m11.39 6.8022c-2.8565 0-5.1241 2.2884-5.1241 5.171v68.58c1.0972 1.6845 2.9688 2.8117 5.1241 2.8117h73.787c2.1553 0 4.0269-1.1272 5.1241-2.8117v-68.58c0-2.8826-2.2676-5.171-5.1241-5.171z" fill="#f5f3f3" opacity=".77865"/>
<path d="m9.974 5.1445c-3.1166 0-5.668 2.5395-5.668 5.646v69.278c0 3.1065 2.5513 5.646 5.668 5.646h76.792c3.1166 0 5.668-2.5395 5.668-5.646v-69.278c0-3.1065-2.5513-5.646-5.668-5.646zm0 2.3194h76.792c1.8881 0 3.352 1.4801 3.352 3.3266v69.278c0 1.8465-1.4639 3.3266-3.352 3.3266h-76.792c-1.8881 0-3.352-1.4801-3.352-3.3266v-69.278c0-1.8465 1.4639-3.3266 3.352-3.3266z" color="#000000" fill="#1f2224" fill-opacity=".63265" style="text-decoration-line:none;text-indent:0;text-transform:none"/>
<path d="m1.649 82.259v6c0 3.6801 2.9761 6.6562 6.6562 6.6562h79.687c3.6801 0 6.6563-2.9761 6.6563-6.6562v-6c0 3.6801-2.9761 6.6562-6.6563 6.6562h-79.687c-3.6801 0-6.6562-2.9761-6.6562-6.6562z" fill="url(#linearGradient4129)" opacity=".65818"/>
<rect x="5.524" y="80.665" width="84.25" height="4.25" rx="0" ry="4.25" fill="url(#radialGradient7462)" opacity=".55"/>
<rect transform="rotate(90)" x="5.975" y="-90.234" width="76.75" height="4.25" rx="0" ry="4.25" fill="url(#radialGradient7464)" opacity=".669"/>
<g transform="matrix(1.2886 0 0 1.2188 -13.706 -18.383)">
<path d="m34.5 25.062c-3.718-0.09881-6.8514 3.4785-6.4375 7.1403 0.02219 8.9834-0.04449 17.97 0.03351 26.951 0.27944 3.529 3.78 6.196 7.2474 5.7834 8.9366-0.02219 17.876 0.04448 26.811-0.03351 3.529-0.27944 6.196-3.78 5.7834-7.2474-0.02219-8.9366 0.04448-17.876-0.03351-26.811-0.27944-3.529-3.78-6.196-7.2474-5.7834h-26.157zm3.4375 9.875h20.125v20.125h-20.125v-20.125zm-1.9375 32.125c-1.3808-0.08684-2.54 1.6765-1.6875 2.9062 2.4615 2.6774 5.1575 5.1745 7.7085 7.783 1.6915 1.64 3.3096 3.3914 5.0415 4.967 1.0773 0.60343 2.2624-0.06176 2.9089-0.97136 3.8758-3.8977 7.8193-7.7762 11.654-11.685 0.98484-1.3374-0.34739-3.2589-1.9374-3h-23.688z" opacity=".1"/>
<path transform="translate(0,1)" d="m34.5 25c-3.0285 0-5.5 2.4715-5.5 5.5v27c0 3.0285 2.4715 5.5 5.5 5.5h27c3.0285 0 5.5-2.4715 5.5-5.5v-27c0-3.0285-2.4715-5.5-5.5-5.5zm3 8h21c0.29548 0 0.5 0.20452 0.5 0.5v21c0 0.29548-0.20452 0.5-0.5 0.5h-21c-0.29548 0-0.5-0.20452-0.5-0.5v-21c0-0.29548 0.20452-0.5 0.5-0.5zm-1.5938 34a0.99789 0.99789 0 0 0-0.625 1.7188l12 12a0.99789 0.99789 0 0 0 1.4375 0l12-12a0.99789 0.99789 0 0 0-0.71875-1.7188h-24a0.99789 0.99789 0 0 0-0.09375 0z" opacity=".15"/>
<path d="m34.5 27c-2.493 0-4.5 2.007-4.5 4.5v27c0 2.493 2.007 4.5 4.5 4.5h27c2.493 0 4.5-2.007 4.5-4.5v-27c0-2.493-2.007-4.5-4.5-4.5zm3 6h21c0.831 0 1.5 0.669 1.5 1.5v21c0 0.831-0.669 1.5-1.5 1.5h-21c-0.831 0-1.5-0.669-1.5-1.5v-21c0-0.831 0.669-1.5 1.5-1.5zm-1.5 36 12 12 12-12z" opacity=".3"/>
<path d="m34.5 26c-2.493 0-4.5 2.007-4.5 4.5v27c0 2.493 2.007 4.5 4.5 4.5h27c2.493 0 4.5-2.007 4.5-4.5v-27c0-2.493-2.007-4.5-4.5-4.5zm3 6h21c0.831 0 1.5 0.669 1.5 1.5v21c0 0.831-0.669 1.5-1.5 1.5h-21c-0.831 0-1.5-0.669-1.5-1.5v-21c0-0.831 0.669-1.5 1.5-1.5zm-1.5 36 12 12 12-12z" fill="url(#linearGradient4179)"/>
<path d="m34.5 26c-2.493 0-4.5 2.007-4.5 4.5v1c0-2.493 2.007-4.5 4.5-4.5h27c2.493 0 4.5 2.007 4.5 4.5v-1c0-2.493-2.007-4.5-4.5-4.5zm1.5 28.5v1c0 0.831 0.669 1.5 1.5 1.5h21c0.831 0 1.5-0.669 1.5-1.5v-1c0 0.831-0.669 1.5-1.5 1.5h-21c-0.831 0-1.5-0.669-1.5-1.5zm0 13.5 1 1h22l1-1z" fill="#fff" opacity=".75"/>
<path d="m37.5 31c-0.831 0-1.5 0.669-1.5 1.5v1c0-0.831 0.669-1.5 1.5-1.5h21c0.831 0 1.5 0.669 1.5 1.5v-1c0-0.831-0.669-1.5-1.5-1.5zm-7.5 25.5v1c0 2.493 2.007 4.5 4.5 4.5h27c2.493 0 4.5-2.007 4.5-4.5v-1c0 2.493-2.007 4.5-4.5 4.5h-27c-2.493 0-4.5-2.007-4.5-4.5zm6 11.5 12 12 12-12h-1l-11 11-11-11z" fill="#fcfcfc" opacity=".15"/>
</g>
<rect transform="matrix(1.0692 0 0 1.0477 4.4442 38.894)" x="2" y="-30" width="75.966" height="69.024" rx="3.957" ry="3.957" clip-path="url(#clipPath4156-4-1)" fill="url(#linearGradient4767)" opacity=".50781"/>
</g>
</g>
</svg>
