<?xml version="1.0" encoding="UTF-8"?>
<!-- Created with Inkscape (http://www.inkscape.org/) -->
<svg version="1.1" viewBox="0 0 96 96" xmlns="http://www.w3.org/2000/svg" xmlns:cc="http://creativecommons.org/ns#" xmlns:dc="http://purl.org/dc/elements/1.1/" xmlns:rdf="http://www.w3.org/1999/02/22-rdf-syntax-ns#" xmlns:xlink="http://www.w3.org/1999/xlink">
<script xlink:href=""/>
<defs>
<clipPath>
<rect x="6" y="6" width="84" height="84" rx="6" ry="6" fill="#f0f"/>
</clipPath>
<linearGradient id="linearGradient4213-7">
<stop stop-color="#fff" offset="0"/>
<stop stop-color="#fff" stop-opacity="0" offset="1"/>
</linearGradient>
<linearGradient id="linearGradient4071" x1="6" x2="90" y1="47" y2="47" gradientTransform="matrix(1.1014 0 0 1.1014 -4.9671 -3.0997)" gradientUnits="userSpaceOnUse">
<stop stop-color="#b2babc" offset="0"/>
<stop stop-color="#fff" offset=".25"/>
<stop stop-color="#96a1a4" offset=".5"/>
<stop stop-color="#f9fafb" offset=".75"/>
<stop stop-color="#b2b9bc" offset="1"/>
</linearGradient>
<linearGradient id="linearGradient4129" x1="1.5" x2="94.5" y1="88.172" y2="88.172" gradientTransform="matrix(.99479 0 0 .99479 .14895 .91502)" gradientUnits="userSpaceOnUse">
<stop offset="0"/>
<stop stop-opacity=".58824" offset=".1"/>
<stop stop-opacity=".58824" offset=".9"/>
<stop offset="1"/>
</linearGradient>
<radialGradient id="radialGradient7462" cx="13.948" cy="44.893" r="43.199" gradientTransform="matrix(.97005 0 0 .048935 33.871 80.664)" gradientUnits="userSpaceOnUse" xlink:href="#linearGradient4213-7"/>
<radialGradient id="radialGradient7464" cx="13.948" cy="44.893" r="43.199" gradientTransform="matrix(.8837 0 0 .048935 32.295 -89.848)" gradientUnits="userSpaceOnUse" xlink:href="#linearGradient4213-7"/>
<linearGradient id="linearGradient4767" x1="2.7714" x2="50.528" y1="-28.642" y2="14.514" gradientUnits="userSpaceOnUse" xlink:href="#linearGradient4213-7"/>
<clipPath id="clipPath4156-4-1">
<path d="m27.046-55.695-14.214 13.321h0.06127l15.653 21.771 10.231-10.546c-0.2169-1.1522-11.311-23.67-11.732-24.546zm-17.399 16.313-14.888 14.062 21.229 17.515 10.385-10.577zm31.491 12.951-9.7413 9.7136 8.9448 12.458 7.7808-7.555zm-49.84 4.3788-13.754 12.982 26.283 13.846 0.06127-0.0617-0.12253-0.0617 9.8332-10.053-22.301-16.652zm38.015 7.4008-9.8025 9.7753 11.579 9.5594 7.6276-7.4008-8.6691-11.009zm20.187 5.674-7.3825 7.2158 6.1878 8.5418 5.8202-6.1365zm-32.195 6.3215-9.5575 9.4977 13.662 7.185 7.9339-7.6784zm23.312 2.3744-7.1068 6.9383 8.3628 6.9074 5.3608-5.674-0.06127-0.0925-0.0919 0.12335-6.4635-8.2026zm-8.7304 8.5418-7.5051 7.3392 10.354 5.4581c1.3975-1.321 5.6751-6.1229 5.8509-6.3215z" fill="#fff" opacity=".6"/>
</clipPath>
<linearGradient id="linearGradient12542" x1="38" x2="38" y1="36" y2="68" gradientTransform="translate(4,-4)" gradientUnits="userSpaceOnUse">
<stop stop-color="#1e1e1e" offset="0"/>
<stop stop-color="#505050" offset="1"/>
</linearGradient>
</defs>
<metadata>
<rdf:RDF>
<cc:Work rdf:about="">
<dc:format>image/svg+xml</dc:format>
<dc:type rdf:resource="http://purl.org/dc/dcmitype/StillImage"/>
<dc:title/>
</cc:Work>
</rdf:RDF>
</metadata>
<g transform="translate(0,32)">
<g transform="translate(-8.044 -17.334)">
<g transform="matrix(-1.0489 0 0 .94457 106.39 -15.005)" fill="none" stroke="#fffdfd">
<g transform="matrix(-.95339 0 0 1.0587 93.763 -1086.4)">
<g transform="translate(-.14896 1026.1)">
<g transform="translate(.25 -.24995)" stroke="none">
<path d="m88.828 0.91502h-81.857c-3.7791 0-6.8214 3.0424-6.8214 6.8214v81.857c0 3.7791 3.0424 6.8214 6.8214 6.8214h81.857c3.7791 0 6.8214-3.0424 6.8214-6.8214v-81.857c0-3.7791-3.0424-6.8214-6.8214-6.8214z" fill="#000" opacity=".15"/>
<path d="m88.188 1.6611h-80.578c-3.72 0-6.7148 2.9948-6.7148 6.7148v80.578c0 3.72 2.9948 6.7148 6.7148 6.7148h80.578c3.72 0 6.7148-2.9948 6.7148-6.7148v-80.578c0-3.72-2.9948-6.7148-6.7148-6.7148z" fill="#000" opacity=".15"/>
<path d="m87.549 2.4072h-79.299c-3.661 0-6.6083 2.9473-6.6083 6.6083v79.299c0 3.661 2.9473 6.6083 6.6083 6.6083h79.299c3.661 0 6.6083-2.9473 6.6083-6.6083v-79.299c0-3.661-2.9473-6.6083-6.6083-6.6083z" fill="url(#linearGradient4071)"/>
<path d="m11.332 7.2689c-2.8416 0-5.0974 2.2765-5.0974 5.1441v68.223c1.0915 1.6757 2.9534 2.7971 5.0974 2.7971h73.403c2.1441 0 4.0059-1.1214 5.0974-2.7971v-68.223c0-2.8676-2.2558-5.1441-5.0974-5.1441z" fill="#f5f3f3" opacity=".77865"/>
<path d="m9.9229 5.6198c-3.1004 0-5.6384 2.5263-5.6384 5.6166v68.917c0 3.0903 2.5381 5.6166 5.6384 5.6166h76.392c3.1004 0 5.6384-2.5263 5.6384-5.6166v-68.917c0-3.0903-2.5381-5.6166-5.6384-5.6166zm0 2.3074h76.392c1.8783 0 3.3346 1.4724 3.3346 3.3092v68.917c0 1.8369-1.4563 3.3092-3.3346 3.3092h-76.392c-1.8783 0-3.3346-1.4724-3.3346-3.3092v-68.917c0-1.8369 1.4563-3.3092 3.3346-3.3092z" color="#000000" fill="#1f2224" fill-opacity=".63265" style="text-decoration-line:none;text-indent:0;text-transform:none"/>
<path d="m1.6411 82.333v5.9688c0 3.661 2.9606 6.6216 6.6216 6.6216h79.272c3.661 0 6.6216-2.9606 6.6216-6.6216v-5.9688c0 3.661-2.9606 6.6216-6.6216 6.6216h-79.272c-3.661 0-6.6216-2.9606-6.6216-6.6216z" fill="url(#linearGradient4129)" opacity=".65818"/>
<rect x="5.496" y="80.747" width="83.811" height="4.2279" rx="0" ry="4.2279" fill="url(#radialGradient7462)" opacity=".55"/>
<rect transform="rotate(90)" x="6.4461" y="-89.765" width="76.35" height="4.2279" rx="0" ry="4.2279" fill="url(#radialGradient7464)" opacity=".669"/>
<g transform="matrix(0 1.4037 -1.6454 0 117.82 -18.71)">
<path d="m47.812 32c-0.42707 0.0418-0.82032 0.23246-1.0312 0.5l-14.594 18c-0.11543 0.14208-0.18048 0.30471-0.1875 0.46875-0.025613 0.53453 0.65467 1.0334 1.4062 1.0312h29.188c0.9834 0.0042 1.7145-0.89562 1.2188-1.5l-14.594-18c-0.27254-0.34511-0.8548-0.55213-1.4062-0.5z" color="#000000" fill="url(#linearGradient12542)"/>
<path d="m32.188 51.5c-0.11543 0.14208-0.18048 0.30471-0.1875 0.46875-0.025613 0.53453 0.65467 1.0334 1.4062 1.0312h29.188c0.9834 0.0042 1.7145-0.89562 1.2188-1.5-0.24495 0.30302-0.7275 0.50099-1.2188 0.5h-29.188c-0.49125 9.93e-4 -0.9738-0.19698-1.2188-0.5z" color="#000000" fill="#fff" opacity=".6"/>
<path d="m47.812 32c-0.42707 0.0418-0.82032 0.23246-1.0312 0.5l-14.594 18c-0.11543 0.14208-0.18048 0.30471-0.1875 0.46875-0.0083 0.18486 0.05739 0.37113 0.1875 0.53125l14.594-18c0.21094-0.26754 0.60418-0.4582 1.0312-0.5 0.55145-0.05213 1.1337 0.15489 1.4062 0.5l14.594 18c0.246-0.30211 0.246-0.69789 0-1l-14.594-18c-0.27254-0.34511-0.8548-0.55213-1.4062-0.5z" color="#000000" fill="#000" opacity=".6"/>
<path d="m47.812 32c-0.42707 0.0418-0.82032 0.23246-1.0312 0.5l-14.594 18c-0.11543 0.14208-0.18048 0.30471-0.1875 0.46875 3.2973 2.5217 31.246 2.1535 31.812-0.46875l-14.594-18c-0.27254-0.34511-0.8548-0.55213-1.4062-0.5zm0.03125 1c0.08006-0.01467-0.01848 0.0079 0.0625 0 0.05227-0.0049 0.01005 0.0022 0.0625 0s-0.02124-6.27e-4 0.03125 0 0.01011-0.0034 0.0625 0 0.01036-0.0062 0.0625 0-0.02049-9e-3 0.03125 0 0.01131 0.0194 0.0625 0.03125-0.01924-0.01472 0.03125 0-0.01838-0.01765 0.03125 0-0.01736 0.01062 0.03125 0.03125-0.01615-0.02369 0.03125 0-0.01474 0.0044 0.03125 0.03125c0.04599 0.02683-0.0131-0.03006 0.03125 0 0.04245 0.0334-9e-3 -0.0056 0.03125 0.03125l14.438 17.812c-0.04397 0.01529 0.01338 0.01824-0.03125 0.03125s0.01393-0.01076-0.03125 0 0.01438-0.0085-0.03125 0c-0.09126 0.01708-0.0013 0.02295-0.09375 0.03125-0.09244 0.0083-9.49e-4 3.98e-4 -0.09375 0h-29.188c-0.07093 2.03e-4 0.0083 0.0049-0.0625 0-0.07076-0.0049 0.0077 0.01-0.0625 0-0.07023-0.01 0.0068-0.01611-0.0625-0.03125-0.06935-0.01514 0.0056 0.02038-0.0625 0-0.04085-0.01223-0.03413-0.0319-0.03125-0.03125l14.438-17.812c0.03175-0.02769-0.0018-0.0056 0.03125-0.03125 0.03418-0.02364-4e-3 0.02168 0.03125 0 0.03611-0.01977-0.0057-0.01335 0.03125-0.03125 0.03692-0.0179-0.0064 0.01607 0.03125 0 0.03764-0.01607-7e-3 -0.01698 0.03125-0.03125 0.07654-0.02854-0.04734 0.02152 0.03125 0s0.01369-0.01658 0.09375-0.03125z" color="#000000" fill="#000" opacity=".2"/>
<path d="m47.812 32c-0.42707 0.0418-0.82032 0.23246-1.0312 0.5l-14.594 18c-0.11543 0.14208-0.18048 0.30471-0.1875 0.46875-0.025613 0.53453 0.65467 1.0334 1.4062 1.0312h29.188c0.9834 0.0042 1.7145-0.89562 1.2188-1.5l-14.594-18c-0.27254-0.34511-0.8548-0.55213-1.4062-0.5zm0.1875 1.875 13.188 16.281h-26.375z" color="#000000" fill="#000" opacity=".2"/>
</g>
<rect transform="matrix(1.0637 0 0 1.0422 4.4218 39.194)" x="2" y="-30" width="75.966" height="69.024" rx="3.957" ry="3.957" clip-path="url(#clipPath4156-4-1)" fill="url(#linearGradient4767)" opacity=".50781"/>
</g>
</g>
</g>
</g>
</g>
</g>
</svg>
