<?xml version="1.0" encoding="UTF-8"?>
<!-- Created with Inkscape (http://www.inkscape.org/) -->
<svg version="1.1" viewBox="0 0 96 96" xmlns="http://www.w3.org/2000/svg" xmlns:cc="http://creativecommons.org/ns#" xmlns:dc="http://purl.org/dc/elements/1.1/" xmlns:rdf="http://www.w3.org/1999/02/22-rdf-syntax-ns#" xmlns:xlink="http://www.w3.org/1999/xlink">
<defs>
<linearGradient id="linearGradient3737">
<stop stop-color="#fff" offset="0"/>
<stop stop-color="#fff" stop-opacity="0" offset="1"/>
</linearGradient>
<linearGradient id="linearGradient4071" x1="6" x2="90" y1="47" y2="47" gradientTransform="matrix(1.1071 0 0 1.1071 -4.9939 -3.6207)" gradientUnits="userSpaceOnUse">
<stop stop-color="#b2babc" offset="0"/>
<stop stop-color="#fff" offset=".25"/>
<stop stop-color="#96a1a4" offset=".5"/>
<stop stop-color="#f9fafb" offset=".75"/>
<stop stop-color="#b2b9bc" offset="1"/>
</linearGradient>
<linearGradient id="linearGradient4129" x1="1.5" x2="94.5" y1="88.172" y2="88.172" gradientTransform="translate(.14895 .41503)" gradientUnits="userSpaceOnUse">
<stop offset="0"/>
<stop stop-opacity=".58824" offset=".1"/>
<stop stop-opacity=".58824" offset=".9"/>
<stop offset="1"/>
</linearGradient>
<style type="text/css">.ColorScheme-Text {
        color:#4d4d4d;
      }</style>
<radialGradient id="radialGradient7462-9" cx="13.948" cy="44.893" r="43.199" gradientTransform="matrix(.97513 0 0 .049191 34.048 80.582)" gradientUnits="userSpaceOnUse" xlink:href="#linearGradient3737"/>
<radialGradient id="radialGradient7464-6" cx="13.948" cy="44.893" r="43.199" gradientTransform="matrix(.88833 0 0 .049191 31.96 -90.317)" gradientUnits="userSpaceOnUse" xlink:href="#linearGradient3737"/>
<linearGradient id="linearGradient4767-1" x1="2.7714" x2="50.528" y1="-28.642" y2="14.514" gradientUnits="userSpaceOnUse" xlink:href="#linearGradient3737"/>
<clipPath id="clipPath4156-4-1-2">
<path d="m27.046-55.695-14.214 13.321h0.06127l15.653 21.771 10.231-10.546c-0.2169-1.1522-11.311-23.67-11.732-24.546zm-17.399 16.313-14.888 14.062 21.229 17.515 10.385-10.577zm31.491 12.951-9.7413 9.7136 8.9448 12.458 7.7808-7.555zm-49.84 4.3788-13.754 12.982 26.283 13.846 0.06127-0.0617-0.12253-0.0617 9.8332-10.053-22.301-16.652zm38.015 7.4008-9.8025 9.7753 11.579 9.5594 7.6276-7.4008-8.6691-11.009zm20.187 5.674-7.3825 7.2158 6.1878 8.5418 5.8202-6.1365zm-32.195 6.3215-9.5575 9.4977 13.662 7.185 7.9339-7.6784zm23.312 2.3744-7.1068 6.9383 8.3628 6.9074 5.3608-5.674-0.06127-0.0925-0.0919 0.12335-6.4635-8.2026zm-8.7304 8.5418-7.5051 7.3392 10.354 5.4581c1.3975-1.321 5.6751-6.1229 5.8509-6.3215z" fill="#fff" opacity=".6"/>
</clipPath>
</defs>
<metadata>
<rdf:RDF>
<cc:Work rdf:about="">
<dc:format>image/svg+xml</dc:format>
<dc:type rdf:resource="http://purl.org/dc/dcmitype/StillImage"/>
<dc:title/>
<dc:date>2017</dc:date>
<dc:creator>
<cc:Agent>
<dc:title>Cristian Pozzessere "ilnanny"</dc:title>
</cc:Agent>
</dc:creator>
<dc:subject>
<rdf:Bag>
<rdf:li>Global language</rdf:li>
</rdf:Bag>
</dc:subject>
<dc:description>Playing with Inkscape on Gnu/Linux O. S.</dc:description>
<dc:contributor>
<cc:Agent>
<dc:title>In the night, alone like a dog.</dc:title>
</cc:Agent>
</dc:contributor>
<cc:license rdf:resource="http://creativecommons.org/licenses/by-sa/4.0/"/>
</cc:Work>
<cc:License rdf:about="http://creativecommons.org/licenses/by-sa/4.0/">
<cc:permits rdf:resource="http://creativecommons.org/ns#Reproduction"/>
<cc:permits rdf:resource="http://creativecommons.org/ns#Distribution"/>
<cc:requires rdf:resource="http://creativecommons.org/ns#Notice"/>
<cc:requires rdf:resource="http://creativecommons.org/ns#Attribution"/>
<cc:permits rdf:resource="http://creativecommons.org/ns#DerivativeWorks"/>
<cc:requires rdf:resource="http://creativecommons.org/ns#ShareAlike"/>
</cc:License>
</rdf:RDF>
</metadata>
<g transform="translate(0 -1026.5)">
<g transform="translate(-.14896 1026.1)">
<g transform="matrix(1.2982 0 0 1.1809 -14.167 -10.628)">
<g transform="matrix(.77027 0 0 .84685 11.027 -859.95)">
<g transform="translate(-.14896 1026.1)">
<g transform="translate(.14896 -1026.1)">
<g transform="translate(-.14896 1026.1)">
<g transform="matrix(.99792 0 0 .99792 .10031 .10084)">
<path d="m89.292 0.41503h-82.286c-3.7988 0-6.8571 3.0583-6.8571 6.8571v82.286c0 3.7989 3.0583 6.8571 6.8571 6.8571h82.286c3.7989 0 6.8571-3.0583 6.8571-6.8571v-82.286c0-3.7989-3.0583-6.8571-6.8571-6.8571z" opacity=".15"/>
<path d="m88.649 1.165h-81c-3.7395 0-6.75 3.0105-6.75 6.75v81c0 3.7395 3.0105 6.75 6.75 6.75h81c3.7395 0 6.75-3.0105 6.75-6.75v-81c0-3.7395-3.0105-6.75-6.75-6.75z" opacity=".15"/>
<path d="m88.006 1.915h-79.714c-3.6801 0-6.6429 2.9627-6.6429 6.6429v79.714c0 3.6801 2.9627 6.6429 6.6429 6.6429h79.714c3.6801 0 6.6429-2.9627 6.6429-6.6429v-79.714c0-3.6801-2.9627-6.6429-6.6429-6.6429z" fill="url(#linearGradient4071)"/>
<path d="m11.39 6.8022c-2.8565 0-5.1241 2.2884-5.1241 5.171v21.427 7.2394 39.914c1.0972 1.6845 2.9688 2.8117 5.1241 2.8117h4.0993 65.589 4.0993c2.1553 0 4.0269-1.1272 5.1241-2.8117v-39.914-7.2394-21.427c0-2.8826-2.2676-5.171-5.1241-5.171z" fill="#f5f3f3" opacity=".77865"/>
<path d="m9.974 5.1445c-3.1166 0-5.668 2.5395-5.668 5.646v69.278c0 3.1065 2.5513 5.646 5.668 5.646h76.792c3.1166 0 5.668-2.5395 5.668-5.646v-69.278c0-3.1065-2.5513-5.646-5.668-5.646zm0 2.3194h76.792c1.8881 0 3.352 1.4801 3.352 3.3266v69.278c0 1.8465-1.4639 3.3266-3.352 3.3266h-76.792c-1.8881 0-3.352-1.4801-3.352-3.3266v-69.278c0-1.8465 1.4639-3.3266 3.352-3.3266z" color="#000000" fill="#1f2224" fill-opacity=".63265" style="text-decoration-line:none;text-indent:0;text-transform:none"/>
<path d="m1.649 82.259v6c0 3.6801 2.9761 6.6562 6.6562 6.6562h79.687c3.6801 0 6.6563-2.9761 6.6563-6.6562v-6c0 3.6801-2.9761 6.6562-6.6563 6.6562h-79.687c-3.6801 0-6.6562-2.9761-6.6562-6.6562z" fill="url(#linearGradient4129)" opacity=".65818"/>
<rect x="5.524" y="80.665" width="84.25" height="4.25" rx="0" ry="4.25" fill="url(#radialGradient7462-9)" opacity=".55"/>
<rect transform="rotate(90)" x="5.975" y="-90.234" width="76.75" height="4.25" rx="0" ry="4.25" fill="url(#radialGradient7464-6)" opacity=".669"/>
<path d="m13.567 9.9481v62.905h34.582v-2.621h-31.7v-34.073h14.409l8.6454-7.8631h40.345v44.138h2.8818v-54.622h-28.818l-8.6454-7.8631z" fill="#4d4d4d" stroke="#4d4d4d" stroke-linecap="square" stroke-linejoin="round" stroke-width="2.2812" style="paint-order:fill markers stroke"/>
<rect transform="matrix(1.0692 0 0 1.0477 4.4442 38.894)" x="2" y="-30" width="75.966" height="69.024" rx="3.957" ry="3.957" clip-path="url(#clipPath4156-4-1-2)" fill="url(#linearGradient4767-1)" opacity=".50781"/>
<g transform="translate(-3.2349 1.2874)">
<path d="m44.682 34.51h38.512v45.266h-38.512z" fill="#f2f2f2" stroke="#4f6576" stroke-width="2.2864"/>
<path d="m49.983 43.478c0.37615 0.18808 0.7523 0.37615 1.1285 0.56422 0.09403 0.09404 0.16316 0.22264 0.28211 0.28211 0.08411 0.04206 0.18808 0 0.28211 0h0.28211 1.4106 0.56423c0.09404 0 0.198 0.04206 0.28211 0 0.2379-0.11895 0.32633-0.44528 0.56422-0.56422 0.26598-0.13299 0.57023-0.17167 0.84634-0.28211 0.19524-0.07809 0.35395-0.28211 0.56422-0.28211 0.08756 0 0.69997 0.77315 0.84634 0.84634 0.08586 0.04293 0.71929 0 0.84634 0h1.1285c0.18808 0 0.3798 0.03689 0.56422 0 0.2916-0.05832 0.55784-0.20999 0.84634-0.28211 0.27369-0.06842 0.57265 0.06842 0.84634 0 0.204-0.051 0.36474-0.21562 0.56423-0.28211 0.08922-0.02974 0.198 0.04206 0.28211 0 0.2379-0.11895 0.32633-0.44528 0.56423-0.56423 0.23348-0.11674 0.47247 0.0986 0.56422 0.28211 0.04206 0.08411-0.04206 0.198 0 0.28211 0.05947 0.11895 0.16316 0.22264 0.28211 0.28211 0.08411 0.04206 0.198-0.04206 0.28211 0 0.11895 0.05947 0.16316 0.22264 0.28211 0.28211 0.0841 0.04206 0.18807 0 0.28211 0h0.28211 1.4106 1.1284c0.09404 0 0.20387 0.05216 0.28211 0 0.41512-0.27675 0.71333-0.8517 1.1285-1.1284 1.0248-0.68317 0.1995 0.08261 0.84634-0.56422 0.09404-0.09404 0.18807-0.37615 0.28211-0.28211 0.09404 0.09404-0.18807 0.18808-0.28211 0.28211-0.20185 0.20185-0.38589 0.2529-0.28211 0.56422 0.0665 0.19948 0.21562 0.36474 0.28211 0.56423 0.02974 0.08922-0.04206 0.198 0 0.28211 0.05947 0.11895 0.18807 0.18807 0.28211 0.28211 0.09404 0.09404 0.16316 0.22264 0.28211 0.28211 0.08411 0.04206 0.198-0.04206 0.28211 0 0.33854 0.16927 0.5078 0.67707 0.84634 0.84634 0.08412 0.04206 0.198-0.04206 0.28211 0 0.11895 0.05947 0.16316 0.22264 0.28211 0.28211 0.08411 0.04206 0.198-0.04206 0.28211 0 0.11895 0.05947 0.14912 0.28211 0.28211 0.28211 0.09404 0 0-0.18808 0-0.28211 0-0.93828-0.08411-0.2129 0.28211-1.1285 0.11044-0.2761 0.17167-0.57023 0.28211-0.84634 0.07809-0.19524 0.21562-0.36474 0.28211-0.56423 0.08345-0.25036-0.09236-1.2258 0-1.4106 0.11895-0.2379 0.41669-0.34292 0.56423-0.56423 0.11664-0.17496 0.16547-0.38927 0.28211-0.56422 0.14754-0.22131 0.41669-0.34292 0.56423-0.56423 0.11664-0.17496 0.07184-0.56422 0.28211-0.56422 0.18808 0 0 0.37615 0 0.56422v1.9748c0 0.19996-0.03647 1.6197 0 1.6927 0.64556 1.2911-0.11693-1.1971 0.56422 0.84634 0.02973 0.08922-0.04206 0.198 0 0.28211 0.05947 0.11895 0.20834 0.17146 0.28211 0.28211 0.11664 0.17496 0.16547 0.38927 0.28211 0.56422 0.07377 0.11065 0.22264 0.16316 0.28211 0.28211 0.4151 0.8302-0.65354-0.37142 0.28211 0.56422" fill="none" stroke="#32444e" stroke-width="1.0021px"/>
<path d="m50.829 56.173h2.2569c0.18808 0 0.39601 0.08411 0.56422 0 0.2379-0.11895 0.35144-0.40464 0.56423-0.56422 0.16822-0.12616 0.39601-0.15595 0.56422-0.28211 0.31597-0.23698 0.53037-0.60936 0.84634-0.84634 0.17985-0.13488 1.2333-0.77391 1.4106-1.1284 0.08412-0.16822-0.05947-0.3858 0-0.56423 0.0665-0.19948 0.21562-0.36474 0.28211-0.56422 0.1238-0.37139-0.21604-0.59726 0.28211-0.84634 0.08411-0.04206 0.198-0.04206 0.28211 0 0.46263 0.23131 0.28211 0.71923 0.28211 1.1285v2.8211c0 0.23885-0.05056 0.97678 0 1.1285 0.04206 0.12616 0.22264 0.16316 0.28211 0.28211 0.04206 0.0841-0.04206 0.198 0 0.28211 0.05947 0.11895 0.18808 0.18808 0.28211 0.28211 0.09403 0.09404 0.16316 0.34159 0.28211 0.28211 0.18808-0.09404 0.16547-0.38927 0.28211-0.56422 0.07377-0.11065 0.22264-0.16316 0.28211-0.28211 1.3609-2.7218-0.39181 0.14627 0.56422-1.1285 0.20344-0.27125 0.36079-0.57509 0.56423-0.84634 0.15959-0.21278 0.44528-0.32633 0.56422-0.56422 0.4151-0.8302-0.65354 0.37142 0.28211-0.56422 0.28211-0.28211 0.56422-0.56422 0.84634-0.84634 0.18808-0.18808 0.41669-0.34292 0.56422-0.56422 0.11664-0.17496 0.16547-0.38927 0.28211-0.56423 0.07377-0.11065 0.14912-0.28211 0.28211-0.28211 0.09404 0 0 0.18808 0 0.28211v0.84634 2.2569 0.56423c0 0.09404-0.02973 0.1929 0 0.28211 0.0665 0.19948 0.21562 0.36474 0.28211 0.56422 0.05947 0.17842-0.08411 0.39601 0 0.56423 0.03745 0.07491 0.77143 0.80889 0.84634 0.84634 0.08411 0.04206 0.198-0.04206 0.28211 0 0.11895 0.05947 0.16316 0.22264 0.28211 0.28211 0.08586 0.04293 0.71929 0 0.84634 0h0.28211c0.09404 0 0.198 0.04206 0.28211 0 0.11895-0.05947 0.18808-0.18808 0.28211-0.28211 0.09404-0.09404 0.22264-0.16316 0.28211-0.28211 0.04206-0.08412-0.04206-0.198 0-0.28211 0.05947-0.11895 0.22264-0.16316 0.28211-0.28211 0.04206-0.08411-0.05216-0.20387 0-0.28211 0.1391-0.20865 1.0124-0.89638 1.1285-1.1285 0.13299-0.26598 0.14912-0.58036 0.28211-0.84634 0.11895-0.2379 0.48012-0.3119 0.56423-0.56422 0.23395-0.70184-0.3136-0.51699 0.28211-1.4106 0.07377-0.11065 0.22264-0.16316 0.28211-0.28211 0.0843-0.1686-0.18571-0.56423 0.28211-0.56423 0.09404 0-0.04206 0.198 0 0.28211 0.64213 0.64213 0.07456-0.05843 0.28211 0.56423 0.68115 2.0435-0.08133-0.44478 0.56422 0.84634 0.3603 0.7206 0.38971 1.572 0.84634 2.2569 0.07377 0.11065 0.18808 0.18807 0.28211 0.28211 0.09404 0.09404 0.16316 0.22264 0.28211 0.28211 0.0841 0.04206 0.198-0.04206 0.28211 0 0.11895 0.05947 0.16316 0.22264 0.28211 0.28211 0.08411 0.04206 0.198-0.04206 0.28211 0 0.32296 0.16148 0.16726 0.41443 0.56422 0.28211 0.19948-0.0665 0.36474-0.21562 0.56423-0.28211 0.08922-0.02974 0.1929 0.02973 0.28211 0 0.19948-0.0665 0.36474-0.21562 0.56422-0.28211 0.17842-0.05947 0.37615 0 0.56423 0" fill="none" stroke="#32444e" stroke-width="1.0021px"/>
<path d="m52.522 68.868c0.47019-0.09403 0.95567-0.13048 1.4106-0.28211 0.12616-0.04206 0.18808-0.18808 0.28211-0.28211 0.18808-0.18808 0.37615-0.37615 0.56422-0.56423 0.18808-0.18807 0.40464-0.35144 0.56423-0.56422 0.20343-0.27125 0.36079-0.57509 0.56422-0.84634 0.0798-0.10639 0.20232-0.17572 0.28211-0.28211 0.20344-0.27125 0.36079-0.57509 0.56422-0.84634 0.0798-0.10639 0.20834-0.17146 0.28211-0.28211 0.11664-0.17496 0.21562-0.36474 0.28211-0.56422 0.0562-0.1686-0.14597-0.56422 0.28211-0.56422 0.13299 0 0.37615 0.18808 0.28211 0.28211-0.09404 0.09404-0.28211-0.4151-0.28211-0.28211 0 0.29737 0.20999 0.55784 0.28211 0.84634 0.02281 0.09123 0 0.18808 0 0.28211 0 0.28211 0.04638 0.56806 0 0.84634-0.04889 0.29333-0.23322 0.55301-0.28211 0.84634-0.04638 0.27827 0.05532 0.5697 0 0.84634-0.04124 0.20619-0.21562 0.36474-0.28211 0.56422-0.0053 0.01581-0.02715 1.3563 0 1.4106 0.03745 0.07491 0.77143 0.80889 0.84634 0.84634 0.08074 0.04037 1.2599 0 1.4106 0 0.28211 0 0.59401 0.12616 0.84634 0 0.35685-0.17842 0.56422-0.56422 0.84634-0.84634 1.5905-1.5905 0.17511-0.06445 1.9748-2.539 0.35416-0.48697 0.83603-0.8842 1.1285-1.4106 0.1883-0.33894 0.10872-0.78166 0.28211-1.1285 0.21027-0.42055 0.55261-0.7613 0.84634-1.1284 0.08307-0.10385 0.22264-0.16316 0.28211-0.28211 0.0841-0.16822-0.04562-0.38176 0-0.56423 0.07212-0.28849 0.14912-0.58036 0.28211-0.84634 0.04206-0.08411 0 0.18808 0 0.28211v0.56422 0.56423c0 0.18808-0.04561 0.38176 0 0.56422 0.051 0.204 0.21562 0.36474 0.28211 0.56423 0.02974 0.08922-0.02281 0.19088 0 0.28211 0.58704 2.3482-0.01948-0.34054 0.56422 1.4106 0.05947 0.17842-0.0841 0.39601 0 0.56423 0.05947 0.11895 0.24006 0.15595 0.28211 0.28211 0.05947 0.17842-0.04561 0.38177 0 0.56423 0.102 0.40799 0.43124 0.72948 0.56422 1.1284 0.02973 0.08922-0.04206 0.198 0 0.28211 0.21604 0.43208 0.50273 0.22062 0.84634 0.56422 0.14869 0.14869 0.16547 0.38927 0.28211 0.56423 0.07376 0.11065 0.20834 0.17146 0.28211 0.28211 0.11664 0.17496 0.13343 0.41554 0.28211 0.56423 0.0665 0.0665-0.04206-0.198 0-0.28211 0.05947-0.11895 0.20834-0.17146 0.28211-0.28211 0.09404-0.18807 0.18808-0.37615 0.28211-0.56422 0-0.09404-0.04206-0.198 0-0.28211 0.64213-0.64213 0.07457 0.05843 0.28211-0.56422 0.13299-0.39897 0.43124-0.72948 0.56422-1.1284 0.05947-0.17842-0.05947-0.3858 0-0.56423 0.0665-0.19948 0.21562-0.36474 0.28211-0.56422 0.02974-0.08922-0.04206-0.198 0-0.28211 0.93565-0.93565-0.13299 0.26598 0.28211-0.56422 0.05947-0.11895 0.22264-0.16316 0.28211-0.28211 0.08411-0.16822-0.05947-0.3858 0-0.56423 0.0665-0.19948 0.21562-0.36474 0.28211-0.56422 0.02973-0.08922-0.04206-0.198 0-0.28211 0.05947-0.11895 0.22264-0.16316 0.28211-0.28211 0.04206-0.08411 0-0.18808 0-0.28211 0-0.18808-0.05947-0.3858 0-0.56423 0.04206-0.12616 0.18808-0.18808 0.28211-0.28211 0.09404-0.09404 0.18808-0.18807 0.28211-0.28211 0.09404-0.09404 0.14912-0.28211 0.28211-0.28211 0.18808 0-0.0841 0.39601 0 0.56422 0.43016 0.86032 0.22365-0.51597 0.56423 0.84634 0.04561 0.18246-0.04561 0.38176 0 0.56422 0.051 0.204 0.23111 0.36023 0.28211 0.56422 0.04562 0.18246-0.05947 0.3858 0 0.56422 0.04206 0.12616 0.24006 0.15595 0.28211 0.28211 0.05947 0.17842-0.05947 0.3858 0 0.56422 0.04206 0.12616 0.24006 0.15595 0.28211 0.28211 0 1.2843-0.13299 0.01613 0.28211 0.84634 0.08322 0.16645-0.06468 0.65229 0 0.84634 0.17079 0.51238 0.24145 0.52356 0.56422 0.84634 0.09404 0.09404 0.22264 0.16316 0.28211 0.28211 0.0841 0.16822-0.08411 0.39601 0 0.56423 0.05947 0.11895 0.20834 0.17146 0.28211 0.28211 0.11664 0.17496 0.18807 0.37615 0.28211 0.56422" fill="none" stroke="#32444e" stroke-width="1.0021px"/>
</g>
</g>
</g>
</g>
</g>
</g>
</g>
</g>
</g>
</svg>
