<?xml version="1.0" encoding="UTF-8"?>
<!-- Created with Inkscape (http://www.inkscape.org/) -->
<svg version="1.1" viewBox="0 0 96 96" xmlns="http://www.w3.org/2000/svg" xmlns:cc="http://creativecommons.org/ns#" xmlns:dc="http://purl.org/dc/elements/1.1/" xmlns:rdf="http://www.w3.org/1999/02/22-rdf-syntax-ns#" xmlns:xlink="http://www.w3.org/1999/xlink">
<defs>
<linearGradient id="linearGradient3737">
<stop stop-color="#fff" offset="0"/>
<stop stop-color="#fff" stop-opacity="0" offset="1"/>
</linearGradient>
<linearGradient id="linearGradient4071" x1="6" x2="90" y1="47" y2="47" gradientTransform="matrix(1.1071 0 0 1.1071 -5.1429 -4.0357)" gradientUnits="userSpaceOnUse">
<stop stop-color="#b2babc" offset="0"/>
<stop stop-color="#fff" offset=".25"/>
<stop stop-color="#96a1a4" offset=".5"/>
<stop stop-color="#fbf9f9" offset=".75"/>
<stop stop-color="#b2b9bc" offset="1"/>
</linearGradient>
<linearGradient id="linearGradient4129" x1="1.5" x2="94.5" y1="88.172" y2="88.172" gradientTransform="translate(-3.175e-6)" gradientUnits="userSpaceOnUse">
<stop offset="0"/>
<stop stop-opacity=".58824" offset=".1"/>
<stop stop-opacity=".58824" offset=".9"/>
<stop offset="1"/>
</linearGradient>
<radialGradient id="radialGradient7462" cx="13.948" cy="44.893" r="43.199" gradientTransform="matrix(.97513 0 0 .049191 33.899 80.167)" gradientUnits="userSpaceOnUse" xlink:href="#linearGradient3737"/>
<radialGradient id="radialGradient7464" cx="13.948" cy="44.893" r="43.199" gradientTransform="matrix(.88833 0 0 .049191 31.544 -90.168)" gradientUnits="userSpaceOnUse" xlink:href="#linearGradient3737"/>
<linearGradient id="linearGradient4767" x1="2.7714" x2="50.528" y1="-28.642" y2="14.514" gradientUnits="userSpaceOnUse" xlink:href="#linearGradient3737"/>
<clipPath id="clipPath4156-4-1-6">
<path d="m27.046-55.695-14.214 13.321h0.06127l15.653 21.771 10.231-10.546c-0.2169-1.1522-11.311-23.67-11.732-24.546zm-17.399 16.313-14.888 14.062 21.229 17.515 10.385-10.577zm31.491 12.951-9.7413 9.7136 8.9448 12.458 7.7808-7.555zm-49.84 4.3788-13.754 12.982 26.283 13.846 0.06127-0.0617-0.12253-0.0617 9.8332-10.053-22.301-16.652zm38.015 7.4008-9.8025 9.7753 11.579 9.5594 7.6276-7.4008-8.6691-11.009zm20.187 5.674-7.3825 7.2158 6.1878 8.5418 5.8202-6.1365zm-32.195 6.3215-9.5575 9.4977 13.662 7.185 7.9339-7.6784zm23.312 2.3744-7.1068 6.9383 8.3628 6.9074 5.3608-5.674-0.06127-0.0925-0.0919 0.12335-6.4635-8.2026zm-8.7304 8.5418-7.5051 7.3392 10.354 5.4581c1.3975-1.321 5.6751-6.1229 5.8509-6.3215z" fill="#fff" opacity=".6"/>
</clipPath>
<linearGradient id="linearGradient3715-6" x1="32.039" x2="32.039" y1="65.216" y2="4.4314" gradientTransform="matrix(.82258 0 0 .82258 7.1452 36.355)" gradientUnits="userSpaceOnUse">
<stop stop-color="#ebebeb" offset="0"/>
<stop stop-color="#ebebeb" offset=".5"/>
<stop stop-color="#d6d6d6" offset=".50287"/>
<stop stop-color="#d6d6d6" offset="1"/>
</linearGradient>
</defs>
<metadata>
<rdf:RDF>
<cc:Work rdf:about="">
<dc:format>image/svg+xml</dc:format>
<dc:type rdf:resource="http://purl.org/dc/dcmitype/StillImage"/>
<dc:title/>
<dc:date>2018</dc:date>
<dc:creator>
<cc:Agent>
<dc:title>Cristian Pozzessere  == ilnanny ==</dc:title>
</cc:Agent>
</dc:creator>
<dc:subject>
<rdf:Bag>
<rdf:li>Global language</rdf:li>
</rdf:Bag>
</dc:subject>
<dc:description>Playing with Inkscape on Gnu/Linux O. S.</dc:description>
<dc:contributor>
<cc:Agent>
<dc:title>In the night, alone like a dog.</dc:title>
</cc:Agent>
</dc:contributor>
</cc:Work>
</rdf:RDF>
</metadata>
<path d="m89.143 0h-82.286c-3.7988 0-6.8571 3.0583-6.8571 6.8571v82.286c0 3.7989 3.0583 6.8571 6.8571 6.8571h82.286c3.7989 0 6.8571-3.0583 6.8571-6.8571v-82.286c0-3.7989-3.0583-6.8571-6.8571-6.8571z" opacity=".15"/>
<path d="m88.5 0.75h-81c-3.7395 0-6.75 3.0105-6.75 6.75v81c0 3.7395 3.0105 6.75 6.75 6.75h81c3.7395 0 6.75-3.0105 6.75-6.75v-81c0-3.7395-3.0105-6.75-6.75-6.75z" opacity=".15"/>
<path d="m87.857 1.5h-79.714c-3.6801 0-6.6429 2.9627-6.6429 6.6429v79.714c0 3.6801 2.9627 6.6429 6.6429 6.6429h79.714c3.6801 0 6.6429-2.9627 6.6429-6.6429v-79.714c0-3.6801-2.9627-6.6429-6.6429-6.6429z" fill="url(#linearGradient4071)"/>
<path d="m11.241 6.3871c-2.8565 0-5.1241 2.2884-5.1241 5.171v68.58c1.0972 1.6845 2.9688 2.8117 5.1241 2.8117h73.787c2.1553 0 4.0269-1.1272 5.1241-2.8117v-68.58c0-2.8826-2.2676-5.171-5.1241-5.171z" fill="#9e6e31" opacity=".95"/>
<g transform="matrix(1.2981 0 0 1.2031 6.1172 -12.135)" fill="#fc0" fill-opacity=".036219" stroke-width=".80019">
<path transform="translate(0,14.5)" d="m2 0-2 1v3 18.5h2zm2 0v3.5h2v-3.5zm4 0v17.5h2v-17.5zm4 0v32.5h2v-32.5zm8 0v27.5h2v-27.5zm16 0v0.5h2v-0.5zm12 0v19.5h2v-19.5zm4 0v33.5h2v-33.5zm4 0v14.5h2v-14.5zm4 0v30.5h2v-30.5zm-20 0.5v37h2v-37zm-36 5v37h2v-37zm28 0v37h2v-37zm-8 1v37h2v-37zm-8 3v37h2v-37zm12 2v37h2v-37zm16 5v37h2v-37zm-36 3v37h2v-37zm28 0v37h2v-37zm12 2v37h2v-37zm-48 3v9.5 27.5h2v-37zm60 8v31.5h2v-31.5zm-8 5v26.5h2v-26.5zm4 14v12.5h2v-12.5z" color="#000000"/>
<path transform="translate(0,14.5)" d="m2 0-2 1v3 26h2zm2 0v14h2v-14zm4 0v33h2v-33zm4 0v19h2v-19zm8 0v37h2v-37zm20 0v27h2v-27zm8 0v32h2v-32zm4 0v17h2v-17zm4 0v3h2v-3zm4 0v22h2v-22zm-32 5v37h2v-37zm28 0v37h2v-37zm-20 1v37h2v-37zm8 3v37h2v-37zm-12 2v37h2v-37zm-16 5v37h2v-37zm8 3v37h2v-37zm28 0v37h2v-37zm-40 2v37h2v-37zm48 3v37h2v-37zm-60 8v2 28l2 2v-32zm8 5v27h2v-27zm-4 14v13h2v-13z" color="#000000"/>
<path transform="translate(0,14.5)" d="m2 0-2 1v3 24.5h2zm2 0v12.5h2v-12.5zm4 0v31.5h2v-31.5zm4 0v17.5h2v-17.5zm8 0v35.5h2v-35.5zm20 0v25.5h2v-25.5zm8 0v30.5h2v-30.5zm4 0v15.5h2v-15.5zm4 0v1.5h2v-1.5zm4 0v20.5h2v-20.5zm-32 3.5v37h2v-37zm28 0v37h2v-37zm-20 1v37h2v-37zm8 3v37h2v-37zm-12 2v37h2v-37zm-16 5v37h2v-37zm8 3v37h2v-37zm28 0v37h2v-37zm-40 2v37h2v-37zm48 3v37h2v-37zm-60 8v3.5 28l2 2v-33.5zm8 5v28.5h2v-28.5zm-4 14v14.5h2v-14.5z" color="#000000"/>
<path transform="translate(0,14.5)" d="m2 0-2 1v19h2zm2 0v1h2v-1zm4 0v15h2v-15zm4 0v30h2v-30zm8 0v25h2v-25zm20 0v35h2v-35zm8 0v17h2v-17zm4 0v31h2v-31zm4 0v12h2v-12zm4 0v28h2v-28zm-56 3v37h2v-37zm28 0v37h2v-37zm-8 1v37h2v-37zm-8 3v37h2v-37zm12 2v37h2v-37zm16 5v37h2v-37zm-36 3v37h2v-37zm28 0v37h2v-37zm12 2v37h2v-37zm-48 3v12 25h2v-37zm60 8v34h2v-34zm-8 5v29h2v-29zm4 14v15h2v-15z" color="#000000"/>
<path transform="translate(0,14.5)" d="m2 0-2 1v3 29.5h2zm2 0v14.5h2v-14.5zm4 0v28.5h2v-28.5zm16 0v9.5h2v-9.5zm8 0v6.5h2v-6.5zm4 0v11.5h2v-11.5zm12 0v30.5h2v-30.5zm8 0v25.5h2v-25.5zm-36 1.5v37h2v-37zm40 3v37h2v-37zm-48 2v37h2v-37zm40 1v37h2v-37zm-12 4v37h2v-37zm-36 5v37h2v-37zm28 0v37h2v-37zm-8 1v37h2v-37zm-8 3v37h2v-37zm12 2v37h2v-37zm16 5v36.5h2v-36.5zm-36 3v33.5h2v-33.5zm28 0v33.5h2v-33.5zm12 2v31.5h2v-31.5zm-48 3v26.5l2 2v-28.5zm60 8v20.5h2v-20.5zm-8 5v15.5h2v-15.5zm4 14v1.5h2v-1.5z" color="#000000"/>
<path transform="translate(0,14.5)" d="m4 0v25h2v-25zm8 0v30h2v-30zm12 0v11h2v-11zm4 0v6h2v-6zm8 0v9h2v-9zm16 0v28h2v-28zm4 0v14h2v-14zm4 0v33h2v-33zm-20 1v37h2v-37zm-40 3v30 7h2v-37zm48 2v37h2v-37zm-40 1v37h2v-37zm12 4v37h2v-37zm8 5v37h2v-37zm28 0v37h2v-37zm-20 1v37h2v-37zm8 3v37h2v-37zm-12 2v37h2v-37zm-16 5v37h2v-37zm8 3v34h2v-34zm28 0v34h2v-34zm-40 2v32h2v-32zm48 3v29h2v-29zm-60 8v19l2 2v-21zm8 5v16h2v-16zm-4 14v2h2v-2z" color="#000000"/>
</g>
<g transform="matrix(1.2981 0 0 1.2031 8.7133 -12.135)" fill="#fc0" fill-opacity=".015018" stroke-width=".80019">
<path transform="translate(0,14.5)" d="m2 0-2 1v3 18.5h2zm2 0v3.5h2v-3.5zm4 0v17.5h2v-17.5zm4 0v32.5h2v-32.5zm8 0v27.5h2v-27.5zm16 0v0.5h2v-0.5zm12 0v19.5h2v-19.5zm4 0v33.5h2v-33.5zm4 0v14.5h2v-14.5zm4 0v30.5h2v-30.5zm-20 0.5v37h2v-37zm-36 5v37h2v-37zm28 0v37h2v-37zm-8 1v37h2v-37zm-8 3v37h2v-37zm12 2v37h2v-37zm16 5v37h2v-37zm-36 3v37h2v-37zm28 0v37h2v-37zm12 2v37h2v-37zm-48 3v9.5 27.5h2v-37zm60 8v31.5h2v-31.5zm-8 5v26.5h2v-26.5zm4 14v12.5h2v-12.5z" color="#000000"/>
<path transform="translate(0,14.5)" d="m2 0-2 1v3 26h2zm2 0v14h2v-14zm4 0v33h2v-33zm4 0v19h2v-19zm8 0v37h2v-37zm20 0v27h2v-27zm8 0v32h2v-32zm4 0v17h2v-17zm4 0v3h2v-3zm4 0v22h2v-22zm-32 5v37h2v-37zm28 0v37h2v-37zm-20 1v37h2v-37zm8 3v37h2v-37zm-12 2v37h2v-37zm-16 5v37h2v-37zm8 3v37h2v-37zm28 0v37h2v-37zm-40 2v37h2v-37zm48 3v37h2v-37zm-60 8v2 28l2 2v-32zm8 5v27h2v-27zm-4 14v13h2v-13z" color="#000000"/>
<path transform="translate(0,14.5)" d="m2 0-2 1v3 24.5h2zm2 0v12.5h2v-12.5zm4 0v31.5h2v-31.5zm4 0v17.5h2v-17.5zm8 0v35.5h2v-35.5zm20 0v25.5h2v-25.5zm8 0v30.5h2v-30.5zm4 0v15.5h2v-15.5zm4 0v1.5h2v-1.5zm4 0v20.5h2v-20.5zm-32 3.5v37h2v-37zm28 0v37h2v-37zm-20 1v37h2v-37zm8 3v37h2v-37zm-12 2v37h2v-37zm-16 5v37h2v-37zm8 3v37h2v-37zm28 0v37h2v-37zm-40 2v37h2v-37zm48 3v37h2v-37zm-60 8v3.5 28l2 2v-33.5zm8 5v28.5h2v-28.5zm-4 14v14.5h2v-14.5z" color="#000000"/>
<path transform="translate(0,14.5)" d="m2 0-2 1v19h2zm2 0v1h2v-1zm4 0v15h2v-15zm4 0v30h2v-30zm8 0v25h2v-25zm20 0v35h2v-35zm8 0v17h2v-17zm4 0v31h2v-31zm4 0v12h2v-12zm4 0v28h2v-28zm-56 3v37h2v-37zm28 0v37h2v-37zm-8 1v37h2v-37zm-8 3v37h2v-37zm12 2v37h2v-37zm16 5v37h2v-37zm-36 3v37h2v-37zm28 0v37h2v-37zm12 2v37h2v-37zm-48 3v12 25h2v-37zm60 8v34h2v-34zm-8 5v29h2v-29zm4 14v15h2v-15z" color="#000000"/>
<path transform="translate(0,14.5)" d="m2 0-2 1v3 29.5h2zm2 0v14.5h2v-14.5zm4 0v28.5h2v-28.5zm16 0v9.5h2v-9.5zm8 0v6.5h2v-6.5zm4 0v11.5h2v-11.5zm12 0v30.5h2v-30.5zm8 0v25.5h2v-25.5zm-36 1.5v37h2v-37zm40 3v37h2v-37zm-48 2v37h2v-37zm40 1v37h2v-37zm-12 4v37h2v-37zm-36 5v37h2v-37zm28 0v37h2v-37zm-8 1v37h2v-37zm-8 3v37h2v-37zm12 2v37h2v-37zm16 5v36.5h2v-36.5zm-36 3v33.5h2v-33.5zm28 0v33.5h2v-33.5zm12 2v31.5h2v-31.5zm-48 3v26.5l2 2v-28.5zm60 8v20.5h2v-20.5zm-8 5v15.5h2v-15.5zm4 14v1.5h2v-1.5z" color="#000000"/>
<path transform="translate(0,14.5)" d="m4 0v25h2v-25zm8 0v30h2v-30zm12 0v11h2v-11zm4 0v6h2v-6zm8 0v9h2v-9zm16 0v28h2v-28zm4 0v14h2v-14zm4 0v33h2v-33zm-20 1v37h2v-37zm-40 3v30 7h2v-37zm48 2v37h2v-37zm-40 1v37h2v-37zm12 4v37h2v-37zm8 5v37h2v-37zm28 0v37h2v-37zm-20 1v37h2v-37zm8 3v37h2v-37zm-12 2v37h2v-37zm-16 5v37h2v-37zm8 3v34h2v-34zm28 0v34h2v-34zm-40 2v32h2v-32zm48 3v29h2v-29zm-60 8v19l2 2v-21zm8 5v16h2v-16zm-4 14v2h2v-2z" color="#000000"/>
</g>
<path d="m9.8251 4.7295c-3.1166 0-5.668 2.5395-5.668 5.646v69.278c0 3.1065 2.5513 5.646 5.668 5.646h76.792c3.1166 0 5.668-2.5395 5.668-5.646v-69.278c0-3.1065-2.5513-5.646-5.668-5.646zm0 2.3194h76.792c1.8881 0 3.352 1.4801 3.352 3.3266v69.278c0 1.8465-1.4639 3.3266-3.352 3.3266h-76.792c-1.8881 0-3.352-1.4801-3.352-3.3266v-69.278c0-1.8465 1.4639-3.3266 3.352-3.3266z" color="#000000" fill="#1f2224" fill-opacity=".75652" style="text-decoration-line:none;text-indent:0;text-transform:none"/>
<path d="m1.5 81.844v6c0 3.6801 2.9761 6.6562 6.6562 6.6562h79.688c3.6801 0 6.6563-2.9761 6.6563-6.6562v-6c0 3.6801-2.9761 6.6562-6.6563 6.6562h-79.688c-3.6801 0-6.6562-2.9761-6.6562-6.6562z" fill="url(#linearGradient4129)" opacity=".65818"/>
<rect x="5.375" y="80.25" width="84.25" height="4.25" rx="4.25" ry="4.25" fill="url(#radialGradient7462)" opacity=".55"/>
<rect transform="rotate(90)" x="5.56" y="-90.085" width="76.75" height="4.25" rx="4.25" ry="4.25" fill="url(#radialGradient7464)" opacity=".669"/>
<g transform="matrix(1.311 0 0 1.311 4.7009 -40.621)" stroke-width=".76277">
<path d="m11 40v2h-1l-1 48 1 1h46v-50l-1-1z" color="#000000" fill="#421300" fill-opacity=".16369" stroke-width=".76277"/>
<path d="m9 40h46v50h-46z" color="#000000" fill="url(#linearGradient3715-6)" stroke-width=".76277"/>
<path d="m13 44v1 1h1 1v-1-1h-1zm4 2h2v-2h-2zm4 0h2v-2h-2zm4 0h2v-2h-2zm4 0h2v-2h-2zm4 0h2v-2h-2zm4 0h2v-2h-2zm4 0h2v-2h-2zm4 0h2v-2h-2zm4-1v1h1 1v-1-1h-1-1zm-36 5h2v-2h-2zm36 0h2v-2h-2zm-36 4h2v-2h-2zm36 0h2v-2h-2zm-36 4h2v-2h-2zm36 0h2v-2h-2zm-36 4h2v-2h-2zm36 0h2v-2h-2zm-36 4h2v-2h-2zm36 0h2v-2h-2zm-36 4h2v-2h-2zm36 0h2v-2h-2zm-36 4h2v-2h-2zm36 0h2v-2h-2zm-36 4h2v-2h-2zm36 0h2v-2h-2zm-36 4h2v-2h-2zm36 0h2v-2h-2zm-36 3v1h1 1v-1-1h-1-1zm4 1h2v-2h-2zm4 0h2v-2h-2zm4 0h2v-2h-2zm4 0h2v-2h-2zm4 0h2v-2h-2zm4 0h2v-2h-2zm4 0h2v-2h-2zm4 0h2v-2h-2zm4-1v1h1 1v-1-1h-1-1z" color="#000000" fill="#1e2428" fill-opacity=".88261" style="text-decoration-line:none;text-indent:0;text-transform:none"/>
</g>
<rect transform="matrix(1.0692 0 0 1.0477 4.2952 38.479)" x="2" y="-30" width="75.966" height="69.024" rx="3.957" ry="3.957" clip-path="url(#clipPath4156-4-1-6)" fill="url(#linearGradient4767)" opacity=".65"/>
</svg>
