<?xml version="1.0" encoding="UTF-8"?>
<!-- Created with Inkscape (http://www.inkscape.org/) -->
<svg version="1.1" viewBox="0 0 96 96" xmlns="http://www.w3.org/2000/svg" xmlns:cc="http://creativecommons.org/ns#" xmlns:dc="http://purl.org/dc/elements/1.1/" xmlns:rdf="http://www.w3.org/1999/02/22-rdf-syntax-ns#" xmlns:xlink="http://www.w3.org/1999/xlink">
<script xlink:href=""/>
<defs>
<clipPath id="clipPath4156-4">
<path d="m27.046-55.695-14.214 13.321h0.06127l15.653 21.771 10.231-10.546c-0.2169-1.1522-11.311-23.67-11.732-24.546zm-17.399 16.313-14.888 14.062 21.229 17.515 10.385-10.577-16.726-21zm31.491 12.951-9.7413 9.7136 8.9448 12.458 7.7808-7.555-6.9843-14.617zm-49.84 4.3788-13.754 12.982 26.283 13.846 0.06127-0.0617-0.12253-0.0617 9.8332-10.053-22.301-16.652zm38.015 7.4008-9.8025 9.7753 11.579 9.5594 7.6276-7.4008-8.6691-11.009-0.73519-0.9251zm20.187 5.674-7.3825 7.2158 6.1878 8.5418 5.8202-6.1365-4.6256-9.6211zm-32.195 6.3215-9.5575 9.4977 13.662 7.185 7.9339-7.6784-12.039-9.0043zm23.312 2.3744-7.1068 6.9383 8.3628 6.9074 5.3608-5.674-0.06127-0.0925-0.0919 0.12335-6.4635-8.2026zm-8.7304 8.5418-7.5051 7.3392 10.354 5.4581c1.3975-1.321 5.6751-6.1229 5.8509-6.3215l-8.6997-6.4757z" fill="#fff" opacity=".6"/>
</clipPath>
<linearGradient id="linearGradient4133">
<stop stop-color="#fff" offset="0"/>
<stop stop-color="#fff" stop-opacity="0" offset="1"/>
</linearGradient>
<clipPath id="clipPath4194-1-2-5">
<rect x="6" y="6" width="84" height="84" rx="6" ry="6" fill="#f0f"/>
</clipPath>
<linearGradient id="linearGradient16445" x1="6" x2="90" y1="47" y2="47" gradientTransform="matrix(1.1071 0 0 1.1071 -21.143 -20.036)" gradientUnits="userSpaceOnUse">
<stop stop-color="#adb9c1" offset="0"/>
<stop stop-color="#fff" offset=".25"/>
<stop stop-color="#90a2aa" offset=".5"/>
<stop stop-color="#f9fafb" offset=".75"/>
<stop stop-color="#adb9c1" offset="1"/>
</linearGradient>
<radialGradient id="radialGradient16447" cx="158" cy="6.2132" r="41" gradientTransform="matrix(0 1.6209 -2.0383 0 160.66 -243.04)" gradientUnits="userSpaceOnUse">
<stop stop-color="#fff" offset="0"/>
<stop stop-color="#fff" stop-opacity="0" offset="1"/>
</radialGradient>
<radialGradient id="radialGradient16449" cx="48" cy="-27" r="42" gradientTransform="matrix(-1.0722 0 0 -.87502 199.46 -19.126)" gradientUnits="userSpaceOnUse">
<stop stop-color="#fff" offset="0"/>
<stop stop-color="#fff" offset=".8"/>
<stop stop-color="#fff" stop-opacity="0" offset="1"/>
</radialGradient>
<linearGradient id="linearGradient16453" x1="1.5" x2="94.5" y1="88.172" y2="88.172" gradientTransform="translate(-16 -16)" gradientUnits="userSpaceOnUse">
<stop offset="0"/>
<stop stop-opacity=".58824" offset=".1"/>
<stop stop-opacity=".58824" offset=".9"/>
<stop offset="1"/>
</linearGradient>
<radialGradient id="radialGradient16455" cx="13.948" cy="44.893" r="43.199" gradientTransform="matrix(.97513 0 0 .049191 17.899 64.167)" gradientUnits="userSpaceOnUse" xlink:href="#linearGradient4133"/>
<radialGradient id="radialGradient16457" cx="13.948" cy="44.893" r="43.199" gradientTransform="matrix(.88833 0 0 .049191 14.734 -74.708)" gradientUnits="userSpaceOnUse" xlink:href="#linearGradient4133"/>
<linearGradient id="linearGradient16459" x1="2.7714" x2="50.528" y1="-28.642" y2="14.514" gradientUnits="userSpaceOnUse">
<stop stop-color="#fff" offset="0"/>
<stop stop-color="#fff" stop-opacity="0" offset="1"/>
</linearGradient>
<linearGradient id="linearGradient16614" x1="25.22" x2="94.568" y1="61.922" y2="61.922" gradientUnits="userSpaceOnUse">
<stop stop-color="#4d4d4d" offset="0"/>
<stop stop-color="#fff" offset="1"/>
</linearGradient>
<radialGradient id="radialGradient16616" cx="59.894" cy="61.922" r="33.714" gradientTransform="matrix(1 0 0 .83754 0 10.06)" gradientUnits="userSpaceOnUse">
<stop stop-opacity="0" offset="0"/>
<stop stop-opacity="0" offset=".85"/>
<stop offset="1"/>
</radialGradient>
<linearGradient id="linearGradient16618" x1="26.18" x2="93.608" y1="61.922" y2="61.922" gradientUnits="userSpaceOnUse">
<stop stop-color="#fff" stop-opacity=".20312" offset="0"/>
<stop stop-color="#fff" stop-opacity=".67969" offset="1"/>
</linearGradient>
<clipPath id="clipPath4031">
<path d="m48 32c-19.882 0-36 16.118-36 36s16.118 36 36 36 36-16.118 36-36-16.118-36-36-36zm0 24c6.6274 0 12 5.3726 12 12s-5.3726 12-12 12-12-5.3726-12-12 5.3726-12 12-12z" fill="#bbb1bf"/>
</clipPath>
<filter id="filter4035" x="-.19037" y="-.1707" width="1.3807" height="1.3414" color-interpolation-filters="sRGB">
<feGaussianBlur stdDeviation="4.9476562"/>
</filter>
<clipPath id="clipPath4187">
<path d="m48 102c-19.882 0-36 16.118-36 36s16.118 36 36 36 36-16.118 36-36-16.118-36-36-36zm0 24c6.6274 0 12 5.3726 12 12s-5.3726 12-12 12-12-5.3726-12-12 5.3726-12 12-12z" fill="#bbb1bf"/>
</clipPath>
<filter id="filter4195" x="-.18" y="-.18" width="1.36" height="1.36" color-interpolation-filters="sRGB">
<feGaussianBlur stdDeviation="5.2159999"/>
</filter>
<filter id="filter3832" color-interpolation-filters="sRGB">
<feGaussianBlur stdDeviation="0.7690217"/>
</filter>
<linearGradient id="linearGradient16630" x1="70.782" x2="75.404" y1="83.017" y2="22.03" gradientTransform="matrix(1.1947 0 0 1.1947 -17.36 92.472)" gradientUnits="userSpaceOnUse">
<stop stop-color="#333" offset="0"/>
<stop stop-color="#515151" offset="1"/>
</linearGradient>
<radialGradient id="radialGradient16632" cx="40.847" cy="75.264" r="14.672" gradientTransform="matrix(.9848 .025979 -.018238 .69136 1.9937 24.82)" gradientUnits="userSpaceOnUse">
<stop stop-color="#fff" offset="0"/>
<stop stop-opacity="0" offset="1"/>
</radialGradient>
</defs>
<metadata>
<rdf:RDF>
<cc:Work rdf:about="">
<dc:format>image/svg+xml</dc:format>
<dc:type rdf:resource="http://purl.org/dc/dcmitype/StillImage"/>
<dc:title/>
</cc:Work>
</rdf:RDF>
</metadata>
<g transform="translate(0,32)">
<g transform="translate(16,-16)">
<rect x="-16" y="-16" width="96" height="2.5" fill="#fff" opacity=".31222"/>
<path d="m73.143-16h-82.286c-3.7988 0-6.8571 3.0583-6.8571 6.8571v82.286c0 3.7989 3.0583 6.8571 6.8571 6.8571h82.286c3.7989 0 6.8571-3.0583 6.8571-6.8571v-82.286c0-3.7989-3.0583-6.8571-6.8571-6.8571z" opacity=".15"/>
<path d="m72.5-15.25h-81c-3.7395 0-6.75 3.0105-6.75 6.75v81c0 3.7395 3.0105 6.75 6.75 6.75h81c3.7395 0 6.75-3.0105 6.75-6.75v-81c0-3.7395-3.0105-6.75-6.75-6.75z" opacity=".15"/>
<path d="m71.857-14.5h-79.714c-3.6801 0-6.6429 2.9627-6.6429 6.6429v79.714c0 3.6801 2.9627 6.6429 6.6429 6.6429h79.714c3.6801 0 6.6429-2.9627 6.6429-6.6429v-79.714c0-3.6801-2.9627-6.6429-6.6429-6.6429z" fill="url(#linearGradient16445)"/>
<g transform="matrix(1.1071 0 0 1.1071 -131.86 -19.482)">
<path d="m112 5.5c-2.7873 0-5 2.2127-5 5v20.719 7 38.594c1.0707 1.6288 2.8969 2.7188 5 2.7188h4 64 4c2.1031 0 3.9293-1.09 5-2.7188v-38.594-7-20.719c0-2.7873-2.2127-5-5-5z" fill="url(#radialGradient16447)" opacity=".2"/>
<path d="m112 4.5c-3.324 0-6 2.676-6 6v15h1v-15c0-2.7873 2.2127-5 5-5h72c2.7873 0 5 2.2127 5 5v15h1v-15c0-3.324-2.676-6-6-6h-72z" fill="url(#radialGradient16449)" opacity=".45"/>
</g>
<g transform="matrix(-1.0489 0 0 .94457 82.347 -16.339)" clip-path="url(#clipPath4194-1-2-5)" fill="none" stroke="#fffdfd">
<g transform="matrix(.14137 .99272 -1.1652 .12045 96.937 -5.1947)" opacity=".9" stroke-width="2">
<path transform="matrix(.99411 -.10837 .10837 .99411 -5.1582 5.4919)" d="m108.9 48a60.896 60.896 0 0 1-6.5462 27.467l-54.35-27.467z" color="#000000" opacity=".05"/>
<path transform="matrix(.99786 -.065374 .065374 .99786 -3.094 3.2416)" d="m108.9 48a60.896 60.896 0 0 1-4.4572 22.869l-56.439-22.869z" color="#000000" opacity=".07"/>
<path transform="matrix(.99945 -.033121 .033121 .99945 -1.5635 1.6161)" d="m108.9 48a60.896 60.896 0 0 1-3.1299 19.272l-57.766-19.272z" color="#000000" opacity=".1"/>
<path d="m108.9 48a60.896 60.896 0 0 1-2.075 15.761l-58.821-15.761z" color="#000000" opacity=".1"/>
</g>
<g transform="matrix(1.8327 0 0 1.8327 14.258 -39.234)" stroke-width=".47875">
<path d="m19.196 49.867c-3.7383 2.563-5.6052-4.8991-1.155-4.812 4.3871-0.23608 3.9791 6.8014-0.14484 6.6146-3.1737 0.24264-5.0987-3.8987-3.1036-6.2853 2.0277-2.9808 7.1712-1.6842 7.7389 1.8175 0.96896 3.6362-3.1572 7.0386-6.5673 5.5229-3.9462-1.2697-4.4898-7.147-1.1071-9.3662 3.5697-2.7958 9.3917 0.23728 9.2058 4.7583 0.25677 4.3508-4.6893 7.6722-8.6482 5.9348-4.7194-1.5512-5.692-8.4202-1.9094-11.473 3.6589-3.435 10.363-1.4582 11.675 3.3588 1.5931 4.5594-2.0643 9.9214-6.9194 10.009-4.9341 0.46502-9.3835-4.3388-8.5226-9.2263 0.48048-5.0458 6.044-8.5972 10.839-7.0428 5.1784 1.2462 7.9642 7.5811 5.6619 12.315-2.0703 5.1795-9.0655 7.066-13.621 4.0018-5.1934-3.0203-5.926-10.894-1.7483-15.071 4.2959-4.8288 12.904-3.7852 16.129 1.7404 3.5882 5.4367 0.74553 13.65-5.4452 15.695-6.0859 2.3964-13.647-1.7424-14.738-8.2363-1.4747-6.4104 3.513-13.363 10.125-13.809 6.5474-0.84769 13.055 4.594 13.184 11.238 0.52354 6.584-5.0158 12.887-11.659 13.025-6.7954 0.53795-13.3-5.1805-13.44-12.038-0.5524-7.0079 5.3458-13.715 12.417-13.857 7.2229-0.57054 14.129 5.5183 14.275 12.799 0.54402 7.0708-5.0782 13.91-12.15 14.606-7.0606 1.0192-14.41-3.9622-15.813-11.012-1.7657-7.2328 2.7908-15.364 10.015-17.38 7.3952-2.3954 16.204 1.8723 18.685 9.2931 2.8286 7.4575-1.1147 16.692-8.5779 19.625-7.6239 3.3457-17.458-0.45113-20.71-8.1542-3.6267-7.7301 0.02753-17.902 7.8317-21.439 7.8269-3.9174 18.336-0.41907 22.166 7.4766 4.2173 7.9142 0.88881 18.76-7.0878 22.891-7.991 4.5265-19.171 1.3818-23.61-6.6655-4.8444-8.0574-1.8982-19.571 6.2087-24.326 7.972-5.0732 19.561-2.5467 24.767 5.3185 5.6225 7.8764 3.5991 19.843-4.1517 25.573-7.6181 6.0527-19.659 4.7318-25.992-2.5748-6.5368-7.0449-6.3481-18.848 0.0059-25.943 5.9692-7.1413 17.094-8.6939 25.012-3.9877 7.8697 4.2873 11.778 14.219 9.3246 22.775-2.1034 8.6536-10.4 15.24-19.316 15.262-9.3512 0.37506-18.515-6.176-20.825-15.313-2.8406-9.826 2.376-21.277 11.857-25.283 9.7995-4.5304 22.58-0.43912 27.807 9.0408 5.6264 9.4566 2.7082 22.79-6.297 29.089-8.8465 6.6167-22.359 5.1232-29.763-2.9918-7.4442-7.667-7.9887-20.556-1.7344-29.099 5.6922-8.3323 17.147-11.703 26.557-8.2884 9.3407 3.0049 16.04 12.41 15.837 22.219 0.14356 10.289-6.9822 20.253-16.957 23.048-10.921 3.4263-23.853-1.9204-28.876-12.274-5.5969-10.683-1.9007-25.099 8.1678-31.749 9.8776-6.9651 24.558-5.161 32.664 3.7252 8.12 8.3877 8.8715 22.382 2.2644 31.88-5.8718 9.0287-17.788 13.194-28.077 10.261-10.334-2.561-18.453-12.028-19.261-22.667-1.2478-11.538 5.8422-23.477 16.82-27.472 11.762-4.6715 26.426 0.21401 32.851 11.167 6.963 11.11 4.2544 26.939-5.8485 35.24-9.0175 7.8078-23.123 8.4362-33.025 1.9041-9.3105-5.7727-14.27-17.436-12.265-28.168 1.6441-10.785 10.062-20.171 20.686-22.756 11.827-3.1698 25.393 2.0493 31.78 12.56 6.786 10.594 5.3792 25.435-2.9509 34.783-7.2056 8.4619-19.472 11.822-30.072 8.7098-10.58-2.8065-19.155-11.944-21.08-22.747-2.4683-12.198 3.3554-25.652 14.214-31.864 11.255-6.7882 26.724-4.9539 36.275 3.9991 8.6483 7.7558 11.835 20.656 8.3267 31.654-2.022 6.6789-6.3258 12.653-12.119 16.565" opacity=".2"/>
<path d="m16.909 49.337c-3.8859-1.8589 1.3687-6.9414 3.4117-3.2373 2.279 3.4987-3.7071 6.5071-5.513 3.024-1.7078-2.4969 0.78598-6.0492 3.6983-5.5412 3.4169 0.25246 4.7939 5.102 2.1816 7.2332-2.5323 2.5254-7.2934 0.74614-7.6664-2.7808-0.83017-3.8513 3.7489-7.0916 7.1828-5.362 3.9974 1.6095 4.2675 7.8427 0.45822 9.8381-3.459 2.2788-8.5429-0.21377-8.9943-4.2978-0.96594-4.6215 4.2255-8.6861 8.5353-7.0233 4.5659 1.3792 6.1246 7.8364 2.7832 11.205-2.9956 3.4778-9.1468 3.0156-11.526-0.93872-2.7274-3.8401-0.88788-9.785 3.5439-11.399 4.3813-2.0023 9.9481 0.8892 10.947 5.5743 1.435 4.8543-2.4551 10.158-7.4458 10.512-5.2468 0.75731-10.124-4.1037-9.7664-9.3095 0.01802-5.7097 6.1502-10.054 11.573-8.6004 6.0158 1.2412 9.2475 8.8224 6.232 14.102-2.7696 5.5367-10.88 7.1-15.506 2.9765-4.8644-3.8703-5.051-12.061-0.2246-16.044 4.5753-4.26 12.667-3.4584 16.177 1.7717 3.809 4.9861 2.4225 12.928-2.9849 16.191-5.1702 3.5596-12.99 1.9956-16.261-3.4066-3.6719-5.3374-2.0563-13.409 3.5211-16.782 5.5054-3.7848 13.829-2.1176 17.306 3.6355 3.9019 5.6738 2.1722 14.252-3.7509 17.832-5.5611 3.8078-13.862 2.4304-17.795-3.0599-4.1939-5.327-3.5862-13.743 1.5491-18.248 5.114-4.8903 13.972-5.0041 19.064-0.0154 5.4857 4.9484 6.1591 14.227 1.2302 19.795-4.7938 5.8719-14.268 7.0146-20.228 2.2654-6.3765-4.6851-7.9245-14.583-3.1301-20.921 4.6389-6.6583 14.748-8.4844 21.367-3.7419 6.9435 4.5805 9.0581 14.893 4.3795 21.797-4.5098 7.2319-15.018 9.6462-22.208 5.0438-7.5228-4.4262-10.247-15.123-5.7334-22.6 4.3297-7.8161 15.206-10.862 22.972-6.4494 7.9638 4.1507 11.391 14.89 7.3919 22.912-3.8109 8.3704-14.622 12.392-23.021 8.7351-8.6018-3.3939-13.236-13.932-10.232-22.617 2.6921-8.7278 12.496-14.181 21.356-12.323 8.7143 1.5195 15.279 9.9382 15.168 18.692 0.21089 8.5145-6.1061 16.451-14.314 18.497-8.122 2.3809-17.486-1.3179-21.74-8.6461-4.7523-7.5184-3.7152-18.174 2.7076-24.417 6.7375-7.0073 18.641-8.1551 26.444-2.2552 8.3854 5.9128 11.091 18.376 5.7724 27.183-5.1097 9.1246-17.471 13.059-26.935 8.6403-9.6497-4.137-14.841-15.968-11.681-25.919 2.773-9.7704 13.122-16.343 23.126-15.255 9.5629 0.72554 17.78 8.5518 19.442 17.919 1.9654 9.1159-2.5919 19.099-10.762 23.593-8.4001 5.0074-19.988 3.8776-27.028-3.004-8.0094-7.3602-9.754-20.545-3.6192-29.599 6.1331-9.683 19.755-13.491 30.012-8.3642 10.426 4.82 15.918 17.76 12.456 28.655-3.045 10.669-14.206 17.938-25.163 17.013-10.221-0.54244-19.312-8.3705-21.788-18.233-2.8025-9.7221 1.1311-20.904 9.5036-26.624 8.9031-6.5096 22.099-6.3475 30.604 0.789 9.4344 7.4613 12.381 21.852 6.4198 32.345-5.8354 11.01-20.151 16.303-31.784 11.932-10.711-3.7117-17.931-15.023-17.261-26.277 0.32698-10.406 7.5699-20.031 17.356-23.48 9.6577-3.7716 21.383-1.3033 28.559 6.212 8.2292 8.2284 10.38 21.874 4.7639 32.125-5.4946 10.619-18.378 16.514-30.03 14.1-10.389-1.9096-18.983-10.409-21.459-20.612-2.7174-10.041 0.72816-21.441 8.7052-28.16 8.8671-7.8282 22.708-9.4281 32.98-3.4424 10.935 6.0377 16.776 19.641 13.946 31.757-2.2738 10.804-11.377 19.557-22.096 21.895-6.458 1.5095-13.42 0.80619-19.393-2.1031" opacity=".1"/>
</g>
<g transform="matrix(-.61679 .78713 -.78713 -.61679 115 40.012)" opacity=".5" stroke-width="2">
<path transform="matrix(.99411 -.10837 .10837 .99411 -5.1582 5.4919)" d="m108.9 48a60.896 60.896 0 0 1-6.5462 27.467l-54.35-27.467z" color="#000000" opacity=".05"/>
<path transform="matrix(.99786 -.065374 .065374 .99786 -3.094 3.2416)" d="m108.9 48a60.896 60.896 0 0 1-4.4572 22.869l-56.439-22.869z" color="#000000" opacity=".07"/>
<path transform="matrix(.99945 -.033121 .033121 .99945 -1.5635 1.6161)" d="m108.9 48a60.896 60.896 0 0 1-3.1299 19.272l-57.766-19.272z" color="#000000" opacity=".1"/>
<path d="m108.9 48a60.896 60.896 0 0 1-2.075 15.761l-58.821-15.761z" color="#000000" opacity=".1"/>
</g>
<g transform="matrix(-.068172 -1.046 2.7107 .60163 -79.095 69.08)" opacity=".8" stroke-width="2">
<path transform="matrix(.99411 -.10837 .10837 .99411 -5.1582 5.4919)" d="m108.9 48a60.896 60.896 0 0 1-6.5462 27.467l-54.35-27.467z" color="#000000" opacity=".05"/>
<path transform="matrix(.99786 -.065374 .065374 .99786 -3.094 3.2416)" d="m108.9 48a60.896 60.896 0 0 1-4.4572 22.869l-56.439-22.869z" color="#000000" opacity=".07"/>
<path transform="matrix(.99945 -.033121 .033121 .99945 -1.5635 1.6161)" d="m108.9 48a60.896 60.896 0 0 1-3.1299 19.272l-57.766-19.272z" color="#000000" opacity=".1"/>
<path d="m108.9 48a60.896 60.896 0 0 1-2.075 15.761l-58.821-15.761z" color="#000000" opacity=".1"/>
</g>
</g>
<g transform="translate(-16,-20)" fill="none">
<path d="m48 12c-19.882 0-36 16.118-36 36s16.118 36 36 36 36-16.118 36-36-16.118-36-36-36zm0 24c6.6274 0 12 5.3726 12 12s-5.3726 12-12 12-12-5.3726-12-12 5.3726-12 12-12z" fill="#bbb1bf"/>
<path d="m48 36c-6.6274 0-12 5.3726-12 12s5.3726 12 12 12 12-5.3726 12-12-5.3726-12-12-12zm0 7c2.7614 0 5 2.2386 5 5s-2.2386 5-5 5-5-2.2386-5-5 2.2386-5 5-5z" fill="#fff" opacity=".3"/>
<path transform="matrix(0 .16827 -.20214 0 60.517 37.922)" d="m92.58 61.922a32.686 27.208 0 1 1-65.371 0 32.686 27.208 0 1 1 65.371 0z" fill="none" opacity=".6" stroke="url(#linearGradient16614)" stroke-linecap="round" stroke-width="5.4221"/>
<path transform="matrix(0 .29065 -.34916 0 69.621 30.592)" d="m92.58 61.922a32.686 27.208 0 1 1-65.371 0 32.686 27.208 0 1 1 65.371 0z" fill="url(#radialGradient16616)" fill-rule="evenodd" opacity=".5" stroke="url(#linearGradient16618)" stroke-linecap="round" stroke-width="3.1391"/>
<path transform="translate(0,-20)" d="m57.312 33.219-9.3125 34.781 31.188-18c-4.7739-8.2686-12.653-14.31-21.875-16.781zm-9.3125 34.781-31.188 18c4.7739 8.2686 12.653 14.31 21.875 16.781l9.3125-34.781z" clip-path="url(#clipPath4031)" fill="#fff" filter="url(#filter4035)" opacity=".8"/>
<g transform="translate(0,-90)" clip-path="url(#clipPath4187)" filter="url(#filter4195)" opacity=".6">
<path transform="matrix(1.5055 .86922 -.95673 1.6571 27.56 21.5)" d="m60.947 57.784a20.708 18.814 0 0 1-2.6155 2.9059l-14.643-13.304z" fill="#7137c8"/>
<path transform="matrix(1.6792 .44994 -.49524 1.8483 -1.8956 30.76)" d="m60.779 58.011a20.708 18.814 0 0 1-3.384 3.4788l-13.706-14.103z" fill="#0cf"/>
<path transform="matrix(1.7384 0 -6.0266e-8 1.9135 -27.951 47.328)" d="m62.724 54.796a20.708 18.814 0 0 1-2.2597 3.6221l-16.775-11.031z" fill="#fc0"/>
<path transform="matrix(1.6792 -.44994 .49524 1.8483 -48.831 70.075)" d="m61.623 56.793a20.708 18.814 0 0 1-1.6993 2.2728l-16.235-11.68z" fill="#f00"/>
<path transform="matrix(1.6792 .44994 -.49524 1.8483 -1.8956 30.76)" d="m63.123 53.883a20.708 18.814 0 0 1-2.37 4.1619l-17.064-10.659z" fill="#0f0"/>
<path transform="matrix(-1.5055 -.86922 .95673 -1.6571 68.44 254.5)" d="m60.947 57.784a20.708 18.814 0 0 1-2.6155 2.9059l-14.643-13.304z" fill="#7137c8"/>
<path transform="matrix(-1.6792 -.44994 .49524 -1.8483 97.896 245.24)" d="m60.779 58.011a20.708 18.814 0 0 1-3.384 3.4788l-13.706-14.103z" fill="#0cf"/>
<path transform="matrix(-1.7384 0 6.0266e-8 -1.9135 123.95 228.67)" d="m62.724 54.796a20.708 18.814 0 0 1-2.2597 3.6221l-16.775-11.031z" fill="#fc0"/>
<path transform="matrix(-1.6792 .44994 -.49524 -1.8483 144.83 205.92)" d="m61.623 56.793a20.708 18.814 0 0 1-1.6993 2.2728l-16.235-11.68z" fill="#f00"/>
<path transform="matrix(-1.6792 -.44994 .49524 -1.8483 97.896 245.24)" d="m63.123 53.883a20.708 18.814 0 0 1-2.37 4.1619l-17.064-10.659z" fill="#0f0"/>
</g>
<path d="m48 33.5c-8.0081 0-14.5 6.4919-14.5 14.5s6.4919 14.5 14.5 14.5 14.5-6.4919 14.5-14.5-6.4919-14.5-14.5-14.5zm0 2.5c6.6274 0 12 5.3726 12 12s-5.3726 12-12 12-12-5.3726-12-12 5.3726-12 12-12z" fill="#000" opacity=".2"/>
<path d="m48 12c-19.882 0-36 16.118-36 36 0 0.33707 0.022 0.66516 0.0312 1 0.53379-19.416 16.424-35 35.969-35 19.545 0 35.435 15.584 35.969 35 0.009205-0.33484 0.03125-0.66293 0.03125-1 0-19.882-16.118-36-36-36z" fill="#fff" opacity=".4"/>
</g>
<path d="m-6.1749-11.271c-3.1166 0-5.668 2.5395-5.668 5.646v69.278c0 3.1065 2.5513 5.646 5.668 5.646h76.792c3.1166 0 5.668-2.5395 5.668-5.646v-69.278c0-3.1065-2.5513-5.646-5.668-5.646h-76.792zm0 2.3194h76.792c1.8881 0 3.352 1.4801 3.352 3.3266v69.278c0 1.8465-1.4639 3.3266-3.352 3.3266h-76.792c-1.8881 0-3.352-1.4801-3.352-3.3266v-69.278c0-1.8465 1.4639-3.3266 3.352-3.3266z" color="#000000" fill="#1f2224" fill-opacity=".63265" style="block-progression:tb;text-indent:0;text-transform:none"/>
<path d="m-14.5 65.844v6c0 3.6801 2.9761 6.6562 6.6562 6.6562h79.688c3.6801 0 6.6563-2.9761 6.6563-6.6562v-6c0 3.6801-2.9761 6.6562-6.6563 6.6562h-79.688c-3.6801 0-6.6562-2.9761-6.6562-6.6562z" fill="url(#linearGradient16453)" opacity=".65818"/>
<rect x="-10.625" y="64.25" width="84.25" height="4.25" rx="0" ry="4.25" fill="url(#radialGradient16455)" opacity=".55"/>
<rect transform="rotate(90)" x="-11.25" y="-74.625" width="76.75" height="4.25" rx="0" ry="4.25" fill="url(#radialGradient16457)" opacity=".55"/>
<path d="m-6.2275-9.3565c-1.9934 0-3.6045 1.6493-3.6088 3.6845l-0.14822 69.961c1.9137 2.5211 1.6653 2.4108 4.8515 2.6791 1.8042-14.861 36.499-73.336 77.418-73.336 0.48808 0 0.96327 0.01986 1.4492 0.02901-0.30286-1.718-1.751-3.0172-3.5236-3.0172z" fill="#fff" opacity=".3"/>
<rect transform="matrix(.9093 0 0 .92838 -11.655 18.495)" x="2" y="-30" width="92" height="92" rx="3.957" ry="3.957" clip-path="url(#clipPath4156-4)" fill="url(#linearGradient16459)"/>
<g transform="translate(23.102 -18.484)" fill="none">
<path d="m34.156 19v47.625c-2.9551-1.1572-6.8274-1.328-10.812-0.25-7.4477 2.0147-12.437 7.6498-11.125 12.594 1.3121 4.944 8.3961 7.3272 15.844 5.3125 6.3275-1.7117 9.3928-6.0469 9.8125-10.344h0.03125v-43.75c3.7268 2.6581 12.764 12.968 8.4375 25.125 2.3963-6.2373 2.6146-12.927 1.7188-16.531-1.0841-4.3617-4.7454-8.857-8.5312-12.906-3.977-4.2538-5.375-6.875-5.375-6.875zm11.75 37.406c-0.40183 0.93359-0.8668 1.8588-1.375 2.75 0.53876-0.92199 0.99568-1.8438 1.375-2.75z" fill="#000" filter="url(#filter3832)" opacity=".5"/>
<g transform="matrix(.67444 0 0 .67444 3.5345 -53.262)">
<path d="m45.39 105.66v70.626c-4.3815-1.7158-10.107-1.989-16.015-0.39062-11.043 2.9872-18.458 11.348-16.512 18.679 1.9455 7.3304 12.465 10.871 23.508 7.8834 9.3818-2.538 13.902-8.9697 14.524-15.341h0.07102v-64.865c6.0974 4.3489 21.759 22.535 9.8335 42.943 6.0281-10.571 6.834-23.734 5.2266-30.201-1.6074-6.467-7.0376-13.116-12.651-19.12-5.8968-6.3071-7.9844-10.215-7.9844-10.215z" fill="url(#linearGradient16630)"/>
<path transform="matrix(1.1628 -.27392 .27392 1.1628 -37.781 103.15)" d="m56.392 82.48a14.672 9.2808 0 1 1-29.345 0 14.672 9.2808 0 1 1 29.345 0z" fill="url(#radialGradient16632)"/>
</g>
</g>
</g>
</g>
</svg>
