<?xml version="1.0" encoding="UTF-8"?>
<!-- Created with Inkscape (http://www.inkscape.org/) -->
<svg version="1.1" viewBox="0 0 96 96" xmlns="http://www.w3.org/2000/svg" xmlns:cc="http://creativecommons.org/ns#" xmlns:dc="http://purl.org/dc/elements/1.1/" xmlns:rdf="http://www.w3.org/1999/02/22-rdf-syntax-ns#" xmlns:xlink="http://www.w3.org/1999/xlink">
<defs>
<linearGradient id="linearGradient4071" x1="6" x2="90" y1="47" y2="47" gradientTransform="matrix(1.1071 0 0 1.1071 -4.9939 -3.6207)" gradientUnits="userSpaceOnUse">
<stop stop-color="#adb9c1" offset="0"/>
<stop stop-color="#fff" offset=".25"/>
<stop stop-color="#90a2aa" offset=".5"/>
<stop stop-color="#f9fafb" offset=".75"/>
<stop stop-color="#adb9c1" offset="1"/>
</linearGradient>
<linearGradient id="linearGradient4129" x1="1.5" x2="94.5" y1="88.172" y2="88.172" gradientTransform="translate(.14895 .41503)" gradientUnits="userSpaceOnUse" xlink:href="#linearGradient3832-0-6-1-1"/>
<linearGradient id="linearGradient3832-0-6-1-1">
<stop offset="0"/>
<stop stop-opacity=".58824" offset=".1"/>
<stop stop-opacity=".58824" offset=".9"/>
<stop offset="1"/>
</linearGradient>
<radialGradient id="radialGradient7462" cx="13.948" cy="44.893" r="43.199" gradientTransform="matrix(.97513 0 0 .049191 34.048 80.582)" gradientUnits="userSpaceOnUse" xlink:href="#linearGradient3737"/>
<linearGradient id="linearGradient3737">
<stop stop-color="#fff" offset="0"/>
<stop stop-color="#fff" stop-opacity="0" offset="1"/>
</linearGradient>
<radialGradient id="radialGradient7464" cx="13.948" cy="44.893" r="43.199" gradientTransform="matrix(.88833 0 0 .049191 31.96 -90.317)" gradientUnits="userSpaceOnUse" xlink:href="#linearGradient3737"/>
<linearGradient id="linearGradient4767" x1="2.7714" x2="50.528" y1="-28.642" y2="14.514" gradientUnits="userSpaceOnUse" xlink:href="#linearGradient3737"/>
<clipPath id="clipPath4156-4-1">
<path d="m27.046-55.695-14.214 13.321h0.06127l15.653 21.771 10.231-10.546c-0.2169-1.1522-11.311-23.67-11.732-24.546zm-17.399 16.313-14.888 14.062 21.229 17.515 10.385-10.577zm31.491 12.951-9.7413 9.7136 8.9448 12.458 7.7808-7.555zm-49.84 4.3788-13.754 12.982 26.283 13.846 0.06127-0.0617-0.12253-0.0617 9.8332-10.053-22.301-16.652zm38.015 7.4008-9.8025 9.7753 11.579 9.5594 7.6276-7.4008-8.6691-11.009zm20.187 5.674-7.3825 7.2158 6.1878 8.5418 5.8202-6.1365zm-32.195 6.3215-9.5575 9.4977 13.662 7.185 7.9339-7.6784zm23.312 2.3744-7.1068 6.9383 8.3628 6.9074 5.3608-5.674-0.06127-0.0925-0.0919 0.12335-6.4635-8.2026zm-8.7304 8.5418-7.5051 7.3392 10.354 5.4581c1.3975-1.321 5.6751-6.1229 5.8509-6.3215z" fill="#fff" opacity=".6"/>
</clipPath>
<linearGradient id="linearGradient3887" x1="9.1735" x2="9.1735" y1="3.1499" y2="18.002" gradientTransform="matrix(3,0,0,3,16,18)" gradientUnits="userSpaceOnUse" xlink:href="#linearGradient3832-0-6-1-1"/>
</defs>
<metadata>
<rdf:RDF>
<cc:Work rdf:about="">
<dc:format>image/svg+xml</dc:format>
<dc:type rdf:resource="http://purl.org/dc/dcmitype/StillImage"/>
<dc:title/>
<dc:date>2017</dc:date>
<dc:creator>
<cc:Agent>
<dc:title>Cristian Pozzessere "ilnanny"</dc:title>
</cc:Agent>
</dc:creator>
<dc:subject>
<rdf:Bag>
<rdf:li>Global language</rdf:li>
</rdf:Bag>
</dc:subject>
<dc:description>Playing with Inkscape on Gnu/Linux O. S.</dc:description>
<dc:contributor>
<cc:Agent>
<dc:title>In the night, alone like a dog.</dc:title>
</cc:Agent>
</dc:contributor>
<cc:license rdf:resource="http://creativecommons.org/licenses/by-sa/4.0/"/>
</cc:Work>
<cc:License rdf:about="http://creativecommons.org/licenses/by-sa/4.0/">
<cc:permits rdf:resource="http://creativecommons.org/ns#Reproduction"/>
<cc:permits rdf:resource="http://creativecommons.org/ns#Distribution"/>
<cc:requires rdf:resource="http://creativecommons.org/ns#Notice"/>
<cc:requires rdf:resource="http://creativecommons.org/ns#Attribution"/>
<cc:permits rdf:resource="http://creativecommons.org/ns#DerivativeWorks"/>
<cc:requires rdf:resource="http://creativecommons.org/ns#ShareAlike"/>
</cc:License>
</rdf:RDF>
</metadata>
<g transform="translate(0 -1026.5)">
<g transform="translate(-.14896 1026.1)">
<path d="m89.292 0.41503h-82.286c-3.7988 0-6.8571 3.0583-6.8571 6.8571v82.286c0 3.7989 3.0583 6.8571 6.8571 6.8571h82.286c3.7989 0 6.8571-3.0583 6.8571-6.8571v-82.286c0-3.7989-3.0583-6.8571-6.8571-6.8571z" opacity=".15"/>
<path d="m88.649 1.165h-81c-3.7395 0-6.75 3.0105-6.75 6.75v81c0 3.7395 3.0105 6.75 6.75 6.75h81c3.7395 0 6.75-3.0105 6.75-6.75v-81c0-3.7395-3.0105-6.75-6.75-6.75z" opacity=".15"/>
<path d="m88.006 1.915h-79.714c-3.6801 0-6.6429 2.9627-6.6429 6.6429v79.714c0 3.6801 2.9627 6.6429 6.6429 6.6429h79.714c3.6801 0 6.6429-2.9627 6.6429-6.6429v-79.714c0-3.6801-2.9627-6.6429-6.6429-6.6429z" fill="url(#linearGradient4071)"/>
<path d="m11.39 6.8022c-2.8565 0-5.1241 2.2884-5.1241 5.171v68.58c1.0972 1.6845 2.9688 2.8117 5.1241 2.8117h73.787c2.1553 0 4.0269-1.1272 5.1241-2.8117v-68.58c0-2.8826-2.2676-5.171-5.1241-5.171z" fill="#f5f3f3" opacity=".77865"/>
<path d="m9.974 5.1445c-3.1166 0-5.668 2.5395-5.668 5.646v69.278c0 3.1065 2.5513 5.646 5.668 5.646h76.792c3.1166 0 5.668-2.5395 5.668-5.646v-69.278c0-3.1065-2.5513-5.646-5.668-5.646zm0 2.3194h76.792c1.8881 0 3.352 1.4801 3.352 3.3266v69.278c0 1.8465-1.4639 3.3266-3.352 3.3266h-76.792c-1.8881 0-3.352-1.4801-3.352-3.3266v-69.278c0-1.8465 1.4639-3.3266 3.352-3.3266z" color="#000000" fill="#1f2224" fill-opacity=".63265" style="text-decoration-line:none;text-indent:0;text-transform:none"/>
<path d="m1.649 82.259v6c0 3.6801 2.9761 6.6562 6.6562 6.6562h79.687c3.6801 0 6.6563-2.9761 6.6563-6.6562v-6c0 3.6801-2.9761 6.6562-6.6563 6.6562h-79.687c-3.6801 0-6.6562-2.9761-6.6562-6.6562z" fill="url(#linearGradient4129)" opacity=".65818"/>
<rect x="5.524" y="80.665" width="84.25" height="4.25" rx="0" ry="4.25" fill="url(#radialGradient7462)" opacity=".55"/>
<rect transform="rotate(90)" x="5.975" y="-90.234" width="76.75" height="4.25" rx="0" ry="4.25" fill="url(#radialGradient7464)" opacity=".669"/>
<g transform="matrix(1.2632 0 0 1.2632 -13.057 -15.299)">
<path d="m53.719 25.969c-1.5576 0.17594-1.8489 1.9173-1.6875 3.1925 0.02083 8.6745-0.04166 17.356 0.03125 26.026 0.09098 1.5827 1.8505 1.9167 3.13 1.75 2.0253-0.08604 4.0926 0.18316 6.0887-0.15625 1.5508-1.6289 3.7825 1.3093 6 0.625 5.5069 0.17157 9.8594-4.7875 10.385-10.012 0.92431-5.6698-1.3667-12.498-7.1345-14.589-2.524-1.1353-6.0228-0.32464-8.063 0.47968-0.09089-2.0379 0.19027-4.1198-0.15625-6.1283-0.81946-1.7547-3.0044-1.0397-4.5348-1.1875h-4.059zm-22.75 0.09375c-1.8092 0.30396-1.8529 2.4884-2.5293 3.8282-3.0527 8.1406-6.1055 16.281-9.1582 24.422-0.5543 1.2335 0.69191 2.8758 2.1184 2.625 2.4368-0.05773 4.8988 0.11846 7.3191-0.09375 1.5978-0.66481 1.5581-2.7053 2.2447-4.0698 0.04385-1.2812 1.4238-0.66866 2.2752-0.80518h6.2614c0.61709 1.4447 0.80797 3.1213 1.7188 4.4062 1.2156 1.0148 2.9495 0.38782 4.4032 0.5625 1.6045-0.11318 3.3032 0.23421 4.8468-0.1875 1.2848-0.5069 1.3773-2.1469 0.76269-3.1537-3.3069-8.8114-6.6092-17.638-9.9189-26.44-0.8908-1.6457-2.9865-0.9446-4.5035-1.0938h-5.8402zm4.4375 14.125c0.33333 0.97917 0.66667 1.9583 1 2.9375-0.67885-0.17381-2.5637 0.5158-1.7535-0.72406 0.25117-0.73781 0.50234-1.4756 0.75351-2.2134zm29.438 0.71875c3.018 0.20183 2.6067 4.6257 1.9104 6.7167-1.839 3.3249-5.3462-0.64759-4.2693-3.3418 0.07878-1.3586 0.50714-3.6455 2.3589-3.3749zm-38.031 18.156c-1.5299 0.39701-2.3697 1.9979-3.5672 2.9734-1.3146 1.4265-2.8903 2.6577-4.0266 4.2141-0.34271 2.2267-0.06787 4.5253-0.15625 6.7812-0.01627 1.7661 2.5255 2.5649 3.4976 1.0962l4.4399-4.4399c1.7131 1.6428 3.3244 3.4604 5.0938 5 1.3718 0.78557 2.4944-0.5028 3.3317-1.4254l3.5746-3.5746c1.7131 1.6428 3.3244 3.4604 5.0938 5 1.3718 0.78557 2.4944-0.5028 3.3317-1.4254l3.5746-3.5746c1.7131 1.6428 3.3244 3.4604 5.0938 5 1.3718 0.78557 2.4944-0.5028 3.3317-1.4254l3.5746-3.5746c1.7131 1.6428 3.3244 3.4604 5.0938 5 1.3717 0.78551 2.4936-0.50356 3.3345-1.4226 1.7292-1.8038 3.6544-3.4674 5.2593-5.3586 0.51882-1.6497 0.12874-3.4689 0.25-5.1895 0.05505-1.2783 0.18613-3.0588-1.3438-3.5293-1.7353-0.53961-2.6347 1.394-3.7764 2.3076l-2.8174 2.8174c-1.7131-1.6428-3.3244-3.4604-5.0938-5-1.3718-0.78557-2.4944 0.5028-3.3317 1.4254l-3.5746 3.5746c-1.7131-1.6428-3.3244-3.4604-5.0938-5-1.3718-0.78557-2.4944 0.5028-3.3317 1.4254l-3.5746 3.5746c-1.7131-1.6428-3.3244-3.4604-5.0938-5-1.3718-0.78557-2.4944 0.5028-3.3317 1.4254l-3.5746 3.5746c-1.7046-1.6275-3.2816-3.479-5.0625-4.9688-0.31836-0.24153-0.73827-0.29206-1.125-0.28125z" opacity=".1"/>
<path d="m53.875 26.969a0.93991 0.93991 0 0 0-0.84375 0.9375v27.094a0.93991 0.93991 0 0 0 0.9375 0.9375h6.5625a0.93991 0.93991 0 0 0 0.9375-0.9375v-0.65625c0.51712 0.4374 1.0513 0.82813 1.625 1.125 1.2308 0.62333 2.6368 0.9375 4.1875 0.9375 2.7495 0 5.133-1.0834 6.9062-3.25 1.7707-2.1767 2.6562-4.9946 2.6562-8.2812-2.5e-5 -3.2867-0.8821-6.1135-2.6562-8.2812-1.7651-2.1697-4.1364-3.3437-6.9062-3.3438-1.5454 2.3e-5 -2.9482 0.29624-4.1875 0.9375-0.57895 0.29322-1.1071 0.68565-1.625 1.125v-7.4062a0.93991 0.93991 0 0 0-0.9375-0.9375h-6.5625a0.93991 0.93991 0 0 0-0.09375 0zm-22.75 0.09375a0.93991 0.93991 0 0 0-0.78125 0.59375l-10.125 27a0.93991 0.93991 0 0 0 0.875 1.2812h7.0312a0.93991 0.93991 0 0 0 0.875-0.625l1.5625-4.3438h9.6562l1.4688 4.3438a0.93991 0.93991 0 0 0 0.875 0.625h7.125a0.93991 0.93991 0 0 0 0.875-1.2812l-10.125-27a0.93991 0.93991 0 0 0-0.875-0.59375h-8.3438a0.93991 0.93991 0 0 0-0.09375 0zm4.3125 10.094 2.3438 6.9688h-4.7812zm29.406 2.75c1.1808 1.3e-5 1.8759 0.34596 2.4375 1.125 0.57777 0.7884 0.93748 2.0393 0.9375 3.8438-1.7e-5 1.8044-0.35974 3.0554-0.9375 3.8438-0.5616 0.77906-1.2567 1.125-2.4375 1.125-1.1808 3e-6 -1.8428-0.32656-2.4375-1.125-0.5826-0.80441-0.93751-2.0522-0.9375-3.8438-8e-6 -1.7916 0.36182-3.0582 0.9375-3.8438 0.5934-0.80612 1.2513-1.125 2.4375-1.125zm-37.938 20.156a0.93991 0.93991 0 0 0-0.5625 0.28125l-6 6a0.93991 0.93991 0 0 0-0.28125 0.65625v6a0.93991 0.93991 0 0 0 1.5938 0.65625l5.3438-5.3438 5.3438 5.3438a0.93991 0.93991 0 0 0 1.3125 0l5.3438-5.3438 5.3438 5.3438a0.93991 0.93991 0 0 0 1.3125 0l5.3438-5.3438 5.3438 5.3438a0.93991 0.93991 0 0 0 1.3125 0l5.3438-5.3438 5.3438 5.3438a0.93991 0.93991 0 0 0 1.3125 0l6-6a0.93991 0.93991 0 0 0 0.28125-0.65625v-6a0.93991 0.93991 0 0 0-1.5938-0.65625l-5.3438 5.3438-5.3438-5.3438a0.93991 0.93991 0 0 0-1.3125 0l-5.3438 5.3438-5.3438-5.3438a0.93991 0.93991 0 0 0-1.3125 0l-5.3438 5.3438-5.3438-5.3438a0.93991 0.93991 0 0 0-1.3125 0l-5.3438 5.3438-5.3438-5.3438a0.93991 0.93991 0 0 0-0.75-0.28125z" opacity=".15"/>
<path d="m53.969 27.906v27.094h6.5625v-3c0.90026 1.1814 1.9051 2.0584 3 2.625 1.0949 0.5545 2.3266 0.84375 3.75 0.84375 2.5183 0 4.5694-0.92924 6.1875-2.9062 1.618-1.9891 2.4375-4.5653 2.4375-7.6875-2.4e-5 -3.1222-0.81947-5.7105-2.4375-7.6875-1.6181-1.989-3.6692-3-6.1875-3-1.4234 2.1e-5 -2.6551 0.2772-3.75 0.84375-1.0949 0.55455-2.0997 1.4436-3 2.625v-9.75zm-22.75 0.09375-10.125 27h7.0312l1.7812-4.9688h10.969l1.6875 4.9688h7.125l-10.125-27zm4.2188 6.2812 3.6562 10.781h-7.4062zm29.406 4.6875c1.3991 1.5e-5 2.4575 0.4874 3.1875 1.5 0.7421 1.0126 1.125 2.4775 1.125 4.4062-1.8e-5 1.9288-0.3829 3.3936-1.125 4.4062-0.72997 1.0126-1.7884 1.5-3.1875 1.5-1.3991 3e-6 -2.4332-0.48738-3.1875-1.5-0.74212-1.0247-1.125-2.4895-1.125-4.4062-9e-6 -1.9167 0.38288-3.3936 1.125-4.4062 0.75427-1.0247 1.7884-1.5 3.1875-1.5zm-37.844 22.031-6 6v6l6-6 6 6 6-6 6 6 6-6 6 6 6-6 6 6 6-6v-6l-6 6-6-6-6 6-6-6-6 6-6-6-6 6z" opacity=".3"/>
<path d="m53.969 26.906v27.094h6.5625v-3c0.90026 1.1814 1.9051 2.0584 3 2.625 1.0949 0.5545 2.3266 0.84375 3.75 0.84375 2.5183 0 4.5694-0.92924 6.1875-2.9062 1.618-1.9891 2.4375-4.5653 2.4375-7.6875-2.4e-5 -3.1222-0.81947-5.7105-2.4375-7.6875-1.6181-1.989-3.6692-3-6.1875-3-1.4234 2.1e-5 -2.6551 0.2772-3.75 0.84375-1.0949 0.55455-2.0997 1.4436-3 2.625v-9.75zm-22.75 0.09375-10.125 27h7.0312l1.7812-4.9688h10.969l1.6875 4.9688h7.125l-10.125-27zm4.2188 6.2812 3.6562 10.781h-7.4062zm29.406 4.6875c1.3991 1.5e-5 2.4575 0.4874 3.1875 1.5 0.7421 1.0126 1.125 2.4775 1.125 4.4062-1.8e-5 1.9288-0.3829 3.3936-1.125 4.4062-0.72997 1.0126-1.7884 1.5-3.1875 1.5-1.3991 3e-6 -2.4332-0.48738-3.1875-1.5-0.74212-1.0247-1.125-2.4895-1.125-4.4062-9e-6 -1.9167 0.38288-3.3936 1.125-4.4062 0.75427-1.0247 1.7884-1.5 3.1875-1.5zm-37.844 22.031-6 6v6l6-6 6 6 6-6 6 6 6-6 6 6 6-6 6 6 6-6v-6l-6 6-6-6-6 6-6-6-6 6-6-6-6 6z" fill="url(#linearGradient3887)" opacity=".832"/>
<path d="m53.969 26.906v1h6.5625v-1zm-22.75 0.09375-10.125 27h0.375l9.75-26h8.3438l9.75 26h0.375l-10.125-27zm36.062 6.1875c-1.4234 2.1e-5 -2.6551 0.2772-3.75 0.84375-1.0949 0.55455-2.0997 1.4436-3 2.625v1c0.90026-1.1814 1.9051-2.0705 3-2.625 1.0949-0.56655 2.3266-0.84373 3.75-0.84375 2.5183 2.1e-5 4.5694 1.011 6.1875 3 1.5306 1.8702 2.3538 4.2887 2.4375 7.1875 0.0048-0.16545-1e-6 -0.33135 0-0.5-2.4e-5 -3.1222-0.81947-5.7105-2.4375-7.6875-1.6181-1.989-3.6692-3-6.1875-3zm-35.25 10.875-0.34375 1h7.4062l-0.34375-1zm28.531 0.3125c-0.0066 0.17079-0.03125 0.32157-0.03125 0.5-9e-6 1.9167 0.38288 3.3816 1.125 4.4062 0.75427 1.0126 1.7884 1.5 3.1875 1.5 1.3991 3e-6 2.4575-0.48738 3.1875-1.5 0.7421-1.0126 1.125-2.4775 1.125-4.4062-2e-6 -0.17548-0.02493-0.33219-0.03125-0.5-0.06317 1.6767-0.41917 2.9858-1.0938 3.9062-0.72997 1.0126-1.7884 1.5-3.1875 1.5-1.3991 3e-6 -2.4332-0.48738-3.1875-1.5-0.67304-0.92927-1.0293-2.2442-1.0938-3.9062zm-33.562 15.625-6 6v1l6-6 6 6 6-6 6 6 6-6 6 6 6-6 6 6 6-6v-1l-6 6-6-6-6 6-6-6-6 6-6-6-6 6z" fill="#fff" opacity=".75"/>
<path d="m35.438 32.281-3.75 10.781h0.34375l3.4062-9.7812 3.3125 9.7812h0.34375zm29.406 4.6875c-1.3991 1.5e-5 -2.4332 0.47534-3.1875 1.5-0.74212 1.0126-1.125 2.4895-1.125 4.4062-1e-6 0.17843 0.02463 0.32939 0.03125 0.5 0.06446-1.6638 0.42071-2.9879 1.0938-3.9062 0.75427-1.0247 1.7884-1.5 3.1875-1.5 1.3991 1.5e-5 2.4575 0.4874 3.1875 1.5 0.67458 0.9205 1.0306 2.2296 1.0938 3.9062 0.0063-0.16781 0.03125-0.32452 0.03125-0.5-1.8e-5 -1.9288-0.3829-3.3936-1.125-4.4062-0.72997-1.0126-1.7884-1.5-3.1875-1.5zm11.062 6.4062c-0.0837 2.8977-0.90687 5.3059-2.4375 7.1875-1.6181 1.977-3.6692 2.9062-6.1875 2.9062-1.4234 0-2.6551-0.28925-3.75-0.84375-1.0949-0.56658-2.0997-1.4436-3-2.625v1c0.90026 1.1814 1.9051 2.0584 3 2.625 1.0949 0.5545 2.3266 0.84375 3.75 0.84375 2.5183 0 4.5694-0.92924 6.1875-2.9062 1.618-1.9891 2.4375-4.5653 2.4375-7.6875-1e-6 -0.16864 0.0048-0.33448 0-0.5zm-46 4.6562-1.7812 4.9688h-6.6562l-0.375 1h7.0312l1.7812-4.9688h10.969l1.6875 4.9688h7.125l-0.375-1h-6.75l-1.6875-4.9688zm24.062 4.9688v1h6.5625v-1zm-26.969 12-6 6v1l6-6 6 6 6-6 6 6 6-6 6 6 6-6 6 6 6-6v-1l-6 6-6-6-6 6-6-6-6 6-6-6-6 6z" fill="#f9f9f9" opacity=".292"/>
</g>
<rect transform="matrix(1.0692 0 0 1.0477 4.4442 38.894)" x="2" y="-30" width="75.966" height="69.024" rx="3.957" ry="3.957" clip-path="url(#clipPath4156-4-1)" fill="url(#linearGradient4767)" opacity=".50781"/>
</g>
</g>
</svg>
