<?xml version="1.0" encoding="UTF-8"?>
<!-- Created with Inkscape (http://www.inkscape.org/) -->
<svg version="1.1" viewBox="0 0 96 96" xmlns="http://www.w3.org/2000/svg" xmlns:cc="http://creativecommons.org/ns#" xmlns:dc="http://purl.org/dc/elements/1.1/" xmlns:rdf="http://www.w3.org/1999/02/22-rdf-syntax-ns#" xmlns:xlink="http://www.w3.org/1999/xlink">
<defs>
<linearGradient id="linearGradient3825" x1="6" x2="90" y1="47" y2="47" gradientTransform="matrix(1.1071 0 0 1.1071 -5.1429 -4.0357)" gradientUnits="userSpaceOnUse">
<stop stop-color="#adbac1" offset="0"/>
<stop stop-color="#fff" offset=".25"/>
<stop stop-color="#909faa" offset=".5"/>
<stop stop-color="#f9fafb" offset=".75"/>
<stop stop-color="#adbcc1" offset="1"/>
</linearGradient>
<linearGradient id="linearGradient3829" x1="1.5" x2="94.5" y1="88.172" y2="88.172" gradientTransform="translate(-3e-6)" gradientUnits="userSpaceOnUse">
<stop offset="0"/>
<stop stop-opacity=".58824" offset=".1"/>
<stop stop-opacity=".58824" offset=".9"/>
<stop offset="1"/>
</linearGradient>
<linearGradient id="linearGradient3835" x1="45.448" x2="45.448" y1="92.54" y2="7.0165" gradientTransform="scale(1.0059 .99417)" gradientUnits="userSpaceOnUse">
<stop offset="0"/>
<stop stop-opacity=".58824" offset="1"/>
</linearGradient>
<filter id="filter3174-3" color-interpolation-filters="sRGB">
<feGaussianBlur stdDeviation="1.71"/>
</filter>
<radialGradient id="radialGradient4689" cx="48" cy="13.9" r="44" gradientTransform="matrix(1 0 0 .90909 0 33.264)" gradientUnits="userSpaceOnUse">
<stop stop-color="#74c332" offset="0"/>
<stop stop-color="#9ecd5e" offset="1"/>
</radialGradient>
<linearGradient id="linearGradient3994-6" x1="378.34" x2="378.34" y1="144.83" y2="179.11" gradientTransform="matrix(.43978 0 0 -.43979 -195.74 121.48)" gradientUnits="userSpaceOnUse">
<stop stop-color="#f6f6f6" offset="0"/>
<stop stop-color="#d0e6be" offset="1"/>
</linearGradient>
<linearGradient id="linearGradient4679" x1="376.36" x2="376.36" y1="120.19" y2="323.4" gradientTransform="matrix(.43978 0 0 .43979 -191.92 -35.4)" gradientUnits="userSpaceOnUse">
<stop stop-color="#fff" offset="0"/>
<stop stop-color="#fff" stop-opacity="0" offset="1"/>
</linearGradient>
<linearGradient id="linearGradient4967" x1="2.7714" x2="50.528" y1="-28.642" y2="14.514" gradientUnits="userSpaceOnUse">
<stop stop-color="#fff" offset="0"/>
<stop stop-color="#fff" stop-opacity="0" offset="1"/>
</linearGradient>
<clipPath id="clipPath4156-4-6">
<path d="m27.046-55.695-14.214 13.321h0.06127l15.653 21.771 10.231-10.546c-0.2169-1.1522-11.311-23.67-11.732-24.546zm-17.399 16.313-14.888 14.062 21.229 17.515 10.385-10.577-16.726-21zm31.491 12.951-9.7413 9.7136 8.9448 12.458 7.7808-7.555-6.9843-14.617zm-49.84 4.3788-13.754 12.982 26.283 13.846 0.06127-0.0617-0.12253-0.0617 9.8332-10.053-22.301-16.652zm38.015 7.4008-9.8025 9.7753 11.579 9.5594 7.6276-7.4008-8.6691-11.009-0.73519-0.9251zm20.187 5.674-7.3825 7.2158 6.1878 8.5418 5.8202-6.1365-4.6256-9.6211zm-32.195 6.3215-9.5575 9.4977 13.662 7.185 7.9339-7.6784-12.039-9.0043zm23.312 2.3744-7.1068 6.9383 8.3628 6.9074 5.3608-5.674-0.06127-0.0925-0.0919 0.12335-6.4635-8.2026zm-8.7304 8.5418-7.5051 7.3392 10.354 5.4581c1.3975-1.321 5.6751-6.1229 5.8509-6.3215l-8.6997-6.4757z" fill="#fff" opacity=".6"/>
</clipPath>
<radialGradient id="radialGradient4992" cx="13.948" cy="44.893" r="43.199" gradientTransform="matrix(.97513 0 0 .049191 32.735 78.814)" gradientUnits="userSpaceOnUse" xlink:href="#linearGradient4133-5"/>
<linearGradient id="linearGradient4133-5">
<stop stop-color="#fff" offset="0"/>
<stop stop-color="#fff" stop-opacity="0" offset="1"/>
</linearGradient>
<radialGradient id="radialGradient40904" cx="13.948" cy="44.893" r="43.199" gradientTransform="matrix(.88833 0 0 .049191 29.382 -89.635)" gradientUnits="userSpaceOnUse" xlink:href="#linearGradient4133-5"/>
</defs>
<metadata>
<rdf:RDF>
<cc:Work rdf:about="">
<dc:format>image/svg+xml</dc:format>
<dc:type rdf:resource="http://purl.org/dc/dcmitype/StillImage"/>
<dc:title/>
</cc:Work>
</rdf:RDF>
</metadata>
<path d="m89.143 0h-82.286c-3.7988 0-6.8571 3.0583-6.8571 6.8571v82.286c0 3.7989 3.0583 6.8571 6.8571 6.8571h82.286c3.7989 0 6.8571-3.0583 6.8571-6.8571v-82.286c0-3.7989-3.0583-6.8571-6.8571-6.8571z" opacity=".15"/>
<path d="m88.5 0.75h-81c-3.7395 0-6.75 3.0105-6.75 6.75v81c0 3.7395 3.0105 6.75 6.75 6.75h81c3.7395 0 6.75-3.0105 6.75-6.75v-81c0-3.7395-3.0105-6.75-6.75-6.75z" opacity=".15"/>
<path d="m87.857 1.5h-79.714c-3.6801 0-6.6429 2.9627-6.6429 6.6429v79.714c0 3.6801 2.9627 6.6429 6.6429 6.6429h79.714c3.6801 0 6.6429-2.9627 6.6429-6.6429v-79.714c0-3.6801-2.9627-6.6429-6.6429-6.6429z" fill="url(#linearGradient3825)"/>
<path d="m1.5 81.844v6c0 3.6801 2.9761 6.6562 6.6562 6.6562h79.688c3.6801 0 6.6563-2.9761 6.6563-6.6562v-6c0 3.6801-2.9761 6.6562-6.6563 6.6562h-79.688c-3.6801 0-6.6562-2.9761-6.6562-6.6562z" fill="url(#linearGradient3829)" opacity=".89091"/>
<g transform="translate(243.24 -90.232)">
<g display="none">
<rect x="5" y="7" width="86" height="85" rx="6" ry="6" fill="url(#linearGradient3835)" filter="url(#filter3174-3)" opacity=".9"/>
</g>
</g>
<rect x="4" y="5.9" width="88" height="80" rx="6.2141" ry="5.4427" fill="url(#radialGradient4689)"/>
<path transform="translate(0,1)" d="m31 22.039c-3.2715 0-5.9609 2.6894-5.9609 5.9609v38c0 3.2715 2.6894 5.9609 5.9609 5.9609h10c3.2715 0 5.9609-2.6894 5.9609-5.9609v-38c0-3.2715-2.6894-5.9609-5.9609-5.9609zm24 0c-3.2715 0-5.9609 2.6894-5.9609 5.9609v38c0 3.2715 2.6894 5.9609 5.9609 5.9609h10c3.2715 0 5.9609-2.6894 5.9609-5.9609v-38c0-3.2715-2.6894-5.9609-5.9609-5.9609z" fill="#2d5016" fill-rule="evenodd" opacity=".08"/>
<path transform="translate(0,1)" d="m31 22.998c-2.745 0-5.002 2.2569-5.002 5.002v38c0 2.745 2.2569 5.002 5.002 5.002h10c2.745 0 5.002-2.2569 5.002-5.002v-38c0-2.745-2.2569-5.002-5.002-5.002zm24 0c-2.745 0-5.002 2.2569-5.002 5.002v38c0 2.745 2.2569 5.002 5.002 5.002h10c2.745 0 5.002-2.2569 5.002-5.002v-38c0-2.745-2.2569-5.002-5.002-5.002z" fill="#243f11" fill-rule="evenodd" opacity=".349"/>
<path transform="translate(0,1)" d="m31 24.002c-2.1973 0-3.998 1.8008-3.998 3.998v38c0 2.1973 1.8008 3.998 3.998 3.998h10c2.1973 0 3.998-1.8008 3.998-3.998v-38c0-2.1973-1.8008-3.998-3.998-3.998zm24 0c-2.1973 0-3.998 1.8008-3.998 3.998v38c0 2.1973 1.8008 3.998 3.998 3.998h10c2.1973 0 3.998-1.8008 3.998-3.998v-38c0-2.1973-1.8008-3.998-3.998-3.998z" fill="#2d5016" fill-rule="evenodd" opacity=".15"/>
<path d="m31 26c-1.662 0-3 1.338-3 3v38c0 1.662 1.338 3 3 3h10c1.662 0 3-1.338 3-3v-38c0-1.662-1.338-3-3-3zm24 0c-1.662 0-3 1.338-3 3v38c0 1.662 1.338 3 3 3h10c1.662 0 3-1.338 3-3v-38c0-1.662-1.338-3-3-3z" fill="#243f11" fill-rule="evenodd" opacity=".349"/>
<path d="m31 25c-1.662 0-3 1.338-3 3v38c0 1.662 1.338 3 3 3h10c1.662 0 3-1.338 3-3v-38c0-1.662-1.338-3-3-3zm24 0c-1.662 0-3 1.338-3 3v38c0 1.662 1.338 3 3 3h10c1.662 0 3-1.338 3-3v-38c0-1.662-1.338-3-3-3z" fill="url(#linearGradient3994-6)" fill-rule="evenodd"/>
<path d="m31 25c-1.662 0-3 1.338-3 3v15.906c4.9587-0.19808 10.292-0.07819 16 0.40625v-16.312c0-1.662-1.338-3-3-3zm24 0c-1.662 0-3 1.338-3 3v17.188c5.0529 0.7004 10.388 1.723 16 3.0312v-20.219c0-1.662-1.338-3-3-3z" fill="url(#linearGradient4679)" fill-rule="evenodd"/>
<path d="m9.6041 5.715c-3.1166 0-5.668 2.5395-5.668 5.646v69.278c0 3.1065 2.5513 5.646 5.668 5.646h76.792c3.1166 0 5.668-2.5395 5.668-5.646v-69.278c0-3.1065-2.5514-5.646-5.668-5.646zm0 2.3194h76.792c1.8881 0 3.352 1.4801 3.352 3.3266v69.278c0 1.8465-1.4639 3.3266-3.352 3.3266h-76.792c-1.8881 0-3.352-1.4801-3.352-3.3266v-69.278c0-1.8465 1.4639-3.3266 3.352-3.3266z" color="#000000" fill="#232a34" style="text-decoration-line:none;text-indent:0;text-transform:none"/>
<rect transform="matrix(.91622 0 0 .94165 4.5692 36.262)" x="2" y="-30" width="92" height="92" rx="3.957" ry="3.957" clip-path="url(#clipPath4156-4-6)" fill="url(#linearGradient4967)"/>
<rect x="4.211" y="78.898" width="84.25" height="4.25" rx="0" ry="4.25" fill="url(#radialGradient4992)" opacity=".75494"/>
<rect transform="rotate(90)" x="3.3977" y="-89.552" width="76.75" height="4.25" rx="0" ry="4.25" fill="url(#radialGradient40904)" opacity=".70751"/>
</svg>
