<?xml version="1.0" encoding="UTF-8"?>
<!-- Created with Inkscape (http://www.inkscape.org/) -->
<svg version="1.1" viewBox="0 0 96 96" xmlns="http://www.w3.org/2000/svg" xmlns:cc="http://creativecommons.org/ns#" xmlns:dc="http://purl.org/dc/elements/1.1/" xmlns:rdf="http://www.w3.org/1999/02/22-rdf-syntax-ns#" xmlns:xlink="http://www.w3.org/1999/xlink">
<defs>
<linearGradient id="linearGradient3120" x1="-94" x2="-10.188" y1="82.984" y2="82.984" gradientTransform="matrix(1.1354 0 0 1.0079 73.5 -36.082)" gradientUnits="userSpaceOnUse" xlink:href="#linearGradient3832-0-6-1-1"/>
<linearGradient id="linearGradient3832-0-6-1-1">
<stop offset="0"/>
<stop stop-opacity=".58824" offset=".1"/>
<stop stop-opacity=".58824" offset=".9"/>
<stop offset="1"/>
</linearGradient>
<linearGradient id="linearGradient5021-8" x1="6" x2="90" y1="47" y2="47" gradientTransform="matrix(1.1354 0 0 1.1337 -40.037 -46.788)" gradientUnits="userSpaceOnUse" xlink:href="#linearGradient6139-0-7"/>
<linearGradient id="linearGradient6139-0-7">
<stop stop-color="#adbac1" offset="0"/>
<stop stop-color="#fff" offset=".25"/>
<stop stop-color="#adbac1" offset=".5"/>
<stop stop-color="#fff" offset=".75"/>
<stop stop-color="#adbac1" offset="1"/>
</linearGradient>
<radialGradient id="radialGradient3118" cx="48" cy="-27" r="42" gradientTransform="matrix(-1.2173 0 0 -.99198 72.892 -67.903)" gradientUnits="userSpaceOnUse">
<stop stop-color="#fff" offset="0"/>
<stop stop-color="#fff" offset=".8"/>
<stop stop-color="#fff" stop-opacity="0" offset="1"/>
</radialGradient>
<linearGradient id="linearGradient5698-0" x1="6" x2="90" y1="47" y2="47" gradientTransform="matrix(1.1354 0 0 1.1337 -40.037 -46.788)" gradientUnits="userSpaceOnUse">
<stop stop-color="#fff" stop-opacity=".40969" offset="0"/>
<stop stop-color="#fff" stop-opacity=".85135" offset=".036815"/>
<stop stop-color="#fff" stop-opacity="0" offset=".065061"/>
<stop stop-color="#fff" stop-opacity="0" offset=".94494"/>
<stop stop-color="#fff" stop-opacity=".85135" offset=".96582"/>
<stop stop-color="#fff" stop-opacity=".56388" offset="1"/>
</linearGradient>
<linearGradient id="linearGradient1210" x1="4.1613" x2="24.761" y1="42.204" y2="42.204" gradientTransform="matrix(.90319 0 0 .86167 1.3999 5.0376)" gradientUnits="userSpaceOnUse">
<stop stop-color="#fff" stop-opacity=".016779" offset="0"/>
<stop stop-color="#fff" offset=".17869"/>
<stop stop-color="#fff" offset=".8"/>
<stop stop-color="#fff" stop-opacity=".02349" offset="1"/>
</linearGradient>
<linearGradient id="linearGradient4740" x1="-18.107" x2="39.042" y1="-33.165" y2="31.472" gradientTransform="matrix(.95684 0 0 .47988 .99355 -16.281)" gradientUnits="userSpaceOnUse">
<stop stop-color="#d0effa" offset="0"/>
<stop stop-color="#bfdbd7" offset=".45616"/>
<stop stop-color="#9ea2a5" stop-opacity=".99216" offset=".53912"/>
<stop stop-color="#d0e6ee" offset=".66273"/>
<stop stop-color="#def1f3" offset="1"/>
</linearGradient>
<linearGradient id="linearGradient3198" x1="-18.107" x2="39.042" y1="-33.165" y2="31.472" gradientTransform="matrix(.95345 0 0 .547 .76809 13.946)" gradientUnits="userSpaceOnUse" xlink:href="#linearGradient3832-0-6-1-1"/>
</defs>
<metadata>
<rdf:RDF>
<cc:Work rdf:about="">
<dc:format>image/svg+xml</dc:format>
<dc:type rdf:resource="http://purl.org/dc/dcmitype/StillImage"/>
<dc:date>2017</dc:date>
<dc:creator>
<cc:Agent>
<dc:title>Cristian Pozzessere "ilnanny"</dc:title>
</cc:Agent>
</dc:creator>
<dc:subject>
<rdf:Bag>
<rdf:li>Global language</rdf:li>
</rdf:Bag>
</dc:subject>
<dc:description>Playing with Inkscape on Gnu/Linux O. S.</dc:description>
<dc:contributor>
<cc:Agent>
<dc:title>In the night, alone like a dog.</dc:title>
</cc:Agent>
</dc:contributor>
<cc:license rdf:resource="http://creativecommons.org/licenses/by-sa/4.0/"/>
</cc:Work>
<cc:License rdf:about="http://creativecommons.org/licenses/by-sa/4.0/">
<cc:permits rdf:resource="http://creativecommons.org/ns#Reproduction"/>
<cc:permits rdf:resource="http://creativecommons.org/ns#Distribution"/>
<cc:requires rdf:resource="http://creativecommons.org/ns#Notice"/>
<cc:requires rdf:resource="http://creativecommons.org/ns#Attribution"/>
<cc:permits rdf:resource="http://creativecommons.org/ns#DerivativeWorks"/>
<cc:requires rdf:resource="http://creativecommons.org/ns#ShareAlike"/>
</cc:License>
</rdf:RDF>
</metadata>
<g transform="translate(0 -1026.5)">
<g transform="matrix(1.0034 0 0 1.005 33.489 1068)">
<path d="m55.334-41.119h-81.747c-3.774 0-6.8123 3.0337-6.8123 6.802v81.624c0 3.7682 3.0383 6.802 6.8123 6.802h81.747c3.774 0 6.8123-3.0338 6.8123-6.802v-81.624c0-3.7683-3.0383-6.802-6.8123-6.802z" fill="url(#linearGradient5021-8)"/>
<path d="m55.334-41.119h-81.747c-3.774 0-6.8123 3.0337-6.8123 6.802v81.624c0 3.7682 3.0383 6.802 6.8123 6.802h81.747c3.774 0 6.8123-3.0338 6.8123-6.802v-81.624c0-3.7683-3.0383-6.802-6.8123-6.802z" fill="url(#linearGradient5021-8)"/>
<path d="m55.334-40.506h-81.747c-3.774 0-6.8123 3.0337-6.8123 6.802v81.624c0 3.7682 3.0383 6.802 6.8123 6.802h81.747c3.774 0 6.8123-3.0338 6.8123-6.802v-81.624c0-3.7683-3.0383-6.802-6.8123-6.802z" fill="#132639" opacity=".25"/>
<path d="m-18.426-5.3308h65.964c2.1497 0 3.8803 0.98958 3.8803 2.2188v34.391c0 1.2292-1.7306 2.2188-3.8803 2.2188h-65.964c-2.1497 0-3.8803-0.98958-3.8803-2.2188v-34.391c0-1.2292 1.7306-2.2188 3.8803-2.2188z" color="#000000" fill="url(#linearGradient3198)"/>
<path d="m-18.269-33.193h66.199c2.1573 0 3.8941 0.86816 3.8941 1.9466v30.172c-73.994 0.53634-0.0015 0.29956-73.987 0v-30.172c0-1.0784 1.7368-1.9466 3.8941-1.9466z" color="#000000" fill="url(#linearGradient4740)"/>
<path d="m-26.413-41.119c-3.774 0-6.8123 3.0337-6.8123 6.802v17.005h1.1354v-17.005c0-3.1599 2.5122-5.6683 5.6769-5.6683h81.747c3.1646 0 5.6769 2.5085 5.6769 5.6683v17.005h1.1354v-17.005c0-3.7683-3.0383-6.802-6.8123-6.802z" fill="url(#radialGradient3118)" opacity=".45"/>
<path d="m-33.225 41.006v7.0553c0 3.3502 3.0383 6.0474 6.8123 6.0474h81.747c3.774 0 6.8123-2.6971 6.8123-6.0474v-7.0553c0 3.3502-3.0383 6.0474-6.8123 6.0474h-81.747c-3.774 0-6.8123-2.6971-6.8123-6.0474z" fill="url(#linearGradient3120)" opacity=".589"/>
<rect x="5.2093" y="38.571" width="18.503" height="5.6655" rx="3.8083" ry="4.5702" fill="url(#linearGradient1210)" fill-rule="evenodd" stroke="#3f3f3f" stroke-linecap="square" stroke-linejoin="round" stroke-width="1.0656" style="paint-order:fill markers stroke"/>
<path d="m-20.132-35.24c-2.2546 0-4.0686 1.8087-4.0686 4.0559v62.873c0 2.2472 1.814 4.0559 4.0686 4.0559h69.186c2.2546 0 4.0686-1.8087 4.0686-4.0559v-62.873c0-2.2472-1.814-4.0559-4.0686-4.0559zm2.0243 2.0754h65.138c2.1227 0 3.8314 1.7038 3.8314 3.8196v59.195c0 2.1158-1.7087 3.8195-3.8314 3.8195h-65.138c-2.1227 0-3.8314-1.7037-3.8314-3.8195v-59.195c0-2.1158 1.7087-3.8196 3.8314-3.8196z" color="#000000" fill="#0d1625" fill-opacity=".59809"/>
<path d="m55.334-41.119h-81.747c-3.774 0-6.8122 3.0337-6.8122 6.802v81.624c0 3.7682 3.0382 6.802 6.8122 6.802h81.747c3.774 0 6.8122-3.0338 6.8122-6.802v-81.624c0-3.7683-3.0383-6.802-6.8122-6.802z" fill="url(#linearGradient5698-0)"/>
<path d="m-5.7609 5.4956h-5.806c-0.80159 0-1.4516 0.66615-1.4516 1.4876v5.9502c0 0.82143 0.64998 1.4876 1.4516 1.4876h5.806c0.80159 0 1.4516-0.66615 1.4516-1.4876v-5.9502c0-0.82143-0.64982-1.4876-1.4516-1.4876z" fill="#e1e7e9" stroke="#fdfdfd" stroke-width=".2968"/>
<path d="m11.401-3.8887h8.8177c1.2174 0 2.2045-0.801 2.2045-1.789v-7.1556c0-0.9879-0.98715-1.789-2.2045-1.789h-8.8177c-1.2174 0-2.2045 0.80108-2.2045 1.789v7.1556c0 0.98798 0.98715 1.789 2.2045 1.789z" fill="#ffdc69" stroke="#fdfdfd" stroke-width=".40046"/>
<path d="m32.322-3.8887h8.8177c1.2174 0 2.2046-0.801 2.2046-1.789v-7.1556c0-0.9879-0.98715-1.789-2.2046-1.789h-8.8177c-1.2174 0-2.2045 0.80108-2.2045 1.789v7.1556c0 0.98798 0.9869 1.789 2.2045 1.789zm0-5.3668c0-0.9879 0.98715-1.789 2.2045-1.789h4.4088c1.2174 0 2.2045 0.80108 2.2045 1.789 0 0.98798-0.98715 1.7891-2.2045 1.7891h-4.4088c-1.2176 0-2.2045-0.80108-2.2045-1.7891z" fill="#4abf40" stroke="#fdfdfd" stroke-width=".40046"/>
<path d="m-9.5199-3.8887h8.8177c1.2174 0 2.2045-0.801 2.2045-1.789v-7.1556c0-0.9879-0.98716-1.789-2.2045-1.789h-8.8177c-1.2174 0-2.2045 0.80108-2.2045 1.789v7.1556c2.48e-4 0.98798 0.98715 1.789 2.2045 1.789zm0-5.3668c0-0.9879 0.98715-1.789 2.2045-1.789h4.4088c1.2174 0 2.2045 0.80108 2.2045 1.789 0 0.98798-0.98715 1.7891-2.2045 1.7891h-4.4088c-1.2174 0-2.2045-0.80108-2.2045-1.7891z" fill="#468cbe" stroke="#fdfdfd" stroke-width=".40046"/>
<path d="m11.401-18.2h8.8177c1.2174 0 2.2045-0.80116 2.2045-1.7891v-7.1556c0-0.9879-0.98715-1.789-2.2045-1.789h-8.8177c-1.2174 0-2.2045 0.80108-2.2045 1.789v7.1556c0 0.98814 0.98715 1.7891 2.2045 1.7891zm0-5.3669c0-0.9879 0.98715-1.789 2.2046-1.789h4.4088c1.2174 0 2.2045 0.80108 2.2045 1.789 0 0.9879-0.98715 1.7891-2.2045 1.7891h-4.4088c-1.2176 0-2.2046-0.80093-2.2046-1.7891z" fill="#cdb0c9" stroke="#fdfdfd" stroke-width=".40046"/>
<path d="m32.322-18.2h8.8177c1.2174 0 2.2046-0.80116 2.2046-1.7891v-7.1556c0-0.9879-0.98715-1.789-2.2046-1.789h-8.8177c-1.2174 0-2.2045 0.80108-2.2045 1.789v7.1556c0 0.98814 0.9869 1.7891 2.2045 1.7891z" fill="#0ff" stroke="#fdfdfd" stroke-width=".40046"/>
<path d="m-9.5199-18.2h8.8177c1.2174 0 2.2045-0.80116 2.2045-1.7891v-7.1556c0-0.9879-0.98716-1.789-2.2045-1.789h-8.8177c-1.2174 0-2.2045 0.80108-2.2045 1.789v7.1556c2.48e-4 0.98814 0.98715 1.7891 2.2045 1.7891zm4.4088-8.9447c2.435 0 4.4088 1.6018 4.4088 3.5778 0 1.9759-1.9738 3.5778-4.4088 3.5778-2.435 0-4.4088-1.6019-4.4088-3.5778 0-1.976 1.9738-3.5778 4.4088-3.5778z" fill="#d7788b" stroke="#fdfdfd" stroke-width=".40046"/>
<ellipse cx="-5.111" cy="-23.567" rx="4.4088" ry="3.5778" fill="#ffdc69" stroke="#fdfdfd" stroke-width=".40046"/>
<path d="m13.605-21.778h4.4088c1.2174 0 2.2045-0.80116 2.2045-1.7891 0-0.9879-0.98715-1.789-2.2045-1.789h-4.4088c-1.2174 0-2.2045 0.80108-2.2045 1.789 2.46e-4 0.98814 0.98715 1.7891 2.2045 1.7891z" fill="#468cbe" stroke="#fdfdfd" stroke-width=".40046"/>
<path d="m34.527-7.4665h4.4088c1.2174 0 2.2045-0.80108 2.2045-1.7891 0-0.9879-0.98715-1.789-2.2045-1.789h-4.4088c-1.2174 0-2.2045 0.80108-2.2045 1.789 2.51e-4 0.98798 0.98715 1.7891 2.2045 1.7891z" fill="#ff6469" stroke="#fdfdfd" stroke-width=".40046"/>
<path d="m-7.3153-7.4665h4.4088c1.2174 0 2.2045-0.80108 2.2045-1.7891 0-0.9879-0.98715-1.789-2.2045-1.789h-4.4088c-1.2174 0-2.2045 0.80108-2.2045 1.789 0 0.98798 0.98715 1.7891 2.2045 1.7891z" fill="#fff" stroke="#fdfdfd" stroke-width=".40046"/>
<path transform="matrix(.82135 0 0 .78101 -22.276 -838.3)" d="m77.228 1042.2-2.7923 2.4503 0.43551 3.6894-3.1933-1.8984-3.3742 1.5542 0.81877-3.6236-2.5209-2.7288 3.6993-0.3411 1.8162-3.2407 1.4675 3.4128z" fill="#fff" stroke="#fdfdfd" stroke-width=".5"/>
<path d="m-5.7609 18.968h-5.806c-0.80159 0-1.4516 0.66615-1.4516 1.4876v5.9502c0 0.82143 0.64998 1.4876 1.4516 1.4876h5.806c0.80159 0 1.4516-0.66615 1.4516-1.4876v-5.9502c0-0.82143-0.64982-1.4876-1.4516-1.4876z" fill="#e1e7e9" stroke="#fdfdfd" stroke-width=".2968"/>
<path d="m8.2451 5.4956h-5.806c-0.80159 0-1.4516 0.66615-1.4516 1.4876v5.9502c0 0.82143 0.64999 1.4876 1.4516 1.4876h5.806c0.80159 0 1.4516-0.66615 1.4516-1.4876v-5.9502c0-0.82143-0.64982-1.4876-1.4516-1.4876z" fill="#e1e7e9" stroke="#fdfdfd" stroke-width=".2968"/>
<path d="m8.2451 18.968h-5.806c-0.80159 0-1.4516 0.66615-1.4516 1.4876v5.9502c0 0.82143 0.64999 1.4876 1.4516 1.4876h5.806c0.80159 0 1.4516-0.66615 1.4516-1.4876v-5.9502c0-0.82143-0.64982-1.4876-1.4516-1.4876z" fill="#e1e7e9" stroke="#fdfdfd" stroke-width=".2968"/>
<path d="m24.043 5.4956h-5.806c-0.80159 0-1.4516 0.66615-1.4516 1.4876v5.9502c0 0.82143 0.64999 1.4876 1.4516 1.4876h5.806c0.80159 0 1.4516-0.66615 1.4516-1.4876v-5.9502c0-0.82143-0.64982-1.4876-1.4516-1.4876z" fill="#e1e7e9" stroke="#fdfdfd" stroke-width=".2968"/>
<path d="m24.043 18.968h-5.806c-0.80159 0-1.4516 0.66615-1.4516 1.4876v5.9502c0 0.82143 0.64999 1.4876 1.4516 1.4876h5.806c0.80159 0 1.4516-0.66615 1.4516-1.4876v-5.9502c0-0.82143-0.64982-1.4876-1.4516-1.4876z" fill="#e1e7e9" stroke="#fdfdfd" stroke-width=".2968"/>
<path d="m39.311 5.4956h-5.806c-0.80159 0-1.4516 0.66615-1.4516 1.4876v5.9502c0 0.82143 0.64999 1.4876 1.4516 1.4876h5.806c0.80159 0 1.4516-0.66615 1.4516-1.4876v-5.9502c0-0.82143-0.64982-1.4876-1.4516-1.4876z" fill="#e1e7e9" stroke="#fdfdfd" stroke-width=".2968"/>
<path d="m39.311 18.968h-5.806c-0.80159 0-1.4516 0.66615-1.4516 1.4876v5.9502c0 0.82143 0.64999 1.4876 1.4516 1.4876h5.806c0.80159 0 1.4516-0.66615 1.4516-1.4876v-5.9502c0-0.82143-0.64982-1.4876-1.4516-1.4876z" fill="#e1e7e9" stroke="#fdfdfd" stroke-width=".2968"/>
</g>
</g>
</svg>
