<?xml version="1.0" encoding="UTF-8"?>
<!-- Created with Inkscape (http://www.inkscape.org/) -->
<svg version="1.1" viewBox="0 0 96 96" xmlns="http://www.w3.org/2000/svg" xmlns:cc="http://creativecommons.org/ns#" xmlns:dc="http://purl.org/dc/elements/1.1/" xmlns:rdf="http://www.w3.org/1999/02/22-rdf-syntax-ns#" xmlns:xlink="http://www.w3.org/1999/xlink">
<defs>
<linearGradient id="linearGradient4133-5">
<stop stop-color="#fff" offset="0"/>
<stop stop-color="#fff" stop-opacity="0" offset="1"/>
</linearGradient>
<linearGradient id="linearGradient4967" x1="2.7714" x2="50.528" y1="-28.642" y2="14.514" gradientUnits="userSpaceOnUse">
<stop stop-color="#fff" offset="0"/>
<stop stop-color="#fff" stop-opacity="0" offset="1"/>
</linearGradient>
<linearGradient id="linearGradient11016" x1="75.918" x2="75.918" y1="63.139" y2="76.55" gradientTransform="matrix(.93462 0 0 .72766 54.559 -30.591)" gradientUnits="userSpaceOnUse" xlink:href="#linearGradient4133-5"/>
<linearGradient id="linearGradient11018" x1="29.3" x2="29.3" y1="52.948" y2="73.401" gradientTransform="matrix(-.81055 0 0 .72766 145.41 -.75669)" gradientUnits="userSpaceOnUse" xlink:href="#linearGradient4133-5"/>
<linearGradient id="linearGradient11020" x1="38.535" x2="38.535" y1="8.6325" y2="44.721" gradientTransform="matrix(.93462 0 0 .72766 58.319 7.2308)" gradientUnits="userSpaceOnUse" xlink:href="#linearGradient4133-5"/>
<linearGradient id="linearGradient11022" x1="46.77" x2="46.77" y1="78.496" y2="91.666" gradientTransform="matrix(.93462 0 0 .72766 77.924 -12.399)" gradientUnits="userSpaceOnUse" xlink:href="#linearGradient4133-5"/>
<linearGradient id="linearGradient11024" x1="35.838" x2="35.838" y1="56.924" y2="86.111" gradientTransform="matrix(.80605 0 0 .72766 55.547 3.6093)" gradientUnits="userSpaceOnUse" xlink:href="#linearGradient4133-5"/>
<linearGradient id="linearGradient11026" x1="45.967" x2="45.967" y1="18.874" y2="48.086" gradientTransform="matrix(.93462 0 0 .72766 44.538 9.6002)" gradientUnits="userSpaceOnUse" xlink:href="#linearGradient4133-5"/>
<linearGradient id="linearGradient11030" x1="39.819" x2="45.634" y1="13.056" y2="33.077" gradientTransform="matrix(-.6428 .20294 .18668 .69879 136.46 40.207)" gradientUnits="userSpaceOnUse" xlink:href="#linearGradient4133-5"/>
<linearGradient id="linearGradient11032" x1="75.918" x2="75.918" y1="63.139" y2="76.55" gradientTransform="matrix(.93462 0 0 .72766 7.8282 -8.761)" gradientUnits="userSpaceOnUse" xlink:href="#linearGradient4133-5"/>
<linearGradient id="linearGradient11034" x1="76.758" x2="76.758" y1="27.41" y2="39.188" gradientTransform="matrix(.92275 0 0 .72766 33.943 19.854)" gradientUnits="userSpaceOnUse" xlink:href="#linearGradient4133-5"/>
<linearGradient id="linearGradient11038" x1="46.77" x2="46.77" y1="78.496" y2="91.666" gradientTransform="matrix(.93462 0 0 .72766 88.585 -32.228)" gradientUnits="userSpaceOnUse" xlink:href="#linearGradient4133-5"/>
<linearGradient id="linearGradient11042" x1="29.3" x2="29.3" y1="52.948" y2="73.401" gradientTransform="matrix(.63223 0 0 .49224 58.853 26.127)" gradientUnits="userSpaceOnUse" xlink:href="#linearGradient4133-5"/>
<linearGradient id="linearGradient11044" x1="46.77" x2="46.77" y1="78.496" y2="91.666" gradientTransform="matrix(.93462 0 0 .72766 70.448 -38.595)" gradientUnits="userSpaceOnUse" xlink:href="#linearGradient4133-5"/>
<linearGradient id="linearGradient4071" x1="6" x2="90" y1="47" y2="47" gradientTransform="matrix(1.1071 0 0 1.1071 48.778 4.3428)" gradientUnits="userSpaceOnUse">
<stop stop-color="#b2babc" offset="0"/>
<stop stop-color="#fff" offset=".25"/>
<stop stop-color="#96a1a4" offset=".5"/>
<stop stop-color="#fbf9f9" offset=".75"/>
<stop stop-color="#b2b9bc" offset="1"/>
</linearGradient>
<linearGradient id="linearGradient4129" x1="1.5" x2="94.5" y1="88.172" y2="88.172" gradientTransform="translate(53.921 8.3785)" gradientUnits="userSpaceOnUse">
<stop offset="0"/>
<stop stop-opacity=".58824" offset=".1"/>
<stop stop-opacity=".58824" offset=".9"/>
<stop offset="1"/>
</linearGradient>
<radialGradient id="radialGradient7462" cx="13.948" cy="44.893" r="43.199" gradientTransform="matrix(.97513 0 0 .049191 87.819 88.545)" gradientUnits="userSpaceOnUse" xlink:href="#linearGradient4133-5"/>
<radialGradient id="radialGradient7464" cx="13.948" cy="44.893" r="43.199" gradientTransform="matrix(.88833 0 0 .049191 39.923 -144.09)" gradientUnits="userSpaceOnUse" xlink:href="#linearGradient4133-5"/>
<clipPath id="clipPath4156-4-1">
<path d="m27.046-55.695-14.214 13.321h0.06127l15.653 21.771 10.231-10.546c-0.2169-1.1522-11.311-23.67-11.732-24.546zm-17.399 16.313-14.888 14.062 21.229 17.515 10.385-10.577zm31.491 12.951-9.7413 9.7136 8.9448 12.458 7.7808-7.555zm-49.84 4.3788-13.754 12.982 26.283 13.846 0.06127-0.0617-0.12253-0.0617 9.8332-10.053-22.301-16.652zm38.015 7.4008-9.8025 9.7753 11.579 9.5594 7.6276-7.4008-8.6691-11.009zm20.187 5.674-7.3825 7.2158 6.1878 8.5418 5.8202-6.1365zm-32.195 6.3215-9.5575 9.4977 13.662 7.185 7.9339-7.6784zm23.312 2.3744-7.1068 6.9383 8.3628 6.9074 5.3608-5.674-0.06127-0.0925-0.0919 0.12335-6.4635-8.2026zm-8.7304 8.5418-7.5051 7.3392 10.354 5.4581c1.3975-1.321 5.6751-6.1229 5.8509-6.3215z" fill="#fff" opacity=".6"/>
</clipPath>
<filter id="filter1571" x="-.020417" y="-.057294" width="1.0408" height="1.1146" color-interpolation-filters="sRGB">
<feGaussianBlur stdDeviation="0.87166956"/>
</filter>
</defs>
<metadata>
<rdf:RDF>
<cc:Work rdf:about="">
<dc:format>image/svg+xml</dc:format>
<dc:type rdf:resource="http://purl.org/dc/dcmitype/StillImage"/>
<dc:title/>
</cc:Work>
</rdf:RDF>
</metadata>
<g transform="translate(-49.429 6)">
<g transform="translate(-4.4922 -14.379)">
<path d="m143.06 8.3785h-82.286c-3.7988 0-6.8571 3.0583-6.8571 6.8571v82.286c0 3.7989 3.0583 6.8571 6.8571 6.8571h82.286c3.7989 0 6.8572-3.0583 6.8572-6.8571v-82.286c0-3.7989-3.0583-6.8571-6.8572-6.8571z" opacity=".15"/>
<path d="m142.42 9.1285h-81c-3.7395 0-6.75 3.0105-6.75 6.75v81c0 3.7395 3.0105 6.75 6.75 6.75h81c3.7395 0 6.75-3.0105 6.75-6.75v-81c0-3.7395-3.0105-6.75-6.75-6.75z" opacity=".15"/>
<path d="m141.78 9.8785h-79.714c-3.6801 0-6.6429 2.9627-6.6429 6.6429v79.714c0 3.6801 2.9627 6.6429 6.6429 6.6429h79.714c3.6801 0 6.6428-2.9627 6.6428-6.6429v-79.714c0-3.6801-2.9627-6.6429-6.6428-6.6429z" fill="url(#linearGradient4071)"/>
<path d="m65.158 14.766c-2.8542 0-5.12 2.3558-5.12 5.3233v70.6c1.0964 1.7341 2.9665 2.8945 5.12 2.8945h73.728c2.1536 0 4.0236-1.1604 5.12-2.8945v-70.6c0-2.9675-2.2658-5.3233-5.12-5.3233z" fill="#39617e" opacity=".77865"/>
<path d="m127.4 15.002c-3.2716 0-6.0414 1.5908-7.1264 3.843-2.7316 0.0379-4.9359 1.7754-4.9359 3.9112 0 2.1595 2.2499 3.9112 5.0236 3.9112 1.0985 0 2.094-0.28459 2.9207-0.7504 1.1904 0.59749 2.5966 0.95506 4.1182 0.95506 0.38522 0 0.76918-0.02533 1.1391-0.06822 0.43066 0.40629 1.0814 0.68218 1.8108 0.68218 1.0374 0 1.9091-0.5242 2.2197-1.2507 0.53553 0.12523 1.106 0.20466 1.694 0.20466 3.242 0 5.8706-2.0465 5.8706-4.5706 0-2.1139-1.8483-3.8892-4.3518-4.4114 0.0231-0.1115 0.0584-0.22451 0.0584-0.34109 0-1.1779-1.2325-2.1148-2.7454-2.1148-0.80956 0-1.543 0.27023-2.0445 0.70492-1.0813-0.45732-2.3338-0.70492-3.6508-0.70492z" color="#000000" fill="url(#linearGradient11016)" opacity=".692"/>
<path transform="matrix(.73834 0 -.3668 .94397 133.68 -5.8674)" d="m38.055 70.287a2.057 9.2567 0 0 1-2.057 9.2567 2.057 9.2567 0 0 1-2.057-9.2567 2.057 9.2567 0 0 1 2.057-9.2567 2.057 9.2567 0 0 1 2.057 9.2567zm-12.976 0a2.057 9.2567 0 0 1-2.057 9.2567 2.057 9.2567 0 0 1-2.057-9.2567 2.057 9.2567 0 0 1 2.057-9.2567 2.057 9.2567 0 0 1 2.057 9.2567zm-12.976 0a2.057 9.2567 0 0 1-2.057 9.2567 2.057 9.2567 0 0 1-2.057-9.2567 2.057 9.2567 0 0 1 2.057-9.2567 2.057 9.2567 0 0 1 2.057 9.2567zm0 0a2.057 9.2567 0 0 1-2.057 9.2567 2.057 9.2567 0 0 1-2.057-9.2567 2.057 9.2567 0 0 1 2.057-9.2567 2.057 9.2567 0 0 1 2.057 9.2567zm-12.976 0a2.057 9.2567 0 0 1-2.057 9.2567 2.057 9.2567 0 0 1-2.057-9.2567 2.057 9.2567 0 0 1 2.057-9.2567 2.057 9.2567 0 0 1 2.057 9.2567zm-18.166 0a2.057 9.2567 0 0 1-2.057 9.2567 2.057 9.2567 0 0 1-2.057-9.2567 2.057 9.2567 0 0 1 2.057-9.2567 2.057 9.2567 0 0 1 2.057 9.2567zm-15.571 0a2.057 9.2567 0 0 1-2.057 9.2567 2.057 9.2567 0 0 1-2.057-9.2567 2.057 9.2567 0 0 1 2.057-9.2567 2.057 9.2567 0 0 1 2.057 9.2567zm-5.1904 18a2.057 9.2567 0 0 1-2.057 9.2567 2.057 9.2567 0 0 1-2.057-9.2567 2.057 9.2567 0 0 1 2.057-9.2567 2.057 9.2567 0 0 1 2.057 9.2567zm7.7855 0a2.057 9.2567 0 0 1-2.057 9.2567 2.057 9.2567 0 0 1-2.057-9.2567 2.057 9.2567 0 0 1 2.057-9.2567 2.057 9.2567 0 0 1 2.057 9.2567zm75.26 0a2.057 9.2567 0 0 1-2.057 9.2567 2.057 9.2567 0 0 1-2.057-9.2567 2.057 9.2567 0 0 1 2.057-9.2567 2.057 9.2567 0 0 1 2.057 9.2567zm-7.7855 0a2.057 9.2567 0 0 1-2.057 9.2567 2.057 9.2567 0 0 1-2.057-9.2567 2.057 9.2567 0 0 1 2.057-9.2567 2.057 9.2567 0 0 1 2.057 9.2567zm-23.357 0a2.057 9.2567 0 0 1-2.057 9.2567 2.057 9.2567 0 0 1-2.057-9.2567 2.057 9.2567 0 0 1 2.057-9.2567 2.057 9.2567 0 0 1 2.057 9.2567zm-20.761 0a2.057 9.2567 0 0 1-2.057 9.2567 2.057 9.2567 0 0 1-2.057-9.2567 2.057 9.2567 0 0 1 2.057-9.2567 2.057 9.2567 0 0 1 2.057 9.2567z" fill="#fff" fill-opacity=".88517" filter="url(#filter1571)"/>
<path d="m123.17 33.557c1.7807 0 3.2422 1.2893 3.2422 2.8879 0 0.54414-0.19039 1.0432-0.48126 1.4781 0.32135 0.33652 0.64113 0.67345 0.91186 1.046 0.55242-0.09883 1.136-0.13644 1.7224-0.13644 1.8986 0 3.6362 0.53793 5.0406 1.4553 0.95211-1.7732 2.8602-2.9789 5.0659-2.9789 3.1553 0 5.7245 2.4687 5.7245 5.5257 0 1.3911-0.54388 2.6659-1.4185 3.6383 1.1581 1.2009 1.8744 2.765 1.8744 4.4569 0 3.8142-3.5546 6.89-7.9282 6.89-1.5234 0-2.9464-0.37317-4.154-1.0233-0.93948 0.95668-2.1639 1.7109-3.5462 2.1148-2.0904 1.9604-5.0465 3.1835-8.3081 3.1835-3.4826 0-6.6076-1.3949-8.7134-3.5928-1.5441-0.26641-2.9404-0.92522-4.0781-1.8192-0.12609 0.0082-0.25152 0.02274-0.37994 0.02274-1.7102 0-3.2308-0.744-4.1794-1.8874-0.28093 0.03178-0.56992 0.06822-0.8612 0.06822-3.5301 0-6.3831-2.4164-6.3831-5.3892 0-2.9728 2.8529-5.3892 6.3831-5.3892 0.0682 0 0.13501 0.02096 0.20264 0.02274 0.11203-1.6526 1.6895-2.9561 3.6475-2.9561 0.0442 0 0.0828 0.02141 0.12665 0.02274 1.5331-3.9775 5.7118-6.8218 10.664-6.8218 1.1075 0 2.18 0.14299 3.1915 0.40931 0.58312-0.74657 1.5415-1.2279 2.6343-1.2279z" color="#000000" fill="url(#linearGradient11018)" opacity=".692"/>
<path d="m107.44 13.007c-1.3328 0-2.4242 0.82695-2.4242 1.8646 0 0.68561 0.46379 1.2864 1.1683 1.6145-0.40168 0.45352-0.70278 0.95916-0.9054 1.5008-0.72907-0.19269-1.4832-0.33299-2.2781-0.38657 0.026-0.11194 0.0584-0.22333 0.0584-0.34109 0-1.0657-1.1137-1.9328-2.4826-1.9328-1.0029 0-1.8588 0.46982-2.2489 1.137-0.99216-0.79056-2.3605-1.2936-3.8845-1.3189 0-0.95355-0.99496-1.7282-2.2197-1.7282-1.1532 0-2.0835 0.69275-2.1905 1.569-0.35253-0.09903-0.74268-0.15918-1.1391-0.15918-1.8371 0-3.3296 1.162-3.3296 2.5923 0 0.04685 0.02604 0.09019 0.02921 0.13644-0.56814-0.05705-1.1371-0.09096-1.7232-0.09096-1.5596 0-3.0354 0.20726-4.4394 0.56848-1.0641-0.786-2.5064-1.2734-4.0889-1.2734-3.278 0-5.929 2.064-5.929 4.6161 0 0.38282 0.06253 0.7585 0.17524 1.1142-2.015 0.20526-3.5632 1.5359-3.5632 3.1608 0 0.31902 0.06359 0.61883 0.17524 0.90958-0.20358 0.13836-0.39889 0.27899-0.58414 0.43205-0.81896-0.54568-1.882-0.88684-3.0667-0.88684-2.5576 0-4.6147 1.5493-4.6147 3.4564 0 1.9071 2.0571 3.4564 4.6147 3.4564 0.38422 0 0.75288-0.04793 1.1099-0.1137 0.89792 2.7441 4.0805 4.7753 7.8858 4.7753 1.196 0 2.3355-0.20827 3.3588-0.56848 2.4505 1.5601 5.5541 2.5013 8.9665 2.5013 4.6106 0 8.705-1.7177 11.303-4.366 0.68606 0.31289 1.484 0.50027 2.3365 0.50027 2.2686 0 4.1587-1.2567 4.5563-2.9334 0.0288 1.94e-4 0.0588 0 0.0877 0 3.3771 0 6.3321-1.3393 8.0903-3.3654 1.1846 0.94597 2.8421 1.5235 4.6731 1.5235 3.3059 0 6.0569-1.9058 6.4839-4.3887 0.41673 0.07791 0.83765 0.13644 1.2851 0.13644 3.0619 0 5.5493-1.9366 5.5493-4.3205 0-2.3839-2.4874-4.3205-5.5493-4.3205-0.32006 0-0.6303 0.02762-0.93461 0.06822-0.46023-0.35674-1.0603-0.56848-1.7232-0.56848-0.68549 0-1.316 0.23529-1.7816 0.61396-0.72478-2.2793-3.3614-3.9794-6.5131-3.9794-0.68587 0-1.3336 0.10143-1.9569 0.25013-0.2482-0.8321-1.1922-1.4553-2.3365-1.4553z" color="#000000" fill="url(#linearGradient11020)" opacity=".692"/>
<path d="m119.14 44.722c-1.1767 0-2.1814 0.50342-2.7162 1.2507-1.7927 0.09662-3.3753 0.74576-4.4686 1.7509-0.49914-0.52392-1.2883-0.8641-2.1905-0.8641-1.5129 0-2.7454 0.95959-2.7454 2.1375 0 0.32332 0.0975 0.61226 0.26287 0.88684-1.4846 0.25981-2.5994 1.267-2.5994 2.5013 0 1.4303 1.4632 2.5923 3.3004 2.5923 1.4434 0 2.6648-0.72762 3.1251-1.7282 1.0675 1.6308 3.2416 2.7515 5.7537 2.7515 1.0236 0 2.0023-0.19292 2.8623-0.52301 0.53455 0.38365 1.2601 0.61396 2.0445 0.61396 1.5486 0 2.7897-0.91946 2.9499-2.092 0.28892 0.03445 0.57491 0.06822 0.8762 0.06822 1.4179 0 2.7303-0.4113 3.7385-1.0688 0.66923 0.58946 1.6555 0.95506 2.7454 0.95506 2.0172 0 3.6508-1.2719 3.6508-2.8424 0-1.5706-1.6336-2.8424-3.6508-2.8424-0.29535 0-0.60117 0.03944-0.87621 0.09096-0.66889-1.921-2.9286-3.3427-5.6077-3.3427-1.4026 0-2.6766 0.40128-3.68 1.046-0.51602-0.79423-1.5533-1.3416-2.7746-1.3416z" color="#000000" fill="url(#linearGradient11022)" opacity=".692"/>
<path d="m80.132 42.403c-0.76611 0-1.4738 0.22237-2.0403 0.59122-0.46755-0.06507-0.94806-0.1137-1.4358-0.1137-2.131 0-4.0709 0.6662-5.6424 1.7509-0.18152-0.0259-0.36407-0.04548-0.55416-0.04548-1.864 0-3.3753 1.2893-3.3753 2.8879 0 0.59947 0.21543 1.1525 0.57935 1.6145-0.21602 0.71143-0.32746 1.4551-0.32746 2.2285 0 0.78113 0.10721 1.5334 0.32746 2.2512-0.49969-0.20303-1.0538-0.31835-1.6373-0.31835-2.2058 0-3.9799 1.6016-3.9799 3.5928s1.7741 3.6156 3.9799 3.6156c0.29511 0 0.57955-0.03613 0.85643-0.09096-5.17e-4 0.03005 0 0.0608 0 0.09096 0 3.1411 2.8178 5.6849 6.2973 5.6849 2.2456 0 4.1993-1.0639 5.3149-2.6605 1.6452 1.3396 3.8317 2.1602 6.2217 2.1602 3.2363 0 6.072-1.5077 7.7331-3.7747 1.0432 0.70667 2.3234 1.137 3.728 1.137 2.1965 0 4.1263-1.0444 5.2393-2.5923 0.55872 0.4047 1.243 0.65944 2.0151 0.65944 1.0554 0 1.9981-0.45806 2.5945-1.1597 0.26008 0.14788 0.57672 0.25013 0.9068 0.25013 0.93201 0 1.6877-0.68217 1.6877-1.5235s-0.75567-1.5235-1.6877-1.5235c-0.14562 0-0.2934 0.01417-0.42821 0.04548-0.40894-1.0595-1.4668-1.8384-2.7456-1.9556-0.0695-0.98093-0.96136-1.7509-2.0655-1.7509-0.30726 0-0.59391 0.05128-0.85643 0.15918-1.1433-1.1522-2.8116-1.8874-4.66-1.8874-0.82576 0-1.5959 0.14645-2.3174 0.40931-0.18076-1.727-1.7928-3.0926-3.7532-3.0926-0.22584 0-0.44001 0.03384-0.65492 0.06822 0.02585-0.15838 0.05038-0.31266 0.05038-0.47753 0-1.823-1.6583-3.2972-3.6776-3.2972-0.75726 0-1.4568 0.18984-2.0403 0.54574-0.10048-0.10739-0.19606-0.21566-0.30227-0.31835 0.0098-0.0897 0.02518-0.18098 0.02518-0.27287 0-1.5986-1.5113-2.8879-3.3753-2.8879z" color="#000000" fill="url(#linearGradient11024)" opacity=".692"/>
<path d="m91.093 23.176c-1.6777 0-3.0722 0.97128-3.3004 2.2285-0.92549 0.28947-1.7722 0.66108-2.541 1.137-0.45157-0.37-1.0743-0.61396-1.7816-0.61396-1.3688 0-2.4826 0.86712-2.4826 1.9328 0 0.0078-1.19e-4 0.01495 0 0.02274-0.968 0.04955-1.8946 0.19414-2.7746 0.43205-0.51429-0.46356-1.2836-0.7504-2.1321-0.7504-1.5298 0-2.7733 0.95217-2.8038 2.1375-0.04063-0.0016-0.07568-0.02274-0.11683-0.02274-1.125 0-2.0779 0.63296-2.3073 1.4553-2.2932 0.12082-4.2643 1.1059-5.4032 2.5468-0.46039-0.15161-0.95822-0.2274-1.4895-0.2274-2.1253 0-3.8553 1.3469-3.8553 3.0016s1.73 2.9789 3.8553 2.9789c0.49932 0 0.96415-0.06991 1.4019-0.20466 1.202 1.5887 3.4186 2.6378 5.9582 2.6378 0.82038 0 1.6064-0.11418 2.3365-0.31835 1.9494 1.7539 4.8189 2.8652 8.0319 2.8652 3.3405 0 6.3165-1.1938 8.2655-3.0698 1.1356 1.0066 2.7879 1.66 4.6439 1.66 1.4437 0 2.7727-0.40149 3.8261-1.046 0.98838 0.39961 2.1097 0.6367 3.3004 0.6367 1.4477 0 2.7864-0.33541 3.9137-0.90958 0.46548 0.1871 0.98799 0.29561 1.548 0.29561 1.6293 0 3.0029-0.89936 3.3296-2.092 0.22067 1.1207 1.4487 1.9783 2.9499 1.9783 1.657 0 3.0083-1.0293 3.0083-2.3194 0-1.1752-1.1191-2.1555-2.5702-2.3194 0.0428-0.18822 0.0876-0.39344 0.0876-0.59122 0-1.823-1.8936-3.2972-4.235-3.2972-0.78515 0-1.5307 0.18789-2.1613 0.47753-0.20933-0.23275-0.4204-0.47729-0.67176-0.68218 0.099-0.18226 0.14604-0.38088 0.14604-0.59122 0-0.84137-0.87619-1.5235-1.9568-1.5235-0.0871 0-0.17879 0.01415-0.26287 0.02274-0.0161-1.3074-1.3837-2.3649-3.0667-2.3649-0.44621 0-0.87346 0.07119-1.2559 0.20466-1.332-1.8359-3.5772-3.2125-6.2502-3.7747-0.3751-1.1103-1.6396-1.9328-3.1835-1.9328z" color="#000000" fill="url(#linearGradient11026)" opacity=".692"/>
<path d="m80.67 36.832c-3.2716 0-6.0414 1.5908-7.1264 3.843-2.7316 0.0379-4.9359 1.7754-4.9359 3.9112 0 2.1595 2.2499 3.9112 5.0236 3.9112 1.0985 0 2.094-0.28459 2.9207-0.7504 1.1903 0.5975 2.5966 0.95506 4.1182 0.95506 0.38522 0 0.76918-0.02533 1.1391-0.06822 0.43067 0.40629 1.0814 0.68218 1.8108 0.68218 1.0374 0 1.9091-0.5242 2.2197-1.2507 0.53554 0.12523 1.1061 0.20465 1.694 0.20465 3.242 0 5.8706-2.0465 5.8706-4.5706 0-2.1139-1.8483-3.8892-4.3518-4.4114 0.02311-0.1115 0.05841-0.22451 0.05841-0.34109 0-1.1779-1.2325-2.1148-2.7454-2.1148-0.80956 0-1.543 0.27023-2.0445 0.70492-1.0813-0.45732-2.3338-0.70492-3.6508-0.70492z" color="#000000" fill="url(#linearGradient11032)" opacity=".692"/>
<path d="m98.795 36.909c-2.7926 0.22364-4.9598 2.1048-4.9598 4.366 0 0.36547 0.06577 0.70673 0.17301 1.046-1.2508-0.6034-2.7229-0.95506-4.2965-0.95506-0.64327 0-1.2735 0.07199-1.8743 0.18192-0.43836-0.99145-1.6211-1.7055-3.0278-1.7055-1.7782 0-3.2008 1.1445-3.2008 2.5468 0 0.67167 0.32504 1.2741 0.86508 1.7282-0.18131-0.01629-0.36104 0-0.54788 0-2.6673 0-4.8444 1.6941-4.8444 3.7975 0 2.1034 2.1771 3.8202 4.8444 3.8202 0.37277 0 0.7184-0.05066 1.0669-0.1137 0.93358 1.0384 2.2474 1.8332 3.7775 2.2967-0.0038 0.08399-0.02883 0.1654-0.02883 0.25013 0 3.8142 3.9293 6.89 8.7661 6.89 1.4122 0 2.7404-0.25948 3.9217-0.72766 2.4218 1.2977 5.3578 2.0693 8.5066 2.0693 6.3104 0 11.713-3.0599 13.985-7.3903 4.4155-0.43413 7.8434-3.3814 7.8434-6.981 0-3.8983-3.9956-7.072-8.9391-7.072-1.07 0-2.1055 0.16053-3.0566 0.43205-0.78822-0.53206-1.6511-1.0138-2.5664-1.4098 0.0763-0.16978 0.14417-0.35534 0.14417-0.54574 0-0.89746-0.9381-1.6145-2.0762-1.6145-0.87502 0-1.6331 0.41654-1.932 1.0233-0.9752-0.17666-1.9906-0.29558-3.0278-0.31835-0.28646-0.93547-1.3498-1.6145-2.6241-1.6145-1.0837 0-2.0195 0.50216-2.451 1.2279-0.99545-0.76711-2.3571-1.2279-3.864-1.2279-0.19116 0-0.39054-0.01491-0.57672 0z" color="#000000" fill="url(#linearGradient11034)" opacity=".692"/>
<path d="m129.8 24.893c-1.1767 0-2.1814 0.50342-2.7162 1.2507-1.7928 0.09662-3.3753 0.74576-4.4686 1.7509-0.49913-0.52393-1.2883-0.8641-2.1905-0.8641-1.5129 0-2.7454 0.95959-2.7454 2.1375 0 0.32332 0.0975 0.61226 0.26285 0.88684-1.4846 0.25981-2.5994 1.267-2.5994 2.5013 0 1.4303 1.4632 2.5923 3.3004 2.5923 1.4435 0 2.6648-0.72762 3.1251-1.7282 1.0675 1.6308 3.2416 2.7515 5.7537 2.7515 1.0236 0 2.0023-0.19292 2.8623-0.52301 0.53457 0.38365 1.2601 0.61396 2.0445 0.61396 1.5486 0 2.7897-0.91946 2.9499-2.092 0.28892 0.03445 0.5749 0.06822 0.8762 0.06822 1.4179 0 2.7303-0.4113 3.7385-1.0688 0.66922 0.58946 1.6555 0.95506 2.7454 0.95506 2.0172 0 3.6508-1.2719 3.6508-2.8424 0-1.5706-1.6336-2.8424-3.6508-2.8424-0.29535 0-0.60116 0.03944-0.8762 0.09096-0.66891-1.921-2.9286-3.3427-5.6077-3.3427-1.4026 0-2.6766 0.40128-3.6801 1.046-0.51601-0.79423-1.5533-1.3416-2.7746-1.3416z" color="#000000" fill="url(#linearGradient11038)" opacity=".692"/>
<path d="m76.2 49.339c-1.389 0-2.5289 0.87217-2.5289 1.9536 0 0.36809 0.14851 0.70571 0.37539 0.99985-0.25066 0.22764-0.50008 0.45557-0.71126 0.70759-0.43089-0.06685-0.88606-0.09229-1.3435-0.09229-1.4809 0-2.8362 0.36389-3.9317 0.98447-0.74264-1.1995-2.231-2.0151-3.9515-2.0151-2.4611 0-4.4651 1.67-4.4651 3.7379 0 0.941 0.42423 1.8034 1.1064 2.4612-0.90336 0.81235-1.462 1.8704-1.462 3.0149 0 2.5802 2.7726 4.6608 6.184 4.6608 1.1882 0 2.2982-0.25243 3.2402-0.6922 0.7328 0.64716 1.6878 1.1574 2.766 1.4306 1.6305 1.3261 3.9363 2.1535 6.4804 2.1535 2.7165 0 5.1539-0.94361 6.7965-2.4304 1.2044-0.18022 2.2935-0.62588 3.1809-1.2306 0.09835 0.0055 0.19619 0.01538 0.29636 0.01538 1.3339 0 2.52-0.50328 3.2599-1.2767 0.21914 0.02149 0.44455 0.04615 0.67175 0.04615 2.7535 0 4.9788-1.6346 4.9788-3.6456 0-2.011-2.2253-3.6456-4.9788-3.6456-0.05314 0-0.10531 0.01417-0.15806 0.01538-0.08739-1.1179-1.3178-1.9997-2.845-1.9997-0.03448 0-0.06461 0.01449-0.09879 0.01538-1.1958-2.6906-4.4552-4.6147-8.3178-4.6147-0.86384 0-1.7004 0.09673-2.4894 0.27688-0.45484-0.50503-1.2024-0.83065-2.0548-0.83065z" color="#000000" fill="url(#linearGradient11042)" opacity=".692"/>
<path d="m111.66 18.526c-1.1767 0-2.1814 0.50342-2.7162 1.2507-1.7927 0.09662-3.3753 0.74576-4.4686 1.7509-0.49913-0.52393-1.2883-0.8641-2.1905-0.8641-1.5129 0-2.7454 0.95959-2.7454 2.1375 0 0.32332 0.09748 0.61226 0.26286 0.88684-1.4846 0.25981-2.5994 1.267-2.5994 2.5013 0 1.4303 1.4632 2.5923 3.3004 2.5923 1.4434 0 2.6648-0.72762 3.1251-1.7282 1.0675 1.6308 3.2416 2.7515 5.7537 2.7515 1.0236 0 2.0023-0.19292 2.8623-0.52301 0.53457 0.38365 1.2601 0.61396 2.0445 0.61396 1.5486 0 2.7897-0.91946 2.9499-2.092 0.28892 0.03446 0.57491 0.06822 0.8762 0.06822 1.4179 0 2.7303-0.4113 3.7385-1.0688 0.66924 0.58946 1.6555 0.95506 2.7454 0.95506 2.0172 0 3.6508-1.2719 3.6508-2.8424 0-1.5706-1.6336-2.8424-3.6508-2.8424-0.29535 0-0.60116 0.03944-0.8762 0.09096-0.6689-1.921-2.9286-3.3427-5.6077-3.3427-1.4026 0-2.6766 0.40128-3.68 1.046-0.51602-0.79423-1.5533-1.3416-2.7746-1.3416z" color="#000000" fill="url(#linearGradient11044)" opacity=".692"/>
<path d="m104.16 56.421c0.91668-0.2894 1.8794 0.26777 2.1456 1.2643 0.17589 0.65841 0.011 1.336-0.38931 1.8041 0.39262 0.3483 0.72943 0.76851 1.0077 1.2447 0.45201-0.34336 0.93471-0.64184 1.4677-0.86589-0.0466-0.10186-0.0975-0.20179-0.12768-0.31487-0.27341-1.0234 0.27014-2.098 1.2116-2.3952 0.6898-0.21777 1.399 0.04758 1.8384 0.60355 0.47955-0.97462 1.2916-1.7548 2.3333-2.11-0.24463-0.91572 0.24095-1.8757 1.0833-2.1416 0.79315-0.2504 1.6107 0.21287 1.9091 1.0311 0.21706-0.17165 0.46997-0.31412 0.74259-0.40019 1.2635-0.3989 2.5881 0.39291 2.955 1.7665 0.012 0.045 6e-3 0.09227 0.0149 0.13736 0.37612-0.17815 0.75874-0.33425 1.1618-0.46151 1.0726-0.33863 2.1408-0.46003 3.1992-0.41801 0.53018-0.98586 1.3972-1.7671 2.4856-2.1107 2.2545-0.71176 4.6073 0.6947 5.262 3.1456 0.0982 0.36763 0.15158 0.74199 0.16533 1.1081 1.4385-0.24042 2.8447 0.70132 3.2616 2.2617 0.0819 0.30636 0.11502 0.60809 0.11283 0.91154 0.1755 0.08867 0.34591 0.18131 0.51258 0.28807 0.42327-0.70186 1.0669-1.2603 1.8817-1.5175 1.759-0.55533 3.5713 0.48583 4.0606 2.3173 0.48926 1.8314-0.52811 3.7659-2.2871 4.3212-0.26425 0.08343-0.53011 0.11744-0.79249 0.1318 0.0864 2.8302-1.5814 5.4718-4.1986 6.2981-0.8226 0.2597-1.6597 0.3071-2.4559 0.18337-1.2852 2.0302-3.1783 3.6081-5.5252 4.349-3.171 1.0011-6.4277 0.24057-8.894-1.7385-0.39158 0.44944-0.89233 0.80265-1.4787 0.98776-1.5603 0.49259-3.1826-0.30382-3.8862-1.8277-0.0198 0.0064-0.0404 0.01276-0.0602 0.01902-2.3227 0.73327-4.6986 0.08878-6.4277-1.4752-0.57207 1.1657-1.5639 2.0802-2.8232 2.4778-2.2737 0.71782-4.6547-0.51504-5.5853-2.8067-0.26663 0.16531-0.54112 0.31291-0.84885 0.41006-2.1059 0.66483-4.3135-0.65485-4.925-2.9441-0.61157-2.2893 0.60238-4.6892 2.7083-5.354 0.22013-0.0695 0.44059-0.11033 0.6603-0.13742 0.22502-0.44252 0.58341-0.77616 1.0393-0.92009 0.47145-0.14884 0.96548-0.05979 1.3829 0.20276-0.08626-2.3462 1.291-4.5514 3.4587-5.2357 0.47172-0.14892 0.94322-0.19216 1.41-0.18469-0.0427-0.85298 0.44665-1.6565 1.2337-1.9049z" color="#000000" fill="url(#linearGradient11030)" opacity=".692"/>
<path d="m63.746 13.108c-3.1166 0-5.668 2.5395-5.668 5.646v69.278c0 3.1065 2.5513 5.646 5.668 5.646h76.792c3.1166 0 5.668-2.5395 5.668-5.646v-69.278c0-3.1065-2.5514-5.646-5.668-5.646zm0 2.3194h76.792c1.8881 0 3.352 1.4801 3.352 3.3266v69.278c0 1.8465-1.4639 3.3266-3.352 3.3266h-76.792c-1.8881 0-3.352-1.4801-3.352-3.3266v-69.278c0-1.8465 1.4639-3.3266 3.352-3.3266z" color="#000000" fill="#1f2224" fill-opacity=".86124" style="text-decoration-line:none;text-indent:0;text-transform:none"/>
<path d="m55.421 90.222v6c0 3.6801 2.9761 6.6563 6.6562 6.6563h79.688c3.6801 0 6.6562-2.9761 6.6562-6.6563v-6c0 3.6801-2.9761 6.6562-6.6562 6.6562h-79.688c-3.6801 0-6.6562-2.9761-6.6562-6.6562z" fill="url(#linearGradient4129)" opacity=".65818"/>
<rect x="59.296" y="88.629" width="84.25" height="4.25" rx="0" ry="4.25" fill="url(#radialGradient7462)" opacity=".55"/>
<rect transform="rotate(90)" x="13.939" y="-144.01" width="76.75" height="4.25" rx="0" ry="4.25" fill="url(#radialGradient7464)" opacity=".669"/>
<rect transform="matrix(1.0692 0 0 1.0477 58.216 46.858)" x="2" y="-30" width="75.966" height="69.024" rx="3.957" ry="3.957" clip-path="url(#clipPath4156-4-1)" fill="url(#linearGradient4967)" opacity=".699"/>
</g>
</g>
</svg>
