<?xml version="1.0" encoding="UTF-8"?>
<!-- Created with Inkscape (http://www.inkscape.org/) -->
<svg version="1.1" viewBox="0 0 16 16" xmlns="http://www.w3.org/2000/svg" xmlns:cc="http://creativecommons.org/ns#" xmlns:dc="http://purl.org/dc/elements/1.1/" xmlns:rdf="http://www.w3.org/1999/02/22-rdf-syntax-ns#">
<metadata>
<rdf:RDF>
<cc:Work rdf:about="">
<dc:format>image/svg+xml</dc:format>
<dc:type rdf:resource="http://purl.org/dc/dcmitype/StillImage"/>
<dc:title/>
</cc:Work>
</rdf:RDF>
</metadata>
<path d="m6 0-0.03125 1h-5.9688v3h16v-3h-6.0312l0.03125-1h-4zm1 2h2v1h-2v-1zm-5 3s-1.3724 2.7051-1.5 4.5c-0.12756 1.7949 1.5 5.5 1.5 5.5h3v-2s-1.5-2.0093-1.5-3.5 1.5-4.5 1.5-4.5h-3zm4 0s-1.25 3.0446-1.25 4.5c0 1.4554 1.25 3.5 1.25 3.5v2h1v-2s-1-2.076-1-3.5c0-1.424 1-4.5 1-4.5h-1zm3 0s1 3.076 1 4.5c0 1.424-1 3.5-1 3.5v2h1v-2s1.25-2.0446 1.25-3.5c0-1.4554-1.25-4.5-1.25-4.5h-1zm2 0s1.5 3.0093 1.5 4.5-1.5 3.5-1.5 3.5v2h3s1.6276-3.7051 1.5-5.5c-0.12756-1.7949-1.5-4.5-1.5-4.5h-3z" fill="#999" fill-opacity=".91237"/>
</svg>
