<?xml version="1.0" encoding="UTF-8"?>
<!-- Created with Inkscape (http://www.inkscape.org/) -->
<svg version="1.1" viewBox="0 0 96 96" xmlns="http://www.w3.org/2000/svg" xmlns:cc="http://creativecommons.org/ns#" xmlns:dc="http://purl.org/dc/elements/1.1/" xmlns:rdf="http://www.w3.org/1999/02/22-rdf-syntax-ns#" xmlns:xlink="http://www.w3.org/1999/xlink">
<title>Lila-HD-Icon-Theme</title>
<script xlink:href=""/>
<defs>
<linearGradient id="linearGradient8075" x1="6" x2="90" y1="47" y2="47" gradientTransform="matrix(1.1393 0 0 1.1393 -6.6857 -37.546)" gradientUnits="userSpaceOnUse">
<stop stop-color="#b7b7b7" offset="0"/>
<stop stop-color="#fff" offset=".25"/>
<stop stop-color="#9d9d9d" offset=".5"/>
<stop stop-color="#fafafa" offset=".75"/>
<stop stop-color="#b7b7b7" offset="1"/>
</linearGradient>
<radialGradient id="radialGradient8077" cx="158" cy="6.2132" r="41" gradientTransform="matrix(0 1.8467 -2.3222 0 62.428 -313.86)" gradientUnits="userSpaceOnUse">
<stop stop-color="#fff" offset="0"/>
<stop stop-color="#fff" stop-opacity="0" offset="1"/>
</radialGradient>
<radialGradient id="radialGradient8079" cx="48" cy="-27" r="42" gradientTransform="matrix(-1.2215 0 0 -.9969 106.63 -58.766)" gradientUnits="userSpaceOnUse">
<stop stop-color="#fff" offset="0"/>
<stop stop-color="#fff" offset=".8"/>
<stop stop-color="#fff" stop-opacity="0" offset="1"/>
</radialGradient>
<linearGradient id="linearGradient8081" x1="-94" x2="-10.188" y1="82.984" y2="82.984" gradientTransform="matrix(1.1393 0 0 1.0129 107.24 -26.788)" gradientUnits="userSpaceOnUse">
<stop offset="0"/>
<stop stop-opacity=".58824" offset=".1"/>
<stop stop-opacity=".58824" offset=".9"/>
<stop offset="1"/>
</linearGradient>
<radialGradient id="radialGradient8083" cx="9.0031" cy="47.585" r="45.212" gradientTransform="matrix(1.5259 .73911 -.8209 1.6947 33.74 -43.259)" gradientUnits="userSpaceOnUse">
<stop stop-color="#0838a9" stop-opacity=".99608" offset="0"/>
<stop stop-color="#1252d2" offset="1"/>
</radialGradient>
<linearGradient id="linearGradient8085" x1="374.93" x2="374.93" y1="539.17" y2="508.39" gradientTransform="matrix(2.0738 0 0 2.0738 -710.34 -1075.5)" gradientUnits="userSpaceOnUse">
<stop stop-color="#bccffc" stop-opacity=".99608" offset="0"/>
<stop stop-color="#f6f9fe" offset="1"/>
</linearGradient>
<linearGradient id="linearGradient8087" x1="6" x2="90" y1="47" y2="47" gradientTransform="matrix(1.1393 0 0 1.1393 -6.6857 -37.546)" gradientUnits="userSpaceOnUse">
<stop stop-color="#fff" stop-opacity="0" offset="0"/>
<stop stop-color="#fff" stop-opacity=".85135" offset=".036815"/>
<stop stop-color="#fff" stop-opacity="0" offset=".065061"/>
<stop stop-color="#fff" stop-opacity="0" offset=".94494"/>
<stop stop-color="#fff" stop-opacity=".85135" offset=".96582"/>
<stop stop-color="#fff" stop-opacity="0" offset="1"/>
</linearGradient>
<linearGradient id="linearGradient8089" x1="2.4652" x2="59.378" y1=".27862" y2=".27862" gradientTransform="matrix(1.0034 0 0 1.005 33.489 9.4732)" gradientUnits="userSpaceOnUse">
<stop stop-color="#fff" offset="0"/>
<stop stop-color="#fff" stop-opacity="0" offset="1"/>
</linearGradient>
</defs>
<metadata>
<rdf:RDF>
<cc:Work rdf:about="">
<dc:format>image/svg+xml</dc:format>
<dc:type rdf:resource="http://purl.org/dc/dcmitype/StillImage"/>
<dc:title>Lila-HD-Icon-Theme</dc:title>
<dc:date>2015-2019</dc:date>
<dc:creator>
<cc:Agent>
<dc:title>Cristian Pozzessere  == ilnanny ==</dc:title>
</cc:Agent>
</dc:creator>
<dc:subject>
<rdf:Bag>
<rdf:li>ilnanny</rdf:li>
<rdf:li>lila_hd</rdf:li>
<rdf:li>lila-hd</rdf:li>
<rdf:li>lila hd icon theme</rdf:li>
<rdf:li>Lila-HD-Icon-Theme lila hd icon lila icon</rdf:li>
</rdf:Bag>
</dc:subject>
<dc:coverage>CC-BY-SA</dc:coverage>
<dc:description>Playing with Inkscape on Gnu/Linux O. S.</dc:description>
<dc:contributor>
<cc:Agent>
<dc:title>In the night, alone like a dog.</dc:title>
</cc:Agent>
</dc:contributor>
</cc:Work>
</rdf:RDF>
</metadata>
<g transform="translate(0,32)">
<path d="m89.014-31.85h-82.029c-3.787 0-6.8357 3.0487-6.8357 6.8357v82.029c0 3.787 3.0487 6.8357 6.8357 6.8357h82.029c3.787 0 6.8357-3.0487 6.8357-6.8357v-82.029c0-3.787-3.0487-6.8357-6.8357-6.8357z" fill="url(#linearGradient8075)"/>
<path d="m6.9857-30.711c-3.1755 0-5.6964 2.5209-5.6964 5.6964v75.549c1.2198 1.8556 3.3004 3.0974 5.6964 3.0974h82.029c2.396 0 4.4766-1.2418 5.6964-3.0974v-75.549c0-3.1755-2.5209-5.6964-5.6964-5.6964z" fill="url(#radialGradient8077)" opacity=".2"/>
<path d="m6.9857-31.85c-3.787 0-6.8357 3.0487-6.8357 6.8357v17.089h1.1393v-17.089c0-3.1755 2.5209-5.6964 5.6964-5.6964h82.029c3.1755 0 5.6964 2.5209 5.6964 5.6964v17.089h1.1393v-17.089c0-3.787-3.0487-6.8357-6.8357-6.8357z" fill="url(#radialGradient8079)" opacity=".45"/>
<path d="m0.15 50.682v7.0902c0 3.3669 3.0487 6.0773 6.8357 6.0773h82.029c3.787 0 6.8357-2.7105 6.8357-6.0773v-7.0902c0 3.3669-3.0487 6.0773-6.8357 6.0773h-82.029c-3.787 0-6.8357-2.7105-6.8357-6.0773z" fill="url(#linearGradient8081)" opacity=".46965"/>
<ellipse cx="29.716" cy="52.709" rx="3.4436" ry="3.1329" fill="#1c1c1c" opacity=".71"/>
<ellipse cx="29.716" cy="52.501" rx="2.8653" ry="2.6822" fill="#fff"/>
<ellipse cx="29.716" cy="52.501" rx="1.9422" ry="1.8181" fill="#114751"/>
<ellipse cx="63.833" cy="52.709" rx="3.4436" ry="3.1329" fill="#1c1c1c" opacity=".71"/>
<ellipse cx="63.833" cy="52.501" rx="2.8653" ry="2.6822" fill="#fff"/>
<ellipse cx="63.833" cy="52.501" rx="1.9422" ry="1.8181" fill="#114751"/>
<rect x="40.657" y="51.658" width="12.718" height="3.252" rx="1.1521" ry="1.1538" fill="#0c2f31" fill-opacity=".90455" opacity=".75097" stroke="#fff" stroke-width=".502"/>
<path d="m7.7809 26.132c-1.8851 0-3.6495 0.91815-4.7591 2.2718v15.089c0 2.4045 2.1226 4.3402 4.7591 4.3402h80.905c2.6365 0 4.7591-1.9357 4.7591-4.3402v-15.089c-1.1096-1.3537-2.874-2.2718-4.7591-2.2718zm0 3.2552h80.905c1.3594 0 2.3796 0.93033 2.3796 2.1701v11.936c0 1.2398-1.0201 2.1701-2.3796 2.1701h-80.905c-1.3594 0-2.3796-0.93033-2.3796-2.1701v-11.936c0-1.2398 1.0201-2.1701 2.3796-2.1701z" color="#000000" opacity=".02" style="text-decoration-line:none;text-indent:0;text-transform:none"/>
<path d="m7.7809-28.121h80.905c2.6365 0 4.7591 1.9357 4.7591 4.3402v67.273c0 2.4045-2.1226 4.3402-4.7591 4.3402h-80.905c-2.6365 0-4.7591-1.9357-4.7591-4.3402v-67.273c0-2.4045 2.1226-4.3402 4.7591-4.3402z" color="#000000" fill="url(#radialGradient8083)"/>
<path d="m42.46 45.041c-3.0724-0.14849-6.2275-0.54488-9.2653-1.164-2.9602-0.60334-4.2373-0.97336-6.6353-1.9224-6.0217-2.3833-9.6982-6.1931-10.792-11.183-0.33026-1.5067-0.3332-5.1755-0.006221-7.0961 1.0261-6.0174 4.1354-12.98 10.668-23.889 6.5738-10.977 12.009-16.415 17.981-17.988 2.5728-0.67771 4.917-0.65314 7.4401 0.07798 5.7385 1.663 11.117 6.9718 17.152 16.928 7.0537 11.639 10.601 19.664 11.361 25.701 0.2369 1.882 0.10037 5.5497-0.25442 6.8321-0.969 3.5031-2.9447 6.1237-6.3112 8.3711-6.2623 4.1806-17.081 6.0216-31.338 5.3325zm8.558-8.0662c0.45396-0.06947 0.87668-0.20635 0.93937-0.30434 0.06263-0.09788 0.54901-1.2752 1.0807-2.6162 2.6006-6.5591 3.7726-12.662 3.7726-19.645 0-5.3345-0.65029-9.9234-2.1004-14.822-0.22412-0.7571-0.40751-1.3998-0.40751-1.4281 0-0.028412-0.12547-0.051639-0.27866-0.051639-0.15326 0-0.27864 0.022812-0.27864 0.050602 0 0.29003-0.83642 4.0121-1.3898 6.1844-1.4072 5.5245-3.3833 10.953-5.7187 15.709-2.5208 5.1338-4.9466 8.8075-8.2432 12.483l-1.2219 1.3624 1.2198 0.69801c3.7795 2.1629 8.3782 3.0294 12.626 2.3792zm15.395-11.673c1.1437-2.5991 1.5421-4.4119 1.6435-7.4797 0.05662-1.7142 0.01866-2.5843-0.16528-3.7618-0.62333-3.994-2.4704-7.717-5.2668-10.616-1.2085-1.2529-3.0014-2.7614-3.1295-2.6332-0.03173 0.03173 0.03422 0.23602 0.14683 0.45386 0.37022 0.71709 2.0117 5.3705 2.6709 7.5715 0.88043 2.9399 1.3915 5.1198 1.8692 7.9728 0.59494 3.5532 0.75448 5.5787 0.68348 8.6775l-0.06242 2.7285 0.53335-0.83887c0.29336-0.46139 0.77802-1.3948 1.077-2.0743zm-35.916-4.0332c8.8887-5.7547 15.057-12.876 19.083-22.031 0.45127-1.0262 0.82052-1.8795 0.82052-1.8963 0-0.016591-0.32128-0.068644-0.71394-0.1151l-0.71394-0.084613-1.4805 1.1531c-4.852 3.779-9.4879 6.4956-14.914 8.7392l-2.1479 0.88816-0.5175 1.1201c-1.1535 2.4968-1.7012 5.0592-1.7129 8.0141-0.0083 2.2672 0.39872 5.1551 0.72779 5.1551 0.0618 0 0.76771-0.42439 1.5689-0.94308z" fill-opacity=".058824" stroke-width="2.0738"/>
<path d="m42.46 44.211c-3.0724-0.14849-6.2275-0.54488-9.2653-1.164-2.9602-0.60334-4.2373-0.97336-6.6353-1.9224-6.0217-2.3833-9.6982-6.1931-10.792-11.183-0.33026-1.5067-0.3332-5.1755-0.006221-7.0961 1.0261-6.0174 4.1354-12.98 10.668-23.889 6.5738-10.977 12.009-16.415 17.981-17.988 2.5728-0.67771 4.917-0.65314 7.4401 0.07798 5.7385 1.663 11.117 6.9718 17.152 16.928 7.0537 11.639 10.601 19.664 11.361 25.701 0.2369 1.882 0.10037 5.5497-0.25442 6.8321-0.969 3.5031-2.9447 6.1237-6.3112 8.3711-6.2623 4.1806-17.081 6.0216-31.338 5.3325zm8.558-8.0662c0.45396-0.06947 0.87668-0.20635 0.93937-0.30434 0.06263-0.09789 0.54901-1.2752 1.0807-2.6162 2.6006-6.5591 3.7726-12.662 3.7726-19.645 0-5.3345-0.65029-9.9234-2.1004-14.822-0.22412-0.7571-0.40751-1.3998-0.40751-1.4281 0-0.028412-0.12547-0.051639-0.27866-0.051639-0.15326 0-0.27864 0.022812-0.27864 0.050602 0 0.29003-0.83642 4.0121-1.3898 6.1844-1.4072 5.5245-3.3833 10.953-5.7187 15.709-2.5208 5.1338-4.9466 8.8075-8.2432 12.483l-1.2219 1.3624 1.2198 0.69801c3.7795 2.1629 8.3782 3.0294 12.626 2.3792zm15.395-11.673c1.1437-2.5991 1.5421-4.4119 1.6435-7.4797 0.05662-1.7142 0.01866-2.5843-0.16528-3.7618-0.62333-3.994-2.4704-7.717-5.2668-10.616-1.2085-1.2529-3.0014-2.7614-3.1295-2.6332-0.03173 0.03173 0.03422 0.23602 0.14683 0.45386 0.37022 0.71709 2.0117 5.3705 2.6709 7.5715 0.88043 2.9399 1.3915 5.1198 1.8692 7.9728 0.59494 3.5532 0.75448 5.5787 0.68348 8.6775l-0.06242 2.7285 0.53335-0.83887c0.29336-0.46139 0.77802-1.3948 1.077-2.0743zm-35.916-4.0332c8.8887-5.7547 15.057-12.876 19.083-22.031 0.45127-1.0262 0.82052-1.8795 0.82052-1.8963 0-0.016591-0.32128-0.068644-0.71394-0.1151l-0.71394-0.084613-1.4805 1.1531c-4.852 3.779-9.4879 6.4956-14.914 8.7392l-2.1479 0.88816-0.5175 1.1201c-1.1535 2.4968-1.7012 5.0592-1.7129 8.0141-0.0083 2.2672 0.39872 5.1551 0.72779 5.1551 0.0618 0 0.76771-0.42439 1.5689-0.94308z" fill-opacity=".11765" stroke-width="2.0738"/>
<path d="m42.46 43.382c-3.0724-0.14849-6.2275-0.54488-9.2653-1.164-2.9602-0.60334-4.2373-0.97336-6.6353-1.9224-6.0217-2.3833-9.6982-6.1931-10.792-11.183-0.33026-1.5067-0.3332-5.1755-0.006221-7.0961 1.0261-6.0174 4.1354-12.98 10.668-23.889 6.5738-10.977 12.009-16.415 17.981-17.988 2.5728-0.67771 4.917-0.65314 7.4401 0.07798 5.7385 1.6629 11.117 6.9718 17.152 16.928 7.0537 11.639 10.601 19.664 11.361 25.701 0.2369 1.882 0.10037 5.5497-0.25442 6.8321-0.969 3.5031-2.9447 6.1237-6.3112 8.3711-6.2623 4.1806-17.081 6.0216-31.338 5.3325zm8.558-8.0662c0.45396-0.06947 0.87668-0.20635 0.93937-0.30434 0.06263-0.09788 0.54901-1.2752 1.0807-2.6162 2.6006-6.5591 3.7726-12.662 3.7726-19.645 0-5.3345-0.65029-9.9234-2.1004-14.822-0.22412-0.7571-0.40751-1.3998-0.40751-1.4281 0-0.028412-0.12547-0.051639-0.27866-0.051639-0.15326 0-0.27864 0.022812-0.27864 0.050602 0 0.29003-0.83642 4.0121-1.3898 6.1844-1.4072 5.5245-3.3833 10.953-5.7187 15.709-2.5208 5.1338-4.9466 8.8075-8.2432 12.483l-1.2219 1.3624 1.2198 0.69801c3.7795 2.1629 8.3782 3.0294 12.626 2.3792zm15.395-11.673c1.1437-2.5991 1.5421-4.4119 1.6435-7.4797 0.05662-1.7142 0.01866-2.5843-0.16528-3.7618-0.62333-3.994-2.4704-7.717-5.2668-10.616-1.2085-1.2529-3.0014-2.7614-3.1295-2.6332-0.03173 0.03173 0.03422 0.23602 0.14683 0.45386 0.37022 0.71709 2.0117 5.3705 2.6709 7.5715 0.88043 2.9399 1.3915 5.1198 1.8692 7.9728 0.59494 3.5532 0.75448 5.5787 0.68348 8.6775l-0.06242 2.7285 0.53335-0.83887c0.29336-0.46139 0.77802-1.3948 1.077-2.0743zm-35.916-4.0332c8.8887-5.7547 15.057-12.876 19.083-22.031 0.45127-1.0262 0.82052-1.8795 0.82052-1.8963 0-0.016591-0.32128-0.068644-0.71394-0.1151l-0.71394-0.084613-1.4805 1.1531c-4.852 3.779-9.4879 6.4956-14.914 8.7392l-2.1479 0.88816-0.5175 1.1201c-1.1535 2.4968-1.7012 5.0592-1.7129 8.0141-0.0083 2.2672 0.39872 5.1551 0.72779 5.1551 0.0618 0 0.76771-0.42439 1.5689-0.94308z" fill-opacity=".23529" stroke-width="2.0738"/>
<path d="m42.46 42.552c-3.0724-0.14849-6.2275-0.54488-9.2653-1.164-2.9602-0.60334-4.2373-0.97336-6.6353-1.9224-6.0217-2.3833-9.6982-6.1931-10.792-11.183-0.33026-1.5067-0.3332-5.1755-0.006221-7.0961 1.0261-6.0174 4.1354-12.98 10.668-23.889 6.5738-10.977 12.009-16.415 17.981-17.988 2.5728-0.67771 4.917-0.65314 7.4401 0.07798 5.7385 1.6629 11.117 6.9718 17.152 16.928 7.0537 11.639 10.601 19.664 11.361 25.701 0.2369 1.882 0.10037 5.5497-0.25442 6.8321-0.969 3.5031-2.9447 6.1237-6.3112 8.3711-6.2623 4.1806-17.081 6.0216-31.338 5.3325zm8.558-8.0662c0.45396-0.06947 0.87668-0.20635 0.93937-0.30434 0.06263-0.09788 0.54901-1.2752 1.0807-2.6162 2.6006-6.5591 3.7726-12.662 3.7726-19.645 0-5.3345-0.65029-9.9234-2.1004-14.822-0.22412-0.7571-0.40751-1.3998-0.40751-1.4281 0-0.028412-0.12547-0.051639-0.27866-0.051639-0.15326 0-0.27864 0.022812-0.27864 0.050602 0 0.29003-0.83642 4.0121-1.3898 6.1844-1.4072 5.5245-3.3833 10.953-5.7187 15.709-2.5208 5.1338-4.9466 8.8075-8.2432 12.483l-1.2219 1.3624 1.2198 0.69801c3.7795 2.1629 8.3782 3.0294 12.626 2.3792zm15.395-11.673c1.1437-2.5991 1.5421-4.4119 1.6435-7.4797 0.05662-1.7142 0.01866-2.5843-0.16528-3.7618-0.62333-3.994-2.4704-7.717-5.2668-10.616-1.2085-1.2529-3.0014-2.7614-3.1295-2.6332-0.03173 0.03173 0.03422 0.23602 0.14683 0.45386 0.37022 0.71709 2.0117 5.3705 2.6709 7.5715 0.88043 2.9399 1.3915 5.1198 1.8692 7.9728 0.59494 3.5532 0.75448 5.5787 0.68348 8.6775l-0.06242 2.7285 0.53335-0.83887c0.29336-0.46139 0.77802-1.3948 1.077-2.0743zm-35.916-4.0332c8.8887-5.7547 15.057-12.876 19.083-22.031 0.45127-1.0262 0.82052-1.8795 0.82052-1.8963 0-0.016591-0.32128-0.068644-0.71394-0.1151l-0.71394-0.084613-1.4805 1.1531c-4.852 3.779-9.4879 6.4956-14.914 8.7392l-2.1479 0.88816-0.5175 1.1201c-1.1535 2.4968-1.7012 5.0592-1.7129 8.0141-0.0083 2.2672 0.39872 5.1551 0.72779 5.1551 0.0618 0 0.76771-0.42439 1.5689-0.94308z" fill="url(#linearGradient8085)" stroke-width="2.0738"/>
<path d="m48.976-7.0049-1.4825 1.1503c-4.852 3.779-9.4879 6.4972-14.914 8.7409l-2.1467 0.88705-0.51846 1.122c-1.1535 2.4968-1.7016 5.0569-1.7133 8.0118-0.0011 0.31012 0.02331 0.63964 0.03646 0.96401 0.0911-2.6586 0.61698-5.025 1.6769-7.3192l0.51846-1.1179 2.1467-0.88705c5.426-2.2437 10.062-4.9619 14.914-8.7409l1.4825-1.1544 0.71288 0.085069c0.02244 0.0027 0.01866 0.00539 0.0405 0.00809 0.33711-0.77036 0.67238-1.5376 0.67238-1.5513 0-0.016591-0.32022-0.066964-0.71288-0.11342l-0.71288-0.085048zm5.0469 0.96401c-0.15326 0-0.27543 0.024865-0.27543 0.052655 0 0.29003-0.84002 4.0128-1.3934 6.1851-1.4072 5.5245-3.3798 10.951-5.7152 15.708-2.5208 5.1338-4.9501 8.8076-8.2468 12.484l-1.2192 1.361 0.98021 0.56302 0.23898-0.26733c3.2966-3.6759 5.726-7.3497 8.2468-12.484 2.3354-4.7563 4.308-10.183 5.7152-15.708 0.55334-2.1723 1.3934-5.895 1.3934-6.1851 0-0.027789 0.12217-0.048611 0.27543-0.048611 0.15319 0 0.27948 0.024243 0.27948 0.052655 0 0.028349 0.18499 0.66867 0.4091 1.4258 1.3891 4.6922 2.0252 9.1167 2.0779 14.169 0.0056-0.33581 0.02032-0.66469 0.02032-1.0045 0-5.3345-0.64805-9.9224-2.0981-14.821-0.22412-0.7571-0.4091-1.4015-0.4091-1.4298 0-0.028412-0.1263-0.052655-0.27948-0.052655zm5.4722 2.7057c-0.03173 0.03173 0.0332 0.23582 0.14581 0.45365 0.09867 0.1911 0.41553 1.0921 0.65212 1.7214 0.66205 0.52393 1.5908 1.3448 2.3331 2.1143 2.7964 2.8991 4.6423 6.6223 5.2656 10.616 0.08863 0.56743 0.13949 1.0667 0.16607 1.6202 0.03009-1.3566-0.0033-2.2356-0.16607-3.2768-0.62333-3.994-2.4692-7.7172-5.2656-10.616-1.2085-1.2529-3.0028-2.761-3.131-2.6328zm5.375 24.056c-0.0027 0.21152 1e-3 0.39817-0.0041 0.61972l-0.06076 2.726 0.03646-0.06076 0.02431-1.0086c0.01866-0.81847 0.02124-1.5597 0.0041-2.2764zm15.59 2.7908c-0.03397 1.4871-0.15301 2.9571-0.35239 3.6778-0.969 3.5031-2.9442 6.1249-6.3106 8.3723-6.2623 4.1806-17.082 6.0195-31.338 5.3304-3.0724-0.14849-6.2257-0.54334-9.2634-1.1625-2.9602-0.60334-4.2367-0.97488-6.6347-1.924-6.0217-2.3833-9.7007-6.1932-10.794-11.183-0.13022-0.5941-0.19449-1.5535-0.22278-2.5801-0.04094 1.6313 0.02258 3.3275 0.22278 4.2408 1.0938 4.9901 4.7728 8.8 10.794 11.183 2.398 0.94909 3.6745 1.3206 6.6347 1.924 3.0377 0.61914 6.191 1.014 9.2634 1.1625 14.257 0.68907 25.076-1.1538 31.338-5.3345 3.3665-2.2474 5.3416-4.8651 6.3106-8.3683 0.27593-0.99735 0.41348-3.4177 0.35239-5.3385z" fill="#0c49d8" fill-opacity=".31373" stroke-width="2.0738"/>
<path d="m48.15-21.182c-1.223-0.01282-2.4522 0.15125-3.7386 0.49011-5.9713 1.5729-11.406 7.0106-17.98 17.988-6.5326 10.909-9.6428 17.872-10.669 23.89-0.18074 1.0616-0.2513 2.6377-0.23088 4.1072 0.01462-1.2072 0.08479-2.4188 0.23088-3.2768 1.0261-6.0174 4.1363-12.981 10.669-23.89 6.5738-10.977 12.009-16.415 17.98-17.988 2.5728-0.67771 4.9177-0.65415 7.4407 0.07696 5.7385 1.663 11.115 6.9744 17.15 16.931 7.0537 11.639 10.602 19.664 11.362 25.7 0.05593 0.44438 0.08492 0.99919 0.10126 1.5878 5.73e-4 -0.90027-0.0197-1.7707-0.10126-2.4181-0.75983-6.0367-4.3079-14.061-11.362-25.7-6.0342-9.9566-11.411-15.268-17.15-16.931-1.2615-0.36556-2.4791-0.55425-3.7021-0.56706zm1.9159 16.809c-0.15008 0.34867-0.21901 0.51473-0.48606 1.122-4.0259 9.1546-10.193 16.276-19.082 22.03-0.80119 0.51869-1.5057 0.94376-1.5675 0.94376-0.30658 0-0.66984-2.4983-0.71288-4.6742-0.0023 0.11835-0.01576 0.22872-0.01618 0.34834-0.0083 2.2672 0.40001 5.1522 0.72908 5.1522 0.0618 0 0.76634-0.42102 1.5675-0.93971 8.8887-5.7547 15.056-12.876 19.082-22.03 0.45127-1.0262 0.82224-1.8828 0.82224-1.8997 0-0.00788-0.21957-0.033368-0.33619-0.052655zm9.4295 3.5239c-0.03173 0.03173 0.0332 0.23582 0.14581 0.45365 0.37022 0.71709 2.0142 5.3694 2.6733 7.5703 0.88043 2.9399 1.3895 5.1224 1.8673 7.9754 0.442 2.6397 0.64321 4.4366 0.68858 6.4564-0.0071-2.3681-0.18918-4.3042-0.68858-7.2868-0.47773-2.853-0.98684-5.0355-1.8673-7.9754-0.60285-2.013-1.9405-5.7914-2.4627-7.0195-0.19021-0.13061-0.32579-0.20481-0.35644-0.17416zm-2.6976 13.269c-0.05581 6.772-1.2215 12.743-3.7588 19.143-0.53169 1.341-1.0188 2.5187-1.0815 2.6166-0.06269 0.09799-0.48574 0.23836-0.93971 0.30783-4.2481 0.65021-8.8458-0.2188-12.625-2.3817l-0.72908-0.4172-0.49011 0.55086 1.2192 0.69668c3.7795 2.1629 8.3772 3.0278 12.625 2.3776 0.45396-0.06947 0.87702-0.20581 0.93971-0.30379 0.06263-0.09788 0.54978-1.2756 1.0815-2.6166 2.6006-6.5591 3.771-12.662 3.771-19.645 0-0.1129-0.01161-0.21585-0.01224-0.32809zm11.264 1.6323c2e-3 0.40086 0.01327 0.75301-0.0041 1.2799-0.10141 3.0677-0.50075 4.8822-1.6445 7.4812-0.29903 0.67952-0.78406 1.6125-1.0774 2.0738l-0.51036 0.81009-0.02032 0.8587 0.53061-0.8425c0.29337-0.46139 0.7784-1.3943 1.0774-2.0738 1.1437-2.5991 1.5431-4.4094 1.6445-7.4772 0.02878-0.87162 0.03092-1.5238 0.0041-2.1103z" fill="#fff" fill-opacity=".23529" stroke-width="2.0738"/>
<path d="m8.7251-27.32h79.017c2.575 0 4.648 1.8912 4.648 4.2405v65.727c0 2.3492-2.073 4.2405-4.648 4.2405h-79.017c-2.575 0-4.648-1.8912-4.648-4.2405v-65.727c0-2.3492 2.073-4.2405 4.648-4.2405z" color="#000000" fill="none" stroke="#000" stroke-opacity=".7758" stroke-width="2.2904"/>
<path d="m89.014-31.85h-82.029c-3.787 0-6.8357 3.0487-6.8357 6.8357v82.029c0 3.787 3.0487 6.8357 6.8357 6.8357h82.029c3.787 0 6.8357-3.0487 6.8357-6.8357v-82.029c0-3.787-3.0487-6.8357-6.8357-6.8357z" fill="url(#linearGradient8087)" opacity=".72794"/>
<path d="m35.963-28.224c8.3294 26.184 16.985 51.751 25.766 75.954h26.584c2.6365 0 4.7591-1.9357 4.7591-4.3402v-67.273c0-2.4045-2.1225-4.3402-4.7591-4.3402z" color="#000000" fill="url(#linearGradient8089)" opacity=".30882"/>
</g>
</svg>
