<?xml version="1.0" encoding="UTF-8"?>
<!-- Created with Inkscape (http://www.inkscape.org/) -->
<svg version="1.1" viewBox="0 0 96 96" xmlns="http://www.w3.org/2000/svg" xmlns:cc="http://creativecommons.org/ns#" xmlns:dc="http://purl.org/dc/elements/1.1/" xmlns:rdf="http://www.w3.org/1999/02/22-rdf-syntax-ns#" xmlns:xlink="http://www.w3.org/1999/xlink">
<title>Folder-Lila-HD-I</title>
<defs>
<linearGradient id="linearGradient4125">
<stop stop-color="#fff" offset="0"/>
<stop stop-color="#fff" stop-opacity="0" offset="1"/>
</linearGradient>
<linearGradient id="linearGradient3891" x1="6.25" x2="89.75" y1="80.625" y2="80.625" gradientTransform="matrix(1.115 0 0 1.1151 6.5966 1043.4)" gradientUnits="userSpaceOnUse">
<stop stop-color="#fff" stop-opacity="0" offset="0"/>
<stop stop-color="#fff" offset=".15"/>
<stop stop-color="#fff" offset=".85"/>
<stop stop-color="#fff" stop-opacity="0" offset="1"/>
</linearGradient>
<linearGradient id="linearGradient3893" x1="1.1209" x2="95.496" y1="84.063" y2="84.063" gradientTransform="matrix(.99266 0 0 .9812 12.165 1055.3)" gradientUnits="userSpaceOnUse">
<stop stop-color="#fff" stop-opacity=".031373" offset="0"/>
<stop stop-color="#fff" offset=".05"/>
<stop stop-color="#fff" stop-opacity=".023529" offset=".1"/>
<stop stop-color="#fff" stop-opacity=".28058" offset=".5"/>
<stop stop-color="#fefefe" stop-opacity=".015686" offset=".9"/>
<stop stop-color="#fff" offset=".95"/>
<stop stop-color="#fdfdfd" stop-opacity="0" offset="1"/>
</linearGradient>
<linearGradient id="linearGradient3391" x1="44.726" x2="22.635" y1="59.746" y2="34.832" gradientTransform="matrix(.99266 0 0 .9812 11.828 1054.9)" gradientUnits="userSpaceOnUse" xlink:href="#linearGradient4125"/>
<linearGradient id="linearGradient3889" x1="6.076" x2="89.924" y1="47.473" y2="47.473" gradientTransform="matrix(1.115 0 0 1.0365 -5.522 2.796)" gradientUnits="userSpaceOnUse">
<stop stop-color="#d8d8d8" stop-opacity="0" offset="0"/>
<stop stop-color="#fff" offset=".05"/>
<stop stop-color="#d8d8d8" stop-opacity="0" offset=".1"/>
<stop stop-color="#d8d8d8" stop-opacity="0" offset=".5"/>
<stop stop-color="#d8d8d8" stop-opacity="0" offset=".9"/>
<stop stop-color="#fff" offset=".95"/>
<stop stop-color="#d8d8d8" stop-opacity="0" offset="1"/>
</linearGradient>
<radialGradient id="radialGradient3885" cx="44.659" cy="-187.51" r="36.916" gradientTransform="matrix(1.6991 .0043381 -9.9579e-5 .013731 -31.242 -184.99)" gradientUnits="userSpaceOnUse" xlink:href="#linearGradient4125"/>
</defs>
<metadata>
<rdf:RDF>
<cc:Work rdf:about="">
<dc:format>image/svg+xml</dc:format>
<dc:type rdf:resource="http://purl.org/dc/dcmitype/StillImage"/>
<dc:title>Folder-Lila-HD-I</dc:title>
<dc:date>2017</dc:date>
<dc:creator>
<cc:Agent>
<dc:title>Cristian Pozzessere "ilnanny"</dc:title>
</cc:Agent>
</dc:creator>
<dc:subject>
<rdf:Bag>
<rdf:li>Global language</rdf:li>
</rdf:Bag>
</dc:subject>
<dc:description>Playing with Inkscape on Gnu/Linux O. S.</dc:description>
<dc:contributor>
<cc:Agent>
<dc:title>In the night, alone like a dog.</dc:title>
</cc:Agent>
</dc:contributor>
<cc:license rdf:resource="http://creativecommons.org/licenses/by-sa/4.0/"/>
</cc:Work>
<cc:License rdf:about="http://creativecommons.org/licenses/by-sa/4.0/">
<cc:permits rdf:resource="http://creativecommons.org/ns#Reproduction"/>
<cc:permits rdf:resource="http://creativecommons.org/ns#Distribution"/>
<cc:requires rdf:resource="http://creativecommons.org/ns#Notice"/>
<cc:requires rdf:resource="http://creativecommons.org/ns#Attribution"/>
<cc:permits rdf:resource="http://creativecommons.org/ns#DerivativeWorks"/>
<cc:requires rdf:resource="http://creativecommons.org/ns#ShareAlike"/>
</cc:License>
</rdf:RDF>
</metadata>
<g transform="translate(0 -1026.5)">
<g transform="translate(-12.119 -22.917)">
<path d="m101.26 1049.4h-82.286c-3.7989 0-6.8571 3.0583-6.8571 6.8571v82.286c0 3.7988 3.0583 6.8571 6.8571 6.8571h82.286c3.7989 0 6.8571-3.0583 6.8571-6.8571v-82.286c0-3.7988-3.0583-6.8571-6.8571-6.8571z" enable-background="new" opacity=".15"/>
<path d="m100.83 1049.9h-81.429c-3.7593 0-6.7857 3.0264-6.7857 6.7857v81.429c0 3.7593 3.0264 6.7857 6.7857 6.7857h81.429c3.7593 0 6.7857-3.0264 6.7857-6.7857v-81.429c0-3.7593-3.0264-6.7857-6.7857-6.7857z" enable-background="new" opacity=".25"/>
</g>
</g>
<path d="m88.142 1.1657h-80.283c-3.7064 0-6.6903 2.984-6.6903 6.6906v80.287c0 3.7066 2.9839 6.6906 6.6903 6.6906h80.283c3.7064 0 6.6903-2.984 6.6903-6.6906v-80.287c0-3.7066-2.9839-6.6906-6.6903-6.6906z" enable-background="new" fill="#2e8d13" stroke="#6d6d6d" stroke-width=".33452"/>
<g transform="matrix(0 -1.0859 1.115 0 -.94838 206.75)" enable-background="new">
<path d="m117.22 6.0979c-3.921 0-7.125 3.204-7.125 7.125v60.562c0 3.921 3.204 7.125 7.125 7.125h61.562c3.921 0 7.125-3.204 7.125-7.125v-60.562c0-3.921-3.204-7.125-7.125-7.125z" color="#000000" enable-background="accumulate" opacity=".13718" style="text-decoration-line:none;text-indent:0;text-transform:none"/>
<path d="m117.22 6.8133c-3.3794 0-6.125 2.7457-6.125 6.125v61.562c0 3.3793 2.7456 6.125 6.125 6.125h61.562c3.3794 0 6.125-2.7457 6.125-6.125v-61.562c0-3.3793-2.7456-6.125-6.125-6.125z" color="#000000" enable-background="accumulate" opacity=".24549" style="text-decoration-line:none;text-indent:0;text-transform:none"/>
<path d="m183.7 12.925c0-2.8428-2.242-5.1189-5.0262-5.1189h-30.722c2.7842 0 5.0262 2.2761 5.0262 5.1189v61.594c0 2.8428-2.242 5.1189-5.0262 5.1189h30.722c2.7842 0 5.0262-2.2761 5.0262-5.1189z" fill="#fdffeb" stroke="#b4b4b4" stroke-width=".4374"/>
<path d="m115.71 79.154v1c0.26183 2.5937 2.46 4.5938 5.125 4.5938h61.562c2.665 0 4.8632-2.0001 5.125-4.5938v-1c-0.26183 2.5937-2.46 4.5938-5.125 4.5938h-61.562c-2.665 0-4.8632-2.0001-5.125-4.5938z" fill="#fff" opacity=".4"/>
<path d="m116.69 7.8133c-2.5937 0.26183-4.5938 2.46-4.5938 5.125v0.46875c0.26183-2.5937 2.46-4.5938 5.125-4.5938h61.562c2.665 0 4.8632 2.0001 5.125 4.5938v-0.46875c0-2.8426-2.2824-5.125-5.125-5.125h-61.562c-0.17767 0-0.35834-0.017455-0.53125 0z" fill="#fff" opacity=".5"/>
<path d="m115.71 8.6425v-1c0.26183-2.5937 2.46-4.5938 5.125-4.5938h61.562c2.665 0 4.8632 2.0001 5.125 4.5938v1c-0.26183-2.5937-2.46-4.5938-5.125-4.5938h-61.562c-2.665 0-4.8632 2.0001-5.125 4.5938z" fill="#fff" opacity=".4"/>
<rect transform="rotate(90)" x="7.7431" y="-187.83" width="73.831" height=".90709" fill="url(#radialGradient3885)" opacity=".42599"/>
<path d="m183.73 12.934c0-2.8428-2.242-5.1189-5.0262-5.1189h-5.4216c2.7842 0 5.0262 2.2761 5.0262 5.1189v61.594c0 2.8428-2.242 5.1189-5.0262 5.1189h5.4216c2.7842 0 5.0262-2.2761 5.0262-5.1189z" fill="#e9ffdb" stroke="#b4b4b4" stroke-width=".4374"/>
<path d="m180.05 12.896c0-2.842-2.242-5.1174-5.0262-5.1174h-5.4216c2.7842 0 5.0262 2.2755 5.0262 5.1174v61.576c0 2.842-2.242 5.1174-5.0262 5.1174h5.4216c2.7842 0 5.0262-2.2755 5.0262-5.1174z" fill="#ffecfe" stroke="#b4b4b4" stroke-width=".43734"/>
<path d="m127.62 73.032v1.4688c0 2.8426 1.789 5.125 4.0171 5.125h48.254c2.2282 0 4.0171-2.2824 4.0171-5.125v-1.4688c-0.20523 2.5937-1.9282 4.5938-4.0171 4.5938h-48.254c-2.0889 0-3.8119-2.0001-4.0171-4.5938z" opacity=".138"/>
<path d="m112.09 13.748v-1.4688c0-2.8426 2.2824-5.125 5.125-5.125h61.562c2.8426 0 5.125 2.2824 5.125 5.125v1.4688c-0.26183-2.5937-2.46-4.5938-5.125-4.5938h-61.562c-2.665 0-4.8632 2.0001-5.125 4.5938z" opacity=".169"/>
</g>
<path d="m1.411 83.85c0 2.6997 3.0408 4.8731 6.8179 4.8731h79.542c3.7771 0 6.8179-2.1734 6.8179-4.8731v-50.355c0-2.6997-3.0408-4.8731-6.8179-4.8731h-43.393l-4.6873-5.5838c-1.1519-1.5193-3.4044-2.5381-6.0012-2.5381h-25.461c-3.7771 0-6.8179 2.1734-6.8179 4.8731z" enable-background="new" fill="#2e8d13" stroke="#6d6d6d" stroke-width=".29432"/>
<g>
<g transform="matrix(1 0 0 .93315 0 6.3272)">
<g transform="translate(-11.94 -1049.6)">
<path d="m13.566 1129v2.2302c0 3.4905 3.0556 6.2725 6.8296 6.2725h79.447c3.774 0 6.8296-2.782 6.8296-6.2725v-2.2302c0 3.4905-3.0556 6.2724-6.8296 6.2724h-79.447c-3.774 0-6.8296-2.7819-6.8296-6.2724z" enable-background="new" fill="url(#linearGradient3891)" opacity=".83103"/>
<path d="m18.476 1132.6h83.286" enable-background="new" fill="none" opacity=".375" stroke="#000" stroke-width="1.7273px"/>
<path d="m18.476 1131.8h83.286" enable-background="new" fill="none" opacity=".435" stroke="#fff" stroke-width="1.7273px"/>
<path d="m18.476 1128.5h83.286" enable-background="new" fill="none" opacity=".375" stroke="#000" stroke-width="1.7273px"/>
<path d="m18.476 1127.7h83.286" enable-background="new" fill="none" opacity=".435" stroke="#fff" stroke-width="1.7273px"/>
<path d="m13.277 1131.4v6.2378c0 3.6782 2.9941 6.6333 6.7005 6.6333h80.281c3.7064 0 6.7004-2.9551 6.7004-6.6333v-6.2378c0 3.6782-2.994 6.6637-6.7004 6.6637h-80.281c-3.7064 0-6.7005-2.9855-6.7005-6.6637z" enable-background="new" opacity=".3"/>
<path d="m13.277 1131.4v6.2378c0 3.6782 2.9941 6.6333 6.7005 6.6333h80.281c3.7064 0 6.7004-2.9551 6.7004-6.6333v-6.2378c0 3.6782-2.994 6.6637-6.7004 6.6637h-80.281c-3.7064 0-6.7005-2.9855-6.7005-6.6637z" enable-background="new" fill="url(#linearGradient3893)" opacity=".95052"/>
<path d="m13.193 1132.3c0 2.895 3.0408 5.2256 6.8179 5.2256 49.601-40.026 39.172-32.106 79.542-64.449h-43.393l-4.6873-5.9877c-1.1519-1.6292-3.4044-2.7216-6.0012-2.7216h-25.461c-3.7771 0-6.8179 2.3306-6.8179 5.2256z" enable-background="new" fill="url(#linearGradient3391)" opacity=".332"/>
</g>
<path d="m1.411 83.354c0 2.895 3.0408 5.2256 6.8179 5.2256h79.542c3.7771 0 6.8179-2.3306 6.8179-5.2256v-53.998c0-2.895-3.0408-5.2257-6.8179-5.2257h-43.393l-4.6873-5.9876c-1.1519-1.6292-3.4044-2.7217-6.0012-2.7217h-25.461c-3.7771 0-6.8179 2.3306-6.8179 5.2256z" enable-background="new" fill="url(#linearGradient3889)" opacity=".381"/>
</g>
</g>
<g transform="matrix(-.62949 0 0 -.62223 95.422 66.576)" enable-background="new" stroke-width="1.0003">
<path transform="matrix(-1.7087 0 0 -1.7287 158.37 114.33)" d="m43.812 33.625c0.25251 0.1866 0.47232 0.41554 0.65625 0.6875l2.4688 3.6562c0.28433-0.01745 0.58808-0.02709 0.875-0.03125l-2.125-3.125c-0.32054-0.47395-0.78314-0.82719-1.2812-1.0312-0.19666-0.080566-0.38452-0.1215-0.59375-0.15625zm14.5 1.0625c1.2427 0.50909 1.9749 1.8046 1.7188 3.125l-0.84375 4.3438c0.49539 0.43746 0.9397 0.88754 1.375 1.375l0.625-0.125c-0.26119-0.26448-0.53179-0.50212-0.8125-0.75l0.84375-4.3438c0.25617-1.3204-0.44483-2.6159-1.6875-3.125zm-4.5938 1.1562-2.4375 3.6562c-0.55252 0.83199-1.505 1.3043-2.5 1.25-0.55267-0.02999-1.1127-0.0019-1.6562 0.03125-0.2041 0.01258-0.39525-2.64e-4 -0.59375-0.03125 0.17396 0.12287 0.36608 0.23203 0.5625 0.3125 0.38727 0.15865 0.78912 0.24524 1.2188 0.21875 0.54351-0.03317 1.1036-0.06124 1.6562-0.03125 0.99498 0.05433 1.9475-0.41801 2.5-1.25l2.4375-3.6562zm-11.562 0.03125-3.5312 1.5 0.84375 4.3125c0.19781 0.97796-0.12813 1.9892-0.875 2.6562-0.40443 0.36273-0.79091 0.744-1.1562 1.1562-0.66044 0.74972-1.6445 1.0963-2.625 0.90625h-0.03125l-4.3125-0.84375-1.4375 3.5625 3.6562 2.4375c0.83201 0.55251 1.3048 1.5037 1.25 2.5-0.02944 0.55137-0.0024 1.0828 0.03125 1.625 0.05872 0.99408-0.42238 1.9406-1.25 2.5l-3.6562 2.4688 1.4688 3.5625 0.9375-0.1875-1.2188-2.875 3.6562-2.4688c0.82762-0.55939 1.3087-1.5059 1.25-2.5-0.03365-0.54221-0.02944-1.0736 0-1.625 0.05478-0.99628-0.44924-1.9475-1.2812-2.5l-3.6562-2.4375 1.4375-3.5625 4.3438 0.84375c0.98052 0.19002 1.9958-0.15653 2.6562-0.90625 0.36534-0.41225 0.75182-0.79352 1.1562-1.1562 0.74687-0.66709 1.0728-1.6783 0.875-2.6562l-0.875-4.3125 2.875-1.2188zm24.969 7.2812c0.39829 0.29392 0.73498 0.7039 0.9375 1.1875l1.4688 3.5312c0.51936 1.2376 0.08216 2.686-1.0312 3.4375l-3.625 2.4688c0.03987 0.64982 0.03584 1.3088 0 1.9688l3.6562 2.4375c1.1198 0.74201 1.5716 2.1636 1.0625 3.4062l-1.4688 3.5312c-0.50909 1.2427-1.8059 1.9744-3.125 1.7188l-4.3438-0.84375c-0.43746 0.49538-0.88881 0.97041-1.375 1.4062l0.875 4.3125c0.26617 1.3166-0.44858 2.6374-1.6875 3.1562l-3.5312 1.4688c-0.50224 0.21033-1.0242 0.27048-1.5312 0.1875 0.18108 0.1306 0.35815 0.26003 0.5625 0.34375 0.67414 0.27618 1.4761 0.26666 2.1875-0.03125l3.5312-1.4688c1.2389-0.51882 1.9224-1.8396 1.6562-3.1562l-0.875-4.3125c0.48619-0.43584 0.96879-0.91086 1.4062-1.4062l4.3125 0.84375c1.3191 0.25563 2.6472-0.47608 3.1562-1.7188l1.4375-3.5312c0.50909-1.2427 0.088576-2.6642-1.0312-3.4062l-3.6875-2.4375c0.03584-0.65992 0.03987-1.3189 0-1.9688l3.6562-2.4688c1.1134-0.75146 1.5506-2.1999 1.0312-3.4375l-1.5-3.5312c-0.2979-0.71138-0.8571-1.2551-1.5312-1.5312-0.19247-0.078851-0.38643-0.12153-0.59375-0.15625zm-1.6562 2.2812-4.3438 0.875c-0.34144 0.06917-0.66698 0.0554-1 0 0.18291 0.13305 0.38608 0.25867 0.59375 0.34375 0.50724 0.2078 1.0704 0.26861 1.625 0.15625l3.4062-0.6875zm-13.156 0.53125c3.5912 1.7441 5.682 5.4258 5.5312 9.25-0.0078 0.19752-0.01135 0.39577-0.03125 0.59375-0.05376 0.92818-0.25296 1.8731-0.625 2.7812-0.38324 0.93547-0.92479 1.7555-1.5625 2.4688-0.0091 0.01117-0.02206 0.02012-0.03125 0.03125-0.10432 0.11547-0.20261 0.23466-0.3125 0.34375-2.5985 2.8534-6.7219 4.0186-10.531 2.6875 0.23556 0.11929 0.47019 0.21067 0.71875 0.3125 5.0398 2.0647 10.779-0.33522 12.844-5.375 2.0652-5.0411-0.33522-10.81-5.375-12.875-0.20886-0.08556-0.41397-0.14844-0.625-0.21875zm-4.4062 0.21875c-2.2421 0.02585-4.4085 0.92046-6 2.5-0.03132 0.03109-0.06287 0.06214-0.09375 0.09375-0.08239 0.09314-0.1709 0.18463-0.25 0.28125-0.19585 0.23922-0.38814 0.49001-0.5625 0.75-0.36501 0.54428-0.67942 1.1513-0.9375 1.7812-0.25808 0.62997-0.44073 1.2623-0.5625 1.9062-0.04904 0.25935-0.066 0.5216-0.09375 0.78125-0.0067 0.06269-0.02577 0.12484-0.03125 0.1875-0.0057 0.1457-0.0017 0.29237 0 0.4375 0.03869 3.3633 2.0373 6.5517 5.3438 7.9062 0.13169 0.05395 0.27354 0.078 0.40625 0.125-3.8581-2.0583-5.6-6.7719-3.9062-10.906 1.6932-4.1331 6.2129-6.24 10.406-5-0.12068-0.05601-0.21938-0.13655-0.34375-0.1875-1.1022-0.45153-2.2539-0.66917-3.375-0.65625zm2.875 3.7188c2.4364 1.3772 3.5263 4.4047 2.4375 7.0625-1.1029 2.6921-4.0491 4.0426-6.7812 3.25 0.19958 0.11185 0.40791 0.22356 0.625 0.3125 2.8818 1.1806 6.1632-0.18076 7.3438-3.0625 1.1806-2.8817-0.18075-6.1944-3.0625-7.375-0.18003-0.07375-0.37987-0.13348-0.5625-0.1875zm-2.8125 0.6875c-1.6473 0.01899-3.2115 1.0055-3.875 2.625-0.88462 2.1594 0.15316 4.6154 2.3125 5.5 0.20718 0.08488 0.41377 0.13726 0.625 0.1875-1.7572-1.0568-2.5512-3.2318-1.75-5.1875 0.79887-1.95 2.8866-2.9696 4.875-2.5-0.18295-0.11003-0.35888-0.22908-0.5625-0.3125-0.53983-0.22116-1.0759-0.31883-1.625-0.3125zm-10.906 13.219c0.1599 0.11594 0.33356 0.25561 0.46875 0.40625 0.36221 0.40574 0.744 0.79092 1.1562 1.1562 0.74973 0.66043 1.0957 1.6771 0.90625 2.6562l-0.84375 4.3125 1.1875 0.5 0.84375-4.3125c0.18948-0.9792-0.15652-1.9958-0.90625-2.6562-0.41225-0.36533-0.79404-0.75051-1.1562-1.1562-0.2896-0.3227-0.64136-0.55902-1.0312-0.71875-0.20517-0.08405-0.40568-0.15366-0.625-0.1875zm-1.625 2.2812-4.3438 0.875c-0.35536 0.07275-0.69045 0.06114-1.0312 0 0.18927 0.14031 0.40664 0.2543 0.625 0.34375 0.49943 0.2046 1.0648 0.27092 1.625 0.15625l3.6875-0.75c-0.19933-0.20154-0.37368-0.41477-0.5625-0.625zm15.281 3.3125c0.255 0.18799 0.47368 0.41676 0.65625 0.6875l2.4688 3.6562 0.6875-0.28125-1.9375-2.875c-0.3164-0.4692-0.77532-0.82398-1.2812-1.0312-0.19364-0.079329-0.38552-0.12138-0.59375-0.15625zm-3.625 2.2812-2.4375 3.6562c-0.74331 1.1193-2.1949 1.5716-3.4375 1.0625l1.2188 0.5c1.2426 0.50908 2.6629 0.0568 3.4062-1.0625l2.4375-3.6562c0.37248 0.02023 0.75503 0.03633 1.125 0.03125l-0.34375-0.53125c-0.64982 0.03987-1.3088 0.03584-1.9688 0z" fill-opacity=".16412"/>
<path d="m111.45 25.37-6.2665-4.2135c0.0612-1.1408 0.0482-2.2781-0.0198-3.4015l6.2449-4.2666c1.9025-1.299 2.6334-3.7786 1.746-5.918l-2.5307-6.1137c-0.50906-1.2297-1.466-2.1502-2.6201-2.6285-0.8534-0.35369-1.8161-0.46312-2.7732-0.26488l-7.3857 1.5062c-0.74694-0.84133-1.5407-1.6442-2.3872-2.4004l1.4296-7.4759c0.43993-2.2816-0.77816-4.5555-2.9015-5.4355l-6.0605-2.5118c-2.1234-0.88005-4.567-0.12118-5.8371 1.8138l-4.1658 6.3419c-1.1276-0.06195-2.2509-0.05104-3.3613 0.017883l-4.2161-6.3147c-0.54905-0.82249-1.3087-1.4269-2.1643-1.7815-1.1519-0.47742-2.4721-0.50073-3.6877 0.01426l-6.0409 2.5612c-2.117 0.89688-3.3148 3.1803-2.86 5.4563l1.4888 7.472c-0.83077 0.75343-1.6243 1.5565-2.3718 2.4129l-7.3909-1.4496c-2.254-0.44191-4.5029 0.78724-5.3728 2.9354l-2.4828 6.1312c-0.8699 2.1482-0.12068 4.6226 1.7928 5.9053l6.2678 4.2167c-0.06124 1.1408-0.05045 2.2772 0.01768 3.4005l-6.2405 4.2685c-1.9025 1.299-2.6334 3.7786-1.746 5.9181l2.5307 6.1137c0.50904 1.2298 1.4659 2.1502 2.6179 2.6276 0.8556 0.35461 1.8192 0.46177 2.7755 0.26579l7.3866-1.5085c0.74382 0.84267 1.5376 1.6455 2.3841 2.4017l-1.431 7.4727c-0.43773 2.2826 0.77724 4.5578 2.9006 5.4378l6.0605 2.5118c2.1234 0.88006 4.5702 0.11986 5.838-1.816l4.1671-6.3387c1.1277 0.06196 2.2519 0.04879 3.3622-0.02013l4.2174 6.3179c0.54772 0.81931 1.3087 1.4269 2.1598 1.7797 1.1541 0.47834 2.4744 0.50166 3.6899-0.01321l6.0431-2.5602c2.117-0.89687 3.3149-3.1803 2.86-5.4563l-1.4911-7.4729c0.83384-0.75475 1.6274-1.5578 2.3749-2.4142l7.3865 1.4477c2.2522 0.44641 4.5051-0.78635 5.375-2.9345l2.4828-6.1312c0.86987-2.1482 0.11745-4.6212-1.795-5.9062zm-12.536 8.7433c-1.6754-0.32849-3.396 0.26411-4.5245 1.5601-0.62427 0.71265-1.2853 1.3811-1.9763 2.0082-1.2762 1.1532-1.8464 2.9018-1.5084 4.5924l1.4911 7.4729-6.0431 2.5602-4.2174-6.3179c-0.54062-0.8111-1.2998-1.4232-2.1643-1.7815-0.66174-0.27426-1.3882-0.40152-2.1224-0.35574-0.92871 0.05735-1.8629 0.07031-2.8073 0.01846-1.7002-0.09392-3.3247 0.73067-4.2688 2.1689l-4.1689 6.3432-6.0605-2.5118 1.4328-7.4773c0.32468-1.695-0.26108-3.4356-1.5399-4.5764-0.70441-0.63153-1.3674-1.3012-1.9872-2.0003-0.49175-0.5592-1.0955-0.98317-1.7594-1.2584-0.86675-0.35923-1.8299-0.46095-2.7777-0.26671l-7.3866 1.5085-2.5307-6.1137 6.2427-4.2676c1.4142-0.96701 2.2161-2.6195 2.1126-4.3367-0.05668-0.93959-0.06725-1.8838-0.01602-2.8392 0.09284-1.72-0.72445-3.3644-2.1439-4.3186l-6.2678-4.2167 2.4795-6.1353 7.3909 1.4495c1.6732 0.32757 3.396-0.26413 4.5236-1.5579 0.62424-0.71266 1.2839-1.3843 1.9772-2.0104 1.2731-1.1519 1.8455-2.8995 1.5052-4.591l-1.4866-7.471 6.0409-2.5612 4.2183 6.3156c0.54064 0.81111 1.2998 1.4232 2.1643 1.7815 0.66175 0.27427 1.386 0.40068 2.1223 0.35575 0.92651-0.058251 1.862-0.068033 2.8041-0.017138 1.7024 0.094835 3.3278-0.73199 4.271-2.168l4.1658-6.3419 6.0614 2.5097-1.4328 7.4773c-0.32378 1.6927 0.26105 3.4356 1.5421 4.5773 0.70443 0.63154 1.3661 1.298 1.985 1.9994 0.49485 0.55785 1.0964 0.98089 1.7626 1.257 0.86672 0.35921 1.8299 0.46094 2.7777 0.26672l7.3857-1.5063 2.5307 6.1137-6.2449 4.2666c-1.4142 0.96702-2.2129 2.6182-2.1126 4.3367 0.0575 0.93732 0.0694 1.8847 0.0191 2.8378-0.0936 1.7223 0.72132 3.3658 2.143 4.3209l6.2665 4.2135-2.4761 6.134-7.3919-1.4473zm-16.171-30.326c-8.6117-3.5692-18.458 0.60251-21.986 9.3147-3.5289 8.7145 0.59559 18.674 9.2073 22.243 8.6117 3.5692 18.458-0.60252 21.986-9.3147 3.528-8.7122-0.59556-18.674-9.2072-22.243zm-11.981 29.588c-7.5355-3.1231-11.143-11.842-8.0563-19.463 3.0862-7.6212 11.703-11.274 19.238-8.1504 7.5332 3.1222 11.143 11.839 8.0563 19.463-3.0862 7.6212-11.705 11.273-19.238 8.1504zm9.243-22.825c-4.9242-2.0408-10.546 0.34108-12.564 5.3227-2.0173 4.9816 0.33713 10.67 5.2613 12.71 4.9219 2.0399 10.547-0.34334 12.564-5.3227 2.0163-4.9794-0.33935-10.67-5.2613-12.71zm-6.3905 15.781c-3.6898-1.5292-5.4576-5.7999-3.946-9.5328 1.5116-3.7329 5.733-5.5213 9.4227-3.992 3.6897 1.5292 5.4575 5.7999 3.946 9.5328-1.5116 3.7329-5.733 5.5213-9.4227 3.992z" fill="#fff" opacity=".956"/>
<path d="m66.288 51.113 4.0894-6.2245c0.46302-0.70536 1.0925-1.2589 1.8151-1.626 0.72255-0.36703 1.5367-0.54514 2.3705-0.49909 0.92628 0.0509 1.8443 0.03747 2.7552-0.01883 0.72006-0.04491 1.4328 0.07941 2.0819 0.34842 0.84792 0.35145 1.592 0.95282 2.1222 1.7484l4.1359 6.1963 5.9293-2.5112-1.4645-7.3294c-0.16577-0.82912-0.10901-1.6741 0.14583-2.4515 0.25483-0.77745 0.70828-1.4873 1.3342-2.0529 0.67784-0.61506 1.3269-1.2722 1.9392-1.9713 0.55345-0.63562 1.2511-1.0984 2.0168-1.3623 0.76567-0.26394 1.5984-0.32747 2.4201-0.16636l7.251 1.4188 2.4294-6.0173-6.1465-4.1308c-0.69722-0.46843-1.2476-1.1081-1.6103-1.8394-0.36266-0.73128-0.53923-1.5566-0.49333-2.4013 0.0494-0.93491 0.0378-1.8617-0.0186-2.7811-0.0492-0.84279 0.12398-1.6703 0.48092-2.4044 0.35695-0.73416 0.89813-1.3777 1.5917-1.852l6.1247-4.1842-2.4822-5.9954-7.2448 1.4753c-0.9296 0.19051-1.874 0.09182-2.7242-0.26053-0.65345-0.27084-1.2428-0.68643-1.7282-1.2336-0.60707-0.68797-1.2544-1.3392-1.9454-1.9587-0.62828-0.55992-1.0858-1.2685-1.3466-2.0434-0.26078-0.77491-0.32633-1.6182-0.16754-2.4484l1.4055-7.3326-5.9448-2.4641-4.0863 6.2214c-0.46257 0.70427-1.0921 1.2588-1.8151 1.626-0.72294 0.36719-1.5387 0.54874-2.3736 0.50223-0.92411-0.04992-1.8433-0.04145-2.7521 0.01575-0.72225 0.04407-1.4328-0.07941-2.0819-0.34842-0.84795-0.35145-1.592-0.9528-2.1222-1.7484l-4.1359-6.1931-5.9262 2.5111 1.4583 7.3294c0.16687 0.82958 0.1089 1.6712-0.14583 2.4484-0.25473 0.77717-0.70672 1.488-1.3311 2.0529-0.68002 0.61414-1.3269 1.2722-1.9392 1.9713-0.553 0.6345-1.2509 1.0987-2.0168 1.3623-0.76584 0.26356-1.5995 0.32701-2.4201 0.16636l-7.2479-1.4219-2.4325 6.0173 6.1465 4.1371c0.69612 0.46797 1.2441 1.1052 1.6072 1.8363 0.36305 0.73112 0.54193 1.5577 0.49643 2.4013-0.05029 0.93714-0.04008 1.8626 0.01557 2.7842 0.05076 0.84213-0.12048 1.667-0.47782 2.4013-0.35734 0.73433-0.90122 1.3777-1.5948 1.852l-6.1216 4.1842 2.4822 5.9985 7.2448-1.4816c0.92959-0.19052 1.874-0.08868 2.7242 0.26367 0.65124 0.26992 1.2428 0.6851 1.7251 1.2336 0.60793 0.68573 1.2576 1.3424 1.9485 1.9618 0.62717 0.55946 1.0859 1.2658 1.3466 2.0403 0.26062 0.77452 0.32367 1.6171 0.16444 2.4484l-1.4055 7.3357zm9.7425-15.462c-2.1473 0.02483-4.3357-0.37408-6.4474-1.2493-2.1117-0.87522-3.9478-2.1434-5.4608-3.6851-1.513-1.5417-2.7012-3.3589-3.5185-5.3331-0.81727-1.9742-1.2631-4.1053-1.2876-6.2779s0.37266-4.3858 1.238-6.5227c0.8651-2.1364 2.1154-3.9939 3.6395-5.5245 1.524-1.5306 3.32-2.7328 5.2715-3.5596 1.9515-0.82677 4.0581-1.2778 6.2054-1.3027 2.1473-0.02483 4.3357 0.37408 6.4474 1.2493 2.1117 0.87522 3.9478 2.1432 5.4608 3.6851 1.5129 1.5419 2.7044 3.3588 3.5216 5.3331 0.81721 1.9743 1.26 4.1054 1.2845 6.2779 0.0245 2.1725-0.36978 4.3863-1.2349 6.5227-0.86509 2.1364-2.1185 3.9939-3.6426 5.5245-1.524 1.5306-3.32 2.7359-5.2715 3.5627-1.9515 0.82677-4.0581 1.2747-6.2054 1.2995z" enable-background="new" fill="#fffafa" fill-opacity=".62214" opacity=".956" style="paint-order:stroke fill markers"/>
</g>
</svg>
