<?xml version="1.0" encoding="UTF-8"?>
<svg version="1.1" viewBox="0 0 32 32" xmlns="http://www.w3.org/2000/svg" xmlns:cc="http://creativecommons.org/ns#" xmlns:dc="http://purl.org/dc/elements/1.1/" xmlns:rdf="http://www.w3.org/1999/02/22-rdf-syntax-ns#" xmlns:xlink="http://www.w3.org/1999/xlink">
<defs>
<linearGradient id="linearGradient4071" x1="6" x2="90" y1="47" y2="47" gradientTransform="matrix(1.1071 0 0 1.1071 -4.9939 -3.6207)" gradientUnits="userSpaceOnUse">
<stop stop-color="#bab4b4" offset="0"/>
<stop stop-color="#fff" offset=".25"/>
<stop stop-color="#a29898" offset=".5"/>
<stop stop-color="#fbf9f9" offset=".75"/>
<stop stop-color="#bab4b4" offset="1"/>
</linearGradient>
<linearGradient id="linearGradient4129" x1="1.5" x2="94.5" y1="88.172" y2="88.172" gradientTransform="translate(.14895 .41503)" gradientUnits="userSpaceOnUse">
<stop offset="0"/>
<stop stop-opacity=".58824" offset=".1"/>
<stop stop-opacity=".58824" offset=".9"/>
<stop offset="1"/>
</linearGradient>
<radialGradient id="radialGradient7462" cx="13.948" cy="44.893" r="43.199" gradientTransform="matrix(.97513 0 0 .049191 34.048 80.582)" gradientUnits="userSpaceOnUse" xlink:href="#linearGradient3737"/>
<linearGradient id="linearGradient3737">
<stop stop-color="#fff" offset="0"/>
<stop stop-color="#fff" stop-opacity="0" offset="1"/>
</linearGradient>
<radialGradient id="radialGradient7464" cx="13.948" cy="44.893" r="43.199" gradientTransform="matrix(.88833 0 0 .049191 31.96 -90.317)" gradientUnits="userSpaceOnUse" xlink:href="#linearGradient3737"/>
<linearGradient id="linearGradient4767" x1="2.7714" x2="50.528" y1="-28.642" y2="14.514" gradientUnits="userSpaceOnUse" xlink:href="#linearGradient3737"/>
<clipPath id="clipPath4156-4-1">
<path d="m27.046-55.695-14.214 13.321h0.06127l15.653 21.771 10.231-10.546c-0.2169-1.1522-11.311-23.67-11.732-24.546zm-17.399 16.313-14.888 14.062 21.229 17.515 10.385-10.577zm31.491 12.951-9.7413 9.7136 8.9448 12.458 7.7808-7.555zm-49.84 4.3788-13.754 12.982 26.283 13.846 0.06127-0.0617-0.12253-0.0617 9.8332-10.053-22.301-16.652zm38.015 7.4008-9.8025 9.7753 11.579 9.5594 7.6276-7.4008-8.6691-11.009zm20.187 5.674-7.3825 7.2158 6.1878 8.5418 5.8202-6.1365zm-32.195 6.3215-9.5575 9.4977 13.662 7.185 7.9339-7.6784zm23.312 2.3744-7.1068 6.9383 8.3628 6.9074 5.3608-5.674-0.06127-0.0925-0.0919 0.12335-6.4635-8.2026zm-8.7304 8.5418-7.5051 7.3392 10.354 5.4581c1.3975-1.321 5.6751-6.1229 5.8509-6.3215z" fill="#fff" opacity=".6"/>
</clipPath>
</defs>
<metadata>
<rdf:RDF>
<cc:Work rdf:about="">
<dc:format>image/svg+xml</dc:format>
<dc:type rdf:resource="http://purl.org/dc/dcmitype/StillImage"/>
<dc:title/>
<dc:date>2017</dc:date>
<dc:creator>
<cc:Agent>
<dc:title>Cristian Pozzessere "ilnanny"</dc:title>
</cc:Agent>
</dc:creator>
<dc:subject>
<rdf:Bag>
<rdf:li>Global language</rdf:li>
</rdf:Bag>
</dc:subject>
<dc:description>Playing with Inkscape on Gnu/Linux O. S.</dc:description>
<dc:contributor>
<cc:Agent>
<dc:title>In the night, alone like a dog.</dc:title>
</cc:Agent>
</dc:contributor>
<cc:license rdf:resource="http://creativecommons.org/licenses/by-sa/4.0/"/>
</cc:Work>
<cc:License rdf:about="http://creativecommons.org/licenses/by-sa/4.0/">
<cc:permits rdf:resource="http://creativecommons.org/ns#Reproduction"/>
<cc:permits rdf:resource="http://creativecommons.org/ns#Distribution"/>
<cc:requires rdf:resource="http://creativecommons.org/ns#Notice"/>
<cc:requires rdf:resource="http://creativecommons.org/ns#Attribution"/>
<cc:permits rdf:resource="http://creativecommons.org/ns#DerivativeWorks"/>
<cc:requires rdf:resource="http://creativecommons.org/ns#ShareAlike"/>
</cc:License>
</rdf:RDF>
</metadata>
<g transform="translate(0 -1026.5)">
<g transform="translate(-.14896 1026.1)">
<g transform="matrix(.32292 0 0 .32292 .60086 .78098)">
<path d="m89.292 0.41503h-82.286c-3.7988 0-6.8571 3.0583-6.8571 6.8571v82.286c0 3.7989 3.0583 6.8571 6.8571 6.8571h82.286c3.7989 0 6.8571-3.0583 6.8571-6.8571v-82.286c0-3.7989-3.0583-6.8571-6.8571-6.8571z" opacity=".15"/>
<path d="m88.649 1.165h-81c-3.7395 0-6.75 3.0105-6.75 6.75v81c0 3.7395 3.0105 6.75 6.75 6.75h81c3.7395 0 6.75-3.0105 6.75-6.75v-81c0-3.7395-3.0105-6.75-6.75-6.75z" opacity=".15"/>
<path d="m88.006 1.915h-79.714c-3.6801 0-6.6429 2.9627-6.6429 6.6429v79.714c0 3.6801 2.9627 6.6429 6.6429 6.6429h79.714c3.6801 0 6.6429-2.9627 6.6429-6.6429v-79.714c0-3.6801-2.9627-6.6429-6.6429-6.6429z" fill="url(#linearGradient4071)"/>
<path d="m11.39 6.8022c-2.8565 0-5.1241 2.3235-5.1241 5.2503v69.632c1.0972 1.7103 2.9688 2.8548 5.1241 2.8548h73.787c2.1553 0 4.0269-1.1445 5.1241-2.8548v-69.632c0-2.9268-2.2676-5.2503-5.1241-5.2503z" fill="#19aeff" opacity=".77865"/>
<path d="m9.974 5.1445c-3.1166 0-5.668 2.5395-5.668 5.646v69.278c0 3.1065 2.5513 5.646 5.668 5.646h76.792c3.1166 0 5.668-2.5395 5.668-5.646v-69.278c0-3.1065-2.5513-5.646-5.668-5.646zm0 2.3194h76.792c1.8881 0 3.352 1.4801 3.352 3.3266v69.278c0 1.8465-1.4639 3.3266-3.352 3.3266h-76.792c-1.8881 0-3.352-1.4801-3.352-3.3266v-69.278c0-1.8465 1.4639-3.3266 3.352-3.3266z" color="#000000" fill="#241f1f" fill-opacity=".63265" style="text-decoration-line:none;text-indent:0;text-transform:none"/>
<path d="m1.649 82.259v6c0 3.6801 2.9761 6.6562 6.6562 6.6562h79.687c3.6801 0 6.6563-2.9761 6.6563-6.6562v-6c0 3.6801-2.9761 6.6562-6.6563 6.6562h-79.687c-3.6801 0-6.6562-2.9761-6.6562-6.6562z" fill="url(#linearGradient4129)" opacity=".65818"/>
<rect x="5.524" y="80.665" width="84.25" height="4.25" rx="0" ry="4.25" fill="url(#radialGradient7462)" opacity=".55"/>
<rect transform="rotate(90)" x="5.975" y="-90.234" width="76.75" height="4.25" rx="0" ry="4.25" fill="url(#radialGradient7464)" opacity=".669"/>
<g transform="matrix(1.0561 0 0 1 117.13 -5.4662)">
<g transform="matrix(-.61749 0 0 .61749 -26.343 42.346)">
<path d="m67.214 42.977c0 4.6059-0.61822 9.1232-4.0789 12.492-4.7785 4.6511-13.667 7.3636-22.03 7.3636-2.2431 0-4.4202-0.21511-6.4974-0.61968-0.8621-0.1679-1.4778 2.2623-2.9984 3.8136-2.1561 2.1997-5.3007 3.7549-6.3853 3.3082-2.1418-0.88204-0.05967-9.7606-1.7876-11.045-4.8515-3.6051-8.4406-9.7469-8.4406-15.313 0-10.966 11.69-19.855 26.109-19.855 14.42 0 26.109 8.8895 26.109 19.855z" fill="#fbfbfb" fill-opacity=".93356"/>
<path d="m67.498 43.938c0-12.505-11.403-21.935-26.522-21.935-15.195 0-27.097 9.6368-27.097 21.938 0 7.375 5.2173 12.659 9.7489 15.857v10.782c0 0.27622 0.13973 0.53131 0.37046 0.68242 0.13486 0.08611 0.28759 0.12998 0.44195 0.12998 0.11211 0 0.22585-0.02437 0.33309-0.07149 0.23722-0.10561 5.7827-2.6257 10.527-7.8137 2.0554 0.38183 4.3805 0.74904 6.4895 0.74904 15.376 0 25.708-8.1663 25.708-20.318zm-25.709 18.693c-2.1285 0-4.5479-0.40783-6.6341-0.80591-0.28109-0.05037-0.57031 0.0455-0.76041 0.25835-3.3309 3.7566-7.245 6.1434-9.1412 7.1719v-9.8821c0-0.2681-0.13161-0.51669-0.35258-0.66942-4.2863-2.949-9.3963-7.9015-9.3963-14.763 0-11.392 11.188-20.313 25.472-20.313 14.194 0 24.897 8.7317 24.897 20.31 0 11.182-9.679 18.693-24.085 18.693zm-1.1-21.943c-1.7922 0-3.2496 1.4575-3.2496 3.2496s1.4575 3.2496 3.2496 3.2496c1.7922 0 3.2496-1.4575 3.2496-3.2496s-1.4575-3.2496-3.2496-3.2496zm0 4.8744c-0.89527 0-1.6248-0.72792-1.6248-1.6248s0.72954-1.6248 1.6248-1.6248c0.89527 0 1.6248 0.72792 1.6248 1.6248s-0.72954 1.6248-1.6248 1.6248zm11.374-4.8744c-1.7922 0-3.2496 1.4575-3.2496 3.2496s1.4575 3.2496 3.2496 3.2496c1.7922 0 3.2496-1.4575 3.2496-3.2496s-1.4575-3.2496-3.2496-3.2496zm0 4.8744c-0.89527 0-1.6248-0.72792-1.6248-1.6248s0.72954-1.6248 1.6248-1.6248c0.89527 0 1.6248 0.72792 1.6248 1.6248s-0.72954 1.6248-1.6248 1.6248zm-22.747-4.7201c-1.7922 0-3.2496 1.4575-3.2496 3.2496 0 1.7922 1.4575 3.2496 3.2496 3.2496 1.7922 0 3.2496-1.4575 3.2496-3.2496 0-1.7922-1.4575-3.2496-3.2496-3.2496zm0 4.8744c-0.89527 0-1.6248-0.72792-1.6248-1.6248s0.72954-1.6248 1.6248-1.6248c0.89527 0 1.6248 0.72792 1.6248 1.6248s-0.72954 1.6248-1.6248 1.6248z" fill="#ccc" stroke="#000" stroke-width=".2"/>
</g>
<g transform="matrix(1.0826 0 0 1.0826 -114.15 -6.4867)">
<path d="m67.214 42.977c0 4.6059-0.61822 9.1232-4.0789 12.492-4.7785 4.6511-13.667 7.3636-22.03 7.3636-2.2431 0-4.4202-0.21511-6.4974-0.61968-0.8621-0.1679-1.4778 2.2623-2.9984 3.8136-2.1561 2.1997-5.3007 3.7549-6.3853 3.3082-2.1418-0.88204-0.05967-9.7606-1.7876-11.045-4.8515-3.6051-8.4406-9.7469-8.4406-15.313 0-10.966 11.69-19.855 26.109-19.855 14.42 0 26.109 8.8895 26.109 19.855z" fill="#fbfbfb" fill-opacity=".90698"/>
<path d="m67.498 43.938c0-12.505-11.403-21.935-26.522-21.935-15.195 0-27.097 9.6368-27.097 21.938 0 7.375 5.2173 12.659 9.7489 15.857v10.782c0 0.27622 0.13973 0.53131 0.37046 0.68242 0.13486 0.08611 0.28759 0.12998 0.44195 0.12998 0.11211 0 0.22585-0.02437 0.33309-0.07149 0.23722-0.10561 5.7827-2.6257 10.527-7.8137 2.0554 0.38183 4.3805 0.74904 6.4895 0.74904 15.376 0 25.708-8.1663 25.708-20.318zm-25.709 18.693c-2.1285 0-4.5479-0.40783-6.6341-0.80591-0.28109-0.05037-0.57031 0.0455-0.76041 0.25835-3.3309 3.7566-7.245 6.1434-9.1412 7.1719v-9.8821c0-0.2681-0.13161-0.51669-0.35258-0.66942-4.2863-2.949-9.3963-7.9015-9.3963-14.763 0-11.392 11.188-20.313 25.472-20.313 14.194 0 24.897 8.7317 24.897 20.31 0 11.182-9.679 18.693-24.085 18.693zm-1.1-21.943c-1.7922 0-3.2496 1.4575-3.2496 3.2496s1.4575 3.2496 3.2496 3.2496c1.7922 0 3.2496-1.4575 3.2496-3.2496s-1.4575-3.2496-3.2496-3.2496zm0 4.8744c-0.89527 0-1.6248-0.72792-1.6248-1.6248s0.72954-1.6248 1.6248-1.6248c0.89527 0 1.6248 0.72792 1.6248 1.6248s-0.72954 1.6248-1.6248 1.6248zm11.374-4.8744c-1.7922 0-3.2496 1.4575-3.2496 3.2496s1.4575 3.2496 3.2496 3.2496c1.7922 0 3.2496-1.4575 3.2496-3.2496s-1.4575-3.2496-3.2496-3.2496zm0 4.8744c-0.89527 0-1.6248-0.72792-1.6248-1.6248s0.72954-1.6248 1.6248-1.6248c0.89527 0 1.6248 0.72792 1.6248 1.6248s-0.72954 1.6248-1.6248 1.6248zm-22.747-4.7201c-1.7922 0-3.2496 1.4575-3.2496 3.2496 0 1.7922 1.4575 3.2496 3.2496 3.2496 1.7922 0 3.2496-1.4575 3.2496-3.2496 0-1.7922-1.4575-3.2496-3.2496-3.2496zm0 4.8744c-0.89527 0-1.6248-0.72792-1.6248-1.6248s0.72954-1.6248 1.6248-1.6248c0.89527 0 1.6248 0.72792 1.6248 1.6248s-0.72954 1.6248-1.6248 1.6248z" fill="#ccc" stroke="#000" stroke-width=".2"/>
</g>
</g>
<rect transform="matrix(1.0692 0 0 1.0477 3.3855 39.78)" x="2" y="-30" width="75.966" height="69.024" rx="3.957" ry="3.957" clip-path="url(#clipPath4156-4-1)" fill="url(#linearGradient4767)" opacity=".50781"/>
</g>
</g>
</g>
</svg>
