<?xml version="1.0" encoding="UTF-8"?>
<svg version="1.1" viewBox="0 0 32 32" xmlns="http://www.w3.org/2000/svg" xmlns:cc="http://creativecommons.org/ns#" xmlns:dc="http://purl.org/dc/elements/1.1/" xmlns:rdf="http://www.w3.org/1999/02/22-rdf-syntax-ns#" xmlns:xlink="http://www.w3.org/1999/xlink">
<defs>
<linearGradient id="linearGradient4071" x1="6" x2="90" y1="47" y2="47" gradientTransform="matrix(1.1071 0 0 1.1071 -4.9939 -3.6207)" gradientUnits="userSpaceOnUse">
<stop stop-color="#b0b8be" offset="0"/>
<stop stop-color="#fff" offset=".25"/>
<stop stop-color="#a5acb4" offset=".5"/>
<stop stop-color="#fbf9f9" offset=".75"/>
<stop stop-color="#b8bdc3" offset="1"/>
</linearGradient>
<linearGradient id="linearGradient4129" x1="1.5" x2="94.5" y1="88.172" y2="88.172" gradientTransform="translate(.14895 .41503)" gradientUnits="userSpaceOnUse">
<stop offset="0"/>
<stop stop-opacity=".58824" offset=".1"/>
<stop stop-opacity=".58824" offset=".9"/>
<stop offset="1"/>
</linearGradient>
<radialGradient id="radialGradient7462" cx="13.948" cy="44.893" r="43.199" gradientTransform="matrix(.97513 0 0 .049191 34.048 80.582)" gradientUnits="userSpaceOnUse" xlink:href="#linearGradient3737"/>
<linearGradient id="linearGradient3737">
<stop stop-color="#fff" offset="0"/>
<stop stop-color="#fff" stop-opacity="0" offset="1"/>
</linearGradient>
<radialGradient id="radialGradient7464" cx="13.948" cy="44.893" r="43.199" gradientTransform="matrix(.88833 0 0 .049191 31.96 -90.317)" gradientUnits="userSpaceOnUse" xlink:href="#linearGradient3737"/>
<linearGradient id="linearGradient4024" x1="45.448" x2="45.448" y1="92.54" y2="7.0165" gradientTransform="scale(1.0059 .99417)" gradientUnits="userSpaceOnUse">
<stop offset="0"/>
<stop stop-opacity=".58824" offset="1"/>
</linearGradient>
<filter id="filter3174-7" color-interpolation-filters="sRGB">
<feGaussianBlur stdDeviation="1.71"/>
</filter>
<linearGradient id="linearGradient4026" x1="32.835" x2="68.879" y1="30.932" y2="66.719" gradientTransform="matrix(1.6566 0 0 1.6955 -38.616 810.26)" gradientUnits="userSpaceOnUse">
<stop stop-color="#505050" offset="0"/>
<stop stop-color="#141414" offset=".5"/>
<stop stop-color="#505050" offset="1"/>
</linearGradient>
<radialGradient id="radialGradient4028" cx="50.936" cy="49.822" r="13.237" gradientTransform="matrix(1.7938 0 0 1.8227 -45.476 802.35)" gradientUnits="userSpaceOnUse">
<stop stop-color="#ae74e0" offset="0"/>
<stop stop-color="#ae74e0" offset=".86611"/>
<stop stop-color="#e1b0ff" offset=".93921"/>
<stop stop-color="#765599" offset="1"/>
</radialGradient>
<radialGradient id="radialGradient4030" cx="50.936" cy="49.822" r="13.237" gradientTransform="matrix(1.503 0 0 1.5273 -30.666 817.07)" gradientUnits="userSpaceOnUse">
<stop stop-color="#e0c3ff" offset="0"/>
<stop stop-color="#e0c3ff" offset=".89171"/>
<stop stop-color="#7c5fac" offset="1"/>
</radialGradient>
<radialGradient id="radialGradient4032" cx="50.936" cy="49.822" r="13.237" gradientTransform="matrix(.8371 0 0 .85061 3.2542 850.79)" gradientUnits="userSpaceOnUse">
<stop stop-color="#5defff" offset="0"/>
<stop stop-color="#660e73" offset="1"/>
</radialGradient>
<radialGradient id="radialGradient4034" cx="50.936" cy="49.822" r="13.237" gradientTransform="matrix(1.7938 0 0 1.8227 -45.476 802.35)" gradientUnits="userSpaceOnUse">
<stop stop-opacity=".098039" offset="0"/>
<stop offset="1"/>
</radialGradient>
<linearGradient id="linearGradient4036" x1="53.473" x2="53.473" y1="63.649" y2="53.708" gradientTransform="matrix(1.4224 -1.8235e-8 -2.7475e-8 1.4276 -589.74 653.85)" gradientUnits="userSpaceOnUse">
<stop stop-color="#fff" stop-opacity=".58824" offset="0"/>
<stop stop-color="#fff" stop-opacity="0" offset="1"/>
</linearGradient>
<linearGradient id="linearGradient4767" x1="2.7714" x2="50.528" y1="-28.642" y2="14.514" gradientUnits="userSpaceOnUse" xlink:href="#linearGradient3737"/>
<clipPath id="clipPath4156-4-1">
<path d="m27.046-55.695-14.214 13.321h0.06127l15.653 21.771 10.231-10.546c-0.2169-1.1522-11.311-23.67-11.732-24.546zm-17.399 16.313-14.888 14.062 21.229 17.515 10.385-10.577zm31.491 12.951-9.7413 9.7136 8.9448 12.458 7.7808-7.555zm-49.84 4.3788-13.754 12.982 26.283 13.846 0.06127-0.0617-0.12253-0.0617 9.8332-10.053-22.301-16.652zm38.015 7.4008-9.8025 9.7753 11.579 9.5594 7.6276-7.4008-8.6691-11.009zm20.187 5.674-7.3825 7.2158 6.1878 8.5418 5.8202-6.1365zm-32.195 6.3215-9.5575 9.4977 13.662 7.185 7.9339-7.6784zm23.312 2.3744-7.1068 6.9383 8.3628 6.9074 5.3608-5.674-0.06127-0.0925-0.0919 0.12335-6.4635-8.2026zm-8.7304 8.5418-7.5051 7.3392 10.354 5.4581c1.3975-1.321 5.6751-6.1229 5.8509-6.3215z" fill="#fff" opacity=".6"/>
</clipPath>
<radialGradient id="radialGradient925" cx="140.62" cy="940.39" r="7.1925" gradientTransform="matrix(.037033 -1.1568 .81962 .028549 -635.36 1076.2)" gradientUnits="userSpaceOnUse">
<stop stop-color="#5defff" offset="0"/>
<stop stop-color="#41094a" offset="1"/>
</radialGradient>
</defs>
<metadata>
<rdf:RDF>
<cc:Work rdf:about="">
<dc:format>image/svg+xml</dc:format>
<dc:type rdf:resource="http://purl.org/dc/dcmitype/StillImage"/>
<dc:title/>
<dc:date>2017</dc:date>
<dc:creator>
<cc:Agent>
<dc:title>Cristian Pozzessere "ilnanny"</dc:title>
</cc:Agent>
</dc:creator>
<dc:subject>
<rdf:Bag>
<rdf:li>Global language</rdf:li>
</rdf:Bag>
</dc:subject>
<dc:description>Playing with Inkscape on Gnu/Linux O. S.</dc:description>
<dc:contributor>
<cc:Agent>
<dc:title>In the night, alone like a dog.</dc:title>
</cc:Agent>
</dc:contributor>
<cc:license rdf:resource="http://creativecommons.org/licenses/by-sa/4.0/"/>
</cc:Work>
<cc:License rdf:about="http://creativecommons.org/licenses/by-sa/4.0/">
<cc:permits rdf:resource="http://creativecommons.org/ns#Reproduction"/>
<cc:permits rdf:resource="http://creativecommons.org/ns#Distribution"/>
<cc:requires rdf:resource="http://creativecommons.org/ns#Notice"/>
<cc:requires rdf:resource="http://creativecommons.org/ns#Attribution"/>
<cc:permits rdf:resource="http://creativecommons.org/ns#DerivativeWorks"/>
<cc:requires rdf:resource="http://creativecommons.org/ns#ShareAlike"/>
</cc:License>
</rdf:RDF>
</metadata>
<g transform="translate(0 -1026.5)">
<g transform="translate(-.14896 1026.1)">
<g transform="matrix(.32292 0 0 .32292 .10086 .78098)">
<path d="m89.292 0.41503h-82.286c-3.7988 0-6.8571 3.0583-6.8571 6.8571v82.286c0 3.7989 3.0583 6.8571 6.8571 6.8571h82.286c3.7989 0 6.8571-3.0583 6.8571-6.8571v-82.286c0-3.7989-3.0583-6.8571-6.8571-6.8571z" opacity=".15"/>
<path d="m88.649 1.165h-81c-3.7395 0-6.75 3.0105-6.75 6.75v81c0 3.7395 3.0105 6.75 6.75 6.75h81c3.7395 0 6.75-3.0105 6.75-6.75v-81c0-3.7395-3.0105-6.75-6.75-6.75z" opacity=".15"/>
<path d="m88.006 1.915h-79.714c-3.6801 0-6.6429 2.9627-6.6429 6.6429v79.714c0 3.6801 2.9627 6.6429 6.6429 6.6429h79.714c3.6801 0 6.6429-2.9627 6.6429-6.6429v-79.714c0-3.6801-2.9627-6.6429-6.6429-6.6429z" fill="url(#linearGradient4071)"/>
<path d="m11.39 6.8022c-2.8565 0-5.1241 2.2884-5.1241 5.171v68.58c1.0972 1.6845 2.9688 2.8117 5.1241 2.8117h73.787c2.1553 0 4.0269-1.1272 5.1241-2.8117v-68.58c0-2.8826-2.2676-5.171-5.1241-5.171z" fill="#f5f3f3" opacity=".77865"/>
<path d="m9.974 5.1445c-3.1166 0-5.668 2.5395-5.668 5.646v69.278c0 3.1065 2.5513 5.646 5.668 5.646h76.792c3.1166 0 5.668-2.5395 5.668-5.646v-69.278c0-3.1065-2.5513-5.646-5.668-5.646zm0 2.3194h76.792c1.8881 0 3.352 1.4801 3.352 3.3266v69.278c0 1.8465-1.4639 3.3266-3.352 3.3266h-76.792c-1.8881 0-3.352-1.4801-3.352-3.3266v-69.278c0-1.8465 1.4639-3.3266 3.352-3.3266z" color="#000000" fill="#5f6162" style="text-decoration-line:none;text-indent:0;text-transform:none"/>
<path d="m1.649 82.259v6c0 3.6801 2.9761 6.6562 6.6562 6.6562h79.687c3.6801 0 6.6563-2.9761 6.6563-6.6562v-6c0 3.6801-2.9761 6.6562-6.6563 6.6562h-79.687c-3.6801 0-6.6562-2.9761-6.6562-6.6562z" fill="url(#linearGradient4129)" opacity=".65818"/>
<rect x="5.524" y="80.665" width="84.25" height="4.25" rx="0" ry="4.25" fill="url(#radialGradient7462)" opacity=".55"/>
<rect transform="rotate(90)" x="5.975" y="-90.234" width="76.75" height="4.25" rx="0" ry="4.25" fill="url(#radialGradient7464)" opacity=".669"/>
<g transform="matrix(.97238 0 0 .93222 -58.155 -859.38)">
<rect transform="rotate(90)" x="931.66" y="-75.654" width="78.393" height="4.9488" stroke="#f59bff" stroke-opacity=".74042" stroke-width="1.0169"/>
<rect x="68.884" y="1001.6" width="81.498" height="4.9085" stroke="#f59bff" stroke-opacity=".74042" stroke-width="1.0169"/>
<g transform="matrix(.96763 0 0 .99664 46.449 924.97)">
<g display="none">
<rect x="5" y="7" width="86" height="85" rx="6" ry="6" fill="url(#linearGradient4024)" filter="url(#filter3174-7)" opacity=".9"/>
</g>
<g transform="translate(7.3665 -48.887)">
<g transform="matrix(1.0306 0 0 1.0379 -17.542 11.565)">
<g transform="matrix(.98761 0 0 1.0054 5.1431 13.974)">
<g transform="matrix(1.0116 0 0 .99792 3.3896 21.061)">
<g transform="matrix(-.97118 0 0 .96028 102.26 -812.99)">
<path d="m-4.9483 862.73v70.557h47.038c19.484 0 35.279-15.795 35.279-35.279s-15.795-35.279-35.279-35.279z" fill="none" opacity=".37324"/>
<g transform="translate(-2.1361)">
<g transform="translate(-4.8201 -4.3817)">
<ellipse transform="scale(-1,1)" cx="-45.851" cy="893.3" rx="31.157" ry="30.25" fill="#141414"/>
<ellipse cx="45.893" cy="893.17" rx="29.285" ry="29.758" opacity=".15" stroke="#000" stroke-width="3.1914"/>
<ellipse cx="45.893" cy="893.17" rx="29.285" ry="29.758" fill="url(#linearGradient4026)" stroke="#fff" stroke-width=".54355"/>
<ellipse cx="45.893" cy="893.17" rx="23.745" ry="24.128" fill="url(#radialGradient4028)"/>
<ellipse cx="45.893" cy="893.17" rx="20.579" ry="20.911" fill="url(#radialGradient4030)"/>
<ellipse cx="45.893" cy="893.17" rx="17.413" ry="17.694" fill="#402370"/>
<ellipse cx="45.893" cy="893.17" rx="14.247" ry="14.477" fill="#7c5fac"/>
<ellipse cx="45.893" cy="893.17" rx="11.081" ry="11.26" fill="url(#radialGradient4032)"/>
<path d="m45.893 881.91c-6.1198 0-11.081 5.0412-11.081 11.26 0 6.2186 4.9611 11.26 11.081 11.26 6.1198 0 11.081-5.0412 11.081-11.26 0-6.2185-4.9611-11.26-11.081-11.26zm0 3.2171c4.3713 0 7.9149 3.6008 7.9149 8.0426 0 4.4418-3.5436 8.0426-7.9149 8.0426-4.3713 0-7.9149-3.6008-7.9149-8.0426 0-4.4418 3.5436-8.0426 7.9149-8.0426z" opacity=".09"/>
<path d="m45.893 881.91c-6.1198 0-11.081 5.0412-11.081 11.26 0 6.2186 4.9611 11.26 11.081 11.26 6.1198 0 11.081-5.0412 11.081-11.26 0-6.2185-4.9611-11.26-11.081-11.26zm0 2.4128c4.8084 0 8.7064 3.9609 8.7064 8.8469 0 4.886-3.898 8.8469-8.7064 8.8469-4.8084 0-8.7064-3.9609-8.7064-8.8469 0-4.886 3.898-8.8469 8.7064-8.8469z" opacity=".12"/>
<path d="m45.893 881.91c-6.1198 0-11.081 5.0412-11.081 11.26 0 6.2186 4.9611 11.26 11.081 11.26 6.1198 0 11.081-5.0412 11.081-11.26 0-6.2185-4.9611-11.26-11.081-11.26zm0 1.6085c5.2456 0 9.4979 4.321 9.4979 9.6512 0 5.3302-4.2524 9.6512-9.4979 9.6512-5.2456 0-9.4979-4.321-9.4979-9.6512 0-5.3302 4.2524-9.6512 9.4979-9.6512z" opacity=".16"/>
<path d="m45.893 881.91c-6.1198 0-11.081 5.0412-11.081 11.26 0 6.2186 4.9611 11.26 11.081 11.26 6.1198 0 11.081-5.0412 11.081-11.26 0-6.2185-4.9611-11.26-11.081-11.26zm0 0.80426c5.6827 0 10.289 4.681 10.289 10.455 0 5.7744-4.6067 10.455-10.289 10.455-5.6827 0-10.289-4.6811-10.289-10.455 0-5.7744 4.6067-10.455 10.289-10.455z" opacity=".2"/>
<path d="m45.893 875.47c-9.6169 0-17.413 7.9218-17.413 17.694 0 9.772 7.796 17.694 17.413 17.694 9.6169 0 17.413-7.9218 17.413-17.694 0-9.772-7.796-17.694-17.413-17.694zm0 2.4128c8.3055 0 15.038 6.8415 15.038 15.281 0 8.4395-6.7329 15.281-15.038 15.281-8.3055 0-15.038-6.8415-15.038-15.281 0-8.4395 6.7329-15.281 15.038-15.281z" opacity=".1"/>
<path d="m45.893 875.47c-9.6169 0-17.413 7.9218-17.413 17.694 0 9.772 7.796 17.694 17.413 17.694 9.6169 0 17.413-7.9218 17.413-17.694 0-9.772-7.796-17.694-17.413-17.694zm0 1.6085c8.7426 0 15.83 7.2016 15.83 16.085 0 8.8837-7.0873 16.085-15.83 16.085s-15.83-7.2016-15.83-16.085c0-8.8836 7.0873-16.085 15.83-16.085z" opacity=".15"/>
<path d="m45.893 875.47c-9.6169 0-17.413 7.9218-17.413 17.694 0 9.772 7.796 17.694 17.413 17.694 9.6169 0 17.413-7.9218 17.413-17.694 0-9.772-7.796-17.694-17.413-17.694zm0 0.80426c9.1797 0 16.621 7.5617 16.621 16.89 0 9.3278-7.4416 16.89-16.621 16.89s-16.621-7.5617-16.621-16.89c0-9.3278 7.4416-16.89 16.621-16.89z" opacity=".2"/>
<ellipse cx="45.893" cy="893.17" rx="23.745" ry="24.128" fill="url(#radialGradient4034)" opacity=".5941"/>
<ellipse transform="matrix(.77832 -.62787 .61566 .78801 0 0)" cx="-513.54" cy="737.45" rx="12.885" ry="7.1432" fill="url(#linearGradient4036)" opacity=".814" stroke="#fff" stroke-opacity=".39216" stroke-width=".28501"/>
<path d="m45.893 872.26c-8.6513 0-16.383 5.5123-19.342 13.773l7.4203 2.7144c1.8209-5.0835 6.598-8.4448 11.922-8.4448z" fill="#fff" opacity=".2"/>
<path d="m26.006 887.74c-0.46546 1.7652-0.69256 3.6014-0.69256 5.4288h7.9149c0-1.1246 0.15878-2.2313 0.44521-3.3176z" fill="#fff" opacity=".2"/>
</g>
</g>
</g>
</g>
</g>
</g>
</g>
</g>
<rect x="134" y="933.78" width="13.232" height="13.232" rx="1.3232" ry="1.3232" fill="url(#radialGradient925)" stroke="#b1b1b1" stroke-opacity=".95319" stroke-width="1.1525"/>
</g>
<rect transform="matrix(1.0692 0 0 1.0477 4.4442 38.894)" x="2" y="-30" width="75.966" height="69.024" rx="3.957" ry="3.957" clip-path="url(#clipPath4156-4-1)" fill="url(#linearGradient4767)" opacity=".373"/>
</g>
</g>
</g>
</svg>
