<?xml version="1.0" encoding="UTF-8"?>
<svg version="1.1" viewBox="0 0 32 32" xmlns="http://www.w3.org/2000/svg" xmlns:cc="http://creativecommons.org/ns#" xmlns:dc="http://purl.org/dc/elements/1.1/" xmlns:rdf="http://www.w3.org/1999/02/22-rdf-syntax-ns#" xmlns:xlink="http://www.w3.org/1999/xlink">
<defs>
<linearGradient id="linearGradient4133">
<stop stop-color="#fff" offset="0"/>
<stop stop-color="#fff" stop-opacity="0" offset="1"/>
</linearGradient>
<style type="text/css">.fil2 {fill:#11A861}
    .fil0 {fill:#3777E3}
    .fil1 {fill:#FFCF63}</style>
<linearGradient id="linearGradient4312" x1="414.19" x2="414.19" y1="539.31" y2="508.39" gradientUnits="userSpaceOnUse">
<stop stop-color="#e2f4c4" offset="0"/>
<stop stop-color="#fdfff5" offset="1"/>
</linearGradient>
<linearGradient id="linearGradient5411" x1="6" x2="90" y1="47" y2="47" gradientTransform="matrix(1.1393 0 0 1.1393 -7.0493 -27.001)" gradientUnits="userSpaceOnUse">
<stop stop-color="#b7b7b7" offset="0"/>
<stop stop-color="#fff" offset=".25"/>
<stop stop-color="#9d9d9d" offset=".5"/>
<stop stop-color="#fafafa" offset=".75"/>
<stop stop-color="#b7b7b7" offset="1"/>
</linearGradient>
<radialGradient id="radialGradient5619" cx="158" cy="6.2132" r="41" gradientTransform="matrix(0 1.6209 -2.0383 0 160.66 -243.04)" gradientUnits="userSpaceOnUse" xlink:href="#linearGradient4133"/>
<radialGradient id="radialGradient5621" cx="48" cy="-27" r="42" gradientTransform="matrix(-1.0722 0 0 -.87502 199.46 -19.126)" gradientUnits="userSpaceOnUse">
<stop stop-color="#fff" offset="0"/>
<stop stop-color="#fff" offset=".8"/>
<stop stop-color="#fff" stop-opacity="0" offset="1"/>
</radialGradient>
<linearGradient id="linearGradient4539" x1="-94" x2="-10.188" y1="82.984" y2="82.984" gradientTransform="matrix(1 0 0 .88906 200 8.9432)" gradientUnits="userSpaceOnUse">
<stop offset="0"/>
<stop stop-opacity=".58824" offset=".1"/>
<stop stop-opacity=".58824" offset=".9"/>
<stop offset="1"/>
</linearGradient>
<linearGradient id="linearGradient1137" x1="84.683" x2="7.8075" y1="35.315" y2="-2.0534" gradientUnits="userSpaceOnUse">
<stop stop-color="#7eb522" offset="0"/>
<stop stop-color="#b8e80c" offset="1"/>
</linearGradient>
<linearGradient id="linearGradient5698" x1="6" x2="90" y1="47" y2="47" gradientTransform="matrix(1.1393 0 0 1.1393 -7.0493 -27.001)" gradientUnits="userSpaceOnUse">
<stop stop-color="#fff" stop-opacity="0" offset="0"/>
<stop stop-color="#fff" stop-opacity=".85135" offset=".036815"/>
<stop stop-color="#fff" stop-opacity="0" offset=".065061"/>
<stop stop-color="#fff" stop-opacity="0" offset=".94494"/>
<stop stop-color="#fff" stop-opacity=".85135" offset=".96582"/>
<stop stop-color="#fff" stop-opacity="0" offset="1"/>
</linearGradient>
<linearGradient id="linearGradient3980" x1="2.4652" x2="59.378" y1=".27862" y2=".27862" gradientTransform="matrix(1.0034 0 0 1.005 33.126 20.019)" gradientUnits="userSpaceOnUse" xlink:href="#linearGradient4133"/>
</defs>
<metadata>
<rdf:RDF>
<cc:Work rdf:about="">
<dc:format>image/svg+xml</dc:format>
<dc:type rdf:resource="http://purl.org/dc/dcmitype/StillImage"/>
<dc:title/>
</cc:Work>
</rdf:RDF>
</metadata>
<g>
<g transform="matrix(.32393 0 0 .32393 .45141 -332.07)">
<g transform="translate(.36363 1048)">
<path transform="translate(-.36363 -21.455)" d="m1 40v21l1 1v-21z" fill="#fff" fill-opacity=".35071"/>
<path d="m88.651-21.305h-82.029c-3.787 0-6.8357 3.0487-6.8357 6.8357v82.029c0 3.787 3.0487 6.8357 6.8357 6.8357h82.029c3.787 0 6.8357-3.0487 6.8357-6.8357v-82.029c0-3.787-3.0487-6.8357-6.8357-6.8357z" fill="url(#linearGradient5411)"/>
<g transform="matrix(1.1393 0 0 1.1393 -120.98 -26.431)">
<path d="m112 5.5c-2.7873 0-5 2.2127-5 5v66.312c1.0707 1.6288 2.8969 2.7188 5 2.7188h72c2.1031 0 3.9293-1.09 5-2.7188v-66.312c0-2.7873-2.2127-5-5-5z" fill="url(#radialGradient5619)" opacity=".2"/>
<path d="m112 4.5c-3.324 0-6 2.676-6 6v15h1v-15c0-2.7873 2.2127-5 5-5h72c2.7873 0 5 2.2127 5 5v15h1v-15c0-3.324-2.676-6-6-6z" fill="url(#radialGradient5621)" opacity=".45"/>
<path d="m106 76.942v6.2234c0 2.9552 2.676 5.3344 6 5.3344h72c3.324 0 6-2.3791 6-5.3344v-6.2234c0 2.9552-2.676 5.3344-6 5.3344h-72c-3.324 0-6-2.3791-6-5.3344z" fill="url(#linearGradient4539)" opacity=".46965"/>
</g>
<g transform="matrix(.98961 0 0 1.0556 -3.4511 -18.735)">
<circle transform="matrix(1.2467 0 0 1.0634 -54.59 -6.5568)" cx="70.373" cy="79.209" r="2.791" fill="#1c1c1c" opacity=".71"/>
<circle transform="matrix(1.0374 0 0 .91042 -39.857 5.3629)" cx="70.373" cy="79.209" r="2.791" fill="#fff"/>
<circle transform="matrix(.70317 0 0 .6171 -16.336 28.596)" cx="70.373" cy="79.209" r="2.791" fill="#114751"/>
<circle transform="matrix(1.2467 0 0 1.0634 -20.114 -6.5568)" cx="70.373" cy="79.209" r="2.791" fill="#1c1c1c" opacity=".71"/>
<circle transform="matrix(1.0374 0 0 .91042 -5.3813 5.3629)" cx="70.373" cy="79.209" r="2.791" fill="#fff"/>
<circle transform="matrix(.70317 0 0 .6171 18.139 28.596)" cx="70.373" cy="79.209" r="2.791" fill="#114751"/>
<rect transform="matrix(1.014 0 0 .95205 3.1886 -2.9106)" x="40.449" y="83.596" width="12.674" height="3.236" rx="1.1481" ry="1.1481" fill="#0c2f31" fill-opacity=".90454" opacity=".75097" stroke="#fff" stroke-width=".4999"/>
</g>
<path d="m7.4173 36.677c-1.8851 0-3.6495 0.91815-4.7591 2.2718v15.089c0 2.4045 2.1226 4.3402 4.7591 4.3402h80.905c2.6365 0 4.7591-1.9357 4.7591-4.3402v-15.089c-1.1096-1.3537-2.874-2.2718-4.7591-2.2718zm0 3.2552h80.905c1.3594 0 2.3796 0.93033 2.3796 2.1701v11.936c0 1.2398-1.0201 2.1701-2.3796 2.1701h-80.905c-1.3594 0-2.3796-0.93033-2.3796-2.1701v-11.936c0-1.2398 1.0201-2.1701 2.3796-2.1701z" color="#000000" opacity=".02" style="text-decoration-line:none;text-indent:0;text-transform:none"/>
<path d="m7.4173-17.576h80.905c2.6365 0 4.7591 1.9357 4.7591 4.3402v67.273c0 2.4045-2.1226 4.3402-4.7591 4.3402h-80.905c-2.6365 0-4.7591-1.9357-4.7591-4.3402v-67.273c0-2.4045 2.1226-4.3402 4.7591-4.3402z" color="#000000" fill="url(#linearGradient1137)"/>
<g transform="matrix(.94328 0 0 .94328 -419.42 -445.38)">
<g transform="matrix(2.1249 0 0 2.1249 -373.04 -619.31)" fill-rule="evenodd">
<path d="m408.62 509.6c-4.8844 0-9.2173 2.316-12.017 5.8946l1.9184 1.2228c2.3941-2.9422 6.0513-4.8168 10.128-4.8168 7.2079 0 13.059 5.869 13.059 13.102 0 7.2278-5.8512 13.097-13.059 13.097-4.0624 0-7.7067-1.8644-10.103-4.7912l-1.9183 1.2228c2.8096 3.5684 7.1284 5.869 12.017 5.869 8.4607 0 15.322-6.8968 15.322-15.397 0-8.4955-6.8668-15.392-15.322-15.392m-15.478 6.4053v17.964l15.569-9.0716m-0.1154-9.2924c-2.7544 0-5.2293 1.1984-6.9476 3.0974l1.9889 1.2434c1.2772-1.2677 3.0301-2.0453 4.9639-2.0453 3.9124 0 7.0874 3.2078 7.0874 7.1572 0 3.9546-3.1712 7.1624-7.0874 7.1624-1.9684 0-3.7469-0.80708-5.0293-2.1146l-1.9183 1.2228c1.7183 1.899 4.188 3.0974 6.9476 3.0974 5.1806 0 9.3814-4.2202 9.3814-9.413 0-5.1979-4.2022-9.413-9.3814-9.413" fill-opacity=".058824"/>
<path d="m408.62 509.2c-4.8844 0-9.2173 2.316-12.017 5.8946l1.9184 1.2228c2.3941-2.9422 6.0513-4.8168 10.128-4.8168 7.2079 0 13.059 5.869 13.059 13.102 0 7.2278-5.8512 13.097-13.059 13.097-4.0624 0-7.7067-1.8644-10.103-4.7912l-1.9183 1.2228c2.8096 3.5684 7.1284 5.869 12.017 5.869 8.4607 0 15.322-6.8968 15.322-15.397 0-8.4955-6.8668-15.392-15.322-15.392m-15.478 6.4053v17.964l15.569-9.0716m-0.1154-9.2924c-2.7544 0-5.2293 1.1984-6.9476 3.0974l1.9889 1.2434c1.2772-1.2677 3.0301-2.0453 4.9639-2.0453 3.9124 0 7.0874 3.2078 7.0874 7.1572 0 3.9546-3.1712 7.1624-7.0874 7.1624-1.9684 0-3.7469-0.80708-5.0293-2.1146l-1.9183 1.2228c1.7183 1.899 4.188 3.0974 6.9476 3.0974 5.1806 0 9.3814-4.2202 9.3814-9.413 0-5.1979-4.2022-9.413-9.3814-9.413" fill-opacity=".11765"/>
<path d="m408.62 508.8c-4.8844 0-9.2173 2.316-12.017 5.8946l1.9184 1.2228c2.3941-2.9422 6.0513-4.8168 10.128-4.8168 7.2079 0 13.059 5.869 13.059 13.102 0 7.2278-5.8512 13.097-13.059 13.097-4.0624 0-7.7067-1.8644-10.103-4.7912l-1.9183 1.2228c2.8096 3.5684 7.1284 5.869 12.017 5.869 8.4607 0 15.322-6.8968 15.322-15.397 0-8.4955-6.8668-15.392-15.322-15.392m-15.478 6.4053v17.964l15.569-9.0716m-0.1154-9.2924c-2.7544 0-5.2293 1.1984-6.9476 3.0974l1.9889 1.2434c1.2772-1.2677 3.0301-2.0453 4.9639-2.0453 3.9124 0 7.0874 3.2078 7.0874 7.1572 0 3.9546-3.1712 7.1624-7.0874 7.1624-1.9684 0-3.7469-0.80708-5.0293-2.1146l-1.9183 1.2228c1.7183 1.899 4.188 3.0974 6.9476 3.0974 5.1806 0 9.3814-4.2202 9.3814-9.413 0-5.1979-4.2022-9.413-9.3814-9.413" fill-opacity=".23529"/>
<path d="m408.62 508.4c-4.8844 0-9.2173 2.316-12.017 5.8946l1.9184 1.2228c2.3941-2.9422 6.0513-4.8168 10.128-4.8168 7.2079 0 13.059 5.869 13.059 13.102 0 7.2278-5.8512 13.097-13.059 13.097-4.0624 0-7.7067-1.8644-10.103-4.7912l-1.9183 1.2228c2.8096 3.5684 7.1284 5.869 12.017 5.869 8.4607 0 15.322-6.8968 15.322-15.397 0-8.4955-6.8668-15.392-15.322-15.392m-15.478 6.4053v17.964l15.569-9.0716m-0.1154-9.2924c-2.7544 0-5.2293 1.1984-6.9476 3.0974l1.9889 1.2434c1.2772-1.2677 3.0301-2.0453 4.9639-2.0453 3.9124 0 7.0874 3.2078 7.0874 7.1572 0 3.9546-3.1712 7.1624-7.0874 7.1624-1.9684 0-3.7469-0.80708-5.0293-2.1146l-1.9183 1.2228c1.7183 1.899 4.188 3.0974 6.9476 3.0974 5.1806 0 9.3814-4.2202 9.3814-9.413 0-5.1979-4.2022-9.413-9.3814-9.413" fill="url(#linearGradient4312)"/>
<path transform="translate(384.57 499.8)" d="m24.082 10.102c-4.0765 0-7.7329 1.8742-10.127 4.8164l-1.4688-0.9375c-0.14808 0.1731-0.30874 0.33408-0.44922 0.51367l1.918 1.2227c2.3941-2.9422 6.0505-4.8164 10.127-4.8164 7.0731 0 12.828 5.6551 13.041 12.701 4e-3 -0.13355 0.01953-0.26392 0.01953-0.39844 0-7.233-5.8526-13.102-13.061-13.102zm-0.02344 6.0098c-1.9337 0-3.6877 0.7772-4.9648 2.0449l-1.4941-0.93555c-0.16819 0.16055-0.33807 0.3197-0.49414 0.49219l1.9883 1.2441c1.2772-1.2677 3.0311-2.0469 4.9648-2.0469 3.7787 0 6.8616 2.995 7.0684 6.7578 0.0073-0.13326 0.01953-0.26529 0.01953-0.40039 0-3.9494-3.1755-7.1562-7.0879-7.1562zm-0.58398 7.4004-14.875 8.668v0.79883l15.568-9.0703zm15.906 0.08984c-0.2126 8.3147-6.976 14.998-15.303 14.998-4.6426 0-8.7562-2.0899-11.566-5.3555l-0.45117 0.28711c2.8096 3.5684 7.1294 5.8691 12.018 5.8691 8.4607 0 15.322-6.8978 15.322-15.398 0-0.1352-0.01608-0.26602-0.01953-0.40039zm-5.9609 0.02148c-0.21095 5.0061-4.3157 9.0137-9.3613 9.0137-2.511 0-4.7757-0.99987-6.459-2.6094l-0.48828 0.31055c1.7183 1.899 4.1877 3.0977 6.9473 3.0977 5.1806 0 9.3809-4.2193 9.3809-9.4121 0-0.13508-0.01391-0.2667-0.01953-0.40039z" fill="#8cc722" fill-opacity=".31372"/>
<path transform="translate(384.57 499.8)" d="m24.053 8.5996c-4.8844 0-9.2163 2.3159-12.016 5.8945l0.22461 0.14258c2.8035-3.4262 7.0294-5.6367 11.791-5.6367l0.02539 0.00977c8.3887 0 15.205 6.7905 15.312 15.193 8.73e-4 -0.06768 0.0098-0.13328 0.0098-0.20117 0-8.4955-6.8667-15.393-15.322-15.393l-0.02539-0.00977zm0.0059 6.0098-0.0059 0.0059c-2.7544 0-5.229 1.1986-6.9473 3.0977l0.24609 0.1543c1.705-1.7515 4.0714-2.8516 6.7012-2.8516l0.0059-0.0059c5.1117 0 9.2633 4.1087 9.3711 9.2129 0.0014-0.06695 0.0098-0.13194 0.0098-0.19922 0-5.1979-4.2016-9.4141-9.3809-9.4141zm-15.459 0.40625v0.40039l15.221 8.6953 0.34766-0.20312zm28.533 9.1855c-0.1075 7.1351-5.9099 12.898-13.051 12.898-4.0624 0-7.7069-1.8642-10.104-4.791l-1.918 1.2227c0.07057 0.08962 0.15411 0.16785 0.22656 0.25586l1.6914-1.0781c2.3966 2.9268 6.0411 4.791 10.103 4.791 7.2079 0 13.061-5.8698 13.061-13.098 0-0.06787-0.0087-0.13355-0.0098-0.20117zm-5.9961 0.06836c-0.10629 3.8608-3.2291 6.9609-7.0781 6.9609-1.9684 0-3.747-0.80774-5.0293-2.1152l-1.918 1.2227c0.07726 0.08539 0.16388 0.16163 0.24414 0.24414l1.6738-1.0664c1.2823 1.3075 3.0609 2.1152 5.0293 2.1152 3.9162 0 7.0879-3.2075 7.0879-7.1621 0-0.06714-0.0079-0.13252-0.0098-0.19922z" fill="#fff" fill-opacity=".31372"/>
</g>
</g>
<path d="m8.3615-16.774h79.017c2.575 0 4.648 1.8912 4.648 4.2405v65.727c0 2.3492-2.073 4.2405-4.648 4.2405h-79.017c-2.575 0-4.648-1.8912-4.648-4.2405v-65.727c0-2.3492 2.073-4.2405 4.648-4.2405z" color="#000000" fill="none" stroke="#000" stroke-opacity=".7758" stroke-width="2.2904"/>
<path d="m88.651-21.304h-82.029c-3.787 0-6.8357 3.0487-6.8357 6.8357v82.029c0 3.787 3.0487 6.8357 6.8357 6.8357h82.029c3.787 0 6.8357-3.0487 6.8357-6.8357v-82.029c0-3.787-3.0487-6.8357-6.8357-6.8357z" fill="url(#linearGradient5698)" opacity=".72794"/>
<path d="m35.599-17.678c8.3294 26.184 16.985 51.751 25.766 75.954h26.584c2.6365 0 4.7591-1.9357 4.7591-4.3402v-67.273c0-2.4045-2.1225-4.3402-4.7591-4.3402z" color="#000000" fill="url(#linearGradient3980)" opacity=".30882"/>
</g>
</g>
</g>
</svg>
