<?xml version="1.0" encoding="UTF-8"?>
<!-- Created with Inkscape (http://www.inkscape.org/) -->
<svg version="1.1" viewBox="0 0 96 96" xmlns="http://www.w3.org/2000/svg" xmlns:cc="http://creativecommons.org/ns#" xmlns:dc="http://purl.org/dc/elements/1.1/" xmlns:rdf="http://www.w3.org/1999/02/22-rdf-syntax-ns#" xmlns:xlink="http://www.w3.org/1999/xlink">
<title>Lila-HD-Icon-Theme</title>
<script xlink:href=""/>
<defs>
<linearGradient id="linearGradient11804" x1="6" x2="90" y1="47" y2="47" gradientTransform="matrix(1.1393 0 0 1.1393 -6.6857 -37.546)" gradientUnits="userSpaceOnUse">
<stop stop-color="#b7b7b7" offset="0"/>
<stop stop-color="#fff" offset=".25"/>
<stop stop-color="#9d9d9d" offset=".5"/>
<stop stop-color="#fafafa" offset=".75"/>
<stop stop-color="#b7b7b7" offset="1"/>
</linearGradient>
<radialGradient id="radialGradient11806" cx="158" cy="6.2132" r="41" gradientTransform="matrix(0 1.8467 -2.3222 0 62.428 -313.86)" gradientUnits="userSpaceOnUse">
<stop stop-color="#fff" offset="0"/>
<stop stop-color="#fff" stop-opacity="0" offset="1"/>
</radialGradient>
<radialGradient id="radialGradient11808" cx="48" cy="-27" r="42" gradientTransform="matrix(-1.2215 0 0 -.9969 106.63 -58.766)" gradientUnits="userSpaceOnUse">
<stop stop-color="#fff" offset="0"/>
<stop stop-color="#fff" offset=".8"/>
<stop stop-color="#fff" stop-opacity="0" offset="1"/>
</radialGradient>
<linearGradient id="linearGradient11810" x1="-94" x2="-10.188" y1="82.984" y2="82.984" gradientTransform="matrix(1.1393 0 0 1.0129 107.24 -26.788)" gradientUnits="userSpaceOnUse">
<stop offset="0"/>
<stop stop-opacity=".58824" offset=".1"/>
<stop stop-opacity=".58824" offset=".9"/>
<stop offset="1"/>
</linearGradient>
<linearGradient id="linearGradient11816" x1="6" x2="90" y1="47" y2="47" gradientTransform="matrix(1.1393 0 0 1.1393 -6.6857 -37.546)" gradientUnits="userSpaceOnUse">
<stop stop-color="#fff" stop-opacity="0" offset="0"/>
<stop stop-color="#fff" stop-opacity=".85135" offset=".036815"/>
<stop stop-color="#fff" stop-opacity="0" offset=".065061"/>
<stop stop-color="#fff" stop-opacity="0" offset=".94494"/>
<stop stop-color="#fff" stop-opacity=".85135" offset=".96582"/>
<stop stop-color="#fff" stop-opacity="0" offset="1"/>
</linearGradient>
<linearGradient id="linearGradient11818" x1="2.4652" x2="59.378" y1=".27862" y2=".27862" gradientTransform="matrix(1.0034 0 0 1.005 33.489 9.4732)" gradientUnits="userSpaceOnUse">
<stop stop-color="#fff" offset="0"/>
<stop stop-color="#fff" stop-opacity="0" offset="1"/>
</linearGradient>
<linearGradient id="linearGradient4617" x1="3.0218" x2="93.445" y1="9.8558" y2="9.8558" gradientUnits="userSpaceOnUse">
<stop stop-color="#dd481f" stop-opacity=".94118" offset="0"/>
<stop stop-color="#ec6829" stop-opacity=".94118" offset="1"/>
</linearGradient>
</defs>
<metadata>
<rdf:RDF>
<cc:Work rdf:about="">
<dc:format>image/svg+xml</dc:format>
<dc:type rdf:resource="http://purl.org/dc/dcmitype/StillImage"/>
<dc:title>Lila-HD-Icon-Theme</dc:title>
<cc:license rdf:resource="http://creativecommons.org/licenses/by-sa/4.0/"/>
<dc:date>2015-2019</dc:date>
<dc:creator>
<cc:Agent>
<dc:title>Cristian Pozzessere  == ilnanny ==</dc:title>
</cc:Agent>
</dc:creator>
<dc:description>Playing with Inkscape on Gnu/Linux O. S.</dc:description>
<dc:subject>
<rdf:Bag>
<rdf:li>ilnanny</rdf:li>
<rdf:li>lila_hd</rdf:li>
<rdf:li>lila-hd</rdf:li>
<rdf:li>lila hd icon theme</rdf:li>
<rdf:li>Lila-HD-Icon-Theme lila hd icon lila icon</rdf:li>
</rdf:Bag>
</dc:subject>
<dc:coverage>CC-BY-SA</dc:coverage>
<dc:contributor>
<cc:Agent>
<dc:title>In the night, alone like a dog.</dc:title>
</cc:Agent>
</dc:contributor>
</cc:Work>
<cc:License rdf:about="http://creativecommons.org/licenses/by-sa/4.0/">
<cc:permits rdf:resource="http://creativecommons.org/ns#Reproduction"/>
<cc:permits rdf:resource="http://creativecommons.org/ns#Distribution"/>
<cc:requires rdf:resource="http://creativecommons.org/ns#Notice"/>
<cc:requires rdf:resource="http://creativecommons.org/ns#Attribution"/>
<cc:permits rdf:resource="http://creativecommons.org/ns#DerivativeWorks"/>
<cc:requires rdf:resource="http://creativecommons.org/ns#ShareAlike"/>
</cc:License>
</rdf:RDF>
</metadata>
<g transform="translate(0,32)">
<path d="m89.014-31.85h-82.029c-3.787 0-6.8357 3.0487-6.8357 6.8357v82.029c0 3.787 3.0487 6.8357 6.8357 6.8357h82.029c3.787 0 6.8357-3.0487 6.8357-6.8357v-82.029c0-3.787-3.0487-6.8357-6.8357-6.8357z" fill="url(#linearGradient11804)"/>
<path d="m6.9857-30.711c-3.1755 0-5.6964 2.5209-5.6964 5.6964v75.549c1.2198 1.8556 3.3004 3.0974 5.6964 3.0974h82.029c2.396 0 4.4766-1.2418 5.6964-3.0974v-75.549c0-3.1755-2.5209-5.6964-5.6964-5.6964z" fill="url(#radialGradient11806)" opacity=".2"/>
<path d="m6.9857-31.85c-3.787 0-6.8357 3.0487-6.8357 6.8357v17.089h1.1393v-17.089c0-3.1755 2.5209-5.6964 5.6964-5.6964h82.029c3.1755 0 5.6964 2.5209 5.6964 5.6964v17.089h1.1393v-17.089c0-3.787-3.0487-6.8357-6.8357-6.8357z" fill="url(#radialGradient11808)" opacity=".45"/>
<path d="m0.15 50.682v7.0902c0 3.3669 3.0487 6.0773 6.8357 6.0773h82.029c3.787 0 6.8357-2.7105 6.8357-6.0773v-7.0902c0 3.3669-3.0487 6.0773-6.8357 6.0773h-82.029c-3.787 0-6.8357-2.7105-6.8357-6.0773z" fill="url(#linearGradient11810)" opacity=".46965"/>
<ellipse cx="29.716" cy="52.709" rx="3.4436" ry="3.1329" fill="#1c1c1c" opacity=".71"/>
<ellipse cx="29.716" cy="52.501" rx="2.8653" ry="2.6822" fill="#fff"/>
<ellipse cx="29.716" cy="52.501" rx="1.9422" ry="1.8181" fill="#114751"/>
<ellipse cx="63.833" cy="52.709" rx="3.4436" ry="3.1329" fill="#1c1c1c" opacity=".71"/>
<ellipse cx="63.833" cy="52.501" rx="2.8653" ry="2.6822" fill="#fff"/>
<ellipse cx="63.833" cy="52.501" rx="1.9422" ry="1.8181" fill="#114751"/>
<rect x="40.657" y="51.658" width="12.718" height="3.252" rx="1.1521" ry="1.1538" fill="#0c2f31" fill-opacity=".90455" opacity=".75097" stroke="#fff" stroke-width=".502"/>
<path d="m7.7809 26.132c-1.8851 0-3.6495 0.91815-4.7591 2.2718v15.089c0 2.4045 2.1226 4.3402 4.7591 4.3402h80.905c2.6365 0 4.7591-1.9357 4.7591-4.3402v-15.089c-1.1096-1.3537-2.874-2.2718-4.7591-2.2718zm0 3.2552h80.905c1.3594 0 2.3796 0.93033 2.3796 2.1701v11.936c0 1.2398-1.0201 2.1701-2.3796 2.1701h-80.905c-1.3594 0-2.3796-0.93033-2.3796-2.1701v-11.936c0-1.2398 1.0201-2.1701 2.3796-2.1701z" color="#000000" opacity=".02" style="text-decoration-line:none;text-indent:0;text-transform:none"/>
<path d="m7.7809-28.121h80.905c2.6365 0 4.7591 1.9357 4.7591 4.3402v67.273c0 2.4045-2.1226 4.3402-4.7591 4.3402h-80.905c-2.6365 0-4.7591-1.9357-4.7591-4.3402v-67.273c0-2.4045 2.1226-4.3402 4.7591-4.3402z" color="#000000" fill="url(#linearGradient4617)"/>
<path d="m66.71-22.491c-3.736 0-6.7611 3.0417-6.7611 6.7913 0 3.7497 3.0251 6.7913 6.7611 6.7913 3.736 0 6.7611-3.0417 6.7611-6.7913 0-3.7497-3.0251-6.7913-6.7611-6.7913zm-14.279 5.3191c-4.1696 5.43e-4 -8.397 1.0576-12.198 2.9445-0.13518 0.06735-0.21949 0.18688-0.26004 0.33244-0.0411 0.14556-0.03275 0.29924 0.04728 0.42743l5.4845 8.7147c0.13897 0.22161 0.4213 0.31528 0.66193 0.21371 2.0299-0.86198 4.1363-1.2823 6.2647-1.2823 7.8288 0 14.659 5.8272 15.886 13.559 0.0411 0.25963 0.25891 0.45117 0.52009 0.45117h10.307c0.15032 0 0.30077-0.054326 0.40188-0.16622 0.10112-0.11189 0.1559-0.25268 0.14184-0.40368-0.55588-5.7368-2.9975-11.291-6.8557-15.601-0.17412-0.19553-0.46549-0.21409-0.68557-0.071239-1.5557 1.0092-3.3208 1.5435-5.1063 1.5435-5.2089 0-9.4319-4.2507-9.4325-9.4509 5.41e-4 -0.0026 0-0.18128 0-0.18997 0-0.25908-0.1934-0.50162-0.44916-0.54616-1.6287-0.28352-3.2097-0.47492-4.728-0.47492zm-16.548 5.699c-0.07137 0.01758-0.15409 0.04909-0.21276 0.09498-4.4708 3.4588-7.8236 8.3231-9.4561 13.701-0.0638 0.2102-0.0069 0.43303 0.16548 0.5699 2.2468 1.7875 3.5933 4.539 3.5933 7.3612 0 2.8222-1.346 5.5737-3.5933 7.3612-0.17141 0.13633-0.22929 0.35916-0.16548 0.5699 1.6195 5.3332 4.9459 10.179 9.3615 13.63 0.11842 0.09288 0.25372 0.1448 0.40188 0.11873 0.14762-0.02552 0.27403-0.13465 0.3546-0.2612l5.5318-8.691c0.14113-0.22215 0.10281-0.51428-0.09456-0.68863-3.4656-3.0628-5.4609-7.4544-5.4609-12.039 0-4.619 2.0064-9.0227 5.5082-12.087 0.19737-0.17327 0.25825-0.4654 0.1182-0.68863l-5.4845-8.7147c-0.08003-0.1271-0.20698-0.21139-0.3546-0.23746-0.07381-0.01302-0.14138-0.01758-0.21276 0zm-15.248 14.912c-3.8235 0-6.9266 3.1197-6.9266 6.9575 0 3.8379 3.1031 6.9338 6.9266 6.9338s6.9266-3.0959 6.9266-6.9338c0-3.8379-3.1031-6.9575-6.9266-6.9575zm58.51 8.9759-10.307 0.02375c-0.26009 5.43e-4 -0.50209 0.19372-0.54372 0.45117-1.2442 7.6742-8.0555 13.464-15.863 13.464-2.1532 0-4.283-0.44661-6.3356-1.3298-0.24009-0.10266-0.5208-0.03001-0.66193 0.18997l-5.5318 8.7147c-0.08056 0.12764-0.08729 0.28132-0.04728 0.42742 0.04001 0.14556 0.1254 0.26509 0.26004 0.33244 3.8311 1.9266 8.0988 2.9445 12.317 2.9445 1.5643 0 3.1976-0.15733 4.8463-0.45117 0.23143-0.04074 0.39795-0.21707 0.42552-0.45117 0.54939-4.7661 4.5621-8.3586 9.3379-8.3586 1.4805 0 3.0043 0.37535 4.3734 1.0923 0.20818 0.10917 0.44972 0.07393 0.61465-0.09498 4.3178-4.4229 7.0473-10.254 7.6594-16.385 0.01514-0.15045-0.04018-0.29125-0.14184-0.40368-0.10166-0.11243-0.25156-0.16676-0.40188-0.16622zm-12.175 18.356c-3.8235 0-6.9266 3.092-6.9266 6.9101 0 3.8181 3.1031 6.9101 6.9266 6.9101s6.9266-3.092 6.9266-6.9101c0-3.8181-3.1031-6.9101-6.9266-6.9101z" opacity=".3" stroke-width="1.0997"/>
<path d="m66.71-23.591c-3.736 0-6.7611 3.0417-6.7611 6.7913 0 3.7497 3.0251 6.7913 6.7611 6.7913 3.736 0 6.7611-3.0417 6.7611-6.7913 0-3.7497-3.0251-6.7913-6.7611-6.7913zm-14.279 5.3191c-4.1696 5.44e-4 -8.397 1.0576-12.198 2.9445-0.13518 0.06735-0.21949 0.18688-0.26004 0.33244-0.0411 0.14556-0.03275 0.29924 0.04728 0.42743l5.4845 8.7147c0.13897 0.22161 0.4213 0.31528 0.66193 0.21371 2.0299-0.86198 4.1363-1.2823 6.2647-1.2823 7.8288 0 14.659 5.8272 15.886 13.559 0.0411 0.25963 0.25891 0.45117 0.52009 0.45117h10.307c0.15032 0 0.30077-0.054326 0.40188-0.16622 0.10112-0.11189 0.1559-0.25268 0.14184-0.40368-0.55588-5.7368-2.9975-11.291-6.8557-15.601-0.17412-0.19553-0.46549-0.21409-0.68557-0.071239-1.5557 1.0092-3.3208 1.5435-5.1063 1.5435-5.2089 0-9.4319-4.2507-9.4325-9.4509 5.41e-4 -0.0026 0-0.18128 0-0.18997 0-0.25908-0.1934-0.50162-0.44916-0.54616-1.6287-0.28352-3.2097-0.47492-4.728-0.47492zm-16.548 5.699c-0.07137 0.01758-0.15409 0.04909-0.21276 0.09498-4.4708 3.4588-7.8236 8.3231-9.4561 13.701-0.0638 0.2102-0.0069 0.43303 0.16548 0.5699 2.2468 1.7875 3.5933 4.539 3.5933 7.3612 0 2.8222-1.346 5.5737-3.5933 7.3612-0.17141 0.13633-0.22929 0.35916-0.16548 0.5699 1.6195 5.3332 4.9459 10.179 9.3615 13.63 0.11842 0.09288 0.25372 0.1448 0.40188 0.11873 0.14762-0.02552 0.27403-0.13465 0.3546-0.2612l5.5318-8.691c0.14113-0.22215 0.10281-0.51428-0.09456-0.68863-3.4656-3.0628-5.4609-7.4544-5.4609-12.039 0-4.619 2.0064-9.0227 5.5082-12.087 0.19737-0.17327 0.25825-0.4654 0.1182-0.68863l-5.4845-8.7147c-0.08003-0.1271-0.20698-0.21139-0.3546-0.23746-0.07381-0.01302-0.14138-0.01759-0.21276 0zm-15.248 14.912c-3.8235 0-6.9266 3.1197-6.9266 6.9575 0 3.8379 3.1031 6.9338 6.9266 6.9338s6.9266-3.0959 6.9266-6.9338c0-3.8379-3.1031-6.9575-6.9266-6.9575zm58.51 8.9759-10.307 0.02375c-0.26009 5.43e-4 -0.50209 0.19372-0.54372 0.45117-1.2442 7.6742-8.0555 13.464-15.863 13.464-2.1532 0-4.283-0.44661-6.3356-1.3298-0.24009-0.10266-0.5208-0.03001-0.66193 0.18996l-5.5318 8.7147c-0.08056 0.12764-0.08729 0.28132-0.04728 0.42742 0.04001 0.14556 0.1254 0.26509 0.26004 0.33244 3.8311 1.9266 8.0988 2.9445 12.317 2.9445 1.5643 0 3.1976-0.15733 4.8463-0.45117 0.23143-0.04074 0.39795-0.21707 0.42552-0.45117 0.54939-4.7661 4.5621-8.3586 9.3379-8.3586 1.4805 0 3.0043 0.37535 4.3734 1.0923 0.20818 0.10917 0.44972 0.07393 0.61465-0.09498 4.3178-4.4229 7.0473-10.254 7.6594-16.385 0.01514-0.15045-0.04018-0.29125-0.14184-0.40368-0.10166-0.11243-0.25156-0.16676-0.40188-0.16622zm-12.175 18.356c-3.8235 0-6.9266 3.092-6.9266 6.91 0 3.8181 3.1031 6.9101 6.9266 6.9101s6.9266-3.092 6.9266-6.9101c0-3.8181-3.1031-6.91-6.9266-6.91z" fill="#fff" stroke-width="1.0997"/>
<path d="m8.7251-27.32h79.017c2.575 0 4.648 1.8912 4.648 4.2405v65.727c0 2.3492-2.073 4.2405-4.648 4.2405h-79.017c-2.575 0-4.648-1.8912-4.648-4.2405v-65.727c0-2.3492 2.073-4.2405 4.648-4.2405z" color="#000000" fill="none" stroke="#000" stroke-opacity=".7758" stroke-width="2.2904"/>
<path d="m89.014-31.85h-82.029c-3.787 0-6.8357 3.0487-6.8357 6.8357v82.029c0 3.787 3.0487 6.8357 6.8357 6.8357h82.029c3.787 0 6.8357-3.0487 6.8357-6.8357v-82.029c0-3.787-3.0487-6.8357-6.8357-6.8357z" fill="url(#linearGradient11816)" opacity=".72794"/>
<path d="m35.963-28.224c8.3294 26.184 16.985 51.751 25.766 75.954h26.584c2.6365 0 4.7591-1.9357 4.7591-4.3402v-67.273c0-2.4045-2.1225-4.3402-4.7591-4.3402z" color="#000000" fill="url(#linearGradient11818)" opacity=".30882"/>
</g>
</svg>
