<?xml version="1.0" encoding="UTF-8"?>
<!-- Created with Inkscape (http://www.inkscape.org/) -->
<svg version="1.1" viewBox="0 0 96 96" xmlns="http://www.w3.org/2000/svg" xmlns:cc="http://creativecommons.org/ns#" xmlns:dc="http://purl.org/dc/elements/1.1/" xmlns:rdf="http://www.w3.org/1999/02/22-rdf-syntax-ns#" xmlns:xlink="http://www.w3.org/1999/xlink">
<defs>
<linearGradient id="linearGradient1617">
<stop stop-color="#adb4c1" offset="0"/>
<stop stop-color="#fff" offset=".25"/>
<stop stop-color="#9095aa" offset=".5"/>
<stop stop-color="#f9fafb" offset=".75"/>
<stop stop-color="#adb3c1" offset="1"/>
</linearGradient>
<linearGradient id="linearGradient4125">
<stop stop-color="#fff" offset="0"/>
<stop stop-color="#fff" stop-opacity="0" offset="1"/>
</linearGradient>
<linearGradient id="linearGradient3825" x1="6" x2="90" y1="47" y2="47" gradientTransform="matrix(1.0996 0 0 1.0996 -4.4522 -4.0082)" gradientUnits="userSpaceOnUse" xlink:href="#linearGradient1617"/>
<linearGradient id="linearGradient3829" x1="1.5" x2="94.5" y1="88.172" y2="88.172" gradientTransform="matrix(.99317 0 0 .99317 .65551 0)" gradientUnits="userSpaceOnUse">
<stop offset="0"/>
<stop stop-opacity=".58824" offset=".1"/>
<stop stop-opacity=".58824" offset=".9"/>
<stop offset="1"/>
</linearGradient>
<linearGradient id="linearGradient3835" x1="45.448" x2="45.448" y1="92.54" y2="7.0165" gradientTransform="matrix(1.0059 0 0 .99417 243.24 -90.232)" gradientUnits="userSpaceOnUse">
<stop offset="0"/>
<stop stop-opacity=".58824" offset="1"/>
</linearGradient>
<filter id="filter3174-3-8" color-interpolation-filters="sRGB">
<feGaussianBlur stdDeviation="1.71"/>
</filter>
<clipPath id="clipPath4156-4-6-1">
<path d="m27.046-55.695-14.214 13.321h0.06127l15.653 21.771 10.231-10.546c-0.2169-1.1522-11.311-23.67-11.732-24.546zm-17.399 16.313-14.888 14.062 21.229 17.515 10.385-10.577-16.726-21zm31.491 12.951-9.7413 9.7136 8.9448 12.458 7.7808-7.555-6.9843-14.617zm-49.84 4.3788-13.754 12.982 26.283 13.846 0.06127-0.0617-0.12253-0.0617 9.8332-10.053-22.301-16.652zm38.015 7.4008-9.8025 9.7753 11.579 9.5594 7.6276-7.4008-8.6691-11.009-0.73519-0.9251zm20.187 5.674-7.3825 7.2158 6.1878 8.5418 5.8202-6.1365-4.6256-9.6211zm-32.195 6.3215-9.5575 9.4977 13.662 7.185 7.9339-7.6784-12.039-9.0043zm23.312 2.3744-7.1068 6.9383 8.3628 6.9074 5.3608-5.674-0.06127-0.0925-0.0919 0.12335-6.4635-8.2026zm-8.7304 8.5418-7.5051 7.3392 10.354 5.4581c1.3975-1.321 5.6751-6.1229 5.8509-6.3215l-8.6997-6.4757z" fill="#fff" opacity=".6"/>
</clipPath>
<linearGradient id="linearGradient4967" x1="2.7714" x2="50.528" y1="-28.642" y2="14.514" gradientUnits="userSpaceOnUse" xlink:href="#linearGradient4125"/>
<radialGradient id="radialGradient3833-1" cx="13.948" cy="44.893" r="43.199" gradientTransform="matrix(.87269 0 0 .048855 29.878 -89.679)" gradientUnits="userSpaceOnUse" xlink:href="#linearGradient4125"/>
<radialGradient id="radialGradient4992" cx="13.948" cy="44.893" r="43.199" gradientTransform="matrix(.96848 0 0 .048325 33.167 78.44)" gradientUnits="userSpaceOnUse" xlink:href="#linearGradient4125"/>
<linearGradient id="linearGradient1658" x1="67.85" x2="106.82" y1="111.96" y2="111.96" gradientTransform="matrix(1.6095 0 0 1.5667 -136.91 -18.089)" gradientUnits="userSpaceOnUse" xlink:href="#linearGradient1617"/>
</defs>
<metadata>
<rdf:RDF>
<cc:Work rdf:about="">
<dc:format>image/svg+xml</dc:format>
<dc:type rdf:resource="http://purl.org/dc/dcmitype/StillImage"/>
<dc:title/>
</cc:Work>
</rdf:RDF>
</metadata>
<rect x="248.24" y="-83.232" width="86" height="85" rx="6" ry="6" fill="url(#linearGradient3835)" filter="url(#filter3174-3-8)" opacity=".9"/>
<g></g>
<g transform="translate(-.32776 .32776)">
<path d="m89.19 0h-81.724c-3.7729 0-6.8103 3.0374-6.8103 6.8103v81.724c0 3.7729 3.0374 6.8103 6.8103 6.8103h81.724c3.7729 0 6.8103-3.0374 6.8103-6.8103v-81.724c0-3.7729-3.0374-6.8103-6.8103-6.8103z" opacity=".15"/>
<path d="m88.551 0.74488h-80.447c-3.714 0-6.7039 2.9899-6.7039 6.7039v80.447c0 3.714 2.9899 6.7039 6.7039 6.7039h80.447c3.714 0 6.7039-2.9899 6.7039-6.7039v-80.447c0-3.714-2.9899-6.7039-6.7039-6.7039z" opacity=".15"/>
<path d="m87.913 1.4898h-79.17c-3.655 0-6.5975 2.9425-6.5975 6.5975v79.17c0 3.655 2.9425 6.5975 6.5975 6.5975h79.17c3.655 0 6.5975-2.9425 6.5975-6.5975v-79.17c0-3.655-2.9425-6.5975-6.5975-6.5975z" fill="url(#linearGradient3825)"/>
<path d="m2.1453 81.285v5.959c0 3.655 2.9558 6.6108 6.6108 6.6108h79.143c3.655 0 6.6108-2.9558 6.6108-6.6108v-5.959c0 3.655-2.9558 6.6108-6.6108 6.6108h-79.143c-3.655 0-6.6108-2.9558-6.6108-6.6108z" fill="url(#linearGradient3829)" opacity=".89091"/>
<rect x="6.1942" y="7.1904" width="84.267" height="76.991" ry="4.221" fill="#dee4ea"/>
<path transform="translate(44.195 -111.09)" d="m37.037 121.66-11.323 11.154c-5.8917-5.1338-13.575-8.3417-22.052-8.3417-18.423 0-33.379 14.741-33.379 32.846 0 18.105 14.956 32.846 33.379 32.846 10.008 0 19.018-4.33 25.133-11.206l1.3046-1.4658-8.9435-7.6807-1.3329 1.4902c-0.29332 0.32848-0.60863 0.64644-0.97451 1.0068-4.0755 4.0153-9.4333 6.2027-15.187 6.2027-5.7529 0-11.112-2.1915-15.19-6.2058-4.0773-4.0135-6.3092-9.3044-6.3092-14.988 0-5.6832 2.2329-10.972 6.3092-14.988 4.0755-4.0152 9.4364-6.2057 15.19-6.2057 5.08 0 9.7948 1.7969 13.649 4.9603l-10.619 10.459h30.345zm-33.375 6.7321c8.112 0 15.448 3.2159 20.76 8.4488l1.4303 1.4107 7.1579-7.0473v16.42h-16.674l6.7744-6.6709-1.3989-1.3801c-4.8093-4.734-11.239-7.3655-18.05-7.3655-6.8113 0-13.246 2.6316-18.054 7.3686-4.8072 4.7362-7.4723 11.052-7.4723 17.742 0 6.6898 2.6622 13.01 7.4723 17.745 4.8093 4.734 11.242 7.3686 18.054 7.3686 6.6918 0 12.998-2.5671 17.777-7.1482l2.8481 2.445c-5.3102 5.2131-12.526 8.5161-20.625 8.5161-16.221 0-29.352-12.915-29.352-28.927 0-16.012 13.13-28.927 29.352-28.927z" color="#000000" color-rendering="auto" dominant-baseline="auto" enable-background="new" fill="#193a53" image-rendering="auto" opacity=".83972" shape-rendering="auto" solid-color="#000000" style="font-feature-settings:normal;font-variant-alternates:normal;font-variant-caps:normal;font-variant-ligatures:normal;font-variant-numeric:normal;font-variant-position:normal;isolation:auto;mix-blend-mode:normal;shape-padding:0;text-decoration-color:#000000;text-decoration-line:none;text-decoration-style:solid;text-indent:0;text-orientation:mixed;text-transform:none;white-space:normal"/>
<path transform="translate(44.195 -111.09)" d="m3.6606 126.43c-17.322 0-31.364 13.829-31.364 30.887 0 17.058 14.042 30.887 31.364 30.887 9.4127 0 17.863-4.0639 23.612-10.529l-5.9283-5.0896c-0.34302 0.38414-0.69358 0.73292-1.0641 1.0978-4.4417 4.3761-10.337 6.7862-16.619 6.7862-6.2823 0-12.176-2.412-16.619-6.7862-4.4437-4.3742-6.891-10.18-6.891-16.367 0-6.1868 2.4493-11.991 6.891-16.367 4.4417-4.3761 10.337-6.7862 16.619-6.7862 6.2823 0 12.176 2.412 16.619 6.7862l-8.7658 8.6325h23.511v-23.153l-9.1711 9.0316c-5.6746-5.5903-13.533-9.0316-22.193-9.0316z" enable-background="new" fill="url(#linearGradient1658)"/>
<path transform="translate(44.195 -111.09)" d="m3.6606 126.43c-17.322 0-31.364 13.829-31.364 30.887 0 17.058 14.042 30.887 31.364 30.887 9.4127 0 17.863-4.0639 23.612-10.529l-5.9283-5.0896c-0.34302 0.38414-0.69358 0.73292-1.0641 1.0978-4.4417 4.3761-10.337 6.7862-16.619 6.7862-6.2823 0-12.176-2.412-16.619-6.7862-4.4437-4.3742-6.891-10.18-6.891-16.367 0-6.1868 2.4493-11.991 6.891-16.367 4.4417-4.3761 10.337-6.7862 16.619-6.7862 6.2823 0 12.176 2.412 16.619 6.7862l-8.7658 8.6325h23.511v-23.153l-9.1711 9.0316c-5.6746-5.5903-13.533-9.0316-22.193-9.0316z" enable-background="new" fill="#17679d" fill-opacity=".29464"/>
<path d="m10.194 5.676c-3.0953 0-5.6293 2.5222-5.6293 5.6075v68.805c0 3.0853 2.5339 5.6075 5.6293 5.6075h76.267c3.0953 0 5.6293-2.5222 5.6293-5.6075v-68.805c0-3.0853-2.5339-5.6075-5.6293-5.6075zm0 2.3036h76.267c1.8752 0 3.3291 1.47 3.3291 3.3039v68.805c0 1.8339-1.4539 3.3038-3.3291 3.3038h-76.267c-1.8752 0-3.3291-1.47-3.3291-3.3038v-68.805c0-1.8339 1.4539-3.3039 3.3291-3.3039z" color="#000000" fill="#241f1f" fill-opacity=".63265" style="text-decoration-line:none;text-indent:0;text-transform:none"/>
<rect transform="matrix(.90996 0 0 .92507 4.6827 36.005)" x="2" y="-30" width="92" height="92" rx="3.957" ry="3.957" clip-path="url(#clipPath4156-4-6-1)" fill="url(#linearGradient4967)"/>
<rect x="4.8378" y="78.522" width="83.675" height="4.1752" rx="0" ry="4.1752" fill="url(#radialGradient4992)" opacity=".55"/>
<rect transform="rotate(90)" x="4.3511" y="-89.596" width="75.399" height="4.221" rx="0" ry="4.221" fill="url(#radialGradient3833-1)" opacity=".55"/>
</g>
</svg>
