<?xml version="1.0" encoding="UTF-8"?>
<!-- Created with Inkscape (http://www.inkscape.org/) -->
<svg version="1.1" viewBox="0 0 96 96" xmlns="http://www.w3.org/2000/svg" xmlns:cc="http://creativecommons.org/ns#" xmlns:dc="http://purl.org/dc/elements/1.1/" xmlns:rdf="http://www.w3.org/1999/02/22-rdf-syntax-ns#" xmlns:xlink="http://www.w3.org/1999/xlink">
<title>Lila-HD-Icon-Theme</title>
<defs>
<linearGradient id="linearGradient3888-8-4-8-4-6-9-0-8-7-9">
<stop stop-color="#fff" offset="0"/>
<stop stop-color="#fff" stop-opacity="0" offset="1"/>
</linearGradient>
<linearGradient id="linearGradient4539" x1="-94" x2="-10.188" y1="82.984" y2="82.984" gradientTransform="matrix(1 0 0 .88906 200 8.9432)" gradientUnits="userSpaceOnUse">
<stop offset="0"/>
<stop stop-opacity=".58824" offset=".1"/>
<stop stop-opacity=".58824" offset=".9"/>
<stop offset="1"/>
</linearGradient>
<linearGradient id="linearGradient3980" x1="2.4652" x2="59.378" y1=".27862" y2=".27862" gradientTransform="matrix(1.0034 0 0 1.005 32.725 19.811)" gradientUnits="userSpaceOnUse" xlink:href="#linearGradient3888-8-4-8-4-6-9-0-8-7-9"/>
<linearGradient id="linearGradient5698" x1="6" x2="90" y1="47" y2="47" gradientTransform="matrix(1.1393 0 0 1.1393 -7.0494 -27.001)" gradientUnits="userSpaceOnUse">
<stop stop-color="#fff" stop-opacity="0" offset="0"/>
<stop stop-color="#fff" stop-opacity=".85135" offset=".036815"/>
<stop stop-color="#fff" stop-opacity="0" offset=".065061"/>
<stop stop-color="#fff" stop-opacity="0" offset=".94494"/>
<stop stop-color="#fff" stop-opacity=".85135" offset=".96582"/>
<stop stop-color="#fff" stop-opacity="0" offset="1"/>
</linearGradient>
<linearGradient id="linearGradient5411" x1="6" x2="90" y1="47" y2="47" gradientTransform="matrix(1.1393 0 0 1.1393 -7.0493 -27.001)" gradientUnits="userSpaceOnUse">
<stop stop-color="#b7b7b7" offset="0"/>
<stop stop-color="#fff" offset=".25"/>
<stop stop-color="#9d9d9d" offset=".5"/>
<stop stop-color="#fafafa" offset=".75"/>
<stop stop-color="#b7b7b7" offset="1"/>
</linearGradient>
<radialGradient id="radialGradient5619" cx="158" cy="6.2132" r="41" gradientTransform="matrix(0 1.6209 -2.0383 0 160.66 -243.04)" gradientUnits="userSpaceOnUse" xlink:href="#linearGradient3888-8-4-8-4-6-9-0-8-7-9"/>
<radialGradient id="radialGradient5621" cx="48" cy="-27" r="42" gradientTransform="matrix(-1.0722 0 0 -.87502 199.46 -19.126)" gradientUnits="userSpaceOnUse">
<stop stop-color="#fff" offset="0"/>
<stop stop-color="#fff" offset=".8"/>
<stop stop-color="#fff" stop-opacity="0" offset="1"/>
</radialGradient>
<circle id="SVGID_8_-09-0-0" cx="569.9" cy="423.62" r="99.329"/>
<linearGradient id="linearGradient4731-2" x1="519.61" x2="719.66" y1="358.85" y2="322.71" gradientTransform="matrix(.7071 .7071 -.7071 .7071 367.2 -260.98)" gradientUnits="userSpaceOnUse">
<stop stop-color="#00AEEF" offset="0"/>
<stop stop-color="#82D4F7" offset=".4876"/>
<stop stop-color="#004282" offset="1"/>
</linearGradient>
<clipPath id="SVGID_9_-02-5-3-9">
<use width="1202.558" height="878.38898" overflow="visible" xlink:href="#SVGID_8_-09-0-0"/>
</clipPath>
<linearGradient id="linearGradient983" x1="23.194" x2="68.675" y1="-1.854" y2="49.212" gradientUnits="userSpaceOnUse">
<stop stop-color="#00AEEF" offset="0"/>
<stop stop-color="#82D4F7" offset=".4876"/>
<stop stop-color="#004282" offset="1"/>
</linearGradient>
</defs>
<metadata>
<rdf:RDF>
<cc:Work rdf:about="">
<dc:format>image/svg+xml</dc:format>
<dc:type rdf:resource="http://purl.org/dc/dcmitype/StillImage"/>
<dc:title>Lila-HD-Icon-Theme</dc:title>
<dc:date>2015-2019</dc:date>
<dc:creator>
<cc:Agent>
<dc:title>Cristian Pozzessere  == ilnanny ==</dc:title>
</cc:Agent>
</dc:creator>
<dc:subject>
<rdf:Bag>
<rdf:li>ilnanny</rdf:li>
<rdf:li>lila_hd</rdf:li>
<rdf:li>lila-hd</rdf:li>
<rdf:li>lila hd icon theme</rdf:li>
<rdf:li>Lila-HD-Icon-Theme lila hd icon lila icon</rdf:li>
</rdf:Bag>
</dc:subject>
<dc:coverage>CC-BY-SA</dc:coverage>
<dc:description>Playing with Inkscape on Gnu/Linux O. S.</dc:description>
<dc:contributor>
<cc:Agent>
<dc:title>In the night, alone like a dog.</dc:title>
</cc:Agent>
</dc:contributor>
<cc:license rdf:resource="http://creativecommons.org/licenses/by-sa/4.0/"/>
</cc:Work>
<cc:License rdf:about="http://creativecommons.org/licenses/by-sa/4.0/">
<cc:permits rdf:resource="http://creativecommons.org/ns#Reproduction"/>
<cc:permits rdf:resource="http://creativecommons.org/ns#Distribution"/>
<cc:requires rdf:resource="http://creativecommons.org/ns#Notice"/>
<cc:requires rdf:resource="http://creativecommons.org/ns#Attribution"/>
<cc:permits rdf:resource="http://creativecommons.org/ns#DerivativeWorks"/>
<cc:requires rdf:resource="http://creativecommons.org/ns#ShareAlike"/>
</cc:License>
</rdf:RDF>
</metadata>
<g transform="translate(0,32)">
<g transform="translate(.36363 -10.545)">
<path d="m88.651-21.305h-82.029c-3.787 0-6.8357 3.0487-6.8357 6.8357v82.029c0 3.787 3.0487 6.8357 6.8357 6.8357h82.029c3.787 0 6.8357-3.0487 6.8357-6.8357v-82.029c0-3.787-3.0487-6.8357-6.8357-6.8357z" fill="url(#linearGradient5411)"/>
<g transform="matrix(1.1393 0 0 1.1393 -120.98 -26.431)">
<path d="m112 5.5c-2.7873 0-5 2.2127-5 5v20.719 7 38.594c1.0707 1.6288 2.8969 2.7188 5 2.7188h4 64 4c2.1031 0 3.9293-1.09 5-2.7188v-38.594-7-20.719c0-2.7873-2.2127-5-5-5z" fill="url(#radialGradient5619)" opacity=".2"/>
<path d="m112 4.5c-3.324 0-6 2.676-6 6v15h1v-15c0-2.7873 2.2127-5 5-5h72c2.7873 0 5 2.2127 5 5v15h1v-15c0-3.324-2.676-6-6-6h-72z" fill="url(#radialGradient5621)" opacity=".45"/>
<path d="m106 76.942v0.88906 0.88906 0.88906 1.7781 1.7781c0 2.9552 2.676 5.3344 6 5.3344h72c3.324 0 6-2.3791 6-5.3344v-1.7781-1.7781-0.88906-0.88906-0.88906c0 2.9552-2.676 5.3344-6 5.3344h-72c-3.324 0-6-2.3791-6-5.3344z" fill="url(#linearGradient4539)" opacity=".46965"/>
</g>
<g transform="matrix(.98961 0 0 1.0556 -3.4511 -18.735)">
<circle transform="matrix(1.2467 0 0 1.0634 -54.59 -6.5568)" cx="70.373" cy="79.209" r="2.791" fill="#1c1c1c" opacity=".71"/>
<circle transform="matrix(1.0374 0 0 .91042 -39.857 5.3629)" cx="70.373" cy="79.209" r="2.791" fill="#fff"/>
<circle transform="matrix(.70317 0 0 .6171 -16.336 28.596)" cx="70.373" cy="79.209" r="2.791" fill="#114751"/>
<circle transform="matrix(1.2467 0 0 1.0634 -20.114 -6.5568)" cx="70.373" cy="79.209" r="2.791" fill="#1c1c1c" opacity=".71"/>
<circle transform="matrix(1.0374 0 0 .91042 -5.3813 5.3629)" cx="70.373" cy="79.209" r="2.791" fill="#fff"/>
<circle transform="matrix(.70317 0 0 .6171 18.139 28.596)" cx="70.373" cy="79.209" r="2.791" fill="#114751"/>
<rect transform="matrix(1.014 0 0 .95205 3.1886 -2.9106)" x="40.449" y="83.596" width="12.674" height="3.236" rx="1.1481" ry="1.1481" fill="#0c2f31" fill-opacity=".90455" opacity=".75097" stroke="#fff" stroke-width=".4999"/>
</g>
<path d="m7.4173 36.677c-1.8851 0-3.6495 0.91815-4.7591 2.2718v15.089c0 2.4045 2.1226 4.3402 4.7591 4.3402h80.905c2.6365 0 4.7591-1.9357 4.7591-4.3402v-15.089c-1.1096-1.3537-2.874-2.2718-4.7591-2.2718h-80.905zm0 3.2552h80.905c1.3594 0 2.3796 0.93033 2.3796 2.1701v11.936c0 1.2398-1.0201 2.1701-2.3796 2.1701h-80.905c-1.3594 0-2.3796-0.93033-2.3796-2.1701v-11.936c0-1.2398 1.0201-2.1701 2.3796-2.1701z" color="#000000" opacity=".02" style="block-progression:tb;text-decoration-line:none;text-indent:0;text-transform:none"/>
<path d="m7.4173-17.576h80.905c2.6365 0 4.7591 1.9357 4.7591 4.3402v67.273c0 2.4045-2.1226 4.3402-4.7591 4.3402h-80.905c-2.6365 0-4.7591-1.9357-4.7591-4.3402v-67.273c0-2.4045 2.1226-4.3402 4.7591-4.3402z" color="#000000" fill="#bfe3ff"/>
<path d="m79.568 20.175a31.932 31.932 0 0 1-31.932 31.932 31.932 31.932 0 0 1-31.932-31.932 31.932 31.932 0 0 1 31.932-31.932 31.932 31.932 0 0 1 31.932 31.932z" fill="url(#linearGradient983)"/>
<g transform="matrix(.873 0 0 .873 -228.06 -266.16)">
<g transform="matrix(.36971 0 0 .36971 106.34 173.33)" opacity=".6">
<path d="m679.59 402.77c-23.484-3.339-46.125-14.033-64.189-32.098-18.064-18.064-28.762-40.705-32.098-64.191-34.123-4.846-70.033 5.85-96.281 32.098-27.535 27.532-37.947 65.691-31.268 101.27 21.689 4.074 42.42 14.486 59.201 31.266s27.193 37.515 31.266 59.202c35.58 6.681 73.74-3.732 101.27-31.269 26.25-26.248 36.943-62.154 32.096-96.281z" fill="url(#linearGradient4731-2)"/>
<path d="m679.83 401.11c-24.111-3.423-45.977-14.361-63.238-31.623-17.26-17.261-28.195-39.126-31.621-63.236l-0.176-1.25-1.25-0.176c-36.244-5.153-71.859 6.721-97.709 32.568-26.898 26.898-38.76 65.322-31.729 102.78l0.211 1.131 1.131 0.21c22.164 4.161 42.33 14.814 58.32 30.803 15.99 15.99 26.643 36.157 30.803 58.319l0.211 1.132 1.131 0.214c37.455 7.029 75.873-4.831 102.77-31.73 25.848-25.851 37.721-61.466 32.57-97.707l-0.176-1.253zm-1.799 3.086c4.574 34.778-6.912 68.863-31.721 93.675-25.857 25.854-62.68 37.369-98.701 30.969-4.439-22.367-15.277-42.72-31.461-58.903-16.186-16.185-36.539-27.022-58.906-31.463-6.402-36.022 5.115-72.845 30.971-98.702 24.813-24.812 58.895-36.294 93.672-31.718 3.74 24.305 14.869 46.355 32.33 63.813 17.459 17.459 39.508 28.591 63.816 32.329z" fill="#f0fafe"/>
</g>
<g transform="matrix(.37273 0 0 .36567 103.52 173.13)">
<clipPath>
<use width="1202.558" height="878.38898" overflow="visible" xlink:href="#SVGID_8_-09-0-0"/>
</clipPath>
<g clip-path="url(#SVGID_9_-02-5-3-9)">
<text transform="matrix(1.1399 0 0 1 481.21 498.57)" fill="#ffffff" font-family="Constantia" font-size="221.83px" letter-spacing="-17.545" style="line-height:0%"><tspan font-family="'Big Caslon'">K</tspan></text>
</g>
</g>
</g>
<path d="m8.3615-16.774h79.017c2.575 0 4.648 1.8912 4.648 4.2405v65.727c0 2.3492-2.073 4.2405-4.648 4.2405h-79.017c-2.575 0-4.648-1.8912-4.648-4.2405v-65.727c0-2.3492 2.073-4.2405 4.648-4.2405z" color="#000000" fill="none" stroke="#000" stroke-opacity=".7758" stroke-width="2.2904"/>
<path d="m88.651-21.305h-82.029c-3.787 0-6.8357 3.0487-6.8357 6.8357v82.029c0 3.787 3.0487 6.8357 6.8357 6.8357h82.029c3.787 0 6.8357-3.0487 6.8357-6.8357v-82.029c0-3.787-3.0487-6.8357-6.8357-6.8357z" fill="url(#linearGradient5698)" opacity=".72794"/>
<path d="m35.199-17.886c8.3294 26.184 16.985 51.751 25.766 75.954h26.584c2.6365 0 4.7591-1.9357 4.7591-4.3402v-67.273c0-2.4045-2.1225-4.3402-4.7591-4.3402z" color="#000000" fill="url(#linearGradient3980)" opacity=".30882"/>
</g>
</g>
</svg>
