<?xml version="1.0" encoding="UTF-8"?>
<!-- Created with Inkscape (http://www.inkscape.org/) -->
<svg version="1.1" viewBox="0 0 96 96" xmlns="http://www.w3.org/2000/svg" xmlns:cc="http://creativecommons.org/ns#" xmlns:dc="http://purl.org/dc/elements/1.1/" xmlns:rdf="http://www.w3.org/1999/02/22-rdf-syntax-ns#" xmlns:xlink="http://www.w3.org/1999/xlink">
<title>Lila-HD-Icon-Theme</title>
<script xlink:href=""/>
<defs>
<linearGradient id="linearGradient5617" x1="6" x2="90" y1="47" y2="47" gradientTransform="matrix(1.1393 0 0 1.1393 -6.6857 -37.546)" gradientUnits="userSpaceOnUse">
<stop stop-color="#b7b7b7" offset="0"/>
<stop stop-color="#fff" offset=".25"/>
<stop stop-color="#9d9d9d" offset=".5"/>
<stop stop-color="#fafafa" offset=".75"/>
<stop stop-color="#b7b7b7" offset="1"/>
</linearGradient>
<radialGradient id="radialGradient5619" cx="158" cy="6.2132" r="41" gradientTransform="matrix(0 1.8467 -2.3222 0 62.428 -313.86)" gradientUnits="userSpaceOnUse">
<stop stop-color="#fff" offset="0"/>
<stop stop-color="#fff" stop-opacity="0" offset="1"/>
</radialGradient>
<radialGradient id="radialGradient5621" cx="48" cy="-27" r="42" gradientTransform="matrix(-1.2215 0 0 -.9969 106.63 -58.766)" gradientUnits="userSpaceOnUse">
<stop stop-color="#fff" offset="0"/>
<stop stop-color="#fff" offset=".8"/>
<stop stop-color="#fff" stop-opacity="0" offset="1"/>
</radialGradient>
<linearGradient id="linearGradient5623" x1="-94" x2="-10.188" y1="82.984" y2="82.984" gradientTransform="matrix(1.1393 0 0 1.0129 107.24 -26.788)" gradientUnits="userSpaceOnUse">
<stop offset="0"/>
<stop stop-opacity=".58824" offset=".1"/>
<stop stop-opacity=".58824" offset=".9"/>
<stop offset="1"/>
</linearGradient>
<radialGradient id="radialGradient5625" cx="14.693" cy=".38068" r="45.056" gradientTransform="matrix(1.0034 0 0 .84287 33.489 9.5349)" gradientUnits="userSpaceOnUse">
<stop stop-color="#3c94de" offset="0"/>
<stop stop-color="#0f64ac" offset="1"/>
</radialGradient>
<radialGradient id="radialGradient5629" cx="48" cy="71.995" r="32.994" gradientTransform="matrix(1.0319 0 0 1.032 -1.4922 -39.732)" gradientUnits="userSpaceOnUse">
<stop stop-color="#fafafa" offset="0"/>
<stop stop-color="#f0f0f0" offset="1"/>
</radialGradient>
<linearGradient id="linearGradient5631" x1="541.34" x2="606.91" y1="104.51" y2="303.14" gradientTransform="matrix(-.14114 0 0 .14113 124.6 -30.929)" gradientUnits="userSpaceOnUse">
<stop stop-color="#fff" stop-opacity="0" offset="0"/>
<stop stop-color="#fff" stop-opacity=".60465" offset="1"/>
</linearGradient>
<linearGradient id="linearGradient5633" x1="6" x2="90" y1="47" y2="47" gradientTransform="matrix(1.1393 0 0 1.1393 -6.6857 -37.546)" gradientUnits="userSpaceOnUse">
<stop stop-color="#fff" stop-opacity="0" offset="0"/>
<stop stop-color="#fff" stop-opacity=".85135" offset=".036815"/>
<stop stop-color="#fff" stop-opacity="0" offset=".065061"/>
<stop stop-color="#fff" stop-opacity="0" offset=".94494"/>
<stop stop-color="#fff" stop-opacity=".85135" offset=".96582"/>
<stop stop-color="#fff" stop-opacity="0" offset="1"/>
</linearGradient>
<linearGradient id="linearGradient5635" x1="2.4652" x2="59.378" y1=".27862" y2=".27862" gradientTransform="matrix(1.0034 0 0 1.005 33.489 9.4732)" gradientUnits="userSpaceOnUse">
<stop stop-color="#fff" offset="0"/>
<stop stop-color="#fff" stop-opacity="0" offset="1"/>
</linearGradient>
</defs>
<metadata>
<rdf:RDF>
<cc:Work rdf:about="">
<dc:format>image/svg+xml</dc:format>
<dc:type rdf:resource="http://purl.org/dc/dcmitype/StillImage"/>
<dc:title>Lila-HD-Icon-Theme</dc:title>
<dc:date>2015-2019</dc:date>
<dc:creator>
<cc:Agent>
<dc:title>Cristian Pozzessere  == ilnanny ==</dc:title>
</cc:Agent>
</dc:creator>
<dc:subject>
<rdf:Bag>
<rdf:li>ilnanny</rdf:li>
<rdf:li>lila_hd</rdf:li>
<rdf:li>lila-hd</rdf:li>
<rdf:li>lila hd icon theme</rdf:li>
<rdf:li>Lila-HD-Icon-Theme lila hd icon lila icon</rdf:li>
</rdf:Bag>
</dc:subject>
<dc:coverage>CC-BY-SA</dc:coverage>
<dc:description>Playing with Inkscape on Gnu/Linux O. S.</dc:description>
<dc:contributor>
<cc:Agent>
<dc:title>In the night, alone like a dog.</dc:title>
</cc:Agent>
</dc:contributor>
<cc:license rdf:resource="http://creativecommons.org/licenses/by-sa/4.0/"/>
</cc:Work>
<cc:License rdf:about="http://creativecommons.org/licenses/by-sa/4.0/">
<cc:permits rdf:resource="http://creativecommons.org/ns#Reproduction"/>
<cc:permits rdf:resource="http://creativecommons.org/ns#Distribution"/>
<cc:requires rdf:resource="http://creativecommons.org/ns#Notice"/>
<cc:requires rdf:resource="http://creativecommons.org/ns#Attribution"/>
<cc:permits rdf:resource="http://creativecommons.org/ns#DerivativeWorks"/>
<cc:requires rdf:resource="http://creativecommons.org/ns#ShareAlike"/>
</cc:License>
</rdf:RDF>
</metadata>
<g transform="translate(0,32)">
<path d="m89.014-31.85h-82.029c-3.787 0-6.8357 3.0487-6.8357 6.8357v82.029c0 3.787 3.0487 6.8357 6.8357 6.8357h82.029c3.787 0 6.8357-3.0487 6.8357-6.8357v-82.029c0-3.787-3.0487-6.8357-6.8357-6.8357z" fill="url(#linearGradient5617)"/>
<path d="m6.9857-30.711c-3.1755 0-5.6964 2.5209-5.6964 5.6964v75.549c1.2198 1.8556 3.3004 3.0974 5.6964 3.0974h82.029c2.396 0 4.4766-1.2418 5.6964-3.0974v-75.549c0-3.1755-2.5209-5.6964-5.6964-5.6964z" fill="url(#radialGradient5619)" opacity=".2"/>
<path d="m6.9857-31.85c-3.787 0-6.8357 3.0487-6.8357 6.8357v17.089h1.1393v-17.089c0-3.1755 2.5209-5.6964 5.6964-5.6964h82.029c3.1755 0 5.6964 2.5209 5.6964 5.6964v17.089h1.1393v-17.089c0-3.787-3.0487-6.8357-6.8357-6.8357z" fill="url(#radialGradient5621)" opacity=".45"/>
<path d="m0.15 50.682v7.0902c0 3.3669 3.0487 6.0773 6.8357 6.0773h82.029c3.787 0 6.8357-2.7105 6.8357-6.0773v-7.0902c0 3.3669-3.0487 6.0773-6.8357 6.0773h-82.029c-3.787 0-6.8357-2.7105-6.8357-6.0773z" fill="url(#linearGradient5623)" opacity=".46965"/>
<ellipse cx="29.716" cy="52.709" rx="3.4436" ry="3.1329" fill="#1c1c1c" opacity=".71"/>
<ellipse cx="29.716" cy="52.501" rx="2.8653" ry="2.6822" fill="#fff"/>
<ellipse cx="29.716" cy="52.501" rx="1.9422" ry="1.8181" fill="#114751"/>
<ellipse cx="63.833" cy="52.709" rx="3.4436" ry="3.1329" fill="#1c1c1c" opacity=".71"/>
<ellipse cx="63.833" cy="52.501" rx="2.8653" ry="2.6822" fill="#fff"/>
<ellipse cx="63.833" cy="52.501" rx="1.9422" ry="1.8181" fill="#114751"/>
<rect x="40.657" y="51.658" width="12.718" height="3.252" rx="1.1521" ry="1.1538" fill="#0c2f31" fill-opacity=".90455" opacity=".75097" stroke="#fff" stroke-width=".502"/>
<path d="m7.7809 26.132c-1.8851 0-3.6495 0.91815-4.7591 2.2718v15.089c0 2.4045 2.1226 4.3402 4.7591 4.3402h80.905c2.6365 0 4.7591-1.9357 4.7591-4.3402v-15.089c-1.1096-1.3537-2.874-2.2718-4.7591-2.2718zm0 3.2552h80.905c1.3594 0 2.3796 0.93033 2.3796 2.1701v11.936c0 1.2398-1.0201 2.1701-2.3796 2.1701h-80.905c-1.3594 0-2.3796-0.93033-2.3796-2.1701v-11.936c0-1.2398 1.0201-2.1701 2.3796-2.1701z" color="#000000" opacity=".02" style="text-decoration-line:none;text-indent:0;text-transform:none"/>
<path d="m7.7809-28.121h80.905c2.6365 0 4.7591 1.9357 4.7591 4.3402v67.273c0 2.4045-2.1226 4.3402-4.7591 4.3402h-80.905c-2.6365 0-4.7591-1.9357-4.7591-4.3402v-67.273c0-2.4045 2.1226-4.3402 4.7591-4.3402z" color="#000000" fill="url(#radialGradient5625)"/>
<path d="m47.65-26.276a0.99813 0.99813 0 0 0-0.12898 0.03225c-1.5589 0.35234-2.3446 1.6613-2.7731 2.8054s-0.69492 2.2663-1.0641 2.8376a0.99813 0.99813 0 0 0-0.09674 0.19347c-2.0839 5.3782-4.4717 10.692-6.7393 16.026a0.99813 0.99813 0 0 0-0.09674 0.45144c0.0036 0.063046-0.06008 0.19952-0.41919 0.61266-0.29926 0.34429-0.70099 0.90739-0.87063 1.6445h-0.03224c-7.5556 15.475-16.142 30.479-24.345 45.66a0.99813 0.99813 0 0 0-0.09674 0.19347c-0.75406 2.5917 2.349 4.7785 4.5144 3.3858 0.02183-0.01404 0.04285-0.01747 0.06449-0.03225 8.4202-4.8262 17.086-9.4503 26.506-11.383a0.99813 0.99813 0 0 0 0.29021-0.09674c0.69541-0.375 1.1907-0.95064 1.4188-1.58 0.22808-0.62939 0.22716-1.2412 0.16123-1.8057-0.13187-1.1291-0.47129-2.1808-0.45144-2.7409a0.99813 0.99813 0 0 0 0-0.06449c-0.0535-1.9393 0.10956-4.0612 0.7094-5.9009 0.58978-1.8089 1.5879-3.2862 3.1601-4.2564 0.58817-0.15154 1.0919-0.12226 1.5478 0.06449 0.50326 0.20618 0.99745 0.60977 1.451 1.1608 0.9072 1.1021 1.5927 2.7665 1.9347 4.0629a0.99813 0.99813 0 0 0 0 0.03225c0.85238 2.6872 0.46908 5.6638 0.12898 8.674a0.99813 0.99813 0 0 0 0.03224 0.38695c0.23898 0.83593 0.77534 1.468 1.3866 1.8702 0.61122 0.40226 1.2662 0.61028 1.9025 0.74165 1.2726 0.26273 2.5011 0.3491 3.0956 0.67716a0.99813 0.99813 0 0 0 0.19347 0.09674c7.7064 2.3151 14.919 6.3894 21.991 10.286a0.99813 0.99813 0 0 0 0.12898 0.06449c2.5595 0.92484 4.9831-2.1533 3.547-4.4176l0.03225-0.03225c-0.01886-0.03263-0.04568-0.06406-0.06449-0.09674-2.057-3.5744-3.8152-7.5048-6.1266-11.092a0.99813 0.99813 0 0 0-0.38695-0.32246c-0.81329-0.42751-1.0922-0.74884-1.2253-1.0319-0.13318-0.28301-0.16205-0.7114-0.06449-1.5155a0.99813 0.99813 0 0 0-0.12898-0.58041c-8.617-16.406-17.571-32.705-24.474-49.852a0.99813 0.99813 0 0 0-0.09674-0.12898c-0.31769-0.51399-0.59377-1.742-1.1286-2.8698-0.26741-0.56392-0.62859-1.1091-1.1931-1.5478-0.56449-0.43872-1.3519-0.69806-2.1927-0.61266z" fill-rule="evenodd" opacity=".05"/>
<path d="m47.747-25.277c-2.2818 0.5157-2.1493 3.5895-3.2127 5.235-2.0974 5.413-4.5219 10.727-6.7834 16.047 0.06039 1.0475-1.3749 1.5439-1.4251 2.7664-7.575 15.515-16.176 30.533-24.371 45.699-0.49936 1.7163 1.7109 3.1482 3.0633 2.2249 8.4575-4.8493 17.23-9.536 26.86-11.512 2.0665-1.1143 0.55298-3.5465 0.61443-5.2802-0.11122-4.0317 0.69198-8.8987 4.4262-11.13 3.526-1.1215 5.6028 3.1489 6.3412 5.9473 0.94033 2.9645 0.49993 6.0858 0.16206 9.0763 0.71312 2.4945 4.0569 1.6836 5.8908 2.6957 7.8514 2.3586 15.131 6.5034 22.195 10.396 1.7052 0.61615 3.4048-1.5437 2.3539-3.0311-2.1159-3.6605-3.8815-7.5899-6.1589-11.125-1.8135-0.95329-2.0485-1.8115-1.838-3.547-8.6106-16.394-17.607-32.688-24.541-49.909-0.94787-1.5336-1.0719-4.8081-3.5771-4.5537z" fill-rule="evenodd" opacity=".1"/>
<path d="m47.811-24.116a0.91453 0.91453 0 0 0-0.61266 0.54817c-3.0348 7.4405-4.8926 12.292-8.2548 19.476a0.91453 0.91453 0 0 0 0.16123 0.99961c0.53889 0.57123 1.2747 1.2447 1.9025 1.8702-0.5156-0.37377-1.1652-0.75261-1.6123-1.1286a0.91453 0.91453 0 0 0-1.4188 0.32245c-4.3043 8.9817-11.068 21.798-24.797 46.466a0.91453 0.91453 0 0 0 1.2576 1.2576c10.757-6.2101 19.039-10.013 26.667-11.447a0.91453 0.91453 0 0 0 0.74165-1.0963c-0.31286-1.3456-0.51967-2.8096-0.51593-4.3209v-0.06449c6.8e-5 -0.01114-8.9e-5 -0.0211 0-0.03224l0.03225-0.25796a0.91453 0.91453 0 0 0 0-0.06449c0.08185-3.3048 0.99139-6.2247 2.3217-8.1904 1.3303-1.9657 3.0071-2.9522 4.7401-2.8054 1.7318 0.14674 3.3723 1.4602 4.6111 3.676s2.0166 5.2714 1.9347 8.5773c-0.03108 1.2545-0.17839 2.4568-0.41919 3.547a0.91453 0.91453 0 0 0 0.74165 1.0963c7.5478 1.4765 15.733 5.2565 26.345 11.383a0.91453 0.91453 0 0 0 1.2576-1.2576c-2.0986-3.8638-3.9825-7.3229-5.7719-10.641a0.91453 0.91453 0 0 0-0.25796-0.29021c-1.1993-0.92956-2.5316-2.0788-4.0629-3.2568 0.19606 0.11019 0.45817 0.21033 0.64491 0.32246a0.91453 0.91453 0 0 0 1.2898-1.1931c-18.188-33.862-19.615-38.291-25.861-52.947a0.91453 0.91453 0 0 0-1.0641-0.54817z" fill-rule="evenodd" opacity=".15"/>
<path d="m48.03-23.213c-3.0312 7.4317-4.8595 12.293-8.2343 19.504 2.0692 2.1933 4.609 4.7476 8.7337 7.6324-4.4344-1.8247-7.4593-3.6567-9.7198-5.5578-4.3191 9.0125-11.086 21.851-24.818 46.524 10.793-6.231 19.159-10.072 26.957-11.538-0.33481-1.44-0.52517-2.9977-0.51224-4.623l0.01283-0.34576c0.17126-6.9148 3.7683-12.232 8.0294-11.871 4.2611 0.36104 7.5731 6.2626 7.4019 13.177-0.03224 1.3011-0.17897 2.5528-0.4354 3.7137 7.7125 1.5087 15.99 5.3403 26.637 11.487-2.0994-3.8651-3.9732-7.3492-5.7627-10.667-2.8187-2.1847-5.7588-5.0281-11.756-8.1062 4.1221 1.0711 7.0735 2.3068 9.374 3.6881-18.194-33.874-19.667-38.375-25.907-53.017z" fill-rule="evenodd" opacity=".3"/>
<path d="m48.03-24.245c-3.0312 7.4317-4.8595 12.293-8.2343 19.504 2.0692 2.1933 4.609 4.7476 8.7337 7.6324-4.4344-1.8247-7.4593-3.6567-9.7198-5.5578-4.3191 9.0125-11.086 21.85-24.818 46.524 10.793-6.231 19.159-10.072 26.957-11.538-0.33481-1.44-0.52517-2.9977-0.51224-4.623l0.01283-0.34576c0.17126-6.9148 3.7683-12.232 8.0294-11.871 4.2611 0.36104 7.5731 6.2626 7.4019 13.177-0.03224 1.3011-0.17897 2.5528-0.4354 3.7137 7.7125 1.5087 15.99 5.3403 26.637 11.487-2.0994-3.8651-3.9732-7.3492-5.7627-10.667-2.8187-2.1847-5.7588-5.0281-11.756-8.1062 4.1221 1.0711 7.0735 2.3068 9.374 3.6881-18.194-33.874-19.667-38.375-25.907-53.017z" fill="url(#radialGradient5629)" fill-rule="evenodd"/>
<path d="m67.205 16.228c-14.76-20.034-18.181-36.181-19.048-40.036 7.8735 18.161 7.8198 18.383 19.048 40.036z" fill="#fff" fill-rule="evenodd"/>
<path d="m48.159-23.938c-0.37587 0.92404-0.74107 1.8229-1.0885 2.6765-0.3875 0.95191-0.76068 1.8624-1.1269 2.7533-0.36621 0.89094-0.72868 1.7542-1.0885 2.6124-0.35984 0.85822-0.72018 1.7075-1.0885 2.5612-0.36831 0.85367-0.74808 1.7094-1.1397 2.5868-0.39166 0.87739-0.79953 1.7856-1.2294 2.7149-0.42989 0.92932-0.87455 1.8847-1.3574 2.8942-0.06549 0.137-0.13823 0.29663-0.2049 0.4354 2.0626 2.1847 4.5947 4.7261 8.6953 7.594-4.4207-1.8191-7.4359-3.6503-9.6942-5.545-0.11831 0.24153-0.22385 0.45696-0.34577 0.70433-0.42588 0.8642-0.89586 1.7966-1.3702 2.7405-0.01975 0.039871-0.03133 0.075243-0.05119 0.11526-0.12024 0.23907-0.22214 0.44682-0.34576 0.69153-0.01873 0.03758-0.04518 0.077523-0.06402 0.11525-1.9622 3.9358-4.3875 8.6368-7.5043 14.471 8.6316-4.8655 17.948-11.878 34.858-5.8396-0.84841-1.6069-1.6238-3.1038-2.3563-4.5205-0.7325-1.4168-1.417-2.7536-2.049-4.0083-0.63188-1.2546-1.2207-2.4268-1.7672-3.5473-0.54654-1.1204-1.0475-2.1873-1.5239-3.2015-0.47646-1.0142-0.92304-1.9838-1.3446-2.9198-0.42162-0.93598-0.8217-1.842-1.2038-2.7277-0.3821-0.88573-0.74356-1.7491-1.1013-2.6124-0.35779-0.86336-0.7142-1.7178-1.0629-2.5868-0.11665-0.29063-0.24181-0.59027-0.35857-0.88362-0.96183-2.2567-1.9454-4.5937-3.0863-7.2738z" fill="url(#linearGradient5631)" fill-rule="evenodd"/>
<path d="m8.7251-27.32h79.017c2.575 0 4.648 1.8912 4.648 4.2405v65.727c0 2.3492-2.073 4.2405-4.648 4.2405h-79.017c-2.575 0-4.648-1.8912-4.648-4.2405v-65.727c0-2.3492 2.073-4.2405 4.648-4.2405z" color="#000000" fill="none" stroke="#000" stroke-opacity=".7758" stroke-width="2.2904"/>
<path d="m89.014-31.85h-82.029c-3.787 0-6.8357 3.0487-6.8357 6.8357v82.029c0 3.787 3.0487 6.8357 6.8357 6.8357h82.029c3.787 0 6.8357-3.0487 6.8357-6.8357v-82.029c0-3.787-3.0487-6.8357-6.8357-6.8357z" fill="url(#linearGradient5633)" opacity=".72794"/>
<path d="m35.963-28.224c8.3294 26.184 16.985 51.751 25.766 75.954h26.584c2.6365 0 4.7591-1.9357 4.7591-4.3402v-67.273c0-2.4045-2.1225-4.3402-4.7591-4.3402z" color="#000000" fill="url(#linearGradient5635)" opacity=".30882"/>
</g>
</svg>
