<?xml version="1.0" encoding="UTF-8"?>
<!-- Created with Inkscape (http://www.inkscape.org/) -->
<svg version="1.1" viewBox="0 0 96 96" xmlns="http://www.w3.org/2000/svg" xmlns:cc="http://creativecommons.org/ns#" xmlns:dc="http://purl.org/dc/elements/1.1/" xmlns:rdf="http://www.w3.org/1999/02/22-rdf-syntax-ns#" xmlns:xlink="http://www.w3.org/1999/xlink">
<defs>
<linearGradient id="linearGradient4071" x1="6" x2="90" y1="47" y2="47" gradientTransform="matrix(1.1014 0 0 1.1014 -4.9671 -3.0997)" gradientUnits="userSpaceOnUse">
<stop stop-color="#adbac1" offset="0"/>
<stop stop-color="#fff" offset=".25"/>
<stop stop-color="#90a2aa" offset=".5"/>
<stop stop-color="#f9fafb" offset=".75"/>
<stop stop-color="#adbfc1" offset="1"/>
</linearGradient>
<linearGradient id="linearGradient4129" x1="1.5" x2="94.5" y1="88.172" y2="88.172" gradientTransform="matrix(.99479 0 0 .99479 .14895 .91503)" gradientUnits="userSpaceOnUse">
<stop offset="0"/>
<stop stop-opacity=".58824" offset=".1"/>
<stop stop-opacity=".58824" offset=".9"/>
<stop offset="1"/>
</linearGradient>
<radialGradient id="radialGradient7462" cx="13.948" cy="44.893" r="43.199" gradientTransform="matrix(.97005 0 0 .048935 33.871 80.664)" gradientUnits="userSpaceOnUse" xlink:href="#linearGradient3737"/>
<linearGradient id="linearGradient3737">
<stop stop-color="#fff" offset="0"/>
<stop stop-color="#fff" stop-opacity="0" offset="1"/>
</linearGradient>
<radialGradient id="radialGradient7464" cx="13.948" cy="44.893" r="43.199" gradientTransform="matrix(.8837 0 0 .048935 32.295 -89.848)" gradientUnits="userSpaceOnUse" xlink:href="#linearGradient3737"/>
<linearGradient id="linearGradient4767" x1="2.7714" x2="50.528" y1="-28.642" y2="14.514" gradientUnits="userSpaceOnUse" xlink:href="#linearGradient3737"/>
<clipPath id="clipPath4156-4-1">
<path d="m27.046-55.695-14.214 13.321h0.06127l15.653 21.771 10.231-10.546c-0.2169-1.1522-11.311-23.67-11.732-24.546zm-17.399 16.313-14.888 14.062 21.229 17.515 10.385-10.577zm31.491 12.951-9.7413 9.7136 8.9448 12.458 7.7808-7.555zm-49.84 4.3788-13.754 12.982 26.283 13.846 0.06127-0.0617-0.12253-0.0617 9.8332-10.053-22.301-16.652zm38.015 7.4008-9.8025 9.7753 11.579 9.5594 7.6276-7.4008-8.6691-11.009zm20.187 5.674-7.3825 7.2158 6.1878 8.5418 5.8202-6.1365zm-32.195 6.3215-9.5575 9.4977 13.662 7.185 7.9339-7.6784zm23.312 2.3744-7.1068 6.9383 8.3628 6.9074 5.3608-5.674-0.06127-0.0925-0.0919 0.12335-6.4635-8.2026zm-8.7304 8.5418-7.5051 7.3392 10.354 5.4581c1.3975-1.321 5.6751-6.1229 5.8509-6.3215z" fill="#fff" opacity=".6"/>
</clipPath>
<radialGradient id="radialGradient4475" cx="32" cy="32" r="16" gradientTransform="matrix(1.6246 0 0 1.5427 -12.432 90.685)" gradientUnits="userSpaceOnUse">
<stop stop-color="#4d4d4d" offset="0"/>
<stop stop-color="#333" offset="1"/>
</radialGradient>
<linearGradient id="linearGradient4485" x1="52.765" x2="52.765" y1="81.843" y2="73.812" gradientUnits="userSpaceOnUse">
<stop stop-color="#dc6819" offset="0"/>
<stop stop-color="#efa471" offset="1"/>
</linearGradient>
<linearGradient id="linearGradient4489" x1="40" x2="40" y1="24" y2="48" gradientUnits="userSpaceOnUse">
<stop stop-color="#fff" offset="0"/>
<stop stop-color="#7f7f7f" stop-opacity="0" offset=".19256"/>
<stop offset="1"/>
</linearGradient>
</defs>
<metadata>
<rdf:RDF>
<cc:Work rdf:about="">
<dc:format>image/svg+xml</dc:format>
<dc:type rdf:resource="http://purl.org/dc/dcmitype/StillImage"/>
<dc:title/>
<dc:date>2017</dc:date>
<dc:creator>
<cc:Agent>
<dc:title>Cristian Pozzessere "ilnanny"</dc:title>
</cc:Agent>
</dc:creator>
<dc:subject>
<rdf:Bag>
<rdf:li>Global language</rdf:li>
</rdf:Bag>
</dc:subject>
<dc:description>Playing with Inkscape on Gnu/Linux O. S.</dc:description>
<dc:contributor>
<cc:Agent>
<dc:title>In the night, alone like a dog.</dc:title>
</cc:Agent>
</dc:contributor>
<cc:license rdf:resource="http://creativecommons.org/licenses/by-sa/4.0/"/>
</cc:Work>
<cc:License rdf:about="http://creativecommons.org/licenses/by-sa/4.0/">
<cc:permits rdf:resource="http://creativecommons.org/ns#Reproduction"/>
<cc:permits rdf:resource="http://creativecommons.org/ns#Distribution"/>
<cc:requires rdf:resource="http://creativecommons.org/ns#Notice"/>
<cc:requires rdf:resource="http://creativecommons.org/ns#Attribution"/>
<cc:permits rdf:resource="http://creativecommons.org/ns#DerivativeWorks"/>
<cc:requires rdf:resource="http://creativecommons.org/ns#ShareAlike"/>
</cc:License>
</rdf:RDF>
</metadata>
<g transform="translate(0 -1026.5)">
<g transform="translate(-.14896 1026.1)">
<g transform="translate(.25 -.25003)">
<path d="m88.828 0.91503h-81.857c-3.7791 0-6.8214 3.0424-6.8214 6.8214v81.857c0 3.7791 3.0424 6.8214 6.8214 6.8214h81.857c3.7791 0 6.8214-3.0424 6.8214-6.8214v-81.857c0-3.7791-3.0424-6.8214-6.8214-6.8214z" opacity=".15"/>
<path d="m88.188 1.6611h-80.578c-3.72 0-6.7148 2.9948-6.7148 6.7148v80.578c0 3.72 2.9948 6.7148 6.7148 6.7148h80.578c3.72 0 6.7148-2.9948 6.7148-6.7148v-80.578c0-3.72-2.9948-6.7148-6.7148-6.7148z" opacity=".15"/>
<path d="m87.549 2.4072h-79.299c-3.661 0-6.6083 2.9473-6.6083 6.6083v79.299c0 3.661 2.9473 6.6083 6.6083 6.6083h79.299c3.661 0 6.6083-2.9473 6.6083-6.6083v-79.299c0-3.661-2.9473-6.6083-6.6083-6.6083z" fill="url(#linearGradient4071)"/>
<path d="m11.41 7.2689c-2.8852 0-5.1755 2.3101-5.1755 5.2201v69.232c1.1082 1.7005 2.9986 2.8384 5.1755 2.8384h74.528c2.1769 0 4.0673-1.138 5.1755-2.8384v-69.232c0-2.91-2.2904-5.2201-5.1755-5.2201z" fill="#1e5f16" fill-opacity=".65753" opacity=".77865"/>
<path d="m9.9229 5.6199c-3.1004 0-5.6384 2.5263-5.6384 5.6166v68.917c0 3.0903 2.5381 5.6166 5.6384 5.6166h76.392c3.1004 0 5.6384-2.5263 5.6384-5.6166v-68.917c0-3.0903-2.5381-5.6166-5.6384-5.6166zm0 2.3074h76.392c1.8783 0 3.3346 1.4724 3.3346 3.3092v68.917c0 1.8369-1.4563 3.3092-3.3346 3.3092h-76.392c-1.8783 0-3.3346-1.4724-3.3346-3.3092v-68.917c0-1.8369 1.4563-3.3092 3.3346-3.3092z" color="#000000" fill="#212122" style="text-decoration-line:none;text-indent:0;text-transform:none"/>
<path d="m1.6411 82.333v5.9688c0 3.661 2.9606 6.6216 6.6216 6.6216h79.272c3.661 0 6.6216-2.9606 6.6216-6.6216v-5.9688c0 3.661-2.9606 6.6216-6.6216 6.6216h-79.272c-3.661 0-6.6216-2.9606-6.6216-6.6216z" fill="url(#linearGradient4129)" opacity=".65818"/>
<rect x="5.496" y="80.747" width="83.811" height="4.2279" rx="0" ry="4.2279" fill="url(#radialGradient7462)" opacity=".55"/>
<rect transform="rotate(90)" x="6.4461" y="-89.765" width="76.35" height="4.2279" rx="0" ry="4.2279" fill="url(#radialGradient7464)" opacity=".669"/>
<g transform="matrix(1.1109 0 0 1.0043 -1.1259 85.238)">
<path transform="matrix(1 0 0 .9389 -.11479 -85.224)" d="m8.435 53.652 6.297 6.174h33.584l6.297-6.174v-16.464l2.099-2.058h23.089v-18.522h-27.287l-4.198-4.116h-16.792l-2.099 2.058h-14.693l-6.297 6.174zm18.911 24.669 0.11442-6.17 2.174-1.9071 38.883 0.11218 2.6849-2.118 0.12238-24.816 4.2792-4.176h4.198v32.928h-4.198l-2.099 2.058h-6.297l-2.099 2.058v4.116l-4.198 4.116h-27.287z" opacity=".15"/>
<path transform="matrix(.92331 0 0 .97233 -4.5217 -104.18)" d="m25.357 27.959-0.39258 0.33984 6.5293 6.043h18.51l5.375-4.9746h2.0352v-0.48828h-2.2676l-5.375 4.9746h-18.045zm52.988 1.9707a1.1367 0.99362 0 0 0-1.1699 0.99414v-0.25h-13.754l-2.3574 2.0586 0.39453 0.35938 2.1914-1.916h13.525v-0.20898a1.137 0.99389 0 0 0 2.2734-0.04297 1.1367 0.99362 0 0 0-1.1035-0.99414zm5.6816 2.9824a1.1367 0.99362 0 0 0-1.168 0.99219v-0.25h-18.303l-3.4102 2.9805h-12.389v0.50195h12.619l3.4102-2.9805h18.072v-0.20898a1.137 0.99389 0 0 0 2.2734-0.04297 1.1367 0.99362 0 0 0-1.1055-0.99219zm-69.65 0.19141a1.0751 0.99474 0 0 0-1.043 0.99414 1.0754 0.99505 0 0 0 2.1504 0.04102v0.20312h11.709l3.2266 2.9824h17.318v-0.48828h-17.086l-3.2266-2.9824h-11.941v0.24414a1.0751 0.99474 0 0 0-1.1074-0.99414zm1.7188 2.2031-0.23047 0.3125 3.0059 1.7598v32.068l4.2266 2.4746 0.22852-0.31055-4.0371-2.3652v-32.068zm-4.0391 1.2383-0.23047 0.3125 3.0059 1.7598v32.066l4.2266 2.4766 0.22852-0.3125-4.0371-2.3652v-32.066zm53.637 0.08984-6.9023 6.0332 0.39453 0.35938 6.7383-5.8906h19.094l5.6836 4.9668h2.3887v-0.50195h-2.1602l-5.6816-4.9668zm-38.414 0.44726a1.0751 0.99474 0 0 0-1.043 0.99414 1.0751 0.99474 0 0 0 1.6211 0.85742l1.4883 1.375h13.018v-0.20898a1.0751 0.99474 0 0 0 2.1484-0.0332 1.0751 0.99474 0 0 0-2.1484-0.04297v-0.20117h-12.785l-1.3418-1.2402a1.0751 0.99474 0 0 0 0.14844-0.50586 1.0751 0.99474 0 0 0-1.1055-0.99414zm38.414 3.5293-4.6289 4.0449 0.39453 0.35742 4.4648-3.9023h19.094l5.6836 4.9688h2.3887v-0.50195h-2.1602l-5.6816-4.9668zm-48.477 0.12695a1.1367 0.99362 0 0 0-1.1699 0.99414 1.1367 0.99366 0 1 0 2.2734 0 1.1367 0.99362 0 0 0-1.1035-0.99414zm66.975 2.9238-0.39258 0.35742 6.9023 6.0332h2.3887v-0.5h-2.1602zm0 3.9746-0.39258 0.35742 6.9023 6.0352h2.3887v-0.50391h-2.1602zm-20.656 9.8652v0.50195h18.072l6.8203 5.9609h4.6621v-0.50195h-4.4316l-6.8203-5.9609zm11.367 3.9727v0.50195h6.7051l6.8203 5.9629h4.6621v-0.50195h-4.4316l-6.8203-5.9629zm0 3.9766v0.50195h6.7051l6.8203 5.9609h4.6621v-0.50195h-4.4316l-6.8203-5.9609zm5.7168 5.2188a1.1367 0.99362 0 0 0-1.1699 0.99219 1.1367 0.99362 0 0 0 0.1582 0.50586l-5.957 5.207h-11.25v0.5h11.479l6.1289-5.3555a1.1367 0.99362 0 0 0 1.7148-0.85742 1.1367 0.99362 0 0 0-1.1035-0.99219zm-61.697 2.9785v16.006l3.8516 3.3633a1.1367 0.99362 0 0 0-0.1582 0.50586 1.1367 0.99366 0 1 0 2.2734 0 1.1367 0.99362 0 0 0-1.7148-0.85547l-3.6895-3.2246v-15.795zm73.971 1.8086-4.4648 3.9023h-60.244l-3.4922 3.0547 0.39258 0.35742 3.3301-2.9102h60.244l4.627-4.0449zm-31.598 1.1738a1.1367 0.99362 0 0 0-1.1699 0.99414 1.1367 0.99366 0 1 0 2.2734 0 1.1367 0.99362 0 0 0-1.1035-0.99414zm31.598 2.8008-5.6016 4.8984h-39.67v0.50195h39.898l5.7656-5.041zm-76.242 1.1738v10.043l6.123 5.3516a1.1367 0.99362 0 0 0-0.1582 0.50391 1.1367 0.99366 0 1 0 2.2734 0 1.1367 0.99362 0 0 0-1.7129-0.85547l-5.9629-5.2109v-9.832zm69.65 0a1.1367 0.99362 0 0 0-1.168 0.99414 1.1367 0.99366 0 1 0 2.2734 0 1.1367 0.99362 0 0 0-1.1055-0.99414zm-53.57 0.74219-1.2188 1.0664 0.39258 0.35742 1.0566-0.92188h52.17v-0.50195zm57.971 1.9883-3.4102 2.9805h-39.67v0.5h39.898l3.4102-2.9785h2.1602v-0.50195zm-11.252 4.9668v0.50195h7.8418l3.4102 2.9824h2.3887v-0.50195h-2.1602l-3.4102-2.9824zm-47.545 0.07227-0.39258 0.35938 2.3555 2.0586h29.555l2.1895 1.9141 0.39453-0.35742-2.3555-2.0586h-29.555zm-7.2969 0.17969v1.0996l6.9863 6.1055h9.209v-0.5h-8.9785l-6.6543-5.8164v-0.88867zm59.42 2.9805a1.1367 0.99362 0 0 0-1.168 0.99414v-0.25195h-3.5254l-4.5469 3.9766h-2.1582v0.5h2.3887l4.5469-3.9746h3.2949v-0.20898a1.137 0.99387 0 0 0 2.2734-0.04102 1.1367 0.99362 0 0 0-1.1055-0.99414zm3.2305 2.709-5.4512 4.7656h-9.1055v0.4082h9.291l5.584-4.8828zm3.4609 1.1836a1.1367 0.99362 0 0 0-1.1699 0.99219 1.1367 0.99362 0 0 0 0.42188 0.77148l-6.2207 5.4336h-11.252v0.50195h11.482l6.5469-5.7227a1.1367 0.99362 0 0 0 1.2949-0.98438 1.1367 0.99362 0 0 0-1.1035-0.99219zm-59.125 1.8184-2.7188 2.375a1.1367 0.99362 0 0 0-1.7129 0.85742 1.1367 0.99366 0 1 0 2.2734 0 1.1367 0.99362 0 0 0-0.1582-0.50586l2.5469-2.2246h8.9785v-0.50195zm11.52 1.0547-0.38086 0.36719 2.5059 2.0605h4.541l4.5488 3.9746h5.9121l4.6289-4.0469-0.39453-0.35742-4.4629 3.9043h-5.4551l-4.5469-3.9766h-4.5527zm6.9785 0.01172-0.39258 0.35547 4.6289 4.0488h5.9121l2.3555-2.0606-0.39453-0.35742-2.1895 1.916h-5.4551zm21.303 3.0762a1.1367 0.99362 0 0 0-1.168 0.99414 1.1367 0.99366 0 1 0 2.2734 0 1.1367 0.99362 0 0 0-1.1055-0.99414z" color="#000000" color-rendering="auto" dominant-baseline="auto" fill="#fc0" image-rendering="auto" opacity=".977" shape-rendering="auto" solid-color="#000000" style="font-feature-settings:normal;font-variant-alternates:normal;font-variant-caps:normal;font-variant-ligatures:normal;font-variant-numeric:normal;font-variant-position:normal;isolation:auto;mix-blend-mode:normal;shape-padding:0;text-decoration-color:#000000;text-decoration-line:none;text-decoration-style:solid;text-indent:0;text-orientation:mixed;text-transform:none;white-space:normal"/>
<g transform="translate(3.0033 -90.288)">
<path d="m16 25v32h32v-32zm40 0v8h14v-8zm0 18v2h6v-2zm0 4v2h6v-2zm0 4v6h2v-6zm-40 14v6h4v-6zm6 0v6h4v-6zm6 0v6h4v-6zm6 0v6h4v-6zm10 0v6h4v-6zm6 0v6h4v-6zm6 0v6h4v-6zm6 0v6h4v-6zm-30 10v6h4v-6zm6 0v6h4v-6zm11.5 0c-0.831 0-1.5 0.669-1.5 1.5v5c0 0.831 0.669 1.5 1.5 1.5h9c0.831 0 1.5-0.669 1.5-1.5v-5c0-0.831-0.669-1.5-1.5-1.5z" color="#000000" fill="#333" opacity=".69"/>
<path transform="matrix(.92331 0 0 .97233 -4.5217 -104.18)" d="m22.227 131.82v32.91h34.658v-32.91zm43.322 0v8.2266h15.162v-8.2266z" color="#000000" fill="url(#radialGradient4475)" opacity=".909"/>
<rect x="16" y="64" width="4" height="6" color="#000000" fill="#e4e4e4"/>
<rect x="22" y="64" width="4" height="6" color="#000000" fill="#e2e2e2"/>
<rect x="28" y="64" width="4" height="6" color="#000000" fill="#ddd"/>
<rect x="34" y="64" width="4" height="6" color="#000000" fill="#e5e5e5"/>
<rect x="56" y="50" width="2" height="6" color="#000000" fill="#ccc"/>
<rect x="48" y="74" width="12" height="8" rx="1.5" ry="1.5" color="#000000" fill="url(#linearGradient4485)"/>
<path d="m16 24v32h32v-32zm1 1h30v30h-30z" color="#000000" fill="url(#linearGradient4489)" opacity=".4"/>
<path transform="matrix(0,-1,-1,0,0,0)" d="m-36-70h4v2h-4zm0 4h4v2h-4zm0 4h4v2h-4zm0 4h4v2h-4zm16-12h-4v2h4zm0 4h-4v2h4zm0 4h-4v2h4zm0 4h-4v2h4zm-40 42h4v-1h-4zm0-2h4v-1h-4zm0-2h4v-1h-4zm0-2h4v-1h-4zm0-2h4v-1h-4zm0-2h4v-1h-4zm0-2h4v-1h-4zm0-2h4v-1h-4zm0-2h4v-1h-4zm0-2h4v-1h-4zm0-2h4v-1h-4zm0-2h4v-1h-4zm0-2h4v-1h-4zm0-2h4v-1h-4zm0-2h4v-1h-4zm0-2h4v-1h-4zm4-6v4h1v-4zm2 0v4h1v-4zm2 0v4h1v-4zm2 0v4h1v-4zm2 0v4h1v-4zm2 0v4h1v-4zm2 0v4h1v-4zm2 0v4h1v-4zm2 0v4h1v-4zm2 0v4h1v-4zm2 0v4h1v-4zm2 0v4h1v-4zm2 0v4h1v-4zm2 0v4h1v-4zm2 0v4h1v-4zm2 0v4h1v-4zm6 4h-4v1h4zm0 2h-4v1h4zm0 2h-4v1h4zm0 2h-4v1h4zm0 2h-4v1h4zm0 2h-4v1h4zm0 2h-4v1h4zm0 2h-4v1h4zm0 2h-4v1h4zm0 2h-4v1h4zm0 2h-4v1h4zm0 2h-4v1h4zm0 2h-4v1h4zm0 2h-4v1h4zm0 2h-4v1h4zm0 2h-4v1h4zm-4 6v-4h-1v4zm-2 0v-4h-1v4zm-2 0v-4h-1v4zm-2 0v-4h-1v4zm-2 0v-4h-1v4zm-2 0v-4h-1v4zm-2 0v-4h-1v4zm-2 0v-4h-1v4zm-2 0v-4h-1v4zm-2 0v-4h-1v4zm-2 0v-4h-1v4zm-2 0v-4h-1v4zm-2 0v-4h-1v4zm-2 0v-4h-1v4zm-2 0v-4h-1v4zm-2 0v-4h-1v4zm30.762-26.544a0.96721 0.99264 0 0 1 0 1.9853 0.96721 0.99264 0 1 1 0-1.9853zm4.0544-11.552a0.96613 1.0495 0 1 0 0 2.099 0.96613 1.0495 0 1 0 0-2.099zm-3.8645 12.594a0.96613 1.0495 0 1 0 0 2.099 0.96613 1.0495 0 1 0 0-2.099z" color="#000000" fill="#fefefe"/>
<rect x="56" y="50" width="2" height="1" color="#000000" fill="#fff"/>
<path d="m56 51h2v4h-2zm-7.6e-5 -8.9998v0.99891 1.0008h5.9997v-1.9997zm0 3.9994v1.0008 0.99891h5.9997v-1.9997zm-11.999 18.001v5.9992h3.9998v-5.9992zm5.9997 0v5.9992h3.9998v-5.9992zm5.9997 0v5.9992h3.9998v-5.9992zm5.9997 0v5.9992h3.9998v-5.9992zm-30 9.9986v6.0011h3.9998v-6.0011zm6.0015 0v6.0011h3.9998v-6.0011zm11.999 1.9997c-0.554 0-1.0008 0.44681-1.0008 1.0008v3.0005c0 0.554 0.44685 0.99891 1.0008 0.99891h7.9996c0.554 0 1.0008-0.44491 1.0008-0.99891v-3.0005c0-0.554-0.44685-1.0008-1.0008-1.0008z" color="#000000" fill="#e7f7f7"/>
<rect x="16" y="64" width="4" height="1" color="#000000" fill="#fff" opacity=".63203"/>
<rect x="22" y="64" width="4" height="1" color="#000000" fill="#fff" opacity=".63203"/>
<rect x="28" y="64" width="4" height="1" color="#000000" fill="#fff" opacity=".63203"/>
<rect x="34" y="64" width="4" height="1" color="#000000" fill="#fff" opacity=".63203"/>
<path d="m32 74v1h4v-1z" color="#000000" fill="#fff" opacity=".6"/>
<path d="m38 74v1h4v-1z" color="#000000" fill="#fff" opacity=".6"/>
<text transform="translate(164.11 37.951)" x="-140.99239" y="-1.6841463" fill="#000000" font-family="'Comic Sans MS'" letter-spacing="0px" word-spacing="0px" style="line-height:0%" xml:space="preserve"><tspan x="-140.99239" y="-1.6841463" font-size="4px" style="line-height:1.25"> </tspan></text>
<g transform="matrix(1.3225 0 0 1.3225 -8.5945 -14.463)" fill="#eee">
<path d="m32.492 31.011c-0.01824 1.4e-5 -0.03647 1.4e-5 -0.05469 0-0.69271 0.01824-1.235 0.24155-1.627 0.66992-0.27344 0.32814-0.41472 0.82944-0.42383 1.5039-0.0091 0.29168 0.0046 0.70639 0.04102 1.2441 0.04557 0.52866 0.06835 0.8978 0.06836 1.1074-0.0091 0.06381-0.02279 0.13217-0.04102 0.20508-0.01823 0.06381-0.05014 0.13217-0.0957 0.20508-0.04558 0.07293-0.08204 0.13217-0.10938 0.17773-0.02735 0.04558-0.07748 0.10938-0.15039 0.19141-0.06381 0.08204-0.10482 0.13673-0.12305 0.16406-0.32813 0.40105-0.57422 0.75196-0.73828 1.0527-0.34636 0.61068-0.66992 1.3444-0.9707 2.2012-0.05469 0.21876-0.04102 0.48308 0.04102 0.79297-0.0091 0.01823-0.0319 0.04558-0.06836 0.08203-0.02735 0.03646-0.04558 0.06381-0.05469 0.08203-0.0091 0.0091-0.02735 0.03646-0.05469 0.08203-0.02735 0.04558-0.05013 0.07748-0.06836 0.0957-0.0091 0.0091-0.02735 0.03646-0.05469 0.08203-0.02735 0.03646-0.05013 0.06381-0.06836 0.08203l-0.06836 0.06836c-0.02735 0.02735-0.05469 0.05013-0.08203 0.06836-0.02735 0.0091-0.05925 0.02279-0.0957 0.04102-0.02735 0.0091-0.05925 0.01823-0.0957 0.02734-0.03646 0.0091-0.12305 0.02735-0.25976 0.05469-0.13672 0.02735-0.2461 0.05925-0.32812 0.0957-0.08203 0.02735-0.15495 0.07748-0.21875 0.15039-0.03646 0.03646-0.0638 0.07748-0.08203 0.12305-0.01823 0.04558-0.02735 0.10026-0.02734 0.16406-1e-6 0.06381-1e-6 0.10938 0 0.13672-1e-6 0.02735 0.0046 0.08203 0.01367 0.16406 0.01823 0.08203 0.0319 0.12761 0.04101 0.13672 0.03646 0.33724 0.0091 0.70638-0.08203 1.1074-0.01823 0.11849 0.0046 0.23242 0.06836 0.3418 0.0638 0.10938 0.15039 0.18685 0.25977 0.23242 0.08203 0.04557 0.17318 0.08203 0.27344 0.10938 0.10026 0.02734 0.21875 0.05469 0.35547 0.08203 0.13672 0.02734 0.23242 0.05013 0.28711 0.06836 0.64713 0.1276 1.1803 0.28255 1.5996 0.46484 0.45572 0.17318 0.81575 0.21419 1.0801 0.12305 0.09114-0.03646 0.21419-0.1276 0.36914-0.27344 0.16406-0.14583 0.30078-0.23698 0.41016-0.27344 0.10026-0.02734 0.20507-0.04557 0.31445-0.05469 0.10937-0.0091 0.22786-0.01367 0.35547-0.01367 0.13671-0.0091 0.24153-0.01823 0.31445-0.02734 0.73827-0.05469 1.2897-0.0319 1.6543 0.06836 0.0091 1e-6 0.03645 0.0046 0.08203 0.01367 0.04556 0.0091 0.07291 0.02279 0.08203 0.04102 0.04556 0.15495 0.13215 0.28255 0.25977 0.38281 0.13671 0.10026 0.28254 0.15495 0.4375 0.16406 0.51041 0.07292 0.90689-0.01367 1.1895-0.25977 0.0091-0.0091 0.09569-0.08659 0.25977-0.23242 0.16405-0.14583 0.29166-0.25065 0.38281-0.31445 0.17317-0.1276 0.42837-0.29166 0.76562-0.49219 0.34634-0.20963 0.57421-0.35091 0.68359-0.42383 0.10025-0.07291 0.17316-0.16406 0.21875-0.27344 0.04556-0.11849 0.04556-0.23698 0-0.35547-0.04559-0.09114-0.16408-0.19596-0.35547-0.31445-0.30079-0.20963-0.51499-0.43294-0.64258-0.66992-0.01824-0.08203-0.0228-0.1595-0.01367-0.23242 0.0091-0.07291 0.0091-0.15039 0-0.23242-0.0091-0.08203-0.03647-0.15494-0.08203-0.21875-0.03647-0.04557-0.08204-0.08658-0.13672-0.12305 0.16405-0.39192 0.21418-0.7565 0.15039-1.0938-0.07293-0.5651-0.31446-1.2213-0.72461-1.9688-0.1185-0.21874-0.31446-0.51041-0.58789-0.875-0.26433-0.37369-0.4284-0.61067-0.49219-0.71094-0.31902-0.48306-0.5241-0.98892-0.61523-1.5176-0.06381-0.28254-0.07748-0.60155-0.04102-0.95703-0.01824-0.52863-0.16407-1.039-0.4375-1.5312-0.31902-0.51952-0.82944-0.84764-1.5312-0.98438-0.1185-0.01822-0.23699-0.02733-0.35547-0.02734m-0.05469 0.13672c0.37369 1.3e-5 0.71549 0.08204 1.0254 0.24609 0.29166 0.15496 0.50129 0.30991 0.62891 0.46484 0.23697 0.28256 0.40559 0.64715 0.50586 1.0938 0.07291 0.30991 0.09569 0.58334 0.06836 0.82031-0.02735 0.22788-9e-6 0.52866 0.08203 0.90234 0.04556 0.20965 0.10025 0.40105 0.16406 0.57422 0.06379 0.17319 0.15038 0.35092 0.25976 0.5332 0.10936 0.1823 0.1914 0.32358 0.24609 0.42383 0.06379 0.09116 0.17772 0.25066 0.3418 0.47852 0.16405 0.22787 0.27798 0.38282 0.3418 0.46484 0.33723 0.48308 0.61522 1.0254 0.83398 1.627 0.22785 0.59245 0.29166 1.0801 0.19141 1.4629-0.02736 0.13672-0.0866 0.3099-0.17773 0.51953 0.08202 4e-6 0.14582 0.03191 0.19141 0.0957 0.05468 0.08204 0.07746 0.2142 0.06836 0.39648-0.0091 0.17318 0.0045 0.28711 0.04102 0.3418 0.09113 0.14584 0.21418 0.28711 0.36914 0.42383 0.15494 0.13672 0.27798 0.23698 0.36914 0.30078 0.0091 3e-6 0.02733 0.0091 0.05469 0.02734 0.02733 0.0091 0.04556 0.01823 0.05469 0.02734 0.0091 0.0091 0.02277 0.02279 0.04102 0.04102 0.02733 0.0091 0.04556 0.02279 0.05469 0.04102 0.0091 0.0091 0.01822 0.02279 0.02734 0.04102 0.0091 0.01823 0.01366 0.04102 0.01367 0.06836 0.0091 0.01823 0.01366 0.04102 0.01367 0.06836-1.3e-5 0.04557-0.0046 0.08659-0.01367 0.12305-0.0091 0.02735-0.0228 0.05469-0.04102 0.08203-0.0091 0.02735-0.0228 0.04557-0.04102 0.05469-0.0091 0.0091-0.0228 0.02735-0.04102 0.05469-0.01824 0.01823-0.03191 0.02735-0.04102 0.02734-0.03647 0.03646-0.1185 0.09571-0.24609 0.17774-0.12762 0.07292-0.28256 0.15951-0.46484 0.25976-0.17319 0.10026-0.31902 0.19141-0.4375 0.27344-0.38282 0.26432-0.66538 0.48763-0.84766 0.66992-0.23699 0.23698-0.53777 0.35547-0.90234 0.35547-0.32813 0-0.56056-0.0638-0.69726-0.19141-0.09116-0.08203-0.15951-0.20508-0.20508-0.36914-0.38282-0.10026-0.70639-0.15495-0.9707-0.16406-0.26433-0.01823-0.59701-0.0091-0.99805 0.02734-0.12761 0.0091-0.25977 0.01823-0.39648 0.02734-0.13672 1e-6 -0.22331 0.0046-0.25977 0.01367-0.03646 0-0.09115 0.0046-0.16406 0.01367-0.06381 0.0091-0.11394 0.02279-0.15039 0.04102-0.03646 0.01823-0.10482 0.05013-0.20508 0.0957-0.0091 0.0091-0.03646 0.0319-0.08203 0.06836-0.04558 0.03646-0.08659 0.06836-0.12305 0.0957-0.01823 0.01823-0.05469 0.05013-0.10938 0.0957-0.04558 0.04557-0.07292 0.07292-0.08203 0.08203-0.0091 0.0091-0.03646 0.0319-0.08203 0.06836-0.04558 0.02734-0.07748 0.04102-0.0957 0.04102-0.01823 0-0.05469 0.01367-0.10938 0.04102-0.05469 0.01823-0.10026 0.02279-0.13672 0.01367-0.02735-0.01823-0.07748-0.01823-0.15039 0-0.14584-0.01823-0.41472-0.10026-0.80664-0.24609-0.39193-0.14583-0.69727-0.24154-0.91602-0.28711-0.63802-0.13672-1.0482-0.23242-1.2305-0.28711-0.17318-0.0638-0.29622-0.15039-0.36914-0.25977-0.04557-0.08203-0.05013-0.2233-0.01367-0.42383 0.04557-0.23698 0.06836-0.41927 0.06836-0.54688-1e-6 -0.13672-0.01367-0.29166-0.04102-0.46484-0.01823-0.17318-0.02735-0.28255-0.02734-0.32812-2e-6 -0.05468 0.02278-0.13672 0.06836-0.24609 0.05469-0.07291 0.21419-0.13672 0.47852-0.19141 0.27344-0.05468 0.44661-0.10937 0.51953-0.16406 0.09114-0.0638 0.19596-0.18229 0.31445-0.35547 0.1276-0.18229 0.20508-0.28255 0.23242-0.30078l0.02734-0.04102c-0.07292-0.319-0.10026-0.53776-0.08203-0.65625 0.01823-0.1276 0.10026-0.37369 0.24609-0.73828 0.33724-0.83854 0.65625-1.4857 0.95703-1.9414 0.10937-0.15494 0.27343-0.36913 0.49219-0.64258 0.21874-0.27343 0.36914-0.49218 0.45117-0.65625 0.09114-0.17317 0.13216-0.3509 0.12305-0.5332-0.0091-0.06379-0.01824-0.16405-0.02734-0.30078-0.05469-0.6927-0.08659-1.2806-0.0957-1.7637-0.0091-0.48306 0.05012-0.87954 0.17773-1.1895 0.1276-0.319 0.34635-0.56053 0.65625-0.72461 0.35546-0.18228 0.71549-0.27342 1.0801-0.27344m0.90234 0.66992c-0.08204 1.4e-5 -0.13217 0.01368-0.15039 0.04102-0.01824 0.02736-0.03191 0.09572-0.04102 0.20508-8e-6 0.10027 0.01822 0.15952 0.05469 0.17774 0.04556 0.01824 0.11848 0.0046 0.21875-0.04102 0.10025-0.05467 0.14583-0.10025 0.13672-0.13672-0.0091-0.04556-0.03647-0.09569-0.08203-0.15039-0.03647-0.06379-0.06837-0.09569-0.0957-0.0957-0.0091 1.4e-5 -0.0228 1.4e-5 -0.04102 0m-0.08203 1.0527c-0.02735 1.2e-5 -0.04102 0.0046-0.04102 0.01367-8e-6 1.2e-5 0.05468 0.01824 0.16406 0.05469 0.05468 0.01824 0.12304 0.07293 0.20508 0.16406 0.0091 0.01824 0.02278 0.04558 0.04102 0.08203 0.02734 0.03647 0.05012 0.06837 0.06836 0.0957 0.01822 0.02736 0.03189 0.03647 0.04102 0.02734 0.0091 1.1e-5 0.0045-0.01822-0.01367-0.05469-0.01824-0.04556-0.04102-0.08658-0.06836-0.12305-0.08204-0.11848-0.16407-0.19595-0.24609-0.23242-0.0547-0.01822-0.10482-0.02733-0.15039-0.02734m-1.832 0.08203c-0.01824 1.2e-5 -0.02735 0.0046-0.02734 0.01367-6e-6 0.0091 0.0091 0.01824 0.02734 0.02734 0.02734 0.0091 0.0638 0.0228 0.10938 0.04102 0.04557 0.0091 0.08658 0.03191 0.12305 0.06836 0.03645 0.02736 0.0638 0.05926 0.08203 0.0957 0.02734 0.03647 0.04557 0.06381 0.05469 0.08203 0.01822 0.01824 0.0319 0.02736 0.04102 0.02734 0.05468 1.1e-5 0.02278-0.05923-0.0957-0.17774-0.01824-0.02733-0.03646-0.05012-0.05469-0.06836-0.08204-0.0729-0.16863-0.10936-0.25977-0.10938m1.5723 0.08203c-0.25522 0.0091-0.44206 0.1504-0.56055 0.42383-0.04558 0.09116-0.07292 0.15496-0.08203 0.19141-7e-6 0.03647 0.0045 0.11394 0.01367 0.23242-7e-6 0.08204 0.0091 0.15952 0.02734 0.23242 0.09114 0.02736 0.16406 0.05926 0.21875 0.0957 0.03645 0.02735 0.06835 0.05014 0.0957 0.06836-0.02735-0.06379-0.04102-0.16861-0.04102-0.31445-7e-6 -0.13671 0.04101-0.24608 0.12305-0.32812 0.04557-0.05468 0.1276-0.08202 0.24609-0.08203 0.18228 1.1e-5 0.30077 0.13673 0.35547 0.41016 0.01822 0.1185-0.0091 0.21876-0.08203 0.30078-0.0547 0.08204-0.13217 0.13217-0.23242 0.15039 0.1914 0.0547 0.32356 0.10027 0.39648 0.13672 0.09114-0.07291 0.1595-0.18228 0.20508-0.32812 0.07291-0.28254 0.03189-0.55598-0.12305-0.82031-0.07293-0.14582-0.14584-0.23697-0.21875-0.27344-0.06381-0.04556-0.15496-0.0729-0.27344-0.08203-0.02735-0.0091-0.05014-0.01366-0.06836-0.01367m-1.7227 0.0957c-0.02735 1.2e-5 -0.05925 0.0046-0.0957 0.01367-0.08204 0.0091-0.15495 0.0866-0.21875 0.23242-0.04558 0.10027-0.07292 0.20509-0.08203 0.31445-5e-6 0.23699 0.0319 0.45118 0.0957 0.64258 0.03645 0.10027 0.08658 0.17774 0.15039 0.23242 0.03645-0.02733 0.0638-0.05012 0.08203-0.06836l0.08203-0.06836c-0.01824-0.0091-0.03191-0.01822-0.04102-0.02734-0.0091-0.0091-0.02735-0.02733-0.05469-0.05469-0.01824-0.02733-0.03646-0.04556-0.05469-0.05469-0.07292-0.09114-0.10938-0.19595-0.10938-0.31445-5e-6 -0.14582 0.01822-0.24608 0.05469-0.30078 0.04557-0.0729 0.10937-0.10936 0.19141-0.10938 0.09114 1.2e-5 0.16406 0.04103 0.21875 0.12305 0.0638 0.08204 0.0957 0.17775 0.0957 0.28711-6e-6 0.1185-0.0046 0.20053-0.01367 0.24609 0.03645-0.02733 0.06835-0.05012 0.0957-0.06836 0.03645-0.01822 0.07747-0.03189 0.12305-0.04102 0.01822-0.0729 0.02734-0.16861 0.02734-0.28711-6e-6 -0.09114-0.01368-0.16861-0.04102-0.23242-0.01824-0.06379-0.03646-0.10936-0.05469-0.13672-0.01824-0.02733-0.05925-0.08202-0.12305-0.16406-0.07292-0.10936-0.1823-0.16405-0.32812-0.16406m1.8184 0.54688c-0.0091 1.2e-5 -0.01368 0.0046-0.01367 0.01367-0.02735 0.01824-0.01368 0.0547 0.04102 0.10938 0.0091 1.1e-5 0.01822 0.01368 0.02734 0.04102 0.0091 0.01824 0.01366 0.03191 0.01367 0.04102 0.0091 1.1e-5 0.02278 1.1e-5 0.04102 0 0.04556-0.03645 0.04101-0.08202-0.01367-0.13672-0.03647-0.04556-0.06837-0.06835-0.0957-0.06836m-1.7637 0.01367c-0.01824 1.2e-5 -0.03191 0.0046-0.04101 0.01367-0.0091 0.01824 0.0091 0.05926 0.05469 0.12305 0.0091 0.0091 0.01822 0.02736 0.02734 0.05469 0.0091 0.01824 0.01822 0.03191 0.02734 0.04102 0.0091 0.0091 0.02278 0.01368 0.04101 0.01367 0.0091 1.1e-5 0.0091-0.02277 0-0.06836-6e-6 -0.05468-0.0091-0.09569-0.02734-0.12305-0.01824-0.03645-0.04558-0.05468-0.08203-0.05469m0.75195 0.46484c-0.25521-0.0091-0.46029 0.06381-0.61523 0.21875-0.01824 0.01824-0.06381 0.0547-0.13672 0.10938-0.06381 0.0547-0.11394 0.09571-0.15039 0.12305-0.03646 0.02735-0.07748 0.06837-0.12305 0.12305-0.04558 0.04558-0.08659 0.09116-0.12305 0.13672-0.02735 0.06381-0.03191 0.13217-0.01367 0.20508 0.0091-0.0091 0.02278-0.01366 0.04102-0.01367 0.01822 0.0091 0.0638 0.04558 0.13672 0.10938 0.07291 0.06381 0.12304 0.10483 0.15039 0.12305 0.03645 0.03647 0.08658 0.06381 0.15039 0.08203 0.13671 0.0547 0.23697 0.08204 0.30078 0.08203 0.17317 1e-5 0.28255-0.0045 0.32812-0.01367 0.08202-0.0091 0.20507-0.04556 0.36914-0.10938 0.20051-0.09114 0.41926-0.20962 0.65625-0.35547 0.22786-0.12759 0.36458-0.18228 0.41016-0.16406 0.03645 0.01824 0.02278 0.05014-0.04102 0.0957-0.06381 0.04558-0.15496 0.10027-0.27344 0.16406-0.3099 0.17319-0.47852 0.26889-0.50586 0.28711-0.28256 0.13673-0.51498 0.20509-0.69726 0.20508-0.17318 1e-5 -0.29167-0.0045-0.35547-0.01367-0.10027-0.01822-0.16863-0.03645-0.20508-0.05469-0.10938-0.05468-0.2142-0.12304-0.31445-0.20508-0.04558-0.03645-0.08204-0.06835-0.10938-0.0957 0.04557 0.08204 0.11393 0.1504 0.20508 0.20508 0.03645 0.03647 0.09114 0.09116 0.16406 0.16406 0.07291 0.06381 0.14127 0.12306 0.20508 0.17774 0.0638 0.0547 0.1276 0.10483 0.19141 0.15039 0.14583 0.0547 0.3509 0.05925 0.61523 0.01367 0.11848-0.03645 0.2871-0.1276 0.50586-0.27344 0.21874-0.14582 0.39192-0.23241 0.51953-0.25977 0.10025-0.05468 0.16861-0.14127 0.20508-0.25977 0.04556-0.12759 0.05468-0.24608 0.02734-0.35547-0.01824-0.04556-0.05014-0.08202-0.0957-0.10938-0.03647-0.02733-0.06837-0.04556-0.0957-0.05469-0.02735-0.0091-0.07292-0.02278-0.13672-0.04102-0.06381-0.02733-0.10483-0.041-0.12305-0.04102-0.25522-0.06379-0.46941-0.1595-0.64258-0.28711-0.10027-0.04556-0.24154-0.06835-0.42383-0.06836m0.19141 0.08203c0.06379 1.1e-5 0.10481 0.0091 0.12305 0.02734 0.02734 0.01824 0.04557 0.04103 0.05469 0.06836 0.0091 0.02736 0.0045 0.04558-0.01367 0.05469-0.01824 0.0091-0.05014 0.0046-0.0957-0.01367-0.0091-0.0091-0.02735-0.01822-0.05469-0.02734-0.02735-0.0091-0.05014-0.01822-0.06836-0.02734-0.01824-0.01822-0.02735-0.03189-0.02734-0.04102-0.0091-0.0091-0.0046-0.01822 0.01367-0.02734 0.01822-0.0091 0.04101-0.01366 0.06836-0.01367m-0.50586 0.02734c0.07291 1.1e-5 0.07747 0.0228 0.01367 0.06836-0.02735 0.01824-0.05925 0.04103-0.0957 0.06836-0.0091 0.0091-0.02735 0.0091-0.05469 0-0.02735-0.01822-0.03646-0.03189-0.02734-0.04102 0.01822-0.04556 0.05924-0.07291 0.12305-0.08203 0.01822-0.0091 0.03189-0.01366 0.04101-0.01367m2.4062 0.90234c-0.02735 1e-5 -0.04558 0.0091-0.05469 0.02734-0.0091 0.01824-0.01368 0.05014-0.01367 0.0957 0.0091 0.03647 0.02734 0.0866 0.05469 0.15039 0.03645 0.06381 0.07747 0.1185 0.12305 0.16406 0.1276 0.13673 0.22786 0.16407 0.30078 0.08203 0.08202-0.08202 0.06835-0.18684-0.04102-0.31445-0.02735-0.02733-0.07293-0.05012-0.13672-0.06836-0.0547-0.01822-0.09571-0.04101-0.12305-0.06836-0.03647-0.04556-0.07293-0.06835-0.10938-0.06836m-0.56055 0.06836c-0.07292 0.10938-0.19597 0.19142-0.36914 0.24609-0.04558 0.01824-0.19597 0.10938-0.45117 0.27344-0.25522 0.16407-0.45118 0.2461-0.58789 0.24609-0.26433 9e-6 -0.42839-0.01366-0.49219-0.04102-0.03646-0.0091-0.08204-0.03645-0.13672-0.08203-0.04558-0.04556-0.10482-0.10025-0.17773-0.16406-0.06381-0.06379-0.1185-0.11848-0.16406-0.16406-0.10027-0.08202-0.17774-0.14582-0.23242-0.19141-0.03646 0.29168-0.05469 0.51043-0.05469 0.65625-6e-6 0.07293-0.0091 0.12761-0.02734 0.16406-0.01823 0.03647-0.05925 0.09571-0.12305 0.17773-0.06381 0.08204-0.11849 0.15951-0.16406 0.23242-0.05469 0.09115-0.10938 0.18686-0.16406 0.28711-0.02735 0.10027-0.03191 0.17774-0.01367 0.23242 0.01823 0.04558 0.04557 0.09115 0.08203 0.13672 0.04557 0.03647 0.09114 0.06381 0.13672 0.08203 0.04557 0.01824 0.08203 0.04102 0.10938 0.06836 0.03645 0.01824 0.05013 0.03191 0.04102 0.04102-5e-6 0.02735-0.02735 0.05014-0.08203 0.06836-0.04558 0.01824-0.10482 0.04102-0.17774 0.06836-0.07292 0.02735-0.13672 0.0547-0.19141 0.08203-0.0091 0.0091-0.09115 0.08204-0.24609 0.21875-0.02735 0.06381-0.11394 0.23243-0.25976 0.50586-0.13672 0.26433-0.22331 0.46029-0.25977 0.58789-0.0091 0.05469-0.0319 0.14584-0.06836 0.27344-0.02735 0.1185-0.05013 0.20964-0.06836 0.27344-0.0091 0.06381-0.01823 0.15495-0.02734 0.27344-0.0091 0.11849-0.01368 0.24154-0.01367 0.36914-4e-6 0.14584 0.0046 0.24154 0.01367 0.28711-0.10026-0.10937-0.16862-0.20052-0.20508-0.27344-0.09115-0.18229-0.12305-0.41927-0.0957-0.71094 0.01823-0.2552 0.10937-0.57877 0.27344-0.9707 0.05468-0.13671 0.10937-0.2552 0.16406-0.35547 0.0638-0.10937 0.10481-0.17773 0.12305-0.20508 0.02734-0.03645 0.0319-0.05924 0.01367-0.06836-0.0091-0.01822-0.0319 0.0046-0.06836 0.06836-0.07292 0.10027-0.14128 0.22331-0.20508 0.36914-0.20964 0.43751-0.33269 0.81576-0.36914 1.1348-0.02735 0.28256 0.0046 0.52409 0.0957 0.72461 0.05468 0.11849 0.16406 0.25521 0.32812 0.41016 0.0091 0.0091 0.04557 0.04102 0.10938 0.0957 0.38281 0.31901 0.57421 0.47852 0.57422 0.47852 0.0638 0.05469 0.16862 0.14128 0.31445 0.25977 0.15494 0.11849 0.28255 0.22331 0.38281 0.31445 0.10937 0.09115 0.17317 0.15495 0.19141 0.19141 0.1276 0.1823 0.14127 0.35091 0.04101 0.50586-0.07292 0.09115-0.24154 0.14128-0.50586 0.15039 0.07291 0.10026 0.1595 0.21875 0.25977 0.35547 0.10937 0.13672 0.18229 0.23242 0.21875 0.28711 0.319 0.20052 0.84309 0.23242 1.5723 0.0957 0.5651-0.10937 1.0937-0.40104 1.5859-0.875l0.19141-0.20508c0.0091-0.13672 0.01366-0.39192 0.01367-0.76562-9e-6 -0.45572 0.02734-0.70182 0.08203-0.73828 0.10025-0.0638 0.19595-0.0957 0.28711-0.0957h0.06836c0.10025 4e-6 0.16861 0.0046 0.20508 0.01367 0.04556-0.26432 0.06835-0.49218 0.06836-0.68359-9e-6 -0.60156-0.06381-1.112-0.19141-1.5312-0.03647-0.10937-0.08204-0.21874-0.13672-0.32812-0.04558-0.11848-0.10483-0.24153-0.17773-0.36914-0.06381-0.1276-0.11394-0.23241-0.15039-0.31445-0.09115-0.20051-0.18686-0.45116-0.28711-0.75195-0.10027-0.30077-0.20053-0.53319-0.30078-0.69726-0.07293-0.1276-0.13673-0.26887-0.19141-0.42383-0.0547-0.16405-0.09115-0.26431-0.10938-0.30078m0.38281 2.0234c0.03645 7e-6 0.05924 7e-6 0.06836 0 0.04556 0.01824 0.1276 0.10482 0.24609 0.25976 0.11848 0.14584 0.21874 0.29167 0.30078 0.4375 0.09114 0.14584 0.12304 0.22331 0.0957 0.23242-0.02735 0.0091-0.07293-0.01366-0.13672-0.06836-0.06381-0.05468-0.1504-0.12304-0.25977-0.20508-0.10027-0.09114-0.20509-0.1595-0.31445-0.20508-0.06381-0.03645-0.14128-0.06835-0.23242-0.0957-0.08204-0.02734-0.15951-0.05012-0.23242-0.06836-0.06381-0.01822-0.12761-0.03189-0.19141-0.04102-0.0547-0.01822-0.10027-0.03189-0.13672-0.04102-0.02735-0.01822-0.04102-0.03189-0.04102-0.04102 0.0091-0.03645 0.11848-0.07291 0.32812-0.10938 0.20963-0.03645 0.37825-0.05468 0.50586-0.05469m-2.4336 0.05469h0.01367c0.0091 8e-6 0.03645 0.0091 0.08203 0.02734 0.05468 0.01824 0.09114 0.02735 0.10938 0.02734 0.01822 7e-6 0.05468-0.0045 0.10938-0.01367 0.0638-0.0091 0.11393-0.01366 0.15039-0.01367 0.04557-0.0091 0.07291-0.01366 0.08203-0.01367 0.0091 0.0091-0.0046 0.02279-0.04102 0.04102-0.02735 0.0091-0.06381 0.02735-0.10938 0.05469-0.03646 0.01824-0.06381 0.03191-0.08203 0.04102-0.03646 0.0547-0.07292 0.07748-0.10938 0.06836-0.0091 8e-6 -0.01824-0.0046-0.02734-0.01367-7e-6 -0.0091-0.0091-0.02278-0.02734-0.04102-0.0091-0.01822-0.01823-0.03189-0.02734-0.04102-0.02735-0.02734-0.05925-0.05468-0.0957-0.08203-0.02735-0.0091-0.03646-0.02278-0.02734-0.04102m3.3906 0.21875c-9e-6 8e-6 -0.0046 8e-6 -0.01367 0-9e-6 0.0091 0.02278 0.02735 0.06836 0.05469 0.05468 0.02735 0.13671 0.08204 0.24609 0.16406 0.10937 0.08204 0.20963 0.18686 0.30078 0.31445 0.30988 0.41928 0.43293 0.85222 0.36914 1.2988-0.02735 0.23698-0.06381 0.42839-0.10938 0.57422-0.02735 0.09115-0.06837 0.20964-0.12305 0.35547-0.1185 0.0091-0.20053 0.02735-0.24609 0.05469-0.09116 0.07292-0.12761 0.12305-0.10938 0.15039 0.0091 5e-6 0.03645-0.01823 0.08203-0.05469 0.04556-0.03645 0.09114-0.0638 0.13672-0.08203 0.09114-0.02734 0.21874-0.03645 0.38281-0.02734 0.15494 0.0091 0.2871 0.03191 0.39648 0.06836 0.13671 0.04558 0.23241 0.10938 0.28711 0.19141 0.06379 0.09115 0.09569 0.10938 0.0957 0.05469 0.0091-0.0091 0.0091-0.01823 0-0.02734-1.1e-5 -0.08203-0.09571-0.16406-0.28711-0.24609l-0.25977-0.06836c-0.01824-0.0091-0.11394-0.01823-0.28711-0.02734-0.03647 5e-6 -0.0866 5e-6 -0.15039 0 0.0091-0.01822 0.02278-0.04101 0.04102-0.06836 0.1914-0.42838 0.25976-0.84309 0.20508-1.2441-0.06381-0.43749-0.25522-0.82031-0.57422-1.1484-0.04558-0.05468-0.12306-0.11392-0.23242-0.17774-0.10938-0.07291-0.1823-0.10937-0.21875-0.10938m-3.459 1.5449c0.01822 0.04558 0.02278 0.10027 0.01367 0.16406-6e-6 0.05469-0.0091 0.17774-0.02734 0.36914-0.01823 0.19141-0.02735 0.35547-0.02734 0.49219-6e-6 0.14584 0.0046 0.28711 0.01367 0.42383 0.01822 0.12761 0.02734 0.20964 0.02734 0.24609 0.0091 0.02735 0.0091 0.06381 0 0.10938-0.01823 0.01823-0.04102 0.0046-0.06836-0.04102-0.01824-0.04557-0.04102-0.1276-0.06836-0.24609-0.01824-0.11848-0.02279-0.2552-0.01367-0.41016-6e-6 -0.2552 0.01367-0.5013 0.04102-0.73828 0.03645-0.24609 0.07291-0.36914 0.10938-0.36914m-2.625 1.3809c-0.0091 5e-6 -0.01823 5e-6 -0.02734 0-0.0091 5e-6 -0.01823 5e-6 -0.02734 0-0.0091 5e-6 -0.01823 0.0046-0.02734 0.01367-4e-6 5e-6 -0.0046 5e-6 -0.01367 0-4e-6 5e-6 -0.0046 0.0046-0.01367 0.01367-0.01823 5e-6 -0.02735 5e-6 -0.02734 0-3e-6 5e-6 -0.0046 0.0046-0.01367 0.01367-3e-6 5e-6 -0.0046 5e-6 -0.01367 0-0.0091 5e-6 -0.01367 0.0046-0.01367 0.01367-3e-6 4e-6 -3e-6 4e-6 0 0h-0.01367l-0.01367 0.01367h-0.01367c-3e-6 0.0091-0.0046 0.01368-0.01367 0.01367-0.0091 0.0091-0.01823 0.01368-0.02734 0.01367-0.0091 0.0091-0.01367 0.01823-0.01367 0.02734-3e-6 5e-6 -0.0046 5e-6 -0.01367 0-3e-6 5e-6 -0.0046 0.0046-0.01367 0.01367-3e-6 5e-6 -3e-6 5e-6 0 0l-0.02734 0.02734c-3e-6 4e-6 -3e-6 4e-6 0 0l-0.01367 0.01367-0.02734 0.04102c-0.0091 5e-6 -0.01367 5e-6 -0.01367 0-0.02735 0.04558-0.08203 0.12305-0.16406 0.23242-0.20964 0.32813-0.4375 0.51498-0.68359 0.56055-0.04557 0.01823-0.11849 0.03646-0.21875 0.05469-0.10026 0.0091-0.18685 0.02735-0.25977 0.05469-0.07292 0.02735-0.13672 0.06381-0.19141 0.10938-0.02735 0.04558-0.04557 0.10026-0.05469 0.16406-2e-6 0.05469 0.0046 0.12305 0.01367 0.20508 0.01823 0.07292 0.02734 0.12761 0.02734 0.16406 0.05469 0.34636 0.0319 0.74284-0.06836 1.1895-0.0091 0.08203 0.01367 0.15951 0.06836 0.23242 0.0638 0.0638 0.13672 0.10482 0.21875 0.12305 0.17318 0.0638 0.42383 0.13216 0.75195 0.20508 0.32812 0.0638 0.53776 0.10938 0.62891 0.13672 0.1276 0.02735 0.25976 0.0638 0.39648 0.10938 0.14583 0.04557 0.30534 0.10482 0.47852 0.17773 0.18229 0.0638 0.31901 0.10938 0.41016 0.13672 0.35546 0.10938 0.61979 0.0957 0.79297-0.04102 0.02734-0.01823 0.05468-0.04102 0.08203-0.06836 0.03645-0.02734 0.07291-0.05924 0.10938-0.0957 0.03645-0.03646 0.0638-0.0638 0.08203-0.08203l0.05469-0.04102 0.02734-0.02734h0.01367l0.04101-0.04101c0.01822-0.0091 0.02734-0.01367 0.02734-0.01367 0.02734-0.03646 0.04557-0.07747 0.05469-0.12305 0.01822-0.04557 0.02734-0.08203 0.02734-0.10938-6e-6 -0.02734-6e-6 -0.07292 0-0.13672-6e-6 -0.0638-6e-6 -0.10482 0-0.12305-0.01823-0.17318-0.13672-0.38281-0.35547-0.62891-0.16407-0.21875-0.41016-0.597-0.73828-1.1348-0.32813-0.53776-0.60612-0.92968-0.83398-1.1758-0.01823-0.0091-0.04558-0.0319-0.08203-0.06836-0.03646-0.03645-0.0638-0.0638-0.08203-0.08203s-0.04558-0.03645-0.08203-0.05469c-0.03646-0.01822-0.07292-0.02734-0.10938-0.02734m6.084 0.25977c-0.0091 4e-6 -0.03191 4e-6 -0.06836 0-0.03647 4e-6 -0.06381 4e-6 -0.08203 0-0.15496 0.0091-0.23243 0.06381-0.23242 0.16406-0.01824 0.13672-0.02735 0.31901-0.02734 0.54688 0.0091 0.22787 0.0091 0.41016 0 0.54688-9e-6 0.04557-9e-6 0.09115 0 0.13672-9e-6 0.0091-9e-6 0.02279 0 0.04102-9e-6 0.0091-9e-6 0.01367 0 0.01367-0.0091 0.06381-0.01368 0.12305-0.01367 0.17773v0.01367c-0.0091 0.0091-0.01368 0.01367-0.01367 0.01367-9e-6 0.03646-0.0046 0.08659-0.01367 0.15039v0.01367l-0.01367 0.08203c-8e-6 0.0091-8e-6 0.01823 0 0.02734-8e-6 0.0091-8e-6 0.01367 0 0.01367-8e-6 0.01823-0.0046 0.05469-0.01367 0.10938-9e-6 3e-6 -0.0046 0.0046-0.01367 0.01367-9e-6 0.0091-9e-6 0.01367 0 0.01367v0.04102l-0.02734 0.12305c-9e-6 0.0091-9e-6 0.01823 0 0.02734-9e-6 2e-6 -9e-6 2e-6 0 0l-0.01367 0.10938-0.06836 0.36914c-9e-6 0.01823-0.0046 0.04102-0.01367 0.06836-9e-6 2e-6 -9e-6 0.0046 0 0.01367-9e-6 0.0091-9e-6 0.01367 0 0.01367-9e-6 0.02735-0.0046 0.05469-0.01367 0.08203-9e-6 2e-6 -9e-6 0.0046 0 0.01367-9e-6 2e-6 -9e-6 2e-6 0 0-9e-6 0.01823-9e-6 0.03646 0 0.05469-9e-6 0.0091-9e-6 0.01367 0 0.01367-9e-6 1e-6 -9e-6 0.01367 0 0.04102-9e-6 1e-6 -9e-6 0.0046 0 0.01367-9e-6 0.01823-9e-6 0.03646 0 0.05469-9e-6 1e-6 -9e-6 0.0091 0 0.02734-9e-6 1e-6 -9e-6 0.0046 0 0.01367-9e-6 0.01823-9e-6 0.0319 0 0.04102 0.0091 0.01823 0.01366 0.03646 0.01367 0.05469-9e-6 0.0091-9e-6 0.01367 0 0.01367-9e-6 0.0091-9e-6 0.01367 0 0.01367 0.0091 0.01823 0.01366 0.0319 0.01367 0.04102-9e-6 0.02734-9e-6 0.04557 0 0.05469 0.0091 0.02735 0.01822 0.05469 0.02734 0.08203 0.03645 0.09115 0.08202 0.17318 0.13672 0.24609 0.14582 0.13672 0.42838 0.19596 0.84766 0.17774 0.27343-0.02734 0.50585-0.15039 0.69727-0.36914 0.07291-0.07292 0.14582-0.14128 0.21875-0.20508 0.08202-0.0638 0.17317-0.1276 0.27344-0.19141 0.10025-0.07292 0.17772-0.13216 0.23242-0.17774 0.06379-0.04557 0.15949-0.10482 0.28711-0.17773 0.12759-0.08203 0.20962-0.13216 0.24609-0.15039 0.03645-0.02734 0.13215-0.08659 0.28711-0.17773 0.16405-0.09114 0.2552-0.14127 0.27344-0.15039 0.20962-0.1276 0.30077-0.26432 0.27344-0.41016-0.01824-0.0638-0.07293-0.12304-0.16406-0.17773-0.09116-0.05468-0.14584-0.08659-0.16406-0.0957-0.32814-0.23698-0.56056-0.48763-0.69727-0.75195-0.01824-0.05468-0.0228-0.16862-0.01367-0.3418 0.0091-0.18229-0.01824-0.29622-0.08203-0.3418-0.03647-0.02734-0.08204-0.0319-0.13672-0.01367-1.1e-5 4e-6 -0.0046 4e-6 -0.01367 0-1.2e-5 0.0091-0.0046 0.01368-0.01367 0.01367-1.2e-5 4e-6 -0.0046 0.0046-0.01367 0.01367-1.1e-5 5e-6 -1.1e-5 0.0046 0 0.01367h-0.01367v0.01367l-0.01367 0.01367c-1.1e-5 4e-6 -1.1e-5 0.0046 0 0.01367-0.1185 0.20964-0.27801 0.38282-0.47852 0.51953-0.01824 0.0091-0.03647 0.01823-0.05469 0.02734-0.0091 3e-6 -0.01824 0.0046-0.02734 0.01367-0.10938 0.06381-0.22788 0.10026-0.35547 0.10938-0.01824 3e-6 -0.02735 3e-6 -0.02734 0-0.17319 0.0091-0.33269-0.0319-0.47852-0.12305-0.21876-0.1276-0.32358-0.27343-0.31445-0.4375-1e-5 -0.02734 0.0045-0.08203 0.01367-0.16406 0.01822-0.08203 0.01822-0.13216 0-0.15039-0.0091 4e-6 -0.01824 4e-6 -0.02734 0-0.02735-0.01823-0.06837-0.02734-0.12305-0.02734" fill="#eee"/>
</g>
<g transform="matrix(1.7591 0 0 1.6253 -15.875 -31.239)" fill="#fefefe">
<path d="m19.253 52.387v-4.0134h0.58574v3.4765h1.3938v0.53693h-1.9796"/>
<path d="m21.636 52.387v-4.0134h0.58574v4.0134h-0.58574"/>
<path d="m23.056 52.387v-4.0134h0.58574v3.4765h1.3938v0.53693h-1.9796"/>
<path d="m27.407 50.668-0.50981-1.5348h-0.01085l-0.51523 1.5348h1.0359m0.6454 1.7192-0.44473-1.1823h-1.4426l-0.44473 1.1823h-0.61828l1.524-4.0134h0.52608l1.524 4.0134h-0.6237"/>
</g>
</g>
</g>
<rect transform="matrix(1.0637 0 0 1.0422 4.038 38.816)" x="2" y="-30" width="75.966" height="69.024" rx="3.957" ry="3.957" clip-path="url(#clipPath4156-4-1)" fill="url(#linearGradient4767)" opacity=".454"/>
</g>
</g>
</g>
</svg>
