<?xml version="1.0" encoding="UTF-8"?>
<!-- Created with Inkscape (http://www.inkscape.org/) -->
<svg version="1.1" viewBox="0 0 96 96" xmlns="http://www.w3.org/2000/svg" xmlns:cc="http://creativecommons.org/ns#" xmlns:dc="http://purl.org/dc/elements/1.1/" xmlns:rdf="http://www.w3.org/1999/02/22-rdf-syntax-ns#" xmlns:xlink="http://www.w3.org/1999/xlink">
<script xlink:href=""/>
<defs>
<linearGradient id="linearGradient4408" x1="6" x2="90" y1="47" y2="47" gradientTransform="matrix(1.1354 0 0 1.1337 -40.037 -46.788)" gradientUnits="userSpaceOnUse">
<stop stop-color="#b7b7b7" offset="0"/>
<stop stop-color="#fff" offset=".25"/>
<stop stop-color="#9d9d9d" offset=".5"/>
<stop stop-color="#fafafa" offset=".75"/>
<stop stop-color="#b7b7b7" offset="1"/>
</linearGradient>
<linearGradient id="linearGradient4410" x1="-30.363" x2="59.75" y1="3.0703" y2="3.0703" gradientUnits="userSpaceOnUse">
<stop stop-color="#c6c6c6" offset="0"/>
<stop stop-color="#e7e7e7" offset="1"/>
</linearGradient>
<radialGradient id="radialGradient4412" cx="158" cy="6.2132" r="41" gradientTransform="matrix(0 1.6209 -2.0383 0 160.66 -243.04)" gradientUnits="userSpaceOnUse">
<stop stop-color="#fff" offset="0"/>
<stop stop-color="#fff" stop-opacity="0" offset="1"/>
</radialGradient>
<radialGradient id="radialGradient4414" cx="48" cy="-27" r="42" gradientTransform="matrix(-1.0722 0 0 -.87502 199.46 -19.126)" gradientUnits="userSpaceOnUse">
<stop stop-color="#fff" offset="0"/>
<stop stop-color="#fff" offset=".8"/>
<stop stop-color="#fff" stop-opacity="0" offset="1"/>
</radialGradient>
<linearGradient id="linearGradient4416" x1="1.5" x2="94.5" y1="88.172" y2="88.172" gradientUnits="userSpaceOnUse">
<stop offset="0"/>
<stop stop-opacity=".58824" offset=".1"/>
<stop stop-opacity=".58824" offset=".9"/>
<stop offset="1"/>
</linearGradient>
<radialGradient id="radialGradient4418" cx="13.948" cy="44.893" r="43.199" gradientTransform="matrix(1 0 0 .050369 0 39.432)" gradientUnits="userSpaceOnUse" xlink:href="#linearGradient4133"/>
<linearGradient id="linearGradient4133">
<stop stop-color="#fff" offset="0"/>
<stop stop-color="#fff" stop-opacity="0" offset="1"/>
</linearGradient>
<radialGradient id="radialGradient4420" cx="13.948" cy="44.893" r="43.199" gradientTransform="matrix(.90961 0 0 .050445 -11.185 -58.258)" gradientUnits="userSpaceOnUse" xlink:href="#linearGradient4133"/>
<linearGradient id="linearGradient4422" x1="53" x2="53" y1="74" y2="32.988" gradientUnits="userSpaceOnUse" xlink:href="#linearGradient4133"/>
<linearGradient id="linearGradient4424" x1="48" x2="48" y1="24" y2="72" gradientUnits="userSpaceOnUse">
<stop offset="0"/>
<stop stop-color="#393939" offset="1"/>
</linearGradient>
<linearGradient id="linearGradient4426" x1="48" x2="48" y1="72" y2="24" gradientUnits="userSpaceOnUse" xlink:href="#linearGradient4133"/>
<radialGradient id="radialGradient4428" cx="48" cy="70" r="16" gradientTransform="matrix(1.1875 0 0 .5625 -9 27)" gradientUnits="userSpaceOnUse" xlink:href="#linearGradient4133"/>
<linearGradient id="linearGradient4430" x1="33" x2="33" y1="68" y2="61" gradientTransform="matrix(.5 0 0 1 18 0)" gradientUnits="userSpaceOnUse" xlink:href="#linearGradient4236"/>
<linearGradient id="linearGradient4236">
<stop stop-color="#ffdf39" offset="0"/>
<stop stop-color="#eb9c00" stop-opacity="0" offset="1"/>
</linearGradient>
<linearGradient id="linearGradient4432" x1="33" x2="33" y1="68" y2="61" gradientTransform="matrix(.5 0 0 1 22 0)" gradientUnits="userSpaceOnUse" xlink:href="#linearGradient4236"/>
<linearGradient id="linearGradient4434" x1="33" x2="33" y1="68" y2="61" gradientTransform="matrix(.5 0 0 1 26 0)" gradientUnits="userSpaceOnUse" xlink:href="#linearGradient4236"/>
<linearGradient id="linearGradient4436" x1="33" x2="33" y1="68" y2="61" gradientTransform="matrix(.5 0 0 1 30 0)" gradientUnits="userSpaceOnUse" xlink:href="#linearGradient4236"/>
<linearGradient id="linearGradient4438" x1="33" x2="33" y1="68" y2="61" gradientTransform="matrix(.5 0 0 1 34 0)" gradientUnits="userSpaceOnUse" xlink:href="#linearGradient4236"/>
<linearGradient id="linearGradient4440" x1="33" x2="33" y1="68" y2="61" gradientTransform="matrix(.5 0 0 1 38 0)" gradientUnits="userSpaceOnUse" xlink:href="#linearGradient4236"/>
<linearGradient id="linearGradient4442" x1="33" x2="33" y1="68" y2="61" gradientTransform="matrix(.5 0 0 1 42 0)" gradientUnits="userSpaceOnUse" xlink:href="#linearGradient4236"/>
<linearGradient id="linearGradient4444" x1="33" x2="33" y1="68" y2="61" gradientTransform="matrix(.5 0 0 1 46 0)" gradientUnits="userSpaceOnUse" xlink:href="#linearGradient4236"/>
<linearGradient id="linearGradient4446" x1="2.7714" x2="50.528" y1="-28.642" y2="14.514" gradientUnits="userSpaceOnUse">
<stop stop-color="#fff" offset="0"/>
<stop stop-color="#fff" stop-opacity="0" offset="1"/>
</linearGradient>
<clipPath id="clipPath4156-4">
<path d="m27.046-55.695-14.214 13.321h0.06127l15.653 21.771 10.231-10.546c-0.2169-1.1522-11.311-23.67-11.732-24.546zm-17.399 16.313-14.888 14.062 21.229 17.515 10.385-10.577-16.726-21zm31.491 12.951-9.7413 9.7136 8.9448 12.458 7.7808-7.555-6.9843-14.617zm-49.84 4.3788-13.754 12.982 26.283 13.846 0.06127-0.0617-0.12253-0.0617 9.8332-10.053-22.301-16.652zm38.015 7.4008-9.8025 9.7753 11.579 9.5594 7.6276-7.4008-8.6691-11.009-0.73519-0.9251zm20.187 5.674-7.3825 7.2158 6.1878 8.5418 5.8202-6.1365-4.6256-9.6211zm-32.195 6.3215-9.5575 9.4977 13.662 7.185 7.9339-7.6784-12.039-9.0043zm23.312 2.3744-7.1068 6.9383 8.3628 6.9074 5.3608-5.674-0.06127-0.0925-0.0919 0.12335-6.4635-8.2026zm-8.7304 8.5418-7.5051 7.3392 10.354 5.4581c1.3975-1.321 5.6751-6.1229 5.8509-6.3215l-8.6997-6.4757z" fill="#fff" opacity=".6"/>
</clipPath>
<radialGradient id="radialGradient5745" cx="71.727" cy="68.182" r="2.2727" gradientTransform="matrix(1 0 0 .72 0 19.091)" gradientUnits="userSpaceOnUse">
<stop offset="0"/>
<stop stop-opacity="0" offset="1"/>
</radialGradient>
<radialGradient id="radialGradient5753" cx="71.727" cy="68.182" r="2.7167" gradientTransform="matrix(1 0 0 .76576 0 15.971)" gradientUnits="userSpaceOnUse">
<stop stop-color="#fff" offset="0"/>
<stop stop-color="#fff" stop-opacity="0" offset="1"/>
</radialGradient>
<filter id="filter5887" x="-.32696" y="-.45412" width="1.6539" height="1.9082">
<feGaussianBlur stdDeviation="0.61924806"/>
</filter>
<filter id="filter4123" x="-.144" y="-.144" width="1.288" height="1.288" color-interpolation-filters="sRGB">
<feGaussianBlur stdDeviation="3.96"/>
</filter>
<linearGradient id="linearGradient2885" x1="48" x2="48" y1="20.221" y2="138.66" gradientUnits="userSpaceOnUse">
<stop stop-color="#fff" offset="0"/>
<stop stop-color="#fff" stop-opacity="0" offset="1"/>
</linearGradient>
<clipPath id="clipPath3613">
<rect x="6" y="6" width="84" height="84" rx="6" ry="6" fill="#fff"/>
</clipPath>
<filter id="filter3174" color-interpolation-filters="sRGB">
<feGaussianBlur stdDeviation="1.71"/>
</filter>
<linearGradient id="ButtonShadow" x1="45.448" x2="45.448" y1="92.54" y2="7.0165" gradientTransform="scale(1.0059 .99417)" gradientUnits="userSpaceOnUse">
<stop offset="0"/>
<stop stop-opacity=".58824" offset="1"/>
</linearGradient>
</defs>
<metadata>
<rdf:RDF>
<cc:Work rdf:about="">
<dc:format>image/svg+xml</dc:format>
<dc:type rdf:resource="http://purl.org/dc/dcmitype/StillImage"/>
<dc:title/>
</cc:Work>
</rdf:RDF>
</metadata>
<g transform="translate(0,32)">
<g transform="matrix(1.0034 0 0 1.005 33.489 9.4732)">
<path d="m55.463-41.269h-82.003c-3.7858 0-6.8336 3.0432-6.8336 6.8233v81.88c0 3.7801 3.0478 6.8233 6.8336 6.8233h82.003c3.7858 0 6.8336-3.0432 6.8336-6.8233v-81.88c0-3.7801-3.0478-6.8233-6.8336-6.8233z" opacity=".15"/>
<path d="m54.822-40.522h-80.722c-3.7267 0-6.7268 2.9956-6.7268 6.7167v80.6c0 3.721 3.0002 6.7167 6.7268 6.7167h80.722c3.7267 0 6.7268-2.9956 6.7268-6.7167v-80.6c0-3.721-3.0002-6.7167-6.7268-6.7167z" opacity=".15"/>
<path transform="matrix(.97179 0 0 .97179 .40799 .18323)" d="m55.334-41.119h-81.747c-3.774 0-6.8123 3.0337-6.8123 6.802v81.624c0 3.7683 3.0383 6.802 6.8123 6.802h81.747c3.774 0 6.8123-3.0337 6.8123-6.802v-81.624c0-3.7683-3.0383-6.802-6.8123-6.802z" fill="url(#linearGradient4408)"/>
<path transform="matrix(.97179 0 0 .97179 .40799 .18323)" d="m-25.62-37.409h80.627c2.6275 0 4.7428 2.0633 4.7428 4.6262v71.706c0 2.5629-2.1153 4.6262-4.7428 4.6262h-80.627c-2.6275 0-4.7428-2.0633-4.7428-4.6262v-71.706c0-2.5629 2.1153-4.6262 4.7428-4.6262z" color="#000000" fill="url(#linearGradient4410)"/>
<g transform="matrix(1.1033 0 0 1.1017 -148.83 -44.734)">
<path d="m112 5.5c-2.7873 0-5 2.2127-5 5v20.719 7 38.594c1.0707 1.6288 2.8969 2.7188 5 2.7188h4 64 4c2.1031 0 3.9293-1.09 5-2.7188v-38.594-7-20.719c0-2.7873-2.2127-5-5-5z" fill="url(#radialGradient4412)" opacity=".2"/>
<path d="m112 4.5c-3.324 0-6 2.676-6 6v15h1v-15c0-2.7873 2.2127-5 5-5h72c2.7873 0 5 2.2127 5 5v15h1v-15c0-3.324-2.676-6-6-6h-72z" fill="url(#radialGradient4414)" opacity=".45"/>
</g>
<path transform="matrix(.97179 0 0 .97179 .40799 .18323)" d="m-24.688-37.812c-3.1961 0-5.8125 2.6003-5.8125 5.7812v70.938c0 3.1809 2.6164 5.7812 5.8125 5.7812h78.75c3.1961 0 5.8125-2.6003 5.8125-5.7812v-70.938c0-3.1809-2.6164-5.7812-5.8125-5.7812h-78.75zm0 2.375h78.75c1.9362 0 3.4375 1.5155 3.4375 3.4062v70.938c0 1.8907-1.5013 3.4062-3.4375 3.4062h-78.75c-1.9362 0-3.4375-1.5155-3.4375-3.4062v-70.938c0-1.8907 1.5013-3.4062 3.4375-3.4062z" color="#000000" fill-opacity=".87149" style="block-progression:tb;text-indent:0;text-transform:none"/>
<path transform="matrix(.99657 0 0 .99507 -33.374 -41.269)" d="m1.5 81.844v6c0 3.6801 2.9761 6.6562 6.6562 6.6562h79.688c3.6801 0 6.6562-2.9761 6.6562-6.6562v-6c0 3.6801-2.9761 6.6562-6.6562 6.6562h-79.688c-3.6801 0-6.6562-2.9761-6.6562-6.6562z" fill="url(#linearGradient4416)" opacity=".65"/>
<rect transform="matrix(.97179 0 0 .97179 .40799 .18323)" x="-29.251" y="39.517" width="86.398" height="4.3518" rx="0" ry="4.3518" fill="url(#radialGradient4418)" opacity=".55"/>
<rect transform="matrix(0 .97179 -.97179 0 .40799 .18323)" x="-37.791" y="-58.173" width="78.588" height="4.3584" rx="0" ry="4.3584" fill="url(#radialGradient4420)" opacity=".55"/>
<g transform="matrix(1.1787 0 0 1.177 -42.119 -49.981)">
<path d="m39.812 22.031a1.9844 1.9844 0 0 0-1.7812 1.9688v2.0312h-2.0312a1.9844 1.9844 0 0 0-1.9688 1.9688v2.0312h-7.0312c-2.7269 0-4.9688 2.2418-4.9688 4.9688v34c0 2.7269 2.2418 4.9688 4.9688 4.9688h42c2.7269 0 4.9688-2.2418 4.9688-4.9688v-34c0-2.7269-2.2418-4.9688-4.9688-4.9688h-7.0312v-2.0312a1.9844 1.9844 0 0 0-1.9688-1.9688h-2.0312v-2.0312a1.9844 1.9844 0 0 0-1.9688-1.9688h-16a1.9844 1.9844 0 0 0-0.1875 0z" color="#000000" fill="url(#linearGradient4422)" opacity=".8"/>
<path d="m40 24v4h-4v4h-9c-1.662 0-3 1.338-3 3v34c0 1.662 1.338 3 3 3h42c1.662 0 3-1.338 3-3v-34c0-1.662-1.338-3-3-3h-9v-4h-4v-4h-16z" color="#000000" fill="url(#linearGradient4424)"/>
<path d="m40 22v2h16v-2h-16zm-4 4v2h4v-2h-4zm20 0v2h4v-2h-4zm-29 4c-1.662 0-3 1.338-3 3v2c0-1.662 1.338-3 3-3h9v-2h-9zm33 0v2h9c1.662 0 3 1.338 3 3v-2c0-1.662-1.338-3-3-3h-9z" color="#000000" opacity=".15"/>
<path d="m40 24v4h-4v4h-9c-1.662 0-3 1.338-3 3v34c0 1.662 1.338 3 3 3h42c1.662 0 3-1.338 3-3v-34c0-1.662-1.338-3-3-3h-9v-4h-4v-4h-16zm1.9688 1.9688h12.062v2.0312a1.975 1.975 0 0 0 1.9688 1.9688h2.0312v2.0312a1.975 1.975 0 0 0 1.9688 1.9688h9c0.60214 0 1.0312 0.42911 1.0312 1.0312v34c0 0.60214-0.42911 1.0312-1.0312 1.0312h-42c-0.60214 0-1.0312-0.42911-1.0312-1.0312v-34c0-0.60214 0.42911-1.0312 1.0312-1.0312h9a1.975 1.975 0 0 0 1.9688-1.9688v-2.0312h2.0312a1.975 1.975 0 0 0 1.9688-1.9688v-2.0312z" color="#000000" fill="url(#linearGradient4426)" opacity=".2"/>
<rect x="29" y="54" width="38" height="18" color="#000000" fill="url(#radialGradient4428)" opacity=".2"/>
<rect x="34" y="61" width="1" height="7" color="#000000" fill="url(#linearGradient4430)"/>
<path d="m40 23v1h16v-1h-16zm-4 4v1h4v-1h-4zm20 0v1h4v-1h-4zm-29 4c-1.662 0-3 1.338-3 3v1c0-1.662 1.338-3 3-3h9v-1h-9zm33 0v1h9c1.662 0 3 1.338 3 3v-1c0-1.662-1.338-3-3-3h-9z" color="#000000" opacity=".3"/>
<rect x="38" y="61" width="1" height="7" color="#000000" fill="url(#linearGradient4432)"/>
<rect x="42" y="61" width="1" height="7" color="#000000" fill="url(#linearGradient4434)"/>
<rect x="46" y="61" width="1" height="7" color="#000000" fill="url(#linearGradient4436)"/>
<rect x="50" y="61" width="1" height="7" color="#000000" fill="url(#linearGradient4438)"/>
<rect x="54" y="61" width="1" height="7" color="#000000" fill="url(#linearGradient4440)"/>
<rect x="58" y="61" width="1" height="7" color="#000000" fill="url(#linearGradient4442)"/>
<rect x="62" y="61" width="1" height="7" color="#000000" fill="url(#linearGradient4444)"/>
</g>
<g transform="matrix(.90618 0 0 .9238 -27.685 -5.6507)" opacity=".7">
<rect transform="translate(-1.4999 -1.4)" x="2" y="-30" width="92" height="92" rx="3.957" ry="3.957" clip-path="url(#clipPath4156-4)" fill="url(#linearGradient4446)" opacity=".7"/>
<path d="m4.4689-31.4c-2.1922 0-3.964 1.7766-3.9688 3.9688l-0.163 75.358c2.1046 2.7155 1.8314 2.5968 5.3354 2.8858 1.9842-16.008 40.139-78.994 85.14-78.994 0.53676 0 1.0593 0.02139 1.5938 0.03125-0.33307-1.8506-1.9256-3.25-3.875-3.25z" fill="#fff" opacity=".3"/>
</g>
</g>
<g transform="translate(-.18182 -.18182)">
<path transform="matrix(1.3445 0 0 1.9668 -24.401 -97.869)" d="m74 68.182c0 0.90374-1.0175 1.6364-2.2727 1.6364s-2.2727-0.73262-2.2727-1.6364 1.0175-1.6364 2.2727-1.6364 2.2727 0.73262 2.2727 1.6364z" fill="url(#radialGradient5753)" filter="url(#filter5887)" opacity=".53986" stroke="url(#radialGradient5745)" stroke-dasharray="0.88800000000000001, 0.88800000000000001" stroke-linecap="round" stroke-linejoin="round" stroke-opacity=".69796" stroke-width=".888"/>
<g transform="translate(529.62 13.227)">
<g display="none">
<rect x="5" y="7" width="86" height="85" rx="6" ry="6" fill="url(#ButtonShadow)" filter="url(#filter3174)" opacity=".9"/>
<rect x="15" y="15" width="66" height="66" rx="12" ry="12" clip-path="url(#clipPath3613)" fill="url(#linearGradient2885)" filter="url(#filter4123)" opacity=".15" stroke="#fff" stroke-linecap="round" stroke-width=".5"/>
</g>
</g>
</g>
</g>
</svg>
