<?xml version="1.0" encoding="UTF-8"?>
<!-- Created with Inkscape (http://www.inkscape.org/) -->
<svg version="1.1" viewBox="0 0 96 96" xmlns="http://www.w3.org/2000/svg" xmlns:cc="http://creativecommons.org/ns#" xmlns:dc="http://purl.org/dc/elements/1.1/" xmlns:rdf="http://www.w3.org/1999/02/22-rdf-syntax-ns#" xmlns:xlink="http://www.w3.org/1999/xlink">
<defs>
<linearGradient id="linearGradient4093">
<stop stop-color="#fff" stop-opacity="0" offset="0"/>
<stop stop-color="#fff" offset=".037014"/>
<stop stop-color="#fff" stop-opacity="0" offset=".074477"/>
<stop stop-color="#fff" stop-opacity=".082353" offset=".5"/>
<stop stop-color="#fff" stop-opacity="0" offset=".92493"/>
<stop stop-color="#fff" offset=".95925"/>
<stop stop-color="#fff" stop-opacity="0" offset="1"/>
</linearGradient>
<linearGradient id="linearGradient4138" x1="-33.225" x2="62.147" y1="6.4946" y2="6.4946" gradientTransform="matrix(1.0034 0 0 1.005 32.838 9.0755)" gradientUnits="userSpaceOnUse">
<stop stop-color="#b7b7b7" offset="0"/>
<stop stop-color="#ebebeb" offset=".25"/>
<stop stop-color="#d9d9d9" offset=".5"/>
<stop stop-color="#e7e7e7" offset=".75"/>
<stop stop-color="#b7b7b7" offset="1"/>
</linearGradient>
<radialGradient id="radialGradient4140" cx="48" cy="-27" r="42" gradientTransform="matrix(-1.0722 0 0 -.87502 199.46 -19.126)" gradientUnits="userSpaceOnUse">
<stop stop-color="#fff" offset="0"/>
<stop stop-color="#fff" offset=".8"/>
<stop stop-color="#fff" stop-opacity="0" offset="1"/>
</radialGradient>
<linearGradient id="linearGradient4142" x1="-94" x2="-10.188" y1="82.984" y2="82.984" gradientTransform="matrix(1 0 0 .73089 200 23.097)" gradientUnits="userSpaceOnUse">
<stop offset="0"/>
<stop stop-opacity=".58824" offset=".1"/>
<stop stop-opacity=".58824" offset=".9"/>
<stop offset="1"/>
</linearGradient>
<linearGradient id="linearGradient4144" x1="8.1185" x2="87.881" y1="1004.4" y2="1004.4" gradientUnits="userSpaceOnUse">
<stop stop-color="#606060" offset="0"/>
<stop stop-color="#b5b5b5" offset=".25"/>
<stop stop-color="#7a7a7a" offset=".5"/>
<stop stop-color="#b6b6b6" offset=".75"/>
<stop stop-color="#606060" offset="1"/>
</linearGradient>
<linearGradient id="linearGradient4146" x1="16.119" x2="79.881" y1="998.36" y2="998.36" gradientUnits="userSpaceOnUse" xlink:href="#linearGradient4093"/>
<linearGradient id="linearGradient4148" x1="46.467" x2="46.467" y1="68.675" y2="58.794" gradientTransform="translate(.94796 973.49)" gradientUnits="userSpaceOnUse">
<stop stop-color="#f0f0f0" offset="0"/>
<stop stop-color="#787878" offset="1"/>
</linearGradient>
<clipPath id="clipPath4194-1">
<rect x="6" y="6" width="84" height="84" rx="6" ry="6" fill="#f0f"/>
</clipPath>
<linearGradient id="linearGradient4077-0" x1="48.234" x2="126.14" y1="48.047" y2="66.233" gradientUnits="userSpaceOnUse" xlink:href="#linearGradient4071-3"/>
<linearGradient id="linearGradient4071-3">
<stop offset="0"/>
<stop stop-opacity="0" offset="1"/>
</linearGradient>
<linearGradient id="linearGradient4069-9" x1="48.055" x2="126.67" y1="48.032" y2="62.839" gradientUnits="userSpaceOnUse" xlink:href="#linearGradient4071-3"/>
<linearGradient id="linearGradient4061-6" x1="47.997" x2="127.05" y1="48.029" y2="60.29" gradientUnits="userSpaceOnUse" xlink:href="#linearGradient4071-3"/>
<linearGradient id="linearGradient4053-2" x1="47.998" x2="127.42" y1="48.029" y2="57.665" gradientUnits="userSpaceOnUse" xlink:href="#linearGradient4071-3"/>
<linearGradient id="linearGradient4145-0" x1="48.234" x2="126.14" y1="48.047" y2="66.233" gradientUnits="userSpaceOnUse" xlink:href="#linearGradient4115-2"/>
<linearGradient id="linearGradient4115-2">
<stop stop-color="#fff" offset="0"/>
<stop stop-color="#fff" stop-opacity="0" offset="1"/>
</linearGradient>
<linearGradient id="linearGradient4139" x1="6" x2="90" y1="47" y2="47" gradientTransform="matrix(1.1393 0 0 1.1214 -6.6857 951.66)" gradientUnits="userSpaceOnUse" xlink:href="#linearGradient4093"/>
</defs>
<metadata>
<rdf:RDF>
<cc:Work rdf:about="">
<dc:format>image/svg+xml</dc:format>
<dc:type rdf:resource="http://purl.org/dc/dcmitype/StillImage"/>
<dc:title/>
</cc:Work>
</rdf:RDF>
</metadata>
<g transform="translate(0 -956.36)">
<path d="m89.143 956.36h-82.286c-3.7989 0-6.8571 3.0583-6.8571 6.8571v82.286c0 3.7989 3.0583 6.8572 6.8571 6.8572h82.286c3.7988 0 6.8571-3.0583 6.8571-6.8572v-82.286c0-3.7989-3.0583-6.8571-6.8571-6.8571z" fill="#070202" opacity=".15"/>
<text transform="translate(0 956.36)" x="33.660713" y="84.616074" fill="#000000" font-family="Droid Sans" font-size="9px" letter-spacing="0px" word-spacing="0px" style="line-height:125%" xml:space="preserve"><tspan/></text>
<g transform="matrix(.98746 0 0 .98746 .60188 12.594)">
<g transform="translate(-54.035 985.62)">
<g transform="translate(54.686 3.1429)">
<path d="m88.363-32.248h-82.029c-3.787 0-6.8357 3.0487-6.8357 6.8357v82.029c0 3.787 3.0487 6.8357 6.8357 6.8357h82.029c3.787 0 6.8357-3.0487 6.8357-6.8357v-82.029c0-3.787-3.0487-6.8357-6.8357-6.8357z" fill="url(#linearGradient4138)"/>
<g transform="matrix(1.1393 0 0 1.1393 -121.27 -37.374)">
<path d="m112 4.5c-3.324 0-6 2.676-6 6v15h1v-15c0-2.7873 2.2127-5 5-5h72c2.7873 0 5 2.2127 5 5v15h1v-15c0-3.324-2.676-6-6-6h-72z" fill="url(#radialGradient4140)" opacity=".51986"/>
<path d="m106 78.998v0.73089 0.73089 0.73089 1.4618 1.4618c0 2.4295 2.676 4.3853 6 4.3853h72c3.324 0 6-1.9559 6-4.3853v-1.4618-1.4618-0.73089-0.73089-0.73089c0 2.4295-2.676 4.3853-6 4.3853h-72c-3.324 0-6-1.9559-6-4.3853z" fill="url(#linearGradient4142)" opacity=".5"/>
</g>
<path d="m9.27-26.619h76.157c2.4818 0 4.4798 2.0247 4.4798 4.5396v70.364c0 2.5149-1.998 4.5396-4.4798 4.5396h-76.157c-2.4818 0-4.4798-2.0247-4.4798-4.5396v-70.364c0-2.5149 1.998-4.5396 4.4798-4.5396z" color="#000000" fill="none" stroke="#000" stroke-width=".93499"/>
<path d="m9.9863-25.819h74.725c2.4351 0 4.3956 1.9839 4.3956 4.4481v68.946c0 2.4643-1.9604 4.4481-4.3956 4.4481h-74.725c-2.4351 0-4.3956-1.9839-4.3956-4.4481v-68.946c0-2.4643 1.9604-4.4481 4.3956-4.4481z" color="#000000" fill="none" opacity=".41818" stroke="#646464" stroke-width="2.5362"/>
</g>
</g>
<g transform="matrix(1.0826 0 0 1.0156 -3.965 -18.79)">
<rect x="8.5" y="964.86" width="79" height="79" rx="3" ry="3" fill="url(#linearGradient4144)" stroke="#434343" stroke-linejoin="round" stroke-width=".76296"/>
<path d="m86.625 1043.3-7.5761-12.122" fill="none" stroke="#434343" stroke-linejoin="round" stroke-width=".76296"/>
<path transform="translate(0 956.36)" d="m9.849 87.414 7.5761-12.122" fill="#696969" stroke="#434343" stroke-linejoin="round" stroke-width=".76296"/>
<path d="m35 1031.4h26c2.77 0 5 2.23 5 5v8h-36v-8c0-2.77 2.23-5 5-5z" fill="#505050" stroke="#434343" stroke-linejoin="round" stroke-width=".76296"/>
<path d="m16.5 964.86h63l-1e-6 64c0 1.662-1.338 3-3 3h-57c-1.662 0-3-1.338-3-3z" fill="url(#linearGradient4146)" stroke="#434343" stroke-linejoin="round" stroke-width=".76296"/>
<path d="m17.5 965.86h61l-1e-6 62.5c0 1.662-0.838 2.5-2.5 2.5h-56c-1.662 0-2.5-0.838-2.5-2.5z" fill="none" opacity=".5" stroke="#333"/>
<rect x="9.5" y="965.86" width="77" height="77" rx="2" ry="2" fill="none" opacity=".5" stroke="#333"/>
<path d="m35 1032.4h26c2.216 0 4 1.784 4 4v6.9999h-34v-6.9999c0-2.216 1.784-4 4-4z" fill="url(#linearGradient4148)"/>
<rect x="31" y="1037.4" width="34" height="1" fill="#505050"/>
<rect x="41" y="1038.4" width="1" height="5" fill="#505050"/>
<rect x="54" y="1038.4" width="1" height="5" fill="#505050"/>
</g>
<g transform="matrix(1.0127 0 0 .96943 -.60952 954.01)">
<g clip-path="url(#clipPath4194-1)">
<g transform="matrix(.14137 .99272 -1.1652 .12045 96.937 -5.1947)" opacity=".9">
<path transform="matrix(.99411 -.10837 .10837 .99411 -5.1582 5.4919)" d="m108.9 48a60.896 60.896 0 0 1-6.5462 27.467l-54.35-27.467z" color="#000000" fill="url(#linearGradient4077-0)" opacity=".05"/>
<path transform="matrix(.99786 -.065374 .065374 .99786 -3.094 3.2416)" d="m108.9 48a60.896 60.896 0 0 1-4.4572 22.869l-56.439-22.869z" color="#000000" fill="url(#linearGradient4069-9)" opacity=".07"/>
<path transform="matrix(.99945 -.033121 .033121 .99945 -1.5635 1.6161)" d="m108.9 48a60.896 60.896 0 0 1-3.1299 19.272l-57.766-19.272z" color="#000000" fill="url(#linearGradient4061-6)" opacity=".1"/>
<path d="m108.9 48a60.896 60.896 0 0 1-2.075 15.761l-58.821-15.761z" color="#000000" fill="url(#linearGradient4053-2)" opacity=".1"/>
</g>
<g transform="matrix(1.0628 -.13088 -.7401 3.2275 32.525 -100.67)" fill="#fff" opacity=".9">
<path transform="matrix(.99411 -.10837 .10837 .99411 -5.1582 5.4919)" d="m108.9 48a60.896 60.896 0 0 1-6.5462 27.467l-54.35-27.467z" color="#000000" fill="url(#linearGradient4145-0)" opacity=".2"/>
</g>
<g transform="matrix(-.068172 -1.046 2.7107 .60163 -79.095 69.08)" opacity=".8">
<path transform="matrix(.99411 -.10837 .10837 .99411 -5.1582 5.4919)" d="m108.9 48a60.896 60.896 0 0 1-6.5462 27.467l-54.35-27.467z" color="#000000" fill="url(#linearGradient4077-0)" opacity=".05"/>
<path transform="matrix(.99945 -.033121 .033121 .99945 -1.5635 1.6161)" d="m108.9 48a60.896 60.896 0 0 1-3.1299 19.272l-57.766-19.272z" color="#000000" fill="url(#linearGradient4061-6)" opacity=".1"/>
</g>
<g transform="matrix(-1.0628 .13088 .7401 -3.2275 62.997 196.67)" fill="#fff" opacity=".9">
<path transform="matrix(.99411 -.10837 .10837 .99411 -5.1582 5.4919)" d="m108.9 48a60.896 60.896 0 0 1-6.5462 27.467l-54.35-27.467z" color="#000000" fill="url(#linearGradient4145-0)" opacity=".2"/>
</g>
</g>
</g>
<path d="m89.014 957.26h-82.029c-3.787 0-6.8357 3.0009-6.8357 6.7286v80.743c0 3.7276 3.0487 6.7286 6.8357 6.7286h82.029c3.787 0 6.8357-3.001 6.8357-6.7286v-80.743c0-3.7276-3.0487-6.7286-6.8357-6.7286z" fill="url(#linearGradient4139)" opacity=".83394"/>
</g>
</g>
</svg>
