<?xml version="1.0" encoding="UTF-8"?>
<!-- Created with Inkscape (http://www.inkscape.org/) -->
<svg version="1.1" viewBox="0 0 96 96" xmlns="http://www.w3.org/2000/svg" xmlns:cc="http://creativecommons.org/ns#" xmlns:dc="http://purl.org/dc/elements/1.1/" xmlns:rdf="http://www.w3.org/1999/02/22-rdf-syntax-ns#" xmlns:xlink="http://www.w3.org/1999/xlink">
<defs>
<linearGradient id="linearGradient4071" x1="6" x2="90" y1="47" y2="47" gradientTransform="matrix(1.1014 0 0 1.1014 -4.9671 -3.0997)" gradientUnits="userSpaceOnUse">
<stop stop-color="#adbac1" stop-opacity=".966" offset="0"/>
<stop stop-color="#fff" offset=".25"/>
<stop stop-color="#90a0aa" offset=".5"/>
<stop stop-color="#fbf9f9" offset=".75"/>
<stop stop-color="#adbac1" offset="1"/>
</linearGradient>
<linearGradient id="linearGradient4129" x1="1.5" x2="94.5" y1="88.172" y2="88.172" gradientTransform="matrix(.99479 0 0 .99479 .14895 .91503)" gradientUnits="userSpaceOnUse">
<stop offset="0"/>
<stop stop-opacity=".58824" offset=".1"/>
<stop stop-opacity=".58824" offset=".9"/>
<stop offset="1"/>
</linearGradient>
<radialGradient id="radialGradient7462" cx="13.948" cy="44.893" r="43.199" gradientTransform="matrix(.97005 0 0 .048935 33.871 80.664)" gradientUnits="userSpaceOnUse" xlink:href="#linearGradient3737"/>
<linearGradient id="linearGradient3737">
<stop stop-color="#fff" offset="0"/>
<stop stop-color="#fff" stop-opacity="0" offset="1"/>
</linearGradient>
<radialGradient id="radialGradient7464" cx="13.948" cy="44.893" r="43.199" gradientTransform="matrix(.8837 0 0 .048935 32.295 -89.848)" gradientUnits="userSpaceOnUse" xlink:href="#linearGradient3737"/>
<linearGradient id="linearGradient4767" x1="2.7714" x2="50.528" y1="-28.642" y2="14.514" gradientUnits="userSpaceOnUse" xlink:href="#linearGradient3737"/>
<clipPath id="clipPath4156-4-1">
<path d="m27.046-55.695-14.214 13.321h0.06127l15.653 21.771 10.231-10.546c-0.2169-1.1522-11.311-23.67-11.732-24.546zm-17.399 16.313-14.888 14.062 21.229 17.515 10.385-10.577zm31.491 12.951-9.7413 9.7136 8.9448 12.458 7.7808-7.555zm-49.84 4.3788-13.754 12.982 26.283 13.846 0.06127-0.0617-0.12253-0.0617 9.8332-10.053-22.301-16.652zm38.015 7.4008-9.8025 9.7753 11.579 9.5594 7.6276-7.4008-8.6691-11.009zm20.187 5.674-7.3825 7.2158 6.1878 8.5418 5.8202-6.1365zm-32.195 6.3215-9.5575 9.4977 13.662 7.185 7.9339-7.6784zm23.312 2.3744-7.1068 6.9383 8.3628 6.9074 5.3608-5.674-0.06127-0.0925-0.0919 0.12335-6.4635-8.2026zm-8.7304 8.5418-7.5051 7.3392 10.354 5.4581c1.3975-1.321 5.6751-6.1229 5.8509-6.3215z" fill="#fff" opacity=".6"/>
</clipPath>
</defs>
<metadata>
<rdf:RDF>
<cc:Work rdf:about="">
<dc:format>image/svg+xml</dc:format>
<dc:type rdf:resource="http://purl.org/dc/dcmitype/StillImage"/>
<dc:title/>
<dc:date>2017</dc:date>
<dc:creator>
<cc:Agent>
<dc:title>Cristian Pozzessere "ilnanny"</dc:title>
</cc:Agent>
</dc:creator>
<dc:subject>
<rdf:Bag>
<rdf:li>Global language</rdf:li>
</rdf:Bag>
</dc:subject>
<dc:description>Playing with Inkscape on Gnu/Linux O. S.</dc:description>
<dc:contributor>
<cc:Agent>
<dc:title>In the night, alone like a dog.</dc:title>
</cc:Agent>
</dc:contributor>
<cc:license rdf:resource="http://creativecommons.org/licenses/by-sa/4.0/"/>
</cc:Work>
<cc:License rdf:about="http://creativecommons.org/licenses/by-sa/4.0/">
<cc:permits rdf:resource="http://creativecommons.org/ns#Reproduction"/>
<cc:permits rdf:resource="http://creativecommons.org/ns#Distribution"/>
<cc:requires rdf:resource="http://creativecommons.org/ns#Notice"/>
<cc:requires rdf:resource="http://creativecommons.org/ns#Attribution"/>
<cc:permits rdf:resource="http://creativecommons.org/ns#DerivativeWorks"/>
<cc:requires rdf:resource="http://creativecommons.org/ns#ShareAlike"/>
</cc:License>
</rdf:RDF>
</metadata>
<g transform="translate(0 -1026.5)">
<g transform="translate(-.14896 1026.1)">
<g transform="matrix(1.01 0 0 .96705 17.956 96.222)">
<g transform="translate(-20.962 13.14)"></g>
</g>
<g transform="matrix(1.01 0 0 .96705 -.33799 -1.4869)"></g>
<g transform="translate(.25 -.25003)">
<path d="m88.828 0.91503h-81.857c-3.7791 0-6.8214 3.0424-6.8214 6.8214v81.857c0 3.7791 3.0424 6.8214 6.8214 6.8214h81.857c3.7791 0 6.8214-3.0424 6.8214-6.8214v-81.857c0-3.7791-3.0424-6.8214-6.8214-6.8214z" opacity=".15"/>
<path d="m88.188 1.6611h-80.578c-3.72 0-6.7148 2.9948-6.7148 6.7148v80.578c0 3.72 2.9948 6.7148 6.7148 6.7148h80.578c3.72 0 6.7148-2.9948 6.7148-6.7148v-80.578c0-3.72-2.9948-6.7148-6.7148-6.7148z" opacity=".15"/>
<path d="m87.549 2.4072h-79.299c-3.661 0-6.6083 2.9473-6.6083 6.6083v79.299c0 3.661 2.9473 6.6083 6.6083 6.6083h79.299c3.661 0 6.6083-2.9473 6.6083-6.6083v-79.299c0-3.661-2.9473-6.6083-6.6083-6.6083z" fill="url(#linearGradient4071)" opacity=".965"/>
<path d="m11.332 7.766c-2.8416 0-5.0974 2.2765-5.0974 5.1441v68.223c1.0915 1.6757 2.9534 2.7971 5.0974 2.7971h73.403c2.1441 0 4.0059-1.1214 5.0974-2.7971v-68.223c0-2.8676-2.2558-5.1441-5.0974-5.1441z" fill="#eee6d9"/>
<path d="m15.597 10.039c-0.23872 0.07031-0.41417 0.30534-0.40809 0.54669v69.976c5e-3 0.28475 0.27075 0.54134 0.56505 0.54669h64.291c0.2943-0.0054 0.55951-0.26194 0.56505-0.54669v-69.976c-0.0061-0.28475-0.27074-0.54134-0.56505-0.54669h-64.291c-0.05208-0.0069-0.10496-0.0069-0.15696 0z" fill="none" opacity=".207" stroke="#000" stroke-linecap="round" stroke-linejoin="bevel" stroke-width="2.9993" style="paint-order:stroke fill markers"/>
<path d="m9.9229 5.6199c-3.1004 0-5.6384 2.5263-5.6384 5.6166v68.917c0 3.0903 2.5381 5.6166 5.6384 5.6166h76.392c3.1004 0 5.6384-2.5263 5.6384-5.6166v-68.917c0-3.0903-2.5381-5.6166-5.6384-5.6166zm0 2.3074h76.392c1.8783 0 3.3346 1.4724 3.3346 3.3092v68.917c0 1.8369-1.4563 3.3092-3.3346 3.3092h-76.392c-1.8783 0-3.3346-1.4724-3.3346-3.3092v-68.917c0-1.8369 1.4563-3.3092 3.3346-3.3092z" color="#000000" fill="#1f2124" fill-opacity=".98491" style="text-decoration-line:none;text-indent:0;text-transform:none"/>
<path d="m1.6411 82.333v5.9688c0 3.661 2.9606 6.6216 6.6216 6.6216h79.272c3.661 0 6.6216-2.9606 6.6216-6.6216v-5.9688c0 3.661-2.9606 6.6216-6.6216 6.6216h-79.272c-3.661 0-6.6216-2.9606-6.6216-6.6216z" fill="url(#linearGradient4129)" opacity=".65818"/>
<rect x="5.496" y="80.747" width="83.811" height="4.2279" rx="0" ry="4.2279" fill="url(#radialGradient7462)" opacity=".55"/>
<rect transform="rotate(90)" x="6.4461" y="-89.765" width="76.35" height="4.2279" rx="0" ry="4.2279" fill="url(#radialGradient7464)" opacity=".669"/>
<path transform="matrix(1.01 0 0 .96705 -.33799 -1.4869)" d="m15.764 11.874c-1.3973 0.29279-0.78203 2.0942-0.90153 3.1352 0.02081 20.641-0.04157 49.26 0.0311 69.889 0.52184 1.3313 2.342 0.53155 3.4452 0.74609 20.517-0.02081 41.054 0.04157 61.558-0.0311 1.3313-0.52184 0.53156-2.342 0.7461-3.4452-0.02081-20.517 0.04156-49.012-0.0311-69.517-0.52184-1.3313-2.342-0.53155-3.4452-0.74609-20.465-0.02073-40.95 0.04145-61.403-0.03109z" opacity=".1"/>
<path transform="matrix(1.01 0 0 .96705 -.33799 -1.4869)" d="m15.764 12.403c-0.2364 0.07196-0.41015 0.31253-0.40414 0.55957v71.625c0.0055 0.29146 0.26812 0.55409 0.55957 0.55957h63.667c0.29146-0.0055 0.55409-0.26811 0.55957-0.55957v-71.625c-0.0055-0.29146-0.26811-0.55409-0.55957-0.55957h-63.667c-0.05151-0.0071-0.10395-0.0071-0.15544 0z" fill="#f5f7f8"/>
<path transform="matrix(1.01 0 0 .96705 -.33799 -1.4869)" d="m21.167 68.153v8.975h7.6008v-8.975zm1.0858 1.2821h5.4291v6.4107h-5.4291z" fill="#4d4d4d" opacity=".8"/>
<g transform="matrix(1.0048 0 0 .96201 -.33545 -.97699)">
<path d="m21.276 44.78v9.022h7.6405v-9.022zm1.0915 1.2889h5.4575v6.4443h-5.4575z" fill="#4d4d4d" opacity=".6"/>
<path d="m20.184 44.78 5.4575 5.1555 4.366-10.311 2.183 3.8666-6.549 9.022-5.4575-3.8666z" fill="#d40000"/>
</g>
<g transform="matrix(1.0048 0 0 .96201 -.33545 -22.862)">
<path d="m21.276 44.78v9.022h7.6405v-9.022zm1.0915 1.2889h5.4575v6.4443h-5.4575z" fill="#4d4d4d" opacity=".6"/>
<path d="m20.184 44.78 5.4575 5.1555 4.366-10.311 2.183 3.8666-6.549 9.022-5.4575-3.8666z" fill="#d40000"/>
</g>
<path transform="matrix(1.01 0 0 .96705 -.33799 -1.4869)" d="m35.92 28.435c0.34881-0.15314 0.46992-0.59638 0.77319-0.80754 0.15983-0.1113 0.35914-0.15257 0.51546-0.26919 0.1483-0.11064 0.24822-0.2799 0.38659-0.40377 0.54845-0.49099 0.4593-0.26806 0.90205-0.80755 0.14547-0.17727 0.50834-0.70543 0.64432-0.94215 0.04942-0.086 0.07124-0.18893 0.12886-0.26919 0.07288-0.10153 0.19034-0.1636 0.25773-0.26918 0.02383-0.03734 0-0.08972 0-0.13459 0-0.08972-0.02085-0.18214 0-0.26919 0.0233-0.09732 0.09851-0.17401 0.12886-0.26918 0.0136-0.04261-0.01358-0.09205 0-0.13459 0.03038-0.09515 0.09851-0.17401 0.12886-0.26919 0.02695-0.08445 0-0.43001 0-0.53837 0-0.16429 0.05002-0.31037-0.12886-0.40377-0.03842-0.02006-0.08591 0-0.12886 0h-0.25773-0.51546-0.64432c-0.08467 0-0.31389-0.02529-0.3866 0-0.40738 0.14183-0.19261 0.06366-0.25773 0.40377-0.02663 0.13912-0.10653 0.26383-0.12886 0.40377-0.0212 0.13276 0.02525 0.2718 0 0.40378-0.01884 0.09836-0.11307 0.17023-0.12886 0.26918-0.02825 0.17702 0.0243 0.36072 0 0.53837-0.01921 0.14045-0.10653 0.26383-0.12886 0.40377-0.04239 0.26552 0.05056 0.5436 0 0.80755-0.01884 0.09836-0.11003 0.17081-0.12886 0.26919-0.0337 0.17597 0 0.35891 0 0.53836v1.0767c0 0.0936-0.02333 0.62429 0 0.67296 0.02716 0.05678 0.08591 0.08972 0.12886 0.13459 0.18708 0.1954 0.1395 0.13459 0.38659 0.13459h0.12886c0.04295 0 0.09046-0.02007 0.12886 0 0.05432 0.02839 0.07452 0.10622 0.12886 0.13459 0.03333 0.01738 0.68185 0 0.77319 0 0.08965 0 0.59772 0.02437 0.64432 0 0.05432-0.02839 0.07452-0.10622 0.12886-0.13459 0.03842-0.02007 0.09047 0.02006 0.12886 0 0.10867-0.05678 0.15664-0.1988 0.25773-0.26919 0.15984-0.11128 0.35562-0.15788 0.51546-0.26918 0.12059-0.08393 0.43292-0.45217 0.51546-0.53836 0.04295-0.04484 0.07833-0.09939 0.12886-0.13459 0.07993-0.05564 0.17781-0.07902 0.25773-0.1346 0.1112-0.07747 0.28594-0.29865 0.38659-0.40377 0.08591-0.08972 0.19034-0.1636 0.25773-0.26919 0.05327-0.08341 0.07558-0.18571 0.12886-0.26919 0.03527-0.05523 0.33365-0.36691 0.3866-0.40377 0.22211-0.15465 0.19479-0.13459 0.38659-0.13459 0.04295 0 0.08812 0.01421 0.12886 0 0.0911-0.0317 0.16661-0.10287 0.25773-0.13459 0.07269-0.02529 0.30191 0 0.38659 0h0.12886c0.04293 0 0.09311-0.02487 0.12886 0 0.15405 0.10726 0.33906 0.33977 0.3866 0.53836 0.04169 0.17411-0.04169 0.36428 0 0.53837 0.14807 0.61862 0.12887 0.03056 0.12887 0.40377v0.40378c0 0.08972-0.03842 0.34944 0 0.26918 0.06077-0.12689 0.09592-0.26614 0.12886-0.40377 0.01042-0.0435-0.01921-0.09443 0-0.1346 0.02716-0.05678 0.1017-0.07788 0.12886-0.13459 0.20956-0.43774 0.03255-0.32014 0.25773-0.67296 0.07821-0.12252 0.32948-0.28448 0.38659-0.40377 0.01921-0.04013-0.01921-0.09443 0-0.13459 0.07964-0.16632 0.12442-0.13459 0.25773-0.13459 0.06739 0 0.48158-0.01769 0.51546 0 0.05432 0.02839 0.1017 0.07788 0.12886 0.13459 0.01443 0.03015 0 0.50638 0 0.53836v0.94215c0 0.03261-0.0042 0.39944 0 0.40377 0.06792 0.07099 0.18981 0.06366 0.25773 0.13459 0.03038 0.0317-0.03038 0.10287 0 0.13459 0.03038 0.0317 0.09851-0.0317 0.12886 0 0.03038 0.0317-0.03842 0.11452 0 0.13459 0.07685 0.04013 0.17623-0.02839 0.25773 0 0.05763 0.02006 0.07452 0.10621 0.12886 0.13458 0.10309 0.05378 0.2835-0.05378 0.38659 0 0.05432 0.02839 0.07452 0.10622 0.12886 0.13459 0.07684 0.04013 0.17623-0.02839 0.25773 0 0.18224 0.06345 0.3291 0.22052 0.51546 0.26919 0.08333 0.02172 0.17438-0.02182 0.25773 0 0.09317 0.02437 0.16661 0.10287 0.25773 0.13459 0.08109 0.02829 0.52817 0 0.64432 0 0.05803 0 0.34737 0.02048 0.38659 0 0.05432-0.02839 0.08591-0.08972 0.12886-0.13459 0.04295-0.04484 0.1017-0.07788 0.12886-0.13459 0.01921-0.04013-0.01921-0.09443 0-0.13459 0.02716-0.05678 0.1017-0.07788 0.12886-0.13459 0.01921-0.04013 0-0.08972 0-0.13458 0.04295-0.04484 0.09517-0.08176 0.12887-0.13459 0.2564-0.40169 0.04916-0.12214 0.12887-0.53836 0.02663-0.13912 0.09592-0.26614 0.12886-0.40378 0.01042-0.04349 0-0.08972 0-0.13459v-0.40377-0.67296c0-0.08972-0.02085-0.18214 0-0.26919 0.02329-0.09732 0.09851-0.17401 0.12886-0.26918 0.01358-0.04261-0.01921-0.09443 0-0.1346 0.02716-0.05678 0.10965-0.07436 0.12886-0.13459 0-0.61269-0.06077-0.0072 0.12886-0.40377 0.01921-0.04013-0.0136-0.09205 0-0.13459 0.31114-0.97491-0.03715 0.2122 0.25773-0.40378 0.03842-0.08026-0.03842-0.18893 0-0.26918 0.15924-0.33264 0.12886 0.04649 0.12886-0.26919 0-0.04484 0.01921-0.09443 0-0.13459-0.05269-0.11005-0.14346-0.17438-0.25773-0.13459-0.53914-0.24372-0.14906 0.21243-0.25773 0.26919-0.07685 0.04013-0.18625-0.0498-0.25773 0-0.07993 0.05564-0.06097 0.19825-0.12886 0.26919-0.03038 0.0317-0.09047-0.02006-0.12887 0-0.05969 0.03118-0.43967 0.45921-0.51546 0.53836-0.07579 0.07922-0.48562 0.47604-0.51546 0.53836-0.01921 0.04013 0.0136 0.09205 0 0.13459-0.03038 0.09515-0.09851 0.17401-0.12886 0.26919-0.02716 0.08517 0.03842 0.18893 0 0.26918-0.02716 0.05678-0.1017 0.07788-0.12886 0.13459-0.01917 0.04003 0 0.75093 0 0.80755 0 0.07038-0.01693 0.50298 0 0.53836 0.0171 0.03568 0.35238 0.38591 0.38659 0.40378 0.03842 0.02007 0.09045-0.02006 0.12886 0 0.31848 0.1663-0.04446 0.13458 0.25773 0.13458 0.30221 0-0.06077-0.0317 0.25773 0.13459 0.03842 0.02006 0.0859 0 0.12886 0h0.12887c0.1497 0 0.5275-0.03056 0.64432 0 0.23324-0.08113 0.23966 0.21803 0.38659 0.26919 0.163 0.05678 0.35246-0.05678 0.51546 0 0.05763 0.02006 0.07452 0.10621 0.12886 0.13459 0.05503 0.0287 0.59338 0 0.64432 0h0.77318 0.12886c0.04297 0 0.09045 0.02006 0.12887 0 0.05432-0.02839 0.07452-0.10622 0.12886-0.13459 0.03842-0.02006 0.09047 0.02006 0.12886 0 0.05432-0.02839 0.0859-0.08972 0.12886-0.13459 0.04293-0.04484 0.1017-0.07788 0.12886-0.13459 0.02553-0.05337-0.02633-0.37625 0-0.40377 0.03038-0.0317 0.09851 0.0317 0.12886 0 0.03038-0.0317 0-0.08972 0-0.1346 0-0.07519-0.02533-0.59353 0-0.67296 0.31114-0.97491-0.03714 0.2122 0.25773-0.40378 0.18961-0.39607-0.29853 0.1772 0.12886-0.26918 0.12886-0.13459 0.25773-0.26919 0.38659-0.40378 0.04295-0.04484 0.07452-0.16297 0.12886-0.13458 0.16729 0.08734 0.12886 0.40326 0.12886 0.53836v0.40377c0 0.13459 0.01822 0.27054 0 0.40378-0.05755 0.42076-0.15282 0.55864-0.25773 0.94214-0.04866 0.17787-0.07284 0.36288-0.12886 0.53837-0.03038 0.09515-0.10557 0.17185-0.12886 0.26918-0.0076 0.0317-0.05661 0.73754 0.12886 0.67296 0.14004-0.04877 0.35013-0.38602 0.38659-0.53836 0.02085-0.08703-0.02085-0.18213 0-0.26919 0.15557-0.64993 0.06126 0.0062 0.25773-0.40377 0.01921-0.04013-0.0136-0.09205 0-0.13459 0.03038-0.09515 0.09851-0.17401 0.12886-0.26918 0.01359-0.04261 0-0.08972 0-0.13459 0.04294-0.08972 0.09851-0.17401 0.12886-0.26919 0.0136-0.04257-0.0136-0.09205 0-0.13459 0.09158-0.287 0.17681-0.31925 0.38659-0.53836 0.04295-0.04484 0.09517-0.08176 0.12887-0.13459 0.05326-0.08341 0.07558-0.18571 0.12887-0.26918 0.06739-0.10559 0.17182-0.17945 0.25773-0.26919 0.04297-0.04484 0.06812-0.13459 0.12886-0.13459 0.06077 0 0.09516 0.08176 0.12886 0.13459 0.05326 0.08341 0.08591 0.17945 0.12886 0.26919 0.04294 0.08972 0.11003 0.17081 0.12886 0.26918 0.02526 0.13198-0.02525 0.2718 0 0.40378 0.14808 0.77328 0.12886-0.03868 0.12886 0.40377 0 0.05187-0.04281 0.46355 0.12886 0.40378 0.12886-0.04484 0.25773-0.31405 0.38659-0.40378 0.07993-0.05564 0.18089-0.07436 0.25773-0.13459 0.09721-0.07612 0.15664-0.19879 0.25773-0.26918 0.03573-0.02487 0.09047 0.02006 0.12887 0 0.05432-0.02839 0.07452-0.10622 0.12886-0.13459 0.03842-0.02006 0.09045 0.02006 0.12886 0 0.05432-0.02839 0.07452-0.10622 0.12886-0.13459 0.03842-0.02007 0.08591 0 0.12886 0h0.12886c0.04234 0 0.36739-0.01339 0.38659 0 0.03806 0.02653 0.62189 0.63391 0.64432 0.67296 0.06991 0.12165 0.06812 0.27688 0.12886 0.40378 0.02716 0.05678 0.1017 0.07788 0.12886 0.13458 0.01921 0.04013-0.01921 0.09443 0 0.13459 0.02716 0.05678 0.0859 0.08972 0.12887 0.13459 0.04295 0.04484 0.07452 0.10622 0.12886 0.13459 0.03919 0.02048 0.42647 0 0.51546 0h0.12886c0.04295 0 0.09047 0.02006 0.12886 0 0.05432-0.02839 0.07833-0.09939 0.12886-0.13459 0.07993-0.05564 0.17781-0.07891 0.25773-0.13459 0.10109-0.07038 0.14906-0.21244 0.25773-0.26918 0.02642-0.01381 0.36842-0.01903 0.3866 0 0.03038 0.0317-0.03038 0.10287 0 0.13458 0.01817 0.01903 0.36016 0.01378 0.38659 0 0.05432-0.02839 0.07452-0.10621 0.12886-0.13458 0.0333-0.01738 0.68185 0 0.77318 0h1.5464c0.17182 0 0.34773-0.03889 0.51546 0 0.81114 0.18826 0.44701 0.29021 1.1598 0.53836 0.20779 0.07229 0.43372 0.07169 0.64432 0.13459 0.09234 0.02756 0.16661 0.10287 0.25773 0.13458 0.05015 0.01748 0.3666-0.02089 0.38659 0 0.07701 0.08046-0.07855 0.26919-0.12886 0.26919-0.09835 0-0.25736-0.40281-0.25773-0.40377-0.05046-0.13172-0.07843-0.27206-0.12886-0.40378-0.13746-0.35891-0.17225-0.22657-0.25773-0.67296-0.19678-1.0276 0.33831 0.79084-0.12886-0.67296-0.06987-0.21888-0.13132-0.47492-0.25773-0.67296-0.15924-0.24948-0.12886-0.01236-0.12886-0.26919 0-0.08972 0.02716-0.18406 0-0.26918-0.01921-0.06019-0.1017-0.07788-0.12886-0.13459-0.0072-0.015-0.0072-0.65794 0-0.67296 0.06927-0.14468 0.14822-0.28939 0.25773-0.40378 0.06792-0.071 0.17536-0.083 0.25773-0.13458 0.26561-0.16645 0.51546-0.35892 0.77318-0.53837 0.12886-0.08972 0.25773-0.17946 0.38659-0.26918 0.08591-0.08972 0.16053-0.19305 0.25773-0.26919 0.15368-0.12038 0.35562-0.15789 0.51546-0.26918 0.05056-0.03517 0.07452-0.10622 0.12886-0.13459 0.03842-0.02006 0.09045 0.02007 0.12886 0 0.10867-0.05678 0.15664-0.19879 0.25773-0.26919 0.07993-0.05564 0.18089-0.07436 0.25773-0.13459 0.0972-0.07612 0.17182-0.17945 0.25773-0.26918 0.2822-0.29474 0.59069-0.56092 0.77319-0.94215 0.09242-0.19308 0.21644-0.76964 0.25773-0.94214 0.04296-0.17945 0.1069-0.35482 0.12886-0.53836 0.03729-0.31162 0-0.6281 0-0.94215 0-0.13774 0.02534-0.97079 0-1.0767-0.0039-0.01593-0.48438-0.52214-0.51546-0.53837-0.04491-0.02343-0.67859 0-0.77319 0h-0.64432c-0.0859 0-0.17796-0.03333-0.25773 0-0.1438 0.06009-0.26269 0.17212-0.38659 0.26918-0.0486 0.03806-0.1063 0.07571-0.12886 0.13459-0.06577 0.17175-0.07284 0.36288-0.12886 0.53837-0.03038 0.09515-0.11003 0.17081-0.12887 0.26919-0.02526 0.13198 0 0.26918 0 0.40377v0.40378 1.4805 0.40377c0 0.13459-0.02526 0.2718 0 0.40378 0.01884 0.09836 0.09318 0.17604 0.12887 0.26918 0.34297 0.89553-0.13476-0.09999 0.38659 0.80755 0.04942 0.086 0.09851 0.17401 0.12886 0.26919 0.0136 0.04259-0.02383 0.09722 0 0.13459 0.06739 0.10558 0.18483 0.16767 0.25773 0.26918 0.1689 0.23521 0.12778 0.40152 0.25773 0.67296 0.02716 0.05678 0.1017 0.07788 0.12886 0.13459 0.06077 0.1269 0.08591 0.26919 0.12886 0.40377 0.04296 0.13459 0.08591 0.26919 0.12886 0.40378 0.04297 0.13459 0.08591 0.26919 0.12886 0.40377 0.04296 0.13459 0.10223 0.26466 0.12886 0.40378 0.01684 0.08796 0 0.17946 0 0.26918v0.40378 0.13459c0 0.04484 0.03038 0.10287 0 0.13458-0.06792 0.071-0.18981 0.06366-0.25773 0.13459-0.03038 0.0317 0.03038 0.10287 0 0.13459-0.03038 0.0317-0.09044-0.02007-0.12886 0-0.05432 0.02839-0.07452 0.10622-0.12886 0.13459-0.07685 0.04013-0.18089-0.04013-0.25773 0-0.13745 0.07181-0.12027 0.28712-0.25773 0-0.09855-0.20584 0.24538-0.52546 0.38659-0.67296 0.04295-0.04484 0.07452-0.10622 0.12886-0.13459 0.03842-0.02006 0.09045 0.02006 0.12886 0 0.05432-0.02839 0.07452-0.10621 0.12886-0.13459 0.03922-0.02048 0.32856 0 0.38659 0 0.60688 0 0.29567 0.38807 0.3866 0.67296 0.01921 0.06019 0.10169 0.07788 0.12886 0.13459 0.31955 0.12702 0.07283 0.36288 0.12886 0.53836 0.03038 0.09515 0.09851 0.17401 0.12886 0.26919 0.0136 0.04261-0.01921 0.09443 0 0.1346 0.02716 0.05678 0.08591 0.08972 0.12886 0.13459 0.04296 0.04484 0.07452 0.10621 0.12886 0.13458 0.03842 0.02006 0.08591 0 0.12886 0 0.04296 0 0.09045 0.02006 0.12886 0 0.21196-0.11069 0.17463-0.42768 0.38659-0.53837 0.03842-0.02006 0.08591 0 0.12886 0h0.12886 0.12887c0.04296 0 0.09046-0.02006 0.12886 0 0.41109 0.21469-0.15337 0.05451 0.25773 0.26919 0.03842 0.02006 0.09311-0.02487 0.12886 0 0.10109 0.07038 0.16286 0.1899 0.25773 0.26918 0.72856 0.60875 0.16277 0.03537 0.51546 0.40378 0.08591 0.08972 0.17182 0.17945 0.25773 0.26918 0.04296 0.04484 0.06812 0.13459 0.12886 0.13459 0.04296 0-0.01921-0.09443 0-0.13459 0.02716-0.05678 0.08591-0.08972 0.12886-0.13458 0.04296-0.04484 0.08591-0.08972 0.12886-0.13459 0.04296-0.04484 0.07452-0.10622 0.12887-0.13459 0.37922-0.19804-0.16966 0.31179 0.25773-0.13459" fill="none" opacity=".918" stroke="#1a3c61" stroke-width="1.0066px"/>
<path transform="matrix(1.01 0 0 .96705 -.33799 -1.4869)" d="m74.837 52.095c-0.34881-0.15314-0.46992-0.59638-0.77319-0.80754-0.15983-0.1113-0.35914-0.15256-0.51546-0.26919-0.1483-0.11064-0.24822-0.27991-0.38659-0.40377-0.54845-0.49099-0.4593-0.26807-0.90205-0.80755-0.14547-0.17726-0.50834-0.70543-0.64432-0.94214-0.04942-0.086-0.07124-0.18893-0.12886-0.26919-0.07288-0.10153-0.19034-0.1636-0.25773-0.26918-0.02381-0.03734 0-0.08972 0-0.13459 0-0.08972 0.02085-0.18214 0-0.26919-0.02331-0.09732-0.09851-0.17401-0.12886-0.26918-0.0136-0.04257 0.0136-0.09205 0-0.13459-0.03038-0.09515-0.09851-0.17401-0.12886-0.26919-0.02695-0.08445 0-0.43001 0-0.53836 0-0.16429-0.05002-0.31037 0.12886-0.40377 0.03842-0.02006 0.08591 0 0.12886 0h0.25773 0.51546 0.64432c0.08467 0 0.31389-0.02529 0.38659 0 0.40738 0.14183 0.19261 0.06366 0.25773 0.40377 0.02663 0.13912 0.10653 0.26382 0.12886 0.40377 0.0212 0.13276-0.02525 0.2718 0 0.40378 0.01884 0.09836 0.11307 0.17023 0.12886 0.26918 0.02825 0.17702-0.02429 0.36072 0 0.53837 0.01921 0.14045 0.10653 0.26383 0.12886 0.40377 0.04239 0.26552-0.05056 0.5436 0 0.80755 0.01884 0.09836 0.11003 0.17081 0.12886 0.26919 0.03368 0.17597 0 0.35891 0 0.53836v1.0767c0 0.0936 0.02333 0.62429 0 0.67296-0.02716 0.05678-0.08591 0.08972-0.12886 0.13459-0.18708 0.1954-0.1395 0.13459-0.38659 0.13459h-0.12886c-0.04296 0-0.09047-0.02007-0.12886 0-0.05432 0.02839-0.07452 0.10622-0.12886 0.1346-0.03333 0.01738-0.68185 0-0.77319 0-0.08965 0-0.59772 0.02436-0.64432 0-0.05432-0.02839-0.07452-0.10622-0.12886-0.1346-0.03842-0.02007-0.09043 0.02006-0.12886 0-0.10867-0.05678-0.15664-0.19879-0.25773-0.26919-0.15984-0.11128-0.35562-0.15788-0.51546-0.26918-0.12059-0.08393-0.43292-0.45217-0.51546-0.53836-0.04296-0.04484-0.07833-0.09939-0.12886-0.13459-0.07993-0.05564-0.17781-0.07902-0.25773-0.13459-0.1112-0.07747-0.28594-0.29865-0.38659-0.40377-0.08591-0.08972-0.19034-0.1636-0.25773-0.26919-0.05327-0.08341-0.07558-0.18571-0.12886-0.26919-0.03527-0.05523-0.33365-0.36691-0.3866-0.40377-0.22211-0.15465-0.19479-0.13459-0.38659-0.13459-0.04297 0-0.08812 0.01418-0.12886 0-0.0911-0.0317-0.1666-0.10287-0.25773-0.13459-0.07269-0.02529-0.30192 0-0.38659 0h-0.12886c-0.04296 0-0.09311-0.02487-0.12886 0-0.15405 0.10726-0.33906 0.33977-0.38659 0.53836-0.04169 0.17411 0.04169 0.36428 0 0.53838-0.14807 0.61862-0.12887 0.03056-0.12887 0.40377v0.40378c0 0.08972 0.03842 0.34944 0 0.26918-0.06077-0.12689-0.09592-0.26613-0.12886-0.40377-0.01042-0.04351 0.01921-0.09443 0-0.13459-0.02716-0.05678-0.1017-0.07788-0.12886-0.13459-0.20956-0.43775-0.03255-0.32015-0.25773-0.67296-0.07821-0.12251-0.32948-0.28448-0.38659-0.40377-0.01921-0.04013 0.01921-0.09443 0-0.13459-0.07964-0.16632-0.12442-0.13459-0.25773-0.13459-0.06739 0-0.48158-0.01769-0.51546 0-0.05432 0.02839-0.1017 0.07788-0.12886 0.13459-0.01444 0.03015 0 0.50638 0 0.53836v0.94215c0 0.03263 0.0042 0.39944 0 0.40377-0.06792 0.071-0.18981 0.06366-0.25773 0.13459-0.03038 0.0317 0.03038 0.10287 0 0.13459-0.03038 0.0317-0.09851-0.0317-0.12886 0-0.03038 0.0317 0.03842 0.11452 0 0.13459-0.07685 0.04013-0.17623-0.02839-0.25773 0-0.05763 0.02006-0.07452 0.10621-0.12886 0.13458-0.10309 0.05378-0.2835-0.05378-0.38659 0-0.05432 0.02839-0.07452 0.10622-0.12886 0.13459-0.07684 0.04013-0.17623-0.02839-0.25773 0-0.18224 0.06345-0.3291 0.22052-0.51546 0.26919-0.08333 0.02172-0.17439-0.02182-0.25773 0-0.09317 0.02436-0.16661 0.10287-0.25773 0.13459-0.0811 0.02829-0.52817 0-0.64432 0-0.05803 0-0.34737 0.02048-0.38659 0-0.05432-0.02839-0.08591-0.08972-0.12886-0.13459-0.04295-0.04484-0.1017-0.07788-0.12886-0.1346-0.01921-0.04013 0.01921-0.09443 0-0.13459-0.02716-0.05678-0.1017-0.07788-0.12886-0.13459-0.01921-0.04013 0-0.08972 0-0.13458-0.04295-0.04484-0.09517-0.08176-0.12886-0.13459-0.2564-0.40169-0.04916-0.12214-0.12887-0.53836-0.02663-0.13912-0.09592-0.26614-0.12887-0.40378-0.01042-0.04351 0-0.08972 0-0.13459v-0.40377-0.67296c0-0.08972 0.02085-0.18214 0-0.26919-0.02329-0.09732-0.09851-0.17401-0.12886-0.26918-0.01358-0.04262 0.01921-0.09443 0-0.13459-0.02716-0.05678-0.10965-0.07436-0.12886-0.13459 0-0.6127 0.06077-0.0072-0.12886-0.40377-0.01921-0.04013 0.0136-0.09205 0-0.1346-0.31114-0.97491 0.03715 0.2122-0.25773-0.40378-0.03842-0.08026 0.03842-0.18893 0-0.26918-0.15924-0.33264-0.12886 0.04649-0.12886-0.26919 0-0.04484-0.01921-0.09443 0-0.13459 0.05268-0.11005 0.14346-0.17437 0.25773-0.13459 0.53914-0.24372 0.14906 0.21243 0.25773 0.26919 0.07685 0.04013 0.18625-0.0498 0.25773 0 0.07993 0.05564 0.06097 0.19825 0.12887 0.26919 0.03038 0.0317 0.09047-0.02006 0.12887 0 0.05969 0.03118 0.43966 0.45921 0.51546 0.53836 0.07579 0.07922 0.48562 0.47604 0.51546 0.53837 0.01921 0.04013-0.0136 0.09205 0 0.13459 0.03038 0.09515 0.09851 0.17401 0.12886 0.26919 0.02716 0.08517-0.03842 0.18893 0 0.26918 0.02716 0.05678 0.1017 0.07788 0.12886 0.13459 0.01917 0.04003 0 0.75093 0 0.80755 0 0.07038 0.01693 0.50298 0 0.53837-0.0171 0.03568-0.35238 0.38591-0.38659 0.40378-0.03842 0.02007-0.09045-0.02006-0.12886 0-0.31848 0.16631 0.04446 0.13458-0.25773 0.13458-0.30221 0 0.06077-0.0317-0.25773 0.13459-0.03842 0.02006-0.0859 0-0.12886 0h-0.12886c-0.1497 0-0.5275-0.03056-0.64432 0-0.23324-0.08114-0.23966 0.21803-0.38659 0.26919-0.163 0.05678-0.35246-0.05678-0.51546 0-0.05763 0.02006-0.07452 0.10621-0.12886 0.13459-0.05503 0.0287-0.59338 0-0.64432 0h-0.77318-0.12886c-0.04295 0-0.09043 0.02006-0.12886 0-0.05432-0.02839-0.07452-0.10622-0.12886-0.13459-0.03842-0.02006-0.09046 0.02006-0.12886 0-0.05432-0.02839-0.0859-0.08972-0.12886-0.13459-0.04295-0.04484-0.1017-0.07788-0.12886-0.13459-0.02553-0.05337 0.02633-0.37625 0-0.40377-0.03038-0.0317-0.09851 0.0317-0.12886 0-0.03038-0.0317 0-0.08972 0-0.13459 0-0.07519 0.02533-0.59354 0-0.67296-0.31114-0.97491 0.03714 0.2122-0.25773-0.40378-0.18961-0.39607 0.29852 0.1772-0.12887-0.26918-0.12886-0.13459-0.25773-0.26919-0.38659-0.40378-0.04294-0.04484-0.07452-0.16296-0.12886-0.13458-0.16729 0.08734-0.12886 0.40327-0.12886 0.53836v0.40377c0 0.13459-0.01822 0.27054 0 0.40378 0.05755 0.42075 0.15282 0.55864 0.25773 0.94213 0.04866 0.17787 0.07284 0.36288 0.12886 0.53837 0.03038 0.09515 0.10557 0.17185 0.12886 0.26918 0.0076 0.0317 0.05661 0.73754-0.12886 0.67296-0.14004-0.04877-0.35013-0.38603-0.38659-0.53837-0.02085-0.08703 0.02085-0.18213 0-0.26919-0.15557-0.64993-0.06126 0.0062-0.25773-0.40377-0.01921-0.04013 0.0136-0.09205 0-0.13459-0.03038-0.09515-0.09851-0.17401-0.12886-0.26918-0.0136-0.0426 0-0.08972 0-0.13459-0.04295-0.08972-0.09851-0.17401-0.12886-0.26919-0.0136-0.04261 0.0136-0.09205 0-0.13459-0.09158-0.28701-0.17681-0.31926-0.38659-0.53837-0.04295-0.04484-0.09517-0.08176-0.12886-0.13459-0.05327-0.08341-0.07558-0.18571-0.12887-0.26918-0.06739-0.10558-0.17182-0.17945-0.25773-0.26919-0.04296-0.04484-0.06812-0.13459-0.12886-0.13459-0.06077 0-0.09516 0.08176-0.12886 0.13459-0.05327 0.08341-0.08591 0.17945-0.12886 0.26919-0.04296 0.08972-0.11003 0.17081-0.12886 0.26918-0.02526 0.13198 0.02525 0.2718 0 0.40378-0.14808 0.77327-0.12886-0.03868-0.12886 0.40377 0 0.05183 0.04283 0.46354-0.12886 0.40378-0.12886-0.04484-0.25773-0.31405-0.38659-0.40378-0.07993-0.05564-0.18089-0.07436-0.25773-0.13459-0.09721-0.07612-0.15664-0.1988-0.25773-0.26918-0.03573-0.02487-0.09047 0.02006-0.12887 0-0.05432-0.02839-0.07452-0.10622-0.12887-0.1346-0.03842-0.02006-0.09045 0.02006-0.12886 0-0.05432-0.02839-0.07452-0.10622-0.12886-0.13459-0.03842-0.02007-0.08591 0-0.12886 0h-0.12886c-0.04233 0-0.36739-0.01339-0.38659 0-0.03806 0.02653-0.62189 0.63391-0.64432 0.67296-0.06991 0.12165-0.06812 0.27688-0.12886 0.40378-0.02716 0.05678-0.1017 0.07788-0.12886 0.13458-0.01921 0.04013 0.01921 0.09443 0 0.13459-0.02716 0.05678-0.0859 0.08972-0.12887 0.13459-0.04297 0.04484-0.07452 0.10622-0.12887 0.13459-0.03919 0.02048-0.42647 0-0.51546 0h-0.12886c-0.04294 0-0.09045 0.02006-0.12886 0-0.05432-0.02839-0.07833-0.09939-0.12886-0.13459-0.07993-0.05564-0.17781-0.07891-0.25773-0.13459-0.10109-0.07038-0.14906-0.21243-0.25773-0.26918-0.02642-0.01381-0.36842-0.01903-0.38659 0-0.03038 0.0317 0.03038 0.10287 0 0.13458-0.01817 0.01903-0.36016 0.01381-0.3866 0-0.05432-0.02839-0.07452-0.10621-0.12886-0.13458-0.0333-0.01738-0.68185 0-0.77318 0h-1.5464c-0.17182 0-0.34773-0.03889-0.51546 0-0.81114 0.18826-0.44701 0.29021-1.1598 0.53836-0.20779 0.07231-0.43372 0.07171-0.64432 0.13459-0.09234 0.02756-0.16661 0.10287-0.25773 0.13458-0.05015 0.01748-0.3666-0.02089-0.38659 0-0.07701 0.08046 0.07855 0.26919 0.12886 0.26919 0.09835 0 0.25736-0.40281 0.25773-0.40377 0.05046-0.13172 0.07843-0.27206 0.12886-0.40378 0.13746-0.35891 0.17225-0.22657 0.25773-0.67296 0.19678-1.0276-0.33831 0.79084 0.12886-0.67296 0.06987-0.21887 0.13132-0.47491 0.25773-0.67296 0.15924-0.24948 0.12886-0.01236 0.12886-0.26919 0-0.08972-0.02716-0.18405 0-0.26918 0.01921-0.06019 0.1017-0.07788 0.12886-0.13459 0.0072-0.01503 0.0072-0.65794 0-0.67296-0.06927-0.14468-0.14821-0.28939-0.25773-0.40378-0.06792-0.07094-0.17536-0.083-0.25773-0.13458-0.26561-0.16645-0.51546-0.35892-0.77318-0.53837-0.12886-0.08972-0.25773-0.17945-0.38659-0.26918-0.08591-0.08972-0.16053-0.19306-0.25773-0.26919-0.15368-0.12038-0.35562-0.1579-0.51546-0.26918-0.05056-0.03517-0.07452-0.10622-0.12886-0.13459-0.03842-0.02006-0.09045 0.02007-0.12886 0-0.10867-0.05678-0.15664-0.19879-0.25773-0.26919-0.07993-0.05564-0.18089-0.07436-0.25773-0.13459-0.0972-0.07612-0.17182-0.17945-0.25773-0.26918-0.2822-0.29474-0.59069-0.56092-0.77319-0.94214-0.09242-0.19308-0.21644-0.76964-0.25773-0.94215-0.04294-0.17945-0.1069-0.35481-0.12886-0.53836-0.03729-0.31162 0-0.6281 0-0.94215 0-0.13774-0.02534-0.97079 0-1.0767 0.0039-0.01593 0.48438-0.52214 0.51546-0.53836 0.04491-0.02348 0.67859 0 0.77319 0h0.64432c0.0859 0 0.17796-0.03332 0.25773 0 0.1438 0.06009 0.26269 0.17212 0.38659 0.26918 0.0486 0.03806 0.1063 0.07571 0.12886 0.13459 0.06577 0.17175 0.07284 0.36288 0.12887 0.53836 0.03038 0.09515 0.11003 0.17081 0.12887 0.26919 0.02526 0.13198 0 0.26918 0 0.40377v0.40378 1.4805 0.40377c0 0.13459 0.02526 0.2718 0 0.40378-0.01884 0.09836-0.09318 0.17604-0.12887 0.26918-0.34297 0.89553 0.13476-0.09999-0.38659 0.80755-0.04942 0.086-0.09851 0.17401-0.12886 0.26919-0.0136 0.04261 0.02382 0.09722 0 0.13459-0.06739 0.10558-0.18483 0.16767-0.25773 0.26918-0.1689 0.2352-0.12778 0.40151-0.25773 0.67296-0.02716 0.05678-0.1017 0.07788-0.12887 0.13459-0.06077 0.1269-0.08591 0.26919-0.12886 0.40377-0.04294 0.13459-0.08591 0.26919-0.12886 0.40378-0.04294 0.13459-0.08591 0.26919-0.12886 0.40378-0.04295 0.13459-0.10223 0.26466-0.12886 0.40378-0.01684 0.08796 0 0.17945 0 0.26918v0.40378 0.13459c0 0.04484-0.03038 0.10287 0 0.13458 0.06792 0.071 0.18981 0.06366 0.25773 0.13459 0.03038 0.0317-0.03038 0.10287 0 0.13459 0.03038 0.0317 0.09047-0.02007 0.12886 0 0.05432 0.02839 0.07452 0.10622 0.12886 0.13459 0.07685 0.04013 0.18089-0.04013 0.25773 0 0.13745 0.07182 0.12027 0.28713 0.25773 0 0.09855-0.20584-0.24538-0.52546-0.38659-0.67296-0.04295-0.04484-0.07452-0.10622-0.12887-0.13459-0.03842-0.02006-0.09045 0.02006-0.12886 0-0.05432-0.02839-0.07452-0.10621-0.12886-0.13459-0.03922-0.02048-0.32856 0-0.38659 0-0.60688 0-0.29567 0.38807-0.3866 0.67296-0.01921 0.06019-0.1017 0.07788-0.12886 0.13459-0.31955 0.12702-0.07283 0.36288-0.12886 0.53837-0.03038 0.09515-0.09851 0.17401-0.12886 0.26919-0.0136 0.04259 0.01921 0.09443 0 0.13459-0.02716 0.05678-0.08591 0.08972-0.12886 0.13459-0.04294 0.04484-0.07452 0.10621-0.12886 0.13458-0.03842 0.02006-0.08591 0-0.12886 0-0.04294 0-0.09043 0.02006-0.12886 0-0.21196-0.11069-0.17464-0.42768-0.38659-0.53836-0.03842-0.02006-0.08591 0-0.12886 0h-0.12886-0.12886c-0.04295 0-0.09047-0.02006-0.12886 0-0.4111 0.21469 0.15337 0.05451-0.25773 0.26919-0.03842 0.02006-0.09311-0.02487-0.12886 0-0.10109 0.07038-0.16286 0.1899-0.25773 0.26918-0.72856 0.60876-0.16277 0.03537-0.51546 0.40378-0.08591 0.08972-0.17182 0.17945-0.25773 0.26918-0.04295 0.04484-0.06812 0.13459-0.12886 0.13459-0.04295 0 0.01921-0.09443 0-0.13459-0.02716-0.05678-0.08591-0.08972-0.12886-0.13458-0.04293-0.04484-0.08591-0.08972-0.12886-0.13459-0.04294-0.04484-0.07452-0.10622-0.12886-0.13459-0.37922-0.19804 0.16966 0.3118-0.25773-0.13459" fill="none" opacity=".918" stroke="#1a3c61" stroke-width="1.0066px"/>
<path transform="matrix(1.01 0 0 .96705 -.33799 20.513)" d="m21.167 44.956v8.975h7.6008v-8.975zm1.0858 1.2822h5.4291v6.4108h-5.4291z" fill="#4d4d4d" opacity=".6"/>
<path transform="matrix(1.01 0 0 .96705 -.33799 20.513)" d="m20.082 44.956 5.4291 5.1286 4.3433-10.257 2.1716 3.8464-6.5149 8.975-5.4291-3.8464z" fill="#00a2d4"/>
<rect transform="matrix(1.0637 0 0 1.0422 4.4218 39.194)" x="2" y="-30" width="75.966" height="69.024" rx="3.957" ry="3.957" clip-path="url(#clipPath4156-4-1)" fill="url(#linearGradient4767)" opacity=".50781"/>
</g>
</g>
</g>
</svg>
