<?xml version="1.0" encoding="UTF-8"?>
<!-- Created with Inkscape (http://www.inkscape.org/) -->
<svg version="1.0" viewBox="0 0 96 96" xmlns="http://www.w3.org/2000/svg" xmlns:cc="http://creativecommons.org/ns#" xmlns:dc="http://purl.org/dc/elements/1.1/" xmlns:rdf="http://www.w3.org/1999/02/22-rdf-syntax-ns#" xmlns:xlink="http://www.w3.org/1999/xlink">
<defs>
<linearGradient id="linearGradient4391">
<stop stop-color="#fff" offset="0"/>
<stop stop-color="#fff" stop-opacity="0" offset="1"/>
</linearGradient>
<linearGradient id="ButtonShadow" x1="45.448" x2="45.448" y1="92.54" y2="7.0165" gradientTransform="scale(1.0059 .99417)" gradientUnits="userSpaceOnUse">
<stop offset="0"/>
<stop stop-opacity=".58824" offset="1"/>
</linearGradient>
<filter id="filter3174" color-interpolation-filters="sRGB">
<feGaussianBlur stdDeviation="1.71"/>
</filter>
<linearGradient id="linearGradient4767" x1="2.7714" x2="50.528" y1="-28.642" y2="14.514" gradientUnits="userSpaceOnUse">
<stop stop-color="#fff" offset="0"/>
<stop stop-color="#fff" stop-opacity="0" offset="1"/>
</linearGradient>
<filter id="filter3174-3" color-interpolation-filters="sRGB">
<feGaussianBlur stdDeviation="1.71"/>
</filter>
<filter id="filter3174-7" color-interpolation-filters="sRGB">
<feGaussianBlur stdDeviation="1.71"/>
</filter>
<linearGradient id="linearGradient4071-3" x1="6" x2="90" y1="47" y2="47" gradientTransform="matrix(1.1071 0 0 1.1071 -4.9939 -3.6207)" gradientUnits="userSpaceOnUse">
<stop stop-color="#b2babc" offset="0"/>
<stop stop-color="#fff" offset=".25"/>
<stop stop-color="#96a1a4" offset=".5"/>
<stop stop-color="#fbf9f9" offset=".75"/>
<stop stop-color="#b2b9bc" offset="1"/>
</linearGradient>
<linearGradient id="linearGradient4129-2" x1="1.5" x2="94.5" y1="88.172" y2="88.172" gradientTransform="translate(.14895 .41503)" gradientUnits="userSpaceOnUse">
<stop offset="0"/>
<stop stop-opacity=".58824" offset=".1"/>
<stop stop-opacity=".58824" offset=".9"/>
<stop offset="1"/>
</linearGradient>
<radialGradient id="radialGradient7462-0" cx="13.948" cy="44.893" r="43.199" gradientTransform="matrix(.97513 0 0 .049191 34.048 80.582)" gradientUnits="userSpaceOnUse" xlink:href="#linearGradient4391"/>
<radialGradient id="radialGradient7464-0" cx="13.948" cy="44.893" r="43.199" gradientTransform="matrix(.88833 0 0 .049191 31.96 -90.317)" gradientUnits="userSpaceOnUse" xlink:href="#linearGradient4391"/>
<clipPath id="clipPath4156-4-1">
<path d="m27.046-55.695-14.214 13.321h0.06127l15.653 21.771 10.231-10.546c-0.2169-1.1522-11.311-23.67-11.732-24.546zm-17.399 16.313-14.888 14.062 21.229 17.515 10.385-10.577zm31.491 12.951-9.7413 9.7136 8.9448 12.458 7.7808-7.555zm-49.84 4.3788-13.754 12.982 26.283 13.846 0.06127-0.0617-0.12253-0.0617 9.8332-10.053-22.301-16.652zm38.015 7.4008-9.8025 9.7753 11.579 9.5594 7.6276-7.4008-8.6691-11.009zm20.187 5.674-7.3825 7.2158 6.1878 8.5418 5.8202-6.1365zm-32.195 6.3215-9.5575 9.4977 13.662 7.185 7.9339-7.6784zm23.312 2.3744-7.1068 6.9383 8.3628 6.9074 5.3608-5.674-0.06127-0.0925-0.0919 0.12335-6.4635-8.2026zm-8.7304 8.5418-7.5051 7.3392 10.354 5.4581c1.3975-1.321 5.6751-6.1229 5.8509-6.3215z" fill="#fff" opacity=".6"/>
</clipPath>
<radialGradient id="radialGradient4747-6-9" cx="35.381" cy="26.462" r="7.2122" gradientTransform="matrix(1.2136 8.0009e-8 -8.1362e-8 1.2342 -137.39 -61.198)" gradientUnits="userSpaceOnUse">
<stop stop-color="#c7fbb5" offset="0"/>
<stop stop-color="#7dd067" offset=".4"/>
<stop stop-color="#387633" offset="1"/>
</radialGradient>
<radialGradient id="radialGradient4729-8-2" cx="51.742" cy="24.502" r="9.528" gradientTransform="matrix(1.1643 -2.0937e-8 2.0742e-8 1.1534 -137.69 -58.326)" gradientUnits="userSpaceOnUse">
<stop stop-color="#d8effd" offset="0"/>
<stop stop-color="#80bee7" offset=".4"/>
<stop stop-color="#276296" offset="1"/>
</radialGradient>
<linearGradient id="linearGradient1585" x1="-106.82" x2="-78.81" y1="-7.6686" y2="-7.6686" gradientUnits="userSpaceOnUse">
<stop stop-color="#59af3f" offset="0"/>
<stop stop-color="#7dd06e" offset=".2808"/>
<stop stop-color="#95db83" offset=".42996"/>
<stop stop-color="#73b661" offset=".60335"/>
<stop stop-color="#2f7829" offset="1"/>
</linearGradient>
<linearGradient id="linearGradient1587" x1="-87.797" x2="-59.644" y1="-4.8468" y2="-4.8468" gradientUnits="userSpaceOnUse">
<stop stop-color="#5aa6c8" offset="0"/>
<stop stop-color="#8bcae9" offset=".21075"/>
<stop stop-color="#8ad2eb" offset=".4"/>
<stop stop-color="#4e91bb" offset=".63987"/>
<stop stop-color="#27649a" offset="1"/>
</linearGradient>
</defs>
<metadata>
<rdf:RDF>
<cc:Work rdf:about="">
<dc:format>image/svg+xml</dc:format>
<dc:type rdf:resource="http://purl.org/dc/dcmitype/StillImage"/>
<dc:title/>
</cc:Work>
</rdf:RDF>
</metadata>
<g transform="translate(-37.831 -8.5424)">
<g transform="translate(-1e-6,32)">
<g transform="translate(-8.044 -17.334)">
<g transform="translate(251.29 -104.9)">
<g display="none">
<rect x="5" y="7" width="86" height="85" rx="6" ry="6" fill="url(#ButtonShadow)" filter="url(#filter3174-3)" opacity=".9"/>
</g>
</g>
<g transform="translate(45.726 -6.5382)">
<path d="m89.292 0.41503h-82.286c-3.7988 0-6.8571 3.0583-6.8571 6.8571v82.286c0 3.7989 3.0583 6.8571 6.8571 6.8571h82.286c3.7989 0 6.8571-3.0583 6.8571-6.8571v-82.286c0-3.7989-3.0583-6.8571-6.8571-6.8571z" opacity=".15"/>
<path d="m88.649 1.165h-81c-3.7395 0-6.75 3.0105-6.75 6.75v81c0 3.7395 3.0105 6.75 6.75 6.75h81c3.7395 0 6.75-3.0105 6.75-6.75v-81c0-3.7395-3.0105-6.75-6.75-6.75z" opacity=".15"/>
<path d="m88.006 1.915h-79.714c-3.6801 0-6.6429 2.9627-6.6429 6.6429v79.714c0 3.6801 2.9627 6.6429 6.6429 6.6429h79.714c3.6801 0 6.6429-2.9627 6.6429-6.6429v-79.714c0-3.6801-2.9627-6.6429-6.6429-6.6429z" fill="url(#linearGradient4071-3)"/>
<path d="m11.39 6.8022c-2.8565 0-5.1241 2.2884-5.1241 5.171v68.58c1.0972 1.6845 2.9688 2.8117 5.1241 2.8117h73.787c2.1553 0 4.0269-1.1272 5.1241-2.8117v-68.58c0-2.8826-2.2676-5.171-5.1241-5.171z" fill="#f2f5f8" opacity=".9"/>
<path d="m9.974 5.1445c-3.1166 0-5.668 2.5395-5.668 5.646v69.278c0 3.1065 2.5513 5.646 5.668 5.646h76.792c3.1166 0 5.668-2.5395 5.668-5.646v-69.278c0-3.1065-2.5513-5.646-5.668-5.646zm0 2.3194h76.792c1.8881 0 3.352 1.4801 3.352 3.3266v69.278c0 1.8465-1.4639 3.3266-3.352 3.3266h-76.792c-1.8881 0-3.352-1.4801-3.352-3.3266v-69.278c0-1.8465 1.4639-3.3266 3.352-3.3266z" color="#000000" fill="#1f2224" fill-opacity=".63265" style="text-decoration-line:none;text-indent:0;text-transform:none"/>
<path d="m1.649 82.259v6c0 3.6801 2.9761 6.6562 6.6562 6.6562h79.687c3.6801 0 6.6563-2.9761 6.6563-6.6562v-6c0 3.6801-2.9761 6.6562-6.6563 6.6562h-79.687c-3.6801 0-6.6562-2.9761-6.6562-6.6562z" fill="url(#linearGradient4129-2)" opacity=".65818"/>
<rect x="5.524" y="80.665" width="84.25" height="4.25" rx="0" ry="4.25" fill="url(#radialGradient7462-0)" opacity=".55"/>
<rect transform="rotate(90)" x="5.975" y="-90.234" width="76.75" height="4.25" rx="0" ry="4.25" fill="url(#radialGradient7464-0)" opacity=".669"/>
<g transform="matrix(1.2706 0 0 1.2706 152.38 62.301)">
<path d="m-52.988-19.286c-4.0703 6.3089-10.043 8.4652-10.043 8.4652l0.86086 2.0087s8.979-5.0807 9.1825-10.474z" fill="#f90"/>
<path d="m-102.9-0.77722s-2.7495 0.71739-3.3234-0.43043c-1.2913-15.352 10.043-18.652 10.043-18.652l6.6 0.28696c3.7304-0.14348 10.187 7.0304 10.187 7.0304l-6.1695 15.782s-11.051 3.1514-16.93-0.43043c-1.2445-3.0181 1.2913-13.774 1.2913-13.774" fill="url(#linearGradient1585)" stroke="#2b6128" stroke-width="1px"/>
<path d="m-85.556-26.531a7.4617 7.4617 0 1 1-3.8e-5 -0.02381" color="#000000" fill="url(#radialGradient4747-6-9)"/>
<path d="m-73.586-19.91c-0.48778-0.0207-0.99718 3e-3 -1.5219 0.03171-13.839-0.7123-12.112 21.465-12.112 21.465 0 0.7123 1.2365 0.69752 1.2365 0.69752l1.9161-9.3629c-0.01704 1.9954-1.5788 13.031-1.1234 14.372 3.8668 4.8843 21.076 2.6375 21.687 0.60241 0.37854-0.94634-1.3197-13.414-1.3548-13.567 0.83202-0.025181 2.0309 6.2381 2.0123 8.9254-7e-3 1.0189 2.5277 1.1975 2.6327 0.92914 0 0 1.7487-23.452-13.373-24.094z" fill="url(#linearGradient1587)" stroke="#25506c" stroke-width="1.0146"/>
<path d="m-65.647-28.03a9.2599 9.2599 0 1 1-4.7e-5 -0.02954" color="#000000" fill="url(#radialGradient4729-8-2)"/>
<path d="m-106.22-1.2077s-5.1068 0.35486-4.9495-6.3792c0.1078-4.615 3.018-7.569 13.49-7.3225 10.597 0.24948 16.469 11.38 45.12 15.71-30.166 0.50518-32.529-12.635-46.63-13.343-7.8355-0.39699-9.9143 1.6596-10.617 4.5913-0.70305 2.9317 0.77384 4.2856 2.7945 3.997z" fill="#f90"/>
</g>
<rect transform="matrix(1.0692 0 0 1.0477 4.4442 38.894)" x="2" y="-30" width="75.966" height="69.024" rx="3.957" ry="3.957" clip-path="url(#clipPath4156-4-1)" fill="url(#linearGradient4767)" opacity=".65"/>
</g>
</g>
</g>
<g display="none">
<rect x="5" y="7" width="86" height="85" rx="6" ry="6" fill="url(#ButtonShadow)" filter="url(#filter3174-7)" opacity=".9"/>
</g>
</g>
<g display="none">
<rect x="5" y="7" width="86" height="85" rx="6" ry="6" fill="url(#ButtonShadow)" filter="url(#filter3174)" opacity=".9"/>
</g>
</svg>
