<?xml version="1.0" encoding="UTF-8"?>
<svg version="1.1" viewBox="0 0 96 96" xmlns="http://www.w3.org/2000/svg" xmlns:cc="http://creativecommons.org/ns#" xmlns:dc="http://purl.org/dc/elements/1.1/" xmlns:rdf="http://www.w3.org/1999/02/22-rdf-syntax-ns#" xmlns:xlink="http://www.w3.org/1999/xlink">
<title>Part of Lila HD icon Theme</title>
<metadata>
<rdf:RDF>
<cc:Work rdf:about="">
<dc:format>image/svg+xml</dc:format>
<dc:type rdf:resource="http://purl.org/dc/dcmitype/StillImage"/>
<dc:title>Part of Lila HD icon Theme</dc:title>
<dc:date>2017</dc:date>
<dc:creator>
<cc:Agent>
<dc:title>Cristian Pozzessere "ilnanny"</dc:title>
</cc:Agent>
</dc:creator>
<dc:subject>
<rdf:Bag>
<rdf:li>All</rdf:li>
</rdf:Bag>
</dc:subject>
<dc:description>a icon theme for gnu linux o.s.</dc:description>
</cc:Work>
</rdf:RDF>
</metadata>
<defs>
<linearGradient id="linearGradient3737">
<stop stop-color="#fff" offset="0"/>
<stop stop-color="#fff" stop-opacity="0" offset="1"/>
</linearGradient>
<linearGradient id="linearGradient4740" x1="45.448" x2="45.448" y1="92.54" y2="7.0165" gradientTransform="scale(1.0059 .99417)" gradientUnits="userSpaceOnUse" xlink:href="#ButtonShadow"/>
<linearGradient id="ButtonShadow" x1="45.448" x2="45.448" y1="92.54" y2="7.0165" gradientTransform="scale(1.0059 .99417)" gradientUnits="userSpaceOnUse">
<stop offset="0"/>
<stop stop-opacity=".58824" offset="1"/>
</linearGradient>
<filter id="filter3174-3-13" color-interpolation-filters="sRGB">
<feGaussianBlur stdDeviation="1.71"/>
</filter>
<filter id="filter3174-53" color-interpolation-filters="sRGB">
<feGaussianBlur stdDeviation="1.71"/>
</filter>
<filter id="filter3174" color-interpolation-filters="sRGB">
<feGaussianBlur stdDeviation="1.71"/>
</filter>
<linearGradient id="linearGradient4071-3" x1="6" x2="90" y1="47" y2="47" gradientTransform="matrix(.45575 0 0 .45623 2.6068 3.0568)" gradientUnits="userSpaceOnUse">
<stop stop-color="#b2babc" offset="0"/>
<stop stop-color="#fff" offset=".25"/>
<stop stop-color="#96a1a4" offset=".5"/>
<stop stop-color="#fbf9f9" offset=".75"/>
<stop stop-color="#b2b9bc" offset="1"/>
</linearGradient>
<linearGradient id="linearGradient4129-2" x1="1.5" x2="94.5" y1="88.172" y2="88.172" gradientTransform="matrix(.41165 0 0 .41208 4.7238 4.7198)" gradientUnits="userSpaceOnUse">
<stop offset="0"/>
<stop stop-opacity=".58824" offset=".1"/>
<stop stop-opacity=".58824" offset=".9"/>
<stop offset="1"/>
</linearGradient>
<radialGradient id="radialGradient7462" cx="13.948" cy="44.893" r="43.199" gradientTransform="matrix(.40141 0 0 .02027 18.678 37.755)" gradientUnits="userSpaceOnUse" xlink:href="#linearGradient3737"/>
<radialGradient id="radialGradient7464" cx="13.948" cy="44.893" r="43.199" gradientTransform="matrix(.36606 0 0 .020249 17.719 -41.841)" gradientUnits="userSpaceOnUse" xlink:href="#linearGradient3737"/>
<linearGradient id="linearGradient4767-3" x1="2.7714" x2="50.528" y1="-28.642" y2="14.514" gradientTransform="matrix(1.0042 0 0 1.0052 -.21821 -.047555)" gradientUnits="userSpaceOnUse" xlink:href="#linearGradient3737"/>
<clipPath id="clipPath4156-4-1">
<path d="m27.046-55.695-14.214 13.321h0.06127l15.653 21.771 10.231-10.546c-0.2169-1.1522-11.311-23.67-11.732-24.546zm-17.399 16.313-14.888 14.062 21.229 17.515 10.385-10.577zm31.491 12.951-9.7413 9.7136 8.9448 12.458 7.7808-7.555zm-49.84 4.3788-13.754 12.982 26.283 13.846 0.06127-0.0617-0.12253-0.0617 9.8332-10.053-22.301-16.652zm38.015 7.4008-9.8025 9.7753 11.579 9.5594 7.6276-7.4008-8.6691-11.009zm20.187 5.674-7.3825 7.2158 6.1878 8.5418 5.8202-6.1365zm-32.195 6.3215-9.5575 9.4977 13.662 7.185 7.9339-7.6784zm23.312 2.3744-7.1068 6.9383 8.3628 6.9074 5.3608-5.674-0.06127-0.0925-0.0919 0.12335-6.4635-8.2026zm-8.7304 8.5418-7.5051 7.3392 10.354 5.4581c1.3975-1.321 5.6751-6.1229 5.8509-6.3215z" fill="#fff" opacity=".6"/>
</clipPath>
</defs>
<g transform="translate(0 -6)">
<g transform="translate(-1e-6,32)">
<g transform="translate(-8.044 -17.334)">
<g transform="translate(251.29 -104.9)">
<g display="none">
<rect x="5" y="7" width="86" height="85" rx="6" ry="6" fill="url(#linearGradient4740)" filter="url(#filter3174-3-13)" opacity=".9"/>
</g>
</g>
<g transform="translate(0 6)">
<g transform="matrix(2.4267 0 0 2.4267 -3.4204 -142.6)">
<g transform="translate(.00036991 48)">
<!-- color: #d84d4d -->
<path d="m41.369 4.8229h-33.731c-1.5573 0-2.8109 1.2537-2.8109 2.8109v33.731c0 1.5573 1.2537 2.8109 2.8109 2.8109h33.731c1.5573 0 2.811-1.2537 2.811-2.8109v-33.731c0-1.5573-1.2537-2.8109-2.811-2.8109z" opacity=".15"/>
<path d="m41.106 5.1303h-33.204c-1.5329 0-2.767 1.2341-2.767 2.767v33.204c0 1.5329 1.2341 2.767 2.767 2.767h33.204c1.5329 0 2.767-1.2341 2.767-2.767v-33.204c0-1.5329-1.2341-2.767-2.767-2.767z" opacity=".15"/>
<path d="m40.842 5.4378h-32.677c-1.5086 0-2.7231 1.2145-2.7231 2.7231v32.677c0 1.5086 1.2145 2.7231 2.7231 2.7231h32.677c1.5086 0 2.7231-1.2145 2.7231-2.7231v-32.677c0-1.5086-1.2145-2.7231-2.7231-2.7231z" fill="url(#linearGradient4071-3)"/>
<rect x="7.1719" y="7.4063" width="34.844" height="31.739" rx=".97536" ry="1.2354" fill="#f00" fill-opacity=".9717"/>
<path d="m8.8544 6.7616c-1.2776 0-2.3235 1.041-2.3235 2.3145v28.399c0 1.2734 1.0459 2.3145 2.3235 2.3145h31.479c1.2776 0 2.3235-1.041 2.3235-2.3145v-28.399c0-1.2734-1.0459-2.3145-2.3235-2.3145zm0 0.95081h31.479c0.77399 0 1.3741 0.60674 1.3741 1.3637v28.399c0 0.75692-0.60011 1.3637-1.3741 1.3637h-31.479c-0.77399 0-1.3741-0.60673-1.3741-1.3637v-28.399c0-0.75692 0.60011-1.3637 1.3741-1.3637z" color="#000000" fill="#202223" fill-opacity=".93689" style="text-decoration-line:none;text-indent:0;text-transform:none"/>
<path d="m5.4417 38.373v2.4596c0 1.5086 1.22 2.7286 2.7286 2.7286h32.666c1.5086 0 2.7286-1.22 2.7286-2.7286v-2.4596c0 1.5086-1.22 2.7286-2.7286 2.7286h-32.666c-1.5086 0-2.7286-1.22-2.7286-2.7286z" fill="url(#linearGradient4129-2)" opacity=".65818"/>
<rect x="7.0302" y="37.72" width="34.537" height="1.7422" rx="1.7513" ry="1.7513" fill="url(#radialGradient7462)" opacity=".55"/>
<rect transform="rotate(90)" x="7.1021" y="-41.755" width="31.462" height="1.7422" rx="1.7495" ry="1.7495" fill="url(#radialGradient7464)" opacity=".669"/>
<g transform="translate(-.00037004)">
<g transform="translate(1,1)">
<g opacity=".1">
<!-- color: #d84d4d -->
<path d="m19.813 12c-0.797 0-1.469 1.523 0.094 1.188 0.609-0.199 0.535-1.188-0.094-1.188m9.188 1c-0.465 0-0.906 0.539-0.688 0.844 0.059 0.082 0.367 0.168 0.656 0.188 0.398 0.027 0.5-0.094 0.5-0.5 0-0.375-0.129-0.531-0.469-0.531m-6.844 0.313c-0.93-0.07-1.98 0.746-2.156 1.691-0.113 0.594-0.023 0.949-0.531 0.813-0.313-0.086-1.031-0.754-1.469-0.813-0.688 0.102-1.496 0.895-1 2 0.492 0.574 0.66 0.992 0 1-1.484 0.391-2.031 0.723-1.531 2.402 0.098 0.285 0.063 0.648-0.344 1.066-0.602 0.629-0.645 0.66-1.563 0.375-1.293-0.398-2.703 1.184-0.094 1.156 1.648-0.195 1.828 0.191 0.406 0.938-0.965 0.504-1.273 0.707-1.281 1.281-8e-3 0.563 0.254 0.742 0.969 1.031 1.578 0.559 2.246 0.77 2.438 2.75 0 0.598-0.094 1.625 0.469 1.969 0.547 0.336 0.684 0.574 0.594 0.969-0.152 0.695 0.32 0.895 1.25 0.566 1.043-0.371 1.188-0.105 0.375 0.625-0.445 0.395-0.656 0.852-0.656 1.313 0.012 1.027 3.137 1.746 2.625-0.438-0.234-0.992-0.734-1.73 0.348-2 0.715-0.266 1.383 0.809 2 1 1.438 0.441 2.508-0.195 3.375-0.941 0.523-0.453 1.074-0.387 1.402-0.313 1.211 0.25 5.91 0.66 4.125-2.281-0.734-1.07-0.586-1.281 0.906-1.25 1.227 0.023 1.328-0.023 1.406-0.5 0.047-0.285-0.07-0.738-0.25-1.031-0.27-0.438-0.258-0.563 0.031-0.719 0.273-0.148 0.07-0.938-0.25-1.691-0.66-2.129 1.441-5.848-0.656-6.527-1.266-0.457 0.418-2.941-1.5-2.348-0.555 0.16-0.945-0.125-1.594-0.563-0.93-0.469-1.215-0.488-2.375-0.438-0.988 0.039-1.453-1.266-2.625-0.406-0.984 1.031-0.746 0.523-2-0.281-0.25-0.25-0.531-0.383-0.844-0.406m13.09 7.941c-0.156 0.035-0.297 0.145-0.469 0.277-0.473 0.367-0.5 0.398-0.094 0.781 0.586 0.559 1.215 0.414 1.313-0.313 0.078-0.57-0.281-0.867-0.75-0.75m-11.438 12.531c-0.168 0.035-0.207 0.223-0.156 0.531 0.047 0.27 0.258 0.5 0.469 0.5 0.227 0 0.391 0.238 0.438 0.594 0.047 0.332 0.199 0.594 0.313 0.594 0.117 0 0.266-0.262 0.348-0.594 0.109-0.473 0.039-0.863-0.5-1.25-0.434-0.309-0.738-0.41-0.906-0.375m2.371 0.313c-0.156-0.02-0.313 0.059-0.313 0.25s0.184 0.344 0.406 0.344c0.219 0 0.367-0.102 0.313-0.25-0.078-0.199-0.25-0.324-0.406-0.344m-3.844 0.375c-0.141 0-0.352 0.203-0.344 0.531 0.016 0.531 0.152 0.637 0.344 0.25 0.297-0.594 0.297-0.781 0-0.781"/>
</g>
</g>
</g>
<path d="m19.813 12c-0.797 0-1.469 1.523 0.094 1.188 0.609-0.199 0.535-1.188-0.094-1.188m9.188 1c-0.465 0-0.906 0.539-0.688 0.844 0.059 0.082 0.367 0.168 0.656 0.188 0.398 0.027 0.5-0.094 0.5-0.5 0-0.375-0.129-0.531-0.469-0.531m-6.844 0.313c-0.93-0.07-1.98 0.746-2.156 1.691-0.113 0.594-0.023 0.949-0.531 0.813-0.313-0.086-1.031-0.754-1.469-0.813-0.688 0.102-1.496 0.895-1 2 0.492 0.574 0.66 0.992 0 1-1.484 0.391-2.031 0.723-1.531 2.402 0.098 0.285 0.063 0.648-0.344 1.066-0.602 0.629-0.645 0.66-1.563 0.375-1.293-0.398-2.703 1.184-0.094 1.156 1.648-0.195 1.828 0.191 0.406 0.938-0.965 0.504-1.273 0.707-1.281 1.281-8e-3 0.563 0.254 0.742 0.969 1.031 1.578 0.559 2.246 0.77 2.438 2.75 0 0.598-0.094 1.625 0.469 1.969 0.547 0.336 0.684 0.574 0.594 0.969-0.152 0.695 0.32 0.895 1.25 0.566 1.043-0.371 1.188-0.105 0.375 0.625-0.445 0.395-0.656 0.852-0.656 1.313 0.012 1.027 3.137 1.746 2.625-0.438-0.234-0.992-0.734-1.73 0.348-2 0.715-0.266 1.383 0.809 2 1 1.438 0.441 2.508-0.195 3.375-0.941 0.523-0.453 1.074-0.387 1.402-0.313 1.211 0.25 5.91 0.66 4.125-2.281-0.734-1.07-0.586-1.281 0.906-1.25 1.227 0.023 1.328-0.023 1.406-0.5 0.047-0.285-0.07-0.738-0.25-1.031-0.27-0.438-0.258-0.563 0.031-0.719 0.273-0.148 0.07-0.938-0.25-1.691-0.66-2.129 1.441-5.848-0.656-6.527-1.266-0.457 0.418-2.941-1.5-2.348-0.555 0.16-0.945-0.125-1.594-0.563-0.93-0.469-1.215-0.488-2.375-0.438-0.988 0.039-1.453-1.266-2.625-0.406-0.984 1.031-0.746 0.523-2-0.281-0.25-0.25-0.531-0.383-0.844-0.406m13.09 7.941c-0.156 0.035-0.297 0.145-0.469 0.277-0.473 0.367-0.5 0.398-0.094 0.781 0.586 0.559 1.215 0.414 1.313-0.313 0.078-0.57-0.281-0.867-0.75-0.75m-11.438 12.531c-0.168 0.035-0.207 0.223-0.156 0.531 0.047 0.27 0.258 0.5 0.469 0.5 0.227 0 0.391 0.238 0.438 0.594 0.047 0.332 0.199 0.594 0.313 0.594 0.117 0 0.266-0.262 0.348-0.594 0.109-0.473 0.039-0.863-0.5-1.25-0.434-0.309-0.738-0.41-0.906-0.375m2.371 0.313c-0.156-0.02-0.313 0.059-0.313 0.25s0.184 0.344 0.406 0.344c0.219 0 0.367-0.102 0.313-0.25-0.078-0.199-0.25-0.324-0.406-0.344m-3.844 0.375c-0.141 0-0.352 0.203-0.344 0.531 0.016 0.531 0.152 0.637 0.344 0.25 0.297-0.594 0.297-0.781 0-0.781" fill="#7f0000"/>
<path d="m24.01 32v-8l-6.941-4v8" fill="#e5e5e5" stroke="#4c1d1d" stroke-width=".16483"/>
<path d="m30.922 20-6.914 4v8l6.914-4" fill="#c1c1c1" stroke="#4c1d1d" stroke-width=".16483"/>
<path d="m24.01 16-6.941 4 6.941 4 6.918-4" fill="#f9f9f9" stroke="#4c1d1d" stroke-width=".16483"/>
<rect transform="matrix(.43832 0 0 .42948 6.5876 20.597)" x="2" y="-30" width="75.966" height="69.024" rx="3.9736" ry="3.9777" clip-path="url(#clipPath4156-4-1)" fill="url(#linearGradient4767-3)" opacity=".65"/>
</g>
</g>
</g>
</g>
</g>
<g display="none">
<rect x="5" y="7" width="86" height="85" rx="6" ry="6" fill="url(#linearGradient4740)" filter="url(#filter3174-53)" opacity=".9"/>
</g>
<g display="none">
<rect x="5" y="7" width="86" height="85" rx="6" ry="6" fill="url(#linearGradient4740)" filter="url(#filter3174)" opacity=".9"/>
</g>
</g>
<g transform="translate(0 42)">
<!-- color: #eeeeee --></g>
</svg>
