<?xml version="1.0" encoding="UTF-8"?>
<svg version="1.1" viewBox="0 0 96 96" xmlns="http://www.w3.org/2000/svg" xmlns:cc="http://creativecommons.org/ns#" xmlns:dc="http://purl.org/dc/elements/1.1/" xmlns:rdf="http://www.w3.org/1999/02/22-rdf-syntax-ns#" xmlns:xlink="http://www.w3.org/1999/xlink">
<title>Part of Lila HD icon Theme</title>
<metadata>
<rdf:RDF>
<cc:Work rdf:about="">
<dc:format>image/svg+xml</dc:format>
<dc:type rdf:resource="http://purl.org/dc/dcmitype/StillImage"/>
<dc:title>Part of Lila HD icon Theme</dc:title>
<dc:date>2017</dc:date>
<dc:creator>
<cc:Agent>
<dc:title>Cristian Pozzessere "ilnanny"</dc:title>
</cc:Agent>
</dc:creator>
<dc:subject>
<rdf:Bag>
<rdf:li>All</rdf:li>
</rdf:Bag>
</dc:subject>
<dc:description>a icon theme for gnu linux o.s.</dc:description>
<cc:license rdf:resource="http://creativecommons.org/licenses/by-sa/4.0/"/>
</cc:Work>
<cc:License rdf:about="http://creativecommons.org/licenses/by-sa/4.0/">
<cc:permits rdf:resource="http://creativecommons.org/ns#Reproduction"/>
<cc:permits rdf:resource="http://creativecommons.org/ns#Distribution"/>
<cc:requires rdf:resource="http://creativecommons.org/ns#Notice"/>
<cc:requires rdf:resource="http://creativecommons.org/ns#Attribution"/>
<cc:permits rdf:resource="http://creativecommons.org/ns#DerivativeWorks"/>
<cc:requires rdf:resource="http://creativecommons.org/ns#ShareAlike"/>
</cc:License>
</rdf:RDF>
</metadata>
<defs>
<linearGradient id="linearGradient3737">
<stop stop-color="#fff" offset="0"/>
<stop stop-color="#fff" stop-opacity="0" offset="1"/>
</linearGradient>
<linearGradient id="linearGradient4740" x1="45.448" x2="45.448" y1="92.54" y2="7.0165" gradientTransform="scale(1.0059 .99417)" gradientUnits="userSpaceOnUse" xlink:href="#ButtonShadow"/>
<linearGradient id="ButtonShadow" x1="45.448" x2="45.448" y1="92.54" y2="7.0165" gradientTransform="scale(1.0059 .99417)" gradientUnits="userSpaceOnUse">
<stop offset="0"/>
<stop stop-opacity=".58824" offset="1"/>
</linearGradient>
<filter id="filter3174-3-13" color-interpolation-filters="sRGB">
<feGaussianBlur stdDeviation="1.71"/>
</filter>
<filter id="filter3174-53" color-interpolation-filters="sRGB">
<feGaussianBlur stdDeviation="1.71"/>
</filter>
<filter id="filter3174" color-interpolation-filters="sRGB">
<feGaussianBlur stdDeviation="1.71"/>
</filter>
<linearGradient id="linearGradient4071" x1="6" x2="90" y1="47" y2="47" gradientTransform="matrix(1.1071 0 0 1.1071 -4.9939 -3.6207)" gradientUnits="userSpaceOnUse">
<stop stop-color="#b2babc" offset="0"/>
<stop stop-color="#fff" offset=".25"/>
<stop stop-color="#96a1a4" offset=".5"/>
<stop stop-color="#fbf9f9" offset=".75"/>
<stop stop-color="#b2b9bc" offset="1"/>
</linearGradient>
<linearGradient id="linearGradient4129" x1="1.5" x2="94.5" y1="88.172" y2="88.172" gradientTransform="translate(.14895 .41503)" gradientUnits="userSpaceOnUse">
<stop offset="0"/>
<stop stop-opacity=".58824" offset=".1"/>
<stop stop-opacity=".58824" offset=".9"/>
<stop offset="1"/>
</linearGradient>
<radialGradient id="radialGradient7462" cx="13.948" cy="44.893" r="43.199" gradientTransform="matrix(.97513 0 0 .049191 34.048 80.582)" gradientUnits="userSpaceOnUse" xlink:href="#linearGradient3737"/>
<radialGradient id="radialGradient7464" cx="13.948" cy="44.893" r="43.199" gradientTransform="matrix(.88833 0 0 .049191 31.96 -90.317)" gradientUnits="userSpaceOnUse" xlink:href="#linearGradient3737"/>
<linearGradient id="linearGradient4767" x1="2.7714" x2="50.528" y1="-28.642" y2="14.514" gradientUnits="userSpaceOnUse" xlink:href="#linearGradient3737"/>
<clipPath id="clipPath4156-4-1">
<path d="m27.046-55.695-14.214 13.321h0.06127l15.653 21.771 10.231-10.546c-0.2169-1.1522-11.311-23.67-11.732-24.546zm-17.399 16.313-14.888 14.062 21.229 17.515 10.385-10.577zm31.491 12.951-9.7413 9.7136 8.9448 12.458 7.7808-7.555zm-49.84 4.3788-13.754 12.982 26.283 13.846 0.06127-0.0617-0.12253-0.0617 9.8332-10.053-22.301-16.652zm38.015 7.4008-9.8025 9.7753 11.579 9.5594 7.6276-7.4008-8.6691-11.009zm20.187 5.674-7.3825 7.2158 6.1878 8.5418 5.8202-6.1365zm-32.195 6.3215-9.5575 9.4977 13.662 7.185 7.9339-7.6784zm23.312 2.3744-7.1068 6.9383 8.3628 6.9074 5.3608-5.674-0.06127-0.0925-0.0919 0.12335-6.4635-8.2026zm-8.7304 8.5418-7.5051 7.3392 10.354 5.4581c1.3975-1.321 5.6751-6.1229 5.8509-6.3215z" fill="#fff" opacity=".6"/>
</clipPath>
<filter id="filter919" x="-.034611" y="-.037505" width="1.0692" height="1.075" color-interpolation-filters="sRGB">
<feGaussianBlur stdDeviation="0.37504173"/>
</filter>
</defs>
<g transform="translate(0 -6)">
<g transform="translate(-1e-6,32)">
<g transform="translate(-8.044 -17.334)">
<g transform="translate(251.29 -104.9)">
<g display="none">
<rect x="5" y="7" width="86" height="85" rx="6" ry="6" fill="url(#linearGradient4740)" filter="url(#filter3174-3-13)" opacity=".9"/>
</g>
</g>
<g transform="translate(0 6)">
<g transform="translate(7.895 -15.081)">
<path d="m89.292 0.41503h-82.286c-3.7988 0-6.8571 3.0583-6.8571 6.8571v82.286c0 3.7989 3.0583 6.8571 6.8571 6.8571h82.286c3.7989 0 6.8571-3.0583 6.8571-6.8571v-82.286c0-3.7989-3.0583-6.8571-6.8571-6.8571z" opacity=".15"/>
<path d="m88.649 1.165h-81c-3.7395 0-6.75 3.0105-6.75 6.75v81c0 3.7395 3.0105 6.75 6.75 6.75h81c3.7395 0 6.75-3.0105 6.75-6.75v-81c0-3.7395-3.0105-6.75-6.75-6.75z" opacity=".15"/>
<path d="m88.006 1.915h-79.714c-3.6801 0-6.6429 2.9627-6.6429 6.6429v79.714c0 3.6801 2.9627 6.6429 6.6429 6.6429h79.714c3.6801 0 6.6429-2.9627 6.6429-6.6429v-79.714c0-3.6801-2.9627-6.6429-6.6429-6.6429z" fill="url(#linearGradient4071)"/>
<path d="m11.39 6.8022c-2.8565 0-5.1241 2.2884-5.1241 5.171v68.58c1.0972 1.6845 2.9688 2.8117 5.1241 2.8117h73.787c2.1553 0 4.0269-1.1272 5.1241-2.8117v-68.58c0-2.8826-2.2676-5.171-5.1241-5.171z" fill="#f5f3f3" opacity=".77865"/>
<g transform="matrix(2.4382 0 0 2.4382 -11.593 -128.85)">
<path d="m19.346 59.59c-0.296-8e-3 -0.576 0.019-0.762 0.082-0.91 0.316-1.481 0.996-1.797 2.131-0.273 0.989-0.266 2.769 0.02 4.318 0.05 0.269 0.101 0.513 0.113 0.553 0.015 0.056-0.082 0.09-0.512 0.189-2.103 0.486-3.638 1.211-4.561 2.152-0.414 0.419-0.644 0.785-0.777 1.248-0.094 0.321-0.094 0.957 0 1.273 0.258 0.871 0.985 1.688 2.133 2.412 0.797 0.498 1.035 0.554 1.293 0.293 0.121-0.122 0.148-0.181 0.148-0.328 0-0.284-0.086-0.4-0.461-0.617-2.352-1.34-2.766-2.684-1.195-3.879 0.797-0.605 1.912-1.084 3.412-1.455 0.657-0.162 0.805-0.183 0.805-0.096 0 0.118 0.484 1.685 0.734 2.361l0.258 0.707-0.34 0.666c-1.359 2.657-2.231 5.365-2.336 7.346-0.086 1.527 0.187 2.619 0.852 3.295 0.726 0.736 1.75 0.894 3.066 0.467 0.496-0.162 1.481-0.669 2.055-1.064 0.414-0.28 0.506-0.363 0.561-0.51s0.055-0.194 0-0.348c-0.082-0.23-0.254-0.359-0.488-0.359-0.152 0-0.257 0.049-0.648 0.318-0.887 0.609-1.719 0.989-2.41 1.107-0.957 0.166-1.57-0.261-1.852-1.273-0.121-0.439-0.114-1.846 0.02-2.574 0.203-1.158 0.558-2.36 1.066-3.625 0.301-0.751 0.875-2.01 0.953-2.092 0.039-0.044 0.09 0.027 0.219 0.328 0.657 1.494 1.66 3.318 2.641 4.793 2.341 3.517 4.903 5.805 6.877 6.133l-0.021 4e-3c0.867 0.142 1.6-0.075 2.166-0.648 0.461-0.475 0.765-1.143 0.938-2.072 0.105-0.581 0.105-2.209 0-3-0.32-2.369-1.174-5.082-2.451-7.787-0.199-0.423-0.31-0.527-0.568-0.527-0.289-4e-3 -0.523 0.221-0.523 0.506 0 0.099 0.098 0.366 0.262 0.719 1.574 3.396 2.42 6.682 2.334 9.06-0.053 1.416-0.402 2.27-1.063 2.598-0.347 0.173-0.787 0.167-1.365-0.023-2.654-0.909-6.248-5.456-8.564-10.834l-0.23-0.537 0.336-0.58c0.379-0.66 1.336-2.135 1.777-2.74l0.297-0.402h0.783c4.748 0 9.447 1.087 11.939 2.752 0.508 0.34 1.121 0.961 1.305 1.324 0.133 0.253 0.145 0.32 0.145 0.656 0 0.329-0.012 0.408-0.121 0.609-0.305 0.593-1.109 1.209-2.145 1.648-0.48 0.205-0.609 0.341-0.609 0.621 0 0.237 0.153 0.435 0.383 0.506 0.149 0.044 0.199 0.036 0.465-0.07 1.672-0.669 2.821-1.708 3.055-2.76 0.066-0.284 0.062-0.819-4e-3 -1.096-0.125-0.543-0.572-1.238-1.084-1.705-2.282-2.072-7.122-3.408-12.865-3.547l-0.41-0.012 0.48-0.545c0.258-0.305 0.717-0.811 1.033-1.135 1.633-1.68 3.15-2.78 4.475-3.238 0.422-0.15 0.507-0.168 0.945-0.168 0.407 0 0.506 0.012 0.682 0.104 0.239 0.114 0.507 0.395 0.645 0.66 0.269 0.542 0.36 1.492 0.23 2.504-0.043 0.348-0.078 0.75-0.078 0.889 0 0.234 8e-3 0.27 0.141 0.385 0.109 0.103 0.183 0.129 0.324 0.129 0.227 0 0.437-0.121 0.5-0.287 0.187-0.49 0.285-2.227 0.164-2.959-0.188-1.124-0.664-1.883-1.422-2.25-1.34-0.656-3.286-0.014-5.557 1.828-1.187 0.965-2.752 2.602-3.83 4l-0.105 0.125-0.637 0.037c-0.535 0.031-1.406 0.118-2.418 0.24l-0.219 0.027-0.096-0.541c-0.183-1.079-0.197-1.241-0.197-2.273 0-0.906 0.012-1.08 0.098-1.443 0.211-0.917 0.629-1.487 1.18-1.605 0.758-0.162 1.699 0.221 3.02 1.213 0.422 0.321 0.936 0.047 0.873-0.459-0.027-0.221-0.228-0.411-0.9-0.865-0.563-0.384-1.195-0.7-1.711-0.854-0.254-0.077-0.567-0.12-0.863-0.129zm1.01 7.783c0 0.02-0.179 0.301-0.402 0.633-0.223 0.328-0.539 0.811-0.703 1.084-0.16 0.265-0.317 0.506-0.348 0.541-0.043 0.047-0.106-0.079-0.297-0.695-0.273-0.85-0.39-1.308-0.355-1.348 0.058-0.06 2.105-0.275 2.105-0.215zm4.146 3.215a1.5 1.5 0 0 0-1.5 1.5 1.5 1.5 0 0 0 1.5 1.5 1.5 1.5 0 0 0 1.5-1.5 1.5 1.5 0 0 0-1.5-1.5z" fill="#404040" filter="url(#filter919)" opacity=".647" stroke="#404040" stroke-width=".77926"/>
<path d="m20.346 61c-0.296-8e-3 -0.576 0.019-0.762 0.082-0.91 0.316-1.481 0.996-1.797 2.131-0.273 0.989-0.266 2.769 0.02 4.318 0.05 0.269 0.101 0.513 0.113 0.553 0.015 0.056-0.082 0.09-0.512 0.189-2.103 0.486-3.638 1.211-4.561 2.152-0.414 0.419-0.644 0.785-0.777 1.248-0.094 0.321-0.094 0.957 0 1.273 0.258 0.871 0.985 1.688 2.133 2.412 0.797 0.498 1.035 0.554 1.293 0.293 0.121-0.122 0.148-0.181 0.148-0.328 0-0.284-0.086-0.4-0.461-0.617-2.352-1.34-2.766-2.684-1.195-3.879 0.797-0.605 1.912-1.084 3.412-1.455 0.657-0.162 0.805-0.183 0.805-0.096 0 0.118 0.484 1.685 0.734 2.361l0.258 0.707-0.34 0.666c-1.359 2.657-2.231 5.365-2.336 7.346-0.086 1.527 0.187 2.619 0.852 3.295 0.726 0.736 1.75 0.894 3.066 0.467 0.496-0.162 1.481-0.669 2.055-1.064 0.414-0.28 0.506-0.363 0.561-0.51s0.055-0.194 0-0.348c-0.082-0.23-0.254-0.359-0.488-0.359-0.152 0-0.257 0.049-0.648 0.318-0.887 0.609-1.719 0.989-2.41 1.107-0.957 0.166-1.57-0.261-1.852-1.273-0.121-0.439-0.114-1.846 0.02-2.574 0.203-1.158 0.558-2.36 1.066-3.625 0.301-0.751 0.875-2.01 0.953-2.092 0.039-0.044 0.09 0.027 0.219 0.328 0.657 1.494 1.66 3.318 2.641 4.793 2.341 3.517 4.903 5.805 6.877 6.133l-0.021 4e-3c0.867 0.142 1.6-0.075 2.166-0.648 0.461-0.475 0.765-1.143 0.938-2.072 0.105-0.581 0.105-2.209 0-3-0.32-2.369-1.174-5.082-2.451-7.787-0.199-0.423-0.31-0.527-0.568-0.527-0.289-4e-3 -0.523 0.221-0.523 0.506 0 0.099 0.098 0.366 0.262 0.719 1.574 3.396 2.42 6.682 2.334 9.06-0.053 1.416-0.402 2.27-1.063 2.598-0.347 0.173-0.787 0.167-1.365-0.023-2.654-0.909-6.248-5.456-8.564-10.834l-0.23-0.537 0.336-0.58c0.379-0.66 1.336-2.135 1.777-2.74l0.297-0.402h0.783c4.748 0 9.447 1.087 11.939 2.752 0.508 0.34 1.121 0.961 1.305 1.324 0.133 0.253 0.145 0.32 0.145 0.656 0 0.329-0.012 0.408-0.121 0.609-0.305 0.593-1.109 1.209-2.145 1.648-0.48 0.205-0.609 0.341-0.609 0.621 0 0.237 0.153 0.435 0.383 0.506 0.149 0.044 0.199 0.036 0.465-0.07 1.672-0.669 2.821-1.708 3.055-2.76 0.066-0.284 0.062-0.819-4e-3 -1.096-0.125-0.543-0.572-1.238-1.084-1.705-2.282-2.072-7.122-3.408-12.865-3.547l-0.41-0.012 0.48-0.545c0.258-0.305 0.717-0.811 1.033-1.135 1.633-1.68 3.15-2.78 4.475-3.238 0.422-0.15 0.507-0.168 0.945-0.168 0.407 0 0.506 0.012 0.682 0.104 0.239 0.114 0.507 0.395 0.645 0.66 0.269 0.542 0.36 1.492 0.23 2.504-0.043 0.348-0.078 0.75-0.078 0.889 0 0.234 8e-3 0.27 0.141 0.385 0.109 0.103 0.183 0.129 0.324 0.129 0.227 0 0.437-0.121 0.5-0.287 0.187-0.49 0.285-2.227 0.164-2.959-0.188-1.124-0.664-1.883-1.422-2.25-1.34-0.656-3.286-0.014-5.557 1.828-1.187 0.965-2.752 2.602-3.83 4l-0.105 0.125-0.637 0.037c-0.535 0.031-1.406 0.118-2.418 0.24l-0.219 0.027-0.096-0.541c-0.183-1.079-0.197-1.241-0.197-2.273 0-0.906 0.012-1.08 0.098-1.443 0.211-0.917 0.629-1.487 1.18-1.605 0.758-0.162 1.699 0.221 3.02 1.213 0.422 0.321 0.936 0.047 0.873-0.459-0.027-0.221-0.228-0.411-0.9-0.865-0.563-0.384-1.195-0.7-1.711-0.854-0.254-0.077-0.567-0.12-0.863-0.129zm1.01 7.783c0 0.02-0.179 0.301-0.402 0.633-0.223 0.328-0.539 0.811-0.703 1.084-0.16 0.265-0.317 0.506-0.348 0.541-0.043 0.047-0.106-0.079-0.297-0.695-0.273-0.85-0.39-1.308-0.355-1.348 0.058-0.06 2.105-0.275 2.105-0.215zm4.146 3.215a1.5 1.5 0 0 0-1.5 1.5 1.5 1.5 0 0 0 1.5 1.5 1.5 1.5 0 0 0 1.5-1.5 1.5 1.5 0 0 0-1.5-1.5z" fill="#7c5900" opacity=".533" stroke="#745d00"/>
<path d="m19.346 60c-0.296-8e-3 -0.576 0.019-0.762 0.082-0.91 0.316-1.481 0.996-1.797 2.131-0.273 0.989-0.266 2.769 0.02 4.318 0.05 0.269 0.101 0.513 0.113 0.553 0.015 0.056-0.082 0.09-0.512 0.189-2.103 0.486-3.638 1.211-4.561 2.152-0.414 0.419-0.644 0.785-0.777 1.248-0.094 0.321-0.094 0.957 0 1.273 0.258 0.871 0.985 1.688 2.133 2.412 0.797 0.498 1.035 0.554 1.293 0.293 0.121-0.122 0.148-0.181 0.148-0.328 0-0.284-0.086-0.4-0.461-0.617-2.352-1.34-2.766-2.684-1.195-3.879 0.797-0.605 1.912-1.084 3.412-1.455 0.657-0.162 0.805-0.183 0.805-0.096 0 0.118 0.484 1.685 0.734 2.361l0.258 0.707-0.34 0.666c-1.359 2.657-2.231 5.365-2.336 7.346-0.086 1.527 0.187 2.619 0.852 3.295 0.726 0.736 1.75 0.894 3.066 0.467 0.496-0.162 1.481-0.669 2.055-1.064 0.414-0.28 0.506-0.363 0.561-0.51s0.055-0.194 0-0.348c-0.082-0.23-0.254-0.359-0.488-0.359-0.152 0-0.257 0.049-0.648 0.318-0.887 0.609-1.719 0.989-2.41 1.107-0.957 0.166-1.57-0.261-1.852-1.273-0.121-0.439-0.114-1.846 0.02-2.574 0.203-1.158 0.558-2.36 1.066-3.625 0.301-0.751 0.875-2.01 0.953-2.092 0.039-0.044 0.09 0.027 0.219 0.328 0.657 1.494 1.66 3.318 2.641 4.793 2.341 3.517 4.903 5.805 6.877 6.133l-0.021 4e-3c0.867 0.142 1.6-0.075 2.166-0.648 0.461-0.475 0.765-1.143 0.938-2.072 0.105-0.581 0.105-2.209 0-3-0.32-2.369-1.174-5.082-2.451-7.787-0.199-0.423-0.31-0.527-0.568-0.527-0.289-4e-3 -0.523 0.221-0.523 0.506 0 0.099 0.098 0.366 0.262 0.719 1.574 3.396 2.42 6.682 2.334 9.06-0.053 1.416-0.402 2.27-1.063 2.598-0.347 0.173-0.787 0.167-1.365-0.023-2.654-0.909-6.248-5.456-8.564-10.834l-0.23-0.537 0.336-0.58c0.379-0.66 1.336-2.135 1.777-2.74l0.297-0.402h0.783c4.748 0 9.447 1.087 11.939 2.752 0.508 0.34 1.121 0.961 1.305 1.324 0.133 0.253 0.145 0.32 0.145 0.656 0 0.329-0.012 0.408-0.121 0.609-0.305 0.593-1.109 1.209-2.145 1.648-0.48 0.205-0.609 0.341-0.609 0.621 0 0.237 0.153 0.435 0.383 0.506 0.149 0.044 0.199 0.036 0.465-0.07 1.672-0.669 2.821-1.708 3.055-2.76 0.066-0.284 0.062-0.819-4e-3 -1.096-0.125-0.543-0.572-1.238-1.084-1.705-2.282-2.072-7.122-3.408-12.865-3.547l-0.41-0.012 0.48-0.545c0.258-0.305 0.717-0.811 1.033-1.135 1.633-1.68 3.15-2.78 4.475-3.238 0.422-0.15 0.507-0.168 0.945-0.168 0.407 0 0.506 0.012 0.682 0.104 0.239 0.114 0.507 0.395 0.645 0.66 0.269 0.542 0.36 1.492 0.23 2.504-0.043 0.348-0.078 0.75-0.078 0.889 0 0.234 8e-3 0.27 0.141 0.385 0.109 0.103 0.183 0.129 0.324 0.129 0.227 0 0.437-0.121 0.5-0.287 0.187-0.49 0.285-2.227 0.164-2.959-0.188-1.124-0.664-1.883-1.422-2.25-1.34-0.656-3.286-0.014-5.557 1.828-1.187 0.965-2.752 2.602-3.83 4l-0.105 0.125-0.637 0.037c-0.535 0.031-1.406 0.118-2.418 0.24l-0.219 0.027-0.096-0.541c-0.183-1.079-0.197-1.241-0.197-2.273 0-0.906 0.012-1.08 0.098-1.443 0.211-0.917 0.629-1.487 1.18-1.605 0.758-0.162 1.699 0.221 3.02 1.213 0.422 0.321 0.936 0.047 0.873-0.459-0.027-0.221-0.228-0.411-0.9-0.865-0.563-0.384-1.195-0.7-1.711-0.854-0.254-0.077-0.567-0.12-0.863-0.129zm1.01 7.783c0 0.02-0.179 0.301-0.402 0.633-0.223 0.328-0.539 0.811-0.703 1.084-0.16 0.265-0.317 0.506-0.348 0.541-0.043 0.047-0.106-0.079-0.297-0.695-0.273-0.85-0.39-1.308-0.355-1.348 0.058-0.06 2.105-0.275 2.105-0.215zm4.146 3.215a1.5 1.5 0 0 0-1.5 1.5 1.5 1.5 0 0 0 1.5 1.5 1.5 1.5 0 0 0 1.5-1.5 1.5 1.5 0 0 0-1.5-1.5z" fill="#ffc022" stroke="#ffc022" stroke-width=".41014"/>
</g>
<path d="m9.974 5.1445c-3.1166 0-5.668 2.5395-5.668 5.646v69.278c0 3.1065 2.5513 5.646 5.668 5.646h76.792c3.1166 0 5.668-2.5395 5.668-5.646v-69.278c0-3.1065-2.5513-5.646-5.668-5.646zm0 2.3194h76.792c1.8881 0 3.352 1.4801 3.352 3.3266v69.278c0 1.8465-1.4639 3.3266-3.352 3.3266h-76.792c-1.8881 0-3.352-1.4801-3.352-3.3266v-69.278c0-1.8465 1.4639-3.3266 3.352-3.3266z" color="#000000" fill="#241f1f" fill-opacity=".63265" style="text-decoration-line:none;text-indent:0;text-transform:none"/>
<path d="m1.649 82.259v6c0 3.6801 2.9761 6.6562 6.6562 6.6562h79.687c3.6801 0 6.6563-2.9761 6.6563-6.6562v-6c0 3.6801-2.9761 6.6562-6.6563 6.6562h-79.687c-3.6801 0-6.6562-2.9761-6.6562-6.6562z" fill="url(#linearGradient4129)" opacity=".65818"/>
<rect x="5.524" y="80.665" width="84.25" height="4.25" rx="0" ry="4.25" fill="url(#radialGradient7462)" opacity=".55"/>
<rect transform="rotate(90)" x="5.975" y="-90.234" width="76.75" height="4.25" rx="0" ry="4.25" fill="url(#radialGradient7464)" opacity=".669"/>
<rect transform="matrix(1.0692 0 0 1.0477 4.4442 38.894)" x="2" y="-30" width="75.966" height="69.024" rx="3.957" ry="3.957" clip-path="url(#clipPath4156-4-1)" fill="url(#linearGradient4767)" opacity=".62"/>
</g>
</g>
</g>
</g>
<g display="none">
<rect x="5" y="7" width="86" height="85" rx="6" ry="6" fill="url(#linearGradient4740)" filter="url(#filter3174-53)" opacity=".9"/>
</g>
<g display="none">
<rect x="5" y="7" width="86" height="85" rx="6" ry="6" fill="url(#linearGradient4740)" filter="url(#filter3174)" opacity=".9"/>
</g>
</g>
<g transform="translate(0 42)">
<!-- color: #eeeeee --></g>
</svg>
