<?xml version="1.0" encoding="UTF-8"?>
<!-- Created with Inkscape (http://www.inkscape.org/) -->
<svg version="1.1" viewBox="0 0 96 96" xmlns="http://www.w3.org/2000/svg" xmlns:cc="http://creativecommons.org/ns#" xmlns:dc="http://purl.org/dc/elements/1.1/" xmlns:rdf="http://www.w3.org/1999/02/22-rdf-syntax-ns#" xmlns:xlink="http://www.w3.org/1999/xlink">
<title>lila hd</title>
<defs>
<linearGradient id="linearGradient3888-8-4-8-4-6-9-0-8-7-9">
<stop stop-color="#fff" offset="0"/>
<stop stop-color="#fff" stop-opacity="0" offset="1"/>
</linearGradient>
<linearGradient id="linearGradient3120" x1="-94" x2="-10.188" y1="82.984" y2="82.984" gradientTransform="matrix(1.1354 0 0 .82858 73.5 -20.037)" gradientUnits="userSpaceOnUse">
<stop offset="0"/>
<stop stop-opacity=".58824" offset=".1"/>
<stop stop-opacity=".58824" offset=".9"/>
<stop offset="1"/>
</linearGradient>
<linearGradient id="linearGradient5021" x1="6" x2="90" y1="47" y2="47" gradientTransform="matrix(1.1354 0 0 1.1337 -40.037 -46.788)" gradientUnits="userSpaceOnUse">
<stop stop-color="#b7b7b7" offset="0"/>
<stop stop-color="#fff" offset=".25"/>
<stop stop-color="#9d9d9d" offset=".5"/>
<stop stop-color="#fafafa" offset=".75"/>
<stop stop-color="#b7b7b7" offset="1"/>
</linearGradient>
<linearGradient id="linearGradient3806" x1="37.201" x2="37.201" y1="1" y2="45" gradientTransform="matrix(1.3117 0 0 1.3097 -19.605 -27.546)" gradientUnits="userSpaceOnUse">
<stop stop-color="#aaa" offset="0"/>
<stop stop-color="#8c8c8c" offset="1"/>
</linearGradient>
<linearGradient id="linearGradient3804" x1="20.759" x2="20.759" y1="1" y2="45.017" gradientTransform="matrix(1.3117 0 0 1.3097 -19.605 -27.546)" gradientUnits="userSpaceOnUse">
<stop stop-color="#f6f6f6" offset="0"/>
<stop stop-color="#d2d2d2" offset="1"/>
</linearGradient>
<linearGradient id="linearGradient3801" x1="86.133" x2="84.639" y1="105.1" y2="20.895" gradientTransform="matrix(.42561 0 0 .42497 -15.364 -24.196)" gradientUnits="userSpaceOnUse">
<stop stop-color="#e5e5e5" offset="0"/>
<stop stop-color="#ababab" offset="1"/>
</linearGradient>
<radialGradient id="radialGradient4100" cx="158" cy="6.2132" r="41" gradientTransform="matrix(0 1.8376 -2.3142 0 28.84 -321.74)" gradientUnits="userSpaceOnUse" xlink:href="#linearGradient3888-8-4-8-4-6-9-0-8-7-9"/>
<radialGradient id="radialGradient4102" cx="48" cy="-27" r="42" gradientTransform="matrix(-1.2173 0 0 -.99198 72.892 -67.903)" gradientUnits="userSpaceOnUse">
<stop stop-color="#fff" offset="0"/>
<stop stop-color="#fff" offset=".8"/>
<stop stop-color="#fff" stop-opacity="0" offset="1"/>
</radialGradient>
<linearGradient id="linearGradient4767" x1="2.7714" x2="50.528" y1="-28.642" y2="14.514" gradientUnits="userSpaceOnUse" xlink:href="#linearGradient3888-8-4-8-4-6-9-0-8-7-9"/>
<clipPath id="clipPath4156-4-1">
<path d="m27.046-55.695-14.214 13.321h0.06127l15.653 21.771 10.231-10.546c-0.2169-1.1522-11.311-23.67-11.732-24.546zm-17.399 16.313-14.888 14.062 21.229 17.515 10.385-10.577zm31.491 12.951-9.7413 9.7136 8.9448 12.458 7.7808-7.555zm-49.84 4.3788-13.754 12.982 26.283 13.846 0.06127-0.0617-0.12253-0.0617 9.8332-10.053-22.301-16.652zm38.015 7.4008-9.8025 9.7753 11.579 9.5594 7.6276-7.4008-8.6691-11.009zm20.187 5.674-7.3825 7.2158 6.1878 8.5418 5.8202-6.1365zm-32.195 6.3215-9.5575 9.4977 13.662 7.185 7.9339-7.6784zm23.312 2.3744-7.1068 6.9383 8.3628 6.9074 5.3608-5.674-0.06127-0.0925-0.0919 0.12335-6.4635-8.2026zm-8.7304 8.5418-7.5051 7.3392 10.354 5.4581c1.3975-1.321 5.6751-6.1229 5.8509-6.3215z" fill="#fff" opacity=".6"/>
</clipPath>
<linearGradient id="linearGradient1374" x1="42.503" x2="-7.9635" y1="33.357" y2="-8.9235" gradientUnits="userSpaceOnUse">
<stop stop-color="#ffc639" offset="0"/>
<stop stop-color="#ff860d" offset=".54416"/>
<stop stop-color="#eb6500" offset="1"/>
</linearGradient>
</defs>
<metadata>
<rdf:RDF>
<cc:Work rdf:about="">
<dc:format>image/svg+xml</dc:format>
<dc:type rdf:resource="http://purl.org/dc/dcmitype/StillImage"/>
<dc:title>lila hd</dc:title>
<cc:license rdf:resource="http://creativecommons.org/licenses/by-sa/4.0/"/>
<dc:date>2015</dc:date>
<dc:creator>
<cc:Agent>
<dc:title>Cristian Pozzessere  &lt; ilnanny &gt;</dc:title>
</cc:Agent>
</dc:creator>
<dc:subject>
<rdf:Bag>
<rdf:li>ilnanny</rdf:li>
</rdf:Bag>
</dc:subject>
<dc:description>Playing with Inkscape on Gnu/Linux O. S.</dc:description>
<dc:contributor>
<cc:Agent>
<dc:title>In the night, alone like a dog.</dc:title>
</cc:Agent>
</dc:contributor>
</cc:Work>
<cc:License rdf:about="http://creativecommons.org/licenses/by-sa/4.0/">
<cc:permits rdf:resource="http://creativecommons.org/ns#Reproduction"/>
<cc:permits rdf:resource="http://creativecommons.org/ns#Distribution"/>
<cc:requires rdf:resource="http://creativecommons.org/ns#Notice"/>
<cc:requires rdf:resource="http://creativecommons.org/ns#Attribution"/>
<cc:permits rdf:resource="http://creativecommons.org/ns#DerivativeWorks"/>
<cc:requires rdf:resource="http://creativecommons.org/ns#ShareAlike"/>
</cc:License>
</rdf:RDF>
</metadata>
<g transform="translate(0,80)">
<g transform="matrix(1.0034 0 0 1.005 33.489 -38.527)">
<g transform="matrix(.97179 0 0 .97179 .40799 .18323)">
<path d="m56.653-42.655h-84.384c-3.8957 0-7.032 3.1315-7.032 7.0214v84.257c0 3.8899 3.1363 7.0214 7.032 7.0214h84.384c3.8957 0 7.032-3.1315 7.032-7.0214v-84.257c0-3.8899-3.1363-7.0214-7.032-7.0214z" opacity=".15"/>
<path d="m55.994-41.887h-83.066c-3.8349 0-6.9221 3.0826-6.9221 6.9117v82.94c0 3.8291 3.0873 6.9117 6.9221 6.9117h83.066c3.8349 0 6.9221-3.0826 6.9221-6.9117v-82.94c0-3.8291-3.0873-6.9117-6.9221-6.9117z" opacity=".15"/>
<path d="m55.334-41.119h-81.747c-3.774 0-6.8123 3.0337-6.8123 6.802v81.624c0 3.7683 3.0383 6.802 6.8123 6.802h81.747c3.774 0 6.8123-3.0337 6.8123-6.802v-81.624c0-3.7683-3.0383-6.802-6.8123-6.802z" fill="url(#linearGradient5021)"/>
<path d="m-26.413-39.986c-3.1646 0-5.6769 2.5085-5.6769 5.6683v75.176c1.2156 1.8465 3.2891 3.0821 5.6769 3.0821h81.747c2.3878 0 4.4613-1.2357 5.6769-3.0821v-75.176c0-3.1599-2.5122-5.6683-5.6769-5.6683z" fill="url(#radialGradient4100)" opacity=".2"/>
<path d="m-26.413-41.119c-3.774 0-6.8123 3.0337-6.8123 6.802v17.005h1.1354v-17.005c0-3.1599 2.5122-5.6683 5.6769-5.6683h81.747c3.1646 0 5.6769 2.5085 5.6769 5.6683v17.005h1.1354v-17.005c0-3.7683-3.0383-6.802-6.8123-6.802z" fill="url(#radialGradient4102)" opacity=".45"/>
<path d="m-33.225 43.337v5.8001c0 2.7542 3.0383 4.9715 6.8123 4.9715h81.747c3.774 0 6.8123-2.2173 6.8123-4.9715v-5.8001c0 2.7542-3.0383 4.9715-6.8123 4.9715h-81.747c-3.774 0-6.8123-2.2173-6.8123-4.9715z" fill="url(#linearGradient3120)" opacity=".46965"/>
<path d="m-25.62-37.409h80.627c2.6275 0 4.7428 2.0633 4.7428 4.6262v71.706c0 2.5629-2.1153 4.6262-4.7428 4.6262h-80.627c-2.6275 0-4.7428-2.0633-4.7428-4.6262v-71.706c0-2.5629 2.1153-4.6262 4.7428-4.6262z" color="#000000" fill="url(#linearGradient1374)"/>
<path d="m7.9661-28.141c-3.1089 0-5.5762 2.6026-5.5762 5.6317v1.5359c-0.41405 0.1603-0.81142 0.36272-1.2178 0.54398l-1.1216-1.12c-0.90757-0.9062-2.268-1.682-3.9097-1.6959-1.4338-0.01223-2.8784 0.53817-3.9738 1.6319l-5.5441 5.5358c-2.2026 2.1993-2.0554 5.7551 0.06409 7.8716l1.1216 1.12c-0.18152 0.40575-0.38426 0.80252-0.5448 1.2159h-1.5382c-3.0337 0-5.6403 2.4636-5.6403 5.5678v7.8077c0 3.1042 2.6065 5.5678 5.6403 5.5678h1.5382c0.16054 0.41342 0.36327 0.8102 0.5448 1.2159l-1.1216 1.12c-2.1197 2.1165-2.2669 5.6724-0.06409 7.8716l5.5441 5.5358c2.2025 2.1992 5.7638 2.0526 7.8835-0.064l1.1216-1.1199c0.40636 0.18125 0.80373 0.38368 1.2178 0.54398v1.5359c0 3.0291 2.4673 5.6317 5.5762 5.6317h7.8194c3.1089 0 5.5762-2.6026 5.5762-5.6317v-1.5359c0.41405-0.1603 0.81142-0.36272 1.2178-0.54398l1.1216 1.12c2.1198 2.1166 5.681 2.2632 7.8835 0.064l5.5441-5.5358c2.2026-2.1993 2.0554-5.7551-0.06409-7.8716l-1.1216-1.12c0.18152-0.40575 0.38426-0.80252 0.5448-1.2159h1.5382c3.0337 0 5.6403-2.4636 5.6403-5.5678v-7.8077c0-3.1042-2.6065-5.5678-5.6403-5.5678h-1.5382c-0.16054-0.41343-0.36328-0.8102-0.5448-1.2159l1.1216-1.12c2.1197-2.1165 2.2669-5.6724 0.06409-7.8716l-5.5441-5.5358c-2.2025-2.1992-5.7638-2.0526-7.8835 0.064l-1.1216 1.12c-0.40636-0.18125-0.80374-0.38368-1.2178-0.54398v-1.5359c0-3.0291-2.4673-5.6317-5.5762-5.6317zm3.9097 26.815c2.7864 0 4.9352 2.1456 4.9352 4.9278 0 2.7822-2.1488 4.9278-4.9352 4.9278-2.7864 0-4.9352-2.1456-4.9352-4.9278 0-2.7822 2.1489-4.9278 4.9352-4.9278z" display="block" opacity=".05"/>
<path d="m7.9661-27.085c-2.5283 0-4.5186 2.1058-4.5186 4.5758v2.2399c-0.86833 0.31351-1.7157 0.65789-2.5317 1.056l-1.6023-1.5999c-0.74786-0.74673-1.8522-1.3648-3.1726-1.3759-1.1696-0.01-2.3469 0.42341-3.2367 1.3119l-5.5441 5.5358c-1.7855 1.7829-1.6594 4.6786 0.06409 6.3997l1.6023 1.5999c-0.39866 0.81478-0.74356 1.6609-1.0575 2.5279h-2.2433c-2.4738 0-4.5827 1.9873-4.5827 4.5118v7.8077c0 2.5245 2.109 4.5118 4.5827 4.5118h2.2433c0.31398 0.86702 0.65889 1.7131 1.0575 2.5279l-1.6023 1.5999c-1.7237 1.7211-1.8498 4.6169-0.06409 6.3997l5.5441 5.5358c1.7855 1.7828 4.6856 1.6571 6.4094-0.064l1.6023-1.5999c0.81601 0.39806 1.6634 0.74244 2.5317 1.056v2.2399c0 2.47 1.9903 4.5758 4.5186 4.5758h7.8194c2.5283 0 4.5186-2.1058 4.5186-4.5758v-2.2399c0.86833-0.31351 1.7157-0.65789 2.5317-1.056l1.6023 1.5999c1.7237 1.7211 4.6239 1.8468 6.4094 0.064l5.5441-5.5358c1.7855-1.7829 1.6594-4.6786-0.06409-6.3997l-1.6023-1.5999c0.39866-0.81477 0.74356-1.6609 1.0575-2.5279h2.2433c2.4737 0 4.5827-1.9873 4.5827-4.5118v-7.8077c0-2.5245-2.109-4.5118-4.5827-4.5118h-2.2433c-0.31398-0.86702-0.65889-1.7131-1.0575-2.5279l1.6023-1.5999c1.7237-1.7211 1.8498-4.6169 0.06409-6.3997l-5.5441-5.5358c-1.7855-1.7828-4.6856-1.6571-6.4094 0.064l-1.6023 1.5999c-0.81601-0.39806-1.6634-0.74244-2.5317-1.056v-2.2399c0-2.47-1.9903-4.5758-4.5186-4.5758zm3.9097 24.703c3.3394 0 5.9928 2.6494 5.9928 5.9837 0 3.3343-2.6534 5.9837-5.9928 5.9837-3.3394 0-5.9928-2.6494-5.9928-5.9837 0-3.3343 2.6534-5.9837 5.9928-5.9837z" display="block" opacity=".08"/>
<path d="m7.9661-26.061c-1.9459 0-3.4931 1.6386-3.4931 3.5518v2.9439c-1.3155 0.42912-2.5844 0.97199-3.7815 1.5999l-2.1151-2.1119c-0.5983-0.59739-1.4477-1.0796-2.4356-1.088-0.89883-0.0077-1.8111 0.33641-2.4997 1.024l-5.5441 5.5358c-1.3697 1.3677-1.2691 3.5964 0.06409 4.9278l2.1151 2.1119c-0.62889 1.1954-1.1726 2.4623-1.6023 3.7758h-2.9483c-1.9161 0-3.5572 1.5449-3.5572 3.4878v7.8077c0 1.943 1.6411 3.4878 3.5572 3.4878h2.9483c0.42977 1.3135 0.97346 2.5805 1.6023 3.7758l-2.1151 2.1119c-1.3334 1.3313-1.4339 3.5601-0.06409 4.9278l5.5441 5.5358c1.3697 1.3676 3.6018 1.2674 4.9352-0.064l2.1151-2.1119c1.1972 0.62794 2.466 1.1708 3.7815 1.5999v2.9439c0 1.9132 1.5472 3.5518 3.4931 3.5518h7.8194c1.9459 0 3.4931-1.6386 3.4931-3.5518v-2.9439c1.3155-0.42912 2.5844-0.97199 3.7815-1.5999l2.1151 2.1119c1.3334 1.3314 3.5655 1.4316 4.9352 0.064l5.5441-5.5358c1.3697-1.3677 1.2691-3.5964-0.06409-4.9278l-2.1151-2.1119c0.62889-1.1954 1.1726-2.4623 1.6023-3.7758h2.9483c1.9161 0 3.5572-1.5449 3.5572-3.4878v-7.8077c0-1.943-1.6411-3.4878-3.5572-3.4878h-2.9483c-0.42977-1.3135-0.97346-2.5805-1.6023-3.7758l2.1151-2.1119c1.3333-1.3313 1.434-3.5601 0.06409-4.9278l-5.5441-5.5358c-1.3697-1.3676-3.6018-1.2674-4.9352 0.064l-2.1151 2.1119c-1.1972-0.62794-2.466-1.1708-3.7815-1.5999v-2.9439c0-1.9132-1.5472-3.5518-3.4931-3.5518zm3.9097 22.655c3.8936 0 7.0183 3.12 7.0183 7.0077 0 3.8877-3.1247 7.0077-7.0183 7.0077-3.8936 0-7.0183-3.12-7.0183-7.0077 0-3.8877 3.1247-7.0077 7.0183-7.0077z" display="block" opacity=".2"/>
<path d="m7.9661-25.069c-1.3968 0-2.4997 1.1649-2.4997 2.5599v3.5838c-1.7617 0.5027-3.4345 1.2365-4.9993 2.1119l-2.5958-2.5599c-0.46792-0.46721-1.0579-0.79427-1.7305-0.79996-0.64578-0.0055-1.2951 0.23718-1.7946 0.73597l-5.5441 5.5358c-0.98512 0.98365-0.91546 2.5417 0.06409 3.5198l2.5638 2.5919c-0.87674 1.5625-1.6116 3.2328-2.1151 4.9918h-3.5893c-1.3971 0-2.5638 1.1012-2.5638 2.4959v7.8077c0 1.3947 1.1666 2.4959 2.5638 2.4959h3.5893c0.50347 1.759 1.2384 3.4293 2.1151 4.9918l-2.5638 2.5919c-0.97965 0.97818-1.0493 2.5362-0.06409 3.5198l5.5441 5.5358c0.98512 0.98364 2.5455 0.91419 3.5252-0.064l2.5958-2.5599c1.5648 0.87542 3.2376 1.6092 4.9993 2.1119v3.5838c0 1.395 1.1029 2.5599 2.4997 2.5599h7.8194c1.3968 0 2.4997-1.1649 2.4997-2.5599v-3.5838c1.7617-0.5027 3.4345-1.2365 4.9993-2.1119l2.5958 2.5599c0.97966 0.97819 2.54 1.0476 3.5252 0.064l5.5441-5.5358c0.98513-0.98365 0.91546-2.5417-0.06409-3.5198l-2.5638-2.5919c0.87674-1.5625 1.6116-3.2328 2.1151-4.9918h3.5893c1.3971 0 2.5638-1.1012 2.5638-2.4959v-7.8077c0-1.3947-1.1666-2.4959-2.5638-2.4959h-3.5893c-0.50346-1.759-1.2384-3.4293-2.1151-4.9918l2.5638-2.5919c0.97965-0.97818 1.0493-2.5362 0.06409-3.5198l-5.5441-5.5358c-0.98512-0.98364-2.5455-0.91419-3.5252 0.064l-2.5958 2.5599c-1.5649-0.87542-3.2376-1.6092-4.9993-2.1119v-3.5838c0-1.395-1.1029-2.5599-2.4997-2.5599zm3.9097 20.671c4.4262 0 8.0117 3.5801 8.0117 7.9996 0 4.4195-3.5855 7.9996-8.0117 7.9996-4.4262 0-8.0117-3.5801-8.0117-7.9996 0-4.4195 3.5856-7.9996 8.0117-7.9996z" display="block" opacity=".3"/>
<path d="m7.9817-25.581c-1.1099 0-2.0085 0.91929-2.0085 2.0464v3.97c-1.9845 0.52795-3.8807 1.3254-5.6156 2.3329l-2.8283-2.824c-0.3991-0.3985-0.87718-0.60956-1.3937-0.61392-0.51648-0.0044-1.0423 0.1812-1.4346 0.573l-5.5337 5.5253c-0.78478 0.7836-0.7572 2.0271 0.04091 2.824l2.8283 2.824c-1.009 1.7323-1.8077 3.6257-2.3364 5.6072h-3.976c-1.1288 0-2.0495 0.8973-2.0495 2.0055v7.7764c0 1.1082 0.92068 2.0055 2.0495 2.0055h3.976c0.52876 1.9815 1.3274 3.8748 2.3364 5.6072l-2.8283 2.824c-0.7982 0.797-0.82577 2.0404-0.04091 2.824l5.5337 5.5253c0.78478 0.7836 2.0301 0.75606 2.8283-0.04093l2.8283-2.824c1.7349 1.0075 3.6311 1.805 5.6156 2.3329v3.97c0 1.1271 0.89866 2.0464 2.0085 2.0464h7.7881c1.1098 0 2.0085-0.91929 2.0085-2.0464v-3.97c1.9845-0.52795 3.8807-1.3254 5.6156-2.3329l2.8283 2.824c0.7982 0.79699 2.0435 0.82453 2.8283 0.04093l5.5337-5.5253c0.78478-0.7836 0.75721-2.0271-0.04091-2.824l-2.8283-2.824c1.009-1.7323 1.8077-3.6257 2.3364-5.6072h3.976c1.1288 0 2.0495-0.8973 2.0495-2.0055v-7.7764c0-1.1082-0.92069-2.0055-2.0495-2.0055h-3.976c-0.52874-1.9815-1.3274-3.8748-2.3364-5.6072l2.8283-2.824c0.7982-0.797 0.82578-2.0404 0.04091-2.824l-5.5337-5.5253c-0.78479-0.7836-2.0301-0.75607-2.8283 0.04093l-2.8283 2.824c-1.735-1.0075-3.6311-1.805-5.6156-2.3329v-3.97c0-1.1271-0.89866-2.0464-2.0085-2.0464h-7.7881zm3.894 19.646c4.7063 0 8.5259 3.8139 8.5259 8.5131 0 4.6992-3.8196 8.5131-8.5259 8.5131-4.7063 0-8.5259-3.8139-8.5259-8.5131 0-4.6992 3.8196-8.5131 8.5259-8.5131z" display="block" fill="url(#linearGradient3804)" stroke="url(#linearGradient3806)" stroke-linejoin="round" stroke-width="1.0247"/>
<path d="m11.876-15.104c-9.764 0-17.708 7.9317-17.708 17.681 0 9.7493 7.9437 17.681 17.708 17.681 9.764 0 17.708-7.9317 17.708-17.681 0-9.7493-7.9437-17.681-17.708-17.681z" fill="none" stroke="url(#linearGradient3801)" stroke-width="2.0495"/>
<path d="m11.876-14.449c-9.4026 0-17.052 7.6378-17.052 17.026 0 9.3884 7.6493 17.026 17.052 17.026 9.4026-2e-6 17.052-7.6378 17.052-17.026 0-9.3884-7.6493-17.026-17.052-17.026zm0 7.8582c5.0683 0 9.1818 4.1072 9.1818 9.1679s-4.1134 9.1679-9.1818 9.1679c-5.0683 0-9.1818-4.1072-9.1818-9.1679s4.1134-9.1679 9.1818-9.1679z" opacity=".05"/>
<path d="m-24.688-37.812c-3.1961 0-5.8125 2.6003-5.8125 5.7812v70.938c0 3.1809 2.6164 5.7812 5.8125 5.7812h78.75c3.1961 0 5.8125-2.6003 5.8125-5.7812v-70.938c0-3.1809-2.6164-5.7812-5.8125-5.7812zm0 2.375h78.75c1.9362 0 3.4375 1.5155 3.4375 3.4062v70.938c0 1.8907-1.5013 3.4062-3.4375 3.4062h-78.75c-1.9362 0-3.4375-1.5155-3.4375-3.4062v-70.938c0-1.8907 1.5013-3.4062 3.4375-3.4062z" color="#000000" fill-opacity=".87149" style="text-decoration-line:none;text-indent:0;text-transform:none"/>
<rect transform="matrix(1.0965 0 0 1.0728 -30.578 -3.6749)" x="2" y="-30" width="75.966" height="69.024" rx="3.957" ry="3.957" clip-path="url(#clipPath4156-4-1)" fill="url(#linearGradient4767)" opacity=".729"/>
</g>
</g>
</g>
</svg>
