<?xml version="1.0" encoding="UTF-8"?>
<svg version="1.1" viewBox="0 0 96 96" xmlns="http://www.w3.org/2000/svg" xmlns:cc="http://creativecommons.org/ns#" xmlns:dc="http://purl.org/dc/elements/1.1/" xmlns:rdf="http://www.w3.org/1999/02/22-rdf-syntax-ns#" xmlns:xlink="http://www.w3.org/1999/xlink">
<title>Part of Lila HD icon Theme</title>
<metadata>
<rdf:RDF>
<cc:Work rdf:about="">
<dc:format>image/svg+xml</dc:format>
<dc:type rdf:resource="http://purl.org/dc/dcmitype/StillImage"/>
<dc:title>Part of Lila HD icon Theme</dc:title>
<dc:date>2017</dc:date>
<dc:creator>
<cc:Agent>
<dc:title>Cristian Pozzessere "ilnanny"</dc:title>
</cc:Agent>
</dc:creator>
<dc:subject>
<rdf:Bag>
<rdf:li>All</rdf:li>
</rdf:Bag>
</dc:subject>
<dc:description>a icon theme for gnu linux o.s.</dc:description>
</cc:Work>
</rdf:RDF>
</metadata>
<defs>
<linearGradient id="linearGradient3737">
<stop stop-color="#fff" offset="0"/>
<stop stop-color="#fff" stop-opacity="0" offset="1"/>
</linearGradient>
<linearGradient id="linearGradient4740" x1="45.448" x2="45.448" y1="92.54" y2="7.0165" gradientTransform="scale(1.0059 .99417)" gradientUnits="userSpaceOnUse" xlink:href="#ButtonShadow"/>
<linearGradient id="ButtonShadow" x1="45.448" x2="45.448" y1="92.54" y2="7.0165" gradientTransform="scale(1.0059 .99417)" gradientUnits="userSpaceOnUse">
<stop offset="0"/>
<stop stop-opacity=".58824" offset="1"/>
</linearGradient>
<filter id="filter3174-3-13" color-interpolation-filters="sRGB">
<feGaussianBlur stdDeviation="1.71"/>
</filter>
<filter id="filter3174-53" color-interpolation-filters="sRGB">
<feGaussianBlur stdDeviation="1.71"/>
</filter>
<filter id="filter3174" color-interpolation-filters="sRGB">
<feGaussianBlur stdDeviation="1.71"/>
</filter>
<linearGradient id="linearGradient4071-3" x1="6" x2="90" y1="47" y2="47" gradientTransform="matrix(1.1014 0 0 1.1014 -4.7171 -3.3497)" gradientUnits="userSpaceOnUse">
<stop stop-color="#b2babc" offset="0"/>
<stop stop-color="#fff" offset=".25"/>
<stop stop-color="#96a1a4" offset=".5"/>
<stop stop-color="#fff" offset=".75"/>
<stop stop-color="#b2b9bc" offset="1"/>
</linearGradient>
<linearGradient id="linearGradient4129-2" x1="1.5" x2="94.5" y1="88.172" y2="88.172" gradientTransform="matrix(.99479 0 0 .99479 .39895 .66503)" gradientUnits="userSpaceOnUse">
<stop offset="0"/>
<stop stop-opacity=".58824" offset=".1"/>
<stop stop-opacity=".58824" offset=".9"/>
<stop offset="1"/>
</linearGradient>
<radialGradient id="radialGradient7462" cx="13.948" cy="44.893" r="43.199" gradientTransform="matrix(.97005 0 0 .048935 34.121 80.414)" gradientUnits="userSpaceOnUse" xlink:href="#linearGradient3737"/>
<radialGradient id="radialGradient7464" cx="13.948" cy="44.893" r="43.199" gradientTransform="matrix(.8837 0 0 .048935 32.045 -90.098)" gradientUnits="userSpaceOnUse" xlink:href="#linearGradient3737"/>
<clipPath id="clipPath4156-4-1">
<path d="m27.046-55.695-14.214 13.321h0.06127l15.653 21.771 10.231-10.546c-0.2169-1.1522-11.311-23.67-11.732-24.546zm-17.399 16.313-14.888 14.062 21.229 17.515 10.385-10.577zm31.491 12.951-9.7413 9.7136 8.9448 12.458 7.7808-7.555zm-49.84 4.3788-13.754 12.982 26.283 13.846 0.06127-0.0617-0.12253-0.0617 9.8332-10.053-22.301-16.652zm38.015 7.4008-9.8025 9.7753 11.579 9.5594 7.6276-7.4008-8.6691-11.009zm20.187 5.674-7.3825 7.2158 6.1878 8.5418 5.8202-6.1365zm-32.195 6.3215-9.5575 9.4977 13.662 7.185 7.9339-7.6784zm23.312 2.3744-7.1068 6.9383 8.3628 6.9074 5.3608-5.674-0.06127-0.0925-0.0919 0.12335-6.4635-8.2026zm-8.7304 8.5418-7.5051 7.3392 10.354 5.4581c1.3975-1.321 5.6751-6.1229 5.8509-6.3215z" fill="#fff" opacity=".6"/>
</clipPath>
<linearGradient id="linearGradient979" x1="2.7714" x2="50.528" y1="-28.642" y2="14.514" gradientUnits="userSpaceOnUse" xlink:href="#linearGradient3737"/>
</defs>
<g transform="translate(0 -6)">
<g transform="translate(-1e-6,32)">
<g transform="translate(-8.044 -17.334)">
<g transform="translate(251.29 -104.9)">
<g display="none">
<rect x="5" y="7" width="86" height="85" rx="6" ry="6" fill="url(#linearGradient4740)" filter="url(#filter3174-3-13)" opacity=".9"/>
</g>
</g>
<g transform="translate(0 6)">
<g transform="translate(7.895 -15.081)">
<path d="m89.078 0.66503h-81.857c-3.7791 0-6.8214 3.0424-6.8214 6.8214v81.857c0 3.7791 3.0424 6.8214 6.8214 6.8214h81.857c3.7791 0 6.8214-3.0424 6.8214-6.8214v-81.857c0-3.7791-3.0424-6.8214-6.8214-6.8214z" opacity=".15"/>
<path d="m88.438 1.4111h-80.578c-3.72 0-6.7148 2.9948-6.7148 6.7148v80.578c0 3.72 2.9948 6.7148 6.7148 6.7148h80.578c3.72 0 6.7148-2.9948 6.7148-6.7148v-80.578c0-3.72-2.9948-6.7148-6.7148-6.7148z" opacity=".15"/>
<path d="m87.799 2.1572h-79.299c-3.661 0-6.6083 2.9473-6.6083 6.6083v79.299c0 3.661 2.9473 6.6083 6.6083 6.6083h79.299c3.661 0 6.6083-2.9473 6.6083-6.6083v-79.299c0-3.661-2.9473-6.6083-6.6083-6.6083z" fill="url(#linearGradient4071-3)"/>
<path d="m11.582 7.0189c-2.8416 0-5.0974 2.2765-5.0974 5.1441v70.449c1.0915 1.6757 2.9534 0.57145 5.0974 0.57145h73.403c2.1441 0 3.9384 1.0388 5.0299-0.63696l0.06752-41.866v-28.517c0-2.8676-2.2558-5.1441-5.0974-5.1441z" fill="#f87600" fill-opacity=".93333" opacity=".9"/>
<path d="m10.173 5.3699c-3.1004 0-5.6384 2.5263-5.6384 5.6166v68.917c0 3.0903 2.5381 5.6166 5.6384 5.6166h76.392c3.1004 0 5.6384-2.5263 5.6384-5.6166v-68.917c0-3.0903-2.5381-5.6166-5.6384-5.6166zm0 2.3074h76.392c1.8783 0 3.3346 1.4724 3.3346 3.3092v68.917c0 1.8369-1.4563 3.3092-3.3346 3.3092h-76.392c-1.8783 0-3.3346-1.4724-3.3346-3.3092v-68.917c0-1.8369 1.4563-3.3092 3.3346-3.3092z" color="#000000" fill="#1f2224" fill-opacity=".825" style="text-decoration-line:none;text-indent:0;text-transform:none"/>
<path d="m1.8911 82.083v5.9688c0 3.661 2.9606 6.6216 6.6216 6.6216h79.272c3.661 0 6.6216-2.9606 6.6216-6.6216v-5.9688c0 3.661-2.9606 6.6216-6.6216 6.6216h-79.272c-3.661 0-6.6216-2.9606-6.6216-6.6216z" fill="url(#linearGradient4129-2)" opacity=".65818"/>
<rect x="5.746" y="80.497" width="83.811" height="4.2279" rx="0" ry="4.2279" fill="url(#radialGradient7462)" opacity=".55"/>
<rect transform="rotate(90)" x="6.1961" y="-90.015" width="76.35" height="4.2279" rx="0" ry="4.2279" fill="url(#radialGradient7464)" opacity=".669"/>
<path d="m67.446 17.26c-1.0147-0.07598-2.0685 0.04902-3.1028 0.40194-1.2352 0.41175-2.0882 0.94849-3.044 1.8872-1.2352 1.2352-1.8872 2.5465-2.1837 4.3087-0.16176 0.97545-0.28675 1.3553-0.57351 1.9681-1.1004 2.3259-3.5146 3.9484-5.9164 3.9484-0.20097 0-0.8333-0.03921-1.4362-0.11519-2.4117-0.31616-3.5146-0.35538-6.0316-0.11519-0.6789 0.06617-1.5024 0.11519-1.7818 0.11519-1.196 0-1.9239-0.45096-2.4117-1.4362-0.30636-0.61272-0.41175-0.91908-0.40194-2.0097 0.0098-0.89948 0.02941-1.0049-0.11519-1.4362-0.24019-0.66174-0.45586-0.96565-0.97055-1.4803-0.75732-0.75732-1.5563-1.0906-2.5906-1.0906-0.6789 0-1.1593 0.10539-1.723 0.40194-1.196 0.62253-1.9387 1.7818-2.0048 3.1028-0.04902 0.91908 0.1348 1.4754 0.63233 2.2401 0.36273 0.55635 0.80389 0.95585 1.6078 1.3798 0.87006 0.45096 1.3259 0.87987 1.7181 1.6666 0.24999 0.49753 0.23528 0.54655 0.23528 1.0906 0 0.51714 0 0.57351-0.17156 0.91908-0.10539 0.21078-0.40195 0.60292-0.63233 0.86271-2.1543 2.3945-3.4705 4.9778-4.0268 7.7546-0.26715 1.3112-0.34067 2.0195-0.28185 3.4459 0.02941 0.6789 0.05147 1.4362 0.05147 1.6666-0.01961 1.3014-0.94359 2.1935-2.9239 2.8724-0.47792 0.16176-0.6985 0.20588-1.321 0.23529-0.48773 0.01961-0.87497 0-1.1544-0.05637-0.24999-0.04902-0.75732-0.04902-1.2647-0.04902-0.9681 0-1.4264 0.10539-2.1837 0.46077-2.8136 1.3014-4.0587 4.5758-2.7572 7.3527 1.6666 3.5415 6.3772 4.3087 9.0756 1.4926 0.40194-0.42155 0.60292-0.73772 1.0343-1.4926 0.1348-0.24999 0.42155-0.58331 0.63233-0.80389 0.9583-1.0049 2.2695-1.4828 3.7915-1.4828 1.0906 0 1.7328 0.23038 2.5857 0.91908 1.4166 1.1397 3.3798 2.1347 5.1126 2.6421 1.9141 0.55635 2.9974 0.64213 6.2032 0.5637 0.93869-0.02941 1.2352 0.02941 1.6666 0.10539 1.2058 0.24999 2.3798 0.70831 3.3945 1.3872 0.74752 0.49753 1.973 1.723 2.4803 2.4754 0.66909 1.0049 1.1593 2.2695 1.321 3.2744 0.26715 1.6862 0.59311 2.6911 1.1495 3.7915 1.5122 2.9778 4.2327 4.9679 7.583 5.5709 0.91908 0.16176 2.919 0.1348 3.8479-0.05637 3.1886-0.65194 5.8405-2.6617 7.2963-5.5145 0.78428-1.5514 1.1593-2.968 1.1593-4.767 0.0098-4.2033-2.4411-7.9262-6.3184-9.5928-0.88967-0.37254-1.5416-0.53674-2.7572-0.74752-1.2058-0.20097-2.0097-0.46812-2.8724-0.91908-2.0195-1.0441-3.9974-2.9778-4.7155-5.1027-0.39214-1.1862-0.51714-2.6421-0.51714-3.7327v-5.8601c0-1.3112 0.1348-2.1029 0.6887-3.218 0.63233-1.2745 2.0342-2.3259 3.3357-2.9876 0.66909-0.34558 1.1691-0.47302 2.1249-0.63723 1.0147-0.17156 1.7426-0.39704 2.5171-0.79899 1.8186-0.93869 3.2082-2.5269 3.8479-4.4802 0.27695-0.8333 0.34558-1.5171 0.34558-2.4852 0-0.9583-0.125-1.6274-0.39214-2.4803-1.0441-3.0832-3.7915-5.1126-6.8355-5.3429zm-20.315 17.132c5.414 0 9.8035 4.3895 9.8035 9.8035s-4.3895 9.8035-9.8035 9.8035-9.8035-4.3895-9.8035-9.8035 4.3895-9.8035 9.8035-9.8035zm0.29166 3.6151c-2.9754-0.22303-5.691 1.723-6.485 4.7106-0.1446 0.52694-0.17156 0.65194-0.17156 1.5514 0 0.88967 0.02941 1.0735 0.17156 1.6078 0.32597 1.2156 1.1004 2.4386 2.0097 3.218 2.6396 2.1641 4.5611 0.27695 5.8601-1.4362v-0.23038h-1.0906c-0.78428 0-1.196-0.0098-1.4362-0.05637-1.397-0.37254-2.3553-1.6372-2.3553-3.044 0-0.87006 0.29656-1.6176 0.91908-2.2401 0.59312-0.59311 1.3872-0.91908 2.1837-0.91908 1.4166 0 3.1004 1.0416 3.1126 2.4803l0.04902 6.0316h0.35783c0.71811-0.07598 1.4828-0.43136 1.9534-0.91908 0.26715-0.27695 0.55635-0.88967 0.6887-1.3112 0.10539-0.34558 0.11519-0.55145 0.11519-2.12 0-2.2597-0.07598-2.7867-0.6887-3.9631-0.77448-1.4828-2.3063-2.696-3.9067-3.1077-0.43626-0.12009-0.91663-0.22058-1.2818-0.24999z" opacity=".1"/>
<path d="m64.995 14.81c-1.0147-0.07598-2.0685 0.04902-3.1028 0.40194-1.2352 0.41175-2.0882 0.94849-3.044 1.8872-1.2352 1.2352-1.8872 2.5465-2.1837 4.3087-0.16176 0.97545-0.28675 1.3553-0.57351 1.9681-1.1004 2.3259-3.5146 3.9484-5.9164 3.9484-0.20097 0-0.8333-0.03921-1.4362-0.11519-2.4117-0.31616-3.5146-0.35538-6.0316-0.11519-0.6789 0.06617-1.5024 0.11519-1.7818 0.11519-1.196 0-1.9239-0.45096-2.4117-1.4362-0.30636-0.61272-0.41175-0.91908-0.40194-2.0097 0.0098-0.89948 0.02941-1.0049-0.11519-1.4362-0.24019-0.66174-0.45586-0.96565-0.97055-1.4803-0.75732-0.75732-1.5563-1.0906-2.5906-1.0906-0.6789 0-1.1593 0.10539-1.723 0.40194-1.196 0.62253-1.9387 1.7818-2.0048 3.1028-0.04902 0.91908 0.1348 1.4754 0.63233 2.2401 0.36273 0.55635 0.80389 0.95585 1.6078 1.3798 0.87006 0.45096 1.3259 0.87987 1.7181 1.6666 0.24999 0.49753 0.23528 0.54655 0.23528 1.0906 0 0.51714 0 0.57351-0.17156 0.91908-0.10539 0.21078-0.40195 0.60292-0.63233 0.86271-2.1543 2.3945-3.4705 4.9778-4.0268 7.7546-0.26715 1.3112-0.34067 2.0195-0.28185 3.4459 0.02941 0.6789 0.18627 1.4362 0.18627 1.6666-0.01961 1.3014-1.0784 2.1935-3.0587 2.8724-0.47792 0.16176-0.6985 0.20588-1.321 0.23529-0.48773 0.01961-0.87497 0-1.1544-0.05637-0.24999-0.04902-0.75732-0.04902-1.2647-0.04902-0.9681 0-1.4264 0.10539-2.1837 0.46077-2.8136 1.3014-4.0587 4.5758-2.7572 7.3527 1.6666 3.5415 6.3772 4.3087 9.0756 1.4926 0.40194-0.42155 0.60292-0.73772 1.0343-1.4926 0.1348-0.24999 0.42155-0.58331 0.63233-0.80389 0.9583-1.0049 2.2695-1.4828 3.7915-1.4828 1.0906 0 1.7328 0.23038 2.5857 0.91908 1.4166 1.1397 3.3798 2.1347 5.1126 2.6421 1.9141 0.55635 2.9974 0.64213 6.2032 0.5637 0.93869-0.02941 1.2352 0.02941 1.6666 0.10539 1.2058 0.24999 2.3798 0.70831 3.3945 1.3872 0.74752 0.49753 1.973 1.723 2.4803 2.4754 0.66909 1.0049 1.1593 2.2695 1.321 3.2744 0.26715 1.6862 0.59311 2.6911 1.1495 3.7915 1.5122 2.9778 4.2327 4.9679 7.583 5.5709 0.91908 0.16176 2.919 0.1348 3.8479-0.05637 3.1886-0.65194 5.8405-2.6617 7.2963-5.5145 0.78428-1.5514 1.1593-2.968 1.1593-4.767 0.0098-4.2033-2.4411-7.9262-6.3184-9.5928-0.88967-0.37254-1.5416-0.53674-2.7572-0.74752-1.2058-0.20097-2.0097-0.46812-2.8724-0.91908-2.0195-1.0441-3.9974-2.9778-4.7155-5.1027-0.39214-1.1862-0.51469-2.6421-0.51469-3.7327v-5.8601c0-1.3112 0.1348-2.1029 0.6887-3.218 0.63233-1.2745 2.0367-2.3259 3.3381-2.9876 0.66909-0.34558 1.1691-0.47302 2.1249-0.63723 1.0147-0.17156 1.7426-0.39704 2.5171-0.79899 1.8186-0.93869 3.2082-2.5269 3.8479-4.4802 0.27695-0.8333 0.34558-1.5171 0.34558-2.4852 0-0.9583-0.125-1.6274-0.39214-2.4803-1.0441-3.0832-3.7915-5.1126-6.8355-5.3429zm-20.315 17.132c5.414 0 9.8035 4.3895 9.8035 9.8035s-4.3895 9.8035-9.8035 9.8035-9.8035-4.3895-9.8035-9.8035 4.3895-9.8035 9.8035-9.8035zm0.29166 3.6151c-2.9754-0.22303-5.691 1.723-6.485 4.7106-0.1446 0.52694-0.17156 0.65194-0.17156 1.5514 0 0.88967 0.02941 1.0735 0.17156 1.6078 0.32597 1.2156 1.1004 2.4386 2.0097 3.218 2.6396 2.1641 4.5611 0.27695 5.8601-1.4362v-0.23038h-1.0906c-0.78428 0-1.196-0.0098-1.4362-0.05637-1.397-0.37254-2.3553-1.6372-2.3553-3.044 0-0.87006 0.29656-1.6176 0.91908-2.2401 0.59312-0.59311 1.3872-0.91908 2.1837-0.91908 1.4166 0 3.1004 1.0416 3.1126 2.4803l0.04902 6.0316h0.35783c0.71811-0.07598 1.4828-0.43136 1.9534-0.91908 0.26715-0.27695 0.55635-0.88967 0.6887-1.3112 0.10539-0.34558 0.11519-0.55145 0.11519-2.12 0-2.2597-0.07598-2.7867-0.6887-3.9631-0.77448-1.4828-2.3063-2.696-3.9067-3.1077-0.43626-0.12009-0.91663-0.22058-1.2818-0.24999z" fill="#f9f9f9"/>
<rect transform="matrix(1.0637 0 0 1.0422 4.6718 38.944)" x="2" y="-30" width="75.966" height="69.024" rx="3.957" ry="3.957" clip-path="url(#clipPath4156-4-1)" fill="url(#linearGradient979)" opacity=".65"/>
</g>
</g>
</g>
</g>
<g display="none">
<rect x="5" y="7" width="86" height="85" rx="6" ry="6" fill="url(#linearGradient4740)" filter="url(#filter3174-53)" opacity=".9"/>
</g>
<g display="none">
<rect x="5" y="7" width="86" height="85" rx="6" ry="6" fill="url(#linearGradient4740)" filter="url(#filter3174)" opacity=".9"/>
</g>
</g>
<g transform="translate(0 42)">
<!-- color: #eeeeee --></g>
<g transform="translate(0,48)">
<g transform="translate(1,1)">
<g opacity=".1">
<!-- color: #ffb61d --></g>
</g>
</g>
</svg>
