<?xml version="1.0" encoding="UTF-8"?>
<!-- Created with Inkscape (http://www.inkscape.org/) -->
<svg version="1.0" viewBox="0 0 96 96" xmlns="http://www.w3.org/2000/svg" xmlns:cc="http://creativecommons.org/ns#" xmlns:dc="http://purl.org/dc/elements/1.1/" xmlns:rdf="http://www.w3.org/1999/02/22-rdf-syntax-ns#" xmlns:xlink="http://www.w3.org/1999/xlink">
<defs>
<linearGradient id="ButtonShadow" x1="45.448" x2="45.448" y1="92.54" y2="7.0165" gradientTransform="scale(1.0059 .99417)" gradientUnits="userSpaceOnUse">
<stop offset="0"/>
<stop stop-opacity=".58824" offset="1"/>
</linearGradient>
<filter id="filter3174" color-interpolation-filters="sRGB">
<feGaussianBlur stdDeviation="1.71"/>
</filter>
<linearGradient id="linearGradient7466" x1="2.7714" x2="50.528" y1="-28.642" y2="14.514" gradientUnits="userSpaceOnUse">
<stop stop-color="#fff" offset="0"/>
<stop stop-color="#fff" stop-opacity="0" offset="1"/>
</linearGradient>
<radialGradient id="radialGradient7464" cx="13.948" cy="44.893" r="43.199" gradientTransform="matrix(.88833 0 0 .049191 16.069 -98.752)" gradientUnits="userSpaceOnUse" xlink:href="#linearGradient4133"/>
<radialGradient id="radialGradient7462" cx="13.948" cy="44.893" r="43.199" gradientTransform="matrix(.97513 0 0 .049191 41.943 65.501)" gradientUnits="userSpaceOnUse" xlink:href="#linearGradient4133"/>
<linearGradient id="linearGradient7460" x1="1.5" x2="94.5" y1="88.172" y2="88.172" gradientTransform="translate(8.044 -14.666)" gradientUnits="userSpaceOnUse">
<stop offset="0"/>
<stop stop-opacity=".58824" offset=".1"/>
<stop stop-opacity=".58824" offset=".9"/>
<stop offset="1"/>
</linearGradient>
<radialGradient id="radialGradient7430" cx="48" cy="-27" r="42" gradientTransform="matrix(-1.0722 0 0 -.87502 199.46 -19.126)" gradientUnits="userSpaceOnUse">
<stop stop-color="#fff" offset="0"/>
<stop stop-color="#fff" offset=".8"/>
<stop stop-color="#fff" stop-opacity="0" offset="1"/>
</radialGradient>
<radialGradient id="radialGradient7428" cx="158" cy="6.2132" r="41" gradientTransform="matrix(0 1.6209 -2.0383 0 160.66 -243.04)" gradientUnits="userSpaceOnUse">
<stop stop-color="#fff" offset="0"/>
<stop stop-color="#fff" stop-opacity="0" offset="1"/>
</radialGradient>
<linearGradient id="linearGradient7426" x1="6" x2="90" y1="47" y2="47" gradientTransform="matrix(1.1071 0 0 1.1071 2.9011 -18.701)" gradientUnits="userSpaceOnUse">
<stop stop-color="#a5b3c9" offset="0"/>
<stop stop-color="#fff" offset=".25"/>
<stop stop-color="#869eb4" offset=".5"/>
<stop stop-color="#f9fafb" offset=".75"/>
<stop stop-color="#a7b6c7" offset="1"/>
</linearGradient>
<clipPath id="clipPath4194-1-2-5">
<rect x="6" y="6" width="84" height="84" rx="6" ry="6" fill="#f0f"/>
</clipPath>
<linearGradient id="linearGradient4133">
<stop stop-color="#fff" offset="0"/>
<stop stop-color="#fff" stop-opacity="0" offset="1"/>
</linearGradient>
<clipPath id="clipPath4156-4">
<path d="m27.046-55.695-14.214 13.321h0.06127l15.653 21.771 10.231-10.546c-0.2169-1.1522-11.311-23.67-11.732-24.546zm-17.399 16.313-14.888 14.062 21.229 17.515 10.385-10.577-16.726-21zm31.491 12.951-9.7413 9.7136 8.9448 12.458 7.7808-7.555-6.9843-14.617zm-49.84 4.3788-13.754 12.982 26.283 13.846 0.06127-0.0617-0.12253-0.0617 9.8332-10.053-22.301-16.652zm38.015 7.4008-9.8025 9.7753 11.579 9.5594 7.6276-7.4008-8.6691-11.009-0.73519-0.9251zm20.187 5.674-7.3825 7.2158 6.1878 8.5418 5.8202-6.1365-4.6256-9.6211zm-32.195 6.3215-9.5575 9.4977 13.662 7.185 7.9339-7.6784-12.039-9.0043zm23.312 2.3744-7.1068 6.9383 8.3628 6.9074 5.3608-5.674-0.06127-0.0925-0.0919 0.12335-6.4635-8.2026zm-8.7304 8.5418-7.5051 7.3392 10.354 5.4581c1.3975-1.321 5.6751-6.1229 5.8509-6.3215l-8.6997-6.4757z" fill="#fff" opacity=".6"/>
</clipPath>
<linearGradient id="linearGradient3684-0" x1="79.465" x2="79.465" y1="52.146" y2="94.975" gradientTransform="matrix(.68045 0 0 .68045 1.3521 2.2556)" gradientUnits="userSpaceOnUse">
<stop stop-color="#ed6800" offset="0"/>
<stop stop-color="#fd9400" offset="1"/>
</linearGradient>
<linearGradient id="linearGradient3686-3" x1="31.188" x2="29.875" y1="18.875" y2="34.375" gradientUnits="userSpaceOnUse">
<stop stop-color="#fff" offset="0"/>
<stop stop-color="#dadada" offset="1"/>
</linearGradient>
<linearGradient id="linearGradient3688-9" x1="185.99" x2="190.46" y1="193.33" y2="-458.06" gradientTransform="matrix(.098393 0 0 .098185 41.851 51.038)" gradientUnits="userSpaceOnUse">
<stop stop-color="#fff" offset="0"/>
<stop stop-color="#fff" stop-opacity="0" offset="1"/>
</linearGradient>
<radialGradient id="radialGradient3690-2" cx="78.564" cy="67.409" r="11.648" gradientTransform="matrix(.68045 0 0 .61944 1.3521 6.3681)" gradientUnits="userSpaceOnUse">
<stop stop-color="#3f78c2" offset="0"/>
<stop stop-color="#2d578e" offset="1"/>
</radialGradient>
<linearGradient id="linearGradient3737-0" x1="75.446" x2="75.446" y1="27.258" y2="87.236" gradientTransform="matrix(.68045 0 0 .68045 1.3521 2.2556)" gradientUnits="userSpaceOnUse">
<stop stop-color="#fff" offset="0"/>
<stop stop-color="#fff" stop-opacity="0" offset="1"/>
</linearGradient>
</defs>
<metadata>
<rdf:RDF>
<cc:Work rdf:about="">
<dc:format>image/svg+xml</dc:format>
<dc:type rdf:resource="http://purl.org/dc/dcmitype/StillImage"/>
</cc:Work>
</rdf:RDF>
</metadata>
<g display="none">
<rect x="5" y="7" width="86" height="85" rx="6" ry="6" fill="url(#ButtonShadow)" filter="url(#filter3174)" opacity=".9"/>
</g>
<g transform="translate(5.5223 7.1002)">
<g transform="translate(-5.5223 24.9)">
<g transform="translate(-8.044 -17.334)">
<rect x="8.044" y="-14.666" width="96" height="2.5" fill="#fff" opacity=".31222"/>
<path d="m97.187-14.666h-82.286c-3.7988 0-6.8571 3.0583-6.8571 6.8571v82.286c0 3.7989 3.0583 6.8571 6.8571 6.8571h82.286c3.7989 0 6.8571-3.0583 6.8571-6.8571v-82.286c0-3.7989-3.0583-6.8571-6.8571-6.8571z" opacity=".15"/>
<path d="m96.544-13.916h-81c-3.7395 0-6.75 3.0105-6.75 6.75v81c0 3.7395 3.0105 6.75 6.75 6.75h81c3.7395 0 6.75-3.0105 6.75-6.75v-81c0-3.7395-3.0105-6.75-6.75-6.75z" opacity=".15"/>
<path d="m95.901-13.166h-79.714c-3.6801 0-6.6429 2.9627-6.6429 6.6429v79.714c0 3.6801 2.9627 6.6429 6.6429 6.6429h79.714c3.6801 0 6.6429-2.9627 6.6429-6.6429v-79.714c0-3.6801-2.9627-6.6429-6.6429-6.6429z" fill="url(#linearGradient7426)"/>
<g transform="matrix(1.1071 0 0 1.1071 -107.81 -18.148)">
<path d="m112 5.5c-2.7873 0-5 2.2127-5 5v20.719 7 38.594c1.0707 1.6288 2.8969 2.7188 5 2.7188h4 64 4c2.1031 0 3.9293-1.09 5-2.7188v-38.594-7-20.719c0-2.7873-2.2127-5-5-5z" fill="url(#radialGradient7428)" opacity=".2"/>
<path d="m112 4.5c-3.324 0-6 2.676-6 6v15h1v-15c0-2.7873 2.2127-5 5-5h72c2.7873 0 5 2.2127 5 5v15h1v-15c0-3.324-2.676-6-6-6h-72z" fill="url(#radialGradient7430)" opacity=".45"/>
</g>
<g transform="matrix(-1.0489 0 0 .94457 106.39 -15.005)" fill="#006cbd" stroke="#f5f9ff" stroke-opacity=".6898">
<g clip-path="url(#clipPath4194-1-2-5)" fill="#006cbd" stroke="#f5f9ff" stroke-opacity=".6898">
<g transform="matrix(.14137 .99272 -1.1652 .12045 96.937 -5.1947)" opacity=".9" stroke-width="2">
<path transform="matrix(.99411 -.10837 .10837 .99411 -5.1582 5.4919)" d="m108.9 48a60.896 60.896 0 0 1-6.5462 27.467l-54.35-27.467z" color="#000000" opacity=".05"/>
<path transform="matrix(.99786 -.065374 .065374 .99786 -3.094 3.2416)" d="m108.9 48a60.896 60.896 0 0 1-4.4572 22.869l-56.439-22.869z" color="#000000" opacity=".07"/>
<path transform="matrix(.99945 -.033121 .033121 .99945 -1.5635 1.6161)" d="m108.9 48a60.896 60.896 0 0 1-3.1299 19.272l-57.766-19.272z" color="#000000" opacity=".1"/>
<path d="m108.9 48a60.896 60.896 0 0 1-2.075 15.761l-58.821-15.761z" color="#000000" opacity=".1"/>
</g>
<g transform="matrix(1.8327 0 0 1.8327 14.258 -39.234)" stroke-width=".47875">
<path d="m19.196 49.867c-3.7383 2.563-5.6052-4.8991-1.155-4.812 4.3871-0.23608 3.9791 6.8014-0.14484 6.6146-3.1737 0.24264-5.0987-3.8987-3.1036-6.2853 2.0277-2.9808 7.1712-1.6842 7.7389 1.8175 0.96896 3.6362-3.1572 7.0386-6.5673 5.5229-3.9462-1.2697-4.4898-7.147-1.1071-9.3662 3.5697-2.7958 9.3917 0.23728 9.2058 4.7583 0.25677 4.3508-4.6893 7.6722-8.6482 5.9348-4.7194-1.5512-5.692-8.4202-1.9094-11.473 3.6589-3.435 10.363-1.4582 11.675 3.3588 1.5931 4.5594-2.0643 9.9214-6.9194 10.009-4.9341 0.46502-9.3835-4.3388-8.5226-9.2263 0.48048-5.0458 6.044-8.5972 10.839-7.0428 5.1784 1.2462 7.9642 7.5811 5.6619 12.315-2.0703 5.1795-9.0655 7.066-13.621 4.0018-5.1934-3.0203-5.926-10.894-1.7483-15.071 4.2959-4.8288 12.904-3.7852 16.129 1.7404 3.5882 5.4367 0.74553 13.65-5.4452 15.695-6.0859 2.3964-13.647-1.7424-14.738-8.2363-1.4747-6.4104 3.513-13.363 10.125-13.809 6.5474-0.84769 13.055 4.594 13.184 11.238 0.52354 6.584-5.0158 12.887-11.659 13.025-6.7954 0.53795-13.3-5.1805-13.44-12.038-0.5524-7.0079 5.3458-13.715 12.417-13.857 7.2229-0.57054 14.129 5.5183 14.275 12.799 0.54402 7.0708-5.0782 13.91-12.15 14.606-7.0606 1.0192-14.41-3.9622-15.813-11.012-1.7657-7.2328 2.7908-15.364 10.015-17.38 7.3952-2.3954 16.204 1.8723 18.685 9.2931 2.8286 7.4575-1.1147 16.692-8.5779 19.625-7.6239 3.3457-17.458-0.45113-20.71-8.1542-3.6267-7.7301 0.02753-17.902 7.8317-21.439 7.8269-3.9174 18.336-0.41907 22.166 7.4766 4.2173 7.9142 0.88881 18.76-7.0878 22.891-7.991 4.5265-19.171 1.3818-23.61-6.6655-4.8444-8.0574-1.8982-19.571 6.2087-24.326 7.972-5.0732 19.561-2.5467 24.767 5.3185 5.6225 7.8764 3.5991 19.843-4.1517 25.573-7.6181 6.0527-19.659 4.7318-25.992-2.5748-6.5368-7.0449-6.3481-18.848 0.0059-25.943 5.9692-7.1413 17.094-8.6939 25.012-3.9877 7.8697 4.2873 11.778 14.219 9.3246 22.775-2.1034 8.6536-10.4 15.24-19.316 15.262-9.3512 0.37506-18.515-6.176-20.825-15.313-2.8406-9.826 2.376-21.277 11.857-25.283 9.7995-4.5304 22.58-0.43912 27.807 9.0408 5.6264 9.4566 2.7082 22.79-6.297 29.089-8.8465 6.6167-22.359 5.1232-29.763-2.9918-7.4442-7.667-7.9887-20.556-1.7344-29.099 5.6922-8.3323 17.147-11.703 26.557-8.2884 9.3407 3.0049 16.04 12.41 15.837 22.219 0.14356 10.289-6.9822 20.253-16.957 23.048-10.921 3.4263-23.853-1.9204-28.876-12.274-5.5969-10.683-1.9007-25.099 8.1678-31.749 9.8776-6.9651 24.558-5.161 32.664 3.7252 8.12 8.3877 8.8715 22.382 2.2644 31.88-5.8718 9.0287-17.788 13.194-28.077 10.261-10.334-2.561-18.453-12.028-19.261-22.667-1.2478-11.538 5.8422-23.477 16.82-27.472 11.762-4.6715 26.426 0.21401 32.851 11.167 6.963 11.11 4.2544 26.939-5.8485 35.24-9.0175 7.8078-23.123 8.4362-33.025 1.9041-9.3105-5.7727-14.27-17.436-12.265-28.168 1.6441-10.785 10.062-20.171 20.686-22.756 11.827-3.1698 25.393 2.0493 31.78 12.56 6.786 10.594 5.3792 25.435-2.9509 34.783-7.2056 8.4619-19.472 11.822-30.072 8.7098-10.58-2.8065-19.155-11.944-21.08-22.747-2.4683-12.198 3.3554-25.652 14.214-31.864 11.255-6.7882 26.724-4.9539 36.275 3.9991 8.6483 7.7558 11.835 20.656 8.3267 31.654-2.022 6.6789-6.3258 12.653-12.119 16.565" opacity=".2"/>
<path d="m16.909 49.337c-3.8859-1.8589 1.3687-6.9414 3.4117-3.2373 2.279 3.4987-3.7071 6.5071-5.513 3.024-1.7078-2.4969 0.78598-6.0492 3.6983-5.5412 3.4169 0.25246 4.7939 5.102 2.1816 7.2332-2.5323 2.5254-7.2934 0.74614-7.6664-2.7808-0.83017-3.8513 3.7489-7.0916 7.1828-5.362 3.9974 1.6095 4.2675 7.8427 0.45822 9.8381-3.459 2.2788-8.5429-0.21377-8.9943-4.2978-0.96594-4.6215 4.2255-8.6861 8.5353-7.0233 4.5659 1.3792 6.1246 7.8364 2.7832 11.205-2.9956 3.4778-9.1468 3.0156-11.526-0.93872-2.7274-3.8401-0.88788-9.785 3.5439-11.399 4.3813-2.0023 9.9481 0.8892 10.947 5.5743 1.435 4.8543-2.4551 10.158-7.4458 10.512-5.2468 0.75731-10.124-4.1037-9.7664-9.3095 0.01802-5.7097 6.1502-10.054 11.573-8.6004 6.0158 1.2412 9.2475 8.8224 6.232 14.102-2.7696 5.5367-10.88 7.1-15.506 2.9765-4.8644-3.8703-5.051-12.061-0.2246-16.044 4.5753-4.26 12.667-3.4584 16.177 1.7717 3.809 4.9861 2.4225 12.928-2.9849 16.191-5.1702 3.5596-12.99 1.9956-16.261-3.4066-3.6719-5.3374-2.0563-13.409 3.5211-16.782 5.5054-3.7848 13.829-2.1176 17.306 3.6355 3.9019 5.6738 2.1722 14.252-3.7509 17.832-5.5611 3.8078-13.862 2.4304-17.795-3.0599-4.1939-5.327-3.5862-13.743 1.5491-18.248 5.114-4.8903 13.972-5.0041 19.064-0.0154 5.4857 4.9484 6.1591 14.227 1.2302 19.795-4.7938 5.8719-14.268 7.0146-20.228 2.2654-6.3765-4.6851-7.9245-14.583-3.1301-20.921 4.6389-6.6583 14.748-8.4844 21.367-3.7419 6.9435 4.5805 9.0581 14.893 4.3795 21.797-4.5098 7.2319-15.018 9.6462-22.208 5.0438-7.5228-4.4262-10.247-15.123-5.7334-22.6 4.3297-7.8161 15.206-10.862 22.972-6.4494 7.9638 4.1507 11.391 14.89 7.3919 22.912-3.8109 8.3704-14.622 12.392-23.021 8.7351-8.6018-3.3939-13.236-13.932-10.232-22.617 2.6921-8.7278 12.496-14.181 21.356-12.323 8.7143 1.5195 15.279 9.9382 15.168 18.692 0.21089 8.5145-6.1061 16.451-14.314 18.497-8.122 2.3809-17.486-1.3179-21.74-8.6461-4.7523-7.5184-3.7152-18.174 2.7076-24.417 6.7375-7.0073 18.641-8.1551 26.444-2.2552 8.3854 5.9128 11.091 18.376 5.7724 27.183-5.1097 9.1246-17.471 13.059-26.935 8.6403-9.6497-4.137-14.841-15.968-11.681-25.919 2.773-9.7704 13.122-16.343 23.126-15.255 9.5629 0.72554 17.78 8.5518 19.442 17.919 1.9654 9.1159-2.5919 19.099-10.762 23.593-8.4001 5.0074-19.988 3.8776-27.028-3.004-8.0094-7.3602-9.754-20.545-3.6192-29.599 6.1331-9.683 19.755-13.491 30.012-8.3642 10.426 4.82 15.918 17.76 12.456 28.655-3.045 10.669-14.206 17.938-25.163 17.013-10.221-0.54244-19.312-8.3705-21.788-18.233-2.8025-9.7221 1.1311-20.904 9.5036-26.624 8.9031-6.5096 22.099-6.3475 30.604 0.789 9.4344 7.4613 12.381 21.852 6.4198 32.345-5.8354 11.01-20.151 16.303-31.784 11.932-10.711-3.7117-17.931-15.023-17.261-26.277 0.32698-10.406 7.5699-20.031 17.356-23.48 9.6577-3.7716 21.383-1.3033 28.559 6.212 8.2292 8.2284 10.38 21.874 4.7639 32.125-5.4946 10.619-18.378 16.514-30.03 14.1-10.389-1.9096-18.983-10.409-21.459-20.612-2.7174-10.041 0.72816-21.441 8.7052-28.16 8.8671-7.8282 22.708-9.4281 32.98-3.4424 10.935 6.0377 16.776 19.641 13.946 31.757-2.2738 10.804-11.377 19.557-22.096 21.895-6.458 1.5095-13.42 0.80619-19.393-2.1031" opacity=".1"/>
</g>
<g transform="matrix(-.61679 .78713 -.78713 -.61679 115 40.012)" opacity=".5" stroke-width="2">
<path transform="matrix(.99411 -.10837 .10837 .99411 -5.1582 5.4919)" d="m108.9 48a60.896 60.896 0 0 1-6.5462 27.467l-54.35-27.467z" color="#000000" opacity=".05"/>
<path transform="matrix(.99786 -.065374 .065374 .99786 -3.094 3.2416)" d="m108.9 48a60.896 60.896 0 0 1-4.4572 22.869l-56.439-22.869z" color="#000000" opacity=".07"/>
<path transform="matrix(.99945 -.033121 .033121 .99945 -1.5635 1.6161)" d="m108.9 48a60.896 60.896 0 0 1-3.1299 19.272l-57.766-19.272z" color="#000000" opacity=".1"/>
<path d="m108.9 48a60.896 60.896 0 0 1-2.075 15.761l-58.821-15.761z" color="#000000" opacity=".1"/>
</g>
<g transform="matrix(-.068172 -1.046 2.7107 .60163 -79.095 69.08)" opacity=".8" stroke-width="2">
<path transform="matrix(.99411 -.10837 .10837 .99411 -5.1582 5.4919)" d="m108.9 48a60.896 60.896 0 0 1-6.5462 27.467l-54.35-27.467z" color="#000000" opacity=".05"/>
<path transform="matrix(.99786 -.065374 .065374 .99786 -3.094 3.2416)" d="m108.9 48a60.896 60.896 0 0 1-4.4572 22.869l-56.439-22.869z" color="#000000" opacity=".07"/>
<path transform="matrix(.99945 -.033121 .033121 .99945 -1.5635 1.6161)" d="m108.9 48a60.896 60.896 0 0 1-3.1299 19.272l-57.766-19.272z" color="#000000" opacity=".1"/>
<path d="m108.9 48a60.896 60.896 0 0 1-2.075 15.761l-58.821-15.761z" color="#000000" opacity=".1"/>
</g>
</g>
</g>
<g transform="matrix(1.1905 0 0 1.1905 2.6041 -25.283)">
<path d="m46.562 15.906v0.03125c-4.1318-0.16634-7.9661 3.2761-7.75 7.5h-0.03125c-0.06915 0.19179 0.0018 0.347-0.03125 0.53125-0.18907 1.0544 0.05214 2.007 0.1875 2.7188 0.0265 0.13936 0.01724 0.13628 0.03125 0.25-4.5422 0.02771-9.1119-0.07645-13.719 0.09375a1.1468 1.1468 0 0 0-0.03125 0c-4.6614 0.2192-8.1654 4.5427-7.6875 9.0938h-0.03125c0.01931 1.1706-0.16565 2.7773 0.65625 4.3438h-0.03125c0.0117 0.06489 0.07937 0.09298 0.09375 0.15625 0.04756 0.08247 0.0082 0.16804 0.0625 0.25l0.03125-0.03125c0.44992 1.5532 1.6154 2.6417 2.7812 3.375 0.55182 0.34709 0.81581 0.42414 1.3125 0.65625-3.3543 2.4852-6.7571 4.9406-10.062 7.4688a1.1468 1.1468 0 0 0-0.0625 0.03125c-2.4371 2.0518-3.8337 5.2095-3.5312 8.4375 0.036872 0.39401-3.049e-4 0.99642 0 1.6875 2.432e-4 0.55112 0.19523 1.2068 0.5 1.8438h-0.0625c0.41537 2.7355 2.4796 4.5823 4.8125 5.3438 2.311 0.75436 4.9624 0.55844 7.0625-0.75 0.01137-0.0071 0.01992-0.0241 0.03125-0.03125 0.0075-0.0043 0.02378 0.0043 0.03125 0 3.223-1.8686 5.7354-4.5067 8.4375-6.5625a1.1468 1.1468 0 0 0 0.0625-0.03125c0.04482 0.09948-0.0057 0.02751 0.03125 0.15625 0.1658 0.57711 0.34309 1.3476 0.59375 2.0938 0.19843 0.59063 0.50426 1.1825 1 1.6875 0.01043 0.01062 0.02058 0.02074 0.03125 0.03125 6.6173 11.565 22.069 15.889 34.062 10.75 0.0088-0.0034 0.02249 0.0034 0.03125 0 9.5534-3.7125 16.479-13.619 15.625-24.031-8.67e-4 -0.01057 8.83e-4 -0.02068 0-0.03125 0.0043-0.05247-0.0039-0.10379 0-0.15625 0.51363-6.9777-2.6517-13.843-7.7812-18.406-0.04976-0.04426-0.07487-0.11242-0.125-0.15625l-0.03125 0.03125c-1.3377-1.5468-3.0051-2.366-4.125-3.375a1.1468 1.1468 0 0 0-0.09375-0.0625c-5.7818-4.4145-11.834-9.1034-17.469-13.375a1.1468 1.1468 0 0 0-0.0625-0.0625c-1.2452-0.82166-2.8967-1.497-4.6562-1.4688-0.03369 5.4e-4 -0.05999-0.03234-0.09375-0.03125z" color="#000000" fill-rule="evenodd" opacity=".05" style="block-progression:tb;text-indent:0;text-transform:none"/>
<path d="m46.594 17.062c-3.6254-0.19674-7.2271 3.0487-6.7188 6.7443-0.50734 1.4071 1.0711 4.2414-0.2112 4.2869-4.794 0.0448-9.5947-0.09546-14.384 0.08147-3.9951 0.18786-7.0822 3.9987-6.6237 7.9072 0.02348 1.4233-0.23089 2.9306 0.59538 4.1779 0.46663 2.5875 4.2987 3.9366 5.3561 4.3978-3.8437 2.8722-7.7949 5.6996-11.576 8.5919-2.153 1.8126-3.3899 4.6303-3.125 7.4574 0.1065 1.1381-0.29765 2.4732 0.40625 3.4488 0.68875 4.5359 6.646 6.0324 10.177 3.7856 3.0638-1.7624 5.5661-4.3645 8.3807-6.5059 2.2005-2.6934 1.737 3.166 3.3807 4.245 6.2848 11.032 21.233 15.212 32.695 10.285 9.1493-3.5428 15.801-13.142 14.898-23.059 0.55662-6.7023-2.4984-13.409-7.5-17.781-1.1306-1.3809-2.8554-2.1832-4.1923-3.3877-5.7862-4.418-11.836-9.0959-17.464-13.362-1.1121-0.73384-2.6542-1.3588-4.0938-1.3125z" color="#000000" fill-rule="evenodd" opacity=".1" style="block-progression:tb;text-indent:0;text-transform:none"/>
<path d="m46.594 18.156c-1.2787 0.0021-2.5721 0.39792-3.6562 1.1562-1.0593 0.73811-1.8036 1.8205-1.9688 3.0625 0.01378-0.103-0.01263-0.02629-0.03125 0.21875-0.0179 0.23574 0.03511 0.44203 0.0625 0.65625h-0.03125v2.1562c0.0277-0.22072-0.0058-0.14784-0.03125 0.1875-0.02346 0.30893 3.57e-4 0.55872 0.03125 0.78125 0.13032 0.93998 0.637 1.7961 1.3438 2.4688a0.96409 0.96409 0 0 0 0.0625 0.0625 0.96409 0.96409 0 0 0 0.125 0.15625c0.0116 0.0097 0.01954 0.02162 0.03125 0.03125a0.96409 0.96409 0 0 0 0.03125 0.03125c0.02903 0.02287 0.06468 0.03959 0.09375 0.0625h-15.969c-1.7405 0-3.3205 0.395-4.5625 1.2812-1.2451 0.88849-2.0209 2.2308-2.2812 3.6875-0.02855 0.15971-0.08242 0.35607-0.09375 0.59375-0.0048 0.10086-0.0015 0.11118 0 0.0625a0.96409 0.96409 0 0 0 0 0.03125v2.875 0.0625c-0.0065 0.14369-0.0063 0.29592 0 0.4375 9.01e-4 0.02023-0.0011 0.04221 0 0.0625v0.25a0.96409 0.96409 0 0 0 0.03125 0.125 0.96409 0.96409 0 0 0 0.1875 0.5c0.54318 2.2735 2.5511 4.25 5.375 4.25 0.92529 0.0011 1.8535 2.56e-4 2.7812 0l-13.938 10.312c-0.01711 0.0095-0.04153 0.01826-0.0625 0.03125l-0.03125 0.03125c-0.03469 0.02257-0.08274 0.03036-0.125 0.0625a0.96409 0.96409 0 0 0 0 0.03125 0.96409 0.96409 0 0 0-0.15625 0.1875c-1.307 1.064-2.2511 2.4262-2.625 3.9375-0.07653 0.30933-0.10366 0.56704-0.125 0.84375a0.96409 0.96409 0 0 0-0.03125 0.1875 0.96409 0.96409 0 0 0-0.03125 0.15625v0.40625 2.625 0.03125c-0.0066 0.1637-0.0089 0.34005 0 0.53125 1e-3 0.02249-0.0014 0.03973 0 0.0625v0.09375a0.96409 0.96409 0 0 0 0.1875 0.53125 0.96409 0.96409 0 0 0 0.0625 0.125c0.15586 0.76296 0.36308 1.5327 0.875 2.1875 1.0989 1.4048 2.7528 2.0789 4.4375 2.0938 1.6847 0.01484 3.41-0.59503 4.8438-1.75a0.96409 0.96409 0 0 0 0.03125 0l9.4375-7.75c0.13059 0.84994 0.1984 1.6361 0.46875 2.5 0.92654 2.9477 2.4953 5.6837 4.6562 8.0625 2.2165 2.4407 4.9637 4.3973 8.0938 5.7812 3.2918 1.4535 6.8241 2.1933 10.5 2.1875 3.6751-0.0073 7.2702-0.75383 10.562-2.2188 3.1264-1.3966 5.8477-3.3657 8.0625-5.8125 2.1586-2.391 3.7008-5.1517 4.625-8.0938 0.46823-1.49 0.7844-3.0083 0.90625-4.5312 0.0789-1.0087 0.06685-2.0007 0-3 0.01481-0.18755 0.0072-0.22465 0-0.125a0.96409 0.96409 0 0 0 0-0.09375 0.96409 0.96409 0 0 0 0-0.03125c0.0097 0.12212 0.01556 0.06235 0-0.125 0.08337-1.3577 0.07151-2.7161-0.125-4.0938-0.41383-2.9157-1.4523-5.6716-3-8.1562-1.1362-1.8253-2.5933-3.3986-4.1875-4.8125a0.96409 0.96409 0 0 0 0-0.03125c-0.01107-0.0098-0.02016-0.02146-0.03125-0.03125a0.96409 0.96409 0 0 0-0.28125-0.40625l-0.90625-0.6875v0.03125l-19.719-15.094-0.03125-0.03125-0.0625-0.03125c-0.0079-0.0083 3e-3 -0.0282 0-0.03125h-0.03125c-0.0044-0.0044 0.0012-0.02952 0-0.03125l-0.03125-0.03125c-0.0219-0.0195-0.01203 0.01614-0.03125 0a0.96409 0.96409 0 0 0-0.125-0.09375c-7e-3 -0.0027-0.02586 0.0013-0.03125 0v-0.03125c-0.01023-0.0061-0.02177 0.0051-0.03125 0a0.96409 0.96409 0 0 0-0.125-0.0625c-1.0174-0.71464-2.1952-1.0957-3.4062-1.0938z" color="#000000" fill-rule="evenodd" opacity=".15" style="block-progression:tb;text-indent:0;text-transform:none"/>
<path d="m46.594 19.125c-1.0865 0.0018-2.1785 0.32853-3.0938 0.96875-0.86969 0.60598-1.4375 1.4663-1.5625 2.4062-0.0072 0.05382-0.02712 0.1019-0.03125 0.15625-0.01516 0.19969-0.0015 0.39861 0.03125 0.59375v2.2812c-0.0053 0.04224-0.028 0.08214-0.03125 0.125-0.01511 0.19899 0.0041 0.39818 0.03125 0.59375 0.10964 0.79078 0.53993 1.5353 1.2188 2.0938v0.03125c0.74281 0.58516 1.5018 1.1855 2.25 1.7812h-18.719c-1.5972 0-2.9662 0.35605-4 1.0938s-1.6867 1.8338-1.9062 3.0625c-0.02837 0.15871-0.05485 0.3083-0.0625 0.46875-1e-3 0.02106 6.57e-4 0.04142 0 0.0625v2.9375c-0.0089 0.15204-0.0086 0.28523 0 0.4375v0.3125h0.03125c0.26435 2.0219 2.0254 3.9062 4.5938 3.9062 1.901 0.0023 3.8114 6e-5 5.7188 0l-16.406 12.125c2e-3 -1e-3 -0.03247 0.0159-0.09375 0.0625-1.2515 0.95777-2.1022 2.2387-2.4375 3.5938-0.07842 0.31695-0.10855 0.64565-0.125 0.96875h-0.03125v0.40625 2.6562c-0.0074 0.17336-0.01075 0.35859 0 0.53125v0.15625h0.03125c0.07782 0.80604 0.35427 1.5839 0.875 2.25 1.8081 2.3114 5.4076 2.2255 7.9375 0.1875l10.719-8.7812c0.01741 1.0245 0.28868 2.6257 0.71875 4 0.88306 2.8094 2.3955 5.4052 4.4688 7.6875 2.1257 2.3407 4.74 4.2316 7.75 5.5625 3.1668 1.3983 6.577 2.0994 10.125 2.0938 3.5478-7e-3 6.9913-0.71675 10.156-2.125 3.007-1.3432 5.6257-3.2469 7.75-5.5938 2.0678-2.2904 3.5548-4.9087 4.4375-7.7188 0.44706-1.4226 0.72772-2.8622 0.84375-4.3125 0.07796-0.99671 0.07206-2.0028 0-3 0.0033-0.0418-3e-3 -0.0832 0-0.125-0.0025-0.0314 0.0026-0.0624 0-0.0937 0.09169-1.3536 0.06784-2.7106-0.125-4.0625-0.39482-2.7818-1.3646-5.4068-2.8438-7.7813-1.1592-1.8623-2.6608-3.4958-4.3438-4.9375l0.0625-0.0625-0.90625-0.6875-19.906-15.25c0.0013 1e-3 -0.02548-0.02609-0.03125-0.03125-0.0091-0.0081-0.03564-0.01079-0.0625-0.03125-0.01132-0.0086-0.01986-0.02272-0.03125-0.03125-0.86457-0.64778-1.9276-0.97052-3-0.96875z" color="#000000" fill-rule="evenodd" opacity=".3" style="block-progression:tb;text-indent:0;text-transform:none"/>
<path d="m46.594 18.125c-1.0865 0.0018-2.1785 0.32853-3.0938 0.96875-0.86969 0.60598-1.4375 1.4663-1.5625 2.4062-0.0072 0.05382-0.02712 0.1019-0.03125 0.15625-0.01516 0.19969-0.0015 0.39861 0.03125 0.59375v2.2812c-0.0053 0.04224-0.028 0.08214-0.03125 0.125-0.01511 0.19899 0.0041 0.39818 0.03125 0.59375 0.10964 0.79078 0.53993 1.5353 1.2188 2.0938v0.03125c0.74281 0.58516 1.5018 1.1855 2.25 1.7812h-18.719c-1.5972 0-2.9662 0.35605-4 1.0938s-1.6867 1.8338-1.9062 3.0625c-0.02837 0.15871-0.05485 0.3083-0.0625 0.46875-1e-3 0.02106 6.57e-4 0.04142 0 0.0625v2.9375c-0.0089 0.15204-0.0086 0.28523 0 0.4375v0.3125h0.03125c0.26435 2.0219 2.0254 3.9062 4.5938 3.9062 1.901 0.0023 3.8114 6e-5 5.7188 0l-16.406 12.125c2e-3 -1e-3 -0.03247 0.0159-0.09375 0.0625-1.2515 0.95777-2.1022 2.2387-2.4375 3.5938-0.07842 0.31695-0.10855 0.64565-0.125 0.96875h-0.03125v0.40625 2.6562c-0.0074 0.17336-0.01075 0.35859 0 0.53125v0.15625h0.03125c0.07782 0.80604 0.35427 1.5839 0.875 2.25 1.8081 2.3114 5.4076 2.2255 7.9375 0.1875l10.719-8.7812c0.01741 1.0245 0.28868 2.6257 0.71875 4 0.88306 2.8094 2.3955 5.4052 4.4688 7.6875 2.1257 2.3407 4.74 4.2316 7.75 5.5625 3.1668 1.3983 6.577 2.0994 10.125 2.0938 3.5478-7e-3 6.9913-0.71675 10.156-2.125 3.007-1.3432 5.6257-3.2469 7.75-5.5938 2.0678-2.2904 3.5548-4.9087 4.4375-7.7188 0.44706-1.4226 0.72772-2.8622 0.84375-4.3125 0.07796-0.99671 0.07206-2.0028 0-3 0.0033-0.0418-3e-3 -0.0832 0-0.125-0.0025-0.0314 0.0026-0.0624 0-0.0937 0.09169-1.3536 0.06784-2.7106-0.125-4.0625-0.39482-2.7818-1.3646-5.4068-2.8438-7.7813-1.1592-1.8623-2.6608-3.4958-4.3438-4.9375l0.0625-0.0625-0.90625-0.6875-19.906-15.25c0.0013 1e-3 -0.02548-0.02609-0.03125-0.03125-0.0091-0.0081-0.03564-0.01079-0.0625-0.03125-0.01132-0.0086-0.01986-0.02272-0.03125-0.03125-0.86457-0.64778-1.9276-0.97052-3-0.96875z" color="#000000" fill="#ac4d00" fill-rule="evenodd" style="block-progression:tb;text-indent:0;text-transform:none"/>
<path d="m32.525 52.571c0.01411 0.83037 0.2835 2.4448 0.6798 3.7113 0.83918 2.6698 2.2609 5.1443 4.241 7.3241 2.031 2.2364 4.5288 4.0364 7.4158 5.3129 3.038 1.3414 6.3271 2.0267 9.7402 2.0213 3.4131-0.0072 6.702-0.70366 9.7385-2.0548 2.886-1.2891 5.3838-3.0935 7.4133-5.3356 1.9757-2.1884 3.3947-4.6669 4.2338-7.3382 0.42461-1.3511 0.68817-2.7206 0.7983-4.097 0.10579-1.3525 0.06063-2.7121-0.1325-4.066-0.37514-2.6431-1.2933-5.1216-2.7022-7.3833-1.2922-2.0759-2.9549-3.8943-4.931-5.4241l0.0029-0.0029-19.954-15.291c-0.01698-0.01408-0.0325-0.02815-0.05092-0.04081-1.3117-1.0021-3.5133-0.99926-4.9519 7e-3 -1.4584 1.0162-1.5755 2.6052-0.28214 3.6692 2.7413 2.1595 5.4718 4.4177 8.2283 6.577l-25.326-0.01685c-2.8782 0-4.5717 1.3649-4.9283 3.3603-0.31468 1.7608 1.0792 3.9427 3.5786 3.9427 4.2662 0.0056 8.5742-0.0099 12.856-0.01831l-22.946 16.939c-0.02963 0.02252-0.05923 0.04223-0.08886 0.06475-2.1607 1.6536-2.8617 4.4052-1.5007 6.1461 1.385 1.7705 4.3257 1.7719 6.5146 0.0086l12.521-10.226s-0.18053 1.3821-0.16786 2.211z" fill="url(#linearGradient3684-0)" fill-rule="evenodd" stroke="#ce5c00" stroke-width="2"/>
<path transform="matrix(1.1856 0 0 1.2088 17.846 17.71)" d="m42.75 25.75a11.562 10.125 0 1 1-23.125 0 11.562 10.125 0 1 1 23.125 0z" fill="url(#linearGradient3686-3)"/>
<path d="m46.592 20.797c-0.58419 8.16e-4 -1.1812 0.18099-1.5804 0.46024l-0.0031 0.0031c-0.40433 0.28172-0.48608 0.5299-0.49812 0.66275-0.01204 0.13286-0.0191 0.24087 0.27367 0.48172 0.0274 0.02266 0.05406 0.04619 0.07994 0.07057 0.1793 0.14547 8.2312 6.6797 8.2312 6.6797 0.53917 0.43786 0.74434 1.1667 0.51254 1.8206-0.23179 0.654-0.85051 0.5511-1.5457 0.55333-8.1299 0.07363-25.41 0.02761-25.41 0.02761-1.3751 9.53e-4 -3.387 0.74414-3.4827 2.2834-0.09172 1.4758 1.3121 2.0987 2.2774 2.0987l12.742-0.02455c0.70469-8.85e-4 1.3316 0.31899 1.5591 0.98455 0.22742 0.66557 0.0048 0.7654-0.55361 1.1943l-22.944 17.575-0.0061 0.0061c-0.09241 0.07026-0.12232 0.08964-0.08916 0.06445-0.79894 0.61141-1.2931 1.4122-1.4698 2.1263-0.17669 0.71417-0.06723 1.2708 0.2706 1.7029 0.69093 0.88326 2.5531 1.0542 4.1817-0.25774l12.514-10.22c0.5223-0.42586 1.2521-0.49044 1.8414-0.16295 0.58923 0.32749 0.91846 0.9807 0.83061 1.648 0 0-0.16234 1.4112-0.15375 1.9729 0.27756 3.7962 2.0899 7.0772 4.4954 9.9566 4.1525 4.5686 9.8834 6.5607 15.934 6.7963 6.0654-0.06327 11.812-2.3938 15.934-6.8515 7.5307-9.1951 5.6878-19.243-2.5213-25.909-6.4881-5.2684-13.294-10.196-19.943-15.292-0.0062-5e-3 -0.01234-0.01019-0.01845-0.01534-0.01034-7e-3 -0.02059-0.01421-0.03075-0.02148-0.3038-0.2321-0.84362-0.41502-1.4267-0.41421z" fill="none" opacity=".48571" stroke="url(#linearGradient3688-9)" stroke-width="1.5"/>
<path d="m46.895 47.763c0.10745-1.9599 1.0668-3.69 2.5089-4.9148 1.4192-1.204 3.3249-1.9392 5.4066-1.9392 2.0804 0 3.9861 0.73517 5.4049 1.9392 1.4437 1.2248 2.4019 2.9536 2.5106 4.9135 0.11136 2.0171-0.69666 3.89-2.1129 5.2772-1.4437 1.4131-3.5022 2.3003-5.8027 2.3003-2.3018 0-4.3603-0.88712-5.8039-2.3003-1.4177-1.3872-2.2229-3.2601-2.1116-5.2759z" fill="url(#radialGradient3690-2)" fill-rule="evenodd"/>
<path d="m46.614 20.804c-0.58419 8.17e-4 -1.2241 0.17073-1.6233 0.44997-0.40433 0.28172-0.48398 0.5421-0.49602 0.67496-0.01204 0.13286-0.02221 0.25412 0.27056 0.49497 0.02741 0.02266 0.06431 0.02062 0.09018 0.045 0.1793 0.14547 8.2519 6.7046 8.2519 6.7046 0.53918 0.43786 0.72782 1.1459 0.49602 1.7999-0.23179 0.654-0.838 0.53773-1.5331 0.53997-8.1299 0.07363-25.432 0.045-25.432 0.045-1.3751 9.53e-4 -3.3765 0.75564-3.4721 2.2949-0.09172 1.4758 1.3345 2.0699 2.2997 2.0699 0-1e-6 12.716 0 12.716 0 0.70469-8.84e-4 1.3508 0.32438 1.5782 0.98994 0.22742 0.66557-0.0278 0.74101-0.5862 1.1699l-22.907 17.594c-2e-3 2e-3 -0.04305-2e-3 -0.04509 0-0.09241 0.07026-0.07825 0.0702-0.04509 0.045-0.79894 0.61141-1.3114 1.4457-1.4881 2.1599-0.17669 0.71417-0.06726 1.2328 0.27056 1.6649 0.69093 0.88326 2.565 1.0869 4.1936-0.22499 0 1e-6 12.491-10.214 12.491-10.214 0.52228-0.42586 1.2596-0.50748 1.8488-0.17999 0.58923 0.32749 0.89952 0.99759 0.81167 1.6649 0-1e-6 -0.14387 1.3732-0.13528 1.9349 0.13705 1.8744 0.65167 3.6312 1.4271 5.2762 3.7854 6.6155 13.844-17.76 37.533-15.401-1.2234-2.142-2.9382-4.0979-5.0955-5.8496-6.4881-5.2684-13.327-10.203-19.976-15.299-0.01034-7e-3 -0.03493-0.03772-0.04509-0.045-0.30381-0.2321-0.81478-0.40578-1.3979-0.40498z" fill="url(#linearGradient3737-0)" fill-rule="evenodd" opacity=".52"/>
</g>
<path d="m17.869-9.9361c-3.1166 0-5.668 2.5395-5.668 5.646v69.278c0 3.1065 2.5513 5.646 5.668 5.646h76.792c3.1166 0 5.668-2.5395 5.668-5.646v-69.278c0-3.1065-2.5513-5.646-5.668-5.646h-76.792zm0 2.3194h76.792c1.8881 0 3.352 1.4801 3.352 3.3266v69.278c0 1.8465-1.4639 3.3266-3.352 3.3266h-76.792c-1.8881 0-3.352-1.4801-3.352-3.3266v-69.278c0-1.8465 1.4639-3.3266 3.352-3.3266z" color="#000000" fill="#241f1f" fill-opacity=".63265" style="block-progression:tb;text-indent:0;text-transform:none"/>
<path d="m9.544 67.178v6c0 3.6801 2.9761 6.6562 6.6562 6.6562h79.688c3.6801 0 6.6563-2.9761 6.6563-6.6562v-6c0 3.6801-2.9761 6.6562-6.6563 6.6562h-79.688c-3.6801 0-6.6562-2.9761-6.6562-6.6562z" fill="url(#linearGradient7460)" opacity=".65818"/>
<rect x="13.419" y="65.584" width="84.25" height="4.25" rx="0" ry="4.25" fill="url(#radialGradient7462)" opacity=".55"/>
<rect transform="rotate(90)" x="-9.9156" y="-98.669" width="76.75" height="4.25" rx="0" ry="4.25" fill="url(#radialGradient7464)" opacity=".55"/>
<path d="m17.816-8.0221c-1.9934 0-3.6045 1.6493-3.6088 3.6845l-0.14822 69.961c1.9137 2.5211 1.6653 2.4108 4.8515 2.6791 1.8042-14.861 36.499-73.336 77.418-73.336 0.48808 0 0.96327 0.01986 1.4492 0.02901-0.30286-1.718-1.751-3.0172-3.5236-3.0172z" fill="#fff" opacity=".3"/>
<rect transform="matrix(.9093 0 0 .92838 12.389 19.829)" x="2" y="-30" width="92" height="92" rx="3.957" ry="3.957" clip-path="url(#clipPath4156-4)" fill="url(#linearGradient7466)"/>
</g>
</g>
</g>
</svg>
