<?xml version="1.0" encoding="UTF-8"?>
<svg version="1.1" viewBox="0 0 96 96" xmlns="http://www.w3.org/2000/svg" xmlns:cc="http://creativecommons.org/ns#" xmlns:dc="http://purl.org/dc/elements/1.1/" xmlns:rdf="http://www.w3.org/1999/02/22-rdf-syntax-ns#" xmlns:xlink="http://www.w3.org/1999/xlink">
<title>Part of Lila HD icon Theme</title>
<metadata>
<rdf:RDF>
<cc:Work rdf:about="">
<dc:format>image/svg+xml</dc:format>
<dc:type rdf:resource="http://purl.org/dc/dcmitype/StillImage"/>
<dc:title>Part of Lila HD icon Theme</dc:title>
<dc:date>2017</dc:date>
<dc:creator>
<cc:Agent>
<dc:title>Cristian Pozzessere "ilnanny"</dc:title>
</cc:Agent>
</dc:creator>
<dc:subject>
<rdf:Bag>
<rdf:li>All</rdf:li>
</rdf:Bag>
</dc:subject>
<dc:description>a icon theme for gnu linux o.s.</dc:description>
</cc:Work>
</rdf:RDF>
</metadata>
<defs>
<linearGradient id="linearGradient3737">
<stop stop-color="#fff" offset="0"/>
<stop stop-color="#fff" stop-opacity="0" offset="1"/>
</linearGradient>
<linearGradient id="linearGradient4740" x1="45.448" x2="45.448" y1="92.54" y2="7.0165" gradientTransform="scale(1.0059 .99417)" gradientUnits="userSpaceOnUse" xlink:href="#ButtonShadow"/>
<linearGradient id="ButtonShadow" x1="45.448" x2="45.448" y1="92.54" y2="7.0165" gradientTransform="scale(1.0059 .99417)" gradientUnits="userSpaceOnUse">
<stop offset="0"/>
<stop stop-opacity=".58824" offset="1"/>
</linearGradient>
<filter id="filter3174-3-13" color-interpolation-filters="sRGB">
<feGaussianBlur stdDeviation="1.71"/>
</filter>
<filter id="filter3174-53" color-interpolation-filters="sRGB">
<feGaussianBlur stdDeviation="1.71"/>
</filter>
<filter id="filter3174" color-interpolation-filters="sRGB">
<feGaussianBlur stdDeviation="1.71"/>
</filter>
<linearGradient id="linearGradient4071" x1="6" x2="90" y1="47" y2="47" gradientTransform="matrix(1.1071 0 0 1.1071 2.9011 -18.701)" gradientUnits="userSpaceOnUse">
<stop stop-color="#b2babc" offset="0"/>
<stop stop-color="#fff" offset=".25"/>
<stop stop-color="#96a1a4" offset=".5"/>
<stop stop-color="#fbf9f9" offset=".75"/>
<stop stop-color="#b2b9bc" offset="1"/>
</linearGradient>
<linearGradient id="linearGradient4129" x1="1.5" x2="94.5" y1="88.172" y2="88.172" gradientTransform="translate(8.044 -14.666)" gradientUnits="userSpaceOnUse">
<stop offset="0"/>
<stop stop-opacity=".58824" offset=".1"/>
<stop stop-opacity=".58824" offset=".9"/>
<stop offset="1"/>
</linearGradient>
<radialGradient id="radialGradient7462" cx="13.948" cy="44.893" r="43.199" gradientTransform="matrix(.97513 0 0 .049191 41.943 65.501)" gradientUnits="userSpaceOnUse" xlink:href="#linearGradient3737"/>
<radialGradient id="radialGradient7464" cx="13.948" cy="44.893" r="43.199" gradientTransform="matrix(.88833 0 0 .049191 16.879 -98.212)" gradientUnits="userSpaceOnUse" xlink:href="#linearGradient3737"/>
<linearGradient id="linearGradient4767" x1="2.7714" x2="50.528" y1="-28.642" y2="14.514" gradientUnits="userSpaceOnUse" xlink:href="#linearGradient3737"/>
<clipPath id="clipPath4156-4-1-7">
<path d="m27.046-55.695-14.214 13.321h0.06127l15.653 21.771 10.231-10.546c-0.2169-1.1522-11.311-23.67-11.732-24.546zm-17.399 16.313-14.888 14.062 21.229 17.515 10.385-10.577zm31.491 12.951-9.7413 9.7136 8.9448 12.458 7.7808-7.555zm-49.84 4.3788-13.754 12.982 26.283 13.846 0.06127-0.0617-0.12253-0.0617 9.8332-10.053-22.301-16.652zm38.015 7.4008-9.8025 9.7753 11.579 9.5594 7.6276-7.4008-8.6691-11.009zm20.187 5.674-7.3825 7.2158 6.1878 8.5418 5.8202-6.1365zm-32.195 6.3215-9.5575 9.4977 13.662 7.185 7.9339-7.6784zm23.312 2.3744-7.1068 6.9383 8.3628 6.9074 5.3608-5.674-0.06127-0.0925-0.0919 0.12335-6.4635-8.2026zm-8.7304 8.5418-7.5051 7.3392 10.354 5.4581c1.3975-1.321 5.6751-6.1229 5.8509-6.3215z" fill="#fff" opacity=".6"/>
</clipPath>
</defs>
<g transform="translate(0 -6)">
<g transform="translate(-1e-6,32)">
<g transform="translate(-8.044 -17.334)">
<g transform="translate(251.29 -104.9)">
<g display="none">
<rect x="5" y="7" width="86" height="85" rx="6" ry="6" fill="url(#linearGradient4740)" filter="url(#filter3174-3-13)" opacity=".9"/>
</g>
</g>
<g transform="translate(0 6)">
<path d="m97.187-14.666h-82.286c-3.7988 0-6.8571 3.0583-6.8571 6.8571v82.286c0 3.7989 3.0583 6.8571 6.8571 6.8571h82.286c3.7989 0 6.8571-3.0583 6.8571-6.8571v-82.286c0-3.7989-3.0583-6.8571-6.8571-6.8571z" opacity=".15"/>
<path d="m96.544-13.916h-81c-3.7395 0-6.75 3.0105-6.75 6.75v81c0 3.7395 3.0105 6.75 6.75 6.75h81c3.7395 0 6.75-3.0105 6.75-6.75v-81c0-3.7395-3.0105-6.75-6.75-6.75z" opacity=".15"/>
<path d="m95.901-13.166h-79.714c-3.6801 0-6.6429 2.9627-6.6429 6.6429v79.714c0 3.6801 2.9627 6.6429 6.6429 6.6429h79.714c3.6801 0 6.6429-2.9627 6.6429-6.6429v-79.714c0-3.6801-2.9627-6.6429-6.6429-6.6429z" fill="url(#linearGradient4071)"/>
<path d="m19.285-8.2784c-2.8565 0-5.1241 2.2884-5.1241 5.171v68.58c1.0972 1.6845 2.9688 2.8117 5.1241 2.8117h73.787c2.1553 0 4.0269-1.1272 5.1241-2.8117v-68.58c0-2.8826-2.2676-5.171-5.1241-5.171z" fill="#b7aef5" opacity=".96"/>
<path d="m17.869-9.9361c-3.1166 0-5.668 2.5395-5.668 5.646v69.278c0 3.1065 2.5513 5.646 5.668 5.646h76.792c3.1166 0 5.668-2.5395 5.668-5.646v-69.278c0-3.1065-2.5513-5.646-5.668-5.646zm0 2.3194h76.792c1.8881 0 3.352 1.4801 3.352 3.3266v69.278c0 1.8465-1.4639 3.3266-3.352 3.3266h-76.792c-1.8881 0-3.352-1.4801-3.352-3.3266v-69.278c0-1.8465 1.4639-3.3266 3.352-3.3266z" color="#000000" fill="#202223" fill-opacity=".93689" style="text-decoration-line:none;text-indent:0;text-transform:none"/>
<path d="m9.544 67.178v6c0 3.6801 2.9761 6.6562 6.6562 6.6562h79.688c3.6801 0 6.6563-2.9761 6.6563-6.6562v-6c0 3.6801-2.9761 6.6562-6.6563 6.6562h-79.688c-3.6801 0-6.6562-2.9761-6.6562-6.6562z" fill="url(#linearGradient4129)" opacity=".65818"/>
<rect x="13.419" y="65.584" width="84.25" height="4.25" rx="0" ry="4.25" fill="url(#radialGradient7462)" opacity=".55"/>
<rect transform="rotate(90)" x="-9.1056" y="-98.129" width="76.75" height="4.25" rx="0" ry="4.25" fill="url(#radialGradient7464)" opacity=".669"/>
<g transform="matrix(2.4018 0 0 2.4018 -2.7971 -140.89)">
<path d="m15.375 60.584c-1.688-0.052-4.375 2.559-4.375 2.559s2.784 3.641 4.787 3.879c0.681 0.081 1.517-0.199 2.326-0.59l-1.594 4.775s-2.185 4.226-1.879 6.441c0.091 0.661 0.532 1.468 1.029 2.205 1.01 3.237 4.794 5.646 9.32 5.646 3.81 0 7.09-1.709 8.639-4.18 0.732-0.87 1.985-2.49 2.148-3.672 0.306-2.215-1.877-6.441-1.877-6.441l-1.518-4.551c0.647 0.264 1.288 0.429 1.83 0.365 2-0.238 4.787-3.879 4.787-3.879s-2.687-2.611-4.375-2.559c-1.636 0.051-3.817 1.944-4.973 3.064-1.077-0.423-2.536-0.892-4.408-0.889-2.045 3e-3 -3.682 0.541-4.775 1.01-1.12-1.1-3.403-3.129-5.094-3.182z" opacity=".1"/>
<g transform="matrix(.89241 0 0 .89241 2.5718 51.661)">
<path d="m39.699 11.746s-3.01-2.926-4.902-2.867c-2.598 0.081-6.474 4.347-6.474 4.347s3.767 3.133 6.01 2.867c2.245-0.266 5.364-4.347 5.364-4.347z" fill="#1a1a1a" fill-rule="evenodd"/>
<path d="m33.663 10.951c0.549-0.121 1.125 0.133 1.656 0.316 0.867 0.299 2.445 1.261 2.445 1.261l-0.042 0.108c-0.926 1.047-2.534 2.657-3.823 2.81-1.248 0.148-3.034-0.928-4.136-1.701 0 0 2.337-2.451 3.899-2.795z" fill="#d7a2a2" fill-rule="evenodd"/>
<path d="m24.21 11.311v6e-3c-4.76 0.171-7.293 2.248-7.293 2.248l-2.406 7.219s-2.449 4.735-2.105 7.217c0.259 1.874 3.01 4.812 3.01 4.812h17.67s2.747-2.939 3.01-4.813c0.343-2.482-2.104-7.217-2.104-7.217l-2.406-7.219s-2.533-2.077-7.293-2.248v-6e-3c-0.014 0-0.025 3e-3 -0.039 4e-3 -0.013 0-0.024-4e-3 -0.037-4e-3z" fill="#f9f9f9" fill-rule="evenodd"/>
<path d="m8.324 11.746s3.01-2.926 4.902-2.867c2.598 0.081 6.474 4.347 6.474 4.347s-3.767 3.133-6.01 2.867c-2.245-0.266-5.364-4.347-5.364-4.347z" fill="#1a1a1a" fill-rule="evenodd"/>
<path d="m14.425 11.04c-0.549-0.121-1.125 0.133-1.656 0.316-0.867 0.299-2.445 1.261-2.445 1.261l0.042 0.108c0.926 1.047 2.534 2.657 3.823 2.81 1.248 0.148 3.034-0.928 4.136-1.701 0 0-2.337-2.451-3.899-2.795z" fill="#d7a2a2" fill-rule="evenodd"/>
<path d="m24.21 11.311v6e-3c-4.76 0.171-7.293 2.248-7.293 2.248l-2.406 7.219s-0.359 0.751-0.766 1.697c0 0 8.775 6.428 12.02 3.763 2.774-2.279-0.819-7.133-1.162-10.707-0.135-1.406-0.352-4.223-0.352-4.223-0.014 0-0.029-3e-3 -0.041-4e-3z" fill="#1a1a1a" fill-rule="evenodd"/>
<path d="m32.902 17.535s-2.038 0.095-2.66 0.777c-1.417 1.555-1.665 4.144-1.201 6.195 0.389 1.72 3.145 4.256 3.145 4.256l2.248 2.414c0.737-0.982 1.521-2.215 1.654-3.178 0.343-2.482-2.104-7.217-2.104-7.217" fill="#1a1a1a" fill-rule="evenodd"/>
<g transform="matrix(.54461 0 0 .54461 10.751 8.4753)">
<ellipse transform="rotate(30.3)" cx="25.19" cy="8" rx="7.177" ry="10.253" fill="#1a1a1a"/>
<ellipse transform="matrix(-.8634 .50452 .50452 .8634 0 0)" cx="-16.819" cy="32.551" rx="7.177" ry="10.253" fill="#1a1a1a"/>
<ellipse transform="rotate(30.3)" cx="25.19" cy="8" rx="6.668" ry="9.526" fill="#f9f9f9"/>
<ellipse transform="matrix(-.8634 .50452 .50452 .8634 0 0)" cx="-16.819" cy="32.551" rx="6.668" ry="9.526" fill="#f9f9f9"/>
<path d="m24.76 18.19a2.5 2.5 0 0 1-2.5 2.5 2.5 2.5 0 0 1-2.5-2.5 2.5 2.5 0 0 1 2.5-2.5 2.5 2.5 0 0 1 2.5 2.5z" fill="#1a1a1a"/>
<path d="m31.488 18.09a4 4 0 0 1-4 4 4 4 0 0 1-4-4 4 4 0 0 1 4-4 4 4 0 0 1 4 4z" fill="#1a1a1a"/>
</g>
<g transform="translate(-1.0462 .18497)">
<path d="m35.796 28.361c0 4.558-4.813 8.253-10.75 8.253s-10.75-3.695-10.75-8.253c0-2.279 1.268-4.43 3.403-5.497 2.134-1.067 4.785 0.799 7.347 0.799s5.467-1.867 7.601-0.799c2.134 1.067 3.149 3.218 3.149 5.497z" fill="#d7a2a2"/>
<circle cx="20.01" cy="27.07" r="2.25" fill="#1a1a1a"/>
<circle cx="29.672" cy="27.07" r="2.25" fill="#1a1a1a"/>
</g>
</g>
</g>
<rect transform="matrix(1.0692 0 0 1.0477 12.339 23.813)" x="2" y="-30" width="75.966" height="69.024" rx="3.957" ry="3.957" clip-path="url(#clipPath4156-4-1-7)" fill="url(#linearGradient4767)" opacity=".65"/>
</g>
</g>
</g>
<g display="none">
<rect x="5" y="7" width="86" height="85" rx="6" ry="6" fill="url(#linearGradient4740)" filter="url(#filter3174-53)" opacity=".9"/>
</g>
<g display="none">
<rect x="5" y="7" width="86" height="85" rx="6" ry="6" fill="url(#linearGradient4740)" filter="url(#filter3174)" opacity=".9"/>
</g>
</g>
<g transform="translate(0 42)">
<!-- color: #eeeeee --></g>
</svg>
