<?xml version="1.0" encoding="UTF-8"?>
<!-- Created with Inkscape (http://www.inkscape.org/) -->
<svg version="1.1" viewBox="0 0 96 96" xmlns="http://www.w3.org/2000/svg" xmlns:cc="http://creativecommons.org/ns#" xmlns:dc="http://purl.org/dc/elements/1.1/" xmlns:rdf="http://www.w3.org/1999/02/22-rdf-syntax-ns#" xmlns:xlink="http://www.w3.org/1999/xlink">
<title>Lila-HD-Icon-Theme</title>
<defs>
<linearGradient id="linearGradient3737">
<stop stop-color="#fff" offset="0"/>
<stop stop-color="#fff" stop-opacity="0" offset="1"/>
</linearGradient>
<linearGradient id="linearGradient4071-5" x1="6" x2="90" y1="47" y2="47" gradientTransform="matrix(1.1071 0 0 1.1071 -4.9939 -3.6207)" gradientUnits="userSpaceOnUse">
<stop stop-color="#b2babc" offset="0"/>
<stop stop-color="#fff" offset=".25"/>
<stop stop-color="#96a1a4" offset=".5"/>
<stop stop-color="#fbf9f9" offset=".75"/>
<stop stop-color="#b2b9bc" offset="1"/>
</linearGradient>
<linearGradient id="linearGradient4129-1" x1="1.5" x2="94.5" y1="88.172" y2="88.172" gradientTransform="translate(.14895 .41503)" gradientUnits="userSpaceOnUse">
<stop offset="0"/>
<stop stop-opacity=".58824" offset=".1"/>
<stop stop-opacity=".58824" offset=".9"/>
<stop offset="1"/>
</linearGradient>
<radialGradient id="radialGradient7462-3" cx="13.948" cy="44.893" r="43.199" gradientTransform="matrix(.97513 0 0 .049191 34.048 80.582)" gradientUnits="userSpaceOnUse" xlink:href="#linearGradient3737"/>
<radialGradient id="radialGradient7464-6" cx="13.948" cy="44.893" r="43.199" gradientTransform="matrix(.88833 0 0 .049191 31.96 -90.317)" gradientUnits="userSpaceOnUse" xlink:href="#linearGradient3737"/>
<linearGradient id="linearGradient4767-2" x1="2.7714" x2="50.528" y1="-28.642" y2="14.514" gradientUnits="userSpaceOnUse" xlink:href="#linearGradient3737"/>
<clipPath id="clipPath4156-4-1-6">
<path d="m27.046-55.695-14.214 13.321h0.06127l15.653 21.771 10.231-10.546c-0.2169-1.1522-11.311-23.67-11.732-24.546zm-17.399 16.313-14.888 14.062 21.229 17.515 10.385-10.577zm31.491 12.951-9.7413 9.7136 8.9448 12.458 7.7808-7.555zm-49.84 4.3788-13.754 12.982 26.283 13.846 0.06127-0.0617-0.12253-0.0617 9.8332-10.053-22.301-16.652zm38.015 7.4008-9.8025 9.7753 11.579 9.5594 7.6276-7.4008-8.6691-11.009zm20.187 5.674-7.3825 7.2158 6.1878 8.5418 5.8202-6.1365zm-32.195 6.3215-9.5575 9.4977 13.662 7.185 7.9339-7.6784zm23.312 2.3744-7.1068 6.9383 8.3628 6.9074 5.3608-5.674-0.06127-0.0925-0.0919 0.12335-6.4635-8.2026zm-8.7304 8.5418-7.5051 7.3392 10.354 5.4581c1.3975-1.321 5.6751-6.1229 5.8509-6.3215z" fill="#fff" opacity=".6"/>
</clipPath>
</defs>
<metadata>
<rdf:RDF>
<cc:Work rdf:about="">
<dc:format>image/svg+xml</dc:format>
<dc:type rdf:resource="http://purl.org/dc/dcmitype/StillImage"/>
<dc:title>Lila-HD-Icon-Theme</dc:title>
<dc:date>2015-2019</dc:date>
<dc:creator>
<cc:Agent>
<dc:title>Cristian Pozzessere  &lt; ilnanny &gt;</dc:title>
</cc:Agent>
</dc:creator>
<dc:subject>
<rdf:Bag>
<rdf:li>ilnanny</rdf:li>
<rdf:li>lila_hd</rdf:li>
<rdf:li>lila-hd</rdf:li>
<rdf:li>lila hd icon theme</rdf:li>
<rdf:li>Lila-HD-Icon-Theme lila hd icon lila icon</rdf:li>
</rdf:Bag>
</dc:subject>
<dc:description>Playing with Inkscape on Gnu/Linux O. S.</dc:description>
<dc:contributor>
<cc:Agent>
<dc:title>In the night, alone like a dog.</dc:title>
</cc:Agent>
</dc:contributor>
<cc:license rdf:resource="http://creativecommons.org/licenses/by-sa/4.0/"/>
</cc:Work>
<cc:License rdf:about="http://creativecommons.org/licenses/by-sa/4.0/">
<cc:permits rdf:resource="http://creativecommons.org/ns#Reproduction"/>
<cc:permits rdf:resource="http://creativecommons.org/ns#Distribution"/>
<cc:requires rdf:resource="http://creativecommons.org/ns#Notice"/>
<cc:requires rdf:resource="http://creativecommons.org/ns#Attribution"/>
<cc:permits rdf:resource="http://creativecommons.org/ns#DerivativeWorks"/>
<cc:requires rdf:resource="http://creativecommons.org/ns#ShareAlike"/>
</cc:License>
</rdf:RDF>
</metadata>
<g transform="translate(0 -1026.5)">
<g transform="translate(-.14896 1026.1)">
<g transform="translate(.25 -.25003)">
<g transform="translate(-.10105 -1025.9)">
<g transform="translate(-.14896 1026.1)">
<path d="m89.292 0.41503h-82.286c-3.7988 0-6.8571 3.0583-6.8571 6.8571v82.286c0 3.7989 3.0583 6.8571 6.8571 6.8571h82.286c3.7989 0 6.8571-3.0583 6.8571-6.8571v-82.286c0-3.7989-3.0583-6.8571-6.8571-6.8571z" opacity=".15"/>
<path d="m88.649 1.165h-81c-3.7395 0-6.75 3.0105-6.75 6.75v81c0 3.7395 3.0105 6.75 6.75 6.75h81c3.7395 0 6.75-3.0105 6.75-6.75v-81c0-3.7395-3.0105-6.75-6.75-6.75z" opacity=".15"/>
<path d="m88.006 1.915h-79.714c-3.6801 0-6.6429 2.9627-6.6429 6.6429v79.714c0 3.6801 2.9627 6.6429 6.6429 6.6429h79.714c3.6801 0 6.6429-2.9627 6.6429-6.6429v-79.714c0-3.6801-2.9627-6.6429-6.6429-6.6429z" fill="url(#linearGradient4071-5)"/>
<path d="m11.39 6.8022c-2.8565 0-5.1241 2.2884-5.1241 5.171v68.58c1.0972 1.6845 2.9688 2.8117 5.1241 2.8117h73.787c2.1553 0 4.0269-1.1272 5.1241-2.8117v-68.58c0-2.8826-2.2676-5.171-5.1241-5.171z" fill="#e8e8e8" opacity=".96"/>
<path d="m9.974 5.1445c-3.1166 0-5.668 2.5395-5.668 5.646v69.278c0 3.1065 2.5513 5.646 5.668 5.646h76.792c3.1166 0 5.668-2.5395 5.668-5.646v-69.278c0-3.1065-2.5513-5.646-5.668-5.646zm0 2.3194h76.792c1.8881 0 3.352 1.4801 3.352 3.3266v69.278c0 1.8465-1.4639 3.3266-3.352 3.3266h-76.792c-1.8881 0-3.352-1.4801-3.352-3.3266v-69.278c0-1.8465 1.4639-3.3266 3.352-3.3266z" color="#000000" fill="#202223" fill-opacity=".93689" style="text-decoration-line:none;text-indent:0;text-transform:none"/>
<path d="m1.649 82.259v6c0 3.6801 2.9761 6.6562 6.6562 6.6562h79.687c3.6801 0 6.6563-2.9761 6.6563-6.6562v-6c0 3.6801-2.9761 6.6562-6.6563 6.6562h-79.687c-3.6801 0-6.6562-2.9761-6.6562-6.6562z" fill="url(#linearGradient4129-1)" opacity=".65818"/>
<rect x="5.524" y="80.665" width="84.25" height="4.25" rx="0" ry="4.25" fill="url(#radialGradient7462-3)" opacity=".55"/>
<rect transform="rotate(90)" x="5.975" y="-90.234" width="76.75" height="4.25" rx="0" ry="4.25" fill="url(#radialGradient7464-6)" opacity=".669"/>
<path d="m46.65 7.8105c-15.481 0.48713-29.785 11.674-34.176 26.485-4.2947 13.445 0.077888 29.083 10.68 38.393 11.165 10.589 29.166 12.83 42.592 5.3198 13.261-7.014 21.413-22.49 19.442-37.398-1.6402-15.966-14.879-29.674-30.656-32.254-2.5972-0.46233-5.2453-0.67769-7.8824-0.54557zm0.07227 1.3984c15.017-0.75733 29.766 9.0351 35.009 23.107 5.1362 13.075 1.5293 28.897-8.6457 38.553-9.8459 9.9103-25.72 12.973-38.558 7.4672-13.315-5.4198-22.681-19.34-22.276-33.766 0.045778-15.119 10.801-29.343 25.238-33.726 2.9895-0.94352 6.1034-1.476 9.2326-1.6351zm2.0391 3.0215c-14.958-0.53216-29.189 10.58-32.567 25.112-3.4802 13.271 2.6533 28.188 14.245 35.443 11.191 7.5022 27.016 6.8882 37.581-1.4735 10.429-7.8162 15.465-22.09 11.935-34.684-3.5263-13.839-16.873-24.369-31.194-24.397zm-0.02734 1.4023c14.825-0.02775 28.523 11.903 30.544 26.585 2.3794 13.761-5.7328 28.364-18.562 33.807-11.796 5.3818-26.672 2.2557-35.394-7.3114-8.6844-8.9074-11.217-23.167-5.8912-34.449 5.0079-11.246 16.938-19.021 29.303-18.632zm11.898 8.7422c-5.2871-0.97104-3.6449 5.4308-3.9191 8.5942 0.09278 4.0987-0.29864 8.2519 0.17303 12.314 1.5124 2.3945 4.8842 1.0193 7.3103 1.3924 3.2348 0.46092 7.5247 0.10069 6.1663-4.3357-0.16077-2.0313-2.339-1.2249-3.6914-1.4136-0.98674-0.3089-3.3083 0.69581-2.9961-0.89177-0.83498-2.845 1.8311-1.8309 3.7207-2.3118 1.5873-1.1169 1.0228-4.0816 0.02149-5.3242-1.3307-0.64497-4.4266 0.80424-3.7422-1.6136 0.47806-1.2897 3.4609-0.08598 4.7344-0.63053 3.3049-0.12685 2.4232-7.2172-1.3731-5.7511-2.1346-0.02291-4.2695-0.03851-6.4043-0.0282zm-28.443 0.03516c-2.0377 0.10497-6.2027-0.81068-6.1035 2.2839 0.03723 6.1108-0.09323 12.227 0.09375 18.333 2.1831 3.0257 7.0753 0.95328 10.405 1.5304 4.2501 0.10881 5.7948-4.8373 6.0776-8.2822-0.0075-4.3581 0.75737-9.9102-3.3036-12.816-2.1151-1.4783-4.7634-0.93565-7.1697-1.0496zm17.504 0c-3.1398-0.30003-8.1059-0.40517-6.8881 4.2435-0.02278 5.4976-0.0082 10.995-0.01231 16.493 1.3198 2.132 4.0679 1.2137 6.1672 1.4485 3.0275 0.07422 8.81 1.0992 7.4507-3.8522-0.38671-3.0727-4.1579-1.6046-6.3479-1.9243-0.42818-0.24579-0.78818-3.0917 0.31632-2.8718 1.3026-0.18462 3 0.49731 3.7415-0.91402 0.43757-1.1405 0.05706-2.5928 0.18579-3.851-0.70667-1.2584-2.038-1.004-3.2715-0.98828-1.5852 0.85553-1.7169-1.773-0.86686-1.9727 2.1764-0.29129 6.0483 1.1412 6.1957-2.0706 1.0202-4.905-3.6703-3.5536-6.6706-3.74zm10.947 1.3652c2.5411 0.43793 6.6157-0.92131 8.2698 0.72562 1.1045 3.411-2.5083 2.0776-4.6107 2.3488-1.6436-0.30886-2.446 0.20993-2.0243 1.9329 0.21418 1.0575-0.69187 3.206 1.0551 2.7705 1.9523-0.02236 4.4228-0.35643 3.5561 2.4201-0.56251 1.4226-3.1442 0.28723-4.4998 0.6337-0.25997 1.6617-0.03604 3.8054-0.1115 5.6508 2.2026 0.10608 4.6227-0.06596 6.6934 0.20704 1.4293 4.4181-3.7404 2.3739-6.1717 2.8084-3.7102 0.94322-5.8008-1.0215-4.7219-4.8003 0.10975-4.7827-0.14077-9.5927 0.25683-14.358 0.60674-0.5729 1.5709-0.2301 2.3086-0.33996zm-10.947 0.0332c2.2883 0.17059 6.8675-1.1892 5.1622 2.957-2.1665 0.10945-4.3402 0.03465-6.5098 0.05664v4.7695c1.4782 0.06239 3.0581-0.1206 4.4766 0.08594-0.08686 0.82357 0.74906 3.0504-0.74455 2.8423-1.1702 0.1637-2.9153-0.24122-3.732 0.26919v5.4295c2.2008 0.03361 4.431-0.08529 6.6094 0.10547 1.5201 4.5869-3.9049 2.4932-6.4749 2.8631-1.8581 0.0075-5.0868 0.55462-4.2868-2.257 0.05095-5.5721-0.13135-11.159 0.125-16.719 1.2985-0.89637 3.7932-0.1422 5.375-0.40233zm-17.504 2e-3c3.6154-0.49408 8.3027 0.27988 8.8084 4.7072 0.41614 4.4787 1.0255 9.6433-1.7704 13.514-3.1541 2.2488-7.5908 0.72161-11.27 1.0776-1.1735-2.3968-0.07129-6.2718-0.47069-9.149-4e-6 -3.2127-1e-6 -6.4254-2e-6 -9.6381 0.48165-1.0785 3.3334-0.24752 4.7031-0.51177zm-0.50195 3.1113v13.496c1.5935-0.15062 3.9133 0.55416 4.7034-1.0966 1.5837-3.1064 1.0554-7.0295 0.46836-10.357-0.73933-2.4814-3.1989-2.0022-5.1718-2.0428zm1.4004 1.3984c4.0127-0.36086 2.5861 5.0316 2.8359 7.543 1.3496 2.2801-3.2895 4.8856-2.836 1.8877-1e-5 -3.1436 1.4e-5 -6.2871 4.2e-5 -9.4307zm15.174 17.736c-4.6935-1.3228-5.1028 3.7107-5.8585 6.9395-1.0484 4.0745-2.0738 8.1548-3.1103 12.232 0.0389-5.8573 0.12445-11.723-0.02994-17.577-1.3489-3.1257-8.2902-2.031-6.6888 2.2999-0.02884 4.0668 0.06219 8.1845-0.03122 12.228-0.24895-0.06233 0.44354-2.3897-0.66219-2.7539-3.5624-2.5196-7.0764 1.1065-5.7437 4.9143-0.9819 4.3453 3.9095 3.7533 6.6598 3.6385 2.0859 0.33606 5.4592-0.2455 6.4395-0.80663 0.27668 1.5049 2.1501 0.53646 3.2227 0.80859 1.4487-0.0367 3.407 0.47166 3.6992-1.543-0.54443-2.5269 2.5028-5.0979 3.8618-2.9512 0.34185 1.7819 0.63995 5.1764 3.2116 4.4941 2.969 0.57346 6.4374-0.52511 4.3048-4.1818-1.7586-5.5602-3.0181-11.306-5.177-16.722-0.83266-1.4558-2.7342-0.90289-4.0977-1.0196zm8.6875 2e-3c-2.9227-0.89637-4.9755 1.3282-2.7683 3.8426 1.3258 3.0069 2.9839 5.9323 4.1785 8.9662 0.07853 2.5154-0.15522 5.1248 0.11653 7.5821 1.1323 2.3288 5.0365 1.9778 6.6382 0.4566 0.36-2.3747 0.11067-4.994 0.23368-7.4628-0.0058-1.9487 1.4819-3.5446 2.1324-5.3382 0.98464-2.3572 2.5548-4.5787 3.0756-7.0706-1.672-1.4693-6.9505-2.0184-7.8231 0.87744-1.2204 4.9057-1.1534-2.7647-4.0754-1.8533-0.56939 2e-6 -1.1388 4e-6 -1.7082 6e-6zm-20.973 1.3984c3.9475-0.53844 1.0492 5.6133 1.9578 7.927-0.25798 3.6638 0.48208 7.6176-0.37964 11.128-3.255-0.04705-6.8258 0.43169-9.8945-0.26171-0.31663-2.5724-0.97247-7.8442 3.2559-5.8105-0.33676 1.853 1.6944 4.6645 3.0644 2.0701 0.06753-4.9853-0.17066-10.014 0.18946-14.967 0.59734-0.09737 1.2043-0.0766 1.8066-0.08594zm12.285 0c4.4306-1.1555 3.8566 4.6384 5.1758 7.3281 1.0169 3.9193 2.568 7.8343 3.2207 11.768-2.0062-0.1869-5.3155 1.0843-5.0376-2.2451-0.40905-1.2938-0.03578-3.4972-2.0513-2.8466-1.6646-0.08012-4.12-0.5258-4.0224 1.9393 9.77e-4 2.6171-1.3454 3.7102-3.7212 3.1797-2.0259 0.60095-1.0995-1.2631-0.82104-2.409 1.4454-5.5254 2.7028-11.119 4.3534-16.576 0.94757-0.20832 1.94-0.1058 2.9036-0.13776zm8.6875 0c2.6192-0.79803 3.3228 1.6872 3.9737 3.7573 2.8878 3.7224 1.9075-6.0135 6.0049-3.7573 4.3066-0.76882-0.39027 4.088-0.75432 6.1368-0.83339 2.1285-2.574 4.0424-2.2333 6.4485-0.06727 2.0635 0.03374 4.1954-0.1374 6.2174-1.4207 0.71348-4.7487 0.80649-4.043-1.6749-0.11912-2.1961 0.24003-4.5006-0.18219-6.6279-1.6369-3.4817-3.3814-6.9151-4.9116-10.445 0.75882-0.06605 1.5225-0.04532 2.2832-0.05464zm-8.6309 4.9473c-1.1823 1.4005-3.072 6.7972 0.70407 5.964 1.9934 0.06412 0.63301-5.7003-0.70407-5.964zm0.10547 3.8281c0.70651 0.85065-0.73383 1.1069 0 0zm20.059 7.2402c-4.6852-1.0261-2.8398 6.9962 0.98029 4.0162 1.4329-1.1004 0.86852-3.7459-0.98029-4.0162z" color="#000000" color-rendering="auto" dominant-baseline="auto" fill="#c4c4c4" image-rendering="auto" opacity=".831" shape-rendering="auto" solid-color="#000000" style="font-feature-settings:normal;font-variant-alternates:normal;font-variant-caps:normal;font-variant-ligatures:normal;font-variant-numeric:normal;font-variant-position:normal;isolation:auto;mix-blend-mode:normal;shape-padding:0;text-decoration-color:#000000;text-decoration-line:none;text-decoration-style:solid;text-indent:0;text-orientation:mixed;text-transform:none;white-space:normal"/>
<path d="m45.724 81.689c-7.7271-0.64072-14.381-3.2491-20.339-7.9736-1.4961-1.1862-4.515-4.178-5.6451-5.5945-2.2306-2.7956-4.0325-5.8068-5.3984-9.0211-0.91694-2.1577-1.8686-5.4295-2.2742-7.8183-1.6238-9.5648 0.5895-19.257 6.2124-27.205 1.7015-2.405 4.6417-5.5645 6.7722-7.2773 6.3567-5.1103 13.573-7.875 21.635-8.2893 4.889-0.25122 10.587 0.7689 15.347 2.7475 10.356 4.3049 18.336 13.185 21.321 23.728 3.1078 10.976 0.96787 22.678-5.8243 31.848-7.0341 9.4971-17.946 15.007-29.517 14.905-1.041-0.0093-2.0711-0.03145-2.2893-0.04954zm6.1955-4.5519c9.1956-1.0743 17.49-6.1403 22.796-13.923 5.8993-8.6536 7.2449-19.294 3.6948-29.218-1.3992-3.9115-4.0129-8.0339-7.1362-11.256-4.5836-4.728-10.592-8.0055-16.935-9.2372-3.5668-0.69261-7.6279-0.76753-11.143-0.20555-12.067 1.9291-22.194 10.716-25.818 22.403-2.9802 9.6087-1.2679 19.888 4.6988 28.208 2.1436 2.9889 5.1594 5.8967 8.2799 7.9836 4.9389 3.303 10.088 5.0206 16.31 5.4409 0.96648 0.06528 3.9795-0.0471 5.2536-0.19594zm15.173-9.9815c-0.60499-0.30912-0.82414-0.64629-0.86919-1.3372-0.04645-0.71192 0.1789-1.1717 0.72877-1.4869 0.82076-0.47055 2.0243-0.19009 2.4393 0.56846 0.24753 0.45243 0.2048 1.3671-0.08233 1.7612-0.25868 0.35504-0.97872 0.71749-1.4254 0.71749-0.19504 0-0.55105-0.10039-0.79117-0.22308zm1.6935-0.32827c0.77162-0.68772 0.57494-2.0229-0.34999-2.3761-0.58482-0.22333-1.0587-0.13072-1.527 0.29844-0.33955 0.31117-0.36381 0.37209-0.36381 0.91356 0 0.61497 0.21376 1.024 0.67756 1.2963 0.3201 0.18792 1.2967 0.10538 1.5632-0.13215zm-1.551-0.26665c-0.02975-0.07727-0.04081-0.51597-0.02479-0.97494l0.02912-0.83449 0.40239-0.02944c0.56062-0.04118 0.91663 0.11566 0.99793 0.43963 0.05425 0.21611 0.01487 0.31346-0.2018 0.49992l-0.26919 0.23151 0.18835 0.27201c0.31898 0.46076 0.3402 0.51988 0.18652 0.51988-0.07984 0-0.26435-0.20338-0.41004-0.45196-0.33447-0.57078-0.59362-0.5701-0.60329 0.0031-0.0065 0.38739-0.19269 0.59331-0.29509 0.32645zm1.0949-1.2641c0-0.21497-0.04948-0.25196-0.37261-0.2787-0.39309-0.03251-0.55027 0.12521-0.43201 0.43346 0.04251 0.11074 0.16533 0.146 0.43201 0.12394 0.32313-0.02665 0.37261-0.06373 0.37261-0.2787zm-40.759 1.8271c-0.16871-0.08322-0.40294-0.32251-0.52053-0.53178-0.20471-0.36418-0.21382-0.49763-0.21382-3.1281 0-3.111 0.0251-3.2388 0.7266-3.7036 0.36558-0.24223 0.49515-0.26655 1.5838-0.2972 1.5197-0.04282 1.7675 0.0087 2.2511 0.46882l0.39591 0.37661v1.0609c0 0.99421 0.01518 1.0762 0.24335 1.3043 0.13385 0.13385 0.35898 0.24335 0.50026 0.24335 0.14129 0 0.36638-0.1095 0.50024-0.24335l0.24338-0.24338v-7.2899c0-6.4959 0.01766-7.3337 0.16099-7.6923 0.25621-0.64031 0.44762-0.69246 2.5359-0.69078 2.0213 0.0031 2.2084 0.04648 2.4835 0.59483 0.1613 0.32161 0.17336 0.98492 0.17351 9.5456 1.86e-4 8.9611-5e-3 9.2099-0.19538 9.5832-0.10754 0.21081-0.31433 0.47672-0.45955 0.59096-0.26002 0.20452-0.33841 0.20762-5.1833 0.20539-4.2071-0.0031-4.9636-0.02416-5.226-0.15359zm12.304-0.24044-0.17868-0.39625 2.3955-9.4442c1.4302-5.6385 2.4679-9.5441 2.575-9.6921 0.40573-0.56031 0.61274-0.59455 3.5961-0.59474 2.6867-1.86e-4 2.7429 4e-3 3.0736 0.22652 0.61066 0.41088 0.89419 1.1886 2.7728 7.606 0.98172 3.3537 2.1014 7.1684 2.4883 8.4772 0.78609 2.6597 0.94312 3.6675 0.626 4.0179-0.16759 0.18519-0.31337 0.19588-2.6716 0.19588h-2.4944l-0.25714-0.27266c-0.3302-0.35015-0.61559-1.2669-1.0109-3.2471l-0.31669-1.5864-1.8712-0.02695c-1.0292-0.01487-1.9049 0.0074-1.946 0.04957-0.06163 0.06308-0.7103 2.3094-1.1732 4.0628-0.06054 0.22928-0.22442 0.55275-0.36415 0.71882l-0.25407 0.30197h-4.8105zm9.5164-9.4442c-0.03037-0.1227-0.24899-1.1823-0.48595-2.3548-0.237-1.1724-0.45534-2.0648-0.48521-1.983-0.09906 0.27111-0.9623 4.2106-0.9614 4.3873 0 0.15365 0.11461 0.17351 0.99427 0.17351 0.98036 0 0.99263-0.0031 0.93828-0.22308zm10.444 9.6169c-0.14618-0.12242-0.38042-0.39613-0.52053-0.60821l-0.25469-0.38566v-7.5658l-2.6283-5.4959c-2.8197-5.8961-2.7946-5.8271-2.2222-6.1192 0.1715-0.08747 0.95418-0.12288 2.7401-0.12394h2.5001l0.3459 0.30373c0.28418 0.24951 0.47089 0.6224 1.0464 2.0899 0.85317 2.1753 1.0853 2.6531 1.1937 2.4575 0.04313-0.07783 0.41574-1.0217 0.82804-2.0974 0.86092-2.2463 0.98566-2.5115 1.2473-2.6516 0.11706-0.06265 1.2056-0.10209 2.8176-0.10209 2.8688 0 2.9385 0.01363 2.9385 0.57336 0 0.14395-1.1712 2.6728-2.6026 5.6196l-2.6026 5.3579-0.04957 4.082-0.04957 4.082-0.24787 0.26516c-0.47145 0.50429-0.65308 0.5438-2.4986 0.54324-1.6322 0-1.7281-0.01115-1.981-0.22308zm-11.632-23.173c-2.6068-0.0369-3.7291-0.08672-3.878-0.17212-0.1152-0.06606-0.34944-0.27954-0.52053-0.47439l-0.31102-0.35424v-9.2852c0-9.0493 5e-3 -9.2955 0.19619-9.6905 0.10788-0.2229 0.34212-0.49354 0.52053-0.60143 0.3121-0.18872 0.51873-0.19613 5.4844-0.19613 4.831 0 5.1777 0.01147 5.4367 0.18122 0.43737 0.2866 0.55774 0.71421 0.55508 1.9721-0.0031 1.3115-0.10547 1.8464-0.40031 2.0853-0.19346 0.15675-0.50535 0.17351-3.2272 0.17351h-3.013v3.371h3.9812l0.57965 0.57965v3.0857l-0.28911 0.32381-0.28911 0.32378-3.9826 0.06134v4.2518h2.9184c1.6148 0 3.0297 0.04232 3.1676 0.09472 0.53332 0.20279 0.60964 0.4919 0.57463 2.1769-0.01766 0.84465-0.07693 1.6198-0.13193 1.7225-0.19978 0.37332-0.68028 0.46891-2.2373 0.44511-0.80608-0.01239-3.1164-0.04579-5.1341-0.07436zm10.364-0.01363c-0.40462-0.16149-0.8853-0.57422-1.0583-0.9087-0.1486-0.28734-0.15811-1.1082-0.1094-9.4419 0.05843-10.005 0.02944-9.5591 0.65444-10.085 0.20985-0.17655 0.47833-0.28118 0.83148-0.32403 0.28685-0.03483 2.6408-0.04924 5.2311-0.03207 5.0496 0.03349 4.9859 0.02695 5.3292 0.55089 0.14119 0.21552 0.17326 0.48716 0.17224 1.459-0.0031 1.5437-0.09404 2.098-0.37658 2.2597-0.1551 0.08874-1.0801 0.13834-3.2411 0.17376l-3.024 0.04957v3.2719l1.983 0.0523c1.0906 0.02882 2.0627 0.08995 2.1601 0.13596 0.37881 0.17884 0.4673 0.57596 0.4673 2.0971v1.4525l-0.3371 0.3371c-0.38888 0.38888-0.27607 0.37199-2.5382 0.3803l-1.7351 0.0065v4.2634l6.3137 0.09914 0.1894 0.23408c0.21363 0.26398 0.22191 0.35585 0.19331 2.1455-0.02355 1.4677-0.09751 1.6692-0.6722 1.8288-0.49013 0.13611-10.091 0.13088-10.433-0.0056zm-31.035-0.1724c-0.18826-0.10098-0.43297-0.30504-0.54377-0.45345-0.19926-0.2669-0.20149-0.37469-0.20149-9.7142v-9.4443l0.27669-0.36276c0.15216-0.1995 0.37525-0.41912 0.49574-0.48803 0.1675-0.0958 1.2569-0.12508 4.6312-0.12446 3.8984 0 4.4871 0.02107 5.0566 0.17518 1.7461 0.47244 2.9358 1.4577 3.7013 3.0654 0.87517 1.8379 1.0564 3.0564 1.0572 7.1072 0 2.8375-0.01394 3.0838-0.25246 4.2613-0.70795 3.4964-1.9711 5.4389-3.9044 6.0043-0.45865 0.1341-1.2384 0.15746-5.2564 0.15746-4.4024 0-4.7408-0.01239-5.0602-0.18355zm7.6682-4.1171c0.67464-0.28189 1.1289-1.1179 1.3534-2.491 0.12663-0.77438 0.12338-5.5478-0.0043-6.4446-0.15579-1.0934-0.46792-1.9116-0.91365-2.3952-0.49119-0.53286-0.82002-0.62758-2.1811-0.62829h-1.0658v12.096h1.2425c0.83031 0 1.3508-0.04523 1.569-0.13639z" fill="#020000"/>
<rect transform="matrix(1.0692 0 0 1.0477 4.4442 38.894)" x="2" y="-30" width="75.966" height="69.024" rx="3.957" ry="3.957" clip-path="url(#clipPath4156-4-1-6)" fill="url(#linearGradient4767-2)" opacity=".65"/>
</g>
</g>
</g>
</g>
</g>
</svg>
