<?xml version="1.0" encoding="UTF-8"?>
<!-- Created with Inkscape (http://www.inkscape.org/) -->
<svg version="1.0" viewBox="0 0 96 96" xmlns="http://www.w3.org/2000/svg" xmlns:cc="http://creativecommons.org/ns#" xmlns:dc="http://purl.org/dc/elements/1.1/" xmlns:rdf="http://www.w3.org/1999/02/22-rdf-syntax-ns#" xmlns:xlink="http://www.w3.org/1999/xlink">
<defs>
<linearGradient id="ButtonShadow" x1="45.448" x2="45.448" y1="92.54" y2="7.0165" gradientTransform="scale(1.0059 .99417)" gradientUnits="userSpaceOnUse">
<stop offset="0"/>
<stop stop-opacity=".58824" offset="1"/>
</linearGradient>
<filter id="filter3174" color-interpolation-filters="sRGB">
<feGaussianBlur stdDeviation="1.71"/>
</filter>
<linearGradient id="linearGradient3837" x1="2.7714" x2="50.528" y1="-28.642" y2="14.514" gradientUnits="userSpaceOnUse">
<stop stop-color="#fff" offset="0"/>
<stop stop-color="#fff" stop-opacity="0" offset="1"/>
</linearGradient>
<radialGradient id="radialGradient3833" cx="13.948" cy="44.893" r="43.199" gradientTransform="matrix(.88833 0 0 .049191 16.069 -98.752)" gradientUnits="userSpaceOnUse" xlink:href="#linearGradient4133"/>
<radialGradient id="radialGradient3831" cx="13.948" cy="44.893" r="43.199" gradientTransform="matrix(.97513 0 0 .049191 41.943 65.501)" gradientUnits="userSpaceOnUse" xlink:href="#linearGradient4133"/>
<linearGradient id="linearGradient3829" x1="1.5" x2="94.5" y1="88.172" y2="88.172" gradientTransform="translate(8.044 -14.666)" gradientUnits="userSpaceOnUse">
<stop offset="0"/>
<stop stop-opacity=".58824" offset=".1"/>
<stop stop-opacity=".58824" offset=".9"/>
<stop offset="1"/>
</linearGradient>
<radialGradient id="radialGradient3827" cx="48" cy="-27" r="42" gradientTransform="matrix(-1.187 0 0 -.96877 113.02 -39.322)" gradientUnits="userSpaceOnUse">
<stop stop-color="#fff" offset="0"/>
<stop stop-color="#fff" offset=".8"/>
<stop stop-color="#fff" stop-opacity="0" offset="1"/>
</radialGradient>
<linearGradient id="linearGradient3825" x1="6" x2="90" y1="47" y2="47" gradientTransform="matrix(1.1071 0 0 1.1071 2.9011 -18.701)" gradientUnits="userSpaceOnUse">
<stop stop-color="#adb4c1" offset="0"/>
<stop stop-color="#fff" offset=".25"/>
<stop stop-color="#9095aa" offset=".5"/>
<stop stop-color="#fbf9f9" offset=".75"/>
<stop stop-color="#adb3c1" offset="1"/>
</linearGradient>
<filter id="filter3174-36" color-interpolation-filters="sRGB">
<feGaussianBlur stdDeviation="1.71"/>
</filter>
<filter id="filter3174-3" color-interpolation-filters="sRGB">
<feGaussianBlur stdDeviation="1.71"/>
</filter>
<linearGradient id="linearGradient4133">
<stop stop-color="#fff" offset="0"/>
<stop stop-color="#fff" stop-opacity="0" offset="1"/>
</linearGradient>
<clipPath id="clipPath4156-4">
<path d="m27.046-55.695-14.214 13.321h0.06127l15.653 21.771 10.231-10.546c-0.2169-1.1522-11.311-23.67-11.732-24.546zm-17.399 16.313-14.888 14.062 21.229 17.515 10.385-10.577-16.726-21zm31.491 12.951-9.7413 9.7136 8.9448 12.458 7.7808-7.555-6.9843-14.617zm-49.84 4.3788-13.754 12.982 26.283 13.846 0.06127-0.0617-0.12253-0.0617 9.8332-10.053-22.301-16.652zm38.015 7.4008-9.8025 9.7753 11.579 9.5594 7.6276-7.4008-8.6691-11.009-0.73519-0.9251zm20.187 5.674-7.3825 7.2158 6.1878 8.5418 5.8202-6.1365-4.6256-9.6211zm-32.195 6.3215-9.5575 9.4977 13.662 7.185 7.9339-7.6784-12.039-9.0043zm23.312 2.3744-7.1068 6.9383 8.3628 6.9074 5.3608-5.674-0.06127-0.0925-0.0919 0.12335-6.4635-8.2026zm-8.7304 8.5418-7.5051 7.3392 10.354 5.4581c1.3975-1.321 5.6751-6.1229 5.8509-6.3215l-8.6997-6.4757z" fill="#fff" opacity=".6"/>
</clipPath>
<filter id="filter3174-4" color-interpolation-filters="sRGB">
<feGaussianBlur stdDeviation="1.71"/>
</filter>
<radialGradient id="radialGradient3744-6" cx="99.944" cy="67.783" r="14.492" gradientTransform="matrix(.49739 .46629 -.30015 .28138 27.056 -35.874)" gradientUnits="userSpaceOnUse">
<stop stop-color="#fdb377" offset="0"/>
<stop stop-color="#fdb377" stop-opacity=".46875" offset=".82258"/>
<stop stop-color="#fdb377" stop-opacity="0" offset="1"/>
</radialGradient>
<linearGradient id="linearGradient2916-4" x1="28.275" x2="30.996" y1="31.705" y2="5.8127" gradientUnits="userSpaceOnUse" spreadMethod="reflect" xlink:href="#linearGradient3319-3"/>
<linearGradient id="linearGradient3319-3">
<stop stop-color="#fdb377" offset="0"/>
<stop stop-color="#fdb377" stop-opacity="0" offset="1"/>
</linearGradient>
<filter id="filter3795-7" x="-.12014" y="-.10544" width="1.2403" height="1.2109" color-interpolation-filters="sRGB">
<feGaussianBlur stdDeviation="2.2552138"/>
</filter>
<linearGradient id="linearGradient2918-2" x1="68.954" x2="66.271" y1="64.099" y2="89.626" gradientUnits="userSpaceOnUse" spreadMethod="reflect" xlink:href="#linearGradient3319-3"/>
<filter id="filter3790-1" x="-.09645" y="-.10544" width="1.1929" height="1.2109" color-interpolation-filters="sRGB">
<feGaussianBlur stdDeviation="2.2552138"/>
</filter>
</defs>
<metadata>
<rdf:RDF>
<cc:Work rdf:about="">
<dc:format>image/svg+xml</dc:format>
<dc:type rdf:resource="http://purl.org/dc/dcmitype/StillImage"/>
<dc:title/>
</cc:Work>
</rdf:RDF>
</metadata>
<g display="none">
<rect x="5" y="7" width="86" height="85" rx="6" ry="6" fill="url(#ButtonShadow)" filter="url(#filter3174)" opacity=".9"/>
</g>
<g transform="translate(-1e-6,32)">
<g transform="translate(-8.044 -17.334)">
<g transform="translate(251.29 -104.9)">
<g display="none">
<rect x="5" y="7" width="86" height="85" rx="6" ry="6" fill="url(#ButtonShadow)" filter="url(#filter3174-3)" opacity=".9"/>
</g>
</g>
<path d="m97.187-14.666h-82.286c-3.7988 0-6.8571 3.0583-6.8571 6.8571v82.286c0 3.7989 3.0583 6.8571 6.8571 6.8571h82.286c3.7989 0 6.8571-3.0583 6.8571-6.8571v-82.286c0-3.7989-3.0583-6.8571-6.8571-6.8571z" opacity=".15"/>
<path d="m96.544-13.916h-81c-3.7395 0-6.75 3.0105-6.75 6.75v81c0 3.7395 3.0105 6.75 6.75 6.75h81c3.7395 0 6.75-3.0105 6.75-6.75v-81c0-3.7395-3.0105-6.75-6.75-6.75z" opacity=".15"/>
<path d="m95.901-13.166h-79.714c-3.6801 0-6.6429 2.9627-6.6429 6.6429v79.714c0 3.6801 2.9627 6.6429 6.6429 6.6429h79.714c3.6801 0 6.6429-2.9627 6.6429-6.6429v-79.714c0-3.6801-2.9627-6.6429-6.6429-6.6429z" fill="url(#linearGradient3825)"/>
<rect x="13.837" y="-8.0546" width="84.846" height="77.52" ry="4.25" fill="#333" fill-opacity=".88696" stroke="#fff" stroke-linecap="round" stroke-linejoin="round" stroke-width=".4"/>
<path d="m58.848 20.604c-0.23886 0.04189-0.4289 0.22338-0.47656 0.44677-0.04766 0.22339 0.05664 0.44382 0.25994 0.56862 5.3479 3.1743 8.112 7.0511 8.903 11.23 0.79105 4.1791-0.39931 8.7145-3.141 13.159-5.4833 8.8899-17.184 17.345-30.976 21.587-0.23951 0.08904-0.38138 0.31184-0.36825 0.54831h51.144c8.3749-13.635 7.3976-24.583 1.6246-32.533-5.8043-7.993-16.31-12.954-26.731-15.007-0.07861-0.01506-0.15967-0.01506-0.23828 0z" fill-rule="evenodd"/>
<path d="m32.746-8.5379c-6.0084 6.4446-9.0826 12.378-9.9428 17.729-0.87583 5.448 0.56545 10.274 3.4442 14.358 5.7576 8.1669 17.167 13.399 27.597 15.454 0.28575 0.04022 0.56332-0.11436 0.67152-0.36554 0.1082-0.25118 0.01878-0.53337-0.21662-0.69046-5.3495-3.1752-8.1943-6.9808-9.2713-11.068-1.077-4.0869-0.36054-8.4928 1.603-12.855 3.927-8.724 12.859-17.186 21.9-22.054 0.19958-0.10455 0.32334-0.30095 0.32493-0.50769z" fill-rule="evenodd"/>
<path d="m33.547-8.4973c-24.682 26.086-0.19271 42.868 20.427 46.931-21.824-12.953-4.0593-37.11 14.253-46.972-12.022 0.054062-22.659-0.092026-34.681 0.040615z" fill="#e72121" fill-rule="evenodd"/>
<path d="m63.525 36.462a9.7481 5.8564 41.055 1 1-14.206-13.318 9.7481 5.8564 41.055 1 1 14.206 13.318z" fill="#e00" stroke="#000" stroke-linecap="square" stroke-linejoin="round" stroke-width=".95677"/>
<path d="m49.902 33.275c-12.848-9.1575 1.9043-32.718 16.778-38.922-21.596 14.078-25.037 32.099-16.778 38.922z" fill="#fff" fill-rule="evenodd" opacity=".3"/>
<path d="m57.189 21.966c-9.444-4.9933-11.29-1.1738-9.8588 5.2814-0.37167-3.3376-0.04749-8.4916 9.8588-5.2814z" fill-rule="evenodd" opacity=".3"/>
<path d="m55.717 37.588c9.444 4.9933 11.29 1.1738 9.8588-5.2814 0.37167 3.3376 0.04748 8.4916-9.8588 5.2814z" fill="#fff" fill-rule="evenodd" opacity=".3"/>
<path d="m40.003 34.741c-18.82-5.0912-28.737-24.365-11.823-39.146-14.875 18.985-2.8069 33.283 11.823 39.146z" fill-rule="evenodd" opacity=".3"/>
<path d="m63.63 36.561a9.892 5.9428 41.055 1 1-14.416-13.515 9.892 5.9428 41.055 1 1 14.416 13.515z" fill="url(#radialGradient3744-6)"/>
<path d="m83.551 68.087c16.888-27.223-3.9664-42.868-24.586-46.931 21.824 12.953 2.4944 38.409-25.344 46.972 12.022-0.05406 37.909 0.09202 49.931-0.04062z" fill="#e72121" fill-rule="evenodd"/>
<path d="m63.038 26.314c12.848 9.1575-3.2898 30.77-21.282 37.136 22.808-12.292 30.407-28.527 21.282-37.136z" fill-rule="evenodd" opacity=".3"/>
<path d="m72.936 24.849c18.82 5.0912 25.966 26.151 13.209 41.744 11.931-19.959 1.4213-35.881-13.209-41.744z" fill="#fff" fill-rule="evenodd" opacity=".2"/>
<path transform="matrix(1 0 0 .91541 8.044 -14.052)" d="m52.406 8.4688c-8.5758-0.012756-16.892-0.060676-25.719 0.03125-5.4532 6.5207-8.1412 12.35-8.875 17.344-0.7661 5.2129 0.4328 9.6333 2.9688 13.562 3.4215 5.3014 9.4941 9.449 16.062 12.312-1.296-2.0021-2.3172-4.0992-2.8438-6.2812-1.2694-5.2607-0.39256-10.737 1.75-15.938 3.2948-7.9978 9.5697-15.435 16.656-21.031z" fill="url(#linearGradient2916-4)" fill-rule="evenodd" filter="url(#filter3795-7)"/>
<path transform="matrix(1 0 0 .91541 8.044 -14.052)" d="m59.094 43.312c1.6038 2.3295 2.6421 4.8626 3.0938 7.4688 0.9277 5.3536-0.50079 10.931-3.4688 16.188-4.5425 8.0454-12.742 15.47-22.781 20.688 12.721 0.0024 28.507 0.03673 38.219-0.0625 7.5096-13.836 6.4573-24.127 1.3438-31.812-3.6931-5.5509-9.7288-9.7087-16.406-12.469z" fill="url(#linearGradient2918-2)" fill-rule="evenodd" filter="url(#filter3790-1)"/>
<path d="m16.187-13.166c-3.6801 0-6.6429 2.9627-6.6429 6.6429v16.607h1.1071v-16.607c0-3.0859 2.4498-5.5357 5.5357-5.5357h79.714c3.0859 0 5.5357 2.4498 5.5357 5.5357v16.607h1.1071v-16.607c0-3.6801-2.9627-6.6429-6.6429-6.6429z" fill="url(#radialGradient3827)" opacity=".45"/>
<path d="m9.544 67.178v6c0 3.6801 2.9761 6.6562 6.6562 6.6562h79.688c3.6801 0 6.6563-2.9761 6.6563-6.6562v-6c0 3.6801-2.9761 6.6562-6.6563 6.6562h-79.688c-3.6801 0-6.6562-2.9761-6.6562-6.6562z" fill="url(#linearGradient3829)" opacity=".89091"/>
<rect x="13.419" y="65.584" width="84.25" height="4.25" rx="0" ry="4.25" fill="url(#radialGradient3831)" opacity=".55"/>
<rect transform="rotate(90)" x="-9.9156" y="-98.669" width="76.75" height="4.25" rx="0" ry="4.25" fill="url(#radialGradient3833)" opacity=".55"/>
<rect transform="matrix(.9093 0 0 .92838 12.389 19.829)" x="2" y="-30" width="92" height="92" rx="3.957" ry="3.957" clip-path="url(#clipPath4156-4)" fill="url(#linearGradient3837)" opacity=".807"/>
<path d="m17.869-9.9361c-3.1166 0-5.668 2.5395-5.668 5.646v69.278c0 3.1065 2.5513 5.646 5.668 5.646h76.792c3.1166 0 5.668-2.5395 5.668-5.646v-69.278c0-3.1065-2.5513-5.646-5.668-5.646zm0 2.3194h76.792c1.8881 0 3.352 1.4801 3.352 3.3266v69.278c0 1.8465-1.4639 3.3266-3.352 3.3266h-76.792c-1.8881 0-3.352-1.4801-3.352-3.3266v-69.278c0-1.8465 1.4639-3.3266 3.352-3.3266z" color="#000000" fill="#241f1f" fill-opacity=".63265" style="text-decoration-line:none;text-indent:0;text-transform:none"/>
</g>
</g>
<g display="none">
<rect x="5" y="7" width="86" height="85" rx="6" ry="6" fill="url(#ButtonShadow)" filter="url(#filter3174-36)" opacity=".9"/>
</g>
<g display="none">
<rect x="5" y="7" width="86" height="85" rx="6" ry="6" fill="url(#ButtonShadow)" filter="url(#filter3174-4)" opacity=".9"/>
</g>
</svg>
