<?xml version="1.0" encoding="UTF-8"?>
<!-- Created with Inkscape (http://www.inkscape.org/) -->
<svg version="1.1" viewBox="0 0 96 96" xmlns="http://www.w3.org/2000/svg" xmlns:cc="http://creativecommons.org/ns#" xmlns:dc="http://purl.org/dc/elements/1.1/" xmlns:rdf="http://www.w3.org/1999/02/22-rdf-syntax-ns#" xmlns:xlink="http://www.w3.org/1999/xlink">
<defs>
<linearGradient id="linearGradient4071" x1="6" x2="90" y1="47" y2="47" gradientTransform="matrix(1.1071 0 0 1.1071 -4.9939 -3.6207)" gradientUnits="userSpaceOnUse">
<stop stop-color="#b4b9ba" offset="0"/>
<stop stop-color="#fff" offset=".25"/>
<stop stop-color="#98a0a2" offset=".5"/>
<stop stop-color="#fbf9f9" offset=".75"/>
<stop stop-color="#b4b8ba" offset="1"/>
</linearGradient>
<linearGradient id="linearGradient4129" x1="1.5" x2="94.5" y1="88.172" y2="88.172" gradientTransform="translate(.14895 .41503)" gradientUnits="userSpaceOnUse">
<stop offset="0"/>
<stop stop-opacity=".58824" offset=".1"/>
<stop stop-opacity=".58824" offset=".9"/>
<stop offset="1"/>
</linearGradient>
<radialGradient id="radialGradient7462" cx="13.948" cy="44.893" r="43.199" gradientTransform="matrix(.97513 0 0 .049191 34.048 80.582)" gradientUnits="userSpaceOnUse" xlink:href="#linearGradient3737"/>
<linearGradient id="linearGradient3737">
<stop stop-color="#fff" offset="0"/>
<stop stop-color="#fff" stop-opacity="0" offset="1"/>
</linearGradient>
<radialGradient id="radialGradient7464" cx="13.948" cy="44.893" r="43.199" gradientTransform="matrix(.88833 0 0 .049191 31.96 -90.317)" gradientUnits="userSpaceOnUse" xlink:href="#linearGradient3737"/>
<linearGradient id="linearGradient4767" x1="2.7714" x2="50.528" y1="-28.642" y2="14.514" gradientUnits="userSpaceOnUse" xlink:href="#linearGradient3737"/>
<clipPath id="clipPath4156-4-1">
<path d="m27.046-55.695-14.214 13.321h0.06127l15.653 21.771 10.231-10.546c-0.2169-1.1522-11.311-23.67-11.732-24.546zm-17.399 16.313-14.888 14.062 21.229 17.515 10.385-10.577zm31.491 12.951-9.7413 9.7136 8.9448 12.458 7.7808-7.555zm-49.84 4.3788-13.754 12.982 26.283 13.846 0.06127-0.0617-0.12253-0.0617 9.8332-10.053-22.301-16.652zm38.015 7.4008-9.8025 9.7753 11.579 9.5594 7.6276-7.4008-8.6691-11.009zm20.187 5.674-7.3825 7.2158 6.1878 8.5418 5.8202-6.1365zm-32.195 6.3215-9.5575 9.4977 13.662 7.185 7.9339-7.6784zm23.312 2.3744-7.1068 6.9383 8.3628 6.9074 5.3608-5.674-0.06127-0.0925-0.0919 0.12335-6.4635-8.2026zm-8.7304 8.5418-7.5051 7.3392 10.354 5.4581c1.3975-1.321 5.6751-6.1229 5.8509-6.3215z" fill="#fff" opacity=".6"/>
</clipPath>
<linearGradient id="linearGradient3362" x1="16" x2="16" y1="88" y2="8" gradientTransform="matrix(1.0412 0 0 -.91071 -.48184 89.065)" gradientUnits="userSpaceOnUse">
<stop stop-color="#1a1a1a" offset="0"/>
<stop stop-color="#2a2a2a" offset="1"/>
</linearGradient>
<linearGradient id="linearGradient4320">
<stop stop-color="#a3a3a3" offset="0"/>
<stop stop-color="#f8f8f8" offset=".49734"/>
<stop stop-color="#999" offset="1"/>
</linearGradient>
<linearGradient id="linearGradient953" x1="9" x2="9" y1="22.426" y2="26" gradientTransform="matrix(.99953 0 0 .91071 2.3198 -96.434)" gradientUnits="userSpaceOnUse" xlink:href="#linearGradient4320"/>
<linearGradient id="linearGradient1038" x1="9" x2="9" y1="22.426" y2="26" gradientTransform="matrix(.99953 0 0 .91071 2.3198 -43.848)" gradientUnits="userSpaceOnUse" xlink:href="#linearGradient4320"/>
<linearGradient id="linearGradient1040" x1="9" x2="9" y1="22.426" y2="26" gradientTransform="matrix(.99953 0 0 .91071 2.3198 -73.897)" gradientUnits="userSpaceOnUse" xlink:href="#linearGradient4320"/>
<filter id="filter915" x="-.0061436" y="-.0058629" width="1.0123" height="1.0117" color-interpolation-filters="sRGB">
<feGaussianBlur stdDeviation="0.15020671"/>
</filter>
</defs>
<metadata>
<rdf:RDF>
<cc:Work rdf:about="">
<dc:format>image/svg+xml</dc:format>
<dc:type rdf:resource="http://purl.org/dc/dcmitype/StillImage"/>
<dc:title/>
<dc:date>2017</dc:date>
<dc:creator>
<cc:Agent>
<dc:title>Cristian Pozzessere "ilnanny"</dc:title>
</cc:Agent>
</dc:creator>
<dc:subject>
<rdf:Bag>
<rdf:li>Global language</rdf:li>
</rdf:Bag>
</dc:subject>
<dc:description>Playing with Inkscape on Gnu/Linux O. S.</dc:description>
<dc:contributor>
<cc:Agent>
<dc:title>In the night, alone like a dog.</dc:title>
</cc:Agent>
</dc:contributor>
<cc:license rdf:resource="http://creativecommons.org/licenses/by-sa/4.0/"/>
</cc:Work>
<cc:License rdf:about="http://creativecommons.org/licenses/by-sa/4.0/">
<cc:permits rdf:resource="http://creativecommons.org/ns#Reproduction"/>
<cc:permits rdf:resource="http://creativecommons.org/ns#Distribution"/>
<cc:requires rdf:resource="http://creativecommons.org/ns#Notice"/>
<cc:requires rdf:resource="http://creativecommons.org/ns#Attribution"/>
<cc:permits rdf:resource="http://creativecommons.org/ns#DerivativeWorks"/>
<cc:requires rdf:resource="http://creativecommons.org/ns#ShareAlike"/>
</cc:License>
</rdf:RDF>
</metadata>
<g transform="translate(0 -1026.5)">
<g transform="translate(-.14896 1026.1)">
<path d="m89.292 0.41503h-82.286c-3.7988 0-6.8571 3.0583-6.8571 6.8571v82.286c0 3.7989 3.0583 6.8571 6.8571 6.8571h82.286c3.7989 0 6.8571-3.0583 6.8571-6.8571v-82.286c0-3.7989-3.0583-6.8571-6.8571-6.8571z" opacity=".15"/>
<path d="m88.649 1.165h-81c-3.7395 0-6.75 3.0105-6.75 6.75v81c0 3.7395 3.0105 6.75 6.75 6.75h81c3.7395 0 6.75-3.0105 6.75-6.75v-81c0-3.7395-3.0105-6.75-6.75-6.75z" opacity=".15"/>
<path d="m88.006 1.915h-79.714c-3.6801 0-6.6429 2.9627-6.6429 6.6429v79.714c0 3.6801 2.9627 6.6429 6.6429 6.6429h79.714c3.6801 0 6.6429-2.9627 6.6429-6.6429v-79.714c0-3.6801-2.9627-6.6429-6.6429-6.6429z" fill="url(#linearGradient4071)"/>
<rect transform="scale(1,-1)" x="5.9947" y="-83.564" width="83.961" height="76.5" rx="3.9981" ry="3.6428" fill="#006d91"/>
<path d="m58.532 19.087 0.24609 4e-3c8.1556 0.12204 14.726 7.7069 15.117 17.34 0.70333 0.74946 1.0586 1.7094 1.0586 2.8594 0 1.7241-0.79126 3.7416-2.2324 5.7012-1.3574 4.4108-3.7324 8.3434-6.5703 10.893 0.66553 2.795 2.549 4.9119 5.6055 6.3008 0.40425 0.18565 1.234 0.37154 2.1953 0.58984 4.1444 0.93854 11.86 2.6876 13.791 10.229 0.01315 0.0517-0.63728 0.10046-1.6816 0.14648 0.02952 0.10246 0.06881 0.19577 0.0957 0.30079 0.09859 0.38332 0.42949 0.63476 0.79102 0.63476 0.04488 0-15.745-0.094-29.379-0.17383l-27.541 0.14453c-0.12303 0.0278-0.25062 0.036-0.38086 2e-3l0.38086-2e-3c0.29302-0.0661 0.54399-0.28344 0.625-0.60546 0.02669-0.10415 0.06452-0.1971 0.09375-0.29883-1.0432-0.0459-1.6948-0.0929-1.6816-0.14453 1.9457-7.5942 9.715-9.5282 13.891-10.566 0.91367-0.2269 1.7016-0.42497 2.0977-0.60547 3.0631-1.3906 4.9491-3.5131 5.6113-6.3184-2.4534-2.3498-4.5143-5.7081-5.8438-9.5293-1.9243-2.2312-3.0234-4.6638-3.0234-6.6973 0-1.4078 0.52208-2.5159 1.5508-3.3066 0.57679-9.4662 7.1759-16.852 15.184-16.896zm0.24609 1.7246c-39.939-14.227-19.969-7.1133 0 0z" fill="#fff" fill-opacity=".29018" filter="url(#filter915)" style="paint-order:stroke fill markers"/>
<path d="m27.289 74.013c0.4404 0.11517 0.89066-0.15127 1.0057-0.6085 1.6926-6.6059 8.5714-8.3179 12.683-9.3424 1.0303-0.25612 1.8438-0.45896 2.3729-0.69789 4.6834-2.1263 6.21-5.547 6.6668-8.0429 0.05586-0.30081-0.04765-0.61022-0.27114-0.81306-2.4386-2.202-4.496-5.5075-5.7942-9.3097-0.03614-0.10829-0.09367-0.20799-0.16926-0.29394-1.7172-1.9527-2.7032-4.0171-2.7032-5.6622 0-0.96088 0.34673-1.6055 1.1273-2.0919 0.23828-0.14955 0.38782-0.41254 0.39932-0.70132 0.36317-8.7562 6.325-15.649 13.638-15.694 0.0082 0 0.16762 0.01201 0.17584 0.01201 7.3488 0.10658 13.273 7.1473 13.485 16.027 0.0066 0.24581 0.11174 0.47614 0.2925 0.63429 0.51435 0.45552 0.75427 1.0331 0.75427 1.8169 0 1.3769-0.70168 3.07-1.9736 4.7649-0.0608 0.0808-0.10682 0.17361-0.13803 0.27159-1.3146 4.3592-3.6744 8.2079-6.4713 10.563-0.23663 0.1994-0.34838 0.51912-0.2925 0.83024 0.45683 2.4942 1.9834 5.9131 6.6668 8.0429 0.55379 0.25096 1.4132 0.44692 2.5027 0.69273 4.0704 0.92135 10.882 2.4667 12.553 8.9935 0.09859 0.38332 0.43054 0.63601 0.79206 0.63601 0.07067 0-46.326-0.25462-46.254-0.27348 0.43876-0.12376 47.166-0.35049 47.049-0.80945-1.9309-7.541-9.6477-9.2891-13.792-10.228-0.96132-0.2183-1.7912-0.40567-2.1954-0.59131-3.0565-1.3889-4.9397-3.5049-5.6053-6.2999 2.838-2.5492 5.2125-6.4821 6.5699-10.893 1.4412-1.9596 2.2332-3.9776 2.2332-5.7017 0-1.15-0.35495-2.1091-1.0583-2.8586-0.3911-9.6329-6.9626-17.219-15.118-17.341l-0.24485-0.0034c-8.0077 0.0447-14.607 7.4309-15.184 16.897-1.0287 0.79071-1.5513 1.8994-1.5513 3.3072 0 2.0335 1.0994 4.4658 3.0236 6.697 1.3294 3.8212 3.3901 7.1783 5.8435 9.528-0.66224 2.8053-2.5471 4.9282-5.6102 6.3188-0.39603 0.18049-1.1848 0.37816-2.0985 0.60506-4.1756 1.0382-11.945 2.972-13.891 10.566-0.11666 0.45896 46.727 0.68397 47.166 0.80773z" fill="#080808" fill-opacity=".18367" stroke-width="1.0913"/>
<path d="m26.312 75.036c0.4404 0.11517 0.89066-0.15128 1.0057-0.6085 1.6926-6.6059 8.5714-8.3179 12.683-9.3424 1.0303-0.25612 1.8438-0.45896 2.3729-0.69789 4.6834-2.1263 6.21-5.547 6.6668-8.0429 0.05586-0.30081-0.04765-0.61022-0.27114-0.81306-2.4386-2.202-4.496-5.5075-5.7942-9.3097-0.03614-0.10829-0.09367-0.20799-0.16926-0.29394-1.7172-1.9527-2.7032-4.0171-2.7032-5.6622 0-0.96088 0.34673-1.6055 1.1273-2.0919 0.23828-0.14955 0.38782-0.41254 0.39932-0.70132 0.36317-8.7562 6.325-15.649 13.638-15.694 0.0082 0 0.16762 0.012 0.17584 0.012 7.3488 0.10658 13.273 7.1473 13.485 16.027 0.0066 0.24581 0.11174 0.47614 0.2925 0.63429 0.51435 0.45552 0.75427 1.0331 0.75427 1.8169 0 1.3769-0.70168 3.07-1.9736 4.7649-0.0608 0.0808-0.10682 0.17361-0.13803 0.27159-1.3146 4.3592-3.6744 8.2079-6.4713 10.563-0.23663 0.1994-0.34838 0.51912-0.2925 0.83024 0.45683 2.4942 1.9834 5.9131 6.6668 8.0429 0.55379 0.25096 1.4132 0.44692 2.5027 0.69273 4.0704 0.92135 10.882 2.4667 12.553 8.9935 0.09859 0.38332 0.43054 0.636 0.79206 0.636 0.07067 0-46.326-0.25462-46.254-0.27348 0.43876-0.12376 47.166-0.35049 47.049-0.80945-1.9309-7.541-9.6477-9.2891-13.792-10.228-0.96132-0.2183-1.7912-0.40567-2.1954-0.59131-3.0565-1.3889-4.9397-3.5049-5.6053-6.2999 2.838-2.5492 5.2125-6.4821 6.5699-10.893 1.4412-1.9596 2.2332-3.9776 2.2332-5.7017 0-1.15-0.35495-2.1091-1.0583-2.8586-0.3911-9.6329-6.9626-17.219-15.118-17.341l-0.24485-0.0034c-8.0077 0.04473-14.607 7.431-15.184 16.897-1.0287 0.79071-1.5513 1.8994-1.5513 3.3072 0 2.0335 1.0994 4.4658 3.0236 6.697 1.3294 3.8212 3.3901 7.1783 5.8435 9.528-0.66224 2.8053-2.5471 4.9282-5.6102 6.3188-0.39603 0.18049-1.1848 0.37817-2.0985 0.60506-4.1756 1.0382-11.945 2.972-13.891 10.566-0.11667 0.45896 46.727 0.68397 47.166 0.80773z" fill="#080808" fill-opacity=".24554" stroke-width="1.0913"/>
<path d="m29.647 74.059c0.4404 0.11517 0.89066-0.15128 1.0057-0.6085 1.6926-6.6059 8.5714-8.3179 12.683-9.3424 1.0303-0.25612 1.8438-0.45896 2.3729-0.69789 4.6834-2.1263 6.21-5.547 6.6668-8.0429 0.05586-0.30081-0.04765-0.61022-0.27114-0.81306-2.4386-2.202-4.496-5.5075-5.7942-9.3097-0.03614-0.10829-0.09367-0.20799-0.16926-0.29394-1.7172-1.9527-2.7032-4.0171-2.7032-5.6622 0-0.96088 0.34673-1.6055 1.1273-2.0919 0.23828-0.14955 0.38782-0.41254 0.39932-0.70132 0.36317-8.7562 6.325-15.649 13.638-15.694 0.0082 0 0.16762 0.01201 0.17584 0.01201 7.3488 0.10658 13.273 7.1473 13.485 16.027 0.0066 0.2458 0.11174 0.47614 0.29251 0.63428 0.51435 0.45552 0.75427 1.0331 0.75427 1.8169 0 1.3769-0.70168 3.07-1.9736 4.7649-0.0608 0.0808-0.10682 0.17361-0.13803 0.27159-1.3146 4.3592-3.6744 8.2079-6.4713 10.563-0.23663 0.1994-0.34838 0.51912-0.2925 0.83024 0.45683 2.4942 1.9834 5.9131 6.6668 8.0429 0.55379 0.25096 1.4132 0.44692 2.5027 0.69273 4.0704 0.92135 10.882 2.4667 12.553 8.9935 0.09859 0.38332 0.43054 0.636 0.79206 0.636 0.07067 0-46.326-0.25462-46.254-0.27348 0.43876-0.12376 47.166-0.35049 47.049-0.80945-1.9309-7.541-9.6477-9.2891-13.792-10.228-0.96132-0.2183-1.7912-0.40567-2.1954-0.59131-3.0565-1.3889-4.9397-3.5049-5.6053-6.2999 2.838-2.5492 5.2125-6.4821 6.5699-10.893 1.4412-1.9596 2.2332-3.9776 2.2332-5.7017 0-1.15-0.35495-2.1091-1.0583-2.8586-0.3911-9.6329-6.9626-17.219-15.118-17.341l-0.24485-0.0034c-8.0077 0.04472-14.607 7.431-15.184 16.897-1.0287 0.79071-1.5513 1.8994-1.5513 3.3072 0 2.0335 1.0994 4.4658 3.0236 6.697 1.3294 3.8212 3.3901 7.1783 5.8435 9.528-0.66224 2.8053-2.5471 4.9282-5.6102 6.3188-0.39603 0.18049-1.1848 0.37816-2.0985 0.60506-4.1756 1.0382-11.945 2.972-13.891 10.566-0.11667 0.45896 46.727 0.68397 47.166 0.80773z" fill="#f6f6f6" fill-opacity=".87946" stroke-width="1.0913"/>
<rect transform="scale(1,-1)" x="26.042" y="-83.601" width=".99953" height="76.5" fill="#fff" opacity=".355"/>
<path d="m12.013 83.601c-5.5002 0-6.2475-1.4561-6.2475-5.4643v-65.571c0-3.8298 0.74722-5.4643 6.2475-5.4643h12.495v76.5z" fill="url(#linearGradient3362)"/>
<path d="m1.649 82.259v6c0 3.6801 2.9761 6.6562 6.6562 6.6562h79.687c3.6801 0 6.6563-2.9761 6.6563-6.6562v-6c0 3.6801-2.9761 6.6562-6.6563 6.6562h-79.687c-3.6801 0-6.6562-2.9761-6.6562-6.6562z" fill="url(#linearGradient4129)" opacity=".65818"/>
<rect x="5.524" y="80.665" width="84.25" height="4.25" rx="0" ry="4.25" fill="url(#radialGradient7462)" opacity=".55"/>
<rect transform="rotate(90)" x="5.975" y="-90.234" width="76.75" height="4.25" rx="0" ry="4.25" fill="url(#radialGradient7464)" opacity=".669"/>
<rect transform="matrix(1.0692 0 0 1.0477 4.4442 38.894)" x="2" y="-30" width="75.966" height="69.024" rx="3.957" ry="3.957" clip-path="url(#clipPath4156-4-1)" fill="url(#linearGradient4767)" opacity=".50781"/>
<path d="m12.835 22.122c0 2.0119 1.79 3.6428 3.9981 3.6428s3.9981-1.631 3.9981-3.6428c0-2.0119-1.79-3.6428-3.9981-3.6428s-3.9981 1.631-3.9981 3.6428zm0.99953 0c0-1.5089 1.3425-2.7321 2.9986-2.7321s2.9986 1.2232 2.9986 2.7321c0 1.5089-1.3425 2.7321-2.9986 2.7321s-2.9986-1.2232-2.9986-2.7321z" fill="#fff" opacity=".739"/>
<rect transform="scale(1,-1)" x="6.318" y="-23.812" width="11.994" height="3.6428" rx="1.9991" ry="1.8214" fill="url(#linearGradient1038)"/>
<path d="m12.835 52.171c0 2.0119 1.79 3.6428 3.9981 3.6428s3.9981-1.631 3.9981-3.6428c0-2.0119-1.79-3.6428-3.9981-3.6428s-3.9981 1.631-3.9981 3.6428zm0.99953 0c0-1.5089 1.3425-2.7321 2.9986-2.7321s2.9986 1.2232 2.9986 2.7321c0 1.5089-1.3425 2.7321-2.9986 2.7321s-2.9986-1.2232-2.9986-2.7321z" fill="#fff" opacity=".739"/>
<rect transform="scale(1,-1)" x="6.318" y="-53.862" width="11.994" height="3.6428" rx="1.9991" ry="1.8214" fill="url(#linearGradient1040)"/>
<path d="m12.835 74.708c0 2.0119 1.79 3.6428 3.9981 3.6428s3.9981-1.631 3.9981-3.6428c0-2.0119-1.79-3.6428-3.9981-3.6428s-3.9981 1.631-3.9981 3.6428zm0.99953 0c0-1.5089 1.3425-2.7321 2.9986-2.7321s2.9986 1.2232 2.9986 2.7321c0 1.5089-1.3425 2.7321-2.9986 2.7321s-2.9986-1.2232-2.9986-2.7321z" fill="#fff" opacity=".739"/>
<rect transform="scale(1,-1)" x="6.318" y="-76.399" width="11.994" height="3.6428" rx="1.9991" ry="1.8214" fill="url(#linearGradient953)"/>
<path d="m9.9516 5.1445c-3.1043 0-5.6455 2.5395-5.6455 5.646v69.278c0 3.1065 2.5412 5.646 5.6455 5.646h76.488c3.1043 0 5.6455-2.5395 5.6455-5.646v-69.278c0-3.1065-2.5413-5.646-5.6455-5.646zm0 2.3194h76.488c1.8806 0 3.3388 1.4801 3.3388 3.3266v69.278c0 1.8465-1.4581 3.3266-3.3388 3.3266h-76.488c-1.8806 0-3.3388-1.4801-3.3388-3.3266v-69.278c0-1.8465 1.4581-3.3266 3.3388-3.3266z" color="#000000" fill="#444547" fill-opacity=".92857" style="text-decoration-line:none;text-indent:0;text-transform:none"/>
</g>
</g>
</svg>
