<?xml version="1.0" encoding="UTF-8"?>
<!-- Created with Inkscape (http://www.inkscape.org/) -->
<svg version="1.0" viewBox="0 0 96 96" xmlns="http://www.w3.org/2000/svg" xmlns:cc="http://creativecommons.org/ns#" xmlns:dc="http://purl.org/dc/elements/1.1/" xmlns:rdf="http://www.w3.org/1999/02/22-rdf-syntax-ns#" xmlns:xlink="http://www.w3.org/1999/xlink">
<defs>
<linearGradient id="linearGradient12946">
<stop stop-color="#fff" offset="0"/>
<stop stop-color="#fff" stop-opacity="0" offset="1"/>
</linearGradient>
<linearGradient id="linearGradient4071" x1="6" x2="90" y1="47" y2="47" gradientTransform="matrix(.26321 0 0 .26321 -4.6339 -3.6957)" gradientUnits="userSpaceOnUse">
<stop stop-color="#b2babc" offset="0"/>
<stop stop-color="#fff" offset=".25"/>
<stop stop-color="#96a1a4" offset=".5"/>
<stop stop-color="#fbf9f9" offset=".75"/>
<stop stop-color="#b2b9bc" offset="1"/>
</linearGradient>
<linearGradient id="linearGradient4129" x1="1.5" x2="94.5" y1="88.172" y2="88.172" gradientTransform="matrix(.23773 0 0 .23773 -3.4112 -2.7363)" gradientUnits="userSpaceOnUse">
<stop offset="0"/>
<stop stop-opacity=".58824" offset=".1"/>
<stop stop-opacity=".58824" offset=".9"/>
<stop offset="1"/>
</linearGradient>
<radialGradient id="radialGradient7462" cx="13.948" cy="44.893" r="43.199" gradientTransform="matrix(.23182 0 0 .011694 4.6476 16.322)" gradientUnits="userSpaceOnUse" xlink:href="#linearGradient12946"/>
<radialGradient id="radialGradient7464" cx="13.948" cy="44.893" r="43.199" gradientTransform="matrix(.21119 0 0 .011694 4.7629 -18.025)" gradientUnits="userSpaceOnUse" xlink:href="#linearGradient12946"/>
<linearGradient id="linearGradient4767" x1="2.7714" x2="50.528" y1="-28.642" y2="14.514" gradientUnits="userSpaceOnUse" xlink:href="#linearGradient12946"/>
<clipPath id="clipPath4156-4-1">
<path d="m27.046-55.695-14.214 13.321h0.06127l15.653 21.771 10.231-10.546c-0.2169-1.1522-11.311-23.67-11.732-24.546zm-17.399 16.313-14.888 14.062 21.229 17.515 10.385-10.577zm31.491 12.951-9.7413 9.7136 8.9448 12.458 7.7808-7.555zm-49.84 4.3788-13.754 12.982 26.283 13.846 0.06127-0.0617-0.12253-0.0617 9.8332-10.053-22.301-16.652zm38.015 7.4008-9.8025 9.7753 11.579 9.5594 7.6276-7.4008-8.6691-11.009zm20.187 5.674-7.3825 7.2158 6.1878 8.5418 5.8202-6.1365zm-32.195 6.3215-9.5575 9.4977 13.662 7.185 7.9339-7.6784zm23.312 2.3744-7.1068 6.9383 8.3628 6.9074 5.3608-5.674-0.06127-0.0925-0.0919 0.12335-6.4635-8.2026zm-8.7304 8.5418-7.5051 7.3392 10.354 5.4581c1.3975-1.321 5.6751-6.1229 5.8509-6.3215z" fill="#fff" opacity=".6"/>
</clipPath>
<filter id="filter1082" x="-.024" y="-.024" width="1.048" height="1.048" color-interpolation-filters="sRGB">
<feGaussianBlur stdDeviation="0.17"/>
</filter>
<radialGradient id="radialGradient1020-6" cx="4.0449" cy="10.099" r="7.5" gradientTransform="translate(5.2428 .29138)" gradientUnits="userSpaceOnUse">
<stop stop-color="#fff" offset="0"/>
<stop stop-color="#868686" offset="1"/>
</radialGradient>
</defs>
<metadata>
<rdf:RDF>
<cc:Work rdf:about="">
<dc:format>image/svg+xml</dc:format>
<dc:type rdf:resource="http://purl.org/dc/dcmitype/StillImage"/>
<dc:title/>
</cc:Work>
</rdf:RDF>
</metadata>
<g transform="translate(0,80)">
<g transform="matrix(.97513 0 0 .97661 33.899 -38.343)">
<g transform="matrix(4.3136 0 0 4.3071 -20.048 -30.87)">
<path d="m17.781-2.7363h-19.562c-0.90311 0-1.6302 0.72706-1.6302 1.6302v19.562c0 0.90312 0.72706 1.6302 1.6302 1.6302h19.562c0.90312 0 1.6302-0.72706 1.6302-1.6302v-19.562c0-0.90312-0.72706-1.6302-1.6302-1.6302z" opacity=".15"/>
<path d="m17.628-2.558h-19.256c-0.889 0-1.6047 0.7157-1.6047 1.6047v19.256c0 0.88901 0.7157 1.6047 1.6047 1.6047h19.256c0.88901 0 1.6047-0.7157 1.6047-1.6047v-19.256c0-0.889-0.7157-1.6047-1.6047-1.6047z" opacity=".15"/>
<path d="m17.475-2.3797h-18.951c-0.87489 0-1.5792 0.70434-1.5792 1.5792v18.951c0 0.87489 0.70434 1.5792 1.5792 1.5792h18.951c0.87489 0 1.5792-0.70434 1.5792-1.5792v-18.951c0-0.87489-0.70434-1.5792-1.5792-1.5792z" fill="url(#linearGradient4071)"/>
<path d="m-0.73879-1.2178c-0.67909 0-1.2182 0.54402-1.2182 1.2293v16.304c0.26085 0.40046 0.7058 0.66844 1.2182 0.66844h17.542c0.51238 0 0.95733-0.26798 1.2182-0.66844v-16.304c0-0.6853-0.53909-1.2293-1.2182-1.2293z" fill="#e8e8e8" opacity=".9"/>
<path d="m-1.0755-1.6119c-0.74093 0-1.3475 0.60373-1.3475 1.3422v16.47c0 0.73852 0.60654 1.3422 1.3475 1.3422h18.256c0.74093 0 1.3475-0.60373 1.3475-1.3422v-16.47c0-0.73852-0.60654-1.3422-1.3475-1.3422zm0 0.55141h18.256c0.44886 0 0.79689 0.35187 0.79689 0.79084v16.47c0 0.43897-0.34802 0.79084-0.79689 0.79084h-18.256c-0.44886 0-0.79689-0.35187-0.79689-0.79084v-16.47c0-0.43897 0.34802-0.79084 0.79689-0.79084z" color="#000000" fill="#1f2224" fill-opacity=".63265" style="text-decoration-line:none;text-indent:0;text-transform:none"/>
<path d="m-3.0546 16.721v1.4264c0 0.87489 0.70752 1.5824 1.5824 1.5824h18.944c0.87489 0 1.5824-0.70752 1.5824-1.5824v-1.4264c0 0.87489-0.70752 1.5824-1.5824 1.5824h-18.944c-0.87489 0-1.5824-0.70752-1.5824-1.5824z" fill="url(#linearGradient4129)" opacity=".65818"/>
<rect x="-2.1334" y="16.342" width="20.029" height="1.0104" rx="0" ry="1.0104" fill="url(#radialGradient7462)" opacity=".55"/>
<rect transform="rotate(90)" x="-1.4145" y="-18.005" width="18.246" height="1.0104" rx="0" ry="1.0104" fill="url(#radialGradient7464)" opacity=".669"/>
<g transform="translate(-1.228 -2.2671)">
<circle cx="9.2877" cy="10.391" r="7" fill="none" opacity=".78" stroke="#0e0e0e" stroke-linecap="round" stroke-linejoin="round"/>
<path transform="matrix(.95401 0 0 .95401 2.7301 .62492)" d="m6.8738 1.7366c-4.6865 0-8.5 3.8135-8.5 8.5 0 4.6865 3.8135 8.5 8.5 8.5 4.6865 0 8.5-3.8135 8.5-8.5 0-4.6865-3.8135-8.5-8.5-8.5zm0 1c4.1455 0 7.5 3.3545 7.5 7.5 0-4.1345-3.3655-7.5-7.5-7.5zm0 0c-4.1345 0-7.5 3.3655-7.5 7.5 0-4.1455 3.3545-7.5 7.5-7.5zm0 1c3.5935 0 6.5 2.9065 6.5 6.5 0 3.5935-2.9065 6.5-6.5 6.5-3.5935 0-6.5-2.9065-6.5-6.5 0-3.5935 2.9065-6.5 6.5-6.5zm-6.9102 9.416c0.76023 1.7939 2.2003 3.2339 3.9941 3.9941-1.7977-0.75862-3.2355-2.1965-3.9941-3.9941zm13.82 0c-0.75862 1.7977-2.1965 3.2355-3.9941 3.9941 1.7939-0.76023 3.2339-2.2003 3.9941-3.9941z" color="#000000" color-rendering="auto" dominant-baseline="auto" fill="#030303" filter="url(#filter1082)" image-rendering="auto" opacity=".12" shape-rendering="auto" solid-color="#000000" style="font-feature-settings:normal;font-variant-alternates:normal;font-variant-caps:normal;font-variant-ligatures:normal;font-variant-numeric:normal;font-variant-position:normal;isolation:auto;mix-blend-mode:normal;shape-padding:0;text-decoration-color:#000000;text-decoration-line:none;text-decoration-style:solid;text-indent:0;text-orientation:mixed;text-transform:none;white-space:normal"/>
<circle cx="9.2877" cy="10.391" r="7" fill="url(#radialGradient1020-6)" opacity=".482"/>
</g>
<rect transform="matrix(.2542 0 0 .24907 -2.3901 6.4115)" x="2" y="-30" width="75.966" height="69.024" rx="3.957" ry="3.957" clip-path="url(#clipPath4156-4-1)" fill="url(#linearGradient4767)" opacity=".65"/>
</g>
</g>
</g>
</svg>
