<?xml version="1.0" encoding="UTF-8"?>
<!-- Created with Inkscape (http://www.inkscape.org/) -->
<svg version="1.1" viewBox="0 0 96 96" xmlns="http://www.w3.org/2000/svg" xmlns:cc="http://creativecommons.org/ns#" xmlns:dc="http://purl.org/dc/elements/1.1/" xmlns:rdf="http://www.w3.org/1999/02/22-rdf-syntax-ns#" xmlns:xlink="http://www.w3.org/1999/xlink">
<defs>
<linearGradient id="linearGradient4071" x1="6" x2="90" y1="47" y2="47" gradientTransform="matrix(1.1071 0 0 1.1071 -4.9939 -3.6207)" gradientUnits="userSpaceOnUse" xlink:href="#linearGradient6139-0"/>
<linearGradient id="linearGradient6139-0">
<stop stop-color="#b0bbbe" offset="0"/>
<stop stop-color="#fff" offset=".25"/>
<stop stop-color="#94a2a6" offset=".5"/>
<stop stop-color="#fbf9f9" offset=".75"/>
<stop stop-color="#b1babd" offset="1"/>
</linearGradient>
<linearGradient id="linearGradient4129" x1="1.5" x2="94.5" y1="88.172" y2="88.172" gradientTransform="translate(.14895 .41503)" gradientUnits="userSpaceOnUse">
<stop offset="0"/>
<stop stop-opacity=".58824" offset=".1"/>
<stop stop-opacity=".58824" offset=".9"/>
<stop offset="1"/>
</linearGradient>
<radialGradient id="radialGradient7462" cx="13.948" cy="44.893" r="43.199" gradientTransform="matrix(.97513 0 0 .049191 34.048 80.582)" gradientUnits="userSpaceOnUse" xlink:href="#linearGradient3737"/>
<linearGradient id="linearGradient3737">
<stop stop-color="#fff" offset="0"/>
<stop stop-color="#fff" stop-opacity="0" offset="1"/>
</linearGradient>
<radialGradient id="radialGradient7464" cx="13.948" cy="44.893" r="43.199" gradientTransform="matrix(.88833 0 0 .049191 31.96 -90.317)" gradientUnits="userSpaceOnUse" xlink:href="#linearGradient3737"/>
<linearGradient id="linearGradient4767" x1="2.7714" x2="50.528" y1="-28.642" y2="14.514" gradientUnits="userSpaceOnUse" xlink:href="#linearGradient3737"/>
<clipPath id="clipPath4156-4-1">
<path d="m27.046-55.695-14.214 13.321h0.06127l15.653 21.771 10.231-10.546c-0.2169-1.1522-11.311-23.67-11.732-24.546zm-17.399 16.313-14.888 14.062 21.229 17.515 10.385-10.577zm31.491 12.951-9.7413 9.7136 8.9448 12.458 7.7808-7.555zm-49.84 4.3788-13.754 12.982 26.283 13.846 0.06127-0.0617-0.12253-0.0617 9.8332-10.053-22.301-16.652zm38.015 7.4008-9.8025 9.7753 11.579 9.5594 7.6276-7.4008-8.6691-11.009zm20.187 5.674-7.3825 7.2158 6.1878 8.5418 5.8202-6.1365zm-32.195 6.3215-9.5575 9.4977 13.662 7.185 7.9339-7.6784zm23.312 2.3744-7.1068 6.9383 8.3628 6.9074 5.3608-5.674-0.06127-0.0925-0.0919 0.12335-6.4635-8.2026zm-8.7304 8.5418-7.5051 7.3392 10.354 5.4581c1.3975-1.321 5.6751-6.1229 5.8509-6.3215z" fill="#fff" opacity=".6"/>
</clipPath>
<radialGradient id="radialGradient3914-4" cx="55.385" cy="62.769" r="24" gradientTransform="matrix(1.5385 5.7893e-8 -6.9471e-8 1.8462 -29.822 -53.112)" gradientUnits="userSpaceOnUse">
<stop stop-color="#ff93ec" offset="0"/>
<stop stop-color="#a3018d" offset="1"/>
</radialGradient>
<linearGradient id="linearGradient3875-0" x1="48.27" x2="48.27" y1="32.608" y2="69.906" gradientUnits="userSpaceOnUse" xlink:href="#linearGradient3737"/>
<linearGradient id="linearGradient4100-5" x1="49.958" x2="49.958" y1="20.366" y2="98.867" gradientUnits="userSpaceOnUse" xlink:href="#linearGradient3737"/>
<linearGradient id="linearGradient3985-9" x1="22" x2="74" y1="48" y2="48" gradientTransform="rotate(90,48,48)" gradientUnits="userSpaceOnUse">
<stop stop-color="#b4b4b4" offset="0"/>
<stop stop-color="#ebebeb" offset="1"/>
</linearGradient>
<clipPath id="clipPath4014-2">
<path d="m16.5 143.12c0 68.613 14.327 124.24 32 124.24s32-55.622 32-124.24c0-68.613-14.327-124.24-32-124.24s-32 55.622-32 124.24zm8 0c0-51.46 10.745-93.176 24-93.176s24 41.717 24 93.176c0 51.46-10.745 93.176-24 93.176s-24-41.717-24-93.176z" color="#000000" fill="url(#linearGradient4018)"/>
</clipPath>
<linearGradient id="linearGradient1007" x1="16" x2="80" y1="48" y2="48" gradientUnits="userSpaceOnUse" xlink:href="#linearGradient6139-0"/>
<linearGradient id="linearGradient3529-3" x1="21" x2="21" y1="3" y2="4" gradientUnits="userSpaceOnUse">
<stop stop-color="#eaeaea" offset="0"/>
<stop stop-color="#bebebe" offset="1"/>
</linearGradient>
</defs>
<metadata>
<rdf:RDF>
<cc:Work rdf:about="">
<dc:format>image/svg+xml</dc:format>
<dc:type rdf:resource="http://purl.org/dc/dcmitype/StillImage"/>
<dc:title/>
<dc:date>2017</dc:date>
<dc:creator>
<cc:Agent>
<dc:title>Cristian Pozzessere "ilnanny"</dc:title>
</cc:Agent>
</dc:creator>
<dc:subject>
<rdf:Bag>
<rdf:li>Global language</rdf:li>
</rdf:Bag>
</dc:subject>
<dc:description>Playing with Inkscape on Gnu/Linux O. S.</dc:description>
<dc:contributor>
<cc:Agent>
<dc:title>In the night, alone like a dog.</dc:title>
</cc:Agent>
</dc:contributor>
<cc:license rdf:resource="http://creativecommons.org/licenses/by-sa/4.0/"/>
</cc:Work>
<cc:License rdf:about="http://creativecommons.org/licenses/by-sa/4.0/">
<cc:permits rdf:resource="http://creativecommons.org/ns#Reproduction"/>
<cc:permits rdf:resource="http://creativecommons.org/ns#Distribution"/>
<cc:requires rdf:resource="http://creativecommons.org/ns#Notice"/>
<cc:requires rdf:resource="http://creativecommons.org/ns#Attribution"/>
<cc:permits rdf:resource="http://creativecommons.org/ns#DerivativeWorks"/>
<cc:requires rdf:resource="http://creativecommons.org/ns#ShareAlike"/>
</cc:License>
</rdf:RDF>
</metadata>
<g transform="translate(0 -1026.5)">
<g transform="translate(-.14896 1026.1)">
<path d="m89.292 0.41503h-82.286c-3.7988 0-6.8571 3.0583-6.8571 6.8571v82.286c0 3.7989 3.0583 6.8571 6.8571 6.8571h82.286c3.7989 0 6.8571-3.0583 6.8571-6.8571v-82.286c0-3.7989-3.0583-6.8571-6.8571-6.8571z" opacity=".15"/>
<path d="m88.649 1.165h-81c-3.7395 0-6.75 3.0105-6.75 6.75v81c0 3.7395 3.0105 6.75 6.75 6.75h81c3.7395 0 6.75-3.0105 6.75-6.75v-81c0-3.7395-3.0105-6.75-6.75-6.75z" opacity=".15"/>
<path d="m88.006 1.915h-79.714c-3.6801 0-6.6429 2.9627-6.6429 6.6429v79.714c0 3.6801 2.9627 6.6429 6.6429 6.6429h79.714c3.6801 0 6.6429-2.9627 6.6429-6.6429v-79.714c0-3.6801-2.9627-6.6429-6.6429-6.6429z" fill="url(#linearGradient4071)"/>
<path d="m11.39 6.8022c-2.8565 0-5.1241 2.2884-5.1241 5.171v68.58c1.0972 1.6845 2.9688 2.8117 5.1241 2.8117h73.787c2.1553 0 4.0269-1.1272 5.1241-2.8117v-68.58c0-2.8826-2.2676-5.171-5.1241-5.171z" fill="#f2f7f9" opacity=".77865"/>
<path d="m9.974 5.1445c-3.1166 0-5.668 2.5395-5.668 5.646v69.278c0 3.1065 2.5513 5.646 5.668 5.646h76.792c3.1166 0 5.668-2.5395 5.668-5.646v-69.278c0-3.1065-2.5513-5.646-5.668-5.646zm0 2.3194h76.792c1.8881 0 3.352 1.4801 3.352 3.3266v69.278c0 1.8465-1.4639 3.3266-3.352 3.3266h-76.792c-1.8881 0-3.352-1.4801-3.352-3.3266v-69.278c0-1.8465 1.4639-3.3266 3.352-3.3266z" color="#000000" fill="#241f1f" fill-opacity=".63265" style="text-decoration-line:none;text-indent:0;text-transform:none"/>
<path d="m1.649 82.259v6c0 3.6801 2.9761 6.6562 6.6562 6.6562h79.687c3.6801 0 6.6563-2.9761 6.6563-6.6562v-6c0 3.6801-2.9761 6.6562-6.6563 6.6562h-79.687c-3.6801 0-6.6562-2.9761-6.6562-6.6562z" fill="url(#linearGradient4129)" opacity=".65818"/>
<rect x="5.524" y="80.665" width="84.25" height="4.25" rx="0" ry="4.25" fill="url(#radialGradient7462)" opacity=".55"/>
<rect transform="rotate(90)" x="5.975" y="-90.234" width="76.75" height="4.25" rx="0" ry="4.25" fill="url(#radialGradient7464)" opacity=".669"/>
<g transform="matrix(1.0984 0 0 1.0984 -4.5761 -7.3101)">
<path d="m14.147 48c0 18.696 15.156 33.853 33.853 33.853s33.853-15.156 33.853-33.853-15.156-33.853-33.853-33.853-33.853 15.156-33.853 33.853zm8.4632 0c0-14.022 11.367-25.39 25.39-25.39s25.39 11.367 25.39 25.39-11.367 25.39-25.39 25.39-25.39-11.367-25.39-25.39z" color="#000000" fill="#341c86" opacity=".751"/>
<path transform="matrix(1.0833 0 0 1.0833 -4 -4)" d="m72 48a24 24 0 1 1-48 0 24 24 0 1 1 48 0z" color="#000000" fill="url(#radialGradient3914-4)"/>
<path d="m48.281 17.031c-17.081 0-30.969 13.888-30.969 30.969s13.888 30.969 30.969 30.969c17.081 0 30.969-13.888 30.969-30.969s-13.888-30.969-30.969-30.969zm-0.28125 9.9062c11.658 0 21.062 9.4048 21.062 21.062s-9.4048 21.062-21.062 21.062c-11.658 0-21.062-9.4048-21.062-21.062s9.4048-21.062 21.062-21.062zm0 2.125c-10.439 0-18.938 8.4989-18.938 18.938s8.4989 18.938 18.938 18.938c10.439 0 18.938-8.4989 18.938-18.938s-8.4989-18.938-18.938-18.938z" color="#000000" opacity=".08"/>
<path d="m48.281 18c-16.55 0-30 13.45-30 30s13.45 30 30 30c16.55 0 30-13.45 30-30s-13.45-30-30-30zm-0.28125 7.9688c12.185 0 22.031 9.8459 22.031 22.031s-9.8459 22.031-22.031 22.031c-12.185 0-22.031-9.8459-22.031-22.031s9.8459-22.031 22.031-22.031zm0 4.0625c-9.9073 0-17.969 8.0615-17.969 17.969s8.0615 17.969 17.969 17.969c9.9073 0 17.969-8.0615 17.969-17.969s-8.0615-17.969-17.969-17.969z" color="#000000" opacity=".2"/>
<path d="m48.281 19c-16.009 0-29 12.991-29 29s12.991 29 29 29c16.009 0 29-12.991 29-29s-12.991-29-29-29zm-0.28125 5.9688c12.725 0 23.031 10.306 23.031 23.031s-10.306 23.031-23.031 23.031c-12.725 0-23.031-10.306-23.031-23.031s10.306-23.031 23.031-23.031zm0 6.0625c-9.3659 0-16.969 7.6028-16.969 16.969s7.6028 16.969 16.969 16.969c9.3659 0 16.969-7.6028 16.969-16.969s-7.6028-16.969-16.969-16.969z" color="#000000" opacity=".4"/>
<path d="m48 24c-13.255 0-24 10.745-24 24 0 0.16558-0.0033 0.33522 0 0.5 0.26384-13.026 10.911-23.5 24-23.5s23.736 10.474 24 23.5c0.003338-0.16478 0-0.33442 0-0.5 0-13.255-10.745-24-24-24z" color="#000000" opacity=".6"/>
<path d="m16 48c0 17.673 14.327 32 32 32s32-14.327 32-32-14.327-32-32-32-32 14.327-32 32zm8 0c0-13.255 10.745-24 24-24s24 10.745 24 24-10.745 24-24 24-24-10.745-24-24z" color="#000000" fill="url(#linearGradient1007)"/>
<path d="m64 48a16 16 0 1 1-32 0 16 16 0 1 1 32 0z" color="#000000" fill="#34495e"/>
<path transform="matrix(.69078 0 0 .46875 14.843 18)" d="m64 48a16 16 0 1 1-32 0 16 16 0 1 1 32 0z" color="#000000" fill="url(#linearGradient3875-0)" opacity=".6"/>
<path d="m33.031 47.5c-0.00556 0.16786-0.03125 0.33078-0.03125 0.5 0 8.2843 6.7157 15 15 15s15-6.7157 15-15c0-0.16922-0.02569-0.33214-0.03125-0.5-0.26665 8.0502-6.8537 14.5-14.969 14.5s-14.702-6.4498-14.969-14.5z" color="#000000" fill="#fff" opacity=".2"/>
<path d="m43.386 39.195c-1.811 0.09931-3.3125 1.8572-3.1583 3.7033-0.0021 4.2286 0.0041 8.4572-0.0031 12.686 0.10605 1.6103 1.4031 3.0381 2.9866 3.2031 1.3777 0.24681 2.5185-0.67327 3.6498-1.3122 3.0699-1.8195 6.1686-3.622 9.2205-5.452 1.456-0.82692 2.1191-2.8028 1.4356-4.3566-0.50565-1.4096-1.9502-1.9504-3.1064-2.6799-3.0649-1.7962-6.1117-3.629-9.1878-5.4023-0.56756-0.2817-1.1955-0.4699-1.8369-0.38903z" color="#000000" opacity=".08"/>
<path transform="matrix(.39947 0 0 .40764 28.044 32.698)" d="m38.75 20.375a4.1237 4.1237 0 0 0-3.8125 4.125v15.5 15.5a4.1237 4.1237 0 0 0 6.1875 3.5625l13.406-7.75 13.406-7.75a4.1237 4.1237 0 0 0 0-7.125l-13.406-7.75-13.406-7.75a4.1237 4.1237 0 0 0-2.375-0.5625z" color="#000000" opacity=".3"/>
<path transform="matrix(.39947 0 0 .40764 28.044 31.698)" d="m38.75 20.375a4.1237 4.1237 0 0 0-3.8125 4.125v15.5 15.5a4.1237 4.1237 0 0 0 6.1875 3.5625l13.406-7.75 13.406-7.75a4.1237 4.1237 0 0 0 0-7.125l-13.406-7.75-13.406-7.75a4.1237 4.1237 0 0 0-2.375-0.5625z" color="#000000" fill="url(#linearGradient4100-5)"/>
<path d="m48 16c-17.673 0-32 14.327-32 32 0 0.16667-0.0025 0.33394 0 0.5 0.26671-17.443 14.494-31.5 32-31.5s31.733 14.057 32 31.5c0.002539-0.16606 0-0.33333 0-0.5 0-17.673-14.327-32-32-32z" color="#000000" fill="#fff" opacity=".6"/>
<path d="m74 48c0-14.359-11.641-26-26-26s-26 11.641-26 26 11.641 26 26 26 26-11.641 26-26zm-2 0c0 13.255-10.745 24-24 24s-24-10.745-24-24 10.745-24 24-24 24 10.745 24 24z" color="#000000" fill="url(#linearGradient3985-9)"/>
<g transform="matrix(.70711 .70711 -.18213 .18213 39.772 -12.361)" clip-path="url(#clipPath4014-2)">
<rect x="48" y="15" width="1" height="66" color="#000000" opacity=".6"/>
<rect x="49" y="15" width="1" height="66" color="#000000" opacity=".2"/>
<rect x="47" y="15" width="1" height="66" color="#000000" fill="#fff" opacity=".4"/>
</g>
<g transform="matrix(-.70711 .70711 .18213 .18213 56.228 -12.361)" clip-path="url(#clipPath4014-2)">
<rect x="48" y="15" width="1" height="66" color="#000000" opacity=".6"/>
<rect x="49" y="15" width="1" height="66" color="#000000" opacity=".2"/>
<rect x="47" y="15" width="1" height="66" color="#000000" fill="#fff" opacity=".4"/>
</g>
<g transform="matrix(-.70711 -.70711 .18213 -.18213 56.228 108.36)" clip-path="url(#clipPath4014-2)">
<rect x="48" y="15" width="1" height="66" color="#000000" opacity=".6"/>
<rect x="49" y="15" width="1" height="66" color="#000000" opacity=".2"/>
<rect x="47" y="15" width="1" height="66" color="#000000" fill="#fff" opacity=".4"/>
</g>
<g transform="matrix(.70711 -.70711 -.18213 -.18213 39.772 108.36)" clip-path="url(#clipPath4014-2)">
<rect x="48" y="15" width="1" height="66" color="#000000" opacity=".6"/>
<rect x="49" y="15" width="1" height="66" color="#000000" opacity=".2"/>
<rect x="47" y="15" width="1" height="66" color="#000000" fill="#fff" opacity=".4"/>
</g>
<g fill="none" stroke="#131313" stroke-width=".18208">
<path d="m21.037 50.099-1.0579 0.83504 0.09339 0.85232 1.1358-0.12445 0.04063 0.37083-2.7356 0.29974-0.14104-1.2872c-0.01702-0.15532-0.01393-0.2945 0.0093-0.41756 0.02176-0.1242 0.06182-0.23076 0.12019-0.31968 0.05837-0.08892 0.13376-0.16005 0.22615-0.2134 0.0924-0.05335 0.19943-0.08669 0.32109-0.10002 0.08672-0.0095 0.17357-0.0059 0.26053 0.01075 0.08683 0.01538 0.16817 0.04642 0.24402 0.09312 0.07585 0.04671 0.14363 0.10936 0.20332 0.18796 0.0597 0.0786 0.10636 0.17566 0.13997 0.29117l1.0934-0.90573 0.0468 0.42713m-1.9433 0.26794c-0.08284 0.0091-0.15311 0.03119-0.21083 0.06633-0.05771 0.03514-0.10365 0.08209-0.13782 0.14085-0.03546 0.0589-0.05864 0.12825-0.06955 0.20803-0.0122 0.07993-0.01291 0.16908-0.0021 0.26745l0.09637 0.8795 1.0096-0.11062-0.09807-0.89503c-0.01163-0.10613-0.03464-0.19661-0.06904-0.27144-0.03569-0.07468-0.07953-0.13406-0.13151-0.17814-0.05212-0.04537-0.11118-0.07623-0.17715-0.09258-0.06611-0.01764-0.13606-0.02242-0.20984-0.01434"/>
<path d="m20.972 49.155-2.7519 0.01802-0.01367-2.0878 0.30468-2e-3 0.01123 1.7148 0.88279-0.0058-0.01046-1.5976 0.30078-2e-3 0.01046 1.5976 0.95896-0.0063-0.01175-1.7949 0.30468-2e-3 0.0142 2.1679"/>
<path d="m21.258 43.873-0.05042 0.44245-1.7908 0.27557c-0.05078 0.0086-0.11077 0.01752-0.17996 0.02667-0.06904 0.0079-0.1347 0.01479-0.19698 0.0208-0.07292 0.0074-0.14714 0.01469-0.22265 0.0218 0.07312 0.02537 0.14437 0.04987 0.21376 0.0735 0.06048 0.02131 0.12282 0.04349 0.18703 0.06653 0.06421 0.02305 0.12009 0.04448 0.16762 0.06432l1.6824 0.67531-0.05042 0.44245-2.826 0.49373 0.04401-0.38617 1.7928-0.29303c0.08401-0.0127 0.16723-0.02419 0.24965-0.03445 0.08257-0.01156 0.15636-0.02084 0.22137-0.02785 0.07695-0.0083 0.14988-0.01568 0.21877-0.02225-0.08705-0.02958-0.17274-0.05965-0.25706-0.09023-0.03519-0.01318-0.07232-0.02659-0.1114-0.04022-0.03907-0.01362-0.0775-0.02718-0.11528-0.04066-0.03763-0.01477-0.0734-0.02868-0.1073-0.04171-0.03504-0.01448-0.067-0.02729-0.09587-0.03845l-1.6477-0.66939 0.04047-0.35512 1.7561-0.28149c0.03064-0.0044 0.06459-9e-3 0.10184-0.01395 0.03611-0.0064 0.07409-0.01187 0.11393-0.0165 0.0387-0.0061 0.07861-0.01135 0.11975-0.01584 0.04114-0.0045 0.08033-0.0092 0.11759-0.01412 0.08904-0.01082 0.17994-0.02077 0.27271-0.02986 1.47e-4 -0.0013-0.02118-0.0096-0.06399-0.02498-0.0441-0.01551-0.0989-0.03486-0.16441-0.05805-0.0655-0.02319-0.13603-0.04826-0.21159-0.07522-0.07671-0.0284-0.14759-0.05613-0.21265-0.08321l-1.6817-0.68113 0.04401-0.38617 2.6425 1.1169"/>
<path d="m44.229 21.262-0.38259 0.05638-1.5123-2.5588 0.38838-0.05724 1.0361 1.8057c0.02786 0.05512 0.05573 0.11024 0.0836 0.16536 0.02768 0.05383 0.05256 0.10215 0.07467 0.14496 0.02582 0.05016 0.0508 0.09912 0.07495 0.14689 0.0084-0.04994 0.01778-0.10265 0.02803-0.15812 0.0088-0.04736 0.01806-0.10071 0.02774-0.16005 0.01097-0.05953 0.02285-0.12182 0.03563-0.18688l0.46723-2.0273 0.38838-0.05724-0.70981 2.8863"/>
<path d="m48.225 19.578c0.0086 0.21467-0.01475 0.41108-0.07013 0.58923-0.05409 0.1781-0.13717 0.33195-0.24924 0.46156-0.11207 0.12961-0.25132 0.23164-0.41773 0.30609-0.16642 0.07446-0.35696 0.116-0.57163 0.12463-0.22638 0.0091-0.4262-0.01805-0.59946-0.08145-0.17331-0.0647-0.3191-0.15788-0.43736-0.27953-0.11832-0.12295-0.2096-0.27044-0.27386-0.44248-0.06425-0.17204-0.10054-0.36148-0.10886-0.56835-0.0086-0.21467 0.0135-0.40973 0.06639-0.58517 0.05289-0.17544 0.1348-0.32599 0.24572-0.45164 0.11087-0.12695 0.24957-0.22635 0.41609-0.29821 0.16777-0.0732 0.36159-0.11423 0.58146-0.12307 0.21857-0.0088 0.41376 0.0166 0.58556 0.07614 0.1731 0.0595 0.31936 0.1481 0.43877 0.26579 0.12071 0.11764 0.21446 0.26178 0.28127 0.43241 0.0668 0.17063 0.10447 0.36198 0.113 0.57405m-0.38055 0.0153c-0.0066-0.16523-0.03416-0.31464-0.08253-0.44822-0.04708-0.13363-0.11418-0.24691-0.20132-0.33984-0.08584-0.09298-0.19095-0.16303-0.31534-0.21016-0.12439-0.04712-0.2666-0.06747-0.42662-0.06103-0.16393 0.0066-0.30665 0.03839-0.42815 0.0954-0.12151 0.05701-0.22196 0.13533-0.30135 0.23495-0.07809 0.09957-0.13524 0.21785-0.17143 0.35483-0.03489 0.13693-0.04901 0.28801-0.04237 0.45324 0.0066 0.16523 0.03355 0.31596 0.08073 0.4522 0.04843 0.13488 0.11564 0.25076 0.20163 0.34765 0.08724 0.09553 0.19314 0.16881 0.31768 0.21984 0.12579 0.04967 0.2687 0.07129 0.42873 0.06486 0.17174-0.0069 0.31828-0.04082 0.43963-0.10173 0.12265-0.06097 0.22167-0.14248 0.29706-0.24455 0.07663-0.10342 0.13104-0.22485 0.16323-0.36428 0.03348-0.13948 0.04696-0.29053 0.04042-0.45316"/>
<path d="m48.799 20.999 0.16196-2.7472 0.3724 0.02196-0.14403 2.443 1.3882 0.08184-0.01793 0.30416-1.7606-0.1038"/>
<path d="m51.056 21.172 0.05167-0.4246 0.37807 0.04601-0.05168 0.4246-0.37807-0.04601"/>
<path d="m54.438 20.56-0.18796 0.81453-0.27976-0.06456 0.18796-0.81453-0.80692-0.1862 0.06412-0.27785 0.80692 0.1862 0.18796-0.81453 0.27976 0.06455-0.18796 0.81453 0.80692 0.1862-0.06412 0.27786-0.80692-0.1862"/>
<path d="m77.198 44.381-1.0177 0.1086 0.16291 1.5265-0.30685 0.03275-0.16291-1.5265-1.1089 0.11835-0.03959-0.37094 2.7364-0.29203 0.20747 1.944-0.30297 0.03233-0.16788-1.5731"/>
<path d="m74.963 49.328 0.0038-0.4453 1.7521-0.46162c0.0496-0.0139 0.10832-0.02903 0.17618-0.04537 0.06784-0.01505 0.13241-0.02882 0.19372-0.04132 0.07174-0.01502 0.14479-0.03002 0.21914-0.04501-0.07538-0.01757-0.1488-0.03448-0.22028-0.05071-0.06238-0.01486-0.1267-0.03038-0.19297-0.04657-0.06627-0.01619-0.12408-0.03166-0.17344-0.0464l-1.7439-0.49538 0.0038-0.4453 2.7588-0.78702-0.0033 0.38866-1.7522 0.4792c-0.08222 0.02143-0.16377 0.04157-0.24467 0.06041-0.0809 0.02014-0.15332 0.0371-0.21724 0.05088-0.07566 0.01628-0.14741 0.03129-0.21524 0.04504 0.08967 0.0203 0.17804 0.04123 0.2651 0.06281 0.03638 0.0094 0.07471 0.01887 0.115 0.02833 0.04028 0.0095 0.07992 0.01891 0.1189 0.02836 0.03897 0.01075 0.076 0.02083 0.11107 0.03025 0.03637 0.01073 0.06949 0.02012 0.09937 0.02819l1.7087 0.49312-0.0031 0.35741-1.7169 0.46387c-0.03001 0.0076-0.06329 0.01573-0.09982 0.02454-0.03524 0.01011-0.07244 0.01956-0.11157 0.02835-0.03785 0.01009-0.07699 0.01952-0.11743 0.02829-0.04044 0.0088-0.07893 0.01755-0.11546 0.02636-0.08741 0.02009-0.17678 0.0395-0.26808 0.05826-1.1e-5 0.0013 0.02207 0.0073 0.06625 0.01814 0.04548 0.0108 0.10201 0.02431 0.16958 0.04051 0.06757 0.0162 0.14034 0.03375 0.21831 0.05265 0.07926 0.02021 0.15266 0.04036 0.2202 0.06048l1.7438 0.50124-0.0033 0.38866-2.7449-0.83402"/>
<path d="m75.964 53.012c-0.22715-0.03032-0.42328-0.09131-0.58839-0.18297-0.16382-0.09149-0.29652-0.20444-0.39812-0.33885-0.10031-0.13424-0.16994-0.28672-0.2089-0.45744-0.03784-0.16926-0.04427-0.34745-0.01929-0.5346l0.13617-1.0202 2.7278 0.36408-0.12041 0.90216c-0.02808 0.21037-0.08038 0.40044-0.15689 0.57019-0.0754 0.17122-0.17648 0.31339-0.30323 0.42652-0.12547 0.1133-0.27683 0.19425-0.45409 0.24284-0.17743 0.04988-0.3823 0.05932-0.61462 0.02831m0.04961-0.3717c0.18456 0.02463 0.34555 0.01919 0.48297-0.01633 0.13871-0.03535 0.25638-0.09518 0.35302-0.17948 0.09664-0.08431 0.17319-0.19035 0.22965-0.31812 0.05775-0.1276 0.09722-0.27077 0.11841-0.42952l0.07003-0.52464-2.1354-0.28501-0.08114 0.60789c-0.01912 0.14326-0.01355 0.27865 0.01672 0.40617 0.0301 0.12881 0.08502 0.24386 0.16477 0.34514 0.07975 0.10128 0.18467 0.18622 0.31476 0.25482 0.13009 0.06859 0.28548 0.11495 0.46617 0.13907"/>
<path d="m51.636 74.753 0.38274-0.05536 1.5054 2.5628-0.38854 0.0562-1.0312-1.8085c-0.02772-0.05519-0.05544-0.11039-0.08315-0.16558-0.02753-0.05391-0.05229-0.10229-0.07428-0.14516-0.02568-0.05023-0.05054-0.09926-0.07456-0.14709-0.0086 0.04992-0.01805 0.1026-0.02845 0.15804-0.0089 0.04734-0.01833 0.10066-0.02817 0.15998-0.01113 0.0595-0.02317 0.12176-0.03613 0.18678l-0.47266 2.026-0.38854 0.0562 0.71754-2.8844"/>
<path d="m47.636 76.426c-8e-3 -0.21469 0.01587-0.41104 0.07173-0.58904 0.05457-0.17795 0.13807-0.33158 0.25049-0.46088 0.11242-0.1293 0.25194-0.23096 0.41856-0.30496 0.16662-0.074 0.35727-0.11503 0.57196-0.12308 0.2264-0.0085 0.42615 0.01921 0.59924 0.08308 0.17314 0.06517 0.31867 0.15875 0.4366 0.28072 0.11798 0.12327 0.20887 0.27101 0.27265 0.44322 0.06379 0.17221 0.09956 0.36176 0.10732 0.56864 8e-3 0.21469-0.01461 0.40969-0.06798 0.58499-0.05337 0.1753-0.13568 0.32562-0.24695 0.45097-0.11122 0.12665-0.25018 0.22567-0.4169 0.29708-0.16796 0.07275-0.3619 0.11324-0.5818 0.12149-0.2186 0.0082-0.41371-0.01772-0.58535-0.07774-0.17294-0.05997-0.31895-0.14897-0.43804-0.26698-0.12039-0.11797-0.21375-0.26236-0.2801-0.43317-0.06634-0.17081-0.10348-0.36226-0.11144-0.57435m0.38059-0.01427c0.0062 0.16525 0.0333 0.31473 0.08131 0.44844 0.04671 0.13376 0.11351 0.24722 0.20039 0.34039 0.08559 0.09321 0.19051 0.16355 0.31477 0.21101 0.12426 0.04746 0.26642 0.06819 0.42646 0.06219 0.16395-0.0061 0.30675-0.03756 0.42841-0.09424 0.12166-0.05668 0.22232-0.13473 0.30199-0.23413 0.07836-0.09936 0.13583-0.21748 0.17239-0.35436 0.03526-0.13684 0.0498-0.28788 0.0436-0.45312-0.0062-0.16525-0.0327-0.31606-0.0795-0.45242-0.04806-0.13501-0.11495-0.25108-0.20068-0.3482-0.08698-0.09577-0.19268-0.16933-0.31708-0.2207-0.12566-0.05002-0.26851-0.07202-0.42856-0.06602-0.17175 0.0064-0.31839 0.03995-0.4399 0.10054-0.12281 0.06063-0.22205 0.14188-0.29772 0.24374-0.07691 0.10321-0.13165 0.22449-0.16422 0.36383-0.03386 0.13939-0.04775 0.2904-0.04165 0.45305"/>
<path d="m47.066 75.004-0.16949 2.7467-0.37234-0.02298 0.15072-2.4426-1.388-0.08565 0.01877-0.30411 1.7603 0.10862"/>
<path d="m44.809 74.825-0.05284 0.42446-0.37794-0.04705 0.05284-0.42446 0.37794 0.04705"/>
<path d="m43.742 75.599-0.05271 0.30802-0.96257-0.16473 0.05271-0.30802 0.96257 0.16473"/>
</g>
</g>
<rect transform="matrix(1.0692 0 0 1.0477 4.4442 38.894)" x="2" y="-30" width="75.966" height="69.024" rx="3.957" ry="3.957" clip-path="url(#clipPath4156-4-1)" fill="url(#linearGradient4767)" opacity=".50781"/>
<g transform="matrix(1.6755 0 0 1.6755 33.454 -8.5402)">
<path d="m19.968 16.436c-2.5437 0.68138-6.6236 8.4946-6.6236 8.4946l4.0784 13.12 15.015-2.7072-5.5246-14.956s-4.4019-4.6333-6.9456-3.9519zm0.4318 2.7645c1.5805-0.42336 3.055 0.47114 3.2935 1.9979 0.23848 1.5268-0.84941 3.1077-2.4299 3.531-1.5805 0.42336-3.055-0.47114-3.2935-1.9979-0.23848-1.5268 0.84942-3.1077 2.4299-3.531z" color="#000000" fill-opacity=".13428"/>
<path d="m17.701 15.387c-2.0509 0.56576-4.6675 7.0808-4.6675 7.0808l4.0311 14.612 12.305-3.3946-4.0311-14.612s-5.5869-4.252-7.6378-3.6862zm0.63648 2.3072c1.2742-0.35152 2.5922 0.3965 2.9437 1.6707 0.35152 1.2742-0.3965 2.5922-1.6707 2.9437-1.2742 0.35152-2.5922-0.3965-2.9437-1.6707-0.35152-1.2742 0.3965-2.5922 1.6707-2.9437z" color="#000000" fill="#f3f3ca" fill-opacity=".893" stroke="#6a6a6a" stroke-width=".29842"/>
<path transform="translate(-2.5844 9.7451)" d="m20.062 0-0.09375 9.25a1.0001 1.0001 0 1 0 2 0l0.09375-9.25z" color="#000000" fill="url(#linearGradient3529-3)" style="text-decoration-line:none;text-indent:0;text-transform:none"/>
</g>
</g>
</g>
</svg>
