<?xml version="1.0" encoding="UTF-8"?>
<svg version="1.1" viewBox="0 0 96 96" xmlns="http://www.w3.org/2000/svg" xmlns:cc="http://creativecommons.org/ns#" xmlns:dc="http://purl.org/dc/elements/1.1/" xmlns:rdf="http://www.w3.org/1999/02/22-rdf-syntax-ns#" xmlns:xlink="http://www.w3.org/1999/xlink">
<metadata>
<rdf:RDF>
<cc:Work rdf:about="">
<dc:format>image/svg+xml</dc:format>
<dc:type rdf:resource="http://purl.org/dc/dcmitype/StillImage"/>
<dc:title/>
</cc:Work>
</rdf:RDF>
</metadata>
<defs>
<linearGradient id="ButtonShadow" x1="45.448" x2="45.448" y1="92.54" y2="7.0165" gradientTransform="scale(1.0059 .99417)" gradientUnits="userSpaceOnUse">
<stop offset="0"/>
<stop stop-opacity=".58824" offset="1"/>
</linearGradient>
<linearGradient id="linearGradient3737">
<stop stop-color="#fff" offset="0"/>
<stop stop-color="#fff" stop-opacity="0" offset="1"/>
</linearGradient>
<filter id="filter3174" color-interpolation-filters="sRGB">
<feGaussianBlur stdDeviation="1.71"/>
</filter>
<linearGradient id="linearGradient3839" x1="45.448" x2="45.448" y1="92.54" y2="7.0165" gradientTransform="scale(1.0059 .99417)" gradientUnits="userSpaceOnUse" xlink:href="#ButtonShadow"/>
<filter id="filter3174-36" color-interpolation-filters="sRGB">
<feGaussianBlur stdDeviation="1.71"/>
</filter>
<filter id="filter3174-3" color-interpolation-filters="sRGB">
<feGaussianBlur stdDeviation="1.71"/>
</filter>
<filter id="filter3174-2" color-interpolation-filters="sRGB">
<feGaussianBlur stdDeviation="1.71"/>
</filter>
<linearGradient id="linearGradient4071" x1="6" x2="90" y1="47" y2="47" gradientTransform="matrix(1.1071 0 0 1.1071 2.9011 -18.701)" gradientUnits="userSpaceOnUse">
<stop stop-color="#b2babc" offset="0"/>
<stop stop-color="#fff" offset=".25"/>
<stop stop-color="#96a1a4" offset=".5"/>
<stop stop-color="#fbf9f9" offset=".75"/>
<stop stop-color="#b2b9bc" offset="1"/>
</linearGradient>
<linearGradient id="linearGradient4129" x1="1.5" x2="94.5" y1="88.172" y2="88.172" gradientTransform="translate(8.044 -14.666)" gradientUnits="userSpaceOnUse">
<stop offset="0"/>
<stop stop-opacity=".58824" offset=".1"/>
<stop stop-opacity=".58824" offset=".9"/>
<stop offset="1"/>
</linearGradient>
<radialGradient id="radialGradient7462-2" cx="13.948" cy="44.893" r="43.199" gradientTransform="matrix(.97513 0 0 .049191 41.943 65.501)" gradientUnits="userSpaceOnUse" xlink:href="#linearGradient3737"/>
<radialGradient id="radialGradient7496-9" cx="13.948" cy="44.893" r="43.199" gradientTransform="matrix(.88833 0 0 .049191 16.879 -98.212)" gradientUnits="userSpaceOnUse" xlink:href="#linearGradient3737"/>
<clipPath id="clipPath4156-4-1">
<path d="m27.046-55.695-14.214 13.321h0.06127l15.653 21.771 10.231-10.546c-0.2169-1.1522-11.311-23.67-11.732-24.546zm-17.079 16.313-15.208 14.062 21.229 17.515 10.385-10.577zm31.491 12.951-9.7413 9.7136 8.9448 12.458 7.7808-7.555zm-49.84 4.3788-13.754 12.982 26.283 13.846 0.06127-0.0617-0.12253-0.0617 9.5132-10.053-22.301-16.652zm38.015 7.4008-9.8025 9.7753 11.579 9.5594 7.6276-7.4008-8.6691-11.009zm20.187 5.674-7.3825 7.2158 6.1878 8.5418 5.8202-6.1365zm-32.195 6.3215-9.5575 9.4977 13.662 7.185 7.9339-7.6784zm23.312 2.3744-7.1068 6.9383 8.3628 6.9074 5.3608-5.674-0.06127-0.0925-0.0919 0.12335-6.4635-8.2026zm-8.7304 8.5418-7.5051 7.3392 10.354 5.4581c1.3975-1.321 5.6751-6.1229 5.8509-6.3215z" fill="#fff" opacity=".6"/>
</clipPath>
<linearGradient id="linearGradient1104" x1="2.7714" x2="50.528" y1="-28.962" y2="14.514" gradientUnits="userSpaceOnUse" xlink:href="#linearGradient3737"/>
</defs>
<g display="none">
<rect x="5" y="7" width="86" height="85" rx="6" ry="6" fill="url(#linearGradient3839)" filter="url(#filter3174)" opacity=".9"/>
</g>
<g transform="translate(-1e-6,32)">
<g transform="translate(-8.044 -17.334)">
<g transform="translate(251.29 -104.9)">
<g display="none">
<rect x="5" y="7" width="86" height="85" rx="6" ry="6" fill="url(#linearGradient3839)" filter="url(#filter3174-3)" opacity=".9"/>
</g>
</g>
<path d="m97.187-14.666h-82.286c-3.7988 0-6.8571 3.0583-6.8571 6.8571v82.286c0 3.7989 3.0583 6.8571 6.8571 6.8571h82.286c3.7989 0 6.8571-3.0583 6.8571-6.8571v-82.286c0-3.7989-3.0583-6.8571-6.8571-6.8571z" opacity=".15"/>
<path d="m96.864-13.916h-81c-3.7395 0-6.75 3.0105-6.75 6.75v81c0 3.7395 3.0105 6.75 6.75 6.75h81c3.7395 0 6.75-3.0105 6.75-6.75v-81c0-3.7395-3.0105-6.75-6.75-6.75z" opacity=".15"/>
<path d="m95.901-13.166h-79.714c-3.6801 0-6.9629 2.9627-6.9629 6.9629v79.394c0 3.6801 2.9627 6.9629 6.9629 6.9629h79.714c3.6801 0 6.9629-2.9627 6.9629-6.9629v-79.714c0-3.6801-2.9627-6.9629-6.9629-6.9629z" fill="url(#linearGradient4071)"/>
<path d="m19.285-8.2784c-2.8597 0-5.1241 2.2884-5.1241 5.171v68.58c1.0972 1.6845 2.9688 2.8117 5.1241 2.8117h73.787c2.1553 0 4.0269-1.1272 5.1241-2.8117v-68.58c0-2.8826-2.2676-5.171-5.1241-5.171z" fill="#e8e8e8" opacity=".9"/>
<path d="m17.869-9.9361c-3.1166 0-5.668 2.5395-5.668 5.966v69.278c0 3.1097 2.5513 5.966 5.668 5.966h76.792c3.1166 0 5.668-2.5395 5.668-5.966v-69.598c0-3.1097-2.5513-5.966-5.668-5.966zm0 2.3194h76.792c1.8881 0 3.352 1.4801 3.352 3.3266v69.278c0 1.8497-1.4639 3.3266-3.352 3.3266h-76.792c-1.8881 0-3.352-1.4801-3.352-3.3266v-69.278c0-1.8497 1.4639-3.3266 3.352-3.3266z" color="#000000" fill="#1f2224" fill-opacity=".71875" style="text-decoration-line:none;text-indent:0;text-transform:none"/>
<path d="m9.864 67.178v6c0 3.6801 2.9761 6.6562 6.6562 6.6562h79.368c3.6801 0 6.6563-2.9761 6.6563-6.6562v-6c0 3.6801-2.9761 6.6562-6.6563 6.6562h-79.688c-3.6801 0-6.6562-2.9761-6.6562-6.6562z" fill="url(#linearGradient4129)" opacity=".65818"/>
<rect x="13.419" y="65.584" width="84.25" height="4.25" rx="0" ry="4.25" fill="url(#radialGradient7462-2)" opacity=".55"/>
<rect transform="rotate(90)" x="-9.1056" y="-98.129" width="76.75" height="4.25" rx="0" ry="4.25" fill="url(#radialGradient7496-9)" opacity=".669"/>
<g transform="translate(121.5 .6499)">
<path d="m-69.154-1.5895c-1.6706 0.0592-3.3894 0.30658-4.9719 0.84176a2.3666 2.2402 0 0 0-0.17899 0.083367 2.3752 2.2483 0 0 0-0.17899 0.083367c-0.02557 0.00843-0.0625-0.00843-0.08807 0a2.3752 2.2483 0 0 0-0.17899 0.083367c-3.8752 1.4872-6.8698 4.432-8.9665 7.7318a2.3666 2.2402 0 0 0-0.53412 0.67232 2.3666 2.2402 0 0 0-0.35514 0.84176c-1.7444 3.324-2.5343 6.8147-2.6649 10.002a2.3666 2.2402 0 0 0 0 0.50559 2.3666 2.2402 0 0 0 0 0.7557c0.01705 2.4527 0.4148 4.6471 0.88927 6.5566-1.6848 0.79872-3.9037 1.9686-6.3044 3.6978-0.07391 0.05377-0.19319 0.0296-0.26706 0.08337a2.3666 2.2402 0 0 0-0.08805 0.08337 2.3666 2.2402 0 0 0-0.88926 0.7557c-2.7416 2.2079-5.0486 4.908-6.5714 8.1486a2.3666 2.2402 0 0 0-0.26707 0.5056 2.3666 2.2402 0 0 0-0.17899 0.67232c-1.3779 3.445-1.9464 7.3257-0.88925 11.01a2.3666 2.2402 0 0 0 0.088 0.41953c8e-3 0-8e-3 0.0592 0 0.08337a2.3666 2.2402 0 0 0 0.088 0.33616 2.3865 2.259 0 0 0 0.17899 0.41953c1.4461 3.6467 4.4378 6.5888 8.1681 8.3207a2.3666 2.2402 0 0 0 0.26707 0.08337c0.0341 0.01611 0.05395 0.06997 0.08805 0.08337a2.3666 2.2402 0 0 0 0.53412 0.2528 2.3666 2.2402 0 0 0 0.44321 0.16943c4.0315 1.4899 8.5517 1.5813 12.609 0.84176a2.3666 2.2402 0 0 0 0.44321-0.08337 2.3666 2.2402 0 0 0 0.44321-0.08337c3.8809-0.84176 7.4593-2.5038 9.8557-4.2034a2.3666 2.2402 0 0 0 0.17899-0.08337c0.10796-0.06726 0.25002-0.09951 0.35514-0.16943 0.12501-0.08065 0.23297-0.16942 0.35514-0.25279a2.3666 2.2402 0 0 0 0.17899-0.16943c1.0626-0.72073 1.9888-1.463 2.8411-2.1864 0.12501 0.07531 0.22759 0.1775 0.35514 0.2528a2.3666 2.2402 0 0 0 0.44321 0.33617c0.02273 0.01349 0.06535-0.01349 0.08808 0a2.3666 2.2402 0 0 0 0.44321 0.16942c2.4149 1.3205 5.3924 2.5844 8.8784 3.3616a2.3666 2.2402 0 0 0 0.17899 0.08337c0 0.0056 0.05966-0.0056 0.08808 0a2.3666 2.2402 0 0 0 0.65217 0.16943 2.3666 2.2402 0 0 0 0.44321 0.08337c3.6906 0.6535 7.8471 0.65888 11.808-0.41953a2.3666 2.2402 0 0 0 0.71027-0.16943c0.08807 0 0.17899-0.05648 0.26706-0.08337a2.3666 2.2402 0 0 0 0.44321-0.16942c3.9321-1.3635 7.3811-3.9022 9.4125-7.3123a2.3666 2.2402 0 0 0 0.44321-0.67233c1.9348-3.7462 1.949-8.3946 0.53412-12.019a2.3752 2.2483 0 0 0-0.17899-0.50559c-0.02272-0.05648-0.06534-0.11026-0.08808-0.16942a2.3666 2.2402 0 0 0 0-0.08337c-1.5512-3.7301-4.4321-6.7583-7.4579-9.0764a2.3723 2.2456 0 0 0-0.44321-0.41953c-0.06818-0.04843-0.1108-0.11832-0.17899-0.16942a2.3666 2.2402 0 0 0-0.44321-0.16943c-2.8894-2.017-5.8498-3.3159-8.5233-4.2034a2.3865 2.259 0 0 0-0.08808-0.08337c-0.12217-0.04037-0.23581-0.12909-0.35514-0.16943a2.3865 2.259 0 0 0-0.08808 0c-0.15626-0.04843-0.28979-0.03766-0.44321-0.08337a2.3666 2.2402 0 0 0-0.26706-0.08337c-0.09376 0-0.17331-0.05648-0.26706-0.08337 0.04546-0.96277 0.05114-1.9498 0-3.0255a2.3666 2.2402 0 0 0 0-0.92512c-0.0085-0.10757 0.0085-0.22859 0-0.33617a2.3666 2.2402 0 0 0-0.08807-0.08337c-0.2898-3.1331-1.0711-6.6991-3.0201-10.168-0.03126-0.053767-0.05683-0.11295-0.08807-0.16942a2.3666 2.2402 0 0 0-0.20897-0.2528c-1.9774-3.3885-4.9264-6.5243-8.7903-8.4041a2.3837 2.2563 0 0 0-0.26706-0.16943c-0.05966 0-0.11933-0.056484-0.17899-0.083367a2.3666 2.2402 0 0 0-0.44321-0.16942c-1.9177-0.83946-3.9605-1.3097-6.0373-1.428-0.5739-0.03227-1.108-0.021516-1.6876 0zm1.4205 4.4535c1.5967 0.099507 3.1536 0.52173 4.6168 1.1779a2.3666 2.2402 0 0 0 0.08807 0.083367c0.02557 0.010772 0.06535-0.010772 0.08807 0a2.3837 2.2563 0 0 0 0.17899 0.083367c2.8411 1.3796 5.3214 3.9587 6.9266 6.7233a2.3666 2.2402 0 0 0 0.17899 0.16943c0.01136 0.02154-0.01136 0.06454 0 0.08337a2.3666 2.2402 0 0 0 0.26706 0.41953c1.4063 2.6705 2.074 5.5185 2.3098 8.0679a2.3666 2.2402 0 0 0 0 0.16942c0.0057 0.05377-0.0057 0.11296 0 0.16943a2.3666 2.2402 0 0 0 0 0.25279c0.05114 0.78798 0.10512 1.5464 0.08807 2.2698-0.59947-0.1022-1.2302-0.18018-1.7757-0.2528a2.3723 2.2456 0 0 0-0.17899-0.08337h-0.08808a2.3723 2.2456 0 0 0-0.08807 0c-2.1109-0.26355-3.8525-0.36575-5.4151-0.41953a2.3979 2.2698 0 0 0-0.08808 0c-1.5342-0.0592-2.8865-0.03222-4.1736 0a2.3666 2.2402 0 0 0-0.17899 0 2.3666 2.2402 0 0 0-0.26706 0 2.3666 2.2402 0 0 0-0.08808 0c-1.216 0.03766-2.3865 0.11832-3.6394 0.25279a2.3666 2.2402 0 0 0-0.44321 0.08337c-1.2245 0.13446-2.78 0.2528-3.6394 0.41953a2.3808 2.2536 0 0 0-0.7103 0.16943c-1.02 0.14791-2.2359 0.34423-3.8214 0.75569a2.3808 2.2536 0 0 0-0.35514 0.08337 2.3666 2.2402 0 0 0-0.17899 0.08337 2.3666 2.2402 0 0 0-0.88926 0.33617c-1.1165 0.33079-1.9177 0.59434-2.9292 0.92512-0.37502-1.6862-0.66766-3.48-0.65217-5.5481a2.3666 2.2402 0 0 0 0-0.2528c0.0966-2.8345 0.79835-6.0025 2.3098-8.7403a2.3666 2.2402 0 0 0 0.17899-0.33617 2.3666 2.2402 0 0 0 0.08807-0.16942c1.6819-2.8076 4.3213-5.2415 7.2817-6.3038a2.3752 2.2483 0 0 0 0.08807 0 2.3666 2.2402 0 0 0 0.17899-0.083367c1.4745-0.48945 3.111-0.68846 4.7048-0.58896zm2.3979 23.365a2.3666 2.2402 0 0 0 0.44321 0 2.3666 2.2402 0 0 0 0.26706 0c1.1762-0.01883 2.4291 0.0296 3.8214 0.08337a2.3979 2.2698 0 0 0 0.26706 0c1.412 0.04571 2.9348 0.1022 4.7958 0.33616a2.3723 2.2456 0 0 0 0.26706 0c0.9049 0.07803 1.2899 0.21246 1.9547 0.33617-0.0085 0.05114 0.0085 0.11833 0 0.16943-0.33525 1.7965-0.73032 3.2245-1.1535 4.5396a2.3666 2.2402 0 0 0-0.08807 0.25279c-0.01706 0.05648-0.07103 0.11296-0.08808 0.16943a2.3723 2.2456 0 0 0-0.08807 0.25279c-0.38639 1.1537-0.6847 2.1595-1.0654 3.1089a2.3666 2.2402 0 0 0-0.08808 0.16942c-0.02272 0.05377-0.06534 0.11295-0.08807 0.16943a2.3666 2.2402 0 0 0-0.08807 0.25279c-0.02557 0.0592-0.0625 0.10757-0.08808 0.16943a2.3666 2.2402 0 0 0-0.08807 0.16942c-0.34377 0.75301-0.70459 1.4792-1.0654 2.1864a2.3666 2.2402 0 0 0-0.08807 0.16943c0 0.05377-0.05966 0.11295-0.08807 0.16942-0.49435 0.94395-1.0057 1.8906-1.5995 2.8587a2.3666 2.2402 0 0 0-0.08807 0.16943c-0.63924 1.03-1.3211 2.0493-2.2189 3.2783a2.3666 2.2402 0 0 0 0 0.08337 2.3894 2.2617 0 0 0-0.35514 0.50559c-0.71027 0.95202-1.5313 1.974-2.574 3.1088a2.3666 2.2402 0 0 0-0.35514 0.33617c-0.03126 0.03222-0.05683 0.05114-0.08808 0.08337a2.3666 2.2402 0 0 0-0.26706 0.2528c-0.40344-0.30658-0.78982-0.62392-1.1535-0.92512a2.3666 2.2402 0 0 0-0.26706-0.2528c-0.0142-0.01077 0.0142-0.07259 0-0.08337a2.3666 2.2402 0 0 0-0.27006-0.16943 2.3666 2.2402 0 0 0-0.53412-0.38956c-0.95176-0.83907-1.7643-1.6243-2.486-2.3531a2.3666 2.2402 0 0 0-0.53412-0.61894 2.3666 2.2402 0 0 0-0.35514-0.30619c-0.75005-0.82063-1.4262-1.5763-2.0427-2a2.3979 2.2698 0 0 0-0.08808-0.08337c-0.03693-0.043-0.05114-0.12371-0.08807-0.16943a2.3666 2.2402 0 0 0-0.17899-0.16942c-0.63356-0.75301-1.216-1.5006-1.7757-2.2698a2.3666 2.2402 0 0 0 0-0.08337c-0.02273-0.03222-0.06535-0.05114-0.08807-0.08337a2.3666 2.2402 0 0 0-0.08808-0.08337 2.3666 2.2402 0 0 0-0.26706-0.33617c-0.47446-0.68309-0.94608-1.4119-1.4205-2.1864a2.3666 2.2402 0 0 0-0.08808-0.16942c-0.01421-0.02154 0.0142-0.06182 0-0.08337a2.3666 2.2402 0 0 0-0.179-0.2528c-0.57958-0.94395-1.2245-2.0493-1.8638-3.2783a2.3666 2.2402 0 0 0-0.08807-0.2528c-0.03126-0.06454-0.05683-0.10488-0.08808-0.16942a2.3666 2.2402 0 0 0-0.08807-0.08337 2.3666 2.2402 0 0 0-0.08808-0.16943c-0.46878-0.95202-0.88926-2.0143-1.3325-3.1949 1.0995-0.36037 2.0484-0.67232 3.1962-1.0085a2.3666 2.2402 0 0 0 0.26706-0.08337c0.14774-0.043 0.304-0.04571 0.44321-0.08337a2.3808 2.2536 0 0 0 0.26706-0.08337c1.7728-0.48408 2.8695-0.66427 4.0855-0.84176a2.3808 2.2536 0 0 0 0.08808 0c1.2131-0.17481 2.4263-0.3792 3.5514-0.5056a2.3666 2.2402 0 0 0 0.35514 0c0.09092-0.01077 0.17615 0.0084 0.26706 0a2.3666 2.2402 0 0 0 0.08808 0c0.92904-0.09412 1.8098-0.21514 2.753-0.25279zm16.424 1.9636a2.3865 2.259 0 0 0 0.26706 0.08337c2.5541 0.82562 5.3583 2.0116 7.992 3.9506a2.3723 2.2456 0 0 0 0.17899 0.16942c2.6536 1.9928 5.1367 4.7224 6.3044 7.6484a2.3752 2.2483 0 0 0 0.08807 0.16942c1.0768 2.8292 1.0769 5.9784-0.08807 8.4875a2.3666 2.2402 0 0 0-0.08807 0.16942c0 0.05648-0.05966 0.11295-0.08808 0.16943a2.3666 2.2402 0 0 0-0.08807 0.16942c-1.3808 2.528-4.202 4.6687-7.4579 5.7148a2.3666 2.2402 0 0 0-0.26706 0.08337c-3.2815 0.99236-7.134 0.97891-10.478 0.33617-3.3099-0.63469-6.2135-1.8368-8.5233-3.1089a2.3666 2.2402 0 0 0-0.17899-0.08337c0-0.03222 0.05966-0.05377 0.08807-0.08337a2.3666 2.2402 0 0 0 0.17899-0.2528c1.1933-1.2989 2.216-2.4553 3.0201-3.5311a2.3894 2.2617 0 0 0 0.08807-0.08337c0.02272-0.0296 0.06535-0.05377 0.08808-0.08337a2.3894 2.2617 0 0 0 0.17899-0.2528c0.05114-0.07259 0.13085-0.09681 0.17899-0.16942a2.3666 2.2402 0 0 0 0.17899-0.41953c0.69038-0.98161 1.3239-1.904 1.8638-2.7727a2.3666 2.2402 0 0 0 0.17899-0.25279c0.03409-0.05648 0.05398-0.11295 0.08807-0.16943a2.3666 2.2402 0 0 0 0.17899-0.41953c0.4631-0.77183 0.92904-1.5168 1.3325-2.2698a2.3666 2.2402 0 0 0 0.08807-0.16943c0.04547-0.08871 0.13069-0.16405 0.17899-0.25279a2.3666 2.2402 0 0 0 0-0.08337c0.01705-0.03232 0.07103-0.05114 0.08807-0.08337a2.3666 2.2402 0 0 0 0.17899-0.50559c0.35801-0.71267 0.73032-1.428 1.0654-2.1864a2.3666 2.2402 0 0 0 0.26706-0.61893c0.45173-1.0972 0.95461-2.3236 1.4205-3.6978a2.3723 2.2456 0 0 0 0.08807-0.33617c0.02557-0.07531 0.0625-0.17481 0.08808-0.2528a2.3666 2.2402 0 0 0 0.08807-0.41953c0.41764-1.2882 0.88642-2.7646 1.2444-4.5396a2.3865 2.259 0 0 0 0-0.08337zm-36.136 2.7427c0.43184 1.1268 0.90062 2.1353 1.3325 3.0255a2.3666 2.2402 0 0 0 0.17899 0.41953 2.3666 2.2402 0 0 0 0.35514 0.58896c0.57136 1.0919 1.1563 2.06 1.6876 2.9421a2.3666 2.2402 0 0 0 0.26706 0.58896 2.3666 2.2402 0 0 0 0.26706 0.33617c0.5114 0.831 1.0272 1.6109 1.5086 2.3532a2.3666 2.2402 0 0 0 0.35514 0.58896 2.3666 2.2402 0 0 0 0.44321 0.50559c0.48867 0.67771 0.97449 1.3581 1.5086 2.017a2.3666 2.2402 0 0 0 0.17899 0.2528c0.01421 0.01883-0.0142 0.06725 0 0.08337a2.3666 2.2402 0 0 0 0.17899 0.16943 2.3979 2.2698 0 0 0 0.35514 0.33616c0.65217 0.70729 1.3097 1.4334 2.0427 2.1864a2.3666 2.2402 0 0 0 0.17899 0.16942c0.03126 0.03222 0.05966 0.05377 0.08807 0.08337a2.3666 2.2402 0 0 0 0.17899 0.2528 2.3666 2.2402 0 0 0 0.53413 0.50559c0.86085 0.87402 1.8211 1.8207 3.0201 2.8587a2.3666 2.2402 0 0 0 0.26706 0.2528 2.3666 2.2402 0 0 0 0.71027 0.50559c0.2699 0.22321 0.59379 0.44105 0.88926 0.67232-0.67618 0.53249-1.4149 1.073-2.2189 1.5975a2.3666 2.2402 0 0 0-0.35514 0.2528c-2.3553 1.4899-5.2702 2.8372-8.5233 3.5311a2.3666 2.2402 0 0 0-0.26706 0.08337 2.3666 2.2402 0 0 0-0.44321 0.08337c-3.3553 0.59703-7.0658 0.45988-10.032-0.67232a2.3666 2.2402 0 0 0-0.17899-0.08337 2.3666 2.2402 0 0 0-0.179-0.08337c-2.9973-1.2559-5.4066-3.6171-6.3924-6.3038a2.3865 2.259 0 0 0 0-0.08337 2.3666 2.2402 0 0 0-0.08805-0.25279c-0.86369-2.6732-0.5114-6.0106 0.71027-8.9097a2.3666 2.2402 0 0 0 0.08805-0.16942 2.3666 2.2402 0 0 0 0.17899-0.41953c1.2529-2.6839 3.1735-5.0048 5.5941-6.8927a2.3666 2.2402 0 0 0 0.17899-0.08337c0.0341-0.02417 0.05686-0.0592 0.08805-0.08337a2.3666 2.2402 0 0 0 0.179-0.16942 2.3666 2.2402 0 0 0 0.17899-0.16943c1.6848-1.2183 3.4491-2.103 4.9719-2.8587z" color="#000000" fill="none" opacity=".214" stroke="#000" stroke-width="2.9038"/>
<path d="m-69.154-1.5895c-1.6706 0.0592-3.3894 0.30658-4.9719 0.84176a2.3666 2.2402 0 0 0-0.17899 0.083367 2.3752 2.2483 0 0 0-0.17899 0.083367c-0.02557 0.00843-0.0625-0.00843-0.08807 0a2.3752 2.2483 0 0 0-0.17899 0.083367c-3.8752 1.4872-6.8698 4.432-8.9665 7.7318a2.3666 2.2402 0 0 0-0.53412 0.67232 2.3666 2.2402 0 0 0-0.35514 0.84176c-1.7444 3.324-2.5343 6.8147-2.6649 10.002a2.3666 2.2402 0 0 0 0 0.50559 2.3666 2.2402 0 0 0 0 0.7557c0.01705 2.4527 0.4148 4.6471 0.88927 6.5566-1.6848 0.79872-3.9037 1.9686-6.3044 3.6978-0.07391 0.05377-0.19319 0.0296-0.26706 0.08337a2.3666 2.2402 0 0 0-0.08805 0.08337 2.3666 2.2402 0 0 0-0.88926 0.7557c-2.7416 2.2079-5.0486 4.908-6.5714 8.1486a2.3666 2.2402 0 0 0-0.26707 0.5056 2.3666 2.2402 0 0 0-0.17899 0.67232c-1.3779 3.445-1.9464 7.3257-0.88925 11.01a2.3666 2.2402 0 0 0 0.088 0.41953c8e-3 0-8e-3 0.0592 0 0.08337a2.3666 2.2402 0 0 0 0.088 0.33616 2.3865 2.259 0 0 0 0.17899 0.41953c1.4461 3.6467 4.4378 6.5888 8.1681 8.3207a2.3666 2.2402 0 0 0 0.26707 0.08337c0.0341 0.01611 0.05395 0.06997 0.08805 0.08337a2.3666 2.2402 0 0 0 0.53412 0.2528 2.3666 2.2402 0 0 0 0.44321 0.16943c4.0315 1.4899 8.5517 1.5813 12.609 0.84176a2.3666 2.2402 0 0 0 0.44321-0.08337 2.3666 2.2402 0 0 0 0.44321-0.08337c3.8809-0.84176 7.4593-2.5038 9.8557-4.2034a2.3666 2.2402 0 0 0 0.17899-0.08337c0.10796-0.06726 0.25002-0.09951 0.35514-0.16943 0.12501-0.08065 0.23297-0.16942 0.35514-0.25279a2.3666 2.2402 0 0 0 0.17899-0.16943c1.0626-0.72073 1.9888-1.463 2.8411-2.1864 0.12501 0.07531 0.22759 0.1775 0.35514 0.2528a2.3666 2.2402 0 0 0 0.44321 0.33617c0.02273 0.01349 0.06535-0.01349 0.08808 0a2.3666 2.2402 0 0 0 0.44321 0.16942c2.4149 1.3205 5.3924 2.5844 8.8784 3.3616a2.3666 2.2402 0 0 0 0.17899 0.08337c0 0.0056 0.05966-0.0056 0.08808 0a2.3666 2.2402 0 0 0 0.65217 0.16943 2.3666 2.2402 0 0 0 0.44321 0.08337c3.6906 0.6535 7.8471 0.65888 11.808-0.41953a2.3666 2.2402 0 0 0 0.71027-0.16943c0.08807 0 0.17899-0.05648 0.26706-0.08337a2.3666 2.2402 0 0 0 0.44321-0.16942c3.9321-1.3635 7.3811-3.9022 9.4125-7.3123a2.3666 2.2402 0 0 0 0.44321-0.67233c1.9348-3.7462 1.949-8.3946 0.53412-12.019a2.3752 2.2483 0 0 0-0.17899-0.50559c-0.02272-0.05648-0.06534-0.11026-0.08808-0.16942a2.3666 2.2402 0 0 0 0-0.08337c-1.5512-3.7301-4.4321-6.7583-7.4579-9.0764a2.3723 2.2456 0 0 0-0.44321-0.41953c-0.06818-0.04843-0.1108-0.11832-0.17899-0.16942a2.3666 2.2402 0 0 0-0.44321-0.16943c-2.8894-2.017-5.8498-3.3159-8.5233-4.2034a2.3865 2.259 0 0 0-0.08808-0.08337c-0.12217-0.04037-0.23581-0.12909-0.35514-0.16943a2.3865 2.259 0 0 0-0.08808 0c-0.15626-0.04843-0.28979-0.03766-0.44321-0.08337a2.3666 2.2402 0 0 0-0.26706-0.08337c-0.09376 0-0.17331-0.05648-0.26706-0.08337 0.04546-0.96277 0.05114-1.9498 0-3.0255a2.3666 2.2402 0 0 0 0-0.92512c-0.0085-0.10757 0.0085-0.22859 0-0.33617a2.3666 2.2402 0 0 0-0.08807-0.08337c-0.2898-3.1331-1.0711-6.6991-3.0201-10.168-0.03126-0.053767-0.05683-0.11295-0.08807-0.16942a2.3666 2.2402 0 0 0-0.20897-0.2528c-1.9774-3.3885-4.9264-6.5243-8.7903-8.4041a2.3837 2.2563 0 0 0-0.26706-0.16943c-0.05966 0-0.11933-0.056484-0.17899-0.083367a2.3666 2.2402 0 0 0-0.44321-0.16942c-1.9177-0.83946-3.9605-1.3097-6.0373-1.428-0.5739-0.03227-1.108-0.021516-1.6876 0zm1.4205 4.4535c1.5967 0.099507 3.1536 0.52173 4.6168 1.1779a2.3666 2.2402 0 0 0 0.08807 0.083367c0.02557 0.010772 0.06535-0.010772 0.08807 0a2.3837 2.2563 0 0 0 0.17899 0.083367c2.8411 1.3796 5.3214 3.9587 6.9266 6.7233a2.3666 2.2402 0 0 0 0.17899 0.16943c0.01136 0.02154-0.01136 0.06454 0 0.08337a2.3666 2.2402 0 0 0 0.26706 0.41953c1.4063 2.6705 2.074 5.5185 2.3098 8.0679a2.3666 2.2402 0 0 0 0 0.16942c0.0057 0.05377-0.0057 0.11296 0 0.16943a2.3666 2.2402 0 0 0 0 0.25279c0.05114 0.78798 0.10512 1.5464 0.08807 2.2698-0.59947-0.1022-1.2302-0.18018-1.7757-0.2528a2.3723 2.2456 0 0 0-0.17899-0.08337h-0.08808a2.3723 2.2456 0 0 0-0.08807 0c-2.1109-0.26355-3.8525-0.36575-5.4151-0.41953a2.3979 2.2698 0 0 0-0.08808 0c-1.5342-0.0592-2.8865-0.03222-4.1736 0a2.3666 2.2402 0 0 0-0.17899 0 2.3666 2.2402 0 0 0-0.26706 0 2.3666 2.2402 0 0 0-0.08808 0c-1.216 0.03766-2.3865 0.11832-3.6394 0.25279a2.3666 2.2402 0 0 0-0.44321 0.08337c-1.2245 0.13446-2.78 0.2528-3.6394 0.41953a2.3808 2.2536 0 0 0-0.7103 0.16943c-1.02 0.14791-2.2359 0.34423-3.8214 0.75569a2.3808 2.2536 0 0 0-0.35514 0.08337 2.3666 2.2402 0 0 0-0.17899 0.08337 2.3666 2.2402 0 0 0-0.88926 0.33617c-1.1165 0.33079-1.9177 0.59434-2.9292 0.92512-0.37502-1.6862-0.66766-3.48-0.65217-5.5481a2.3666 2.2402 0 0 0 0-0.2528c0.0966-2.8345 0.79835-6.0025 2.3098-8.7403a2.3666 2.2402 0 0 0 0.17899-0.33617 2.3666 2.2402 0 0 0 0.08807-0.16942c1.6819-2.8076 4.3213-5.2415 7.2817-6.3038a2.3752 2.2483 0 0 0 0.08807 0 2.3666 2.2402 0 0 0 0.17899-0.083367c1.4745-0.48945 3.111-0.68846 4.7048-0.58896zm2.3979 23.365a2.3666 2.2402 0 0 0 0.44321 0 2.3666 2.2402 0 0 0 0.26706 0c1.1762-0.01883 2.4291 0.0296 3.8214 0.08337a2.3979 2.2698 0 0 0 0.26706 0c1.412 0.04571 2.9348 0.1022 4.7958 0.33616a2.3723 2.2456 0 0 0 0.26706 0c0.9049 0.07803 1.2899 0.21246 1.9547 0.33617-0.0085 0.05114 0.0085 0.11833 0 0.16943-0.33525 1.7965-0.73032 3.2245-1.1535 4.5396a2.3666 2.2402 0 0 0-0.08807 0.25279c-0.01706 0.05648-0.07103 0.11296-0.08808 0.16943a2.3723 2.2456 0 0 0-0.08807 0.25279c-0.38639 1.1537-0.6847 2.1595-1.0654 3.1089a2.3666 2.2402 0 0 0-0.08808 0.16942c-0.02272 0.05377-0.06534 0.11295-0.08807 0.16943a2.3666 2.2402 0 0 0-0.08807 0.25279c-0.02557 0.0592-0.0625 0.10757-0.08808 0.16943a2.3666 2.2402 0 0 0-0.08807 0.16942c-0.34377 0.75301-0.70459 1.4792-1.0654 2.1864a2.3666 2.2402 0 0 0-0.08807 0.16943c0 0.05377-0.05966 0.11295-0.08807 0.16942-0.49435 0.94395-1.0057 1.8906-1.5995 2.8587a2.3666 2.2402 0 0 0-0.08807 0.16943c-0.63924 1.03-1.3211 2.0493-2.2189 3.2783a2.3666 2.2402 0 0 0 0 0.08337 2.3894 2.2617 0 0 0-0.35514 0.50559c-0.71027 0.95202-1.5313 1.974-2.574 3.1088a2.3666 2.2402 0 0 0-0.35514 0.33617c-0.03126 0.03222-0.05683 0.05114-0.08808 0.08337a2.3666 2.2402 0 0 0-0.26706 0.2528c-0.40344-0.30658-0.78982-0.62392-1.1535-0.92512a2.3666 2.2402 0 0 0-0.26706-0.2528c-0.0142-0.01077 0.0142-0.07259 0-0.08337a2.3666 2.2402 0 0 0-0.27006-0.16943 2.3666 2.2402 0 0 0-0.53412-0.38956c-0.95176-0.83907-1.7643-1.6243-2.486-2.3531a2.3666 2.2402 0 0 0-0.53412-0.61894 2.3666 2.2402 0 0 0-0.35514-0.30619c-0.75005-0.82063-1.4262-1.5763-2.0427-2a2.3979 2.2698 0 0 0-0.08808-0.08337c-0.03693-0.043-0.05114-0.12371-0.08807-0.16943a2.3666 2.2402 0 0 0-0.17899-0.16942c-0.63356-0.75301-1.216-1.5006-1.7757-2.2698a2.3666 2.2402 0 0 0 0-0.08337c-0.02273-0.03222-0.06535-0.05114-0.08807-0.08337a2.3666 2.2402 0 0 0-0.08808-0.08337 2.3666 2.2402 0 0 0-0.26706-0.33617c-0.47446-0.68309-0.94608-1.4119-1.4205-2.1864a2.3666 2.2402 0 0 0-0.08808-0.16942c-0.01421-0.02154 0.0142-0.06182 0-0.08337a2.3666 2.2402 0 0 0-0.179-0.2528c-0.57958-0.94395-1.2245-2.0493-1.8638-3.2783a2.3666 2.2402 0 0 0-0.08807-0.2528c-0.03126-0.06454-0.05683-0.10488-0.08808-0.16942a2.3666 2.2402 0 0 0-0.08807-0.08337 2.3666 2.2402 0 0 0-0.08808-0.16943c-0.46878-0.95202-0.88926-2.0143-1.3325-3.1949 1.0995-0.36037 2.0484-0.67232 3.1962-1.0085a2.3666 2.2402 0 0 0 0.26706-0.08337c0.14774-0.043 0.304-0.04571 0.44321-0.08337a2.3808 2.2536 0 0 0 0.26706-0.08337c1.7728-0.48408 2.8695-0.66427 4.0855-0.84176a2.3808 2.2536 0 0 0 0.08808 0c1.2131-0.17481 2.4263-0.3792 3.5514-0.5056a2.3666 2.2402 0 0 0 0.35514 0c0.09092-0.01077 0.17615 0.0084 0.26706 0a2.3666 2.2402 0 0 0 0.08808 0c0.92904-0.09412 1.8098-0.21514 2.753-0.25279zm16.424 1.9636a2.3865 2.259 0 0 0 0.26706 0.08337c2.5541 0.82562 5.3583 2.0116 7.992 3.9506a2.3723 2.2456 0 0 0 0.17899 0.16942c2.6536 1.9928 5.1367 4.7224 6.3044 7.6484a2.3752 2.2483 0 0 0 0.08807 0.16942c1.0768 2.8292 1.0769 5.9784-0.08807 8.4875a2.3666 2.2402 0 0 0-0.08807 0.16942c0 0.05648-0.05966 0.11295-0.08808 0.16943a2.3666 2.2402 0 0 0-0.08807 0.16942c-1.3808 2.528-4.202 4.6687-7.4579 5.7148a2.3666 2.2402 0 0 0-0.26706 0.08337c-3.2815 0.99236-7.134 0.97891-10.478 0.33617-3.3099-0.63469-6.2135-1.8368-8.5233-3.1089a2.3666 2.2402 0 0 0-0.17899-0.08337c0-0.03222 0.05966-0.05377 0.08807-0.08337a2.3666 2.2402 0 0 0 0.17899-0.2528c1.1933-1.2989 2.216-2.4553 3.0201-3.5311a2.3894 2.2617 0 0 0 0.08807-0.08337c0.02272-0.0296 0.06535-0.05377 0.08808-0.08337a2.3894 2.2617 0 0 0 0.17899-0.2528c0.05114-0.07259 0.13085-0.09681 0.17899-0.16942a2.3666 2.2402 0 0 0 0.17899-0.41953c0.69038-0.98161 1.3239-1.904 1.8638-2.7727a2.3666 2.2402 0 0 0 0.17899-0.25279c0.03409-0.05648 0.05398-0.11295 0.08807-0.16943a2.3666 2.2402 0 0 0 0.17899-0.41953c0.4631-0.77183 0.92904-1.5168 1.3325-2.2698a2.3666 2.2402 0 0 0 0.08807-0.16943c0.04547-0.08871 0.13069-0.16405 0.17899-0.25279a2.3666 2.2402 0 0 0 0-0.08337c0.01705-0.03232 0.07103-0.05114 0.08807-0.08337a2.3666 2.2402 0 0 0 0.17899-0.50559c0.35801-0.71267 0.73032-1.428 1.0654-2.1864a2.3666 2.2402 0 0 0 0.26706-0.61893c0.45173-1.0972 0.95461-2.3236 1.4205-3.6978a2.3723 2.2456 0 0 0 0.08807-0.33617c0.02557-0.07531 0.0625-0.17481 0.08808-0.2528a2.3666 2.2402 0 0 0 0.08807-0.41953c0.41764-1.2882 0.88642-2.7646 1.2444-4.5396a2.3865 2.259 0 0 0 0-0.08337zm-36.136 2.7427c0.43184 1.1268 0.90062 2.1353 1.3325 3.0255a2.3666 2.2402 0 0 0 0.17899 0.41953 2.3666 2.2402 0 0 0 0.35514 0.58896c0.57136 1.0919 1.1563 2.06 1.6876 2.9421a2.3666 2.2402 0 0 0 0.26706 0.58896 2.3666 2.2402 0 0 0 0.26706 0.33617c0.5114 0.831 1.0272 1.6109 1.5086 2.3532a2.3666 2.2402 0 0 0 0.35514 0.58896 2.3666 2.2402 0 0 0 0.44321 0.50559c0.48867 0.67771 0.97449 1.3581 1.5086 2.017a2.3666 2.2402 0 0 0 0.17899 0.2528c0.01421 0.01883-0.0142 0.06725 0 0.08337a2.3666 2.2402 0 0 0 0.17899 0.16943 2.3979 2.2698 0 0 0 0.35514 0.33616c0.65217 0.70729 1.3097 1.4334 2.0427 2.1864a2.3666 2.2402 0 0 0 0.17899 0.16942c0.03126 0.03222 0.05966 0.05377 0.08807 0.08337a2.3666 2.2402 0 0 0 0.17899 0.2528 2.3666 2.2402 0 0 0 0.53413 0.50559c0.86085 0.87402 1.8211 1.8207 3.0201 2.8587a2.3666 2.2402 0 0 0 0.26706 0.2528 2.3666 2.2402 0 0 0 0.71027 0.50559c0.2699 0.22321 0.59379 0.44105 0.88926 0.67232-0.67618 0.53249-1.4149 1.073-2.2189 1.5975a2.3666 2.2402 0 0 0-0.35514 0.2528c-2.3553 1.4899-5.2702 2.8372-8.5233 3.5311a2.3666 2.2402 0 0 0-0.26706 0.08337 2.3666 2.2402 0 0 0-0.44321 0.08337c-3.3553 0.59703-7.0658 0.45988-10.032-0.67232a2.3666 2.2402 0 0 0-0.17899-0.08337 2.3666 2.2402 0 0 0-0.179-0.08337c-2.9973-1.2559-5.4066-3.6171-6.3924-6.3038a2.3865 2.259 0 0 0 0-0.08337 2.3666 2.2402 0 0 0-0.08805-0.25279c-0.86369-2.6732-0.5114-6.0106 0.71027-8.9097a2.3666 2.2402 0 0 0 0.08805-0.16942 2.3666 2.2402 0 0 0 0.17899-0.41953c1.2529-2.6839 3.1735-5.0048 5.5941-6.8927a2.3666 2.2402 0 0 0 0.17899-0.08337c0.0341-0.02417 0.05686-0.0592 0.08805-0.08337a2.3666 2.2402 0 0 0 0.179-0.16942 2.3666 2.2402 0 0 0 0.17899-0.16943c1.6848-1.2183 3.4491-2.103 4.9719-2.8587z" color="#000000" fill="#007d7f"/>
</g>
<rect transform="matrix(1.0692 0 0 1.0477 12.339 23.813)" x="2" y="-30" width="75.966" height="69.024" rx="3.957" ry="3.957" clip-path="url(#clipPath4156-4-1)" fill="url(#linearGradient1104)" opacity=".65"/>
</g>
</g>
<g display="none">
<rect x="5" y="7" width="86" height="85" rx="6" ry="6" fill="url(#linearGradient3839)" filter="url(#filter3174-36)" opacity=".9"/>
</g>
<g display="none">
<rect x="5" y="7" width="86" height="85" rx="6" ry="6" fill="url(#linearGradient3839)" filter="url(#filter3174-2)" opacity=".9"/>
</g>
</svg>
