<?xml version="1.0" encoding="UTF-8"?>
<!-- Created with Inkscape (http://www.inkscape.org/) -->
<svg version="1.1" viewBox="0 0 96 96" xmlns="http://www.w3.org/2000/svg" xmlns:cc="http://creativecommons.org/ns#" xmlns:dc="http://purl.org/dc/elements/1.1/" xmlns:rdf="http://www.w3.org/1999/02/22-rdf-syntax-ns#" xmlns:xlink="http://www.w3.org/1999/xlink">
<defs>
<linearGradient id="linearGradient4071" x1="6" x2="90" y1="47" y2="47" gradientTransform="matrix(1.1071 0 0 1.1071 -4.9939 -3.6207)" gradientUnits="userSpaceOnUse">
<stop stop-color="#b2babc" offset="0"/>
<stop stop-color="#fff" offset=".25"/>
<stop stop-color="#96a1a4" offset=".5"/>
<stop stop-color="#fbf9f9" offset=".75"/>
<stop stop-color="#b2b9bc" offset="1"/>
</linearGradient>
<linearGradient id="linearGradient4129" x1="1.5" x2="94.5" y1="88.172" y2="88.172" gradientTransform="translate(.14895 .41503)" gradientUnits="userSpaceOnUse">
<stop offset="0"/>
<stop stop-opacity=".58824" offset=".1"/>
<stop stop-opacity=".58824" offset=".9"/>
<stop offset="1"/>
</linearGradient>
<radialGradient id="radialGradient7462" cx="13.948" cy="44.893" r="43.199" gradientTransform="matrix(.97513 0 0 .049191 34.048 80.582)" gradientUnits="userSpaceOnUse" xlink:href="#linearGradient3737"/>
<linearGradient id="linearGradient3737">
<stop stop-color="#fff" offset="0"/>
<stop stop-color="#fff" stop-opacity="0" offset="1"/>
</linearGradient>
<radialGradient id="radialGradient7464" cx="13.948" cy="44.893" r="43.199" gradientTransform="matrix(.88833 0 0 .049191 31.96 -90.317)" gradientUnits="userSpaceOnUse" xlink:href="#linearGradient3737"/>
<linearGradient id="linearGradient4767" x1="2.7714" x2="50.528" y1="-28.642" y2="14.514" gradientUnits="userSpaceOnUse" xlink:href="#linearGradient3737"/>
<clipPath id="clipPath4156-4-1">
<path d="m27.046-55.695-14.214 13.321h0.06127l15.653 21.771 10.231-10.546c-0.2169-1.1522-11.311-23.67-11.732-24.546zm-17.399 16.313-14.888 14.062 21.229 17.515 10.385-10.577zm31.491 12.951-9.7413 9.7136 8.9448 12.458 7.7808-7.555zm-49.84 4.3788-13.754 12.982 26.283 13.846 0.06127-0.0617-0.12253-0.0617 9.8332-10.053-22.301-16.652zm38.015 7.4008-9.8025 9.7753 11.579 9.5594 7.6276-7.4008-8.6691-11.009zm20.187 5.674-7.3825 7.2158 6.1878 8.5418 5.8202-6.1365zm-32.195 6.3215-9.5575 9.4977 13.662 7.185 7.9339-7.6784zm23.312 2.3744-7.1068 6.9383 8.3628 6.9074 5.3608-5.674-0.06127-0.0925-0.0919 0.12335-6.4635-8.2026zm-8.7304 8.5418-7.5051 7.3392 10.354 5.4581c1.3975-1.321 5.6751-6.1229 5.8509-6.3215z" fill="#fff" opacity=".6"/>
</clipPath>
</defs>
<metadata>
<rdf:RDF>
<cc:Work rdf:about="">
<dc:format>image/svg+xml</dc:format>
<dc:type rdf:resource="http://purl.org/dc/dcmitype/StillImage"/>
<dc:title/>
<dc:date>2017</dc:date>
<dc:creator>
<cc:Agent>
<dc:title>Cristian Pozzessere "ilnanny"</dc:title>
</cc:Agent>
</dc:creator>
<dc:subject>
<rdf:Bag>
<rdf:li>Global language</rdf:li>
</rdf:Bag>
</dc:subject>
<dc:description>Playing with Inkscape on Gnu/Linux O. S.</dc:description>
<dc:contributor>
<cc:Agent>
<dc:title>In the night, alone like a dog.</dc:title>
</cc:Agent>
</dc:contributor>
<cc:license rdf:resource="http://creativecommons.org/licenses/by-sa/4.0/"/>
</cc:Work>
<cc:License rdf:about="http://creativecommons.org/licenses/by-sa/4.0/">
<cc:permits rdf:resource="http://creativecommons.org/ns#Reproduction"/>
<cc:permits rdf:resource="http://creativecommons.org/ns#Distribution"/>
<cc:requires rdf:resource="http://creativecommons.org/ns#Notice"/>
<cc:requires rdf:resource="http://creativecommons.org/ns#Attribution"/>
<cc:permits rdf:resource="http://creativecommons.org/ns#DerivativeWorks"/>
<cc:requires rdf:resource="http://creativecommons.org/ns#ShareAlike"/>
</cc:License>
</rdf:RDF>
</metadata>
<g transform="translate(0 -1026.5)">
<g transform="translate(-.14896 1026.1)">
<path d="m89.292 0.41503h-82.286c-3.7988 0-6.8571 3.0583-6.8571 6.8571v82.286c0 3.7989 3.0583 6.8571 6.8571 6.8571h82.286c3.7989 0 6.8571-3.0583 6.8571-6.8571v-82.286c0-3.7989-3.0583-6.8571-6.8571-6.8571z" opacity=".15"/>
<path d="m88.649 1.165h-81c-3.7395 0-6.75 3.0105-6.75 6.75v81c0 3.7395 3.0105 6.75 6.75 6.75h81c3.7395 0 6.75-3.0105 6.75-6.75v-81c0-3.7395-3.0105-6.75-6.75-6.75z" opacity=".15"/>
<path d="m88.006 1.915h-79.714c-3.6801 0-6.6429 2.9627-6.6429 6.6429v79.714c0 3.6801 2.9627 6.6429 6.6429 6.6429h79.714c3.6801 0 6.6429-2.9627 6.6429-6.6429v-79.714c0-3.6801-2.9627-6.6429-6.6429-6.6429z" fill="url(#linearGradient4071)"/>
<path d="m11.39 6.8022c-2.8565 0-5.1241 2.2884-5.1241 5.171v68.58c1.0972 1.6845 2.9688 2.8117 5.1241 2.8117h73.787c2.1553 0 4.0269-1.1272 5.1241-2.8117v-68.58c0-2.8826-2.2676-5.171-5.1241-5.171z" fill="#295fb9" opacity=".77865"/>
<path d="m6.2827 68.767v12.076c0 1.8245 1.4741 3.2934 3.3052 3.2934h77.122c1.8311 0 3.3052-1.4688 3.3052-3.2934v-12.076z" color="#000000" fill="#b4c2da" fill-opacity=".61794"/>
<g transform="matrix(1.0077 0 0 1.0077 169.55 -15.93)">
<path d="m-107.89 26.422c-6.2854 0-10.947 1.6509-13.938 4.9062-2.9873 3.2519-4.125 7.8286-4.125 13.156v4.9375h-6.0624c-0.0386 0.0014-0.19114 0.03156-0.1875 0.03125 4e-3 -3.57e-4 -0.19168 7.79e-4 -0.1875 0 4e-3 -7.79e-4 -0.19158 0.06369-0.1875 0.0625 4e-3 -0.0012-0.16019 0.0641-0.15625 0.0625 4e-3 -0.0016-0.19126 0.06448-0.1875 0.0625 4e-3 -2e-3 -0.1598 0.12735-0.15625 0.125 4e-3 -0.0023-0.15954 0.09644-0.15625 0.09375 3e-3 -0.0027-0.15926 0.12801-0.15625 0.125 3e-3 -3e-3 -0.12769 0.15954-0.125 0.15625 3e-3 -0.0033-0.0961 0.1598-0.0937 0.15625 2e-3 -0.0035-0.12698 0.16001-0.125 0.15625 2e-3 -0.0038-0.0641 0.19144-0.0625 0.1875 2e-3 -0.0039-0.0637 0.16033-0.0625 0.15625 1e-3 -0.0041-0.0633 0.19168-0.0625 0.1875 7.8e-4 -0.0042-3.6e-4 0.19174 0 0.1875 3.1e-4 -0.0036-0.0298 0.1489-0.0312 0.1875-2.3e-4 0.0063 1e-5 0.03184 0 0.03125v12.969c1e-3 0.0386 0.0316 0.19114 0.0312 0.1875-3.6e-4 -0.0042 7.8e-4 0.19168 0 0.1875-7.8e-4 -0.0042 0.0637 0.19158 0.0625 0.1875-1e-3 -0.0041 0.0641 0.16019 0.0625 0.15625-2e-3 -0.0039 0.0645 0.19126 0.0625 0.1875-2e-3 -0.0038 0.12735 0.1598 0.125 0.15625-2e-3 -0.0035 0.0964 0.15954 0.0937 0.15625-3e-3 -0.0033 0.12801 0.15926 0.125 0.15625-3e-3 -3e-3 0.15954 0.12769 0.15625 0.125-3e-3 -0.0027 0.1598 0.0961 0.15625 0.09375-4e-3 -0.0023 0.16001 0.12698 0.15625 0.125-4e-3 -2e-3 0.19144 0.0641 0.1875 0.0625-4e-3 -0.0016 0.16033 0.06369 0.15625 0.0625-4e-3 -0.0012 0.19168 0.06328 0.1875 0.0625-4e-3 -7.79e-4 0.19174 3.57e-4 0.1875 0-4e-3 -3.07e-4 0.1489 0.02981 0.1875 0.03125 6e-3 2.35e-4 0.0318-1e-5 0.0312 0h6.0312v32.062h18.75c2.3e-4 -0.0063-1e-5 -0.03185 0-0.03125v-32.031h8c-0.0039 5.8e-5 0.19137-0.03166 0.1875-0.03125-0.0039 4.14e-4 0.19132-0.03202 0.1875-0.03125-0.0038 7.67e-4 0.15998-0.03236 0.15625-0.03125-0.0037 0.0011 0.15986-0.06395 0.15625-0.0625-0.0036 0.0014 0.15971-0.06427 0.15625-0.0625-0.0035 0.0018 0.15954-0.09583 0.15625-0.09375-0.0033 0.0021 0.15933-0.09613 0.15625-0.09375-0.0031 0.0024 0.12785-0.12765 0.125-0.125-0.0029 0.0026 0.1276-0.1279 0.125-0.125-0.0026 0.0029 0.12732-0.12812 0.125-0.125-0.0023 0.0031 0.09578-0.15957 0.09375-0.15625-2e-3 0.0033 0.06421-0.15974 0.0625-0.15625-0.0017 0.0035 0.09514-0.15989 0.09375-0.15625-0.0014 0.0036 0.0323-0.16 0.03125-0.15625-1e-3 0.0037 0.0632-0.19133 0.0625-0.1875-6.99e-4 0.0038 3.46e-4 -0.16013 0-0.15625l1.3125-12.969v-0.03125c0.0028-0.02978 0.03136-0.06406 0.03125-0.0625-1.54e-4 0.0022 3.7e-5 -0.09598 0-0.09375-3.7e-5 0.0022-8e-5 -0.12723 0-0.125 8e-5 0.0022-1.97e-4 -0.09597 0-0.09375 1.97e-4 0.0022-0.03156-0.09596-0.03125-0.09375 3.14e-4 0.0022-4.29e-4 -0.09594 0-0.09375 4.29e-4 0.0022-0.03179-0.09591-0.03125-0.09375 5.43e-4 0.0022-0.03191-0.09588-0.03125-0.09375 6.56e-4 0.0021-0.03202-0.09584-0.03125-0.09375 7.67e-4 0.0021-0.03213-0.0958-0.03125-0.09375 8.76e-4 0.0021-0.03223-0.09575-0.03125-0.09375 9.82e-4 2e-3 -0.06359-0.0957-0.0625-0.09375 0.0011 0.0019-0.06369-0.09564-0.0625-0.09375 0.0012 0.0019-0.03253-0.09557-0.03125-0.09375 0.0013 0.0018-0.06388-0.06425-0.0625-0.0625 0.0014 0.0018-0.06397-0.09543-0.0625-0.09375 0.0015 0.0017-0.06405-0.0641-0.0625-0.0625 0.0016 0.0016-0.09539-0.06401-0.09375-0.0625 0.0016 0.0015-0.06421-0.06393-0.0625-0.0625 0.0017 0.0014-0.09554-0.06383-0.09375-0.0625 0.0018 0.0013-0.06435-0.06374-0.0625-0.0625 0.0019 0.0012-0.09567-0.06364-0.09375-0.0625 0.0019 0.0011-0.09572-0.06354-0.09375-0.0625 2e-3 1e-3 -0.09578-0.03218-0.09375-0.03125 2e-3 9.33e-4 -0.09582-0.03208-0.09375-0.03125 0.0021 8.26e-4 -0.09586-0.03197-0.09375-0.03125 0.0021 7.16e-4 -0.0959-0.03185-0.09375-0.03125 0.0021 6.04e-4 -0.09592-0.03174-0.09375-0.03125 0.0022 4.9e-4 -0.09595-0.03162-0.09375-0.03125 0.0022 3.75e-4 -0.09597-2.59e-4 -0.09375 0 0.0022 2.59e-4 -0.09597-1.43e-4 -0.09375 0 0.0022 1.43e-4 -0.12723-0.03128-0.125-0.03125h-9.3125l0.0312-3.6875c0-1.5396 0.24274-2.4419 0.3125-2.5312 0.0617-0.07906 0.15968-0.19418 0.5625-0.3125s1.0784-0.1875 2.125-0.1875h6.1562c-5.95e-4 -1e-5 0.02497 2.35e-4 0.03125 0 0.0386-0.0014 0.19114-0.03156 0.1875-0.03125-0.0042 3.57e-4 0.19168-7.79e-4 0.1875 0-0.0042 7.79e-4 0.19158-0.06369 0.1875-0.0625-0.0041 0.0012 0.16019-0.0641 0.15625-0.0625-0.0039 0.0016 0.19126-0.06448 0.1875-0.0625-0.0038 2e-3 0.1598-0.12735 0.15625-0.125-0.0035 0.0023 0.15954-0.09644 0.15625-0.09375-0.0033 0.0027 0.15926-0.12801 0.15625-0.125-3e-3 3e-3 0.12769-0.15954 0.125-0.15625-0.0027 0.0033 0.0961-0.1598 0.09375-0.15625-0.0023 0.0035 0.12698-0.16001 0.125-0.15625-2e-3 0.0038 0.0641-0.19144 0.0625-0.1875-0.0016 0.0039 0.06369-0.16033 0.0625-0.15625-0.0012 0.0041 0.06328-0.19168 0.0625-0.1875-7.79e-4 0.0042 3.57e-4 -0.19174 0-0.1875-3.07e-4 0.0036 0.02981-0.1489 0.03125-0.1875 2.35e-4 -0.0063-1e-5 -0.03185 0-0.03125v-12.344c-1e-5 5.95e-4 2.35e-4 -0.02497 0-0.03125-0.0014-0.0386-0.03156-0.19114-0.03125-0.1875 3.57e-4 0.0042-7.79e-4 -0.19168 0-0.1875 7.79e-4 0.0042-0.06369-0.19158-0.0625-0.1875 0.0012 0.0041-0.0641-0.16019-0.0625-0.15625 0.0016 0.0039-0.06448-0.19126-0.0625-0.1875 2e-3 0.0038-0.12735-0.1598-0.125-0.15625 0.0023 0.0035-0.09644-0.15954-0.09375-0.15625 0.0027 0.0033-0.12801-0.15926-0.125-0.15625 3e-3 3e-3 -0.15954-0.12769-0.15625-0.125 0.0033 0.0027-0.1598-0.0961-0.15625-0.09375 0.0035 0.0023-0.16001-0.12698-0.15625-0.125 0.0038 2e-3 -0.19144-0.0641-0.1875-0.0625 0.0039 0.0016-0.16033-0.06369-0.15625-0.0625 0.0041 0.0012-0.19168-0.06328-0.1875-0.0625 0.0042 7.79e-4 -0.19174-3.57e-4 -0.1875 0 0.0036 3.07e-4 -0.1489-0.02981-0.1875-0.03125h-0.03125z" fill="#2c4775" fill-opacity=".97647" opacity=".15"/>
<path d="m-107.89 27.454c-6.1109 0-10.437 1.5687-13.188 4.5625s-3.8438 7.2845-3.8438 12.469v5.9688h-7.0938c-0.47658-0.0077-0.91397 0.42967-0.90625 0.90625v13c-8e-3 0.47658 0.42967 0.91397 0.90625 0.90625h7.0938v32.094h16.688v-32.094h9.0312c0.43602-0.0065 0.83622-0.37816 0.875-0.8125l1.3125-13c0.06059-0.49601-0.37534-0.99421-0.875-1h-10.344l0.0312-4.7188c0-1.591 0.12031-2.63 0.53125-3.1562 0.41093-0.52622 1.29-0.90625 3.5-0.90625h6.1875c0.47658 0.0077 0.91397-0.42967 0.90625-0.90625v-12.406c0.0077-0.47658-0.42967-0.91397-0.90625-0.90625z" fill="#2c4775" fill-opacity=".97647" opacity=".4"/>
<path d="m-109.14 96.36h-14.874v-32.004h-8v-12.996h8v-6.8598c0-10.122 4.1953-16.14 16.118-16.14h9.9266v12.409h-6.2045c-4.642 0-4.9475 1.7336-4.9475 4.9699l-0.018 5.621h11.24l-1.3151 12.996h-9.9252z" fill="#fff"/>
</g>
<path d="m9.974 5.1445c-3.1166 0-5.668 2.5395-5.668 5.646v69.278c0 3.1065 2.5513 5.646 5.668 5.646h76.792c3.1166 0 5.668-2.5395 5.668-5.646v-69.278c0-3.1065-2.5513-5.646-5.668-5.646zm0 2.3194h76.792c1.8881 0 3.352 1.4801 3.352 3.3266v69.278c0 1.8465-1.4639 3.3266-3.352 3.3266h-76.792c-1.8881 0-3.352-1.4801-3.352-3.3266v-69.278c0-1.8465 1.4639-3.3266 3.352-3.3266z" color="#000000" fill="#241f1f" fill-opacity=".63265" style="text-decoration-line:none;text-indent:0;text-transform:none"/>
<path d="m1.649 82.259v6c0 3.6801 2.9761 6.6562 6.6562 6.6562h79.687c3.6801 0 6.6563-2.9761 6.6563-6.6562v-6c0 3.6801-2.9761 6.6562-6.6563 6.6562h-79.687c-3.6801 0-6.6562-2.9761-6.6562-6.6562z" fill="url(#linearGradient4129)" opacity=".65818"/>
<rect x="5.524" y="80.665" width="84.25" height="4.25" rx="0" ry="4.25" fill="url(#radialGradient7462)" opacity=".55"/>
<rect transform="rotate(90)" x="5.975" y="-90.234" width="76.75" height="4.25" rx="0" ry="4.25" fill="url(#radialGradient7464)" opacity=".669"/>
<rect transform="matrix(1.0692 0 0 1.0477 4.4442 38.894)" x="2" y="-30" width="75.966" height="69.024" rx="3.957" ry="3.957" clip-path="url(#clipPath4156-4-1)" fill="url(#linearGradient4767)" opacity=".735"/>
</g>
</g>
</svg>
