<?xml version="1.0" encoding="UTF-8"?>
<!-- Created with Inkscape (http://www.inkscape.org/) -->
<svg version="1.1" viewBox="0 0 96 96" xmlns="http://www.w3.org/2000/svg" xmlns:cc="http://creativecommons.org/ns#" xmlns:dc="http://purl.org/dc/elements/1.1/" xmlns:rdf="http://www.w3.org/1999/02/22-rdf-syntax-ns#" xmlns:xlink="http://www.w3.org/1999/xlink">
<defs>
<linearGradient id="linearGradient4071" x1="6" x2="90" y1="47" y2="47" gradientTransform="matrix(1.1071 0 0 1.1071 -4.9939 -3.6207)" gradientUnits="userSpaceOnUse">
<stop stop-color="#b0bbbe" offset="0"/>
<stop stop-color="#fff" offset=".25"/>
<stop stop-color="#94a2a6" offset=".5"/>
<stop stop-color="#fbf9f9" offset=".75"/>
<stop stop-color="#b1babd" offset="1"/>
</linearGradient>
<linearGradient id="linearGradient4129" x1="1.5" x2="94.5" y1="88.172" y2="88.172" gradientTransform="translate(.14895 .41503)" gradientUnits="userSpaceOnUse" xlink:href="#linearGradient3832-0-6-1-1"/>
<linearGradient id="linearGradient3832-0-6-1-1">
<stop offset="0"/>
<stop stop-opacity=".58824" offset=".1"/>
<stop stop-opacity=".58824" offset=".9"/>
<stop offset="1"/>
</linearGradient>
<radialGradient id="radialGradient7462" cx="13.948" cy="44.893" r="43.199" gradientTransform="matrix(.97513 0 0 .049191 34.048 80.582)" gradientUnits="userSpaceOnUse" xlink:href="#linearGradient3737"/>
<linearGradient id="linearGradient3737">
<stop stop-color="#fff" offset="0"/>
<stop stop-color="#fff" stop-opacity="0" offset="1"/>
</linearGradient>
<radialGradient id="radialGradient7464" cx="13.948" cy="44.893" r="43.199" gradientTransform="matrix(.88833 0 0 .049191 31.96 -90.317)" gradientUnits="userSpaceOnUse" xlink:href="#linearGradient3737"/>
<linearGradient id="linearGradient4767" x1="2.7714" x2="50.528" y1="-28.642" y2="14.514" gradientUnits="userSpaceOnUse" xlink:href="#linearGradient3737"/>
<clipPath id="clipPath4156-4-1">
<path d="m27.046-55.695-14.214 13.321h0.06127l15.653 21.771 10.231-10.546c-0.2169-1.1522-11.311-23.67-11.732-24.546zm-17.399 16.313-14.888 14.062 21.229 17.515 10.385-10.577zm31.491 12.951-9.7413 9.7136 8.9448 12.458 7.7808-7.555zm-49.84 4.3788-13.754 12.982 26.283 13.846 0.06127-0.0617-0.12253-0.0617 9.8332-10.053-22.301-16.652zm38.015 7.4008-9.8025 9.7753 11.579 9.5594 7.6276-7.4008-8.6691-11.009zm20.187 5.674-7.3825 7.2158 6.1878 8.5418 5.8202-6.1365zm-32.195 6.3215-9.5575 9.4977 13.662 7.185 7.9339-7.6784zm23.312 2.3744-7.1068 6.9383 8.3628 6.9074 5.3608-5.674-0.06127-0.0925-0.0919 0.12335-6.4635-8.2026zm-8.7304 8.5418-7.5051 7.3392 10.354 5.4581c1.3975-1.321 5.6751-6.1229 5.8509-6.3215z" fill="#fff" opacity=".6"/>
</clipPath>
<linearGradient id="linearGradient11725-9">
<stop stop-color="#666049" offset="0"/>
<stop stop-color="#edece5" offset="1"/>
</linearGradient>
<linearGradient id="linearGradient11503-3" x1="28.786" x2="28.433" y1="22.756" y2="41.411" gradientTransform="matrix(1.7115 0 0 1.869 6.6387 -67.395)" gradientUnits="userSpaceOnUse" xlink:href="#linearGradient11725-9"/>
<linearGradient id="linearGradient11567-7" x1="235.68" x2="236.51" y1="29.02" y2="29.02" gradientTransform="matrix(1.6739 0 0 1.4509 -341.42 -57.217)" gradientUnits="userSpaceOnUse" xlink:href="#linearGradient11389-4"/>
<linearGradient id="linearGradient11389-4">
<stop stop-color="#fff" offset="0"/>
<stop stop-color="#afafaf" offset="1"/>
</linearGradient>
<linearGradient id="linearGradient11564-1" x1="236.94" x2="237.87" y1="29.851" y2="30.028" gradientTransform="matrix(1.6739 0 0 1.6474 -341.42 -63.898)" gradientUnits="userSpaceOnUse" xlink:href="#linearGradient11389-4"/>
<linearGradient id="linearGradient11733-0-3" x1="28.786" x2="28.433" y1="22.756" y2="41.411" gradientTransform="matrix(1.7115 0 0 1.869 -55.501 -68.09)" gradientUnits="userSpaceOnUse" xlink:href="#linearGradient11725-9"/>
<radialGradient id="radialGradient1351" cx="27.77" cy="70.056" r="16.679" gradientTransform="matrix(1 0 0 .58361 0 29.17)" gradientUnits="userSpaceOnUse" xlink:href="#linearGradient3832-0-6-1-1"/>
</defs>
<metadata>
<rdf:RDF>
<cc:Work rdf:about="">
<dc:format>image/svg+xml</dc:format>
<dc:type rdf:resource="http://purl.org/dc/dcmitype/StillImage"/>
<dc:title/>
<dc:date>2017</dc:date>
<dc:creator>
<cc:Agent>
<dc:title>Cristian Pozzessere "ilnanny"</dc:title>
</cc:Agent>
</dc:creator>
<dc:subject>
<rdf:Bag>
<rdf:li>Global language</rdf:li>
</rdf:Bag>
</dc:subject>
<dc:description>Playing with Inkscape on Gnu/Linux O. S.</dc:description>
<dc:contributor>
<cc:Agent>
<dc:title>In the night, alone like a dog.</dc:title>
</cc:Agent>
</dc:contributor>
<cc:license rdf:resource="http://creativecommons.org/licenses/by-sa/4.0/"/>
</cc:Work>
<cc:License rdf:about="http://creativecommons.org/licenses/by-sa/4.0/">
<cc:permits rdf:resource="http://creativecommons.org/ns#Reproduction"/>
<cc:permits rdf:resource="http://creativecommons.org/ns#Distribution"/>
<cc:requires rdf:resource="http://creativecommons.org/ns#Notice"/>
<cc:requires rdf:resource="http://creativecommons.org/ns#Attribution"/>
<cc:permits rdf:resource="http://creativecommons.org/ns#DerivativeWorks"/>
<cc:requires rdf:resource="http://creativecommons.org/ns#ShareAlike"/>
</cc:License>
</rdf:RDF>
</metadata>
<g transform="translate(0 -1026.5)">
<g transform="translate(-.14896 1026.1)">
<path d="m89.292 0.41503h-82.286c-3.7988 0-6.8571 3.0583-6.8571 6.8571v82.286c0 3.7989 3.0583 6.8571 6.8571 6.8571h82.286c3.7989 0 6.8571-3.0583 6.8571-6.8571v-82.286c0-3.7989-3.0583-6.8571-6.8571-6.8571z" opacity=".15"/>
<path d="m88.649 1.165h-81c-3.7395 0-6.75 3.0105-6.75 6.75v81c0 3.7395 3.0105 6.75 6.75 6.75h81c3.7395 0 6.75-3.0105 6.75-6.75v-81c0-3.7395-3.0105-6.75-6.75-6.75z" opacity=".15"/>
<path d="m88.006 1.915h-79.714c-3.6801 0-6.6429 2.9627-6.6429 6.6429v79.714c0 3.6801 2.9627 6.6429 6.6429 6.6429h79.714c3.6801 0 6.6429-2.9627 6.6429-6.6429v-79.714c0-3.6801-2.9627-6.6429-6.6429-6.6429z" fill="url(#linearGradient4071)"/>
<path d="m11.39 6.8022c-2.8565 0-5.1241 2.2884-5.1241 5.171v68.58c1.0972 1.6845 2.9688 2.8117 5.1241 2.8117h73.787c2.1553 0 4.0269-1.1272 5.1241-2.8117v-68.58c0-2.8826-2.2676-5.171-5.1241-5.171z" fill="#f5f3f3" opacity=".77865"/>
<path d="m9.974 5.1445c-3.1166 0-5.668 2.5395-5.668 5.646v69.278c0 3.1065 2.5513 5.646 5.668 5.646h76.792c3.1166 0 5.668-2.5395 5.668-5.646v-69.278c0-3.1065-2.5513-5.646-5.668-5.646zm0 2.3194h76.792c1.8881 0 3.352 1.4801 3.352 3.3266v69.278c0 1.8465-1.4639 3.3266-3.352 3.3266h-76.792c-1.8881 0-3.352-1.4801-3.352-3.3266v-69.278c0-1.8465 1.4639-3.3266 3.352-3.3266z" color="#000000" fill="#241f1f" fill-opacity=".63265" style="text-decoration-line:none;text-indent:0;text-transform:none"/>
<path d="m1.649 82.259v6c0 3.6801 2.9761 6.6562 6.6562 6.6562h79.687c3.6801 0 6.6563-2.9761 6.6563-6.6562v-6c0 3.6801-2.9761 6.6562-6.6563 6.6562h-79.687c-3.6801 0-6.6562-2.9761-6.6562-6.6562z" fill="url(#linearGradient4129)" opacity=".65818"/>
<rect x="5.524" y="80.665" width="84.25" height="4.25" rx="0" ry="4.25" fill="url(#radialGradient7462)" opacity=".55"/>
<rect transform="rotate(90)" x="5.975" y="-90.234" width="76.75" height="4.25" rx="0" ry="4.25" fill="url(#radialGradient7464)" opacity=".669"/>
<g transform="matrix(.98801 0 0 .96246 39.109 43.884)">
<path d="m14.084-11.904a22.086 22.137 0 1 1-44.172 0 22.086 22.137 0 1 1 44.172 0z" fill="url(#linearGradient11733-0-3)"/>
<ellipse cx="-7.8674" cy="-11.278" rx="16.961" ry="17.412" fill="#040404" opacity=".916" style="paint-order:fill markers stroke"/>
<rect x="-24.959" y="-12.686" width="34.246" height="1.7784" rx="0" ry="1.7784" fill="#fff"/>
<path d="m-7.7919 5.2193c-5.5083 0-9.9846-1.6142-10.092-3.6186h20.184c-0.1071 2.0045-4.5835 3.6186-10.092 3.6186z"/>
<path d="m-7.9658 5.2193c-4.8439 0-8.7803-1.1229-8.8747-2.5172h17.749c-0.094193 1.3944-4.0306 2.5172-8.8747 2.5172z" fill="#373737"/>
<path d="m-9.0268-2.6039 0.94266-0.61482 0.92822 0.020497 0.76086 0.53636zm9.683e-4 -0.03166-1.999 5.053h6.4922l-1.8549-5.101zm-2.0186-1.6716h6.5319c0.62014 0 1.1194 0.24962 1.1194 0.5597 0 0.31007-0.49925 0.5597-1.1194 0.5597h-6.5319c-0.62014 0-1.1194-0.24962-1.1194-0.5597 0-0.31007 0.49925-0.5597 1.1194-0.5597zm2.6044-1.7647h1.4309c0.62014 0 1.1194 0.24962 1.1194 0.5597 0 0.31007-0.49925 0.5597-1.1194 0.5597h-1.4309c-0.62014 0-1.1194-0.24962-1.1194-0.5597 0-0.31007 0.49925-0.5597 1.1194-0.5597zm0-2.3186h1.4309c0.62014 0 1.1194 0.24962 1.1194 0.5597s-0.49925 0.5597-1.1194 0.5597h-1.4309c-0.62014 0-1.1194-0.24962-1.1194-0.5597s0.49925-0.5597 1.1194-0.5597zm0-2.2027h1.4309c0.62014 0 1.1194 0.24962 1.1194 0.5597 0 0.31007-0.49925 0.5597-1.1194 0.5597h-1.4309c-0.62014 0-1.1194-0.24962-1.1194-0.5597 0-0.31007 0.49925-0.5597 1.1194-0.5597zm0-5.2169h1.4309c0.62014 0 1.1194 0.24962 1.1194 0.5597s-0.49925 0.5597-1.1194 0.5597h-1.4309c-0.62014 0-1.1194-0.24962-1.1194-0.5597s0.49925-0.5597 1.1194-0.5597zm-4.9293 8.5027v-4.7281l-6.5316 0.16396m17.215 4.5641v-4.7281h6.5316m-12.286-3.7746h1.4309c0.62014 0 1.1194 0.24962 1.1194 0.5597s-0.49925 0.5597-1.1194 0.5597h-1.4309c-0.62014 0-1.1194-0.24962-1.1194-0.5597s0.49925-0.5597 1.1194-0.5597zm0-4.6127h1.4309c0.62014 0 1.1194 0.24962 1.1194 0.5597s-0.49925 0.5597-1.1194 0.5597h-1.4309c-0.62014 0-1.1194-0.24962-1.1194-0.5597s0.49925-0.5597 1.1194-0.5597zm-4.0173 2.4162h9.6887c0.62014 0 1.1194 0.24962 1.1194 0.5597s-0.49925 0.5597-1.1194 0.5597h-9.6887c-0.62014 0-1.1194-0.24962-1.1194-0.5597s0.49925-0.5597 1.1194-0.5597zm-2.0122-5.052h13.267c0.74183 0 1.339 0.29861 1.339 0.66952s-0.59721 0.66952-1.339 0.66952h-13.267c-0.74183 0-1.339-0.29861-1.339-0.66952s0.59722-0.66952 1.339-0.66952z" fill="#fefefe"/>
</g>
<rect transform="matrix(1.0692 0 0 1.0477 4.4442 38.894)" x="2" y="-30" width="75.966" height="69.024" rx="3.957" ry="3.957" clip-path="url(#clipPath4156-4-1)" fill="url(#linearGradient4767)" opacity=".50781"/>
<g transform="matrix(.92927 0 0 .90523 26.063 63.392)"></g>
<g transform="matrix(.88234 0 0 .85952 18.993 70.668)">
<path d="m76.224-11.208a22.086 22.137 0 1 1-44.172 0 22.086 22.137 0 1 1 44.172 0z" fill="url(#linearGradient11503-3)"/>
<ellipse cx="53.618" cy="-11.278" rx="16.961" ry="17.412" fill="#040404" opacity=".916" style="paint-order:fill markers stroke"/>
<path d="m51.904-9.0048 2.0495-13.329 1.4859 13.329s-0.42647 1.0314-1.7933 1.1108c-1.3668 0.07939-1.7421-1.1108-1.7421-1.1108z" fill="url(#linearGradient11567-7)"/>
<path d="m52.454-9.9535 6.522-11.629-3.5558 12.736s-0.7294 0.81601-1.9048 0.46131c-1.1754-0.3547-1.0614-1.5678-1.0614-1.5678z" fill="url(#linearGradient11564-1)"/>
<rect x="53.751" y="-26.022" width=".66578" height="4.0625" rx="0" fill="#fff"/>
<rect x="53.455" y="-1.0351" width=".66578" height="4.0625" rx="0" fill="#fff"/>
<rect transform="rotate(90)" x="-10.867" y="-68.917" width=".65524" height="4.4417" rx="0" fill="#fff"/>
<rect transform="rotate(90)" x="-11.155" y="-44.3" width=".65524" height="4.337" rx="0" fill="#fff"/>
<rect transform="matrix(-.7394 .67326 -.68494 -.7286 0 0)" x="-49.67" y="-16.146" width=".66094" height="2.6405" rx="0" fill="#fff"/>
<rect transform="matrix(-.65387 .75661 -.76681 -.64187 0 0)" x="-45.273" y="-47.366" width=".65968" height="2.6455" rx="0" fill="#fff"/>
<rect transform="matrix(.72444 .68934 -.7008 .71336 0 0)" x="28.47" y="-60.369" width=".66071" height="2.6414" rx="0" fill="#fff"/>
<rect transform="matrix(.62373 .78164 -.79121 .61154 0 0)" x="22.681" y="-37.571" width=".65928" height="2.6471" rx="0" fill="#fff"/>
<rect transform="matrix(-.40347 .91499 -.91963 -.39278 0 0)" x="-32.704" y="-33.372" width=".65692" height="2.6565" rx="0" fill="#fff"/>
<rect transform="matrix(-.8657 .50056 -.51257 -.85864 0 0)" x="-52.077" y="-31.185" width=".66309" height="2.6319" rx="0" fill="#fff"/>
<rect transform="matrix(.46826 .88359 .88964 -.45666 0 0)" x="15.362" y="65.327" width=".65751" height="2.6542" rx="0" fill="#fff"/>
<rect transform="matrix(.85799 .51367 -.52577 .85063 0 0)" x="39.842" y="-26.037" width=".66295" height="2.6324" rx="0" fill="#fff"/>
</g>
<path d="m13.219 62.323h29.103c0.07051 0 0.12727 1.849 0.12727 4.1457v7.1765c0 2.2967-0.05676 4.1457-0.12727 4.1457h-29.103c-0.07051 0-0.12727-1.849-0.12727-4.1457v-7.1765c0-2.2967 0.05676-4.1457 0.12727-4.1457z" fill="none" opacity=".916" stroke="url(#radialGradient1351)" stroke-linecap="square" stroke-linejoin="round" stroke-width="4" style="paint-order:fill markers stroke"/>
</g>
</g>
</svg>
