<?xml version="1.0" encoding="UTF-8"?>
<!-- Created with Inkscape (http://www.inkscape.org/) -->
<svg version="1.1" viewBox="0 0 96 96" xmlns="http://www.w3.org/2000/svg" xmlns:cc="http://creativecommons.org/ns#" xmlns:dc="http://purl.org/dc/elements/1.1/" xmlns:rdf="http://www.w3.org/1999/02/22-rdf-syntax-ns#" xmlns:xlink="http://www.w3.org/1999/xlink">
<defs>
<style type="text/css"/>
<style type="text/css"/>
<radialGradient id="radialGradient4992" cx="13.948" cy="44.893" r="43.199" gradientTransform="matrix(.97513 0 0 .049191 69.46 84.38)" gradientUnits="userSpaceOnUse" xlink:href="#linearGradient4133-5"/>
<linearGradient id="linearGradient4133-5">
<stop stop-color="#fff" offset="0"/>
<stop stop-color="#fff" stop-opacity="0" offset="1"/>
</linearGradient>
<radialGradient id="radialGradient3833-1" cx="13.948" cy="44.893" r="43.199" gradientTransform="matrix(.88833 0 0 .049191 35.572 -122.57)" gradientUnits="userSpaceOnUse" xlink:href="#linearGradient4133-5"/>
<linearGradient id="linearGradient4967" x1="2.7714" x2="50.528" y1="-28.642" y2="14.514" gradientUnits="userSpaceOnUse">
<stop stop-color="#fff" offset="0"/>
<stop stop-color="#fff" stop-opacity="0" offset="1"/>
</linearGradient>
<filter id="filter3174-3" color-interpolation-filters="sRGB">
<feGaussianBlur stdDeviation="1.71"/>
</filter>
<linearGradient id="linearGradient3835" x1="45.448" x2="45.448" y1="92.54" y2="7.0165" gradientTransform="scale(1.0059 .99417)" gradientUnits="userSpaceOnUse">
<stop offset="0"/>
<stop stop-opacity=".58824" offset="1"/>
</linearGradient>
<linearGradient id="linearGradient3829" x1="1.5" x2="94.5" y1="88.172" y2="88.172" gradientTransform="translate(8.044 -14.666)" gradientUnits="userSpaceOnUse">
<stop offset="0"/>
<stop stop-opacity=".58824" offset=".1"/>
<stop stop-opacity=".58824" offset=".9"/>
<stop offset="1"/>
</linearGradient>
<radialGradient id="radialGradient3827" cx="48" cy="-27" r="42" gradientTransform="matrix(-1.0722 0 0 -.87502 199.46 -19.126)" gradientUnits="userSpaceOnUse">
<stop stop-color="#fff" offset="0"/>
<stop stop-color="#fff" offset=".8"/>
<stop stop-color="#fff" stop-opacity="0" offset="1"/>
</radialGradient>
<linearGradient id="linearGradient3825" x1="6" x2="90" y1="47" y2="47" gradientTransform="matrix(1.1071 0 0 1.1071 2.9011 -18.701)" gradientUnits="userSpaceOnUse">
<stop stop-color="#adb4c1" offset="0"/>
<stop stop-color="#fff" offset=".25"/>
<stop stop-color="#9095aa" offset=".5"/>
<stop stop-color="#fbf9f9" offset=".75"/>
<stop stop-color="#adb3c1" offset="1"/>
</linearGradient>
<linearGradient id="linearGradient4307" x1="26.993" x2="26.993" y1="1027.1" y2="1015.5" gradientUnits="userSpaceOnUse" xlink:href="#linearGradient872-8"/>
<linearGradient id="linearGradient872-8">
<stop stop-color="#e3ebed" stop-opacity=".99608" offset="0"/>
<stop stop-color="#f4f8f9" stop-opacity=".99706" offset="1"/>
</linearGradient>
<linearGradient id="linearGradient4299" x1="31.357" x2="31.357" y1="1021.3" y2="1009.7" gradientUnits="userSpaceOnUse" xlink:href="#linearGradient872-8"/>
<linearGradient id="linearGradient4291" x1="25.539" x2="25.539" y1="1019.9" y2="1009.7" gradientUnits="userSpaceOnUse" xlink:href="#linearGradient872-8"/>
<linearGradient id="linearGradient4283" x1="17" x2="17" y1="1049.4" y2="1032.4" gradientUnits="userSpaceOnUse" xlink:href="#linearGradient872-8"/>
<linearGradient id="linearGradient4248" x1="39" x2="39" y1="1045.4" y2="1035.4" gradientTransform="translate(-.12274 -1.6586)" gradientUnits="userSpaceOnUse">
<stop stop-color="#ff0a0a" offset="0"/>
<stop stop-color="#c00000" offset="1"/>
</linearGradient>
<clipPath id="clipPath4156-4-1">
<path d="m27.046-55.695-14.214 13.321h0.06127l15.653 21.771 10.231-10.546c-0.2169-1.1522-11.311-23.67-11.732-24.546zm-17.399 16.313-14.888 14.062 21.229 17.515 10.385-10.577zm31.491 12.951-9.7413 9.7136 8.9448 12.458 7.7808-7.555zm-49.84 4.3788-13.754 12.982 26.283 13.846 0.06127-0.0617-0.12253-0.0617 9.8332-10.053-22.301-16.652zm38.015 7.4008-9.8025 9.7753 11.579 9.5594 7.6276-7.4008-8.6691-11.009zm20.187 5.674-7.3825 7.2158 6.1878 8.5418 5.8202-6.1365zm-32.195 6.3215-9.5575 9.4977 13.662 7.185 7.9339-7.6784zm23.312 2.3744-7.1068 6.9383 8.3628 6.9074 5.3608-5.674-0.06127-0.0925-0.0919 0.12335-6.4635-8.2026zm-8.7304 8.5418-7.5051 7.3392 10.354 5.4581c1.3975-1.321 5.6751-6.1229 5.8509-6.3215z" fill="#fff" opacity=".6"/>
</clipPath>
</defs>
<metadata>
<rdf:RDF>
<cc:Work rdf:about="">
<dc:format>image/svg+xml</dc:format>
<dc:type rdf:resource="http://purl.org/dc/dcmitype/StillImage"/>
<dc:title/>
</cc:Work>
</rdf:RDF>
</metadata>
<g transform="translate(0 -956.36)">
<g transform="translate(0 956.36)">
<g transform="translate(0,32)">
<g transform="translate(-8.044 -17.334)">
<path d="m97.187-14.666h-82.286c-3.7988 0-6.8571 3.0583-6.8571 6.8571v82.286c0 3.7989 3.0583 6.8571 6.8571 6.8571h82.286c3.7989 0 6.8571-3.0583 6.8571-6.8571v-82.286c0-3.7989-3.0583-6.8571-6.8571-6.8571z" opacity=".15"/>
<path d="m96.544-13.916h-81c-3.7395 0-6.75 3.0105-6.75 6.75v81c0 3.7395 3.0105 6.75 6.75 6.75h81c3.7395 0 6.75-3.0105 6.75-6.75v-81c0-3.7395-3.0105-6.75-6.75-6.75z" opacity=".15"/>
<path d="m95.901-13.166h-79.714c-3.6801 0-6.6429 2.9627-6.6429 6.6429v79.714c0 3.6801 2.9627 6.6429 6.6429 6.6429h79.714c3.6801 0 6.6429-2.9627 6.6429-6.6429v-79.714c0-3.6801-2.9627-6.6429-6.6429-6.6429z" fill="url(#linearGradient3825)"/>
<g transform="matrix(1.1071 0 0 1.1071 -107.81 -18.148)">
<path d="m112 4.5c-3.324 0-6 2.676-6 6v15h1v-15c0-2.7873 2.2127-5 5-5h72c2.7873 0 5 2.2127 5 5v15h1v-15c0-3.324-2.676-6-6-6h-72z" fill="url(#radialGradient3827)" opacity=".45"/>
</g>
<path d="m9.544 67.178v6c0 3.6801 2.9761 6.6562 6.6562 6.6562h79.688c3.6801 0 6.6563-2.9761 6.6563-6.6562v-6c0 3.6801-2.9761 6.6562-6.6563 6.6562h-79.688c-3.6801 0-6.6562-2.9761-6.6562-6.6562z" fill="url(#linearGradient3829)" opacity=".89091"/>
<g transform="translate(251.29 -104.9)">
<g display="none">
<rect x="5" y="7" width="86" height="85" rx="6" ry="6" fill="url(#linearGradient3835)" filter="url(#filter3174-3)" opacity=".9"/>
</g>
</g>
</g>
</g>
<g>
<rect x="5.5768" y="7.2399" width="84.846" height="77.52" ry="4.25" fill="#d8dee4"/>
<path d="m9.6041 5.715c-3.1166 0-5.668 2.5395-5.668 5.646v69.278c0 3.1065 2.5513 5.646 5.668 5.646h76.792c3.1166 0 5.668-2.5395 5.668-5.646v-69.278c0-3.1065-2.5514-5.646-5.668-5.646h-76.792zm0 2.3194h76.792c1.8881 0 3.352 1.4801 3.352 3.3266v69.278c0 1.8465-1.4639 3.3266-3.352 3.3266h-76.792c-1.8881 0-3.352-1.4801-3.352-3.3266v-69.278c0-1.8465 1.4639-3.3266 3.352-3.3266z" color="#000000" fill="#1f2124" fill-opacity=".63265" style="block-progression:tb;text-indent:0;text-transform:none"/>
<g transform="matrix(1.8009 0 0 1.7325 4.1507 -1734.9)">
<g transform="translate(-.69515 -4.8407)">
<path transform="translate(0 1004.4)" d="m15 9v7 1h1 11v5h-2v1h2v15h-2v1h2 1v-22h4v-1h-4-12v-7h-1z" color="#000000" fill="#303133"/>
<path d="m32.72 1016.8v7.6562h11.151v-7.6562z" fill-opacity=".33913"/>
<path d="m6.7195 1012.8v7.6562h19.151v-7.6562h-19.151z" fill-opacity=".36087"/>
<path d="m5.5198 1031.7h20.051v17.656h-20.051z" fill="#b3b3b3"/>
<g transform="matrix(.68744 0 0 .68744 21.444 318.28)">
<path d="m14.658 1015.3h17.531v11.137h-17.531z" fill="#b3b3b3"/>
<path d="m14.878 1015.5h17.089v10.607h-17.089z" fill="url(#linearGradient4307)"/>
</g>
<rect x="31.672" y="1016.4" width="1" height="7.291" ry="0" color="#000000" fill="#308fb9"/>
<g>
<g transform="matrix(.68744 0 0 .68744 -.55642 318.28)">
<rect x="8.8388" y="1009.4" width="29.168" height="11.137" ry="0" fill="#b3b3b3"/>
<rect x="9.0598" y="1009.7" width="28.726" height="10.607" ry="0" fill="url(#linearGradient4299)"/>
</g>
<rect x="5.6717" y="1012.4" width="1" height="7.291" ry="0" color="#000000" fill="#308bb9"/>
</g>
<path d="m6.7195 1022.8v7.6562h19.151v-7.6562h-19.151z" fill-opacity=".42609"/>
<g>
<g transform="matrix(.68744 0 0 .68744 -.55642 328.28)">
<rect x="8.8388" y="1009.4" width="29.168" height="11.137" ry="0" fill="#b3b3b3"/>
<rect x="9.0598" y="1009.7" width="28.726" height="10.607" ry="0" fill="url(#linearGradient4291)"/>
</g>
<rect x="5.6717" y="1022.4" width="1" height="7.291" ry="0" color="#000000" fill="#3092b9"/>
</g>
<path d="m6.7195 1032.2v17.856h19.151v-17.856h-19.151z" fill-opacity=".32174"/>
<g>
<path d="m5.6717 1031.9h19.748v17.291h-19.748z" fill="url(#linearGradient4283)"/>
<rect x="5.6717" y="1031.9" width="1" height="17.291" ry="0" color="#000000" fill="#308bb9"/>
</g>
<path transform="translate(0 1004.4)" d="m8 9v1h16v-1h-16zm0 2v1h9v-1h-9z" color="#000000" fill="#4d4d50"/>
<path transform="translate(0 1004.4)" d="m10 20v1h11v-1h-11zm4 2v1h2v-1h-2z" color="#000000" fill="#515255"/>
<path transform="translate(0 1004.4)" d="m8 29v1h15v-1h-15zm0 2v1h15v-1h-15zm0 2v1h15v-1h-15zm0 2v1h15v-1h-15zm0 2v1h15v-1h-15zm0 2v5h15v-5h-15z" color="#000000" fill="#58595c"/>
<path transform="translate(0 1004.4)" d="m34 13v1h2v-1h-2zm3 0v1h5v-1h-5zm-3 2v1h1v-1h-1zm2 0v1h1v-1h-1zm2 0v1h4v-1h-4zm-4 2v1h6v-1h-6z" color="#000000" fill="#818287"/>
</g>
<g transform="translate(0 3.7237)">
<path d="m37.697 1043.9c-0.30655-0.028-0.65018-0.1779-0.93739-0.4078-0.23569-0.1886-0.50816-0.5355-0.68994-0.8784-0.06845-0.1292-0.09006-0.1557-0.1213-0.1486-0.0209 0.01-0.20908 0.02-0.41815 0.031-1.7336 0.1049-2.7882-0.3438-2.533-1.0775 0.06528-0.1877 0.16395-0.3294 0.37546-0.5395 0.29477-0.2926 0.67706-0.5522 1.2119-0.8227 0.16983-0.086 0.30882-0.1615 0.30886-0.1681 3e-5 -0.01-0.08332-0.061-0.18524-0.122-1.0002-0.5945-1.8468-1.3479-2.2524-2.0043-0.41487-0.6713-0.33666-1.282 0.19664-1.5356 0.23677-0.1126 0.32803-0.1276 0.76809-0.1268 0.35736 0 0.42657 0.01 0.6611 0.053 0.53974 0.1077 1.2882 0.361 1.7263 0.5843l0.06854 0.036 0.01135-0.1463c0.01947-0.2511 0.13646-0.5548 0.29757-0.7722 0.09592-0.1296 0.33908-0.3577 0.47103-0.4423 0.41172-0.2633 0.9263-0.3881 1.4253-0.3456 0.32164 0.026 0.52774 0.085 0.81285 0.2257 0.55467 0.2745 0.92874 0.7879 0.97259 1.3344l0.01174 0.1463 0.06854-0.036c0.43802-0.2233 1.1865-0.4766 1.7263-0.5843 0.23453-0.048 0.30374-0.053 0.6611-0.053 0.33077 0 0.42031 0.01 0.52269 0.034 0.46529 0.1311 0.70496 0.41 0.7061 0.8216 0.0013 0.4415-0.26443 0.9271-0.81968 1.4983-0.46188 0.4751-1.0397 0.9221-1.6968 1.3127-0.10192 0.06-0.18528 0.1155-0.18524 0.122 3e-5 0.01 0.13903 0.082 0.30886 0.1682 0.53484 0.2704 0.91712 0.53 1.2119 0.8226 0.21151 0.2101 0.31019 0.3519 0.37547 0.5395 0.25529 0.7341-0.80053 1.1828-2.5345 1.0773-0.2099-0.014-0.39484-0.025-0.41097-0.026-0.01896 0-0.06128 0.058-0.11968 0.168-0.13094 0.2479-0.26231 0.4306-0.45426 0.6317-0.21373 0.224-0.3701 0.3419-0.61015 0.4602-0.2984 0.1468-0.59617 0.2013-0.93134 0.1701zm0.56437-0.5549c0.2143-0.074 0.3999-0.1925 0.58407-0.3725l0.16302-0.1594-0.06266-0.026c-0.07884-0.032-0.38668-0.1096-0.57407-0.1426-0.21527-0.037-0.8373-0.031-1.07 0.01-0.22364 0.041-0.50565 0.1163-0.53227 0.1429-0.01294 0.014 0.02669 0.065 0.12156 0.1591 0.21419 0.2128 0.40269 0.3287 0.66262 0.4075 0.2027 0.061 0.49784 0.054 0.70777-0.02zm-2.4323-1.3107c-0.14295-0.4371-0.19372-0.748-0.2072-1.2688-0.0096-0.3711 0.0018-0.5992 0.04433-0.8907 0.0118-0.081 0.01093-0.082-0.03344-0.069-0.09934 0.031-0.62726 0.2974-0.81785 0.4135-0.49959 0.3047-0.85922 0.6408-0.98812 0.9239-0.05747 0.1261-0.06956 0.3384-0.02579 0.4528 0.11495 0.3012 0.56238 0.5253 1.1875 0.595 0.10976 0.013 0.2124 0.025 0.22808 0.027 0.01567 0.01 0.17424 0.01 0.35236 0.01l0.32385 0.01-0.06372-0.1948zm5.0135 0.1498c0.60955-0.092 1.001-0.2988 1.1114-0.588 0.04376-0.1145 0.03171-0.3268-0.02578-0.4529-0.1289-0.2831-0.48853-0.6192-0.98812-0.9238-0.19058-0.1162-0.71851-0.3831-0.81783-0.4136-0.0445-0.014-0.04524-0.013-0.03193 0.069 0.07093 0.4326 0.06707 1.0909-0.0092 1.5743-0.02676 0.1695-0.10415 0.4816-0.16063 0.6477l-0.04666 0.1371 0.38457-0.01c0.21151-0.01 0.47437-0.024 0.58414-0.04zm-3.8506-0.3085c0.29808-0.096 0.45293-0.1217 0.74544-0.1217 0.57242 0 1.0284 0.098 1.4579 0.3149 0.0923 0.048 0.17536 0.08 0.18458 0.074 0.0209-0.014 0.14596-0.3967 0.16206-0.4974l0.0119-0.074-0.18715-0.087c-0.94951-0.4433-2.036-0.4447-2.9855-0.01l-0.18105 0.084 0.01231 0.077c0.01306 0.082 0.11815 0.4233 0.1472 0.4785 0.0155 0.031 0.03818 0.021 0.21941-0.071 0.11117-0.058 0.29701-0.1348 0.41297-0.1723zm-0.81582-1.0527c0.0583-0.065 0.39115-0.2792 0.57203-0.369 0.71139-0.3535 1.564-0.3484 2.2888 0.014 0.15814 0.079 0.40601 0.2373 0.54951 0.3508l0.0649 0.052-0.01174-0.2199c-0.0065-0.1211-0.02186-0.299-0.03426-0.3956l-0.0225-0.1754-0.10666-0.071c-0.26589-0.1799-0.55729-0.3098-0.87644-0.391-0.28525-0.072-0.48912-0.092-0.8268-0.08-0.45665 0.016-0.7695 0.095-1.1594 0.2901-0.29906 0.15-0.43209 0.2482-0.44902 0.3315-0.02084 0.1027-0.05467 0.469-0.05467 0.5924 0 0.1186 0.01248 0.1323 0.06624 0.073zm-0.64195-1.191 0.19407-0.073 0.03908-0.1331c0.14268-0.4857 0.36846-0.9382 0.64277-1.2879l0.08591-0.1095-0.13336-0.1375c-0.14297-0.1475-0.28496-0.3523-0.35683-0.5149-0.04259-0.096-0.05103-0.1035-0.20301-0.1729-0.365-0.167-0.77441-0.3014-1.1388-0.3742-0.17847-0.037-0.27992-0.043-0.56884-0.043-0.31595 0-0.36609 0.01-0.49418 0.043-0.17752 0.054-0.25275 0.093-0.37253 0.188-0.1947 0.1539-0.27964 0.4316-0.20791 0.6799 0.1227 0.4248 0.57775 0.9223 1.3027 1.4243 0.37053 0.2565 0.93729 0.5988 0.97885 0.591 0.0209-0.01 0.12534-0.04 0.23208-0.08zm5.2934-0.1228c0.64267-0.3915 1.0383-0.6843 1.3676-1.0119 0.51564-0.5132 0.6759-0.9363 0.48803-1.2888-0.0959-0.18-0.25476-0.2939-0.52913-0.3795-0.12809-0.04-0.17823-0.043-0.49418-0.043-0.28892 0-0.39036 0.01-0.56884 0.043-0.36419 0.072-0.7738 0.2072-1.1383 0.3739-0.15672 0.071-0.15855 0.073-0.21226 0.1918-0.07811 0.1723-0.18069 0.3197-0.33568 0.4824l-0.13587 0.1426 0.08536 0.1045c0.26926 0.3295 0.46884 0.7209 0.61493 1.2058l0.06843 0.2273 0.19814 0.08c0.10898 0.043 0.20879 0.081 0.22181 0.082 0.01301 0.01 0.17952-0.093 0.37-0.2091zm-3.9151-0.613c0.32714-0.1405 0.76849-0.2173 1.1075-0.1927 0.37552 0.026 0.69943 0.1195 1.0291 0.293 0.20284 0.1068 0.20441 0.1045 0.06924-0.1014-0.12373-0.1884-0.42088-0.4809-0.58934-0.5802-0.22548-0.1329-0.3934-0.179-0.65152-0.179-0.25812 0-0.42604 0.047-0.65152 0.179-0.16846 0.099-0.46561 0.3918-0.58934 0.5802-0.13094 0.1995-0.13104 0.2086-0.0014 0.1353 0.06127-0.035 0.18605-0.095 0.27731-0.1342zm-0.12726-1.787c0.09958-0.1039 0.14221-0.2225 0.15551-0.4323 0.01697-0.2676-0.05832-0.4914-0.19743-0.5865-0.14911-0.1022-0.30112-0.035-0.40718 0.1809-0.05338 0.1084-0.06199 0.1474-0.06821 0.3087-6e-3 0.1557-3.4e-4 0.2038 0.03619 0.3068 0.04159 0.1172 0.04898 0.1257 0.18586 0.2122 0.0784 0.048 0.15898 0.091 0.17907 0.092 0.0201 0 0.07237-0.036 0.1162-0.082zm2.4735-0.01c0.14443-0.089 0.15005-0.095 0.19209-0.2139 0.03653-0.1029 0.04219-0.151 0.03619-0.3067-0.0062-0.1613-0.01481-0.2004-0.06821-0.3087-0.07327-0.1488-0.16073-0.2233-0.26534-0.2261-0.14562-0.01-0.27317 0.1393-0.32585 0.3656-0.02997 0.1288-0.01476 0.3968 0.02968 0.5226 0.035 0.099 0.17229 0.2589 0.22237 0.2589 0.01665 0 0.09724-0.043 0.17907-0.092z" fill-opacity=".058824"/>
<path d="m37.614 1043.5c-0.34294-0.03-0.72738-0.1895-1.0487-0.4343-0.26367-0.2008-0.56848-0.5701-0.77185-0.9352-0.07657-0.1376-0.10075-0.1658-0.1357-0.1583-0.02338 0.011-0.2339 0.021-0.46779 0.033-1.9394 0.1116-3.1192-0.3661-2.8337-1.1473 0.07303-0.1999 0.18342-0.3508 0.42004-0.5745 0.32977-0.3115 0.75744-0.5879 1.3558-0.8759 0.19-0.092 0.34549-0.172 0.34553-0.179 3.4e-5 -0.011-0.09322-0.065-0.20724-0.1299-1.119-0.633-2.066-1.4352-2.5199-2.1341-0.46412-0.7148-0.37663-1.365 0.21999-1.6351 0.26488-0.1199 0.36697-0.1358 0.85928-0.135 0.39978 0 0.47721 0.011 0.73958 0.056 0.60382 0.1146 1.4412 0.3843 1.9312 0.6221l0.07668 0.038 0.01269-0.1557c0.02178-0.2674 0.15266-0.5908 0.3329-0.8223 0.10731-0.1379 0.37934-0.3808 0.52695-0.4709 0.4606-0.2803 1.0363-0.4132 1.5945-0.368 0.35983 0.028 0.5904 0.091 0.90935 0.2403 0.62052 0.2923 1.039 0.839 1.0881 1.4209l0.01313 0.1557 0.07668-0.038c0.49003-0.2378 1.3274-0.5075 1.9312-0.6221 0.26238-0.051 0.33981-0.056 0.73959-0.056 0.37004 0 0.47021 0.011 0.58474 0.036 0.52053 0.1396 0.78865 0.4366 0.78994 0.8748 0.0015 0.4701-0.29582 0.9872-0.91699 1.5954-0.51672 0.5058-1.1631 0.9818-1.8983 1.3977-0.11402 0.064-0.20728 0.1229-0.20724 0.1299 3.4e-5 0.011 0.15553 0.087 0.34553 0.1791 0.59834 0.2879 1.026 0.5643 1.3558 0.8758 0.23662 0.2237 0.34701 0.3747 0.42004 0.5745 0.2856 0.7816-0.89557 1.2594-2.8354 1.147-0.23482-0.015-0.44172-0.027-0.45976-0.028-0.02121 0-0.06856 0.062-0.13389 0.1789-0.14649 0.264-0.29346 0.4585-0.50819 0.6726-0.2391 0.2385-0.41404 0.3641-0.68259 0.49-0.33383 0.1563-0.66695 0.2144-1.0419 0.1812zm0.63138-0.5909c0.23975-0.079 0.44738-0.2049 0.65342-0.3966l0.18238-0.1697-0.0701-0.028c-0.08819-0.034-0.43259-0.1167-0.64222-0.1518-0.24083-0.039-0.9367-0.033-1.1971 0.011-0.25019 0.044-0.56569 0.1238-0.59546 0.1522-0.01448 0.015 0.02986 0.069 0.13599 0.1694 0.23962 0.2265 0.4505 0.35 0.74129 0.4339 0.22676 0.065 0.55694 0.057 0.79179-0.021zm-2.721-1.3956c-0.15992-0.4654-0.21672-0.7964-0.2318-1.3509-0.01074-0.3952 2e-3 -0.638 0.04959-0.9484 0.0132-0.086 0.01223-0.087-0.03742-0.073-0.11113 0.033-0.70173 0.3167-0.91495 0.4403-0.5589 0.3244-0.96122 0.6823-1.1054 0.9837-0.06429 0.1343-0.07782 0.3604-0.02885 0.4822 0.1286 0.3207 0.62915 0.5593 1.3285 0.6335 0.1228 0.014 0.23762 0.027 0.25516 0.029 0.01754 0.011 0.19493 0.011 0.39419 0.011l0.3623 0.011-0.07129-0.2074zm5.6087 0.1595c0.68192-0.098 1.1199-0.3181 1.2434-0.626 0.04895-0.1219 0.03547-0.348-0.02884-0.4823-0.1442-0.3014-0.54653-0.6593-1.1054-0.9836-0.2132-0.1237-0.80381-0.4079-0.91493-0.4404-0.04978-0.015-0.05061-0.014-0.03572 0.073 0.07935 0.4606 0.07503 1.1615-0.0103 1.6762-0.02993 0.1805-0.11652 0.5128-0.17971 0.6897l-0.0522 0.146 0.43023-0.011c0.23662-0.011 0.53069-0.026 0.65349-0.043zm-4.3078-0.3284c0.33347-0.1022 0.5067-0.1296 0.83395-0.1296 0.64038 0 1.1505 0.1043 1.631 0.3353 0.10326 0.051 0.19618 0.085 0.20649 0.079 0.02338-0.015 0.16329-0.4224 0.1813-0.5296l0.01331-0.079-0.20937-0.093c-1.0622-0.472-2.2777-0.4735-3.34-0.011l-0.20254 0.089 0.01377 0.082c0.01461 0.087 0.13218 0.4507 0.16468 0.5095 0.01734 0.033 0.04271 0.022 0.24546-0.076 0.12437-0.062 0.33227-0.1435 0.462-0.1835zm-0.91268-1.1209c0.06523-0.069 0.43759-0.2973 0.63994-0.3929 0.79585-0.3764 1.7497-0.371 2.5606 0.015 0.17691 0.084 0.45421 0.2527 0.61474 0.3735l0.0726 0.055-0.01313-0.2341c-0.0072-0.129-0.02445-0.3184-0.03833-0.4213l-0.02517-0.1867-0.11933-0.076c-0.29746-0.1916-0.62345-0.3299-0.9805-0.4163-0.31911-0.077-0.54718-0.098-0.92496-0.085-0.51086 0.017-0.86086 0.1011-1.2971 0.3089-0.33456 0.1597-0.48339 0.2642-0.50233 0.3529-0.02331 0.1094-0.06116 0.4994-0.06116 0.6308 0 0.1263 0.01396 0.1409 0.0741 0.078zm-0.71816-1.2681 0.21711-0.078 0.04372-0.1417c0.15962-0.5171 0.4122-0.9989 0.71908-1.3713l0.09611-0.1166-0.1492-0.1464c-0.15994-0.157-0.3188-0.3751-0.3992-0.5482-0.04765-0.1022-0.05708-0.1102-0.22711-0.1841-0.40834-0.1778-0.86635-0.3209-1.274-0.3984-0.19966-0.039-0.31315-0.046-0.63637-0.046-0.35346 0-0.40955 0.011-0.55285 0.046-0.1986 0.057-0.28276 0.099-0.41676 0.2001-0.21782 0.1639-0.31283 0.4596-0.2326 0.724 0.13727 0.4523 0.64634 0.982 1.4574 1.5165 0.41452 0.2731 1.0486 0.6376 1.0951 0.6293 0.02338-0.011 0.14023-0.043 0.25964-0.085zm5.9219-0.1308c0.71897-0.4168 1.1616-0.7286 1.5299-1.0774 0.57686-0.5464 0.75614-0.9969 0.54596-1.3723-0.10728-0.1916-0.285-0.3129-0.59194-0.404-0.14329-0.043-0.19939-0.046-0.55285-0.046-0.32322 0-0.43671 0.011-0.63637 0.046-0.40743 0.077-0.86567 0.2206-1.2734 0.3981-0.17532 0.076-0.17737 0.078-0.23746 0.2042-0.08738 0.1834-0.20214 0.3404-0.37553 0.5136l-0.152 0.1519 0.0955 0.1112c0.30123 0.3509 0.5245 0.7676 0.68793 1.2839l0.07655 0.242 0.22167 0.085c0.12192 0.046 0.23358 0.086 0.24814 0.087 0.01455 0.011 0.20083-0.099 0.41393-0.2226zm-4.3799-0.6527c0.36598-0.1496 0.85972-0.2313 1.239-0.2052 0.4201 0.028 0.78247 0.1273 1.1512 0.312 0.22692 0.1137 0.22868 0.1113 0.07746-0.1079-0.13842-0.2006-0.47084-0.5121-0.65931-0.6178-0.25225-0.1415-0.4401-0.1906-0.72887-0.1906-0.28877 0-0.47662 0.05-0.72886 0.1906-0.18846 0.1054-0.52089 0.4172-0.65931 0.6178-0.14649 0.2124-0.14659 0.2221-0.0016 0.144 0.06855-0.037 0.20814-0.1011 0.31023-0.1429zm-0.14236-1.9027c0.1114-0.1106 0.1591-0.2369 0.17397-0.4603 0.01899-0.2849-0.06525-0.5232-0.22087-0.6245-0.16682-0.1088-0.33687-0.037-0.45552 0.1926-0.05972 0.1155-0.06934 0.157-0.07631 0.3287-0.0067 0.1658-3.8e-4 0.217 0.04048 0.3267 0.04652 0.1248 0.05479 0.1338 0.20792 0.2259 0.08771 0.051 0.17786 0.097 0.20033 0.098 0.02248 0 0.08097-0.038 0.12999-0.087zm2.7672-0.011c0.16158-0.095 0.16786-0.1012 0.21489-0.2278 0.04086-0.1096 0.0472-0.1608 0.04048-0.3266-0.0069-0.1717-0.01657-0.2133-0.07631-0.3287-0.08197-0.1584-0.17981-0.2377-0.29684-0.2407-0.16292-0.011-0.3056 0.1483-0.36453 0.3893-0.03353 0.1371-0.01652 0.4225 0.0332 0.5564 0.03916 0.1054 0.19275 0.2757 0.24877 0.2757 0.01863 0 0.10878-0.046 0.20033-0.098z" fill-opacity=".58261" stroke="#000" stroke-opacity=".25217" stroke-width="1.0914"/>
<path d="m37.697 1043.1c-0.30655-0.028-0.65018-0.1779-0.93739-0.4078-0.23569-0.1886-0.50816-0.5355-0.68994-0.8784-0.06845-0.1292-0.09006-0.1557-0.1213-0.1486-0.0209 0.01-0.20908 0.02-0.41815 0.031-1.7336 0.1049-2.7882-0.3438-2.533-1.0775 0.06528-0.1877 0.16395-0.3294 0.37546-0.5395 0.29477-0.2926 0.67706-0.5522 1.2119-0.8227 0.16983-0.086 0.30882-0.1615 0.30886-0.1681 3e-5 -0.01-0.08332-0.061-0.18524-0.122-1.0002-0.5945-1.8468-1.3479-2.2524-2.0043-0.41487-0.6713-0.33666-1.282 0.19664-1.5356 0.23677-0.1126 0.32803-0.1276 0.76809-0.1268 0.35736 0 0.42657 0.01 0.6611 0.053 0.53974 0.1077 1.2882 0.361 1.7263 0.5843l0.06854 0.036 0.01135-0.1463c0.01947-0.2511 0.13646-0.5548 0.29757-0.7722 0.09592-0.1296 0.33908-0.3577 0.47103-0.4423 0.41172-0.2633 0.9263-0.3881 1.4253-0.3456 0.32164 0.026 0.52774 0.085 0.81285 0.2257 0.55467 0.2745 0.92874 0.7879 0.97259 1.3344l0.01174 0.1463 0.06854-0.036c0.43802-0.2233 1.1865-0.4766 1.7263-0.5843 0.23453-0.048 0.30374-0.053 0.6611-0.053 0.33077 0 0.42031 0.01 0.52269 0.034 0.46529 0.1311 0.70496 0.41 0.7061 0.8216 0.0013 0.4415-0.26443 0.9271-0.81968 1.4983-0.46188 0.4751-1.0397 0.9221-1.6968 1.3127-0.10192 0.06-0.18528 0.1155-0.18524 0.122 3e-5 0.01 0.13903 0.082 0.30886 0.1682 0.53484 0.2704 0.91712 0.53 1.2119 0.8226 0.21151 0.2101 0.31019 0.3519 0.37547 0.5395 0.25529 0.7341-0.80053 1.1828-2.5345 1.0773-0.2099-0.014-0.39484-0.025-0.41097-0.026-0.01896 0-0.06128 0.058-0.11968 0.168-0.13094 0.2479-0.26231 0.4306-0.45426 0.6317-0.21373 0.224-0.3701 0.3419-0.61015 0.4602-0.2984 0.1468-0.59617 0.2013-0.93134 0.1701zm0.56437-0.5549c0.2143-0.074 0.3999-0.1925 0.58407-0.3725l0.16302-0.1594-0.06266-0.026c-0.07884-0.032-0.38668-0.1096-0.57407-0.1426-0.21527-0.037-0.8373-0.031-1.07 0.01-0.22364 0.041-0.50565 0.1163-0.53227 0.1429-0.01294 0.014 0.02669 0.065 0.12156 0.1591 0.21419 0.2128 0.40269 0.3287 0.66262 0.4075 0.2027 0.061 0.49784 0.054 0.70777-0.02zm-2.4323-1.3107c-0.14295-0.4371-0.19372-0.748-0.2072-1.2688-0.0096-0.3711 0.0018-0.5992 0.04433-0.8907 0.0118-0.081 0.01093-0.082-0.03344-0.069-0.09934 0.031-0.62726 0.2974-0.81785 0.4135-0.49959 0.3047-0.85922 0.6408-0.98812 0.9239-0.05747 0.1261-0.06956 0.3384-0.02579 0.4528 0.11495 0.3012 0.56238 0.5253 1.1875 0.595 0.10976 0.013 0.2124 0.025 0.22808 0.027 0.01567 0.01 0.17424 0.01 0.35236 0.01l0.32385 0.01-0.06372-0.1948zm5.0135 0.1498c0.60955-0.092 1.001-0.2988 1.1114-0.588 0.04376-0.1145 0.03171-0.3268-0.02578-0.4529-0.1289-0.2831-0.48853-0.6192-0.98812-0.9238-0.19058-0.1162-0.71851-0.3831-0.81783-0.4136-0.0445-0.014-0.04524-0.013-0.03193 0.069 0.07093 0.4326 0.06707 1.0909-0.0092 1.5743-0.02676 0.1695-0.10415 0.4816-0.16063 0.6477l-0.04666 0.1371 0.38457-0.01c0.21151-0.01 0.47437-0.024 0.58414-0.04zm-3.8506-0.3085c0.29808-0.096 0.45293-0.1217 0.74544-0.1217 0.57242 0 1.0284 0.098 1.4579 0.3149 0.0923 0.048 0.17536 0.08 0.18458 0.074 0.0209-0.014 0.14596-0.3967 0.16206-0.4974l0.0119-0.074-0.18715-0.087c-0.94951-0.4433-2.036-0.4447-2.9855-0.01l-0.18105 0.084 0.01231 0.077c0.01306 0.082 0.11815 0.4233 0.1472 0.4785 0.0155 0.031 0.03818 0.021 0.21941-0.071 0.11117-0.058 0.29701-0.1348 0.41297-0.1723zm-0.81582-1.0527c0.0583-0.065 0.39115-0.2792 0.57203-0.369 0.71139-0.3535 1.564-0.3484 2.2888 0.014 0.15814 0.079 0.40601 0.2373 0.54951 0.3508l0.0649 0.052-0.01174-0.2199c-0.0065-0.1211-0.02186-0.299-0.03426-0.3956l-0.0225-0.1754-0.10666-0.071c-0.26589-0.1799-0.55729-0.3098-0.87644-0.391-0.28525-0.072-0.48912-0.092-0.8268-0.08-0.45665 0.016-0.7695 0.095-1.1594 0.2901-0.29906 0.15-0.43209 0.2482-0.44902 0.3315-0.02084 0.1027-0.05467 0.469-0.05467 0.5924 0 0.1186 0.01248 0.1323 0.06624 0.073zm-0.64195-1.191 0.19407-0.073 0.03908-0.1331c0.14268-0.4857 0.36846-0.9382 0.64277-1.2879l0.08591-0.1095-0.13336-0.1375c-0.14297-0.1475-0.28496-0.3523-0.35683-0.5149-0.04259-0.096-0.05103-0.1035-0.20301-0.1729-0.365-0.167-0.77441-0.3014-1.1388-0.3742-0.17847-0.037-0.27992-0.043-0.56884-0.043-0.31595 0-0.36609 0.01-0.49418 0.043-0.17752 0.054-0.25275 0.093-0.37253 0.188-0.1947 0.1539-0.27964 0.4316-0.20791 0.6799 0.1227 0.4248 0.57775 0.9223 1.3027 1.4243 0.37053 0.2565 0.93729 0.5988 0.97885 0.591 0.0209-0.01 0.12534-0.04 0.23208-0.08zm5.2934-0.1228c0.64267-0.3915 1.0383-0.6843 1.3676-1.0119 0.51564-0.5132 0.6759-0.9363 0.48803-1.2888-0.0959-0.18-0.25476-0.2939-0.52913-0.3795-0.12809-0.04-0.17823-0.043-0.49418-0.043-0.28892 0-0.39036 0.01-0.56884 0.043-0.36419 0.072-0.7738 0.2072-1.1383 0.3739-0.15672 0.071-0.15855 0.073-0.21226 0.1918-0.07811 0.1723-0.18069 0.3197-0.33568 0.4824l-0.13587 0.1426 0.08536 0.1045c0.26926 0.3295 0.46884 0.7209 0.61493 1.2058l0.06843 0.2273 0.19814 0.08c0.10898 0.043 0.20879 0.081 0.22181 0.082 0.01301 0.01 0.17952-0.093 0.37-0.2091zm-3.9151-0.613c0.32714-0.1405 0.76849-0.2173 1.1075-0.1927 0.37552 0.026 0.69943 0.1195 1.0291 0.293 0.20284 0.1068 0.20441 0.1045 0.06924-0.1014-0.12373-0.1884-0.42088-0.4809-0.58934-0.5802-0.22548-0.1329-0.3934-0.179-0.65152-0.179-0.25812 0-0.42604 0.047-0.65152 0.179-0.16846 0.099-0.46561 0.3918-0.58934 0.5802-0.13094 0.1995-0.13104 0.2086-0.0014 0.1353 0.06127-0.035 0.18605-0.095 0.27731-0.1342zm-0.12726-1.787c0.09958-0.1039 0.14221-0.2225 0.15551-0.4323 0.01697-0.2676-0.05832-0.4914-0.19743-0.5865-0.14911-0.1022-0.30112-0.035-0.40718 0.1809-0.05338 0.1084-0.06199 0.1474-0.06821 0.3087-6e-3 0.1557-3.4e-4 0.2038 0.03619 0.3068 0.04159 0.1172 0.04898 0.1257 0.18586 0.2122 0.0784 0.048 0.15898 0.091 0.17907 0.092 0.0201 0 0.07237-0.036 0.1162-0.082zm2.4735-0.01c0.14443-0.089 0.15005-0.095 0.19209-0.2139 0.03653-0.1029 0.04219-0.151 0.03619-0.3067-0.0062-0.1613-0.01481-0.2004-0.06821-0.3087-0.07327-0.1488-0.16073-0.2233-0.26534-0.2261-0.14562-0.01-0.27317 0.1393-0.32585 0.3656-0.02997 0.1288-0.01476 0.3968 0.02968 0.5226 0.035 0.099 0.17229 0.2589 0.22237 0.2589 0.01665 0 0.09724-0.043 0.17907-0.092z" fill="url(#linearGradient4248)"/>
</g>
</g>
<rect transform="matrix(1.0692 0 0 1.0477 3.5288 39.18)" x="2" y="-30" width="75.966" height="69.024" rx="3.957" ry="3.957" clip-path="url(#clipPath4156-4-1)" fill="url(#linearGradient4967)" opacity=".65"/>
</g>
<g transform="translate(-34.302 -4.3977)">
<rect x="40.936" y="84.463" width="84.25" height="4.25" rx="0" ry="4.25" fill="url(#radialGradient4992)" opacity=".55"/>
<rect transform="rotate(90)" x="9.587" y="-122.49" width="76.75" height="4.25" rx="0" ry="4.25" fill="url(#radialGradient3833-1)" opacity=".55"/>
</g>
</g>
</g>
</svg>
