<?xml version="1.0" encoding="UTF-8"?>
<!-- Created with Inkscape (http://www.inkscape.org/) -->
<svg version="1.0" viewBox="0 0 96 96" xmlns="http://www.w3.org/2000/svg" xmlns:cc="http://creativecommons.org/ns#" xmlns:dc="http://purl.org/dc/elements/1.1/" xmlns:rdf="http://www.w3.org/1999/02/22-rdf-syntax-ns#" xmlns:xlink="http://www.w3.org/1999/xlink">
<defs>
<linearGradient id="ButtonShadow" x1="45.448" x2="45.448" y1="92.54" y2="7.0165" gradientTransform="scale(1.0059 .99417)" gradientUnits="userSpaceOnUse">
<stop offset="0"/>
<stop stop-opacity=".58824" offset="1"/>
</linearGradient>
<filter id="filter3174" color-interpolation-filters="sRGB">
<feGaussianBlur stdDeviation="1.71"/>
</filter>
<linearGradient id="linearGradient3837" x1="2.7714" x2="50.528" y1="-28.642" y2="14.514" gradientUnits="userSpaceOnUse">
<stop stop-color="#fff" offset="0"/>
<stop stop-color="#fff" stop-opacity="0" offset="1"/>
</linearGradient>
<radialGradient id="radialGradient3833" cx="13.948" cy="44.893" r="43.199" gradientTransform="matrix(.88833 0 0 .049191 16.069 -98.752)" gradientUnits="userSpaceOnUse" xlink:href="#linearGradient4133"/>
<radialGradient id="radialGradient3831" cx="13.948" cy="44.893" r="43.199" gradientTransform="matrix(.97513 0 0 .049191 41.943 65.501)" gradientUnits="userSpaceOnUse" xlink:href="#linearGradient4133"/>
<linearGradient id="linearGradient3829" x1="1.5" x2="94.5" y1="88.172" y2="88.172" gradientTransform="translate(8.044 -14.666)" gradientUnits="userSpaceOnUse">
<stop offset="0"/>
<stop stop-opacity=".58824" offset=".1"/>
<stop stop-opacity=".58824" offset=".9"/>
<stop offset="1"/>
</linearGradient>
<radialGradient id="radialGradient3827" cx="48" cy="-27" r="42" gradientTransform="matrix(-1.187 0 0 -.96877 113.02 -39.322)" gradientUnits="userSpaceOnUse">
<stop stop-color="#fff" offset="0"/>
<stop stop-color="#fff" offset=".8"/>
<stop stop-color="#fff" stop-opacity="0" offset="1"/>
</radialGradient>
<linearGradient id="linearGradient3825" x1="6" x2="90" y1="47" y2="47" gradientTransform="matrix(1.1071 0 0 1.1071 2.9011 -18.701)" gradientUnits="userSpaceOnUse">
<stop stop-color="#adb4c1" offset="0"/>
<stop stop-color="#fff" offset=".25"/>
<stop stop-color="#9095aa" offset=".5"/>
<stop stop-color="#fbf9f9" offset=".75"/>
<stop stop-color="#adb3c1" offset="1"/>
</linearGradient>
<filter id="filter3174-36" color-interpolation-filters="sRGB">
<feGaussianBlur stdDeviation="1.71"/>
</filter>
<filter id="filter3174-3" color-interpolation-filters="sRGB">
<feGaussianBlur stdDeviation="1.71"/>
</filter>
<linearGradient id="linearGradient4133">
<stop stop-color="#fff" offset="0"/>
<stop stop-color="#fff" stop-opacity="0" offset="1"/>
</linearGradient>
<clipPath id="clipPath4156-4">
<path d="m27.046-55.695-14.214 13.321h0.06127l15.653 21.771 10.231-10.546c-0.2169-1.1522-11.311-23.67-11.732-24.546zm-17.399 16.313-14.888 14.062 21.229 17.515 10.385-10.577-16.726-21zm31.491 12.951-9.7413 9.7136 8.9448 12.458 7.7808-7.555-6.9843-14.617zm-49.84 4.3788-13.754 12.982 26.283 13.846 0.06127-0.0617-0.12253-0.0617 9.8332-10.053-22.301-16.652zm38.015 7.4008-9.8025 9.7753 11.579 9.5594 7.6276-7.4008-8.6691-11.009-0.73519-0.9251zm20.187 5.674-7.3825 7.2158 6.1878 8.5418 5.8202-6.1365-4.6256-9.6211zm-32.195 6.3215-9.5575 9.4977 13.662 7.185 7.9339-7.6784-12.039-9.0043zm23.312 2.3744-7.1068 6.9383 8.3628 6.9074 5.3608-5.674-0.06127-0.0925-0.0919 0.12335-6.4635-8.2026zm-8.7304 8.5418-7.5051 7.3392 10.354 5.4581c1.3975-1.321 5.6751-6.1229 5.8509-6.3215l-8.6997-6.4757z" fill="#fff" opacity=".6"/>
</clipPath>
<filter id="filter3174-1" color-interpolation-filters="sRGB">
<feGaussianBlur stdDeviation="1.71"/>
</filter>
</defs>
<metadata>
<rdf:RDF>
<cc:Work rdf:about="">
<dc:format>image/svg+xml</dc:format>
<dc:type rdf:resource="http://purl.org/dc/dcmitype/StillImage"/>
<dc:title/>
</cc:Work>
</rdf:RDF>
</metadata>
<g transform="translate(-1e-6,32)">
<g transform="translate(-8.044 -17.334)">
<path d="m97.187-14.666h-82.286c-3.7988 0-6.8571 3.0583-6.8571 6.8571v82.286c0 3.7989 3.0583 6.8571 6.8571 6.8571h82.286c3.7989 0 6.8571-3.0583 6.8571-6.8571v-82.286c0-3.7989-3.0583-6.8571-6.8571-6.8571z" opacity=".15"/>
<path d="m96.544-13.916h-81c-3.7395 0-6.75 3.0105-6.75 6.75v81c0 3.7395 3.0105 6.75 6.75 6.75h81c3.7395 0 6.75-3.0105 6.75-6.75v-81c0-3.7395-3.0105-6.75-6.75-6.75z" opacity=".15"/>
<path d="m95.901-13.166h-79.714c-3.6801 0-6.6429 2.9627-6.6429 6.6429v79.714c0 3.6801 2.9627 6.6429 6.6429 6.6429h79.714c3.6801 0 6.6429-2.9627 6.6429-6.6429v-79.714c0-3.6801-2.9627-6.6429-6.6429-6.6429z" fill="url(#linearGradient3825)"/>
<rect x="13.837" y="-8.0546" width="84.846" height="77.52" ry="4.25" fill="#3055a5" stroke="#fff" stroke-linecap="round" stroke-linejoin="round" stroke-width=".4"/>
<path d="m50.862-1.7505a1.0897 1.0897 0 0 0-0.15625 0.03125c0.0048-1e-3 -0.16094 0.03262-0.15625 0.03125 0.0047-0.0014-0.12957 0.06421-0.125 0.0625 0.0046-0.0017-0.16068 0.0333-0.15625 0.03125 0.0012-5.74e-4 -0.01606 0.02348-0.03125 0.03125-1.9588 0.84094-4.2941 0.80357-7.4062 1.5938-0.01134 0.0029-0.01989-0.0029-0.03125 0-0.01676 0.0035-0.01387-0.0045-0.03125 0-9.594 2.2147-18.147 9.2042-21.125 18.875a1.0897 1.0897 0 0 0-0.1875 0.375c-0.82027 2.9995-1.8602 6.9066 0.125 10.594-0.15592-0.28957-0.1334-0.25933 0.0625 0.09375a1.0897 1.0897 0 0 0 0.1875 0.25c2.2656 4.7773 7.0365 8.291 12.469 8.4375-0.05616-0.0015 0.10806-0.0054 0.09375 0-0.04453 0.01689-0.08656 0.06358 0.28125 0.0625a1.0897 1.0897 0 0 0 0.21875-0.03125c0.45534 0.05738 0.90122 0.10265 1.3125 0.03125 0.336 2.1034 1.2615 3.9719 2.6875 5.3125 1.6461 1.5475 3.7377 2.5495 5.8125 3.0625 0.0093 0.0023 0.02199-0.0023 0.03125 0 0.0075 0.0027 0.03477 0.02222 0.0625 0.03125 0.01232 4e-3 0.01487-0.0051 0.03125 0 2.5956 0.80696 5.2149 0.86463 7.75 0.71875 0.07699 0.23011 0.10249 0.54122 0.1875 0.71875 0.21822 0.45568 0.43693 0.87086 0.625 1.1875 0.17962 0.30241 0.32542 0.52198 0.3125 0.46875-6.08e-4 -0.0025 0.0013 0.03528 0 0.03125 0.0022 0.0091 2.23e-4 0.03207 0 0.03125-9.5e-4 -0.0035 0.03239 0.09717 0.03125 0.09375-0.0011-0.0034 0.03258 0.0971 0.03125 0.09375-0.0013-0.0034 0.03276 0.12828 0.03125 0.125a1.0897 1.0897 0 0 0 0.0625 0.09375c0.39108 0.64848 0.78241 1.6306 1.3438 2.6875 0.49337 0.92893 1.2885 1.834 2.3438 2.5625 0.01789 0.01235 0.01316 0.05029 0.03125 0.0625a1.0897 1.0897 0 0 0 0.03125 0.03125 1.0897 1.0897 0 0 0 0.21875 0.25c0.65532 0.49274 1.2399 0.83151 1.5 1.0625 0.30913 0.27452 0.28189 0.27459 0.3125 0.5a1.0897 1.0897 0 0 0 0.03125 0c-6.24e-4 -0.0041 8.85e-4 0.12906 0 0.125-8.85e-4 -0.0041 0.03239 0.129 0.03125 0.125-0.0011-4e-3 0.03264 0.12891 0.03125 0.125-0.0011-0.0031 0.05078 0.0637 0.0625 0.09375 0.0032 0.0076-0.0032 0.02362 0 0.03125 0.5583 1.3434 1.0175 3.0389 1.9062 4.75-4.12e-4 -8.45e-4 -0.0043 0.02321 0 0.03125 0.01722 0.03214 0.06439 0.097 0.0625 0.09375-0.0024-0.0041 0.06514 0.12888 0.0625 0.125-0.0026-0.0039 0.09667 0.12868 0.09375 0.125-0.0029-0.0037 0.09692 0.09721 0.09375 0.09375-0.0032-0.0035 0.09717 0.12822 0.09375 0.125-0.0034-0.0032 0.12864 0.09672 0.125 0.09375-0.0036-3e-3 0.09759 0.0652 0.09375 0.0625-0.0038-0.0027 0.12903 0.09617 0.125 0.09375a1.0897 1.0897 0 0 0 0.03125 0c1.361 0.77904 2.788 0.47384 3.6875 0.125 0.79202-0.30717 1.3973-0.63013 1.5625-0.6875-0.0029 2.9e-4 0.05116-0.02542 0.09375-0.03125 0.0017-4.33e-4 0.02987 2.71e-4 0.03125 0 0.0084-0.0011 0.03214-1.56e-4 0.03125 0-0.0046 8.09e-4 0.16082-0.03239 0.15625-0.03125-0.0046 0.0011 0.12948-0.03272 0.125-0.03125-0.0045 0.0015 0.12936-0.06429 0.125-0.0625a1.0897 1.0897 0 0 0 0.0625-0.03125c0.31438-0.15507 1.0319-0.33406 1.8438-0.59375 0.84005-0.26873 1.9168-0.72084 2.75-1.7188-0.0023 0.0028 0.06466-0.09668 0.0625-0.09375-0.0022 0.0029 0.0645-0.06555 0.0625-0.0625-2e-3 3e-3 0.06432-0.0969 0.0625-0.09375-0.0018 0.0032 0.06414-0.12825 0.0625-0.125-0.0016 0.0032 0.03271-0.09709 0.03125-0.09375-0.0015 0.0033 0.03252-0.09716 0.03125-0.09375-0.0013 0.0034 0.06358-0.09723 0.0625-0.09375-0.0011 0.0035 0.03213-0.12853 0.03125-0.125-8.83e-4 0.0035 6.84e-4 -0.09732 0-0.09375-6.84e-4 0.0036 0.03173-0.12861 0.03125-0.125-4.84e-4 0.0036 2.81e-4 -0.09738 0-0.09375-2.81e-4 0.0036 7.8e-5 -0.12864 0-0.125-7.8e-5 0.0036-1.25e-4 -0.09739 0-0.09375 1.25e-4 0.0036-3.28e-4 -0.12863 0-0.125 3.28e-4 0.0036-5.3e-4 -0.1286 0-0.125 5.3e-4 0.0036-0.03198-0.09732-0.03125-0.09375-0.34184-1.6046-0.99948-3.0508-1.7188-4.4062 1.8876 0.11103 3.7257 0.01846 5.375-0.21875a1.0897 1.0897 0 0 0 0.09375 0 1.0897 1.0897 0 0 0 0.09375-0.03125c4.8654-0.9338 9.4986-4.4505 10.531-9.7188-0.0035 0.0065-0.0038-0.05647 0-0.0625 0.01013-0.01763 0.04484-0.08626 0.0625-0.125 0.0049-0.01702-0.0046-0.01115 0-0.03125-9.84e-4 -0.01171 0.03016-0.20837 0-0.03125 0.02678-0.06896 0.0454-0.07504 0.0625-0.1875a1.0897 1.0897 0 0 0 0-0.3125 1.0897 1.0897 0 0 0 0-0.125c0.2494-1.2964 0.0483-2.4558-0.0625-3.1562-0.0666-0.42099-0.06603-0.73551-0.0625-0.78125 1.4e-4 -0.0018-1.54e-4 -0.03035 0-0.03125 0.02554-0.02094 0.06408-0.03263 0.0625-0.03125-0.0032 0.0028 0.09673-0.09672 0.09375-0.09375-3e-3 3e-3 0.09653-0.0969 0.09375-0.09375-0.0028 0.0032 0.09632-0.09707 0.09375-0.09375-0.0026 0.0033 0.06485-0.09723 0.0625-0.09375-0.0024 0.0035 0.06462-0.12863 0.0625-0.125-0.0021 0.0036 0.06438-0.09751 0.0625-0.09375-0.0019 0.0038 0.06414-0.12887 0.0625-0.125-0.0016 0.0039 0.06388-0.12897 0.0625-0.125-0.0014 4e-3 0.03238-0.12905 0.03125-0.125-0.0011 4e-3 0.03211-0.12911 0.03125-0.125-8.63e-4 0.0041 5.96e-4 -0.12916 0-0.125-2.8e-4 2e-3 -0.0034-0.03172 0-0.0625 0.02306-6e-3 0.03843 0.0059 0.0625 0 0.37993-0.09346 1.2755-0.2455 2.0312-0.9375 0.69516-0.63653 0.87394-1.5076 0.90625-2.375a1.0897 1.0897 0 0 0 0-0.03125 1.0897 1.0897 0 0 0 0.09375-0.40625c5.11e-4 0.0119-0.0013-0.06165 0-0.0625 0.01218-0.09522-0.01017-0.15685 0-0.25 0.23012-2.1076-0.01276-3.7306 0-5.6562a1.0897 1.0897 0 0 0-0.03125-0.21875c-0.0021-0.0196 0.0021-0.04287 0-0.0625 9.48e-4 0.0035-0.03239-0.12842-0.03125-0.125-0.33881-3.103-0.84844-6.5881-1.9375-9.5312 3.19e-4 9.23e-4 0.0039-0.02119 0-0.03125-0.01255-0.03269-0.03248-0.09668-0.03125-0.09375 0.0016 0.0038-0.06434-0.12872-0.0625-0.125 0.0018 0.0037-0.06458-0.09734-0.0625-0.09375 0.0021 0.0036-0.0648-0.12845-0.0625-0.125 0.0023 0.0035-0.09627-0.09705-0.09375-0.09375 0.0025 0.0033-0.06522-0.09688-0.0625-0.09375 0.0027 0.0031-0.09667-0.0967-0.09375-0.09375 0.0029 3e-3 -0.09685-0.09651-0.09375-0.09375a1.0897 1.0897 0 0 0 0-0.03125c-0.62917-0.5365-0.96799-1.2274-1.4062-2.3438-0.42304-1.0775-1.0022-2.5005-2.25-3.75l0.03125-0.03125c-0.11828-0.1397-0.12955-0.1084-0.09375-0.0625 0.0072 0.0092-0.01377-0.04736 0-0.03125-5.068-5.9298-12.098-9.4678-19.094-11.812a1.0897 1.0897 0 0 0-0.0625 0 1.0897 1.0897 0 0 0-0.25-0.0625c-0.02974-0.0084-0.06401 0.0083-0.09375 0-4.825-1.3541-9.7791-1.8799-14.688-1.8125-0.03113 4.27e-4 -0.06263-4.71e-4 -0.09375 0 0.0034 0-0.12841 1.79e-4 -0.125 0zm-0.5625 28.281 0.15625 0.15625c-0.01711-4.46e-4 -0.0364 0.0023-0.0625 0s-0.04798-0.02262-0.09375-0.03125c-0.03195-6e-3 -0.10592-0.01531-0.15625-0.03125 0.01335 0.0042-0.03739-0.0017-0.03125 0 0.0038 0.0011-0.0014-0.03141 0-0.03125zm10.688 18c0.08202 0.01865 0.25352 0.04191 0.5 0.09375l0.125 0.28125c-0.01653 0.0029-0.03114-0.03208-0.0625-0.03125-0.05973 0.0016-0.02093 0.03171-0.125 0-0.26278-0.08006-0.56105-0.3272-0.21875-0.0625-0.19047-0.14729-0.21882-0.24989-0.1875-0.1875-0.02903-0.05785-0.02603-0.04512-0.03125-0.0625-0.0025-0.0015 0.0022-0.02994 0-0.03125z" opacity=".05"/>
<path d="m51.018-0.65676a0.89419 0.89419 0 0 0-0.34375 0.09375c-2.2392 0.96131-4.6136 0.89519-7.5938 1.6562-0.01105 0.0028-0.02019-0.0028-0.03125 0-9.3666 2.1525-17.749 9.0385-20.5 18.469a0.89419 0.89419 0 0 0-0.03125 0c-0.81671 2.9864-1.7238 6.5216 0.03125 9.7812 0.01645 0.03056 0.01432 0.06324 0.03125 0.09375h0.03125c2.0223 4.5932 6.6106 7.9872 11.719 8.125 0.11806 0.0032 0.22518 0.06285 0.34375 0.0625v-0.03125c0.88042 0.22678 1.704 0.03668 2.4062-0.28125a0.89419 0.89419 0 0 0-0.0625 0.21875c0.02445 2.312 1.0999 4.285 2.625 5.7188 1.501 1.4111 3.4594 2.3447 5.4062 2.8125 0.03144 0.01 0.06228 0.02147 0.09375 0.03125 2.7032 0.84041 5.5138 0.87194 8.25 0.65625-0.0064 0.5225 0.15786 0.95557 0.34375 1.3438 0.37991 0.79333 0.89102 1.4937 1 1.8438a0.89419 0.89419 0 0 0 0.0625 0.1875c0.46665 0.77379 0.85176 1.7648 1.375 2.75 0.50481 0.95047 1.2277 1.8769 2.3438 2.5l-0.03125 0.03125c0.58981 0.44349 1.1636 0.77078 1.5625 1.125s0.62144 0.66975 0.6875 1.1562a0.89419 0.89419 0 0 0 0.0625 0.21875c0.609 1.4575 1.0436 3.1271 1.875 4.7188a0.89419 0.89419 0 0 0 0.34375 0.375c0.96395 0.55177 1.9826 0.32887 2.75 0.03125s1.4262-0.66218 1.875-0.75a0.89419 0.89419 0 0 0 0.25-0.0625c0.50432-0.24876 1.2072-0.41263 1.9688-0.65625s1.612-0.61093 2.25-1.375a0.89419 0.89419 0 0 0 0.1875-0.75c-0.44913-2.1082-1.5031-4.0267-2.5625-5.8438 2.4156 0.52337 4.9539 0.23367 7.2188-0.09375a0.89419 0.89419 0 0 0 0.03125 0c4.5523-0.87372 8.8941-4.1885 9.75-9.0312 0.0035-0.01998-0.0034-0.04247 0-0.0625 0.0097-0.057 0.05377-0.09883 0.0625-0.15625h-0.03125c0.40791-1.207 0.1116-2.3782-0.03125-3.2812-0.07585-0.47945-0.1102-0.8773-0.0625-1.1562 0.0477-0.27896 0.1154-0.42484 0.375-0.625a0.89419 0.89419 0 0 0 0.34375-0.8125c-0.05301-0.47218-0.0052-0.41547 0.0625-0.46875 0.06774-0.05328 0.37922-0.17467 0.8125-0.28125s1.0152-0.21497 1.5312-0.6875c0.47066-0.43097 0.65926-1.1584 0.625-1.9688h0.03125c-0.0033-0.07733 0.0086-0.13979 0-0.21875 0.26678-2.0852-0.01399-3.6703 0-5.7812a0.89419 0.89419 0 0 0-0.03125-0.09375c-0.33646-3.1259-0.85157-6.6625-1.9062-9.5a0.89419 0.89419 0 0 0-0.25-0.375c-0.8509-0.72557-1.2432-1.6496-1.6875-2.7812-0.43129-1.0986-0.94282-2.3834-2.0625-3.4688-0.02888-0.03411-0.06474-0.0598-0.09375-0.09375-4.8843-5.7148-11.705-9.1911-18.594-11.5a0.89419 0.89419 0 0 0-0.03125 0c-4.8364-1.4003-9.8092-1.8877-14.781-1.8125zm-0.5625 26.25c0.05533-0.0067 0.04698 0.0026 0.03125 0 0.03432 0.01089 0.13946 0.02992 0.28125 0.3125 0.07462 0.14873 0.09013 0.40055 0.03125 0.59375s-0.15925 0.29298-0.21875 0.34375l-0.25-0.8125-0.4375 0.6875c-0.01689-0.03409-0.01555-0.03949-0.03125-0.09375-0.04485-0.15504-0.05452-0.45598 0.0625-0.65625 0.23404-0.40054 0.47592-0.36826 0.53125-0.375zm10.875 18.312c0.40978-0.16347 0.47343-0.01347 0.53125 0.03125 0.02891 0.02236 0.06496 0.06787 0.125 0.1875 0.06004 0.11963 0.13125 0.445-0.03125 0.71875-0.10211 0.17202-0.19067 0.14772-0.28125 0.1875l0.09375-0.75-0.875 0.1875c0.01291 0.05919-0.0043 0.03981 0.03125-0.09375 0.03559-0.13356 0.20136-0.38702 0.40625-0.46875z" opacity=".1"/>
<path d="m51.018 0.24949c-2.4573 1.055-4.886 0.98261-7.75 1.7188-9.0849 2.078-17.227 8.7635-19.875 17.844-0.82154 3.0041-1.6421 6.2728-0.01897 9.1982 1.9048 4.4279 6.4216 7.725 11.304 7.7107 1.569 0.62504 3.7121-1.1063 3.6215-1.3776-0.88527 1.6472 0.17884 0.32715-0.375 2.1875 0.04327 4.0909 3.7381 6.8369 7.4123 7.6906 3.0293 0.96171 6.2683 0.96184 9.4002 0.59069-1.233 1.1602 0.45746 2.6035 0.83904 3.829 1.0534 1.7467 1.4985 4.0273 3.4397 5.037 1.0682 0.8032 2.3863 1.416 2.5853 2.8814 0.64156 1.5354 1.083 3.1728 1.8513 4.6437 1.2979 0.74294 2.7033-0.52623 4.0332-0.78648 1.2833-0.63298 2.9978-0.67707 3.933-1.7971-0.56746-2.6637-2.3054-5.2728-3.6503-7.6512 2.7265 1.3599 6.0942 1.0974 9.0729 0.66678 4.3131-0.82782 8.398-4.0031 9.0834-8.5105 0.75892-1.8171-1.1309-4.3156 0.58988-5.6424-0.29772-2.6518 3.3783-0.70001 3.0584-3.6396 0.30147-2.0436-0.04474-3.5783-0.0296-5.8624-0.33314-3.095-0.87392-6.5947-1.8774-9.2944-2.0748-1.7692-1.7928-4.4908-3.8383-6.3853-4.7377-5.5957-11.447-9.0063-18.289-11.3-4.7289-1.3692-9.6128-1.8255-14.521-1.7513zm-1.375 3.4688c0.35877 0.01382 0.05282 0.06915 0 0zm2.375 10.281c0.06896-0.02139-0.02139 0.06896 0 0zm-4.0625 3.4062c0.07163 0.10535-0.21321 0.12227 0 0zm15.562 0.96875c0.34317-0.09769 0.03165 0.34962 0 0zm-0.1875 0.03125c0.45951 0.03667-0.81521 0.22923 0 0zm5.5938 1.8125c0.03744 0.07204-0.1896 0.09392 0 0zm-0.1875 0.09375c0.18325 0.03856-0.4143 0.22894 0 0zm-0.15625 0.21875c0.02497 0.11169-0.09815 0.15543 0 0zm2.9688 0.8125c0.17331-0.05909 0.10654 0.17229 0 0zm-25.656 4c0.06896-0.02139-0.02139 0.06896 0 0zm4.4375 0.6875c1.3167 0.82328-1.3086 0.39355 0 0zm23.5 0.6875c1.0597 1.1241 0.94715 1.7714 0 0zm-29.906 1.4688c0.30143-0.02915-0.23829 0.0883 0 0zm30.812 0.0625c1.4149 2.2909 1.1306 5.103 0.43119 7.5787 0.03676 0.86574-1.382 1.791-0.38336 0.12578 0.78585-2.5114 0.98775-5.2714-0.04783-7.7045zm-34.094 2.3125c0.07236-0.02041-9e-3 0.04544 0 0zm-0.0625 0.0625c0.11814-0.14558-0.01388 0.08478 0 0zm-11.469 2.3125c0.05222-0.02799 0.03699 0.08826 0 0zm8.1562 1.4688c0.4811 0.02679 1.1637 0.65753 0 0zm24.5 9.875c0.25293 1.1591-1.4669-0.17084 0 0zm19.844 3.75c0.08478-0.01392-0.09537 0.10792 0 0zm-17.781 1.3438c1.1517 0.89184-0.0159 0.52934 0 0zm15.062 0.53125c0.08478-0.01392-0.09537 0.10792 0 0z" opacity=".15"/>
<path d="m51.08 1.2807c-0.32298 0.01909-0.65584 0.06599-0.96875 0.125a0.22239 0.22239 0 0 1-0.03125 0c-0.16127 0.0062-0.26143 0.05916-0.3125 0.09375-0.05107 0.03459-0.03101 0.05288-0.03125 0.0625-2.35e-4 0.0096-0.02101 0.01894 0.03125 0.0625s0.1583 0.10065 0.3125 0.125a0.22239 0.22239 0 0 1 0.03125 0 0.22239 0.22239 0 0 1 0.03125 0c1.6104 0.7009 3.3217 1.2958 4.875 2.2188 0.01204 0.0072 0.01923 0.02406 0.03125 0.03125 0.99674 0.45045 1.8194 1.203 2.4375 2.0625 0.71605 1.0782 0.76148 2.5501 0.3125 3.7188a0.22239 0.22239 0 0 1-0.03125 0c-0.76842 1.5418-1.4227 3.2408-2.625 4.5938-0.0096 0.01082-0.02157 0.02047-0.03125 0.03125-0.74407 1.0667-1.9439 1.5409-2.8438 2.25-0.01092 0.0094-0.02028 0.0219-0.03125 0.03125-0.6887 0.58719-1.4922 1.0996-2.0312 1.7188-0.29868 0.51782-0.6264 0.94255-0.625 1.4688a0.22239 0.22239 0 0 1 0 0.03125 0.22239 0.22239 0 0 1 0 0.03125c-0.2634 1.0242-0.09446 2.1054 0.25 3.125 0.24096 1.0326 0.8105 1.9738 1.5938 2.6875 0.0094 0.0028 0.02179-0.0026 0.03125 0 0.5047 0.14062 1.15-0.02402 1.75-0.1875 0.25753-0.42117 0.56264-0.77213 0.875-1.125 0.45143-0.53255 1.0979-0.90067 1.75-1.125 9e-3 -0.0044 0.02226 0.0043 0.03125 0v-0.03125c1.6609-0.7934 3.4689-0.57481 5.0938-0.9375 0.45828-0.15526 0.90708-0.32587 1.2188-0.625 8e-3 -0.0098 0.02343-0.02122 0.03125-0.03125 0.22079-0.28305 0.3649-0.67501 0.53125-1.0625 0.17224-0.40122 0.37851-0.81446 0.71875-1.1562a0.22239 0.22239 0 0 1 0.125-0.0625 0.22239 0.22239 0 0 1 0.03125 0c0.60869-0.01534 1.0994 0.26789 1.5312 0.59375 0.4003 0.30203 0.76168 0.63502 1.125 0.875 7e-3 -0.03094 0.02702-0.02472 0.03125-0.0625 0.01402-0.12515 0.0225-0.26171 0.03125-0.40625 0.0087-0.14454-0.0041-0.28464 0.03125-0.40625a0.22239 0.22239 0 0 1 0.03125-0.03125c0.27442-0.53458 0.60701-1.1941 1.1875-1.5938 0.011-0.0094 0.02012-0.02206 0.03125-0.03125 0.7878-0.65016 1.9051-0.76212 2.8125-0.28125v-0.03125c0.48475 0.19788 0.86604 0.56124 1.25 0.84375s0.76403 0.49676 1.1875 0.53125c0.38203 0.07231 0.73179-0.03352 1.0625-0.21875 0.33071-0.18523 0.63443-0.44364 0.9375-0.71875 0.2779-0.22914 0.59952-0.61476 0.96875-0.90625 0.36229-0.28602 0.84925-0.49604 1.375-0.3125 0.0093 0.0029 0.02205-3e-3 0.03125 0 1.1078 0.35772 1.793 1.296 2.5312 2 0.0102 0.0097 0.02103 0.02161 0.03125 0.03125 0.79688 0.51589 1.562 1.1151 2.4375 0.96875a0.22239 0.22239 0 0 1 0.03125 0 0.22239 0.22239 0 0 1 0.03125 0c1.176 0.12602 2.3435-0.59051 2.9062-1.625 0.22087-0.40525 0.16291-0.85784-0.125-1.25a0.22239 0.22239 0 0 1-0.03125-0.0625 0.22239 0.22239 0 0 1 0-0.03125c-0.07667-0.52967-0.53934-0.96582-0.78125-1.5938-0.0088-0.0229-0.02303-0.03903-0.03125-0.0625-1.4292-2.351-3.6067-4.1661-5.7188-5.9688-0.01117-0.0095-0.02008-0.02172-0.03125-0.03125-0.90989-0.57306-1.716-1.2662-2.5938-1.8125-8e-3 -0.0044-0.02325 0.0044-0.03125 0-1.4889-0.81866-2.8817-1.7288-4.4375-2.3125a0.22239 0.22239 0 0 1-0.0625-0.03125c-1.0628-0.61263-2.2155-1.0808-3.375-1.5312-0.0097-0.0026-0.02154 0.0026-0.03125 0-1.0905-0.29135-2.0907-0.77959-3.125-1.0625-1.5393-0.36875-3.0731-0.69849-4.625-1.0312-2.0117-0.38347-4.0821-0.3834-6.1562-0.53125-0.0104 4e-5 -0.02085-2.1e-5 -0.03125 0-0.98798 2e-3 -1.9787-0.08793-2.9375-0.03125zm-3.1562 0.875c-1.4693 0.08031-2.9531 0.46905-4.4375 0.8125a0.37899 0.37899 0 0 1-0.03125 0c-2.0077 0.36521-3.9334 1.1639-5.7812 2.0938-2.5219 1.164-4.8501 2.726-6.8438 4.6562-1.3848 1.1765-2.5164 2.649-3.5312 4.1875-1.0991 1.4965-1.8406 3.2417-2.5625 5-0.0089 0.02166-0.02236 0.04084-0.03125 0.0625l-0.3125 1.125c-0.41866 1.7887-0.92969 3.5126-0.96875 5.2812 0.0017 0.01001-0.0017 0.02124 0 0.03125-1.97e-4 0.01035 1.65e-4 0.02089 0 0.03125 0.2942 1.7484 0.85274 3.489 1.875 4.9062 0.83234 1.2944 1.8325 2.4833 3.0938 3.3125a0.37899 0.37899 0 0 1 0.03125 0.03125c0.81816 0.68768 1.9215 0.96378 3 1.5312 0.01014 0.0022 0.02111-0.0022 0.03125 0 0.02128 0.01129 0.04125 0.01972 0.0625 0.03125 1.879 0.39958 3.8215 0.66503 5.625 0.1875a0.37899 0.37899 0 0 1 0.125 0c-0.02482-2e-3 0.10525-0.01591 0.25-0.0625s0.33295-0.10776 0.5-0.15625c0.08353-0.02424 0.15706-0.05204 0.25-0.0625 0.05056-0.0057 0.123 0.02345 0.1875 0.03125 0.93324-1.2646 1.8192-2.6206 2.875-3.8438a0.37899 0.37899 0 0 1 0.03125-0.03125c0.8273-0.77487 1.7042-1.5493 2.75-2.0938a0.37899 0.37899 0 0 1 0.09375-0.03125c0.59835-0.14724 1.0633-0.52302 1.4062-1.0625a0.37899 0.37899 0 0 1 0.03125-0.03125c0.19657-0.20914 0.29752-0.5187 0.40625-0.875s0.22666-0.76154 0.5625-1.125a0.37899 0.37899 0 0 1 0.03125-0.03125c0.76999-0.64165 1.8716-0.79308 2.8125-0.5a0.37899 0.37899 0 0 1-0.03125-0.03125c-0.76256-0.95215-1.3747-2.0687-1.5938-3.3125-0.26722-1.3207-0.04101-2.7011 0.625-3.875a0.37899 0.37899 0 0 1 0.09375-0.09375c0.20383-0.19244 0.38918-0.48422 0.625-0.78125 0.21023-0.26481 0.48048-0.51778 0.84375-0.6875 0.92678-0.76405 2.0257-1.2547 2.7188-2.0312a0.37899 0.37899 0 0 1 0.03125-0.03125c1.2356-1.0648 2.1004-2.4913 2.9062-3.9688 0.0037-9e-3 -0.0037-0.02219 0-0.03125 0.32076-0.78659 0.54636-1.668 0.6875-2.5312-5.08e-4 -0.01058 5.39e-4 -0.02067 0-0.03125-0.04005-0.78612-0.187-1.5546-0.6875-2.0625a0.37899 0.37899 0 0 1-0.03125-0.0625c-0.41479-0.61182-1.1038-1.0415-1.8125-1.5-0.02174-0.0095-0.04083-0.02171-0.0625-0.03125-1.3134-0.57844-2.5037-1.3012-3.7812-1.75a0.37899 0.37899 0 0 1-0.09375-0.03125c-0.51701-0.33972-1.1631-0.38436-1.9062-0.5625-0.02099-5e-3 -0.04137 0.0053-0.0625 0zm28.906 16.438c-0.57569 0.30185-1.052 0.77237-1.5625 1.2812h-0.03125c-0.45789 0.51893-1.073 0.87894-1.7812 0.9375a0.38396 0.38396 0 0 1-0.03125 0c-0.56687-0.0022-1.0815-0.23023-1.5-0.40625a0.38396 0.38396 0 0 1-0.125-0.0625c-0.39623-0.39166-0.89075-0.69274-1.4375-0.9375a0.38396 0.38396 0 0 1-0.09375-0.0625c-0.29968-0.24874-0.68629-0.31855-1.125-0.28125-0.36891 0.04335-0.69584 0.16147-0.84375 0.34375a0.38396 0.38396 0 0 1-0.125 0.09375c-0.30685 0.16664-0.49272 0.34558-0.53125 0.625a0.38396 0.38396 0 0 1-0.03125 0.09375c-0.15448 0.3247-0.16377 0.71643-0.15625 1.125 0.71607 0.59304 1.4581 1.1508 2.25 1.6562 0.0083 0.0036 0.0229-0.0035 0.03125 0 0.01238 0.0079 0.01885 0.02338 0.03125 0.03125 0.61291 0.25596 1.3112 0.43777 2 0.75 0.0094 0.0043 0.02182-0.0043 0.03125 0 1.053 0.33617 1.6742 1.1779 2.3125 1.7812 0.01 0.0094 0.0213 0.02197 0.03125 0.03125 0.4401 0.3222 0.85074 0.70955 1.125 1.2188a0.38396 0.38396 0 0 1 0 0.03125c0.41944 0.88963 0.79875 1.8018 1.1562 2.7188a0.38396 0.38396 0 0 1 0.03125 0c0.39122 1.2133 0.32713 2.4567 0.3125 3.625a0.38396 0.38396 0 0 1 0 0.0625c-0.11403 0.87827-0.3888 1.6304-0.59375 2.4062 0.37438-0.03468 0.75494-0.07577 1.125-0.0625 0.02055-0.0012 0.04194 0.0012 0.0625 0 1.6285-0.09717 3.3057-0.2041 4.9688-0.09375 1.6834 0.15017 3.437 0.09135 5.1875 0.3125 0.02499-5.6e-4 0.03788-1.65e-4 0.0625 0 0.23386 0.0016 0.4537 0.01266 0.59375 0 0.07739-7e-3 0.11158-0.02267 0.125-0.03125 0.01342-0.0086 0.01593 0.02132 0.03125-0.03125a0.38396 0.38396 0 0 1 0-0.03125c0.27412-0.89499 0.36233-1.8737 0.34375-2.8438-0.0028-0.02101 0.0027-0.0415 0-0.0625-0.13856-1.083-0.13021-2.1653-0.125-3.2188 5.1e-5 -0.01021-4.9e-5 -0.02104 0-0.03125-0.08718-1.3484-0.24395-2.7139-0.5-4.0312-0.3454-1.7104-0.59832-3.3936-1.125-5-0.01385-0.02298-0.0183-0.03944-0.03125-0.0625-0.15297-0.27242-0.23286-0.55703-0.34375-0.75-0.0939-0.1634-0.1971-0.20682-0.3125-0.25-0.20964 0.14429-0.38275 0.42455-0.71875 0.71875h-0.03125c-0.49589 0.48924-1.043 1.1681-1.9062 1.4062-0.0238 0.0066-0.03821 0.02537-0.0625 0.03125-0.52968 0.20642-1.0504 0.16355-1.5 0.15625a0.38396 0.38396 0 0 1-0.0625 0c-0.75933-0.10601-1.4111-0.53141-1.9375-0.96875-0.81937-0.7596-1.4831-1.6032-2.3438-2.0625a0.38396 0.38396 0 0 1-0.0625-0.03125c-0.16104-0.12623-0.42426-0.131-0.78125-0.125zm-12.5 2.625c-0.49378 0.65953-1.0389 1.2489-1.6875 1.75-0.84886 0.52196-1.7621 0.9857-2.7812 1.0312-0.97954 0.15092-2.0035 0.32987-2.9375 0.625-0.74141 0.43595-1.5846 0.66357-2.2188 1.2812-1.114 0.89256-2.526 1.3486-3.9062 1.5938-0.98471-0.25638-2.0574-0.36439-3.0625-0.15625-0.56149 0.58134-0.86643 1.3351-1.1875 2.0625-0.27576 0.48438-0.7827 0.73131-1.1562 1.125-0.78154 0.26206-1.3474 0.90671-2.125 1.1875-1.6698 1.2605-2.6926 3.1307-3.9688 4.75-0.64068 0.53971-0.23618 1.4005-0.15625 2.0938 0.11382 1.4338 1.15 2.7103 2.125 3.5625 1.664 1.4218 3.8393 1.9768 5.9062 2.5312 1.2561 0.18092 2.5054 0.43566 3.7812 0.34375 1.5015 0.01634 2.9864 0.0277 4.4688-0.25 1.3228-0.11041 2.6027-0.41724 3.875-0.78125 2.2026-0.47772 4.3221-1.2662 6.4375-2.0312 1.4154-0.50737 2.9071-0.882 4.1562-1.75 1.1375-0.38295 2.013-1.2538 2.7812-2.125 0.25499-0.57731 0.79162-1.0149 0.875-1.6562 0.3649-0.68017 0.41957-1.4897 0.65625-2.2188 0.20466-1.2555 0.38487-2.5228 0.09375-3.7812-0.09901-1.3093-0.77036-2.4652-1.5312-3.5-0.85266-1.5229-2.6534-2.0693-4.125-2.8125-0.56235-0.32163-1.2641-0.33407-1.7188-0.875-0.77174-0.75935-1.634-1.4782-2.5938-2zm17.438 15.531c-0.21975 4.67e-4 -0.44025 0.01188-0.65625 0.03125a0.44104 0.44104 0 0 1-0.03125 0c-1.8302 0.01485-3.6716 0.25769-5.5312 0.4375-0.53998 0.87343-1.19 1.6492-1.9062 2.3438-0.0099 0.0121-0.02123 0.01937-0.03125 0.03125-0.59456 0.70523-1.3908 1.0224-2 1.4062-0.02271 0.02322-0.03934 0.04097-0.0625 0.0625-0.43671 0.40598-0.95513 0.51001-1.3438 0.65625v0.03125c-0.90614 0.47134-1.8564 0.7197-2.6875 1.0938a0.44104 0.44104 0 0 1-0.0625 0.03125c-1.0686 0.29426-2.1387 0.54103-3.125 0.9375a0.44104 0.44104 0 0 1-0.03125 0c-0.57215 0.17908-1.0621 0.40442-1.5312 0.6875v1.2188c0.16596 0.55864 0.29886 1.0888 0.53125 1.5 0.5065 0.9642 1.2182 1.8366 2.0938 2.4688v-0.03125c1.1269 0.75054 2.2809 1.4513 3.5312 1.75a0.44104 0.44104 0 0 1 0.03125 0c0.9127 0.27592 1.8873 0.4226 2.875 0.53125 0.02078 0.0023 0.04169-0.0023 0.0625 0 1.2092 0.01222 2.4596-0.1274 3.75-0.09375 1.4079-0.29383 2.8073-0.51707 3.9688-1.1875a0.44104 0.44104 0 0 1 0.03125-0.03125c0.98977-0.43001 1.9019-1.0777 2.6875-1.8438a0.44104 0.44104 0 0 1 0.03125-0.03125c0.46465-0.37093 0.77868-0.9947 1.375-1.5625 0.01147-0.02607 0.01945-0.03709 0.03125-0.0625 0.27385-0.58968 0.61749-1.0492 0.6875-1.4688a0.44104 0.44104 0 0 1 0.03125-0.125c0.26156-0.53862 0.47738-1.1305 0.46875-1.6562a0.44104 0.44104 0 0 1 0-0.0625c0.07458-0.48024 0.12961-0.93003 0.09375-1.375a0.44104 0.44104 0 0 1 0-0.0625c0.07646-0.88602-0.19725-1.8054-0.46875-2.75a0.44104 0.44104 0 0 1 0.09375-0.40625c0.21618-0.2708 0.34018-0.81245 0.90625-1.2188a0.44104 0.44104 0 0 1 0-0.03125c0.20419-0.13882 0.29454-0.41829 0.40625-0.78125-0.0052-0.01252 0.01521-0.02238-0.03125-0.0625-0.06291-0.05433-0.19948-0.09576-0.3125-0.15625-0.61262-0.05723-1.2208-0.13295-1.7812-0.09375a0.44104 0.44104 0 0 1-0.0625 0c-0.69793-0.05399-1.372-0.1264-2.0312-0.125zm-20.75 8.7812-5.7812 1.1875 3.1875 6.2812 3.5312 2.5938 2.25 5.9062 6.2812-2.25c-0.53227-1.0514-1.0244-2.1099-1.625-3.125-0.53916-0.8523-0.88305-1.7974-1.2812-2.7188-0.08702-0.34454-0.33938-0.61174-0.59375-0.84375-0.47244-0.53805-1.0714-0.91872-1.7188-1.2188-0.64815-0.28839-1.3096-0.5499-2-0.71875z" opacity=".3"/>
<path d="m51.08 0.28074c-0.32298 0.01909-0.65584 0.06599-0.96875 0.125a0.22239 0.22239 0 0 1-0.03125 0c-0.16127 0.0062-0.26143 0.05916-0.3125 0.09375-0.05107 0.03459-0.03101 0.05288-0.03125 0.0625-2.35e-4 0.0096-0.02101 0.01894 0.03125 0.0625s0.1583 0.10065 0.3125 0.125a0.22239 0.22239 0 0 1 0.03125 0 0.22239 0.22239 0 0 1 0.03125 0c1.6104 0.7009 3.3217 1.2958 4.875 2.2188 0.01204 0.0072 0.01923 0.02406 0.03125 0.03125 0.99674 0.45045 1.8194 1.203 2.4375 2.0625 0.71605 1.0782 0.76148 2.5501 0.3125 3.7188a0.22239 0.22239 0 0 1-0.03125 0c-0.76842 1.5418-1.4227 3.2408-2.625 4.5938-0.0096 0.01082-0.02157 0.02047-0.03125 0.03125-0.74407 1.0667-1.9439 1.5409-2.8438 2.25-0.01092 0.0094-0.02028 0.0219-0.03125 0.03125-0.6887 0.58719-1.4922 1.0996-2.0312 1.7188-0.29868 0.51782-0.6264 0.94255-0.625 1.4688a0.22239 0.22239 0 0 1 0 0.03125 0.22239 0.22239 0 0 1 0 0.03125c-0.2634 1.0242-0.09446 2.1054 0.25 3.125 0.24096 1.0326 0.8105 1.9738 1.5938 2.6875 0.0094 0.0028 0.02179-0.0026 0.03125 0 0.5047 0.14062 1.15-0.02402 1.75-0.1875 0.25753-0.42117 0.56264-0.77213 0.875-1.125 0.45143-0.53255 1.0979-0.90067 1.75-1.125 9e-3 -0.0044 0.02226 0.0043 0.03125 0v-0.03125c1.6609-0.7934 3.4689-0.57481 5.0938-0.9375 0.45828-0.15526 0.90708-0.32587 1.2188-0.625 8e-3 -0.0098 0.02343-0.02122 0.03125-0.03125 0.22079-0.28305 0.3649-0.67501 0.53125-1.0625 0.17224-0.40122 0.37851-0.81446 0.71875-1.1562a0.22239 0.22239 0 0 1 0.125-0.0625 0.22239 0.22239 0 0 1 0.03125 0c0.60869-0.01534 1.0994 0.26789 1.5312 0.59375 0.4003 0.30203 0.76168 0.63502 1.125 0.875 7e-3 -0.03094 0.02702-0.02472 0.03125-0.0625 0.01402-0.12515 0.0225-0.26171 0.03125-0.40625 0.0087-0.14454-0.0041-0.28464 0.03125-0.40625a0.22239 0.22239 0 0 1 0.03125-0.03125c0.27442-0.53458 0.60701-1.1941 1.1875-1.5938 0.011-0.0094 0.02012-0.02206 0.03125-0.03125 0.7878-0.65016 1.9051-0.76212 2.8125-0.28125v-0.03125c0.48475 0.19788 0.86604 0.56124 1.25 0.84375s0.76403 0.49676 1.1875 0.53125c0.38203 0.07231 0.73179-0.03352 1.0625-0.21875 0.33071-0.18523 0.63443-0.44364 0.9375-0.71875 0.2779-0.22914 0.59952-0.61476 0.96875-0.90625 0.36229-0.28602 0.84925-0.49604 1.375-0.3125 0.0093 0.0029 0.02205-3e-3 0.03125 0 1.1078 0.35772 1.793 1.296 2.5312 2 0.0102 0.0097 0.02103 0.02161 0.03125 0.03125 0.79688 0.51589 1.562 1.1151 2.4375 0.96875a0.22239 0.22239 0 0 1 0.03125 0 0.22239 0.22239 0 0 1 0.03125 0c1.176 0.12602 2.3435-0.59051 2.9062-1.625 0.22087-0.40525 0.16291-0.85784-0.125-1.25a0.22239 0.22239 0 0 1-0.03125-0.0625 0.22239 0.22239 0 0 1 0-0.03125c-0.07667-0.52967-0.53934-0.96582-0.78125-1.5938-0.0088-0.0229-0.02303-0.03903-0.03125-0.0625-1.4292-2.351-3.6067-4.1661-5.7188-5.9688-0.01117-0.0095-0.02008-0.02172-0.03125-0.03125-0.90989-0.57306-1.716-1.2662-2.5938-1.8125-8e-3 -0.0044-0.02325 0.0044-0.03125 0-1.4889-0.81866-2.8817-1.7288-4.4375-2.3125a0.22239 0.22239 0 0 1-0.0625-0.03125c-1.0628-0.61263-2.2155-1.0808-3.375-1.5312-0.0097-0.0026-0.02154 0.0026-0.03125 0-1.0905-0.29135-2.0907-0.77959-3.125-1.0625-1.5393-0.36875-3.0731-0.69849-4.625-1.0312-2.0117-0.38347-4.0821-0.3834-6.1562-0.53125-0.0104 4e-5 -0.02085-2.1e-5 -0.03125 0-0.98798 2e-3 -1.9787-0.08793-2.9375-0.03125zm-3.1562 0.875c-1.4693 0.08031-2.9531 0.46905-4.4375 0.8125a0.37899 0.37899 0 0 1-0.03125 0c-2.0077 0.36521-3.9334 1.1639-5.7812 2.0938-2.5219 1.164-4.8501 2.726-6.8438 4.6562-1.3848 1.1765-2.5164 2.649-3.5312 4.1875-1.0991 1.4965-1.8406 3.2417-2.5625 5-0.0089 0.02166-0.02236 0.04084-0.03125 0.0625l-0.3125 1.125c-0.41866 1.7887-0.92969 3.5126-0.96875 5.2812 0.0017 0.01001-0.0017 0.02124 0 0.03125-1.97e-4 0.01035 1.65e-4 0.02089 0 0.03125 0.2942 1.7484 0.85274 3.489 1.875 4.9062 0.83234 1.2944 1.8325 2.4833 3.0938 3.3125a0.37899 0.37899 0 0 1 0.03125 0.03125c0.81816 0.68768 1.9215 0.96378 3 1.5312 0.01014 0.0022 0.02111-0.0022 0.03125 0 0.02128 0.01129 0.04125 0.01972 0.0625 0.03125 1.879 0.39958 3.8215 0.66503 5.625 0.1875a0.37899 0.37899 0 0 1 0.125 0c-0.02482-2e-3 0.10525-0.01591 0.25-0.0625s0.33295-0.10776 0.5-0.15625c0.08353-0.02424 0.15706-0.05204 0.25-0.0625 0.05056-0.0057 0.123 0.02345 0.1875 0.03125 0.93324-1.2646 1.8192-2.6206 2.875-3.8438a0.37899 0.37899 0 0 1 0.03125-0.03125c0.8273-0.77487 1.7042-1.5493 2.75-2.0938a0.37899 0.37899 0 0 1 0.09375-0.03125c0.59835-0.14724 1.0633-0.52302 1.4062-1.0625a0.37899 0.37899 0 0 1 0.03125-0.03125c0.19657-0.20914 0.29752-0.5187 0.40625-0.875s0.22666-0.76154 0.5625-1.125a0.37899 0.37899 0 0 1 0.03125-0.03125c0.76999-0.64165 1.8716-0.79308 2.8125-0.5a0.37899 0.37899 0 0 1-0.03125-0.03125c-0.76256-0.95215-1.3747-2.0687-1.5938-3.3125-0.26722-1.3207-0.04101-2.7011 0.625-3.875a0.37899 0.37899 0 0 1 0.09375-0.09375c0.20383-0.19244 0.38918-0.48422 0.625-0.78125 0.21023-0.26481 0.48048-0.51778 0.84375-0.6875 0.92678-0.76405 2.0257-1.2547 2.7188-2.0312a0.37899 0.37899 0 0 1 0.03125-0.03125c1.2356-1.0648 2.1004-2.4913 2.9062-3.9688 0.0037-9e-3 -0.0037-0.02219 0-0.03125 0.32076-0.78659 0.54636-1.668 0.6875-2.5312-5.08e-4 -0.01058 5.39e-4 -0.02067 0-0.03125-0.04005-0.78612-0.187-1.5546-0.6875-2.0625a0.37899 0.37899 0 0 1-0.03125-0.0625c-0.41479-0.61182-1.1038-1.0415-1.8125-1.5-0.02174-0.0095-0.04083-0.02171-0.0625-0.03125-1.3134-0.57844-2.5037-1.3012-3.7812-1.75a0.37899 0.37899 0 0 1-0.09375-0.03125c-0.51701-0.33972-1.1631-0.38436-1.9062-0.5625-0.02099-5e-3 -0.04137 0.0053-0.0625 0zm28.906 16.438c-0.57569 0.30185-1.052 0.77237-1.5625 1.2812h-0.03125c-0.45789 0.51893-1.073 0.87894-1.7812 0.9375a0.38396 0.38396 0 0 1-0.03125 0c-0.56687-0.0022-1.0815-0.23023-1.5-0.40625a0.38396 0.38396 0 0 1-0.125-0.0625c-0.39623-0.39166-0.89075-0.69274-1.4375-0.9375a0.38396 0.38396 0 0 1-0.09375-0.0625c-0.29968-0.24874-0.68629-0.31855-1.125-0.28125-0.36891 0.04335-0.69584 0.16147-0.84375 0.34375a0.38396 0.38396 0 0 1-0.125 0.09375c-0.30685 0.16664-0.49272 0.34558-0.53125 0.625a0.38396 0.38396 0 0 1-0.03125 0.09375c-0.15448 0.3247-0.16377 0.71643-0.15625 1.125 0.71607 0.59304 1.4581 1.1508 2.25 1.6562 0.0083 0.0036 0.0229-0.0035 0.03125 0 0.01238 0.0079 0.01885 0.02338 0.03125 0.03125 0.61291 0.25596 1.3112 0.43777 2 0.75 0.0094 0.0043 0.02182-0.0043 0.03125 0 1.053 0.33617 1.6742 1.1779 2.3125 1.7812 0.01 0.0094 0.0213 0.02197 0.03125 0.03125 0.4401 0.3222 0.85074 0.70955 1.125 1.2188a0.38396 0.38396 0 0 1 0 0.03125c0.41944 0.88963 0.79875 1.8018 1.1562 2.7188a0.38396 0.38396 0 0 1 0.03125 0c0.39122 1.2133 0.32713 2.4567 0.3125 3.625a0.38396 0.38396 0 0 1 0 0.0625c-0.11403 0.87827-0.3888 1.6304-0.59375 2.4062 0.37438-0.03468 0.75494-0.07577 1.125-0.0625 0.02055-0.0012 0.04194 0.0012 0.0625 0 1.6285-0.09717 3.3057-0.2041 4.9688-0.09375 1.6834 0.15017 3.437 0.09135 5.1875 0.3125 0.02499-5.6e-4 0.03788-1.65e-4 0.0625 0 0.23386 0.0016 0.4537 0.01266 0.59375 0 0.07739-7e-3 0.11158-0.02267 0.125-0.03125 0.01342-0.0086 0.01593 0.02132 0.03125-0.03125a0.38396 0.38396 0 0 1 0-0.03125c0.27412-0.89499 0.36233-1.8737 0.34375-2.8438-0.0028-0.02101 0.0027-0.0415 0-0.0625-0.13856-1.083-0.13021-2.1653-0.125-3.2188 5.1e-5 -0.01021-4.9e-5 -0.02104 0-0.03125-0.08718-1.3484-0.24395-2.7139-0.5-4.0312-0.3454-1.7104-0.59832-3.3936-1.125-5-0.01385-0.02298-0.0183-0.03944-0.03125-0.0625-0.15297-0.27242-0.23286-0.55703-0.34375-0.75-0.0939-0.1634-0.1971-0.20682-0.3125-0.25-0.20964 0.14429-0.38275 0.42455-0.71875 0.71875h-0.03125c-0.49589 0.48924-1.043 1.1681-1.9062 1.4062-0.0238 0.0066-0.03821 0.02537-0.0625 0.03125-0.52968 0.20642-1.0504 0.16355-1.5 0.15625a0.38396 0.38396 0 0 1-0.0625 0c-0.75933-0.10601-1.4111-0.53141-1.9375-0.96875-0.81937-0.7596-1.4831-1.6032-2.3438-2.0625a0.38396 0.38396 0 0 1-0.0625-0.03125c-0.16104-0.12623-0.42426-0.131-0.78125-0.125zm-12.5 2.625c-0.49378 0.65953-1.0389 1.2489-1.6875 1.75-0.84886 0.52196-1.7621 0.9857-2.7812 1.0312-0.97954 0.15092-2.0035 0.32987-2.9375 0.625-0.74141 0.43595-1.5846 0.66357-2.2188 1.2812-1.114 0.89256-2.526 1.3486-3.9062 1.5938-0.98471-0.25638-2.0574-0.36439-3.0625-0.15625-0.56149 0.58134-0.86643 1.3351-1.1875 2.0625-0.27576 0.48438-0.7827 0.73131-1.1562 1.125-0.78154 0.26206-1.3474 0.90671-2.125 1.1875-1.6698 1.2605-2.6926 3.1307-3.9688 4.75-0.64068 0.53971-0.23618 1.4005-0.15625 2.0938 0.11382 1.4338 1.15 2.7103 2.125 3.5625 1.664 1.4218 3.8393 1.9768 5.9062 2.5312 1.2561 0.18092 2.5054 0.43566 3.7812 0.34375 1.5015 0.01634 2.9864 0.0277 4.4688-0.25 1.3228-0.11041 2.6027-0.41724 3.875-0.78125 2.2026-0.47772 4.3221-1.2662 6.4375-2.0312 1.4154-0.50737 2.9071-0.882 4.1562-1.75 1.1375-0.38295 2.013-1.2538 2.7812-2.125 0.25499-0.57731 0.79162-1.0149 0.875-1.6562 0.3649-0.68017 0.41957-1.4897 0.65625-2.2188 0.20466-1.2555 0.38487-2.5228 0.09375-3.7812-0.09901-1.3093-0.77036-2.4652-1.5312-3.5-0.85266-1.5229-2.6534-2.0693-4.125-2.8125-0.56235-0.32163-1.2641-0.33407-1.7188-0.875-0.77174-0.75935-1.634-1.4782-2.5938-2zm17.438 15.531c-0.21975 4.67e-4 -0.44025 0.01188-0.65625 0.03125a0.44104 0.44104 0 0 1-0.03125 0c-1.8302 0.01485-3.6716 0.25769-5.5312 0.4375-0.53998 0.87343-1.19 1.6492-1.9062 2.3438-0.0099 0.0121-0.02123 0.01937-0.03125 0.03125-0.59456 0.70523-1.3908 1.0224-2 1.4062-0.02271 0.02322-0.03934 0.04097-0.0625 0.0625-0.43671 0.40598-0.95513 0.51001-1.3438 0.65625v0.03125c-0.90614 0.47134-1.8564 0.7197-2.6875 1.0938a0.44104 0.44104 0 0 1-0.0625 0.03125c-1.0686 0.29426-2.1387 0.54103-3.125 0.9375a0.44104 0.44104 0 0 1-0.03125 0c-0.57215 0.17908-1.0621 0.40442-1.5312 0.6875v1.2188c0.16596 0.55864 0.29886 1.0888 0.53125 1.5 0.5065 0.9642 1.2182 1.8366 2.0938 2.4688v-0.03125c1.1269 0.75054 2.2809 1.4513 3.5312 1.75a0.44104 0.44104 0 0 1 0.03125 0c0.9127 0.27592 1.8873 0.4226 2.875 0.53125 0.02078 0.0023 0.04169-0.0023 0.0625 0 1.2092 0.01222 2.4596-0.1274 3.75-0.09375 1.4079-0.29383 2.8073-0.51707 3.9688-1.1875a0.44104 0.44104 0 0 1 0.03125-0.03125c0.98977-0.43001 1.9019-1.0777 2.6875-1.8438a0.44104 0.44104 0 0 1 0.03125-0.03125c0.46465-0.37093 0.77868-0.9947 1.375-1.5625 0.01147-0.02607 0.01945-0.03709 0.03125-0.0625 0.27385-0.58968 0.61749-1.0492 0.6875-1.4688a0.44104 0.44104 0 0 1 0.03125-0.125c0.26156-0.53862 0.47738-1.1305 0.46875-1.6562a0.44104 0.44104 0 0 1 0-0.0625c0.07458-0.48024 0.12961-0.93003 0.09375-1.375a0.44104 0.44104 0 0 1 0-0.0625c0.07646-0.88602-0.19725-1.8054-0.46875-2.75a0.44104 0.44104 0 0 1 0.09375-0.40625c0.21618-0.2708 0.34018-0.81245 0.90625-1.2188a0.44104 0.44104 0 0 1 0-0.03125c0.20419-0.13882 0.29454-0.41829 0.40625-0.78125-0.0052-0.01252 0.01521-0.02238-0.03125-0.0625-0.06291-0.05433-0.19948-0.09576-0.3125-0.15625-0.61262-0.05723-1.2208-0.13295-1.7812-0.09375a0.44104 0.44104 0 0 1-0.0625 0c-0.69793-0.05399-1.372-0.1264-2.0312-0.125zm-20.75 8.7812-5.7812 1.1875 3.1875 6.2812 3.5312 2.5938 2.25 5.9062 6.2812-2.25c-0.53227-1.0514-1.0244-2.1099-1.625-3.125-0.53916-0.8523-0.88305-1.7974-1.2812-2.7188-0.08702-0.34454-0.33938-0.61174-0.59375-0.84375-0.47244-0.53805-1.0714-0.91872-1.7188-1.2188-0.64815-0.28839-1.3096-0.5499-2-0.71875z" fill="#fff"/>
<path d="m16.187-13.166c-3.6801 0-6.6429 2.9627-6.6429 6.6429v16.607h1.1071v-16.607c0-3.0859 2.4498-5.5357 5.5357-5.5357h79.714c3.0859 0 5.5357 2.4498 5.5357 5.5357v16.607h1.1071v-16.607c0-3.6801-2.9627-6.6429-6.6429-6.6429z" fill="url(#radialGradient3827)" opacity=".45"/>
<path d="m9.544 67.178v6c0 3.6801 2.9761 6.6562 6.6562 6.6562h79.688c3.6801 0 6.6563-2.9761 6.6563-6.6562v-6c0 3.6801-2.9761 6.6562-6.6563 6.6562h-79.688c-3.6801 0-6.6562-2.9761-6.6562-6.6562z" fill="url(#linearGradient3829)" opacity=".89091"/>
<rect x="13.419" y="65.584" width="84.25" height="4.25" rx="0" ry="4.25" fill="url(#radialGradient3831)" opacity=".55"/>
<rect transform="rotate(90)" x="-9.9156" y="-98.669" width="76.75" height="4.25" rx="0" ry="4.25" fill="url(#radialGradient3833)" opacity=".55"/>
<g transform="translate(251.29 -104.9)">
<g display="none">
<rect x="5" y="7" width="86" height="85" rx="6" ry="6" fill="url(#ButtonShadow)" filter="url(#filter3174-3)" opacity=".9"/>
</g>
</g>
<rect transform="matrix(.9093 0 0 .92838 12.389 19.829)" x="2" y="-30" width="92" height="92" rx="3.957" ry="3.957" clip-path="url(#clipPath4156-4)" fill="url(#linearGradient3837)"/>
<path d="m17.869-9.9361c-3.1166 0-5.668 2.5395-5.668 5.646v69.278c0 3.1065 2.5513 5.646 5.668 5.646h76.792c3.1166 0 5.668-2.5395 5.668-5.646v-69.278c0-3.1065-2.5513-5.646-5.668-5.646h-76.792zm0 2.3194h76.792c1.8881 0 3.352 1.4801 3.352 3.3266v69.278c0 1.8465-1.4639 3.3266-3.352 3.3266h-76.792c-1.8881 0-3.352-1.4801-3.352-3.3266v-69.278c0-1.8465 1.4639-3.3266 3.352-3.3266z" color="#000000" fill="#241f1f" fill-opacity=".63265" style="block-progression:tb;text-indent:0;text-transform:none"/>
</g>
</g>
<g display="none">
<rect x="5" y="7" width="86" height="85" rx="6" ry="6" fill="url(#ButtonShadow)" filter="url(#filter3174-36)" opacity=".9"/>
</g>
<g display="none">
<rect x="5" y="7" width="86" height="85" rx="6" ry="6" fill="url(#ButtonShadow)" filter="url(#filter3174-1)" opacity=".9"/>
</g>
<g display="none">
<rect x="5" y="7" width="86" height="85" rx="6" ry="6" fill="url(#ButtonShadow)" filter="url(#filter3174)" opacity=".9"/>
</g>
</svg>
