<?xml version="1.0" encoding="UTF-8"?>
<!-- Created with Inkscape (http://www.inkscape.org/) -->
<svg version="1.1" viewBox="0 0 96 96" xmlns="http://www.w3.org/2000/svg" xmlns:cc="http://creativecommons.org/ns#" xmlns:dc="http://purl.org/dc/elements/1.1/" xmlns:rdf="http://www.w3.org/1999/02/22-rdf-syntax-ns#" xmlns:xlink="http://www.w3.org/1999/xlink">
<defs>
<linearGradient id="linearGradient4071" x1="6" x2="90" y1="47" y2="47" gradientTransform="matrix(1.1071 0 0 1.1071 -4.9939 -3.6207)" gradientUnits="userSpaceOnUse">
<stop stop-color="#b0bbbe" offset="0"/>
<stop stop-color="#fff" offset=".25"/>
<stop stop-color="#94a2a6" offset=".5"/>
<stop stop-color="#fbf9f9" offset=".75"/>
<stop stop-color="#b1babd" offset="1"/>
</linearGradient>
<linearGradient id="linearGradient4129" x1="1.5" x2="94.5" y1="88.172" y2="88.172" gradientTransform="translate(.14895 .41503)" gradientUnits="userSpaceOnUse">
<stop offset="0"/>
<stop stop-opacity=".58824" offset=".1"/>
<stop stop-opacity=".58824" offset=".9"/>
<stop offset="1"/>
</linearGradient>
<radialGradient id="radialGradient7462" cx="13.948" cy="44.893" r="43.199" gradientTransform="matrix(.97513 0 0 .049191 34.048 80.582)" gradientUnits="userSpaceOnUse" xlink:href="#linearGradient3737"/>
<linearGradient id="linearGradient3737">
<stop stop-color="#fff" offset="0"/>
<stop stop-color="#fff" stop-opacity="0" offset="1"/>
</linearGradient>
<radialGradient id="radialGradient7464" cx="13.948" cy="44.893" r="43.199" gradientTransform="matrix(.88833 0 0 .049191 31.96 -90.317)" gradientUnits="userSpaceOnUse" xlink:href="#linearGradient3737"/>
<linearGradient id="linearGradient4767" x1="2.7714" x2="50.528" y1="-28.642" y2="14.514" gradientUnits="userSpaceOnUse" xlink:href="#linearGradient3737"/>
<clipPath id="clipPath4156-4-1">
<path d="m27.046-55.695-14.214 13.321h0.06127l15.653 21.771 10.231-10.546c-0.2169-1.1522-11.311-23.67-11.732-24.546zm-17.399 16.313-14.888 14.062 21.229 17.515 10.385-10.577zm31.491 12.951-9.7413 9.7136 8.9448 12.458 7.7808-7.555zm-49.84 4.3788-13.754 12.982 26.283 13.846 0.06127-0.0617-0.12253-0.0617 9.8332-10.053-22.301-16.652zm38.015 7.4008-9.8025 9.7753 11.579 9.5594 7.6276-7.4008-8.6691-11.009zm20.187 5.674-7.3825 7.2158 6.1878 8.5418 5.8202-6.1365zm-32.195 6.3215-9.5575 9.4977 13.662 7.185 7.9339-7.6784zm23.312 2.3744-7.1068 6.9383 8.3628 6.9074 5.3608-5.674-0.06127-0.0925-0.0919 0.12335-6.4635-8.2026zm-8.7304 8.5418-7.5051 7.3392 10.354 5.4581c1.3975-1.321 5.6751-6.1229 5.8509-6.3215z" fill="#fff" opacity=".6"/>
</clipPath>
<linearGradient id="linearGradient13885-3" x1="157.24" x2="154.03" y1="146.53" y2="160.33" gradientTransform="matrix(1 .0046 -.0046 1 2.8395 -3.7856)" gradientUnits="userSpaceOnUse">
<stop stop-color="#fff" offset="0"/>
<stop stop-color="#fffffd" offset=".4169"/>
<stop stop-color="#fffff5" offset=".6466"/>
<stop stop-color="#ffffe7" offset=".8302"/>
<stop stop-color="#ffffd4" offset=".9894"/>
<stop stop-color="#ffffd2" offset="1"/>
</linearGradient>
</defs>
<metadata>
<rdf:RDF>
<cc:Work rdf:about="">
<dc:format>image/svg+xml</dc:format>
<dc:type rdf:resource="http://purl.org/dc/dcmitype/StillImage"/>
<dc:title/>
<dc:date>2017</dc:date>
<dc:creator>
<cc:Agent>
<dc:title>Cristian Pozzessere "ilnanny"</dc:title>
</cc:Agent>
</dc:creator>
<dc:subject>
<rdf:Bag>
<rdf:li>Global language</rdf:li>
</rdf:Bag>
</dc:subject>
<dc:description>Playing with Inkscape on Gnu/Linux O. S.</dc:description>
<dc:contributor>
<cc:Agent>
<dc:title>In the night, alone like a dog.</dc:title>
</cc:Agent>
</dc:contributor>
<cc:license rdf:resource="http://creativecommons.org/licenses/by-sa/4.0/"/>
</cc:Work>
<cc:License rdf:about="http://creativecommons.org/licenses/by-sa/4.0/">
<cc:permits rdf:resource="http://creativecommons.org/ns#Reproduction"/>
<cc:permits rdf:resource="http://creativecommons.org/ns#Distribution"/>
<cc:requires rdf:resource="http://creativecommons.org/ns#Notice"/>
<cc:requires rdf:resource="http://creativecommons.org/ns#Attribution"/>
<cc:permits rdf:resource="http://creativecommons.org/ns#DerivativeWorks"/>
<cc:requires rdf:resource="http://creativecommons.org/ns#ShareAlike"/>
</cc:License>
</rdf:RDF>
</metadata>
<g transform="translate(0 -1026.5)">
<g transform="translate(-.14896 1026.1)">
<path d="m89.292 0.41503h-82.286c-3.7988 0-6.8571 3.0583-6.8571 6.8571v82.286c0 3.7989 3.0583 6.8571 6.8571 6.8571h82.286c3.7989 0 6.8571-3.0583 6.8571-6.8571v-82.286c0-3.7989-3.0583-6.8571-6.8571-6.8571z" opacity=".15"/>
<path d="m88.649 1.165h-81c-3.7395 0-6.75 3.0105-6.75 6.75v81c0 3.7395 3.0105 6.75 6.75 6.75h81c3.7395 0 6.75-3.0105 6.75-6.75v-81c0-3.7395-3.0105-6.75-6.75-6.75z" opacity=".15"/>
<path d="m88.006 1.915h-79.714c-3.6801 0-6.6429 2.9627-6.6429 6.6429v79.714c0 3.6801 2.9627 6.6429 6.6429 6.6429h79.714c3.6801 0 6.6429-2.9627 6.6429-6.6429v-79.714c0-3.6801-2.9627-6.6429-6.6429-6.6429z" fill="url(#linearGradient4071)"/>
<path d="m11.39 6.8022c-2.8565 0-5.1241 2.2884-5.1241 5.171v68.58c1.0972 1.6845 2.9688 2.8117 5.1241 2.8117h73.787c2.1553 0 4.0269-1.1272 5.1241-2.8117v-68.58c0-2.8826-2.2676-5.171-5.1241-5.171z" fill="#f5f3f3" opacity=".77865"/>
<path d="m9.974 5.1445c-3.1166 0-5.668 2.5395-5.668 5.646v69.278c0 3.1065 2.5513 5.646 5.668 5.646h76.792c3.1166 0 5.668-2.5395 5.668-5.646v-69.278c0-3.1065-2.5513-5.646-5.668-5.646zm0 2.3194h76.792c1.8881 0 3.352 1.4801 3.352 3.3266v69.278c0 1.8465-1.4639 3.3266-3.352 3.3266h-76.792c-1.8881 0-3.352-1.4801-3.352-3.3266v-69.278c0-1.8465 1.4639-3.3266 3.352-3.3266z" color="#000000" fill="#241f1f" fill-opacity=".63265" style="text-decoration-line:none;text-indent:0;text-transform:none"/>
<path d="m1.649 82.259v6c0 3.6801 2.9761 6.6562 6.6562 6.6562h79.687c3.6801 0 6.6563-2.9761 6.6563-6.6562v-6c0 3.6801-2.9761 6.6562-6.6563 6.6562h-79.687c-3.6801 0-6.6562-2.9761-6.6562-6.6562z" fill="url(#linearGradient4129)" opacity=".65818"/>
<rect x="5.524" y="80.665" width="84.25" height="4.25" rx="0" ry="4.25" fill="url(#radialGradient7462)" opacity=".55"/>
<rect transform="rotate(90)" x="5.975" y="-90.234" width="76.75" height="4.25" rx="0" ry="4.25" fill="url(#radialGradient7464)" opacity=".669"/>
<g transform="matrix(.59757 0 0 .59757 -25.848 -62.696)">
<path d="m136.09 130.98c-13.547 0.26481-24.595 7.7673-30.675 25.805-1.0567 3.1343-4.5216 14.726-8.2921 27.069-6.2077 0.22605-15.247 1.2738-19.362 5.2688-0.79 0.64801-1.3135 1.6017-1.3695 2.6867-0.01915 0.37208 0.03504 0.72739 0.12093 1.0721 0.18122 1.9241 1.7692 3.488 3.8078 3.6051 1.246 0.071 2.3898-0.40841 3.1868-1.2224l0.0065 0.01c1.323-1.434 5.8374-2.4415 10.998-2.9155-0.134 0.431-0.26875 0.85977-0.39875 1.2878-0.442 1.389-0.87892 2.774-1.3139 4.164-0.602 1.911-1.2007 3.8249-1.8107 5.7329-0.303 0.95101-0.61271 1.9056-0.92171 2.8566-0.084 2.672 1.5741 5.4346 4.7001 7.7986 4.804 3.633 13.475 6.3865 21.173 3.8535 0.85-2.676 1.9863-6.2458 3.2423-10.188h3e-3c0.696-2.201 1.4408-4.088 2.2128-5.71 1.441 1.307 2.8671 2.7456 4.1281 4.1346 0.804 1.016 1.0281 1.5469 1.7421 2.2389 1.6522 1.5984 3.7887 2.027 5.4191 1.0655 9e-3 -6e-3 0.0201-7e-3 0.0294-0.0131 3e-3 -2e-3 6e-3 -5e-3 0.01-7e-3 0.0937-0.0568 0.18126-0.12667 0.27129-0.19285 0.14042-0.0954 0.28374-0.18025 0.41509-0.29742 1.3602-1.214 1.5922-3.1687 0.75829-4.8733-0.26748-0.60434-0.65002-1.179-1.1668-1.68-0.092-0.088-0.18962-0.17166-0.28762-0.25167-0.17203-0.20147-0.47666-0.52021-0.67658-0.74847-1.4447-1.6988-3.4801-3.9001-5.8865-6.0467 3.381-2.8978 6.8163-2.6739 9.3282-1.8074 0.032 0.019 0.0582 0.0386 0.0882 0.0556 6.097 3.571 13.021 3.2725 19.294 0.27454 5.137-2.454 9.604-6.6119 13.015-11.662 3.114-4.612 5.3341-9.9443 6.4781-15.453 1.176-5.684 1.2159-11.568-0.0621-16.983-1.714-7.276-6.0439-13.544-11.979-16.659-3.138-1.648-6.7234-2.4192-10.609-1.9872-0.358 0.04-0.71759 0.0926-1.0786 0.15362-0.242 0.04-0.4816 0.0883-0.7256 0.13728-0.104 0.023-0.21358 0.0424-0.32358 0.0654-0.307 0.069-0.61978 0.1468-0.93478 0.2288-0.029 0.01-0.0605 0.0172-0.0915 0.0262-0.338 0.091-0.6813 0.19096-1.0263 0.30397-1.88 0.6-3.8122 1.4705-5.7852 2.6605-5.366 3.238-9.5758 7.51-12.659 12.309-0.151 0.23599-0.28997 0.47779-0.43797 0.71579 1.438-3.934 3.3655-6.7194 4.8635-8.3084 2.655-2.812 6.5985-6.0652 11.23-7.9162-0.965-0.15399-1.8725-0.26564-2.6965-0.33664-2.0301-0.24801-4.0166-0.35814-5.9519-0.32032zm20.657 7.8966c7.3236 2e-3 13.188 5.6615 15.339 13.535 2.394 8.763 0.0916 20.011-5.3734 27.818-6.425 9.176-17.577 14.065-26.007 7.6907-12.5-9.453-10.594-33.813 5.3603-45.216 3.7197-2.6603 7.3525-3.8281 10.681-3.8274zm-68.334 72.027c-0.321 0.94699-1.5307 4.6699-1.9447 5.5629-0.792 1.71-2.0164 3.1758-3.5234 4.3078-1.608 1.17-3.4706 1.938-5.3766 2.484-1.624 0.465-3.4227 0.78778-4.4647 2.2618-0.957 1.36-0.90897 3.2196 0.18303 4.4876 1.236 1.442 3.2101 1.7086 4.9811 1.3466 2.086-0.423 4.1585-1.1325 6.1055-1.9905 1.708-0.75401 3.5394-1.5284 4.8864-2.8664 1.017 1.453 2.3082 2.702 3.7882 3.677 0.737 0.48301 1.519 0.89948 2.337 1.2355 0.453 0.18501 1.8541 0.55839 1.8271 0.55238-0.78 0.461-1.602 0.91028-2.52 1.3303-0.141 0.049-0.27656 0.10898-0.40856 0.16998-0.532 0.31599-1.0147 0.67835-1.4087 1.1243-0.442 0.56801-0.73585 1.262-0.81385 2.033-0.216 2.152 1.3247 4.0682 3.4417 4.2751 0.693 0.069 1.3593-0.0516 1.9513-0.32358l0.01307 0.0262c4.799-2.137 8.2144-4.8403 10.645-7.4913 1.379-1.554 2.5737-3.2492 3.6117-5.0433-0.17143 0.18437-0.36861 0.33883-0.5491 0.51315 0.39931-0.42815 0.76688-0.8837 1.0459-1.3989 1.081-2 1.967-4.1039 2.654-6.2689-4.832 1.115-9.9866 0.68469-14.653-0.94132-4.633-1.616-9.5-4.5695-11.809-9.0635zm20.399 19.542c-0.0861 0.0533-0.17425 0.10215-0.26148 0.15362 0.0874-0.0507 0.17464-0.10111 0.26148-0.15362zm-1.5852 0.84001c-0.11326 0.0517-0.22203 0.11138-0.33665 0.16015 0.11414-0.0483 0.2237-0.10876 0.33665-0.16015zm-1.9284 0.72233c-0.17159 0.0499-0.34603 0.0872-0.51968 0.13073 0.1733-0.043 0.34799-0.0812 0.51968-0.13073zm-6.3179 0.35626c0.1828 0.0308 0.36549 0.0581 0.5491 0.0817-0.18345-0.0239-0.36553-0.0504-0.5491-0.0817zm4.6445 0.01c-0.22422 0.0367-0.44676 0.0754-0.67331 0.10131 0.22578-0.0257 0.44896-0.065 0.67331-0.10131zm-2.7815 0.17648c0.16907 6e-3 0.33754 0.0263 0.50661 0.0262-0.16836-2e-5 -0.33763-0.02-0.50661-0.0262z" fill="#2980b9"/>
<path d="m169.18 177.21c-7.7729 14.88-22.416 20.833-32.749 13.487-10.281-7.3097-12.581-25.164-5.1048-40.071 7.5683-15.085 22.306-21.532 32.883-14.195 10.629 7.3707 12.839 25.716 4.9713 40.78z" fill="#f4b922" fill-opacity=".91781" stroke-width=".98528"/>
<path d="m152.87 163.73c0.6-3.865-0.522-7.005-2.662-6.849-2.314 0.169-4.753 4.052-5.243 8.456-0.463 4.194 1.088 6.84 3.284 6.14 2.048-0.656 4.051-4.043 4.621-7.747z" fill="#2c3e50"/>
<path d="m162.64 162.83c-0.229-0.074-0.595-0.122-1.02 0.095-1.451 0.724-2.662 4.385-2.89 5.114-0.319 1.026-1.306 4.479-0.473 5.754 0.22 0.333 0.541 0.539 0.91 0.59 0.917 0.124 1.58-0.733 1.997-1.385 0.242-0.378 0.491-0.838 0.734-1.364 0.351-0.751 0.686-1.621 0.961-2.508 0.661-2.108 1.514-5.73-0.219-6.296z" fill="#2c3e50"/>
<path d="m142.69 148.1c-3.562 6.513-3.258 7.708 7.139 8.935 7.664 1.236 11.396 3.66 15.189 5.776 2.492 1.122 4.064 3.785 5.62 1.77 2.158-3.913 1.6-13.077-3.001-19.51-7.091-9.545-19.314-5.796-24.947 3.029z" fill="url(#linearGradient13885-3)" opacity=".536"/>
</g>
<rect transform="matrix(1.0692 0 0 1.0477 4.4442 38.894)" x="2" y="-30" width="75.966" height="69.024" rx="3.957" ry="3.957" clip-path="url(#clipPath4156-4-1)" fill="url(#linearGradient4767)" opacity=".50781"/>
</g>
</g>
</svg>
