<?xml version="1.0" encoding="UTF-8"?>
<!-- Created with Inkscape (http://www.inkscape.org/) -->
<svg version="1.0" viewBox="0 0 96 96" xmlns="http://www.w3.org/2000/svg" xmlns:cc="http://creativecommons.org/ns#" xmlns:dc="http://purl.org/dc/elements/1.1/" xmlns:rdf="http://www.w3.org/1999/02/22-rdf-syntax-ns#" xmlns:xlink="http://www.w3.org/1999/xlink">
<defs>
<linearGradient id="ButtonShadow" x1="45.448" x2="45.448" y1="92.54" y2="7.0165" gradientTransform="scale(1.0059 .99417)" gradientUnits="userSpaceOnUse">
<stop offset="0"/>
<stop stop-opacity=".58824" offset="1"/>
</linearGradient>
<filter id="filter3174" color-interpolation-filters="sRGB">
<feGaussianBlur stdDeviation="1.71"/>
</filter>
<linearGradient id="linearGradient3837" x1="2.7714" x2="50.528" y1="-28.642" y2="14.514" gradientUnits="userSpaceOnUse">
<stop stop-color="#fff" offset="0"/>
<stop stop-color="#fff" stop-opacity="0" offset="1"/>
</linearGradient>
<radialGradient id="radialGradient3833" cx="13.948" cy="44.893" r="43.199" gradientTransform="matrix(.88833 0 0 .049191 16.069 -98.752)" gradientUnits="userSpaceOnUse" xlink:href="#linearGradient4133"/>
<radialGradient id="radialGradient3831" cx="13.948" cy="44.893" r="43.199" gradientTransform="matrix(.97513 0 0 .049191 41.943 65.501)" gradientUnits="userSpaceOnUse" xlink:href="#linearGradient4133"/>
<linearGradient id="linearGradient3829" x1="1.5" x2="94.5" y1="88.172" y2="88.172" gradientTransform="translate(8.044 -14.666)" gradientUnits="userSpaceOnUse">
<stop offset="0"/>
<stop stop-opacity=".58824" offset=".1"/>
<stop stop-opacity=".58824" offset=".9"/>
<stop offset="1"/>
</linearGradient>
<linearGradient id="linearGradient3825" x1="6" x2="90" y1="47" y2="47" gradientTransform="matrix(1.1071 0 0 1.1071 2.9011 -18.701)" gradientUnits="userSpaceOnUse">
<stop stop-color="#adb4c1" offset="0"/>
<stop stop-color="#fff" offset=".25"/>
<stop stop-color="#9095aa" offset=".5"/>
<stop stop-color="#fbf9f9" offset=".75"/>
<stop stop-color="#adb3c1" offset="1"/>
</linearGradient>
<filter id="filter3174-36" color-interpolation-filters="sRGB">
<feGaussianBlur stdDeviation="1.71"/>
</filter>
<filter id="filter3174-3" color-interpolation-filters="sRGB">
<feGaussianBlur stdDeviation="1.71"/>
</filter>
<linearGradient id="linearGradient4133">
<stop stop-color="#fff" offset="0"/>
<stop stop-color="#fff" stop-opacity="0" offset="1"/>
</linearGradient>
<clipPath id="clipPath4156-4">
<path d="m27.046-55.695-14.214 13.321h0.06127l15.653 21.771 10.231-10.546c-0.2169-1.1522-11.311-23.67-11.732-24.546zm-17.399 16.313-14.888 14.062 21.229 17.515 10.385-10.577-16.726-21zm31.491 12.951-9.7413 9.7136 8.9448 12.458 7.7808-7.555-6.9843-14.617zm-49.84 4.3788-13.754 12.982 26.283 13.846 0.06127-0.0617-0.12253-0.0617 9.8332-10.053-22.301-16.652zm38.015 7.4008-9.8025 9.7753 11.579 9.5594 7.6276-7.4008-8.6691-11.009-0.73519-0.9251zm20.187 5.674-7.3825 7.2158 6.1878 8.5418 5.8202-6.1365-4.6256-9.6211zm-32.195 6.3215-9.5575 9.4977 13.662 7.185 7.9339-7.6784-12.039-9.0043zm23.312 2.3744-7.1068 6.9383 8.3628 6.9074 5.3608-5.674-0.06127-0.0925-0.0919 0.12335-6.4635-8.2026zm-8.7304 8.5418-7.5051 7.3392 10.354 5.4581c1.3975-1.321 5.6751-6.1229 5.8509-6.3215l-8.6997-6.4757z" fill="#fff" opacity=".6"/>
</clipPath>
<filter id="filter3174-2" color-interpolation-filters="sRGB">
<feGaussianBlur stdDeviation="1.71"/>
</filter>
<radialGradient id="radialGradient3679-4" cx="32" cy="26" r="16" gradientTransform="matrix(1.1109 0 0 -1.0525 -.48159 46.15)" gradientUnits="userSpaceOnUse" xlink:href="#linearGradient3673-9"/>
<linearGradient id="linearGradient3673-9">
<stop stop-color="#fff" offset="0"/>
<stop stop-color="#f2f2f2" offset=".73438"/>
<stop stop-color="#e5e5e5" offset="1"/>
</linearGradient>
<radialGradient id="radialGradient3760-5" cx="32" cy="40" r="16" gradientTransform="matrix(1.1109 0 0 1.0525 39.197 -21.441)" gradientUnits="userSpaceOnUse" xlink:href="#linearGradient3754-0"/>
<linearGradient id="linearGradient3754-0">
<stop stop-color="#393939" offset="0"/>
<stop stop-color="#282828" offset=".65625"/>
<stop stop-color="#161616" offset="1"/>
</linearGradient>
<linearGradient id="linearGradient3787-5" x1="61" x2="67.297" y1="15" y2="38.502" gradientTransform="matrix(.93551 0 0 .93551 13.003 -14.892)" gradientUnits="userSpaceOnUse" xlink:href="#linearGradient4133"/>
<linearGradient id="linearGradient3791-0" x1="61" x2="67.297" y1="15" y2="38.502" gradientTransform="matrix(.93551 0 0 .93551 -26.676 -14.892)" gradientUnits="userSpaceOnUse" xlink:href="#linearGradient4133"/>
<radialGradient id="radialGradient3834-4" cx="32" cy="26" r="16" gradientTransform="matrix(1.1109 0 0 -1.0525 39.197 81.828)" gradientUnits="userSpaceOnUse" xlink:href="#linearGradient3673-9"/>
<linearGradient id="linearGradient3836-1" x1="61" x2="67.297" y1="15" y2="38.502" gradientTransform="matrix(.93551 0 0 .93551 13.003 20.786)" gradientUnits="userSpaceOnUse" xlink:href="#linearGradient4133"/>
<radialGradient id="radialGradient3838-3" cx="32" cy="40" r="16" gradientTransform="matrix(1.1109 0 0 1.0525 -.48159 14.237)" gradientUnits="userSpaceOnUse" xlink:href="#linearGradient3754-0"/>
<linearGradient id="linearGradient3840-5" x1="61" x2="67.297" y1="15" y2="38.502" gradientTransform="matrix(.93551 0 0 .93551 -26.676 20.786)" gradientUnits="userSpaceOnUse" xlink:href="#linearGradient4133"/>
</defs>
<metadata>
<rdf:RDF>
<cc:Work rdf:about="">
<dc:format>image/svg+xml</dc:format>
<dc:type rdf:resource="http://purl.org/dc/dcmitype/StillImage"/>
<dc:title/>
<dc:date>2018</dc:date>
<dc:creator>
<cc:Agent>
<dc:title>Cristian Pozzessere  == ilnanny ==</dc:title>
</cc:Agent>
</dc:creator>
<dc:coverage>CC-BY-SA</dc:coverage>
</cc:Work>
</rdf:RDF>
</metadata>
<g display="none">
<rect x="5" y="7" width="86" height="85" rx="6" ry="6" fill="url(#ButtonShadow)" filter="url(#filter3174)" opacity=".9"/>
</g>
<g transform="translate(-1e-6,32)">
<g transform="translate(-8.044 -17.334)">
<path d="m97.187-14.666h-82.286c-3.7988 0-6.8571 3.0583-6.8571 6.8571v82.286c0 3.7989 3.0583 6.8571 6.8571 6.8571h82.286c3.7989 0 6.8571-3.0583 6.8571-6.8571v-82.286c0-3.7989-3.0583-6.8571-6.8571-6.8571z" opacity=".15"/>
<path d="m96.544-13.916h-81c-3.7395 0-6.75 3.0105-6.75 6.75v81c0 3.7395 3.0105 6.75 6.75 6.75h81c3.7395 0 6.75-3.0105 6.75-6.75v-81c0-3.7395-3.0105-6.75-6.75-6.75z" opacity=".15"/>
<path d="m95.901-13.166h-79.714c-3.6801 0-6.6429 2.9627-6.6429 6.6429v79.714c0 3.6801 2.9627 6.6429 6.6429 6.6429h79.714c3.6801 0 6.6429-2.9627 6.6429-6.6429v-79.714c0-3.6801-2.9627-6.6429-6.6429-6.6429z" fill="url(#linearGradient3825)"/>
<rect x="13.837" y="-8.0546" width="84.846" height="77.52" ry="4.25" fill="#22d74f" stroke="#fff" stroke-linecap="round" stroke-linejoin="round" stroke-width=".4"/>
<g transform="matrix(-1 0 0 1 109.81 0)">
<path d="m50.036 13.173a14.968 14.968 0 1 0-29.936 0 14.968 14.968 0 1 0 29.936 0z" color="#000000" fill="url(#radialGradient3679-4)"/>
<path d="m89.715 13.173a14.968 14.968 0 1 1-29.936 0 14.968 14.968 0 1 1 29.936 0z" color="#000000" fill="url(#radialGradient3760-5)"/>
<path d="m74.746-0.85969c-7.75 0-14.033 6.2826-14.033 14.033 0 3.376 1.2002 6.4663 3.1866 8.8874-1.4266-2.1475-2.2511-4.7127-2.2511-7.4841 0-7.4917 6.0732-13.565 13.565-13.565 7.2526 0 13.165 5.7029 13.536 12.863 0.01164-0.23436 0.02924-0.46438 0.02924-0.70163 0-7.75-6.2826-14.033-14.033-14.033z" color="#000000" fill="url(#linearGradient3787-5)" opacity=".2"/>
<path d="m35.068-0.85969c-7.75 0-14.033 6.2826-14.033 14.033 0 3.376 1.2002 6.4663 3.1866 8.8874-1.4266-2.1475-2.2511-4.7127-2.2511-7.4841 0-7.4917 6.0732-13.565 13.565-13.565 7.2526 0 13.165 5.7029 13.536 12.863 0.01164-0.23436 0.02924-0.46438 0.02924-0.70163 0-7.75-6.2826-14.033-14.033-14.033z" color="#000000" fill="url(#linearGradient3791-0)"/>
<path d="m35.068-1.7952c-8.2667 0-14.968 6.7015-14.968 14.968 0 8.2667 6.7015 14.968 14.968 14.968 8.2667 0 14.968-6.7015 14.968-14.968 0-8.2667-6.7015-14.968-14.968-14.968zm0 0.90628c7.7836 0 14.062 6.2783 14.062 14.062 0 7.7836-6.2783 14.062-14.062 14.062-7.7836 0-14.062-6.2783-14.062-14.062 0-7.7836 6.2783-14.062 14.062-14.062z" color="#000000" opacity=".1"/>
<path d="m74.746-1.7952c-8.2667 0-14.968 6.7015-14.968 14.968 0 8.2667 6.7015 14.968 14.968 14.968 8.2667 0 14.968-6.7015 14.968-14.968 0-8.2667-6.7015-14.968-14.968-14.968zm0 0.90628c7.7836 0 14.062 6.2783 14.062 14.062 0 7.7836-6.2783 14.062-14.062 14.062-7.7836 0-14.062-6.2783-14.062-14.062 0-7.7836 6.2783-14.062 14.062-14.062z" color="#000000" opacity=".2"/>
<path d="m89.715 48.851a14.968 14.968 0 1 0-29.936 0 14.968 14.968 0 1 0 29.936 0z" color="#000000" fill="url(#radialGradient3834-4)"/>
<path d="m74.746 34.819c-7.75 0-14.033 6.2826-14.033 14.033 0 3.376 1.2002 6.4663 3.1866 8.8874-1.4266-2.1475-2.2511-4.7127-2.2511-7.4841 0-7.4917 6.0732-13.565 13.565-13.565 7.2526 0 13.165 5.7029 13.536 12.863 0.01164-0.23437 0.02924-0.46438 0.02924-0.70164 0-7.75-6.2826-14.033-14.033-14.033z" color="#000000" fill="url(#linearGradient3836-1)"/>
<path d="m74.746 33.883c-8.2667 0-14.968 6.7015-14.968 14.968 0 8.2667 6.7015 14.968 14.968 14.968 8.2667 0 14.968-6.7015 14.968-14.968 0-8.2667-6.7015-14.968-14.968-14.968zm0 0.90628c7.7836 0 14.062 6.2783 14.062 14.062 0 7.7836-6.2783 14.062-14.062 14.062-7.7836 0-14.062-6.2783-14.062-14.062 0-7.7836 6.2783-14.062 14.062-14.062z" color="#000000" opacity=".1"/>
<path d="m50.036 48.851a14.968 14.968 0 1 1-29.936 0 14.968 14.968 0 1 1 29.936 0z" color="#000000" fill="url(#radialGradient3838-3)"/>
<path d="m35.068 34.819c-7.75 0-14.033 6.2826-14.033 14.033 0 3.376 1.2002 6.4663 3.1866 8.8874-1.4266-2.1475-2.2511-4.7127-2.2511-7.4841 0-7.4917 6.0732-13.565 13.565-13.565 7.2526 0 13.165 5.7029 13.536 12.863 0.01164-0.23437 0.02924-0.46438 0.02924-0.70164 0-7.75-6.2826-14.033-14.033-14.033z" color="#000000" fill="url(#linearGradient3840-5)" opacity=".2"/>
<path d="m35.068 33.883c-8.2667 0-14.968 6.7015-14.968 14.968 0 8.2667 6.7015 14.968 14.968 14.968 8.2667 0 14.968-6.7015 14.968-14.968 0-8.2667-6.7015-14.968-14.968-14.968zm0 0.90628c7.7836 0 14.062 6.2783 14.062 14.062 0 7.7836-6.2783 14.062-14.062 14.062-7.7836 0-14.062-6.2783-14.062-14.062 0-7.7836 6.2783-14.062 14.062-14.062z" color="#000000" opacity=".2"/>
</g>
<path d="m9.544 67.178v6c0 3.6801 2.9761 6.6562 6.6562 6.6562h79.688c3.6801 0 6.6563-2.9761 6.6563-6.6562v-6c0 3.6801-2.9761 6.6562-6.6563 6.6562h-79.688c-3.6801 0-6.6562-2.9761-6.6562-6.6562z" fill="url(#linearGradient3829)" opacity=".89091"/>
<rect x="13.419" y="65.584" width="84.25" height="4.25" rx="0" ry="4.25" fill="url(#radialGradient3831)" opacity=".55"/>
<rect transform="rotate(90)" x="-9.9156" y="-98.669" width="76.75" height="4.25" rx="0" ry="4.25" fill="url(#radialGradient3833)" opacity=".55"/>
<g transform="translate(251.29 -104.9)">
<g display="none">
<rect x="5" y="7" width="86" height="85" rx="6" ry="6" fill="url(#ButtonShadow)" filter="url(#filter3174-3)" opacity=".9"/>
</g>
</g>
<rect transform="matrix(.9093 0 0 .92838 12.389 19.829)" x="2" y="-30" width="92" height="92" rx="3.957" ry="3.957" clip-path="url(#clipPath4156-4)" fill="url(#linearGradient3837)" opacity=".657"/>
<path d="m17.869-9.9361c-3.1166 0-5.668 2.5395-5.668 5.646v69.278c0 3.1065 2.5513 5.646 5.668 5.646h76.792c3.1166 0 5.668-2.5395 5.668-5.646v-69.278c0-3.1065-2.5513-5.646-5.668-5.646h-76.792zm0 2.3194h76.792c1.8881 0 3.352 1.4801 3.352 3.3266v69.278c0 1.8465-1.4639 3.3266-3.352 3.3266h-76.792c-1.8881 0-3.352-1.4801-3.352-3.3266v-69.278c0-1.8465 1.4639-3.3266 3.352-3.3266z" color="#000000" fill="#292929" fill-opacity=".87946" style="block-progression:tb;text-indent:0;text-transform:none"/>
</g>
</g>
<g display="none">
<rect x="5" y="7" width="86" height="85" rx="6" ry="6" fill="url(#ButtonShadow)" filter="url(#filter3174-36)" opacity=".9"/>
</g>
<g display="none">
<rect x="5" y="7" width="86" height="85" rx="6" ry="6" fill="url(#ButtonShadow)" filter="url(#filter3174-2)" opacity=".9"/>
</g>
</svg>
