<?xml version="1.0" encoding="UTF-8"?>
<!-- Created with Inkscape (http://www.inkscape.org/) -->
<svg version="1.0" viewBox="0 0 96 96" xmlns="http://www.w3.org/2000/svg" xmlns:cc="http://creativecommons.org/ns#" xmlns:dc="http://purl.org/dc/elements/1.1/" xmlns:rdf="http://www.w3.org/1999/02/22-rdf-syntax-ns#" xmlns:xlink="http://www.w3.org/1999/xlink">
<defs>
<linearGradient id="ButtonShadow" x1="45.448" x2="45.448" y1="92.54" y2="7.0165" gradientTransform="scale(1.0059 .99417)" gradientUnits="userSpaceOnUse">
<stop offset="0"/>
<stop stop-opacity=".58824" offset="1"/>
</linearGradient>
<filter id="filter3174" color-interpolation-filters="sRGB">
<feGaussianBlur stdDeviation="1.71"/>
</filter>
<linearGradient id="linearGradient3837" x1="2.7714" x2="50.528" y1="-28.642" y2="14.514" gradientUnits="userSpaceOnUse">
<stop stop-color="#fff" offset="0"/>
<stop stop-color="#fff" stop-opacity="0" offset="1"/>
</linearGradient>
<radialGradient id="radialGradient3833" cx="13.948" cy="44.893" r="43.199" gradientTransform="matrix(.88833 0 0 .049191 16.069 -98.752)" gradientUnits="userSpaceOnUse" xlink:href="#linearGradient4133"/>
<radialGradient id="radialGradient3831" cx="13.948" cy="44.893" r="43.199" gradientTransform="matrix(.97513 0 0 .049191 41.943 65.501)" gradientUnits="userSpaceOnUse" xlink:href="#linearGradient4133"/>
<linearGradient id="linearGradient3829" x1="1.5" x2="94.5" y1="88.172" y2="88.172" gradientTransform="translate(8.044 -14.666)" gradientUnits="userSpaceOnUse">
<stop offset="0"/>
<stop stop-opacity=".58824" offset=".1"/>
<stop stop-opacity=".58824" offset=".9"/>
<stop offset="1"/>
</linearGradient>
<radialGradient id="radialGradient3827" cx="48" cy="-27" r="42" gradientTransform="matrix(-1.0722 0 0 -.87502 199.46 -19.126)" gradientUnits="userSpaceOnUse">
<stop stop-color="#fff" offset="0"/>
<stop stop-color="#fff" offset=".8"/>
<stop stop-color="#fff" stop-opacity="0" offset="1"/>
</radialGradient>
<linearGradient id="linearGradient3825" x1="6" x2="90" y1="47" y2="47" gradientTransform="matrix(1.1071 0 0 1.1071 2.9011 -18.701)" gradientUnits="userSpaceOnUse">
<stop stop-color="#adb4c1" offset="0"/>
<stop stop-color="#fff" offset=".25"/>
<stop stop-color="#9095aa" offset=".5"/>
<stop stop-color="#fbf9f9" offset=".75"/>
<stop stop-color="#adb3c1" offset="1"/>
</linearGradient>
<filter id="filter3174-36" color-interpolation-filters="sRGB">
<feGaussianBlur stdDeviation="1.71"/>
</filter>
<filter id="filter3174-3" color-interpolation-filters="sRGB">
<feGaussianBlur stdDeviation="1.71"/>
</filter>
<linearGradient id="linearGradient4133">
<stop stop-color="#fff" offset="0"/>
<stop stop-color="#fff" stop-opacity="0" offset="1"/>
</linearGradient>
<clipPath id="clipPath4156-4">
<path d="m27.046-55.695-14.214 13.321h0.06127l15.653 21.771 10.231-10.546c-0.2169-1.1522-11.311-23.67-11.732-24.546zm-17.399 16.313-14.888 14.062 21.229 17.515 10.385-10.577-16.726-21zm31.491 12.951-9.7413 9.7136 8.9448 12.458 7.7808-7.555-6.9843-14.617zm-49.84 4.3788-13.754 12.982 26.283 13.846 0.06127-0.0617-0.12253-0.0617 9.8332-10.053-22.301-16.652zm38.015 7.4008-9.8025 9.7753 11.579 9.5594 7.6276-7.4008-8.6691-11.009-0.73519-0.9251zm20.187 5.674-7.3825 7.2158 6.1878 8.5418 5.8202-6.1365-4.6256-9.6211zm-32.195 6.3215-9.5575 9.4977 13.662 7.185 7.9339-7.6784-12.039-9.0043zm23.312 2.3744-7.1068 6.9383 8.3628 6.9074 5.3608-5.674-0.06127-0.0925-0.0919 0.12335-6.4635-8.2026zm-8.7304 8.5418-7.5051 7.3392 10.354 5.4581c1.3975-1.321 5.6751-6.1229 5.8509-6.3215l-8.6997-6.4757z" fill="#fff" opacity=".6"/>
</clipPath>
<filter id="filter3174-39" color-interpolation-filters="sRGB">
<feGaussianBlur stdDeviation="1.71"/>
</filter>
<radialGradient id="radialGradient3679-0" cx="32" cy="26" r="16" gradientTransform="matrix(1.1875,0,0,1.125,-6,-3.25)" gradientUnits="userSpaceOnUse">
<stop stop-color="#5db1eb" offset="0"/>
<stop stop-color="#3ca0e6" offset=".71875"/>
<stop stop-color="#1b90e2" offset="1"/>
</radialGradient>
<linearGradient id="linearGradient3791-3" x1="61" x2="67.297" y1="15" y2="38.502" gradientTransform="translate(-36)" gradientUnits="userSpaceOnUse" xlink:href="#linearGradient4133"/>
<radialGradient id="radialGradient3972-5" cx="32" cy="40" r="16" gradientTransform="matrix(1.1875,0,0,1.125,-6,-5)" gradientUnits="userSpaceOnUse" xlink:href="#linearGradient3957-5"/>
<linearGradient id="linearGradient3957-5">
<stop stop-color="#f14848" offset="0"/>
<stop stop-color="#e42323" offset=".67188"/>
<stop stop-color="#c21313" offset="1"/>
</linearGradient>
<linearGradient id="linearGradient3974-7" x1="61" x2="67.297" y1="15" y2="38.502" gradientUnits="userSpaceOnUse" xlink:href="#linearGradient4133"/>
</defs>
<metadata>
<rdf:RDF>
<cc:Work rdf:about="">
<dc:format>image/svg+xml</dc:format>
<dc:type rdf:resource="http://purl.org/dc/dcmitype/StillImage"/>
<dc:title/>
</cc:Work>
</rdf:RDF>
</metadata>
<g transform="translate(-1e-6,32)">
<g transform="translate(-8.044 -17.334)">
<path d="m97.187-14.666h-82.286c-3.7988 0-6.8571 3.0583-6.8571 6.8571v82.286c0 3.7989 3.0583 6.8571 6.8571 6.8571h82.286c3.7989 0 6.8571-3.0583 6.8571-6.8571v-82.286c0-3.7989-3.0583-6.8571-6.8571-6.8571z" opacity=".15"/>
<path d="m96.544-13.916h-81c-3.7395 0-6.75 3.0105-6.75 6.75v81c0 3.7395 3.0105 6.75 6.75 6.75h81c3.7395 0 6.75-3.0105 6.75-6.75v-81c0-3.7395-3.0105-6.75-6.75-6.75z" opacity=".15"/>
<path d="m95.901-13.166h-79.714c-3.6801 0-6.6429 2.9627-6.6429 6.6429v79.714c0 3.6801 2.9627 6.6429 6.6429 6.6429h79.714c3.6801 0 6.6429-2.9627 6.6429-6.6429v-79.714c0-3.6801-2.9627-6.6429-6.6429-6.6429z" fill="url(#linearGradient3825)"/>
<rect x="13.837" y="-8.0546" width="84.846" height="77.52" ry="4.25" fill="#e4e6e9" stroke="#fff" stroke-linecap="round" stroke-linejoin="round" stroke-width=".4"/>
<g transform="rotate(180 52.022 40.167)">
<path d="m30 12.125c-10.398 0-18.875 8.4771-18.875 18.875 0 8.5536 5.7703 15.712 13.594 18-7.8234 2.2879-13.594 9.4464-13.594 18 0 10.398 8.4771 18.875 18.875 18.875 8.5536 0 15.712-5.7703 18-13.594 2.2879 7.8234 9.4464 13.594 18 13.594 10.398 0 18.875-8.4771 18.875-18.875 0-8.5536-5.7703-15.712-13.594-18 7.8234-2.2879 13.594-9.4464 13.594-18 0-10.398-8.4771-18.875-18.875-18.875-8.5536 0-15.712 5.7703-18 13.594-2.2879-7.8234-9.4464-13.594-18-13.594zm18 24.125c1.7925 6.1482 6.6018 10.957 12.75 12.75-6.1482 1.7925-10.957 6.6018-12.75 12.75-1.7925-6.1482-6.6018-10.957-12.75-12.75 6.1482-1.7925 10.957-6.6018 12.75-12.75z" color="#000000" opacity=".05"/>
<path d="m30 12.906c-9.9805 0-18.094 8.1133-18.094 18.094 0 9.6393 7.584 17.47 17.094 18-9.5097 0.52954-17.094 8.3607-17.094 18 0 9.9805 8.1133 18.094 18.094 18.094 9.6393 0 17.47-7.584 18-17.094 0.52954 9.5097 8.3607 17.094 18 17.094 9.9805 0 18.094-8.1133 18.094-18.094 0-9.6393-7.584-17.47-17.094-18 9.5097-0.52954 17.094-8.3607 17.094-18 0-9.9805-8.1133-18.094-18.094-18.094-9.6393 0-17.47 7.584-18 17.094-0.52954-9.5097-8.3607-17.094-18-17.094zm18 19.094c0.51079 9.1731 7.8269 16.489 17 17-9.1731 0.51079-16.489 7.8269-17 17-0.51079-9.1731-7.8269-16.489-17-17 9.1731-0.51079 16.489-7.8269 17-17z" color="#000000" opacity=".1"/>
<path d="m30 14c-9.3814 0-17 7.6186-17 17s7.6186 17 17 17 17-7.6186 17-17-7.6186-17-17-17zm36 0c-9.3814 0-17 7.6186-17 17s7.6186 17 17 17 17-7.6186 17-17-7.6186-17-17-17zm-36 36c-9.3814 0-17 7.6186-17 17s7.6186 17 17 17 17-7.6186 17-17-7.6186-17-17-17zm36 0c-9.3814 0-17 7.6186-17 17s7.6186 17 17 17 17-7.6186 17-17-7.6186-17-17-17z" color="#000000" opacity=".15"/>
<path d="m30 15c-8.8366 0-16 7.1634-16 16s7.1634 16 16 16 16-7.1634 16-16-7.1634-16-16-16zm36 0c-8.8366 0-16 7.1634-16 16s7.1634 16 16 16 16-7.1634 16-16-7.1634-16-16-16zm-36 36c-8.8366 0-16 7.1634-16 16s7.1634 16 16 16 16-7.1634 16-16-7.1634-16-16-16zm36 0c-8.8366 0-16 7.1634-16 16s7.1634 16 16 16 16-7.1634 16-16-7.1634-16-16-16z" color="#000000" opacity=".3"/>
<path transform="matrix(1,0,0,-1,-2,62)" d="m48 32a16 16 0 1 1-32 0 16 16 0 1 1 32 0z" color="#000000" fill="url(#radialGradient3679-0)"/>
<path d="m30 15c-8.2843 0-15 6.7157-15 15 0 3.6087 1.283 6.912 3.4062 9.5-1.5249-2.2956-2.4062-5.0375-2.4062-8 0-8.0081 6.4919-14.5 14.5-14.5 7.7526 0 14.073 6.096 14.469 13.75 0.01244-0.25052 0.03125-0.49639 0.03125-0.75 0-8.2843-6.7157-15-15-15z" color="#000000" fill="url(#linearGradient3791-3)" opacity=".4"/>
<path d="m30 14c-8.8366 0-16 7.1634-16 16s7.1634 16 16 16 16-7.1634 16-16-7.1634-16-16-16zm0 0.96875c8.3201 0 15.031 6.7111 15.031 15.031s-6.7111 15.031-15.031 15.031-15.031-6.7111-15.031-15.031 6.7111-15.031 15.031-15.031z" color="#000000" opacity=".2"/>
<path transform="translate(34,-2)" d="m48 32a16 16 0 1 1-32 0 16 16 0 1 1 32 0z" color="#000000" fill="url(#radialGradient3972-5)"/>
<path d="m66 15c-8.2843 0-15 6.7157-15 15 0 3.6087 1.283 6.912 3.4062 9.5-1.5249-2.2956-2.4062-5.0375-2.4062-8 0-8.0081 6.4919-14.5 14.5-14.5 7.7526 0 14.073 6.096 14.469 13.75 0.01244-0.25052 0.03125-0.49639 0.03125-0.75 0-8.2843-6.7157-15-15-15z" color="#000000" fill="url(#linearGradient3974-7)" opacity=".3"/>
<path d="m66 14c-8.8366 0-16 7.1634-16 16s7.1634 16 16 16 16-7.1634 16-16-7.1634-16-16-16zm0 0.96875c8.3201 0 15.031 6.7111 15.031 15.031s-6.7111 15.031-15.031 15.031-15.031-6.7111-15.031-15.031 6.7111-15.031 15.031-15.031z" color="#000000" opacity=".2"/>
<g transform="translate(0,36)">
<path transform="translate(34,-2)" d="m48 32a16 16 0 1 1-32 0 16 16 0 1 1 32 0z" color="#000000" fill="url(#radialGradient3972-5)"/>
<path d="m66 15c-8.2843 0-15 6.7157-15 15 0 3.6087 1.283 6.912 3.4062 9.5-1.5249-2.2956-2.4062-5.0375-2.4062-8 0-8.0081 6.4919-14.5 14.5-14.5 7.7526 0 14.073 6.096 14.469 13.75 0.01244-0.25052 0.03125-0.49639 0.03125-0.75 0-8.2843-6.7157-15-15-15z" color="#000000" fill="url(#linearGradient3974-7)" opacity=".3"/>
<path d="m66 14c-8.8366 0-16 7.1634-16 16s7.1634 16 16 16 16-7.1634 16-16-7.1634-16-16-16zm0 0.96875c8.3201 0 15.031 6.7111 15.031 15.031s-6.7111 15.031-15.031 15.031-15.031-6.7111-15.031-15.031 6.7111-15.031 15.031-15.031z" color="#000000" opacity=".2"/>
</g>
<g transform="translate(-36,36)">
<path transform="translate(34,-2)" d="m48 32a16 16 0 1 1-32 0 16 16 0 1 1 32 0z" color="#000000" fill="url(#radialGradient3972-5)"/>
<path d="m66 15c-8.2843 0-15 6.7157-15 15 0 3.6087 1.283 6.912 3.4062 9.5-1.5249-2.2956-2.4062-5.0375-2.4062-8 0-8.0081 6.4919-14.5 14.5-14.5 7.7526 0 14.073 6.096 14.469 13.75 0.01244-0.25052 0.03125-0.49639 0.03125-0.75 0-8.2843-6.7157-15-15-15z" color="#000000" fill="url(#linearGradient3974-7)" opacity=".3"/>
<path d="m66 14c-8.8366 0-16 7.1634-16 16s7.1634 16 16 16 16-7.1634 16-16-7.1634-16-16-16zm0 0.96875c8.3201 0 15.031 6.7111 15.031 15.031s-6.7111 15.031-15.031 15.031-15.031-6.7111-15.031-15.031 6.7111-15.031 15.031-15.031z" color="#000000" opacity=".2"/>
</g>
</g>
<g transform="matrix(1.1071 0 0 1.1071 -107.81 -18.148)">
<path d="m112 4.5c-3.324 0-6 2.676-6 6v15h1v-15c0-2.7873 2.2127-5 5-5h72c2.7873 0 5 2.2127 5 5v15h1v-15c0-3.324-2.676-6-6-6h-72z" fill="url(#radialGradient3827)" opacity=".45"/>
</g>
<path d="m9.544 67.178v6c0 3.6801 2.9761 6.6562 6.6562 6.6562h79.688c3.6801 0 6.6563-2.9761 6.6563-6.6562v-6c0 3.6801-2.9761 6.6562-6.6563 6.6562h-79.688c-3.6801 0-6.6562-2.9761-6.6562-6.6562z" fill="url(#linearGradient3829)" opacity=".89091"/>
<rect x="13.419" y="65.584" width="84.25" height="4.25" rx="0" ry="4.25" fill="url(#radialGradient3831)" opacity=".55"/>
<rect transform="rotate(90)" x="-9.9156" y="-98.669" width="76.75" height="4.25" rx="0" ry="4.25" fill="url(#radialGradient3833)" opacity=".55"/>
<g transform="translate(251.29 -104.9)">
<g display="none">
<rect x="5" y="7" width="86" height="85" rx="6" ry="6" fill="url(#ButtonShadow)" filter="url(#filter3174-3)" opacity=".9"/>
</g>
</g>
<rect transform="matrix(.9093 0 0 .92838 12.389 19.829)" x="2" y="-30" width="92" height="92" rx="3.957" ry="3.957" clip-path="url(#clipPath4156-4)" fill="url(#linearGradient3837)" opacity=".833"/>
<path d="m17.869-9.9361c-3.1166 0-5.668 2.5395-5.668 5.646v69.278c0 3.1065 2.5513 5.646 5.668 5.646h76.792c3.1166 0 5.668-2.5395 5.668-5.646v-69.278c0-3.1065-2.5513-5.646-5.668-5.646h-76.792zm0 2.3194h76.792c1.8881 0 3.352 1.4801 3.352 3.3266v69.278c0 1.8465-1.4639 3.3266-3.352 3.3266h-76.792c-1.8881 0-3.352-1.4801-3.352-3.3266v-69.278c0-1.8465 1.4639-3.3266 3.352-3.3266z" color="#000000" fill="#1f2124" fill-opacity=".63265" style="block-progression:tb;text-indent:0;text-transform:none"/>
</g>
</g>
<g display="none">
<rect x="5" y="7" width="86" height="85" rx="6" ry="6" fill="url(#ButtonShadow)" filter="url(#filter3174-36)" opacity=".9"/>
</g>
<g display="none">
<rect x="5" y="7" width="86" height="85" rx="6" ry="6" fill="url(#ButtonShadow)" filter="url(#filter3174-39)" opacity=".9"/>
</g>
<g display="none">
<rect x="5" y="7" width="86" height="85" rx="6" ry="6" fill="url(#ButtonShadow)" filter="url(#filter3174)" opacity=".9"/>
</g>
</svg>
