<?xml version="1.0" encoding="UTF-8"?>
<!-- Created with Inkscape (http://www.inkscape.org/) -->
<svg version="1.1" viewBox="0 0 96 96" xmlns="http://www.w3.org/2000/svg" xmlns:cc="http://creativecommons.org/ns#" xmlns:dc="http://purl.org/dc/elements/1.1/" xmlns:rdf="http://www.w3.org/1999/02/22-rdf-syntax-ns#" xmlns:xlink="http://www.w3.org/1999/xlink">
<script xlink:href=""/>
<defs>
<radialGradient id="radialGradient4102" cx="48" cy="-27" r="42" gradientTransform="matrix(-1.2173 0 0 -.99198 -163.89 .99867)" gradientUnits="userSpaceOnUse">
<stop stop-color="#fff" offset="0"/>
<stop stop-color="#fff" offset=".8"/>
<stop stop-color="#fff" stop-opacity="0" offset="1"/>
</radialGradient>
<linearGradient id="linearGradient12946">
<stop stop-color="#fff" offset="0"/>
<stop stop-color="#fff" stop-opacity="0" offset="1"/>
</linearGradient>
<linearGradient id="linearGradient4071" x1="6" x2="90" y1="47" y2="47" gradientTransform="matrix(1.1354 0 0 1.1337 -40.037 -46.788)" gradientUnits="userSpaceOnUse">
<stop stop-color="#b2babc" offset="0"/>
<stop stop-color="#fff" offset=".25"/>
<stop stop-color="#96a1a4" offset=".5"/>
<stop stop-color="#fbf9f9" offset=".75"/>
<stop stop-color="#b2b9bc" offset="1"/>
</linearGradient>
<linearGradient id="linearGradient4129" x1="1.5" x2="94.5" y1="88.172" y2="88.172" gradientTransform="matrix(1.0255 0 0 1.024 -34.763 -42.655)" gradientUnits="userSpaceOnUse">
<stop offset="0"/>
<stop stop-opacity=".58824" offset=".1"/>
<stop stop-opacity=".58824" offset=".9"/>
<stop offset="1"/>
</linearGradient>
<radialGradient id="radialGradient7462" cx="13.948" cy="44.893" r="43.199" gradientTransform="matrix(1 0 0 .050369 -3.7362e-6 39.432)" gradientUnits="userSpaceOnUse" xlink:href="#linearGradient12946"/>
<radialGradient id="radialGradient7464" cx="13.948" cy="44.893" r="43.199" gradientTransform="matrix(.90961 0 0 .050445 -10.355 -57.704)" gradientUnits="userSpaceOnUse" xlink:href="#linearGradient12946"/>
<linearGradient id="linearGradient4767" x1="2.7714" x2="50.528" y1="-28.642" y2="14.514" gradientUnits="userSpaceOnUse" xlink:href="#linearGradient12946"/>
<clipPath id="clipPath4156-4-1">
<path d="m27.046-55.695-14.214 13.321h0.06127l15.653 21.771 10.231-10.546c-0.2169-1.1522-11.311-23.67-11.732-24.546zm-17.399 16.313-14.888 14.062 21.229 17.515 10.385-10.577zm31.491 12.951-9.7413 9.7136 8.9448 12.458 7.7808-7.555zm-49.84 4.3788-13.754 12.982 26.283 13.846 0.06127-0.0617-0.12253-0.0617 9.8332-10.053-22.301-16.652zm38.015 7.4008-9.8025 9.7753 11.579 9.5594 7.6276-7.4008-8.6691-11.009zm20.187 5.674-7.3825 7.2158 6.1878 8.5418 5.8202-6.1365zm-32.195 6.3215-9.5575 9.4977 13.662 7.185 7.9339-7.6784zm23.312 2.3744-7.1068 6.9383 8.3628 6.9074 5.3608-5.674-0.06127-0.0925-0.0919 0.12335-6.4635-8.2026zm-8.7304 8.5418-7.5051 7.3392 10.354 5.4581c1.3975-1.321 5.6751-6.1229 5.8509-6.3215z" fill="#fff" opacity=".6"/>
</clipPath>
</defs>
<metadata>
<rdf:RDF>
<cc:Work rdf:about="">
<dc:format>image/svg+xml</dc:format>
<dc:type rdf:resource="http://purl.org/dc/dcmitype/StillImage"/>
<dc:title/>
</cc:Work>
</rdf:RDF>
</metadata>
<g transform="translate(0,32)">
<g transform="matrix(.97513 0 0 .97661 33.899 9.6574)">
<path d="m-263.2 27.782c-3.774 0-6.8122 3.0337-6.8122 6.802v17.005h1.1354v-17.005c0-3.1599 2.5122-5.6683 5.6769-5.6683h81.747c3.1646 0 5.6769 2.5085 5.6769 5.6683v17.005h1.1354v-17.005c0-3.7683-3.0383-6.802-6.8122-6.802z" fill="url(#radialGradient4102)" opacity=".45"/>
<path d="m56.653-42.655h-84.384c-3.8957 0-7.032 3.1315-7.032 7.0214v84.257c0 3.8899 3.1363 7.0214 7.032 7.0214h84.384c3.8957 0 7.032-3.1315 7.032-7.0214v-84.257c0-3.8899-3.1363-7.0214-7.032-7.0214z" opacity=".15"/>
<path d="m55.994-41.887h-83.066c-3.8349 0-6.9221 3.0826-6.9221 6.9117v82.94c0 3.8291 3.0873 6.9117 6.9221 6.9117h83.066c3.8349 0 6.9221-3.0826 6.9221-6.9117v-82.94c0-3.8291-3.0873-6.9117-6.9221-6.9117z" opacity=".15"/>
<path d="m55.334-41.119h-81.747c-3.774 0-6.8123 3.0337-6.8123 6.802v81.624c0 3.7683 3.0383 6.802 6.8123 6.802h81.747c3.774 0 6.8122-3.0337 6.8122-6.802v-81.624c0-3.7683-3.0383-6.802-6.8122-6.802z" fill="url(#linearGradient4071)"/>
<path d="m-23.235-36.115c-2.9293 0-5.2548 2.3432-5.2548 5.2949v70.223c1.1252 1.7248 3.0446 2.8791 5.2548 2.8791h75.669c2.2102 0 4.1296-1.1543 5.2548-2.8791v-70.223c0-2.9517-2.3255-5.2949-5.2548-5.2949z" fill="#e8e8e8" opacity=".9"/>
<path d="m-24.688-37.812c-3.1961 0-5.8125 2.6003-5.8125 5.7813v70.938c0 3.1809 2.6164 5.7812 5.8125 5.7812h78.75c3.1961 0 5.8125-2.6003 5.8125-5.7812v-70.938c0-3.1809-2.6164-5.7813-5.8125-5.7813zm0 2.375h78.75c1.9362 0 3.4375 1.5156 3.4375 3.4063v70.938c0 1.8907-1.5013 3.4062-3.4375 3.4062h-78.75c-1.9362 0-3.4375-1.5155-3.4375-3.4062v-70.938c0-1.8907 1.5013-3.4063 3.4375-3.4063z" color="#000000" fill="#1f2224" fill-opacity=".63265" style="text-decoration-line:none;text-indent:0;text-transform:none"/>
<path d="m-33.225 41.149v6.1437c0 3.7683 3.052 6.8157 6.826 6.8157h81.72c3.774 0 6.826-3.0474 6.826-6.8157v-6.1437c0 3.7683-3.052 6.8157-6.826 6.8157h-81.72c-3.774 0-6.826-3.0474-6.826-6.8157z" fill="url(#linearGradient4129)" opacity=".65818"/>
<rect x="-29.251" y="39.517" width="86.398" height="4.3518" rx="4.3584" ry="4.3518" fill="url(#radialGradient7462)" opacity=".55"/>
<rect transform="rotate(90)" x="-36.962" y="-57.619" width="78.588" height="4.3584" rx="4.3518" ry="4.3584" fill="url(#radialGradient7464)" opacity=".669"/>
<g transform="translate(-4.7357 2.6779)">
<path d="m11.598-34.365c-5.5079 1.7729-14.127 2.7632-15.63 9.1923-0.93197 7.166-11.405 4.2433-12.239 12.113-2.9302 4.727-3.8519 10.611 0.23785 14.808-1.4369 4.8189-4.949 9.7945-1.0717 14.92 1.5776 5.4055 5.5458 8.8861 11.058 9.7056 2.2147 4.8159 3.9838 10.285 10.334 11.006 5.1434 4.1015 10.358 0.66325 15.268-0.6817 4.9685 3.6653 10.993 3.0769 16.142-0.01365 5.4772-0.61959 6.4593-6.2404 8.4091-10.179 5.3936-1.0183 10.047-4.3021 11.243-10.016 3.47-4.5254 1.3708-9.4897-1.0286-13.752 1.8931-4.2897 4.6383-8.6897 1.3709-13.286-1.6455-4.3894-3.7794-9.6632-9.3193-9.8078-5.4506-1.3606-3.3212-10.087-9.9675-10.864-4.4804-1.5424-10.242-5.1328-14.259-0.94262-4.1221 2.7749-6.8445-1.9348-10.547-2.2012zm0.42969 3.0547c3.8997 3.8263 9.3071 3.5501 13.584 0.71943 4.6754-0.73805 9.4149 1.7353 13.035 4.4617 0.84059 4.895 4.1855 9.3297 9.6911 9.6156 3.1701 2.7369 5.8043 8.3786 5.6117 12.588-2.6374 3.5914-3.9382 8.2537-0.54971 11.854 1.7448 4.7732-1.4096 10.228-4.7728 13.577-4.8354 1.3637-9.715 4.0121-9.695 9.7584-4.6497 2.9546-11.406 7.4674-16.522 3.0301-3.6603-2.28-8.053 0.85047-10.312 1.8883-4.3641-0.12405-9.4392-2.0805-12.711-5.1094-0.45687-5.8677-5.3916-8.6117-10.387-9.8478-2.1995-3.9321-6.4555-8.9339-3.8206-13.542 4.1046-4.4306 0.03141-9.0774-1.1207-13.535 1.9645-3.7899 2.5279-9.9442 7.356-11.243 6.1899 0.56147 6.4467-6.8114 9.4132-9.9552 3.4197-2.0655 7.3007-3.4204 11.201-4.2607zm7.0723 27.559c-5.8905-0.46747-9.0704 8.1872-3.9566 11.457 4.5377 3.8289 12.477-0.86235 10.263-6.7462-0.77039-2.7152-3.3644-5.0282-6.3063-4.7105zm0.16406 3.0566c6.9947 0.39488 0.99039 11.169-3.0832 4.9998-1.7437-2.277 0.55804-5.1624 3.0832-4.9998z" color="#000000" color-rendering="auto" dominant-baseline="auto" fill-opacity=".20089" image-rendering="auto" shape-rendering="auto" solid-color="#000000" style="font-feature-settings:normal;font-variant-alternates:normal;font-variant-caps:normal;font-variant-ligatures:normal;font-variant-numeric:normal;font-variant-position:normal;isolation:auto;mix-blend-mode:normal;shape-padding:0;text-decoration-color:#000000;text-decoration-line:none;text-decoration-style:solid;text-indent:0;text-orientation:mixed;text-transform:none;white-space:normal"/>
<path d="m11.802-32.841c-4.8912 1.0105-9.6477 2.8408-13.729 5.6561-0.94004 3.2493-1.32 7.7823-5.7258 8.5297-4.6522-0.40676-6.2106 4.0574-7.8184 7.4413-1.0585 3.3926-3.9506 7.3402-0.29007 10.024 2.3196 2.8023 1.2471 6.9981-1.4066 9.2247-1.1264 4.1091 1.8273 8.3131 3.4868 12.025 1.1175 5.0244 7.3669 2.4386 9.7033 6.2471 1.7709 3.1372 1.0547 7.4332 5.7452 8.3305 3.7475 1.3865 8.2738 4.6066 12.222 2.6804 2.7192-3.2731 8.1221-2.7274 10.756 0.33906 3.0254 1.0733 6.194-0.87854 9.0829-1.757 2.5691-1.4521 6.7392-2.1999 7.1294-5.5285-0.36419-3.9673 3.5889-6.8999 7.443-6.8087 4.0333-1.5031 4.9187-6.862 6.6664-10.388 2.9135-4.1987-2.3074-6.5888-2.2813-10.529-0.36664-3.6611 4.8657-5.6603 2.5857-9.3878-1.1359-3.9183-2.8804-7.7333-5.3757-11.025-3.5964-0.67829-8.2947-1.5428-8.9045-5.887 0.44927-4.5944-4.931-5.7561-8.3368-7.397-3.2194-1.2178-5.4146-1.666-7.4549-1.5921-2.5785 2.5932-6.8706 4.0084-10.139 1.5986-1.1222-0.66036-1.8424-1.9989-3.3582-1.7958z" color="#000000" fill="#7a9ecc"/>
<path d="m35.647-23.457c-7.3292 0-10.565 7.0652-9.9225 11.481 0.0292 0.20073 0.06687 0.3955 0.11207 0.58437 0.4068 1.6998 1.4601 2.8828 3.1468 2.8828 5.9963 0 17.325-14.948 6.6637-14.948zm-16.471 1.8312c-0.16928-5.73e-4 -0.34789 0.0098-0.53544 0.03375-5.9994 0.76663-3.89 11.039-0.69554 11.231 3.0934 0.18598 6.4787-11.247 1.231-11.265zm-10.209 4.0675c-0.36663-0.02357-0.77544 0.04728-1.2274 0.2309-4.822 1.959-0.73034 10.046 1.971 9.5026 2.4501-0.49178 2.8004-9.5057-0.74356-9.7335zm-7.8697 6.3357c-0.41925-0.01389-0.87277 0.12298-1.3555 0.45115-3.86 2.6258 1.2974 8.9695 3.5684 7.9857 1.9872-0.86118 0.72183-8.3397-2.2129-8.4369zm22.042 4.8543c-8.2754-0.13783-19.191 3.9481-21.053 12.156-2.0163 8.8826 8.3004 21.206 19.064 21.206 5.2952 0 11.402-4.7063 12.545-10.67 0.87271-4.5473-10.268-2.7265-9.8674 0.28242 0.47969 3.6066-2.6885 5.389-5.7902 3.0639-9.8741-7.4014 16.349-11.094 14.621-21.206-0.53803-3.1475-4.5535-4.7503-9.5187-4.833z" fill="#333"/>
</g>
<rect transform="matrix(1.0965 0 0 1.0728 -30.358 -3.2545)" x="2" y="-30" width="75.966" height="69.024" rx="3.957" ry="3.957" clip-path="url(#clipPath4156-4-1)" fill="url(#linearGradient4767)" opacity=".519"/>
</g>
</g>
</svg>
