<?xml version="1.0" encoding="UTF-8"?>
<!-- Created with Inkscape (http://www.inkscape.org/) -->
<svg version="1.1" viewBox="0 0 96 96" xmlns="http://www.w3.org/2000/svg" xmlns:cc="http://creativecommons.org/ns#" xmlns:dc="http://purl.org/dc/elements/1.1/" xmlns:rdf="http://www.w3.org/1999/02/22-rdf-syntax-ns#" xmlns:xlink="http://www.w3.org/1999/xlink">
<defs>
<linearGradient id="linearGradient4071" x1="6" x2="90" y1="47" y2="47" gradientTransform="matrix(1.1071 0 0 1.1071 -4.9939 -3.6207)" gradientUnits="userSpaceOnUse">
<stop stop-color="#b0bbbe" offset="0"/>
<stop stop-color="#fff" offset=".25"/>
<stop stop-color="#94a2a6" offset=".5"/>
<stop stop-color="#fbf9f9" offset=".75"/>
<stop stop-color="#b1babd" offset="1"/>
</linearGradient>
<linearGradient id="linearGradient4129" x1="1.5" x2="94.5" y1="88.172" y2="88.172" gradientTransform="translate(.14895 .41503)" gradientUnits="userSpaceOnUse">
<stop offset="0"/>
<stop stop-opacity=".58824" offset=".1"/>
<stop stop-opacity=".58824" offset=".9"/>
<stop offset="1"/>
</linearGradient>
<radialGradient id="radialGradient7462" cx="13.948" cy="44.893" r="43.199" gradientTransform="matrix(.97513 0 0 .049191 34.048 80.582)" gradientUnits="userSpaceOnUse" xlink:href="#linearGradient3737"/>
<linearGradient id="linearGradient3737">
<stop stop-color="#fff" offset="0"/>
<stop stop-color="#fff" stop-opacity="0" offset="1"/>
</linearGradient>
<radialGradient id="radialGradient7464" cx="13.948" cy="44.893" r="43.199" gradientTransform="matrix(.88833 0 0 .049191 31.96 -90.317)" gradientUnits="userSpaceOnUse" xlink:href="#linearGradient3737"/>
<linearGradient id="linearGradient4767" x1="2.7714" x2="50.528" y1="-28.642" y2="14.514" gradientUnits="userSpaceOnUse" xlink:href="#linearGradient3737"/>
<clipPath id="clipPath4156-4-1">
<path d="m27.046-55.695-14.214 13.321h0.06127l15.653 21.771 10.231-10.546c-0.2169-1.1522-11.311-23.67-11.732-24.546zm-17.399 16.313-14.888 14.062 21.229 17.515 10.385-10.577zm31.491 12.951-9.7413 9.7136 8.9448 12.458 7.7808-7.555zm-49.84 4.3788-13.754 12.982 26.283 13.846 0.06127-0.0617-0.12253-0.0617 9.8332-10.053-22.301-16.652zm38.015 7.4008-9.8025 9.7753 11.579 9.5594 7.6276-7.4008-8.6691-11.009zm20.187 5.674-7.3825 7.2158 6.1878 8.5418 5.8202-6.1365zm-32.195 6.3215-9.5575 9.4977 13.662 7.185 7.9339-7.6784zm23.312 2.3744-7.1068 6.9383 8.3628 6.9074 5.3608-5.674-0.06127-0.0925-0.0919 0.12335-6.4635-8.2026zm-8.7304 8.5418-7.5051 7.3392 10.354 5.4581c1.3975-1.321 5.6751-6.1229 5.8509-6.3215z" fill="#fff" opacity=".6"/>
</clipPath>
<linearGradient id="linearGradient3146" x1="48" x2="48" y1="6" y2="109.11" gradientTransform="translate(-165.49 109.37)" gradientUnits="userSpaceOnUse" xlink:href="#linearGradient3737"/>
<filter id="filter4929" color-interpolation-filters="sRGB">
<feGaussianBlur stdDeviation="0.42000919"/>
</filter>
<linearGradient id="linearGradient4053" x1="37.875" x2="37.875" y1="-62" y2="8.875" gradientTransform="matrix(.88889 0 0 .88889 5.3211 38.138)" gradientUnits="userSpaceOnUse">
<stop stop-color="#d5b742" offset="0"/>
<stop stop-color="#f5e6aa" offset=".34921"/>
<stop stop-color="#e0bf55" offset=".57143"/>
<stop stop-color="#8a6e24" offset="1"/>
</linearGradient>
</defs>
<metadata>
<rdf:RDF>
<cc:Work rdf:about="">
<dc:format>image/svg+xml</dc:format>
<dc:type rdf:resource="http://purl.org/dc/dcmitype/StillImage"/>
<dc:title/>
<dc:date>2017</dc:date>
<dc:creator>
<cc:Agent>
<dc:title>Cristian Pozzessere "ilnanny"</dc:title>
</cc:Agent>
</dc:creator>
<dc:subject>
<rdf:Bag>
<rdf:li>Global language</rdf:li>
</rdf:Bag>
</dc:subject>
<dc:description>Playing with Inkscape on Gnu/Linux O. S.</dc:description>
<dc:contributor>
<cc:Agent>
<dc:title>In the night, alone like a dog.</dc:title>
</cc:Agent>
</dc:contributor>
<cc:license rdf:resource="http://creativecommons.org/licenses/by-sa/4.0/"/>
</cc:Work>
<cc:License rdf:about="http://creativecommons.org/licenses/by-sa/4.0/">
<cc:permits rdf:resource="http://creativecommons.org/ns#Reproduction"/>
<cc:permits rdf:resource="http://creativecommons.org/ns#Distribution"/>
<cc:requires rdf:resource="http://creativecommons.org/ns#Notice"/>
<cc:requires rdf:resource="http://creativecommons.org/ns#Attribution"/>
<cc:permits rdf:resource="http://creativecommons.org/ns#DerivativeWorks"/>
<cc:requires rdf:resource="http://creativecommons.org/ns#ShareAlike"/>
</cc:License>
</rdf:RDF>
</metadata>
<g transform="translate(0 -1026.5)">
<g transform="translate(-.14896 1026.1)">
<path d="m89.292 0.41503h-82.286c-3.7988 0-6.8571 3.0583-6.8571 6.8571v82.286c0 3.7989 3.0583 6.8571 6.8571 6.8571h82.286c3.7989 0 6.8571-3.0583 6.8571-6.8571v-82.286c0-3.7989-3.0583-6.8571-6.8571-6.8571z" opacity=".15"/>
<path d="m88.649 1.165h-81c-3.7395 0-6.75 3.0105-6.75 6.75v81c0 3.7395 3.0105 6.75 6.75 6.75h81c3.7395 0 6.75-3.0105 6.75-6.75v-81c0-3.7395-3.0105-6.75-6.75-6.75z" opacity=".15"/>
<path d="m88.006 1.915h-79.714c-3.6801 0-6.6429 2.9627-6.6429 6.6429v79.714c0 3.6801 2.9627 6.6429 6.6429 6.6429h79.714c3.6801 0 6.6429-2.9627 6.6429-6.6429v-79.714c0-3.6801-2.9627-6.6429-6.6429-6.6429z" fill="url(#linearGradient4071)"/>
<path d="m11.39 6.8022c-2.8565 0-5.1241 2.2884-5.1241 5.171v68.58c1.0972 1.6845 2.9688 2.8117 5.1241 2.8117h73.787c2.1553 0 4.0269-1.1272 5.1241-2.8117v-68.58c0-2.8826-2.2676-5.171-5.1241-5.171z" fill="#6ac21b" opacity=".77865"/>
<path d="m9.974 5.1445c-3.1166 0-5.668 2.5395-5.668 5.646v69.278c0 3.1065 2.5513 5.646 5.668 5.646h76.792c3.1166 0 5.668-2.5395 5.668-5.646v-69.278c0-3.1065-2.5513-5.646-5.668-5.646zm0 2.3194h76.792c1.8881 0 3.352 1.4801 3.352 3.3266v69.278c0 1.8465-1.4639 3.3266-3.352 3.3266h-76.792c-1.8881 0-3.352-1.4801-3.352-3.3266v-69.278c0-1.8465 1.4639-3.3266 3.352-3.3266z" color="#000000" fill="#212122" fill-opacity=".80804" style="text-decoration-line:none;text-indent:0;text-transform:none"/>
<path d="m1.649 82.259v6c0 3.6801 2.9761 6.6562 6.6562 6.6562h79.687c3.6801 0 6.6563-2.9761 6.6563-6.6562v-6c0 3.6801-2.9761 6.6562-6.6563 6.6562h-79.687c-3.6801 0-6.6562-2.9761-6.6562-6.6562z" fill="url(#linearGradient4129)" opacity=".65818"/>
<rect x="5.524" y="80.665" width="84.25" height="4.25" rx="0" ry="4.25" fill="url(#radialGradient7462)" opacity=".55"/>
<rect transform="rotate(90)" x="5.975" y="-90.234" width="76.75" height="4.25" rx="0" ry="4.25" fill="url(#radialGradient7464)" opacity=".669"/>
<g transform="translate(.14895 32.415)">
<path transform="matrix(1.003 0 0 .91259 166.06 -130.59)" d="m-144.61 115.37 25.781 40.656-40.656-26.156v18.5l40.219 9-40.219 8.75v18.375l40.656-25.781-26.156 40.656h18.5l9-40.219 8.75 40.219h18.375l-25.781-40.656 40.656 26.156v-18.5l-40.219-9 40.219-8.75v-18.375l-40.656 25.781 26.156-40.656h-18.5l-9 40.219-8.75-40.219z" fill="url(#linearGradient3146)" filter="url(#filter4929)" opacity=".517"/>
<path d="m43.988-19.004c-2.4382 0.20266-2.9298 2.882-2.7188 4.8396v2.9729c-6.406 1.364-11.981 6.4784-13.193 13.012-1.5345 6.5695 1.0304 14.194 6.9121 17.741 1.6262 1.3487 5.901 2.7144 6.2817 3.241-3.8948 1.27e-4 -7.7987-0.18776-11.688 6e-3 -3.1163 0.81834-2.3123 4.496-1.9114 6.8437 0.99551 5.4141 4.7404 10.475 9.8802 12.438 1.5934 1.2109 4.9654 0.16386 3.7057 3.295-0.10007 1.996-0.26506 4.8159 2.1503 5.522 2.6796 0.31184 5.4305 0.12267 8.1391 0.12797 2.4634 0.17592 3.6399-2.6154 3.1612-4.7085v-3.299c6.1241-1.4269 11.714-5.9491 13.291-12.19 1.8621-6.1091 0.15777-13.656-5.0095-17.528-1.5261-1.7341-6.2835-3.4416-6.4676-4.0309 3.117-0.19079 6.3784 0.40027 9.4172-0.29067 2.8421-1.6439 1.4371-5.3756 1.1179-7.9552-1.155-5.2797-5.1159-9.9348-10.313-11.524-3.2887-0.0052-1.5587-3.7215-2.0905-5.8129-0.15223-2.3683-2.8809-3.037-4.8406-2.6986h-5.8234zm3.1562 22.594c2.5773-1.1949 4.2574 4.8429 1.0426 2.4491-1.3233-0.52985-4.2681-1.518-1.0426-2.4491zm-2.7812 20.281c2.0293 0.86922 4.4397 1.3093 6.0625 2.8438-1.0363 1.8663-4.768 1.6593-5.1419-0.68112-0.24222-0.77582-0.08221-1.69-0.9206-2.1626z" opacity=".05"/>
<path d="m44.082-17.973c-1.4557 0.11775-2.0096 1.7137-1.7812 2.9742v4.5883c-5.4643 1.0022-10.545 4.6308-12.472 9.9631-2.4944 6.357-0.88 14.451 4.8537 18.528 4.6171 3.3922 10.452 4.355 15.422 7.0477 3.4979 1.7351-0.61733 4.6529-2.9885 3.7545-2.1495-0.06756-2.8971-2.1041-3.0966-3.887-0.67012-1.6037-2.6442-1.1313-4.0126-1.199-3.3984 0.02696-6.8247-0.12456-10.206 0.01155-1.4393 0.3324-1.7483 2.0551-1.4245 3.3062 0.36344 5.9309 3.8241 11.901 9.5547 14.053 1.2203 1.1059 4.5313 0.29051 4.3698 2.2404 0.09966 1.7691-0.19764 3.5972 0.14345 5.3312 0.52792 1.4993 2.3113 1.3408 3.5853 1.2884 2.0648-0.06559 4.1654 0.12936 6.2088-0.09375 1.3894-0.35967 1.5903-1.9618 1.4375-3.1635v-4.4928c5.4482-1.1412 10.643-4.5791 12.701-9.9224 2.5904-6.1288 1.3695-14.01-4.0065-18.271-4.7578-3.9899-11.103-5.0235-16.442-7.9376-3.3985-1.5051 0.60783-4.5999 2.8365-3.4984 1.9051 0.47445 2.2218 2.5246 2.3167 4.1603 0.35967 1.3894 1.9618 1.5903 3.1635 1.4375 3.58-0.021133 7.167 0.042069 10.743-0.031251 1.46-0.27621 1.9079-1.9762 1.5807-3.2511-0.18104-5.4592-2.8872-11.153-8.0173-13.546-1.3387-1.1938-4.3971-0.84549-4.8759-2.3938-0.06631-1.848 0.13044-3.7323-0.09375-5.5589-0.35967-1.3894-1.9618-1.5903-3.1635-1.4375h-6.3365z" opacity=".08"/>
<path d="m44.207-16.973a0.99382 0.99382 0 0 0-0.90625 1v6.2812c-3.7511 0.66306-6.9832 2.1784-9.4375 4.7188-2.7528 2.8928-4.1563 6.5493-4.1562 10.75-4e-6 5.13 2.1641 9.2761 6.3438 12.062 1.6939 1.1807 5.2961 2.6895 11.188 4.8438 1.9046 0.69838 3.3062 1.4327 4.1562 2.1562s1.125 1.3479 1.125 1.9688c-2e-5 1.0031-0.37116 1.6405-1.375 2.25a0.99382 0.99382 0 0 0-0.03125 0.03125c-0.87257 0.58171-1.8794 0.84376-3.125 0.84375-1.4348 7e-6 -2.526-0.3593-3.4375-1.125-0.88711-0.74516-1.3063-1.6829-1.3438-3.0312a0.99382 0.99382 0 0 0-1-0.96875l-11.906-0.0625a0.99382 0.99382 0 0 0-1 1.0312c0.13688 4.5173 1.5263 8.3228 4.1562 11.188 2.4393 2.6136 5.8125 4.124 9.8438 4.7812v6.2812a0.99382 0.99382 0 0 0 1 1h7.375a0.99382 0.99382 0 0 0 1-1v-6.4375c3.9541-0.81109 7.2814-2.4136 9.75-4.9688 2.7975-2.9374 4.25-6.6876 4.25-11.062-4e-5 -4.9718-2.2301-9.0233-6.4375-11.844-1.8345-1.2891-5.5221-2.9061-11.375-5.0625-1.9364-0.74475-3.3477-1.4889-4.2188-2.1875s-1.125-1.2559-1.125-1.6875c-1.2e-5 -1.0313 0.35475-1.6679 1.25-2.3125a0.99382 0.99382 0 0 0 0-0.03125c0.79627-0.61528 1.69-0.90622 2.8125-0.90625 1.4537 3.2e-5 2.4519 0.40985 3.2188 1.2812a0.99382 0.99382 0 0 0 0.03125 0c0.78111 0.85217 1.1562 1.9615 1.1562 3.4375a0.99382 0.99382 0 0 0 1 1h11.625a0.99382 0.99382 0 0 0 1-1c-0.0455-4.4571-1.1979-8.1343-3.5312-10.875-2.1728-2.5522-5.4065-4.1687-9.4062-5.0312v-6.3125a0.99382 0.99382 0 0 0-1-1h-7.375a0.99382 0.99382 0 0 0-0.09375 0z" opacity=".15"/>
<path d="m51.667 40.865v7.1622h-7.3593v-7.0308c-4.293-0.52567-7.666-2.1027-10.119-4.731-2.4531-2.6721-3.7454-6.1766-3.8768-10.513l11.893 0.06571c0.04379 1.577 0.61326 2.8255 1.7084 3.7454 1.0951 0.91993 2.4531 1.3799 4.0739 1.3799 1.4018 8e-6 2.6283-0.35044 3.6797-1.0513 1.2265-0.74469 1.8398-1.7741 1.8398-3.0883-2.6e-5 -1.9274-1.9713-3.6139-5.9138-5.0595-5.87-2.1465-9.5277-3.7235-10.973-4.731-3.9425-2.6283-5.9138-6.3737-5.9138-11.236-4e-6 -3.9863 1.2923-7.3374 3.8768-10.053 2.4969-2.5845 5.7385-4.1396 9.7248-4.6653v-7.0308h7.3593v7.0308c8.5421 1.5332 12.857 6.5928 12.945 15.179h-11.63c-2.6e-5 -1.6646-0.48189-3.0226-1.4456-4.0739-0.96375-1.0951-2.2779-1.6427-3.9425-1.6427-1.3142 3.7e-5 -2.4531 0.37238-3.4168 1.117-1.0952 0.78854-1.6427 1.8399-1.6427 3.154-1.5e-5 1.6646 1.9931 3.2635 5.9795 4.7967 5.8261 2.1465 9.5496 3.7892 11.17 4.9281 3.9863 2.6722 5.9794 6.3518 5.9795 11.039-3.8e-5 4.1615-1.3142 7.6222-3.9425 10.382-2.497 2.5845-5.8481 4.2272-10.053 4.9281" opacity=".3"/>
<path d="m51.667 39.865v7.1622h-7.3593v-7.0308c-4.293-0.52567-7.666-2.1027-10.119-4.731-2.4531-2.6721-3.7454-6.1766-3.8768-10.513l11.893 0.06571c0.04379 1.577 0.61326 2.8255 1.7084 3.7454 1.0951 0.91993 2.4531 1.3799 4.0739 1.3799 1.4018 8e-6 2.6283-0.35044 3.6797-1.0513 1.2265-0.74469 1.8398-1.7741 1.8398-3.0883-2.6e-5 -1.9274-1.9713-3.6139-5.9138-5.0595-5.87-2.1465-9.5277-3.7235-10.973-4.731-3.9425-2.6283-5.9138-6.3737-5.9138-11.236-4e-6 -3.9863 1.2923-7.3374 3.8768-10.053 2.4969-2.5845 5.7385-4.1396 9.7248-4.6653v-7.0308h7.3593v7.0308c8.5421 1.5332 12.857 6.5928 12.945 15.179h-11.63c-2.6e-5 -1.6646-0.48189-3.0226-1.4456-4.0739-0.96375-1.0951-2.2779-1.6427-3.9425-1.6427-1.3142 3.7e-5 -2.4531 0.37238-3.4168 1.117-1.0952 0.78854-1.6427 1.8399-1.6427 3.154-1.5e-5 1.6646 1.9931 3.2635 5.9795 4.7967 5.8261 2.1465 9.5496 3.7892 11.17 4.9281 3.9863 2.6722 5.9794 6.3518 5.9795 11.039-3.8e-5 4.1615-1.3142 7.6222-3.9425 10.382-2.497 2.5845-5.8481 4.2272-10.053 4.9281" fill="url(#linearGradient4053)"/>
<path d="m44.3-16.973v1h7.375v-1zm0 7.0312c-3.9863 0.52572-7.2218 2.0718-9.7188 4.6562-2.5845 2.716-3.875 6.0762-3.875 10.062 0 0.14943 0.02753 0.29018 0.03125 0.4375 0.11786-3.7374 1.383-6.9141 3.8438-9.5 2.4969-2.5845 5.7324-4.1305 9.7188-4.6562zm7.375 0v1c8.2005 1.4719 12.498 6.2157 12.906 14.188h0.03125c-0.087649-8.5859-4.3954-13.654-12.938-15.188zm-9.0938 14.125c-0.02756 0.19526-0.0625 0.38526-0.0625 0.59375-1.5e-5 1.6646 2.0137 3.2793 6 4.8125 5.8261 2.1465 9.5354 3.7986 11.156 4.9375 3.8593 2.5871 5.8458 6.118 5.9688 10.594 0.0055-0.18825 0.03125-0.37129 0.03125-0.5625-3.8e-5 -4.6872-2.0137-8.3591-6-11.031-1.6208-1.1389-5.3301-2.791-11.156-4.9375-3.6623-1.4085-5.6398-2.8868-5.9375-4.4062zm-12.281 20.562c0.01032 0.34054 0.06912 0.66972 0.09375 1l11.812 0.0625c0.04379 1.577 0.62359 2.8301 1.7188 3.75 1.0951 0.91993 2.4417 1.375 4.0625 1.375 1.4018 8e-6 2.6361-0.33035 3.6875-1.0312 1.2265-0.74469 1.8437-1.7796 1.8438-3.0938-2e-6 -0.13659-0.0427-0.27208-0.0625-0.40625-0.16374 1.0297-0.74931 1.8735-1.7812 2.5-1.0514 0.7009-2.2857 1.0313-3.6875 1.0312-1.6208 8e-6 -2.9674-0.45507-4.0625-1.375-1.0952-0.91991-1.675-2.173-1.7188-3.75z" fill="#fff" opacity=".3"/>
<path d="m47.582-1.473c-1.3142 3.7e-5 -2.4425 0.38034-3.4062 1.125-1.0952 0.78854-1.6563 1.8109-1.6562 3.125-1e-6 0.13533 0.03616 0.27179 0.0625 0.40625 0.14617-1.0355 0.67234-1.8678 1.5938-2.5312 0.9637-0.74466 2.0921-1.125 3.4062-1.125 1.6646 3.7e-5 3.005 0.5299 3.9688 1.625 0.9637 1.0514 1.4375 2.4292 1.4375 4.0938h11.625c-0.0035-0.34331-0.01423-0.66796-0.03125-1h-11.594c-2.6e-5 -1.6646-0.4738-3.0424-1.4375-4.0938-0.96375-1.0951-2.3042-1.625-3.9688-1.625zm-16.844 5.6875c-0.0059 0.18802-0.03125 0.37156-0.03125 0.5625-4e-6 4.8624 1.9637 8.6217 5.9062 11.25 1.4456 1.0075 5.0988 2.5723 10.969 4.7188 3.6631 1.3432 5.6154 2.8971 5.875 4.6562 0.03088-0.19416 0.0625-0.38525 0.0625-0.59375-2.6e-5 -1.9274-1.995-3.6169-5.9375-5.0625-5.87-2.1465-9.5232-3.7112-10.969-4.7188-3.8214-2.5475-5.7576-6.166-5.875-10.812zm34.906 19.906c-0.11525 3.9089-1.43 7.1796-3.9375 9.8125-2.497 2.5845-5.8259 4.2366-10.031 4.9375v1c4.2053-0.70089 7.5343-2.353 10.031-4.9375 2.6283-2.7597 3.9687-6.2135 3.9688-10.375-1e-6 -0.14928-0.02721-0.29027-0.03125-0.4375zm-35.344 0.625c0.13141 4.3368 1.4219 7.8591 3.875 10.531 2.4531 2.6283 5.832 4.1931 10.125 4.7188v-1c-4.293-0.52567-7.6719-2.0904-10.125-4.7188-2.2605-2.4623-3.4922-5.6555-3.7812-9.5312zm14 21.281v1h7.375v-1z" fill="#503a16" opacity=".4"/>
</g>
<rect transform="matrix(1.0692 0 0 1.0477 4.4442 38.894)" x="2" y="-30" width="75.966" height="69.024" rx="3.957" ry="3.957" clip-path="url(#clipPath4156-4-1)" fill="url(#linearGradient4767)" opacity=".50781"/>
</g>
</g>
</svg>
