<?xml version="1.0" encoding="UTF-8"?>
<svg version="1.1" viewBox="0 0 48 48" xmlns="http://www.w3.org/2000/svg" xmlns:cc="http://creativecommons.org/ns#" xmlns:dc="http://purl.org/dc/elements/1.1/" xmlns:rdf="http://www.w3.org/1999/02/22-rdf-syntax-ns#" xmlns:xlink="http://www.w3.org/1999/xlink">
<metadata>
<rdf:RDF>
<cc:Work rdf:about="">
<dc:format>image/svg+xml</dc:format>
<dc:type rdf:resource="http://purl.org/dc/dcmitype/StillImage"/>
</cc:Work>
</rdf:RDF>
</metadata>
<defs>
<clipPath id="clipPath-559913961">
<g transform="translate(0 -1004.4)">
<path transform="matrix(15.333 0 0 11.5 415 878.86)" d="m-24 13c0 1.105-0.672 2-1.5 2s-1.5-0.895-1.5-2 0.672-2 1.5-2 1.5 0.895 1.5 2z" fill="#1890d0"/>
</g>
</clipPath>
<linearGradient id="linearGradient4071" x1="6" x2="90" y1="47" y2="47" gradientTransform="matrix(.55126 0 0 .55126 -2.4607 -1.9094)" gradientUnits="userSpaceOnUse">
<stop stop-color="#b2babc" offset="0"/>
<stop stop-color="#fff" offset=".25"/>
<stop stop-color="#96a1a4" offset=".5"/>
<stop stop-color="#fbf9f9" offset=".75"/>
<stop stop-color="#b2b9bc" offset="1"/>
</linearGradient>
<linearGradient id="linearGradient4129" x1="1.5" x2="94.5" y1="88.172" y2="88.172" gradientTransform="matrix(.49792 0 0 .49792 .099999 .1)" gradientUnits="userSpaceOnUse">
<stop offset="0"/>
<stop stop-opacity=".58824" offset=".1"/>
<stop stop-opacity=".58824" offset=".9"/>
<stop offset="1"/>
</linearGradient>
<radialGradient id="radialGradient7462" cx="13.948" cy="44.893" r="43.199" gradientTransform="matrix(.48554 0 0 .024493 16.979 40.016)" gradientUnits="userSpaceOnUse" xlink:href="#linearGradient3737"/>
<linearGradient id="linearGradient3737">
<stop stop-color="#fff" offset="0"/>
<stop stop-color="#fff" stop-opacity="0" offset="1"/>
</linearGradient>
<radialGradient id="radialGradient7464" cx="13.948" cy="44.893" r="43.199" gradientTransform="matrix(.44231 0 0 .024493 15.807 -44.996)" gradientUnits="userSpaceOnUse" xlink:href="#linearGradient3737"/>
<linearGradient id="linearGradient4767" x1="2.7714" x2="50.528" y1="-28.642" y2="14.514" gradientUnits="userSpaceOnUse" xlink:href="#linearGradient3737"/>
<clipPath id="clipPath4156-4-1">
<path d="m27.046-55.695-14.214 13.321h0.06127l15.653 21.771 10.231-10.546c-0.2169-1.1522-11.311-23.67-11.732-24.546zm-17.399 16.313-14.888 14.062 21.229 17.515 10.385-10.577zm31.491 12.951-9.7413 9.7136 8.9448 12.458 7.7808-7.555zm-49.84 4.3788-13.754 12.982 26.283 13.846 0.06127-0.0617-0.12253-0.0617 9.8332-10.053-22.301-16.652zm38.015 7.4008-9.8025 9.7753 11.579 9.5594 7.6276-7.4008-8.6691-11.009zm20.187 5.674-7.3825 7.2158 6.1878 8.5418 5.8202-6.1365zm-32.195 6.3215-9.5575 9.4977 13.662 7.185 7.9339-7.6784zm23.312 2.3744-7.1068 6.9383 8.3628 6.9074 5.3608-5.674-0.06127-0.0925-0.0919 0.12335-6.4635-8.2026zm-8.7304 8.5418-7.5051 7.3392 10.354 5.4581c1.3975-1.321 5.6751-6.1229 5.8509-6.3215z" fill="#fff" opacity=".6"/>
</clipPath>
<linearGradient id="linearGradient4264-2-9" x2="0" y1="34" y2="23" gradientTransform="translate(-52.678 -52.475)" gradientUnits="userSpaceOnUse">
<stop stop-color="#ec8e19" offset="0"/>
<stop stop-color="#ec8e19" stop-opacity=".51" offset="1"/>
</linearGradient>
<linearGradient id="linearGradient4404-9-8" x2="0" y1="34" y2="26" gradientTransform="translate(-42.678 -52.475)" gradientUnits="userSpaceOnUse">
<stop stop-color="#7fcf5b" offset="0"/>
<stop stop-color="#7fcf5b" stop-opacity=".8" offset="1"/>
</linearGradient>
<linearGradient id="linearGradient4256-2-3" x2="0" y1="34" y2="20" gradientTransform="translate(-47.678 -52.475)" gradientUnits="userSpaceOnUse">
<stop stop-color="#e4c82f" offset="0"/>
<stop stop-color="#e4c82f" stop-opacity=".6" offset="1"/>
</linearGradient>
<clipPath id="clipPath-590354878-8-4">
<g transform="translate(0 -1004.4)">
<path transform="matrix(15.333 0 0 11.5 415 878.86)" d="m-24 13c0 1.105-0.672 2-1.5 2s-1.5-0.895-1.5-2 0.672-2 1.5-2 1.5 0.895 1.5 2z" fill="#1890d0"/>
</g>
</clipPath>
</defs>
<g clip-path="url(#clipPath-559913961)">
<g transform="translate(1,1)">
<g opacity=".1">
<!-- color: #474747 --></g>
</g>
</g>
<path d="m44.486 0.1h-40.971c-1.8915 0-3.4143 1.5228-3.4143 3.4143v40.971c0 1.8915 1.5228 3.4143 3.4143 3.4143h40.971c1.8915 0 3.4143-1.5228 3.4143-3.4143v-40.971c0-1.8915-1.5228-3.4143-3.4143-3.4143z" opacity=".15"/>
<path d="m44.166 0.47344h-40.331c-1.862 0-3.3609 1.499-3.3609 3.3609v40.331c0 1.862 1.499 3.3609 3.3609 3.3609h40.331c1.862 0 3.3609-1.499 3.3609-3.3609v-40.331c0-1.862-1.499-3.3609-3.3609-3.3609z" opacity=".15"/>
<path d="m43.846 0.84687h-39.691c-1.8324 0-3.3076 1.4752-3.3076 3.3076v39.691c0 1.8324 1.4752 3.3076 3.3076 3.3076h39.691c1.8324 0 3.3076-1.4752 3.3076-3.3076v-39.691c0-1.8324-1.4752-3.3076-3.3076-3.3076z" fill="url(#linearGradient4071)"/>
<path d="m5.6972 3.2803c-1.4223 0-2.5514 1.153-2.5514 2.6055v34.556c0.54633 0.84876 1.4782 1.4167 2.5514 1.4167h37.521c1.0732 0 1.2236 0.01811 1.7699-0.83064v-35.142c0-1.4525-1.1291-2.6055-2.5514-2.6055z" fill="#dce0e4" opacity=".98"/>
<path d="m4.9921 2.4549c-1.5518 0-2.8222 1.2645-2.8222 2.8112v34.495c0 1.5468 1.2704 2.8112 2.8222 2.8112h38.236c1.5518 0 2.8222-1.2645 2.8222-2.8112v-34.495c0-1.5468-1.2704-2.8112-2.8222-2.8112zm0 1.1549h38.236c0.94012 0 1.669 0.73696 1.669 1.6564v34.495c0 0.91939-0.72891 1.6564-1.669 1.6564h-38.236c-0.94012 0-1.669-0.73696-1.669-1.6564v-34.495c0-0.91939 0.72891-1.6564 1.669-1.6564z" color="#000000" fill="#1f2224" fill-opacity=".8087" style="text-decoration-line:none;text-indent:0;text-transform:none"/>
<path d="m0.84687 40.851v2.9875c0 1.8324 1.4819 3.3143 3.3143 3.3143h39.678c1.8324 0 3.3143-1.4819 3.3143-3.3143v-2.9875c0 1.8324-1.4819 3.3143-3.3143 3.3143h-39.678c-1.8324 0-3.3143-1.4819-3.3143-3.3143z" fill="url(#linearGradient4129)" opacity=".65818"/>
<rect x="2.7763" y="40.058" width="41.949" height="2.1161" rx="0" ry="2.1161" fill="url(#radialGradient7462)" opacity=".55"/>
<rect transform="rotate(90)" x="2.8684" y="-44.955" width="38.215" height="2.1161" rx="0" ry="2.1161" fill="url(#radialGradient7464)" opacity=".669"/>
<g transform="matrix(1.1511 0 0 1.1511 56.435 53.866)">
<path d="m-39.678-37.475v2h4v-2zm0 3v2h4v-2zm20 0v2h4v-2zm-25 3v2h4v-2zm5 0v2h4v-2zm10 0v2h4v-2zm10 0v2h4v-2zm5 0v2h4v-2zm-30 3v2h4v-2zm5 0v2h4v-2zm5 0v2h4v-2zm5 0v2h4v-2zm10 0v2h4v-2zm5 0v2h4v-2zm-30 3v2h4v-2zm5 0v2h4v-2zm5 0v2h4v-2zm5 0v2h4v-2zm5 0v2h4v-2zm5 0v2h4v-2zm5 0v2h4v-2zm-30 3v2h4v-2zm5 0v2h4v-2zm5 0v2h4v-2zm5 0v2h4v-2zm5 0v2h4v-2zm5 0v2h4v-2zm5 0v2h4v-2zm-30 3v2h4v-2zm5 0v2h4v-2zm5 0v2h4v-2zm5 0v2h4v-2zm5 0v2h4v-2zm5 0v2h4v-2zm5 0v2h4v-2z" opacity=".1"/>
<path d="m-45.678-32.475v2h4v-2m-4 3v2h4v-2m-4 3v2h4v-2m-4 3v2h4v-2m-4 3v2h4v-2" fill="#ba00ff"/>
<path d="m-40.678-38.475v2h4v-2zm0 3v2h4v-2zm0 3v2h4v-2zm0 3v2h4v-2zm0 3v2h4v-2zm0 3v2h4v-2zm0 3v2h4v-2z" fill="#b50000"/>
<path d="m-35.678-29.475v2h4v-2m-4 3v2h4v-2m-4 3v2h4v-2m-4 3v2h4v-2" fill="url(#linearGradient4264-2-9)"/>
<path d="m-25.678-26.475v2h4v-2m-4 3v2h4v-2m-4 3v2h4v-2" fill="url(#linearGradient4404-9-8)"/>
<path d="m-20.678-35.475v2h4v-2m-4 3v2h4v-2m-4 3v2h4v-2m-4 3v2h4v-2m-4 3v2h4v-2m-4 3v2h4v-2" fill="#0084c8"/>
<path d="m-15.678-32.475v2h4v-2m-4 3v2h4v-2m-4 3v2h4v-2m-4 3v2h4v-2m-4 3v2h4v-2" fill="#ba00ff"/>
<path d="m-30.678-32.475v2h4v-2m-4 3v2h4v-2m-4 3v2h4v-2m-4 3v2h4v-2m-4 3v2h4v-2" fill="url(#linearGradient4256-2-3)"/>
<path transform="translate(-51.677 -51.475)" d="m24 12c-0.552 1e-3 -1.059 0.304-1.32 0.791l-2.451 3.912c-0.44 0.705-0.226 1.628 0.479 2.068s1.626 0.226 2.066-0.479l0.227-0.361v4.07h-7v-4.801l0.27 0.395c0.275 0.403 0.853 0.525 1.293 0.273s0.572-0.779 0.297-1.182l-1.533-2.24c-0.164-0.275-0.48-0.447-0.822-0.447-0.345 0-0.661 0.173-0.824 0.451l-1.533 2.236c-0.275 0.403-0.142 0.93 0.299 1.182 0.44 0.252 1.018 0.129 1.293-0.273l0.266-0.389v5.313c0 0.265 0.214 0.48 0.48 0.48h7.52v4.424c-0.351-0.427-0.975-0.554-1.469-0.26-0.528 0.315-0.69 0.973-0.359 1.477l1.838 2.795c0.196 0.348 0.576 0.564 0.99 0.564 0.411-1e-3 0.79-0.215 0.986-0.559l1.84-2.801c0.33-0.503 0.171-1.162-0.357-1.477-0.496-0.295-1.123-0.166-1.473 0.266v-4.43h7.523c0.265 0 0.48-0.214 0.48-0.48l-4e-3 -5.318 0.27 0.395c0.275 0.403 0.853 0.525 1.293 0.273s0.572-0.779 0.297-1.182l-1.533-2.24c-0.164-0.275-0.48-0.447-0.822-0.447-0.345 0-0.661 0.173-0.824 0.451l-1.533 2.236c-0.275 0.403-0.142 0.93 0.299 1.182 0.44 0.252 1.018 0.129 1.293-0.273l0.262-0.383v4.789h-7v-4.078l0.23 0.369c0.44 0.705 1.362 0.919 2.066 0.479 0.705-0.44 0.917-1.364 0.477-2.068l-2.455-3.92c-0.262-0.482-0.766-0.782-1.314-0.783m-5.869 12c-1.336 1.27-2.135 2.977-2.135 4.859 0 3.953 3.582 7.121 8 7.121 4.426 0 8-3.188 8-7.121 0-1.879-0.805-3.586-2.133-4.859l-1.602 1.426c0.926 0.906 1.449 2.109 1.449 3.434 0 2.82-2.551 5.104-5.715 5.104s-5.719-2.283-5.719-5.104c0-1.316 0.563-2.498 1.488-3.396l-1.635-1.463" clip-path="url(#clipPath-590354878-8-4)" opacity=".1"/>
<path transform="translate(-52.678 -52.475)" d="m18.13 24c-1.336 1.27-2.133 2.977-2.133 4.859 0 3.953 3.582 7.121 8 7.121 4.426 0 8-3.188 8-7.121 0-1.879-0.805-3.586-2.133-4.859l-1.602 1.426c0.926 0.906 1.449 2.109 1.449 3.434 0 2.82-2.551 5.102-5.715 5.102s-5.719-2.281-5.719-5.102c0-1.316 0.563-2.5 1.488-3.398" clip-path="url(#clipPath-590354878-8-4)" fill="#2fe3ff" stroke="#e815af" stroke-width=".17375"/>
<path transform="translate(-52.678 -52.475)" d="m15 16v6.52c0 0.265 0.214 0.48 0.48 0.48h7.52v7h1.996v-7h7.523c0.265 0 0.48-0.214 0.48-0.48l-4e-3 -6.52h-1v6h-7v-6h-1.996v6h-7v-6h-0.996" clip-path="url(#clipPath-590354878-8-4)" fill="#2fe3ff" stroke="#e815af" stroke-width=".17375"/>
<path d="m-28.678-40.475c-0.552 1e-3 -1.059 0.304-1.32 0.791l-2.451 3.912c-0.44 0.705-0.226 1.628 0.479 2.068s1.626 0.226 2.066-0.479l1.227-1.961 1.227 1.961c0.44 0.705 1.362 0.919 2.066 0.479 0.705-0.44 0.917-1.364 0.477-2.068l-2.455-3.92c-0.262-0.482-0.766-0.782-1.314-0.783" fill="#2fe3ff" stroke="#e815af" stroke-width=".17375"/>
<path d="m-20.178-38.475c-0.345 0-0.662 0.174-0.825 0.452l-1.532 2.235c-0.275 0.403-0.141 0.93 0.299 1.182s1.016 0.129 1.291-0.273l0.767-1.12 0.767 1.12c0.275 0.403 0.851 0.525 1.291 0.273s0.573-0.779 0.298-1.182l-1.534-2.24c-0.164-0.275-0.479-0.447-0.821-0.448" fill="#2fe3ff" stroke="#e815af" stroke-width=".17375"/>
<path d="m-28.678-20.475c-0.414 0-0.794-0.217-0.99-0.565l-1.838-2.794c-0.33-0.503-0.17-1.163 0.359-1.477 0.528-0.315 1.219-0.162 1.55 0.342l0.92 1.401 0.92-1.401c0.33-0.503 1.021-0.656 1.55-0.342 0.529 0.315 0.688 0.974 0.357 1.477l-1.841 2.8c-0.197 0.344-0.575 0.559-0.986 0.559" fill="#2fe3ff" stroke="#e815af" stroke-width=".17375"/>
<path d="m-37.178-38.475c-0.345 0-0.662 0.174-0.825 0.452l-1.532 2.235c-0.275 0.403-0.141 0.93 0.299 1.182s1.016 0.129 1.291-0.273l0.767-1.12 0.767 1.12c0.275 0.403 0.851 0.525 1.291 0.273s0.573-0.779 0.298-1.182l-1.534-2.24c-0.164-0.275-0.479-0.447-0.821-0.448z" fill="#2fe3ff" stroke="#e815af" stroke-width=".17375"/>
</g>
<rect transform="matrix(.53239 0 0 .52166 2.2387 19.259)" x="2" y="-30" width="75.966" height="69.024" rx="3.957" ry="3.957" clip-path="url(#clipPath4156-4-1)" fill="url(#linearGradient4767)" opacity=".7"/>
</svg>
