<?xml version="1.0" encoding="UTF-8"?>
<!-- Created with Inkscape (http://www.inkscape.org/) -->
<svg version="1.1" viewBox="0 0 96 96" xmlns="http://www.w3.org/2000/svg" xmlns:cc="http://creativecommons.org/ns#" xmlns:dc="http://purl.org/dc/elements/1.1/" xmlns:rdf="http://www.w3.org/1999/02/22-rdf-syntax-ns#" xmlns:xlink="http://www.w3.org/1999/xlink">
<defs>
<linearGradient id="linearGradient4071" x1="6" x2="90" y1="47" y2="47" gradientTransform="matrix(1.1071 0 0 1.1071 -4.9939 -3.6207)" gradientUnits="userSpaceOnUse">
<stop stop-color="#b4b9ba" offset="0"/>
<stop stop-color="#fff" offset=".25"/>
<stop stop-color="#98a0a2" offset=".5"/>
<stop stop-color="#fbf9f9" offset=".75"/>
<stop stop-color="#b4b8ba" offset="1"/>
</linearGradient>
<linearGradient id="linearGradient4129" x1="1.5" x2="94.5" y1="88.172" y2="88.172" gradientTransform="translate(.14895 .41503)" gradientUnits="userSpaceOnUse">
<stop offset="0"/>
<stop stop-opacity=".58824" offset=".1"/>
<stop stop-opacity=".58824" offset=".9"/>
<stop offset="1"/>
</linearGradient>
<radialGradient id="radialGradient7462" cx="13.948" cy="44.893" r="43.199" gradientTransform="matrix(.97513 0 0 .049191 34.048 80.582)" gradientUnits="userSpaceOnUse" xlink:href="#linearGradient3737"/>
<linearGradient id="linearGradient3737">
<stop stop-color="#fff" offset="0"/>
<stop stop-color="#fff" stop-opacity="0" offset="1"/>
</linearGradient>
<radialGradient id="radialGradient7464" cx="13.948" cy="44.893" r="43.199" gradientTransform="matrix(.88833 0 0 .049191 31.96 -90.317)" gradientUnits="userSpaceOnUse" xlink:href="#linearGradient3737"/>
<linearGradient id="linearGradient4767" x1="2.7714" x2="50.528" y1="-28.642" y2="14.514" gradientUnits="userSpaceOnUse" xlink:href="#linearGradient3737"/>
<clipPath id="clipPath4156-4-1">
<path d="m27.046-55.695-14.214 13.321h0.06127l15.653 21.771 10.231-10.546c-0.2169-1.1522-11.311-23.67-11.732-24.546zm-17.399 16.313-14.888 14.062 21.229 17.515 10.385-10.577zm31.491 12.951-9.7413 9.7136 8.9448 12.458 7.7808-7.555zm-49.84 4.3788-13.754 12.982 26.283 13.846 0.06127-0.0617-0.12253-0.0617 9.8332-10.053-22.301-16.652zm38.015 7.4008-9.8025 9.7753 11.579 9.5594 7.6276-7.4008-8.6691-11.009zm20.187 5.674-7.3825 7.2158 6.1878 8.5418 5.8202-6.1365zm-32.195 6.3215-9.5575 9.4977 13.662 7.185 7.9339-7.6784zm23.312 2.3744-7.1068 6.9383 8.3628 6.9074 5.3608-5.674-0.06127-0.0925-0.0919 0.12335-6.4635-8.2026zm-8.7304 8.5418-7.5051 7.3392 10.354 5.4581c1.3975-1.321 5.6751-6.1229 5.8509-6.3215z" fill="#fff" opacity=".6"/>
</clipPath>
<radialGradient id="radialGradient849" cx="48.284" cy="45.524" r="42.018" gradientTransform="matrix(.86729 .0036954 -.0034804 .81683 6.566 8.1601)" gradientUnits="userSpaceOnUse">
<stop stop-color="#96d7ff" offset="0"/>
<stop stop-color="#005c94" stop-opacity=".99336" offset="1"/>
</radialGradient>
<linearGradient id="linearGradient3732-4" x1="55.785" x2="63.044" y1="51.333" y2="54.817" gradientTransform="translate(50.009 174.42)" gradientUnits="userSpaceOnUse" xlink:href="#linearGradient3718-7"/>
<linearGradient id="linearGradient3718-7">
<stop stop-color="#f4de23" offset="0"/>
<stop stop-color="#e49600" stop-opacity=".97647" offset="1"/>
</linearGradient>
<linearGradient id="linearGradient3724-3" x1="59.986" x2="66.578" y1="46.666" y2="43.788" gradientTransform="translate(49.615 175.21)" gradientUnits="userSpaceOnUse" xlink:href="#linearGradient3718-7"/>
</defs>
<metadata>
<rdf:RDF>
<cc:Work rdf:about="">
<dc:format>image/svg+xml</dc:format>
<dc:type rdf:resource="http://purl.org/dc/dcmitype/StillImage"/>
<dc:title/>
<dc:date>2017</dc:date>
<dc:creator>
<cc:Agent>
<dc:title>Cristian Pozzessere "ilnanny"</dc:title>
</cc:Agent>
</dc:creator>
<dc:subject>
<rdf:Bag>
<rdf:li>Global language</rdf:li>
</rdf:Bag>
</dc:subject>
<dc:description>Playing with Inkscape on Gnu/Linux O. S.</dc:description>
<dc:contributor>
<cc:Agent>
<dc:title>In the night, alone like a dog.</dc:title>
</cc:Agent>
</dc:contributor>
<cc:license rdf:resource="http://creativecommons.org/licenses/by-sa/4.0/"/>
</cc:Work>
<cc:License rdf:about="http://creativecommons.org/licenses/by-sa/4.0/">
<cc:permits rdf:resource="http://creativecommons.org/ns#Reproduction"/>
<cc:permits rdf:resource="http://creativecommons.org/ns#Distribution"/>
<cc:requires rdf:resource="http://creativecommons.org/ns#Notice"/>
<cc:requires rdf:resource="http://creativecommons.org/ns#Attribution"/>
<cc:permits rdf:resource="http://creativecommons.org/ns#DerivativeWorks"/>
<cc:requires rdf:resource="http://creativecommons.org/ns#ShareAlike"/>
</cc:License>
</rdf:RDF>
</metadata>
<g transform="translate(0 -1026.5)">
<g transform="translate(-.14896 1026.1)">
<path d="m89.292 0.41503h-82.286c-3.7988 0-6.8571 3.0583-6.8571 6.8571v82.286c0 3.7989 3.0583 6.8571 6.8571 6.8571h82.286c3.7989 0 6.8571-3.0583 6.8571-6.8571v-82.286c0-3.7989-3.0583-6.8571-6.8571-6.8571z" opacity=".15"/>
<path d="m88.649 1.165h-81c-3.7395 0-6.75 3.0105-6.75 6.75v81c0 3.7395 3.0105 6.75 6.75 6.75h81c3.7395 0 6.75-3.0105 6.75-6.75v-81c0-3.7395-3.0105-6.75-6.75-6.75z" opacity=".15"/>
<path d="m88.006 1.915h-79.714c-3.6801 0-6.6429 2.9627-6.6429 6.6429v79.714c0 3.6801 2.9627 6.6429 6.6429 6.6429h79.714c3.6801 0 6.6429-2.9627 6.6429-6.6429v-79.714c0-3.6801-2.9627-6.6429-6.6429-6.6429z" fill="url(#linearGradient4071)"/>
<path d="m11.39 6.8022c-2.8565 0-5.1241 2.3147-5.1241 5.2305v69.369c1.0972 1.7038 2.9688 2.8441 5.1241 2.8441h73.787c2.1553 0 4.0269-1.1402 5.1241-2.8441v-69.369c0-2.9158-2.2676-5.2305-5.1241-5.2305z" fill="url(#radialGradient849)" opacity=".77865"/>
<g transform="matrix(1 0 0 .8881 -49.86 -152.28)">
<path d="m86.283 180.5c1.6501 2.2167 0.11258 5.9183 2.6015 5.8816 1.2119 1.714-2.4155 0.5113 0.20359 1.8324 1.5061 1.1866-1.5934 1.8645 0.27179 2.9294-2.1497 1.1097 0.34844 5.804 1.9451 6.9788 2.628 2.2132 1.1622-4.6857 4.0945-5.0446 1.5934-1.8197 4.3918-2.9878 6.3793-4.8184-1.9423-0.15774-3.0765-1.3671-1.237-2.1163 3.3854 3.4704 0.8489-1.6435-1.0251-2.4532 1.8134-0.57704 3.577-0.15448 3.3254-1.6514 1.9163-1.4025-1.8422-1.8553-3.1839-1.5383h-13.375zm-27.802 1.4478c-2.4498 0.69819-2.6206 6.5549-0.15835 3.3027 0.60434-1.3354 3.3971-2.9447 0.15835-3.3027zm11.446 0.20359c-1.4123 2.2153 0.20492 3.9915 1.3799 1.2894 0.83171-1.1283-0.61793-1.2481-1.3799-1.2894zm3.529 0.49768c-2.7288 1.2652-0.6726 4.2156-0.60506 4.8717 2.8746 0.99483 4.4732-0.65043 5.5607 2.1615 2.7352 1.5769-0.05382 4.3171-1.0805 5.0307 1.8493-1.6112 5.4042 4.3805 4.4722 1.2149-1.1118-0.81208 2.9852 1.3046 0.85962-1.3347-1.9561-3.1527 0.15527-1.4114 0.97995-0.67561 2.8049-2.5161-3.1736-2.8202-1.6812-5.4096-1.3078-1.0596-3.0229-4.2695-5.3387-3.6421-1.5502 2.0056-0.21415-4.37-2.4886-1.1796-0.11789 1.7834-0.04285 4.0464-0.70571 0.95682-0.44407-0.54087 0.764-1.7983 0.0273-1.9942zm-5.5649 0.0226c-1.8316 0.61085-1.7332 3.0865 0.51896 3.3519 0.77144-0.87964 0.30649-3.1853-0.51896-3.3519zm-7.1484 0.79175c-2.3791 0.56388-1.408 2.4829-0.67957 3.0233-2.9449 0.73792 4.4957 0.94313 0.79268 1.4105-3.0808 1.2308 2.9667 2.6809 3.9588 1.2216 3.8044 0.93073 0.13691-3.0466-0.19704-5.2025-1.6128-1.7315-0.06366 3.9915-1.5219 0.18441-0.50879 1.1306-2.1265 0.1666-2.353-0.63725zm75.601 0.24884c-3.1924 1.2499 1.9842 5.9664 0.69764 1.6755-0.12816-0.51812 0.2882-1.8871-0.69764-1.6755zm-66.666 1.9002c-2.2941 2.1567 2.916 3.9402-0.6589 5.5469-0.53602-2.0029-1.4583 1.0021-3.5035-0.61542-3.5159 1.4645-5.3139-0.76283-8.2575-2.2896-1.768-0.22016-1.1038 1.6805-1.2209 3.4602v14.755c1.7335 1.8245 0.67633 0.80498 0 0.30176 0.95147 3.2416-0.41957 7.9802 3.3309 9.8658 0.63756 1.183 3.3129 6.2231 3.4362 4.715-1.3412-1.4051-2.7174-5.6174-0.4479-1.863 2.0328 3.5688 4.7747 5.8835 8.7805 6.7328 2.1901 0.74522 3.9912 3.307 5.9171 2.7433 1.0891 2.872-3.2274 5.6299 0.14491 8.3086 1.7605 2.7118 4.7162 4.4904 3.116 8.2976-1.1191 3.7183-0.63993 7.7697-1.6078 11.234-0.30039 2.1087 2.938 7.461 2.6575 3.1751 0.94557-2.9784 0.92064-6.2556 3.1476-8.3648 3.0471 0.0241 0.58238-3.2778 3.607-2.8464 1.8456-2.4201 2.3802-5.3071 5.4949-6.2681 0.37204-2.9376 5.1788-7.4366 0.21314-8.5803-1.3496-0.66545-4.8245-0.90473-4.559-1.2331 0.53803-2.9149-4.4935-3.7447-6.6342-4.9373-2.8108-1.9958-7.0342 3.3156-8.0245-1.261-0.59088-1.44-2.7513-1.4633-1.7584-3.6852-1.7894 1.7803-5.2893 1.2392-4.373-2.1989 1.3916-2.8956 6.7356-3.0326 7.6463 0.45029-1.2644-3.8412 2.4439-6.8314 4.5025-9.5642 0.41916-1.3062 2.9097-2.4284 2.0527-0.69242 1.4602-0.0527 3.6733-2.6886 1.0794-1.472-0.03668-2.4039-2.273-1.7203-2.998-1.3789 1.3438-2.1336 8.245-0.96712 5.3551-4.4546-2.2393-0.90768-2.053-6.2044-4.318-3.2536 0.1906-1.8182-4.61-5.3772-4.5053-2.3283 0.58599 2.7281 0.10713 5.8709-1.1399 7.6591-0.26024-3.9976-7.0757-3.1141-6.1994-7.374 1.2694-2.0303 2.7529-4.8379 2.8942-4.5853 2.275-0.86894 4.1046-3.3965 1.4678-5.0581-0.14092 1.4482-1.983 4.4361-1.7237 0.82232-1.7058 2.0232-1.3162-3.2194-2.9138-3.7631zm54.45 1.4025c-3.9959 0.97783-5.5801 4.7958-7.5568 7.9582-2.9138 1.3142-2.8029 6.9583 0.45241 5.1557 0.87128 1.5223-0.6095 3.9217 1.9283 1.9312 2.047-2.7099 0.35794-7.0928 3.8414-8.8015 0.25372 1.3286-3.2133 6.2899 0.83699 5.4744 3.6616 0.13821-2.6618 0.36497-0.881 2.7047-1.8503-1.0982-0.88883 2.9993-3.304 2.0458-2.0923 1.1385-3.4643-0.52863-2.985-2.355-1.646 0.96058 0.5177 3.6704-2.3396 3.8333-0.64005 2.2736-5.9034 1.931-2.9102 4.2462 1.3289 3.4454-4.9515 0.21599-3.1685 4.3505 1.5254 4.0884 4.7224-1.3547 6.0194-2.4063 2.5025-1.9419 6.2107 3.3111 3.9588 3.5063 2.5251-0.33891 2.0062-2.7412-0.017-3.6713-1.0927-2.8349 3.459 1.3903 3.2066 2.8117 1.606 3.0084 0.94462-3.0801 2.5789-0.38456-0.19081 2.8434 6.5742 0.66855 3.3444 4.2924-2.7769 0.55952-5.5101-0.71614-7.9008 0.10093-2.2251-0.0197-2.1135-2.398-2.9236-2.9935-2.8304 0.23004-6.3279 0.20402-8.2228 2.4914-2.049 2.8123-5.0038 6.7438-2.7705 10.335 2.2349 5.3215 7.7772 0.27603 10.963 3.4188 0.94694 1.3104-0.82059 2.868 1.2967 4.2874 0.79671 3.0235-0.90448 5.8943 1.0523 8.7846 1.0118 2.7182 1.6398 6.7866 5.4058 4.3028 3.9858-2.3994 2.9242-6.8227 6.2129-9.2726-2.6023-5.0381 3.1836-7.2471 4.6272-11.337-3.154 0.46191-5.9638-2.6838-6.7258-5.8499-1.3249-1.5379-0.98368-3.8055 0.49632-0.91647 2.0343 1.9719 2.0782 7.8231 5.8413 4.813 1.7204-0.71984 6.4186-3.4657 2.6751-4.7153-2.413 1.7484-5.0753-5.2243-1.5318-1.18 2.576 1.0933 4.38 1.7447 4.38-1.8802v-29.497c-0.80239 0.82028-2.8638 2.3352-3.9043 1.3286-1.7904 0.24941-4.1539 3.7343-3.5912 0.36554-1.5562-0.10309-0.27858 3.0205-2.4166 3.1079-0.21529 1.6059-2.1599 0.29738-1.4294 1.8224-1.5006-1.0649-2.7707-4.427 0.18615-2.3167 4.391-1.3178-2.8956-4.2904-3.458-5.0089 0.94546-0.22662-1.0286-1.2122-1.2668-0.88224zm-36.24 0.88224c-1.4615 1.2182 2.7785 1.4476 0 0zm-19.522 0.65602c-1.6347 1.7105 2.6033 1.5724 0 0zm9.4784 1.6966c-1.2379 2.0286 1.829 0.74894 0 0zm27.101 2.3979c-1.4492 1.6691-3.362-0.43926-3.3932 0.99535 0.26264 0.43347 1.3147 3.5273 3.6194 1.2442 1.237-0.52171 0.74996-1.8369-0.22621-2.2395zm-30.856 0.99535c-2.7488 2.4015 4.6683 2.6227 0.58232 0.27542zm36.262 6.6507c-1.9791 1.291 0.94943 4.0328-0.0431 5.3207-1.2401 2.1615 4.6083-0.15226 1.4846-1.8768-0.22256-1.4816-1.83-3.2894-1.4415-3.444zm-1.3347 2.6015c-2.7574 0.77986-0.62596 4.8062 0.35066 1.014 0.055-0.21986 0.12936-1.0214-0.35066-1.014zm-22.079 2.9182c-2.5652 1.7498-0.39843 3.4964 1.4816 2.7091-0.38596-1.0558-1.4642-1.721-1.4816-2.7091zm48.455 2.9408c1.2799 0.6462-2.3455 1.7501-0.0498 2.8874 1.336 1.5717 0.83231 4.9455-1.3392 2.5576 0.40345-2.666-2.9436-4.657 1.389-5.445zm-6.5829 0.0226c-0.17367 1.7128 3.694 4.3751-0.47505 3.5063-2.2047 0.25873-5.507-0.0674-2.7294-2.8157 0.87765-0.52709 3.182 1.8185 1.9829-0.37395 0.42514-0.0271 0.82108-0.18767 1.2216-0.3167zm-12.736 3.7099c-1.6081 1.0364 1.112 1.8311 0 0zm-40.379 9.6594c-0.2711 0.9048 5.086 1.8218 1.3893 0.37215l-0.55107-0.19405zm4.1624 1.2894c-1.6249 1.6502 3.3478 0.49301 0 0zm54.337 15.134c-3.5307 0.0911-3.0613 9.2016-0.60014 3.8108 0.23341-1.1698 1.1689-2.7138 0.60014-3.8108z" fill="#2d2d2d" opacity=".629" stroke="#ecf8ff" stroke-opacity=".99216" stroke-width=".319"/>
<path d="m121.01 179.42-1.6086 0.0383c0.54929 0.11554 0.45239 1.118 0.45239 1.118-2.9514 30.986-27.067 69.331-36.426 83.634 0 0-0.62566 1.2093-1.4174 1.2093h2 8.659c0.91804 0 1.3834-0.57039 1.625-0.9375 0.0043-6e-3 -0.0043-0.0249 0-0.0312 9.0561-13.763 32.564-52.418 35.56-83.875 0.15625-1.1562-0.84375-1.1562-0.84375-1.1562z" fill="url(#linearGradient3732-4)"/>
<path d="m85.513 180.21c0.79777-4e-3 1.0669 0.66644 1.3209 1 16.569 21.762 32.327 68 32.327 68l-8.727 2.1515 18.181 8.8485 6.515-19.454-6.979 4.498s-16.045-43.883-32.005-64.044c-0.26721-0.33755-0.59954-1-1.5465-1z" fill="url(#linearGradient3724-3)"/>
</g>
<path d="m9.974 5.1445c-3.1166 0-5.668 2.5395-5.668 5.646v69.278c0 3.1065 2.5513 5.646 5.668 5.646h76.792c3.1166 0 5.668-2.5395 5.668-5.646v-69.278c0-3.1065-2.5513-5.646-5.668-5.646zm0 2.3194h76.792c1.8881 0 3.352 1.4801 3.352 3.3266v69.278c0 1.8465-1.4639 3.3266-3.352 3.3266h-76.792c-1.8881 0-3.352-1.4801-3.352-3.3266v-69.278c0-1.8465 1.4639-3.3266 3.352-3.3266z" color="#000000" fill="#241f1f" fill-opacity=".63265" style="text-decoration-line:none;text-indent:0;text-transform:none"/>
<path d="m1.649 82.259v6c0 3.6801 2.9761 6.6562 6.6562 6.6562h79.687c3.6801 0 6.6563-2.9761 6.6563-6.6562v-6c0 3.6801-2.9761 6.6562-6.6563 6.6562h-79.687c-3.6801 0-6.6562-2.9761-6.6562-6.6562z" fill="url(#linearGradient4129)" opacity=".65818"/>
<rect x="5.524" y="80.665" width="84.25" height="4.25" rx="0" ry="4.25" fill="url(#radialGradient7462)" opacity=".55"/>
<rect transform="rotate(90)" x="5.975" y="-90.234" width="76.75" height="4.25" rx="0" ry="4.25" fill="url(#radialGradient7464)" opacity=".669"/>
<rect transform="matrix(1.0692 0 0 1.0431 4.4442 39.074)" x="2" y="-30" width="75.966" height="69.024" rx="3.957" ry="3.957" clip-path="url(#clipPath4156-4-1)" fill="url(#linearGradient4767)" opacity=".50781"/>
</g>
</g>
</svg>
