<?xml version="1.0" encoding="UTF-8"?>
<!-- Created with Inkscape (http://www.inkscape.org/) -->
<svg version="1.1" viewBox="0 0 96 96" xmlns="http://www.w3.org/2000/svg" xmlns:cc="http://creativecommons.org/ns#" xmlns:dc="http://purl.org/dc/elements/1.1/" xmlns:rdf="http://www.w3.org/1999/02/22-rdf-syntax-ns#" xmlns:xlink="http://www.w3.org/1999/xlink">
<defs>
<linearGradient id="linearGradient5687">
<stop offset="0"/>
<stop stop-opacity="0" offset="1"/>
</linearGradient>
<linearGradient id="linearGradient4071" x1="6" x2="90" y1="47" y2="47" gradientTransform="matrix(1.1071 0 0 1.1071 -4.9939 -3.6207)" gradientUnits="userSpaceOnUse">
<stop stop-color="#b2babc" offset="0"/>
<stop stop-color="#fff" offset=".25"/>
<stop stop-color="#96a1a4" offset=".5"/>
<stop stop-color="#fbf9f9" offset=".75"/>
<stop stop-color="#b2b9bc" offset="1"/>
</linearGradient>
<linearGradient id="linearGradient4129" x1="1.5" x2="94.5" y1="88.172" y2="88.172" gradientTransform="translate(.14895 .41503)" gradientUnits="userSpaceOnUse">
<stop offset="0"/>
<stop stop-opacity=".58824" offset=".1"/>
<stop stop-opacity=".58824" offset=".9"/>
<stop offset="1"/>
</linearGradient>
<radialGradient id="radialGradient7462" cx="13.948" cy="44.893" r="43.199" gradientTransform="matrix(.97513 0 0 .049191 34.048 80.582)" gradientUnits="userSpaceOnUse" xlink:href="#linearGradient3737"/>
<linearGradient id="linearGradient3737">
<stop stop-color="#fff" offset="0"/>
<stop stop-color="#fff" stop-opacity="0" offset="1"/>
</linearGradient>
<radialGradient id="radialGradient7464" cx="13.948" cy="44.893" r="43.199" gradientTransform="matrix(.88833 0 0 .049191 31.96 -90.317)" gradientUnits="userSpaceOnUse" xlink:href="#linearGradient3737"/>
<linearGradient id="linearGradient4767" x1="2.7714" x2="50.528" y1="-28.642" y2="14.514" gradientUnits="userSpaceOnUse" xlink:href="#linearGradient3737"/>
<clipPath id="clipPath4156-4-1">
<path d="m27.046-55.695-14.214 13.321h0.06127l15.653 21.771 10.231-10.546c-0.2169-1.1522-11.311-23.67-11.732-24.546zm-17.399 16.313-14.888 14.062 21.229 17.515 10.385-10.577zm31.491 12.951-9.7413 9.7136 8.9448 12.458 7.7808-7.555zm-49.84 4.3788-13.754 12.982 26.283 13.846 0.06127-0.0617-0.12253-0.0617 9.8332-10.053-22.301-16.652zm38.015 7.4008-9.8025 9.7753 11.579 9.5594 7.6276-7.4008-8.6691-11.009zm20.187 5.674-7.3825 7.2158 6.1878 8.5418 5.8202-6.1365zm-32.195 6.3215-9.5575 9.4977 13.662 7.185 7.9339-7.6784zm23.312 2.3744-7.1068 6.9383 8.3628 6.9074 5.3608-5.674-0.06127-0.0925-0.0919 0.12335-6.4635-8.2026zm-8.7304 8.5418-7.5051 7.3392 10.354 5.4581c1.3975-1.321 5.6751-6.1229 5.8509-6.3215z" fill="#fff" opacity=".6"/>
</clipPath>
<linearGradient id="linearGradient4236" x1="15.079" x2="15.079" y1="13.467" y2="21.058" gradientTransform="matrix(1.4282 0 0 1.4042 57.99 -34.814)" gradientUnits="userSpaceOnUse">
<stop stop-color="#dcdcdc" offset="0"/>
<stop stop-color="#646464" offset="1"/>
</linearGradient>
<radialGradient id="radialGradient4238" cx="17.873" cy="17.126" r="4.7987" gradientTransform="matrix(.98188 0 0 .96537 65.967 -5.766)" gradientUnits="userSpaceOnUse">
<stop stop-color="#f5ff46" offset="0"/>
<stop stop-color="#30830f" offset="1"/>
</radialGradient>
<linearGradient id="linearGradient1442" x1="79.342" x2="-4.08" y1="894.31" y2="894.62" gradientTransform="matrix(.9767 0 0 .96028 6.7177 -815.45)" gradientUnits="userSpaceOnUse" xlink:href="#linearGradient5687"/>
<linearGradient id="linearGradient4224" x1="32.835" x2="68.879" y1="30.932" y2="66.719" gradientTransform="matrix(1.202 0 0 1.1903 -13.489 -12.451)" gradientUnits="userSpaceOnUse">
<stop stop-color="#505050" offset="0"/>
<stop stop-color="#141414" offset=".5"/>
<stop stop-color="#505050" offset="1"/>
</linearGradient>
<radialGradient id="radialGradient4226" cx="50.936" cy="49.822" r="13.237" gradientTransform="matrix(1.3015 0 0 1.2796 -18.466 -17.999)" gradientUnits="userSpaceOnUse">
<stop stop-color="#ae74e0" offset="0"/>
<stop stop-color="#ae74e0" offset=".86611"/>
<stop stop-color="#e1b0ff" offset=".93921"/>
<stop stop-color="#765599" offset="1"/>
</radialGradient>
<radialGradient id="radialGradient4228" cx="50.936" cy="49.822" r="13.237" gradientTransform="matrix(1.0905 0 0 1.0722 -7.7213 -7.6651)" gradientUnits="userSpaceOnUse">
<stop stop-color="#e0c3ff" offset="0"/>
<stop stop-color="#e0c3ff" offset=".89171"/>
<stop stop-color="#7c5fac" offset="1"/>
</radialGradient>
<radialGradient id="radialGradient4230" cx="50.936" cy="49.822" r="13.237" gradientTransform="matrix(.60737 0 0 .59716 16.89 16.003)" gradientUnits="userSpaceOnUse">
<stop stop-color="#5defff" offset="0"/>
<stop stop-color="#660e73" offset="1"/>
</radialGradient>
<radialGradient id="radialGradient4232" cx="50.936" cy="49.822" r="13.237" gradientTransform="matrix(1.3015 0 0 1.2796 -18.466 -17.999)" gradientUnits="userSpaceOnUse">
<stop stop-opacity=".098039" offset="0"/>
<stop offset="1"/>
</radialGradient>
<linearGradient id="linearGradient4234" x1="53.473" x2="53.473" y1="63.649" y2="53.708" gradientTransform="matrix(1.019 0 0 1.0151 -45.95 15.571)" gradientUnits="userSpaceOnUse">
<stop stop-color="#fff" stop-opacity=".58824" offset="0"/>
<stop stop-color="#fff" stop-opacity="0" offset="1"/>
</linearGradient>
</defs>
<metadata>
<rdf:RDF>
<cc:Work rdf:about="">
<dc:format>image/svg+xml</dc:format>
<dc:type rdf:resource="http://purl.org/dc/dcmitype/StillImage"/>
<dc:title/>
</cc:Work>
</rdf:RDF>
</metadata>
<g transform="translate(0 -956.36)">
<g transform="matrix(.96875 0 0 .96875 0 32.887)">
<g transform="translate(1.5484 -1.5484)">
<g transform="matrix(1.0333 0 0 1.0358 -1.4474 955.81)">
<g transform="matrix(.99904 0 0 .99661 -.097762 -1024)">
<g transform="translate(-.14896 1026.1)">
<path d="m89.292 0.41503h-82.286c-3.7988 0-6.8571 3.0583-6.8571 6.8571v82.286c0 3.7989 3.0583 6.8571 6.8571 6.8571h82.286c3.7989 0 6.8571-3.0583 6.8571-6.8571v-82.286c0-3.7989-3.0583-6.8571-6.8571-6.8571z" opacity=".15"/>
<path d="m88.649 1.165h-81c-3.7395 0-6.75 3.0105-6.75 6.75v81c0 3.7395 3.0105 6.75 6.75 6.75h81c3.7395 0 6.75-3.0105 6.75-6.75v-81c0-3.7395-3.0105-6.75-6.75-6.75z" opacity=".15"/>
<path d="m88.006 1.915h-79.714c-3.6801 0-6.6429 2.9627-6.6429 6.6429v79.714c0 3.6801 2.9627 6.6429 6.6429 6.6429h79.714c3.6801 0 6.6429-2.9627 6.6429-6.6429v-79.714c0-3.6801-2.9627-6.6429-6.6429-6.6429z" fill="url(#linearGradient4071)"/>
<path d="m11.39 6.8022c-2.8565 0-5.1241 2.2884-5.1241 5.171v68.58c1.0972 1.6845 2.9688 2.8117 5.1241 2.8117h73.787c2.1553 0 4.0269-1.1272 5.1241-2.8117v-68.58c0-2.8826-2.2676-5.171-5.1241-5.171z" fill="#f5f3f3" opacity=".77865"/>
<g transform="matrix(.94322 0 0 .9626 3.957 2.2373)">
<path d="m1.8847 13.007v67.755h45.942c19.03 0 34.457-15.167 34.457-33.877 0-18.71-15.427-33.877-34.457-33.877z" fill="none" opacity=".37324"/>
<path d="m2.459 12.442v66.625h44.794c0.19012 0.0038 0.38341 0 0.57428 0 18.713 0 33.882-14.915 33.882-33.313 0-18.398-15.17-33.313-33.882-33.313-0.19087 0-0.38416-0.0038-0.57428 0z" fill="none" stroke="url(#linearGradient1442)" stroke-width="1.1389"/>
<path d="m2.459 12.442v66.625h44.794c0.19012 0.0038 0.38341 0 0.57428 0 18.713 0 33.882-14.915 33.882-33.313 0-18.398-15.17-33.313-33.882-33.313-0.19087 0-0.38416-0.0038-0.57428 0z" fill-opacity=".47347" stroke="url(#linearGradient1442)" stroke-width="1.1389"/>
<ellipse cx="47.827" cy="45.755" rx="21.248" ry="20.891" opacity=".15" stroke="#000" stroke-width="2.2777"/>
<ellipse cx="47.827" cy="45.755" rx="21.248" ry="20.891" fill="url(#linearGradient4224)"/>
<ellipse cx="47.827" cy="45.755" rx="21.248" ry="20.891" stroke="#fff" stroke-opacity=".42248" stroke-width="1.1389"/>
<path d="m47.827 16.395c-16.493 0-29.862 13.145-29.862 29.36 0 16.215 13.37 29.36 29.862 29.36 16.493 0 29.862-13.145 29.862-29.36 0-16.215-13.37-29.36-29.862-29.36zm0 0.52934c16.207 0 29.36 12.896 29.36 28.831 0 15.935-13.153 28.866-29.36 28.866s-29.324-12.932-29.324-28.866c0-15.935 13.117-28.831 29.324-28.831z" fill="#0f0f0f" opacity=".61972"/>
<path d="m47.827 17.524c-15.858 0-28.714 12.64-28.714 28.231 0 15.592 12.856 28.231 28.714 28.231 15.858 0 28.714-12.64 28.714-28.231 0-15.592-12.856-28.231-28.714-28.231zm0 0.56462c15.541 0 28.14 12.387 28.14 27.667 0 15.28-12.598 27.667-28.14 27.667s-28.14-12.387-28.14-27.667c0-15.28 12.598-27.667 28.14-27.667z" fill="#191919" opacity=".60563"/>
<path d="m47.827 18.653c-15.224 0-27.565 12.134-27.565 27.102 0 14.968 12.341 27.102 27.565 27.102 15.224 0 27.565-12.134 27.565-27.102 0-14.968-12.341-27.102-27.565-27.102zm0 0.56462c14.907 0 26.991 11.881 26.991 26.537 0 14.656-12.084 26.537-26.991 26.537s-26.991-11.881-26.991-26.537c0-14.656 12.084-26.537 26.991-26.537z" opacity=".60915"/>
<path d="m47.827 19.782c-14.59 0-26.417 11.628-26.417 25.973 0 14.344 11.827 25.973 26.417 25.973s26.417-11.628 26.417-25.973c0-14.344-11.827-25.973-26.417-25.973zm-1.328 0.56462c0.44046-0.02189 0.882 0 1.328 0 14.272 0 25.842 11.376 25.842 25.408 0 14.032-11.57 25.408-25.842 25.408s-25.842-11.376-25.842-25.408c0-13.594 10.86-24.728 24.514-25.408z" fill="#111" opacity=".65141"/>
<ellipse cx="47.827" cy="45.755" rx="17.228" ry="16.939" fill="url(#radialGradient4226)"/>
<ellipse cx="47.827" cy="45.755" rx="14.931" ry="14.68" fill="url(#radialGradient4228)"/>
<ellipse cx="47.827" cy="45.755" rx="12.634" ry="12.422" fill="#402370"/>
<ellipse cx="47.827" cy="45.755" rx="10.337" ry="10.163" fill="#7c5fac"/>
<ellipse cx="47.827" cy="45.755" rx="8.0399" ry="7.9047" fill="url(#radialGradient4230)"/>
<path d="m47.827 37.85c-4.4403 0-8.0399 3.5391-8.0399 7.9047 0 4.3657 3.5996 7.9047 8.0399 7.9047 4.4403 0 8.0399-3.5391 8.0399-7.9047 0-4.3656-3.5996-7.9047-8.0399-7.9047zm0 2.2585c3.1716 0 5.7428 2.5279 5.7428 5.6462 0 3.1183-2.5711 5.6462-5.7428 5.6462s-5.7428-2.5279-5.7428-5.6462c0-3.1183 2.5711-5.6462 5.7428-5.6462z" opacity=".09"/>
<path d="m47.827 37.85c-4.4403 0-8.0399 3.5391-8.0399 7.9047 0 4.3657 3.5996 7.9047 8.0399 7.9047 4.4403 0 8.0399-3.5391 8.0399-7.9047 0-4.3656-3.5996-7.9047-8.0399-7.9047zm0 1.6939c3.4888 0 6.317 2.7807 6.317 6.2109 0 3.4302-2.8282 6.2109-6.317 6.2109s-6.317-2.7807-6.317-6.2109c0-3.4302 2.8282-6.2109 6.317-6.2109z" opacity=".12"/>
<path d="m47.827 37.85c-4.4403 0-8.0399 3.5391-8.0399 7.9047 0 4.3657 3.5996 7.9047 8.0399 7.9047 4.4403 0 8.0399-3.5391 8.0399-7.9047 0-4.3656-3.5996-7.9047-8.0399-7.9047zm0 1.1292c3.806 0 6.8913 3.0335 6.8913 6.7755s-3.0853 6.7755-6.8913 6.7755-6.8913-3.0335-6.8913-6.7755 3.0853-6.7755 6.8913-6.7755z" opacity=".16"/>
<path d="m47.827 37.85c-4.4403 0-8.0399 3.5391-8.0399 7.9047 0 4.3657 3.5996 7.9047 8.0399 7.9047 4.4403 0 8.0399-3.5391 8.0399-7.9047 0-4.3656-3.5996-7.9047-8.0399-7.9047zm0 0.56462c4.1231 0 7.4656 3.2863 7.4656 7.3401 0 4.0538-3.3425 7.3401-7.4656 7.3401s-7.4656-3.2863-7.4656-7.3401c0-4.0538 3.3425-7.3401 7.4656-7.3401z" opacity=".2"/>
<path d="m47.827 33.333c-6.9776 0-12.634 5.5614-12.634 12.422 0 6.8603 5.6565 12.422 12.634 12.422 6.9776 0 12.634-5.5614 12.634-12.422 0-6.8603-5.6565-12.422-12.634-12.422zm0 1.6939c6.0261 0 10.911 4.803 10.911 10.728 0 5.9248-4.8851 10.728-10.911 10.728s-10.911-4.803-10.911-10.728c0-5.9248 4.8851-10.728 10.911-10.728z" opacity=".1"/>
<path d="m47.827 33.333c-6.9776 0-12.634 5.5614-12.634 12.422 0 6.8603 5.6565 12.422 12.634 12.422 6.9776 0 12.634-5.5614 12.634-12.422 0-6.8603-5.6565-12.422-12.634-12.422zm0 1.1292c6.3433 0 11.486 5.0558 11.486 11.292 0 6.2367-5.1422 11.292-11.486 11.292-6.3433 0-11.486-5.0558-11.486-11.292 0-6.2366 5.1422-11.292 11.486-11.292z" opacity=".15"/>
<path d="m47.827 33.333c-6.9776 0-12.634 5.5614-12.634 12.422 0 6.8603 5.6565 12.422 12.634 12.422 6.9776 0 12.634-5.5614 12.634-12.422 0-6.8603-5.6565-12.422-12.634-12.422zm0 0.56462c6.6604 0 12.06 5.3086 12.06 11.857s-5.3994 11.857-12.06 11.857c-6.6604 0-12.06-5.3086-12.06-11.857s5.3994-11.857 12.06-11.857z" opacity=".2"/>
<ellipse cx="47.827" cy="45.755" rx="17.228" ry="16.939" fill="url(#radialGradient4232)" opacity=".65845"/>
<ellipse transform="matrix(.7883 -.6153 .62823 .77803 0 0)" cx="8.641" cy="75.015" rx="9.2304" ry="5.0791" fill="url(#linearGradient4234)" opacity=".63028" stroke="#fff" stroke-opacity=".39216" stroke-width=".20341"/>
<path d="m47.827 31.075c-6.277 0-11.887 3.8698-14.034 9.6692l5.3838 1.9056c1.3212-3.5688 4.7872-5.9285 8.65-5.9285z" fill="#fff" opacity=".2"/>
<path d="m33.398 41.944c-0.33772 1.2392-0.50249 2.5283-0.50249 3.8112h5.7428c0-0.78949 0.1152-1.5665 0.32303-2.3291z" fill="#fff" opacity=".2"/>
</g>
<path d="m1.649 82.259v6c0 3.6801 2.9761 6.6562 6.6562 6.6562h79.687c3.6801 0 6.6563-2.9761 6.6563-6.6562v-6c0 3.6801-2.9761 6.6562-6.6563 6.6562h-79.687c-3.6801 0-6.6562-2.9761-6.6562-6.6562z" fill="url(#linearGradient4129)" opacity=".65818"/>
<rect x="5.524" y="80.665" width="84.25" height="4.25" rx="0" ry="4.25" fill="url(#radialGradient7462)" opacity=".55"/>
<rect transform="rotate(90)" x="5.975" y="-90.234" width="76.75" height="4.25" rx="0" ry="4.25" fill="url(#radialGradient7464)" opacity=".669"/>
<rect transform="matrix(1.0692 0 0 1.0477 4.4442 38.894)" x="2" y="-30" width="75.966" height="69.024" rx="3.957" ry="3.957" clip-path="url(#clipPath4156-4-1)" fill="url(#linearGradient4767)" opacity=".50781"/>
<g transform="matrix(1.2789 0 0 1.282 -26.181 1.8705)">
<g>
<ellipse transform="scale(1,-1)" cx="83.517" cy="-10.767" rx="5.1401" ry="5.0537" fill="url(#linearGradient4236)"/>
<ellipse cx="83.517" cy="10.767" rx="3.5338" ry="3.4744" fill="url(#radialGradient4238)" stroke="#000" stroke-opacity=".58824" stroke-width="1.2742"/>
</g>
</g>
<path d="m9.974 5.1445c-3.1166 0-5.668 2.5395-5.668 5.646v69.278c0 3.1065 2.5513 5.646 5.668 5.646h76.792c3.1166 0 5.668-2.5395 5.668-5.646v-69.278c0-3.1065-2.5513-5.646-5.668-5.646zm0 2.3194h76.792c1.8881 0 3.352 1.4801 3.352 3.3266v69.278c0 1.8465-1.4639 3.3266-3.352 3.3266h-76.792c-1.8881 0-3.352-1.4801-3.352-3.3266v-69.278c0-1.8465 1.4639-3.3266 3.352-3.3266z" color="#000000" fill="#1f2024" fill-opacity=".82297" style="text-decoration-line:none;text-indent:0;text-transform:none"/>
</g>
</g>
</g>
</g>
</g>
</g>
</svg>
