<?xml version="1.0" encoding="UTF-8"?>
<svg version="1.1" viewBox="0 0 48 48" xmlns="http://www.w3.org/2000/svg" xmlns:cc="http://creativecommons.org/ns#" xmlns:dc="http://purl.org/dc/elements/1.1/" xmlns:rdf="http://www.w3.org/1999/02/22-rdf-syntax-ns#" xmlns:xlink="http://www.w3.org/1999/xlink">
<metadata>
<rdf:RDF>
<cc:Work rdf:about="">
<dc:format>image/svg+xml</dc:format>
<dc:type rdf:resource="http://purl.org/dc/dcmitype/StillImage"/>
</cc:Work>
</rdf:RDF>
</metadata>
<defs>
<linearGradient id="linearGradient4172">
<stop stop-color="#bf4231" offset="0"/>
<stop stop-color="#e05e4c" offset="1"/>
</linearGradient>
<linearGradient id="linearGradient4217">
<stop offset="0"/>
<stop stop-opacity="0" offset="1"/>
</linearGradient>
<linearGradient id="linearGradient4171" x1="-16" x2="-8.664" y1="12" y2="9.744" gradientTransform="translate(11.39 -33.763)" gradientUnits="userSpaceOnUse" xlink:href="#linearGradient4172"/>
<linearGradient id="linearGradient4181" x1="-16" x2="-8.664" y1="12" y2="13.988" gradientTransform="translate(25.39 -4.2373)" gradientUnits="userSpaceOnUse" xlink:href="#linearGradient4172"/>
<linearGradient id="linearGradient4183" x1="-16" x2="-8.664" y1="12" y2="13.192" gradientTransform="translate(-2.6102 23.763)" gradientUnits="userSpaceOnUse" xlink:href="#linearGradient4172"/>
<linearGradient id="linearGradient4223" x1="34" x2="43" y1="9" y2="18" gradientTransform="translate(-43.763 -25.39)" gradientUnits="userSpaceOnUse" xlink:href="#linearGradient4217"/>
<linearGradient id="linearGradient4225" x1="9.246" x2="18" y1="33.122" y2="41.875" gradientTransform="translate(-47.763 -21.39)" gradientUnits="userSpaceOnUse" xlink:href="#linearGradient4217"/>
<linearGradient id="linearGradient4229" x1="21" x2="31" y1="21" y2="31" gradientTransform="translate(-45.763 -23.39)" gradientUnits="userSpaceOnUse" xlink:href="#linearGradient4217"/>
<linearGradient id="linearGradient4451" x1="21" x2="31" y1="21" y2="31" gradientTransform="translate(-52.763 -16.39)" gradientUnits="userSpaceOnUse" xlink:href="#linearGradient4217"/>
<linearGradient id="linearGradient4453" x1="-16" x2="-8.664" y1="12" y2="9.744" gradientTransform="translate(4.3898 -40.763)" gradientUnits="userSpaceOnUse" xlink:href="#linearGradient4172"/>
<linearGradient id="linearGradient4461" x1="21" x2="31" y1="21" y2="31" gradientTransform="translate(-38.763 -30.39)" gradientUnits="userSpaceOnUse" xlink:href="#linearGradient4217"/>
<linearGradient id="linearGradient4463" x1="-16" x2="-8.664" y1="12" y2="9.744" gradientTransform="translate(18.39 -26.763)" gradientUnits="userSpaceOnUse" xlink:href="#linearGradient4172"/>
<linearGradient id="linearGradient4071" x1="6" x2="90" y1="47" y2="47" gradientTransform="matrix(.55126 0 0 .55126 -2.2573 -1.706)" gradientUnits="userSpaceOnUse">
<stop stop-color="#b2babc" offset="0"/>
<stop stop-color="#fff" offset=".25"/>
<stop stop-color="#96a1a4" offset=".5"/>
<stop stop-color="#fbf9f9" offset=".75"/>
<stop stop-color="#b2b9bc" offset="1"/>
</linearGradient>
<linearGradient id="linearGradient4129" x1="1.5" x2="94.5" y1="88.172" y2="88.172" gradientTransform="matrix(.49792 0 0 .49792 .30339 .3034)" gradientUnits="userSpaceOnUse">
<stop offset="0"/>
<stop stop-opacity=".58824" offset=".1"/>
<stop stop-opacity=".58824" offset=".9"/>
<stop offset="1"/>
</linearGradient>
<radialGradient id="radialGradient7462" cx="13.948" cy="44.893" r="43.199" gradientTransform="matrix(.48554 0 0 .024493 17.182 40.22)" gradientUnits="userSpaceOnUse" xlink:href="#linearGradient3737"/>
<linearGradient id="linearGradient3737">
<stop stop-color="#fff" offset="0"/>
<stop stop-color="#fff" stop-opacity="0" offset="1"/>
</linearGradient>
<radialGradient id="radialGradient7464" cx="13.948" cy="44.893" r="43.199" gradientTransform="matrix(.44231 0 0 .024493 16.01 -45.2)" gradientUnits="userSpaceOnUse" xlink:href="#linearGradient3737"/>
<linearGradient id="linearGradient4767" x1="2.7714" x2="50.528" y1="-28.642" y2="14.514" gradientUnits="userSpaceOnUse" xlink:href="#linearGradient3737"/>
<clipPath id="clipPath4156-4-1">
<path d="m27.046-55.695-14.214 13.321h0.06127l15.653 21.771 10.231-10.546c-0.2169-1.1522-11.311-23.67-11.732-24.546zm-17.399 16.313-14.888 14.062 21.229 17.515 10.385-10.577zm31.491 12.951-9.7413 9.7136 8.9448 12.458 7.7808-7.555zm-49.84 4.3788-13.754 12.982 26.283 13.846 0.06127-0.0617-0.12253-0.0617 9.8332-10.053-22.301-16.652zm38.015 7.4008-9.8025 9.7753 11.579 9.5594 7.6276-7.4008-8.6691-11.009zm20.187 5.674-7.3825 7.2158 6.1878 8.5418 5.8202-6.1365zm-32.195 6.3215-9.5575 9.4977 13.662 7.185 7.9339-7.6784zm23.312 2.3744-7.1068 6.9383 8.3628 6.9074 5.3608-5.674-0.06127-0.0925-0.0919 0.12335-6.4635-8.2026zm-8.7304 8.5418-7.5051 7.3392 10.354 5.4581c1.3975-1.321 5.6751-6.1229 5.8509-6.3215z" fill="#fff" opacity=".6"/>
</clipPath>
</defs>
<path d="m44.689 0.3034h-40.971c-1.8915 0-3.4143 1.5228-3.4143 3.4143v40.971c0 1.8915 1.5228 3.4143 3.4143 3.4143h40.971c1.8915 0 3.4143-1.5228 3.4143-3.4143v-40.971c0-1.8915-1.5228-3.4143-3.4143-3.4143z" opacity=".15"/>
<path d="m44.369 0.67684h-40.331c-1.862 0-3.3609 1.499-3.3609 3.3609v40.331c0 1.862 1.499 3.3609 3.3609 3.3609h40.331c1.862 0 3.3609-1.499 3.3609-3.3609v-40.331c0-1.862-1.499-3.3609-3.3609-3.3609z" opacity=".15"/>
<path d="m44.049 1.0503h-39.691c-1.8324 0-3.3076 1.4752-3.3076 3.3076v39.691c0 1.8324 1.4752 3.3076 3.3076 3.3076h39.691c1.8324 0 3.3076-1.4752 3.3076-3.3076v-39.691c0-1.8324-1.4752-3.3076-3.3076-3.3076z" fill="url(#linearGradient4071)"/>
<path d="m5.9006 3.4837c-1.4223 0-2.5514 1.153-2.5514 2.6055v34.556c0.54633 0.84876 1.4782 1.4167 2.5514 1.4167h37.521c1.0732 0 1.2236 0.01811 1.7699-0.83064v-35.142c0-1.4525-1.1291-2.6055-2.5514-2.6055z" fill="#784421" opacity=".98"/>
<path d="m5.1955 2.6583c-1.5518 0-2.8222 1.2645-2.8222 2.8112v34.495c0 1.5468 1.2704 2.8112 2.8222 2.8112h38.236c1.5518 0 2.8222-1.2645 2.8222-2.8112v-34.495c0-1.5468-1.2704-2.8112-2.8222-2.8112zm0 1.1549h38.236c0.94012 0 1.669 0.73696 1.669 1.6564v34.495c0 0.91939-0.72891 1.6564-1.669 1.6564h-38.236c-0.94012 0-1.669-0.73696-1.669-1.6564v-34.495c0-0.91939 0.72891-1.6564 1.669-1.6564z" color="#000000" fill="#1f2224" fill-opacity=".8087" style="text-decoration-line:none;text-indent:0;text-transform:none"/>
<path d="m1.0503 41.055v2.9875c0 1.8324 1.4819 3.3143 3.3143 3.3143h39.678c1.8324 0 3.3143-1.4819 3.3143-3.3143v-2.9875c0 1.8324-1.4819 3.3143-3.3143 3.3143h-39.678c-1.8324 0-3.3143-1.4819-3.3143-3.3143z" fill="url(#linearGradient4129)" opacity=".65818"/>
<g transform="matrix(.9322 0 0 .90799 44.633 22.14)" stroke-width="1.0869">
<path d="m-35.763-20.39-7 7 7 7 7-7zm7 7 7 7 7-7-7-7zm14 0 7 7 7-7-7-7zm7 7-7 7 7 7 7-7zm0 14-7 7 7 7 7-7zm-7 7-7-7-7 7 7 7zm-14 0-7-7-7 7 7 7zm-7-7 7-7-7-7-7 7zm7-7 7 7 7-7-7-7z" fill="#d4ba94"/>
<path d="m-19.243-2.4816-2.5156 0.48828-3.0176 3.1934-0.05664 1.9668 17.443 17.443h3.627c1.108 0 2-0.892 2-2v-3.6113z" fill="url(#linearGradient4229)" opacity=".3"/>
<rect transform="rotate(-90)" x="-4.6102" y="-25.763" width="8" height="8" rx="4.4053" ry="4.2909" fill="url(#linearGradient4171)"/>
<path d="m-33.396 11.36-2.5156 0.48828-3.0176 3.1934-0.05664 1.9668 4.6016 4.6016h11.238z" fill="url(#linearGradient4225)" opacity=".3"/>
<rect transform="matrix(0,-1,-1,0,0,0)" x="-18.61" y="31.763" width="8" height="8" rx="4.4053" ry="4.2909" fill="url(#linearGradient4183)"/>
<path d="m-5.249-16.501-2.5156 0.48828-3.0176 3.1934-0.05664 1.9668 10.076 10.076v-11.238z" fill="url(#linearGradient4223)" opacity=".3"/>
<rect transform="matrix(0,-1,-1,0,0,0)" x="9.3898" y="3.7627" width="8" height="8" rx="4.4053" ry="4.2909" fill="url(#linearGradient4181)"/>
<path d="m-26.243 4.5184-2.5156 0.48828-3.0176 3.1934-0.05664 1.9668 11.443 11.443h11.238z" fill="url(#linearGradient4451)" opacity=".3"/>
<rect transform="rotate(-90)" x="-11.61" y="-32.763" width="8" height="8" rx="4.4053" ry="4.2909" fill="url(#linearGradient4453)"/>
<path d="m-12.243-9.4816-2.5156 0.48828-3.0176 3.1934-0.05664 1.9668 17.07 17.07v-11.238z" fill="url(#linearGradient4461)" opacity=".3"/>
<rect transform="rotate(-90)" x="2.3898" y="-18.763" width="8" height="8" rx="4.4053" ry="4.2909" fill="url(#linearGradient4463)"/>
</g>
<rect x="2.9797" y="40.261" width="41.949" height="2.1161" rx="2.1161" ry="2.1161" fill="url(#radialGradient7462)" opacity=".55"/>
<rect transform="rotate(90)" x="3.0718" y="-45.158" width="38.215" height="2.1161" rx="2.1161" ry="2.1161" fill="url(#radialGradient7464)" opacity=".669"/>
<rect transform="matrix(.53239 0 0 .52166 2.4421 19.463)" x="2" y="-30" width="75.966" height="69.024" rx="3.957" ry="3.957" clip-path="url(#clipPath4156-4-1)" fill="url(#linearGradient4767)" opacity=".7"/>
</svg>
