<?xml version="1.0" encoding="UTF-8"?>
<!-- Created with Inkscape (http://www.inkscape.org/) -->
<svg version="1.1" viewBox="0 0 48 48" xmlns="http://www.w3.org/2000/svg" xmlns:cc="http://creativecommons.org/ns#" xmlns:dc="http://purl.org/dc/elements/1.1/" xmlns:rdf="http://www.w3.org/1999/02/22-rdf-syntax-ns#" xmlns:xlink="http://www.w3.org/1999/xlink">
<defs>
<linearGradient id="linearGradient6303-33-0">
<stop stop-color="#fff" offset="0"/>
<stop stop-color="#fff" stop-opacity="0" offset="1"/>
</linearGradient>
<radialGradient id="radialGradient3093-0-3-6" cx="23.896" cy="3.99" r="20.397" gradientTransform="matrix(0 1.2316 -1.6258 0 18.487 -28.722)" gradientUnits="userSpaceOnUse">
<stop stop-color="#815a5a" offset="0"/>
<stop stop-color="#593e3e" offset=".26238"/>
<stop stop-color="#2f2121" offset=".66094"/>
<stop stop-color="#150f0f" offset="1"/>
</radialGradient>
<radialGradient id="radialGradient3974" cx="23.896" cy="3.99" r="20.397" gradientTransform="matrix(0 4.1567 -5.4867 0 53.893 -97.44)" gradientUnits="userSpaceOnUse" xlink:href="#radialGradient3093-0-3-6"/>
<linearGradient id="linearGradient4071" x1="6" x2="90" y1="47" y2="47" gradientTransform="matrix(1.106 0 0 1.1071 -5.1375 -4.0357)" gradientUnits="userSpaceOnUse">
<stop stop-color="#b2babc" offset="0"/>
<stop stop-color="#fff" offset=".25"/>
<stop stop-color="#96a1a4" offset=".5"/>
<stop stop-color="#fbf9f9" offset=".75"/>
<stop stop-color="#b2b9bc" offset="1"/>
</linearGradient>
<linearGradient id="linearGradient4129" x1="1.5" x2="94.5" y1="88.172" y2="88.172" gradientTransform="matrix(.99896 0 0 1 -2.9511e-6 2.5281e-5)" gradientUnits="userSpaceOnUse">
<stop offset="0"/>
<stop stop-opacity=".58824" offset=".1"/>
<stop stop-opacity=".58824" offset=".9"/>
<stop offset="1"/>
</linearGradient>
<radialGradient id="radialGradient7462" cx="13.948" cy="44.893" r="43.199" gradientTransform="matrix(.97412 0 0 .049191 33.863 80.167)" gradientUnits="userSpaceOnUse" xlink:href="#linearGradient6303-33-0"/>
<radialGradient id="radialGradient7464" cx="13.948" cy="44.893" r="43.199" gradientTransform="matrix(.88833 0 0 .049139 31.545 -90.074)" gradientUnits="userSpaceOnUse" xlink:href="#linearGradient6303-33-0"/>
<linearGradient id="linearGradient4767" x1="2.7714" x2="50.528" y1="-28.642" y2="14.514" gradientTransform="matrix(2.0189 0 0 2.0211 3.6206 37.019)" gradientUnits="userSpaceOnUse" xlink:href="#linearGradient6303-33-0"/>
<clipPath id="clipPath4156-4-1">
<path d="m27.046-55.695-14.214 13.321h0.06127l15.653 21.771 10.231-10.546c-0.2169-1.1522-11.311-23.67-11.732-24.546zm-17.399 16.313-14.888 14.062 21.229 17.515 10.385-10.577zm31.491 12.951-9.7413 9.7136 8.9448 12.458 7.7808-7.555zm-49.84 4.3788-13.754 12.982 26.283 13.846 0.06127-0.0617-0.12253-0.0617 9.8332-10.053-22.301-16.652zm38.015 7.4008-9.8025 9.7753 11.579 9.5594 7.6276-7.4008-8.6691-11.009zm20.187 5.674-7.3825 7.2158 6.1878 8.5418 5.8202-6.1365zm-32.195 6.3215-9.5575 9.4977 13.662 7.185 7.9339-7.6784zm23.312 2.3744-7.1068 6.9383 8.3628 6.9074 5.3608-5.674-0.06127-0.0925-0.0919 0.12335-6.4635-8.2026zm-8.7304 8.5418-7.5051 7.3392 10.354 5.4581c1.3975-1.321 5.6751-6.1229 5.8509-6.3215z" fill="#fff" opacity=".6"/>
</clipPath>
<clipPath id="clipPath3970-3">
<path d="m32 2.5c-16.277 0-29.5 13.223-29.5 29.5s13.223 29.5 29.5 29.5c16.277 0 29.5-13.223 29.5-29.5 0-16.277-13.223-29.5-29.5-29.5z" color="#000000" fill="url(#radialGradient3974)"/>
</clipPath>
<linearGradient id="linearGradient1114" x1="11.231" x2="54.383" y1="37.132" y2="37.132" gradientTransform="matrix(.22111 0 0 .22111 6.6934 6.6933)" gradientUnits="userSpaceOnUse">
<stop stop-color="#170418" offset="0"/>
<stop stop-color="#50386b" offset="1"/>
</linearGradient>
<linearGradient id="linearGradient1122" x1="22.526" x2="4.2144" y1="24.025" y2="6.3477" gradientUnits="userSpaceOnUse" xlink:href="#radialGradient3093-0-3-6"/>
</defs>
<metadata>
<rdf:RDF>
<cc:Work rdf:about="">
<dc:format>image/svg+xml</dc:format>
<dc:type rdf:resource="http://purl.org/dc/dcmitype/StillImage"/>
<dc:title/>
<dc:date>2019</dc:date>
<dc:creator>
<cc:Agent>
<dc:title>Cristian Pozzessere &lt; ilnanny &gt;</dc:title>
</cc:Agent>
</dc:creator>
<dc:subject>
<rdf:Bag>
<rdf:li>ilnanny</rdf:li>
<rdf:li>inkscape</rdf:li>
<rdf:li>vectorart</rdf:li>
<rdf:li>svg</rdf:li>
</rdf:Bag>
</dc:subject>
<dc:coverage>Italy</dc:coverage>
<dc:description>..when I have nothing to do, I scribble and have fun with inkscape.</dc:description>
</cc:Work>
</rdf:RDF>
</metadata>
<path d="m44.357 0.25h-40.714c-1.8796 0-3.3929 1.5132-3.3929 3.3929v40.714c0 1.8796 1.5132 3.3929 3.3929 3.3929h40.714c1.8796 0 3.3929-1.5132 3.3929-3.3929v-40.714c0-1.8796-1.5132-3.3929-3.3929-3.3929z" opacity=".15"/>
<path d="m44.039 0.62109h-40.078c-1.8503 0-3.3398 1.4896-3.3398 3.3398v40.078c0 1.8503 1.4896 3.3398 3.3398 3.3398h40.078c1.8503 0 3.3398-1.4896 3.3398-3.3398v-40.078c0-1.8503-1.4896-3.3398-3.3398-3.3398z" opacity=".15"/>
<path d="m43.721 0.99219h-39.442c-1.8209 0-3.2868 1.4659-3.2868 3.2868v39.442c0 1.8209 1.4659 3.2868 3.2868 3.2868h39.442c1.8209 0 3.2868-1.4659 3.2868-3.2868v-39.442c0-1.8209-1.4659-3.2868-3.2868-3.2868z" fill="url(#linearGradient4071)"/>
<rect x="3.0805" y="3.3682" width="42.058" height="38.309" rx="2.2868" ry="1.9721" fill="url(#linearGradient1122)"/>
<path d="m0.99219 40.746v2.9688c0 1.8209 1.4726 3.2935 3.2935 3.2935h39.429c1.8209 0 3.2935-1.4726 3.2935-3.2935v-2.9688c0 1.8209-1.4726 3.2935-3.2935 3.2935h-39.429c-1.8209 0-3.2935-1.4726-3.2935-3.2935z" fill="url(#linearGradient4129)" opacity=".65818"/>
<rect x="2.9095" y="39.957" width="41.686" height="2.1029" rx="4.25" ry="4.25" fill="url(#radialGradient7462)" opacity=".55"/>
<rect transform="rotate(90)" x="3.001" y="-44.823" width="37.975" height="2.1029" rx="4.2456" ry="4.2456" fill="url(#radialGradient7464)" opacity=".669"/>
<rect transform="matrix(.52905 0 0 .51838 1.5477 18.398)" x="2" y="-30" width="75.966" height="69.024" rx="7.9889" ry="7.9973" clip-path="url(#clipPath4156-4-1)" fill="url(#linearGradient4767)" opacity=".58"/>
<path d="m5.1114 2.5901c-1.5421 0-2.8045 1.2565-2.8045 2.7936v34.278c0 1.5371 1.2624 2.7936 2.8045 2.7936h37.996c1.5421 0 2.8045-1.2565 2.8045-2.7936v-34.278c0-1.5371-1.2624-2.7936-2.8045-2.7936zm0 1.1476h37.996c0.93422 0 1.6586 0.73234 1.6586 1.646v34.278c0 0.91362-0.72434 1.646-1.6586 1.646h-37.996c-0.93422 0-1.6586-0.73234-1.6586-1.646v-34.278c0-0.91362 0.72434-1.646 1.6586-1.646z" color="#000000" fill="#202223" fill-opacity=".93689" style="text-decoration-line:none;text-indent:0;text-transform:none"/>
<path d="m5.1114 2.5901c-1.5421 0-2.8045 1.2565-2.8045 2.7936v34.278c0 1.5371 1.2624 2.7936 2.8045 2.7936h37.996c1.5421 0 2.8045-1.2565 2.8045-2.7936v-34.278c0-1.5371-1.2624-2.7936-2.8045-2.7936zm0 1.1476h37.996c0.93422 0 1.6586 0.73234 1.6586 1.646v34.278c0 0.91362-0.72434 1.646-1.6586 1.646h-37.996c-0.93422 0-1.6586-0.73234-1.6586-1.646v-34.278c0-0.91362 0.72434-1.646 1.6586-1.646z" color="#000000" fill="#202223" fill-opacity=".93689" style="text-decoration-line:none;text-indent:0;text-transform:none"/>
<g transform="matrix(.64342 0 0 .64342 2.8914 .93044)" clip-path="url(#clipPath3970-3)" stroke-width="1.4286">
<path d="m28 5.3125c-5.1678 0.11694-4.7877 6.5353-4.4688 10.219-0.216 1.6445 1.024 5.8756 0.46875 5.9688-3.2842-3.2679-2.7758-10.894-8.4688-11.281-5.5514-0.21855-5.0699 7.5608-2.25 10.531 2.6545 6.5656 8.4999 12.316 6.9062 20-2.6392 2.8579 0.9191 5.6759-0.8125 9.3438 2.2402 4.1065 0.74968 9.1639 2.8438 13.344-0.29493 6.1753 8.1103 5.513 12.344 5.5625 3.6275-0.85528 10.728-0.16263 8.1562-5.6875-1.6973-5.4462 0.48803-10.634 2.5312-15.531-0.3835-2.9334-0.13845-5.3834 1.8438-7.7188 1.8646-2.6244 4.802-4.347 6.4062-7.1562 1.4076-2.1731 1.02-5.6843-0.375-7.75-2.5794-2.7987-7.3498-0.08338-6.8125 3.5312-1.1773 0.7535-4.6013 3.9861-3.0312 0.59375 1.9405-5.0262 3.4543-10.148 4.1875-15.438-0.41244-4.9068-7.9376-4.5338-8.4062 0.21875-0.68852 4.0888-3.2695 9.1964-4.0938 12.094-2.1614-5.9597-1.9898-12.388-3.0938-18.469-0.64188-1.5132-2.1646-2.679-3.875-2.375z" fill="url(#linearGradient1114)" opacity=".19"/>
<g stroke-width="1.4286">
<path d="m41.062 65.734c-0.41726-2.7018-0.9823-5.6324-0.87821-8.4685 0.04363-1.1887 0.3052-2.3678 0.62729-3.5128 0.35855-1.2746 0.93945-2.4763 1.4428-3.701 0.3204-0.77963 1.0037-2.0701 1.0037-2.321 0-0.25092 0.05491-1.8417 0-2.7601-0.03142-0.52556-0.28651-1.051-0.18819-1.5682 0.22189-1.1673 1.128-2.0916 1.6937-3.1365 0.39648-0.73228 0.69364-1.5283 1.1919-2.1955 0.65461-0.8767 1.5007-1.5969 2.321-2.321 0.53619-0.47334 1.2217-0.77996 1.6937-1.3173 0.54432-0.6197 0.75919-1.4733 1.2546-2.1328 0.31094-0.41392 0.89587-0.64032 1.0664-1.1291 0.24195-0.69353 0.01096-1.4885-0.18819-2.1955-0.06339-0.22502-0.30139-0.39384-0.31365-0.62729-0.01874-0.35682 0.43017-0.65044 0.37638-1.0037-0.07179-0.47138-0.46758-0.88677-0.87821-1.1291-0.34638-0.20443-0.79566-0.25747-1.1919-0.18819-0.47014 0.08221-0.95328 0.31988-1.2546 0.69002-0.35909 0.44113-0.41725 1.0685-0.50183 1.631-0.06529 0.43422 0 1.3173 0 1.3173s-0.96012 0.71328-1.4428 1.0664c-0.60423 0.44206-1.1842 0.92068-1.8192 1.3173-0.60296 0.37664-1.1878 0.84992-1.8819 1.0037-0.75646 0.16755-1.7594 0.40829-2.321-0.12546-0.28957-0.2752-0.13998-0.79264-0.12546-1.1919 0.03012-0.82797 0.2125-1.6495 0.43911-2.4464 0.26444-0.92997 0.71512-1.7966 1.0664-2.6974 0.21163-0.54267 0.47591-1.0685 0.62729-1.631 0.13759-0.5112 0.1448-1.0496 0.25092-1.5682 0.06913-0.33785 0.15694-0.67187 0.25092-1.0037 0.2451-0.86532 0.57917-1.7041 0.81548-2.5719 0.19726-0.72434 0.32191-1.4667 0.50183-2.1955 0.25405-1.0291 0.81915-2.0137 0.81548-3.0737-0.0016-0.47681-0.09397-0.99585-0.37638-1.38-0.36758-0.50007-0.94896-0.96252-1.5682-1.0037-0.69071-0.04589-1.3858 0.39538-1.8819 0.87821-0.26804 0.26089-0.37279 0.65259-0.50183 1.0037-0.42342 1.1519-0.51148 2.4044-0.87821 3.5756-0.40149 1.2822-0.93555 2.5196-1.4428 3.7638-0.3182 0.78053-0.7625 1.5133-1.0037 2.321-0.13966 0.46774-0.13158 0.96944-0.25092 1.4428-0.08082 0.32058-0.21206 0.62632-0.31365 0.94094-0.2154 0.66711-0.38119 1.3509-0.62729 2.0073-0.20049 0.53476-0.69002 1.5682-0.69002 1.5682l-0.4391 0.18819s-0.87776-0.15519-1.1919-0.4391c-0.70762-0.63963-0.92597-1.6764-1.2546-2.5719-0.37913-1.0331-0.54891-2.1315-0.81548-3.1992-0.23464-0.9398-0.49122-1.8748-0.69002-2.8228-0.24835-1.1843-0.43298-2.3812-0.62729-3.5756-0.13581-0.83477-0.29966-1.6669-0.37638-2.5092-0.11576-1.2709-0.0021-2.5563-0.12546-3.8265-0.07572-0.7801-0.04941-1.6087-0.37638-2.321-0.21667-0.47203-0.53275-0.97277-1.0037-1.1919-0.47396-0.2205-1.0522-0.083735-1.5682 0-0.32634 0.052958-0.68118 0.10913-0.94094 0.31365-0.30998 0.24406-0.42124 0.66723-0.62729 1.0037-0.12735 0.20795-0.31128 0.39229-0.37638 0.62729-0.26791 0.96725 0 2.0073 0 3.011 0 1.38-0.08992 2.763 0 4.1401 0.08382 1.2837 0.33842 2.5505 0.50184 3.8265 0.06425 0.50164 0.06372 1.0153 0.18819 1.5055 0.1271 0.50055 0.4087 0.95042 0.56456 1.4428 0.31835 1.0057 0.58297 2.0326 0.75275 3.0737 0.12158 0.74551 0.8039 1.8207 0.18819 2.2583-0.33573 0.23859-0.79881-0.2558-1.1291-0.50183-0.92762-0.69094-1.5441-1.7248-2.2583-2.6346-0.73088-0.93118-1.4356-1.8862-2.0701-2.8855-0.55191-0.86928-1.0213-1.7886-1.5055-2.6974-0.69473-1.304-1.3595-2.624-2.0073-3.9519-0.47577-0.97523-0.58306-2.2119-1.38-2.9483-0.52487-0.48495-1.2939-0.71211-2.0073-0.75275-0.51644-0.02942-1.1195 0.032-1.5055 0.37638-0.39992 0.35682-0.46894 0.97814-0.56456 1.5055-0.13058 0.7201-0.14486 1.4782 0 2.1955 0.17066 0.84507 0.60179 1.621 1.0037 2.3837 0.32444 0.61577 0.81548 1.2546 1.1291 1.7564 0.31365 0.50183 0.92972 1.8172 1.3173 2.7601 0.1936 0.47095 0.27066 0.98909 0.50183 1.4428 0.26598 0.52198 0.68737 0.94965 1.0037 1.4428 0.51114 0.79689 0.95354 1.6359 1.4428 2.4464 0.43181 0.71538 1.3173 2.1328 1.3173 2.1328l0.4391 1.631 0.25092 1.9446 0.62729 1.5055v3.4501l-0.18819 1.7564 1.2546-0.94094 0.81548 0.87821 0.69002 1.9446-0.18819 1.7564-1.9446-1.3173-1.631 0.50183 1.8819 3.4501-1.3173 0.75275 0.31365 0.94094-0.75275 0.69002 0.37638 1.5682s0.65454 0.91431 0.81548 1.4428c0.3177 1.0432 0.1606 2.1751 0.25092 3.2619 0.09736 1.1716 0.05122 2.3669 0.31365 3.5128 0.22453 0.98046 0.81548 2.4464 1.0664 2.8228 0.25092 0.37637-0.19454 2.81 0.75275 3.5756 5.2603 1.7054 9.3091 1.7295 16.184-0.06273z" fill="#b0c6a5"/>
<path d="m27.45 25.713c0.56456 0.94094 1.0748 2.725 1.0037 4.2656-0.02838 0.61432-0.10572 1.5979-0.56456 2.0073-0.39775 0.35495-1.0377 0.26112-1.5682 0.31365-0.37454 0.03709-0.86762-0.27068-1.1291 0-0.42158 0.43636-0.21793 1.2812 0.06273 1.8192 0.29016 0.55615 1.2394 0.56106 1.5055 1.1291 0.34634 0.73946-0.52139 1.7323-0.12546 2.4464 0.41754 0.75312 1.6498 0.64522 2.2583 1.2546 0.94566 0.9471 1.6937 3.6383 1.9446 3.5128 0.25092-0.12546-0.49572-7.2741-0.43911-10.915 0.0046-0.29345-0.20428-0.7564 0.06273-0.87821 0.38047-0.17357 0.73571 0.43168 1.0037 0.75275 0.38946 0.46666 0.5632 1.078 0.81548 1.631 0.27237 0.59705 0.26187 1.3836 0.75275 1.8192 0.40606 0.36028 1.3173 0.4391 1.5682 0.4391 0.25092 0 1.7564 0.6273 1.7564 0.6273l-0.06273 4.1401s1.2546 0.75275 1.5682 0.81548 0.9641 0.34659 1.4428 0.25092c0.26734-0.05343 0.69002-0.4391 0.69002-0.4391l-0.12546-2.6346 0.25092-3.1365s6.94e-4 -1.8892 0.12546-2.8228c0.11357-0.84974 0.28248-1.6996 0.56456-2.5092 0.42773-1.2276 1.2433-2.2934 1.6937-3.5128 1.0491-2.8403 2.321-8.7821 2.321-8.7821s-1.5509 1.7198-2.4464 2.4464c-0.44586 0.36176-1.1574 0.44274-1.4428 0.94094-0.21852 0.38144-0.25092 1.0664-0.06273 1.3173 0.18819 0.25092 0.64063 1.0179 0.56456 1.5682-0.04925 0.35636-0.30058 0.72762-0.62729 0.87821-0.43841 0.20208-0.96589-0.20041-1.4428-0.12546-0.42584 0.06693-0.9136 0.1726-1.1919 0.50183-0.23572 0.2789-0.25092 0.69002-0.25092 1.0664s0.12546 1.38 0 1.7564c-0.12546 0.37638-0.31867 1.2174-0.50183 1.8191-0.11552 0.37954-0.31983 0.73644-0.37638 1.1291-0.08351 0.57986 0.0963 1.1715 0.06273 1.7564-0.03999 0.69675-0.31365 2.0701-0.31365 2.0701s-0.80526 0.29918-1.1919 0.18819c-0.61258-0.17586-0.96036-0.8381-1.4428-1.2546-0.43776-0.37794-0.9614-0.67328-1.3173-1.1291-0.40284-0.51594-0.69282-1.1286-0.87821-1.7564-0.26814-0.90797-0.1684-1.8873-0.31365-2.8228-0.08179-0.52679-0.26112-1.0377-0.31365-1.5682-0.07005-0.70747 0.12335-1.4326 0-2.1328-0.12739-0.72309-0.29924-1.4926-0.75275-2.0701-0.2794-0.35574-0.70064-0.60779-1.1291-0.75275-0.61529-0.20816-1.3733 0.18359-1.9446-0.12546-0.18391-0.09949-0.33229-0.29744-0.37637-0.50183-0.12193-0.56534 0.09086-1.1907 0.37637-1.6937 0.25558-0.45022 0.97796-0.57126 1.1291-1.0664 0.25034-0.81994-0.10516-1.7854-0.56456-2.5092-0.38326-0.60386-1.1747-0.82517-1.6937-1.3173-0.30116-0.2856-0.81548-0.94094-0.81548-0.94094s-0.01457 2.5532 0.06273 3.8265c0.09683 1.595 0.17426 3.2034 0.50183 4.7674 0.29689 1.4175 0.52385 2.8177 1.3173 4.1401z" opacity=".1"/>
<path d="m13.744 14.927 0.07951 2.7541c0.16222 0.34191 0.33815 0.67249 0.51323 1.0048 0.32444 0.61577 0.82124 1.2547 1.1349 1.7565 0.06281 0.10049 0.14129 0.25582 0.22408 0.41203 0.01687 0.02786 0.02708 0.05219 0.04337 0.07951 0.0047 0.0091 0.0097 0.01243 0.01446 0.02169 0.07438 0.12533 0.15053 0.25123 0.20963 0.36143 0.23966 0.44691 0.43445 0.91264 0.61443 1.3879 0.0035 0.0092 0.0038 0.01972 0.0072 0.02891 0.06902 0.1595 0.14237 0.32382 0.2024 0.46986 0.07303 0.17766 0.12632 0.36428 0.18071 0.54937 0.16291 0.43257 0.33428 0.86085 0.54214 1.2722 0.0019 0.0028 0.0053 0.0044 0.0072 0.0072 0.24444 0.36036 0.53805 0.68836 0.77346 1.0554 0.28417 0.44302 0.54807 0.90204 0.8096 1.359 0.66427 0.89989 1.3214 1.7992 1.7421 2.8264 0.02026 0.04946 0.03907 0.10189 0.05783 0.1518 0.03661 0.05868 0.1518 0.24577 0.1518 0.24577l0.44094 1.6264 0.24577 1.9445 0.62888 1.5108v0.62166c0.03015 0.1241 0.05481 0.24889 0.07229 0.37588 0.1613 1.1722 0.30271 2.432-0.08674 3.5492-0.03894 0.11171-0.0865 0.2302-0.13734 0.34697l-0.03614 0.31083 1.2578-0.93971 0.81683 0.87466 0.68671 1.9445-0.18794 1.7565-1.9445-1.3156-1.6337 0.49877 1.8867 3.4553-1.3228 0.75177 0.31806 0.93971-0.75177 0.68671 0.31083 1.2939c0.39996 0.60092 0.72886 1.1939 0.9108 1.7276 0.11418 0.33495 0.15085 0.68094 0.1518 1.0337 0.0578 0.734 0.0041 1.4851 0.06506 2.2192 0.09736 1.1716 0.05563 2.3671 0.31806 3.5131 0.22453 0.98046 0.81168 2.45 1.0626 2.8264 0.25092 0.37637-0.19552 2.8053 0.75177 3.5709 5.2603 1.7054 9.3097 1.7344 16.185-0.05783-0.41726-2.7018-0.97875-5.6358-0.87466-8.4719 0.04363-1.1887 0.29957-2.3681 0.62166-3.5131 0.35855-1.2746 0.94239-2.4763 1.4457-3.701 0.3204-0.77963 1.0048-2.0695 1.0048-2.3204 0-0.25092 0.05491-1.8429 0-2.7613-0.03142-0.52556-0.28626-1.0514-0.18794-1.5686 0.22189-1.1673 1.1258-2.0923 1.6915-3.1372 0.39648-0.73228 0.6945-1.523 1.1927-2.1903 0.65461-0.8767 1.5001-1.5963 2.3204-2.3204 0.53619-0.47334 1.2195-0.78547 1.6915-1.3228 0.54432-0.6197 0.76237-1.473 1.2578-2.1324 0.31094-0.41392 0.8993-0.63885 1.0698-1.1277 0.11552-0.33114 0.11745-0.68413 0.07229-1.0409-0.1165-0.14377-0.24142-0.27188-0.38312-0.38311-0.25691-0.20169-0.69304-0.25736-0.97586-0.09397-0.36661 0.21179-0.30874 0.79866-0.53491 1.1566-0.24676 0.39048-0.73187 0.62828-0.88911 1.0626-0.07047 0.19463 0.13805 0.46742 0 0.62166-0.35717 0.39905-1.1148-0.05128-1.5975 0.18072-0.82923 0.39854-1.3129 1.2896-1.9517 1.9517-0.81359 0.84317-1.644 1.672-2.3927 2.5734-0.54037 0.65061-1.0077 1.3586-1.5108 2.0385-0.591 0.79872-1.5027 1.436-1.771 2.3927-0.26461 0.94346 0.27187 1.9477 0.26746 2.9276-0.0054 1.1887-0.07924 2.3927-0.3542 3.5492-0.19054 0.80141-0.73873 1.496-0.88911 2.3059-0.18354 0.98852 0.0511 2.0102 0 3.0143-0.07402 1.4546 0.03682 2.9757-0.44094 4.3516-0.12647 0.36422-0.263 0.83437-0.62166 0.97586-0.88068 0.34743-1.8753-0.3563-2.7541-0.7084-1.0691-0.42836-1.9469-1.2588-3.0143-1.6915-0.85088-0.34489-1.7568-0.5439-2.6601-0.7084-0.58475-0.10649-1.1861-0.12196-1.7782-0.17349-0.79758-0.06941-1.7656 0.31703-2.3927-0.18071-0.38825-0.30818-0.56428-0.93669-0.44094-1.4168 0.25499-0.99256 1.6484-1.2765 2.2119-2.1324 0.55577-0.84407 1.0752-1.8302 1.0698-2.8408-0.0052-0.98297-0.83618-1.792-1.0698-2.7469-0.2546-1.0404 0.0124-2.1886-0.3542-3.195-0.36492-1.0018-1.2691-1.7195-1.771-2.6601-0.43692-0.8188-0.8817-1.6631-1.0626-2.5734-0.15562-0.7831 0.13853-1.6064 0-2.3927-0.1201-0.68174-0.49181-1.2967-0.71563-1.9517-0.25096-0.73451-0.87617-1.4613-0.7084-2.2192 0.11308-0.5108 0.98904-0.63968 1.0698-1.1566 0.21654-1.3855-1.0579-2.6062-1.7782-3.8095-0.45567-0.76116-0.92992-1.5482-1.5975-2.1324-0.63762-0.55799-1.7907-0.51233-2.2192-1.2433-0.32897-0.56126 0.18852-1.3291 0-1.9517-0.30897-1.0204-1.0702-1.8566-1.771-2.6601-0.67475-0.77357-1.7047-1.2064-2.3059-2.0385-0.2638-0.36508-0.53491-1.2433-0.53491-1.2433z" opacity=".1"/>
<path d="m22.368 38.861v0.33974l-0.18794 1.7565 1.2578-0.93971 0.81683 0.87466 0.68671 1.9445-0.18794 1.7565-1.9445-1.3156-1.6337 0.49877 1.8867 3.4553-1.3228 0.75177 0.31806 0.93971-0.75177 0.68671 0.37588 1.5686s0.65589 0.91725 0.81683 1.4457c0.12409 0.40749 0.17292 0.83119 0.19517 1.2578 0.38589-0.27311 0.78684-0.59817 0.99031-0.89634 0.71206-1.0435-0.03556-3.4872 0.30985-4.7024 0.24323-0.85569 1.0296-1.2887 1.1789-2.1656 0.21887-1.2856 0.6603-1.9453 0.54974-3.2448-0.08513-1.0005-0.69494-1.9288-1.3984-2.6453-0.6521-0.66416-0.97512-1.3295-1.9556-1.3666z" fill="#a00"/>
<path d="m22.809 43.277-1.6337 0.49877 1.8867 3.4553-0.0506 0.02891h0.84574l0.13734-0.48431 0.66503-0.66503 0.31083-1.1566-0.20963-0.41926-0.0072 0.05783-1.9445-1.3156zm0.16626 4.0046-1.2361 0.70117 0.31806 0.93971-0.75177 0.68671 0.34697 1.4385 0.52046-0.76623 0.26746-0.93248 0.62166-0.66503-0.08674-1.4023z" fill="#fff6d5"/>
<ellipse transform="matrix(.26544 0 0 .258 -.95914 6.3271)" cx="109.15" cy="13.017" rx="8.2712" ry="10.576" fill="#fff6d5" opacity=".3"/>
<ellipse transform="matrix(.17615 .048659 -.063396 .20691 25.797 6.6365)" cx="109.15" cy="13.017" rx="8.2712" ry="10.576" fill="#fff6d5" opacity=".3"/>
<ellipse transform="matrix(.25504 -.073595 .071533 .24789 -13.175 19.385)" cx="109.15" cy="13.017" rx="8.2712" ry="10.576" fill="#fff6d5" opacity=".3"/>
<path d="m51.726 28.159s-0.93934-0.0041-0.95583-0.28418c-0.01869-0.31745-0.0315-0.70528 0.12546-1.0037 0.11722-0.22284 0.31314-0.51522 0.56456-0.50183 0.31041 0.01652 0.54432 0.39046 0.62729 0.69002 0.05692 0.2055-0.04069 0.43163-0.12546 0.62729-0.0715 0.16505-0.23602 0.47237-0.23602 0.47237z" fill="#fff6d5" opacity=".3"/>
</g>
</g>
</svg>
