<?xml version="1.0" encoding="UTF-8"?>
<!-- Created with Inkscape (http://www.inkscape.org/) -->
<svg version="1.1" viewBox="0 0 96 96" xmlns="http://www.w3.org/2000/svg" xmlns:cc="http://creativecommons.org/ns#" xmlns:dc="http://purl.org/dc/elements/1.1/" xmlns:rdf="http://www.w3.org/1999/02/22-rdf-syntax-ns#" xmlns:xlink="http://www.w3.org/1999/xlink">
<title>Lila-HD-Icon-Theme</title>
<defs>
<linearGradient id="linearGradient4573">
<stop stop-color="#c6fcd1" offset="0"/>
<stop stop-color="#dba875" offset=".35925"/>
<stop stop-color="#6de977" offset=".75891"/>
<stop stop-color="#f31ca7" offset="1"/>
</linearGradient>
<linearGradient id="linearGradient4071" x1="6" x2="90" y1="47" y2="47" gradientTransform="matrix(1.1071 0 0 1.1071 -4.9939 -3.6207)" gradientUnits="userSpaceOnUse" xlink:href="#linearGradient6139-0"/>
<linearGradient id="linearGradient6139-0">
<stop stop-color="#b2babc" offset="0"/>
<stop stop-color="#fff" offset=".25"/>
<stop stop-color="#96a1a4" offset=".5"/>
<stop stop-color="#fbf9f9" offset=".75"/>
<stop stop-color="#b2b9bc" offset="1"/>
</linearGradient>
<linearGradient id="linearGradient4129" x1="1.5" x2="94.5" y1="88.172" y2="88.172" gradientTransform="translate(.14895 .41503)" gradientUnits="userSpaceOnUse">
<stop offset="0"/>
<stop stop-opacity=".58824" offset=".1"/>
<stop stop-opacity=".58824" offset=".9"/>
<stop offset="1"/>
</linearGradient>
<radialGradient id="radialGradient7462" cx="13.948" cy="44.893" r="43.199" gradientTransform="matrix(.97513 0 0 .049191 34.048 80.582)" gradientUnits="userSpaceOnUse" xlink:href="#linearGradient3737"/>
<linearGradient id="linearGradient3737">
<stop stop-color="#fff" offset="0"/>
<stop stop-color="#fff" stop-opacity="0" offset="1"/>
</linearGradient>
<radialGradient id="radialGradient7464" cx="13.948" cy="44.893" r="43.199" gradientTransform="matrix(.88833 0 0 .049191 31.96 -90.317)" gradientUnits="userSpaceOnUse" xlink:href="#linearGradient3737"/>
<linearGradient id="linearGradient4767" x1="2.7714" x2="50.528" y1="-28.642" y2="14.514" gradientUnits="userSpaceOnUse" xlink:href="#linearGradient3737"/>
<clipPath id="clipPath4156-4-1">
<path d="m27.046-55.695-14.214 13.321h0.06127l15.653 21.771 10.231-10.546c-0.2169-1.1522-11.311-23.67-11.732-24.546zm-17.399 16.313-14.888 14.062 21.229 17.515 10.385-10.577zm31.491 12.951-9.7413 9.7136 8.9448 12.458 7.7808-7.555zm-49.84 4.3788-13.754 12.982 26.283 13.846 0.06127-0.0617-0.12253-0.0617 9.8332-10.053-22.301-16.652zm38.015 7.4008-9.8025 9.7753 11.579 9.5594 7.6276-7.4008-8.6691-11.009zm20.187 5.674-7.3825 7.2158 6.1878 8.5418 5.8202-6.1365zm-32.195 6.3215-9.5575 9.4977 13.662 7.185 7.9339-7.6784zm23.312 2.3744-7.1068 6.9383 8.3628 6.9074 5.3608-5.674-0.06127-0.0925-0.0919 0.12335-6.4635-8.2026zm-8.7304 8.5418-7.5051 7.3392 10.354 5.4581c1.3975-1.321 5.6751-6.1229 5.8509-6.3215z" fill="#fff" opacity=".6"/>
</clipPath>
<linearGradient x1="8.1347" x2="85.383" y1="22.13" y2="22.13" gradientUnits="userSpaceOnUse" xlink:href="#linearGradient4573"/>
<radialGradient id="radialGradient4633" cx="47.429" cy="22.641" r="36.684" gradientTransform="matrix(1 0 0 1.0642 0 -1.4539)" gradientUnits="userSpaceOnUse" xlink:href="#linearGradient6139-0"/>
</defs>
<metadata>
<rdf:RDF>
<cc:Work rdf:about="">
<dc:format>image/svg+xml</dc:format>
<dc:type rdf:resource="http://purl.org/dc/dcmitype/StillImage"/>
<dc:title>Lila-HD-Icon-Theme</dc:title>
<dc:date>2015-2017</dc:date>
<dc:creator>
<cc:Agent>
<dc:title>Cristian Pozzessere  &lt; ilnanny &gt;</dc:title>
</cc:Agent>
</dc:creator>
<dc:subject>
<rdf:Bag>
<rdf:li>ilnanny</rdf:li>
<rdf:li>lila_hd</rdf:li>
<rdf:li>lila-hd</rdf:li>
<rdf:li>lila hd icon theme</rdf:li>
<rdf:li>Lila-HD-Icon-Theme lila hd icon lila icon</rdf:li>
</rdf:Bag>
</dc:subject>
<dc:description>Playing with Inkscape on Gnu/Linux O. S.</dc:description>
<dc:contributor>
<cc:Agent>
<dc:title>In the night, alone like a dog.</dc:title>
</cc:Agent>
</dc:contributor>
<cc:license rdf:resource="http://creativecommons.org/licenses/by-sa/3.0/"/>
</cc:Work>
<cc:License rdf:about="http://creativecommons.org/licenses/by-sa/3.0/">
<cc:permits rdf:resource="http://creativecommons.org/ns#Reproduction"/>
<cc:permits rdf:resource="http://creativecommons.org/ns#Distribution"/>
<cc:requires rdf:resource="http://creativecommons.org/ns#Notice"/>
<cc:requires rdf:resource="http://creativecommons.org/ns#Attribution"/>
<cc:permits rdf:resource="http://creativecommons.org/ns#DerivativeWorks"/>
<cc:requires rdf:resource="http://creativecommons.org/ns#ShareAlike"/>
</cc:License>
</rdf:RDF>
</metadata>
<g transform="translate(0 -1026.5)">
<g transform="translate(-.14896 1026.1)">
<path d="m89.292 0.41503h-82.286c-3.7988 0-6.8571 3.0583-6.8571 6.8571v82.286c0 3.7989 3.0583 6.8571 6.8571 6.8571h82.286c3.7989 0 6.8571-3.0583 6.8571-6.8571v-82.286c0-3.7989-3.0583-6.8571-6.8571-6.8571z" opacity=".15"/>
<path d="m88.649 1.165h-81c-3.7395 0-6.75 3.0105-6.75 6.75v81c0 3.7395 3.0105 6.75 6.75 6.75h81c3.7395 0 6.75-3.0105 6.75-6.75v-81c0-3.7395-3.0105-6.75-6.75-6.75z" opacity=".15"/>
<path d="m88.006 1.915h-79.714c-3.6801 0-6.6429 2.9627-6.6429 6.6429v79.714c0 3.6801 2.9627 6.6429 6.6429 6.6429h79.714c3.6801 0 6.6429-2.9627 6.6429-6.6429v-79.714c0-3.6801-2.9627-6.6429-6.6429-6.6429z" fill="url(#linearGradient4071)"/>
<path d="m10.722 6.8022c-2.901 0-5.204 2.3163-5.204 5.2342v69.418c1.1143 1.7051 3.0151 2.8461 5.204 2.8461h74.937c2.1889 0 4.0897-1.141 5.204-2.8461v-69.418c0-2.9178-2.303-5.2342-5.204-5.2342z" fill="#056ec9" opacity=".96"/>
<path d="m9.974 5.1445c-3.1166 0-5.668 2.5395-5.668 5.646v69.278c0 3.1065 2.5513 5.646 5.668 5.646h76.792c3.1166 0 5.668-2.5395 5.668-5.646v-69.278c0-3.1065-2.5513-5.646-5.668-5.646zm0 2.3194h76.792c1.8881 0 3.352 1.4801 3.352 3.3266v69.278c0 1.8465-1.4639 3.3266-3.352 3.3266h-76.792c-1.8881 0-3.352-1.4801-3.352-3.3266v-69.278c0-1.8465 1.4639-3.3266 3.352-3.3266z" color="#000000" fill="#202223" fill-opacity=".99061" style="text-decoration-line:none;text-indent:0;text-transform:none"/>
<path d="m1.649 82.259v6c0 3.6801 2.9761 6.6562 6.6562 6.6562h79.687c3.6801 0 6.6563-2.9761 6.6563-6.6562v-6c0 3.6801-2.9761 6.6562-6.6563 6.6562h-79.687c-3.6801 0-6.6562-2.9761-6.6562-6.6562z" fill="url(#linearGradient4129)" opacity=".65818"/>
<rect x="5.524" y="80.665" width="84.25" height="4.25" rx="0" ry="4.25" fill="url(#radialGradient7462)" opacity=".55"/>
<rect transform="rotate(90)" x="5.975" y="-90.234" width="76.75" height="4.25" rx="0" ry="4.25" fill="url(#radialGradient7464)" opacity=".669"/>
<g transform="matrix(-1.0008 0 0 .85605 94.868 25.748)" fill="url(#radialGradient4633)" stroke="#c3c3c3" aria-label="&gt;#-_">
<path d="m50.814 12.125c-0.47494 1.9322-0.94988 3.8644-1.4248 5.7966h-5.042c0.19859 2.8534 7.3419 2.7922 3.1836 6.4564-1.3164 0.4275-6.7125 0.47225-3.1646 2.0479 4.4029-0.29033-0.17172 7.108 3.3922 5.3563 0.31801-2.3539 3.2126-7.6392 5.3463-4.0129-0.24594 1.4264-1.4301 6.5048 1.0362 3.6311 0.35484-3.3988 3.9612-5.1201 6.2558-5.2222-0.82622-2.0245-6.3225-1.9349-3.0559-5.5646 1.3804-0.64758 6.5834-0.40434 3.6463-2.4719-4.7401 0.69852-0.36371-5.5137-3.1576-5.6063-2.0805 1.6858-2.1271 8.3202-5.7911 4.3822-0.96607-1.6364 3.0505-5.6248-1.2245-4.7926zm-39.539 1.8581c-1.0109 3.7066 3.8838 3.9602 6.233 5.0133 3.1895 1.1363 6.3791 2.2726 9.5686 3.4089-5.2672 1.8667-10.534 3.7334-15.802 5.6002-0.67005 4.3862 4.9319 0.74494 6.9984 0.25456 4.2233-1.5317 8.4467-3.0634 12.67-4.5951 0.04584-4.6558-6.2714-4.0199-9.2236-5.8937-3.4816-1.2627-6.9632-2.5254-10.445-3.7881zm39.831 6.0886c4.7116-2.2528 4.8549 6.4536 0.11007 4.7088-2.5484 0.3065 0.05232-3.4266-0.11007-4.7088zm-20.827 7.6731c-0.80367 4.6261 5.5355 2.5554 8.2237 3.0667 4.2096-0.10295 0.03982-4.5682-2.4993-3.1049-1.9054 0.08884-3.8165 0.01472-5.7244 0.03821zm33.898 0.19279c0.06969 4.1341 5.3244 2.339 7.9684 2.6256h11.568c-0.06969-4.1341-5.3244-2.339-7.9684-2.6256h-11.568zm-20.158 9.8841c0.85982 2.0473 0.35466 5.7764 2.0686 6.7713h4.3931c-0.0451 3.2516-7.0059 3.1222-3.5468 7.2545 1.2373 1.0627 7.2456 0.63485 3.5278 2.6798-4.6655-0.07095 0.29807 8.0761-3.3895 6.257-0.22384-2.4541-3.0812-8.9032-5.3421-4.6876 0.15876 1.5041 1.5982 7.4885-1.0354 4.2416-0.20045-3.628-3.7962-6.0069-6.2509-6.1003-0.18234-2.6294 5.6618-1.1817 3.6835-4.77 0.68215-3.7161-7.8807-1.1927-4.2734-4.6179 4.976 0.46887 0.26329-6.3121 3.1551-6.549 2.1219 1.6919 1.7194 9.0533 5.5652 5.5485 1.7998-1.8021-3.1945-6.8601 1.4448-6.028zm39.507 2.1706c1.191 3.9309-3.6434 4.6922-6.2164 5.8515-3.1909 1.329-6.3818 2.658-9.5726 3.987 5.263 2.1806 10.526 4.3612 15.789 6.5418 0.92197 4.8883-4.8564 1.0895-6.9929 0.29736-4.22-1.7893-8.44-3.5785-12.66-5.3678-0.50621-4.5624 5.1228-4.6864 8.0121-6.3742 3.8802-1.6452 7.7605-3.2904 11.641-4.9357zm-39.799 7.1124c-4.1318-2.4799-5.2474 6.0394-1.2074 5.4599 4.2152 1.0284 1.1174-3.3599 1.2074-5.4599zm20.81 8.9634c1.2407 4.7278-4.8857 3.4186-7.6292 3.5242-4.7208 0.79421-1.3807-5.3934 1.9093-3.5689 1.9028 0.10378 3.8136 0.01719 5.7199 0.04463zm-33.871 0.22521c0.25548 4.4861-5.1788 2.923-7.9626 3.0672h-11.558c-0.25548-4.4861 5.1788-2.923 7.9626-3.0672h11.558zm13.353-72.206c0.47456 2.2571 0.94913 4.5142 1.4237 6.7713h5.038c-0.0451 3.2516-7.0059 3.1222-3.5468 7.2545 1.2373 1.0627 7.2456 0.63485 3.5278 2.6798-4.6655-0.070948 0.29807 8.0761-3.3895 6.257-0.22384-2.4541-3.0812-8.9032-5.3421-4.6876 0.15876 1.5041 1.5982 7.4885-1.0354 4.2416-0.20045-3.628-3.7962-6.0069-6.2509-6.1003-0.18234-2.6294 5.6618-1.1817 3.6835-4.77 0.68215-3.7161-7.8807-1.1927-4.2734-4.6179 4.976 0.46887 0.26329-6.3121 3.1551-6.549 2.1219 1.6919 1.7194 9.0533 5.5652 5.5485 1.7998-1.8021-3.1945-6.8601 1.4448-6.028zm39.507 2.1706c1.191 3.9309-3.6434 4.6922-6.2164 5.8515-3.1909 1.329-6.3818 2.658-9.5726 3.987 5.263 2.1806 10.526 4.3612 15.789 6.5418 0.92197 4.8883-4.8564 1.0895-6.9929 0.29736-4.22-1.7893-8.44-3.5785-12.66-5.3678-0.50621-4.5624 5.1228-4.6864 8.0121-6.3742 3.8802-1.6452 7.7605-3.2904 11.641-4.9357zm-39.799 7.1124c-4.1318-2.4799-5.2474 6.0394-1.2074 5.4599 4.2152 1.0284 1.1174-3.3599 1.2074-5.4599zm20.81 8.9634c1.2407 4.7278-4.8857 3.4186-7.6292 3.5242-4.7208 0.79421-1.3807-5.3934 1.9093-3.5689 1.9028 0.10378 3.8136 0.017191 5.7199 0.044633zm-33.871 0.22521c0.25548 4.4861-5.1788 2.923-7.9626 3.0672h-11.558c-0.25548-4.4861 5.1788-2.923 7.9626-3.0672h11.558z" fill="url(#radialGradient4633)" stroke="#c3c3c3" stroke-width=".78554"/>
</g>
<rect transform="matrix(1.0692 0 0 1.0477 4.4442 38.894)" x="2" y="-30" width="75.966" height="69.024" rx="3.957" ry="3.957" clip-path="url(#clipPath4156-4-1)" fill="url(#linearGradient4767)" opacity=".65"/>
</g>
</g>
</svg>
