<?xml version="1.0" encoding="UTF-8"?>
<!-- Created with Inkscape (http://www.inkscape.org/) -->
<svg version="1.1" viewBox="0 0 96 96" xmlns="http://www.w3.org/2000/svg" xmlns:cc="http://creativecommons.org/ns#" xmlns:dc="http://purl.org/dc/elements/1.1/" xmlns:rdf="http://www.w3.org/1999/02/22-rdf-syntax-ns#" xmlns:xlink="http://www.w3.org/1999/xlink">
<defs>
<linearGradient id="linearGradient4071" x1="6" x2="90" y1="47" y2="47" gradientTransform="matrix(1.1025 0 0 1.1025 -4.9725 -3.2034)" gradientUnits="userSpaceOnUse">
<stop stop-color="#ced2d8" offset="0"/>
<stop stop-color="#fff" offset=".25"/>
<stop stop-color="#bbc0c7" offset=".5"/>
<stop stop-color="#f9fafb" offset=".75"/>
<stop stop-color="#d7dade" offset="1"/>
</linearGradient>
<linearGradient id="linearGradient4129" x1="1.5" x2="94.5" y1="88.172" y2="88.172" gradientTransform="matrix(.99583 0 0 .99583 .14895 .81544)" gradientUnits="userSpaceOnUse">
<stop offset="0"/>
<stop stop-opacity=".58824" offset=".1"/>
<stop stop-opacity=".58824" offset=".9"/>
<stop offset="1"/>
</linearGradient>
<radialGradient id="radialGradient7462" cx="13.948" cy="44.893" r="43.199" gradientTransform="matrix(.97107 0 0 .048986 33.906 80.349)" gradientUnits="userSpaceOnUse" xlink:href="#linearGradient3737"/>
<linearGradient id="linearGradient3737">
<stop stop-color="#fff" offset="0"/>
<stop stop-color="#fff" stop-opacity="0" offset="1"/>
</linearGradient>
<radialGradient id="radialGradient7464" cx="13.948" cy="44.893" r="43.199" gradientTransform="matrix(.88462 0 0 .048986 32.228 -89.941)" gradientUnits="userSpaceOnUse" xlink:href="#linearGradient3737"/>
<filter id="filter967" x="-.16508" y="-.020203" width="1.3302" height="1.0404" color-interpolation-filters="sRGB">
<feGaussianBlur stdDeviation="0.67211985"/>
</filter>
<linearGradient id="linearGradient918" x1="75.693" x2="75.65" y1="41.68" y2="30.348" gradientTransform="matrix(.66233 0 0 .79544 -30.834 37.765)" gradientUnits="userSpaceOnUse" xlink:href="#linearGradient930"/>
<linearGradient id="linearGradient930">
<stop stop-color="#d6d9de" offset="0"/>
<stop stop-color="#fff" offset=".1491"/>
<stop stop-color="#bbc0c7" offset=".47479"/>
<stop stop-color="#f9fafb" offset=".80042"/>
<stop stop-color="#d7dade" offset="1"/>
</linearGradient>
<linearGradient id="linearGradient938" x1="73.702" x2="73.546" y1="22.269" y2="38.362" gradientTransform="matrix(.66233 0 0 .79544 -30.834 37.765)" gradientUnits="userSpaceOnUse" xlink:href="#linearGradient950"/>
<linearGradient id="linearGradient950">
<stop stop-color="#ced2d8" offset="0"/>
<stop stop-color="#c3cdd4" offset=".25"/>
<stop stop-color="#bbc0c7" offset=".5"/>
<stop stop-color="#f9fafb" offset=".75"/>
<stop stop-color="#d7dade" offset="1"/>
</linearGradient>
<linearGradient id="linearGradient967" x1="67.79" x2="81.363" y1="20.388" y2="20.388" gradientTransform="matrix(.66233 0 0 .79544 -30.834 37.765)" gradientUnits="userSpaceOnUse" xlink:href="#linearGradient930"/>
<linearGradient id="linearGradient958">
<stop stop-color="#fefefe" offset="0"/>
<stop stop-color="#fefefe" stop-opacity="0" offset="1"/>
</linearGradient>
<radialGradient id="radialGradient1123-2" cx="31.688" cy="43.73" r="4.5305" gradientTransform="matrix(-2.1136 .12849 -.11765 -1.8692 103.87 99.319)" gradientUnits="userSpaceOnUse" xlink:href="#linearGradient958"/>
<filter id="filter1006-7" x="-.10844" y="-.16785" width="1.2169" height="1.3357" color-interpolation-filters="sRGB">
<feGaussianBlur stdDeviation="0.8669909"/>
</filter>
<radialGradient id="radialGradient1125-6" cx="31.688" cy="43.73" r="4.5305" gradientTransform="matrix(-2.1161 .080765 -.11765 -2.9771 103.95 149.28)" gradientUnits="userSpaceOnUse" xlink:href="#linearGradient958"/>
<filter id="filter1006-0" x="-.10844" y="-.16785" width="1.2169" height="1.3357" color-interpolation-filters="sRGB">
<feGaussianBlur stdDeviation="0.8669909"/>
</filter>
<linearGradient id="linearGradient1910" x1="2.7714" x2="50.528" y1="-28.642" y2="14.514" gradientUnits="userSpaceOnUse" xlink:href="#linearGradient3737"/>
<clipPath id="clipPath4156-4-1-7">
<path d="m27.046-55.695-14.214 13.321h0.06127l15.653 21.771 10.231-10.546c-0.2169-1.1522-11.311-23.67-11.732-24.546zm-17.399 16.313-14.888 14.062 21.229 17.515 10.385-10.577zm31.491 12.951-9.7413 9.7136 8.9448 12.458 7.7808-7.555zm-49.84 4.3788-13.754 12.982 26.283 13.846 0.06127-0.0617-0.12253-0.0617 9.8332-10.053-22.301-16.652zm38.015 7.4008-9.8025 9.7753 11.579 9.5594 7.6276-7.4008-8.6691-11.009zm20.187 5.674-7.3825 7.2158 6.1878 8.5418 5.8202-6.1365zm-32.195 6.3215-9.5575 9.4977 13.662 7.185 7.9339-7.6784zm23.312 2.3744-7.1068 6.9383 8.3628 6.9074 5.3608-5.674-0.06127-0.0925-0.0919 0.12335-6.4635-8.2026zm-8.7304 8.5418-7.5051 7.3392 10.354 5.4581c1.3975-1.321 5.6751-6.1229 5.8509-6.3215z" fill="#fff" opacity=".6"/>
</clipPath>
<linearGradient id="linearGradient2452" x1="75.693" x2="75.65" y1="41.68" y2="30.348" gradientTransform="matrix(.66133 0 0 .81653 -11.188 7.5499)" gradientUnits="userSpaceOnUse" xlink:href="#linearGradient930"/>
<linearGradient id="linearGradient2454" x1="73.702" x2="73.546" y1="22.269" y2="38.362" gradientTransform="matrix(.66133 0 0 .81653 -11.188 7.5499)" gradientUnits="userSpaceOnUse" xlink:href="#linearGradient950"/>
<linearGradient id="linearGradient2456" x1="67.79" x2="81.363" y1="20.388" y2="20.388" gradientTransform="matrix(.66133 0 0 .81653 -11.188 7.5499)" gradientUnits="userSpaceOnUse" xlink:href="#linearGradient930"/>
<radialGradient id="radialGradient1231" cx="31.688" cy="43.73" r="4.5305" gradientTransform="matrix(-2.1161 .080765 -.11765 -2.9771 103.95 149.28)" gradientUnits="userSpaceOnUse" xlink:href="#linearGradient950"/>
</defs>
<metadata>
<rdf:RDF>
<cc:Work rdf:about="">
<dc:format>image/svg+xml</dc:format>
<dc:type rdf:resource="http://purl.org/dc/dcmitype/StillImage"/>
<dc:title/>
<dc:date>2017</dc:date>
<dc:creator>
<cc:Agent>
<dc:title>Cristian Pozzessere "ilnanny"</dc:title>
</cc:Agent>
</dc:creator>
<dc:subject>
<rdf:Bag>
<rdf:li>Global language</rdf:li>
</rdf:Bag>
</dc:subject>
<dc:description>Playing with Inkscape on Gnu/Linux O. S.</dc:description>
<dc:contributor>
<cc:Agent>
<dc:title>In the night, alone like a dog.</dc:title>
</cc:Agent>
</dc:contributor>
<cc:license rdf:resource="http://creativecommons.org/licenses/by-sa/4.0/"/>
</cc:Work>
<cc:License rdf:about="http://creativecommons.org/licenses/by-sa/4.0/">
<cc:permits rdf:resource="http://creativecommons.org/ns#Reproduction"/>
<cc:permits rdf:resource="http://creativecommons.org/ns#Distribution"/>
<cc:requires rdf:resource="http://creativecommons.org/ns#Notice"/>
<cc:requires rdf:resource="http://creativecommons.org/ns#Attribution"/>
<cc:permits rdf:resource="http://creativecommons.org/ns#DerivativeWorks"/>
<cc:requires rdf:resource="http://creativecommons.org/ns#ShareAlike"/>
</cc:License>
</rdf:RDF>
</metadata>
<g transform="translate(0 -1026.5)">
<g transform="matrix(.99896 0 0 .99896 -.098801 1026.2)">
<g transform="translate(.20021 -.2002)">
<path d="m88.92 0.81544h-81.943c-3.783 0-6.8285 3.0455-6.8285 6.8285v81.943c0 3.783 3.0455 6.8285 6.8285 6.8285h81.943c3.783 0 6.8285-3.0455 6.8285-6.8285v-81.943c0-3.783-3.0455-6.8285-6.8285-6.8285z" opacity=".15"/>
<path d="m88.28 1.5623h-80.662c-3.7239 0-6.7218 2.9979-6.7218 6.7218v80.662c0 3.7239 2.9979 6.7218 6.7218 6.7218h80.662c3.7239 0 6.7218-2.9979 6.7218-6.7218v-80.662c0-3.7239-2.9979-6.7218-6.7218-6.7218z" opacity=".15"/>
<path d="m87.64 2.3092h-79.382c-3.6648 0-6.6151 2.9504-6.6151 6.6151v79.382c0 3.6648 2.9504 6.6151 6.6151 6.6151h79.382c3.6648 0 6.6151-2.9504 6.6151-6.6151v-79.382c0-3.6648-2.9504-6.6151-6.6151-6.6151z" fill="url(#linearGradient4071)"/>
<path d="m10.701 7.1759c-2.8983 0-5.1992 2.3066-5.1992 5.2121v69.125c1.1133 1.6979 3.0123 2.8341 5.1992 2.8341h74.868c2.1868 0 4.0859-1.1362 5.1992-2.8341v-69.125c0-2.9055-2.3008-5.2121-5.1992-5.2121z" fill="#e4e8ed"/>
<path d="m1.6427 82.318v5.975c0 3.6648 2.9637 6.6285 6.6285 6.6285h79.355c3.6648 0 6.6285-2.9637 6.6285-6.6285v-5.975c0 3.6648-2.9637 6.6285-6.6285 6.6285h-79.355c-3.6648 0-6.6285-2.9637-6.6285-6.6285z" fill="url(#linearGradient4129)" opacity=".703"/>
<rect x="5.5015" y="80.432" width="83.899" height="4.2323" rx="0" ry="4.2323" fill="url(#radialGradient7462)" opacity=".66"/>
<rect transform="rotate(90)" x="6.3522" y="-89.858" width="76.43" height="4.2323" rx="0" ry="4.2323" fill="url(#radialGradient7464)" opacity=".782"/>
<path transform="matrix(-.62226 0 0 1.0026 65.063 .096219)" d="m73.338 6.9318c-1.902 0-3.4922 0.26895-3.4922 2.276v72.472c0 2.0071 1.7311 1.8554 3.6331 1.8554h2.7871c1.902 0 3.3513 0.15172 3.3513-1.8554v-72.472c0-2.0071-1.5902-2.276-3.4922-2.276zm0.30664 2.5996h2.1719v71.825h-2.1719z" color="#000000" color-rendering="auto" dominant-baseline="auto" fill="#fdfdfe" filter="url(#filter967)" image-rendering="auto" opacity=".853" shape-rendering="auto" solid-color="#000000" stroke="#fff" stroke-linecap="square" stroke-linejoin="round" stroke-opacity=".73288" stroke-width="3.9036" style="font-feature-settings:normal;font-variant-alternates:normal;font-variant-caps:normal;font-variant-ligatures:normal;font-variant-numeric:normal;font-variant-position:normal;isolation:auto;mix-blend-mode:normal;paint-order:fill markers stroke;shape-padding:0;text-decoration-color:#000000;text-decoration-line:none;text-decoration-style:solid;text-indent:0;text-orientation:mixed;text-transform:none;white-space:normal"/>
<rect transform="scale(-1,1)" x="-20.418" y="7.6429" width="3.7162" height="76.031" rx=".99098" ry=".58458" fill="#3d5059" style="paint-order:fill markers stroke"/>
<path transform="matrix(-.62226 0 0 1.0026 84.634 .099872)" d="m73.338 6.9318c-1.902 0-3.4922 0.26895-3.4922 2.276v72.472c0 2.0071 1.7311 1.8554 3.6331 1.8554h2.7871c1.902 0 3.3513 0.15172 3.3513-1.8554v-72.472c0-2.0071-1.5902-2.276-3.4922-2.276zm0.30664 2.5996h2.1719v71.825h-2.1719z" color="#000000" color-rendering="auto" dominant-baseline="auto" fill="#fdfdfe" filter="url(#filter967)" image-rendering="auto" opacity=".853" shape-rendering="auto" solid-color="#000000" stroke="#fff" stroke-linecap="square" stroke-linejoin="round" stroke-opacity=".73288" stroke-width="3.9036" style="font-feature-settings:normal;font-variant-alternates:normal;font-variant-caps:normal;font-variant-ligatures:normal;font-variant-numeric:normal;font-variant-position:normal;isolation:auto;mix-blend-mode:normal;paint-order:fill markers stroke;shape-padding:0;text-decoration-color:#000000;text-decoration-line:none;text-decoration-style:solid;text-indent:0;text-orientation:mixed;text-transform:none;white-space:normal"/>
<rect transform="scale(-1,1)" x="-39.99" y="7.6465" width="3.7162" height="76.031" rx=".99098" ry=".58458" fill="#3f535d" style="paint-order:fill markers stroke"/>
<path d="m33.409 21.723h9.4467c0.31554 0 0.56957 0.31364 0.56957 0.70323v19.652c0 0.38959-0.25403 0.70323-0.56957 0.70323h-9.4467c-0.31554 0-0.56956-0.31364-0.56956-0.70323v-19.652c0-0.38959 0.25403-0.70323 0.56956-0.70323z" color="#000000" fill="none" stroke="#444d52" stroke-opacity=".91096" stroke-width="1.406"/>
<path d="m33.739 22.345h8.6599c0.28926 0 0.52213 0.29279 0.52213 0.65649v18.346c0 0.3637-0.23287 0.6565-0.52213 0.6565h-8.6599c-0.28926 0-0.52213-0.2928-0.52213-0.6565v-18.346c0-0.3637 0.23287-0.65649 0.52213-0.65649z" color="#000000" fill="#f5f5f5" fill-opacity=".99658" opacity=".858"/>
<path d="m33.644 22.989h8.9764v18.124l-0.32059 0.40275h-8.3352l-0.32058-0.40275z" color="#000000" fill="url(#linearGradient2452)"/>
<path d="m33.644 22.989 0.32058 2.4165v16.11l-0.32058-0.40275z" color="#000000" fill="#9cb4ba" fill-opacity=".9726"/>
<path d="m42.62 22.989-0.32059 2.4165v7.6524 8.4579l0.32059-0.40275z" color="#000000" fill="#360f0f" fill-opacity=".30976"/>
<rect x="33.964" y="25.406" width="8.3352" height="7.6524" color="#000000" fill="url(#linearGradient2454)"/>
<path d="m33.644 22.989 0.32058 2.4165h8.3352l0.32059-2.4165z" color="#000000" fill="url(#linearGradient2456)"/>
<path d="m33.964 25.406v16.11m-0.32058-18.527 0.32058 2.4165h8.3352" color="#000000" fill="none" stroke="#314752" stroke-width=".20723"/>
<path d="m42.62 22.989-0.32059 2.4165v16.11h-8.3352" color="#000000" fill="none" stroke="#28343c" stroke-opacity=".99658" stroke-width=".18224"/>
<path d="m34.149 32.978h7.9739l0.17087 0.07033" fill="none" stroke="#304851" stroke-width=".25315px"/>
<ellipse transform="matrix(.32058 0 0 .40276 27.873 18.156)" cx="31.746" cy="26.54" rx="9.5939" ry="6.1985" fill="url(#radialGradient1123-2)" filter="url(#filter1006-7)" opacity=".59898" style="paint-order:fill markers stroke"/>
<ellipse transform="matrix(.32058 0 0 .40276 27.873 27.175)" cx="31.746" cy="26.54" rx="9.5939" ry="6.1985" fill="url(#radialGradient1125-6)" filter="url(#filter1006-7)" opacity=".33" style="paint-order:fill markers stroke"/>
<path d="m13.83 51.572h9.461c0.31602 0 0.57043 0.30554 0.57043 0.68507v19.144c0 0.37952-0.25441 0.68506-0.57043 0.68506h-9.461c-0.31602 0-0.57043-0.30554-0.57043-0.68506v-19.144c0-0.37953 0.25441-0.68507 0.57043-0.68507z" color="#000000" fill="none" stroke="#444d52" stroke-opacity=".91096" stroke-width="1.3888"/>
<path d="m14.161 52.178h8.6731c0.2897 0 0.52292 0.28524 0.52292 0.63954v17.872c0 0.3543-0.23322 0.63954-0.52292 0.63954h-8.6731c-0.2897 0-0.52292-0.28524-0.52292-0.63954v-17.872c0-0.3543 0.23322-0.63954 0.52292-0.63954z" color="#000000" fill="#f5f5f5" fill-opacity=".99658" opacity=".858"/>
<path d="m14.065 52.806h8.99v17.656l-0.32107 0.39236h-8.3479l-0.32107-0.39236z" color="#000000" fill="url(#linearGradient918)"/>
<path d="m14.065 52.806 0.32107 2.3541v15.694l-0.32107-0.39236z" color="#000000" fill="#9cb4ba" fill-opacity=".9726"/>
<path d="m23.055 52.806-0.32107 2.3541v7.4547 8.2394l0.32107-0.39236z" color="#000000" fill="#360f0f" fill-opacity=".30976"/>
<rect x="14.386" y="55.16" width="8.3479" height="7.4547" color="#000000" fill="url(#linearGradient938)"/>
<path d="m14.065 52.806 0.32107 2.3541h8.3479l0.32107-2.3541z" color="#000000" fill="url(#linearGradient967)"/>
<path d="m14.386 55.16v15.694m-0.32107-18.048 0.32107 2.3541h8.3479" color="#000000" fill="none" stroke="#314752" stroke-width=".20469"/>
<path d="m23.055 52.806-0.32107 2.3541v15.694h-8.3479" color="#000000" fill="none" stroke="#28343c" stroke-opacity=".99658" stroke-width=".18001"/>
<path d="m14.571 62.537h7.986l0.17113 0.06851" fill="none" stroke="#304851" stroke-width=".25005px"/>
<ellipse transform="matrix(.32107 0 0 .39235 8.286 48.097)" cx="31.746" cy="26.54" rx="9.5939" ry="6.1985" fill="url(#radialGradient1123-2)" filter="url(#filter1006-0)" opacity=".59898" style="paint-order:fill markers stroke"/>
<ellipse transform="matrix(.32107 0 0 .39235 8.286 56.884)" cx="31.746" cy="26.54" rx="9.5939" ry="6.1985" fill="url(#radialGradient1231)" filter="url(#filter1006-0)" opacity=".33" style="paint-order:fill markers stroke"/>
<path d="m9.9331 5.5252c-3.1036 0-5.6443 2.5289-5.6443 5.6225v68.989c0 3.0935 2.5407 5.6225 5.6443 5.6225h76.471c3.1036 0 5.6443-2.5289 5.6443-5.6225v-68.989c0-3.0935-2.5407-5.6225-5.6443-5.6225zm0 2.3098h76.471c1.8802 0 3.338 1.4739 3.338 3.3127v68.989c0 1.8388-1.4578 3.3127-3.338 3.3127h-76.471c-1.8802 0-3.338-1.4739-3.338-3.3127v-68.989c0-1.8388 1.4578-3.3127 3.338-3.3127z" color="#000000" fill="#1e2225" fill-opacity=".94714" style="text-decoration-line:none;text-indent:0;text-transform:none"/>
<rect transform="matrix(1.0648 0 0 1.0433 4.3195 39.195)" x="2" y="-30" width="75.966" height="69.024" rx="3.957" ry="3.957" clip-path="url(#clipPath4156-4-1-7)" fill="url(#linearGradient1910)" opacity=".386"/>
<path d="m61.103 78.132h8.4492 1.1522c0.38405 0 0.77556-0.07566 1.1522 0 0.2807 0.05637 0.4904 0.31592 0.76811 0.38563 0.07832 0.01971 1.7488 0.0574 1.9203 0 0.27157-0.0909 0.49654-0.29474 0.76811-0.38563 0.26416-0.08843 0.92556 0.11378 1.1522 0 0.32386-0.1626 0.46683-0.56959 0.7681-0.77126 0.23818-0.15943 0.52993-0.22619 0.7681-0.38562 0.15065-0.10083 0.25604-0.51417 0.38405-0.38563 0.12802 0.12854-0.51207 0.51417-0.38405 0.38563 0.25604-0.25708 0.51207-0.51417 0.76811-0.77126m-18.228-13.988c-0.42797 1.7189-0.75729 1.1677 0 1.9281 0.12802 0.12854 0.22212 0.30433 0.38405 0.38563 0.229 0.11499 0.52521-0.08129 0.76811 0 0.27157 0.0909 0.49654 0.29474 0.76811 0.38563 0.08434 0.02822 1.4791 0.02864 1.5362 0 1.2737-1.279-0.36209 0.18179 0.76811-0.38563 0.32386-0.16258 0.44424-0.60866 0.7681-0.77126 0.229-0.11498 0.5391 0.11498 0.76811 0 0.16193-0.0813 0.22212-0.30433 0.38406-0.38563 0.05709-0.02865 1.4519-0.0282 1.5362 0 0.15981 0.0535 0.80509 0.55988 1.1522 0.38563 0.16193-0.0813 0.22212-0.30433 0.38405-0.38563 0.11688-0.05868 0.9792 0 1.1522 0h2.6884 1.9203c0.38405 0 0.78781-0.12193 1.1522 0 0.17176 0.0575 0.2123 0.32814 0.38405 0.38563 0.20647 0.0691 1.2111 0 1.5362 0m-19.971-11.849c0.51207 0 1.0311-0.08455 1.5362 0 0.28236 0.04724 0.49654 0.29473 0.76811 0.38562 0.22248 0.07448 1.2034 0 1.5362 0 0.17296 0 1.0353 0.05868 1.1522 0 0.52373-0.26293 0.24438-0.50832 0.76811-0.77125 0.1145-0.0575 0.26955 0.05751 0.38405 0 0.36368-0.1826 0.61041-1.0432 1.1522-0.77126 0.72054 0.36175 0.16421 0.4947 0.38405 1.1569 0.05725 0.17248 0.3268 0.21317 0.38406 0.38562 0.05852 0.17638-0.08545 1.3709 0 1.5425 0.08097 0.16258 0.20301 0.38563 0.38405 0.38563 0.18105 0 0.25604-0.25708 0.38405-0.38563 0.22588-0.2268 1.3584-1.4532 1.5362-1.5425 0.01992-0.01015 1.1321-0.01015 1.1522 0 0.16195 0.08131 0.22212 0.30434 0.38405 0.38563 0.0861 0.04318 1.445 0 1.5362 0h2.6884c0.12614 0 1.0949-0.03832 1.1522 0 0.85863 0.57477 0.7681 0.50929 0.7681 1.1569v0.38563c0 0.12855-0.128 0.38563 0 0.38563 0.18105 0 0.25603-0.51417 0.38405-0.38563 0.12802 0.12855-0.25604 0.25708-0.38405 0.38563m-14.432-28.08h13.826 2.6884c0.17296 0 1.0353-0.05868 1.1522 0 0.16195 0.08132 0.22212 0.30433 0.38405 0.38563 0.229 0.115 0.5391-0.11498 0.7681 0 0.32386 0.1626 0.46683 0.56958 0.76811 0.77125 0.23818 0.15943 0.51207 0.25709 0.7681 0.38563m-21.315 10.273c-0.47768 0.15136-1.1504 1.3498-1.5583 0.67221 0.1663-0.48081 1.2858-1.0892 1.5583-0.67221-0.33477 0.89327-1.8048 0.91846-1.933 1.8264-0.21385 0.91613 0.79878 0.96166 1.439 0.88647 0.32672-0.27292 0.74631-0.94645 1.2621-0.78477-0.0548-0.68315-1.2818-1.2813-0.76811-1.9281 0.72515-0.28007 1.2647 0.46436 1.7917 0.83572 0.40458 0.42292 0.96896 0.47625 1.2807-0.06446 0.71522 0.0025 1.4837-0.14325 2.1687 0.0977 0.88848 0.39271 1.2853 1.459 2.2517 1.7272 0.49528 0.54593 1.184 0.53411 1.8187 0.88596 0.55329-0.03421 1.0155 0.45173 1.5476 0.45731 0.24249 0.53181 0.83936 0.22043 1.2832 0.31076 0.84053 0.25111 1.3551-0.37639 1.8475-0.95283 0.46191-0.56364 0.93615-1.0866 1.6859-1.0954 0.36366-0.29528 0.7651-0.29853 1.2189-0.27374 0.50943-0.0053 1.0341 0.02096 1.5287-0.0369 0.05344 0.20813-0.2883 0.01211-0.3728 0.0369m-21.581-25.873h1.9203c0.86767 0-0.17174 0.05748 1.1522-0.38563 0.24105-0.08066 1.227 0 1.5362 0 0.17296 0 1.0353-0.05868 1.1522 0 0.16193 0.0813 0.25604 0.25708 0.38405 0.38563 0.29998 0.30121 0.82076 0.93504 1.1522 1.1569 1.9402 1.2987 0.0088 0.0029 1.1522 0.38563 0.27157 0.09088 0.49654 0.29474 0.76811 0.38563 0.04942 0.01655 1.1204 0.01613 1.1522 0 0.10198-0.0512 1.1012-1.0545 1.1522-1.1569 0.05722-0.11496-0.05724-0.27066 0-0.38563 0.08097-0.1626 0.30309-0.22304 0.38405-0.38563 0.11451-0.22995-0.11453-0.54131 0-0.77126 0.08097-0.1626 0.25604-0.25709 0.38405-0.38563 0.12802-0.12854 0.22212-0.30433 0.38405-0.38563 0.03179-0.01592 1.1027-0.01655 1.1522 0 0.27157 0.09089 0.49654 0.29474 0.7681 0.38563 0.2429 0.08129 0.5391-0.11496 0.76811 0 0.37792 0.18973 1.1583 1.3528 1.5362 1.5425 0.11453 0.05747 0.26955-0.05748 0.38405 0 0.16193 0.08131 0.22212 0.30433 0.38405 0.38563 0.10096 0.05072 1.3354 0 1.5362 0 0.66396 0 0.89992 0.04032 1.5362-0.38563 0.15065-0.10085 0.22212-0.30433 0.38405-0.38563 0.11453-0.05747 0.26261 0.04066 0.38406 0 0.27157-0.09088 0.49654-0.29474 0.7681-0.38563 0.12144-0.04065 0.25604 0 0.38406 0 0.71687 0 1.0553 0.28841 1.5362 0.77126" fill="none" stroke="#3c3c3c" stroke-linejoin="round" stroke-width=".21357"/>
<path d="m62.013 15.331c0 1.4609-1.1795 2.6452-2.6344 2.6452-1.455 0-2.6344-1.1843-2.6344-2.6452s1.1795-2.6452 2.6344-2.6452c1.455 0 2.6344 1.1843 2.6344 2.6452z" fill="#ff9340" opacity=".72794" stroke="#088c18" stroke-linejoin="round" stroke-opacity=".87149" stroke-width=".83712"/>
<path d="m62.013 27.194c0 1.4609-1.1795 2.6452-2.6344 2.6452-1.455 0-2.6344-1.1843-2.6344-2.6452 0-1.4609 1.1795-2.6452 2.6344-2.6452 1.455 0 2.6344 1.1843 2.6344 2.6452z" fill="#67f54a" opacity=".72794" stroke="#084b8c" stroke-linejoin="round" stroke-opacity=".87149" stroke-width=".83712"/>
<path d="m62.013 40.54c0 1.4609-1.1795 2.6452-2.6344 2.6452-1.455 0-2.6344-1.1843-2.6344-2.6452 0-1.4609 1.1795-2.6452 2.6344-2.6452 1.455 0 2.6344 1.1843 2.6344 2.6452z" fill="#f8ff40" opacity=".72794" stroke="#084b8c" stroke-linejoin="round" stroke-opacity=".87149" stroke-width=".83712"/>
<path d="m62.013 52.774c0 1.4609-1.1795 2.6452-2.6344 2.6452-1.455 0-2.6344-1.1843-2.6344-2.6452 0-1.4609 1.1795-2.6452 2.6344-2.6452 1.455 0 2.6344 1.1843 2.6344 2.6452z" fill="#7e95e5" opacity=".72794" stroke="#084b8c" stroke-linejoin="round" stroke-opacity=".87149" stroke-width=".83712"/>
<path d="m62.013 64.637c0 1.4609-1.1795 2.6452-2.6344 2.6452-1.455 0-2.6344-1.1843-2.6344-2.6452 0-1.4609 1.1795-2.6452 2.6344-2.6452 1.455 0 2.6344 1.1843 2.6344 2.6452z" fill="#ff4040" opacity=".72794" stroke="#084b8c" stroke-linejoin="round" stroke-opacity=".87149" stroke-width=".83712"/>
<path d="m62.013 77.265c0 1.4609-1.1795 2.6452-2.6344 2.6452-1.455 0-2.6344-1.1843-2.6344-2.6452 0-1.4609 1.1795-2.6452 2.6344-2.6452 1.455 0 2.6344 1.1843 2.6344 2.6452z" fill="#40f2ff" opacity=".72794" stroke="#084b8c" stroke-linejoin="round" stroke-opacity=".87149" stroke-width=".83712"/>
<path d="m88.366 57.91v0.59959h-26.652v-0.59959zm0 11.962v0.59958h-26.652v-0.59958zm0-48.165v0.59958h-26.652v-0.59958zm0 11.962v0.59958h-26.652v-0.59958zm0 11.962v0.59958h-26.652v-0.59958zm-35.506-37.85h36.203c0.46643 0 0.84193 0.751 0.84193 1.6839v72.687c0 0.93286-0.3755 1.6839-0.84193 1.6839h-36.203c-0.46643 0-0.84193-0.751-0.84193-1.6839v-72.687c0-0.93286 0.3755-1.6839 0.84193-1.6839z" fill="none" opacity=".72794" stroke="#000" stroke-linejoin="round" stroke-opacity=".87149" stroke-width=".63873"/>
</g>
</g>
</g>
</svg>
