<?xml version="1.0" encoding="UTF-8"?>
<!-- Created with Inkscape (http://www.inkscape.org/) -->
<svg version="1.1" viewBox="0 0 96 96" xmlns="http://www.w3.org/2000/svg" xmlns:cc="http://creativecommons.org/ns#" xmlns:dc="http://purl.org/dc/elements/1.1/" xmlns:rdf="http://www.w3.org/1999/02/22-rdf-syntax-ns#" xmlns:xlink="http://www.w3.org/1999/xlink">
<defs>
<linearGradient id="linearGradient1015">
<stop stop-color="#8ed2e0" offset="0"/>
<stop stop-color="#fff" offset=".25"/>
<stop stop-color="#64c6d6" offset=".5"/>
<stop stop-color="#fbf9f9" offset=".75"/>
<stop stop-color="#8bd2e3" offset="1"/>
</linearGradient>
<linearGradient id="linearGradient997">
<stop stop-color="#87c6e0" offset="0"/>
<stop stop-color="#abcfde" offset="1"/>
</linearGradient>
<linearGradient id="linearGradient4071" x1="6" x2="90" y1="47" y2="47" gradientTransform="matrix(1.1071 0 0 1.1071 -4.9939 -3.6207)" gradientUnits="userSpaceOnUse">
<stop stop-color="#b4b9ba" offset="0"/>
<stop stop-color="#fff" offset=".25"/>
<stop stop-color="#91a4a9" offset=".5"/>
<stop stop-color="#fbf9f9" offset=".75"/>
<stop stop-color="#b4b8ba" offset="1"/>
</linearGradient>
<linearGradient id="linearGradient4129" x1="1.5" x2="94.5" y1="88.172" y2="88.172" gradientTransform="translate(.14895 .41503)" gradientUnits="userSpaceOnUse">
<stop offset="0"/>
<stop stop-opacity=".58824" offset=".1"/>
<stop stop-opacity=".58824" offset=".9"/>
<stop offset="1"/>
</linearGradient>
<linearGradient id="linearGradient3737">
<stop stop-color="#fff" offset="0"/>
<stop stop-color="#fff" stop-opacity="0" offset="1"/>
</linearGradient>
<linearGradient id="linearGradient4767" x1="2.7714" x2="50.528" y1="-28.642" y2="14.514" gradientUnits="userSpaceOnUse" xlink:href="#linearGradient3737"/>
<linearGradient id="linearGradient2448" x1="73.702" x2="73.546" y1="22.269" y2="38.362" gradientTransform="matrix(.91435 0 0 1.0039 -47.694 -63.445)" gradientUnits="userSpaceOnUse" xlink:href="#linearGradient997"/>
<linearGradient id="linearGradient2450" x1="67.79" x2="81.363" y1="20.388" y2="20.388" gradientTransform="matrix(.91435 0 0 -1.0039 -47.694 63.445)" gradientUnits="userSpaceOnUse" xlink:href="#linearGradient1015"/>
<linearGradient id="linearGradient958">
<stop stop-color="#fefefe" offset="0"/>
<stop stop-color="#fefefe" stop-opacity="0" offset="1"/>
</linearGradient>
<linearGradient id="linearGradient979" x1="75.693" x2="75.65" y1="41.68" y2="30.348" gradientTransform="matrix(.91435 0 0 -1.0039 -47.694 63.445)" gradientUnits="userSpaceOnUse" xlink:href="#linearGradient1015"/>
<radialGradient id="radialGradient7462-9" cx="13.948" cy="44.893" r="43.199" gradientTransform="matrix(.97513 0 0 .049191 34.048 80.582)" gradientUnits="userSpaceOnUse" xlink:href="#linearGradient3737"/>
<radialGradient id="radialGradient7464-2" cx="13.948" cy="44.893" r="43.199" gradientTransform="matrix(.88833 0 0 .049191 31.96 -90.317)" gradientUnits="userSpaceOnUse" xlink:href="#linearGradient3737"/>
<clipPath id="clipPath4156-4-1-3">
<path d="m27.046-55.695-14.214 13.321h0.06127l15.653 21.771 10.231-10.546c-0.2169-1.1522-11.311-23.67-11.732-24.546zm-17.399 16.313-14.888 14.062 21.229 17.515 10.385-10.577zm31.491 12.951-9.7413 9.7136 8.9448 12.458 7.7808-7.555zm-49.84 4.3788-13.754 12.982 26.283 13.846 0.06127-0.0617-0.12253-0.0617 9.8332-10.053-22.301-16.652zm38.015 7.4008-9.8025 9.7753 11.579 9.5594 7.6276-7.4008-8.6691-11.009zm20.187 5.674-7.3825 7.2158 6.1878 8.5418 5.8202-6.1365zm-32.195 6.3215-9.5575 9.4977 13.662 7.185 7.9339-7.6784zm23.312 2.3744-7.1068 6.9383 8.3628 6.9074 5.3608-5.674-0.06127-0.0925-0.0919 0.12335-6.4635-8.2026zm-8.7304 8.5418-7.5051 7.3392 10.354 5.4581c1.3975-1.321 5.6751-6.1229 5.8509-6.3215z" fill="#fff" opacity=".6"/>
</clipPath>
<filter id="filter967-3" x="-.16508" y="-.020203" width="1.3302" height="1.0404" color-interpolation-filters="sRGB">
<feGaussianBlur stdDeviation="0.67211985"/>
</filter>
<radialGradient id="radialGradient1123-9-3" cx="31.688" cy="43.73" r="4.5305" gradientTransform="matrix(-2.1136 .12849 -.11765 -1.8692 103.87 99.319)" gradientUnits="userSpaceOnUse" xlink:href="#linearGradient958"/>
<filter id="filter1006-0-2" x="-.10844" y="-.16785" width="1.2169" height="1.3357" color-interpolation-filters="sRGB">
<feGaussianBlur stdDeviation="0.8669909"/>
</filter>
<radialGradient id="radialGradient1125-2-6" cx="31.688" cy="43.73" r="4.5305" gradientTransform="matrix(-2.1161 .080765 -.11765 -2.9771 103.95 149.28)" gradientUnits="userSpaceOnUse" xlink:href="#linearGradient958"/>
<linearGradient id="linearGradient1169" x1="75.693" x2="75.65" y1="41.68" y2="30.348" gradientTransform="matrix(.91435 0 0 1.0039 7.6193 27.599)" gradientUnits="userSpaceOnUse" xlink:href="#linearGradient1015"/>
<linearGradient id="linearGradient1171" x1="73.702" x2="73.546" y1="22.269" y2="38.362" gradientTransform="matrix(.91435 0 0 1.0039 7.6193 27.599)" gradientUnits="userSpaceOnUse" xlink:href="#linearGradient997"/>
<linearGradient id="linearGradient1173" x1="67.79" x2="81.363" y1="20.388" y2="20.388" gradientTransform="matrix(.91435 0 0 1.0039 7.6193 27.599)" gradientUnits="userSpaceOnUse" xlink:href="#linearGradient1015"/>
<linearGradient id="linearGradient988" x1="75.693" x2="75.65" y1="41.68" y2="30.348" gradientTransform="matrix(.91435 0 0 1.0039 -19.326 16.401)" gradientUnits="userSpaceOnUse" xlink:href="#linearGradient1015"/>
<linearGradient id="linearGradient990" x1="73.702" x2="73.546" y1="22.269" y2="38.362" gradientTransform="matrix(.91435 0 0 1.0039 -19.326 16.401)" gradientUnits="userSpaceOnUse" xlink:href="#linearGradient997"/>
<linearGradient id="linearGradient992" x1="67.79" x2="81.363" y1="20.388" y2="20.388" gradientTransform="matrix(.91435 0 0 1.0039 -19.326 16.401)" gradientUnits="userSpaceOnUse" xlink:href="#linearGradient1015"/>
</defs>
<metadata>
<rdf:RDF>
<cc:Work rdf:about="">
<dc:format>image/svg+xml</dc:format>
<dc:type rdf:resource="http://purl.org/dc/dcmitype/StillImage"/>
<dc:title/>
<dc:date>2017</dc:date>
<dc:creator>
<cc:Agent>
<dc:title>Cristian Pozzessere "ilnanny"</dc:title>
</cc:Agent>
</dc:creator>
<dc:subject>
<rdf:Bag>
<rdf:li>Global language</rdf:li>
</rdf:Bag>
</dc:subject>
<dc:description>Playing with Inkscape on Gnu/Linux O. S.</dc:description>
<dc:contributor>
<cc:Agent>
<dc:title>In the night, alone like a dog.</dc:title>
</cc:Agent>
</dc:contributor>
<cc:license rdf:resource="http://creativecommons.org/licenses/by-sa/4.0/"/>
</cc:Work>
<cc:License rdf:about="http://creativecommons.org/licenses/by-sa/4.0/">
<cc:permits rdf:resource="http://creativecommons.org/ns#Reproduction"/>
<cc:permits rdf:resource="http://creativecommons.org/ns#Distribution"/>
<cc:requires rdf:resource="http://creativecommons.org/ns#Notice"/>
<cc:requires rdf:resource="http://creativecommons.org/ns#Attribution"/>
<cc:permits rdf:resource="http://creativecommons.org/ns#DerivativeWorks"/>
<cc:requires rdf:resource="http://creativecommons.org/ns#ShareAlike"/>
</cc:License>
</rdf:RDF>
</metadata>
<g transform="translate(0 -1026.5)">
<g transform="translate(-.14896 1026.1)">
<g transform="matrix(.99479 0 0 .99479 .25078 .25214)">
<g transform="matrix(1.0052 0 0 1.0052 -.10235 -1031.7)">
<g transform="translate(-.14896 1026.1)">
<g transform="matrix(.99479 0 0 .99479 .25078 .25214)">
<path d="m89.292 0.41503h-82.286c-3.7988 0-6.8571 3.0583-6.8571 6.8571v82.286c0 3.7989 3.0583 6.8571 6.8571 6.8571h82.286c3.7989 0 6.8571-3.0583 6.8571-6.8571v-82.286c0-3.7989-3.0583-6.8571-6.8571-6.8571z" opacity=".15"/>
<path d="m88.649 1.165h-81c-3.7395 0-6.75 3.0105-6.75 6.75v81c0 3.7395 3.0105 6.75 6.75 6.75h81c3.7395 0 6.75-3.0105 6.75-6.75v-81c0-3.7395-3.0105-6.75-6.75-6.75z" opacity=".15"/>
<path d="m88.006 1.915h-79.714c-3.6801 0-6.6429 2.9627-6.6429 6.6429v79.714c0 3.6801 2.9627 6.6429 6.6429 6.6429h79.714c3.6801 0 6.6429-2.9627 6.6429-6.6429v-79.714c0-3.6801-2.9627-6.6429-6.6429-6.6429z" fill="url(#linearGradient4071)"/>
<path d="m11.39 6.8022c-2.8565 0-5.1241 2.3147-5.1241 5.2305v69.369c1.0972 1.7038 2.9688 2.8441 5.1241 2.8441h73.787c2.1553 0 4.0269-1.1402 5.1241-2.8441v-69.369c0-2.9158-2.2676-5.2305-5.1241-5.2305z" fill="#c4d6e0"/>
<path transform="matrix(-.87383 0 0 .95938 141.11 2.1248)" d="m73.338 6.9318c-1.902 0-3.4922 0.26895-3.4922 2.276v72.472c0 2.0071 1.7311 1.8554 3.6331 1.8554h2.7871c1.902 0 3.3513 0.15172 3.3513-1.8554v-72.472c0-2.0071-1.5902-2.276-3.4922-2.276zm0.30664 2.5996h2.1719v71.825h-2.1719z" color="#000000" color-rendering="auto" dominant-baseline="auto" fill="#fdfdfe" filter="url(#filter967-3)" image-rendering="auto" opacity=".853" shape-rendering="auto" solid-color="#000000" stroke="#fff" stroke-linecap="square" stroke-linejoin="round" stroke-opacity=".73288" stroke-width="3.9036" style="font-feature-settings:normal;font-variant-alternates:normal;font-variant-caps:normal;font-variant-ligatures:normal;font-variant-numeric:normal;font-variant-position:normal;isolation:auto;mix-blend-mode:normal;paint-order:fill markers stroke;shape-padding:0;text-decoration-color:#000000;text-decoration-line:none;text-decoration-style:solid;text-indent:0;text-orientation:mixed;text-transform:none;white-space:normal"/>
<rect transform="scale(-1,1)" x="-78.417" y="9.3462" width="5.2186" height="72.753" rx="1.3916" ry=".55938" fill="#263238" style="paint-order:fill markers stroke"/>
<path d="m69.277 45.024h13.061c0.43626 0 0.78748 0.3856 0.78748 0.86456v24.16c0 0.47897-0.35121 0.86456-0.78748 0.86456h-13.061c-0.43626 0-0.78748-0.3856-0.78748-0.86456v-24.16c0-0.47897 0.35121-0.86456 0.78748-0.86456z" color="#000000" fill="none" stroke="#444d52" stroke-opacity=".91096" stroke-width="1.8331"/>
<path d="m69.734 45.789h11.973c0.39993 0 0.72189 0.35997 0.72189 0.8071v22.555c0 0.44714-0.32196 0.8071-0.72189 0.8071h-11.973c-0.39993 0-0.72189-0.35997-0.72189-0.8071v-22.555c0-0.44714 0.32196-0.8071 0.72189-0.8071z" color="#000000" fill="#d1eaf0" fill-opacity=".99658" opacity=".858"/>
<path d="m69.603 46.58h12.411v22.282l-0.44324 0.49516h-11.524l-0.44324-0.49516z" color="#000000" fill="url(#linearGradient1169)"/>
<path d="m69.603 46.58 0.44324 2.9709v19.806l-0.44324-0.49516z" color="#000000" fill="#9cb4ba" fill-opacity=".9726"/>
<path d="m82.013 46.58-0.44324 2.9709v9.408 10.398l0.44324-0.49516z" color="#000000" fill="#360f0f" fill-opacity=".30976"/>
<rect x="70.046" y="49.551" width="11.524" height="9.408" color="#000000" fill="url(#linearGradient1171)"/>
<path d="m69.603 46.58 0.44324 2.9709h11.524l0.44324-2.9709z" color="#000000" fill="url(#linearGradient1173)"/>
<path d="m70.046 49.551v19.806m-0.44324-22.777 0.44324 2.9709h11.524" color="#000000" fill="none" stroke="#314752" stroke-width=".27017"/>
<path d="m82.013 46.58-0.44324 2.9709v19.806h-11.524" color="#000000" fill="none" stroke="#28343c" stroke-opacity=".99658" stroke-width=".2376"/>
<path d="m70.301 58.861h11.025l0.23624 0.08645" fill="none" stroke="#304851" stroke-width=".33005px"/>
<ellipse transform="matrix(.44324 0 0 .49516 61.624 40.639)" cx="31.746" cy="26.54" rx="9.5939" ry="6.1985" fill="url(#radialGradient1123-9-3)" filter="url(#filter1006-0-2)" opacity=".59898" style="paint-order:fill markers stroke"/>
<ellipse transform="matrix(.44324 0 0 .49516 61.624 51.727)" cx="31.746" cy="26.54" rx="9.5939" ry="6.1985" fill="url(#radialGradient1125-2-6)" filter="url(#filter1006-0-2)" opacity=".615" style="paint-order:fill markers stroke"/>
<path transform="matrix(-.87383 0 0 -.95938 85.797 88.919)" d="m73.338 6.9318c-1.902 0-3.4922 0.26895-3.4922 2.276v72.472c0 2.0071 1.7311 1.8554 3.6331 1.8554h2.7871c1.902 0 3.3513 0.15172 3.3513-1.8554v-72.472c0-2.0071-1.5902-2.276-3.4922-2.276zm0.30664 2.5996h2.1719v71.825h-2.1719z" color="#000000" color-rendering="auto" dominant-baseline="auto" fill="#fdfdfe" filter="url(#filter967-3)" image-rendering="auto" opacity=".853" shape-rendering="auto" solid-color="#000000" stroke="#fff" stroke-linecap="square" stroke-linejoin="round" stroke-opacity=".73288" stroke-width="3.9036" style="font-feature-settings:normal;font-variant-alternates:normal;font-variant-caps:normal;font-variant-ligatures:normal;font-variant-numeric:normal;font-variant-position:normal;isolation:auto;mix-blend-mode:normal;paint-order:fill markers stroke;shape-padding:0;text-decoration-color:#000000;text-decoration-line:none;text-decoration-style:solid;text-indent:0;text-orientation:mixed;text-transform:none;white-space:normal"/>
<rect transform="scale(-1)" x="-23.104" y="-81.698" width="5.2186" height="72.753" rx="1.3916" ry=".55938" fill="#263238" style="paint-order:fill markers stroke"/>
<path d="m13.964 46.02h13.061c0.43626 0 0.78748-0.3856 0.78748-0.86456v-24.16c0-0.47897-0.35121-0.86456-0.78748-0.86456h-13.061c-0.43626 0-0.78748 0.3856-0.78748 0.86456v24.16c0 0.47897 0.35121 0.86456 0.78748 0.86456z" color="#000000" fill="none" stroke="#444d52" stroke-opacity=".91096" stroke-width="1.8331"/>
<path d="m14.421 45.255h11.973c0.39993 0 0.72189-0.35997 0.72189-0.8071v-22.555c0-0.44714-0.32196-0.8071-0.72189-0.8071h-11.973c-0.39993 0-0.72189 0.35997-0.72189 0.8071v22.555c0 0.44714 0.32196 0.8071 0.72189 0.8071z" color="#000000" fill="#d1eaf0" fill-opacity=".99658" opacity=".858"/>
<path d="m14.289 44.464h12.411v-22.282l-0.44324-0.49516h-11.524l-0.44324 0.49516z" color="#000000" fill="url(#linearGradient979)"/>
<path d="m14.289 44.464 0.44324-2.9709v-19.806l-0.44324 0.49516z" color="#000000" fill="#9cb4ba" fill-opacity=".9726"/>
<path d="m26.7 44.464-0.44324-2.9709v-9.408-10.398l0.44324 0.49516z" color="#000000" fill="#360f0f" fill-opacity=".30976"/>
<rect transform="scale(1,-1)" x="14.732" y="-41.493" width="11.524" height="9.408" color="#000000" fill="url(#linearGradient2448)"/>
<path d="m14.289 44.464 0.44324-2.9709h11.524l0.44324 2.9709z" color="#000000" fill="url(#linearGradient2450)"/>
<path d="m14.732 41.493v-19.806m-0.44324 22.777 0.44324-2.9709h11.524" color="#000000" fill="none" stroke="#314752" stroke-width=".27017"/>
<path d="m26.7 44.464-0.44324-2.9709v-19.806h-11.524" color="#000000" fill="none" stroke="#28343c" stroke-opacity=".99658" stroke-width=".2376"/>
<path d="m14.988 32.183h11.025l0.23624-0.08645" fill="none" stroke="#304851" stroke-width=".33005px"/>
<ellipse transform="matrix(.44324 0 0 -.49516 6.311 50.406)" cx="31.746" cy="26.54" rx="9.5939" ry="6.1985" fill="url(#radialGradient1123-9-3)" filter="url(#filter1006-0-2)" opacity=".59898" style="paint-order:fill markers stroke"/>
<ellipse transform="matrix(.44324 0 0 -.49516 6.311 39.317)" cx="31.746" cy="26.54" rx="9.5939" ry="6.1985" fill="url(#radialGradient1125-2-6)" filter="url(#filter1006-0-2)" opacity=".615" style="paint-order:fill markers stroke"/>
<path transform="matrix(-.87383 0 0 .95938 114.17 2.1248)" d="m73.338 6.9318c-1.902 0-3.4922 0.26895-3.4922 2.276v72.472c0 2.0071 1.7311 1.8554 3.6331 1.8554h2.7871c1.902 0 3.3513 0.15172 3.3513-1.8554v-72.472c0-2.0071-1.5902-2.276-3.4922-2.276zm0.30664 2.5996h2.1719v71.825h-2.1719z" color="#000000" color-rendering="auto" dominant-baseline="auto" fill="#fdfdfe" filter="url(#filter967-3)" image-rendering="auto" opacity=".853" shape-rendering="auto" solid-color="#000000" stroke="#fff" stroke-linecap="square" stroke-linejoin="round" stroke-opacity=".73288" stroke-width="3.9036" style="font-feature-settings:normal;font-variant-alternates:normal;font-variant-caps:normal;font-variant-ligatures:normal;font-variant-numeric:normal;font-variant-position:normal;isolation:auto;mix-blend-mode:normal;paint-order:fill markers stroke;shape-padding:0;text-decoration-color:#000000;text-decoration-line:none;text-decoration-style:solid;text-indent:0;text-orientation:mixed;text-transform:none;white-space:normal"/>
<rect transform="scale(-1,1)" x="-51.472" y="9.3462" width="5.2186" height="72.753" rx="1.3916" ry=".55938" fill="#263238" style="paint-order:fill markers stroke"/>
<path d="m42.332 33.826h13.061c0.43626 0 0.78748 0.3856 0.78748 0.86456v24.16c0 0.47897-0.35121 0.86456-0.78748 0.86456h-13.061c-0.43626 0-0.78748-0.3856-0.78748-0.86456v-24.16c0-0.47897 0.35121-0.86456 0.78748-0.86456z" color="#000000" fill="none" stroke="#444d52" stroke-opacity=".91096" stroke-width="1.8331"/>
<path d="m42.789 34.591h11.973c0.39993 0 0.72189 0.35997 0.72189 0.8071v22.555c0 0.44714-0.32196 0.8071-0.72189 0.8071h-11.973c-0.39993 0-0.72189-0.35997-0.72189-0.8071v-22.555c0-0.44714 0.32196-0.8071 0.72189-0.8071z" color="#000000" fill="#d1eaf0" fill-opacity=".99658" opacity=".858"/>
<path d="m42.657 35.382h12.411v22.282l-0.44324 0.49516h-11.524l-0.44324-0.49516z" color="#000000" fill="url(#linearGradient988)"/>
<path d="m42.657 35.382 0.44324 2.9709v19.806l-0.44324-0.49516z" color="#000000" fill="#9cb4ba" fill-opacity=".9726"/>
<path d="m55.068 35.382-0.44324 2.9709v9.408 10.398l0.44324-0.49516z" color="#000000" fill="#360f0f" fill-opacity=".30976"/>
<rect x="43.101" y="38.353" width="11.524" height="9.408" color="#000000" fill="url(#linearGradient990)"/>
<path d="m42.657 35.382 0.44324 2.9709h11.524l0.44324-2.9709z" color="#000000" fill="url(#linearGradient992)"/>
<path d="m43.101 38.353v19.806m-0.44324-22.777 0.44324 2.9709h11.524" color="#000000" fill="none" stroke="#314752" stroke-width=".27017"/>
<path d="m55.068 35.382-0.44324 2.9709v19.806h-11.524" color="#000000" fill="none" stroke="#28343c" stroke-opacity=".99658" stroke-width=".2376"/>
<path d="m43.356 47.663h11.025l0.23624 0.08645" fill="none" stroke="#304851" stroke-width=".33005px"/>
<ellipse transform="matrix(.44324 0 0 .49516 34.679 29.441)" cx="31.746" cy="26.54" rx="9.5939" ry="6.1985" fill="url(#radialGradient1123-9-3)" filter="url(#filter1006-0-2)" opacity=".59898" style="paint-order:fill markers stroke"/>
<ellipse transform="matrix(.44324 0 0 .49516 34.679 40.529)" cx="31.746" cy="26.54" rx="9.5939" ry="6.1985" fill="url(#radialGradient1125-2-6)" filter="url(#filter1006-0-2)" opacity=".615" style="paint-order:fill markers stroke"/>
<path d="m9.974 5.1445c-3.1166 0-5.668 2.5395-5.668 5.646v69.278c0 3.1065 2.5513 5.646 5.668 5.646h76.792c3.1166 0 5.668-2.5395 5.668-5.646v-69.278c0-3.1065-2.5513-5.646-5.668-5.646zm0 2.3194h76.792c1.8881 0 3.352 1.4801 3.352 3.3266v69.278c0 1.8465-1.4639 3.3266-3.352 3.3266h-76.792c-1.8881 0-3.352-1.4801-3.352-3.3266v-69.278c0-1.8465 1.4639-3.3266 3.352-3.3266z" color="#000000" fill="#1f2224" fill-opacity=".98238" style="text-decoration-line:none;text-indent:0;text-transform:none"/>
<path d="m1.649 82.259v6c0 3.6801 2.9761 6.6562 6.6562 6.6562h79.687c3.6801 0 6.6563-2.9761 6.6563-6.6562v-6c0 3.6801-2.9761 6.6562-6.6563 6.6562h-79.687c-3.6801 0-6.6562-2.9761-6.6562-6.6562z" fill="url(#linearGradient4129)" opacity=".65818"/>
<rect x="5.524" y="80.665" width="84.25" height="4.25" rx="0" ry="4.25" fill="url(#radialGradient7462-9)" opacity=".55"/>
<rect transform="rotate(90)" x="5.975" y="-90.234" width="76.75" height="4.25" rx="0" ry="4.25" fill="url(#radialGradient7464-2)" opacity=".669"/>
<rect transform="matrix(1.0692 0 0 1.0477 4.0066 38.866)" x="2" y="-30" width="75.966" height="69.024" rx="3.957" ry="3.957" clip-path="url(#clipPath4156-4-1-3)" fill="url(#linearGradient4767)" opacity=".50781"/>
</g>
</g>
</g>
</g>
</g>
</g>
</svg>
