<?xml version="1.0" encoding="UTF-8"?>
<svg version="1.1" viewBox="0 0 48 48" xmlns="http://www.w3.org/2000/svg" xmlns:cc="http://creativecommons.org/ns#" xmlns:dc="http://purl.org/dc/elements/1.1/" xmlns:rdf="http://www.w3.org/1999/02/22-rdf-syntax-ns#" xmlns:xlink="http://www.w3.org/1999/xlink">
<metadata>
<rdf:RDF>
<cc:Work rdf:about="">
<dc:format>image/svg+xml</dc:format>
<dc:type rdf:resource="http://purl.org/dc/dcmitype/StillImage"/>
</cc:Work>
</rdf:RDF>
</metadata>
<defs>
<linearGradient id="linearGradient4071" x1="6" x2="90" y1="47" y2="47" gradientTransform="matrix(.55126 0 0 .55126 -2.4607 1072.6)" gradientUnits="userSpaceOnUse">
<stop stop-color="#b2babc" offset="0"/>
<stop stop-color="#fff" offset=".25"/>
<stop stop-color="#96a1a4" offset=".5"/>
<stop stop-color="#fbf9f9" offset=".75"/>
<stop stop-color="#b2b9bc" offset="1"/>
</linearGradient>
<linearGradient id="linearGradient4129" x1="1.5" x2="94.5" y1="88.172" y2="88.172" gradientTransform="matrix(.49792 0 0 .49792 .099999 1074.6)" gradientUnits="userSpaceOnUse">
<stop offset="0"/>
<stop stop-opacity=".58824" offset=".1"/>
<stop stop-opacity=".58824" offset=".9"/>
<stop offset="1"/>
</linearGradient>
<radialGradient id="radialGradient7462" cx="13.948" cy="44.893" r="43.199" gradientTransform="matrix(.48554 0 0 .024493 16.979 1114.5)" gradientUnits="userSpaceOnUse" xlink:href="#linearGradient3737"/>
<linearGradient id="linearGradient3737">
<stop stop-color="#fff" offset="0"/>
<stop stop-color="#fff" stop-opacity="0" offset="1"/>
</linearGradient>
<radialGradient id="radialGradient7464" cx="13.948" cy="44.893" r="43.199" gradientTransform="matrix(.44231 0 0 .024493 1090.3 -44.996)" gradientUnits="userSpaceOnUse" xlink:href="#linearGradient3737"/>
<linearGradient id="linearGradient4767" x1="2.7714" x2="50.528" y1="-28.642" y2="14.514" gradientUnits="userSpaceOnUse" xlink:href="#linearGradient3737"/>
<clipPath id="clipPath4156-4-1">
<path d="m27.046-55.695-14.214 13.321h0.06127l15.653 21.771 10.231-10.546c-0.2169-1.1522-11.311-23.67-11.732-24.546zm-17.399 16.313-14.888 14.062 21.229 17.515 10.385-10.577zm31.491 12.951-9.7413 9.7136 8.9448 12.458 7.7808-7.555zm-49.84 4.3788-13.754 12.982 26.283 13.846 0.06127-0.0617-0.12253-0.0617 9.8332-10.053-22.301-16.652zm38.015 7.4008-9.8025 9.7753 11.579 9.5594 7.6276-7.4008-8.6691-11.009zm20.187 5.674-7.3825 7.2158 6.1878 8.5418 5.8202-6.1365zm-32.195 6.3215-9.5575 9.4977 13.662 7.185 7.9339-7.6784zm23.312 2.3744-7.1068 6.9383 8.3628 6.9074 5.3608-5.674-0.06127-0.0925-0.0919 0.12335-6.4635-8.2026zm-8.7304 8.5418-7.5051 7.3392 10.354 5.4581c1.3975-1.321 5.6751-6.1229 5.8509-6.3215z" fill="#fff" opacity=".6"/>
</clipPath>
</defs>
<g transform="translate(0 -1074.5)">
<path d="m44.486 1074.6h-40.971c-1.8915 0-3.4143 1.5227-3.4143 3.4143v40.971c0 1.8915 1.5228 3.4143 3.4143 3.4143h40.971c1.8915 0 3.4143-1.5228 3.4143-3.4143v-40.971c0-1.8916-1.5228-3.4143-3.4143-3.4143z" opacity=".15"/>
<path d="m44.166 1075h-40.331c-1.862 0-3.3609 1.499-3.3609 3.3609v40.331c0 1.862 1.499 3.3609 3.3609 3.3609h40.331c1.862 0 3.3609-1.4989 3.3609-3.3609v-40.331c0-1.8619-1.499-3.3609-3.3609-3.3609z" opacity=".15"/>
<path d="m43.846 1075.4h-39.691c-1.8324 0-3.3076 1.4752-3.3076 3.3076v39.691c0 1.8324 1.4752 3.3076 3.3076 3.3076h39.691c1.8324 0 3.3076-1.4752 3.3076-3.3076v-39.691c0-1.8324-1.4752-3.3076-3.3076-3.3076z" fill="url(#linearGradient4071)"/>
<path d="m0.84687 1115.4v2.9875c0 1.8324 1.4819 3.3143 3.3143 3.3143h39.678c1.8324 0 3.3143-1.4819 3.3143-3.3143v-2.9875c0 1.8324-1.4819 3.3143-3.3143 3.3143h-39.678c-1.8324 0-3.3143-1.4819-3.3143-3.3143z" fill="url(#linearGradient4129)" opacity=".65818"/>
<rect x="2.7763" y="1114.6" width="41.949" height="2.1161" rx="0" ry="2.1161" fill="url(#radialGradient7462)" opacity=".55"/>
<rect transform="rotate(90)" x="1077.4" y="-44.955" width="38.215" height="2.1161" rx="0" ry="2.1161" fill="url(#radialGradient7464)" opacity=".669"/>
<rect transform="matrix(.53239 0 0 .52166 2.2387 1093.8)" x="2" y="-30" width="75.966" height="69.024" rx="3.957" ry="3.957" clip-path="url(#clipPath4156-4-1)" fill="url(#linearGradient4767)" opacity=".7"/>
<g transform="translate(293.6 1029.1)">
<path d="m-287.86 48.646c-1.4223 0-2.5514 1.1531-2.5514 2.6056v34.556c0.54633 0.8488 1.4782 1.4168 2.5514 1.4168h37.521c1.0732 0 1.2236 0.018 1.7699-0.8307v-35.142c0-1.4525-1.1291-2.6056-2.5514-2.6056z" fill="#9aaabc" opacity=".98"/>
<path d="m-289.04 48.581c-1.2116 1.0786-0.38802 0.45886-1.3722 1.7512v35.414c0.50408 0.51376 0.52476 0.76047 1.0859 1.0605 0.29767 0.15917 0.63917 0.29618 1.0137 0.40625h3.873l15.533-14.189 8.5039 10.143v-34.52z" fill="#2eb456" opacity=".98"/>
<path d="m-268.9 73.029-17.551 13.73c0.19634 0.16332 0.40809 0.30744 0.60938 0.46484h28.861l-11.916-14.193z" fill="#8f66eb" opacity=".98"/>
<path d="m-248.93 54.582-16.658 13.205h-11.934l-4.5801 2.246 4.5801 2.2479h6.2363l-16.85 14.239 5.6367 0.47456 12.908-10.289 8.3535 9.816h4.9473l-10.09-12.379 2.3418-1.8617h4.3633s0.0482-0.0071 0.10938-0.07109c0.18229-0.19103 0.54101-0.76321 0.54101-2.1768 0-0.73378-0.1112-1.2028-0.25195-1.5467l10.615-8.4691v-4.9512c-0.0935-0.15962-0.17254-0.32605-0.26953-0.48417z" opacity=".422"/>
<path d="m-248.53 52.3-41.808 34.042c0.81377 0.8454 0.83055 0.13992 1.7514 0.87091h4.189l35.738-29.248 0.32698-3.3651c-0.31228-0.53827 0.14949-1.7898-0.19768-2.2994z" fill="#ffe68e"/>
<path d="m-267.16 71.59-2.8691 2.7324 10.645 12.867h4.4727c0.0268-0.02111 0.0552-0.03932 0.082-0.06055l-12.328-15.539z" fill="#ffe68e"/>
<path id="path97" d="m-277 66.33h15.052v4.3714h-15.052" fill="#ff6f03"/>
<path id="path99" d="m-262.76 66.33v4.3714h2.6644s0.61527-0.35408 0.61527-2.1857c0-1.7584-0.67866-2.1813-0.67866-2.1813h-2.5955" fill="#ff2d5b"/>
<path id="path101" d="m-276.96 66.33-4.3714 2.1813 4.3714 2.1857v-4.3714" fill="#ffc13d"/>
<path id="path103" d="m-279.15 67.401-2.1813 1.1103 2.1813 1.1147" fill="#2d2d2d"/>
<use transform="translate(2.6009e-6 -2.6281e-6)" width="100%" height="100%" xlink:href="#path97"/>
<use transform="translate(2.6009e-6 -2.6281e-6)" width="100%" height="100%" xlink:href="#path99"/>
<use transform="translate(2.6009e-6 -2.6281e-6)" width="100%" height="100%" xlink:href="#path101"/>
<use transform="translate(2.6009e-6 -2.6281e-6)" width="100%" height="100%" xlink:href="#path103"/>
</g>
<path d="m4.9921 1077c-1.5518 0-2.8222 1.2645-2.8222 2.8113v34.495c0 1.5467 1.2704 2.8112 2.8222 2.8112h38.236c1.5518 0 2.8222-1.2645 2.8222-2.8112v-34.495c0-1.5468-1.2704-2.8113-2.8222-2.8113zm0 1.1549h38.236c0.94012 0 1.669 0.737 1.669 1.6564v34.495c0 0.9193-0.72891 1.6563-1.669 1.6563h-38.236c-0.94012 0-1.669-0.737-1.669-1.6563v-34.495c0-0.9194 0.72891-1.6564 1.669-1.6564z" color="#000000" fill="#3e4447" fill-opacity=".96957" style="text-decoration-line:none;text-indent:0;text-transform:none"/>
</g>
</svg>
