<?xml version="1.0" encoding="UTF-8"?>
<svg version="1.1" viewBox="0 0 48 48" xmlns="http://www.w3.org/2000/svg" xmlns:cc="http://creativecommons.org/ns#" xmlns:dc="http://purl.org/dc/elements/1.1/" xmlns:rdf="http://www.w3.org/1999/02/22-rdf-syntax-ns#" xmlns:xlink="http://www.w3.org/1999/xlink">
<metadata>
<rdf:RDF>
<cc:Work rdf:about="">
<dc:format>image/svg+xml</dc:format>
<dc:type rdf:resource="http://purl.org/dc/dcmitype/StillImage"/>
</cc:Work>
</rdf:RDF>
</metadata>
<defs>
<linearGradient id="a">
<stop stop-color="#fff" offset="0"/>
<stop stop-color="#fff" stop-opacity="0" offset="1"/>
</linearGradient>
<linearGradient id="d" x1="40.82" x2="5.47" y1="34.867" y2="14.217" gradientTransform="matrix(.87797 0 0 .87797 2.9288 .48814)" gradientUnits="userSpaceOnUse">
<stop stop-color="#1a7c69" offset="0"/>
<stop stop-color="#218b7b" offset=".05"/>
<stop stop-color="#208c7a" offset=".157"/>
<stop stop-color="#124a45" offset=".312"/>
<stop stop-color="#1bcaa3" offset=".952"/>
<stop stop-color="#20a386" offset="1"/>
</linearGradient>
<linearGradient id="e" x1="26.967" x2="36.526" y1="15.587" y2="23.462" gradientTransform="matrix(.87797 0 0 .87797 2.9288 .48814)" gradientUnits="userSpaceOnUse">
<stop offset="0"/>
<stop stop-opacity="0" offset="1"/>
</linearGradient>
<linearGradient id="f" x1="23.708" x2="18.13" y1="30.889" y2="20.699" gradientUnits="userSpaceOnUse">
<stop stop-opacity=".309" offset="0"/>
<stop stop-color="#fff" stop-opacity="0" offset="1"/>
</linearGradient>
<path id="j" d="m39.821 11.402 3 5.196c2 3.464-32.641 23.464-34.641 20l-3-5.196c-2-3.464 32.641-23.464 34.641-20" color="#000000"/>
<path id="k" d="m21 4h6c4 0 4 40 0 40h-6c-4 0-4-40 0-40" color="#000000"/>
<linearGradient id="linearGradient4071" x1="6" x2="90" y1="47" y2="47" gradientTransform="matrix(.55126 0 0 .55126 -2.4607 -1.9094)" gradientUnits="userSpaceOnUse">
<stop stop-color="#b2babc" offset="0"/>
<stop stop-color="#fff" offset=".25"/>
<stop stop-color="#96a1a4" offset=".5"/>
<stop stop-color="#fbf9f9" offset=".75"/>
<stop stop-color="#b2b9bc" offset="1"/>
</linearGradient>
<linearGradient id="linearGradient4129" x1="1.5" x2="94.5" y1="88.172" y2="88.172" gradientTransform="matrix(.49792 0 0 .49792 .099999 .1)" gradientUnits="userSpaceOnUse">
<stop offset="0"/>
<stop stop-opacity=".58824" offset=".1"/>
<stop stop-opacity=".58824" offset=".9"/>
<stop offset="1"/>
</linearGradient>
<radialGradient id="radialGradient7462" cx="13.948" cy="44.893" r="43.199" gradientTransform="matrix(.48554 0 0 .024493 16.979 40.016)" gradientUnits="userSpaceOnUse" xlink:href="#a"/>
<radialGradient id="radialGradient7464" cx="13.948" cy="44.893" r="43.199" gradientTransform="matrix(.44231 0 0 .024493 15.807 -44.996)" gradientUnits="userSpaceOnUse" xlink:href="#a"/>
<linearGradient id="linearGradient4767" x1="2.7714" x2="50.528" y1="-28.642" y2="14.514" gradientUnits="userSpaceOnUse" xlink:href="#a"/>
<clipPath id="clipPath4156-4-1">
<path d="m27.046-55.695-14.214 13.321h0.06127l15.653 21.771 10.231-10.546c-0.2169-1.1522-11.311-23.67-11.732-24.546zm-17.399 16.313-14.888 14.062 21.229 17.515 10.385-10.577zm31.491 12.951-9.7413 9.7136 8.9448 12.458 7.7808-7.555zm-49.84 4.3788-13.754 12.982 26.283 13.846 0.06127-0.0617-0.12253-0.0617 9.8332-10.053-22.301-16.652zm38.015 7.4008-9.8025 9.7753 11.579 9.5594 7.6276-7.4008-8.6691-11.009zm20.187 5.674-7.3825 7.2158 6.1878 8.5418 5.8202-6.1365zm-32.195 6.3215-9.5575 9.4977 13.662 7.185 7.9339-7.6784zm23.312 2.3744-7.1068 6.9383 8.3628 6.9074 5.3608-5.674-0.06127-0.0925-0.0919 0.12335-6.4635-8.2026zm-8.7304 8.5418-7.5051 7.3392 10.354 5.4581c1.3975-1.321 5.6751-6.1229 5.8509-6.3215z" fill="#fff" opacity=".6"/>
</clipPath>
<linearGradient id="c-5" x1="7.18" x2="41.821" y1="34.867" y2="14.867" gradientUnits="userSpaceOnUse">
<stop stop-color="#440d7f" offset="0"/>
<stop stop-color="#500e9a" offset="1"/>
</linearGradient>
<linearGradient id="linearGradient7537" x1="23.708" x2="18.13" y1="30.889" y2="20.699" gradientUnits="userSpaceOnUse" xlink:href="#f"/>
<radialGradient id="i-7" cx="11.182" cy="26.579" r="17.37" gradientTransform="matrix(.3867 -.20568 .11485 .21592 8.7655 17.929)" gradientUnits="userSpaceOnUse" xlink:href="#a"/>
<linearGradient id="b-8" x2="0" y1="44" y2="4" gradientUnits="userSpaceOnUse">
<stop stop-color="#0d4687" offset="0"/>
<stop stop-color="#0b60c2" offset=".051"/>
<stop stop-color="#1b88f4" offset=".275"/>
<stop stop-color="#1b90f4" offset=".725"/>
<stop stop-color="#0d6ad6" offset=".962"/>
<stop stop-color="#115fbc" offset="1"/>
</linearGradient>
<linearGradient id="g-2" x1="40.839" x2="15.379" y1="37.972" y2="9.313" gradientUnits="userSpaceOnUse" xlink:href="#f"/>
<radialGradient id="h-0" cx="16.09" cy="24.836" r="1.656" gradientTransform="matrix(-.80848 .012397 -.20566 -13.41 37.371 338.81)" gradientUnits="userSpaceOnUse" xlink:href="#a"/>
</defs>
<path d="m44.486 0.1h-40.971c-1.8915 0-3.4143 1.5228-3.4143 3.4143v40.971c0 1.8915 1.5228 3.4143 3.4143 3.4143h40.971c1.8915 0 3.4143-1.5228 3.4143-3.4143v-40.971c0-1.8915-1.5228-3.4143-3.4143-3.4143z" opacity=".15"/>
<path d="m44.166 0.47344h-40.331c-1.862 0-3.3609 1.499-3.3609 3.3609v40.331c0 1.862 1.499 3.3609 3.3609 3.3609h40.331c1.862 0 3.3609-1.499 3.3609-3.3609v-40.331c0-1.862-1.499-3.3609-3.3609-3.3609z" opacity=".15"/>
<path d="m43.846 0.84687h-39.691c-1.8324 0-3.3076 1.4752-3.3076 3.3076v39.691c0 1.8324 1.4752 3.3076 3.3076 3.3076h39.691c1.8324 0 3.3076-1.4752 3.3076-3.3076v-39.691c0-1.8324-1.4752-3.3076-3.3076-3.3076z" fill="url(#linearGradient4071)"/>
<path d="m5.6972 3.2803c-1.4223 0-2.5514 1.153-2.5514 2.6055v34.556c0.54633 0.84876 1.4782 1.4167 2.5514 1.4167h37.521c1.0732 0 1.2236 0.01811 1.7699-0.83064v-35.142c0-1.4525-1.1291-2.6055-2.5514-2.6055z" fill="#e8e8e8" opacity=".98"/>
<path d="m4.9921 2.4549c-1.5518 0-2.8222 1.2645-2.8222 2.8112v34.495c0 1.5468 1.2704 2.8112 2.8222 2.8112h38.236c1.5518 0 2.8222-1.2645 2.8222-2.8112v-34.495c0-1.5468-1.2704-2.8112-2.8222-2.8112zm0 1.1549h38.236c0.94012 0 1.669 0.73696 1.669 1.6564v34.495c0 0.91939-0.72891 1.6564-1.669 1.6564h-38.236c-0.94012 0-1.669-0.73696-1.669-1.6564v-34.495c0-0.91939 0.72891-1.6564 1.669-1.6564z" color="#000000" fill="#1f2224" fill-opacity=".8087" style="text-decoration-line:none;text-indent:0;text-transform:none"/>
<path d="m0.84687 40.851v2.9875c0 1.8324 1.4819 3.3143 3.3143 3.3143h39.678c1.8324 0 3.3143-1.4819 3.3143-3.3143v-2.9875c0 1.8324-1.4819 3.3143-3.3143 3.3143h-39.678c-1.8324 0-3.3143-1.4819-3.3143-3.3143z" fill="url(#linearGradient4129)" opacity=".65818"/>
<rect x="2.7763" y="40.058" width="41.949" height="2.1161" rx="2.1161" ry="2.1161" fill="url(#radialGradient7462)" opacity=".55"/>
<rect transform="rotate(90)" x="2.8684" y="-44.955" width="38.215" height="2.1161" rx="2.1161" ry="2.1161" fill="url(#radialGradient7464)" opacity=".669"/>
<g transform="translate(1.5339e-8 .44068)">
<path d="m10.11 10.499-2.6339 4.5619c-1.7559 3.0413 28.658 20.601 30.414 17.559l2.6339-4.5619c1.7559-3.0413-28.658-20.601-30.414-17.559" color="#000000" fill="url(#d)"/>
<use transform="matrix(.87797 0 0 .87797 2.9288 .48814)" width="100%" height="100%" fill="url(#c-5)" stroke-width="1.139" xlink:href="#j"/>
<use transform="matrix(.87797 0 0 .87797 2.9288 .48814)" width="100%" height="100%" fill="url(#linearGradient7537)" stroke-width="1.139" xlink:href="#j"/>
<path d="m28.964 12.987 7.0764 7.0764-6.8543 4.5154z" fill="url(#e)" opacity=".398"/>
<path d="m36.703 10.146c-5.9763 0.46444-30.808 15.16-29.219 17.916l0.10975 0.19228c-1.7287-2.9939 27.722-20.065 30.317-17.7l-0.02722-0.05531c-0.16506-0.28534-0.5619-0.40474-1.18-0.35645" color="#000000" fill="url(#i-7)" opacity=".411"/>
<use transform="matrix(.87797 0 0 .87797 2.9288 .48814)" width="100%" height="100%" fill="url(#b-8)" stroke-width="1.139" xlink:href="#k"/>
<use transform="matrix(.87797 0 0 .87797 2.9288 .48814)" width="100%" height="100%" fill="url(#g-2)" stroke-width="1.139" xlink:href="#k"/>
<path d="m21.366 4c-3.5119 0-3.5119 35.119 0 35.119h0.2748c-3.5119 0-3.5119-35.119 0-35.119z" color="#000000" fill="url(#h-0)" opacity=".564"/>
</g>
<rect transform="matrix(.53239 0 0 .52166 2.2387 19.259)" x="2" y="-30" width="75.966" height="69.024" rx="3.957" ry="3.957" clip-path="url(#clipPath4156-4-1)" fill="url(#linearGradient4767)" opacity=".7"/>
</svg>
