<?xml version="1.0" encoding="UTF-8"?>
<!-- Created with Inkscape (http://www.inkscape.org/) -->
<svg version="1.1" viewBox="0 0 96 96" xmlns="http://www.w3.org/2000/svg" xmlns:cc="http://creativecommons.org/ns#" xmlns:dc="http://purl.org/dc/elements/1.1/" xmlns:rdf="http://www.w3.org/1999/02/22-rdf-syntax-ns#" xmlns:xlink="http://www.w3.org/1999/xlink">
<script xlink:href=""/>
<defs>
<linearGradient id="linearGradient18191" x1="6" x2="90" y1="47" y2="47" gradientTransform="matrix(1.1393 0 0 1.1393 488.22 -310.98)" gradientUnits="userSpaceOnUse">
<stop stop-color="#b7b7b7" offset="0"/>
<stop stop-color="#fff" offset=".25"/>
<stop stop-color="#9d9d9d" offset=".5"/>
<stop stop-color="#fafafa" offset=".75"/>
<stop stop-color="#b7b7b7" offset="1"/>
</linearGradient>
<radialGradient id="radialGradient18193" cx="158" cy="6.2132" r="41" gradientTransform="matrix(0 1.6209 -2.0383 0 160.66 -243.04)" gradientUnits="userSpaceOnUse">
<stop stop-color="#fff" offset="0"/>
<stop stop-color="#fff" stop-opacity="0" offset="1"/>
</radialGradient>
<radialGradient id="radialGradient18195" cx="48" cy="-27" r="42" gradientTransform="matrix(-1.0722 0 0 -.87502 199.46 -19.126)" gradientUnits="userSpaceOnUse">
<stop stop-color="#fff" offset="0"/>
<stop stop-color="#fff" offset=".8"/>
<stop stop-color="#fff" stop-opacity="0" offset="1"/>
</radialGradient>
<linearGradient id="linearGradient18197" x1="-94" x2="-10.188" y1="82.984" y2="82.984" gradientTransform="matrix(1 0 0 .88906 200 8.9432)" gradientUnits="userSpaceOnUse">
<stop offset="0"/>
<stop stop-opacity=".58824" offset=".1"/>
<stop stop-opacity=".58824" offset=".9"/>
<stop offset="1"/>
</linearGradient>
<linearGradient id="linearGradient18199" x1="-30.363" x2="59.75" y1=".38068" y2=".38068" gradientTransform="matrix(1.0034 0 0 1.005 528.4 -263.96)" gradientUnits="userSpaceOnUse">
<stop stop-color="#78a1bd" offset="0"/>
<stop stop-color="#afc8d8" offset="1"/>
</linearGradient>
<radialGradient id="radialGradient18201" cx="48" cy="41.781" r="41.135" gradientTransform="matrix(1 0 0 .9296 494.91 -302.49)" gradientUnits="userSpaceOnUse">
<stop stop-color="#22a7dc" offset="0"/>
<stop stop-color="#1d73bb" offset="1"/>
</radialGradient>
<linearGradient id="linearGradient18203" x1="45.448" x2="45.448" y1="92.54" y2="7.0165" gradientTransform="scale(1.0059 .99417)" gradientUnits="userSpaceOnUse">
<stop offset="0"/>
<stop stop-opacity=".58824" offset="1"/>
</linearGradient>
<filter id="filter3174-0" color-interpolation-filters="sRGB">
<feGaussianBlur stdDeviation="1.71"/>
</filter>
<linearGradient id="linearGradient18205" x1="50.035" x2="50.035" y1="72.402" y2="22.692" gradientTransform="translate(79.967 -68.139)" gradientUnits="userSpaceOnUse">
<stop stop-color="#0e4688" offset="0"/>
<stop stop-color="#135eb7" offset="1"/>
</linearGradient>
<linearGradient id="linearGradient18207" x1="22.031" x2="104" y1="48" y2="48" gradientTransform="matrix(0 1 -1 0 175.97 -68.139)" gradientUnits="userSpaceOnUse">
<stop stop-color="#fff" offset="0"/>
<stop stop-color="#fff" stop-opacity="0" offset="1"/>
</linearGradient>
<linearGradient id="linearGradient18209" x1="2.4652" x2="59.378" y1=".27862" y2=".27862" gradientTransform="matrix(1.0034 0 0 1.005 528.4 -263.96)" gradientUnits="userSpaceOnUse">
<stop stop-color="#fff" offset="0"/>
<stop stop-color="#fff" stop-opacity="0" offset="1"/>
</linearGradient>
<linearGradient id="linearGradient18310" x1="6" x2="90" y1="47" y2="47" gradientTransform="matrix(1.1393 0 0 1.1393 488.22 -310.98)" gradientUnits="userSpaceOnUse">
<stop stop-color="#fff" stop-opacity="0" offset="0"/>
<stop stop-color="#fff" stop-opacity=".85135" offset=".036815"/>
<stop stop-color="#fff" stop-opacity="0" offset=".065061"/>
<stop stop-color="#fff" stop-opacity="0" offset=".94494"/>
<stop stop-color="#fff" stop-opacity=".85135" offset=".96582"/>
<stop stop-color="#fff" stop-opacity="0" offset="1"/>
</linearGradient>
</defs>
<metadata>
<rdf:RDF>
<cc:Work rdf:about="">
<dc:format>image/svg+xml</dc:format>
<dc:type rdf:resource="http://purl.org/dc/dcmitype/StillImage"/>
<dc:title/>
</cc:Work>
</rdf:RDF>
</metadata>
<g transform="translate(0,32)">
<g transform="translate(-494.91 273.43)">
<path d="m583.92-305.28h-82.029c-3.787 0-6.8357 3.0487-6.8357 6.8357v82.029c0 3.787 3.0487 6.8357 6.8357 6.8357h82.029c3.787 0 6.8357-3.0487 6.8357-6.8357v-82.029c0-3.787-3.0487-6.8357-6.8357-6.8357z" fill="url(#linearGradient18191)"/>
<g transform="matrix(1.1393 0 0 1.1393 374.29 -310.41)">
<path d="m112 5.5c-2.7873 0-5 2.2127-5 5v20.719 7 38.594c1.0707 1.6288 2.8969 2.7188 5 2.7188h4 64 4c2.1031 0 3.9293-1.09 5-2.7188v-38.594-7-20.719c0-2.7873-2.2127-5-5-5z" fill="url(#radialGradient18193)" opacity=".2"/>
<path d="m112 4.5c-3.324 0-6 2.676-6 6v15h1v-15c0-2.7873 2.2127-5 5-5h72c2.7873 0 5 2.2127 5 5v15h1v-15c0-3.324-2.676-6-6-6h-72z" fill="url(#radialGradient18195)" opacity=".45"/>
<path d="m106 76.942v0.88906 0.88906 0.88906 1.7781 1.7781c0 2.9552 2.676 5.3344 6 5.3344h72c3.324 0 6-2.3791 6-5.3344v-1.7781-1.7781-0.88906-0.88906-0.88906c0 2.9552-2.676 5.3344-6 5.3344h-72c-3.324 0-6-2.3791-6-5.3344z" fill="url(#linearGradient18197)" opacity=".46965"/>
</g>
<g transform="matrix(.98961 0 0 1.0556 491.82 -302.71)">
<path transform="matrix(1.2467 0 0 1.0634 -54.59 -6.5568)" d="m73.164 79.209c0 1.5415-1.2496 2.791-2.791 2.791-1.5415 0-2.791-1.2496-2.791-2.791 0-1.5415 1.2496-2.791 2.791-2.791 1.5415 0 2.791 1.2496 2.791 2.791z" fill="#1c1c1c" opacity=".71"/>
<path transform="matrix(1.0374 0 0 .91042 -39.857 5.3629)" d="m73.164 79.209c0 1.5415-1.2496 2.791-2.791 2.791-1.5415 0-2.791-1.2496-2.791-2.791 0-1.5415 1.2496-2.791 2.791-2.791 1.5415 0 2.791 1.2496 2.791 2.791z" fill="#fff"/>
<path transform="matrix(.70317 0 0 .6171 -16.336 28.596)" d="m73.164 79.209c0 1.5415-1.2496 2.791-2.791 2.791-1.5415 0-2.791-1.2496-2.791-2.791 0-1.5415 1.2496-2.791 2.791-2.791 1.5415 0 2.791 1.2496 2.791 2.791z" fill="#114751"/>
<path transform="matrix(1.2467 0 0 1.0634 -20.114 -6.5568)" d="m73.164 79.209c0 1.5415-1.2496 2.791-2.791 2.791-1.5415 0-2.791-1.2496-2.791-2.791 0-1.5415 1.2496-2.791 2.791-2.791 1.5415 0 2.791 1.2496 2.791 2.791z" fill="#1c1c1c" opacity=".71"/>
<path transform="matrix(1.0374 0 0 .91042 -5.3813 5.3629)" d="m73.164 79.209c0 1.5415-1.2496 2.791-2.791 2.791-1.5415 0-2.791-1.2496-2.791-2.791 0-1.5415 1.2496-2.791 2.791-2.791 1.5415 0 2.791 1.2496 2.791 2.791z" fill="#fff"/>
<path transform="matrix(.70317 0 0 .6171 18.139 28.596)" d="m73.164 79.209c0 1.5415-1.2496 2.791-2.791 2.791-1.5415 0-2.791-1.2496-2.791-2.791 0-1.5415 1.2496-2.791 2.791-2.791 1.5415 0 2.791 1.2496 2.791 2.791z" fill="#114751"/>
<rect transform="matrix(1.014 0 0 .95205 3.1886 -2.9106)" x="40.449" y="83.596" width="12.674" height="3.236" rx="1.1481" ry="1.1481" fill="#0c2f31" fill-opacity=".90455" opacity=".75097" stroke="#fff" stroke-width=".4999"/>
</g>
<path d="m502.69-247.3c-1.8851 0-3.6495 0.91815-4.7591 2.2718v15.089c0 2.4045 2.1226 4.3402 4.7591 4.3402h80.905c2.6366 0 4.7591-1.9357 4.7591-4.3402v-15.089c-1.1096-1.3537-2.874-2.2718-4.7591-2.2718h-80.905zm0 3.2552h80.905c1.3594 0 2.3796 0.93033 2.3796 2.1701v11.936c0 1.2398-1.0201 2.1701-2.3796 2.1701h-80.905c-1.3594 0-2.3796-0.93034-2.3796-2.1701v-11.936c0-1.2398 1.0201-2.1701 2.3796-2.1701z" color="#000000" opacity=".02" style="block-progression:tb;text-indent:0;text-transform:none"/>
<path d="m502.69-301.55h80.905c2.6366 0 4.7591 1.9357 4.7591 4.3402v67.273c0 2.4045-2.1226 4.3402-4.7591 4.3402h-80.905c-2.6365 0-4.7591-1.9357-4.7591-4.3402v-67.273c0-2.4045 2.1226-4.3402 4.7591-4.3402z" color="#000000" fill="url(#linearGradient18199)" opacity=".73115"/>
<path d="m518.44-300.74c-0.0878 0.19804-0.19209 0.40892-0.25 0.625l-15.125 56.5c-0.59908 2.2358 0.70171 4.5259 2.9375 5.125l44.594 11.938h17.094l15.062-56.281c0.59908-2.2358-0.7017-4.4947-2.9375-5.0938l-47.75-12.812h-13.625z" color="#000000" fill="url(#radialGradient18201)" stroke="#000" stroke-opacity=".7758" stroke-width="2.2904"/>
<g transform="translate(294.91 -253.11)">
<g display="none">
<rect x="5" y="7" width="86" height="85" rx="6" ry="6" fill="url(#linearGradient18203)" filter="url(#filter3174-0)" opacity=".9"/>
</g>
<g transform="translate(35.998 39.341)">
<g transform="matrix(1.1237 0 0 1.1237 67.304 -27.978)">
<rect x="101.99" y="-46.121" width="51.963" height="51.963" rx="3.2477" ry="3.2477" color="#000000" fill="url(#linearGradient18205)"/>
<path d="m153.94-42.858c0-1.7992-1.4508-3.25-3.25-3.25h-45.438c-1.7992 0-3.25 1.4508-3.25 3.25v45.438c0 1.7992 1.4508 3.25 3.25 3.25h45.438c1.7992 0 3.25-1.4508 3.25-3.25v-45.438zm-0.96875 0v45.438c0 1.2793-1.002 2.2812-2.2812 2.2812h-45.438c-1.2793 0-2.2812-1.002-2.2812-2.2812v-45.438c0-1.2793 1.002-2.2812 2.2812-2.2812h45.438c1.2793 0 2.2812 1.0019 2.2812 2.2812z" color="#000000" fill="url(#linearGradient18207)" opacity=".4"/>
</g>
<g transform="matrix(1.1789 0 0 1.1789 156.55 -109.17)">
<path d="m36 31.031a0.95512 0.95512 0 0 0-0.96875 0.96875v34a0.95512 0.95512 0 0 0 0.96875 0.96875h10a0.95512 0.95512 0 0 0 0.96875-0.96875v-11.031h11.031a0.95512 0.95512 0 0 0 0.96875-0.96875v-8a0.95512 0.95512 0 0 0-0.96875-0.96875h-11.031v-4.0625h15.031a0.95512 0.95512 0 0 0 0.96875-0.96875v-8a0.95512 0.95512 0 0 0-0.96875-0.96875h-26z" color="#000000" fill="#143b69"/>
<path d="m36 32v34h10v-12h12v-8h-12v-6h16v-8h-26z" color="#000000" fill="#fff"/>
</g>
</g>
</g>
<path d="m503.4-300.73h79.017c2.575 0 4.648 1.8912 4.648 4.2405v65.727c0 2.3492-2.073 4.2405-4.648 4.2405h-79.017c-2.575 0-4.648-1.8912-4.648-4.2405v-65.727c0-2.3492 2.073-4.2405 4.648-4.2405z" color="#000000" fill="none" stroke="#000" stroke-opacity=".7758" stroke-width="2.2904"/>
<path d="m530.87-301.65c8.3294 26.184 16.985 51.751 25.766 75.954h26.584c2.6365 0 4.7591-1.9357 4.7591-4.3402v-67.273c0-2.4045-2.1225-4.3402-4.7591-4.3402h-52.35z" color="#000000" fill="url(#linearGradient18209)" opacity=".30882"/>
<path d="m583.92-305.28h-82.029c-3.787 0-6.8357 3.0487-6.8357 6.8357v82.029c0 3.787 3.0487 6.8357 6.8357 6.8357h82.029c3.787 0 6.8357-3.0487 6.8357-6.8357v-82.029c0-3.787-3.0487-6.8357-6.8357-6.8357z" fill="url(#linearGradient18310)" opacity=".72794"/>
</g>
</g>
</svg>
