<?xml version="1.0" encoding="UTF-8"?>
<svg version="1.1" viewBox="0 0 48 48" xmlns="http://www.w3.org/2000/svg" xmlns:cc="http://creativecommons.org/ns#" xmlns:dc="http://purl.org/dc/elements/1.1/" xmlns:rdf="http://www.w3.org/1999/02/22-rdf-syntax-ns#" xmlns:xlink="http://www.w3.org/1999/xlink">
<metadata>
<rdf:RDF>
<cc:Work rdf:about="">
<dc:format>image/svg+xml</dc:format>
<dc:type rdf:resource="http://purl.org/dc/dcmitype/StillImage"/>
</cc:Work>
</rdf:RDF>
</metadata>
<defs>
<linearGradient id="linearGradient4071" x1="6" x2="90" y1="47" y2="47" gradientTransform="matrix(.55126 0 0 .55126 -2.4607 -1.9094)" gradientUnits="userSpaceOnUse">
<stop stop-color="#b2babc" offset="0"/>
<stop stop-color="#fff" offset=".25"/>
<stop stop-color="#96a1a4" offset=".5"/>
<stop stop-color="#fbf9f9" offset=".75"/>
<stop stop-color="#b2b9bc" offset="1"/>
</linearGradient>
<linearGradient id="linearGradient4129" x1="1.5" x2="94.5" y1="88.172" y2="88.172" gradientTransform="matrix(.49792 0 0 .49792 .099999 .1)" gradientUnits="userSpaceOnUse">
<stop offset="0"/>
<stop stop-opacity=".58824" offset=".1"/>
<stop stop-opacity=".58824" offset=".9"/>
<stop offset="1"/>
</linearGradient>
<radialGradient id="radialGradient7462" cx="13.948" cy="44.893" r="43.199" gradientTransform="matrix(.48554 0 0 .024493 16.979 40.016)" gradientUnits="userSpaceOnUse" xlink:href="#linearGradient3737"/>
<linearGradient id="linearGradient3737">
<stop stop-color="#fff" offset="0"/>
<stop stop-color="#fff" stop-opacity="0" offset="1"/>
</linearGradient>
<radialGradient id="radialGradient7464" cx="13.948" cy="44.893" r="43.199" gradientTransform="matrix(.44231 0 0 .024493 15.807 -44.996)" gradientUnits="userSpaceOnUse" xlink:href="#linearGradient3737"/>
<linearGradient id="linearGradient4767" x1="2.7714" x2="50.528" y1="-28.642" y2="14.514" gradientUnits="userSpaceOnUse" xlink:href="#linearGradient3737"/>
<clipPath id="clipPath4156-4-1">
<path d="m27.046-55.695-14.214 13.321h0.06127l15.653 21.771 10.231-10.546c-0.2169-1.1522-11.311-23.67-11.732-24.546zm-17.399 16.313-14.888 14.062 21.229 17.515 10.385-10.577zm31.491 12.951-9.7413 9.7136 8.9448 12.458 7.7808-7.555zm-49.84 4.3788-13.754 12.982 26.283 13.846 0.06127-0.0617-0.12253-0.0617 9.8332-10.053-22.301-16.652zm38.015 7.4008-9.8025 9.7753 11.579 9.5594 7.6276-7.4008-8.6691-11.009zm20.187 5.674-7.3825 7.2158 6.1878 8.5418 5.8202-6.1365zm-32.195 6.3215-9.5575 9.4977 13.662 7.185 7.9339-7.6784zm23.312 2.3744-7.1068 6.9383 8.3628 6.9074 5.3608-5.674-0.06127-0.0925-0.0919 0.12335-6.4635-8.2026zm-8.7304 8.5418-7.5051 7.3392 10.354 5.4581c1.3975-1.321 5.6751-6.1229 5.8509-6.3215z" fill="#fff" opacity=".6"/>
</clipPath>
</defs>
<path d="m44.486 0.1h-40.971c-1.8915 0-3.4143 1.5228-3.4143 3.4143v40.971c0 1.8915 1.5228 3.4143 3.4143 3.4143h40.971c1.8915 0 3.4143-1.5228 3.4143-3.4143v-40.971c0-1.8915-1.5228-3.4143-3.4143-3.4143z" opacity=".15"/>
<path d="m44.166 0.47344h-40.331c-1.862 0-3.3609 1.499-3.3609 3.3609v40.331c0 1.862 1.499 3.3609 3.3609 3.3609h40.331c1.862 0 3.3609-1.499 3.3609-3.3609v-40.331c0-1.862-1.499-3.3609-3.3609-3.3609z" opacity=".15"/>
<path d="m43.846 0.84687h-39.691c-1.8324 0-3.3076 1.4752-3.3076 3.3076v39.691c0 1.8324 1.4752 3.3076 3.3076 3.3076h39.691c1.8324 0 3.3076-1.4752 3.3076-3.3076v-39.691c0-1.8324-1.4752-3.3076-3.3076-3.3076z" fill="url(#linearGradient4071)"/>
<path d="m5.6972 3.2803c-1.4223 0-2.5514 1.153-2.5514 2.6055v34.556c0.54633 0.84876 1.4782 1.4167 2.5514 1.4167h37.521c1.0732 0 1.2236 0.01811 1.7699-0.83064v-35.142c0-1.4525-1.1291-2.6055-2.5514-2.6055z" fill="#600f00" fill-opacity=".86087" opacity=".98"/>
<path d="m4.9921 2.4549c-1.5518 0-2.8222 1.2645-2.8222 2.8112v34.495c0 1.5468 1.2704 2.8112 2.8222 2.8112h38.236c1.5518 0 2.8222-1.2645 2.8222-2.8112v-34.495c0-1.5468-1.2704-2.8112-2.8222-2.8112zm0 1.1549h38.236c0.94012 0 1.669 0.73696 1.669 1.6564v34.495c0 0.91939-0.72891 1.6564-1.669 1.6564h-38.236c-0.94012 0-1.669-0.73696-1.669-1.6564v-34.495c0-0.91939 0.72891-1.6564 1.669-1.6564z" color="#000000" fill="#1f2224" fill-opacity=".8087" style="text-decoration-line:none;text-indent:0;text-transform:none"/>
<path d="m0.84687 40.851v2.9875c0 1.8324 1.4819 3.3143 3.3143 3.3143h39.678c1.8324 0 3.3143-1.4819 3.3143-3.3143v-2.9875c0 1.8324-1.4819 3.3143-3.3143 3.3143h-39.678c-1.8324 0-3.3143-1.4819-3.3143-3.3143z" fill="url(#linearGradient4129)" opacity=".65818"/>
<rect x="2.7763" y="40.058" width="41.949" height="2.1161" rx="0" ry="2.1161" fill="url(#radialGradient7462)" opacity=".55"/>
<rect transform="rotate(90)" x="2.8684" y="-44.955" width="38.215" height="2.1161" rx="0" ry="2.1161" fill="url(#radialGradient7464)" opacity=".669"/>
<g transform="matrix(1.1637 0 0 1.1637 57.153 50.164)">
<g transform="matrix(.044834 0 0 .044878 -50.664 -46.889)" fill="#f4eeed">
<path d="m742.75 500s-149.42-150.67-243.42-332.67c0 0-44 88.33-112.67 179 0 0-43.667-25.333-72.67-25.333-23.333 0-23.667 14-23.667 19.333 0 0 3.333 42.667 36.667 82 0 0-22.333 29-70.33 77.33 0 0 34.33 34.667 41.833 45.33 0 0-8 5-7.5 11s38.5 24.5 38.5 24.5l12.5 16s-3.5 19 16 20.5c0 0 86.5 107.5 142 215.5 0 0 60-111 136-210 0 0 26.5 3 39 3s46.5-4 46.5-16.5-34-40-34-40 12-5 12-12c0-5.5-2.5-7-2.5-7s28.751-34.25 45.751-49.999zm-132.08-116.33 12.666 68.33-106-4.667 32-151.33 61.33 87.67zm-110.67-173c9.667 21.667 44 75 44 75l-36.33 121-41.33-2.333-53.33-55.667c44.33-56.33 87-138 87-138zm-212 289.33c15.667-13 51-55 51-55l79.33 76.33-98.33 11.334-32-32.667zm105.33 122.67 72.33-2.667-16.333 83.33c-14.334-23.333-56-80.67-56-80.67zm106.33 166.33-46.667-79.67 36.667-113.33 35.667 0.667c9.666 7.666 64.33 50.33 64.33 50.33-41.667 56.33-90 142-90 142zm93.67-148-31-33 49.33 8c-4.666 4.667-18.333 25-18.333 25zm96.13-83.53-24.467 11.865s43 26.667 43 38c0 7.667-27 8-27 8-82.33 0-159-34.667-169-34.667s-76.67 11.667-76.67 11.667 2.667 1.667 2.667 5-5 5.667-11.333 5.667-26-5-26-5c-4 1.667-29.667 5.667-36 5.667s-8.667-3.333-8.667-9.333 2-14.334 2-14.334-4.667-0.333-7-0.667c-6.5-2.167-41.17-19.17-41.17-24.833 0-2.833 1.833-6.5 16.333-6.5s37 5.667 37 5.667 4.834-20.667 16.17-20.667c11.333 0 11.833 25.17 15.667 28.17s36.833-18.667 56.667-25.833c-13.334-9-146.67-131.83-146.67-187.17 0-1.333-1.5-15 14.833-15 52.33 0 214.17 137.83 214.17 137.83s23.5-7.833 26.5-7.833c3.667-1.572 8.982-3.967 11.09-4.921 0.503-0.228 1.151-0.035 1.447 0.431l1.26 1.979c0.297 0.466 0.124 1.016-0.386 1.229l-12.244 5.115c-1.5 1.333-19 11.167-19 11.167l17.333 13.5s72-31.833 83.33-31.833c3.833 0 7.333 1.333 7.333 1.333s-31.667-65-28.833-66.5c2.833-1.5 36.833 62 36.833 62v4.5l10-0.333c21.833 0 18.333 10 18.333 10s8.75-1.333 8.75 1.417c0 5.917-15.625 7.875-15.625 7.875l-11.124 12.624s4-3.375 4 33c0 29.11-1.446 34.13-2.101 34.905l17.284-5.197c0.267-0.069 0.606 0.062 0.757 0.294l0.704 1.079c0.15 0.232 0.071 0.517-0.177 0.637zm-4.134-30.801-5.667-29.333 17.667-12.334 14 15z"/>
<path d="m320.33 362.33s-6.333-11-6-15.333 5.167-8.167 11.833-8.167c6.667 0 52.5 6.833 154.83 95.5l-5 2s-107.67-93-142.67-93c0 0-16.14-1.657-12.999 19z"/>
<path d="m336.5 372.5 53.17 55.5s-13.667 1-21-2.667-14.333-14.5-16.48-25.623c-3.02-6.544-15.353-7.377-15.687-26.544"/>
<path d="m373.83 431.83s27.5 26 35.17 31.667c0 0 16.333 2.833 23.667 0.667 0 0-31.833-23.5-38.5-32.33h-20.334z"/>
<path d="m436.83 467s23.17 20.5 52.667 25.833c0 0-12.167 11.5-8.5 26.17 0 0-53.13-38.41-67.17-50.833l23-1.167z"/>
<path d="m519.15 505.94c0.385 0.396 0.685 0.279 0.635-0.271-0.289-3.148-2.152-12.668-14.11-12.668-18.14 0-16.705 21.14-16.13 26.01 0.064 0.549 0.272 0.564 0.459 0.044 1.909-5.315 12.171-30.597 29.15-13.11z"/>
<path d="m478 544c-0.667-1.833 21.333-21.833 43.5-20.333 0 0-2.667 10.333-1.667 12.5s18.333 15.5 22.17 15.5c3.834 0 6.5-6.333 6.5-6.333s-3 11.167-6.667 10.5-24.833-15.11-30.333-15.11-18.5 4.939-26.17 4.939c-7.666 0-6.666 0.166-7.333-1.667z"/>
<path d="m558.64 591.44c-0.074 0.651 6.96 3.309 10.422 3.563s10.99-2.179 10.99-2.179-6.455-3.981-8.509-4.092c-2.053-0.111-12.829 2.057-12.903 2.708z"/>
<path d="m529.17 581.29c-0.167 1 10.5 5.667 15.833 6.333 5.333 0.667 17.17-2.5 17.17-2.5s-9.667-6.667-12.833-7c-3.167-0.333-20 2.167-20.17 3.167z"/>
<path d="m580.05 597.5s35.617 8.167 43.28 8.167l-35-11.5-8.283 3.333z"/>
<path d="m616.5 541.83-7.833 3.5 39.667 27.17s1 8.833 7.5 9.167c6.5 0.333 9.333-2 9.333-2l15.833 5.666-14.833-9.667s-2.167 2.426-7.667 2.426-5.833-9.426-5.833-9.426l-36.17-26.833z"/>
<path d="m656.67 507.33s2 42.33 10.167 53.667l-10.167 2.583s-27.667-18.417-36.667-25.417c0 0 30.333-18.17 36.667-30.833z"/>
<path d="m652.67 467.17s-2.5 12.333 5 19c0 0 22.833-10.5 23.333-18s-20.333-4.333-20.333-4.333-0.667 5.666-8 3.333z"/>
<path d="m627.9 468.01c0.839 0.839 2.099 2.321 2.099 3.655 0 4.667-10 7.333-13.667 11.667-3.667 4.333-22.17 22.667-22.17 37.5 0 3.944 0.476 5.15 1.328 6.637 0.275 0.479 0.751 0.487 1.123 0.079 5.211-5.727 29.02-16.955 33.549-20.21 4.532-3.26 15.428-14.736 21.782-18.366 0.48-0.274 0.73-0.889 0.554-1.412-1.058-3.147-4.21-13.534-2.712-21.578 0.101-0.543-0.126-1.276-0.56-1.618-1.23-0.968-3.717-2.694-5.815-2.694-2.451 0-12.261 4-15.328 5.28-0.508 0.212-0.577 0.675-0.186 1.065z"/>
<path d="m369.86 554.83c2.591-1.968 9.132-9.23 12.88-10.389 0.528-0.163 0.886-0.605 0.739-1.137-0.578-2.097-2.579-6.466-5.309-6.466-5.333 0-10.121 12.564-11.955 16.08-0.255 0.49-0.122 1.192 0.367 1.448 0.303 0.159 0.948 0.528 1.46 0.697 0.525 0.174 1.379 0.098 1.818-0.236z"/>
<path d="m383.08 546.43-10.835 8.694c-0.494 0.396-0.419 0.912 0.167 1.151l15.562 5.81c0.586 0.24 0.791-2e-3 0.478-0.552-2.706-2.365-4.21-9.13-4.595-14.68 0.036-0.632-0.283-0.82-0.777-0.423z"/>
<path d="m378.33 579s14.333-3.667 17-14l27.667-12s-13.333 14.667-15 21.333c0 0-26 6-29.667 4.667z"/>
<path d="m430.22 549.96c-2.66 2.221-11.354 10.128-13.686 20.392-0.122 0.539 0.222 0.835 0.745 0.659 15.05-6.345 38.05-12.679 51.4-10.805 0.55 0.049 0.822-0.288 0.599-0.793-1.419-3.219-7.605-15.05-15.09-19.893-0.464-0.3-1.26-0.332-1.762-0.101l-20.518 9.493c-0.501 0.232-1.262 0.694-1.686 1.048z"/>
<path d="m452.08 523.72-4.49 1.891c-0.509 0.214-1.208 0.044-1.562-0.38l-4.72-4.464c-0.354-0.424-0.23-0.591 0.282-0.383 1.92 0.784 7.417 2.521 10.414 2.882 0.548 0.066 0.585 0.24 0.076 0.454z"/>
<path d="m365.33 445.33 28.333 30.333s13.333 5.333 27.667 3.667l-39.666-35.333s-14.667-0.667-16.334 1.333z"/>
<path d="m345 418.67s7.333 2 13 1.667l19.333 20.333s-13 1-16.333-1.333c-3.333-2.334-16-20.667-16-20.667z"/>
<path d="m355 416.67s-4.667-8-5.333-12.333c0 0-26.474-19.937-38.32-51.4-0.195-0.517-0.366-0.488-0.318 0.062 0.789 8.908 14.651 39.562 30.97 61l13 2.666z"/>
<path d="m490.48 443.2-2.961 1.481c-0.494 0.247-1.226 0.146-1.634-0.225l-2.645-2.405c-0.409-0.371-0.36-0.91 0.108-1.203l2.304-1.44c0.468-0.293 1.198-0.251 1.631 0.092l3.309 2.63c0.432 0.344 0.382 0.823-0.112 1.07z"/>
<path d="m492.99 450.05 29.516 26.659c0.41 0.37 0.686 1.115 0.664 1.667-0.072 1.87 0.135 5.936 2.953 8.378 2.811 2.436 6.885 2.976 8.75 3.094 0.551 0.035 1.334 0.329 1.747 0.696l16.505 14.671c0.413 0.367 1.148 0.464 1.642 0.217l4.711-2.356c0.494-0.247 0.564-0.749 0.155-1.121l-15.522-14.15c-0.408-0.372-0.706-1.12-0.665-1.671l0.102-1.38c0.041-0.551-0.353-0.862-0.886-0.717-2.377 0.649-8.52 2.041-10.915-0.155-2.741-2.512-3.812-5.755-3.786-9.251 4e-3 -0.552-0.308-1.285-0.732-1.639l-29.838-24.845c-0.424-0.353-1.18-0.464-1.688-0.246l-2.537 1.087c-0.506 0.218-0.586 0.694-0.176 1.064z"/>
<path d="m587.25 530.13c0-2.937-6.711-12.945-19.546-21.692-0.456-0.311-1.274-0.508-1.821-0.43-2.135 0.305-6.914 1.159-6.133 2.622 1.625 4.75 24.25 12.75 25.75 25.625 0 0 1.75-3.125 1.75-6.125z"/>
<path d="m598.84 498.04c-2.767 1.291-11.12 5.522-15.05 11.247-0.313 0.455-0.206 1.142 0.205 1.511l5.887 5.288c0.411 0.369 0.885 0.242 1.07-0.278 0.922-2.599 3.778-10.133 8.264-17.334 0.292-0.469 0.124-0.668-0.377-0.434z"/>
<path d="m567.02 494.89c2.075 2.413 8.574 9.829 11.412 11.434 0.481 0.272 1.266 0 1.68-0.365 12.275-10.872 21.396-7.876 32.06-22.64 0.323-0.448 0.17-0.631-0.334-0.406-3.693 1.65-17.507 7.715-20.963 7.715-2.894 0-5.722-1.635-7.07-2.54-0.458-0.309-1.226-0.419-1.739-0.215l-14.767 5.885c-0.514 0.205-0.64 0.713-0.28 1.132z"/>
<path d="m603.82 484.43-8.09 2.847c-0.603 0.212-1.481 0.044-1.963-0.376l-5.05-4.408c-0.481-0.42-0.395-0.962 0.194-1.21l7.123-3c0.589-0.248 1.471-0.127 1.971 0.271l5.999 4.777c0.5 0.397 0.416 0.892-0.186 1.104z"/>
<path d="m616.01 478.72-7.662 2.698c-0.571 0.201-1.404 0.041-1.86-0.357l-4.788-4.177c-0.456-0.398-0.374-0.911 0.184-1.147l6.75-2.848c0.558-0.235 1.394-0.12 1.868 0.257l5.685 4.527c0.473 0.377 0.394 0.846-0.177 1.047z"/>
<path d="m627.21 473.62-7.15 2.518c-0.533 0.188-1.31 0.039-1.736-0.333l-4.469-3.898c-0.426-0.371-0.349-0.851 0.172-1.07l6.3-2.658c0.521-0.22 1.301-0.112 1.743 0.24l5.305 4.225c0.441 0.35 0.368 0.788-0.165 0.976z"/>
<path d="m450.33 528.67s16.333 12.667 18.333 15.667c0 0 2.667-7.667 2.333-21.333 0 0-14.666 4.332-20.666 5.666z"/>
<path d="m402 483.36c3.983 0.098 18.737 0.316 23.335-1.695l4.333 4-20.667 4-7.216-5.713c-0.433-0.343-0.337-0.606 0.215-0.592z"/>
<path d="m412.58 493.71c3.454 3.466 17.795 18.915 22.67 21.17 4.875 2.25 27.1 8.751 34.912 4.544 0.486-0.262 0.914-0.996 0.614-1.46-3.294-5.097-33.27-27.21-38.594-31.12-0.445-0.327-1.23-0.444-1.751-0.264l-17.61 6.096c-0.523 0.181-0.631 0.646-0.241 1.037z"/>
</g>
</g>
<rect transform="matrix(.53239 0 0 .52166 2.2387 19.259)" x="2" y="-30" width="75.966" height="69.024" rx="3.957" ry="3.957" clip-path="url(#clipPath4156-4-1)" fill="url(#linearGradient4767)" opacity=".7"/>
</svg>
