<?xml version="1.0" encoding="UTF-8"?>
<!-- Created with Inkscape (http://www.inkscape.org/) -->
<svg version="1.1" viewBox="0 0 96 96" xmlns="http://www.w3.org/2000/svg" xmlns:cc="http://creativecommons.org/ns#" xmlns:dc="http://purl.org/dc/elements/1.1/" xmlns:rdf="http://www.w3.org/1999/02/22-rdf-syntax-ns#" xmlns:xlink="http://www.w3.org/1999/xlink">
<defs>
<linearGradient id="linearGradient4071" x1="6" x2="90" y1="47" y2="47" gradientTransform="matrix(1.1071 0 0 1.1071 -4.9939 -3.6207)" gradientUnits="userSpaceOnUse">
<stop stop-color="#b4b9ba" offset="0"/>
<stop stop-color="#fff" offset=".25"/>
<stop stop-color="#98a0a2" offset=".5"/>
<stop stop-color="#fbf9f9" offset=".75"/>
<stop stop-color="#b4b8ba" offset="1"/>
</linearGradient>
<linearGradient id="linearGradient4129" x1="1.5" x2="94.5" y1="88.172" y2="88.172" gradientTransform="translate(.14895 .41503)" gradientUnits="userSpaceOnUse">
<stop offset="0"/>
<stop stop-opacity=".58824" offset=".1"/>
<stop stop-opacity=".58824" offset=".9"/>
<stop offset="1"/>
</linearGradient>
<radialGradient id="radialGradient7462" cx="13.948" cy="44.893" r="43.199" gradientTransform="matrix(.97513 0 0 .049191 34.048 80.582)" gradientUnits="userSpaceOnUse" xlink:href="#linearGradient3737"/>
<linearGradient id="linearGradient3737">
<stop stop-color="#fff" offset="0"/>
<stop stop-color="#fff" stop-opacity="0" offset="1"/>
</linearGradient>
<radialGradient id="radialGradient7464" cx="13.948" cy="44.893" r="43.199" gradientTransform="matrix(.88833 0 0 .049191 31.96 -90.317)" gradientUnits="userSpaceOnUse" xlink:href="#linearGradient3737"/>
<linearGradient id="linearGradient4767" x1="2.7714" x2="50.528" y1="-28.642" y2="14.514" gradientUnits="userSpaceOnUse" xlink:href="#linearGradient3737"/>
<clipPath id="clipPath4156-4-1">
<path d="m27.046-55.695-14.214 13.321h0.06127l15.653 21.771 10.231-10.546c-0.2169-1.1522-11.311-23.67-11.732-24.546zm-17.399 16.313-14.888 14.062 21.229 17.515 10.385-10.577zm31.491 12.951-9.7413 9.7136 8.9448 12.458 7.7808-7.555zm-49.84 4.3788-13.754 12.982 26.283 13.846 0.06127-0.0617-0.12253-0.0617 9.8332-10.053-22.301-16.652zm38.015 7.4008-9.8025 9.7753 11.579 9.5594 7.6276-7.4008-8.6691-11.009zm20.187 5.674-7.3825 7.2158 6.1878 8.5418 5.8202-6.1365zm-32.195 6.3215-9.5575 9.4977 13.662 7.185 7.9339-7.6784zm23.312 2.3744-7.1068 6.9383 8.3628 6.9074 5.3608-5.674-0.06127-0.0925-0.0919 0.12335-6.4635-8.2026zm-8.7304 8.5418-7.5051 7.3392 10.354 5.4581c1.3975-1.321 5.6751-6.1229 5.8509-6.3215z" fill="#fff" opacity=".6"/>
</clipPath>
<radialGradient id="radialGradient5021" cx="18" cy="18" r="2" gradientTransform="matrix(.95704 0 0 .95704 -63.066 4.9005)" gradientUnits="userSpaceOnUse" xlink:href="#linearGradient4263"/>
<linearGradient id="linearGradient4263">
<stop stop-color="#fff" offset="0"/>
<stop stop-color="#fff" stop-opacity=".24031" offset=".5"/>
<stop stop-color="#fff" stop-opacity="0" offset="1"/>
</linearGradient>
<radialGradient id="radialGradient5023" cx="18" cy="18" r="2" gradientTransform="matrix(1.9141 0 0 1.9141 -19.608 42.772)" gradientUnits="userSpaceOnUse" xlink:href="#linearGradient4263"/>
<radialGradient id="radialGradient5025" cx="18" cy="18" r="2" gradientTransform="matrix(1.4356 0 0 1.4356 -10.973 5.5415)" gradientUnits="userSpaceOnUse" xlink:href="#linearGradient4263"/>
<radialGradient id="radialGradient5027" cx="18" cy="18" r="2" gradientTransform="matrix(.95704 0 0 .95704 -67.713 15.306)" gradientUnits="userSpaceOnUse" xlink:href="#linearGradient4263"/>
<radialGradient id="radialGradient5037" cx="52.148" cy="43.852" r="32" gradientTransform="matrix(1.0208 -4.2333e-8 4.2838e-8 1.033 -79.54 10.873)" gradientUnits="userSpaceOnUse">
<stop stop-color="#e4bc7a" offset="0"/>
<stop stop-color="#342a1b" offset="1"/>
</radialGradient>
<linearGradient id="linearGradient5039" x1="21" x2="75" y1="43" y2="43" gradientTransform="matrix(0 .95704 -.95704 0 24.415 .66236)" gradientUnits="userSpaceOnUse">
<stop stop-color="#a49265" offset="0"/>
<stop stop-color="#ece8df" offset="1"/>
</linearGradient>
<linearGradient id="linearGradient5041" x1="59.578" x2="28.572" y1="22.918" y2="87.368" gradientUnits="userSpaceOnUse">
<stop stop-color="#a18a56" offset="0"/>
<stop stop-color="#a18a56" stop-opacity="0" offset="1"/>
</linearGradient>
<filter id="filter4045-7" color-interpolation-filters="sRGB">
<feGaussianBlur stdDeviation="0.46710064"/>
</filter>
<filter id="filter4057-4" color-interpolation-filters="sRGB">
<feGaussianBlur stdDeviation="0.4121875"/>
</filter>
<filter id="filter4082-7" color-interpolation-filters="sRGB">
<feGaussianBlur stdDeviation="0.3846875"/>
</filter>
<linearGradient id="linearGradient5043" x1="64.996" x2="64.996" y1="-.90906" y2="55.536" gradientTransform="matrix(.56223 0 0 .35413 -52.72 23.376)" gradientUnits="userSpaceOnUse" xlink:href="#linearGradient3737"/>
<linearGradient id="linearGradient5045" x1="39.819" x2="44.586" y1="13.056" y2="29.471" gradientTransform="matrix(-.91906 .2669 .2669 .91906 43.976 20.086)" gradientUnits="userSpaceOnUse" xlink:href="#linearGradient3814-9"/>
<linearGradient id="linearGradient3814-9">
<stop stop-color="#e2e1ed" offset="0"/>
<stop stop-color="#e2e1ed" stop-opacity="0" offset="1"/>
</linearGradient>
<linearGradient id="linearGradient5047" x1="35.838" x2="35.838" y1="56.924" y2="89.995" gradientTransform="matrix(.95704 0 0 .95704 -72.245 2.5764)" gradientUnits="userSpaceOnUse" xlink:href="#linearGradient3814-9"/>
<linearGradient id="linearGradient5049" x1="45.967" x2="45.967" y1="28.946" y2="48.086" gradientTransform="matrix(.95704 0 0 .95704 -20.3 20.983)" gradientUnits="userSpaceOnUse" xlink:href="#linearGradient3814-9"/>
<linearGradient id="linearGradient964" x1="45.967" x2="45.967" y1="28.946" y2="48.086" gradientTransform="matrix(-.95704 0 0 .95704 -11.283 39.303)" gradientUnits="userSpaceOnUse" xlink:href="#linearGradient3814-9"/>
</defs>
<metadata>
<rdf:RDF>
<cc:Work rdf:about="">
<dc:format>image/svg+xml</dc:format>
<dc:type rdf:resource="http://purl.org/dc/dcmitype/StillImage"/>
<dc:title/>
<dc:date>2017</dc:date>
<dc:creator>
<cc:Agent>
<dc:title>Cristian Pozzessere "ilnanny"</dc:title>
</cc:Agent>
</dc:creator>
<dc:subject>
<rdf:Bag>
<rdf:li>Global language</rdf:li>
</rdf:Bag>
</dc:subject>
<dc:description>Playing with Inkscape on Gnu/Linux O. S.</dc:description>
<dc:contributor>
<cc:Agent>
<dc:title>In the night, alone like a dog.</dc:title>
</cc:Agent>
</dc:contributor>
<cc:license rdf:resource="http://creativecommons.org/licenses/by-sa/4.0/"/>
</cc:Work>
<cc:License rdf:about="http://creativecommons.org/licenses/by-sa/4.0/">
<cc:permits rdf:resource="http://creativecommons.org/ns#Reproduction"/>
<cc:permits rdf:resource="http://creativecommons.org/ns#Distribution"/>
<cc:requires rdf:resource="http://creativecommons.org/ns#Notice"/>
<cc:requires rdf:resource="http://creativecommons.org/ns#Attribution"/>
<cc:permits rdf:resource="http://creativecommons.org/ns#DerivativeWorks"/>
<cc:requires rdf:resource="http://creativecommons.org/ns#ShareAlike"/>
</cc:License>
</rdf:RDF>
</metadata>
<g transform="translate(0 -1026.5)">
<g transform="translate(-.14896 1026.1)">
<path d="m89.292 0.41503h-82.286c-3.7988 0-6.8571 3.0583-6.8571 6.8571v82.286c0 3.7989 3.0583 6.8571 6.8571 6.8571h82.286c3.7989 0 6.8571-3.0583 6.8571-6.8571v-82.286c0-3.7989-3.0583-6.8571-6.8571-6.8571z" opacity=".15"/>
<path d="m88.649 1.165h-81c-3.7395 0-6.75 3.0105-6.75 6.75v81c0 3.7395 3.0105 6.75 6.75 6.75h81c3.7395 0 6.75-3.0105 6.75-6.75v-81c0-3.7395-3.0105-6.75-6.75-6.75z" opacity=".15"/>
<path d="m88.006 1.915h-79.714c-3.6801 0-6.6429 2.9627-6.6429 6.6429v79.714c0 3.6801 2.9627 6.6429 6.6429 6.6429h79.714c3.6801 0 6.6429-2.9627 6.6429-6.6429v-79.714c0-3.6801-2.9627-6.6429-6.6429-6.6429z" fill="url(#linearGradient4071)"/>
<path d="m11.39 6.8022c-2.8565 0-5.1241 2.3147-5.1241 5.2305v69.369c1.0972 1.7038 2.9688 2.8441 5.1241 2.8441h73.787c2.1553 0 4.0269-1.1402 5.1241-2.8441v-69.369c0-2.9158-2.2676-5.2305-5.1241-5.2305z" fill="#0084c8" opacity=".77865"/>
<g transform="matrix(1.026 0 0 1.026 64.162 -3.4684)">
<path d="m-43.925 22.127a1.9141 1.9141 0 1 1-3.8281 0 1.9141 1.9141 0 1 1 3.8281 0z" color="#000000" fill="url(#radialGradient5021)"/>
<path d="m18.673 77.225a3.8281 3.8281 0 1 1-7.6563 0 3.8281 3.8281 0 1 1 7.6563 0z" color="#000000" fill="url(#radialGradient5023)"/>
<path d="m17.738 31.382a2.8711 2.8711 0 1 1-5.7422 0 2.8711 2.8711 0 1 1 5.7422 0z" color="#000000" fill="url(#radialGradient5025)"/>
<path d="m-48.573 32.532a1.9141 1.9141 0 1 1-3.8281 0 1.9141 1.9141 0 1 1 3.8281 0z" color="#000000" fill="url(#radialGradient5027)"/>
<path d="m-55.576 60.088c0.9477 0.38072 1.8148 0.86946 2.6019 1.4954 0.4624-0.48664 1.1001-0.8075 1.8243-0.8075 1.4017 0 2.5421 1.1405 2.5421 2.5421 0 0.01027 1.24e-4 0.01967 0 0.02991 0.99123 0.06516 1.94 0.25533 2.8412 0.56824 0.52663-0.60968 1.3144-0.98694 2.1832-0.98694 1.5665 0 2.8398 1.2523 2.8711 2.8113 0.0416-0.0021 0.07749-0.02991 0.11963-0.02991 1.152 0 2.1278 0.83248 2.3627 1.9141 2.3482 0.15891 4.3666 1.4545 5.5329 3.3496 0.47144-0.1994 0.9812-0.29907 1.5253-0.29907 2.1763 0 3.9478 1.7715 3.9478 3.9478 0 2.1763-1.7715 3.9179-3.9478 3.9179-0.5113 0-0.98728-0.09194-1.4356-0.26917-1.2308 2.0895-3.5006 3.4693-6.1011 3.4693-0.84005 0-1.645-0.15017-2.3926-0.4187-1.9962 2.3068-4.9345 3.7683-8.2245 3.7683-12.6 2.0872-7.1484-30.29-6.2506-25.003z" color="#000000" fill="url(#linearGradient964)"/>
<path d="m9.1028 46.6a25.84 25.84 0 1 1-51.68 0 25.84 25.84 0 1 1 51.68 0z" color="#000000" fill="url(#radialGradient5037)"/>
<path d="m9.1028 46.6c0-14.271-11.569-25.84-25.84-25.84-14.271 0-25.84 11.569-25.84 25.84s11.569 25.84 25.84 25.84c14.271 0 25.84-11.569 25.84-25.84zm-0.95704 0c0 13.742-11.14 24.883-24.883 24.883-13.742 0-24.883-11.14-24.883-24.883s11.14-24.883 24.883-24.883c13.742 0 24.883 11.14 24.883 24.883z" color="#000000" fill="url(#linearGradient5039)" opacity=".6"/>
<path transform="matrix(.95704 0 0 .95704 -62.675 5.4475)" d="m41.125 16.875c-2.6301 0.69019-5.0914 1.7882-7.3438 3.1875-0.68559 0.94402-1.3241 1.9093-2 2.8125-0.44835 0.97474-1.8406 0.83498-3 1.1875-0.06669 0.06767-0.15277 0.11914-0.21875 0.1875-1.5872 2.0861-3.4998 4.031-4.5 6.4688-1.2855 2.5334 4.1736 2.0034 1.4375 4.5-1.0401 1.5092-0.61372 4.8138 1.25 5.875 1.601 1.5614-3.1816 3.1704-1 5.1562 2.0378 0.73589 4.2898-0.98819 6.2188-0.25 1.3054 1.4218-0.7982 3.0113 0.59375 4.3438-1.7701-0.07326-3.5754 0.4308-2.9688 2.6562-0.29197 2.7503 4.4792 2.6209 3.875-0.3125 0.1098-1.3721 1.5049-2.7989 2.3438-0.84375-0.12123 2.0713 3.7972 0.92391 2.0312 3.25-3.68 0.0401-1.4122 5.5623 0.84375 3.625 0.19786-2.1792 2.2637-1.9169 3.5312-1.0625 3.1599-0.74717-0.3395-4.4046 0.78125-6.0625 1.1605 0.02707 1.3284 2.549 2.375 0.3125 1.4659-2.6601-0.73326-4.896-3.1562-5.625-2.399-0.83518-0.7641-3.1485-1-4.5625-2.1749-1.6884-3.1512 0.84978-2.9688 2.5938-2.6243 0.40125-1.9803-3.0004-3.9375-4.0938-1.3587-0.98452-4.425-0.96683-2.5625-3.5625 1.8829-0.8553 4.1589-1.6 3.4688-4.25 0.90293-2.5218-4.2017-1.5295-2.0625-3.8125 2.7269-0.04313 4.4938-2.2037 3.7812-4.9062 0.6186-1.8762 3.3812-1.4157 4.2812-2.9375 0.24257 0.33937 0.51576 0.67548 0.875 0.90625 0.51749 0.48859 1.3315 0.07499 1.8438-0.25 0.03671-0.5471 0.08066-1.4451 0.9375-1.25 0.89458 0.08748 1.8053 0.04968 2.6562-0.1875 0.13244-0.62698-0.82857-1.4179-1.5938-1.3438-0.69089 0.2469-1.5754-0.2789-2.125 0.25-0.68361 5.91e-4 -1.3789 1.85e-4 -2.0625 0 0.03031-0.71964-0.21557-1.434-0.625-2zm12.156 2.875c-0.49783 0.14127-0.77761 0.55806-0.6875 1.0938 0.28182 0.50293 0.65538 0.80476 1 1.4688 0.72553 0.77285 1.1719 1.6062 1.5625 2.5625 0.67915 0.63615 0.92496 2.0582 2.125 1.7812 0.89226-0.13706 1.7511 0.04415 2.625 0.1875 0.81732-0.11595 1.5191 1.0114 2.3438 0.5625 1.2188 0.20939 1.1796-1.2451 0.53125-1.875-0.72764-0.82903-2.0189-0.21868-3-0.40625-0.6743 0.40594-2.7682 0.25916-1.9688-0.8125 0.06822-1.3448-0.9582-2.0785-2.2188-2.2188-0.71555-0.33913-0.21076-0.62154 0.21875-0.84375 0.1543-1.3035-1.6349-1.2426-2.5312-1.5zm-2.9062 2.8125c-1.7691 0.20815-1.5697 3.3208-2.5312 4.4688-1.7814 0.71071-2.7896-1.271-2.5312-2.625-0.95357-0.68666-1.3939-0.9838-1.625 0.28125-1.4811 0.99581-2.7795-1.9018-4.4062-1.2812 1.6504-0.29336-2.3793 1.4411-0.96875 2.6562 0.88257 1.3337 0.54781 2.8096-1.2188 2.7812-1.7682 0.77981-0.9348 2.3716 0.625 2.375 1.9278 2.2716-2.1462 3.9386-0.96875 6.4062 0.8291 2.8137 4.2936-0.08276 2.75-2.125-0.63476-3.1038 3.5167-2.0519 3.1875 0.46875 1.0975 0.71463 4.2437 0.75758 2.8125 3.125-1.9898 0.4136-1.6349 3.0069 0 3.6562-1.2734 0.81022-1.0704 4.5212 0.6875 2.5938 2.5503-2.294 2.2384 3.3449 5.0312 1.8125 1.476-2.1551-1.9225-3.2937-2.9375-4.7188-1.6957-2.3202 3.5134-1.2581 1.4688-3.2188-2.2168-1.0744-0.91523-3.6625 1.2812-2.625 2.5979 0.48816-1.2498-3.7752 1.4688-2.6562 0.21477 1.8354 3.6296 1.4258 1.5938-0.375-0.55258-2.0387 2.8375-3.7251 0.75-5.875-2.499-0.74292-1.9532-3.6334-3.5938-5.0312-0.34283-0.1033-0.62227-0.12349-0.875-0.09375zm14.5 9.1875c-0.15918 0.0062-0.35248 0.04505-0.53125 0.09375-1.1362 1.201-2.4506 1.5776-4.0625 1.125-0.45334-0.25339-1.4925-0.72051-1.9062-0.5625-1.6014-0.15718-1.201 1.5848-1.375 2.4062-1.0836 0.16904-1.8586 0.98938-0.90625 1.9688 0.59466 1.888-1.7501 0.54745-2.5625 0.75-1.5429 0.59052 0.94523 1.3236-0.34375 2.1875-1.1489 0.11566-3.0841 1.5388-1.625 2.4688 1.0596 0.31895 3.3659-0.85616 3 1.2812-0.63107 1.4577 2.5559 3.1035 1.9062 0.90625-0.55365-1.031-1.9648-3.6495 0.34375-3.125 0.43383 0.71075 0.81144 1.1619 1.875 0.78125 0.29434-1.512 2.4246-1.1232 3.4375-0.40625 1.8148 0.38138 0.40729-2.7539 2.3125-2.9375 1.2841-1.0528 0.56874-3.0046-0.75-3.625 0.19235-1.5172 2.5911-1.4186 3.6875-1.6875-0.73147-0.75719-1.3858-1.6682-2.5-1.625zm9.7812 7c-0.25994 0.02868-0.53625 0.30012-0.6875 0.5-0.29098 0.5982-1.001 0.52622-1.2188 0.9375-0.14153 0.37803-0.49505 0.10317-0.6875 0.46875-0.19099-0.13956-1.3073-0.02574-0.8125 0.25-0.6862 0.34335-0.16029 1.299-0.3125 1.9062-0.17303 0.70354 0.44968 1.0582 0.65625 1.625 0.16489 0.17637 0.42437-0.04738 0.53125 0.3125 0.0051 0.32446 0.59115 0.02429 0.625 0.375-0.43559 0.20829 0.82273 0.4871 0.875 0 0.28535-0.36319 0.63666-1.0147 0.96875-1.4062 0.06325-0.14652 0.22907-0.2018 0.40625-0.25 0.0027-0.15813 0-0.30997 0-0.46875 0-1.4428-0.1258-2.8684-0.34375-4.25zm-8.1875 0.875c-0.37996 0.04703-0.73359 0.29326-0.875 0.75-0.49716 0.76901-0.63786 2.0665-1.75 2.0938-0.56535 0.2637-1.0696 0.83367-1.75 0.75-0.85311-0.52782-2.0506-0.57879-2.9062-0.03125-0.97964 0.62659 0.92095 1.6452-0.28125 2-1.1816 0.04876-1.2901 1.3639-0.53125 2.0312 0.7827 0.69818 2.1469 0.7128 2.5625 1.8125 0.27615 0.72932 0.98701 1.4634 0.65625 2.3125-0.47251 0.90254-1.5361 0.13307-2.25 0.4375-1.0299 0.43094-0.52332 1.8332 0.53125 1.5 1.2136 0.13831 1.8731 1.5249 1.5312 2.625-0.05927 0.9616-1.4506 1.4808-0.96875 2.5 0.35582 0.69829 1.6231 1.1316 2.0312 0.28125 0.0049-0.93472 0.77327-1.6486 0.875-2.5938 0.16108-0.88259 0.16206-1.9097-0.3125-2.6875-0.95486-0.70967-0.23324-1.9177 0.46875-2.5 0.57935-0.41083 1.0879-1.2863 1.625-1.5 0.57674 0.35422 1.4761 1.6638 1.8125 0.34375 0.42309-1.0331 0.17236-2.3017 0.9375-3.1875 0.51083-0.51359 2.0839-0.10724 1.6562-1.25-0.526-0.7333-1.8426-0.1401-1.8438-1.2812-0.24402-1.2882 0.35642-2.66-0.1875-3.9062-0.24769-0.40748-0.65129-0.54703-1.0312-0.5zm8.2188 7.4375c-0.09061 0.0746-0.09338 0.09269-0.3125 0.25l0.1875-0.0625c-0.07924 0.07122-0.07566 0.05184-0.1875 0.15625-1.077 0.99467-1.6564 2.5292-2.8438 3.1875-1.889 0.0592-0.73836-2.535-2-3-1.6473 0.06331-0.88277 2.2333-1.8125 3.0312-1.082 0.62902-2.4987 1.7262-1.1562 2.9375 0.876 1.0467 0.49585 2.4916 0.34375 3.7188-0.5717 0.71729-0.30535 2.4183 0.84375 1.5625 0.395-1.2407-0.22737-2.9684 1-3.9062 0.75973-1.1888 2.4825-0.54026 3.5938-1.1562 0.14132 0.04149 0.25163 0.04979 0.375 0.0625 0.92284-2.1 1.6058-4.3171 1.9688-6.6562l-0.09375 0.03125c0.0398-0.03553 0.05177-0.05233 0.09375-0.09375 3e-3 -0.01994-3e-3 -0.04254 0-0.0625z" fill="url(#linearGradient5041)" filter="url(#filter4045-7)" opacity=".4"/>
<path transform="matrix(.95704 0 0 .95704 -62.675 5.4475)" d="m62.25 24.094c-0.7621 0-1.375 0.6129-1.375 1.375s0.6129 1.375 1.375 1.375 1.375-0.6129 1.375-1.375-0.6129-1.375-1.375-1.375zm-20.406 1.625c-0.6288 0.12867-1.0938 0.70816-1.0938 1.375 0 0.7621 0.6129 1.375 1.375 1.375s1.375-0.6129 1.375-1.375-0.6129-1.375-1.375-1.375c-0.09526 0-0.19142-0.01838-0.28125 0zm-9.9375 0.15625c-0.49312 0-0.90625 0.38188-0.90625 0.875s0.41313 0.90625 0.90625 0.90625 0.875-0.41313 0.875-0.90625-0.38188-0.875-0.875-0.875zm28 2.5938c-0.80693 0-1.4688 0.66182-1.4688 1.4688s0.66182 1.4375 1.4688 1.4375 1.4688-0.63057 1.4688-1.4375-0.66182-1.4688-1.4688-1.4688zm-3.9688 2.75c-0.40346 0-0.75 0.34654-0.75 0.75s0.34654 0.71875 0.75 0.71875 0.71875-0.31529 0.71875-0.71875-0.31529-0.75-0.71875-0.75zm-10.062 0.15625c-0.40346 0-0.75 0.34654-0.75 0.75s0.34654 0.71875 0.75 0.71875 0.71875-0.31529 0.71875-0.71875-0.31529-0.75-0.71875-0.75zm-15.438 0.5c-1.0311 0-1.875 0.84393-1.875 1.875s0.84393 1.8438 1.875 1.8438 1.875-0.81268 1.875-1.8438-0.84393-1.875-1.875-1.875zm38 4.875c-0.58278 0-1.0625 0.47972-1.0625 1.0625s0.47972 1.0312 1.0625 1.0312 1.0312-0.44847 1.0312-1.0312-0.44847-1.0625-1.0312-1.0625zm-31.094 2.75c-0.62761 0-1.1562 0.52864-1.1562 1.1562s0.52864 1.125 1.1562 1.125 1.125-0.49739 1.125-1.125-0.49739-1.1562-1.125-1.1562zm26.375 0.65625c-0.85176 0-1.5312 0.67949-1.5312 1.5312s0.67949 1.5625 1.5312 1.5625 1.5312-0.71074 1.5312-1.5625-0.67949-1.5312-1.5312-1.5312zm-34.688 3.25c-0.43521 0-0.78125 0.19977-0.78125 0.46875s0.34604 0.5 0.78125 0.5 0.78125-0.23102 0.78125-0.5-0.34604-0.46875-0.78125-0.46875zm9.5938 2.75c-0.71727 0-1.2812 0.59523-1.2812 1.3125s0.56398 1.2812 1.2812 1.2812 1.3125-0.56398 1.3125-1.2812-0.59523-1.3125-1.3125-1.3125zm-10.125 1.7812c-0.49312 0-0.90625 0.41313-0.90625 0.90625s0.41313 0.875 0.90625 0.875 0.875-0.38188 0.875-0.875-0.38188-0.90625-0.875-0.90625zm29.375 0c-0.49312 0-0.90625 0.41313-0.90625 0.90625s0.41313 0.875 0.90625 0.875 0.90625-0.38188 0.90625-0.875-0.41313-0.90625-0.90625-0.90625zm-4.3125 0.5c-0.80693 0-1.4375 0.66182-1.4375 1.4688s0.63057 1.4375 1.4375 1.4375 1.4688-0.63057 1.4688-1.4375-0.66182-1.4688-1.4688-1.4688zm4.0625 6.1562c-0.44829 0-0.8125 0.36421-0.8125 0.8125s0.36421 0.8125 0.8125 0.8125 0.8125-0.36421 0.8125-0.8125-0.36421-0.8125-0.8125-0.8125zm-27.844 0.65625c-0.85176 0-1.5312 0.67949-1.5312 1.5312s0.67949 1.5625 1.5312 1.5625 1.5625-0.71074 1.5625-1.5625-0.71074-1.5312-1.5625-1.5312zm5.375 3.0938c-0.40346 0-0.75 0.31529-0.75 0.71875s0.34654 0.75 0.75 0.75 0.71875-0.34654 0.71875-0.75-0.31529-0.71875-0.71875-0.71875zm17.688 3.875c-0.67244 0-1.2188 0.54631-1.2188 1.2188s0.54631 1.2188 1.2188 1.2188 1.2188-0.54631 1.2188-1.2188-0.54631-1.2188-1.2188-1.2188z" color="#000000" fill="#a18a56" filter="url(#filter4057-4)" opacity=".4"/>
<path transform="matrix(.95704 0 0 .95704 -62.675 5.4475)" d="m57.469 28.469c-0.53795 0-0.96875 0.4308-0.96875 0.96875s0.4308 0.96875 0.96875 0.96875 0.96875-0.4308 0.96875-0.96875-0.4308-0.96875-0.96875-0.96875zm-15.031 7.7812c-1.2104 0-2.1875 0.97711-2.1875 2.1875s0.97711 2.2188 2.1875 2.2188 2.2188-1.0084 2.2188-2.2188-1.0084-2.1875-2.2188-2.1875zm-7.9375 0.5c-0.58278 0-1.0625 0.47972-1.0625 1.0625s0.47972 1.0312 1.0625 1.0312 1.0625-0.44847 1.0625-1.0312-0.47972-1.0625-1.0625-1.0625zm-10.406 3.0938c-1.0311 0-1.8438 0.81268-1.8438 1.8438s0.81268 1.875 1.8438 1.875 1.875-0.84393 1.875-1.875-0.84393-1.8438-1.875-1.8438zm0.65625 5.3438c-0.67244 0-1.2188 0.54631-1.2188 1.2188s0.54631 1.2188 1.2188 1.2188 1.2188-0.54631 1.2188-1.2188-0.54631-1.2188-1.2188-1.2188zm30.438 0.15625c-0.53795 0-0.96875 0.4308-0.96875 0.96875s0.4308 1 0.96875 1 0.96875-0.46205 0.96875-1-0.4308-0.96875-0.96875-0.96875zm-5.8438 7c-0.80693 0-1.4375 0.63057-1.4375 1.4375s0.63057 1.4688 1.4375 1.4688 1.4688-0.66182 1.4688-1.4688-0.66182-1.4375-1.4688-1.4375zm-3.9688 6.8125c-1.3897 0-2.5312 1.1103-2.5312 2.5s1.1415 2.5312 2.5312 2.5312 2.5312-1.1415 2.5312-2.5312-1.1415-2.5-2.5312-2.5zm15.5 0.46875c-0.80693 0-1.4688 0.66182-1.4688 1.4688s0.66182 1.4688 1.4688 1.4688 1.4688-0.66182 1.4688-1.4688-0.66182-1.4688-1.4688-1.4688zm-21.094 1.7812c-1.0759 0-1.9688 0.89285-1.9688 1.9688s0.89285 1.9375 1.9688 1.9375 1.9375-0.8616 1.9375-1.9375-0.8616-1.9688-1.9375-1.9688z" color="#000000" fill="#fff" filter="url(#filter4082-7)" opacity=".5"/>
<path d="m1.2542 34.708a17.991 11.332 0 1 1-35.983 0 17.991 11.332 0 1 1 35.983 0z" color="#000000" fill="url(#linearGradient5043)" opacity=".5"/>
<path d="m-2.2134 41.41c1.3106-0.38062 2.6871 0.35218 3.0678 1.6628 0.25148 0.86596 0.015772 1.7572-0.55664 2.3728 0.56135 0.4581 1.0429 1.0108 1.4408 1.637 0.64626-0.45159 1.3364-0.84416 2.0984-1.1388-0.066571-0.13397-0.13936-0.2654-0.18255-0.41413-0.39091-1.3461 0.38624-2.7593 1.7323-3.1502 0.98625-0.28642 2.0002 0.06258 2.6285 0.7938 0.68568-1.2818 1.8467-2.308 3.3361-2.7751-0.34976-1.2044 0.34451-2.4669 1.5489-2.8167 1.134-0.32933 2.303 0.27997 2.7296 1.3562 0.31034-0.22575 0.67194-0.41314 1.0617-0.52634 1.8066-0.52464 3.7004 0.51676 4.225 2.3233 0.01719 0.05918 0.0075 0.12135 0.02132 0.18067 0.53776-0.23431 1.0848-0.43962 1.6612-0.60699 3.8139-5.9451 2.7165 26.49-4.5925 25.688-0.55987 0.59112-1.2758 1.0557-2.1142 1.2991-2.2309 0.64787-4.5505-0.39959-5.5564-2.4038-0.02824 0.0084-0.0578 0.01679-0.08616 0.02502-3.3209 0.96441-6.718 0.11676-9.1901-1.9403-0.81794 1.5331-2.236 2.7359-4.0365 3.2588-3.2509 0.9441-6.6552-0.67739-7.9858-3.6915-0.38123 0.21742-0.77368 0.41154-1.2137 0.53932-3.0109 0.8744-6.1673-0.86127-7.0417-3.8722-0.8744-3.0109 0.86127-6.1673 3.8722-7.0417 0.31474-0.09141 0.62994-0.14511 0.94409-0.18074 0.32173-0.582 0.83414-1.0208 1.486-1.2101 0.67407-0.19576 1.3804-0.07864 1.9772 0.26667-0.12334-3.0858 1.8458-5.9861 4.9451-6.8861 0.67445-0.19587 1.3486-0.25272 2.016-0.2429-0.061126-1.1219 0.63862-2.1786 1.7639-2.5054z" color="#000000" fill="url(#linearGradient5045)"/>
<path d="m-43.056 53.598c-0.90961 0-1.7499 0.29246-2.4225 0.77759-0.55512-0.08558-1.1256-0.14954-1.7047-0.14954-2.5302 0-4.8334 0.8762-6.6992 2.3029-0.21552-0.03406-6.9387-5.0572-2.95-2.1072-4.2548 3.0764-1.0962 30.283 5.5221 30.4 2.6663 0 4.9858-1.3992 6.3105-3.4992 1.9534 1.7619 4.5494 2.8412 7.3871 2.8412 3.8425 0 7.2093-1.983 9.1816-4.9646 1.2386 0.92942 2.7586 1.4954 4.4263 1.4954 2.6079 0 4.8992-1.3736 6.2207-3.4094 0.66338 0.53227 1.4759 0.86731 2.3926 0.86731 1.253 0 2.3724-0.60246 3.0805-1.5253 0.30881 0.1945 0.68475 0.32898 1.0767 0.32898 1.1066 0 2.0038-0.89721 2.0038-2.0038s-0.89721-2.0038-2.0038-2.0038c-0.1729 0-0.34838 0.01863-0.50843 0.05982-0.48553-1.3935-1.7416-2.4178-3.2599-2.572-0.08252-1.2901-1.1414-2.3029-2.4524-2.3029-0.36482 0-0.70516 0.06744-1.0168 0.20935-1.3574-1.5155-3.3382-2.4823-5.5329-2.4823-0.98044 0-1.8949 0.19262-2.7515 0.53833-0.21462-2.2714-2.1286-4.0674-4.4562-4.0674-0.26814 0-0.52243 0.04451-0.77759 0.08972 0.03069-0.20831 0.05981-0.41121 0.05981-0.62806 0-2.3976-1.9689-4.3366-4.3665-4.3366-0.8991 0-1.7296 0.24969-2.4225 0.71778-0.1193-0.14124-0.23278-0.28364-0.35889-0.4187 0.0116-0.11798 0.02991-0.23803 0.02991-0.35889 0-2.1025-1.7944-3.7982-4.0076-3.7982z" color="#000000" fill="url(#linearGradient5047)"/>
<path d="m23.993 41.769c-0.9477 0.38072-1.8148 0.86946-2.6019 1.4954-0.4624-0.48664-1.1001-0.8075-1.8243-0.8075-1.4017 0-2.5421 1.1405-2.5421 2.5421 0 0.01027-1.24e-4 0.01967 0 0.02991-0.99123 0.06516-1.94 0.25533-2.8412 0.56824-0.52663-0.60968-1.3144-0.98694-2.1832-0.98694-1.5665 0-2.8398 1.2523-2.8711 2.8113-0.041602-0.0021-0.077491-0.02991-0.11963-0.02991-1.152 0-2.1278 0.83248-2.3627 1.9141-2.3482 0.15891-4.3666 1.4545-5.5329 3.3496-0.47144-0.1994-0.9812-0.29907-1.5253-0.29907-2.1763 0-3.9478 1.7715-3.9478 3.9478 0 2.1763 1.7715 3.9179 3.9478 3.9179 0.5113 0 0.98728-0.09194 1.4356-0.26917 1.2308 2.0895 3.5006 3.4693 6.1011 3.4693 0.84005 0 1.645-0.15017 2.3926-0.4187 1.9962 2.3068 4.9345 3.7683 8.2245 3.7683 12.6 2.0872 7.1484-30.29 6.2506-25.003z" color="#000000" fill="url(#linearGradient5049)"/>
</g>
<path d="m9.974 5.1445c-3.1166 0-5.668 2.5395-5.668 5.646v69.278c0 3.1065 2.5513 5.646 5.668 5.646h76.792c3.1166 0 5.668-2.5395 5.668-5.646v-69.278c0-3.1065-2.5513-5.646-5.668-5.646zm0 2.3194h76.792c1.8881 0 3.352 1.4801 3.352 3.3266v69.278c0 1.8465-1.4639 3.3266-3.352 3.3266h-76.792c-1.8881 0-3.352-1.4801-3.352-3.3266v-69.278c0-1.8465 1.4639-3.3266 3.352-3.3266z" color="#000000" fill="#241f1f" fill-opacity=".63265" style="text-decoration-line:none;text-indent:0;text-transform:none"/>
<path d="m1.649 82.259v6c0 3.6801 2.9761 6.6562 6.6562 6.6562h79.687c3.6801 0 6.6563-2.9761 6.6563-6.6562v-6c0 3.6801-2.9761 6.6562-6.6563 6.6562h-79.687c-3.6801 0-6.6562-2.9761-6.6562-6.6562z" fill="url(#linearGradient4129)" opacity=".65818"/>
<rect x="5.524" y="80.665" width="84.25" height="4.25" rx="0" ry="4.25" fill="url(#radialGradient7462)" opacity=".55"/>
<rect transform="rotate(90)" x="5.975" y="-90.234" width="76.75" height="4.25" rx="0" ry="4.25" fill="url(#radialGradient7464)" opacity=".669"/>
<rect transform="matrix(1.0692 0 0 1.0477 4.4442 38.894)" x="2" y="-30" width="75.966" height="69.024" rx="3.957" ry="3.957" clip-path="url(#clipPath4156-4-1)" fill="url(#linearGradient4767)" opacity=".50781"/>
</g>
</g>
</svg>
