<?xml version="1.0" encoding="UTF-8"?>
<!-- Created with Inkscape (http://www.inkscape.org/) -->
<svg version="1.1" viewBox="0 0 96 96" xmlns="http://www.w3.org/2000/svg" xmlns:cc="http://creativecommons.org/ns#" xmlns:dc="http://purl.org/dc/elements/1.1/" xmlns:rdf="http://www.w3.org/1999/02/22-rdf-syntax-ns#" xmlns:xlink="http://www.w3.org/1999/xlink">
<script xlink:href=""/>
<defs>
<linearGradient id="linearGradient3839" x1="45.448" x2="45.448" y1="92.54" y2="7.0165" gradientTransform="scale(1.0059 .99417)" gradientUnits="userSpaceOnUse">
<stop offset="0"/>
<stop stop-opacity=".58824" offset="1"/>
</linearGradient>
<linearGradient id="linearGradient3837" x1="2.7714" x2="50.528" y1="-28.642" y2="14.514" gradientUnits="userSpaceOnUse">
<stop stop-color="#fff" offset="0"/>
<stop stop-color="#fff" stop-opacity="0" offset="1"/>
</linearGradient>
<radialGradient id="radialGradient3833" cx="13.948" cy="44.893" r="43.199" gradientTransform="matrix(.88833 0 0 .049191 16.069 -98.752)" gradientUnits="userSpaceOnUse" xlink:href="#linearGradient4133"/>
<radialGradient id="radialGradient3831" cx="13.948" cy="44.893" r="43.199" gradientTransform="matrix(.97513 0 0 .049191 41.943 65.501)" gradientUnits="userSpaceOnUse" xlink:href="#linearGradient4133"/>
<linearGradient id="linearGradient3829" x1="1.5" x2="94.5" y1="88.172" y2="88.172" gradientTransform="translate(8.044 -14.666)" gradientUnits="userSpaceOnUse">
<stop offset="0"/>
<stop stop-opacity=".58824" offset=".1"/>
<stop stop-opacity=".58824" offset=".9"/>
<stop offset="1"/>
</linearGradient>
<radialGradient id="radialGradient3827" cx="48" cy="-27" r="42" gradientTransform="matrix(-1.0722 0 0 -.87502 199.46 -19.126)" gradientUnits="userSpaceOnUse">
<stop stop-color="#fff" offset="0"/>
<stop stop-color="#fff" offset=".8"/>
<stop stop-color="#fff" stop-opacity="0" offset="1"/>
</radialGradient>
<linearGradient id="linearGradient3825" x1="6" x2="90" y1="47" y2="47" gradientTransform="matrix(1.1071 0 0 1.1071 2.9011 -18.701)" gradientUnits="userSpaceOnUse">
<stop stop-color="#adb4c1" offset="0"/>
<stop stop-color="#fff" offset=".25"/>
<stop stop-color="#9095aa" offset=".5"/>
<stop stop-color="#fbf9f9" offset=".75"/>
<stop stop-color="#adb3c1" offset="1"/>
</linearGradient>
<filter id="filter3174-36" color-interpolation-filters="sRGB">
<feGaussianBlur stdDeviation="1.71"/>
</filter>
<filter id="filter3174-3" color-interpolation-filters="sRGB">
<feGaussianBlur stdDeviation="1.71"/>
</filter>
<linearGradient id="linearGradient4133">
<stop stop-color="#fff" offset="0"/>
<stop stop-color="#fff" stop-opacity="0" offset="1"/>
</linearGradient>
<clipPath id="clipPath4156-4">
<path d="m27.046-55.695-14.214 13.321h0.06127l15.653 21.771 10.231-10.546c-0.2169-1.1522-11.311-23.67-11.732-24.546zm-17.399 16.313-14.888 14.062 21.229 17.515 10.385-10.577-16.726-21zm31.491 12.951-9.7413 9.7136 8.9448 12.458 7.7808-7.555-6.9843-14.617zm-49.84 4.3788-13.754 12.982 26.283 13.846 0.06127-0.0617-0.12253-0.0617 9.8332-10.053-22.301-16.652zm38.015 7.4008-9.8025 9.7753 11.579 9.5594 7.6276-7.4008-8.6691-11.009-0.73519-0.9251zm20.187 5.674-7.3825 7.2158 6.1878 8.5418 5.8202-6.1365-4.6256-9.6211zm-32.195 6.3215-9.5575 9.4977 13.662 7.185 7.9339-7.6784-12.039-9.0043zm23.312 2.3744-7.1068 6.9383 8.3628 6.9074 5.3608-5.674-0.06127-0.0925-0.0919 0.12335-6.4635-8.2026zm-8.7304 8.5418-7.5051 7.3392 10.354 5.4581c1.3975-1.321 5.6751-6.1229 5.8509-6.3215l-8.6997-6.4757z" fill="#fff" opacity=".6"/>
</clipPath>
<filter id="filter3174" color-interpolation-filters="sRGB">
<feGaussianBlur stdDeviation="1.71"/>
</filter>
<linearGradient id="linearGradient5499-6" x1="32.17" x2="36.31" y1="32.341" y2="37.614" gradientTransform="matrix(4.7546 .62588 -.65757 5.0116 37.295 -198.06)" gradientUnits="userSpaceOnUse" xlink:href="#linearGradient2215-3"/>
<linearGradient id="linearGradient2215-3">
<stop offset="0"/>
<stop stop-color="#505050" offset="1"/>
</linearGradient>
<linearGradient id="linearGradient5501-1" x1="16.921" x2="14.717" y1="41.527" y2="27.556" gradientTransform="matrix(4.9744 0 0 4.9827 -6.5759 -186.7)" gradientUnits="userSpaceOnUse" xlink:href="#linearGradient4152-4"/>
<linearGradient id="linearGradient4152-4">
<stop stop-color="#788492" offset="0"/>
<stop stop-color="#fafafa" offset="1"/>
</linearGradient>
<linearGradient id="linearGradient5503-8" x1="5.5588" x2="26.937" y1="8.7893" y2="48.566" gradientTransform="matrix(5.0525 0 0 4.9827 -6.7799 -186.7)" gradientUnits="userSpaceOnUse">
<stop stop-color="#fff" stop-opacity=".69072" offset="0"/>
<stop stop-opacity="0" offset="1"/>
</linearGradient>
<linearGradient id="linearGradient5505-0" x1="5.4861" x2="12.297" y1="32.174" y2="27.666" gradientTransform="matrix(6.4215 0 0 5.8462 -23.828 -215.51)" gradientUnits="userSpaceOnUse" xlink:href="#linearGradient4152-4"/>
<linearGradient id="linearGradient5507-3" x1="34.869" x2="34.869" y1="39.945" y2="43.476" gradientTransform="matrix(4.9744 0 0 4.9827 -6.5759 -186.7)" gradientUnits="userSpaceOnUse" xlink:href="#linearGradient4242-5"/>
<linearGradient id="linearGradient4242-5">
<stop offset="0"/>
<stop stop-opacity="0" offset="1"/>
</linearGradient>
<linearGradient id="linearGradient5509-4" x1="36.634" x2="36.634" y1="38.124" y2="42.428" gradientTransform="matrix(4.9744 0 0 4.9827 -6.5759 -186.7)" gradientUnits="userSpaceOnUse" xlink:href="#linearGradient4242-5"/>
<linearGradient id="linearGradient5511-3" x1="38.897" x2="42.428" y1="38.483" y2="38.483" gradientTransform="matrix(4.9744 0 0 4.9827 -6.5759 -186.7)" gradientUnits="userSpaceOnUse" xlink:href="#linearGradient4242-5"/>
<linearGradient id="linearGradient5513-6" x1="40.497" x2="44.193" y1="37.848" y2="37.848" gradientTransform="matrix(4.3016 0 0 3.7525 23.159 -138.81)" gradientUnits="userSpaceOnUse" xlink:href="#linearGradient4242-5"/>
<linearGradient id="linearGradient5515-2" x1="2.1018" x2="4.1352" y1="43.936" y2="45.881" gradientUnits="userSpaceOnUse">
<stop stop-color="#ef2929" offset="0"/>
<stop stop-color="#f79090" offset=".5"/>
<stop stop-color="#ef2929" offset="1"/>
</linearGradient>
<linearGradient id="linearGradient5517-4" x1="19.395" x2="22.225" y1="30.001" y2="32.643" gradientTransform="translate(-13.78,10.129)" gradientUnits="userSpaceOnUse" xlink:href="#linearGradient6939-7"/>
<linearGradient id="linearGradient6939-7">
<stop stop-color="#ddd" offset="0"/>
<stop stop-color="#fff" offset=".33333"/>
<stop stop-color="#b7b7b7" offset=".66667"/>
<stop stop-color="#ddd" offset="1"/>
</linearGradient>
<linearGradient id="linearGradient5519-7" x1="27.848" x2="29.624" y1="16.543" y2="18.266" gradientTransform="translate(11.058,-11.78)" gradientUnits="userSpaceOnUse">
<stop stop-color="#5b5b5b" offset="0"/>
<stop stop-color="#979797" offset=".5"/>
<stop stop-color="#454545" offset="1"/>
</linearGradient>
<linearGradient id="linearGradient5521-9" x1="19.395" x2="22.225" y1="30.001" y2="32.643" gradientTransform="matrix(4.9317 .86483 -.86961 4.9046 -37.634 -171.04)" gradientUnits="userSpaceOnUse" xlink:href="#linearGradient6939-7"/>
<linearGradient id="linearGradient5523-5" x1="26.248" x2="23.783" y1="38.032" y2="36.457" gradientTransform="matrix(0 4.818 4.7382 0 -85.29 -162.6)" gradientUnits="userSpaceOnUse" xlink:href="#linearGradient2215-3"/>
</defs>
<metadata>
<rdf:RDF>
<cc:Work rdf:about="">
<dc:format>image/svg+xml</dc:format>
<dc:type rdf:resource="http://purl.org/dc/dcmitype/StillImage"/>
<dc:title/>
</cc:Work>
</rdf:RDF>
</metadata>
<g transform="translate(0,32)">
<g transform="translate(0,-32)">
<g transform="translate(-1e-6,32)">
<g transform="translate(-8.044 -17.334)">
<path d="m97.187-14.666h-82.286c-3.7988 0-6.8571 3.0583-6.8571 6.8571v82.286c0 3.7989 3.0583 6.8571 6.8571 6.8571h82.286c3.7989 0 6.8571-3.0583 6.8571-6.8571v-82.286c0-3.7989-3.0583-6.8571-6.8571-6.8571z" opacity=".15"/>
<path d="m96.544-13.916h-81c-3.7395 0-6.75 3.0105-6.75 6.75v81c0 3.7395 3.0105 6.75 6.75 6.75h81c3.7395 0 6.75-3.0105 6.75-6.75v-81c0-3.7395-3.0105-6.75-6.75-6.75z" opacity=".15"/>
<path d="m95.901-13.166h-79.714c-3.6801 0-6.6429 2.9627-6.6429 6.6429v79.714c0 3.6801 2.9627 6.6429 6.6429 6.6429h79.714c3.6801 0 6.6429-2.9627 6.6429-6.6429v-79.714c0-3.6801-2.9627-6.6429-6.6429-6.6429z" fill="url(#linearGradient3825)"/>
<rect x="13.837" y="-8.0546" width="84.846" height="77.52" ry="4.25" fill="#8dc8fe" stroke="#fff" stroke-linecap="round" stroke-linejoin="round" stroke-width=".4"/>
<g transform="matrix(.32661 0 0 .32661 19.038 48.48)">
<g transform="matrix(1.0067 0 0 .99952 -.00822 .021125)" fill-rule="evenodd">
<path d="m3.982-10.485c32.775 9.8857 80.765-4.0161 101.47-15.063 40.557-21.645 57.465 7.768 63.011 11.51 8.6058 7.3844-17.724 27.579-16.057 44.022 0.92524 9.1283 4.6362 13.588 4.6362 13.588 7.2627-20.598 30.225-12.153 28.901-33.583 17.43 9.8508 21.171-5.8397 41.392-2.7156-2.8553-4.3599-6.5464-10.852-14.476-14.256-8.4565-3.179-22.743-2.7355-26.454-13.538-0.67653-12.223-0.49247-77.411-29.941-97.342-4.3029-8.6784 0.33827-21.047 8.7102-29.498 7.5711-7.641 18.948-14.678 22.838-19.165-17.619-0.18985-35.174 5.3395-52.361 14.652-8.959 4.8566-16.853 11.84-22.445 14.453-50.495-10.03-106.16 31.715-111.78 104.98-0.45566 5.9095-0.36562 20.125 2.5534 21.959z" fill="url(#linearGradient5499-6)"/>
<path d="m21.379-10.265c31.784 3.453 64.543-9.8259 84.749-19.139 35.189-16.448 51.142 0.88194 59.022 8.4507 0.86058 1.166 0.85063-7.9325-8.4665-13.922-37.477-17.609 10.088-17.768 7.5611-24.236-2.9051-7.4392-34.637-3.169-40.174-1.2656-19.898 6.8562-26.892 18.012-37.005 20.09-18.629 3.5477-33.02-6.5273-44.798 8.2015-20.588 25.751-24.108 21.465-20.892 21.819z" fill="url(#linearGradient5501-1)"/>
<path d="m6.6716-14.227c12.654-36.723 55.564-34.575 72.517-52.064 16.679-17.2 35.403-70.979 98.021-14.226 0.22882 0.20429-9.8742-28.875-23.982-38.476-4.1238-8.361-34.264-18.277-39.626-15.759-51.908-9.663-103.54 34.08-108.93 105.1-0.43278 5.6952-0.80287 13.663 1.9947 15.431z" fill="url(#linearGradient5503-8)"/>
<path d="m35.686-44.985c-3.3513-4.7784 13.079-21.695 18.914-18.306 3.5667 5.187-11.492 24.405-18.914 18.306z" fill="url(#linearGradient5505-0)"/>
<path d="m165.23 29.93 3.2931-2.4714-0.2736-15.123-3.0195 17.594z" fill="url(#linearGradient5507-3)" opacity=".25628"/>
<path d="m173.74 24.708 3.8452-1.9233-2.4723-19.517-1.373 21.441z" fill="url(#linearGradient5509-4)" opacity=".25126"/>
<path d="m200.09 10.413 4.3874-1.6493-17.565-9.0735 13.177 10.723z" fill="url(#linearGradient5511-3)" opacity=".23116"/>
<path d="m208.75 7.2539 4.5118-1.2457-15.903-6.8313 11.391 8.077z" fill="url(#linearGradient5513-6)" opacity=".22613"/>
</g>
<path d="m222.04-135.11-0.94379 0.24988c0.61681 12.268-5.597 24.652-8.9031 34.046-1.653 4.697-2.6174 8.657-1.4472 11.619 0.58511 1.4812 1.7159 2.6957 3.492 3.4671 1.7761 0.77132 4.1897 1.1557 7.3616 1.1557 3.2139 0 5.6735-0.80578 7.4874-2.2489s2.949-3.5242 3.5549-5.9346c1.2119-4.8209 0.41047-11.072-1.164-17.335-3.1128-12.383-9.2336-24.55-9.375-24.832-2e-3 -3e-3 -0.0629-0.18741-0.0629-0.18741zm0.0314 2.53c1.3058 2.6964 5.7386 11.997 8.4312 22.708 1.5554 6.1874 2.2995 12.381 1.164 16.898-0.56776 2.2586-1.5995 4.0919-3.2089 5.3724-1.6094 1.2805-3.8124 2.0303-6.8582 2.0303-3.0879 0-5.3689-0.40547-6.9526-1.0932-1.5836-0.68775-2.4979-1.6312-2.9887-2.8736-0.98156-2.4848-0.15473-6.2912 1.4786-10.932 3.0652-8.7096 8.7616-20.28 8.9345-32.109z" color="#000000" fill="#2e3436" style="block-progression:tb;text-indent:0;text-transform:none"/>
<g transform="matrix(4.9317 .86483 -.86961 4.9046 16.938 -191.05)">
<g transform="translate(3.7821,-4.306)">
<path d="m3.6678 43.136 1.716 1.58c1.05-1.2 5.8082-6.277 5.8082-6.277l-1.7372-1.516s-4.5092 4.851-5.787 6.213z" color="#000000" fill="url(#linearGradient5515-2)"/>
<path d="m9.3799 36.978 1.7161 1.58c1.05-1.201 21.624-23.107 21.624-23.107l-1.737-1.516-21.603 23.043z" color="#000000" fill="url(#linearGradient5517-4)"/>
</g>
<path d="m34.677 9.7053 1.778 1.4557c1.05-1.2008 5.328-5.5731 5.645-6.0503 1.115-0.9897-0.607-2.7366-1.799-1.3907-0.567 0.5406-4.347 4.6233-5.624 5.9853z" color="#000000" fill="url(#linearGradient5519-7)"/>
</g>
<path d="m10.96 12.546c-6.9919 6.2054-2.2049 13.8 7.0886 9.2335 1.7918-0.86159 9.7632-7.321 9.7632-7.321l-7.3439-9.0293s-2.0217 1.5389-9.5078 7.1168z" color="#000000" fill="url(#linearGradient5521-9)"/>
<path d="m13.607 17.11a1.489 1.4808 0 0 1-2.978 0 1.489 1.4808 0 1 1 2.978 0z" color="#000000" fill="#fff" opacity=".53333"/>
<path d="m92.707-57.985c13.611 9.0293 47.103 36.65 31.199 40.769-53.188-1.9423-43.984-25.609-57.575-29.264-7.3314-7.3907 19.025-14.931 26.376-11.504z" fill="url(#linearGradient5523-5)" fill-rule="evenodd"/>
<path d="m189.25-166.44c-17.738-0.18975-35.386 5.3481-52.688 14.656-9.0191 4.8543-16.965 11.826-22.594 14.438-50.834-10.025-106.88 31.713-112.53 104.94-0.13257 1.707-0.20123 4.1253-0.1875 6.7188 0.026498-1.8018 0.090201-3.4659 0.1875-4.7188 5.6538-73.225 61.697-114.96 112.53-104.94 5.6288-2.6116 13.575-9.5832 22.594-14.438 16.629-8.9459 33.585-14.382 50.625-14.625 0.80041-0.71367 1.5202-1.4102 2.0625-2.0312zm27.094 26.875c-1.2286 0.0894-2.5533 0.58057-3.875 1.625-3.2664 2.1611-25.455 18.893-32.938 24.469l0.0625 0.0625-10.375 7.7188c-3.2666-4.8667-7.1447-9.0201-11.719-12.094-1.0107-2.0239-1.4978-4.2635-1.5938-6.5938-0.1811 3.063 0.29421 5.9915 1.5938 8.5938 4.5741 3.0736 8.4522 7.227 11.719 12.094l10.375-7.7188-0.0625-0.0625c7.4822-5.5757 29.671-22.308 32.938-24.469 4.6658-3.687 9.3096-0.52931 10.062 3.1562 0.69055-3.2921-2.2969-7.0643-6.1875-6.7812zm-40.906 45.531c-0.1622 0.12071-0.53606 0.41058-0.65625 0.5 12.32 27.283 12.366 65.91 12.875 75.031 3.7358 10.797 18.112 10.354 26.625 13.531 6.7698 2.8848 10.406 7.9194 13.125 12.062 0.4689 0.053816 0.94997 0.11272 1.4375 0.1875-2.8745-4.3578-6.58-10.848-14.562-14.25-8.5133-3.1774-22.889-2.734-26.625-13.531-0.49931-8.9564-0.55379-46.352-12.219-73.531zm-51.375 63.75c-0.44582 0.09564-0.89018 0.17171-1.3438 0.28125 2.8661 3.4816 4.8412 6.7223 5.2812 9.3125 0.51931-2.4455-1.1006-5.8276-3.9375-9.5938zm47.188 21.219c-1.3439 9.2338-18.731 25.038-17.875 38.5 0.87633-14.046 19.218-30.102 17.875-38.5zm-133.78 3.75c-0.94963 0.054486-1.8973 0.09012-2.8438 0.125-5.7786 4.336-11.933 8.9565-14.719 11.031-0.23385 0.17762-1.8894 1.436-8.9375 6.6875-2.7456 2.4368-3.6664 5.0772-3.2188 7.125 0.30248-1.625 1.3133-3.4339 3.2188-5.125 7.0481-5.2515 8.7036-6.5099 8.9375-6.6875 3.3237-2.4752 10.736-8.0305 17.562-13.156zm149.72 17.312c0.0148 0.23762 0.0224 0.45715 0.0312 0.6875 9e-3 -0.22108 0.0285-0.4276 0.0312-0.65625-0.0212-0.01184-0.0413-0.01933-0.0625-0.03125z" fill="#fff" fill-rule="evenodd" opacity=".7"/>
<path d="m189.25-166.44c-0.6903-7e-3 -1.3725 0.0214-2.0625 0.0312-4.9798 4.4401-14.34 10.545-20.906 17.125-6.4617 6.4758-10.69 15.249-10.375 22.906 0.41452-7.1536 4.4684-14.987 10.375-20.906 7.6219-7.6373 19.053-14.671 22.969-19.156zm33.281 31.688c-0.26011 1.2024-1.0259 2.3432-2.4062 3.1875-1.9658 2.0532-26.521 19.547-32.938 24.656l0.0625 0.0937s-10.204 7.5964-12.469 9.2812c0.22296 0.49374 0.44126 0.99907 0.65625 1.5 2.894-2.1536 11.812-8.7812 11.812-8.7812l-0.0625-0.0937c6.4168-5.1095 30.972-22.603 32.938-24.656 2.1387-1.3082 2.7782-3.3135 2.4062-5.1875zm-89.656 99.375c-3.1453 0.06796-6.5277 0.49872-10.156 1.375 0.47783 0.58046 0.91822 1.1538 1.3438 1.7188 28.086-6.0252 40.847 15.144 45.531 18.281 0.96586 0.82286 1.4774 1.8193 1.6562 2.9375 0.28638-1.9677-0.1515-3.6555-1.6562-4.9375-4.1637-2.789-14.702-19.851-36.719-19.375zm-131.62 7.6875c-0.098428 6.6929 0.43472 15.775 2.75 17.219 9.3059 2.7868 19.841 3.6787 30.625 3.2812 1.1153-0.83686 1.7393-1.2958 2.8438-2.125-11.77 0.67534-23.346-0.12484-33.469-3.1562-2.0893-1.3031-2.7162-8.8383-2.75-15.219zm95.719 4.4688c-9.8561 4.1194-22.626 8.1718-36.25 10.875-0.02347 0.01864-0.1666 0.13952-0.1875 0.15625l-0.03125-0.03125c-1.0691 0.79716-25.609 19.053-32.719 24.656l0.03125 0.03125s-7.9582 6.4509-9.75 7.3125c-5.644 2.7735-9.6202 1.0421-10.312-2.125-0.80745 4.3379 3.5517 7.4473 10.312 4.125 1.7918-0.86159 9.75-7.3125 9.75-7.3125l-0.03125-0.03125c7.1096-5.6028 31.65-23.859 32.719-24.656l0.03125 0.03125c0.0209-0.01673 0.16403-0.13761 0.1875-0.15625 13.624-2.7032 26.394-6.7556 36.25-10.875 6.5671 2.0834 15.245 3.573 26.938 4 3.4061-0.88204 4.5402-2.8407 4.0938-5.4688-0.34407 1.6203-1.6215 2.8285-4.0938 3.4688-11.693-0.427-20.37-1.9166-26.938-4zm126.56 28.094c-15.869 0.013148-20.441 12.048-36.344 3.125 0.0438 0.70514 0.0702 1.3887 0.0625 2.0312 17.493 9.7724 21.262-5.8689 41.594-2.75-0.43667-0.662-0.95039-1.4454-1.4375-2.1875-1.3666-0.15685-2.6528-0.21976-3.875-0.21875zm-36.312 5.8125c-0.73568 18.029-22.14 11.205-29.125 30.875 0 0-3.756-4.4386-4.6875-13.562-0.0189-0.18501-0.0194-0.37656-0.0312-0.5625-0.0536 0.85964-0.0547 1.7203 0.0312 2.5625 0.93145 9.1239 4.6875 13.562 4.6875 13.562 7.2303-20.36 29.911-12.341 29.125-32.875z" fill-rule="evenodd" opacity=".7"/>
<path d="m189.25-164.44c-0.6903-7e-3 -1.3725 0.0214-2.0625 0.0312-4.9798 4.4401-14.34 10.545-20.906 17.125-6.4617 6.4758-10.69 15.249-10.375 22.906 0.41452-7.1536 4.4684-14.987 10.375-20.906 7.6219-7.6373 19.053-14.671 22.969-19.156zm33.281 31.688c-0.26011 1.2024-1.0259 2.3432-2.4062 3.1875-1.9658 2.0532-26.521 19.547-32.938 24.656l0.0625 0.0937s-10.204 7.5964-12.469 9.2812c0.22296 0.49374 0.44126 0.99907 0.65625 1.5 2.894-2.1536 11.812-8.7812 11.812-8.7812l-0.0625-0.0937c6.4168-5.1095 30.972-22.603 32.938-24.656 2.1387-1.3082 2.7782-3.3135 2.4062-5.1875zm-89.656 99.375c-3.1453 0.06796-6.5277 0.49872-10.156 1.375 0.47783 0.58046 0.91822 1.1538 1.3438 1.7188 28.086-6.0252 40.847 15.144 45.531 18.281 0.96586 0.82286 1.4774 1.8193 1.6562 2.9375 0.28638-1.9677-0.1515-3.6555-1.6562-4.9375-4.1637-2.789-14.702-19.851-36.719-19.375zm-131.62 7.6875c-0.098428 6.6929 0.43472 15.775 2.75 17.219 9.3059 2.7868 19.841 3.6787 30.625 3.2812 1.1153-0.83686 1.7393-1.2958 2.8438-2.125-11.77 0.67534-23.346-0.12484-33.469-3.1562-2.0893-1.3031-2.7162-8.8383-2.75-15.219zm95.719 4.4688c-9.8561 4.1194-22.626 8.1718-36.25 10.875-0.02347 0.01864-0.1666 0.13952-0.1875 0.15625l-0.03125-0.03125c-1.0691 0.79716-25.609 19.053-32.719 24.656l0.03125 0.03125s-7.9582 6.4509-9.75 7.3125c-5.644 2.7735-9.6202 1.0421-10.312-2.125-0.80745 4.3379 3.5517 7.4473 10.312 4.125 1.7918-0.86159 9.75-7.3125 9.75-7.3125l-0.03125-0.03125c7.1096-5.6028 31.65-23.859 32.719-24.656l0.03125 0.03125c0.0209-0.016734 0.16403-0.13761 0.1875-0.15625 13.624-2.7032 26.394-6.7556 36.25-10.875 6.5671 2.0834 15.245 3.573 26.938 4 3.4061-0.88204 4.5402-2.8407 4.0938-5.4688-0.34407 1.6203-1.6215 2.8285-4.0938 3.4688-11.693-0.427-20.37-1.9166-26.938-4zm126.56 28.094c-15.869 0.013148-20.441 12.048-36.344 3.125 0.0438 0.70514 0.0702 1.3887 0.0625 2.0312 17.493 9.7724 21.262-5.8689 41.594-2.75-0.43667-0.662-0.95039-1.4454-1.4375-2.1875-1.3666-0.15685-2.6528-0.21976-3.875-0.21875zm-36.312 5.8125c-0.73568 18.029-22.14 11.205-29.125 30.875 0 0-3.756-4.4386-4.6875-13.562-0.0189-0.18501-0.0194-0.37656-0.0312-0.5625-0.0536 0.85964-0.0547 1.7203 0.0312 2.5625 0.93145 9.1239 4.6875 13.562 4.6875 13.562 7.2303-20.36 29.911-12.341 29.125-32.875z" fill-rule="evenodd" opacity=".3"/>
</g>
<g transform="matrix(1.1071 0 0 1.1071 -107.81 -18.148)">
<path d="m112 4.5c-3.324 0-6 2.676-6 6v15h1v-15c0-2.7873 2.2127-5 5-5h72c2.7873 0 5 2.2127 5 5v15h1v-15c0-3.324-2.676-6-6-6h-72z" fill="url(#radialGradient3827)" opacity=".45"/>
</g>
<path d="m9.544 67.178v6c0 3.6801 2.9761 6.6562 6.6562 6.6562h79.688c3.6801 0 6.6563-2.9761 6.6563-6.6562v-6c0 3.6801-2.9761 6.6562-6.6563 6.6562h-79.688c-3.6801 0-6.6562-2.9761-6.6562-6.6562z" fill="url(#linearGradient3829)" opacity=".89091"/>
<rect x="13.419" y="65.584" width="84.25" height="4.25" rx="0" ry="4.25" fill="url(#radialGradient3831)" opacity=".55"/>
<rect transform="rotate(90)" x="-9.9156" y="-98.669" width="76.75" height="4.25" rx="0" ry="4.25" fill="url(#radialGradient3833)" opacity=".55"/>
<g transform="translate(251.29 -104.9)">
<g display="none">
<rect x="5" y="7" width="86" height="85" rx="6" ry="6" fill="url(#linearGradient3839)" filter="url(#filter3174-3)" opacity=".9"/>
</g>
</g>
<rect transform="matrix(.9093 0 0 .92838 12.389 19.829)" x="2" y="-30" width="92" height="92" rx="3.957" ry="3.957" clip-path="url(#clipPath4156-4)" fill="url(#linearGradient3837)" opacity=".629"/>
<path d="m17.869-9.9361c-3.1166 0-5.668 2.5395-5.668 5.646v69.278c0 3.1065 2.5513 5.646 5.668 5.646h76.792c3.1166 0 5.668-2.5395 5.668-5.646v-69.278c0-3.1065-2.5513-5.646-5.668-5.646h-76.792zm0 2.3194h76.792c1.8881 0 3.352 1.4801 3.352 3.3266v69.278c0 1.8465-1.4639 3.3266-3.352 3.3266h-76.792c-1.8881 0-3.352-1.4801-3.352-3.3266v-69.278c0-1.8465 1.4639-3.3266 3.352-3.3266z" color="#000000" fill="#241f1f" fill-opacity=".63265" style="block-progression:tb;text-indent:0;text-transform:none"/>
</g>
</g>
<g display="none">
<rect x="5" y="7" width="86" height="85" rx="6" ry="6" fill="url(#linearGradient3839)" filter="url(#filter3174-36)" opacity=".9"/>
</g>
<g display="none">
<rect x="5" y="7" width="86" height="85" rx="6" ry="6" fill="url(#linearGradient3839)" filter="url(#filter3174)" opacity=".9"/>
</g>
</g>
</g>
</svg>
