<?xml version="1.0" encoding="UTF-8"?>
<!-- Created with Inkscape (http://www.inkscape.org/) -->
<svg version="1.1" viewBox="0 0 96 96" xmlns="http://www.w3.org/2000/svg" xmlns:cc="http://creativecommons.org/ns#" xmlns:dc="http://purl.org/dc/elements/1.1/" xmlns:rdf="http://www.w3.org/1999/02/22-rdf-syntax-ns#" xmlns:xlink="http://www.w3.org/1999/xlink">
<script xlink:href=""/>
<defs>
<linearGradient id="linearGradient4767" x1="2.7714" x2="50.528" y1="-28.642" y2="14.514" gradientUnits="userSpaceOnUse" xlink:href="#linearGradient4213-7"/>
<linearGradient id="linearGradient4213-7">
<stop stop-color="#fff" offset="0"/>
<stop stop-color="#fff" stop-opacity="0" offset="1"/>
</linearGradient>
<linearGradient id="linearGradient4071-3" x1="6" x2="90" y1="47" y2="47" gradientTransform="matrix(1.1071 0 0 1.1071 -4.9939 -3.6207)" gradientUnits="userSpaceOnUse">
<stop stop-color="#b2babc" offset="0"/>
<stop stop-color="#fff" offset=".25"/>
<stop stop-color="#96a1a4" offset=".5"/>
<stop stop-color="#fbf9f9" offset=".75"/>
<stop stop-color="#b2b9bc" offset="1"/>
</linearGradient>
<linearGradient id="linearGradient4129-2" x1="1.5" x2="94.5" y1="88.172" y2="88.172" gradientTransform="translate(.14895 .41503)" gradientUnits="userSpaceOnUse">
<stop offset="0"/>
<stop stop-opacity=".58824" offset=".1"/>
<stop stop-opacity=".58824" offset=".9"/>
<stop offset="1"/>
</linearGradient>
<radialGradient id="radialGradient7462" cx="13.948" cy="44.893" r="43.199" gradientTransform="matrix(.97513 0 0 .049191 34.048 80.582)" gradientUnits="userSpaceOnUse" xlink:href="#linearGradient4213-7"/>
<radialGradient id="radialGradient7464" cx="13.948" cy="44.893" r="43.199" gradientTransform="matrix(.88833 0 0 .049191 31.96 -90.317)" gradientUnits="userSpaceOnUse" xlink:href="#linearGradient4213-7"/>
<linearGradient id="linearGradient3979-6" x1="16" x2="80" y1="48" y2="48" gradientTransform="rotate(90,48,48)" gradientUnits="userSpaceOnUse">
<stop stop-color="#1e1e1e" offset="0"/>
<stop stop-color="#505050" offset="1"/>
</linearGradient>
<clipPath id="clipPath4156-4-1">
<path d="m27.046-55.695-14.214 13.321h0.06127l15.653 21.771 10.231-10.546c-0.2169-1.1522-11.311-23.67-11.732-24.546zm-17.399 16.313-14.888 14.062 21.229 17.515 10.385-10.577zm31.491 12.951-9.7413 9.7136 8.9448 12.458 7.7808-7.555zm-49.84 4.3788-13.754 12.982 26.283 13.846 0.06127-0.0617-0.12253-0.0617 9.8332-10.053-22.301-16.652zm38.015 7.4008-9.8025 9.7753 11.579 9.5594 7.6276-7.4008-8.6691-11.009zm20.187 5.674-7.3825 7.2158 6.1878 8.5418 5.8202-6.1365zm-32.195 6.3215-9.5575 9.4977 13.662 7.185 7.9339-7.6784zm23.312 2.3744-7.1068 6.9383 8.3628 6.9074 5.3608-5.674-0.06127-0.0925-0.0919 0.12335-6.4635-8.2026zm-8.7304 8.5418-7.5051 7.3392 10.354 5.4581c1.3975-1.321 5.6751-6.1229 5.8509-6.3215z" fill="#fff" opacity=".6"/>
</clipPath>
</defs>
<metadata>
<rdf:RDF>
<cc:Work rdf:about="">
<dc:format>image/svg+xml</dc:format>
<dc:type rdf:resource="http://purl.org/dc/dcmitype/StillImage"/>
<dc:title/>
</cc:Work>
</rdf:RDF>
</metadata>
<g transform="translate(0,32)">
<g transform="translate(-8.044 -17.334)">
<g transform="translate(7.895 -15.081)">
<path d="m89.292 0.41503h-82.286c-3.7988 0-6.8571 3.0583-6.8571 6.8571v82.286c0 3.7989 3.0583 6.8571 6.8571 6.8571h82.286c3.7989 0 6.8571-3.0583 6.8571-6.8571v-82.286c0-3.7989-3.0583-6.8571-6.8571-6.8571z" opacity=".15"/>
<path d="m88.649 1.165h-81c-3.7395 0-6.75 3.0105-6.75 6.75v81c0 3.7395 3.0105 6.75 6.75 6.75h81c3.7395 0 6.75-3.0105 6.75-6.75v-81c0-3.7395-3.0105-6.75-6.75-6.75z" opacity=".15"/>
<path d="m88.006 1.915h-79.714c-3.6801 0-6.6429 2.9627-6.6429 6.6429v79.714c0 3.6801 2.9627 6.6429 6.6429 6.6429h79.714c3.6801 0 6.6429-2.9627 6.6429-6.6429v-79.714c0-3.6801-2.9627-6.6429-6.6429-6.6429z" fill="url(#linearGradient4071-3)"/>
<path d="m11.39 6.8022c-2.8565 0-5.1241 2.2884-5.1241 5.171v68.58c1.0972 1.6845 2.9688 2.8117 5.1241 2.8117h73.787c2.1553 0 4.0269-1.1272 5.1241-2.8117v-68.58c0-2.8826-2.2676-5.171-5.1241-5.171z" fill="#f5f3f3" opacity=".77865"/>
<path d="m9.974 5.1445c-3.1166 0-5.668 2.5395-5.668 5.646v69.278c0 3.1065 2.5513 5.646 5.668 5.646h76.792c3.1166 0 5.668-2.5395 5.668-5.646v-69.278c0-3.1065-2.5513-5.646-5.668-5.646zm0 2.3194h76.792c1.8881 0 3.352 1.4801 3.352 3.3266v69.278c0 1.8465-1.4639 3.3266-3.352 3.3266h-76.792c-1.8881 0-3.352-1.4801-3.352-3.3266v-69.278c0-1.8465 1.4639-3.3266 3.352-3.3266z" color="#000000" fill="#241f1f" fill-opacity=".63265" style="text-decoration-line:none;text-indent:0;text-transform:none"/>
<path d="m1.649 82.259v6c0 3.6801 2.9761 6.6562 6.6562 6.6562h79.687c3.6801 0 6.6563-2.9761 6.6563-6.6562v-6c0 3.6801-2.9761 6.6562-6.6563 6.6562h-79.687c-3.6801 0-6.6562-2.9761-6.6562-6.6562z" fill="url(#linearGradient4129-2)" opacity=".65818"/>
<rect x="5.524" y="80.665" width="84.25" height="4.25" rx="0" ry="4.25" fill="url(#radialGradient7462)" opacity=".55"/>
<rect transform="rotate(90)" x="5.975" y="-90.234" width="76.75" height="4.25" rx="0" ry="4.25" fill="url(#radialGradient7464)" opacity=".669"/>
<g transform="translate(.14896 -1.085)">
<path d="m80 48c0-2.216-1.784-4-4-4h-10c-2.216 0-4 1.784-4 4s1.784 4 4 4h10c2.216 0 4-1.784 4-4zm-8.1875-19.812c0-1.0225-0.40403-2.029-1.1875-2.8125-1.5669-1.5669-4.0893-1.5669-5.6562 0l-7.0625 7.0625c-1.5669 1.5669-1.5669 4.0893 0 5.6562s4.0893 1.5669 5.6562 0l7.0625-7.0625c0.78347-0.78347 1.1875-1.8213 1.1875-2.8438zm0 39.625c0-1.0225-0.40403-2.0603-1.1875-2.8438l-7.0625-7.0625c-1.5669-1.5669-4.0893-1.5669-5.6562 0s-1.5669 4.0893 0 5.6562l7.0625 7.0625c1.5669 1.5669 4.0893 1.5669 5.6562 0 0.78347-0.78347 1.1875-1.79 1.1875-2.8125zm-19.812-47.812c0-2.216-1.784-4-4-4s-4 1.784-4 4v10c0 2.216 1.784 4 4 4s4-1.784 4-4zm0 46c0-2.216-1.784-4-4-4s-4 1.784-4 4v10c0 2.216 1.784 4 4 4s4-1.784 4-4zm-12.719-30.719c0-1.0225-0.40403-2.0603-1.1875-2.8438l-7.0625-7.0625c-1.5669-1.5669-4.0893-1.5669-5.6562 0s-1.5669 4.0893 0 5.6562l7.0625 7.0625c1.5669 1.5669 4.0893 1.5669 5.6562 0 0.78347-0.78347 1.1875-1.79 1.1875-2.8125zm0 25.438c0-1.0225-0.40403-2.029-1.1875-2.8125-1.5669-1.5669-4.0893-1.5669-5.6562 0l-7.0625 7.0625c-1.5669 1.5669-1.5669 4.0893 0 5.6562s4.0893 1.5669 5.6562 0l7.0625-7.0625c0.78347-0.78347 1.1875-1.8213 1.1875-2.8438zm-5.2812-12.719c0-2.216-1.784-4-4-4h-10c-2.216 0-4 1.784-4 4s1.784 4 4 4h10c2.216 0 4-1.784 4-4z" color="#000000" fill="url(#linearGradient3979-6)"/>
<path d="m48 16c-2.216 0-4 1.784-4 4v10c0 2.216 1.784 4 4 4s4-1.784 4-4v-10c0-2.216-1.784-4-4-4zm0 0.96875c1.7025 0 3.0312 1.3287 3.0312 3.0312v10c0 1.7025-1.3287 3.0312-3.0312 3.0312s-3.0312-1.3287-3.0312-3.0312v-10c0-1.7025 1.3287-3.0312 3.0312-3.0312zm-19.812 7.2188c-1.0223 0-2.029 0.40402-2.8125 1.1875-1.5669 1.5669-1.5669 4.0893 0 5.6562l7.0625 7.0625c1.5669 1.5669 4.0893 1.5669 5.6562 0 0.78347-0.78347 1.1875-1.79 1.1875-2.8125s-0.40403-2.0603-1.1875-2.8438l-7.0625-7.0625c-0.78348-0.78348-1.8214-1.1875-2.8438-1.1875zm39.625 0c-1.0223 0-2.0603 0.40402-2.8438 1.1875l-7.0625 7.0625c-1.5669 1.5669-1.5669 4.0893 0 5.6562s4.0893 1.5669 5.6562 0l7.0625-7.0625c0.78347-0.78347 1.1875-1.8213 1.1875-2.8438s-0.40403-2.029-1.1875-2.8125c-0.78347-0.78348-1.7902-1.1875-2.8125-1.1875zm-39.625 0.96875c0.77027 0 1.5552 0.30523 2.1562 0.90625l7.0625 7.0625c0.60107 0.60107 0.90625 1.3858 0.90625 2.1562s-0.29619 1.5149-0.90625 2.125c-1.204 1.204-3.0773 1.204-4.2812 0l-7.0625-7.0625c-1.204-1.204-1.204-3.0773 0-4.2812 0.61002-0.61002 1.3547-0.90625 2.125-0.90625zm39.625 0c0.77027 0 1.515 0.29623 2.125 0.90625 0.61006 0.61006 0.90625 1.3545 0.90625 2.125s-0.30518 1.5552-0.90625 2.1562l-7.0625 7.0625c-1.204 1.204-3.0773 1.204-4.2812 0s-1.204-3.0773 0-4.2812l7.0625-7.0625c0.60102-0.60102 1.386-0.90625 2.1562-0.90625zm-47.812 18.844c-2.216 0-4 1.784-4 4s1.784 4 4 4h10c2.216 0 4-1.784 4-4s-1.784-4-4-4zm46 0c-2.216 0-4 1.784-4 4s1.784 4 4 4h10c2.216 0 4-1.784 4-4s-1.784-4-4-4zm-46 0.96875h10c1.7025 0 3.0312 1.3287 3.0312 3.0312s-1.3287 3.0312-3.0312 3.0312h-10c-1.7025 0-3.0312-1.3287-3.0312-3.0312s1.3287-3.0312 3.0312-3.0312zm46 0h10c1.7025 0 3.0312 1.3287 3.0312 3.0312s-1.3287 3.0312-3.0312 3.0312h-10c-1.7025 0-3.0312-1.3287-3.0312-3.0312s1.3287-3.0312 3.0312-3.0312zm-30.75 11.75c-1.0223 0-2.029 0.40403-2.8125 1.1875l-7.0625 7.0625c-1.5669 1.5669-1.5669 4.0893 0 5.6562s4.0893 1.5669 5.6562 0l7.0625-7.0625c0.78347-0.78347 1.1875-1.8213 1.1875-2.8438s-0.40403-2.029-1.1875-2.8125-1.8214-1.1875-2.8438-1.1875zm25.5 0c-1.0223 0-2.0603 0.40403-2.8438 1.1875-1.5669 1.5669-1.5669 4.0893 0 5.6562l7.0625 7.0625c1.5669 1.5669 4.0893 1.5669 5.6562 0 0.78347-0.78347 1.1875-1.79 1.1875-2.8125s-0.40403-2.0603-1.1875-2.8438l-7.0625-7.0625c-0.78347-0.78347-1.7902-1.1875-2.8125-1.1875zm-25.5 0.96875c0.77027 0 1.5552 0.30523 2.1562 0.90625 0.61006 0.61006 0.90625 1.3545 0.90625 2.125s-0.30518 1.5552-0.90625 2.1562l-7.0625 7.0625c-1.204 1.204-3.0773 1.204-4.2812 0s-1.204-3.0773 0-4.2812l7.0625-7.0625c0.61002-0.61002 1.3547-0.90625 2.125-0.90625zm25.5 0c0.77027 0 1.515 0.29623 2.125 0.90625l7.0625 7.0625c0.60107 0.60107 0.90625 1.3858 0.90625 2.1562s-0.29619 1.5149-0.90625 2.125c-1.204 1.204-3.0773 1.204-4.2812 0l-7.0625-7.0625c-1.204-1.204-1.204-3.0773 0-4.2812 0.60102-0.60102 1.386-0.90625 2.1562-0.90625zm-12.75 4.3125c-2.216 0-4 1.784-4 4v10c0 2.216 1.784 4 4 4s4-1.784 4-4v-10c0-2.216-1.784-4-4-4zm0 0.96875c1.7025 0 3.0312 1.3287 3.0312 3.0312v10c0 1.7025-1.3287 3.0312-3.0312 3.0312s-3.0312-1.3287-3.0312-3.0312v-10c0-1.7025 1.3287-3.0312 3.0312-3.0312z" color="#000000" opacity=".2"/>
<path d="m48 16c-2.216 0-4 1.784-4 4v10c0 2.216 1.784 4 4 4s4-1.784 4-4v-10c0-2.216-1.784-4-4-4zm0 2c1.1434 0 2 0.85655 2 2v10c0 1.1434-0.85655 2-2 2s-2-0.85655-2-2v-10c0-1.1434 0.85655-2 2-2zm-19.812 6.1875c-1.0223 0-2.029 0.40402-2.8125 1.1875-1.5669 1.5669-1.5669 4.0893 0 5.6562l7.0625 7.0625c1.5669 1.5669 4.0893 1.5669 5.6562 0 0.78347-0.78347 1.1875-1.79 1.1875-2.8125s-0.40403-2.0603-1.1875-2.8438l-7.0625-7.0625c-0.78348-0.78348-1.8214-1.1875-2.8438-1.1875zm39.625 0c-1.0223 0-2.0603 0.40402-2.8438 1.1875l-7.0625 7.0625c-1.5669 1.5669-1.5669 4.0893 0 5.6562s4.0893 1.5669 5.6562 0l7.0625-7.0625c0.78347-0.78347 1.1875-1.8213 1.1875-2.8438s-0.40403-2.029-1.1875-2.8125c-0.78347-0.78348-1.7902-1.1875-2.8125-1.1875zm-39.625 2c0.49581 0 1.0351 0.19139 1.4375 0.59375l7.0625 7.0625c0.40244 0.40244 0.59375 0.94146 0.59375 1.4375s-0.17252 0.98502-0.59375 1.4062c-0.80872 0.80872-2.035 0.80872-2.8438 0l-7.0625-7.0625c-0.80872-0.80872-0.80872-2.035 0-2.8438 0.42114-0.42114 0.91044-0.59375 1.4062-0.59375zm39.625 0c0.49581 0 0.98511 0.17261 1.4062 0.59375 0.42123 0.42123 0.59375 0.91021 0.59375 1.4062s-0.1913 1.0351-0.59375 1.4375l-7.0625 7.0625c-0.80872 0.80872-2.035 0.80872-2.8438 0s-0.80872-2.035 0-2.8438l7.0625-7.0625c0.40235-0.40235 0.94169-0.59375 1.4375-0.59375zm-47.812 17.812c-2.216 0-4 1.784-4 4s1.784 4 4 4h10c2.216 0 4-1.784 4-4s-1.784-4-4-4zm46 0c-2.216 0-4 1.784-4 4s1.784 4 4 4h10c2.216 0 4-1.784 4-4s-1.784-4-4-4zm-46 2h10c1.1434 0 2 0.85655 2 2s-0.85655 2-2 2h-10c-1.1434 0-2-0.85655-2-2s0.85655-2 2-2zm46 0h10c1.1434 0 2 0.85655 2 2s-0.85655 2-2 2h-10c-1.1434 0-2-0.85655-2-2s0.85655-2 2-2zm-30.75 10.719c-1.0223 0-2.029 0.40403-2.8125 1.1875l-7.0625 7.0625c-1.5669 1.5669-1.5669 4.0893 0 5.6562s4.0893 1.5669 5.6562 0l7.0625-7.0625c0.78347-0.78347 1.1875-1.8213 1.1875-2.8438s-0.40403-2.029-1.1875-2.8125-1.8214-1.1875-2.8438-1.1875zm25.5 0c-1.0223 0-2.0603 0.40403-2.8438 1.1875-1.5669 1.5669-1.5669 4.0893 0 5.6562l7.0625 7.0625c1.5669 1.5669 4.0893 1.5669 5.6562 0 0.78347-0.78347 1.1875-1.79 1.1875-2.8125s-0.40403-2.0603-1.1875-2.8438l-7.0625-7.0625c-0.78347-0.78347-1.7902-1.1875-2.8125-1.1875zm-25.5 2c0.49581 0 1.0351 0.1914 1.4375 0.59375 0.42123 0.42123 0.59375 0.91021 0.59375 1.4062s-0.1913 1.0351-0.59375 1.4375l-7.0625 7.0625c-0.80872 0.80872-2.035 0.80872-2.8438 0s-0.80872-2.035 0-2.8438l7.0625-7.0625c0.42114-0.42114 0.91044-0.59375 1.4062-0.59375zm25.5 0c0.49581 0 0.98511 0.17261 1.4062 0.59375l7.0625 7.0625c0.40244 0.40244 0.59375 0.94146 0.59375 1.4375s-0.17252 0.98502-0.59375 1.4062c-0.80872 0.80872-2.035 0.80872-2.8438 0l-7.0625-7.0625c-0.80872-0.80872-0.80872-2.035 0-2.8438 0.40235-0.40235 0.94169-0.59375 1.4375-0.59375zm-12.75 3.2812c-2.216 0-4 1.784-4 4v10c0 2.216 1.784 4 4 4s4-1.784 4-4v-10c0-2.216-1.784-4-4-4zm0 2c1.1434 0 2 0.85655 2 2v10c0 1.1434-0.85655 2-2 2s-2-0.85655-2-2v-10c0-1.1434 0.85655-2 2-2z" color="#000000" opacity=".05"/>
<path d="m48 16c-2.216 0-4 1.784-4 4v1c0-2.216 1.784-4 4-4s4 1.784 4 4v-1c0-2.216-1.784-4-4-4zm-19.812 8.1875c-1.0223 0-2.029 0.40402-2.8125 1.1875-0.9089 0.9089-1.2705 2.1336-1.125 3.3125 0.10882-0.84641 0.4721-1.6596 1.125-2.3125 1.5669-1.5669 4.0893-1.5669 5.6562 0l7.0625 7.0625c0.65312 0.65312 1.0447 1.4934 1.1562 2.3438 0.02226-0.16828 0.03125-0.32988 0.03125-0.5 0-1.0225-0.40403-2.0603-1.1875-2.8438l-7.0625-7.0625c-0.78348-0.78348-1.8214-1.1875-2.8438-1.1875zm39.625 0c-1.0223 0-2.0603 0.40402-2.8438 1.1875l-7.0625 7.0625c-0.9089 0.9089-1.2705 2.1336-1.125 3.3125 0.10882-0.84641 0.4721-1.6596 1.125-2.3125l7.0625-7.0625c1.5669-1.5669 4.0893-1.5669 5.6562 0 0.65312 0.65312 1.0447 1.4693 1.1562 2.3125 0.02226-0.16972 0.03125-0.32988 0.03125-0.5 0-1.0225-0.40403-2.029-1.1875-2.8125-0.78347-0.78348-1.7902-1.1875-2.8125-1.1875zm-47.812 19.812c-2.216 0-4 1.784-4 4 0 0.17065 0.04196 0.33509 0.0625 0.5 0.2462-1.9765 1.8921-3.5 3.9375-3.5h10c2.0454 0 3.6913 1.5235 3.9375 3.5 0.020541-0.16491 0.0625-0.32935 0.0625-0.5 0-2.216-1.784-4-4-4zm46 0c-2.216 0-4 1.784-4 4 0 0.17065 0.04196 0.33509 0.0625 0.5 0.2462-1.9765 1.8921-3.5 3.9375-3.5h10c2.0454 0 3.6913 1.5235 3.9375 3.5 0.020541-0.16491 0.0625-0.32935 0.0625-0.5 0-2.216-1.784-4-4-4zm-30.75 12.719c-1.0223 0-2.029 0.40403-2.8125 1.1875l-7.0625 7.0625c-0.91405 0.91405-1.2773 2.1588-1.125 3.3438 0.10535-0.85352 0.46696-1.6857 1.125-2.3438l7.0625-7.0625c1.5669-1.5669 4.0893-1.5669 5.6562 0 0.65312 0.65312 1.0447 1.4693 1.1562 2.3125 0.02226-0.16972 0.03125-0.32988 0.03125-0.5 0-1.0225-0.40403-2.029-1.1875-2.8125s-1.8214-1.1875-2.8438-1.1875zm25.5 0c-1.0223 0-2.0603 0.40403-2.8438 1.1875-0.91405 0.91405-1.2773 2.1588-1.125 3.3438 0.10535-0.85352 0.46696-1.6857 1.125-2.3438 1.5669-1.5669 4.0893-1.5669 5.6562 0l7.0625 7.0625c0.65312 0.65312 1.0447 1.4934 1.1562 2.3438 0.02226-0.16828 0.03125-0.32988 0.03125-0.5 0-1.0225-0.40403-2.0603-1.1875-2.8438l-7.0625-7.0625c-0.78347-0.78347-1.7902-1.1875-2.8125-1.1875zm-12.75 5.2812c-2.216 0-4 1.784-4 4v1c0-2.216 1.784-4 4-4s4 1.784 4 4v-1c0-2.216-1.784-4-4-4z" color="#000000" opacity=".6"/>
<path d="m24.25 28.688c-0.15234 1.185 0.21095 2.4297 1.125 3.3438l7.0625 7.0625c1.5669 1.5669 4.0893 1.5669 5.6562 0 0.78347-0.78347 1.1875-1.79 1.1875-2.8125 0-0.17012-9e-3 -0.33028-0.03125-0.5-0.11151 0.84316-0.50313 1.6594-1.1562 2.3125-1.5669 1.5669-4.0893 1.5669-5.6562 0l-7.0625-7.0625c-0.65804-0.65804-1.0197-1.4902-1.125-2.3438zm47.531 0c-0.11151 0.85038-0.50313 1.6906-1.1562 2.3438l-7.0625 7.0625c-1.5669 1.5669-4.0893 1.5669-5.6562 0-0.65804-0.65804-1.0197-1.4902-1.125-2.3438-0.15234 1.185 0.21095 2.4297 1.125 3.3438 1.5669 1.5669 4.0893 1.5669 5.6562 0l7.0625-7.0625c0.78347-0.78347 1.1875-1.8213 1.1875-2.8438 0-0.17012-9e-3 -0.33172-0.03125-0.5zm-27.781 1.3125v1c0 2.216 1.784 4 4 4s4-1.784 4-4v-1c0 2.216-1.784 4-4 4s-4-1.784-4-4zm-27.938 18.5c-0.020541 0.16491-0.0625 0.32935-0.0625 0.5 0 2.216 1.784 4 4 4h10c2.216 0 4-1.784 4-4 0-0.17065-0.04196-0.33509-0.0625-0.5-0.2462 1.9765-1.8921 3.5-3.9375 3.5h-10c-2.0454 0-3.6913-1.5235-3.9375-3.5zm46 0c-0.020541 0.16491-0.0625 0.32935-0.0625 0.5 0 2.216 1.784 4 4 4h10c2.216 0 4-1.784 4-4 0-0.17065-0.04196-0.33509-0.0625-0.5-0.2462 1.9765-1.8921 3.5-3.9375 3.5h-10c-2.0454 0-3.6913-1.5235-3.9375-3.5zm-22.812 12.719c-0.11151 0.85038-0.50313 1.6906-1.1562 2.3438l-7.0625 7.0625c-1.5669 1.5669-4.0893 1.5669-5.6562 0-0.6529-0.6529-1.0162-1.4661-1.125-2.3125-0.14551 1.1789 0.2161 2.4036 1.125 3.3125 1.5669 1.5669 4.0893 1.5669 5.6562 0l7.0625-7.0625c0.78347-0.78347 1.1875-1.8213 1.1875-2.8438 0-0.17012-9e-3 -0.33172-0.03125-0.5zm17.531 0.03125c-0.14551 1.1789 0.2161 2.4036 1.125 3.3125l7.0625 7.0625c1.5669 1.5669 4.0893 1.5669 5.6562 0 0.78347-0.78347 1.1875-1.79 1.1875-2.8125 0-0.17012-9e-3 -0.33028-0.03125-0.5-0.11151 0.84316-0.50313 1.6594-1.1562 2.3125-1.5669 1.5669-4.0893 1.5669-5.6562 0l-7.0625-7.0625c-0.6529-0.6529-1.0162-1.4661-1.125-2.3125zm-12.781 14.75v1c0 2.216 1.784 4 4 4s4-1.784 4-4v-1c0 2.216-1.784 4-4 4s-4-1.784-4-4z" color="#000000" fill="#fff" opacity=".6"/>
</g>
<rect transform="matrix(1.0692 0 0 1.0477 4.4442 38.894)" x="2" y="-30" width="75.966" height="69.024" rx="3.957" ry="3.957" clip-path="url(#clipPath4156-4-1)" fill="url(#linearGradient4767)" opacity=".50781"/>
</g>
</g>
</g>
</svg>
