<?xml version="1.0" encoding="UTF-8"?>
<!-- Created with Inkscape (http://www.inkscape.org/) -->
<svg version="1.1" viewBox="0 0 96 96" xmlns="http://www.w3.org/2000/svg" xmlns:cc="http://creativecommons.org/ns#" xmlns:dc="http://purl.org/dc/elements/1.1/" xmlns:rdf="http://www.w3.org/1999/02/22-rdf-syntax-ns#" xmlns:xlink="http://www.w3.org/1999/xlink">
<defs>
<linearGradient id="linearGradient4071" x1="6" x2="90" y1="47" y2="47" gradientTransform="matrix(1.1071 0 0 1.1071 -4.9939 -3.6207)" gradientUnits="userSpaceOnUse">
<stop stop-color="#b2babc" offset="0"/>
<stop stop-color="#fff" offset=".25"/>
<stop stop-color="#96a1a4" offset=".5"/>
<stop stop-color="#fbf9f9" offset=".75"/>
<stop stop-color="#b2b9bc" offset="1"/>
</linearGradient>
<linearGradient id="linearGradient4129" x1="1.5" x2="94.5" y1="88.172" y2="88.172" gradientTransform="translate(.14895 .41503)" gradientUnits="userSpaceOnUse">
<stop offset="0"/>
<stop stop-opacity=".58824" offset=".1"/>
<stop stop-opacity=".58824" offset=".9"/>
<stop offset="1"/>
</linearGradient>
<radialGradient id="radialGradient7462" cx="13.948" cy="44.893" r="43.199" gradientTransform="matrix(.97513 0 0 .049191 34.048 80.582)" gradientUnits="userSpaceOnUse" xlink:href="#linearGradient3737"/>
<linearGradient id="linearGradient3737">
<stop stop-color="#fff" offset="0"/>
<stop stop-color="#fff" stop-opacity="0" offset="1"/>
</linearGradient>
<radialGradient id="radialGradient7464" cx="13.948" cy="44.893" r="43.199" gradientTransform="matrix(.88833 0 0 .049191 31.96 -90.317)" gradientUnits="userSpaceOnUse" xlink:href="#linearGradient3737"/>
<linearGradient id="linearGradient4767" x1="2.7714" x2="50.528" y1="-28.642" y2="14.514" gradientUnits="userSpaceOnUse" xlink:href="#linearGradient3737"/>
<clipPath id="clipPath4156-4-1">
<path d="m27.046-55.695-14.214 13.321h0.06127l15.653 21.771 10.231-10.546c-0.2169-1.1522-11.311-23.67-11.732-24.546zm-17.399 16.313-14.888 14.062 21.229 17.515 10.385-10.577zm31.491 12.951-9.7413 9.7136 8.9448 12.458 7.7808-7.555zm-49.84 4.3788-13.754 12.982 26.283 13.846 0.06127-0.0617-0.12253-0.0617 9.8332-10.053-22.301-16.652zm38.015 7.4008-9.8025 9.7753 11.579 9.5594 7.6276-7.4008-8.6691-11.009zm20.187 5.674-7.3825 7.2158 6.1878 8.5418 5.8202-6.1365zm-32.195 6.3215-9.5575 9.4977 13.662 7.185 7.9339-7.6784zm23.312 2.3744-7.1068 6.9383 8.3628 6.9074 5.3608-5.674-0.06127-0.0925-0.0919 0.12335-6.4635-8.2026zm-8.7304 8.5418-7.5051 7.3392 10.354 5.4581c1.3975-1.321 5.6751-6.1229 5.8509-6.3215z" fill="#fff" opacity=".6"/>
</clipPath>
</defs>
<metadata>
<rdf:RDF>
<cc:Work rdf:about="">
<dc:format>image/svg+xml</dc:format>
<dc:type rdf:resource="http://purl.org/dc/dcmitype/StillImage"/>
<dc:title/>
</cc:Work>
</rdf:RDF>
</metadata>
<g transform="translate(0 -1026.5)">
<g transform="translate(-.14896 1026.1)">
<path d="m89.292 0.41503h-82.286c-3.7988 0-6.8571 3.0583-6.8571 6.8571v82.286c0 3.7989 3.0583 6.8571 6.8571 6.8571h82.286c3.7989 0 6.8571-3.0583 6.8571-6.8571v-82.286c0-3.7989-3.0583-6.8571-6.8571-6.8571z" opacity=".15"/>
<path d="m88.649 1.165h-81c-3.7395 0-6.75 3.0105-6.75 6.75v81c0 3.7395 3.0105 6.75 6.75 6.75h81c3.7395 0 6.75-3.0105 6.75-6.75v-81c0-3.7395-3.0105-6.75-6.75-6.75z" opacity=".15"/>
<path d="m88.006 1.915h-79.714c-3.6801 0-6.6429 2.9627-6.6429 6.6429v79.714c0 3.6801 2.9627 6.6429 6.6429 6.6429h79.714c3.6801 0 6.6429-2.9627 6.6429-6.6429v-79.714c0-3.6801-2.9627-6.6429-6.6429-6.6429z" fill="url(#linearGradient4071)"/>
<path d="m11.39 6.8022c-2.8565 0-5.1241 2.2884-5.1241 5.171v68.58c1.0972 1.6845 2.9688 2.8117 5.1241 2.8117h73.787c2.1553 0 4.0269-1.1272 5.1241-2.8117v-68.58c0-2.8826-2.2676-5.171-5.1241-5.171z" fill="#beccde" opacity=".96"/>
<path d="m9.974 5.1445c-3.1166 0-5.668 2.5395-5.668 5.646v69.278c0 3.1065 2.5513 5.646 5.668 5.646h76.792c3.1166 0 5.668-2.5395 5.668-5.646v-69.278c0-3.1065-2.5513-5.646-5.668-5.646zm0 2.3194h76.792c1.8881 0 3.352 1.4801 3.352 3.3266v69.278c0 1.8465-1.4639 3.3266-3.352 3.3266h-76.792c-1.8881 0-3.352-1.4801-3.352-3.3266v-69.278c0-1.8465 1.4639-3.3266 3.352-3.3266z" color="#000000" fill="#202223" fill-opacity=".93689" style="text-decoration-line:none;text-indent:0;text-transform:none"/>
<path d="m1.649 82.259v6c0 3.6801 2.9761 6.6562 6.6562 6.6562h79.687c3.6801 0 6.6563-2.9761 6.6563-6.6562v-6c0 3.6801-2.9761 6.6562-6.6563 6.6562h-79.687c-3.6801 0-6.6562-2.9761-6.6562-6.6562z" fill="url(#linearGradient4129)" opacity=".65818"/>
<rect x="5.524" y="80.665" width="84.25" height="4.25" rx="0" ry="4.25" fill="url(#radialGradient7462)" opacity=".55"/>
<rect transform="rotate(90)" x="5.975" y="-90.234" width="76.75" height="4.25" rx="0" ry="4.25" fill="url(#radialGradient7464)" opacity=".669"/>
<g transform="matrix(.76441 0 0 .76441 28.469 -9.9566)">
<path d="m1.3124 24.729-5.2303 1.4745c0.70931 5.0278 0.63132 10.839 4.5877 17.394 8.8835e-4 0.0015 0.002743 2e-3 0.003658 0.0036 0.94548 1.6457 2.0051 3.7162 3.2846 5.6659 0.85085 1.2966 1.889 2.4834 3.0846 3.5309-0.24394 0.71302-0.51634 1.4905-0.71404 2.2207-0.14274 0.52722-0.10684 1.2982-0.18922 1.8993-2.1671 0.016451-4.2918-0.39461-5.8729-1.7101l-0.46055-0.38201-0.5748-0.15709c-6.3803-1.7299-6.097-3.2554-9.3218-6.0408l-6.3656-5.4945 1.9029 8.19c0.94325 4.0645 3.3172 9.6346 9.793 14.563 0.00566 6e-3 0.012247 0.0082 0.017914 0.01426 1.9151 2.0215 4.2888 2.9412 6.4049 3.2917 1.036 0.17159 1.9169 0.19993 2.8704 0.26062-0.033195 0.40952 0.035846 0.8353 0.046411 1.2531-5.3057 3.8602-10.246 7.0115-13.078 12.092l-0.092822 0.1678-0.067834 0.17852c-1.7699 4.5766-4.2784 9.1053-5.4267 14.506-1.1483 5.4004-0.69786 11.644 3.181 18.826l5.0375-2.0957c0.11483 0.37982 0.052919 0.2261 0.039263 0.1142-0.013709-0.11185-0.032044-0.3029-0.049976-0.54624-0.035882-0.48667-0.069151-1.1886-0.078546-2.0314-0.018791-1.6856 0.05853-3.9509 0.36773-6.3728 0.6184-4.8437 2.2791-10.193 5.3196-13.017l0.41057-0.38201 0.22849-0.51054c1.4771-3.3161 3.1706-4.93 5.1875-6.1586 1.8211-1.1093 4.0872-1.843 6.5013-2.774 0.2335 0.18113 0.52879 0.42244 0.86398 0.79258 0.83366 0.92058 1.5423 1.9993 1.5423 1.9993l0.07498 0.11781 0.08568 0.1071c-0.34463-0.43107-0.12861-0.52144-0.27847 0.17137-0.14985 0.69281-0.56715 1.8263-1.096 3.0989-1.0523 2.5319-2.5693 5.5787-2.8419 8.8969-0.21053 2.048 0.69484 3.3955 1.653 4.7055 0.9646 1.3188 2.2062 2.571 3.5845 3.7344 2.705 2.2834 5.5959 4.2838 8.8933 4.6127 3.2319 0.5849 5.9933-0.89167 8.5506-2.5634 1.2982-0.84869 2.4906-1.812 3.4738-2.8669 0.9832-1.0548 1.8598-2.1321 2.1421-3.813v-7e-3 -0.0105c0.50576-3.1638-0.3792-5.9099-1.0496-8.24-0.63742-2.2154-1.0092-4.0103-0.79972-5.6552 0.14486-0.26033 0.2723-0.53131 0.4427-0.59622 0.11395-0.04339 0.686-0.11684 1.0032-0.16066 5.85 4.1189 10.555 7.1493 12.224 12.631l0.17852 0.58194 0.407 0.45341c3.1286 3.4785 4.5032 5.6483 5.4374 8.6041s1.3809 6.9239 2.1064 13.467l5.4659-0.32132c-0.03426-4.3688 1.2282-7.2996 1.2389-11.899 0.01055-4.5998-1.4776-10.194-6.6798-19.204l0.21778 0.47483c-1.8467-5.3298-6.3762-10.37-12.164-14.338l-0.17137-1.2174c2.2282 0.0159 4.3949 0.26837 6.4763 1.0175l0.55695 0.19993 0.58551-0.04642c3.9253-0.31078 6.9057 1.4961 11.121 3.1061l2.6419-4.7376c-3.228-2.4656-6.681-5.101-12.396-7.9939l0.36773 0.22135c-2.7913-2.0126-5.5032-3.0695-8.1329-3.9343v-8.447c4.0261-2.0878 6.24-6.2232 8.2435-9.6181l-0.59629 0.70341c2.9103-2.4527 4.0096-5.9369 4.3628-9.2468s0.08039-6.6575 0.05356-9.6752l-5.2946-0.97109c-2.054 5.2704-2.6343 9.8197-6.2085 12.328l-0.3356 0.23563-0.25348 0.32132c-3.1102 3.9912-7.6757 4.7099-12.067 5.1339-6.6429-3.5351-11.805-2.5109-16.612-1.6994-4.005-0.52319-6.657-2.2492-8.7219-5.5338l-0.34631-0.55338-0.56052-0.33559c-4.2015-2.5308-5.9219-6.9034-8.1364-12.003zm3.8701 15.537c0.44732 0.33837 0.79401 0.7349 1.2924 1.0425 2.858 3.9969 6.9643 6.7262 12.103 7.3439l0.38558 0.04285 0.38201-0.06068c5.726-0.92855 8.4687-2.2718 14.613 1.4067l0.76759 0.45698 0.89254-0.07854c4.2006-0.38372 10.134-1.3129 14.727-5.7051-2.0063 3.3037-3.861 6.0177-6.0265 6.612l-2.0172 0.55337v16.201l1.96 0.58194c2.1032 0.62625 3.9865 1.3842 5.8551 2.3527-2.3051-0.34289-4.6506-0.46599-7.0511-0.16066l-2.7633 0.35345 1.3281 9.2825 1.0675 0.67834c5.1136 3.2428 8.7516 7.6361 10.411 11.453-3.1854-4.5686-7.9914-7.5134-12.506-10.725l-0.93182-0.66405-1.1282 0.19636c-0.59545 0.10394-1.7319 0.07096-3.1953 0.62835-1.4634 0.5574-2.9849 1.9807-3.7773 3.9343l-0.11068 0.2749-0.04998 0.28918c-0.5548 3.2261 0.3011 6.0437 0.97823 8.3971 0.67545 2.3476 1.1556 4.2377 0.90326 5.8408 0.03884-0.24028-0.15022 0.34297-0.73903 0.97466-0.59362 0.63687-1.486 1.3806-2.4599 2.0172-1.9477 1.2732-4.441 1.8202-4.6162 1.7851l-0.16066-0.0321-0.16066-0.0106c-0.60506-0.0481-3.7343-1.505-5.9693-3.3917-1.1175-0.94335-2.0999-1.9705-2.6955-2.7847-0.59555-0.81424-0.57224-1.4508-0.63192-0.90683l0.0036-0.04279 0.0036-0.04291c0.13362-1.7106 1.3301-4.5765 2.4491-7.2689 0.5595-1.3462 1.093-2.6574 1.3924-4.0414 0.29738-1.3748 0.44878-3.1577-0.78187-4.7233-0.11231-0.17356-0.80815-1.269-1.935-2.5134-0.60644-0.66967-1.291-1.3554-2.2064-1.935-0.91535-0.57963-2.3825-1.232-4.0557-0.56409-2.4217 0.96666-5.2275 1.775-8.0222 3.4774-2.6609 1.6209-5.1655 4.2276-7.0261 8.1079-0.62842 0.62056-1.134 1.3207-1.653 2.0136 0.75418-1.7628 1.5393-3.5489 2.2956-5.4767 2.0779-3.6969 6.7155-6.7465 12.66-11.168l1.3639-1.0142-0.30346-1.6744c-0.24955-1.3818-0.10136-2.4347 0.35345-3.4702l1.4781-3.3667-3.6487-0.45698c-2.3097-0.28913-4.2387-0.27058-5.6659-0.50696-1.4272-0.23638-2.2945-0.55741-3.331-1.6566l-0.1678-0.17852-0.19993-0.14994c-1.1424-0.84067-2.0054-1.6682-2.8419-2.492 0.61686 0.21472 1.0625 0.46293 1.7779 0.65691l-1.0389-0.53553c3.5724 2.9722 8.2149 3.6497 12.335 2.899l2.342-0.42485-0.09282-2.3777c-0.05888-1.5185 0.04449-2.2026 0.27848-3.0668 0.23398-0.8642 0.68391-1.9938 1.2389-3.8237l0.67476-2.2314-2.0921-1.0246c-0.70455-0.34488-1.8349-1.4949-2.8992-3.1167-1.0642-1.6218-2.0947-3.6166-3.1453-5.441l-0.014258-0.02498-0.014258-0.02499c-0.10598-0.17552-0.086808-0.32619-0.18565-0.49983zm46.901 2.8276-0.58908 0.55695c0.06349-0.04455 0.09125-0.10482 0.15351-0.14994 0.13534-0.16111 0.30375-0.23786 0.43556-0.407zm1.2746 49.936c0.07363 0.18452 0.29429 0.39733 0.35702 0.57837l0.08567 0.24634 0.1321 0.22492c0.83659 1.4489 1.0097 2.2035 1.6351 3.4309-0.0561-0.06378-0.08592-0.11796-0.14282-0.18208-0.5528-1.5691-1.2211-3.0225-2.0671-4.2985z" color="#000000" color-rendering="auto" dominant-baseline="auto" image-rendering="auto" opacity=".126" shape-rendering="auto" solid-color="#000000" style="font-feature-settings:normal;font-variant-alternates:normal;font-variant-caps:normal;font-variant-ligatures:normal;font-variant-numeric:normal;font-variant-position:normal;isolation:auto;mix-blend-mode:normal;shape-padding:0;text-decoration-color:#000000;text-decoration-line:none;text-decoration-style:solid;text-indent:0;text-orientation:mixed;text-transform:none;white-space:normal"/>
<path d="m16.769 84.006s-3.1594-4.8925-5.0268-4.1471c-5.1499 2.0556-10.519 3.1213-13.877 10.658-7.72 7.17-6.6287 23.754-6.3563 24.655-7.2428-13.409-1.3203-21.452 2.3877-31.041 2.5559-4.586 7.5847-7.7046 13.447-12.064-0.33577-1.8592-0.12936-3.5376 0.54007-5.0617-4.1483-0.51928-7.6958 0.13112-10.65-3.002-6.2758-4.6184-8.2393-9.5168-9.1173-13.3 2.7249 2.3536 3.4973 4.7402 10.396 6.6106 2.8185 2.3449 6.6154 2.9447 10.088 2.312-0.13329-3.4375 0.58667-4.3391 1.6337-7.7915-3.005-1.4716-5.2111-6.1746-7.2135-9.6515-3.5857-5.9381-3.4737-11.055-4.2225-16.362 2.1795 5.019 4.1367 10.186 9.2367 13.258 2.4707 3.9299 6.0541 6.2701 10.87 6.849 5.485-0.88948 9.6535-2.3173 16.463 1.7594 4.6466-0.42446 10.575-1.1763 14.553-6.281 4.6578-3.2684 5.312-8.761 7.1881-13.575 0.0559 6.2868 0.98149 13.071-3.4415 16.798-2.3716 4.0185-4.6278 8.2449-8.6228 9.3413v12.064c3.1389 0.93467 6.1449 1.9604 9.2695 4.2134 5.5183 2.7935 8.7393 5.2588 11.969 7.7253-3.9058-1.4917-7.4709-3.6647-12.314-3.2812-3.3524-1.2066-6.8702-1.5863-10.558-1.1172l0.75402 5.2781c5.9749 3.789 10.458 8.9954 12.142 13.855 10.148 17.575 4.9986 20.042 5.0747 29.753-1.4497-13.073-1.7215-16.368-8.2302-23.605-2.1014-6.9018-7.9338-10.311-14.139-14.725-1.7962 0.31354-3.7414 0.03093-4.9011 2.8904-0.84885 4.936 2.6519 9.4503 1.8895 14.22-0.47859 2.8495-7.5918 7.7133-11.063 7.0185-3.9814-0.31627-12.141-7.0579-11.806-10.113 0.3944-5.049 5.4639-11.857 3.6377-14.142z" color="#000000" fill="#1d2a3c" fill-opacity=".87466"/>
</g>
<rect transform="matrix(1.0692 0 0 1.0477 4.4442 38.894)" x="2" y="-30" width="75.966" height="69.024" rx="3.957" ry="3.957" clip-path="url(#clipPath4156-4-1)" fill="url(#linearGradient4767)" opacity=".65"/>
</g>
</g>
</svg>
