<?xml version="1.0" encoding="UTF-8"?>
<svg version="1.1" viewBox="0 0 48 48" xmlns="http://www.w3.org/2000/svg" xmlns:cc="http://creativecommons.org/ns#" xmlns:dc="http://purl.org/dc/elements/1.1/" xmlns:rdf="http://www.w3.org/1999/02/22-rdf-syntax-ns#" xmlns:xlink="http://www.w3.org/1999/xlink">
<title>lila-hd-48-px</title>
<metadata>
<rdf:RDF>
<cc:Work rdf:about="">
<dc:format>image/svg+xml</dc:format>
<dc:type rdf:resource="http://purl.org/dc/dcmitype/StillImage"/>
<dc:title>lila-hd-48-px</dc:title>
<dc:date>2016</dc:date>
<dc:creator>
<cc:Agent>
<dc:title>Cristian Pozzessere &lt; ilnanny &gt;</dc:title>
</cc:Agent>
</dc:creator>
<dc:subject>
<rdf:Bag>
<rdf:li>ilnanny</rdf:li>
<rdf:li>inkscape</rdf:li>
<rdf:li>vectorart</rdf:li>
<rdf:li>svg</rdf:li>
</rdf:Bag>
</dc:subject>
<dc:coverage>Italy</dc:coverage>
<dc:description>..when I have nothing to do, I scribble and have fun with inkscape.</dc:description>
<cc:license rdf:resource="http://creativecommons.org/licenses/by-sa/4.0/"/>
</cc:Work>
<cc:License rdf:about="http://creativecommons.org/licenses/by-sa/4.0/">
<cc:permits rdf:resource="http://creativecommons.org/ns#Reproduction"/>
<cc:permits rdf:resource="http://creativecommons.org/ns#Distribution"/>
<cc:requires rdf:resource="http://creativecommons.org/ns#Notice"/>
<cc:requires rdf:resource="http://creativecommons.org/ns#Attribution"/>
<cc:permits rdf:resource="http://creativecommons.org/ns#DerivativeWorks"/>
<cc:requires rdf:resource="http://creativecommons.org/ns#ShareAlike"/>
</cc:License>
</rdf:RDF>
</metadata>
<defs>
<linearGradient id="linearGradient4071" x1="6" x2="90" y1="47" y2="47" gradientTransform="matrix(.54781 0 0 .5478 -2.4446 -1.5968)" gradientUnits="userSpaceOnUse">
<stop stop-color="#b2babc" offset="0"/>
<stop stop-color="#fff" offset=".25"/>
<stop stop-color="#96a1a4" offset=".5"/>
<stop stop-color="#fbf9f9" offset=".75"/>
<stop stop-color="#b2b9bc" offset="1"/>
</linearGradient>
<linearGradient id="linearGradient4129" x1="1.5" x2="94.5" y1="88.172" y2="88.172" gradientTransform="matrix(.49479 0 0 .49479 .099999 .4)" gradientUnits="userSpaceOnUse">
<stop offset="0"/>
<stop stop-opacity=".58824" offset=".1"/>
<stop stop-opacity=".58824" offset=".9"/>
<stop offset="1"/>
</linearGradient>
<radialGradient id="radialGradient7462" cx="13.948" cy="44.893" r="43.199" gradientTransform="matrix(.48249 0 0 .024339 16.873 40.066)" gradientUnits="userSpaceOnUse" xlink:href="#linearGradient3737"/>
<linearGradient id="linearGradient3737">
<stop stop-color="#fff" offset="0"/>
<stop stop-color="#fff" stop-opacity="0" offset="1"/>
</linearGradient>
<radialGradient id="radialGradient7464" cx="13.948" cy="44.893" r="43.199" gradientTransform="matrix(.43954 0 0 .024339 16.008 -44.715)" gradientUnits="userSpaceOnUse" xlink:href="#linearGradient3737"/>
<linearGradient id="linearGradient4767" x1="2.7714" x2="50.528" y1="-28.642" y2="14.514" gradientUnits="userSpaceOnUse" xlink:href="#linearGradient3737"/>
<clipPath id="clipPath4156-4-1">
<path d="m27.046-55.695-14.214 13.321h0.06127l15.653 21.771 10.231-10.546c-0.2169-1.1522-11.311-23.67-11.732-24.546zm-17.399 16.313-14.888 14.062 21.229 17.515 10.385-10.577zm31.491 12.951-9.7413 9.7136 8.9448 12.458 7.7808-7.555zm-49.84 4.3788-13.754 12.982 26.283 13.846 0.06127-0.0617-0.12253-0.0617 9.8332-10.053-22.301-16.652zm38.015 7.4008-9.8025 9.7753 11.579 9.5594 7.6276-7.4008-8.6691-11.009zm20.187 5.674-7.3825 7.2158 6.1878 8.5418 5.8202-6.1365zm-32.195 6.3215-9.5575 9.4977 13.662 7.185 7.9339-7.6784zm23.312 2.3744-7.1068 6.9383 8.3628 6.9074 5.3608-5.674-0.06127-0.0925-0.0919 0.12335-6.4635-8.2026zm-8.7304 8.5418-7.5051 7.3392 10.354 5.4581c1.3975-1.321 5.6751-6.1229 5.8509-6.3215z" fill="#fff" opacity=".6"/>
</clipPath>
</defs>
<g transform="translate(.15 -.15)">
<path d="m44.207 0.4h-40.714c-1.8796 0-3.3929 1.5132-3.3929 3.3929v40.714c0 1.8796 1.5132 3.3929 3.3929 3.3929h40.714c1.8796 0 3.3929-1.5132 3.3929-3.3929v-40.714c0-1.8796-1.5132-3.3929-3.3929-3.3929z" opacity=".15"/>
<path d="m43.889 0.77109h-40.078c-1.8503 0-3.3398 1.4896-3.3398 3.3398v40.078c0 1.8503 1.4896 3.3398 3.3398 3.3398h40.078c1.8503 0 3.3398-1.4896 3.3398-3.3398v-40.078c0-1.8503-1.4896-3.3398-3.3398-3.3398z" opacity=".15"/>
<path d="m43.571 1.1422h-39.442c-1.8209 0-3.2868 1.4659-3.2868 3.2868v39.442c0 1.8209 1.4659 3.2868 3.2868 3.2868h39.442c1.8209 0 3.2868-1.4659 3.2868-3.2868v-39.442c0-1.8209-1.4659-3.2868-3.2868-3.2868z" fill="url(#linearGradient4071)"/>
<path d="m5.6621 3.5603c-1.4134 0-2.5354 1.1458-2.5354 2.5892v34.339c0.54291 0.84343 1.469 1.4079 2.5354 1.4079h37.286c1.0664 0 1.2159 0.01799 1.7588-0.82543v-34.921c0-1.4434-1.122-2.5892-2.5354-2.5892z" fill="#956eb3" opacity=".9"/>
<path d="m4.9614 2.7401c-1.5421 0-2.8045 1.2565-2.8045 2.7936v34.278c0 1.5371 1.2624 2.7936 2.8045 2.7936h37.996c1.5421 0 2.8045-1.2565 2.8045-2.7936v-34.278c0-1.5371-1.2624-2.7936-2.8045-2.7936zm0 1.1476h37.996c0.93422 0 1.6586 0.73234 1.6586 1.646v34.278c0 0.91362-0.72434 1.646-1.6586 1.646h-37.996c-0.93422 0-1.6586-0.73234-1.6586-1.646v-34.278c0-0.91362 0.72434-1.646 1.6586-1.646z" color="#000000" fill="#1f2224" fill-opacity=".99559" style="text-decoration-line:none;text-indent:0;text-transform:none"/>
<path d="m0.84219 40.896v2.9688c0 1.8209 1.4726 3.2935 3.2935 3.2935h39.429c1.8209 0 3.2935-1.4726 3.2935-3.2935v-2.9688c0 1.8209-1.4726 3.2935-3.2935 3.2935h-39.429c-1.8209 0-3.2935-1.4726-3.2935-3.2935z" fill="url(#linearGradient4129)" opacity=".65818"/>
<rect x="2.7595" y="40.107" width="41.686" height="2.1029" rx="0" ry="2.1029" fill="url(#radialGradient7462)" opacity=".55"/>
<rect transform="rotate(90)" x="3.151" y="-44.673" width="37.975" height="2.1029" rx="0" ry="2.1029" fill="url(#radialGradient7464)" opacity=".669"/>
<path d="m24.355 9.6308c-0.56628 0.02212-0.74324 0.19023-0.74324 0.4966 0 0.41475 0.91577 0.83393 2.8037 1.2918 1.6369 0.38931 3.6377 1.2664 4.7868 2.0782 2.389 1.6811 4.6143 5.1407 4.9682 7.7752 0.36277 2.6655 0.49217 2.9641 1.3051 2.9641 0.60499 0 0.67798-0.32406 0.47558-2.2596-0.65697-6.2644-6.1129-11.808-12.105-12.299-0.66582-0.056406-1.1491-0.072996-1.4909-0.051982m-10.274 0.47116c-1.555 0.08185-3.7073 1.8017-4.4893 3.6598-0.45346 1.0761-0.39706 1.5208 0.54416 3.5381 3.7416 8.0407 9.7904 14.227 18.913 19.337 3.6166 2.0306 3.8843 2.0738 5.5953 1.2011 1.784-0.9025 3.4308-3.0194 3.4308-4.4152 0-1.033-0.51872-1.586-3.495-3.7372-1.9222-1.3825-3.7029-2.5184-3.9617-2.5184-0.25438 0-1.106 0.65697-1.9012 1.4599-0.7908 0.80407-1.8017 1.4644-2.2341 1.4644-2.9287 0-8.8259-5.8021-8.8259-8.6877 0-0.42802 0.66913-1.4046 1.4909-2.1866 0.81623-0.78195 1.4732-1.7066 1.4599-2.0649-0.01327-0.35835-1.1193-2.0649-2.4587-3.7892-2.0008-2.5748-2.6743-3.1621-3.7626-3.266-0.09512-0.0088-0.19908-0.0088-0.30636 0m11.246 2.8601c-0.41918 0.02986-0.45346 0.21567-0.37162 0.63927 0.09954 0.51872 0.7001 0.89476 1.8194 1.1237 3.0935 0.63485 6.1959 3.9916 6.1959 6.7179 0 0.54416 0.1294 1.1237 0.28977 1.2785 0.66582 0.65254 1.1879-0.13383 1.158-1.711-0.06968-3.6675-3.7848-7.4047-7.8803-7.9533-0.57512-0.06968-0.95891-0.11281-1.21-0.10396m1.1967 3.5038c-0.49217 0.03429-0.78637 0.25106-0.78637 0.65254 0 0.23337 0.67356 0.70453 1.5031 1.0452 1.033 0.4236 1.6933 1.0761 2.1257 2.0915 0.65697 1.5462 1.335 1.8835 1.7287 0.87264 0.41918-1.0761-1.0972-3.4784-2.6566-4.2084-0.74324-0.34618-1.4256-0.48775-1.9134-0.45346" fill-opacity=".43172"/>
<path d="m23.249 8.5248c-0.56628 0.02212-0.74324 0.19023-0.74324 0.4966 0 0.41475 0.91577 0.83393 2.8037 1.2918 1.6369 0.38931 3.6377 1.2664 4.7868 2.0782 2.389 1.6811 4.6143 5.1407 4.9682 7.7752 0.36277 2.6655 0.49217 2.9641 1.3051 2.9641 0.60499 0 0.67798-0.32406 0.47558-2.2596-0.65697-6.2644-6.1129-11.808-12.105-12.299-0.66582-0.056406-1.1491-0.072996-1.4909-0.051982m-10.274 0.47116c-1.555 0.081845-3.7073 1.8017-4.4893 3.6598-0.45346 1.0761-0.39706 1.5208 0.54416 3.5381 3.7416 8.0407 9.7904 14.227 18.913 19.337 3.6166 2.0306 3.8843 2.0738 5.5953 1.2011 1.784-0.9025 3.4308-3.0194 3.4308-4.4152 0-1.033-0.51872-1.586-3.495-3.7372-1.9222-1.3825-3.7029-2.5184-3.9617-2.5184-0.25438 0-1.106 0.65697-1.9012 1.4599-0.7908 0.80407-1.8017 1.4644-2.2341 1.4644-2.9287 0-8.8259-5.8021-8.8259-8.6877 0-0.42802 0.66913-1.4046 1.4909-2.1866 0.81623-0.78195 1.4732-1.7066 1.4599-2.0649-0.01327-0.35835-1.1193-2.0649-2.4587-3.7892-2.0008-2.5748-2.6743-3.1621-3.7626-3.266-0.09512-0.00885-0.19908-0.00885-0.30636 0m11.246 2.8601c-0.41918 0.02986-0.45346 0.21567-0.37162 0.63927 0.09954 0.51872 0.7001 0.89476 1.8194 1.1237 3.0935 0.63485 6.1959 3.9916 6.1959 6.7179 0 0.54416 0.1294 1.1237 0.28977 1.2785 0.66582 0.65254 1.1879-0.13383 1.158-1.711-0.06968-3.6675-3.7848-7.4047-7.8803-7.9533-0.57512-0.06968-0.95891-0.11281-1.21-0.10396m1.1967 3.5038c-0.49217 0.03429-0.78637 0.25106-0.78637 0.65254 0 0.23337 0.67356 0.70453 1.5031 1.0452 1.033 0.4236 1.6933 1.0761 2.1257 2.0915 0.65697 1.5462 1.335 1.8835 1.7287 0.87264 0.41918-1.0761-1.0972-3.4784-2.6566-4.2084-0.74324-0.34618-1.4256-0.48775-1.9134-0.45346" fill="#f9f9f9"/>
<rect transform="matrix(.52905 0 0 .51838 2.2252 19.439)" x="2" y="-30" width="75.966" height="69.024" rx="3.957" ry="3.957" clip-path="url(#clipPath4156-4-1)" fill="url(#linearGradient4767)" opacity=".7"/>
</g>
</svg>
