<?xml version="1.0" encoding="UTF-8"?>
<!-- Created with Inkscape (http://www.inkscape.org/) -->
<svg version="1.1" viewBox="0 0 96 96" xmlns="http://www.w3.org/2000/svg" xmlns:cc="http://creativecommons.org/ns#" xmlns:dc="http://purl.org/dc/elements/1.1/" xmlns:rdf="http://www.w3.org/1999/02/22-rdf-syntax-ns#" xmlns:xlink="http://www.w3.org/1999/xlink">
<defs>
<linearGradient id="linearGradient4071" x1="6" x2="90" y1="47" y2="47" gradientTransform="matrix(1.1071 0 0 1.1071 -4.9939 -3.6207)" gradientUnits="userSpaceOnUse">
<stop stop-color="#b4b9ba" offset="0"/>
<stop stop-color="#fff" offset=".25"/>
<stop stop-color="#98a0a2" offset=".5"/>
<stop stop-color="#fbf9f9" offset=".75"/>
<stop stop-color="#b4b8ba" offset="1"/>
</linearGradient>
<linearGradient id="linearGradient4129" x1="1.5" x2="94.5" y1="88.172" y2="88.172" gradientTransform="translate(.14895 .41503)" gradientUnits="userSpaceOnUse">
<stop offset="0"/>
<stop stop-opacity=".58824" offset=".1"/>
<stop stop-opacity=".58824" offset=".9"/>
<stop offset="1"/>
</linearGradient>
<radialGradient id="radialGradient7462" cx="13.948" cy="44.893" r="43.199" gradientTransform="matrix(.97513 0 0 .049191 34.048 80.582)" gradientUnits="userSpaceOnUse" xlink:href="#linearGradient3737"/>
<linearGradient id="linearGradient3737">
<stop stop-color="#fff" offset="0"/>
<stop stop-color="#fff" stop-opacity="0" offset="1"/>
</linearGradient>
<radialGradient id="radialGradient7464" cx="13.948" cy="44.893" r="43.199" gradientTransform="matrix(.88833 0 0 .049191 31.96 -90.317)" gradientUnits="userSpaceOnUse" xlink:href="#linearGradient3737"/>
<linearGradient id="linearGradient4767" x1="2.7714" x2="50.528" y1="-28.642" y2="14.514" gradientUnits="userSpaceOnUse" xlink:href="#linearGradient3737"/>
<clipPath id="clipPath4156-4-1">
<path d="m27.046-55.695-14.214 13.321h0.06127l15.653 21.771 10.231-10.546c-0.2169-1.1522-11.311-23.67-11.732-24.546zm-17.399 16.313-14.888 14.062 21.229 17.515 10.385-10.577zm31.491 12.951-9.7413 9.7136 8.9448 12.458 7.7808-7.555zm-49.84 4.3788-13.754 12.982 26.283 13.846 0.06127-0.0617-0.12253-0.0617 9.8332-10.053-22.301-16.652zm38.015 7.4008-9.8025 9.7753 11.579 9.5594 7.6276-7.4008-8.6691-11.009zm20.187 5.674-7.3825 7.2158 6.1878 8.5418 5.8202-6.1365zm-32.195 6.3215-9.5575 9.4977 13.662 7.185 7.9339-7.6784zm23.312 2.3744-7.1068 6.9383 8.3628 6.9074 5.3608-5.674-0.06127-0.0925-0.0919 0.12335-6.4635-8.2026zm-8.7304 8.5418-7.5051 7.3392 10.354 5.4581c1.3975-1.321 5.6751-6.1229 5.8509-6.3215z" fill="#fff" opacity=".6"/>
</clipPath>
</defs>
<metadata>
<rdf:RDF>
<cc:Work rdf:about="">
<dc:format>image/svg+xml</dc:format>
<dc:type rdf:resource="http://purl.org/dc/dcmitype/StillImage"/>
<dc:title/>
<dc:date>2017</dc:date>
<dc:creator>
<cc:Agent>
<dc:title>Cristian Pozzessere "ilnanny"</dc:title>
</cc:Agent>
</dc:creator>
<dc:subject>
<rdf:Bag>
<rdf:li>Global language</rdf:li>
</rdf:Bag>
</dc:subject>
<dc:description>Playing with Inkscape on Gnu/Linux O. S.</dc:description>
<dc:contributor>
<cc:Agent>
<dc:title>In the night, alone like a dog.</dc:title>
</cc:Agent>
</dc:contributor>
<cc:license rdf:resource="http://creativecommons.org/licenses/by-sa/4.0/"/>
</cc:Work>
<cc:License rdf:about="http://creativecommons.org/licenses/by-sa/4.0/">
<cc:permits rdf:resource="http://creativecommons.org/ns#Reproduction"/>
<cc:permits rdf:resource="http://creativecommons.org/ns#Distribution"/>
<cc:requires rdf:resource="http://creativecommons.org/ns#Notice"/>
<cc:requires rdf:resource="http://creativecommons.org/ns#Attribution"/>
<cc:permits rdf:resource="http://creativecommons.org/ns#DerivativeWorks"/>
<cc:requires rdf:resource="http://creativecommons.org/ns#ShareAlike"/>
</cc:License>
</rdf:RDF>
</metadata>
<g transform="translate(0 -1026.5)">
<g transform="translate(-.14896 1026.1)">
<path d="m89.292 0.41503h-82.286c-3.7988 0-6.8571 3.0583-6.8571 6.8571v82.286c0 3.7989 3.0583 6.8571 6.8571 6.8571h82.286c3.7989 0 6.8571-3.0583 6.8571-6.8571v-82.286c0-3.7989-3.0583-6.8571-6.8571-6.8571z" opacity=".15"/>
<path d="m88.649 1.165h-81c-3.7395 0-6.75 3.0105-6.75 6.75v81c0 3.7395 3.0105 6.75 6.75 6.75h81c3.7395 0 6.75-3.0105 6.75-6.75v-81c0-3.7395-3.0105-6.75-6.75-6.75z" opacity=".15"/>
<path d="m88.006 1.915h-79.714c-3.6801 0-6.6429 2.9627-6.6429 6.6429v79.714c0 3.6801 2.9627 6.6429 6.6429 6.6429h79.714c3.6801 0 6.6429-2.9627 6.6429-6.6429v-79.714c0-3.6801-2.9627-6.6429-6.6429-6.6429z" fill="url(#linearGradient4071)"/>
<path d="m11.39 6.8022c-2.8565 0-5.1241 2.3147-5.1241 5.2305v69.369c1.0972 1.7038 2.9688 2.8441 5.1241 2.8441h73.787c2.1553 0 4.0269-1.1402 5.1241-2.8441v-69.369c0-2.9158-2.2676-5.2305-5.1241-5.2305z" fill="#dde2f6" opacity=".77865"/>
<g transform="matrix(.54846 0 0 .58614 -606.45 254.57)">
<path transform="translate(-4.355e-5)" d="m1246.1-352.49c2.6872 1.0268 4.5583 1.4043 5.5863 2.4587-1.5022 1.5644-5.7913 1.892-6.0673 2.6741-0.3027 0.85744 4.4632 1.4049 5.7755 2.621-1.0513 1.3188-6.6935 2.8328-6.4454 3.7464 0.2044 0.75247 2.6916 0.62926 4.1688 1.2421-1.3679 1.2862-3.2022 2.5076-4.4625 3.5715-0.8085 0.68246-1.0988 0.94881-1.3173 1.3292-0.2675 0.4657 2.793 0.71829 3.0534 0.9162-9.3355 8.6839-17.641 17.069-23.38 19.925-3.3464 1.6653-18.555 4.6406-21.629 5.9067-3.0744 1.2661-4.9874 1.7349-7.2804 1.7124-2.9958-0.0294-8.2274-1.5376-10.614-2.1251-5.6734-1.3964-10.361-1.7765-15.679-3.3118-7.7465-2.2365-15.154-9.9512-25.085-18.842-1.7-1.5712-2.0062-2.0257-3.2011-3.3822-0.049-0.0558 3.7136-0.40743 3.2985-0.7624-1.231-1.0526-3.7226-3.2368-5.4695-4.5807 2.9368-1.3919 4.2126-0.74217 3.9829-1.452-0.1798-0.55538-3.455-1.7995-6.4829-3.7864 3.0641-1.3439 5.8701-1.7226 5.7312-2.3013-0.3106-1.2935-4.2955-1.2144-6.257-3.0277 1.1282-0.59369 1.7597-1.1112 5.9559-2.2869 0.9198-0.25768 3.1238-1.1129 4.339-1.8279-1.7295-12.808 21.978-37.523 48.684-38.137s45.057 20.382 47.466 35.899c0.3884 2.5021 0.1744 2.3844 5.3313 3.8205z" color="#000000" fill="#fff" fill-rule="evenodd" stroke="#000" stroke-width=".40451"/>
<path transform="translate(-4.355e-5)" d="m1206.7-383.51c6.3782 6.1833 10.438 8.2617 14.12 11.811 6.9501 6.6989 10.085 9.9922 16.282-2.4286 1.9451-3.8984 2.9229-9.1718 3.5551-12.941 1.0916-6.5067 1.3394-7.9549 1.3532-20.214-7.8759 0.76476-13.215 2.3191-19.276 4.9079-5.1438 2.1969-10.121 6.0858-17.723 17.176z" color="#000000" fill="#684444" fill-rule="evenodd" stroke="#000" stroke-width=".21071"/>
<path transform="translate(-4.355e-5)" d="m1208.3-382.82c4.0452 6.6014 6.249 8.9933 11.742 12.065 7.7686 4.3445 8.1049 7.456 14.083-0.5357 3.3389-4.4638 5.2876-13.694 5.7938-18.211 1.1597-10.35 0.5141-6.6261 0.9733-16.259-6.3255 1.0048-7.8417 0.90206-16.451 4.0428-5.726 2.0888-8.0807 4.4919-13.3 10.732-5.1087 6.1085-4.4315 5.5701-2.8407 8.1661z" color="#000000" fill="#fff" fill-rule="evenodd" stroke="#000" stroke-width=".21071"/>
<path transform="translate(-4.355e-5)" d="m1179.5-383.5c-6.3782 6.1833-10.438 8.2617-14.12 11.811-6.9501 6.6989-10.085 9.9922-16.282-2.4286-1.9451-3.8984-2.9229-9.1718-3.5551-12.941-1.0916-6.5067-1.3395-7.9549-1.3532-20.214 7.8759 0.76476 13.215 2.3191 19.276 4.9079 5.1438 2.1969 10.121 6.0858 17.723 17.176z" color="#000000" fill="#684444" fill-rule="evenodd" stroke="#000" stroke-width=".21071"/>
<path transform="translate(-4.355e-5)" d="m1177.9-382.81c-4.0452 6.6014-6.249 8.9933-11.742 12.065-7.7686 4.3445-8.1049 7.456-14.083-0.5357-3.339-4.4638-5.2876-13.694-5.7938-18.211-1.1597-10.35-0.5142-6.6261-0.9733-16.259 6.3255 1.0048 7.8417 0.90206 16.451 4.0428 5.726 2.0888 8.0807 4.4919 13.3 10.732 5.1086 6.1085 4.4315 5.5701 2.8407 8.1661z" color="#000000" fill="#fff" fill-rule="evenodd" stroke="#000" stroke-width=".21071"/>
<path transform="translate(-4.355e-5)" d="m1160.5-357.03c-2.6063-8.6731-11.804-28.272-10.966-39.401 38.76 13.815 22.648 35.381 10.966 39.401z" color="#000000" fill="#fffdfd" fill-rule="evenodd" stroke="#281e1e" stroke-width="1.699"/>
<path transform="translate(-4.355e-5)" d="m1225.7-357.04c2.6064-8.6731 11.804-28.272 10.966-39.401-38.76 13.815-22.648 35.381-10.966 39.401z" color="#000000" fill="#fffdfd" fill-rule="evenodd" stroke="#281e1e" stroke-width="1.699"/>
<path transform="translate(-4.355e-5)" d="m1244.1-352.07c2.223 0.84169 4.7489 1.0576 5.679 2.0737-1.4285 1.027-5.2002 0.75448-5.5936 2.614-0.3099 1.465 4.0035 1.7976 5.1907 2.6369-1.0205 1.0492-4.9906 1.9775-5.9355 3.6104-0.7254 1.2536 2.331 1.161 3.6676 1.7516-1.2723 0.86985-2.5155 1.899-3.6558 2.9242-0.7315 0.65771-1.4205 1.3138-2.0478 1.9253-0.2989 0.29139 2.8464 0.76037 3.082 0.95109-8.7934 8.3688-18.674 17.436-23.936 19.301-3.2088 1.1374-17.261 3.9113-20.042 5.1314-2.7815 1.2202-4.1077 1.4565-6.1823 1.4348-2.7104-0.0283-5.3319-0.64783-7.4916-1.214-5.1331-1.3457-13.208-2.9204-18.106-4.0283-7.0781-1.6008-18.501-11.63-27.417-20.494 2.164-0.44011 3.2109-0.66223 3.2058-0.82342 0-0.0715-1.2257-1.2038-1.6013-1.5459-1.1138-1.0144-2.4781-2.0714-4.0587-3.3666 2.6571-0.78682 3.7381-0.44524 3.5825-1.6211-0.1169-0.88335-3.4448-2.3874-5.8372-3.7475 2.5987-1.0363 5.6555-1.3913 5.1362-2.6361-0.6986-1.6742-3.6164-1.7194-5.661-2.578 1.0207-0.57215 1.9111-0.78334 5.9777-2.1516 0.824-0.27727 2.5746-0.84326 3.674-1.5323-1.6054-14.003 22.797-37.819 47.514-37.819 24.717 1e-5 41.784 16.532 46.277 34.301 0.8894 3.518-0.085 3.518 4.5805 4.902z" color="#000000" fill="none" stroke="#281e1e" stroke-width="1.699"/>
<circle transform="translate(-4.355e-5)" cx="1212" cy="-358.63" r="12.758" fill="#fff" stroke="#000" stroke-width="1.72"/>
<ellipse transform="translate(-4.355e-5)" cx="1211.8" cy="-358.95" rx="8.5371" ry="9.7244" stroke="#000" stroke-width=".015945"/>
<circle transform="translate(-4.355e-5)" cx="1213" cy="-363.88" r="3.1966" fill="#fff" stroke="#000" stroke-width=".0055941"/>
<circle transform="translate(-4.355e-5)" cx="1175.7" cy="-358.63" r="12.758" fill="#fff" stroke="#000" stroke-width="1.72"/>
<ellipse transform="translate(-4.355e-5)" cx="1175.6" cy="-358.95" rx="8.5371" ry="9.7244" stroke="#000" stroke-width=".015945"/>
<circle transform="translate(-4.355e-5)" cx="1176.7" cy="-363.88" r="3.1966" fill="#fff" stroke="#000" stroke-width=".0055941"/>
<path transform="translate(-4.355e-5)" d="m1170.8-325.22s0.9577 4.1355 5.3938 5.6136c4.3342 1.4442 6.4616 1.4233 10.717 0.0333 4.591-1.4996 5.9688-10.311 7.7053-10.353 1.5646-0.0374 3.5969 8.8485 7.5831 10.319 4.05 1.4944 6.2461 1.0727 10.522 0 4.2766-1.0728 4.937-3.6614 6.0111-6.7116" fill="none" stroke="#281e1e" stroke-width="1.699"/>
<path transform="translate(-4.355e-5)" d="m1166.6-326.91s-12.502 2.5459-15.908 4.1723c-6.8518 3.2715-6.7296 3.8731-12.789 10.272" fill="none" stroke="#281e1e" stroke-width="1.699"/>
<path transform="translate(-4.355e-5)" d="m1161.1-332.69s-11.356 0.61384-15.346 2.4554c-3.9899 1.8415-11.202 4.1434-13.504 8.2868" fill="none" stroke="#281e1e" stroke-width="1.699"/>
<path transform="translate(-4.355e-5)" d="m1194.3-329.57c-1.0544-0.0209-2.0807 0.0446-3.5033-0.95557-1.4226-1.0001-2.2509-1.4648-3.0308-3.2546s-2.6683-5.606-0.9953-7.2024c1.673-1.5964 12.983-1.2209 15.391 0s-0.4058 5.8265-1.0814 7.0673c-0.6756 1.2408-1.7167 2.4102-2.9564 3.471s-2.7795 0.89505-3.8238 0.87431z" stroke="#000" stroke-width=".40451"/>
<path transform="translate(-4.355e-5)" d="m1223-347.32s16.727-9.5145 27.623-8.9006c10.896 0.61384 14.272 2.7623 14.272 2.7623" fill="none" stroke="#281e1e" stroke-width="1.699"/>
<path transform="translate(-4.355e-5)" d="m1232.6-342.37s15.531-5.8108 25.367-4.6235c9.836 1.1873 14.518 5.0852 14.518 5.0852" fill="none" stroke="#281e1e" stroke-width="1.699"/>
<path transform="translate(-4.355e-5)" d="m1234-337.48s13.276 0.62129 17.187 1.6881c10.128 2.7623 15.039 6.7522 15.039 6.7522" fill="none" stroke="#281e1e" stroke-width="1.699"/>
<path transform="translate(-4.355e-5)" d="m1226.7-327.99s12.502 2.5459 15.908 4.1723c6.8517 3.2715 6.7295 3.8731 12.789 10.272" fill="none" stroke="#281e1e" stroke-width="1.699"/>
<path transform="translate(-4.355e-5)" d="m1223.6-333.56s11.356 0.61384 15.346 2.4554 11.202 4.1434 13.504 8.2868" fill="none" stroke="#281e1e" stroke-width="1.699"/>
<ellipse transform="translate(-4.355e-5)" cx="1195.4" cy="-335.98" rx="4.2006" ry="3.3096" fill="#fff" fill-rule="evenodd" opacity=".878" stroke="#281e1e" stroke-linecap="square" stroke-linejoin="round" stroke-width="1.72" style="paint-order:fill markers stroke"/>
<path d="m1150-336.19s-13.276 0.62128-17.188 1.688c-10.128 2.7623-15.039 6.7522-15.039 6.7522" fill="none" stroke="#281e1e" stroke-width="1.699"/>
<path d="m1162.7-340.85s-15.531-5.8108-25.367-4.6235c-9.836 1.1873-14.518 5.0852-14.518 5.0852" fill="none" stroke="#281e1e" stroke-width="1.699"/>
<path d="m1164.1-347.54s-16.727-9.5145-27.623-8.9006-14.272 2.7623-14.272 2.7623" fill="none" stroke="#281e1e" stroke-width="1.699"/>
</g>
<path d="m9.974 5.1445c-3.1166 0-5.668 2.5395-5.668 5.646v69.278c0 3.1065 2.5513 5.646 5.668 5.646h76.792c3.1166 0 5.668-2.5395 5.668-5.646v-69.278c0-3.1065-2.5513-5.646-5.668-5.646zm0 2.3194h76.792c1.8881 0 3.352 1.4801 3.352 3.3266v69.278c0 1.8465-1.4639 3.3266-3.352 3.3266h-76.792c-1.8881 0-3.352-1.4801-3.352-3.3266v-69.278c0-1.8465 1.4639-3.3266 3.352-3.3266z" color="#000000" fill="#241f1f" fill-opacity=".63265" style="text-decoration-line:none;text-indent:0;text-transform:none"/>
<path d="m1.649 82.259v6c0 3.6801 2.9761 6.6562 6.6562 6.6562h79.687c3.6801 0 6.6563-2.9761 6.6563-6.6562v-6c0 3.6801-2.9761 6.6562-6.6563 6.6562h-79.687c-3.6801 0-6.6562-2.9761-6.6562-6.6562z" fill="url(#linearGradient4129)" opacity=".65818"/>
<rect x="5.524" y="80.665" width="84.25" height="4.25" rx="0" ry="4.25" fill="url(#radialGradient7462)" opacity=".55"/>
<rect transform="rotate(90)" x="5.975" y="-90.234" width="76.75" height="4.25" rx="0" ry="4.25" fill="url(#radialGradient7464)" opacity=".669"/>
<rect transform="matrix(1.0692 0 0 1.0477 4.4442 38.894)" x="2" y="-30" width="75.966" height="69.024" rx="3.957" ry="3.957" clip-path="url(#clipPath4156-4-1)" fill="url(#linearGradient4767)" opacity=".50781"/>
<g transform="translate(-1207.2 803.85)"></g>
</g>
</g>
</svg>
