<?xml version="1.0" encoding="UTF-8"?>
<!-- Created with Inkscape (http://www.inkscape.org/) -->
<svg version="1.0" viewBox="0 0 96 96" xmlns="http://www.w3.org/2000/svg" xmlns:cc="http://creativecommons.org/ns#" xmlns:dc="http://purl.org/dc/elements/1.1/" xmlns:rdf="http://www.w3.org/1999/02/22-rdf-syntax-ns#" xmlns:xlink="http://www.w3.org/1999/xlink">
<defs>
<linearGradient id="ButtonShadow" x1="45.448" x2="45.448" y1="92.54" y2="7.0165" gradientTransform="scale(1.0059 .99417)" gradientUnits="userSpaceOnUse">
<stop offset="0"/>
<stop stop-opacity=".58824" offset="1"/>
</linearGradient>
<filter id="filter3174" color-interpolation-filters="sRGB">
<feGaussianBlur stdDeviation="1.71"/>
</filter>
<linearGradient id="linearGradient3837" x1="2.7714" x2="50.528" y1="-28.642" y2="14.514" gradientUnits="userSpaceOnUse">
<stop stop-color="#fff" offset="0"/>
<stop stop-color="#fff" stop-opacity="0" offset="1"/>
</linearGradient>
<radialGradient id="radialGradient3833" cx="13.948" cy="44.893" r="43.199" gradientTransform="matrix(.88833 0 0 .049191 16.069 -98.752)" gradientUnits="userSpaceOnUse" xlink:href="#linearGradient4133"/>
<radialGradient id="radialGradient3831" cx="13.948" cy="44.893" r="43.199" gradientTransform="matrix(.97513 0 0 .049191 41.943 65.501)" gradientUnits="userSpaceOnUse" xlink:href="#linearGradient4133"/>
<linearGradient id="linearGradient3829" x1="1.5" x2="94.5" y1="88.172" y2="88.172" gradientTransform="translate(8.044 -14.666)" gradientUnits="userSpaceOnUse">
<stop offset="0"/>
<stop stop-opacity=".58824" offset=".1"/>
<stop stop-opacity=".58824" offset=".9"/>
<stop offset="1"/>
</linearGradient>
<radialGradient id="radialGradient3827" cx="48" cy="-27" r="42" gradientTransform="matrix(-1.187 0 0 -.96877 113.02 -39.322)" gradientUnits="userSpaceOnUse">
<stop stop-color="#fff" offset="0"/>
<stop stop-color="#fff" offset=".8"/>
<stop stop-color="#fff" stop-opacity="0" offset="1"/>
</radialGradient>
<linearGradient id="linearGradient3825" x1="6" x2="90" y1="47" y2="47" gradientTransform="matrix(1.1071 0 0 1.1071 2.9011 -18.701)" gradientUnits="userSpaceOnUse">
<stop stop-color="#adb4c1" offset="0"/>
<stop stop-color="#fff" offset=".25"/>
<stop stop-color="#9095aa" offset=".5"/>
<stop stop-color="#fbf9f9" offset=".75"/>
<stop stop-color="#adb3c1" offset="1"/>
</linearGradient>
<filter id="filter3174-36" color-interpolation-filters="sRGB">
<feGaussianBlur stdDeviation="1.71"/>
</filter>
<filter id="filter3174-3" color-interpolation-filters="sRGB">
<feGaussianBlur stdDeviation="1.71"/>
</filter>
<linearGradient id="linearGradient4133">
<stop stop-color="#fff" offset="0"/>
<stop stop-color="#fff" stop-opacity="0" offset="1"/>
</linearGradient>
<clipPath id="clipPath4156-4">
<path d="m27.046-55.695-14.214 13.321h0.06127l15.653 21.771 10.231-10.546c-0.2169-1.1522-11.311-23.67-11.732-24.546zm-17.399 16.313-14.888 14.062 21.229 17.515 10.385-10.577-16.726-21zm31.491 12.951-9.7413 9.7136 8.9448 12.458 7.7808-7.555-6.9843-14.617zm-49.84 4.3788-13.754 12.982 26.283 13.846 0.06127-0.0617-0.12253-0.0617 9.8332-10.053-22.301-16.652zm38.015 7.4008-9.8025 9.7753 11.579 9.5594 7.6276-7.4008-8.6691-11.009-0.73519-0.9251zm20.187 5.674-7.3825 7.2158 6.1878 8.5418 5.8202-6.1365-4.6256-9.6211zm-32.195 6.3215-9.5575 9.4977 13.662 7.185 7.9339-7.6784-12.039-9.0043zm23.312 2.3744-7.1068 6.9383 8.3628 6.9074 5.3608-5.674-0.06127-0.0925-0.0919 0.12335-6.4635-8.2026zm-8.7304 8.5418-7.5051 7.3392 10.354 5.4581c1.3975-1.321 5.6751-6.1229 5.8509-6.3215l-8.6997-6.4757z" fill="#fff" opacity=".6"/>
</clipPath>
<filter id="filter3174-2" color-interpolation-filters="sRGB">
<feGaussianBlur stdDeviation="1.71"/>
</filter>
<filter id="filter3712-2" color-interpolation-filters="sRGB">
<feGaussianBlur stdDeviation="1.5889298"/>
</filter>
</defs>
<metadata>
<rdf:RDF>
<cc:Work rdf:about="">
<dc:format>image/svg+xml</dc:format>
<dc:type rdf:resource="http://purl.org/dc/dcmitype/StillImage"/>
<dc:title/>
</cc:Work>
</rdf:RDF>
</metadata>
<g display="none">
<rect x="5" y="7" width="86" height="85" rx="6" ry="6" fill="url(#ButtonShadow)" filter="url(#filter3174)" opacity=".9"/>
</g>
<g transform="translate(-1e-6,32)">
<g transform="translate(-8.044 -17.334)">
<g transform="translate(251.29 -104.9)">
<g display="none">
<rect x="5" y="7" width="86" height="85" rx="6" ry="6" fill="url(#ButtonShadow)" filter="url(#filter3174-3)" opacity=".9"/>
</g>
</g>
<g transform="translate(0 5.7789)"></g>
<g transform="matrix(.99375 0 0 .99375 .35028 .20834)">
<path d="m97.187-14.666h-82.286c-3.7988 0-6.8571 3.0583-6.8571 6.8571v82.286c0 3.7989 3.0583 6.8571 6.8571 6.8571h82.286c3.7989 0 6.8571-3.0583 6.8571-6.8571v-82.286c0-3.7989-3.0583-6.8571-6.8571-6.8571z" opacity=".15"/>
<path d="m96.544-13.916h-81c-3.7395 0-6.75 3.0105-6.75 6.75v81c0 3.7395 3.0105 6.75 6.75 6.75h81c3.7395 0 6.75-3.0105 6.75-6.75v-81c0-3.7395-3.0105-6.75-6.75-6.75z" opacity=".15"/>
<path d="m95.901-13.166h-79.714c-3.6801 0-6.6429 2.9627-6.6429 6.6429v79.714c0 3.6801 2.9627 6.6429 6.6429 6.6429h79.714c3.6801 0 6.6429-2.9627 6.6429-6.6429v-79.714c0-3.6801-2.9627-6.6429-6.6429-6.6429z" fill="url(#linearGradient3825)"/>
<rect x="13.837" y="-8.0546" width="84.846" height="77.52" ry="4.25" fill="#f0eeed" stroke="#fff" stroke-linecap="round" stroke-linejoin="round" stroke-width=".4"/>
<circle transform="matrix(.51087 0 0 .44472 689.02 138.74)" cx="-1239" cy="-246" r="78" fill-opacity=".2549" filter="url(#filter3712-2)"/>
<text transform="matrix(1.0727 0 0 1.0727 4.5542 -14.692)" x="38.019218" y="49.228157" fill="#000000" font-family="ReservoirGrunge" letter-spacing="-12.18px" word-spacing="0px" style="line-height:0%" xml:space="preserve"><tspan x="38.019218" y="49.228157" font-size="72px" style="line-height:1.25"> </tspan></text>
<path transform="matrix(.51087 0 0 .44472 125.34 24.961)" d="m-83.636 63.62 12 30-34-13" fill-opacity=".2549" filter="url(#filter3712-2)"/>
<path transform="matrix(1.0727 0 0 1.0727 -4.0746 1.04)" d="m80.809 47.846 5.715 12.437-16.192-5.3895" fill="#f15d22" stroke="#fff" stroke-width=".90221"/>
<ellipse transform="matrix(1.0727 0 0 1.0727 -4.0746 1.04)" cx="56.044" cy="25.548" rx="37.147" ry="32.337" fill="#f15d22" stroke="#fff" stroke-width="1.3053"/>
<g transform="matrix(1.0727 0 0 1.0727 -4.0746 1.04)" fill="none" stroke="#121212" stroke-opacity=".078603" stroke-width="1.8644">
<path d="m23.684 24.905c-0.16561-2.8774 0.53531-5.1622 2.1028-6.8544 1.5674-1.6921 3.8325-2.6177 6.7951-2.7768 3.0373-0.16306 5.4229 0.50079 7.1569 1.9915 1.7335 1.4828 2.6819 3.6428 2.8453 6.4802 0.11854 2.0599-0.14511 3.7705-0.79095 5.1317-0.63804 1.3528-1.6163 2.4344-2.9348 3.2449-1.3107 0.80201-2.9785 1.2574-5.0033 1.3661-2.0581 0.1105-3.7816-0.11455-5.1707-0.67511-1.3808-0.56102-2.5297-1.5043-3.4468-2.8299-0.91704-1.3256-1.4348-3.0183-1.5534-5.0782m5.6403-0.27854c0.1024 1.7794 0.51623 3.0395 1.2415 3.7804 0.73352 0.74049 1.6895 1.0791 2.8679 1.0158 1.2116-0.06505 2.1274-0.49612 2.7475-1.2932 0.62005-0.79708 0.87334-2.1815 0.75986-4.1532-0.09551-1.6591-0.5137-2.8507-1.2546-3.5747-0.73308-0.73246-1.693-1.0668-2.8796-1.0031-1.1369 0.06106-2.0274 0.4988-2.6714 1.3132-0.64404 0.81446-0.91439 2.1194-0.81105 3.9148"/>
<path d="m42.251 15.056 7.4189-0.39833 3.4802 10.571 2.2333-10.877 7.394-0.397 1.0144 17.625-4.6057 0.24729-0.77363-13.441-2.7989 13.633-4.17 0.2239-4.3337-13.25 0.77363 13.441-4.6182 0.24796-1.0144-17.625"/>
<path d="m73.824 24.637-0.21105-3.6669 8.7135-0.46784 0.43248 7.5142c-1.6048 1.1876-3.0388 2.0164-4.302 2.4862-1.2554 0.46136-2.7627 0.73927-4.522 0.83373-2.1659 0.11629-3.9541-0.14547-5.3644-0.78531-1.402-0.64027-2.5212-1.6455-3.3576-3.0156-0.82806-1.3706-1.2947-2.9696-1.3999-4.797-0.11072-1.9236 0.20388-3.6168 0.94378-5.0796 0.73944-1.4708 1.8805-2.6174 3.423-3.44 1.2037-0.63545 2.8512-1.0093 4.9425-1.1216 2.0165-0.10825 3.5329-0.0128 4.549 0.28639 1.0244 0.29878 1.8859 0.80325 2.5844 1.5134 0.70631 0.70177 1.2582 1.6128 1.6557 2.7331l-5.3857 1.2298c-0.26238-0.65321-0.67339-1.1417-1.2331-1.4654-0.55142-0.32414-1.242-0.46393-2.0719-0.41939-1.2365 0.0664-2.2 0.53621-2.8906 1.4094-0.68277 0.86478-0.97248 2.1949-0.86914 3.9902 0.10979 1.9076 0.5575 3.2504 1.3431 4.0282 0.79392 0.77745 1.8548 1.1305 3.1825 1.0592 0.63068-0.03386 1.2273-0.15434 1.7897-0.36143 0.56244-0.20709 1.2007-0.54284 1.9149-1.0073l-0.09549-1.6591-3.7717 0.20251"/>
<path d="m82.107 12.916 5.4148-0.29073 0.23112 4.0156-0.58131 8.1234-3.3485 0.17978-1.485-8.0124-0.23112-4.0156m0.95271 13.299 5.0538-0.27135 0.24842 4.3162-5.0538 0.27135-0.24842-4.3162"/>
</g>
<path transform="matrix(1.0727 0 0 1.0727 -4.0746 1.04)" d="m23.684 24.905c-0.16561-2.8774 0.53531-5.1622 2.1028-6.8544 1.5674-1.6921 3.8325-2.6177 6.7951-2.7768 3.0373-0.16306 5.4229 0.50079 7.1569 1.9915 1.7335 1.4828 2.6819 3.6428 2.8453 6.4802 0.11854 2.0599-0.14511 3.7705-0.79095 5.1317-0.63804 1.3528-1.6163 2.4344-2.9348 3.2449-1.3107 0.80201-2.9785 1.2574-5.0033 1.3661-2.0581 0.1105-3.7816-0.11455-5.1707-0.67511-1.3808-0.56102-2.5297-1.5043-3.4468-2.8299-0.91704-1.3256-1.4348-3.0183-1.5534-5.0782m5.6403-0.27854c0.1024 1.7794 0.51623 3.0395 1.2415 3.7804 0.73352 0.74049 1.6895 1.0791 2.8679 1.0158 1.2116-0.06505 2.1274-0.49612 2.7475-1.2932 0.62005-0.79708 0.87334-2.1815 0.75986-4.1532-0.09551-1.6591-0.5137-2.8507-1.2546-3.5747-0.73308-0.73246-1.693-1.0668-2.8796-1.0031-1.1369 0.06106-2.0274 0.4988-2.6714 1.3132-0.64404 0.81446-0.91439 2.1194-0.81105 3.9148" fill="#fff"/>
<path transform="matrix(1.0727 0 0 1.0727 -4.0746 1.04)" d="m42.251 15.056 7.4189-0.39833 3.4802 10.571 2.2333-10.877 7.394-0.397 1.0144 17.625-4.6057 0.24729-0.77363-13.441-2.7989 13.633-4.17 0.2239-4.3337-13.25 0.77363 13.441-4.6182 0.24796-1.0144-17.625" fill="#fff"/>
<path transform="matrix(1.0727 0 0 1.0727 -4.0746 1.04)" d="m73.824 24.637-0.21105-3.6669 8.7135-0.46784 0.43248 7.5142c-1.6048 1.1876-3.0388 2.0164-4.302 2.4862-1.2554 0.46136-2.7627 0.73927-4.522 0.83373-2.1659 0.11629-3.9541-0.14547-5.3644-0.78531-1.402-0.64027-2.5212-1.6455-3.3576-3.0156-0.82806-1.3706-1.2947-2.9696-1.3999-4.797-0.11072-1.9236 0.20388-3.6168 0.94378-5.0796 0.73944-1.4708 1.8805-2.6174 3.423-3.44 1.2037-0.63545 2.8512-1.0093 4.9425-1.1216 2.0165-0.10825 3.5329-0.0128 4.549 0.28639 1.0244 0.29878 1.8859 0.80325 2.5844 1.5134 0.70631 0.70177 1.2582 1.6128 1.6557 2.7331l-5.3857 1.2298c-0.26238-0.65321-0.67339-1.1417-1.2331-1.4654-0.55142-0.32414-1.242-0.46393-2.0719-0.41939-1.2365 0.0664-2.2 0.53621-2.8906 1.4094-0.68277 0.86478-0.97248 2.1949-0.86914 3.9902 0.10979 1.9076 0.5575 3.2504 1.3431 4.0282 0.79392 0.77745 1.8548 1.1305 3.1825 1.0592 0.63068-0.03386 1.2273-0.15434 1.7897-0.36143 0.56244-0.20709 1.2007-0.54284 1.9149-1.0073l-0.09549-1.6591-3.7717 0.20251" fill="#fff"/>
<path transform="matrix(1.0727 0 0 1.0727 -4.0746 1.04)" d="m82.107 12.916 5.4148-0.29073 0.23112 4.0156-0.58131 8.1234-3.3485 0.17978-1.485-8.0124-0.23112-4.0156m0.95271 13.299 5.0538-0.27135 0.24842 4.3162-5.0538 0.27135-0.24842-4.3162" fill="#fff"/>
<path d="m16.187-13.166c-3.6801 0-6.6429 2.9627-6.6429 6.6429v16.607h1.1071v-16.607c0-3.0859 2.4498-5.5357 5.5357-5.5357h79.714c3.0859 0 5.5357 2.4498 5.5357 5.5357v16.607h1.1071v-16.607c0-3.6801-2.9627-6.6429-6.6429-6.6429z" fill="url(#radialGradient3827)" opacity=".45"/>
<path d="m9.544 67.178v6c0 3.6801 2.9761 6.6562 6.6562 6.6562h79.688c3.6801 0 6.6563-2.9761 6.6563-6.6562v-6c0 3.6801-2.9761 6.6562-6.6563 6.6562h-79.688c-3.6801 0-6.6562-2.9761-6.6562-6.6562z" fill="url(#linearGradient3829)" opacity=".89091"/>
<rect x="13.419" y="65.584" width="84.25" height="4.25" rx="0" ry="4.25" fill="url(#radialGradient3831)" opacity=".55"/>
<rect transform="rotate(90)" x="-9.9156" y="-98.669" width="76.75" height="4.25" rx="0" ry="4.25" fill="url(#radialGradient3833)" opacity=".55"/>
<rect transform="matrix(.9093 0 0 .92838 13.082 20.324)" x="2" y="-30" width="92" height="92" rx="3.957" ry="3.957" clip-path="url(#clipPath4156-4)" fill="url(#linearGradient3837)"/>
<path d="m17.869-9.9361c-3.1166 0-5.668 2.5395-5.668 5.646v69.278c0 3.1065 2.5513 5.646 5.668 5.646h76.792c3.1166 0 5.668-2.5395 5.668-5.646v-69.278c0-3.1065-2.5513-5.646-5.668-5.646zm0 2.3194h76.792c1.8881 0 3.352 1.4801 3.352 3.3266v69.278c0 1.8465-1.4639 3.3266-3.352 3.3266h-76.792c-1.8881 0-3.352-1.4801-3.352-3.3266v-69.278c0-1.8465 1.4639-3.3266 3.352-3.3266z" color="#000000" fill="#241f1f" fill-opacity=".63265" style="text-decoration-line:none;text-indent:0;text-transform:none"/>
</g>
</g>
</g>
<g display="none">
<rect x="5" y="7" width="86" height="85" rx="6" ry="6" fill="url(#ButtonShadow)" filter="url(#filter3174-36)" opacity=".9"/>
</g>
<g display="none">
<rect x="5" y="7" width="86" height="85" rx="6" ry="6" fill="url(#ButtonShadow)" filter="url(#filter3174-2)" opacity=".9"/>
</g>
</svg>
