<?xml version="1.0" encoding="UTF-8"?>
<!-- Created with Inkscape (http://www.inkscape.org/) -->
<svg version="1.1" viewBox="0 0 96 96" xmlns="http://www.w3.org/2000/svg" xmlns:cc="http://creativecommons.org/ns#" xmlns:dc="http://purl.org/dc/elements/1.1/" xmlns:rdf="http://www.w3.org/1999/02/22-rdf-syntax-ns#" xmlns:xlink="http://www.w3.org/1999/xlink">
<defs>
<linearGradient id="linearGradient3737">
<stop stop-color="#fff" offset="0"/>
<stop stop-color="#fff" stop-opacity="0" offset="1"/>
</linearGradient>
<linearGradient id="linearGradient4071" x1="51.755" x2="131.35" y1="38.047" y2="38.356" gradientTransform="matrix(1.1071 0 0 1.1071 -53.143 26.964)" gradientUnits="userSpaceOnUse">
<stop stop-color="#adb8c1" offset="0"/>
<stop stop-color="#fff" offset=".25"/>
<stop stop-color="#90a0aa" offset=".5"/>
<stop stop-color="#f9fafb" offset=".75"/>
<stop stop-color="#adb9c1" offset="1"/>
</linearGradient>
<linearGradient id="linearGradient4129" x1="49.5" x2="143.25" y1="63.5" y2="64.25" gradientTransform="translate(-48 31)" gradientUnits="userSpaceOnUse">
<stop offset="0"/>
<stop stop-opacity=".58824" offset=".1"/>
<stop stop-opacity=".58824" offset=".9"/>
<stop offset="1"/>
</linearGradient>
<radialGradient id="radialGradient7462" cx="45.21" cy="-661.12" r="43.199" gradientTransform="matrix(.97513 0 0 .049191 -14.101 111.17)" gradientUnits="userSpaceOnUse" xlink:href="#linearGradient3737"/>
<radialGradient id="radialGradient7464" cx="-33.275" cy="-975.48" r="43.199" gradientTransform="matrix(.88833 0 0 .049191 62.545 -42.168)" gradientUnits="userSpaceOnUse" xlink:href="#linearGradient3737"/>
<linearGradient id="linearGradient4767" x1="46.891" x2="81.955" y1="-56.024" y2="-26.402" gradientTransform="translate(-44.891 29.589)" gradientUnits="userSpaceOnUse" xlink:href="#linearGradient3737"/>
<clipPath id="clipPath4156-4-1-3">
<path d="m27.046-55.695-14.214 13.321h0.06127l15.653 21.771 10.231-10.546c-0.2169-1.1522-11.311-23.67-11.732-24.546zm-17.399 16.313-14.888 14.062 21.229 17.515 10.385-10.577zm31.491 12.951-9.7413 9.7136 8.9448 12.458 7.7808-7.555zm-49.84 4.3788-13.754 12.982 26.283 13.846 0.06127-0.0617-0.12253-0.0617 9.8332-10.053-22.301-16.652zm38.015 7.4008-9.8025 9.7753 11.579 9.5594 7.6276-7.4008-8.6691-11.009zm20.187 5.674-7.3825 7.2158 6.1878 8.5418 5.8202-6.1365zm-32.195 6.3215-9.5575 9.4977 13.662 7.185 7.9339-7.6784zm23.312 2.3744-7.1068 6.9383 8.3628 6.9074 5.3608-5.674-0.06127-0.0925-0.0919 0.12335-6.4635-8.2026zm-8.7304 8.5418-7.5051 7.3392 10.354 5.4581c1.3975-1.321 5.6751-6.1229 5.8509-6.3215z" fill="#fff" opacity=".6"/>
</clipPath>
<linearGradient id="linearGradient5729" x1="18.18" x2="15.672" y1="14.206" y2="19.3" gradientTransform="matrix(1.8403 0 0 1.7932 -114.77 69.642)" gradientUnits="userSpaceOnUse" xlink:href="#linearGradient3737"/>
</defs>
<metadata>
<rdf:RDF>
<cc:Work rdf:about="">
<dc:format>image/svg+xml</dc:format>
<dc:type rdf:resource="http://purl.org/dc/dcmitype/StillImage"/>
<dc:title/>
</cc:Work>
</rdf:RDF>
</metadata>
<g transform="translate(-2.25e-7 -2.6e-5)">
<path d="m89.143 2.6e-5h-82.286c-3.7988 0-6.8571 3.0583-6.8571 6.8571v82.286c0 3.7989 3.0583 6.8571 6.8571 6.8571h82.286c3.7989 0 6.8571-3.0583 6.8571-6.8571v-82.286c0-3.7989-3.0583-6.8571-6.8571-6.8571z" opacity=".15"/>
<path d="m88.5 0.75003h-81c-3.7395 0-6.75 3.0105-6.75 6.75v81c0 3.7395 3.0105 6.75 6.75 6.75h81c3.7395 0 6.75-3.0105 6.75-6.75v-81c0-3.7395-3.0105-6.75-6.75-6.75z" opacity=".15"/>
<path d="m87.857 1.5h-79.714c-3.6801 0-6.6429 2.9627-6.6429 6.6429v79.714c0 3.6801 2.9627 6.6429 6.6429 6.6429h79.714c3.6801 0 6.6429-2.9627 6.6429-6.6429v-79.714c0-3.6801-2.9627-6.6429-6.6429-6.6429z" fill="url(#linearGradient4071)"/>
<path d="m11.241 6.3872c-2.8565 0-5.1241 2.2884-5.1241 5.171v68.58c1.0972 1.6845 2.9688 2.8117 5.1241 2.8117h73.787c2.1553 0 4.0269-1.1272 5.1241-2.8117v-68.58c0-2.8826-2.2676-5.171-5.1241-5.171z" fill="#eceef1" opacity=".873"/>
<path d="m9.8251 4.7295c-3.1166 0-5.668 2.5395-5.668 5.646v69.278c0 3.1065 2.5513 5.646 5.668 5.646h76.792c3.1166 0 5.668-2.5395 5.668-5.646v-69.278c0-3.1065-2.5513-5.646-5.668-5.646zm0 2.3194h76.792c1.8881 0 3.352 1.4801 3.352 3.3266v69.278c0 1.8465-1.4639 3.3266-3.352 3.3266h-76.792c-1.8881 0-3.352-1.4801-3.352-3.3266v-69.278c0-1.8465 1.4639-3.3266 3.352-3.3266z" color="#000000" fill="#241f1f" fill-opacity=".63265" style="text-decoration-line:none;text-indent:0;text-transform:none"/>
<g transform="translate(-2.3168 -.65867)">
<rect x="16.553" y="12.042" width="31.499" height="30.61" ry="0" fill="#f04f21"/>
<rect x="53.025" y="12.042" width="31.499" height="30.61" ry="0" fill="#7eb801"/>
<rect x="16.553" y="48.694" width="31.499" height="30.61" ry="0" fill="#01a3ee"/>
<rect x="53.025" y="48.694" width="31.499" height="30.61" ry="0" fill="#feb800"/>
</g>
<path d="m1.5 81.844v6c0 3.6801 2.9761 6.6562 6.6562 6.6562h79.688c3.6801 0 6.6563-2.9761 6.6563-6.6562v-6c0 3.6801-2.9761 6.6562-6.6563 6.6562h-79.688c-3.6801 0-6.6562-2.9761-6.6562-6.6562z" fill="url(#linearGradient4129)" opacity=".65818"/>
<rect x="5.375" y="80.25" width="84.25" height="4.25" rx="4.25" ry="4.25" fill="url(#radialGradient7462)" opacity=".55"/>
<rect transform="rotate(90)" x="5.56" y="-90.085" width="76.75" height="4.25" rx="4.25" ry="4.25" fill="url(#radialGradient7464)" opacity=".669"/>
<circle cx="-35.459" cy="68.684" r="0" fill="none" opacity=".82206" stroke="url(#linearGradient5729)" stroke-linecap="round" stroke-linejoin="round" stroke-width="2.2451"/>
<g transform="matrix(1.2977 0 0 1.2977 132.23 -49.011)" stroke-width=".77062">
<circle cx="-64.739" cy="72.458" r="20.864" fill="#c7def8" fill-opacity=".73529" stroke="#fff" stroke-opacity=".8945" stroke-width="1.5412" style="paint-order:normal"/>
<circle transform="rotate(90)" cx="74.261" cy="64.91" r="22" fill="none" style="paint-order:normal"/>
</g>
<rect transform="matrix(1.0692 0 0 1.0477 3.9787 39.253)" x="2" y="-30" width="75.966" height="69.024" rx="3.957" ry="3.957" clip-path="url(#clipPath4156-4-1-3)" fill="url(#linearGradient4767)" opacity=".398"/>
</g>
</svg>
