<?xml version="1.0" encoding="UTF-8"?>
<svg version="1.0" viewBox="0 0 96 96" xmlns="http://www.w3.org/2000/svg" xmlns:cc="http://creativecommons.org/ns#" xmlns:dc="http://purl.org/dc/elements/1.1/" xmlns:rdf="http://www.w3.org/1999/02/22-rdf-syntax-ns#" xmlns:xlink="http://www.w3.org/1999/xlink">
<defs>
<linearGradient id="ButtonShadow" x1="45.448" x2="45.448" y1="92.54" y2="7.0165" gradientTransform="scale(1.0059 .99417)" gradientUnits="userSpaceOnUse">
<stop offset="0"/>
<stop stop-opacity=".58824" offset="1"/>
</linearGradient>
<linearGradient id="linearGradient3737">
<stop stop-color="#fff" offset="0"/>
<stop stop-color="#fff" stop-opacity="0" offset="1"/>
</linearGradient>
<filter id="filter3174" color-interpolation-filters="sRGB">
<feGaussianBlur stdDeviation="1.71"/>
</filter>
<linearGradient id="linearGradient4767" x1="2.7714" x2="50.528" y1="-28.642" y2="14.514" gradientUnits="userSpaceOnUse">
<stop stop-color="#fff" offset="0"/>
<stop stop-color="#fff" stop-opacity="0" offset="1"/>
</linearGradient>
<filter id="filter3174-3" color-interpolation-filters="sRGB">
<feGaussianBlur stdDeviation="1.71"/>
</filter>
<filter id="filter3174-1" color-interpolation-filters="sRGB">
<feGaussianBlur stdDeviation="1.71"/>
</filter>
<linearGradient id="linearGradient4071-3" x1="6" x2="90" y1="47" y2="47" gradientTransform="matrix(1.0956 0 0 1.0956 2.9547 -18.659)" gradientUnits="userSpaceOnUse">
<stop stop-color="#b2b8bc" offset="0"/>
<stop stop-color="#fff" offset=".25"/>
<stop stop-color="#96a1a4" offset=".5"/>
<stop stop-color="#fbf9f9" offset=".75"/>
<stop stop-color="#b2b7bc" offset="1"/>
</linearGradient>
<linearGradient id="linearGradient4129-2" x1="1.5" x2="94.5" y1="88.172" y2="88.172" gradientTransform="matrix(.98958 0 0 .98958 8.044 -14.666)" gradientUnits="userSpaceOnUse">
<stop offset="0"/>
<stop stop-opacity=".58824" offset=".1"/>
<stop stop-opacity=".58824" offset=".9"/>
<stop offset="1"/>
</linearGradient>
<radialGradient id="radialGradient7462" cx="13.948" cy="44.893" r="43.199" gradientTransform="matrix(.96498 0 0 .048678 41.59 64.666)" gradientUnits="userSpaceOnUse" xlink:href="#linearGradient3737"/>
<radialGradient id="radialGradient7464" cx="13.948" cy="44.893" r="43.199" gradientTransform="matrix(.87907 0 0 .048678 16.55 -97.273)" gradientUnits="userSpaceOnUse" xlink:href="#linearGradient3737"/>
<clipPath id="clipPath4156-4-1">
<path d="m27.046-55.695-14.214 13.321h0.06127l15.653 21.771 10.231-10.546c-0.2169-1.1522-11.311-23.67-11.732-24.546zm-17.399 16.313-14.888 14.062 21.229 17.515 10.385-10.577zm31.491 12.951-9.7413 9.7136 8.9448 12.458 7.7808-7.555zm-49.84 4.3788-13.754 12.982 26.283 13.846 0.06127-0.0617-0.12253-0.0617 9.8332-10.053-22.301-16.652zm38.015 7.4008-9.8025 9.7753 11.579 9.5594 7.6276-7.4008-8.6691-11.009zm20.187 5.674-7.3825 7.2158 6.1878 8.5418 5.8202-6.1365zm-32.195 6.3215-9.5575 9.4977 13.662 7.185 7.9339-7.6784zm23.312 2.3744-7.1068 6.9383 8.3628 6.9074 5.3608-5.674-0.06127-0.0925-0.0919 0.12335-6.4635-8.2026zm-8.7304 8.5418-7.5051 7.3392 10.354 5.4581c1.3975-1.321 5.6751-6.1229 5.8509-6.3215z" fill="#fff" opacity=".6"/>
</clipPath>
</defs>
<metadata>
<rdf:RDF>
<cc:Work rdf:about="">
<dc:format>image/svg+xml</dc:format>
<dc:type rdf:resource="http://purl.org/dc/dcmitype/StillImage"/>
<dc:title/>
</cc:Work>
</rdf:RDF>
</metadata>
<g transform="translate(-1e-6,32)">
<g transform="translate(-8.044 -17.334)">
<g transform="translate(251.29 -104.9)">
<g display="none">
<rect x="5" y="7" width="86" height="85" rx="6" ry="6" fill="url(#ButtonShadow)" filter="url(#filter3174-3)" opacity=".9"/>
</g>
</g>
<g transform="translate(.5 .50001)">
<path d="m96.258-14.666h-81.429c-3.7593 0-6.7857 3.0264-6.7857 6.7857v81.429c0 3.7593 3.0264 6.7857 6.7857 6.7857h81.429c3.7593 0 6.7857-3.0264 6.7857-6.7857v-81.429c0-3.7593-3.0264-6.7857-6.7857-6.7857z" opacity=".15"/>
<path d="m95.622-13.923h-80.156c-3.7005 0-6.6797 2.9791-6.6797 6.6797v80.156c0 3.7005 2.9791 6.6797 6.6797 6.6797h80.156c3.7006 0 6.6797-2.9791 6.6797-6.6797v-80.156c0-3.7005-2.9791-6.6797-6.6797-6.6797z" opacity=".15"/>
<path d="m94.986-13.181h-78.884c-3.6418 0-6.5737 2.9319-6.5737 6.5737v78.884c0 3.6418 2.9319 6.5737 6.5737 6.5737h78.884c3.6418 0 6.5737-2.9319 6.5737-6.5737v-78.884c0-3.6418-2.9318-6.5737-6.5737-6.5737z" fill="url(#linearGradient4071-3)"/>
<path d="m19.183-8.345c-2.835 0-5.0856 2.29-5.0856 5.1746v68.629c1.089 1.6857 2.9465 2.8137 5.0856 2.8137h73.232c2.1391 0 3.9966-1.128 5.0856-2.8137v-68.629c0-2.8847-2.2506-5.1746-5.0856-5.1746z" fill="#d40000" opacity=".9"/>
<g transform="matrix(.98958 0 0 .98958 -.41441 -1.524)" stroke="#fff" stroke-opacity=".9913" stroke-width="1.4">
<path d="m76.572 23.492c-0.65788-0.0042-1.332 0.09654-1.9798 0.29899-1.55 0.48441-2.99 1.4729-4.1876 2.8852-0.21731 0.25629-0.40564 0.46343-0.41996 0.46343-0.01433 0-0.1353-0.18716-0.27597-0.41858-0.34113-0.56123-0.94608-1.2981-1.4039-1.7042-0.73525-0.65233-1.773-1.1942-2.6877-1.4053-0.54871-0.12661-2.0275-0.12966-2.5557-0.01494-1.914 0.41569-3.5533 1.4896-5.0155 3.3038-0.83345 1.0341-1.3827 2.022-1.8838 3.3786-0.20921 0.59881-0.21272 0.60655-0.26397 1.5547-0.07215 1.3351-0.19306 2.1141-0.51595 3.2291-0.08045 0.27786-0.17146 0.80256-0.27597 1.6444-0.09071 0.77839-0.23707 2.0443-0.46795 4.0065-0.11826 1.005-0.16341 1.5305-0.13199 1.5547 0.08127 0.06258 0.45999 0.0144 0.81592-0.10465 0.27404-0.09166 0.53027-0.23293 0.77992-0.40364 0.08703-0.0595 0.16882-0.12636 0.25197-0.19434 0.03606-0.02948 0.07273-0.05871 0.10799-0.08969 0.08177-0.07188 0.16282-0.14463 0.23998-0.22424 0.53539-0.55243 0.95431-1.281 1.1759-2.0929 0.03095-0.12914 0.06431-0.28035 0.09599-0.46343 0.01536-0.09245 0.03801-0.23777 0.05999-0.38868 0.03848-0.26436 0.06806-0.4853 0.11999-0.88202 0.07237-0.55281 0.14943-1.1532 0.22798-1.8238 0.1931-1.6485 0.39215-3.2025 0.44396-3.4533 0.0518-0.2508 0.20932-0.73608 0.34796-1.0913 0.70485-1.806 2.0388-3.2028 3.5276-3.6925 0.32128-0.10566 0.51469-0.13271 1.1759-0.13454 0.91798-0.0025 1.2577 0.08908 1.9078 0.50828 0.75069 0.48408 1.4875 1.5914 1.7638 2.6461 0.29974 1.144 0.29538 1.4846-0.13199 5.1277-0.36978 3.1521-0.40529 3.7467-0.27597 4.3652 0.20384 0.97507 0.85957 1.8675 1.6318 2.2275 0.26451 0.12331 0.87151 0.23822 0.9479 0.17939 0.02476-0.01908 0.29095-2.1812 0.59994-4.8137 0.54654-4.6564 0.64648-5.3684 0.83991-5.9798 0.54862-1.7342 1.8392-3.3114 3.2277-3.9467 0.59747-0.27334 0.8259-0.31182 1.6438-0.31394 0.92624-0.0024 1.167 0.05418 1.8358 0.46343 0.70601 0.43201 1.3324 1.2625 1.7038 2.2424 0.27603 0.72813 0.32553 1.061 0.32397 2.1079-0.0012 0.85238-0.02411 1.1536-0.33596 3.7374-0.38638 3.201-0.40098 3.6231-0.17998 4.3652 0.29331 0.98493 0.99151 1.798 1.7758 2.0481 0.29616 0.09444 0.71035 0.13154 0.75592 0.07475 0.01498-0.01867 0.12575-0.90772 0.25197-1.9883 0.25517-2.1844 0.26428-2.2275 0.32396-2.2275 0.02324 0 0.09954 0.13877 0.17998 0.31394 0.37715 0.82129 1.1812 1.9166 1.8358 2.4966 0.71489 0.6334 1.6285 1.0963 2.5677 1.3156 0.46654 0.10893 0.74706 0.1244 3.0717 0.14949 1.4043 0.01516 2.6012 0.0047 2.6637-0.01494 0.10978-0.03432 0.10909-0.04886 0.10799-0.53818-7.68e-4 -0.2787-0.02158-0.61967-0.048-0.76242-0.14376-0.77734-0.66484-1.6215-1.2479-2.0032-0.49166-0.3219-0.8009-0.37258-2.0158-0.37374-1.1131-0.0011-1.5977-0.07113-2.1478-0.29899-0.86389-0.35783-1.7313-1.3627-2.1478-2.4966-0.6137-1.6709-0.39706-3.8325 0.56394-5.636 0.28723-0.53902 1.0513-1.4906 1.5118-1.8836 0.45607-0.38929 1.0265-0.73057 1.5598-0.92687 0.39674-0.14603 0.49129-0.15097 1.8358-0.19434 1.5366-0.04958 1.7188-0.09325 2.2798-0.41859 0.61696-0.35781 1.2973-1.1069 1.6318-1.8089 0.18269-0.3834 0.3611-0.96762 0.38396-1.2558l0.01197-0.20929-2.4237-0.01494c-2.5202-0.01767-2.9706 0.01956-3.7916 0.23919-2.1537 0.57619-4.3064 2.4484-5.6394 4.9184-0.32586 0.60379-0.34339 0.61115-0.51595 0-0.49347-1.7478-1.7159-3.4475-3.0957-4.3055-0.89018-0.55352-1.9512-0.84534-3.0477-0.85212z" fill="#bdd1e3"/>
<path d="m40.583 18.616c-0.20791 0-0.24396 0.01996-0.26397 0.13454-0.01255 0.07182-0.13398 1.1353-0.27597 2.362-0.142 1.2267-0.2734 2.2392-0.28797 2.2574-0.01455 0.01821-1.0337 0.05567-2.2678 0.07474-2.195 0.03393-2.2577 0.03045-2.8077 0.17939-1.7785 0.48161-3.3146 1.5596-4.7995 3.3636l-0.52795 0.62788-0.084-0.16444c-0.55085-1.1082-0.96451-1.7288-1.5358-2.3172-0.85276-0.87818-1.7955-1.3933-2.9757-1.6145-0.37066-0.06949-0.98085-0.08942-2.9877-0.0897-2.2571-2.9e-4 -2.5184 0.0076-2.5437 0.0897-0.0528 0.17139-0.02991 1.0967 0.03598 1.4053 0.19302 0.90341 0.7364 1.636 1.4638 1.9883 0.2445 0.11838 0.3689 0.14028 1.5838 0.1794 1.4512 0.04673 1.7678 0.10492 2.3398 0.40364 0.93839 0.49009 1.7339 1.672 2.0038 2.9899 0.17855 0.87181 0.10866 2.141-0.16798 3.1543-0.578 2.1173-2.1454 3.9377-3.8876 4.5147-0.4057 0.13437-0.56666 0.15356-1.8478 0.19434-1.4779 0.04704-1.6416 0.07497-2.1838 0.37374-0.57567 0.3172-1.2228 0.99155-1.6078 1.6743-0.24714 0.43828-0.50861 1.1343-0.52794 1.4352l-0.01197 0.19434 2.2918 0.02991c2.3805 0.01782 2.9934-0.01915 3.8036-0.22424 1.6984-0.42996 3.3572-1.5947 4.8115-3.3786 0.25466-0.31238 0.46174-0.56808 0.46795-0.56808 0.0062 0 0.11653 0.20429 0.23998 0.46343 0.74553 1.5651 1.8749 2.7116 3.2397 3.2739 0.92607 0.38156 1.0787 0.39328 3.9836 0.41858l2.6157 0.0299 0.048-0.1495c0.06906-0.22631 0.05551-0.95029-0.02401-1.3305-0.20745-0.99234-0.78396-1.7708-1.5478-2.078-0.27491-0.11057-0.4723-0.12607-1.6918-0.16444-1.5505-0.04878-1.7537-0.08893-2.4237-0.52323-1.1015-0.71398-1.8581-2.308-1.8598-3.9168-7.67e-4 -0.84156 0.23326-2.0622 0.53994-2.8255 0.54909-1.3666 1.6531-2.7101 2.7837-3.3786 0.79681-0.4711 1.5052-0.61285 3.0597-0.61293 0.74392-4.2e-5 0.97848-0.02977 1.2599-0.11959 0.42458-0.13552 0.77678-0.321 1.1039-0.59798 0.13708-0.11608 0.26574-0.20929 0.27597-0.20929 0.04883 0-0.01321 0.55602-0.33596 3.3038-0.44945 3.8264-0.44564 3.828-0.44395 4.7838 0.0038 2.1799 0.60739 3.9817 1.8838 5.5762 0.72183 0.90171 1.433 1.4745 2.3638 1.8836 0.36814 0.16182 1.164 0.36351 1.5838 0.41858 0.36246 0.04755 1.3451 0.04089 1.7158-0.01494 1.6909-0.25466 3.1524-1.0285 4.5715-2.4368 1.0637-1.0555 1.9032-2.3048 2.5197-3.7523 0.11161-0.26203 0.20916-0.47193 0.21598-0.46343-0.23559 1.6638-0.01145 0.42958 0.15598-0.56808 0.32288-1.115 0.4438-1.894 0.51595-3.2291l0.02399-0.89697-0.084-0.70262c-0.1791-1.5-0.64024-2.7521-1.4518-3.9467-0.72224-1.063-1.6594-1.8749-2.6997-2.3321-1.0257-0.45085-1.7479-0.52052-4.8595-0.52323l-2.0878-0.01494 0.03598-0.29899c0.16687-1.6258-0.01789-2.4698-0.71992-3.3487-0.51013-0.63863-1.111-0.98667-1.7158-0.98667l3e-5 -2.3e-5zm1.9918 8.4016 2.5797 0.02991c2.9057 0.0247 2.8879 0.02214 3.6476 0.47838 1.423 0.8546 2.265 2.836 2.0758 4.8735-0.14272 1.5366-0.63128 2.8275-1.4518 3.8869-0.86043 1.1108-1.7142 1.736-2.7237 2.0032-0.49774 0.13173-1.4639 0.149-1.9438 0.02989-1.4287-0.35455-2.6089-1.9066-2.8797-3.7673-0.1089-0.74822-0.07093-1.4056 0.27597-4.3951 0.18281-1.5754 0.35958-2.9313 0.38396-3.0048l0.036-0.13454z" fill="#85c226"/>
<path d="m95.017 46.49c-18.719 0.33274-37.907 0.33243-56.672 0.35462-14.77 0.01009-20.263 0.41598-23.861 0.40678v0.78804c10.926-0.04437 30.297-0.33341 38.346-0.17037 13.609 0.38583 28.867 0.58982 41.935 2.9158 0.0071 0.0091-0.01569 0.02285-0.03157 0.0394 0.07317-0.04172 0.19333-0.05806 0.253-0.0394 0.0061 2e-3 0.02338-2.71e-4 0.03157 0z" fill="#2b0000"/>
</g>
<path d="m9.5283 66.326v5.9375c0 3.6418 2.9451 6.5869 6.5869 6.5869h78.857c3.6418 0 6.5869-2.9451 6.5869-6.5869v-5.9375c0 3.6418-2.9451 6.5869-6.5869 6.5869h-78.857c-3.6418 0-6.5869-2.9451-6.5869-6.5869z" fill="url(#linearGradient4129-2)" opacity=".65818"/>
<rect x="13.363" y="64.748" width="83.372" height="4.2057" rx="4.2057" ry="4.2057" fill="url(#radialGradient7462)" opacity=".55"/>
<rect transform="rotate(90)" x="-9.1635" y="-97.191" width="75.951" height="4.2057" rx="4.2057" ry="4.2057" fill="url(#radialGradient7464)" opacity=".669"/>
<rect transform="matrix(1.0581 0 0 1.0368 12.294 23.413)" x="2" y="-30" width="75.966" height="69.024" rx="3.957" ry="3.957" clip-path="url(#clipPath4156-4-1)" fill="url(#linearGradient4767)" opacity=".65"/>
<path d="m17.767-9.9854c-3.0842 0-5.6089 2.5131-5.6089 5.5872v68.556c0 3.0741 2.5248 5.5872 5.6089 5.5872h75.992c3.0842 0 5.6089-2.5131 5.6089-5.5872v-68.556c0-3.0741-2.5248-5.5872-5.6089-5.5872zm0 2.2953h75.992c1.8684 0 3.3171 1.4647 3.3171 3.2919v68.556c0 1.8272-1.4487 3.2919-3.3171 3.2919h-75.992c-1.8684 0-3.3171-1.4647-3.3171-3.2919v-68.556c0-1.8272 1.4487-3.2919 3.3171-3.2919z" color="#000000" fill="#454949" fill-opacity=".97984" style="text-decoration-line:none;text-indent:0;text-transform:none"/>
</g>
</g>
</g>
<g display="none">
<rect x="5" y="7" width="86" height="85" rx="6" ry="6" fill="url(#ButtonShadow)" filter="url(#filter3174-1)" opacity=".9"/>
</g>
<g display="none">
<rect x="5" y="7" width="86" height="85" rx="6" ry="6" fill="url(#ButtonShadow)" filter="url(#filter3174)" opacity=".9"/>
</g>
</svg>
