<?xml version="1.0" encoding="UTF-8"?>
<!-- Created with Inkscape (http://www.inkscape.org/) -->
<svg version="1.0" viewBox="0 0 96 96" xmlns="http://www.w3.org/2000/svg" xmlns:cc="http://creativecommons.org/ns#" xmlns:dc="http://purl.org/dc/elements/1.1/" xmlns:rdf="http://www.w3.org/1999/02/22-rdf-syntax-ns#" xmlns:xlink="http://www.w3.org/1999/xlink">
<defs>
<linearGradient id="ButtonShadow" x1="45.448" x2="45.448" y1="92.54" y2="7.0165" gradientTransform="scale(1.0059 .99417)" gradientUnits="userSpaceOnUse">
<stop offset="0"/>
<stop stop-opacity=".58824" offset="1"/>
</linearGradient>
<filter id="filter3174" color-interpolation-filters="sRGB">
<feGaussianBlur stdDeviation="1.71"/>
</filter>
<radialGradient id="radialGradient4143" cx="13.948" cy="44.893" r="43.199" gradientTransform="matrix(.90961 0 0 .050445 -11.185 -58.258)" gradientUnits="userSpaceOnUse" xlink:href="#linearGradient4133"/>
<radialGradient id="radialGradient4139" cx="13.948" cy="44.893" r="43.199" gradientTransform="matrix(1 0 0 .050369 0 39.432)" gradientUnits="userSpaceOnUse" xlink:href="#linearGradient4133"/>
<linearGradient id="linearGradient4129" x1="1.5" x2="94.5" y1="88.172" y2="88.172" gradientUnits="userSpaceOnUse">
<stop offset="0"/>
<stop stop-opacity=".58824" offset=".1"/>
<stop stop-opacity=".58824" offset=".9"/>
<stop offset="1"/>
</linearGradient>
<clipPath id="clipPath4156-4">
<path d="m27.046-55.695-14.214 13.321h0.06127l15.653 21.771 10.231-10.546c-0.2169-1.1522-11.311-23.67-11.732-24.546zm-17.399 16.313-14.888 14.062 21.229 17.515 10.385-10.577-16.726-21zm31.491 12.951-9.7413 9.7136 8.9448 12.458 7.7808-7.555-6.9843-14.617zm-49.84 4.3788-13.754 12.982 26.283 13.846 0.06127-0.0617-0.12253-0.0617 9.8332-10.053-22.301-16.652zm38.015 7.4008-9.8025 9.7753 11.579 9.5594 7.6276-7.4008-8.6691-11.009-0.73519-0.9251zm20.187 5.674-7.3825 7.2158 6.1878 8.5418 5.8202-6.1365-4.6256-9.6211zm-32.195 6.3215-9.5575 9.4977 13.662 7.185 7.9339-7.6784-12.039-9.0043zm23.312 2.3744-7.1068 6.9383 8.3628 6.9074 5.3608-5.674-0.06127-0.0925-0.0919 0.12335-6.4635-8.2026zm-8.7304 8.5418-7.5051 7.3392 10.354 5.4581c1.3975-1.321 5.6751-6.1229 5.8509-6.3215l-8.6997-6.4757z" fill="#fff" opacity=".6"/>
</clipPath>
<linearGradient id="linearGradient4767" x1="2.7714" x2="50.528" y1="-28.642" y2="14.514" gradientUnits="userSpaceOnUse">
<stop stop-color="#fff" offset="0"/>
<stop stop-color="#fff" stop-opacity="0" offset="1"/>
</linearGradient>
<radialGradient id="radialGradient4075" cx="48" cy="-27" r="42" gradientTransform="matrix(-1.0722 0 0 -.87502 199.46 -19.126)" gradientUnits="userSpaceOnUse">
<stop stop-color="#fff" offset="0"/>
<stop stop-color="#fff" offset=".8"/>
<stop stop-color="#fff" stop-opacity="0" offset="1"/>
</radialGradient>
<radialGradient id="radialGradient4073" cx="158" cy="6.2132" r="41" gradientTransform="matrix(0 1.6209 -2.0383 0 160.66 -243.04)" gradientUnits="userSpaceOnUse">
<stop stop-color="#fff" offset="0"/>
<stop stop-color="#fff" stop-opacity="0" offset="1"/>
</radialGradient>
<linearGradient id="linearGradient4071" x1="6" x2="90" y1="47" y2="47" gradientTransform="matrix(1.1354 0 0 1.1337 -40.037 -46.788)" gradientUnits="userSpaceOnUse">
<stop stop-color="#afb8bf" offset="0"/>
<stop stop-color="#fff" offset=".25"/>
<stop stop-color="#8ea2ac" offset=".5"/>
<stop stop-color="#fafafa" offset=".75"/>
<stop stop-color="#adb8c1" offset="1"/>
</linearGradient>
<linearGradient id="linearGradient4133">
<stop stop-color="#fff" offset="0"/>
<stop stop-color="#fff" stop-opacity="0" offset="1"/>
</linearGradient>
</defs>
<metadata>
<rdf:RDF>
<cc:Work rdf:about="">
<dc:format>image/svg+xml</dc:format>
<dc:type rdf:resource="http://purl.org/dc/dcmitype/StillImage"/>
<dc:title/>
</cc:Work>
</rdf:RDF>
</metadata>
<g display="none">
<path d="m11 7c-3.324 0-6 2.676-6 6v33.688c2.2378 0.12403 4.6605 0.23568 5.875 0.4375 0.66093 0.10983-0.08406 0.24085-1.125 0.34375-1.0409 0.1029-2.3955 0.19637-2.9062 0.28125-0.62215 0.10338-1.2173 0.154-1.8438 0.25v1.0625c0.38037 0.03607 0.71838 0.03125 0.9375 0.03125 0.80883 1e-6 1.16 0.2157 1.3125 0.5625 0.15253 0.3468 0.09375 0.83972 0.09375 1.4062 0 0.42483-0.94202 0.66301-1.1562 1.375-0.076561 0.25447-0.63644 0.50802-1.1875 0.75v2.2188c0.73559 0.02497 1.4333 0.05671 1.8438 0.3125 0.28172 0.17556-0.77495 0.40535-1.8438 0.59375v7.5625c1.138 0.18034 3.3101 0.92568 3.9688 1.0625 1.0902 0.22645 1.2247 0.33476 0.875 0.4375-0.34972 0.10274-1.1736 0.17517-2 0.3125-0.97809 0.16253-1.9356 0.4545-2.8438 0.65625v19.656c0 3.324 2.676 6 6 6h13c0.0954-0.43824 0.15096-0.93118 0.25-1.4375 0.14036-0.71751 0.25498-1.3416 0.375-1.5938 0.03001-0.06304 0.05815-0.11405 0.09375-0.125 0.1068-0.03285 0.2382 0.19196 0.46875 0.78125 0.30434 0.77787 0.54017 1.6468 0.6875 2.375h0.75c0.27615-0.49369 0.57854-1.1385 0.8125-1.4375 0.09907-0.12663 0.27524 0.1315 0.53125 0.375 0.25601 0.2435 0.5889 0.48638 0.9375 0.375 0.64861-0.20723 1.6028-0.72623 2.0312-1 0.13988-0.08938 0.30016-0.15798 0.40625-0.1875 0.10609-0.02952 0.17433-0.01774 0.25 0 0.15134 0.03548 0.2322 0.14456 0.34375 0.28125 0.2231 0.27338 0.46678 0.65625 1.0625 0.65625 0.47834 0 0.65718-0.0325 0.78125 0.0625s0.19709 0.31455 0.40625 0.875h8.875c-0.04778-0.59388 1.0405-2.1515 1.2188-3.0625 0.19092-0.976 0.21408-1.2424 0.28125-1.0625 0.06717 0.17992 0.1925 0.79391 0.46875 1.5 0.11045 0.2823 0.21389 0.35824 0.3125 0.28125 0.09861-0.07699 0.1689-0.29395 0.25-0.5625 0.16221-0.53711 0.28565-1.2967 0.34375-1.5938 0.13113-0.67034 0.12866-1.7865 0.125-2.2812-9.11e-4 -0.12369-0.0059-0.21782 0-0.25 0.01779-0.09656 0.08067 0.31208 0.28125 1.5938 0.16382 1.0468 0.54767 2.6879 0.71875 3.5625 0.1698 0.86799 0.29811 1.3221 0.40625 1.875h28.219c0.03877-0.49496 0.03519-1.0986 0.0625-1.5 0.02049-0.30106 0.06649-0.487 0.15625-0.46875 0.02992 0.0061 0.05077 0.03882 0.09375 0.09375 0.23345 0.29834 0.6306 1.1649 0.96875 1.875h8.0312c3.324 0 6-2.676 6-6v-7.2188c-0.16942 0.0045-0.29011-4e-6 -0.5 0-1.3303 0-2.6385-4e-6 -3.9688 0-1.2266 0-2.0539-9.64e-4 -2.25-0.0625-0.19606-0.06154 0.23297-0.18318 1.4688-0.5 0.65503-0.16793 3.3425-0.92808 5.25-1.3438v-38.406c-0.65275-0.26634-1.207-0.48866-1.75-0.90625-0.14251-0.10961-0.44884-0.39247-0.96875-0.5625-0.5199-0.17003-1.2741-0.25614-2.2812-0.0625-1.5335 0.29485-1.6856 0.28347-1.25 0.15625 0.4356-0.12722 1.4686-0.38101 2.25-0.53125 1.1527-0.22164 2.7222-1.2042 4-1.8438v-4.5625c-0.69831-0.25798-1.4222-0.55827-1.75-1.0625-0.20971-0.32258-0.32162-0.51302-0.3125-0.625 0.0091-0.11198 0.13299-0.14912 0.25-0.1875 0.11701-0.03837 0.26103-0.05449 0.375-0.15625 0.11397-0.10176 0.1875-0.29162 0.1875-0.59375 0-0.32292 0.08246-0.88706 0.0625-1.4062-0.01-0.25959-0.03562-0.49724-0.125-0.6875-0.08939-0.19026-0.21909-0.333-0.4375-0.375-0.57457-0.11048-0.84814-0.23368-0.90625-0.34375-0.05811-0.11007 0.07208-0.18937 0.28125-0.28125 0.41834-0.18376 1.1325-0.3394 1.125-0.34375-0.6687-0.38572-5.2472-0.92123-5-0.96875 0.33257-0.06395 0.66744-0.12355 1-0.1875 1.0476-0.20144 2.4328-0.30923 3.75-0.5625 0.57326-0.11023 0.91177-0.25057 1.125-0.4375 0.21323-0.18693 0.2942-0.42326 0.375-0.625v-8.3125c0-3.324-2.676-6-6-6h-51.375c0.09658 1.3976 0.20158 2.9594-0.09375 2.1875-0.21042-0.54995-0.32083-1.1375-0.53125-1.6875-0.053238-0.13914-0.096059-0.32947-0.15625-0.5h-2.0312c-0.2407 0.49231-0.44964 0.97083-0.78125 1.1875-0.50693 0.33123-0.7858 0.49462-1.0312 0.40625-0.24545-0.088366-0.47684-0.42677-0.84375-0.90625-0.16375-0.21398-0.43453-0.43147-0.75-0.6875h-6.8125l-1.3125 5.5625-1.75-5.5625h-0.21875l-1.75 8.9375-1.4062-8.9375h-3.1562z" fill="url(#ButtonShadow)" filter="url(#filter3174)" opacity=".9"/>
</g>
<rect width="96" height="2.5" fill="#fff" opacity=".31222"/>
<g transform="translate(2.4186e-7 80)">
<g transform="matrix(1.0034 0 0 1.005 33.489 -38.527)">
<path d="m55.463-41.269h-82.003c-3.7858 0-6.8336 3.0432-6.8336 6.8233v81.88c0 3.7801 3.0478 6.8233 6.8336 6.8233h82.003c3.7858 0 6.8336-3.0432 6.8336-6.8233v-81.88c0-3.7801-3.0478-6.8233-6.8336-6.8233z" opacity=".15"/>
<path d="m54.822-40.522h-80.722c-3.7267 0-6.7268 2.9956-6.7268 6.7167v80.6c0 3.721 3.0002 6.7167 6.7268 6.7167h80.722c3.7267 0 6.7268-2.9956 6.7268-6.7167v-80.6c0-3.721-3.0002-6.7167-6.7268-6.7167z" opacity=".15"/>
<g transform="matrix(.97179 0 0 .97179 .40799 .18323)">
<path d="m55.334-41.119h-81.747c-3.774 0-6.8123 3.0337-6.8123 6.802v81.624c0 3.7683 3.0383 6.802 6.8123 6.802h81.747c3.774 0 6.8123-3.0337 6.8123-6.802v-81.624c0-3.7683-3.0383-6.802-6.8123-6.802z" fill="url(#linearGradient4071)"/>
<g transform="matrix(1.1354 0 0 1.1337 -153.57 -46.221)">
<path d="m112 5.5c-2.7873 0-5 2.2127-5 5v20.719 7 38.594c1.0707 1.6288 2.8969 2.7188 5 2.7188h4 64 4c2.1031 0 3.9293-1.09 5-2.7188v-38.594-7-20.719c0-2.7873-2.2127-5-5-5z" fill="url(#radialGradient4073)" opacity=".2"/>
<path d="m112 4.5c-3.324 0-6 2.676-6 6v15h1v-15c0-2.7873 2.2127-5 5-5h72c2.7873 0 5 2.2127 5 5v15h1v-15c0-3.324-2.676-6-6-6h-72z" fill="url(#radialGradient4075)" opacity=".45"/>
</g>
<path d="m-25.62-37.409h80.627c2.6275 0 4.7428 2.0633 4.7428 4.6262v71.706c0 2.5629-2.1153 4.6262-4.7428 4.6262h-80.627c-2.6275 0-4.7428-2.0633-4.7428-4.6262v-71.706c0-2.5629 2.1153-4.6262 4.7428-4.6262z" color="#000000" fill="#f0f2f3" fill-opacity=".7177" opacity=".817"/>
<path d="m25.414-34.674-0.72461 0.0332c0.10752-0.0051 0.07935-0.0052-0.06445 2e-3 -0.51864 0.02578-1.0436 0.07458-1.5273 0.12109l-0.73047 0.07031-0.88672 3.7637c-0.2731 0.03925-0.55155 0.08939-0.83203 0.13867l-2.2207-3.1602-0.69531 0.18945c-0.47063 0.12866-1.0022 0.24686-1.5586 0.42969l-0.70508 0.23242v3.8984c-0.25652 0.10609-0.51014 0.21526-0.76172 0.32812l-2.8555-2.6074-0.63867 0.33984c-0.3946 0.21018-0.89998 0.43128-1.4043 0.73242l-0.63867 0.38082 0.85938 3.7812c-0.22708 0.15979-0.45065 0.32074-0.67188 0.48633l-3.4395-1.916-0.54102 0.4668c-0.36316 0.3133-0.74967 0.62013-1.1543 1.0059l-0.53906 0.51562 1.6895 3.5137c-0.17352 0.1938-0.34521 0.39082-0.51172 0.58789l-3.7734-1.1074-0.42578 0.57617c-0.31678 0.42964-0.62289 0.8854-0.9043 1.3105l-0.41797 0.63086 2.4629 3.0078c-0.12681 0.23477-0.25162 0.46597-0.36914 0.69922l-3.9238-0.23828-0.28516 0.66016c-0.17596 0.40705-0.41504 0.84528-0.62305 1.4043l-0.26172 0.70312 3.082 2.4062c-0.071709 0.26487-0.1427 0.52409-0.20508 0.78516l-3.8613 0.56836-0.13086 0.72461c-0.087072 0.48483-0.18182 0.98977-0.25 1.5273l-0.09375 0.73828 0.92969 0.43945c-0.20542 0.017177-0.41843 0.029838-0.61133 0.048828l-0.73242 0.072266-0.68359 2.9648c-0.10686 0.016236-0.2153 0.038296-0.32422 0.056641l-1.7129-2.4941-0.70508 0.19727c-0.35213 0.098443-0.76529 0.19078-1.209 0.33984l-0.69922 0.23438v3.0742c-0.09865 0.042426-0.19715 0.085116-0.29492 0.12891l-2.2012-2.0566-0.65039 0.35352c-0.29206 0.15907-0.68356 0.33516-1.0879 0.58203l-0.625 0.38086 0.66406 2.9785c-0.09131 0.066709-0.18149 0.13327-0.27148 0.20117l-2.6484-1.5117-0.54883 0.48438c-0.27272 0.24058-0.5735 0.48397-0.89453 0.79688l-0.52344 0.50977 1.3047 2.7695c-0.0678 0.078568-0.13683 0.15719-0.20312 0.23633l-2.9062-0.875-0.42774 0.5918c-0.24635 0.34165-0.48412 0.70377-0.70117 1.0391l-0.40234 0.62109 1.8984 2.3691c-0.05105 0.098499-0.10152 0.19509-0.15039 0.29297l-3.0215-0.18945-0.2832 0.66992c-0.13121 0.31037-0.31736 0.65774-0.48242 1.1113l-0.25195 0.69336 2.375 1.8965c-0.02955 0.11517-0.05868 0.22788-0.08594 0.3418l-2.9746 0.44727-0.12891 0.72656c-0.06649 0.37854-0.14003 0.77707-0.19336 1.207l-0.08984 0.73047 2.7324 1.3164c-0.0081 0.10724-0.01308 0.21533-0.01953 0.32617l-2.8262 1.1152 0.03711 0.73438c0.02034 0.41304 0.05721 0.84025 0.0957 1.2305l0.07227 0.73242 2.9707 0.68359c0.01578 0.10468 0.03489 0.21153 0.05273 0.31836l-2.498 1.709 0.19727 0.70898c0.09856 0.35151 0.19242 0.76182 0.3418 1.2051l0.23438 0.69922h3.0781c0.04286 0.09894 0.08668 0.19701 0.13086 0.29492l-2.0586 2.1973 0.35547 0.65039c0.15857 0.29025 0.33212 0.6791 0.58008 1.084l0.38086 0.625 2.9844-0.66211c0.0661 0.09047 0.13186 0.18024 0.19922 0.26953l-1.5137 2.6465 0.48633 0.54883c0.2442 0.27598 0.49085 0.57557 0.80078 0.89258l0.50781 0.51953 2.7715-1.2988c0.07898 0.06764 0.1589 0.13519 0.23828 0.20117l-0.875 2.9023 0.59375 0.42773c0.34047 0.24476 0.69968 0.48146 1.0371 0.69922l0.62109 0.40039 2.373-1.8965c0.09985 0.05162 0.19766 0.10295 0.29688 0.15234l-0.18945 3.0176 0.66992 0.28125c0.30806 0.12984 0.6582 0.31856 1.1152 0.48438l0.68555 0.24805 1.9063-2.3574c0.11631 0.02742 0.22885 0.05745 0.3418 0.08203l0.44727 2.9609 0.72656 0.12695c0.37917 0.0664 0.77861 0.14208 1.209 0.19531l0.72852 0.08984 1.3184-2.7266c0.10913 8e-3 0.21937 0.01123 0.33203 0.01758l1.1152 2.8223 0.73438-0.03516c0.41692-0.02048 0.84296-0.05948 1.2305-0.09766l0.73438-0.07227 0.68359-2.9648c0.10604-0.01612 0.21421-0.03648 0.32227-0.05469l1.7148 2.4942 0.70508-0.19727c0.35213-0.09844 0.7653-0.19079 1.209-0.33984l0.69727-0.23438v-3.0645c0.097948-0.04006 0.19633-0.08291 0.29492-0.125l2.207 2.041 0.64453-0.35156c0.29354-0.15988 0.68319-0.33612 1.0859-0.58203l0.625-0.38086-0.66016-2.9805c0.09051-0.06609 0.18028-0.13193 0.26953-0.19922l2.6484 1.5117 0.55078-0.48438c0.2727-0.24057 0.5735-0.48395 0.89453-0.79688l0.52148-0.50977-1.3027-2.7695c0.06778-0.07871 0.13692-0.15713 0.20312-0.23633l2.9062 0.87305 0.42773-0.5918c0.2468-0.34227 0.48272-0.70266 0.69922-1.0371l0.40234-0.62109-1.9004-2.3691c0.05158-0.09911 0.1029-0.1963 0.15234-0.29492l3.0234 0.1875 0.2832-0.66797c0.09925-0.23476 0.23552-0.53482 0.36523-0.84375l0.30664 0.05273c0.49738 0.08514 1.0095 0.17795 1.5566 0.24414l0.7207 0.08594 1.7129-3.4648c0.27708 0.02127 0.56012 0.03399 0.85156 0.04687l1.4473 3.5781 0.72656-0.03516c0.5316-0.02551 1.0825-0.07245 1.5879-0.12109l0.73047-0.07031 0.88867-3.7656c0.27373-0.03934 0.55284-0.08925 0.83398-0.13867l2.2168 3.1582 0.69531-0.18945c0.46816-0.12799 0.99974-0.24217 1.5586-0.42578l0.70508-0.23242v-3.8906c0.25299-0.0992 0.50655-0.20735 0.76172-0.31641l2.8633 2.584 0.63281-0.33789c0.39357-0.20964 0.89721-0.42885 1.4023-0.73047l0.63867-0.38281-0.85938-3.7812c0.22733-0.15972 0.45017-0.32259 0.67188-0.48828l3.4375 1.9199 0.54297-0.46875c0.36336-0.31348 0.7517-0.62218 1.1562-1.0078l0.53906-0.51367-1.6914-3.5156c0.17289-0.19345 0.34604-0.38756 0.51172-0.58398l3.7734 1.1074 0.42578-0.57617c0.31548-0.42789 0.6236-0.88353 0.90625-1.3105l0.41797-0.63085-2.4648-3.0098c0.1267-0.23421 0.2516-0.46435 0.36914-0.69727l3.9258 0.23828 0.28516-0.66016c0.17697-0.40937 0.41398-0.84768 0.62109-1.4043l0.26172-0.70312-3.0801-2.4082c0.07182-0.26526 0.14261-0.52566 0.20508-0.78711l3.8594-0.56641 0.13086-0.72656c0.08709-0.48486 0.18182-0.98784 0.25-1.5254l0.09375-0.73828-3.5488-1.6719c0.0204-0.25255 0.03198-0.50963 0.04492-0.77539l3.666-1.4141-0.03711-0.74023c-0.02634-0.52271-0.07533-1.0623-0.125-1.5547l-0.07422-0.73633-3.8574-0.86523c-0.03773-0.25-0.08607-0.50482-0.13281-0.76172l3.2402-2.1719-0.20703-0.7168c-0.1308-0.45619-0.24854-0.977-0.4375-1.5254l-0.23828-0.69141h-3.9941c-0.10336-0.2391-0.21046-0.47588-0.32031-0.71094l2.6719-2.791-0.36914-0.66016c-0.21377-0.38268-0.43771-0.87552-0.74805-1.3711l-0.38281-0.60938-3.8711 0.83984c-0.16008-0.21781-0.32218-0.43182-0.48828-0.64453l1.9668-3.3594-0.50391-0.55664c-0.32179-0.35567-0.63921-0.73284-1.0332-1.127l-0.50391-0.50586-3.5957 1.6504c-0.20081-0.172-0.40511-0.34095-0.60938-0.50586l1.1367-3.6875-0.60938-0.42773c-0.43793-0.30789-0.90304-0.60909-1.3398-0.88477l-0.60938-0.38477-3.0781 2.4043c-0.25016-0.13-0.49658-0.25649-0.74609-0.37695l0.24414-3.8301-0.67774-0.28125c-0.42006-0.17314-0.86835-0.40618-1.4355-0.60742l-0.67969-0.24023-2.4629 3.0059c-0.28669-0.07487-0.56824-0.14615-0.85156-0.21094l-0.58203-3.7715-0.72852-0.12305c-0.49792-0.08527-1.0118-0.178-1.5586-0.24414l-0.7207-0.08594-1.7129 3.4629c-0.27647-0.02122-0.55884-0.03402-0.84961-0.04687zm-1.3457 2.1348 1.3984 3.457 0.69336-2e-3c0.02361-6.9e-5 0.05583 0 0.08594 0 0.63911 0 1.3038 0.0624 2.0078 0.11523l0.68945 0.05273 1.6621-3.3652c0.0084 0.0014 0.01694 0.0025 0.02539 0.0039l0.56641 3.668 0.6875 0.15039c0.71006 0.15482 1.4251 0.31693 2.0664 0.51172l0.65625 0.19922 2.3633-2.8867c0.0037 0.0016 8e-3 0.0023 0.01172 0.0039l-0.23828 3.748 0.63281 0.29687c0.64179 0.30011 1.2826 0.60789 1.8594 0.93555l0.59766 0.33984 2.9805-2.3301c0.01393 0.0091 0.02712 0.01822 0.04102 0.02734l-1.0996 3.5703 0.56055 0.43555c0.5508 0.42638 1.0671 0.84845 1.5684 1.3047l0.5 0.45703 3.4336-1.5762-1.8926 3.2305 0.45508 0.55078c0.43556 0.52948 0.8584 1.0859 1.248 1.6465l0.38867 0.5625 3.7148-0.80664-2.5996 2.7129 0.32227 0.64648c0.30541 0.61187 0.58843 1.2332 0.8418 1.8672l0.25586 0.64453h3.8496c0.0012 0.0046 0.0027 0.0091 0.0039 0.01367l-3.1426 2.1055 0.16406 0.69141c0.14895 0.62788 0.23902 1.2855 0.34766 2.0098l0.10352 0.69336 3.7344 0.83789-3.5195 1.3574 2e-3 0.70703c7.8e-5 0.022051 0 0.054166 0 0.083984 0 0.61815-0.06482 1.2655-0.11914 1.9551l-0.05469 0.70508 3.3984 1.6016-3.707 0.54688-0.15625 0.68164c-0.15889 0.69476-0.32349 1.39-0.52153 2.0118l-0.21484 0.67969 2.9141 2.2773-3.791-0.23047-0.30078 0.61328c-0.30802 0.6281-0.62329 1.2523-0.95703 1.8125l-0.36719 0.61719 2.3828 2.9082c-0.0059 0.0086-0.01167 0.01683-0.01758 0.02539l-3.6582-1.0762-0.42969 0.5293c-0.43762 0.53906-0.86806 1.0432-1.334 1.5312l-0.48828 0.51367 1.6152 3.3555-3.3184-1.8535-0.53711 0.42188c-0.54316 0.42605-1.1134 0.83827-1.6875 1.2188l-0.58984 0.39258 0.82617 3.6367c-0.0079 0.0039-0.01549 0.0078-0.02344 0.01172l-2.7891-2.5176-0.61719 0.29492c-0.60382 0.28738-1.2419 0.53342-1.918 0.79102l-0.66016 0.25195v3.7578c-0.02016 0.0052-0.04019 0.01037-0.06055 0.01563l-2.1543-3.0684-0.66992 0.15039c-0.6474 0.14643-1.3217 0.23389-2.0625 0.33984l-0.69141 0.09961-0.86524 3.666c-0.01519 0.0012-0.02974 0.0027-0.04492 0.0039l-1.3984-3.459-0.69336 2e-3c-0.02372 6.8e-5 -0.05783 0-0.08789 0-0.63913 9e-6 -1.3019-0.06042-2.0059-0.11328l-0.6875-0.05273-1.666 3.3672c-0.0084-0.0014-0.01695-0.0025-0.02539-0.0039l-0.5918-3.8262-4.377 0.66211-0.1543 0.68555c-0.1216 0.54379-0.24587 1.0833-0.39453 1.5605l-0.20898 0.66797 1.8086 1.4453-2.3594-0.14648-0.29688 0.62305c-0.23511 0.49024-0.47541 0.97518-0.72656 1.4062l-0.35547 0.60742 1.4961 1.8652-2.293-0.6875-0.43164 0.54297c-0.3335 0.42006-0.66021 0.81098-1.0117 1.1875l-0.47461 0.50781 0.99414 2.1113-2.0449-1.166-0.54492 0.43555c-0.41294 0.33117-0.84185 0.65143-1.2754 0.94526l-0.57617 0.39062 0.51172 2.3066-1.7266-1.5977-0.63086 0.30664c-0.45368 0.22078-0.93523 0.4142-1.4512 0.61524l-0.65234 0.25391v2.4141l-1.3516-1.9668-0.68164 0.15625c-0.48103 0.11124-0.99011 0.18026-1.5605 0.26367l-0.69336 0.10156-0.53711 2.332-0.86719-2.1934-0.69922 2e-3c-0.016475 5.4e-5 -0.042615 0-0.066406 0-0.4744 0-0.97458-0.04622-1.5176-0.08789l-0.69727-0.05469-1.0215 2.1113-0.34766-2.3008-0.68555-0.15234c-0.57195-0.12752-1.1086-0.23073-1.5605-0.37109l-0.66406-0.20508-1.457 1.8008 0.14844-2.377-0.62305-0.29883c-0.493-0.23571-0.98022-0.47291-1.4102-0.72266l-0.60547-0.35352-1.8711 1.4961 0.68945-2.2949-0.54492-0.43164c-0.42224-0.33422-0.81367-0.65805-1.1895-1.0078l-0.50781-0.47266-2.1133 0.99219 1.168-2.041-0.4375-0.54492c-0.33075-0.41113-0.65227-0.84142-0.94727-1.2754l-0.39062-0.57617-2.2891 0.50781 1.6055-1.7148-0.31055-0.63477c-0.23275-0.47685-0.44735-0.95965-0.63867-1.4492l-0.25586-0.65234h-2.4102l1.9648-1.3438-0.1582-0.68164c-0.11081-0.47771-0.17781-0.98856-0.26172-1.5605l-0.10156-0.69336-2.3301-0.53516 2.1875-0.86133v-0.69922c-4.6e-5 -0.01734 0-0.04502 0-0.06836 0-0.47088 0.0479-0.97108 0.08984-1.5156l0.05469-0.69922-2.1094-1.0156 2.2969-0.3457 0.15234-0.68555c0.1216-0.5438 0.24782-1.0833 0.39648-1.5605l0.20703-0.66797-1.8105-1.4473 2.3613 0.14844 0.29883-0.62305c0.23609-0.49227 0.47456-0.9771 0.72461-1.4062l0.35352-0.60742-1.5-1.8711 2.2988 0.69141 0.43359-0.54492c0.33255-0.41886 0.65906-0.8078 1.0117-1.1855l0.47266-0.50781-0.99219-2.1113 2.043 1.168 0.54297-0.43555c0.41323-0.33146 0.84435-0.65381 1.2773-0.94727l0.57812-0.39062-0.51172-2.293 1.7227 1.6094 0.63281-0.30864c0.4756-0.23145 0.96056-0.4448 1.4531-0.63672l0.65234-0.25391v-2.4121l1.3496 1.9648 0.67969-0.1582c0.48102-0.11124 0.99205-0.17829 1.5625-0.26172l0.69141-0.10156 0.53906-2.332 0.87891 2.2188 3.5156-1.3535-0.001953-0.70703c-6.59e-5 -0.023243 0-0.05464 0-0.083984 0-0.62011 0.063031-1.2653 0.11719-1.9531l0.054687-0.70703-3.3984-1.6016 3.709-0.54688 0.15625-0.68359c0.15885-0.69469 0.32345-1.39 0.52148-2.0117l0.2168-0.67969-2.916-2.2754 3.791 0.23242 0.30078-0.61328c0.3084-0.62888 0.62383-1.2552 0.95703-1.8145l0.36719-0.61914-2.3828-2.9062c0.00559-0.0081 0.011989-0.01531 0.017578-0.02344l3.6562 1.0723 0.42969-0.5293c0.43668-0.5379 0.86906-1.0402 1.3359-1.5293l0.48828-0.51367-1.6133-3.3535 3.3184 1.8496 0.53516-0.41992c0.54407-0.42678 1.1123-0.84079 1.6855-1.2207l0.58984-0.39062-0.82813-3.6328c0.0082-0.0041 0.01522-0.0096 0.02344-0.01367l2.7891 2.5488 0.62109-0.29687c0.62932-0.2995 1.2669-0.57492 1.916-0.82227l0.66016-0.25195v-3.7559c0.02032-0.0053 0.04004-0.01224 0.06055-0.01758l2.1562 3.0684 0.66992-0.15234c0.64737-0.14644 1.3217-0.23192 2.0625-0.33789l0.69141-0.09961 0.86328-3.666c0.01578-0.0013 0.03112-0.0026 0.04687-0.0039zm2.1777 7.3613c-3.2675 0-6.3664 0.71894-9.1484 1.9805l-1.043 0.47266 6.1465 10.342 0.79102-0.27734c1.0049-0.35142 2.1006-0.53125 3.2539-0.53125 4.9627 0 8.9808 3.6082 9.5195 8.2637l0.10547 0.90625h12.205l-0.06445-1.084c-0.66404-11.187-10.188-20.072-21.766-20.072zm0 2.0508c10.142 0 18.41 7.488 19.547 17.057h-8.2734c-1.0708-5.2198-5.6507-9.1719-11.273-9.1719-1.0654 0-2.0682 0.24388-3.0605 0.50586l-4.1387-6.9629c2.2425-0.86664 4.6423-1.4277 7.1992-1.4277zm-11.727 1.3047-0.9082 0.63281c-5.4902 3.8389-9.1215 10.11-9.1602 17.209l-0.015625 2.9492 1.1543-1.4434-0.14648 2.3594 0.62305 0.29883c0.49002 0.23429 0.97533 0.47316 1.4082 0.72461l0.60547 0.35156 1.873-1.4941-0.69141 2.291 0.54688 0.43359c0.41952 0.33207 0.80916 0.65763 1.1875 1.0098l0.50586 0.47266 2.1172-0.99414-1.1699 2.043 0.43945 0.54492c0.33074 0.41111 0.6503 0.84141 0.94531 1.2754l0.39062 0.57617 2.291-0.50977-1.6055 1.7148 0.30859 0.63477c0.12803 0.26228 0.25152 0.56136 0.39062 0.88477l0.79688 1.8516 4.6973-7.9297-0.73047-0.55273c-2.2704-1.7128-3.7305-4.3666-3.7305-7.3789-1e-6 -2.8301 1.2822-5.342 3.3184-7.0586l0.66211-0.55859zm-0.57617 3.0566 4.082 6.9141c-2.0877 2.0535-3.4316 4.8494-3.4316 7.9844 0 3.3432 1.5292 6.2964 3.8652 8.373l-0.16602 0.28125-0.20117-0.32812-2.9844 0.66211c-0.06579-0.090046-0.13218-0.17869-0.19922-0.26758l1.5156-2.6484-0.48828-0.55078c-0.24266-0.27423-0.48717-0.57381-0.79883-0.89258l-0.50977-0.51953-2.7715 1.3008c-0.07835-0.06743-0.15742-0.13524-0.23633-0.20117l0.875-2.9043-0.5957-0.42773c-0.34277-0.24642-0.70215-0.48305-1.0371-0.69922l-0.61914-0.39844-2.375 1.8945c-0.099085-0.051509-0.19625-0.10293-0.29492-0.15234l0.1875-3.0176-0.66992-0.2832c-0.13194-0.055603-0.3219-0.13373-0.47266-0.20312 0.30078-5.6393 3.0855-10.58 7.3262-13.916zm12.303 9.2461c-3.1602 0-5.7656 2.527-5.7656 5.6523 0 3.1253 2.6049 5.6543 5.7656 5.6543 3.1607 0 5.7676-2.529 5.7676-5.6543 0-3.1253-2.6074-5.6523-5.7676-5.6523zm0 2.0488c2.0821 0 3.7168 1.6098 3.7168 3.6035 0 1.9937-1.6352 3.6055-3.7168 3.6055-2.0816 0-3.7148-1.6117-3.7148-3.6055 0-1.9937 1.6327-3.6035 3.7148-3.6035zm-28.734 1.7676 0.91992 0.43359c-0.019964 0.25124-0.032334 0.50766-0.044922 0.77148l-0.34375 0.13281zm38.211 3.4062-0.20117 0.76562c-1.0573 4.0233-4.7772 7.0195-9.2754 7.0195-0.96752 0-1.9119-0.14439-2.791-0.40234l-0.76562-0.22461-3.6094 6.1152-2e-3 2e-3 -0.08984 0.1543-2.4336 4.125 1.0801 0.45508c0.18228 0.07674 0.28931 0.10432 0.30664 0.11133l0.07617 0.0293 1.9375 0.44531 0.02344 0.25781 0.69922 0.18164c1.7798 0.45969 3.6462 0.70312 5.5684 0.70312 11.062 0 20.235-8.0954 21.609-18.58l0.15234-1.1582zm1.4355 2.0508h8.4004c-1.7459 8.8768-9.673 15.639-19.312 15.639-1.5098 0-2.9545-0.23696-4.3672-0.55078l-0.01953-0.20703-2.252-0.51758 1.0059-1.7051 0.7168-0.49219-0.13672-0.49219 2.5137-4.2559c0.82738 0.18174 1.6581 0.36523 2.5391 0.36523 5.1076 0 9.3529-3.2787 10.912-7.7832zm-39.521 1.1152c-2.5441 0-4.9583 0.57244-7.123 1.5762l-1.0195 0.47266 4.9316 8.4844 0.80273-0.28711c0.74198-0.26531 1.5507-0.40234 2.4082-0.40234 0.6667 0 1.3116 0.09173 1.9238 0.26172l0.58984 0.16406 0.15039-0.15625 1.4766 1.0547c0.80913 0.57797 1.4868 1.3206 1.9922 2.1816l0.87109 1.4863-0.14844 0.06836 0.13867 0.7793c0.030855 0.1738 0.056435 0.31685 0.070312 0.43945l0.10352 0.91016h5.4395l0.49414-1.5938-0.5625-0.43555c-0.552-0.42731-1.0682-0.84745-1.5684-1.3027l-0.5-0.45703-0.61719 0.2832-2.8145 1.293 1.8926-3.2324-0.45508-0.55273c-0.43728-0.53156-0.86189-1.0842-1.25-1.6426l-0.38867-0.5625-0.66992 0.14453-3.0469 0.66211 2.6035-2.7148-0.32227-0.64648c-0.30541-0.61191-0.58846-1.2352-0.8418-1.8691l-0.25586-0.64453h-3.8496c-0.00109-0.00397-0.00282-0.00774-0.00391-0.011719l4.7031-3.1465-2.6152-0.39453c-0.81323-0.12261-1.6589-0.20898-2.5391-0.20898zm-0.83203 2.1426-1.0977 0.73438 0.20703 0.71875c0.1308 0.4562 0.24853 0.97701 0.4375 1.5254l0.23828 0.69141h3.9941c0.10337 0.23911 0.21047 0.47589 0.32031 0.71094l-1.457 1.5176c-0.5913-0.11984-1.1831-0.24609-1.8105-0.24609-0.76942 0-1.4904 0.19509-2.2148 0.37305l-2.9648-5.1016c1.3706-0.51421 2.8206-0.83651 4.3477-0.92383zm-8.084 0.37695-0.91992 0.65625c-4.2928 3.0693-7.1191 8.0861-7.1191 13.758 0 5.8356 2.9847 10.988 7.4922 14.029l0.9082 0.61328 4.9141-8.4766-0.71094-0.54883c-1.686-1.3006-2.7734-3.319-2.7734-5.6172 0-2.1594 0.95671-4.0716 2.4688-5.375l0.64258-0.55469zm19.885 1.5293-1.5605 1.2754c1.1019 1.9967 2.5213 3.797 4.1855 5.3457l1.6172-1.2031c-1.0329-2.0895-2.4861-3.9257-4.2422-5.418zm-20.465 1.5645 2.9551 5.1133c-1.5603 1.6395-2.6328 3.7659-2.6328 6.207 0 2.6047 1.2162 4.8463 2.9648 6.5098l-2.9512 5.0918c-3.4566-2.7258-5.7461-6.865-5.7461-11.602 0-4.5777 2.1474-8.5905 5.4102-11.32zm9.4961 6.666c-2.5617 0-4.6602 2.094-4.6602 4.6543 1.3e-6 2.5603 2.0985 4.6562 4.6602 4.6562 2.5617 0 4.6621-2.0953 4.6621-4.6562 0-2.561-2.1004-4.6543-4.6621-4.6543zm0 2.0508c1.4589 0 2.6133 1.15 2.6133 2.6035 0 1.4535-1.1544 2.6055-2.6133 2.6055-1.4589 0-2.6094-1.1513-2.6094-2.6055 0-1.4542 1.1505-2.6035 2.6094-2.6035zm7.0801 3.6133-0.19922 0.76953c-0.78792 3.0658-3.5479 5.3359-6.8809 5.3359-0.71524 0-1.4139-0.1089-2.0664-0.30469l-0.77734-0.23242-4.916 8.5215 1.0586 0.45508c2.0557 0.88478 4.3247 1.3789 6.7012 1.3789 8.6116 0 15.744-6.4468 16.811-14.77l0.14844-1.1543h-3.5176l-1.3984 1.0918c-0.014397-0.0094-0.02861-0.01793-0.042969-0.02734l0.33008-1.0645zm1.4453 2.0488h1.2715l0.4082 0.28711c0.43919 0.30878 0.9062 0.60789 1.3418 0.88281l0.60938 0.38477 1.9902-1.5547h0.37305c-1.4208 6.7366-7.3411 11.824-14.52 11.824-1.681 0-3.2668-0.34296-4.7734-0.85547l2.959-5.1289c0.59512 0.12147 1.1841 0.26758 1.8145 0.26758 3.9672 0 7.2545-2.5758 8.5254-6.1074zm13.395 2.1895 0.24023 1.5469-1.3203-1.0547c0.0296-0.11536 0.06059-0.22769 0.08789-0.3418z" color="#000000" color-rendering="auto" dominant-baseline="auto" fill="#3a4658" fill-opacity=".87081" image-rendering="auto" shape-rendering="auto" solid-color="#000000" style="font-feature-settings:normal;font-variant-alternates:normal;font-variant-caps:normal;font-variant-ligatures:normal;font-variant-numeric:normal;font-variant-position:normal;isolation:auto;mix-blend-mode:normal;shape-padding:0;text-decoration-color:#000000;text-decoration-line:none;text-decoration-style:solid;text-indent:0;text-orientation:mixed;text-transform:none;white-space:normal"/>
<path d="m-24.688-37.812c-3.1961 0-5.8125 2.6003-5.8125 5.7812v70.938c0 3.1809 2.6164 5.7812 5.8125 5.7812h78.75c3.1961 0 5.8125-2.6003 5.8125-5.7812v-70.938c0-3.1809-2.6164-5.7812-5.8125-5.7812h-78.75zm0 2.375h78.75c1.9362 0 3.4375 1.5155 3.4375 3.4062v70.938c0 1.8907-1.5013 3.4062-3.4375 3.4062h-78.75c-1.9362 0-3.4375-1.5155-3.4375-3.4062v-70.938c0-1.8907 1.5013-3.4062 3.4375-3.4062z" color="#000000" fill-opacity=".87149" style="block-progression:tb;text-indent:0;text-transform:none"/>
<path transform="matrix(1.0255 0 0 1.024 -34.763 -42.655)" d="m1.5 81.844v6c0 3.6801 2.9761 6.6562 6.6562 6.6562h79.688c3.6801 0 6.6562-2.9761 6.6562-6.6562v-6c0 3.6801-2.9761 6.6562-6.6562 6.6562h-79.688c-3.6801 0-6.6562-2.9761-6.6562-6.6562z" fill="url(#linearGradient4129)" opacity=".65"/>
<rect x="-29.251" y="39.517" width="86.398" height="4.3518" rx="0" ry="4.3518" fill="url(#radialGradient4139)" opacity=".55"/>
<rect transform="rotate(90)" x="-37.791" y="-58.173" width="78.588" height="4.3584" rx="0" ry="4.3584" fill="url(#radialGradient4143)" opacity=".55"/>
<path transform="matrix(1.0255 0 0 1.024 -34.763 -42.655)" d="m57.963 8.8262c-0.47629 0.023653-0.97323 0.069951-1.4434 0.11523l-0.85352 3.6289c-0.71209 0.10201-1.3995 0.18888-2.0918 0.3457l-2.1191-3.0234c-0.48987 0.13412-0.99337 0.24464-1.4727 0.40234v3.7441c-0.66155 0.25246-1.3092 0.53172-1.9434 0.83398l-2.7383-2.5039c-0.43045 0.22963-0.907 0.43995-1.3242 0.68945l0.82422 3.6289c-0.58419 0.38778-1.1578 0.80684-1.707 1.2383l-3.2988-1.8438c-0.37193 0.32135-0.73288 0.61224-1.0879 0.95117l1.6191 3.3691c-0.47904 0.50257-0.91855 1.0157-1.3555 1.5547l-3.6211-1.0645c-0.29125 0.3956-0.58244 0.82617-0.85352 1.2363l2.3555 2.8809c-0.35099 0.59001-0.6697 1.2231-0.97266 1.8418l-3.7676-0.23047c-0.19438 0.45033-0.41835 0.8646-0.58984 1.3262l2.9453 2.3027c-0.20981 0.6597-0.37568 1.3636-0.53125 2.0449l-3.709 0.54688c-0.085819 0.47858-0.17474 0.95312-0.23633 1.4395l3.416 1.6133c-0.051727 0.65785-0.11719 1.3155-0.11719 1.9863 0 0.026791-7.5e-5 0.059151 0 0.085938l-1.8633 0.7207-0.95898-2.4277c-0.011825 5.76e-4 -0.033205-5.96e-4 -0.044922 0-0.36529 0.018563-0.74686 0.054331-1.1074 0.089843l-0.6543 2.8457c-0.54613 0.080007-1.0726 0.14655-1.6035 0.26953l-1.625-2.3711c-0.3757 0.10518-0.76132 0.19273-1.1289 0.31641v2.9355c-0.50737 0.19799-1.0039 0.41921-1.4902 0.65625l-2.1016-1.9648c-0.33013 0.18008-0.69564 0.34535-1.0156 0.54102l0.63281 2.8457c-0.44804 0.30411-0.88935 0.63236-1.3105 0.9707l-2.5293-1.4453c-0.28525 0.25201-0.56171 0.4803-0.83398 0.74609l1.2402 2.6406c-0.3674 0.39413-0.70202 0.79799-1.0371 1.2207l-2.7773-0.83594c-0.22337 0.31024-0.44835 0.64905-0.65625 0.9707l1.8066 2.2578c-0.26919 0.4627-0.51179 0.96011-0.74414 1.4453l-2.8906-0.17969c-0.14907 0.35316-0.31965 0.67709-0.45117 1.0391l2.2578 1.8066c-0.16091 0.51735-0.28694 1.0672-0.40625 1.6016l-2.8457 0.42969c-0.065822 0.37531-0.13441 0.74751-0.18164 1.1289l2.6191 1.2656c-0.039679 0.5159-0.089844 1.0306-0.089844 1.5566 0 0.021007-5.7e-5 0.047352 0 0.068359l-2.6875 1.0625c0.018547 0.3772 0.055142 0.77822 0.091797 1.1504l2.8438 0.6543c0.07999 0.54612 0.14851 1.0726 0.27148 1.6035l-2.3711 1.627c0.10518 0.3757 0.19272 0.76132 0.31641 1.1289h2.9355c0.19798 0.50737 0.41726 1.0039 0.6543 1.4902l-1.9648 2.0996c0.18008 0.33013 0.3473 0.69563 0.54297 1.0156l2.8457-0.63086c0.30411 0.44805 0.63236 0.8874 0.9707 1.3086l-1.4453 2.5293c0.25201 0.28525 0.47835 0.56367 0.74414 0.83594l2.6426-1.2422c0.39413 0.36739 0.79799 0.70396 1.2207 1.0391l-0.83594 2.7773c0.31025 0.22338 0.64904 0.4464 0.9707 0.6543l2.2578-1.8066c0.46271 0.26918 0.96011 0.51375 1.4453 0.74609l-0.17969 2.8906c0.35316 0.14906 0.67513 0.31964 1.0371 0.45117l1.8066-2.2344c0.51736 0.16092 1.0692 0.2635 1.6035 0.38281l0.42969 2.8457c0.37531 0.065824 0.74752 0.13244 1.1289 0.17969l1.2637-2.6191c0.5159 0.03965 1.0325 0.089844 1.5586 0.089844 0.021039 0 0.047397 6.2e-5 0.068359 0l1.0605 2.6875c0.3772-0.018565 0.78017-0.053182 1.1523-0.089844l0.6543-2.8457c0.54613-0.080006 1.0726-0.14851 1.6035-0.27148l1.627 2.3711c0.37569-0.10518 0.76131-0.19077 1.1289-0.31445v-2.9355c0.50737-0.19798 1.0039-0.39577 1.4902-0.63281l2.0996 1.9414c0.33012-0.18008 0.69564-0.34535 1.0156-0.54102l-0.63281-2.8457c0.44804-0.3041 0.88935-0.63236 1.3105-0.9707l2.5293 1.4453c0.28524-0.25201 0.56366-0.48031 0.83594-0.74609l-1.2422-2.6426c0.3674-0.39413 0.70397-0.79604 1.0391-1.2188l2.7773 0.83594c0.22337-0.31025 0.4464-0.64906 0.6543-0.9707l-1.8066-2.2578c0.26918-0.46271 0.51375-0.96011 0.74609-1.4453l2.8906 0.17969c0.14908-0.35316 0.31966-0.67709 0.45117-1.0391l-2.2578-1.8066c0.16091-0.51736 0.28694-1.0692 0.40625-1.6035l2.6074-0.39258 0.53516 3.4707c0.48936 0.08393 0.97538 0.17022 1.4727 0.23047l1.6484-3.3398c0.67267 0.050559 1.3473 0.11524 2.0332 0.11523 0.02742 0 0.060557 8.1e-5 0.08789 0l1.3828 3.4258c0.49183-0.023654 1.0167-0.068485 1.502-0.11524l0.85352-3.627c0.71209-0.10201 1.3995-0.18889 2.0918-0.3457l2.1191 3.0234c0.48986-0.13412 0.99335-0.24463 1.4727-0.40234v-3.7441c0.66155-0.25245 1.3092-0.50437 1.9434-0.80664l2.7383 2.4766c0.43044-0.22963 0.907-0.4419 1.3242-0.69141l-0.82422-3.627c0.58419-0.38777 1.1578-0.80685 1.707-1.2383l3.2988 1.8418c0.37192-0.32135 0.73483-0.6103 1.0898-0.94922l-1.6211-3.3691c0.47904-0.50257 0.91856-1.0157 1.3555-1.5547l3.6211 1.0645c0.29125-0.39562 0.58244-0.82813 0.85352-1.2383l-2.3555-2.8789c0.35098-0.59002 0.6697-1.225 0.97266-1.8438l3.7676 0.23047c0.19438-0.45033 0.41836-0.86265 0.58984-1.3242l-2.9453-2.3027c0.20981-0.65971 0.37568-1.3636 0.53125-2.0449l3.709-0.54688c0.085831-0.47858 0.17474-0.95313 0.23633-1.4395l-3.416-1.6133c0.051741-0.65785 0.11719-1.3155 0.11719-1.9863 0-0.026781 9.4e-5 -0.059151 0-0.085937l3.5039-1.3535c-0.024203-0.48099-0.069389-0.99419-0.11719-1.4688l-3.709-0.83594c-0.10431-0.6964-0.19315-1.3659-0.35352-2.043l3.0918-2.0742c-0.13716-0.47906-0.25084-0.97072-0.41211-1.4395h-3.8281c-0.25815-0.64698-0.54443-1.2802-0.85352-1.9004l2.5605-2.6777c-0.2348-0.42096-0.4519-0.88885-0.70703-1.2969l-3.709 0.80664c-0.39652-0.57132-0.82447-1.1328-1.2656-1.6699l1.8828-3.2246c-0.32859-0.36373-0.62414-0.71922-0.9707-1.0664l-3.4453 1.584c-0.5139-0.46848-1.0387-0.89692-1.5898-1.3242l1.0898-3.541c-0.40453-0.28484-0.84622-0.57084-1.2656-0.83594l-2.9453 2.3047c-0.6033-0.34324-1.2521-0.6549-1.8848-0.95117l0.23633-3.6855c-0.46049-0.19008-0.88349-0.40846-1.3555-0.57617l-2.3555 2.8789c-0.67458-0.2052-1.3931-0.36544-2.0898-0.51758l-0.55859-3.6289c-0.48937-0.08393-0.97536-0.17022-1.4727-0.23047l-1.6484 3.3418c-0.67267-0.050559-1.3453-0.11524-2.0312-0.11524-0.027421 0-0.062511-7.8e-5 -0.089844 0l-1.3828-3.4277c-0.015465 7.354e-4 -0.043333-7.588e-4 -0.058593 0zm1.5312 9.2441c10.779 0 19.611 8.2663 20.227 18.658h-9.9512c-0.58396-5.0538-4.9487-8.9551-10.275-8.9551-1.2293 0-2.4111 0.19345-3.5039 0.57617l-5.0059-8.4375c2.5886-1.1756 5.4698-1.8418 8.5098-1.8418zm-11.748 3.7148 4.9746 8.4355c-2.1964 1.8544-3.5918 4.5923-3.5918 7.6602 0 3.2665 1.5855 6.1546 4.0332 8.0039l-3.125 5.2812c-0.1304-0.30354-0.25425-0.61041-0.39844-0.90625l1.9648-2.0996c-0.18008-0.33013-0.3473-0.69759-0.54297-1.0176l-2.8438 0.63281c-0.30411-0.44804-0.63432-0.8874-0.97266-1.3086l1.4453-2.5293c-0.25201-0.28525-0.47835-0.56366-0.74414-0.83594l-2.6426 1.2422c-0.39413-0.36739-0.79604-0.70396-1.2188-1.0391l0.83594-2.7773c-0.31025-0.22338-0.65099-0.4464-0.97266-0.6543l-2.2578 1.8047c-0.4627-0.26917-0.96011-0.5118-1.4453-0.74414l0.18164-2.8906c-0.35317-0.14906-0.67708-0.31965-1.0391-0.45117l-0.14648 0.18359c0.035774-6.5957 3.4005-12.415 8.5059-15.99zm11.748 11.574c2.556 0 4.6211 2.0218 4.6211 4.5215 0 2.4996-2.0651 4.5195-4.6211 4.5195s-4.623-2.0199-4.623-4.5195c0-2.4997 2.0671-4.5215 4.623-4.5215zm10.01 7.0547h10.07c-1.2742 9.7364-9.78 17.277-20.08 17.277-1.7889 0-3.5274-0.23044-5.1816-0.6582-0.008226-0.089805-0.012895-0.18232-0.021484-0.26953l-2.5215-0.58203c-0.093338-0.037735-0.19254-0.064473-0.28516-0.10352l1.7656-2.998 0.29492-0.20117c-0.018751-0.06697-0.038721-0.13372-0.056641-0.20117l3.002-5.0938c0.94725 0.27839 1.9626 0.43164 3.0039 0.43164 4.8313 0 8.8632-3.232 10.01-7.6016zm-37.908 3.0938c0.79097 0 1.5628 0.076934 2.3223 0.19141l-3.043 2.043c0.13715 0.47907 0.25084 0.97073 0.41211 1.4395h3.8262c0.25814 0.64698 0.5464 1.2802 0.85547 1.9004l-2.2285 2.3281c-0.68164-0.1897-1.401-0.29297-2.1445-0.29297-0.94278 0-1.8494 0.15299-2.6875 0.45312l-3.8379-6.6172c1.9853-0.92191 4.1939-1.4453 6.5254-1.4453zm-9.0098 2.9121 3.8164 6.6172c-1.6845 1.4543-2.7559 3.6-2.7559 6.0059 0 2.5617 1.2165 4.829 3.0938 6.2793l-3.8164 6.5938c-4.1319-2.7924-6.8633-7.5148-6.8633-12.873 0-5.2068 2.5889-9.8043 6.5254-12.623zm19.057 0.80273c1.6122 1.3719 2.9449 3.0577 3.8906 4.9746-1.5488-1.4429-2.8679-3.1183-3.8906-4.9746zm-3.8203 5.0273c0.39652 0.57133 0.82447 1.1328 1.2656 1.6699l-0.65234 1.1152c-0.56318-0.96021-1.3192-1.7902-2.2207-2.4355l1.6074-0.34961zm-6.2266 3.248c1.9603 0 3.5449 1.5846 3.5449 3.5449 0 1.9603-1.5846 3.5469-3.5449 3.5469-1.9603 0-3.5449-1.5866-3.5449-3.5469 0-1.9603 1.5846-3.5449 3.5449-3.5449zm10.025 1.127c0.5139 0.46848 1.0387 0.89887 1.5898 1.3262l-0.058594 0.18945h-3.6758c-0.018879-0.16707-0.049101-0.33044-0.078124-0.49414l2.2227-1.0215zm-2.3477 4.4062h2.9902l-0.14258 0.46094c0.40453 0.28484 0.84622 0.57084 1.2656 0.83594l1.6582-1.2969h1.9512c-0.97722 7.6355-7.5008 13.549-15.4 13.549-2.1795 0-4.2595-0.45391-6.1426-1.2656l3.8398-6.6602c0.72648 0.21832 1.5041 0.33789 2.3027 0.33789 3.7053 0 6.7984-2.5342 7.6777-5.9609z" fill="#949494" opacity=".95"/>
</g>
<g transform="matrix(.90618 0 0 .9238 -27.685 -5.6507)" opacity=".83636">
<rect transform="translate(-1.4999 -1.4)" x="2" y="-30" width="92" height="92" rx="3.957" ry="3.957" clip-path="url(#clipPath4156-4)" fill="url(#linearGradient4767)" opacity="1"/>
</g>
</g>
</g>
</svg>
