<?xml version="1.0" encoding="UTF-8"?>
<!-- Created with Inkscape (http://www.inkscape.org/) -->
<svg version="1.1" viewBox="0 0 96 96" xmlns="http://www.w3.org/2000/svg" xmlns:cc="http://creativecommons.org/ns#" xmlns:dc="http://purl.org/dc/elements/1.1/" xmlns:rdf="http://www.w3.org/1999/02/22-rdf-syntax-ns#" xmlns:xlink="http://www.w3.org/1999/xlink">
<defs>
<linearGradient id="linearGradient4071" x1="6" x2="90" y1="47" y2="47" gradientTransform="matrix(1.1071 0 0 1.1071 -4.9939 -3.6207)" gradientUnits="userSpaceOnUse">
<stop stop-color="#b0b9be" offset="0"/>
<stop stop-color="#fff" offset=".25"/>
<stop stop-color="#93a2a7" offset=".5"/>
<stop stop-color="#f9fbfb" offset=".75"/>
<stop stop-color="#b0b8be" offset="1"/>
</linearGradient>
<linearGradient id="linearGradient4129" x1="1.5" x2="94.5" y1="88.172" y2="88.172" gradientTransform="translate(.14895 .41503)" gradientUnits="userSpaceOnUse">
<stop offset="0"/>
<stop stop-opacity=".58824" offset=".1"/>
<stop stop-opacity=".58824" offset=".9"/>
<stop offset="1"/>
</linearGradient>
<radialGradient id="radialGradient7462" cx="13.948" cy="44.893" r="43.199" gradientTransform="matrix(.97513 0 0 .049191 34.048 80.582)" gradientUnits="userSpaceOnUse" xlink:href="#linearGradient4050"/>
<linearGradient id="linearGradient4050">
<stop stop-color="#fff" offset="0"/>
<stop stop-color="#fff" stop-opacity="0" offset="1"/>
</linearGradient>
<radialGradient id="radialGradient7464" cx="13.948" cy="44.893" r="43.199" gradientTransform="matrix(.88833 0 0 .049191 31.96 -90.317)" gradientUnits="userSpaceOnUse" xlink:href="#linearGradient4050"/>
<radialGradient id="radialGradient4543" cx="48" cy="-16.128" r="44.544" gradientTransform="matrix(1 0 0 .048851 -16.372 -3.8618)" gradientUnits="userSpaceOnUse" xlink:href="#linearGradient4050"/>
<linearGradient id="linearGradient4388" x1="2.5" x2="93.5" y1="54.297" y2="54.297" gradientTransform="translate(-17.652 -22.602)" gradientUnits="userSpaceOnUse" xlink:href="#linearGradient4160"/>
<linearGradient id="linearGradient4160">
<stop stop-opacity="0" offset="0"/>
<stop stop-opacity=".96471" offset=".031756"/>
<stop stop-opacity="0" offset=".094256"/>
<stop stop-opacity="0" offset=".49595"/>
<stop stop-opacity="0" offset=".90526"/>
<stop stop-opacity=".98824" offset=".96241"/>
<stop stop-opacity="0" offset="1"/>
</linearGradient>
<linearGradient id="linearGradient4369" x1="2.5" x2="93.5" y1="11.141" y2="11.141" gradientTransform="matrix(1.0082 0 0 1 -17.673 -22.602)" gradientUnits="userSpaceOnUse" xlink:href="#linearGradient4160"/>
<linearGradient id="linearGradient4767-6" x1="2.7714" x2="50.528" y1="-28.642" y2="14.514" gradientUnits="userSpaceOnUse" xlink:href="#linearGradient4050"/>
<clipPath id="clipPath4156-4-1-2">
<path d="m27.046-55.695-14.214 13.321h0.06127l15.653 21.771 10.231-10.546c-0.2169-1.1522-11.311-23.67-11.732-24.546zm-17.399 16.313-14.888 14.062 21.229 17.515 10.385-10.577zm31.491 12.951-9.7413 9.7136 8.9448 12.458 7.7808-7.555zm-49.84 4.3788-13.754 12.982 26.283 13.846 0.06127-0.0617-0.12253-0.0617 9.8332-10.053-22.301-16.652zm38.015 7.4008-9.8025 9.7753 11.579 9.5594 7.6276-7.4008-8.6691-11.009zm20.187 5.674-7.3825 7.2158 6.1878 8.5418 5.8202-6.1365zm-32.195 6.3215-9.5575 9.4977 13.662 7.185 7.9339-7.6784zm23.312 2.3744-7.1068 6.9383 8.3628 6.9074 5.3608-5.674-0.06127-0.0925-0.0919 0.12335-6.4635-8.2026zm-8.7304 8.5418-7.5051 7.3392 10.354 5.4581c1.3975-1.321 5.6751-6.1229 5.8509-6.3215z" fill="#fff" opacity=".6"/>
</clipPath>
<linearGradient id="linearGradient5360" x1="48.992" x2="37" y1="46.125" y2="36" gradientTransform="translate(-74.957 27.613)" gradientUnits="userSpaceOnUse">
<stop stop-color="#cfcfcf" offset="0"/>
<stop stop-color="#b7b7b7" offset=".20986"/>
<stop stop-color="#c9c9c9" offset="1"/>
</linearGradient>
<linearGradient id="linearGradient4020" x1="136" x2="150" y1="60" y2="60" gradientTransform="matrix(-.62795 -.36255 .36255 -.62795 120.29 131.31)" gradientUnits="userSpaceOnUse">
<stop stop-color="#7e162e" offset="0"/>
<stop stop-color="#b31f42" offset=".25"/>
<stop stop-color="#d83b59" offset=".3"/>
<stop stop-color="#cb2947" offset=".7"/>
<stop stop-color="#db6472" offset=".75"/>
<stop stop-color="#f2c6cb" offset="1"/>
</linearGradient>
<linearGradient id="linearGradient4022" x1="143" x2="143" y1="2.4e-6" y2="120.02" gradientTransform="matrix(-.62795 -.36255 .36255 -.62795 120.29 131.31)" gradientUnits="userSpaceOnUse">
<stop offset="0"/>
<stop offset=".065884"/>
<stop stop-color="#ad5f1b" offset=".07"/>
<stop stop-color="#ad601a" offset=".19137"/>
<stop stop-color="#661226" offset=".20983"/>
<stop stop-color="#661226" offset="1"/>
</linearGradient>
<linearGradient id="linearGradient4024" x1="136.99" x2="149" y1="17.043" y2="17.043" gradientTransform="matrix(-.62795 -.36255 .36255 -.62795 120.29 131.31)" gradientUnits="userSpaceOnUse">
<stop stop-color="#da8539" offset="0"/>
<stop stop-color="#fadfc7" offset="1"/>
</linearGradient>
<filter id="filter3382" x="-.43161" y="-.11371" width="1.8632" height="1.2274" color-interpolation-filters="sRGB">
<feGaussianBlur stdDeviation="0.73914765"/>
</filter>
<filter id="filter3390" x="-.6098" y="-.1494" width="2.2196" height="1.2988" color-interpolation-filters="sRGB">
<feGaussianBlur stdDeviation="0.77812506"/>
</filter>
<linearGradient id="linearGradient4026" x1="136" x2="150" y1="60" y2="60" gradientTransform="matrix(-.62795 -.36255 .36255 -.62795 120.29 131.31)" gradientUnits="userSpaceOnUse">
<stop offset="0"/>
<stop stop-color="#464646" offset=".25"/>
<stop stop-color="#505050" offset=".3"/>
<stop stop-color="#464646" offset=".7"/>
<stop stop-color="#8a8a8a" offset=".75"/>
<stop stop-color="#6f6f6f" offset="1"/>
</linearGradient>
<linearGradient id="linearGradient4028" x1="64.316" x2="61.697" y1="11.25" y2="15.786" gradientUnits="userSpaceOnUse">
<stop offset="0"/>
<stop stop-opacity="0" offset="1"/>
</linearGradient>
<linearGradient id="linearGradient4030" x1="63.865" x2="72.918" y1="13.624" y2="18.85" gradientUnits="userSpaceOnUse" xlink:href="#linearGradient4050"/>
</defs>
<metadata>
<rdf:RDF>
<cc:Work rdf:about="">
<dc:format>image/svg+xml</dc:format>
<dc:type rdf:resource="http://purl.org/dc/dcmitype/StillImage"/>
<dc:title/>
<dc:date>2017</dc:date>
<dc:creator>
<cc:Agent>
<dc:title>Cristian Pozzessere "ilnanny"</dc:title>
</cc:Agent>
</dc:creator>
<dc:subject>
<rdf:Bag>
<rdf:li>Global language</rdf:li>
</rdf:Bag>
</dc:subject>
<dc:description>Playing with Inkscape on Gnu/Linux O. S.</dc:description>
<dc:contributor>
<cc:Agent>
<dc:title>In the night, alone like a dog.</dc:title>
</cc:Agent>
</dc:contributor>
<cc:license rdf:resource="http://creativecommons.org/licenses/by-sa/4.0/"/>
</cc:Work>
<cc:License rdf:about="http://creativecommons.org/licenses/by-sa/4.0/">
<cc:permits rdf:resource="http://creativecommons.org/ns#Reproduction"/>
<cc:permits rdf:resource="http://creativecommons.org/ns#Distribution"/>
<cc:requires rdf:resource="http://creativecommons.org/ns#Notice"/>
<cc:requires rdf:resource="http://creativecommons.org/ns#Attribution"/>
<cc:permits rdf:resource="http://creativecommons.org/ns#DerivativeWorks"/>
<cc:requires rdf:resource="http://creativecommons.org/ns#ShareAlike"/>
</cc:License>
</rdf:RDF>
</metadata>
<g transform="translate(0 -1026.5)">
<g transform="translate(-.14896 1026.1)">
<path d="m89.292 0.41503h-82.286c-3.7988 0-6.8571 3.0583-6.8571 6.8571v82.286c0 3.7989 3.0583 6.8571 6.8571 6.8571h82.286c3.7989 0 6.8571-3.0583 6.8571-6.8571v-82.286c0-3.7989-3.0583-6.8571-6.8571-6.8571z" opacity=".15"/>
<path d="m88.649 1.165h-81c-3.7395 0-6.75 3.0105-6.75 6.75v81c0 3.7395 3.0105 6.75 6.75 6.75h81c3.7395 0 6.75-3.0105 6.75-6.75v-81c0-3.7395-3.0105-6.75-6.75-6.75z" opacity=".15"/>
<path d="m88.006 1.915h-79.714c-3.6801 0-6.6429 2.9627-6.6429 6.6429v79.714c0 3.6801 2.9627 6.6429 6.6429 6.6429h79.714c3.6801 0 6.6429-2.9627 6.6429-6.6429v-79.714c0-3.6801-2.9627-6.6429-6.6429-6.6429z" fill="url(#linearGradient4071)"/>
<path d="m1.649 82.259v6c0 3.6801 2.9761 6.6562 6.6562 6.6562h79.687c3.6801 0 6.6563-2.9761 6.6563-6.6562v-6c0 3.6801-2.9761 6.6562-6.6563 6.6562h-79.687c-3.6801 0-6.6562-2.9761-6.6562-6.6562z" fill="url(#linearGradient4129)" opacity=".65818"/>
<rect x="5.524" y="80.665" width="84.25" height="4.25" rx="0" ry="4.25" fill="url(#radialGradient7462)" opacity=".55"/>
<rect transform="rotate(90)" x="5.975" y="-90.234" width="76.75" height="4.25" rx="0" ry="4.25" fill="url(#radialGradient7464)" opacity=".669"/>
<g transform="matrix(.91298 0 0 .84445 20.288 23.984)">
<path d="m-11.246-7.5079c-2.1685 0-3.9062 1.7424-3.9062 3.9062v70.594c0 2.1638 1.7377 3.9062 3.9062 3.9062h83.188c2.1685 0 3.9062-1.7424 3.9062-3.9062v-70.594c0-2.1638-1.7377-3.9062-3.9062-3.9062z" fill="#ebedee"/>
<rect x="-12.916" y="-6.8257" width="89.088" height="4.352" rx="3.957" ry="3.0577" fill="url(#radialGradient4543)" opacity=".65091"/>
<path d="m-11.246-7.5079c-2.1685 0-3.9062 1.7424-3.9062 3.9062v70.594c0 2.1638 1.7377 3.9062 3.9062 3.9062h83.188c2.1685 0 3.9062-1.7424 3.9062-3.9062v-70.594c0-2.1638-1.7377-3.9062-3.9062-3.9062z" fill="url(#linearGradient4388)" opacity=".28"/>
<g transform="matrix(1.0972 0 0 1.1862 93.935 -36.128)">
<path d="m-15.429 60.459-0.44031 9.0648c4.2517 27.551-4.1004 21.043-23.178 20.566z" fill="#e4e4e4" stroke-width=".91381"/>
<path d="m-17.629 64.454-22.247 26.119h1.7798l21.162-25.528 0.19466-0.25331v-0.33775c-0.43925-0.2463-0.88988 0-0.88988 0z" fill="#effcfe" stroke="#fefefe" stroke-width=".18103"/>
<path d="m-40.957 91.613 26-31c-2.3286 2.7764-4.3614 3-11 3h-12v15c0 6.6441 0.04437 9.3702-3 13z" fill="url(#linearGradient5360)"/>
<path d="m-15.833 60.441c-3.5475 1.8899-4.583 2.2243-11.222 2.2243h-12v15c0 6.6441 0.04437 9.3702-3 13 4-5 4.0004-8.3567 4-13v-14h11c5 0 8.263 0.39379 11.222-3.2243z" fill="#fff" fill-opacity=".86614"/>
</g>
<g transform="matrix(1.0061 0 0 1 .094092 0)">
<path d="m-11.527-20.414c-2.1827 0-3.9375 1.7548-3.9375 3.9375v12c0-2.1827 1.7548-3.9375 3.9375-3.9375h83.75c2.1827 0 3.9375 1.7548 3.9375 3.9375v-12c0-2.1827-1.7548-3.9375-3.9375-3.9375z" opacity="0"/>
<path d="m-11.23-20.105c-2.1685 0-3.9259 1.7614-3.9259 3.9349v3.9658c0-2.1734 1.7574-3.9349 3.9259-3.9349h83.155c2.1685 0 3.9259 1.7614 3.9259 3.9349v-3.9658c0-2.1734-1.7574-3.9349-3.9259-3.9349z" fill="#e4e8e8" stroke="#738589" stroke-width=".99243"/>
<path d="m-11.23-12.175c-2.1685 0-3.9259 1.7614-3.9259 3.9349v3.9658c0-2.1734 1.7574-3.9349 3.9259-3.9349h83.155c2.1685 0 3.9259 1.7614 3.9259 3.9349v-3.9658c0-2.1734-1.7574-3.9349-3.9259-3.9349z" fill="#e4e8e8" stroke="#738589" stroke-width=".99243"/>
<path d="m-11.23-16.14c-2.1685 0-3.9259 1.7614-3.9259 3.9349v3.9658c0-2.1734 1.7574-3.9349 3.9259-3.9349h83.155c2.1685 0 3.9259 1.7614 3.9259 3.9349v-3.9658c0-2.1734-1.7574-3.9349-3.9259-3.9349z" fill="#e4e8e8" stroke="#738589" stroke-width=".99243"/>
<path d="m-11.214-19.914c-2.1863 0-3.9383 1.7424-3.9383 3.9062v13c0-2.1638 2.1044-4.7846 4.2907-4.7801l83.694 0.17476c2.1863 0.00457 3.7621 2.4415 3.7621 4.6053v-13c0-2.1638-1.752-3.9062-3.9383-3.9062z" fill="url(#linearGradient4369)" opacity=".25818"/>
</g>
<g transform="matrix(.85697 0 0 .92652 -8.8752 -6.0116)">
<path transform="translate(14.38 121.63)" d="m27.318-83.967c0.22661 0.25599 0.82817 0.82431 1.8047 1.7049 13.708 13.652 20.297 21.295 19.767 22.931-0.38109 1.2033-1.4796 2.2237-3.2954 3.0611-1.8129 0.78871-3.4461 1.1464-4.8997 1.0729-1.1509-0.05808-6.6153-5.8112-16.393-17.259-1.973-2.398-3.1318-3.7525-3.4764-4.0633-1.4326 1.4926-3.5741 4.5631-6.4244 9.2116-2.7867 4.6028-4.7219 8.2462-5.8055 10.93 1.8952-1.1268 3.4486-1.6597 4.66-1.5985 0.60566 0.03056 1.0078 0.39324 1.2063 1.0879 0.26216 0.64899 0.27738 1.3588 0.04565 2.1296-0.21615 0.52702-1.678 1.5291-4.3857 3.0061-1.9496 1.0263-3.1807 1.7466-3.6934 2.1608-1.5862 1.0447-2.6825 2.5053-3.289 4.3818-0.84453 2.7448-2.993 4.03-6.4454 3.8557-1.8171-0.09181-2.9335-0.68608-3.3493-1.7829-0.41577-1.0969-0.24575-2.7999 0.51007-5.109 1.451-4.6214 8.4292-15.834 20.935-33.639-0.07114-0.786-1.863-3.6395-5.3755-8.5605-3.5126-4.9209-6.3012-8.3382-8.366-10.252-2.2372-2.069-3.1683-3.6565-2.7935-4.7624 0.84448-2.7447 3.5078-4.004 7.99-3.7776 2.1805 0.11019 6.0668 4.4143 11.659 12.912 2.3887 3.495 3.9533 5.6279 4.6938 6.3988 1.2895-1.1574 3.1278-3.2896 5.5147-6.3967 2.39-3.1557 4.0428-5.713 4.9584-7.6718 0.90618-1.8125 2.3356-3.2563 4.2884-4.3314 1.9526-1.075 3.8073-1.5682 5.5638-1.4795 2.7256 0.13771 3.712 1.3368 2.9594 3.5971-0.84457 2.7449-5.7588 8.7807-14.743 18.107-2.3432 2.4246-3.6165 3.803-3.8201 4.135" fill="#0e232e" opacity=".9"/>
<path d="m71.967 0.64966c-0.92804 0.064874-1.8104 0.56778-2.3125 1.4375-9.7618 17.046-24.516 42.588-34.373 59.632l-4.5938 17.438 12.781-12.719c9.8958-17.009 24.496-42.649 34.342-59.632 0.80341-1.3915 0.32905-3.1653-1.0625-3.9688l-3.1562-1.8125c-0.52183-0.30128-1.0682-0.41392-1.625-0.375z" fill="url(#linearGradient4020)" stroke="url(#linearGradient4022)" stroke-linejoin="round"/>
<path d="m34.39 74.946 7.4089-7.3688s0.89321-0.8687 1.384-1.3848c0.35294-0.334-0.6459-1.722-2.4784-0.0843 0.8733-3.2751-2.255-4.1804-3.7564-2.178 0.40179-1.1926-0.0319-2.4883-1.3249-2.0392-0.18203 0.65577-0.27773 1.1139-0.27773 1.1139l-2.8841 10.828 1.9288 1.1136z" fill="url(#linearGradient4024)" fill-rule="evenodd"/>
<path transform="matrix(-.62795 -.36255 .36255 -.62795 105.39 122.71)" d="m118.7 5.9799-4.773 17.899 1.9887-0.83969z" fill="#ac4311" fill-rule="evenodd" filter="url(#filter3382)" opacity=".4"/>
<path d="m43.307 66.25s-0.29369-1.6473-2.596-0.21673c0.64748-4.0219-2.4889-3.1845-3.7398-2.133 0.38283-2.6571-1.4412-2.0357-1.4412-2.0357" fill="none" opacity=".15" stroke="#4d2600" stroke-width="1px"/>
<path transform="matrix(-.70485 -.40694 .48763 -.8446 129.85 140.83)" d="m144.06 8.9375-0.375 12.5 3.0625-0.3125z" fill="#fff" fill-rule="evenodd" filter="url(#filter3390)" opacity=".8"/>
<path d="m71.969 0.65625c-0.92804 0.064874-1.8104 0.56778-2.3125 1.4375-1.6011 2.7959-5.2641 9.4061-7.0902 12.584 2.9115 1.679 5.1141 2.9818 7.9651 4.6238 1.8242-3.1666 5.6702-9.7104 7.2813-12.489 0.80341-1.3915 0.32905-3.1653-1.0625-3.9688l-3.1562-1.8125c-0.52183-0.30128-1.0682-0.41392-1.625-0.375z" fill="url(#linearGradient4026)" stroke="url(#linearGradient4028)" stroke-linejoin="round"/>
<path d="m71.678 16.371c-2.8511-1.642-4.3529-2.5626-7.2644-4.2416-0.44992 0.77986-0.88182 1.5009-1.3125 2.25 2.9263 1.6878 4.4164 2.6143 7.2957 4.2728z" fill="url(#linearGradient4030)"/>
<path d="m71.969 0.65625c-0.92804 0.06488-1.8104 0.56778-2.3125 1.4375-1.6011 2.7959 0.05508 0.16095-1.771 3.339 2.9115 1.679 5.1141 2.9818 7.9651 4.6238 1.8242-3.1666 0.35102-0.46524 1.9621-3.244 0.80341-1.3915 0.32904-3.1653-1.0625-3.9688l-3.1562-1.8125c-0.52183-0.30128-1.0682-0.41392-1.625-0.375z" fill="#fff" opacity=".5"/>
</g>
<rect transform="matrix(1.2146 0 0 1.3114 -18.089 19.372)" x="2" y="-30" width="75.966" height="69.024" rx="3.957" ry="3.957" clip-path="url(#clipPath4156-4-1-2)" fill="url(#linearGradient4767-6)" opacity=".50781"/>
</g>
<path d="m9.974 5.1445c-3.1166 0-5.668 2.5395-5.668 5.646v69.278c0 3.1065 2.5513 5.646 5.668 5.646h76.792c3.1166 0 5.668-2.5395 5.668-5.646v-69.278c0-3.1065-2.5513-5.646-5.668-5.646zm0 2.3194h76.792c1.8881 0 3.352 1.4801 3.352 3.3266v69.278c0 1.8465-1.4639 3.3266-3.352 3.3266h-76.792c-1.8881 0-3.352-1.4801-3.352-3.3266v-69.278c0-1.8465 1.4639-3.3266 3.352-3.3266z" color="#000000" fill="#241f1f" fill-opacity=".63265" style="text-decoration-line:none;text-indent:0;text-transform:none"/>
</g>
</g>
</svg>
