<?xml version="1.0" encoding="UTF-8"?>
<!-- Created with Inkscape (http://www.inkscape.org/) -->
<svg version="1.1" viewBox="0 0 96 96" xmlns="http://www.w3.org/2000/svg" xmlns:cc="http://creativecommons.org/ns#" xmlns:dc="http://purl.org/dc/elements/1.1/" xmlns:rdf="http://www.w3.org/1999/02/22-rdf-syntax-ns#" xmlns:xlink="http://www.w3.org/1999/xlink">
<title>Lila-HD-Icon-Theme</title>
<script xlink:href=""/>
<defs>
<linearGradient id="linearGradient15935-06" x1="6" x2="90" y1="47" y2="47" gradientTransform="matrix(1.1393 0 0 1.1393 -6.6857 -37.546)" gradientUnits="userSpaceOnUse">
<stop stop-color="#b7b7b7" offset="0"/>
<stop stop-color="#fff" offset=".25"/>
<stop stop-color="#9d9d9d" offset=".5"/>
<stop stop-color="#fafafa" offset=".75"/>
<stop stop-color="#b7b7b7" offset="1"/>
</linearGradient>
<radialGradient id="radialGradient15937" cx="158" cy="6.2132" r="41" gradientTransform="matrix(0 1.8467 -2.3222 0 62.428 -313.86)" gradientUnits="userSpaceOnUse">
<stop stop-color="#fff" offset="0"/>
<stop stop-color="#fff" stop-opacity="0" offset="1"/>
</radialGradient>
<radialGradient id="radialGradient15939" cx="48" cy="-27" r="42" gradientTransform="matrix(-1.2215 0 0 -.9969 106.63 -58.766)" gradientUnits="userSpaceOnUse">
<stop stop-color="#fff" offset="0"/>
<stop stop-color="#fff" offset=".8"/>
<stop stop-color="#fff" stop-opacity="0" offset="1"/>
</radialGradient>
<linearGradient id="linearGradient15941" x1="-94" x2="-10.188" y1="82.984" y2="82.984" gradientTransform="matrix(1.1393 0 0 1.0129 107.24 -26.788)" gradientUnits="userSpaceOnUse">
<stop offset="0"/>
<stop stop-opacity=".58824" offset=".1"/>
<stop stop-opacity=".58824" offset=".9"/>
<stop offset="1"/>
</linearGradient>
<radialGradient id="radialGradient7331" cx="9.0031" cy="47.585" r="45.212" gradientTransform="matrix(1.5259 .73911 -.8209 1.6947 33.74 -43.259)" gradientUnits="userSpaceOnUse">
<stop stop-color="#1d5e96" offset="0"/>
<stop stop-color="#4a90cc" offset="1"/>
</radialGradient>
<linearGradient id="linearGradient15945" x1="6" x2="90" y1="47" y2="47" gradientTransform="matrix(1.1393 0 0 1.1393 -6.6857 -37.546)" gradientUnits="userSpaceOnUse">
<stop stop-color="#fff" stop-opacity="0" offset="0"/>
<stop stop-color="#fff" stop-opacity=".85135" offset=".036815"/>
<stop stop-color="#fff" stop-opacity="0" offset=".065061"/>
<stop stop-color="#fff" stop-opacity="0" offset=".94494"/>
<stop stop-color="#fff" stop-opacity=".85135" offset=".96582"/>
<stop stop-color="#fff" stop-opacity="0" offset="1"/>
</linearGradient>
<linearGradient id="linearGradient7440" x1="2.4652" x2="59.378" y1=".27862" y2=".27862" gradientTransform="matrix(1.0034 0 0 1.005 33.489 9.4732)" gradientUnits="userSpaceOnUse">
<stop stop-color="#fff" offset="0"/>
<stop stop-color="#fff" stop-opacity="0" offset="1"/>
</linearGradient>
</defs>
<metadata>
<rdf:RDF>
<cc:Work rdf:about="">
<dc:format>image/svg+xml</dc:format>
<dc:type rdf:resource="http://purl.org/dc/dcmitype/StillImage"/>
<dc:title>Lila-HD-Icon-Theme</dc:title>
<dc:date>2015-2019</dc:date>
<dc:creator>
<cc:Agent>
<dc:title>Cristian Pozzessere  == ilnanny ==</dc:title>
</cc:Agent>
</dc:creator>
<dc:subject>
<rdf:Bag>
<rdf:li>ilnanny</rdf:li>
<rdf:li>lila_hd</rdf:li>
<rdf:li>lila-hd</rdf:li>
<rdf:li>lila hd icon theme</rdf:li>
<rdf:li>Lila-HD-Icon-Theme lila hd icon lila icon</rdf:li>
</rdf:Bag>
</dc:subject>
<dc:coverage>CC-BY-SA</dc:coverage>
<dc:description>Playing with Inkscape on Gnu/Linux O. S.</dc:description>
<dc:contributor>
<cc:Agent>
<dc:title>In the night, alone like a dog.</dc:title>
</cc:Agent>
</dc:contributor>
</cc:Work>
</rdf:RDF>
</metadata>
<g transform="translate(0,32)">
<path d="m89.014-31.85h-82.029c-3.787 0-6.8357 3.0487-6.8357 6.8357v82.029c0 3.787 3.0487 6.8357 6.8357 6.8357h82.029c3.787 0 6.8357-3.0487 6.8357-6.8357v-82.029c0-3.787-3.0487-6.8357-6.8357-6.8357z" fill="url(#linearGradient15935-06)"/>
<path d="m6.9857-30.711c-3.1755 0-5.6964 2.5209-5.6964 5.6964v75.549c1.2198 1.8556 3.3004 3.0974 5.6964 3.0974h82.029c2.396 0 4.4766-1.2418 5.6964-3.0974v-75.549c0-3.1755-2.5209-5.6964-5.6964-5.6964z" fill="url(#radialGradient15937)" opacity=".2"/>
<path d="m6.9857-31.85c-3.787 0-6.8357 3.0487-6.8357 6.8357v17.089h1.1393v-17.089c0-3.1755 2.5209-5.6964 5.6964-5.6964h82.029c3.1755 0 5.6964 2.5209 5.6964 5.6964v17.089h1.1393v-17.089c0-3.787-3.0487-6.8357-6.8357-6.8357z" fill="url(#radialGradient15939)" opacity=".45"/>
<path d="m0.15 50.682v7.0902c0 3.3669 3.0487 6.0773 6.8357 6.0773h82.029c3.787 0 6.8357-2.7105 6.8357-6.0773v-7.0902c0 3.3669-3.0487 6.0773-6.8357 6.0773h-82.029c-3.787 0-6.8357-2.7105-6.8357-6.0773z" fill="url(#linearGradient15941)" opacity=".46965"/>
<ellipse cx="29.716" cy="52.709" rx="3.4436" ry="3.1329" fill="#1c1c1c" opacity=".71"/>
<ellipse cx="29.716" cy="52.501" rx="2.8653" ry="2.6822" fill="#fff"/>
<ellipse cx="29.716" cy="52.501" rx="1.9422" ry="1.8181" fill="#114751"/>
<ellipse cx="63.833" cy="52.709" rx="3.4436" ry="3.1329" fill="#1c1c1c" opacity=".71"/>
<ellipse cx="63.833" cy="52.501" rx="2.8653" ry="2.6822" fill="#fff"/>
<ellipse cx="63.833" cy="52.501" rx="1.9422" ry="1.8181" fill="#114751"/>
<rect x="40.657" y="51.658" width="12.718" height="3.252" rx="1.1521" ry="1.1538" fill="#0c2f31" fill-opacity=".90455" opacity=".75097" stroke="#fff" stroke-width=".502"/>
<path d="m7.7809 26.132c-1.8851 0-3.6495 0.91815-4.7591 2.2718v15.089c0 2.4045 2.1226 4.3402 4.7591 4.3402h80.905c2.6365 0 4.7591-1.9357 4.7591-4.3402v-15.089c-1.1096-1.3537-2.874-2.2718-4.7591-2.2718zm0 3.2552h80.905c1.3594 0 2.3796 0.93033 2.3796 2.1701v11.936c0 1.2398-1.0201 2.1701-2.3796 2.1701h-80.905c-1.3594 0-2.3796-0.93033-2.3796-2.1701v-11.936c0-1.2398 1.0201-2.1701 2.3796-2.1701z" color="#000000" opacity=".02" style="text-decoration-line:none;text-indent:0;text-transform:none"/>
<path d="m7.7809-28.121h80.905c2.6365 0 4.7591 1.9357 4.7591 4.3402v67.273c0 2.4045-2.1226 4.3402-4.7591 4.3402h-80.905c-2.6365 0-4.7591-1.9357-4.7591-4.3402v-67.273c0-2.4045 2.1226-4.3402 4.7591-4.3402z" color="#000000" fill="url(#radialGradient7331)"/>
<ellipse cx="48" cy="8.6943" rx="33.512" ry="33.269" fill="#fefefe" opacity=".163" style="paint-order:stroke fill markers"/>
<path d="m48-22.207c-18.508 0-33.512 15.004-33.512 33.512 0 18.508 15.004 33.513 33.512 33.513 18.508 0 33.512-15.004 33.512-33.513 0-18.508-15.004-33.512-33.512-33.512zm0 2.7927c14.072 0 25.934 9.4615 29.571 22.37-3.1332 6.4626-7.5915 12.281-13.021 16.983-2.6082 2.2587-5.4559 4.2724-8.6015 5.6901-3.1456 1.4178-6.6056 2.2222-10.05 2.0247-2.5881-0.14843-5.1447-0.86937-7.4111-2.1259 6.0066-3.2548 11.426-7.5943 15.863-12.791 2.912-3.4107 5.4597-7.2869 6.4407-11.663 0.49049-2.1881 0.57361-4.4796 0.1152-6.6746-0.45841-2.195-1.4733-4.2867-3.0091-5.9205-1.5004-1.5961-3.4702-2.7268-5.5819-3.3094-2.1118-0.5826-4.359-0.62771-6.514-0.23389-4.3099 0.78764-8.1579 3.2925-11.244 6.4023-5.44 5.4815-8.803 13.216-8.1861 20.914 0.30845 3.849 1.5983 7.6312 3.8086 10.797 0.49336 0.70669 1.0357 1.3799 1.6163 2.0177-3.2199 1.1269-6.5538 1.929-9.9351 2.3808-2.9031-4.6909-4.58-10.22-4.58-16.142 0-16.966 13.754-30.72 30.72-30.72zm0.19549 6.2068c2.1595 0.0028 4.3336 0.65668 6.0567 1.9584 1.5524 1.1728 2.7027 2.8412 3.3547 4.6743 0.65208 1.8331 0.81942 3.8236 0.59694 5.7565-0.44496 3.8656-2.3951 7.4107-4.7511 10.508-4.1716 5.4833-9.7166 9.872-15.884 12.944-0.63124 0.31446-1.2725 0.61335-1.9165 0.90065-1.3419-1.1743-2.492-2.5671-3.3687-4.1193-1.8319-3.2434-2.436-7.0963-2.0806-10.804 0.35541-3.708 1.6279-7.2817 3.3373-10.591 1.982-3.8374 4.6835-7.4722 8.4654-9.558 1.8909-1.0429 4.0299-1.6716 6.1893-1.6686zm30.249 20.401c0.17998 1.3452 0.27578 2.7178 0.27578 4.1123 0 16.966-13.754 30.72-30.72 30.72-9.5283 0-18.044-4.3376-23.679-11.146 3.4779-0.78992 6.8771-1.9245 10.138-3.3687 1.4258 1.0859 3.0005 1.9765 4.6743 2.6182 4.8203 1.848 10.293 1.5806 15.171-0.10822 4.8784-1.6888 9.2044-4.7201 12.976-8.2455 4.4925-4.1997 8.2803-9.1497 11.164-14.581z" fill-opacity=".058824"/>
<path d="m48-23.077c-18.508 0-33.512 15.004-33.512 33.512 0 18.508 15.004 33.513 33.512 33.513 18.508 0 33.512-15.004 33.512-33.513 0-18.508-15.004-33.512-33.512-33.512zm0 2.7927c14.072 0 25.934 9.4615 29.571 22.37-3.1332 6.4626-7.5915 12.281-13.021 16.983-2.6082 2.2587-5.4559 4.2724-8.6015 5.6901-3.1456 1.4178-6.6056 2.2222-10.05 2.0247-2.5881-0.14843-5.1447-0.86937-7.4111-2.1259 6.0066-3.2548 11.426-7.5943 15.863-12.791 2.912-3.4107 5.4597-7.2869 6.4407-11.663 0.49049-2.1881 0.57361-4.4796 0.1152-6.6746-0.45841-2.195-1.4733-4.2867-3.0091-5.9205-1.5004-1.5961-3.4702-2.7268-5.5819-3.3094-2.1118-0.5826-4.359-0.62771-6.514-0.23389-4.3099 0.78764-8.1579 3.2925-11.244 6.4023-5.44 5.4815-8.803 13.216-8.1861 20.914 0.30845 3.849 1.5983 7.6312 3.8086 10.797 0.49336 0.70669 1.0357 1.3799 1.6163 2.0177-3.2199 1.1269-6.5538 1.929-9.9351 2.3808-2.9031-4.6909-4.58-10.22-4.58-16.142 0-16.966 13.754-30.72 30.72-30.72zm0.19549 6.2068c2.1595 0.0028 4.3336 0.65668 6.0567 1.9584 1.5524 1.1728 2.7027 2.8412 3.3547 4.6743 0.65208 1.8331 0.81942 3.8236 0.59694 5.7565-0.44496 3.8656-2.3951 7.4107-4.7511 10.508-4.1716 5.4833-9.7166 9.872-15.884 12.944-0.63124 0.31446-1.2725 0.61335-1.9165 0.90065-1.3419-1.1743-2.492-2.5671-3.3687-4.1193-1.8319-3.2434-2.436-7.0963-2.0806-10.804 0.35541-3.708 1.6279-7.2817 3.3373-10.591 1.982-3.8374 4.6835-7.4722 8.4654-9.558 1.8909-1.0429 4.0299-1.6716 6.1893-1.6686zm30.249 20.401c0.17998 1.3452 0.27578 2.7178 0.27578 4.1123 0 16.966-13.754 30.72-30.72 30.72-9.5283 0-18.044-4.3376-23.679-11.146 3.4779-0.78992 6.8771-1.9245 10.138-3.3687 1.4258 1.0859 3.0005 1.9765 4.6743 2.6182 4.8203 1.848 10.293 1.5806 15.171-0.10822 4.8784-1.6888 9.2044-4.7201 12.976-8.2455 4.4925-4.1997 8.2803-9.1497 11.164-14.581z" fill-opacity=".11765"/>
<path d="m48-23.948c-18.508 0-33.512 15.004-33.512 33.512 0 18.508 15.004 33.513 33.512 33.513 18.508 0 33.512-15.004 33.512-33.513 0-18.508-15.004-33.512-33.512-33.512zm0 2.7927c14.072 0 25.934 9.4615 29.571 22.37-3.1332 6.4626-7.5915 12.281-13.021 16.983-2.6082 2.2587-5.4559 4.2724-8.6015 5.6901-3.1456 1.4178-6.6056 2.2222-10.05 2.0247-2.5881-0.14843-5.1447-0.86937-7.4111-2.1259 6.0066-3.2548 11.426-7.5943 15.863-12.791 2.912-3.4107 5.4597-7.2869 6.4407-11.663 0.49049-2.1881 0.57361-4.4796 0.1152-6.6746-0.45841-2.195-1.4733-4.2867-3.0091-5.9205-1.5004-1.5961-3.4702-2.7268-5.5819-3.3094-2.1118-0.5826-4.359-0.62771-6.514-0.23389-4.3099 0.78764-8.1579 3.2925-11.244 6.4023-5.44 5.4815-8.803 13.216-8.1861 20.914 0.30845 3.849 1.5983 7.6312 3.8086 10.797 0.49336 0.70669 1.0357 1.3799 1.6163 2.0177-3.2199 1.1269-6.5538 1.929-9.9351 2.3808-2.9031-4.6909-4.58-10.22-4.58-16.142 0-16.966 13.754-30.72 30.72-30.72zm0.19549 6.2068c2.1595 0.0028 4.3336 0.65668 6.0567 1.9584 1.5524 1.1728 2.7027 2.8412 3.3547 4.6743 0.65208 1.8331 0.81942 3.8236 0.59694 5.7565-0.44496 3.8656-2.3951 7.4107-4.7511 10.508-4.1716 5.4833-9.7166 9.872-15.884 12.944-0.63124 0.31446-1.2725 0.61335-1.9165 0.90065-1.3419-1.1743-2.492-2.5671-3.3687-4.1193-1.8319-3.2434-2.436-7.0963-2.0806-10.804 0.35541-3.708 1.6279-7.2817 3.3373-10.591 1.982-3.8374 4.6835-7.4722 8.4654-9.558 1.8909-1.0429 4.0299-1.6716 6.1893-1.6686zm30.249 20.401c0.17998 1.3452 0.27578 2.7178 0.27578 4.1123 0 16.966-13.754 30.72-30.72 30.72-9.5283 0-18.044-4.3376-23.679-11.146 3.4779-0.78992 6.8771-1.9245 10.138-3.3687 1.4258 1.0859 3.0005 1.9765 4.6743 2.6182 4.8203 1.848 10.293 1.5806 15.171-0.10822 4.8784-1.6888 9.2044-4.7201 12.976-8.2455 4.4925-4.1997 8.2803-9.1497 11.164-14.581z" fill-opacity=".23529"/>
<path d="m48-24.818c-18.508 0-33.512 15.004-33.512 33.512 0 18.508 15.004 33.513 33.512 33.513 18.508 0 33.512-15.004 33.512-33.513 0-18.508-15.004-33.512-33.512-33.512zm0 2.7927c14.072 0 25.934 9.4615 29.571 22.37-3.1332 6.4626-7.5915 12.281-13.021 16.983-2.6082 2.2587-5.4559 4.2724-8.6015 5.6901-3.1456 1.4178-6.6056 2.2222-10.05 2.0247-2.5881-0.14843-5.1447-0.86937-7.4111-2.1259 6.0066-3.2548 11.426-7.5943 15.863-12.791 2.912-3.4107 5.4597-7.2869 6.4407-11.663 0.49049-2.1881 0.57361-4.4796 0.1152-6.6746-0.45841-2.195-1.4733-4.2867-3.0091-5.9205-1.5004-1.5961-3.4702-2.7268-5.5819-3.3094-2.1118-0.5826-4.359-0.62771-6.514-0.23389-4.3099 0.78764-8.1579 3.2925-11.244 6.4023-5.44 5.4815-8.803 13.216-8.1861 20.914 0.30845 3.849 1.5983 7.6312 3.8086 10.797 0.49336 0.70669 1.0357 1.3799 1.6163 2.0177-3.2199 1.1269-6.5538 1.929-9.9351 2.3808-2.9031-4.6909-4.58-10.22-4.58-16.142 0-16.966 13.754-30.72 30.72-30.72zm0.19549 6.2068c2.1595 0.0028 4.3336 0.65668 6.0567 1.9584 1.5524 1.1728 2.7027 2.8412 3.3547 4.6743 0.65208 1.8331 0.81942 3.8236 0.59694 5.7565-0.44496 3.8656-2.3951 7.4107-4.7511 10.508-4.1716 5.4833-9.7166 9.872-15.884 12.944-0.63124 0.31446-1.2725 0.61335-1.9165 0.90065-1.3419-1.1743-2.492-2.5671-3.3687-4.1193-1.8319-3.2434-2.436-7.0963-2.0806-10.804 0.35541-3.708 1.6279-7.2817 3.3373-10.591 1.982-3.8374 4.6835-7.4722 8.4654-9.558 1.8909-1.0429 4.0299-1.6716 6.1893-1.6686zm30.249 20.401c0.17998 1.3452 0.27578 2.7178 0.27578 4.1123 0 16.966-13.754 30.72-30.72 30.72-9.5283 0-18.044-4.3376-23.679-11.146 3.4779-0.78992 6.8771-1.9245 10.138-3.3687 1.4258 1.0859 3.0005 1.9765 4.6743 2.6182 4.8203 1.848 10.293 1.5806 15.171-0.10822 4.8784-1.6888 9.2044-4.7201 12.976-8.2455 4.4925-4.1997 8.2803-9.1497 11.164-14.581z" fill="#fff"/>
<path d="m48-23.765c-16.966 0-30.721 13.751-30.721 30.717 0 0.34155 0.02718 0.67696 0.03825 1.0158 0.39-16.627 13.962-29.994 30.683-29.994 13.678 0 25.246 8.9513 29.225 21.307 0.11383-0.22641 0.23796-0.44776 0.34852-0.67579-3.6378-12.908-15.502-22.369-29.573-22.369zm0.1955 6.2054c-2.1595-0.0028-4.2974 0.6274-6.1884 1.6704-3.7819 2.0859-6.4846 5.7172-8.4665 9.5546-1.7094 3.3096-2.9811 6.8837-3.3365 10.592-0.10095 1.0532-0.10252 2.1157-0.0425 3.1749 0.01349-0.47793-3e-3 -0.95758 0.0425-1.4323 0.35541-3.708 1.6271-7.282 3.3365-10.592 1.982-3.8374 4.6846-7.473 8.4665-9.5588 1.891-1.043 4.0289-1.669 6.1884-1.6661 2.1595 0.0022 4.3336 0.65342 6.0566 1.9551 1.5524 1.1728 2.7014 2.8422 3.3535 4.6753 0.37213 1.0461 0.57201 2.147 0.64604 3.2557 0.10358-1.6906-0.07906-3.4002-0.64604-4.9941-0.65208-1.833-1.8011-3.5025-3.3535-4.6753-1.723-1.3017-3.8971-1.9572-6.0566-1.9594zm12.972 11.471c-0.05192 0.94414-0.1715 1.8871-0.37827 2.8094-0.98096 4.3761-3.5272 8.252-6.4392 11.663-4.4364 5.1963-9.8554 9.5385-15.862 12.793 0.5361 0.29723 1.0925 0.55375 1.6576 0.79055 5.3443-3.133 10.182-7.1293 14.204-11.841 2.912-3.4107 5.4582-7.2866 6.4392-11.663 0.33403-1.4901 0.4645-3.0292 0.37827-4.552zm17.277 8.9298c-2.8836 5.4317-6.6729 10.383-11.165 14.583-3.7712 3.5254-8.0977 6.5567-12.976 8.2455-4.8784 1.6888-10.349 1.9543-15.169 0.10626-1.6738-0.6417-3.2495-1.5323-4.6753-2.6182-3.2604 1.4442-6.659 2.5805-10.137 3.3705 0.40853 0.49365 0.86248 0.94413 1.3006 1.4111 3.0237-0.76599 5.9847-1.7758 8.8363-3.0389 1.4258 1.0859 3.0015 1.9765 4.6753 2.6182 4.8203 1.848 10.291 1.5783 15.169-0.1105 4.8784-1.6888 9.2048-4.7201 12.976-8.2455 4.4926-4.1997 8.2819-9.1509 11.165-14.583 0.13496 1.0089 0.20262 2.0398 0.23801 3.0772 0.0054-0.23693 0.03826-0.46732 0.03826-0.70554 0-1.3945-0.09629-2.7648-0.27627-4.11zm-52.096 3.6807c-0.05743 1.0366-0.06217 2.0788 0.02133 3.1197 0.30847 3.849 1.598 7.6295 3.8082 10.796 0.15466 0.22154 0.34182 0.4184 0.50578 0.63329 0.36941-0.11982 0.74277-0.22874 1.1093-0.35702-0.58053-0.63785-1.1217-1.3122-1.6151-2.0189-2.2103-3.1661-3.4998-6.9467-3.8082-10.796-0.0368-0.45915-0.0124-0.91816-0.02133-1.3771zm-11.82 1.3006c-0.0075 0.29237-0.0425 0.57712-0.0425 0.87131 0 18.508 15.005 33.513 33.513 33.513s33.513-15.005 33.513-33.513c0-0.29419-0.03497-0.57894-0.0425-0.87131-0.46597 18.102-15.256 32.642-33.471 32.642s-33.005-14.54-33.471-32.642z" fill="#3787df" fill-opacity=".31373"/>
<path d="m8.7251-27.32h79.017c2.575 0 4.648 1.8912 4.648 4.2405v65.727c0 2.3492-2.073 4.2405-4.648 4.2405h-79.017c-2.575 0-4.648-1.8912-4.648-4.2405v-65.727c0-2.3492 2.073-4.2405 4.648-4.2405z" color="#000000" fill="none" stroke="#000" stroke-opacity=".7758" stroke-width="2.2904"/>
<path d="m89.014-31.85h-82.029c-3.787 0-6.8357 3.0487-6.8357 6.8357v82.029c0 3.787 3.0487 6.8357 6.8357 6.8357h82.029c3.787 0 6.8357-3.0487 6.8357-6.8357v-82.029c0-3.787-3.0487-6.8357-6.8357-6.8357z" fill="url(#linearGradient15945)" opacity=".72794"/>
<path d="m35.963-28.224c8.3294 26.184 16.985 51.751 25.766 75.954h26.584c2.6365 0 4.7591-1.9357 4.7591-4.3402v-67.273c0-2.4045-2.1225-4.3402-4.7591-4.3402z" color="#000000" fill="url(#linearGradient7440)" opacity=".30882"/>
</g>
</svg>
