<?xml version="1.0" encoding="UTF-8"?>
<!-- Created with Inkscape (http://www.inkscape.org/) -->
<svg width="96px" height="96px" version="1.1" viewBox="0 0 64 64" xmlns="http://www.w3.org/2000/svg" xmlns:cc="http://creativecommons.org/ns#" xmlns:dc="http://purl.org/dc/elements/1.1/" xmlns:rdf="http://www.w3.org/1999/02/22-rdf-syntax-ns#" xmlns:xlink="http://www.w3.org/1999/xlink">
<defs>
<linearGradient id="linearGradient3737">
<stop stop-color="#fff" offset="0"/>
<stop stop-color="#fff" stop-opacity="0" offset="1"/>
</linearGradient>
<linearGradient id="linearGradient3891" x1="6.25" x2="89.75" y1="80.625" y2="80.625" gradientTransform="matrix(1.115 0 0 1.1151 6.5966 1043.4)" gradientUnits="userSpaceOnUse">
<stop stop-color="#fff" stop-opacity="0" offset="0"/>
<stop stop-color="#fff" offset=".15"/>
<stop stop-color="#fff" offset=".85"/>
<stop stop-color="#fff" stop-opacity="0" offset="1"/>
</linearGradient>
<linearGradient id="linearGradient3893" x1="1.1209" x2="95.496" y1="84.063" y2="84.063" gradientTransform="matrix(.99266 0 0 .9812 12.165 1055.3)" gradientUnits="userSpaceOnUse">
<stop stop-color="#fff" stop-opacity=".031373" offset="0"/>
<stop stop-color="#fff" offset=".05"/>
<stop stop-color="#fff" stop-opacity=".023529" offset=".1"/>
<stop stop-color="#fff" stop-opacity=".28058" offset=".5"/>
<stop stop-color="#fefefe" stop-opacity=".015686" offset=".9"/>
<stop stop-color="#fff" offset=".95"/>
<stop stop-color="#fdfdfd" stop-opacity="0" offset="1"/>
</linearGradient>
<linearGradient id="linearGradient3391" x1="44.726" x2="22.635" y1="59.746" y2="34.832" gradientTransform="matrix(.99266 0 0 .9812 11.828 1054.9)" gradientUnits="userSpaceOnUse" xlink:href="#linearGradient3737"/>
<linearGradient id="linearGradient3889" x1="6.076" x2="89.924" y1="47.473" y2="47.473" gradientTransform="matrix(1.115 0 0 1.0365 -5.522 2.796)" gradientUnits="userSpaceOnUse">
<stop stop-color="#d8d8d8" stop-opacity="0" offset="0"/>
<stop stop-color="#fff" offset=".05"/>
<stop stop-color="#d8d8d8" stop-opacity="0" offset=".1"/>
<stop stop-color="#d8d8d8" stop-opacity="0" offset=".5"/>
<stop stop-color="#d8d8d8" stop-opacity="0" offset=".9"/>
<stop stop-color="#fff" offset=".95"/>
<stop stop-color="#d8d8d8" stop-opacity="0" offset="1"/>
</linearGradient>
<radialGradient id="radialGradient3885" cx="44.659" cy="-187.51" r="36.916" gradientTransform="matrix(1.6991 .0043381 -9.9579e-5 .013731 -31.242 -184.99)" gradientUnits="userSpaceOnUse" xlink:href="#linearGradient3737"/>
</defs>
<metadata>
<rdf:RDF>
<cc:Work rdf:about="">
<dc:format>image/svg+xml</dc:format>
<dc:type rdf:resource="http://purl.org/dc/dcmitype/StillImage"/>
<dc:title/>
<cc:license rdf:resource="http://creativecommons.org/licenses/by-sa/4.0/"/>
<dc:date>2017</dc:date>
<dc:creator>
<cc:Agent>
<dc:title>Cristian Pozzessere "ilnanny"</dc:title>
</cc:Agent>
</dc:creator>
<dc:subject>
<rdf:Bag>
<rdf:li>Global language</rdf:li>
</rdf:Bag>
</dc:subject>
<dc:description>Playing with Inkscape on Gnu/Linux O. S.</dc:description>
<dc:contributor>
<cc:Agent>
<dc:title>In the night, alone like a dog.</dc:title>
</cc:Agent>
</dc:contributor>
</cc:Work>
<cc:License rdf:about="http://creativecommons.org/licenses/by-sa/4.0/">
<cc:permits rdf:resource="http://creativecommons.org/ns#Reproduction"/>
<cc:permits rdf:resource="http://creativecommons.org/ns#Distribution"/>
<cc:requires rdf:resource="http://creativecommons.org/ns#Notice"/>
<cc:requires rdf:resource="http://creativecommons.org/ns#Attribution"/>
<cc:permits rdf:resource="http://creativecommons.org/ns#DerivativeWorks"/>
<cc:requires rdf:resource="http://creativecommons.org/ns#ShareAlike"/>
</cc:License>
</rdf:RDF>
</metadata>
<g transform="matrix(.98438 0 0 .96296 -3.1992 -18.562)">
<g transform="matrix(.99515 0 0 1 .64472 -1.0385)">
<g transform="matrix(.61166 0 0 .62222 -69.35 -604.46)">
<g transform="translate(21.917 -6.7438)">
<g transform="translate(-.14896 1026.1)"></g>
</g>
</g>
<g transform="matrix(.63929 0 0 .65033 -1.4606 60.579)">
<g transform="matrix(1.0646 0 0 1.0646 6.3798 -1154.7)">
<g transform="translate(-12.119 -22.917)">
<path d="m101.26 1049.4h-82.286c-3.7989 0-6.8571 3.0583-6.8571 6.8571v82.286c0 3.7988 3.0583 6.8571 6.8571 6.8571h82.286c3.7989 0 6.8571-3.0583 6.8571-6.8571v-82.286c0-3.7988-3.0583-6.8571-6.8571-6.8571z" enable-background="new" opacity=".15"/>
<path d="m100.83 1049.9h-81.429c-3.7593 0-6.7857 3.0264-6.7857 6.7857v81.429c0 3.7593 3.0264 6.7857 6.7857 6.7857h81.429c3.7593 0 6.7857-3.0264 6.7857-6.7857v-81.429c0-3.7593-3.0264-6.7857-6.7857-6.7857z" enable-background="new" opacity=".25"/>
</g>
</g>
<g transform="matrix(1.0646 0 0 1.0646 6.3798 -61.914)">
<path d="m88.142 1.1657h-80.283c-3.7064 0-6.6903 2.984-6.6903 6.6906v80.287c0 3.7066 2.9839 6.6906 6.6903 6.6906h80.283c3.7064 0 6.6903-2.984 6.6903-6.6906v-80.287c0-3.7066-2.9839-6.6906-6.6903-6.6906z" enable-background="new" fill="#dec993" stroke="#6d6d6d" stroke-width=".33452"/>
<g transform="matrix(0 -1.0859 1.115 0 -.94838 206.75)" enable-background="new">
<path d="m117.22 6.0979c-3.921 0-7.125 3.204-7.125 7.125v60.562c0 3.921 3.204 7.125 7.125 7.125h61.562c3.921 0 7.125-3.204 7.125-7.125v-60.562c0-3.921-3.204-7.125-7.125-7.125z" color="#000000" enable-background="accumulate" opacity=".13718" style="text-decoration-line:none;text-indent:0;text-transform:none"/>
<path d="m117.22 6.8133c-3.3794 0-6.125 2.7457-6.125 6.125v61.562c0 3.3793 2.7456 6.125 6.125 6.125h61.562c3.3794 0 6.125-2.7457 6.125-6.125v-61.562c0-3.3793-2.7456-6.125-6.125-6.125z" color="#000000" enable-background="accumulate" opacity=".24549" style="text-decoration-line:none;text-indent:0;text-transform:none"/>
<path d="m183.7 12.925c0-2.8428-2.242-5.1189-5.0262-5.1189h-30.722c2.7842 0 5.0262 2.2761 5.0262 5.1189v61.594c0 2.8428-2.242 5.1189-5.0262 5.1189h30.722c2.7842 0 5.0262-2.2761 5.0262-5.1189z" fill="#fdffeb" stroke="#b4b4b4" stroke-width=".4374"/>
<path d="m115.71 79.154v1c0.26183 2.5937 2.46 4.5938 5.125 4.5938h61.562c2.665 0 4.8632-2.0001 5.125-4.5938v-1c-0.26183 2.5937-2.46 4.5938-5.125 4.5938h-61.562c-2.665 0-4.8632-2.0001-5.125-4.5938z" fill="#fff" opacity=".4"/>
<path d="m116.69 7.8133c-2.5937 0.26183-4.5938 2.46-4.5938 5.125v0.46875c0.26183-2.5937 2.46-4.5938 5.125-4.5938h61.562c2.665 0 4.8632 2.0001 5.125 4.5938v-0.46875c0-2.8426-2.2824-5.125-5.125-5.125h-61.562c-0.17767 0-0.35834-0.017455-0.53125 0z" fill="#fff" opacity=".5"/>
<path d="m115.71 8.6425v-1c0.26183-2.5937 2.46-4.5938 5.125-4.5938h61.562c2.665 0 4.8632 2.0001 5.125 4.5938v1c-0.26183-2.5937-2.46-4.5938-5.125-4.5938h-61.562c-2.665 0-4.8632 2.0001-5.125 4.5938z" fill="#fff" opacity=".4"/>
<rect transform="rotate(90)" x="7.7431" y="-187.83" width="73.831" height=".90709" fill="url(#radialGradient3885)" opacity=".42599"/>
<path d="m183.73 12.934c0-2.8428-2.242-5.1189-5.0262-5.1189h-5.4216c2.7842 0 5.0262 2.2761 5.0262 5.1189v61.594c0 2.8428-2.242 5.1189-5.0262 5.1189h5.4216c2.7842 0 5.0262-2.2761 5.0262-5.1189z" fill="#e9ffdb" stroke="#b4b4b4" stroke-width=".4374"/>
<path d="m180.05 12.896c0-2.842-2.242-5.1174-5.0262-5.1174h-5.4216c2.7842 0 5.0262 2.2755 5.0262 5.1174v61.576c0 2.842-2.242 5.1174-5.0262 5.1174h5.4216c2.7842 0 5.0262-2.2755 5.0262-5.1174z" fill="#ffecfe" stroke="#b4b4b4" stroke-width=".43734"/>
<path d="m127.62 73.032v1.4688c0 2.8426 1.789 5.125 4.0171 5.125h48.254c2.2282 0 4.0171-2.2824 4.0171-5.125v-1.4688c-0.20523 2.5937-1.9282 4.5938-4.0171 4.5938h-48.254c-2.0889 0-3.8119-2.0001-4.0171-4.5938z" opacity=".138"/>
<path d="m112.09 13.748v-1.4688c0-2.8426 2.2824-5.125 5.125-5.125h61.562c2.8426 0 5.125 2.2824 5.125 5.125v1.4688c-0.26183-2.5937-2.46-4.5938-5.125-4.5938h-61.562c-2.665 0-4.8632 2.0001-5.125 4.5938z" opacity=".169"/>
</g>
<path d="m1.411 83.85c0 2.6997 3.0408 4.8731 6.8179 4.8731h79.542c3.7771 0 6.8179-2.1734 6.8179-4.8731v-50.355c0-2.6997-3.0408-4.8731-6.8179-4.8731h-43.393l-4.6873-5.5838c-1.1519-1.5193-3.4044-2.5381-6.0012-2.5381h-25.461c-3.7771 0-6.8179 2.1734-6.8179 4.8731z" enable-background="new" fill="#dec993" stroke="#6d6d6d" stroke-width=".29432"/>
</g>
<g transform="matrix(1.0646 0 0 1.0646 6.3798 -61.914)">
<g transform="matrix(1 0 0 .93315 0 6.3272)">
<g transform="translate(-11.94 -1049.6)">
<path d="m13.566 1129v2.2302c0 3.4905 3.0556 6.2725 6.8296 6.2725h79.447c3.774 0 6.8296-2.782 6.8296-6.2725v-2.2302c0 3.4905-3.0556 6.2724-6.8296 6.2724h-79.447c-3.774 0-6.8296-2.7819-6.8296-6.2724z" enable-background="new" fill="url(#linearGradient3891)" opacity=".83103"/>
<path d="m18.476 1132.6h83.286" enable-background="new" fill="none" opacity=".375" stroke="#000" stroke-width="1.7273px"/>
<path d="m18.476 1131.8h83.286" enable-background="new" fill="none" opacity=".435" stroke="#fff" stroke-width="1.7273px"/>
<path d="m18.476 1128.5h83.286" enable-background="new" fill="none" opacity=".375" stroke="#000" stroke-width="1.7273px"/>
<path d="m18.476 1127.7h83.286" enable-background="new" fill="none" opacity=".435" stroke="#fff" stroke-width="1.7273px"/>
<path d="m13.277 1131.4v6.2378c0 3.6782 2.9941 6.6333 6.7005 6.6333h80.281c3.7064 0 6.7004-2.9551 6.7004-6.6333v-6.2378c0 3.6782-2.994 6.6637-6.7004 6.6637h-80.281c-3.7064 0-6.7005-2.9855-6.7005-6.6637z" enable-background="new" opacity=".3"/>
<path d="m13.277 1131.4v6.2378c0 3.6782 2.9941 6.6333 6.7005 6.6333h80.281c3.7064 0 6.7004-2.9551 6.7004-6.6333v-6.2378c0 3.6782-2.994 6.6637-6.7004 6.6637h-80.281c-3.7064 0-6.7005-2.9855-6.7005-6.6637z" enable-background="new" fill="url(#linearGradient3893)" opacity=".95052"/>
<path d="m13.193 1132.3c0 2.895 3.0408 5.2256 6.8179 5.2256 49.601-40.026 39.172-32.106 79.542-64.449h-43.393l-4.6873-5.9877c-1.1519-1.6292-3.4044-2.7216-6.0012-2.7216h-25.461c-3.7771 0-6.8179 2.3306-6.8179 5.2256z" enable-background="new" fill="url(#linearGradient3391)" opacity=".332"/>
</g>
<path d="m1.411 83.354c0 2.895 3.0408 5.2256 6.8179 5.2256h79.542c3.7771 0 6.8179-2.3306 6.8179-5.2256v-53.998c0-2.895-3.0408-5.2257-6.8179-5.2257h-43.393l-4.6873-5.9876c-1.1519-1.6292-3.4044-2.7217-6.0012-2.7217h-25.461c-3.7771 0-6.8179 2.3306-6.8179 5.2256z" enable-background="new" fill="url(#linearGradient3889)" opacity=".381"/>
</g>
</g>
<g transform="translate(-1.3271 -6.4961)">
<g transform="translate(-.08361)">
<path d="m47.636-5.2533c-0.30567-0.015855-0.82459-0.025996-0.88997-0.57982-0.03286-0.27837 1.1092-1.3038 0.82255-1.7125-0.07143-0.10181-0.27904-0.21187-0.76861-0.35059-0.58442-0.12898-1.6309-0.044705-3.4385 0.60679-0.08137 0.029328 0.02429-0.00987-0.04042 0.01348-0.07012 0.024762-0.03417 0.010041-0.08091 0.026976 0.05569-0.018724-0.08145 0.034356-0.32363 0.12136-0.01966 0.00953-0.03371 0.017706-0.32362 0.10788-0.39691-1.4282 0.67317-4.0634 1.5777-4.1532 0.36818-0.03652 0.77986 0.47686 1.308 0.18878 0.95134-0.51893 1.0487-1.3126 0.91694-2.2923-0.10029-0.74565-0.871-0.04056-1.3889 0.16181-0.5626 0.21983-0.57416 0.35171-0.72817 0.20226-0.46899-0.45513-0.20898-1.4855 1.6316-3.5194 0.64611-0.71398 0.93699-1.7304 0.97088-2.0766 0.03903-0.39856-1.2456 0.71835-1.3754 0.44498-0.09045-0.19043 1.0301-1.2801 1.6047-1.5777 0.2666-0.13806 0.26817 0.15652 0.45847 0.13484 0.24811-0.02826 1.801-1.4454 1.699-1.6721-0.06671-0.14837-1.1882 0.49897-1.2406 0.33711-0.02831-0.08748 1.1597-0.6877 1.1597-0.6877 0 0-0.0062-0.03032 0-0.05394-0.46745 0.16761-6.6142 2.1312-11.448 9.3716-7.7357 11.586-4.537 27.217 7.1333 34.897 11.67 7.6802 27.418 4.5072 35.154-7.0793 3.8679-5.7932 5.0083-12.609 3.7217-18.932-1.2866-6.3227-5.3836-11.999-6.904-12.729 0.30382 0.29713 0.50385 0.48458 0.41802 0.59331-0.04982 0.06312-0.42142 0.13421-0.76861-0.24272-0.3472-0.37692-1.9748-1.6397-2.171-1.9283s-0.15892-0.3866-0.05399-0.40453c0.10498-0.01792 0.2788 0.04206 0.3506 0.08091 0.07181 0.03885-1.5891-1.2894-1.699-1.3619-0.10991-0.07252-0.4136-0.19583-0.47196-0.1753-0.10201 0.03589 0.26466 0.28874 0.20227 0.35059-0.05715 0.05662-0.22784 0.02472-0.36408-0.09439-0.0681-0.05955-1.8836-1.3804-2.9936-1.8069-0.65704 0.09876-1.0762 0.16172-1.1462 0.29666-0.10011 0.19289 1.48 0.82867 1.5642 0.98436 0.08831 0.16331-0.24893 0.40198-0.56635 0.44498-0.99318 0.13455-1.378-0.34764-1.4968-0.62028-0.41739-0.95799-2.2107-0.60617-3.7891 0.41801-0.68143 0.44216-3.3459 0.43746-3.3711 0.09439-0.04836-0.65897 0.19628-1.0933-1.4159-0.82254-1.1335 0.19038-1.4367 0.5925-1.335 0.67422 0.18911 0.15195 0.96305 0.42428 1.0248 0.67422 0.04204 0.16994-0.97108 1.1221-3.7622 0.93042-0.27754 1.4818-0.26582 1.8099 0.0135 2.2654 0.2793 0.45546 0.72747 0.63125 0.98437 0.56634 0.59243-0.14969 1.1783-0.8542 1.6181-0.863 0.76943-0.01581 1.2914 0.7246 1.2541 1.726 0.0031-0.0015 0.0097 0.0015 0.0135 0-6.87e-4 0.03518-0.0108 0.06176-0.0135 0.09439-0.0015 0.01374 0.0015 0.02716 0 0.04045-0.12292 1.1071-1.3959 0.69495-2.2519 0.48544-1.0894-0.26665-1.0971 3.3852-0.06742 4.0857-2.0139-0.21394-4.5629 0.74403-5.9062 1.3349-1.1081 0.48745 1.0474 1.5116 0.67422 1.8608-0.43788 0.40977-1.3494 0.79969-2.0496 0.97087-0.3944 0.096413-1.3378 0.16357-1.6316 0.14833z" fill="#fbfeff" opacity=".914" stroke="#000" stroke-opacity=".11832" stroke-width="1.9417"/>
<path d="m49.235-21.734c-9.2638 3.7785-15.778 12.724-15.778 23.29 0 13.958 11.393 25.283 25.432 25.283 14.039 0 25.432-11.325 25.432-25.283 0-6.6238-2.5723-12.642-6.7692-17.152-0.28994 0.29862-0.77475 0.26208-1.4563-0.47195-0.51058-0.54988-2.4598-2.1557-1.5777-1.9283 0.71828 0.18518-1.7281-1.7195-1.9104-1.4905-0.19537 0.24547-0.05453 0.07869-0.19512 0.24746-1.2714-0.82042-2.7485-2.0968-3.6119-1.7235-0.63385 0.2741-0.59441 0.09502-0.5221 0.38336 0.07227 0.28835 0.42605 0.98571 0.95087 1.2558-0.0108 9.82e-4 -0.03826 0.09031-0.78571-0.02386-0.88074-0.13453-0.51196-1.1274-1.545-1.1129-0.59292 0.0083-1.2487-0.0272-1.7119 0.27968-1.476 0.97798-2.5535 0.91103-4.0606 0.96635-1.1515 0.04227-0.0086-0.89995-1.023-1.0473-0.44998-0.06575-1.4193 0.01214-1.8852 0.28584-0.36645 0.21527-0.51454 0.01426-0.28585 1.7333-1.0904 0.48568-2.4937 0.15185-2.7643 0.3946-0.23046 0.20676-0.5098 2.2536 0.25258 3.2839 0.96671 1.3064 1.9224-0.87785 2.8354-0.3443 0.27452 0.16044 0.6766 0.65649 0.56635 0.74164-0.4852 0.37473-0.80509-0.02356-2.0227 0.26969-0.50756 0.12224-2.2382 1.1103-3.6776 1.0373 0.05361-0.07946 0.15174-0.05405 0.25984-0.40986 0.17196-0.56599-0.92509-1.1689-2.5148 0.0096-0.12121 0.08985 0.23495 0.49602 0.40497 0.75204-0.62669 0.16344-1.6674 0.94044-4.0355 0.83662 0.14252-1.0384-0.84352-1.9858-1.0923-1.9638-0.34911 0.03091-0.71364 0.39102-1.1047 0.58136 0.47334-0.85126 0.55413-1.0873 0.83253-1.4078 0.87047-1.0023 1.3743-1.4741 1.7062-2.7596 0.03301-0.1279 0.18524-0.05933-0.39008-0.83899 1.0889-1.001 0.68802-0.30034 1.1506-0.44846 0.46102-0.14765 1.4349-1.4459 1.2417-1.8251-0.25344-0.49744 0.04096-0.5738-0.34423-1.4008z" fill="none"/>
<g transform="matrix(.70195 0 0 .70195 25.055 -7.2496)" fill="#808080">
<path d="m34.246-21.53c-1.242 0.02808-2.2986 2.0336-0.31546 0.90194-0.77484 1.5087-6.1173 3.1686-4.1769 3.9806 2.8281 0.44366-3.6836 6.0403-3.8117 3.3103 3.0566-2.8782-3.0167-0.69659-1.9631-0.14443 0.97489-2.1138 3.6805-1.2923 1.7899 0.86874 2.4852 0.9365 6.8603-4.6299 3.3928-4.2193 1.1341-1.5099 3.851-2.4453 4.5543-3.7146-1.9959 0.47396-0.4417-0.57571 0.35728-0.89057zm-10.708 8.6639c-1.0241 2.0147-2.9193 0.49465-0.6027-0.61656 3.1143-3.2541-1.3243 0.38956-1.1672 1.8837 0.75362-0.06442 1.2367-0.82375 1.7699-1.2671zm10.792-8.6461c-1.3024 0.55525-1.6488 1.1208 0.02364 0.76672-0.4744 1.8418-6.2576 2.9613-4.2711 3.9879 2.4139 1.3807-4.6643 5.2204-2.407 7.4213 2.6981-2.0073 3.7927-5.3087 4.8446-7.989 2.1497 0.15474 3.2738-2.6642 1.8099-4.1869zm-0.35544 0.07553c-2.2847 0.68193-6.5751 3.5285-6.8723 4.0548 2.0277-1.7496 4.4351-2.983 6.8723-4.0548zm28.533 0.61758c-2.3898 0.31544 2.3868 2.5555 1.0063 2.511 1.5963-1.1111-3.8167-1.8055-1.0063-2.511zm0.58204 2.7191c-1.3805 1.1172 3.9552 1.0191 2.8821 3.4258 1.6963 2.6191-0.34724-1.523 0.72433-2.0451-1.6411-0.30624-3.3232-1.1546-0.63005-1.2283-0.85816-1.0429-1.9221-0.41148-2.9764-0.15244zm0.3821-2.3726c1.2933 0.81597 4.7387 2.9897 1.6353 0.91406-0.52893-0.33242-1.0738-0.63996-1.6353-0.91406zm-2.1638 0.20882c-1.027 2.5268 4.3087 1.5664 0.7751 0.53254-0.27069-0.16023-0.52566-0.34126-0.7751-0.53254zm-2.1682 0.31546c-1.995-0.34744 1.991 1.3506 2.3427 1.7777 2.8032 0.23186-1.6609-0.70781-1.9383-1.795zm-9.5481 0.26214c-1.9488 0.02681-3.6061 0.92503-0.7231 0.09707 1.4381 0.64515 2.4637 2.5721 4.3284 1.4884-1.941 0.4011-2.9016-0.46523-3.6053-1.5854zm6.4602 0.62203c0.15161 1.456 4.8508 3.8365 1.722 1.7773-0.59228-0.57485-1.1129-1.2191-1.722-1.7773zm-0.25325 0.14218c-0.14638 2.1104 4.3079 4.4925 4.7839 1.8176-1.6938 2.663-3.4793-0.7841-4.7839-1.8176zm-9.3126 0.12885v0.09331zm-0.0089 0.13774c-1.0584 2.897 3.2038 1.0216 0 0zm20.962 0.14662c2.497 1.1275 3.4234 3.6116 4.9293 5.5968-3.4067 1.3827 2.9005 4.0506-1.0108 4.6903 1.8036 0.9624 2.4117-2.3644 1.9964-1.3743-0.68923 3.0189 1.1618-0.9467-1.2272-1.2319-1.1552-2.8983 3.624-1.2989 3.8204 0.75942 1.4072 1.5204-1.6691 1.136 0.0019 2.793 0.56822 2.1919 3.0846 2.0025 2.035 1.2137-1.6177 1.1429-2.2275-3.2819-1.5101-3.434-1.862-2.9383-5.5688-4.8247-6.7206-7.6647-0.70742-0.54969-1.5031-0.97468-2.3144-1.3484zm0.27103 0.26658c-0.25926 0.49408 0.28561 0.14086 0 0zm0.0311 0.23992c-0.32013-0.10062-0.05024 0.19205 0 0zm-0.3199-0.47985c-0.69895 0.6153 0.92761 0.42435 0 0zm0.30212 0.11552c-0.10232 0.73342 0.81691 0.46776 0 0zm-0.63091 0.15551c0.38528 0.19965 0.87714 0.45451 0 0zm-12.52 0.42209c-1.2863 0.42279-1.8646 4.6612-0.46208 1.986 1.0855 2.3973 2.0182 1.7432 0.41774-0.27695-0.28024-0.52993-0.28315-1.1965 0.04434-1.7091zm-4.3986 0.52428c-1.0073 0.63438-1.6722 5.4182-0.61498 2.4126 0.67132-2.9248 3.3607 0.16594 1.5812 1.9414-1.3856 1.353-0.4511 2.8884 0.46301 0.58882 0.9039-2.3721 0.71378-4.5839-1.4292-4.9428zm11.05 0.36877c1.6626-0.15448 3.7829 4.5031 2.2482 1.2618-0.5768-0.65972-1.3831-1.1164-2.2482-1.2618zm-0.1555 0.10664c1.2425 0.21581 3.6266 3.435 0.99524 2.848 3.8458 1.3803 0.79776-3.0439-0.99524-2.848zm-0.19105 0.01777c-1.2792 0.60912 0.01445 1.4122 0 0zm-14.582 0.19105c-1.7327 0.27152-4.9036 0.42484-1.4275 0.34027 0.48704-0.05516 0.96996-0.16224 1.4275-0.34027zm23.726 0.11996c0.0044 0.38677-0.2896-0.11999 0 0zm-27.458 0.41764c-0.14459 1.0832-0.03214 0.24078 0 0zm-16.493 1.3285c-2.235 1.2664-3.9716 3.3446-6.1357 4.5308-0.69464 0.62634-2.0424 3.6715-0.22668 1.8272-0.16606 3.4674-5.7982 4.1905-4.1288 8.2557 2.6232 1.3085 1.8917-5.8557 5.1907-2.7863-3.8405 3.8126 6.2796 3.9772 3.9564-0.63887-0.41184-2.5708 5.149-4.1158 4.4075-3.1429-2.9277-0.73185-5.0627 2.7445-3.9953 5.5236 1.5003-1.4233 1.904-5.8353 5.3795-4.5588 2.8928-2.7754-1.5894-5.705-3.4553-3.5497-0.82145-1.3511 2.4215-4.7521-0.94031-3.2686-1.6065 0.04487 3.8662-0.28573 0.98398 1.3278-2.6374 3.9679 5.3327-0.12912 2.4983 3.7743-2.5454 0.55911-5.1282 1.3475-5.0701 4.6402 0.68097 3.7373-6.8403 3.4231-3.7675-0.1419-1.4112-2.6378-3.6683 1.1847-4.091 2.8831-3.2371-0.68209 0.53308-5.0635 2.2594-5.8855 1.4752-1.3388 0.0926-2.5025 0.15218-2.801 1.4497-2.36 6.3888-4.884 6.9829-5.9893zm0.48873 0.20438c-2.2329 2.3108-1.0607 1.868 0 0zm34.904 0.20882c-2.4116 2.1744 4.8773 6.1136-0.25456 6.3328-1.3675 0.095176-4.2346 0.5464-1.215 0.36711 2.1927 0.47555 6.1949-1.7058 2.5415-3.2683-0.69-0.99427-1.046-2.227-1.072-3.4316zm0.1555 0.35988c-0.96862 1.8568 4.2304 6.0124 1.2725 2.6108-0.531-0.81377-0.90954-1.7132-1.2725-2.6108zm-19.292 0.16883 0.05301 0.2083zm0.05332 0.20882 0.06903 0.15849zm3.6788-0.20438c-1.4561 0.11122-3.368 2.2315-0.90117 0.74367 2.0235 0.13876-3.7887 0.11688-2.5561 0.7093 0.71297 2.1901 5.5001 0.25246 5.3773 0.20691-0.18889-0.94159-1.0508-1.4548-1.9201-1.6599zm27.645 0.11996c-1.7379 1.2372 2.0554 0.86063 0 0zm0.69311 0.55982c-0.94115 1.3678 4.7534 5.9767 1.3493 2.3811-0.54242-0.6593-1.7512-1.3582-1.3493-2.3811zm-1.324 0.33323c-1.7541 1.6982-1.3826 1.772 0 0zm-52.348 0.95081c-0.18074 0.93133-3.7919 5.0059-1.2041 3.8566-1.0427 2.7951-4.1895 3.6479-4.7634 6.8993 0.50716-3.4033 4.087-4.0058 4.635-6.9291-3.1597 1.6535 1.6882-3.0631 1.3325-3.8268zm47.616 0.71088c-1.8137-0.68257-5.2242 2.9684-1.824 0.66844 0.62486-0.42733 4.2551-0.33953 1.824-0.66844zm1.173 0.3821c0.91818 1.2436 1.5294 3.0095 0.85259 0.50674l-0.23862-0.23567zm-0.91971 0.04443c1.6674 0.27266 0.83465 3.7209 3.0524 2.768-2.1163 0.26876-0.77631-3.42-3.0524-2.768zm-0.95081 0.04887c-1.3497 0.14232-6.2654 3.8653-2.8924 1.6573 1.4787 0.71301 2.9986 3.6431 1.0212 1.0222-2.7626-2.0345 3.6186 4.0084-0.0082 3.8207 2.0615 1.6372 1.7501-3.8335 1.6162 0.043017 3.084-2.189-5.3973-5.2278 0.26325-6.5432zm-12.458 0.28435c-2.4605-0.83622-6.3748 2.5608-2.7369 4.0165-1.1633 1.787-5.8604 1.3409-6.0583 1.766 2.6438 0.49013 8.9706-0.94786 4.8861-3.939-0.07416-1.5293 7.24-1.8865 3.9091-1.8435zm-3.6166 5.145c0.89716 0.70237 3.9521-2.4907 0.64771-2.714-1.4276-1.4305 3.461-2.3296-0.31328-1.1979-1.6297 1.3958 4.0467 2.8734-0.33443 3.9119zm5.385-4.8918c0.39948 1.5362 0.34888 3.3873 0.92715 0.75933-0.03667-0.45594-0.49582-0.76896-0.92715-0.75933zm-12.574 0.07997c-2.6016 4.0248 4.1645 7.4476 1.8142 11.249-1.5842 1.4067-5.4747-0.67448-5.7019 2.1421 0.59161-3.5486 8.4584-0.17056 5.9399-5.2517 0.27899-2.0008-4.8591-3.6285-1.3023-1.4702 2.3469 2.5158 0.2028 6.4489-3.043 4.5042-4.4223-0.17835-0.19457 7.2516-0.25625 5.5008-1.373-1.586-1.496-3.1006-0.33041-0.4854 2.4841 1.2991 6.7668-2.9334 7.3109 2.0003 0.76904 3.3521-3.0511 9.0845 2.1393 10.292 1.9558-1.1907 6.0387-3.6491 5.9826 0.64336-0.74204 1.5978-1.0198 3.0733 0.39882 0.93207 1.0691-4.0755-3.9765-5.5403-6.2669-2.4621-1.1163 1.5091 5.9062-3.08 2.2458-0.62194-3.1509 4.037-7.9239-3.9079-3.3128-5.0307 2.766-0.69158 8.6348 0.43067 8.8309-3.4465-2.8965-1.5038-1.541-2.9001 0.98011-3.4665-2.3441-0.27459-4.6756 1.9111-1.8093 3.4208 0.41868 2.9095-5.5488 3.4898-7.9234 3.1977-1.2891-1.924-0.56855-7.0581-4.808-6.2684-2.4961 2.9313-5.993-0.79791-3.5399-3.4507 1.6888-1.076 6.1498 1.6613 5.3315-2.4057-0.41464-1.8983-1.8872-4.3046 1.1236-3.6572 1.5287-0.19558 4.9798-1.2176 1.5797-0.43659-1.7847 0.29266-5.0592 0.5063-1.3042-0.014827-3.7264 1.5766-5.0338-2.5068-4.0788-5.4134zm10.672 26.365c2.2111 2.467-0.44864 5.9043-3.4045 4.3657-4.3721 1.02 0.25402 8.347-5.385 7.1781-2.9517 0.0995-8.1088 1.5325-4.93 4.2804-1.0613 0.69327-7.9995-0.05476-3.7611 0.86796 1.6598 0.71354 6.9324-1.1244 3.2046-2.472 1.7449-3.0343 6.3115-1.9558 9.2786-2.8438 1.5138-1.1242-1.8782-4.9881 1.4771-6.1274 2.1358-1.0966 6.534-0.15676 4.871-3.9653-0.25818-0.58187-0.74566-1.0686-1.3507-1.2837zm-4.4608 2.0527c-4.3906 0.23979-0.61503-6.8101-4.3271-6.3824 2.7524-0.05257-0.75829 6.4708 3.6684 6.3799l0.65875 0.0026zm5.2561-28.418c-1.8137 0.073019-2.3352 0.6273-0.09263 0.19116 1.2211 0.92974 0.29915 4.0173 3.0645 2.6245 2.6836-0.017873 1.7006-0.3758-0.2933-0.030317-2.5617 0.27557-0.51444-3.157-2.6786-2.7854zm-32.985 1.1552c-0.58104 0.49379-1.9642 4.0557-1.6949 1.6746 1.2469-4.0187-3.1115 2.7386-0.96746 0.33067-0.28963-1.5453 2.2544-1.9315 0.51619 0.09576 1.4578 1.9841 1.7393-2.7213 2.1462-2.101zm53.023 0.21771c0.15525 1.7773 2.8407 4.0512 0.6299 1.3337-0.22552-0.43751-0.3802-0.90799-0.6299-1.3337zm-1.2796 0.52872c-2.7605 1.1691 3.2121 1.9832-0.12359 3.3504-1.3623-0.47498-2.2655-0.85184-0.7412 0.50491 2.9048 0.45581 1.8793-3.3532 0.44344-3.2072 0.29824-0.13453 1.2448-0.29603 0.42136-0.64813zm-54.525 1.3951c-0.05166 0.71356-0.91034 0.43832 0 0zm58.301 0.51095c2.1138 1.897 2.2036 4.8249 0.36727 6.7333 0.92539 1.8039 0.46317 4.415-0.67141 4.7109 2.2353-0.59061 2.3202-3.4263 1.7739-1.0513 1.5948-0.81118-0.84614-3.9854 0.0072-1.9328-2.4789-2.8593 2.0571-5.1441 2.0367-1.0191 1.2805 3.6898-0.95051-2.1117-0.72197-3.4236-1.0531-1.1878-1.3892-2.9904-2.7916-4.0173zm-0.0311 0.079974c-0.29853 1.3852 0.30727 0.98534 0 0zm0.71533 0.33323c1.3477 2.1588 0.98031 1.3647 0 0zm-3.5855 1.093c-0.44833 1.552 1.6239-0.22339 0 0zm-14.315 0.45319c-3.1758-0.1221-0.17875 2.9039-2.2464 4.1879-3.143-0.80753 1.8806-4.7187-1.7407-2.9216 1.1721 2.4101-1.1655 0.6372-1.1292 0.33745-4.1769 0.57669 3.0228 1.4884 0.11134 3.6529-2.1947-1.081-2.481-4.434-4.7147-1.9564 2.5891-0.10128 4.8573 5.2754 5.8896 0.775 3.3349 3.6557 1.9043-2.947 3.83-4.0752zm3.6655 0.017771c-4.3951-0.15215 0.02577 6.4293 0.82292 4.8878-1.6284-0.6321-3.1891-4.3005-0.82292-4.8878zm-21.78 0.048875c-2.5329 0.3985-8.0704 0.90469-5.7005 4.413-1.054 2.0325-8.1979 3.0753-6.1164-0.59861 1.1881-3.1227-5.7013-1.3613-6.1205 0.81544 0.95779 2.6698-0.60091 6.0318-3.91 4.4002-1.922 1.8117-0.20036 5.6636 2.1893 3.4951 3.2469 1.3374-0.53047 8.1885 4.43 5.7017 2.8638-1.6456 5.9888 1.6159 4.8996 2.3017 1.9826-4.689-5.4259-1.4829-7.536-2.6536 1.0346-2.9535-1.5791-7.0206-4.2097-5.1047-1.4604-2.6054 1.4822-4.1791 3.3219-3.1614 2.3576-2.1207 0.01196-7.6408 4.7923-7.159 2.8609-0.70042 1.8262 1.9984 1.3013 2.9878 2.3056 2.3757 9.1704 0.11142 6.4002-3.2623 1.6536-1.8349 5.2346-1.7519 7.0434-2.1253l-0.78484-0.049893zm31.501 0.031102c-0.2839 1.6029 1.626-0.22111 0 0zm5.5849 0.097745c0.41993 1.2891 1.0344 2.1224 0 0zm-15.022 0.26658c-0.57948 0.76135 3.0676-0.048998 0 0zm-1.0752 0.079974c-1.6623 1.5919 3.0285 5.5019 0.26209 2.233-0.35254-0.68527 0.46757-1.7271-0.26209-2.233zm-44.692 0.36433c-2.213 0.14341-1.5242 5.7038-4.4119 3.2079 0.02848 1.705-2.2867 7.4242-0.4551 2.913-0.46408-3.3799 3.9444-1.3533 3.6333-4.7669 0.43466-2.3238 3.3636-0.89294 1.2037 0.68214 0.46005 4.0778 7.1407-1.1546 5.4617 3.6324 0.12491 2.6642-2.4955 2.5356-3.8906 2.0293-2.3439 1.6574-0.32143 7.4049 2.4266 4.3206 2.8623 3.1366-0.24674 8.5691-4.3175 5.8852-1.7296-1.2951 0.82778-4.5242-2.6468-4.2607-3.0736-0.20303-0.19375 5.2089-2.9475 2.6056-0.6582-1.7275 0.1735-6.7941-0.73447-6.5152 1.2154 1.6577-1.2425 8.3695 2.5427 7.0487-2.675-3.7493 5.3207-3.5155 2.8468 0.30151 1.9101 3.334 8.4206 1.4091 6.5167-2.8088 0.04872-2.6624-2.438-2.3274-3.6972-1.7729-2.4867-2.4489 1.0828-5.9486 3.1976-4.4589 1.9668-2.4548 0.78998-6.7342-2.7431-4.3548-3.7366 0.22868 0.44394-4.0238-1.9849-3.6882zm61.74 1.5151c0.29973 1.5643 1.5726 4.7355 0.44383 1.3309l-0.21845-0.66661zm-0.39543 0.22215c-1.4267 0.97773-1.8176 4.0324-0.68697 0.96327 0.23471-0.31703 0.46221-0.63913 0.68697-0.96327zm-12.365 0.22215c-1.984-0.032531-2.3498 3.1467-0.71309 0.60168 0.08407-0.27682 1.9648-0.68156 0.71309-0.60168zm1.0574 0.19105c1.1101 1.1731 3.5111 7.5477 2.2815 2.848-0.47227-1.1371-1.2607-2.1527-2.2815-2.848zm-55.005 0.22215c0.9384 2.3749-0.807 4.6291-1.7158 5.6367-0.20173 2.4847 0.45978 6.8793-0.27795 7.2244 1.3262 0.16475 0.1079-4.9055 0.25998-6.7065 0.84038-0.81811 2.9254-4.0575 1.7338-6.1545zm54.245 0.013328c2.583 2.2836 3.5922 7.3953-1.189 7.5828-1.3968 0.28585-4.9691 1.0601-1.5851 0.62919 4.5108 0.62695 7.9314-4.4459 3.8094-7.5547l-0.48951-0.37361zm-0.47541 0.15995c-2.4674 1.271-0.38591 1.7808 0 0zm-25.681 2.5148c-0.29482 0.92735 5.5084 0.35403 1.3469 0.22615-0.44672-0.086859-0.89027-0.20237-1.3469-0.22615zm33.78 0.013328c-1.9474-0.60372-5.4852 3.7857-2.0426 1.0344 0.24354-0.40121 3.665-0.86838 2.0426-1.0344zm0.96414 0.28435c0.18531 2.1509 0.36537 3.6092 0.39731 0.57758l-0.12614-0.3448zm-0.45763 0.17328c-0.35592 1.9339 0.90993 4.975 0.47307 1.4648 0.08866-0.5111 0.12075-1.2275-0.47307-1.4648zm-0.98191 0.031101c-3.7619 0.058996-5.4319 6.05-2.7767 7.4946-0.93541-2.5481-1.7939-5.9219 1.7728-6.7028l0.60529-0.4017zm7.1311 0.2888c-0.40932 0.31711 0.31185 0.59528 0 0zm-65.735 0.30212c-2.1252-0.093782 0.34097 2.8838-0.48873 0.6398 1.93 0.31235 2.7729 1.1244 0.48873-0.6398zm45.115 1.1507c-2.4123-0.64748-9.264 2.2548-4.9871 4.5403-0.06028 3.3525-6.9682 2.2544-7.0212 3.0999 2.7162 0.53696 10.466-1.3621 6.1925-4.5576 0.31215-2.7695 5.5324-2.8481 6.6837-3.0043l-0.53104-0.068029zm-49.251 0.14218c-0.57033 1.445 0.0995 1.3302 0 0zm49.913 0.079974c-3.3393 0.55848 1.9818-0.39011 0.20434 2.1348 0.49084 3.1363 6.4276 1.3001 7.8153-0.74417-1.7474 1.4191-6.6197 3.629-7.3177 1.0114 0.7222-0.84716 1.1005-2.7853-0.70201-2.402zm18.079 0.21771c-0.89333 0.59865 1.2864 3.7949 0.99232 3.8636-0.19183-1.3134-0.52683-2.6206-0.99232-3.8636zm-18.283 0.16439c-1.8357 0.21563-1.5757-0.14505-0.05766 0.45671-1.5832 1.3891-0.02304 3.8034 1.8615 2.9067-3.7169 0.59564 0.31286-2.8089-1.8039-3.3634zm-27.52 0.031102c-3.9403-1.6669-5.5087 4.8806-2.958 4.7788-4.0906 0.061501 2.2869 1.6029 1.0803-0.47698-5.5086-2.1091 4.4852-6.6309 2.7545-1.2841-3.9308 1.9994 3.1212 2.4382 1.2171 0.54561-3.4281 2.3876 3.0795-3.5428-1.2584-3.4489-0.26627-0.098258-0.55838-0.071109-0.8355-0.11449zm-17.514 0.066646c-1.5453-0.39647-2.485 2.2082-0.61813 0.97687-0.56342 0.88854-2.5879 3.4395 0.64007 3.3098 1.5652-0.27629 0.49259-6.4812 0.36784-2.9211-0.2933 1.8145-1.4329-0.85596-0.38978-1.3656zm28.209 0.13773c-1.8233-0.12443-4.4587 3.0691-1.404 0.73954 0.69469-0.46862 3.7773-0.614 1.404-0.73954zm-15.657 0.088862c-0.54457 0.20984 0.267 1.6508-0.34805 1.416 0.60791-0.098496 1.2621-1.221 0.34805-1.416zm53.165 0.10663c0.99855 3.7954-1.2768 7.5472-0.93427 10.915 0.15116-3.4186 2.0212-7.0995 0.93427-10.915zm-11.89 0.29324c-2.8617 1.7154 3.6246 8.2542 0.44383 3.3894-0.33568-1.0992-0.31152-2.2585-0.44383-3.3894zm-25.316 0.048872c2.1808 1.9379 3.0974 7.3341-1.3337 6.3113-2.8758 0.35126-9.5954 1.2168-6.4816 5.0928-1.1419 1.9425-5.9314 0.79377-5.9503 0.95977 2.2563 1.2732 8.6185 0.026 5.2907-3.0269 1.8891-3.2051 6.7543-2.2533 9.8749-2.9087 2.5647-1.4625 0.77687-5.6137-1.4001-6.4284zm37.304 0.048875-0.01333 0.1244zm-3.2301 0.39099c-2.6997 0.15618-0.654 4.2638 0.39123 1.038 0.11366-0.37781-0.016651-0.85088-0.39123-1.038zm-0.08886 0.34656c1.3076 2.6162-3.4263 1.5036 0 0zm3.35 0.8264c0.0826 1.2495 0.15587 1.6302 0 0zm-2.2215 0.079974c-0.71314 0.76553-3.884 3.3942-1.3602 1.7411 0.69986 2.4418 0.21669-1.2564 1.4155-1.5051zm-64.859 0.031102c2.116-0.86686 1.7321 2.9527 0.16235 0.9298-1.0339 0.42083-0.39508-0.61662-0.16235-0.9298zm59.603 0.82196c-2.1249 0.52056-2.5328 3.9653-0.79316 1.0113-0.16098-0.14208 1.8045-1.0146 0.79316-1.0113zm0.77309 0.25325c1.5859 1.2185-0.23323 7.3166 1.2131 3.0811 0.08755-1.1353-0.34179-2.3298-1.2131-3.0811zm-0.61758 0.17328c1.5578 2.1472 0.45078 4.8287-2.1547 4.8502-2.2069 2.6751 1.9249 8.1516-3.4582 8.6456-1.7232 0.2775-4.9362 1.6401-1.3188 0.918 4.132-0.74656 6.4878-4.5359 9.9112-6.4976 2.0199-0.50059-1.3095 4.9504 1.6432 2.0924 1.9527-2.4107 0.88716-0.93101-0.67964 0.44257-0.22723-1.2277 0.57313-4.6912-1.7687-2.4546-1.4737 1.3681-4.9687 4.3229-4.4784 0.12793-0.99919-3.9074 6.0139-3.421 3.1578-7.4165l-0.36992-0.40907-0.48374-0.29888zm-0.26658 0.20438c-2.2181 1.9725-0.9184 2.0503-0.02265 0.04651zm7.842 0.71089c0.11766 0.45968 0.39186 1.531 0 0zm-67.721 1.4706c-1.8586 0.14918-0.2223 4.3351-1.0825 3.747 1.676-0.62897-0.91274-5.1471 2.2909-3.2003 0.3392 2.0701 0.08422 4.7759 3.2232 4.4081 2.3913-0.48164 3.699 1.1667 2.6985 3.361-0.01417 2.1199 5.5054 2.8227 1.3586 1.7134-1.2785-2.1401 0.19381-6.5257-3.8331-5.085-2.6785 0.1128-3.4695-2.5615-2.9912-4.2747-0.46671-0.39502-1.0673-0.59147-1.6644-0.6695zm47.647 0.0622c-0.79281 1.7318-7.4487 1.6099-3.0952 1.9545 1.0306-0.28938 3.0717-0.60822 3.0952-1.9545zm19.851 0.39987c-1.7841 0.92059-0.7741 7.0737-1.1281 2.8342 0.20012-1.009 0.80421-1.8685 1.1281-2.8342zm-17.661 0.2577c-1.6257 0.67574-2.8098 0.5437-2.4574 1.7652-1.2038 1.5522-3.8251 5.4961-3.5999 1.0847 2.5436-2.0915-4.2529-0.13686-1.1065 0.7029 1.3983 1.7615-1.2256 4.6757 1.8504 2.932 1.574-0.01855-0.65274-0.76763 1.211-1.8569 1.03-1.2243 2.8145-4.382 2.913-0.88325-2.1345 2.7174 3.6015 0.68435 1.0061-0.37372-0.28771-1.1207-1.1681-2.7327 0.18328-3.3709zm-12.321 0.29324c-1.8566 0.11987-5.5454 0.46068-1.5672 0.26834 0.52538-0.05289 1.0692-0.07156 1.5672-0.26834zm22.362 1.3151c-2.0513 0.36097 2.0337 0.14749 0 0zm-63.135 0.1555c-1.3124 2.9315 2.7078 6.848 2.2452 8.0301 0.76769-3.0611-3.599-4.4311-2.286-7.5899 0.01358-0.14673 0.02717-0.29346 0.04075-0.4402zm62.216 0.01777c-2.4725 1.013 0.30114 8.489-0.59103 3.1521 0.04453-1.0739 0.3336-2.1151 0.59103-3.1521zm-62.025 0.26658c0.82794 0.88013 1.8179 1.4687 0 0zm18.141 0.80863c-1.5294-0.27811 2.703 0.85426 0.3933 1.7519-3.0585 2.3326 5.1833 2.8804 0.99921 2.0977-3.082-0.49638 2.6608-4.1794-1.3925-3.8496zm6.9978 0.0089c0.53008 0.94154 1.7061 3.3524 1.1828 2.8563 1.6918-1.2063-1.3662-1.6438-1.1828-2.8563zm-9.3704 0.0044c-4.0926-2.0264-7.1292 5.7497-2.6893 6.3215 1.6697-0.51422 4.5505-1.1614 4.5643 1.5116 0.11532-3.4473-6.3165-1.0653-5.9322-1.6257 2.4054 0.60695 6.9884-1.3029 5.5629 3.4633-0.95919 1.7343-4.913-0.60481-1.6113 0.79154 3.9536-0.10539-0.95371-7.1931 0.97627-3.0122 0.85433 2.5124-1.7051 3.1121-3.2721 1.7257-4.0266 0.49233 1.7661 8.0504-3.529 5.717-3.482-0.56793-2.1006-5.9435-6.3678-4.8945 1.2083 0.20778 4.8187 1.5163 3.8918 3.9565 0.979 1.7009 5.8355 1.0869 5.4982 1.6396-1.3329 0.93025-5.9696-2.3938-5.0414-0.87994 2.5659 1.6758 9.2257 0.13394 7.8419 5.1206-1.574 0.34763-5.3563-1.8254-3.1248 1.3944 0.64643 1.9651 6.2235 1.0977 2.149 1.1039-2.3948 0.35771-3.8326-5.0405-0.58378-2.2798 4.798 1.462-2.0633-6.0413 2.7234-4.7913 1.9795 0.33054 5.2429 0.15181 5.6226 0.91842-0.17131 1.6579-0.25122 1.4318 0.19919 0.03081-0.8265-1.6767-2.3382 2.3092-0.61735 2.1027 0.45633 0.10829 4.7991 1.7263 6.7762 0.20986 3.6141-0.53573-3.1232-2.8835 0.7538-3.3768 1.9544-0.82138 7.1545-1.2404 7.2388-1.4388-2.5945 0.45624-7.9881 0.26838-8.5346 2.5853 3.4427 2.6595-4.9379 3.6457-5.9933 1.6384 3.1747-4.0741-4.5998-2.4734-6.7614-2.6155-3.7453 0.55484-4.1336-7.2106-0.14471-5.1006 0.6662 1.7667 2.8506-1.4483 1.9242 0.14502 2.8412-3.2964-2.3997-6.4793-4.8139-4.3571-3.4743-3.0739 0.82058-7.4891 4.5539-5.9933-0.41871-0.03539-0.84072 0.01454-1.2595-0.01077zm-2.5148 9.8635c-2.3955 3.7139 2.1579 6.8971 5.5383 5.1318 1.6454 0.13799 6.2939 0.93934 2.3479-0.26037-3.6247 0.06674-10.225 1.2707-7.8863-4.8715zm57.631-8.6106c-1.7964 0.68962-0.41325 5.777-0.84135 1.9078 0.07716-0.69575 0.28894-1.4342 0.84135-1.9078zm-3.3056 0.0622c-0.45267 1.3132-0.78213 4.1633-0.04887 1.2352-0.08622-0.35718 0.46923-0.91406 0.04887-1.2352zm3.159 0.22215c-0.97764 0.93172-0.47022 4.1554-0.52699 1.3372l0.17268-0.70499zm-35.06 0.17328c0.39235 2.1881 2.2857 1.9267 0 0zm30.666 0.20438c-3.2339 1.2229-4.644 4.2626-3.5541 7.3295-0.59171 1.3432-2.2806 2.654-0.21116 0.9235 1.8702-2.4081-1.3338-6.5772 2.941-7.5377l0.4241-0.34422zm2.7502 0.72866c-0.62203 0.82718-0.68116 0.89775 0 0zm-63.664 1.9905c-0.42222 2.3797-4.9541-0.59208-1.4934 1.5633 0.94571 0.82846-2.658-0.04609-0.47365 1.6248 1.6062 0.03257 2.3525 3.0224 1.527 0.29547-0.15364-4.6784 2.0353 4.6308 1.2766-0.05789 0.5828-1.6147-2.0724-3.687 0.98835-2.4546 1.8451 0.80701-1.3675-1.4108-1.825-0.97102zm21.704 0.46652c-2.0413 0.98246-4.876-0.27855-3.3384 2.853 0.36275 2.0208-0.84724 3.0716 1.7361 2.3285 1.4039-0.33253 6.5684-0.29204 2.825-0.98412-0.91066-1.1028-0.02582-3.5284-1.2228-4.1974zm-25.601 0.24437c1.1766 2.1825-1.2453 0.77328-0.77697 0.99486 1.2446 2.0764 1.2927-0.07146 0.77697-0.99486zm52.112 0.01777c-2.5788 0.07419-9.561 1.8913-5.9143 5.1041-1.1172 2.7295-7.5251 1.9703-8.0217 2.8351 2.5792-0.24733 9.707-0.34584 8.1312-3.9581-1.4556-3.3524 5.9229-3.3645 6.7059-3.8523l-0.57262-0.1621zm8.3973 0.11108c0.5738 2.7428-0.23129 6.029-3.6398 5.6027-2.4586 0.68866 0.21049 6.606-0.49743 2.8513-0.05597-3.4246 6.5168-2.8259 4.8471-6.9966-0.13284-0.52748-0.37027-1.031-0.70994-1.4574zm-35.322 0.07997c1.228 2.982-5.3144 0.75531-1.2276 0.04138l0.48957 0.0417zm-6.5401 0.0933c0.54885 1.5437 2.1103 0.13908 0 0zm41.405 0c-0.60926 1.6878-5.4969 2.9737-4.492 2.8795 1.6825-0.525 3.6345-1.2101 4.492-2.8795zm-7.1044 0.12885c-0.06539 1.5514-1.199 3.2752 0.388 1.0572 0.1647-0.35787 0.1432-1.0027-0.388-1.0572zm-0.43986 0.04443c-1.7809 1.1603-0.72078 5.0989-0.36211 1.8683 0.24276-0.51427 1.3152-1.4309 0.36211-1.8683zm-1.4706 0.30212c-2.1748-0.17155-7.3821 2.4634-3.3927 4.2035-1.7773 3.5485-8.233 1.6493-9.5425 4.1191 3.3329 3.7571-2.5988 5.3966-5.321 4.8083-1.6343 1.1435 2.0326 4.5949-0.01906 1.7791-0.3243-3.9108 7.045 0.01904 6.7435-3.8936-0.79529-1.594-2.1612-4.3834 1.0144-3.6022 2.2849-0.44736 7.2574-1.2413 6.9501-3.7007-4.0662-1.9057 2.3137-3.141 3.5672-3.7136zm-38.099 0.30213c-0.44132 0.20826-0.56795 0.26802 0 0zm-13.698 0.01333c-0.04169 2.4403 0.99783 5.8987 3.7771 6.2949-1.5814-2.3782 0.1326-0.31548-0.63056-0.20359-2.1843-1.1383-2.9338-3.817-3.1465-6.0914zm21.007 0.03554c-1.6314 0.70012-3.5785 0.43101-0.76879 0.42703 0.08126 1.5927-3.6308 2.9797-0.59887 1.6443 0.89554 0.63662 0.57513 3.4578 1.1013 0.93269-0.35607-2.2 1.5651 0.50745 1.206-1.7887 0.03377-0.37762-2.5926 1.1409-0.69521-0.77546 0.84288 0.20839 0.06845-0.8349-0.24437-0.43986zm-18.465 0.33323c2.1498 0.50143-0.09864 1.751 0 0zm23.672 0.17328c1.3096 3.0007-5.3219 0.80015-1.1747 0.03121l0.49346 0.04827zm12.787 0.0622c0.96388 0.71173 2.2976-0.18559 0.13051 0.0013zm-1.0752 0.0622c-0.69199 0.03435-0.90053 1.4158 0 0zm-0.64868 0.55094c-2.4337 1.188 1.0058 8.0443-0.61347 3.4121-0.1474-1.1649 0.08939-2.366 0.61347-3.4121zm-10.734 0.7642c1.6884 2.8901-5.0998 1.5532-1.6802 0.02388 0.54962 0.25319 1.1202-0.01851 1.6802-0.02388zm-14.018 1.1596c2.2537-0.03245-2.2383 0.52871 0 0zm-0.71533 0.46652c-0.88994 1.6841 1.2797 6.393-0.32078 2.1305-0.11297-0.71624-0.06699-1.4953 0.32078-2.1305zm-8.6417 0.31546c-0.483 2.1391 2.253 3.3612 0.07073 0.68153l-0.14423-0.33483zm55.413 1.0619c-2.2491 0.66388-0.60082 5.4832-0.70486 1.3079 0.14747-0.47665 0.39868-0.91622 0.70486-1.3079zm-52.872 0.20443c-0.37734 3.401 1.4525 2.4387 0 0zm48.54 0.79975c-1.8922 1.023-5.9989 0.98756-6.4183 2.7649 2.6505 0.06399 6.6962-3.7015 6.5649 0.61748 0.31288-1.0371 0.50929-2.4443-0.14664-3.3824zm7.1311 0.16439c-1.588-0.09091-4.3809 4.0926-1.6238 1.2256 0.07573-0.52518 1.9895-0.90874 1.6238-1.2256zm0.26658 0.23548c-0.13156 1.5281-0.05118 4.9254 0.45207 1.5703-0.0019-0.54126-0.01772-1.1698-0.45207-1.5703zm-0.55094 0.19105c0.90366 3.9963-3.09 6.4009-6.3381 7.3606-0.24244 0.87559 3.9584-1.8445 5.1736-2.1249-0.5578 1.2753-0.60919 3.3508-0.02418 0.83883-0.14491-2.2134 4.293-4.3028 3.8529-4.7144-1.1131 1.3532-3.1848 2.8456-2.1619-0.08537-0.03965-0.45519-0.13086-0.95997-0.5024-1.2748zm4.5674 0.17328c-1.5782 2.6101-0.97381 2.2722 0 0zm-4.9806 0.0622c-1.4531 0.97338-2.8435 2.7642-0.71984 0.76306 0.23919-0.25507 0.47973-0.50886 0.71984-0.76306zm4.6519 0.07997c-1.7971 2.5634-0.37303 2.5123 0.82295 0.22117-1.3365 1.732-2.3978 2.6791-0.82295-0.22117zm-27.409 0.29324c0.30998 1.6606 2.436 5.9735-1.2351 4.8135-3.1692-1.9417-6.2403 3.7961-2.7402 3.7919-2.0521-2.0885-0.36879-4.1492 2.1456-3.0859 3.664-0.06359 4.8489-3.3221 1.8296-5.5196zm26.823 0.11996c-1.9692 0.85465-5.2035 5.504-4.8642 5.6551 0.62009-2.5874 3.274-3.7657 4.8642-5.6551zm-60.59 1.6972c1.2037 0.86801 2.1703 3.8016 2.6839 2.8721 2.0782 2.1111 0.52293 0.65123 0.47457-1.0313 2.096-0.29099 4.0141 6.3175 3.2209 2.1373-0.67423-1.7949-4.7968-3.9963-4.1233-1.7763-0.81442-0.66848-1.4374-1.5404-2.256-2.2017zm9.5525 0.13329c0.99506 1.3685 2.7476 5.4042 1.372 1.5664-0.34573-0.60108-0.74047-1.2254-1.372-1.5664zm-0.63091 0.12885c1.8083 1.149 1.7259 5.6818-1.0055 3.0955-3.65-1.3594 1.7862 5.1897-0.70363 1.7898-2.2202-3.7219 5.1229 1.6281 3.5525-2.3467-0.43066-0.96103-1.0605-1.8335-1.8434-2.5385zm46.91 2.2304c-0.78795 1.2252-5.5802 2.8431-4.4682 2.5899 1.6172-0.5939 3.273-1.3027 4.4682-2.5899zm2.6392 0.0311c-0.44317 1.7257-2.26 3.1862-0.14786 1.0478 0.17322-0.25454 0.57731-0.81154 0.14786-1.0478zm-0.22215 0.0933c-1.741 1.22-2.7296 2.8717-0.48613 0.62933-0.32298 2.1481-4.2845 3.4078-4.7509 5.834 1.0434-2.7781 4.6794-3.5417 5.237-6.4633zm-7.9219 0.4132c-2.2353 0.4186-8.1475 1.3253-6.3774 4.3269-1.0384 1.713-6.0557 1.5901-6.0332 2.2116 2.0044-0.46271 7.4867-0.70184 6.6106-3.2768-2.2405-0.86534 5.1417-3.0141 5.8-3.2616zm0.3821 0.14218c-1.4458 2.0616-0.78494 2.1129 0.21127 0.08585l-0.05901-0.09078zm7.1444 0c-1.9921 1.6286-1.5598 1.8499 0.03619 0.09409l0.03117-0.07245zm-7.5754 0.20438c-1.6189 0.19012-1.8603 3.9942-0.56632 1.135 0.2364-0.29993 0.81407-0.6783 0.56632-1.135zm-0.37766 0.0622c-2.4683 0.53222-6.8043 1.7826-5.0073 4.1185-2.056 2.4125-10.246 0.58862-8.2877 5.0576-0.62549-5.0288 7.6222-1.9418 9.095-5.9848-4.4379-0.74129 3.7583-2.8765 4.1999-3.1912zm-24.957 0.11996c0.84176 1.8743-4.349 0.7259-5.7126 1.3934-2.0526-1.1718-2.945-1.012-0.76699 0.47164 2.1753-0.02864 8.4361-1.393 7.817 1.1906-1.9854 0.30648-6.4458 0.70771-6.904 0.09927 3.5971 0.4384-1.4729-1.2593-0.39477 0.47069 2.6341 0.33363 5.8433 1.0196 8.0261-0.52127 0.51363-1.8746-1.7583-1.4955-0.792-2.8667-0.33046-0.34184-0.8513-0.40788-1.2728-0.23756zm-17.888 0.45319c0.41153 3.2752 8.052 3.454 7.4206 5.0405-1.2338-3.9386-6.2944-1.1707-7.4206-5.0405zm10.157 0.10219c1.0071 0.12301-0.97674 0.18143 0 0zm-13.809 1.2085c0.22379 0.53394 2.6696 2.4337 0.91526 1.4573 2.9376 2.1475-2.3851-2.8245 1.0437-0.48288 1.487 0.86809 3.4051 2.2161 1.0047 0.38779-0.9475-0.53454-1.9248-1.0298-2.9637-1.3622zm31.075 0.19105c-1.2833-0.10734-5.1161 2.2675-1.7166 0.83672 0.61164-0.58288 4.3724-0.74536 1.7166-0.83672zm0.98191 0.39543c1.5156 0.717 2.322 5.4947 1.8067 1.4713-0.4409-0.65447-1.0851-1.16-1.8067-1.4713zm-0.91971 0.0622c-1.6825 0.30611-5.1235 2.1519-1.5616 0.75611 0.3973-0.22711 1.4485-0.53755 1.5616-0.75611zm0.4443 0.14218c1.1398 0.87534 1.2109 5.3765 1.9352 2.2311-0.20669-0.97131-0.891-2.0395-1.9352-2.2311zm20.354 0.27102c-1.4197 1.094-2.8502 3.6566-0.84704 0.97944 0.29867-0.30955 0.66004-0.57855 0.84704-0.97944zm-43.555 0.78642c1.7425 0.74787 2.9498 4.8803-0.15892 2.9974-1.3029-0.3989-5.1113-2.2513-2.0999-0.42631 1.6303 1.7032 7.0381 1.3976 3.5233-1.4792-0.40186-0.38599-0.8287-0.74493-1.2644-1.0918zm-4.6163 0.3821c-0.8482 0.91037 1.0747 0.98882 0 0zm27.773 2.1371c-2.8878 0.71111-6.6302-0.05389-8.8419 2.2479 3.7137 1.9554-6.9362 0.64093-1.897 1.2786 2.5153 0.64345 4.6177-0.91917 2.8032-1.7502 2.4596-0.87464 6.6825-1.231 7.9357-1.7763zm17.203 0.35989c-1.2652 0.30733-5.4132 3.2713-2.3328 1.3288 0.72517-0.5307 1.616-0.79257 2.3328-1.3288zm-4.1809 2.3992c1.0092-0.85017 1.588-1.5218 0 0zm-12.565-2.337c-2.6356 0.72809-6.1849-0.14219-8.2099 1.8859 3.6238 1.7813-6.6261 1.2561-1.4435 1.4594 3.2326 0.79337 2.2957-1.7813 1.7118-1.9532 2.6178-0.61926 5.2875-0.97176 7.9416-1.3921zm0.63091 0.03554c-3.1088 0.38818 1.8909 4.8179-0.24832 1.7028-0.05835-0.58213 0.15401-1.1381 0.24832-1.7028zm-20.051 0.51984c-1.0299 0.42699 3.7688 0.12839 4.8041 0.55542 4.561 0.87368-2.0964-0.85414-3.4696-0.53317l-0.66747-0.01677-0.66709-0.0055zm-1.8216 0.4132c-0.42947 1.4542 3.199 3.1381 0.85969 1.2256-0.31942-0.37768-0.4194-0.94292-0.85969-1.2256zm35.002 0.09331c-2 1.2439-1.3896 1.6086 0 0zm-34.322 0.04887c0.11299 3.1079 6.6627 2.6957 6.6463 2.9494-2.1201-1.2457-5.6372-0.01664-6.6463-2.9494zm26.649 0c-1.5038-0.08876-5.5008 2.5021-2.1657 0.86434 0.15462-0.30408 3.2039-0.68704 2.1657-0.86434zm7.1488 0.11108c-3.5713 0.03379-5.1991 3.4863-8.4281 3.8423-1.4533 0.13069-5.0012 2.5369-4.6722 1.9514 1.0707-0.06228 3.9729-1.2404 1.5395-0.22656 1.769-0.24044 1.3683-1.6891 3.7271-1.6397 2.3445-0.20416 5.4087-3.3781 6.2805-3.2906-1.4308 0.48496-4.9345 2.1861-1.7173 0.6168 0.90327-0.53564 4.3112-1.6724 1.9287-0.06729 0.4324-0.40189 1.1123-0.59645 1.3418-1.1863zm-27.218 0.20438c-1.3116 3.1616 2.3228-0.0496 0 0zm20.416 0.07998c1.0711 2.9905-5.6351 1.6753-4.655 3.9136-0.32789-2.3837 7.8467-1.3075 4.655-3.9136zm-19.594 0.01333c-1.1451 2.1369 1.4513 0.42822 0.07248 0.03323zm18.63 0c-1.5066 0.54098-4.7541 1.9284-1.4135 0.70153 0.48181-0.20886 0.98727-0.3849 1.4135-0.70153zm0.60425 0.09331c-0.59466 3.1078-4.8965 1.0175-6.0975 4.2056-1.1612 0.82364-5.3102 0.57486-4.9319 0.99059 3.0572-0.33964 6.3921-0.60836 8.1262-2.9956 1.0105-0.21898 4.8985-0.53208 2.9032-2.2006zm-19.5 1.2529c0.11298 0.36915 0.86516-0.15119 0 0zm21.46 0.63535 0.70669 0.1556zm0.71977 0.16883c-1.2673 1.0033-1.7604 0.98958 0 0zm-23.792 0.22215c2.9836 2.2302-5.2646-0.45715-1.4188 1.7445 1.9598 0.98783 6.7938 1.0402 7.2535 1.0591-2.5136-0.59546-6.0186 0.33736-7.7115-2.0582 1.0868 0.61729 5.3486 0.86306 1.8769-0.74542zm0.64868 0.19105c3.2987 2.436-4.9949-0.334-1.5373 1.5328-3.465-1.6753 5.8944 0.90285 1.5373-1.5328zm19.283 1.1196c-2.5745 0.68366-2.0215 0.4432 0 0zm-7.0289 1.2218c-1.7346 0.11928-3.9601 0.71967-0.97943 0.13007 0.32605-0.04656 0.6528-0.08779 0.97943-0.13007zm-10.783 0.07553c1.6761 0.25497 4.8425 0.47149 1.4481 0.14152-0.48275-0.04662-0.9655-0.09312-1.4481-0.14152zm4.6474 0.52428c-0.81282 0.17883 0.46301 0.17381 0 0zm4.4741 0.0311c-1.8498 0.53865-0.01836 0.37874 0.05283 0.03559z" fill-rule="evenodd" opacity=".926"/>
<path d="m31.994-1.5181c2.8561 1.1848-2.4278 5.1804-0.64389 1.577 0.29013-0.45941 0.90313-0.98861 0.64389-1.577z" fill-rule="evenodd"/>
<path d="m28.426-17.195c2.4219-3.0667-4.855 4.2681-1.2905 0.45388 0.51626-0.7834 3.7532-3.1294 1.6557-1.3511 1.5629-0.74667 0.39898 0.87289-0.36514 0.89719z"/>
</g>
</g>
</g>
</g>
</g>
</g>
</svg>
