<?xml version="1.0" encoding="UTF-8"?>
<!-- Created with Inkscape (http://www.inkscape.org/) -->
<svg enable-background="new" version="1.1" viewBox="0 0 16 16" xmlns="http://www.w3.org/2000/svg" xmlns:cc="http://creativecommons.org/ns#" xmlns:dc="http://purl.org/dc/elements/1.1/" xmlns:osb="http://www.openswatchbook.org/uri/2009/osb" xmlns:rdf="http://www.w3.org/1999/02/22-rdf-syntax-ns#" xmlns:xlink="http://www.w3.org/1999/xlink">
<metadata>
<rdf:RDF>
<cc:Work rdf:about="">
<dc:format>image/svg+xml</dc:format>
<dc:type rdf:resource="http://purl.org/dc/dcmitype/StillImage"/>
<dc:title>Paper Symbolic Icon Theme</dc:title>
<dc:date>2017</dc:date>
<dc:creator>
<cc:Agent>
<dc:title>Cristian Pozzessere "ilnanny"</dc:title>
</cc:Agent>
</dc:creator>
<dc:subject>
<rdf:Bag>
<rdf:li>Global language</rdf:li>
</rdf:Bag>
</dc:subject>
<dc:description>Playing with Inkscape on Gnu/Linux O. S.</dc:description>
<dc:contributor>
<cc:Agent>
<dc:title>In the night, alone like a dog.</dc:title>
</cc:Agent>
</dc:contributor>
</cc:Work>
</rdf:RDF>
</metadata>
<title>Paper Symbolic Icon Theme</title>
<defs>
<filter color-interpolation-filters="sRGB">
<feBlend in2="BackgroundImage" mode="darken"/>
</filter>
<linearGradient id="linearGradient4178" x1="434.16" x2="397.23" y1="548.89" y2="495.31" gradientTransform="matrix(.2757 0 0 .28939 -106.84 894.52)" gradientUnits="userSpaceOnUse" xlink:href="#linearGradient4291"/>
<linearGradient id="linearGradient4225" x1="396.57" x2="426.57" y1="498.8" y2="511.8" gradientTransform="matrix(.26437 0 0 .26378 -102.29 909.43)" gradientUnits="userSpaceOnUse">
<stop stop-color="#f5f5f5" offset="0"/>
<stop stop-color="#f9f9f9" offset="1"/>
</linearGradient>
<linearGradient id="linearGradient4297" x1="388.57" x2="416.57" y1="487.8" y2="507.8" gradientTransform="matrix(.2757 0 0 .2757 -106.84 901.99)" gradientUnits="userSpaceOnUse" xlink:href="#linearGradient4291"/>
<linearGradient id="linearGradient4291">
<stop stop-color="#555" offset="0"/>
<stop stop-color="#676767" offset="1"/>
</linearGradient>
<linearGradient id="linearGradient4160" x1="5" x2="8" y1="1037.4" y2="1051.4" gradientTransform="matrix(1 0 0 1.05 0 -52.631)" gradientUnits="userSpaceOnUse">
<stop offset="0"/>
<stop stop-opacity="0" offset="1"/>
</linearGradient>
</defs>
<g transform="translate(-265 209)">
<g transform="translate(264.99 -1245.4)">
<path d="m0.07135 1045 15.929 0.3712v-7h-7l-1-2h-8z" fill="url(#linearGradient4297)"/>
<rect x=".22097" y="1040.4" width="15.58" height="5" rx=".69716" ry=".76202" color="#000000" color-rendering="auto" enable-background="accumulate" fill="url(#linearGradient4225)" image-rendering="auto" shape-rendering="auto" solid-color="#000000" style="isolation:auto;mix-blend-mode:normal"/>
<path d="m0 1041.9-3.0178e-7 1.0886-3.9822e-7 8.3738c0 0.5303 0.50711 1.0353 1.0056 1.0353h13.991c0.50474 0.014 1.0233-0.4819 1.0233-1.0275l-0.019996-9.4702z" fill="url(#linearGradient4178)" stroke-width="1.0247"/>
<path d="m0 1041.9-3.0178e-7 1.0886 16-0.0386v-1.05z" fill="#fff" fill-rule="evenodd" opacity=".3" stroke-width="1.0247"/>
<path d="m8 1036.4v3h8v-1h-7z" fill="#fff" fill-rule="evenodd" opacity=".3"/>
<path d="m0 1050.3v1.0501c0 0.5303 0.50733 1.0355 1.0059 1.0355h13.99c0.50474 0.013 1.0234-0.4818 1.0234-1.0274l-2e-3 -1.0397c-0.0067 0.5414-0.52002 1.0277-1.0215 1.0172h-13.99c-0.49848 0-1.0058-0.5052-1.0058-1.0357z" color="#000000" color-rendering="auto" enable-background="accumulate" image-rendering="auto" opacity=".2" shape-rendering="auto" solid-color="#000000" style="isolation:auto;mix-blend-mode:normal"/>
<path d="m0 1042.9 8 8.4001h8v-8.4001z" fill="url(#linearGradient4160)" fill-rule="evenodd" opacity=".416"/>
</g>
</g>
</svg>
