<?xml version="1.0" encoding="UTF-8"?>
<!-- Created with Inkscape (http://www.inkscape.org/) -->
<svg width="96px" height="96px" version="1.1" viewBox="0 0 64 64" xmlns="http://www.w3.org/2000/svg" xmlns:cc="http://creativecommons.org/ns#" xmlns:dc="http://purl.org/dc/elements/1.1/" xmlns:rdf="http://www.w3.org/1999/02/22-rdf-syntax-ns#" xmlns:xlink="http://www.w3.org/1999/xlink">
<defs>
<linearGradient id="linearGradient4125">
<stop stop-color="#fff" offset="0"/>
<stop stop-color="#fff" stop-opacity="0" offset="1"/>
</linearGradient>
<linearGradient id="linearGradient3891" x1="6.25" x2="89.75" y1="80.625" y2="80.625" gradientTransform="matrix(1.115 0 0 1.1151 6.5966 1043.4)" gradientUnits="userSpaceOnUse">
<stop stop-color="#fff" stop-opacity="0" offset="0"/>
<stop stop-color="#fff" offset=".15"/>
<stop stop-color="#fff" offset=".85"/>
<stop stop-color="#fff" stop-opacity="0" offset="1"/>
</linearGradient>
<linearGradient id="linearGradient3893" x1="1.1209" x2="95.496" y1="84.063" y2="84.063" gradientTransform="matrix(.99266 0 0 .9812 12.165 1055.3)" gradientUnits="userSpaceOnUse">
<stop stop-color="#fff" stop-opacity=".031373" offset="0"/>
<stop stop-color="#fff" offset=".05"/>
<stop stop-color="#fff" stop-opacity=".023529" offset=".1"/>
<stop stop-color="#fff" stop-opacity=".28058" offset=".5"/>
<stop stop-color="#fefefe" stop-opacity=".015686" offset=".9"/>
<stop stop-color="#fff" offset=".95"/>
<stop stop-color="#fdfdfd" stop-opacity="0" offset="1"/>
</linearGradient>
<linearGradient id="linearGradient3391" x1="44.726" x2="22.635" y1="59.746" y2="34.832" gradientTransform="matrix(.99266 0 0 .9812 11.828 1054.9)" gradientUnits="userSpaceOnUse" xlink:href="#linearGradient4125"/>
<linearGradient id="linearGradient3889" x1="6.076" x2="89.924" y1="47.473" y2="47.473" gradientTransform="matrix(1.115 0 0 1.0365 -5.522 2.796)" gradientUnits="userSpaceOnUse">
<stop stop-color="#d8d8d8" stop-opacity="0" offset="0"/>
<stop stop-color="#fff" offset=".05"/>
<stop stop-color="#d8d8d8" stop-opacity="0" offset=".1"/>
<stop stop-color="#d8d8d8" stop-opacity="0" offset=".5"/>
<stop stop-color="#d8d8d8" stop-opacity="0" offset=".9"/>
<stop stop-color="#fff" offset=".95"/>
<stop stop-color="#d8d8d8" stop-opacity="0" offset="1"/>
</linearGradient>
<radialGradient id="radialGradient3885" cx="44.659" cy="-187.51" r="36.916" gradientTransform="matrix(1.6991 .0043381 -9.9579e-5 .013731 -31.242 -184.99)" gradientUnits="userSpaceOnUse" xlink:href="#linearGradient4125"/>
</defs>
<metadata>
<rdf:RDF>
<cc:Work rdf:about="">
<dc:format>image/svg+xml</dc:format>
<dc:type rdf:resource="http://purl.org/dc/dcmitype/StillImage"/>
<dc:title/>
<cc:license rdf:resource="http://creativecommons.org/licenses/by-sa/4.0/"/>
<dc:date>2017</dc:date>
<dc:creator>
<cc:Agent>
<dc:title>Cristian Pozzessere "ilnanny"</dc:title>
</cc:Agent>
</dc:creator>
<dc:subject>
<rdf:Bag>
<rdf:li>Global language</rdf:li>
</rdf:Bag>
</dc:subject>
<dc:description>Playing with Inkscape on Gnu/Linux O. S.</dc:description>
<dc:contributor>
<cc:Agent>
<dc:title>In the night, alone like a dog.</dc:title>
</cc:Agent>
</dc:contributor>
</cc:Work>
<cc:License rdf:about="http://creativecommons.org/licenses/by-sa/4.0/">
<cc:permits rdf:resource="http://creativecommons.org/ns#Reproduction"/>
<cc:permits rdf:resource="http://creativecommons.org/ns#Distribution"/>
<cc:requires rdf:resource="http://creativecommons.org/ns#Notice"/>
<cc:requires rdf:resource="http://creativecommons.org/ns#Attribution"/>
<cc:permits rdf:resource="http://creativecommons.org/ns#DerivativeWorks"/>
<cc:requires rdf:resource="http://creativecommons.org/ns#ShareAlike"/>
</cc:License>
</rdf:RDF>
</metadata>
<g transform="matrix(.98438 0 0 .96296 -3.1992 -18.562)">
<g transform="matrix(.99515 0 0 1 .64472 -1.0385)">
<g transform="matrix(.68055 0 0 .69231 2.618 20.315)">
<g transform="translate(0 -1026.5)">
<g transform="translate(-12.119 -22.917)">
<path d="m101.26 1049.4h-82.286c-3.7989 0-6.8571 3.0583-6.8571 6.8571v82.286c0 3.7988 3.0583 6.8571 6.8571 6.8571h82.286c3.7989 0 6.8571-3.0583 6.8571-6.8571v-82.286c0-3.7988-3.0583-6.8571-6.8571-6.8571z" enable-background="new" opacity=".15"/>
<path d="m100.83 1049.9h-81.429c-3.7593 0-6.7857 3.0264-6.7857 6.7857v81.429c0 3.7593 3.0264 6.7857 6.7857 6.7857h81.429c3.7593 0 6.7857-3.0264 6.7857-6.7857v-81.429c0-3.7593-3.0264-6.7857-6.7857-6.7857z" enable-background="new" opacity=".25"/>
</g>
</g>
<path d="m88.142 1.1657h-80.283c-3.7064 0-6.6903 2.984-6.6903 6.6906v80.287c0 3.7066 2.9839 6.6906 6.6903 6.6906h80.283c3.7064 0 6.6903-2.984 6.6903-6.6906v-80.287c0-3.7066-2.9839-6.6906-6.6903-6.6906z" enable-background="new" fill="#C094C0" stroke="#6d6d6d" stroke-width=".33452"/>
<g transform="matrix(0 -1.0859 1.115 0 -.94838 206.75)" enable-background="new">
<path d="m117.22 6.0979c-3.921 0-7.125 3.204-7.125 7.125v60.562c0 3.921 3.204 7.125 7.125 7.125h61.562c3.921 0 7.125-3.204 7.125-7.125v-60.562c0-3.921-3.204-7.125-7.125-7.125z" color="#000000" enable-background="accumulate" opacity=".13718" style="text-decoration-line:none;text-indent:0;text-transform:none"/>
<path d="m117.22 6.8133c-3.3794 0-6.125 2.7457-6.125 6.125v61.562c0 3.3793 2.7456 6.125 6.125 6.125h61.562c3.3794 0 6.125-2.7457 6.125-6.125v-61.562c0-3.3793-2.7456-6.125-6.125-6.125z" color="#000000" enable-background="accumulate" opacity=".24549" style="text-decoration-line:none;text-indent:0;text-transform:none"/>
<path d="m183.7 12.925c0-2.8428-2.242-5.1189-5.0262-5.1189h-30.722c2.7842 0 5.0262 2.2761 5.0262 5.1189v61.594c0 2.8428-2.242 5.1189-5.0262 5.1189h30.722c2.7842 0 5.0262-2.2761 5.0262-5.1189z" fill="#fdffeb" stroke="#b4b4b4" stroke-width=".4374"/>
<path d="m115.71 79.154v1c0.26183 2.5937 2.46 4.5938 5.125 4.5938h61.562c2.665 0 4.8632-2.0001 5.125-4.5938v-1c-0.26183 2.5937-2.46 4.5938-5.125 4.5938h-61.562c-2.665 0-4.8632-2.0001-5.125-4.5938z" fill="#fff" opacity=".4"/>
<path d="m116.69 7.8133c-2.5937 0.26183-4.5938 2.46-4.5938 5.125v0.46875c0.26183-2.5937 2.46-4.5938 5.125-4.5938h61.562c2.665 0 4.8632 2.0001 5.125 4.5938v-0.46875c0-2.8426-2.2824-5.125-5.125-5.125h-61.562c-0.17767 0-0.35834-0.017455-0.53125 0z" fill="#fff" opacity=".5"/>
<path d="m115.71 8.6425v-1c0.26183-2.5937 2.46-4.5938 5.125-4.5938h61.562c2.665 0 4.8632 2.0001 5.125 4.5938v1c-0.26183-2.5937-2.46-4.5938-5.125-4.5938h-61.562c-2.665 0-4.8632 2.0001-5.125 4.5938z" fill="#fff" opacity=".4"/>
<rect transform="rotate(90)" x="7.7431" y="-187.83" width="73.831" height=".90709" fill="url(#radialGradient3885)" opacity=".42599"/>
<path d="m183.73 12.934c0-2.8428-2.242-5.1189-5.0262-5.1189h-5.4216c2.7842 0 5.0262 2.2761 5.0262 5.1189v61.594c0 2.8428-2.242 5.1189-5.0262 5.1189h5.4216c2.7842 0 5.0262-2.2761 5.0262-5.1189z" fill="#e9ffdb" stroke="#b4b4b4" stroke-width=".4374"/>
<path d="m180.05 12.896c0-2.842-2.242-5.1174-5.0262-5.1174h-5.4216c2.7842 0 5.0262 2.2755 5.0262 5.1174v61.576c0 2.842-2.242 5.1174-5.0262 5.1174h5.4216c2.7842 0 5.0262-2.2755 5.0262-5.1174z" fill="#ffecfe" stroke="#b4b4b4" stroke-width=".43734"/>
<path d="m127.62 73.032v1.4688c0 2.8426 1.789 5.125 4.0171 5.125h48.254c2.2282 0 4.0171-2.2824 4.0171-5.125v-1.4688c-0.20523 2.5937-1.9282 4.5938-4.0171 4.5938h-48.254c-2.0889 0-3.8119-2.0001-4.0171-4.5938z" opacity=".138"/>
<path d="m112.09 13.748v-1.4688c0-2.8426 2.2824-5.125 5.125-5.125h61.562c2.8426 0 5.125 2.2824 5.125 5.125v1.4688c-0.26183-2.5937-2.46-4.5938-5.125-4.5938h-61.562c-2.665 0-4.8632 2.0001-5.125 4.5938z" opacity=".169"/>
</g>
<path d="m1.411 83.85c0 2.6997 3.0408 4.8731 6.8179 4.8731h79.542c3.7771 0 6.8179-2.1734 6.8179-4.8731v-50.355c0-2.6997-3.0408-4.8731-6.8179-4.8731h-43.393l-4.6873-5.5838c-1.1519-1.5193-3.4044-2.5381-6.0012-2.5381h-25.461c-3.7771 0-6.8179 2.1734-6.8179 4.8731z" enable-background="new" fill="#C094C0" stroke="#6d6d6d" stroke-width=".29432"/>
<g>
<g transform="matrix(1 0 0 .93315 0 6.3272)">
<g transform="translate(-11.94 -1049.6)">
<path d="m13.566 1129v2.2302c0 3.4905 3.0556 6.2725 6.8296 6.2725h79.447c3.774 0 6.8296-2.782 6.8296-6.2725v-2.2302c0 3.4905-3.0556 6.2724-6.8296 6.2724h-79.447c-3.774 0-6.8296-2.7819-6.8296-6.2724z" enable-background="new" fill="url(#linearGradient3891)" opacity=".83103"/>
<path d="m18.476 1132.6h83.286" enable-background="new" fill="none" opacity=".375" stroke="#000" stroke-width="1.7273px"/>
<path d="m18.476 1131.8h83.286" enable-background="new" fill="none" opacity=".435" stroke="#fff" stroke-width="1.7273px"/>
<path d="m18.476 1128.5h83.286" enable-background="new" fill="none" opacity=".375" stroke="#000" stroke-width="1.7273px"/>
<path d="m18.476 1127.7h83.286" enable-background="new" fill="none" opacity=".435" stroke="#fff" stroke-width="1.7273px"/>
<path d="m13.277 1131.4v6.2378c0 3.6782 2.9941 6.6333 6.7005 6.6333h80.281c3.7064 0 6.7004-2.9551 6.7004-6.6333v-6.2378c0 3.6782-2.994 6.6637-6.7004 6.6637h-80.281c-3.7064 0-6.7005-2.9855-6.7005-6.6637z" enable-background="new" opacity=".3"/>
<path d="m13.277 1131.4v6.2378c0 3.6782 2.9941 6.6333 6.7005 6.6333h80.281c3.7064 0 6.7004-2.9551 6.7004-6.6333v-6.2378c0 3.6782-2.994 6.6637-6.7004 6.6637h-80.281c-3.7064 0-6.7005-2.9855-6.7005-6.6637z" enable-background="new" fill="url(#linearGradient3893)" opacity=".95052"/>
<path d="m13.193 1132.3c0 2.895 3.0408 5.2256 6.8179 5.2256 49.601-40.026 39.172-32.106 79.542-64.449h-43.393l-4.6873-5.9877c-1.1519-1.6292-3.4044-2.7216-6.0012-2.7216h-25.461c-3.7771 0-6.8179 2.3306-6.8179 5.2256z" enable-background="new" fill="url(#linearGradient3391)" opacity=".332"/>
</g>
<path d="m1.411 83.354c0 2.895 3.0408 5.2256 6.8179 5.2256h79.542c3.7771 0 6.8179-2.3306 6.8179-5.2256v-53.998c0-2.895-3.0408-5.2257-6.8179-5.2257h-43.393l-4.6873-5.9876c-1.1519-1.6292-3.4044-2.7217-6.0012-2.7217h-25.461c-3.7771 0-6.8179 2.3306-6.8179 5.2256z" enable-background="new" fill="url(#linearGradient3889)" opacity=".381"/>
</g>
</g>
</g>
<g transform="matrix(.68736 0 0 .69924 -257.75 -454.16)" fill="none" stroke="#fefefe" stroke-width="1.2794">
<path d="m426.07 710.49c-5.6826 0.0463-8.5234 3.4837-9.7891 6.2949h-2e-3c-0.62323 1.3849-0.97967 2.9845-1.1035 4.8652-0.34171 5.1539-3.0796 10.216-4.2383 12.123-0.40256 0.66179-0.52413 1.4607-0.33789 2.2129 0.18284 0.7359 0.64687 1.3681 1.2949 1.7559 1.4759 0.88341 3.0802 0.75071 3.4336 0.7168l-0.0605 2e-3h2.8926l-5.0117 2.9024c-2.2411 1.2226-3.6367 3.5718-3.6367 6.125v1.5723c0 0.5857 0.2464 1.1276 0.62305 1.5586 0.37666 0.43098 0.87804 0.77605 1.4648 1.0762 1.1736 0.60025 2.7106 1.0268 4.4141 1.3516 3.407 0.6496 7.4655 0.86719 10.293 0.86719h0.64062v-0.0254c2.7859-0.0274 6.4668-0.23636 9.6524-0.84375 1.7035-0.32481 3.2424-0.74936 4.416-1.3496 0.5868-0.30013 1.0882-0.6452 1.4648-1.0762 0.37665-0.43097 0.62304-0.97289 0.62304-1.5586v-1.4356c0-2.6519-1.4888-5.0544-3.8926-6.2559l-0.0156-8e-3 -6.7012-2.9023 3.3828-2e-3 -0.0703-4e-3c0.14393 0.0159 0.65407 0.0599 1.4492 0.0156 0.79514-0.0442 1.8084-0.17971 2.7598-0.58789 0.79831-0.34238 1.3972-1.0278 1.6348-1.8652 0.23906-0.84345 0.0875-1.7497-0.41602-2.4668-1.4501-2.0644-4.8323-7.5236-4.9356-12.867l2e-3 4e-3c-2e-3 -0.10744-7e-3 -0.20711-0.0352-0.49023-0.0284-0.28312-0.0805-0.67679-0.17187-1.1465-0.18274-0.93939-0.52525-2.1818-1.1816-3.4394-1.3128-2.5153-3.9791-5.0794-8.832-5.1191h-6e-3zm6e-3 1.2793c4.4166 0.0383 6.5408 2.2084 7.7012 4.4316 0.58046 1.1122 0.895 2.2408 1.0606 3.0918 0.0828 0.42552 0.12929 0.78219 0.15429 1.0312 0.025 0.24907 0.0306 0.46459 0.0293 0.38086v2e-3c0.1131 5.8543 3.6519 11.422 5.166 13.578 0.28461 0.40534 0.36843 0.90097 0.23242 1.3809-0.13469 0.47471-0.46183 0.84762-0.90821 1.0391-0.73655 0.31602-1.6224 0.44717-2.3262 0.48633-0.7038 0.0392-1.293-0.0158-1.2383-0.01l-0.0351-4e-3 -5.6445 4e-3c0.0817-0.0307 0.12902-0.125 0.22266-0.125h5.4551l-0.0449-2e-3c-0.0376-3e-3 0.55401 0.0474 1.2344 0.0137 0.68037-0.0337 1.536-0.13644 2.3281-0.47656v-2e-3c0.4089-0.17588 0.71644-0.53046 0.83789-0.95508v-2e-3c0.12346-0.43405 0.0445-0.90651-0.21485-1.2754h2e-3c-1.524-2.1697-5.0804-7.912-5.1914-13.646v-4e-3c-6e-3 -0.227-0.0743-2.331-1.2109-4.4766s-3.4508-4.3019-7.6055-4.3359h-0.01c-4.9271 0.0407-7.4131 3.0293-8.5098 5.4668-0.55482 1.2328-0.86995 2.6712-0.98242 4.3809-0.36168 5.4666-3.2275 10.765-4.4394 12.76v2e-3c-0.20802 0.34342-0.27329 0.75203-0.17578 1.1445 0.0907 0.36753 0.32428 0.69311 0.65234 0.88867 1.2052 0.7199 2.5193 0.52344 2.5312 0.52344h0.0176l0.0664-4e-3h5.584c0.0849 0 0.10496 0.0998 0.17578 0.125h-5.7539l-0.0293 4e-3c-0.23236 0.0223-1.6001 0.09-2.6543-0.54102-0.35921-0.21492-0.6072-0.54931-0.71094-0.96679-0.10316-0.41665-0.0318-0.87651 0.18946-1.2402 1.2111-1.9936 4.055-7.1599 4.4219-12.703 0.1164-1.7676 0.44716-3.2084 0.99414-4.4238 1.1419-2.5362 3.4483-5.4972 8.6289-5.541zm0 1.4043c3.7289 0.0326 5.4989 1.8071 6.4785 3.6562 0.98019 1.8503 1.06 3.8058 1.0625 3.9082 0.1215 6.2353 3.8329 12.093 5.4219 14.355h2e-3c0.0395 0.0562 0.0496 0.11634 0.0293 0.1875v2e-3c-0.0193 0.0678-0.0571 0.10949-0.11133 0.13281-0.56074 0.24078-1.2957 0.3456-1.8887 0.375s-0.95748-3e-3 -1.0801-0.0117l-0.0215-2e-3h-5.4785c-0.69503 0-1.3442 0.36138-1.7109 0.95117v2e-3c-0.36447 0.58809-0.40019 1.3274-0.0918 1.9473 0.27491 0.5535 0.76359 1.33 1.6484 1.7715l0.0156 8e-3 7.6992 3.334c1.4664 0.73496 2.3672 2.1925 2.3672 3.834v1.4356c0-0.17203 0.0668-0.16729-0.0254-0.0859-0.0922 0.0814-0.29112 0.21375-0.57617 0.35157-0.5701 0.27563-1.4833 0.58876-2.6992 0.87304-2.4318 0.56858-6.0798 1.0312-10.811 1.0312-4.7307 0-8.3768-0.46267-10.809-1.0312-1.2159-0.28428-2.1291-0.59741-2.6992-0.87304-0.28505-0.13782-0.48392-0.27021-0.57617-0.35157-0.0922-0.0813-0.0254-0.0861-0.0254 0.0859v-1.5723c0-1.5741 0.85292-3.0133 2.252-3.7754l8e-3 -6e-3 6.502-3.7637 8e-3 -6e-3c0.16339-0.0903 0.43101-0.25982 1.0371-0.73828 0.63769-0.50306 0.88685-1.3666 0.6211-2.1328-0.26631-0.76797-0.99801-1.2891-1.8106-1.2891h-5.6192l-0.0488 4e-3h-2e-3c-0.0142 1.7e-4 -1.1599 0.0822-1.873-0.34375-0.0302-0.018-0.0531-0.0418-0.0664-0.0957v-2e-3c-0.0133-0.0536-1e-3 -0.12341 0.0274-0.17188v-2e-3c1.2651-2.0826 4.236-7.49 4.623-13.34 0.10526-1.6001 0.3967-2.881 0.87304-3.9395 0.97232-2.1612 2.9218-4.6747 7.3477-4.7129zm3.7617 24.816 0.11718 0.17969c0.258 0.39672 0.50916 0.77117 0.97461 1.0039l0.0156 8e-3 7.6953 3.332c1.9863 0.99285 3.1836 2.9335 3.1836 5.1113v1.4356c0 0.24771-0.0855 0.46152-0.30859 0.7168-0.2231 0.25527-0.59079 0.52609-1.082 0.77734-0.98247 0.5025-2.4353 0.92226-4.0723 1.2344-3.2739 0.62422-7.2944 0.8457-10.055 0.8457s-6.7789-0.22148-10.053-0.8457c-1.6369-0.31212-3.0898-0.73188-4.0723-1.2344-0.49124-0.25125-0.85893-0.52207-1.082-0.77734-0.2231-0.25528-0.3086-0.46909-0.3086-0.7168v-1.5723c0-2.0883 1.1359-4.0021 2.9688-5.002l8e-3 -4e-3 6.502-3.7656 2e-3 -2e-3c0.0817-0.0454 0.2331-0.13742 0.55664-0.38282l0.43945-0.33398c-0.0391 0.0597 6e-3 0.14572-0.0566 0.19531-0.58336 0.46051-0.78205 0.58096-0.86914 0.62891l-6e-3 4e-3 -6.498 3.7617c-1.804 0.98268-2.9199 2.8613-2.9199 4.9004v1.5723c-1e-5 0.41033 0.22923 0.67043 0.45898 0.87305s0.51111 0.3727 0.86328 0.54297c0.70434 0.34053 1.6881 0.66977 2.9668 0.96875 2.5574 0.59795 6.2859 1.0644 11.1 1.0644 4.8137 0 8.5441-0.4665 11.102-1.0644 1.2787-0.29898 2.2625-0.62822 2.9668-0.96875 0.35217-0.17027 0.63352-0.34035 0.86328-0.54297 0.22975-0.20262 0.45898-0.46272 0.45898-0.87305v-1.4356c0-2.1172-1.1864-4.0364-3.0801-4.9824l-0.0156-8e-3 -7.6934-3.3301-2e-3 -2e-3c-0.49832-0.24982-0.86472-0.77328-1.0742-1.1953-0.0191-0.0384 0.0179-0.0779 6e-3 -0.11719z" color="#000000" color-rendering="auto" dominant-baseline="auto" fill="none" image-rendering="auto" shape-rendering="auto" solid-color="#000000" stroke="#000" stroke-opacity=".15686" stroke-width="1.8603" style="font-feature-settings:normal;font-variant-alternates:normal;font-variant-caps:normal;font-variant-ligatures:normal;font-variant-numeric:normal;font-variant-position:normal;isolation:auto;mix-blend-mode:normal;shape-padding:0;text-decoration-color:#000000;text-decoration-line:none;text-decoration-style:solid;text-indent:0;text-orientation:mixed;text-transform:none;white-space:normal"/>
</g>
<g transform="matrix(.68736 0 0 .69924 -257.75 -454.16)" fill="#fefefe">
<path d="m426.07 710.49c-5.6826 0.0463-8.5234 3.4837-9.7891 6.2949h-2e-3c-0.62323 1.3849-0.97967 2.9845-1.1035 4.8652-0.34171 5.1539-3.0796 10.216-4.2383 12.123-0.40256 0.66179-0.52413 1.4607-0.33789 2.2129 0.18284 0.7359 0.64687 1.3681 1.2949 1.7559 1.4759 0.88341 3.0802 0.75071 3.4336 0.7168l-0.0605 2e-3h2.8926l-5.0117 2.9024c-2.2411 1.2226-3.6367 3.5718-3.6367 6.125v1.5723c0 0.5857 0.2464 1.1276 0.62305 1.5586 0.37666 0.43098 0.87804 0.77605 1.4648 1.0762 1.1736 0.60025 2.7106 1.0268 4.4141 1.3516 3.407 0.6496 7.4655 0.86719 10.293 0.86719h0.64062v-0.0254c2.7859-0.0274 6.4668-0.23636 9.6524-0.84375 1.7035-0.32481 3.2424-0.74936 4.416-1.3496 0.5868-0.30013 1.0882-0.6452 1.4648-1.0762 0.37665-0.43097 0.62304-0.97289 0.62304-1.5586v-1.4356c0-2.6519-1.4888-5.0544-3.8926-6.2559l-0.0156-8e-3 -6.7012-2.9023 3.3828-2e-3 -0.0703-4e-3c0.14393 0.0159 0.65407 0.0599 1.4492 0.0156 0.79514-0.0442 1.8084-0.17971 2.7598-0.58789 0.79831-0.34238 1.3972-1.0278 1.6348-1.8652 0.23906-0.84345 0.0875-1.7497-0.41602-2.4668-1.4501-2.0644-4.8323-7.5236-4.9356-12.867l2e-3 4e-3c-2e-3 -0.10744-7e-3 -0.20711-0.0352-0.49023-0.0284-0.28312-0.0805-0.67679-0.17187-1.1465-0.18274-0.93939-0.52525-2.1818-1.1816-3.4394-1.3128-2.5153-3.9791-5.0794-8.832-5.1191h-6e-3zm6e-3 1.2793c4.4166 0.0383 6.5408 2.2084 7.7012 4.4316 0.58046 1.1122 0.895 2.2408 1.0606 3.0918 0.0828 0.42552 0.12929 0.78219 0.15429 1.0312 0.025 0.24907 0.0306 0.46459 0.0293 0.38086v2e-3c0.1131 5.8543 3.6519 11.422 5.166 13.578 0.28461 0.40534 0.36843 0.90097 0.23242 1.3809-0.13469 0.47471-0.46183 0.84762-0.90821 1.0391-0.73655 0.31602-1.6224 0.44717-2.3262 0.48633-0.7038 0.0392-1.293-0.0158-1.2383-0.01l-0.0351-4e-3 -5.6445 4e-3c0.0817-0.0307 0.12902-0.125 0.22266-0.125h5.4551l-0.0449-2e-3c-0.0376-3e-3 0.55401 0.0474 1.2344 0.0137 0.68037-0.0337 1.536-0.13644 2.3281-0.47656v-2e-3c0.4089-0.17588 0.71644-0.53046 0.83789-0.95508v-2e-3c0.12346-0.43405 0.0445-0.90651-0.21485-1.2754h2e-3c-1.524-2.1697-5.0804-7.912-5.1914-13.646v-4e-3c-6e-3 -0.227-0.0743-2.331-1.2109-4.4766s-3.4508-4.3019-7.6055-4.3359h-0.01c-4.9271 0.0407-7.4131 3.0293-8.5098 5.4668-0.55482 1.2328-0.86995 2.6712-0.98242 4.3809-0.36168 5.4666-3.2275 10.765-4.4394 12.76v2e-3c-0.20802 0.34342-0.27329 0.75203-0.17578 1.1445 0.0907 0.36753 0.32428 0.69311 0.65234 0.88867 1.2052 0.7199 2.5193 0.52344 2.5312 0.52344h0.0176l0.0664-4e-3h5.584c0.0849 0 0.10496 0.0998 0.17578 0.125h-5.7539l-0.0293 4e-3c-0.23236 0.0223-1.6001 0.09-2.6543-0.54102-0.35921-0.21492-0.6072-0.54931-0.71094-0.96679-0.10316-0.41665-0.0318-0.87651 0.18946-1.2402 1.2111-1.9936 4.055-7.1599 4.4219-12.703 0.1164-1.7676 0.44716-3.2084 0.99414-4.4238 1.1419-2.5362 3.4483-5.4972 8.6289-5.541zm0 1.4043c3.7289 0.0326 5.4989 1.8071 6.4785 3.6562 0.98019 1.8503 1.06 3.8058 1.0625 3.9082 0.1215 6.2353 3.8329 12.093 5.4219 14.355h2e-3c0.0395 0.0562 0.0496 0.11634 0.0293 0.1875v2e-3c-0.0193 0.0678-0.0571 0.10949-0.11133 0.13281-0.56074 0.24078-1.2957 0.3456-1.8887 0.375s-0.95748-3e-3 -1.0801-0.0117l-0.0215-2e-3h-5.4785c-0.69503 0-1.3442 0.36138-1.7109 0.95117v2e-3c-0.36447 0.58809-0.40019 1.3274-0.0918 1.9473 0.27491 0.5535 0.76359 1.33 1.6484 1.7715l0.0156 8e-3 7.6992 3.334c1.4664 0.73496 2.3672 2.1925 2.3672 3.834v1.4356c0-0.17203 0.0668-0.16729-0.0254-0.0859-0.0922 0.0814-0.29112 0.21375-0.57617 0.35157-0.5701 0.27563-1.4833 0.58876-2.6992 0.87304-2.4318 0.56858-6.0798 1.0312-10.811 1.0312-4.7307 0-8.3768-0.46267-10.809-1.0312-1.2159-0.28428-2.1291-0.59741-2.6992-0.87304-0.28505-0.13782-0.48392-0.27021-0.57617-0.35157-0.0922-0.0813-0.0254-0.0861-0.0254 0.0859v-1.5723c0-1.5741 0.85292-3.0133 2.252-3.7754l8e-3 -6e-3 6.502-3.7637 8e-3 -6e-3c0.16339-0.0903 0.43101-0.25982 1.0371-0.73828 0.63769-0.50306 0.88685-1.3666 0.6211-2.1328-0.26631-0.76797-0.99801-1.2891-1.8106-1.2891h-5.6192l-0.0488 4e-3h-2e-3c-0.0142 1.7e-4 -1.1599 0.0822-1.873-0.34375-0.0302-0.018-0.0531-0.0418-0.0664-0.0957v-2e-3c-0.0133-0.0536-1e-3 -0.12341 0.0274-0.17188v-2e-3c1.2651-2.0826 4.236-7.49 4.623-13.34 0.10526-1.6001 0.3967-2.881 0.87304-3.9395 0.97232-2.1612 2.9218-4.6747 7.3477-4.7129zm3.7617 24.816 0.11718 0.17969c0.258 0.39672 0.50916 0.77117 0.97461 1.0039l0.0156 8e-3 7.6953 3.332c1.9863 0.99285 3.1836 2.9335 3.1836 5.1113v1.4356c0 0.24771-0.0855 0.46152-0.30859 0.7168-0.2231 0.25527-0.59079 0.52609-1.082 0.77734-0.98247 0.5025-2.4353 0.92226-4.0723 1.2344-3.2739 0.62422-7.2944 0.8457-10.055 0.8457s-6.7789-0.22148-10.053-0.8457c-1.6369-0.31212-3.0898-0.73188-4.0723-1.2344-0.49124-0.25125-0.85893-0.52207-1.082-0.77734-0.2231-0.25528-0.3086-0.46909-0.3086-0.7168v-1.5723c0-2.0883 1.1359-4.0021 2.9688-5.002l8e-3 -4e-3 6.502-3.7656 2e-3 -2e-3c0.0817-0.0454 0.2331-0.13742 0.55664-0.38282l0.43945-0.33398c-0.0391 0.0597 6e-3 0.14572-0.0566 0.19531-0.58336 0.46051-0.78205 0.58096-0.86914 0.62891l-6e-3 4e-3 -6.498 3.7617c-1.804 0.98268-2.9199 2.8613-2.9199 4.9004v1.5723c-1e-5 0.41033 0.22923 0.67043 0.45898 0.87305s0.51111 0.3727 0.86328 0.54297c0.70434 0.34053 1.6881 0.66977 2.9668 0.96875 2.5574 0.59795 6.2859 1.0644 11.1 1.0644 4.8137 0 8.5441-0.4665 11.102-1.0644 1.2787-0.29898 2.2625-0.62822 2.9668-0.96875 0.35217-0.17027 0.63352-0.34035 0.86328-0.54297 0.22975-0.20262 0.45898-0.46272 0.45898-0.87305v-1.4356c0-2.1172-1.1864-4.0364-3.0801-4.9824l-0.0156-8e-3 -7.6934-3.3301-2e-3 -2e-3c-0.49832-0.24982-0.86472-0.77328-1.0742-1.1953-0.0191-0.0384 0.0179-0.0779 6e-3 -0.11719z" color="#000000" color-rendering="auto" dominant-baseline="auto" fill="#fefefe" image-rendering="auto" shape-rendering="auto" solid-color="#000000" style="font-feature-settings:normal;font-variant-alternates:normal;font-variant-caps:normal;font-variant-ligatures:normal;font-variant-numeric:normal;font-variant-position:normal;isolation:auto;mix-blend-mode:normal;shape-padding:0;text-decoration-color:#000000;text-decoration-line:none;text-decoration-style:solid;text-indent:0;text-orientation:mixed;text-transform:none;white-space:normal"/>
</g>
</g>
</g>
</svg>
