<?xml version="1.0" encoding="UTF-8"?>
<svg version="1.1" viewBox="0 0 48 48" xmlns="http://www.w3.org/2000/svg" xmlns:cc="http://creativecommons.org/ns#" xmlns:dc="http://purl.org/dc/elements/1.1/" xmlns:rdf="http://www.w3.org/1999/02/22-rdf-syntax-ns#" xmlns:xlink="http://www.w3.org/1999/xlink">
<metadata>
<rdf:RDF>
<cc:Work rdf:about="">
<dc:format>image/svg+xml</dc:format>
<dc:type rdf:resource="http://purl.org/dc/dcmitype/StillImage"/>
</cc:Work>
</rdf:RDF>
</metadata>
<defs>
<linearGradient id="linearGradient4071" x1="6" x2="90" y1="47" y2="47" gradientTransform="matrix(.55357 0 0 .55357 -2.5714 1072.5)" gradientUnits="userSpaceOnUse">
<stop stop-color="#b2babc" offset="0"/>
<stop stop-color="#fff" offset=".25"/>
<stop stop-color="#96a1a4" offset=".5"/>
<stop stop-color="#fbf9f9" offset=".75"/>
<stop stop-color="#b2b9bc" offset="1"/>
</linearGradient>
<linearGradient id="linearGradient4129" x1="1.5" x2="94.5" y1="88.172" y2="88.172" gradientTransform="matrix(.5 0 0 .5 -9.9149e-7 1074.5)" gradientUnits="userSpaceOnUse">
<stop offset="0"/>
<stop stop-opacity=".58824" offset=".1"/>
<stop stop-opacity=".58824" offset=".9"/>
<stop offset="1"/>
</linearGradient>
<radialGradient id="radialGradient7462" cx="13.948" cy="44.893" r="43.199" gradientTransform="matrix(.48757 0 0 .024595 16.949 1114.6)" gradientUnits="userSpaceOnUse" xlink:href="#linearGradient3737"/>
<linearGradient id="linearGradient3737">
<stop stop-color="#fff" offset="0"/>
<stop stop-color="#fff" stop-opacity="0" offset="1"/>
</linearGradient>
<radialGradient id="radialGradient7464" cx="13.948" cy="44.893" r="43.199" gradientTransform="matrix(.44416 0 0 .024595 1090.3 -45.084)" gradientUnits="userSpaceOnUse" xlink:href="#linearGradient3737"/>
<linearGradient id="linearGradient4767" x1="2.7714" x2="50.528" y1="-28.642" y2="14.514" gradientUnits="userSpaceOnUse" xlink:href="#linearGradient3737"/>
<clipPath id="clipPath4156-4-1">
<path d="m27.046-55.695-14.214 13.321h0.06127l15.653 21.771 10.231-10.546c-0.2169-1.1522-11.311-23.67-11.732-24.546zm-17.399 16.313-14.888 14.062 21.229 17.515 10.385-10.577zm31.491 12.951-9.7413 9.7136 8.9448 12.458 7.7808-7.555zm-49.84 4.3788-13.754 12.982 26.283 13.846 0.06127-0.0617-0.12253-0.0617 9.8332-10.053-22.301-16.652zm38.015 7.4008-9.8025 9.7753 11.579 9.5594 7.6276-7.4008-8.6691-11.009zm20.187 5.674-7.3825 7.2158 6.1878 8.5418 5.8202-6.1365zm-32.195 6.3215-9.5575 9.4977 13.662 7.185 7.9339-7.6784zm23.312 2.3744-7.1068 6.9383 8.3628 6.9074 5.3608-5.674-0.06127-0.0925-0.0919 0.12335-6.4635-8.2026zm-8.7304 8.5418-7.5051 7.3392 10.354 5.4581c1.3975-1.321 5.6751-6.1229 5.8509-6.3215z" fill="#fff" opacity=".6"/>
</clipPath>
</defs>
<g transform="translate(0 -1074.5)">
<path d="m44.571 1074.5h-41.143c-1.8994 0-3.4286 1.5292-3.4286 3.4286v41.143c0 1.8995 1.5291 3.4286 3.4286 3.4286h41.143c1.8994 0 3.4286-1.5291 3.4286-3.4286v-41.143c0-1.8994-1.5291-3.4286-3.4286-3.4286z" opacity=".15"/>
<path d="m44.25 1074.9h-40.5c-1.8697 0-3.375 1.5053-3.375 3.375v40.5c0 1.8698 1.5053 3.375 3.375 3.375h40.5c1.8698 0 3.375-1.5052 3.375-3.375v-40.5c0-1.8697-1.5052-3.375-3.375-3.375z" opacity=".15"/>
<path d="m43.929 1075.3h-39.857c-1.8401 0-3.3214 1.4814-3.3214 3.3214v39.857c0 1.8401 1.4814 3.3214 3.3214 3.3214h39.857c1.8401 0 3.3214-1.4813 3.3214-3.3214v-39.857c0-1.84-1.4814-3.3214-3.3214-3.3214z" fill="url(#linearGradient4071)"/>
<path d="m5.6206 1077.7c-1.4282 0-2.5621 1.1442-2.5621 2.5855v34.29c0.54862 0.8422 1.4844 1.4059 2.5621 1.4059h36.894c1.0776 0 2.0134-0.5637 2.5621-1.4059v-34.29c0-1.4413-1.1338-2.5855-2.5621-2.5855z" fill="#dc0000" opacity=".9"/>
<path d="m4.9125 1076.9c-1.5583 0-2.834 1.2698-2.834 2.823v34.639c0 1.5533 1.2757 2.823 2.834 2.823h38.396c1.5583 0 2.834-1.2697 2.834-2.823v-34.639c0-1.5532-1.2757-2.823-2.834-2.823zm0 1.1598h38.396c0.94405 0 1.676 0.74 1.676 1.6632v34.639c0 0.9233-0.73196 1.6633-1.676 1.6633h-38.396c-0.94405 0-1.676-0.74-1.676-1.6633v-34.639c0-0.9232 0.73196-1.6632 1.676-1.6632z" color="#000000" fill="#1f2224" fill-opacity=".63265" style="text-decoration-line:none;text-indent:0;text-transform:none"/>
<path d="m0.75 1115.4v3c0 1.8401 1.4881 3.3281 3.3281 3.3281h39.844c1.8401 0 3.3281-1.488 3.3281-3.3281v-3c0 1.8401-1.4881 3.3281-3.3281 3.3281h-39.844c-1.8401 0-3.3281-1.488-3.3281-3.3281z" fill="url(#linearGradient4129)" opacity=".65818"/>
<rect x="2.6875" y="1114.6" width="42.125" height="2.125" rx="0" ry="2.125" fill="url(#radialGradient7462)" opacity=".55"/>
<rect transform="rotate(90)" x="1077.3" y="-45.043" width="38.375" height="2.125" rx="0" ry="2.125" fill="url(#radialGradient7464)" opacity=".669"/>
<g transform="matrix(.96139 0 0 .96139 1.6843 43.242)">
<path d="m37.278 1078.2-0.06405 0.064-7.8784 4.3844-15.185 8.4183v9.1491l2.3828 0.9535 1.4293 0.5723-0.98505 1.048-1.0481 1.1123-3.5895 3.7806-5.5911 5.9407c0.40764 0.363 0.83765 0.7147 1.2707 1.0481l8.1935-4.543 14.2-7.8784v-9.1491l-2.3828-0.9536-1.4293-0.5723 0.98505-1.0481 3.8436-4.0662 1.3022-1.3664 5.4956-5.8137 0.12707-0.096c-0.35275-0.3345-0.70753-0.673-1.0806-0.985zm-14.994 2.7c-8.4212 0-15.249 6.8272-15.249 15.248 0 4.1069 1.6214 7.8103 4.2574 10.547l4.2574-4.5115-2.4143-0.9535v-11.182l14.613-8.1011c-1.6977-0.6526-3.5366-1.048-5.4641-1.048zm11.786 0.6994-2.4144 2.5413-10.388 10.992 1.0166 1.0167 3.3354-3.5264 3.7806 1.4932v7.116l-14.677 8.1325-4.2249 2.3514 2.9541-3.1452 9.8485-10.388-1.0166-1.0166-3.3354 3.5265-3.7806-1.4934v-7.116zm-0.3497 4.5115-4.7016 5.0198 2.4143 0.9535v11.182l-13.47 7.4971c1.3683 0.4026 2.822 0.6354 4.3204 0.6354 8.4212 0 15.249-6.8272 15.249-15.248 0-3.8538-1.4547-7.3609-3.8121-10.039z" fill="#474747" fill-opacity=".8"/>
<path d="m36.497 1079.4-0.06028 0.06-7.4159 4.1271-14.294 7.924v8.6121l2.243 0.8976 1.3454 0.5387-0.92723 0.9865-0.98656 1.0469-3.3788 3.5587-5.2629 5.5921c0.38372 0.3416 0.78848 0.6727 1.1961 0.9865l7.7126-4.2763 13.367-7.416v-8.612l-2.243-0.8976-1.3454-0.5387 0.92723-0.9866 3.618-3.8276 1.2258-1.286 5.173-5.4725 0.11961-0.09c-0.33204-0.3148-0.666-0.6334-1.0172-0.9272zm-14.114 2.5415c-7.9269 0-14.353 6.4265-14.353 14.353 0 3.8659 1.5262 7.3519 4.0075 9.9278l4.0075-4.2467-2.2726-0.8975v-10.526l13.755-7.6255c-1.598-0.6143-3.329-0.9865-5.1433-0.9865zm11.094 0.6584-2.2726 2.3922-9.7785 10.347 0.9569 0.9569 3.1396-3.3195 3.5587 1.4057v6.6983l-13.816 7.6551-3.9769 2.2133 2.7807-2.9606 9.2704-9.7785-0.9569-0.9569-3.1396 3.3195-3.5587-1.4057v-6.6983zm-0.32917 4.2467-4.4256 4.7251 2.2726 0.8976v10.526l-12.679 7.0571c1.288 0.379 2.6563 0.5981 4.0668 0.5981 7.9269 0 14.353-6.4265 14.353-14.353 0-3.6276-1.3693-6.9289-3.5884-9.4494z" fill="#f8e10f"/>
</g>
<rect transform="matrix(.53462 0 0 .52384 2.1476 1093.8)" x="2" y="-30" width="75.966" height="69.024" rx="3.957" ry="3.957" clip-path="url(#clipPath4156-4-1)" fill="url(#linearGradient4767)" opacity=".65"/>
</g>
</svg>
