<?xml version="1.0" encoding="UTF-8"?>
<svg version="1.1" viewBox="0 0 96 96" xmlns="http://www.w3.org/2000/svg" xmlns:cc="http://creativecommons.org/ns#" xmlns:dc="http://purl.org/dc/elements/1.1/" xmlns:rdf="http://www.w3.org/1999/02/22-rdf-syntax-ns#" xmlns:xlink="http://www.w3.org/1999/xlink">
<title>Part of Lila HD icon Theme</title>
<metadata>
<rdf:RDF>
<cc:Work rdf:about="">
<dc:format>image/svg+xml</dc:format>
<dc:type rdf:resource="http://purl.org/dc/dcmitype/StillImage"/>
<dc:title>Part of Lila HD icon Theme</dc:title>
<dc:date>2017</dc:date>
<dc:creator>
<cc:Agent>
<dc:title>Cristian Pozzessere "ilnanny"</dc:title>
</cc:Agent>
</dc:creator>
<dc:subject>
<rdf:Bag>
<rdf:li>All</rdf:li>
</rdf:Bag>
</dc:subject>
<dc:description>a icon theme for gnu linux o.s.</dc:description>
</cc:Work>
</rdf:RDF>
</metadata>
<defs>
<linearGradient id="linearGradient3737">
<stop stop-color="#fff" offset="0"/>
<stop stop-color="#fff" stop-opacity="0" offset="1"/>
</linearGradient>
<linearGradient id="linearGradient4740" x1="45.448" x2="45.448" y1="92.54" y2="7.0165" gradientTransform="scale(1.0059 .99417)" gradientUnits="userSpaceOnUse" xlink:href="#ButtonShadow"/>
<linearGradient id="ButtonShadow" x1="45.448" x2="45.448" y1="92.54" y2="7.0165" gradientTransform="scale(1.0059 .99417)" gradientUnits="userSpaceOnUse">
<stop offset="0"/>
<stop stop-opacity=".58824" offset="1"/>
</linearGradient>
<filter id="filter3174-3-13" color-interpolation-filters="sRGB">
<feGaussianBlur stdDeviation="1.71"/>
</filter>
<linearGradient id="linearGradient4767" x1="2.7714" x2="50.528" y1="-28.642" y2="14.514" gradientUnits="userSpaceOnUse" xlink:href="#linearGradient3737"/>
<filter id="filter3174-53" color-interpolation-filters="sRGB">
<feGaussianBlur stdDeviation="1.71"/>
</filter>
<filter id="filter3174" color-interpolation-filters="sRGB">
<feGaussianBlur stdDeviation="1.71"/>
</filter>
<linearGradient id="linearGradient4071-3" x1="6" x2="90" y1="47" y2="47" gradientTransform="matrix(1.1071 0 0 1.1071 2.9011 -18.701)" gradientUnits="userSpaceOnUse">
<stop stop-color="#b2babc" offset="0"/>
<stop stop-color="#fff" offset=".25"/>
<stop stop-color="#96a1a4" offset=".5"/>
<stop stop-color="#fbf9f9" offset=".75"/>
<stop stop-color="#b2b9bc" offset="1"/>
</linearGradient>
<linearGradient id="linearGradient4129-2" x1="1.5" x2="94.5" y1="88.172" y2="88.172" gradientTransform="translate(8.044 -14.666)" gradientUnits="userSpaceOnUse">
<stop offset="0"/>
<stop stop-opacity=".58824" offset=".1"/>
<stop stop-opacity=".58824" offset=".9"/>
<stop offset="1"/>
</linearGradient>
<radialGradient id="radialGradient7462" cx="13.948" cy="44.893" r="43.199" gradientTransform="matrix(.97513 0 0 .049191 41.943 65.501)" gradientUnits="userSpaceOnUse" xlink:href="#linearGradient3737"/>
<radialGradient id="radialGradient7464" cx="13.948" cy="44.893" r="43.199" gradientTransform="matrix(.88833 0 0 .049191 16.879 -98.212)" gradientUnits="userSpaceOnUse" xlink:href="#linearGradient3737"/>
<clipPath id="clipPath4156-4-1">
<path d="m27.046-55.695-14.214 13.321h0.06127l15.653 21.771 10.231-10.546c-0.2169-1.1522-11.311-23.67-11.732-24.546zm-17.399 16.313-14.888 14.062 21.229 17.515 10.385-10.577zm31.491 12.951-9.7413 9.7136 8.9448 12.458 7.7808-7.555zm-49.84 4.3788-13.754 12.982 26.283 13.846 0.06127-0.0617-0.12253-0.0617 9.8332-10.053-22.301-16.652zm38.015 7.4008-9.8025 9.7753 11.579 9.5594 7.6276-7.4008-8.6691-11.009zm20.187 5.674-7.3825 7.2158 6.1878 8.5418 5.8202-6.1365zm-32.195 6.3215-9.5575 9.4977 13.662 7.185 7.9339-7.6784zm23.312 2.3744-7.1068 6.9383 8.3628 6.9074 5.3608-5.674-0.06127-0.0925-0.0919 0.12335-6.4635-8.2026zm-8.7304 8.5418-7.5051 7.3392 10.354 5.4581c1.3975-1.321 5.6751-6.1229 5.8509-6.3215z" fill="#fff" opacity=".6"/>
</clipPath>
</defs>
<g transform="translate(0 -6)">
<g transform="translate(-1e-6,32)">
<g transform="translate(-8.044 -17.334)">
<g transform="translate(251.29 -104.9)">
<g display="none">
<rect x="5" y="7" width="86" height="85" rx="6" ry="6" fill="url(#linearGradient4740)" filter="url(#filter3174-3-13)" opacity=".9"/>
</g>
</g>
<g transform="translate(0 6)">
<path d="m97.187-14.666h-82.286c-3.7988 0-6.8571 3.0583-6.8571 6.8571v82.286c0 3.7989 3.0583 6.8571 6.8571 6.8571h82.286c3.7989 0 6.8571-3.0583 6.8571-6.8571v-82.286c0-3.7989-3.0583-6.8571-6.8571-6.8571z" opacity=".15"/>
<path d="m96.544-13.916h-81c-3.7395 0-6.75 3.0105-6.75 6.75v81c0 3.7395 3.0105 6.75 6.75 6.75h81c3.7395 0 6.75-3.0105 6.75-6.75v-81c0-3.7395-3.0105-6.75-6.75-6.75z" opacity=".15"/>
<path d="m95.901-13.166h-79.714c-3.6801 0-6.6429 2.9627-6.6429 6.6429v79.714c0 3.6801 2.9627 6.6429 6.6429 6.6429h79.714c3.6801 0 6.6429-2.9627 6.6429-6.6429v-79.714c0-3.6801-2.9627-6.6429-6.6429-6.6429z" fill="url(#linearGradient4071-3)"/>
<path d="m19.285-8.2784c-2.8565 0-5.1241 2.2884-5.1241 5.171v68.58c1.0972 1.6845 2.9688 2.8117 5.1241 2.8117h73.787c2.1553 0 4.0269-1.1272 5.1241-2.8117v-68.58c0-2.8826-2.2676-5.171-5.1241-5.171z" fill="#64a4e2"/>
<path d="m17.869-9.9361c-3.1166 0-5.668 2.5395-5.668 5.646v69.278c0 3.1065 2.5513 5.646 5.668 5.646h76.792c3.1166 0 5.668-2.5395 5.668-5.646v-69.278c0-3.1065-2.5513-5.646-5.668-5.646zm0 2.3194h76.792c1.8881 0 3.352 1.4801 3.352 3.3266v69.278c0 1.8465-1.4639 3.3266-3.352 3.3266h-76.792c-1.8881 0-3.352-1.4801-3.352-3.3266v-69.278c0-1.8465 1.4639-3.3266 3.352-3.3266z" color="#000000" fill="#1f2224" fill-opacity=".63265" style="text-decoration-line:none;text-indent:0;text-transform:none"/>
<path d="m9.544 67.178v6c0 3.6801 2.9761 6.6562 6.6562 6.6562h79.688c3.6801 0 6.6563-2.9761 6.6563-6.6562v-6c0 3.6801-2.9761 6.6562-6.6563 6.6562h-79.688c-3.6801 0-6.6562-2.9761-6.6562-6.6562z" fill="url(#linearGradient4129-2)" opacity=".65818"/>
<rect x="13.419" y="65.584" width="84.25" height="4.25" rx="4.25" ry="4.25" fill="url(#radialGradient7462)" opacity=".55"/>
<rect transform="rotate(90)" x="-9.1056" y="-98.129" width="76.75" height="4.25" rx="4.25" ry="4.25" fill="url(#radialGradient7464)" opacity=".669"/>
<rect transform="matrix(1.0692 0 0 1.0477 12.339 23.813)" x="2" y="-30" width="75.966" height="69.024" rx="3.957" ry="3.957" clip-path="url(#clipPath4156-4-1)" fill="url(#linearGradient4767)" opacity=".65"/>
<g transform="matrix(2.076 0 0 2.076 5.1805 -115.07)">
<g transform="translate(0,48)">
<g transform="translate(1,1)">
<g opacity=".1">
<!-- color: #0055b5 -->
<g>
<path d="m31.348 35.988-7.367-20.934-7.328 20.934h-3.652l9.336-26h3.332l9.332 26h-3.652"/>
<path d="m27.2 23.988c-1.191-0.34-2.5-0.238-3.625 0.273-1.121 0.516-2.066 1.48-2.406 2.816-0.203 0.816-0.125 1.695 0.23 2.453 0.359 0.762 1.027 1.41 1.945 1.621 0.539 0.121 1.113 0.055 1.613-0.199 0.504-0.25 0.945-0.734 1.066-1.379 0.07-0.371 0.016-0.75-0.16-1.098-0.184-0.344-0.535-0.66-0.996-0.73-0.262-0.039-0.512 8e-3 -0.75 0.145-0.242 0.137-0.48 0.422-0.512 0.777l1.227 0.117c-8e-3 0.086-0.086 0.176-0.109 0.191-0.027 0.016-8e-3 8e-3 -0.035 4e-3 0.039 8e-3 0.047 0.012 0.082 0.082 0.039 0.07 0.059 0.199 0.043 0.281-0.043 0.227-0.176 0.383-0.402 0.496-0.23 0.109-0.547 0.145-0.797 0.098-0.52-0.121-0.871-0.457-1.098-0.941-0.227-0.477-0.281-1.09-0.152-1.605 0.242-0.949 0.879-1.605 1.723-1.992s1.879-0.469 2.781-0.211c2.617 0.742 4.04 3.645 3.691 6.313l1.223 0.16c0.414-3.219-1.285-6.734-4.582-7.672"/>
</g>
</g>
</g>
<!-- color: #0055b5 -->
<g fill="#fff">
<path d="m31.348 35.988-7.367-20.934-7.328 20.934h-3.652l9.336-26h3.332l9.332 26h-3.652"/>
<path d="m27.2 23.988c-1.191-0.34-2.5-0.238-3.625 0.273-1.121 0.516-2.066 1.48-2.406 2.816-0.203 0.816-0.125 1.695 0.23 2.453 0.359 0.762 1.027 1.41 1.945 1.621 0.539 0.121 1.113 0.055 1.613-0.199 0.504-0.25 0.945-0.734 1.066-1.379 0.07-0.371 0.016-0.75-0.16-1.098-0.184-0.344-0.535-0.66-0.996-0.73-0.262-0.039-0.512 8e-3 -0.75 0.145-0.242 0.137-0.48 0.422-0.512 0.777l1.227 0.117c-8e-3 0.086-0.086 0.176-0.109 0.191-0.027 0.016-8e-3 8e-3 -0.035 4e-3 0.039 8e-3 0.047 0.012 0.082 0.082 0.039 0.07 0.059 0.199 0.043 0.281-0.043 0.227-0.176 0.383-0.402 0.496-0.23 0.109-0.547 0.145-0.797 0.098-0.52-0.121-0.871-0.457-1.098-0.941-0.227-0.477-0.281-1.09-0.152-1.605 0.242-0.949 0.879-1.605 1.723-1.992s1.879-0.469 2.781-0.211c2.617 0.742 4.04 3.645 3.691 6.313l1.223 0.16c0.414-3.219-1.285-6.734-4.582-7.672"/>
</g>
</g>
</g>
</g>
</g>
</g>
<g display="none">
<rect x="5" y="7" width="86" height="85" rx="6" ry="6" fill="url(#linearGradient4740)" filter="url(#filter3174-53)" opacity=".9"/>
</g>
<g display="none">
<rect x="5" y="7" width="86" height="85" rx="6" ry="6" fill="url(#linearGradient4740)" filter="url(#filter3174)" opacity=".9"/>
</g>
</g>
<g transform="translate(0 42)">
<!-- color: #eeeeee --></g>
</svg>
