<?xml version="1.0" encoding="UTF-8"?>
<!-- Created with Inkscape (http://www.inkscape.org/) -->
<svg version="1.1" viewBox="0 0 96 96" xmlns="http://www.w3.org/2000/svg" xmlns:cc="http://creativecommons.org/ns#" xmlns:dc="http://purl.org/dc/elements/1.1/" xmlns:rdf="http://www.w3.org/1999/02/22-rdf-syntax-ns#" xmlns:xlink="http://www.w3.org/1999/xlink">
<script xlink:href=""/>
<defs>
<linearGradient id="linearGradient3904">
<stop stop-color="#fff" offset="0"/>
<stop stop-color="#fff" stop-opacity="0" offset="1"/>
</linearGradient>
<linearGradient id="linearGradient4154" x1="-26.434" x2="-15.63" y1="14.381" y2="30.013" gradientTransform="matrix(1.9955 0 0 1.9955 95.191 14.107)" gradientUnits="userSpaceOnUse" xlink:href="#linearGradient6711-3"/>
<linearGradient id="linearGradient6699-3">
<stop stop-color="#f764d1" offset="0"/>
<stop stop-color="#e11cc6" offset="1"/>
</linearGradient>
<linearGradient id="linearGradient4156" x1="-19.536" x2="-8.7596" y1="21.995" y2="30.07" gradientTransform="matrix(1.9955 0 0 1.9955 95.191 14.107)" gradientUnits="userSpaceOnUse" xlink:href="#linearGradient6699-3"/>
<linearGradient id="linearGradient6711-3">
<stop stop-color="#8badea" offset="0"/>
<stop stop-color="#3b7caf" offset="1"/>
</linearGradient>
<linearGradient id="linearGradient4158" x1="-17.863" x2="-20.822" y1="30.828" y2="25.015" gradientTransform="matrix(1.9955 0 0 1.9955 95.191 14.107)" gradientUnits="userSpaceOnUse" xlink:href="#linearGradient6719-4"/>
<linearGradient id="linearGradient6719-4">
<stop stop-color="#8cab2a" offset="0"/>
<stop stop-color="#d7e866" offset="1"/>
</linearGradient>
<linearGradient id="linearGradient4160" x1="-20.75" x2="-19.5" y1="29" y2="18.75" gradientUnits="userSpaceOnUse">
<stop stop-color="#fff" offset="0"/>
<stop stop-color="#fff" stop-opacity="0" offset="1"/>
</linearGradient>
<clipPath id="clipPath4156-4">
<path d="m27.046-55.695-14.214 13.321h0.06127l15.653 21.771 10.231-10.546c-0.2169-1.1522-11.311-23.67-11.732-24.546zm-17.399 16.313-14.888 14.062 21.229 17.515 10.385-10.577-16.726-21zm31.491 12.951-9.7413 9.7136 8.9448 12.458 7.7808-7.555-6.9843-14.617zm-49.84 4.3788-13.754 12.982 26.283 13.846 0.06127-0.0617-0.12253-0.0617 9.8332-10.053-22.301-16.652zm38.015 7.4008-9.8025 9.7753 11.579 9.5594 7.6276-7.4008-8.6691-11.009-0.73519-0.9251zm20.187 5.674-7.3825 7.2158 6.1878 8.5418 5.8202-6.1365-4.6256-9.6211zm-32.195 6.3215-9.5575 9.4977 13.662 7.185 7.9339-7.6784-12.039-9.0043zm23.312 2.3744-7.1068 6.9383 8.3628 6.9074 5.3608-5.674-0.06127-0.0925-0.0919 0.12335-6.4635-8.2026zm-8.7304 8.5418-7.5051 7.3392 10.354 5.4581c1.3975-1.321 5.6751-6.1229 5.8509-6.3215l-8.6997-6.4757z" fill="#fff" opacity=".6"/>
</clipPath>
<linearGradient id="linearGradient4129" x1="1.5" x2="94.5" y1="88.172" y2="88.172" gradientTransform="translate(57.313 -170.89)" gradientUnits="userSpaceOnUse">
<stop offset="0"/>
<stop stop-opacity=".58824" offset=".1"/>
<stop stop-opacity=".58824" offset=".9"/>
<stop offset="1"/>
</linearGradient>
<linearGradient id="linearGradient4071" x1="6" x2="90" y1="47" y2="47" gradientTransform="matrix(1.1071 0 0 1.1071 52.17 -174.93)" gradientUnits="userSpaceOnUse">
<stop stop-color="#adb8c1" offset="0"/>
<stop stop-color="#fff" offset=".25"/>
<stop stop-color="#90a6aa" offset=".5"/>
<stop stop-color="#f9fafb" offset=".75"/>
<stop stop-color="#adbbc1" offset="1"/>
</linearGradient>
<radialGradient id="radialGradient7462" cx="13.948" cy="44.893" r="43.199" gradientTransform="matrix(.97513 0 0 .049191 91.212 -90.723)" gradientUnits="userSpaceOnUse" xlink:href="#linearGradient3904"/>
<radialGradient id="radialGradient7464" cx="13.948" cy="44.893" r="43.199" gradientTransform="matrix(.88833 0 0 .049191 -140.16 -148.02)" gradientUnits="userSpaceOnUse" xlink:href="#linearGradient3904"/>
<linearGradient id="linearGradient7466" x1="2.7714" x2="50.528" y1="-28.642" y2="14.514" gradientUnits="userSpaceOnUse" xlink:href="#linearGradient3904"/>
<linearGradient id="linearGradient3890" x1="34" x2="82" y1="67.035" y2="67.035" gradientUnits="userSpaceOnUse" xlink:href="#linearGradient6711-3"/>
<linearGradient id="linearGradient3873" x1="66.158" x2="82" y1="72.645" y2="72.645" gradientUnits="userSpaceOnUse" xlink:href="#linearGradient6699-3"/>
<linearGradient id="linearGradient3898" x1="52.976" x2="66.158" y1="80.497" y2="80.497" gradientUnits="userSpaceOnUse" xlink:href="#linearGradient6719-4"/>
<filter id="filter999" x="-.032155" y="-.040889" width="1.0643" height="1.0818" color-interpolation-filters="sRGB">
<feGaussianBlur stdDeviation="0.64751465"/>
</filter>
</defs>
<metadata>
<rdf:RDF>
<cc:Work rdf:about="">
<dc:format>image/svg+xml</dc:format>
<dc:type rdf:resource="http://purl.org/dc/dcmitype/StillImage"/>
<dc:title/>
</cc:Work>
</rdf:RDF>
</metadata>
<g transform="translate(0,32)">
<g transform="matrix(.99266 0 0 .9812 .046185 -26.115)" enable-background="new">
<g transform="matrix(1.0074 0 0 1.0192 -65.21 138.85)">
<g transform="translate(15.447 49.536)">
<g transform="translate(-8.044 -17.334)">
<g transform="translate(-.030947 -3.4352)">
<g transform="matrix(.99687 0 0 .99688 .32911 -.38403)" stroke-width="1.0031">
<rect x="57.313" y="-170.89" width="96" height="2.5" fill="#fff" opacity=".31222"/>
<path d="m146.46-170.89h-82.286c-3.7988 0-6.8571 3.0583-6.8571 6.8571v82.286c0 3.7989 3.0583 6.8571 6.8571 6.8571h82.286c3.7989 0 6.8572-3.0583 6.8572-6.8571v-82.286c0-3.7989-3.0583-6.8571-6.8572-6.8571z" opacity=".15"/>
<path d="m145.81-170.14h-81c-3.7395 0-6.75 3.0105-6.75 6.75v81c0 3.7395 3.0105 6.75 6.75 6.75h81c3.7395 0 6.75-3.0105 6.75-6.75v-81c0-3.7395-3.0105-6.75-6.75-6.75z" opacity=".15"/>
<path d="m145.17-169.39h-79.714c-3.6801 0-6.6429 2.9627-6.6429 6.6428v79.714c0 3.6801 2.9627 6.6429 6.6429 6.6429h79.714c3.6802 0 6.6429-2.9627 6.6429-6.6429v-79.714c0-3.6801-2.9627-6.6428-6.6429-6.6428z" fill="url(#linearGradient4071)"/>
<rect x="63.615" y="-164.06" width="84.732" height="76.568" rx="4.2633" ry="4.2633" fill="#e7eaec" opacity=".865" style="paint-order:fill markers stroke"/>
<g transform="matrix(1.1071 0 0 1.1071 32.491 -232.49)" stroke-width="1.0031">
<g transform="matrix(.7526 0 0 .70677 109.74 14.791)" enable-background="new" stroke-width="1.0031">
<g transform="matrix(1.064 0 0 1.0397 .32488 -3.8378)" stroke-width="1.0031">
<g transform="matrix(1.809 0 0 1.9714 -160.14 -11.887)" enable-background="new" stroke-width="1.0031">
<path transform="matrix(1.0084 0 0 .99365 -.28309 .53491)" d="m57.915 46.238c-6.5792 0-12.558 1.8093-16.945 4.8125-4.3875 3.0032-7.219 7.2707-7.219 12.062v4.125c0 4.1676 2.1468 7.9415 5.5879 10.812 3.3503 2.7952 7.9858 4.7342 13.2 5.5625 0.01271 2e-3 0.01749 0.02925 0.03021 0.03125a0.97125 1.0049 0 0 0 0.30205 0.125c3.6356 0.73594 9.2697 0.68157 13.169-0.625 0.01862-0.0048 0.04179 0.0048 0.06041 0 0.36851-0.09586 0.73311-0.1981 1.1176-0.3125 0.17809-0.0515 0.25828-0.08968 0.27185-0.09375 0.22138-0.06794 0.26634-0.0985 0.15102-0.0625 0.42384-0.12969 0.85307-0.27823 1.2988-0.4375a0.97125 1.0049 0 0 0 0.03021 0c0.13449-0.04812 0.2353-0.08903 0.33226-0.125 0.36572-0.13584 0.70512-0.2588 1.0572-0.40625 0.29594-0.12254 0.59904-0.26666 0.90615-0.40625 0.16231-0.07498 0.31568-0.15174 0.45308-0.21875 8e-3 -0.0038 0.02227 0.0038 0.03021 0 0.45475-0.2172 0.93238-0.46606 1.3894-0.71875 0.24037-0.13563 0.22551-0.14801 0.12082-0.09375 0.0075-0.0042 0.02275 0.0042 0.03021 0 2.6625-1.498 4.9846-3.4287 6.5847-5.9062 0.19291-0.29066 0.32739-0.53284 0.45308-0.75a0.97125 1.0049 0 0 0 0-0.03125c0.05385-0.09597 0.12907-0.21897 0.21144-0.375 0.0052-0.0099-0.0053-0.02108 0-0.03125 0.15322-0.28828 0.30075-0.57123 0.42287-0.84375a0.97125 1.0049 0 0 0 0-0.03125c0.0091-0.02126-0.0078-0.01122 0-0.03125 0.0094-0.02191-8e-3 -0.01072 0-0.03125 0.18868-0.42545 0.39748-0.85223 0.54369-1.3125 0.01006-0.03204 0.03643-0.1097 0.06041-0.1875 0.0036-0.01184-0.0038-0.01838 0-0.03125 0.23906-0.80494 0.41409-1.6656 0.48328-2.5312 0.0017-0.0206-0.0016-0.04187 0-0.0625 0.0046-0.0106 0.0175-0.02092 0.03021-0.15625a0.97125 1.0049 0 0 0 0-0.09375v-4.75c0-4.7917-2.8316-9.0593-7.219-12.062s-10.365-4.8125-16.945-4.8125z" fill="#050505" filter="url(#filter999)" opacity=".285"/>
<path d="m81.174 62.905c-2.751-6.758-12.079-11.734-23.173-11.734-11.094 0-20.422 4.976-23.173 11.734h-0.82774v4.1307c0 8.7608 10.747 15.862 24.001 15.862 13.255 0 23.999-7.1012 23.999-15.862v-4.1307z" fill="url(#linearGradient3890)"/>
<path d="m82 62.905c0 8.7621-10.744 15.863-23.999 15.863-13.255 0-24.001-7.1012-24.001-15.863 0-8.7621 10.747-15.863 24.001-15.863 13.255 0 23.999 7.1012 23.999 15.863z" fill="url(#linearGradient4154)"/>
<path d="m82 67.654-0.0307-4.3232c-2.6024 8.9815-8.4542 12.786-15.812 14.649v3.98c7.9635-2.0028 15.09-6.5628 15.842-14.306z" fill="url(#linearGradient3873)"/>
<path d="m82 62.905c-0.54969 10.136-13.086 14.758-15.887 14.935l-8.1134-14.935h24z" fill="url(#linearGradient4156)"/>
<path d="m52.977 82.551v-4.1294c4.5167 0.58818 8.6605 0.69182 13.136-0.42666l0.0448 3.9665c-3.7505 1.2302-9.6177 1.2881-13.181 0.59087v-0.0013z" fill="url(#linearGradient3898)"/>
<path d="m57.999 62.907 8.1134 14.933c-4.9677 1.8937-13.136 0.58145-13.136 0.58145z" fill="url(#linearGradient4158)"/>
<path transform="matrix(2.0143 0 0 2.0159 95.54 13.61)" d="m-6.875 24.375a11.75 7.75 0 1 1-23.5 0 11.75 7.75 0 1 1 23.5 0z" color="#000000" display="block" fill="none" opacity=".25" stroke="url(#linearGradient4160)" stroke-width=".49781"/>
</g>
</g>
</g>
</g>
<path d="m67.138-166.16c-3.1166 0-5.668 2.5395-5.668 5.646v69.278c0 3.1065 2.5513 5.646 5.668 5.646h76.792c3.1166 0 5.668-2.5395 5.668-5.646v-69.278c0-3.1065-2.5514-5.646-5.668-5.646zm0 2.3194h76.792c1.8881 0 3.352 1.4801 3.352 3.3266v69.278c0 1.8465-1.4639 3.3266-3.352 3.3266h-76.792c-1.8881 0-3.352-1.4801-3.352-3.3266v-69.278c0-1.8465 1.4639-3.3266 3.352-3.3266z" color="#000000" enable-background="accumulate" fill="#1f2124" fill-opacity=".63265" style="text-decoration-line:none;text-indent:0;text-transform:none"/>
<path d="m58.813-89.046v6c0 3.6801 2.9761 6.6562 6.6562 6.6562h79.687c3.6802 0 6.6563-2.9761 6.6563-6.6562v-6c0 3.6801-2.9761 6.6562-6.6563 6.6562h-79.687c-3.6801 0-6.6562-2.9761-6.6562-6.6562z" fill="url(#linearGradient4129)" opacity=".65818"/>
<rect x="62.688" y="-90.64" width="84.25" height="4.25" rx="4.2633" ry="4.2633" fill="url(#radialGradient7462)" opacity=".55"/>
<rect transform="rotate(90)" x="-166.14" y="-147.94" width="76.75" height="4.25" rx="4.2633" ry="4.2633" fill="url(#radialGradient7464)" opacity=".55"/>
<rect transform="matrix(.9093 0 0 .92838 61.658 -136.4)" x="2" y="-30" width="92" height="92" rx="3.9694" ry="3.9694" clip-path="url(#clipPath4156-4)" fill="url(#linearGradient7466)" opacity=".843"/>
</g>
<g transform="translate(-111.01 -37.907)"></g>
</g>
</g>
</g>
</g>
</g>
</g>
</svg>
