<?xml version="1.0" encoding="UTF-8"?>
<svg width="96" height="96" version="1.1" viewBox="0 0 72 72" xmlns="http://www.w3.org/2000/svg" xmlns:cc="http://creativecommons.org/ns#" xmlns:dc="http://purl.org/dc/elements/1.1/" xmlns:rdf="http://www.w3.org/1999/02/22-rdf-syntax-ns#" xmlns:xlink="http://www.w3.org/1999/xlink">
<metadata>
<rdf:RDF>
<cc:Work rdf:about="">
<dc:format>image/svg+xml</dc:format>
<dc:type rdf:resource="http://purl.org/dc/dcmitype/StillImage"/>
<dc:title/>
<dc:date>2019</dc:date>
<dc:creator>
<cc:Agent>
<dc:title>Cristian Pozzessere  &lt; ilnanny &gt;</dc:title>
</cc:Agent>
</dc:creator>
<dc:subject>
<rdf:Bag>
<rdf:li>ilnanny</rdf:li>
<rdf:li>lila_hd</rdf:li>
<rdf:li>lila-hd</rdf:li>
<rdf:li>lila hd icon theme</rdf:li>
<rdf:li>Lila-HD-Icon-Theme lila hd icon lila icon</rdf:li>
</rdf:Bag>
</dc:subject>
<dc:description>Playing with Inkscape on Gnu/Linux O. S.</dc:description>
<dc:contributor>
<cc:Agent>
<dc:title>In the night, alone like a dog.</dc:title>
</cc:Agent>
</dc:contributor>
</cc:Work>
</rdf:RDF>
</metadata>
<defs>
<linearGradient id="linearGradient4071" x1="6" x2="90" y1="47" y2="47" gradientTransform="matrix(1.106 0 0 1.1071 -5.2385 -3.3707)" gradientUnits="userSpaceOnUse">
<stop stop-color="#b2babc" offset="0"/>
<stop stop-color="#fff" offset=".25"/>
<stop stop-color="#96a1a4" offset=".5"/>
<stop stop-color="#fbf9f9" offset=".75"/>
<stop stop-color="#b2b9bc" offset="1"/>
</linearGradient>
<linearGradient id="linearGradient4129" x1="1.5" x2="94.5" y1="88.172" y2="88.172" gradientTransform="matrix(.99896 0 0 1 -.10105 .66505)" gradientUnits="userSpaceOnUse">
<stop offset="0"/>
<stop stop-opacity=".58824" offset=".1"/>
<stop stop-opacity=".58824" offset=".9"/>
<stop offset="1"/>
</linearGradient>
<radialGradient id="radialGradient7462" cx="13.948" cy="44.893" r="43.199" gradientTransform="matrix(.97412 0 0 .049191 33.762 80.832)" gradientUnits="userSpaceOnUse" xlink:href="#linearGradient3737"/>
<linearGradient id="linearGradient3737">
<stop stop-color="#fff" offset="0"/>
<stop stop-color="#fff" stop-opacity="0" offset="1"/>
</linearGradient>
<radialGradient id="radialGradient7464" cx="13.948" cy="44.893" r="43.199" gradientTransform="matrix(.88833 0 0 .049139 32.21 -89.973)" gradientUnits="userSpaceOnUse" xlink:href="#linearGradient3737"/>
<linearGradient id="linearGradient4767" x1="2.7714" x2="50.528" y1="-28.642" y2="14.514" gradientTransform="matrix(1.0042 0 0 1.0052 -.21821 -.047555)" gradientUnits="userSpaceOnUse" xlink:href="#linearGradient3737"/>
<clipPath id="clipPath4156-4-1">
<path d="m27.046-55.695-14.214 13.321h0.06127l15.653 21.771 10.231-10.546c-0.2169-1.1522-11.311-23.67-11.732-24.546zm-17.399 16.313-14.888 14.062 21.229 17.515 10.385-10.577zm31.491 12.951-9.7413 9.7136 8.9448 12.458 7.7808-7.555zm-49.84 4.3788-13.754 12.982 26.283 13.846 0.06127-0.0617-0.12253-0.0617 9.8332-10.053-22.301-16.652zm38.015 7.4008-9.8025 9.7753 11.579 9.5594 7.6276-7.4008-8.6691-11.009zm20.187 5.674-7.3825 7.2158 6.1878 8.5418 5.8202-6.1365zm-32.195 6.3215-9.5575 9.4977 13.662 7.185 7.9339-7.6784zm23.312 2.3744-7.1068 6.9383 8.3628 6.9074 5.3608-5.674-0.06127-0.0925-0.0919 0.12335-6.4635-8.2026zm-8.7304 8.5418-7.5051 7.3392 10.354 5.4581c1.3975-1.321 5.6751-6.1229 5.8509-6.3215z" fill="#fff" opacity=".6"/>
</clipPath>
</defs>
<g transform="matrix(.75 0 0 .75 0 -769.89)">
<g transform="translate(-.14896 1026.1)">
<g transform="translate(.25 -.25003)">
<path d="m88.828 0.91503h-81.857c-3.7791 0-6.8214 3.0424-6.8214 6.8214v81.857c0 3.7791 3.0424 6.8214 6.8214 6.8214h81.857c3.7791 0 6.8214-3.0424 6.8214-6.8214v-81.857c0-3.7791-3.0424-6.8214-6.8214-6.8214z" opacity=".15"/>
<path d="m88.188 1.6611h-80.578c-3.72 0-6.7148 2.9948-6.7148 6.7148v80.578c0 3.72 2.9948 6.7148 6.7148 6.7148h80.578c3.72 0 6.7148-2.9948 6.7148-6.7148v-80.578c0-3.72-2.9948-6.7148-6.7148-6.7148z" opacity=".15"/>
<path d="m87.548 2.4072h-79.299c-3.661 0-6.6083 2.9473-6.6083 6.6083v79.299c0 3.661 2.9473 6.6083 6.6083 6.6083h79.299c3.661 0 6.6083-2.9473 6.6083-6.6083v-79.299c0-3.661-2.9473-6.6083-6.6083-6.6083z" fill="url(#linearGradient4071)"/>
<rect x="5.8398" y="7.1843" width="84.558" height="77.021" rx="2.3669" ry="2.998" fill="#e2e6ea" fill-opacity=".9717"/>
<path d="m9.9229 5.6199c-3.1004 0-5.6384 2.5263-5.6384 5.6166v68.917c0 3.0903 2.5381 5.6166 5.6384 5.6166h76.392c3.1004 0 5.6384-2.5263 5.6384-5.6166v-68.917c0-3.0903-2.5381-5.6166-5.6384-5.6166zm0 2.3074h76.392c1.8783 0 3.3346 1.4724 3.3346 3.3092v68.917c0 1.8369-1.4563 3.3092-3.3346 3.3092h-76.392c-1.8783 0-3.3346-1.4724-3.3346-3.3092v-68.917c0-1.8369 1.4563-3.3092 3.3346-3.3092z" color="#000000" fill="#202223" fill-opacity=".93689" style="text-decoration-line:none;text-indent:0;text-transform:none"/>
<path d="m1.6411 82.333v5.9688c0 3.661 2.9606 6.6216 6.6216 6.6216h79.272c3.661 0 6.6216-2.9606 6.6216-6.6216v-5.9688c0 3.661-2.9606 6.6216-6.6216 6.6216h-79.272c-3.661 0-6.6216-2.9606-6.6216-6.6216z" fill="url(#linearGradient4129)" opacity=".65818"/>
<rect x="5.496" y="80.747" width="83.811" height="4.2279" rx="4.25" ry="4.25" fill="url(#radialGradient7462)" opacity=".55"/>
<rect transform="rotate(90)" x="6.4461" y="-89.765" width="76.35" height="4.2279" rx="4.2456" ry="4.2456" fill="url(#radialGradient7464)" opacity=".669"/>
<g transform="matrix(1.3333 0 0 1.3333 -208.39 394.11)">
<path d="m182.09-287.99c-2.2286 0.0916-4.4744 0.93994-6.1028 3.1275v4e-3l-7.4397 10.009c-6.2e-4 6.3e-4 6.2e-4 2e-3 0 4e-3l-4e-3 4e-3c-1.7666 2.3771-1.6031 6.2805-4e-3 8.4328 1.1201 1.5077 2.686 2.2569 4.3344 2.6824v10.603c0 4.8181 4.0818 8.8756 8.9276 8.8756h1.278c2.1585 0 4.099-0.89165 5.6614-2.2105l6.379 8.5815v4e-3c1.6297 2.19 3.8787 3.0378 6.1096 3.1275 2.4736 0.10155 4.9896-0.70218 6.797-3.1313l7.4404-10.009v-4e-3c1.7697-2.3771 1.6081-6.283 7e-3 -8.4366-1.1201-1.5078-2.686-2.2569-4.3351-2.6824v-10.603c0-4.8174-4.0811-8.8749-8.9269-8.8749h-1.278c-2.1585 0-4.099 0.89164-5.6614 2.2105l-6.379-8.5822c-1.8074-2.4291-4.3232-3.2329-6.797-3.1313z" fill="#4a4a4a" stroke-width=".15851"/>
<path d="m182.38-281.1c-0.71332 0.0291-1.3591 0.33808-1.7164 0.82106l-7.4007 10.016c-0.37833 0.51023-0.37894 1.1393-1e-3 1.6501 0.3771 0.51085 1.0743 0.82477 1.8291 0.82415h3.5962v15.853c0 1.756 1.413 3.169 3.169 3.169h1.2706c1.756 0 3.169-1.413 3.169-3.169v-15.853h3.5964c0.7548 6.4e-4 1.452-0.31332 1.8291-0.82415 0.37771-0.51084 0.37709-1.1399-1e-3 -1.6501l-7.4006-10.016c-0.39753-0.53684-1.1468-0.85449-1.9393-0.82106z" opacity=".3" stroke-width=".15851"/>
<path d="m182.38-282.29c-0.71332 0.0291-1.3591 0.33808-1.7164 0.82106l-7.4007 10.016c-0.37833 0.51023-0.37894 1.1393-1e-3 1.6501 0.3771 0.51085 1.0743 0.82477 1.8291 0.82415h3.5962v15.853c0 1.756 1.413 3.169 3.169 3.169h1.2706c1.756 0 3.169-1.413 3.169-3.169v-15.853h3.5964c0.7548 6.4e-4 1.452-0.31332 1.8291-0.82415 0.37771-0.51084 0.37709-1.1399-1e-3 -1.6501l-7.4007-10.016c-0.39752-0.53685-1.1468-0.85449-1.9393-0.82106z" fill="#ffc72e" stroke-width=".15851"/>
<path d="m200.88-271.59c-1.756 0-3.169 1.413-3.169 3.169v15.853h-3.5964c-0.7548-6.4e-4 -1.452 0.31332-1.8291 0.82415-0.37771 0.51083-0.37709 1.1399 1e-3 1.6501l7.4006 10.016c0.35727 0.48298 1.0031 0.79196 1.7164 0.82106 0.79257 0.0334 1.5418-0.28422 1.9393-0.82106l7.4007-10.016c0.37832-0.51023 0.37894-1.1393 1e-3 -1.6501-0.37709-0.51085-1.0743-0.82477-1.8291-0.82415h-3.5964v-15.853c0-1.756-1.413-3.169-3.169-3.169z" opacity=".3" stroke-width=".15851"/>
<path d="m200.88-272.78c-1.756 0-3.169 1.413-3.169 3.169v15.853h-3.5964c-0.7548-6.4e-4 -1.452 0.31332-1.8291 0.82415-0.37771 0.51083-0.37709 1.1399 1e-3 1.6501l7.4007 10.016c0.35727 0.48298 1.0031 0.79196 1.7164 0.82106 0.79257 0.0334 1.5418-0.28422 1.9393-0.82106l7.4007-10.016c0.37832-0.51023 0.37894-1.1393 1e-3 -1.6501-0.37709-0.51085-1.0743-0.82477-1.8291-0.82415h-3.5964v-15.853c0-1.756-1.413-3.169-3.169-3.169z" fill="#17a185" stroke-width=".15851"/>
<path d="m167.3-271.25c-0.12575 1.7751 0.31794 3.5951 1.239 4.8346 1.1201 1.5077 2.6861 2.2569 4.3345 2.6823v-1.1889c-1.6484-0.42539-3.2143-1.1746-4.3345-2.6823-0.71536-0.96267-1.1424-2.2757-1.239-3.6458zm5.5735 16.931v1.1889c0 4.818 4.0817 8.8756 8.9276 8.8756h1.278c2.1585 0 4.099-0.89164 5.6612-2.2106l6.379 8.5817v4e-3c1.6297 2.1901 3.8787 3.0379 6.1097 3.1278 2.4737 0.10155 4.9895-0.70233 6.797-3.1315l7.4404-10.009v-4e-3c0.9791-1.3151 1.3659-3.0981 1.2459-4.7935-0.0926 1.3098-0.49438 2.595-1.2459 3.6046v4e-3l-7.4404 10.009c-1.8074 2.4291-4.3233 3.233-6.797 3.1315-2.231-0.0898-4.4799-0.93762-6.1097-3.1278v-4e-3l-6.379-8.5817c-1.5623 1.3189-3.5028 2.2106-5.6612 2.2106h-1.278c-4.8458 0-8.9276-4.0576-8.9276-8.8756z" opacity=".3" stroke-width=".15851"/>
<path d="m182.56-288c-0.15476-9.5e-4 -0.30956 2e-3 -0.46417 8e-3h-7e-3c-2.2285 0.0916-4.4744 0.9401-6.1029 3.1278v4e-3l-7.4397 10.009c-6.3e-4 6.4e-4 6.4e-4 2e-3 0 4e-3l-4e-3 4e-3c-0.97644 1.3139-1.3622 3.0939-1.2427 4.7871 0.0926-1.3073 0.49351-2.59 1.2427-3.5982l4e-3 -4e-3c6.4e-4 -1e-3 -6.3e-4 -3e-3 0-4e-3l7.4397-10.009v-4e-3c1.6285-2.1876 3.8744-3.0361 6.1029-3.1278h7e-3c2.4737-0.10155 4.9895 0.70233 6.797 3.1315l6.379 8.5822c1.5623-1.3189 3.5028-2.2106 5.6612-2.2106h1.278c4.8458 0 8.9269 4.0576 8.9269 8.8748v-1.1889c0-4.8174-4.081-8.8748-8.9269-8.8748h-1.278c-2.1585 0-4.0991 0.89164-5.6612 2.2106l-6.379-8.5822c-1.6945-2.2773-4.0114-3.126-6.3328-3.1396zm28.578 28.989v1.1889c1.649 0.42539 3.215 1.1746 4.3352 2.6823 0.71506 0.96207 1.1418 2.2741 1.2386 3.643 0.1254-1.7741-0.31774-3.593-1.2386-4.8319-1.1201-1.5077-2.6862-2.2569-4.3352-2.6823z" fill="#fff" opacity=".3" stroke-width=".15851"/>
</g>
<rect transform="matrix(1.0637 0 0 1.0422 4.4218 39.194)" x="2" y="-30" width="75.966" height="69.024" rx="3.9736" ry="3.9777" clip-path="url(#clipPath4156-4-1)" fill="url(#linearGradient4767)" opacity=".65"/>
</g>
</g>
</g>
</svg>
