<?xml version="1.0" encoding="UTF-8"?>
<!-- Created with Inkscape (http://www.inkscape.org/) -->
<svg version="1.0" viewBox="0 0 96 96" xmlns="http://www.w3.org/2000/svg" xmlns:cc="http://creativecommons.org/ns#" xmlns:dc="http://purl.org/dc/elements/1.1/" xmlns:rdf="http://www.w3.org/1999/02/22-rdf-syntax-ns#" xmlns:xlink="http://www.w3.org/1999/xlink">
<defs>
<linearGradient id="ButtonShadow" x1="45.448" x2="45.448" y1="92.54" y2="7.0165" gradientTransform="scale(1.0059 .99417)" gradientUnits="userSpaceOnUse">
<stop offset="0"/>
<stop stop-opacity=".58824" offset="1"/>
</linearGradient>
<filter id="filter3174" color-interpolation-filters="sRGB">
<feGaussianBlur stdDeviation="1.71"/>
</filter>
<linearGradient id="linearGradient3837" x1="2.7714" x2="50.528" y1="-28.642" y2="14.514" gradientUnits="userSpaceOnUse">
<stop stop-color="#fff" offset="0"/>
<stop stop-color="#fff" stop-opacity="0" offset="1"/>
</linearGradient>
<radialGradient id="radialGradient3833" cx="13.948" cy="44.893" r="43.199" gradientTransform="matrix(.88833 0 0 .049191 16.069 -98.752)" gradientUnits="userSpaceOnUse" xlink:href="#linearGradient4133"/>
<radialGradient id="radialGradient3831" cx="13.948" cy="44.893" r="43.199" gradientTransform="matrix(.97513 0 0 .049191 41.943 65.501)" gradientUnits="userSpaceOnUse" xlink:href="#linearGradient4133"/>
<linearGradient id="linearGradient3829" x1="1.5" x2="94.5" y1="88.172" y2="88.172" gradientTransform="translate(8.044 -14.666)" gradientUnits="userSpaceOnUse">
<stop offset="0"/>
<stop stop-opacity=".58824" offset=".1"/>
<stop stop-opacity=".58824" offset=".9"/>
<stop offset="1"/>
</linearGradient>
<radialGradient id="radialGradient3827" cx="48" cy="-27" r="42" gradientTransform="matrix(-1.0722 0 0 -.87502 199.46 -19.126)" gradientUnits="userSpaceOnUse">
<stop stop-color="#fff" offset="0"/>
<stop stop-color="#fff" offset=".8"/>
<stop stop-color="#fff" stop-opacity="0" offset="1"/>
</radialGradient>
<linearGradient id="linearGradient3825" x1="6" x2="90" y1="47" y2="47" gradientTransform="matrix(1.1071 0 0 1.1071 2.9011 -18.701)" gradientUnits="userSpaceOnUse">
<stop stop-color="#adb4c1" offset="0"/>
<stop stop-color="#fff" offset=".25"/>
<stop stop-color="#9095aa" offset=".5"/>
<stop stop-color="#fbf9f9" offset=".75"/>
<stop stop-color="#adb3c1" offset="1"/>
</linearGradient>
<filter id="filter3174-36" color-interpolation-filters="sRGB">
<feGaussianBlur stdDeviation="1.71"/>
</filter>
<filter id="filter3174-3" color-interpolation-filters="sRGB">
<feGaussianBlur stdDeviation="1.71"/>
</filter>
<linearGradient id="linearGradient4133">
<stop stop-color="#fff" offset="0"/>
<stop stop-color="#fff" stop-opacity="0" offset="1"/>
</linearGradient>
<clipPath id="clipPath4156-4">
<path d="m27.046-55.695-14.214 13.321h0.06127l15.653 21.771 10.231-10.546c-0.2169-1.1522-11.311-23.67-11.732-24.546zm-17.399 16.313-14.888 14.062 21.229 17.515 10.385-10.577-16.726-21zm31.491 12.951-9.7413 9.7136 8.9448 12.458 7.7808-7.555-6.9843-14.617zm-49.84 4.3788-13.754 12.982 26.283 13.846 0.06127-0.0617-0.12253-0.0617 9.8332-10.053-22.301-16.652zm38.015 7.4008-9.8025 9.7753 11.579 9.5594 7.6276-7.4008-8.6691-11.009-0.73519-0.9251zm20.187 5.674-7.3825 7.2158 6.1878 8.5418 5.8202-6.1365-4.6256-9.6211zm-32.195 6.3215-9.5575 9.4977 13.662 7.185 7.9339-7.6784-12.039-9.0043zm23.312 2.3744-7.1068 6.9383 8.3628 6.9074 5.3608-5.674-0.06127-0.0925-0.0919 0.12335-6.4635-8.2026zm-8.7304 8.5418-7.5051 7.3392 10.354 5.4581c1.3975-1.321 5.6751-6.1229 5.8509-6.3215l-8.6997-6.4757z" fill="#fff" opacity=".6"/>
</clipPath>
<filter id="filter3174-8" color-interpolation-filters="sRGB">
<feGaussianBlur stdDeviation="1.71"/>
</filter>
</defs>
<metadata>
<rdf:RDF>
<cc:Work rdf:about="">
<dc:format>image/svg+xml</dc:format>
<dc:type rdf:resource="http://purl.org/dc/dcmitype/StillImage"/>
<dc:title/>
</cc:Work>
</rdf:RDF>
</metadata>
<g transform="translate(-1e-6,32)">
<g transform="translate(-8.044 -17.334)">
<path d="m97.187-14.666h-82.286c-3.7988 0-6.8571 3.0583-6.8571 6.8571v82.286c0 3.7989 3.0583 6.8571 6.8571 6.8571h82.286c3.7989 0 6.8571-3.0583 6.8571-6.8571v-82.286c0-3.7989-3.0583-6.8571-6.8571-6.8571z" opacity=".15"/>
<path d="m96.544-13.916h-81c-3.7395 0-6.75 3.0105-6.75 6.75v81c0 3.7395 3.0105 6.75 6.75 6.75h81c3.7395 0 6.75-3.0105 6.75-6.75v-81c0-3.7395-3.0105-6.75-6.75-6.75z" opacity=".15"/>
<path d="m95.901-13.166h-79.714c-3.6801 0-6.6429 2.9627-6.6429 6.6429v79.714c0 3.6801 2.9627 6.6429 6.6429 6.6429h79.714c3.6801 0 6.6429-2.9627 6.6429-6.6429v-79.714c0-3.6801-2.9627-6.6429-6.6429-6.6429z" fill="url(#linearGradient3825)"/>
<rect x="13.837" y="-8.0546" width="84.846" height="77.52" ry="4.25" fill="#be1010" stroke="#fff" stroke-linecap="round" stroke-linejoin="round" stroke-width=".4"/>
<g transform="matrix(1.1071 0 0 1.1071 -107.81 -18.148)">
<path d="m112 4.5c-3.324 0-6 2.676-6 6v15h1v-15c0-2.7873 2.2127-5 5-5h72c2.7873 0 5 2.2127 5 5v15h1v-15c0-3.324-2.676-6-6-6h-72z" fill="url(#radialGradient3827)" opacity=".45"/>
</g>
<g transform="translate(5.099 -17.618)">
<path d="m25.5 10.938c-1.2185 0.18677-2.0363 1.1439-2.3438 2.0625-0.29639 0.88564-0.29206 1.7506-0.21875 2.5 5.5e-5 0.03124-5.3e-5 0.06251 0 0.09375 0.02037 11.901-0.04158 23.81 0.03125 35.719a1.0336 1.0336 0 0 0 0 0.125c0.13557 1.2166 1.042 1.9956 2.0312 2.3438-0.50246 0.51993-1.036 1.0066-1.5312 1.5312a1.0336 1.0336 0 0 0-0.25 0.4375c-0.64128 2.1682-0.15989 4.2734-0.28125 5.9688a1.0336 1.0336 0 0 0 0 0.0625c0.02112 7.496-0.04219 14.99 0.03125 22.5a1.0336 1.0336 0 0 0 0 0.09375c0.26574 2.5144 3.4388 3.4048 5.1875 1.7812l0.03125 0.03125c16.581-11.63 33.225-23.205 49.781-34.875a1.0336 1.0336 0 0 0 0.09375-0.09375c0.92056-0.84098 1.1278-2.0892 0.8125-3.0938-0.28871-0.91995-0.97749-1.6841-1.875-2.125-0.0055-0.0027 0.0055-0.0286 0-0.03125-16.513-11.535-32.993-23.124-49.531-34.625a1.0336 1.0336 0 0 0-0.09375-0.0625c-0.612-0.32989-1.2631-0.37181-1.7812-0.34375a1.0336 1.0336 0 0 0-0.09375 0zm7.5312 16.531 7 4.9062c-2.4877-0.76386-5.1065 0.01995-7 1.75v-6.6562zm23.781 16.656 6.9375 4.875-6.5625 4.5938c1.3457-1.4411 1.9569-3.3866 1.7812-5.25-0.15338-1.6273-0.96526-3.0898-2.1562-4.2188zm-15.844 0.78125 5.7812 4.125-5.7188 4.0625c0.0064-2.7045 0.07834-5.4221-0.0625-8.1875zm-7.9375 18.844c1.7199 1.7751 4.224 2.7412 6.75 2.0312l-6.75 4.75v-6.7812z" opacity=".05"/>
<path d="m25.656 11.969c-1.6994 0.26049-1.8308 2.162-1.6875 3.5289 0.02087 11.937-0.04172 23.883 0.03125 35.815 0.20932 1.8785 2.8694 2.2707 3.8263 0.73615l10.392-10.392c3.4375 2.4583 6.875 4.9167 10.312 7.375-2.8333 2.0208-5.6667 4.0417-8.5 6.0625-0.06462-3.5589 0.12796-7.1454-0.09375-10.688-0.44348-1.695-2.8634-1.8658-3.7633-0.4544-3.9646 4.039-8.0884 7.9829-11.955 12.079-0.54055 1.8276-0.11393 3.8338-0.25 5.7347 0.02114 7.5038-0.04207 15.018 0.03125 22.515 0.18125 1.715 2.4885 2.2774 3.6068 1.0596 16.583-11.631 33.216-23.205 49.768-34.872 1.2432-1.1357 0.44949-3.0867-0.96966-3.6505-16.514-11.536-32.995-23.132-49.53-34.631-0.38122-0.20549-0.79564-0.24166-1.2188-0.21875zm6.3438 13.531c11.188 7.8333 22.375 15.667 33.562 23.5-11.188 7.8333-22.375 15.667-33.562 23.5v-13c0.25566 3.6323 4.1361 6.3847 7.6562 5.2812 2.6055-1.0968 4.6904-3.1422 7.0605-4.6721 3.1524-2.3057 6.5516-4.5952 9.5333-6.8904 2.6501-2.4022 2.116-7.2945-0.78125-9.0625-4.8037-3.4312-9.5939-6.9147-14.406-10.312-2.7474-1.7434-6.3229-0.63301-8.2198 1.8136-1.1781 1.7137-0.79466-0.34246-0.84269-1.357v-8.8003z" opacity=".1"/>
<path d="m25.906 13.062a0.93395 0.93395 0 0 0-0.84375 0.9375v37a0.93395 0.93395 0 0 0 1.5938 0.65625l11.438-11.438 12.312 8.7812-11.469 8.1875v-12.188a0.93395 0.93395 0 0 0-1.5938-0.65625l-12 12a0.93395 0.93395 0 0 0-0.28125 0.65625v27a0.93395 0.93395 0 0 0 1.4688 0.75l50-35a0.93395 0.93395 0 0 0 0-1.5l-50-35a0.93395 0.93395 0 0 0-0.625-0.1875zm5 10.344 36.562 25.594-36.562 25.594v-15.562l2.1875-2.1875v2.1562c-1.85e-4 0.06934-0.0046 0.27456 0 0.34375 0.0046 0.06919 0.05318 0.24379 0.0625 0.3125 0.0093 0.06871 0.01723 0.27584 0.03125 0.34375 0.01402 0.06791 0.0751 0.24571 0.09375 0.3125 0.01865 0.06679 0.07056 0.2784 0.09375 0.34375 0.02319 0.06535 0.09737 0.2489 0.125 0.3125 0.02763 0.0636 0.12432 0.2197 0.15625 0.28125 0.03193 0.06155 0.12017 0.25329 0.15625 0.3125 0.03608 0.05921 0.14743 0.22465 0.1875 0.28125 0.04007 0.0566 0.14364 0.19629 0.1875 0.25 0.04386 0.05371 0.20256 0.19943 0.25 0.25 0.04745 0.05057 0.16794 0.20281 0.21875 0.25 0.05081 0.04719 0.19607 0.17516 0.25 0.21875 0.05393 0.04359 0.22446 0.17897 0.28125 0.21875 0.0568 0.03978 0.22186 0.12046 0.28125 0.15625 0.05939 0.03579 0.21954 0.15588 0.28125 0.1875 0.06171 0.03162 0.24876 0.09769 0.3125 0.125 0.06374 0.02731 0.24704 0.10213 0.3125 0.125 0.06546 0.02287 0.24562 0.07543 0.3125 0.09375s0.27577 0.08007 0.34375 0.09375 0.24374 0.05352 0.3125 0.0625c0.06876 9e-3 0.27454 0.02702 0.34375 0.03125 0.06921 0.0042 0.27441 5.32e-4 0.34375 0s0.27461-0.02596 0.34375-0.03125c0.06914-0.0053 0.24389-0.02122 0.3125-0.03125 0.06861-0.01003 0.27599-0.04778 0.34375-0.0625 0.06776-0.01472 0.24591-0.04316 0.3125-0.0625 0.06659-0.01934 0.27864-0.10113 0.34375-0.125 0.06511-0.02387 0.24919-0.09672 0.3125-0.125 0.06331-0.02828 0.22003-0.09243 0.28125-0.125s0.25366-0.15081 0.3125-0.1875c0.05431-0.03387 0.18398-0.14086 0.25-0.1875h0.03125l13.969-10c0.04863-0.03485 0.20352-0.11858 0.25-0.15625 0.04648-0.03767 0.17459-0.14714 0.21875-0.1875 0.04416-0.04036 0.14581-0.17584 0.1875-0.21875 0.04169-0.04291 0.17967-0.17345 0.21875-0.21875 0.03908-0.0453 0.15118-0.17121 0.1875-0.21875 0.03632-0.04754 0.12281-0.16914 0.15625-0.21875 0.03344-0.04961 0.12581-0.1985 0.15625-0.25 0.03044-0.0515 0.09766-0.19678 0.125-0.25 0.02734-0.05322 0.10087-0.2265 0.125-0.28125 0.02413-0.05474 0.10416-0.19392 0.125-0.25 0.02085-0.05608 0.07627-0.22403 0.09375-0.28125 0.01748-0.05722 0.04844-0.2231 0.0625-0.28125 0.01406-0.05815 0.05191-0.22237 0.0625-0.28125 0.01059-0.05888 0.05542-0.22184 0.0625-0.28125 0.0071-0.05941 0.0277-0.25278 0.03125-0.3125 0.0035-0.05972 0-0.22142 0-0.28125 0-0.05983 0.0035-0.22153 0-0.28125-0.0035-0.05972-0.02417-0.25309-0.03125-0.3125-0.0071-0.05941-0.05191-0.22237-0.0625-0.28125-0.01059-0.05888-0.04844-0.2231-0.0625-0.28125-0.01406-0.05815-0.04502-0.22403-0.0625-0.28125-0.01748-0.05722-0.0729-0.22517-0.09375-0.28125-0.02085-0.05608-0.10087-0.19526-0.125-0.25-0.02413-0.05474-0.09766-0.22803-0.125-0.28125-0.02734-0.05322-0.09456-0.1985-0.125-0.25-0.03044-0.0515-0.12281-0.20039-0.15625-0.25-0.03344-0.04961-0.11993-0.17121-0.15625-0.21875-0.03632-0.04754-0.14842-0.17345-0.1875-0.21875-0.03908-0.0453-0.17706-0.17584-0.21875-0.21875-0.04169-0.04291-0.14334-0.17839-0.1875-0.21875-0.04416-0.04036-0.17227-0.14983-0.21875-0.1875-0.04648-0.03767-0.20137-0.1214-0.25-0.15625l-13.969-10c-0.0042-3e-3 -0.02621 0.0036-0.03125 0-0.0823-0.05823-0.27172-0.20692-0.34375-0.25-0.07644-0.04572-0.29482-0.1487-0.375-0.1875-0.08018-0.0388-0.32296-0.15592-0.40625-0.1875-0.08329-0.03158-0.3205-0.10089-0.40625-0.125-0.08575-0.02411-0.31871-0.07729-0.40625-0.09375s-0.34885-0.05383-0.4375-0.0625c-0.08865-0.0087-0.34843-0.03043-0.4375-0.03125s-0.3487-7e-3 -0.4375 0c-0.08879 7e-3 -0.31842 0.04766-0.40625 0.0625-0.08783 0.01484-0.35132 0.07122-0.4375 0.09375-0.08618 0.02253-0.3224 0.09496-0.40625 0.125-0.08385 0.03004-0.32537 0.11893-0.40625 0.15625-0.08088 0.03732-0.29773 0.17444-0.375 0.21875-0.07727 0.04431-0.30194 0.1678-0.375 0.21875-0.07306 0.05095-0.27546 0.22406-0.34375 0.28125-0.06829 0.0572-0.24952 0.21826-0.3125 0.28125l-3.625 3.625v-15.75z" opacity=".15"/>
<path d="m26 14v37l12-12 14 10-14 10v-14l-12 12v27l50-35-50-35zm3.9688 7.625 39.094 27.375-39.094 27.375v-17.719l4.0625-4.0625v4.4062a3.9599 3.9599 0 0 0 6.2812 3.2188l14-10a3.9599 3.9599 0 0 0 0-6.4375l-14-10a3.9599 3.9599 0 0 0-5.125 0.40625l-5.2188 5.2188v-19.781z" opacity=".3"/>
<path d="m26 13v37l12-12 14 10-14 10v-14l-12 12v27l50-35-50-35zm3.9688 7.625 39.094 27.375-39.094 27.375v-17.719l4.0625-4.0625v4.4062a3.9599 3.9599 0 0 0 6.2812 3.2188l14-10a3.9599 3.9599 0 0 0 0-6.4375l-14-10a3.9599 3.9599 0 0 0-5.125 0.40625l-5.2188 5.2188v-19.781z" fill="#f3f3f0" stroke="#fcfcfc"/>
<path d="m26 13v1l49.281 34.5 0.71875-0.5-50-35zm11.688 21.031a3.9599 3.9599 0 0 0-2.5 1.1562l-5.2188 5.2188v1l5.2188-5.2188a3.9599 3.9599 0 0 1 5.125-0.40625l14 10a3.9599 3.9599 0 0 1 1.625 2.8125 3.9599 3.9599 0 0 0-1.625-3.8125l-14-10a3.9599 3.9599 0 0 0-2.625-0.75zm0.3125 9.9688-12 12v1l12-12v-1zm13.312 4.5-13.312 9.5v1l14-10-0.6875-0.5zm17.031 0-38.375 26.875v1l39.094-27.375-0.71875-0.5z" fill="#fff" opacity=".3"/>
</g>
<path d="m9.544 67.178v6c0 3.6801 2.9761 6.6562 6.6562 6.6562h79.688c3.6801 0 6.6563-2.9761 6.6563-6.6562v-6c0 3.6801-2.9761 6.6562-6.6563 6.6562h-79.688c-3.6801 0-6.6562-2.9761-6.6562-6.6562z" fill="url(#linearGradient3829)" opacity=".89091"/>
<rect x="13.419" y="65.584" width="84.25" height="4.25" rx="0" ry="4.25" fill="url(#radialGradient3831)" opacity=".55"/>
<rect transform="rotate(90)" x="-9.9156" y="-98.669" width="76.75" height="4.25" rx="0" ry="4.25" fill="url(#radialGradient3833)" opacity=".55"/>
<g transform="translate(251.29 -104.9)">
<g display="none">
<rect x="5" y="7" width="86" height="85" rx="6" ry="6" fill="url(#ButtonShadow)" filter="url(#filter3174-3)" opacity=".9"/>
</g>
</g>
<rect transform="matrix(.9093 0 0 .92838 12.389 19.829)" x="2" y="-30" width="92" height="92" rx="3.957" ry="3.957" clip-path="url(#clipPath4156-4)" fill="url(#linearGradient3837)"/>
<path d="m17.869-9.9361c-3.1166 0-5.668 2.5395-5.668 5.646v69.278c0 3.1065 2.5513 5.646 5.668 5.646h76.792c3.1166 0 5.668-2.5395 5.668-5.646v-69.278c0-3.1065-2.5513-5.646-5.668-5.646h-76.792zm0 2.3194h76.792c1.8881 0 3.352 1.4801 3.352 3.3266v69.278c0 1.8465-1.4639 3.3266-3.352 3.3266h-76.792c-1.8881 0-3.352-1.4801-3.352-3.3266v-69.278c0-1.8465 1.4639-3.3266 3.352-3.3266z" color="#000000" fill="#241f1f" fill-opacity=".63265" style="block-progression:tb;text-indent:0;text-transform:none"/>
</g>
</g>
<g display="none">
<rect x="5" y="7" width="86" height="85" rx="6" ry="6" fill="url(#ButtonShadow)" filter="url(#filter3174-36)" opacity=".9"/>
</g>
<g display="none">
<rect x="5" y="7" width="86" height="85" rx="6" ry="6" fill="url(#ButtonShadow)" filter="url(#filter3174-8)" opacity=".9"/>
</g>
<g display="none">
<rect x="5" y="7" width="86" height="85" rx="6" ry="6" fill="url(#ButtonShadow)" filter="url(#filter3174)" opacity=".9"/>
</g>
</svg>
