<?xml version="1.0" encoding="UTF-8"?>
<!-- Created with Inkscape (http://www.inkscape.org/) -->
<svg version="1.0" viewBox="0 0 96 96" xmlns="http://www.w3.org/2000/svg" xmlns:cc="http://creativecommons.org/ns#" xmlns:dc="http://purl.org/dc/elements/1.1/" xmlns:rdf="http://www.w3.org/1999/02/22-rdf-syntax-ns#" xmlns:xlink="http://www.w3.org/1999/xlink">
<defs>
<linearGradient id="ButtonShadow" x1="45.448" x2="45.448" y1="92.54" y2="7.0165" gradientTransform="scale(1.0059 .99417)" gradientUnits="userSpaceOnUse">
<stop offset="0"/>
<stop stop-opacity=".58824" offset="1"/>
</linearGradient>
<linearGradient id="linearGradient3737">
<stop stop-color="#fff" offset="0"/>
<stop stop-color="#fff" stop-opacity="0" offset="1"/>
</linearGradient>
<filter id="filter3174" color-interpolation-filters="sRGB">
<feGaussianBlur stdDeviation="1.71"/>
</filter>
<linearGradient id="linearGradient4767" x1="2.7714" x2="50.528" y1="-28.642" y2="14.514" gradientUnits="userSpaceOnUse">
<stop stop-color="#fff" offset="0"/>
<stop stop-color="#fff" stop-opacity="0" offset="1"/>
</linearGradient>
<filter id="filter3174-3" color-interpolation-filters="sRGB">
<feGaussianBlur stdDeviation="1.71"/>
</filter>
<filter id="filter3174-8" color-interpolation-filters="sRGB">
<feGaussianBlur stdDeviation="1.71"/>
</filter>
<linearGradient id="linearGradient3718-4" x1="47.264" x2="47.264" y1="77.865" y2="12.541" gradientTransform="translate(0,-2)" gradientUnits="userSpaceOnUse">
<stop stop-color="#a27b4d" offset="0"/>
<stop stop-color="#f7d3a5" offset="1"/>
</linearGradient>
<linearGradient id="linearGradient4071-3" x1="6" x2="90" y1="47" y2="47" gradientTransform="matrix(1.1071 0 0 1.1071 -4.9939 -3.6207)" gradientUnits="userSpaceOnUse">
<stop stop-color="#b2babc" offset="0"/>
<stop stop-color="#fff" offset=".25"/>
<stop stop-color="#96a1a4" offset=".5"/>
<stop stop-color="#fbf9f9" offset=".75"/>
<stop stop-color="#b2b9bc" offset="1"/>
</linearGradient>
<linearGradient id="linearGradient4129-2" x1="1.5" x2="94.5" y1="88.172" y2="88.172" gradientTransform="translate(.14895 .41503)" gradientUnits="userSpaceOnUse">
<stop offset="0"/>
<stop stop-opacity=".58824" offset=".1"/>
<stop stop-opacity=".58824" offset=".9"/>
<stop offset="1"/>
</linearGradient>
<radialGradient id="radialGradient7462-0" cx="13.948" cy="44.893" r="43.199" gradientTransform="matrix(.97513 0 0 .049191 34.048 80.582)" gradientUnits="userSpaceOnUse" xlink:href="#linearGradient3737"/>
<radialGradient id="radialGradient7464-6" cx="13.948" cy="44.893" r="43.199" gradientTransform="matrix(.88833 0 0 .049191 31.96 -90.317)" gradientUnits="userSpaceOnUse" xlink:href="#linearGradient3737"/>
<clipPath id="clipPath4156-4-1">
<path d="m27.046-55.695-14.214 13.321h0.06127l15.653 21.771 10.231-10.546c-0.2169-1.1522-11.311-23.67-11.732-24.546zm-17.399 16.313-14.888 14.062 21.229 17.515 10.385-10.577zm31.491 12.951-9.7413 9.7136 8.9448 12.458 7.7808-7.555zm-49.84 4.3788-13.754 12.982 26.283 13.846 0.06127-0.0617-0.12253-0.0617 9.8332-10.053-22.301-16.652zm38.015 7.4008-9.8025 9.7753 11.579 9.5594 7.6276-7.4008-8.6691-11.009zm20.187 5.674-7.3825 7.2158 6.1878 8.5418 5.8202-6.1365zm-32.195 6.3215-9.5575 9.4977 13.662 7.185 7.9339-7.6784zm23.312 2.3744-7.1068 6.9383 8.3628 6.9074 5.3608-5.674-0.06127-0.0925-0.0919 0.12335-6.4635-8.2026zm-8.7304 8.5418-7.5051 7.3392 10.354 5.4581c1.3975-1.321 5.6751-6.1229 5.8509-6.3215z" fill="#fff" opacity=".6"/>
</clipPath>
</defs>
<metadata>
<rdf:RDF>
<cc:Work rdf:about="">
<dc:format>image/svg+xml</dc:format>
<dc:type rdf:resource="http://purl.org/dc/dcmitype/StillImage"/>
<dc:title/>
</cc:Work>
</rdf:RDF>
</metadata>
<g display="none">
<rect x="5" y="7" width="86" height="85" rx="6" ry="6" fill="url(#ButtonShadow)" filter="url(#filter3174)" opacity=".9"/>
</g>
<g transform="translate(-1e-6,32)">
<g transform="translate(-8.044 -17.334)">
<g transform="translate(251.29 -104.9)">
<g display="none">
<rect x="5" y="7" width="86" height="85" rx="6" ry="6" fill="url(#ButtonShadow)" filter="url(#filter3174-3)" opacity=".9"/>
</g>
</g>
<g transform="translate(8.044 -1041.2)">
<g transform="translate(-.14896 1026.1)">
<path d="m89.292 0.41503h-82.286c-3.7988 0-6.8571 3.0583-6.8571 6.8571v82.286c0 3.7989 3.0583 6.8571 6.8571 6.8571h82.286c3.7989 0 6.8571-3.0583 6.8571-6.8571v-82.286c0-3.7989-3.0583-6.8571-6.8571-6.8571z" opacity=".15"/>
<path d="m88.649 1.165h-81c-3.7395 0-6.75 3.0105-6.75 6.75v81c0 3.7395 3.0105 6.75 6.75 6.75h81c3.7395 0 6.75-3.0105 6.75-6.75v-81c0-3.7395-3.0105-6.75-6.75-6.75z" opacity=".15"/>
<path d="m88.006 1.915h-79.714c-3.6801 0-6.6429 2.9627-6.6429 6.6429v79.714c0 3.6801 2.9627 6.6429 6.6429 6.6429h79.714c3.6801 0 6.6429-2.9627 6.6429-6.6429v-79.714c0-3.6801-2.9627-6.6429-6.6429-6.6429z" fill="url(#linearGradient4071-3)"/>
<path d="m11.39 6.8022c-2.8565 0-5.1241 2.2884-5.1241 5.171v68.58c1.0972 1.6845 2.9688 2.8117 5.1241 2.8117h73.787c2.1553 0 4.0269-1.1272 5.1241-2.8117v-68.58c0-2.8826-2.2676-5.171-5.1241-5.171z" fill="#f4f0eb" opacity=".9"/>
<path d="m9.974 5.1445c-3.1166 0-5.668 2.5395-5.668 5.646v69.278c0 3.1065 2.5513 5.646 5.668 5.646h76.792c3.1166 0 5.668-2.5395 5.668-5.646v-69.278c0-3.1065-2.5513-5.646-5.668-5.646zm0 2.3194h76.792c1.8881 0 3.352 1.4801 3.352 3.3266v69.278c0 1.8465-1.4639 3.3266-3.352 3.3266h-76.792c-1.8881 0-3.352-1.4801-3.352-3.3266v-69.278c0-1.8465 1.4639-3.3266 3.352-3.3266z" color="#000000" fill="#1f2224" fill-opacity=".63265" style="text-decoration-line:none;text-indent:0;text-transform:none"/>
<path d="m1.649 82.259v6c0 3.6801 2.9761 6.6562 6.6562 6.6562h79.687c3.6801 0 6.6563-2.9761 6.6563-6.6562v-6c0 3.6801-2.9761 6.6562-6.6563 6.6562h-79.687c-3.6801 0-6.6562-2.9761-6.6562-6.6562z" fill="url(#linearGradient4129-2)" opacity=".65818"/>
<rect x="5.524" y="80.665" width="84.25" height="4.25" rx="0" ry="4.25" fill="url(#radialGradient7462-0)" opacity=".55"/>
<rect transform="rotate(90)" x="5.975" y="-90.234" width="76.75" height="4.25" rx="0" ry="4.25" fill="url(#radialGradient7464-6)" opacity=".669"/>
<g transform="translate(.37388 -1.0466)">
<path d="m49.781 10.969a1.0327 1.0327 0 0 0-0.09375 0.03125c-1.4287 0.34709-2.2333 1.497-2.75 2.5s-0.89504 1.9596-1.3125 2.4688a1.0327 1.0327 0 0 0-0.03125 0.0625c-0.72944 1.0473-1.314 2.5445-1.8125 3.9688-0.24829-0.21419-0.47335-0.44537-0.8125-0.5625-0.0062-0.0021 0.0062-0.02916 0-0.03125-0.01083-0.0039-0.02042 0.0037-0.03125 0-1.2026-0.41384-2.4131 0.07912-3.125 0.78125-0.65893 0.64985-1.0228 1.4375-1.3125 2.125-0.0019 0.0045-0.02935-0.0045-0.03125 0-0.03676 0.05795-0.05761 0.12886-0.09375 0.1875-2.2483 3.6472-3.2979 8.6025-0.59375 12.562a1.0327 1.0327 0 0 0 0.03125 0.0625c1.437 1.8037 1.0909 4.2473 0.875 6.875a1.0327 1.0327 0 0 0 0.03125 0.3125c0.16687 0.81118 0.646 1.3369 1.25 1.7188-4.1828-0.01441-8.3736-0.06797-12.562 0.03125a1.0327 1.0327 0 0 0-0.28125 0.0625c-0.69818 0.22599-1.2877 0.65082-1.625 1.1875s-0.44852 1.1192-0.5 1.6562c-0.10296 1.074 0.04771 2.0967 0 2.6875a1.0327 1.0327 0 0 0 0 0.09375c-0.07674 6.6684-0.26867 14.09 4.0312 20.125a1.0327 1.0327 0 0 0 0.09375 0.125c-0.12799-0.0059-0.20768 7e-3 -0.34375 0a1.0327 1.0327 0 0 0-0.0625 0c-4.3996 0.04439-8.8531-0.08894-13.312 0.0625a1.0327 1.0327 0 0 0-0.3125 0.0625c-0.81252 0.28369-1.454 0.85635-1.7812 1.5312s-0.36828 1.4083-0.28125 2.0938c0.17297 1.3623 0.87515 2.6025 1.8438 3.4375v0.03125c4.7835 4.1754 11.384 4.6382 17.094 4.7812a1.0327 1.0327 0 0 0 0.03125 0c11.507-0.04277 23.029 0.09606 34.562-0.0625a1.0327 1.0327 0 0 0 0.09375 0c5.0184-0.41135 10.906-1.0798 14.875-5.1875v-0.03125c0.89059-0.89067 1.4506-2.1274 1.4688-3.4375 0.00915-0.65956-0.13957-1.3641-0.53125-1.9688s-1.043-1.0629-1.8438-1.25a1.0327 1.0327 0 0 0-0.25-0.03125c-4.5313-0.062119-9.0465-0.030714-13.562-0.03125 1.8674-2.339 2.7094-5.2574 3.2812-8 1.1727-0.01012 2.4547 0.09464 3.8438 0 1.6488-0.11234 3.4511-0.61274 4.7188-2.1875a1.0327 1.0327 0 0 0 0-0.03125c1.101-1.4126 1.3478-3.0526 1.375-4.5625 0.026762-1.4872-0.12032-2.882-0.03125-4.0938 0.0034-0.02134-0.0032-0.04117 0-0.0625 0.56207-3.8054-2.6773-7.4322-6.5938-7.0312-0.04494 0.0046-0.07989-0.03693-0.125-0.03125h-20.281c1.2099-2.1338 2.2211-4.4744 2.75-6.9375 0.4976 0.27944 1.0172 0.53714 1.5312 0.5 0.64024-0.04626 1.1981-0.33139 1.6562-0.65625 0.86302-0.61195 1.4468-1.4449 1.875-2.1562 0.02644-0.04391 0.09993-0.08221 0.125-0.125l-0.03125-0.03125c2.6883-3.4055 2.4896-8.1354 0.1875-11.594a1.0327 1.0327 0 0 0-0.0625-0.09375c-0.63428-0.79543-0.64997-1.4871-0.46875-2.5s0.64071-2.1863 0.78125-3.5a1.0327 1.0327 0 0 0 0-0.1875c-0.11616-1.7545-1.7621-2.9676-3.4375-2.7188a1.0327 1.0327 0 0 0-0.15625 0.03125c-1.2738 0.39254-2.0446 1.3902-2.5938 2.3125s-0.93598 1.8361-1.3438 2.4375a1.0327 1.0327 0 0 0-0.03125 0.0625c-0.59128 0.94781-0.87714 1.9165-1.0625 2.9062-0.30143-2.1407-0.18794-4.3749 0.3125-6.5312h-0.03125c0.37906-1.0166 0.24024-2.1062-0.3125-2.9375-0.58654-0.8821-1.6877-1.495-2.9062-1.3125zm-3 27.219c0.1685 1.0812 0.22715 2.1541 0.03125 3.25h0.0625c-0.46535 1.0302-0.32153 2.0129-0.34375 2.5625-0.0016 0.04049 4e-3 -6.15e-4 0 0.03125a1.0327 1.0327 0 0 0-0.3125-0.03125c-0.94251 0.0065-1.899-2.02e-4 -2.8438 0 0.36796-0.23788 0.6717-0.5554 0.90625-0.96875l0.0625 0.0625c1.1462-1.3941 1.9295-3.1126 2.4375-4.9062zm24.219 14.812c0.01658 0.0013 0.0834-7.88e-4 0.09375 0-0.0031 0.06592-0.0087 0.06692-0.0625 0.25a1.0327 1.0327 0 0 0 0 0.125 1.0327 1.0327 0 0 0-0.03125 0z" color="#000000" fill="#280b0b" opacity=".05"/>
<path d="m49.938 12c-2.0514 0.49836-2.3238 3.18-3.5083 4.6246-1.3884 1.9935-2.7706 6.6326-2.6031 7.4932 0.1734-1.312 0.39777-3.2217-1.2011-3.7428-1.6807-0.60133-2.747 1.2011-3.2713 2.5049-2.1757 3.4304-3.1707 8.0167-0.72778 11.594 1.7604 2.2096 1.3039 5.0508 1.0928 7.6198 0.37917 1.8432 3.0807 2.0061 3.8259 0.32859 2.5685-3.1241 3.8494-7.7636 1.5803-11.422 1.8239 3.2228 3.3888 6.8293 2.7104 10.624-0.77584 1.2447 0.59343 4.0838-1.6283 3.4068-6.2541 0.04316-12.527-0.08536-18.77 0.0625-2.0059 0.64927-1.2787 3.0682-1.4062 4.6482-0.0768 6.6739-0.21043 13.858 3.8457 19.551 2.4172 1.927 0.88214 1.8427-1.1501 1.7381-4.4271 0.04467-8.8739-0.08745-13.289 0.0625-2.3563 0.8227-1.3389 4.1085 0.10929 5.3439 4.4518 3.9001 10.775 4.3889 16.453 4.5311 11.518-0.04281 23.039 0.08814 34.555-0.07018 4.9962-0.40953 10.618-1.0845 14.263-4.8717 1.3188-1.3037 1.8632-4.4254-0.44293-4.9643-5.3177-0.0729-10.647-0.01043-15.969-0.03125 3.1157-2.3813 4.1899-6.394 4.9062-10.062 2.8901-0.19411 6.417 0.79386 8.5167-1.8145 1.8266-2.3436 0.91939-5.4495 1.1395-8.1884 0.50617-3.1865-2.2717-6.3473-5.5496-5.9346h-22.138c3.2648-5.0697 5.5784-11.933 2.3022-17.569-2.2326-3.7621-2.5265-8.2717-1.5526-12.468 0.64326-1.4455-0.45426-3.2399-2.0933-2.9944zm8.125 3.0312c-1.8592 0.5729-2.3938 2.8632-3.3911 4.334-2.4092 3.8619-0.54268 8.2068 1.3054 11.789 0.09659 1.6188-1.7784 3.7058 0.02311 4.9706 1.6559 1.2524 3.2691-0.70218 4.0428-2.0228 2.4887-3.02 2.2965-7.3637 0.18606-10.534-1.6973-2.1286-0.15552-4.5508 0.08369-6.7867-0.07301-1.1028-1.1773-1.9093-2.25-1.75zm-14.312 10.938c0.12358 1.7231 0.80448 4.392 0.10145 1.2575-0.05533-0.41707-0.08847-0.83701-0.10145-1.2575zm26.219 26c1.3525-0.14871 2.5635-0.15582 2.0625 1.549 0.53904 1.1659-2.6191 1.1936-2.0625-0.01094v-1.538z" color="#000000" fill="#280b0b" opacity=".1"/>
<path d="m50.094 13.062a0.91275 0.91275 0 0 0-0.65625 0.4375c-2.0953 3.5103-3.5172 6.1413-4.2188 8.5625s-0.6436 4.6356 0.15625 7c1.4871 4.396 4.8799 5.9954 3.1562 15.062a0.91275 0.91275 0 0 0 1.6875 0.65625c2.99-4.6663 5.364-10.869 2.8438-16-2.3137-4.7107-3.374-7.0771-1.9375-14.656a0.91275 0.91275 0 0 0-1.0312-1.0625zm8.125 3.0312a0.91275 0.91275 0 0 0-0.59375 0.40625c-1.4678 2.1709-2.4295 3.9006-2.8438 5.5938s-0.23376 3.3393 0.46875 4.9688c0.69851 1.6202 1.376 2.4992 1.625 3.3125s0.26284 1.7205-0.5625 3.8438a0.91275 0.91275 0 0 0 1.5312 0.9375c1.6479-1.8584 2.587-3.4601 2.9062-5.0625s-0.047658-3.1034-0.75-4.5938c-0.7006-1.4866-1.3042-2.4104-1.5312-3.4375s-0.16739-2.3367 0.75-4.75a0.91275 0.91275 0 0 0-1-1.2188zm-16.375 5.25a0.91275 0.91275 0 0 0-0.65625 0.4375c-1.3193 2.2656-2.2091 3.9875-2.6562 5.5938s-0.42077 3.13 0.125 4.6875c1.0263 2.9289 3.1172 3.6857 2.0938 9.4062a0.91275 0.91275 0 0 0 1.625 0.71875c1.7065-2.1529 2.5838-4.0835 2.8125-5.875s-0.20899-3.3862-1-4.8125c-1.3834-2.4945-2.1663-4.3062-1.3125-9.0938a0.91275 0.91275 0 0 0-1.0312-1.0625zm-14.031 24.75a0.91275 0.91275 0 0 0-0.71875 0.90625v8c0 4.5545 0.9081 8.66 2.4375 11.719s3.7629 5.1875 6.4688 5.1875h24c2.2837 0 4.2606-1.5214 5.7188-3.8125 1.3423-2.1091 2.2476-4.9761 2.75-8.1875h5.5312c2.1518 0 3.9062-1.7544 3.9062-3.9062v-6c0-2.1518-1.7544-3.9062-3.9062-3.9062h-6-40a0.91275 0.91275 0 0 0-0.1875 0zm5.0625 3.7812h0.21875v5.125c0.0084 0.72521 0.0012 1.6134 0 2.4688-0.042784-0.81957-0.15809-1.7592-0.21875-2.4688v-0.09375zm36.031 1.0312h3.2188c0.54892 0 0.96875 0.41982 0.96875 0.96875v2.5c0 0.54892-0.41982 0.96875-0.96875 0.96875h-3.2188c2e-3 -0.11647 0-0.22371 0-0.34375zm-53.094 21.188a0.91275 0.91275 0 0 0-0.71875 0.90625c0 1.1576 0.63125 2.2029 1.5625 3.0312s2.1697 1.4933 3.6875 2.0625c3.0355 1.1383 7.1324 1.8125 11.656 1.8125h32c4.5238 0 8.6207-0.67418 11.656-1.8125 1.5178-0.56916 2.7562-1.2341 3.6875-2.0625s1.5625-1.8737 1.5625-3.0312a0.91275 0.91275 0 0 0-0.90625-0.90625h-64a0.91275 0.91275 0 0 0-0.1875 0z" color="#000000" fill="#280b0b" opacity=".15"/>
<path d="m50.219 13.969c-4.1669 6.9811-5.4719 10.369-3.9688 14.812 1.3626 4.028 4.9583 6.1848 3.1875 15.5 2.9081-4.5386 5.0963-10.444 2.8125-15.094-2.3227-4.7291-3.4918-7.5125-2.0312-15.219zm8.1562 3.0312c-2.8827 4.2637-3.5681 6.7027-2.2812 9.6875 1.3103 3.0392 2.7838 3.4469 1.0625 7.875 3.1758-3.5813 3.3395-5.9116 2.0312-8.6875-1.3345-2.8318-2.7143-3.872-0.8125-8.875zm-16.406 5.25c-2.6154 4.4915-3.4292 6.6699-2.4375 9.5 0.89893 2.5654 3.1925 3.908 2.125 9.875 3.2762-4.1332 3.1694-7.0718 1.7188-9.6875-1.4142-2.5501-2.2866-4.7512-1.4062-9.6875zm-13.969 24.75v8c0 8.864 3.568 16 8 16h24c3.7395 0 6.8649-5.088 7.75-12h6.25c1.662 0 3-1.338 3-3v-6c0-1.662-1.338-3-3-3h-6zm3.9688 1.9688h2.0312v6.0312c0.05175 4.4618-0.5427 11.505 4 14.031h-1.5c-4.6078-2.1724-4.1562-9.7893-4.5312-14.031zm36.031 1.0312h4.125c1.0388 0 1.875 0.83625 1.875 1.875v2.5c0 1.0388-0.83625 1.875-1.875 1.875h-4.1562c0.016197-0.41761 0.03125-0.8238 0.03125-1.25zm-52 23c0 3.324 7.136 6 16 6h32c8.864 0 16-2.676 16-6z" color="#000000" fill="#280b0b" opacity=".3"/>
<path d="m50.219 10.969c-4.1669 6.9811-5.4719 10.369-3.9688 14.812 1.3626 4.028 4.9583 6.1848 3.1875 15.5 2.9081-4.5386 5.0963-10.444 2.8125-15.094-2.3227-4.7291-3.4918-7.5125-2.0312-15.219zm8.1562 3.0312c-2.8827 4.2637-3.5681 6.7027-2.2812 9.6875 1.3103 3.0392 2.7838 3.4469 1.0625 7.875 3.1758-3.5813 3.3395-5.9116 2.0312-8.6875-1.3345-2.8318-2.7143-3.872-0.8125-8.875zm-16.406 5.25c-2.6154 4.4915-3.4292 6.6699-2.4375 9.5 0.89893 2.5654 3.1925 3.908 2.125 9.875 3.2762-4.1332 3.1694-7.0718 1.7188-9.6875-1.4142-2.5501-2.2866-4.7512-1.4062-9.6875zm-13.969 24.75v8c0 8.864 3.568 16 8 16h24c3.7395 0 6.8649-5.088 7.75-12h6.25c1.662 0 3-1.338 3-3v-6c0-1.662-1.338-3-3-3h-6zm3.9688 1.9688h2.0312v6.0312c0.05175 4.4618-0.5427 11.505 4 14.031h-1.5c-4.6078-2.1724-4.1562-9.7893-4.5312-14.031zm36.031 1.0312h4.125c1.0388 0 1.875 0.83625 1.875 1.875v2.5c0 1.0388-0.83625 1.875-1.875 1.875h-4.1562c0.016197-0.41761 0.03125-0.8238 0.03125-1.25zm-52 23c0 3.324 7.136 6 16 6h32c8.864 0 16-2.676 16-6z" color="#000000" fill="url(#linearGradient3718-4)" stroke="#5a442b" stroke-opacity=".61739"/>
<path d="m50.219 9.9688c-3.1752 5.3196-4.687 8.5463-4.5625 11.75 0.1885-2.8154 1.6501-5.8307 4.3438-10.375 0.07225-0.45412 0.1254-0.88245 0.21875-1.375zm8.1562 3.0312c-2.1408 3.1664-3.0657 5.3129-2.875 7.4375 0.12176-1.5814 0.87636-3.2724 2.25-5.4375 0.14921-0.59948 0.3347-1.2363 0.625-2zm-8.8125 3.4375c-0.07356 3.9481 1.0159 6.3466 2.6875 9.75 0.56638 1.1531 0.86398 2.3886 0.9375 3.6562 0.04524-1.6183-0.22383-3.2032-0.9375-4.6562-1.5267-3.1084-2.5768-5.3724-2.6875-8.75zm7.9062 1.0312c-0.20676 2.2804 0.76781 3.3884 1.7188 5.4062 0.39844 0.84547 0.6369 1.658 0.71875 2.4688 0.10384-1.1632-0.15647-2.2756-0.71875-3.4688-0.79752-1.6923-1.5989-2.7655-1.7188-4.4062zm-15.5 0.78125c-2.0634 3.5435-2.9937 5.6613-2.8125 7.7812 0.13522-1.7441 1.0126-3.6404 2.625-6.4375 0.05367-0.43272 0.10154-0.86174 0.1875-1.3438zm-0.3125 3.9688c-0.11371 2.9789 0.6255 4.7475 1.7188 6.7188 0.5128 0.92464 0.85063 1.8936 0.9375 2.9375 0.10894-1.4393-0.2646-2.7242-0.9375-3.9375-0.96383-1.7379-1.6416-3.3287-1.7188-5.7188zm16.25 5.5938c-0.0737 0.72624-0.30077 1.5943-0.75 2.75 0.19562-0.2206 0.35813-0.4135 0.53125-0.625 0.22955-0.87762 0.2885-1.5401 0.21875-2.125zm-16 7.4375c-0.02523 0.70497-0.09038 1.4828-0.25 2.375 0.0696-0.0878 0.12094-0.16327 0.1875-0.25 0.08902-0.79826 0.09323-1.4962 0.0625-2.125zm8 1.0312c-0.03661 1.176-0.18045 2.4835-0.46875 4 0.07995-0.12478 0.17121-0.24821 0.25-0.375 0.19602-1.3661 0.24337-2.5606 0.21875-3.625zm-21.906 6.7188v1h40 6c1.662 0 3 1.338 3 3v-1c0-1.662-1.338-3-3-3h-6zm46 7.375c0 1.0388-0.83625 1.875-1.875 1.875h-4.125c-0.0044 0.33562-0.01829 0.66586-0.03125 1h4.1562c1.0388 0 1.875-0.83625 1.875-1.875zm-42.031 0.625v1c0.37502 4.2419-0.07653 11.859 4.5312 14.031h1.5c-0.50039-0.27831-0.92904-0.62158-1.3125-1h-0.1875c-4.6078-2.1724-4.1562-9.7893-4.5312-14.031zm-15.969 18c0 0.33747 0.0773 0.67801 0.21875 1h63.562c0.14144-0.32199 0.21875-0.66253 0.21875-1z" color="#000000" fill="#fff"/>
</g>
<rect transform="matrix(1.0692 0 0 1.0477 4.4442 38.894)" x="2" y="-30" width="75.966" height="69.024" rx="3.957" ry="3.957" clip-path="url(#clipPath4156-4-1)" fill="url(#linearGradient4767)" opacity=".967"/>
</g>
</g>
</g>
</g>
<g display="none">
<rect x="5" y="7" width="86" height="85" rx="6" ry="6" fill="url(#ButtonShadow)" filter="url(#filter3174-8)" opacity=".9"/>
</g>
</svg>
