<?xml version="1.0" encoding="UTF-8"?>
<svg version="1.1" viewBox="0 0 96 96" xmlns="http://www.w3.org/2000/svg" xmlns:cc="http://creativecommons.org/ns#" xmlns:dc="http://purl.org/dc/elements/1.1/" xmlns:rdf="http://www.w3.org/1999/02/22-rdf-syntax-ns#" xmlns:xlink="http://www.w3.org/1999/xlink">
<title>Part of Lila HD icon Theme</title>
<metadata>
<rdf:RDF>
<cc:Work rdf:about="">
<dc:format>image/svg+xml</dc:format>
<dc:type rdf:resource="http://purl.org/dc/dcmitype/StillImage"/>
<dc:title>Part of Lila HD icon Theme</dc:title>
<dc:date>2017</dc:date>
<dc:creator>
<cc:Agent>
<dc:title>Cristian Pozzessere "ilnanny"</dc:title>
</cc:Agent>
</dc:creator>
<dc:subject>
<rdf:Bag>
<rdf:li>All</rdf:li>
</rdf:Bag>
</dc:subject>
<dc:description>a icon theme for gnu linux o.s.</dc:description>
</cc:Work>
</rdf:RDF>
</metadata>
<defs>
<linearGradient id="linearGradient4369" x1="2.5" x2="93.5" y1="11.141" y2="11.141" gradientTransform="translate(-17.652 -22.602)" gradientUnits="userSpaceOnUse" xlink:href="#linearGradient4160"/>
<linearGradient id="linearGradient4160">
<stop stop-opacity="0" offset="0"/>
<stop stop-opacity=".96471" offset=".031756"/>
<stop stop-opacity="0" offset=".094256"/>
<stop stop-opacity="0" offset=".49595"/>
<stop stop-opacity="0" offset=".90526"/>
<stop stop-opacity=".98824" offset=".96241"/>
<stop stop-opacity="0" offset="1"/>
</linearGradient>
<linearGradient id="linearGradient4388" x1="2.5" x2="93.5" y1="54.297" y2="54.297" gradientTransform="translate(-17.652 -22.63)" gradientUnits="userSpaceOnUse" xlink:href="#linearGradient4160"/>
<linearGradient id="linearGradient4334" x1="53.898" x2="27.952" y1="-69.457" y2="23.168" gradientTransform="matrix(.98921 0 0 .98706 -17.135 -9.7042)" gradientUnits="userSpaceOnUse" spreadMethod="reflect">
<stop stop-color="#e3e9e9" offset="0"/>
<stop stop-color="#eef2f2" offset=".21972"/>
<stop stop-color="#f9fbfb" offset=".47878"/>
<stop stop-color="#fff" offset="1"/>
</linearGradient>
<linearGradient id="linearGradient4050">
<stop stop-color="#fff" offset="0"/>
<stop stop-color="#fff" stop-opacity="0" offset="1"/>
</linearGradient>
<linearGradient id="linearGradient4071" x1="6" x2="90" y1="47" y2="47" gradientTransform="matrix(1.1354 0 0 1.1337 -40.037 -46.788)" gradientUnits="userSpaceOnUse">
<stop stop-color="#b7b7b7" offset="0"/>
<stop stop-color="#fff" offset=".25"/>
<stop stop-color="#9d9d9d" offset=".5"/>
<stop stop-color="#fafafa" offset=".75"/>
<stop stop-color="#b7b7b7" offset="1"/>
</linearGradient>
<radialGradient id="radialGradient4073" cx="158" cy="6.2132" r="41" gradientTransform="matrix(0 1.6209 -2.0383 0 160.66 -243.04)" gradientUnits="userSpaceOnUse" xlink:href="#linearGradient4050"/>
<radialGradient id="radialGradient4075" cx="48" cy="-27" r="42" gradientTransform="matrix(-1.0722 0 0 -.87502 199.46 -19.126)" gradientUnits="userSpaceOnUse">
<stop stop-color="#fff" offset="0"/>
<stop stop-color="#fff" offset=".8"/>
<stop stop-color="#fff" stop-opacity="0" offset="1"/>
</radialGradient>
<linearGradient id="linearGradient4767" x1="2.7714" x2="50.528" y1="-28.642" y2="14.514" gradientUnits="userSpaceOnUse" xlink:href="#linearGradient4050"/>
<linearGradient id="linearGradient4129" x1="1.5" x2="94.5" y1="88.172" y2="88.172" gradientUnits="userSpaceOnUse">
<stop offset="0"/>
<stop stop-opacity=".58824" offset=".1"/>
<stop stop-opacity=".58824" offset=".9"/>
<stop offset="1"/>
</linearGradient>
<radialGradient id="radialGradient4139" cx="13.948" cy="44.893" r="43.199" gradientTransform="matrix(1 0 0 .050369 0 39.432)" gradientUnits="userSpaceOnUse" xlink:href="#linearGradient4050"/>
<radialGradient id="radialGradient4143" cx="13.948" cy="44.893" r="43.199" gradientTransform="matrix(.90961 0 0 .050445 -11.185 -58.258)" gradientUnits="userSpaceOnUse" xlink:href="#linearGradient4050"/>
<radialGradient id="radialGradient4553" cx="47.699" cy="55.411" r="41.47" gradientTransform="matrix(1.0772 0 0 .064818 -21.162 64.975)" gradientUnits="userSpaceOnUse">
<stop offset="0"/>
<stop stop-opacity="0" offset="1"/>
</radialGradient>
<linearGradient id="linearGradient4740" x1="45.448" x2="45.448" y1="92.54" y2="7.0165" gradientTransform="scale(1.0059 .99417)" gradientUnits="userSpaceOnUse" xlink:href="#ButtonShadow"/>
<linearGradient id="ButtonShadow" x1="45.448" x2="45.448" y1="92.54" y2="7.0165" gradientTransform="scale(1.0059 .99417)" gradientUnits="userSpaceOnUse">
<stop offset="0"/>
<stop stop-opacity=".58824" offset="1"/>
</linearGradient>
<filter id="filter3174-3-13" color-interpolation-filters="sRGB">
<feGaussianBlur stdDeviation="1.71"/>
</filter>
<clipPath id="clipPath4156-4-2">
<path d="m27.046-55.695-14.214 13.321h0.06127l15.653 21.771 10.231-10.546c-0.2169-1.1522-11.311-23.67-11.732-24.546zm-17.399 16.313-14.888 14.062 21.229 17.515 10.385-10.577zm31.491 12.951-9.7413 9.7136 8.9448 12.458 7.7808-7.555zm-49.84 4.3788-13.754 12.982 26.283 13.846 0.06127-0.0617-0.12253-0.0617 9.8332-10.053-22.301-16.652zm38.015 7.4008-9.8025 9.7753 11.579 9.5594 7.6276-7.4008-8.6691-11.009zm20.187 5.674-7.3825 7.2158 6.1878 8.5418 5.8202-6.1365zm-32.195 6.3215-9.5575 9.4977 13.662 7.185 7.9339-7.6784zm23.312 2.3744-7.1068 6.9383 8.3628 6.9074 5.3608-5.674-0.06127-0.0925-0.0919 0.12335-6.4635-8.2026zm-8.7304 8.5418-7.5051 7.3392 10.354 5.4581c1.3975-1.321 5.6751-6.1229 5.8509-6.3215z" fill="#fff" opacity=".6"/>
</clipPath>
<filter id="filter3174-53" color-interpolation-filters="sRGB">
<feGaussianBlur stdDeviation="1.71"/>
</filter>
<filter id="filter3174" color-interpolation-filters="sRGB">
<feGaussianBlur stdDeviation="1.71"/>
</filter>
</defs>
<g transform="translate(2.4186e-7 32)">
<g transform="translate(17.652 -9.3983)">
<g transform="translate(-17.652 57.398)">
<g transform="matrix(1.0034 0 0 1.005 33.489 -38.527)">
<path d="m55.463-41.269h-82.003c-3.7858 0-6.8336 3.0432-6.8336 6.8233v81.88c0 3.7801 3.0478 6.8233 6.8336 6.8233h82.003c3.7858 0 6.8336-3.0432 6.8336-6.8233v-81.88c0-3.7801-3.0478-6.8233-6.8336-6.8233z" opacity=".15"/>
<path d="m54.822-40.522h-80.722c-3.7267 0-6.7268 2.9956-6.7268 6.7167v80.6c0 3.721 3.0002 6.7167 6.7268 6.7167h80.722c3.7267 0 6.7268-2.9956 6.7268-6.7167v-80.6c0-3.721-3.0002-6.7167-6.7268-6.7167z" opacity=".15"/>
<g transform="matrix(.97179 0 0 .97179 .40799 .18323)">
<path d="m55.334-41.119h-81.747c-3.774 0-6.8123 3.0337-6.8123 6.802v81.624c0 3.7683 3.0383 6.802 6.8123 6.802h81.747c3.774 0 6.8123-3.0337 6.8123-6.802v-81.624c0-3.7683-3.0383-6.802-6.8123-6.802z" fill="url(#linearGradient4071)" stroke="#000" stroke-opacity=".11494"/>
<g transform="matrix(1.1354 0 0 1.1337 -153.57 -46.221)">
<path d="m112 5.5c-2.7873 0-5 2.2127-5 5v66.312c1.0707 1.6288 2.8969 2.7188 5 2.7188h72c2.1031 0 3.9293-1.09 5-2.7188v-66.312c0-2.7873-2.2127-5-5-5z" fill="url(#radialGradient4073)" opacity=".2"/>
<path d="m112 4.5c-3.324 0-6 2.676-6 6v15h1v-15c0-2.7873 2.2127-5 5-5h72c2.7873 0 5 2.2127 5 5v15h1v-15c0-3.324-2.676-6-6-6z" fill="url(#radialGradient4075)" opacity=".45"/>
</g>
<path transform="matrix(1.0255 0 0 1.024 -34.763 -42.655)" d="m1.5 81.844v6c0 3.6801 2.9761 6.6562 6.6562 6.6562h79.688c3.6801 0 6.6562-2.9761 6.6562-6.6562v-6c0 3.6801-2.9761 6.6562-6.6562 6.6562h-79.688c-3.6801 0-6.6562-2.9761-6.6562-6.6562z" fill="url(#linearGradient4129)" opacity=".65"/>
<rect x="-29.251" y="39.517" width="86.398" height="4.3518" rx="0" ry="4.3518" fill="url(#radialGradient4139)" opacity=".55"/>
<rect transform="rotate(90)" x="-37.791" y="-58.173" width="78.588" height="4.3584" rx="0" ry="4.3584" fill="url(#radialGradient4143)" opacity=".55"/>
<g transform="matrix(.97683 0 0 .88201 -15.184 -19.388)">
<path d="m-11.527-20.414c-2.1827 0-3.9375 1.7548-3.9375 3.9375v12c0-2.1827 1.7548-3.9375 3.9375-3.9375h83.75c2.1827 0 3.9375 1.7548 3.9375 3.9375v-12c0-2.1827-1.7548-3.9375-3.9375-3.9375z" opacity="0"/>
<rect transform="scale(1,-1)" x="-15.156" y="-70.902" width="91.008" height="90.81" rx="3.9143" ry="3.9058" fill="url(#linearGradient4334)" stroke="#738589" stroke-width=".99243"/>
<path d="m-11.23-20.105c-2.1685 0-3.9259 1.7614-3.9259 3.9349v3.9658c0-2.1734 1.7574-3.9349 3.9259-3.9349h83.155c2.1685 0 3.9259 1.7614 3.9259 3.9349v-3.9658c0-2.1734-1.7574-3.9349-3.9259-3.9349z" fill="#e4e8e8" stroke="#738589" stroke-width=".99243"/>
<path d="m-11.23-12.175c-2.1685 0-3.9259 1.7614-3.9259 3.9349v3.9658c0-2.1734 1.7574-3.9349 3.9259-3.9349h83.155c2.1685 0 3.9259 1.7614 3.9259 3.9349v-3.9658c0-2.1734-1.7574-3.9349-3.9259-3.9349z" fill="#e4e8e8" stroke="#738589" stroke-width=".99243"/>
<path d="m-11.23-16.14c-2.1685 0-3.9259 1.7614-3.9259 3.9349v3.9658c0-2.1734 1.7574-3.9349 3.9259-3.9349h83.155c2.1685 0 3.9259 1.7614 3.9259 3.9349v-3.9658c0-2.1734-1.7574-3.9349-3.9259-3.9349z" fill="#e4e8e8" stroke="#738589" stroke-width=".99243"/>
<g transform="matrix(1.8671 0 0 2.0783 83.122 -224.83)">
<path d="m-27.475 107.17c-6.627 0-12 5.373-12 12 0 3.17 1.242 6.04 3.25 8.188l3.188 13.344c1.479 0.298 2.996 0.469 4.563 0.469 2.685 0 5.261-0.467 7.656-1.313l2.438-12.875c1.806-2.1 2.906-4.825 2.906-7.813 0-6.627-5.373-12-12-12z" opacity=".1"/>
<path d="m-38.475 121.17 4.625 19.375c1.725 0.413 3.523 0.625 5.375 0.625 2.213 0 4.35-0.323 6.375-0.906l3.625-19.09h-20z" fill="#efbf4f"/>
<path d="m-16.478 118.17a12.003 12.002 0 1 1-24.006 0 12.003 12.002 0 1 1 24.006 0z" fill="#95603a"/>
</g>
<rect x="-14.452" y="65.878" width="89.344" height="5.376" fill="url(#radialGradient4553)" opacity=".6"/>
<path d="m-11.246-19.914c-2.1685 0-3.9062 1.7424-3.9062 3.9062v13c0-2.1638 2.0873-4.7846 4.2558-4.7801l83.013 0.17476c2.1685 0.00457 3.7315 2.4415 3.7315 4.6053v-13c0-2.1638-1.7377-3.9062-3.9062-3.9062z" fill="url(#linearGradient4369)" opacity=".25818"/>
<path d="m-11.246-7.5364c-2.1685 0-3.9062 1.7424-3.9062 3.9062v70.594c0 2.1638 1.7377 3.9062 3.9062 3.9062h83.187c2.1685 0 3.9062-1.7424 3.9062-3.9062v-70.594c0-2.1638-1.7377-3.9062-3.9062-3.9062z" fill="url(#linearGradient4388)" opacity=".28"/>
<g transform="matrix(1.0498 0 0 1.1609 -88.279 -183.23)">
<g transform="translate(0 -6)">
<g transform="translate(-1e-6,32)">
<g transform="translate(-8.044 -17.334)">
<g transform="translate(251.29 -104.9)">
<g display="none">
<rect x="5" y="7" width="86" height="85" rx="6" ry="6" fill="url(#linearGradient4740)" filter="url(#filter3174-3-13)" opacity=".9"/>
</g>
</g>
<g transform="translate(0 6)">
<path d="m81.421 126.02c-1.9934 0-3.6045 1.6866-3.6088 3.7678l-0.14822 71.543c1.9137 2.5781 1.6653 2.4653 4.8515 2.7396 1.8042-15.197 36.499-74.995 77.418-74.995 0.48808 0 0.96328 0.0204 1.4492 0.0297-0.30286-1.7569-1.751-3.0854-3.5236-3.0854z" fill="#fff" opacity=".3"/>
<rect transform="matrix(.99759 0 0 1.0044 75.701 156.15)" x="2" y="-30" width="92" height="92" rx="3.957" ry="3.957" clip-path="url(#clipPath4156-4-2)" fill="url(#linearGradient4767)"/>
</g>
</g>
</g>
<g display="none">
<rect x="5" y="7" width="86" height="85" rx="6" ry="6" fill="url(#linearGradient4740)" filter="url(#filter3174-53)" opacity=".9"/>
</g>
<g display="none">
<rect x="5" y="7" width="86" height="85" rx="6" ry="6" fill="url(#linearGradient4740)" filter="url(#filter3174)" opacity=".9"/>
</g>
</g>
<g transform="translate(0 42)">
<!-- color: #eeeeee --></g>
</g>
</g>
</g>
</g>
</g>
</g>
</g>
<g transform="matrix(1.9444 0 0 1.9444 -29.212 -161.7)">
<g transform="translate(-4.0678 133.22)">
<g>
<g transform="translate(1,1)">
<g opacity=".1">
<!-- color: #eeeeee -->
<g></g>
</g>
</g>
</g>
</g>
</g>
</svg>
