<?xml version="1.0" encoding="UTF-8"?>
<!-- Created with Inkscape (http://www.inkscape.org/) -->
<svg version="1.0" viewBox="0 0 96 96" xmlns="http://www.w3.org/2000/svg" xmlns:cc="http://creativecommons.org/ns#" xmlns:dc="http://purl.org/dc/elements/1.1/" xmlns:rdf="http://www.w3.org/1999/02/22-rdf-syntax-ns#" xmlns:xlink="http://www.w3.org/1999/xlink">
<defs>
<linearGradient id="ButtonShadow" x1="45.448" x2="45.448" y1="92.54" y2="7.0165" gradientTransform="scale(1.0059 .99417)" gradientUnits="userSpaceOnUse">
<stop offset="0"/>
<stop stop-opacity=".58824" offset="1"/>
</linearGradient>
<linearGradient id="linearGradient3737">
<stop stop-color="#fff" offset="0"/>
<stop stop-color="#fff" stop-opacity="0" offset="1"/>
</linearGradient>
<filter id="filter3174" color-interpolation-filters="sRGB">
<feGaussianBlur stdDeviation="1.71"/>
</filter>
<radialGradient id="radialGradient3827" cx="48" cy="-27" r="42" gradientTransform="matrix(-1.0722 0 0 -.87502 199.46 -19.126)" gradientUnits="userSpaceOnUse">
<stop stop-color="#fff" offset="0"/>
<stop stop-color="#fff" offset=".8"/>
<stop stop-color="#fff" stop-opacity="0" offset="1"/>
</radialGradient>
<filter id="filter3174-36" color-interpolation-filters="sRGB">
<feGaussianBlur stdDeviation="1.71"/>
</filter>
<filter id="filter3174-3" color-interpolation-filters="sRGB">
<feGaussianBlur stdDeviation="1.71"/>
</filter>
<filter id="filter3174-2" color-interpolation-filters="sRGB">
<feGaussianBlur stdDeviation="1.71"/>
</filter>
<linearGradient id="linearGradient4071-3" x1="6" x2="90" y1="47" y2="47" gradientTransform="matrix(1.1071 0 0 1.1071 -4.9939 -3.6207)" gradientUnits="userSpaceOnUse">
<stop stop-color="#b2babc" offset="0"/>
<stop stop-color="#fff" offset=".25"/>
<stop stop-color="#96a1a4" offset=".5"/>
<stop stop-color="#fbf9f9" offset=".75"/>
<stop stop-color="#b2b9bc" offset="1"/>
</linearGradient>
<linearGradient id="linearGradient4129-2" x1="1.5" x2="94.5" y1="88.172" y2="88.172" gradientTransform="translate(.14895 .41503)" gradientUnits="userSpaceOnUse">
<stop offset="0"/>
<stop stop-opacity=".58824" offset=".1"/>
<stop stop-opacity=".58824" offset=".9"/>
<stop offset="1"/>
</linearGradient>
<radialGradient id="radialGradient7462-0" cx="13.948" cy="44.893" r="43.199" gradientTransform="matrix(.97513 0 0 .049191 34.048 80.582)" gradientUnits="userSpaceOnUse" xlink:href="#linearGradient3737"/>
<radialGradient id="radialGradient7464-6" cx="13.948" cy="44.893" r="43.199" gradientTransform="matrix(.88833 0 0 .049191 31.96 -90.317)" gradientUnits="userSpaceOnUse" xlink:href="#linearGradient3737"/>
<clipPath id="clipPath4156-4-1">
<path d="m27.046-55.695-14.214 13.321h0.06127l15.653 21.771 10.231-10.546c-0.2169-1.1522-11.311-23.67-11.732-24.546zm-17.399 16.313-14.888 14.062 21.229 17.515 10.385-10.577zm31.491 12.951-9.7413 9.7136 8.9448 12.458 7.7808-7.555zm-49.84 4.3788-13.754 12.982 26.283 13.846 0.06127-0.0617-0.12253-0.0617 9.8332-10.053-22.301-16.652zm38.015 7.4008-9.8025 9.7753 11.579 9.5594 7.6276-7.4008-8.6691-11.009zm20.187 5.674-7.3825 7.2158 6.1878 8.5418 5.8202-6.1365zm-32.195 6.3215-9.5575 9.4977 13.662 7.185 7.9339-7.6784zm23.312 2.3744-7.1068 6.9383 8.3628 6.9074 5.3608-5.674-0.06127-0.0925-0.0919 0.12335-6.4635-8.2026zm-8.7304 8.5418-7.5051 7.3392 10.354 5.4581c1.3975-1.321 5.6751-6.1229 5.8509-6.3215z" fill="#fff" opacity=".6"/>
</clipPath>
<linearGradient id="linearGradient1327" x1="2.7714" x2="50.528" y1="-28.642" y2="14.514" gradientUnits="userSpaceOnUse">
<stop stop-color="#fff" offset="0"/>
<stop stop-color="#fff" stop-opacity="0" offset="1"/>
</linearGradient>
</defs>
<metadata>
<rdf:RDF>
<cc:Work rdf:about="">
<dc:format>image/svg+xml</dc:format>
<dc:type rdf:resource="http://purl.org/dc/dcmitype/StillImage"/>
<dc:title/>
</cc:Work>
</rdf:RDF>
</metadata>
<g display="none">
<rect x="5" y="7" width="86" height="85" rx="6" ry="6" fill="url(#ButtonShadow)" filter="url(#filter3174)" opacity=".9"/>
</g>
<text x="38.019218" y="49.228157" fill="#000000" font-family="ReservoirGrunge" font-size="72px" letter-spacing="-12.18px" word-spacing="0px" style="line-height:125%" xml:space="preserve"><tspan x="38.019218" y="49.228157"/></text>
<g transform="translate(-1e-6,32)">
<g transform="translate(-8.044 -17.334)">
<g transform="matrix(.9435 0 0 .9435 7.5063 97.618)">
<g transform="matrix(1.0599 0 0 1.0599 .56983 -1207)">
<g transform="translate(-.14896 1026.1)">
<path d="m89.292 0.41503h-82.286c-3.7988 0-6.8571 3.0583-6.8571 6.8571v82.286c0 3.7989 3.0583 6.8571 6.8571 6.8571h82.286c3.7989 0 6.8571-3.0583 6.8571-6.8571v-82.286c0-3.7989-3.0583-6.8571-6.8571-6.8571z" opacity=".15"/>
<path d="m88.649 1.165h-81c-3.7395 0-6.75 3.0105-6.75 6.75v81c0 3.7395 3.0105 6.75 6.75 6.75h81c3.7395 0 6.75-3.0105 6.75-6.75v-81c0-3.7395-3.0105-6.75-6.75-6.75z" opacity=".15"/>
<path d="m88.006 1.915h-79.714c-3.6801 0-6.6429 2.9627-6.6429 6.6429v79.714c0 3.6801 2.9627 6.6429 6.6429 6.6429h79.714c3.6801 0 6.6429-2.9627 6.6429-6.6429v-79.714c0-3.6801-2.9627-6.6429-6.6429-6.6429z" fill="url(#linearGradient4071-3)"/>
<path d="m11.39 6.8022c-2.8565 0-5.1241 2.2884-5.1241 5.171v68.58c1.0972 1.6845 2.9688 2.8117 5.1241 2.8117h73.787c2.1553 0 4.0269-1.1272 5.1241-2.8117v-68.58c0-2.8826-2.2676-5.171-5.1241-5.171z" fill="#f5f3f3" opacity=".77865"/>
<path d="m9.974 5.1445c-3.1166 0-5.668 2.5395-5.668 5.646v69.278c0 3.1065 2.5513 5.646 5.668 5.646h76.792c3.1166 0 5.668-2.5395 5.668-5.646v-69.278c0-3.1065-2.5513-5.646-5.668-5.646zm0 2.3194h76.792c1.8881 0 3.352 1.4801 3.352 3.3266v69.278c0 1.8465-1.4639 3.3266-3.352 3.3266h-76.792c-1.8881 0-3.352-1.4801-3.352-3.3266v-69.278c0-1.8465 1.4639-3.3266 3.352-3.3266z" color="#000000" fill="#241f1f" fill-opacity=".63265" style="text-decoration-line:none;text-indent:0;text-transform:none"/>
<path d="m1.649 82.259v6c0 3.6801 2.9761 6.6562 6.6562 6.6562h79.687c3.6801 0 6.6563-2.9761 6.6563-6.6562v-6c0 3.6801-2.9761 6.6562-6.6563 6.6562h-79.687c-3.6801 0-6.6562-2.9761-6.6562-6.6562z" fill="url(#linearGradient4129-2)" opacity=".65818"/>
<rect x="5.524" y="80.665" width="84.25" height="4.25" rx="0" ry="4.25" fill="url(#radialGradient7462-0)" opacity=".55"/>
<rect transform="rotate(90)" x="5.975" y="-90.234" width="76.75" height="4.25" rx="0" ry="4.25" fill="url(#radialGradient7464-6)" opacity=".669"/>
<g transform="matrix(.9435 0 0 .9435 23.916 -70.093)">
<g transform="matrix(1.0367 0 0 .96335 -3.6289 5.8521)">
<path d="m28.482 81.356a39.089 37.754 0 0 0-39.089 37.752 39.089 37.754 0 0 0 39.089 37.754 39.089 37.754 0 0 0 15.72-3.2376l16.354 6.0384-5.3864-13.006a39.089 37.754 0 0 0 12.402-27.549 39.089 37.754 0 0 0-39.089-37.752z" fill="#f15d22"/>
</g>
<path d="m-2.0745 94.339a40.524 36.37 0 0 0-12.55 26.256 40.524 36.37 0 0 0 40.525 36.37 40.524 36.37 0 0 0 16.297-3.1189l16.954 5.8171-1.4701-3.3004-13.286-4.5588a40.524 36.37 0 0 1-16.297 3.1189 40.524 36.37 0 0 1-40.525-36.37 40.524 36.37 0 0 1 10.353-24.214zm58.481 50.156a40.524 36.37 0 0 1-0.64168 0.59628l0.0022 4e-3a40.524 36.37 0 0 0 0.63953-0.60025z" fill="#2d2d2d" opacity=".721"/>
<g transform="matrix(3.9671 -.213 .22053 3.8316 -17.914 -78.587)">
<path d="m15.025 49.753h1.4467v1.1108l-0.27936 2.2315h-0.89461l-0.27271-2.2315v-1.1108m0.04988 3.6815h1.3502v1.1939h-1.3502v-1.1939m-2.4359-0.57202v-1.0143h2.328v2.0786c-0.44565 0.30375-0.8403 0.51105-1.1839 0.62191-0.34144 0.10864-0.74718 0.16296-1.2172 0.16296-0.57867 0-1.0509-0.09866-1.4167-0.29599-0.36361-0.19732-0.6463-0.49109-0.84805-0.88131-0.19954-0.39021-0.29931-0.83807-0.29931-1.3436 0-0.53211 0.10975-0.99438 0.32924-1.3868 0.2195-0.39464 0.54098-0.69396 0.96445-0.89794 0.33035-0.15741 0.77488-0.23612 1.3336-0.23612 0.53876 5e-6 0.94117 0.04878 1.2072 0.14633 0.26827 0.09756 0.48998 0.24943 0.66514 0.45562 0.17737 0.20398 0.31039 0.46338 0.39908 0.77821l-1.4533 0.2594c-0.05987-0.18402-0.16185-0.32481-0.30596-0.42236-0.1419-0.09755-0.3237-0.14633-0.54541-0.14633-0.33036 4e-6 -0.59419 0.11529-0.79152 0.34587-0.19511 0.22837-0.29266 0.59087-0.29266 1.0875-2e-6 0.52768 0.09866 0.90459 0.29599 1.1307 0.19954 0.22615 0.47668 0.33922 0.83142 0.33922 0.1685 1e-6 0.32924-0.02439 0.48223-0.07317 0.15298-0.04878 0.32813-0.13192 0.52546-0.24943v-0.45895h-1.0077m-8.2623-3.1095h1.9821l0.76491 2.9665 0.76158-2.9665h1.9755v4.8755h-1.2305v-3.7181l-0.95448 3.7181h-1.1141l-0.95115-3.7181v3.7181h-1.2338v-4.8755m-5.0964 2.4411c-3.1e-7 -0.79595 0.22171-1.4156 0.66514-1.8591 0.44342-0.44342 1.0609-0.66514 1.8524-0.66514 0.81147 5e-6 1.4367 0.21839 1.8757 0.65516 0.43899 0.43456 0.65848 1.0443 0.65849 1.8291-5.3e-6 0.5698-0.09645 1.0376-0.28934 1.4034-0.19068 0.36361-0.46782 0.6474-0.83142 0.85138-0.3614 0.20176-0.81258 0.30264-1.3536 0.30264-0.54985 0-1.0055-0.08758-1.3669-0.26273-0.35918-0.17515-0.65073-0.45229-0.87466-0.83142-0.22393-0.37913-0.3359-0.85359-0.3359-1.4234m1.5065 0.0067c-1.81e-6 0.4922 0.0909 0.84584 0.27271 1.0609 0.18402 0.21506 0.43345 0.32259 0.74828 0.32259 0.3237 1e-6 0.57423-0.10531 0.75161-0.31594 0.17737-0.21062 0.26605-0.58865 0.26606-1.1341-3.9e-6 -0.45894-0.093123-0.79373-0.27936-1.0044-0.18403-0.21284-0.43456-0.31926-0.75161-0.31927-0.30375 4e-6 -0.54763 0.10754-0.73165 0.32259-0.18402 0.21506-0.27603 0.57091-0.27603 1.0675" fill="#fff"/>
<path transform="matrix(.26635 .014806 -.01533 .27577 4.281 -8.8132)" d="m57.814 209.27-5.416 0.29102 0.11523 1.9941 5.3008-0.28516 0.16602 2.9043 0.06445-0.88867zm-12.982 0.42774c-0.44161 2e-3 -0.91383 0.0159-1.418 0.043-2.0912 0.1123-3.7396 0.4876-4.9434 1.123-1.5426 0.82252-2.6824 1.9687-3.4219 3.4395-0.7399 1.4628-1.056 3.1564-0.94531 5.0801 6e-3 0.1036 0.02492 0.19864 0.0332 0.30078 0.1042-1.2352 0.39929-2.367 0.91211-3.3809 0.73944-1.4708 1.8793-2.6169 3.4219-3.4395 1.2037-0.63544 2.8521-1.0107 4.9434-1.123 2.0165-0.10826 3.5327-0.0121 4.5488 0.28711 1.0244 0.29877 1.8855 0.80348 2.584 1.5137 0.27893 0.27714 0.52705 0.59509 0.75781 0.9375l0.89844-0.20508c-0.39747-1.1203-0.94994-2.0306-1.6562-2.7324-0.69851-0.71019-1.5596-1.2149-2.584-1.5137-0.76211-0.22439-1.806-0.33488-3.1309-0.33008zm-11.762 0.90039-7.3945 0.39648-2.2344 10.879-3.4785-10.572-7.4199 0.39844 0.11523 1.9941 7.3047-0.39258 3.4785 10.572 2.2344-10.879 7.3945-0.39648 0.89844 15.631 0.11523-6e-3zm-29.088 1.2969c-0.35929-5e-3 -0.72972 3e-3 -1.1094 0.0234-2.9626 0.15909-5.2275 1.0852-6.7949 2.7774-1.5675 1.6922-2.2691 3.9761-2.1035 6.8535 0.00423 0.0736 0.018185 0.13831 0.023437 0.21094 0.16553-2.0493 0.85378-3.7406 2.0801-5.0644 1.5674-1.6921 3.8323-2.6183 6.7949-2.7774 3.0373-0.16305 5.4222 0.49949 7.1563 1.9902 1.699 1.4533 2.6394 3.5619 2.8301 6.3164 0.03885-0.58108 0.05308-1.1851 0.01563-1.8359-0.16332-2.8374-1.1122-4.9977-2.8457-6.4805-1.5173-1.3044-3.5318-1.9755-6.0469-2.0137zm48.635 5.252-5.5332 0.29687-0.26758 0.0606c-0.0064-0.0159-0.01492-0.0292-0.02148-0.0449l-2.8906 0.15429 0.11523 1.9942 8.5977-0.46094 0.32226 5.5918c0.03789-0.0278 0.07324-0.0499 0.11133-0.0781zm-35.215 0.49023 0.6582 11.447 0.11523-6e-3 -0.63281-11.014zm22.393 1.7715c-0.05189 0.49224-0.07717 1.0172-0.04297 1.6113 0.10979 1.9076 0.55811 3.2495 1.3438 4.0274 0.79392 0.77745 1.8539 1.1299 3.1816 1.0586 0.63068-0.0339 1.2286-0.15424 1.791-0.36133 0.56244-0.20708 1.1999-0.54139 1.9141-1.0059l-0.0957-1.6602-0.52734 0.0293c-0.46228 0.26685-0.9015 0.4933-1.291 0.63671-0.56246 0.20709-1.1603 0.32747-1.791 0.36133-1.3278 0.0713-2.3877-0.28114-3.1816-1.0586-0.72799-0.72081-1.1531-1.9478-1.3008-3.6387zm-40.141 2.2246c-0.051018 0.49635-0.074136 1.0274-0.039062 1.6367 0.10241 1.7794 0.51695 3.0403 1.2422 3.7812 0.73352 0.7405 1.6888 1.0789 2.8672 1.0156 1.2116-0.0651 2.128-0.49588 2.748-1.293 0.62005-0.79707 0.87324-2.1826 0.75977-4.1543-0.00476-0.0827-0.020979-0.15008-0.027344-0.23047-0.088722 1.0444-0.32144 1.8564-0.73242 2.3848-0.62007 0.79709-1.5365 1.2279-2.748 1.293-1.1784 0.0633-2.1337-0.27513-2.8672-1.0156-0.67205-0.68659-1.0659-1.8396-1.2031-3.418zm58.752 0.95507-0.88867 0.0469-0.05469 0.77344-3.3477 0.17968-0.14062-0.76172-0.62305 0.0332 0.11524 1.9941 4.9395-0.26563 0.13281 2.3223 0.11524-6e-3z" fill="#2d2d2d" opacity=".755"/>
</g>
</g>
<rect transform="matrix(1.0692 0 0 1.0477 4.4442 38.894)" x="2" y="-30" width="75.966" height="69.024" rx="3.957" ry="3.957" clip-path="url(#clipPath4156-4-1)" fill="url(#linearGradient1327)" opacity=".50781"/>
</g>
</g>
</g>
<g transform="matrix(1.1071 0 0 1.1071 -322.29 -12.732)">
<path d="m112 4.5c-3.324 0-6 2.676-6 6v15h1v-15c0-2.7873 2.2127-5 5-5h72c2.7873 0 5 2.2127 5 5v15h1v-15c0-3.324-2.676-6-6-6z" fill="url(#radialGradient3827)" opacity=".45"/>
</g>
<g transform="translate(251.29 -104.9)">
<g display="none">
<rect x="5" y="7" width="86" height="85" rx="6" ry="6" fill="url(#ButtonShadow)" filter="url(#filter3174-3)" opacity=".9"/>
</g>
</g>
</g>
</g>
<g display="none">
<rect x="5" y="7" width="86" height="85" rx="6" ry="6" fill="url(#ButtonShadow)" filter="url(#filter3174-36)" opacity=".9"/>
</g>
<g display="none">
<rect x="5" y="7" width="86" height="85" rx="6" ry="6" fill="url(#ButtonShadow)" filter="url(#filter3174-2)" opacity=".9"/>
</g>
</svg>
