<?xml version="1.0" encoding="UTF-8"?>
<!-- Created with Inkscape (http://www.inkscape.org/) -->
<svg version="1.1" viewBox="0 0 96 96" xmlns="http://www.w3.org/2000/svg" xmlns:cc="http://creativecommons.org/ns#" xmlns:dc="http://purl.org/dc/elements/1.1/" xmlns:rdf="http://www.w3.org/1999/02/22-rdf-syntax-ns#" xmlns:xlink="http://www.w3.org/1999/xlink">
<defs>
<linearGradient id="linearGradient4071" x1="6" x2="90" y1="47" y2="47" gradientTransform="matrix(1.1071 0 0 1.1071 -4.9939 -3.6207)" gradientUnits="userSpaceOnUse">
<stop stop-color="#b2bcb2" offset="0"/>
<stop stop-color="#fff" offset=".25"/>
<stop stop-color="#96a497" offset=".5"/>
<stop stop-color="#fbf9f9" offset=".75"/>
<stop stop-color="#b3bcb2" offset="1"/>
</linearGradient>
<linearGradient id="linearGradient4129" x1="1.5" x2="94.5" y1="88.172" y2="88.172" gradientTransform="translate(.14895 .41503)" gradientUnits="userSpaceOnUse">
<stop offset="0"/>
<stop stop-opacity=".58824" offset=".1"/>
<stop stop-opacity=".58824" offset=".9"/>
<stop offset="1"/>
</linearGradient>
<radialGradient id="radialGradient7462" cx="13.948" cy="44.893" r="43.199" gradientTransform="matrix(.97513 0 0 .049191 34.048 80.582)" gradientUnits="userSpaceOnUse" xlink:href="#linearGradient3737"/>
<linearGradient id="linearGradient3737">
<stop stop-color="#fff" offset="0"/>
<stop stop-color="#fff" stop-opacity="0" offset="1"/>
</linearGradient>
<radialGradient id="radialGradient7464" cx="13.948" cy="44.893" r="43.199" gradientTransform="matrix(.88833 0 0 .049191 31.96 -90.317)" gradientUnits="userSpaceOnUse" xlink:href="#linearGradient3737"/>
<linearGradient id="linearGradient4767" x1="2.7714" x2="50.528" y1="-28.642" y2="14.514" gradientUnits="userSpaceOnUse" xlink:href="#linearGradient3737"/>
<clipPath id="clipPath4156-4-1">
<path d="m27.046-55.695-14.214 13.321h0.06127l15.653 21.771 10.231-10.546c-0.2169-1.1522-11.311-23.67-11.732-24.546zm-17.399 16.313-14.888 14.062 21.229 17.515 10.385-10.577zm31.491 12.951-9.7413 9.7136 8.9448 12.458 7.7808-7.555zm-49.84 4.3788-13.754 12.982 26.283 13.846 0.06127-0.0617-0.12253-0.0617 9.8332-10.053-22.301-16.652zm38.015 7.4008-9.8025 9.7753 11.579 9.5594 7.6276-7.4008-8.6691-11.009zm20.187 5.674-7.3825 7.2158 6.1878 8.5418 5.8202-6.1365zm-32.195 6.3215-9.5575 9.4977 13.662 7.185 7.9339-7.6784zm23.312 2.3744-7.1068 6.9383 8.3628 6.9074 5.3608-5.674-0.06127-0.0925-0.0919 0.12335-6.4635-8.2026zm-8.7304 8.5418-7.5051 7.3392 10.354 5.4581c1.3975-1.321 5.6751-6.1229 5.8509-6.3215z" fill="#fff" opacity=".6"/>
</clipPath>
<clipPath id="clipPath11530-6">
<path d="m118.62 209.5c2.5833-0.38773 5.1667-0.51062 7.75 0.75 0 0 0.28209 5.4813-1.625 5.625-2.3783 0.17918-6.125-6.375-6.125-6.375z" fill="none" stroke="#000" stroke-width=".087522"/>
</clipPath>
<linearGradient id="linearGradient5285-5" x1="182.1" x2="183.49" y1="187.81" y2="191.97" gradientTransform="matrix(-.86544 .74774 .74774 .86544 94.234 -91.962)" gradientUnits="userSpaceOnUse" xlink:href="#linearGradient11579-4"/>
<linearGradient id="linearGradient11579-4">
<stop offset="0"/>
<stop stop-opacity="0" offset="1"/>
</linearGradient>
<linearGradient id="linearGradient5287-1" x1="182.1" x2="183.49" y1="187.81" y2="191.97" gradientTransform="matrix(.85381 .69535 -.69535 .85381 86.87 -80.099)" gradientUnits="userSpaceOnUse" xlink:href="#linearGradient11579-4"/>
<linearGradient id="linearGradient5289-2" x1="312.31" x2="316.69" y1="175.38" y2="175.38" gradientUnits="userSpaceOnUse" xlink:href="#linearGradient3737"/>
<clipPath id="clipPath5690-5">
<path transform="matrix(.70852 0 0 .70934 91.35 52.938)" d="m314.97 169.44c-4.6475 0-8.4062 3.7587-8.4062 8.4062s3.7587 8.4062 8.4062 8.4062 8.4062-3.7587 8.4062-8.4062-3.7587-8.4062-8.4062-8.4062z" fill="#e9b96e" stroke="url(#radialGradient5694) #000000" stroke-linecap="round" stroke-linejoin="round" stroke-width=".61879"/>
</clipPath>
<radialGradient id="radialGradient5291-8" cx="140.19" cy="273.7" r="81.986" gradientTransform="matrix(.33853 0 0 .1808 46.681 174.25)" gradientUnits="userSpaceOnUse" xlink:href="#linearGradient3737"/>
<radialGradient id="radialGradient5293-0" cx="315.07" cy="169.69" r="8.6256" gradientTransform="matrix(5.2169 0 -.00018962 -5.6317 -1549.1 1178.1)" gradientUnits="userSpaceOnUse">
<stop stop-color="#fff" offset="0"/>
<stop stop-color="#a7cc5c" stop-opacity=".24194" offset="1"/>
</radialGradient>
<radialGradient id="radialGradient5295-5" cx="177.56" cy="69.59" r="9.496" gradientTransform="matrix(-.35244 .35368 .25147 .21253 117.72 95.776)" gradientUnits="userSpaceOnUse" xlink:href="#linearGradient11579-4"/>
<radialGradient id="radialGradient5297-6" cx="177.56" cy="69.59" r="9.496" gradientTransform="matrix(-.42568 .45079 .32424 .28823 125.27 74)" gradientUnits="userSpaceOnUse" xlink:href="#linearGradient11579-4"/>
<radialGradient id="radialGradient5299-4" cx="318.61" cy="170.59" r=".8242" gradientTransform="matrix(-3.9565 3.7718 15.709 14.473 -1348.1 -3496)" gradientUnits="userSpaceOnUse" xlink:href="#linearGradient6820-0"/>
<linearGradient id="linearGradient6820-0">
<stop stop-color="#063a42" offset="0"/>
<stop stop-color="#131f23" offset="1"/>
</linearGradient>
<linearGradient id="linearGradient5301-3" x1="169.51" x2="180.92" y1="55.165" y2="57.767" gradientUnits="userSpaceOnUse">
<stop stop-color="#eeeeec" stop-opacity="0" offset="0"/>
<stop stop-color="#fff" offset=".5282"/>
<stop stop-color="#eeeeec" stop-opacity="0" offset="1"/>
</linearGradient>
<filter id="filter6531-9" x="-.3194" y="-.062723" width="1.6388" height="1.1254" color-interpolation-filters="sRGB">
<feGaussianBlur stdDeviation="0.6221794"/>
</filter>
<radialGradient id="radialGradient5305-5" cx="177.56" cy="69.59" r="9.496" gradientTransform="matrix(.35074 .33747 -.21536 .23565 69.125 96.607)" gradientUnits="userSpaceOnUse" xlink:href="#linearGradient11579-4"/>
<radialGradient id="radialGradient5307-5" cx="177.56" cy="69.59" r="9.496" gradientTransform="matrix(.44857 .43067 -.29168 .31756 57.457 75.53)" gradientUnits="userSpaceOnUse" xlink:href="#linearGradient11579-4"/>
<radialGradient id="radialGradient5309-4" cx="318.61" cy="170.59" r=".8242" gradientTransform="matrix(4.4135 3.4221 -15.076 15.263 1284.1 -3519.2)" gradientUnits="userSpaceOnUse" xlink:href="#linearGradient6820-0"/>
<radialGradient id="radialGradient5311-8" cx="173.33" cy="58.524" r="4.8358" gradientTransform="matrix(1.3058 .34318 -2.8114 10.697 110.55 -617.95)" gradientUnits="userSpaceOnUse" xlink:href="#linearGradient3737"/>
<filter id="filter6444-3" x="-.26856" y="-.089254" width="1.5371" height="1.1785" color-interpolation-filters="sRGB">
<feGaussianBlur stdDeviation="1.0822378"/>
</filter>
<radialGradient id="radialGradient5315-6" cx="142.75" cy="172.87" r="16.25" gradientTransform="matrix(1 0 0 .49231 0 89.646)" gradientUnits="userSpaceOnUse" xlink:href="#linearGradient12297-2"/>
<linearGradient id="linearGradient12297-2">
<stop stop-color="#fdd6bc" offset="0"/>
<stop stop-color="#fdccbc" stop-opacity="0" offset="1"/>
</linearGradient>
<filter id="filter12325-0" x="-.10702" y="-.081841" width="1.214" height="1.1637" color-interpolation-filters="sRGB">
<feGaussianBlur stdDeviation="1.4492839"/>
</filter>
<radialGradient id="radialGradient5317-7" cx="172.5" cy="104.07" r="8.5" gradientTransform="matrix(.24343 -5.7792e-8 2.1152e-7 .16093 70.513 175.52)" gradientUnits="userSpaceOnUse" xlink:href="#linearGradient12477-2"/>
<linearGradient id="linearGradient12477-2">
<stop stop-color="#616161" offset="0"/>
<stop offset="1"/>
</linearGradient>
<radialGradient id="radialGradient5323-9" cx="172.5" cy="104.07" r="8.5" gradientTransform="matrix(.24343 -5.7792e-8 2.1152e-7 .16093 34.556 175.52)" gradientUnits="userSpaceOnUse" xlink:href="#linearGradient12477-2"/>
</defs>
<metadata>
<rdf:RDF>
<cc:Work rdf:about="">
<dc:format>image/svg+xml</dc:format>
<dc:type rdf:resource="http://purl.org/dc/dcmitype/StillImage"/>
<dc:title/>
<dc:date>2017</dc:date>
<dc:creator>
<cc:Agent>
<dc:title>Cristian Pozzessere "ilnanny"</dc:title>
</cc:Agent>
</dc:creator>
<dc:subject>
<rdf:Bag>
<rdf:li>Global language</rdf:li>
</rdf:Bag>
</dc:subject>
<dc:description>Playing with Inkscape on Gnu/Linux O. S.</dc:description>
<dc:contributor>
<cc:Agent>
<dc:title>In the night, alone like a dog.</dc:title>
</cc:Agent>
</dc:contributor>
<cc:license rdf:resource="http://creativecommons.org/licenses/by-sa/4.0/"/>
</cc:Work>
<cc:License rdf:about="http://creativecommons.org/licenses/by-sa/4.0/">
<cc:permits rdf:resource="http://creativecommons.org/ns#Reproduction"/>
<cc:permits rdf:resource="http://creativecommons.org/ns#Distribution"/>
<cc:requires rdf:resource="http://creativecommons.org/ns#Notice"/>
<cc:requires rdf:resource="http://creativecommons.org/ns#Attribution"/>
<cc:permits rdf:resource="http://creativecommons.org/ns#DerivativeWorks"/>
<cc:requires rdf:resource="http://creativecommons.org/ns#ShareAlike"/>
</cc:License>
</rdf:RDF>
</metadata>
<g transform="translate(0 -1026.5)">
<g transform="translate(-.14896 1026.1)">
<path d="m89.292 0.41503h-82.286c-3.7988 0-6.8571 3.0583-6.8571 6.8571v82.286c0 3.7989 3.0583 6.8571 6.8571 6.8571h82.286c3.7989 0 6.8571-3.0583 6.8571-6.8571v-82.286c0-3.7989-3.0583-6.8571-6.8571-6.8571z" opacity=".15"/>
<path d="m88.649 1.165h-81c-3.7395 0-6.75 3.0105-6.75 6.75v81c0 3.7395 3.0105 6.75 6.75 6.75h81c3.7395 0 6.75-3.0105 6.75-6.75v-81c0-3.7395-3.0105-6.75-6.75-6.75z" opacity=".15"/>
<path d="m88.006 1.915h-79.714c-3.6801 0-6.6429 2.9627-6.6429 6.6429v79.714c0 3.6801 2.9627 6.6429 6.6429 6.6429h79.714c3.6801 0 6.6429-2.9627 6.6429-6.6429v-79.714c0-3.6801-2.9627-6.6429-6.6429-6.6429z" fill="url(#linearGradient4071)"/>
<path d="m11.39 6.8022c-2.8565 0-5.1241 2.3147-5.1241 5.2305v69.369c1.0972 1.7038 2.9688 2.8441 5.1241 2.8441h73.787c2.1553 0 4.0269-1.1402 5.1241-2.8441v-69.369c0-2.9158-2.2676-5.2305-5.1241-5.2305z" fill="#f3f5f3" opacity=".77865"/>
<path d="m9.974 5.1445c-3.1166 0-5.668 2.5395-5.668 5.646v69.278c0 3.1065 2.5513 5.646 5.668 5.646h76.792c3.1166 0 5.668-2.5395 5.668-5.646v-69.278c0-3.1065-2.5513-5.646-5.668-5.646zm0 2.3194h76.792c1.8881 0 3.352 1.4801 3.352 3.3266v69.278c0 1.8465-1.4639 3.3266-3.352 3.3266h-76.792c-1.8881 0-3.352-1.4801-3.352-3.3266v-69.278c0-1.8465 1.4639-3.3266 3.352-3.3266z" color="#000000" fill="#241f1f" fill-opacity=".63265" style="text-decoration-line:none;text-indent:0;text-transform:none"/>
<path d="m1.649 82.259v6c0 3.6801 2.9761 6.6562 6.6562 6.6562h79.687c3.6801 0 6.6563-2.9761 6.6563-6.6562v-6c0 3.6801-2.9761 6.6562-6.6563 6.6562h-79.687c-3.6801 0-6.6562-2.9761-6.6562-6.6562z" fill="url(#linearGradient4129)" opacity=".65818"/>
<rect x="5.524" y="80.665" width="84.25" height="4.25" rx="0" ry="4.25" fill="url(#radialGradient7462)" opacity=".55"/>
<rect transform="rotate(90)" x="5.975" y="-90.234" width="76.75" height="4.25" rx="0" ry="4.25" fill="url(#radialGradient7464)" opacity=".669"/>
<g transform="matrix(1.0278 0 0 1.0278 -49.002 -152.79)">
<path d="m126.57 193.25a32.048 32.048 0 1 0-64.096 0 32.048 32.048 0 0 0 64.096 0z" fill="#9ade00" stroke="#009100" stroke-linecap="round" stroke-linejoin="round" stroke-width="1.2166"/>
<path d="m72.924 207.05c2.8923-0.74835 5.8162-1.1965 8.905-0.0694 0 0 0.97403 6.2014-1.1784 6.5919-2.6839 0.48739-7.7266-6.5219-7.7266-6.5219z" fill="#a4ac9b"/>
<path transform="matrix(1.1375 -.11913 .11913 1.1375 -86.97 -17.121)" d="m118.62 209.5c2.5833-0.38773 5.1667-0.51062 7.75 0.75 0 0 0.28209 5.4813-1.625 5.625-2.3783 0.17918-6.125-6.375-6.125-6.375z" clip-path="url(#clipPath11530-6)" fill="none" opacity=".6" stroke="#000" stroke-width="1.4519"/>
<path d="m79.963 212.5c-2.1782-0.92813-3.8913-3.0954-5.4746-5.6078l2.9711-0.45439c0.24357 2.2893 1.1634 4.2713 2.5037 6.0627z" fill="#fff"/>
<path d="m81.819 207.02 0.25272 2.9212c-4.3208-2.713-6.6161-2.7551-7.1014-0.41053l-2.1085-2.5203c2.7554-0.49449 5.4083-1.2104 8.9584 9e-3z" fill="url(#linearGradient5285-5)" opacity=".3083"/>
<path d="m115.76 207.06c-2.8044-0.63915-5.6308-0.9885-8.5717 0.18144 0 0-0.76363 5.9952 1.3187 6.3108 2.5965 0.39384 7.253-6.4928 7.253-6.4928z" fill="#a4ac9b"/>
<path transform="matrix(-1.098 -.082782 -.082782 1.098 263.35 -13.152)" d="m118.62 209.5c2.5833-0.38773 5.1667-0.51062 7.75 0.75 0 0 0.28209 5.4813-1.625 5.625-2.3783 0.17918-6.125-6.375-6.125-6.375z" clip-path="url(#clipPath11530-6)" fill="none" opacity=".6" stroke="#000" stroke-width="1.626"/>
<path d="m109.13 212.5c2.0702-0.95422 3.6581-3.0879 5.1114-5.5501l-2.8719-0.35404c-0.17027 2.2099-0.99998 4.1431-2.2396 5.9046z" fill="#fff"/>
<path d="m107.19 207.28-0.16145 2.8184c4.0822-2.732 6.2899-2.8368 6.8227-0.59405l1.9585-2.4845c-2.6656-0.39858-5.2387-1.0133-8.621 0.25913z" fill="url(#linearGradient5287-1)" opacity=".1581"/>
<path d="m66.809 206.54h55.499" fill="none" stroke="#000" stroke-width="1.2165"/>
<path transform="matrix(0 5.783 -10.042 0 1855.4 -1642.3)" d="m316.69 175.38a2.1875 2.1875 0 1 1-4.375 0 2.1875 2.1875 0 1 1 4.375 0z" clip-path="url(#clipPath5690-5)" fill="url(#linearGradient5289-2)" opacity=".8"/>
<path d="m66.39 194.09c-0.54137 39.6 56.275 38.379 55.498 3.1873-0.73384 33.404-54.691 34.452-55.488-3.1873z" fill="url(#radialGradient5291-8)" fill-rule="evenodd" opacity=".39902"/>
<path d="m94.522 224.36c-17.183 0-31.081-13.897-31.081-31.081 0-17.183 13.897-31.081 31.081-31.081 17.183 0 31.081 13.897 31.081 31.081 0 17.183-13.897 31.081-31.081 31.081z" fill="none" stroke="url(#radialGradient5293-0)" stroke-linecap="round" stroke-linejoin="round" stroke-width=".94575"/>
<path d="m69.299 176.72a3.1081 4.7535 48.441 1 0 6.6935-6.717 3.1081 4.7535 48.441 1 0-6.6935 6.717z" fill="url(#radialGradient5295-5)"/>
<path d="m68.206 178.38a4.116 5.8902 45.007 1 0 8.0845-8.5614 4.116 5.8902 45.007 1 0-8.0845 8.5614z" fill="url(#radialGradient5297-6)" opacity=".60396"/>
<path d="m74.269 168.7c4.128 1.7794-1.1678 9.5919-5.1583 6.7257-4.465-3.2069-4.9626-10.405-3.6587-14.351 0.28594-0.86835 1.8718-0.86429 2.0735-0.0568 0.84864 3.3982 4.0403 6.517 6.7436 7.6822z" fill="url(#radialGradient5299-4)"/>
<path transform="matrix(-.44074 .20899 .22299 .41307 135.02 108.68)" d="m174.78 40.614c0.70089 7.2249 0.0346 13.617-5.2635 23.17 1.2917 2.4591 2.6506 4.8817 6.5473 5.9303 5.5962-12.023 2.7392-21.292-1.2838-29.101z" fill="url(#linearGradient5301-3)" filter="url(#filter6531-9)" opacity=".44554"/>
<path d="m119.74 176.13a4.6231 3.0297 45.005 1 1-6.6612-6.4092 4.6231 3.0297 45.005 1 1 6.6612 6.4092z" fill="url(#radialGradient5305-5)"/>
<path d="m121.06 178.19a5.9064 4.0927 45.005 1 1-8.5192-8.1794 5.9064 4.0927 45.005 1 1 8.5192 8.1794z" fill="url(#radialGradient5307-5)" opacity=".60396"/>
<path d="m114.66 169.07c-4.13 2.028 2.0072 9.3161 5.9044 6.2329 4.3605-3.4497 4.2779-10.536 2.5989-14.312-0.36848-0.83087-2.0117-0.71706-2.1534 0.0875-0.59693 3.3877-3.6453 6.6633-6.3499 7.9912z" fill="url(#radialGradient5309-4)"/>
<path transform="matrix(.4741 .17432 -.19676 .42004 46.713 114.47)" d="m174.78 40.614c0.70089 7.2249 0.0346 13.617-5.2635 23.17 1.2917 2.4591 2.6506 4.8817 6.5473 5.9303 5.5962-12.023 2.7392-21.292-1.2838-29.101z" fill="url(#radialGradient5311-8)" filter="url(#filter6444-3)" opacity=".66832"/>
<path transform="matrix(.24052 0 0 -.20231 78.171 233.63)" d="m126.5 187s2.2108-41.347 15.5-41.5c13.731-0.15831 17 42.5 17 42.5-15.307-21.808-23.645-10.165-32.5-1z" fill="url(#radialGradient5315-6)" fill-rule="evenodd" filter="url(#filter12325-0)" opacity=".99459"/>
<path d="m116.41 194.03a3.9084 3.9084 0 1 1-7.8168 0 3.9084 3.9084 0 1 1 7.8168 0z" fill="url(#radialGradient5317-7)"/>
<path d="m113.23 191.86a0.72414 0.71716 0 1 1-1.4483 0 0.72414 0.71716 0 1 1 1.4483 0z" fill="#eeeeec"/>
<path transform="matrix(.24052 0 0 -.20231 42.214 233.63)" d="m126.5 187s2.2108-41.347 15.5-41.5c13.731-0.15831 17 42.5 17 42.5-15.307-21.808-23.645-10.165-32.5-1z" fill="url(#radialGradient5315-6)" fill-rule="evenodd" filter="url(#filter12325-0)" opacity=".99459"/>
<path d="m80.456 194.03a3.9084 3.9084 0 1 1-7.8168 0 3.9084 3.9084 0 1 1 7.8168 0z" fill="url(#radialGradient5323-9)"/>
<path d="m77.272 191.86a0.72413 0.71716 0 1 1-1.4483 0 0.72413 0.71716 0 1 1 1.4483 0z" fill="#eeeeec"/>
</g>
<rect transform="matrix(1.0692 0 0 1.0477 4.4442 38.894)" x="2" y="-30" width="75.966" height="69.024" rx="3.957" ry="3.957" clip-path="url(#clipPath4156-4-1)" fill="url(#linearGradient4767)" opacity=".50781"/>
</g>
</g>
</svg>
