<?xml version="1.0" encoding="UTF-8"?>
<!-- Created with Inkscape (http://www.inkscape.org/) -->
<svg version="1.0" viewBox="0 0 96 96" xmlns="http://www.w3.org/2000/svg" xmlns:cc="http://creativecommons.org/ns#" xmlns:dc="http://purl.org/dc/elements/1.1/" xmlns:rdf="http://www.w3.org/1999/02/22-rdf-syntax-ns#" xmlns:xlink="http://www.w3.org/1999/xlink">
<defs>
<linearGradient id="ButtonShadow" x1="45.448" x2="45.448" y1="92.54" y2="7.0165" gradientTransform="scale(1.0059 .99417)" gradientUnits="userSpaceOnUse">
<stop offset="0"/>
<stop stop-opacity=".58824" offset="1"/>
</linearGradient>
<linearGradient id="linearGradient3737">
<stop stop-color="#fff" offset="0"/>
<stop stop-color="#fff" stop-opacity="0" offset="1"/>
</linearGradient>
<filter id="filter3174" color-interpolation-filters="sRGB">
<feGaussianBlur stdDeviation="1.71"/>
</filter>
<filter id="filter3174-6" color-interpolation-filters="sRGB">
<feGaussianBlur stdDeviation="1.71"/>
</filter>
<linearGradient id="linearGradient4071-3" x1="6" x2="90" y1="47" y2="47" gradientTransform="matrix(1.1071 0 0 1.1071 -4.9939 -3.6207)" gradientUnits="userSpaceOnUse">
<stop stop-color="#b2babc" offset="0"/>
<stop stop-color="#fff" offset=".25"/>
<stop stop-color="#96a1a4" offset=".5"/>
<stop stop-color="#fbf9f9" offset=".75"/>
<stop stop-color="#b2b9bc" offset="1"/>
</linearGradient>
<linearGradient id="linearGradient4129" x1="1.5" x2="94.5" y1="88.172" y2="88.172" gradientTransform="translate(.14895 .41503)" gradientUnits="userSpaceOnUse">
<stop offset="0"/>
<stop stop-opacity=".58824" offset=".1"/>
<stop stop-opacity=".58824" offset=".9"/>
<stop offset="1"/>
</linearGradient>
<radialGradient id="radialGradient7462" cx="13.948" cy="44.893" r="43.199" gradientTransform="matrix(.97513 0 0 .049191 34.048 80.582)" gradientUnits="userSpaceOnUse" xlink:href="#linearGradient3737"/>
<radialGradient id="radialGradient7464" cx="13.948" cy="44.893" r="43.199" gradientTransform="matrix(.88833 0 0 .049191 31.96 -90.317)" gradientUnits="userSpaceOnUse" xlink:href="#linearGradient3737"/>
<linearGradient id="linearGradient4767" x1="2.7714" x2="50.528" y1="-28.642" y2="14.514" gradientUnits="userSpaceOnUse" xlink:href="#linearGradient3737"/>
<clipPath id="clipPath4156-4-1">
<path d="m27.046-55.695-14.214 13.321h0.06127l15.653 21.771 10.231-10.546c-0.2169-1.1522-11.311-23.67-11.732-24.546zm-17.399 16.313-14.888 14.062 21.229 17.515 10.385-10.577zm31.491 12.951-9.7413 9.7136 8.9448 12.458 7.7808-7.555zm-49.84 4.3788-13.754 12.982 26.283 13.846 0.06127-0.0617-0.12253-0.0617 9.8332-10.053-22.301-16.652zm38.015 7.4008-9.8025 9.7753 11.579 9.5594 7.6276-7.4008-8.6691-11.009zm20.187 5.674-7.3825 7.2158 6.1878 8.5418 5.8202-6.1365zm-32.195 6.3215-9.5575 9.4977 13.662 7.185 7.9339-7.6784zm23.312 2.3744-7.1068 6.9383 8.3628 6.9074 5.3608-5.674-0.06127-0.0925-0.0919 0.12335-6.4635-8.2026zm-8.7304 8.5418-7.5051 7.3392 10.354 5.4581c1.3975-1.321 5.6751-6.1229 5.8509-6.3215z" fill="#fff" opacity=".6"/>
</clipPath>
</defs>
<metadata>
<rdf:RDF>
<cc:Work rdf:about="">
<dc:format>image/svg+xml</dc:format>
<dc:type rdf:resource="http://purl.org/dc/dcmitype/StillImage"/>
<dc:title/>
</cc:Work>
</rdf:RDF>
</metadata>
<g transform="translate(0,32)">
<g transform="translate(0,-32)">
<g transform="matrix(.88226 0 0 1.1727 .25473 -3.4663)" fill="#a80000" stroke="#f6d2d2" stroke-width=".4">
<g transform="translate(.28337 -.21318)">
<g transform="matrix(1.1276 0 0 .84828 -.45668 3.0301)" stroke="none">
<path d="m89.292 0.41503h-82.286c-3.7988 0-6.8571 3.0583-6.8571 6.8571v82.286c0 3.7989 3.0583 6.8571 6.8571 6.8571h82.286c3.7989 0 6.8571-3.0583 6.8571-6.8571v-82.286c0-3.7989-3.0583-6.8571-6.8571-6.8571z" fill="#000" opacity=".15"/>
<path d="m88.649 1.165h-81c-3.7395 0-6.75 3.0105-6.75 6.75v81c0 3.7395 3.0105 6.75 6.75 6.75h81c3.7395 0 6.75-3.0105 6.75-6.75v-81c0-3.7395-3.0105-6.75-6.75-6.75z" fill="#000" opacity=".15"/>
<path d="m88.006 1.915h-79.714c-3.6801 0-6.6429 2.9627-6.6429 6.6429v79.714c0 3.6801 2.9627 6.6429 6.6429 6.6429h79.714c3.6801 0 6.6429-2.9627 6.6429-6.6429v-79.714c0-3.6801-2.9627-6.6429-6.6429-6.6429z" fill="url(#linearGradient4071-3)"/>
<path d="m11.456 6.8022c-2.8929 0-5.1894 2.2884-5.1894 5.171v68.58c1.1112 1.6845 3.0067 2.8117 5.1894 2.8117h74.728c2.1827 0 4.0782-1.1272 5.1894-2.8117v-68.58c0-2.8826-2.2965-5.171-5.1894-5.171z" fill="#5b80a3" opacity=".984"/>
<path d="m9.974 5.1445c-3.1166 0-5.668 2.5395-5.668 5.646v69.278c0 3.1065 2.5513 5.646 5.668 5.646h76.792c3.1166 0 5.668-2.5395 5.668-5.646v-69.278c0-3.1065-2.5513-5.646-5.668-5.646zm0 2.3194h76.792c1.8881 0 3.352 1.4801 3.352 3.3266v69.278c0 1.8465-1.4639 3.3266-3.352 3.3266h-76.792c-1.8881 0-3.352-1.4801-3.352-3.3266v-69.278c0-1.8465 1.4639-3.3266 3.352-3.3266z" color="#000000" fill="#1f2124" style="text-decoration-line:none;text-indent:0;text-transform:none"/>
<path d="m1.649 82.259v6c0 3.6801 2.9761 6.6562 6.6562 6.6562h79.687c3.6801 0 6.6563-2.9761 6.6563-6.6562v-6c0 3.6801-2.9761 6.6562-6.6563 6.6562h-79.687c-3.6801 0-6.6562-2.9761-6.6562-6.6562z" fill="url(#linearGradient4129)" opacity=".65818"/>
<rect x="5.524" y="80.665" width="84.25" height="4.25" rx="0" ry="4.25" fill="url(#radialGradient7462)" opacity=".55"/>
<rect transform="rotate(90)" x="5.975" y="-90.234" width="76.75" height="4.25" rx="0" ry="4.25" fill="url(#radialGradient7464)" opacity=".669"/>
<rect transform="matrix(1.0692 0 0 1.0477 4.4442 38.894)" x="2" y="-30" width="75.966" height="69.024" rx="3.957" ry="3.957" clip-path="url(#clipPath4156-4-1)" fill="url(#linearGradient4767)" opacity=".50781"/>
<path d="m83.955 27.391a1.0221 1.0221 0 0 0-1.0215-1.0234h-70.166a1.0221 1.0221 0 0 0-1.0215 1.0234v50.096a1.0221 1.0221 0 0 0 1.0215 1.0215h70.166a1.0221 1.0221 0 0 0 1.0215-1.0215v-40.096zm-2.0449 1.0215v7.9551h-21.68v-7.9551zm0 10.096v7.8594h-21.68v-7.8594zm0 10v7.8594h-21.68v-7.8594zm0 10v7.8594h-21.68v-7.8594zm0 10v7.9551h-21.68v-7.9551zm-23.725-40.096v7.9551h-14.361v-7.9551zm0 10.096v7.8594h-14.361v-7.8594zm0 10v7.8594h-14.361v-7.8594zm0 10v7.8594h-14.361v-7.8594zm0 10v7.834h-14.361v-7.834zm-16.404-40.096v7.9551h-27.99v-7.9551zm0 10.096v7.8594h-27.99v-7.8594zm0 10v7.8594h-27.99v-7.8594zm0 10v7.8594h-27.99v-7.8594zm0 10v7.9551h-27.99v-7.9551z" color="#000000" color-rendering="auto" dominant-baseline="auto" fill="#fbfbfb" fill-rule="evenodd" image-rendering="auto" shape-rendering="auto" solid-color="#000000" style="font-feature-settings:normal;font-variant-alternates:normal;font-variant-caps:normal;font-variant-ligatures:normal;font-variant-numeric:normal;font-variant-position:normal;isolation:auto;mix-blend-mode:normal;paint-order:markers stroke fill;shape-padding:0;text-decoration-color:#000000;text-decoration-line:none;text-decoration-style:solid;text-indent:0;text-orientation:mixed;text-transform:none;white-space:normal"/>
</g>
<g transform="matrix(1.3117 0 0 .86736 -5.6944 0)" fill="#fff" fill-rule="evenodd" stroke="#fff" stroke-linecap="round" stroke-linejoin="round" stroke-opacity=".99111" stroke-width=".91523" style="font-feature-settings:normal;font-variant-caps:normal;font-variant-ligatures:normal;font-variant-numeric:normal;paint-order:markers stroke fill" aria-label="conky">
<path d="m31.079 16.204v1.2112q-0.54927-0.3028-1.1056-0.45068-0.54927-0.15492-1.1126-0.15492-1.2605 0-1.9577 0.80278-0.69715 0.79574-0.69715 2.2393t0.69715 2.2464q0.69715 0.79574 1.9577 0.79574 0.56335 0 1.1126-0.14788 0.55631-0.15492 1.1056-0.45772v1.1971q-0.54223 0.25351-1.1267 0.38026-0.57744 0.12676-1.2323 0.12676-1.7816 0-2.8308-1.1197-1.0492-1.1197-1.0492-3.021 0-1.9295 1.0563-3.0351 1.0633-1.1056 2.9083-1.1056 0.59856 0 1.169 0.12676 0.5704 0.11971 1.1056 0.36618z"/>
<path d="m36.403 16.81q-1.0422 0-1.6478 0.81686-0.6056 0.80982-0.6056 2.2252 0 1.4154 0.59856 2.2323 0.6056 0.80982 1.6548 0.80982 1.0352 0 1.6408-0.81686 0.6056-0.81686 0.6056-2.2252 0-1.4013-0.6056-2.2182-0.6056-0.8239-1.6408-0.8239zm0-1.0985q1.6901 0 2.6548 1.0985 0.96474 1.0985 0.96474 3.0421 0 1.9365-0.96474 3.0421-0.96474 1.0985-2.6548 1.0985-1.6971 0-2.6618-1.0985-0.9577-1.1056-0.9577-3.0421 0-1.9436 0.9577-3.0421 0.96474-1.0985 2.6618-1.0985z"/>
<path d="m48.719 19.028v4.7603h-1.2957v-4.7181q0-1.1197-0.4366-1.676-0.4366-0.55631-1.3098-0.55631-1.0492 0-1.6548 0.66898-0.6056 0.66898-0.6056 1.8239v4.4575h-1.3028v-7.8869h1.3028v1.2253q0.46477-0.71123 1.0915-1.0633 0.63377-0.3521 1.4577-0.3521 1.3591 0 2.0562 0.84503 0.69715 0.83799 0.69715 2.4717z"/>
<path d="m51.269 12.831h1.3028v6.4715l3.866-3.4012h1.6548l-4.1829 3.69 4.3589 4.197h-1.6901l-4.0068-3.8519v3.8519h-1.3028z"/>
<path d="m62.458 24.521q-0.54927 1.4084-1.0704 1.8379-0.5211 0.42956-1.3943 0.42956h-1.0352v-1.0845h0.76053q0.53518 0 0.83095-0.25351 0.29576-0.25351 0.6549-1.1971l0.23238-0.59152-3.19-7.7602h1.3732l2.4647 6.1687 2.4647-6.1687h1.3732z"/>
</g>
</g>
</g>
<g transform="translate(-129.89 59.239)">
<g display="none">
<rect x="5" y="7" width="86" height="85" rx="6" ry="6" fill="url(#ButtonShadow)" filter="url(#filter3174-6)" opacity=".9"/>
</g>
</g>
</g>
</g>
<g display="none">
<rect x="5" y="7" width="86" height="85" rx="6" ry="6" fill="url(#ButtonShadow)" filter="url(#filter3174)" opacity=".9"/>
</g>
</svg>
