<?xml version="1.0" encoding="UTF-8"?>
<!-- Created with Inkscape (http://www.inkscape.org/) -->
<svg version="1.0" viewBox="0 0 96 96" xmlns="http://www.w3.org/2000/svg" xmlns:cc="http://creativecommons.org/ns#" xmlns:dc="http://purl.org/dc/elements/1.1/" xmlns:rdf="http://www.w3.org/1999/02/22-rdf-syntax-ns#" xmlns:xlink="http://www.w3.org/1999/xlink">
<defs>
<linearGradient id="ButtonShadow" x1="45.448" x2="45.448" y1="92.54" y2="7.0165" gradientTransform="scale(1.0059 .99417)" gradientUnits="userSpaceOnUse">
<stop offset="0"/>
<stop stop-opacity=".58824" offset="1"/>
</linearGradient>
<linearGradient id="linearGradient3737">
<stop stop-color="#fff" offset="0"/>
<stop stop-color="#fff" stop-opacity="0" offset="1"/>
</linearGradient>
<filter id="filter3174" color-interpolation-filters="sRGB">
<feGaussianBlur stdDeviation="1.71"/>
</filter>
<linearGradient id="linearGradient3221" x1="34.101" x2="34.101" y1="45.622" y2="20.249" gradientTransform="matrix(1.1766 0 0 1.1572 7.9686 10.02)" gradientUnits="userSpaceOnUse">
<stop stop-color="#003e69" offset="0"/>
<stop stop-color="#17a3ff" offset="1"/>
</linearGradient>
<linearGradient id="linearGradient4767" x1="2.7714" x2="50.528" y1="-28.642" y2="14.514" gradientUnits="userSpaceOnUse">
<stop stop-color="#fff" offset="0"/>
<stop stop-color="#fff" stop-opacity="0" offset="1"/>
</linearGradient>
<filter id="filter3174-3" color-interpolation-filters="sRGB">
<feGaussianBlur stdDeviation="1.71"/>
</filter>
<filter id="filter3174-9" color-interpolation-filters="sRGB">
<feGaussianBlur stdDeviation="1.71"/>
</filter>
<linearGradient id="linearGradient3241-4" x1="24" x2="20.568" y1="42.957" y2="7.4297" gradientTransform="matrix(1.6749 0 0 1.676 7.8332 8.1294)" gradientUnits="userSpaceOnUse">
<stop stop-color="#005693" offset="0"/>
<stop stop-color="#1d96dc" offset=".64839"/>
<stop stop-color="#3cc1ff" stop-opacity=".7554" offset="1"/>
</linearGradient>
<linearGradient id="linearGradient4129-2" x1="1.5" x2="94.5" y1="88.172" y2="88.172" gradientTransform="translate(.14895 .41503)" gradientUnits="userSpaceOnUse">
<stop offset="0"/>
<stop stop-opacity=".58824" offset=".1"/>
<stop stop-opacity=".58824" offset=".9"/>
<stop offset="1"/>
</linearGradient>
<radialGradient id="radialGradient7462-0" cx="13.948" cy="44.893" r="43.199" gradientTransform="matrix(.97513 0 0 .049191 34.048 80.582)" gradientUnits="userSpaceOnUse" xlink:href="#linearGradient3737"/>
<radialGradient id="radialGradient7464-0" cx="13.948" cy="44.893" r="43.199" gradientTransform="matrix(.88833 0 0 .049191 31.96 -90.317)" gradientUnits="userSpaceOnUse" xlink:href="#linearGradient3737"/>
<clipPath id="clipPath4156-4-1">
<path d="m27.046-55.695-14.214 13.321h0.06127l15.653 21.771 10.231-10.546c-0.2169-1.1522-11.311-23.67-11.732-24.546zm-17.399 16.313-14.888 14.062 21.229 17.515 10.385-10.577zm31.491 12.951-9.7413 9.7136 8.9448 12.458 7.7808-7.555zm-49.84 4.3788-13.754 12.982 26.283 13.846 0.06127-0.0617-0.12253-0.0617 9.8332-10.053-22.301-16.652zm38.015 7.4008-9.8025 9.7753 11.579 9.5594 7.6276-7.4008-8.6691-11.009zm20.187 5.674-7.3825 7.2158 6.1878 8.5418 5.8202-6.1365zm-32.195 6.3215-9.5575 9.4977 13.662 7.185 7.9339-7.6784zm23.312 2.3744-7.1068 6.9383 8.3628 6.9074 5.3608-5.674-0.06127-0.0925-0.0919 0.12335-6.4635-8.2026zm-8.7304 8.5418-7.5051 7.3392 10.354 5.4581c1.3975-1.321 5.6751-6.1229 5.8509-6.3215z" fill="#fff" opacity=".6"/>
</clipPath>
<linearGradient id="linearGradient4699" x1="36.684" x2="90.781" y1="-2.8136" y2="57.12" gradientTransform="translate(-7.674 15.122)" gradientUnits="userSpaceOnUse">
<stop offset="0"/>
<stop offset=".2315"/>
<stop offset=".463"/>
<stop stop-color="#fff" offset=".47346"/>
<stop stop-color="#434343" offset=".48393"/>
<stop stop-color="#4f4f4f" offset=".50485"/>
<stop stop-color="#555" offset="1"/>
</linearGradient>
<linearGradient id="linearGradient1340" x1="25.727" x2="37.438" y1="18.172" y2="51.406" gradientTransform="matrix(1.1728 0 0 1.1736 8.0692 9.6575)" gradientUnits="userSpaceOnUse">
<stop stop-color="#0070bc" offset="0"/>
<stop stop-color="#a0d8ff" offset="1"/>
</linearGradient>
<linearGradient id="linearGradient1366" x1="6" x2="90" y1="47" y2="47" gradientTransform="matrix(1.1071 0 0 1.1071 -4.9939 -3.6207)" gradientUnits="userSpaceOnUse">
<stop stop-color="#b2babc" offset="0"/>
<stop stop-color="#fff" offset=".25"/>
<stop stop-color="#96a1a4" offset=".5"/>
<stop stop-color="#fbf9f9" offset=".75"/>
<stop stop-color="#b2b9bc" offset="1"/>
</linearGradient>
</defs>
<metadata>
<rdf:RDF>
<cc:Work rdf:about="">
<dc:format>image/svg+xml</dc:format>
<dc:type rdf:resource="http://purl.org/dc/dcmitype/StillImage"/>
</cc:Work>
</rdf:RDF>
</metadata>
<g transform="translate(-1e-6,32)">
<g transform="translate(-8.044 -17.334)">
<g transform="translate(251.29 -104.9)">
<g display="none">
<rect x="5" y="7" width="86" height="85" rx="6" ry="6" fill="url(#ButtonShadow)" filter="url(#filter3174-3)" opacity=".9"/>
</g>
</g>
<g transform="translate(-105.56 40.805)">
<g transform="translate(113.45 -55.886)">
<path d="m89.292 0.41503h-82.286c-3.7988 0-6.8571 3.0583-6.8571 6.8571v82.286c0 3.7989 3.0583 6.8571 6.8571 6.8571h82.286c3.7989 0 6.8571-3.0583 6.8571-6.8571v-82.286c0-3.7989-3.0583-6.8571-6.8571-6.8571z" opacity=".15"/>
<path d="m88.649 1.165h-81c-3.7395 0-6.75 3.0105-6.75 6.75v81c0 3.7395 3.0105 6.75 6.75 6.75h81c3.7395 0 6.75-3.0105 6.75-6.75v-81c0-3.7395-3.0105-6.75-6.75-6.75z" opacity=".15"/>
<path d="m88.006 1.915h-79.714c-3.6801 0-6.6429 2.9627-6.6429 6.6429v79.714c0 3.6801 2.9627 6.6429 6.6429 6.6429h79.714c3.6801 0 6.6429-2.9627 6.6429-6.6429v-79.714c0-3.6801-2.9627-6.6429-6.6429-6.6429z" fill="url(#linearGradient1366)"/>
<rect x="5.9467" y="6.6693" width="84.846" height="77.52" ry="4.25" fill="url(#linearGradient4699)" opacity=".726" stroke="#fff" stroke-linecap="round" stroke-linejoin="round" stroke-width=".4"/>
<path d="m9.974 5.1445c-3.1166 0-5.668 2.5395-5.668 5.646v69.278c0 3.1065 2.5513 5.646 5.668 5.646h76.792c3.1166 0 5.668-2.5395 5.668-5.646v-69.278c0-3.1065-2.5513-5.646-5.668-5.646zm0 2.3194h76.792c1.8881 0 3.352 1.4801 3.352 3.3266v69.278c0 1.8465-1.4639 3.3266-3.352 3.3266h-76.792c-1.8881 0-3.352-1.4801-3.352-3.3266v-69.278c0-1.8465 1.4639-3.3266 3.352-3.3266z" color="#000000" fill="#1f2224" fill-opacity=".63265" style="text-decoration-line:none;text-indent:0;text-transform:none"/>
<path d="m1.649 82.259v6c0 3.6801 2.9761 6.6562 6.6562 6.6562h79.687c3.6801 0 6.6563-2.9761 6.6563-6.6562v-6c0 3.6801-2.9761 6.6562-6.6563 6.6562h-79.687c-3.6801 0-6.6562-2.9761-6.6562-6.6562z" fill="url(#linearGradient4129-2)" opacity=".65818"/>
<rect x="5.524" y="80.665" width="84.25" height="4.25" rx="0" ry="4.25" fill="url(#radialGradient7462-0)" opacity=".55"/>
<rect transform="rotate(90)" x="5.975" y="-90.234" width="76.75" height="4.25" rx="0" ry="4.25" fill="url(#radialGradient7464-0)" opacity=".669"/>
<g transform="matrix(.94854 0 0 .94854 2.8207 -1.3806)">
<path d="m53.656 11.094c-20.759-1.156-40.618 16.587-41.062 37.531-5.56e-4 0.01044 5.47e-4 0.02081 0 0.03125-0.93242 17.802 12.296 35.609 30.188 38.469 0.0101 0.0016 0.02114-0.0016 0.03125 0 17.494 3.2539 36.895-8.6966 40.062-26.625 2.9827-14.483-5.0534-30.753-19.125-36.094a0.99391 0.99391 0 0 0-0.125-0.03125c-1.6842-0.36016-3.8957-0.66009-5.4688-1.3438-0.78654-0.34183-1.3931-0.75542-1.75-1.25-0.35158-0.48716-0.52964-1.0542-0.40625-1.9688 0.0019-0.01393-2e-3 -0.01715 0-0.03125 0.47489-1.8485 0.499-3.968-0.1875-5.875-0.0967-0.26862-0.2218-0.42266-0.3125-0.59375a0.99391 0.99391 0 0 0-0.0625-0.15625c0.01665 0.03251 0.0071-0.11088-0.125-0.34375a0.99391 0.99391 0 0 0-0.15625-0.15625 0.99391 0.99391 0 0 0-0.03125-0.03125 0.99391 0.99391 0 0 0 0-0.03125 0.99391 0.99391 0 0 0-0.03125-0.09375c-0.06248-0.09615-0.11656-0.16539-0.15625-0.21875a0.99391 0.99391 0 0 0-0.03125-0.0625 0.99391 0.99391 0 0 0-0.0625-0.0625c-0.08617-0.14079-0.20196-0.42774-0.5625-0.78125a0.99391 0.99391 0 0 0-0.625-0.28125zm0.40625 1.9375v0.25c-0.01332 0.0057-0.01807-5e-3 -0.03125 0l-0.09375-0.09375-0.0625-0.03125zm-0.4375 0.65625a0.99391 0.99391 0 0 0 0.375 0.125l-0.03125 0.125c-0.10448 0.0382-0.19399 0.06146-0.25 0.0625-0.02227 4.12e-4 -0.04416 6.7e-5 -0.0625 0-0.03375-0.06695-0.02066-0.18697-0.03125-0.3125zm-5.25 15.875-0.59375 4.875c-10.246 1.9757-16.445 15.093-10.656 24.031 0.01085 0.02096 0.02028 0.04164 0.03125 0.0625 2.1823 4.15 6.7476 6.3919 11.281 6.5938 4.534 0.20188 9.1761-1.707 11.406-6.0625 4e-3 -0.0079-4e-3 -0.02335 0-0.03125 0.0066-0.01128 0.02474-0.01993 0.03125-0.03125 1.1232-1.9526 1.6288-4.4418 1.2812-6.7812-0.35102-2.3629-1.6645-4.6217-4.125-5.6562a0.99391 0.99391 0 0 0-0.375-0.09375c-0.68972 0.0095-1.3238-0.29522-1.875-0.875s-0.98257-1.4098-1.1562-2.2188-0.08329-1.5631 0.1875-2.0312c0.26335-0.45534 0.66332-0.77114 1.5938-0.8125 4.3023 0.76428 7.5531 3.9426 9.2188 7.9375 1.6824 4.0352 1.6925 8.8374-0.5 12.531a0.99391 0.99391 0 0 0-0.03125 0.03125c-4.9616 9.52-19.672 11.732-27.312 4.2188a0.99391 0.99391 0 0 0-0.03125 0c-8.6118-7.8852-8.5571-23.804 1.0312-30.875a0.99391 0.99391 0 0 0 0.03125-0.03125c3.041-2.4667 6.7176-4.1566 10.562-4.7812z" fill-rule="evenodd" opacity=".05"/>
<path d="m53.594 12.094c-20.166-1.1229-39.599 16.253-40.011 36.59-0.9219 17.293 12.02 34.705 29.372 37.462 16.936 3.1678 35.875-8.4984 38.936-25.821 2.8811-13.989-4.9185-29.837-18.476-34.982-3.2152-0.68756-9.0348-1.1402-8.3779-5.7225 0.65906-2.4753 0.49105-5.6299-1.4431-7.5264zm0.0625 1.25c1.0064-0.24698-0.50913-0.61901 0 0zm0.4375-0.53125c-1.149-1.3618 0.3063 1.3749 0 0zm-0.0625 0.59375c1.0559 0.06725-0.03409-0.9591 0 0zm0.0625 0.03125c0.8811-0.07483-0.69192-0.5909 0 0zm0.09375 0.28125c0.99575 0.20196-0.23016-0.79495 0 0zm0.71875 0.53125-0.41312 0.02786zm-5.375 14.094c-0.28125 2.2917-0.5625 4.5833-0.84375 6.875-9.9671 1.3102-16.241 14.278-10.673 22.776 3.9432 7.6165 16.957 8.5643 20.99 0.55783 2.038-3.4839 1.8712-9.3224-2.3387-11.093-4.0491 0.05574-6.2403-7.7845-1.2375-7.9202 9.5082 1.5733 14.289 13.945 9.5255 21.969-5.2982 10.166-20.716 12.494-28.872 4.475-9.0975-8.3299-9.0335-24.932 1.1183-32.418 3.51-2.8472 7.8131-4.784 12.331-5.2222z" fill-rule="evenodd" opacity=".08"/>
<path transform="translate(0,1)" d="m53.656 11.812c-15.167-0.39311-29.649 8.2643-36 22.156-8.1073 17.733-0.69596 39.722 17.312 47.875 16.362 7.4073 36.628 0.54238 44.062-16.125 6.6967-15.014 0.33591-33.556-14.969-40.281-3.2985-1.4494-6.7661-1.9948-10.188-2.0938l1.25-9.8125c-1.74e-4 0.0015 9.7e-5 -0.09527 0-0.09375-9.7e-5 0.0015 1.9e-5 -0.06403 0-0.0625-1.9e-5 0.0015-5.9e-5 -0.09527 0-0.09375 5.9e-5 0.0015-1.37e-4 -0.06402 0-0.0625 1.37e-4 0.0015-2.14e-4 -0.09526 0-0.09375 2.14e-4 0.0015-0.03154-0.064-0.03125-0.0625 2.91e-4 0.0015-3.67e-4 -0.09523 0-0.09375 3.67e-4 0.0015-0.03169-0.06396-0.03125-0.0625 4.42e-4 0.0015-0.03177-0.06394-0.03125-0.0625 5.16e-4 0.0014-5.88e-4 -0.09516 0-0.09375 5.88e-4 0.0014-0.03191-0.06387-0.03125-0.0625 6.59e-4 0.0014-0.06323-0.06384-0.0625-0.0625 7.29e-4 0.0013-0.03205-0.09505-0.03125-0.09375 7.96e-4 0.0013-0.03211-0.06376-0.03125-0.0625 8.61e-4 0.0013-0.06342-0.06371-0.0625-0.0625 9.24e-4 0.0012-0.03224-0.06366-0.03125-0.0625 9.85e-4 0.0012-0.06354-0.06361-0.0625-0.0625 1e-3 0.0011-0.0636-0.03231-0.0625-0.03125 0.0011 0.0011-0.06365-0.0635-0.0625-0.0625 0.0012 1e-3 -0.0637-0.06344-0.0625-0.0625s-0.06375-0.03213-0.0625-0.03125c0.0012 8.78e-4 -0.06379-0.06331-0.0625-0.0625 0.0013 8.13e-4 -0.06383-0.032-0.0625-0.03125 0.0013 7.46e-4 -0.06387-0.03193-0.0625-0.03125 0.0014 6.77e-4 -0.0639-0.03186-0.0625-0.03125 0.0014 6.07e-4 -0.09518-0.03178-0.09375-0.03125 0.0014 5.35e-4 -0.06395-0.03171-0.0625-0.03125 0.0015 4.61e-4 -0.09522-0.03164-0.09375-0.03125 0.0015 3.86e-4 -0.06399-3.1e-4 -0.0625 0 0.0015 3.1e-4 -0.09526-0.03148-0.09375-0.03125 0.0015 2.34e-4 -0.06402-1.57e-4 -0.0625 0 0.0015 1.57e-4 -0.09527-7.9e-5 -0.09375 0zm-3.2812 14.656-1.0312 8.3125c-5.1627 1.0451-9.8791 4.3158-11.812 9.6875-2.4608 6.8371 0.69163 15.161 7.9688 17.5 5.4682 1.7573 12.151-0.85434 13.688-6.8438 0.52622-2.0506 0.26119-4.2911-0.71875-6.1562-0.98723-1.879-2.8065-3.4078-5.1875-3.7188-0.72857-0.09516-1.4561 0.12106-2.1875 0.3125l1-8.0625c1.9047-0.10582 3.8444 0.06158 5.625 0.75 8.215 3.176 11.75 13.004 8.5 21.031-3.8817 9.588-15.429 13.687-24.812 9.75-10.944-4.5916-15.593-17.872-10.969-28.625 3.5447-8.2438 11.453-13.115 19.938-13.938z" fill-rule="evenodd" opacity=".2"/>
<path transform="translate(0,1)" d="m53.625 12.625c-14.841-0.38467-29.01 8.1069-35.219 21.688-7.9221 17.328-0.67416 38.823 16.906 46.781 15.957 7.2238 35.726 0.5185 42.969-15.719 6.5156-14.607 0.31026-32.652-14.562-39.188-3.4672-1.5236-7.1225-2.1174-10.75-2.125l1.3438-10.625a0.73009 0.73009 0 0 0-0.6875-0.8125zm-2.3125 12.906-1.2188 9.875c-5.1675 0.84905-9.8778 4.0553-11.781 9.3438-2.3138 6.4288 0.63712 14.252 7.4375 16.438 5.0569 1.6251 11.249-0.7962 12.656-6.2812 0.47291-1.8429 0.22579-3.8837-0.65625-5.5625s-2.4667-3.0075-4.5625-3.2812c-0.85189-0.11127-1.782 0.01974-2.625 0.375-0.15788 0.06653-0.28587 0.19879-0.4375 0.28125l1.25-10.031c2.2209-0.21111 4.4984-0.0097 6.625 0.8125 8.6689 3.3515 12.383 13.66 8.9688 22.094-4.0625 10.035-16.084 14.295-25.875 10.188-11.385-4.7768-16.205-18.527-11.406-29.688 3.8163-8.8755 12.489-14.027 21.625-14.562z" fill-rule="evenodd" opacity=".3"/>
<path d="m48.977 50.176c-0.52888-2.3031 2.2416-3.6375 4.128-3.3911 3.6875 0.48162 5.4359 4.611 4.5867 7.9199-1.2912 5.0316-7.0113 7.2958-11.701 5.7887-6.3724-2.0479-9.1657-9.4326-6.9827-15.498 2.7807-7.726 11.846-11.058 19.274-8.1862 9.0716 3.5072 12.94 14.278 9.3786 23.076-4.2231 10.431-16.693 14.844-26.847 10.584-11.778-4.9414-16.729-19.131-11.775-30.654 5.6506-13.141 21.544-18.639 34.419-12.981 14.487 6.366 20.525 23.987 14.17 38.232-7.0716 15.854-26.397 22.439-41.992 15.379-17.199-7.786-24.323-28.844-16.566-45.81 6.0822-13.303 19.986-21.674 34.537-21.297" fill="#fff" fill-rule="evenodd"/>
<path d="m48.961 50.234c-0.52888-2.3031 2.2416-3.6375 4.128-3.3911 3.6875 0.48162 5.4359 4.611 4.5867 7.9199-1.2912 5.0316-7.0113 7.2958-11.701 5.7887-6.3724-2.0479-9.1657-9.4326-6.9827-15.498 2.7807-7.726 11.846-11.058 19.274-8.1862 9.0716 3.5072 12.94 14.278 9.3786 23.076-4.2231 10.431-16.693 14.844-26.847 10.584-11.778-4.9414-16.729-19.131-11.775-30.654 5.6506-13.141 21.544-18.639 34.419-12.981 14.487 6.366 20.525 23.987 14.17 38.232-7.0716 15.854-26.397 22.439-41.992 15.379-17.199-7.786-24.323-28.844-16.566-45.81 6.0822-13.303 19.986-21.674 34.537-21.297" fill="url(#linearGradient3241-4)" fill-rule="evenodd"/>
<path d="m54.094 12.812c-12.635 1.1051-25.715 6.8107-32.516 17.984-9.3166 14.754-5.1212 36.487 9.5519 46.189 11.762 7.8319 28.851 7.4596 39.693-1.8557 12.077-10.715 13.102-31.542 1.7235-43.125-5.0755-5.4489-12.442-8.0654-19.787-8.1451" fill="none" stroke="#005c94" stroke-linejoin="round" stroke-opacity=".63913" stroke-width="2.5962"/>
<path d="m53.443 12.849-1.4482 11.794" fill="none" stroke="#53b8fd" stroke-linecap="round" stroke-linejoin="round" stroke-width="1.7259px"/>
<path d="m51.86 24.844c-35.162 2.9287-29.68 48.111-2.0798 47.195 24.538-0.84187 25.181-37.184 1.4114-36.202" fill="none" stroke="url(#linearGradient1340)" stroke-linecap="round" stroke-linejoin="round" stroke-width="1.6241"/>
<path d="m50.533 35.945-1.5718 14.289" fill="none" stroke="#1c94da" stroke-linecap="round" stroke-linejoin="round" stroke-width="1.7045px"/>
<path d="m49.167 50.124c0.03854-4.7024 6.5743-4.3488 8.171-0.04721 1.6387 4.646-1.4206 9.0991-5.9673 10.454-5.9582 1.7757-11.455-2.6852-13.024-8.4462-1.9526-7.1706 3.7482-15.375 12.438-16.403" fill="none" stroke="url(#linearGradient3221)" stroke-linecap="round" stroke-linejoin="round" stroke-width=".91763"/>
<path d="m51.977 24.438-1.3223 10.84" fill="none" stroke="#53b8fd" stroke-linecap="round" stroke-linejoin="round" stroke-width="1.7259px"/>
</g>
<rect transform="matrix(1.0692 0 0 1.0477 4.4442 38.894)" x="2" y="-30" width="75.966" height="69.024" rx="3.957" ry="3.957" clip-path="url(#clipPath4156-4-1)" fill="url(#linearGradient4767)" opacity=".65"/>
</g>
</g>
</g>
</g>
<g display="none">
<rect x="5" y="7" width="86" height="85" rx="6" ry="6" fill="url(#ButtonShadow)" filter="url(#filter3174-9)" opacity=".9"/>
</g>
<g display="none">
<rect x="5" y="7" width="86" height="85" rx="6" ry="6" fill="url(#ButtonShadow)" filter="url(#filter3174)" opacity=".9"/>
</g>
</svg>
