<?xml version="1.0" encoding="UTF-8"?>
<svg version="1.1" viewBox="0 0 96 96" xmlns="http://www.w3.org/2000/svg" xmlns:cc="http://creativecommons.org/ns#" xmlns:dc="http://purl.org/dc/elements/1.1/" xmlns:rdf="http://www.w3.org/1999/02/22-rdf-syntax-ns#" xmlns:xlink="http://www.w3.org/1999/xlink">
<metadata>
<rdf:RDF>
<cc:Work rdf:about="">
<dc:format>image/svg+xml</dc:format>
<dc:type rdf:resource="http://purl.org/dc/dcmitype/StillImage"/>
</cc:Work>
</rdf:RDF>
</metadata>
<defs>
<linearGradient id="d" stop-color="#fff">
<stop offset="0"/>
<stop stop-opacity="0" offset="1"/>
</linearGradient>
<filter id="o" x="-.15174" y="-.045378" width="1.3035" height="1.0908" color-interpolation-filters="sRGB">
<feGaussianBlur stdDeviation="1.1526305"/>
</filter>
<filter id="p" x="-.044412" y="-.15126" width="1.0888" height="1.3025" color-interpolation-filters="sRGB">
<feGaussianBlur stdDeviation="1.1526305"/>
</filter>
<linearGradient id="c" x1="80.711" x2="19.942" y1="52.101" y2="52.101" gradientTransform="matrix(.65823 0 0 .65616 1.3729 25.814)" gradientUnits="userSpaceOnUse" xlink:href="#d"/>
<linearGradient id="b" x1="80.711" x2="19.942" y1="52.101" y2="52.101" gradientTransform="matrix(0 -.65823 .65616 0 -11.686 94.127)" gradientUnits="userSpaceOnUse" xlink:href="#d"/>
<radialGradient id="radialGradient3844" cx="70.373" cy="79.209" r="2.791" gradientTransform="matrix(.69586 0 0 .6514 -19.254 32.905)" gradientUnits="userSpaceOnUse" xlink:href="#linearGradient3832-0-6-1-1"/>
<radialGradient id="radialGradient3836" cx="70.373" cy="79.209" r="2.791" gradientTransform="matrix(.69586 0 0 .6514 14.863 32.905)" gradientUnits="userSpaceOnUse" xlink:href="#linearGradient3832-0-6-1-1"/>
<radialGradient id="radialGradient3828" cx="46.787" cy="85.213" r="6.5871" gradientTransform="matrix(4.8062 -.09347 .041613 2.1397 -181.39 -92.678)" gradientUnits="userSpaceOnUse" xlink:href="#linearGradient6139-0"/>
<linearGradient id="linearGradient5698" x1="6" x2="90" y1="47" y2="47" gradientTransform="matrix(1.1393 0 0 1.1393 -6.6857 -5.5464)" gradientUnits="userSpaceOnUse">
<stop stop-color="#fff" stop-opacity="0" offset="0"/>
<stop stop-color="#fff" stop-opacity=".85135" offset=".036815"/>
<stop stop-color="#fff" stop-opacity="0" offset=".065061"/>
<stop stop-color="#fff" stop-opacity="0" offset=".94494"/>
<stop stop-color="#fff" stop-opacity=".85135" offset=".96582"/>
<stop stop-color="#fff" stop-opacity="0" offset="1"/>
</linearGradient>
<linearGradient id="linearGradient5021" x1="6" x2="90" y1="47" y2="47" gradientTransform="matrix(1.1393 0 0 1.1393 -6.6857 -5.5464)" gradientUnits="userSpaceOnUse" xlink:href="#linearGradient6139-0"/>
<linearGradient id="linearGradient6139-0">
<stop stop-color="#b7b7b7" offset="0"/>
<stop stop-color="#fff" offset=".25"/>
<stop stop-color="#9d9d9d" offset=".5"/>
<stop stop-color="#fafafa" offset=".75"/>
<stop stop-color="#b7b7b7" offset="1"/>
</linearGradient>
<linearGradient id="linearGradient3832-0-6-1-1">
<stop offset="0"/>
<stop stop-opacity=".58824" offset=".1"/>
<stop stop-opacity=".58824" offset=".9"/>
<stop offset="1"/>
</linearGradient>
<linearGradient id="linearGradient3120" x1="-94" x2="-10.188" y1="82.984" y2="82.984" gradientTransform="matrix(1.1393 0 0 1.0129 107.24 5.212)" gradientUnits="userSpaceOnUse" xlink:href="#linearGradient3832-0-6-1-1"/>
<radialGradient id="radialGradient3118" cx="48" cy="-27" r="42" gradientTransform="matrix(-1.2215 0 0 -.9969 106.63 -26.766)" gradientUnits="userSpaceOnUse">
<stop stop-color="#fff" offset="0"/>
<stop stop-color="#fff" offset=".8"/>
<stop stop-color="#fff" stop-opacity="0" offset="1"/>
</radialGradient>
<radialGradient id="radialGradient3114" cx="158" cy="6.2132" r="41" gradientTransform="matrix(0 1.8467 -2.3222 0 62.428 -281.86)" gradientUnits="userSpaceOnUse">
<stop stop-color="#fff" offset="0"/>
<stop stop-color="#fff" stop-opacity="0" offset="1"/>
</radialGradient>
<radialGradient id="radialGradient4985" cx="48" cy="43" r="38" gradientTransform="matrix(1.1898 0 0 .99939 -8.8759 -1.1179)" gradientUnits="userSpaceOnUse">
<stop stop-color="#2cd5ff" offset="0"/>
<stop stop-color="#007fc3" offset="1"/>
</radialGradient>
<linearGradient id="linearGradient4987" x1="62" x2="62" y1="8" y2="68" gradientTransform="matrix(1.1898 0 0 1.0851 -8.8759 -4.8014)" gradientUnits="userSpaceOnUse">
<stop stop-color="#fff" offset="0"/>
<stop stop-color="#fff" stop-opacity="0" offset="1"/>
</linearGradient>
</defs>
<path d="m89.014 0.15h-82.029c-3.787 0-6.8357 3.0487-6.8357 6.8357v82.029c0 3.787 3.0487 6.8357 6.8357 6.8357h82.029c3.787 0 6.8357-3.0487 6.8357-6.8357v-82.029c0-3.787-3.0487-6.8357-6.8357-6.8357z" fill="url(#linearGradient5021)"/>
<path d="m6.9857 1.2893c-3.1755 0-5.6964 2.5209-5.6964 5.6964v75.549c1.2198 1.8556 3.3004 3.0974 5.6964 3.0974h82.029c2.396 0 4.4766-1.2418 5.6964-3.0974v-75.549c0-3.1755-2.5209-5.6964-5.6964-5.6964z" fill="url(#radialGradient3114)" opacity=".2"/>
<path d="m6.9857 0.15c-3.787 0-6.8357 3.0487-6.8357 6.8357v17.089h1.1393v-17.089c0-3.1755 2.5209-5.6964 5.6964-5.6964h82.029c3.1755 0 5.6964 2.5209 5.6964 5.6964v17.089h1.1393v-17.089c0-3.787-3.0487-6.8357-6.8357-6.8357z" fill="url(#radialGradient3118)" opacity=".45"/>
<path d="m0.15 82.682v7.0902c0 3.3668 3.0487 6.0773 6.8357 6.0773h82.029c3.787 0 6.8357-2.7105 6.8357-6.0773v-7.0902c0 3.3669-3.0487 6.0773-6.8357 6.0773h-82.029c-3.787 0-6.8357-2.7105-6.8357-6.0773z" fill="url(#linearGradient3120)" opacity=".46965"/>
<ellipse cx="29.716" cy="84.709" rx="3.4436" ry="3.1329" fill="#1c1c1c" opacity=".71"/>
<ellipse cx="29.716" cy="84.501" rx="2.8653" ry="2.6822" fill="#fff"/>
<ellipse cx="29.716" cy="84.501" rx="1.9422" ry="1.8181" fill="url(#radialGradient3844)"/>
<ellipse cx="63.833" cy="84.709" rx="3.4436" ry="3.1329" fill="#1c1c1c" opacity=".71"/>
<ellipse cx="63.833" cy="84.501" rx="2.8653" ry="2.6822" fill="#fff"/>
<ellipse cx="63.833" cy="84.501" rx="1.9422" ry="1.8181" fill="url(#radialGradient3836)"/>
<rect x="40.657" y="83.658" width="12.718" height="3.252" rx="1.1521" ry="1.1538" fill="url(#radialGradient3828)" opacity=".9622" stroke="#000" stroke-width=".5021"/>
<path d="m7.7809 58.132c-1.8851 0-3.6495 0.91815-4.7591 2.2718v15.089c0 2.4045 2.1226 4.3402 4.7591 4.3402h80.905c2.6365 0 4.7591-1.9357 4.7591-4.3402v-15.089c-1.1096-1.3537-2.874-2.2718-4.7591-2.2718zm0 3.2552h80.905c1.3594 0 2.3796 0.93033 2.3796 2.1701v11.936c0 1.2398-1.0201 2.1701-2.3796 2.1701h-80.905c-1.3594 0-2.3796-0.93033-2.3796-2.1701v-11.936c0-1.2398 1.0201-2.1701 2.3796-2.1701z" color="#000000" opacity=".02" style="text-decoration-line:none;text-indent:0;text-transform:none"/>
<path d="m36.336 3.879c8.3294 26.184 16.985 51.751 25.766 75.954h26.584c2.6365 0 4.7591-1.9357 4.7591-4.3402v-67.273c0-2.4045-2.1226-4.3402-4.7591-4.3402z" color="#000000" fill="url(#linearGradient4987)" opacity=".45"/>
<path d="m7.7809 3.879h80.905c2.6365 0 4.7591 1.9357 4.7591 4.3402v67.273c0 2.4045-2.1226 4.3402-4.7591 4.3402h-80.905c-2.6365 0-4.7591-1.9357-4.7591-4.3402v-67.273c0-2.4045 2.1226-4.3402 4.7591-4.3402z" color="#000000" fill="url(#radialGradient4985)"/>
<path d="m30.655 4.5801h55.653c2.575 0 4.648 1.8912 4.648 4.2405v65.727c0 2.3492-2.073 4.2405-4.648 4.2405-55.447-74.213-0.58693-0.30478-55.653-74.208z" color="#000000" fill="#fff" fill-opacity=".14694"/>
<path d="m8.7251 4.6802h79.017c2.575 0 4.648 1.8912 4.648 4.2405v65.727c0 2.3492-2.073 4.2405-4.648 4.2405h-79.017c-2.575 0-4.648-1.8912-4.648-4.2405v-65.727c0-2.3492 2.073-4.2405 4.648-4.2405z" color="#000000" fill="none" stroke="#000" stroke-opacity=".7758" stroke-width="2.2904"/>
<path d="m89.014 0.15h-82.029c-3.787 0-6.8357 3.0487-6.8357 6.8357v82.029c0 3.787 3.0487 6.8357 6.8357 6.8357h82.029c3.787 0 6.8357-3.0487 6.8357-6.8357v-82.029c0-3.787-3.0487-6.8357-6.8357-6.8357z" fill="url(#linearGradient5698)" opacity=".648"/>
<path transform="matrix(0 -.65823 .65616 0 -11.686 95.127)" d="m48.808 61.281 44.058 4.5502v-9.1l-44.058 4.55z" fill-rule="evenodd" filter="url(#o)"/>
<path transform="matrix(0 -.65823 .65616 0 -11.686 95.127)" d="m89.91 52.101 19.667 9.1442-19.667 9.1442c3.1419-5.3987 3.1238-12.785 1e-6 -18.288z" fill-rule="evenodd" filter="url(#o)" stroke-linejoin="round" stroke-width=".625"/>
<path d="m28.524 62 2.9857-29h-5.9713l2.9857 29z" fill="url(#b)" fill-rule="evenodd"/>
<path d="m22.501 34.946 6.0001-12.945 6.0001 12.945c-3.5424-2.0681-8.389-2.0562-12-1e-6z" fill="url(#b)" fill-rule="evenodd" stroke-linejoin="round" stroke-width=".625"/>
<path transform="matrix(.65823 0 0 .65616 1.3729 26.814)" d="m47.289 61.281 45.577 4.5502v-9.1l-45.577 4.55z" fill-rule="evenodd" filter="url(#p)"/>
<path transform="matrix(.65823 0 0 .65616 1.3729 26.814)" d="m89.91 52.101 19.667 9.1442-19.667 9.1442c3.1419-5.3987 3.1238-12.785 1e-6 -18.288z" fill-rule="evenodd" filter="url(#p)" stroke-linejoin="round" stroke-width=".625"/>
<path d="m32.5 66.024 30 2.986v-5.9713l-30 2.9857z" fill="url(#c)" fill-rule="evenodd"/>
<path d="m60.555 60.001 12.945 6.0001-12.945 6.0001c2.0681-3.5424 2.0562-8.389 1e-6 -12z" fill="url(#c)" fill-rule="evenodd" stroke-linejoin="round" stroke-width=".625"/>
</svg>
