<?xml version="1.0" encoding="UTF-8"?>
<!-- Created with Inkscape (http://www.inkscape.org/) -->
<svg version="1.0" viewBox="0 0 96 96" xmlns="http://www.w3.org/2000/svg" xmlns:cc="http://creativecommons.org/ns#" xmlns:dc="http://purl.org/dc/elements/1.1/" xmlns:rdf="http://www.w3.org/1999/02/22-rdf-syntax-ns#" xmlns:xlink="http://www.w3.org/1999/xlink">
<defs>
<linearGradient id="linearGradient3860">
<stop stop-color="#fff" offset="0"/>
<stop stop-color="#fff" stop-opacity="0" offset="1"/>
</linearGradient>
<linearGradient id="ButtonShadow" x1="45.448" x2="45.448" y1="92.54" y2="7.0165" gradientTransform="scale(1.0059 .99417)" gradientUnits="userSpaceOnUse">
<stop offset="0"/>
<stop stop-opacity=".58824" offset="1"/>
</linearGradient>
<filter id="filter3174" color-interpolation-filters="sRGB">
<feGaussianBlur stdDeviation="1.71"/>
</filter>
<linearGradient id="linearGradient6553" x1="2.7714" x2="50.528" y1="-28.642" y2="14.514" gradientUnits="userSpaceOnUse">
<stop stop-color="#fff" offset="0"/>
<stop stop-color="#fff" stop-opacity="0" offset="1"/>
</linearGradient>
<linearGradient id="linearGradient4071" x1="6" x2="90" y1="47" y2="47" gradientTransform="matrix(1.1071 0 0 1.1071 -4.9939 -3.6207)" gradientUnits="userSpaceOnUse">
<stop stop-color="#b4b9ba" offset="0"/>
<stop stop-color="#fff" offset=".25"/>
<stop stop-color="#98a0a2" offset=".5"/>
<stop stop-color="#fbf9f9" offset=".75"/>
<stop stop-color="#b4b8ba" offset="1"/>
</linearGradient>
<linearGradient id="linearGradient4129" x1="1.5" x2="94.5" y1="88.172" y2="88.172" gradientTransform="translate(.14895 .41503)" gradientUnits="userSpaceOnUse">
<stop offset="0"/>
<stop stop-opacity=".58824" offset=".1"/>
<stop stop-opacity=".58824" offset=".9"/>
<stop offset="1"/>
</linearGradient>
<radialGradient id="radialGradient7462" cx="13.948" cy="44.893" r="43.199" gradientTransform="matrix(.97513 0 0 .049191 34.048 80.582)" gradientUnits="userSpaceOnUse" xlink:href="#linearGradient3860"/>
<radialGradient id="radialGradient7464" cx="13.948" cy="44.893" r="43.199" gradientTransform="matrix(.88833 0 0 .049191 31.96 -90.317)" gradientUnits="userSpaceOnUse" xlink:href="#linearGradient3860"/>
<clipPath id="clipPath4156-4-1">
<path d="m27.046-55.695-14.214 13.321h0.06127l15.653 21.771 10.231-10.546c-0.2169-1.1522-11.311-23.67-11.732-24.546zm-17.399 16.313-14.888 14.062 21.229 17.515 10.385-10.577zm31.491 12.951-9.7413 9.7136 8.9448 12.458 7.7808-7.555zm-49.84 4.3788-13.754 12.982 26.283 13.846 0.06127-0.0617-0.12253-0.0617 9.8332-10.053-22.301-16.652zm38.015 7.4008-9.8025 9.7753 11.579 9.5594 7.6276-7.4008-8.6691-11.009zm20.187 5.674-7.3825 7.2158 6.1878 8.5418 5.8202-6.1365zm-32.195 6.3215-9.5575 9.4977 13.662 7.185 7.9339-7.6784zm23.312 2.3744-7.1068 6.9383 8.3628 6.9074 5.3608-5.674-0.06127-0.0925-0.0919 0.12335-6.4635-8.2026zm-8.7304 8.5418-7.5051 7.3392 10.354 5.4581c1.3975-1.321 5.6751-6.1229 5.8509-6.3215z" fill="#fff" opacity=".6"/>
</clipPath>
</defs>
<metadata>
<rdf:RDF>
<cc:Work rdf:about="">
<dc:format>image/svg+xml</dc:format>
<dc:type rdf:resource="http://purl.org/dc/dcmitype/StillImage"/>
<dc:title/>
</cc:Work>
</rdf:RDF>
</metadata>
<g display="none">
<rect x="5" y="7" width="86" height="85" rx="6" ry="6" fill="url(#ButtonShadow)" filter="url(#filter3174)" opacity=".9"/>
</g>
<g transform="translate(102.47 -6.9424)">
<g transform="translate(-102.47 -1019.6)">
<g transform="translate(-.14896 1026.1)">
<path d="m89.292 0.41503h-82.286c-3.7988 0-6.8571 3.0583-6.8571 6.8571v82.286c0 3.7989 3.0583 6.8571 6.8571 6.8571h82.286c3.7989 0 6.8571-3.0583 6.8571-6.8571v-82.286c0-3.7989-3.0583-6.8571-6.8571-6.8571z" opacity=".15"/>
<path d="m88.649 1.165h-81c-3.7395 0-6.75 3.0105-6.75 6.75v81c0 3.7395 3.0105 6.75 6.75 6.75h81c3.7395 0 6.75-3.0105 6.75-6.75v-81c0-3.7395-3.0105-6.75-6.75-6.75z" opacity=".15"/>
<path d="m88.006 1.915h-79.714c-3.6801 0-6.6429 2.9627-6.6429 6.6429v79.714c0 3.6801 2.9627 6.6429 6.6429 6.6429h79.714c3.6801 0 6.6429-2.9627 6.6429-6.6429v-79.714c0-3.6801-2.9627-6.6429-6.6429-6.6429z" fill="url(#linearGradient4071)"/>
<path d="m11.39 6.8022c-2.8565 0-5.1241 2.3147-5.1241 5.2305v69.369c1.0972 1.7038 2.9688 2.8441 5.1241 2.8441h73.787c2.1553 0 4.0269-1.1402 5.1241-2.8441v-69.369c0-2.9158-2.2676-5.2305-5.1241-5.2305z" fill="#ff2a2a" opacity=".997"/>
<path d="m9.974 5.1445c-3.1166 0-5.668 2.5395-5.668 5.646v69.278c0 3.1065 2.5513 5.646 5.668 5.646h76.792c3.1166 0 5.668-2.5395 5.668-5.646v-69.278c0-3.1065-2.5513-5.646-5.668-5.646zm0 2.3194h76.792c1.8881 0 3.352 1.4801 3.352 3.3266v69.278c0 1.8465-1.4639 3.3266-3.352 3.3266h-76.792c-1.8881 0-3.352-1.4801-3.352-3.3266v-69.278c0-1.8465 1.4639-3.3266 3.352-3.3266z" color="#000000" fill="#241f1f" fill-opacity=".63265" style="text-decoration-line:none;text-indent:0;text-transform:none"/>
<path d="m1.649 82.259v6c0 3.6801 2.9761 6.6562 6.6562 6.6562h79.687c3.6801 0 6.6563-2.9761 6.6563-6.6562v-6c0 3.6801-2.9761 6.6562-6.6563 6.6562h-79.687c-3.6801 0-6.6562-2.9761-6.6562-6.6562z" fill="url(#linearGradient4129)" opacity=".65818"/>
<rect x="5.524" y="80.665" width="84.25" height="4.25" rx="0" ry="4.25" fill="url(#radialGradient7462)" opacity=".55"/>
<rect transform="rotate(90)" x="5.975" y="-90.234" width="76.75" height="4.25" rx="0" ry="4.25" fill="url(#radialGradient7464)" opacity=".669"/>
<g transform="translate(.22097 -1.9148)">
<path d="m33.381 18.137c0.0067-9.93e-4 -0.21507 0.07117-0.2085 0.0695 0.0066-0.0017-0.24962 0.07182-0.24324 0.0695 0.0063-0.0023-0.21461 0.07244-0.2085 0.0695 0.0052-0.0026-0.09791 0.08202-0.139 0.10425-0.0071 0.0038-0.0356 5.23e-4 -0.03475 0v0.03475c-9.6087 5.568-15.533 15.826-15.533 26.931-4.2e-5 -0.0066 6.79e-4 0.21501 0 0.2085-6.78e-4 -0.0066 0.03606 0.24966 0.03475 0.24324-0.0013-0.0064 0.07142 0.21475 0.0695 0.2085-0.0019-0.0062 0.07202 0.21454 0.0695 0.2085-0.0026-6e-3 0.10735 0.17951 0.10425 0.17375-0.0031-0.0058 0.10789 0.21393 0.10425 0.2085-0.0037-0.0054 0.14316 0.1788 0.139 0.17375-0.0041-5e-3 0.14363 0.14363 0.139 0.139-0.0047-0.0047 0.14405 0.14315 0.139 0.139-5e-3 -0.0041 0.17918 0.14264 0.17375 0.139-0.0054-0.0037 0.21426 0.10735 0.2085 0.10425-0.0058-0.0031 0.17979 0.10677 0.17375 0.10425-6e-3 -0.0026 0.21475 0.07142 0.2085 0.0695-0.0062-0.0019 0.21491 0.07081 0.2085 0.0695-0.0064-0.0013 0.24976 0.03543 0.24324 0.03475-0.0066-6.78e-4 0.21504 4.3e-5 0.2085 0h20.016c-0.0066 4.3e-5 0.21501-6.78e-4 0.2085 0-0.0066 6.79e-4 0.24966-0.03606 0.24324-0.03475-0.0065 0.0013 0.21475-0.07142 0.2085-0.0695-0.0062 0.0019 0.21454-0.07202 0.2085-0.0695-6e-3 0.0026 0.17951-0.10735 0.17375-0.10425-0.0058 0.0031 0.21393-0.1079 0.2085-0.10425-0.0054 0.0037 0.1788-0.14315 0.17375-0.139-0.0012 1e-3 0.01955-0.02091 0.03475-0.03475 0.3468 1.5212 1.0229 2.8849 2.1197 3.9267-0.02797 0.01261-0.10686 0.07076-0.10425 0.0695 0.0032-0.0016-0.10743 0.0365-0.10425 0.03475 0.0032-0.0018-0.10733 0.07141-0.10425 0.0695 0.0031-0.0019-0.10722 0.07158-0.10425 0.0695 3e-3 -0.0021-0.07236 0.07173-0.0695 0.0695 0.0029-0.0022-0.10697 0.07189-0.10425 0.0695 0.0028-0.0023-0.10685 0.10678-0.10425 0.10425 0.0026-0.0026-0.07196 0.07217-0.0695 0.0695 0.0024-0.0027-0.07181 0.10704-0.0695 0.10425 0.0023-0.0028-0.07166 0.10716-0.0695 0.10425 0.0021-0.0029-0.07149 0.07252-0.0695 0.0695 2e-3 -3e-3 -0.07133 0.10738-0.0695 0.10425a1.2161 1.2161 0 0 0 0 0.03475l-10.008 17.34v0.03475c-0.0196 0.03717-0.10668 0.17891-0.10425 0.17375 0.0028-6e-3 -0.07171 0.17995-0.0695 0.17374 0.0022-0.0062-0.0711 0.21489-0.0695 0.2085 0.0016-0.0065-0.03572 0.24976-0.03475 0.24324 9.66e-4 -0.0066-0.03507 0.21508-0.03475 0.2085 3.23e-4 -0.0066 3.22e-4 0.21508 0 0.2085-3.23e-4 -0.0066 0.03572 0.21502 0.03475 0.2085-9.65e-4 -0.0066 0.03635 0.24964 0.03475 0.24324-0.0016-0.0064 0.07171 0.2147 0.0695 0.2085-0.0022-0.0062 0.07231 0.17971 0.0695 0.17375-0.0028-6e-3 0.10763 0.21415 0.10425 0.2085-0.0033-0.0057 0.10817 0.17904 0.10425 0.17375-0.0039-0.0053 0.14342 0.17864 0.139 0.17375-0.0044-0.0049 0.17862 0.14343 0.17375 0.139-0.0049-0.0044 0.17904 0.14293 0.17375 0.139-0.0053-0.0039 0.17939 0.1424 0.17375 0.139a1.2161 1.2161 0 0 0 0.03475 0c9.6332 5.5617 21.502 5.5617 31.135 0a1.2161 1.2161 0 0 0 0.03475 0c-0.0057 0.0034 0.17903-0.14293 0.17375-0.139-0.0053 0.0039 0.17862-0.14343 0.17375-0.139-0.0049 0.0044 0.17817-0.14389 0.17375-0.139-0.0044 0.0049 0.14292-0.17904 0.139-0.17375-0.0039 0.0053 0.10763-0.1794 0.10425-0.17375-0.0033 0.0057 0.10706-0.21446 0.10425-0.2085-0.0028 6e-3 0.07171-0.17995 0.0695-0.17375-0.0022 0.0062 0.0711-0.21489 0.0695-0.2085-0.0016 0.0065 0.03572-0.24976 0.03475-0.24324-9.65e-4 0.0066 0.03507-0.21508 0.03475-0.2085-3.23e-4 0.0066-3.24e-4 -0.21508 0-0.2085 3.23e-4 0.0066-0.03572-0.21502-0.03475-0.2085 9.67e-4 0.0066-0.03635-0.24964-0.03475-0.24324 0.0016 0.0064-0.07171-0.2147-0.0695-0.2085 0.0022 0.0062-0.07231-0.17971-0.0695-0.17374 0.0024 0.0051-0.08464-0.13658-0.10425-0.17375v-0.03475l-10.008-17.34a1.2161 1.2161 0 0 0 0-0.03475c0.0034 0.0057-0.14293-0.17904-0.139-0.17375 0.0039 0.0053-0.14343-0.17862-0.139-0.17375 0.0044 0.0049-0.14389-0.17817-0.139-0.17375 0.0049 0.0044-0.17904-0.14292-0.17375-0.139 0.0053 0.0039-0.1794-0.10763-0.17375-0.10425 0.0057 0.0033-0.21446-0.10706-0.2085-0.10425 0.0034 0.0017-0.0452-0.01034-0.10425-0.03475 1.115-1.046 1.8039-2.424 2.1544-3.9614 0.0152 0.01384 0.03602 0.03578 0.03475 0.03475-5e-3 -0.0041 0.17918 0.14264 0.17374 0.139-0.0054-0.0037 0.21426 0.10735 0.2085 0.10425-0.0058-0.0031 0.17979 0.10677 0.17374 0.10425-6e-3 -0.0026 0.21475 0.07142 0.2085 0.0695-0.0062-0.0019 0.21491 0.07081 0.2085 0.0695-0.0065-0.0013 0.24976 0.03543 0.24324 0.03475-0.0066-6.78e-4 0.21504 4.3e-5 0.2085 0h20.016c-0.0066 4.3e-5 0.21501-6.78e-4 0.2085 0-0.0066 6.79e-4 0.24966-0.03606 0.24324-0.03475-0.0065 0.0013 0.21475-0.07142 0.2085-0.0695-0.0062 0.0019 0.21454-0.07202 0.2085-0.0695-6e-3 0.0026 0.17951-0.10735 0.17375-0.10425-0.0058 0.0031 0.21393-0.1079 0.2085-0.10425-0.0054 0.0037 0.1788-0.14315 0.17375-0.139-5e-3 0.0041 0.14363-0.14363 0.139-0.139-0.0047 0.0047 0.14315-0.14405 0.139-0.139-0.0041 5e-3 0.14264-0.17918 0.139-0.17375-0.0037 0.0054 0.10735-0.21426 0.10425-0.2085-0.0031 0.0058 0.10677-0.17979 0.10425-0.17375-0.0026 6e-3 0.07142-0.21475 0.0695-0.2085-0.0019 0.0062 0.07081-0.21491 0.0695-0.2085-0.0013 0.0064 0.03543-0.24976 0.03475-0.24324-6.78e-4 0.0066 4.2e-5 -0.21504 0-0.2085 0-11.104-5.9241-21.363-15.533-26.931-0.0062-0.0036 0.0062-0.03115 0-0.03475 7.51e-4 4.65e-4 -0.02852 0.0034-0.03475 0-0.03613-0.02002-0.14357-0.10654-0.139-0.10425 0.0053 0.0027-0.17933-0.0717-0.17375-0.0695 0.0056 0.0022-0.1795-0.0712-0.17375-0.0695 0.0058 0.0017-0.21438-0.03593-0.2085-0.03475 0.0059 0.0012-0.17971-0.03539-0.17375-0.03475 6e-3 6.47e-4 -0.21449-1.14e-4 -0.2085 0 6e-3 1.13e-4 -0.21448 4.21e-4 -0.2085 0 6e-3 -4.22e-4 -0.21442 9.52e-4 -0.2085 0a1.2161 1.2161 0 0 0 0 0.03475c0.0036-6.46e-4 -0.14252 8.38e-4 -0.139 0 0.0036-8.39e-4 -0.10773 0.03577-0.10425 0.03475 0.0034-1e-3 -0.10766 0.03596-0.10425 0.03475 0.0034-0.0012-0.10759 0.03615-0.10425 0.03475 0.0033-0.0014-0.14226 0.07108-0.139 0.0695 0.0032-0.0016-0.10743 0.03649-0.10425 0.03475 0.0032-0.0018-0.10733 0.07141-0.10425 0.0695 0.0031-0.0019-0.10722 0.07158-0.10425 0.0695 3e-3 -0.0021-0.07236 0.07173-0.0695 0.0695 0.0029-0.0022-0.10697 0.07189-0.10425 0.0695 0.0028-0.0023-0.10685 0.10678-0.10425 0.10425 0.0026-0.0026-0.07196 0.07217-0.0695 0.0695 0.0024-0.0027-0.07181 0.10704-0.0695 0.10425 0.0023-0.0028-0.07165 0.10716-0.0695 0.10425 0.0021-0.0029-0.07149 0.07252-0.0695 0.0695 2e-3 -3e-3 -0.07133 0.10738-0.0695 0.10425a1.2161 1.2161 0 0 0 0 0.03475l-10.008 17.34c4.51e-4 -7.54e-4 3e-3 0.02903 0 0.03475-0.0196 0.03717-0.10668 0.17891-0.10425 0.17375 0.0028-6e-3 -0.07171 0.17995-0.0695 0.17375 0.0022-0.0062-0.0711 0.21489-0.0695 0.2085 0.0016-0.0063-0.03572 0.24976-0.03475 0.24324 9.67e-4 -0.0066-0.03507 0.21508-0.03475 0.2085 3.24e-4 -0.0066 3.23e-4 0.21508 0 0.2085-3.22e-4 -0.0066 0.03572 0.21502 0.03475 0.2085-1.35e-4 -9.13e-4 -0.0014 0.02778 0 0.03475-0.72657-0.22613-1.4605-0.45174-2.2587-0.45174-0.79821 0-1.5321 0.22561-2.2587 0.45174 0.0014-7e-3 1.35e-4 -0.03566 0-0.03475-9.65e-4 0.0066 0.03507-0.21508 0.03475-0.2085-3.22e-4 0.0066-3.24e-4 -0.21508 0-0.2085 3.24e-4 0.0066-0.03572-0.21501-0.03475-0.2085 9.66e-4 0.0066-0.03635-0.24964-0.03475-0.24324 0.0016 0.0063-0.07171-0.2147-0.0695-0.2085 0.0022 0.0062-0.07231-0.17971-0.0695-0.17375 0.0024 0.0051-0.08464-0.13658-0.10425-0.17375v-0.03475l-10.008-17.34a1.2161 1.2161 0 0 0 0-0.03475c0.0026 0.0042-0.07231-0.14302-0.0695-0.139 0.0028 4e-3 -0.10735-0.14281-0.10425-0.139 0.0031 0.0038-0.10762-0.10782-0.10425-0.10425 0.0033 0.0036-0.14262-0.10756-0.139-0.10425 0.0037 0.0033-0.1081-0.1073-0.10425-0.10425 0.0039 3e-3 -0.14306-0.107-0.139-0.10425 0.0041 0.0028-0.14325-0.1067-0.139-0.10425 0.0042 0.0024-0.14342-0.07163-0.139-0.0695 0.0044 0.0021-0.14356-0.07131-0.139-0.0695 0.0046 0.0018-0.17843-0.03622-0.17375-0.03475 0.0047 0.0014-0.14378-0.07062-0.139-0.0695 0.0048 0.0011-0.1786-7.71e-4 -0.17375 0 0.0049 7.7e-4 -0.17864-0.03516-0.17375-0.03475 0.0049 4.14e-4 -0.14391-5.7e-5 -0.139 0 0.0049 5.6e-5 -0.17865 3.01e-4 -0.17375 0 0.0049-3.02e-4 -0.17861 6.58e-4 -0.17374 0z" color="#000000" fill="#ffcb16" opacity=".15"/>
<path d="m33.554 19.353a1.0143 1.0143 0 0 0-0.38224 0.139c-9.2584 5.3453-14.942 15.233-14.942 25.923a1.0143 1.0143 0 0 0 1.0077 1.0077h20.016a1.0143 1.0143 0 0 0 1.0077-1.0077c0-2.919 1.607-5.4443 3.9614-6.8108a1.0143 1.0143 0 0 0 0.34749-1.39l-10.008-17.375a1.0143 1.0143 0 0 0-1.0077-0.48649zm28.877 0a1.0143 1.0143 0 0 0-0.69498 0.48649l-10.008 17.375a1.0143 1.0143 0 0 0 0.34749 1.39c2.3544 1.3665 3.9614 3.8919 3.9614 6.8108a1.0143 1.0143 0 0 0 1.0077 1.0077h20.016a1.0143 1.0143 0 0 0 1.0077-1.0077c0-10.69-5.6838-20.578-14.942-25.923a1.0143 1.0143 0 0 0-0.69498-0.139zm-14.282 19.494c-3.6188 0-6.5676 2.9488-6.5676 6.5676s2.9488 6.5676 6.5676 6.5676c3.6187 0 6.5676-2.9488 6.5676-6.5676s-2.9488-6.5676-6.5676-6.5676zm-4.6216 13.239a1.0143 1.0143 0 0 0-0.69498 0.48649l-10.008 17.375a1.0143 1.0143 0 0 0 0.34749 1.39c9.2576 5.3449 20.696 5.3449 29.954 0a1.0143 1.0143 0 0 0 0.34749-1.39l-10.008-17.375a1.0143 1.0143 0 0 0-1.39-0.34749c-1.1701 0.67912-2.4912 1.0772-3.9267 1.0772-1.4355 0-2.7566-0.3981-3.9267-1.0772a1.0143 1.0143 0 0 0-0.69498-0.139z" color="#000000" fill="#fff" opacity=".88"/>
<path d="m33.693 20.361c-8.9452 5.1645-14.456 14.725-14.456 25.054h20.016c0-3.2881 1.7951-6.1399 4.4479-7.6796zm28.911 0-10.008 17.375c2.6528 1.5397 4.4479 4.3915 4.4479 7.6796h20.016c0-10.329-5.5105-19.89-14.456-25.054zm-14.456 19.494c-3.0706 0-5.5599 2.4892-5.5599 5.5599s2.4892 5.5599 5.5599 5.5599c3.0706 0 5.5599-2.4892 5.5599-5.5599s-2.4892-5.5599-5.5599-5.5599zm-4.4479 13.239-10.008 17.375c8.9452 5.1645 19.966 5.1645 28.911 0l-10.008-17.375c-1.311 0.7609-2.823 1.2162-4.4479 1.2162-1.6249 0-3.1369-0.45532-4.4479-1.2162z" color="#000000" fill="#ffdd3e"/>
</g>
<path d="m48.369 9.365c-19.899 0-36.062 16.166-36.061 36.064-0.0015 19.899 16.162 36.064 36.061 36.064 19.899 0 36.064-16.166 36.062-36.064 0.0015-19.899-16.164-36.064-36.062-36.064zm0 3.1816c18.179 0 32.882 14.704 32.881 32.883 0.0014 18.179-14.702 32.885-32.881 32.885-18.179 0-32.882-14.705-32.881-32.885-0.0014-18.179 14.702-32.883 32.881-32.883z" color="#000000" color-rendering="auto" dominant-baseline="auto" fill="#2d2d2d" image-rendering="auto" shape-rendering="auto" solid-color="#000000" style="font-feature-settings:normal;font-variant-alternates:normal;font-variant-caps:normal;font-variant-ligatures:normal;font-variant-numeric:normal;font-variant-position:normal;isolation:auto;mix-blend-mode:normal;shape-padding:0;text-decoration-color:#000000;text-decoration-line:none;text-decoration-style:solid;text-indent:0;text-orientation:mixed;text-transform:none;white-space:normal"/>
<rect transform="matrix(1.0692 0 0 1.0477 4.4442 38.894)" x="2" y="-30" width="75.966" height="69.024" rx="3.957" ry="3.957" clip-path="url(#clipPath4156-4-1)" fill="url(#linearGradient6553)" opacity=".50781"/>
</g>
</g>
</g>
</svg>
