<?xml version="1.0" encoding="UTF-8"?>
<svg version="1.1" viewBox="0 0 96 96" xmlns="http://www.w3.org/2000/svg" xmlns:cc="http://creativecommons.org/ns#" xmlns:dc="http://purl.org/dc/elements/1.1/" xmlns:rdf="http://www.w3.org/1999/02/22-rdf-syntax-ns#" xmlns:xlink="http://www.w3.org/1999/xlink">
<title>Lila-HD-Icon-Theme</title>
<defs>
<linearGradient id="linearGradient4071" x1="6" x2="90" y1="47" y2="47" gradientTransform="matrix(1.1071 0 0 1.1071 -4.9939 -3.6207)" gradientUnits="userSpaceOnUse">
<stop stop-color="#b2babc" offset="0"/>
<stop stop-color="#fff" offset=".25"/>
<stop stop-color="#96a1a4" offset=".5"/>
<stop stop-color="#fbf9f9" offset=".75"/>
<stop stop-color="#b2b9bc" offset="1"/>
</linearGradient>
<linearGradient id="linearGradient4129" x1="1.5" x2="94.5" y1="88.172" y2="88.172" gradientTransform="translate(.14895 .41503)" gradientUnits="userSpaceOnUse">
<stop offset="0"/>
<stop stop-opacity=".58824" offset=".1"/>
<stop stop-opacity=".58824" offset=".9"/>
<stop offset="1"/>
</linearGradient>
<radialGradient id="radialGradient7462" cx="13.948" cy="44.893" r="43.199" gradientTransform="matrix(.97513 0 0 .049191 34.048 80.582)" gradientUnits="userSpaceOnUse" xlink:href="#linearGradient3737"/>
<linearGradient id="linearGradient3737">
<stop stop-color="#fff" offset="0"/>
<stop stop-color="#fff" stop-opacity="0" offset="1"/>
</linearGradient>
<radialGradient id="radialGradient7464" cx="13.948" cy="44.893" r="43.199" gradientTransform="matrix(.88833 0 0 .049191 31.96 -90.317)" gradientUnits="userSpaceOnUse" xlink:href="#linearGradient3737"/>
<linearGradient id="linearGradient4767" x1="2.7714" x2="50.528" y1="-28.642" y2="14.514" gradientUnits="userSpaceOnUse" xlink:href="#linearGradient3737"/>
<clipPath id="clipPath4156-4-1">
<path d="m27.046-55.695-14.214 13.321h0.06127l15.653 21.771 10.231-10.546c-0.2169-1.1522-11.311-23.67-11.732-24.546zm-17.399 16.313-14.888 14.062 21.229 17.515 10.385-10.577zm31.491 12.951-9.7413 9.7136 8.9448 12.458 7.7808-7.555zm-49.84 4.3788-13.754 12.982 26.283 13.846 0.06127-0.0617-0.12253-0.0617 9.8332-10.053-22.301-16.652zm38.015 7.4008-9.8025 9.7753 11.579 9.5594 7.6276-7.4008-8.6691-11.009zm20.187 5.674-7.3825 7.2158 6.1878 8.5418 5.8202-6.1365zm-32.195 6.3215-9.5575 9.4977 13.662 7.185 7.9339-7.6784zm23.312 2.3744-7.1068 6.9383 8.3628 6.9074 5.3608-5.674-0.06127-0.0925-0.0919 0.12335-6.4635-8.2026zm-8.7304 8.5418-7.5051 7.3392 10.354 5.4581c1.3975-1.321 5.6751-6.1229 5.8509-6.3215z" fill="#fff" opacity=".6"/>
</clipPath>
<linearGradient id="e" x1="266.93" x2="266.93" y1="270.61" y2="147.35" gradientTransform="matrix(.10334 0 0 .10334 -161.05 86.957)" gradientUnits="userSpaceOnUse">
<stop stop-color="#c1a4da" offset="0"/>
<stop stop-color="#bcc7e0" offset=".034483"/>
<stop stop-color="#d7deed" offset="1"/>
</linearGradient>
<radialGradient id="b-5" cx="52.414" cy="36.714" r="9.0068" gradientTransform="matrix(.7154 -.097724 .48755 3.5691 -170.06 -14.939)" gradientUnits="userSpaceOnUse">
<stop stop-color="#c1a4da" offset="0"/>
<stop stop-color="#adb8d2" offset=".034483"/>
<stop stop-color="#d3dae9" offset="1"/>
</radialGradient>
<radialGradient id="c-2" cx="14.232" cy="41.147" r="9.0068" gradientTransform="matrix(.81678 .16846 -.54561 2.6454 -141.66 10.336)" gradientUnits="userSpaceOnUse">
<stop stop-color="#c1a4da" offset="0"/>
<stop stop-color="#b2bcd3" offset=".034483"/>
<stop stop-color="#d9dfeb" offset="1"/>
</radialGradient>
</defs>
<metadata>
<rdf:RDF>
<cc:Work rdf:about="">
<dc:format>image/svg+xml</dc:format>
<dc:type rdf:resource="http://purl.org/dc/dcmitype/StillImage"/>
<dc:title>Lila-HD-Icon-Theme</dc:title>
<dc:date>2015-2017</dc:date>
<dc:creator>
<cc:Agent>
<dc:title>Cristian Pozzessere  &lt; ilnanny &gt;</dc:title>
</cc:Agent>
</dc:creator>
<dc:subject>
<rdf:Bag>
<rdf:li>ilnanny</rdf:li>
<rdf:li>lila_hd</rdf:li>
<rdf:li>lila-hd</rdf:li>
<rdf:li>lila hd icon theme</rdf:li>
<rdf:li>Lila-HD-Icon-Theme lila hd icon lila icon</rdf:li>
</rdf:Bag>
</dc:subject>
<dc:description>Playing with Inkscape on Gnu/Linux O. S.</dc:description>
<dc:contributor>
<cc:Agent>
<dc:title>In the night, alone like a dog.</dc:title>
</cc:Agent>
</dc:contributor>
<cc:license rdf:resource="http://creativecommons.org/licenses/by-sa/3.0/"/>
</cc:Work>
<cc:License rdf:about="http://creativecommons.org/licenses/by-sa/3.0/">
<cc:permits rdf:resource="http://creativecommons.org/ns#Reproduction"/>
<cc:permits rdf:resource="http://creativecommons.org/ns#Distribution"/>
<cc:requires rdf:resource="http://creativecommons.org/ns#Notice"/>
<cc:requires rdf:resource="http://creativecommons.org/ns#Attribution"/>
<cc:permits rdf:resource="http://creativecommons.org/ns#DerivativeWorks"/>
<cc:requires rdf:resource="http://creativecommons.org/ns#ShareAlike"/>
</cc:License>
</rdf:RDF>
</metadata>
<g transform="translate(0 -1026.5)">
<g transform="translate(-.14896 1026.1)">
<path d="m89.292 0.41503h-82.286c-3.7988 0-6.8571 3.0583-6.8571 6.8571v82.286c0 3.7989 3.0583 6.8571 6.8571 6.8571h82.286c3.7989 0 6.8571-3.0583 6.8571-6.8571v-82.286c0-3.7989-3.0583-6.8571-6.8571-6.8571z" opacity=".15"/>
<path d="m88.649 1.165h-81c-3.7395 0-6.75 3.0105-6.75 6.75v81c0 3.7395 3.0105 6.75 6.75 6.75h81c3.7395 0 6.75-3.0105 6.75-6.75v-81c0-3.7395-3.0105-6.75-6.75-6.75z" opacity=".15"/>
<path d="m88.006 1.915h-79.714c-3.6801 0-6.6429 2.9627-6.6429 6.6429v79.714c0 3.6801 2.9627 6.6429 6.6429 6.6429h79.714c3.6801 0 6.6429-2.9627 6.6429-6.6429v-79.714c0-3.6801-2.9627-6.6429-6.6429-6.6429z" fill="url(#linearGradient4071)"/>
<path d="m11.39 6.4301c-2.8565 0-5.1241 2.3292-5.1241 5.2631v69.803c1.0972 1.7145 2.9688 2.8618 5.1241 2.8618h73.787c2.1553 0 4.0269-1.1473 5.1241-2.8618v-69.803c0-2.934-2.2676-5.2631-5.1241-5.2631z" fill="#9d5dc1"/>
<g transform="matrix(1.3263 0 0 1.3263 225.14 -102.13)">
<path d="m-114.19 93.297-3.3594 4.5078s-19.077 3.7205-19.621 4.5957l-12.555 20.182-3.2676-2.8574-6.1875 12.463 10.448 8.9519 43.755-0.0935 3.3093-2 0.5611-33.04z" fill-opacity=".09375" style="paint-order:normal"/>
<path d="m-147.03 93.668-0.1795-0.73857c-0.0772-0.31777-0.34185-0.58646-0.70364-0.68235-0.9933-0.26331-2.0347-0.40354-3.1078-0.40354-1.0732 0-2.1146 0.14023-3.108 0.40365-0.36179 0.0959-0.62644 0.36458-0.70364 0.68235l-0.1795 0.73847z" fill="#656d92"/>
<path d="m-157.41 100.05h12.772l-1.8112-6.21c-0.0929-0.31849-0.37492-0.57777-0.74519-0.662-1.222-0.27778-2.5054-0.42597-3.8293-0.42597s-2.6073 0.14819-3.8293 0.42597c-0.37026 0.08412-0.65228 0.3435-0.74518 0.662z" fill="#a9b7d8"/>
<path d="m-114.19 93.668-0.1795-0.73857c-0.0772-0.31777-0.34185-0.58646-0.70365-0.68235-0.9933-0.26331-2.0347-0.40354-3.1078-0.40354-1.0732 0-2.1146 0.14023-3.1078 0.40365-0.36179 0.0959-0.62645 0.36458-0.70364 0.68235l-0.1795 0.73847z" fill="#656d92"/>
<path d="m-124.56 100.05h12.772l-1.8112-6.21c-0.0929-0.31849-0.37491-0.57777-0.74518-0.662-1.222-0.27778-2.5054-0.42597-3.8293-0.42597-1.3239 0-2.6073 0.14819-3.8293 0.42597-0.37026 0.08412-0.65228 0.3435-0.74518 0.662z" fill="#a9b7d8"/>
<path d="m-122.74 97.317h-23.719l-13.689 8.2102-0.90599 20.817c-0.13539 3.1107 2.5241 5.6377 5.6376 5.6377h4.1e-4c2.1354 0 4.0875-1.2064 5.0426-3.1164l7.06-14.12c0.30899-0.61818 0.94071-1.0086 1.6318-1.0086h14.165c0.69103 0 1.3229 0.39042 1.6318 1.0086l7.06 14.12c0.95497 1.91 2.9071 3.1164 5.0426 3.1164h4.2e-4c3.1136 0 5.6376-2.5241 5.6376-5.6377l-0.97229-20.817z" fill="#d7deed"/>
<path d="m-145.43 97.316-0.54689 3.4082 22.375-0.68751-0.22266-2.7207z" fill="#ffebff"/>
<path d="m-144.63 102.79h-3.6489v-3.6489c0-0.50378-0.4085-0.91228-0.91228-0.91228h-3.6489c-0.50378 0-0.91229 0.4085-0.91229 0.91228v3.6489h-3.649c-0.50379 0-0.91229 0.4085-0.91229 0.91228v3.6489c0 0.50378 0.4085 0.91228 0.91229 0.91228h3.6489v3.6489c0 0.50378 0.4085 0.91228 0.91229 0.91228h3.6489c0.50378 0 0.91229-0.4085 0.91229-0.91228v-3.6489h3.6489c0.50379 0 0.91229-0.4085 0.91229-0.91228v-3.6489c0-0.50388-0.4084-0.91228-0.91218-0.91228z" fill="#d7deed"/>
<path d="m-111.79 102.79h-3.6489v-3.6489c0-0.50378-0.4085-0.91228-0.91229-0.91228h-3.6489c-0.50378 0-0.91229 0.4085-0.91229 0.91228v3.6489h-3.6489c-0.50379 0-0.91229 0.4085-0.91229 0.91228v3.6489c0 0.50378 0.4085 0.91228 0.91229 0.91228h3.6489v3.6489c0 0.50378 0.40851 0.91228 0.91229 0.91228h3.6489c0.50379 0 0.91229-0.4085 0.91229-0.91228v-3.6489h3.6489c0.50379 0 0.91229-0.4085 0.91229-0.91228v-3.6489c-1e-4 -0.50388-0.4085-0.91228-0.91229-0.91228z" fill="#d7deed"/>
<path d="m-147.03 95.168-0.1795-0.73857c-0.0772-0.31777-0.34185-0.58646-0.70364-0.68235-0.9933-0.26331-2.0347-0.40354-3.1078-0.40354-1.0732 0-2.1146 0.14023-3.108 0.40365-0.36179 0.0959-0.62644 0.36458-0.70364 0.68235l-0.1795 0.73847z" fill="#656d92"/>
<path d="m-157.41 101.55h12.772l-1.8112-6.21c-0.0929-0.31849-0.37492-0.57777-0.74519-0.662-1.222-0.27778-2.5054-0.42597-3.8293-0.42597s-2.6073 0.14819-3.8293 0.42597c-0.37026 0.08412-0.65228 0.3435-0.74518 0.662z" fill="#d7deed"/>
<path d="m-114.19 95.168-0.1795-0.73857c-0.0772-0.31777-0.34185-0.58646-0.70365-0.68235-0.9933-0.26331-2.0347-0.40354-3.1078-0.40354-1.0732 0-2.1146 0.14023-3.1078 0.40365-0.36179 0.0959-0.62645 0.36458-0.70364 0.68235l-0.1795 0.73847z" fill="#656d92"/>
<path d="m-124.56 101.55h12.772l-1.8112-6.21c-0.0929-0.31849-0.37491-0.57777-0.74518-0.662-1.222-0.27778-2.5054-0.42597-3.8293-0.42597-1.3239 0-2.6073 0.14819-3.8293 0.42597-0.37026 0.08412-0.65228 0.3435-0.74518 0.662z" fill="#d7deed"/>
<path d="m-146.46 98.817-14.596 8.2111 4.8966 13.635 13.117-4.8122c0.34122-0.3831 0.83146-0.61329 1.3594-0.61329h14.164c0.52785 0 1.0181 0.23018 1.3594 0.61329l14.997 5.7998c1.2789-4.6415 1.9671-9.8397 2.8743-14.702l-14.453-8.131z" fill="url(#e)"/>
<path d="m-108.29 106.95-4.4376 6.2774c-0.31983 0.45244-0.45061 0.92821-1 1l-12.434 1.625c0.1055 0.11844 0.20047 0.24856 0.27344 0.39454l7.0587 14.121c0.95496 1.91 2.9075 3.1152 5.043 3.1152 3.1136 0 5.6388-2.5231 5.6388-5.6368v-20.816z" fill="url(#b-5)"/>
<path d="m-161.05 107.03v20.816c0 3.1136 2.5252 5.6368 5.6388 5.6368 2.1354 0 4.0879-1.2052 5.0431-3.1152l7.0587-14.121c0.073-0.14598 0.16795-0.2761 0.27344-0.39454l-12.764-1.375z" fill="url(#c-2)"/>
<circle cx="-151.02" cy="107.03" r="10.035" fill="#d7deee"/>
<circle cx="-118.18" cy="107.03" r="10.035" fill="#d7deee"/>
<path d="m-144.63 104.29h-3.6489v-3.6489c0-0.50378-0.4085-0.91228-0.91228-0.91228h-3.6489c-0.50378 0-0.91229 0.4085-0.91229 0.91228v3.6489h-3.649c-0.50379 0-0.91229 0.4085-0.91229 0.91228v3.6489c0 0.50378 0.4085 0.91228 0.91229 0.91228h3.6489v3.6489c0 0.50378 0.4085 0.91228 0.91229 0.91228h3.6489c0.50378 0 0.91229-0.4085 0.91229-0.91228v-3.6489h3.6489c0.50379 0 0.91229-0.4085 0.91229-0.91228v-3.6489c0-0.50388-0.4084-0.91228-0.91218-0.91228z" fill="#00378e" fill-opacity=".27965"/>
<path d="m-111.79 104.29h-3.6489v-3.6489c0-0.50378-0.4085-0.91228-0.91229-0.91228h-3.6489c-0.50378 0-0.91229 0.4085-0.91229 0.91228v3.6489h-3.6489c-0.50379 0-0.91229 0.4085-0.91229 0.91228v3.6489c0 0.50378 0.4085 0.91228 0.91229 0.91228h3.6489v3.6489c0 0.50378 0.40851 0.91228 0.91229 0.91228h3.6489c0.50379 0 0.91229-0.4085 0.91229-0.91228v-3.6489h3.6489c0.50379 0 0.91229-0.4085 0.91229-0.91228v-3.6489c-1e-4 -0.50388-0.4085-0.91228-0.91229-0.91228z" fill="#00378e" fill-opacity=".21353"/>
<path d="m-153.13 108.4h-1.8133c-0.3497 0-0.63337-0.28356-0.63337-0.63337v-1.4701c0-0.3497 0.28357-0.63337 0.63337-0.63337h1.8134c0.18416 0 0.35921 0.0802 0.4795 0.21959l0.73403 0.8508c0.14767 0.17113 0.14767 0.42473 0 0.59596l-0.73403 0.8508c-0.12029 0.13951-0.29545 0.2197-0.4796 0.2197z" fill="#545b7a"/>
<path d="m-148.64 105.66h1.8134c0.34971 0 0.63338 0.28357 0.63338 0.63337v1.4701c0 0.3497-0.28357 0.63337-0.63338 0.63337h-1.8134c-0.18415 0-0.35921-0.0802-0.47949-0.2196l-0.73403-0.8508c-0.14767-0.17113-0.14767-0.42473 0-0.59596l0.73403-0.8508c0.12018-0.13951 0.29524-0.2197 0.47949-0.2197z" fill="#545b7a"/>
<path d="m-149.52 109.28v1.8133c0 0.3497-0.28357 0.63337-0.63337 0.63337h-1.47c-0.34971 0-0.63338-0.28357-0.63338-0.63337v-1.8133c0-0.18415 0.0802-0.35921 0.2196-0.4795l0.8508-0.73402c0.17113-0.14767 0.42473-0.14767 0.59596 0l0.8508 0.73402c0.13951 0.12039 0.2196 0.29535 0.2196 0.4795z" fill="#545b7a"/>
<path d="m-152.25 104.78v-1.8133c0-0.34971 0.28357-0.63337 0.63338-0.63337h1.4701c0.3497 0 0.63337 0.28356 0.63337 0.63337v1.8133c0 0.18416-0.0802 0.35921-0.2196 0.4795l-0.85079 0.73403c-0.17114 0.14767-0.42473 0.14767-0.59597 0l-0.85079-0.73403c-0.13941-0.12029-0.21971-0.29524-0.21971-0.4795z" fill="#545b7a"/>
<circle cx="-122.74" cy="107.03" r="1.8245" fill="#f05b90"/>
<circle cx="-134.6" cy="106.11" r="2.7368" fill="#00103a" fill-opacity=".1169"/>
<circle cx="-113.62" cy="107.03" r="1.8245" fill="#ee4c4c"/>
<circle cx="-118.18" cy="111.59" r="1.8245" fill="#3e93ff"/>
<circle cx="-118.18" cy="102.47" r="1.8245" fill="#0fad9f"/>
<path d="m-137.34 112.5h-1.8245c-0.50378 0-0.91229-0.4085-0.91229-0.91229 0-0.50378 0.40851-0.91228 0.91229-0.91228h1.8245c0.50378 0 0.91228 0.4085 0.91228 0.91228 0 0.50379-0.4085 0.91229-0.91228 0.91229z" fill="#545b7a"/>
<path d="m-129.32 111.87-2.8847 0.72111c-0.2879 0.0719-0.56672-0.14571-0.56672-0.4425v-1.1122c0-0.29669 0.27892-0.51453 0.56672-0.4425l2.8847 0.7211c0.28883 0.0723 0.28883 0.48291 0 0.55504z" fill="#545b7a"/>
<path d="m-134.46 105.14-3e-3 2.4975-0.63375-0.21762-4e-3 -2.9226 0.80895 0.22585c0.51782 0.14694 0.83467 0.43257 0.82955 0.93315-5e-3 0.58222-0.27568 0.80813-0.73387 0.59517v-1.0795c0-0.15925-0.26384-0.27553-0.26384-0.0319" fill="#545b7a" fill-opacity=".36808" fill-rule="evenodd" stroke-width=".72"/>
<path d="m-135.23 106.28-0.0953 0.0307-0.92249 0.33084c-0.19418 0.0891-0.35639 0.14664-0.35742 0.29173 5e-3 0.18366 0.29267 0.27301 0.71409 0.34342 0.22457 0.045 0.45401 0.0148 0.65049-0.0268l1.5e-4 -0.34603s-0.3642 0.14153-0.45074 0.1533l-0.17522-9.5e-4c-0.13007-7.2e-4 -0.19065-0.084-0.0611-0.12876l0.69749-0.26394 1.2e-4 -0.38359" fill="#545b7a" fill-opacity=".36808" fill-rule="evenodd" stroke-width=".72"/>
<path d="m-133.59 106.43c-0.24218-8e-4 -0.57759 0.0652-0.74383 0.14254v0.39436l0.43839-0.1603 0.34726-0.1104c0.36167-0.0596 0.50543 0.0667 0.1532 0.17224l-0.9388 0.34352-1e-3 0.38245 1.3716-0.49349c0.15138-0.0528 0.3643-0.15936 0.36473-0.29033-0.0367-0.20284-0.34182-0.32114-0.81559-0.37134-0.0425-4e-3 -0.0852-7e-3 -0.12761-8e-3 -0.0162-4.7e-4 -0.0322-8.9e-4 -0.0484-9.4e-4z" fill="#545b7a" fill-opacity=".36808" fill-rule="evenodd" stroke-width=".72"/>
</g>
<path d="m9.974 5.1445c-3.1166 0-5.668 2.5395-5.668 5.646v69.278c0 3.1065 2.5513 5.646 5.668 5.646h76.792c3.1166 0 5.668-2.5395 5.668-5.646v-69.278c0-3.1065-2.5513-5.646-5.668-5.646zm0 2.3194h76.792c1.8881 0 3.352 1.4801 3.352 3.3266v69.278c0 1.8465-1.4639 3.3266-3.352 3.3266h-76.792c-1.8881 0-3.352-1.4801-3.352-3.3266v-69.278c0-1.8465 1.4639-3.3266 3.352-3.3266z" color="#000000" fill="#202223" fill-opacity=".93689" style="text-decoration-line:none;text-indent:0;text-transform:none"/>
<path d="m1.649 82.259v6c0 3.6801 2.9761 6.6562 6.6562 6.6562h79.687c3.6801 0 6.6563-2.9761 6.6563-6.6562v-6c0 3.6801-2.9761 6.6562-6.6563 6.6562h-79.687c-3.6801 0-6.6562-2.9761-6.6562-6.6562z" fill="url(#linearGradient4129)" opacity=".65818"/>
<rect x="5.524" y="80.665" width="84.25" height="4.25" rx="0" ry="4.25" fill="url(#radialGradient7462)" opacity=".55"/>
<rect transform="rotate(90)" x="5.975" y="-90.234" width="76.75" height="4.25" rx="0" ry="4.25" fill="url(#radialGradient7464)" opacity=".669"/>
<rect transform="matrix(1.0692 0 0 1.0477 4.4442 38.894)" x="2" y="-30" width="75.966" height="69.024" rx="3.957" ry="3.957" clip-path="url(#clipPath4156-4-1)" fill="url(#linearGradient4767)" opacity=".65"/>
</g>
</g>
</svg>
