<?xml version="1.0" encoding="UTF-8"?>
<!-- Created with Inkscape (http://www.inkscape.org/) -->
<svg version="1.1" viewBox="0 0 96 96" xmlns="http://www.w3.org/2000/svg" xmlns:cc="http://creativecommons.org/ns#" xmlns:dc="http://purl.org/dc/elements/1.1/" xmlns:rdf="http://www.w3.org/1999/02/22-rdf-syntax-ns#" xmlns:xlink="http://www.w3.org/1999/xlink">
<defs>
<linearGradient id="linearGradient4071" x1="6" x2="90" y1="47" y2="47" gradientTransform="matrix(1.1071 0 0 1.1071 -5.1429 -4.0357)" gradientUnits="userSpaceOnUse">
<stop stop-color="#b2babc" offset="0"/>
<stop stop-color="#fff" offset=".25"/>
<stop stop-color="#96a1a4" offset=".5"/>
<stop stop-color="#fbf9f9" offset=".75"/>
<stop stop-color="#b2b9bc" offset="1"/>
</linearGradient>
<linearGradient id="linearGradient4129" x1="1.5" x2="94.5" y1="88.172" y2="88.172" gradientTransform="translate(-2.95e-6,2.6e-5)" gradientUnits="userSpaceOnUse">
<stop offset="0"/>
<stop stop-opacity=".58824" offset=".1"/>
<stop stop-opacity=".58824" offset=".9"/>
<stop offset="1"/>
</linearGradient>
<radialGradient id="radialGradient7462" cx="13.948" cy="44.893" r="43.199" gradientTransform="matrix(.97513 0 0 .049191 33.899 80.167)" gradientUnits="userSpaceOnUse" xlink:href="#linearGradient3737"/>
<linearGradient id="linearGradient3737">
<stop stop-color="#fff" offset="0"/>
<stop stop-color="#fff" stop-opacity="0" offset="1"/>
</linearGradient>
<radialGradient id="radialGradient7464" cx="13.948" cy="44.893" r="43.199" gradientTransform="matrix(.88833 0 0 .049191 31.545 -90.168)" gradientUnits="userSpaceOnUse" xlink:href="#linearGradient3737"/>
<linearGradient id="linearGradient4767" x1="2.7714" x2="50.528" y1="-28.642" y2="14.514" gradientUnits="userSpaceOnUse" xlink:href="#linearGradient3737"/>
<clipPath id="clipPath4156-4-1">
<path d="m27.046-55.695-14.214 13.321h0.06127l15.653 21.771 10.231-10.546c-0.2169-1.1522-11.311-23.67-11.732-24.546zm-17.399 16.313-14.888 14.062 21.229 17.515 10.385-10.577zm31.491 12.951-9.7413 9.7136 8.9448 12.458 7.7808-7.555zm-49.84 4.3788-13.754 12.982 26.283 13.846 0.06127-0.0617-0.12253-0.0617 9.8332-10.053-22.301-16.652zm38.015 7.4008-9.8025 9.7753 11.579 9.5594 7.6276-7.4008-8.6691-11.009zm20.187 5.674-7.3825 7.2158 6.1878 8.5418 5.8202-6.1365zm-32.195 6.3215-9.5575 9.4977 13.662 7.185 7.9339-7.6784zm23.312 2.3744-7.1068 6.9383 8.3628 6.9074 5.3608-5.674-0.06127-0.0925-0.0919 0.12335-6.4635-8.2026zm-8.7304 8.5418-7.5051 7.3392 10.354 5.4581c1.3975-1.321 5.6751-6.1229 5.8509-6.3215z" fill="#fff" opacity=".6"/>
</clipPath>
<radialGradient id="d-6" cx="66.885" cy="96.314" r="32" fx="65.109" fy="63.116" gradientTransform="matrix(1.515,-1.515,2.2366,2.2366,-241.75,-38.084)" gradientUnits="userSpaceOnUse">
<stop stop-color="#35174c" stop-opacity=".49804" offset="0"/>
<stop stop-color="#481b1b" stop-opacity=".26835" offset="1"/>
</radialGradient>
<radialGradient id="b-1" cx="16" cy="48.125" r="25" gradientTransform="matrix(2.52 0 0 .12 -24.32 50.225)" gradientUnits="userSpaceOnUse">
<stop stop-color="#67404d" offset="0"/>
<stop stop-color="#af7c82" offset="1"/>
</radialGradient>
</defs>
<metadata>
<rdf:RDF>
<cc:Work rdf:about="">
<dc:format>image/svg+xml</dc:format>
<dc:type rdf:resource="http://purl.org/dc/dcmitype/StillImage"/>
<dc:title/>
<dc:date>2018</dc:date>
<dc:creator>
<cc:Agent>
<dc:title>Cristian Pozzessere  == ilnanny ==</dc:title>
</cc:Agent>
</dc:creator>
<dc:subject>
<rdf:Bag>
<rdf:li>Global language</rdf:li>
</rdf:Bag>
</dc:subject>
<dc:description>Playing with Inkscape on Gnu/Linux O. S.</dc:description>
<dc:contributor>
<cc:Agent>
<dc:title>In the night, alone like a dog.</dc:title>
</cc:Agent>
</dc:contributor>
</cc:Work>
</rdf:RDF>
</metadata>
<path d="m89.143 2.6e-5h-82.286c-3.7988 0-6.8571 3.0583-6.8571 6.8571v82.286c0 3.7989 3.0583 6.8571 6.8571 6.8571h82.286c3.7989 0 6.8571-3.0583 6.8571-6.8571v-82.286c0-3.7989-3.0583-6.8571-6.8571-6.8571z" opacity=".15"/>
<path d="m88.5 0.75003h-81c-3.7395 0-6.75 3.0105-6.75 6.75v81c0 3.7395 3.0105 6.75 6.75 6.75h81c3.7395 0 6.75-3.0105 6.75-6.75v-81c0-3.7395-3.0105-6.75-6.75-6.75z" opacity=".15"/>
<path d="m87.857 1.5h-79.714c-3.6801 0-6.6429 2.9627-6.6429 6.6429v79.714c0 3.6801 2.9627 6.6429 6.6429 6.6429h79.714c3.6801 0 6.6429-2.9627 6.6429-6.6429v-79.714c0-3.6801-2.9627-6.6429-6.6429-6.6429z" fill="url(#linearGradient4071)"/>
<path d="m1.5 81.844v6c0 3.6801 2.9761 6.6562 6.6562 6.6562h79.688c3.6801 0 6.6563-2.9761 6.6563-6.6562v-6c0 3.6801-2.9761 6.6562-6.6563 6.6562h-79.688c-3.6801 0-6.6562-2.9761-6.6562-6.6562z" fill="url(#linearGradient4129)" opacity=".65818"/>
<g transform="translate(103.75 -44.909)">
<path d="m-97.526 51.924v73.548l2.625 2.4516h78.75l2.625-2.4516v-73.548h-42z" color="#000000" fill="#8c5131" stroke-width="1.2684"/>
<g transform="matrix(1.3125 0 0 1.1875 -97.526 51.924)" fill="#502">
<g transform="translate(0,-14.5)" fill-opacity=".036219">
<path transform="translate(0,14.5)" d="m2 0-2 1v21.5h2zm2 0v3.5h2v-3.5zm4 0v17.5h2v-17.5zm4 0v32.5h2v-32.5zm8 0v27.5h2v-27.5zm16 0v0.5h2v-0.5zm12 0v19.5h2v-19.5zm4 0v33.5h2v-33.5zm4 0v14.5h2v-14.5zm4 0v30.5h2v-30.5zm-20 0.5v37h2v-37zm-36 5v37h2v-37zm28 0v37h2v-37zm-8 1v37h2v-37zm-8 3v37h2v-37zm12 2v37h2v-37zm16 5v37h2v-37zm-36 3v37h2v-37zm28 0v37h2v-37zm12 2v37h2v-37zm-48 3v37h2v-37zm60 8v31.5h2v-31.5zm-8 5v26.5h2v-26.5zm4 14v12.5h2v-12.5z" color="#000000"/>
<path transform="translate(0,14.5)" d="m2 0-2 1v29h2zm2 0v14h2v-14zm4 0v33h2v-33zm4 0v19h2v-19zm8 0v37h2v-37zm20 0v27h2v-27zm8 0v32h2v-32zm4 0v17h2v-17zm4 0v3h2v-3zm4 0v22h2v-22zm-32 5v37h2v-37zm28 0v37h2v-37zm-20 1v37h2v-37zm8 3v37h2v-37zm-12 2v37h2v-37zm-16 5v37h2v-37zm8 3v37h2v-37zm28 0v37h2v-37zm-40 2v37h2v-37zm48 3v37h2v-37zm-60 8v30l2 2v-32zm8 5v27h2v-27zm-4 14v13h2v-13z" color="#000000"/>
<path transform="translate(0,14.5)" d="m2 0-2 1v27.5h2zm2 0v12.5h2v-12.5zm4 0v31.5h2v-31.5zm4 0v17.5h2v-17.5zm8 0v35.5h2v-35.5zm20 0v25.5h2v-25.5zm8 0v30.5h2v-30.5zm4 0v15.5h2v-15.5zm4 0v1.5h2v-1.5zm4 0v20.5h2v-20.5zm-32 3.5v37h2v-37zm28 0v37h2v-37zm-20 1v37h2v-37zm8 3v37h2v-37zm-12 2v37h2v-37zm-16 5v37h2v-37zm8 3v37h2v-37zm28 0v37h2v-37zm-40 2v37h2v-37zm48 3v37h2v-37zm-60 8v31.5l2 2v-33.5zm8 5v28.5h2v-28.5zm-4 14v14.5h2v-14.5z" color="#000000"/>
<path transform="translate(0,14.5)" d="m2 0-2 1v19h2zm2 0v1h2v-1zm4 0v15h2v-15zm4 0v30h2v-30zm8 0v25h2v-25zm20 0v35h2v-35zm8 0v17h2v-17zm4 0v31h2v-31zm4 0v12h2v-12zm4 0v28h2v-28zm-56 3v37h2v-37zm28 0v37h2v-37zm-8 1v37h2v-37zm-8 3v37h2v-37zm12 2v37h2v-37zm16 5v37h2v-37zm-36 3v37h2v-37zm28 0v37h2v-37zm12 2v37h2v-37zm-48 3v37h2v-37zm60 8v34h2v-34zm-8 5v29h2v-29zm4 14v15h2v-15z" color="#000000"/>
<path transform="translate(0,14.5)" d="m2 0-2 1v32.5h2zm2 0v14.5h2v-14.5zm4 0v28.5h2v-28.5zm16 0v9.5h2v-9.5zm8 0v6.5h2v-6.5zm4 0v11.5h2v-11.5zm12 0v30.5h2v-30.5zm8 0v25.5h2v-25.5zm-36 1.5v37h2v-37zm40 3v37h2v-37zm-48 2v37h2v-37zm40 1v37h2v-37zm-12 4v37h2v-37zm-36 5v37h2v-37zm28 0v37h2v-37zm-8 1v37h2v-37zm-8 3v37h2v-37zm12 2v37h2v-37zm16 5v36.5h2v-36.5zm-36 3v33.5h2v-33.5zm28 0v33.5h2v-33.5zm12 2v31.5h2v-31.5zm-48 3v26.5l2 2v-28.5zm60 8v20.5h2v-20.5zm-8 5v15.5h2v-15.5zm4 14v1.5h2v-1.5z" color="#000000"/>
<path transform="translate(0,14.5)" d="m4 0v25h2v-25zm8 0v30h2v-30zm12 0v11h2v-11zm4 0v6h2v-6zm8 0v9h2v-9zm16 0v28h2v-28zm4 0v14h2v-14zm4 0v33h2v-33zm-20 1v37h2v-37zm-40 3v37h2v-37zm48 2v37h2v-37zm-40 1v37h2v-37zm12 4v37h2v-37zm8 5v37h2v-37zm28 0v37h2v-37zm-20 1v37h2v-37zm8 3v37h2v-37zm-12 2v37h2v-37zm-16 5v37h2v-37zm8 3v34h2v-34zm28 0v34h2v-34zm-40 2v32h2v-32zm48 3v29h2v-29zm-60 8v19l2 2v-21zm8 5v16h2v-16zm-4 14v2h2v-2z" color="#000000"/>
</g>
<g transform="translate(2,-14.5)" fill-opacity=".015018">
<path transform="translate(0,14.5)" d="m2 0-2 1v21.5h2zm2 0v3.5h2v-3.5zm4 0v17.5h2v-17.5zm4 0v32.5h2v-32.5zm8 0v27.5h2v-27.5zm16 0v0.5h2v-0.5zm12 0v19.5h2v-19.5zm4 0v33.5h2v-33.5zm4 0v14.5h2v-14.5zm4 0v30.5h2v-30.5zm-20 0.5v37h2v-37zm-36 5v37h2v-37zm28 0v37h2v-37zm-8 1v37h2v-37zm-8 3v37h2v-37zm12 2v37h2v-37zm16 5v37h2v-37zm-36 3v37h2v-37zm28 0v37h2v-37zm12 2v37h2v-37zm-48 3v37h2v-37zm60 8v31.5h2v-31.5zm-8 5v26.5h2v-26.5zm4 14v12.5h2v-12.5z" color="#000000"/>
<path transform="translate(0,14.5)" d="m2 0-2 1v29h2zm2 0v14h2v-14zm4 0v33h2v-33zm4 0v19h2v-19zm8 0v37h2v-37zm20 0v27h2v-27zm8 0v32h2v-32zm4 0v17h2v-17zm4 0v3h2v-3zm4 0v22h2v-22zm-32 5v37h2v-37zm28 0v37h2v-37zm-20 1v37h2v-37zm8 3v37h2v-37zm-12 2v37h2v-37zm-16 5v37h2v-37zm8 3v37h2v-37zm28 0v37h2v-37zm-40 2v37h2v-37zm48 3v37h2v-37zm-60 8v30l2 2v-32zm8 5v27h2v-27zm-4 14v13h2v-13z" color="#000000"/>
<path transform="translate(0,14.5)" d="m2 0-2 1v27.5h2zm2 0v12.5h2v-12.5zm4 0v31.5h2v-31.5zm4 0v17.5h2v-17.5zm8 0v35.5h2v-35.5zm20 0v25.5h2v-25.5zm8 0v30.5h2v-30.5zm4 0v15.5h2v-15.5zm4 0v1.5h2v-1.5zm4 0v20.5h2v-20.5zm-32 3.5v37h2v-37zm28 0v37h2v-37zm-20 1v37h2v-37zm8 3v37h2v-37zm-12 2v37h2v-37zm-16 5v37h2v-37zm8 3v37h2v-37zm28 0v37h2v-37zm-40 2v37h2v-37zm48 3v37h2v-37zm-60 8v31.5l2 2v-33.5zm8 5v28.5h2v-28.5zm-4 14v14.5h2v-14.5z" color="#000000"/>
<path transform="translate(0,14.5)" d="m2 0-2 1v19h2zm2 0v1h2v-1zm4 0v15h2v-15zm4 0v30h2v-30zm8 0v25h2v-25zm20 0v35h2v-35zm8 0v17h2v-17zm4 0v31h2v-31zm4 0v12h2v-12zm4 0v28h2v-28zm-56 3v37h2v-37zm28 0v37h2v-37zm-8 1v37h2v-37zm-8 3v37h2v-37zm12 2v37h2v-37zm16 5v37h2v-37zm-36 3v37h2v-37zm28 0v37h2v-37zm12 2v37h2v-37zm-48 3v37h2v-37zm60 8v34h2v-34zm-8 5v29h2v-29zm4 14v15h2v-15z" color="#000000"/>
<path transform="translate(0,14.5)" d="m2 0-2 1v32.5h2zm2 0v14.5h2v-14.5zm4 0v28.5h2v-28.5zm16 0v9.5h2v-9.5zm8 0v6.5h2v-6.5zm4 0v11.5h2v-11.5zm12 0v30.5h2v-30.5zm8 0v25.5h2v-25.5zm-36 1.5v37h2v-37zm40 3v37h2v-37zm-48 2v37h2v-37zm40 1v37h2v-37zm-12 4v37h2v-37zm-36 5v37h2v-37zm28 0v37h2v-37zm-8 1v37h2v-37zm-8 3v37h2v-37zm12 2v37h2v-37zm16 5v36.5h2v-36.5zm-36 3v33.5h2v-33.5zm28 0v33.5h2v-33.5zm12 2v31.5h2v-31.5zm-48 3v26.5l2 2v-28.5zm60 8v20.5h2v-20.5zm-8 5v15.5h2v-15.5zm4 14v1.5h2v-1.5z" color="#000000"/>
<path transform="translate(0,14.5)" d="m4 0v25h2v-25zm8 0v30h2v-30zm12 0v11h2v-11zm4 0v6h2v-6zm8 0v9h2v-9zm16 0v28h2v-28zm4 0v14h2v-14zm4 0v33h2v-33zm-20 1v37h2v-37zm-40 3v37h2v-37zm48 2v37h2v-37zm-40 1v37h2v-37zm12 4v37h2v-37zm8 5v37h2v-37zm28 0v37h2v-37zm-20 1v37h2v-37zm8 3v37h2v-37zm-12 2v37h2v-37zm-16 5v37h2v-37zm8 3v34h2v-34zm28 0v34h2v-34zm-40 2v32h2v-32zm48 3v29h2v-29zm-60 8v19l2 2v-21zm8 5v16h2v-16zm-4 14v2h2v-2z" color="#000000"/>
</g>
</g>
<g transform="matrix(1.3125 0 0 1.1875 -97.526 51.924)">
<path d="m7 9h50v50h-50z" color="#000000" fill="url(#d-6)"/>
<path d="m7 56h50v3h-50z" color="#000000" fill="url(#b-1)"/>
<path d="m7 59v-3h3z" color="#000000" fill-opacity=".13448"/>
<g id="a">
<path d="m12.906 13c-0.50364 0-0.90625 0.40261-0.90625 0.90625v19.188c0 0.50364 0.40261 0.90625 0.90625 0.90625h18.188c0.50364 0 0.90625-0.40261 0.90625-0.90625v-19.188c0-0.50364-0.40261-0.90625-0.90625-0.90625z" color="#000000" fill="#421300" fill-opacity=".16369"/>
<rect x="10" y="11" width="20" height="20" rx=".90909" ry=".90909" color="#000000" fill="#c1a7b2"/>
<rect x="10" y="12" width="20" height="20" rx=".90909" ry=".90909" color="#000000" fill="#d2e2de"/>
<path d="m10.908 12c-0.50364 0-0.9082 0.40457-0.9082 0.9082v18.184c0 0.38254 0.23517 0.70524 0.56836 0.83984-0.04261-0.10547-0.06836-0.21875-0.06836-0.33984v-18.184c0-0.50364 0.40457-0.9082 0.9082-0.9082h18.184c0.12109 0 0.23437 0.02575 0.33984 0.06836-0.1346-0.33319-0.4573-0.56836-0.83984-0.56836z" color="#000000" fill="#fff"/>
</g>
<use transform="translate(24)" width="1" height="1" xlink:href="#a"/>
<use transform="translate(1.6362e-8,24)" width="64" height="64" xlink:href="#a"/>
<text x="13.495557" y="26" fill="#3f3b4a" font-family="'Open Sans'" font-weight="bold" letter-spacing="0px" word-spacing="0px" style="line-height:0%" xml:space="preserve"><tspan x="13.495557" y="26" fill="#3f3b4a" font-size="11.199px" style="line-height:1.25">13</tspan></text>
<text x="37.152767" y="26" fill="#3f3b4a" font-family="'Open Sans'" font-weight="bold" letter-spacing="0px" word-spacing="0px" style="line-height:0%" xml:space="preserve"><tspan x="37.152767" y="26" fill="#3f3b4a" font-size="11.199px" style="line-height:1.25">14</tspan></text>
<text x="13.367054" y="49.997265" fill="#3f3b4a" font-family="'Open Sans'" font-weight="bold" letter-spacing="0px" word-spacing="0px" style="line-height:0%" xml:space="preserve"><tspan x="13.367054" y="49.997265" fill="#3f3b4a" font-size="11.199px" style="line-height:1.25">15</tspan></text>
</g>
</g>
<path d="m9.8251 4.7295c-3.1166 0-5.668 2.5395-5.668 5.646v69.278c0 3.1065 2.5513 5.646 5.668 5.646h76.792c3.1166 0 5.668-2.5395 5.668-5.646v-69.278c0-3.1065-2.5513-5.646-5.668-5.646zm0 2.3194h76.792c1.8881 0 3.352 1.4801 3.352 3.3266v69.278c0 1.8465-1.4639 3.3266-3.352 3.3266h-76.792c-1.8881 0-3.352-1.4801-3.352-3.3266v-69.278c0-1.8465 1.4639-3.3266 3.352-3.3266z" color="#000000" fill="#202223" fill-opacity=".93689" style="text-decoration-line:none;text-indent:0;text-transform:none"/>
<rect transform="matrix(1.0692 0 0 1.0477 4.2952 38.479)" x="2" y="-30" width="75.966" height="69.024" rx="3.957" ry="3.957" clip-path="url(#clipPath4156-4-1)" fill="url(#linearGradient4767)" opacity=".443"/>
<rect x="5.375" y="80.25" width="84.25" height="4.25" rx="0" ry="4.25" fill="url(#radialGradient7462)" opacity=".55"/>
<rect transform="rotate(90)" x="5.56" y="-90.085" width="76.75" height="4.25" rx="0" ry="4.25" fill="url(#radialGradient7464)" opacity=".669"/>
</svg>
