<?xml version="1.0" encoding="UTF-8"?>
<!-- Created with Inkscape (http://www.inkscape.org/) -->
<svg version="1.1" viewBox="0 0 96 96" xmlns="http://www.w3.org/2000/svg" xmlns:cc="http://creativecommons.org/ns#" xmlns:dc="http://purl.org/dc/elements/1.1/" xmlns:rdf="http://www.w3.org/1999/02/22-rdf-syntax-ns#" xmlns:xlink="http://www.w3.org/1999/xlink">
<defs>
<linearGradient id="linearGradient4133">
<stop stop-color="#fff" offset="0"/>
<stop stop-color="#fff" stop-opacity="0" offset="1"/>
</linearGradient>
<radialGradient id="radialGradient4143" cx="13.948" cy="44.893" r="43.199" gradientTransform="matrix(.88394 0 0 .049022 -10.686 -57.023)" gradientUnits="userSpaceOnUse" xlink:href="#linearGradient4133"/>
<linearGradient id="linearGradient4594" x1="45.448" x2="45.448" y1="92.54" y2="7.0165" gradientTransform="matrix(1.0059 0 0 .99417 97.5 0)" gradientUnits="userSpaceOnUse">
<stop offset="0"/>
<stop stop-opacity=".58824" offset="1"/>
</linearGradient>
<linearGradient id="linearGradient4587" x1="48" x2="48" y1="20.221" y2="138.66" gradientUnits="userSpaceOnUse">
<stop stop-color="#fff" offset="0"/>
<stop stop-color="#fff" stop-opacity="0" offset="1"/>
</linearGradient>
<filter id="filter3174-4" color-interpolation-filters="sRGB">
<feGaussianBlur stdDeviation="1.71"/>
</filter>
<filter id="filter3794-3" x="-.192" y="-.192" width="1.384" height="1.384" color-interpolation-filters="sRGB">
<feGaussianBlur stdDeviation="5.28"/>
</filter>
<clipPath id="clipPath3613">
<rect x="6" y="6" width="84" height="84" rx="6" ry="6" fill="#fff"/>
</clipPath>
<linearGradient id="linearGradient4071-3" x1="6" x2="90" y1="47" y2="47" gradientTransform="matrix(1.1033 0 0 1.1017 -25.821 -55.78)" gradientUnits="userSpaceOnUse">
<stop stop-color="#b2babc" offset="0"/>
<stop stop-color="#fff" offset=".25"/>
<stop stop-color="#96a1a4" offset=".5"/>
<stop stop-color="#fbf9f9" offset=".75"/>
<stop stop-color="#b2b9bc" offset="1"/>
</linearGradient>
<linearGradient id="linearGradient4129" x1="1.5" x2="94.5" y1="88.172" y2="88.172" gradientTransform="matrix(.99657 0 0 .99507 -20.696 -51.764)" gradientUnits="userSpaceOnUse">
<stop offset="0"/>
<stop stop-opacity=".58824" offset=".1"/>
<stop stop-opacity=".58824" offset=".9"/>
<stop offset="1"/>
</linearGradient>
<radialGradient id="radialGradient7462" cx="13.948" cy="44.893" r="43.199" gradientTransform="matrix(.97179 0 0 .048948 13.087 28.007)" gradientUnits="userSpaceOnUse" xlink:href="#linearGradient4133"/>
<radialGradient id="radialGradient7464" cx="13.948" cy="44.893" r="43.199" gradientTransform="matrix(.88394 0 0 .049022 -20.375 -69.163)" gradientUnits="userSpaceOnUse" xlink:href="#linearGradient4133"/>
<linearGradient id="linearGradient4767" x1="2.7714" x2="50.528" y1="-28.642" y2="14.514" gradientTransform="translate(11.899 -10.067)" gradientUnits="userSpaceOnUse" xlink:href="#linearGradient4133"/>
<clipPath id="clipPath4156-4-1">
<path d="m27.046-55.695-14.214 13.321h0.06127l15.653 21.771 10.231-10.546c-0.2169-1.1522-11.311-23.67-11.732-24.546zm-17.399 16.313-14.888 14.062 21.229 17.515 10.385-10.577zm31.491 12.951-9.7413 9.7136 8.9448 12.458 7.7808-7.555zm-49.84 4.3788-13.754 12.982 26.283 13.846 0.06127-0.0617-0.12253-0.0617 9.8332-10.053-22.301-16.652zm38.015 7.4008-9.8025 9.7753 11.579 9.5594 7.6276-7.4008-8.6691-11.009zm20.187 5.674-7.3825 7.2158 6.1878 8.5418 5.8202-6.1365zm-32.195 6.3215-9.5575 9.4977 13.662 7.185 7.9339-7.6784zm23.312 2.3744-7.1068 6.9383 8.3628 6.9074 5.3608-5.674-0.06127-0.0925-0.0919 0.12335-6.4635-8.2026zm-8.7304 8.5418-7.5051 7.3392 10.354 5.4581c1.3975-1.321 5.6751-6.1229 5.8509-6.3215z" fill="#fff" opacity=".6"/>
</clipPath>
</defs>
<metadata>
<rdf:RDF>
<cc:Work rdf:about="">
<dc:format>image/svg+xml</dc:format>
<dc:type rdf:resource="http://purl.org/dc/dcmitype/StillImage"/>
<dc:title/>
</cc:Work>
</rdf:RDF>
</metadata>
<g transform="translate(0,80)">
<g transform="matrix(1.0034 0 0 1.005 33.489 -38.527)">
<path d="m55.463-41.269h-82.003c-3.7858 0-6.8336 3.0432-6.8336 6.8233v81.88c0 3.7801 3.0478 6.8233 6.8336 6.8233h82.003c3.7858 0 6.8336-3.0432 6.8336-6.8233v-81.88c0-3.7801-3.0478-6.8233-6.8336-6.8233z" opacity=".15"/>
<path d="m54.822-40.522h-80.722c-3.7267 0-6.7268 2.9956-6.7268 6.7167v80.6c0 3.721 3.0002 6.7167 6.7268 6.7167h80.722c3.7267 0 6.7268-2.9956 6.7268-6.7167v-80.6c0-3.721-3.0002-6.7167-6.7268-6.7167z" opacity=".15"/>
<path d="m54.181-39.776h-79.441c-3.6675 0-6.6201 2.9481-6.6201 6.6101v79.321c0 3.662 2.9525 6.6101 6.6201 6.6101h79.441c3.6675 0 6.6201-2.9481 6.6201-6.6101v-79.321c0-3.662-2.9525-6.6101-6.6201-6.6101z" fill="url(#linearGradient4071-3)"/>
<path d="m-22.172-34.913c-2.8467 0-5.1065 2.2771-5.1065 5.1455v68.242c1.0935 1.6762 2.9587 2.7979 5.1065 2.7979h73.534c2.1479 0 4.0131-1.1217 5.1065-2.7979v-68.242c0-2.8684-2.2598-5.1455-5.1065-5.1455z" fill="#e8e8e8" opacity=".9"/>
<g transform="translate(-2.0479 -29.065)">
<path d="m-21.536-5.1899c-1.8816 0-3.3401 1.4724-3.3401 3.3098v5.8402h31.489v-9.1499z" fill="#d35f5f"/>
<path d="m11.215-5.1899v9.1499h37.938v-9.1499z" fill="#e37860"/>
<path d="m54.059-5.1899v9.1499h4.2743v-5.8402c0-1.8374-1.4584-3.3098-3.3401-3.3098z" fill="#d35f5f"/>
<path d="m31.857 7.2426v16.156h26.477v-16.156z" fill="#9e3838"/>
<rect transform="scale(-1,1)" x="-27.285" y="7.2423" width="37.939" height="16.156" fill="#6d2929"/>
<path d="m-24.876 7.2426v16.156h9.3156v-16.156z" fill="#b54a4a"/>
<path d="m-24.876 27.138v16.156h31.489v-16.156z" fill="#e37860"/>
<rect x="11.214" y="27.138" width="37.939" height="16.156" fill="#d35f5f"/>
<path d="m54.059 27.138v16.156h4.2743v-16.156z" fill="#d35f5f"/>
<path d="m31.857 46.577v16.156h26.477v-16.156z" fill="#f37f65"/>
<rect transform="scale(-1,1)" x="-27.285" y="46.577" width="37.939" height="16.156" fill="#af3030"/>
<path d="m-24.876 46.577v16.156h9.3156v-16.156z" fill="#dd5151"/>
<path d="m-24.866 67.158c0.05371 1.7888 1.4843 3.2087 3.3303 3.2087h28.149v-3.2087z" fill="#f37f65"/>
<path d="m11.215 67.158v3.2087h37.938v-3.2087z" fill="#dd5151"/>
<path d="m54.059 67.158v3.2087h0.93428c1.8461 0 3.2766-1.4199 3.3303-3.2087z" fill="#e37860"/>
</g>
<path d="m-23.583-36.562c-3.1059 0-5.6485 2.527-5.6485 5.6181v68.936c0 3.0912 2.5426 5.6181 5.6485 5.6181h76.528c3.1059 0 5.6485-2.527 5.6485-5.6181v-68.936c0-3.0912-2.5426-5.6181-5.6485-5.6181zm0 2.308h76.528c1.8816 0 3.3405 1.4728 3.3405 3.3102v68.936c0 1.8374-1.4589 3.3101-3.3405 3.3101h-76.528c-1.8816 0-3.3405-1.4728-3.3405-3.3101v-68.936c0-1.8374 1.4589-3.3102 3.3405-3.3102z" color="#000000" fill-opacity=".78899" style="text-decoration-line:none;text-indent:0;text-transform:none"/>
<path d="m-31.88 40.171v5.9704c0 3.662 2.9659 6.6234 6.6334 6.6234h79.414c3.6675 0 6.6334-2.9614 6.6334-6.6234v-5.9704c0 3.662-2.9659 6.6234-6.6334 6.6234h-79.414c-3.6675 0-6.6334-2.9614-6.6334-6.6234z" fill="url(#linearGradient4129)" opacity=".65818"/>
<rect x="-28.018" y="38.585" width="83.961" height="4.229" rx="4.2354" ry="4.229" fill="url(#radialGradient7462)" opacity=".55"/>
<rect transform="rotate(90)" x="-35.736" y="-56.401" width="76.371" height="4.2354" rx="4.229" ry="4.2354" fill="url(#radialGradient7464)" opacity=".669"/>
<rect transform="matrix(1.0656 0 0 1.0425 -29.094 -2.9795)" x="2" y="-30" width="75.966" height="69.024" rx="3.957" ry="3.957" clip-path="url(#clipPath4156-4-1)" fill="url(#linearGradient4767)" opacity=".65"/>
<rect transform="matrix(.99657 0 0 .99507 -33.374 -41.269)" x="102.5" y="7" width="86" height="85" rx="6" ry="6" display="none" fill="url(#linearGradient4594)" filter="url(#filter3174-4)" opacity=".9"/>
<rect transform="matrix(.99657 0 0 .99507 63.791 -41.269)" x="15" y="15" width="66" height="66" rx="12" ry="12" clip-path="url(#clipPath3613)" display="none" fill="url(#linearGradient4587)" filter="url(#filter3794-3)" opacity=".1" stroke="#fff" stroke-linecap="round" stroke-width=".5"/>
<rect transform="rotate(90)" x="-29.825" y="-174.05" width="76.371" height="4.2354" rx="4.2354" ry="4.2354" fill="url(#radialGradient4143)" opacity=".55"/>
</g>
</g>
</svg>
