<?xml version="1.0" encoding="UTF-8"?>
<!-- Created with Inkscape (http://www.inkscape.org/) -->
<svg version="1.1" viewBox="0 0 96 96" xmlns="http://www.w3.org/2000/svg" xmlns:cc="http://creativecommons.org/ns#" xmlns:dc="http://purl.org/dc/elements/1.1/" xmlns:rdf="http://www.w3.org/1999/02/22-rdf-syntax-ns#" xmlns:xlink="http://www.w3.org/1999/xlink">
<defs>
<linearGradient id="linearGradient4071" x1="6" x2="90" y1="47" y2="47" gradientTransform="matrix(1.1071 0 0 1.1071 -5.1429 -4.0357)" gradientUnits="userSpaceOnUse">
<stop stop-color="#b2babc" offset="0"/>
<stop stop-color="#fff" offset=".25"/>
<stop stop-color="#96a1a4" offset=".5"/>
<stop stop-color="#fbf9f9" offset=".75"/>
<stop stop-color="#b2b9bc" offset="1"/>
</linearGradient>
<linearGradient id="linearGradient4129" x1="1.5" x2="94.5" y1="88.172" y2="88.172" gradientTransform="translate(-2.95e-6,2.6e-5)" gradientUnits="userSpaceOnUse">
<stop offset="0"/>
<stop stop-opacity=".58824" offset=".1"/>
<stop stop-opacity=".58824" offset=".9"/>
<stop offset="1"/>
</linearGradient>
<radialGradient id="radialGradient7462" cx="13.948" cy="44.893" r="43.199" gradientTransform="matrix(.97513 0 0 .049191 33.899 80.167)" gradientUnits="userSpaceOnUse" xlink:href="#linearGradient3737"/>
<linearGradient id="linearGradient3737">
<stop stop-color="#fff" offset="0"/>
<stop stop-color="#fff" stop-opacity="0" offset="1"/>
</linearGradient>
<radialGradient id="radialGradient7496" cx="13.948" cy="44.893" r="43.199" gradientTransform="matrix(.88833 0 0 .049191 31.545 -90.168)" gradientUnits="userSpaceOnUse" xlink:href="#linearGradient3737"/>
<linearGradient id="linearGradient4767" x1="2.7714" x2="50.528" y1="-28.962" y2="14.514" gradientUnits="userSpaceOnUse" xlink:href="#linearGradient3737"/>
<clipPath id="clipPath4156-4-1">
<path d="m27.046-55.695-14.214 13.321h0.06127l15.653 21.771 10.231-10.546c-0.2169-1.1522-11.311-23.67-11.732-24.546zm-17.079 16.313-15.208 14.062 21.229 17.515 10.385-10.577zm31.491 12.951-9.7413 9.7136 8.9448 12.458 7.7808-7.555zm-49.84 4.3788-13.754 12.982 26.283 13.846 0.06127-0.0617-0.12253-0.0617 9.5132-10.053-22.301-16.652zm38.015 7.4008-9.8025 9.7753 11.579 9.5594 7.6276-7.4008-8.6691-11.009zm20.187 5.674-7.3825 7.2158 6.1878 8.5418 5.8202-6.1365zm-32.195 6.3215-9.5575 9.4977 13.662 7.185 7.9339-7.6784zm23.312 2.3744-7.1068 6.9383 8.3628 6.9074 5.3608-5.674-0.06127-0.0925-0.0919 0.12335-6.4635-8.2026zm-8.7304 8.5418-7.5051 7.3392 10.354 5.4581c1.3975-1.321 5.6751-6.1229 5.8509-6.3215z" fill="#fff" opacity=".6"/>
</clipPath>
</defs>
<metadata>
<rdf:RDF>
<cc:Work rdf:about="">
<dc:format>image/svg+xml</dc:format>
<dc:type rdf:resource="http://purl.org/dc/dcmitype/StillImage"/>
<dc:title/>
</cc:Work>
</rdf:RDF>
</metadata>
<path d="m89.143 2.6e-5h-82.286c-3.7988 0-6.8571 3.0583-6.8571 6.8571v82.286c0 3.7989 3.0583 6.8571 6.8571 6.8571h82.286c3.7989 0 6.8571-3.0583 6.8571-6.8571v-82.286c0-3.7989-3.0583-6.8571-6.8571-6.8571z" opacity=".15"/>
<path d="m88.82 0.75003h-81c-3.7395 0-6.75 3.0105-6.75 6.75v81c0 3.7395 3.0105 6.75 6.75 6.75h81c3.7395 0 6.75-3.0105 6.75-6.75v-81c0-3.7395-3.0105-6.75-6.75-6.75z" opacity=".15"/>
<path d="m87.857 1.5h-79.714c-3.6801 0-6.9629 2.9627-6.9629 6.9629v79.394c0 3.6801 2.9627 6.9629 6.9629 6.9629h79.714c3.6801 0 6.9629-2.9627 6.9629-6.9629v-79.714c0-3.6801-2.9627-6.9629-6.9629-6.9629z" fill="url(#linearGradient4071)"/>
<path d="m11.241 6.3872c-2.8597 0-5.1241 2.2884-5.1241 5.171v68.58c1.0972 1.6845 2.9688 2.8117 5.1241 2.8117h69.688l6.4601-0.26231c2.1535-0.08744 1.6661-0.86494 2.7634-2.5494v-68.58c0-2.8826-2.2676-5.171-5.1241-5.171z" fill="#45a129" opacity=".99"/>
<path d="m9.8251 4.7295c-3.1166 0-5.668 2.5395-5.668 5.966v69.278c0 3.1097 2.5513 5.966 5.668 5.966h76.792c3.1166 0 5.668-2.5395 5.668-5.966v-69.598c0-3.1097-2.5513-5.966-5.668-5.966zm0 2.3194h76.792c1.8881 0 3.352 1.4801 3.352 3.3266v69.278c0 1.8497-1.4639 3.3266-3.352 3.3266h-76.792c-1.8881 0-3.352-1.4801-3.352-3.3266v-69.278c0-1.8497 1.4639-3.3266 3.352-3.3266z" color="#000000" fill="#414548" fill-opacity=".79464" style="text-decoration-line:none;text-indent:0;text-transform:none"/>
<path d="m1.82 81.844v6c0 3.6801 2.9761 6.6562 6.6562 6.6562h79.368c3.6801 0 6.6563-2.9761 6.6563-6.6562v-6c0 3.6801-2.9761 6.6562-6.6563 6.6562h-79.688c-3.6801 0-6.6562-2.9761-6.6562-6.6562z" fill="url(#linearGradient4129)" opacity=".65818"/>
<rect x="5.375" y="80.25" width="84.25" height="4.25" rx="0" ry="4.25" fill="url(#radialGradient7462)" opacity=".55"/>
<rect transform="rotate(90)" x="5.56" y="-90.085" width="76.75" height="4.25" rx="0" ry="4.25" fill="url(#radialGradient7496)" opacity=".669"/>
<path d="m47.991 11.916c-12.939-0.17419-25.402 8.1564-30.312 20.107-5.1291 11.742-2.4607 26.328 6.5058 35.485 8.6228 9.2822 22.83 12.695 34.729 8.3489 12.47-4.2445 21.627-16.581 21.955-29.769 0.66517-12.812-7.0294-25.484-18.625-30.923-4.4252-2.1417-9.3369-3.2557-14.252-3.2492zm0 4.874c12.209-0.21968 23.818 8.5522 26.967 20.344 3.4645 11.557-1.5718 24.955-11.847 31.303-10.475 6.9393-25.518 5.5113-34.469-3.3204-9.2529-8.5158-11.393-23.467-4.9718-34.264 4.8469-8.5998 14.443-14.166 24.321-14.063zm-1.1935 10.451c-3.3347 0.15071-6.8208-0.10987-10.038 0.8577-1.1059 0.91745-0.35537 2.5867-0.57533 3.8253 0.04695 9.8192-0.12182 19.655 0.14252 29.462 0.74375 1.5505 2.9169 0.54633 4.2091 0.85657 1.5471-0.15112 3.2211 0.25217 4.6928-0.25612 1.0159-0.9507 0.32016-2.5574 0.53803-3.7845 0.02043-2.5149 0.01281-5.0305 0.09015-7.5445 4.9453 0.21238 10.552-0.60354 13.833-4.7172 2.5941-3.2193 2.9353-7.8875 1.6223-11.694-1.7686-4.7577-7.0261-6.8971-11.79-6.9332-0.90694-0.05301-1.8156-0.07188-2.724-0.0716zm0.01509 2.4379c4.2492-0.04883 9.489 0.32744 11.749 4.5481 1.5641 2.8734 1.3219 6.6711-0.22974 9.5029-2.6673 4.2539-8.1953 4.625-12.718 4.5381-1.5131-0.42378-2.5007 1.1194-2.2006 2.444-0.07782 3.0216-0.06656 6.0446-0.09257 9.0669-1.3868-0.36663-4.495 0.98882-4.6547-0.65145-0.06745-9.6684-0.03698-19.337-0.04396-29.006 2.7126-0.35596 5.4575-0.42144 8.1907-0.44309zm0.73723 2.6604c-2.6357-0.48077-5.4266 1.0016-4.5524 4.0716 0.04065 2.6462-0.2389 5.3534 0.25547 7.9617 2.4241 2.2658 6.9928 1.1408 9.4468-0.74375 3.7965-3.0507 2.3481-10.249-2.6805-11.004-0.80738-0.19687-1.6385-0.29221-2.4693-0.28543zm-0.0075 2.4379c3.3341-0.52581 6.2064 3.0008 4.3404 6.0845-1.1195 2.1347-7.2107 3.8566-6.4627 0.2327 0.51792-2.1555-1.525-7.0507 2.1222-6.3171zm-1.6517 15.176c7e-3 -0.0025-5e-3 0.01519 0 0z" color="#000000" color-rendering="auto" dominant-baseline="auto" fill="#041008" fill-opacity=".16071" image-rendering="auto" opacity=".985" shape-rendering="auto" solid-color="#000000" style="font-feature-settings:normal;font-variant-alternates:normal;font-variant-caps:normal;font-variant-ligatures:normal;font-variant-numeric:normal;font-variant-position:normal;isolation:auto;mix-blend-mode:normal;paint-order:normal;shape-padding:0;text-decoration-color:#000000;text-decoration-line:none;text-decoration-style:solid;text-indent:0;text-orientation:mixed;text-transform:none;white-space:normal"/>
<path d="m96 4-2-2 2-1z" fill="#a5cf5a"/>
<path d="m48 13.136c-17.484 0-31.683 14.2-31.683 31.683 0 17.484 14.2 31.683 31.683 31.683s31.683-14.2 31.683-31.683-14.2-31.683-31.683-31.683zm0 2.4372c16.167 0 29.246 13.08 29.246 29.246 0 16.167-13.08 29.246-29.246 29.246-16.167 0-29.246-13.08-29.246-29.246 0-16.167 13.08-29.246 29.246-29.246zm-1.5724 12.893c-1.8194 1.89e-4 -3.8483 0.08123-5.5288 0.20216-0.83973 0.06047-1.5903 0.131-2.1837 0.20619-0.59285 0.07513-1.0417 0.16293-1.2009 0.22215l-0.10208 0.03804v15.915c0 4.432 0.01012 8.4692 0.02602 11.405 0.0079 1.4684 0.01761 2.6614 0.02801 3.4888 0.0052 0.41371 0.01243 0.73591 0.01802 0.95477 0.0012 0.04241 0.0028 0.05971 0.0039 0.09408 0.02161 0.0012 0.02944 0.0024 0.05403 0.0037 0.18608 0.0085 0.45734 0.01718 1.1766 0.02206 0.65865 0.0097 1.5598 0.01097 2.5383 0.0024l3.2829-0.03205 0.03402-5.4678c0.0092-1.5817 0.02496-3.0185 0.04804-4.0628 0.01158-0.52217 0.02495-0.94709 0.03804-1.243 0.0066-0.14794 0.01282-0.26175 0.02392-0.34632 0.0037-0.04228 0.0084-0.0758 0.01402-0.11004 0.0028-0.01718 0.0039-0.03498 0.01402-0.06605 0.0026-0.01218 0.0051-0.01669 0.01-0.02802 5e-3 -0.01097 0.02361-0.04143 0.02402-0.04204 4.06e-4 -6.22e-4 0.06564-0.07178 0.06605-0.07202 2.04e-4 -1.58e-4 0.06984-0.04192 0.07006-0.04204 2.01e-4 -7.4e-5 0.10588-0.01803 0.10609-0.01803 3.5071-0.0013 5.5483-0.11552 6.6767-0.35632 4.8975-1.0443 7.7673-3.4925 8.8555-7.5017 0.3434-1.2661 0.37642-4.6209 0.07006-5.7591-0.55239-2.0509-1.9753-4.1103-3.5644-5.19-2.3775-1.6147-5.1084-2.2228-10.205-2.2215zm1.1268 5.0937c0.41274 0.0013 0.80037 0.01853 1.1189 0.05801 1.5001 0.18632 2.6712 0.64318 3.5047 1.4136 0.83327 0.76991 1.3051 1.8437 1.4392 3.1805 0.10412 1.0419-0.17365 2.4116-0.67449 3.2671-0.71227 1.2154-2.0216 2.1301-3.607 2.5615-0.40591 0.11065-1.1952 0.18047-2.0253 0.22422-0.83047 0.04362-1.6512 0.05593-2.0911-0.0061-0.14075-0.01974-0.28235-0.05349-0.40835-0.09408-0.126-0.04058-0.22642-0.07129-0.33828-0.16414-0.10993-0.09128-0.09699-0.13709-0.11009-0.18011-0.0131-0.04302-0.0222-0.08359-0.03042-0.13014-0.01562-0.09297-0.02844-0.20606-0.04003-0.34632-0.02317-0.2804-0.04144-0.66267-0.05604-1.1128-0.0292-0.9003-0.04198-2.0777-0.04003-3.2561 0.0019-1.1784 0.01787-2.3555 0.05004-3.2561 0.01608-0.45015 0.03596-0.83242 0.06004-1.1128 0.01207-0.14026 0.02611-0.25335 0.04204-0.34632 8e-3 -0.04642 0.01682-0.0892 0.03042-0.1321 0.01321-0.04302 6.65e-4 -0.08738 0.11009-0.17816 0.15732-0.13063 0.29746-0.14745 0.4984-0.1901 0.23994-0.04278 0.44808-0.08042 0.72458-0.11004 0.55288-0.05934 1.2247-0.09054 1.8437-0.0881z" color="#000000" color-rendering="auto" dominant-baseline="auto" fill="#def7e7" image-rendering="auto" opacity=".985" shape-rendering="auto" solid-color="#000000" style="font-feature-settings:normal;font-variant-alternates:normal;font-variant-caps:normal;font-variant-ligatures:normal;font-variant-numeric:normal;font-variant-position:normal;isolation:auto;mix-blend-mode:normal;paint-order:normal;shape-padding:0;text-decoration-color:#000000;text-decoration-line:none;text-decoration-style:solid;text-indent:0;text-orientation:mixed;text-transform:none;white-space:normal"/>
<rect transform="matrix(1.0692 0 0 1.0477 4.2952 38.479)" x="2" y="-30" width="75.966" height="69.024" rx="3.957" ry="3.957" clip-path="url(#clipPath4156-4-1)" fill="url(#linearGradient4767)" opacity=".65"/>
</svg>
