<?xml version="1.0" encoding="UTF-8"?>
<!-- Created with Inkscape (http://www.inkscape.org/) -->
<svg version="1.1" viewBox="0 0 96 96" xmlns="http://www.w3.org/2000/svg" xmlns:cc="http://creativecommons.org/ns#" xmlns:dc="http://purl.org/dc/elements/1.1/" xmlns:rdf="http://www.w3.org/1999/02/22-rdf-syntax-ns#" xmlns:xlink="http://www.w3.org/1999/xlink">
<defs>
<linearGradient id="linearGradient4071" x1="6" x2="90" y1="47" y2="47" gradientTransform="matrix(1.1071 0 0 1.1071 -5.1429 -4.0357)" gradientUnits="userSpaceOnUse">
<stop stop-color="#b2babc" offset="0"/>
<stop stop-color="#fff" offset=".25"/>
<stop stop-color="#96a1a4" offset=".5"/>
<stop stop-color="#fbf9f9" offset=".75"/>
<stop stop-color="#b2b9bc" offset="1"/>
</linearGradient>
<linearGradient id="linearGradient4129" x1="1.5" x2="94.5" y1="88.172" y2="88.172" gradientTransform="translate(-2.95e-6,2.6e-5)" gradientUnits="userSpaceOnUse">
<stop offset="0"/>
<stop stop-opacity=".58824" offset=".1"/>
<stop stop-opacity=".58824" offset=".9"/>
<stop offset="1"/>
</linearGradient>
<radialGradient id="radialGradient7462" cx="13.948" cy="44.893" r="43.199" gradientTransform="matrix(.97513 0 0 .049191 33.899 80.167)" gradientUnits="userSpaceOnUse" xlink:href="#linearGradient3737"/>
<linearGradient id="linearGradient3737">
<stop stop-color="#fff" offset="0"/>
<stop stop-color="#fff" stop-opacity="0" offset="1"/>
</linearGradient>
<radialGradient id="radialGradient7464" cx="13.948" cy="44.893" r="43.199" gradientTransform="matrix(.88833 0 0 .049191 31.545 -90.168)" gradientUnits="userSpaceOnUse" xlink:href="#linearGradient3737"/>
<linearGradient id="linearGradient4767" x1="2.7714" x2="50.528" y1="-28.642" y2="14.514" gradientUnits="userSpaceOnUse" xlink:href="#linearGradient3737"/>
<clipPath id="clipPath4156-4-1">
<path d="m27.046-55.695-14.214 13.321h0.06127l15.653 21.771 10.231-10.546c-0.2169-1.1522-11.311-23.67-11.732-24.546zm-17.399 16.313-14.888 14.062 21.229 17.515 10.385-10.577zm31.491 12.951-9.7413 9.7136 8.9448 12.458 7.7808-7.555zm-49.84 4.3788-13.754 12.982 26.283 13.846 0.06127-0.0617-0.12253-0.0617 9.8332-10.053-22.301-16.652zm38.015 7.4008-9.8025 9.7753 11.579 9.5594 7.6276-7.4008-8.6691-11.009zm20.187 5.674-7.3825 7.2158 6.1878 8.5418 5.8202-6.1365zm-32.195 6.3215-9.5575 9.4977 13.662 7.185 7.9339-7.6784zm23.312 2.3744-7.1068 6.9383 8.3628 6.9074 5.3608-5.674-0.06127-0.0925-0.0919 0.12335-6.4635-8.2026zm-8.7304 8.5418-7.5051 7.3392 10.354 5.4581c1.3975-1.321 5.6751-6.1229 5.8509-6.3215z" fill="#fff" opacity=".6"/>
</clipPath>
</defs>
<metadata>
<rdf:RDF>
<cc:Work rdf:about="">
<dc:format>image/svg+xml</dc:format>
<dc:type rdf:resource="http://purl.org/dc/dcmitype/StillImage"/>
<dc:title/>
</cc:Work>
</rdf:RDF>
</metadata>
<g transform="translate(-2.25e-7,-2.6e-5)">
<g transform="translate(-.77564 30.974)"></g>
<path d="m89.143 2.6e-5h-82.286c-3.7988 0-6.8571 3.0583-6.8571 6.8571v82.286c0 3.7989 3.0583 6.8571 6.8571 6.8571h82.286c3.7989 0 6.8571-3.0583 6.8571-6.8571v-82.286c0-3.7989-3.0583-6.8571-6.8571-6.8571z" opacity=".15"/>
<path d="m88.5 0.75003h-81c-3.7395 0-6.75 3.0105-6.75 6.75v81c0 3.7395 3.0105 6.75 6.75 6.75h81c3.7395 0 6.75-3.0105 6.75-6.75v-81c0-3.7395-3.0105-6.75-6.75-6.75z" opacity=".15"/>
<path d="m87.857 1.5h-79.714c-3.6801 0-6.6429 2.9627-6.6429 6.6429v79.714c0 3.6801 2.9627 6.6429 6.6429 6.6429h79.714c3.6801 0 6.6429-2.9627 6.6429-6.6429v-79.714c0-3.6801-2.9627-6.6429-6.6429-6.6429z" fill="url(#linearGradient4071)"/>
<path d="m11.241 6.3872c-2.8565 0-5.1241 2.2884-5.1241 5.171v68.58c1.0972 1.6845 1.5689 2.9889 3.7236 2.9391l5.4998-0.12732 71.573 1.1459c6.2913-2.9184 2.0302-1.8712 3.2393-3.9576v-47.153l-0.18399-22.61c-0.023457-2.8825-2.0836-3.9883-4.9401-3.9883z" fill="#5b7722" opacity=".96"/>
<path d="m19.218 7.8299c-1.2196 5.9e-6 -1.835 0.95499-1.835 2.8738 0 0.93387 0.18284 1.6821 0.49233 2.1771 0.30949 0.49245 0.7421 0.74021 1.3427 0.74021 1.2301 0 1.835-0.99597 1.835-2.9173-5e-6 -0.93131-0.13546-1.6411-0.44757-2.1335-0.30949-0.495-0.77899-0.7402-1.3875-0.74021zm29.003 0c-1.2196 5.9e-6 -1.835 0.95499-1.835 2.8738 0 0.93387 0.13808 1.6821 0.44757 2.1771 0.30949 0.49245 0.78685 0.74021 1.3875 0.74021 1.2301 0 1.835-0.99597 1.835-2.9173-5e-6 -0.93131-0.13546-1.6411-0.44757-2.1335-0.30949-0.495-0.77899-0.7402-1.3875-0.74021zm38.626 0c-1.2196 5.9e-6 -1.835 0.95499-1.835 2.8738 0 0.93387 0.18284 1.6821 0.49233 2.1771 0.30949 0.49245 0.7421 0.74021 1.3427 0.74021 1.2301 0 1.8798-0.99597 1.8798-2.9173-4e-6 -0.93131-0.18022-1.6411-0.49233-2.1335-0.30949-0.495-0.77899-0.7402-1.3875-0.74021zm-77.296 0.087084-1.5217 1.1756 0.40282 0.43542 0.58184-0.43542c0.21507-0.17861 0.34528-0.3257 0.44757-0.43542-0.020985 0.60983-2.3e-6 1.082 0 1.3933v3.4833h0.67136v-5.6169zm19.335 0-1.5217 1.1756 0.40282 0.43542 0.53709-0.43542c0.21507-0.17861 0.39004-0.3257 0.49233-0.43542-0.02101 0.60983-0.04476 1.082-0.04476 1.3933v3.4833h0.71612v-5.6169zm9.6676 0-1.5217 1.1756 0.35806 0.43542 0.58184-0.43542c0.21507-0.17861 0.39004-0.3257 0.49233-0.43542-0.02101 0.60983-0.04476 1.082-0.04476 1.3933v3.4833h0.71612v-5.6169zm19.29 0-1.477 1.1756 0.35806 0.43542 0.58184-0.43542c0.21507-0.17861 0.39004-0.3257 0.49233-0.43542-0.02103 0.60983-0.04476 1.082-0.04476 1.3933v3.4833h0.71612v-5.6169zm9.6676 0-1.477 1.1756 0.35806 0.43542 0.58184-0.43542c0.21507-0.17861 0.39004-0.3257 0.49233-0.43542-0.02103 0.60983-0.04476 1.082-0.04476 1.3933v3.4833h0.67136v-5.6169zm9.6676 0-1.5217 1.1756 0.40282 0.43542 0.58184-0.43542c0.21507-0.17861 0.39004-0.3257 0.49233-0.43542-0.02101 0.60983-0.04476 1.082-0.04476 1.3933v3.4833h0.67136v-5.6169zm-57.961 0.5225c0.38555 4.9e-6 0.66941 0.16274 0.85039 0.5225 0.18097 0.35722 0.26854 0.93793 0.26854 1.7417-3e-6 0.80884-0.08758 1.4254-0.26854 1.7852-0.18098 0.35722-0.46484 0.5225-0.85039 0.5225-0.38031 0-0.67204-0.16528-0.85039-0.5225-0.17572-0.35722-0.22379-0.97381-0.22379-1.7852 0-0.80884 0.04805-1.387 0.22379-1.7417 0.17835-0.35721 0.47008-0.52249 0.85039-0.5225zm29.003 0c0.38555 4.9e-6 0.66941 0.16274 0.85039 0.5225 0.18097 0.35722 0.26854 0.93793 0.26854 1.7417-4e-6 0.80884-0.08758 1.4254-0.26854 1.7852-0.18098 0.35722-0.46484 0.5225-0.85039 0.5225-0.38031 0-0.67204-0.16528-0.85039-0.5225-0.17572-0.35722-0.26854-0.97381-0.26854-1.7852 0-0.80884 0.09281-1.387 0.26854-1.7417 0.17835-0.35721 0.47008-0.52249 0.85039-0.5225zm38.626 0c0.38555 4.9e-6 0.66941 0.16274 0.85039 0.5225 0.18097 0.35722 0.26854 0.93793 0.26854 1.7417-5e-6 0.80884-0.08758 1.4254-0.26854 1.7852-0.18098 0.35722-0.46484 0.5225-0.85039 0.5225-0.38031 0-0.62728-0.16528-0.80563-0.5225-0.17572-0.35722-0.26854-0.97381-0.26854-1.7852-2e-6 -0.80884 0.09281-1.387 0.26854-1.7417 0.17835-0.35721 0.42532-0.52249 0.80563-0.5225zm-77.296 9.1873c-1.2196 5e-6 -1.835 0.95499-1.835 2.8738-6e-7 0.93387 0.18284 1.6821 0.49233 2.1771 0.30949 0.49245 0.7421 0.74021 1.3427 0.74021 1.2301 0 1.8798-0.99597 1.8798-2.9173-4e-6 -0.93131-0.18022-1.6411-0.49233-2.1335-0.30949-0.495-0.77899-0.7402-1.3875-0.74021zm19.335 0c-1.2196 5e-6 -1.835 0.95499-1.835 2.8738 0 0.93387 0.18284 1.6821 0.49233 2.1771 0.30949 0.49245 0.7421 0.74021 1.3427 0.74021 1.2301 0 1.835-0.99597 1.835-2.9173-4e-6 -0.93131-0.13546-1.6411-0.44757-2.1335-0.30949-0.495-0.77899-0.7402-1.3875-0.74021zm19.335 0c-1.2196 5e-6 -1.835 0.95499-1.835 2.8738 0 0.93387 0.13808 1.6821 0.44757 2.1771 0.30949 0.49245 0.78685 0.74021 1.3875 0.74021 1.2301 0 1.835-0.99597 1.835-2.9173-5e-6 -0.93131-0.13546-1.6411-0.44757-2.1335-0.30949-0.495-0.77899-0.7402-1.3875-0.74021zm28.958 0c-1.2196 5e-6 -1.7903 0.95499-1.7903 2.8738 0 0.93387 0.13808 1.6821 0.44757 2.1771 0.30949 0.49245 0.7421 0.74021 1.3427 0.74021 1.2301 0 1.8798-0.99597 1.8798-2.9173-3e-6 -0.93131-0.18022-1.6411-0.49233-2.1335-0.30949-0.495-0.77899-0.7402-1.3875-0.74021zm9.6676 0c-1.2196 5e-6 -1.835 0.95499-1.835 2.8738 0 0.93387 0.18284 1.6821 0.49233 2.1771 0.30949 0.49245 0.7421 0.74021 1.3427 0.74021 1.2301 0 1.8798-0.99597 1.8798-2.9173-4e-6 -0.93131-0.18022-1.6411-0.49233-2.1335-0.30949-0.495-0.77899-0.7402-1.3875-0.74021zm-67.628 0.08708-1.5217 1.1756 0.40282 0.43542 0.58184-0.43542c0.21507-0.17861 0.34528-0.32569 0.44757-0.43542-0.02102 0.60983-2e-6 1.082 0 1.3933v3.4833h0.67136v-5.6169zm19.335 0-1.5217 1.1756 0.35806 0.43542 0.58184-0.43542c0.21507-0.17861 0.39004-0.32569 0.49233-0.43542-0.02101 0.60983-0.04476 1.082-0.04476 1.3933v3.4833h0.71612v-5.6169zm19.29 0-1.477 1.1756 0.35806 0.43542 0.58184-0.43542c0.21507-0.17861 0.39004-0.32569 0.49233-0.43542-0.02103 0.60983-0.04476 1.082-0.04476 1.3933v3.4833h0.71612v-5.6169zm9.6676 0-1.477 1.1756 0.35806 0.43542 0.58184-0.43542c0.21507-0.17861 0.39004-0.32569 0.49233-0.43542-0.02103 0.60983-0.04476 1.082-0.04476 1.3933v3.4833h0.67136v-5.6169zm-57.961 0.5225c0.38555 4e-6 0.66941 0.16274 0.85039 0.5225 0.18097 0.35722 0.26854 0.93793 0.26854 1.7417-3e-6 0.80884-0.08758 1.4254-0.26854 1.7852-0.18098 0.35722-0.46484 0.5225-0.85039 0.5225-0.38031 1e-6 -0.62728-0.16528-0.80563-0.5225-0.17573-0.35722-0.26855-0.97382-0.26854-1.7852-1.4e-6 -0.80884 0.092816-1.387 0.26854-1.7417 0.17835-0.35721 0.42532-0.5225 0.80563-0.5225zm19.335 0c0.38555 4e-6 0.66941 0.16274 0.85039 0.5225 0.18097 0.35722 0.26854 0.93793 0.26854 1.7417-2e-6 0.80884-0.08758 1.4254-0.26854 1.7852-0.18098 0.35722-0.46484 0.5225-0.85039 0.5225-0.38031 1e-6 -0.67204-0.16528-0.85039-0.5225-0.17572-0.35722-0.26854-0.97382-0.26854-1.7852 0-0.80884 0.09282-1.387 0.26854-1.7417 0.17835-0.35721 0.47008-0.5225 0.85039-0.5225zm19.335 0c0.38555 4e-6 0.66941 0.16274 0.85039 0.5225 0.18097 0.35722 0.26854 0.93793 0.26854 1.7417-4e-6 0.80884-0.08758 1.4254-0.26854 1.7852-0.18098 0.35722-0.46484 0.5225-0.85039 0.5225-0.38031 1e-6 -0.67204-0.16528-0.85039-0.5225-0.17572-0.35722-0.26854-0.97382-0.26854-1.7852 0-0.80884 0.09281-1.387 0.26854-1.7417 0.17835-0.35721 0.47008-0.5225 0.85039-0.5225zm28.958 0c0.38555 4e-6 0.66941 0.16274 0.85039 0.5225 0.18097 0.35722 0.3133 0.93793 0.3133 1.7417-2e-6 0.80884-0.13234 1.4254-0.3133 1.7852-0.18098 0.35722-0.46484 0.5225-0.85039 0.5225-0.38031 1e-6 -0.62728-0.16528-0.80563-0.5225-0.17572-0.35722-0.26854-0.97382-0.26854-1.7852 0-0.80884 0.09282-1.387 0.26854-1.7417 0.17835-0.35721 0.42532-0.5225 0.80563-0.5225zm9.6676 0c0.38555 4e-6 0.66941 0.16274 0.85039 0.5225 0.18097 0.35722 0.26854 0.93793 0.26854 1.7417-5e-6 0.80884-0.08758 1.4254-0.26854 1.7852-0.18098 0.35722-0.46484 0.5225-0.85039 0.5225-0.38031 1e-6 -0.62728-0.16528-0.80563-0.5225-0.17572-0.35722-0.26854-0.97382-0.26854-1.7852-2e-6 -0.80884 0.09281-1.387 0.26854-1.7417 0.17835-0.35721 0.42532-0.5225 0.80563-0.5225zm-67.628 9.1873c-1.2196 5e-6 -1.835 0.95499-1.835 2.8738 0 0.93387 0.18284 1.6821 0.49233 2.1771 0.30949 0.49245 0.7421 0.74021 1.3427 0.74021 1.2301 0 1.835-0.99597 1.835-2.9173-5e-6 -0.93131-0.13546-1.6411-0.44757-2.1335-0.30949-0.495-0.77899-0.7402-1.3875-0.74021zm29.003 0c-1.2196 5e-6 -1.835 0.95499-1.835 2.8738 0 0.93387 0.13808 1.6821 0.44757 2.1771 0.30949 0.49245 0.78685 0.74021 1.3875 0.74021 1.2301 0 1.835-0.99597 1.835-2.9173-5e-6 -0.93131-0.13546-1.6411-0.44757-2.1335-0.30949-0.495-0.77899-0.7402-1.3875-0.74021zm9.6676 0c-1.2196 5e-6 -1.835 0.95499-1.835 2.8738 0 0.93387 0.13808 1.6821 0.44757 2.1771 0.30949 0.49245 0.78686 0.74021 1.3875 0.74021 1.2301 0 1.835-0.99597 1.835-2.9173-3e-6 -0.93131-0.18022-1.6411-0.49233-2.1335-0.30949-0.495-0.73424-0.7402-1.3427-0.74021zm19.29 0c-1.2196 5e-6 -1.7903 0.95499-1.7903 2.8738 0 0.93387 0.13808 1.6821 0.44757 2.1771 0.30949 0.49245 0.7421 0.74021 1.3427 0.74021 1.2301 0 1.8798-0.99597 1.8798-2.9173-3e-6 -0.93131-0.18022-1.6411-0.49233-2.1335-0.30949-0.495-0.77899-0.7402-1.3875-0.74021zm9.6676 0c-1.2196 5e-6 -1.835 0.95499-1.835 2.8738 0 0.93387 0.18284 1.6821 0.49233 2.1771 0.30949 0.49245 0.7421 0.74021 1.3427 0.74021 1.2301 0 1.8798-0.99597 1.8798-2.9173-4e-6 -0.93131-0.18022-1.6411-0.49233-2.1335-0.30949-0.495-0.77899-0.7402-1.3875-0.74021zm-77.296 0.08708-1.5217 1.1756 0.40282 0.43542 0.58184-0.43542c0.21507-0.17861 0.34528-0.32569 0.44757-0.43542-0.020989 0.60982-2.3e-6 1.082 0 1.3933v3.4833h0.67136v-5.6169zm19.335 0-1.5217 1.1756 0.40282 0.43542 0.53709-0.43542c0.21507-0.17861 0.39004-0.32569 0.49233-0.43542-0.02101 0.60982-0.04476 1.082-0.04476 1.3933v3.4833h0.71612v-5.6169zm9.6676 0-1.5217 1.1756 0.35806 0.43542 0.58184-0.43542c0.21507-0.17861 0.39004-0.32569 0.49233-0.43542-0.02101 0.60982-0.04476 1.082-0.04476 1.3933v3.4833h0.71612v-5.6169zm28.958 0-1.477 1.1756 0.35806 0.43542 0.58184-0.43542c0.21507-0.17861 0.39004-0.32569 0.49233-0.43542-0.02103 0.60982-0.04476 1.082-0.04476 1.3933v3.4833h0.67136v-5.6169zm-48.293 0.5225c0.38555 4e-6 0.66941 0.16274 0.85039 0.5225 0.18097 0.35722 0.26854 0.93793 0.26854 1.7417-3e-6 0.80885-0.08758 1.4254-0.26854 1.7852-0.18098 0.35722-0.46484 0.5225-0.85039 0.5225-0.38031 0-0.67204-0.16528-0.85039-0.5225-0.17572-0.35722-0.22379-0.97381-0.22379-1.7852 0-0.80884 0.04805-1.387 0.22379-1.7417 0.17835-0.35721 0.47008-0.5225 0.85039-0.5225zm29.003 0c0.38555 4e-6 0.66941 0.16274 0.85039 0.5225 0.18097 0.35722 0.26854 0.93793 0.26854 1.7417-4e-6 0.80885-0.08758 1.4254-0.26854 1.7852-0.18098 0.35722-0.46484 0.5225-0.85039 0.5225-0.38031 0-0.67204-0.16528-0.85039-0.5225-0.17572-0.35722-0.26854-0.97381-0.26854-1.7852 0-0.80884 0.09281-1.387 0.26854-1.7417 0.17835-0.35721 0.47008-0.5225 0.85039-0.5225zm9.6676 0c0.38555 4e-6 0.66941 0.16274 0.85039 0.5225 0.18097 0.35722 0.26854 0.93793 0.26854 1.7417-3e-6 0.80885-0.08758 1.4254-0.26854 1.7852-0.18098 0.35722-0.46484 0.5225-0.85039 0.5225-0.38031 0-0.67204-0.16528-0.85039-0.5225-0.17572-0.35722-0.26854-0.97381-0.26854-1.7852 0-0.80884 0.09281-1.387 0.26854-1.7417 0.17835-0.35721 0.47008-0.5225 0.85039-0.5225zm19.29 0c0.38555 4e-6 0.66941 0.16274 0.85039 0.5225 0.18097 0.35722 0.3133 0.93793 0.3133 1.7417-2e-6 0.80885-0.13234 1.4254-0.3133 1.7852-0.18098 0.35722-0.46484 0.5225-0.85039 0.5225-0.38031 0-0.62728-0.16528-0.80563-0.5225-0.17572-0.35722-0.26854-0.97381-0.26854-1.7852 0-0.80884 0.09282-1.387 0.26854-1.7417 0.17835-0.35721 0.42532-0.5225 0.80563-0.5225zm9.6676 0c0.38555 4e-6 0.66941 0.16274 0.85039 0.5225 0.18097 0.35722 0.26854 0.93793 0.26854 1.7417-5e-6 0.80885-0.08758 1.4254-0.26854 1.7852-0.18098 0.35722-0.46484 0.5225-0.85039 0.5225-0.38031 0-0.62728-0.16528-0.80563-0.5225-0.17572-0.35722-0.26854-0.97381-0.26854-1.7852-2e-6 -0.80884 0.09281-1.387 0.26854-1.7417 0.17835-0.35721 0.42532-0.5225 0.80563-0.5225zm-67.628 9.1873c-1.2196 5e-6 -1.835 0.95499-1.835 2.8738 0 0.93387 0.18284 1.6821 0.49233 2.1771 0.30949 0.49245 0.7421 0.74021 1.3427 0.74021 1.2301 0 1.835-0.99597 1.835-2.9173-5e-6 -0.93132-0.13546-1.6411-0.44757-2.1335-0.30949-0.495-0.77899-0.7402-1.3875-0.74021zm29.003 0c-1.2196 5e-6 -1.835 0.95499-1.835 2.8738 0 0.93387 0.13808 1.6821 0.44757 2.1771 0.30949 0.49245 0.78685 0.74021 1.3875 0.74021 1.2301 0 1.835-0.99597 1.835-2.9173-5e-6 -0.93132-0.13546-1.6411-0.44757-2.1335-0.30949-0.495-0.77899-0.7402-1.3875-0.74021zm9.6676 0c-1.2196 5e-6 -1.835 0.95499-1.835 2.8738 0 0.93387 0.13808 1.6821 0.44757 2.1771 0.30949 0.49245 0.78686 0.74021 1.3875 0.74021 1.2301 0 1.835-0.99597 1.835-2.9173-3e-6 -0.93132-0.18022-1.6411-0.49233-2.1335-0.30949-0.495-0.73424-0.7402-1.3427-0.74021zm19.29 0c-1.2196 5e-6 -1.7903 0.95499-1.7903 2.8738 0 0.93387 0.13808 1.6821 0.44757 2.1771 0.30949 0.49245 0.7421 0.74021 1.3427 0.74021 1.2301 0 1.8798-0.99597 1.8798-2.9173-3e-6 -0.93132-0.18022-1.6411-0.49233-2.1335-0.30949-0.495-0.77899-0.7402-1.3875-0.74021zm-67.628 0.08708-1.5217 1.1756 0.40282 0.43542 0.58184-0.43542c0.21507-0.1786 0.34528-0.32569 0.44757-0.43542-0.020989 0.60982-2.3e-6 1.082 0 1.3933v3.4833h0.67136v-5.6169zm19.335 0-1.5217 1.1756 0.40282 0.43542 0.53709-0.43542c0.21507-0.1786 0.39004-0.32569 0.49233-0.43542-0.02101 0.60982-0.04476 1.082-0.04476 1.3933v3.4833h0.71612v-5.6169zm9.6676 0-1.5217 1.1756 0.35806 0.43542 0.58184-0.43542c0.21507-0.1786 0.39004-0.32569 0.49233-0.43542-0.02101 0.60982-0.04476 1.082-0.04476 1.3933v3.4833h0.71612v-5.6169zm28.958 0-1.477 1.1756 0.35806 0.43542 0.58184-0.43542c0.21507-0.1786 0.39004-0.32569 0.49233-0.43542-0.02103 0.60982-0.04476 1.082-0.04476 1.3933v3.4833h0.67136v-5.6169zm19.335 0-1.5217 1.1756 0.40282 0.43542 0.58184-0.43542c0.21507-0.1786 0.34528-0.32569 0.44757-0.43542-0.02102 0.60982 0 1.082 0 1.3933v3.4833h0.67136v-5.6169zm-67.628 0.5225c0.38555 3e-6 0.66941 0.16274 0.85039 0.5225 0.18097 0.35722 0.26854 0.93793 0.26854 1.7417-3e-6 0.80884-0.08758 1.4254-0.26854 1.7852-0.18098 0.35722-0.46484 0.5225-0.85039 0.5225-0.38031 0-0.67204-0.16528-0.85039-0.5225-0.17572-0.35722-0.22379-0.97381-0.22379-1.7852 0-0.80884 0.04805-1.387 0.22379-1.7417 0.17835-0.35721 0.47008-0.5225 0.85039-0.5225zm29.003 0c0.38555 3e-6 0.66941 0.16274 0.85039 0.5225 0.18097 0.35722 0.26854 0.93793 0.26854 1.7417-4e-6 0.80884-0.08758 1.4254-0.26854 1.7852-0.18098 0.35722-0.46484 0.5225-0.85039 0.5225-0.38031 0-0.67204-0.16528-0.85039-0.5225-0.17572-0.35722-0.26854-0.97381-0.26854-1.7852 0-0.80884 0.09281-1.387 0.26854-1.7417 0.17835-0.35721 0.47008-0.5225 0.85039-0.5225zm9.6676 0c0.38555 3e-6 0.66941 0.16274 0.85039 0.5225 0.18097 0.35722 0.26854 0.93793 0.26854 1.7417-3e-6 0.80884-0.08758 1.4254-0.26854 1.7852-0.18098 0.35722-0.46484 0.5225-0.85039 0.5225-0.38031 0-0.67204-0.16528-0.85039-0.5225-0.17572-0.35722-0.26854-0.97381-0.26854-1.7852 0-0.80884 0.09281-1.387 0.26854-1.7417 0.17835-0.35721 0.47008-0.5225 0.85039-0.5225zm19.29 0c0.38555 3e-6 0.66941 0.16274 0.85039 0.5225 0.18097 0.35722 0.3133 0.93793 0.3133 1.7417-2e-6 0.80884-0.13234 1.4254-0.3133 1.7852-0.18098 0.35722-0.46484 0.5225-0.85039 0.5225-0.38031 0-0.62728-0.16528-0.80563-0.5225-0.17572-0.35722-0.26854-0.97381-0.26854-1.7852 0-0.80884 0.09282-1.387 0.26854-1.7417 0.17835-0.35721 0.42532-0.5225 0.80563-0.5225zm-67.628 9.1873c-1.2196 6e-6 -1.835 0.95499-1.835 2.8738-6e-7 0.93387 0.18284 1.6821 0.49233 2.1771 0.30949 0.49245 0.7421 0.74021 1.3427 0.74021 1.2301 0 1.8798-0.99597 1.8798-2.9173-4e-6 -0.93131-0.18022-1.6411-0.49233-2.1335-0.30949-0.495-0.77899-0.7402-1.3875-0.74021zm9.6676 0c-1.2196 6e-6 -1.835 0.95499-1.835 2.8738 0 0.93387 0.18284 1.6821 0.49233 2.1771 0.30949 0.49245 0.7421 0.74021 1.3427 0.74021 1.2301 0 1.835-0.99597 1.835-2.9173-5e-6 -0.93131-0.13546-1.6411-0.44757-2.1335-0.30949-0.495-0.77899-0.7402-1.3875-0.74021zm29.003 0c-1.2196 6e-6 -1.835 0.95499-1.835 2.8738 0 0.93387 0.13808 1.6821 0.44757 2.1771 0.30949 0.49245 0.78685 0.74021 1.3875 0.74021 1.2301 0 1.835-0.99597 1.835-2.9173-5e-6 -0.93131-0.13546-1.6411-0.44757-2.1335-0.30949-0.495-0.77899-0.7402-1.3875-0.74021zm9.6676 0c-1.2196 6e-6 -1.835 0.95499-1.835 2.8738 0 0.93387 0.13808 1.6821 0.44757 2.1771 0.30949 0.49245 0.78686 0.74021 1.3875 0.74021 1.2301 0 1.835-0.99597 1.835-2.9173-3e-6 -0.93131-0.18022-1.6411-0.49233-2.1335-0.30949-0.495-0.73424-0.7402-1.3427-0.74021zm9.6676 0c-1.2196 6e-6 -1.835 0.95499-1.835 2.8738 0 0.93387 0.13808 1.6821 0.44757 2.1771 0.30949 0.49245 0.78686 0.74021 1.3875 0.74021 1.2301 0 1.835-0.99597 1.835-2.9173-5e-6 -0.93131-0.18022-1.6411-0.49233-2.1335-0.30949-0.495-0.73423-0.7402-1.3427-0.74021zm9.6228 0c-1.2196 6e-6 -1.7903 0.95499-1.7903 2.8738 0 0.93387 0.13808 1.6821 0.44757 2.1771 0.30949 0.49245 0.7421 0.74021 1.3427 0.74021 1.2301 0 1.8798-0.99597 1.8798-2.9173-3e-6 -0.93131-0.18022-1.6411-0.49233-2.1335-0.30949-0.495-0.77899-0.7402-1.3875-0.74021zm-48.293 0.08708-1.5217 1.1756 0.40282 0.43542 0.53709-0.43542c0.21507-0.1786 0.39004-0.32569 0.49233-0.43542-0.02101 0.60982-0.04476 1.082-0.04476 1.3933v3.4833h0.71612v-5.6169zm9.6676 0-1.5217 1.1756 0.35806 0.43542 0.58184-0.43542c0.21507-0.1786 0.39004-0.32569 0.49233-0.43542-0.02101 0.60982-0.04476 1.082-0.04476 1.3933v3.4833h0.71612v-5.6169zm48.293 0-1.5217 1.1756 0.40282 0.43542 0.58184-0.43542c0.21507-0.1786 0.34528-0.32569 0.44757-0.43542-0.02102 0.60982 0 1.082 0 1.3933v3.4833h0.67136v-5.6169zm-77.296 0.5225c0.38555 5e-6 0.66941 0.16274 0.85039 0.5225 0.18097 0.35722 0.26854 0.93793 0.26854 1.7417-3e-6 0.80885-0.08758 1.4254-0.26854 1.7852-0.18098 0.35722-0.46484 0.5225-0.85039 0.5225-0.38031 2e-6 -0.62728-0.16528-0.80563-0.5225-0.17573-0.35722-0.26855-0.97381-0.26854-1.7852-1.4e-6 -0.80884 0.092816-1.387 0.26854-1.7417 0.17835-0.35721 0.42532-0.5225 0.80563-0.5225zm9.6676 0c0.38555 5e-6 0.66941 0.16274 0.85039 0.5225 0.18097 0.35722 0.26854 0.93793 0.26854 1.7417-3e-6 0.80885-0.08758 1.4254-0.26854 1.7852-0.18098 0.35722-0.46484 0.5225-0.85039 0.5225-0.38031 2e-6 -0.67204-0.16528-0.85039-0.5225-0.17572-0.35722-0.22379-0.97381-0.22379-1.7852 0-0.80884 0.04805-1.387 0.22379-1.7417 0.17835-0.35721 0.47008-0.5225 0.85039-0.5225zm29.003 0c0.38555 5e-6 0.66941 0.16274 0.85039 0.5225 0.18097 0.35722 0.26854 0.93793 0.26854 1.7417-4e-6 0.80885-0.08758 1.4254-0.26854 1.7852-0.18098 0.35722-0.46484 0.5225-0.85039 0.5225-0.38031 2e-6 -0.67204-0.16528-0.85039-0.5225-0.17572-0.35722-0.26854-0.97381-0.26854-1.7852 0-0.80884 0.09281-1.387 0.26854-1.7417 0.17835-0.35721 0.47008-0.5225 0.85039-0.5225zm9.6676 0c0.38555 5e-6 0.66941 0.16274 0.85039 0.5225 0.18097 0.35722 0.26854 0.93793 0.26854 1.7417-3e-6 0.80885-0.08758 1.4254-0.26854 1.7852-0.18098 0.35722-0.46484 0.5225-0.85039 0.5225-0.38031 2e-6 -0.67204-0.16528-0.85039-0.5225-0.17572-0.35722-0.26854-0.97381-0.26854-1.7852 0-0.80884 0.09281-1.387 0.26854-1.7417 0.17835-0.35721 0.47008-0.5225 0.85039-0.5225zm9.6676 0c0.38555 5e-6 0.66941 0.16274 0.85039 0.5225 0.18097 0.35722 0.26854 0.93793 0.26854 1.7417-4e-6 0.80885-0.08758 1.4254-0.26854 1.7852-0.18098 0.35722-0.46484 0.5225-0.85039 0.5225-0.38031 2e-6 -0.67204-0.16528-0.85039-0.5225-0.17572-0.35722-0.26854-0.97381-0.26854-1.7852-2e-6 -0.80884 0.09281-1.387 0.26854-1.7417 0.17835-0.35721 0.47008-0.5225 0.85039-0.5225zm9.6228 0c0.38555 5e-6 0.66941 0.16274 0.85039 0.5225 0.18097 0.35722 0.3133 0.93793 0.3133 1.7417-2e-6 0.80885-0.13234 1.4254-0.3133 1.7852-0.18098 0.35722-0.46484 0.5225-0.85039 0.5225-0.38031 2e-6 -0.62728-0.16528-0.80563-0.5225-0.17572-0.35722-0.26854-0.97381-0.26854-1.7852 0-0.80884 0.09282-1.387 0.26854-1.7417 0.17835-0.35721 0.42532-0.5225 0.80563-0.5225zm-38.626 9.1873c-1.2196 6e-6 -1.835 0.95499-1.835 2.8738 0 0.93387 0.13808 1.6821 0.44757 2.1771 0.30949 0.49245 0.78686 0.74021 1.3875 0.74021 1.2301 0 1.835-0.99597 1.835-2.9173-4e-6 -0.93131-0.13546-1.6411-0.44757-2.1335-0.30949-0.495-0.77899-0.7402-1.3875-0.74021zm9.6676 0c-1.2196 6e-6 -1.835 0.95499-1.835 2.8738 0 0.93387 0.13808 1.6821 0.44757 2.1771 0.30949 0.49245 0.78685 0.74021 1.3875 0.74021 1.2301 0 1.835-0.99597 1.835-2.9173-5e-6 -0.93131-0.13546-1.6411-0.44757-2.1335-0.30949-0.495-0.77899-0.7402-1.3875-0.74021zm19.335 0c-1.2196 6e-6 -1.835 0.95499-1.835 2.8738 0 0.93387 0.13808 1.6821 0.44757 2.1771 0.30949 0.49245 0.78686 0.74021 1.3875 0.74021 1.2301 0 1.835-0.99597 1.835-2.9173-5e-6 -0.93131-0.18022-1.6411-0.49233-2.1335-0.30949-0.495-0.73423-0.7402-1.3427-0.74021zm19.29 0c-1.2196 6e-6 -1.835 0.95499-1.835 2.8738 0 0.93387 0.18284 1.6821 0.49233 2.1771 0.30949 0.49245 0.7421 0.74021 1.3427 0.74021 1.2301 0 1.8798-0.99597 1.8798-2.9173-4e-6 -0.93131-0.18022-1.6411-0.49233-2.1335-0.30949-0.495-0.77899-0.7402-1.3875-0.74021zm-77.296 0.08709-1.5217 1.1756 0.40282 0.47896 0.58184-0.47896c0.21507-0.1786 0.34528-0.32569 0.44757-0.43542-0.020989 0.60983-2.3e-6 1.082 0 1.3933v3.4833h0.67136v-5.6169zm9.6676 0-1.5217 1.1756 0.40282 0.47896 0.58184-0.47896c0.21507-0.1786 0.34528-0.32569 0.44757-0.43542-0.02102 0.60983-2e-6 1.082 0 1.3933v3.4833h0.67136v-5.6169zm9.6676 0-1.5217 1.1756 0.40282 0.47896 0.53709-0.47896c0.21507-0.1786 0.39004-0.32569 0.49233-0.43542-0.02101 0.60983-0.04476 1.082-0.04476 1.3933v3.4833h0.71612v-5.6169zm28.958 0-1.477 1.1756 0.35806 0.47896 0.58184-0.47896c0.21507-0.1786 0.39004-0.32569 0.49233-0.43542-0.02103 0.60983-0.04476 1.082-0.04476 1.3933v3.4833h0.71612v-5.6169zm19.335 0-1.5217 1.1756 0.40282 0.47896 0.58184-0.47896c0.21507-0.1786 0.39004-0.32569 0.49233-0.43542-0.02101 0.60983-0.04476 1.082-0.04476 1.3933v3.4833h0.67136v-5.6169zm-38.626 0.5225c0.38555 6e-6 0.66941 0.16274 0.85039 0.5225 0.18097 0.35722 0.26854 0.93793 0.26854 1.7417-5e-6 0.80885-0.08758 1.4254-0.26854 1.7852-0.18098 0.35722-0.46484 0.5225-0.85039 0.5225-0.38031 0-0.67204-0.16528-0.85039-0.5225-0.17572-0.35722-0.26854-0.97381-0.26854-1.7852-2e-6 -0.80884 0.09281-1.387 0.26854-1.7417 0.17835-0.35721 0.47008-0.5225 0.85039-0.5225zm9.6676 0c0.38555 6e-6 0.66941 0.16274 0.85039 0.5225 0.18097 0.35722 0.26854 0.93793 0.26854 1.7417-4e-6 0.80885-0.08758 1.4254-0.26854 1.7852-0.18098 0.35722-0.46484 0.5225-0.85039 0.5225-0.38031 0-0.67204-0.16528-0.85039-0.5225-0.17572-0.35722-0.26854-0.97381-0.26854-1.7852 0-0.80884 0.09281-1.387 0.26854-1.7417 0.17835-0.35721 0.47008-0.5225 0.85039-0.5225zm19.335 0c0.38555 6e-6 0.66941 0.16274 0.85039 0.5225 0.18097 0.35722 0.26854 0.93793 0.26854 1.7417-4e-6 0.80885-0.08758 1.4254-0.26854 1.7852-0.18098 0.35722-0.46484 0.5225-0.85039 0.5225-0.38031 0-0.67204-0.16528-0.85039-0.5225-0.17572-0.35722-0.26854-0.97381-0.26854-1.7852-2e-6 -0.80884 0.09281-1.387 0.26854-1.7417 0.17835-0.35721 0.47008-0.5225 0.85039-0.5225zm19.29 0c0.38555 6e-6 0.66941 0.16274 0.85039 0.5225 0.18097 0.35722 0.26854 0.93793 0.26854 1.7417-5e-6 0.80885-0.08758 1.4254-0.26854 1.7852-0.18098 0.35722-0.46484 0.5225-0.85039 0.5225-0.38031 0-0.62728-0.16528-0.80563-0.5225-0.17572-0.35722-0.26854-0.97381-0.26854-1.7852-2e-6 -0.80884 0.09281-1.387 0.26854-1.7417 0.17835-0.35721 0.42532-0.5225 0.80563-0.5225zm-67.628 9.1873c-1.2196 5e-6 -1.835 0.99853-1.835 2.9173 0 0.93387 0.18284 1.6385 0.49233 2.1335 0.30949 0.49245 0.7421 0.74021 1.3427 0.74021 1.2301 0 1.835-0.95243 1.835-2.8738-5e-6 -0.93131-0.13546-1.6846-0.44757-2.1771-0.30949-0.495-0.77899-0.7402-1.3875-0.74021zm29.003 0c-1.2196 5e-6 -1.835 0.99853-1.835 2.9173 0 0.93387 0.13808 1.6385 0.44757 2.1335 0.30949 0.49245 0.78685 0.74021 1.3875 0.74021 1.2301 0 1.835-0.95243 1.835-2.8738-5e-6 -0.93131-0.13546-1.6846-0.44757-2.1771-0.30949-0.495-0.77899-0.7402-1.3875-0.74021zm38.626 0c-1.2196 5e-6 -1.835 0.99853-1.835 2.9173 0 0.93387 0.18284 1.6385 0.49233 2.1335 0.30949 0.49245 0.7421 0.74021 1.3427 0.74021 1.2301 0 1.8798-0.95243 1.8798-2.8738-4e-6 -0.93131-0.18022-1.6846-0.49233-2.1771-0.30949-0.495-0.77899-0.7402-1.3875-0.74021zm-77.296 0.08708-1.5217 1.1756 0.40282 0.47896 0.58184-0.47896c0.21507-0.1786 0.34528-0.32569 0.44757-0.43542-0.020989 0.60983-2.3e-6 1.082 0 1.3933v3.4833h0.67136v-5.6169zm19.335 0-1.5217 1.1756 0.40282 0.47896 0.53709-0.47896c0.21507-0.1786 0.39004-0.32569 0.49233-0.43542-0.02101 0.60983-0.04476 1.082-0.04476 1.3933v3.4833h0.71612v-5.6169zm9.6676 0-1.5217 1.1756 0.35806 0.47896 0.58184-0.47896c0.21507-0.1786 0.39004-0.32569 0.49233-0.43542-0.02101 0.60983-0.04476 1.082-0.04476 1.3933v3.4833h0.71612v-5.6169zm19.29 0-1.477 1.1756 0.35806 0.47896 0.58184-0.47896c0.21507-0.1786 0.39004-0.32569 0.49233-0.43542-0.02103 0.60983-0.04476 1.082-0.04476 1.3933v3.4833h0.71612v-5.6169zm9.6676 0-1.477 1.1756 0.35806 0.47896 0.58184-0.47896c0.21507-0.1786 0.39004-0.32569 0.49233-0.43542-0.02103 0.60983-0.04476 1.082-0.04476 1.3933v3.4833h0.67136v-5.6169zm9.6676 0-1.5217 1.1756 0.40282 0.47896 0.58184-0.47896c0.21507-0.1786 0.39004-0.32569 0.49233-0.43542-0.02101 0.60983-0.04476 1.082-0.04476 1.3933v3.4833h0.67136v-5.6169zm-57.961 0.5225c0.38555 3e-6 0.66941 0.20628 0.85039 0.56604 0.18097 0.35722 0.26854 0.93793 0.26854 1.7417-3e-6 0.80885-0.08758 1.3819-0.26854 1.7417-0.18098 0.35722-0.46484 0.5225-0.85039 0.5225-0.38031 0-0.67204-0.16528-0.85039-0.5225-0.17572-0.35722-0.22379-0.93027-0.22379-1.7417 0-0.80884 0.04805-1.4305 0.22379-1.7852 0.17835-0.35721 0.47008-0.5225 0.85039-0.5225zm29.003 0c0.38555 3e-6 0.66941 0.20628 0.85039 0.56604 0.18097 0.35722 0.26854 0.93793 0.26854 1.7417-4e-6 0.80885-0.08758 1.3819-0.26854 1.7417-0.18098 0.35722-0.46484 0.5225-0.85039 0.5225-0.38031 0-0.67204-0.16528-0.85039-0.5225-0.17572-0.35722-0.26854-0.93027-0.26854-1.7417 0-0.80884 0.09281-1.4305 0.26854-1.7852 0.17835-0.35721 0.47008-0.5225 0.85039-0.5225zm38.626 0c0.38555 3e-6 0.66941 0.20628 0.85039 0.56604 0.18097 0.35722 0.26854 0.93793 0.26854 1.7417-5e-6 0.80885-0.08758 1.3819-0.26854 1.7417-0.18098 0.35722-0.46484 0.5225-0.85039 0.5225-0.38031 0-0.62728-0.16528-0.80563-0.5225-0.17572-0.35722-0.26854-0.93027-0.26854-1.7417-2e-6 -0.80884 0.09281-1.4305 0.26854-1.7852 0.17835-0.35721 0.42532-0.5225 0.80563-0.5225zm-77.296 9.1873c-1.2196 6e-6 -1.835 0.99853-1.835 2.9173-6e-7 0.93387 0.18284 1.6385 0.49233 2.1335 0.30949 0.49245 0.7421 0.74021 1.3427 0.74021 1.2301 0 1.8798-0.95243 1.8798-2.8738-4e-6 -0.93131-0.18022-1.6846-0.49233-2.1771-0.30949-0.495-0.77899-0.7402-1.3875-0.74021zm19.335 0c-1.2196 6e-6 -1.835 0.99853-1.835 2.9173 0 0.93387 0.18284 1.6385 0.49233 2.1335 0.30949 0.49245 0.7421 0.74021 1.3427 0.74021 1.2301 0 1.835-0.95243 1.835-2.8738-4e-6 -0.93131-0.13546-1.6846-0.44757-2.1771-0.30949-0.495-0.77899-0.7402-1.3875-0.74021zm19.335 0c-1.2196 6e-6 -1.835 0.99853-1.835 2.9173 0 0.93387 0.13808 1.6385 0.44757 2.1335 0.30949 0.49245 0.78685 0.74021 1.3875 0.74021 1.2301 0 1.835-0.95243 1.835-2.8738-5e-6 -0.93131-0.13546-1.6846-0.44757-2.1771-0.30949-0.495-0.77899-0.7402-1.3875-0.74021zm28.958 0c-1.2196 6e-6 -1.7903 0.99853-1.7903 2.9173 0 0.93387 0.13808 1.6385 0.44757 2.1335 0.30949 0.49245 0.7421 0.74021 1.3427 0.74021 1.2301 0 1.8798-0.95243 1.8798-2.8738-3e-6 -0.93131-0.18022-1.6846-0.49233-2.1771-0.30949-0.495-0.77899-0.7402-1.3875-0.74021zm9.6676 0c-1.2196 6e-6 -1.835 0.99853-1.835 2.9173 0 0.93387 0.18284 1.6385 0.49233 2.1335 0.30949 0.49245 0.7421 0.74021 1.3427 0.74021 1.2301 0 1.8798-0.95243 1.8798-2.8738-4e-6 -0.93131-0.18022-1.6846-0.49233-2.1771-0.30949-0.495-0.77899-0.7402-1.3875-0.74021zm-67.628 0.08708-1.5217 1.1756 0.40282 0.47896 0.58184-0.47896c0.21507-0.1786 0.34528-0.32569 0.44757-0.43542-0.02102 0.60983-2e-6 1.082 0 1.3933v3.4833h0.67136v-5.6169zm19.335 0-1.5217 1.1756 0.35806 0.47896 0.58184-0.47896c0.21507-0.1786 0.39004-0.32569 0.49233-0.43542-0.02101 0.60983-0.04476 1.082-0.04476 1.3933v3.4833h0.71612v-5.6169zm19.29 0-1.477 1.1756 0.35806 0.47896 0.58184-0.47896c0.21507-0.1786 0.39004-0.32569 0.49233-0.43542-0.02103 0.60983-0.04476 1.082-0.04476 1.3933v3.4833h0.71612v-5.6169zm9.6676 0-1.477 1.1756 0.35806 0.47896 0.58184-0.47896c0.21507-0.1786 0.39004-0.32569 0.49233-0.43542-0.02103 0.60983-0.04476 1.082-0.04476 1.3933v3.4833h0.67136v-5.6169zm-57.961 0.52251c0.38555 5e-6 0.66941 0.20628 0.85039 0.56604 0.18097 0.35722 0.26854 0.93793 0.26854 1.7417-3e-6 0.80885-0.08758 1.3819-0.26854 1.7417-0.18098 0.35722-0.46484 0.5225-0.85039 0.5225-0.38031 0-0.62728-0.16528-0.80563-0.5225-0.17573-0.35722-0.26855-0.93027-0.26854-1.7417-1.4e-6 -0.80884 0.092816-1.4305 0.26854-1.7852 0.17835-0.35721 0.42532-0.52249 0.80563-0.5225zm19.335 0c0.38555 5e-6 0.66941 0.20628 0.85039 0.56604 0.18097 0.35722 0.26854 0.93793 0.26854 1.7417-2e-6 0.80885-0.08758 1.3819-0.26854 1.7417-0.18098 0.35722-0.46484 0.5225-0.85039 0.5225-0.38031 0-0.67204-0.16528-0.85039-0.5225-0.17572-0.35722-0.26854-0.93027-0.26854-1.7417 0-0.80884 0.09282-1.4305 0.26854-1.7852 0.17835-0.35721 0.47008-0.52249 0.85039-0.5225zm19.335 0c0.38555 5e-6 0.66941 0.20628 0.85039 0.56604 0.18097 0.35722 0.26854 0.93793 0.26854 1.7417-4e-6 0.80885-0.08758 1.3819-0.26854 1.7417-0.18098 0.35722-0.46484 0.5225-0.85039 0.5225-0.38031 0-0.67204-0.16528-0.85039-0.5225-0.17572-0.35722-0.26854-0.93027-0.26854-1.7417 0-0.80884 0.09281-1.4305 0.26854-1.7852 0.17835-0.35721 0.47008-0.52249 0.85039-0.5225zm28.958 0c0.38555 5e-6 0.66941 0.20628 0.85039 0.56604 0.18097 0.35722 0.3133 0.93793 0.3133 1.7417-2e-6 0.80885-0.13234 1.3819-0.3133 1.7417-0.18098 0.35722-0.46484 0.5225-0.85039 0.5225-0.38031 0-0.62728-0.16528-0.80563-0.5225-0.17572-0.35722-0.26854-0.93027-0.26854-1.7417 0-0.80884 0.09282-1.4305 0.26854-1.7852 0.17835-0.35721 0.42532-0.52249 0.80563-0.5225zm9.6676 0c0.38555 5e-6 0.66941 0.20628 0.85039 0.56604 0.18097 0.35722 0.26854 0.93793 0.26854 1.7417-5e-6 0.80885-0.08758 1.3819-0.26854 1.7417-0.18098 0.35722-0.46484 0.5225-0.85039 0.5225-0.38031 0-0.62728-0.16528-0.80563-0.5225-0.17572-0.35722-0.26854-0.93027-0.26854-1.7417-2e-6 -0.80884 0.09281-1.4305 0.26854-1.7852 0.17835-0.35721 0.42532-0.52249 0.80563-0.5225z" fill="#fff" fill-opacity=".59906"/>
<path d="m9.8251 4.7295c-3.1166 0-5.668 2.5395-5.668 5.646v69.278c0 3.1065 2.5513 5.646 5.668 5.646h76.792c3.1166 0 5.668-2.5395 5.668-5.646v-69.278c0-3.1065-2.5513-5.646-5.668-5.646zm0 2.3194h76.792c1.8881 0 3.352 1.4801 3.352 3.3266v69.278c0 1.8465-1.4639 3.3266-3.352 3.3266h-76.792c-1.8881 0-3.352-1.4801-3.352-3.3266v-69.278c0-1.8465 1.4639-3.3266 3.352-3.3266z" color="#000000" fill="#202223" fill-opacity=".93689" style="text-decoration-line:none;text-indent:0;text-transform:none"/>
<path d="m1.5 81.844v6c0 3.6801 2.9761 6.6562 6.6562 6.6562h79.688c3.6801 0 6.6563-2.9761 6.6563-6.6562v-6c0 3.6801-2.9761 6.6562-6.6563 6.6562h-79.688c-3.6801 0-6.6562-2.9761-6.6562-6.6562z" fill="url(#linearGradient4129)" opacity=".65818"/>
<rect x="5.375" y="80.25" width="84.25" height="4.25" rx="0" ry="4.25" fill="url(#radialGradient7462)" opacity=".55"/>
<rect transform="rotate(90)" x="5.56" y="-90.085" width="76.75" height="4.25" rx="0" ry="4.25" fill="url(#radialGradient7464)" opacity=".669"/>
<path d="m37.479 14.013-16.65 4.3542-4.4757 16.198 12.174 11.843 16.65-4.3542 4.4757-16.154zm30.435 7.9681-16.65 4.3106-4.4757 16.198 12.174 11.843 16.65-4.3106 4.4757-16.198zm-22.244 21.64-16.605 4.3542-4.4757 16.154 12.174 11.887 16.65-4.3542 4.4757-16.198z" color="#000000" fill="#92de6c" stroke="#000" stroke-opacity=".24528" stroke-width=".49577"/>
<rect transform="matrix(1.0692 0 0 1.0477 4.2952 38.479)" x="2" y="-30" width="75.966" height="69.024" rx="3.957" ry="3.957" clip-path="url(#clipPath4156-4-1)" fill="url(#linearGradient4767)" opacity=".65"/>
</g>
</svg>
