<?xml version="1.0" encoding="UTF-8"?>
<!-- Created with Inkscape (http://www.inkscape.org/) -->
<svg version="1.1" viewBox="0 0 96 96" xmlns="http://www.w3.org/2000/svg" xmlns:cc="http://creativecommons.org/ns#" xmlns:dc="http://purl.org/dc/elements/1.1/" xmlns:rdf="http://www.w3.org/1999/02/22-rdf-syntax-ns#" xmlns:xlink="http://www.w3.org/1999/xlink">
<defs>
<linearGradient id="linearGradient4071" x1="6" x2="90" y1="47" y2="47" gradientTransform="matrix(1.1071 0 0 1.1071 -4.9939 -3.6207)" gradientUnits="userSpaceOnUse">
<stop stop-color="#b4b9ba" offset="0"/>
<stop stop-color="#fff" offset=".25"/>
<stop stop-color="#98a0a2" offset=".5"/>
<stop stop-color="#fbf9f9" offset=".75"/>
<stop stop-color="#b4b8ba" offset="1"/>
</linearGradient>
<linearGradient id="linearGradient4129" x1="1.5" x2="94.5" y1="88.172" y2="88.172" gradientTransform="translate(.14895 .41503)" gradientUnits="userSpaceOnUse">
<stop offset="0"/>
<stop stop-opacity=".58824" offset=".1"/>
<stop stop-opacity=".58824" offset=".9"/>
<stop offset="1"/>
</linearGradient>
<radialGradient id="radialGradient7462" cx="13.948" cy="44.893" r="43.199" gradientTransform="matrix(.97513 0 0 .049191 34.048 80.582)" gradientUnits="userSpaceOnUse" xlink:href="#linearGradient3737"/>
<linearGradient id="linearGradient3737">
<stop stop-color="#fff" offset="0"/>
<stop stop-color="#fff" stop-opacity="0" offset="1"/>
</linearGradient>
<radialGradient id="radialGradient7464" cx="13.948" cy="44.893" r="43.199" gradientTransform="matrix(.88833 0 0 .049191 31.96 -90.317)" gradientUnits="userSpaceOnUse" xlink:href="#linearGradient3737"/>
<linearGradient id="linearGradient4767" x1="2.7714" x2="50.528" y1="-28.642" y2="14.514" gradientUnits="userSpaceOnUse" xlink:href="#linearGradient3737"/>
<clipPath id="clipPath4156-4-1">
<path d="m27.046-55.695-14.214 13.321h0.06127l15.653 21.771 10.231-10.546c-0.2169-1.1522-11.311-23.67-11.732-24.546zm-17.399 16.313-14.888 14.062 21.229 17.515 10.385-10.577zm31.491 12.951-9.7413 9.7136 8.9448 12.458 7.7808-7.555zm-49.84 4.3788-13.754 12.982 26.283 13.846 0.06127-0.0617-0.12253-0.0617 9.8332-10.053-22.301-16.652zm38.015 7.4008-9.8025 9.7753 11.579 9.5594 7.6276-7.4008-8.6691-11.009zm20.187 5.674-7.3825 7.2158 6.1878 8.5418 5.8202-6.1365zm-32.195 6.3215-9.5575 9.4977 13.662 7.185 7.9339-7.6784zm23.312 2.3744-7.1068 6.9383 8.3628 6.9074 5.3608-5.674-0.06127-0.0925-0.0919 0.12335-6.4635-8.2026zm-8.7304 8.5418-7.5051 7.3392 10.354 5.4581c1.3975-1.321 5.6751-6.1229 5.8509-6.3215z" fill="#fff" opacity=".6"/>
</clipPath>
<linearGradient id="linearGradient6193-6" x1="48" x2="48" y1="90" y2="5.9877" gradientTransform="matrix(.69056 0 0 .69056 -80.678 -71.643)" gradientUnits="userSpaceOnUse" xlink:href="#linearGradient3700-8-7"/>
<linearGradient id="linearGradient3700-8-7">
<stop stop-color="#e6e6e6" offset="0"/>
<stop stop-color="#f5f5f5" offset="1"/>
</linearGradient>
<linearGradient id="linearGradient6199-0" x1="56" x2="56" y1="80" y2="16" gradientTransform="matrix(.68466 -.090137 .090137 .68466 -102.35 -58.787)" gradientUnits="userSpaceOnUse">
<stop stop-color="#d5d5d5" offset="0"/>
<stop stop-color="#e3e3e3" offset="1"/>
</linearGradient>
<linearGradient id="linearGradient6520-0" x1="48" x2="48" y1="90" y2="5.9877" gradientTransform="matrix(.56114 0 0 .56114 -90.372 120.94)" gradientUnits="userSpaceOnUse" xlink:href="#linearGradient3700-8-7"/>
<linearGradient id="linearGradient6526-0" x1="-26.434" x2="-15.63" y1="14.381" y2="30.013" gradientTransform="matrix(1.3149 -.35232 .35262 1.316 49.948 -8.5505)" gradientUnits="userSpaceOnUse">
<stop stop-color="#f7a164" offset="0"/>
<stop stop-color="#e11c26" offset="1"/>
</linearGradient>
<linearGradient id="linearGradient6528-7" x1="-19.536" x2="-8.7596" y1="21.995" y2="30.07" gradientTransform="matrix(1.3149 -.35232 .35262 1.316 50.179 -8.5007)" gradientUnits="userSpaceOnUse">
<stop stop-color="#8badea" offset="0"/>
<stop stop-color="#3b7caf" offset="1"/>
</linearGradient>
<linearGradient id="linearGradient6530-8" x1="-17.863" x2="-20.822" y1="30.828" y2="25.015" gradientTransform="matrix(1.3149 -.35232 .35262 1.316 50.179 -8.5015)" gradientUnits="userSpaceOnUse">
<stop stop-color="#8cab2a" offset="0"/>
<stop stop-color="#d7e866" offset="1"/>
</linearGradient>
<linearGradient id="linearGradient6532-2" x1="-20.75" x2="-19.5" y1="29" y2="18.75" gradientTransform="matrix(1.3272 -.35562 .35623 1.3295 50.321 -8.891)" gradientUnits="userSpaceOnUse" xlink:href="#linearGradient3737"/>
<linearGradient id="linearGradient6745-2" x1="22" x2="22" y1="22" y2="2" gradientTransform="translate(-93.153 -69.966)" gradientUnits="userSpaceOnUse">
<stop stop-color="#ebebeb" offset="0"/>
<stop stop-color="#fafafa" offset="1"/>
</linearGradient>
<linearGradient id="linearGradient6797-5" x1="17" x2="19" y1="5" y2="5" gradientTransform="translate(46.966 -80.153)" gradientUnits="userSpaceOnUse">
<stop offset="0"/>
<stop stop-opacity="0" offset="1"/>
</linearGradient>
</defs>
<metadata>
<rdf:RDF>
<cc:Work rdf:about="">
<dc:format>image/svg+xml</dc:format>
<dc:type rdf:resource="http://purl.org/dc/dcmitype/StillImage"/>
<dc:title/>
<dc:date>2017</dc:date>
<dc:creator>
<cc:Agent>
<dc:title>Cristian Pozzessere "ilnanny"</dc:title>
</cc:Agent>
</dc:creator>
<dc:subject>
<rdf:Bag>
<rdf:li>Global language</rdf:li>
</rdf:Bag>
</dc:subject>
<dc:description>Playing with Inkscape on Gnu/Linux O. S.</dc:description>
<dc:contributor>
<cc:Agent>
<dc:title>In the night, alone like a dog.</dc:title>
</cc:Agent>
</dc:contributor>
<cc:license rdf:resource="http://creativecommons.org/licenses/by-sa/4.0/"/>
</cc:Work>
<cc:License rdf:about="http://creativecommons.org/licenses/by-sa/4.0/">
<cc:permits rdf:resource="http://creativecommons.org/ns#Reproduction"/>
<cc:permits rdf:resource="http://creativecommons.org/ns#Distribution"/>
<cc:requires rdf:resource="http://creativecommons.org/ns#Notice"/>
<cc:requires rdf:resource="http://creativecommons.org/ns#Attribution"/>
<cc:permits rdf:resource="http://creativecommons.org/ns#DerivativeWorks"/>
<cc:requires rdf:resource="http://creativecommons.org/ns#ShareAlike"/>
</cc:License>
</rdf:RDF>
</metadata>
<g transform="translate(0 -1026.5)">
<g transform="translate(-.14896 1026.1)">
<path d="m89.292 0.41503h-82.286c-3.7988 0-6.8571 3.0583-6.8571 6.8571v82.286c0 3.7989 3.0583 6.8571 6.8571 6.8571h82.286c3.7989 0 6.8571-3.0583 6.8571-6.8571v-82.286c0-3.7989-3.0583-6.8571-6.8571-6.8571z" opacity=".15"/>
<path d="m88.649 1.165h-81c-3.7395 0-6.75 3.0105-6.75 6.75v81c0 3.7395 3.0105 6.75 6.75 6.75h81c3.7395 0 6.75-3.0105 6.75-6.75v-81c0-3.7395-3.0105-6.75-6.75-6.75z" opacity=".15"/>
<path d="m88.006 1.915h-79.714c-3.6801 0-6.6429 2.9627-6.6429 6.6429v79.714c0 3.6801 2.9627 6.6429 6.6429 6.6429h79.714c3.6801 0 6.6429-2.9627 6.6429-6.6429v-79.714c0-3.6801-2.9627-6.6429-6.6429-6.6429z" fill="url(#linearGradient4071)"/>
<path d="m11.39 6.8022c-2.8565 0-5.1241 2.3147-5.1241 5.2305v69.369c1.0972 1.7038 2.9688 2.8441 5.1241 2.8441h73.787c2.1553 0 4.0269-1.1402 5.1241-2.8441v-69.369c0-2.9158-2.2676-5.2305-5.1241-5.2305z" fill="#f5f3f3" opacity=".77865"/>
<path d="m9.974 5.1445c-3.1166 0-5.668 2.5395-5.668 5.646v69.278c0 3.1065 2.5513 5.646 5.668 5.646h76.792c3.1166 0 5.668-2.5395 5.668-5.646v-69.278c0-3.1065-2.5513-5.646-5.668-5.646zm0 2.3194h76.792c1.8881 0 3.352 1.4801 3.352 3.3266v69.278c0 1.8465-1.4639 3.3266-3.352 3.3266h-76.792c-1.8881 0-3.352-1.4801-3.352-3.3266v-69.278c0-1.8465 1.4639-3.3266 3.352-3.3266z" color="#000000" fill="#241f1f" fill-opacity=".63265" style="text-decoration-line:none;text-indent:0;text-transform:none"/>
<g transform="matrix(1.1646 0 0 1.1684 108.88 85.53)">
<path d="m-67.27-43.606h7.6388l-3.8194-9.8969-3.8194 9.8969m-5.8824 7.5412v-1.4776h1.8261l7.4157-19.334h2.3418l7.4297 19.334h2.0491v1.4776h-7.5691v-1.4776h2.3139l-1.7424-4.5721h-8.7539l-1.7424 4.5721h2.2861v1.4776h-5.8545" fill="#2c5aa0"/>
<path d="m-80.856-58.441c-3.3402 0.43974-5.7129 3.5319-5.2731 6.8721l6.4896 49.293c0.43946 3.3381 3.5214 5.7458 6.8762 5.3041l49.324-6.4937c3.3548-0.44166 5.7085-3.565 5.269-6.9031l-6.4896-49.293c-0.43975-3.3402-3.5319-5.7129-6.8721-5.2731z" opacity=".05"/>
<path d="m-80.705-57.295c-2.7212 0.35825-4.6359 2.8536-4.2777 5.5748l6.4896 49.293c0.35825 2.7212 2.8501 4.6679 5.5789 4.3087l49.324-6.4937c2.7288-0.35926 4.6319-2.8846 4.2736-5.6058l-6.4896-49.293c-0.35825-2.7212-2.8536-4.6359-5.5748-4.2777z" opacity=".15"/>
<rect transform="rotate(-7.5)" x="-76.534" y="-67.499" width="58.007" height="58.007" rx="4.1434" ry="4.1434" fill="url(#linearGradient6193-6)" stroke="#000" stroke-opacity=".5515" stroke-width=".25718"/>
<path d="m-78.312-50.807 0.63096 4.7926 5.1378 39.025 5.4773-0.72109-5.0477-38.341 42.386-6.0059-0.72109-5.4773-43.071 6.096z" color="#000000" fill="url(#linearGradient6199-0)"/>
<rect transform="rotate(-7.5)" x="-37.232" y="-44.736" width="14.502" height="6.2151" color="#000000" fill="#80d818" opacity=".5"/>
<path d="m-69.282-19.259-5.4773 0.7211 0.09014 0.68466 5.4773-0.7211 0.63096 4.7926-5.4773 0.72109 0.09014 0.68466 5.4773-0.72109 0.81123 6.1619 0.68466-0.090137-0.81123-6.1619 13.008-1.7126 0.81123 6.1619 0.68466-0.090137-0.81123-6.1619 14.378-1.8929-0.09014-0.68466-14.378 1.8929-0.63096-4.7926c-13.783 1.1181-14.468 1.2082-14.468 1.2082zm0.68464-0.09014c0.09014 0.68466 0 0 0 0zm0.09014 0.68466 13.008-1.7126 0.63096 4.7926-13.008 1.7126z" color="#000000" opacity=".2"/>
<path d="m-79.086-51.401 0.04507 0.34233 5.8589 44.503 0.04507 0.34233 0.34233-0.045068 47.926-6.3096 0.34233-0.04507-0.04507-0.34233-5.8589-44.503-0.04507-0.34233-0.34233 0.04507-47.926 6.3096zm0.77479 0.59452 47.241-6.2194 5.7688 43.818-47.241 6.2194z" color="#000000" fill="#808080" opacity=".6" style="text-decoration-line:none;text-indent:0;text-transform:none"/>
<path d="m-70.023-11.023c-0.06709 0.14487-0.13024 0.28515-0.18947 0.42082-0.05834 0.13556-0.1072 0.27078-0.14657 0.40565-0.0395 0.13398-0.06688 0.27045-0.08214 0.40941-0.01449 0.13795-0.01187 0.28181 0.0078 0.43157l-0.39181 0.051582c-0.0196-0.14888-0.02082-0.29247-0.0037-0.43076 0.01793-0.13931 0.04882-0.27669 0.09266-0.41216 0.04384-0.13546 0.09772-0.27043 0.16164-0.40491 0.0638-0.13537 0.13177-0.27355 0.2039-0.41456l-0.93605 0.12323-0.04067-0.3089 1.2851-0.16918 0.03926 0.2982" fill="#4d4d4d"/>
<path d="m-43.453-39.493 0.81123 6.1619 15.062-1.983-0.81123-6.1619zm0.77479 0.59452 13.693-1.8027 0.63096 4.7926-13.693 1.8027z" color="#000000" fill="#569110" opacity=".5"/>
<path d="m-40.4-16.793 0.81123 6.1619 0.68466-0.09014-0.81123-6.1619 14.378-1.8929-0.09014-0.68466-14.378 1.8929-0.63096-4.7926 14.378-1.8929-0.09014-0.68466-14.378 1.8929c-3.1101-6.4783 5.8158-5.6413 13.747-6.6855l-0.09014-0.68466c-18.164 3.0446-18.872-2.3911-0.63096-4.7926l-0.09014-0.68466c-18.164 3.0446-18.872-2.3911-0.63096-4.7926l-0.09014-0.68466c-18.164 3.0446-18.872-2.3911-0.63096-4.7926l-0.09014-0.68466c-18.164 3.0446-18.872-2.3911-0.63096-4.7926l-0.09014-0.68466c-17.215 2.9597-15.831-3.8574-10.646 35.531zm-0.81123-6.1619c-4.0653-32.83-2.8932-26.809 0 0zm0.09014 0.68466 0.63096 4.7926z" color="#000000" opacity=".2"/>
<rect transform="rotate(-7.5)" x="-37.594" y="-55.142" width="14.502" height="6.2151" color="#000000" fill="#80d818" opacity=".5"/>
<rect transform="rotate(-15 -781.24 29.947)" x="-87.005" y="124.31" width="47.136" height="47.136" rx="3.3668" ry="3.3668" fill="url(#linearGradient6520-0)" stroke="#000" stroke-opacity=".5515" stroke-width=".25718"/>
<g transform="translate(-91.642 -67.789)">
<path d="m31.491 19.771c-8.7331 2.34-14.557 8.928-13.008 14.706l0.72891 2.7203c1.3466 5.0256 7.8249 7.7793 15.237 6.8729l0.0055 0.02061c2.4711-0.16934 6.3305-1.2464 8.5843-2.7198 0.24641-0.13731 0.48638-0.2707 0.72722-0.41574 0.05888-0.03486 0.11046-0.07621 0.16875-0.11148 0.03232-0.01984 0.05968-0.04881 0.09191-0.0688 0.26857-0.16451 0.53711-0.32658 0.79302-0.49964 0.0697-0.04718 0.1354-0.09527 0.20441-0.14312 0.21747-0.15095 0.42068-0.29873 0.62829-0.4555 0.17944-0.13439 0.3574-0.26816 0.53086-0.4073 0.09196-0.07469 0.18047-0.15122 0.2702-0.22702 0.27236-0.22676 0.55047-0.46306 0.80509-0.70166 0.02621-0.02499 0.03982-0.0588 0.0658-0.08389 1.4977-1.4213 2.6645-3.0335 3.2738-4.831 0.06479-0.18344 0.10878-0.36689 0.16126-0.55124 0.02574-0.09529 0.05529-0.18973 0.07787-0.28592 0.04962-0.19955 0.08936-0.4075 0.1241-0.60755 0.0011-0.0064-0.0066-0.01416-0.0055-0.02061 0.05181-0.30248 0.09177-0.61016 0.10857-0.91262 0.0023-0.04431 0.0064-0.09022 0.0081-0.13469 0.02112-0.55306-0.0085-1.1031-0.11082-1.649-0.0067-0.04357-0.0052-0.08544-0.01251-0.12918l-0.11049-0.41218-0.72891-2.7203c-1.5483-5.7784-9.8848-8.5722-18.619-6.2319z" fill="#9f0300"/>
<path d="m49.88 25.959c1.5483 5.7784-4.2761 12.358-13.01 14.699-8.734 2.3403-17.069-0.44571-18.617-6.2241-1.5483-5.7784 4.2778-12.359 13.011-14.699 8.734-2.3403 17.068 0.44593 18.616 6.2243z" fill="url(#linearGradient6526-0)"/>
<path d="m50.949 29.14-0.78416-2.8456c-0.12763 6.3825-3.311 9.9249-7.8297 12.452l0.70328 2.6247c4.8932-2.7267 8.7833-6.9922 7.9106-12.231z" fill="#39619a"/>
<path d="m50.11 26.009c1.4289 6.7817-6.0146 12.043-7.8291 12.654l-7.9849-8.4165 15.813-4.2371 6.74e-4 -1.8e-4z" fill="url(#linearGradient6528-7)"/>
<path d="m34.296 30.247 7.9847 8.4156c-2.9386 2.1259-8.5527 2.7027-8.5527 2.7027z" fill="url(#linearGradient6530-8)"/>
<path d="m49.88 25.959a10.667 16.145 75 1 1-31.189 8.3572 10.667 16.145 75 1 1 31.189-8.3572z" color="#000000" display="block" fill="none" opacity=".25" stroke="url(#linearGradient6532-2)"/>
</g>
<path d="m-75.153-67.966c-0.80423 9.27e-4 -1.4679 0.69199-1.4688 1.5v2.5h2.9375v-1h4.0312l-0.03125 14.312-0.5 0.53125-0.5-0.53125v-9.5312c0.0075-0.50967-0.24365-0.98215-0.6875-1.25-0.4703-0.2838-1.0674-0.23036-1.5 0.03125-0.43193 0.26126-0.7256 0.71591-0.71875 1.25v10.094c-0.0085 0.36146 0.08483 0.75216 0.375 1.0625a0.45478 0.45478 0 0 0 0.03125 0l1.9688 2.0312c0.27281 0.28197 0.64254 0.46918 1.0312 0.46875 0.38706-4.07e-4 0.75801-0.18657 1.0312-0.46875l1.9375-2a0.45478 0.45478 0 0 0 0.03125 0c0.2729-0.292 0.41469-0.66798 0.40625-1.0625v-16.438c7.04e-4 -0.80907-0.66331-1.5008-1.4688-1.5z" opacity=".2"/>
<path d="m-75.153-67.497c-0.54405 6.27e-4 -0.99939 0.46808-1 1.0312v2.5h2v-1.4688h4.9688l-0.03125 14.969-0.9375 1-1-1.0312v-9.6875c0.0054-0.36777-0.16207-0.68993-0.46875-0.875-0.30668-0.18506-0.69295-0.15443-1 0.03125-0.30705 0.18572-0.50472 0.50719-0.5 0.875v10.094c-0.0064 0.27285 0.06682 0.55409 0.25 0.75l1.9688 2.0312c0.18537 0.19844 0.45181 0.31279 0.71875 0.3125 0.26693-2.81e-4 0.53294-0.11372 0.71875-0.3125l1.9375-2c0.18351-0.19635 0.28709-0.47716 0.28125-0.75v-16.438c4.9e-4 -0.56313-0.45595-1.0318-1-1.0312z" opacity=".3"/>
<path d="m-75.153-68.029c-0.54405 6.27e-4 -0.99939 0.46808-1 1.0312v3.0312h2v-2h4.9688l-0.03125 14.969-0.9375 1-1-1.0312v-9.6875c0.0054-0.36777-0.16207-0.68993-0.46875-0.875-0.30668-0.18506-0.69295-0.15443-1 0.03125-0.30705 0.18572-0.50472 0.50719-0.5 0.875v10.094c-0.0064 0.27285 0.06682 0.55409 0.25 0.75l1.9688 2.0312c0.18537 0.19844 0.45181 0.31279 0.71875 0.3125 0.26693-2.81e-4 0.53294-0.11372 0.71875-0.3125l1.9375-2c0.18351-0.19635 0.28709-0.47716 0.28125-0.75v-16.438c4.9e-4 -0.56313-0.45595-1.0318-1-1.0312z" fill="url(#linearGradient6745-2)"/>
<path d="m-75.153-68.029c-0.54405 6.27e-4 -0.99939 0.46808-1 1.0312v1c6.11e-4 -0.56317 0.45595-1.0306 1-1.0312h6.9062c0.54405-5.3e-4 1.0005 0.46812 1 1.0312v-1c4.9e-4 -0.56313-0.45595-1.0318-1-1.0312zm3.0312 6.3125c-0.17328 0.0077-0.34648 0.06341-0.5 0.15625-0.30705 0.18572-0.50472 0.50719-0.5 0.875v1c-0.0047-0.36781 0.19295-0.68928 0.5-0.875 0.30705-0.18568 0.69332-0.21631 1-0.03125 0.30668 0.18507 0.47415 0.50723 0.46875 0.875v-1c0.0054-0.36777-0.16207-0.68993-0.46875-0.875-0.15334-0.09253-0.32672-0.13274-0.5-0.125zm0.96875 10.688v1l1 1.0312 0.9375-1v-1l-0.9375 1z" fill="#fff"/>
<rect transform="rotate(-90)" x="63.966" y="-76.153" width="2" height="2" color="#000000" fill="url(#linearGradient6797-5)" opacity=".2"/>
</g>
<path d="m1.649 82.259v6c0 3.6801 2.9761 6.6562 6.6562 6.6562h79.687c3.6801 0 6.6563-2.9761 6.6563-6.6562v-6c0 3.6801-2.9761 6.6562-6.6563 6.6562h-79.687c-3.6801 0-6.6562-2.9761-6.6562-6.6562z" fill="url(#linearGradient4129)" opacity=".65818"/>
<rect x="5.524" y="80.665" width="84.25" height="4.25" rx="0" ry="4.25" fill="url(#radialGradient7462)" opacity=".55"/>
<rect transform="rotate(90)" x="5.975" y="-90.234" width="76.75" height="4.25" rx="0" ry="4.25" fill="url(#radialGradient7464)" opacity=".669"/>
<rect transform="matrix(1.0692 0 0 1.0477 4.4442 38.894)" x="2" y="-30" width="75.966" height="69.024" rx="3.957" ry="3.957" clip-path="url(#clipPath4156-4-1)" fill="url(#linearGradient4767)" opacity=".50781"/>
</g>
</g>
</svg>
