<?xml version="1.0" encoding="UTF-8"?>
<!-- Created with Inkscape (http://www.inkscape.org/) -->
<svg version="1.1" viewBox="0 0 96 96" xmlns="http://www.w3.org/2000/svg" xmlns:cc="http://creativecommons.org/ns#" xmlns:dc="http://purl.org/dc/elements/1.1/" xmlns:rdf="http://www.w3.org/1999/02/22-rdf-syntax-ns#" xmlns:xlink="http://www.w3.org/1999/xlink">
<script xlink:href=""/>
<defs>
<linearGradient id="linearGradient4767" x1="2.7714" x2="55.366" y1="-28.642" y2="18.576" gradientUnits="userSpaceOnUse">
<stop stop-color="#fff" offset="0"/>
<stop stop-color="#fff" stop-opacity="0" offset="1"/>
</linearGradient>
<linearGradient id="linearGradient4133">
<stop stop-color="#fff" offset="0"/>
<stop stop-color="#fff" stop-opacity="0" offset="1"/>
</linearGradient>
<linearGradient id="linearGradient7426" x1="6" x2="90" y1="47" y2="47" gradientTransform="matrix(1.1071 0 0 1.1071 2.9011 -18.701)" gradientUnits="userSpaceOnUse">
<stop stop-color="#bbc5c8" offset="0"/>
<stop stop-color="#fff" offset=".25"/>
<stop stop-color="#a6afb2" offset=".5"/>
<stop stop-color="#f9fbfb" offset=".75"/>
<stop stop-color="#c0cbcc" offset="1"/>
</linearGradient>
<radialGradient id="radialGradient7430" cx="48" cy="-27" r="42" gradientTransform="matrix(-1.0722 0 0 -.87502 199.46 -19.126)" gradientUnits="userSpaceOnUse">
<stop stop-color="#fff" offset="0"/>
<stop stop-color="#fff" offset=".8"/>
<stop stop-color="#fff" stop-opacity="0" offset="1"/>
</radialGradient>
<linearGradient id="linearGradient7460" x1="1.5" x2="94.5" y1="88.172" y2="88.172" gradientTransform="translate(8.044 -14.666)" gradientUnits="userSpaceOnUse">
<stop offset="0"/>
<stop stop-opacity=".58824" offset=".1"/>
<stop stop-opacity=".58824" offset=".9"/>
<stop offset="1"/>
</linearGradient>
<radialGradient id="radialGradient7462" cx="13.948" cy="44.893" r="43.199" gradientTransform="matrix(.97513 0 0 .049191 41.943 65.501)" gradientUnits="userSpaceOnUse" xlink:href="#linearGradient4133"/>
<radialGradient id="radialGradient7464" cx="13.948" cy="44.893" r="43.199" gradientTransform="matrix(.88833 0 0 .05385 16.069 -98.76)" gradientUnits="userSpaceOnUse" xlink:href="#linearGradient4133"/>
<filter id="filter3174-39" color-interpolation-filters="sRGB">
<feGaussianBlur stdDeviation="1.71"/>
</filter>
<linearGradient id="ButtonShadow-4" x1="45.448" x2="45.448" y1="92.54" y2="7.0165" gradientTransform="scale(1.0059 .99417)" gradientUnits="userSpaceOnUse">
<stop offset="0"/>
<stop stop-opacity=".58824" offset="1"/>
</linearGradient>
<filter id="filter4494">
<feGaussianBlur stdDeviation="0.78202128"/>
</filter>
<clipPath id="clipPath4156-4-7">
<path d="m27.046-55.695-14.214 13.321h0.06127l15.653 21.771 10.231-10.546c-0.2169-1.1522-11.311-23.67-11.732-24.546zm-17.399 16.313-14.888 14.062 21.229 17.515 10.385-10.577zm31.491 12.951-9.7413 9.7136 8.9448 12.458 7.7808-7.555zm-49.84 4.3788-13.754 12.982 26.283 13.846 0.06127-0.0617-0.12253-0.0617 9.8332-10.053-22.301-16.652zm38.015 7.4008-9.8025 9.7753 11.579 9.5594 7.6276-7.4008-8.6691-11.009zm20.187 5.674-7.3825 7.2158 6.1878 8.5418 5.8202-6.1365zm-32.195 6.3215-9.5575 9.4977 13.662 7.185 7.9339-7.6784zm23.312 2.3744-7.1068 6.9383 8.3628 6.9074 5.3608-5.674-0.06127-0.0925-0.0919 0.12335-6.4635-8.2026zm-8.7304 8.5418-7.5051 7.3392 10.354 5.4581c1.3975-1.321 5.6751-6.1229 5.8509-6.3215z" fill="#fff" opacity=".6"/>
</clipPath>
<radialGradient id="radialGradient1160" cx="56.265" cy="30.368" r="42.846" gradientTransform="matrix(1 0 0 .92112 0 2.3954)" gradientUnits="userSpaceOnUse">
<stop stop-color="#8dc7eb" offset="0"/>
<stop stop-color="#33a2e6" stop-opacity=".76078" offset="1"/>
</radialGradient>
</defs>
<metadata>
<rdf:RDF>
<cc:Work rdf:about="">
<dc:format>image/svg+xml</dc:format>
<dc:type rdf:resource="http://purl.org/dc/dcmitype/StillImage"/>
<dc:title/>
</cc:Work>
</rdf:RDF>
</metadata>
<g transform="translate(0,32)">
<g transform="translate(-8.044 -17.334)">
<rect x="8.044" y="-14.666" width="96" height="2.5" fill="#fff" opacity=".31222"/>
<path d="m97.187-14.666h-82.286c-3.7988 0-6.8571 3.0583-6.8571 6.8571v82.286c0 3.7989 3.0583 6.8571 6.8571 6.8571h82.286c3.7989 0 6.8571-3.0583 6.8571-6.8571v-82.286c0-3.7989-3.0583-6.8571-6.8571-6.8571z" opacity=".15"/>
<path d="m96.544-13.916h-81c-3.7395 0-6.75 3.0105-6.75 6.75v81c0 3.7395 3.0105 6.75 6.75 6.75h81c3.7395 0 6.75-3.0105 6.75-6.75v-81c0-3.7395-3.0105-6.75-6.75-6.75z" opacity=".15"/>
<path d="m95.901-13.166h-79.714c-3.6801 0-6.6429 2.9627-6.6429 6.6429v79.714c0 3.6801 2.9627 6.6429 6.6429 6.6429h79.714c3.6801 0 6.6429-2.9627 6.6429-6.6429v-79.714c0-3.6801-2.9627-6.6429-6.6429-6.6429z" fill="url(#linearGradient7426)"/>
<rect x="13.419" y="65.584" width="84.25" height="4.25" rx="0" ry="4.25" fill="url(#radialGradient7462)" opacity=".55"/>
<rect transform="rotate(90)" x="-9.9156" y="-98.669" width="76.75" height="4.6526" rx="0" ry="4.6526" fill="url(#radialGradient7464)" opacity=".55"/>
<rect x="13.419" y="-9.0986" width="85.692" height="78.933" rx="6.1209" ry="5.6381" fill="url(#radialGradient1160)"/>
<path d="m44.425-7.9164c1.6501 2.088 0.11258 5.5748 2.6015 5.5402 1.2119 1.6145-2.4154 0.48161 0.20359 1.726 1.5061 1.1177-1.5934 1.7563 0.27179 2.7593-2.1497 1.0453 0.34845 5.4671 1.9451 6.5737 2.628 2.0847 1.1622-4.4137 4.0945-4.7517 1.5934-1.7141 4.3918-2.8144 6.3793-4.5387-1.9423-0.14858-3.0765-1.2878-1.237-1.9934 3.3855 3.2689 0.84891-1.5481-1.0251-2.3108 1.8134-0.54355 3.577-0.14551 3.3254-1.5555 1.9163-1.3211-1.8423-1.7476-3.1839-1.449h-13.375zm-27.802 1.3637c-2.4498 0.65767-2.6206 6.1744-0.15835 3.111 0.60434-1.2578 3.3971-2.7737 0.15835-3.111zm11.446 0.19177c-1.4123 2.0867 0.20491 3.7598 1.3799 1.2146 0.83171-1.0628-0.61793-1.1756-1.3799-1.2146zm3.529 0.46879c-2.7288 1.1918-0.6726 3.9708-0.60506 4.5889 2.8746 0.93708 4.4732-0.61268 5.5607 2.036 2.7352 1.4854-0.0538 4.0665-1.0806 4.7386 1.8493-1.5177 5.4042 4.1262 4.4722 1.1444-1.1118-0.76493 2.9852 1.2288 0.85962-1.2572-1.9561-2.9696 0.15527-1.3295 0.97995-0.63638 2.8049-2.37-3.1736-2.6565-1.6812-5.0955-1.3078-0.99808-3.0229-4.0216-5.3387-3.4306-1.5502 1.8891-0.21416-4.1163-2.4886-1.1111-0.11789 1.6799-0.0429 3.8116-0.70571 0.90128-0.44407-0.50948 0.764-1.6939 0.0273-1.8784zm-5.5649 0.02129c-1.8316 0.57539-1.7332 2.9073 0.51896 3.1573 0.77143-0.82856 0.30649-3.0004-0.51896-3.1573zm-7.1484 0.74579c-2.3791 0.53114-1.408 2.3387-0.67958 2.8478-2.9449 0.69509 4.4957 0.88838 0.79269 1.3286-3.0808 1.1594 2.9667 2.5253 3.9588 1.1506 3.8044 0.8767 0.13691-2.8697-0.19704-4.9005-1.6128-1.631-0.0637 3.7598-1.5219 0.1737-0.50878 1.0649-2.1265 0.15693-2.353-0.60026zm75.601 0.23439c-3.1924 1.1773 1.9842 5.6201 0.69764 1.5782-0.12817-0.48804 0.2882-1.7776-0.69764-1.5782zm-66.666 1.7899c-2.2941 2.0315 2.916 3.7115-0.6589 5.2249-0.53601-1.8867-1.4583 0.94394-3.5035-0.57969-3.5159 1.3795-5.3139-0.71854-8.2575-2.1567-1.768-0.20738-1.1038 1.583-1.2209 3.2593v13.898c1.7335 1.7186 0.67633 0.75824 0 0.28423 0.95147 3.0535-0.41957 7.517 3.3308 9.2931 0.63757 1.1144 3.3129 5.8618 3.4362 4.4413-1.3412-1.3235-2.7174-5.2913-0.44789-1.7549 2.0328 3.3616 4.7748 5.542 8.7805 6.3419 2.1901 0.70196 3.9912 3.115 5.9171 2.5841 1.089 2.7052-3.2274 5.3031 0.14491 7.8263 1.7605 2.5544 4.7162 4.2297 3.116 7.8159-1.1191 3.5024-0.63992 7.3187-1.6078 10.582-0.3004 1.9863 2.938 7.0279 2.6575 2.9908 0.94557-2.8055 0.92064-5.8925 3.1476-7.8792 3.0471 0.02273 0.58237-3.0875 3.607-2.6812 1.8456-2.2796 2.3802-4.999 5.4949-5.9042 0.37204-2.7671 5.1788-7.0049 0.21313-8.0822-1.3496-0.62682-4.8245-0.85221-4.559-1.1615 0.53804-2.7457-4.4935-3.5273-6.6342-4.6506-2.8108-1.88-7.0342 3.1231-8.0245-1.1878-0.59087-1.3564-2.7513-1.3784-1.7584-3.4713-1.7894 1.677-5.2893 1.1673-4.373-2.0713 1.3916-2.7275 6.7356-2.8565 7.6463 0.42414-1.2644-3.6182 2.4439-6.4348 4.5025-9.009 0.41916-1.2304 2.9097-2.2874 2.0527-0.65222 1.4602-0.04964 3.6733-2.5326 1.0794-1.3866-0.0367-2.2643-2.273-1.6204-2.998-1.2989 1.3438-2.0097 8.245-0.91098 5.3551-4.196-2.2393-0.85499-2.053-5.8443-4.318-3.0647 0.19059-1.7126-4.61-5.065-4.5053-2.1932 0.58599 2.5698 0.10714 5.53-1.1399 7.2145-0.26025-3.7655-7.0757-2.9333-6.1994-6.9459 1.2694-1.9124 2.7528-4.5571 2.8942-4.3191 2.275-0.8185 4.1046-3.1993 1.4678-4.7645-0.14091 1.3641-1.983 4.1786-1.7237 0.77459-1.7058 1.9057-1.3162-3.0325-2.9137-3.5447zm54.45 1.3211c-3.9959 0.92107-5.5801 4.5174-7.5568 7.4962-2.9139 1.2379-2.8029 6.5544 0.45241 4.8564 0.87128 1.4339-0.60951 3.694 1.9283 1.8191 2.047-2.5526 0.35794-6.681 3.8414-8.2906 0.25373 1.2515-3.2133 5.9247 0.837 5.1566 3.6616 0.13019-2.6619 0.34378-0.88101 2.5477-1.8503-1.0345-0.88882 2.8252-3.304 1.927-2.0923 1.0724-3.4643-0.49794-2.985-2.2182-1.646 0.90481 0.51769 3.4574-2.3396 3.6108-0.64004 2.1417-5.9034 1.8189-2.9102 3.9997 1.3289 3.2453-4.9515 0.20344-3.1685 4.098 1.5254 3.8511 4.7224-1.2761 6.0194-2.2667 2.5025-1.8291 6.2107 3.1189 3.9588 3.3028 2.5251-0.31924 2.0062-2.5821-0.017-3.4582-1.0927-2.6704 3.459 1.3096 3.2066 2.6485 1.6059 2.8337 0.94461-2.9013 2.5788-0.36224-0.1908 2.6783 6.5742 0.62975 3.3444 4.0432-2.7769 0.52703-5.5101-0.67457-7.9008 0.09507-2.2251-0.01855-2.1135-2.2588-2.9236-2.8198-2.8304 0.21668-6.3279 0.19218-8.2228 2.3468-2.049 2.6491-5.0038 6.3523-2.7705 9.7348 2.2349 5.0125 7.7772 0.26 10.963 3.2203 0.94693 1.2343-0.8206 2.7015 1.2967 4.0385 0.7967 2.848-0.90449 5.5522 1.0523 8.2747 1.0118 2.5604 1.6398 6.3927 5.4058 4.053 3.9858-2.2602 2.9242-6.4266 6.2129-8.7344-2.6023-4.7456 3.1836-6.8264 4.6272-10.679-3.1539 0.43509-5.9638-2.528-6.7258-5.5103-1.3249-1.4486-0.98367-3.5846 0.49633-0.86326 2.0343 1.8574 2.0782 7.3689 5.8413 4.5336 1.7204-0.67805 6.4186-3.2645 2.6751-4.4416-2.413 1.6469-5.0752-4.921-1.5318-1.1115 2.576 1.0298 4.38 1.6434 4.38-1.771v-27.785c-0.8024 0.77266-2.8638 2.1997-3.9043 1.2514-1.7904 0.23493-4.1539 3.5175-3.5912 0.34432-1.5562-0.0971-0.27859 2.8452-2.4166 2.9275-0.21529 1.5127-2.1599 0.28012-1.4294 1.7166-1.5006-1.0031-2.7707-4.17 0.18614-2.1822 4.391-1.2413-2.8956-4.0413-3.458-4.7181 0.94545-0.21346-1.0286-1.1419-1.2668-0.83102zm-36.24 0.83102c-1.4615 1.1475 2.7785 1.3636 0 0zm-19.522 0.61794c-1.6346 1.6112 2.6033 1.4812 0 0zm9.4784 1.5981c-1.2379 1.9108 1.829 0.70547 0 0zm27.101 2.2587c-1.4492 1.5722-3.362-0.41376-3.3932 0.93757 0.26265 0.40831 1.3147 3.3225 3.6194 1.172 1.237-0.49142 0.74997-1.7302-0.22621-2.1095zm-30.856 0.93757c-2.7488 2.2621 4.6683 2.4705 0.58232 0.25944zm36.262 6.2646c-1.9791 1.2161 0.94944 3.7987-0.0431 5.0118-1.2401 2.036 4.6083-0.14342 1.4846-1.7678-0.22257-1.3956-1.83-3.0984-1.4415-3.244zm-1.3347 2.4505c-2.7574 0.73459-0.62597 4.5272 0.35065 0.95514 0.055-0.2071 0.12936-0.96207-0.35065-0.95514zm-22.079 2.7488c-2.5652 1.6482-0.39843 3.2935 1.4816 2.5518-0.38595-0.99447-1.4642-1.621-1.4816-2.5518zm48.455 2.7701c1.28 0.60869-2.3455 1.6485-0.0498 2.7197 1.336 1.4804 0.83231 4.6584-1.3392 2.4092 0.40344-2.5112-2.9436-4.3866 1.389-5.1289zm-6.5829 0.02129c-0.17366 1.6134 3.694 4.1212-0.47504 3.3028-2.2048 0.24371-5.507-0.06349-2.7294-2.6522 0.87765-0.49648 3.1821 1.7129 1.9829-0.35224 0.42514-0.02553 0.82107-0.17678 1.2216-0.29832zm-12.736 3.4946c-1.6081 0.97624 1.112 1.7248 0 0zm-40.379 9.0986c-0.2711 0.85228 5.086 1.716 1.3893 0.35054l-0.55107-0.18278zm4.1624 1.2146c-1.6249 1.5544 3.3478 0.4644 0 0zm54.337 14.255c-3.5307 0.08584-3.0613 8.6674-0.60013 3.5896 0.2334-1.1019 1.1689-2.5562 0.60013-3.5896z" fill="#012701" opacity=".58182"/>
<g transform="matrix(-1.0934 0 0 1.0911 118.71 -18.223)">
<g transform="translate(2.3782 3.2771)">
<g transform="translate(.96556)">
<path d="m82.809 67.815c-0.41229 0.1033-0.83382-0.13568-0.94151-0.54578-1.5846-5.9249-8.0243-7.4605-11.873-8.3794-0.96458-0.22972-1.7261-0.41164-2.2215-0.62595-4.3845-1.9071-5.8136-4.9752-6.2413-7.2138-0.0523-0.2698 0.04461-0.54732 0.25384-0.72924 2.283-1.975 4.2091-4.9397 5.4244-8.3501 0.03384-0.09713 0.08769-0.18655 0.15846-0.26364 1.6076-1.7514 2.5307-3.603 2.5307-5.0785 0-0.86183-0.3246-1.44-1.0553-1.8763-0.22307-0.13413-0.36306-0.37002-0.37383-0.62903-0.33999-7.8536-5.9213-14.036-12.767-14.076-0.0077 0-0.15693 0.01077-0.16461 0.01077-6.8798 0.09559-12.426 6.4106-12.624 14.375-0.0062 0.22047-0.10461 0.42706-0.27384 0.5689-0.48152 0.40856-0.70613 0.92659-0.70613 1.6296 0 1.2349 0.6569 2.7535 1.8476 4.2737 0.05692 0.07247 0.1 0.15571 0.12922 0.2436 1.2307 3.9099 3.4399 7.3618 6.0583 9.474 0.22153 0.17884 0.32614 0.4656 0.27384 0.74466-0.42768 2.2371-1.8569 5.3036-6.2413 7.2138-0.51844 0.22509-1.323 0.40085-2.343 0.62132-3.8106 0.82637-10.187 2.2124-11.752 8.0664-0.0923 0.34381-0.40306 0.57044-0.74151 0.57044-0.06616 0 43.37-0.22838 43.302-0.24529-0.41076-0.111-44.156-0.31436-44.047-0.72601 1.8076-6.7636 9.032-8.3316 12.912-9.1734 0.89997-0.1958 1.6769-0.36385 2.0553-0.53036 2.8614-1.2457 4.6245-3.1436 5.2475-5.6505-2.6568-2.2864-4.8798-5.8139-6.1506-9.77-1.3492-1.7576-2.0907-3.5676-2.0907-5.1139 0-1.0314 0.3323-1.8917 0.99074-2.5639 0.36614-8.6399 6.5182-15.444 14.153-15.553l0.22922-3e-3c7.4967 0.04009 13.675 6.6649 14.215 15.155 0.96304 0.7092 1.4523 1.7036 1.4523 2.9663 0 1.8239-1.0292 4.0054-2.8307 6.0066-1.2446 3.4273-3.1737 6.4383-5.4706 8.5459 0.61998 2.5161 2.3845 4.4202 5.2521 5.6674 0.37076 0.16189 1.1092 0.33918 1.9646 0.54269 3.9091 0.93121 11.183 2.6657 13.004 9.4771 0.10922 0.41164-43.745 0.61346-44.156 0.72447z" fill="#080808" fill-opacity=".18367"/>
<path d="m83.724 68.732c-0.41229 0.1033-0.83382-0.13568-0.94151-0.54578-1.5846-5.9249-8.0243-7.4605-11.873-8.3794-0.96458-0.22972-1.7261-0.41164-2.2215-0.62595-4.3845-1.9071-5.8136-4.9752-6.2413-7.2138-0.0523-0.2698 0.04461-0.54732 0.25384-0.72924 2.283-1.975 4.2091-4.9397 5.4244-8.3501 0.03384-0.09713 0.08769-0.18655 0.15846-0.26364 1.6076-1.7514 2.5307-3.603 2.5307-5.0785 0-0.86183-0.3246-1.44-1.0553-1.8763-0.22307-0.13413-0.36306-0.37002-0.37383-0.62903-0.33999-7.8536-5.9213-14.036-12.767-14.076-0.0077 0-0.15693 0.01077-0.16461 0.01077-6.8798 0.09559-12.426 6.4106-12.624 14.375-0.0062 0.22047-0.10461 0.42706-0.27384 0.5689-0.48152 0.40856-0.70613 0.92659-0.70613 1.6296 0 1.2349 0.6569 2.7535 1.8476 4.2737 0.05692 0.07247 0.1 0.15571 0.12922 0.2436 1.2307 3.9099 3.4399 7.3618 6.0583 9.474 0.22153 0.17884 0.32614 0.4656 0.27384 0.74466-0.42768 2.2371-1.8569 5.3036-6.2413 7.2138-0.51844 0.22509-1.323 0.40085-2.343 0.62132-3.8106 0.82637-10.187 2.2124-11.752 8.0664-0.0923 0.34381-0.40306 0.57044-0.74151 0.57044-0.06616 0 43.37-0.22838 43.302-0.24529-0.41076-0.111-44.156-0.31436-44.047-0.72601 1.8076-6.7636 9.032-8.3316 12.912-9.1734 0.89997-0.1958 1.6769-0.36385 2.0553-0.53036 2.8614-1.2457 4.6245-3.1436 5.2475-5.6505-2.6568-2.2864-4.8798-5.8139-6.1506-9.77-1.3492-1.7576-2.0907-3.5676-2.0907-5.1139 0-1.0314 0.3323-1.8917 0.99074-2.5639 0.36614-8.6399 6.5182-15.444 14.153-15.553l0.22922-3e-3c7.4967 0.04009 13.675 6.6649 14.215 15.155 0.96304 0.7092 1.4523 1.7036 1.4523 2.9663 0 1.8239-1.0292 4.0054-2.8307 6.0066-1.2446 3.4273-3.1737 6.4383-5.4706 8.5459 0.61998 2.5161 2.3845 4.4202 5.2521 5.6674 0.37076 0.16189 1.1092 0.33918 1.9646 0.54269 3.9091 0.93121 11.183 2.6657 13.004 9.4771 0.10922 0.41164-43.745 0.61346-44.156 0.72447z" fill="#080808" fill-opacity=".97143" filter="url(#filter4494)" stroke="#0e110e" stroke-opacity=".31915" stroke-width=".45778"/>
<path d="m81.538 67.855c-0.41229 0.1033-0.83382-0.13568-0.94151-0.54578-1.5846-5.9249-8.0243-7.4605-11.873-8.3794-0.96458-0.22972-1.7261-0.41164-2.2215-0.62595-4.3845-1.9071-5.8136-4.9752-6.2413-7.2138-0.0523-0.2698 0.04461-0.54732 0.25384-0.72924 2.283-1.975 4.2091-4.9397 5.4244-8.3501 0.03384-0.09713 0.08769-0.18655 0.15846-0.26364 1.6076-1.7514 2.5307-3.603 2.5307-5.0785 0-0.86183-0.3246-1.44-1.0553-1.8763-0.22307-0.13413-0.36306-0.37002-0.37383-0.62903-0.33999-7.8536-5.9213-14.036-12.767-14.076-0.0077 0-0.15693 0.01077-0.16461 0.01077-6.8798 0.09559-12.426 6.4106-12.624 14.375-0.0062 0.22047-0.10461 0.42706-0.27384 0.5689-0.48152 0.40856-0.70613 0.92659-0.70613 1.6296 0 1.2349 0.6569 2.7535 1.8476 4.2737 0.05692 0.07247 0.1 0.15571 0.12922 0.2436 1.2307 3.9099 3.4399 7.3618 6.0583 9.474 0.22153 0.17884 0.32614 0.4656 0.27384 0.74466-0.42768 2.2371-1.8569 5.3036-6.2413 7.2138-0.51844 0.22509-1.323 0.40085-2.343 0.62132-3.8106 0.82637-10.187 2.2124-11.752 8.0664-0.0923 0.34381-0.40306 0.57044-0.74151 0.57044-0.06616 0 43.37-0.22838 43.302-0.24529-0.41076-0.111-44.156-0.31436-44.047-0.72601 1.8076-6.7636 9.032-8.3316 12.912-9.1734 0.89997-0.1958 1.6769-0.36385 2.0553-0.53036 2.8614-1.2457 4.6245-3.1436 5.2475-5.6505-2.6568-2.2864-4.8798-5.8139-6.1506-9.77-1.3492-1.7576-2.0907-3.5676-2.0907-5.1139 0-1.0314 0.3323-1.8917 0.99074-2.5639 0.36614-8.6399 6.5182-15.444 14.153-15.553l0.22922-3e-3c7.4967 0.04009 13.675 6.6649 14.215 15.155 0.96304 0.7092 1.4523 1.7036 1.4523 2.9663 0 1.8239-1.0292 4.0054-2.8307 6.0066-1.2446 3.4273-3.1737 6.4383-5.4706 8.5459 0.61998 2.5161 2.3845 4.4202 5.2521 5.6674 0.37076 0.16189 1.1092 0.33918 1.9646 0.54269 3.9091 0.93121 11.183 2.6657 13.004 9.4771 0.10922 0.41164-43.745 0.61346-44.156 0.72447z" fill="#f6f6f6" fill-opacity=".92653" stroke="#fcfefc" stroke-opacity=".93617" stroke-width=".54933"/>
</g>
</g>
</g>
<path d="m17.869-9.9361c-3.1166 0-5.668 2.5395-5.668 5.646v69.278c0 3.1065 2.5513 5.646 5.668 5.646h76.792c3.1166 0 5.668-2.5395 5.668-5.646v-69.278c0-3.1065-2.5513-5.646-5.668-5.646h-76.792zm0 2.3194h76.792c1.8881 0 3.352 1.4801 3.352 3.3266v69.278c0 1.8465-1.4639 3.3266-3.352 3.3266h-76.792c-1.8881 0-3.352-1.4801-3.352-3.3266v-69.278c0-1.8465 1.4639-3.3266 3.352-3.3266z" color="#000000" fill="#262c33" fill-opacity=".93798" style="block-progression:tb;text-indent:0;text-transform:none"/>
<g transform="translate(17.592 128)">
<g display="none">
<rect x="5" y="7" width="86" height="85" rx="6" ry="6" fill="url(#ButtonShadow-4)" filter="url(#filter3174-39)" opacity=".9"/>
</g>
</g>
<rect transform="matrix(.9093 0 0 .92838 12.397 20.052)" x="2" y="-30" width="92.346" height="78.799" rx="3.957" ry="3.957" clip-path="url(#clipPath4156-4-7)" fill="url(#linearGradient4767)" opacity=".536"/>
<g transform="matrix(1.1071 0 0 1.1071 -107.81 -18.148)">
<path d="m112 4.5c-3.324 0-6 2.676-6 6v15h1v-15c0-2.7873 2.2127-5 5-5h72c2.7873 0 5 2.2127 5 5v15h1v-15c0-3.324-2.676-6-6-6h-72z" fill="url(#radialGradient7430)" opacity=".45"/>
</g>
<path d="m9.544 67.178v6c0 3.6801 2.9761 6.6562 6.6562 6.6562h79.688c3.6801 0 6.6563-2.9761 6.6563-6.6562v-6c0 3.6801-2.9761 6.6562-6.6563 6.6562h-79.688c-3.6801 0-6.6562-2.9761-6.6562-6.6562z" fill="url(#linearGradient7460)" opacity=".65818"/>
</g>
</g>
</svg>
