<?xml version="1.0" encoding="UTF-8"?>
<!-- Created with Inkscape (http://www.inkscape.org/) -->
<svg version="1.1" viewBox="0 0 96 96" xmlns="http://www.w3.org/2000/svg" xmlns:cc="http://creativecommons.org/ns#" xmlns:dc="http://purl.org/dc/elements/1.1/" xmlns:rdf="http://www.w3.org/1999/02/22-rdf-syntax-ns#" xmlns:xlink="http://www.w3.org/1999/xlink">
<defs>
<linearGradient id="linearGradient4071" x1="6" x2="90" y1="47" y2="47" gradientTransform="matrix(1.1071 0 0 1.1071 -4.9939 -3.6207)" gradientUnits="userSpaceOnUse">
<stop stop-color="#bab4b4" offset="0"/>
<stop stop-color="#fff" offset=".25"/>
<stop stop-color="#a29898" offset=".5"/>
<stop stop-color="#fbf9f9" offset=".75"/>
<stop stop-color="#bab4b4" offset="1"/>
</linearGradient>
<linearGradient id="linearGradient4129" x1="1.5" x2="94.5" y1="88.172" y2="88.172" gradientTransform="translate(.14895 .41503)" gradientUnits="userSpaceOnUse">
<stop offset="0"/>
<stop stop-opacity=".58824" offset=".1"/>
<stop stop-opacity=".58824" offset=".9"/>
<stop offset="1"/>
</linearGradient>
<radialGradient id="radialGradient7462" cx="13.948" cy="44.893" r="43.199" gradientTransform="matrix(.97513 0 0 .049191 34.048 80.582)" gradientUnits="userSpaceOnUse" xlink:href="#linearGradient3737"/>
<linearGradient id="linearGradient3737">
<stop stop-color="#fff" offset="0"/>
<stop stop-color="#fff" stop-opacity="0" offset="1"/>
</linearGradient>
<radialGradient id="radialGradient7464" cx="13.948" cy="44.893" r="43.199" gradientTransform="matrix(.88833 0 0 .049191 31.96 -90.317)" gradientUnits="userSpaceOnUse" xlink:href="#linearGradient3737"/>
<linearGradient id="linearGradient4767" x1="2.7714" x2="50.528" y1="-28.642" y2="14.514" gradientUnits="userSpaceOnUse" xlink:href="#linearGradient3737"/>
<clipPath id="clipPath4156-4-1">
<path d="m27.046-55.695-14.214 13.321h0.06127l15.653 21.771 10.231-10.546c-0.2169-1.1522-11.311-23.67-11.732-24.546zm-17.399 16.313-14.888 14.062 21.229 17.515 10.385-10.577zm31.491 12.951-9.7413 9.7136 8.9448 12.458 7.7808-7.555zm-49.84 4.3788-13.754 12.982 26.283 13.846 0.06127-0.0617-0.12253-0.0617 9.8332-10.053-22.301-16.652zm38.015 7.4008-9.8025 9.7753 11.579 9.5594 7.6276-7.4008-8.6691-11.009zm20.187 5.674-7.3825 7.2158 6.1878 8.5418 5.8202-6.1365zm-32.195 6.3215-9.5575 9.4977 13.662 7.185 7.9339-7.6784zm23.312 2.3744-7.1068 6.9383 8.3628 6.9074 5.3608-5.674-0.06127-0.0925-0.0919 0.12335-6.4635-8.2026zm-8.7304 8.5418-7.5051 7.3392 10.354 5.4581c1.3975-1.321 5.6751-6.1229 5.8509-6.3215z" fill="#fff" opacity=".6"/>
</clipPath>
<linearGradient id="linearGradient865" x1="43.853" x2="22.341" y1="73.274" y2="60.747" gradientUnits="userSpaceOnUse">
<stop stop-color="#f6f6f6" offset="0"/>
<stop stop-color="#f6f6f6" stop-opacity="0" offset="1"/>
</linearGradient>
</defs>
<metadata>
<rdf:RDF>
<cc:Work rdf:about="">
<dc:format>image/svg+xml</dc:format>
<dc:type rdf:resource="http://purl.org/dc/dcmitype/StillImage"/>
<dc:title/>
<dc:date>2017</dc:date>
<dc:creator>
<cc:Agent>
<dc:title>Cristian Pozzessere "ilnanny"</dc:title>
</cc:Agent>
</dc:creator>
<dc:subject>
<rdf:Bag>
<rdf:li>Global language</rdf:li>
</rdf:Bag>
</dc:subject>
<dc:description>Playing with Inkscape on Gnu/Linux O. S.</dc:description>
<dc:contributor>
<cc:Agent>
<dc:title>In the night, alone like a dog.</dc:title>
</cc:Agent>
</dc:contributor>
<cc:license rdf:resource="http://creativecommons.org/licenses/by-sa/4.0/"/>
</cc:Work>
<cc:License rdf:about="http://creativecommons.org/licenses/by-sa/4.0/">
<cc:permits rdf:resource="http://creativecommons.org/ns#Reproduction"/>
<cc:permits rdf:resource="http://creativecommons.org/ns#Distribution"/>
<cc:requires rdf:resource="http://creativecommons.org/ns#Notice"/>
<cc:requires rdf:resource="http://creativecommons.org/ns#Attribution"/>
<cc:permits rdf:resource="http://creativecommons.org/ns#DerivativeWorks"/>
<cc:requires rdf:resource="http://creativecommons.org/ns#ShareAlike"/>
</cc:License>
</rdf:RDF>
</metadata>
<g transform="translate(0 -1026.5)">
<g transform="translate(-.14896 1026.1)">
<path d="m89.292 0.41503h-82.286c-3.7988 0-6.8571 3.0583-6.8571 6.8571v82.286c0 3.7989 3.0583 6.8571 6.8571 6.8571h82.286c3.7989 0 6.8571-3.0583 6.8571-6.8571v-82.286c0-3.7989-3.0583-6.8571-6.8571-6.8571z" opacity=".15"/>
<path d="m88.649 1.165h-81c-3.7395 0-6.75 3.0105-6.75 6.75v81c0 3.7395 3.0105 6.75 6.75 6.75h81c3.7395 0 6.75-3.0105 6.75-6.75v-81c0-3.7395-3.0105-6.75-6.75-6.75z" opacity=".15"/>
<path d="m88.006 1.915h-79.714c-3.6801 0-6.6429 2.9627-6.6429 6.6429v79.714c0 3.6801 2.9627 6.6429 6.6429 6.6429h79.714c3.6801 0 6.6429-2.9627 6.6429-6.6429v-79.714c0-3.6801-2.9627-6.6429-6.6429-6.6429z" fill="url(#linearGradient4071)"/>
<path d="m11.39 6.8022c-2.8565 0-5.1241 2.3235-5.1241 5.2503v69.632c1.0972 1.7103 2.9688 2.8548 5.1241 2.8548h73.787c2.1553 0 4.0269-1.1445 5.1241-2.8548v-69.632c0-2.9268-2.2676-5.2503-5.1241-5.2503z" fill="#00a5fa" opacity=".611"/>
<path d="m29.369 20.355h36.881l-6.4569 32.941-13.755 0.44964-16.45 18.374z" fill="#fff" fill-opacity=".75" fill-rule="evenodd" style="paint-order:stroke markers fill"/>
<path d="m63.455 23.388-1.6135 7.7908c-0.1844 0.82979-0.96809 1.5674-1.9362 1.5674h-14.014c-1.5674 0-2.8582 1.2908-2.8582 2.8582v1.7057c0 1.5674 1.2908 2.8582 2.8582 2.8582h11.848c1.1064 0 2.0284 1.0603 1.7979 2.2128-0.2305 1.1986-1.4752 7.2837-1.6135 7.9291-0.0922 0.69149-0.82979 1.5674-1.9362 1.5674h-9.6809c-2.0284 0.0461-2.4433 0.0922-3.6418 1.5674-1.1986 1.4752-11.801 14.752-11.801 14.752-0.0922 0.1383-0.1844 0.0922-0.1844-0.0461v-45.131c0-1.0603 0.87589-1.9362 1.9362-1.9362h29.089c1.0142 0 2.0284 1.0142 1.7518 2.305m2.1206-9.727h-35.911c-4.9326 0-6.4078 3.734-6.4078 6.0851v57.071c0 2.8121 1.4291 3.6418 2.2128 3.9645 0.78369 0.3227 2.8582 0.55319 4.3333-0.92198 0 0 17.057-19.869 17.333-20.191 0.2766-0.3227 0.41489-0.3227 0.59929-0.3227h10.787c4.6099 0 5.4858-3.1809 5.9929-5.117 0.41489-1.6135 5.1631-24.663 6.6383-31.947 1.1064-5.6241-0.3227-8.6206-5.578-8.6206" fill="#fa4778"/>
<path d="m9.974 5.1445c-3.1166 0-5.668 2.5395-5.668 5.646v69.278c0 3.1065 2.5513 5.646 5.668 5.646h76.792c3.1166 0 5.668-2.5395 5.668-5.646v-69.278c0-3.1065-2.5513-5.646-5.668-5.646zm0 2.3194h76.792c1.8881 0 3.352 1.4801 3.352 3.3266v69.278c0 1.8465-1.4639 3.3266-3.352 3.3266h-76.792c-1.8881 0-3.352-1.4801-3.352-3.3266v-69.278c0-1.8465 1.4639-3.3266 3.352-3.3266z" color="#000000" fill="#241f1f" fill-opacity=".63265" style="text-decoration-line:none;text-indent:0;text-transform:none"/>
<path d="m1.649 82.259v6c0 3.6801 2.9761 6.6562 6.6562 6.6562h79.687c3.6801 0 6.6563-2.9761 6.6563-6.6562v-6c0 3.6801-2.9761 6.6562-6.6563 6.6562h-79.687c-3.6801 0-6.6562-2.9761-6.6562-6.6562z" fill="url(#linearGradient4129)" opacity=".65818"/>
<rect x="5.524" y="80.665" width="84.25" height="4.25" rx="0" ry="4.25" fill="url(#radialGradient7462)" opacity=".55"/>
<rect transform="rotate(90)" x="5.975" y="-90.234" width="76.75" height="4.25" rx="0" ry="4.25" fill="url(#radialGradient7464)" opacity=".669"/>
<path d="m63.455 23.388-1.6135 7.7908c-0.1844 0.82979-0.96809 1.5674-1.9362 1.5674h-14.014c-1.5674 0-2.8582 1.2908-2.8582 2.8582v1.7057c0 1.5674 1.2908 2.8582 2.8582 2.8582h11.848c1.1064 0 2.0284 1.0603 1.7979 2.2128-0.2305 1.1986-1.4752 7.2837-1.6135 7.9291-0.0922 0.69149-0.82979 1.5674-1.9362 1.5674h-9.6809c-2.0284 0.0461-2.4433 0.0922-3.6418 1.5674-1.1986 1.4752-11.801 14.752-11.801 14.752-0.0922 0.1383-0.1844 0.0922-0.1844-0.0461v-45.131c0-1.0603 0.87589-1.9362 1.9362-1.9362h29.089c1.0142 0 2.0284 1.0142 1.7518 2.305m2.1206-9.727h-35.911c-4.9326 0-6.4078 3.734-6.4078 6.0851v57.071c0 2.8121 1.4291 3.6418 2.2128 3.9645 0.78369 0.3227 2.8582 0.55319 4.3333-0.92198 0 0 17.057-19.869 17.333-20.191 0.2766-0.3227 0.41489-0.3227 0.59929-0.3227h10.787c4.6099 0 5.4858-3.1809 5.9929-5.117 0.41489-1.6135 5.1631-24.663 6.6383-31.947 1.1064-5.6241-0.3227-8.6206-5.578-8.6206" fill="none" opacity=".759" stroke="url(#linearGradient865)"/>
<rect transform="matrix(1.0692 0 0 1.0477 4.4442 38.894)" x="2" y="-30" width="75.966" height="69.024" rx="3.957" ry="3.957" clip-path="url(#clipPath4156-4-1)" fill="url(#linearGradient4767)" opacity=".50781"/>
<path d="m29.665 13.661c-4.9326 0-6.4082 3.7329-6.4082 6.084v57.072c0 2.8121 1.4292 3.6421 2.2129 3.9648 0.20066 0.08262 0.488 0.15772 0.82617 0.20117-0.55628-0.58526-1.0391-1.5361-1.0391-3.166v-57.072c0-2.3511 1.4756-6.084 6.4082-6.084h35.91c0.91517 0 1.7085 0.0956 2.3984 0.27539-0.96283-0.84253-2.4045-1.2754-4.3984-1.2754zm33.619 7.7626c0.19458 0.36903 0.27642 0.81679 0.17188 1.3047l-1.6133 8.4503c-0.1844 0.82979-0.96942 1.5664-1.9375 1.5664h-14.014c-1.5674 0-2.8574 1.292-2.8574 2.8594v1.7051c0 1.5119 1.2035 2.7569 2.6953 2.8438-0.4279-0.50023-0.69531-1.1407-0.69531-1.8438v-1.7051c0-1.5674 1.29-2.8594 2.8574-2.8594h14.014c0.96808 0 1.7531-0.73662 1.9375-1.5664l1.6133-8.4503c0.2766-1.2908-0.73777-2.3047-1.752-2.3047zm-3.9277 18.866c0.18906 0.35653 0.26663 0.77621 0.17969 1.2109-0.2305 1.1986-1.475 8.1633-1.6133 8.8087-0.0922 0.69149-0.82916 1.5684-1.9355 1.5684h-9.6816c-2.0284 0.0461-2.442 0.09123-3.6406 1.5664-1.0142 1.2482-9.6042 11.725-11.964 14.68v3.2227l0.18359 0.04687s12.582-15.474 13.781-16.95c1.1986-1.4752 1.6123-1.5203 3.6406-1.5664h9.6816c1.1064 0 1.8433-0.87687 1.9355-1.5684 0.1383-0.64539 1.3828-7.6101 1.6133-8.8087 0.2305-1.1525-0.69049-2.2109-1.7969-2.2109z" fill-opacity=".3255"/>
</g>
</g>
</svg>
