<?xml version="1.0" encoding="UTF-8"?>
<!-- Created with Inkscape (http://www.inkscape.org/) -->
<svg version="1.0" viewBox="0 0 96 96" xmlns="http://www.w3.org/2000/svg" xmlns:cc="http://creativecommons.org/ns#" xmlns:dc="http://purl.org/dc/elements/1.1/" xmlns:rdf="http://www.w3.org/1999/02/22-rdf-syntax-ns#" xmlns:xlink="http://www.w3.org/1999/xlink">
<defs>
<linearGradient id="ButtonShadow" x1="45.448" x2="45.448" y1="92.54" y2="7.0165" gradientTransform="scale(1.0059 .99417)" gradientUnits="userSpaceOnUse">
<stop offset="0"/>
<stop stop-opacity=".58824" offset="1"/>
</linearGradient>
<filter id="filter3174" color-interpolation-filters="sRGB">
<feGaussianBlur stdDeviation="1.71"/>
</filter>
<linearGradient id="linearGradient3837" x1="2.7714" x2="50.528" y1="-28.642" y2="14.514" gradientUnits="userSpaceOnUse">
<stop stop-color="#fff" offset="0"/>
<stop stop-color="#fff" stop-opacity="0" offset="1"/>
</linearGradient>
<radialGradient id="radialGradient3833" cx="13.948" cy="44.893" r="43.199" gradientTransform="matrix(.88833 0 0 .049191 16.069 -98.752)" gradientUnits="userSpaceOnUse" xlink:href="#linearGradient4133"/>
<radialGradient id="radialGradient3831" cx="13.948" cy="44.893" r="43.199" gradientTransform="matrix(.97513 0 0 .049191 41.943 65.501)" gradientUnits="userSpaceOnUse" xlink:href="#linearGradient4133"/>
<linearGradient id="linearGradient3829" x1="1.5" x2="94.5" y1="88.172" y2="88.172" gradientTransform="translate(8.044 -14.666)" gradientUnits="userSpaceOnUse">
<stop offset="0"/>
<stop stop-opacity=".58824" offset=".1"/>
<stop stop-opacity=".58824" offset=".9"/>
<stop offset="1"/>
</linearGradient>
<radialGradient id="radialGradient3827" cx="48" cy="-27" r="42" gradientTransform="matrix(-1.187 0 0 -.96877 113.02 -39.322)" gradientUnits="userSpaceOnUse">
<stop stop-color="#fff" offset="0"/>
<stop stop-color="#fff" offset=".8"/>
<stop stop-color="#fff" stop-opacity="0" offset="1"/>
</radialGradient>
<linearGradient id="linearGradient3825" x1="6" x2="90" y1="47" y2="47" gradientTransform="matrix(1.1071 0 0 1.1071 2.9011 -18.701)" gradientUnits="userSpaceOnUse">
<stop stop-color="#adb4c1" offset="0"/>
<stop stop-color="#fff" offset=".25"/>
<stop stop-color="#9095aa" offset=".5"/>
<stop stop-color="#fbf9f9" offset=".75"/>
<stop stop-color="#adb3c1" offset="1"/>
</linearGradient>
<filter id="filter3174-36" color-interpolation-filters="sRGB">
<feGaussianBlur stdDeviation="1.71"/>
</filter>
<filter id="filter3174-3" color-interpolation-filters="sRGB">
<feGaussianBlur stdDeviation="1.71"/>
</filter>
<linearGradient id="linearGradient4133">
<stop stop-color="#fff" offset="0"/>
<stop stop-color="#fff" stop-opacity="0" offset="1"/>
</linearGradient>
<clipPath id="clipPath4156-4">
<path d="m27.046-55.695-14.214 13.321h0.06127l15.653 21.771 10.231-10.546c-0.2169-1.1522-11.311-23.67-11.732-24.546zm-17.399 16.313-14.888 14.062 21.229 17.515 10.385-10.577-16.726-21zm31.491 12.951-9.7413 9.7136 8.9448 12.458 7.7808-7.555-6.9843-14.617zm-49.84 4.3788-13.754 12.982 26.283 13.846 0.06127-0.0617-0.12253-0.0617 9.8332-10.053-22.301-16.652zm38.015 7.4008-9.8025 9.7753 11.579 9.5594 7.6276-7.4008-8.6691-11.009-0.73519-0.9251zm20.187 5.674-7.3825 7.2158 6.1878 8.5418 5.8202-6.1365-4.6256-9.6211zm-32.195 6.3215-9.5575 9.4977 13.662 7.185 7.9339-7.6784-12.039-9.0043zm23.312 2.3744-7.1068 6.9383 8.3628 6.9074 5.3608-5.674-0.06127-0.0925-0.0919 0.12335-6.4635-8.2026zm-8.7304 8.5418-7.5051 7.3392 10.354 5.4581c1.3975-1.321 5.6751-6.1229 5.8509-6.3215l-8.6997-6.4757z" fill="#fff" opacity=".6"/>
</clipPath>
<filter id="filter3174-07" color-interpolation-filters="sRGB">
<feGaussianBlur stdDeviation="1.71"/>
</filter>
<linearGradient id="linearGradient3798-9" x1="56" x2="56" y1="80" y2="32" gradientTransform="translate(8.4479 -20.027)" gradientUnits="userSpaceOnUse">
<stop stop-color="#b9da5b" offset="0"/>
<stop stop-color="#a3ce27" offset="1"/>
</linearGradient>
<radialGradient id="radialGradient3740-8" cx="64" cy="28.079" r="14.484" gradientTransform="matrix(1.1046 4.1739e-8 -8.2848e-8 2.1926 -18.249 -57.593)" gradientUnits="userSpaceOnUse">
<stop stop-color="#595553" offset="0"/>
<stop stop-color="#2f2a27" offset="1"/>
</radialGradient>
<radialGradient id="radialGradient3742-4" cx="44" cy="44" r="2" gradientTransform="matrix(1.25 0 0 1.25 -2.0521 -30.527)" gradientUnits="userSpaceOnUse">
<stop stop-color="#fff" offset="0"/>
<stop stop-color="#fff" offset=".78125"/>
<stop stop-color="#fff" stop-opacity="0" offset="1"/>
</radialGradient>
</defs>
<metadata>
<rdf:RDF>
<cc:Work rdf:about="">
<dc:format>image/svg+xml</dc:format>
<dc:type rdf:resource="http://purl.org/dc/dcmitype/StillImage"/>
<dc:title/>
</cc:Work>
</rdf:RDF>
</metadata>
<g transform="translate(-1e-6,32)">
<g transform="translate(-8.044 -17.334)">
<g transform="translate(251.29 -104.9)">
<g display="none">
<rect x="5" y="7" width="86" height="85" rx="6" ry="6" fill="url(#ButtonShadow)" filter="url(#filter3174-3)" opacity=".9"/>
</g>
</g>
<path d="m97.187-14.666h-82.286c-3.7988 0-6.8571 3.0583-6.8571 6.8571v82.286c0 3.7989 3.0583 6.8571 6.8571 6.8571h82.286c3.7989 0 6.8571-3.0583 6.8571-6.8571v-82.286c0-3.7989-3.0583-6.8571-6.8571-6.8571z" opacity=".15"/>
<path d="m96.544-13.916h-81c-3.7395 0-6.75 3.0105-6.75 6.75v81c0 3.7395 3.0105 6.75 6.75 6.75h81c3.7395 0 6.75-3.0105 6.75-6.75v-81c0-3.7395-3.0105-6.75-6.75-6.75z" opacity=".15"/>
<path d="m95.901-13.166h-79.714c-3.6801 0-6.6429 2.9627-6.6429 6.6429v79.714c0 3.6801 2.9627 6.6429 6.6429 6.6429h79.714c3.6801 0 6.6429-2.9627 6.6429-6.6429v-79.714c0-3.6801-2.9627-6.6429-6.6429-6.6429z" fill="url(#linearGradient3825)"/>
<rect x="13.837" y="-8.0546" width="84.846" height="77.52" ry="4.25" fill="#67eb25" fill-opacity=".90435" stroke="#fff" stroke-linecap="round" stroke-linejoin="round" stroke-width=".4"/>
<path d="m55.135-8.9336c-1.9466 0.21034-2.9209 2.2376-2.5938 4.0625-0.06329 3.4352 0.12608 7.0526-0.09375 10.375-9.4749 1.3761-17.486 9.2978-19.344 18.562-0.95236 4.0449-0.70058 9.3221 1.0284 13.531 3.2773 8.7455 12.061 15.066 21.409 15.313 0.07008 4.5572-0.13537 9.152 0.09375 13.688 1.6275-0.29181-0.44188-0.17144 0.25 0.6875 0.81237 1.759 3.1004 1.856 4.738 1.2653 11.277-1.998 20.169-12.855 19.7-24.328 0.03699-11.875 0.08266-23.785-0.02414-35.67-0.53859-9.8003-9.7264-18.039-19.533-17.486h-5.6302zm0.5 75.531c-1.1453-2.139-2.5687-4.8166-3.8209-7.1626-14.122-26.487-28.244-52.975-42.367-79.462 15.396 28.875 30.792 57.75 46.187 86.625z" color="#000000" opacity=".08"/>
<path d="m55.229-8.0274a0.98812 0.98812 0 0 0-0.15625 0.03125c-1.21e-4 2.2e-5 -0.15613 0.03122-0.15625 0.03125-1.18e-4 3.3e-5 -0.15614 0.06246-0.15625 0.0625-1.15e-4 4.3e-5 -0.18739 0.06245-0.1875 0.0625-1.11e-4 5.3e-5 -0.15614 0.09369-0.15625 0.09375-1.06e-4 6.3e-5 -0.1249 0.09368-0.125 0.09375-1e-4 7.2e-5 -0.15616 0.09367-0.15625 0.09375s-0.12491 0.12491-0.125 0.125-0.09367 0.1249-0.09375 0.125c-7.7e-5 9.5e-5 -0.12493 0.15615-0.125 0.15625s-0.09369 0.15614-0.09375 0.15625-0.06245 0.15614-0.0625 0.15625-0.06246 0.15613-0.0625 0.15625-0.06247 0.15613-0.0625 0.15625c-2.9e-5 1.19e-4 -0.03123 0.18738-0.03125 0.1875-1.9e-5 1.21e-4 8e-6 0.15613 0 0.15625-7e-6 1.03e-4 -0.03046 0.11643-0.03125 0.15625-1.52e-4 0.0077 0 0.03123 0 0.03125v1.125 3.8438 7.25c-0.14724 0.02007-0.30128 0.05176-0.375 0.0625-0.04952 0.0073-0.09653 0.02857-0.125 0.03125-0.04889 0.0046-0.06882-0.01562-0.21875 0.03125-0.01227 0.0038-0.02952 0.01736-0.0625 0.03125-0.01374 0.0058-0.01836-0.0055-0.03125 0-0.02701 0.0071-0.06537 0.02225-0.09375 0.03125-0.01774 0.0056-0.03745-0.0093-0.0625 0-0.17382 0.02462-0.35431 0.03824-0.625 0.09375-0.26763 0.05454-0.62386 0.10228-0.96875 0.1875-0.66977 0.16628-1.2884 0.36844-1.9375 0.59375 0.207-0.07185-0.06551-0.0035-0.25 0.0625-0.0051 0.0018 0.0049 0.02946 0 0.03125-0.06667 0.02411-0.11385 0.0133-0.15625 0.03125-0.02277 0.0096-0.03854 0.01988-0.0625 0.03125-0.01198 0.0057-0.01916 0.0073-0.0625 0.03125-0.01084 6e-3 -0.06238 0.03117-0.0625 0.03125-0.4213 0.15993-0.84688 0.32031-1.25 0.5-0.41998 0.18741-0.72487 0.39287-0.9375 0.5-0.20983 0.10574-0.56165 0.22912-0.9375 0.4375-0.01035 0.0057-0.02083-0.0059-0.03125 0-0.40119 0.2283-0.71937 0.47666-0.90625 0.59375-0.30268 0.1896-0.61847 0.41348-0.96875 0.65625-0.02419 0.01059-0.06975 0.01975-0.09375 0.03125-0.02625 0.01847-0.03597 0.04356-0.0625 0.0625a0.98812 0.98812 0 0 0-0.09375 0.0625c-0.06911 0.04094-0.1399 0.0671-0.21875 0.125-0.43251 0.31809-0.83412 0.64646-1.25 1-0.01068 0.0091-0.11238 0.06377-0.21875 0.15625-0.44768 0.38948-0.8075 0.80674-1.1562 1.1562-0.40453 0.40544-0.84033 0.8009-1.25 1.2812-0.17553 0.20564-0.34544 0.41724-0.4375 0.53125-0.25469 0.31558-0.38359 0.58445-0.4375 0.65625-0.29367 0.39132-0.63692 0.81848-0.9375 1.2812-0.38405 0.59128-0.71034 1.1727-1.0312 1.7812-0.12953 0.24599-0.19586 0.45264-0.25 0.5625-0.20536 0.41627-0.42357 0.85834-0.625 1.3438 0.0037-0.0089-0.05339 0.05281-0.15625 0.3125-0.46797 1.1803-0.85419 2.4105-1.125 3.6875-0.0085 0.03985 0.0062 0.02851 0 0.0625 7.4e-4 0.0063-0.02767 0.04713-0.03125 0.0625-0.0038 0.02644-7e-3 0.12795 0 0.09375-0.0068 0.03184-0.02357 0.05501-0.03125 0.09375-7e-3 0.03505 0.0064 0.05954 0 0.09375-0.06396 0.33956-0.11497 0.6355-0.15625 0.90625-0.0074 0.04879-0.10496 0.36753-0.15625 0.8125-0.01345 0.11675-0.02162 0.24878-0.03125 0.34375-0.0027 0.02723 0.0021 0.04 0 0.0625-0.0023 0.02532-0.02962 0.04193-0.03125 0.0625-0.0031 0.03885-0.01217-0.04765 0 0.1875 7.61e-4 0.0147-2.6e-5 0.06227 0 0.0625-0.018 0.26689-0.05126 0.52767-0.0625 0.75-0.01936 0.3829-0.03125 0.81002-0.03125 1.2188 0 12.693 10.326 23.062 23 23.062 0.0454 0 0.08016 4.36e-4 0.125 0-3.6e-5 1.05e-4 -0.06247 0.15614-0.0625 0.15625-2.8e-5 1.07e-4 -0.03123 0.12489-0.03125 0.125-1.9e-5 1.09e-4 1.1e-5 0.15614 0 0.15625s-0.03125 0.15614-0.03125 0.15625a0.98812 0.98812 0 0 0 0 0.03125v13.219 0.03125c3e-4 0.02996-2e-6 0.09369 0 0.09375 3e-6 7.5e-5 0.03124 0.09368 0.03125 0.09375 7e-6 7.5e-5 -1.1e-5 0.12493 0 0.125s0.03124 0.09368 0.03125 0.09375c1.5e-5 7.3e-5 -1.9e-5 0.09368 0 0.09375 1.9e-5 7.2e-5 0.03123 0.12493 0.03125 0.125 2.3e-5 7.1e-5 0.03122 0.09368 0.03125 0.09375 2.6e-5 7e-5 0.06247 0.09368 0.0625 0.09375 3e-5 6.9e-5 0.03122 0.09368 0.03125 0.09375 3.4e-5 6.7e-5 0.06246 0.09368 0.0625 0.09375 3.7e-5 6.5e-5 0.06246 0.09369 0.0625 0.09375 4.1e-5 6.3e-5 0.06246 0.09369 0.0625 0.09375 4.4e-5 6.1e-5 0.06245 0.09369 0.0625 0.09375 4.7e-5 5.8e-5 0.06245 0.06244 0.0625 0.0625 5e-5 5.5e-5 0.06245 0.0937 0.0625 0.09375 5.3e-5 5.3e-5 0.09369 0.06245 0.09375 0.0625 5.6e-5 5e-5 0.06244 0.06245 0.0625 0.0625 5.9e-5 4.7e-5 0.09369 0.06246 0.09375 0.0625 6.1e-5 4.3e-5 0.09369 0.06246 0.09375 0.0625 6.3e-5 4e-5 0.09369 0.06246 0.09375 0.0625 6.5e-5 3.7e-5 0.09368 0.03122 0.09375 0.03125 6.7e-5 3.3e-5 0.09368 0.06247 0.09375 0.0625 6.9e-5 2.9e-5 0.09368 0.03122 0.09375 0.03125 7e-5 2.6e-5 0.09368 0.03123 0.09375 0.03125 7.2e-5 2.2e-5 0.12493 0.03123 0.125 0.03125 7.3e-5 1.8e-5 0.09368 0.03124 0.09375 0.03125 7.4e-5 1.4e-5 0.09368-1e-5 0.09375 0 7.4e-5 1e-5 0.12492 0.03124 0.125 0.03125 7.5e-5 6e-6 0.09367-2e-6 0.09375 0 7.5e-5 2e-6 0.09367 2e-6 0.09375 0 7.5e-5 -2e-6 0.12492 6e-6 0.125 0s0.09368-0.03124 0.09375-0.03125c11.676-1.3589 20.75-11.301 20.75-23.344 0-0.14693-0.02115-0.15861-0.03125-0.21875 6e-6 -8.8e-5 0-0.12491 0-0.125-2.39e-4 8.48e-4 -2.82e-4 -0.03471 0-0.03125a0.98812 0.98812 0 0 0 0.03125-0.15625v-15.031-19.031c0-9.9257-8.0895-18.031-18-18.031h-5.9688c-2.6e-5 -1e-6 -0.01927 1e-6 -0.03125 0-0.02395-1e-6 -0.0266 0-0.0625 0-5.3e-5 -2e-6 -0.0266 0-0.0625 0-0.05385-1e-6 -0.09367-4e-6 -0.09375 0z" color="#000000" opacity=".1"/>
<path d="m55.354-7.0274a0.9922 0.9922 0 0 0-0.90625 1v1.1562 3.8438 8.1562c-0.25794 0.01928-0.51534 0.02886-0.78125 0.0625-0.17629 0.02221-0.33223 0.04716-0.4375 0.0625-0.23128 0.03402-0.26694 0.053-0.125 0.03125-0.21869 0.03324-0.30073 0.06574-0.28125 0.0625-0.22608 0.03783-0.48488 0.06423-0.78125 0.125-0.2891 0.05891-0.61 0.1143-0.90625 0.1875-0.63661 0.15805-1.2484 0.34501-1.875 0.5625-0.03344 0.01161-0.12161 0.02773-0.21875 0.0625-0.11658 0.04172-0.16226 0.06471-0.15625 0.0625-0.46199 0.16952-0.92489 0.36186-1.375 0.5625-0.34995 0.15616-0.63727 0.33323-0.90625 0.46875-0.27858 0.14039-0.59634 0.26312-0.90625 0.4375-0.34793 0.19565-0.62488 0.40579-0.875 0.5625-0.34979 0.21911-0.7088 0.44397-1.0938 0.71875 0.02471-0.01761-0.09022 0.01598-0.28125 0.15625-0.41034 0.30178-0.81759 0.62772-1.2188 0.96875-0.0429 0.03643-0.10027 0.08041-0.1875 0.15625-0.40013 0.34812-0.76392 0.73188-1.125 1.0938-0.40678 0.40769-0.81297 0.81085-1.1875 1.25-0.1557 0.18242-0.30268 0.37173-0.40625 0.5-0.19489 0.24148-0.31395 0.46043-0.4375 0.625-0.29562 0.39392-0.60047 0.79609-0.875 1.2188-0.36407 0.56052-0.68936 1.1297-1 1.7188-0.09835 0.18677-0.16981 0.36851-0.25 0.53125-0.20367 0.41285-0.40651 0.83002-0.59375 1.2812-0.04865 0.11726-0.11629 0.21162-0.15625 0.3125-0.44716 1.1278-0.80298 2.3075-1.0625 3.5312-0.01471 0.06937-0.02329 0.14849-0.03125 0.1875 0.04096-0.20044 0.02223-0.17604-0.03125 0.09375-0.06832 0.34277-0.10848 0.65547-0.15625 0.96875-0.03102 0.20335-0.11817 0.45086-0.15625 0.78125-0.01086 0.09427-0.02055 0.20693-0.03125 0.3125-0.0211 0.21245-0.01684 0.23229 0 0.0625-0.03657 0.37187-0.04582 0.70138-0.0625 1.0312-0.01867 0.36935-0.03125 0.76891-0.03125 1.1562 0 12.158 9.8637 22.062 22 22.062 0.51585 0 1.0075-0.03231 1.4688-0.0625-0.01615 0.0011 0.12829 0.02328 0.40625 0 0.39391-0.03268 0.73975-0.10857 1.0938-0.15625 0.19275-0.02619 0.32372-0.05464 0.375-0.0625 0.12054-0.01829 0.22598-0.04201 0.34375-0.0625-0.61438 0.41315-1.2445 0.80838-1.9688 1.0312a0.9922 0.9922 0 0 0-0.71875 0.9375v13.25a0.9922 0.9922 0 0 0 1.125 1c11.185-1.3017 19.875-10.828 19.875-22.375 0-0.13861-0.02358-0.18708-0.03125-0.28125a0.9922 0.9922 0 0 0 0-0.125 0.9922 0.9922 0 0 0 0.03125-0.125v-15.031-19.031c0-9.3908-7.6264-17.031-17-17.031h-6a0.9922 0.9922 0 0 0-0.09375 0z" color="#000000" opacity=".15"/>
<path d="m55.448-6.0274v1.1588 3.8521 9.0509c-0.56208 0.02611-1.1066 0.05573-1.6562 0.12527-0.13463 0.01696-0.27242 0.04314-0.40625 0.06264-0.04283 0.0063-0.08225 0.02477-0.125 0.03132-0.09534 0.01449-0.18634 0.04686-0.28125 0.06264-0.25099 0.042-0.50211 0.07444-0.75 0.12527-0.28122 0.05731-0.56675 0.11946-0.84375 0.18791-0.61417 0.15248-1.221 0.32709-1.8125 0.53241-0.06249 0.02169-0.12528 0.04037-0.1875 0.06264-0.05281 0.0189-0.10363 0.04333-0.15625 0.06264-0.44229 0.1623-0.88471 0.34172-1.3125 0.5324-0.29898 0.13341-0.58361 0.29164-0.875 0.43845-0.2852 0.14372-0.56617 0.28227-0.84375 0.43845-0.2892 0.16263-0.56324 0.35666-0.84375 0.5324-0.3589 0.22481-0.71857 0.44349-1.0625 0.689-0.08043 0.05734-0.17042 0.09815-0.25 0.15659-0.3994 0.29374-0.77905 0.58756-1.1562 0.90822-0.06267 0.05322-0.12546 0.10265-0.1875 0.15659-0.37491 0.32618-0.74285 0.68183-1.0938 1.0335-0.38855 0.38942-0.76777 0.80253-1.125 1.2214-0.12476 0.14616-0.25421 0.28886-0.375 0.43845-0.15477 0.19177-0.28941 0.39779-0.4375 0.59504-0.28574 0.38075-0.55257 0.75858-0.8125 1.1588-0.34598 0.53266-0.67105 1.0953-0.96875 1.6599-0.0873 0.1658-0.16702 0.3327-0.25 0.50109-0.2003 0.40601-0.38809 0.8011-0.5625 1.2214-0.04305 0.10376-0.08357 0.20858-0.125 0.31318-0.42914 1.0824-0.78483 2.2203-1.0312 3.3823-0.01095 0.05163-0.02068 0.10482-0.03125 0.15659-0.0067 0.03279-0.02474 0.06111-0.03125 0.09395-0.062 0.31105-0.1081 0.6237-0.15625 0.93954-0.03876 0.25409-0.09538 0.49463-0.125 0.75163-0.011 0.09551-0.02153 0.18596-0.03125 0.28186-0.0021 0.02114 0.0021 0.04147 0 0.06264-0.03278 0.3333-0.04542 0.6645-0.0625 1.0022-0.01815 0.35894-0.03125 0.73261-0.03125 1.0961 0 11.623 9.402 21.046 21 21.046 0.47061 0 0.9432-0.03233 1.4062-0.06264 0.1254-0.0083 0.25022 0.01045 0.375 0 0.36031-0.02989 0.70754-0.07746 1.0625-0.12527 0.117-0.0159 0.22737-0.04481 0.34375-0.06264 0.34786-0.05278 0.68922-0.11825 1.0312-0.18791 0.31984-0.06559 0.65439-0.10792 0.96875-0.18791 0.0224-0.0057 0.04013-0.02557 0.0625-0.03132 0.15666-0.0404 0.31352-0.08137 0.46875-0.12527 0.28296-0.07988 0.56584-0.15911 0.84375-0.25054 0.08481-0.02791 0.16567-0.065 0.25-0.09395-1.068 1.7864-2.7865 3.1347-4.8125 3.7582v13.247c10.693-1.2444 19-10.34 19-21.39 0-0.17013-0.02733-0.3319-0.03125-0.50109h0.03125v-15.033-19.041c0-8.8558-7.1634-16.035-16-16.035z" color="#000000" opacity=".3"/>
<path d="m55.448-7.0274v1.1588 3.8521 9.0509c-0.56208 0.02611-1.1066 0.05573-1.6562 0.12527-0.13463 0.01696-0.27242 0.04314-0.40625 0.06264-0.04283 0.0063-0.08225 0.02477-0.125 0.03132-0.09534 0.01449-0.18634 0.04686-0.28125 0.06264-0.25099 0.042-0.50211 0.07444-0.75 0.12527-0.28122 0.05731-0.56675 0.11946-0.84375 0.18791-0.61417 0.15248-1.221 0.32709-1.8125 0.53241-0.06249 0.02169-0.12528 0.04037-0.1875 0.06264-0.05281 0.0189-0.10363 0.04333-0.15625 0.06264-0.44229 0.1623-0.88471 0.34172-1.3125 0.5324-0.29898 0.13341-0.58361 0.29164-0.875 0.43845-0.2852 0.14372-0.56617 0.28227-0.84375 0.43845-0.2892 0.16263-0.56324 0.35666-0.84375 0.5324-0.3589 0.22481-0.71857 0.44349-1.0625 0.689-0.08043 0.05734-0.17042 0.09815-0.25 0.15659-0.3994 0.29374-0.77905 0.58756-1.1562 0.90822-0.06267 0.05322-0.12546 0.10265-0.1875 0.15659-0.37491 0.32618-0.74285 0.68183-1.0938 1.0335-0.38855 0.38942-0.76777 0.80253-1.125 1.2214-0.12476 0.14616-0.25421 0.28886-0.375 0.43845-0.15477 0.19177-0.28941 0.39779-0.4375 0.59504-0.28574 0.38075-0.55257 0.75858-0.8125 1.1588-0.34598 0.53266-0.67105 1.0953-0.96875 1.6599-0.0873 0.1658-0.16702 0.3327-0.25 0.50109-0.2003 0.40601-0.38809 0.8011-0.5625 1.2214-0.04305 0.10376-0.08357 0.20858-0.125 0.31318-0.42914 1.0824-0.78483 2.2203-1.0312 3.3823-0.01095 0.05163-0.02068 0.10482-0.03125 0.15659-0.0067 0.03279-0.02474 0.06111-0.03125 0.09395-0.062 0.31105-0.1081 0.6237-0.15625 0.93954-0.03876 0.25409-0.09538 0.49463-0.125 0.75163-0.011 0.09551-0.02153 0.18596-0.03125 0.28186-0.0021 0.02114 0.0021 0.04147 0 0.06264-0.03278 0.3333-0.04542 0.6645-0.0625 1.0022-0.01815 0.35894-0.03125 0.73261-0.03125 1.0961 0 11.623 9.402 21.046 21 21.046 0.47061 0 0.9432-0.03233 1.4062-0.06264 0.1254-0.0083 0.25022 0.01045 0.375 0 0.36031-0.02989 0.70754-0.07746 1.0625-0.12527 0.117-0.0159 0.22737-0.04481 0.34375-0.06264 0.34786-0.05278 0.68922-0.11825 1.0312-0.18791 0.31984-0.06559 0.65439-0.10792 0.96875-0.18791 0.0224-0.0057 0.04013-0.02557 0.0625-0.03132 0.15666-0.0404 0.31352-0.08137 0.46875-0.12527 0.28296-0.07988 0.56584-0.15911 0.84375-0.25054 0.08481-0.02791 0.16567-0.065 0.25-0.09395-1.068 1.7864-2.7865 3.1347-4.8125 3.7582v13.247c10.693-1.2444 19-10.34 19-21.39 0-0.17013-0.02733-0.3319-0.03125-0.50109h0.03125v-15.033-19.041c0-8.8558-7.1634-16.035-16-16.035z" color="#000000" fill="#fff"/>
<path d="m56.323 8.9726c-10.435 0.068061-18.875 8.5488-18.875 19 0 10.493 8.5066 19 19 19 3.6597 0 7.069-1.0509 9.9688-2.8438-0.24093 3.9035-2.6118 7.2142-5.9688 8.8125v9.4688c8.4427-1.9952 14.741-9.4414 14.969-18.438h0.0312v-0.5-15.5l5e-5 -19z" color="#000000" fill="url(#linearGradient3798-9)"/>
<path d="m57.448-5.0274v0.3125 13.688 9.0625c-0.32631-0.03213-0.66524-0.0625-1-0.0625-5.5228 0-10 4.4772-10 10s4.4772 10 10 10 10-4.4772 10-10v-19h8.9688c-0.51743-7.8153-7.0225-14-14.969-14z" color="#000000" fill="url(#radialGradient3740-8)"/>
<path d="m55.448 24.473a2.5 2.5 0 1 1-5 0 2.5 2.5 0 1 1 5 0z" color="#000000" fill="url(#radialGradient3742-4)"/>
<path d="m53.074 21.473c1.5971 0.06742 2.875 1.3863 2.875 3 0 1.6569-1.3431 3-3 3-1.6137 0-2.9326-1.2779-3-2.875-0.0016 0.04196 0 0.08265 0 0.125 0 1.7949 1.4551 3.25 3.25 3.25s3.25-1.4551 3.25-3.25-1.4551-3.25-3.25-3.25c-0.04235 0-0.08304-0.0016-0.125 0z" color="#000000" fill="#fff" opacity=".1"/>
<path d="m16.187-13.166c-3.6801 0-6.6429 2.9627-6.6429 6.6429v16.607h1.1071v-16.607c0-3.0859 2.4498-5.5357 5.5357-5.5357h79.714c3.0859 0 5.5357 2.4498 5.5357 5.5357v16.607h1.1071v-16.607c0-3.6801-2.9627-6.6429-6.6429-6.6429z" fill="url(#radialGradient3827)" opacity=".45"/>
<path d="m9.544 67.178v6c0 3.6801 2.9761 6.6562 6.6562 6.6562h79.688c3.6801 0 6.6563-2.9761 6.6563-6.6562v-6c0 3.6801-2.9761 6.6562-6.6563 6.6562h-79.688c-3.6801 0-6.6562-2.9761-6.6562-6.6562z" fill="url(#linearGradient3829)" opacity=".89091"/>
<rect x="13.419" y="65.584" width="84.25" height="4.25" rx="0" ry="4.25" fill="url(#radialGradient3831)" opacity=".55"/>
<rect transform="rotate(90)" x="-9.9156" y="-98.669" width="76.75" height="4.25" rx="0" ry="4.25" fill="url(#radialGradient3833)" opacity=".55"/>
<rect transform="matrix(.9093 0 0 .92838 12.389 19.829)" x="2" y="-30" width="92" height="92" rx="3.957" ry="3.957" clip-path="url(#clipPath4156-4)" fill="url(#linearGradient3837)"/>
<path d="m17.869-9.9361c-3.1166 0-5.668 2.5395-5.668 5.646v69.278c0 3.1065 2.5513 5.646 5.668 5.646h76.792c3.1166 0 5.668-2.5395 5.668-5.646v-69.278c0-3.1065-2.5513-5.646-5.668-5.646zm0 2.3194h76.792c1.8881 0 3.352 1.4801 3.352 3.3266v69.278c0 1.8465-1.4639 3.3266-3.352 3.3266h-76.792c-1.8881 0-3.352-1.4801-3.352-3.3266v-69.278c0-1.8465 1.4639-3.3266 3.352-3.3266z" color="#000000" fill="#241f1f" fill-opacity=".63265" style="text-decoration-line:none;text-indent:0;text-transform:none"/>
</g>
</g>
<g display="none">
<rect x="5" y="7" width="86" height="85" rx="6" ry="6" fill="url(#ButtonShadow)" filter="url(#filter3174-36)" opacity=".9"/>
</g>
<g display="none">
<rect x="5" y="7" width="86" height="85" rx="6" ry="6" fill="url(#ButtonShadow)" filter="url(#filter3174-07)" opacity=".9"/>
</g>
<g display="none">
<rect x="5" y="7" width="86" height="85" rx="6" ry="6" fill="url(#ButtonShadow)" filter="url(#filter3174)" opacity=".9"/>
</g>
</svg>
