<?xml version="1.0" encoding="UTF-8"?>
<!-- Created with Inkscape (http://www.inkscape.org/) -->
<svg version="1.1" viewBox="0 0 96 96" xmlns="http://www.w3.org/2000/svg" xmlns:cc="http://creativecommons.org/ns#" xmlns:dc="http://purl.org/dc/elements/1.1/" xmlns:rdf="http://www.w3.org/1999/02/22-rdf-syntax-ns#" xmlns:xlink="http://www.w3.org/1999/xlink">
<defs>
<linearGradient id="linearGradient12946">
<stop stop-color="#fff" offset="0"/>
<stop stop-color="#fff" stop-opacity="0" offset="1"/>
</linearGradient>
<linearGradient id="linearGradient4071" x1="6" x2="90" y1="47" y2="47" gradientTransform="matrix(1.1071 0 0 1.1071 -4.9939 -3.6207)" gradientUnits="userSpaceOnUse">
<stop stop-color="#b2babc" offset="0"/>
<stop stop-color="#fff" offset=".25"/>
<stop stop-color="#96a1a4" offset=".5"/>
<stop stop-color="#fbf9f9" offset=".75"/>
<stop stop-color="#b2b9bc" offset="1"/>
</linearGradient>
<linearGradient id="linearGradient4129" x1="1.5" x2="94.5" y1="88.172" y2="88.172" gradientTransform="translate(.14895 .41503)" gradientUnits="userSpaceOnUse">
<stop offset="0"/>
<stop stop-opacity=".58824" offset=".1"/>
<stop stop-opacity=".58824" offset=".9"/>
<stop offset="1"/>
</linearGradient>
<radialGradient id="radialGradient7462" cx="13.948" cy="44.893" r="43.199" gradientTransform="matrix(.97513 0 0 .049191 34.048 80.582)" gradientUnits="userSpaceOnUse" xlink:href="#linearGradient12946"/>
<radialGradient id="radialGradient7464" cx="13.948" cy="44.893" r="43.199" gradientTransform="matrix(.88833 0 0 .049191 31.96 -90.317)" gradientUnits="userSpaceOnUse" xlink:href="#linearGradient12946"/>
<linearGradient id="linearGradient4767" x1="2.7714" x2="50.528" y1="-28.642" y2="14.514" gradientUnits="userSpaceOnUse" xlink:href="#linearGradient12946"/>
<clipPath id="clipPath4156-4-1">
<path d="m27.046-55.695-14.214 13.321h0.06127l15.653 21.771 10.231-10.546c-0.2169-1.1522-11.311-23.67-11.732-24.546zm-17.399 16.313-14.888 14.062 21.229 17.515 10.385-10.577zm31.491 12.951-9.7413 9.7136 8.9448 12.458 7.7808-7.555zm-49.84 4.3788-13.754 12.982 26.283 13.846 0.06127-0.0617-0.12253-0.0617 9.8332-10.053-22.301-16.652zm38.015 7.4008-9.8025 9.7753 11.579 9.5594 7.6276-7.4008-8.6691-11.009zm20.187 5.674-7.3825 7.2158 6.1878 8.5418 5.8202-6.1365zm-32.195 6.3215-9.5575 9.4977 13.662 7.185 7.9339-7.6784zm23.312 2.3744-7.1068 6.9383 8.3628 6.9074 5.3608-5.674-0.06127-0.0925-0.0919 0.12335-6.4635-8.2026zm-8.7304 8.5418-7.5051 7.3392 10.354 5.4581c1.3975-1.321 5.6751-6.1229 5.8509-6.3215z" fill="#fff" opacity=".6"/>
</clipPath>
<radialGradient id="radialGradient4882" cx="24.25" cy="39.5" r="19.75" gradientTransform="matrix(1 0 0 .34177 0 26)" gradientUnits="userSpaceOnUse">
<stop offset="0"/>
<stop stop-opacity="0" offset="1"/>
</radialGradient>
</defs>
<metadata>
<rdf:RDF>
<cc:Work rdf:about="">
<dc:format>image/svg+xml</dc:format>
<dc:type rdf:resource="http://purl.org/dc/dcmitype/StillImage"/>
<dc:creator>
<cc:Agent>
<dc:title>Jakub Steiner</dc:title>
</cc:Agent>
</dc:creator>
<dc:source>http://jimmac.musichall.cz</dc:source>
<cc:license rdf:resource="http://creativecommons.org/licenses/GPL/2.0/"/>
<dc:title>IM - ICQ</dc:title>
</cc:Work>
<cc:License rdf:about="http://creativecommons.org/licenses/GPL/2.0/">
<cc:permits rdf:resource="http://web.resource.org/cc/Reproduction"/>
<cc:permits rdf:resource="http://web.resource.org/cc/Distribution"/>
<cc:requires rdf:resource="http://web.resource.org/cc/Notice"/>
<cc:permits rdf:resource="http://web.resource.org/cc/DerivativeWorks"/>
<cc:requires rdf:resource="http://web.resource.org/cc/ShareAlike"/>
<cc:requires rdf:resource="http://web.resource.org/cc/SourceCode"/>
</cc:License>
</rdf:RDF>
</metadata>
<g transform="translate(0,48)">
<g transform="translate(0,-48)">
<g transform="translate(-4.4706e-7 32)">
<g transform="matrix(.97513 0 0 .97661 33.899 9.6574)">
<g transform="matrix(1.0255 0 0 1.024 -34.916 -43.08)">
<path d="m89.292 0.41503h-82.286c-3.7988 0-6.8571 3.0583-6.8571 6.8571v82.286c0 3.7989 3.0583 6.8571 6.8571 6.8571h82.286c3.7989 0 6.8571-3.0583 6.8571-6.8571v-82.286c0-3.7989-3.0583-6.8571-6.8571-6.8571z" opacity=".15"/>
<path d="m88.649 1.165h-81c-3.7395 0-6.75 3.0105-6.75 6.75v81c0 3.7395 3.0105 6.75 6.75 6.75h81c3.7395 0 6.75-3.0105 6.75-6.75v-81c0-3.7395-3.0105-6.75-6.75-6.75z" opacity=".15"/>
<path d="m88.006 1.915h-79.714c-3.6801 0-6.6429 2.9627-6.6429 6.6429v79.714c0 3.6801 2.9627 6.6429 6.6429 6.6429h79.714c3.6801 0 6.6429-2.9627 6.6429-6.6429v-79.714c0-3.6801-2.9627-6.6429-6.6429-6.6429z" fill="url(#linearGradient4071)"/>
<path d="m11.39 6.8022c-2.8565 0-5.1241 2.2884-5.1241 5.171v68.58c1.0972 1.6845 2.9688 2.8117 5.1241 2.8117h73.787c2.1553 0 4.0269-1.1272 5.1241-2.8117v-68.58c0-2.8826-2.2676-5.171-5.1241-5.171z" fill="#f5f3f3" opacity=".77865"/>
<path d="m9.974 5.1445c-3.1166 0-5.668 2.5395-5.668 5.646v69.278c0 3.1065 2.5513 5.646 5.668 5.646h76.792c3.1166 0 5.668-2.5395 5.668-5.646v-69.278c0-3.1065-2.5513-5.646-5.668-5.646zm0 2.3194h76.792c1.8881 0 3.352 1.4801 3.352 3.3266v69.278c0 1.8465-1.4639 3.3266-3.352 3.3266h-76.792c-1.8881 0-3.352-1.4801-3.352-3.3266v-69.278c0-1.8465 1.4639-3.3266 3.352-3.3266z" color="#000000" fill="#241f1f" fill-opacity=".63265" style="text-decoration-line:none;text-indent:0;text-transform:none"/>
<path d="m1.649 82.259v6c0 3.6801 2.9761 6.6562 6.6562 6.6562h79.687c3.6801 0 6.6563-2.9761 6.6563-6.6562v-6c0 3.6801-2.9761 6.6562-6.6563 6.6562h-79.687c-3.6801 0-6.6562-2.9761-6.6562-6.6562z" fill="url(#linearGradient4129)" opacity=".65818"/>
<g transform="matrix(1.5903 0 0 1.6149 9.5995 9.1915)">
<path d="m22.405 25.633-14.884 3.4606c-2.7668 0.1243-5.0943-2.0031-5.2186-4.7699-0.1243-2.7668 2.0031-5.0943 4.7699-5.2186l15.134 2.112c1.2232-0.05495 2.2522 0.88557 2.3072 2.1088 0.05495 1.2232-0.88557 2.2522-2.1088 2.3072z" color="#000000" fill="#edd400" fill-rule="evenodd" stroke="#fcaf3e" stroke-linecap="round" stroke-linejoin="round"/>
<path d="m24.467 20.28 4.2194-14.687c1.2378-2.4776 4.2289-3.4758 6.7065-2.238 2.4776 1.2378 3.4758 4.2289 2.238 6.7065l-9.2095 12.194c-0.54722 1.0954-1.8696 1.5367-2.965 0.98945-1.0954-0.54722-1.5367-1.8696-0.98945-2.965z" color="#000000" fill="#edd400" fill-rule="evenodd" stroke="#fcaf3e" stroke-linecap="round" stroke-linejoin="round"/>
<path d="m19.519 23.348-11.183-4.1512c-1.8555-1.1097-2.4559-3.4968-1.3462-5.3523 1.1097-1.8555 3.4968-2.4559 5.3523-1.3462l8.9478 7.8882c0.82032 0.4906 1.0858 1.546 0.59515 2.3663-0.4906 0.82032-1.546 1.0858-2.3663 0.59515z" color="#000000" fill="#edd400" fill-rule="evenodd" stroke="#fcaf3e" stroke-linecap="round" stroke-linejoin="round"/>
<path d="m21.392 22.256-9.7475-11.768c-1.3477-2.4196-0.48479-5.4525 1.9348-6.8002 2.4196-1.3477 5.4525-0.48479 6.8002 1.9348l4.8743 14.483c0.59583 1.0697 0.21433 2.4106-0.85538 3.0064-1.0697 0.59583-2.4106 0.21433-3.0064-0.85538z" color="#000000" fill="#edd400" fill-rule="evenodd" stroke="#fcaf3e" stroke-linecap="round" stroke-linejoin="round"/>
<path d="m26.16 21.539 15.024-2.7891c2.7696 0 4.9993 2.2297 4.9993 4.9993s-2.2297 4.9993-4.9993 4.9993l-15.024-2.7891c-1.2245 0-2.2102-0.98576-2.2102-2.2102s0.98576-2.2102 2.2102-2.2102z" color="#000000" fill="#edd400" fill-rule="evenodd" stroke="#fcaf3e" stroke-linecap="round" stroke-linejoin="round"/>
<path d="m27.368 19.621 9.0682-7.7495c1.8723-1.081 4.2499-0.44392 5.3309 1.4284 1.081 1.8723 0.44392 4.2499-1.4284 5.3309l-11.245 3.9785c-0.82777 0.47791-1.8789 0.19626-2.3568-0.63151-0.47791-0.82777-0.19626-1.8789 0.63151-2.3568z" color="#000000" fill="#edd400" fill-rule="evenodd" stroke="#fcaf3e" stroke-linecap="round" stroke-linejoin="round"/>
<path d="m23.527 20.093-2.5176-11.66c-0.06291-2.1611 1.6262-3.9515 3.7873-4.0144 2.1611-0.062915 3.9515 1.6262 4.0144 3.7873l-1.835 11.786c0.02782 0.95542-0.71896 1.747-1.6744 1.7748-0.95542 0.02782-1.747-0.71896-1.7748-1.6744z" color="#000000" fill="#edd400" fill-rule="evenodd" stroke="#fcaf3e" stroke-linecap="round" stroke-linejoin="round"/>
<ellipse transform="matrix(1,0,0,1.5,0,-23.125)" cx="24.25" cy="39.5" rx="19.75" ry="6.75" color="#000000" fill="url(#radialGradient4882)" fill-rule="evenodd" opacity=".53846"/>
<path d="m25.462 26.081-3.9938 14.75c-1.1997 2.4963-4.1751 3.5402-6.6714 2.3405s-3.5402-4.1751-2.3405-6.6714l9.0216-12.334c0.53037-1.1036 1.8458-1.5651 2.9495-1.0348 1.1036 0.53037 1.5651 1.8458 1.0348 2.9495z" color="#000000" fill="#edd400" fill-rule="evenodd" stroke="#fcaf3e" stroke-linecap="round" stroke-linejoin="round"/>
<path d="m22.083 27.542-8.9484 7.8876c-1.8556 1.1096-4.2426 0.50899-5.3522-1.3466-1.1096-1.8556-0.50899-4.2426 1.3466-5.3522l11.183-4.1504c0.82035-0.49054 1.8757-0.22503 2.3662 0.59532 0.49054 0.82035 0.22503 1.8757-0.59532 2.3662z" color="#000000" fill="#edd400" fill-rule="evenodd" stroke="#fcaf3e" stroke-linecap="round" stroke-linejoin="round"/>
<path d="m28.506 24.058 9.9267 11.618c1.3846 2.3987 0.56829 5.4444-1.8304 6.829-2.3987 1.3846-5.4444 0.56829-6.829-1.8304l-5.0956-14.406c-0.61215-1.0605-0.25124-2.407 0.80921-3.0192 1.0605-0.61215 2.407-0.25124 3.0192 0.80921z" color="#000000" fill="#edd400" fill-rule="evenodd" stroke="#fcaf3e" stroke-linecap="round" stroke-linejoin="round"/>
<path d="m26.404 26.253 2.6959 11.62c0.09602 2.1599-1.5655 3.976-3.7253 4.072-2.1599 0.09602-3.976-1.5655-4.072-3.7253l1.6541-11.813c-0.04245-0.95488 0.6921-1.7578 1.647-1.8002 0.95488-0.04245 1.7578 0.6921 1.8002 1.647z" color="#000000" fill="#edd400" fill-rule="evenodd" stroke="#fcaf3e" stroke-linecap="round" stroke-linejoin="round"/>
<path d="m29.613 23.188 11.245 3.9793c1.8723 1.0811 2.5092 3.4588 1.428 5.331-1.0811 1.8723-3.4588 2.5092-5.331 1.428l-9.0676-7.7502c-0.82774-0.47797-1.1093-1.5291-0.63134-2.3569 0.47797-0.82774 1.5291-1.1093 2.3569-0.63134z" color="#000000" fill="#edd400" fill-rule="evenodd" stroke="#fcaf3e" stroke-linecap="round" stroke-linejoin="round"/>
<circle transform="matrix(.6486 0 0 .6486 8.8256 8.1687)" cx="24.749" cy="23.251" r="8.6621" color="#000000" fill="#edd400" fill-rule="evenodd" stroke="#fcaf3e" stroke-linecap="round" stroke-linejoin="round" stroke-width="1.5418"/>
<circle transform="matrix(.5297 0 0 .5297 11.768 10.933)" cx="24.749" cy="23.251" r="8.6621" color="#000000" fill="none" opacity=".36264" stroke="#fff" stroke-linecap="round" stroke-linejoin="round" stroke-width="1.8879"/>
</g>
<rect x="5.524" y="80.665" width="84.25" height="4.25" rx="0" ry="4.25" fill="url(#radialGradient7462)" opacity=".55"/>
<rect transform="rotate(90)" x="5.975" y="-90.234" width="76.75" height="4.25" rx="0" ry="4.25" fill="url(#radialGradient7464)" opacity=".669"/>
<rect transform="matrix(1.0692 0 0 1.0477 4.4442 38.894)" x="2" y="-30" width="75.966" height="69.024" rx="3.957" ry="3.957" clip-path="url(#clipPath4156-4-1)" fill="url(#linearGradient4767)" opacity=".50781"/>
</g>
</g>
</g>
</g>
</g>
</svg>
