<?xml version="1.0" encoding="UTF-8"?>
<!-- Created with Inkscape (http://www.inkscape.org/) -->
<svg version="1.0" viewBox="0 0 96 96" xmlns="http://www.w3.org/2000/svg" xmlns:cc="http://creativecommons.org/ns#" xmlns:dc="http://purl.org/dc/elements/1.1/" xmlns:rdf="http://www.w3.org/1999/02/22-rdf-syntax-ns#" xmlns:xlink="http://www.w3.org/1999/xlink">
<defs>
<linearGradient id="linearGradient3737">
<stop stop-color="#fff" offset="0"/>
<stop stop-color="#fff" stop-opacity="0" offset="1"/>
</linearGradient>
<linearGradient id="linearGradient3188" x1="36.357" x2="36.357" y1="6" y2="63.893" gradientUnits="userSpaceOnUse" xlink:href="#linearGradient3737"/>
<filter id="filter3794" x="-.192" y="-.192" width="1.384" height="1.384">
<feGaussianBlur stdDeviation="5.28"/>
</filter>
<linearGradient id="linearGradient3613" x1="48" x2="48" y1="20.221" y2="138.66" gradientUnits="userSpaceOnUse" xlink:href="#linearGradient3737"/>
<radialGradient id="radialGradient3619" cx="48" cy="90.172" r="42" gradientTransform="matrix(1.1573 0 0 .99591 -7.551 .19713)" gradientUnits="userSpaceOnUse" xlink:href="#linearGradient3737"/>
<clipPath id="clipPath3613">
<rect x="6" y="6" width="84" height="84" rx="6" ry="6" fill="#fff"/>
</clipPath>
<radialGradient id="radialGradient3584" cx="11.312" cy="14.938" r="1.4375" gradientUnits="userSpaceOnUse" xlink:href="#linearGradient3299"/>
<linearGradient id="linearGradient3578" x1="13.125" x2="19.25" y1="9.9419" y2="24.5" gradientTransform="matrix(.81331 0 0 .81133 3.9935 2.0282)" gradientUnits="userSpaceOnUse">
<stop stop-color="#919191" offset="0"/>
<stop stop-color="#232323" offset="1"/>
</linearGradient>
<linearGradient id="linearGradient3576" x1="11" x2="16" y1="10.442" y2="24" gradientTransform="matrix(.81331 0 0 .81133 3.9935 2.0282)" gradientUnits="userSpaceOnUse" xlink:href="#linearGradient6139-0"/>
<linearGradient id="linearGradient3574" x1="48" x2="48" y1="16" y2="11.925" gradientTransform="matrix(1 0 0 1.25 0 4.4018)" gradientUnits="userSpaceOnUse" xlink:href="#linearGradient3260"/>
<linearGradient id="linearGradient3572" x1="48" x2="48" y1="16" y2="11.925" gradientTransform="matrix(1 0 0 1.25 0 -4.5982)" gradientUnits="userSpaceOnUse" xlink:href="#linearGradient3260"/>
<linearGradient id="linearGradient3570" x1="50.464" x2="50.464" y1="16.036" y2="20.33" gradientTransform="translate(0 -.67857)" gradientUnits="userSpaceOnUse">
<stop stop-color="#fff" offset="0"/>
<stop stop-color="#fff" stop-opacity=".49804" offset=".3"/>
<stop stop-color="#fff" stop-opacity="0" offset="1"/>
</linearGradient>
<linearGradient id="linearGradient3568" x1="43.477" x2="43.477" y1="26" y2="34.001" gradientTransform="matrix(.72414 0 0 .75 1.6552 4.5)" gradientUnits="userSpaceOnUse" xlink:href="#linearGradient3260"/>
<linearGradient id="linearGradient3299">
<stop stop-color="#dfdfdf" offset="0"/>
<stop stop-color="#434343" offset="1"/>
</linearGradient>
<linearGradient id="linearGradient3260" gradientUnits="userSpaceOnUse">
<stop offset="0"/>
<stop stop-opacity=".35484" offset=".2"/>
<stop stop-opacity="0" offset=".55255"/>
<stop stop-opacity="0" offset="1"/>
</linearGradient>
<filter id="filter3174-4" color-interpolation-filters="sRGB">
<feGaussianBlur stdDeviation="1.71"/>
</filter>
<linearGradient id="ButtonShadow-3" x1="45.448" x2="45.448" y1="92.54" y2="7.0165" gradientTransform="scale(1.0059 .99417)" gradientUnits="userSpaceOnUse">
<stop offset="0"/>
<stop stop-opacity=".58824" offset="1"/>
</linearGradient>
<linearGradient id="linearGradient4110" x1="62" x2="62" y1="8" y2="68" gradientTransform="matrix(1.1857 0 0 1.1642 -42.22 -46.722)" gradientUnits="userSpaceOnUse">
<stop stop-color="#fff" offset="0"/>
<stop stop-color="#fff" stop-opacity="0" offset="1"/>
</linearGradient>
<linearGradient id="linearGradient4108" x1="6" x2="90" y1="47" y2="47" gradientTransform="matrix(1.1354 0 0 1.1159 -40.037 -45.206)" gradientUnits="userSpaceOnUse">
<stop stop-color="#fff" stop-opacity="0" offset="0"/>
<stop stop-color="#fff" stop-opacity=".85135" offset=".036815"/>
<stop stop-color="#fff" stop-opacity="0" offset=".065061"/>
<stop stop-color="#fff" stop-opacity="0" offset=".94494"/>
<stop stop-color="#fff" stop-opacity=".85135" offset=".96582"/>
<stop stop-color="#fff" stop-opacity="0" offset="1"/>
</linearGradient>
<linearGradient id="linearGradient4104" x1="-94" x2="-10.188" y1="82.984" y2="82.984" gradientTransform="matrix(1 0 0 .73089 200 23.097)" gradientUnits="userSpaceOnUse">
<stop offset="0"/>
<stop stop-opacity=".58824" offset=".1"/>
<stop stop-opacity=".58824" offset=".9"/>
<stop offset="1"/>
</linearGradient>
<radialGradient id="radialGradient4102" cx="48" cy="-27" r="42" gradientTransform="matrix(-1.0722 0 0 -.87502 199.46 -19.126)" gradientUnits="userSpaceOnUse">
<stop stop-color="#fff" offset="0"/>
<stop stop-color="#fff" offset=".8"/>
<stop stop-color="#fff" stop-opacity="0" offset="1"/>
</radialGradient>
<radialGradient id="radialGradient4100" cx="158" cy="6.2132" r="41" gradientTransform="matrix(0 1.6209 -2.0383 0 160.66 -243.04)" gradientUnits="userSpaceOnUse">
<stop stop-color="#fff" offset="0"/>
<stop stop-color="#fff" stop-opacity="0" offset="1"/>
</radialGradient>
<linearGradient id="linearGradient4098" x1="6" x2="90" y1="47" y2="47" gradientTransform="matrix(1.1354 0 0 1.1337 -40.037 -46.788)" gradientUnits="userSpaceOnUse" xlink:href="#linearGradient6139-0"/>
<linearGradient id="linearGradient6139-0">
<stop stop-color="#b7b7b7" offset="0"/>
<stop stop-color="#fff" offset=".25"/>
<stop stop-color="#9d9d9d" offset=".5"/>
<stop stop-color="#fafafa" offset=".75"/>
<stop stop-color="#b7b7b7" offset="1"/>
</linearGradient>
<radialGradient id="radialGradient4420-8" cx="46.832" cy="47.498" r="23.735" gradientTransform="matrix(1.3924 0 0 1.6729 -18.378 -31.962)" gradientUnits="userSpaceOnUse" xlink:href="#linearGradient3737"/>
</defs>
<metadata>
<rdf:RDF>
<cc:Work rdf:about="">
<dc:format>image/svg+xml</dc:format>
<dc:type rdf:resource="http://purl.org/dc/dcmitype/StillImage"/>
<dc:title/>
</cc:Work>
</rdf:RDF>
</metadata>
<g>
<g transform="translate(-2.5986e-7 80)">
<g transform="matrix(1.0034 0 0 1.005 33.489 -38.527)">
<path d="m55.463-41.269h-82.003c-3.7858 0-6.8336 3.0432-6.8336 6.8233v81.88c0 3.7801 3.0478 6.8233 6.8336 6.8233h82.003c3.7858 0 6.8336-3.0432 6.8336-6.8233v-81.88c0-3.7801-3.0478-6.8233-6.8336-6.8233z" opacity=".15"/>
<path d="m54.822-40.522h-80.722c-3.7267 0-6.7268 2.9956-6.7268 6.7167v80.6c0 3.721 3.0002 6.7167 6.7268 6.7167h80.722c3.7267 0 6.7268-2.9956 6.7268-6.7167v-80.6c0-3.721-3.0002-6.7167-6.7268-6.7167z" opacity=".15"/>
<g transform="matrix(.97179 0 0 .97179 .40799 .18323)">
<path d="m55.334-41.119h-81.747c-3.774 0-6.8123 3.0337-6.8123 6.802v81.624c0 3.7683 3.0383 6.802 6.8123 6.802h81.747c3.774 0 6.8123-3.0337 6.8123-6.802v-81.624c0-3.7683-3.0383-6.802-6.8123-6.802z" fill="url(#linearGradient4098)"/>
<g transform="matrix(1.1354 0 0 1.1337 -153.57 -46.221)">
<path d="m112 5.5c-2.7873 0-5 2.2127-5 5v20.719 7 38.594c1.0707 1.6288 2.8969 2.7188 5 2.7188h4 64 4c2.1031 0 3.9293-1.09 5-2.7188v-38.594-7-20.719c0-2.7873-2.2127-5-5-5z" fill="url(#radialGradient4100)" opacity=".2"/>
<path d="m112 4.5c-3.324 0-6 2.676-6 6v15h1v-15c0-2.7873 2.2127-5 5-5h72c2.7873 0 5 2.2127 5 5v15h1v-15c0-3.324-2.676-6-6-6h-72z" fill="url(#radialGradient4102)" opacity=".45"/>
<path d="m106 78.998v0.73089 0.73089 0.73089 1.4618 1.4618c0 2.4295 2.676 4.3853 6 4.3853h72c3.324 0 6-1.9559 6-4.3853v-1.4618-1.4618-0.73089-0.73089-0.73089c0 2.4295-2.676 4.3853-6 4.3853h-72c-3.324 0-6-1.9559-6-4.3853z" fill="url(#linearGradient4104)" opacity=".46965"/>
</g>
<path d="m-25.62-37.409h80.627c2.6275 0 4.7428 2.0633 4.7428 4.6262v71.706c0 2.5629-2.1153 4.6262-4.7428 4.6262h-80.627c-2.6275 0-4.7428-2.0633-4.7428-4.6262v-71.706c0-2.5629 2.1153-4.6262 4.7428-4.6262z" color="#000000" fill="#2e3436"/>
<g transform="matrix(1.0078 0 0 .94746 23.477 2.4043)">
<path d="m-20.343-13.565c-0.32745 3e-6 -0.58038 0.04519-0.76913 0.12799-0.18732 0.08138-0.32224 0.17579-0.41661 0.31999-0.09294 0.14278-0.16024 0.31865-0.16024 0.47998 0 0.24557 0.1054 0.4175 0.28842 0.57597 0.1816 0.15848 0.4712 0.28832 0.89731 0.38398 0.26024 0.05711 0.44125 0.12775 0.51275 0.19199 0.0715 0.06425 0.09614 0.14261 0.09614 0.22399-2e-6 0.08566-0.02036 0.15831-0.09614 0.22399-0.07436 0.06425-0.18177 0.096-0.32047 0.096-0.18589 1e-6 -0.34857-0.06492-0.44866-0.19199-0.06149-0.07853-0.10817-0.20207-0.12819-0.35198l-0.89731 0.064c0.02717 0.31696 0.11456 0.59437 0.32047 0.79996 0.2059 0.20559 0.58686 0.28799 1.1216 0.28799 0.30456 0 0.56894-0.04091 0.76912-0.128 0.20018-0.08852 0.33712-0.21408 0.44866-0.38398 0.11153-0.1699 0.19228-0.34266 0.19228-0.54398-4e-6 -0.17133-0.04383-0.34149-0.12819-0.47998-0.08293-0.13849-0.23216-0.25918-0.41661-0.35198-0.18303-0.09422-0.47264-0.16461-0.89731-0.25599-0.17159-0.03568-0.27471-0.08658-0.32047-0.12799-0.04718-0.03997-0.09614-0.07803-0.09614-0.12799 0-0.06853 0.03895-0.14487 0.09614-0.19199 0.05719-0.04854 0.14341-0.064 0.25638-0.064 0.13727 0 0.24325 0.03175 0.32047 0.096 0.07865 0.06425 0.13592 0.17864 0.16023 0.31999l0.89731-0.064c-0.04004-0.32552-0.1409-0.55548-0.35252-0.70397-0.2102-0.1499-0.52756-0.22399-0.92936-0.22399zm15.35 0c-0.51047 3e-6 -0.89976 0.13044-1.1857 0.41598-0.28598 0.28555-0.44866 0.70339-0.44866 1.2159 0 0.36693 0.07991 0.65182 0.22433 0.89596 0.14442 0.24414 0.3452 0.43118 0.57684 0.54398 0.23307 0.11279 0.51065 0.15999 0.86526 0.15999 0.34889 0 0.63219-0.06207 0.86527-0.19199 0.2345-0.13135 0.42182-0.30983 0.5448-0.54398 0.1244-0.23558 0.19228-0.52903 0.19228-0.89596-4e-6 -0.50542-0.1335-0.90411-0.41661-1.1839-0.28312-0.28126-0.69444-0.41598-1.2178-0.41598zm3.4611 0c-0.32745 3e-6 -0.61243 0.04519-0.80117 0.12799-0.18732 0.08138-0.32223 0.17579-0.41661 0.31999-0.09294 0.14278-0.12819 0.31865-0.12819 0.47998 0 0.24557 0.07335 0.4175 0.25638 0.57597 0.1816 0.15848 0.50325 0.28832 0.92936 0.38398 0.26024 0.05711 0.4092 0.12775 0.4807 0.19199 0.0715 0.06425 0.12818 0.14261 0.12819 0.22399-3e-6 0.08566-0.0524 0.15831-0.12819 0.22399-0.07436 0.06425-0.18177 0.096-0.32047 0.096-0.18589 1e-6 -0.31652-0.06492-0.41661-0.19199-0.06149-0.07853-0.10817-0.20207-0.12819-0.35198l-0.92936 0.064c0.02717 0.31696 0.14661 0.59437 0.35252 0.79996 0.2059 0.20559 0.58686 0.28799 1.1216 0.28799 0.30456 0 0.53689-0.04091 0.73708-0.128 0.20018-0.08852 0.36917-0.21408 0.4807-0.38398 0.11153-0.1699 0.16023-0.34266 0.16023-0.54398-3e-6 -0.17133-0.04383-0.34149-0.12819-0.47998-0.08293-0.13849-0.20011-0.25918-0.38456-0.35198-0.18303-0.09422-0.50468-0.16461-0.92936-0.25599-0.17159-0.03568-0.27471-0.08658-0.32047-0.12799-0.04719-0.03997-0.06409-0.07803-0.06409-0.12799 0-0.06853 0.03895-0.14487 0.09614-0.19199 0.05719-0.04854 0.14341-0.064 0.25638-0.064 0.13727 0 0.24325 0.03175 0.32047 0.096 0.07865 0.06425 0.10387 0.17864 0.12819 0.31999l0.92936-0.064c-0.04005-0.32552-0.17294-0.55548-0.38456-0.70397-0.2102-0.1499-0.49552-0.22399-0.89731-0.22399zm-17.145 0.064v0.76797h0.99345v2.3679h0.96141v-2.3679h0.99345v-0.76797zm3.397 0v1.8559c0 0.1542 0.03609 0.34409 0.09614 0.54398 0.03717 0.12421 0.09219 0.23491 0.19228 0.35198 0.10152 0.11707 0.23097 0.19175 0.35252 0.25599 0.12154 0.06282 0.26849 0.10658 0.44866 0.12799 0.18159 0.02141 0.35975 0.032 0.51275 0.032 0.26453 0 0.48424-0.02604 0.67298-0.096 0.13584-0.04997 0.26159-0.1332 0.38456-0.25599 0.1244-0.12421 0.19917-0.28379 0.25638-0.44798 0.05862-0.16562 0.09614-0.32637 0.09614-0.51198v-1.8559h-0.96141v1.8879c-2e-6 0.17418-0.06443 0.32032-0.16024 0.41598-0.09438 0.09424-0.21727 0.128-0.38456 0.128-0.16873 0-0.28876-0.03234-0.38456-0.128-0.09438-0.09708-0.16024-0.24465-0.16023-0.41598v-1.8879zm3.6854 0v3.1359h1.4421c0.17302 0 0.36379-0.03889 0.57684-0.096 0.15586-0.04141 0.28077-0.13178 0.41661-0.25599 0.13584-0.12564 0.24468-0.2638 0.32047-0.44798 0.07721-0.1856 0.12818-0.46444 0.12819-0.79996 0-0.21416-0.012624-0.41666-0.064094-0.60797-0.05148-0.19131-0.14199-0.36777-0.25638-0.51198-0.11439-0.1442-0.27278-0.24288-0.44866-0.31999-0.17445-0.07709-0.38844-0.09599-0.67298-0.096zm3.429 0v3.1359h0.96141v-3.1359zm3.1726 0.67197c0.20447 3e-6 0.36202 0.05494 0.4807 0.19199 0.12011 0.13564 0.19228 0.34443 0.19228 0.63997-2e-6 0.35122-0.0779 0.60033-0.19228 0.73597-0.11439 0.13564-0.27194 0.22399-0.4807 0.22399-0.20305 0-0.36202-0.0855-0.4807-0.22399-0.11725-0.13849-0.16024-0.35501-0.16023-0.67197-1e-6 -0.31981 0.04155-0.56548 0.16023-0.70397 0.11868-0.13848 0.28481-0.19199 0.4807-0.19199zm-5.6403 0.032h0.25638c0.25166 3e-6 0.40408 0.03721 0.51275 0.15999 0.10867 0.12279 0.19228 0.37131 0.19228 0.70397 0 0.25128-0.047522 0.43119-0.096141 0.54398-0.048619 0.11136-0.10649 0.1783-0.19228 0.22399-0.085793 0.04426-0.24561 0.064-0.44866 0.064h-0.22433zm-23.587 5.1838c-0.37394 2e-6 -0.66583 0.058048-0.86527 0.22399-0.19943 0.16595-0.32047 0.42759-0.32047 0.73597 0 0.24615 0.08167 0.43078 0.22433 0.57597 0.14404 0.1452 0.36275 0.2536 0.67298 0.31999l0.32047 0.063997c0.18835 0.04148 0.32224 0.075455 0.38456 0.12799 0.06371 0.052549 0.09614 0.12719 0.09614 0.22399-2e-6 0.10786-0.06744 0.19791-0.16024 0.25599-0.0928 0.058068-0.21006 0.095996-0.38456 0.095996-0.17174 0-0.35922-0.043446-0.5448-0.095996-0.1842-0.053932-0.37879-0.11889-0.57684-0.22399v0.67197c0.19805 0.073295 0.41084 0.12266 0.60889 0.15999 0.19805 0.037344 0.38018 0.063997 0.57684 0.063997 0.41687 0 0.72715-0.090047 0.92936-0.25599 0.20358-0.16733 0.32047-0.4264 0.32047-0.76797-3e-6 -0.25998-0.07891-0.43492-0.22433-0.57597-0.14542-0.14105-0.39222-0.25084-0.73708-0.31999l-0.35252-0.063997c-0.16204-0.033186-0.25815-0.082357-0.32047-0.12799-0.06093-0.04702-0.09614-0.10902-0.09614-0.19199 0-0.11063 0.03678-0.20345 0.12819-0.25599 0.0914-0.052539 0.22548-0.063997 0.41661-0.063997 0.14404 0 0.31866-0.00666 0.4807 0.031999 0.16204 0.038726 0.31035 0.11593 0.4807 0.19199v-0.67197c-0.19251-0.051167-0.36476-0.071093-0.5448-0.095996-0.18005-0.026275-0.3424-0.031999-0.51275-0.031999zm2.8522 0c-0.37394 3e-6 -0.66583 0.058048-0.86527 0.22399-0.19943 0.16595-0.28842 0.42759-0.28842 0.73597-2e-6 0.24615 0.08168 0.43077 0.22433 0.57597 0.14403 0.1452 0.36275 0.2536 0.67298 0.31999l0.32047 0.063997c0.18835 0.04148 0.2902 0.075445 0.35252 0.12799 0.0637 0.052549 0.09614 0.12719 0.09614 0.22399-2e-6 0.10787-0.03539 0.19792-0.12819 0.25599-0.0928 0.058068-0.21006 0.095996-0.38456 0.095996-0.17174 0-0.35921-0.043446-0.5448-0.095996-0.1842-0.053932-0.37879-0.11889-0.57684-0.22399v0.67197c0.19805 0.073295 0.3788 0.12266 0.57684 0.15999 0.19805 0.037344 0.41222 0.063997 0.60889 0.063997 0.41687 0 0.72715-0.090047 0.92936-0.25599 0.20358-0.16733 0.28842-0.4264 0.28842-0.76797-2e-6 -0.25998-0.04687-0.43492-0.19228-0.57597-0.14542-0.14105-0.39222-0.25084-0.73708-0.31999l-0.35252-0.063997c-0.16204-0.033186-0.25815-0.082357-0.32047-0.12799-0.06094-0.04702-0.09614-0.10902-0.09614-0.19199-2e-6 -0.11063 0.03677-0.20345 0.12819-0.25599 0.0914-0.052539 0.22548-0.063997 0.41661-0.063997 0.14403 0 0.31866-0.00676 0.4807 0.031999 0.16204 0.038726 0.31035 0.11593 0.4807 0.19199v-0.67197c-0.19251-0.051166-0.36476-0.071093-0.5448-0.095996-0.18005-0.026275-0.37445-0.031996-0.5448-0.031999zm6.4414 0c-0.35836 0.053676-0.63467 0.20129-0.86527 0.41598-0.30746 0.28626-0.44866 0.68473-0.44866 1.1839 0 0.49369 0.14674 0.89493 0.44866 1.1839 0.30192 0.28764 0.70119 0.41598 1.2178 0.41598 0.22852 0 0.45831-0.015605 0.67298-0.063997 0.21467-0.048402 0.40945-0.12719 0.60889-0.22399v-1.5039h-1.2498v0.54398h0.4807v0.60797c-0.05678 0.022117-0.12026 0.02094-0.19228 0.031999-0.07064 0.00973-0.14123 0.031999-0.22433 0.031999-0.30608 1e-6 -0.53884-0.077595-0.70503-0.25599-0.1662-0.17839-0.25638-0.44022-0.25638-0.76797-1e-6 -0.3305 0.08465-0.59096 0.25638-0.76797 0.17312-0.17839 0.41854-0.25599 0.73708-0.25599 0.17173 0 0.3424 0.015605 0.51275 0.063997 0.17173 0.048402 0.37168 0.1258 0.5448 0.22399v-0.63997c-0.16758-0.076059-0.35506-0.15328-0.5448-0.19199-0.18836-0.038716-0.40253-0.031999-0.60889-0.031999-0.13365 1e-6 -0.26511-0.01789-0.38456 0zm-17.53 0.031999v3.1039h0.76912v-2.2719l0.70503 1.6959h0.51275l0.70503-1.6959v2.2719h0.76912v-3.1039h-1.0255l-0.70503 1.6639-0.70503-1.6639zm4.2302 0v3.1039h2.2112v-0.60797h-1.4101v-0.70397h1.2819v-0.60797h-1.2819v-0.57597h1.378v-0.60797zm15.639 0v3.1039h2.2112v-0.60797h-1.4101v-0.70397h1.2819v-0.60797h-1.2819v-0.57597h1.346v-0.60797zm-5.9928 0.031999-1.1537 3.1039h0.80117l0.19228-0.57597h1.2498l0.19228 0.57597h0.80117l-1.1537-3.1039zm0.4807 0.70397 0.41661 1.2479h-0.86527z" fill="#f2f2e8" opacity=".8"/>
<path d="m-16.818-6.4611h42.046v1.024h-42.046v-1.024z" fill="#fff" opacity=".8"/>
<path d="m-42.455 24.258h67.683v1.024h-67.683v-1.024z" fill="#fff" opacity=".8"/>
<path d="m2.667 25.281v14.335h-1.0255v-14.335h1.0255z" fill="#fff" opacity=".8"/>
<path d="m-14.991 17.986c-0.37394 3e-6 -0.66583 0.05805-0.86527 0.22399-0.19943 0.16595-0.28842 0.42759-0.28842 0.73597 0 0.24615 0.08167 0.43077 0.22433 0.57598 0.14404 0.1452 0.36275 0.2536 0.67298 0.31998l0.32047 0.064c0.18835 0.04148 0.2902 0.07545 0.35252 0.128 0.0637 0.05255 0.09614 0.12718 0.09614 0.22399-2e-6 0.10786-0.0354 0.19791-0.12819 0.25599-0.0928 0.05807-0.21006 0.096-0.38456 0.096-0.17174 0-0.35921-0.04345-0.5448-0.096-0.1842-0.05393-0.3788-0.11889-0.57684-0.22399v0.67197c0.19805 0.07328 0.3788 0.12266 0.57684 0.15999 0.19805 0.03734 0.41222 0.064 0.60889 0.064 0.41687 0 0.72715-0.09005 0.92936-0.25599 0.20358-0.16733 0.28842-0.4264 0.28842-0.76797-3e-6 -0.25998-0.04687-0.43492-0.19228-0.57597-0.14542-0.14106-0.39223-0.25084-0.73708-0.31999l-0.35252-0.064c-0.16204-0.03318-0.25815-0.08235-0.32047-0.12799-0.06094-0.04702-0.09614-0.10902-0.09614-0.19199 0-0.11063 0.03677-0.20344 0.12819-0.25599 0.0914-0.05254 0.22548-0.064 0.41661-0.064 0.14403 0 0.31866-0.0068 0.4807 0.032 0.16204 0.03873 0.31035 0.11593 0.4807 0.19199v-0.67197c-0.19251-0.05117-0.36475-0.07109-0.5448-0.096-0.18005-0.02628-0.37445-0.032-0.5448-0.032zm3.1406 0c-0.34719 0.0542-0.63883 0.19922-0.86527 0.41598-0.30192 0.28764-0.44866 0.68888-0.44866 1.1839 0 0.49369 0.14674 0.89493 0.44866 1.1839 0.30192 0.28764 0.70119 0.41598 1.2178 0.41598 0.17312 0 0.35348-0.02527 0.51275-0.064 0.15927-0.03872 0.30185-0.08393 0.44866-0.15999v-0.63997c-0.14819 0.10095-0.27258 0.17697-0.41661 0.22399-0.14404 0.04702-0.32144 0.064-0.4807 0.064-0.2853 1e-6 -0.50956-0.10545-0.67298-0.28799-0.16343-0.18254-0.22433-0.41652-0.22433-0.73597-1e-6 -0.32083 0.0609-0.58543 0.22433-0.76797 0.16342-0.18253 0.38768-0.25599 0.67298-0.25599 0.15927 0 0.33666 0.01699 0.4807 0.064 0.14403 0.04702 0.26842 0.12304 0.41661 0.22399v-0.63997c-0.14681-0.07606-0.28939-0.15328-0.44866-0.19199-0.15927-0.03871-0.33963-0.032-0.51275-0.032-0.12915 1e-6 -0.23678-0.01806-0.35252 0zm-19.356 0.032v0.60797h1.0255v2.4959h0.80117v-2.4959h1.0255v-0.60797h-2.8522zm3.2688 0v3.1039h2.2112v-0.60797h-1.4101v-0.70397h1.2819v-0.60797h-1.2819v-0.57597h1.346v-0.60797h-2.1471zm18.074 0v3.1039h2.2112v-0.60797h-1.4101v-0.70397h1.2819v-0.60797h-1.2819v-0.57597h1.346v-0.60797h-2.1471zm2.9163 0v3.1039h0.73708v-2.1119l1.1537 2.1119h0.86527v-3.1039h-0.73708v2.1439l-1.1216-2.1439h-0.89731zm3.5572 0v3.1039h2.2112v-0.60797h-1.4101v-0.70397h1.2819v-0.60797h-1.2819v-0.57597h1.346v-0.60797h-2.1471zm11.953 0v0.60797h1.0255v2.4959h0.80117v-2.4959h1.0255v-0.60797h-2.8522zm6.2491 0v3.1039h0.80117v-1.2159l1.2178 1.2159h0.99345l-1.6344-1.6319 1.4742-1.4719h-0.92936l-1.1216 1.1519v-1.1519h-0.80117zm3.2688 0v3.1039h2.2112v-0.60797h-1.4101v-0.70397h1.2819v-0.60797h-1.2819v-0.57597h1.378v-0.60797h-2.1792zm-55.409 0.032v3.1039h0.83322c0.46534 0 0.82487-0.06161 1.0575-0.128 0.23267-0.06777 0.44269-0.15957 0.60889-0.31998 0.14542-0.13967 0.24983-0.29744 0.32047-0.47998 0.07063-0.18392 0.09614-0.40626 0.09614-0.63997-2e-6 -0.23094-0.0255-0.42543-0.09614-0.60797-0.07064-0.18254-0.17505-0.34031-0.32047-0.47998-0.16482-0.16041-0.3776-0.2856-0.60889-0.35198-0.2299-0.06776-0.58666-0.096-1.0575-0.096h-0.83322zm4.2943 0-1.1216 3.1039h0.80117l0.19228-0.57598h1.2498l0.19228 0.57598h0.80117l-1.1537-3.1039h-0.96141zm45.314 0-1.1537 3.1039h0.80117l0.22433-0.57598h1.2498l0.19228 0.57598h0.80117l-1.1537-3.1039h-0.96141zm-48.807 0.60797h0.28842c0.32823 2e-6 0.56534 0.06358 0.73708 0.22399 0.17173 0.16042 0.25637 0.39697 0.25638 0.70397-3e-6 0.30838-0.08326 0.54217-0.25638 0.70397-0.17174 0.1618-0.41023 0.25599-0.73708 0.25599h-0.28842v-1.8879zm3.9738 0.096 0.44866 1.2479h-0.86527l0.41661-1.2479zm45.314 0 0.41661 1.2479h-0.83322l0.41661-1.2479z" fill="#f2f2e8" opacity=".8"/>
<path d="m-19.894 25.281v14.335h-1.0255v-14.335h1.0255z" fill="#fff" opacity=".8"/>
<g transform="matrix(1.0255 0 0 1.024 -57.838 -46.395)">
<path d="m12 6c-3.324 0-6 2.676-6 6v12h84v-12c0-3.324-2.676-6-6-6h-72z" fill="#2a2f31"/>
<rect x="6" y="24" width="84" height="6" fill="url(#linearGradient3568)" fill-rule="evenodd" opacity=".8"/>
<rect x="6" y="15" width="84" height="5" fill="url(#linearGradient3570)" fill-rule="evenodd" opacity=".3"/>
<g transform="translate(1)" fill="#f0f0f0" fill-rule="evenodd">
<path d="m28.333 6-5.3333 9 5.3333 9h10.667l-5.3333-9 5.3333-9h-10.667z"/>
<path d="m50.333 6-5.3333 9 5.3333 9h10.667l-5.3333-9 5.3333-9h-10.667z"/>
<path d="m72.333 6-5.3333 9 5.3333 9h10.667l-5.3333-9 5.3333-9h-10.667z"/>
</g>
<rect x="6" y="10" width="84" height="5" fill="url(#linearGradient3572)" fill-rule="evenodd" opacity=".7"/>
<rect x="6" y="19" width="84" height="5" fill="url(#linearGradient3574)" fill-rule="evenodd" opacity=".7"/>
<path d="m12.005 10.5c1.1095 0 1.7702 0.98369 6.03 4.3027 4.3044 3.3537 5.4775 3.7265 5.4775 5.0746 0 1.3484-1.0882 1.6227-2.4399 1.6227h-8.1331c-1.3517 0-2.4399-1.0856-2.4399-2.434v-6.4906c0-1.3484 0.46761-2.0754 1.5054-2.0754z" fill="url(#linearGradient3576)" fill-rule="evenodd" opacity=".37829" stroke="url(#linearGradient3578)" stroke-linejoin="round"/>
<path transform="matrix(.81331 0 0 .81133 3.5869 1.0747)" d="m12.75 14.938a1.4375 1.4375 0 1 1-2.875 0 1.4375 1.4375 0 1 1 2.875 0z" fill="url(#radialGradient3584)" fill-rule="evenodd"/>
<path transform="matrix(.81331 0 0 .81133 3.5869 7.099)" d="m12.75 14.938a1.4375 1.4375 0 1 1-2.875 0 1.4375 1.4375 0 1 1 2.875 0z" fill="url(#radialGradient3584)" fill-rule="evenodd"/>
<path transform="matrix(.81331 0 0 .81133 11.618 7.099)" d="m12.75 14.938a1.4375 1.4375 0 1 1-2.875 0 1.4375 1.4375 0 1 1 2.875 0z" fill="url(#radialGradient3584)" fill-rule="evenodd"/>
</g>
</g>
<g transform="matrix(1.0255 0 0 1.024 -214.16 55.247)">
<g display="none">
<rect x="5" y="7" width="86" height="85" rx="6" ry="6" fill="url(#ButtonShadow-3)" filter="url(#filter3174-4)" opacity=".9"/>
</g>
</g>
<path d="m-24.688-37.812c-3.1961 0-5.8125 2.6003-5.8125 5.7812v70.938c0 3.1809 2.6164 5.7812 5.8125 5.7812h78.75c3.1961 0 5.8125-2.6003 5.8125-5.7812v-70.938c0-3.1809-2.6164-5.7812-5.8125-5.7812h-78.75zm0 2.375h78.75c1.9362 0 3.4375 1.5155 3.4375 3.4062v70.938c0 1.8907-1.5013 3.4062-3.4375 3.4062h-78.75c-1.9362 0-3.4375-1.5155-3.4375-3.4062v-70.938c0-1.8907 1.5013-3.4062 3.4375-3.4062z" color="#000000" fill-opacity=".87149" style="block-progression:tb;text-indent:0;text-transform:none"/>
<path d="m55.334-39.627h-81.747c-3.774 0-6.8122 2.9861-6.8122 6.6954v80.344c0 3.7092 3.0383 6.6954 6.8122 6.6954h81.747c3.774 0 6.8122-2.9861 6.8122-6.6954v-80.344c0-3.7092-3.0383-6.6954-6.8122-6.6954z" fill="url(#linearGradient4108)" opacity=".56985"/>
<path d="m2.8365-37.409c8.3009 28.095 16.926 55.528 25.678 81.496h26.493c2.6275 0 4.7428-2.077 4.7428-4.6569v-72.182c0-2.5799-2.1153-4.6569-4.7428-4.6569h-52.171z" color="#000000" fill="url(#linearGradient4110)" opacity=".61512"/>
<g transform="matrix(1.0255 0 0 1.024 -31.018 -45.938)">
<g transform="translate(1.1676 .50186)" fill="#fff" opacity=".08" stroke="#fff" stroke-width="4">
<rect x="23.098" y="18.983" width="11.414" height="57.031"/>
<path d="m56.834 18.983h6.8663 6.8663l-19.576 28.515 19.576 28.515h-6.8663-6.8663l-19.576-28.515z"/>
</g>
<g transform="translate(1.1676 .50186)" fill="url(#radialGradient4420-8)">
<rect x="23.098" y="18.983" width="11.414" height="57.031"/>
<path d="m56.834 18.983h6.8663 6.8663l-19.576 28.515 19.576 28.515h-6.8663-6.8663l-19.576-28.515z"/>
</g>
<g transform="translate(1.1676 .50186)" fill="#fff" opacity=".2" stroke="#fff" stroke-width="2">
<rect x="23.098" y="18.983" width="11.414" height="57.031"/>
<path d="m56.834 18.983h6.8663 6.8663l-19.576 28.515 19.576 28.515h-6.8663-6.8663l-19.576-28.515z"/>
</g>
<g transform="translate(1.1676 -.49814)" fill="#fff" opacity=".2">
<rect x="23.098" y="18.983" width="11.414" height="57.031"/>
<path d="m56.834 18.983h6.8663 6.8663l-19.576 28.515 19.576 28.515h-6.8663-6.8663l-19.576-28.515z"/>
</g>
</g>
</g>
</g>
</g>
</g>
<g display="none">
<rect x="15" y="15" width="66" height="66" rx="12" ry="12" clip-path="url(#clipPath3613)" fill="url(#linearGradient3613)" filter="url(#filter3794)" opacity=".1" stroke="#fff" stroke-linecap="round" stroke-width=".5"/>
<path d="m12 6c-3.324 0-6 2.676-6 6v2 68 2c0 0.33472 0.04135 0.6507 0.09375 0.96875 0.0487 0.2956 0.09704 0.59692 0.1875 0.875 0.00988 0.03038 0.020892 0.0636 0.03125 0.09375 0.098865 0.28777 0.23488 0.54745 0.375 0.8125 0.14459 0.27351 0.31562 0.53562 0.5 0.78125s0.37378 0.47347 0.59375 0.6875c0.43995 0.42806 0.94291 0.81453 1.5 1.0938 0.27854 0.13961 0.57347 0.24695 0.875 0.34375-0.2562-0.10022-0.48671-0.23627-0.71875-0.375-0.00741-0.0044-0.023866 0.0045-0.03125 0-0.031933-0.0193-0.062293-0.04251-0.09375-0.0625-0.1204-0.0767-0.23102-0.16351-0.34375-0.25-0.10617-0.0808-0.21328-0.16111-0.3125-0.25-0.17793-0.16143-0.34746-0.34539-0.5-0.53125-0.10758-0.13026-0.21839-0.26528-0.3125-0.40625-0.025089-0.03838-0.038446-0.08587-0.0625-0.125-0.064763-0.10303-0.13023-0.20452-0.1875-0.3125-0.10101-0.19471-0.20567-0.4157-0.28125-0.625-0.00796-0.02181-0.023589-0.04055-0.03125-0.0625-0.031825-0.09195-0.035804-0.18683-0.0625-0.28125-0.030332-0.10662-0.070389-0.20303-0.09375-0.3125-0.072879-0.34151-0.125-0.6982-0.125-1.0625v-2-68-2c0-2.7818 2.2182-5 5-5h2 68 2c2.7818 0 5 2.2182 5 5v2 68 2c0 0.3643-0.05212 0.72099-0.125 1.0625-0.04415 0.20689-0.08838 0.39766-0.15625 0.59375-0.0077 0.02195-0.0233 0.04069-0.03125 0.0625-0.06274 0.17374-0.13838 0.36745-0.21875 0.53125-0.04158 0.0828-0.07904 0.16995-0.125 0.25-0.0546 0.09721-0.12677 0.18835-0.1875 0.28125-0.09411 0.14096-0.20492 0.276-0.3125 0.40625-0.14317 0.17445-0.30314 0.347-0.46875 0.5-0.01117 0.0102-0.01998 0.02115-0.03125 0.03125-0.13839 0.12556-0.28509 0.23444-0.4375 0.34375-0.10257 0.07315-0.20432 0.15336-0.3125 0.21875-0.0074 0.0045-0.02384-0.0044-0.03125 0-0.23204 0.13873-0.46255 0.27478-0.71875 0.375 0.30153-0.0968 0.59646-0.20414 0.875-0.34375 0.55709-0.27922 1.0601-0.66569 1.5-1.0938 0.21997-0.21403 0.40937-0.44186 0.59375-0.6875s0.35541-0.50774 0.5-0.78125c0.14012-0.26505 0.27614-0.52473 0.375-0.8125 0.01041-0.03078 0.02133-0.06274 0.03125-0.09375 0.09046-0.27808 0.1388-0.5794 0.1875-0.875 0.0524-0.31805 0.09375-0.63403 0.09375-0.96875v-2-68-2c0-3.324-2.676-6-6-6h-72z" fill="url(#linearGradient3188)" opacity=".25"/>
<path d="m12 90c-3.324 0-6-2.676-6-6v-2-68-2c0-0.33472 0.04135-0.6507 0.09375-0.96875 0.0487-0.2956 0.09704-0.59692 0.1875-0.875 0.00988-0.03038 0.020892-0.0636 0.03125-0.09375 0.098865-0.28777 0.23488-0.54745 0.375-0.8125 0.14459-0.27351 0.31562-0.53562 0.5-0.78125s0.37378-0.47347 0.59375-0.6875c0.43995-0.42806 0.94291-0.81453 1.5-1.0938 0.27854-0.13961 0.57347-0.24695 0.875-0.34375-0.2562 0.10022-0.48671 0.23627-0.71875 0.375-0.00741 0.0044-0.023866-0.0045-0.03125 0-0.031933 0.0193-0.062293 0.04251-0.09375 0.0625-0.1204 0.0767-0.23102 0.16351-0.34375 0.25-0.10617 0.0808-0.21328 0.16111-0.3125 0.25-0.17793 0.16143-0.34746 0.34539-0.5 0.53125-0.10758 0.13026-0.21839 0.26528-0.3125 0.40625-0.025089 0.03838-0.038446 0.08587-0.0625 0.125-0.064763 0.10303-0.13023 0.20452-0.1875 0.3125-0.10101 0.19471-0.20567 0.4157-0.28125 0.625-0.00796 0.02181-0.023589 0.04055-0.03125 0.0625-0.031825 0.09195-0.035804 0.18683-0.0625 0.28125-0.030332 0.10662-0.070389 0.20303-0.09375 0.3125-0.072879 0.34151-0.125 0.6982-0.125 1.0625v2 68 2c0 2.7818 2.2182 5 5 5h2 68 2c2.7818 0 5-2.2182 5-5v-2-68-2c0-0.3643-0.05212-0.72099-0.125-1.0625-0.04415-0.20689-0.08838-0.39766-0.15625-0.59375-0.0077-0.02195-0.0233-0.04069-0.03125-0.0625-0.06274-0.17374-0.13838-0.36745-0.21875-0.53125-0.04158-0.0828-0.07904-0.16995-0.125-0.25-0.0546-0.09721-0.12677-0.18835-0.1875-0.28125-0.09411-0.14096-0.20492-0.276-0.3125-0.40625-0.14317-0.17445-0.30314-0.347-0.46875-0.5-0.01117-0.0102-0.01998-0.02115-0.03125-0.03125-0.13839-0.12556-0.28509-0.23444-0.4375-0.34375-0.10257-0.07315-0.20432-0.15336-0.3125-0.21875-0.0074-0.0045-0.02384 0.0044-0.03125 0-0.23204-0.13873-0.46255-0.27478-0.71875-0.375 0.30153 0.0968 0.59646 0.20414 0.875 0.34375 0.55709 0.27922 1.0601 0.66569 1.5 1.0938 0.21997 0.21403 0.40937 0.44186 0.59375 0.6875s0.35541 0.50774 0.5 0.78125c0.14012 0.26505 0.27614 0.52473 0.375 0.8125 0.01041 0.03078 0.02133 0.06274 0.03125 0.09375 0.09046 0.27808 0.1388 0.5794 0.1875 0.875 0.0524 0.31805 0.09375 0.63403 0.09375 0.96875v2 68 2c0 3.324-2.676 6-6 6h-72z" fill="url(#radialGradient3619)" opacity=".15"/>
</g>
</svg>
