<?xml version="1.0" encoding="UTF-8"?>
<!-- Created with Inkscape (http://www.inkscape.org/) -->
<svg version="1.1" viewBox="0 0 96 96" xmlns="http://www.w3.org/2000/svg" xmlns:cc="http://creativecommons.org/ns#" xmlns:dc="http://purl.org/dc/elements/1.1/" xmlns:rdf="http://www.w3.org/1999/02/22-rdf-syntax-ns#" xmlns:xlink="http://www.w3.org/1999/xlink">
<defs>
<linearGradient id="linearGradient3825" x1="6" x2="90" y1="47" y2="47" gradientTransform="matrix(1.1071 0 0 1.1071 -5.1429 -36.036)" gradientUnits="userSpaceOnUse">
<stop stop-color="#adb4c1" offset="0"/>
<stop stop-color="#fff" offset=".25"/>
<stop stop-color="#9095aa" offset=".5"/>
<stop stop-color="#fbf9f9" offset=".75"/>
<stop stop-color="#adb3c1" offset="1"/>
</linearGradient>
<radialGradient id="radialGradient3827" cx="48" cy="-27" r="42" gradientTransform="matrix(-1.187 0 0 -.96877 104.98 -56.657)" gradientUnits="userSpaceOnUse">
<stop stop-color="#fff" offset="0"/>
<stop stop-color="#fff" offset=".8"/>
<stop stop-color="#fff" stop-opacity="0" offset="1"/>
</radialGradient>
<linearGradient id="linearGradient3829" x1="1.5" x2="94.5" y1="88.172" y2="88.172" gradientTransform="translate(-3e-6,-32)" gradientUnits="userSpaceOnUse">
<stop offset="0"/>
<stop stop-opacity=".58824" offset=".1"/>
<stop stop-opacity=".58824" offset=".9"/>
<stop offset="1"/>
</linearGradient>
<clipPath id="clipPath4156-4-6">
<path d="m27.046-55.695-14.214 13.321h0.06127l15.653 21.771 10.231-10.546c-0.2169-1.1522-11.311-23.67-11.732-24.546zm-17.399 16.313-14.888 14.062 21.229 17.515 10.385-10.577-16.726-21zm31.491 12.951-9.7413 9.7136 8.9448 12.458 7.7808-7.555-6.9843-14.617zm-49.84 4.3788-13.754 12.982 26.283 13.846 0.06127-0.0617-0.12253-0.0617 9.8332-10.053-22.301-16.652zm38.015 7.4008-9.8025 9.7753 11.579 9.5594 7.6276-7.4008-8.6691-11.009-0.73519-0.9251zm20.187 5.674-7.3825 7.2158 6.1878 8.5418 5.8202-6.1365-4.6256-9.6211zm-32.195 6.3215-9.5575 9.4977 13.662 7.185 7.9339-7.6784-12.039-9.0043zm23.312 2.3744-7.1068 6.9383 8.3628 6.9074 5.3608-5.674-0.06127-0.0925-0.0919 0.12335-6.4635-8.2026zm-8.7304 8.5418-7.5051 7.3392 10.354 5.4581c1.3975-1.321 5.6751-6.1229 5.8509-6.3215l-8.6997-6.4757z" fill="#fff" opacity=".6"/>
</clipPath>
<linearGradient id="linearGradient4967" x1="2.7714" x2="50.528" y1="-28.642" y2="14.514" gradientUnits="userSpaceOnUse">
<stop stop-color="#fff" offset="0"/>
<stop stop-color="#fff" stop-opacity="0" offset="1"/>
</linearGradient>
<radialGradient id="radialGradient3833-1" cx="13.948" cy="44.893" r="43.199" gradientTransform="matrix(.88833 0 0 .049191 29.382 -89.635)" gradientUnits="userSpaceOnUse" xlink:href="#linearGradient4133-5"/>
<linearGradient id="linearGradient4133-5">
<stop stop-color="#fff" offset="0"/>
<stop stop-color="#fff" stop-opacity="0" offset="1"/>
</linearGradient>
<radialGradient id="radialGradient4992" cx="13.948" cy="44.893" r="43.199" gradientTransform="matrix(.97513 0 0 .049191 32.735 78.814)" gradientUnits="userSpaceOnUse" xlink:href="#linearGradient4133-5"/>
</defs>
<metadata>
<rdf:RDF>
<cc:Work rdf:about="">
<dc:format>image/svg+xml</dc:format>
<dc:type rdf:resource="http://purl.org/dc/dcmitype/StillImage"/>
<dc:title/>
</cc:Work>
</rdf:RDF>
</metadata>
<g transform="translate(0,32)">
<path d="m89.143-32h-82.286c-3.7988 0-6.8571 3.0583-6.8571 6.8571v82.286c0 3.7989 3.0583 6.8571 6.8571 6.8571h82.286c3.7989 0 6.8571-3.0583 6.8571-6.8571v-82.286c0-3.7989-3.0583-6.8571-6.8571-6.8571z" opacity=".15"/>
<path d="m88.5-31.25h-81c-3.7395 0-6.75 3.0105-6.75 6.75v81c0 3.7395 3.0105 6.75 6.75 6.75h81c3.7395 0 6.75-3.0105 6.75-6.75v-81c0-3.7395-3.0105-6.75-6.75-6.75z" opacity=".15"/>
<path d="m87.857-30.5h-79.714c-3.6801 0-6.6429 2.9627-6.6429 6.6429v79.714c0 3.6801 2.9627 6.6429 6.6429 6.6429h79.714c3.6801 0 6.6429-2.9627 6.6429-6.6429v-79.714c0-3.6801-2.9627-6.6429-6.6429-6.6429z" fill="url(#linearGradient3825)"/>
<path d="m8.1429-30.5c-3.6801 0-6.6429 2.9627-6.6429 6.6429v16.607h1.1071v-16.607c0-3.0859 2.4498-5.5357 5.5357-5.5357h79.714c3.0859 0 5.5357 2.4498 5.5357 5.5357v16.607h1.1071v-16.607c0-3.6801-2.9627-6.6429-6.6429-6.6429z" fill="url(#radialGradient3827)" opacity=".45"/>
<path d="m1.5 49.844v6c0 3.6801 2.9761 6.6562 6.6562 6.6562h79.688c3.6801 0 6.6563-2.9761 6.6563-6.6562v-6c0 3.6801-2.9761 6.6562-6.6563 6.6562h-79.688c-3.6801 0-6.6562-2.9761-6.6562-6.6562z" fill="url(#linearGradient3829)" opacity=".89091"/>
</g>
<g>
<g transform="translate(-71.091 66.545)"></g>
<path d="m61.896 8.0352v75.93c8.4189-0.04403 16.846 0.08888 25.26-0.06791 2.3988-0.46704 2.8479-3.2282 2.5918-5.2658-0.0087-22.569 0.01744-45.138-0.01309-67.706-0.2611-2.4654-3.09-3.2273-5.1787-2.8897-7.5533 1.3e-6 -15.107-2.7e-6 -22.66 2e-6zm20.609 78.276c-55.004 6.459-27.502 3.2295 0 0z" color="#000000" fill="#ebebeb"/>
<path d="m33.562 8.0352v75.93h28.334v-75.93h-28.334zm0 78.25v0.43164l8.2285-0.43164h-8.2285z" color="#000000" fill="#b4b4b4"/>
<path d="m7.3997 7.3859-2.5566 2.4445c0.44468-0.53844 4.0572-3.2933 4.6695-3.6388zm2.2039 0.64924c-1.8881 0-3.3516 1.4797-3.3516 3.3262v69.277c0 1.8465 1.4635 3.3262 3.3516 3.3262h23.959v-75.93zm-4.377 76.18v1.0156l1.1797 0.0625c-0.44159-0.30265-0.83981-0.66659-1.1797-1.0781zm20.107 2.0703 8.2285 0.43164v-0.43164z" color="#000000" fill="#e8e8e8"/>
<path d="m90.232 75.743v-67.613l-28.335 15.531v4.8826z" color="#000000" fill="#37a023"/>
<path d="m7.5273 6.875-2.3008 59.568 28.336-15.811 20.562-11.439-18.791-31.436-1.7715 0.09375-26.035-0.97656z" color="#000000" fill="#339c29"/>
<path d="m86.838 86.532-24.941-40.828v11.951l5.3128 8.6957-5.3128 2.8831v6.8822l8.4611-4.6036 8.953 14.648zm3.3943-4.3246v-11.951l-26.859-43.99 26.859-14.648v-3.7666l-5.2144-0.27901-23.121 12.602v15.578z" color="#000000" fill="#d5c153" style="text-decoration-line:none;text-indent:0;text-transform:none"/>
<path d="m33.562 8.0352v3.2109l16.43 26.924-16.43 8.9746v6.8828l19.578-10.695 8.7559 14.322v-11.951l-22.984-37.668h-5.3496zm11.422 0 16.912 27.717v-15.578l-1.6719 0.93164-7.9785-13.07h-7.2617zm16.912 61.197-27.037 14.732h12.65l14.387-7.8496v-6.8828zm-28.334 17.053v0.43164l8.3301-0.43164h-8.3301z" color="#000000" fill="#c19c2f" style="text-decoration-line:none;text-indent:0;text-transform:none"/>
<path d="m33.562 86.718v-2.0461l-3.3943 1.86zm-28.335-17.252 28.335-15.438v-6.8822l-28.335 15.438zm28.335-58.219v-3.3946l-2.1645-0.093002z" color="#000000" fill="#d5c153" style="text-decoration-line:none;text-indent:0;text-transform:none"/>
<path d="m22.445 42.681c1.315 0.01601 2.6031-0.1608 3.7386-0.69752 0.56827-0.26859 1.3955-0.85412 1.7709-1.209 0.9392-0.88782 1.2511-4.7008 0.29516-5.9057-1.5548-1.9596-2.6075-3.5498-4.7225-4.8826-0.75492-0.47574-1.0271-0.99697-1.9677-1.4415-0.893-0.42207-1.8945-2.1629-2.5088-2.7436-0.06432-0.0608 0.042-0.3391 0-0.41851-0.80079-1.514-0.3004-4.1312 0.59031-5.3941 0.13465-0.19093-0.17718-0.30686 0.14758-0.51151 0.07718-0.04864 0.18037 0.06201 0.24596 0 0.19631-0.18557 0.0204-0.82917 0.14758-1.0695 0.21761-0.41141 0.47327-0.75524 0.6887-1.1625 0.09276-0.17537-0.09275-0.47565 0-0.65102 1.278-2.4162 0.94537-5.3739-0.24596-7.6262-0.056922-0.10763-0.52973-0.39698-0.59031-0.51151-0.10399-0.19661-0.072553-0.57777-0.14758-0.79052-0.062274-0.17661-0.18966-0.3706-0.29516-0.55801l-14.365 0.6775 7.096e-4 33.361c2.7335-0.3063 5.5923-0.11178 8.1168 0.41851 0.8339 0.17517 1.8087-0.02076 2.6564 0.1395 1.9386 0.36651 4.2525 0.94983 6.4442 0.97652z" fill="#2c78d7"/>
<path d="m71.342 37.612c-10.433 0-18.89 7.9946-18.89 17.856 0 0.61637 0.03391 1.2598 0.09839 1.86 0.0027 0.03071-3e-3 0.06226 0 0.093 0.06423 0.5686 0.1758 1.1227 0.29515 1.674 1.6263 9.1745 9.0991 18.511 18.496 26.134 9.3973-7.6223 16.87-16.959 18.496-26.134 0.11934-0.55136 0.23093-1.1054 0.29515-1.674 3e-3 -0.03074-0.0027-0.06229 0-0.093 0.06449-0.60028 0.09838-1.2437 0.09838-1.86 0-9.8618-8.4573-17.856-18.89-17.856zm0 10.602c4.2219 0 7.674 3.2633 7.674 7.2542 0 3.9909-3.4521 7.2542-7.674 7.2542-4.2219 0-7.674-3.2633-7.674-7.2542 0-3.9909 3.4521-7.2542 7.674-7.2542z" color="#000000" fill-opacity=".25448"/>
<path d="m69.768 36.124c-10.433 0-18.89 7.9946-18.89 17.856 0 0.61637 0.03391 1.2598 0.09839 1.86 0.0027 0.03071-3e-3 0.06226 0 0.093 0.06423 0.5686 0.1758 1.1227 0.29515 1.674 1.6263 9.1745 9.0991 18.511 18.496 26.134 9.3973-7.6223 16.87-16.959 18.496-26.134 0.11934-0.55136 0.23093-1.1054 0.29515-1.674 3e-3 -0.03074-0.0027-0.06229 0-0.093 0.06449-0.60028 0.09839-1.2437 0.09839-1.86 0-9.8618-8.4573-17.856-18.89-17.856zm0 10.602c4.2219 0 7.674 3.2633 7.674 7.2542 0 3.9909-3.4521 7.2542-7.674 7.2542-4.2219 0-7.674-3.2633-7.674-7.2542 0-3.9909 3.4521-7.2542 7.674-7.2542z" fill="#d40000"/>
<path d="m69.768 36.124c-10.433 0-18.89 7.9946-18.89 17.856 0 0.61637 0.03391 1.2598 0.09839 1.86 0.0027 0.03071-3e-3 0.06226 0 0.093 0.06423 0.5686 0.1758 1.1227 0.29516 1.674 1.319 7.4411 6.5111 14.97 13.43 21.623-6.1425-6.2717-10.636-13.254-11.855-20.135-0.11935-0.55136-0.23093-1.1054-0.29516-1.674-3e-3 -0.03074 0.0027-0.06229 0-0.093-0.06448-0.60028-0.09839-1.2437-0.09839-1.86 0-9.8618 8.4573-17.856 18.89-17.856 4.8155 0 9.2078 1.7066 12.544 4.5106-3.4601-3.6788-8.5011-5.9987-14.118-5.9987zm6.0999 13.578c0.95213 1.2084 1.5742 2.6638 1.5742 4.2781 0 3.9909-3.4521 7.2542-7.674 7.2542-1.7077 0-3.2474-0.588-4.5257-1.488 1.4017 1.779 3.5857 2.9761 6.0999 2.9761 4.2219 0 7.674-3.2633 7.674-7.2542 0-2.3766-1.2664-4.4411-3.1483-5.7661z" fill="#ff8080"/>
<path d="m9.6041 5.715c-3.1166 0-5.668 2.5395-5.668 5.646v69.278c0 3.1065 2.5513 5.646 5.668 5.646h76.792c3.1166 0 5.668-2.5395 5.668-5.646v-69.278c0-3.1065-2.5514-5.646-5.668-5.646h-76.792zm0 2.3194h76.792c1.8881 0 3.352 1.4801 3.352 3.3266v69.278c0 1.8465-1.4639 3.3266-3.352 3.3266h-76.792c-1.8881 0-3.352-1.4801-3.352-3.3266v-69.278c0-1.8465 1.4639-3.3266 3.352-3.3266z" color="#000000" fill="#111114" fill-opacity=".79412" style="block-progression:tb;text-indent:0;text-transform:none"/>
</g>
<g>
<rect transform="matrix(.91622 0 0 .94165 4.0549 35.619)" x="2" y="-30" width="92" height="92" rx="3.957" ry="3.957" clip-path="url(#clipPath4156-4-6)" fill="url(#linearGradient4967)" opacity=".615"/>
<rect x="4.211" y="78.898" width="84.25" height="4.25" rx="0" ry="4.25" fill="url(#radialGradient4992)" opacity=".55"/>
<rect transform="rotate(90)" x="3.3977" y="-89.552" width="76.75" height="4.25" rx="0" ry="4.25" fill="url(#radialGradient3833-1)" opacity=".55"/>
</g>
</svg>
