<?xml version="1.0" encoding="UTF-8"?>
<!-- Created with Inkscape (http://www.inkscape.org/) -->
<svg version="1.1" viewBox="0 0 96 96" xmlns="http://www.w3.org/2000/svg" xmlns:cc="http://creativecommons.org/ns#" xmlns:dc="http://purl.org/dc/elements/1.1/" xmlns:rdf="http://www.w3.org/1999/02/22-rdf-syntax-ns#" xmlns:xlink="http://www.w3.org/1999/xlink">
<script xlink:href=""/>
<defs>
<linearGradient id="linearGradient4370-2">
<stop stop-color="#2a7fff" offset="0"/>
<stop stop-color="#003380" offset="1"/>
</linearGradient>
<linearGradient id="linearGradient3266-4">
<stop stop-color="#fff" offset="0"/>
<stop stop-opacity="0" offset="1"/>
</linearGradient>
<linearGradient id="linearGradient3888-8-4-8-4-6-9-0-8-7-9">
<stop stop-color="#fff" offset="0"/>
<stop stop-color="#fff" stop-opacity="0" offset="1"/>
</linearGradient>
<linearGradient id="linearGradient4071" x1="6" x2="90" y1="47" y2="47" gradientTransform="matrix(1.1037 0 0 1.1037 -5.1268 -35.723)" gradientUnits="userSpaceOnUse">
<stop stop-color="#b2babc" offset="0"/>
<stop stop-color="#fff" offset=".25"/>
<stop stop-color="#96a1a4" offset=".5"/>
<stop stop-color="#fbf9f9" offset=".75"/>
<stop stop-color="#b2b9bc" offset="1"/>
</linearGradient>
<linearGradient id="linearGradient4129" x1="1.5" x2="94.5" y1="88.172" y2="88.172" gradientTransform="matrix(.99687 0 0 .99688 -2.9408e-6 -31.7)" gradientUnits="userSpaceOnUse">
<stop offset="0"/>
<stop stop-opacity=".58824" offset=".1"/>
<stop stop-opacity=".58824" offset=".9"/>
<stop offset="1"/>
</linearGradient>
<radialGradient id="radialGradient7462" cx="13.948" cy="44.893" r="43.199" gradientTransform="matrix(.97209 0 0 .049037 33.793 48.216)" gradientUnits="userSpaceOnUse" xlink:href="#linearGradient3888-8-4-8-4-6-9-0-8-7-9"/>
<radialGradient id="radialGradient7464" cx="13.948" cy="44.893" r="43.199" gradientTransform="matrix(.88555 0 0 .049037 -.25406 -89.887)" gradientUnits="userSpaceOnUse" xlink:href="#linearGradient3888-8-4-8-4-6-9-0-8-7-9"/>
<linearGradient id="linearGradient4767" x1="2.7714" x2="50.528" y1="-28.642" y2="14.514" gradientUnits="userSpaceOnUse" xlink:href="#linearGradient3888-8-4-8-4-6-9-0-8-7-9"/>
<clipPath id="clipPath4156-4-1">
<path d="m27.046-55.695-14.214 13.321h0.06127l15.653 21.771 10.231-10.546c-0.2169-1.1522-11.311-23.67-11.732-24.546zm-17.399 16.313-14.888 14.062 21.229 17.515 10.385-10.577zm31.491 12.951-9.7413 9.7136 8.9448 12.458 7.7808-7.555zm-49.84 4.3788-13.754 12.982 26.283 13.846 0.06127-0.0617-0.12253-0.0617 9.8332-10.053-22.301-16.652zm38.015 7.4008-9.8025 9.7753 11.579 9.5594 7.6276-7.4008-8.6691-11.009zm20.187 5.674-7.3825 7.2158 6.1878 8.5418 5.8202-6.1365zm-32.195 6.3215-9.5575 9.4977 13.662 7.185 7.9339-7.6784zm23.312 2.3744-7.1068 6.9383 8.3628 6.9074 5.3608-5.674-0.06127-0.0925-0.0919 0.12335-6.4635-8.2026zm-8.7304 8.5418-7.5051 7.3392 10.354 5.4581c1.3975-1.321 5.6751-6.1229 5.8509-6.3215z" fill="#fff" opacity=".6"/>
</clipPath>
<linearGradient id="linearGradient4800" x1="25.22" x2="94.568" y1="61.922" y2="61.922" gradientTransform="matrix(0 .16311 -.1957 0 60.734 4.0816)" gradientUnits="userSpaceOnUse">
<stop stop-color="#4d4d4d" offset="0"/>
<stop stop-color="#fff" offset="1"/>
</linearGradient>
<radialGradient id="radialGradient4802" cx="59.894" cy="61.922" r="33.714" gradientTransform="matrix(0 .28173 -.28311 0 66.147 -3.0229)" gradientUnits="userSpaceOnUse">
<stop stop-opacity="0" offset="0"/>
<stop stop-opacity="0" offset=".85"/>
<stop offset="1"/>
</radialGradient>
<linearGradient id="linearGradient4804" x1="26.18" x2="93.608" y1="61.922" y2="61.922" gradientTransform="matrix(0 .28173 -.33803 0 69.548 -3.0229)" gradientUnits="userSpaceOnUse">
<stop stop-color="#fff" stop-opacity=".20312" offset="0"/>
<stop stop-color="#fff" stop-opacity=".67969" offset="1"/>
</linearGradient>
<clipPath id="clipPath4031-2">
<path d="m48 32c-19.882 0-36 16.118-36 36s16.118 36 36 36 36-16.118 36-36-16.118-36-36-36zm0 24c6.6274 0 12 5.3726 12 12s-5.3726 12-12 12-12-5.3726-12-12 5.3726-12 12-12z" fill="#bbb1bf"/>
</clipPath>
<filter id="filter4035-7" x="-.19037" y="-.1707" width="1.3807" height="1.3414" color-interpolation-filters="sRGB">
<feGaussianBlur stdDeviation="4.9476562"/>
</filter>
<filter id="filter4195-9" x="-.18" y="-.18" width="1.36" height="1.36" color-interpolation-filters="sRGB">
<feGaussianBlur stdDeviation="5.2159999"/>
</filter>
<filter id="filter3832-0-2" color-interpolation-filters="sRGB">
<feGaussianBlur stdDeviation="0.7690217"/>
</filter>
<radialGradient id="radialGradient4806" cx="39.649" cy="154.59" r="27.097" gradientTransform="matrix(.33755 .1292 -.2232 .63709 55.446 -73.989)" gradientUnits="userSpaceOnUse" xlink:href="#linearGradient4370-2"/>
<radialGradient id="radialGradient4808" cx="40.847" cy="75.264" r="14.672" gradientTransform="matrix(.41855 .064359 -.043226 .30713 14.124 12.634)" gradientUnits="userSpaceOnUse" xlink:href="#linearGradient3266-4"/>
<radialGradient id="radialGradient4810" cx="39.649" cy="154.59" r="27.097" gradientTransform="matrix(.40419 .1531 -.26448 .76288 54.949 -119.52)" gradientUnits="userSpaceOnUse" xlink:href="#linearGradient4370-2"/>
<radialGradient id="radialGradient4812" cx="40.847" cy="75.264" r="14.672" gradientTransform="matrix(.50082 .0752 -.050507 .3675 5.8662 -15.752)" gradientUnits="userSpaceOnUse" xlink:href="#linearGradient3266-4"/>
</defs>
<metadata>
<rdf:RDF>
<cc:Work rdf:about="">
<dc:format>image/svg+xml</dc:format>
<dc:type rdf:resource="http://purl.org/dc/dcmitype/StillImage"/>
<dc:title/>
</cc:Work>
</rdf:RDF>
</metadata>
<g transform="translate(0,32)">
<g transform="translate(.15 -.15003)">
<path d="m88.864-31.7h-82.029c-3.787 0-6.8357 3.0487-6.8357 6.8357v82.029c0 3.787 3.0487 6.8357 6.8357 6.8357h82.029c3.787 0 6.8357-3.0487 6.8357-6.8357v-82.029c0-3.787-3.0487-6.8357-6.8357-6.8357z" opacity=".15"/>
<path d="m88.223-30.952h-80.747c-3.7278 0-6.7289 3.0011-6.7289 6.7289v80.747c0 3.7278 3.0011 6.7289 6.7289 6.7289h80.747c3.7278 0 6.7289-3.0011 6.7289-6.7289v-80.747c0-3.7278-3.0011-6.7289-6.7289-6.7289z" opacity=".15"/>
<path d="m87.583-30.205h-79.465c-3.6686 0-6.6221 2.9535-6.6221 6.6221v79.465c0 3.6686 2.9535 6.6221 6.6221 6.6221h79.465c3.6686 0 6.6221-2.9535 6.6221-6.6221v-79.465c0-3.6686-2.9535-6.6221-6.6221-6.6221z" fill="url(#linearGradient4071)"/>
<path d="m10.664-24.544h75.931c2.4745 0 4.4665 2.014 4.4665 4.5158v69.994c0 2.5017-1.9921 4.5157-4.4665 4.5157h-75.931c-2.4745 0-4.4665-2.014-4.4665-4.5157v-69.994c0-2.5017 1.9921-4.5158 4.4665-4.5158z" color="#000000" fill="#ffeee1" fill-opacity=".83036" opacity=".871"/>
<path d="m9.7944-26.985c-3.1069 0-5.6503 2.5316-5.6503 5.6284v69.062c0 3.0968 2.5434 5.6284 5.6503 5.6284h76.552c3.1069 0 5.6503-2.5316 5.6503-5.6284v-69.062c0-3.0968-2.5434-5.6284-5.6503-5.6284zm0 2.3122h76.552c1.8822 0 3.3415 1.4755 3.3415 3.3162v69.062c0 1.8407-1.4593 3.3162-3.3415 3.3162h-76.552c-1.8822 0-3.3415-1.4755-3.3415-3.3162v-69.062c0-1.8407 1.4593-3.3162 3.3415-3.3162z" color="#000000" fill="#202223" fill-opacity=".95982" style="text-decoration-line:none;text-indent:0;text-transform:none"/>
<path d="m1.4953 49.888v5.9812c0 3.6686 2.9668 6.6354 6.6354 6.6354h79.438c3.6686 0 6.6355-2.9668 6.6355-6.6354v-5.9812c0 3.6686-2.9668 6.6354-6.6355 6.6354h-79.438c-3.6686 0-6.6354-2.9668-6.6354-6.6354z" fill="url(#linearGradient4129)" opacity=".65818"/>
<rect x="5.3582" y="48.299" width="83.987" height="4.2367" rx="0" ry="4.2367" fill="url(#radialGradient7462)" opacity=".55"/>
<rect transform="rotate(90)" x="-26.157" y="-89.803" width="76.51" height="4.2367" rx="0" ry="4.2367" fill="url(#radialGradient7464)" opacity=".669"/>
<path d="m10.664 31.903c-1.7692 0-3.4251 0.95528-4.4665 2.3637v15.699c0 2.5017 1.9921 4.5157 4.4665 4.5157h75.931c2.4745 0 4.4665-2.014 4.4665-4.5157v-15.699c-1.0414-1.4084-2.6973-2.3637-4.4665-2.3637zm0 3.3868h75.931c1.2759 0 2.2333 0.96796 2.2333 2.2579v12.418c0 1.2899-0.95742 2.2579-2.2333 2.2579h-75.931c-1.2759 0-2.2333-0.96796-2.2333-2.2579v-12.418c0-1.2899 0.95741-2.2579 2.2333-2.2579z" color="#000000" opacity=".02" style="text-decoration-line:none;text-indent:0;text-transform:none"/>
<path d="m48.616-5.9791c-11.564 0-20.971 9.4179-20.971 20.996 0 11.578 9.4065 20.996 20.971 20.996 11.564 0 20.971-9.4179 20.971-20.996 0-11.578-9.4065-20.996-20.971-20.996zm0 11.665c5.1687 0 9.3203 4.1567 9.3203 9.3317 0 5.175-4.1517 9.3317-9.3203 9.3317-5.1687 0-9.3203-4.1567-9.3203-9.3317 0-5.175 4.1517-9.3317 9.3203-9.3317z" color="#000000" opacity=".05"/>
<path d="m48.616-3.6462c-10.295 0-18.641 8.3559-18.641 18.663 0 10.307 8.3457 18.663 18.641 18.663 10.295 0 18.641-8.3559 18.641-18.663 0-10.307-8.3457-18.663-18.641-18.663zm0 6.9987c6.4343 0 11.65 5.2224 11.65 11.665 0 6.4422-5.2161 11.665-11.65 11.665-6.4343 0-11.65-5.2224-11.65-11.665 0-6.4422 5.2161-11.665 11.65-11.665z" color="#000000" opacity=".3"/>
<path d="m48.616-4.8491c-10.949 0-19.842 8.9044-19.842 19.866 0 10.962 8.8936 19.866 19.842 19.866 10.949 0 19.842-8.9044 19.842-19.866 0-10.962-8.8936-19.866-19.842-19.866zm0 9.4046c5.7808 0 10.449 4.6739 10.449 10.462 0 5.7878-4.6682 10.462-10.449 10.462-5.7808 0-10.449-4.6739-10.449-10.462 0-5.7878 4.6682-10.462 10.449-10.462z" color="#000000" opacity=".1"/>
<path d="m48.616-21.044c-19.249 0-34.853 15.623-34.853 34.895 0 19.272 15.604 34.895 34.853 34.895 19.249 0 34.853-15.623 34.853-34.895 0-19.272-15.604-34.895-34.853-34.895zm0 23.263c6.4162 0 11.618 5.2077 11.618 11.632 0 6.424-5.2014 11.632-11.618 11.632-6.4162 0-11.618-5.2077-11.618-11.632 0-6.424 5.2014-11.632 11.618-11.632z" fill="#bbb1bf"/>
<path d="m48.616 2.219c-6.4162 0-11.618 5.2077-11.618 11.632 0 6.424 5.2014 11.632 11.618 11.632 6.4162 0 11.618-5.2077 11.618-11.632 0-6.424-5.2014-11.632-11.618-11.632zm0 6.7852c2.6734 0 4.8407 2.1699 4.8407 4.8465 0 2.6767-2.1672 4.8466-4.8407 4.8466-2.6734 0-4.8407-2.1699-4.8407-4.8466 0-2.6767 2.1672-4.8465 4.8407-4.8465z" fill="#fff" opacity=".3"/>
<path d="m48.616 19.182a5.3247 5.3312 0 1 1 0-10.662 5.3247 5.3312 0 1 1 0 10.662z" fill="none" opacity=".6" stroke="url(#linearGradient4800)" stroke-linecap="round" stroke-width="1.1657"/>
<path d="m48.616 23.059a9.1973 9.2083 0 1 1 0-18.417 9.1973 9.2083 0 1 1 0 18.417z" fill="url(#radialGradient4802)" fill-rule="evenodd" opacity=".5" stroke="url(#linearGradient4804)" stroke-linecap="round" stroke-width="1.1657"/>
<path transform="matrix(.96813 0 0 .96931 2.1459 -52.062)" d="m57.312 33.219-9.3125 34.781 31.188-18c-4.7739-8.2686-12.653-14.31-21.875-16.781zm-9.3125 34.781-31.188 18c4.7739 8.2686 12.653 14.31 21.875 16.781z" clip-path="url(#clipPath4031-2)" fill="#fff" filter="url(#filter4035-7)" opacity=".8"/>
<path transform="matrix(1.4576 .84255 -.92624 1.6062 28.828 -99.074)" d="m60.947 57.784a20.708 18.814 0 0 1-2.6155 2.9059l-14.643-13.304z" fill="#7137c8" filter="url(#filter4195-9)"/>
<path transform="matrix(1.6257 .43613 -.47946 1.7915 .31069 -90.098)" d="m60.779 58.011a20.708 18.814 0 0 1-3.384 3.4788l-13.706-14.103z" fill="#0cf" filter="url(#filter4195-9)"/>
<path transform="matrix(1.683 0 -5.8346e-8 1.8547 -24.915 -74.039)" d="m62.724 54.796a20.708 18.814 0 0 1-2.2597 3.6221l-16.775-11.031z" fill="#fc0" filter="url(#filter4195-9)"/>
<path transform="matrix(1.6257 -.43613 .47946 1.7915 -45.129 -51.989)" d="m61.623 56.793a20.708 18.814 0 0 1-1.6993 2.2728l-16.235-11.68z" fill="#f00" filter="url(#filter4195-9)"/>
<path transform="matrix(1.6257 .43613 -.47946 1.7915 .31069 -90.098)" d="m63.123 53.883a20.708 18.814 0 0 1-2.37 4.1619l-17.064-10.659z" fill="#0f0" filter="url(#filter4195-9)"/>
<path transform="matrix(-1.4576 -.84255 .92624 -1.6062 68.405 126.78)" d="m60.947 57.784a20.708 18.814 0 0 1-2.6155 2.9059l-14.643-13.304z" fill="#7137c8" filter="url(#filter4195-9)"/>
<path transform="matrix(-1.6257 -.43613 .47946 -1.7915 96.922 117.8)" d="m60.779 58.011a20.708 18.814 0 0 1-3.384 3.4788l-13.706-14.103z" fill="#0cf" filter="url(#filter4195-9)"/>
<path transform="matrix(-1.683 0 5.8346e-8 -1.8547 122.15 101.74)" d="m62.724 54.796a20.708 18.814 0 0 1-2.2597 3.6221l-16.775-11.031z" fill="#fc0" filter="url(#filter4195-9)"/>
<path transform="matrix(-1.6257 .43613 -.47946 -1.7915 142.36 79.691)" d="m61.623 56.793a20.708 18.814 0 0 1-1.6993 2.2728l-16.235-11.68z" fill="#f00" filter="url(#filter4195-9)"/>
<path transform="matrix(-1.6257 -.43613 .47946 -1.7915 96.922 117.8)" d="m63.123 53.883a20.708 18.814 0 0 1-2.37 4.1619l-17.064-10.659z" fill="#0f0" filter="url(#filter4195-9)"/>
<path d="m48.616-0.20432c-7.7529 0-14.038 6.2926-14.038 14.055 0 7.7624 6.285 14.055 14.038 14.055 7.7529 0 14.038-6.2926 14.038-14.055 0-7.7624-6.285-14.055-14.038-14.055zm0 2.4233c6.4162 0 11.618 5.2077 11.618 11.632 0 6.424-5.2014 11.632-11.618 11.632-6.4162 0-11.618-5.2077-11.618-11.632 0-6.424 5.2014-11.632 11.618-11.632z" opacity=".2"/>
<path d="m13.665 14.434c-0.0033 0.19635 0 0.3861 0 0.58323 0 19.326 15.648 34.994 34.951 34.994 19.303 0 34.951-15.667 34.951-34.994 0-0.19713 0.0038-0.38688 0-0.58323-0.31472 19.054-15.845 34.41-34.951 34.41-19.106 0-34.636-15.356-34.951-34.41z" color="#000000" fill="#fff" opacity=".6"/>
<path d="m48.616-21.143c-19.303 0-34.951 15.667-34.951 34.994 0 19.326 15.648 34.994 34.951 34.994 19.303 0 34.951-15.667 34.951-34.994 0-19.327-15.648-34.994-34.951-34.994zm0 3.4994c17.373 0 31.456 14.101 31.456 31.494 0 17.394-14.083 31.494-31.456 31.494-17.373 0-31.456-14.101-31.456-31.494 0-17.394 14.083-31.494 31.456-31.494z" color="#000000" opacity=".05"/>
<path d="m48.616-21.143c-19.303 0-34.951 15.667-34.951 34.994 0 19.326 15.648 34.994 34.951 34.994 19.303 0 34.951-15.667 34.951-34.994 0-19.327-15.648-34.994-34.951-34.994zm0 2.3694c18.022 0 32.585 14.58 32.585 32.624 0 18.044-14.562 32.624-32.585 32.624-18.022 0-32.585-14.58-32.585-32.624 0-18.044 14.562-32.624 32.585-32.624z" color="#000000" opacity=".1"/>
<path d="m48.616-21.143c-19.303 0-34.951 15.667-34.951 34.994 0 19.326 15.648 34.994 34.951 34.994 19.303 0 34.951-15.667 34.951-34.994 0-19.327-15.648-34.994-34.951-34.994zm0 1.1665c18.66 0 33.786 15.145 33.786 33.827 0 18.682-15.127 33.827-33.786 33.827-18.66 0-33.786-15.145-33.786-33.827 0-18.682 15.127-33.827 33.786-33.827z" color="#000000" opacity=".15"/>
<path d="m48.616-21.143c-19.303 0-34.951 15.667-34.951 34.994 0 0.19712-0.0033 0.38687 0 0.58323 0.31473-19.054 15.845-34.411 34.951-34.411 19.106 0 34.636 15.356 34.951 34.411 0.0038-0.19636 0-0.38611 0-0.58323 0-19.327-15.648-34.994-34.951-34.994z" color="#000000" opacity=".2"/>
<path transform="matrix(.50048 .19157 -.18328 .52313 28.519 -2.8588)" d="m34.156 19v47.625c-2.9551-1.1572-6.8274-1.328-10.812-0.25-7.4477 2.0147-12.437 7.6498-11.125 12.594 1.3121 4.944 8.3961 7.3272 15.844 5.3125 6.3275-1.7117 9.3928-6.0469 9.8125-10.344h0.03125v-43.75c3.7268 2.6581 12.764 12.968 8.4375 25.125 2.3963-6.2373 2.6146-12.927 1.7188-16.531-1.0841-4.3617-4.7454-8.857-8.5312-12.906-3.977-4.2538-5.375-6.875-5.375-6.875zm11.75 37.406c-0.40183 0.93359-0.8668 1.8588-1.375 2.75 0.53876-0.92199 0.99568-1.8438 1.375-2.75z" filter="url(#filter3832-0-2)" opacity=".5"/>
<path d="m42.31 13.099-8.7302 24.918c-1.2669-1.1715-3.1656-2.0076-5.3577-2.2071-4.0967-0.3728-7.6332 1.619-7.8826 4.4567-0.24942 2.8377 2.8639 5.446 6.9606 5.8188 3.4805 0.31673 5.8012-1.3686 6.7988-3.536l0.02398 0.0089 8.0181-22.886c1.5206 2.3222 4.5591 10.762-1.989 16.422 3.3415-2.9509 5.2405-7.4907 5.4974-9.9801 0.25682-2.4894-0.75429-5.5368-1.9069-8.3804-1.2108-2.9872-1.4325-4.6356-1.4325-4.6356z" fill="url(#radialGradient4806)"/>
<path d="m34.361 41.247a6.3054 4.163 7.6295 1 1-12.512-1.5728 6.3054 4.163 7.6295 1 1 12.512 1.5728z" fill="url(#radialGradient4808)"/>
<path transform="matrix(.5993 .22699 -.21717 .62642 23.022 -34.342)" d="m34.156 19v47.625c-2.9551-1.1572-6.8274-1.328-10.812-0.25-7.4477 2.0147-12.437 7.6498-11.125 12.594 1.3121 4.944 8.3961 7.3272 15.844 5.3125 6.3275-1.7117 9.3928-6.0469 9.8125-10.344h0.03125v-43.75c3.7268 2.6581 12.764 12.968 8.4375 25.125 2.3963-6.2373 2.6146-12.927 1.7188-16.531-1.0841-4.3617-4.7454-8.857-8.5312-12.906-3.977-4.2538-5.375-6.875-5.375-6.875zm11.75 37.406c-0.40183 0.93359-0.8668 1.8588-1.375 2.75 0.53876-0.92199 0.99568-1.8438 1.375-2.75z" filter="url(#filter3832-0-2)" opacity=".5"/>
<path d="m39.577-15.315-10.344 29.838c-1.5197-1.3957-3.7937-2.3876-6.4161-2.6169-4.9009-0.42852-9.1228 1.9686-9.4101 5.3634-0.2873 3.3948 3.4463 6.5011 8.3472 6.9296 4.1638 0.36408 6.9327-1.6613 8.1174-4.2576l0.02871 0.01089 9.5007-27.405c1.8275 2.7708 5.4941 12.852-2.3151 19.648 3.9848-3.5433 6.2385-8.9808 6.536-11.959 0.29751-2.9783-0.92355-6.6186-2.313-10.015-1.4596-3.5674-1.7311-5.5379-1.7311-5.5379z" fill="url(#radialGradient4810)"/>
<path d="m30.18 18.382a7.5407 4.979 7.4143 1 1-14.97-1.828 7.5407 4.979 7.4143 1 1 14.97 1.828z" fill="url(#radialGradient4812)"/>
<rect transform="matrix(1.0659 0 0 1.0444 4.2818 6.6588)" x="2" y="-30" width="75.966" height="69.024" rx="3.957" ry="3.957" clip-path="url(#clipPath4156-4-1)" fill="url(#linearGradient4767)" opacity=".65"/>
</g>
</g>
</svg>
