<?xml version="1.0" encoding="UTF-8"?>
<!-- Created with Inkscape (http://www.inkscape.org/) -->
<svg version="1.1" viewBox="0 0 96 96" xmlns="http://www.w3.org/2000/svg" xmlns:cc="http://creativecommons.org/ns#" xmlns:dc="http://purl.org/dc/elements/1.1/" xmlns:rdf="http://www.w3.org/1999/02/22-rdf-syntax-ns#" xmlns:xlink="http://www.w3.org/1999/xlink">
<defs>
<linearGradient id="linearGradient4071" x1="26.206" x2="108.14" y1="72.154" y2="72.154" gradientTransform="matrix(1.1071 0 0 1.1071 -42.207 -51.973)" gradientUnits="userSpaceOnUse">
<stop stop-color="#b2babc" offset="0"/>
<stop stop-color="#fff" offset=".25"/>
<stop stop-color="#96a1a4" offset=".5"/>
<stop stop-color="#fbf9f9" offset=".75"/>
<stop stop-color="#b2b9bc" offset="1"/>
</linearGradient>
<linearGradient id="linearGradient4129" x1="24.327" x2="112.31" y1="119.22" y2="121.04" gradientTransform="translate(-37.064 -47.937)" gradientUnits="userSpaceOnUse">
<stop offset="0"/>
<stop stop-opacity=".58824" offset=".1"/>
<stop stop-opacity=".58824" offset=".9"/>
<stop offset="1"/>
</linearGradient>
<clipPath id="clipPath4156-4-1-5">
<path d="m27.046-55.695-14.214 13.321h0.06127l15.653 21.771 10.231-10.546c-0.2169-1.1522-11.311-23.67-11.732-24.546zm-17.399 16.313-14.888 14.062 21.229 17.515 10.385-10.577zm31.491 12.951-9.7413 9.7136 8.9448 12.458 7.7808-7.555zm-49.84 4.3788-13.754 12.982 26.283 13.846 0.06127-0.0617-0.12253-0.0617 9.8332-10.053-22.301-16.652zm38.015 7.4008-9.8025 9.7753 11.579 9.5594 7.6276-7.4008-8.6691-11.009zm20.187 5.674-7.3825 7.2158 6.1878 8.5418 5.8202-6.1365zm-32.195 6.3215-9.5575 9.4977 13.662 7.185 7.9339-7.6784zm23.312 2.3744-7.1068 6.9383 8.3628 6.9074 5.3608-5.674-0.06127-0.0925-0.0919 0.12335-6.4635-8.2026zm-8.7304 8.5418-7.5051 7.3392 10.354 5.4581c1.3975-1.321 5.6751-6.1229 5.8509-6.3215z" fill="#fff" opacity=".6"/>
</clipPath>
<filter id="filter994" x="-.033136" y="-.039407" width="1.0663" height="1.0788" color-interpolation-filters="sRGB">
<feGaussianBlur stdDeviation="0.80945847"/>
</filter>
<linearGradient id="linearGradient1032" x1="2" x2="42.17" y1="-25.824" y2="11.652" gradientUnits="userSpaceOnUse">
<stop stop-color="#fff" offset="0"/>
<stop stop-color="#fff" stop-opacity="0" offset="1"/>
</linearGradient>
<radialGradient id="radialGradient1050" cx="27.935" cy="-71.96" r="38.375" gradientTransform="matrix(1 0 0 .055375 0 -67.975)" gradientUnits="userSpaceOnUse">
<stop stop-color="#fff" offset="0"/>
<stop stop-color="#fff" stop-opacity="0" offset="1"/>
</radialGradient>
<radialGradient id="radialGradient1058" cx="31.5" cy="66.375" r="42.125" gradientTransform="matrix(1 0 0 .050445 0 63.027)" gradientUnits="userSpaceOnUse">
<stop stop-color="#fff" offset="0"/>
<stop stop-color="#fff" stop-opacity="0" offset="1"/>
</radialGradient>
</defs>
<metadata>
<rdf:RDF>
<cc:Work rdf:about="">
<dc:format>image/svg+xml</dc:format>
<dc:type rdf:resource="http://purl.org/dc/dcmitype/StillImage"/>
<dc:title/>
<dc:date>2018</dc:date>
<dc:creator>
<cc:Agent>
<dc:title>Cristian Pozzessere  == ilnanny ==</dc:title>
</cc:Agent>
</dc:creator>
<dc:subject>
<rdf:Bag>
<rdf:li>Global language</rdf:li>
</rdf:Bag>
</dc:subject>
<dc:description>Playing with Inkscape on Gnu/Linux O. S.</dc:description>
<dc:contributor>
<cc:Agent>
<dc:title>In the night, alone like a dog.</dc:title>
</cc:Agent>
</dc:contributor>
</cc:Work>
</rdf:RDF>
</metadata>
<g transform="translate(0,32)">
<g transform="translate(16 -16)">
<path d="m73.143-16h-82.286c-3.7988 0-6.8571 3.0583-6.8571 6.8571v82.286c0 3.7989 3.0583 6.8571 6.8571 6.8571h82.286c3.7989 0 6.8571-3.0583 6.8571-6.8571v-82.286c0-3.7989-3.0583-6.8571-6.8571-6.8571z" opacity=".15"/>
<path d="m72.5-15.25h-81c-3.7395 0-6.75 3.0105-6.75 6.75v81c0 3.7395 3.0105 6.75 6.75 6.75h81c3.7395 0 6.75-3.0105 6.75-6.75v-81c0-3.7395-3.0105-6.75-6.75-6.75z" opacity=".15"/>
<path d="m71.857-14.5h-79.714c-3.6801 0-6.6429 2.9627-6.6429 6.6429v79.714c0 3.6801 2.9627 6.6429 6.6429 6.6429h79.714c3.6801 0 6.6429-2.9627 6.6429-6.6429v-79.714c0-3.6801-2.9627-6.6429-6.6429-6.6429z" fill="url(#linearGradient4071)"/>
<path d="m-4.7587-9.6128c-2.8565 0-5.1241 2.2884-5.1241 5.171v68.58c1.0972 1.6845 2.9688 2.8117 5.1241 2.8117h73.787c2.1553 0 4.0269-1.1272 5.1241-2.8117v-68.58c0-2.8826-2.2676-5.171-5.1241-5.171z" fill="#c0bac1" opacity=".9"/>
<path d="m74.727-8.918-55.167 16.081 14.614 59.12h38.019l2.5346-2.7518v-38.525z" color="#000000" fill="#d388ec"/>
<path d="m-6.1749-11.271c-3.1166 0-5.668 2.5395-5.668 5.646v69.278c0 3.1065 2.5513 5.646 5.668 5.646h76.792c3.1166 0 5.668-2.5395 5.668-5.646v-69.278c0-3.1065-2.5513-5.646-5.668-5.646zm0 2.3194h76.792c1.8881 0 3.352 1.4801 3.352 3.3266v69.278c0 1.8465-1.4639 3.3266-3.352 3.3266h-76.792c-1.8881 0-3.352-1.4801-3.352-3.3266v-69.278c0-1.8465 1.4639-3.3266 3.352-3.3266z" color="#000000" fill="#1f2224" fill-opacity=".79412" style="text-decoration-line:none;text-indent:0;text-transform:none"/>
<path d="m-14.5 65.844v6c0 3.6801 2.9761 6.6562 6.6562 6.6562h79.687c3.6801 0 6.6563-2.9761 6.6563-6.6562v-6c0 3.6801-2.9761 6.6562-6.6563 6.6562h-79.687c-3.6801 0-6.6562-2.9761-6.6562-6.6562z" fill="url(#linearGradient4129)" opacity=".65818"/>
<rect x="-10.625" y="64.25" width="84.25" height="4.25" rx="4.25" ry="4.25" fill="url(#radialGradient1058)" opacity=".55"/>
<path d="m48.369 4.7871c-3.2932 0-6.6061 1.0382-9.1738 3.1602-2.581 2.133-4.3184 5.4149-4.3184 9.4766v1.709h1.7109 1.0117 1.709v-1.709c0-2.7879 1.0729-4.6937 2.7539-6.0723 1.6753-1.3739 3.9925-2.1328 6.3066-2.1328 2.3552 0 4.4924 0.76642 5.9707 2.0352 1.6736 1.4369 2.5449 3.4432 2.5449 6.1699v1.709h1.709 1.0117 1.709v-1.709c0-3.8268-1.4097-7.2266-4.1035-9.5391-2.3609-2.0266-5.5118-3.0977-8.8418-3.0977zm0 1.3984c1.5146 0 2.978 0.24565 4.3223 0.71289-1.3442-0.46721-2.8076-0.71094-4.3223-0.71094-1.499 0-2.9979 0.23728-4.4082 0.71094 1.41-0.47363 2.91-0.71289 4.4082-0.71289zm0 1.6328c1.3282 0 2.6062 0.214 3.7734 0.61719-1.1671-0.40311-2.4451-0.61523-3.7734-0.61523-1.126 0-2.2334 0.2279-3.3066 0.5332 1.0735-0.30581 2.1803-0.53516 3.3066-0.53516zm7.9297 1.1289c4.25e-4 3.65e-4 0.0015-3.65e-4 2e-3 0 0.56651 0.4863 1.0594 1.0338 1.4961 1.6211 1.255 1.6878 1.8625 3.8178 1.9863 6.1641-0.1201-2.3391-0.7473-4.4634-1.9864-6.1641-0.43072-0.59117-0.93006-1.1335-1.498-1.6211zm-16.213 0.078125c4.42e-4 -3.655e-4 0.0015 3.655e-4 2e-3 0-1.0967 0.90628-2.0121 2.0388-2.666 3.377-0.64926 1.3285-1.0383 2.8607-1.0996 4.5723 0.06247-1.7137 0.44174-3.2493 1.0996-4.5723 0.66272-1.3327 1.5697-2.4725 2.6641-3.377zm15.164 1.166c4.22e-4 3.62e-4 0.0015-3.61e-4 2e-3 0 0.94808 0.81401 1.6648 1.8159 2.1562 2.9727-0.50777-1.1431-1.2095-2.1581-2.1582-2.9727zm-14.074 0.07813c-0.94537 0.7753-1.717 1.7522-2.2852 2.8906 0.5605-1.1463 1.3399-2.1155 2.2852-2.8906zm7.2324 3.6543c-1.6 0-2.916 1.316-2.916 2.916 0 1.589 1.2837 2.9551 2.916 2.9551 1.6297 0 2.9141-1.3642 2.9141-2.9551 0-1.5995-1.3143-2.916-2.9141-2.916zm0 1.3984c0.4163 0 0.79346 0.17333 1.0684 0.44922-0.27593-0.27586-0.65566-0.44726-1.0684-0.44726-0.82549-2e-6 -1.5156 0.69014-1.5156 1.5156 0 0.0956 0.08157 0.15668 0.09766 0.24805-0.01652-0.0911-0.09961-0.153-0.09961-0.24805 0-0.83154 0.68604-1.5176 1.5176-1.5176zm0 1.4004c0.08427 0 0.11719 0.0326 0.11719 0.11719 0 0.06161-0.11571 0.15625-0.11719 0.15625-0.0094 0-0.11719-0.09074-0.11719-0.15625 0-0.08497 0.03222-0.11719 0.11719-0.11719zm-12.09 0.30078-0.02344 0.70898h1.6152v2e-3h-0.31055-1.0117-0.3125v-0.31055c0-0.14153 0.03845-0.26131 0.04297-0.40039zm23.525 0.02148c0.0039 0.13634 0.07227 0.24088 0.07227 0.37891v0.31055h-0.31055-1.0117-0.31055v-2e-3h1.582zm-11.764 1.209c0.11991 0.03075 0.19685 0.14062 0.32812 0.14062 0.11623 0 0.18355-0.09886 0.29102-0.12305-0.10677 0.02476-0.17658 0.125-0.29102 0.125-0.12933 0-0.20884-0.11125-0.32812-0.14258zm-34.605 4.0605 0.0039 0.14258c-0.89363 0.06835-1.7799 0.19031-2.6191 0.5 0.0087 6.24e-4 0.01928 8.25e-4 0.03516 2e-3 -0.02127-5.78e-4 -0.02479 4.88e-4 -0.04297 0-0.0043 0.0016-0.0093 3.41e-4 -0.01367 2e-3 -0.01013-3.02e-4 -0.01517-2e-3 -0.02539-2e-3 -0.03725 0.0043-0.07084 0.01-0.10547 0.01758 0.01892-0.0034 0.03019-0.0013 0.05859-2e-3 -0.02187 0.0083-0.04655 0.0052-0.06836 0.01367l-2e-3 -0.0078v-2e-3l0.0098-2e-3h2e-3l0.0078-0.0039c0.02881-0.0059 0.06496-0.01059 0.08984-0.01367 0.0021-2.62e-4 0.0062 2.02e-4 0.0078 0 0.0013-1.59e-4 0.0049-0.0018 0.0059-2e-3 -0.0045-1.17e-4 -0.02142-6e-6 -0.02148 0-3.2e-5 4e-6 -0.0071 0.0018-0.0078 2e-3 -0.01392 6.18e-4 -0.02212-0.0036-0.03516-2e-3 -0.09037 0.01114-0.15002 0.03528-0.19336 0.05273-1.0941 0.42848-2.1016 1.0566-2.9981 1.8302-0.17261 0.14905-0.25819 0.32478-0.4082 0.48438v-0.66992-1.709h-1.709-1.0508-1.709v1.709 27.139 1.7109h1.709 1.0508 1.709v-1.7109-15.357c0-1.3559 0.18914-2.6686 0.53125-3.8848 0.37558-1.2133 0.84442-2.1791 1.4551-3.0234 0.63621-0.86764 1.395-1.5351 2.2637-2.0117l0.01172-0.0059 0.0039-2e-3 0.01563-0.0098c0.0023-0.0013 0.0055-6.27e-4 0.0078-2e-3l0.0039-2e-3c0.81717-0.47237 1.7059-0.70117 2.7852-0.70117 1.3283 0 2.2763 0.22286 2.8926 0.54297 0.73629 0.3809 1.196 0.79163 1.5566 1.3672 0.38353 0.61544 0.65035 1.3538 0.79883 2.2617 3.82e-4 0.0023 0.0016 0.0035 2e-3 0.0059l0.02148 0.12305v2e-3c0.19029 1.0114 0.28906 2.1064 0.28906 3.2793v17.418 1.7109h1.709 1.0508 1.709v-1.7109-17.225c0-1.0758 0.17964-2.0865 0.50586-3.0371 6.47e-4 -0.0019 0.0013-4e-3 2e-3 -0.0059l0.0059-0.01367c0.32423-0.97236 0.77789-1.7823 1.375-2.4941l2e-3 -2e-3c0.5727-0.68056 1.2192-1.1758 2.0254-1.5645l0.0039-2e-3 0.12891-0.06445v-2e-3c0.79894-0.39963 1.6667-0.58984 2.7559-0.58984 1.3275 0 2.2978 0.18154 2.9297 0.46289l2e-3 2e-3 0.10156 0.04492c0.7042 0.31343 1.1791 0.69798 1.5508 1.209l0.0039 0.0039 0.0098 0.01367 0.0078 0.01172 2e-3 2e-3c0.42107 0.54495 0.73231 1.229 0.90039 2.0938l2e-3 0.0039 2e-3 0.01367 0.0039 0.01563v0.0078c0.21017 0.93538 0.31641 2.0276 0.31641 3.2695v0.0039l0.038713 8.6741c-1.5e-5 0.41483-0.0012 0.86973 0 1.2793v0.09375l2e-3 0.01563c0.06097 1.123 0.1554 2.2696 0.5918 3.4453l0.0078 0.02344 0.0098 0.02344c0.56485 1.37 1.3387 2.615 2.3652 3.6426l0.41016 0.41016h0.26953c0.89651 0.73406 1.8635 1.4018 3.0195 1.8223l2e-3 2e-3 0.04297 0.01563h0.0039c1.3686 0.44248 2.8517 0.6875 4.4336 0.6875 2.9695 0 5.6019-0.78922 7.6113-2.4531 0.22504-0.18289 0.35642-0.41024 0.55469-0.60742v0.76758 1.7109h1.7109 1.0488 0.03906 1.7129v-1.711-27.139-1.709h-1.7129-1.0879-1.7109v1.709 15.357c0 1.3785-0.15807 2.6464-0.52148 3.8281-0.3598 1.1715-0.90702 2.1788-1.6211 3.0723-5.43e-4 6.79e-4 -0.0014 0.0013-2e-3 2e-3l-0.0039 0.0039c-0.65751 0.82939-1.4618 1.4982-2.4824 2.0254-0.95422 0.46096-2.1259 0.71289-3.5352 0.71289-0.97974 0-1.887-0.14456-2.7832-0.41016-0.0019-5.74e-4 -0.0039-0.0014-0.0059-2e-3l-2e-3 0.0039c-0.0025-7.76e-4 -0.0071-0.0012-0.0098-2e-3 -0.779-0.27787-1.4524-0.67405-2.0801-1.2148-0.58574-0.56418-1.072-1.2571-1.4414-2.1328-0.27662-0.68178-0.36524-1.8889-0.36524-3.4355v-0.0039l-0.03906-8.5156c-2.7e-4 -1.5805-0.14731-3.0435-0.46289-4.3906-0.32707-1.4311-0.8946-2.7035-1.7363-3.7715-0.83976-1.1005-1.9546-1.9956-3.2871-2.5977h-2e-3c-1.3986-0.63141-3.0081-0.86133-4.8145-0.86133-2.4239 0-4.6591 0.67491-6.5156 2.0684-0.87023 0.65292-1.4947 1.4628-2.041 2.3086-0.5064-0.87274-1.0921-1.7039-1.9238-2.3594l-0.02734-0.01953-0.0293-0.01953c-0.0064-0.0041-0.04319-0.02841-0.07813-0.05078-0.01747-0.01119-0.03396-0.02103-0.04687-0.0293-0.0065-0.0041-0.01147-0.0071-0.01563-0.0098-0.0016-1e-3 -0.0025-3e-3 -0.0039-0.0039 0 0-0.0011 5.26e-4 -2e-3 0-9.45e-4 -6e-4 -2e-3 -7.37e-4 -0.0039-2e-3l-0.07813-0.04297c-3.2e-4 -1.48e-4 -0.06802-0.02771-0.10938-0.04297-0.03249-0.01199-0.07907-0.02815-0.14258-0.04492-0.17479-0.12465-0.38938-0.18114-0.57227-0.29297l-0.05859-0.36523v0.33594c-1.5164-0.91225-3.2451-1.4748-5.1895-1.4238-4.5e-5 -9.8e-5 4.8e-5 -0.0059 0-0.0059-0.04627-9.13e-4 -0.02373-3.8e-5 -0.02734 0-0.0072 7.6e-5 -0.02287-1.96e-4 -0.0039 0h-0.0078l0.01367 0.41992c-0.01006-0.20051-0.02207-0.41552-0.01953-0.41797l2e-3 -2e-3c-0.0011 4.3e-5 1e-3 -1.35e-4 -2e-3 0zm-2.4746 0.65234c6.5e-4 4.4e-5 0.0078 3e-6 0.0078 0-3.37e-4 -6.7e-5 0.08391 0.0214 0.07813 0.01953-0.0045-0.0015-0.05847-0.0131-0.08594-0.01953zm3.2246 0.52148 0.0059 0.18359h-2e-3c-5.08e-4 -0.02388-0.0022-0.10204-0.0039-0.18359zm-0.03125 0.23242h0.03711 2e-3c0.02034-6.09e-4 0.03636 0.0083 0.05664 0.0078 0.98776-0.02351 1.9119 0.09414 2.7617 0.35742-0.83687-0.24548-1.7411-0.3675-2.707-0.34961 0.0065 0.0017 0.07031 0.01953 0.07031 0.01953l0.06055 0.02344s-0.05289 0.12346-0.09766 0.22852c-0.03478-3.54e-4 -0.06266-0.0097-0.09766-0.0098 0.02323-0.12482 0.04883-0.26367 0.04883-0.26367-0.0139 2.79e-4 -0.02514-0.0042-0.03906-0.0039-1.86e-4 0.0015-0.01719 0.13958-0.0332 0.26562-0.0084-1.4e-5 -0.01503-2e-3 -0.02344-2e-3 -4e-3 0-0.0077 0.0019-0.01172 2e-3l-0.0039-0.27344c-3.41e-4 -4e-6 -0.0016 6e-6 -2e-3 0h-0.0078-0.01367-2e-3 -0.0078c0.0034-1.8e-5 0.0064-0.0019 0.0098-2e-3zm0.02344 2e-3c0.0045 5.8e-5 9e-3 1e-3 0.02539 2e-3 -0.0042 1.22e-4 -0.0075-0.0021-0.01172-2e-3 -0.02039 6.3e-4 -0.0325-3.08e-4 -0.01367 0zm16.85-2e-3c0.77553 0 1.2902 0.23901 1.9492 0.33984-0.65873-0.10047-1.1741-0.33789-1.9492-0.33789-0.9454 0-1.8192 0.16097-2.6621 0.38672 0.84313-0.22618 1.7161-0.38867 2.6621-0.38867zm-20.121 0.04102 0.23438 0.51758-0.01367 0.0059c-0.0092 0.0014-0.01995-0.0021-0.02734 0l-0.02344 0.0078zm-0.04101 0.08008 0.20508 0.45312h-2e-3l-0.0293 0.01172c-3.13e-4 1.22e-4 3.13e-4 0.0018 0 2e-3 -5.11e-4 1.99e-4 -0.0014-2e-4 -2e-3 0-0.0035 0.0014-0.01525 0.0042-0.01953 0.0059zm9.0684 0.2168c0.0052 8.25e-4 0.0067-9.95e-4 0.01172 0l0.0039 2e-3c-0.0041-6.69e-4 -0.0056 5.77e-4 -0.0098 0zm-8.6406 0.20703c0.0015-1.5e-5 0.0024 1e-6 0.0039 0 0.0924-8.8e-5 0.20776 0.01821 0.23047 0.02539 0.04121 0.01304-0.19125-0.0073-0.3418-0.0039 0.03407-0.01316 0.07319-0.0088 0.10742-0.02148zm-0.33789 0.06445c-0.02265 0.0061-0.03146 0.01128-0.06445 0.01563-0.0011 1.17e-4 -0.0029 0.0018-0.0039 2e-3 -7.12e-4 8.8e-5 -0.0012-8.4e-5 -2e-3 0-0.06615 0.0078-0.1347-0.0014-0.17969-0.0078-3e-3 -6.97e-4 -0.0074-9.37e-4 -0.01172-2e-3 0.0028-0.0035 0.14268-6e-6 0.26172-0.0078zm-0.0098 0.0098c-0.01825 0.0032-0.04707 0.0098-0.04687 0.0098 3.4e-5 -3e-6 -0.01027 4.3e-5 -0.01172 0 0.0095-0.0011 0.03225-0.0061 0.05859-0.0098zm-0.23438 2e-3c0.01208 8.71e-4 0.03736 0.0013 0.07422 0.0039-0.02895-7.81e-4 -0.06262-2e-3 -0.0625-2e-3 3.7e-5 6e-6 -0.0096-0.0015-0.01172-2e-3zm48.621 2e-3h2e-3v0.31055 27.139 0.3125h-2e-3zm-38.947 0.07031 0.17773 0.36133-0.7793 0.55273 0.08008-0.21875c0.19082-0.27204 0.36319-0.51996 0.4707-0.67188zm-0.27539 0.13086-0.12695 0.24023 0.08008-0.21875zm-0.13867 0.06641c-0.04888 0.09103-0.05319 0.09784-0.10547 0.19531 0.03164-0.08792 0.03428-0.0921 0.06445-0.17578zm-9.7773 0.21484c-0.60209 0.32213-1.2203 0.61361-1.7539 1.0741-0.2201 0.19005-0.3553 0.4543-0.55664 0.66211 0.18334-0.21513 0.35172-0.48881 0.55469-0.66406 0.53359-0.46047 1.1526-0.75058 1.7559-1.0723zm-0.17771 0.2362c-0.0024 0.0013-0.0035 0.0045-0.0059 0.0059-0.0018 1e-3 -0.0041 9.11e-4 -0.0059 2e-3zm4.1777 0.33008c1.4803 0 2.6449 0.23776 3.5371 0.70117 0.90305 0.46717 1.6007 1.0712 2.0977 1.8633 4.88e-4 7.79e-4 0.0015 0.0012 2e-3 2e-3v2e-3c-0.49634-0.7921-1.1964-1.3999-2.0996-1.8672-0.89235-0.46348-2.0565-0.69922-3.5371-0.69922-1.2855 0-2.4554 0.28683-3.4961 0.89062l2e-3 -2e-3 0.0039-2e-3h2e-3c1.0386-0.60051 2.2056-0.88867 3.4883-0.88867zm16.834 0c1.3903 0 2.4742 0.19299 3.3574 0.56055l-2e-3 2e-3c-0.88335-0.36734-1.9653-0.56055-3.3555-0.56055-1.1989 0-2.2517 0.24443-3.2227 0.70117 0.97075-0.4564 2.0239-0.70312 3.2227-0.70312zm-11.387 0.0332c2e-6 -7e-6 2e-3 8e-6 2e-3 0v2e-3l-2e-3 2e-3c7e-6 -2.2e-5 -1.5e-5 -0.0039 0-0.0039zm14.957 0.58203 0.01367 0.0039c0.0033 0.0014 0.0045 0.0044 0.0078 0.0059zm-7.0293 0.16211-0.02539 0.01367c0.0047-0.0023 7e-3 -0.0075 0.01172-0.0098zm-16.877 0.11914c-1.051 0.57684-1.97 1.389-2.7188 2.4102 0.74743-1.0193 1.6659-1.83 2.7129-2.4062 2e-3 -0.0011 0.0038-0.0028 0.0059-0.0039zm27.336 0.35156 0.0039 0.0039 2e-3 0.0059c0.696 0.88368 1.1817 1.9502 1.4707 3.2148-0.29009-1.2693-0.77736-2.3399-1.4766-3.2246zm-12.988 1.4746c3.39e-4 -4.02e-4 0.0016 4.03e-4 2e-3 0v2e-3c-0.70957 0.84526-1.2537 1.8221-1.6289 2.9434 0.37539-1.1218 0.91756-2.1003 1.627-2.9453zm-18.73 0.46289c-0.14482 0.28882-0.26208 0.59272-0.36914 0.89844l-0.22266-0.04102v-0.04102zm1.6621 0.125c-0.71269 0.98447-1.2516 2.1073-1.6641 3.4434 0.41157-1.3336 0.94871-2.4535 1.6582-3.4355zm14.008 0.02539 0.41797 0.91016 0.47461-0.90625c-0.15025 0.31817-0.35464 0.59814-0.47461 0.9375-0.10217-0.34381-0.28614-0.62118-0.41797-0.94141zm17.588 1.7402c0.2078 1.0765 0.36502 2.1996 0.36523 3.4746v2e-3l0.03906 8.5176c0 1.582 0.03611 2.8951 0.4668 3.959-0.42947-1.0607-0.46873-2.3769-0.46875-3.957v-2e-3l-0.03906-8.5156c0-1.2762-0.15543-2.4007-0.36328-3.4785zm-18.734 0.30273c0.0011 0.0069 0.0067 0.01064 0.0078 0.01758 4.56e-4 0.0029 0.0015 0.0049 2e-3 0.0078v0.04492 0.01758c-0.0011-0.0061-8.04e-4 -0.01342-2e-3 -0.01953v-0.01563zm-14.529 1.3848-0.00195 0.0078c5.095e-4 -0.0018-5.102e-4 -0.0041 0-0.0059 2.807e-4 -9.13e-4 0.00167-1e-3 0.00195-2e-3zm31.994 11.762 2e-3 2e-3v2e-3 0.01758zm19.637 1.584v0.17969l-0.08594-0.01563c0.02414-0.05816 0.06262-0.10533 0.08594-0.16406zm-17.508 0.90234 0.01172 0.02148v2e-3l2e-3 0.0039c-3.77e-4 -8.98e-4 -0.0016-0.0011-2e-3 -2e-3v-2e-3zm0.01563 0.0332c1.52e-4 3.62e-4 0.0018-3.62e-4 2e-3 0l0.04492 0.08984v0.02734zm0.03516 0.05078c0.43858 1.0204 1.0234 1.8815 1.7402 2.5684l0.01367 0.01172 0.01367 0.01172c0.59877 0.51851 1.3034 0.86041 2.0234 1.1816-0.72289-0.32142-1.4337-0.66159-2.0352-1.1836l-0.0039-0.0039c-6.82e-4 -5.93e-4 -0.0013-0.0014-2e-3 -2e-3h-2e-3c-0.7243-0.69104-1.3078-1.5585-1.748-2.584zm-1.6738 0.4707 0.0039 0.01367 0.0059 0.01172c-0.0013-0.0032-0.0046-0.0047-0.0059-0.0078v-0.0039l-2e-3 -2e-3c-0.0014-0.0037-5.86e-4 -8e-3 -2e-3 -0.01172zm18.545 0.03711 0.25781 0.04883-1.041 1.4746c0.3094-0.47804 0.5508-0.99832 0.7832-1.5234zm-12.336 2.2285c0.03473-0.0025 0.0419 0.0043 0.06836 0.0059-0.09056 0.0038-0.20483 0.01517-0.24024 0.02734-0.04492 0.01544 0.06972-0.0259 0.17188-0.0332zm8.916 0.20703c-0.0081 0.0066-0.01142 0.01683-0.01953 0.02344l-0.01953 0.01563 0.0332-0.03516zm-13.115 0.64453 0.08984 0.08398h-0.03711c-0.02284-0.02287-0.03016-0.06084-0.05273-0.08398zm11.469 0.0918-0.05664 0.02734c0.0065-0.0033 0.0091-0.01031 0.01563-0.01367-0.0091 0.0047-0.01427 0.01286-0.02344 0.01758-0.0022 0.0011-0.0056 8.65e-4 -0.0078 2e-3l0.03125-0.01953c0.0017-8.9e-4 0.0022-3e-3 0.0039-0.0039 9.45e-4 -4.9e-4 3e-3 4.91e-4 0.0039 0zm-7.5859 0.39062c0.0071 5.99e-4 0.01526-9.06e-4 0.02148 0 0.01784 0.0026 0.01628 0.0051 0.0293 0.0078-0.01546-0.0028-0.03216-0.0058-0.05078-0.0078zm0.19336 0.0332c0.04657 0.01375 0.09975 0.0064 0.14648 0.01953-0.0014-2.6e-5 -0.0026 2e-3 -0.0039 2e-3 0.0043 2.74e-4 0.0072-1.98e-4 0.01172 0 0.96353 0.27101 1.9549 0.44141 3.0137 0.44141-1.0627 0-2.058-0.16857-3.0254-0.44141-0.0013-3.6e-5 -0.0026 4.8e-5 -0.0039 0-0.0064-2.43e-4 -0.01381 0.0025-0.01953 2e-3 -0.02619-0.0026-0.02528-0.0045-0.04297-0.0078 0.01441 0.0024 0.03172 0.0023 0.04883 0.0039-0.03433-0.0097-0.07317-0.0056-0.10742-0.01563-0.0038-0.0012-0.01456-0.0029-0.01758-0.0039zm-0.51562 0.0059c-0.03122 0.01033-0.04003 0.01405-0.0625 0.02148-8.63e-4 -3.44e-4 -0.0011-0.0016-2e-3 -2e-3 0.01859-0.0057 0.03325-0.01 0.06445-0.01953zm11.35 0.98633-0.05078 0.04687 0.02539-0.02148zm-11.258 0.34961c1.6e-5 3e-6 0.01192-8e-5 0.01367 0 7.65e-4 3.5e-5 0.0048 0.0019 0.0059 2e-3 -0.0017-4.9e-5 -0.01369-3e-6 -0.01367 0 1.2e-5 2e-6 -0.0052-0.0018-0.0059-2e-3zm0.2168 0.0039c0.0027-2.17e-4 0.0052 2.28e-4 0.0078 0-7.23e-4 2.4e-4 -0.0098 0.0039-0.0098 0.0039 5e-6 0-0.0073 1.8e-5 -0.0078 0 5.65e-4 -1.72e-4 0.0085-0.0035 0.0098-0.0039zm-0.62891 0.12695 0.0098 2e-3c0.5363 0.17292 1.1684 0.16813 1.7441 0.27148-0.57635-0.10253-1.2089-0.09622-1.7461-0.26953zm-40.008 0.03906h1.6719v2e-3h-0.31056-1.0508-0.31055zm17.107 0h1.6719v2e-3h-0.31055-1.0508-0.31055z" color="#000000" color-rendering="auto" dominant-baseline="auto" fill="#fff" filter="url(#filter994)" image-rendering="auto" shape-rendering="auto" solid-color="#000000" style="font-feature-settings:normal;font-variant-alternates:normal;font-variant-caps:normal;font-variant-ligatures:normal;font-variant-numeric:normal;font-variant-position:normal;isolation:auto;mix-blend-mode:normal;shape-padding:0;text-decoration-color:#000000;text-decoration-line:none;text-decoration-style:solid;text-indent:0;text-orientation:mixed;text-transform:none;white-space:normal"/>
<path d="m48.369 6.1867c-2.9972 0-5.9992 0.95214-8.2815 2.8383-2.2823 1.8861-3.8103 4.7281-3.8103 8.3981v0.31104h0.31104 1.0109 0.31104v-0.31104c0-3.1665 1.3024-5.5436 3.2659-7.154 1.9636-1.6103 4.5778-2.4495 7.1928-2.4495 2.6559 0 5.113 0.85363 6.8818 2.3717 1.9943 1.7123 3.0327 4.1907 3.0327 7.2317v0.31104h0.31104 1.0109 0.31104v-0.31104c0-3.4902-1.2483-6.4435-3.6159-8.4759-2.0774-1.7832-4.9025-2.7605-7.9316-2.7605zm0.03888 9.1369c-0.8355 0-1.5163 0.68083-1.5163 1.5163 0 0.83397 0.67777 1.5552 1.5163 1.5552 0.83531 0 1.5163-0.7199 1.5163-1.5552 0-0.83563-0.68115-1.5163-1.5163-1.5163zm-34.215 8.3981c-1.0669 0.0046-2.1059 0.19521-3.0715 0.5832-0.01182 0.0047-0.02708-0.0049-0.03888 0-0.93668 0.36473-1.8123 0.91001-2.605 1.5941-0.80062 0.69132-1.4783 1.5036-2.0218 2.4106-0.31547 0.5251-0.47942 1.1267-0.69984 1.7107v-5.3655-0.31104h-0.31104-1.0498-0.31104v0.31104 27.138 0.31104h0.31104 1.0498 0.31104v-0.31104-15.358c0-1.4887 0.20384-2.9325 0.5832-4.2768 0.41381-1.3451 0.95517-2.4713 1.6719-3.4603 0.74977-1.0225 1.6699-1.8336 2.7216-2.4106 1.0435-0.60635 2.2096-0.89425 3.4992-0.89425 1.4795 0 2.6484 0.23772 3.5381 0.69984 0.90687 0.46915 1.6002 1.0694 2.0995 1.8663 0.50314 0.80685 0.84047 1.7474 1.0109 2.8383v0.03888c0.20814 1.1062 0.31104 2.2876 0.31104 3.5381v17.418 0.31104h0.31104 1.0498 0.31104v-0.31104-17.224c0-1.2343 0.20726-2.4059 0.5832-3.4992 0.3758-1.127 0.91997-2.1059 1.633-2.9549 0.71178-0.84655 1.5489-1.5083 2.5661-1.9829h0.03888c1.0105-0.50544 2.1227-0.73872 3.3826-0.73872 1.448 0 2.602 0.1837 3.4992 0.5832h0.03888c0.9421 0.40352 1.6493 0.98475 2.1773 1.7107 0.5665 0.73316 0.96238 1.633 1.1664 2.6827 0.2391 1.0642 0.34992 2.2568 0.34992 3.577l0.03888 8.6703c0 0.41954-0.0012 0.87682 0 1.283v0.03888c0.05931 1.0924 0.15031 2.0759 0.50544 3.0327 0.50737 1.2305 1.1857 2.3124 2.0607 3.1882h0.03888c0.9103 0.83724 1.9516 1.4695 3.1493 1.9051 1.2321 0.39837 2.5678 0.62208 4.0047 0.62208 2.729 0 5.0088-0.71263 6.7263-2.1384 1.3551-1.1005 2.2272-2.5141 2.8383-4.0824v5.3266 0.31104h0.31104 1.0498 0.03888 0.31104v-0.31104-27.138-0.31104h-0.31104-1.0886-0.31104v0.31104 15.358c0 1.4858-0.17064 2.8965-0.5832 4.2379-0.4113 1.3391-1.0465 2.513-1.8663 3.5381-0.7812 0.98542-1.759 1.7958-2.9549 2.4106-1.1843 0.57548-2.5793 0.85537-4.1602 0.85537-1.1196 0-2.1719-0.16476-3.1882-0.46656-0.01095-0.0037-0.02799 0.0039-0.03888 0-0.97251-0.34015-1.8342-0.84585-2.605-1.5163-0.74095-0.70692-1.3451-1.5866-1.7885-2.6439-0.427-1.051-0.46656-2.3882-0.46656-3.9658l-0.03888-8.5148c0-1.4978-0.14019-2.8579-0.42768-4.0824-0.2904-1.2706-0.7764-2.3406-1.4774-3.2271-0.70069-0.92152-1.6271-1.6655-2.7605-2.1773-1.1448-0.51715-2.5526-0.73872-4.2379-0.73872-2.1696 0-4.073 0.58493-5.6765 1.7885-1.4231 1.0677-2.3641 2.4882-2.9549 4.1602-0.51704-1.7398-1.3979-3.1976-2.7216-4.2379-0.0088-0.0073-0.03002 0.0072-0.03888 0-1.4557-1.1901-3.3022-1.7749-5.4432-1.7107-0.01371 4.11e-4 -0.02515-4.63e-4 -0.03888 0z" color="#000000" fill="#00122b" fill-opacity=".81183" stroke="#000" stroke-width="1.4"/>
<rect transform="rotate(90)" x="-10.44" y="-74.085" width="76.75" height="4.25" rx="4.25" ry="4.25" fill="url(#radialGradient1050)" opacity=".669"/>
<rect transform="matrix(1.0692 0 0 1.0477 -11.744 22.117)" x="2" y="-30" width="75.966" height="69.024" rx="3.957" ry="3.957" clip-path="url(#clipPath4156-4-1-5)" fill="url(#linearGradient1032)" opacity=".65"/>
</g>
</g>
</svg>
