<?xml version="1.0" encoding="UTF-8"?>
<!-- Created with Inkscape (http://www.inkscape.org/) -->
<svg version="1.1" viewBox="0 0 96 96" xmlns="http://www.w3.org/2000/svg" xmlns:cc="http://creativecommons.org/ns#" xmlns:dc="http://purl.org/dc/elements/1.1/" xmlns:rdf="http://www.w3.org/1999/02/22-rdf-syntax-ns#" xmlns:xlink="http://www.w3.org/1999/xlink">
<defs>
<linearGradient id="linearGradient4071" x1="6" x2="90" y1="47" y2="47" gradientTransform="matrix(1.1071 0 0 1.1071 -4.9939 -3.6207)" gradientUnits="userSpaceOnUse">
<stop stop-color="#b4b8ba" offset="0"/>
<stop stop-color="#fff" offset=".25"/>
<stop stop-color="#989fa2" offset=".5"/>
<stop stop-color="#f9fafb" offset=".75"/>
<stop stop-color="#b4b7ba" offset="1"/>
</linearGradient>
<linearGradient id="linearGradient4129" x1="1.5" x2="94.5" y1="88.172" y2="88.172" gradientTransform="translate(.14895 .41503)" gradientUnits="userSpaceOnUse">
<stop offset="0"/>
<stop stop-opacity=".58824" offset=".1"/>
<stop stop-opacity=".58824" offset=".9"/>
<stop offset="1"/>
</linearGradient>
<radialGradient id="radialGradient7462" cx="13.948" cy="44.893" r="43.199" gradientTransform="matrix(.97513 0 0 .049191 34.048 80.582)" gradientUnits="userSpaceOnUse" xlink:href="#linearGradient3737"/>
<linearGradient id="linearGradient3737">
<stop stop-color="#fff" offset="0"/>
<stop stop-color="#fff" stop-opacity="0" offset="1"/>
</linearGradient>
<radialGradient id="radialGradient7464" cx="13.948" cy="44.893" r="43.199" gradientTransform="matrix(.88833 0 0 .049191 31.96 -90.317)" gradientUnits="userSpaceOnUse" xlink:href="#linearGradient3737"/>
<linearGradient id="linearGradient4767" x1="2.7714" x2="50.528" y1="-28.642" y2="14.514" gradientUnits="userSpaceOnUse" xlink:href="#linearGradient3737"/>
<clipPath id="clipPath4156-4-1">
<path d="m27.046-55.695-14.214 13.321h0.06127l15.653 21.771 10.231-10.546c-0.2169-1.1522-11.311-23.67-11.732-24.546zm-17.399 16.313-14.888 14.062 21.229 17.515 10.385-10.577zm31.491 12.951-9.7413 9.7136 8.9448 12.458 7.7808-7.555zm-49.84 4.3788-13.754 12.982 26.283 13.846 0.06127-0.0617-0.12253-0.0617 9.8332-10.053-22.301-16.652zm38.015 7.4008-9.8025 9.7753 11.579 9.5594 7.6276-7.4008-8.6691-11.009zm20.187 5.674-7.3825 7.2158 6.1878 8.5418 5.8202-6.1365zm-32.195 6.3215-9.5575 9.4977 13.662 7.185 7.9339-7.6784zm23.312 2.3744-7.1068 6.9383 8.3628 6.9074 5.3608-5.674-0.06127-0.0925-0.0919 0.12335-6.4635-8.2026zm-8.7304 8.5418-7.5051 7.3392 10.354 5.4581c1.3975-1.321 5.6751-6.1229 5.8509-6.3215z" fill="#fff" opacity=".6"/>
</clipPath>
<radialGradient id="radialGradient4819-2-4" cx="64.532" cy="47.319" r="41.92" gradientTransform="matrix(-.75822 0 0 .83438 99.287 -.7929)" gradientUnits="userSpaceOnUse">
<stop stop-color="#782c1b" offset="0"/>
<stop stop-color="#bb7d64" offset=".45161"/>
<stop stop-color="#d2b097" offset=".62851"/>
<stop stop-color="#fef5e3" offset="1"/>
</radialGradient>
<linearGradient id="linearGradient4816-1-1" x1="32.374" x2="46.016" y1="39.8" y2="60.049" gradientTransform="matrix(.75138 -.10164 .10164 .75138 -2.3104 11.811)" gradientUnits="userSpaceOnUse" xlink:href="#linearGradient3373-1-6"/>
<linearGradient id="linearGradient3373-1-6">
<stop stop-color="#9b6638" offset="0"/>
<stop stop-color="#9b6638" stop-opacity="0" offset="1"/>
</linearGradient>
<linearGradient id="linearGradient4813-0-2" x1="32.374" x2="42.446" y1="39.8" y2="70.568" gradientTransform="matrix(.59914 -.46468 .46468 .59914 -9.9801 41.826)" gradientUnits="userSpaceOnUse" xlink:href="#linearGradient3373-1-6"/>
<linearGradient id="linearGradient4810-5-1" x1="32.374" x2="42.446" y1="39.8" y2="70.568" gradientTransform="matrix(.19933 -.76712 .73155 .20902 .85713 81.305)" gradientUnits="userSpaceOnUse" xlink:href="#linearGradient3373-1-6"/>
<linearGradient id="linearGradient4807-7-2" x1="73.539" x2="88.212" y1="63.534" y2="72.196" gradientTransform="matrix(.75822 0 0 .75822 1.8313 4.1948)" gradientUnits="userSpaceOnUse" xlink:href="#linearGradient4335-5-2"/>
<linearGradient id="linearGradient4335-5-2">
<stop stop-color="#7c420f" offset="0"/>
<stop stop-color="#7d430f" stop-opacity="0" offset="1"/>
</linearGradient>
<radialGradient id="radialGradient4610-5-5" cx="78.875" cy="92.75" r="17.625" gradientTransform="matrix(.80124 0 0 .37104 -1.941 40.2)" gradientUnits="userSpaceOnUse">
<stop stop-color="#fbf0e6" offset="0"/>
<stop stop-color="#fff" stop-opacity="0" offset="1"/>
</radialGradient>
<linearGradient id="linearGradient4803-9-0" x1="74.875" x2="80.838" y1="38.942" y2="30.055" gradientTransform="matrix(-.030488 -.95794 .96291 -.031489 2.1778 111.18)" gradientUnits="userSpaceOnUse" xlink:href="#linearGradient4335-5-2"/>
<linearGradient id="linearGradient4800-9-9" x1="74.875" x2="83.128" y1="38.942" y2="35.639" gradientTransform="matrix(.046883 -.78599 .78341 .045606 4.5291 89.867)" gradientUnits="userSpaceOnUse" xlink:href="#linearGradient4335-5-2"/>
<linearGradient id="linearGradient4797-3-5" x1="74.875" x2="83.128" y1="38.942" y2="35.639" gradientTransform="matrix(.098935 -.78115 .77866 .097489 4.6106 83.432)" gradientUnits="userSpaceOnUse" xlink:href="#linearGradient4335-5-2"/>
<linearGradient id="linearGradient4794-6-6" x1="74.875" x2="83.128" y1="38.942" y2="35.639" gradientTransform="matrix(.44848 -.64718 .64564 .44605 -11.431 58.256)" gradientUnits="userSpaceOnUse" xlink:href="#linearGradient4335-5-2"/>
<linearGradient id="linearGradient4791-3-6" x1="74.875" x2="83.128" y1="38.942" y2="35.639" gradientTransform="matrix(.64854 -.44652 .44594 .64571 -13.835 36.103)" gradientUnits="userSpaceOnUse" xlink:href="#linearGradient4335-5-2"/>
<linearGradient id="linearGradient4788-7-3" x1="74.875" x2="84.097" y1="38.942" y2="35.583" gradientTransform="matrix(.77176 -.15609 .15666 .76894 -8.7812 12.152)" gradientUnits="userSpaceOnUse" xlink:href="#linearGradient4335-5-2"/>
<linearGradient id="linearGradient4785-9-0" x1="74.875" x2="84.097" y1="38.942" y2="35.583" gradientTransform="matrix(.75822 0 0 .75822 1.8313 4.1948)" gradientUnits="userSpaceOnUse" xlink:href="#linearGradient4335-5-2"/>
<filter id="filter4293-2-7" x="-.25842" y="-.22403" width="1.5168" height="1.4481" color-interpolation-filters="sRGB">
<feGaussianBlur stdDeviation="0.66787627"/>
</filter>
<linearGradient id="linearGradient4693-4-7" x1="24.66" x2="28.461" y1="34" y2="35.413" gradientTransform="matrix(.75822 0 0 .75822 1.8313 4.1948)" gradientUnits="userSpaceOnUse" xlink:href="#linearGradient3737"/>
<linearGradient id="linearGradient4690-1-1" x1="26.34" x2="32.262" y1="31.524" y2="36.032" gradientTransform="matrix(.75822 0 0 .75822 6.7236 -3.5793)" gradientUnits="userSpaceOnUse" xlink:href="#linearGradient3737"/>
<linearGradient id="linearGradient4687-1-4" x1="24.926" x2="28.019" y1="33.645" y2="37.623" gradientTransform="matrix(.75822 0 0 .75822 15.57 -10.08)" gradientUnits="userSpaceOnUse" xlink:href="#linearGradient3737"/>
<linearGradient id="linearGradient4782-5-8" x1="56.015" x2="37.194" y1="68.027" y2="97.902" gradientTransform="matrix(-.75822 0 0 .75822 99.287 3.6587)" gradientUnits="userSpaceOnUse">
<stop stop-color="#faece0" offset="0"/>
<stop stop-color="#eae4df" stop-opacity=".57447" offset="1"/>
</linearGradient>
</defs>
<metadata>
<rdf:RDF>
<cc:Work rdf:about="">
<dc:format>image/svg+xml</dc:format>
<dc:type rdf:resource="http://purl.org/dc/dcmitype/StillImage"/>
<dc:title/>
<dc:date>2017</dc:date>
<dc:creator>
<cc:Agent>
<dc:title>Cristian Pozzessere "ilnanny"</dc:title>
</cc:Agent>
</dc:creator>
<dc:subject>
<rdf:Bag>
<rdf:li>Global language</rdf:li>
</rdf:Bag>
</dc:subject>
<dc:description>Playing with Inkscape on Gnu/Linux O. S.</dc:description>
<dc:contributor>
<cc:Agent>
<dc:title>In the night, alone like a dog.</dc:title>
</cc:Agent>
</dc:contributor>
<cc:license rdf:resource="http://creativecommons.org/licenses/by-sa/4.0/"/>
</cc:Work>
<cc:License rdf:about="http://creativecommons.org/licenses/by-sa/4.0/">
<cc:permits rdf:resource="http://creativecommons.org/ns#Reproduction"/>
<cc:permits rdf:resource="http://creativecommons.org/ns#Distribution"/>
<cc:requires rdf:resource="http://creativecommons.org/ns#Notice"/>
<cc:requires rdf:resource="http://creativecommons.org/ns#Attribution"/>
<cc:permits rdf:resource="http://creativecommons.org/ns#DerivativeWorks"/>
<cc:requires rdf:resource="http://creativecommons.org/ns#ShareAlike"/>
</cc:License>
</rdf:RDF>
</metadata>
<g transform="translate(0 -1026.5)">
<g transform="translate(-.14896 1026.1)">
<path d="m89.292 0.41503h-82.286c-3.7988 0-6.8571 3.0583-6.8571 6.8571v82.286c0 3.7989 3.0583 6.8571 6.8571 6.8571h82.286c3.7989 0 6.8571-3.0583 6.8571-6.8571v-82.286c0-3.7989-3.0583-6.8571-6.8571-6.8571z" opacity=".15"/>
<path d="m88.649 1.165h-81c-3.7395 0-6.75 3.0105-6.75 6.75v81c0 3.7395 3.0105 6.75 6.75 6.75h81c3.7395 0 6.75-3.0105 6.75-6.75v-81c0-3.7395-3.0105-6.75-6.75-6.75z" opacity=".15"/>
<path d="m88.006 1.915h-79.714c-3.6801 0-6.6429 2.9627-6.6429 6.6429v79.714c0 3.6801 2.9627 6.6429 6.6429 6.6429h79.714c3.6801 0 6.6429-2.9627 6.6429-6.6429v-79.714c0-3.6801-2.9627-6.6429-6.6429-6.6429z" fill="url(#linearGradient4071)"/>
<path d="m11.39 6.8022c-2.8565 0-5.1241 2.3235-5.1241 5.2503v69.632c1.0972 1.7103 2.9688 2.8548 5.1241 2.8548h73.787c2.1553 0 4.0269-1.1445 5.1241-2.8548v-69.632c0-2.9268-2.2676-5.2503-5.1241-5.2503z" fill="#e9e8ec"/>
<path d="m9.974 5.1445c-3.1166 0-5.668 2.5395-5.668 5.646v69.278c0 3.1065 2.5513 5.646 5.668 5.646h76.792c3.1166 0 5.668-2.5395 5.668-5.646v-69.278c0-3.1065-2.5513-5.646-5.668-5.646zm0 2.3194h76.792c1.8881 0 3.352 1.4801 3.352 3.3266v69.278c0 1.8465-1.4639 3.3266-3.352 3.3266h-76.792c-1.8881 0-3.352-1.4801-3.352-3.3266v-69.278c0-1.8465 1.4639-3.3266 3.352-3.3266z" color="#000000" fill="#1f2024" fill-opacity=".88298" style="text-decoration-line:none;text-indent:0;text-transform:none"/>
<path d="m1.649 82.259v6c0 3.6801 2.9761 6.6562 6.6562 6.6562h79.687c3.6801 0 6.6563-2.9761 6.6563-6.6562v-6c0 3.6801-2.9761 6.6562-6.6563 6.6562h-79.687c-3.6801 0-6.6562-2.9761-6.6562-6.6562z" fill="url(#linearGradient4129)" opacity=".65818"/>
<rect x="5.524" y="80.665" width="84.25" height="4.25" rx="0" ry="4.25" fill="url(#radialGradient7462)" opacity=".55"/>
<rect transform="rotate(90)" x="5.975" y="-90.234" width="76.75" height="4.25" rx="0" ry="4.25" fill="url(#radialGradient7464)"/>
<g transform="matrix(-.7731 -.53798 -.53798 .7731 115.62 34.666)">
<path d="m45.394 11.138c-16.704 0.18462-28.269 12.914-30.742 29.312-2.4137 16.008 7.1983 30.596 16.756 36.679 13.187 8.3934 32.409 10.123 49.077 3.2156a0.92557 0.92952 34.833 0 0 0.54959-1.05c-4.0911-19.35-11.756-23.37-18.938-28.808 3.3543-2.1959 6.1538-5.5232 7.6611-10.052 1.8134-5.4479 0.77448-11.919-2.2743-17.374-3.0488-5.455-8.1497-9.9229-14.641-11.199-2.5728-0.50407-5.0598-0.75054-7.4492-0.72413z" fill="#280b0b" opacity=".4"/>
<path d="m50.774 38.74c-0.26151-2.4962 1.2175-2.3406 0.50502-2.9275-1.4359-1.1828-4.0957 1e-3 -4.78 1.4321-1.224 2.5598 0.64718 5.3893 3.1945 6.0651 2.4309 0.64496 5.7839-1.0642 6.8582-4.5907 1.4318-4.7003-0.80767-8.2639-5.3838-9.5033-5.7585-1.5596-11.134 1.8661-12.532 7.4928-1.6934 6.8146 3.3079 13.917 9.9857 15.47 3.9347 0.91526 8.1657 0.36788 11.808-1.5992 3.6422-1.9671 6.6956-5.354 8.2752-10.118 3.3219-10.019-3.8363-24.377-15.928-26.774-19.701-3.8919-33.543 9.201-36.212 27.109-2.2642 15.191 7.0146 29.18 16.049 34.932 12.624 8.038 31.159 9.7662 47.168 3.1684-6.1082-28.59-19.571-21.534-29.007-40.157z" fill="url(#radialGradient4819-2-4)"/>
<path d="m19.912 47.416c0.5438 8.7821 4.7256 21.225 13.306 20.992 6.8611-0.18683 13.092-12.275 8.8248-15.48-5.2274-3.9266-4.8076-8.4596-6.6788-11.586-3.7542-6.2728-16.016-3.0296-15.452 6.0747z" fill="url(#linearGradient4816-1-1)" fill-rule="evenodd" opacity=".35"/>
<path d="m26.531 63.67c4.8739 7.3258 14.731 17.701 22.038 13.196 5.8426-3.6018 5.741-21.071 0.44208-21.704-6.4916-0.77625-8.4013-4.9087-11.588-6.6756-6.3934-3.5449-15.945 7.5892-10.892 15.184z" fill="url(#linearGradient4813-0-2)" fill-rule="evenodd" opacity=".25"/>
<path d="m43.165 76.586c8.1425 3.4602 22.414 5.543 25.544-2.8385 2.5027-6.7018-8.0823-21.274-12.697-18.464-5.6538 3.4427-9.6645 1.1843-13.273 1.713-7.24 1.0609-13.295 13.759 0.42646 19.59z" fill="url(#linearGradient4810-5-1)" fill-rule="evenodd" opacity=".15"/>
<path d="m61.008 50.984c5.8368 4.0119 9.9186 7.9751 9.9186 7.9751-13.806-7.9751-19.301-1.8567-26.874-8.0224 0 0 4.9593 3.8673 16.956 0.04723z" fill="url(#linearGradient4807-7-2)" fill-rule="evenodd" opacity=".5"/>
<path d="m75.379 74.615a14.122 6.5397 0 1 1-28.244 0 14.122 6.5397 0 1 1 28.244 0z" fill="url(#radialGradient4610-5-5)"/>
<path d="m37.93 38.214c-7.2393-6.2415-15.804 1.1458-15.804 1.1458l8.3389-8.0128s7.1723 2.6546 7.4647 6.867z" fill="url(#linearGradient4803-9-0)" fill-rule="evenodd" opacity=".8"/>
<path d="m38.984 32.817c-3.79-6.3554-12.308-2.525-12.308-2.525l7.7311-4.0274s4.6543 3.0844 4.5765 6.5524z" fill="url(#linearGradient4800-9-9)" fill-rule="evenodd" opacity=".8"/>
<path d="m42.775 28.794c-3.3599-6.5929-12.113-3.3362-12.113-3.3362l7.9813-3.5055s4.4394 3.3865 4.1316 6.8416z" fill="url(#linearGradient4797-3-5)" fill-rule="evenodd" opacity=".8"/>
<path d="m47.651 27.417c0.06434-7.3994-9.2034-8.5528-9.2034-8.5528l8.6982 0.5764s2.3738 5.0538 0.50529 7.9764z" fill="url(#linearGradient4794-6-6)" fill-rule="evenodd" opacity=".8"/>
<path d="m52.339 28.176c2.6795-6.8975-4.9599-11.381-4.9599-11.381l7.3109 3.7417s0.43114 5.5669-2.351 7.6388z" fill="url(#linearGradient4791-3-6)" fill-rule="evenodd" opacity=".8"/>
<path d="m55.193 30.838c5.172-5.292 2.1856-11.951 2.1856-11.951l3.2219 5.9535s-2.0353 5.184-5.4075 5.9975z" fill="url(#linearGradient4788-7-3)" fill-rule="evenodd" opacity=".8"/>
<path d="m58.603 34.145c5.8976-4.0211 4.3598-10.899 4.3598-10.899l1.8956 6.2553s-2.9171 4.5196-6.2553 4.6441z" fill="url(#linearGradient4785-9-0)" fill-rule="evenodd" opacity=".8"/>
<path d="m51.214 13.765-1.1407 0.02328c7.2011 7.3183 4.1392 12.65 1.6296 14.853l0.95449 0.69841c2.4878-2.4279 2.0479-4.8275 2.9566-5.0518 0.86269-0.21296 1.5678 1.1846 2.0719 0.62857 0.50413-0.55603-0.86554-1.1367-1.8857-2.8635-1.0202-1.7268-0.4609-3.4722-4.5862-8.2878zm-10.383 0.04656-1.4667 0.48888c9.7852 4.5699 9.6002 10.637 7.9153 13.735l1.2339 0.30264c1.5732-3.3084 0.16323-5.4621 1.001-6.0296 0.79545-0.53879 1.8717 0.26675 2.1651-0.4656 0.29334-0.73236-1.0548-1.2465-3.0497-2.1883-1.9698-0.93-1.6769-2.7761-7.7989-5.8433zm17.111 2.1883c5.0232 9.146 0.52193 13.505-2.7005 14.69l0.69841 0.95449c3.0803-1.6112 3.2557-3.5148 4.1904-3.4688 0.8875 0.04374 0.87065 2.0407 1.5132 1.6529 0.64257-0.38784-0.24038-1.4053-0.72169-3.3524-0.48131-1.947 1.3367-3.6097-1.8857-10.197zm-28.611 2.8867-1.3735 1.001c12.507 0.5327 15.071 6.7377 14.62 10.243l1.3503-0.69841c-0.09607-4.7559-3.0253-5.9325-2.3746-6.7745 0.61782-0.79946 2.2642-0.11903 2.2582-0.90793-6e-3 -0.7889-1.6826-0.76663-4.237-0.88465-2.5222-0.11653-3.2653-1.3859-10.243-1.9788zm6.7745 4.8888c-0.59602-0.05514-1.7239 0.53116-2.7238 1.0709-1.2815 0.69179-4.0571-0.82487-10.825 1.8391l-1.001 1.3503c12.227-4.579 16.333 0.33901 17.623 5.4941l1.0709-1.0942c-1.8515-5.715-5.2574-5.6831-4.8888-6.6814 0.34995-0.94783 1.3828-0.92532 1.1407-1.6762-0.06052-0.18772-0.19709-0.28426-0.39576-0.30264zm29.612 0.41904c-0.53484 5.3745-2.6568 7.7587-4.6328 8.8698s-3.818 0.93121-3.818 0.93121l-0.06984 0.74497s2.057 0.20147 4.237-1.0243c0.3746-0.21063 0.74543-0.48805 1.1174-0.79153 0.26007 1.732 0.2739 3.2584 0.09312 4.6095-0.43791 0.13703-0.87392 0.2493-1.2804 0.30264-2.1679 0.28448-3.7714-0.4656-3.7714-0.4656l-0.30264 0.65185s1.7942 0.82354 4.1672 0.51216c0.3468-0.04551 0.70296-0.13195 1.0709-0.2328-0.31989 1.6462-0.91867 3.0032-1.6529 4.1439-0.42865-0.04278-0.84158-0.10837-1.2106-0.20952-1.9856-0.54433-3.0963-1.746-3.0963-1.746l-0.48888 0.44232s1.2294 1.3375 3.3989 1.9323c0.30475 0.08354 0.63615 0.13786 0.97777 0.18624-0.76082 1.0377-1.6216 1.8771-2.4444 2.5608-0.13566 0.11273-0.27637 0.22245-0.41904 0.32592-0.3808-0.21513-0.72827-0.45444-1.0243-0.69841-1.4471-1.1925-1.909-2.5608-1.909-2.5608l-0.65185 0.20952s0.5542 1.5552 2.1418 2.8635c0.24874 0.20497 0.53548 0.39509 0.83809 0.58201-1.0652 0.63744-2.2834 1.0499-3.5386 1.2339-0.18264-0.25742-0.3515-0.51411-0.48888-0.76825-0.8095-1.4974-0.86137-2.8169-0.86137-2.8169l-0.65185 0.02328s0.07583 1.471 0.95449 3.0963c0.09687 0.17918 0.20756 0.35347 0.32592 0.53544-1.0721 0.08336-2.1668 0.02688-3.2127-0.20952-0.44366-1.9824 0.04656-3.5386 0.04656-3.5386l-0.582-0.16296s-0.45963 1.5463-0.09312 3.5386c-0.71263-0.20882-1.3878-0.49984-2.0254-0.86137-0.30677-0.17395-0.59094-0.36169-0.86137-0.55872 0.54146-1.8104 1.6296-3.0264 1.6296-3.0264l-0.81481-0.51216s-0.80121 1.4104-1.2339 3.2127c-0.90713-0.75156-1.5657-1.63-2.0254-2.5841 1.1987-1.2216 2.7005-1.5365 2.7005-1.5365l-0.41904-0.76825c0 1e-6 -1.4009 0.51845-2.5375 1.746-0.32907-0.85491-0.49594-1.7521-0.51216-2.6539 1.5556-0.54853 2.9799-0.04656 2.9799-0.04656l-0.02328-0.86137c-1e-6 0-1.4478-0.26942-2.9566 0.27936 0.03903-0.67082 0.17341-1.3327 0.37248-1.9788 1.597 0.08798 2.7005 1.0243 2.7005 1.0243l0.30264-0.81481c0 1e-6 -1.2188-0.75916-2.7936-0.81481 0.13998-0.35631 0.30107-0.71118 0.48888-1.0476 0.18435-0.33022 0.3855-0.63185 0.60529-0.90793 1.3582 0.58522 2.0487 1.7227 2.0487 1.7227l0.51216-0.65185c-1e-6 0-0.816-0.98613-2.1418-1.5365 0.45479-0.46367 0.96733-0.82514 1.5132-1.0942 1.0138 0.98662 1.2106 2.2582 1.2106 2.2582l0.65185-0.37248c1e-6 0-0.36834-1.173-1.3503-2.1185 0.60587-0.22301 1.2524-0.32257 1.909-0.32592 0.50276 1.2291 0.18624 2.3979 0.18624 2.3979l0.72169-0.06984s0.11432-1.1262-0.37248-2.3047c0.51903 0.04469 1.0632 0.14804 1.5831 0.32592-0.05402 1.4264-0.95449 2.3979-0.95449 2.3979l0.67513 0.27936c2e-6 0 0.73482-1.0889 0.76825-2.491 0.22533 0.09641 0.45368 0.20427 0.67513 0.32592 0.24621 0.13526 0.4866 0.30549 0.69841 0.51216-0.5191 1.2081-1.5831 1.8159-1.5831 1.8159l0.53544 0.44232c1e-6 0 0.91999-0.6792 1.4201-1.8159 0.28787 0.37757 0.50603 0.80699 0.67513 1.2804-0.87864 0.76723-1.909 0.88465-1.909 0.88465l0.27936 0.582s0.95781-0.24675 1.7926-0.97777c0.10833 0.43303 0.16853 0.88576 0.16296 1.327-0.9786 0.20874-1.7926-0.13968-1.7926-0.13968l-0.02328 0.58201c-1e-6 0 0.82692 0.21377 1.7693 0-0.0495 0.474-0.15602 0.924-0.3492 1.327-1.0601-0.1157-1.7227-0.86137-1.7227-0.86137l-0.2328 0.4656c1e-6 0 0.74018 0.63617 1.7693 0.74497-0.21636 0.33842-0.49507 0.62789-0.81481 0.86137-0.69848-0.49608-0.90793-1.2571-0.90793-1.2571l-0.3492 0.25608c-1e-6 1e-6 0.31411 0.68767 0.97777 1.164-0.31318 0.18526-0.65004 0.32609-1.001 0.39576-0.30355-0.81156-0.04656-1.5598-0.04656-1.5598h-0.41904c0-1e-6 -0.16418 0.80216 0.16296 1.6063-0.39861 0.03708-0.80483-0.0208-1.1873-0.16296 0.08416-0.84923 0.62857-1.4201 0.62857-1.4201l-0.27936-0.13968c0.07272 0.02544 0.15144 0.04656 0.2328 0.04656 0.38844 0 0.69841-0.30997 0.69841-0.69841 0-0.16554-0.06718-0.3221-0.16296-0.44232 0.02319-0.05349 0.05745-0.1095 0.06984-0.16296 0.07626-0.32915 0.03968-0.6642-0.16296-0.95449-0.34864-0.49941-0.93297-0.65287-1.4434-0.582-0.31048 0.0431-0.60461 0.17853-0.86137 0.3492-0.54864-0.14272-1.2342-0.11677-2.0719 0.30264 0.74683-0.23524 1.3444-0.23529 1.8159-0.1164-0.06773 0.06131-0.12778 0.11719-0.18624 0.18624-0.18628 0.22-0.30435 0.47034-0.39576 0.72169-0.61786 0.17819-1.2572 0.62961-1.7227 1.6529 0.52028-0.78382 1.0872-1.1615 1.6063-1.327-0.07632 0.37167-0.06122 0.75572 0.02328 1.1175 0.02359 0.10095 0.05906 0.20522 0.09312 0.30264-0.29394 0.49872-0.43315 1.1971-0.2328 2.1418-0.04012-0.80238 0.12768-1.3866 0.37248-1.8159 0.14661 0.29896 0.34472 0.57745 0.582 0.81481-0.06083 0.56913 0.07457 1.2537 0.62857 2.0254-0.36187-0.72379-0.44989-1.3224-0.39576-1.8159 0.06194 0.05023 0.12021 0.09416 0.18624 0.13968 0.24398 0.16818 0.50646 0.30127 0.76825 0.39576 0.15369 0.53347 0.52726 1.0976 1.2804 1.6063-0.56279-0.52756-0.8704-1.0496-1.001-1.5132 0.50203 0.13055 1.0119 0.11873 1.5132 0.02328 0.36796 0.42141 0.9535 0.77186 1.8624 0.90793-0.75817-0.24088-1.243-0.60251-1.5598-0.97777 0.48499-0.13447 0.94367-0.36647 1.3503-0.67513 0.54733 0.1477 1.2537 0.10914 2.0952-0.30264-0.76048 0.23197-1.3654 0.222-1.8391 0.09312 0.2815-0.25248 0.54421-0.53559 0.74497-0.86137 0.07557-0.12263 0.14728-0.24347 0.20952-0.37248 0.63545-0.13582 1.3267-0.52952 1.9788-1.3735-0.65955 0.61932-1.2878 0.90904-1.8391 1.0243 0.19135-0.50343 0.30745-1.0359 0.32592-1.5831 0.7564-0.39554 1.458-1.1614 1.7693-2.6307-0.47533 1.2337-1.1296 1.8723-1.7926 2.2116-0.01656-0.40384-0.06419-0.81574-0.16296-1.2106-0.03996-0.15974-0.0873-0.30941-0.13968-0.4656-0.0024-0.0072 0.0025-0.0161 0-0.02328 0.56078-0.79829 0.89448-1.9513 0.41904-3.6084 0.17645 1.4586-0.13775 2.4525-0.60529 3.1428-0.24378-0.56312-0.57022-1.0842-0.97777-1.5132 0.18572-1.0086-0.03641-2.2318-1.2339-3.6084 0.80911 1.304 0.97672 2.3741 0.83809 3.236-0.17429-0.14118-0.36207-0.26445-0.55872-0.37248-0.36239-0.19908-0.74024-0.35527-1.1174-0.48888-0.18715-1.0005-0.80969-2.0774-2.3047-3.0031 1.1534 0.99836 1.6551 1.9705 1.8159 2.8402-0.32659-0.09161-0.65076-0.16198-0.97777-0.20952-0.31151-0.04529-0.62175-0.06616-0.93121-0.06984-0.60458-0.89018-1.661-1.6717-3.5619-1.8159 1.6006 0.38278 2.5001 1.1002 3.0264 1.8624-0.74004 0.05043-1.466 0.19328-2.1418 0.48888-0.96618-0.62788-2.3467-0.94858-4.2836-0.27936 1.7341-0.30418 2.9364 0.0074 3.7714 0.53544-0.61331 0.33743-1.1797 0.76898-1.6762 1.327-1.2622-0.27753-2.8467-0.05774-4.5862 1.4899 1.7182-1.0967 3.1228-1.2414 4.2137-1.001-0.17855 0.24165-0.35826 0.49258-0.51216 0.76825-0.26076 0.46708-0.4775 0.96392-0.65185 1.4667-1.3096 0.17494-2.7664 0.9296-3.9344 2.9799 1.3109-1.6317 2.6261-2.2592 3.7714-2.3979-0.20666 0.75366-0.31719 1.5249-0.32592 2.3047-1.1389 0.64605-2.1993 1.863-2.5375 4.1672 0.60359-1.9186 1.5625-2.9749 2.5375-3.5386 0.06091 1.0121 0.27928 2.0346 0.69841 2.9799-0.75239 1.1111-1.1913 2.6533-0.60528 4.7026-0.2246-1.9076 0.21497-3.2406 0.88465-4.1904 0.55564 1.0462 1.3444 1.9981 2.3979 2.7936-0.25359 1.6459-0.11528 3.4705 1.2339 4.8423-0.99182-1.6284-1.1064-3.2178-0.86137-4.5629 0.21426 0.14564 0.44158 0.28661 0.67513 0.41904 0.80795 0.45815 1.6777 0.79163 2.5841 1.0243 0.4154 1.4234 1.2955 2.9829 3.0497 4.3534l0.37248-0.4656c-1.5154-1.1839-2.3223-2.4992-2.7471-3.7248 1.1549 0.22127 2.3495 0.2575 3.5153 0.1164 1.0088 1.2188 2.5694 2.3598 4.982 2.8867l0.1164-0.62857c-2.0917-0.4569-3.4573-1.365-4.3767-2.3746 1.344-0.25338 2.644-0.73094 3.7714-1.4899 1.5957 0.75152 3.7944 1.1473 6.7745 0.55872l-0.13968-0.65185c-2.6799 0.52928-4.616 0.23504-6.0529-0.37248 0.04354-0.03481 0.09675-0.05745 0.13968-0.09312 0.9426-0.78323 1.9368-1.7838 2.7936-3.0497 1.9702 0.07205 4.439-0.55853 7.2401-2.7005l-0.39576-0.53545c-2.5267 1.9321-4.6742 2.5649-6.4253 2.5841 0.73303-1.2365 1.3138-2.7031 1.6063-4.4465 1.9476-0.75021 4.0657-2.3935 5.8201-5.7269l-0.62857-0.32592c-1.5825 3.0067-3.3847 4.5207-5.0751 5.2613 0.15401-1.3964 0.12158-2.9578-0.16296-4.7026l-0.30264 0.04656c1.6377-1.5173 3.0913-4.0739 3.5153-8.3343zm-34.525 3.7714c-0.65764 0.01222-1.3377 1.1849-2.2582 2.0021-1.0891 0.96684-4.2649 0.25706-10.243 4.4l-0.65185 1.5365c10.853-7.2568 17.329-3.2096 19.765 1.5132l0.79153-1.327c-3.1108-5.1393-7.673-4.6475-7.5428-5.7037 0.12364-1.0028 1.4288-1.4351 0.582-2.2116-0.15182-0.13922-0.29056-0.21234-0.44232-0.20952zm18.508 9.1957c0.31035-0.04309 0.54172 0.02157 0.72169 0.27936-0.0076-0.01087 0.04737 0.22194 0.02328 0.32592-0.01205 0.05199-0.01221 0.07082 0.02328 0.04656l-0.02328 0.04656c-0.05852 0.01175-0.11066 0.04455-0.16296 0.06984-0.14721-0.22328-0.38903-0.49413-0.72169-0.74497 0.04698-0.01211 0.09343-0.01686 0.13968-0.02328zm-0.4656 0.16296c0.0047 0.0034 0.01865-0.0034 0.02328 0 0.30286 0.22385 0.49201 0.49247 0.62857 0.72169 0.03544 0.05949 0.06689 0.1108 0.09312 0.16296-0.0579 0.10222-0.09312 0.22342-0.09312 0.3492 0 0.05283 0.01223 0.09017 0.02328 0.13968l-0.1164-0.30264 0.09312-0.3492c1e-6 0-0.49642-0.23882-1.1407-0.27936 0.03688-0.05518 0.07182-0.11031 0.1164-0.16296 0.09362-0.11057 0.22516-0.20181 0.37248-0.27936zm-0.65185 0.74497c0.55041 0.03391 0.89049 0.23235 1.0476 0.32592-0.17459 0.03824-0.63531 0.13541-1.1407 0.53544-0.03948-0.29571-0.01716-0.58822 0.09312-0.86137zm1.327 0.67513c0.05189 0.17399 0.17164 0.33007 0.32592 0.41904 2e-6 0-0.47358 0.64052-0.53544 1.4899-0.09049-0.04752-0.16939-0.1032-0.25608-0.16296-0.13239-0.09126-0.26109-0.20462-0.37248-0.32592 0.37819-0.73829 1.0709-1.0476 1.0709-1.0476l-0.32592-0.30264c-1e-6 -1e-6 -0.56851 0.39749-0.93121 1.0942-0.14105-0.20291-0.25532-0.42214-0.32592-0.65185 0.6183-0.48523 1.3118-0.51078 1.3503-0.51216z" fill="#fcf0e4" fill-rule="evenodd" opacity=".8"/>
<path transform="matrix(.57018 .6778 -.6809 .56759 24.52 -29.368)" d="m62.125 17.094a4.5 1.4688 0 1 1-9 0 4.5 1.4688 0 1 1 9 0z" fill="#fff" filter="url(#filter4293-2-7)" opacity=".5"/>
<path transform="matrix(.25622 .84786 -.84968 .25262 53.404 -32.713)" d="m62.125 17.094a4.5 1.4688 0 1 1-9 0 4.5 1.4688 0 1 1 9 0z" fill="#fff" filter="url(#filter4293-2-7)" opacity=".5"/>
<path transform="matrix(.73197 .49874 -.50242 .73031 4.8407 -18.572)" d="m62.125 17.094a4.5 1.4688 0 1 1-9 0 4.5 1.4688 0 1 1 9 0z" fill="#fff" filter="url(#filter4293-2-7)" opacity=".5"/>
<path d="m21.132 27.259-3.3509 7.8411 3.2169-1.5414 5.9646-7.506z" fill="url(#linearGradient4693-4-7)" fill-rule="evenodd"/>
<path d="m28.772 19.217-7.2274 7.8411 6.6913-1.3404 6.5007-5.2274z" fill="url(#linearGradient4690-1-1)" fill-rule="evenodd"/>
<path d="m39.964 13.722c-4.4232 0.93825-11.249 5.4284-11.249 5.4284l4.8148 1.1393 8.7793-4.8923z" fill="url(#linearGradient4687-1-4)" fill-rule="evenodd"/>
<path d="m50.774 38.74c2.063 0.16129 1.2175-2.3406 0.50502-2.9275-1.4359-1.1828-4.0957 1e-3 -4.78 1.4321-1.224 2.5598 0.64718 5.3893 3.1945 6.0651 2.4309 0.64496 5.7839-1.0642 6.8582-4.5907 1.4318-4.7003-0.80767-8.2639-5.3838-9.5033-5.7585-1.5596-11.134 1.8661-12.532 7.4928-1.6934 6.8146 3.3079 13.917 9.9857 15.47 7.8695 1.8305 16.924-2.1895 20.083-11.717 3.3218-10.019-3.8363-24.377-15.928-26.774-19.701-3.8919-33.543 9.201-36.212 27.109-2.2642 15.191 7.0146 29.18 16.049 34.932 12.624 8.038 31.91 9.874 47.168 3.1684" fill="none" stroke="url(#linearGradient4782-5-8)" stroke-width="2"/>
</g>
<rect transform="matrix(1.0692 0 0 1.0477 4.4442 38.894)" x="2" y="-30" width="75.966" height="69.024" rx="3.957" ry="3.957" clip-path="url(#clipPath4156-4-1)" fill="url(#linearGradient4767)" opacity=".5"/>
</g>
</g>
</svg>
