<?xml version="1.0" encoding="UTF-8"?>
<!-- Created with Inkscape (http://www.inkscape.org/) -->
<svg version="1.0" viewBox="0 0 96 96" xmlns="http://www.w3.org/2000/svg" xmlns:cc="http://creativecommons.org/ns#" xmlns:dc="http://purl.org/dc/elements/1.1/" xmlns:rdf="http://www.w3.org/1999/02/22-rdf-syntax-ns#" xmlns:xlink="http://www.w3.org/1999/xlink">
<metadata>
<rdf:RDF>
<cc:Work rdf:about="">
<dc:format>image/svg+xml</dc:format>
<dc:type rdf:resource="http://purl.org/dc/dcmitype/StillImage"/>
<dc:title/>
</cc:Work>
</rdf:RDF>
</metadata>
<defs>
<linearGradient id="ButtonShadow" x1="45.448" x2="45.448" y1="92.54" y2="7.0165" gradientTransform="scale(1.0059 .99417)" gradientUnits="userSpaceOnUse">
<stop offset="0"/>
<stop stop-opacity=".58824" offset="1"/>
</linearGradient>
<filter id="filter3174" color-interpolation-filters="sRGB">
<feGaussianBlur stdDeviation="1.71"/>
</filter>
<linearGradient id="linearGradient3837" x1="2.7714" x2="50.528" y1="-28.642" y2="14.514" gradientUnits="userSpaceOnUse">
<stop stop-color="#fff" offset="0"/>
<stop stop-color="#fff" stop-opacity="0" offset="1"/>
</linearGradient>
<radialGradient id="radialGradient3833" cx="13.948" cy="44.893" r="43.199" gradientTransform="matrix(.88833 0 0 .072489 16.069 -98.792)" gradientUnits="userSpaceOnUse" xlink:href="#linearGradient4133"/>
<radialGradient id="radialGradient3831" cx="13.948" cy="44.893" r="43.199" gradientTransform="matrix(.97513 0 0 .049191 41.943 65.501)" gradientUnits="userSpaceOnUse" xlink:href="#linearGradient4133"/>
<linearGradient id="linearGradient3829" x1="1.5" x2="94.5" y1="88.172" y2="88.172" gradientTransform="translate(8.044 -14.666)" gradientUnits="userSpaceOnUse">
<stop offset="0"/>
<stop stop-opacity=".58824" offset=".1"/>
<stop stop-opacity=".58824" offset=".9"/>
<stop offset="1"/>
</linearGradient>
<radialGradient id="radialGradient3827" cx="48" cy="-27" r="42" gradientTransform="matrix(-1.0722 0 0 -.87502 199.46 -19.126)" gradientUnits="userSpaceOnUse">
<stop stop-color="#fff" offset="0"/>
<stop stop-color="#fff" offset=".8"/>
<stop stop-color="#fff" stop-opacity="0" offset="1"/>
</radialGradient>
<linearGradient id="linearGradient3825" x1="6" x2="90" y1="47" y2="47" gradientTransform="matrix(1.1071 0 0 1.1071 2.9011 -18.701)" gradientUnits="userSpaceOnUse">
<stop stop-color="#adb4c1" offset="0"/>
<stop stop-color="#fff" offset=".25"/>
<stop stop-color="#9095aa" offset=".5"/>
<stop stop-color="#fbf9f9" offset=".75"/>
<stop stop-color="#adb3c1" offset="1"/>
</linearGradient>
<filter id="filter3174-36" color-interpolation-filters="sRGB">
<feGaussianBlur stdDeviation="1.71"/>
</filter>
<filter id="filter3174-3" color-interpolation-filters="sRGB">
<feGaussianBlur stdDeviation="1.71"/>
</filter>
<linearGradient id="linearGradient4133">
<stop stop-color="#fff" offset="0"/>
<stop stop-color="#fff" stop-opacity="0" offset="1"/>
</linearGradient>
<clipPath id="clipPath4156-4">
<path d="m27.046-55.695-14.214 13.321h0.06127l15.653 21.771 10.231-10.546c-0.2169-1.1522-11.311-23.67-11.732-24.546zm-17.399 16.313-14.888 14.062 21.229 17.515 10.385-10.577-16.726-21zm31.491 12.951-9.7413 9.7136 8.9448 12.458 7.7808-7.555-6.9843-14.617zm-49.84 4.3788-13.754 12.982 26.283 13.846 0.06127-0.0617-0.12253-0.0617 9.8332-10.053-22.301-16.652zm38.015 7.4008-9.8025 9.7753 11.579 9.5594 7.6276-7.4008-8.6691-11.009-0.73519-0.9251zm20.187 5.674-7.3825 7.2158 6.1878 8.5418 5.8202-6.1365-4.6256-9.6211zm-32.195 6.3215-9.5575 9.4977 13.662 7.185 7.9339-7.6784-12.039-9.0043zm23.312 2.3744-7.1068 6.9383 8.3628 6.9074 5.3608-5.674-0.06127-0.0925-0.0919 0.12335-6.4635-8.2026zm-8.7304 8.5418-7.5051 7.3392 10.354 5.4581c1.3975-1.321 5.6751-6.1229 5.8509-6.3215l-8.6997-6.4757z" fill="#fff" opacity=".6"/>
</clipPath>
<filter id="filter3174-6" color-interpolation-filters="sRGB">
<feGaussianBlur stdDeviation="1.71"/>
</filter>
</defs>
<g display="none">
<rect x="5" y="7" width="86" height="85" rx="6" ry="6" fill="url(#ButtonShadow)" filter="url(#filter3174)" opacity=".9"/>
</g>
<g transform="translate(-1e-6,32)">
<g transform="translate(-8.044 -17.334)">
<path d="m97.187-14.666h-82.286c-3.7988 0-6.8571 3.0583-6.8571 6.8571v82.286c0 3.7989 3.0583 6.8571 6.8571 6.8571h82.286c3.7989 0 6.8571-3.0583 6.8571-6.8571v-82.286c0-3.7989-3.0583-6.8571-6.8571-6.8571z" opacity=".15"/>
<path d="m96.544-13.916h-81c-3.7395 0-6.75 3.0105-6.75 6.75v81c0 3.7395 3.0105 6.75 6.75 6.75h81c3.7395 0 6.75-3.0105 6.75-6.75v-81c0-3.7395-3.0105-6.75-6.75-6.75z" opacity=".15"/>
<path d="m95.901-13.166h-79.714c-3.6801 0-6.6429 2.9627-6.6429 6.6429v79.714c0 3.6801 2.9627 6.6429 6.6429 6.6429h79.714c3.6801 0 6.6429-2.9627 6.6429-6.6429v-79.714c0-3.6801-2.9627-6.6429-6.6429-6.6429z" fill="url(#linearGradient3825)"/>
<rect x="13.837" y="-8.0546" width="84.846" height="77.52" ry="4.25" fill="#a5dfff" stroke="#fff" stroke-linecap="round" stroke-linejoin="round" stroke-width=".4"/>
<g transform="matrix(1.1282 0 0 1.1235 288.45 -27.813)">
<ellipse transform="matrix(1 0 0 1.0379 0 -2.2645)" cx="-205" cy="48.347" rx="22.527" ry="11.437" color="#000000" enable-background="new" fill="#f1c4a9" stroke="#000" stroke-linecap="round" stroke-width=".49079"/>
<g transform="matrix(-1 0 0 1 -409.46 2.7164e-7)" fill="none" stroke="#000" stroke-width=".5">
<path d="m-225.54 49.283c-5.2696-0.04548-10.546-0.08102-16.633 1.087"/>
<path d="m-225.63 50.817c-5.2492 0.46055-10.504 0.93163-16.448 2.6785"/>
</g>
<path d="m-210.62 84.22c-0.12096-0.12097 0.18439-1.0196 0.67856-1.997 0.82591-1.6335 0.90383-2.284 0.96445-8.0532 0.0836-7.9584 0.0815-7.9879-0.58554-7.9879-1.0695 0-1.3447 1.4779-1.3447 7.221 0 6.5378-0.33491 7.6959-2.4855 8.5945-1.406 0.58746-3.6005 0.72849-3.6005 0.23139 0-0.17007 0.51459-0.80222 1.1435-1.4048 0.62894-0.60257 1.3127-1.7044 1.5194-2.4485 0.46747-1.6827 0.48647-6.4917 0.0285-7.2152-0.24795-0.39169-1.2498-0.54606-3.7028-0.57056-4.7515-0.04744-6.2225-0.94094-8.4924-5.1584-0.91338-1.697-2.3153-3.6769-3.1154-4.3997-1.412-1.2757-2.0905-2.3174-0.82566-1.2677 0.34595 0.28711 0.94504 0.46848 1.3313 0.40304 0.38626-0.06544 0.7023 0.06872 0.7023 0.29813 0 0.2294 0.51351 0.91907 1.1411 1.5326 0.62761 0.61352 1.1411 1.3597 1.1411 1.6582 0 0.29848 0.25675 0.64121 0.57056 0.76163 0.31381 0.12042 0.57056 0.48107 0.57056 0.80144 0 0.32891 0.33118 0.5825 0.76075 0.5825 0.44865 0 0.76075 0.25358 0.76075 0.61811 0 0.48392 0.24773 0.56856 1.1411 0.38988 0.83811-0.16762 1.1411-0.0852 1.1411 0.31038 0 0.79421 0.7139 1.0959 1.348 0.56968 0.43544-0.36139 0.68473-0.35112 1.1656 0.04799 0.51922 0.43092 0.68997 0.40067 1.1292-0.20005 0.43141-0.58999 0.61594-0.62605 1.1092-0.21672 0.77459 0.64285 0.82535 0.58699 2.8033-3.0843 0.49432-0.91749 1.2401-2.0411 1.6574-2.4968 0.41722-0.45576 0.68866-1.0384 0.6032-1.2948-0.0855-0.25638-1.6837-0.77556-3.5517-1.1537-4.5061-0.91228-8.3765-2.8457-10.561-5.2758-3.0089-3.3466-4.1099-6.8218-4.1226-13.012-8e-3 -3.9577 0.71921-6.4942 2.7346-9.5369 1.1058-1.6695 1.1344-1.8185 0.77515-4.049-0.41658-2.5867 0.0621-6.742 0.87105-7.5621 0.7458-0.756 3.6802 0.05252 7.4383 2.0495l3.2092 1.7053 3.683-0.58553c4.4172-0.70226 7.6819-0.73855 12.21-0.13571l3.3785 0.44982 2.9444-1.5688c3.3565-1.7884 6.3591-2.6259 7.1277-1.988 0.71983 0.5974 1.337 4.7954 1.0723 7.2931-0.21394 2.018-0.14872 2.2652 0.97055 3.6784 2.7628 3.4883 3.7167 7.7645 3.0938 13.868-0.48829 4.7847-1.1248 6.7566-2.9689 9.1982-1.869 2.4746-5.7861 4.5209-10.45 5.4593-3.9744 0.79966-4.4001 1.1062-3.2856 2.3657 1.7151 1.9382 1.9963 3.2601 2.2195 10.433 0.22455 7.2171 0.41835 8.0523 2.1283 9.1727 1.3076 0.85678 1.1696 1.2876-0.41264 1.2876-1.5456 0-3.0723-0.69418-4.1529-1.8883-0.67643-0.74744-0.73969-1.3326-0.67255-6.22 0.0773-5.6238-0.35521-8.0576-1.4318-8.0576-0.48714 0-0.57056 1.0566-0.57056 7.2271 0 6.8614 0.0443 7.3021 0.876 8.7094 1.1708 1.9812 0.61832 2.6252-1.335 1.556-2.8079-1.537-2.9417-1.9857-3.1546-10.577-0.18511-7.4711-0.21181-7.6792-0.99968-7.7916-1.1746-0.16756-1.335 0.92962-1.2359 8.4572 0.077 5.8521 0.01 6.6617-0.64602 7.7845-0.91704 1.57-3.7606 3.1603-4.4387 2.4823zm15.283-25.668c3.4942-0.56694 5.9101-1.7246 7.5962-3.6403 1.7234-1.9578 2.4937-4.3433 2.5024-7.7485 5e-3 -2.0109-0.1863-2.8-1.0252-4.227-1.3325-2.2666-3.3419-4.0144-5.1446-4.4747-0.80483-0.2055-6.9259-0.33278-13.984-0.29077-14.113 0.084-13.804 0.02745-16.332 2.9814-1.9239 2.2477-2.6357 4.8696-2.1466 7.9069 0.86465 5.369 4.3951 8.34 11.28 9.4927 2.7506 0.46048 14.416 0.46065 17.254 2.51e-4z" fill="#1a1a1a" stroke="#1a1a1a"/>
<g>
<ellipse transform="matrix(1.0476 0 0 1.0476 -72.772 -.77978)" cx="-136.64" cy="45.487" rx="3.5523" ry="5.4585" color="#000000" enable-background="new" fill="#fff"/>
<ellipse transform="matrix(.67441 0 0 .67441 -123.77 16.197)" cx="-136.64" cy="45.487" rx="3.5523" ry="5.4585" color="#000000" enable-background="new" fill="#a65f55"/>
</g>
<g transform="translate(22)">
<ellipse transform="matrix(1.0476 0 0 1.0476 -72.772 -.77978)" cx="-136.64" cy="45.487" rx="3.5523" ry="5.4585" color="#000000" enable-background="new" fill="#fff"/>
</g>
<circle transform="matrix(.82491 0 0 .82491 -35.893 9.293)" cx="-205" cy="52.505" r="1.5596" color="#000000" enable-background="new" fill="#a65f55"/>
<path d="m-208.2 55.878 6.4116 0.51986" fill="none" stroke="#a65f55" stroke-linecap="round" stroke-width="1px"/>
<ellipse transform="matrix(.67441 0 0 .67441 -101.77 16.197)" cx="-136.64" cy="45.487" rx="3.5523" ry="5.4585" color="#000000" enable-background="new" fill="#a65f55"/>
<path d="m-231.6 59.35c-1.0904-1.1184 3.2832-0.1414 4.3111 0.1374 2.0056 1.0399 3.6784 6.5704 6.6925 6.5341 5.2396-0.0632 7.3646-1.7329 7.3646-1.7329l-1.3863 6.1516-9.5307-3.8123s-5.7865-5.5705-7.4513-7.278z" fill="#1a1a1a"/>
<ellipse transform="matrix(.90572 0 0 .81515 -7.3312 17.636)" cx="-229.32" cy="59.731" rx=".91898" ry=".61266" color="#000000" enable-background="new" fill="#91bfc2"/>
<ellipse transform="matrix(.90572 0 0 .81515 -9.6308 18.036)" cx="-229.32" cy="59.731" rx=".91898" ry=".61266" color="#000000" enable-background="new" fill="#91bfc2"/>
<ellipse transform="matrix(.90572 0 0 .81515 -11.931 18.336)" cx="-229.32" cy="59.731" rx=".91898" ry=".61266" color="#000000" enable-background="new" fill="#91bfc2"/>
<ellipse transform="matrix(.90572 0 0 .81515 -14.144 18.11)" cx="-229.32" cy="59.731" rx=".91898" ry=".61266" color="#000000" enable-background="new" fill="#91bfc2"/>
<ellipse transform="matrix(.90572 0 0 .81515 -15.971 16.976)" cx="-229.32" cy="59.731" rx=".91898" ry=".61266" color="#000000" enable-background="new" fill="#91bfc2"/>
<ellipse transform="matrix(.90572 0 0 .81515 -17.191 15.582)" cx="-229.32" cy="59.731" rx=".91898" ry=".61266" color="#000000" enable-background="new" fill="#91bfc2"/>
<ellipse transform="matrix(.90572 0 0 .81515 -18.238 13.842)" cx="-229.32" cy="59.731" rx=".91898" ry=".61266" color="#000000" enable-background="new" fill="#91bfc2"/>
<ellipse transform="matrix(.90572 0 0 .81515 -19.632 12.189)" cx="-229.32" cy="59.731" rx=".91898" ry=".61266" color="#000000" enable-background="new" fill="#91bfc2"/>
<ellipse transform="matrix(.90572 0 0 .81515 -21.364 11.149)" cx="-229.32" cy="59.731" rx=".91898" ry=".61266" color="#000000" enable-background="new" fill="#91bfc2"/>
<g transform="translate(.29998)" fill="none" stroke="#000" stroke-width=".5">
<path d="m-225.54 49.283c-5.2696-0.04548-10.546-0.08102-16.633 1.087"/>
<path d="m-225.63 50.817c-5.2492 0.46055-10.504 0.93163-16.448 2.6785"/>
</g>
</g>
<g transform="matrix(1.1071 0 0 1.1071 -107.81 -18.148)">
<path d="m112 4.5c-3.324 0-6 2.676-6 6v15h1v-15c0-2.7873 2.2127-5 5-5h72c2.7873 0 5 2.2127 5 5v15h1v-15c0-3.324-2.676-6-6-6h-72z" fill="url(#radialGradient3827)" opacity=".45"/>
</g>
<path d="m9.544 67.178v6c0 3.6801 2.9761 6.6562 6.6562 6.6562h79.688c3.6801 0 6.6563-2.9761 6.6563-6.6562v-6c0 3.6801-2.9761 6.6562-6.6563 6.6562h-79.688c-3.6801 0-6.6562-2.9761-6.6562-6.6562z" fill="url(#linearGradient3829)" opacity=".89091"/>
<rect x="13.419" y="65.584" width="84.25" height="4.25" rx="0" ry="4.25" fill="url(#radialGradient3831)" opacity=".55"/>
<rect transform="rotate(90)" x="-9.9156" y="-98.669" width="76.75" height="6.2629" rx="0" ry="6.2629" fill="url(#radialGradient3833)" opacity=".55"/>
<g transform="translate(251.29 -104.9)">
<g display="none">
<rect x="5" y="7" width="86" height="85" rx="6" ry="6" fill="url(#ButtonShadow)" filter="url(#filter3174-3)" opacity=".9"/>
</g>
</g>
<rect transform="matrix(.9093 0 0 .92838 12.389 19.829)" x="2" y="-30" width="92" height="92" rx="3.957" ry="3.957" clip-path="url(#clipPath4156-4)" fill="url(#linearGradient3837)"/>
<path d="m17.869-9.9361c-3.1166 0-5.668 2.5395-5.668 5.646v69.278c0 3.1065 2.5513 5.646 5.668 5.646h76.792c3.1166 0 5.668-2.5395 5.668-5.646v-69.278c0-3.1065-2.5513-5.646-5.668-5.646h-76.792zm0 2.3194h76.792c1.8881 0 3.352 1.4801 3.352 3.3266v69.278c0 1.8465-1.4639 3.3266-3.352 3.3266h-76.792c-1.8881 0-3.352-1.4801-3.352-3.3266v-69.278c0-1.8465 1.4639-3.3266 3.352-3.3266z" color="#000000" fill="#1f2124" fill-opacity=".63265" style="block-progression:tb;text-indent:0;text-transform:none"/>
</g>
</g>
<g display="none">
<rect x="5" y="7" width="86" height="85" rx="6" ry="6" fill="url(#ButtonShadow)" filter="url(#filter3174-36)" opacity=".9"/>
</g>
<g display="none">
<rect x="5" y="7" width="86" height="85" rx="6" ry="6" fill="url(#ButtonShadow)" filter="url(#filter3174-6)" opacity=".9"/>
</g>
</svg>
