<?xml version="1.0" encoding="UTF-8"?>
<!-- Created with Inkscape (http://www.inkscape.org/) -->
<svg version="1.0" viewBox="0 0 96 96" xmlns="http://www.w3.org/2000/svg" xmlns:cc="http://creativecommons.org/ns#" xmlns:dc="http://purl.org/dc/elements/1.1/" xmlns:rdf="http://www.w3.org/1999/02/22-rdf-syntax-ns#" xmlns:xlink="http://www.w3.org/1999/xlink">
<defs>
<linearGradient id="ButtonShadow" x1="45.448" x2="45.448" y1="92.54" y2="7.0165" gradientTransform="scale(1.0059 .99417)" gradientUnits="userSpaceOnUse">
<stop offset="0"/>
<stop stop-opacity=".58824" offset="1"/>
</linearGradient>
<linearGradient id="linearGradient3737">
<stop stop-color="#fff" offset="0"/>
<stop stop-color="#fff" stop-opacity="0" offset="1"/>
</linearGradient>
<filter id="filter3174" color-interpolation-filters="sRGB">
<feGaussianBlur stdDeviation="1.71"/>
</filter>
<linearGradient id="linearGradient3837" x1="2.7714" x2="50.528" y1="-28.642" y2="14.514" gradientUnits="userSpaceOnUse">
<stop stop-color="#fff" offset="0"/>
<stop stop-color="#fff" stop-opacity="0" offset="1"/>
</linearGradient>
<filter id="filter3174-36" color-interpolation-filters="sRGB">
<feGaussianBlur stdDeviation="1.71"/>
</filter>
<filter id="filter3174-3" color-interpolation-filters="sRGB">
<feGaussianBlur stdDeviation="1.71"/>
</filter>
<filter id="filter3174-2" color-interpolation-filters="sRGB">
<feGaussianBlur stdDeviation="1.71"/>
</filter>
<linearGradient id="linearGradient4071-3" x1="6" x2="90" y1="47" y2="47" gradientTransform="matrix(1.1071 0 0 1.1071 2.9011 -18.701)" gradientUnits="userSpaceOnUse">
<stop stop-color="#b2babc" offset="0"/>
<stop stop-color="#fff" offset=".25"/>
<stop stop-color="#96a1a4" offset=".5"/>
<stop stop-color="#fbf9f9" offset=".75"/>
<stop stop-color="#b2b9bc" offset="1"/>
</linearGradient>
<linearGradient id="linearGradient4129-2" x1="1.5" x2="94.5" y1="88.172" y2="88.172" gradientTransform="translate(8.044 -14.666)" gradientUnits="userSpaceOnUse">
<stop offset="0"/>
<stop stop-opacity=".58824" offset=".1"/>
<stop stop-opacity=".58824" offset=".9"/>
<stop offset="1"/>
</linearGradient>
<radialGradient id="radialGradient7462-0" cx="13.948" cy="44.893" r="43.199" gradientTransform="matrix(.97513 0 0 .049191 41.943 65.501)" gradientUnits="userSpaceOnUse" xlink:href="#linearGradient3737"/>
<radialGradient id="radialGradient7464-6" cx="13.948" cy="44.893" r="43.199" gradientTransform="matrix(.88833 0 0 .049191 16.879 -98.212)" gradientUnits="userSpaceOnUse" xlink:href="#linearGradient3737"/>
<clipPath id="clipPath4156-4-1">
<path d="m27.046-55.695-14.214 13.321h0.06127l15.653 21.771 10.231-10.546c-0.2169-1.1522-11.311-23.67-11.732-24.546zm-17.399 16.313-14.888 14.062 21.229 17.515 10.385-10.577zm31.491 12.951-9.7413 9.7136 8.9448 12.458 7.7808-7.555zm-49.84 4.3788-13.754 12.982 26.283 13.846 0.06127-0.0617-0.12253-0.0617 9.8332-10.053-22.301-16.652zm38.015 7.4008-9.8025 9.7753 11.579 9.5594 7.6276-7.4008-8.6691-11.009zm20.187 5.674-7.3825 7.2158 6.1878 8.5418 5.8202-6.1365zm-32.195 6.3215-9.5575 9.4977 13.662 7.185 7.9339-7.6784zm23.312 2.3744-7.1068 6.9383 8.3628 6.9074 5.3608-5.674-0.06127-0.0925-0.0919 0.12335-6.4635-8.2026zm-8.7304 8.5418-7.5051 7.3392 10.354 5.4581c1.3975-1.321 5.6751-6.1229 5.8509-6.3215z" fill="#fff" opacity=".6"/>
</clipPath>
<filter id="filter3712-2" color-interpolation-filters="sRGB">
<feGaussianBlur stdDeviation="1.5889298"/>
</filter>
</defs>
<metadata>
<rdf:RDF>
<cc:Work rdf:about="">
<dc:format>image/svg+xml</dc:format>
<dc:type rdf:resource="http://purl.org/dc/dcmitype/StillImage"/>
<dc:title/>
</cc:Work>
</rdf:RDF>
</metadata>
<g display="none">
<rect x="5" y="7" width="86" height="85" rx="6" ry="6" fill="url(#ButtonShadow)" filter="url(#filter3174)" opacity=".9"/>
</g>
<g transform="translate(-1e-6,32)">
<g transform="translate(-8.044 -17.334)">
<g transform="translate(251.29 -104.9)">
<g display="none">
<rect x="5" y="7" width="86" height="85" rx="6" ry="6" fill="url(#ButtonShadow)" filter="url(#filter3174-3)" opacity=".9"/>
</g>
</g>
<path d="m97.187-14.666h-82.286c-3.7988 0-6.8571 3.0583-6.8571 6.8571v82.286c0 3.7989 3.0583 6.8571 6.8571 6.8571h82.286c3.7989 0 6.8571-3.0583 6.8571-6.8571v-82.286c0-3.7989-3.0583-6.8571-6.8571-6.8571z" opacity=".15"/>
<path d="m96.544-13.916h-81c-3.7395 0-6.75 3.0105-6.75 6.75v81c0 3.7395 3.0105 6.75 6.75 6.75h81c3.7395 0 6.75-3.0105 6.75-6.75v-81c0-3.7395-3.0105-6.75-6.75-6.75z" opacity=".15"/>
<path d="m95.901-13.166h-79.714c-3.6801 0-6.6429 2.9627-6.6429 6.6429v79.714c0 3.6801 2.9627 6.6429 6.6429 6.6429h79.714c3.6801 0 6.6429-2.9627 6.6429-6.6429v-79.714c0-3.6801-2.9627-6.6429-6.6429-6.6429z" fill="url(#linearGradient4071-3)"/>
<path d="m19.285-8.2784c-2.8565 0-5.1241 2.2884-5.1241 5.171v68.58c1.0972 1.6845 2.9688 2.8117 5.1241 2.8117h73.787c2.1553 0 4.0269-1.1272 5.1241-2.8117v-68.58c0-2.8826-2.2676-5.171-5.1241-5.171z" fill="#e8e8e8" opacity=".9"/>
<path d="m17.869-9.9361c-3.1166 0-5.668 2.5395-5.668 5.646v69.278c0 3.1065 2.5513 5.646 5.668 5.646h76.792c3.1166 0 5.668-2.5395 5.668-5.646v-69.278c0-3.1065-2.5513-5.646-5.668-5.646zm0 2.3194h76.792c1.8881 0 3.352 1.4801 3.352 3.3266v69.278c0 1.8465-1.4639 3.3266-3.352 3.3266h-76.792c-1.8881 0-3.352-1.4801-3.352-3.3266v-69.278c0-1.8465 1.4639-3.3266 3.352-3.3266z" color="#000000" fill="#1f2224" fill-opacity=".63265" style="text-decoration-line:none;text-indent:0;text-transform:none"/>
<path d="m9.544 67.178v6c0 3.6801 2.9761 6.6562 6.6562 6.6562h79.688c3.6801 0 6.6563-2.9761 6.6563-6.6562v-6c0 3.6801-2.9761 6.6562-6.6563 6.6562h-79.688c-3.6801 0-6.6562-2.9761-6.6562-6.6562z" fill="url(#linearGradient4129-2)" opacity=".65818"/>
<rect x="13.419" y="65.584" width="84.25" height="4.25" rx="4.25" ry="4.25" fill="url(#radialGradient7462-0)" opacity=".55"/>
<rect transform="rotate(90)" x="-9.1056" y="-98.129" width="76.75" height="4.25" rx="4.25" ry="4.25" fill="url(#radialGradient7464-6)" opacity=".669"/>
<g transform="matrix(.83775 0 0 .83713 15.832 -7.6755)" stroke-width="1.1266">
<circle transform="matrix(.50114 0 0 .48402 668.91 165.67)" cx="-1239" cy="-246" r="78" fill-opacity=".2549" filter="url(#filter3712-2)"/>
<path transform="matrix(.50114 0 0 .48402 115.97 41.84)" d="m-83.636 63.62 12 30-34-13" fill-opacity=".2549" filter="url(#filter3712-2)"/>
<circle transform="matrix(.50114 0 0 .48402 668.91 164.7)" cx="-1239" cy="-246" r="78" fill="#f15d22"/>
<path d="m74.059 71.665 6.0137 14.521-17.039-6.2923" fill="#f15d22"/>
<g transform="matrix(3.9671 -.213 .22053 3.8316 5.0476 -158.95)" fill="#fff" stroke-width="1.1266">
<path d="m-0.7199 52.194c-3.1e-7 -0.79595 0.22171-1.4156 0.66514-1.8591 0.44342-0.44342 1.0609-0.66514 1.8524-0.66514 0.81147 5e-6 1.4367 0.21839 1.8757 0.65516 0.43899 0.43456 0.65848 1.0443 0.65849 1.8291-5.3e-6 0.5698-0.09645 1.0376-0.28934 1.4034-0.19068 0.36361-0.46782 0.6474-0.83142 0.85138-0.3614 0.20176-0.81258 0.30264-1.3536 0.30264-0.54985 0-1.0055-0.08758-1.3669-0.26273-0.35918-0.17515-0.65073-0.45229-0.87466-0.83142-0.22393-0.37913-0.3359-0.85359-0.3359-1.4234m1.5065 0.0067c-1.81e-6 0.4922 0.0909 0.84584 0.27271 1.0609 0.18402 0.21506 0.43345 0.32259 0.74828 0.32259 0.3237 1e-6 0.57423-0.10531 0.75161-0.31594 0.17737-0.21062 0.26605-0.58865 0.26606-1.1341-3.9e-6 -0.45894-0.093123-0.79373-0.27936-1.0044-0.18403-0.21284-0.43456-0.31926-0.75161-0.31927-0.30375 4e-6 -0.54763 0.10754-0.73165 0.32259-0.18402 0.21506-0.27603 0.57091-0.27603 1.0675"/>
<path d="m4.3765 49.753h1.9821l0.76491 2.9665 0.76158-2.9665h1.9755v4.8755h-1.2305v-3.7181l-0.95448 3.7181h-1.1141l-0.95115-3.7181v3.7181h-1.2338v-4.8755"/>
<path d="m12.639 52.862v-1.0143h2.328v2.0786c-0.44565 0.30375-0.8403 0.51105-1.1839 0.62191-0.34144 0.10864-0.74718 0.16296-1.2172 0.16296-0.57867 0-1.0509-0.09866-1.4167-0.29599-0.36361-0.19732-0.6463-0.49109-0.84805-0.88131-0.19954-0.39021-0.29931-0.83807-0.29931-1.3436 0-0.53211 0.10975-0.99438 0.32924-1.3868 0.2195-0.39464 0.54098-0.69396 0.96445-0.89794 0.33035-0.15741 0.77488-0.23612 1.3336-0.23612 0.53876 5e-6 0.94117 0.04878 1.2072 0.14633 0.26827 0.09756 0.48998 0.24943 0.66514 0.45562 0.17737 0.20398 0.31039 0.46338 0.39908 0.77821l-1.4533 0.2594c-0.05987-0.18402-0.16185-0.32481-0.30596-0.42236-0.1419-0.09755-0.3237-0.14633-0.54541-0.14633-0.33036 4e-6 -0.59419 0.11529-0.79152 0.34587-0.19511 0.22837-0.29266 0.59087-0.29266 1.0875-2e-6 0.52768 0.09866 0.90459 0.29599 1.1307 0.19954 0.22615 0.47668 0.33922 0.83142 0.33922 0.1685 1e-6 0.32924-0.02439 0.48223-0.07317 0.15298-0.04878 0.32813-0.13192 0.52546-0.24943v-0.45895h-1.0077"/>
<path d="m15.025 49.753h1.4467v1.1108l-0.27936 2.2315h-0.89461l-0.27271-2.2315v-1.1108m0.04988 3.6815h1.3502v1.1939h-1.3502v-1.1939"/>
</g>
<g transform="matrix(3.967 -.21515 .22276 3.8315 5.0476 -158.95)" fill="#fff" stroke-width="1.1266">
<path d="m-0.73903 54.842h0.9004l0.32456 1.715 0.47323-1.715h0.89831l0.47533 1.715 0.32456-1.715h0.89621l-0.67635 3.0697h-0.92972l-0.53815-1.9327-0.53605 1.9327h-0.92972l-0.68263-3.0697"/>
<path d="m3.3678 56.379c-2e-7 -0.50115 0.1396-0.89133 0.41879-1.1705 0.27919-0.27919 0.66797-0.41879 1.1663-0.41879 0.51092 3e-6 0.90459 0.13751 1.181 0.41251 0.2764 0.27361 0.4146 0.6575 0.4146 1.1517-3.3e-6 0.35877-0.060728 0.65332-0.18217 0.88365-0.12006 0.22894-0.29455 0.40762-0.52349 0.53605-0.22755 0.12703-0.51163 0.19055-0.85224 0.19055-0.3462 0-0.63307-0.05514-0.86062-0.16542-0.22615-0.11028-0.40972-0.28478-0.55071-0.52349-0.14099-0.23871-0.21149-0.53745-0.21149-0.89621m0.94856 0.0042c-1.2e-6 0.30991 0.057234 0.53256 0.1717 0.66797 0.11586 0.13541 0.27291 0.20311 0.47114 0.20311 0.20381 0 0.36155-0.06631 0.47323-0.19893 0.11168-0.13262 0.16751-0.37063 0.16752-0.71404-2.4e-6 -0.28896-0.058633-0.49976-0.17589-0.63238-0.11587-0.13401-0.27361-0.20102-0.47323-0.20102-0.19125 3e-6 -0.34481 0.06771-0.46067 0.20311-0.11587 0.13541-0.1738 0.35946-0.1738 0.67216"/>
<path d="m6.6978 57.912v-3.0697h1.5809c0.29315 3e-6 0.51721 0.02513 0.67216 0.07538 0.15495 0.05026 0.27989 0.14379 0.37482 0.28059 0.094923 0.13541 0.14239 0.30083 0.14239 0.49627-3.1e-6 0.17031-0.036298 0.31758-0.10889 0.44182-0.072593 0.12285-0.17241 0.22266-0.29944 0.29944-0.080969 0.04886-0.19195 0.08934-0.33294 0.12145 0.11307 0.03769 0.19543 0.07538 0.24709 0.11307 0.034897 0.02513 0.085151 0.07887 0.15076 0.16123 0.067004 0.08236 0.11167 0.14588 0.13401 0.19055l0.45858 0.88993h-1.0721l-0.50674-0.93809c-0.064216-0.12145-0.12145-0.20032-0.1717-0.23662-0.068404-0.047461-0.14588-0.071193-0.23243-0.071194h-0.083758v1.2459h-0.95275m0.95275-1.8259h0.39995c0.043273 1e-6 0.12703-0.01396 0.25127-0.04188 0.062817-0.01256 0.11377-0.04467 0.15286-0.09632 0.040481-0.05165 0.060723-0.11098 0.060725-0.17799-2.1e-6 -0.09911-0.031412-0.17519-0.094228-0.22824-0.062821-0.05304-0.18078-0.07957-0.35388-0.07957h-0.4167v0.624"/>
<path d="m9.7792 54.842h1.4092c0.2778 3e-6 0.50185 0.03769 0.67216 0.11307 0.1717 0.07538 0.31339 0.18357 0.42507 0.32456 0.11168 0.141 0.19264 0.30502 0.2429 0.49208 0.05025 0.18706 0.07538 0.38529 0.07538 0.59468-3e-6 0.32805-0.03769 0.58282-0.11307 0.76429-0.07399 0.18008-0.17729 0.33154-0.30991 0.45439-0.13262 0.12145-0.27501 0.20242-0.42717 0.2429-0.208 0.05584-0.39646 0.08376-0.56537 0.08376h-1.4092v-3.0697m0.94856 0.69519v1.6773h0.23243c0.19823 0 0.33922-0.02164 0.42298-0.06491 0.08376-0.04467 0.14937-0.12145 0.19683-0.23034 0.04746-0.11028 0.07119-0.28827 0.07119-0.53396-2e-6 -0.32526-0.05305-0.54792-0.15914-0.66797-0.1061-0.12005-0.28199-0.18008-0.52768-0.18008h-0.23662"/>
<path d="m12.682 56.896 0.9025-0.05654c0.01954 0.14658 0.05933 0.25826 0.11936 0.33503 0.09772 0.12424 0.23731 0.18636 0.41879 0.18636 0.13541 0 0.23941-0.03141 0.312-0.09423 0.07398-0.06421 0.11098-0.1382 0.11098-0.22196-2e-6 -0.07957-0.0349-0.15076-0.1047-0.21358-0.0698-0.06282-0.23173-0.12215-0.4858-0.17799-0.416-0.09353-0.71264-0.21777-0.88993-0.37272-0.17868-0.15495-0.26803-0.35248-0.26803-0.59259 0-0.15774 0.04537-0.30641 0.13611-0.44601 0.09213-0.14099 0.22964-0.25127 0.41251-0.33084 0.18427-0.08096 0.43624-0.12145 0.75592-0.12145 0.39227 3e-6 0.691 0.07329 0.89621 0.21987 0.2066 0.14518 0.32945 0.37691 0.36854 0.69519l-0.89412 0.05235c-0.02373-0.1382-0.07399-0.23871-0.15076-0.30153-0.07538-0.06282-0.18008-0.09422-0.31409-0.09423-0.11028 3e-6 -0.19334 0.02373-0.24918 0.0712-0.05584 0.04607-0.08376 0.10261-0.08376 0.16961-1e-6 0.04886 0.02303 0.09284 0.0691 0.13192 0.04467 0.04049 0.15076 0.07818 0.31828 0.11307 0.4146 0.08935 0.71124 0.18008 0.88993 0.27222 0.18008 0.09074 0.3106 0.20381 0.39157 0.33922 0.08236 0.13541 0.12354 0.28687 0.12354 0.45439-3e-6 0.19683-0.05445 0.37831-0.16333 0.54443-0.10889 0.16612-0.26105 0.29246-0.45648 0.37901-0.19544 0.08515-0.44183 0.12773-0.73917 0.12773-0.5221 0-0.88365-0.10051-1.0847-0.30153-0.20102-0.20102-0.31479-0.45648-0.34132-0.76639"/>
<path d="m15.451 54.842h0.91087v0.69938l-0.17589 1.405h-0.56328l-0.1717-1.405v-0.69938m0.03141 2.318h0.85015v0.75173h-0.85015v-0.75173"/>
</g>
</g>
<rect transform="matrix(1.0692 0 0 1.0477 12.339 23.813)" x="2" y="-30" width="75.966" height="69.024" rx="3.957" ry="3.957" clip-path="url(#clipPath4156-4-1)" fill="url(#linearGradient3837)" opacity=".65"/>
</g>
</g>
<g display="none">
<rect x="5" y="7" width="86" height="85" rx="6" ry="6" fill="url(#ButtonShadow)" filter="url(#filter3174-36)" opacity=".9"/>
</g>
<g display="none">
<rect x="5" y="7" width="86" height="85" rx="6" ry="6" fill="url(#ButtonShadow)" filter="url(#filter3174-2)" opacity=".9"/>
</g>
</svg>
