<?xml version="1.0" encoding="UTF-8"?>
<svg width="96" height="96" version="1.1" viewBox="0 0 72 72" xmlns="http://www.w3.org/2000/svg" xmlns:cc="http://creativecommons.org/ns#" xmlns:dc="http://purl.org/dc/elements/1.1/" xmlns:rdf="http://www.w3.org/1999/02/22-rdf-syntax-ns#" xmlns:xlink="http://www.w3.org/1999/xlink">
<metadata>
<rdf:RDF>
<cc:Work rdf:about="">
<dc:format>image/svg+xml</dc:format>
<dc:type rdf:resource="http://purl.org/dc/dcmitype/StillImage"/>
<dc:date>2019</dc:date>
<dc:creator>
<cc:Agent>
<dc:title>Cristian Pozzessere  &lt; ilnanny &gt;</dc:title>
</cc:Agent>
</dc:creator>
<dc:subject>
<rdf:Bag>
<rdf:li>ilnanny</rdf:li>
<rdf:li>lila_hd</rdf:li>
<rdf:li>lila-hd</rdf:li>
<rdf:li>lila hd icon theme</rdf:li>
<rdf:li>Lila-HD-Icon-Theme lila hd icon lila icon</rdf:li>
</rdf:Bag>
</dc:subject>
<dc:description>Playing with Inkscape on Gnu/Linux O. S.</dc:description>
<dc:contributor>
<cc:Agent>
<dc:title>In the night, alone like a dog.</dc:title>
</cc:Agent>
</dc:contributor>
</cc:Work>
</rdf:RDF>
</metadata>
<defs>
<clipPath id="c">
<rect width="384" height="384"/>
</clipPath>
<g id="a" clip-path="url(#c)">
<path d="m70.398 252.6h243.2c7.0703 0 12.797 6.2344 12.797 13.93v5.7383c0 7.6914-5.7266 13.93-12.797 13.93h-243.2c-7.0703 0-12.797-6.2383-12.797-13.93v-5.7383c0-7.6953 5.7266-13.93 12.797-13.93z"/>
</g>
<linearGradient id="linearGradient4071" x1="6" x2="90" y1="47" y2="47" gradientTransform="matrix(1.108 0 0 1.1074 -150.48 -52.652)" gradientUnits="userSpaceOnUse">
<stop stop-color="#b2babc" offset="0"/>
<stop stop-color="#fff" offset=".25"/>
<stop stop-color="#96a1a4" offset=".5"/>
<stop stop-color="#fbf9f9" offset=".75"/>
<stop stop-color="#b2b9bc" offset="1"/>
</linearGradient>
<linearGradient id="linearGradient4129" x1="1.5" x2="94.5" y1="88.172" y2="88.172" gradientTransform="matrix(1.0007 0 0 1.0003 -145.34 -48.615)" gradientUnits="userSpaceOnUse">
<stop offset="0"/>
<stop stop-opacity=".58824" offset=".1"/>
<stop stop-opacity=".58824" offset=".9"/>
<stop offset="1"/>
</linearGradient>
<radialGradient id="radialGradient7462" cx="13.948" cy="44.893" r="43.199" gradientTransform="matrix(.97586 0 0 .049204 -111.41 31.573)" gradientUnits="userSpaceOnUse" xlink:href="#linearGradient3737"/>
<linearGradient id="linearGradient3737">
<stop stop-color="#fff" offset="0"/>
<stop stop-color="#fff" stop-opacity="0" offset="1"/>
</linearGradient>
<radialGradient id="radialGradient7464" cx="13.948" cy="44.893" r="43.199" gradientTransform="matrix(.88857 0 0 .049227 -17.062 55.103)" gradientUnits="userSpaceOnUse" xlink:href="#linearGradient3737"/>
<linearGradient id="linearGradient4767" x1="2.7714" x2="50.528" y1="-28.642" y2="14.514" gradientTransform="matrix(1.0042 0 0 1.0052 -.21821 -.047555)" gradientUnits="userSpaceOnUse" xlink:href="#linearGradient3737"/>
<clipPath id="clipPath4156-4-1">
<path d="m27.046-55.695-14.214 13.321h0.06127l15.653 21.771 10.231-10.546c-0.2169-1.1522-11.311-23.67-11.732-24.546zm-17.399 16.313-14.888 14.062 21.229 17.515 10.385-10.577zm31.491 12.951-9.7413 9.7136 8.9448 12.458 7.7808-7.555zm-49.84 4.3788-13.754 12.982 26.283 13.846 0.06127-0.0617-0.12253-0.0617 9.8332-10.053-22.301-16.652zm38.015 7.4008-9.8025 9.7753 11.579 9.5594 7.6276-7.4008-8.6691-11.009zm20.187 5.674-7.3825 7.2158 6.1878 8.5418 5.8202-6.1365zm-32.195 6.3215-9.5575 9.4977 13.662 7.185 7.9339-7.6784zm23.312 2.3744-7.1068 6.9383 8.3628 6.9074 5.3608-5.674-0.06127-0.0925-0.0919 0.12335-6.4635-8.2026zm-8.7304 8.5418-7.5051 7.3392 10.354 5.4581c1.3975-1.321 5.6751-6.1229 5.8509-6.3215z" fill="#fff" opacity=".6"/>
</clipPath>
<mask id="b-7">
<g filter="url(#alpha-5)">
<rect width="384" height="384" fill-opacity=".2"/>
</g>
</mask>
<filter id="alpha-5" x="0" y="0" width="1" height="1">
<feColorMatrix in="SourceGraphic" values="0 0 0 0 1 0 0 0 0 1 0 0 0 0 1 0 0 0 1 0"/>
</filter>
<filter id="filter3174" x="-.047721" y="-.048282" width="1.0954" height="1.0966" color-interpolation-filters="sRGB">
<feGaussianBlur stdDeviation="1.71"/>
</filter>
<linearGradient id="linearGradient3586" x1="45.448" x2="45.448" y1="92.54" y2="7.0165" gradientTransform="scale(1.0059 .99417)" gradientUnits="userSpaceOnUse">
<stop offset="0"/>
<stop stop-opacity=".58824" offset="1"/>
</linearGradient>
</defs>
<g transform="matrix(.75 0 0 .75 0 -769.89)">
<g transform="translate(-.14896 1026.1)">
<g transform="translate(.25 -.25003)">
<g transform="translate(109.16 6.4491)">
<g display="none">
<path d="m11 7c-3.324 0-6 2.676-6 6v33.688c2.2378 0.12403 4.6605 0.23568 5.875 0.4375 0.66093 0.10983-0.08406 0.24085-1.125 0.34375-1.0409 0.1029-2.3955 0.19637-2.9062 0.28125-0.62215 0.10338-1.2173 0.154-1.8438 0.25v1.0625c0.38037 0.03607 0.71838 0.03125 0.9375 0.03125 0.80883 1e-6 1.16 0.2157 1.3125 0.5625 0.15253 0.3468 0.09375 0.83972 0.09375 1.4062 0 0.42483-0.94202 0.66301-1.1562 1.375-0.076561 0.25447-0.63644 0.50802-1.1875 0.75v2.2188c0.73559 0.02497 1.4333 0.05671 1.8438 0.3125 0.28172 0.17556-0.77495 0.40535-1.8438 0.59375v7.5625c1.138 0.18034 3.3101 0.92568 3.9688 1.0625 1.0902 0.22645 1.2247 0.33476 0.875 0.4375-0.34972 0.10274-1.1736 0.17517-2 0.3125-0.97809 0.16253-1.9356 0.4545-2.8438 0.65625v19.656c0 3.324 2.676 6 6 6h13c0.0954-0.43824 0.15096-0.93118 0.25-1.4375 0.14036-0.71751 0.25498-1.3416 0.375-1.5938 0.03001-0.06304 0.05815-0.11405 0.09375-0.125 0.1068-0.03285 0.2382 0.19196 0.46875 0.78125 0.30434 0.77787 0.54017 1.6468 0.6875 2.375h0.75c0.27615-0.49369 0.57854-1.1385 0.8125-1.4375 0.09907-0.12663 0.27524 0.1315 0.53125 0.375 0.25601 0.2435 0.5889 0.48638 0.9375 0.375 0.64861-0.20723 1.6028-0.72623 2.0312-1 0.13988-0.08938 0.30016-0.15798 0.40625-0.1875 0.10609-0.02952 0.17433-0.01774 0.25 0 0.15134 0.03548 0.2322 0.14456 0.34375 0.28125 0.2231 0.27338 0.46678 0.65625 1.0625 0.65625 0.47834 0 0.65718-0.0325 0.78125 0.0625s0.19709 0.31455 0.40625 0.875h8.875c-0.04778-0.59388 1.0405-2.1515 1.2188-3.0625 0.19092-0.976 0.21408-1.2424 0.28125-1.0625 0.06717 0.17992 0.1925 0.79391 0.46875 1.5 0.11045 0.2823 0.21389 0.35824 0.3125 0.28125 0.09861-0.07699 0.1689-0.29395 0.25-0.5625 0.16221-0.53711 0.28565-1.2967 0.34375-1.5938 0.13113-0.67034 0.12866-1.7865 0.125-2.2812-9.11e-4 -0.12369-0.0059-0.21782 0-0.25 0.01779-0.09656 0.08067 0.31208 0.28125 1.5938 0.16382 1.0468 0.54767 2.6879 0.71875 3.5625 0.1698 0.86799 0.29811 1.3221 0.40625 1.875h28.219c0.03877-0.49496 0.03519-1.0986 0.0625-1.5 0.02049-0.30106 0.06649-0.487 0.15625-0.46875 0.02992 0.0061 0.05077 0.03882 0.09375 0.09375 0.23345 0.29834 0.6306 1.1649 0.96875 1.875h8.0312c3.324 0 6-2.676 6-6v-7.2188c-0.16942 0.0045-0.29011-4e-6 -0.5 0-1.3303 0-2.6385-4e-6 -3.9688 0-1.2266 0-2.0539-9.64e-4 -2.25-0.0625-0.19606-0.06154 0.23297-0.18318 1.4688-0.5 0.65503-0.16793 3.3425-0.92808 5.25-1.3438v-38.406c-0.65275-0.26634-1.207-0.48866-1.75-0.90625-0.14251-0.10961-0.44884-0.39247-0.96875-0.5625-0.5199-0.17003-1.2741-0.25614-2.2812-0.0625-1.5335 0.29485-1.6856 0.28347-1.25 0.15625 0.4356-0.12722 1.4686-0.38101 2.25-0.53125 1.1527-0.22164 2.7222-1.2042 4-1.8438v-4.5625c-0.69831-0.25798-1.4222-0.55827-1.75-1.0625-0.20971-0.32258-0.32162-0.51302-0.3125-0.625 0.0091-0.11198 0.13299-0.14912 0.25-0.1875 0.11701-0.03837 0.26103-0.05449 0.375-0.15625 0.11397-0.10176 0.1875-0.29162 0.1875-0.59375 0-0.32292 0.08246-0.88706 0.0625-1.4062-0.01-0.25959-0.03562-0.49724-0.125-0.6875-0.08939-0.19026-0.21909-0.333-0.4375-0.375-0.57457-0.11048-0.84814-0.23368-0.90625-0.34375-0.05811-0.11007 0.07208-0.18937 0.28125-0.28125 0.41834-0.18376 1.1325-0.3394 1.125-0.34375-0.6687-0.38572-5.2472-0.92123-5-0.96875 0.33257-0.06395 0.66744-0.12355 1-0.1875 1.0476-0.20144 2.4328-0.30923 3.75-0.5625 0.57326-0.11023 0.91177-0.25057 1.125-0.4375 0.21323-0.18693 0.2942-0.42326 0.375-0.625v-8.3125c0-3.324-2.676-6-6-6h-51.375c0.09658 1.3976 0.20158 2.9594-0.09375 2.1875-0.21042-0.54995-0.32083-1.1375-0.53125-1.6875-0.053238-0.13914-0.096059-0.32947-0.15625-0.5h-2.0312c-0.2407 0.49231-0.44964 0.97083-0.78125 1.1875-0.50693 0.33123-0.7858 0.49462-1.0312 0.40625-0.24545-0.088366-0.47684-0.42677-0.84375-0.90625-0.16375-0.21398-0.43453-0.43147-0.75-0.6875h-6.8125l-1.3125 5.5625-1.75-5.5625h-0.21875l-1.75 8.9375-1.4062-8.9375z" fill="url(#linearGradient3586)" filter="url(#filter3174)" opacity=".9"/>
</g>
<g transform="translate(2.4186e-7 80)">
<g transform="matrix(1.0034 0 0 1.005 33.489 -38.527)">
<g transform="translate(.24914 -.24877)">
<g transform="matrix(.99479 0 0 .99479 1.1489 -.99283)">
<g transform="translate(.92703 2.5932)">
<path d="m-56.251-48.365h-82.003c-3.7858 0-6.8336 3.0432-6.8336 6.8233v81.88c0 3.7801 3.0478 6.8233 6.8336 6.8233h82.003c3.7858 0 6.8336-3.0432 6.8336-6.8233v-81.88c0-3.7801-3.0478-6.8233-6.8336-6.8233z" opacity=".15"/>
<path d="m-56.891-47.619h-80.722c-3.7267 0-6.7268 2.9956-6.7268 6.7167v80.6c0 3.721 3.0002 6.7167 6.7268 6.7167h80.722c3.7267 0 6.7268-2.9956 6.7268-6.7167v-80.6c0-3.721-3.0002-6.7167-6.7268-6.7167z" opacity=".15"/>
<path d="m-57.532-46.873h-79.441c-3.6675 0-6.6201 2.9481-6.6201 6.6101v79.321c0 3.662 2.9526 6.6101 6.6201 6.6101h79.441c3.6675 0 6.6201-2.9481 6.6201-6.6101v-79.321c0-3.662-2.9525-6.6101-6.6201-6.6101z" fill="url(#linearGradient4071)"/>
<rect x="-139.39" y="-42.094" width="84.709" height="77.043" rx="2.3712" ry="2.9989" fill="#dae2ea" fill-opacity=".9717"/>
<path d="m-135.3-43.659c-3.1059 0-5.6485 2.527-5.6485 5.6181v68.936c0 3.0912 2.5426 5.6181 5.6485 5.6181h76.528c3.1059 0 5.6485-2.527 5.6485-5.6181v-68.936c0-3.0912-2.5426-5.6181-5.6485-5.6181zm0 2.308h76.528c1.8816 0 3.3405 1.4728 3.3405 3.3101v68.936c0 1.8374-1.4589 3.3102-3.3405 3.3102h-76.528c-1.8816 0-3.3405-1.4728-3.3405-3.3102v-68.936c0-1.8374 1.4589-3.3101 3.3405-3.3101z" color="#000000" fill="#202223" fill-opacity=".93689" style="text-decoration-line:none;text-indent:0;text-transform:none"/>
<path d="m-143.59 33.075v5.9704c0 3.662 2.9659 6.6234 6.6334 6.6234h79.414c3.6675 0 6.6334-2.9614 6.6334-6.6234v-5.9704c0 3.662-2.9659 6.6234-6.6334 6.6234h-79.414c-3.6675 0-6.6334-2.9614-6.6334-6.6234z" fill="url(#linearGradient4129)" opacity=".65818"/>
<rect x="-139.73" y="31.489" width="83.961" height="4.229" rx="4.2576" ry="4.2512" fill="url(#radialGradient7462)" opacity=".55"/>
<rect transform="rotate(90)" x="-42.833" y="55.312" width="76.371" height="4.2354" rx="4.2467" ry="4.2532" fill="url(#radialGradient7464)" opacity=".669"/>
<use transform="matrix(.26439 0 0 .2656 -148.14 -51.365)" width="100%" height="100%" mask="url(#b-7)" xlink:href="#a"/>
<path d="m-127.52-21.285c-3.1643 0-5.7506 2.5981-5.7506 5.7768 0 3.1787 2.5863 5.7768 5.7506 5.7768 3.1642 0 5.7505-2.5981 5.7505-5.7768 0-3.1787-2.5863-5.7768-5.7505-5.7768z" color="#000000" color-rendering="auto" dominant-baseline="auto" image-rendering="auto" opacity=".3" shape-rendering="auto" solid-color="#000000" stroke-width=".265" style="font-feature-settings:normal;font-variant-alternates:normal;font-variant-caps:normal;font-variant-ligatures:normal;font-variant-numeric:normal;font-variant-position:normal;isolation:auto;mix-blend-mode:normal;shape-padding:0;text-decoration-color:#000000;text-decoration-line:none;text-decoration-style:solid;text-indent:0;text-orientation:mixed;text-transform:none;white-space:normal"/>
<path d="m-135.1-41.728c-2.3383 0-4.2168 2.8836-4.2168 6.4676v7.5046h84.331l-0.12571-8.6344c-0.05218-3.5837-1.7528-5.3379-4.0911-5.3379z" stroke-width=".31211"/>
<path d="m-128.85 16.85h63.153c1.8353 0 3.3234 1.2402 3.3234 2.7705v1.1395c0 1.5302-1.4882 2.7705-3.3234 2.7705h-63.153c-1.8352 0-3.3234-1.2402-3.3234-2.7705v-1.1395c0-1.5302 1.4882-2.7705 3.3234-2.7705z" opacity=".3" stroke-width=".265"/>
<path d="m-128.95 15.654h63.153c1.8353 0 3.3234 1.2402 3.3234 2.7705v1.1395c0 1.5302-1.4882 2.7705-3.3234 2.7705h-63.153c-1.8352 0-3.3234-1.2402-3.3234-2.7705v-1.1395c0-1.5302 1.4882-2.7705 3.3234-2.7705z" fill="#0ff" stroke-width=".265"/>
<path d="m-80.721-10.394c-0.35877 0.01779-0.73263 0.05257-1.0868 0.08663l-0.64318 2.7289c-0.5364 0.07673-1.0532 0.14194-1.5747 0.25989l-1.5969-2.2741c-0.369 0.10088-0.74791 0.18459-1.1089 0.30321v2.8155c-0.49832 0.18989-0.98611 0.40073-1.4638 0.62808l-2.0626-1.8842c-0.32424 0.17272-0.68377 0.33213-0.99805 0.51979l0.62101 2.7289c-0.44005 0.29167-0.87269 0.60678-1.2864 0.93129l-2.484-1.3861c-0.28017 0.2417-0.55321 0.45979-0.82062 0.71471l1.2198 2.534c-0.36084 0.37801-0.6911 0.76411-1.0202 1.1695l-2.728-0.80135c-0.21939 0.29755-0.43899 0.62279-0.64319 0.93129l1.7743 2.1658c-0.2644 0.44378-0.5037 0.92075-0.7319 1.3861l-2.8389-0.17326c-0.14641 0.33871-0.31439 0.6491-0.44357 0.99627l2.2179 1.7326c-0.15804 0.4962-0.28203 1.0252-0.39921 1.5377l-2.7945 0.4115c-0.0647 0.35996-0.13104 0.7171-0.17744 1.0829l2.5727 1.2128c-0.039 0.4948-0.0887 0.98985-0.0887 1.4944 0 0.02015-6e-5 0.04482 0 0.06497l-2.6393 1.0179c0.0183 0.36178 0.0527 0.74761 0.0887 1.1046l2.7945 0.62808c0.0786 0.52379 0.14536 1.0285 0.26614 1.5377l-2.3288 1.5594c0.10334 0.36033 0.18903 0.73035 0.3105 1.0829h2.8832c0.19445 0.48662 0.41038 0.96295 0.64319 1.4294l-1.9296 2.0142c0.17687 0.31664 0.34011 0.6677 0.53228 0.97462l2.7945-0.60643c0.29868 0.42972 0.62137 0.8522 0.95368 1.2562l-1.4194 2.4257c0.24752 0.27359 0.47085 0.54022 0.73191 0.80135l2.5949-1.1912c0.3871 0.35237 0.78249 0.67487 1.1976 0.99627l-0.82061 2.6639c0.30472 0.21424 0.63776 0.42869 0.9537 0.62808l2.2179-1.7326c0.45446 0.25817 0.94289 0.49187 1.4194 0.71471l-0.17743 2.7722c0.34686 0.14298 0.6647 0.30701 1.0202 0.43316l1.7743-2.1441c0.50813 0.15434 1.0499 0.25376 1.5747 0.36819l0.4214 2.7289c0.36862 0.0631 0.73436 0.12795 1.1089 0.17326l1.242-2.5123c0.5067 0.03805 1.0136 0.08664 1.5303 0.08664 0.02066 0 0.04595 5.7e-5 0.06654 0l1.0424 2.5773c0.37048-0.01778 0.76558-0.05147 1.1311-0.08664l0.64319-2.7289c0.53639-0.07676 1.0532-0.14195 1.5747-0.25989l1.5969 2.2741c0.36899-0.10088 0.7479-0.18458 1.1089-0.30321v-2.8155c0.49832-0.18988 0.98611-0.37908 1.4638-0.60643l2.0626 1.8626c0.32424-0.17272 0.68377-0.33212 0.99805-0.51979l-0.62101-2.7289c0.44005-0.29167 0.87269-0.6068 1.2864-0.93129l2.484 1.3861c0.28016-0.2417 0.5532-0.45979 0.82062-0.71472l-1.2198-2.534c0.36084-0.37801 0.69111-0.76411 1.0202-1.1695l2.728 0.80134c0.21939-0.29756 0.43899-0.6228 0.64318-0.93129l-1.7743-2.1658c0.26438-0.44379 0.5037-0.92075 0.7319-1.3861l2.8389 0.17326c0.14642-0.33872 0.31441-0.6491 0.44358-0.99627l-2.2179-1.7326c0.15804-0.4962 0.28204-1.0252 0.39922-1.5377l2.7945-0.4115c0.06464-0.35996 0.13104-0.71711 0.17743-1.0829l-2.5727-1.2128c0.03897-0.4948 0.08872-0.98985 0.08872-1.4944 0-0.02014 7.2e-5 -0.04482 0-0.06497l2.6393-1.0179c-0.01823-0.36178-0.05272-0.74762-0.08872-1.1046l-2.7945-0.62808c-0.07858-0.5238-0.14535-1.0285-0.26615-1.5377l2.3288-1.5594c-0.10332-0.36033-0.18903-0.73034-0.31051-1.0829h-2.8832c-0.19446-0.48663-0.41036-0.96295-0.64319-1.4294l1.9296-2.0142c-0.17687-0.31663-0.34011-0.66771-0.53229-0.97461l-2.7945 0.60643c-0.29869-0.42972-0.62138-0.8522-0.95369-1.2562l1.4194-2.4257c-0.24752-0.27358-0.47085-0.54021-0.7319-0.80135l-2.5949 1.1912c-0.3871-0.35236-0.78249-0.67487-1.1977-0.99627l0.82062-2.6639c-0.30472-0.21425-0.63776-0.42869-0.95369-0.62808l-2.2179 1.7326c-0.45444-0.25817-0.94289-0.49187-1.4194-0.71472l0.17743-2.7722c-0.34687-0.14297-0.6647-0.30702-1.0202-0.43316l-1.7743 2.1658c-0.50813-0.15434-1.0499-0.27541-1.5747-0.38984l-0.4214-2.7289c-0.36862-0.06313-0.73435-0.12795-1.1089-0.17326l-1.242 2.5123c-0.5067-0.03803-1.0137-0.086633-1.5303-0.086633-0.02065 0-0.04595-5.82e-5 -0.06654 0l-1.0424-2.5773c-0.01165 5.53e-4 -0.03286-5.71e-4 -0.04436 0zm1.1533 6.9522c8.1198 0 14.773 6.2181 15.237 14.034h-7.4964c-0.43988-3.8012-3.728-6.7356-7.7404-6.7356-0.92596 0-1.8161 0.14529-2.6393 0.43316l-3.7704-6.3458c1.9499-0.8842 4.1198-1.3861 6.4097-1.3861zm-8.8493 2.7939 3.7482 6.3458c-1.6545 1.3948-2.7058 3.4536-2.7058 5.761 0 2.4569 1.1948 4.63 3.0385 6.0209l-3.7482 6.3241c-4.0583-2.6782-6.7424-7.206-6.7424-12.345 0-4.9938 2.5434-9.4033 6.4097-12.107zm8.8493 8.7065c1.9253 0 3.4821 1.5202 3.4821 3.4003 0 1.8801-1.5568 3.4003-3.4821 3.4003s-3.4821-1.5202-3.4821-3.4003c0-1.8801 1.5568-3.4003 3.4821-3.4003zm7.5408 5.3062h7.5852c-0.95979 7.3233-7.3672 12.995-15.126 12.995-2.1406 0-4.1832-0.43433-6.0326-1.2128l3.7704-6.3891c0.71352 0.20939 1.4778 0.32487 2.2622 0.32487 3.6392 0 6.6771-2.4311 7.5408-5.7177z" fill="#333" stroke="#020202" stroke-width=".40228"/>
<path d="m-122.76-16.305c0 2.6404-2.1306 4.7808-4.7591 4.7808-2.6284 0-4.7591-2.1404-4.7591-4.7808 0-2.6404 2.1306-4.7808 4.7591-4.7808 2.6284 0 4.7591 2.1404 4.7591 4.7808z" fill="#fff" stroke="#000" stroke-width="1.9875"/>
<path d="m-111.75-5.3492c-1.4123 0-2.489 1.2391-2.489 2.6394v6.2748c0 1.4003 1.0767 2.6394 2.489 2.6394h6.5231c1.4123 0 2.489-1.2391 2.489-2.6394v-6.2748c0-1.4003-1.0767-2.6394-2.489-2.6394z" color="#000000" color-rendering="auto" dominant-baseline="auto" image-rendering="auto" opacity=".3" shape-rendering="auto" solid-color="#000000" stroke-width=".265" style="font-feature-settings:normal;font-variant-alternates:normal;font-variant-caps:normal;font-variant-ligatures:normal;font-variant-numeric:normal;font-variant-position:normal;isolation:auto;mix-blend-mode:normal;shape-padding:0;text-decoration-color:#000000;text-decoration-line:none;text-decoration-style:solid;text-indent:0;text-orientation:mixed;text-transform:none;white-space:normal"/>
<path d="m-111.75-5.15h6.5231c0.82726 0 1.4976 0.73558 1.4976 1.6434v6.2748c0 0.90782-0.67029 1.6434-1.4976 1.6434h-6.5231c-0.82726 0-1.4976-0.73558-1.4976-1.6434v-6.2748c0-0.90782 0.67029-1.6434 1.4976-1.6434z" fill="#2a61bf" stroke="#fff" stroke-width="1.9875"/>
<path d="m-127.52-5.3492c-3.1643 0-5.7506 2.5981-5.7506 5.7768 0 3.1787 2.5863 5.7768 5.7506 5.7768 3.1642 0 5.7505-2.5981 5.7505-5.7768 0-3.1787-2.5863-5.7768-5.7505-5.7768z" color="#000000" color-rendering="auto" dominant-baseline="auto" image-rendering="auto" opacity=".3" shape-rendering="auto" solid-color="#000000" stroke-width=".265" style="font-feature-settings:normal;font-variant-alternates:normal;font-variant-caps:normal;font-variant-ligatures:normal;font-variant-numeric:normal;font-variant-position:normal;isolation:auto;mix-blend-mode:normal;shape-padding:0;text-decoration-color:#000000;text-decoration-line:none;text-decoration-style:solid;text-indent:0;text-orientation:mixed;text-transform:none;white-space:normal"/>
<path d="m-122.76-0.36921c0 2.6404-2.1306 4.7808-4.7591 4.7808-2.6284 0-4.7591-2.1404-4.7591-4.7808 0-2.6404 2.1306-4.7808 4.7591-4.7808 2.6284 0 4.7591 2.1404 4.7591 4.7808z" fill="#2a61bf" stroke="#fff" stroke-width="1.9875"/>
<path d="m-111.75-21.285c-1.4123 0-2.489 1.2391-2.489 2.6394v6.2748c0 1.4003 1.0767 2.6394 2.489 2.6394h6.5231c1.4123 0 2.489-1.2391 2.489-2.6394v-6.2748c0-1.4003-1.0767-2.6394-2.489-2.6394z" color="#000000" color-rendering="auto" dominant-baseline="auto" image-rendering="auto" opacity=".3" shape-rendering="auto" solid-color="#000000" stroke-width=".265" style="font-feature-settings:normal;font-variant-alternates:normal;font-variant-caps:normal;font-variant-ligatures:normal;font-variant-numeric:normal;font-variant-position:normal;isolation:auto;mix-blend-mode:normal;shape-padding:0;text-decoration-color:#000000;text-decoration-line:none;text-decoration-style:solid;text-indent:0;text-orientation:mixed;text-transform:none;white-space:normal"/>
<path d="m-111.75-21.086h6.5231c0.82726 0 1.4976 0.73558 1.4976 1.6434v6.2748c0 0.90782-0.67029 1.6434-1.4976 1.6434h-6.5231c-0.82726 0-1.4976-0.73558-1.4976-1.6434v-6.2748c0-0.90782 0.67029-1.6434 1.4976-1.6434z" fill="#fff" stroke="#000" stroke-width="1.9875"/>
<path d="m-83.101 7.5988c-6.1297 0-11.104 4.9975-11.104 11.155 0 0.2005 0.0058 0.3997 0.01626 0.5976 0.3095-5.8802 5.158-10.558 11.088-10.558 5.9302 0 10.779 4.6774 11.088 10.558 0.0104-0.1979 0.01626-0.3971 0.01626-0.5976 0-6.1577-4.9748-11.155-11.104-11.155z" fill-rule="evenodd" opacity=".1" stroke-width=".26499"/>
<rect transform="matrix(1.0656 0 0 1.0425 -140.81 -10.076)" x="2" y="-30" width="75.966" height="69.024" rx="3.9736" ry="3.9777" clip-path="url(#clipPath4156-4-1)" fill="url(#linearGradient4767)" opacity=".65"/>
</g>
</g>
</g>
</g>
</g>
</g>
</g>
</g>
</g>
</svg>
