<?xml version="1.0" encoding="UTF-8"?>
<!-- Created with Inkscape (http://www.inkscape.org/) -->
<svg version="1.1" viewBox="0 0 96 96" xmlns="http://www.w3.org/2000/svg" xmlns:cc="http://creativecommons.org/ns#" xmlns:dc="http://purl.org/dc/elements/1.1/" xmlns:rdf="http://www.w3.org/1999/02/22-rdf-syntax-ns#" xmlns:xlink="http://www.w3.org/1999/xlink">
<script xlink:href=""/>
<defs>
<linearGradient id="linearGradient12946">
<stop stop-color="#fff" offset="0"/>
<stop stop-color="#fff" stop-opacity="0" offset="1"/>
</linearGradient>
<linearGradient id="ButtonShadow-8" x1="45.448" x2="45.448" y1="92.54" y2="7.0165" gradientTransform="scale(1.0059 .99417)" gradientUnits="userSpaceOnUse">
<stop offset="0"/>
<stop stop-opacity=".58824" offset="1"/>
</linearGradient>
<linearGradient id="linearGradient4047" x1="45.448" x2="45.448" y1="92.54" y2="7.0165" gradientTransform="scale(1.0059 .99417)" gradientUnits="userSpaceOnUse" xlink:href="#ButtonShadow-8"/>
<linearGradient id="linearGradient4071" x1="6" x2="90" y1="47" y2="47" gradientTransform="matrix(1.1071 0 0 1.1071 -4.9939 -3.6207)" gradientUnits="userSpaceOnUse">
<stop stop-color="#b2babc" offset="0"/>
<stop stop-color="#fff" offset=".25"/>
<stop stop-color="#96a1a4" offset=".5"/>
<stop stop-color="#fbf9f9" offset=".75"/>
<stop stop-color="#b2b9bc" offset="1"/>
</linearGradient>
<linearGradient id="linearGradient4129" x1="1.5" x2="94.5" y1="88.172" y2="88.172" gradientTransform="translate(.14895 .41503)" gradientUnits="userSpaceOnUse">
<stop offset="0"/>
<stop stop-opacity=".58824" offset=".1"/>
<stop stop-opacity=".58824" offset=".9"/>
<stop offset="1"/>
</linearGradient>
<radialGradient id="radialGradient7462" cx="13.948" cy="44.893" r="43.199" gradientTransform="matrix(.97513 0 0 .049191 34.048 80.582)" gradientUnits="userSpaceOnUse" xlink:href="#linearGradient12946"/>
<radialGradient id="radialGradient7464" cx="13.948" cy="44.893" r="43.199" gradientTransform="matrix(.88833 0 0 .049191 31.96 -90.317)" gradientUnits="userSpaceOnUse" xlink:href="#linearGradient12946"/>
<linearGradient id="linearGradient4767" x1="2.7714" x2="50.528" y1="-28.642" y2="14.514" gradientUnits="userSpaceOnUse" xlink:href="#linearGradient12946"/>
<clipPath id="clipPath4156-4-1">
<path d="m27.046-55.695-14.214 13.321h0.06127l15.653 21.771 10.231-10.546c-0.2169-1.1522-11.311-23.67-11.732-24.546zm-17.399 16.313-14.888 14.062 21.229 17.515 10.385-10.577zm31.491 12.951-9.7413 9.7136 8.9448 12.458 7.7808-7.555zm-49.84 4.3788-13.754 12.982 26.283 13.846 0.06127-0.0617-0.12253-0.0617 9.8332-10.053-22.301-16.652zm38.015 7.4008-9.8025 9.7753 11.579 9.5594 7.6276-7.4008-8.6691-11.009zm20.187 5.674-7.3825 7.2158 6.1878 8.5418 5.8202-6.1365zm-32.195 6.3215-9.5575 9.4977 13.662 7.185 7.9339-7.6784zm23.312 2.3744-7.1068 6.9383 8.3628 6.9074 5.3608-5.674-0.06127-0.0925-0.0919 0.12335-6.4635-8.2026zm-8.7304 8.5418-7.5051 7.3392 10.354 5.4581c1.3975-1.321 5.6751-6.1229 5.8509-6.3215z" fill="#fff" opacity=".6"/>
</clipPath>
<filter id="filter3174-15-0" color-interpolation-filters="sRGB">
<feGaussianBlur stdDeviation="1.71"/>
</filter>
<linearGradient id="linearGradient3613-10-3" x1="48" x2="48" y1="20.221" y2="138.66" gradientUnits="userSpaceOnUse" xlink:href="#linearGradient12946"/>
<clipPath id="clipPath3613-75-6">
<rect x="6" y="6" width="84" height="84" rx="6" ry="6" fill="#fff"/>
</clipPath>
<filter id="filter3794-95-6" x="-.192" y="-.192" width="1.384" height="1.384" color-interpolation-filters="sRGB">
<feGaussianBlur stdDeviation="5.28"/>
</filter>
<filter id="filter3174-4-3-9" color-interpolation-filters="sRGB">
<feGaussianBlur stdDeviation="1.71"/>
</filter>
<linearGradient id="linearGradient3887" x1="25.5" x2="36.5" y1="18.5" y2="18.5" gradientTransform="matrix(1.5238 0 0 1.5238 25.133 24.001)" gradientUnits="userSpaceOnUse" xlink:href="#linearGradient12946"/>
<filter id="filter3174-6-0-3" color-interpolation-filters="sRGB">
<feGaussianBlur stdDeviation="1.71"/>
</filter>
<filter id="filter3174-7-2" color-interpolation-filters="sRGB">
<feGaussianBlur stdDeviation="1.71"/>
</filter>
<clipPath id="clipPath3613-8-2-3">
<rect x="6" y="6" width="84" height="84" rx="6" ry="6" fill="#fff"/>
</clipPath>
<filter id="filter3794-3-1" x="-.192" y="-.192" width="1.384" height="1.384" color-interpolation-filters="sRGB">
<feGaussianBlur stdDeviation="5.28"/>
</filter>
<filter id="filter3174-9-1" color-interpolation-filters="sRGB">
<feGaussianBlur stdDeviation="1.71"/>
</filter>
<filter id="filter3174-1-7-8" color-interpolation-filters="sRGB">
<feGaussianBlur stdDeviation="1.71"/>
</filter>
<linearGradient id="linearGradient5158-2" x1="26.812" x2="61.392" y1="26.721" y2="26.721" gradientTransform="matrix(1.105 0 0 1.1244 -13.648 38.898)" gradientUnits="userSpaceOnUse">
<stop stop-color="#3792c8" offset="0"/>
<stop stop-color="#3769c8" offset="1"/>
</linearGradient>
<linearGradient id="linearGradient5160" x1="52.564" x2="57.335" y1="24" y2="34.789" gradientTransform="matrix(.75691 0 0 .77024 -14.89 40.875)" gradientUnits="userSpaceOnUse">
<stop stop-color="#a5eaf6" offset="0"/>
<stop stop-color="#35d3ed" stop-opacity="0" offset="1"/>
</linearGradient>
<radialGradient id="radialGradient4799" cx="23" cy="12.811" r="4" fx="22.306" fy="9.1074" gradientTransform="matrix(1.0184 -3.1842 2.3318 .80482 -17.968 117)" gradientUnits="userSpaceOnUse">
<stop stop-color="#6b6b6b" offset="0"/>
<stop offset="1"/>
</radialGradient>
<linearGradient id="linearGradient4813" x1="-10.468" x2="35.451" y1="69.255" y2="69.255" gradientTransform="matrix(.56637 0 0 .56555 -49.793 -110.26)" gradientUnits="userSpaceOnUse">
<stop stop-color="#fecd74" offset="0"/>
<stop stop-color="#c2862f" stop-opacity="0" offset="1"/>
</linearGradient>
<filter id="filter5219" color-interpolation-filters="sRGB">
<feGaussianBlur stdDeviation="0.24162039"/>
</filter>
<linearGradient id="linearGradient5196" x1="46.47" x2="53.546" y1="44.889" y2="51.964" gradientTransform="translate(0 -3.2454)" gradientUnits="userSpaceOnUse">
<stop stop-color="#e1e0e0" offset="0"/>
<stop stop-color="#3d3d3d" offset=".5"/>
<stop stop-color="#828282" offset="1"/>
</linearGradient>
<radialGradient id="radialGradient5231" cx="-6.1195" cy="50.773" r="4.2072" gradientTransform="matrix(1 0 0 1.0227 0 -1.1539)" gradientUnits="userSpaceOnUse" xlink:href="#linearGradient12946"/>
</defs>
<metadata>
<rdf:RDF>
<cc:Work rdf:about="">
<dc:format>image/svg+xml</dc:format>
<dc:type rdf:resource="http://purl.org/dc/dcmitype/StillImage"/>
<dc:title/>
</cc:Work>
</rdf:RDF>
</metadata>
<g transform="translate(0,32)">
<g transform="matrix(.97513 0 0 .97661 33.899 9.6574)">
<g transform="matrix(1.1354 0 0 1.1337 -153.57 -46.221)">
<g transform="matrix(.90323 0 0 .90323 104.51 2.7703)">
<path d="m89.292 0.41503h-82.286c-3.7988 0-6.8571 3.0583-6.8571 6.8571v82.286c0 3.7989 3.0583 6.8571 6.8571 6.8571h82.286c3.7989 0 6.8571-3.0583 6.8571-6.8571v-82.286c0-3.7989-3.0583-6.8571-6.8571-6.8571z" opacity=".15"/>
<path d="m88.649 1.165h-81c-3.7395 0-6.75 3.0105-6.75 6.75v81c0 3.7395 3.0105 6.75 6.75 6.75h81c3.7395 0 6.75-3.0105 6.75-6.75v-81c0-3.7395-3.0105-6.75-6.75-6.75z" opacity=".15"/>
<path d="m88.006 1.915h-79.714c-3.6801 0-6.6429 2.9627-6.6429 6.6429v79.714c0 3.6801 2.9627 6.6429 6.6429 6.6429h79.714c3.6801 0 6.6429-2.9627 6.6429-6.6429v-79.714c0-3.6801-2.9627-6.6429-6.6429-6.6429z" fill="url(#linearGradient4071)"/>
<path d="m11.39 6.8022c-2.8565 0-5.1241 2.2884-5.1241 5.171v68.58c1.0972 1.6845 2.9688 2.8117 5.1241 2.8117h73.787c2.1553 0 4.0269-1.1272 5.1241-2.8117v-68.58c0-2.8826-2.2676-5.171-5.1241-5.171z" fill="#eef1f3" opacity=".77865"/>
<g transform="rotate(6.7539 -1109 335.2)">
<g display="none">
<rect x="5" y="7" width="86" height="85" rx="6" ry="6" fill="url(#linearGradient4047)" filter="url(#filter3174-15-0)" opacity=".9"/>
<rect x="15" y="15" width="66" height="66" rx="12" ry="12" clip-path="url(#clipPath3613-75-6)" fill="url(#linearGradient3613-10-3)" filter="url(#filter3794-95-6)" opacity=".5" stroke="#fff" stroke-linecap="round" stroke-width=".5"/>
</g>
<g transform="translate(-198.11 -.16135)" display="none">
<rect x="5" y="7" width="86" height="85" rx="6" ry="6" fill="url(#linearGradient4047)" filter="url(#filter3174-4-3-9)" opacity=".9"/>
</g>
<g transform="translate(123.28 -26.556)" display="none">
<path d="m11 7c-3.324 0-6 2.676-6 6v73c0 3.324 2.676 6 6 6h74c3.324 0 6-2.676 6-6v-73c0-3.324-2.676-6-6-6zm58.281 56.125c4.5704 2e-6 9.193 3.1002 11.5 7.75 1.4372 2.8968 1.6487 6.1373 0.5625 8.3438-0.71615 1.4547-2.1126 2.7309-3.5 3.25-1.4404 0.53891-3.5073 0.67005-5.1562 0.25-6.0128-1.5316-10.816-7.6152-10.469-13.188 0.12221-1.959 0.86924-3.5434 2.0938-4.6562 1.2258-1.1139 2.9274-1.75 4.9688-1.75z" fill="url(#linearGradient4047)" filter="url(#filter3174-6-0-3)" opacity=".9"/>
</g>
<g transform="translate(122.6 -25.998)" display="none">
<rect x="5" y="7" width="86" height="85" rx="6" ry="6" fill="url(#linearGradient4047)" filter="url(#filter3174-7-2)" opacity=".9"/>
<rect x="15" y="15" width="66" height="66" rx="12" ry="12" clip-path="url(#clipPath3613-8-2-3)" fill="url(#linearGradient3613-10-3)" filter="url(#filter3794-3-1)" opacity=".5" stroke="#fff" stroke-linecap="round" stroke-width=".5"/>
</g>
<g transform="translate(.72076 -34.704)" display="none">
<rect x="5" y="7" width="86" height="85" rx="6" ry="6" fill="url(#linearGradient4047)" filter="url(#filter3174-9-1)" opacity=".9"/>
</g>
<g transform="translate(-111.87 -61.357)" display="none">
<path d="m11 7c-3.324 0-6 2.676-6 6v73c0 3.324 2.676 6 6 6h74c3.324 0 6-2.676 6-6v-73c0-3.324-2.676-6-6-6zm58.281 56.125c4.5704 2e-6 9.193 3.1002 11.5 7.75 1.4372 2.8968 1.6487 6.1373 0.5625 8.3438-0.71615 1.4547-2.1126 2.7309-3.5 3.25-1.4404 0.53891-3.5073 0.67005-5.1562 0.25-6.0128-1.5316-10.816-7.6152-10.469-13.188 0.12221-1.959 0.86924-3.5434 2.0938-4.6562 1.2258-1.1139 2.9274-1.75 4.9688-1.75z" fill="url(#linearGradient4047)" filter="url(#filter3174-1-7-8)" opacity=".9"/>
</g>
<g transform="translate(-40.598 -137.79)">
<path d="m16.168 49.307c-0.35036-2.32e-4 -0.75183 0.12465-1.1805 0.32939-1.5118 1.1348-3.4926-1.0171-4.9917 0.32939-0.04467 0.0712-0.06478 0.1299-0.10118 0.19764-0.06381 0.1187-0.12882 0.22089-0.16864 0.32939-0.01665 0.0454-0.02105 0.08808-0.03373 0.13176-0.03016 0.10316-0.05822 0.20242-0.06746 0.29645-0.011532 0.11736-0.018011 0.22524 0 0.32939 0.01851 0.10705 0.05505 0.20217 0.10118 0.29645 0.02979 0.06089 0.06113 0.14166 0.10118 0.19764 0.01748 0.02437 0.04816 0.04241 0.06745 0.06588 0.04749 0.05735 0.07743 0.11236 0.13491 0.1647 0.0281 0.02643 0.07078 0.04064 0.10118 0.06588 0.17217 0.13934 0.37948 0.25469 0.6071 0.36233 0.20434 0.09663 0.41148 0.18592 0.64082 0.26352 0.10932 0.0373 0.22529 0.06486 0.33728 0.09882 0.15899 0.04791 0.31295 0.12181 0.47219 0.1647 0.54583 0.14796 1.0831 0.2572 1.484 0.39527 1.936 0.43846 2.6404 2.0607 3.4739 3.3598 0.2076 0.04736 0.40122 0.06766 0.57337 0.06588 0.07032-4.74e-4 0.13768-0.02502 0.20237-0.03294 0.02288-0.0028 0.04527 0.0037 0.06746 0 0.16335-0.02536 0.2763-0.09561 0.40473-0.1647 0.10746-0.0578 0.21863-0.11392 0.30355-0.19764 0.10357-0.10209 0.19692-0.22879 0.26982-0.36233 0.0047-0.0086-0.0046-0.02416 0-0.03294 0.05979-0.11882 0.12949-0.25889 0.16864-0.39527 0.01014-0.03419 0.02483-0.06371 0.03373-0.09882 0.04253-0.16786 0.05083-0.34355 0.06745-0.52703 0.01197-0.14808 0.03621-0.30843 0.03373-0.46115-5.52e-4 -0.04413 0.0016-0.08748 0-0.13176-0.0063-0.15241-0.01563-0.31001-0.03373-0.46115-0.0056-0.04654-0.02713-0.08562-0.03373-0.13176-0.06504-0.45532-0.16679-0.90632-0.30355-1.2517-0.40177-1.4765-1.2137-3.1941-2.7319-3.1951zm14.537 0.49409c-0.37938 0.30612-0.57212 0.66305-0.67455 1.0541-0.05186 0.19794-0.096 0.41336-0.10118 0.62585-0.0069 0.23417 0.03931 0.4793 0.06745 0.72467 0.05683 0.45436 0.13138 0.92191 0.20237 1.3835-0.0026 0.01043 0.0027 0.0226 0 0.03294 0.18132 1.2009 0.18219 2.3528-1.2479 3.0963-2.2826 1.646-5.6368 0.22947-7.4875 2.734-1.1004 1.4954-2.4001 0.96757-3.6426 0.46115-0.10458-0.04263-0.19929-0.0904-0.30355-0.13176-0.21117-0.08329-0.4343-0.16962-0.64082-0.23058-0.31636-0.09338-0.61187-0.1523-0.91065-0.13176-0.24691 0.01697-0.47843 0.08941-0.70828 0.23058 0.09831 0.11936 0.18816 0.22041 0.30355 0.32939 0.10731 0.10276 0.21752 0.20104 0.33728 0.29645 0.20712 0.16419 0.44176 0.31143 0.67455 0.46115 0.03473 0.02237 0.06606 0.04371 0.10118 0.06588 0.0347 0.02187 0.06614 0.04418 0.10118 0.06588 0.51745 0.321 1.0691 0.62046 1.5852 0.95524 0.06748 0.04392 0.13634 0.08665 0.20236 0.13176 0.06017 0.04097 0.10991 0.08965 0.16864 0.13176 0.20256 0.14557 0.39454 0.33054 0.57337 0.49409 0.01756 0.0162 0.05019 0.01653 0.06746 0.03294 0.12132 0.11415 0.23171 0.20371 0.33728 0.32939 0.0255 0.03041 0.043 0.06766 0.06746 0.09882 0.07583 0.09669 0.13747 0.1919 0.20236 0.29646 0.02054 0.03254 0.04806 0.06546 0.06746 0.09882 0.06304 0.1102 0.11911 0.24252 0.16864 0.36233 0.03987 0.09536 0.07075 0.19443 0.10118 0.29645 0.0197 0.06636 0.05202 0.12827 0.06746 0.19764 0.0024 0.01074-0.0023 0.02212 0 0.03294 0.03486 0.16441 0.05831 0.34455 0.06745 0.52703 0.0097 0.19372-0.01126 0.37671-0.03373 0.59291 0.39812 2.6464-1.7152 4.7505-2.1923 7.1478-0.0021 0.0107 0.0021 0.02223 0 0.03294-0.09118 0.4735-0.10316 0.94457-0.03373 1.4493 0.07794 0.28574 0.17069 0.56482 0.30355 0.85642 0.05476 0.12109 0.10811 0.24065 0.16864 0.36233 0.23311 0.46793 0.5072 0.94805 0.74201 1.4164 0.03303 0.06597 0.06962 0.13181 0.10118 0.19764 0.0154 0.03212 0.01874 0.06674 0.03373 0.09882 0.12795 0.27397 0.25432 0.55395 0.33728 0.82348 0.0915 0.29964 0.13375 0.59914 0.13491 0.88936 1.72e-4 0.04279 0.0023 0.08921 0 0.13176-0.01382 0.27706-0.06987 0.55829-0.20237 0.82348-0.04161 0.08328-0.11306 0.14875-0.16864 0.23058-0.03577 0.0524-0.05934 0.11293-0.10118 0.1647-0.06793 0.08496-0.15078 0.14747-0.23609 0.23058-0.04679 0.04566-0.08266 0.08667-0.13491 0.13176-0.14377 0.12542-0.28278 0.24191-0.47219 0.36233-1.152 1.0273-0.88567 1.9791-0.16864 1.5811 0.1195-0.06634 0.23104-0.14931 0.371-0.29645 0.13996-0.14715 0.28702-0.35318 0.43846-0.59291 0.73727-2.2847 4.4772-3.8015 5.1266-1.0541 0.0433 0.18316 0.05313 0.40388 0.06745 0.62585 0.23609 0.83232-0.08073 2.0635-0.23609 3.1622-0.15537 1.0987-0.13662 2.0679 0.70828 2.3716 0.24144-2.7773 0.3546-6.2681 3.0355-7.8725 0.17873-0.10696 0.3712-0.20705 0.57337-0.29646 2.5279-1.3196 4.0852 2.0947 6.442 1.8117 0.15712-0.01887 0.30738-0.07756 0.47219-0.13176 3.0296-1.2727 4.0361 1.9691 6.071 3.2281 1.7285 0.06736 2.3942-1.022 2.6982-2.5034 0.04343-0.21163 0.07028-0.43446 0.10118-0.65879 0.24719-1.7946 0.14033-3.926 0.77574-5.1715 2.1278-2.0173 2.4159-4.7543 3.0018-7.4772 1.9657-3.0916 5.9345-0.30829 8.297-1.5482-0.03868-0.35066-0.1423-0.64664-0.30355-0.85642-0.0095-0.01227-0.02385-0.0211-0.03373-0.03294-0.07746-0.09439-0.17056-0.16129-0.26982-0.23058-0.01256-0.0089-0.02084-0.02447-0.03373-0.03294-0.03006-0.01951-0.06942-0.0154-0.10118-0.03294-0.0896-0.05031-0.16742-0.09603-0.26982-0.13176-0.61074-0.2131-1.4244-0.20161-2.2935-0.13176-0.57301 0.04605-1.1565 0.10839-1.7201 0.13176-0.0347 0.0014-0.06671-0.0011-0.10118 0-0.33221 0.01095-0.6446-0.0011-0.94437-0.03294-0.03344-0.0035-0.06826 0.0041-0.10118 0-0.15191-0.0195-0.29977-0.02949-0.43846-0.06588-0.15957-0.04186-0.33404-0.0958-0.47219-0.1647-2.3316-0.17754-5.0784-2.234-4.3509-4.6444 0.0028-0.0091-0.0029-0.02383 0-0.03294 0.07347-0.23264 0.19544-0.45409 0.33728-0.69173 0.09503-0.16096 0.23225-0.38073 0.40473-0.59291 0.06583-0.08047 0.16298-0.17761 0.23609-0.26352 0.08346-0.09834 0.14587-0.19231 0.23609-0.29646 0.39089-0.45026 0.80786-0.92844 1.1805-1.4164 0.18485-0.24208 0.33646-0.46216 0.47219-0.69173 0.13369-0.22611 0.24601-0.45873 0.30355-0.65879 0.0113-0.03847 0.02582-0.06159 0.03373-0.09882 0.01362-0.06156 0.03001-0.10686 0.03373-0.1647 0.0026-0.04507 0.0039-0.08919 0-0.13176-0.0037-0.04352-0.02276-0.09107-0.03373-0.13176-0.02174-0.08067-0.04832-0.16234-0.10118-0.23058-0.03299-0.04173-0.0891-0.09524-0.13491-0.13176-0.02837-0.02086-0.06809-0.04696-0.10118-0.06588-0.17376-0.0993-0.42398-0.1588-0.74201-0.19764-1.9913 1.5345-3.0059 4.3525-5.9698 4.5127-2.646 1.1794-5.8331 0.89283-7.6562-1.5811-2.4988-1.6392-1.0831-4.6953-2.2935-6.8184-0.09475-0.29181-0.33145-0.23642-0.53964-0.26352zm6.8804 1.9434c-0.42486 0.0032-0.84315 0.223-1.2816 0.65879-0.2217 0.22033-0.36535 0.47247-0.47219 0.72467-0.06526 0.15405-0.1088 0.30508-0.13491 0.46115-0.0564 0.3155-0.01836 0.64485 0.06745 0.9223 0.03103 0.09245 0.05594 0.1801 0.10118 0.26352 0.03759 0.0717 0.08738 0.13414 0.13491 0.19764 0.01876 0.02453 0.04728 0.04273 0.06746 0.06588 0.08903 0.10432 0.18721 0.19171 0.30355 0.26352 0.0343 0.02128 0.06471 0.04781 0.10118 0.06588 0.0712 0.03451 0.15691 0.04481 0.23609 0.06588 0.09123 0.02486 0.16899 0.06083 0.26982 0.06588 0.05734 0.0028 0.1084 0.0041 0.16864 0 0.10297-0.0057 0.19228-0.0052 0.30355-0.03294 0.34143-0.08517 0.97795 0.02734 1.4166 0.26351 0.76371 0.41127 1.2204 0.52443 1.484 0.32939 0.08789-0.06501 0.15181-0.16552 0.20237-0.29645 0.03664-0.0949 0.05665-0.19152 0.06746-0.29645 0.0139-0.10952 0.01212-0.20919 0-0.32939-0.01104-0.09247-0.04125-0.19803-0.06746-0.29645-0.0058-0.02247-0.02713-0.04312-0.03373-0.06588-0.03673-0.1267-0.0744-0.26065-0.13491-0.39527-0.21121-0.46982-0.55857-1.0124-1.0456-1.5482-0.664-0.73044-1.2076-1.0911-1.7538-1.087zm-24.857 10.87c-0.53042-0.02045-1.0442 0.02806-1.1805 0.23058-0.08467 0.12584-0.13973 0.21863-0.20236 0.32939-0.0085 0.01495-0.02561 0.01825-0.03373 0.03294-0.05617 0.10186-0.09645 0.20617-0.13491 0.29645-0.03357 0.07997-0.0468 0.15858-0.06746 0.23058-0.03091 0.10517-0.06188 0.20612-0.06746 0.29645-0.0071 0.11576 0.0045 0.23252 0.03373 0.32939 0.02967 0.09851 0.07382 0.17809 0.13491 0.26351 0.04814 0.06731 0.10444 0.13486 0.16864 0.19764 0.05747 0.05717 0.10049 0.14173 0.16864 0.19764 0.03254 0.02613 0.06665 0.03962 0.10118 0.06588 0.22215 0.17258 0.5037 0.34611 0.77574 0.55997 0.3482 0.27373 0.72483 0.33884 1.113 0.29646 0.38818-0.04238 0.75922-0.21001 1.113-0.39527 0.70759-0.37052 1.2927-0.85498 1.4166-0.7576-0.1823-0.30293-0.34359-0.55577-0.50591-0.7576-0.47221-0.62311-0.8764-0.89146-1.5515-1.2188-0.19978-0.09687-0.75122-0.17718-1.2816-0.19764zm1.6864 6.1926c-0.12652 0.02048-0.22524 0.06644-0.30355 0.13176-7e-3 0.0063 0.0067 0.02628 0 0.03294-0.05522 0.05521-0.10292 0.12301-0.13491 0.19764-0.0406 0.09185-0.05911 0.18188-0.06745 0.29646-5e-3 0.06747-0.0045 0.12497 0 0.19764 0.0063 0.14672 0.02793 0.30404 0.06745 0.46115 0.1692 0.67264 0.31664 0.8237 0.50591 0.79054 0.09463-0.01658 0.18707-0.08508 0.30355-0.1647 0.11648-0.07961 0.25518-0.16354 0.40473-0.23058 0.83881-0.37602 0.48875-0.45142 0-1.614-0.32112-0.10087-0.58455-0.12976-0.77574-0.09882zm34.132 3.8539c-0.28498 0.05471 0.17243 0.58455 1.3491 1.5811 0.9892 0.83779 2.0578 1.8526 2.3609 2.2069 0.77483 0.9056 1.6467 0.692 1.7538-0.39527 0.02179-0.22122 0.03016-0.38677 0-0.52703-0.01653-0.07693-0.05673-0.13313-0.10118-0.19764-0.03482-0.05051-0.07822-0.11718-0.13491-0.1647-0.0098-0.0082-0.02323-0.02476-0.03373-0.03294-0.21512-0.16749-0.56497-0.30642-1.1805-0.55997-0.32265-0.13291-0.68356-0.31741-1.0456-0.49409-0.01405-0.0069-0.01969-0.02606-0.03373-0.03294-0.10329-0.0505-0.20268-0.08151-0.30355-0.13176-0.17719-0.09041-0.2782-0.17536-0.43846-0.26352-0.29562-0.15474-0.55104-0.26649-0.74201-0.39527-0.55664-0.37542-1.2107-0.6389-1.4503-0.59291z" fill="#b7510e"/>
<g transform="translate(.38247 -2.4804)">
<path d="m16.829 51.033c-0.32462-2.2e-4 -0.69091 0.09457-1.0881 0.28884-1.4007 1.0766-3.2471-0.96451-4.6361 0.31291-1.4584 2.38 1.9342 2.6823 3.4061 3.2013 1.7938 0.41597 2.4682 1.9448 3.2405 3.1772 2.3122 0.54008 2.1666-2.504 1.6084-3.9475-0.37225-1.4008-1.1242-3.0319-2.5309-3.0328zm13.482 0.45733c-2.0451 1.6897 1.24 5.0421-1.6321 6.5711-2.1149 1.5615-5.2393 0.19943-6.9541 2.5755-1.7668 2.4586-4.044-0.87926-5.7478 0.19256 1.4574 1.8119 5.1348 2.2302 4.8017 5.512 0.44331 3.0174-2.4734 5.2665-2.0815 8.1838 0.57767 2.1686 3.2564 4.5665 0.47307 6.3785-1.4231 1.2994-0.50749 2.4693 0.61499 0.64989 0.72865-2.312 4.5894-3.7784 4.8017-0.40919 0.43749 1.5792-1.1399 4.671 0.42576 5.2472 0.23861-2.8106 0.36166-6.3934 3.3588-7.7505 2.4984-1.3354 3.9669 2.4355 6.4101 1.6127 2.807-1.2074 3.7205 1.8625 5.6059 3.0569 3.6606 0.14606 2.1577-5.5557 3.3351-7.919 1.9715-1.9138 2.2246-4.4932 2.7675-7.0766 1.8213-2.933 5.4984-0.31607 7.6874-1.4923-0.28783-2.6716-4.638-0.51495-6.552-1.4923-2.3787-0.18546-5.2399-2.525-3.7373-5.1028 0.7257-1.2584 4.4857-4.4631 1.6794-4.814-1.845 1.4558-2.8124 4.1325-5.5586 4.2844-2.4516 1.1189-5.4069 0.8547-7.096-1.4923-2.3153-1.5552-0.98368-4.4364-2.1052-6.4507-0.08779-0.27684-0.30383-0.23907-0.49672-0.26477zm6.3628 1.8534c-0.39365 0.0031-0.77639 0.21238-1.1827 0.62582-1.2166 1.238-0.46659 3.2794 1.0644 2.8884 0.31634-0.08079 0.89455 0.04068 1.3009 0.26477 0.94348 0.52024 1.3738 0.52097 1.5611 0.02407 0.25774-0.68348-0.14575-1.68-1.1117-2.768-0.61523-0.69297-1.126-1.0389-1.6321-1.035zm-23.038 10.302c-0.49146-0.01941-0.96178 0.02446-1.0881 0.21663-1.0615 1.6153-0.18708 1.8497 0.80422 2.6477 1.2905 1.0388 3.1529-0.97906 3.3824-0.79431-0.66934-1.1388-1.082-1.4634-1.9159-1.8775-0.1851-0.09189-0.69121-0.17314-1.1827-0.19256zm1.5848 5.8731c-0.53141 0.08812-0.56947 0.66667-0.42576 1.2516 0.31355 1.2763 0.58113 0.63952 1.1354 0.38512 0.77719-0.35674 0.45284-0.4375 0-1.5405-0.29753-0.09572-0.53247-0.12565-0.7096-0.09628zm31.601 3.6586c-0.26404 0.05188 0.18705 0.57097 1.2773 1.5164 0.91653 0.79482 1.8952 1.7338 2.1761 2.07 0.71791 0.85914 1.5329 0.67046 1.6321-0.36105 0.07205-0.74908-0.0067-0.85425-1.3482-1.4201-0.79198-0.33404-1.8732-0.89548-2.389-1.2516-0.51575-0.35617-1.1263-0.59723-1.3482-0.55361z" fill="url(#linearGradient5158-2)"/>
<path d="m11.01 51.827c-1.1609 2.2034 2.0697 2.5041 3.5007 3.0087 1.7938 0.41597 2.4682 1.9448 3.2405 3.1772 1.7842 0.41676 2.0953-1.2987 1.8923-2.768-0.18287 0.87395-0.7362 1.4976-1.8923 1.2276-0.77232-1.2325-1.4468-2.7613-3.2405-3.1772-0.99173-0.3497-2.8364-0.61351-3.5007-1.4683zm18.663 0.67396c-0.19964 0.79168 0.03261 1.7189 0.16558 2.6236 0.20454-0.8026-0.0303-1.7298-0.16558-2.6236zm5.393 2.1422c-0.5031 1.1821 0.21084 2.5412 1.4902 2.2144 0.31634-0.08079 0.89455 0.04068 1.3009 0.26477 0.94348 0.52024 1.3738 0.52097 1.5611 0.02407 0.13581-0.36014 0.07499-0.79822-0.14192-1.2998-0.23628 0.23758-0.66443 0.15142-1.4192-0.26477-0.40639-0.22408-0.9846-0.34556-1.3009-0.26477-0.69786 0.17824-1.2291-0.14787-1.4902-0.67396zm11.188 0.98686c-0.63106 1.0766-1.9627 2.3587-2.3653 3.0569-0.45852 0.78662-0.52394 1.5507-0.3075 2.2385 0.06812-0.22891 0.17093-0.46375 0.3075-0.69803 0.64601-1.1203 3.6829-3.7786 2.3653-4.5974zm-29.614 4.9825c-0.22877 0.0161-0.44933 0.08265-0.6623 0.21663 1.3663 1.6986 4.6905 2.1776 4.8253 4.9343 0.02267-0.31175 0.02455-0.63473-0.02366-0.9628 0.20095-1.9796-1.0626-2.9007-2.4127-3.7308-0.59254-0.24726-1.1831-0.49561-1.7267-0.45733zm-4.2813 3.5623c-0.73442 1.3232 0.07369 1.5944 0.99345 2.3348 1.2905 1.0388 3.1529-0.97906 3.3824-0.79431-0.3037-0.51673-0.56654-0.84134-0.82787-1.1072-0.71637 0.4599-1.731 1.024-2.5546 0.36105-0.38474-0.3097-0.75026-0.5407-0.99345-0.79431zm38.744 1.2998c-1.0485 0.08621-2.1596 0.23018-3.004 0.02407-0.61419 0.19124-1.1656 0.56257-1.6084 1.2757-0.54282 2.5833-0.79595 5.1627-2.7675 7.0766-1.1775 2.3633 0.32544 8.0651-3.3351 7.919-1.8854-1.1943-2.7988-4.2643-5.6059-3.0569-2.4432 0.82278-3.9117-2.9481-6.4101-1.6127-2.9971 1.3571-3.1202 4.9399-3.3588 7.7505-0.34345-0.12641-0.54324-0.37205-0.63864-0.69803-0.14396 1.0424-0.14419 1.9504 0.63864 2.2385 0.23861-2.8106 0.36166-6.3934 3.3588-7.7505 2.4984-1.3354 3.9669 2.4355 6.4101 1.6127 2.807-1.2074 3.7205 1.8625 5.6059 3.0569 3.6606 0.14606 2.1577-5.5557 3.3351-7.919 1.9715-1.9138 2.2246-4.4932 2.7675-7.0766 1.8213-2.933 5.4984-0.31607 7.6874-1.4923-0.07539-0.69981-0.43006-1.0713-0.94614-1.2516-0.65869 0.08546-1.388-0.0019-2.1288-0.09628zm-35.173 4.14c-0.4711 0.21624-0.73229 0.68905-0.99345 0.04814-0.24176 0.22346-0.25178 0.66005-0.14192 1.1072 0.31355 1.2763 0.58113 0.63952 1.1354 0.38512 0.77719-0.35674 0.45284-0.4375 0-1.5405zm2.8148 3.5142c-0.08491 0.45012-0.11178 0.91617-0.0473 1.3961 0.31227 1.1723 1.2393 2.4089 1.5848 3.5864 0.5857-1.5439-1.031-3.3241-1.5375-4.9825zm28.077 0.04814c-0.26404 0.05188 0.18705 0.57097 1.2773 1.5164 0.91653 0.79482 1.8952 1.7338 2.1761 2.07 0.71791 0.85914 1.5329 0.67046 1.6321-0.36105 0.04228-0.43953 0.02601-0.64722-0.26019-0.86652-0.3182 0.36071-0.86712 0.29118-1.3719-0.31291-0.11705-0.14008-0.40525-0.42674-0.7096-0.7221-0.54864-0.27466-1.077-0.55025-1.3956-0.77024-0.51575-0.35617-1.1263-0.59723-1.3482-0.55361zm-24.032 4.4529c-0.82432 0.03844-1.762 0.55427-2.389 1.2998 0.0033 0.70099-0.30582 1.3721-1.23 1.9737-1.4231 1.2994-0.50749 2.4693 0.61499 0.64989 0.72865-2.312 4.5894-3.7784 4.8017-0.40919 0.07562-0.57334 0.11919-1.1102 0-1.5405-0.09286-1.474-0.87592-2.0167-1.7977-1.9737z" fill="#241c1c" opacity=".3"/>
<path d="m29.932 59.361c-2.3835 0.47051-4.4878 1.7722-6.6192 2.8855-0.983 0.72262-0.99784 2.0824-0.93603 3.1947-0.10462 1.1086-0.48535 2.2292-0.1227 3.3339 0.28162 0.8284-0.14562 1.5274-0.57222 2.1122-0.02592 0.94888 1.287 1.3573 1.5419 0.33181 0.86748-1.3705 1.3021-2.9829 2.2715-4.2933 0.6439-1.0829 1.4316-2.3687 2.7695-2.5691 1.4114-0.13208 2.7673 0.43372 4.0485 0.95276 1.0485 0.39962 1.6732-0.5155 2.1986-1.1963 0.97312-0.49407 1.9468 0.83883 2.8862 0.18449 0.74758-0.47691 1.8045-0.90935 2.0785-1.7952-0.27095-1.061-1.5655-0.22216-2.3026-0.36122-1.2292 0.0018-2.4599-0.05035-3.6872-0.08385-1.0443-0.13913-1.4607-1.2024-1.9598-1.989-0.34824-0.50584-0.96509-0.96009-1.595-0.70752z" fill="url(#linearGradient5160)" fill-rule="evenodd" opacity=".6"/>
</g>
<ellipse transform="translate(34.996 19.894)" cx="-10.422" cy="40.924" rx="1.243" ry="1.5299" fill="#fff"/>
<ellipse transform="matrix(.62222 0 0 .31111 22.366 37.188)" cx="-10.422" cy="40.924" rx="1.243" ry="1.5299" fill="#fff"/>
<ellipse transform="matrix(.50256 0 0 .20417 22.398 41.014)" cx="-10.422" cy="40.924" rx="1.243" ry="1.5299" fill="#fff"/>
<path d="m42.876 61.648c-5.5714 3.838-14.929 3.2196-14.929 3.2196 5.3842-4.1992 3.2874-9.3732 6.1374-13.792 1.4417 5.8681 4.1813 8.5145 8.7913 10.573z" color="#000000" fill="#3465a4" fill-rule="evenodd" stroke="#729fcf" stroke-width="1px"/>
<path d="m48.364 47.423c3.1147 4.6461 1.3033 9.7638-4.3403 13.651-5.5713 3.838-14.929 3.2196-14.929 3.2196 5.3842-4.1992 3.9364-10.984 6.7863-15.403 3.7564-5.8245 10.251-4.7963 12.482-1.4678z" color="#000000" fill="url(#radialGradient4799)" fill-rule="evenodd" stroke="#2e3436" stroke-width="1.6"/>
<rect transform="matrix(.69084 -.72301 .75439 .65642 0 0)" x="-6.1451" y="63.478" width="45.919" height="7.692" ry="3.846" fill="#c17d11" stroke="#8f5902" stroke-dashoffset="1.96" stroke-linecap="round" stroke-width="1.4008"/>
<rect transform="matrix(-.69573 .7183 -.53773 -.84312 0 -3.2454)" x="-55.722" y="-73.271" width="26.007" height="4.3502" ry="2.1751" fill="url(#linearGradient4813)" filter="url(#filter5219)"/>
<path d="m52.688 36.727-8.5 8.9062c-1.472 1.5405-1.3574 3.9139 0.25 5.3125s4.0905 1.2592 5.5625-0.28125l9.1562-9.5625c-1.5963 1.0014-3.7723 0.88893-5.25-0.375-1.2238-1.0468-1.6305-2.5966-1.2188-4z" fill="url(#linearGradient5196)" stroke="#48453f" stroke-dashoffset="1.96" stroke-linecap="round" stroke-width="1.4"/>
<ellipse transform="matrix(.64734 .27808 -.37716 .87797 62.218 7.903)" cx="-6.1195" cy="50.773" rx="4.2072" ry="4.3028" fill="url(#radialGradient5231)" opacity=".60891"/>
<ellipse transform="matrix(.80769 0 0 .65625 35.048 32.193)" cx="-10.422" cy="40.924" rx="1.243" ry="1.5299" fill="#fff"/>
<ellipse transform="matrix(.24475 .18647 -.60604 .79543 65.791 18.448)" cx="-10.422" cy="40.924" rx="1.243" ry="1.5299" fill="#fff" opacity=".78218"/>
<ellipse transform="matrix(.30469 .27282 -.75447 1.1637 72.442 5.6142)" cx="-10.422" cy="40.924" rx="1.243" ry="1.5299" fill="#fff" opacity=".85149"/>
<ellipse transform="matrix(.24475 .18647 -.60604 .79543 66.652 19.978)" cx="-10.422" cy="40.924" rx="1.243" ry="1.5299" fill="#fff" opacity=".78218"/>
<ellipse transform="matrix(1.045 -.58248 -1.9996 2.1634 141.73 -51.045)" cx="-10.422" cy="40.924" rx="1.243" ry="1.5299" fill="#fff"/>
<ellipse transform="matrix(.65385 0 0 .53125 59.356 18.281)" cx="-10.422" cy="40.924" rx="1.243" ry="1.5299" fill="#fff"/>
</g>
</g>
<path d="m9.974 5.1445c-3.1166 0-5.668 2.5395-5.668 5.646v69.278c0 3.1065 2.5513 5.646 5.668 5.646h76.792c3.1166 0 5.668-2.5395 5.668-5.646v-69.278c0-3.1065-2.5513-5.646-5.668-5.646zm0 2.3194h76.792c1.8881 0 3.352 1.4801 3.352 3.3266v69.278c0 1.8465-1.4639 3.3266-3.352 3.3266h-76.792c-1.8881 0-3.352-1.4801-3.352-3.3266v-69.278c0-1.8465 1.4639-3.3266 3.352-3.3266z" color="#000000" fill="#241f1f" fill-opacity=".63265" style="text-decoration-line:none;text-indent:0;text-transform:none"/>
<path d="m1.649 82.259v6c0 3.6801 2.9761 6.6562 6.6562 6.6562h79.687c3.6801 0 6.6563-2.9761 6.6563-6.6562v-6c0 3.6801-2.9761 6.6562-6.6563 6.6562h-79.687c-3.6801 0-6.6562-2.9761-6.6562-6.6562z" fill="url(#linearGradient4129)" opacity=".65818"/>
<rect x="5.524" y="80.665" width="84.25" height="4.25" rx="0" ry="4.25" fill="url(#radialGradient7462)" opacity=".55"/>
<rect transform="rotate(90)" x="5.975" y="-90.234" width="76.75" height="4.25" rx="0" ry="4.25" fill="url(#radialGradient7464)" opacity=".669"/>
<rect transform="matrix(1.0692 0 0 1.0477 4.4442 38.894)" x="2" y="-30" width="75.966" height="69.024" rx="3.957" ry="3.957" clip-path="url(#clipPath4156-4-1)" fill="url(#linearGradient4767)" opacity=".663"/>
</g>
</g>
</g>
</g>
</svg>
