<?xml version="1.0" encoding="UTF-8"?>
<!-- Created with Inkscape (http://www.inkscape.org/) -->
<svg version="1.1" viewBox="0 0 22 264" xmlns="http://www.w3.org/2000/svg" xmlns:cc="http://creativecommons.org/ns#" xmlns:dc="http://purl.org/dc/elements/1.1/" xmlns:rdf="http://www.w3.org/1999/02/22-rdf-syntax-ns#" xmlns:xlink="http://www.w3.org/1999/xlink">
<metadata>
<rdf:RDF>
<cc:Work rdf:about="">
<dc:format>image/svg+xml</dc:format>
<dc:type rdf:resource="http://purl.org/dc/dcmitype/StillImage"/>
<dc:title/>
</cc:Work>
</rdf:RDF>
</metadata>
<g transform="translate(3316.4 -2094.7)">
<rect transform="translate(-3316.4 2094.7)" x=".000347" y=".00031277" width="22" height="22" color="#000000" fill="#fff" opacity=".001"/>
<g id="g3815">
<path d="m-3305.4 2097.7c-2.0473 0-4.094 0.7816-5.6562 2.3437l1.4062 1.4063c2.3431-2.3431 6.1569-2.3431 8.5 0l1.4063-1.4063c-1.5619-1.5621-3.6089-2.3437-5.6563-2.3437zm-4.25 12.25-1.4062 1.4062c1.562 1.5622 3.609 2.3438 5.6562 2.3438 2.0474 0 4.0942-0.7816 5.6563-2.3438l-1.4063-1.4062c-2.3431 2.3431-6.1569 2.3431-8.5 0z" color="#000000" fill="#434a54" fill-opacity=".67451"/>
</g>
<g transform="translate(0 22)">
<rect transform="translate(-3316.4 2094.7)" x=".000347" y=".00031277" width="22" height="22" color="#000000" fill="#fff" opacity=".001"/>
<use transform="matrix(.96593 .25882 -.25882 .96593 432.37 927.26)" width="1" height="1" xlink:href="#g3815"/>
</g>
<g transform="translate(0 44)">
<rect transform="translate(-3316.4 2094.7)" x=".000347" y=".00031277" width="22" height="22" color="#000000" fill="#fff" opacity=".001"/>
<use transform="matrix(.86603 .5 -.5 .86603 610.02 1934.8)" width="1" height="1" xlink:href="#g3815"/>
</g>
<g transform="translate(0 66)">
<rect transform="translate(-3316.4 2094.7)" x=".000347" y=".00031277" width="22" height="22" color="#000000" fill="#fff" opacity=".001"/>
<use transform="matrix(.70711 .70711 -.70711 .70711 520.83 2954)" width="1" height="1" xlink:href="#g3815"/>
</g>
<g transform="translate(0 88)">
<rect transform="translate(-3316.4 2094.7)" x=".000347" y=".00031277" width="22" height="22" color="#000000" fill="#fff" opacity=".001"/>
<use transform="matrix(.5 .86603 -.86603 .5 170.9 3915.4)" width="1" height="1" xlink:href="#g3815"/>
</g>
<g transform="translate(0 110)">
<rect transform="translate(-3316.4 2094.7)" x=".000347" y=".00031277" width="22" height="22" color="#000000" fill="#fff" opacity=".001"/>
<use transform="matrix(.25882 .96593 -.96593 .25882 -415.94 4753.5)" width="1" height="1" xlink:href="#g3815"/>
</g>
<g transform="translate(0 132)">
<rect transform="translate(-3316.4 2094.7)" x=".000347" y=".00031277" width="22" height="22" color="#000000" fill="#fff" opacity=".001"/>
<use transform="matrix(0 1 -1 0 -1199.7 5411.1)" width="1" height="1" xlink:href="#g3815"/>
</g>
<g transform="translate(0 154)">
<rect transform="translate(-3316.4 2094.7)" x=".000347" y=".00031277" width="22" height="22" color="#000000" fill="#fff" opacity=".001"/>
<use transform="matrix(-.25882 .96593 -.96593 -.25882 -2127 5843.5)" width="1" height="1" xlink:href="#g3815"/>
</g>
<g transform="translate(0 176)">
<rect transform="translate(-3316.4 2094.7)" x=".000347" y=".00031277" width="22" height="22" color="#000000" fill="#fff" opacity=".001"/>
<use transform="matrix(-.5 .86603 -.86603 -.5 -3134.5 6021.2)" width="1" height="1" xlink:href="#g3815"/>
</g>
<g transform="translate(0 198)">
<rect transform="translate(-3316.4 2094.7)" x=".000347" y=".00031277" width="22" height="22" color="#000000" fill="#fff" opacity=".001"/>
<use transform="matrix(-.70711 .70711 -.70711 -.70711 -4153.7 5932)" width="1" height="1" xlink:href="#g3815"/>
</g>
<g transform="translate(0 220)">
<rect transform="translate(-3316.4 2094.7)" x=".000347" y=".00031277" width="22" height="22" color="#000000" fill="#fff" opacity=".001"/>
<use transform="matrix(-.86603 .5 -.5 -.86603 -5115.1 5582)" width="1" height="1" xlink:href="#g3815"/>
</g>
<g transform="translate(0 242)">
<rect transform="translate(-3316.4 2094.7)" x=".000347" y=".00031277" width="22" height="22" color="#000000" fill="#fff" opacity=".001"/>
<use transform="matrix(-.96593 .25882 -.25882 -.96593 -5953.2 4995.2)" width="1" height="1" xlink:href="#g3815"/>
</g>
</g>
</svg>
