<?xml version="1.0" encoding="UTF-8"?>
<!-- Created with Inkscape (http://www.inkscape.org/) -->
<svg version="1.0" viewBox="0 0 96 96" xmlns="http://www.w3.org/2000/svg" xmlns:cc="http://creativecommons.org/ns#" xmlns:dc="http://purl.org/dc/elements/1.1/" xmlns:rdf="http://www.w3.org/1999/02/22-rdf-syntax-ns#" xmlns:xlink="http://www.w3.org/1999/xlink">
<defs>
<linearGradient id="ButtonShadow" x1="45.448" x2="45.448" y1="92.54" y2="7.0165" gradientTransform="scale(1.0059 .99417)" gradientUnits="userSpaceOnUse">
<stop offset="0"/>
<stop stop-opacity=".58824" offset="1"/>
</linearGradient>
<filter id="filter3174" color-interpolation-filters="sRGB">
<feGaussianBlur stdDeviation="1.71"/>
</filter>
<clipPath id="clipPath3613">
<rect x="6" y="6" width="84" height="84" rx="6" ry="6" fill="#fff"/>
</clipPath>
<filter id="filter3794-3" x="-.192" y="-.192" width="1.384" height="1.384" color-interpolation-filters="sRGB">
<feGaussianBlur stdDeviation="5.28"/>
</filter>
<filter id="filter3174-4" color-interpolation-filters="sRGB">
<feGaussianBlur stdDeviation="1.71"/>
</filter>
<linearGradient id="linearGradient3737-3">
<stop stop-color="#fff" offset="0"/>
<stop stop-color="#fff" stop-opacity="0" offset="1"/>
</linearGradient>
<linearGradient id="linearGradient4587" x1="48" x2="48" y1="20.221" y2="138.66" gradientUnits="userSpaceOnUse" xlink:href="#linearGradient3737-3"/>
<linearGradient id="linearGradient4594" x1="45.448" x2="45.448" y1="92.54" y2="7.0165" gradientTransform="matrix(1.0059 0 0 .99417 97.5 0)" gradientUnits="userSpaceOnUse">
<stop offset="0"/>
<stop stop-opacity=".58824" offset="1"/>
</linearGradient>
<linearGradient id="linearGradient4071" x1="6" x2="90" y1="47" y2="47" gradientTransform="matrix(1.106 0 0 1.1071 -5.1375 -4.0357)" gradientUnits="userSpaceOnUse">
<stop stop-color="#b2babc" offset="0"/>
<stop stop-color="#fff" offset=".25"/>
<stop stop-color="#96a1a4" offset=".5"/>
<stop stop-color="#fbf9f9" offset=".75"/>
<stop stop-color="#b2b9bc" offset="1"/>
</linearGradient>
<linearGradient id="linearGradient4129" x1="1.5" x2="94.5" y1="88.172" y2="88.172" gradientTransform="matrix(.99896 0 0 1 -2.96e-6 2.599e-5)" gradientUnits="userSpaceOnUse">
<stop offset="0"/>
<stop stop-opacity=".58824" offset=".1"/>
<stop stop-opacity=".58824" offset=".9"/>
<stop offset="1"/>
</linearGradient>
<radialGradient id="radialGradient7462" cx="13.948" cy="44.893" r="43.199" gradientTransform="matrix(.97412 0 0 .049191 33.863 80.167)" gradientUnits="userSpaceOnUse" xlink:href="#linearGradient3737-3"/>
<radialGradient id="radialGradient7464" cx="13.948" cy="44.893" r="43.199" gradientTransform="matrix(.88833 0 0 .049139 31.545 -90.074)" gradientUnits="userSpaceOnUse" xlink:href="#linearGradient3737-3"/>
<linearGradient id="linearGradient4767" x1="2.7714" x2="50.528" y1="-28.642" y2="14.514" gradientTransform="matrix(1.0042 0 0 1.0052 -.21821 -.047555)" gradientUnits="userSpaceOnUse" xlink:href="#linearGradient3737-3"/>
<clipPath id="clipPath4156-4-1">
<path d="m27.046-55.695-14.214 13.321h0.06127l15.653 21.771 10.231-10.546c-0.2169-1.1522-11.311-23.67-11.732-24.546zm-17.399 16.313-14.888 14.062 21.229 17.515 10.385-10.577zm31.491 12.951-9.7413 9.7136 8.9448 12.458 7.7808-7.555zm-49.84 4.3788-13.754 12.982 26.283 13.846 0.06127-0.0617-0.12253-0.0617 9.8332-10.053-22.301-16.652zm38.015 7.4008-9.8025 9.7753 11.579 9.5594 7.6276-7.4008-8.6691-11.009zm20.187 5.674-7.3825 7.2158 6.1878 8.5418 5.8202-6.1365zm-32.195 6.3215-9.5575 9.4977 13.662 7.185 7.9339-7.6784zm23.312 2.3744-7.1068 6.9383 8.3628 6.9074 5.3608-5.674-0.06127-0.0925-0.0919 0.12335-6.4635-8.2026zm-8.7304 8.5418-7.5051 7.3392 10.354 5.4581c1.3975-1.321 5.6751-6.1229 5.8509-6.3215z" fill="#fff" opacity=".6"/>
</clipPath>
</defs>
<metadata>
<rdf:RDF>
<cc:Work rdf:about="">
<dc:format>image/svg+xml</dc:format>
<dc:type rdf:resource="http://purl.org/dc/dcmitype/StillImage"/>
<dc:title/>
<dc:date>2019</dc:date>
<dc:creator>
<cc:Agent>
<dc:title>Cristian Pozzessere &lt; ilnanny &gt;</dc:title>
</cc:Agent>
</dc:creator>
<dc:subject>
<rdf:Bag>
<rdf:li>ilnanny</rdf:li>
<rdf:li>inkscape</rdf:li>
<rdf:li>vectorart</rdf:li>
<rdf:li>svg</rdf:li>
</rdf:Bag>
</dc:subject>
<dc:coverage>Italy</dc:coverage>
<dc:description>..when I have nothing to do, I scribble and have fun with inkscape.</dc:description>
</cc:Work>
</rdf:RDF>
</metadata>
<g display="none">
<path d="m11 7c-3.324 0-6 2.676-6 6v33.688c2.2378 0.12403 4.6605 0.23568 5.875 0.4375 0.66093 0.10983-0.08406 0.24085-1.125 0.34375-1.0409 0.1029-2.3955 0.19637-2.9062 0.28125-0.62215 0.10338-1.2173 0.154-1.8438 0.25v1.0625c0.38037 0.03607 0.71838 0.03125 0.9375 0.03125 0.80883 1e-6 1.16 0.2157 1.3125 0.5625 0.15253 0.3468 0.09375 0.83972 0.09375 1.4062 0 0.42483-0.94202 0.66301-1.1562 1.375-0.076561 0.25447-0.63644 0.50802-1.1875 0.75v2.2188c0.73559 0.02497 1.4333 0.05671 1.8438 0.3125 0.28172 0.17556-0.77495 0.40535-1.8438 0.59375v7.5625c1.138 0.18034 3.3101 0.92568 3.9688 1.0625 1.0902 0.22645 1.2247 0.33476 0.875 0.4375-0.34972 0.10274-1.1736 0.17517-2 0.3125-0.97809 0.16253-1.9356 0.4545-2.8438 0.65625v19.656c0 3.324 2.676 6 6 6h13c0.0954-0.43824 0.15096-0.93118 0.25-1.4375 0.14036-0.71751 0.25498-1.3416 0.375-1.5938 0.03001-0.06304 0.05815-0.11405 0.09375-0.125 0.1068-0.03285 0.2382 0.19196 0.46875 0.78125 0.30434 0.77787 0.54017 1.6468 0.6875 2.375h0.75c0.27615-0.49369 0.57854-1.1385 0.8125-1.4375 0.09907-0.12663 0.27524 0.1315 0.53125 0.375 0.25601 0.2435 0.5889 0.48638 0.9375 0.375 0.64861-0.20723 1.6028-0.72623 2.0312-1 0.13988-0.08938 0.30016-0.15798 0.40625-0.1875 0.10609-0.02952 0.17433-0.01774 0.25 0 0.15134 0.03548 0.2322 0.14456 0.34375 0.28125 0.2231 0.27338 0.46678 0.65625 1.0625 0.65625 0.47834 0 0.65718-0.0325 0.78125 0.0625s0.19709 0.31455 0.40625 0.875h8.875c-0.04778-0.59388 1.0405-2.1515 1.2188-3.0625 0.19092-0.976 0.21408-1.2424 0.28125-1.0625 0.06717 0.17992 0.1925 0.79391 0.46875 1.5 0.11045 0.2823 0.21389 0.35824 0.3125 0.28125 0.09861-0.07699 0.1689-0.29395 0.25-0.5625 0.16221-0.53711 0.28565-1.2967 0.34375-1.5938 0.13113-0.67034 0.12866-1.7865 0.125-2.2812-9.11e-4 -0.12369-0.0059-0.21782 0-0.25 0.01779-0.09656 0.08067 0.31208 0.28125 1.5938 0.16382 1.0468 0.54767 2.6879 0.71875 3.5625 0.1698 0.86799 0.29811 1.3221 0.40625 1.875h28.219c0.03877-0.49496 0.03519-1.0986 0.0625-1.5 0.02049-0.30106 0.06649-0.487 0.15625-0.46875 0.02992 0.0061 0.05077 0.03882 0.09375 0.09375 0.23345 0.29834 0.6306 1.1649 0.96875 1.875h8.0312c3.324 0 6-2.676 6-6v-7.2188c-0.16942 0.0045-0.29011-4e-6 -0.5 0-1.3303 0-2.6385-4e-6 -3.9688 0-1.2266 0-2.0539-9.64e-4 -2.25-0.0625-0.19606-0.06154 0.23297-0.18318 1.4688-0.5 0.65503-0.16793 3.3425-0.92808 5.25-1.3438v-38.406c-0.65275-0.26634-1.207-0.48866-1.75-0.90625-0.14251-0.10961-0.44884-0.39247-0.96875-0.5625-0.5199-0.17003-1.2741-0.25614-2.2812-0.0625-1.5335 0.29485-1.6856 0.28347-1.25 0.15625 0.4356-0.12722 1.4686-0.38101 2.25-0.53125 1.1527-0.22164 2.7222-1.2042 4-1.8438v-4.5625c-0.69831-0.25798-1.4222-0.55827-1.75-1.0625-0.20971-0.32258-0.32162-0.51302-0.3125-0.625 0.0091-0.11198 0.13299-0.14912 0.25-0.1875 0.11701-0.03837 0.26103-0.05449 0.375-0.15625 0.11397-0.10176 0.1875-0.29162 0.1875-0.59375 0-0.32292 0.08246-0.88706 0.0625-1.4062-0.01-0.25959-0.03562-0.49724-0.125-0.6875-0.08939-0.19026-0.21909-0.333-0.4375-0.375-0.57457-0.11048-0.84814-0.23368-0.90625-0.34375-0.05811-0.11007 0.07208-0.18937 0.28125-0.28125 0.41834-0.18376 1.1325-0.3394 1.125-0.34375-0.6687-0.38572-5.2472-0.92123-5-0.96875 0.33257-0.06395 0.66744-0.12355 1-0.1875 1.0476-0.20144 2.4328-0.30923 3.75-0.5625 0.57326-0.11023 0.91177-0.25057 1.125-0.4375 0.21323-0.18693 0.2942-0.42326 0.375-0.625v-8.3125c0-3.324-2.676-6-6-6h-51.375c0.09658 1.3976 0.20158 2.9594-0.09375 2.1875-0.21042-0.54995-0.32083-1.1375-0.53125-1.6875-0.053238-0.13914-0.096059-0.32947-0.15625-0.5h-2.0312c-0.2407 0.49231-0.44964 0.97083-0.78125 1.1875-0.50693 0.33123-0.7858 0.49462-1.0312 0.40625-0.24545-0.088366-0.47684-0.42677-0.84375-0.90625-0.16375-0.21398-0.43453-0.43147-0.75-0.6875h-6.8125l-1.3125 5.5625-1.75-5.5625h-0.21875l-1.75 8.9375-1.4062-8.9375h-3.1562z" fill="url(#ButtonShadow)" filter="url(#filter3174)" opacity=".9"/>
</g>
<rect x="102.5" y="7" width="86" height="85" rx="6" ry="6" display="none" fill="url(#linearGradient4594)" filter="url(#filter3174-4)" opacity=".9"/>
<rect transform="translate(97.5)" x="15" y="15" width="66" height="66" rx="12" ry="12" clip-path="url(#clipPath3613)" display="none" fill="url(#linearGradient4587)" filter="url(#filter3794-3)" opacity=".1" stroke="#fff" stroke-linecap="round" stroke-width=".5"/>
<path d="m88.929 0.25h-81.857c-3.7791 0-6.8214 3.0424-6.8214 6.8214v81.857c0 3.7791 3.0424 6.8214 6.8214 6.8214h81.857c3.7791 0 6.8214-3.0424 6.8214-6.8214v-81.857c0-3.7791-3.0424-6.8214-6.8214-6.8214z" opacity=".15"/>
<path d="m88.289 0.99609h-80.578c-3.72 0-6.7148 2.9948-6.7148 6.7148v80.578c0 3.72 2.9948 6.7148 6.7148 6.7148h80.578c3.72 0 6.7148-2.9948 6.7148-6.7148v-80.578c0-3.72-2.9948-6.7148-6.7148-6.7148z" opacity=".15"/>
<path d="m87.65 1.7422h-79.299c-3.661 0-6.6083 2.9473-6.6083 6.6083v79.299c0 3.661 2.9473 6.6083 6.6083 6.6083h79.299c3.661 0 6.6083-2.9473 6.6083-6.6083v-79.299c0-3.661-2.9473-6.6083-6.6083-6.6083z" fill="url(#linearGradient4071)"/>
<rect x="5.9408" y="6.5193" width="84.558" height="77.021" rx="2.3669" ry="2.998" fill="#abdfff"/>
<path d="m1.7422 81.667v5.9688c0 3.661 2.9606 6.6216 6.6216 6.6216h79.272c3.661 0 6.6216-2.9606 6.6216-6.6216v-5.9688c0 3.661-2.9606 6.6216-6.6216 6.6216h-79.272c-3.661 0-6.6216-2.9606-6.6216-6.6216z" fill="url(#linearGradient4129)" opacity=".65818"/>
<rect x="5.597" y="80.082" width="83.811" height="4.2279" rx="4.25" ry="4.25" fill="url(#radialGradient7462)" opacity=".55"/>
<rect transform="rotate(90)" x="5.781" y="-89.866" width="76.35" height="4.2279" rx="4.2456" ry="4.2456" fill="url(#radialGradient7464)" opacity=".669"/>
<g transform="matrix(.61973 0 0 .61973 -1.5067 27.779)" fill="#2050e5" fill-opacity=".97647">
<path d="m81.846-19.781-21.281 81.125c-10.154-2.8749-9.1838-7.4858-7.9451-15.605s11.927-26.894 7.1326-35.645c-4.3284-6.3381-13.093-10.088-30.594-0.71875l5.5 14.156s10.767-10.077 8.4688-0.53125c-2.2981 9.5459-9.7114 29.518-5.4688 40.125 4.2426 10.607 19.25 12.719 19.25 12.719l-3.6764 13.754 18.364-0.66033 2.7812-12.562h0.0312l0.0625-0.1875c0.3489-0.0072 29.987-1.1277 40.092-28.614 8.8388-24.042 5.2831-40.667 5.2831-40.667h-16.438s4.4289 44.204-24.563 53.75c-0.0653 0.02152-0.12248 0.04134-0.1875 0.0625l21.75-80.344z"/>
<path d="m110.66-29.812-1.4375 5.9062c9.694 3.3117 16.72 11.722 17.438 21.781h5.7188c0.13479-1.0157 0.21875-2.0438 0.21875-3.0938 0-12.283-9.4759-22.482-21.938-24.594zm-2.6875 11.062-1.3125 5.3125c4.614 2.4685 8.1452 6.5 9.8125 11.312h5.625c-0.95686-7.714-6.5649-14.076-14.125-16.625zm-2.4062 9.8438-1.6562 6.6875c0.0251 0.027745 0.0375 0.065878 0.0625 0.09375h7.5c-1.4206-2.6446-3.451-4.9617-5.9062-6.7812z"/>
</g>
<rect transform="matrix(1.0637 0 0 1.0422 4.5229 38.529)" x="2" y="-30" width="75.966" height="69.024" rx="3.9736" ry="3.9777" clip-path="url(#clipPath4156-4-1)" fill="url(#linearGradient4767)" opacity=".65"/>
<path d="m10.024 4.9548c-3.1004 0-5.6384 2.5263-5.6384 5.6166v68.917c0 3.0903 2.5381 5.6166 5.6384 5.6166h76.392c3.1004 0 5.6384-2.5263 5.6384-5.6166v-68.917c0-3.0903-2.5381-5.6166-5.6384-5.6166zm0 2.3074h76.392c1.8783 0 3.3346 1.4724 3.3346 3.3092v68.917c0 1.8369-1.4563 3.3092-3.3346 3.3092h-76.392c-1.8783 0-3.3346-1.4724-3.3346-3.3092v-68.917c0-1.8369 1.4563-3.3092 3.3346-3.3092z" color="#000000" fill="#202223" fill-opacity=".93689" style="text-decoration-line:none;text-indent:0;text-transform:none"/>
</svg>
