<?xml version="1.0" encoding="UTF-8"?>
<svg version="1.1" viewBox="0 0 48 48" xmlns="http://www.w3.org/2000/svg" xmlns:cc="http://creativecommons.org/ns#" xmlns:dc="http://purl.org/dc/elements/1.1/" xmlns:rdf="http://www.w3.org/1999/02/22-rdf-syntax-ns#" xmlns:xlink="http://www.w3.org/1999/xlink">
<metadata>
<rdf:RDF>
<cc:Work rdf:about="">
<dc:format>image/svg+xml</dc:format>
<dc:type rdf:resource="http://purl.org/dc/dcmitype/StillImage"/>
</cc:Work>
</rdf:RDF>
</metadata>
<defs>
<linearGradient id="linearGradient4071" x1="6" x2="90" y1="47" y2="47" gradientTransform="matrix(.5501 0 0 .55067 -2.4296 -1.8816)" gradientUnits="userSpaceOnUse">
<stop stop-color="#b2babc" offset="0"/>
<stop stop-color="#fff" offset=".25"/>
<stop stop-color="#96a1a4" offset=".5"/>
<stop stop-color="#fbf9f9" offset=".75"/>
<stop stop-color="#b2b9bc" offset="1"/>
</linearGradient>
<linearGradient id="linearGradient4129" x1="1.5" x2="94.5" y1="88.172" y2="88.172" gradientTransform="matrix(.49686 0 0 .49738 .12565 .12567)" gradientUnits="userSpaceOnUse">
<stop offset="0"/>
<stop stop-opacity=".58824" offset=".1"/>
<stop stop-opacity=".58824" offset=".9"/>
<stop offset="1"/>
</linearGradient>
<radialGradient id="radialGradient7462" cx="13.948" cy="44.893" r="43.199" gradientTransform="matrix(.48451 0 0 .024467 16.969 39.999)" gradientUnits="userSpaceOnUse" xlink:href="#linearGradient3737"/>
<linearGradient id="linearGradient3737">
<stop stop-color="#fff" offset="0"/>
<stop stop-color="#fff" stop-opacity="0" offset="1"/>
</linearGradient>
<radialGradient id="radialGradient7464" cx="13.948" cy="44.893" r="43.199" gradientTransform="matrix(.44184 0 0 .024441 15.815 -44.927)" gradientUnits="userSpaceOnUse" xlink:href="#linearGradient3737"/>
<linearGradient id="linearGradient4767" x1="2.7714" x2="50.528" y1="-28.642" y2="14.514" gradientTransform="matrix(1.0042 0 0 1.0052 -.21821 -.047555)" gradientUnits="userSpaceOnUse" xlink:href="#linearGradient3737"/>
<clipPath id="clipPath4156-4-1">
<path d="m27.046-55.695-14.214 13.321h0.06127l15.653 21.771 10.231-10.546c-0.2169-1.1522-11.311-23.67-11.732-24.546zm-17.399 16.313-14.888 14.062 21.229 17.515 10.385-10.577zm31.491 12.951-9.7413 9.7136 8.9448 12.458 7.7808-7.555zm-49.84 4.3788-13.754 12.982 26.283 13.846 0.06127-0.0617-0.12253-0.0617 9.8332-10.053-22.301-16.652zm38.015 7.4008-9.8025 9.7753 11.579 9.5594 7.6276-7.4008-8.6691-11.009zm20.187 5.674-7.3825 7.2158 6.1878 8.5418 5.8202-6.1365zm-32.195 6.3215-9.5575 9.4977 13.662 7.185 7.9339-7.6784zm23.312 2.3744-7.1068 6.9383 8.3628 6.9074 5.3608-5.674-0.06127-0.0925-0.0919 0.12335-6.4635-8.2026zm-8.7304 8.5418-7.5051 7.3392 10.354 5.4581c1.3975-1.321 5.6751-6.1229 5.8509-6.3215z" fill="#fff" opacity=".6"/>
</clipPath>
</defs>
<path d="m44.357 0.25h-40.714c-1.8796 0-3.3929 1.5132-3.3929 3.3929v40.714c0 1.8796 1.5132 3.3929 3.3929 3.3929h40.714c1.8796 0 3.3929-1.5132 3.3929-3.3929v-40.714c0-1.8796-1.5132-3.3929-3.3929-3.3929z" opacity=".15"/>
<path d="m44.039 0.62109h-40.078c-1.8503 0-3.3398 1.4896-3.3398 3.3398v40.078c0 1.8503 1.4896 3.3398 3.3398 3.3398h40.078c1.8503 0 3.3398-1.4896 3.3398-3.3398v-40.078c0-1.8503-1.4896-3.3398-3.3398-3.3398z" opacity=".15"/>
<path d="m43.721 0.99219h-39.442c-1.8209 0-3.2868 1.4659-3.2868 3.2868v39.442c0 1.8209 1.4659 3.2868 3.2868 3.2868h39.442c1.8209 0 3.2868-1.4659 3.2868-3.2868v-39.442c0-1.8209-1.4659-3.2868-3.2868-3.2868z" fill="url(#linearGradient4071)"/>
<rect x="3.0805" y="3.3682" width="42.058" height="38.309" rx="1.1773" ry="1.4912" fill="#ffd185"/>
<path d="m5.1114 2.5901c-1.5421 0-2.8045 1.2565-2.8045 2.7936v34.278c0 1.5371 1.2624 2.7936 2.8045 2.7936h37.996c1.5421 0 2.8045-1.2565 2.8045-2.7936v-34.278c0-1.5371-1.2624-2.7936-2.8045-2.7936zm0 1.1476h37.996c0.93422 0 1.6586 0.73234 1.6586 1.646v34.278c0 0.91362-0.72434 1.646-1.6586 1.646h-37.996c-0.93422 0-1.6586-0.73234-1.6586-1.646v-34.278c0-0.91362 0.72434-1.646 1.6586-1.646z" color="#000000" fill="#202223" fill-opacity=".93689" style="text-decoration-line:none;text-indent:0;text-transform:none"/>
<path d="m0.99219 40.746v2.9688c0 1.8209 1.4726 3.2935 3.2935 3.2935h39.429c1.8209 0 3.2935-1.4726 3.2935-3.2935v-2.9688c0 1.8209-1.4726 3.2935-3.2935 3.2935h-39.429c-1.8209 0-3.2935-1.4726-3.2935-3.2935z" fill="url(#linearGradient4129)" opacity=".65818"/>
<rect x="2.9095" y="39.957" width="41.686" height="2.1029" rx="2.1139" ry="2.1139" fill="url(#radialGradient7462)" opacity=".55"/>
<rect transform="rotate(90)" x="3.001" y="-44.823" width="37.975" height="2.1029" rx="2.1117" ry="2.1117" fill="url(#radialGradient7464)" opacity=".669"/>
<g transform="matrix(1.0525 0 0 1.0525 74.42 17.268)">
<path d="m-47.147-8.1017a15 15 0 0 0-0.912 0.01 15 15 0 0 0-14.338 15.488 15 15 0 0 0 15.334 14.498 15 15 0 0 0 14.655-15.185l-0.02-0.617a15 15 0 0 0-14.719-14.194m-0.82 2.01a13 13 0 0 1 0.564 4e-3v10.687a2.3 2.3 0 0 0-0.1 0 2.3 2.3 0 0 0-0.07 6e-3l-5.438-9.42a13 13 0 0 1 5.04-1.277zm1.564 0.037a13 13 0 0 1 5.492 1.705l-5.344 9.256a2.3 2.3 0 0 0-0.148-0.08zm-7.494 1.701 5.346 9.26a2.3 2.3 0 0 0-0.145 0.09l-9.42-5.438a13 13 0 0 1 4.219-3.912zm13.832 0.537a13 13 0 0 1 3.916 4.217l-9.264 5.348a2.3 2.3 0 0 0-0.09-0.145l5.437-9.42zm-18.582 4.221 9.256 5.344a2.3 2.3 0 0 0-0.082 0.148h-10.885a13 13 0 0 1 1.711-5.492zm22.957 0.885a13 13 0 0 1 1.268 4.908l0.018 0.535a13 13 0 0 1-6e-3 0.164h-10.693a2.3 2.3 0 0 0 2e-3 -0.029l-4e-3 -0.094a2.3 2.3 0 0 0-4e-3 -0.047l9.42-5.438zm-24.697 5.607h10.688a2.3 2.3 0 0 0-2e-3 0.076 2.3 2.3 0 0 0 6e-3 0.094l-9.416 5.436a13 13 0 0 1-1.283-5.174 13 13 0 0 1 8e-3 -0.432zm15.05 1h10.887a13 13 0 0 1-1.709 5.492l-9.256-5.344a2.3 2.3 0 0 0 0.078-0.148zm-4.059 0.148a2.3 2.3 0 0 0 0.09 0.146l-5.44 9.423a13 13 0 0 1-3.906-4.223l9.256-5.344zm3.283 0.752 9.426 5.441a13 13 0 0 1-4.227 3.902l-5.344-9.254a2.3 2.3 0 0 0 0.145-0.09zm-2.441 0.09a2.3 2.3 0 0 0 0.148 0.078v10.893a13 13 0 0 1-5.49-1.717zm1.318 0.303 5.438 9.418a13 13 0 0 1-5.311 1.285 13 13 0 0 1-0.297-8e-3v-10.691a2.3 2.3 0 0 0 0.053 2e-3 2.3 2.3 0 0 0 0.117-6e-3z" fill-opacity=".098"/>
<g transform="translate(-72.407 -18.102)">
<rect transform="rotate(90)" x="23" y="-22" width="1" height="12" rx="0" fill="#646464"/>
<rect x="24" y="10" width="1" height="12" rx="0" fill="#646464"/>
<rect transform="rotate(30)" x="32.785" y="-5.215" width="1" height="12" rx="0" fill="#646464"/>
<rect x="23" y="26" width="1" height="12" rx="0" fill="#646464"/>
<rect transform="rotate(60)" x="32.785" y="-22.785" width="1" height="12" rx="0" fill="#646464"/>
<rect transform="rotate(30)" x="31.785" y="10.785" width="1" height="12" rx="0" fill="#646464"/>
<rect transform="rotate(90)" x="24" y="-38" width="1" height="12" rx="0" fill="#646464"/>
<rect transform="rotate(60)" x="31.785" y="-6.785" width="1" height="12" rx="0" fill="#646464"/>
<rect transform="rotate(120)" x="8.785" y="-46.785" width="1" height="12" rx="0" fill="#646464"/>
<rect transform="rotate(120)" x="7.785" y="-30.785" width="1" height="12" rx="0" fill="#646464"/>
<rect transform="rotate(150)" x="-8.785" y="-46.785" width="1" height="12" rx="0" fill="#646464"/>
<rect transform="rotate(150)" x="-9.785" y="-30.785" width="1" height="12" rx="0" fill="#646464"/>
<path d="m23.348 9.01a15 15 0 0 0-14.338 15.488 15 15 0 0 0 15.334 14.498 15 15 0 0 0 14.655-15.185l-0.02-0.617a15 15 0 0 0-15.631-14.184m0.088 1.998a13 13 0 0 1 13.545 12.289l0.018 0.535a13 13 0 0 1-12.702 13.164 13 13 0 0 1-13.287-12.564 13 13 0 0 1 12.426-13.422" fill="#333"/>
<path d="m26.3 23.971a2.3 2.3 0 0 1-2.247 2.328 2.3 2.3 0 0 1-2.351-2.223 2.3 2.3 0 0 1 2.199-2.374 2.3 2.3 0 0 1 2.397 2.174" fill="#333"/>
</g>
</g>
<rect transform="matrix(.52905 0 0 .51838 2.3752 19.289)" x="2" y="-30" width="75.966" height="69.024" rx="3.9736" ry="3.9777" clip-path="url(#clipPath4156-4-1)" fill="url(#linearGradient4767)" opacity=".65"/>
</svg>
