<?xml version="1.0" encoding="UTF-8"?>
<svg version="1.1" viewBox="0 0 48 48" xmlns="http://www.w3.org/2000/svg" xmlns:cc="http://creativecommons.org/ns#" xmlns:dc="http://purl.org/dc/elements/1.1/" xmlns:rdf="http://www.w3.org/1999/02/22-rdf-syntax-ns#" xmlns:xlink="http://www.w3.org/1999/xlink">
<metadata>
<rdf:RDF>
<cc:Work rdf:about="">
<dc:format>image/svg+xml</dc:format>
<dc:type rdf:resource="http://purl.org/dc/dcmitype/StillImage"/>
</cc:Work>
</rdf:RDF>
</metadata>
<defs>
<linearGradient id="linearGradient4071" x1="6" x2="90" y1="47" y2="47" gradientTransform="matrix(.54781 0 0 .5478 -2.2946 -1.7468)" gradientUnits="userSpaceOnUse">
<stop stop-color="#b2babc" offset="0"/>
<stop stop-color="#eceff3" offset=".25"/>
<stop stop-color="#96a1a4" offset=".5"/>
<stop stop-color="#e5eaee" offset=".75"/>
<stop stop-color="#b2b9bc" offset="1"/>
</linearGradient>
<linearGradient id="linearGradient4129" x1="1.5" x2="94.5" y1="88.172" y2="88.172" gradientTransform="matrix(.49479 0 0 .49479 .25 .25)" gradientUnits="userSpaceOnUse">
<stop offset="0"/>
<stop stop-opacity=".58824" offset=".1"/>
<stop stop-opacity=".58824" offset=".9"/>
<stop offset="1"/>
</linearGradient>
<radialGradient id="radialGradient7462" cx="13.948" cy="44.893" r="43.199" gradientTransform="matrix(.48249 0 0 .024339 17.023 39.916)" gradientUnits="userSpaceOnUse" xlink:href="#linearGradient3737"/>
<linearGradient id="linearGradient3737">
<stop stop-color="#fff" offset="0"/>
<stop stop-color="#fff" stop-opacity="0" offset="1"/>
</linearGradient>
<radialGradient id="radialGradient7464" cx="13.948" cy="44.893" r="43.199" gradientTransform="matrix(.43954 0 0 .024339 15.858 -44.865)" gradientUnits="userSpaceOnUse" xlink:href="#linearGradient3737"/>
<linearGradient id="linearGradient4767" x1="2.7714" x2="50.528" y1="-28.642" y2="14.514" gradientUnits="userSpaceOnUse" xlink:href="#linearGradient3737"/>
<clipPath id="clipPath4156-4-1">
<path d="m27.046-55.695-14.214 13.321h0.06127l15.653 21.771 10.231-10.546c-0.2169-1.1522-11.311-23.67-11.732-24.546zm-17.399 16.313-14.888 14.062 21.229 17.515 10.385-10.577zm31.491 12.951-9.7413 9.7136 8.9448 12.458 7.7808-7.555zm-49.84 4.3788-13.754 12.982 26.283 13.846 0.06127-0.0617-0.12253-0.0617 9.8332-10.053-22.301-16.652zm38.015 7.4008-9.8025 9.7753 11.579 9.5594 7.6276-7.4008-8.6691-11.009zm20.187 5.674-7.3825 7.2158 6.1878 8.5418 5.8202-6.1365zm-32.195 6.3215-9.5575 9.4977 13.662 7.185 7.9339-7.6784zm23.312 2.3744-7.1068 6.9383 8.3628 6.9074 5.3608-5.674-0.06127-0.0925-0.0919 0.12335-6.4635-8.2026zm-8.7304 8.5418-7.5051 7.3392 10.354 5.4581c1.3975-1.321 5.6751-6.1229 5.8509-6.3215z" fill="#fff" opacity=".6"/>
</clipPath>
</defs>
<g>
<path d="m44.357 0.25h-40.714c-1.8796 0-3.3929 1.5132-3.3929 3.3929v40.714c0 1.8796 1.5132 3.3929 3.3929 3.3929h40.714c1.8796 0 3.3929-1.5132 3.3929-3.3929v-40.714c0-1.8796-1.5132-3.3929-3.3929-3.3929z" opacity=".15"/>
<path d="m44.039 0.62109h-40.078c-1.8503 0-3.3398 1.4896-3.3398 3.3398v40.078c0 1.8503 1.4896 3.3398 3.3398 3.3398h40.078c1.8503 0 3.3398-1.4896 3.3398-3.3398v-40.078c0-1.8503-1.4896-3.3398-3.3398-3.3398z" opacity=".15"/>
<path d="m43.721 0.99219h-39.442c-1.8209 0-3.2868 1.4659-3.2868 3.2868v39.442c0 1.8209 1.4659 3.2868 3.2868 3.2868h39.442c1.8209 0 3.2868-1.4659 3.2868-3.2868v-39.442c0-1.8209-1.4659-3.2868-3.2868-3.2868z" fill="url(#linearGradient4071)"/>
<path d="m5.8121 3.4103c-1.4134 0-2.5354 1.1323-2.5354 2.5586v33.933c0.5429 0.83347 1.469 1.3912 2.5354 1.3912h36.509c1.0664 0 1.9925-0.55775 2.5354-1.3912v-33.933c0-1.4263-1.122-2.5586-2.5354-2.5586z" fill="#3f3f3f" opacity=".9"/>
<path d="m5.1114 2.5901c-1.5421 0-2.8045 1.2565-2.8045 2.7936v34.278c0 1.5371 1.2624 2.7936 2.8045 2.7936h37.996c1.5421 0 2.8045-1.2565 2.8045-2.7936v-34.278c0-1.5371-1.2624-2.7936-2.8045-2.7936zm0 1.1476h37.996c0.93422 0 1.6586 0.73234 1.6586 1.646v34.278c0 0.91362-0.72434 1.646-1.6586 1.646h-37.996c-0.93422 0-1.6586-0.73234-1.6586-1.646v-34.278c0-0.91362 0.72434-1.646 1.6586-1.646z" color="#000000" fill="#1f2224" style="text-decoration-line:none;text-indent:0;text-transform:none"/>
<path d="m0.99219 40.746v2.9688c0 1.8209 1.4726 3.2935 3.2935 3.2935h39.429c1.8209 0 3.2935-1.4726 3.2935-3.2935v-2.9688c0 1.8209-1.4726 3.2935-3.2935 3.2935h-39.429c-1.8209 0-3.2935-1.4726-3.2935-3.2935z" fill="url(#linearGradient4129)" opacity=".65818"/>
<rect x="2.9095" y="39.957" width="41.686" height="2.1029" rx="0" ry="2.1029" fill="url(#radialGradient7462)" opacity=".55"/>
<rect transform="rotate(90)" x="3.001" y="-44.823" width="37.975" height="2.1029" rx="0" ry="2.1029" fill="url(#radialGradient7464)" opacity=".669"/>
<rect transform="matrix(.52905 0 0 .51838 2.3752 19.289)" x="2" y="-30" width="75.966" height="69.024" rx="3.957" ry="3.957" clip-path="url(#clipPath4156-4-1)" fill="url(#linearGradient4767)" opacity=".65"/>
<g transform="matrix(1.1262 0 0 1.1262 78.642 28.6)">
<path d="m-56.517-13.085c-1.385 0-2.5 1.115-2.5 2.5v0.5c-1.399 0-2.318 1.702-2.4 3-0.213 3.334-0.6 6.5-0.6 9.5 0 2.5 1.338 3.5 3 3.5 2.71 0 3.518-2.464 4.641-5.148 0.568 0.725 1.438 1.148 2.359 1.148 1.27-2e-3 2.401-0.803 2.824-2h2.352c0.423 1.197 1.554 1.998 2.824 2 0.921 0 1.791-0.424 2.359-1.148 1.123 2.685 1.931 5.148 4.641 5.148 1.662 0 3-1 3-3.5 0-3-0.387-6.166-0.6-9.5-0.083-1.298-1-3-2.4-3v-0.5c0-1.385-1.115-2.5-2.5-2.5h-1c-1.385 0-2.5 1.115-2.5 2.5v0.5h-10v-0.5c0-1.385-1.115-2.5-2.5-2.5m-1.5 4h1v1.334l-0.5 0.666-0.5-0.666m17-1.334c0.552 0 1 0.448 1 1s-0.448 1-1 1-1-0.448-1-1 0.448-1 1-1zm-19 2h1.334l0.666 0.5-0.666 0.5h-1.334m3.666-1h1.334v1h-1.334l-0.666-0.5m5-0.5h2v2h-2zm4 0h1l1 1-1 1h-1zm5 0c0.552 0 1 0.448 1 1s-0.448 1-1 1-1-0.448-1-1 0.448-1 1-1zm4 0c0.552 0 1 0.448 1 1s-0.448 1-1 1-1-0.448-1-1 0.448-1 1-1zm-18.5 1 0.5 0.666v1.334h-1v-1.334m17 0.334c0.552 0 1 0.448 1 1s-0.448 1-1 1-1-0.448-1-1 0.448-1 1-1zm-12 2c1.105 0 2 0.895 2 2 0 1.105-0.895 2-2 2s-2-0.895-2-2c0-1.105 0.895-2 2-2zm8 0c1.105 0 2 0.895 2 2 0 1.105-0.895 2-2 2s-2-0.895-2-2c0-1.105 0.895-2 2-2z" opacity=".1"/>
<path d="m-57.517-14.085c-1.385 0-2.5 1.115-2.5 2.5v0.5c-1.399 0-2.318 1.702-2.4 3-0.213 3.334-0.6 6.5-0.6 9.5 0 2.5 1.338 3.5 3 3.5 2.71 0 3.518-2.464 4.641-5.148 0.568 0.725 1.438 1.148 2.359 1.148 1.27-2e-3 2.401-0.803 2.824-2h2.352c0.423 1.197 1.554 1.998 2.824 2 0.921 0 1.791-0.424 2.359-1.148 1.123 2.685 1.931 5.148 4.641 5.148 1.662 0 3-1 3-3.5 0-3-0.387-6.166-0.6-9.5-0.083-1.298-1-3-2.4-3v-0.5c0-1.385-1.115-2.5-2.5-2.5h-1c-1.385 0-2.5 1.115-2.5 2.5v0.5h-10v-0.5c0-1.385-1.115-2.5-2.5-2.5m-1.5 4h1v1.334l-0.5 0.666-0.5-0.666m17-1.334c0.552 0 1 0.448 1 1s-0.448 1-1 1-1-0.448-1-1 0.448-1 1-1zm-19 2h1.334l0.666 0.5-0.666 0.5h-1.334m3.666-1h1.334v1h-1.334l-0.666-0.5m5-0.5h2v2h-2zm4 0h1l1 1-1 1h-1zm5 0c0.552 0 1 0.448 1 1s-0.448 1-1 1-1-0.448-1-1 0.448-1 1-1zm4 0c0.552 0 1 0.448 1 1s-0.448 1-1 1-1-0.448-1-1 0.448-1 1-1zm-18.5 1 0.5 0.666v1.334h-1v-1.334m17 0.334c0.552 0 1 0.448 1 1s-0.448 1-1 1-1-0.448-1-1 0.448-1 1-1zm-12 2c1.105 0 2 0.895 2 2 0 1.105-0.895 2-2 2s-2-0.895-2-2c0-1.105 0.895-2 2-2zm8 0c1.105 0 2 0.895 2 2 0 1.105-0.895 2-2 2s-2-0.895-2-2c0-1.105 0.895-2 2-2z" fill="#e8e8d9"/>
</g>
</g>
</svg>
