<?xml version="1.0" encoding="UTF-8"?>
<!-- Created with Inkscape (http://www.inkscape.org/) -->
<svg version="1.1" viewBox="0 0 96 96" xmlns="http://www.w3.org/2000/svg" xmlns:cc="http://creativecommons.org/ns#" xmlns:dc="http://purl.org/dc/elements/1.1/" xmlns:rdf="http://www.w3.org/1999/02/22-rdf-syntax-ns#" xmlns:xlink="http://www.w3.org/1999/xlink">
<defs>
<linearGradient id="linearGradient4071" x1="6" x2="90" y1="47" y2="47" gradientTransform="matrix(1.1071 0 0 1.1071 -5.1429 -4.0357)" gradientUnits="userSpaceOnUse">
<stop stop-color="#b2babc" offset="0"/>
<stop stop-color="#fff" offset=".25"/>
<stop stop-color="#96a1a4" offset=".5"/>
<stop stop-color="#fbf9f9" offset=".75"/>
<stop stop-color="#b2b9bc" offset="1"/>
</linearGradient>
<linearGradient id="linearGradient4129" x1="1.5" x2="94.5" y1="88.172" y2="88.172" gradientTransform="translate(-2.95e-6,2.6e-5)" gradientUnits="userSpaceOnUse">
<stop offset="0"/>
<stop stop-opacity=".58824" offset=".1"/>
<stop stop-opacity=".58824" offset=".9"/>
<stop offset="1"/>
</linearGradient>
<radialGradient id="radialGradient7462" cx="13.948" cy="44.893" r="43.199" gradientTransform="matrix(.97513 0 0 .049191 33.899 80.167)" gradientUnits="userSpaceOnUse" xlink:href="#linearGradient3737"/>
<linearGradient id="linearGradient3737">
<stop stop-color="#fff" offset="0"/>
<stop stop-color="#fff" stop-opacity="0" offset="1"/>
</linearGradient>
<radialGradient id="radialGradient7464" cx="13.948" cy="44.893" r="43.199" gradientTransform="matrix(.88833 0 0 .049191 31.545 -90.168)" gradientUnits="userSpaceOnUse" xlink:href="#linearGradient3737"/>
<linearGradient id="linearGradient4767" x1="2.7714" x2="50.528" y1="-28.642" y2="14.514" gradientUnits="userSpaceOnUse" xlink:href="#linearGradient3737"/>
<clipPath id="clipPath4156-4-1">
<path d="m27.046-55.695-14.214 13.321h0.06127l15.653 21.771 10.231-10.546c-0.2169-1.1522-11.311-23.67-11.732-24.546zm-17.399 16.313-14.888 14.062 21.229 17.515 10.385-10.577zm31.491 12.951-9.7413 9.7136 8.9448 12.458 7.7808-7.555zm-49.84 4.3788-13.754 12.982 26.283 13.846 0.06127-0.0617-0.12253-0.0617 9.8332-10.053-22.301-16.652zm38.015 7.4008-9.8025 9.7753 11.579 9.5594 7.6276-7.4008-8.6691-11.009zm20.187 5.674-7.3825 7.2158 6.1878 8.5418 5.8202-6.1365zm-32.195 6.3215-9.5575 9.4977 13.662 7.185 7.9339-7.6784zm23.312 2.3744-7.1068 6.9383 8.3628 6.9074 5.3608-5.674-0.06127-0.0925-0.0919 0.12335-6.4635-8.2026zm-8.7304 8.5418-7.5051 7.3392 10.354 5.4581c1.3975-1.321 5.6751-6.1229 5.8509-6.3215z" fill="#fff" opacity=".6"/>
</clipPath>
</defs>
<metadata>
<rdf:RDF>
<cc:Work rdf:about="">
<dc:format>image/svg+xml</dc:format>
<dc:type rdf:resource="http://purl.org/dc/dcmitype/StillImage"/>
<dc:title/>
</cc:Work>
</rdf:RDF>
</metadata>
<path d="m89.143 2.6e-5h-82.286c-3.7988 0-6.8571 3.0583-6.8571 6.8571v82.286c0 3.7989 3.0583 6.8571 6.8571 6.8571h82.286c3.7989 0 6.8571-3.0583 6.8571-6.8571v-82.286c0-3.7989-3.0583-6.8571-6.8571-6.8571z" opacity=".15"/>
<path d="m88.5 0.75003h-81c-3.7395 0-6.75 3.0105-6.75 6.75v81c0 3.7395 3.0105 6.75 6.75 6.75h81c3.7395 0 6.75-3.0105 6.75-6.75v-81c0-3.7395-3.0105-6.75-6.75-6.75z" opacity=".15"/>
<path d="m87.857 1.5h-79.714c-3.6801 0-6.6429 2.9627-6.6429 6.6429v79.714c0 3.6801 2.9627 6.6429 6.6429 6.6429h79.714c3.6801 0 6.6429-2.9627 6.6429-6.6429v-79.714c0-3.6801-2.9627-6.6429-6.6429-6.6429z" fill="url(#linearGradient4071)"/>
<path d="m11.241 6.3872c-2.8565 0-5.1241 2.3293-5.1241 5.2634v69.806c1.0972 1.7146 2.9688 2.862 5.1241 2.862h73.787c2.1553 0 4.0269-1.1474 5.1241-2.862v-69.806c0-2.9341-2.2676-5.2634-5.1241-5.2634z" fill="#5080d8" opacity=".96"/>
<path d="m5.3483 5.9198v26.723 12.999c16.722-11.544 36.082-19.519 85.513-22.826v-16.897h-57.008z" color="#000000" fill="#25b9ff"/>
<path d="m1.5 81.844v6c0 3.6801 2.9761 6.6562 6.6562 6.6562h79.688c3.6801 0 6.6563-2.9761 6.6563-6.6562v-6c0 3.6801-2.9761 6.6562-6.6563 6.6562h-79.688c-3.6801 0-6.6562-2.9761-6.6562-6.6562z" fill="url(#linearGradient4129)" opacity=".65818"/>
<rect x="5.375" y="80.25" width="84.25" height="4.25" rx="0" ry="4.25" fill="url(#radialGradient7462)" opacity=".55"/>
<rect transform="rotate(90)" x="5.56" y="-90.085" width="76.75" height="4.25" rx="0" ry="4.25" fill="url(#radialGradient7464)" opacity=".669"/>
<rect transform="matrix(1.0692 0 0 1.0477 4.2952 38.479)" x="2" y="-30" width="75.966" height="69.024" rx="3.957" ry="3.957" clip-path="url(#clipPath4156-4-1)" fill="url(#linearGradient4767)" opacity=".65"/>
<path d="m9.8251 4.7295c-3.1166 0-5.668 2.5395-5.668 5.646v69.278c0 3.1065 2.5513 5.646 5.668 5.646h76.792c3.1166 0 5.668-2.5395 5.668-5.646v-69.278c0-3.1065-2.5513-5.646-5.668-5.646zm0 2.3194h76.792c1.8881 0 3.352 1.4801 3.352 3.3266v69.278c0 1.8465-1.4639 3.3266-3.352 3.3266h-76.792c-1.8881 0-3.352-1.4801-3.352-3.3266v-69.278c0-1.8465 1.4639-3.3266 3.352-3.3266z" color="#000000" fill="#4c4e4e" fill-opacity=".98661" style="text-decoration-line:none;text-indent:0;text-transform:none"/>
<g transform="matrix(1.4091 0 0 1.4091 -88.782 -202.93)">
<path d="m81.721 159.71-1.3691 6.3633 1.4668 0.31445c1.3099 0.28099 2.5242 0.35083 3.7422 0.44141v23.803h-4.8477v6.5117h16.711v-6.5117h-5.3535v-8.7754h3.209l9.2793 13.842 0.96289 1.4453h1.7402 6.5254v-6.5117h-4.7891l-6.9434-10.352c3.8433-1.9354 6.2539-5.4595 6.3867-9.2617 0.2295-5.6621-4.6409-11.068-12.178-11.068h-0.69531l-0.04492 0.0527c-3.5548 0.11888-7.6723 1.0222-12.338 0.0215zm14.543 3.2402c6.1585 0 9.3403 4.0475 9.1797 7.9512v6e-3 4e-3c-0.10565 3.0576-2.2042 6.1199-6.0449 7.3711l-1.8867 0.61524 9.8867 14.734h3.3887v0.51172h-3.5254-0.13477l-0.0742-0.11328-10.193-15.207-0.82812 0.0234c-0.15759 4e-3 -0.28248 0.01-0.38672 0.01h-6.5742v14.775h5.3535v0.51172h-10.711v-0.51172h4.8477v-29.584l-1.4512-0.0469c-1.0114-0.0335-2.0939-0.21485-3.1641-0.37109l0.10547-0.48438c5.0851 0.74173 9.4929-0.19531 12.213-0.19531zm0 0.50977c-1.4584 0-3.3617 0.34253-5.7871 0.49219l-1.4062 0.0879v14.307h6.5742c3.0197 0 5.3519-0.87525 6.918-2.2988s2.3065-3.3341 2.3691-5.1524c0.062-1.7997-0.51553-3.7278-1.9824-5.1602-1.4669-1.4323-3.722-2.2754-6.6855-2.2754zm0 3c2.4116 0 3.7907 0.64159 4.5898 1.4219 0.79912 0.78029 1.1185 1.7941 1.0801 2.9102-0.0378 1.0976-0.4549 2.1883-1.3887 3.0371-0.93376 0.84883-2.4445 1.5176-4.9004 1.5176h-3.5742v-8.5234c1.7266-0.1589 3.5273-0.36328 4.1934-0.36328z" color="#000000" color-rendering="auto" dominant-baseline="auto" fill-opacity=".098214" image-rendering="auto" shape-rendering="auto" solid-color="#000000" style="font-feature-settings:normal;font-variant-alternates:normal;font-variant-caps:normal;font-variant-ligatures:normal;font-variant-numeric:normal;font-variant-position:normal;isolation:auto;mix-blend-mode:normal;shape-padding:0;text-decoration-color:#000000;text-decoration-line:none;text-decoration-style:solid;text-indent:0;text-orientation:mixed;text-transform:none;white-space:normal"/>
<path d="m96.263 161.45c-3.3449 0-8.0393 1.188-13.391 0.0399l-0.73788 3.4301c1.7101 0.36683 3.3688 0.52673 4.9258 0.57834v26.633h-4.8461v3.5099h13.711v-3.5099h-5.3546v-11.776h5.0754c0.14548 0 0.2857-6e-3 0.42877-0.01l9.732 14.518 0.51851 0.77776h0.9373 5.0256v-3.5099h-4.0882l-8.336-12.424c4.3831-1.4279 6.9516-5.0304 7.08-8.7449 0.19687-4.784-3.8303-9.513-10.679-9.513zm0 3.5099c5.3752 0 7.2699 2.9673 7.1694 5.8831-0.1005 2.9158-2.312 6.0027-7.7876 6.0027h-5.0754v-11.397c2.5085-0.15479 4.5196-0.4886 5.6936-0.4886z" color="#000000" fill="#d1eaff" fill-opacity=".93918" style="text-decoration-line:none;text-indent:0;text-transform:none"/>
</g>
</svg>
