<?xml version="1.0" encoding="UTF-8"?>
<!-- Created with Inkscape (http://www.inkscape.org/) -->
<svg version="1.1" viewBox="0 0 96 96" xmlns="http://www.w3.org/2000/svg" xmlns:cc="http://creativecommons.org/ns#" xmlns:dc="http://purl.org/dc/elements/1.1/" xmlns:rdf="http://www.w3.org/1999/02/22-rdf-syntax-ns#" xmlns:xlink="http://www.w3.org/1999/xlink">
<defs>
<linearGradient id="linearGradient4477">
<stop stop-color="#b3cdd3" offset="0"/>
<stop stop-color="#487891" offset="1"/>
</linearGradient>
<linearGradient id="linearGradient4286">
<stop stop-color="#0073c2" offset="0"/>
<stop stop-color="#e1f3ff" offset=".25"/>
<stop stop-color="#4d9be6" offset=".5"/>
<stop stop-color="#e1f3ff" offset=".75"/>
<stop stop-color="#0073c2" offset="1"/>
</linearGradient>
<linearGradient id="linearGradient5700">
<stop stop-color="#fff" stop-opacity="0" offset="0"/>
<stop stop-color="#fff" stop-opacity=".85135" offset=".036815"/>
<stop stop-color="#fff" stop-opacity="0" offset=".065061"/>
<stop stop-color="#fff" stop-opacity="0" offset=".94494"/>
<stop stop-color="#fff" stop-opacity=".85135" offset=".96582"/>
<stop stop-color="#fff" stop-opacity="0" offset="1"/>
</linearGradient>
<linearGradient id="linearGradient3888-8-4-8-4-6-9-0-8-7-9">
<stop stop-color="#fff" offset="0"/>
<stop stop-color="#fff" stop-opacity="0" offset="1"/>
</linearGradient>
<linearGradient id="linearGradient4091-0-3-0-7">
<stop stop-color="#fff" offset="0"/>
<stop stop-color="#fff" offset=".8"/>
<stop stop-color="#fff" stop-opacity="0" offset="1"/>
</linearGradient>
<linearGradient id="linearGradient3832-0-6-1-1">
<stop offset="0"/>
<stop stop-opacity=".58824" offset=".1"/>
<stop stop-opacity=".58824" offset=".9"/>
<stop offset="1"/>
</linearGradient>
<linearGradient id="linearGradient6139-0">
<stop stop-color="#b7b7b7" offset="0"/>
<stop stop-color="#fff" offset=".25"/>
<stop stop-color="#9d9d9d" offset=".5"/>
<stop stop-color="#fafafa" offset=".75"/>
<stop stop-color="#b7b7b7" offset="1"/>
</linearGradient>
<linearGradient id="linearGradient4161" x1="6" x2="90" y1="47" y2="47" gradientTransform="matrix(.53434 0 0 .53354 -36.33 -43.19)" gradientUnits="userSpaceOnUse" xlink:href="#linearGradient6139-0"/>
<radialGradient id="radialGradient4163" cx="158" cy="6.2132" r="41" gradientTransform="matrix(0 .86483 -1.0891 0 -3.9145 -172.59)" gradientUnits="userSpaceOnUse" xlink:href="#linearGradient3888-8-4-8-4-6-9-0-8-7-9"/>
<radialGradient id="radialGradient4165" cx="48" cy="-27" r="42" gradientTransform="matrix(-.57291 0 0 -.46685 16.818 -53.127)" gradientUnits="userSpaceOnUse" xlink:href="#linearGradient4091-0-3-0-7"/>
<linearGradient id="linearGradient4167" x1="-94" x2="-10.188" y1="82.984" y2="82.984" gradientTransform="matrix(.53434 0 0 .47434 17.104 -38.152)" gradientUnits="userSpaceOnUse" xlink:href="#linearGradient3832-0-6-1-1"/>
<linearGradient id="linearGradient4169" x1="62" x2="62" y1="8" y2="68" gradientTransform="matrix(.55802 0 0 .50814 -37.357 -42.841)" gradientUnits="userSpaceOnUse" xlink:href="#linearGradient3888-8-4-8-4-6-9-0-8-7-9"/>
<radialGradient id="radialGradient4171" cx="48" cy="43" r="38" gradientTransform="matrix(.55802 0 0 .46802 -37.357 -41.116)" gradientUnits="userSpaceOnUse" xlink:href="#linearGradient4477"/>
<linearGradient id="linearGradient4173" x1="6" x2="90" y1="47" y2="47" gradientTransform="matrix(.53434 0 0 .53354 -36.33 -43.19)" gradientUnits="userSpaceOnUse" xlink:href="#linearGradient5700"/>
<linearGradient id="linearGradient4289" x1="-19.46" x2="-12.14" y1="32.545" y2="32.545" gradientTransform="matrix(.67364 0 0 .48708 -.35674 -10.106)" gradientUnits="userSpaceOnUse" xlink:href="#linearGradient4286"/>
<linearGradient id="linearGradient4293" x1="-19.46" x2="-12.14" y1="32.545" y2="32.545" gradientTransform="matrix(.67364 0 0 .48708 48.696 -10.106)" gradientUnits="userSpaceOnUse" xlink:href="#linearGradient4286"/>
<linearGradient id="linearGradient4297" x1="-19.46" x2="-12.14" y1="32.545" y2="32.545" gradientTransform="matrix(.67262 0 0 .48782 -20.588 -30.383)" gradientUnits="userSpaceOnUse" xlink:href="#linearGradient4286"/>
<linearGradient id="linearGradient4301" x1="-19.46" x2="-12.14" y1="32.545" y2="32.545" gradientTransform="matrix(.67262 0 0 .48782 30.35 -30.383)" gradientUnits="userSpaceOnUse" xlink:href="#linearGradient4286"/>
<linearGradient id="linearGradient4176">
<stop offset="0"/>
<stop stop-color="#393939" offset="1"/>
</linearGradient>
<linearGradient id="linearGradient4236">
<stop stop-color="#ffdf39" offset="0"/>
<stop stop-color="#eb9c00" stop-opacity="0" offset="1"/>
</linearGradient>
<linearGradient id="linearGradient5237" x1="6" x2="90" y1="47" y2="47" gradientTransform="matrix(.53434 0 0 .53354 -36.33 6.5242)" gradientUnits="userSpaceOnUse" xlink:href="#linearGradient6139-0"/>
<radialGradient id="radialGradient5239" cx="158" cy="6.2132" r="41" gradientTransform="matrix(0 .86483 -1.0891 0 -3.9145 -122.88)" gradientUnits="userSpaceOnUse" xlink:href="#linearGradient3888-8-4-8-4-6-9-0-8-7-9"/>
<radialGradient id="radialGradient5241" cx="48" cy="-27" r="42" gradientTransform="matrix(-.57291 0 0 -.46685 16.818 -3.4132)" gradientUnits="userSpaceOnUse" xlink:href="#linearGradient4091-0-3-0-7"/>
<linearGradient id="linearGradient5243" x1="-94" x2="-10.188" y1="82.984" y2="82.984" gradientTransform="matrix(.53434 0 0 .47434 17.104 11.562)" gradientUnits="userSpaceOnUse" xlink:href="#linearGradient3832-0-6-1-1"/>
<linearGradient id="linearGradient5245" x1="62" x2="62" y1="8" y2="68" gradientTransform="matrix(.55802 0 0 .50814 -37.357 6.8731)" gradientUnits="userSpaceOnUse" xlink:href="#linearGradient3888-8-4-8-4-6-9-0-8-7-9"/>
<radialGradient id="radialGradient5247" cx="48" cy="43" r="38" gradientTransform="matrix(.55802 0 0 .46802 -37.357 8.5981)" gradientUnits="userSpaceOnUse" xlink:href="#linearGradient4477"/>
<linearGradient id="linearGradient5249" x1="53" x2="53" y1="74" y2="32.988" gradientTransform="matrix(.47322 0 0 .4725 -33.286 6.0168)" gradientUnits="userSpaceOnUse" xlink:href="#linearGradient3888-8-4-8-4-6-9-0-8-7-9"/>
<linearGradient id="linearGradient5251" x1="48" x2="48" y1="24" y2="72" gradientTransform="matrix(.47322 0 0 .4725 -33.286 6.0168)" gradientUnits="userSpaceOnUse" xlink:href="#linearGradient4176"/>
<linearGradient id="linearGradient5253" x1="48" x2="48" y1="72" y2="24" gradientTransform="matrix(.47322 0 0 .4725 -33.286 6.0168)" gradientUnits="userSpaceOnUse" xlink:href="#linearGradient3888-8-4-8-4-6-9-0-8-7-9"/>
<radialGradient id="radialGradient5255" cx="48" cy="70" r="16" gradientTransform="matrix(.56194 0 0 .26578 -37.545 18.774)" gradientUnits="userSpaceOnUse" xlink:href="#linearGradient3888-8-4-8-4-6-9-0-8-7-9"/>
<linearGradient id="linearGradient5257" x1="33" x2="33" y1="68" y2="61" gradientTransform="matrix(.23661 0 0 .4725 -24.769 6.0168)" gradientUnits="userSpaceOnUse" xlink:href="#linearGradient4236"/>
<linearGradient id="linearGradient5259" x1="33" x2="33" y1="68" y2="61" gradientTransform="matrix(.23661 0 0 .4725 -22.876 6.0168)" gradientUnits="userSpaceOnUse" xlink:href="#linearGradient4236"/>
<linearGradient id="linearGradient5261" x1="33" x2="33" y1="68" y2="61" gradientTransform="matrix(.23661 0 0 .4725 -20.983 6.0168)" gradientUnits="userSpaceOnUse" xlink:href="#linearGradient4236"/>
<linearGradient id="linearGradient5263" x1="33" x2="33" y1="68" y2="61" gradientTransform="matrix(.23661 0 0 .4725 -19.09 6.0168)" gradientUnits="userSpaceOnUse" xlink:href="#linearGradient4236"/>
<linearGradient id="linearGradient5265" x1="33" x2="33" y1="68" y2="61" gradientTransform="matrix(.23661 0 0 .4725 -17.197 6.0168)" gradientUnits="userSpaceOnUse" xlink:href="#linearGradient4236"/>
<linearGradient id="linearGradient5267" x1="33" x2="33" y1="68" y2="61" gradientTransform="matrix(.23661 0 0 .4725 -15.304 6.0168)" gradientUnits="userSpaceOnUse" xlink:href="#linearGradient4236"/>
<linearGradient id="linearGradient5269" x1="33" x2="33" y1="68" y2="61" gradientTransform="matrix(.23661 0 0 .4725 -13.411 6.0168)" gradientUnits="userSpaceOnUse" xlink:href="#linearGradient4236"/>
<linearGradient id="linearGradient5271" x1="33" x2="33" y1="68" y2="61" gradientTransform="matrix(.23661 0 0 .4725 -11.519 6.0168)" gradientUnits="userSpaceOnUse" xlink:href="#linearGradient4236"/>
<linearGradient id="linearGradient5273" x1="6" x2="90" y1="47" y2="47" gradientTransform="matrix(.53434 0 0 .53354 -36.33 6.5242)" gradientUnits="userSpaceOnUse" xlink:href="#linearGradient5700"/>
<linearGradient id="linearGradient4609" x1="6" x2="90" y1="47" y2="47" gradientTransform="matrix(.53434 0 0 .53354 13.958 6.5242)" gradientUnits="userSpaceOnUse" xlink:href="#linearGradient6139-0"/>
<radialGradient id="radialGradient4611" cx="158" cy="6.2132" r="41" gradientTransform="matrix(0 .86483 -1.0891 0 46.373 -122.88)" gradientUnits="userSpaceOnUse" xlink:href="#linearGradient3888-8-4-8-4-6-9-0-8-7-9"/>
<radialGradient id="radialGradient4613" cx="48" cy="-27" r="42" gradientTransform="matrix(-.57291 0 0 -.46685 67.105 -3.4132)" gradientUnits="userSpaceOnUse" xlink:href="#linearGradient4091-0-3-0-7"/>
<linearGradient id="linearGradient4615" x1="-94" x2="-10.188" y1="82.984" y2="82.984" gradientTransform="matrix(.53434 0 0 .47434 67.392 11.562)" gradientUnits="userSpaceOnUse" xlink:href="#linearGradient3832-0-6-1-1"/>
<linearGradient id="linearGradient4617" x1="62" x2="62" y1="8" y2="68" gradientTransform="matrix(.55802 0 0 .50814 12.93 6.8731)" gradientUnits="userSpaceOnUse" xlink:href="#linearGradient3888-8-4-8-4-6-9-0-8-7-9"/>
<radialGradient id="radialGradient4619" cx="48" cy="43" r="38" gradientTransform="matrix(.55802 0 0 .46802 12.93 8.5981)" gradientUnits="userSpaceOnUse" xlink:href="#linearGradient4477"/>
<linearGradient id="linearGradient4621" x1="6" x2="90" y1="47" y2="47" gradientTransform="matrix(.53434 0 0 .53354 13.958 6.5242)" gradientUnits="userSpaceOnUse" xlink:href="#linearGradient5700"/>
<linearGradient id="linearGradient4677" x1="6" x2="90" y1="47" y2="47" gradientTransform="matrix(.53434 0 0 .53354 13.958 -43.19)" gradientUnits="userSpaceOnUse" xlink:href="#linearGradient6139-0"/>
<radialGradient id="radialGradient4679" cx="158" cy="6.2132" r="41" gradientTransform="matrix(0 .86483 -1.0891 0 46.373 -172.59)" gradientUnits="userSpaceOnUse" xlink:href="#linearGradient3888-8-4-8-4-6-9-0-8-7-9"/>
<radialGradient id="radialGradient4681" cx="48" cy="-27" r="42" gradientTransform="matrix(-.57291 0 0 -.46685 67.105 -53.127)" gradientUnits="userSpaceOnUse" xlink:href="#linearGradient4091-0-3-0-7"/>
<linearGradient id="linearGradient4683" x1="-94" x2="-10.188" y1="82.984" y2="82.984" gradientTransform="matrix(.53434 0 0 .47434 67.392 -38.152)" gradientUnits="userSpaceOnUse" xlink:href="#linearGradient3832-0-6-1-1"/>
<linearGradient id="linearGradient4685" x1="62" x2="62" y1="8" y2="68" gradientTransform="matrix(.55802 0 0 .50814 12.93 -42.841)" gradientUnits="userSpaceOnUse" xlink:href="#linearGradient3888-8-4-8-4-6-9-0-8-7-9"/>
<radialGradient id="radialGradient4687" cx="48" cy="43" r="38" gradientTransform="matrix(.55802 0 0 .46802 12.93 -41.116)" gradientUnits="userSpaceOnUse" xlink:href="#linearGradient4477"/>
<linearGradient id="linearGradient4689" x1="53" x2="53" y1="74" y2="32.988" gradientTransform="matrix(.47322 0 0 .4725 17.001 -43.697)" gradientUnits="userSpaceOnUse" xlink:href="#linearGradient3888-8-4-8-4-6-9-0-8-7-9"/>
<linearGradient id="linearGradient4691" x1="48" x2="48" y1="24" y2="72" gradientTransform="matrix(.47322 0 0 .4725 17.001 -43.697)" gradientUnits="userSpaceOnUse" xlink:href="#linearGradient4176"/>
<linearGradient id="linearGradient4693" x1="48" x2="48" y1="72" y2="24" gradientTransform="matrix(.47322 0 0 .4725 17.001 -43.697)" gradientUnits="userSpaceOnUse" xlink:href="#linearGradient3888-8-4-8-4-6-9-0-8-7-9"/>
<radialGradient id="radialGradient4695" cx="48" cy="70" r="16" gradientTransform="matrix(.56194 0 0 .26578 12.742 -30.94)" gradientUnits="userSpaceOnUse" xlink:href="#linearGradient3888-8-4-8-4-6-9-0-8-7-9"/>
<linearGradient id="linearGradient4697" x1="33" x2="33" y1="68" y2="61" gradientTransform="matrix(.23661 0 0 .4725 25.519 -43.697)" gradientUnits="userSpaceOnUse" xlink:href="#linearGradient4236"/>
<linearGradient id="linearGradient4699" x1="33" x2="33" y1="68" y2="61" gradientTransform="matrix(.23661 0 0 .4725 27.412 -43.697)" gradientUnits="userSpaceOnUse" xlink:href="#linearGradient4236"/>
<linearGradient id="linearGradient4701" x1="33" x2="33" y1="68" y2="61" gradientTransform="matrix(.23661 0 0 .4725 29.305 -43.697)" gradientUnits="userSpaceOnUse" xlink:href="#linearGradient4236"/>
<linearGradient id="linearGradient4703" x1="33" x2="33" y1="68" y2="61" gradientTransform="matrix(.23661 0 0 .4725 31.198 -43.697)" gradientUnits="userSpaceOnUse" xlink:href="#linearGradient4236"/>
<linearGradient id="linearGradient4705" x1="33" x2="33" y1="68" y2="61" gradientTransform="matrix(.23661 0 0 .4725 33.09 -43.697)" gradientUnits="userSpaceOnUse" xlink:href="#linearGradient4236"/>
<linearGradient id="linearGradient4707" x1="33" x2="33" y1="68" y2="61" gradientTransform="matrix(.23661 0 0 .4725 34.983 -43.697)" gradientUnits="userSpaceOnUse" xlink:href="#linearGradient4236"/>
<linearGradient id="linearGradient4709" x1="33" x2="33" y1="68" y2="61" gradientTransform="matrix(.23661 0 0 .4725 36.876 -43.697)" gradientUnits="userSpaceOnUse" xlink:href="#linearGradient4236"/>
<linearGradient id="linearGradient4711" x1="33" x2="33" y1="68" y2="61" gradientTransform="matrix(.23661 0 0 .4725 38.769 -43.697)" gradientUnits="userSpaceOnUse" xlink:href="#linearGradient4236"/>
<linearGradient id="linearGradient4713" x1="6" x2="90" y1="47" y2="47" gradientTransform="matrix(.53434 0 0 .53354 13.958 -43.19)" gradientUnits="userSpaceOnUse" xlink:href="#linearGradient5700"/>
</defs>
<metadata>
<rdf:RDF>
<cc:Work rdf:about="">
<dc:format>image/svg+xml</dc:format>
<dc:type rdf:resource="http://purl.org/dc/dcmitype/StillImage"/>
<dc:title/>
</cc:Work>
</rdf:RDF>
</metadata>
<g transform="translate(0,80)">
<g transform="matrix(1.0034 0 0 1.005 33.489 -38.527)">
<g transform="matrix(.99657 0 0 .99507 -173.87 39.054)"></g>
<g transform="matrix(.99476 0 0 1 .074407 -.24877)">
<rect x="-180.21" y="-34.923" width="96.174" height="95.526" rx="3.5" ry="3.5" fill="#fff" fill-opacity=".58824"/>
<path d="m8.5547-40.522h-38.473c-1.7762 0-3.206 1.4277-3.206 3.2012v38.415c0 1.7735 1.4299 3.2012 3.206 3.2012h38.473c1.7762 0 3.206-1.4277 3.206-3.2012v-38.415c0-1.7735-1.4299-3.2012-3.206-3.2012z" fill="url(#linearGradient4161)"/>
<path d="m-29.918-39.989c-1.4894 0-2.6717 1.1806-2.6717 2.6677v35.38c0.5721 0.86901 1.548 1.4506 2.6717 1.4506h38.473c1.1238 0 2.0996-0.58154 2.6717-1.4506v-35.38c0-1.4871-1.1823-2.6677-2.6717-2.6677z" fill="url(#radialGradient4163)" opacity=".2"/>
<path d="m-29.918-40.522c-1.7762 0-3.206 1.4277-3.206 3.2012v8.003h0.53434v-8.003c0-1.4871 1.1823-2.6677 2.6717-2.6677h38.473c1.4894 0 2.6717 1.1806 2.6717 2.6677v8.003h0.53434v-8.003c0-1.7735-1.4299-3.2012-3.206-3.2012z" fill="url(#radialGradient4165)" opacity=".45"/>
<path d="m-33.124-1.8718v3.3204c0 1.5767 1.4299 2.8461 3.206 2.8461h38.473c1.7762 0 3.206-1.2693 3.206-2.8461v-3.3204c0 1.5767-1.4299 2.8461-3.206 2.8461h-38.473c-1.7762 0-3.206-1.2693-3.206-2.8461z" fill="url(#linearGradient4167)" opacity=".46965"/>
<path d="m-29.545-13.369c-0.88414 0-1.7117 0.42998-2.2321 1.0639v7.0663c0 1.126 0.99551 2.0325 2.2321 2.0325h37.946c1.2366 0 2.2321-0.90652 2.2321-2.0325v-7.0663c-0.52043-0.63394-1.3479-1.0639-2.2321-1.0639zm0 1.5244h37.946c0.63759 0 1.116 0.43568 1.116 1.0163v5.5895c0 0.58059-0.47845 1.0163-1.116 1.0163h-37.946c-0.63759 0-1.116-0.43568-1.116-1.0163v-5.5895c0-0.58059 0.47845-1.0163 1.116-1.0163z" color="#000000" opacity=".02" style="text-decoration-line:none;text-indent:0;text-transform:none"/>
<path d="m-16.152-38.776c3.9066 12.262 7.9661 24.236 12.085 35.57h12.468c1.2366 0 2.2321-0.90652 2.2321-2.0325v-31.504c0-1.126-0.99551-2.0326-2.2321-2.0326z" color="#000000" fill="url(#linearGradient4169)" opacity=".45"/>
<path d="m-29.545-38.776h37.946c1.2366 0 2.2321 0.90652 2.2321 2.0325v31.504c0 1.126-0.99551 2.0325-2.2321 2.0325h-37.946c-1.2366 0-2.2321-0.90652-2.2321-2.0325v-31.504c0-1.126 0.99551-2.0325 2.2321-2.0325z" color="#000000" fill="url(#radialGradient4171)"/>
<path d="m-10.448-31.906c-5.5104 0-11.047 2.1575-15.251 6.4433l2.8546 2.8683c6.8479-6.9806 17.946-6.9806 24.794 0l2.8138-2.8683c-4.2043-4.2858-9.7003-6.4433-15.211-6.4433zm0 5.6535c-4.0911 0-8.1745 1.5986-11.296 4.7805l2.6914 2.7436c4.7458-4.8377 12.463-4.8377 17.209 0l2.6914-2.7436c-3.1214-3.1818-7.2048-4.7805-11.296-4.7805zm0 5.3209c-2.7552 0-5.5236 1.058-7.6257 3.2009l7.6257 7.7735 7.585-7.7319c-0.00698-7e-3 0.00698-0.03453 0-0.04157-2.1022-2.1429-4.8298-3.2009-7.585-3.2009z" fill="#fff" fill-opacity=".56735"/>
<path d="m-11.35-32.092c-5.2641 0-10.541 2.1351-14.557 6.3532l2.7209 2.814c0.14633-0.15368 0.29166-0.30285 0.44197-0.44965l-1.395-1.436c4.0164-4.218 9.2932-6.3532 14.557-6.3532 2.8297 0 5.6547 0.63394 8.2869 1.8566-3.1132-1.8443-6.578-2.7849-10.055-2.7849zm0 5.5699c-1.7098 0-3.4105 0.29826-5.0412 0.8993-0.07804 0.03651-0.15718 0.06371-0.2348 0.10153-1.7346 0.84537-3.3616 2.0218-4.7926 3.5247l-0.26242-0.27559c-0.1536 0.14881-0.30666 0.29305-0.45578 0.44965l2.5689 2.6979c0.14889-0.15636 0.31478-0.28906 0.46959-0.43515l-1.2707-1.3345c2.9819-3.1316 6.8786-4.6996 10.787-4.6996 2.0381 0 4.0755 0.43732 5.9804 1.2909-2.3811-1.4781-5.0653-2.2193-7.7482-2.2193zm8.3698 0.79777c1.2446 0.75414 2.4159 1.6814 3.4805 2.7994l0.3591-0.37713c-1.1947-1.0028-2.4837-1.8128-3.8396-2.4223zm-8.3698 4.4385c-0.71915 0-1.433 0.07607-2.1408 0.23208-1.5716 0.58815-3.0528 1.538-4.3092 2.8575l-0.37291-0.39163c-0.15534 0.1444-0.30715 0.29356-0.45578 0.44965l7.2787 7.6586 0.44197-0.46416-5.9528-6.2661c2.0082-2.109 4.6466-3.1476 7.2787-3.1476 1.2489 0 2.4979 0.23907 3.6739 0.71074-1.6563-1.0926-3.5439-1.6391-5.4417-1.6391zm6.0632 0.37713c0.77099 0.4941 1.502 1.0843 2.1684 1.7841l0.33147-0.34812c-0.78424-0.59296-1.627-1.0733-2.4999-1.436z" fill="#1c2422" fill-opacity=".39147"/>
<path d="m-18.817-38.448h26.102c1.2077 0 2.18 0.88568 2.18 1.9858v30.78c0 1.1002-0.97228 1.9858-2.18 1.9858-26.005-34.754-0.27528-0.14273-26.102-34.752z" color="#000000" fill="#fff" fill-opacity=".14694"/>
<path d="m-29.102-38.401h37.06c1.2077 0 2.18 0.88568 2.18 1.9858v30.78c0 1.1002-0.97228 1.9858-2.18 1.9858h-37.06c-1.2077 0-2.18-0.88568-2.18-1.9858v-30.78c0-1.1002 0.97228-1.9858 2.18-1.9858z" color="#000000" fill="none" stroke="#000" stroke-opacity=".7758" stroke-width="1.0734"/>
<path d="m8.5547-40.522h-38.473c-1.7762 0-3.206 1.4277-3.206 3.2012v38.415c0 1.7735 1.4299 3.2012 3.206 3.2012h38.473c1.7762 0 3.206-1.4277 3.206-3.2012v-38.415c0-1.7735-1.4299-3.2012-3.206-3.2012z" fill="url(#linearGradient4173)" opacity=".76289"/>
<path d="m8.5547 9.1919h-38.473c-1.7762 0-3.206 1.4277-3.206 3.2012v38.415c0 1.7735 1.4299 3.2012 3.206 3.2012h38.473c1.7762 0 3.206-1.4277 3.206-3.2012v-38.415c0-1.7735-1.4299-3.2012-3.206-3.2012z" fill="url(#linearGradient5237)"/>
<path d="m-29.918 9.7254c-1.4894 0-2.6717 1.1806-2.6717 2.6677v35.38c0.5721 0.86901 1.548 1.4506 2.6717 1.4506h38.473c1.1238 0 2.0996-0.58154 2.6717-1.4506v-35.38c0-1.4871-1.1823-2.6677-2.6717-2.6677z" fill="url(#radialGradient5239)" opacity=".2"/>
<path d="m-29.918 9.1919c-1.7762 0-3.206 1.4277-3.206 3.2012v8.003h0.53434v-8.003c0-1.4871 1.1823-2.6677 2.6717-2.6677h38.473c1.4894 0 2.6717 1.1806 2.6717 2.6677v8.003h0.53434v-8.003c0-1.7735-1.4299-3.2012-3.206-3.2012z" fill="url(#radialGradient5241)" opacity=".45"/>
<path d="m-33.124 47.842v3.3204c0 1.5767 1.4299 2.8461 3.206 2.8461h38.473c1.7762 0 3.206-1.2693 3.206-2.8461v-3.3204c0 1.5767-1.4299 2.8461-3.206 2.8461h-38.473c-1.7762 0-3.206-1.2693-3.206-2.8461z" fill="url(#linearGradient5243)" opacity=".46965"/>
<path d="m-29.545 36.345c-0.88414 0-1.7117 0.42998-2.2321 1.0639v7.0663c0 1.126 0.99551 2.0325 2.2321 2.0325h37.946c1.2366 0 2.2321-0.90652 2.2321-2.0325v-7.0663c-0.52043-0.63394-1.3479-1.0639-2.2321-1.0639zm0 1.5244h37.946c0.63759 0 1.116 0.43568 1.116 1.0163v5.5895c0 0.58059-0.47845 1.0163-1.116 1.0163h-37.946c-0.63759 0-1.116-0.43568-1.116-1.0163v-5.5895c0-0.58059 0.47845-1.0163 1.116-1.0163z" color="#000000" opacity=".02" style="text-decoration-line:none;text-indent:0;text-transform:none"/>
<path d="m-16.152 10.938c3.9066 12.262 7.9661 24.236 12.085 35.57h12.468c1.2366 0 2.2321-0.90652 2.2321-2.0325v-31.504c0-1.126-0.99551-2.0326-2.2321-2.0326z" color="#000000" fill="url(#linearGradient5245)" opacity=".45"/>
<path d="m-29.545 10.938h37.946c1.2366 0 2.2321 0.90652 2.2321 2.0325v31.504c0 1.126-0.99551 2.0325-2.2321 2.0325h-37.946c-1.2366 0-2.2321-0.90652-2.2321-2.0325v-31.504c0-1.126 0.99551-2.0325 2.2321-2.0325z" color="#000000" fill="url(#radialGradient5247)"/>
<path d="m-14.447 16.427a0.93904 0.93763 0 0 0-0.84292 0.93024v0.95977h-0.96122a0.93904 0.93763 0 0 0-0.93164 0.93024v0.95977h-3.3273c-1.2904 0-2.3513 1.0593-2.3513 2.3477v16.065c0 1.2885 1.0609 2.3477 2.3513 2.3477h19.875c1.2904 0 2.3513-1.0593 2.3513-2.3477v-16.065c0-1.2885-1.0609-2.3477-2.3513-2.3477h-3.3273v-0.95977a0.93904 0.93763 0 0 0-0.93164-0.93024h-0.96122v-0.95977a0.93904 0.93763 0 0 0-0.93164-0.93024h-7.5715a0.93904 0.93763 0 0 0-0.08873 0z" color="#000000" fill="url(#linearGradient5249)" opacity=".8"/>
<path d="m-14.358 17.357v1.89h-1.8929v1.89h-4.2589c-0.78648 0-1.4196 0.63221-1.4196 1.4175v16.065c0 0.7853 0.63316 1.4175 1.4196 1.4175h19.875c0.78648 0 1.4196-0.63221 1.4196-1.4175v-16.065c0-0.7853-0.63316-1.4175-1.4196-1.4175h-4.2589v-1.89h-1.8929v-1.89z" color="#000000" fill="url(#linearGradient5251)"/>
<path d="m-14.358 16.412v0.945h7.5715v-0.945zm-1.8929 1.89v0.945h1.8929v-0.945zm9.4643 0v0.945h1.8929v-0.945zm-13.723 1.89c-0.78648 0-1.4196 0.63221-1.4196 1.4175v0.945c0-0.7853 0.63316-1.4175 1.4196-1.4175h4.2589v-0.945zm15.616 0v0.945h4.2589c0.78648 0 1.4196 0.63221 1.4196 1.4175v-0.945c0-0.7853-0.63316-1.4175-1.4196-1.4175z" color="#000000" opacity=".15"/>
<path d="m-14.358 17.357v1.89h-1.8929v1.89h-4.2589c-0.78648 0-1.4196 0.63221-1.4196 1.4175v16.065c0 0.7853 0.63316 1.4175 1.4196 1.4175h19.875c0.78648 0 1.4196-0.63221 1.4196-1.4175v-16.065c0-0.7853-0.63316-1.4175-1.4196-1.4175h-4.2589v-1.89h-1.8929v-1.89zm0.93164 0.93024h5.7082v0.95977a0.93459 0.93318 0 0 0 0.93164 0.93024h0.96122v0.95977a0.93459 0.93318 0 0 0 0.93164 0.93024h4.2589c0.28494 0 0.488 0.20276 0.488 0.48727v16.065c0 0.28451-0.20306 0.48727-0.488 0.48727h-19.875c-0.28494 0-0.488-0.20276-0.488-0.48727v-16.065c0-0.28451 0.20306-0.48727 0.488-0.48727h4.2589a0.93459 0.93318 0 0 0 0.93164-0.93024v-0.95977h0.96122a0.93459 0.93318 0 0 0 0.93164-0.93024z" color="#000000" fill="url(#linearGradient5253)" opacity=".2"/>
<rect x="-19.563" y="31.532" width="17.982" height="8.505" color="#000000" fill="url(#radialGradient5255)" opacity=".2"/>
<rect x="-17.197" y="34.839" width=".47322" height="3.3075" color="#000000" fill="url(#linearGradient5257)"/>
<path d="m-14.358 16.884v0.4725h7.5715v-0.4725zm-1.8929 1.89v0.4725h1.8929v-0.4725zm9.4643 0v0.4725h1.8929v-0.4725zm-13.723 1.89c-0.78648 0-1.4196 0.63221-1.4196 1.4175v0.4725c0-0.7853 0.63316-1.4175 1.4196-1.4175h4.2589v-0.4725zm15.616 0v0.4725h4.2589c0.78648 0 1.4196 0.63221 1.4196 1.4175v-0.4725c0-0.7853-0.63316-1.4175-1.4196-1.4175z" color="#000000" opacity=".3"/>
<rect x="-15.304" y="34.839" width=".47322" height="3.3075" color="#000000" fill="url(#linearGradient5259)"/>
<rect x="-13.411" y="34.839" width=".47322" height="3.3075" color="#000000" fill="url(#linearGradient5261)"/>
<rect x="-11.519" y="34.839" width=".47322" height="3.3075" color="#000000" fill="url(#linearGradient5263)"/>
<rect x="-9.6257" y="34.839" width=".47322" height="3.3075" color="#000000" fill="url(#linearGradient5265)"/>
<rect x="-7.7328" y="34.839" width=".47322" height="3.3075" color="#000000" fill="url(#linearGradient5267)"/>
<rect x="-5.84" y="34.839" width=".47322" height="3.3075" color="#000000" fill="url(#linearGradient5269)"/>
<rect x="-3.9471" y="34.839" width=".47322" height="3.3075" color="#000000" fill="url(#linearGradient5271)"/>
<path d="m-18.817 11.267h26.102c1.2077 0 2.18 0.88568 2.18 1.9858v30.78c0 1.1002-0.97228 1.9858-2.18 1.9858-26.005-34.754-0.27528-0.14273-26.102-34.752z" color="#000000" fill="#fff" fill-opacity=".14694"/>
<path d="m-29.102 11.313h37.06c1.2077 0 2.18 0.88568 2.18 1.9858v30.78c0 1.1002-0.97228 1.9858-2.18 1.9858h-37.06c-1.2077 0-2.18-0.88568-2.18-1.9858v-30.78c0-1.1002 0.97228-1.9858 2.18-1.9858z" color="#000000" fill="none" stroke="#000" stroke-opacity=".7758" stroke-width="1.0734"/>
<path d="m8.5547 9.1919h-38.473c-1.7762 0-3.206 1.4277-3.206 3.2012v38.415c0 1.7735 1.4299 3.2012 3.206 3.2012h38.473c1.7762 0 3.206-1.4277 3.206-3.2012v-38.415c0-1.7735-1.4299-3.2012-3.206-3.2012z" fill="url(#linearGradient5273)" opacity=".76289"/>
<rect transform="matrix(0,-1,-1,0,0,0)" x="17.323" y="-17.988" width="4.7995" height="6.9616" rx="1.0285" ry=".74589" fill="url(#linearGradient4301)" stroke="#000" stroke-linecap="round" stroke-linejoin="round" stroke-width=".1054"/>
<rect x="35.649" y="2.2706" width="4.8067" height="6.9511" rx="1.03" ry=".74476" fill="url(#linearGradient4293)" stroke="#000" stroke-linecap="round" stroke-linejoin="round" stroke-width=".1054"/>
<rect x="-13.404" y="2.2706" width="4.8067" height="6.9511" rx="1.03" ry=".74476" fill="url(#linearGradient4289)" stroke="#000" stroke-linecap="round" stroke-linejoin="round" stroke-width=".1054"/>
<rect transform="matrix(0,-1,-1,0,0,0)" x="-33.615" y="-17.988" width="4.7995" height="6.9616" rx="1.0285" ry=".74589" fill="url(#linearGradient4297)" stroke="#000" stroke-linecap="round" stroke-linejoin="round" stroke-width=".1054"/>
<path d="m58.842 9.1919h-38.473c-1.7762 0-3.206 1.4277-3.206 3.2012v38.415c0 1.7735 1.4299 3.2012 3.206 3.2012h38.473c1.7762 0 3.206-1.4277 3.206-3.2012v-38.415c0-1.7735-1.4299-3.2012-3.206-3.2012z" fill="url(#linearGradient4609)"/>
<path d="m20.37 9.7254c-1.4894 0-2.6717 1.1806-2.6717 2.6677v35.38c0.5721 0.86901 1.548 1.4506 2.6717 1.4506h38.473c1.1238 0 2.0996-0.58154 2.6717-1.4506v-35.38c0-1.4871-1.1823-2.6677-2.6717-2.6677z" fill="url(#radialGradient4611)" opacity=".2"/>
<path d="m20.37 9.1919c-1.7762 0-3.206 1.4277-3.206 3.2012v8.003h0.53434v-8.003c0-1.4871 1.1823-2.6677 2.6717-2.6677h38.473c1.4894 0 2.6717 1.1806 2.6717 2.6677v8.003h0.53434v-8.003c0-1.7735-1.4299-3.2012-3.206-3.2012z" fill="url(#radialGradient4613)" opacity=".45"/>
<path d="m17.164 47.842v3.3204c0 1.5767 1.4299 2.8461 3.206 2.8461h38.473c1.7762 0 3.206-1.2693 3.206-2.8461v-3.3204c0 1.5767-1.4299 2.8461-3.206 2.8461h-38.473c-1.7762 0-3.206-1.2693-3.206-2.8461z" fill="url(#linearGradient4615)" opacity=".46965"/>
<path d="m20.743 36.345c-0.88414 0-1.7117 0.42998-2.2321 1.0639v7.0663c0 1.126 0.99551 2.0325 2.2321 2.0325h37.946c1.2366 0 2.2321-0.90652 2.2321-2.0325v-7.0663c-0.52043-0.63394-1.3479-1.0639-2.2321-1.0639zm0 1.5244h37.946c0.63759 0 1.116 0.43568 1.116 1.0163v5.5895c0 0.58059-0.47845 1.0163-1.116 1.0163h-37.946c-0.63759 0-1.116-0.43568-1.116-1.0163v-5.5895c0-0.58059 0.47845-1.0163 1.116-1.0163z" color="#000000" opacity=".02" style="text-decoration-line:none;text-indent:0;text-transform:none"/>
<path d="m34.135 10.938c3.9066 12.262 7.9661 24.236 12.085 35.57h12.468c1.2366 0 2.2321-0.90652 2.2321-2.0325v-31.504c0-1.126-0.99551-2.0326-2.2321-2.0326z" color="#000000" fill="url(#linearGradient4617)" opacity=".45"/>
<path d="m20.743 10.938h37.946c1.2366 0 2.2321 0.90652 2.2321 2.0325v31.504c0 1.126-0.99551 2.0325-2.2321 2.0325h-37.946c-1.2366 0-2.2321-0.90652-2.2321-2.0325v-31.504c0-1.126 0.99551-2.0325 2.2321-2.0325z" color="#000000" fill="url(#radialGradient4619)"/>
<path d="m39.84 17.808c-5.5104 0-11.047 2.1575-15.251 6.4433l2.8546 2.8683c6.8479-6.9806 17.946-6.9806 24.794 0l2.8138-2.8683c-4.2043-4.2858-9.7003-6.4433-15.211-6.4433zm0 5.6535c-4.0911 0-8.1745 1.5986-11.296 4.7805l2.6914 2.7436c4.7458-4.8377 12.463-4.8377 17.209 0l2.6914-2.7436c-3.1214-3.1818-7.2048-4.7805-11.296-4.7805zm0 5.3209c-2.7552 0-5.5236 1.058-7.6257 3.2009l7.6257 7.7735 7.585-7.7319c-7e-3 -7e-3 7e-3 -0.03453 0-0.04157-2.1022-2.1429-4.8298-3.2009-7.585-3.2009z" fill="#fff" fill-opacity=".56735"/>
<path d="m38.938 17.622c-5.2641 0-10.541 2.1351-14.557 6.3532l2.7209 2.814c0.14633-0.15368 0.29166-0.30285 0.44197-0.44965l-1.395-1.436c4.0164-4.218 9.2932-6.3532 14.557-6.3532 2.8297 0 5.6547 0.63394 8.2869 1.8566-3.1132-1.8443-6.578-2.7849-10.055-2.7849zm0 5.5699c-1.7098 0-3.4105 0.29826-5.0412 0.8993-0.07804 0.03651-0.15718 0.06371-0.2348 0.10153-1.7346 0.84537-3.3616 2.0218-4.7926 3.5247l-0.26242-0.27559c-0.1536 0.14881-0.30666 0.29305-0.45578 0.44965l2.5689 2.6979c0.14889-0.15636 0.31478-0.28906 0.46959-0.43515l-1.2707-1.3345c2.9819-3.1316 6.8786-4.6996 10.787-4.6996 2.0381 0 4.0755 0.43732 5.9804 1.2909-2.3811-1.4781-5.0653-2.2193-7.7482-2.2193zm8.3698 0.79777c1.2446 0.75414 2.4159 1.6814 3.4805 2.7994l0.3591-0.37713c-1.1947-1.0028-2.4837-1.8128-3.8396-2.4223zm-8.3698 4.4385c-0.71915 0-1.433 0.07607-2.1408 0.23208-1.5716 0.58815-3.0528 1.538-4.3092 2.8575l-0.37291-0.39163c-0.15534 0.1444-0.30715 0.29356-0.45578 0.44965l7.2787 7.6586 0.44197-0.46416-5.9528-6.2661c2.0082-2.109 4.6466-3.1476 7.2787-3.1476 1.2489 0 2.4979 0.23907 3.6739 0.71074-1.6563-1.0926-3.5439-1.6391-5.4417-1.6391zm6.0632 0.37713c0.77099 0.4941 1.502 1.0843 2.1684 1.7841l0.33147-0.34812c-0.78424-0.59296-1.627-1.0733-2.4999-1.436z" fill="#1c2422" fill-opacity=".39147"/>
<path d="m31.471 11.267h26.102c1.2077 0 2.18 0.88568 2.18 1.9858v30.78c0 1.1002-0.97228 1.9858-2.18 1.9858-26.005-34.754-0.27528-0.14273-26.102-34.752z" color="#000000" fill="#fff" fill-opacity=".14694"/>
<path d="m21.185 11.313h37.06c1.2077 0 2.18 0.88568 2.18 1.9858v30.78c0 1.1002-0.97228 1.9858-2.18 1.9858h-37.06c-1.2077 0-2.18-0.88568-2.18-1.9858v-30.78c0-1.1002 0.97228-1.9858 2.18-1.9858z" color="#000000" fill="none" stroke="#000" stroke-opacity=".7758" stroke-width="1.0734"/>
<path d="m58.842 9.1919h-38.473c-1.7762 0-3.206 1.4277-3.206 3.2012v38.415c0 1.7735 1.4299 3.2012 3.206 3.2012h38.473c1.7762 0 3.206-1.4277 3.206-3.2012v-38.415c0-1.7735-1.4299-3.2012-3.206-3.2012z" fill="url(#linearGradient4621)" opacity=".76289"/>
<path d="m58.842-40.522h-38.473c-1.7762 0-3.206 1.4277-3.206 3.2012v38.415c0 1.7735 1.4299 3.2012 3.206 3.2012h38.473c1.7762 0 3.206-1.4277 3.206-3.2012v-38.415c0-1.7735-1.4299-3.2012-3.206-3.2012z" fill="url(#linearGradient4677)"/>
<path d="m20.37-39.989c-1.4894 0-2.6717 1.1806-2.6717 2.6677v35.38c0.5721 0.86901 1.548 1.4506 2.6717 1.4506h38.473c1.1238 0 2.0996-0.58154 2.6717-1.4506v-35.38c0-1.4871-1.1823-2.6677-2.6717-2.6677z" fill="url(#radialGradient4679)" opacity=".2"/>
<path d="m20.37-40.522c-1.7762 0-3.206 1.4277-3.206 3.2012v8.003h0.53434v-8.003c0-1.4871 1.1823-2.6677 2.6717-2.6677h38.473c1.4894 0 2.6717 1.1806 2.6717 2.6677v8.003h0.53434v-8.003c0-1.7735-1.4299-3.2012-3.206-3.2012z" fill="url(#radialGradient4681)" opacity=".45"/>
<path d="m17.164-1.8718v3.3204c0 1.5767 1.4299 2.8461 3.206 2.8461h38.473c1.7762 0 3.206-1.2693 3.206-2.8461v-3.3204c0 1.5767-1.4299 2.8461-3.206 2.8461h-38.473c-1.7762 0-3.206-1.2693-3.206-2.8461z" fill="url(#linearGradient4683)" opacity=".46965"/>
<path d="m20.743-13.369c-0.88414 0-1.7117 0.42998-2.2321 1.0639v7.0663c0 1.126 0.99551 2.0325 2.2321 2.0325h37.946c1.2366 0 2.2321-0.90652 2.2321-2.0325v-7.0663c-0.52043-0.63394-1.3479-1.0639-2.2321-1.0639zm0 1.5244h37.946c0.63759 0 1.116 0.43568 1.116 1.0163v5.5895c0 0.58059-0.47845 1.0163-1.116 1.0163h-37.946c-0.63759 0-1.116-0.43568-1.116-1.0163v-5.5895c0-0.58059 0.47845-1.0163 1.116-1.0163z" color="#000000" opacity=".02" style="text-decoration-line:none;text-indent:0;text-transform:none"/>
<path d="m34.135-38.776c3.9066 12.262 7.9661 24.236 12.085 35.57h12.468c1.2366 0 2.2321-0.90652 2.2321-2.0325v-31.504c0-1.126-0.99551-2.0326-2.2321-2.0326z" color="#000000" fill="url(#linearGradient4685)" opacity=".45"/>
<path d="m20.743-38.776h37.946c1.2366 0 2.2321 0.90652 2.2321 2.0325v31.504c0 1.126-0.99551 2.0325-2.2321 2.0325h-37.946c-1.2366 0-2.2321-0.90652-2.2321-2.0325v-31.504c0-1.126 0.99551-2.0325 2.2321-2.0325z" color="#000000" fill="url(#radialGradient4687)"/>
<path d="m35.841-33.288a0.93904 0.93763 0 0 0-0.84292 0.93024v0.95977h-0.96122a0.93904 0.93763 0 0 0-0.93164 0.93024v0.95977h-3.3273c-1.2904 0-2.3513 1.0593-2.3513 2.3477v16.065c0 1.2885 1.0609 2.3477 2.3513 2.3477h19.875c1.2904 0 2.3513-1.0593 2.3513-2.3477v-16.065c0-1.2885-1.0609-2.3477-2.3513-2.3477h-3.3273v-0.95977a0.93904 0.93763 0 0 0-0.93164-0.93024h-0.96122v-0.95977a0.93904 0.93763 0 0 0-0.93164-0.93024h-7.5715a0.93904 0.93763 0 0 0-0.08873 0z" color="#000000" fill="url(#linearGradient4689)" opacity=".8"/>
<path d="m35.93-32.357v1.89h-1.8929v1.89h-4.2589c-0.78648 0-1.4196 0.63221-1.4196 1.4175v16.065c0 0.7853 0.63316 1.4175 1.4196 1.4175h19.875c0.78648 0 1.4196-0.63221 1.4196-1.4175v-16.065c0-0.7853-0.63316-1.4175-1.4196-1.4175h-4.2589v-1.89h-1.8929v-1.89z" color="#000000" fill="url(#linearGradient4691)"/>
<path d="m35.93-33.302v0.945h7.5715v-0.945zm-1.8929 1.89v0.945h1.8929v-0.945zm9.4643 0v0.945h1.8929v-0.945zm-13.723 1.89c-0.78648 0-1.4196 0.63221-1.4196 1.4175v0.945c0-0.7853 0.63316-1.4175 1.4196-1.4175h4.2589v-0.945zm15.616 0v0.945h4.2589c0.78648 0 1.4196 0.63221 1.4196 1.4175v-0.945c0-0.7853-0.63316-1.4175-1.4196-1.4175z" color="#000000" opacity=".15"/>
<path d="m35.93-32.357v1.89h-1.8929v1.89h-4.2589c-0.78648 0-1.4196 0.63221-1.4196 1.4175v16.065c0 0.7853 0.63316 1.4175 1.4196 1.4175h19.875c0.78648 0 1.4196-0.63221 1.4196-1.4175v-16.065c0-0.7853-0.63316-1.4175-1.4196-1.4175h-4.2589v-1.89h-1.8929v-1.89zm0.93164 0.93024h5.7082v0.95977a0.93459 0.93318 0 0 0 0.93164 0.93024h0.96122v0.95977a0.93459 0.93318 0 0 0 0.93164 0.93024h4.2589c0.28494 0 0.488 0.20276 0.488 0.48727v16.065c0 0.28451-0.20306 0.48727-0.488 0.48727h-19.875c-0.28494 0-0.488-0.20276-0.488-0.48727v-16.065c0-0.28451 0.20306-0.48727 0.488-0.48727h4.2589a0.93459 0.93318 0 0 0 0.93164-0.93024v-0.95977h0.96122a0.93459 0.93318 0 0 0 0.93164-0.93024z" color="#000000" fill="url(#linearGradient4693)" opacity=".2"/>
<rect x="30.724" y="-18.182" width="17.982" height="8.505" color="#000000" fill="url(#radialGradient4695)" opacity=".2"/>
<rect x="33.09" y="-14.875" width=".47322" height="3.3075" color="#000000" fill="url(#linearGradient4697)"/>
<path d="m35.93-32.83v0.4725h7.5715v-0.4725zm-1.8929 1.89v0.4725h1.8929v-0.4725zm9.4643 0v0.4725h1.8929v-0.4725zm-13.723 1.89c-0.78648 0-1.4196 0.63221-1.4196 1.4175v0.4725c0-0.7853 0.63316-1.4175 1.4196-1.4175h4.2589v-0.4725zm15.616 0v0.4725h4.2589c0.78648 0 1.4196 0.63221 1.4196 1.4175v-0.4725c0-0.7853-0.63316-1.4175-1.4196-1.4175z" color="#000000" opacity=".3"/>
<rect x="34.983" y="-14.875" width=".47322" height="3.3075" color="#000000" fill="url(#linearGradient4699)"/>
<rect x="36.876" y="-14.875" width=".47322" height="3.3075" color="#000000" fill="url(#linearGradient4701)"/>
<rect x="38.769" y="-14.875" width=".47322" height="3.3075" color="#000000" fill="url(#linearGradient4703)"/>
<rect x="40.662" y="-14.875" width=".47322" height="3.3075" color="#000000" fill="url(#linearGradient4705)"/>
<rect x="42.555" y="-14.875" width=".47322" height="3.3075" color="#000000" fill="url(#linearGradient4707)"/>
<rect x="44.448" y="-14.875" width=".47322" height="3.3075" color="#000000" fill="url(#linearGradient4709)"/>
<rect x="46.34" y="-14.875" width=".47322" height="3.3075" color="#000000" fill="url(#linearGradient4711)"/>
<path d="m31.471-38.448h26.102c1.2077 0 2.18 0.88568 2.18 1.9858v30.78c0 1.1002-0.97228 1.9858-2.18 1.9858-26.005-34.754-0.27528-0.14273-26.102-34.752z" color="#000000" fill="#fff" fill-opacity=".14694"/>
<path d="m21.185-38.401h37.06c1.2077 0 2.18 0.88568 2.18 1.9858v30.78c0 1.1002-0.97228 1.9858-2.18 1.9858h-37.06c-1.2077 0-2.18-0.88568-2.18-1.9858v-30.78c0-1.1002 0.97228-1.9858 2.18-1.9858z" color="#000000" fill="none" stroke="#000" stroke-opacity=".7758" stroke-width="1.0734"/>
<path d="m58.842-40.522h-38.473c-1.7762 0-3.206 1.4277-3.206 3.2012v38.415c0 1.7735 1.4299 3.2012 3.206 3.2012h38.473c1.7762 0 3.206-1.4277 3.206-3.2012v-38.415c0-1.7735-1.4299-3.2012-3.206-3.2012z" fill="url(#linearGradient4713)" opacity=".76289"/>
</g>
</g>
</g>
</svg>
