<?xml version="1.0" encoding="UTF-8"?>
<!-- Created with Inkscape (http://www.inkscape.org/) -->
<svg version="1.1" viewBox="0 0 96 96" xmlns="http://www.w3.org/2000/svg" xmlns:cc="http://creativecommons.org/ns#" xmlns:dc="http://purl.org/dc/elements/1.1/" xmlns:rdf="http://www.w3.org/1999/02/22-rdf-syntax-ns#" xmlns:xlink="http://www.w3.org/1999/xlink">
<defs>
<linearGradient id="linearGradient4071" x1="6" x2="90" y1="47" y2="47" gradientTransform="matrix(1.1071 0 0 1.1071 -4.9939 -3.6207)" gradientUnits="userSpaceOnUse">
<stop stop-color="#a9b2b4" offset="0"/>
<stop stop-color="#f6f7f8" offset=".25"/>
<stop stop-color="#96a1a4" offset=".5"/>
<stop stop-color="#f9fbfb" offset=".75"/>
<stop stop-color="#b3b8bb" offset="1"/>
</linearGradient>
<linearGradient id="linearGradient4129" x1="1.5" x2="94.5" y1="88.172" y2="88.172" gradientTransform="translate(.14895 .41503)" gradientUnits="userSpaceOnUse">
<stop offset="0"/>
<stop stop-opacity=".58824" offset=".1"/>
<stop stop-opacity=".58824" offset=".9"/>
<stop offset="1"/>
</linearGradient>
<radialGradient id="radialGradient7462" cx="13.948" cy="44.893" r="43.199" gradientTransform="matrix(.97513 0 0 .049191 34.048 80.582)" gradientUnits="userSpaceOnUse" xlink:href="#linearGradient3737"/>
<linearGradient id="linearGradient3737">
<stop stop-color="#fff" offset="0"/>
<stop stop-color="#fff" stop-opacity="0" offset="1"/>
</linearGradient>
<radialGradient id="radialGradient7464" cx="13.948" cy="44.893" r="43.199" gradientTransform="matrix(.88833 0 0 .049191 31.96 -90.317)" gradientUnits="userSpaceOnUse" xlink:href="#linearGradient3737"/>
<linearGradient id="linearGradient4767" x1="2.7714" x2="50.528" y1="-28.642" y2="14.514" gradientUnits="userSpaceOnUse" xlink:href="#linearGradient3737"/>
<clipPath id="clipPath4156-4-1">
<path d="m27.046-55.695-14.214 13.321h0.06127l15.653 21.771 10.231-10.546c-0.2169-1.1522-11.311-23.67-11.732-24.546zm-17.399 16.313-14.888 14.062 21.229 17.515 10.385-10.577zm31.491 12.951-9.7413 9.7136 8.9448 12.458 7.7808-7.555zm-49.84 4.3788-13.754 12.982 26.283 13.846 0.06127-0.0617-0.12253-0.0617 9.8332-10.053-22.301-16.652zm38.015 7.4008-9.8025 9.7753 11.579 9.5594 7.6276-7.4008-8.6691-11.009zm20.187 5.674-7.3825 7.2158 6.1878 8.5418 5.8202-6.1365zm-32.195 6.3215-9.5575 9.4977 13.662 7.185 7.9339-7.6784zm23.312 2.3744-7.1068 6.9383 8.3628 6.9074 5.3608-5.674-0.06127-0.0925-0.0919 0.12335-6.4635-8.2026zm-8.7304 8.5418-7.5051 7.3392 10.354 5.4581c1.3975-1.321 5.6751-6.1229 5.8509-6.3215z" fill="#fff" opacity=".6"/>
</clipPath>
<radialGradient id="radialGradient4075-8" cx="48" cy="-27" r="42" gradientTransform="matrix(-1.183 0 0 -.96399 -12.805 -44.823)" gradientUnits="userSpaceOnUse" xlink:href="#linearGradient4091-0-3-0-7-7"/>
<linearGradient id="linearGradient4091-0-3-0-7-7">
<stop stop-color="#fff" offset="0"/>
<stop stop-color="#fff" offset=".8"/>
<stop stop-color="#fff" stop-opacity="0" offset="1"/>
</linearGradient>
<radialGradient id="radialGradient1160" cx="32.052" cy="32.374" r="2" gradientTransform="matrix(-1.6761 0 0 -11.776 54.103 450.62)" gradientUnits="userSpaceOnUse" xlink:href="#linearGradient3854-0"/>
<linearGradient id="linearGradient3854-0">
<stop stop-color="#44ffbd" offset="0"/>
<stop stop-color="#0069f6" stop-opacity=".20362" offset=".5"/>
<stop stop-color="#0065ee" stop-opacity="0" offset="1"/>
</linearGradient>
<radialGradient id="radialGradient1197" cx="32.052" cy="32.374" r="2" gradientTransform="matrix(-1.6761 0 0 -11.776 69.828 450.62)" gradientUnits="userSpaceOnUse" xlink:href="#linearGradient3854-0"/>
<radialGradient id="radialGradient1211" cx="32.052" cy="32.374" r="2" gradientTransform="matrix(-1.6761 0 0 -11.776 85.553 450.62)" gradientUnits="userSpaceOnUse" xlink:href="#linearGradient3854-0"/>
<radialGradient id="radialGradient1225" cx="32.052" cy="32.374" r="2" gradientTransform="matrix(-1.6761 0 0 -11.776 101.28 450.62)" gradientUnits="userSpaceOnUse" xlink:href="#linearGradient3854-0"/>
<radialGradient id="radialGradient1200" cx="14.688" cy="3.4375" r="45.188" gradientTransform="matrix(1.1281 -.027868 .024357 .98297 -86.021 21.535)" gradientUnits="userSpaceOnUse" xlink:href="#linearGradient4091-0-3-0-7-7"/>
<linearGradient id="linearGradient917" x1="49.387" x2="49.67" y1="12.779" y2="7.2752" gradientUnits="userSpaceOnUse">
<stop stop-color="#111" stop-opacity=".8125" offset="0"/>
<stop stop-color="#111" stop-opacity="0" offset="1"/>
</linearGradient>
<linearGradient id="linearGradient925" x1="6.2661" x2="90.302" y1="45.524" y2="45.524" gradientUnits="userSpaceOnUse">
<stop stop-color="#3c5868" offset="0"/>
<stop stop-color="#86b0ba" stop-opacity=".99216" offset=".20372"/>
<stop stop-color="#c4fcff" stop-opacity=".98824" offset=".49116"/>
<stop stop-color="#95b6c3" stop-opacity=".98824" offset=".7895"/>
<stop stop-color="#415a6d" stop-opacity=".99216" offset="1"/>
</linearGradient>
<filter id="filter4577" x="-.057922" y="-.015144" width="1.1158" height="1.0303" color-interpolation-filters="sRGB">
<feGaussianBlur stdDeviation="0.43387616"/>
</filter>
</defs>
<metadata>
<rdf:RDF>
<cc:Work rdf:about="">
<dc:format>image/svg+xml</dc:format>
<dc:type rdf:resource="http://purl.org/dc/dcmitype/StillImage"/>
<dc:title/>
<dc:date>2017</dc:date>
<dc:creator>
<cc:Agent>
<dc:title>Cristian Pozzessere "ilnanny"</dc:title>
</cc:Agent>
</dc:creator>
<dc:subject>
<rdf:Bag>
<rdf:li>Global language</rdf:li>
</rdf:Bag>
</dc:subject>
<dc:description>Playing with Inkscape on Gnu/Linux O. S.</dc:description>
<dc:contributor>
<cc:Agent>
<dc:title>In the night, alone like a dog.</dc:title>
</cc:Agent>
</dc:contributor>
<cc:license rdf:resource="http://creativecommons.org/licenses/by-sa/4.0/"/>
</cc:Work>
<cc:License rdf:about="http://creativecommons.org/licenses/by-sa/4.0/">
<cc:permits rdf:resource="http://creativecommons.org/ns#Reproduction"/>
<cc:permits rdf:resource="http://creativecommons.org/ns#Distribution"/>
<cc:requires rdf:resource="http://creativecommons.org/ns#Notice"/>
<cc:requires rdf:resource="http://creativecommons.org/ns#Attribution"/>
<cc:permits rdf:resource="http://creativecommons.org/ns#DerivativeWorks"/>
<cc:requires rdf:resource="http://creativecommons.org/ns#ShareAlike"/>
</cc:License>
</rdf:RDF>
</metadata>
<g transform="translate(0 -1026.5)">
<g transform="translate(-.14896 1026.1)">
<path d="m89.292 0.41503h-82.286c-3.7988 0-6.8571 3.0583-6.8571 6.8571v82.286c0 3.7989 3.0583 6.8571 6.8571 6.8571h82.286c3.7989 0 6.8571-3.0583 6.8571-6.8571v-82.286c0-3.7989-3.0583-6.8571-6.8571-6.8571z" opacity=".15"/>
<path d="m88.649 1.165h-81c-3.7395 0-6.75 3.0105-6.75 6.75v81c0 3.7395 3.0105 6.75 6.75 6.75h81c3.7395 0 6.75-3.0105 6.75-6.75v-81c0-3.7395-3.0105-6.75-6.75-6.75z" opacity=".15"/>
<path d="m88.006 1.915h-79.714c-3.6801 0-6.6429 2.9627-6.6429 6.6429v79.714c0 3.6801 2.9627 6.6429 6.6429 6.6429h79.714c3.6801 0 6.6429-2.9627 6.6429-6.6429v-79.714c0-3.6801-2.9627-6.6429-6.6429-6.6429z" fill="url(#linearGradient4071)"/>
<path d="m11.39 6.8022c-2.8565 0-5.1241 2.3147-5.1241 5.2305v69.369c1.0972 1.7038 2.9688 2.8441 5.1241 2.8441h73.787c2.1553 0 4.0269-1.1402 5.1241-2.8441v-69.369c0-2.9158-2.2676-5.2305-5.1241-5.2305z" fill="url(#linearGradient925)" opacity=".77865"/>
<ellipse cx="48.917" cy="9.7212" rx="42.05" ry="2.7187" fill="#edeeee" stroke="url(#linearGradient917)" stroke-linejoin="bevel" stroke-opacity=".96471" stroke-width="1.1828"/>
<path d="m1.649 82.259v6c0 3.6801 2.9761 6.6562 6.6562 6.6562h79.687c3.6801 0 6.6563-2.9761 6.6563-6.6562v-6c0 3.6801-2.9761 6.6562-6.6563 6.6562h-79.687c-3.6801 0-6.6562-2.9761-6.6562-6.6562z" fill="url(#linearGradient4129)" opacity=".596"/>
<rect x="5.524" y="80.665" width="84.25" height="4.25" rx="0" ry="4.25" fill="url(#radialGradient7462)" opacity=".55"/>
<rect transform="rotate(90)" x="5.975" y="-90.234" width="76.75" height="4.25" rx="0" ry="4.25" fill="url(#radialGradient7464)" opacity=".669"/>
<g transform="matrix(1.0034 0 0 1.005 117.98 21.404)">
<rect x="-78.577" y="-8.1136" width="17.978" height="68.759" fill="#fff" filter="url(#filter4577)" opacity=".475"/>
<path d="m-109.31-18.795c-3.6675 0-6.62 2.9481-6.62 6.6101v16.525h1.1033v-16.525c0-3.0707 2.4414-5.5084 5.5167-5.5084h79.441c3.0753 0 5.5167 2.4377 5.5167 5.5084v16.525h1.1033v-16.525c0-3.662-2.9525-6.6101-6.6201-6.6101z" fill="url(#radialGradient4075-8)" opacity=".60764"/>
<path d="m-107.63-15.582c-3.1059 0-5.6485 2.527-5.6485 5.6181v68.936c0 3.0912 2.5426 5.6181 5.6485 5.6181h76.528c3.1059 0 5.6485-2.527 5.6485-5.6181v-68.936c0-3.0912-2.5426-5.6181-5.6485-5.6181zm0 2.308h76.528c1.8816 0 3.3405 1.4728 3.3405 3.3101v68.936c0 1.8374-1.4589 3.3101-3.3405 3.3101h-76.528c-1.8816 0-3.3405-1.4728-3.3405-3.3101v-68.936c0-1.8374 1.4589-3.3101 3.3405-3.3101z" color="#000000" fill="url(#radialGradient1200)" style="text-decoration-line:none;text-indent:0;text-transform:none"/>
<path d="m-112.08-1.6588v1.3104h84.715v-1.3104zm0 15.725v1.3104h84.715v-1.3104zm0 15.725v1.3104h84.715v-1.3104zm0 15.725v1.3104h84.715v-1.3104z" color="#000000" fill-opacity=".61628"/>
<path d="m-73.004 5.1316v2.6208h6.8318v-2.6208zm0 3.9312v2.6208h6.8318v-2.6208z" color="#000000" fill="#fff" stroke="#56ccff" stroke-width=".49791"/>
<path d="m-112.08 0.962v1.3104h84.715v-1.3104zm0 15.725v1.3104h84.715v-1.3104zm0 15.725v1.3104h84.715v-1.3104zm0 15.725v1.3104h84.715v-1.3104z" color="#000000" fill="#fff" fill-opacity=".56977"/>
<rect transform="rotate(90)" x="-1.6588" y="27.361" width="3.9312" height="84.715" color="#000000" fill-opacity=".15233"/>
<rect transform="rotate(90)" x="-1.6588" y="58.172" width="3.9312" height="53.904" color="#000000" fill="url(#radialGradient1160)"/>
<rect transform="rotate(90)" x="-1.6588" y="27.361" width="1.3104" height="84.715" color="#000000" fill-opacity=".11022"/>
<rect transform="rotate(90)" x="14.066" y="27.361" width="3.9312" height="84.715" color="#000000" fill-opacity=".15233"/>
<rect transform="rotate(90)" x="14.066" y="58.172" width="3.9312" height="53.904" color="#000000" fill="url(#radialGradient1197)"/>
<rect transform="rotate(90)" x="14.066" y="27.361" width="1.3104" height="84.715" color="#000000" fill-opacity=".11022"/>
<path d="m-73.004 36.974v2.6208h6.8318v-2.6208zm0 3.9312v2.6208h6.8318v-2.6208z" color="#000000" fill="#fff" stroke="#56ccff" stroke-width=".49791"/>
<path d="m-73.004 21.053v2.6208h6.8318v-2.6208zm0 3.9312v2.6208h6.8318v-2.6208z" color="#000000" fill="#fff" stroke="#56ccff" stroke-width=".49791"/>
<rect transform="rotate(90)" x="29.791" y="27.361" width="3.9312" height="84.715" color="#000000" fill-opacity=".15233"/>
<rect transform="rotate(90)" x="29.791" y="58.172" width="3.9312" height="53.904" color="#000000" fill="url(#radialGradient1211)"/>
<rect transform="rotate(90)" x="45.516" y="27.361" width="3.9312" height="84.715" color="#000000" fill-opacity=".15233"/>
<rect transform="rotate(90)" x="45.516" y="58.172" width="3.9312" height="53.904" color="#000000" fill="url(#radialGradient1225)"/>
<rect transform="rotate(90)" x="45.516" y="27.361" width="1.3104" height="84.715" color="#000000" fill-opacity=".11022"/>
<path d="m-107.63-15.582c-3.1059 0-5.6485 2.527-5.6485 5.6181v68.936c0 3.0912 2.5426 5.6181 5.6485 5.6181h76.528c3.1059 0 5.6485-2.527 5.6485-5.6181v-68.936c0-3.0912-2.5426-5.6181-5.6485-5.6181zm0 2.308h76.528c1.8816 0 3.3405 1.4728 3.3405 3.3101v68.936c0 1.8374-1.4589 3.3101-3.3405 3.3101h-76.528c-1.8816 0-3.3405-1.4728-3.3405-3.3101v-68.936c0-1.8374 1.4589-3.3101 3.3405-3.3101z" color="#000000" fill="#1b2324" fill-opacity=".74583" style="text-decoration-line:none;text-indent:0;text-transform:none"/>
</g>
<rect transform="matrix(1.0692 0 0 1.0477 4.4442 38.894)" x="2" y="-30" width="75.966" height="69.024" rx="3.957" ry="3.957" clip-path="url(#clipPath4156-4-1)" fill="url(#linearGradient4767)" opacity=".50781"/>
</g>
</g>
</svg>
