<?xml version="1.0" encoding="UTF-8"?>
<svg version="1.1" viewBox="0 0 48 48" xmlns="http://www.w3.org/2000/svg" xmlns:cc="http://creativecommons.org/ns#" xmlns:dc="http://purl.org/dc/elements/1.1/" xmlns:rdf="http://www.w3.org/1999/02/22-rdf-syntax-ns#" xmlns:xlink="http://www.w3.org/1999/xlink">
<metadata>
<rdf:RDF>
<cc:Work rdf:about="">
<dc:format>image/svg+xml</dc:format>
<dc:type rdf:resource="http://purl.org/dc/dcmitype/StillImage"/>
</cc:Work>
</rdf:RDF>
</metadata>
<defs>
<clipPath id="clipPath-631594984">
<g transform="translate(0 -1004.4)">
<path transform="matrix(15.333 0 0 11.5 415 878.86)" d="m-24 13c0 1.105-0.672 2-1.5 2s-1.5-0.895-1.5-2 0.672-2 1.5-2 1.5 0.895 1.5 2z" fill="#1890d0"/>
</g>
</clipPath>
<clipPath id="clipPath-645446081">
<g transform="translate(0 -1004.4)">
<path transform="matrix(15.333 0 0 11.5 415 878.86)" d="m-24 13c0 1.105-0.672 2-1.5 2s-1.5-0.895-1.5-2 0.672-2 1.5-2 1.5 0.895 1.5 2z" fill="#1890d0"/>
</g>
</clipPath>
<linearGradient id="linearGradient4071" x1="6" x2="90" y1="47" y2="47" gradientTransform="matrix(.55357 0 0 .55357 .18014 35.952)" gradientUnits="userSpaceOnUse">
<stop stop-color="#b2babc" offset="0"/>
<stop stop-color="#fff" offset=".25"/>
<stop stop-color="#96a1a4" offset=".5"/>
<stop stop-color="#fbf9f9" offset=".75"/>
<stop stop-color="#b2b9bc" offset="1"/>
</linearGradient>
<linearGradient id="linearGradient4129" x1="1.5" x2="94.5" y1="88.172" y2="88.172" gradientTransform="matrix(.5 0 0 .5 2.7516 37.97)" gradientUnits="userSpaceOnUse">
<stop offset="0"/>
<stop stop-opacity=".58824" offset=".1"/>
<stop stop-opacity=".58824" offset=".9"/>
<stop offset="1"/>
</linearGradient>
<radialGradient id="radialGradient7462" cx="13.948" cy="44.893" r="43.199" gradientTransform="matrix(.48757 0 0 .024595 19.701 78.053)" gradientUnits="userSpaceOnUse" xlink:href="#linearGradient3737"/>
<linearGradient id="linearGradient3737">
<stop stop-color="#fff" offset="0"/>
<stop stop-color="#fff" stop-opacity="0" offset="1"/>
</linearGradient>
<radialGradient id="radialGradient7464" cx="13.948" cy="44.893" r="43.199" gradientTransform="matrix(.44416 0 0 .024595 53.742 -47.836)" gradientUnits="userSpaceOnUse" xlink:href="#linearGradient3737"/>
<linearGradient id="linearGradient4767" x1="2.7714" x2="50.528" y1="-28.642" y2="14.514" gradientTransform="translate(4.8681 -19.94)" gradientUnits="userSpaceOnUse" xlink:href="#linearGradient3737"/>
<clipPath id="clipPath4156-4-1">
<path d="m27.046-55.695-14.214 13.321h0.06127l15.653 21.771 10.231-10.546c-0.2169-1.1522-11.311-23.67-11.732-24.546zm-17.399 16.313-14.888 14.062 21.229 17.515 10.385-10.577zm31.491 12.951-9.7413 9.7136 8.9448 12.458 7.7808-7.555zm-49.84 4.3788-13.754 12.982 26.283 13.846 0.06127-0.0617-0.12253-0.0617 9.8332-10.053-22.301-16.652zm38.015 7.4008-9.8025 9.7753 11.579 9.5594 7.6276-7.4008-8.6691-11.009zm20.187 5.674-7.3825 7.2158 6.1878 8.5418 5.8202-6.1365zm-32.195 6.3215-9.5575 9.4977 13.662 7.185 7.9339-7.6784zm23.312 2.3744-7.1068 6.9383 8.3628 6.9074 5.3608-5.674-0.06127-0.0925-0.0919 0.12335-6.4635-8.2026zm-8.7304 8.5418-7.5051 7.3392 10.354 5.4581c1.3975-1.321 5.6751-6.1229 5.8509-6.3215z" fill="#fff" opacity=".6"/>
</clipPath>
</defs>
<g transform="translate(0 -1074.5)">
<g transform="translate(-.14896 1026.1)">
<g transform="matrix(.99583 0 0 .99583 .10062 .30173)">
<path d="m44.72 48.415h-41.143c-1.8994 0-3.4286 1.5291-3.4286 3.4286v41.143c0 1.8994 1.5291 3.4286 3.4286 3.4286h41.143c1.8994 0 3.4286-1.5291 3.4286-3.4286v-41.143c0-1.8994-1.5291-3.4286-3.4286-3.4286z" opacity=".15"/>
<path d="m44.399 48.79h-40.5c-1.8697 0-3.375 1.5052-3.375 3.375v40.5c0 1.8698 1.5053 3.375 3.375 3.375h40.5c1.8698 0 3.375-1.5052 3.375-3.375v-40.5c0-1.8697-1.5052-3.375-3.375-3.375z" opacity=".15"/>
<path d="m44.078 49.165h-39.857c-1.8401 0-3.3214 1.4814-3.3214 3.3214v39.857c0 1.8401 1.4814 3.3214 3.3214 3.3214h39.857c1.8401 0 3.3214-1.4814 3.3214-3.3214v-39.857c0-1.8401-1.4814-3.3214-3.3214-3.3214z" fill="url(#linearGradient4071)"/>
<path d="m5.7696 51.609c-1.4282 0-2.5621 1.1579-2.5621 2.6164v34.7c0.54862 0.85231 1.4844 1.4227 2.5621 1.4227h37.678c1.0776 0 1.2287 0.01819 1.7773-0.83412v-35.289c0-1.4585-1.1338-2.6164-2.5621-2.6164z" fill="#e8e8e8" opacity=".98"/>
<path d="m5.0615 50.78c-1.5583 0-2.834 1.2698-2.834 2.823v34.639c0 1.5532 1.2757 2.823 2.834 2.823h38.396c1.5583 0 2.834-1.2698 2.834-2.823v-34.639c0-1.5532-1.2757-2.823-2.834-2.823zm0 1.1597h38.396c0.94405 0 1.676 0.74005 1.676 1.6633v34.639c0 0.92324-0.73196 1.6633-1.676 1.6633h-38.396c-0.94405 0-1.676-0.74004-1.676-1.6633v-34.639c0-0.92324 0.73196-1.6633 1.676-1.6633z" color="#000000" fill="#1f2224" fill-opacity=".8087" style="text-decoration-line:none;text-indent:0;text-transform:none"/>
<path d="m0.89896 89.337v3c0 1.8401 1.4881 3.3281 3.3281 3.3281h39.844c1.8401 0 3.3281-1.4881 3.3281-3.3281v-3c0 1.8401-1.4881 3.3281-3.3281 3.3281h-39.844c-1.8401 0-3.3281-1.4881-3.3281-3.3281z" fill="url(#linearGradient4129)" opacity=".65818"/>
<rect x="2.8365" y="88.54" width="42.125" height="2.125" rx="2.125" ry="2.125" fill="url(#radialGradient7462)" opacity=".55"/>
<rect transform="rotate(90)" x="51.195" y="-45.191" width="38.375" height="2.125" rx="2.125" ry="2.125" fill="url(#radialGradient7464)" opacity=".669"/>
<rect transform="matrix(.53462 0 0 .52384 2.2966 67.654)" x="2" y="-30" width="75.966" height="69.024" rx="3.957" ry="3.957" clip-path="url(#clipPath4156-4-1)" fill="url(#linearGradient4767)" opacity=".7"/>
</g>
</g>
</g>
<g clip-path="url(#clipPath-631594984)">
<g transform="translate(1,1)">
<g opacity=".1">
<!-- color: #93c849 -->
<g>
<path d="m11 26-1-10.996h1l1.996 10.996"/>
<path d="m16 26c-4e-3 1.645-1.336 2.98-2.98 2.988-1.645 0.012-2.992-1.305-3.02-2.949-0.027-1.645 1.277-3 2.922-3.047s3.02 1.242 3.074 2.887"/>
<path d="m37 26 1-10.996h-1l-2 10.996"/>
<path d="m38 26c-4e-3 1.645-1.336 2.98-2.98 2.988-1.645 0.012-2.992-1.305-3.02-2.949-0.027-1.645 1.277-3 2.922-3.047s3.02 1.242 3.074 2.887"/>
<path d="m36 26c0 5.523-5.371 10-11.996 10-6.629 0-12-4.477-12-10s5.371-10 12-10c6.625 0 11.996 4.477 11.996 10"/>
<path d="m39 14.5c-4e-3 0.824-0.668 1.488-1.488 1.496-0.824 4e-3 -1.496-0.652-1.512-1.477-0.012-0.82 0.637-1.504 1.461-1.523 0.82-0.023 1.508 0.621 1.539 1.445"/>
<path d="m12 14.5c-4e-3 0.824-0.668 1.488-1.488 1.496-0.824 4e-3 -1.496-0.652-1.512-1.477-0.012-0.82 0.637-1.504 1.461-1.523 0.82-0.023 1.508 0.621 1.539 1.445"/>
</g>
</g>
</g>
</g>
<g transform="translate(.00016375)">
<g clip-path="url(#clipPath-645446081)">
<!-- color: #93c849 -->
<g>
<path d="m11 26-1-10.996h1l1.996 10.996" fill="#ab9caa"/>
<path d="m16 26c-4e-3 1.645-1.336 2.98-2.98 2.988-1.645 0.012-2.992-1.305-3.02-2.949-0.027-1.645 1.277-3 2.922-3.047s3.02 1.242 3.074 2.887" fill="#8b1928"/>
<path d="m37 26 1-10.996h-1l-2 10.996" fill="#ab9caa"/>
<path d="m38 26c-4e-3 1.645-1.336 2.98-2.98 2.988-1.645 0.012-2.992-1.305-3.02-2.949-0.027-1.645 1.277-3 2.922-3.047s3.02 1.242 3.074 2.887" fill="#8b1928"/>
<path d="m36 26c0 5.523-5.371 10-11.996 10-6.629 0-12-4.477-12-10s5.371-10 12-10c6.625 0 11.996 4.477 11.996 10" fill="#9c4534"/>
<path d="m33 26c0 3.867-4.03 7-9 7-4.969 0-8.996-3.133-8.996-7s4.03-7 8.996-7c4.973 0 9 3.133 9 7" fill="#ecab58"/>
<path d="m28 22h4e-3c1.102 0 1.996 0.895 1.996 2v5c0 1.102-0.895 1.996-1.996 1.996h-4e-3c-1.105 0-2-0.895-2-1.996v-5c0-1.105 0.895-2 2-2" fill="#94625b"/>
<path d="m20 22h4e-3c1.102 0 1.996 0.895 1.996 2v5c0 1.102-0.895 1.996-1.996 1.996h-4e-3c-1.105 0-2-0.895-2-1.996v-5c0-1.105 0.895-2 2-2" fill="#94625b"/>
<path d="m28 24c0.551 0 1 0.445 1 0.996v3c0 0.551-0.449 1-1 1s-1-0.449-1-1v-3c0-0.551 0.449-0.996 1-0.996" fill="#f9f9f9"/>
<path d="m20 24c0.551 0 0.996 0.445 0.996 0.996v3c0 0.551-0.445 1-0.996 1-0.555 0-1-0.449-1-1v-3c0-0.551 0.445-0.996 1-0.996" fill="#f9f9f9"/>
<path d="m20.496 26c0.277 0 0.5 0.223 0.5 0.5v1c0 0.277-0.223 0.5-0.5 0.5-0.273 0-0.496-0.223-0.496-0.5v-1c0-0.277 0.223-0.5 0.496-0.5" fill="#2d2d2d"/>
<path d="m27.5 26c0.277 0 0.5 0.223 0.5 0.5v1c0 0.277-0.223 0.5-0.5 0.5s-0.5-0.223-0.5-0.5v-1c0-0.277 0.223-0.5 0.5-0.5" fill="#2d2d2d"/>
<path d="m39 14.5c-4e-3 0.824-0.668 1.488-1.488 1.496-0.824 4e-3 -1.496-0.652-1.512-1.477-0.012-0.82 0.637-1.504 1.461-1.523 0.82-0.023 1.508 0.621 1.539 1.445" fill="#8b1928"/>
<path d="m12 14.5c-4e-3 0.824-0.668 1.488-1.488 1.496-0.824 4e-3 -1.496-0.652-1.512-1.477-0.012-0.82 0.637-1.504 1.461-1.523 0.82-0.023 1.508 0.621 1.539 1.445" fill="#8b1928"/>
</g>
</g>
</g>
</svg>
