<?xml version="1.0" encoding="UTF-8"?>
<!-- Created with Inkscape (http://www.inkscape.org/) -->
<svg version="1.1" viewBox="0 0 96 96" xmlns="http://www.w3.org/2000/svg" xmlns:cc="http://creativecommons.org/ns#" xmlns:dc="http://purl.org/dc/elements/1.1/" xmlns:rdf="http://www.w3.org/1999/02/22-rdf-syntax-ns#" xmlns:xlink="http://www.w3.org/1999/xlink">
<title>Lila-HD-Icon-Theme</title>
<defs>
<linearGradient id="linearGradient4071" x1="6" x2="90" y1="47" y2="47" gradientTransform="matrix(1.1071 0 0 1.1071 -4.9939 -3.6207)" gradientUnits="userSpaceOnUse">
<stop stop-color="#b2babc" offset="0"/>
<stop stop-color="#fff" offset=".25"/>
<stop stop-color="#96a1a4" offset=".5"/>
<stop stop-color="#fbf9f9" offset=".75"/>
<stop stop-color="#b2b9bc" offset="1"/>
</linearGradient>
<linearGradient id="linearGradient4129" x1="1.5" x2="94.5" y1="88.172" y2="88.172" gradientTransform="translate(.14895 .41503)" gradientUnits="userSpaceOnUse">
<stop offset="0"/>
<stop stop-opacity=".58824" offset=".1"/>
<stop stop-opacity=".58824" offset=".9"/>
<stop offset="1"/>
</linearGradient>
<radialGradient id="radialGradient7462" cx="13.948" cy="44.893" r="43.199" gradientTransform="matrix(.97513 0 0 .049191 34.048 80.582)" gradientUnits="userSpaceOnUse" xlink:href="#linearGradient3737"/>
<linearGradient id="linearGradient3737">
<stop stop-color="#fff" offset="0"/>
<stop stop-color="#fff" stop-opacity="0" offset="1"/>
</linearGradient>
<radialGradient id="radialGradient7464" cx="13.948" cy="44.893" r="43.199" gradientTransform="matrix(.88833 0 0 .049191 31.96 -90.317)" gradientUnits="userSpaceOnUse" xlink:href="#linearGradient3737"/>
<linearGradient id="linearGradient4767" x1="2.7714" x2="50.528" y1="-28.642" y2="14.514" gradientUnits="userSpaceOnUse" xlink:href="#linearGradient3737"/>
<clipPath id="clipPath4156-4-1">
<path d="m27.046-55.695-14.214 13.321h0.06127l15.653 21.771 10.231-10.546c-0.2169-1.1522-11.311-23.67-11.732-24.546zm-17.399 16.313-14.888 14.062 21.229 17.515 10.385-10.577zm31.491 12.951-9.7413 9.7136 8.9448 12.458 7.7808-7.555zm-49.84 4.3788-13.754 12.982 26.283 13.846 0.06127-0.0617-0.12253-0.0617 9.8332-10.053-22.301-16.652zm38.015 7.4008-9.8025 9.7753 11.579 9.5594 7.6276-7.4008-8.6691-11.009zm20.187 5.674-7.3825 7.2158 6.1878 8.5418 5.8202-6.1365zm-32.195 6.3215-9.5575 9.4977 13.662 7.185 7.9339-7.6784zm23.312 2.3744-7.1068 6.9383 8.3628 6.9074 5.3608-5.674-0.06127-0.0925-0.0919 0.12335-6.4635-8.2026zm-8.7304 8.5418-7.5051 7.3392 10.354 5.4581c1.3975-1.321 5.6751-6.1229 5.8509-6.3215z" fill="#fff" opacity=".6"/>
</clipPath>
<linearGradient id="b" x1="384.57" x2="394.57" y1="547.8" y2="530.48" gradientUnits="userSpaceOnUse">
<stop stop-color="#fff" stop-opacity="0" offset="0"/>
<stop stop-color="#d9d9d9" stop-opacity=".31373" offset="1"/>
</linearGradient>
<linearGradient id="c" x1="384.57" x2="414.57" gradientUnits="userSpaceOnUse">
<stop stop-opacity=".275" offset="0"/>
<stop stop-color="#fff" stop-opacity="0" offset="1"/>
</linearGradient>
<linearGradient id="d" x1="432.57" x2="421.02" y1="547.8" y2="527.8" gradientUnits="userSpaceOnUse">
<stop stop-opacity=".082" offset="0"/>
<stop stop-opacity=".078189" offset="1"/>
</linearGradient>
</defs>
<metadata>
<rdf:RDF>
<cc:Work rdf:about="">
<dc:format>image/svg+xml</dc:format>
<dc:type rdf:resource="http://purl.org/dc/dcmitype/StillImage"/>
<dc:title>Lila-HD-Icon-Theme</dc:title>
<dc:date>2015-2017</dc:date>
<dc:creator>
<cc:Agent>
<dc:title>Cristian Pozzessere  &lt; ilnanny &gt;</dc:title>
</cc:Agent>
</dc:creator>
<dc:subject>
<rdf:Bag>
<rdf:li>ilnanny</rdf:li>
<rdf:li>lila_hd</rdf:li>
<rdf:li>lila-hd</rdf:li>
<rdf:li>lila hd icon theme</rdf:li>
<rdf:li>Lila-HD-Icon-Theme lila hd icon lila icon</rdf:li>
</rdf:Bag>
</dc:subject>
<dc:description>Playing with Inkscape on Gnu/Linux O. S.</dc:description>
<dc:contributor>
<cc:Agent>
<dc:title>In the night, alone like a dog.</dc:title>
</cc:Agent>
</dc:contributor>
<cc:license rdf:resource="http://creativecommons.org/licenses/by-sa/3.0/"/>
</cc:Work>
<cc:License rdf:about="http://creativecommons.org/licenses/by-sa/3.0/">
<cc:permits rdf:resource="http://creativecommons.org/ns#Reproduction"/>
<cc:permits rdf:resource="http://creativecommons.org/ns#Distribution"/>
<cc:requires rdf:resource="http://creativecommons.org/ns#Notice"/>
<cc:requires rdf:resource="http://creativecommons.org/ns#Attribution"/>
<cc:permits rdf:resource="http://creativecommons.org/ns#DerivativeWorks"/>
<cc:requires rdf:resource="http://creativecommons.org/ns#ShareAlike"/>
</cc:License>
</rdf:RDF>
</metadata>
<g transform="translate(0 -1026.5)">
<g transform="translate(-.14896 1026.1)">
<path d="m89.292 0.41503h-82.286c-3.7988 0-6.8571 3.0583-6.8571 6.8571v82.286c0 3.7989 3.0583 6.8571 6.8571 6.8571h82.286c3.7989 0 6.8571-3.0583 6.8571-6.8571v-82.286c0-3.7989-3.0583-6.8571-6.8571-6.8571z" opacity=".15"/>
<path d="m88.649 1.165h-81c-3.7395 0-6.75 3.0105-6.75 6.75v81c0 3.7395 3.0105 6.75 6.75 6.75h81c3.7395 0 6.75-3.0105 6.75-6.75v-81c0-3.7395-3.0105-6.75-6.75-6.75z" opacity=".15"/>
<path d="m88.006 1.915h-79.714c-3.6801 0-6.6429 2.9627-6.6429 6.6429v79.714c0 3.6801 2.9627 6.6429 6.6429 6.6429h79.714c3.6801 0 6.6429-2.9627 6.6429-6.6429v-79.714c0-3.6801-2.9627-6.6429-6.6429-6.6429z" fill="url(#linearGradient4071)"/>
<path d="m11.39 6.8022c-2.8565 0-5.1241 2.2884-5.1241 5.171v68.58c1.0972 1.6845 2.9688 2.8117 5.1241 2.8117h73.787c2.1553 0 4.0269-1.1272 5.1241-2.8117v-68.58c0-2.8826-2.2676-5.171-5.1241-5.171z" fill="#f2f6f7" opacity=".9"/>
<g transform="matrix(2.079 0 0 2.079 -801.2 -1046)" stroke-width=".48099">
<g transform="translate(384.57,499.8)">
<path d="m24 8-20 12 20 15 20-15z" fill="#7899cf" fill-rule="evenodd" stroke="#ada4a4" stroke-linecap="round" stroke-opacity=".82174" stroke-width=".52909" style="paint-order:normal"/>
<path d="m4 20v24h40v-24l-16 12h-8z" fill="#8bc7f1" stroke-width=".48099"/>
</g>
<g fill-rule="evenodd" stroke="#ada4a4" stroke-linecap="round" stroke-opacity=".82174" stroke-width=".52909">
<path d="m388.57 543.8 16-12h8l16 12z" fill="url(#c)" style="paint-order:normal"/>
<path d="m428.57 543.8-16-12 16-12z" fill="url(#d)" style="paint-order:normal"/>
<path d="m388.57 543.8 16-12-16-12z" fill="url(#b)" style="paint-order:normal"/>
</g>
<rect x="388.57" y="542.8" width="40" height="1" fill="#d1d3d4" stroke-width=".48099"/>
</g>
<path d="m9.974 5.1445c-3.1166 0-5.668 2.5395-5.668 5.646v69.278c0 3.1065 2.5513 5.646 5.668 5.646h76.792c3.1166 0 5.668-2.5395 5.668-5.646v-69.278c0-3.1065-2.5513-5.646-5.668-5.646zm0 2.3194h76.792c1.8881 0 3.352 1.4801 3.352 3.3266v69.278c0 1.8465-1.4639 3.3266-3.352 3.3266h-76.792c-1.8881 0-3.352-1.4801-3.352-3.3266v-69.278c0-1.8465 1.4639-3.3266 3.352-3.3266z" color="#000000" fill="#1f2224" fill-opacity=".63265" style="text-decoration-line:none;text-indent:0;text-transform:none"/>
<path d="m1.649 82.259v6c0 3.6801 2.9761 6.6562 6.6562 6.6562h79.687c3.6801 0 6.6563-2.9761 6.6563-6.6562v-6c0 3.6801-2.9761 6.6562-6.6563 6.6562h-79.687c-3.6801 0-6.6562-2.9761-6.6562-6.6562z" fill="url(#linearGradient4129)" opacity=".65818"/>
<rect x="5.524" y="80.665" width="84.25" height="4.25" rx="0" ry="4.25" fill="url(#radialGradient7462)" opacity=".55"/>
<rect transform="rotate(90)" x="5.975" y="-90.234" width="76.75" height="4.25" rx="0" ry="4.25" fill="url(#radialGradient7464)" opacity=".669"/>
<g transform="matrix(3.5726 0 0 3.5726 -110.13 -123.77)" fill="#fdfeff" fill-opacity=".76957" stroke="#a8b9c6" stroke-opacity=".33913" stroke-width=".27991" aria-label="@">
<path d="m47.704 42.919q0 0.72656-0.22656 1.3164-0.22266 0.58594-0.625 0.90625-0.39844 0.32031-0.89453 0.32031-0.38672 0-0.59766-0.17188-0.21094-0.17188-0.21094-0.51562l0.01172-0.27344h-0.02344q-0.25781 0.48047-0.64062 0.72266-0.37891 0.23828-0.82031 0.23828-0.61328 0-0.95312-0.39844-0.33594-0.39844-0.33594-1.1055 0-0.64062 0.25-1.1914 0.25391-0.55078 0.70703-0.875t1.0039-0.32422q0.85547 0 1.1758 0.71094h0.02344l0.15234-0.625h0.60938l-0.45312 1.9766q-0.14453 0.64062-0.14453 0.98828 0 0.36719 0.31641 0.36719 0.3125 0 0.57422-0.26953 0.26562-0.26953 0.41797-0.74219t0.15234-1.0469q0-0.69922-0.30078-1.2383-0.30078-0.54297-0.86719-0.83203-0.56641-0.29297-1.3242-0.29297-0.94531 0-1.6719 0.41797-0.72656 0.41797-1.1406 1.207-0.41406 0.78516-0.41406 1.7617 0 0.75391 0.30469 1.332 0.30859 0.57422 0.88672 0.88281 0.58203 0.30859 1.3555 0.30859 0.56641 0 1.1484-0.14844 0.58203-0.14453 1.207-0.48438l0.21484 0.4375q-0.56641 0.33984-1.2305 0.51562-0.66016 0.17969-1.3398 0.17969-0.94141 0-1.6484-0.375-0.70312-0.37109-1.0781-1.0586-0.37109-0.69141-0.37109-1.5898 0-1.0938 0.48438-1.9883 0.48828-0.89453 1.3516-1.3906 0.86328-0.5 1.9336-0.5 0.94141 0 1.625 0.35547 0.68359 0.35156 1.043 0.99609 0.36328 0.64453 0.36328 1.4961zm-2.3672 0.03125q0-0.39844-0.25781-0.64062-0.25781-0.24609-0.6875-0.24609-0.39453 0-0.70312 0.25-0.30469 0.24609-0.48047 0.6875-0.17578 0.4375-0.17578 0.94922 0 0.46875 0.18359 0.73438 0.1875 0.26562 0.57422 0.26562 0.48828 0 0.89453-0.41016 0.40625-0.41016 0.5625-1.0234 0.08984-0.35938 0.08984-0.56641z" fill="#fdfeff" fill-opacity=".76957" stroke="#a8b9c6" stroke-opacity=".33913" stroke-width=".27991"/>
</g>
<rect transform="matrix(1.0692 0 0 1.0477 4.4442 38.894)" x="2" y="-30" width="75.966" height="69.024" rx="3.957" ry="3.957" clip-path="url(#clipPath4156-4-1)" fill="url(#linearGradient4767)" opacity=".65"/>
</g>
</g>
</svg>
