<?xml version="1.0" encoding="UTF-8"?>
<!-- Created with Inkscape (http://www.inkscape.org/) -->
<svg version="1.1" viewBox="0 0 96 96" xmlns="http://www.w3.org/2000/svg" xmlns:cc="http://creativecommons.org/ns#" xmlns:dc="http://purl.org/dc/elements/1.1/" xmlns:rdf="http://www.w3.org/1999/02/22-rdf-syntax-ns#" xmlns:xlink="http://www.w3.org/1999/xlink">
<script xlink:href=""/>
<defs>
<linearGradient id="linearGradient12946">
<stop stop-color="#fff" offset="0"/>
<stop stop-color="#fff" stop-opacity="0" offset="1"/>
</linearGradient>
<linearGradient id="ButtonShadow-72" x1="45.448" x2="45.448" y1="92.54" y2="7.0165" gradientTransform="scale(1.0059 .99417)" gradientUnits="userSpaceOnUse">
<stop offset="0"/>
<stop stop-opacity=".58824" offset="1"/>
</linearGradient>
<filter id="filter3174-39" color-interpolation-filters="sRGB">
<feGaussianBlur stdDeviation="1.71"/>
</filter>
<linearGradient id="linearGradient4071" x1="6" x2="90" y1="47" y2="47" gradientTransform="matrix(1.1071 0 0 1.1071 -4.9939 -3.6207)" gradientUnits="userSpaceOnUse">
<stop stop-color="#b2babc" offset="0"/>
<stop stop-color="#fff" offset=".25"/>
<stop stop-color="#96a1a4" offset=".5"/>
<stop stop-color="#fbf9f9" offset=".75"/>
<stop stop-color="#b2b9bc" offset="1"/>
</linearGradient>
<linearGradient id="linearGradient4129" x1="1.5" x2="94.5" y1="88.172" y2="88.172" gradientTransform="translate(.14895 .41503)" gradientUnits="userSpaceOnUse">
<stop offset="0"/>
<stop stop-opacity=".58824" offset=".1"/>
<stop stop-opacity=".58824" offset=".9"/>
<stop offset="1"/>
</linearGradient>
<radialGradient id="radialGradient7462" cx="13.948" cy="44.893" r="43.199" gradientTransform="matrix(.97513 0 0 .049191 34.048 80.582)" gradientUnits="userSpaceOnUse" xlink:href="#linearGradient12946"/>
<radialGradient id="radialGradient7464" cx="13.948" cy="44.893" r="43.199" gradientTransform="matrix(.88833 0 0 .049191 31.96 -90.317)" gradientUnits="userSpaceOnUse" xlink:href="#linearGradient12946"/>
<linearGradient id="linearGradient4767" x1="2.7714" x2="50.528" y1="-28.642" y2="14.514" gradientUnits="userSpaceOnUse" xlink:href="#linearGradient12946"/>
<clipPath id="clipPath4156-4-1">
<path d="m27.046-55.695-14.214 13.321h0.06127l15.653 21.771 10.231-10.546c-0.2169-1.1522-11.311-23.67-11.732-24.546zm-17.399 16.313-14.888 14.062 21.229 17.515 10.385-10.577zm31.491 12.951-9.7413 9.7136 8.9448 12.458 7.7808-7.555zm-49.84 4.3788-13.754 12.982 26.283 13.846 0.06127-0.0617-0.12253-0.0617 9.8332-10.053-22.301-16.652zm38.015 7.4008-9.8025 9.7753 11.579 9.5594 7.6276-7.4008-8.6691-11.009zm20.187 5.674-7.3825 7.2158 6.1878 8.5418 5.8202-6.1365zm-32.195 6.3215-9.5575 9.4977 13.662 7.185 7.9339-7.6784zm23.312 2.3744-7.1068 6.9383 8.3628 6.9074 5.3608-5.674-0.06127-0.0925-0.0919 0.12335-6.4635-8.2026zm-8.7304 8.5418-7.5051 7.3392 10.354 5.4581c1.3975-1.321 5.6751-6.1229 5.8509-6.3215z" fill="#fff" opacity=".6"/>
</clipPath>
</defs>
<metadata>
<rdf:RDF>
<cc:Work rdf:about="">
<dc:format>image/svg+xml</dc:format>
<dc:type rdf:resource="http://purl.org/dc/dcmitype/StillImage"/>
<dc:title/>
</cc:Work>
</rdf:RDF>
</metadata>
<g transform="translate(0,32)">
<g transform="matrix(.97513 0 0 .97661 33.899 9.6574)">
<g transform="matrix(1.1354 0 0 1.1337 -153.57 -46.221)">
<g transform="matrix(.90323 0 0 .90323 51.508 82.459)">
<g display="none">
<rect x="5" y="7" width="86" height="85" rx="6" ry="6" fill="url(#ButtonShadow-72)" filter="url(#filter3174-39)" opacity=".9"/>
</g>
<g transform="translate(6.1513 -108.26)">
<g transform="translate(52.53 20.036)">
<path d="m89.292 0.41503h-82.286c-3.7988 0-6.8571 3.0583-6.8571 6.8571v82.286c0 3.7989 3.0583 6.8571 6.8571 6.8571h82.286c3.7989 0 6.8571-3.0583 6.8571-6.8571v-82.286c0-3.7989-3.0583-6.8571-6.8571-6.8571z" opacity=".15"/>
<path d="m88.649 1.165h-81c-3.7395 0-6.75 3.0105-6.75 6.75v81c0 3.7395 3.0105 6.75 6.75 6.75h81c3.7395 0 6.75-3.0105 6.75-6.75v-81c0-3.7395-3.0105-6.75-6.75-6.75z" opacity=".15"/>
<path d="m88.006 1.915h-79.714c-3.6801 0-6.6429 2.9627-6.6429 6.6429v79.714c0 3.6801 2.9627 6.6429 6.6429 6.6429h79.714c3.6801 0 6.6429-2.9627 6.6429-6.6429v-79.714c0-3.6801-2.9627-6.6429-6.6429-6.6429z" fill="url(#linearGradient4071)"/>
<path d="m11.39 6.8022c-2.8565 0-5.1241 2.2884-5.1241 5.171v68.58c1.0972 1.6845 2.9688 2.8117 5.1241 2.8117h73.787c2.1553 0 4.0269-1.1272 5.1241-2.8117v-68.58c0-2.8826-2.2676-5.171-5.1241-5.171z" fill="#f5f3f3" opacity=".77865"/>
<path d="m9.974 5.1445c-3.1166 0-5.668 2.5395-5.668 5.646v69.278c0 3.1065 2.5513 5.646 5.668 5.646h76.792c3.1166 0 5.668-2.5395 5.668-5.646v-69.278c0-3.1065-2.5513-5.646-5.668-5.646zm0 2.3194h76.792c1.8881 0 3.352 1.4801 3.352 3.3266v69.278c0 1.8465-1.4639 3.3266-3.352 3.3266h-76.792c-1.8881 0-3.352-1.4801-3.352-3.3266v-69.278c0-1.8465 1.4639-3.3266 3.352-3.3266z" color="#000000" fill="#241f1f" fill-opacity=".63265" style="text-decoration-line:none;text-indent:0;text-transform:none"/>
<path d="m1.649 82.259v6c0 3.6801 2.9761 6.6562 6.6562 6.6562h79.687c3.6801 0 6.6563-2.9761 6.6563-6.6562v-6c0 3.6801-2.9761 6.6562-6.6563 6.6562h-79.687c-3.6801 0-6.6562-2.9761-6.6562-6.6562z" fill="url(#linearGradient4129)" opacity=".65818"/>
<rect x="5.524" y="80.665" width="84.25" height="4.25" rx="0" ry="4.25" fill="url(#radialGradient7462)" opacity=".55"/>
<rect transform="rotate(90)" x="5.975" y="-90.234" width="76.75" height="4.25" rx="0" ry="4.25" fill="url(#radialGradient7464)" opacity=".669"/>
<g transform="matrix(.96815 0 0 .96815 18.949 -27.065)" stroke-opacity=".99608">
<path transform="translate(52.679 20.451)" d="m-15.326 19.705c-0.57434 0.62768-1.2351 1.172-1.9512 1.6367 0.96815-0.35365 1.8643-0.85029 2.666-1.4688-0.23854-0.05496-0.47451-0.11789-0.71484-0.16797zm-22.387 2.543c-1.6376 0.75942-3.2118 1.6315-4.707 2.6133 0.10781 2.6954-0.85119 5.4137-2.9062 7.4688-0.49842 0.49842-1.0369 0.92893-1.6035 1.2988 1.3139-0.4811 2.547-1.2423 3.6035-2.2988 2.0551-2.0551 3.0141-4.7733 2.9062-7.4688 0.87625-0.57533 1.7805-1.1122 2.707-1.6133zm26.873 8.9395c-1.155 0-2.2001 0.4295-3.0234 1.1172 0.33053-0.07306 0.671-0.11719 1.0234-0.11719 2.6251 0 4.75 2.1368 4.75 4.7715 0 1.4745-0.68025 2.777-1.7266 3.6523 2.1307-0.47136 3.7266-2.3716 3.7266-4.6523 0-2.6347-2.1249-4.7715-4.75-4.7715zm-10.033 3.7363c-2.9298 3.82e-4 -5.9012 0.74448-8.5723 2.0703-0.08625 0.04297-0.13904 0.11753-0.16992 0.20703 2.1664-0.82239 4.4657-1.277 6.7422-1.2773 1.0669 0 2.1779 0.13477 3.3223 0.33398 0.17972 0.0313 0.31445 0.20272 0.31445 0.38477 0 0.0061 3.8e-4 0.13091 0 0.13281 3.8e-4 3.6539 2.9689 6.6406 6.6289 6.6406 1.2546 0 2.4948-0.37489 3.5879-1.084 0.15464-0.10037 0.35812-0.08856 0.48047 0.04883 2.5758 2.8774 4.2404 6.547 4.7363 10.363h1.6992c0.10562 0 0.21215-0.03856 0.2832-0.11719 0.071-0.07862 0.10941-0.1771 0.099609-0.2832-0.39059-4.0309-2.1074-7.9345-4.8184-10.963-0.12235-0.13739-0.32583-0.1492-0.48047-0.04883-1.0931 0.7091-2.3333 1.084-3.5879 1.084-1.1168 0-2.1685-0.28122-3.0918-0.77148-2.2129-0.40751-3.8926-2.3466-3.8926-4.6855 0-0.54181 0.10967-1.0536 0.27539-1.5391-0.0567-0.08079-0.13525-0.14485-0.23438-0.16211-1.1444-0.19922-2.2554-0.33398-3.3223-0.33398zm-30.514 0.25977c-0.46812 0.04632-0.93782 0.07155-1.4082 0.05273-2.4288 3.6992-4.2229 7.8648-5.1562 12.344 1.9982 1.8284 3.25 4.4531 3.25 7.375 0 2.9219-1.2518 5.5466-3.25 7.375 0.9333 4.4789 2.7274 8.6446 5.1562 12.344 2.6954-0.10781 5.4137 0.85119 7.4688 2.9062 2.0551 2.0551 3.0141 4.7733 2.9062 7.4688 3.6992 2.4288 7.8648 4.223 12.344 5.1562 0.39174-0.42811 0.82717-0.81335 1.2871-1.168-4.2069-0.96997-8.1298-2.6895-11.631-4.9883 0.10781-2.6954-0.85119-5.4137-2.9062-7.4688s-4.7733-3.0141-7.4688-2.9062c-2.4288-3.6992-4.2229-7.8648-5.1562-12.344 1.9982-1.8284 3.25-4.4531 3.25-7.375 0-2.9219-1.2518-5.5466-3.25-7.375 0.85485-4.1025 2.439-7.9374 4.5645-11.396zm18.885 3.7441c-0.05015 0.01236-0.10722 0.03612-0.14844 0.06836-0.48419 0.37459-0.94334 0.78001-1.3887 1.1992l3.791 6.0234c0.09836 0.15686 0.0547 0.36263-0.08398 0.48438-2.4605 2.1529-3.8691 5.2467-3.8691 8.4922 0 3.2215 1.4009 6.3069 3.8359 8.459 0.1387 0.12251 0.1656 0.32828 0.06641 0.48438l-3 4.7148c0.1938 0.16454 0.38174 0.33564 0.58203 0.49219 0.08321 0.06526 0.17714 0.10231 0.28125 0.08398 0.10373-0.01793 0.19339-0.09467 0.25-0.18359l3.8867-6.1074c0.0992-0.15609 0.07229-0.36187-0.06641-0.48438-2.4351-2.1521-3.8359-5.2375-3.8359-8.459 0-3.2455 1.4086-6.3393 3.8691-8.4922 0.13868-0.12175 0.18234-0.32752 0.08398-0.48438l-3.8535-6.123c-0.05623-0.08931-0.14627-0.14965-0.25-0.16797-0.05186-0.0092-0.10023-0.01236-0.15039 0zm11.801 7.0273c-1.6885 0-3.2521 0.52696-4.543 1.4199 0.7998-0.26832 1.6528-0.41992 2.543-0.41992 4.4183 0 8 3.5817 8 8 0 2.7279-1.3685 5.1341-3.4531 6.5781 3.1678-1.0647 5.4531-4.0515 5.4531-7.5781 0-4.4183-3.5817-8-8-8zm-22.514 3.4512c-1.1721 0-2.2338 0.43452-3.0742 1.1289 0.34666-0.07886 0.70395-0.12891 1.0742-0.12891 2.6866 0 4.8672 2.192 4.8672 4.8887 0 1.5144-0.70243 2.8473-1.7812 3.7402 1.5217-0.34806 2.7734-1.4014 3.3809-2.8086 0.05613-0.34043 0.09375-0.6844 0.09375-1.0312 0-1.983-0.94476-3.9159-2.5234-5.1719-0.07184-0.05702-0.10684-0.13567-0.12109-0.2207-0.58827-0.25376-1.2356-0.39648-1.916-0.39648zm41.111 6.3066-7.2422 0.01758c-0.18276 3.82e-4 -0.35356 0.13551-0.38281 0.31641-0.037355 0.2304-0.091197 0.45434-0.14258 0.67969l5.7676-0.01367c0.10562-3.8e-4 0.2118 0.03819 0.2832 0.11719 0.0715 0.079 0.11021 0.17749 0.099609 0.2832-0.37817 3.7875-1.9099 7.4129-4.3359 10.346 0.17544 0.07373 0.35199 0.14562 0.52148 0.23438 0.14628 0.07671 0.31575 0.05228 0.43164-0.06641 3.0339-3.1077 4.9527-7.2061 5.3828-11.514 0.0106-0.10572-0.028109-0.2042-0.099609-0.2832-0.0714-0.079-0.17758-0.11757-0.2832-0.11719zm-23.48 8.8418c-0.08273 0.0229-0.15745 0.07506-0.20703 0.15234l-0.74023 1.1641c1.1952 0.4159 2.4206 0.63672 3.6582 0.63672 2.1519 1e-6 4.1912-0.63424 5.9336-1.7207-1.2336 0.46569-2.5622 0.7207-3.9336 0.7207-1.513 1e-6 -3.0108-0.31304-4.4531-0.93359-0.08435-0.03606-0.17508-0.04243-0.25781-0.01953zm11.07 3.6562c-2.3227 0.70284-4.122 2.6567-4.582 5.1289 0.53742-0.05303 1.0805-0.12527 1.627-0.22266 0.07574-0.01332 0.1388-0.05015 0.18945-0.09961 0.04885-0.15487 0.08488-0.31516 0.14844-0.46289 0.27373-1.7918 1.2438-3.3311 2.6172-4.3438zm3.8555 0.40039c-1.1806 0-2.2487 0.43672-3.0918 1.1348 0.35229-0.0809 0.71498-0.13477 1.0918-0.13477 2.6866 0 4.8672 2.1727 4.8672 4.8555 0 1.5058-0.70142 2.8342-1.7793 3.7246 2.1616-0.4943 3.7793-2.4166 3.7793-4.7246 0-2.6828-2.1806-4.8555-4.8672-4.8555zm18.643 5.1152c-1.5638 0.15473-3.095 0.66562-4.457 1.5547 1.2418-0.4547 2.5555-0.65981 3.8652-0.60742 0.20416-0.31094 0.39674-0.62983 0.5918-0.94727zm-28.686 12.229c-2.005 0-3.8619 0.59966-5.4258 1.6152 1.0697-0.39103 2.2197-0.61523 3.4258-0.61523 2.9219 0 5.5466 1.2518 7.375 3.25 3.4236-0.71339 6.6639-1.9287 9.6543-3.5449-2.4192 1.1204-4.9805 1.9878-7.6543 2.5449-1.8284-1.9982-4.4531-3.25-7.375-3.25z" color="#000000" fill="#2d2d2d" stroke="#2d2d2d"/>
<path d="m23.973 38.556c-4.4789 0.9333-8.6446 2.7274-12.344 5.1562 0.10781 2.6954-0.85119 5.4137-2.9062 7.4688-2.0551 2.0551-4.7733 3.0141-7.4688 2.9062-2.4288 3.6992-4.2229 7.8648-5.1562 12.344 1.9982 1.8284 3.25 4.4531 3.25 7.375 0 2.9219-1.2518 5.5466-3.25 7.375 0.9333 4.4789 2.7274 8.6446 5.1562 12.344 2.6954-0.10781 5.4137 0.85119 7.4688 2.9062 2.0551 2.0551 3.0141 4.7733 2.9062 7.4688 3.6992 2.4288 7.8648 4.223 12.344 5.1562 1.8284-1.9982 4.4531-3.25 7.375-3.25 2.9219 0 5.5466 1.2518 7.375 3.25 4.4644-0.93028 8.6222-2.7083 12.312-5.125-6e-3 -0.14435 0-0.29318 0-0.4375 0-2.5592 0.98488-5.1099 2.9375-7.0625 2.055-2.0551 4.7733-3.0141 7.4688-2.9062 2.4288-3.6992 4.223-7.8648 5.1562-12.344-1.9982-1.8284-3.25-4.4531-3.25-7.375 0-2.9219 1.2518-5.5466 3.25-7.375-0.9333-4.4789-2.7274-8.6446-5.1562-12.344-2.6954 0.10781-5.4137-0.85119-7.4688-2.9062-1.9526-1.9526-2.9375-4.5033-2.9375-7.0625 0-0.14432-6e-3 -0.29315 0-0.4375-3.6903-2.4167-7.8481-4.1947-12.312-5.125-1.8284 1.9982-4.4531 3.25-7.375 3.25-2.9219 0-5.5466-1.2518-7.375-3.25zm17.236 12.482c2.6251 0 4.75 2.1368 4.75 4.7715s-2.1249 4.7715-4.75 4.7715c-2.6251 0-4.752-2.1368-4.752-4.7715s2.1269-4.7715 4.752-4.7715zm-10.033 3.7363c1.0669 0 2.1779 0.13477 3.3223 0.33398 0.17972 0.0313 0.31445 0.20272 0.31445 0.38477 0 0.0061 3.8e-4 0.13091 0 0.13281 3.8e-4 3.6539 2.9689 6.6406 6.6289 6.6406 1.2546 0 2.4948-0.37489 3.5879-1.084 0.15464-0.10037 0.35812-0.08856 0.48047 0.04883 2.7109 3.0283 4.4278 6.932 4.8184 10.963 0.01 0.1061-0.0286 0.20458-0.0996 0.2832-0.071 0.07863-0.17759 0.11719-0.28321 0.11719h-7.2422c-0.18351 0-0.33634-0.13398-0.36524-0.31641-0.86248-5.4327-5.6612-9.5273-11.162-9.5273-1.4955 0-2.976 0.29472-4.4023 0.90039-0.16908 0.07137-0.36725 0.0053-0.46485-0.15039l-3.8535-6.123c-0.05623-0.09007-0.06207-0.1985-0.0332-0.30078 0.0285-0.10228 0.08666-0.1851 0.18164-0.23242 2.671-1.3258 5.6425-2.0699 8.5723-2.0703zm-11.629 4.0039c0.05016-0.01236 0.09853-0.0092 0.15039 0 0.10373 0.01832 0.19377 0.07866 0.25 0.16797l3.8535 6.123c0.09836 0.15686 0.0547 0.36263-0.08398 0.48438-2.4605 2.1529-3.8691 5.2467-3.8691 8.4922 0 3.2215 1.4009 6.3069 3.8359 8.459 0.1387 0.12251 0.16561 0.32828 0.06641 0.48438l-3.8867 6.1074c-0.05661 0.08892-0.14627 0.16566-0.25 0.18359-0.1041 0.01833-0.19804-0.01872-0.28125-0.08398-3.1026-2.425-5.4402-5.8308-6.5781-9.5781-0.04483-0.14808-0.0033-0.30459 0.11719-0.40039 1.5791-1.256 2.5234-3.1889 2.5234-5.1719 0-1.983-0.94476-3.9159-2.5234-5.1719-0.12118-0.09617-0.16202-0.25269-0.11719-0.40039 1.1471-3.779 3.5031-7.1966 6.6445-9.627 0.04122-0.03224 0.09829-0.056 0.14844-0.06836zm11.801 7.0273c4.4183 0 8 3.5817 8 8s-3.5817 8-8 8c-4.4183 0-8-3.5817-8-8s3.5817-8 8-8zm-22.514 3.4512c2.6866 0 4.8672 2.192 4.8672 4.8887 0 2.6967-2.1806 4.873-4.8672 4.873-2.6866 0-4.8672-2.1764-4.8672-4.873 0-2.6967 2.1806-4.8887 4.8672-4.8887zm41.111 6.3066c0.10562-3.8e-4 0.21181 0.03819 0.28321 0.11719 0.0715 0.079 0.11021 0.17749 0.0996 0.2832-0.4301 4.3076-2.349 8.4059-5.3828 11.514-0.11589 0.11869-0.28536 0.14312-0.43164 0.06641-0.96203-0.50377-2.032-0.76758-3.0723-0.76758-3.3557 0-6.1765 2.5241-6.5625 5.873-0.0194 0.16449-0.13621 0.28976-0.29883 0.31836-1.1584 0.20647-2.3051 0.31641-3.4043 0.31641-2.9636 0-5.9624-0.71467-8.6543-2.0684-0.09461-0.04732-0.15549-0.1321-0.18359-0.23438-0.0281-0.10266-0.02341-0.21108 0.0332-0.30078l3.8867-6.123c0.0992-0.15456 0.29614-0.20494 0.46484-0.13281 1.4423 0.62055 2.9402 0.93359 4.4531 0.93359 5.4857 1e-6 10.27-4.0687 11.145-9.4609 0.0292-0.1809 0.20005-0.31602 0.38281-0.31641zm-8.5547 12.898c2.6866 0 4.8672 2.1727 4.8672 4.8555 0 2.6828-2.1806 4.8555-4.8672 4.8555-2.6866 0-4.8672-2.1727-4.8672-4.8555 0-2.6828 2.1806-4.8555 4.8672-4.8555z" color="#000000" fill="#0dae13" stroke="#225b19" stroke-width=".89656"/>
</g>
<rect transform="matrix(1.0692 0 0 1.0477 4.4442 38.894)" x="2" y="-30" width="75.966" height="69.024" rx="3.957" ry="3.957" clip-path="url(#clipPath4156-4-1)" fill="url(#linearGradient4767)" opacity=".589"/>
</g>
</g>
</g>
</g>
</g>
</g>
</svg>
