<?xml version="1.0" encoding="UTF-8"?>
<!-- Created with Inkscape (http://www.inkscape.org/) -->
<svg version="1.0" viewBox="0 0 96 96" xmlns="http://www.w3.org/2000/svg" xmlns:cc="http://creativecommons.org/ns#" xmlns:dc="http://purl.org/dc/elements/1.1/" xmlns:rdf="http://www.w3.org/1999/02/22-rdf-syntax-ns#" xmlns:xlink="http://www.w3.org/1999/xlink">
<defs>
<linearGradient id="ButtonShadow" x1="45.448" x2="45.448" y1="92.54" y2="7.0165" gradientTransform="scale(1.0059 .99417)" gradientUnits="userSpaceOnUse">
<stop offset="0"/>
<stop stop-opacity=".58824" offset="1"/>
</linearGradient>
<filter id="filter3174" color-interpolation-filters="sRGB">
<feGaussianBlur stdDeviation="1.71"/>
</filter>
<linearGradient id="linearGradient8265-821-176-38-919-66-249-7-7-6-5-0">
<stop stop-color="#fff" offset="0"/>
<stop stop-color="#fff" stop-opacity="0" offset="1"/>
</linearGradient>
<filter id="filter3174-36" color-interpolation-filters="sRGB">
<feGaussianBlur stdDeviation="1.71"/>
</filter>
<filter id="filter3174-3" color-interpolation-filters="sRGB">
<feGaussianBlur stdDeviation="1.71"/>
</filter>
<linearGradient id="linearGradient7466" x1="2.7714" x2="50.528" y1="-28.642" y2="14.514" gradientUnits="userSpaceOnUse">
<stop stop-color="#fff" offset="0"/>
<stop stop-color="#fff" stop-opacity="0" offset="1"/>
</linearGradient>
<filter id="filter3174-5" color-interpolation-filters="sRGB">
<feGaussianBlur stdDeviation="1.71"/>
</filter>
<linearGradient id="linearGradient4071-3" x1="6" x2="90" y1="47" y2="47" gradientTransform="matrix(1.1014 0 0 1.1014 3.1779 -18.43)" gradientUnits="userSpaceOnUse">
<stop stop-color="#b2babc" offset="0"/>
<stop stop-color="#fff" offset=".25"/>
<stop stop-color="#96a1a4" offset=".5"/>
<stop stop-color="#fbf9f9" offset=".75"/>
<stop stop-color="#b2b9bc" offset="1"/>
</linearGradient>
<linearGradient id="linearGradient4129-2" x1="1.5" x2="94.5" y1="88.172" y2="88.172" gradientTransform="matrix(.99479 0 0 .99479 8.294 -14.416)" gradientUnits="userSpaceOnUse">
<stop offset="0"/>
<stop stop-opacity=".58824" offset=".1"/>
<stop stop-opacity=".58824" offset=".9"/>
<stop offset="1"/>
</linearGradient>
<radialGradient id="radialGradient7462-0" cx="13.948" cy="44.893" r="43.199" gradientTransform="matrix(.97005 0 0 .048935 42.016 65.334)" gradientUnits="userSpaceOnUse" xlink:href="#linearGradient8265-821-176-38-919-66-249-7-7-6-5-0"/>
<radialGradient id="radialGradient7464-0" cx="13.948" cy="44.893" r="43.199" gradientTransform="matrix(.8837 0 0 .048935 16.965 -97.993)" gradientUnits="userSpaceOnUse" xlink:href="#linearGradient8265-821-176-38-919-66-249-7-7-6-5-0"/>
<clipPath id="clipPath4156-4-1">
<path d="m27.046-55.695-14.214 13.321h0.06127l15.653 21.771 10.231-10.546c-0.2169-1.1522-11.311-23.67-11.732-24.546zm-17.399 16.313-14.888 14.062 21.229 17.515 10.385-10.577zm31.491 12.951-9.7413 9.7136 8.9448 12.458 7.7808-7.555zm-49.84 4.3788-13.754 12.982 26.283 13.846 0.06127-0.0617-0.12253-0.0617 9.8332-10.053-22.301-16.652zm38.015 7.4008-9.8025 9.7753 11.579 9.5594 7.6276-7.4008-8.6691-11.009zm20.187 5.674-7.3825 7.2158 6.1878 8.5418 5.8202-6.1365zm-32.195 6.3215-9.5575 9.4977 13.662 7.185 7.9339-7.6784zm23.312 2.3744-7.1068 6.9383 8.3628 6.9074 5.3608-5.674-0.06127-0.0925-0.0919 0.12335-6.4635-8.2026zm-8.7304 8.5418-7.5051 7.3392 10.354 5.4581c1.3975-1.321 5.6751-6.1229 5.8509-6.3215z" fill="#fff" opacity=".6"/>
</clipPath>
</defs>
<metadata>
<rdf:RDF>
<cc:Work rdf:about="">
<dc:format>image/svg+xml</dc:format>
<dc:type rdf:resource="http://purl.org/dc/dcmitype/StillImage"/>
<dc:title/>
</cc:Work>
</rdf:RDF>
</metadata>
<g transform="translate(-1e-6,32)">
<g transform="translate(-8.044 -17.334)">
<g transform="translate(251.29 -104.9)">
<g display="none">
<rect x="5" y="7" width="86" height="85" rx="6" ry="6" fill="url(#ButtonShadow)" filter="url(#filter3174-3)" opacity=".9"/>
</g>
</g>
<path d="m96.973-14.416h-81.857c-3.7791 0-6.8214 3.0424-6.8214 6.8214v81.857c0 3.7791 3.0424 6.8214 6.8214 6.8214h81.857c3.7791 0 6.8214-3.0424 6.8214-6.8214v-81.857c0-3.7791-3.0424-6.8214-6.8214-6.8214z" opacity=".15"/>
<path d="m96.333-13.669h-80.578c-3.72 0-6.7148 2.9948-6.7148 6.7148v80.578c0 3.72 2.9948 6.7148 6.7148 6.7148h80.578c3.72 0 6.7149-2.9948 6.7149-6.7148v-80.578c0-3.72-2.9948-6.7148-6.7149-6.7148z" opacity=".15"/>
<path d="m95.694-12.923h-79.299c-3.661 0-6.6083 2.9473-6.6083 6.6083v79.299c0 3.661 2.9473 6.6083 6.6083 6.6083h79.299c3.661 0 6.6083-2.9473 6.6083-6.6083v-79.299c0-3.661-2.9473-6.6083-6.6083-6.6083z" fill="url(#linearGradient4071-3)"/>
<path d="m19.477-8.0617c-2.8416 0-5.0974 2.2765-5.0974 5.1441v68.223c1.0915 1.6757 2.9534 2.7971 5.0974 2.7971h73.403c2.1441 0 4.0059-1.1214 5.0974-2.7971v-68.223c0-2.8676-2.2558-5.1441-5.0974-5.1441z" fill="#de5a34" opacity=".98"/>
<path d="m54.915 1.9509c-11.512 0-20.844 8.7922-20.844 19.639 0 2.6994 0.57459 5.2595 1.6204 7.6007-1.7097 1.7985-3.2049 3.7912-4.4377 5.9293-2.5207-1.5505-5.5278-2.4731-8.7627-2.4731-2.8145 0-5.4581 0.6852-7.7582 1.8837v30.485c0 1.7306 1.4558 3.1175 3.3341 3.1175h76.393c1.8783 0 3.3341-1.3869 3.3341-3.1175v-60.485c-21.768 0.56087-24.847 2.0412-27.207 4.1481-3.8206-4.1073-9.4158-6.7275-15.672-6.7275z" color="#000000" fill="#fff" fill-opacity=".94561"/>
<path d="m38.813 12.411v27.078c0 6.6526 4.9232 14.77 14.77 14.77 9.8465 0 19.693-2.4616 19.693-2.4616v-39.386h-12.308v29.539h-9.8465v-19.693h-7.3849l7.3849-9.8465z" fill="#de5a34"/>
<path d="m9.7861 67.002v5.9688c0 3.661 2.9606 6.6216 6.6216 6.6216h79.272c3.661 0 6.6216-2.9606 6.6216-6.6216v-5.9688c0 3.661-2.9606 6.6216-6.6216 6.6216h-79.272c-3.661 0-6.6216-2.9606-6.6216-6.6216z" fill="url(#linearGradient4129-2)" opacity=".65818"/>
<rect x="13.641" y="65.416" width="83.811" height="4.2279" rx="0" ry="4.2279" fill="url(#radialGradient7462-0)" opacity=".55"/>
<rect transform="rotate(90)" x="-8.8845" y="-97.91" width="76.35" height="4.2279" rx="0" ry="4.2279" fill="url(#radialGradient7464-0)" opacity=".669"/>
<rect transform="matrix(1.0637 0 0 1.0422 12.567 23.863)" x="2" y="-30" width="75.966" height="69.024" rx="3.957" ry="3.957" clip-path="url(#clipPath4156-4-1)" fill="url(#linearGradient7466)" opacity=".65"/>
<path d="m18.068-9.7107c-3.1004 0-5.6384 2.5263-5.6384 5.6166v68.917c0 3.0903 2.5381 5.6166 5.6384 5.6166h76.392c3.1004 0 5.6384-2.5263 5.6384-5.6166v-68.917c0-3.0903-2.5381-5.6166-5.6384-5.6166zm0 2.3074h76.392c1.8783 0 3.3346 1.4724 3.3346 3.3092v68.917c0 1.8369-1.4563 3.3092-3.3346 3.3092h-76.392c-1.8783 0-3.3346-1.4724-3.3346-3.3092v-68.917c0-1.8369 1.4563-3.3092 3.3346-3.3092z" color="#000000" fill="#202223" fill-opacity=".93689" style="text-decoration-line:none;text-indent:0;text-transform:none"/>
<path d="m70.971 40.589-0.86322 0.86321c-0.9533 0.9533-0.9533 2.4995 0 3.4528l1.4902 1.489c-0.47969 0.83521-0.8559 1.7337-1.1177 2.6822h-1.612c-1.3478 0-2.4411 1.0933-2.4411 2.4411v1.2199c0 1.3478 1.0921 2.4411 2.4411 2.4411h1.5925c0.25324 0.9387 0.61239 1.8323 1.0799 2.6615l-1.433 1.4318c-0.9533 0.9533-0.9533 2.4995 0 3.4528l0.86322 0.86199c0.9533 0.95331 2.4995 0.95331 3.4528 0l1.4038-1.4038c0.85833 0.50039 1.7861 0.88999 2.7662 1.1578v1.64c1e-3 1.349 1.0946 2.4411 2.4423 2.4411h1.2199c1.3478 0 2.4423-1.0921 2.4423-2.4411v-1.64c0.9801-0.26785 1.9066-0.65745 2.7662-1.1578l1.405 1.405c0.95208 0.9533 2.4983 0.9533 3.4516 0l0.86321-0.86199c0.95331-0.9533 0.95331-2.4995 0-3.4528l-1.4318-1.433c0.4663-0.82912 0.8279-1.7228 1.0799-2.6627h1.5913c1.349 0.0012 2.4411-1.0921 2.4411-2.4411v-1.2199c0-1.3478-1.0921-2.4411-2.4411-2.4411h-1.6108c-0.26297-0.94844-0.63797-1.847-1.1189-2.6822l1.4902-1.489c0.95331-0.9533 0.95331-2.4995 0-3.4528l-0.86321-0.86321c-0.9533-0.9533-2.4995-0.9533-3.4516 0l-1.4988 1.4987c-0.83276-0.47361-1.7276-0.84251-2.6712-1.0994v-1.5633c0-1.3466-1.0933-2.4411-2.4423-2.4411h-1.2199c-1.3478 0-2.4411 1.0933-2.4411 2.4411v1.5633c-0.94356 0.25689-1.8409 0.62701-2.6712 1.0994l-1.4987-1.4987c-0.95574-0.95209-2.5008-0.95209-3.4553 0.0012zm10.675 4.7872c3.7073 0 6.7133 3.0048 6.7133 6.7133s-3.006 6.7133-6.7133 6.7133-6.7133-3.006-6.7133-6.7133c0-3.7085 3.006-6.7133 6.7133-6.7133zm0 9.8399c1.6862 0 3.0523-1.366 3.0523-3.0511 0-1.685-1.366-3.0511-3.0523-3.0511-1.685 0-3.0511 1.366-3.0511 3.0511 0 1.685 1.366 3.0511 3.0511 3.0511z" fill="#433f3f" stroke="#e06440" stroke-linecap="round" stroke-linejoin="bevel" stroke-opacity=".97908" stroke-width=".8" style="paint-order:stroke markers fill"/>
</g>
</g>
<g display="none">
<rect x="5" y="7" width="86" height="85" rx="6" ry="6" fill="url(#ButtonShadow)" filter="url(#filter3174-36)" opacity=".9"/>
</g>
<g display="none">
<rect x="5" y="7" width="86" height="85" rx="6" ry="6" fill="url(#ButtonShadow)" filter="url(#filter3174-5)" opacity=".9"/>
</g>
<g display="none">
<rect x="5" y="7" width="86" height="85" rx="6" ry="6" fill="url(#ButtonShadow)" filter="url(#filter3174)" opacity=".9"/>
</g>
</svg>
