<?xml version="1.0" encoding="UTF-8"?>
<!-- Created with Inkscape (http://www.inkscape.org/) -->
<svg version="1.1" viewBox="0 0 96 96" xmlns="http://www.w3.org/2000/svg" xmlns:cc="http://creativecommons.org/ns#" xmlns:dc="http://purl.org/dc/elements/1.1/" xmlns:rdf="http://www.w3.org/1999/02/22-rdf-syntax-ns#" xmlns:xlink="http://www.w3.org/1999/xlink">
<defs>
<radialGradient id="b" cx="43.941" cy="45.896" r="19.609" fy="27.021" gradientTransform="matrix(1.2871 -.74308 .7663 1.3273 11.076 33.95)" gradientUnits="userSpaceOnUse">
<stop stop-color="#b3f4ff" offset="0"/>
<stop stop-color="#7ce2ed" stop-opacity=".85882" offset=".24309"/>
<stop stop-color="#3fc4ca" stop-opacity=".71765" offset=".53096"/>
<stop stop-color="#89f9fe" stop-opacity=".59216" offset=".77596"/>
<stop stop-color="#bcfeff" stop-opacity=".61961" offset=".80046"/>
<stop stop-color="#fff" stop-opacity=".90496" offset="1"/>
</radialGradient>
<linearGradient id="f" x1="-33" x2="-26" y1="34" y2="34" gradientTransform="matrix(-.86603 -.5 -.5 .86603 33.36 -10.098)" gradientUnits="userSpaceOnUse" xlink:href="#b"/>
<linearGradient id="e" x1="27.852" x2="31.148" y1="16.545" y2="16.545" gradientTransform="matrix(-.86603 -.5 -.5 .86603 84.456 19.402)" gradientUnits="userSpaceOnUse" xlink:href="#b"/>
<linearGradient id="d" x1="33.129" x2="25.885" y1="14.31" y2="14.31" gradientTransform="rotate(30,35.524,57.202)" gradientUnits="userSpaceOnUse" xlink:href="#b"/>
<linearGradient id="g" x1="22.239" x2="19.693" y1="43.319" y2="-6.3785" gradientTransform="matrix(1.4956 0 -.076621 1.3788 -10.937 -5.0508)" gradientUnits="userSpaceOnUse">
<stop stop-color="#bdf4f6" offset="0"/>
<stop stop-color="#bdecee" stop-opacity="0" offset="1"/>
</linearGradient>
<linearGradient id="linearGradient3737">
<stop stop-color="#fff" offset="0"/>
<stop stop-color="#fff" stop-opacity="0" offset="1"/>
</linearGradient>
<linearGradient id="linearGradient4071-3" x1="6" x2="90" y1="47" y2="47" gradientTransform="matrix(1.1071 0 0 1.1071 -5.1429 -4.0357)" gradientUnits="userSpaceOnUse">
<stop stop-color="#b2babc" offset="0"/>
<stop stop-color="#fff" offset=".25"/>
<stop stop-color="#96a1a4" offset=".5"/>
<stop stop-color="#fbf9f9" offset=".75"/>
<stop stop-color="#b2b9bc" offset="1"/>
</linearGradient>
<linearGradient id="linearGradient4129-6" x1="1.5" x2="94.5" y1="88.172" y2="88.172" gradientTransform="translate(-2.95e-6,2.6e-5)" gradientUnits="userSpaceOnUse">
<stop offset="0"/>
<stop stop-opacity=".58824" offset=".1"/>
<stop stop-opacity=".58824" offset=".9"/>
<stop offset="1"/>
</linearGradient>
<radialGradient id="radialGradient7462-7" cx="13.948" cy="44.893" r="43.199" gradientTransform="matrix(.97513 0 0 .049191 33.899 80.167)" gradientUnits="userSpaceOnUse" xlink:href="#linearGradient3737"/>
<radialGradient id="radialGradient7464-3" cx="13.948" cy="44.893" r="43.199" gradientTransform="matrix(.88833 0 0 .049191 31.545 -90.168)" gradientUnits="userSpaceOnUse" xlink:href="#linearGradient3737"/>
<clipPath id="clipPath4156-4-1-6">
<path d="m27.046-55.695-14.214 13.321h0.06127l15.653 21.771 10.231-10.546c-0.2169-1.1522-11.311-23.67-11.732-24.546zm-17.399 16.313-14.888 14.062 21.229 17.515 10.385-10.577zm31.491 12.951-9.7413 9.7136 8.9448 12.458 7.7808-7.555zm-49.84 4.3788-13.754 12.982 26.283 13.846 0.06127-0.0617-0.12253-0.0617 9.8332-10.053-22.301-16.652zm38.015 7.4008-9.8025 9.7753 11.579 9.5594 7.6276-7.4008-8.6691-11.009zm20.187 5.674-7.3825 7.2158 6.1878 8.5418 5.8202-6.1365zm-32.195 6.3215-9.5575 9.4977 13.662 7.185 7.9339-7.6784zm23.312 2.3744-7.1068 6.9383 8.3628 6.9074 5.3608-5.674-0.06127-0.0925-0.0919 0.12335-6.4635-8.2026zm-8.7304 8.5418-7.5051 7.3392 10.354 5.4581c1.3975-1.321 5.6751-6.1229 5.8509-6.3215z" fill="#fff" opacity=".6"/>
</clipPath>
<linearGradient id="linearGradient1118" x1="2.7714" x2="50.528" y1="-28.642" y2="14.514" gradientUnits="userSpaceOnUse" xlink:href="#linearGradient3737"/>
<radialGradient id="c-9" cx="30.021" cy="52.301" r="3.5" fx="28.176" fy="55.413" gradientTransform="matrix(1.016 .41663 -2.2837 5.569 123.23 -250.77)" gradientUnits="userSpaceOnUse">
<stop stop-color="#b3f4ff" offset="0"/>
<stop stop-color="#7ce2ed" stop-opacity=".85882" offset=".24309"/>
<stop stop-color="#3fc4ca" stop-opacity=".71765" offset=".53096"/>
<stop stop-color="#89f9fe" stop-opacity=".59216" offset=".77596"/>
<stop stop-color="#bcfeff" stop-opacity=".61961" offset=".80046"/>
<stop stop-color="#fff" stop-opacity=".90496" offset="1"/>
</radialGradient>
</defs>
<metadata>
<rdf:RDF>
<cc:Work rdf:about="">
<dc:format>image/svg+xml</dc:format>
<dc:type rdf:resource="http://purl.org/dc/dcmitype/StillImage"/>
<dc:title/>
</cc:Work>
</rdf:RDF>
</metadata>
<path d="m89.143 2.6e-5h-82.286c-3.7988 0-6.8571 3.0583-6.8571 6.8571v82.286c0 3.7989 3.0583 6.8571 6.8571 6.8571h82.286c3.7989 0 6.8571-3.0583 6.8571-6.8571v-82.286c0-3.7989-3.0583-6.8571-6.8571-6.8571z" opacity=".15"/>
<path d="m88.5 0.75003h-81c-3.7395 0-6.75 3.0105-6.75 6.75v81c0 3.7395 3.0105 6.75 6.75 6.75h81c3.7395 0 6.75-3.0105 6.75-6.75v-81c0-3.7395-3.0105-6.75-6.75-6.75z" opacity=".15"/>
<path d="m87.857 1.5h-79.714c-3.6801 0-6.6429 2.9627-6.6429 6.6429v79.714c0 3.6801 2.9627 6.6429 6.6429 6.6429h79.714c3.6801 0 6.6429-2.9627 6.6429-6.6429v-79.714c0-3.6801-2.9627-6.6429-6.6429-6.6429z" fill="url(#linearGradient4071-3)"/>
<path d="m11.241 6.3872c-2.8565 0-5.1241 2.3216-5.1241 5.2462v69.577c1.0972 1.709 2.9688 2.8526 5.1241 2.8526h73.787c2.1553 0 4.0269-1.1436 5.1241-2.8526v-69.577c0-2.9245-2.2676-5.2462-5.1241-5.2462z" fill="#1860c7" opacity=".96"/>
<g transform="matrix(1.4956 0 0 1.4956 -13.375 -8.1889)">
<path transform="matrix(.66863 0 0 .66863 8.9581 4.2201)" d="m13.963 12.875 0.77224 2.7577h-1.4956l3.2819 11.72h1.4956l-2.8959-10.341h1.4956l6.564 23.44-1.0216-0.08652-3.3699-10.255h-1.4956c7.7111 24.372 11.898 30.289 14.577 44.833 1.1887-18.719-1.162-33.172-3.9146-44.144h-1.4956l-1.5445-5.5155h1.4956l-3.475-12.41h-1.4956l1.1584 4.1365h-1.4956l-1.1584-4.1365h-1.4956l2.7028 9.652h1.4956l-0.77224-2.7577h1.4956l0.77224 2.7577h-1.4956l0.77224 2.7577h-1.4956l3.089 11.031h-1.4956l-6.564-23.44zm11.388 19.304h1.4956l0.77224 2.7577h-1.4956zm1.1828 6.8942h1.4956l0.75501 5.3931-0.70613 0.12236zm-2.3452 6.8942h1.4956l0.82512 1.8061h-1.4956z" fill="url(#g)" stroke-width="1.4956" style="paint-order:normal"/>
<path transform="matrix(.66863 0 0 .66863 8.9581 4.2201)" d="m69.395 17.641-38.436 58.775 11.33 8.084h47.336l0.52734-4.3613-0.0098-48.314z" fill-opacity=".16518"/>
<path d="m31.127 45.77-1.4689 9.5442 7.5311-6.0442z" fill="#7eb0bf" style="paint-order:normal"/>
<path d="m46.877 18.49-15.807 27.378c-0.25903 0.45085 0.88706 1.5991 2.5604 2.5652 1.6734 0.96612 3.2408 1.3846 3.5017 0.93479l15.807-27.378z" fill="#cbdfe5" style="paint-order:normal"/>
<path d="m37.189 49.27-7.5311 6.0442 1.4689-9.5442z" fill="url(#c-9)" style="paint-order:normal"/>
<path d="m46.877 18.49-15.807 27.378c-0.25903 0.45085 0.88706 1.5991 2.5604 2.5652 1.6734 0.96612 3.2408 1.3846 3.5017 0.93479l15.807-27.378z" fill="url(#f)" style="paint-order:normal"/>
<path d="m50.669 18.921c-2.1523-1.2426-4.1189-1.8658-4.3925-1.392l-0.99538 1.7241c-0.2736 0.47388 1.2494 1.8654 3.4017 3.108s4.1189 1.8658 4.3925 1.392l0.99538-1.7241c0.2736-0.47388-1.2494-1.8654-3.4017-3.108z" fill="#cbdfe5" style="paint-order:normal"/>
<path d="m50.669 18.921c2.1523 1.2426 3.6753 2.6342 3.4017 3.108l-0.99538 1.7241c-0.27359 0.47388-2.2402-0.14933-4.3925-1.392-2.1523-1.2426-3.6753-2.6342-3.4017-3.108l0.99538-1.7241c0.27359-0.47388 2.2402 0.14933 4.3925 1.392z" fill="url(#e)" style="paint-order:normal"/>
<path d="m53.436 14.129c-1.674-0.9665-3.2036-1.4512-3.4196-1.0826l-2.9282 4.5718c-0.22799 0.3949 1.0412 1.5545 2.8348 2.59s3.4324 1.5549 3.6604 1.16l2.4952-4.8218c0.2128-0.36857-0.97176-1.4509-2.9658-2.4174z" fill="#cbdfe5" style="paint-order:normal"/>
<path d="m53.436 14.129c-1.674-0.9665-3.2036-1.4512-3.4196-1.0826l-2.9282 4.5718c-0.22799 0.3949 1.0412 1.5545 2.8348 2.59s3.4324 1.5549 3.6604 1.16l2.4952-4.8218c0.2128-0.36857-0.97176-1.4509-2.9658-2.4174z" fill="url(#d)" style="paint-order:normal"/>
<path d="m55.358 16.015c-0.15056 0.26077-1.2835-0.11148-2.5305-0.83145s-2.1359-1.515-1.9853-1.7758 1.2835 0.11148 2.5305 0.83145 2.1359 1.515 1.9853 1.7758z" fill="#87dee3" style="paint-order:normal"/>
</g>
<path d="m9.8251 4.7295c-3.1166 0-5.668 2.5395-5.668 5.646v69.278c0 3.1065 2.5513 5.646 5.668 5.646h76.792c3.1166 0 5.668-2.5395 5.668-5.646v-69.278c0-3.1065-2.5513-5.646-5.668-5.646zm0 2.3194h76.792c1.8881 0 3.352 1.4801 3.352 3.3266v69.278c0 1.8465-1.4639 3.3266-3.352 3.3266h-76.792c-1.8881 0-3.352-1.4801-3.352-3.3266v-69.278c0-1.8465 1.4639-3.3266 3.352-3.3266z" color="#000000" fill="#202223" fill-opacity=".96429" style="text-decoration-line:none;text-indent:0;text-transform:none"/>
<path d="m1.5 81.844v6c0 3.6801 2.9761 6.6562 6.6562 6.6562h79.688c3.6801 0 6.6563-2.9761 6.6563-6.6562v-6c0 3.6801-2.9761 6.6562-6.6563 6.6562h-79.688c-3.6801 0-6.6562-2.9761-6.6562-6.6562z" fill="url(#linearGradient4129-6)" opacity=".65818"/>
<rect x="5.375" y="80.25" width="84.25" height="4.25" rx="0" ry="4.25" fill="url(#radialGradient7462-7)" opacity=".55"/>
<rect transform="rotate(90)" x="5.56" y="-90.085" width="76.75" height="4.25" rx="0" ry="4.25" fill="url(#radialGradient7464-3)" opacity=".669"/>
<rect transform="matrix(1.0692 0 0 1.0477 4.2952 38.479)" x="2" y="-30" width="75.966" height="69.024" rx="3.957" ry="3.957" clip-path="url(#clipPath4156-4-1-6)" fill="url(#linearGradient1118)" opacity=".65"/>
</svg>
