<?xml version="1.0" encoding="UTF-8"?>
<svg version="1.1" viewBox="0 0 96 96" xmlns="http://www.w3.org/2000/svg" xmlns:cc="http://creativecommons.org/ns#" xmlns:dc="http://purl.org/dc/elements/1.1/" xmlns:rdf="http://www.w3.org/1999/02/22-rdf-syntax-ns#" xmlns:xlink="http://www.w3.org/1999/xlink">
<metadata>
<rdf:RDF>
<cc:Work rdf:about="">
<dc:format>image/svg+xml</dc:format>
<dc:type rdf:resource="http://purl.org/dc/dcmitype/StillImage"/>
<dc:title/>
<dc:date>2019</dc:date>
<dc:creator>
<cc:Agent>
<dc:title>Cristian Pozzessere  &lt; ilnanny &gt;</dc:title>
</cc:Agent>
</dc:creator>
<dc:subject>
<rdf:Bag>
<rdf:li>ilnanny</rdf:li>
</rdf:Bag>
</dc:subject>
<dc:description>Playing with Inkscape on Gnu/Linux O. S.</dc:description>
<dc:contributor>
<cc:Agent>
<dc:title>In the night, alone like a dog.</dc:title>
</cc:Agent>
</dc:contributor>
</cc:Work>
</rdf:RDF>
</metadata>
<defs>
<linearGradient id="linearGradient4071" x1="6" x2="90" y1="47" y2="47" gradientTransform="matrix(1.1048 0 0 1.1048 -5.0321 -3.9273)" gradientUnits="userSpaceOnUse">
<stop stop-color="#b2babc" offset="0"/>
<stop stop-color="#fff" offset=".25"/>
<stop stop-color="#96a1a4" offset=".5"/>
<stop stop-color="#fbf9f9" offset=".75"/>
<stop stop-color="#b2b9bc" offset="1"/>
</linearGradient>
<linearGradient id="linearGradient4129" x1="1.5" x2="94.5" y1="88.172" y2="88.172" gradientTransform="matrix(.99792 0 0 .99792 .099998 .1)" gradientUnits="userSpaceOnUse">
<stop offset="0"/>
<stop stop-opacity=".58824" offset=".1"/>
<stop stop-opacity=".58824" offset=".9"/>
<stop offset="1"/>
</linearGradient>
<radialGradient id="radialGradient7462" cx="13.948" cy="44.893" r="43.199" gradientTransform="matrix(.9731 0 0 .049088 33.928 80.1)" gradientUnits="userSpaceOnUse" xlink:href="#linearGradient3737"/>
<linearGradient id="linearGradient3737">
<stop stop-color="#fff" offset="0"/>
<stop stop-color="#fff" stop-opacity="0" offset="1"/>
</linearGradient>
<radialGradient id="radialGradient7464" cx="13.948" cy="44.893" r="43.199" gradientTransform="matrix(.88648 0 0 .049088 31.579 -90.08)" gradientUnits="userSpaceOnUse" xlink:href="#linearGradient3737"/>
<linearGradient id="linearGradient4767" x1="2.7714" x2="50.528" y1="-28.642" y2="14.514" gradientUnits="userSpaceOnUse" xlink:href="#linearGradient3737"/>
<clipPath id="clipPath4156-4-1">
<path d="m27.046-55.695-14.214 13.321h0.06127l15.653 21.771 10.231-10.546c-0.2169-1.1522-11.311-23.67-11.732-24.546zm-17.399 16.313-14.888 14.062 21.229 17.515 10.385-10.577zm31.491 12.951-9.7413 9.7136 8.9448 12.458 7.7808-7.555zm-49.84 4.3788-13.754 12.982 26.283 13.846 0.06127-0.0617-0.12253-0.0617 9.8332-10.053-22.301-16.652zm38.015 7.4008-9.8025 9.7753 11.579 9.5594 7.6276-7.4008-8.6691-11.009zm20.187 5.674-7.3825 7.2158 6.1878 8.5418 5.8202-6.1365zm-32.195 6.3215-9.5575 9.4977 13.662 7.185 7.9339-7.6784zm23.312 2.3744-7.1068 6.9383 8.3628 6.9074 5.3608-5.674-0.06127-0.0925-0.0919 0.12335-6.4635-8.2026zm-8.7304 8.5418-7.5051 7.3392 10.354 5.4581c1.3975-1.321 5.6751-6.1229 5.8509-6.3215z" fill="#fff" opacity=".6"/>
</clipPath>
</defs>
<path d="m89.057 0.1h-82.114c-3.7909 0-6.8428 3.0519-6.8428 6.8429v82.114c0 3.7909 3.0519 6.8429 6.8428 6.8429h82.114c3.7909 0 6.8429-3.0519 6.8429-6.8429v-82.114c0-3.7909-3.0519-6.8429-6.8429-6.8429z" opacity=".15"/>
<path d="m88.416 0.84844h-80.831c-3.7317 0-6.7359 3.0042-6.7359 6.7359v80.831c0 3.7317 3.0042 6.7359 6.7359 6.7359h80.831c3.7317 0 6.7359-3.0042 6.7359-6.7359v-80.831c0-3.7317-3.0042-6.7359-6.7359-6.7359z" opacity=".15"/>
<path d="m87.774 1.5969h-79.548c-3.6725 0-6.629 2.9565-6.629 6.629v79.548c0 3.6725 2.9565 6.629 6.629 6.629h79.548c3.6725 0 6.629-2.9565 6.629-6.629v-79.548c0-3.6725-2.9565-6.629-6.629-6.629z" fill="url(#linearGradient4071)"/>
<path d="m11.318 6.4738c-2.8505 0-5.1135 2.3109-5.1135 5.2219v69.256c1.095 1.7011 2.9627 2.8394 5.1135 2.8394h75.2c2.1508 0 2.4523 0.03629 3.5472-1.6648v-70.431c0-2.911-2.2629-5.2219-5.1135-5.2219z" fill="#ebeff2" opacity=".98"/>
<path d="m1.5969 81.773v5.9875c0 3.6725 2.9699 6.6424 6.6424 6.6424h79.521c3.6725 0 6.6424-2.9699 6.6424-6.6424v-5.9875c0 3.6725-2.9699 6.6424-6.6424 6.6424h-79.521c-3.6725 0-6.6424-2.9699-6.6424-6.6424z" fill="url(#linearGradient4129)" opacity=".65818"/>
<rect x="5.4638" y="80.183" width="84.074" height="4.2411" rx="0" ry="4.2411" fill="url(#radialGradient7462)" opacity=".55"/>
<rect transform="rotate(90)" x="5.6484" y="-89.997" width="76.59" height="4.2411" rx="0" ry="4.2411" fill="url(#radialGradient7464)" opacity=".669"/>
<g transform="matrix(2.5912 0 0 2.5912 -15.485 -12.406)">
<rect x="16.182" y="14.737" width="10.921" height="1.1815" rx=".48365"/>
<rect x="16.182" y="17.1" width="16.381" height="1.1815" rx=".48365"/>
<rect x="16.182" y="19.463" width="21.841" height="1.1815" rx=".48365"/>
<path d="m10.426 36.873h27.906c2.4279 0 2.4182 0 2.4182-2.0279v-16.885l-16.381-9.4608-16.381 9.4608v16.885c0 2.0279 0 2.0279 2.4376 2.0279" fill="#4571d1"/>
<path d="m38.328 36.873h-27.906c-2.4327 0-2.4327 0-2.4327-1.986v-16.927l32.757 16.927c0 1.986 0 1.986-2.4182 1.986" fill="#31b9f6"/>
<path d="m14.813 36.718h23.52c2.4279 0 2.4182 0 2.4182-1.986v-16.927l-31.394 18.922" fill="#82d4fa"/>
<path d="m7.9932 17.951 16.381-9.4608 16.381 9.4608" fill="#3d65cb"/>
<path d="m23.006 15.115-2.0458 1.655 6.1423 4.7304 12.967-9.4608-2.0458-1.7723-10.921 8.2792" fill="#e2e2e2"/>
</g>
<rect transform="matrix(1.067 0 0 1.0455 4.3863 38.499)" x="2" y="-30" width="75.966" height="69.024" rx="3.957" ry="3.957" clip-path="url(#clipPath4156-4-1)" fill="url(#linearGradient4767)" opacity=".7"/>
<path d="m9.9046 4.8196c-3.1101 0-5.6562 2.5342-5.6562 5.6342v69.134c0 3.1 2.546 5.6342 5.6562 5.6342h76.632c3.1101 0 5.6562-2.5342 5.6562-5.6342v-69.134c0-3.1-2.546-5.6342-5.6562-5.6342zm0 2.3146h76.632c1.8842 0 3.345 1.477 3.345 3.3196v69.134c0 1.8426-1.4609 3.3196-3.345 3.3196h-76.632c-1.8842 0-3.345-1.477-3.345-3.3196v-69.134c0-1.8426 1.4609-3.3196 3.345-3.3196z" color="#000000" fill="#1f2224" fill-opacity=".94841" style="text-decoration-line:none;text-indent:0;text-transform:none"/>
</svg>
