<?xml version="1.0" encoding="UTF-8"?>
<!-- Created with Inkscape (http://www.inkscape.org/) -->
<svg width="96" height="96" version="1.1" viewBox="0 0 25.4 25.4" xmlns="http://www.w3.org/2000/svg" xmlns:cc="http://creativecommons.org/ns#" xmlns:dc="http://purl.org/dc/elements/1.1/" xmlns:rdf="http://www.w3.org/1999/02/22-rdf-syntax-ns#" xmlns:xlink="http://www.w3.org/1999/xlink">
<defs>
<linearGradient id="linearGradient4071-6" x1="6" x2="90" y1="47" y2="47" gradientTransform="matrix(.29141 0 0 .29141 -3.2666 741.71)" gradientUnits="userSpaceOnUse">
<stop stop-color="#afbabf" offset="0"/>
<stop stop-color="#fff" offset=".25"/>
<stop stop-color="#8ea2ac" offset=".5"/>
<stop stop-color="#fafafa" offset=".75"/>
<stop stop-color="#adbbc1" offset="1"/>
</linearGradient>
<linearGradient id="linearGradient4129-8" x1="1.5" x2="94.5" y1="88.172" y2="88.172" gradientTransform="matrix(.26321 0 0 .26321 -1.913 742.77)" gradientUnits="userSpaceOnUse">
<stop offset="0"/>
<stop stop-opacity=".58824" offset=".1"/>
<stop stop-opacity=".58824" offset=".9"/>
<stop offset="1"/>
</linearGradient>
<radialGradient id="radialGradient4139" cx="13.948" cy="44.893" r="43.199" gradientTransform="matrix(.25666 0 0 .012947 7.0093 763.87)" gradientUnits="userSpaceOnUse" xlink:href="#linearGradient5747"/>
<linearGradient id="linearGradient5747">
<stop stop-color="#fff" offset="0"/>
<stop stop-color="#fff" stop-opacity="0" offset="1"/>
</linearGradient>
<radialGradient id="radialGradient4143" cx="13.948" cy="44.893" r="43.199" gradientTransform="matrix(.23381 0 0 .012947 750.86 -21.962)" gradientUnits="userSpaceOnUse" xlink:href="#linearGradient5747"/>
<linearGradient id="linearGradient4767-2" x1="2.7714" x2="50.528" y1="-28.642" y2="14.514" gradientUnits="userSpaceOnUse" xlink:href="#linearGradient5747"/>
<clipPath id="clipPath4156-4-6-1-9">
<path d="m27.046-55.695-14.214 13.321h0.06127l15.653 21.771 10.231-10.546c-0.2169-1.1522-11.311-23.67-11.732-24.546zm-17.399 16.313-14.888 14.062 21.229 17.515 10.385-10.577zm31.491 12.951-9.7413 9.7136 8.9448 12.458 7.7808-7.555zm-49.84 4.3788-13.754 12.982 26.283 13.846 0.06127-0.0617-0.12253-0.0617 9.8332-10.053-22.301-16.652zm38.015 7.4008-9.8025 9.7753 11.579 9.5594 7.6276-7.4008-8.6691-11.009zm20.187 5.674-7.3825 7.2158 6.1878 8.5418 5.8202-6.1365zm-32.195 6.3215-9.5575 9.4977 13.662 7.185 7.9339-7.6784zm23.312 2.3744-7.1068 6.9383 8.3628 6.9074 5.3608-5.674-0.06127-0.0925-0.0919 0.12335-6.4635-8.2026zm-8.7304 8.5418-7.5051 7.3392 10.354 5.4581c1.3975-1.321 5.6751-6.1229 5.8509-6.3215z" fill="#fff" opacity=".6"/>
</clipPath>
</defs>
<metadata>
<rdf:RDF>
<cc:Work rdf:about="">
<dc:format>image/svg+xml</dc:format>
<dc:type rdf:resource="http://purl.org/dc/dcmitype/StillImage"/>
<cc:license rdf:resource="GPL"/>
<dc:creator>
<cc:Agent>
<dc:title/>
</cc:Agent>
</dc:creator>
</cc:Work>
</rdf:RDF>
</metadata>
<g transform="translate(0 -735.42)">
<g transform="translate(0,703)">
<g transform="matrix(1.1919 0 0 .93794 -99.757 -671.53)">
<g transform="matrix(.1 0 0 -.1 0 511)"></g>
</g>
</g>
<path transform="matrix(1.1919 0 0 .93794 -99.757 36.232)" d="m305.68 10.264c-16.557 0.0012-33.011 6.8178-44.719 18.525-11.708 11.708-18.526 28.161-18.527 44.719 0 106.86 54.033 188.71 98.516 259.37 44.482 70.658 79.072 129.26 79.072 191.98 0 31.104-7.5537 56.099-20.723 79.746-13.169 23.647-31.68 46.059-54.041 73.764-44.672 55.348-102.82 130.61-102.82 241.42 2e-3 16.557 6.8178 33.011 18.525 44.719 11.708 11.708 28.162 18.524 44.719 18.525h399.57c16.557-2e-3 33.011-6.8178 44.719-18.525 11.708-11.708 18.524-28.162 18.525-44.719 0-109.44-65.803-182.93-115.78-239.38-24.99-28.228-45.761-51.856-60.559-76.174s-23.443-49.565-23.443-79.367c0-60.093 38.195-118.43 88.26-189.12 50.065-70.69 111.53-152.54 111.53-262.22-0.00162-16.557-6.8182-33.009-18.525-44.717-11.707-11.707-28.161-18.525-44.717-18.527-152.35-0.0027-247.23 0.0027-399.57 0z" display="none" fill="#fff" stroke-width="0"/>
<g transform="matrix(.080195 0 0 .074601 2.2197 682.97)">
<g transform="matrix(12.47 0 0 13.405 -2.9996 -9252.7)">
<rect x="-1.913" y="742.77" width="25.268" height=".65801" fill="#fff" opacity=".31222"/>
<path d="m21.55 742.77h-21.658c-0.99988 0-1.8048 0.80496-1.8048 1.8048v21.658c0 0.99988 0.80496 1.8048 1.8048 1.8048h21.658c0.99988 0 1.8048-0.80495 1.8048-1.8048v-21.658c0-0.99988-0.80496-1.8048-1.8048-1.8048z" opacity=".15"/>
<path d="m21.381 742.97h-21.32c-0.98425 0-1.7766 0.79238-1.7766 1.7766v21.32c0 0.98426 0.79238 1.7766 1.7766 1.7766h21.32c0.98426 0 1.7766-0.79238 1.7766-1.7766v-21.32c0-0.98425-0.79238-1.7766-1.7766-1.7766z" opacity=".15"/>
<path d="m21.211 743.17h-20.981c-0.96863 0-1.7484 0.7798-1.7484 1.7484v20.981c0 0.96863 0.7798 1.7484 1.7484 1.7484h20.981c0.96863 0 1.7484-0.7798 1.7484-1.7484v-20.981c0-0.96864-0.7798-1.7484-1.7484-1.7484z" fill="url(#linearGradient4071-6)"/>
<path d="m0.43362 744.12h20.694c0.67437 0 1.2173 0.53035 1.2173 1.1891v18.432c0 0.65878-0.54291 1.1891-1.2173 1.1891h-20.694c-0.67437 0-1.2173-0.53036-1.2173-1.1891v-18.432c0-0.65879 0.54291-1.1891 1.2173-1.1891z" color="#000000" fill="#e2e4e6"/>
<path d="m0.67299 744.02c-0.82031 0-1.4918 0.66842-1.4918 1.4861v18.234c0 0.81764 0.67153 1.486 1.4918 1.486h20.212c0.82031 0 1.4918-0.66841 1.4918-1.486v-18.234c0-0.81764-0.67153-1.4861-1.4918-1.4861zm0 0.61049h20.212c0.49696 0 0.88227 0.38957 0.88227 0.87557v18.234c0 0.486-0.38531 0.87557-0.88227 0.87557h-20.212c-0.49696 0-0.88227-0.38957-0.88227-0.87557v-18.234c0-0.486 0.38531-0.87557 0.88227-0.87557z" color="#000000" fill-opacity=".69048" style="text-decoration-line:none;text-indent:0;text-transform:none"/>
<path d="m-1.5182 764.31v1.5792c0 0.96864 0.78333 1.752 1.752 1.752h20.974c0.96863 0 1.752-0.78333 1.752-1.752v-1.5792c0 0.96864-0.78333 1.752-1.752 1.752h-20.974c-0.96863 0-1.752-0.78332-1.752-1.752z" fill="url(#linearGradient4129-8)" opacity=".65"/>
<rect x="-.49829" y="763.9" width="22.175" height="1.1186" rx="0" ry="1.1186" fill="url(#radialGradient4139)" opacity=".55"/>
<rect transform="rotate(90)" x="744.02" y="-21.94" width="20.201" height="1.1186" rx="0" ry="1.1186" fill="url(#radialGradient4143)" opacity=".55"/>
</g>
<path transform="matrix(.26358 0 0 .22547 -3.0851 753.79)" d="m264.58 62.916c-9.8172 9.84e-4 -19.572 4.0426-26.514 10.984s-10.983 16.696-10.984 26.514a11.043 11.043 0 0 0 0 2e-3c0 95.949 62.458 163.9 115.3 223.35 52.847 59.453 96.361 110.94 96.361 173.52 0 62.618-43.038 110.9-96.08 169.24-53.073 58.38-115.59 127.35-115.59 227.63a11.043 11.043 0 0 0 0 2e-3c9.9e-4 9.8172 4.0426 19.572 10.984 26.514s16.696 10.983 26.514 10.984a11.043 11.043 0 0 0 2e-3 0h476.25a11.043 11.043 0 0 0 2e-3 0c9.8172-9.9e-4 19.572-4.0426 26.514-10.984s10.983-16.696 10.984-26.514a11.043 11.043 0 0 0 0-2e-3c0-97.953-70.613-165.52-130.04-224.96-59.432-59.432-108.08-111.54-108.08-171.92s48.648-112.49 108.08-171.92c59.432-59.432 130.04-127 130.04-224.96a11.043 11.043 0 0 0 0-2e-3c-9.8e-4 -9.8171-4.0426-19.572-10.984-26.514-6.9418-6.9418-16.696-10.983-26.514-10.984a11.043 11.043 0 0 0-2e-3 0c-181.58-3e-3 -294.67 3e-3 -476.25 0a11.043 11.043 0 0 0-2e-3 0z" stroke-width="0"/>
<path d="m122.44 865.92c0-35.794-55.791-53.691-55.791-89.485 47.861 6.7e-4 77.668-6.8e-4 125.53 0 0 35.794-62.764 53.691-62.764 89.485 0 35.794 62.764 53.691 62.764 89.485h-125.53c0-38.18 55.791-53.691 55.791-89.485z" fill="#f6f6f6" stroke-width="0"/>
<path d="m81.766 798.49c6.1645 12.571 21.505 19.478 38.558 46.005 6.7466 8.3726 3.6348 82.315 3.6348 82.315-0.50001 4.3324-10.63 2.3492-50.331 23.7h111.58c-46.032-20.89-58.268-19.395-58.062-24.188 0 0-3.1876-69.627 2.2717-78.302 13.032-22.332 19.239-19.702 47.134-49.53-27.895 5.9656-66.891 5.9656-94.786 0z" fill="#666" stroke-width=".025776"/>
<rect x="45.302" y="761.88" width="171.02" height="13.616" stroke="#000" stroke-width="3.4062"/>
<rect transform="matrix(2.9844 0 0 3.2755 -12.053 828.19)" x="2" y="-30" width="92" height="92" rx="3.957" ry="3.957" clip-path="url(#clipPath4156-4-6-1-9)" fill="url(#linearGradient4767-2)" opacity=".88"/>
<rect x="45.134" y="958.59" width="170.48" height="14.951" stroke="#000" stroke-width="3.5636"/>
</g>
</g>
</svg>
