<?xml version="1.0" encoding="UTF-8"?>
<!-- Created with Inkscape (http://www.inkscape.org/) -->
<svg version="1.1" viewBox="0 0 96 96" xmlns="http://www.w3.org/2000/svg" xmlns:cc="http://creativecommons.org/ns#" xmlns:dc="http://purl.org/dc/elements/1.1/" xmlns:rdf="http://www.w3.org/1999/02/22-rdf-syntax-ns#" xmlns:xlink="http://www.w3.org/1999/xlink">
<title>Lila-HD-Icon-Theme</title>
<script xlink:href=""/>
<defs>
<linearGradient id="linearGradient3888-8-4-8-4-6-9-0-8-7-9-5">
<stop stop-color="#fff" offset="0"/>
<stop stop-color="#fff" stop-opacity="0" offset="1"/>
</linearGradient>
<linearGradient id="linearGradient4071" x1="6" x2="90" y1="47" y2="47" gradientTransform="matrix(1.1071 0 0 1.1071 -5.1429 -36.036)" gradientUnits="userSpaceOnUse">
<stop stop-color="#b2babc" offset="0"/>
<stop stop-color="#fff" offset=".25"/>
<stop stop-color="#96a1a4" offset=".5"/>
<stop stop-color="#fbf9f9" offset=".75"/>
<stop stop-color="#b2b9bc" offset="1"/>
</linearGradient>
<linearGradient id="linearGradient4129" x1="1.5" x2="94.5" y1="88.172" y2="88.172" gradientTransform="translate(-2.95e-6 -32)" gradientUnits="userSpaceOnUse">
<stop offset="0"/>
<stop stop-opacity=".58824" offset=".1"/>
<stop stop-opacity=".58824" offset=".9"/>
<stop offset="1"/>
</linearGradient>
<radialGradient id="radialGradient7462" cx="13.948" cy="44.893" r="43.199" gradientTransform="matrix(.97513 0 0 .049191 33.899 48.167)" gradientUnits="userSpaceOnUse" xlink:href="#linearGradient3888-8-4-8-4-6-9-0-8-7-9-5"/>
<radialGradient id="radialGradient7464" cx="13.948" cy="44.893" r="43.199" gradientTransform="matrix(.88833 0 0 .049191 -.45548 -90.168)" gradientUnits="userSpaceOnUse" xlink:href="#linearGradient3888-8-4-8-4-6-9-0-8-7-9-5"/>
<linearGradient id="linearGradient4767" x1="2.7714" x2="50.528" y1="-28.642" y2="14.514" gradientUnits="userSpaceOnUse" xlink:href="#linearGradient3888-8-4-8-4-6-9-0-8-7-9-5"/>
<clipPath id="clipPath4156-4-1">
<path d="m27.046-55.695-14.214 13.321h0.06127l15.653 21.771 10.231-10.546c-0.2169-1.1522-11.311-23.67-11.732-24.546zm-17.399 16.313-14.888 14.062 21.229 17.515 10.385-10.577zm31.491 12.951-9.7413 9.7136 8.9448 12.458 7.7808-7.555zm-49.84 4.3788-13.754 12.982 26.283 13.846 0.06127-0.0617-0.12253-0.0617 9.8332-10.053-22.301-16.652zm38.015 7.4008-9.8025 9.7753 11.579 9.5594 7.6276-7.4008-8.6691-11.009zm20.187 5.674-7.3825 7.2158 6.1878 8.5418 5.8202-6.1365zm-32.195 6.3215-9.5575 9.4977 13.662 7.185 7.9339-7.6784zm23.312 2.3744-7.1068 6.9383 8.3628 6.9074 5.3608-5.674-0.06127-0.0925-0.0919 0.12335-6.4635-8.2026zm-8.7304 8.5418-7.5051 7.3392 10.354 5.4581c1.3975-1.321 5.6751-6.1229 5.8509-6.3215z" fill="#fff" opacity=".6"/>
</clipPath>
</defs>
<metadata>
<rdf:RDF>
<cc:Work rdf:about="">
<dc:format>image/svg+xml</dc:format>
<dc:type rdf:resource="http://purl.org/dc/dcmitype/StillImage"/>
<dc:title>Lila-HD-Icon-Theme</dc:title>
<dc:date>2015-2019</dc:date>
<dc:creator>
<cc:Agent>
<dc:title>Cristian Pozzessere  &lt; ilnanny &gt;</dc:title>
</cc:Agent>
</dc:creator>
<dc:subject>
<rdf:Bag>
<rdf:li>ilnanny</rdf:li>
<rdf:li>lila_hd</rdf:li>
<rdf:li>lila-hd</rdf:li>
<rdf:li>lila hd icon theme</rdf:li>
<rdf:li>Lila-HD-Icon-Theme lila hd icon lila icon</rdf:li>
</rdf:Bag>
</dc:subject>
<dc:description>Playing with Inkscape on Gnu/Linux O. S.</dc:description>
<dc:contributor>
<cc:Agent>
<dc:title>In the night, alone like a dog.</dc:title>
</cc:Agent>
</dc:contributor>
</cc:Work>
</rdf:RDF>
</metadata>
<g transform="translate(0,32)">
<path d="m89.143-32h-82.286c-3.7988 0-6.8571 3.0583-6.8571 6.8571v82.286c0 3.7989 3.0583 6.8571 6.8571 6.8571h82.286c3.7989 0 6.8571-3.0583 6.8571-6.8571v-82.286c0-3.7989-3.0583-6.8571-6.8571-6.8571z" opacity=".15"/>
<path d="m88.5-31.25h-81c-3.7395 0-6.75 3.0105-6.75 6.75v81c0 3.7395 3.0105 6.75 6.75 6.75h81c3.7395 0 6.75-3.0105 6.75-6.75v-81c0-3.7395-3.0105-6.75-6.75-6.75z" opacity=".15"/>
<path d="m87.857-30.5h-79.714c-3.6801 0-6.6429 2.9627-6.6429 6.6429v79.714c0 3.6801 2.9627 6.6429 6.6429 6.6429h79.714c3.6801 0 6.6429-2.9627 6.6429-6.6429v-79.714c0-3.6801-2.9627-6.6429-6.6429-6.6429z" fill="url(#linearGradient4071)"/>
<path d="m11.308-26.704c-2.8936 0-5.1906 2.3427-5.1906 5.2938v70.209c1.1115 1.7245 3.0074 2.8785 5.1906 2.8785h74.745c2.1833 0 4.0792-1.154 5.1906-2.8785v-70.209c0-2.9511-2.2971-5.2938-5.1906-5.2938z" fill="#5a97ee" opacity=".96"/>
<path d="m9.8251-27.271c-3.1166 0-5.668 2.5395-5.668 5.646v69.278c0 3.1065 2.5513 5.646 5.668 5.646h76.792c3.1166 0 5.668-2.5395 5.668-5.646v-69.278c0-3.1065-2.5513-5.646-5.668-5.646zm0 2.3194h76.792c1.8881 0 3.352 1.4801 3.352 3.3266v69.278c0 1.8465-1.4639 3.3266-3.352 3.3266h-76.792c-1.8881 0-3.352-1.4801-3.352-3.3266v-69.278c0-1.8465 1.4639-3.3266 3.352-3.3266z" color="#000000" fill="#202223" fill-opacity=".93689" style="text-decoration-line:none;text-indent:0;text-transform:none"/>
<path d="m1.5 49.844v6c0 3.6801 2.9761 6.6562 6.6562 6.6562h79.688c3.6801 0 6.6563-2.9761 6.6563-6.6562v-6c0 3.6801-2.9761 6.6562-6.6563 6.6562h-79.688c-3.6801 0-6.6562-2.9761-6.6562-6.6562z" fill="url(#linearGradient4129)" opacity=".65818"/>
<rect x="5.375" y="48.25" width="84.25" height="4.25" rx="0" ry="4.25" fill="url(#radialGradient7462)" opacity=".55"/>
<rect transform="rotate(90)" x="-26.44" y="-90.085" width="76.75" height="4.25" rx="0" ry="4.25" fill="url(#radialGradient7464)" opacity=".669"/>
<g transform="matrix(2.1023 0 0 2.1023 -810.71 -1089.4)" opacity=".939">
<path d="m407.26 540.3c-8.3974-0.68937-14.705-8.1154-14.021-16.508 0.20377-2.5001 0.9299-4.7869 2.1573-6.794 4.8304-7.8991 15.394-9.8139 22.686-4.1121 5.0639 3.9599 7.1293 10.829 5.0881 16.921-1.7536 5.2342-6.1136 9.1302-11.451 10.233-0.71212 0.14709-2.9735 0.3829-3.3594 0.3503-0.0849-7e-3 -0.57969-0.0479-1.0996-0.0906zm-1.703-5.8557c2.2567-0.50436 4.0164-1.1311 6.4036-2.2807 3.313-1.5955 5.489-3.1168 5.9144-4.1349 0.66358-1.5882-0.90269-3.4604-3.771-4.5076-1.0813-0.39478-3.3086-0.9473-4.7156-1.1698-0.59416-0.094-1.2192-0.20368-1.389-0.24378l-0.30866-0.0729-0.0691-1.3339c-0.13414-2.5877-0.63236-3.7204-1.717-3.9037-0.58461-0.0988-1.377 0.31627-1.659 0.86891-0.27783 0.54462-0.27389 1.6261 0.0107 2.9498 0.36025 1.6754 0.35617 1.6031 0.0883 1.5635-0.26919-0.0398-0.22296 0.0336-0.98848-1.5696-1.0159-2.1276-1.9052-2.7531-2.8537-2.0071-0.75446 0.59346-0.90691 1.72-0.47481 3.5085l0.24045 0.99526-0.42308 1.2746c-0.82051 2.4719-1.1152 5.0915-0.75508 6.7115 0.29931 1.3464 1.1504 2.523 2.1864 3.0223 1.1125 0.53625 2.7811 0.66474 4.2806 0.32961zm9.4421-11.813c0.5985-0.42559 3.393-5.9653 3.1817-6.3072-0.0889-0.14381-0.33243-0.11589-0.61727 0.0707-0.51577 0.33795-2.1106 2.8195-2.7695 4.3094-0.34849 0.78799-0.51865 1.6655-0.36003 1.8566 0.13313 0.1604 0.393 0.19282 0.56505 0.0705zm-1.9299-0.66718c0.51591-0.63198 1.2031-5.7892 0.85751-6.435-0.38541-0.72014-0.72969 0.19951-1.1888 3.1754-0.27955 1.8122-0.32554 2.6957-0.16264 3.1242 0.10787 0.28373 0.32432 0.34302 0.49388 0.13531z" fill-opacity=".058824"/>
<path d="m407.26 539.9c-8.3974-0.68937-14.705-8.1154-14.021-16.508 0.20377-2.5001 0.9299-4.7869 2.1573-6.794 4.8304-7.8991 15.394-9.8139 22.686-4.1121 5.0639 3.9599 7.1293 10.829 5.0881 16.921-1.7536 5.2342-6.1136 9.1302-11.451 10.233-0.71212 0.14709-2.9735 0.3829-3.3594 0.3503-0.0849-7e-3 -0.57969-0.0479-1.0996-0.0906zm-1.703-5.8557c2.2567-0.50436 4.0164-1.1311 6.4036-2.2807 3.313-1.5955 5.489-3.1168 5.9144-4.1349 0.66358-1.5882-0.90269-3.4604-3.771-4.5076-1.0813-0.39478-3.3086-0.9473-4.7156-1.1698-0.59416-0.094-1.2192-0.20368-1.389-0.24378l-0.30866-0.0729-0.0691-1.3339c-0.13414-2.5877-0.63236-3.7204-1.717-3.9037-0.58461-0.0988-1.377 0.31627-1.659 0.86891-0.27783 0.54462-0.27389 1.6261 0.0107 2.9498 0.36025 1.6754 0.35617 1.6031 0.0883 1.5635-0.26919-0.0398-0.22296 0.0336-0.98848-1.5696-1.0159-2.1276-1.9052-2.7531-2.8537-2.0071-0.75446 0.59346-0.90691 1.72-0.47481 3.5085l0.24045 0.99526-0.42308 1.2746c-0.82051 2.4719-1.1152 5.0915-0.75508 6.7115 0.29931 1.3464 1.1504 2.523 2.1864 3.0223 1.1125 0.53625 2.7811 0.66474 4.2806 0.32961zm9.4421-11.813c0.5985-0.42559 3.393-5.9653 3.1817-6.3072-0.0889-0.14381-0.33243-0.11589-0.61727 0.0707-0.51577 0.33795-2.1106 2.8195-2.7695 4.3094-0.34849 0.78799-0.51865 1.6655-0.36003 1.8566 0.13313 0.1604 0.393 0.19282 0.56505 0.0705zm-1.9299-0.66718c0.51591-0.63198 1.2031-5.7892 0.85751-6.435-0.38541-0.72014-0.72969 0.19951-1.1888 3.1754-0.27955 1.8122-0.32554 2.6957-0.16264 3.1242 0.10787 0.28373 0.32432 0.34302 0.49388 0.13531z" fill-opacity=".11765"/>
<path d="m407.26 539.5c-8.3974-0.68937-14.705-8.1154-14.021-16.508 0.20377-2.5001 0.9299-4.7869 2.1573-6.794 4.8304-7.8991 15.394-9.8139 22.686-4.1121 5.0639 3.9599 7.1293 10.829 5.0881 16.921-1.7536 5.2342-6.1136 9.1302-11.451 10.233-0.71212 0.14709-2.9735 0.3829-3.3594 0.3503-0.0849-7e-3 -0.57969-0.0479-1.0996-0.0906zm-1.703-5.8557c2.2567-0.50436 4.0164-1.1311 6.4036-2.2807 3.313-1.5955 5.489-3.1168 5.9144-4.1349 0.66358-1.5882-0.90269-3.4604-3.771-4.5076-1.0813-0.39478-3.3086-0.9473-4.7156-1.1698-0.59416-0.094-1.2192-0.20368-1.389-0.24378l-0.30866-0.0729-0.0691-1.3339c-0.13414-2.5877-0.63236-3.7204-1.717-3.9037-0.58461-0.0988-1.377 0.31627-1.659 0.86891-0.27783 0.54462-0.27389 1.6261 0.0107 2.9498 0.36025 1.6754 0.35617 1.6031 0.0883 1.5635-0.26919-0.0398-0.22296 0.0336-0.98848-1.5696-1.0159-2.1276-1.9052-2.7531-2.8537-2.0071-0.75446 0.59346-0.90691 1.72-0.47481 3.5085l0.24045 0.99526-0.42308 1.2746c-0.82051 2.4719-1.1152 5.0915-0.75508 6.7115 0.29931 1.3464 1.1504 2.523 2.1864 3.0223 1.1125 0.53625 2.7811 0.66474 4.2806 0.32961zm9.4421-11.813c0.5985-0.42559 3.393-5.9653 3.1817-6.3072-0.0889-0.14381-0.33243-0.11589-0.61727 0.0707-0.51577 0.33795-2.1106 2.8195-2.7695 4.3094-0.34849 0.78799-0.51865 1.6655-0.36003 1.8566 0.13313 0.1604 0.393 0.19282 0.56505 0.0705zm-1.9299-0.66718c0.51591-0.63198 1.2031-5.7892 0.85751-6.435-0.38541-0.72014-0.72969 0.19951-1.1888 3.1754-0.27955 1.8122-0.32554 2.6957-0.16264 3.1242 0.10787 0.28373 0.32432 0.34302 0.49388 0.13531z" fill-opacity=".23529"/>
<path d="m407.26 539.1c-8.3974-0.68937-14.705-8.1154-14.021-16.508 0.20377-2.5001 0.9299-4.7869 2.1573-6.794 4.8304-7.8991 15.394-9.8139 22.686-4.1121 5.0639 3.9599 7.1293 10.829 5.0881 16.921-1.7536 5.2342-6.1136 9.1302-11.451 10.233-0.71212 0.14709-2.9735 0.3829-3.3594 0.3503-0.0849-7e-3 -0.57969-0.0479-1.0996-0.0906zm-1.703-5.8557c2.2567-0.50436 4.0164-1.1311 6.4036-2.2807 3.313-1.5955 5.489-3.1168 5.9144-4.1349 0.66358-1.5882-0.90269-3.4604-3.771-4.5076-1.0813-0.39478-3.3086-0.9473-4.7156-1.1698-0.59416-0.094-1.2192-0.20368-1.389-0.24378l-0.30866-0.0729-0.0691-1.3339c-0.13414-2.5877-0.63236-3.7204-1.717-3.9037-0.58461-0.0988-1.377 0.31627-1.659 0.86891-0.27783 0.54462-0.27389 1.6261 0.0107 2.9498 0.36025 1.6754 0.35617 1.6031 0.0883 1.5635-0.26919-0.0398-0.22296 0.0336-0.98848-1.5696-1.0159-2.1276-1.9052-2.7531-2.8537-2.0071-0.75446 0.59346-0.90691 1.72-0.47481 3.5085l0.24045 0.99526-0.42308 1.2746c-0.82051 2.4719-1.1152 5.0915-0.75508 6.7115 0.29931 1.3464 1.1504 2.523 2.1864 3.0223 1.1125 0.53625 2.7811 0.66474 4.2806 0.32961zm9.4421-11.813c0.5985-0.42559 3.393-5.9653 3.1817-6.3072-0.0889-0.14381-0.33243-0.11589-0.61727 0.0707-0.51577 0.33795-2.1106 2.8195-2.7695 4.3094-0.34849 0.78799-0.51865 1.6655-0.36003 1.8566 0.13313 0.1604 0.393 0.19282 0.56505 0.0705zm-1.9299-0.66718c0.51591-0.63198 1.2031-5.7892 0.85751-6.435-0.38541-0.72014-0.72969 0.19951-1.1888 3.1754-0.27955 1.8122-0.32554 2.6957-0.16264 3.1242 0.10787 0.28373 0.32432 0.34302 0.49388 0.13531z" fill="#fff"/>
<path transform="translate(384.57 499.8)" d="m29.074 13.51c-0.28094 0.09434-0.56 1.1704-0.9043 3.4023-0.21956 1.4233-0.291 2.2605-0.23438 2.7676 0.03036-0.49168 0.10221-1.112 0.23438-1.9688 0.45906-2.9759 0.80209-3.8959 1.1875-3.1758 0.04164 0.07781 0.06632 0.22888 0.08008 0.42188 0.02568-0.59756 0.0077-1.0568-0.08008-1.2207-0.09635-0.18004-0.18956-0.25801-0.2832-0.22656zm4.3027 0.93164c-0.1076 0.01233-0.24039 0.06686-0.38281 0.16016-0.51577 0.33795-2.1107 2.8187-2.7695 4.3086-0.34849 0.78799-0.518 1.6663-0.35938 1.8574 0.0033 4e-3 0.0083 6e-3 0.01172 0.0098 0.07008-0.32552 0.18683-0.70275 0.34766-1.0664 0.65888-1.4899 2.2538-3.9706 2.7695-4.3086 0.16514-0.10818 0.31245-0.15729 0.42773-0.15625 0.1385-0.36384 0.22922-0.65049 0.18945-0.71484-0.04445-0.0719-0.12678-0.10217-0.23438-0.08984zm-12.041 0.5625c-0.58461-0.0988-1.3763 0.3165-1.6582 0.86914-0.17414 0.34136-0.22471 0.90896-0.17773 1.5996 0.02714-0.32049 0.07794-0.60517 0.17773-0.80078 0.28194-0.55264 1.0736-0.96794 1.6582-0.86914 1.0846 0.18324 1.5827 1.3166 1.7168 3.9043l0.06836 1.334 0.30859 0.07227c0.16976 0.0401 0.79646 0.15014 1.3906 0.24414 1.4071 0.22253 3.6335 0.77514 4.7148 1.1699 2.2077 0.80601 3.6312 2.1011 3.873 3.3789 0.3394-1.5113-1.2001-3.2038-3.873-4.1797-1.0813-0.39478-3.3078-0.94739-4.7148-1.1699-0.59416-0.094-1.2209-0.20209-1.3906-0.24219l-0.30859-0.07422-0.06836-1.334c-0.13414-2.5877-0.63219-3.7191-1.7168-3.9023zm-4.6992 1.5039c-0.23262 0.01302-0.46602 0.11428-0.70312 0.30078-0.5584 0.43924-0.78548 1.1725-0.69141 2.248 0.05986-0.64887 0.28513-1.1277 0.69141-1.4473 0.94842-0.74602 1.8376-0.1217 2.8535 2.0059 0.76552 1.6032 0.71909 1.5305 0.98828 1.5703 0.19576 0.02893 0.18776-0.16582 0.0625-0.79688-0.02203-0.0028-0.03466 2.09e-4 -0.0625-0.0039-0.26919-0.0398-0.22276 0.03485-0.98828-1.5684-0.7619-1.5957-1.4525-2.3477-2.1504-2.3086zm-1.0488 5.1406-0.3125 0.93945c-0.63972 1.9272-0.95521 3.9369-0.89453 5.5 0.05207-1.4195 0.35945-3.0891 0.89453-4.7012l0.42383-1.2734zm23.777 2.0098c-0.04231 1.4627-0.28626 2.9305-0.76367 4.3555-1.7536 5.2342-6.1134 9.1299-11.451 10.232-0.71212 0.14709-2.9734 0.38416-3.3594 0.35156-0.0849-7e-3 -0.57974-0.0491-1.0996-0.0918-7.7916-0.63963-13.773-7.0814-14.051-14.711-0.12868 7.9747 5.9884 14.85 14.051 15.512 0.51987 0.0427 1.0147 0.08284 1.0996 0.08984 0.38594 0.0326 2.6473-0.20252 3.3594-0.34961 5.3378-1.1026 9.6976-4.9982 11.451-10.232 0.56462-1.6853 0.804-3.4302 0.76367-5.1562z" fill="#0c49d8" fill-opacity=".31373"/>
<path transform="translate(384.57 499.8)" d="m24.404 8.6055c-5.2995-0.13679-10.557 2.4615-13.576 7.3984-1.2274 2.0071-1.9544 4.2948-2.1582 6.7949-0.04608 0.56536-0.05494 1.1249-0.039063 1.6797-1e-3 -0.42414 0.00402-0.8493 0.039063-1.2793 0.20377-2.5001 0.93081-4.7878 2.1582-6.7949 4.8304-7.8991 15.394-9.8131 22.686-4.1113 3.7308 2.9174 5.8249 7.4139 5.8574 12.016 0.09052-4.7401-2.0184-9.414-5.8574-12.416-2.7343-2.1382-5.9297-3.205-9.1094-3.2871zm9.1543 7.082c-0.40518 1.3006-2.6058 5.5792-3.1289 5.9512-0.17205 0.12232-0.43132 0.09009-0.56445-0.07031-0.01965-0.02368-0.01945-0.08563-0.0293-0.12891-0.0324 0.24728-0.0343 0.45072 0.0293 0.52734 0.13313 0.1604 0.3924 0.19263 0.56445 0.07031 0.5985-0.42559 3.393-5.9647 3.1816-6.3066-0.01252-0.02025-0.0344-0.02949-0.05273-0.04297zm-4.1172 0.03711c-0.07165 1.7525-0.55447 4.7721-0.94141 5.2461-0.16956 0.20771-0.38627 0.14896-0.49414-0.13476-0.05628-0.14804-0.07664-0.37809-0.08203-0.6543-0.02673 0.505 1.95e-4 0.83944 0.08203 1.0547 0.10787 0.28373 0.32458 0.34248 0.49414 0.13477 0.42118-0.51594 0.94706-4.0155 0.94141-5.6465zm-9.957 2.3398c-0.0205 0.54275 0.0408 1.202 0.20312 1.957 0.14802 0.68839 0.19654 0.9501 0.22852 1.1719 0.10652-0.03252 0.0475-0.28862-0.22852-1.5723-0.12426-0.57797-0.18597-1.0956-0.20312-1.5566zm-4.252 1.5527c-0.02507 0.52588 0.04583 1.1523 0.22656 1.9004l0.18359 0.76367 0.05664-0.16797-0.24024-0.99609c-0.13715-0.56768-0.20775-1.0616-0.22656-1.5zm18.199 6.9492c-0.0233 0.15798-0.0608 0.31509-0.125 0.46875-0.42539 1.0181-2.6011 2.5393-5.9141 4.1348-2.3871 1.1496-4.1476 1.7769-6.4043 2.2812-1.4994 0.33513-3.1687 0.20617-4.2812-0.33008-1.0359-0.49931-1.8862-1.6751-2.1855-3.0215-0.08463-0.38071-0.13055-0.82066-0.14453-1.2969-0.0058 0.63143 0.03699 1.2116 0.14453 1.6953 0.29931 1.3464 1.1496 2.5241 2.1855 3.0234 1.1125 0.53625 2.7818 0.66521 4.2812 0.33008 2.2567-0.50436 4.0172-1.1316 6.4043-2.2812 3.313-1.5955 5.4887-3.1167 5.9141-4.1348 0.11789-0.28216 0.14267-0.57528 0.125-0.86914z" fill="#fff" fill-opacity=".23529"/>
</g>
<rect transform="matrix(1.0692 0 0 1.0477 4.2952 6.479)" x="2" y="-30" width="75.966" height="69.024" rx="3.957" ry="3.957" clip-path="url(#clipPath4156-4-1)" fill="url(#linearGradient4767)" opacity=".65"/>
</g>
</svg>
