<?xml version="1.0" encoding="UTF-8"?>
<!-- Created with Inkscape (http://www.inkscape.org/) -->
<svg version="1.1" viewBox="0 0 96 96" xmlns="http://www.w3.org/2000/svg" xmlns:cc="http://creativecommons.org/ns#" xmlns:dc="http://purl.org/dc/elements/1.1/" xmlns:rdf="http://www.w3.org/1999/02/22-rdf-syntax-ns#" xmlns:xlink="http://www.w3.org/1999/xlink">
<title>Lila-HD-Icon-Theme</title>
<defs>
<linearGradient id="linearGradient4071" x1="6" x2="90" y1="47" y2="47" gradientTransform="matrix(1.106 0 0 1.1071 -4.9885 -3.6207)" gradientUnits="userSpaceOnUse">
<stop stop-color="#b2babc" offset="0"/>
<stop stop-color="#fff" offset=".25"/>
<stop stop-color="#96a1a4" offset=".5"/>
<stop stop-color="#fbf9f9" offset=".75"/>
<stop stop-color="#b2b9bc" offset="1"/>
</linearGradient>
<linearGradient id="linearGradient4129" x1="1.5" x2="94.5" y1="88.172" y2="88.172" gradientTransform="matrix(.99896 0 0 1 .14895 .41503)" gradientUnits="userSpaceOnUse">
<stop offset="0"/>
<stop stop-opacity=".58824" offset=".1"/>
<stop stop-opacity=".58824" offset=".9"/>
<stop offset="1"/>
</linearGradient>
<radialGradient id="radialGradient7462" cx="13.948" cy="44.893" r="43.199" gradientTransform="matrix(.97412 0 0 .049191 34.012 80.582)" gradientUnits="userSpaceOnUse" xlink:href="#linearGradient3737"/>
<linearGradient id="linearGradient3737">
<stop stop-color="#fff" offset="0"/>
<stop stop-color="#fff" stop-opacity="0" offset="1"/>
</linearGradient>
<radialGradient id="radialGradient7464" cx="13.948" cy="44.893" r="43.199" gradientTransform="matrix(.88833 0 0 .049139 31.96 -90.223)" gradientUnits="userSpaceOnUse" xlink:href="#linearGradient3737"/>
<linearGradient id="linearGradient4767" x1="2.7714" x2="50.528" y1="-28.642" y2="14.514" gradientTransform="matrix(1.0042 0 0 1.0052 -.21821 -.047555)" gradientUnits="userSpaceOnUse" xlink:href="#linearGradient3737"/>
<clipPath id="clipPath4156-4-1">
<path d="m27.046-55.695-14.214 13.321h0.06127l15.653 21.771 10.231-10.546c-0.2169-1.1522-11.311-23.67-11.732-24.546zm-17.399 16.313-14.888 14.062 21.229 17.515 10.385-10.577zm31.491 12.951-9.7413 9.7136 8.9448 12.458 7.7808-7.555zm-49.84 4.3788-13.754 12.982 26.283 13.846 0.06127-0.0617-0.12253-0.0617 9.8332-10.053-22.301-16.652zm38.015 7.4008-9.8025 9.7753 11.579 9.5594 7.6276-7.4008-8.6691-11.009zm20.187 5.674-7.3825 7.2158 6.1878 8.5418 5.8202-6.1365zm-32.195 6.3215-9.5575 9.4977 13.662 7.185 7.9339-7.6784zm23.312 2.3744-7.1068 6.9383 8.3628 6.9074 5.3608-5.674-0.06127-0.0925-0.0919 0.12335-6.4635-8.2026zm-8.7304 8.5418-7.5051 7.3392 10.354 5.4581c1.3975-1.321 5.6751-6.1229 5.8509-6.3215z" fill="#fff" opacity=".6"/>
</clipPath>
<rect id="SVGID_1_" x="54.7" y="84" width="18.3" height="3.7"/>
<rect id="SVGID_3_" x="24.2" y="84" width="18.3" height="3.7"/>
<path id="SVGID_5_" d="m50 15.2c-6.4 0.9-12.6 3.5-17.6 7.4-5.5 4.4-9.1 10-10.3 16.2-0.4 1.9-0.5 3.9-0.7 6.1-0.6 8.5-1.5 13.6-8.5 13.6-0.8 0-1.5 0.5-1.9 1.2s-0.3 1.6 0.2 2.2c9.4 12.5 25.5 13.9 36.8 13.9h0.9 0.6 1 1.2c5.3 0 10.8-0.3 15.8-2.1 8.8-3.3 16.2-10.7 18.9-18.8 3-9.2 1.6-18.5-4-26.2-6.2-8.6-16.8-13.9-27.8-13.9-1.5 0-3.1 0.1-4.6 0.4"/>
<clipPath id="SVGID_2_">
<use width="100%" height="100%" xlink:href="#SVGID_1_"/>
</clipPath>
<clipPath id="SVGID_4_">
<use width="100%" height="100%" xlink:href="#SVGID_3_"/>
</clipPath>
<radialGradient id="SVGID_7_" cx="-332.77" cy="181.41" r=".4793" gradientTransform="matrix(-.7043 119.43 162.73 .9597 -29698 39594)" gradientUnits="userSpaceOnUse">
<stop stop-color="#F5F6F7" offset="0"/>
<stop stop-color="#F5F6F7" offset=".052273"/>
<stop stop-color="#CBD6DB" offset=".7359"/>
<stop stop-color="#EDEFF1" offset="1"/>
</radialGradient>
<clipPath id="SVGID_6_">
<use width="100%" height="100%" xlink:href="#SVGID_5_"/>
</clipPath>
</defs>
<metadata>
<rdf:RDF>
<cc:Work rdf:about="">
<dc:format>image/svg+xml</dc:format>
<dc:type rdf:resource="http://purl.org/dc/dcmitype/StillImage"/>
<dc:title>Lila-HD-Icon-Theme</dc:title>
<dc:date>2015-2017</dc:date>
<dc:creator>
<cc:Agent>
<dc:title>Cristian Pozzessere  &lt; ilnanny &gt;</dc:title>
</cc:Agent>
</dc:creator>
<dc:subject>
<rdf:Bag>
<rdf:li>ilnanny</rdf:li>
<rdf:li>lila_hd</rdf:li>
<rdf:li>lila-hd</rdf:li>
<rdf:li>lila hd icon theme</rdf:li>
<rdf:li>Lila-HD-Icon-Theme lila hd icon lila icon</rdf:li>
</rdf:Bag>
</dc:subject>
<dc:description>Playing with Inkscape on Gnu/Linux O. S.</dc:description>
<dc:contributor>
<cc:Agent>
<dc:title>In the night, alone like a dog.</dc:title>
</cc:Agent>
</dc:contributor>
<cc:license rdf:resource="http://creativecommons.org/licenses/by-sa/3.0/"/>
</cc:Work>
<cc:License rdf:about="http://creativecommons.org/licenses/by-sa/3.0/">
<cc:permits rdf:resource="http://creativecommons.org/ns#Reproduction"/>
<cc:permits rdf:resource="http://creativecommons.org/ns#Distribution"/>
<cc:requires rdf:resource="http://creativecommons.org/ns#Notice"/>
<cc:requires rdf:resource="http://creativecommons.org/ns#Attribution"/>
<cc:permits rdf:resource="http://creativecommons.org/ns#DerivativeWorks"/>
<cc:requires rdf:resource="http://creativecommons.org/ns#ShareAlike"/>
</cc:License>
</rdf:RDF>
</metadata>
<g transform="translate(0 -1026.5)">
<g transform="translate(-.14896 1026.1)">
<path d="m89.078 0.665h-81.857c-3.7791 0-6.8214 3.0424-6.8214 6.8214v81.857c0 3.7791 3.0424 6.8214 6.8214 6.8214h81.857c3.7791 0 6.8214-3.0424 6.8214-6.8214v-81.857c0-3.7791-3.0424-6.8214-6.8214-6.8214z" opacity=".15"/>
<path d="m88.438 1.4111h-80.578c-3.72 0-6.7148 2.9948-6.7148 6.7148v80.578c0 3.72 2.9948 6.7148 6.7148 6.7148h80.578c3.72 0 6.7148-2.9948 6.7148-6.7148v-80.578c0-3.72-2.9948-6.7148-6.7148-6.7148z" opacity=".15"/>
<path d="m87.799 2.1572h-79.299c-3.661 0-6.6083 2.9473-6.6083 6.6083v79.299c0 3.661 2.9473 6.6083 6.6083 6.6083h79.299c3.661 0 6.6083-2.9473 6.6083-6.6083v-79.299c0-3.661-2.9473-6.6083-6.6083-6.6083z" fill="url(#linearGradient4071)"/>
<rect x="6.0898" y="6.9343" width="84.558" height="77.021" rx="3.4964" ry="3.5" fill="#e2e6ea" fill-opacity=".9717"/>
<path d="m10.173 5.3698c-3.1004 0-5.6384 2.5263-5.6384 5.6166v68.917c0 3.0903 2.5381 5.6166 5.6384 5.6166h76.392c3.1004 0 5.6384-2.5263 5.6384-5.6166v-68.917c0-3.0903-2.5381-5.6166-5.6384-5.6166zm0 2.3074h76.392c1.8783 0 3.3346 1.4724 3.3346 3.3092v68.917c0 1.8369-1.4563 3.3092-3.3346 3.3092h-76.392c-1.8783 0-3.3346-1.4724-3.3346-3.3092v-68.917c0-1.8369 1.4563-3.3092 3.3346-3.3092z" color="#000000" fill="#202223" fill-opacity=".93689" style="text-decoration-line:none;text-indent:0;text-transform:none"/>
<path d="m1.8911 82.082v5.9688c0 3.661 2.9606 6.6216 6.6216 6.6216h79.272c3.661 0 6.6216-2.9606 6.6216-6.6216v-5.9688c0 3.661-2.9606 6.6216-6.6216 6.6216h-79.272c-3.661 0-6.6216-2.9606-6.6216-6.6216z" fill="url(#linearGradient4129)" opacity=".65818"/>
<rect x="5.746" y="80.497" width="83.811" height="4.2279" rx="4.25" ry="4.25" fill="url(#radialGradient7462)" opacity=".55"/>
<rect transform="rotate(90)" x="6.196" y="-90.015" width="76.35" height="4.2279" rx="4.2456" ry="4.2456" fill="url(#radialGradient7464)" opacity=".669"/>
<g transform="matrix(1.3618 0 0 1.3618 4.947 .22143)">
<ellipse transform="matrix(.97235 -.23352 .28643 .9581 0 0)" cx="20.378" cy="42.541" rx="30.63" ry="12.561" opacity=".2"/>
<path d="m30 13c-14 0-10.744 12.342-17.912 16.194-7.2721 4.1257-3.2655 7.8192-2.0883 11.806 1.9862 6.6475 7.5499 1.9508 24-2 16.449-3.9499 19.986-3.353 18-10-1.1911-3.9422 2.7182-7.5958-5.7823-7.9437-6.9091 0.37842-6.2177-8.0563-16.218-8.0563z" fill="#4f4f4f"/>
<ellipse transform="matrix(.97235 -.23352 .28643 .9581 0 0)" cx="20.665" cy="41.567" rx="30.63" ry="12.561" fill="#2e72de"/>
<ellipse transform="matrix(.97263 -.23237 .21506 .9766 0 0)" cx="23.53" cy="51.677" rx="14.326" ry="6.305" opacity=".2"/>
<ellipse transform="matrix(.97263 -.23237 .21506 .9766 0 0)" cx="23.745" cy="50.704" rx="14.326" ry="6.305" fill="#fff"/>
<path d="m43.121 21.008a12.539 30.64 77.129 0 0-14.719 1.957 12.539 30.64 77.129 0 0-26.326 18.039 12.539 30.64 77.129 0 1 26.326-17.039 12.539 30.64 77.129 0 1 14.719-1.957 12.539 30.64 77.129 0 1 18.664 6.8398 12.539 30.64 77.129 0 1 0.15625 0.95508 12.539 30.64 77.129 0 0-0.15625-1.9551 12.539 30.64 77.129 0 0-18.664-6.8398z" fill="#fff" opacity=".1"/>
<path d="m30 13c-14 0-10.744 12.341-17.912 16.193-3.6153 2.0511-4.4412 3.9953-4.2148 5.9219 0.1568-1.601 1.2241-3.2251 4.2148-4.9219 7.168-3.8524 3.9121-16.193 17.912-16.193 10 0 9.3077 8.4351 16.217 8.0566 4.5481 0.18614 5.5351 1.3228 5.6602 2.9395 0.13468-2.1371-0.22429-3.717-5.6602-3.9395-6.9091 0.37842-6.2168-8.0566-16.217-8.0566zm21.764 14.604c-0.036221 0.76875-0.011737 1.5754 0.23633 2.3965 0.24542 0.82124 0.40394 1.53 0.4668 2.1523 0.089773-0.83436-0.078026-1.8514-0.4668-3.1523-0.14247-0.47154-0.20984-0.93836-0.23633-1.3965z" fill="#fff" opacity=".1"/>
</g>
<rect transform="matrix(1.0637 0 0 1.0422 4.6718 38.944)" x="2" y="-30" width="75.966" height="69.024" rx="3.9736" ry="3.9777" clip-path="url(#clipPath4156-4-1)" fill="url(#linearGradient4767)" opacity=".65"/>
</g>
</g>
<style type="text/css">.st0{display:none;}
	.st1{display:inline;}
	.st2{opacity:0.3;}
	.st3{clip-path:url(#SVGID_2_);fill:#2B5860;}
	.st4{clip-path:url(#SVGID_4_);fill:#2B5860;}
	.st5{clip-path:url(#SVGID_6_);fill:url(#SVGID_7_);}
	.st6{fill:#33373A;}
	.st7{fill:#323637;}
	.st8{fill:#515252;}
	.st9{fill-rule:evenodd;clip-rule:evenodd;fill:#CBCBC8;}
	.st10{fill-rule:evenodd;clip-rule:evenodd;fill:#FFFFFF;}
	.st11{fill-rule:evenodd;clip-rule:evenodd;fill:#1D9858;}
	.st12{fill-rule:evenodd;clip-rule:evenodd;fill:#D63F35;}
	.st13{fill-rule:evenodd;clip-rule:evenodd;fill:#3E7BF1;}
	.st14{fill-rule:evenodd;clip-rule:evenodd;fill:#FED73D;}
	.st15{fill-rule:evenodd;clip-rule:evenodd;fill:#FDFDFD;}
	.st16{fill-rule:evenodd;clip-rule:evenodd;fill:#752622;}
	.st17{opacity:0.1;}
	.st18{fill:#2A3768;}
	.st19{fill:#0DB237;}
	.st20{display:inline;fill:#383C45;}
	.st21{display:none;fill:#161919;}
	.st22{fill:#65C1C2;}
	.st23{fill:#FFFFFF;}
	.st24{fill:#E00000;}
	.st25{display:none;opacity:0.7;fill:#8E8E8E;}
	.st26{fill:#FF3334;}</style>
</svg>
