<?xml version="1.0" encoding="UTF-8"?>
<!-- Created with Inkscape (http://www.inkscape.org/) -->
<svg version="1.1" viewBox="0 0 96 96" xmlns="http://www.w3.org/2000/svg" xmlns:cc="http://creativecommons.org/ns#" xmlns:dc="http://purl.org/dc/elements/1.1/" xmlns:rdf="http://www.w3.org/1999/02/22-rdf-syntax-ns#" xmlns:xlink="http://www.w3.org/1999/xlink">
<title>Lila-HD-Icon-Theme</title>
<script xlink:href=""/>
<defs>
<linearGradient id="linearGradient5021" x1="6" x2="90" y1="47" y2="47" gradientTransform="matrix(1.1393 0 0 1.1393 -6.6857 -37.546)" gradientUnits="userSpaceOnUse">
<stop stop-color="#b7b7b7" offset="0"/>
<stop stop-color="#fff" offset=".25"/>
<stop stop-color="#9d9d9d" offset=".5"/>
<stop stop-color="#fafafa" offset=".75"/>
<stop stop-color="#b7b7b7" offset="1"/>
</linearGradient>
<radialGradient id="radialGradient3114" cx="158" cy="6.2132" r="41" gradientTransform="matrix(0 1.8467 -2.3222 0 62.428 -313.86)" gradientUnits="userSpaceOnUse">
<stop stop-color="#fff" offset="0"/>
<stop stop-color="#fff" stop-opacity="0" offset="1"/>
</radialGradient>
<radialGradient id="radialGradient3118" cx="48" cy="-27" r="42" gradientTransform="matrix(-1.2215 0 0 -.9969 106.63 -58.766)" gradientUnits="userSpaceOnUse">
<stop stop-color="#fff" offset="0"/>
<stop stop-color="#fff" offset=".8"/>
<stop stop-color="#fff" stop-opacity="0" offset="1"/>
</radialGradient>
<linearGradient id="linearGradient3120" x1="-94" x2="-10.188" y1="82.984" y2="82.984" gradientTransform="matrix(1.1393 0 0 1.0129 107.24 -26.788)" gradientUnits="userSpaceOnUse">
<stop offset="0"/>
<stop stop-opacity=".58824" offset=".1"/>
<stop stop-opacity=".58824" offset=".9"/>
<stop offset="1"/>
</linearGradient>
<radialGradient id="radialGradient7470" cx="-8.8315" cy="-12.874" r="45.056" gradientTransform="matrix(1.9073 1.3878 -.49591 .68155 35.087 19.714)" gradientUnits="userSpaceOnUse">
<stop stop-color="#3c6eb4" offset="0"/>
<stop stop-color="#819ad5" offset="1"/>
</radialGradient>
<filter id="filter5197-3" color-interpolation-filters="sRGB">
<feGaussianBlur stdDeviation="1.4999053"/>
</filter>
<linearGradient id="linearGradient5009-3" x1="480.54" x2="1140.4" y1="974.9" y2="300.62" gradientTransform="matrix(.061771 0 0 -.061421 -.077765 47.39)" gradientUnits="userSpaceOnUse" xlink:href="#linearGradient4760-3"/>
<linearGradient id="linearGradient4760-3">
<stop stop-color="#fac45a" offset="0"/>
<stop stop-color="#f7a909" offset=".52493"/>
<stop stop-color="#d49109" offset="1"/>
</linearGradient>
<linearGradient id="linearGradient5011-0" x1="480.54" x2="1140.4" y1="974.9" y2="300.62" gradientTransform="matrix(.061771 0 0 -.061421 -.077766 47.39)" gradientUnits="userSpaceOnUse" xlink:href="#linearGradient4760-3"/>
<linearGradient id="linearGradient5045-2" x1="1086.6" x2="1086.6" y1="257.31" y2="299.32" gradientTransform="matrix(.37993 0 0 .37777 -234.01 -74.869)" gradientUnits="userSpaceOnUse">
<stop stop-color="#415ea4" offset="0"/>
<stop stop-color="#19458c" offset="1"/>
</linearGradient>
<linearGradient id="linearGradient5698" x1="6" x2="90" y1="47" y2="47" gradientTransform="matrix(1.1393 0 0 1.1393 -6.6857 -37.546)" gradientUnits="userSpaceOnUse">
<stop stop-color="#fff" stop-opacity="0" offset="0"/>
<stop stop-color="#fff" stop-opacity=".85135" offset=".036815"/>
<stop stop-color="#fff" stop-opacity="0" offset=".065061"/>
<stop stop-color="#fff" stop-opacity="0" offset=".94494"/>
<stop stop-color="#fff" stop-opacity=".85135" offset=".96582"/>
<stop stop-color="#fff" stop-opacity="0" offset="1"/>
</linearGradient>
<linearGradient id="linearGradient7786" x1="2.4652" x2="59.378" y1=".27862" y2=".27862" gradientTransform="matrix(1.0034 0 0 1.005 33.489 9.4732)" gradientUnits="userSpaceOnUse">
<stop stop-color="#fff" offset="0"/>
<stop stop-color="#fff" stop-opacity="0" offset="1"/>
</linearGradient>
</defs>
<metadata>
<rdf:RDF>
<cc:Work rdf:about="">
<dc:format>image/svg+xml</dc:format>
<dc:type rdf:resource="http://purl.org/dc/dcmitype/StillImage"/>
<dc:title>Lila-HD-Icon-Theme</dc:title>
<dc:date>2015-2019</dc:date>
<dc:creator>
<cc:Agent>
<dc:title>Cristian Pozzessere  == ilnanny ==</dc:title>
</cc:Agent>
</dc:creator>
<dc:subject>
<rdf:Bag>
<rdf:li>ilnanny</rdf:li>
<rdf:li>lila_hd</rdf:li>
<rdf:li>lila-hd</rdf:li>
<rdf:li>lila hd icon theme</rdf:li>
<rdf:li>Lila-HD-Icon-Theme lila hd icon lila icon</rdf:li>
</rdf:Bag>
</dc:subject>
<dc:coverage>CC-BY-SA</dc:coverage>
<dc:description>Playing with Inkscape on Gnu/Linux O. S.</dc:description>
<dc:contributor>
<cc:Agent>
<dc:title>In the night, alone like a dog.</dc:title>
</cc:Agent>
</dc:contributor>
</cc:Work>
</rdf:RDF>
</metadata>
<g transform="translate(0,32)">
<path d="m89.014-31.85h-82.029c-3.787 0-6.8357 3.0487-6.8357 6.8357v82.029c0 3.787 3.0487 6.8357 6.8357 6.8357h82.029c3.787 0 6.8357-3.0487 6.8357-6.8357v-82.029c0-3.787-3.0487-6.8357-6.8357-6.8357z" fill="url(#linearGradient5021)"/>
<path d="m6.9857-30.711c-3.1755 0-5.6964 2.5209-5.6964 5.6964v75.549c1.2198 1.8556 3.3004 3.0974 5.6964 3.0974h82.029c2.396 0 4.4766-1.2418 5.6964-3.0974v-75.549c0-3.1755-2.5209-5.6964-5.6964-5.6964z" fill="url(#radialGradient3114)" opacity=".2"/>
<path d="m6.9857-31.85c-3.787 0-6.8357 3.0487-6.8357 6.8357v17.089h1.1393v-17.089c0-3.1755 2.5209-5.6964 5.6964-5.6964h82.029c3.1755 0 5.6964 2.5209 5.6964 5.6964v17.089h1.1393v-17.089c0-3.787-3.0487-6.8357-6.8357-6.8357z" fill="url(#radialGradient3118)" opacity=".45"/>
<path d="m0.15 50.682v7.0902c0 3.3669 3.0487 6.0773 6.8357 6.0773h82.029c3.787 0 6.8357-2.7105 6.8357-6.0773v-7.0902c0 3.3669-3.0487 6.0773-6.8357 6.0773h-82.029c-3.787 0-6.8357-2.7105-6.8357-6.0773z" fill="url(#linearGradient3120)" opacity=".46965"/>
<ellipse cx="29.716" cy="52.709" rx="3.4436" ry="3.1329" fill="#1c1c1c" opacity=".71"/>
<ellipse cx="29.716" cy="52.501" rx="2.8653" ry="2.6822" fill="#fff"/>
<ellipse cx="29.716" cy="52.501" rx="1.9422" ry="1.8181" fill="#114751"/>
<ellipse cx="63.833" cy="52.709" rx="3.4436" ry="3.1329" fill="#1c1c1c" opacity=".71"/>
<ellipse cx="63.833" cy="52.501" rx="2.8653" ry="2.6822" fill="#fff"/>
<ellipse cx="63.833" cy="52.501" rx="1.9422" ry="1.8181" fill="#114751"/>
<rect x="40.657" y="51.658" width="12.718" height="3.252" rx="1.1521" ry="1.1538" fill="#0c2f31" fill-opacity=".90455" opacity=".75097" stroke="#fff" stroke-width=".502"/>
<path d="m7.7809 26.132c-1.8851 0-3.6495 0.91815-4.7591 2.2718v15.089c0 2.4045 2.1226 4.3402 4.7591 4.3402h80.905c2.6365 0 4.7591-1.9357 4.7591-4.3402v-15.089c-1.1096-1.3537-2.874-2.2718-4.7591-2.2718zm0 3.2552h80.905c1.3594 0 2.3796 0.93033 2.3796 2.1701v11.936c0 1.2398-1.0201 2.1701-2.3796 2.1701h-80.905c-1.3594 0-2.3796-0.93033-2.3796-2.1701v-11.936c0-1.2398 1.0201-2.1701 2.3796-2.1701z" color="#000000" opacity=".02" style="text-decoration-line:none;text-indent:0;text-transform:none"/>
<path d="m7.7809-28.121h80.905c2.6365 0 4.7591 1.9357 4.7591 4.3402v67.273c0 2.4045-2.1226 4.3402-4.7591 4.3402h-80.905c-2.6365 0-4.7591-1.9357-4.7591-4.3402v-67.273c0-2.4045 2.1226-4.3402 4.7591-4.3402z" color="#000000" fill="url(#radialGradient7470)"/>
<path transform="matrix(1.1743 0 0 1.1743 -8.3667 -46.964)" d="m55.062 24.031c-0.27451-0.05739-0.55454 0.03155-0.78125 0.1875-0.22671 0.15595-0.43679 0.36673-0.625 0.65625l-7.9688 12.281c-0.55807 0.85663-2.0134 1.5073-3.0312 1.3438l-14.531-2.3125c-0.34217-0.05517-0.63826-0.06285-0.90625 0s-0.51518 0.19429-0.65625 0.4375-0.14217 0.54948-0.0625 0.8125c0.07967 0.26302 0.24969 0.51459 0.46875 0.78125l9.2812 11.344c0.64985 0.79604 0.81384 2.3682 0.34375 3.2812l-6.7188 13c-0.15759 0.30705-0.25904 0.60115-0.28125 0.875-0.02221 0.27385 0.06156 0.54201 0.25 0.75 0.18844 0.20799 0.44416 0.30634 0.71875 0.3125 0.2746 0.0062 0.58442-0.06343 0.90625-0.1875l13.719-5.2812c0.96226-0.36862 2.5221-0.03656 3.25 0.6875l10.375 10.375c0.24408 0.24478 0.46501 0.42506 0.71875 0.53125s0.55558 0.14439 0.8125 0.03125 0.40873-0.36579 0.5-0.625c0.09127-0.25921 0.14432-0.56203 0.125-0.90625l-0.8125-14.594c-0.05648-1.0185 0.73469-2.381 1.6562-2.8438l13.125-6.625c0.30866-0.15591 0.53918-0.32301 0.71875-0.53125s0.31126-0.47037 0.28125-0.75c-0.03001-0.27963-0.21825-0.52136-0.4375-0.6875s-0.47783-0.28633-0.8125-0.375l-14.219-3.7188c-0.99692-0.26216-2.0609-1.4599-2.2188-2.4688l-2.2812-14.438c-0.05315-0.34035-0.13744-0.64068-0.28125-0.875s-0.35049-0.41136-0.625-0.46875zm-0.15625 0.78125c0.0095 2e-3 0.03104 0.02281 0.09375 0.125 0.06271 0.10219 0.11469 0.29638 0.15625 0.5625l2.2812 14.438c0.22154 1.416 1.4195 2.7587 2.8125 3.125l14.219 3.75c0.26342 0.06979 0.43423 0.14523 0.53125 0.21875 0.09702 0.07352 0.12424 0.1179 0.125 0.125 7.62e-4 0.0071-0.01491 0.03358-0.09375 0.125s-0.22613 0.2212-0.46875 0.34375l-13.125 6.5938c-1.2877 0.64668-2.2043 2.1957-2.125 3.625l0.8125 14.625c0.01513 0.26954 0.0085 0.44954-0.03125 0.5625-0.03977 0.11296-0.0861 0.15288-0.09375 0.15625-0.0077 0.0034-0.04384 0.01579-0.15625-0.03125-0.11241-0.04704-0.27707-0.18276-0.46875-0.375l-10.375-10.375c-1.0179-1.0126-2.7831-1.3578-4.125-0.84375l-13.719 5.2812c-0.2527 0.09741-0.44116 0.12772-0.5625 0.125-0.12134-0.0027-0.1509-0.02535-0.15625-0.03125-0.0053-0.0059-0.0097-0.03656 0-0.15625 0.0097-0.11969 0.06391-0.32169 0.1875-0.5625l6.6875-13c0.65792-1.2779 0.47012-3.0757-0.4375-4.1875l-9.2812-11.344c-0.17175-0.20907-0.27773-0.3852-0.3125-0.5-0.03477-0.1148-0.0036-0.14999 0-0.15625 0.0036-0.0063 0.0064-0.03468 0.125-0.0625 0.11862-0.027819 0.32463-0.012144 0.59375 0.03125l14.531 2.3125c1.4216 0.22836 3.0617-0.48711 3.8438-1.6875l7.9688-12.312c0.14755-0.22698 0.30591-0.36848 0.40625-0.4375 0.10034-0.06902 0.1468-0.06448 0.15625-0.0625zm27.37 21.686-5.3971 0.04731zm-62.145-10.548c-4.0783 4.5684-6.4413 10.034-6.9949 16.118-0.5408 5.9465 0.41955 13.64 4.7268 18.153 7.9306 8.3106 22.667-0.93269 29.619-5.9553 1.3789-0.99602 2.3344-2.5672 3.7047-3.557-7.3347 5.2994-21.221 13.912-29.619 5.9553-4.3508-4.122-4.9857-11.793-4.777-17.369 0.23634-6.3133 2.858-12.212 7.0452-16.902-1.1338 1.2698-2.567 2.2825-3.7048 3.557m53.171 5.8293c-0.24145 0.44866-0.35349 0.72059-0.20095 0.98373 0.16518 0.28464 1.051 1.6729 1.051 1.6729s0.86636 1.4001 1.051 1.6725c0.17148 0.25132 0.46605 0.27072 0.97788 0.25153 0.24091-0.44846 0.35244-0.72044 0.19988-0.98337-0.16464-0.28443-1.051-1.6727-1.051-1.6727s-0.86637-1.4006-1.051-1.6725c-0.17096-0.25174-0.46605-0.27114-0.97683-0.25211m-5.24e-4 2.09e-4 2.8789 4.5807m-2.8789-4.5807 2.8789 4.5807m-0.41293 0.78456m-2.0373 5.402c0.50025-0.01125 0.78693-0.04801 0.93895-0.30279 0.16359-0.27684 0.9258-1.6938 0.9258-1.6938s0.78167-1.4067 0.92632-1.6938c0.13257-0.2656 0.0069-0.52424-0.25512-0.94801-0.49919 0.01166-0.78588 0.04802-0.93737 0.303-0.16412 0.27664-0.92632 1.6938-0.92632 1.6938s-0.78167 1.4065-0.9258 1.6942c-0.13312 0.26497-0.0082 0.52403 0.25354 0.94738m5.24e-4 0 2.536-4.6381m-2.536 4.6381 2.536-4.6381m3.7879 4.5533c0.24197-0.44887 0.35296-0.72059 0.20095-0.98379-0.16518-0.28438-1.051-1.6723-1.051-1.6723s-0.86636-1.3998-1.051-1.6719c-0.17096-0.25111-0.46553-0.27093-0.97735-0.25153-0.24091 0.44825-0.35243 0.72044-0.19988 0.98316 0.16464 0.28443 1.051 1.6723 1.051 1.6723s0.86636 1.3999 1.051 1.6723c0.17096 0.25069 0.46553 0.27072 0.9763 0.25174m5.26e-4 -4.19e-4 -2.8784-4.5793m2.8784 4.5793-2.8784-4.5793m5.8231-0.84382c-0.25827-0.43763-0.43344-0.67342-0.73747-0.68137-0.32929-0.0078-1.9773 0.02045-1.9773 0.02045s-1.6491 0.0054-1.9784 0.02019c-0.30352 0.01434-0.47342 0.25357-0.72276 0.69653 0.25828 0.43679 0.43292 0.67258 0.73749 0.68037 0.32928 0.0083 1.9773-0.02045 1.9773-0.02045s1.6491-0.0051 1.9784-0.02024c0.30352-0.01371 0.47343-0.25331 0.72275-0.69548m0-3.7e-4 -5.4159 0.05555m5.4159-0.05555-5.4159 0.05555m2.0457-5.4014c-0.50077 0.01097-0.78798 0.04719-0.94001 0.30258-0.16464 0.27664-0.92842 1.695-0.92842 1.695s-0.78378 1.4077-0.92791 1.695c-0.13312 0.26602-0.0082 0.52508 0.25407 0.94948 0.50025-0.01153 0.78745-0.04765 0.93947-0.30321 0.16465-0.27664 0.92791-1.695 0.92791-1.695s0.78377-1.4075 0.92844-1.6952c0.13312-0.2656 0.0082-0.52466-0.25355-0.94859m-5.24e-4 -2.08e-4 -2.5423 4.642m2.5423-4.642-2.5423 4.642m-21.51-20.909c-0.18941-1.2129-0.89482-1.3604-1.5663-0.32742l-7.9762 12.291c-0.67005 1.0285-2.2159 1.7152-3.4356 1.5193l-14.524-2.3259c-1.2226-0.19713-1.5809 0.42356-0.79929 1.375l9.2899 11.343c0.77874 0.95392 0.95811 2.6242 0.3941 3.7197l-6.7144 13.016c-0.56237 1.0957-0.08056 1.6249 1.0685 1.1819l13.722-5.2819c1.1521-0.44134 2.8068-0.09358 3.6797 0.77473l10.373 10.374c0.87152 0.87405 1.5285 0.58476 1.4596-0.64276l-0.81113-14.609c-0.06787-1.2239 0.77431-2.6826 1.879-3.2374l13.13-6.6042c1.1026-0.55693 1.0263-1.2669-0.16991-1.5838l-14.22-3.7448c-1.195-0.31424-2.3265-1.5681-2.5162-2.7805l-2.2615-14.456m0-2e-6c-0.18942-1.2129-0.89482-1.3604-1.5663-0.32742l-7.9762 12.291c-0.67005 1.0285-2.2159 1.7152-3.4356 1.5193l-14.524-2.3259c-1.2226-0.19713-1.5809 0.42356-0.79929 1.375l9.2899 11.343c0.77874 0.95392 0.95811 2.6242 0.3941 3.7197l-6.7144 13.016c-0.56237 1.0957-0.08056 1.6249 1.0685 1.1819l13.722-5.2819c1.1521-0.44134 2.8068-0.09358 3.6797 0.77473l10.373 10.374c0.87152 0.87405 1.5285 0.58476 1.4596-0.64276l-0.81113-14.609c-0.06787-1.2239 0.77431-2.6826 1.879-3.2374l13.13-6.6042c1.1026-0.55693 1.0263-1.2669-0.16991-1.5838l-14.22-3.7448c-1.195-0.31424-2.3266-1.5681-2.5162-2.7805z" color="#000000" filter="url(#filter5197-3)" opacity=".6" style="text-decoration-line:none;text-indent:0;text-transform:none"/>
<path d="m56.898-18.281c-0.22243-1.4244-1.0508-1.5976-1.8394-0.3845l-9.3666 14.433c-0.78684 1.2078-2.6021 2.0142-4.0344 1.7841l-17.056-2.7313c-1.4357-0.2315-1.8565 0.49739-0.93861 1.6147l10.909 13.32c0.91447 1.1202 1.1251 3.0816 0.46279 4.3681l-7.8848 15.284c-0.66039 1.2867-0.0946 1.9081 1.2548 1.3879l16.114-6.2025c1.3529-0.51827 3.2961-0.10989 4.3211 0.90977l12.181 12.182c1.0234 1.0264 1.7949 0.68669 1.714-0.7548l-0.95251-17.155c-0.0797-1.4372 0.90928-3.1502 2.2065-3.8016l15.418-7.7554c1.2947-0.65401 1.2052-1.4877-0.19952-1.8599l-16.699-4.3976c-1.4033-0.36902-2.7321-1.8415-2.9548-3.2652l-2.6557-16.976" fill="url(#linearGradient5009-3)"/>
<path d="m56.898-18.281c-0.22243-1.4244-1.0508-1.5976-1.8394-0.3845l-9.3665 14.433c-0.78684 1.2078-2.6021 2.0142-4.0344 1.7841l-17.056-2.7313c-1.4357-0.2315-1.8565 0.49738-0.93861 1.6147l10.909 13.32c0.91447 1.1202 1.1251 3.0816 0.46279 4.3681l-7.8848 15.284c-0.66039 1.2867-0.0946 1.9081 1.2548 1.3879l16.114-6.2025c1.3529-0.51827 3.2961-0.10989 4.3211 0.90977l12.181 12.182c1.0234 1.0264 1.7949 0.68669 1.714-0.7548l-0.95251-17.155c-0.0797-1.4372 0.90927-3.1502 2.2065-3.8016l15.418-7.7554c1.2947-0.65401 1.2052-1.4877-0.19953-1.8599l-16.699-4.3976c-1.4033-0.36902-2.7321-1.8415-2.9548-3.2652z" fill="url(#linearGradient5011-0)" stroke="#fab217" stroke-width=".96384"/>
<path d="m85.142 0.82136-2.9854 5.4511" fill="url(#linearGradient5009-3)"/>
<path d="m85.142 0.82136-2.9854 5.4511" fill="url(#linearGradient5009-3)"/>
<path d="m85.143 0.82161c-0.58806 0.012881-0.92533 0.055411-1.1039 0.35532-0.19334 0.32486-1.0902 1.9904-1.0902 1.9904s-0.9204 1.6531-1.0897 1.9904c-0.15632 0.31239-0.0096 0.6166 0.29836 1.115 0.58744-0.013535 0.92471-0.055959 1.1032-0.35606 0.19335-0.32485 1.0896-1.9905 1.0896-1.9905s0.92039-1.6528 1.0903-1.9907c0.15632-0.3119 0.0096-0.61611-0.29774-1.1139" fill="url(#linearGradient5009-3)"/>
<path d="m89.101 7.0993-6.36 0.065235" fill="url(#linearGradient5009-3)"/>
<path d="m89.101 7.0993-6.36 0.065235" fill="url(#linearGradient5009-3)"/>
<path d="m89.101 7.0997c-0.30329-0.51391-0.50899-0.7908-0.86602-0.80013-0.38669-0.0091-2.322 0.024012-2.322 0.024012s-1.9365 0.0063-2.3232 0.023709c-0.35643 0.016837-0.55594 0.29777-0.84874 0.81794 0.3033 0.51293 0.50838 0.78981 0.86604 0.79896 0.38667 0.0098 2.322-0.024012 2.322-0.024012s1.9365-0.00595 2.3232-0.023767c0.35643-0.016102 0.55595-0.29746 0.84873-0.81671" fill="url(#linearGradient5009-3)"/>
<path d="m85.643 13.468-3.3801-5.3775" fill="url(#linearGradient5009-3)"/>
<path d="m85.643 13.468-3.3801-5.3775" fill="url(#linearGradient5009-3)"/>
<path d="m85.642 13.469c0.28415-0.52711 0.41449-0.8462 0.23597-1.1553-0.19397-0.33394-1.2342-1.9638-1.2342-1.9638s-1.0174-1.6437-1.2342-1.9633c-0.20076-0.29488-0.54667-0.31816-1.1477-0.29537-0.2829 0.52638-0.41386 0.84601-0.23473 1.1545 0.19334 0.33401 1.2342 1.9638 1.2342 1.9638s1.0174 1.6439 1.2342 1.9638c0.20076 0.29439 0.54667 0.31792 1.1465 0.29562" fill="url(#linearGradient5009-3)"/>
<path d="m78.216 13.568 2.978-5.4466" fill="url(#linearGradient5009-3)"/>
<path d="m78.216 13.568 2.978-5.4466" fill="url(#linearGradient5009-3)"/>
<path d="m78.215 13.568c0.58744-0.01321 0.9241-0.05638 1.1026-0.35557 0.19211-0.3251 1.0872-1.989 1.0872-1.989s0.91792-1.6519 1.0878-1.989c0.15567-0.31189 0.0081-0.61562-0.29959-1.1133-0.5862 0.013698-0.92286 0.056391-1.1008 0.35581-0.19272 0.32486-1.0878 1.989-1.0878 1.989s-0.91792 1.6517-1.0872 1.9895c-0.15632 0.31116-0.0096 0.61538 0.29774 1.1125" fill="url(#linearGradient5009-3)"/>
<path d="m80.608 7.2245" fill="url(#linearGradient5009-3)"/>
<path d="m77.712 0.92406 3.3807 5.3791" fill="url(#linearGradient5009-3)"/>
<path d="m77.712 0.92406 3.3807 5.3791" fill="url(#linearGradient5009-3)"/>
<path d="m77.713 0.92381c-0.28353 0.52687-0.4151 0.8462-0.23597 1.1552 0.19397 0.33425 1.2342 1.9646 1.2342 1.9646s1.0174 1.6442 1.2342 1.964c0.20137 0.29513 0.54729 0.31791 1.1483 0.29537 0.2829-0.52662 0.41387-0.84601 0.23472-1.1548-0.19334-0.33401-1.2342-1.9642-1.2342-1.9642s-1.0174-1.6447-1.2342-1.9641c-0.20076-0.29562-0.54729-0.31841-1.1471-0.29605" fill="url(#linearGradient5009-3)"/>
<path d="m15.274-5.9216c-4.7892 5.3648-7.5641 11.783-8.2141 18.928-0.63507 6.983 0.49268 16.017 5.5507 21.317 9.313 9.7592 26.618-1.0953 34.781-6.9934 1.6193-1.1696 2.7413-3.0147 4.3505-4.1771-8.6132 6.2232-24.92 16.337-34.782 6.9933-5.1092-4.8405-5.8547-13.848-5.6096-20.397 0.27754-7.4137 3.3562-14.34 8.2733-19.848-1.3315 1.4911-3.0145 2.6804-4.3505 4.1771" fill="#fff"/>
<path d="m88.251 6.4648-6.3379 0.055562z" fill="url(#linearGradient5045-2)" fill-rule="evenodd"/>
<path d="m8.7251-27.32h79.017c2.575 0 4.648 1.8912 4.648 4.2405v65.727c0 2.3492-2.073 4.2405-4.648 4.2405h-79.017c-2.575 0-4.648-1.8912-4.648-4.2405v-65.727c0-2.3492 2.073-4.2405 4.648-4.2405z" color="#000000" fill="none" stroke="#000" stroke-opacity=".7758" stroke-width="2.2904"/>
<path d="m89.014-31.85h-82.029c-3.787 0-6.8357 3.0487-6.8357 6.8357v82.029c0 3.787 3.0487 6.8357 6.8357 6.8357h82.029c3.787 0 6.8357-3.0487 6.8357-6.8357v-82.029c0-3.787-3.0487-6.8357-6.8357-6.8357z" fill="url(#linearGradient5698)" opacity=".72794"/>
<path d="m35.963-28.224c8.3294 26.184 16.985 51.751 25.766 75.954h26.584c2.6365 0 4.7591-1.9357 4.7591-4.3402v-67.273c0-2.4045-2.1225-4.3402-4.7591-4.3402z" color="#000000" fill="url(#linearGradient7786)" opacity=".30882"/>
</g>
</svg>
