<?xml version="1.0" encoding="UTF-8"?>
<!-- Created with Inkscape (http://www.inkscape.org/) -->
<svg width="96px" height="96px" version="1.1" viewBox="0 0 64 64" xmlns="http://www.w3.org/2000/svg" xmlns:cc="http://creativecommons.org/ns#" xmlns:dc="http://purl.org/dc/elements/1.1/" xmlns:rdf="http://www.w3.org/1999/02/22-rdf-syntax-ns#" xmlns:xlink="http://www.w3.org/1999/xlink">
<defs>
<linearGradient id="linearGradient4125">
<stop stop-color="#fff" offset="0"/>
<stop stop-color="#fff" stop-opacity="0" offset="1"/>
</linearGradient>
<linearGradient id="linearGradient3891" x1="6.25" x2="89.75" y1="80.625" y2="80.625" gradientTransform="matrix(1.115 0 0 1.1151 6.5966 1043.4)" gradientUnits="userSpaceOnUse">
<stop stop-color="#fff" stop-opacity="0" offset="0"/>
<stop stop-color="#fff" offset=".15"/>
<stop stop-color="#fff" offset=".85"/>
<stop stop-color="#fff" stop-opacity="0" offset="1"/>
</linearGradient>
<linearGradient id="linearGradient3893" x1="1.1209" x2="95.496" y1="84.063" y2="84.063" gradientTransform="matrix(.99266 0 0 .9812 12.165 1055.3)" gradientUnits="userSpaceOnUse">
<stop stop-color="#fff" stop-opacity=".031373" offset="0"/>
<stop stop-color="#fff" offset=".05"/>
<stop stop-color="#fff" stop-opacity=".023529" offset=".1"/>
<stop stop-color="#fff" stop-opacity=".28058" offset=".5"/>
<stop stop-color="#fefefe" stop-opacity=".015686" offset=".9"/>
<stop stop-color="#fff" offset=".95"/>
<stop stop-color="#fdfdfd" stop-opacity="0" offset="1"/>
</linearGradient>
<linearGradient id="linearGradient3391" x1="44.726" x2="22.635" y1="59.746" y2="34.832" gradientTransform="matrix(.99266 0 0 .9812 11.828 1054.9)" gradientUnits="userSpaceOnUse" xlink:href="#linearGradient4125"/>
<linearGradient id="linearGradient3889" x1="6.076" x2="89.924" y1="47.473" y2="47.473" gradientTransform="matrix(1.115 0 0 1.0365 -5.522 2.796)" gradientUnits="userSpaceOnUse">
<stop stop-color="#d8d8d8" stop-opacity="0" offset="0"/>
<stop stop-color="#fff" offset=".05"/>
<stop stop-color="#d8d8d8" stop-opacity="0" offset=".1"/>
<stop stop-color="#d8d8d8" stop-opacity="0" offset=".5"/>
<stop stop-color="#d8d8d8" stop-opacity="0" offset=".9"/>
<stop stop-color="#fff" offset=".95"/>
<stop stop-color="#d8d8d8" stop-opacity="0" offset="1"/>
</linearGradient>
<radialGradient id="radialGradient3885" cx="44.659" cy="-187.51" r="36.916" gradientTransform="matrix(1.6991 .0043381 -9.9579e-5 .013731 -31.242 -184.99)" gradientUnits="userSpaceOnUse" xlink:href="#linearGradient4125"/>
</defs>
<metadata>
<rdf:RDF>
<cc:Work rdf:about="">
<dc:format>image/svg+xml</dc:format>
<dc:type rdf:resource="http://purl.org/dc/dcmitype/StillImage"/>
<dc:title/>
<cc:license rdf:resource="http://creativecommons.org/licenses/by-sa/4.0/"/>
<dc:date>2017</dc:date>
<dc:creator>
<cc:Agent>
<dc:title>Cristian Pozzessere "ilnanny"</dc:title>
</cc:Agent>
</dc:creator>
<dc:subject>
<rdf:Bag>
<rdf:li>Global language</rdf:li>
</rdf:Bag>
</dc:subject>
<dc:description>Playing with Inkscape on Gnu/Linux O. S.</dc:description>
<dc:contributor>
<cc:Agent>
<dc:title>In the night, alone like a dog.</dc:title>
</cc:Agent>
</dc:contributor>
</cc:Work>
<cc:License rdf:about="http://creativecommons.org/licenses/by-sa/4.0/">
<cc:permits rdf:resource="http://creativecommons.org/ns#Reproduction"/>
<cc:permits rdf:resource="http://creativecommons.org/ns#Distribution"/>
<cc:requires rdf:resource="http://creativecommons.org/ns#Notice"/>
<cc:requires rdf:resource="http://creativecommons.org/ns#Attribution"/>
<cc:permits rdf:resource="http://creativecommons.org/ns#DerivativeWorks"/>
<cc:requires rdf:resource="http://creativecommons.org/ns#ShareAlike"/>
</cc:License>
</rdf:RDF>
</metadata>
<g transform="matrix(.98438 0 0 .96296 -3.1992 -18.562)">
<g transform="matrix(.99515 0 0 1 .64472 -1.0385)">
<g transform="matrix(.68055 0 0 .69231 2.618 20.315)">
<g transform="translate(0 -1026.5)">
<g transform="translate(-12.119 -22.917)">
<path d="m101.26 1049.4h-82.286c-3.7989 0-6.8571 3.0583-6.8571 6.8571v82.286c0 3.7988 3.0583 6.8571 6.8571 6.8571h82.286c3.7989 0 6.8571-3.0583 6.8571-6.8571v-82.286c0-3.7988-3.0583-6.8571-6.8571-6.8571z" enable-background="new" opacity=".15"/>
<path d="m100.83 1049.9h-81.429c-3.7593 0-6.7857 3.0264-6.7857 6.7857v81.429c0 3.7593 3.0264 6.7857 6.7857 6.7857h81.429c3.7593 0 6.7857-3.0264 6.7857-6.7857v-81.429c0-3.7593-3.0264-6.7857-6.7857-6.7857z" enable-background="new" opacity=".25"/>
</g>
</g>
<path d="m88.142 1.1657h-80.283c-3.7064 0-6.6903 2.984-6.6903 6.6906v80.287c0 3.7066 2.9839 6.6906 6.6903 6.6906h80.283c3.7064 0 6.6903-2.984 6.6903-6.6906v-80.287c0-3.7066-2.9839-6.6906-6.6903-6.6906z" enable-background="new" fill="#b7bbbe" stroke="#6d6d6d" stroke-width=".33452"/>
<g transform="matrix(0 -1.0859 1.115 0 -.94838 206.75)" enable-background="new">
<path d="m117.22 6.0979c-3.921 0-7.125 3.204-7.125 7.125v60.562c0 3.921 3.204 7.125 7.125 7.125h61.562c3.921 0 7.125-3.204 7.125-7.125v-60.562c0-3.921-3.204-7.125-7.125-7.125z" color="#000000" enable-background="accumulate" opacity=".13718" style="text-decoration-line:none;text-indent:0;text-transform:none"/>
<path d="m117.22 6.8133c-3.3794 0-6.125 2.7457-6.125 6.125v61.562c0 3.3793 2.7456 6.125 6.125 6.125h61.562c3.3794 0 6.125-2.7457 6.125-6.125v-61.562c0-3.3793-2.7456-6.125-6.125-6.125z" color="#000000" enable-background="accumulate" opacity=".24549" style="text-decoration-line:none;text-indent:0;text-transform:none"/>
<path d="m183.7 12.925c0-2.8428-2.242-5.1189-5.0262-5.1189h-30.722c2.7842 0 5.0262 2.2761 5.0262 5.1189v61.594c0 2.8428-2.242 5.1189-5.0262 5.1189h30.722c2.7842 0 5.0262-2.2761 5.0262-5.1189z" fill="#fdffeb" stroke="#b4b4b4" stroke-width=".4374"/>
<path d="m115.71 79.154v1c0.26183 2.5937 2.46 4.5938 5.125 4.5938h61.562c2.665 0 4.8632-2.0001 5.125-4.5938v-1c-0.26183 2.5937-2.46 4.5938-5.125 4.5938h-61.562c-2.665 0-4.8632-2.0001-5.125-4.5938z" fill="#fff" opacity=".4"/>
<path d="m116.69 7.8133c-2.5937 0.26183-4.5938 2.46-4.5938 5.125v0.46875c0.26183-2.5937 2.46-4.5938 5.125-4.5938h61.562c2.665 0 4.8632 2.0001 5.125 4.5938v-0.46875c0-2.8426-2.2824-5.125-5.125-5.125h-61.562c-0.17767 0-0.35834-0.017455-0.53125 0z" fill="#fff" opacity=".5"/>
<path d="m115.71 8.6425v-1c0.26183-2.5937 2.46-4.5938 5.125-4.5938h61.562c2.665 0 4.8632 2.0001 5.125 4.5938v1c-0.26183-2.5937-2.46-4.5938-5.125-4.5938h-61.562c-2.665 0-4.8632 2.0001-5.125 4.5938z" fill="#fff" opacity=".4"/>
<rect transform="rotate(90)" x="7.7431" y="-187.83" width="73.831" height=".90709" fill="url(#radialGradient3885)" opacity=".42599"/>
<path d="m183.73 12.934c0-2.8428-2.242-5.1189-5.0262-5.1189h-5.4216c2.7842 0 5.0262 2.2761 5.0262 5.1189v61.594c0 2.8428-2.242 5.1189-5.0262 5.1189h5.4216c2.7842 0 5.0262-2.2761 5.0262-5.1189z" fill="#e9ffdb" stroke="#b4b4b4" stroke-width=".4374"/>
<path d="m180.05 12.896c0-2.842-2.242-5.1174-5.0262-5.1174h-5.4216c2.7842 0 5.0262 2.2755 5.0262 5.1174v61.576c0 2.842-2.242 5.1174-5.0262 5.1174h5.4216c2.7842 0 5.0262-2.2755 5.0262-5.1174z" fill="#ffecfe" stroke="#b4b4b4" stroke-width=".43734"/>
<path d="m127.62 73.032v1.4688c0 2.8426 1.789 5.125 4.0171 5.125h48.254c2.2282 0 4.0171-2.2824 4.0171-5.125v-1.4688c-0.20523 2.5937-1.9282 4.5938-4.0171 4.5938h-48.254c-2.0889 0-3.8119-2.0001-4.0171-4.5938z" opacity=".138"/>
<path d="m112.09 13.748v-1.4688c0-2.8426 2.2824-5.125 5.125-5.125h61.562c2.8426 0 5.125 2.2824 5.125 5.125v1.4688c-0.26183-2.5937-2.46-4.5938-5.125-4.5938h-61.562c-2.665 0-4.8632 2.0001-5.125 4.5938z" opacity=".169"/>
</g>
<path d="m1.411 83.85c0 2.6997 3.0408 4.8731 6.8179 4.8731h79.542c3.7771 0 6.8179-2.1734 6.8179-4.8731v-50.355c0-2.6997-3.0408-4.8731-6.8179-4.8731h-43.393l-4.6873-5.5838c-1.1519-1.5193-3.4044-2.5381-6.0012-2.5381h-25.461c-3.7771 0-6.8179 2.1734-6.8179 4.8731z" enable-background="new" fill="#b7bbbe" stroke="#6d6d6d" stroke-width=".29432"/>
<g>
<g transform="matrix(1 0 0 .93315 0 6.3272)">
<g transform="translate(-11.94 -1049.6)">
<path d="m13.566 1129v2.2302c0 3.4905 3.0556 6.2725 6.8296 6.2725h79.447c3.774 0 6.8296-2.782 6.8296-6.2725v-2.2302c0 3.4905-3.0556 6.2724-6.8296 6.2724h-79.447c-3.774 0-6.8296-2.7819-6.8296-6.2724z" enable-background="new" fill="url(#linearGradient3891)" opacity=".83103"/>
<path d="m18.476 1132.6h83.286" enable-background="new" fill="none" opacity=".375" stroke="#000" stroke-width="1.7273px"/>
<path d="m18.476 1131.8h83.286" enable-background="new" fill="none" opacity=".435" stroke="#fff" stroke-width="1.7273px"/>
<path d="m18.476 1128.5h83.286" enable-background="new" fill="none" opacity=".375" stroke="#000" stroke-width="1.7273px"/>
<path d="m18.476 1127.7h83.286" enable-background="new" fill="none" opacity=".435" stroke="#fff" stroke-width="1.7273px"/>
<path d="m13.277 1131.4v6.2378c0 3.6782 2.9941 6.6333 6.7005 6.6333h80.281c3.7064 0 6.7004-2.9551 6.7004-6.6333v-6.2378c0 3.6782-2.994 6.6637-6.7004 6.6637h-80.281c-3.7064 0-6.7005-2.9855-6.7005-6.6637z" enable-background="new" opacity=".3"/>
<path d="m13.277 1131.4v6.2378c0 3.6782 2.9941 6.6333 6.7005 6.6333h80.281c3.7064 0 6.7004-2.9551 6.7004-6.6333v-6.2378c0 3.6782-2.994 6.6637-6.7004 6.6637h-80.281c-3.7064 0-6.7005-2.9855-6.7005-6.6637z" enable-background="new" fill="url(#linearGradient3893)" opacity=".95052"/>
<path d="m13.193 1132.3c0 2.895 3.0408 5.2256 6.8179 5.2256 49.601-40.026 39.172-32.106 79.542-64.449h-43.393l-4.6873-5.9877c-1.1519-1.6292-3.4044-2.7216-6.0012-2.7216h-25.461c-3.7771 0-6.8179 2.3306-6.8179 5.2256z" enable-background="new" fill="url(#linearGradient3391)" opacity=".332"/>
</g>
<path d="m1.411 83.354c0 2.895 3.0408 5.2256 6.8179 5.2256h79.542c3.7771 0 6.8179-2.3306 6.8179-5.2256v-53.998c0-2.895-3.0408-5.2257-6.8179-5.2257h-43.393l-4.6873-5.9876c-1.1519-1.6292-3.4044-2.7217-6.0012-2.7217h-25.461c-3.7771 0-6.8179 2.3306-6.8179 5.2256z" enable-background="new" fill="url(#linearGradient3889)" opacity=".381"/>
</g>
</g>
</g>
<g transform="matrix(.71536 0 0 .72772 -302.11 -343.87)" opacity=".932" stroke-width="1.0004">
<path d="m480.86 530.61c-0.28435-0.0149-0.57145-3e-3 -0.85472 0.0353h-17.626c-0.62403-0.0181-1.2094 0.11602-1.7299 0.36419-0.52046 0.24817-0.97599 0.60953-1.3434 1.0442-0.36741 0.43472-0.64708 0.94313-0.81198 1.4846-0.16491 0.54149-0.21529 1.1168-0.12821 1.6853 0.0138 11.884-0.0281 23.77 0.0204 35.653 0.0439 0.57529 0.23006 1.0981 0.52026 1.5534s0.68514 0.84182 1.1446 1.1483c0.45945 0.30648 0.98316 0.53242 1.5348 0.66148s1.1297 0.16249 1.6964 0.0855c6.0113-0.0131 12.024 0.0261 18.035-0.0204 0.60167-0.042 1.1481-0.22043 1.624-0.49796s0.88191-0.65322 1.2022-1.0926c0.32028-0.43934 0.55454-0.94235 0.68935-1.4697 0.13482-0.5274 0.16966-1.0804 0.0892-1.6221-0.0137-11.844 0.028-23.688-0.0204-35.53-0.0439-0.57525-0.22999-1.0983-0.52026-1.5534-0.29027-0.45501-0.68509-0.84205-1.1446-1.1483s-0.98321-0.53071-1.5348-0.65962c-0.27579-0.0645-0.55737-0.10591-0.84171-0.12078zm-2.304 2.9098c0.91843-8e-3 1.8354-3.3e-4 2.7444 0.0836 0.37036 0.26411 0.56461 0.49217 0.63175 0.68006 0.0671 0.18789 6e-3 0.33633-0.13564 0.44408-0.28335 0.2155-0.88962 0.26601-1.4419 0.1375h-4.5523c0.18352-0.19562 0.27486-0.43089 0.27499-0.66705 1.4e-4 -0.23617-0.0909-0.47344-0.27499-0.66892 0.9153 0.0228 1.8352-1e-3 2.7537-9e-3zm-16.176 9e-3h5.1042c-0.0496 0.63581-0.0689 1.0117-0.26014 1.2078-0.1912 0.19609-0.55351 0.21261-1.2895 0.12821h-4.5504c-0.0392-0.30994 0.0135-0.64791 0.17466-0.90675 0.16111-0.25883 0.43039-0.43872 0.82127-0.42922zm-9.7921 0.12821c-0.63564 0.1993-1.1759 0.54279-1.6314 0.98479-0.4555 0.44199-0.8273 0.98247-1.126 1.5701-0.5974 1.1752-0.90432 2.5447-1.0145 3.7199-0.0554 1.3047 0.18413 2.6693 0.71722 3.9038 0.26654 0.61725 0.6058 1.2018 1.0201 1.7299 0.41428 0.52811 0.90359 1.0005 1.466 1.3917 0.65884 0.15139 1.1328 0.064 1.4474-0.16537 0.31468-0.22942 0.46907-0.60223 0.49053-1.0238 0.0215-0.42157-0.0913-0.89231-0.31216-1.3174-0.22083-0.42507-0.5503-0.80432-0.96249-1.0442-0.38317-0.59328-0.63347-1.2427-0.76181-1.912s-0.13466-1.3588-0.026-2.0328c0.10865-0.6739 0.33183-1.3307 0.65962-1.938 0.3278-0.60728 0.76043-1.1639 1.2895-1.6333 0.33297-0.45412 0.31222-1.0231 0.0613-1.4735-0.25091-0.45038-0.7313-0.78185-1.3174-0.75996zm38.113 0c-0.69544 0.11115-1.0915 0.35172-1.2802 0.67077-0.18869 0.31906-0.17014 0.71576-0.0335 1.1353 0.27339 0.83906 1.0166 1.7727 1.5032 2.3691 0.29479 0.58049 0.47273 1.1985 0.54442 1.8265 0.0717 0.62799 0.0363 1.266-0.0966 1.886-0.13295 0.6199-0.36274 1.2201-0.68191 1.7763-0.31918 0.55622-0.72637 1.0681-1.2133 1.505-0.31669 0.56601-0.31077 1.0393-0.11335 1.3973 0.19743 0.35802 0.58614 0.60107 1.0331 0.7005 0.44695 0.0994 0.95237 0.0556 1.3843-0.15422 0.4319-0.20978 0.78979-0.58616 0.94205-1.1557 0.69819-0.87221 1.1909-1.8805 1.479-2.9451s0.37241-2.186 0.2527-3.2814c-0.11972-1.0954-0.44272-2.1643-0.96806-3.129-0.52535-0.96467-1.2545-1.8248-2.1833-2.4973l-0.27871-0.078zm-35.016 1.4084c-0.52442 0.12232-0.97131 0.36923-1.349 0.70236-0.37767 0.33313-0.686 0.7509-0.93462 1.2115-0.49723 0.92115-0.75441 2.0143-0.84171 2.9451-0.0443 1.0144 0.14521 2.0826 0.57043 3.0417 0.21261 0.47955 0.48282 0.93075 0.81384 1.336 0.33102 0.40521 0.72234 0.76484 1.1725 1.0554 0.66117 0.15128 1.134 0.0655 1.4474-0.16351 0.3135-0.22901 0.46641-0.60146 0.49054-1.0257 0.0241-0.42421-0.0811-0.8998-0.288-1.3341-0.20693-0.43431-0.51408-0.82765-0.89374-1.087-0.39899-0.5787-0.48342-1.1164-0.39578-1.6295 0.0876-0.51318 0.34664-1.0017 0.6299-1.4828 0.28325-0.48109 0.59255-0.95569 0.78039-1.4382s0.25434-0.97292 0.0557-1.4902c-0.269-0.40214-0.76126-0.64516-1.2579-0.64104zm31.916 0.19324c-0.78916 0.15655-1.1887 0.43497-1.3415 0.78969-0.15286 0.35472-0.059 0.78515 0.13936 1.2468 0.39667 0.92326 1.2116 1.9689 1.3025 2.7723 0.19251 0.51313 0.0849 1.018-0.14493 1.5088-0.22983 0.49071-0.58277 0.96743-0.87702 1.4289-0.29424 0.46144-0.53068 0.90696-0.53141 1.3322-7.4e-4 0.4253 0.2356 0.83104 0.88631 1.2133 0.55884 0.10602 1.0418 7e-3 1.4586-0.22669 0.41683-0.23345 0.76597-0.60105 1.0572-1.035 0.58257-0.8678 0.93189-1.9981 1.1111-2.8336 0.16917-1.1138 0.044-2.312-0.37162-3.3947-0.20783-0.54136-0.48865-1.0544-0.84171-1.5125-0.35306-0.45803-0.77889-0.86111-1.2765-1.1854l-0.28058-0.078zm-26.218 2.4917h20.521v25.248h-20.521zm0.7581 1.0331v23.38h19.004v-23.38zm-0.7581 27.1h8.0548c-0.65811 0.29778-1.044 0.75457-1.2449 1.2821-0.20097 0.52751-0.21688 1.125-0.13379 1.7057 0.16618 1.1614 0.72645 2.2528 0.99036 2.5679-2.3516-0.0468-4.7218 0.0952-7.0607-0.0743-0.25468-0.16283-0.41206-0.3682-0.5054-0.60016-0.0933-0.23196-0.12325-0.4906-0.12635-0.75996-6e-3 -0.53871 0.0978-1.1204 0.026-1.6184zm12.466 0h8.0548c-0.0482 1.6568 0.10022 3.3311-0.0762 4.976-0.3406 0.48701-0.85987 0.59795-1.4233 0.60388-0.56343 6e-3 -1.1719-0.0928-1.6927-0.0241h-4.8626c0.49684-0.32872 0.86985-0.7581 1.1186-1.2375 0.24871-0.47939 0.37324-1.0086 0.37347-1.5385 2.4e-4 -0.52984-0.12302-1.0603-0.37162-1.5404-0.24859-0.48006-0.62265-0.90929-1.1204-1.2393z" fill="none" opacity="1" stroke="#000" stroke-linejoin="round" stroke-opacity=".15649" stroke-width="2.2739" style="paint-order:stroke fill markers"/>
<path d="m480.86 530.61c-0.28435-0.0149-0.57145-3e-3 -0.85472 0.0353h-17.626c-0.62403-0.0181-1.2094 0.11602-1.7299 0.36419-0.52046 0.24817-0.97599 0.60953-1.3434 1.0442-0.36741 0.43472-0.64708 0.94313-0.81198 1.4846-0.16491 0.54149-0.21529 1.1168-0.12821 1.6853 0.0138 11.884-0.0281 23.77 0.0204 35.653 0.0439 0.57529 0.23006 1.0981 0.52026 1.5534s0.68514 0.84182 1.1446 1.1483c0.45945 0.30648 0.98316 0.53242 1.5348 0.66148s1.1297 0.16249 1.6964 0.0855c6.0113-0.0131 12.024 0.0261 18.035-0.0204 0.60167-0.042 1.1481-0.22043 1.624-0.49796s0.88191-0.65322 1.2022-1.0926c0.32028-0.43934 0.55454-0.94235 0.68935-1.4697 0.13482-0.5274 0.16966-1.0804 0.0892-1.6221-0.0137-11.844 0.028-23.688-0.0204-35.53-0.0439-0.57525-0.22999-1.0983-0.52026-1.5534-0.29027-0.45501-0.68509-0.84205-1.1446-1.1483s-0.98321-0.53071-1.5348-0.65962c-0.27579-0.0645-0.55737-0.10591-0.84171-0.12078zm-2.304 2.9098c0.91843-8e-3 1.8354-3.3e-4 2.7444 0.0836 0.37036 0.26411 0.56461 0.49217 0.63175 0.68006 0.0671 0.18789 6e-3 0.33633-0.13564 0.44408-0.28335 0.2155-0.88962 0.26601-1.4419 0.1375h-4.5523c0.18352-0.19562 0.27486-0.43089 0.27499-0.66705 1.4e-4 -0.23617-0.0909-0.47344-0.27499-0.66892 0.9153 0.0228 1.8352-1e-3 2.7537-9e-3zm-16.176 9e-3h5.1042c-0.0496 0.63581-0.0689 1.0117-0.26014 1.2078-0.1912 0.19609-0.55351 0.21261-1.2895 0.12821h-4.5504c-0.0392-0.30994 0.0135-0.64791 0.17466-0.90675 0.16111-0.25883 0.43039-0.43872 0.82127-0.42922zm-9.7921 0.12821c-0.63564 0.1993-1.1759 0.54279-1.6314 0.98479-0.4555 0.44199-0.8273 0.98247-1.126 1.5701-0.5974 1.1752-0.90432 2.5447-1.0145 3.7199-0.0554 1.3047 0.18413 2.6693 0.71722 3.9038 0.26654 0.61725 0.6058 1.2018 1.0201 1.7299 0.41428 0.52811 0.90359 1.0005 1.466 1.3917 0.65884 0.15139 1.1328 0.064 1.4474-0.16537 0.31468-0.22942 0.46907-0.60223 0.49053-1.0238 0.0215-0.42157-0.0913-0.89231-0.31216-1.3174-0.22083-0.42507-0.5503-0.80432-0.96249-1.0442-0.38317-0.59328-0.63347-1.2427-0.76181-1.912s-0.13466-1.3588-0.026-2.0328c0.10865-0.6739 0.33183-1.3307 0.65962-1.938 0.3278-0.60728 0.76043-1.1639 1.2895-1.6333 0.33297-0.45412 0.31222-1.0231 0.0613-1.4735-0.25091-0.45038-0.7313-0.78185-1.3174-0.75996zm38.113 0c-0.69544 0.11115-1.0915 0.35172-1.2802 0.67077-0.18869 0.31906-0.17014 0.71576-0.0335 1.1353 0.27339 0.83906 1.0166 1.7727 1.5032 2.3691 0.29479 0.58049 0.47273 1.1985 0.54442 1.8265 0.0717 0.62799 0.0363 1.266-0.0966 1.886-0.13295 0.6199-0.36274 1.2201-0.68191 1.7763-0.31918 0.55622-0.72637 1.0681-1.2133 1.505-0.31669 0.56601-0.31077 1.0393-0.11335 1.3973 0.19743 0.35802 0.58614 0.60107 1.0331 0.7005 0.44695 0.0994 0.95237 0.0556 1.3843-0.15422 0.4319-0.20978 0.78979-0.58616 0.94205-1.1557 0.69819-0.87221 1.1909-1.8805 1.479-2.9451s0.37241-2.186 0.2527-3.2814c-0.11972-1.0954-0.44272-2.1643-0.96806-3.129-0.52535-0.96467-1.2545-1.8248-2.1833-2.4973l-0.27871-0.078zm-35.016 1.4084c-0.52442 0.12232-0.97131 0.36923-1.349 0.70236-0.37767 0.33313-0.686 0.7509-0.93462 1.2115-0.49723 0.92115-0.75441 2.0143-0.84171 2.9451-0.0443 1.0144 0.14521 2.0826 0.57043 3.0417 0.21261 0.47955 0.48282 0.93075 0.81384 1.336 0.33102 0.40521 0.72234 0.76484 1.1725 1.0554 0.66117 0.15128 1.134 0.0655 1.4474-0.16351 0.3135-0.22901 0.46641-0.60146 0.49054-1.0257 0.0241-0.42421-0.0811-0.8998-0.288-1.3341-0.20693-0.43431-0.51408-0.82765-0.89374-1.087-0.39899-0.5787-0.48342-1.1164-0.39578-1.6295 0.0876-0.51318 0.34664-1.0017 0.6299-1.4828 0.28325-0.48109 0.59255-0.95569 0.78039-1.4382s0.25434-0.97292 0.0557-1.4902c-0.269-0.40214-0.76126-0.64516-1.2579-0.64104zm31.916 0.19324c-0.78916 0.15655-1.1887 0.43497-1.3415 0.78969-0.15286 0.35472-0.059 0.78515 0.13936 1.2468 0.39667 0.92326 1.2116 1.9689 1.3025 2.7723 0.19251 0.51313 0.0849 1.018-0.14493 1.5088-0.22983 0.49071-0.58277 0.96743-0.87702 1.4289-0.29424 0.46144-0.53068 0.90696-0.53141 1.3322-7.4e-4 0.4253 0.2356 0.83104 0.88631 1.2133 0.55884 0.10602 1.0418 7e-3 1.4586-0.22669 0.41683-0.23345 0.76597-0.60105 1.0572-1.035 0.58257-0.8678 0.93189-1.9981 1.1111-2.8336 0.16917-1.1138 0.044-2.312-0.37162-3.3947-0.20783-0.54136-0.48865-1.0544-0.84171-1.5125-0.35306-0.45803-0.77889-0.86111-1.2765-1.1854l-0.28058-0.078zm-26.218 2.4917h20.521v25.248h-20.521zm0.7581 1.0331v23.38h19.004v-23.38zm-0.7581 27.1h8.0548c-0.65811 0.29778-1.044 0.75457-1.2449 1.2821-0.20097 0.52751-0.21688 1.125-0.13379 1.7057 0.16618 1.1614 0.72645 2.2528 0.99036 2.5679-2.3516-0.0468-4.7218 0.0952-7.0607-0.0743-0.25468-0.16283-0.41206-0.3682-0.5054-0.60016-0.0933-0.23196-0.12325-0.4906-0.12635-0.75996-6e-3 -0.53871 0.0978-1.1204 0.026-1.6184zm12.466 0h8.0548c-0.0482 1.6568 0.10022 3.3311-0.0762 4.976-0.3406 0.48701-0.85987 0.59795-1.4233 0.60388-0.56343 6e-3 -1.1719-0.0928-1.6927-0.0241h-4.8626c0.49684-0.32872 0.86985-0.7581 1.1186-1.2375 0.24871-0.47939 0.37324-1.0086 0.37347-1.5385 2.4e-4 -0.52984-0.12302-1.0603-0.37162-1.5404-0.24859-0.48006-0.62265-0.90929-1.1204-1.2393z" fill="#fff" fill-opacity=".91603" opacity="1" style="paint-order:stroke fill markers"/>
</g>
</g>
</g>
</svg>
