<?xml version="1.0" encoding="UTF-8"?>
<!-- Created with Inkscape (http://www.inkscape.org/) -->
<svg width="96px" height="96px" version="1.1" viewBox="0 0 64 64" xmlns="http://www.w3.org/2000/svg" xmlns:cc="http://creativecommons.org/ns#" xmlns:dc="http://purl.org/dc/elements/1.1/" xmlns:rdf="http://www.w3.org/1999/02/22-rdf-syntax-ns#" xmlns:xlink="http://www.w3.org/1999/xlink">
<defs>
<linearGradient id="linearGradient4125">
<stop stop-color="#fff" offset="0"/>
<stop stop-color="#fff" stop-opacity="0" offset="1"/>
</linearGradient>
<linearGradient id="linearGradient3891" x1="6.25" x2="89.75" y1="80.625" y2="80.625" gradientTransform="matrix(1.115 0 0 1.1151 6.5966 1043.4)" gradientUnits="userSpaceOnUse">
<stop stop-color="#fff" stop-opacity="0" offset="0"/>
<stop stop-color="#fff" offset=".15"/>
<stop stop-color="#fff" offset=".85"/>
<stop stop-color="#fff" stop-opacity="0" offset="1"/>
</linearGradient>
<linearGradient id="linearGradient3893" x1="1.1209" x2="95.496" y1="84.063" y2="84.063" gradientTransform="matrix(.99266 0 0 .9812 12.165 1055.3)" gradientUnits="userSpaceOnUse">
<stop stop-color="#fff" stop-opacity=".031373" offset="0"/>
<stop stop-color="#fff" offset=".05"/>
<stop stop-color="#fff" stop-opacity=".023529" offset=".1"/>
<stop stop-color="#fff" stop-opacity=".28058" offset=".5"/>
<stop stop-color="#fefefe" stop-opacity=".015686" offset=".9"/>
<stop stop-color="#fff" offset=".95"/>
<stop stop-color="#fdfdfd" stop-opacity="0" offset="1"/>
</linearGradient>
<linearGradient id="linearGradient3391" x1="44.726" x2="22.635" y1="59.746" y2="34.832" gradientTransform="matrix(.99266 0 0 .9812 11.828 1054.9)" gradientUnits="userSpaceOnUse" xlink:href="#linearGradient4125"/>
<linearGradient id="linearGradient3889" x1="6.076" x2="89.924" y1="47.473" y2="47.473" gradientTransform="matrix(1.115 0 0 1.0365 -5.522 2.796)" gradientUnits="userSpaceOnUse">
<stop stop-color="#d8d8d8" stop-opacity="0" offset="0"/>
<stop stop-color="#fff" offset=".05"/>
<stop stop-color="#d8d8d8" stop-opacity="0" offset=".1"/>
<stop stop-color="#d8d8d8" stop-opacity="0" offset=".5"/>
<stop stop-color="#d8d8d8" stop-opacity="0" offset=".9"/>
<stop stop-color="#fff" offset=".95"/>
<stop stop-color="#d8d8d8" stop-opacity="0" offset="1"/>
</linearGradient>
<radialGradient id="radialGradient3885" cx="44.659" cy="-187.51" r="36.916" gradientTransform="matrix(1.6991 .0043381 -9.9579e-5 .013731 -31.242 -184.99)" gradientUnits="userSpaceOnUse" xlink:href="#linearGradient4125"/>
</defs>
<metadata>
<rdf:RDF>
<cc:Work rdf:about="">
<dc:format>image/svg+xml</dc:format>
<dc:type rdf:resource="http://purl.org/dc/dcmitype/StillImage"/>
<dc:title/>
<cc:license rdf:resource="http://creativecommons.org/licenses/by-sa/4.0/"/>
<dc:date>2017</dc:date>
<dc:creator>
<cc:Agent>
<dc:title>Cristian Pozzessere "ilnanny"</dc:title>
</cc:Agent>
</dc:creator>
<dc:subject>
<rdf:Bag>
<rdf:li>Global language</rdf:li>
</rdf:Bag>
</dc:subject>
<dc:description>Playing with Inkscape on Gnu/Linux O. S.</dc:description>
<dc:contributor>
<cc:Agent>
<dc:title>In the night, alone like a dog.</dc:title>
</cc:Agent>
</dc:contributor>
</cc:Work>
<cc:License rdf:about="http://creativecommons.org/licenses/by-sa/4.0/">
<cc:permits rdf:resource="http://creativecommons.org/ns#Reproduction"/>
<cc:permits rdf:resource="http://creativecommons.org/ns#Distribution"/>
<cc:requires rdf:resource="http://creativecommons.org/ns#Notice"/>
<cc:requires rdf:resource="http://creativecommons.org/ns#Attribution"/>
<cc:permits rdf:resource="http://creativecommons.org/ns#DerivativeWorks"/>
<cc:requires rdf:resource="http://creativecommons.org/ns#ShareAlike"/>
</cc:License>
</rdf:RDF>
</metadata>
<g transform="matrix(.98438 0 0 .96296 -3.1992 -18.562)">
<g transform="matrix(.99515 0 0 1 .64472 -1.0385)">
<g transform="matrix(.68055 0 0 .69231 2.618 20.315)">
<g transform="translate(0 -1026.5)">
<g transform="translate(-12.119 -22.917)">
<path d="m101.26 1049.4h-82.286c-3.7989 0-6.8571 3.0583-6.8571 6.8571v82.286c0 3.7988 3.0583 6.8571 6.8571 6.8571h82.286c3.7989 0 6.8571-3.0583 6.8571-6.8571v-82.286c0-3.7988-3.0583-6.8571-6.8571-6.8571z" enable-background="new" opacity=".15"/>
<path d="m100.83 1049.9h-81.429c-3.7593 0-6.7857 3.0264-6.7857 6.7857v81.429c0 3.7593 3.0264 6.7857 6.7857 6.7857h81.429c3.7593 0 6.7857-3.0264 6.7857-6.7857v-81.429c0-3.7593-3.0264-6.7857-6.7857-6.7857z" enable-background="new" opacity=".25"/>
</g>
</g>
<path d="m88.142 1.1657h-80.283c-3.7064 0-6.6903 2.984-6.6903 6.6906v80.287c0 3.7066 2.9839 6.6906 6.6903 6.6906h80.283c3.7064 0 6.6903-2.984 6.6903-6.6906v-80.287c0-3.7066-2.9839-6.6906-6.6903-6.6906z" enable-background="new" fill="#b7bbbe" stroke="#6d6d6d" stroke-width=".33452"/>
<g transform="matrix(0 -1.0859 1.115 0 -.94838 206.75)" enable-background="new">
<path d="m117.22 6.0979c-3.921 0-7.125 3.204-7.125 7.125v60.562c0 3.921 3.204 7.125 7.125 7.125h61.562c3.921 0 7.125-3.204 7.125-7.125v-60.562c0-3.921-3.204-7.125-7.125-7.125z" color="#000000" enable-background="accumulate" opacity=".13718" style="text-decoration-line:none;text-indent:0;text-transform:none"/>
<path d="m117.22 6.8133c-3.3794 0-6.125 2.7457-6.125 6.125v61.562c0 3.3793 2.7456 6.125 6.125 6.125h61.562c3.3794 0 6.125-2.7457 6.125-6.125v-61.562c0-3.3793-2.7456-6.125-6.125-6.125z" color="#000000" enable-background="accumulate" opacity=".24549" style="text-decoration-line:none;text-indent:0;text-transform:none"/>
<path d="m183.7 12.925c0-2.8428-2.242-5.1189-5.0262-5.1189h-30.722c2.7842 0 5.0262 2.2761 5.0262 5.1189v61.594c0 2.8428-2.242 5.1189-5.0262 5.1189h30.722c2.7842 0 5.0262-2.2761 5.0262-5.1189z" fill="#fdffeb" stroke="#b4b4b4" stroke-width=".4374"/>
<path d="m115.71 79.154v1c0.26183 2.5937 2.46 4.5938 5.125 4.5938h61.562c2.665 0 4.8632-2.0001 5.125-4.5938v-1c-0.26183 2.5937-2.46 4.5938-5.125 4.5938h-61.562c-2.665 0-4.8632-2.0001-5.125-4.5938z" fill="#fff" opacity=".4"/>
<path d="m116.69 7.8133c-2.5937 0.26183-4.5938 2.46-4.5938 5.125v0.46875c0.26183-2.5937 2.46-4.5938 5.125-4.5938h61.562c2.665 0 4.8632 2.0001 5.125 4.5938v-0.46875c0-2.8426-2.2824-5.125-5.125-5.125h-61.562c-0.17767 0-0.35834-0.017455-0.53125 0z" fill="#fff" opacity=".5"/>
<path d="m115.71 8.6425v-1c0.26183-2.5937 2.46-4.5938 5.125-4.5938h61.562c2.665 0 4.8632 2.0001 5.125 4.5938v1c-0.26183-2.5937-2.46-4.5938-5.125-4.5938h-61.562c-2.665 0-4.8632 2.0001-5.125 4.5938z" fill="#fff" opacity=".4"/>
<rect transform="rotate(90)" x="7.7431" y="-187.83" width="73.831" height=".90709" fill="url(#radialGradient3885)" opacity=".42599"/>
<path d="m183.73 12.934c0-2.8428-2.242-5.1189-5.0262-5.1189h-5.4216c2.7842 0 5.0262 2.2761 5.0262 5.1189v61.594c0 2.8428-2.242 5.1189-5.0262 5.1189h5.4216c2.7842 0 5.0262-2.2761 5.0262-5.1189z" fill="#e9ffdb" stroke="#b4b4b4" stroke-width=".4374"/>
<path d="m180.05 12.896c0-2.842-2.242-5.1174-5.0262-5.1174h-5.4216c2.7842 0 5.0262 2.2755 5.0262 5.1174v61.576c0 2.842-2.242 5.1174-5.0262 5.1174h5.4216c2.7842 0 5.0262-2.2755 5.0262-5.1174z" fill="#ffecfe" stroke="#b4b4b4" stroke-width=".43734"/>
<path d="m127.62 73.032v1.4688c0 2.8426 1.789 5.125 4.0171 5.125h48.254c2.2282 0 4.0171-2.2824 4.0171-5.125v-1.4688c-0.20523 2.5937-1.9282 4.5938-4.0171 4.5938h-48.254c-2.0889 0-3.8119-2.0001-4.0171-4.5938z" opacity=".138"/>
<path d="m112.09 13.748v-1.4688c0-2.8426 2.2824-5.125 5.125-5.125h61.562c2.8426 0 5.125 2.2824 5.125 5.125v1.4688c-0.26183-2.5937-2.46-4.5938-5.125-4.5938h-61.562c-2.665 0-4.8632 2.0001-5.125 4.5938z" opacity=".169"/>
</g>
<path d="m1.411 83.85c0 2.6997 3.0408 4.8731 6.8179 4.8731h79.542c3.7771 0 6.8179-2.1734 6.8179-4.8731v-50.355c0-2.6997-3.0408-4.8731-6.8179-4.8731h-43.393l-4.6873-5.5838c-1.1519-1.5193-3.4044-2.5381-6.0012-2.5381h-25.461c-3.7771 0-6.8179 2.1734-6.8179 4.8731z" enable-background="new" fill="#b7bbbe" stroke="#6d6d6d" stroke-width=".29432"/>
<g>
<g transform="matrix(1 0 0 .93315 0 6.3272)">
<g transform="translate(-11.94 -1049.6)">
<path d="m13.566 1129v2.2302c0 3.4905 3.0556 6.2725 6.8296 6.2725h79.447c3.774 0 6.8296-2.782 6.8296-6.2725v-2.2302c0 3.4905-3.0556 6.2724-6.8296 6.2724h-79.447c-3.774 0-6.8296-2.7819-6.8296-6.2724z" enable-background="new" fill="url(#linearGradient3891)" opacity=".83103"/>
<path d="m18.476 1132.6h83.286" enable-background="new" fill="none" opacity=".375" stroke="#000" stroke-width="1.7273px"/>
<path d="m18.476 1131.8h83.286" enable-background="new" fill="none" opacity=".435" stroke="#fff" stroke-width="1.7273px"/>
<path d="m18.476 1128.5h83.286" enable-background="new" fill="none" opacity=".375" stroke="#000" stroke-width="1.7273px"/>
<path d="m18.476 1127.7h83.286" enable-background="new" fill="none" opacity=".435" stroke="#fff" stroke-width="1.7273px"/>
<path d="m13.277 1131.4v6.2378c0 3.6782 2.9941 6.6333 6.7005 6.6333h80.281c3.7064 0 6.7004-2.9551 6.7004-6.6333v-6.2378c0 3.6782-2.994 6.6637-6.7004 6.6637h-80.281c-3.7064 0-6.7005-2.9855-6.7005-6.6637z" enable-background="new" opacity=".3"/>
<path d="m13.277 1131.4v6.2378c0 3.6782 2.9941 6.6333 6.7005 6.6333h80.281c3.7064 0 6.7004-2.9551 6.7004-6.6333v-6.2378c0 3.6782-2.994 6.6637-6.7004 6.6637h-80.281c-3.7064 0-6.7005-2.9855-6.7005-6.6637z" enable-background="new" fill="url(#linearGradient3893)" opacity=".95052"/>
<path d="m13.193 1132.3c0 2.895 3.0408 5.2256 6.8179 5.2256 49.601-40.026 39.172-32.106 79.542-64.449h-43.393l-4.6873-5.9877c-1.1519-1.6292-3.4044-2.7216-6.0012-2.7216h-25.461c-3.7771 0-6.8179 2.3306-6.8179 5.2256z" enable-background="new" fill="url(#linearGradient3391)" opacity=".332"/>
</g>
<path d="m1.411 83.354c0 2.895 3.0408 5.2256 6.8179 5.2256h79.542c3.7771 0 6.8179-2.3306 6.8179-5.2256v-53.998c0-2.895-3.0408-5.2257-6.8179-5.2257h-43.393l-4.6873-5.9876c-1.1519-1.6292-3.4044-2.7217-6.0012-2.7217h-25.461c-3.7771 0-6.8179 2.3306-6.8179 5.2256z" enable-background="new" fill="url(#linearGradient3889)" opacity=".381"/>
</g>
</g>
<g transform="matrix(.087523 0 0 .087523 3.1882 9.4043)" fill="none" opacity=".952" stroke="#000" stroke-opacity=".15686" stroke-width="22.851">
<path d="m525.64 544.35c1.184-21.327 11.644-40.142 27.396-53.476 15.479-13.102 36.282-21.098 58.996-21.098 22.707 0 43.51 7.996 58.989 21.098 15.755 13.334 26.215 32.145 27.412 53.468 1.201 21.942-7.603 42.328-23.067 57.422-15.762 15.378-38.215 25.03-63.331 25.03-25.123 0-47.586-9.652-63.348-25.03-15.469-15.087-24.265-35.477-23.047-57.414z"/>
<path d="m388.02 587.54c0.142 8.331 2.83 24.549 6.814 37.262 8.4 26.813 22.64 51.652 42.482 73.545 20.347 22.461 45.364 40.536 74.299 53.352 30.433 13.472 63.384 20.362 97.578 20.299s67.146-7.063 97.567-20.635c28.91-12.938 53.928-31.057 74.265-53.585 19.799-21.974 34.018-46.851 42.429-73.689 4.246-13.567 6.896-27.312 7.983-41.127 1.06-13.596 0.607-27.234-1.321-40.841-3.762-26.534-12.95-51.427-27.066-74.134-12.953-20.847-29.609-39.104-49.412-54.476l0.031-0.028-199.9-153.55c-0.173-0.134-0.336-0.275-0.509-0.413-13.147-10.056-35.205-10.023-49.617 0.074-14.604 10.204-16.243 27.072-3.278 37.746l-0.05 0.031 83.382 67.828-254.17 0.272c-0.117 0-0.233-4e-3 -0.347-4e-3 -21.004 0.014-41.182 13.825-45.201 31.229-4.073 17.759 10.194 32.478 32.019 32.559l-0.015 0.074 128.81-0.247-229.89 176.49c-0.29 0.22-0.594 0.432-0.883 0.657-21.654 16.606-28.677 44.233-15.034 61.715 13.879 17.783 43.34 17.794 65.266 0.082l125.45-102.68c0 1e-3 -1.819 13.869-1.682 22.204zm322.38 46.395c-25.854 26.372-62.014 41.3-101.2 41.363-39.2 0.081-75.383-14.733-101.24-41.035-12.636-12.829-21.919-27.545-27.646-43.274-5.609-15.434-7.785-31.793-6.354-48.32 1.398-16.176 6.171-31.566 13.872-45.523 7.545-13.708 17.931-26.09 30.754-36.572 25.13-20.496 57.1-31.569 90.587-31.612 33.485-0.049 65.458 10.939 90.581 31.354 12.813 10.426 23.19 22.769 30.743 36.449 7.697 13.935 12.474 29.305 13.879 45.487 1.431 16.51-0.745 32.883-6.352 48.327-5.722 15.736-14.999 30.481-27.62 43.356z"/>
</g>
<g transform="matrix(.087523 0 0 .087523 3.1882 9.4043)" fill="#fff" fill-opacity=".9542" opacity=".952">
<path d="m525.64 544.35c1.184-21.327 11.644-40.142 27.396-53.476 15.479-13.102 36.282-21.098 58.996-21.098 22.707 0 43.51 7.996 58.989 21.098 15.755 13.334 26.215 32.145 27.412 53.468 1.201 21.942-7.603 42.328-23.067 57.422-15.762 15.378-38.215 25.03-63.331 25.03-25.123 0-47.586-9.652-63.348-25.03-15.469-15.087-24.265-35.477-23.047-57.414z"/>
<path d="m388.02 587.54c0.142 8.331 2.83 24.549 6.814 37.262 8.4 26.813 22.64 51.652 42.482 73.545 20.347 22.461 45.364 40.536 74.299 53.352 30.433 13.472 63.384 20.362 97.578 20.299s67.146-7.063 97.567-20.635c28.91-12.938 53.928-31.057 74.265-53.585 19.799-21.974 34.018-46.851 42.429-73.689 4.246-13.567 6.896-27.312 7.983-41.127 1.06-13.596 0.607-27.234-1.321-40.841-3.762-26.534-12.95-51.427-27.066-74.134-12.953-20.847-29.609-39.104-49.412-54.476l0.031-0.028-199.9-153.55c-0.173-0.134-0.336-0.275-0.509-0.413-13.147-10.056-35.205-10.023-49.617 0.074-14.604 10.204-16.243 27.072-3.278 37.746l-0.05 0.031 83.382 67.828-254.17 0.272c-0.117 0-0.233-4e-3 -0.347-4e-3 -21.004 0.014-41.182 13.825-45.201 31.229-4.073 17.759 10.194 32.478 32.019 32.559l-0.015 0.074 128.81-0.247-229.89 176.49c-0.29 0.22-0.594 0.432-0.883 0.657-21.654 16.606-28.677 44.233-15.034 61.715 13.879 17.783 43.34 17.794 65.266 0.082l125.45-102.68c0 1e-3 -1.819 13.869-1.682 22.204zm322.38 46.395c-25.854 26.372-62.014 41.3-101.2 41.363-39.2 0.081-75.383-14.733-101.24-41.035-12.636-12.829-21.919-27.545-27.646-43.274-5.609-15.434-7.785-31.793-6.354-48.32 1.398-16.176 6.171-31.566 13.872-45.523 7.545-13.708 17.931-26.09 30.754-36.572 25.13-20.496 57.1-31.569 90.587-31.612 33.485-0.049 65.458 10.939 90.581 31.354 12.813 10.426 23.19 22.769 30.743 36.449 7.697 13.935 12.474 29.305 13.879 45.487 1.431 16.51-0.745 32.883-6.352 48.327-5.722 15.736-14.999 30.481-27.62 43.356z"/>
</g>
</g>
</g>
</g>
</svg>
