<?xml version="1.0" encoding="UTF-8"?>
<svg version="1.1" viewBox="0 0 32 32" xmlns="http://www.w3.org/2000/svg" xmlns:cc="http://creativecommons.org/ns#" xmlns:dc="http://purl.org/dc/elements/1.1/" xmlns:rdf="http://www.w3.org/1999/02/22-rdf-syntax-ns#" xmlns:xlink="http://www.w3.org/1999/xlink">
<title>Part of Lila HD icon Theme</title>
<metadata>
<rdf:RDF>
<cc:Work rdf:about="">
<dc:format>image/svg+xml</dc:format>
<dc:type rdf:resource="http://purl.org/dc/dcmitype/StillImage"/>
<dc:title>Part of Lila HD icon Theme</dc:title>
<dc:date>2017</dc:date>
<dc:creator>
<cc:Agent>
<dc:title>Cristian Pozzessere ilnanny</dc:title>
</cc:Agent>
</dc:creator>
<dc:subject>
<rdf:Bag>
<rdf:li>All</rdf:li>
</rdf:Bag>
</dc:subject>
<dc:description>a icon theme for gnu linux o.s.</dc:description>
<cc:license rdf:resource="http://creativecommons.org/licenses/by-sa/4.0/"/>
</cc:Work>
<cc:License rdf:about="http://creativecommons.org/licenses/by-sa/4.0/">
<cc:permits rdf:resource="http://creativecommons.org/ns#Reproduction"/>
<cc:permits rdf:resource="http://creativecommons.org/ns#Distribution"/>
<cc:requires rdf:resource="http://creativecommons.org/ns#Notice"/>
<cc:requires rdf:resource="http://creativecommons.org/ns#Attribution"/>
<cc:permits rdf:resource="http://creativecommons.org/ns#DerivativeWorks"/>
<cc:requires rdf:resource="http://creativecommons.org/ns#ShareAlike"/>
</cc:License>
</rdf:RDF>
</metadata>
<defs>
<linearGradient id="linearGradient3737">
<stop stop-color="#fff" offset="0"/>
<stop stop-color="#fff" stop-opacity="0" offset="1"/>
</linearGradient>
<linearGradient id="linearGradient4740" x1="45.448" x2="45.448" y1="92.54" y2="7.0165" gradientTransform="scale(1.0059 .99417)" gradientUnits="userSpaceOnUse" xlink:href="#ButtonShadow"/>
<linearGradient id="ButtonShadow" x1="45.448" x2="45.448" y1="92.54" y2="7.0165" gradientTransform="scale(1.0059 .99417)" gradientUnits="userSpaceOnUse">
<stop offset="0"/>
<stop stop-opacity=".58824" offset="1"/>
</linearGradient>
<filter id="filter3174-3-13" color-interpolation-filters="sRGB">
<feGaussianBlur stdDeviation="1.71"/>
</filter>
<filter id="filter3174-53" color-interpolation-filters="sRGB">
<feGaussianBlur stdDeviation="1.71"/>
</filter>
<filter id="filter3174" color-interpolation-filters="sRGB">
<feGaussianBlur stdDeviation="1.71"/>
</filter>
<linearGradient id="linearGradient4071" x1="6" x2="90" y1="47" y2="47" gradientTransform="matrix(.35751 0 0 .35751 -1.5118 -.88817)" gradientUnits="userSpaceOnUse">
<stop stop-color="#b2babc" offset="0"/>
<stop stop-color="#fff" offset=".25"/>
<stop stop-color="#96a1a4" offset=".5"/>
<stop stop-color="#fbf9f9" offset=".75"/>
<stop stop-color="#b2b9bc" offset="1"/>
</linearGradient>
<linearGradient id="linearGradient4129" x1="1.5" x2="94.5" y1="88.172" y2="88.172" gradientTransform="matrix(.32292 0 0 .32292 .14896 .41503)" gradientUnits="userSpaceOnUse">
<stop offset="0"/>
<stop stop-opacity=".58824" offset=".1"/>
<stop stop-opacity=".58824" offset=".9"/>
<stop offset="1"/>
</linearGradient>
<radialGradient id="radialGradient7462" cx="13.948" cy="44.893" r="43.199" gradientTransform="matrix(.31489 0 0 .015884 11.095 26.302)" gradientUnits="userSpaceOnUse" xlink:href="#linearGradient3737"/>
<radialGradient id="radialGradient7464" cx="13.948" cy="44.893" r="43.199" gradientTransform="matrix(.28686 0 0 .015884 10.601 -29.266)" gradientUnits="userSpaceOnUse" xlink:href="#linearGradient3737"/>
<linearGradient id="linearGradient4767" x1="2.7714" x2="50.528" y1="-28.642" y2="14.514" gradientUnits="userSpaceOnUse" xlink:href="#linearGradient3737"/>
<clipPath id="clipPath4156-4-1">
<path d="m27.046-55.695-14.214 13.321h0.06127l15.653 21.771 10.231-10.546c-0.2169-1.1522-11.311-23.67-11.732-24.546zm-17.399 16.313-14.888 14.062 21.229 17.515 10.385-10.577zm31.491 12.951-9.7413 9.7136 8.9448 12.458 7.7808-7.555zm-49.84 4.3788-13.754 12.982 26.283 13.846 0.06127-0.0617-0.12253-0.0617 9.8332-10.053-22.301-16.652zm38.015 7.4008-9.8025 9.7753 11.579 9.5594 7.6276-7.4008-8.6691-11.009zm20.187 5.674-7.3825 7.2158 6.1878 8.5418 5.8202-6.1365zm-32.195 6.3215-9.5575 9.4977 13.662 7.185 7.9339-7.6784zm23.312 2.3744-7.1068 6.9383 8.3628 6.9074 5.3608-5.674-0.06127-0.0925-0.0919 0.12335-6.4635-8.2026zm-8.7304 8.5418-7.5051 7.3392 10.354 5.4581c1.3975-1.321 5.6751-6.1229 5.8509-6.3215z" fill="#fff" opacity=".6"/>
</clipPath>
</defs>
<g transform="translate(0 -6)">
<g transform="translate(-1e-6,32)">
<g transform="translate(-8.044 -17.334)">
<g transform="translate(251.29 -104.9)">
<g display="none">
<rect x="5" y="7" width="86" height="85" rx="6" ry="6" fill="url(#linearGradient4740)" filter="url(#filter3174-3-13)" opacity=".9"/>
</g>
</g>
<g transform="translate(0 6)">
<g transform="translate(7.895 -15.081)">
<g transform="translate(.5 .5)">
<path d="m28.935 0.41503h-26.571c-1.2267 0-2.2143 0.98757-2.2143 2.2143v26.571c0 1.2267 0.98757 2.2143 2.2143 2.2143h26.571c1.2267 0 2.2143-0.98757 2.2143-2.2143v-26.571c0-1.2267-0.98757-2.2143-2.2143-2.2143z" opacity=".15"/>
<path d="m28.727 0.65721h-26.156c-1.2075 0-2.1797 0.97214-2.1797 2.1797v26.156c0 1.2075 0.97214 2.1797 2.1797 2.1797h26.156c1.2075 0 2.1797-0.97214 2.1797-2.1797v-26.156c0-1.2075-0.97214-2.1797-2.1797-2.1797z" opacity=".15"/>
<path d="m28.519 0.8994h-25.741c-1.1884 0-2.1451 0.95671-2.1451 2.1451v25.741c0 1.1884 0.95671 2.1451 2.1451 2.1451h25.741c1.1884 0 2.1451-0.95671 2.1451-2.1451v-25.741c0-1.1884-0.95671-2.1451-2.1451-2.1451z" fill="url(#linearGradient4071)"/>
<path d="m3.779 2.4775c-0.92241 0-1.6547 0.73896-1.6547 1.6698v22.146c0.35432 0.54395 0.95869 0.90796 1.6547 0.90796h23.827c0.69598 0 1.3003-0.36401 1.6547-0.90796v-22.146c0-0.93085-0.73226-1.6698-1.6547-1.6698z" fill="#ebf1f9" opacity=".77865"/>
<path d="m3.3216 1.9422c-1.0064 0-1.8303 0.82005-1.8303 1.8232v22.371c0 1.0031 0.82387 1.8232 1.8303 1.8232h24.797c1.0064 0 1.8303-0.82005 1.8303-1.8232v-22.371c0-1.0031-0.82387-1.8232-1.8303-1.8232zm0 0.74899h24.797c0.6097 0 1.0824 0.47795 1.0824 1.0742v22.371c0 0.59626-0.47272 1.0742-1.0824 1.0742h-24.797c-0.6097 0-1.0824-0.47795-1.0824-1.0742v-22.371c0-0.59626 0.47273-1.0742 1.0824-1.0742z" color="#000000" fill="#241f1f" fill-opacity=".63265" style="text-decoration-line:none;text-indent:0;text-transform:none"/>
<path d="m0.63333 26.844v1.9375c0 1.1884 0.96103 2.1494 2.1494 2.1494h25.732c1.1884 0 2.1494-0.96104 2.1494-2.1494v-1.9375c0 1.1884-0.96104 2.1494-2.1494 2.1494h-25.732c-1.1884 0-2.1494-0.96104-2.1494-2.1494z" fill="url(#linearGradient4129)" opacity=".65818"/>
<rect x="1.8846" y="26.329" width="27.206" height="1.3724" rx="0" ry="1.3724" fill="url(#radialGradient7462)" opacity=".55"/>
<rect transform="rotate(90)" x="2.2104" y="-29.239" width="24.784" height="1.3724" rx="0" ry="1.3724" fill="url(#radialGradient7464)" opacity=".669"/>
<g transform="matrix(.32292 0 0 .32292 54.103 1.4553)">
<path d="m-130.92 10.13 0.01 0.01c-0.57513 0.02511-0.91417 0.65549-0.61782 1.1477l2.3783 4.0912c-4.704 2.8179-7.5067 7.4239-7.5092 12.341h35.16c-0.0101-4.9149-2.8153-9.5184-7.5193-12.331l2.3884-4.1012c0.29886-0.50229-0.0578-1.1402-0.64293-1.1477-0.27877-5e-3 -0.53494 0.14566-0.67307 0.38676l-2.4085 4.1339c-2.6546-1.311-5.6734-2.0192-8.7374-2.0217-3.064-0.0025-6.0752 0.70321-8.7323 2.0117l-2.4035-4.1339c-0.14064-0.25114-0.40937-0.39932-0.69567-0.38676zm3.0464 10.046c0.69316 0 1.2557 0.56256 1.2557 1.2557 0 0.69316-0.56257 1.2557-1.2557 1.2557s-1.2557-0.56256-1.2557-1.2557c0-0.69316 0.56256-1.2557 1.2557-1.2557zm17.58 0c0.69316 0 1.2557 0.56256 1.2557 1.2557 0 0.69316-0.56257 1.2557-1.2557 1.2557s-1.2557-0.56256-1.2557-1.2557c0-0.69316 0.56257-1.2557 1.2557-1.2557zm-32.649 10.046c-2.087 0-3.7672 1.6802-3.7672 3.7672v17.58c0 2.087 1.6802 3.7672 3.7672 3.7672s3.7672-1.6802 3.7672-3.7672v-17.58c0-2.087-1.6802-3.7672-3.7672-3.7672zm6.2786 0v27.626c0 2.7827 2.2402 5.0229 5.0229 5.0229h2.5115v8.7901c0 2.087 1.6802 3.7672 3.7672 3.7672s3.7672-1.6802 3.7672-3.7672v-8.7901h5.0229v8.7901c0 2.087 1.6802 3.7672 3.7672 3.7672 2.087 0 3.7672-1.6802 3.7672-3.7672v-8.7901h2.5114c2.7827 0 5.0229-2.2402 5.0229-5.0229v-27.626zm41.439 0c-2.087 0-3.7672 1.6802-3.7672 3.7672v17.58c0 2.087 1.6802 3.7672 3.7672 3.7672s3.7672-1.6802 3.7672-3.7672v-17.58c0-2.087-1.6802-3.7672-3.7672-3.7672z" fill="none" stroke="#000" stroke-opacity=".1617" stroke-width="3"/>
<path d="m-130.92 10.13 0.01 0.01c-0.57513 0.02511-0.91417 0.65549-0.61782 1.1477l2.3783 4.0912c-4.704 2.8179-7.5067 7.4239-7.5092 12.341h35.16c-0.0101-4.9149-2.8153-9.5184-7.5193-12.331l2.3884-4.1012c0.29886-0.50229-0.0578-1.1402-0.64293-1.1477-0.27877-5e-3 -0.53494 0.14566-0.67307 0.38676l-2.4085 4.1339c-2.6546-1.311-5.6734-2.0192-8.7374-2.0217-3.064-0.0025-6.0752 0.70321-8.7323 2.0117l-2.4035-4.1339c-0.14064-0.25114-0.40937-0.39932-0.69567-0.38676zm3.0464 10.046c0.69316 0 1.2557 0.56256 1.2557 1.2557 0 0.69316-0.56257 1.2557-1.2557 1.2557s-1.2557-0.56256-1.2557-1.2557c0-0.69316 0.56256-1.2557 1.2557-1.2557zm17.58 0c0.69316 0 1.2557 0.56256 1.2557 1.2557 0 0.69316-0.56257 1.2557-1.2557 1.2557s-1.2557-0.56256-1.2557-1.2557c0-0.69316 0.56257-1.2557 1.2557-1.2557zm-32.649 10.046c-2.087 0-3.7672 1.6802-3.7672 3.7672v17.58c0 2.087 1.6802 3.7672 3.7672 3.7672s3.7672-1.6802 3.7672-3.7672v-17.58c0-2.087-1.6802-3.7672-3.7672-3.7672zm6.2786 0v27.626c0 2.7827 2.2402 5.0229 5.0229 5.0229h2.5115v8.7901c0 2.087 1.6802 3.7672 3.7672 3.7672s3.7672-1.6802 3.7672-3.7672v-8.7901h5.0229v8.7901c0 2.087 1.6802 3.7672 3.7672 3.7672 2.087 0 3.7672-1.6802 3.7672-3.7672v-8.7901h2.5114c2.7827 0 5.0229-2.2402 5.0229-5.0229v-27.626zm41.439 0c-2.087 0-3.7672 1.6802-3.7672 3.7672v17.58c0 2.087 1.6802 3.7672 3.7672 3.7672s3.7672-1.6802 3.7672-3.7672v-17.58c0-2.087-1.6802-3.7672-3.7672-3.7672z" fill="#0c0"/>
</g>
<rect transform="matrix(.34528 0 0 .33831 1.536 12.841)" x="2" y="-30" width="75.966" height="69.024" rx="3.957" ry="3.957" clip-path="url(#clipPath4156-4-1)" fill="url(#linearGradient4767)" opacity=".50781"/>
</g>
</g>
</g>
</g>
</g>
<g display="none">
<rect x="5" y="7" width="86" height="85" rx="6" ry="6" fill="url(#linearGradient4740)" filter="url(#filter3174-53)" opacity=".9"/>
</g>
<g display="none">
<rect x="5" y="7" width="86" height="85" rx="6" ry="6" fill="url(#linearGradient4740)" filter="url(#filter3174)" opacity=".9"/>
</g>
</g>
<g transform="translate(0 42)">
<!-- color: #eeeeee --></g>
<g transform="translate(0,48)">
<g transform="translate(1,1)">
<g opacity=".1">
<!-- color: #87b23e --></g>
</g>
<!-- color: #87b23e -->
</g>
</svg>
