<?xml version="1.0" encoding="UTF-8"?>
<svg version="1.0" viewBox="0 0 32 32" xmlns="http://www.w3.org/2000/svg" xmlns:cc="http://creativecommons.org/ns#" xmlns:dc="http://purl.org/dc/elements/1.1/" xmlns:rdf="http://www.w3.org/1999/02/22-rdf-syntax-ns#" xmlns:xlink="http://www.w3.org/1999/xlink">
<defs>
<linearGradient id="linearGradient3186">
<stop stop-opacity=".66087" offset="0"/>
<stop stop-opacity="0" offset=".5"/>
<stop stop-opacity=".66957" offset="1"/>
</linearGradient>
<linearGradient id="linearGradient4071" x1="6" x2="90" y1="47" y2="47" gradientTransform="matrix(1.1071 0 0 1.1071 2.9011 -18.701)" gradientUnits="userSpaceOnUse">
<stop stop-color="#bbc3cc" offset="0"/>
<stop stop-color="#fff" offset=".25"/>
<stop stop-color="#a4b1b9" offset=".5"/>
<stop stop-color="#fbf9f9" offset=".75"/>
<stop stop-color="#c0c8cf" offset="1"/>
</linearGradient>
<radialGradient id="radialGradient7430-4" cx="48" cy="-27" r="42" gradientTransform="matrix(-1.187 0 0 -.96877 113.02 -39.322)" gradientUnits="userSpaceOnUse">
<stop stop-color="#fff" offset="0"/>
<stop stop-color="#fff" offset=".8"/>
<stop stop-color="#fff" stop-opacity="0" offset="1"/>
</radialGradient>
<linearGradient id="linearGradient4129" x1="1.5" x2="94.5" y1="88.172" y2="88.172" gradientTransform="translate(8.044 -14.666)" gradientUnits="userSpaceOnUse">
<stop offset="0"/>
<stop stop-opacity=".58824" offset=".1"/>
<stop stop-opacity=".58824" offset=".9"/>
<stop offset="1"/>
</linearGradient>
<radialGradient id="radialGradient7462-1" cx="13.948" cy="44.893" r="43.199" gradientTransform="matrix(.97513 0 0 .049191 41.943 65.501)" gradientUnits="userSpaceOnUse" xlink:href="#linearGradient3737"/>
<linearGradient id="linearGradient3737">
<stop stop-color="#fff" offset="0"/>
<stop stop-color="#fff" stop-opacity="0" offset="1"/>
</linearGradient>
<radialGradient id="radialGradient7464-8" cx="13.948" cy="44.893" r="43.199" gradientTransform="matrix(.88833 0 0 .049191 16.069 -98.752)" gradientUnits="userSpaceOnUse" xlink:href="#linearGradient3737"/>
<linearGradient id="linearGradient4740" x1="45.448" x2="45.448" y1="92.54" y2="7.0165" gradientTransform="scale(1.0059 .99417)" gradientUnits="userSpaceOnUse" xlink:href="#ButtonShadow"/>
<linearGradient id="ButtonShadow" x1="45.448" x2="45.448" y1="92.54" y2="7.0165" gradientTransform="scale(1.0059 .99417)" gradientUnits="userSpaceOnUse">
<stop offset="0"/>
<stop stop-opacity=".58824" offset="1"/>
</linearGradient>
<filter id="filter3174-3-13" color-interpolation-filters="sRGB">
<feGaussianBlur stdDeviation="1.71"/>
</filter>
<linearGradient id="linearGradient4767" x1="2" x2="50.528" y1="-30" y2="14.514" gradientUnits="userSpaceOnUse" xlink:href="#linearGradient3737"/>
<clipPath id="clipPath4156-4-2">
<path d="m27.046-55.695-14.214 13.321h0.06127l15.653 21.771 10.231-10.546c-0.2169-1.1522-11.311-23.67-11.732-24.546zm-17.399 16.313-14.888 14.062 21.229 17.515 10.385-10.577zm31.491 12.951-9.7413 9.7136 8.9448 12.458 7.7808-7.555zm-49.84 4.3788-13.754 12.982 26.283 13.846 0.06127-0.0617-0.12253-0.0617 9.8332-10.053-22.301-16.652zm38.015 7.4008-9.8025 9.7753 11.579 9.5594 7.6276-7.4008-8.6691-11.009zm20.187 5.674-7.3825 7.2158 6.1878 8.5418 5.8202-6.1365zm-32.195 6.3215-9.5575 9.4977 13.662 7.185 7.9339-7.6784zm23.312 2.3744-7.1068 6.9383 8.3628 6.9074 5.3608-5.674-0.06127-0.0925-0.0919 0.12335-6.4635-8.2026zm-8.7304 8.5418-7.5051 7.3392 10.354 5.4581c1.3975-1.321 5.6751-6.1229 5.8509-6.3215z" fill="#fff" opacity=".6"/>
</clipPath>
<filter id="filter3174-53" color-interpolation-filters="sRGB">
<feGaussianBlur stdDeviation="1.71"/>
</filter>
<filter id="filter3174" color-interpolation-filters="sRGB">
<feGaussianBlur stdDeviation="1.71"/>
</filter>
<linearGradient id="linearGradient3177" x1="19.065" x2="23.078" y1="22.745" y2="26.758" gradientTransform="matrix(1.9617 0 0 1.9613 7.9324 -18.874)" gradientUnits="userSpaceOnUse">
<stop stop-opacity=".46087" offset="0"/>
<stop stop-opacity="0" offset=".49061"/>
<stop stop-opacity="0" offset=".60075"/>
<stop stop-opacity=".58824" offset="1"/>
</linearGradient>
<linearGradient id="linearGradient3891" x1="25.182" x2="45.272" y1="13.174" y2="13.174" gradientTransform="matrix(1.7006 0 0 1.7006 9.4495 -12.467)" gradientUnits="userSpaceOnUse">
<stop stop-color="#0ff" offset="0"/>
<stop stop-color="#005bff" offset="1"/>
</linearGradient>
<linearGradient id="linearGradient3183" x1="24.033" x2="32.349" y1="13.223" y2="21.888" gradientTransform="matrix(1.9617 0 0 1.9613 7.9324 -18.874)" gradientUnits="userSpaceOnUse" xlink:href="#linearGradient3186"/>
<linearGradient id="linearGradient3202" x1="32.271" x2="39.818" y1="5.7531" y2="12.972" gradientTransform="matrix(1.814 0 0 1.814 9.4495 -12.467)" gradientUnits="userSpaceOnUse" xlink:href="#linearGradient3186"/>
<radialGradient id="radialGradient31942" cx="12.184" cy="42.11" r="3.5744" gradientTransform="matrix(1.7006 0 0 2.6857 9.4495 -52.866)" gradientUnits="userSpaceOnUse">
<stop stop-color="#32e647" offset="0"/>
<stop stop-color="#20e437" offset="1"/>
</radialGradient>
</defs>
<metadata>
<rdf:RDF>
<cc:Work rdf:about="">
<dc:format>image/svg+xml</dc:format>
<dc:type rdf:resource="http://purl.org/dc/dcmitype/StillImage"/>
<dc:title/>
<dc:date>2017</dc:date>
<dc:creator>
<cc:Agent>
<dc:title>Cristian Pozzessere "ilnanny"</dc:title>
</cc:Agent>
</dc:creator>
<dc:subject>
<rdf:Bag>
<rdf:li>Global language</rdf:li>
</rdf:Bag>
</dc:subject>
<dc:description>Playing with Inkscape on Gnu/Linux O. S.</dc:description>
<dc:contributor>
<cc:Agent>
<dc:title>In the night, alone like a dog.</dc:title>
</cc:Agent>
</dc:contributor>
</cc:Work>
</rdf:RDF>
</metadata>
<g transform="translate(0 44.8)">
<g transform="translate(0 -44.8)">
<g transform="translate(0 -6)">
<g transform="translate(-1e-6,32)">
<g transform="translate(-8.044 -17.334)">
<g transform="translate(251.29 -104.9)">
<g display="none">
<rect x="5" y="7" width="86" height="85" rx="6" ry="6" fill="url(#linearGradient4740)" filter="url(#filter3174-3-13)" opacity=".9"/>
</g>
</g>
<g transform="translate(0 6)">
<g transform="matrix(.32292 0 0 .32292 5.9464 -9.4298)">
<path d="m97.187-14.666h-82.286c-3.7988 0-6.8571 3.0583-6.8571 6.8571v82.286c0 3.7989 3.0583 6.8571 6.8571 6.8571h82.286c3.7989 0 6.8571-3.0583 6.8571-6.8571v-82.286c0-3.7989-3.0583-6.8571-6.8571-6.8571z" opacity=".15"/>
<path d="m96.544-13.916h-81c-3.7395 0-6.75 3.0105-6.75 6.75v81c0 3.7395 3.0105 6.75 6.75 6.75h81c3.7395 0 6.75-3.0105 6.75-6.75v-81c0-3.7395-3.0105-6.75-6.75-6.75z" opacity=".15"/>
<path d="m95.901-13.166h-79.714c-3.6801 0-6.6429 2.9627-6.6429 6.6429v79.714c0 3.6801 2.9627 6.6429 6.6429 6.6429h79.714c3.6801 0 6.6429-2.9627 6.6429-6.6429v-79.714c0-3.6801-2.9627-6.6429-6.6429-6.6429z" fill="url(#linearGradient4071)"/>
<rect transform="translate(8.044 -14.666)" x="5.7927" y="6.2128" width="84.846" height="77.52" ry="4.25" fill="#e9e6e8" stroke="#fff" stroke-linecap="round" stroke-linejoin="round" stroke-width=".4"/>
<path d="m42.384 29.255c-4.3502 4.1722-8.1979 7.9473-8.6164 8.7864-1.1607 2.3272-0.23002 4.7755-2.7776 9.9768 5.4641-2.4933 8.1453-1.4953 10.147-2.6076 1.3026-0.72384 9.5209-9.0477 16.439-16.156z" fill="#f60" fill-rule="evenodd"/>
<path d="m59.293 13.36s-24.402 22.385-25.539 24.663c-1.1607 2.3272-0.20937 4.8089-2.757 10.01 5.4641-2.4933 8.1558-1.4991 10.157-2.6114 2.0491-1.1386 24.958-24.953 24.958-24.953z" fill="url(#linearGradient3177)" fill-rule="evenodd" opacity=".586" stroke="#2a4250" stroke-linejoin="round" stroke-width=".90642"/>
<path d="m70.828 26.2 2.4668-2.4663-2.6681-7.5615s-0.13562-1.0191 1.1395-1.1004c6.8491-0.43635 13.867-8.5199 14.206-14.023 0.29469-4.7919-4.3645-7.8721-8.5912-7.5388-4.2208 0.33288-11.164 5.9619-12.895 13.062-0.25014 1.0259-1.2036 1.2035-1.2036 1.2035l-8.0036-2.1441-2.3668 2.3663z" fill="url(#linearGradient3891)" fill-rule="evenodd" stroke="#818181" stroke-width=".90642"/>
<path d="m30.847 48.734c-3.1101 5.689-11.279 17.785 2e-6 17.687 11.104-0.09659 2.2112-12.203-2e-6 -17.687z" fill="url(#radialGradient31942)" fill-rule="evenodd" stroke="#3e5564" stroke-width=".90698"/>
<path d="m30.845 52.237c-1.843 3.1172-5.3572 9.9168-3.8394 11.02l1.3624 0.9906z" fill="#fff" fill-rule="evenodd" opacity=".8"/>
<path d="m70.828 26.2 2.4668-2.4663-2.6681-7.5615c-3.6092-3.5867-4.2363-3.508-7.3441-8.3968l-8.0036-2.1441-2.3668 2.3663z" fill="url(#linearGradient3183)" fill-rule="evenodd" opacity=".961"/>
<path d="m70.627 16.172s-0.13562-1.0191 1.1395-1.1004c6.8491-0.43635 13.867-8.5199 14.206-14.023 0.29469-4.7919-4.3645-7.8721-8.5912-7.5388-4.2208 0.33288-11.164 5.9619-12.895 13.062-0.25014 1.0259-1.2036 1.2035-1.2036 1.2035 1.7696 2.9346 4.0661 5.7639 7.3441 8.3968z" fill="url(#linearGradient3202)" fill-rule="evenodd" opacity=".948"/>
<path d="m81.85-4.6696c-3.4628-1.8265-7.1548-0.9081-11.299 2.7514-4.1438 3.6595-5.5644 7.8264-5.2896 10.319 4.2294-6.3823 9.2713-11.767 16.588-13.071z" fill="#fff" fill-rule="evenodd" opacity=".8"/>
<path d="m58.334 15.688-22.945 21.611v2.6267l23.47-21.786z" fill="#fff" fill-rule="evenodd" opacity=".8"/>
<path d="m16.187-13.166c-3.6801 0-6.6429 2.9627-6.6429 6.6429v16.607h1.1071v-16.607c0-3.0859 2.4498-5.5357 5.5357-5.5357h79.714c3.0859 0 5.5357 2.4498 5.5357 5.5357v16.607h1.1071v-16.607c0-3.6801-2.9627-6.6429-6.6429-6.6429z" fill="url(#radialGradient7430-4)" opacity=".45"/>
<path d="m9.544 67.178v6c0 3.6801 2.9761 6.6562 6.6562 6.6562h79.688c3.6801 0 6.6563-2.9761 6.6563-6.6562v-6c0 3.6801-2.9761 6.6562-6.6563 6.6562h-79.688c-3.6801 0-6.6562-2.9761-6.6562-6.6562z" fill="url(#linearGradient4129)" opacity=".89091"/>
<rect x="13.419" y="65.584" width="84.25" height="4.25" rx="0" ry="4.25" fill="url(#radialGradient7462-1)" opacity=".55"/>
<rect transform="rotate(90)" x="-9.9156" y="-98.669" width="76.75" height="4.25" rx="0" ry="4.25" fill="url(#radialGradient7464-8)" opacity=".55"/>
<path d="m17.816-8.0221c-1.9934 0-3.6045 1.6493-3.6088 3.6845l-0.14822 69.961c1.9137 2.5211 1.6653 2.4108 4.8515 2.6791 1.8042-14.861 36.499-73.336 77.418-73.336 0.48808 0 0.96327 0.01986 1.4492 0.02901-0.30286-1.718-1.751-3.0172-3.5236-3.0172z" fill="#fff" opacity=".3"/>
<rect transform="matrix(.9093 0 0 .92838 12.389 19.829)" x="2" y="-30" width="92" height="92" rx="3.957" ry="3.957" clip-path="url(#clipPath4156-4-2)" fill="url(#linearGradient4767)"/>
<path d="m17.869-9.9361c-3.1166 0-5.668 2.5395-5.668 5.646v69.278c0 3.1065 2.5513 5.646 5.668 5.646h76.792c3.1166 0 5.668-2.5395 5.668-5.646v-69.278c0-3.1065-2.5513-5.646-5.668-5.646zm0 2.3194h76.792c1.8881 0 3.352 1.4801 3.352 3.3266v69.278c0 1.8465-1.4639 3.3266-3.352 3.3266h-76.792c-1.8881 0-3.352-1.4801-3.352-3.3266v-69.278c0-1.8465 1.4639-3.3266 3.352-3.3266z" color="#000000" fill="#595959" style="text-decoration-line:none;text-indent:0;text-transform:none"/>
</g>
</g>
</g>
</g>
<g display="none">
<rect x="5" y="7" width="86" height="85" rx="6" ry="6" fill="url(#linearGradient4740)" filter="url(#filter3174-53)" opacity=".9"/>
</g>
<g display="none">
<rect x="5" y="7" width="86" height="85" rx="6" ry="6" fill="url(#linearGradient4740)" filter="url(#filter3174)" opacity=".9"/>
</g>
</g>
<g transform="translate(0 42)">
<!-- color: #eeeeee --></g>
</g>
</g>
</svg>
