<?xml version="1.0" encoding="UTF-8"?>
<!-- Created with Inkscape (http://www.inkscape.org/) -->
<svg enable-background="new" version="1.1" viewBox="0 0 16 16" xmlns="http://www.w3.org/2000/svg" xmlns:cc="http://creativecommons.org/ns#" xmlns:dc="http://purl.org/dc/elements/1.1/" xmlns:osb="http://www.openswatchbook.org/uri/2009/osb" xmlns:rdf="http://www.w3.org/1999/02/22-rdf-syntax-ns#">
<metadata>
<rdf:RDF>
<cc:Work rdf:about="">
<dc:format>image/svg+xml</dc:format>
<dc:type rdf:resource="http://purl.org/dc/dcmitype/StillImage"/>
<dc:title>Paper Symbolic Icon Theme</dc:title>
</cc:Work>
</rdf:RDF>
</metadata>
<title>Paper Symbolic Icon Theme</title>
<defs>
<filter color-interpolation-filters="sRGB">
<feBlend in2="BackgroundImage" mode="darken"/>
</filter>
</defs>
<g transform="translate(-745 251)" fill="#555">
<path d="m750.84-249.99c-0.28125 0.0469-0.84375 0.25-0.84375 1v1h3 0.40625l4.5938 4.5938v0.40625c3e-3 1.2729-2e-3 3.0104 0 4.4375 2.7e-4 0.22144-1.2e-4 0.35876 0 0.5625h1c1 0 1-1 1-1 0.0188-0.0461 5e-3 -4.4529 0-7l-4-4h-5s-0.0625-0.0156-0.15625 0z" enable-background="new"/>
<path d="m747.84-247c-0.28125 0.0469-0.84375 0.25-0.84375 1v10c0 1 1 1 1 1h8c1 0 1-1 1-1 0.0188-0.0461 5e-3 -4.4529 0-7l-4-4h-5s-0.0625-0.0156-0.15625 0z" enable-background="new"/>
</g>
</svg>
