<?xml version="1.0" encoding="UTF-8"?>
<svg version="1.1" viewBox="0 0 32 32" xmlns="http://www.w3.org/2000/svg" xmlns:cc="http://creativecommons.org/ns#" xmlns:dc="http://purl.org/dc/elements/1.1/" xmlns:rdf="http://www.w3.org/1999/02/22-rdf-syntax-ns#" xmlns:xlink="http://www.w3.org/1999/xlink">
<defs>
<linearGradient id="linearGradient4071" x1="6" x2="90" y1="47" y2="47" gradientTransform="matrix(1.1071 0 0 1.1071 -4.9939 -3.6207)" gradientUnits="userSpaceOnUse">
<stop stop-color="#b2b4bc" offset="0"/>
<stop stop-color="#fff" offset=".25"/>
<stop stop-color="#969da4" offset=".5"/>
<stop stop-color="#fbf9f9" offset=".75"/>
<stop stop-color="#b2b7bc" offset="1"/>
</linearGradient>
<linearGradient id="linearGradient4129" x1="1.5" x2="94.5" y1="88.172" y2="88.172" gradientTransform="translate(.14895 .41503)" gradientUnits="userSpaceOnUse">
<stop offset="0"/>
<stop stop-opacity=".58824" offset=".1"/>
<stop stop-opacity=".58824" offset=".9"/>
<stop offset="1"/>
</linearGradient>
<radialGradient id="radialGradient7462" cx="13.948" cy="44.893" r="43.199" gradientTransform="matrix(.97513 0 0 .049191 34.048 80.582)" gradientUnits="userSpaceOnUse" xlink:href="#linearGradient3737"/>
<linearGradient id="linearGradient3737">
<stop stop-color="#fff" offset="0"/>
<stop stop-color="#fff" stop-opacity="0" offset="1"/>
</linearGradient>
<radialGradient id="radialGradient7464" cx="13.948" cy="44.893" r="43.199" gradientTransform="matrix(.88833 0 0 .049191 31.96 -90.317)" gradientUnits="userSpaceOnUse" xlink:href="#linearGradient3737"/>
<linearGradient id="linearGradient4767" x1="2.7714" x2="50.528" y1="-28.642" y2="14.514" gradientUnits="userSpaceOnUse" xlink:href="#linearGradient3737"/>
<clipPath id="clipPath4156-4-1">
<path d="m27.046-55.695-14.214 13.321h0.06127l15.653 21.771 10.231-10.546c-0.2169-1.1522-11.311-23.67-11.732-24.546zm-17.399 16.313-14.888 14.062 21.229 17.515 10.385-10.577zm31.491 12.951-9.7413 9.7136 8.9448 12.458 7.7808-7.555zm-49.84 4.3788-13.754 12.982 26.283 13.846 0.06127-0.0617-0.12253-0.0617 9.8332-10.053-22.301-16.652zm38.015 7.4008-9.8025 9.7753 11.579 9.5594 7.6276-7.4008-8.6691-11.009zm20.187 5.674-7.3825 7.2158 6.1878 8.5418 5.8202-6.1365zm-32.195 6.3215-9.5575 9.4977 13.662 7.185 7.9339-7.6784zm23.312 2.3744-7.1068 6.9383 8.3628 6.9074 5.3608-5.674-0.06127-0.0925-0.0919 0.12335-6.4635-8.2026zm-8.7304 8.5418-7.5051 7.3392 10.354 5.4581c1.3975-1.321 5.6751-6.1229 5.8509-6.3215z" fill="#fff" opacity=".6"/>
</clipPath>
<linearGradient id="linearGradient6269" x1="36.43" x2="25.784" y1="92.073" y2="110.45" gradientTransform="matrix(.96471 0 0 1.0388 -.70464 -37.672)" gradientUnits="userSpaceOnUse">
<stop stop-color="#ff9b00" offset="0"/>
<stop stop-color="#ff5f00" offset="1"/>
</linearGradient>
<linearGradient id="linearGradient6271" x1="54.602" x2="54.242" y1="76.96" y2="102.29" gradientTransform="matrix(1.0043 0 0 1.0936 3.1896 -29.187)" gradientUnits="userSpaceOnUse">
<stop stop-color="#f2e051" offset="0"/>
<stop stop-color="#ffb31f" offset="1"/>
</linearGradient>
<linearGradient id="linearGradient6273" x1="36.988" x2="50.363" y1="42.477" y2="77.651" gradientTransform="matrix(.86047 0 0 .86047 -4.8315 -12.4)" gradientUnits="userSpaceOnUse">
<stop stop-color="#61ae50" offset="0"/>
<stop stop-color="#9ac837" offset="1"/>
</linearGradient>
<linearGradient id="linearGradient6275" x1="26.812" x2="61.392" y1="26.721" y2="26.721" gradientTransform="matrix(1.0271 0 0 1.0271 3.1786 .3323)" gradientUnits="userSpaceOnUse">
<stop stop-color="#3792c8" offset="0"/>
<stop stop-color="#3769c8" offset="1"/>
</linearGradient>
<linearGradient id="linearGradient6277" x1="69.973" x2="98.93" y1="33.634" y2="54.118" gradientTransform="matrix(.74975 0 0 .74975 5.8366 5.5928)" gradientUnits="userSpaceOnUse">
<stop stop-color="#e273be" offset="0"/>
<stop stop-color="#e84058" offset="1"/>
</linearGradient>
<filter id="filter3756" x="-.11049" y="-.1313" width="1.221" height="1.2626" color-interpolation-filters="sRGB">
<feGaussianBlur stdDeviation="1.6743347"/>
</filter>
<linearGradient id="linearGradient6285" x1="30.309" x2="41.267" y1="53.165" y2="64.409" gradientTransform="matrix(.70358 0 0 .70358 -1.909 -4.2929)" gradientUnits="userSpaceOnUse">
<stop stop-color="#b5e64e" offset="0"/>
<stop stop-color="#b5e64e" stop-opacity="0" offset="1"/>
</linearGradient>
<linearGradient id="linearGradient6287" x1="64" x2="64.963" y1="76.813" y2="90.385" gradientTransform="matrix(.70358 0 0 .70358 24.076 10.143)" gradientUnits="userSpaceOnUse">
<stop stop-color="#fdf49c" offset="0"/>
<stop stop-color="#fdf49c" stop-opacity="0" offset="1"/>
</linearGradient>
</defs>
<metadata>
<rdf:RDF>
<cc:Work rdf:about="">
<dc:format>image/svg+xml</dc:format>
<dc:type rdf:resource="http://purl.org/dc/dcmitype/StillImage"/>
<dc:title/>
<dc:date>2017</dc:date>
<dc:creator>
<cc:Agent>
<dc:title>Cristian Pozzessere "ilnanny"</dc:title>
</cc:Agent>
</dc:creator>
<dc:subject>
<rdf:Bag>
<rdf:li>Global language</rdf:li>
</rdf:Bag>
</dc:subject>
<dc:description>Playing with Inkscape on Gnu/Linux O. S.</dc:description>
<dc:contributor>
<cc:Agent>
<dc:title>In the night, alone like a dog.</dc:title>
</cc:Agent>
</dc:contributor>
<cc:license rdf:resource="http://creativecommons.org/licenses/by-sa/4.0/"/>
</cc:Work>
<cc:License rdf:about="http://creativecommons.org/licenses/by-sa/4.0/">
<cc:permits rdf:resource="http://creativecommons.org/ns#Reproduction"/>
<cc:permits rdf:resource="http://creativecommons.org/ns#Distribution"/>
<cc:requires rdf:resource="http://creativecommons.org/ns#Notice"/>
<cc:requires rdf:resource="http://creativecommons.org/ns#Attribution"/>
<cc:permits rdf:resource="http://creativecommons.org/ns#DerivativeWorks"/>
<cc:requires rdf:resource="http://creativecommons.org/ns#ShareAlike"/>
</cc:License>
</rdf:RDF>
</metadata>
<g transform="translate(0 -1026.5)">
<g transform="translate(-.14896 1026.1)">
<g transform="matrix(.32292 0 0 .32292 .60086 .78098)">
<path d="m89.292 0.41503h-82.286c-3.7988 0-6.8571 3.0583-6.8571 6.8571v82.286c0 3.7989 3.0583 6.8571 6.8571 6.8571h82.286c3.7989 0 6.8571-3.0583 6.8571-6.8571v-82.286c0-3.7989-3.0583-6.8571-6.8571-6.8571z" opacity=".15"/>
<path d="m88.649 1.165h-81c-3.7395 0-6.75 3.0105-6.75 6.75v81c0 3.7395 3.0105 6.75 6.75 6.75h81c3.7395 0 6.75-3.0105 6.75-6.75v-81c0-3.7395-3.0105-6.75-6.75-6.75z" opacity=".15"/>
<path d="m88.006 1.915h-79.714c-3.6801 0-6.6429 2.9627-6.6429 6.6429v79.714c0 3.6801 2.9627 6.6429 6.6429 6.6429h79.714c3.6801 0 6.6429-2.9627 6.6429-6.6429v-79.714c0-3.6801-2.9627-6.6429-6.6429-6.6429z" fill="url(#linearGradient4071)"/>
<path d="m11.39 6.8022c-2.8565 0-5.1241 2.2884-5.1241 5.171v68.58c1.0972 1.6845 2.9688 2.8117 5.1241 2.8117h73.787c2.1553 0 4.0269-1.1272 5.1241-2.8117v-68.58c0-2.8826-2.2676-5.171-5.1241-5.171z" fill="#f3edf0" opacity=".77865"/>
<path d="m9.974 5.1445c-3.1166 0-5.668 2.5395-5.668 5.646v69.278c0 3.1065 2.5513 5.646 5.668 5.646h76.792c3.1166 0 5.668-2.5395 5.668-5.646v-69.278c0-3.1065-2.5513-5.646-5.668-5.646zm0 2.3194h76.792c1.8881 0 3.352 1.4801 3.352 3.3266v69.278c0 1.8465-1.4639 3.3266-3.352 3.3266h-76.792c-1.8881 0-3.352-1.4801-3.352-3.3266v-69.278c0-1.8465 1.4639-3.3266 3.352-3.3266z" color="#000000" fill-opacity=".63265" style="text-decoration-line:none;text-indent:0;text-transform:none"/>
<path d="m1.649 82.259v6c0 3.6801 2.9761 6.6562 6.6562 6.6562h79.687c3.6801 0 6.6563-2.9761 6.6563-6.6562v-6c0 3.6801-2.9761 6.6562-6.6563 6.6562h-79.687c-3.6801 0-6.6562-2.9761-6.6562-6.6562z" fill="url(#linearGradient4129)" opacity=".65818"/>
<rect x="5.524" y="80.665" width="84.25" height="4.25" rx="0" ry="4.25" fill="url(#radialGradient7462)" opacity=".55"/>
<rect transform="rotate(90)" x="5.975" y="-90.234" width="76.75" height="4.25" rx="0" ry="4.25" fill="url(#radialGradient7464)" opacity=".669"/>
<g transform="matrix(-1 0 0 1 97.032 -2.8675)">
<path d="m29.437 53.561c-1.9736 0.59516-4.3173 0.10754-5.7182 2.1487-1.7846 1.4257-3.7141 3.9344-6.1948 2.9906-1.0572-0.50488-4.4763-2.7273-3.3878 0.03206 1.5586 0.93254 4.8985 1.3 4.2142 4.1451-0.7198 1.9313-2.3186 4.0655-1.2806 6.1976 1.4993 1.336 3.0349 3.8374 0.83391 5.3798-1.4883 1.3952-3.1818 2.4625-4.7875 3.664-1.6468 1.9781 1.2812 3.0546 2.2113 1.0984 1.3375-1.6041 3.6593-3.3597 5.5991-1.804 2.2418 1.7433 1.2648 4.9164-0.08934 6.7669 1.1395 2.7607 1.8763-1.1598 2.539-2.1968 1.2832-2.101 3.7289-0.80511 5.4576-0.2726 2.2466 0.77457 3.6733-2.0995 5.8671-2.0525 2.0845-0.35208 0.93466-4.208 3.5367-4.2012 2.1506-0.84971 4.8815-2.3962 4.6684-5.2916-0.30164-2.8393-2.6843-4.8429-2.8293-7.753 0.14089-2.313-0.4607-5.359-3.2686-4.6502-2.6187-0.12362-5.3438-1.0924-6.5968-3.7522l-0.34994-0.26458zm10.573 22.497c-0.05968-0.0028-0.12285 0.0024-0.18614 8e-3 -0.65103 0.05824-1.4712 0.55798-1.9805 1.3951-0.3575 0.58751-0.36189 0.71104-0.0074 1.5153 0.21155 0.48008 0.38717 0.98719 0.38717 1.1305 0 0.14332 0.13402 0.32169 0.29782 0.39287 0.60278 0.2619 0.86521 0.15099 1.4593-0.60935 0.63201-0.80881 0.96413-2.0545 0.82646-3.1028-0.06257-0.47642-0.37897-0.70992-0.79668-0.72959z" fill="url(#linearGradient6269)"/>
<path d="m14.226 57.392c-0.33058 0.09374-0.42811 0.47889-0.08795 1.3412 1.2595 0.75354 3.677 1.1493 4.1995 2.7704 0.0056-0.01466 0.01653-0.02933 0.02199-0.04397 0.66712-2.774-2.4866-3.1841-4.0896-4.0676-0.0138 0.0028-0.03088-0.0037-0.04397 0zm2.5725 9.4764c-0.12847 0.73262-0.09676 1.458 0.26384 2.1987 0.77698 0.69236 1.5536 1.7037 1.8249 2.7264 0.46563-1.4268-0.68827-3.1207-1.8249-4.1336-0.12975-0.26652-0.20963-0.52535-0.26384-0.79153zm26.055 2.9243c-0.40934 2.2473-2.7355 3.522-4.6173 4.2655-2.602-0.0067-1.4555 3.8474-3.5399 4.1995-2.1938-0.04697-3.6239 2.8194-5.8705 2.0448-1.7287-0.53251-4.1696-1.8371-5.4528 0.26384-0.57492 0.89977-1.2095 3.9747-2.1108 2.9682-0.13279 0.22495-0.27285 0.43961-0.41775 0.63762 1.1395 2.7607 1.8659-1.1617 2.5285-2.1987 1.2832-2.101 3.7241-0.79635 5.4528-0.26385 2.2466 0.77458 3.6767-2.0918 5.8705-2.0448 2.0845-0.35208 0.9379-4.2062 3.5399-4.1995 0.04111-0.01624 0.09041-0.02722 0.13192-0.04398 0.46021-0.44704 0.99012-0.7283 1.4511-0.76954 0.04219-0.0038 0.09083 0.0011 0.13192 0 1.6482-0.92943 3.1047-2.3323 2.9463-4.4854-0.01334-0.12558-0.02286-0.25131-0.04397-0.37378zm-23.438 5.6067c-1.5341-0.08735-3.0865 1.2155-4.0896 2.4186-0.57091 1.2007-1.8842 1.2292-2.4406 0.63762-1.071 1.7576 1.5645 2.612 2.4406 0.76954 1.3375-1.6041 3.6669-3.3586 5.6067-1.8029 0.76095 0.59175 1.1449 1.3411 1.2752 2.1547 0.1962-1.3164-0.08804-2.6387-1.2752-3.5619-0.48494-0.38892-1.0058-0.58652-1.5171-0.61563zm21.349 1.2313c-0.1212 0.68467-0.40051 1.3465-0.79153 1.8469-0.59414 0.76034-0.84836 0.87753-1.4511 0.61563-0.16381-0.07117-0.30782-0.25244-0.30782-0.39576 0-0.14331-0.16223-0.64127-0.37378-1.1213-0.01133-0.0257-0.01139-0.0416-0.02199-0.06596-0.32718 0.5452-0.32216 0.69223 0.02199 1.4731 0.21155 0.48008 0.37378 0.97803 0.37378 1.1213 1e-6 0.14333 0.14401 0.3246 0.30782 0.39577 0.60278 0.2619 0.85701 0.1447 1.4511-0.61563 0.63201-0.80881 0.97317-2.0519 0.83551-3.1002-0.0078-0.05955-0.02852-0.1019-0.04397-0.15391z" opacity=".3"/>
<path d="m75.497 51.995c-1.6515 2.3369-1.2266 6.1053-3.5839 7.8274-1.7017 1.0907-3.7198-2.3262-3.7158 0.30782-2.1049 1.0253-4.3573-1.4227-6.3982 0.35179-1.5927 1.3523-2.8379-2.0887-2.6824 0.54968-1.7132 1.5148-1.6822 4.0498-3.1661 5.6067-2.7523 1.5101-5.9798 0.30391-8.9267 0.76954 1.9431 1.2329 4.3524-0.25736 6.3982 0.83551 2.1588 1.0756 3.5915 3.4187 4.4414 5.7166 1.1056 2.4938-1.985 4.3372-1.9568 6.2883 1.2161-1.8848 2.0298-4.8715 4.6393-4.7492 1.1007 1.1625 1.8112 2.8233 3.43 1.5611 1.7436-0.67419 4.1587 1.8751 4.7712 1.3632 1.0785-0.89111 1.8272 2.1904 1.737-0.28584 1.7541-1.5916 5.3126-0.69971 6.2663 1.627 1.3942 1.3418-1.2975-2.0669-0.96743-3.1881-0.06055-2.77 3.0499-4.5533 5.3648-3.8038 3.4198 0.71387-2.8807-0.88201-2.1108-3.2541-0.0028-1.5605 1.9945-3.2427-0.37378-3.6059-1.6316-0.89106-3.2497-2.5239-3.2981-4.2435-2.9818 0.05973-1.7866-4.3805-0.92346-6.2223 0.37945-1.1095 1.0238-2.2984 1.0554-3.452zm-18.271 3.7598c-0.30458 0-0.16914 0.3553 0.48372 1.4072 0.70384 1.134 0.84143 1.2689 0.59365 0.57166-0.33073-0.93058-0.90988-1.9788-1.0774-1.9788zm30.254 8.509c-1.3772 0.1186-4.5925 1.7115-1.5171 0.65961 0.51792-0.17436 1.0407-0.37826 1.5171-0.65961zm-5.4968 4.0896c-0.11131 0-0.22337 0.02037-0.30782 0.04397-0.16888 0.04722-0.02995 0.08795 0.30782 0.08795 0.33777 1e-6 0.47671-0.04073 0.30782-0.08795-0.08445-0.0236-0.19651-0.04397-0.30782-0.04397zm0.79154 0.1759c0.94844 0.47547 4.9441 0.64575 2.0888 0.10994-0.69698-0.0245-1.3978 0.01549-2.0888-0.10994zm-28.957 9.5424-0.87948 0.8575c-0.12335-0.3725-0.61394-0.31019-0.83551-0.06596-0.84892 0.661-1.4132 1.6261-2.2647 2.2866-0.27491 0.26684-0.07328 0.69427 0.1759 0.90147 0.35537 0.34373 0.78103 0.6217 1.2533 0.76954 0.46733 0.02198 0.68394-0.47356 0.83551-0.8355 0.18748-0.48268 0.35651-0.97247 0.54968-1.4512 0.07011-0.48736 0.08423-0.99848 0.35179-1.4292 0.21217-0.3881 0.50356-0.72059 0.81352-1.0334zm14.182 2.3086c-0.03591 0.01416-0.04969 0.11544-0.04397 0.26385 0.0084 0.21867 0.05393 0.25967 0.10994 0.10993 0.05068-0.13552 0.03632-0.28941-0.02199-0.35179-0.01458-0.0156-0.032-0.02669-0.04397-0.02199zm-0.08795 0.81352c-1.1167 1.1777-0.27344 2.6672 0 0zm3.0782 0.30782c-0.0359 0.01416-0.04969 0.11544-0.04397 0.26384 0.0084 0.21866 0.03194 0.25968 0.08795 0.10993 0.05068-0.1355 0.0583-0.28943 0-0.35179-0.01458-0.0156-0.032-0.0267-0.04397-0.02199z" fill="url(#linearGradient6271)"/>
<path d="m75.015 52.957c-1.1261 1.5935-1.2872 3.8506-2.0228 5.6726-0.02005 0.34055-0.0023 0.66557 0.04397 0.96743 0.14386-1.1688 0.55939-2.4113 0.92346-3.1881 0.37945-1.1095 1.0238-2.2984 1.0554-3.452zm-18.271 3.7598c-0.30458 0-0.16914 0.3553 0.48371 1.4072 0.70384 1.134 0.84143 1.2689 0.59365 0.57166-0.33073-0.93058-0.90988-1.9788-1.0774-1.9788zm30.254 8.509c-1.3772 0.1186-4.5925 1.7115-1.5171 0.65961 0.51792-0.17436 1.0407-0.37826 1.5171-0.65961zm-7.8933 1.9788c-0.23232 0.57828-0.55082 1.2338-0.54968 1.8689-0.10907 0.33604-0.083 0.6669 0.044 0.96743 0.22655-1.1297 1.1925-2.2558 0.5057-2.8363zm-25.439 1.0334c-2.2992 0.43561-4.8035-0.2347-7.1238 0.13192 1.9431 1.2329 4.3524-0.25736 6.3982 0.83551 2.1588 1.0756 3.5915 3.4187 4.4414 5.7166 0.06219 0.14028 0.09499 0.28146 0.13192 0.41775 0.15116-0.57362 0.15544-1.1767-0.13192-1.8249-0.74942-2.0264-1.9617-4.0804-3.7158-5.2769zm27.836 1.0774c-0.11131 0-0.22337 0.02037-0.30781 0.04397-0.16889 0.04722-0.0299 0.08795 0.30781 0.08795 0.33777 1e-6 0.47671-0.04073 0.30782-0.08795-0.0844-0.0236-0.19651-0.04397-0.30782-0.04397zm0.79154 0.1759c0.94843 0.47547 4.9441 0.64575 2.0888 0.10994-0.69698-0.0245-1.3978 0.01549-2.0888-0.10994zm-3.1442 2.7044c-1.9585 0.18926-3.8957 1.743-3.8477 3.9357-0.05375 0.18258-0.0099 0.43007 0.06596 0.70358 0.42692-2.3558 3.1883-3.7836 5.2989-3.1002 2.4981 0.52146-0.18643-0.19339-1.5171-1.5391zm-19.085 2.8583c-1.0775-0.05052-1.8427 0.43012-2.4625 1.1433-0.12932 1.8789-2.1998 3.4096-2.1767 5.013 1.2161-1.8848 2.0298-4.8715 4.6393-4.7492 1.1007 1.1625 1.8112 2.8233 3.43 1.5611 1.7436-0.67419 4.1587 1.8751 4.7712 1.3632 1.0785-0.89111 1.8272 2.1904 1.737-0.28584 1.7541-1.5916 5.3126-0.69971 6.2663 1.627 1.2272 1.1811-0.71036-1.324-0.96743-2.7044-1.4706-1.2881-3.9285-1.5733-5.2989-0.3298 0.09028 2.4762-0.65848-0.60528-1.737 0.28583-0.61244 0.5119-3.0276-2.0374-4.7712-1.3632-1.6188 1.2623-2.3293-0.39859-3.43-1.5611zm-6.728 3.9796-0.87948 0.8575c-0.03987-0.12042-0.12473-0.18178-0.21987-0.21987-0.01831 0.14189-0.04576 0.27732-0.06596 0.41776-0.19316 0.47867-0.36219 0.96846-0.54967 1.4511-0.15157 0.36194-0.36818 0.85748-0.83551 0.83551-0.39326-0.12312-0.74041-0.34921-1.0554-0.61564-0.12288 0.11766-0.23874 0.24703-0.37378 0.3518-0.27491 0.26684-0.07328 0.69427 0.1759 0.90147 0.35537 0.34373 0.78103 0.6217 1.2533 0.76954 0.46733 0.02198 0.68394-0.47356 0.83551-0.8355 0.18748-0.48268 0.35651-0.97247 0.54967-1.4512 0.07011-0.48736 0.08423-0.99848 0.35179-1.4292 0.21217-0.3881 0.50357-0.72059 0.81352-1.0334zm14.182 2.3086c-0.03591 0.01416-0.04969 0.11544-0.04397 0.26385 0.0084 0.21867 0.05393 0.25967 0.10994 0.10993 0.05068-0.13552 0.03632-0.28941-0.02199-0.35179-0.01458-0.0156-0.032-0.02669-0.04397-0.02199zm-0.08795 0.81352c-1.1167 1.1777-0.27344 2.6672 0 0zm3.0782 0.30782c-0.0359 0.01416-0.04969 0.11544-0.04397 0.26384 0.0084 0.21866 0.03194 0.25968 0.08795 0.10993 0.05068-0.1355 0.0583-0.28943 0-0.35179-0.01458-0.0156-0.032-0.0267-0.04397-0.02199z" fill="#794200" opacity=".5"/>
<path d="m25.248 60.468c0-0.40362 0.21182-0.73386 0.47072-0.73386 0.2589 0 0.47072 0.19933 0.47072 0.44294 0 0.24361-0.21182 0.57385-0.47072 0.73385-0.2589 0.16001-0.47072-0.03932-0.47072-0.44292zm2.3536-4.8387c-1.0976-0.442-1.8515-1.6595-1.8679-3.0165-0.01106-0.91358-0.37111-1.3849-1.376-1.8011-1.7525-0.72592-2.9883-0.01708-3.7781 2.167-0.39475 1.0917-0.86791 1.5775-1.5363 1.5775-1.1245 0-1.0487-0.68444 0.50833-4.5895 0.54193-1.3592 0.77437-2.4713 0.51653-2.4713-0.25784 0-0.4688-0.31109-0.4688-0.6913 0-0.4211-0.27597-0.58541-0.70607-0.42036-0.39024 0.14974-0.70608 0.01365-0.70608-0.30428 0-0.4031-0.34716-0.34774-1.1602 0.185-1.5001 0.98291-1.6641 0.96008-1.6641-0.23158 0-0.65747-0.2225-0.9064-0.66006-0.73851-1.2243 0.4698-1.1714-0.24172 0.10169-1.3693 1.0082-0.89292 1.133-1.2064 0.61574-1.5465-0.35679-0.23461-0.5122-0.64743-0.34536-0.91738 0.41342-0.66894-0.52982-1.1799-2.7334-1.4808-2.4995-0.34129-2.8098-1.4109-0.43058-1.4844 2.6516-0.08184 4.5245-0.57064 4.7468-1.2388 0.10765-0.32362-0.11494-0.5884-0.49466-0.5884-0.94661 0-1.2773-1.5718-0.71806-3.4127 0.61444-2.0226-0.14206-3.9977-1.679-4.3835-1.3497-0.33874-1.8097-1.2454-1.42-2.7983 0.63048-2.512 3.478-1.9655 4.4529 0.85462l0.68209 1.973 2.7562 0.09968c1.6978 0.06139 3.5758 0.49645 4.8906 1.1329 2.694 1.3042 3.2513 0.98216 4.8088-2.7787 1.1912-2.8765 1.9886-3.5317 3.7407-3.0735 1.241 0.32453 1.5352 1.8706 0.72492 3.8098-1.0887 2.6057-0.9106 3.8694 0.54534 3.8694 0.67471 0 2.0484 0.65075 3.0526 1.4461 1.2402 0.98225 2.1224 1.352 2.7503 1.1527 1.0335-0.32803 2.8554 1.1674 2.8554 2.3437 0 1.0218-1.8391 2.7065-2.6253 2.4048-0.91878-0.35257-0.84232 0.62539 0.13318 1.7033 0.66181 0.73129 0.70128 1.0498 0.22469 1.8129-0.64683 1.0357-0.12149 1.4723 1.5794 1.3127 2.4062-0.22589 3.2818 0.68987 2.7187 2.8433-0.44234 1.6915-3.9135 1.6683-3.9135-0.02615 0-0.49572-0.29595-1.0149-0.65766-1.1537-0.86284-0.3311-7.9047 0.65374-8.4299 1.179-0.22876 0.22876-0.09132 1.0172 0.31388 1.8008 0.55729 1.0777 1.0579 1.4035 2.2066 1.4361 1.6835 0.04787 1.733 0.07547 1.8709 1.0439 0.26409 1.855-0.05547 2.7226-1.0701 2.9053-1.5477 0.27871-2.7066-0.05869-2.7066-0.78795 0-0.71284-1.2547-2.1173-1.8916-2.1173-0.22669 0-0.37875 0.83794-0.3379 1.8621 0.04084 1.0242-0.02377 1.9602-0.14358 2.08-0.42566 0.42567-2.5805 0.7059-3.2756 0.42599zm-5.6486-1.2739c0-0.43666 0.40247-0.7406 0.98066-0.7406 1.1472 0 0.98502 1.1-0.19591 1.329-0.46448 0.09009-0.78474-0.15004-0.78474-0.58839zm-10.12-5.9185c0.94143 0 1.1768 0.23536 1.1768 1.1768 0 0.94144-0.23536 1.1768-1.1768 1.1768-1.8996-0.20151-1.1879-2.3412 0-2.3536z" fill="url(#linearGradient6273)"/>
<path d="m34.773 26.885c-0.07225 0.38732-0.19134 0.81662-0.37378 1.2533-0.64957 1.5547-0.84836 2.6162-0.59365 3.2321 0.10756-0.51522 0.29426-1.1084 0.59365-1.8249 0.43407-1.0389 0.5494-1.9746 0.37378-2.6604zm-22.471 0.83551c-0.29872 1.4271 0.18447 2.271 1.4731 2.5945 0.99182 0.24893 1.6418 1.1722 1.8249 2.3306 0.29338-1.7819-0.45211-3.3932-1.8249-3.7378-0.78564-0.19718-1.2825-0.5898-1.4731-1.1873zm2.9463 7.8933c-0.1726 1.1305 0.02057 2.0301 0.5057 2.3526 0.50162-0.18811 0.81812-0.43104 0.90147-0.6816 0.10765-0.32362-0.104-0.57166-0.48371-0.57166-0.48848 0-0.80065-0.44126-0.92345-1.0994zm28.143 2.0008c-0.49598 0.9448-1.7896 1.9783-2.4186 1.737-0.82513-0.31663-0.82052 0.42493-0.10994 1.3632 0.04049 0.01107 0.06462 0.02658 0.10994 0.04397 0.7862 0.30171 2.6384-1.3967 2.6384-2.4186 0-0.23755-0.09277-0.47964-0.21987-0.72557zm-31.485 2.3306c-2.3792 0.07343-2.0598 1.1318 0.43974 1.4731 2.2035 0.30087 3.1398 0.82618 2.7264 1.4951-0.12513 0.20246-0.07647 0.47585 0.10993 0.70358 0.62389-0.61396 0.67855-0.92214 0.24186-1.2093-0.35679-0.23461-0.51863-0.63152-0.35179-0.90147 0.41342-0.66894-0.52284-1.1942-2.7264-1.4951-0.13958-0.01906-0.24794-0.04266-0.37378-0.06596-0.02244 7.55e-4 -0.04341-6.97e-4 -0.06596-2e-6zm29.485 2.8363c-0.0189 0.03182-0.02308 0.05449-0.04397 0.08795-0.3854 0.61712-0.35964 1.017 0.08795 1.2093 0.27406-0.49954 0.28248-0.85014-0.04398-1.2972zm-26.406 2.5065c-0.03191-0.0039-0.07397 0.01808-0.10994 0.02199-0.02711 0.02435-0.03744 0.0407-0.06596 0.06596-1.2731 1.1276-1.3342 1.833-0.10994 1.3632 0.43755-0.1679 0.65961 0.09009 0.65961 0.74756 0 1.1917 0.17092 1.2028 1.671 0.21987 0.81308-0.53274 1.1653-0.579 1.1653-0.1759 0 0.31793 0.31334 0.45756 0.70358 0.30782 0.4301-0.16505 0.70358-0.0033 0.70358 0.41775 0 0.30753 0.14061 0.54857 0.32981 0.63762 0.23907-0.79553 0.31274-1.3632 0.13192-1.3632-0.25784-2e-6 -0.46173-0.30138-0.46173-0.6816-2e-6 -0.4211-0.27349-0.58281-0.70358-0.41775-0.39024 0.14974-0.70358 0.01011-0.70358-0.30782 1e-6 -0.4031-0.35223-0.35684-1.1653 0.1759-1.5001 0.98291-1.671 0.9718-1.671-0.21987 0-0.4931-0.12661-0.76153-0.37378-0.79154zm25.483 0.48371c-1.9331-0.02613-7.3678 0.79369-7.8274 1.2533-0.18395 0.18395-0.1285 0.727 0.10993 1.3412 0.97068-0.53653 7.4816-1.4397 8.3111-1.1213 0.36171 0.1388 0.65961 0.64761 0.65961 1.1433 0 1.6945 3.4713 1.7355 3.9137 0.04397 0.18933-0.72402 0.20541-1.3111 0.06596-1.759-0.0231 0.11773-0.03296 0.22558-0.06596 0.35179-0.44234 1.6915-3.9137 1.6505-3.9137-0.04398-1e-6 -0.49572-0.2979-1.0045-0.65961-1.1433-0.10786-0.04139-0.3175-0.06223-0.59365-0.06595zm-28.627 6.4642c0.94143 0 1.1653-0.24586 1.1653-1.1873 0-0.30204-0.02395-0.50937-0.08795-0.6816-0.13947 0.34868-0.44974 0.46173-1.0774 0.46173-1.9991-1.1167-1.0896 1.3953 2e-6 1.4072zm11.301-1.671c-1.1239-0.0045-1.9801 0.80249-2.5725 2.4406-0.39475 1.0917-0.84873 1.5831-1.5171 1.5831-0.26458 0-0.46563-0.0231-0.59365-0.13192-0.34988 1.2524-0.13217 1.5391 0.59365 1.5391 0.66838 0 1.1224-0.4914 1.5171-1.5831 0.78978-2.1841 2.0293-2.8806 3.7818-2.1547 1.0049 0.41623 1.3741 0.88936 1.3852 1.8029 0.01641 1.357 0.77135 2.5702 1.8689 3.0122 0.69506 0.2799 2.8504 0.0079 3.2761-0.41775 0.11981-0.11981 0.17276-1.0646 0.13192-2.0888-0.02633 0.363-0.07342 0.62309-0.13192 0.6816-0.42566 0.42567-2.581 0.69766-3.2761 0.41775-1.0975-0.442-1.8525-1.6552-1.8689-3.0122-0.01105-0.91357-0.38031-1.3867-1.3852-1.8029-0.43813-0.18148-0.83464-0.28433-1.2093-0.28583zm8.2231 0.72557c-0.22669 3e-6 -0.39263 0.84472-0.35179 1.8689 0.0093 0.23347 0.02304 0.46592 0.02199 0.6816 0.03616-0.66775 0.15978-1.1433 0.3298-1.1433 0.63681 0 1.8909 1.4199 1.8909 2.1327 0 0.72926 1.1568 1.0483 2.7044 0.76955 0.95146-0.17136 1.2784-0.9473 1.0994-2.5725-0.12677 0.69049-0.48008 1.0538-1.0994 1.1653-1.5477 0.27871-2.7044-0.04029-2.7044-0.76955 0-0.71284-1.2541-2.1327-1.8909-2.1327zm-8.421 3.7598c-0.57819 0-0.98941 0.3109-0.98941 0.74756 0 0.43834 0.32705 0.68374 0.79153 0.59365 1.1809-0.22902 1.345-1.3412 0.19788-1.3412zm2.7704 6.1344c-0.2589 0-0.46173 0.32195-0.46173 0.72557 0 0.40361 0.20283 0.59975 0.46173 0.43974 0.2589-0.16 0.48371-0.48196 0.48371-0.72557 0-0.24361-0.22482-0.43974-0.48371-0.43974z" opacity=".3"/>
<path d="m31.508 11.417c-0.30175-2.01e-4 -0.64224 0.08639-1.0114 0.26384-1.302 0.98348-3.0183-0.88104-4.3095 0.28583-1.3556 2.1741 1.7979 2.4502 3.1661 2.9243 1.6674 0.37997 2.2943 1.7765 3.0122 2.9023 2.1493 0.49334 2.014-2.2873 1.4951-3.6059-0.34603-1.2796-1.045-2.7695-2.3526-2.7704zm12.533 0.41775c-1.901 1.5435 1.1527 4.6058-1.5171 6.0025-1.9659 1.4264-4.8702 0.18217-6.4642 2.3526-1.6423 2.2458-3.7591-0.80318-5.3428 0.1759 1.3547 1.6551 4.773 2.0373 4.4634 5.035 0.41208 2.7563-2.2992 4.8108-1.9349 7.4756 0.53697 1.981 3.027 4.1714 0.43974 5.8266-1.3228 1.187-0.47174 2.2557 0.57166 0.59365 0.67732-2.1119 4.2661-3.4514 4.4634-0.37378 0.40667 1.4426-1.0596 4.2668 0.39577 4.7932 0.2218-2.5674 0.33618-5.8402 3.1222-7.0798 2.3223-1.2198 3.6874 2.2247 5.9585 1.4731 2.6093-1.1029 3.4583 1.7014 5.2109 2.7924 3.4027 0.13342 2.0057-5.075 3.1002-7.2337 1.8326-1.7482 2.0679-4.1044 2.5725-6.4642 1.693-2.6792 5.1111-0.28872 7.1458-1.3632-0.26755-2.4404-4.3112-0.47039-6.0904-1.3632-2.2111-0.16941-4.8707-2.3065-3.4739-4.6612 0.67457-1.1495 4.1697-4.0769 1.5611-4.3974-1.715 1.3298-2.6143 3.7749-5.1669 3.9137-2.2789 1.0221-5.026 0.78074-6.5961-1.3632-2.1522-1.4206-0.91438-4.0525-1.9568-5.8925-0.0816-0.25288-0.28242-0.21838-0.46173-0.24186zm5.9145 1.693c-0.36592 0.0028-0.72169 0.194-1.0994 0.57166-1.1309 1.1309-0.43372 2.9956 0.98942 2.6384 0.29406-0.0738 0.83153 0.03716 1.2093 0.24186 0.877 0.47522 1.277 0.47589 1.4511 0.02199 0.23958-0.62433-0.13548-1.5346-1.0334-2.5285-0.57188-0.63301-1.0466-0.949-1.5171-0.94544zm-21.415 9.4104c-0.45684-0.01773-0.89402 0.02234-1.0114 0.19788-0.98672 1.4756-0.1739 1.6897 0.74756 2.4186 1.1996 0.94888 2.9308-0.89433 3.1441-0.72557-0.62218-1.0403-1.0057-1.3368-1.7809-1.715-0.17206-0.08394-0.64252-0.15816-1.0994-0.1759zm1.4731 5.3648c-0.49397 0.08049-0.52935 0.60898-0.39577 1.1433 0.29146 1.1658 0.54019 0.58418 1.0554 0.35179 0.72244-0.32587 0.42094-0.39964 0-1.4072-0.27656-0.08744-0.49495-0.11478-0.65961-0.08795zm29.375 3.342c-0.24544 0.04739 0.17387 0.52156 1.1873 1.3852 0.85196 0.72604 1.7617 1.5838 2.0228 1.8909 0.66733 0.7848 1.4249 0.61244 1.5171-0.32981 0.06697-0.68426-0.0062-0.78033-1.2533-1.2972-0.73618-0.30513-1.7413-0.81799-2.2207-1.1433-0.47942-0.32535-1.0469-0.54555-1.2533-0.5057z" fill="url(#linearGradient6275)"/>
<path d="m26.099 12.143c-1.0791 2.0128 1.9239 2.2874 3.2541 2.7484 1.6674 0.37997 2.2943 1.7765 3.0122 2.9023 1.6585 0.38069 1.9477-1.1863 1.759-2.5285-0.16998 0.79832-0.68433 1.368-1.759 1.1213-0.71791-1.1258-1.3448-2.5223-3.0122-2.9023-0.92186-0.31944-2.6366-0.56042-3.2541-1.3412zm17.348 0.61564c-0.18558 0.72317 0.03031 1.5702 0.15391 2.3966 0.19013-0.73314-0.02816-1.5801-0.15391-2.3966zm5.013 1.9568c-0.46766 1.0798 0.19599 2.3213 1.3852 2.0228 0.29406-0.0738 0.83153 0.03716 1.2093 0.24186 0.877 0.47522 1.277 0.47589 1.4511 0.02199 0.12624-0.32897 0.06971-0.72914-0.13192-1.1873-0.21963 0.21702-0.61762 0.13832-1.3192-0.24186-0.37776-0.20469-0.91523-0.31566-1.2093-0.24186-0.64869 0.16281-1.1425-0.13507-1.3852-0.61564zm10.4 0.90147c-0.5866 0.98344-1.8244 2.1546-2.1987 2.7924-0.42622 0.71855-0.48703 1.4165-0.28583 2.0448 0.06332-0.2091 0.15889-0.42362 0.28583-0.63762 0.6005-1.0233 3.4234-3.4516 2.1987-4.1995zm-27.528 4.5513c-0.21266 0.01471-0.41767 0.0755-0.61564 0.19788 1.2701 1.5516 4.36 1.9892 4.4854 4.5073 0.02107-0.28478 0.02282-0.5798-0.02199-0.87948 0.18679-1.8083-0.98771-2.6497-2.2427-3.408-0.55079-0.22587-1.0997-0.45272-1.6051-0.41775zm-3.9796 3.2541c-0.68268 1.2087 0.0685 1.4564 0.92346 2.1327 1.1996 0.94888 2.9308-0.89433 3.1441-0.72557-0.2823-0.47201-0.52662-0.76853-0.76954-1.0114-0.6659 0.4201-1.609 0.93539-2.3746 0.3298-0.35764-0.2829-0.69741-0.49391-0.92346-0.72557zm36.015 1.1873c-0.97467 0.07875-2.0074 0.21026-2.7924 0.02199-0.57092 0.17469-1.0835 0.51388-1.4951 1.1653-0.50458 2.3598-0.73987 4.716-2.5725 6.4642-1.0945 2.1588 0.30251 7.3672-3.1002 7.2337-1.7526-1.091-2.6017-3.8953-5.2109-2.7924-2.2711 0.75158-3.6361-2.6929-5.9585-1.4731-2.786 1.2396-2.9004 4.5125-3.1222 7.0798-0.31925-0.11547-0.50496-0.33985-0.59365-0.63762-0.13381 0.95217-0.13403 1.7816 0.59365 2.0448 0.2218-2.5674 0.33618-5.8402 3.1222-7.0798 2.3223-1.2198 3.6874 2.2247 5.9585 1.4731 2.6093-1.1029 3.4583 1.7014 5.2109 2.7924 3.4027 0.13342 2.0057-5.075 3.1002-7.2337 1.8326-1.7482 2.0679-4.1044 2.5725-6.4642 1.693-2.6792 5.1111-0.28872 7.1458-1.3632-0.07008-0.63925-0.39976-0.97859-0.87948-1.1433-0.61228 0.07806-1.2902-0.0017-1.9788-0.08795zm-32.695 3.7818c-0.43791 0.19752-0.6807 0.62943-0.92346 0.04397-0.22472 0.20412-0.23404 0.60294-0.13192 1.0114 0.29146 1.1658 0.54019 0.58418 1.0554 0.35179 0.72244-0.32587 0.42094-0.39964 0-1.4072zm2.6165 3.2101c-0.07893 0.41117-0.1039 0.83689-0.04397 1.2752 0.29027 1.0709 1.152 2.2004 1.4731 3.2761 0.54444-1.4103-0.95833-3.0365-1.4292-4.5513zm26.099 0.04397c-0.24544 0.04739 0.17387 0.52156 1.1873 1.3852 0.85196 0.72604 1.7617 1.5838 2.0228 1.8909 0.66733 0.7848 1.4249 0.61244 1.5171-0.32981 0.0393-0.4015 0.02418-0.59121-0.24186-0.79153-0.29578 0.3295-0.80603 0.26598-1.2752-0.28583-0.1088-0.12795-0.3767-0.38982-0.65961-0.65961-0.50998-0.25089-1.0011-0.50263-1.2972-0.70358-0.47942-0.32535-1.0469-0.54555-1.2533-0.5057zm-22.339 4.0676c-0.76624 0.03511-1.6379 0.50631-2.2207 1.1873 0.0031 0.64033-0.28427 1.2534-1.1433 1.8029-1.3228 1.187-0.47174 2.2557 0.57166 0.59365 0.67732-2.1119 4.2661-3.4514 4.4634-0.37378 0.07029-0.52372 0.11079-1.0141 0-1.4072-0.08632-1.3465-0.81421-1.8422-1.671-1.8029z" fill="#241c1c" opacity=".3"/>
<path d="m79.429 16.98c-1.2055 0.08186-1.4947 1.0457-0.82003 2.7413 0.32273 0.81115 1.7257 0.72971 2.179-0.11715 0.20229-0.37797 0.31521-1.0952 0.25773-1.5932-0.08217-0.71206-0.28986-0.9225-1.0309-1.0075-0.20916-0.02398-0.41352-0.03512-0.58574-0.02343zm-5.9511 5.4825c-0.14587 0.0178-0.18744 0.18661-0.18744 0.46859 0 0.29997-0.20907 0.39872-0.51545 0.28116-0.35881-0.13769-0.51218 0.04536-0.51545 0.60917-0.0025 0.43468-0.08416 1.1148-0.18744 1.4995-0.12472 0.46452 0.10989 1.0525 0.70289 1.7572 0.98606 1.1719 1.2266 1.2424 2.2961 0.67946 1.7157-0.9031 1.6945-2.6203-0.02343-4.1939-0.84721-0.77602-1.3267-1.1309-1.5698-1.1012zm12.558 4.9905c-0.67075 0-0.9198 0.64998-0.44516 1.1246 0.3594 0.3594 0.91121 0.05483 1.0309-0.56231 0.0731-0.37692-0.11698-0.56231-0.58574-0.56231zm-11.926 1.0075c-0.27942 0-0.49202 0.30688-0.49202 0.67946 0 0.37257 0.2126 0.67946 0.49202 0.67946 0.27943 0 0.51545-0.30689 0.51545-0.67946 0-0.37257-0.23602-0.67946-0.51545-0.67946zm6.8883 0.51545c-0.46105 0.04741-1.0393 0.09362-1.2652 0.11715-0.53137 0.05536-1.7572 2.7789-1.7572 3.8893 0 0.72433-0.15102 0.84347-0.98404 0.84347-0.86657 0-0.99271-0.10271-0.93718-0.91376 0.05615-0.82024-0.02445-0.91579-0.84346-0.82004-0.68114 0.07963-0.88405-0.0015-0.74975-0.35144 0.09984-0.26019-0.04903-0.6862-0.35145-0.93718-0.47474-0.394-0.63836-0.36351-1.1246 0.28116-0.44469 0.58955-0.636 0.67605-0.96061 0.35144-0.30384-0.30384-0.51858-0.32488-0.79661-0.04686-0.2069 0.20689-0.57199 0.29706-0.7966 0.21087-0.22461-0.08619-0.59258 0.07738-0.82004 0.35144-0.22746 0.27406-0.6396 0.40979-0.91375 0.30458-0.31353-0.12031-0.54775 0.05452-0.65603 0.46859-0.29357 1.1226-1.9075 0.85075-2.8116-0.46859-0.42123-0.61474-0.96548-1.1012-1.2183-1.1012-0.88811 0-0.43968 0.95758 1.0543 2.2727 1.1712 1.0309 1.4995 1.5687 1.4995 2.3664 0 1.1681-0.56547 1.7134-0.89032 0.86689-0.17173-0.44751-0.4945-0.52547-1.5932-0.37487-0.76004 0.10418-1.6061 0.04866-1.8744-0.11715-0.60919-0.37651-1.6635 0.52311-1.6635 1.4058 0 0.87694-0.55806 0.77341-1.2183-0.2343-0.5572-0.8504-0.57668-0.85253-1.2183-0.21087-0.61592 0.61592-0.62061 0.69147-0.09372 1.7104 0.41485 0.80224 0.46642 1.1868 0.18744 1.5229-0.20532 0.2474-0.44866 0.86138-0.53888 1.3589-0.09022 0.49754-0.37592 1.1022-0.6326 1.3589-0.25667 0.25667-0.43214 0.89915-0.37487 1.4058 0.14294 1.2647-0.34456 2.0855-1.1949 1.9915-0.91929-0.10159-1.1857 0.64152-0.32801 0.91376 0.85951 0.2728 1.1398 1.0763 0.65603 1.8509-0.81735 1.3088 1.3616 4.1266 4.1705 5.3888 1.6504 0.74163 4.8398 0.6724 6.0448-0.11715 0.56993-0.37343 1.1966-0.50971 1.7338-0.37487 0.72203 0.18122 0.84347 0.10861 0.84346-0.58574 0-1.0104 0.59456-1.6166 1.5698-1.6166 0.41328 0 0.84663-0.1436 0.96061-0.32801 0.11398-0.18442 0.56379-0.35144 1.0075-0.35144 0.45438 0 0.95254-0.26728 1.1481-0.6326 0.49623-0.92722 0.47414-0.98472-0.72632-1.1012-0.94698-0.09188-1.0983-0.22599-1.1715-1.148-0.04856-0.61172 0.11054-1.2372 0.39831-1.4761 0.64228-0.53304 0.64987-1.297 0-1.5464-0.28111-0.10787-0.79723-0.83087-1.1481-1.5932l-0.6326-1.3823 1.0543-0.35144c0.98998-0.34049 1.1113-0.3189 1.6635 0.58574 0.32677 0.53531 0.50543 1.1153 0.39831 1.2886-0.10713 0.17333 0.09617 0.32802 0.44516 0.32802 0.34899 0 0.72541 0.09281 0.84346 0.21087 0.11806 0.11805 0.88113 0.28219 1.6869 0.35144 1.2307 0.10577 1.649-0.04091 2.7178-0.89032 0.71983-0.57205 1.6472-1.7688 2.1087-2.7647 0.44858-0.96822 0.78605-1.8048 0.77318-1.8509-0.18918-0.67736 0.11577-1.1012 0.7966-1.1012 0.46573 0 1.3231-0.47217 2.0149-1.1246 1.1678-1.1014 1.2298-1.2309 1.1715-3.3504-0.05203-1.8914-0.18434-2.2956-0.93718-2.999-1.2096-1.1302-2.7294-1.8362-3.7253-1.7338zm-26.71 7.3569c-0.02526-0.0039-0.05848 0.01161-0.07029 0.02343-0.25557 0.25557 1.3265 2.4845 2.2258 3.1396 1.1124 0.81035 1.3432 0.6628 0.6326-0.42173-0.60722-0.92674-2.4092-2.6824-2.7881-2.7413zm19.4 8.7158c-0.05902 0.0068-0.12922 0.01553-0.21086 0.04686-0.29204 0.11207-0.53888 0.35882-0.53888 0.53888 0 0.44073 0.77011 0.17322 0.93719-0.32802 0.06125-0.18377-0.01038-0.27803-0.18744-0.25773zm0.96062 3.2099c-0.37973 0-0.70289 0.14359-0.70289 0.32801 0 0.18442 0.22627 0.32801 0.49202 0.32801 0.26575 0 0.56548-0.14359 0.67946-0.32801 0.11398-0.18442-0.08886-0.32801-0.46859-0.32801zm3.7253 0.02343c-0.15711-0.0024-0.35311 0.0039-0.58574 0.02343-0.6968 0.0584-1.3259 0.31949-1.4058 0.56231-0.10661 0.32428 0.17065 0.406 1.1012 0.32801 0.6968-0.0584 1.3494-0.29606 1.4292-0.53888 0.07995-0.24321-0.06754-0.36754-0.53888-0.37487zm0 5.0139c-0.1844-0.0043-0.35494 0.02313-0.53888 0.09372-0.53828 0.20656-0.74384 2.2902-0.32801 3.3739 0.13066 0.34049 0.62322 0.53888 1.3589 0.53888 0.91389 0 1.1985-0.17498 1.4526-0.84346 0.53869-1.4169-0.65382-3.1329-1.9447-3.163zm-2.6475 0.42173c-0.07475 0.01051-0.09372 0.10664-0.09372 0.30458 0 0.26848 0.08792 0.57994 0.21086 0.70289 0.31844 0.31844 0.79661 0.27693 0.79661-0.07029 0-0.16184-0.23881-0.4733-0.51545-0.70289-0.20396-0.16927-0.32355-0.2448-0.3983-0.23429z" fill="url(#linearGradient6277)"/>
<path d="m77.418 18.579c-0.20919 0.46466-0.15358 1.1721 0.21987 2.1108 0.32274 0.81115 1.7235 0.71493 2.1767-0.13192 0.20228-0.37797 0.32132-1.085 0.26384-1.5831-0.01639-0.14207-0.03633-0.24667-0.06596-0.35179-0.04622 0.2036-0.1233 0.38833-0.19788 0.52769-0.45323 0.84685-1.854 0.94308-2.1767 0.13192-0.0985-0.24756-0.16231-0.48769-0.21987-0.70358zm-6.2003 7.1238c-0.03049 0.21061-0.06917 0.41985-0.10994 0.57166-0.12472 0.46452 0.11059 1.0542 0.70358 1.759 0.36977 0.43945 0.63635 0.72511 0.87948 0.87948-0.01732-0.07006-0.04398-0.14183-0.04398-0.21987 2e-6 -0.37257 0.22628-0.6816 0.5057-0.6816 0.27943 0 0.5057 0.30902 0.5057 0.6816 0 0.09314-0.01748 0.18268-0.04397 0.26384 0.14795-0.05755 0.29125-0.14055 0.48371-0.24186 1.121-0.59004 1.516-1.5325 1.1653-2.5505-0.18569 0.4513-0.58844 0.83968-1.1653 1.1433-1.0695 0.56293-1.3006 0.49027-2.2866-0.6816-0.28252-0.33575-0.47393-0.64143-0.59365-0.92346zm13.852 2.7044c-0.67075 0-0.91438 0.6467-0.43974 1.1213 1.315 0.01871 1.0095-0.67714 0.43974-1.1213zm-11.917 1.0114c-0.27942 0-0.5057 0.30903-0.5057 0.6816 0.14167-6e-3 0.298 0.09147 0.5057 0.26384 0.10787 0.08952 0.17738 0.21121 0.24186 0.32981 0.15717-0.11696 0.26385-0.34084 0.26384-0.59365-3e-6 -0.37257-0.22627-0.6816-0.5057-0.6816zm-10.092 2.7044c-0.88811 1e-6 -0.46062 0.94958 1.0334 2.2647 0.83084 0.73133 1.241 1.2112 1.4072 1.715 0.05809-0.20216 0.10994-0.45554 0.10994-0.74756-2e-6 -0.45965-0.1233-0.84414-0.43974-1.2752-0.32902-0.1979-0.64156-0.47818-0.90147-0.85749-0.05729-0.08361-0.1151-0.1639-0.1759-0.24186-0.0083-0.0073-0.01376-0.01471-0.02199-0.02199-0.26715-0.23628-0.48417-0.45028-0.6816-0.65961-0.13852-0.09996-0.2431-0.1759-0.3298-0.17589zm21.635 2.4625c-0.05661 0.92474-0.31116 1.2172-1.1653 2.0228-0.6918 0.65245-1.5571 1.1213-2.0228 1.1213-0.68083 0-0.98071 0.42199-0.79153 1.0994 0.01287 0.04611-0.32096 0.90067-0.76955 1.8689-0.46142 0.99592-1.3909 2.1763-2.1108 2.7484-1.0688 0.84941-1.4957 1.0072-2.7264 0.90147-0.8058-0.06925-1.553-0.23374-1.671-0.35179-0.11806-0.11806-0.5085-0.21987-0.85749-0.21987-0.34899 0-0.54686-0.15648-0.43974-0.3298 0.10713-0.17334-0.069-0.73994-0.39577-1.2752-0.55222-0.90464-0.68103-0.93414-1.671-0.59365l-1.0554 0.35179 0.57166 1.2093 0.48372-0.15391c0.98998-0.34049 1.1188-0.31098 1.671 0.59365 0.32677 0.53531 0.5029 1.1019 0.39577 1.2752-0.0087 0.01405 0.0047 0.03024 0 0.04397 0.09821-0.0982 0.22776-0.18582 0.37378-0.24186 0.08164-0.03133 0.16085-0.03721 0.21987-0.04398 0.17706-0.02031 0.23715 0.05808 0.1759 0.24186-0.04516 0.13547-0.13571 0.25984-0.24186 0.35179 0.32056 0.01446 0.66191 0.09025 0.76955 0.19788 0.11806 0.11805 0.86521 0.28254 1.671 0.35179 1.2307 0.10577 1.6575-0.05205 2.7264-0.90147 0.71983-0.57205 1.6493-1.7525 2.1108-2.7484 0.44859-0.96822 0.78242-1.8228 0.76955-1.8689-0.18918-0.67736 0.1107-1.0994 0.79153-1.0994 0.46573 1e-6 1.331-0.46889 2.0228-1.1213 1.1678-1.1014 1.2236-1.2225 1.1653-3.342-9.78e-4 -0.03557 1e-3 -0.05341 0-0.08795zm-31.375 2.7044c-0.02526-0.0039-0.05415 0.01017-0.06596 0.02199-0.25558 0.25558 1.3214 2.4891 2.2207 3.1441 1.1124 0.81035 1.3482 0.66678 0.63762-0.41775-0.60722-0.92675-2.4134-2.6895-2.7924-2.7484zm3.6718 0.96743c-0.42881 0.45793-0.40279 0.63263 0.06596 1.5391 0.0439 0.08488 0.07414 0.1439 0.10994 0.21987 0.02216-0.03347 0.04442-0.08398 0.06596-0.10994 0.27898-0.33616 0.23895-0.71486-0.1759-1.5171-0.02823-0.05458-0.0408-0.08252-0.06596-0.13192zm15.743 7.7614c-0.05902 0.0068-0.13823 0.01264-0.21987 0.04397-0.29204 0.11207-0.52769 0.34763-0.52769 0.52769 2e-6 0.44073 0.75637 0.17143 0.92345-0.32981 0.06126-0.18377 0.0012-0.26216-0.1759-0.24185zm-1.8469 0.35179c-0.02894 0.02771-0.05583 0.0613-0.08795 0.08795-0.28777 0.23882-0.44432 0.86141-0.39577 1.4731 0.01687 0.21254 0.05399 0.36776 0.08795 0.5057 0.07008-0.24934 0.16936-0.45675 0.30782-0.57166 0.60804-0.50463 0.63687-1.2091 0.08795-1.4951zm-16.051 1.0334c-0.10839 0.02417-0.20491 0.05778-0.3298 0.04397-0.91929-0.10159-1.1875 0.62924-0.32981 0.90147 0.28453 0.09031 0.48675 0.25342 0.63762 0.43974 0.31654-0.50686 0.30789-1.0104 0.02199-1.3852zm18.843 1.8249c-0.37973 0-0.70358 0.14538-0.70358 0.3298 1e-6 0.18442 0.23995 0.30782 0.5057 0.30782 0.26575-2e-6 0.56762-0.1234 0.6816-0.30782 0.11398-0.18442-0.10398-0.3298-0.48371-0.3298zm3.7378 0.02199c-0.15711-0.0024-0.36102 0.0025-0.59365 0.02199-0.69679 0.0584-1.3273 0.30685-1.4072 0.54968-0.10661 0.32428 0.16881 0.40779 1.0994 0.3298 0.69679-0.0584 1.3493-0.28487 1.4292-0.52769 0.07995-0.2432-0.05635-0.36644-0.52769-0.37378zm-22.625 0.96743c-0.77487 1.3193 1.4083 4.1106 4.1995 5.3648 1.6504 0.74163 4.8414 0.67961 6.0464-0.10994 0.56993-0.37343 1.1998-0.50861 1.737-0.37378 0.72203 0.18122 0.83551 0.1007 0.83551-0.59365-4e-6 -1.0104 0.60784-1.6051 1.5831-1.6051 0.41329 2e-6 0.83146-0.14539 0.94544-0.3298 0.11398-0.18442 0.56772-0.35179 1.0114-0.35179 0.45438-1e-6 0.94781-0.2723 1.1433-0.63762 0.42657-0.79705 0.4289-0.95376-0.32981-1.0554-0.23439 0.16985-0.52726 0.28583-0.81352 0.28583-0.44368 0-0.89742 0.16737-1.0114 0.35179-0.11398 0.18442-0.53215 0.3298-0.94544 0.32981-0.97522-1e-6 -1.5831 0.59466-1.5831 1.6051 2e-6 0.69435-0.11348 0.77486-0.83551 0.59365-0.53722-0.13483-1.167 3.46e-4 -1.737 0.37378-1.205 0.78954-4.396 0.85157-6.0464 0.10994-2.0093-0.90289-3.7011-2.5845-4.1995-3.9577zm19.964 4.4634c-0.07475 0.01051-0.08795 0.10988-0.08795 0.30782 2e-6 0.26848 0.09692 0.58064 0.21987 0.70358 0.31844 0.31844 0.79153 0.28126 0.79153-0.06596 0-0.16184-0.25105-0.474-0.52769-0.70358-0.20396-0.16927-0.32101-0.25237-0.39576-0.24186zm1.6051 0.85749c-0.09578 0.7189-0.05073 1.5861 0.1759 2.1767 0.13066 0.34048 0.6275 0.54968 1.3632 0.54968 0.91389-1e-6 1.197-0.16703 1.4511-0.83551 0.17982-0.47295 0.14524-0.98535 0-1.4511-0.0045 0.01249 0.0047 0.03153 0 0.04397-0.25416 0.66848-0.53726 0.83551-1.4511 0.83551-0.73569 4e-6 -1.2325-0.20919-1.3632-0.54968-0.08603-0.22418-0.1405-0.48524-0.1759-0.76954z" opacity=".2"/>
<path transform="matrix(.70358 0 0 .70358 -53.384 1.9628)" d="m179.03 38.031c-0.10802 0.62241-0.43407 1.3638-0.875 2.375 0.5542-0.35509 1.2369-0.74477 1.4062-0.96875 0.2433-0.32186 0.25746-0.38894 0.25-0.34375-7e-3 0.04519 0.0292 0.0147-0.15625-0.40625a1.9104 1.9104 0 0 1-0.03125-0.0625c-0.0421-0.10638-0.0617-0.23413-0.0937-0.34375-7e-3 -0.02178-0.41039-0.17531-0.5-0.25zm-13.094 2.6875c-1.1926 0.2719-2.4465 0.56848-3 0.84375-0.36697 0.18252-0.40002 0.2235-0.40625 0.21875a1.9104 1.9104 0 0 1-0.0937 0.5625c-3e-3 1.3048-0.33661 2.6051-1.2188 3.7188 1.2817-0.61345 2.7012-0.84291 4.0938-0.59375 3.3828 0.63075 5.1894 3.2917 5.9062 3.9688 0.18066 0.17065 0.0541 0.0959 0.15625 0.15625 0.10919-0.06238 0.1974-0.13652 0.3125-0.1875a1.9104 1.9104 0 0 1 0.0312 0c0.6184-0.26462 0.73699-0.47973 1.3125-1.8438 0.36387-0.86241 0.89621-2.2276 1.6875-3.6562-1.0624 0.43218-2.2143 0.65426-3.375 0.40625-1.7946-0.38344-2.9811-1.4409-3.7188-2.0938-0.76409-0.67628-1.3868-1.2807-1.6875-1.5zm-6.6875 6.9062c-0.90656 0.41078-1.8141 0.64273-2.5625 0.6875-1.5284 0.09143-2.8188-0.13394-3.875-0.375-0.18454 0.17132-0.18945 0.16352-0.53125 0.5-0.40805 0.4017-1.1582 0.95474-2.0625 1.4062-0.62366 2.7741-1.6498 5.1192-2.0938 6.7812-8e-3 0.03961-0.0215 0.08562-0.0312 0.125a1.9104 1.9104 0 0 1-0.0625 0.1875c-0.47149 1.2669-0.79653 2.755-0.78125 3.75 0.0166 1.0819 0.12431 1.3835 0.6875 1.875a1.9104 1.9104 0 0 1 0.0937 0.0625c6e-3 0.0055-6e-3 0.02582 0 0.03125 0.0165 0.0163 0.0469 0.01524 0.0625 0.03125 1.7362 1.5915 5.1037 2.0174 7.0938 0.875 0.12545-0.07223 0.24199-0.13049 0.375-0.1875 2.2825-0.97236 3.3422-1.984 3.7812-2.8438 0.46188-0.90454 0.59654-1.9403-0.1875-4.1875h0.0312c-1.1857-1.7666-1.814-3.8957-1.3438-6.0312 0.20395-0.92611 0.72546-1.8408 1.4062-2.6875z" filter="url(#filter3756)" opacity="0"/>
<path d="m30.262 33.905c-1.1638 1.0619-3.0417 0.90209-4.2505 0.0019-1.6285-0.6778-3.2634-1.3431-4.9296-1.9237-1.2933-0.24194-2.6156 1.1718-2.1092 2.4401 0.32448 1.7849 0.94767 3.6279 0.45202 5.4427-0.40246 1.0393-1.3696 1.9303-1.2248 3.1273 0.38576 1.015 1.9237 0.97748 2.5122 0.17457 0.92849-1.058 1.2684-2.5603 0.95694-3.9252-0.12264-0.84317 0.0863-1.8352 0.87229-2.2965 0.98624-0.69014 2.2574-0.5764 3.3785-0.3835 0.80526 0.01164 1.7774-0.27031 2.4056 0.3995 0.70454 0.65082 1.8817 0.89362 2.6634 0.23412 0.63079-0.58437 1.7828-0.98982 1.9382-1.8511-0.25281-0.75727-1.1747-0.90578-1.6914-1.4397-0.28483-0.207-0.712-0.30143-0.97362-3.34e-4z" fill="url(#linearGradient6285)" fill-rule="evenodd" opacity=".8"/>
<path d="m71.366 66.097c-1.4329-0.31218-2.7847-0.91426-4.0561-1.6322-0.42537-0.16558-0.93352-0.50781-1.3776-0.22457-0.4242 0.57969 0.11102 1.3229 0.14802 1.9567 0.08461 0.71969 0.68639 1.376 0.44793 2.1307-0.3064 0.76806-1.1138 1.1254-1.7614 1.555-0.57988 0.17289-1.3117 0.54924-1.2755 1.2554-0.01056 0.66991-0.08175 1.3532 0.08685 2.0105 0.46457 0.58536 1.2853 0.37379 1.9164 0.57948 1.7203 0.10129 3.2998-0.72362 4.7717-1.5091 0.66494-0.29116 1.3768-0.54355 1.8751-1.1 1.0974-1.0635 1.7685-2.6861 1.4139-4.2099-0.24744-0.66696-1.1924-0.63254-1.4241-0.01116-0.44019 0.10555-0.50296-0.59539-0.76525-0.80085z" fill="url(#linearGradient6287)" fill-rule="evenodd"/>
</g>
<rect transform="matrix(1.0692 0 0 1.0477 4.4442 38.894)" x="2" y="-30" width="75.966" height="69.024" rx="3.957" ry="3.957" clip-path="url(#clipPath4156-4-1)" fill="url(#linearGradient4767)" opacity=".598"/>
</g>
</g>
</g>
</svg>
