<?xml version="1.0" encoding="UTF-8"?>
<svg version="1.1" viewBox="0 0 32 32" xmlns="http://www.w3.org/2000/svg" xmlns:cc="http://creativecommons.org/ns#" xmlns:dc="http://purl.org/dc/elements/1.1/" xmlns:rdf="http://www.w3.org/1999/02/22-rdf-syntax-ns#" xmlns:xlink="http://www.w3.org/1999/xlink">
<script xlink:href=""/>
<defs>
<linearGradient id="linearGradient21139" x1="6" x2="90" y1="47" y2="47" gradientTransform="matrix(.36905 0 0 .36905 -25.519 -35.513)" gradientUnits="userSpaceOnUse">
<stop stop-color="#b7b7b7" offset="0"/>
<stop stop-color="#fff" offset=".25"/>
<stop stop-color="#9d9d9d" offset=".5"/>
<stop stop-color="#fafafa" offset=".75"/>
<stop stop-color="#b7b7b7" offset="1"/>
</linearGradient>
<radialGradient id="radialGradient21141" cx="158" cy="6.2132" r="41" gradientTransform="matrix(0 1.6209 -2.0383 0 160.66 -243.04)" gradientUnits="userSpaceOnUse">
<stop stop-color="#fff" offset="0"/>
<stop stop-color="#fff" stop-opacity="0" offset="1"/>
</radialGradient>
<radialGradient id="radialGradient21143" cx="48" cy="-27" r="42" gradientTransform="matrix(-1.0722 0 0 -.87502 199.46 -19.126)" gradientUnits="userSpaceOnUse">
<stop stop-color="#fff" offset="0"/>
<stop stop-color="#fff" offset=".8"/>
<stop stop-color="#fff" stop-opacity="0" offset="1"/>
</radialGradient>
<linearGradient id="linearGradient21145" x1="-94" x2="-10.188" y1="82.984" y2="82.984" gradientTransform="matrix(1 0 0 .88906 200 8.9432)" gradientUnits="userSpaceOnUse">
<stop offset="0"/>
<stop stop-opacity=".58824" offset=".1"/>
<stop stop-opacity=".58824" offset=".9"/>
<stop offset="1"/>
</linearGradient>
<radialGradient id="radialGradient21147" cx="543.14" cy="-263.57" r="45.212" gradientTransform="matrix(.32393 0 0 .27209 -183.67 51.558)" gradientUnits="userSpaceOnUse">
<stop stop-color="#0e4688" offset="0"/>
<stop stop-color="#135eb7" offset="1"/>
</radialGradient>
<linearGradient id="linearGradient21149" x1="2.4652" x2="59.378" y1=".27862" y2=".27862" gradientTransform="matrix(.32504 0 0 .32554 -12.505 -20.282)" gradientUnits="userSpaceOnUse">
<stop stop-color="#fff" offset="0"/>
<stop stop-color="#fff" stop-opacity="0" offset="1"/>
</linearGradient>
<linearGradient id="linearGradient21151" x1="6" x2="90" y1="47" y2="47" gradientTransform="matrix(.36905 0 0 .36905 -25.519 -35.513)" gradientUnits="userSpaceOnUse">
<stop stop-color="#fff" stop-opacity="0" offset="0"/>
<stop stop-color="#fff" stop-opacity=".85135" offset=".036815"/>
<stop stop-color="#fff" stop-opacity="0" offset=".065061"/>
<stop stop-color="#fff" stop-opacity="0" offset=".94494"/>
<stop stop-color="#fff" stop-opacity=".85135" offset=".96582"/>
<stop stop-color="#fff" stop-opacity="0" offset="1"/>
</linearGradient>
</defs>
<metadata>
<rdf:RDF>
<cc:Work rdf:about="">
<dc:format>image/svg+xml</dc:format>
<dc:type rdf:resource="http://purl.org/dc/dcmitype/StillImage"/>
<dc:title/>
</cc:Work>
</rdf:RDF>
</metadata>
<g transform="translate(0,32)">
<g transform="translate(23.455 1.8182)">
<g transform="translate(.35 .35001)">
<path d="m5.4812-33.668h-26.571c-1.2267 0-2.2143 0.98757-2.2143 2.2143v26.571c0 1.2267 0.98757 2.2143 2.2143 2.2143h26.571c1.2267 0 2.2143-0.98757 2.2143-2.2143v-26.571c0-1.2267-0.98757-2.2143-2.2143-2.2143z" fill="url(#linearGradient21139)"/>
<g transform="matrix(.36905 0 0 .36905 -62.424 -35.329)">
<path d="m112 5.5c-2.7873 0-5 2.2127-5 5v66.312c1.0707 1.6288 2.8969 2.7188 5 2.7188h72c2.1031 0 3.9293-1.09 5-2.7188v-66.312c0-2.7873-2.2127-5-5-5z" fill="url(#radialGradient21141)" opacity=".2"/>
<path d="m112 4.5c-3.324 0-6 2.676-6 6v15h1v-15c0-2.7873 2.2127-5 5-5h72c2.7873 0 5 2.2127 5 5v15h1v-15c0-3.324-2.676-6-6-6z" fill="url(#radialGradient21143)" opacity=".45"/>
<path d="m106 76.942v6.2234c0 2.9552 2.676 5.3344 6 5.3344h72c3.324 0 6-2.3791 6-5.3344v-6.2234c0 2.9552-2.676 5.3344-6 5.3344h-72c-3.324 0-6-2.3791-6-5.3344z" fill="url(#linearGradient21145)" opacity=".46965"/>
</g>
<g transform="matrix(.32056 0 0 .34193 -24.353 -32.836)">
<circle transform="matrix(1.2467 0 0 1.0634 -54.59 -6.5568)" cx="70.373" cy="79.209" r="2.791" fill="#1c1c1c" opacity=".71"/>
<circle transform="matrix(1.0374 0 0 .91042 -39.857 5.3629)" cx="70.373" cy="79.209" r="2.791" fill="#fff"/>
<circle transform="matrix(.70317 0 0 .6171 -16.336 28.596)" cx="70.373" cy="79.209" r="2.791" fill="#114751"/>
<circle transform="matrix(1.2467 0 0 1.0634 -20.114 -6.5568)" cx="70.373" cy="79.209" r="2.791" fill="#1c1c1c" opacity=".71"/>
<circle transform="matrix(1.0374 0 0 .91042 -5.3813 5.3629)" cx="70.373" cy="79.209" r="2.791" fill="#fff"/>
<circle transform="matrix(.70317 0 0 .6171 18.139 28.596)" cx="70.373" cy="79.209" r="2.791" fill="#114751"/>
<rect transform="matrix(1.014 0 0 .95205 3.1886 -2.9106)" x="40.449" y="83.596" width="12.674" height="3.236" rx="1.1481" ry="1.1481" fill="#0c2f31" fill-opacity=".90454" opacity=".75097" stroke="#fff" stroke-width=".4999"/>
</g>
<path d="m-20.833-14.886c-0.61064 0-1.1822 0.29742-1.5416 0.73591v4.8878c0 0.77888 0.68756 1.4059 1.5416 1.4059h26.207c0.85405 0 1.5416-0.62704 1.5416-1.4059v-4.8878c-0.35944-0.43849-0.93097-0.73591-1.5416-0.73591zm0 1.0544h26.207c0.44036 0 0.77081 0.30136 0.77081 0.70296v3.8663c0 0.4016-0.33045 0.70296-0.77081 0.70296h-26.207c-0.44036 0-0.7708-0.30136-0.7708-0.70296v-3.8663c0-0.4016 0.33045-0.70296 0.7708-0.70296z" color="#000000" opacity=".02" style="text-decoration-line:none;text-indent:0;text-transform:none"/>
<path d="m-20.833-32.46h26.207c0.85405 0 1.5416 0.62704 1.5416 1.4059v21.792c0 0.77888-0.68756 1.4059-1.5416 1.4059h-26.207c-0.85405 0-1.5416-0.62704-1.5416-1.4059v-21.792c0-0.77888 0.68756-1.4059 1.5416-1.4059z" color="#000000" fill="url(#radialGradient21147)"/>
<g transform="matrix(.49825 0 0 .49825 -19.264 -532.26)">
<path transform="translate(0,1004.4)" d="m26.113 2-7.113 0.6777v29.021l7.037-1.054v-12.374l9.469 13.729 7.418-2.334-9.697-13.201 9.773-12.447-7.57-1.7172-9.393 12.449 0.076-12.75zm-15.511 7.002c-0.082 0.01-0.171 0.0298-0.233 0.0918l-2.8417 2.8242c-0.1193 0.119-0.1345 0.301-0.0468 0.445l3.3205 5.448c-0.59 0.984-1.0674 2.04-1.4045 3.16l-6.1035 1.258c-0.1698 0.034-0.293 0.196-0.293 0.369v3.99c0 0.169 0.1286 0.312 0.293 0.351l5.9179 1.428c0.3164 1.297 0.8041 2.538 1.4511 3.668l-3.4296 5.186c-0.0956 0.145-0.0764 0.338 0.0469 0.461l2.8417 2.822c0.12 0.119 0.305 0.134 0.449 0.047l5.375-3.239c1.055 0.605 2.196 1.09 3.399 1.413l1.252 5.984c0.035 0.169 0.181 0.291 0.355 0.291h4.018c0.168 0 0.315-0.112 0.355-0.275l1.483-6.016c1.24-0.332 2.408-0.825 3.49-1.457l5.301 3.451c0.146 0.094 0.339 0.076 0.463-0.045l2.826-2.822c0.12-0.119 0.15-0.302 0.062-0.445l-1.931-3.162-0.633 0.201c-0.092 0.028-0.194-0.015-0.248-0.094 0 0-1.219-1.781-2.811-4.096-1.904 3.7-5.786 6.229-10.258 6.229-6.354 0-11.509-5.119-11.509-11.43 0-4.642 2.794-8.631 6.796-10.42v-2.945c-0.728 0.253-1.43 0.558-2.099 0.92-1e-3 -1e-3 1e-3 -0.015 0-0.016l-5.424-3.5272c-0.073-0.048-0.149-0.0568-0.23-0.0488z" color="#31363b" fill="#e9f0f9"/>
<path transform="translate(0,1004.4)" d="m26.113 2-7.113 0.6777v1l7.107-0.6777zm9.317 0.3008-9.387 12.441-6e-3 1.008 9.393-12.449 6.904 1.5662 0.666-0.8496-7.57-1.7168zm-24.828 6.7012c-0.082 0.01-0.171 0.0298-0.233 0.0918l-2.8417 2.8242c-0.1193 0.119-0.1345 0.301-0.0468 0.445l0.2285 0.375 2.66-2.644c0.062-0.062 0.151-0.082 0.233-0.092 0.081-8e-3 0.157 1e-3 0.23 0.049l5.424 3.527c1e-3 1e-3 -1e-3 0.015 0 0.016 0.669-0.362 1.371-0.667 2.099-0.92v-1c-0.728 0.253-1.43 0.558-2.099 0.92-1e-3 -1e-3 1e-3 -0.015 0-0.016l-5.424-3.5272c-0.073-0.048-0.149-0.0568-0.23-0.0488zm23.003 7.98-0.378 0.483 9.101 12.389 0.596-0.188zm-23.095 1.35c-0.455 0.834-0.8348 1.713-1.1135 2.639l-6.1035 1.258c-0.1698 0.034-0.293 0.196-0.293 0.369v1c0-0.173 0.1232-0.335 0.293-0.369l6.1035-1.258c0.3371-1.12 0.8145-2.176 1.4045-3.16zm1.07 7.141c-9e-3 0.188-0.021 0.376-0.021 0.566 0 6.311 5.155 11.43 11.509 11.43 4.472 0 8.354-2.529 10.258-6.229 1.592 2.315 2.811 4.096 2.811 4.096 0.054 0.079 0.156 0.122 0.248 0.094l0.633-0.201 1.697 2.779 0.172-0.172c0.12-0.119 0.15-0.302 0.062-0.445l-1.931-3.162-0.633 0.201c-0.092 0.028-0.194-0.015-0.248-0.094 0 0-1.219-1.781-2.811-4.096-1.904 3.7-5.786 6.229-10.258 6.229-6.206 0-11.256-4.888-11.488-10.996zm-1.211 7.006-3.1366 4.742c-0.0956 0.145-0.0764 0.338 0.0469 0.461l0.1875 0.185 3.1952-4.832c-0.104-0.181-0.197-0.37-0.293-0.556z" color="#31363b" fill="#fff" opacity=".54167"/>
<path d="m26.107 1006.4-0.07031 11.75 0.0059-0.01 0.07031-11.742h-0.0059zm16.227 1.8672-9.1074 11.598 0.37891 0.5176 9.394-12-0.66602-0.1504zm-34.625 7.8711-0.18164 0.1797c-0.11938 0.119-0.13452 0.3012-0.046875 0.4453l3.0293 4.9687c0.09534-0.1749 0.18878-0.3508 0.29102-0.5215l-3.0918-5.0722zm10.646 1.8808c-4.0024 1.789-6.7969 5.7775-6.7969 10.42 0 0.1464 0.01598 0.2885 0.02148 0.4336 0.21722-4.3982 2.9371-8.1379 6.7754-9.8536v-1zm7.6816 3.6524v1l9.4688 13.728 7.418-2.334-0.5957-0.8125-6.8223 2.1465zm-23.037 8.2v1c0 0.1687 0.1286 0.3118 0.29297 0.3516l5.918 1.4277c0.26558 1.0883 0.65828 2.1339 1.1582 3.1113l0.29297-0.4433c-0.64699-1.1301-1.1348-2.3715-1.4512-3.668l-5.918-1.4277c-0.1642-0.1-0.2928-0.3-0.2928-0.4zm23.037 4.0566-7.0371 1.0547v1l7.0371-1.0547zm4.2598 6.6075c-1.0817 0.6324-2.2499 1.1249-3.4902 1.457l-1.4824 6.0156c-0.04004 0.1638-0.18689 0.2754-0.35547 0.2754h-4.0176c-0.17389 0-0.32037-0.1219-0.35547-0.291l-1.252-5.9844c-1.2026-0.3225-2.344-0.8075-3.3984-1.4121l-5.375 3.2383c-0.1446 0.087-0.32946 0.072-0.44922-0.047l-2.6543-2.6367-0.23438 0.3535c-0.095658 0.1449-0.076452 0.3387 0.046875 0.4609l2.8418 2.8223c0.11976 0.1186 0.30462 0.1342 0.44922 0.047l5.375-3.2383c1.0545 0.6046 2.1958 1.0896 3.3984 1.4121l1.252 5.9844c0.0351 0.1691 0.18158 0.291 0.35547 0.291h4.0176c0.16858 0 0.31542-0.1116 0.35547-0.2754l1.4824-6.0156c1.2403-0.3321 2.4086-0.8246 3.4902-1.457l5.3008 3.4511c0.14608 0.094 0.33905 0.076 0.46289-0.045l2.8262-2.8223c0.12012-0.1191 0.15049-0.3016 0.0625-0.4453l-0.23438-0.3828-2.6543 2.6504c-0.12384 0.121-0.31681 0.1389-0.46289 0.045l-5.3008-3.4511z" color="#31363b" fill="#0c1e2f" opacity=".61458"/>
</g>
<path d="m-20.602-32.196h25.596c0.83412 0 1.5056 0.61263 1.5056 1.3736v21.291c0 0.76098-0.67151 1.3736-1.5056 1.3736h-25.596c-0.83412 0-1.5056-0.61263-1.5056-1.3736v-21.291c0-0.76098 0.67151-1.3736 1.5056-1.3736z" color="#000000" fill="none" stroke="#000" stroke-opacity=".7758" stroke-width=".74192"/>
<path d="m-11.704-32.493c2.6981 8.4818 5.5018 16.764 8.3463 24.604h8.6113c0.85405 0 1.5416-0.62704 1.5416-1.4059v-21.792c0-0.77888-0.68755-1.4059-1.5416-1.4059z" color="#000000" fill="url(#linearGradient21149)" opacity=".30882"/>
<path d="m5.4812-33.668h-26.571c-1.2267 0-2.2143 0.98757-2.2143 2.2143v26.571c0 1.2267 0.98758 2.2143 2.2143 2.2143h26.571c1.2267 0 2.2143-0.98757 2.2143-2.2143v-26.571c0-1.2267-0.98757-2.2143-2.2143-2.2143z" fill="url(#linearGradient21151)"/>
</g>
</g>
</g>
</svg>
