<?xml version="1.0" encoding="UTF-8"?>
<svg version="1.1" viewBox="0 0 32 32" xmlns="http://www.w3.org/2000/svg" xmlns:cc="http://creativecommons.org/ns#" xmlns:dc="http://purl.org/dc/elements/1.1/" xmlns:rdf="http://www.w3.org/1999/02/22-rdf-syntax-ns#" xmlns:xlink="http://www.w3.org/1999/xlink">
<script xlink:href=""/>
<defs>
<linearGradient id="linearGradient5187" x1="6" x2="90" y1="47" y2="47" gradientTransform="matrix(1.1393 0 0 1.1393 -8.3221 -17.728)" gradientUnits="userSpaceOnUse">
<stop stop-color="#b7b7b7" offset="0"/>
<stop stop-color="#fff" offset=".25"/>
<stop stop-color="#9d9d9d" offset=".5"/>
<stop stop-color="#fafafa" offset=".75"/>
<stop stop-color="#b7b7b7" offset="1"/>
</linearGradient>
<radialGradient id="radialGradient5189" cx="158" cy="6.2132" r="41" gradientTransform="matrix(0 1.6209 -2.0383 0 160.66 -243.04)" gradientUnits="userSpaceOnUse">
<stop stop-color="#fff" offset="0"/>
<stop stop-color="#fff" stop-opacity="0" offset="1"/>
</radialGradient>
<radialGradient id="radialGradient5191" cx="48" cy="-27" r="42" gradientTransform="matrix(-1.0722 0 0 -.87502 199.46 -19.126)" gradientUnits="userSpaceOnUse">
<stop stop-color="#fff" offset="0"/>
<stop stop-color="#fff" offset=".8"/>
<stop stop-color="#fff" stop-opacity="0" offset="1"/>
</radialGradient>
<linearGradient id="linearGradient5193" x1="-94" x2="-10.188" y1="82.984" y2="82.984" gradientTransform="matrix(1 0 0 .88906 200 8.9432)" gradientUnits="userSpaceOnUse">
<stop offset="0"/>
<stop stop-opacity=".58824" offset=".1"/>
<stop stop-opacity=".58824" offset=".9"/>
<stop offset="1"/>
</linearGradient>
<linearGradient id="linearGradient5195" x1="3.0218" x2="79.99" y1="-24.69" y2="25.856" gradientTransform="translate(4.1818 21.273)" gradientUnits="userSpaceOnUse">
<stop stop-color="#cbdbfc" stop-opacity=".99608" offset="0"/>
<stop stop-color="#fafbff" stop-opacity=".99608" offset=".52925"/>
<stop stop-color="#d4defa" offset="1"/>
</linearGradient>
<linearGradient id="linearGradient5197" x1="6" x2="90" y1="47" y2="47" gradientTransform="matrix(1.1393 0 0 1.1393 -8.3221 -17.728)" gradientUnits="userSpaceOnUse">
<stop stop-color="#fff" stop-opacity="0" offset="0"/>
<stop stop-color="#fff" stop-opacity=".85135" offset=".036815"/>
<stop stop-color="#fff" stop-opacity="0" offset=".065061"/>
<stop stop-color="#fff" stop-opacity="0" offset=".94494"/>
<stop stop-color="#fff" stop-opacity=".85135" offset=".96582"/>
<stop stop-color="#fff" stop-opacity="0" offset="1"/>
</linearGradient>
<linearGradient id="linearGradient5199" x1="2.4652" x2="59.378" y1=".27862" y2=".27862" gradientTransform="matrix(1.0034 0 0 1.005 31.853 29.291)" gradientUnits="userSpaceOnUse">
<stop stop-color="#fff" offset="0"/>
<stop stop-color="#fff" stop-opacity="0" offset="1"/>
</linearGradient>
</defs>
<metadata>
<rdf:RDF>
<cc:Work rdf:about="">
<dc:format>image/svg+xml</dc:format>
<dc:type rdf:resource="http://purl.org/dc/dcmitype/StillImage"/>
<dc:title/>
</cc:Work>
</rdf:RDF>
</metadata>
<g transform="translate(0,32)">
<g transform="translate(1.6364 -19.818)">
<g transform="matrix(.32393 0 0 .32393 -.65489 -7.7844)">
<path d="m87.378-12.032h-82.029c-3.787 0-6.8357 3.0487-6.8357 6.8357v82.029c0 3.787 3.0487 6.8357 6.8357 6.8357h82.029c3.787 0 6.8357-3.0487 6.8357-6.8357v-82.029c0-3.787-3.0487-6.8357-6.8357-6.8357z" fill="url(#linearGradient5187)"/>
<g transform="matrix(1.1393 0 0 1.1393 -122.25 -17.159)">
<path d="m112 5.5c-2.7873 0-5 2.2127-5 5v66.312c1.0707 1.6288 2.8969 2.7188 5 2.7188h72c2.1031 0 3.9293-1.09 5-2.7188v-66.312c0-2.7873-2.2127-5-5-5z" fill="url(#radialGradient5189)" opacity=".2"/>
<path d="m112 4.5c-3.324 0-6 2.676-6 6v15h1v-15c0-2.7873 2.2127-5 5-5h72c2.7873 0 5 2.2127 5 5v15h1v-15c0-3.324-2.676-6-6-6z" fill="url(#radialGradient5191)" opacity=".45"/>
<path d="m106 76.942v6.2234c0 2.9552 2.676 5.3344 6 5.3344h72c3.324 0 6-2.3791 6-5.3344v-6.2234c0 2.9552-2.676 5.3344-6 5.3344h-72c-3.324 0-6-2.3791-6-5.3344z" fill="url(#linearGradient5193)" opacity=".46965"/>
</g>
<g transform="matrix(.98961 0 0 1.0556 -4.7238 -9.4619)">
<circle transform="matrix(1.2467 0 0 1.0634 -54.59 -6.5568)" cx="70.373" cy="79.209" r="2.791" fill="#1c1c1c" opacity=".71"/>
<circle transform="matrix(1.0374 0 0 .91042 -39.857 5.3629)" cx="70.373" cy="79.209" r="2.791" fill="#fff"/>
<circle transform="matrix(.70317 0 0 .6171 -16.336 28.596)" cx="70.373" cy="79.209" r="2.791" fill="#114751"/>
<circle transform="matrix(1.2467 0 0 1.0634 -20.114 -6.5568)" cx="70.373" cy="79.209" r="2.791" fill="#1c1c1c" opacity=".71"/>
<circle transform="matrix(1.0374 0 0 .91042 -5.3813 5.3629)" cx="70.373" cy="79.209" r="2.791" fill="#fff"/>
<circle transform="matrix(.70317 0 0 .6171 18.139 28.596)" cx="70.373" cy="79.209" r="2.791" fill="#114751"/>
<rect transform="matrix(1.014 0 0 .95205 3.1886 -2.9106)" x="40.449" y="83.596" width="12.674" height="3.236" rx="1.1481" ry="1.1481" fill="#0c2f31" fill-opacity=".90454" opacity=".75097" stroke="#fff" stroke-width=".4999"/>
</g>
<path d="m6.1446 45.95c-1.8851 0-3.6495 0.91815-4.7591 2.2718v15.089c0 2.4045 2.1226 4.3402 4.7591 4.3402h80.905c2.6365 0 4.7591-1.9357 4.7591-4.3402v-15.089c-1.1096-1.3537-2.874-2.2718-4.7591-2.2718zm0 3.2552h80.905c1.3594 0 2.3796 0.93033 2.3796 2.1701v11.936c0 1.2398-1.0201 2.1701-2.3796 2.1701h-80.905c-1.3594 0-2.3796-0.93033-2.3796-2.1701v-11.936c0-1.2398 1.0201-2.1701 2.3796-2.1701z" color="#000000" opacity=".02" style="text-decoration-line:none;text-indent:0;text-transform:none"/>
<path d="m6.1446-8.3028h80.905c2.6365 0 4.7591 1.9357 4.7591 4.3402v67.273c0 2.4045-2.1226 4.3402-4.7591 4.3402h-80.905c-2.6365 0-4.7591-1.9357-4.7591-4.3402v-67.273c0-2.4045 2.1226-4.3402 4.7591-4.3402z" color="#000000" fill="url(#linearGradient5195)" opacity=".865"/>
<path d="m7.0887-7.5016h79.017c2.575 0 4.648 1.8912 4.648 4.2405v65.727c0 2.3492-2.073 4.2405-4.648 4.2405h-79.017c-2.575 0-4.648-1.8912-4.648-4.2405v-65.727c0-2.3492 2.073-4.2405 4.648-4.2405z" color="#000000" fill="none" stroke="#000" stroke-opacity=".7758" stroke-width="2.2904"/>
<path d="m87.378-12.032h-82.029c-3.787 0-6.8357 3.0487-6.8357 6.8357v82.029c0 3.787 3.0487 6.8357 6.8357 6.8357h82.029c3.787 0 6.8357-3.0487 6.8357-6.8357v-82.029c0-3.787-3.0487-6.8357-6.8357-6.8357z" fill="url(#linearGradient5197)" opacity=".72794"/>
<g transform="matrix(1.2987 0 0 1.2987 8.6127 121.11)">
<g transform="matrix(.26901 0 0 .26901 5.7944 -100.41)" fill="#fff">
<path transform="matrix(3.7173 0 0 3.7173 -20.188 331.68)" d="m36.879-79.51c0.99368 0.662 1.9697 1.5658 2.8945 2.7578l1.3184 0.18359c-1.3492-1.5038-2.7861-2.4429-4.2129-2.9414zm-29.193 2.1816c-0.038584 0.1221-0.068834 0.24184-0.10547 0.36328l20.102 14.463 2.7852 1.5664zm24.346 0.21289c-2.4488 0.01423-4.3583 1.5356-5.4531 3.4082-0.41062 1.6945-0.25902 3.551 0.69141 5.3262l0.83203 1.3066c-2.0624-3.2146 1.8684-10.868 8.2148-8.627-1.5487-1.0014-2.992-1.4216-4.2852-1.4141zm6.2422 2.3848c0.4454 0.28524 0.89917 0.61325 1.3613 1h16.645l-7.1758-1zm-28.805 2.1191c-0.57198 3.6512-0.32976 7.2288 3.8242 10.803 0.64961 0.4878 1.3884 0.80454 2.1289 1.082-0.0417-0.02962-0.08792-0.05125-0.12891-0.08203-4.1102-3.5363-4.3865-7.0763-3.8379-10.688zm29.152 3.3535c-0.82538 0.77867-1.224 3.4228-0.9082 5.9199 1.0084 2.2494 2.3442 4.7397 3.4414 7.416 0.34074 0.83114 0.68548 1.6793 0.83984 2.8086 0.15944 1.4383 0.1669 2.4628-0.08008 3.6191-0.99615 4.6639-4.669 7.1074-5.957 7.9258-4.4915 2.5224-8.4612 2.3936-12.365 1.7422l-0.69141 1.4902v5.3105l2.6914-5.8008c3.9041 0.65143 7.8737 0.78017 12.365-1.7422 1.2881-0.81835 4.9609-3.2619 5.957-7.9258 0.24698-1.1564 0.23952-2.1808 0.08008-3.6191-0.15436-1.1293-0.49911-1.9775-0.83984-2.8086-2.4271-5.9202-6.1086-11-4.5332-14.336zm-27.051 9.3398c1.0056 4.4431 3.0064 6.295 5.4219 7.0723-1.501-1.088-2.7108-2.9305-3.4219-6.0723l15.131 2.4375c-2.6094-0.61985-4.6482-1.1555-6.6797-1.7539zm1.7402 6.9336c1.542 1.076 3.6685 1.6849 6.6895 1.7578l1.7246-0.125c-1.3075-0.09773-2.5639-0.33156-3.6992-0.87695l-0.025391 0.001954c-1.8922-0.04564-3.4227-0.30846-4.6895-0.75781z" fill="#fff" fill-opacity=".38538" fill-rule="evenodd" stroke-width="0"/>
</g>
<g transform="matrix(.26901 0 0 .26901 3.7944 -101.41)" fill-rule="evenodd" stroke-width="0">
<path d="m74.942 187.35-10 21.562v-31.562c45.599 5.1969 78.125-22.555 57.492-71.422-4.5414-10.756-3.2568-27.738 0.9459-31.703-5.8562 12.4 7.8305 31.283 16.853 53.29 1.2666 3.0896 2.5439 6.2408 3.1178 10.439 0.5927 5.3466 0.62586 9.158-0.29224 13.456-3.703 17.337-17.361 26.423-22.149 29.465-16.696 9.3764-31.454 8.8964-45.967 6.4748z" fill="#2a7fff"/>
<path d="m84.277 82.348c-8.9305-13.92 12.353-50.285 42.868-24.749h61.872l-53.917-7.513c-28.269-36.438-69.425-1.5651-53.917 27.4z" fill="#1a1a1a"/>
<path d="m93.067 105.17-84.688-60.937c-7.7392 24.489-5.0101 45.489 17.188 60l-12.188-3.125c4.4552 24.391 10.689 39.43 40.781 40.156l6.4062-0.46875c-13.327-0.99615-25.234-5.6843-30.312-28.125l56.25 9.0625c-15.2-3.6107-25.204-6.3898-38.031-10.636-3.9423-1.3052-8.249-2.7812-11.813-5.4573-15.442-13.285-16.345-26.584-14.219-40.156z" fill="#2a7fff"/>
<path d="m103.23 27.029c-20.303 0.40594-36.429 23.111-25.767 43.025l1.728 2.7154c-9.0903-27.796 29.157-57.157 55.905-22.681l0.57356 0.07986h49.632l-53.923-7.5145c-8.8342-11.387-18.92-15.809-28.148-15.624zm-98.566 9.7652c-5.4641 17.29-5.6713 32.825 2.4685 45.58-4.1596-11.191-3.194-24.087 1.2488-38.146l50.772 36.534 30.196 16.967zm115 30c-4.2027 3.9649-5.4852 20.943-0.94385 31.699 20.633 48.868-11.896 76.624-57.495 71.427v31.561l3.7173-8.0154v-16.111c45.599 5.1969 78.128-22.56 57.495-71.427-2.8252-6.6912-3.3873-15.782-2.4032-22.66-2.0143-6.2814-2.5621-11.833-0.37027-16.474zm-95.982 21.07c2.1274 5.9418 6.1081 11.86 12.982 17.773 0.81206 0.60979 1.6723 1.1362 2.5484 1.6336l43.577 7.0208c-15.2-3.6107-25.203-6.3898-38.03-10.636-3.9423-1.3052-8.2488-2.7764-11.813-5.4525-4.0014-3.4427-7.015-6.8898-9.2642-10.339zm-14.02 5.8083c1.9125 10.471 4.1653 19.201 8.4801 25.832-2.0633-5.3105-3.4955-11.46-4.7628-18.398l12.19 3.122c-4.3472-2.8417-7.9256-5.9399-10.847-9.2569zm23.001 27.074c2.0178 5.3113 4.5665 9.2392 7.5145 12.132 3.0752 0.53478 6.4794 0.85249 10.266 0.94384l6.4109-0.46466c-9.4079-0.70322-18.101-3.2817-24.191-12.611z" fill="#00050c" fill-opacity=".19934"/>
</g>
</g>
<path d="m34.327-8.4053c8.3294 26.184 16.985 51.751 25.766 75.954h26.584c2.6365 0 4.7591-1.9357 4.7591-4.3402v-67.273c0-2.4045-2.1225-4.3402-4.7591-4.3402z" color="#000000" fill="url(#linearGradient5199)" opacity=".371"/>
</g>
</g>
</g>
</svg>
