<?xml version="1.0" encoding="UTF-8"?>
<!-- Created with Inkscape (http://www.inkscape.org/) -->
<svg version="1.0" viewBox="0 0 96 96" xmlns="http://www.w3.org/2000/svg" xmlns:cc="http://creativecommons.org/ns#" xmlns:dc="http://purl.org/dc/elements/1.1/" xmlns:rdf="http://www.w3.org/1999/02/22-rdf-syntax-ns#" xmlns:xlink="http://www.w3.org/1999/xlink">
<defs>
<linearGradient id="ButtonShadow" x1="45.448" x2="45.448" y1="92.54" y2="7.0165" gradientTransform="scale(1.0059 .99417)" gradientUnits="userSpaceOnUse">
<stop offset="0"/>
<stop stop-opacity=".58824" offset="1"/>
</linearGradient>
<linearGradient id="linearGradient3737">
<stop stop-color="#fff" offset="0"/>
<stop stop-color="#fff" stop-opacity="0" offset="1"/>
</linearGradient>
<filter id="filter3174" color-interpolation-filters="sRGB">
<feGaussianBlur stdDeviation="1.71"/>
</filter>
<linearGradient id="linearGradient3188" x1="36.357" x2="36.357" y1="6" y2="63.893" gradientUnits="userSpaceOnUse" xlink:href="#linearGradient3737"/>
<filter id="filter3794" x="-.192" y="-.192" width="1.384" height="1.384" color-interpolation-filters="sRGB">
<feGaussianBlur stdDeviation="5.28"/>
</filter>
<linearGradient id="linearGradient3613" x1="48" x2="48" y1="20.221" y2="138.66" gradientUnits="userSpaceOnUse" xlink:href="#linearGradient3737"/>
<radialGradient id="radialGradient3619" cx="48" cy="90.172" r="42" gradientTransform="matrix(1.1573 0 0 .99591 -7.551 .19713)" gradientUnits="userSpaceOnUse" xlink:href="#linearGradient3737"/>
<clipPath id="clipPath3613">
<rect x="6" y="6" width="84" height="84" rx="6" ry="6" fill="#fff"/>
</clipPath>
<linearGradient id="linearGradient2843" x1="48" x2="48" y1="90" y2="5.9877" gradientTransform="translate(0,100)" gradientUnits="userSpaceOnUse">
<stop stop-color="#2276c5" offset="0"/>
<stop stop-color="#68baf4" offset="1"/>
</linearGradient>
<clipPath id="clipPath3625">
<path d="m0 0v96h96v-96h-96zm12 6h72c3.324 0 6 2.676 6 6v72c0 3.324-2.676 6-6 6h-72c-3.324 0-6-2.676-6-6v-72c0-3.324 2.676-6 6-6z" fill="#fff"/>
</clipPath>
<linearGradient id="linearGradient3643" x1="44.512" x2="44.512" y1="6" y2="90.015" gradientUnits="userSpaceOnUse">
<stop stop-color="#f0f0f0" offset="0"/>
<stop stop-color="#aaa" offset="1"/>
</linearGradient>
<clipPath id="clipPath3649">
<rect x="10" y="10" width="76" height="76" rx="4" ry="4" fill="#fff"/>
</clipPath>
<filter id="filter3657" color-interpolation-filters="sRGB">
<feGaussianBlur stdDeviation="1.14"/>
</filter>
<linearGradient id="linearGradient3105" x1="11.999" x2="11.999" y1="1.8417" y2="20.237" gradientTransform="matrix(2.9625 0 0 3.2616 -148.64 -4.3353)" gradientUnits="userSpaceOnUse">
<stop offset="0"/>
<stop stop-opacity=".58824" offset="1"/>
</linearGradient>
<linearGradient id="linearGradient4767" x1="2.7714" x2="50.528" y1="-28.642" y2="14.514" gradientUnits="userSpaceOnUse">
<stop stop-color="#fff" offset="0"/>
<stop stop-color="#fff" stop-opacity="0" offset="1"/>
</linearGradient>
<linearGradient id="linearGradient4071-3" x1="6" x2="90" y1="47" y2="47" gradientTransform="matrix(1.1071 0 0 1.1071 -4.9939 -3.6207)" gradientUnits="userSpaceOnUse">
<stop stop-color="#adb9c1" offset="0"/>
<stop stop-color="#fff" offset=".25"/>
<stop stop-color="#90a2aa" offset=".5"/>
<stop stop-color="#f9fafb" offset=".75"/>
<stop stop-color="#adb9c1" offset="1"/>
</linearGradient>
<linearGradient id="linearGradient4129-6" x1="1.5" x2="94.5" y1="88.172" y2="88.172" gradientTransform="translate(.14895 .41503)" gradientUnits="userSpaceOnUse">
<stop offset="0"/>
<stop stop-opacity=".58824" offset=".1"/>
<stop stop-opacity=".58824" offset=".9"/>
<stop offset="1"/>
</linearGradient>
<radialGradient id="radialGradient7462-7" cx="13.948" cy="44.893" r="43.199" gradientTransform="matrix(.97513 0 0 .049191 34.048 80.582)" gradientUnits="userSpaceOnUse" xlink:href="#linearGradient3737"/>
<radialGradient id="radialGradient7464-3" cx="13.948" cy="44.893" r="43.199" gradientTransform="matrix(.88833 0 0 .049191 31.96 -90.317)" gradientUnits="userSpaceOnUse" xlink:href="#linearGradient3737"/>
<clipPath id="clipPath4156-4-1">
<path d="m27.046-55.695-14.214 13.321h0.06127l15.653 21.771 10.231-10.546c-0.2169-1.1522-11.311-23.67-11.732-24.546zm-17.399 16.313-14.888 14.062 21.229 17.515 10.385-10.577zm31.491 12.951-9.7413 9.7136 8.9448 12.458 7.7808-7.555zm-49.84 4.3788-13.754 12.982 26.283 13.846 0.06127-0.0617-0.12253-0.0617 9.8332-10.053-22.301-16.652zm38.015 7.4008-9.8025 9.7753 11.579 9.5594 7.6276-7.4008-8.6691-11.009zm20.187 5.674-7.3825 7.2158 6.1878 8.5418 5.8202-6.1365zm-32.195 6.3215-9.5575 9.4977 13.662 7.185 7.9339-7.6784zm23.312 2.3744-7.1068 6.9383 8.3628 6.9074 5.3608-5.674-0.06127-0.0925-0.0919 0.12335-6.4635-8.2026zm-8.7304 8.5418-7.5051 7.3392 10.354 5.4581c1.3975-1.321 5.6751-6.1229 5.8509-6.3215z" fill="#fff" opacity=".6"/>
</clipPath>
</defs>
<metadata>
<rdf:RDF>
<cc:Work rdf:about="">
<dc:format>image/svg+xml</dc:format>
<dc:type rdf:resource="http://purl.org/dc/dcmitype/StillImage"/>
<dc:title/>
<dc:date>2017</dc:date>
<dc:creator>
<cc:Agent>
<dc:title>Cristian Pozzessere "ilnanny"</dc:title>
</cc:Agent>
</dc:creator>
<dc:subject>
<rdf:Bag>
<rdf:li>Global language</rdf:li>
</rdf:Bag>
</dc:subject>
<dc:description>Playing with Inkscape on Gnu/Linux O. S.</dc:description>
<dc:contributor>
<cc:Agent>
<dc:title>In the night, alone like a dog.</dc:title>
</cc:Agent>
</dc:contributor>
</cc:Work>
</rdf:RDF>
</metadata>
<g display="none">
<rect x="5" y="7" width="86" height="85" rx="6" ry="6" clip-path="url(#clipPath3625)" fill="url(#ButtonShadow)" filter="url(#filter3174)" opacity=".9"/>
<rect x="6" y="6" width="84" height="84" rx="6" ry="6" opacity=".8"/>
<path d="m14 10c-2.216 0-4 1.784-4 4v68c0 2.216 1.784 4 4 4h68c2.216 0 4-1.784 4-4v-68c0-2.216-1.784-4-4-4h-68zm0 3.0625h68c0.57877 0 0.9375 0.35873 0.9375 0.9375v68c0 0.57877-0.35873 0.9375-0.9375 0.9375h-68c-0.57877 0-0.9375-0.35873-0.9375-0.9375v-68c0-0.57877 0.35873-0.9375 0.9375-0.9375z" opacity=".08"/>
<path d="m12 6c-3.324 0-6 2.676-6 6v72c0 3.324 2.676 6 6 6h72c3.324 0 6-2.676 6-6v-72c0-3.324-2.676-6-6-6h-72zm2 4h68c2.216 0 4 1.784 4 4v68c0 2.216-1.784 4-4 4h-68c-2.216 0-4-1.784-4-4v-68c0-2.216 1.784-4 4-4z" fill="url(#linearGradient3643)"/>
<path d="m12 6c-3.324 0-6 2.676-6 6v2 68 2c0 0.33472 0.04135 0.6507 0.09375 0.96875 0.0487 0.2956 0.09704 0.59692 0.1875 0.875 0.00988 0.03038 0.020892 0.0636 0.03125 0.09375 0.098865 0.28777 0.23488 0.54745 0.375 0.8125 0.14459 0.27351 0.31562 0.53562 0.5 0.78125s0.37378 0.47347 0.59375 0.6875c0.43995 0.42806 0.94291 0.81453 1.5 1.0938 0.27854 0.13961 0.57347 0.24695 0.875 0.34375-0.2562-0.10022-0.48671-0.23627-0.71875-0.375-0.00741-0.0044-0.023866 0.0045-0.03125 0-0.031933-0.0193-0.062293-0.04251-0.09375-0.0625-0.1204-0.0767-0.23102-0.16351-0.34375-0.25-0.10617-0.0808-0.21328-0.16111-0.3125-0.25-0.17793-0.16143-0.34746-0.34539-0.5-0.53125-0.10758-0.13026-0.21839-0.26528-0.3125-0.40625-0.025089-0.03838-0.038446-0.08587-0.0625-0.125-0.064763-0.10303-0.13023-0.20452-0.1875-0.3125-0.10101-0.19471-0.20567-0.4157-0.28125-0.625-0.00796-0.02181-0.023589-0.04055-0.03125-0.0625-0.031825-0.09195-0.035804-0.18683-0.0625-0.28125-0.030332-0.10662-0.070389-0.20303-0.09375-0.3125-0.072879-0.34151-0.125-0.6982-0.125-1.0625v-2-68-2c0-2.7818 2.2182-5 5-5h2 68 2c2.7818 0 5 2.2182 5 5v2 68 2c0 0.3643-0.05212 0.72099-0.125 1.0625-0.04415 0.20689-0.08838 0.39766-0.15625 0.59375-0.0077 0.02195-0.0233 0.04069-0.03125 0.0625-0.06274 0.17374-0.13838 0.36745-0.21875 0.53125-0.04158 0.0828-0.07904 0.16995-0.125 0.25-0.0546 0.09721-0.12677 0.18835-0.1875 0.28125-0.09411 0.14096-0.20492 0.276-0.3125 0.40625-0.14317 0.17445-0.30314 0.347-0.46875 0.5-0.01117 0.0102-0.01998 0.02115-0.03125 0.03125-0.13839 0.12556-0.28509 0.23444-0.4375 0.34375-0.10257 0.07315-0.20432 0.15336-0.3125 0.21875-0.0074 0.0045-0.02384-0.0044-0.03125 0-0.23204 0.13873-0.46255 0.27478-0.71875 0.375 0.30153-0.0968 0.59646-0.20414 0.875-0.34375 0.55709-0.27922 1.0601-0.66569 1.5-1.0938 0.21997-0.21403 0.40937-0.44186 0.59375-0.6875s0.35541-0.50774 0.5-0.78125c0.14012-0.26505 0.27614-0.52473 0.375-0.8125 0.01041-0.03078 0.02133-0.06274 0.03125-0.09375 0.09046-0.27808 0.1388-0.5794 0.1875-0.875 0.0524-0.31805 0.09375-0.63403 0.09375-0.96875v-2-68-2c0-3.324-2.676-6-6-6h-72z" fill="url(#linearGradient3188)"/>
<path d="m12 90c-3.324 0-6-2.676-6-6v-2-68-2c0-0.33472 0.04135-0.6507 0.09375-0.96875 0.0487-0.2956 0.09704-0.59692 0.1875-0.875 0.00988-0.03038 0.020892-0.0636 0.03125-0.09375 0.098865-0.28777 0.23488-0.54745 0.375-0.8125 0.14459-0.27351 0.31562-0.53562 0.5-0.78125s0.37378-0.47347 0.59375-0.6875c0.43995-0.42806 0.94291-0.81453 1.5-1.0938 0.27854-0.13961 0.57347-0.24695 0.875-0.34375-0.2562 0.10022-0.48671 0.23627-0.71875 0.375-0.00741 0.0044-0.023866-0.0045-0.03125 0-0.031933 0.0193-0.062293 0.04251-0.09375 0.0625-0.1204 0.0767-0.23102 0.16351-0.34375 0.25-0.10617 0.0808-0.21328 0.16111-0.3125 0.25-0.17793 0.16143-0.34746 0.34539-0.5 0.53125-0.10758 0.13026-0.21839 0.26528-0.3125 0.40625-0.025089 0.03838-0.038446 0.08587-0.0625 0.125-0.064763 0.10303-0.13023 0.20452-0.1875 0.3125-0.10101 0.19471-0.20567 0.4157-0.28125 0.625-0.00796 0.02181-0.023589 0.04055-0.03125 0.0625-0.031825 0.09195-0.035804 0.18683-0.0625 0.28125-0.030332 0.10662-0.070389 0.20303-0.09375 0.3125-0.072879 0.34151-0.125 0.6982-0.125 1.0625v2 68 2c0 2.7818 2.2182 5 5 5h2 68 2c2.7818 0 5-2.2182 5-5v-2-68-2c0-0.3643-0.05212-0.72099-0.125-1.0625-0.04415-0.20689-0.08838-0.39766-0.15625-0.59375-0.0077-0.02195-0.0233-0.04069-0.03125-0.0625-0.06274-0.17374-0.13838-0.36745-0.21875-0.53125-0.04158-0.0828-0.07904-0.16995-0.125-0.25-0.0546-0.09721-0.12677-0.18835-0.1875-0.28125-0.09411-0.14096-0.20492-0.276-0.3125-0.40625-0.14317-0.17445-0.30314-0.347-0.46875-0.5-0.01117-0.0102-0.01998-0.02115-0.03125-0.03125-0.13839-0.12556-0.28509-0.23444-0.4375-0.34375-0.10257-0.07315-0.20432-0.15336-0.3125-0.21875-0.0074-0.0045-0.02384 0.0044-0.03125 0-0.23204-0.13873-0.46255-0.27478-0.71875-0.375 0.30153 0.0968 0.59646 0.20414 0.875 0.34375 0.55709 0.27922 1.0601 0.66569 1.5 1.0938 0.21997 0.21403 0.40937 0.44186 0.59375 0.6875s0.35541 0.50774 0.5 0.78125c0.14012 0.26505 0.27614 0.52473 0.375 0.8125 0.01041 0.03078 0.02133 0.06274 0.03125 0.09375 0.09046 0.27808 0.1388 0.5794 0.1875 0.875 0.0524 0.31805 0.09375 0.63403 0.09375 0.96875v2 68 2c0 3.324-2.676 6-6 6h-72z" fill="url(#radialGradient3619)" opacity=".6"/>
<rect x="6" y="106" width="84" height="84" rx="6" ry="6" fill="url(#linearGradient2843)"/>
<rect x="10" y="110" width="76" height="76" rx="4" ry="4" fill="#f00"/>
<path transform="translate(-110)" d="m14 9c-2.7527 0-5 2.2473-5 5v68c0 2.7527 2.2473 5 5 5h68c2.7527 0 5-2.2473 5-5v-68c0-2.7527-2.2473-5-5-5h-68zm0 2h68c1.6793 0 3 1.3207 3 3v68c0 1.6793-1.3207 3-3 3h-68c-1.6793 0-3-1.3207-3-3v-68c0-1.6793 1.3207-3 3-3z" clip-path="url(#clipPath3649)" color="#000000" display="inline" filter="url(#filter3657)" style="block-progression:tb;text-indent:0;text-transform:none"/>
<path d="m14.089 10c-2.216 0-4 1.784-4 4v68c0 2.216 1.784 4 4 4h68c2.216 0 4-1.784 4-4v-68c0-2.216-1.784-4-4-4h-68zm0 2h68c1.1403 0 2 0.8597 2 2v68c0 1.1403-0.8597 2-2 2h-68c-1.1403 0-2-0.8597-2-2v-68c0-1.1403 0.8597-2 2-2z" opacity=".16"/>
<path d="m14 10c-2.216 0-4 1.784-4 4v68c0 2.216 1.784 4 4 4h68c2.216 0 4-1.784 4-4v-68c0-2.216-1.784-4-4-4h-68zm0 1h68c1.6738 0 3 1.3262 3 3v68c0 1.6738-1.3262 3-3 3h-68c-1.6738 0-3-1.3262-3-3v-68c0-1.6738 1.3262-3 3-3z" opacity=".36"/>
<rect x="15" y="15" width="66" height="66" rx="12" ry="12" clip-path="url(#clipPath3613)" fill="url(#linearGradient3613)" filter="url(#filter3794)" opacity=".1" stroke="#fff" stroke-linecap="round" stroke-width=".5"/>
</g>
<g>
<g transform="translate(0 -1026.5)">
<g transform="translate(-.14896 1026.1)">
<path d="m89.292 0.41503h-82.286c-3.7988 0-6.8571 3.0583-6.8571 6.8571v82.286c0 3.7989 3.0583 6.8571 6.8571 6.8571h82.286c3.7989 0 6.8571-3.0583 6.8571-6.8571v-82.286c0-3.7989-3.0583-6.8571-6.8571-6.8571z" opacity=".15"/>
<path d="m88.649 1.165h-81c-3.7395 0-6.75 3.0105-6.75 6.75v81c0 3.7395 3.0105 6.75 6.75 6.75h81c3.7395 0 6.75-3.0105 6.75-6.75v-81c0-3.7395-3.0105-6.75-6.75-6.75z" opacity=".15"/>
<path d="m88.006 1.915h-79.714c-3.6801 0-6.6429 2.9627-6.6429 6.6429v79.714c0 3.6801 2.9627 6.6429 6.6429 6.6429h79.714c3.6801 0 6.6429-2.9627 6.6429-6.6429v-79.714c0-3.6801-2.9627-6.6429-6.6429-6.6429z" fill="url(#linearGradient4071-3)"/>
<path d="m11.39 6.8022c-2.8565 0-5.1241 2.2884-5.1241 5.171v68.58c1.0972 1.6845 2.9688 2.8117 5.1241 2.8117h73.787c2.1553 0 4.0269-1.1272 5.1241-2.8117v-68.58c0-2.8826-2.2676-5.171-5.1241-5.171z" fill="#f5f3f3" opacity=".77865"/>
<path d="m9.974 5.1445c-3.1166 0-5.668 2.5395-5.668 5.646v69.278c0 3.1065 2.5513 5.646 5.668 5.646h76.792c3.1166 0 5.668-2.5395 5.668-5.646v-69.278c0-3.1065-2.5513-5.646-5.668-5.646zm0 2.3194h76.792c1.8881 0 3.352 1.4801 3.352 3.3266v69.278c0 1.8465-1.4639 3.3266-3.352 3.3266h-76.792c-1.8881 0-3.352-1.4801-3.352-3.3266v-69.278c0-1.8465 1.4639-3.3266 3.352-3.3266z" color="#000000" fill="#1f2224" fill-opacity=".63265" style="text-decoration-line:none;text-indent:0;text-transform:none"/>
<path d="m1.649 82.259v6c0 3.6801 2.9761 6.6562 6.6562 6.6562h79.687c3.6801 0 6.6563-2.9761 6.6563-6.6562v-6c0 3.6801-2.9761 6.6562-6.6563 6.6562h-79.687c-3.6801 0-6.6562-2.9761-6.6562-6.6562z" fill="url(#linearGradient4129-6)" opacity=".65818"/>
<rect x="5.524" y="80.665" width="84.25" height="4.25" rx="0" ry="4.25" fill="url(#radialGradient7462-7)" opacity=".55"/>
<rect transform="rotate(90)" x="5.975" y="-90.234" width="76.75" height="4.25" rx="0" ry="4.25" fill="url(#radialGradient7464-3)" opacity=".669"/>
<g transform="matrix(1.1017 0 0 1.1017 161.14 13.522)">
<path d="m-106.8 0.6093c-4.4067-0.09845-8.3461 3.4967-8.5097 7.5938-2.5177-0.89184-5.2847-0.35155-7.926-0.5-2.6495-0.24705-5.6964 0.53455-6.7309 3.098-0.50099 1.5202-0.6463 3.2971-0.19339 4.8395 0.56033 1.4558-2.9453 3.035-2.3561 5.2345-7e-3 6.019-0.0521 12.041 0.0232 18.059 0.29945 3.7767 4.3569 6.3658 8.2236 5.8941h8.8929c-0.0397 4.5752 4.6458 8.406 9.4707 7.9062h4.7455c-1.5081 0.1963-0.90422 2.3919-2.5081 1.875-2.3213 0.04324-4.6567-0.08577-6.9694 0.0625-1.9832 0.56442-1.5442 2.6951-1.5685 4.1875 0.10508 1.6525 2.0328 2.0822 3.4879 1.875h6.1231c-0.0201 1.6167 1.8547 2.2428 3.309 2 4.1122-0.04306 8.2385 0.08529 12.342-0.0625 1.6033-0.14548 1.0187-2.4421 2.6416-1.9375 2.3213-0.04324 4.6567 0.08577 6.9694-0.0625 1.9832-0.56442 1.5442-2.6951 1.5685-4.1875-0.10507-1.6525-2.0327-2.0822-3.4879-1.875h-6.1231c0.44716-1.2175-2.6212-2.1662-0.36182-1.875 3.4162-0.06667 7.2678 0.50813 10.036-1.8461 2.7092-1.9301 3.3738-5.2236 3.14-8.2263-0.02935-11.604 0.05897-23.211-0.04464-34.812-0.36276-4.4036-5.016-7.7448-9.6383-7.2407h-24.556zm9.6777 10.125c4.3873 0.04275 8.7895-0.08561 13.167 0.06433 1.0666 0.82621 0.39 2.3845 0.58153 3.553v27.32c-0.32597 1.5542-2.461 0.72859-3.684 0.9375h-4.492c2.6617-2.6205 1.6811-6.3242 1.8688-9.5671-0.07349-4.3173 0.15289-8.6526-0.12432-12.958 0.3019-2.015-3.1513-3.1487-2.4453-4.6002 0.76374-1.9692-1.4605-3.8874-3.2863-4.4923-0.51058-0.16075-1.0474-0.24745-1.5859-0.25773z" opacity=".1"/>
<path d="m-106.8 1.7343c-4.0795 0-7.4085 3.1173-7.4085 6.9375a0.9873 0.92454 0 0 0 1.0012 0.9375h28.833c1.245 0 2.2025 0.89665 2.2025 2.0625v30c0 1.1658-0.95752 2.0625-2.2025 2.0625h-28.833a0.9873 0.92454 0 0 0-1.0012 0.9375c0 3.8202 3.329 6.9375 7.4085 6.9375h8.6098v2.125h-2.2025a0.9873 0.92454 0 0 0-1.0011 0.9375v1.0625h-8.6098a0.9873 0.92454 0 0 0-1.0011 0.9375v2a0.9873 0.92454 0 0 0 1.0011 0.9375h8.6098v1.0625a0.9873 0.92454 0 0 0 1.0011 0.9375h12.815a0.9873 0.92454 0 0 0 1.0011-0.9375v-1.0625h8.6098a0.9873 0.92454 0 0 0 1.0011-0.9375v-2a0.9873 0.92454 0 0 0-1.0011-0.9375h-8.6098v-1.0625a0.9873 0.92454 0 0 0-1.0011-0.9375h-2.2025v-2.125h8.6098c4.0795 0 7.4085-3.1173 7.4085-6.9375v-36c0-3.8202-3.329-6.9375-7.4085-6.9375zm-18.187 7.0938c-2.3046 0-4.2048 1.7793-4.2048 3.9375v1.9062a0.9873 0.92454 0 0 0 1.0012 0.9375h33.939a0.9873 0.92454 0 0 0 0.90103-1.2812c-0.61343-1.4459-2.1028-2.5-3.8711-2.5h-16.285c-0.45963-1.6993-2.0524-3-4.0046-3zm-0.53394 7c-3.1921 0-5.8066 2.4483-5.8066 5.4375v17c0 2.9892 2.6146 5.4375 5.8066 5.4375h28.866c3.2591 0 5.7043-2.6073 5.7733-5.4062a0.9873 0.92454 0 0 0 0-0.03125v-17c0-2.9892-2.6146-5.4375-5.8066-5.4375h-19.222z" opacity=".15"/>
<path d="m-106.8 1.6718c-3.5496 0-6.4073 2.676-6.4073 6h28.833c1.7748 0 3.2037 1.338 3.2037 3v30c0 1.662-1.4288 3-3.2037 3h-28.833c0 3.324 2.8577 6 6.4073 6h9.611v4h-3.2037v2h-9.611v2h9.611v2h12.815v-2h9.611v-2h-9.611v-2h-3.2037v-4h9.611c3.5497 0 6.4073-2.676 6.4073-6v-36c0-3.324-2.8577-6-6.4073-6zm-18.187 7.0938c-1.7748 0-3.2036 1.338-3.2036 3v1.9062h33.939c-0.47047-1.1089-1.6154-1.9062-2.9701-1.9062h-17.086c0-1.662-1.4288-3-3.2037-3zm-0.53394 7c-2.6622 0-4.8055 2.007-4.8055 4.5v17c0 2.493 2.1432 4.5 4.8055 4.5h28.866c2.6842 0 4.7153-2.1958 4.7721-4.5v-17c0-2.493-2.1432-4.5-4.8055-4.5h-19.222z" fill="url(#linearGradient3105)"/>
<path d="m-106.8 1.6718c-3.5496 0-6.4073 2.676-6.4073 6h0.10006c0.50338-2.8472 3.1197-5 6.3072-5h25.629c3.5497 0 6.4073 2.676 6.4073 6v-1c0-3.324-2.8577-6-6.4073-6zm-18.187 7.0938c-1.7748 0-3.2036 1.338-3.2036 3v1c0-1.662 1.4288-3 3.2036-3h7.4752c1.7748 0 3.2037 1.338 3.2037 3h17.086c0.89746 0 1.691 0.34758 2.2693 0.90625h0.7008c-0.47047-1.1089-1.6154-1.9062-2.9701-1.9062h-17.086c0-1.662-1.4288-3-3.2037-3zm-0.53394 7c-2.6622 0-4.8055 2.007-4.8055 4.5v1c0-2.493 2.1432-4.5 4.8055-4.5h28.833c2.6622 0 4.8055 2.007 4.8055 4.5v-1c0-2.493-2.1432-4.5-4.8055-4.5h-19.222zm44.351 24.906c0 1.662-1.4288 3-3.2037 3h-28.833c0 0.33914 0.0429 0.67651 0.10006 1h28.733c1.7748 0 3.2037-1.338 3.2037-3zm-19.222 13v1h3.2037v-1zm9.611 0v1h3.2037v-1zm-19.222 2v1h9.611v-1zm22.426 0v1h9.611v-1z" fill="#fff" opacity=".75"/>
<path d="m-113.11 6.6718c-0.0572 0.32349-0.10006 0.66086-0.10006 1h28.833c1.7748 0 3.2037 1.338 3.2037 3v-1c0-1.662-1.4288-3-3.2037-3zm-15.084 6v1h33.939c-0.15878-0.37427-0.40623-0.7154-0.7008-1zm-2.1358 23.594v1c0 2.493 2.1432 4.5 4.8055 4.5h28.866c2.6842 0 4.7153-2.1958 4.7721-4.5v-1c-0.05678 2.3042-2.088 4.5-4.7721 4.5h-28.866c-2.6622 0-4.8055-2.007-4.8055-4.5zm55.563 6.4062c0 3.324-2.8577 6-6.4073 6h-9.611v1h9.611c3.5497 0 6.4073-2.676 6.4073-6zm-38.444 1c0 3.324 2.8577 6 6.4073 6h9.611v-1h-9.611c-3.1875 0-5.8038-2.1528-6.3072-5zm3.2036 13v1h9.611v-1zm22.426 0v1h9.611v-1zm-12.815 2v1h12.815v-1z" opacity=".15"/>
</g>
<rect transform="matrix(1.0692 0 0 1.0477 4.4442 38.894)" x="2" y="-30" width="75.966" height="69.024" rx="3.957" ry="3.957" clip-path="url(#clipPath4156-4-1)" fill="url(#linearGradient4767)" opacity=".505"/>
</g>
</g>
</g>
</svg>
