<?xml version="1.0" encoding="UTF-8"?>
<!-- Created with Inkscape (http://www.inkscape.org/) -->
<svg version="1.1" viewBox="0 0 96 96" xmlns="http://www.w3.org/2000/svg" xmlns:cc="http://creativecommons.org/ns#" xmlns:dc="http://purl.org/dc/elements/1.1/" xmlns:rdf="http://www.w3.org/1999/02/22-rdf-syntax-ns#" xmlns:xlink="http://www.w3.org/1999/xlink">
<script xlink:href=""/>
<defs>
<clipPath id="clipPath4156-4">
<path d="m27.046-55.695-14.214 13.321h0.06127l15.653 21.771 10.231-10.546c-0.2169-1.1522-11.311-23.67-11.732-24.546zm-17.399 16.313-14.888 14.062 21.229 17.515 10.385-10.577-16.726-21zm31.491 12.951-9.7413 9.7136 8.9448 12.458 7.7808-7.555-6.9843-14.617zm-49.84 4.3788-13.754 12.982 26.283 13.846 0.06127-0.0617-0.12253-0.0617 9.8332-10.053-22.301-16.652zm38.015 7.4008-9.8025 9.7753 11.579 9.5594 7.6276-7.4008-8.6691-11.009-0.73519-0.9251zm20.187 5.674-7.3825 7.2158 6.1878 8.5418 5.8202-6.1365-4.6256-9.6211zm-32.195 6.3215-9.5575 9.4977 13.662 7.185 7.9339-7.6784-12.039-9.0043zm23.312 2.3744-7.1068 6.9383 8.3628 6.9074 5.3608-5.674-0.06127-0.0925-0.0919 0.12335-6.4635-8.2026zm-8.7304 8.5418-7.5051 7.3392 10.354 5.4581c1.3975-1.321 5.6751-6.1229 5.8509-6.3215l-8.6997-6.4757z" fill="#fff" opacity=".6"/>
</clipPath>
<linearGradient id="linearGradient4133">
<stop stop-color="#fff" offset="0"/>
<stop stop-color="#fff" stop-opacity="0" offset="1"/>
</linearGradient>
<linearGradient id="linearGradient7426" x1="6" x2="90" y1="47" y2="47" gradientTransform="matrix(1.1048 0 0 1.1048 2.9118 -18.493)" gradientUnits="userSpaceOnUse">
<stop stop-color="#adb9c1" offset="0"/>
<stop stop-color="#fff" offset=".25"/>
<stop stop-color="#90a2aa" offset=".5"/>
<stop stop-color="#f9fafb" offset=".75"/>
<stop stop-color="#adb9c1" offset="1"/>
</linearGradient>
<radialGradient id="radialGradient7430" cx="48" cy="-27" r="42" gradientTransform="matrix(-1.0722 0 0 -.87502 199.46 -19.126)" gradientUnits="userSpaceOnUse">
<stop stop-color="#fff" offset="0"/>
<stop stop-color="#fff" offset=".8"/>
<stop stop-color="#fff" stop-opacity="0" offset="1"/>
</radialGradient>
<linearGradient id="linearGradient7460" x1="1.5" x2="94.5" y1="88.172" y2="88.172" gradientTransform="matrix(.99792 0 0 .99792 8.044 -14.466)" gradientUnits="userSpaceOnUse">
<stop offset="0"/>
<stop stop-opacity=".58824" offset=".1"/>
<stop stop-opacity=".58824" offset=".9"/>
<stop offset="1"/>
</linearGradient>
<radialGradient id="radialGradient7462" cx="13.948" cy="44.893" r="43.199" gradientTransform="matrix(.9731 0 0 .049088 41.872 65.534)" gradientUnits="userSpaceOnUse" xlink:href="#linearGradient4133"/>
<radialGradient id="radialGradient7464" cx="13.948" cy="44.893" r="43.199" gradientTransform="matrix(.88648 0 0 .053738 16.205 -98.571)" gradientUnits="userSpaceOnUse" xlink:href="#linearGradient4133"/>
<linearGradient id="linearGradient7466" x1="2.7714" x2="50.528" y1="-28.642" y2="14.514" gradientUnits="userSpaceOnUse">
<stop stop-color="#fff" offset="0"/>
<stop stop-color="#fff" stop-opacity="0" offset="1"/>
</linearGradient>
<linearGradient id="linearGradient4120" x1="5" x2="11.227" y1="64" y2="64" gradientTransform="matrix(1.018 0 0 .93772 8.3307 -29.636)" gradientUnits="userSpaceOnUse">
<stop stop-color="#383838" offset="0"/>
<stop stop-color="#494949" stop-opacity="0" offset="1"/>
</linearGradient>
<linearGradient id="linearGradient4091" x1="5" x2="21" y1="28" y2="28" gradientTransform="matrix(1.125 0 0 1 .375 -4)" gradientUnits="userSpaceOnUse" xlink:href="#linearGradient3238"/>
<linearGradient id="linearGradient3238">
<stop offset="0"/>
<stop stop-color="#4d4d4d" stop-opacity="0" offset="1"/>
</linearGradient>
<linearGradient id="linearGradient4093" x1="5" x2="21" y1="27" y2="27" gradientTransform="matrix(1.125 0 0 1 .375 -10)" gradientUnits="userSpaceOnUse" xlink:href="#linearGradient3250"/>
<linearGradient id="linearGradient3250">
<stop stop-color="#bfbf9b" offset="0"/>
<stop stop-color="#c9c9c9" stop-opacity="0" offset="1"/>
</linearGradient>
<clipPath id="clipPath4156-4-0">
<path d="m27.046-55.695-14.214 13.321h0.06127l15.653 21.771 10.231-10.546c-0.2169-1.1522-11.311-23.67-11.732-24.546zm-17.399 16.313-14.888 14.062 21.229 17.515 10.385-10.577-16.726-21zm31.491 12.951-9.7413 9.7136 8.9448 12.458 7.7808-7.555-6.9843-14.617zm-49.84 4.3788-13.754 12.982 26.283 13.846 0.06127-0.0617-0.12253-0.0617 9.8332-10.053-22.301-16.652zm38.015 7.4008-9.8025 9.7753 11.579 9.5594 7.6276-7.4008-8.6691-11.009-0.73519-0.9251zm20.187 5.674-7.3825 7.2158 6.1878 8.5418 5.8202-6.1365-4.6256-9.6211zm-32.195 6.3215-9.5575 9.4977 13.662 7.185 7.9339-7.6784-12.039-9.0043zm23.312 2.3744-7.1068 6.9383 8.3628 6.9074 5.3608-5.674-0.06127-0.0925-0.0919 0.12335-6.4635-8.2026zm-8.7304 8.5418-7.5051 7.3392 10.354 5.4581c1.3975-1.321 5.6751-6.1229 5.8509-6.3215l-8.6997-6.4757z" fill="#fff" opacity=".6"/>
</clipPath>
<filter id="filter1149" x="-.054665" y="-.060876" width="1.1093" height="1.1218" color-interpolation-filters="sRGB">
<feGaussianBlur stdDeviation="1.2512341"/>
</filter>
</defs>
<metadata>
<rdf:RDF>
<cc:Work rdf:about="">
<dc:format>image/svg+xml</dc:format>
<dc:type rdf:resource="http://purl.org/dc/dcmitype/StillImage"/>
<dc:title/>
<cc:license rdf:resource="http://creativecommons.org/licenses/by-sa/4.0/"/>
<dc:date>2017</dc:date>
<dc:creator>
<cc:Agent>
<dc:title>Cristian Pozzessere "ilnanny"</dc:title>
</cc:Agent>
</dc:creator>
<dc:subject>
<rdf:Bag>
<rdf:li>Global language</rdf:li>
</rdf:Bag>
</dc:subject>
<dc:description>Playing with Inkscape on Gnu/Linux O. S.</dc:description>
<dc:contributor>
<cc:Agent>
<dc:title>In the night, alone like a dog.</dc:title>
</cc:Agent>
</dc:contributor>
</cc:Work>
<cc:License rdf:about="http://creativecommons.org/licenses/by-sa/4.0/">
<cc:permits rdf:resource="http://creativecommons.org/ns#Reproduction"/>
<cc:permits rdf:resource="http://creativecommons.org/ns#Distribution"/>
<cc:requires rdf:resource="http://creativecommons.org/ns#Notice"/>
<cc:requires rdf:resource="http://creativecommons.org/ns#Attribution"/>
<cc:permits rdf:resource="http://creativecommons.org/ns#DerivativeWorks"/>
<cc:requires rdf:resource="http://creativecommons.org/ns#ShareAlike"/>
</cc:License>
</rdf:RDF>
</metadata>
<g transform="translate(0,32)">
<g transform="translate(-8.044 -17.334)">
<g transform="translate(.1)">
<path d="m97.001-14.466h-82.114c-3.7909 0-6.8428 3.0519-6.8428 6.8429v82.114c0 3.7909 3.0519 6.8429 6.8428 6.8429h82.114c3.7909 0 6.8429-3.0519 6.8429-6.8429v-82.114c0-3.7909-3.0519-6.8429-6.8429-6.8429z" opacity=".15"/>
<path d="m96.36-13.717h-80.831c-3.7317 0-6.7359 3.0042-6.7359 6.7359v80.831c0 3.7317 3.0042 6.7359 6.7359 6.7359h80.831c3.7317 0 6.7359-3.0042 6.7359-6.7359v-80.831c0-3.7317-3.0042-6.7359-6.7359-6.7359z" opacity=".15"/>
<path d="m95.718-12.969h-79.548c-3.6725 0-6.629 2.9565-6.629 6.629v79.548c0 3.6725 2.9565 6.629 6.629 6.629h79.548c3.6725 0 6.629-2.9565 6.629-6.629v-79.548c0-3.6725-2.9565-6.629-6.629-6.629z" fill="url(#linearGradient7426)"/>
<rect x="13.408" y="65.617" width="84.074" height="4.2411" rx="0" ry="4.2411" fill="url(#radialGradient7462)" opacity=".55"/>
<rect transform="rotate(90)" x="-9.7255" y="-98.48" width="76.59" height="4.6429" rx="0" ry="4.6429" fill="url(#radialGradient7464)" opacity=".55"/>
<path d="m17.796-7.8359c-1.9892 0-3.597 1.6459-3.6013 3.6768l-0.14791 69.815c1.9097 2.5158 1.6618 2.4058 4.8414 2.6735 1.8005-14.83 36.423-73.184 77.257-73.184 0.48706 0 0.96126 0.019818 1.4462 0.02895-0.30223-1.7145-1.7474-3.0109-3.5162-3.0109z" fill="#fff" opacity=".3"/>
<rect transform="matrix(.90741 0 0 .92644 12.38 19.957)" x="2" y="-30" width="92" height="92" rx="3.957" ry="3.957" clip-path="url(#clipPath4156-4)" fill="url(#linearGradient7466)"/>
<rect x="13.421" y="-9.4809" width="85.514" height="78.769" rx="6.1081" ry="5.6263" fill="#6d8ecb"/>
<g transform="matrix(-1.0911 0 0 1.0888 29.506 45.34)">
<g transform="matrix(1.024 0 0 1.0667 -157.57 -77.509)">
<path d="m149.04 83.88c-0.4123 0.1033-0.83382-0.13568-0.94151-0.54578-1.5846-5.9249-8.0244-7.4605-11.873-8.3794-0.96458-0.22972-1.7261-0.41164-2.2215-0.62595-4.3845-1.9071-5.8136-4.9752-6.2413-7.2138-0.0523-0.2698 0.0446-0.54732 0.25383-0.72924 2.283-1.975 4.2091-4.9397 5.4244-8.3501 0.0338-0.09713 0.0877-0.18655 0.15845-0.26364 1.6076-1.7514 2.5307-3.603 2.5307-5.0785 0-0.86183-0.32461-1.44-1.0554-1.8763-0.22307-0.13413-0.36307-0.37002-0.37384-0.62903-0.33998-7.8536-5.9213-14.036-12.767-14.076-8e-3 0-0.15693 0.01077-0.16461 0.01077-6.8798 0.09559-12.426 6.4106-12.624 14.375-6e-3 0.22047-0.10461 0.42706-0.27383 0.5689-0.48153 0.40856-0.70613 0.92659-0.70613 1.6296 0 1.2349 0.6569 2.7535 1.8476 4.2737 0.0569 0.07247 0.1 0.15571 0.12922 0.2436 1.2307 3.9099 3.4399 7.3618 6.0583 9.474 0.22153 0.17884 0.32614 0.4656 0.27383 0.74466-0.42767 2.2371-1.8569 5.3036-6.2413 7.2138-0.51844 0.22509-1.323 0.40085-2.343 0.62132-3.8106 0.82637-10.187 2.2124-11.752 8.0664-0.0923 0.34381-0.40306 0.57044-0.74151 0.57044-0.06616 0 43.37-0.22838 43.302-0.24529-0.41075-0.111-44.156-0.31436-44.047-0.72601 1.8076-6.7636 9.032-8.3316 12.912-9.1734 0.89997-0.1958 1.6769-0.36385 2.0553-0.53036 2.8614-1.2457 4.6245-3.1436 5.2475-5.6505-2.6568-2.2864-4.8798-5.8139-6.1506-9.77-1.3492-1.7576-2.0907-3.5676-2.0907-5.1139 0-1.0314 0.3323-1.8917 0.99074-2.5639 0.36614-8.6399 6.5182-15.444 14.153-15.553l0.22922-3e-3c7.4967 0.04009 13.675 6.6649 14.215 15.155 0.96305 0.7092 1.4523 1.7036 1.4523 2.9663 0 1.8239-1.0292 4.0054-2.8307 6.0066-1.2446 3.4273-3.1737 6.4383-5.4706 8.5459 0.61998 2.5161 2.3845 4.4202 5.2521 5.6674 0.37076 0.16189 1.1092 0.33918 1.9646 0.54269 3.9091 0.93121 11.183 2.6657 13.004 9.4771 0.10922 0.41164-43.745 0.61346-44.156 0.72447z" fill="#fefefe" fill-opacity=".98561" filter="url(#filter1149)" stroke="#080808" stroke-opacity=".18431" stroke-width="1.8349"/>
<g transform="translate(16.299 15.96)">
<path d="m79.459 65.64c1.8076-6.7636 9.032-8.3316 12.912-9.1734 0.89997-0.1958 1.6769-0.36385 2.0553-0.53036 2.8614-1.2457 4.6245-3.1436 5.2475-5.6505-2.6568-2.2864-4.8798-5.8139-6.1506-9.77-1.3492-1.7576-2.0907-3.5676-2.0907-5.1139 0-1.0314 0.3323-1.8917 0.99074-2.5639 0.36614-8.6399 6.5182-15.444 14.153-15.553l0.22923-3e-3c7.4967 0.04009 13.675 6.6649 14.215 15.155 0.96304 0.7092 1.4523 1.7036 1.4523 2.9663 0 1.8239-1.0292 4.0054-2.8307 6.0066-1.2446 3.4273-3.1737 6.4383-5.4706 8.5459 0.61998 2.5161 2.3845 4.4202 5.2521 5.6674 0.37075 0.16189 1.1092 0.33918 1.9646 0.54269 3.9091 0.93121 13.004 9.4771 13.004 9.4771s-20.854 1.737-54.934-0.0032z" fill="#eff5fa" fill-opacity=".53571"/>
<path d="m135.12 66.547c-0.4123 0.1033-0.83382-0.13568-0.94151-0.54578-1.5846-5.9249-8.0244-7.4605-11.873-8.3794-0.96458-0.22972-1.7261-0.41164-2.2215-0.62595-4.3845-1.9071-5.8136-4.9752-6.2413-7.2138-0.0523-0.2698 0.0446-0.54732 0.25383-0.72924 2.283-1.975 4.2091-4.9397 5.4244-8.3501 0.0338-0.09713 0.0877-0.18655 0.15845-0.26364 1.6076-1.7514 2.5307-3.603 2.5307-5.0785 0-0.86183-0.32461-1.44-1.0554-1.8763-0.22307-0.13413-0.36307-0.37002-0.37384-0.62903-0.33998-7.8536-5.9213-14.036-12.767-14.076-8e-3 0-0.15693 0.01077-0.16461 0.01077-6.8798 0.09559-12.426 6.4106-12.624 14.375-0.0062 0.22047-0.10461 0.42706-0.27384 0.5689-0.48152 0.40856-0.70613 0.92659-0.70613 1.6296 0 1.2349 0.6569 2.7535 1.8476 4.2737 0.05692 0.07247 0.1 0.15571 0.12922 0.2436 1.2307 3.9099 3.4399 7.3618 6.0583 9.474 0.22153 0.17884 0.32614 0.4656 0.27383 0.74466-0.42767 2.2371-1.8569 5.3036-6.2413 7.2138-0.51844 0.22509-1.323 0.40085-2.343 0.62132-3.8106 0.82637-10.187 2.2124-11.752 8.0664-0.0923 0.34381-0.40306 0.57044-0.74151 0.57044-0.06616 0 43.37-0.22838 43.302-0.24529-0.41075-0.111-44.156-0.31436-44.047-0.72601 1.8076-6.7636 9.032-8.3316 12.912-9.1734 0.89997-0.1958 1.6769-0.36385 2.0553-0.53036 2.8614-1.2457 4.6245-3.1436 5.2475-5.6505-2.6568-2.2864-4.8798-5.8139-6.1506-9.77-1.3492-1.7576-2.0907-3.5676-2.0907-5.1139 0-1.0314 0.3323-1.8917 0.99074-2.5639 0.36614-8.6399 6.5182-15.444 14.153-15.553l0.22922-3e-3c7.4967 0.04009 13.675 6.6649 14.215 15.155 0.96305 0.7092 1.4523 1.7036 1.4523 2.9663 0 1.8239-1.0292 4.0054-2.8307 6.0066-1.2446 3.4273-3.1737 6.4383-5.4706 8.5459 0.61998 2.5161 2.3845 4.4202 5.2521 5.6674 0.37076 0.16189 1.1092 0.33918 1.9646 0.54269 3.9091 0.93121 11.183 2.6657 13.004 9.4771 0.10922 0.41164-43.745 0.61346-44.156 0.72447z" fill="#080808" fill-opacity=".18367"/>
<path d="m136.03 67.463c-0.41229 0.1033-0.83382-0.13568-0.94151-0.54578-1.5846-5.9249-8.0243-7.4605-11.873-8.3794-0.96458-0.22972-1.7261-0.41164-2.2215-0.62595-4.3845-1.9071-5.8136-4.9752-6.2413-7.2138-0.0523-0.2698 0.0446-0.54732 0.25384-0.72924 2.283-1.975 4.2091-4.9397 5.4244-8.3501 0.0338-0.09713 0.0877-0.18655 0.15846-0.26364 1.6076-1.7514 2.5307-3.603 2.5307-5.0785 0-0.86183-0.3246-1.44-1.0554-1.8763-0.22306-0.13413-0.36306-0.37002-0.37383-0.62903-0.33999-7.8536-5.9213-14.036-12.767-14.076-8e-3 0-0.15693 0.01077-0.16462 0.01077-6.8798 0.09559-12.426 6.4106-12.624 14.375-0.0062 0.22047-0.10461 0.42706-0.27384 0.5689-0.48152 0.40856-0.70613 0.92659-0.70613 1.6296 0 1.2349 0.6569 2.7535 1.8476 4.2737 0.05692 0.07247 0.1 0.15571 0.12922 0.2436 1.2307 3.9099 3.4399 7.3618 6.0583 9.474 0.22153 0.17884 0.32614 0.4656 0.27384 0.74466-0.42768 2.2371-1.8569 5.3036-6.2413 7.2138-0.51844 0.22509-1.323 0.40085-2.343 0.62132-3.8106 0.82637-10.187 2.2124-11.752 8.0664-0.0923 0.34381-0.40306 0.57044-0.74151 0.57044-0.06616 0 43.37-0.22838 43.302-0.24529-0.41076-0.111-44.156-0.31436-44.047-0.72601 1.8076-6.7636 9.032-8.3316 12.912-9.1734 0.89997-0.1958 1.6769-0.36385 2.0553-0.53036 2.8614-1.2457 4.6245-3.1436 5.2475-5.6505-2.6568-2.2864-4.8798-5.8139-6.1506-9.77-1.3492-1.7576-2.0907-3.5676-2.0907-5.1139 0-1.0314 0.3323-1.8917 0.99074-2.5639 0.36614-8.6399 6.5182-15.444 14.153-15.553l0.22922-3e-3c7.4967 0.04009 13.675 6.6649 14.215 15.155 0.96304 0.7092 1.4523 1.7036 1.4523 2.9663 0 1.8239-1.0292 4.0054-2.8307 6.0066-1.2446 3.4273-3.1737 6.4383-5.4706 8.5459 0.61998 2.5161 2.3845 4.4202 5.2521 5.6674 0.37076 0.16189 1.1092 0.33918 1.9646 0.54269 3.9091 0.93121 11.183 2.6657 13.004 9.4771 0.10922 0.41164-43.745 0.61346-44.156 0.72447z" fill="#080808" fill-opacity=".65844" stroke="#080808" stroke-opacity=".18431" stroke-width=".91746"/>
<path d="m133.85 66.587c-0.4123 0.1033-0.83382-0.13568-0.94151-0.54578-1.5846-5.9249-8.0244-7.4605-11.873-8.3794-0.96458-0.22972-1.7261-0.41164-2.2215-0.62595-4.3845-1.9071-5.8136-4.9752-6.2413-7.2138-0.0523-0.2698 0.0446-0.54732 0.25384-0.72924 2.283-1.975 4.2091-4.9397 5.4244-8.3501 0.0338-0.09713 0.0877-0.18655 0.15845-0.26364 1.6076-1.7514 2.5307-3.603 2.5307-5.0785 0-0.86183-0.3246-1.44-1.0554-1.8763-0.22307-0.13413-0.36306-0.37002-0.37383-0.62903-0.33999-7.8536-5.9213-14.036-12.767-14.076-8e-3 0-0.15692 0.01077-0.16461 0.01077-6.8798 0.09559-12.426 6.4106-12.624 14.375-0.0062 0.22047-0.10461 0.42706-0.27384 0.5689-0.48152 0.40856-0.70613 0.92659-0.70613 1.6296 0 1.2349 0.6569 2.7535 1.8476 4.2737 0.05692 0.07247 0.1 0.15571 0.12922 0.2436 1.2307 3.9099 3.4399 7.3618 6.0583 9.474 0.22153 0.17884 0.32614 0.4656 0.27384 0.74466-0.42768 2.2371-1.8569 5.3036-6.2413 7.2138-0.51844 0.22509-1.323 0.40085-2.343 0.62132-3.8106 0.82637-10.187 2.2124-11.752 8.0664-0.0923 0.34381-0.40306 0.57044-0.74151 0.57044-0.06616 0 43.37-0.22838 43.302-0.24529-0.41076-0.111-44.156-0.31436-44.047-0.72601 1.8076-6.7636 9.032-8.3316 12.912-9.1734 0.89997-0.1958 1.6769-0.36385 2.0553-0.53036 2.8614-1.2457 4.6245-3.1436 5.2475-5.6505-2.6568-2.2864-4.8798-5.8139-6.1506-9.77-1.3492-1.7576-2.0907-3.5676-2.0907-5.1139 0-1.0314 0.3323-1.8917 0.99074-2.5639 0.36614-8.6399 6.5182-15.444 14.153-15.553l0.22923-3e-3c7.4967 0.04009 13.675 6.6649 14.215 15.155 0.96304 0.7092 1.4523 1.7036 1.4523 2.9663 0 1.8239-1.0292 4.0054-2.8307 6.0066-1.2446 3.4273-3.1737 6.4383-5.4706 8.5459 0.61998 2.5161 2.3845 4.4202 5.2521 5.6674 0.37075 0.16189 1.1092 0.33918 1.9646 0.54269 3.9091 0.93121 11.183 2.6657 13.004 9.4771 0.10922 0.41164-43.745 0.61346-44.156 0.72447z" fill="#f6f6f6" fill-opacity=".92593" stroke="#f6f6f6" stroke-opacity=".63922" stroke-width=".91746"/>
</g>
</g>
</g>
<path d="m18.741-9.642c-2.9473 0-5.32 2.5093-5.32 5.6263v67.516c0 3.117 2.3727 5.6263 5.32 5.6263h10.64v-78.769z" fill="#555753"/>
<path d="m19.529-9.642c-3.3839 0-6.1081 2.5093-6.1081 5.6263v67.516c0 3.117 2.7242 5.6263 6.1081 5.6263h9.2895v-78.769z" fill="url(#linearGradient4120)"/>
<g transform="matrix(1.018 0 0 .93772 7.3126 -13.393)">
<rect x="6" y="20" width="18" height="2" fill="url(#linearGradient4091)"/>
<rect x="6" y="16" width="18" height="2" fill="url(#linearGradient4093)"/>
</g>
<g transform="matrix(1.018 0 0 .93772 7.3126 3.4861)">
<rect x="6" y="20" width="18" height="2" fill="url(#linearGradient4091)"/>
<rect x="6" y="16" width="18" height="2" fill="url(#linearGradient4093)"/>
</g>
<g transform="matrix(1.018 0 0 .93772 7.3126 37.244)">
<rect x="6" y="20" width="18" height="2" fill="url(#linearGradient4091)"/>
<rect x="6" y="16" width="18" height="2" fill="url(#linearGradient4093)"/>
</g>
<g transform="matrix(1.018 0 0 .93772 7.3126 20.365)">
<rect x="6" y="20" width="18" height="2" fill="url(#linearGradient4091)"/>
<rect x="6" y="16" width="18" height="2" fill="url(#linearGradient4093)"/>
</g>
<rect x="28.464" y="-8.6287" width="1.1145" height="78.769" fill="#fff" opacity=".1875"/>
<rect x="29.714" y="-9.642" width="1.1145" height="78.769" opacity=".82639"/>
<path d="m17.849-9.746c-3.1101 0-5.6562 2.5342-5.6562 5.6342v69.134c0 3.1 2.546 5.6342 5.6562 5.6342h76.632c3.1101 0 5.6562-2.5342 5.6562-5.6342v-69.134c0-3.1-2.546-5.6342-5.6562-5.6342zm0 2.3146h76.632c1.8842 0 3.345 1.477 3.345 3.3196v69.134c0 1.8426-1.4609 3.3196-3.345 3.3196h-76.632c-1.8842 0-3.345-1.477-3.345-3.3196v-69.134c0-1.8426 1.4609-3.3196 3.345-3.3196z" color="#000000" fill="#444445" fill-opacity=".93798" style="text-decoration-line:none;text-indent:0;text-transform:none"/>
<g transform="matrix(1.1048 0 0 1.1048 -107.57 -17.94)">
<path d="m112 4.5c-3.324 0-6 2.676-6 6v15h1v-15c0-2.7873 2.2127-5 5-5h72c2.7873 0 5 2.2127 5 5v15h1v-15c0-3.324-2.676-6-6-6z" fill="url(#radialGradient7430)" opacity=".45"/>
</g>
<path d="m9.5408 67.208v5.9875c0 3.6725 2.9699 6.6424 6.6424 6.6424h79.521c3.6725 0 6.6424-2.9699 6.6424-6.6424v-5.9875c0 3.6725-2.9699 6.6424-6.6424 6.6424h-79.521c-3.6725 0-6.6424-2.9699-6.6424-6.6424z" fill="url(#linearGradient7460)" opacity=".65818"/>
<rect transform="matrix(.90741 0 0 .92644 12.656 20.237)" x="2" y="-30" width="92" height="92" rx="3.957" ry="3.957" clip-path="url(#clipPath4156-4-0)" fill="url(#linearGradient7466)" opacity=".516"/>
</g>
</g>
</g>
</svg>
