<?xml version="1.0" encoding="UTF-8"?>
<svg version="1.1" viewBox="0 0 96 96" xmlns="http://www.w3.org/2000/svg" xmlns:cc="http://creativecommons.org/ns#" xmlns:dc="http://purl.org/dc/elements/1.1/" xmlns:rdf="http://www.w3.org/1999/02/22-rdf-syntax-ns#" xmlns:xlink="http://www.w3.org/1999/xlink">
<metadata>
<rdf:RDF>
<cc:Work rdf:about="">
<dc:format>image/svg+xml</dc:format>
<dc:type rdf:resource="http://purl.org/dc/dcmitype/StillImage"/>
</cc:Work>
</rdf:RDF>
</metadata>
<defs>
<style type="text/css">.ColorScheme-Text {
        color:#4d4d4d;
      }</style>
<linearGradient id="linearGradient7426" x1="6" x2="90" y1="47" y2="47" gradientTransform="matrix(1.1415 0 0 1.1415 7.0693 -16.144)" gradientUnits="userSpaceOnUse">
<stop stop-color="#b2babc" offset="0"/>
<stop stop-color="#fff" offset=".25"/>
<stop stop-color="#96a1a4" offset=".5"/>
<stop stop-color="#f9fafb" offset=".75"/>
<stop stop-color="#b2b9bc" offset="1"/>
</linearGradient>
<linearGradient id="linearGradient3888-8-4-8-6">
<stop stop-color="#fff" offset="0"/>
<stop stop-color="#fff" stop-opacity="0" offset="1"/>
</linearGradient>
<radialGradient id="radialGradient7430" cx="48" cy="-27" r="42" gradientTransform="matrix(-1.1437 0 0 -.93335 212.76 -20.401)" gradientUnits="userSpaceOnUse">
<stop stop-color="#fff" offset="0"/>
<stop stop-color="#fff" offset=".8"/>
<stop stop-color="#fff" stop-opacity="0" offset="1"/>
</radialGradient>
<linearGradient id="linearGradient7460" x1="1.5" x2="94.5" y1="88.172" y2="88.172" gradientTransform="matrix(1.031 0 0 1.031 12.372 -11.983)" gradientUnits="userSpaceOnUse">
<stop offset="0"/>
<stop stop-opacity=".58824" offset=".1"/>
<stop stop-opacity=".58824" offset=".9"/>
<stop offset="1"/>
</linearGradient>
<radialGradient id="radialGradient7462" cx="13.948" cy="44.893" r="43.199" gradientTransform="matrix(1.0054 0 0 .050718 47.323 70.672)" gradientUnits="userSpaceOnUse" xlink:href="#linearGradient3888-8-4-8-6"/>
<radialGradient id="radialGradient7464" cx="13.948" cy="44.893" r="43.199" gradientTransform="matrix(.9159 0 0 .050718 19.706 -105.9)" gradientUnits="userSpaceOnUse" xlink:href="#linearGradient3888-8-4-8-6"/>
<linearGradient id="linearGradient7466" x1="2.7714" x2="50.528" y1="-28.642" y2="14.514" gradientUnits="userSpaceOnUse" xlink:href="#linearGradient3888-8-4-8-6"/>
<clipPath id="clipPath4156-4">
<path d="m27.046-55.695-14.214 13.321h0.06127l15.653 21.771 10.231-10.546c-0.2169-1.1522-11.311-23.67-11.732-24.546zm-17.399 16.313-14.888 14.062 21.229 17.515 10.385-10.577zm31.491 12.951-9.7413 9.7136 8.9448 12.458 7.7808-7.555zm-49.84 4.3788-13.754 12.982 26.283 13.846 0.06127-0.0617-0.12253-0.0617 9.8332-10.053-22.301-16.652zm38.015 7.4008-9.8025 9.7753 11.579 9.5594 7.6276-7.4008-8.6691-11.009zm20.187 5.674-7.3825 7.2158 6.1878 8.5418 5.8202-6.1365zm-32.195 6.3215-9.5575 9.4977 13.662 7.185 7.9339-7.6784zm23.312 2.3744-7.1068 6.9383 8.3628 6.9074 5.3608-5.674-0.06127-0.0925-0.0919 0.12335-6.4635-8.2026zm-8.7304 8.5418-7.5051 7.3392 10.354 5.4581c1.3975-1.321 5.6751-6.1229 5.8509-6.3215z" fill="#fff" opacity=".6"/>
</clipPath>
</defs>
<g transform="translate(1.51e-8 27.733)">
<g transform="translate(-8.5802 -18.49)">
<g transform="translate(-2.0814 7.3395)">
<g transform="matrix(.9699 0 0 .9699 1.8623 -4.9609)">
<g transform="translate(-3.2993)">
<rect x="12.372" y="-11.983" width="98.98" height="2.5776" fill="#fff" opacity=".31222"/>
<path d="m104.28-11.983h-84.84c-3.9168 0-7.07 3.1532-7.07 7.07v84.84c0 3.9168 3.1532 7.07 7.07 7.07h84.84c3.9168 0 7.07-3.1532 7.07-7.07v-84.84c0-3.9168-3.1532-7.07-7.07-7.07z" opacity=".15"/>
<path d="m103.62-11.209h-83.514c-3.8556 0-6.9595 3.1039-6.9595 6.9595v83.514c0 3.8556 3.1039 6.9595 6.9595 6.9595h83.514c3.8556 0 6.9595-3.1039 6.9595-6.9595v-83.514c0-3.8556-3.1039-6.9595-6.9595-6.9595z" opacity=".15"/>
<path d="m102.96-10.436h-82.188c-3.7944 0-6.849 3.0547-6.849 6.849v82.188c0 3.7944 3.0547 6.849 6.849 6.849h82.188c3.7944 0 6.849-3.0547 6.849-6.849v-82.188c0-3.7944-3.0547-6.849-6.849-6.849z" fill="url(#linearGradient7426)"/>
<path d="m23.969-5.5051c-2.9926 0-5.3683 2.3897-5.3683 5.4001v71.618c1.1495 1.7591 3.1103 2.9363 5.3683 2.9363h77.303c2.258 0 4.2188-1.1772 5.3683-2.9363v-71.618c0-3.0103-2.3757-5.4001-5.3683-5.4001z" fill="#e5e6e8" opacity=".963"/>
<g transform="matrix(1.0702 0 0 1.0702 -107.08 -15.573)">
<path d="m119.47 4.8c-3.5456 0-6.4 2.8544-6.4 6.4v16h1.0667v-16c0-2.9731 2.3602-5.3333 5.3333-5.3333h76.8c2.9731 0 5.3333 2.3602 5.3333 5.3333v16h1.0667v-16c0-3.5456-2.8544-6.4-6.4-6.4z" fill="url(#radialGradient7430)" opacity=".45"/>
</g>
<path d="m22.502-7.1064c-3.2134 0-5.8439 2.6183-5.8439 5.8212v71.428c0 3.2029 2.6305 5.8212 5.8439 5.8212h79.175c3.2134 0 5.8439-2.6183 5.8439-5.8212v-71.428c0-3.2029-2.6305-5.8212-5.8439-5.8212zm0 2.3914h79.175c1.9467 0 3.4561 1.526 3.4561 3.4298v71.428c0 1.9038-1.5094 3.4298-3.4561 3.4298h-79.175c-1.9467 0-3.4561-1.526-3.4561-3.4298v-71.428c0-1.9038 1.5094-3.4298 3.4561-3.4298z" color="#000000" fill="#1f2224" fill-opacity=".63265" style="text-decoration-line:none;text-indent:0;text-transform:none"/>
<path d="m13.918 72.401v6.1862c0 3.7944 3.0685 6.8628 6.8628 6.8628h82.161c3.7944 0 6.8628-3.0685 6.8628-6.8628v-6.1862c0 3.7944-3.0685 6.8628-6.8628 6.8628h-82.161c-3.7944 0-6.8628-3.0685-6.8628-6.8628z" fill="url(#linearGradient7460)" opacity=".65818"/>
<rect x="17.914" y="70.758" width="86.865" height="4.3819" rx="0" ry="4.3819" fill="url(#radialGradient7462)" opacity=".55"/>
<path class="ColorScheme-Text" d="m40.876 8.0617c1.2862 10.151 4.6022 20.825 12.139 30.561-3.4276 5.1744-7.7538 10.201-13.347 15.108h-13.524v5.7086h6.3112c-2.3721 1.7071-4.8836 3.4049-7.6496 5.0842l2.8349 6.3329c5.9215-3.5949 10.996-7.4306 15.42-11.417h59.227v-5.7086h-53.436c13.414-14.5 19.313-30.644 23.544-45.668h-6.4599c-2.4363 8.5822-5.2498 16.736-9.4528 24.596-6.0188-8.085-8.8361-15.963-9.9269-24.596zm47.785 0c-5.581 0.14274-9.8606 1.2419-12.976 2.8431l1.7474 7.2026c1.4926-0.58284 7.1377-2.6201 10.447-2.6201h0.45543c4.6076 0.21693 4.9356 2.1047 4.9356 6.5448v1.7505l-2.4074 0.44598c-11.162 1.8199-17.13 3.3477-17.13 12.956 0 6.6961 4.3477 10.837 10.643 10.837 4.348 0 7.2019-2.0391 10.122-4.8054l0.9109 4.0807h6.8782v-26.937c0-8.2249-5.0581-12.298-12.845-12.298zm4.6102 21.407v8.9531c-2.401 1.8199-4.2187 3.1219-7.3336 3.1219-2.7905 0-4.1548-1.9616-4.1548-4.7274 0-5.2404 4.084-6.1229 9.0811-6.5128z" color="#4d4d4d" fill="#999"/>
<rect transform="rotate(90)" x="-7.0852" y="-105.81" width="79.132" height="4.3819" rx="0" ry="4.3819" fill="url(#radialGradient7464)" opacity=".55"/>
<path d="m37.667 4.8528c1.2862 10.151 4.6024 20.825 12.139 30.56-3.4276 5.1744-7.7556 10.2-13.349 15.107h9.1844c13.414-14.5 19.312-30.642 23.543-45.667h-6.4594c-2.4364 8.5822-5.2488 16.734-9.4518 24.594-6.0188-8.085-8.8375-15.962-9.9283-24.594zm47.784 0c-5.581 0.14274-9.8601 1.2408-12.975 2.842l1.747 7.2033c1.4926-0.58284 7.139-2.6205 10.449-2.6205h0.45347c4.6076 0.21693 4.9359 2.1049 4.9359 6.545v1.7491l-2.4074 0.4472c-11.162 1.8199-17.13 3.3483-17.13 12.956 0 6.6961 4.3481 10.837 10.643 10.837 4.348 0 7.2004-2.04 10.121-4.8064l0.91112 4.0812h6.8794v-26.939c0-8.2249-5.0581-12.296-12.846-12.296zm4.6099 21.405v8.9545c-2.401 1.8199-4.2179 3.1221-7.3329 3.1221-2.7905 0-4.1544-1.9612-4.1544-4.727 0-5.2404 4.0828-6.1238 9.0799-6.5137zm-60.815 29.971c-2.3721 1.7071-4.8844 3.405-7.6505 5.0843l2.8358 6.3319c5.9215-3.5949 10.996-7.4297 15.42-11.416z" color="#4d4d4d" fill="#0e232e"/>
<path d="m22.448-5.1329c-2.0552 0-3.7164 1.7005-3.7208 3.7989l-0.15282 72.133c1.9731 2.5993 1.717 2.4856 5.0021 2.7622 1.8602-15.322 37.632-75.613 79.821-75.613 0.50323 0 0.99317 0.020476 1.4942 0.02991-0.31226-1.7714-1.8053-3.1109-3.6329-3.1109z" fill="#fff" opacity=".092"/>
<rect transform="matrix(.93753 0 0 .95719 16.852 23.583)" x="2" y="-30" width="92" height="92" rx="3.957" ry="3.957" clip-path="url(#clipPath4156-4)" fill="url(#linearGradient7466)" opacity=".718"/>
<g transform="matrix(1.0702 0 0 1.0702 -107.08 -15.573)">
<path d="m119.47 4.8c-3.5456 0-6.4 2.8544-6.4 6.4v16h1.0667v-16c0-2.9731 2.3602-5.3333 5.3333-5.3333h76.8c2.9731 0 5.3333 2.3602 5.3333 5.3333v16h1.0667v-16c0-3.5456-2.8544-6.4-6.4-6.4z" fill="url(#radialGradient7430)" opacity=".45"/>
</g>
<path class="ColorScheme-Text" d="m21.543 50.734v5.7086h76.143v-5.7086h-76.143z" color="#4d4d4d" fill="#dc0000"/>
</g>
</g>
</g>
</g>
</g>
</svg>
