<?xml version="1.0" encoding="UTF-8"?>
<!-- Created with Inkscape (http://www.inkscape.org/) -->
<svg version="1.1" viewBox="0 0 96 96" xmlns="http://www.w3.org/2000/svg" xmlns:cc="http://creativecommons.org/ns#" xmlns:dc="http://purl.org/dc/elements/1.1/" xmlns:rdf="http://www.w3.org/1999/02/22-rdf-syntax-ns#" xmlns:xlink="http://www.w3.org/1999/xlink">
<defs>
<linearGradient id="linearGradient6139-0">
<stop stop-color="#bab4b4" offset="0"/>
<stop stop-color="#fff" offset=".25"/>
<stop stop-color="#a29898" offset=".5"/>
<stop stop-color="#f9fafb" offset=".75"/>
<stop stop-color="#bab4b4" offset="1"/>
</linearGradient>
<linearGradient id="linearGradient3737">
<stop stop-color="#fff" offset="0"/>
<stop stop-color="#fff" stop-opacity="0" offset="1"/>
</linearGradient>
<linearGradient id="linearGradient4071-7" x1="6" x2="90" y1="47" y2="47" gradientTransform="matrix(1.1071 0 0 1.1071 -4.9939 -3.6207)" gradientUnits="userSpaceOnUse">
<stop stop-color="#b2babc" offset="0"/>
<stop stop-color="#fff" offset=".25"/>
<stop stop-color="#96a1a4" offset=".5"/>
<stop stop-color="#fbf9f9" offset=".75"/>
<stop stop-color="#b2b9bc" offset="1"/>
</linearGradient>
<radialGradient id="radialGradient7462-9" cx="13.948" cy="44.893" r="43.199" gradientTransform="matrix(.97513 0 0 .049191 34.048 80.582)" gradientUnits="userSpaceOnUse" xlink:href="#linearGradient3737"/>
<radialGradient id="radialGradient7464-0" cx="13.948" cy="44.893" r="43.199" gradientTransform="matrix(.88833 0 0 .049191 31.96 -90.317)" gradientUnits="userSpaceOnUse" xlink:href="#linearGradient3737"/>
<clipPath id="clipPath4156-4-1-6">
<path d="m27.046-55.695-14.214 13.321h0.06127l15.653 21.771 10.231-10.546c-0.2169-1.1522-11.311-23.67-11.732-24.546zm-17.399 16.313-14.888 14.062 21.229 17.515 10.385-10.577zm31.491 12.951-9.7413 9.7136 8.9448 12.458 7.7808-7.555zm-49.84 4.3788-13.754 12.982 26.283 13.846 0.06127-0.0617-0.12253-0.0617 9.8332-10.053-22.301-16.652zm38.015 7.4008-9.8025 9.7753 11.579 9.5594 7.6276-7.4008-8.6691-11.009zm20.187 5.674-7.3825 7.2158 6.1878 8.5418 5.8202-6.1365zm-32.195 6.3215-9.5575 9.4977 13.662 7.185 7.9339-7.6784zm23.312 2.3744-7.1068 6.9383 8.3628 6.9074 5.3608-5.674-0.06127-0.0925-0.0919 0.12335-6.4635-8.2026zm-8.7304 8.5418-7.5051 7.3392 10.354 5.4581c1.3975-1.321 5.6751-6.1229 5.8509-6.3215z" fill="#fff" opacity=".6"/>
</clipPath>
<linearGradient id="linearGradient953" x1="1.5" x2="94.5" y1="88.172" y2="88.172" gradientTransform="translate(.14895 .41503)" gradientUnits="userSpaceOnUse">
<stop offset="0"/>
<stop stop-opacity=".58824" offset=".1"/>
<stop stop-opacity=".58824" offset=".9"/>
<stop offset="1"/>
</linearGradient>
<linearGradient id="linearGradient955" x1="2.7714" x2="50.528" y1="-28.642" y2="14.514" gradientUnits="userSpaceOnUse" xlink:href="#linearGradient3737"/>
<linearGradient x1="506.16" x2="530.34" y1="1012.7" y2="1012.7" gradientUnits="userSpaceOnUse" xlink:href="#linearGradient6139-0"/>
<radialGradient id="radialGradient1239" cx="77.558" cy="23.944" r="8.9853" gradientTransform="matrix(1 0 0 .88147 0 2.8379)" gradientUnits="userSpaceOnUse">
<stop stop-color="#d3dbde" offset="0"/>
<stop stop-color="#91a4ac" offset="1"/>
</radialGradient>
<radialGradient id="radialGradient1241" cx="19.721" cy="23.944" r="8.9853" gradientTransform="matrix(1 0 0 .88147 0 2.8379)" gradientUnits="userSpaceOnUse">
<stop stop-color="#cfd7db" offset="0"/>
<stop stop-color="#8298a0" stop-opacity=".98261" offset="1"/>
</radialGradient>
</defs>
<metadata>
<rdf:RDF>
<cc:Work rdf:about="">
<dc:format>image/svg+xml</dc:format>
<dc:type rdf:resource="http://purl.org/dc/dcmitype/StillImage"/>
<dc:title/>
<dc:date>2017</dc:date>
<dc:creator>
<cc:Agent>
<dc:title>Cristian Pozzessere "ilnanny"</dc:title>
</cc:Agent>
</dc:creator>
<dc:subject>
<rdf:Bag>
<rdf:li>Global language</rdf:li>
</rdf:Bag>
</dc:subject>
<dc:description>Playing with Inkscape on Gnu/Linux O. S.</dc:description>
<dc:contributor>
<cc:Agent>
<dc:title>In the night, alone like a dog.</dc:title>
</cc:Agent>
</dc:contributor>
<cc:license rdf:resource="http://creativecommons.org/licenses/by-sa/4.0/"/>
</cc:Work>
<cc:License rdf:about="http://creativecommons.org/licenses/by-sa/4.0/">
<cc:permits rdf:resource="http://creativecommons.org/ns#Reproduction"/>
<cc:permits rdf:resource="http://creativecommons.org/ns#Distribution"/>
<cc:requires rdf:resource="http://creativecommons.org/ns#Notice"/>
<cc:requires rdf:resource="http://creativecommons.org/ns#Attribution"/>
<cc:permits rdf:resource="http://creativecommons.org/ns#DerivativeWorks"/>
<cc:requires rdf:resource="http://creativecommons.org/ns#ShareAlike"/>
</cc:License>
</rdf:RDF>
</metadata>
<g transform="translate(0 -1026.5)">
<g transform="translate(-.14896 1026.1)">
<path d="m89.292 0.41503h-82.286c-3.7988 0-6.8571 3.0583-6.8571 6.8571v82.286c0 3.7989 3.0583 6.8571 6.8571 6.8571h82.286c3.7989 0 6.8571-3.0583 6.8571-6.8571v-82.286c0-3.7989-3.0583-6.8571-6.8571-6.8571z" opacity=".15"/>
<path d="m88.649 1.165h-81c-3.7395 0-6.75 3.0105-6.75 6.75v81c0 3.7395 3.0105 6.75 6.75 6.75h81c3.7395 0 6.75-3.0105 6.75-6.75v-81c0-3.7395-3.0105-6.75-6.75-6.75z" opacity=".15"/>
<path d="m88.006 1.915h-79.714c-3.6801 0-6.6429 2.9627-6.6429 6.6429v79.714c0 3.6801 2.9627 6.6429 6.6429 6.6429h79.714c3.6801 0 6.6429-2.9627 6.6429-6.6429v-79.714c0-3.6801-2.9627-6.6429-6.6429-6.6429z" fill="url(#linearGradient4071-7)"/>
<path d="m11.39 6.8022c-2.8565 0-5.1241 2.2884-5.1241 5.171v68.58c1.0972 1.6845 2.9688 2.8117 5.1241 2.8117h73.787c2.1553 0 4.0269-1.1272 5.1241-2.8117v-68.58c0-2.8826-2.2676-5.171-5.1241-5.171z" fill="#e8e8e8" opacity=".9"/>
<path d="m9.974 5.1445c-3.1166 0-5.668 2.5395-5.668 5.646v69.278c0 3.1065 2.5513 5.646 5.668 5.646h76.792c3.1166 0 5.668-2.5395 5.668-5.646v-69.278c0-3.1065-2.5513-5.646-5.668-5.646zm0 2.3194h76.792c1.8881 0 3.352 1.4801 3.352 3.3266v69.278c0 1.8465-1.4639 3.3266-3.352 3.3266h-76.792c-1.8881 0-3.352-1.4801-3.352-3.3266v-69.278c0-1.8465 1.4639-3.3266 3.352-3.3266z" color="#000000" fill="#1f2224" fill-opacity=".63265" style="text-decoration-line:none;text-indent:0;text-transform:none"/>
<path d="m1.649 82.259v6c0 3.6801 2.9761 6.6562 6.6562 6.6562h79.687c3.6801 0 6.6563-2.9761 6.6563-6.6562v-6c0 3.6801-2.9761 6.6562-6.6563 6.6562h-79.687c-3.6801 0-6.6562-2.9761-6.6562-6.6562z" fill="url(#linearGradient953)" opacity=".65818"/>
<rect x="5.524" y="80.665" width="84.25" height="4.25" rx="4.25" ry="4.25" fill="url(#radialGradient7462-9)" opacity=".55"/>
<rect transform="rotate(90)" x="5.975" y="-90.234" width="76.75" height="4.25" rx="4.25" ry="4.25" fill="url(#radialGradient7464-0)" opacity=".669"/>
<path d="m20.806 34.134c-2.6714 0-5.102 1.258-6.8418 3.1107-1.7398 1.8527-2.8466 4.3581-2.611 6.9379l1.9862 21.782v-0.0152a1.1235 1.2966 0 0 0 0.0077 0.15319c0.69864 6.7867 4.3068 11.504 8.7298 11.699a1.1235 1.2966 0 0 0 0.04279 0.0013h0.13603a1.1235 1.2966 0 0 0 0.0011 0l51.333-0.05317c2.9629-0.0029 4.966-1.0521 6.4172-2.7492 1.4997-1.7521 2.6557-4.6075 3.0361-8.8661a1.1235 1.2966 0 0 0 0.0055-0.12913v0.0095l1.8984-21.786a1.1235 1.2966 0 0 0 0.0055-0.12913v-0.05318l-0.0055 0.12977c0.22668-2.6005-0.87432-5.1122-2.6138-6.9582-1.7394-1.8459-4.1685-3.0841-6.8396-3.0841h-54.008l0.3154 0.69506a1.1235 1.2966 0 0 0-0.99502-0.69506zm0 2.5929h54.687c2.0624 0 3.983 0.98193 5.319 2.3998 1.336 1.4179 2.0359 3.2136 1.8984 4.7901a1.1235 1.2966 0 0 0-0.0055 0.12977v-0.01202l-1.8979 21.785a1.1235 1.2966 0 0 0-0.0033 0.07216c-0.34564 3.8283-1.3534 6.0688-2.396 7.2867a1.1235 1.2966 0 0 0-5.61e-4 6.48e-4c-1.1055 1.2929-2.2636 1.9752-4.8199 1.9776l-51.333 0.05317h-0.09599c-3.0696-0.13798-5.9603-3.4914-6.5763-9.382a1.1235 1.2966 0 0 0-0.0033-0.0671l-1.9922-21.85a1.1235 1.2966 0 0 0 0-6.48e-4c-0.13972-1.5297 0.55915-3.3323 1.9001-4.7603 1.3409-1.428 3.2662-2.4232 5.3185-2.4232z" color="#000000" color-rendering="auto" dominant-baseline="auto" fill-opacity=".33333" image-rendering="auto" shape-rendering="auto" solid-color="#000000" style="font-feature-settings:normal;font-variant-alternates:normal;font-variant-caps:normal;font-variant-ligatures:normal;font-variant-numeric:normal;font-variant-position:normal;isolation:auto;mix-blend-mode:normal;shape-padding:0;text-decoration-color:#000000;text-decoration-line:none;text-decoration-style:solid;text-indent:0;text-orientation:mixed;text-transform:none;white-space:normal"/>
<path d="m20.806 35.431c-4.7249 0-8.7115 4.5084-8.3368 8.6163l1.9926 21.851v0.05265c0.65446 6.3495 3.9081 10.391 7.6584 10.556h0.0905 0.04488l51.333-0.05266c2.7592-0.0016 4.3397-0.8675 5.6179-2.3625 1.273-1.4864 2.3561-4.0362 2.7188-8.088v-0.05265l1.9036-21.851v-0.05265c0.365-4.1761-3.6029-8.6163-8.3353-8.6163h-54.687" fill="#fff"/>
<path d="m20.806 35.43c-4.7238 0-8.711 4.5066-8.3356 8.6161l1.9925 21.85v0.05274c0.65371 6.3502 3.9074 10.391 7.6573 10.557h0.09104 0.0448l51.333-0.05274c2.7596-0.0026 4.3402-0.86862 5.6185-2.3636 1.2723-1.4863 2.3559-4.0368 2.7178-8.0883v-0.05188l1.9037-21.85v-0.05274c0.36417-4.177-3.6021-8.6161-8.3356-8.6161h-54.687z" fill="#0084c8" stroke="#000" stroke-linecap="round" stroke-linejoin="round" stroke-width=".56365"/>
<g transform="matrix(.28084 0 0 .32411 -44.27 -229.79)" stroke-width="1.1302">
<path d="m253.48 846.52c0 6.2099-5.5323 11.246-12.363 11.246-6.8248 0-12.357-5.0358-12.357-11.246 0-6.2185 5.5322-11.254 12.357-11.254 6.8312 0 12.363 5.0358 12.363 11.254zm43.852 0c0 6.2099-5.5323 11.246-12.351 11.246-6.8248 0-12.354-5.0358-12.354-11.246 0-6.2185 5.5291-11.254 12.354-11.254 6.8185 0 12.351 5.0358 12.351 11.254zm43.864 0c0 6.2099-5.5323 11.246-12.357 11.246-6.8312 0-12.36-5.0358-12.36-11.246 0-6.2185 5.5291-11.254 12.36-11.254 6.8248 0 12.357 5.0358 12.357 11.254zm44.055 0c0 6.2099-5.5291 11.246-12.36 11.246-6.828 0-12.357-5.0358-12.357-11.246 0-6.2185 5.5291-11.254 12.357-11.254 6.8312 0 12.36 5.0358 12.36 11.254zm43.858 0c0 6.2099-5.5354 11.246-12.36 11.246-6.8185 0-12.351-5.0358-12.351-11.246 0-6.2185 5.5323-11.254 12.351-11.254 6.8248 0 12.36 5.0358 12.36 11.254zm-175.63 70.326c0 6.2127-5.5323 11.249-12.363 11.249-6.8248 0-12.357-5.0358-12.357-11.249 0-6.207 5.5322-11.251 12.357-11.251 6.8312 0 12.363 5.0444 12.363 11.251zm43.852 0c0 6.2127-5.5323 11.249-12.351 11.249-6.8248 0-12.354-5.0358-12.354-11.249 0-6.207 5.5291-11.251 12.354-11.251 6.8185 0 12.351 5.0444 12.351 11.251zm43.864 0c0 6.2127-5.5323 11.249-12.357 11.249-6.8312 0-12.36-5.0358-12.36-11.249 0-6.207 5.5291-11.251 12.36-11.251 6.8248 0 12.357 5.0444 12.357 11.251zm44.055 0c0 6.2127-5.5291 11.249-12.36 11.249-6.828 0-12.357-5.0358-12.357-11.249 0-6.207 5.5291-11.251 12.357-11.251 6.8312 0 12.36 5.0444 12.36 11.251zm43.858 0c0 6.2127-5.5354 11.249-12.36 11.249-6.8185 0-12.351-5.0358-12.351-11.249 0-6.207 5.5323-11.251 12.351-11.251 6.8248 0 12.36 5.0444 12.36 11.251zm-153.46-35.533c0 6.2041-5.5291 11.249-12.354 11.249-6.828 0-12.363-5.0444-12.363-11.249 0-6.2128 5.5354-11.251 12.363-11.251 6.8248 0 12.354 5.0387 12.354 11.251zm43.864 0c0 6.2041-5.5418 11.249-12.36 11.249-6.8248 0-12.357-5.0444-12.357-11.249 0-6.2128 5.5323-11.251 12.357-11.251 6.8185 0 12.36 5.0387 12.36 11.251zm43.858 0c0 6.2041-5.5291 11.249-12.36 11.249-6.828 0-12.36-5.0444-12.36-11.249 0-6.2128 5.5323-11.251 12.36-11.251 6.8312 0 12.36 5.0387 12.36 11.251zm44.055 0c0 6.2041-5.5291 11.249-12.36 11.249-6.8248 0-12.357-5.0444-12.357-11.249 0-6.2128 5.5323-11.251 12.357-11.251 6.8312 0 12.36 5.0387 12.36 11.251z"/>
<path d="m236.94 835.26c-6.8248 0-12.355 5.0358-12.355 11.254 0 6.2099 5.5306 11.244 12.355 11.244 0.8167 0 1.6149-0.0757 2.3872-0.21314-5.6835-1.0115-9.9728-5.5632-9.9728-11.031 0-5.4751 4.2894-10.03 9.9728-11.041-0.77233-0.13737-1.5705-0.21314-2.3872-0.21314zm43.865 0c-6.8248 0-12.353 5.0358-12.353 11.254 0 6.2099 5.5283 11.244 12.353 11.244 0.81589 0 1.6131-0.0755 2.3849-0.21314-5.6818-1.0123-9.9682-5.5639-9.9682-11.031 0-5.4744 4.2864-10.029 9.9682-11.041-0.77181-0.13761-1.569-0.21314-2.3849-0.21314zm43.858 0c-6.8312 0-12.36 5.0358-12.36 11.254 0 6.2099 5.5289 11.244 12.36 11.244 0.8159 0 1.6132-0.0759 2.3849-0.21314-5.6872-1.0115-9.9752-5.5632-9.9752-11.031 0-5.4751 4.2879-10.03 9.9752-11.041-0.7717-0.13735-1.569-0.21314-2.3849-0.21314zm44.053 0c-6.828 0-12.358 5.0358-12.358 11.254 0 6.2099 5.5298 11.244 12.358 11.244 0.81665 0 1.6127-0.0759 2.3849-0.21314-5.6851-1.0115-9.9728-5.5632-9.9728-11.031 0-5.4751 4.2878-10.03 9.9728-11.041-0.77221-0.13735-1.5683-0.21314-2.3849-0.21314zm43.858 0c-6.8185 0-12.351 5.0358-12.351 11.254 0 6.2099 5.5323 11.244 12.351 11.244 0.81666 0 1.6124-0.0755 2.3849-0.21314-5.678-1.0123-9.9658-5.5639-9.9658-11.031 0-5.4744 4.2878-10.029 9.9658-11.041-0.77247-0.13761-1.5682-0.21314-2.3849-0.21314zm-153.46 34.795c-6.828 0-12.362 5.0395-12.362 11.252 0 6.2041 5.5344 11.248 12.362 11.248 0.81588 0 1.6133-0.0777 2.3849-0.21525-5.6862-1.0131-9.9775-5.5704-9.9775-11.033 0-5.47 4.2913-10.027 9.9775-11.039-0.77161-0.13742-1.569-0.21315-2.3849-0.21315zm43.858 0c-6.8248 0-12.355 5.0395-12.355 11.252 0 6.2041 5.5306 11.248 12.355 11.248 0.81592 0 1.6129-0.0775 2.3849-0.21525-5.6824-1.0138-9.9705-5.571-9.9705-11.033 0-5.4693 4.2881-10.026 9.9705-11.039-0.77202-0.13768-1.569-0.21315-2.3849-0.21315zm43.858 0c-6.828 0-12.36 5.0395-12.36 11.252 0 6.2041 5.5321 11.248 12.36 11.248 0.81672 0 1.615-0.0777 2.3872-0.21525-5.6857-1.013-9.9775-5.5703-9.9775-11.033 0-5.47 4.2918-10.027 9.9775-11.039-0.77225-0.13744-1.5706-0.21315-2.3872-0.21315zm44.056 0c-6.8248 0-12.358 5.0395-12.358 11.252 0 6.2041 5.5329 11.248 12.358 11.248 0.81744 0 1.6144-0.0775 2.3873-0.21525-5.6835-1.013-9.9752-5.5703-9.9752-11.033 0-5.47 4.2917-10.027 9.9752-11.039-0.7729-0.13768-1.5698-0.21315-2.3873-0.21315zm-153.95 35.534c-6.8248 0-12.355 5.0431-12.355 11.25 0 6.2128 5.5306 11.248 12.355 11.248 0.8167 0 1.6149-0.0757 2.3872-0.21313-5.6835-1.0115-9.9728-5.5648-9.9728-11.035 0-5.465 4.2894-10.024 9.9728-11.037-0.77233-0.13756-1.5705-0.21313-2.3872-0.21313zm43.865 0c-6.8248 0-12.353 5.0431-12.353 11.25 0 6.2128 5.5283 11.248 12.353 11.248 0.81589 0 1.6131-0.0755 2.3849-0.21313-5.6818-1.0123-9.9682-5.5656-9.9682-11.035 0-5.4643 4.2864-10.023 9.9682-11.037-0.77181-0.1378-1.569-0.21313-2.3849-0.21313zm43.858 0c-6.8312 0-12.36 5.0431-12.36 11.25 0 6.2128 5.5289 11.248 12.36 11.248 0.8159 0 1.6132-0.0759 2.3849-0.21313-5.6872-1.0115-9.9752-5.5648-9.9752-11.035 0-5.465 4.2879-10.024 9.9752-11.037-0.7717-0.13754-1.569-0.21313-2.3849-0.21313zm44.053 0c-6.828 0-12.358 5.0431-12.358 11.25 0 6.2128 5.5298 11.248 12.358 11.248 0.81665 0 1.6127-0.0759 2.3849-0.21313-5.6851-1.0115-9.9728-5.5648-9.9728-11.035 0-5.465 4.2878-10.024 9.9728-11.037-0.77221-0.13754-1.5683-0.21313-2.3849-0.21313zm43.858 0c-6.8185 0-12.351 5.0431-12.351 11.25 0 6.2128 5.5323 11.248 12.351 11.248 0.81666 0 1.6124-0.0755 2.3849-0.21313-5.678-1.0123-9.9658-5.5656-9.9658-11.035 0-5.4643 4.2878-10.023 9.9658-11.037-0.77247-0.1378-1.5682-0.21313-2.3849-0.21313z" fill="#fff" opacity=".482"/>
<path d="m421.21 835.26c6.8248 0 12.355 5.0358 12.355 11.254 0 6.2099-5.5306 11.244-12.355 11.244-0.81672 0-1.6149-0.0757-2.3872-0.21314 5.6835-1.0115 9.9728-5.5632 9.9728-11.031 0-5.4751-4.2894-10.03-9.9728-11.041 0.77233-0.13737 1.5705-0.21314 2.3872-0.21314zm-43.865 0c6.8248 0 12.353 5.0358 12.353 11.254 0 6.2099-5.5283 11.244-12.353 11.244-0.81591 0-1.6131-0.0755-2.3849-0.21314 5.6818-1.0123 9.9682-5.5639 9.9682-11.031 0-5.4744-4.2864-10.029-9.9682-11.041 0.7718-0.13761 1.569-0.21314 2.3849-0.21314zm-43.858 0c6.8312 0 12.36 5.0358 12.36 11.254 0 6.2099-5.5289 11.244-12.36 11.244-0.8159 0-1.6132-0.0759-2.3849-0.21314 5.6872-1.0115 9.9752-5.5632 9.9752-11.031 0-5.4751-4.2879-10.03-9.9752-11.041 0.77168-0.13735 1.569-0.21314 2.3849-0.21314zm-44.053 0c6.828 0 12.358 5.0358 12.358 11.254 0 6.2099-5.5298 11.244-12.358 11.244-0.81664 0-1.6127-0.0759-2.3849-0.21314 5.6851-1.0115 9.9728-5.5632 9.9728-11.031 0-5.4751-4.2878-10.03-9.9728-11.041 0.77219-0.13735 1.5683-0.21314 2.3849-0.21314zm-43.858 0c6.8185 0 12.351 5.0358 12.351 11.254 0 6.2099-5.5323 11.244-12.351 11.244-0.81667 0-1.6124-0.0755-2.3849-0.21314 5.678-1.0123 9.9659-5.5639 9.9659-11.031 0-5.4744-4.2878-10.029-9.9659-11.041 0.77247-0.13761 1.5682-0.21314 2.3849-0.21314zm153.46 34.795c6.828 0 12.362 5.0395 12.362 11.252 0 6.2041-5.5344 11.248-12.362 11.248-0.81588 0-1.6133-0.0777-2.3849-0.21525 5.6862-1.0131 9.9775-5.5704 9.9775-11.033 0-5.47-4.2913-10.027-9.9775-11.039 0.7716-0.13742 1.569-0.21315 2.3849-0.21315zm-43.858 0c6.8248 0 12.355 5.0395 12.355 11.252 0 6.2041-5.5306 11.248-12.355 11.248-0.8159 0-1.6129-0.0775-2.3849-0.21525 5.6824-1.0138 9.9705-5.571 9.9705-11.033 0-5.4693-4.2881-10.026-9.9705-11.039 0.77203-0.13768 1.569-0.21315 2.3849-0.21315zm-43.858 0c6.828 0 12.36 5.0395 12.36 11.252 0 6.2041-5.5321 11.248-12.36 11.248-0.81671 0-1.615-0.0777-2.3872-0.21525 5.6857-1.013 9.9775-5.5703 9.9775-11.033 0-5.47-4.2918-10.027-9.9775-11.039 0.77225-0.13744 1.5706-0.21315 2.3872-0.21315zm-44.056 0c6.8248 0 12.358 5.0395 12.358 11.252 0 6.2041-5.5329 11.248-12.358 11.248-0.81744 0-1.6143-0.0775-2.3872-0.21525 5.6835-1.013 9.9752-5.5703 9.9752-11.033 0-5.47-4.2917-10.027-9.9752-11.039 0.77288-0.13768 1.5698-0.21315 2.3872-0.21315zm153.95 35.534c6.8248 0 12.355 5.0431 12.355 11.25 0 6.2128-5.5306 11.248-12.355 11.248-0.81672 0-1.6149-0.0757-2.3872-0.21313 5.6835-1.0115 9.9728-5.5648 9.9728-11.035 0-5.465-4.2894-10.024-9.9728-11.037 0.77233-0.13756 1.5705-0.21313 2.3872-0.21313zm-43.865 0c6.8248 0 12.353 5.0431 12.353 11.25 0 6.2128-5.5283 11.248-12.353 11.248-0.81591 0-1.6131-0.0755-2.3849-0.21313 5.6818-1.0123 9.9682-5.5656 9.9682-11.035 0-5.4643-4.2864-10.023-9.9682-11.037 0.7718-0.1378 1.569-0.21313 2.3849-0.21313zm-43.858 0c6.8312 0 12.36 5.0431 12.36 11.25 0 6.2128-5.5289 11.248-12.36 11.248-0.8159 0-1.6132-0.0759-2.3849-0.21313 5.6872-1.0115 9.9752-5.5648 9.9752-11.035 0-5.465-4.2879-10.024-9.9752-11.037 0.77168-0.13754 1.569-0.21313 2.3849-0.21313zm-44.053 0c6.828 0 12.358 5.0431 12.358 11.25 0 6.2128-5.5298 11.248-12.358 11.248-0.81664 0-1.6127-0.0759-2.3849-0.21313 5.6851-1.0115 9.9728-5.5648 9.9728-11.035 0-5.465-4.2878-10.024-9.9728-11.037 0.77219-0.13754 1.5683-0.21313 2.3849-0.21313zm-43.858 0c6.8185 0 12.351 5.0431 12.351 11.25 0 6.2128-5.5323 11.248-12.351 11.248-0.81667 0-1.6124-0.0755-2.3849-0.21313 5.678-1.0123 9.9659-5.5656 9.9659-11.035 0-5.4643-4.2878-10.023-9.9659-11.037 0.77247-0.1378 1.5682-0.21313 2.3849-0.21313z" fill="#fff" opacity=".482"/>
</g>
<path d="m82.251 23.943c0 2.6136-2.1021 4.7331-4.6936 4.7331-2.5909 0-4.6912-2.1195-4.6912-4.7331 0-2.6137 2.1003-4.7319 4.6912-4.7319 2.5915 0 4.6936 2.1182 4.6936 4.7319zm-0.48587 7.3492h-8.413l-4.2077-7.3492 4.2077-7.3474h8.413l4.2059 7.3474z" fill="url(#radialGradient1239)" stroke="#1f2228" stroke-linecap="round" stroke-linejoin="round" stroke-opacity=".55144" stroke-width="1.144"/>
<path d="m24.414 23.943c0 2.6136-2.1021 4.7331-4.6936 4.7331-2.5909 0-4.6912-2.1195-4.6912-4.7331 0-2.6137 2.1003-4.7319 4.6912-4.7319 2.5915 0 4.6936 2.1182 4.6936 4.7319zm-0.48587 7.3492h-8.413l-4.2077-7.3492 4.2077-7.3474h8.413l4.2059 7.3474z" fill="url(#radialGradient1241)" stroke="#1f2228" stroke-linecap="round" stroke-linejoin="round" stroke-opacity=".55144" stroke-width="1.144"/>
<rect transform="matrix(1.0692 0 0 1.0477 4.4442 38.894)" x="2" y="-30" width="75.966" height="69.024" rx="3.957" ry="3.957" clip-path="url(#clipPath4156-4-1-6)" fill="url(#linearGradient955)" opacity=".65"/>
</g>
</g>
</svg>
