<?xml version="1.0" encoding="UTF-8"?>
<!-- Created with Inkscape (http://www.inkscape.org/) -->
<svg version="1.1" viewBox="0 0 96 96" xmlns="http://www.w3.org/2000/svg" xmlns:cc="http://creativecommons.org/ns#" xmlns:dc="http://purl.org/dc/elements/1.1/" xmlns:rdf="http://www.w3.org/1999/02/22-rdf-syntax-ns#" xmlns:xlink="http://www.w3.org/1999/xlink">
<defs>
<linearGradient id="linearGradient7426" x1="6" x2="90" y1="47" y2="47" gradientTransform="matrix(1.1415 0 0 1.1415 7.0693 -16.144)" gradientUnits="userSpaceOnUse">
<stop stop-color="#ced5da" offset="0"/>
<stop stop-color="#f9fbfc" offset=".25"/>
<stop stop-color="#e4e7ea" offset=".5"/>
<stop stop-color="#fafafa" offset=".75"/>
<stop stop-color="#cfd6db" offset="1"/>
</linearGradient>
<linearGradient id="linearGradient7460" x1="1.5" x2="94.5" y1="88.172" y2="88.172" gradientTransform="matrix(1.031 0 0 1.031 12.372 -11.983)" gradientUnits="userSpaceOnUse">
<stop offset="0"/>
<stop stop-opacity=".58824" offset=".1"/>
<stop stop-opacity=".58824" offset=".9"/>
<stop offset="1"/>
</linearGradient>
<radialGradient id="radialGradient7462" cx="13.948" cy="44.893" r="43.199" gradientTransform="matrix(1.0054 0 0 .050718 47.323 70.672)" gradientUnits="userSpaceOnUse" xlink:href="#linearGradient4133"/>
<linearGradient id="linearGradient4133">
<stop stop-color="#fff" offset="0"/>
<stop stop-color="#fff" stop-opacity="0" offset="1"/>
</linearGradient>
<radialGradient id="radialGradient7464" cx="13.948" cy="44.893" r="43.199" gradientTransform="matrix(.9159 0 0 .050718 19.706 -105.9)" gradientUnits="userSpaceOnUse" xlink:href="#linearGradient4133"/>
<linearGradient id="linearGradient7128" x1="2.7714" x2="50.528" y1="-28.642" y2="14.514" gradientUnits="userSpaceOnUse" xlink:href="#linearGradient4133"/>
<clipPath id="clipPath4156-4">
<path d="m27.046-55.695-14.214 13.321h0.06127l15.653 21.771 10.231-10.546c-0.2169-1.1522-11.311-23.67-11.732-24.546zm-17.399 16.313-14.888 14.062 21.229 17.515 10.385-10.577zm31.491 12.951-9.7413 9.7136 8.9448 12.458 7.7808-7.555zm-49.84 4.3788-13.754 12.982 26.283 13.846 0.06127-0.0617-0.12253-0.0617 9.8332-10.053-22.301-16.652zm38.015 7.4008-9.8025 9.7753 11.579 9.5594 7.6276-7.4008-8.6691-11.009zm20.187 5.674-7.3825 7.2158 6.1878 8.5418 5.8202-6.1365zm-32.195 6.3215-9.5575 9.4977 13.662 7.185 7.9339-7.6784zm23.312 2.3744-7.1068 6.9383 8.3628 6.9074 5.3608-5.674-0.06127-0.0925-0.0919 0.12335-6.4635-8.2026zm-8.7304 8.5418-7.5051 7.3392 10.354 5.4581c1.3975-1.321 5.6751-6.1229 5.8509-6.3215z" fill="#fff" opacity=".6"/>
</clipPath>
<radialGradient id="radialGradient1064" cx="48" cy="-27" r="42" gradientTransform="matrix(-1.1437 0 0 -.93335 212.76 -20.401)" gradientUnits="userSpaceOnUse">
<stop stop-color="#fff" offset="0"/>
<stop stop-color="#fff" offset=".8"/>
<stop stop-color="#fff" stop-opacity="0" offset="1"/>
</radialGradient>
<linearGradient id="linearGradient946" x1="1.0984" x2="26.385" y1="35.747" y2="57.609" gradientUnits="userSpaceOnUse">
<stop stop-color="#42fe11" offset="0"/>
<stop stop-color="#45fe02" offset=".23281"/>
<stop stop-color="#f6fe2b" offset=".26422"/>
<stop stop-color="#fbba05" offset=".59356"/>
<stop stop-color="#f623e1" offset=".84298"/>
<stop stop-color="#3ec3f4" offset="1"/>
</linearGradient>
<filter id="filter898" x="-.011311" y="-.011879" width="1.0226" height="1.0238" color-interpolation-filters="sRGB">
<feGaussianBlur stdDeviation="0.32005159"/>
</filter>
</defs>
<metadata>
<rdf:RDF>
<cc:Work rdf:about="">
<dc:format>image/svg+xml</dc:format>
<dc:type rdf:resource="http://purl.org/dc/dcmitype/StillImage"/>
<dc:title/>
<dc:date>2017</dc:date>
<dc:creator>
<cc:Agent>
<dc:title>Cristian Pozzessere "ilnanny"</dc:title>
</cc:Agent>
</dc:creator>
<dc:subject>
<rdf:Bag>
<rdf:li>Global language</rdf:li>
</rdf:Bag>
</dc:subject>
<dc:description>Playing with Inkscape on Gnu/Linux O. S.</dc:description>
<dc:contributor>
<cc:Agent>
<dc:title>In the night, alone like a dog.</dc:title>
</cc:Agent>
</dc:contributor>
<cc:license rdf:resource="http://creativecommons.org/licenses/by-sa/4.0/"/>
</cc:Work>
<cc:License rdf:about="http://creativecommons.org/licenses/by-sa/4.0/">
<cc:permits rdf:resource="http://creativecommons.org/ns#Reproduction"/>
<cc:permits rdf:resource="http://creativecommons.org/ns#Distribution"/>
<cc:requires rdf:resource="http://creativecommons.org/ns#Notice"/>
<cc:requires rdf:resource="http://creativecommons.org/ns#Attribution"/>
<cc:permits rdf:resource="http://creativecommons.org/ns#DerivativeWorks"/>
<cc:requires rdf:resource="http://creativecommons.org/ns#ShareAlike"/>
</cc:License>
</rdf:RDF>
</metadata>
<g transform="translate(0 -1026.5)">
<g transform="matrix(.9699 0 0 .9699 -11.999 1038.1)">
<path d="m104.28-11.983h-84.84c-3.9168 0-7.07 3.1532-7.07 7.07v84.84c0 3.9168 3.1532 7.07 7.07 7.07h84.84c3.9168 0 7.07-3.1532 7.07-7.07v-84.84c0-3.9168-3.1532-7.07-7.07-7.07z" opacity=".15"/>
<path d="m103.62-11.209h-83.514c-3.8556 0-6.9595 3.1039-6.9595 6.9595v83.514c0 3.8556 3.1039 6.9595 6.9595 6.9595h83.514c3.8556 0 6.9595-3.1039 6.9595-6.9595v-83.514c0-3.8556-3.1039-6.9595-6.9595-6.9595z" opacity=".15"/>
<path d="m102.96-10.436h-82.188c-3.7944 0-6.849 3.0547-6.849 6.849v82.188c0 3.7944 3.0547 6.849 6.849 6.849h82.188c3.7944 0 6.849-3.0547 6.849-6.849v-82.188c0-3.7944-3.0547-6.849-6.849-6.849z" fill="url(#linearGradient7426)"/>
<path d="m23.969-5.5051c-2.9926 0-5.3683 2.3897-5.3683 5.4001v71.618c1.1495 1.7591 3.1103 2.9363 5.3683 2.9363h77.303c2.258 0 4.2188-1.1772 5.3683-2.9363v-71.618c0-3.0103-2.3757-5.4001-5.3683-5.4001z" fill="#dfe3e6" opacity=".963"/>
<g transform="matrix(1.0702 0 0 1.0702 -107.08 -15.573)">
<path d="m119.47 4.8c-3.5456 0-6.4 2.8544-6.4 6.4v16h1.0667v-16c0-2.9731 2.3602-5.3333 5.3333-5.3333h76.8c2.9731 0 5.3333 2.3602 5.3333 5.3333v16h1.0667v-16c0-3.5456-2.8544-6.4-6.4-6.4z" fill="url(#radialGradient1064)" opacity=".45"/>
</g>
<g transform="matrix(.96477 0 0 .96477 24.224 -68.434)">
<g transform="translate(-4.2121 88.755)"></g>
</g>
<path d="m22.502-7.1064c-3.2133 0.00776-5.8439 2.6183-5.8439 5.8212v71.428c0 3.2029 2.6305 5.8212 5.8439 5.8212h79.175c3.2134 0 5.8439-2.6183 5.8439-5.8212v-71.428c0-3.2029-2.8213-6.0198-6.0347-6.012zm0 2.3914h79.175c1.9467 0 3.4561 1.526 3.4561 3.4298v71.428c0 1.9038-1.5094 3.4298-3.4561 3.4298h-79.175c-1.9467 0-3.4561-1.526-3.4561-3.4298v-71.428c0-1.9038 1.5094-3.4298 3.4561-3.4298z" color="#000000" fill="#323232" fill-opacity=".97531" opacity=".954" style="text-decoration-line:none;text-indent:0;text-transform:none"/>
<path d="m13.918 72.401v6.1862c0 3.7944 3.0685 6.8628 6.8628 6.8628h82.161c3.7944 0 6.8628-3.0685 6.8628-6.8628v-6.1862c0 3.7944-3.0685 6.8628-6.8628 6.8628h-82.161c-3.7944 0-6.8628-3.0685-6.8628-6.8628z" fill="url(#linearGradient7460)" opacity=".65818"/>
<rect x="17.914" y="70.758" width="86.865" height="4.3819" rx="0" ry="4.3819" fill="url(#radialGradient7462)" opacity=".55"/>
<rect transform="rotate(90)" x="-7.0852" y="-105.81" width="79.132" height="4.3819" rx="0" ry="4.3819" fill="url(#radialGradient7464)" opacity=".55"/>
<g transform="matrix(1.2755 .23832 .23832 1.2755 13.157 -8.1255)">
<g transform="matrix(1.0059 -.00089079 .00089079 1.0009 -82.553 -9.0908)" fill="none" filter="url(#filter898)" stroke="#030303" stroke-opacity=".45267">
<path d="m128.11 45.47 0.62939 0.62941c-0.0438-0.77111-23.004-23.002-23.004-23.002l0.62864 0.62864-0.0193 0.0178 0.0146 0.01461c-2.4236 2.4899-6.0999 5.9782-11.587 10.855-5.5075 4.8958-9.3972 8.1353-12.121 10.227l-0.03236 0.0293c1.2033 1.4576 2.9575 3.3381 5.1069 5.469l8.0274 7.4635c4.8781 4.2849 9.361 7.8125 12.349 9.7916zm-32.238-9.7577c5.4929-4.8827 9.1815-8.3803 11.607-10.873l0.50075 0.50076-7.2748 7.925 7.925-7.2748 1.295 1.295-5.6762 6.2432 6.2432-5.6762 2.4105 2.4106-5.6762 6.2432 6.2432-5.6762 1.416 1.416-9.8232 10.902 10.901-9.824 1.2896 1.2896-8.7478 9.6214 9.6214-8.7477 3.1139 3.1139-6.1377 6.7509 6.7501-6.1384 2.0531 2.0531-6.1377 6.7509 6.7501-6.1384 1.0701 1.0701-6.1377 6.7509 6.7501-6.1385 0.77424 0.77426-17.033 18.728c-0.76038 0.20414-1.7573 0.19182-2.6101-0.75498-1.6417-1.8189-0.17102-2.6209-1.3459-3.7957-1.1748-1.1748-2.352 0.8821-4.3342-0.51307-1.983-1.3959 0.44143-3.3797 0.22033-5.8041-0.21956-2.4244-3.0854-0.88209-5.4651-0.85205-2.3797 0.0301-2.9082-0.17641-4.231-2.3805-1.3228-2.2041-1.1756-3.3789-3.2318-4.996-0.83433-0.65559-1.6633-0.59396-2.3535-0.28889 2.4175-1.9691 5.4567-4.5661 9.2816-7.9658zm59.949-38.378c-59.585 59.773-29.792 29.886 0 0zm-10.111 2.944c-0.93928 1.5151-1.6291 2.8932-2.171 3.8285-2.3697 3.3173-5.1348 7.6118-6.9221 9.3991-5.2124 5.2124-9.4384 0.38206-15.792-2.4568-0.71723-0.31817-1.5872-0.18504-2.1811 0.40123l-0.63054-0.63056-2.0371 2.0384-0.0785-0.07849c-0.36131-0.36131-1.6575 0.93646-1.297 1.297l0.0772 0.07716-4.7417 4.743-0.0788-0.07685c-0.35977-0.35976-1.6584 0.93753-1.2986 1.2973l0.0785 0.07849-2.9024 2.9011 0.62921 0.62922-0.0191 0.01778 0.0146 0.01463c-2.4236 2.4899-6.0997 5.9782-11.586 10.855-5.5075 4.8958-9.3978 8.1352-12.121 10.227l-0.03239 0.02974c1.2033 1.4576 2.9579 3.3375 5.1072 5.4684l8.028 7.463c4.8781 4.2849 9.3597 7.8138 12.348 9.7929l20.007-22.124 0.62921 0.62922 2.9008-2.9008 0.0729 0.0748c0.35901 0.35745 1.658-0.94177 1.3006-1.2992l-0.0745-0.07449 4.7434-4.7434 0.0729 0.0748c0.35824 0.35822 1.6561-0.93985 1.2986-1.2973l-0.0745-0.07449 2.0368-2.0367-0.63055-0.63055c0.58702-0.59322 0.72333-1.4619 0.40281-2.1814-2.8381-6.3526-7.2415-10.153-2.0298-15.365 1.7873-1.7873 6.0802-4.5539 9.3991-6.9221 1.4844-0.8599 3.9979-2.1695 6.4334-4.2571l0.61165-3.2735c0.28898-1.5466-0.70524-2.557-2.2867-2.2615l-4.8604 0.90815c-1.1696 1.739-1.9476 3.5165-2.9997 5.1959l-0.0219 0.032507c-0.89364 1.1941-1.8566 2.5896-2.7888 3.9408-1.6394 2.3774-3.1896 4.6236-4.3467 5.7807-5.1624 5.1624-9.1901 1.0494-15.214-1.2749-0.10786-0.04159-0.25821-0.10524-0.43155-0.18303-1.1163-0.49382-1.7796-0.68982-1.9722-0.58196-0.18875 0.14252-0.44731 0.11773-0.60909-0.04408-0.0154-0.01536-0.0312-0.03234-0.0443-0.05014-0.15562-0.20646-0.11165-0.50058 0.094-0.65542 0.62787-0.47225 1.7352-0.04324 2.9108 0.47604 0.15716 0.06931 0.28876 0.12905 0.38737 0.16602 5.6847 2.1933 9.3127 6.3897 14.218 1.4847 1.097-1.097 2.6215-3.3085 4.237-5.6497 0.93293-1.352 1.897-2.7497 2.7991-3.9538 0.89894-1.4342 1.6257-2.9473 2.5499-4.4535zm-30.25 15.368c0.1198-1.94e-4 0.23828 0.04606 0.32957 0.13735l20.261 20.261c0.18181 0.18181 0.18288 0.47826-4.8e-4 0.66162-0.1818 0.1818-0.4771 0.1811-0.65967-0.0015l-20.261-20.261c-0.18258-0.18257-0.18405-0.47708-1e-3 -0.65968 0.0913-0.09129 0.21225-0.13763 0.33205-0.13782zm-5.5064 5.5064c0.1198-1.94e-4 0.24023 0.04411 0.33152 0.13541l20.261 20.261c0.18182 0.18182 0.18047 0.47934-2e-3 0.66192-0.18258 0.18257-0.47934 0.18469-0.66192 0.0021l-20.261-20.261c-0.18259-0.18257-0.18048-0.47935 2e-3 -0.66192 0.0913-0.0913 0.21061-0.13733 0.3304-0.13752zm-2.4744 3.6863 0.50018 0.50018-7.2752 7.9257 7.9257-7.2752 1.294 1.296-5.6755 6.2421 6.2438-5.6758 2.4104 2.4104-5.6771 6.2425 6.2438-5.6758 1.4151 1.417-9.822 10.901 10.901-9.8236 1.289 1.289-8.7478 9.6218 9.6218-8.7478 3.1142 3.1142-6.1382 6.7502 6.7502-6.1382 2.0526 2.0526-6.1369 6.7515 6.7502-6.1382 1.0695 1.0695-6.1369 6.7515 6.7502-6.1382 0.77422 0.77422-17.035 18.728c-0.76037 0.20414-1.7564 0.1918-2.6092-0.755-1.6417-1.8189-0.17141-2.6217-1.3462-3.7966-1.1748-1.1748-2.3524 0.88361-4.3346-0.51156-1.983-1.3959 0.44225-3.3812 0.22115-5.8056-0.21956-2.4244-3.085-0.88146-5.4647-0.85142-2.3797 0.0301-2.9088-0.17712-4.2316-2.3812-1.3228-2.2041-1.1755-3.3776-3.2317-4.9947-0.83433-0.65559-1.6633-0.59472-2.3536-0.28965 2.4175-1.9691 5.4565-4.5661 9.2815-7.9658 5.4929-4.8827 9.182-8.3799 11.607-10.873z" fill="none" stroke="#030303" stroke-opacity=".45267" stroke-width="1.0895"/>
</g>
<g>
<path transform="matrix(.8376 -.1565 -.1565 .8376 -.05262 -3.0142)" d="m89.842 5.7441c-59.895 60.171-29.947 30.085 0 0zm-11.828 1.3047c-0.81177 1.6571-1.3466 3.2026-1.8008 4.2344-2.1647 3.556-4.5927 8.2294-6.3906 10.027-5.2433 5.2434-11.588-1.709-20.104-6.6895-0.96081-0.55938-2.0062-0.59578-2.6055-0.0078l-0.92578-0.92579-2.0488 2.0508-0.11523-0.11523c-0.53048-0.53049-1.834 0.77534-1.3047 1.3047l0.11328 0.11328-4.7695 4.7715-0.11523-0.11328c-0.52822-0.52821-1.8349 0.77647-1.3066 1.3047l0.11523 0.11524-2.9199 2.918 0.92383 0.92383-0.01953 0.01758 0.021483 0.021482c-2.4227 2.52-6.1639 5.9856-11.824 10.75-5.6816 4.7835-9.7454 7.8916-12.631 9.8496l-0.0332 0.0293c1.8255 2.0813 4.4305 4.8124 7.582 7.9453l11.656 11.088c7.025 6.4283 13.385 11.83 17.539 14.969l19.637-22.744 0.92383 0.92383 2.918-2.918 0.10742 0.10938c0.52674 0.52518 1.8334-0.7818 1.3086-1.3066l-0.10937-0.10937 4.7715-4.7715 0.10742 0.10938c0.52597 0.52595 1.8315-0.77987 1.3066-1.3047l-0.10938-0.10938 2.0488-2.0488-0.92578-0.92578c0.58909-0.59816 0.55692-1.6413-0.0059-2.6055-4.9793-8.5147-11.305-14.234-6.0625-19.477 1.7979-1.7979 6.4691-4.2282 10.027-6.3906 1.6376-0.72065 4.4443-1.7598 6.9746-3.7793v-3.9082c0-1.8465-1.4635-3.3262-3.3516-3.3262h-5.8027c-1.0448 1.881-1.5964 3.9-2.5097 5.7344l-0.01953 0.03516c-0.8295 1.2706-1.6982 2.7743-2.5391 4.2305-1.4785 2.5621-2.877 4.9825-4.041 6.1465-5.193 5.193-11.126-0.82612-19.115-5.0938-0.14305-0.07638-0.34376-0.18988-0.57617-0.32617-1.4951-0.86892-2.3609-1.2647-2.5742-1.1758-0.20055 0.13268-0.52614 0.04225-0.76367-0.19531-0.02261-0.02256-0.04607-0.04722-0.06641-0.07227-0.24023-0.29137-0.25383-0.64506-0.03516-0.78906 0.66756-0.43908 2.1366 0.3476 3.7109 1.2617 0.21044 0.12207 0.38705 0.2264 0.51758 0.29492 7.5394 4.0273 12.998 10.057 17.932 5.123 1.1035-1.1035 2.4782-3.4869 3.9355-6.0098 0.84159-1.4569 1.7111-2.9631 2.5488-4.2441 0.78054-1.5665 1.3298-3.2703 2.125-4.9199zm-33.869 12.02c0.14815 0.02745 0.30542 0.11205 0.43945 0.24609l29.748 29.748c0.26694 0.26694 0.33679 0.63392 0.15234 0.81836-0.18288 0.18288-0.54835 0.11376-0.81641-0.1543l-29.748-29.748c-0.26807-0.26806-0.33796-0.63273-0.1543-0.81641 0.09183-0.09183 0.23076-0.1212 0.37891-0.09375zm-5.5391 5.5391c0.14815 0.02745 0.30737 0.1101 0.44141 0.24414l29.748 29.748c0.26694 0.26695 0.33406 0.6347 0.15039 0.81836-0.18366 0.18365-0.55029 0.11768-0.81836-0.15039l-29.748-29.748c-0.26807-0.26806-0.33406-0.63471-0.15039-0.81836 0.09183-0.09184 0.2288-0.1212 0.37695-0.09375zm-2.209 3.9883 0.73438 0.73438-7.168 8.123 8.123-7.168 1.9004 1.9023-5.5781 6.4102 6.4121-5.5781 3.5391 3.5391-5.5801 6.4102 6.4121-5.5781 2.0781 2.0801-9.6309 11.215 11.215-9.6328 1.8926 1.8926-8.5977 9.8809 9.8809-8.5977 4.5723 4.5723-6.0332 6.9316 6.9316-6.0332 3.0137 3.0137-6.0312 6.9336 6.9316-6.0332 1.5703 1.5703-6.0312 6.9336 6.9316-6.0332 1.1367 1.1367-16.744 19.23c-0.89345 0.07678-2.1285-0.16872-3.4023-1.5371-2.4513-2.6296-0.81804-3.2829-2.543-5.0078-1.7249-1.7249-2.7058 0.54934-5.4805-1.6348-2.7758-2.1852-0.23445-4.0806-1.0684-7.1309-0.832-3.0499-4.0201-1.8035-6.957-2.3164-2.9369-0.51283-3.6393-0.89146-5.7852-3.9238-2.1458-3.0324-2.2349-4.4501-5.1523-6.9258-1.1837-1.0039-2.1951-1.1202-2.9785-0.90234 2.5355-1.8772 5.6947-4.3874 9.6406-7.709 5.6665-4.7706 9.4218-8.2442 11.846-10.768z" fill="#2c2221" stroke-width="1.324"/>
<path d="m46.588 35.872 0.6294 0.62941c-0.043844-0.77111-23.004-23.002-23.004-23.002l0.62864 0.62864-0.01927 0.0178 0.01464 0.01461c-2.4236 2.4899-6.0999 5.9782-11.587 10.855-5.5075 4.8958-9.3972 8.1353-12.121 10.227l-0.032361 0.0293c1.2033 1.4576 2.9575 3.3381 5.1069 5.469l8.0274 7.4635c4.8781 4.2849 9.361 7.8125 12.349 9.7916zm-32.238-9.7577c5.4929-4.8827 9.1815-8.3803 11.607-10.873l0.50075 0.50076-7.2748 7.925 7.925-7.2748 1.295 1.295-5.6762 6.2432 6.2432-5.6762 2.4105 2.4106-5.6762 6.2432 6.2432-5.6762 1.416 1.416-9.8232 10.902 10.901-9.824 1.2896 1.2896-8.7477 9.6214 9.6214-8.7477 3.1139 3.1139-6.1377 6.7509 6.7501-6.1384 2.0531 2.0531-6.1377 6.7509 6.7501-6.1384 1.0701 1.0701-6.1377 6.7509 6.7501-6.1385 0.77424 0.77426-17.033 18.728c-0.76037 0.20414-1.7573 0.19182-2.6101-0.75498-1.6417-1.8189-0.17103-2.6209-1.3459-3.7957-1.1748-1.1748-2.352 0.8821-4.3342-0.51307-1.983-1.3959 0.44143-3.3797 0.22033-5.8041-0.21956-2.4244-3.0854-0.88209-5.4651-0.85205-2.3797 0.0301-2.9082-0.17641-4.231-2.3805-1.3228-2.2041-1.1756-3.3789-3.2318-4.996-0.83433-0.65559-1.6633-0.59396-2.3535-0.28889 2.4175-1.9691 5.4567-4.5661 9.2816-7.9658z" fill="url(#linearGradient946)" stroke-width="1.0895"/>
</g>
<g>
<path d="m27.128 36.099c0 4.7356-3.9108 0.75216-9.4772 0.75216-5.5664 0-10.681 3.9835-10.681-0.75216 0-1.3712 3.719-6.7732 8.0207-9.4608 5.3515-3.3434 7.781-8.989 10.911-9.0649 3.0437-0.07384 6.9797 5.2824-1.0306 11.756-4.3293 3.4989 2.2565 2.0338 2.2565 6.7694z" fill="#03ff03" opacity=".987" style="paint-order:markers stroke fill"/>
<path d="m24.083 30.421c0-4.7356 2.4064-4.6634 7.9729-4.6634 5.5664 0 11.884 2.6355 11.884 7.3712 1.2035 2.5746-2.2147 7.0741-6.5164 9.7616-5.3515 3.3434-6.5775 9.2899-9.7078 9.3658-3.0437 0.07384-9.6874-5.8841-1.6772-12.358 4.3293-3.4989-1.9556-4.7416-1.9556-9.4772z" fill="#ff0bd3" opacity=".987" style="paint-order:markers stroke fill"/>
<path d="m27.128 36.099c0 4.7356-0.60126 10.982-6.1677 10.982-5.5664 0-13.99-6.2459-13.99-10.982 0-1.3712 7.6302 1.3501 11.932-1.3375 12.089-7.7476 20.06-4.491 6.8721 6.3017-4.3293 3.4989 1.3539-9.6999 1.3539-4.9642z" fill="#ffc400" opacity=".987" style="paint-order:markers stroke fill"/>
</g>
</g>
<rect transform="matrix(.93753 0 0 .95719 17.027 24.016)" x="2" y="-30" width="92" height="92" rx="3.957" ry="3.957" clip-path="url(#clipPath4156-4)" fill="url(#linearGradient7128)" opacity=".667"/>
</g>
</g>
</svg>
