<?xml version="1.0" encoding="UTF-8"?>
<!-- Created with Inkscape (http://www.inkscape.org/) -->
<svg version="1.1" viewBox="0 0 96 96" xmlns="http://www.w3.org/2000/svg" xmlns:cc="http://creativecommons.org/ns#" xmlns:dc="http://purl.org/dc/elements/1.1/" xmlns:rdf="http://www.w3.org/1999/02/22-rdf-syntax-ns#" xmlns:xlink="http://www.w3.org/1999/xlink">
<defs>
<linearGradient id="linearGradient7426" x1="6" x2="90" y1="47" y2="47" gradientTransform="matrix(1.1415 0 0 1.1415 7.0693 -16.144)" gradientUnits="userSpaceOnUse">
<stop stop-color="#dde2e5" offset="0"/>
<stop stop-color="#f9fbfc" offset=".25"/>
<stop stop-color="#f6f7f8" offset=".5"/>
<stop stop-color="#f8fafc" offset=".75"/>
<stop stop-color="#dde2e5" offset="1"/>
</linearGradient>
<radialGradient id="radialGradient7430" cx="48" cy="-27" r="42" gradientTransform="matrix(-1.1437 0 0 -.93335 212.76 -20.401)" gradientUnits="userSpaceOnUse" xlink:href="#linearGradient4091-0-3-0-7"/>
<linearGradient id="linearGradient4091-0-3-0-7">
<stop stop-color="#fff" offset="0"/>
<stop stop-color="#fff" offset=".8"/>
<stop stop-color="#fff" stop-opacity="0" offset="1"/>
</linearGradient>
<linearGradient id="linearGradient7460" x1="1.5" x2="94.5" y1="88.172" y2="88.172" gradientTransform="matrix(1.031 0 0 1.031 12.372 -11.983)" gradientUnits="userSpaceOnUse">
<stop offset="0"/>
<stop stop-opacity=".58824" offset=".1"/>
<stop stop-opacity=".58824" offset=".9"/>
<stop offset="1"/>
</linearGradient>
<radialGradient id="radialGradient7462" cx="13.948" cy="44.893" r="43.199" gradientTransform="matrix(1.0054 0 0 .050718 47.323 70.672)" gradientUnits="userSpaceOnUse" xlink:href="#linearGradient4133"/>
<linearGradient id="linearGradient4133">
<stop stop-color="#fff" offset="0"/>
<stop stop-color="#fff" stop-opacity="0" offset="1"/>
</linearGradient>
<radialGradient id="radialGradient7464" cx="13.948" cy="44.893" r="43.199" gradientTransform="matrix(.9159 0 0 .050718 19.706 -105.9)" gradientUnits="userSpaceOnUse" xlink:href="#linearGradient4133"/>
<linearGradient id="linearGradient7128" x1="2.7714" x2="50.528" y1="-28.642" y2="14.514" gradientUnits="userSpaceOnUse" xlink:href="#linearGradient4133"/>
<clipPath id="clipPath4156-4">
<path d="m27.046-55.695-14.214 13.321h0.06127l15.653 21.771 10.231-10.546c-0.2169-1.1522-11.311-23.67-11.732-24.546zm-17.399 16.313-14.888 14.062 21.229 17.515 10.385-10.577zm31.491 12.951-9.7413 9.7136 8.9448 12.458 7.7808-7.555zm-49.84 4.3788-13.754 12.982 26.283 13.846 0.06127-0.0617-0.12253-0.0617 9.8332-10.053-22.301-16.652zm38.015 7.4008-9.8025 9.7753 11.579 9.5594 7.6276-7.4008-8.6691-11.009zm20.187 5.674-7.3825 7.2158 6.1878 8.5418 5.8202-6.1365zm-32.195 6.3215-9.5575 9.4977 13.662 7.185 7.9339-7.6784zm23.312 2.3744-7.1068 6.9383 8.3628 6.9074 5.3608-5.674-0.06127-0.0925-0.0919 0.12335-6.4635-8.2026zm-8.7304 8.5418-7.5051 7.3392 10.354 5.4581c1.3975-1.321 5.6751-6.1229 5.8509-6.3215z" fill="#fff" opacity=".6"/>
</clipPath>
<radialGradient id="radialGradient4543" cx="48" cy="-16.128" r="44.544" gradientTransform="matrix(1 0 0 .048851 -16.372 -3.8618)" gradientUnits="userSpaceOnUse" xlink:href="#linearGradient4133"/>
<linearGradient id="linearGradient4545" x1="53.898" x2="27.952" y1="-69.457" y2="23.168" gradientTransform="matrix(.98921 0 0 .98706 -17.135 -9.7042)" gradientUnits="userSpaceOnUse" spreadMethod="reflect">
<stop stop-color="#e3e9e9" offset="0"/>
<stop stop-color="#eef2f2" offset=".21972"/>
<stop stop-color="#f9fbfb" offset=".47878"/>
<stop stop-color="#fff" offset="1"/>
</linearGradient>
<radialGradient id="radialGradient4553" cx="47.699" cy="55.411" r="41.47" gradientTransform="matrix(1.0772 0 0 .064818 -21.162 64.975)" gradientUnits="userSpaceOnUse">
<stop offset="0"/>
<stop stop-opacity="0" offset="1"/>
</radialGradient>
<linearGradient id="linearGradient4555" x1="2.5" x2="93.5" y1="11.141" y2="11.141" gradientTransform="translate(-17.652 -22.602)" gradientUnits="userSpaceOnUse" xlink:href="#linearGradient4160"/>
<linearGradient id="linearGradient4160">
<stop stop-opacity="0" offset="0"/>
<stop stop-opacity=".96471" offset=".031756"/>
<stop stop-opacity="0" offset=".094256"/>
<stop stop-opacity="0" offset=".49595"/>
<stop stop-opacity="0" offset=".90526"/>
<stop stop-opacity=".98824" offset=".96241"/>
<stop stop-opacity="0" offset="1"/>
</linearGradient>
<linearGradient id="linearGradient4551" x1="47.057" x2="48.641" y1="22.252" y2="22.252" gradientTransform="matrix(1 0 0 .99132 -17.354 9.6361)" gradientUnits="userSpaceOnUse">
<stop stop-color="#849699" offset="0"/>
<stop stop-color="#0b0d0d" stop-opacity="0" offset="1"/>
</linearGradient>
<linearGradient id="linearGradient4549" x1="2.5" x2="93.5" y1="54.297" y2="54.297" gradientTransform="matrix(1 0 0 1.0161 -17.652 -24.106)" gradientUnits="userSpaceOnUse" xlink:href="#linearGradient4160"/>
</defs>
<metadata>
<rdf:RDF>
<cc:Work rdf:about="">
<dc:format>image/svg+xml</dc:format>
<dc:type rdf:resource="http://purl.org/dc/dcmitype/StillImage"/>
<dc:title/>
<dc:date>2017</dc:date>
<dc:creator>
<cc:Agent>
<dc:title>Cristian Pozzessere "ilnanny"</dc:title>
</cc:Agent>
</dc:creator>
<dc:subject>
<rdf:Bag>
<rdf:li>Global language</rdf:li>
</rdf:Bag>
</dc:subject>
<dc:description>Playing with Inkscape on Gnu/Linux O. S.</dc:description>
<dc:contributor>
<cc:Agent>
<dc:title>In the night, alone like a dog.</dc:title>
</cc:Agent>
</dc:contributor>
<cc:license rdf:resource="http://creativecommons.org/licenses/by-sa/4.0/"/>
</cc:Work>
<cc:License rdf:about="http://creativecommons.org/licenses/by-sa/4.0/">
<cc:permits rdf:resource="http://creativecommons.org/ns#Reproduction"/>
<cc:permits rdf:resource="http://creativecommons.org/ns#Distribution"/>
<cc:requires rdf:resource="http://creativecommons.org/ns#Notice"/>
<cc:requires rdf:resource="http://creativecommons.org/ns#Attribution"/>
<cc:permits rdf:resource="http://creativecommons.org/ns#DerivativeWorks"/>
<cc:requires rdf:resource="http://creativecommons.org/ns#ShareAlike"/>
</cc:License>
</rdf:RDF>
</metadata>
<g transform="translate(0 -1026.5)">
<g transform="matrix(.9699 0 0 .9699 -11.999 1038.1)">
<path d="m104.28-11.983h-84.84c-3.9168 0-7.07 3.1532-7.07 7.07v84.84c0 3.9168 3.1532 7.07 7.07 7.07h84.84c3.9168 0 7.07-3.1532 7.07-7.07v-84.84c0-3.9168-3.1532-7.07-7.07-7.07z" opacity=".15"/>
<path d="m103.62-11.209h-83.514c-3.8556 0-6.9595 3.1039-6.9595 6.9595v83.514c0 3.8556 3.1039 6.9595 6.9595 6.9595h83.514c3.8556 0 6.9595-3.1039 6.9595-6.9595v-83.514c0-3.8556-3.1039-6.9595-6.9595-6.9595z" opacity=".15"/>
<path d="m102.96-10.436h-82.188c-3.7944 0-6.849 3.0547-6.849 6.849v82.188c0 3.7944 3.0547 6.849 6.849 6.849h82.188c3.7944 0 6.849-3.0547 6.849-6.849v-82.188c0-3.7944-3.0547-6.849-6.849-6.849z" fill="url(#linearGradient7426)"/>
<path d="m23.969-5.5051c-2.9926 0-5.3683 2.3897-5.3683 5.4001v71.618c1.1495 1.7591 3.1103 2.9363 5.3683 2.9363h77.303c2.258 0 4.2188-1.1772 5.3683-2.9363v-71.618c0-3.0103-2.3757-5.4001-5.3683-5.4001z" fill="#dfe3e6" opacity=".963"/>
<g transform="matrix(.94012 0 0 .8627 33.761 12.754)">
<rect x="-12.916" y="-6.8257" width="89.088" height="4.352" rx="3.957" ry="3.0577" fill="url(#radialGradient4543)" opacity=".65091"/>
<path d="m-11.527-20.414c-2.1827 0-3.9375 1.7548-3.9375 3.9375v12c0-2.1827 1.7548-3.9375 3.9375-3.9375h83.75c2.1827 0 3.9375 1.7548 3.9375 3.9375v-12c0-2.1827-1.7548-3.9375-3.9375-3.9375z" opacity="0"/>
<rect transform="scale(1,-1)" x="-15.156" y="-70.902" width="91.008" height="90.81" rx="3.9143" ry="3.9058" fill="url(#linearGradient4545)" stroke="#738589" stroke-width=".99243"/>
<path d="m-11.23-20.105c-2.1685 0-3.9259 1.7614-3.9259 3.9349v3.9658c0-2.1734 1.7574-3.9349 3.9259-3.9349h83.155c2.1685 0 3.9259 1.7614 3.9259 3.9349v-3.9658c0-2.1734-1.7574-3.9349-3.9259-3.9349z" fill="#e4e8e8" stroke="#738589" stroke-width=".99243"/>
<path d="m-11.23-12.175c-2.1685 0-3.9259 1.7614-3.9259 3.9349v3.9658c0-2.1734 1.7574-3.9349 3.9259-3.9349h83.155c2.1685 0 3.9259 1.7614 3.9259 3.9349v-3.9658c0-2.1734-1.7574-3.9349-3.9259-3.9349z" fill="#e4e8e8" stroke="#738589" stroke-width=".99243"/>
<path d="m-11.23-16.14c-2.1685 0-3.9259 1.7614-3.9259 3.9349v3.9658c0-2.1734 1.7574-3.9349 3.9259-3.9349h83.155c2.1685 0 3.9259 1.7614 3.9259 3.9349v-3.9658c0-2.1734-1.7574-3.9349-3.9259-3.9349z" fill="#e4e8e8" stroke="#738589" stroke-width=".99243"/>
<rect x="-14.452" y="65.878" width="89.344" height="5.376" fill="url(#radialGradient4553)" opacity=".6"/>
<path d="m-11.246-19.914c-2.1685 0-3.9062 1.7424-3.9062 3.9062v13c0-2.1638 2.0873-4.7846 4.2558-4.7801l83.013 0.17476c2.1685 0.00457 3.7315 2.4415 3.7315 4.6053v-13c0-2.1638-1.7377-3.9062-3.9062-3.9062z" fill="url(#linearGradient4555)" opacity=".25818"/>
<path d="m29.705-7.5079v78.406h42.145c2.2189 0 3.9971-1.7424 3.9971-3.9063v-70.594c0-2.1638-1.7781-3.9062-3.9971-3.9062z" fill="url(#linearGradient4551)" opacity=".28"/>
<path d="m-11.246-8.7691c-2.1685 0-3.9062 1.7705-3.9062 3.9691v71.729c0 2.1986 1.7377 3.9691 3.9062 3.9691h83.188c2.1685 0 3.9062-1.7705 3.9062-3.9691v-71.729c0-2.1986-1.7377-3.9691-3.9062-3.9691z" fill="url(#linearGradient4549)" opacity=".28"/>
<path d="m53.547 0.49742c-3.0448 0-5.7322 1.6681-7.2228 4.2292-8.0345-5.3144-18.487-5.1352-26.442 0.83703-0.0058-0.00692-0.0358 0.00692-0.04152 0-0.95795-1.1603-2.3342-1.9384-3.902-1.9384-2.8865 0-5.2303 2.4875-5.2303 5.5509 0 3.0634 2.3438 5.5509 5.2303 5.5509s5.2303-2.4875 5.2303-5.5509c0-1.2909-0.42396-2.4497-1.1208-3.3922 7.8847-5.0485 18.385-5.6171 26.276-1.0132-0.78632 1.3633-1.2453 2.9543-1.2453 4.6698 0 1.8599 0.53936 3.5877 1.4529 5.0222l-22.582 14.23-25.363 15.727 8.0115 9.3836 7.4718 9.736 17.766-25.684 15.608-22.203c1.5418 1.707 3.7005 2.7754 6.102 2.7754 0.96743 0 1.8738-0.16733 2.7397-0.4846 3.3167-1.2153 5.6869-4.5695 5.6869-8.5025 0-4.9597-3.7533-8.943-8.4266-8.943zm2.7397 17.446c2.632 9.6035-0.48548 21.026-7.5549 28.107 0.23726-0.20327 0.47417-0.40197 0.70568-0.61676 7.575-7.0278 9.9677-17.993 6.8492-27.49zm-11.955 26.389c-2.8865 0-5.2303 2.4875-5.2303 5.5508 0 3.0634 2.3438 5.5508 5.2303 5.5508 2.8865 0 5.2303-2.4875 5.2303-5.5508 0-3.0634-2.3438-5.5508-5.2303-5.5508z" fill="#eef7ff" opacity=".94" stroke="#373737" stroke-width="2.1997"/>
</g>
<g transform="matrix(1.0702 0 0 1.0702 -107.08 -15.573)">
<path d="m119.47 4.8c-3.5456 0-6.4 2.8544-6.4 6.4v16h1.0667v-16c0-2.9731 2.3602-5.3333 5.3333-5.3333h76.8c2.9731 0 5.3333 2.3602 5.3333 5.3333v16h1.0667v-16c0-3.5456-2.8544-6.4-6.4-6.4z" fill="url(#radialGradient7430)" opacity=".45"/>
</g>
<path d="m22.502-7.1064c-3.2134 0-5.8439 2.6183-5.8439 5.8212v71.428c0 3.2029 2.6305 5.8212 5.8439 5.8212h79.175c3.2134 0 5.8439-2.6183 5.8439-5.8212v-71.428c0-3.2029-2.6305-5.8212-5.8439-5.8212zm0 2.3914h79.175c1.9467 0 3.4561 1.526 3.4561 3.4298v71.428c0 1.9038-1.5094 3.4298-3.4561 3.4298h-79.175c-1.9467 0-3.4561-1.526-3.4561-3.4298v-71.428c0-1.9038 1.5094-3.4298 3.4561-3.4298z" color="#000000" fill="#1f2224" fill-opacity=".63265" opacity=".581" style="text-decoration-line:none;text-indent:0;text-transform:none"/>
<path d="m13.918 72.401v6.1862c0 3.7944 3.0685 6.8628 6.8628 6.8628h82.161c3.7944 0 6.8628-3.0685 6.8628-6.8628v-6.1862c0 3.7944-3.0685 6.8628-6.8628 6.8628h-82.161c-3.7944 0-6.8628-3.0685-6.8628-6.8628z" fill="url(#linearGradient7460)" opacity=".65818"/>
<rect x="17.914" y="70.758" width="86.865" height="4.3819" rx="0" ry="4.3819" fill="url(#radialGradient7462)" opacity=".55"/>
<rect transform="rotate(90)" x="-7.0852" y="-105.81" width="79.132" height="4.3819" rx="0" ry="4.3819" fill="url(#radialGradient7464)" opacity=".55"/>
<path d="m22.448-5.1329c-2.0552 0-3.7164 1.7005-3.7208 3.7989l-0.15282 72.133c1.9731 2.5993 1.717 2.4856 5.0021 2.7622 1.8602-15.322 37.632-75.613 79.821-75.613 0.50323 0 0.99317 0.020476 1.4942 0.02991-0.31226-1.7714-1.8053-3.1109-3.6329-3.1109z" fill="#fff" opacity=".14323"/>
<rect transform="matrix(1.0312 0 0 1.1743 16.84 30.529)" x="2" y="-30" width="89.833" height="60.159" rx="3.957" ry="3.957" clip-path="url(#clipPath4156-4)" fill="url(#linearGradient7128)" opacity=".51"/>
<g transform="matrix(1.0702 0 0 1.0702 -107.08 -15.573)">
<path d="m119.47 4.8c-3.5456 0-6.4 2.8544-6.4 6.4v16h1.0667v-16c0-2.9731 2.3602-5.3333 5.3333-5.3333h76.8c2.9731 0 5.3333 2.3602 5.3333 5.3333v16h1.0667v-16c0-3.5456-2.8544-6.4-6.4-6.4z" fill="url(#radialGradient7430)" opacity=".45"/>
</g>
</g>
</g>
</svg>
