<?xml version="1.0" encoding="UTF-8"?>
<!-- Created with Inkscape (http://www.inkscape.org/) -->
<svg version="1.1" viewBox="0 0 96 96" xmlns="http://www.w3.org/2000/svg" xmlns:cc="http://creativecommons.org/ns#" xmlns:dc="http://purl.org/dc/elements/1.1/" xmlns:rdf="http://www.w3.org/1999/02/22-rdf-syntax-ns#" xmlns:xlink="http://www.w3.org/1999/xlink">
<defs>
<linearGradient id="linearGradient7426" x1="6" x2="90" y1="47" y2="47" gradientTransform="matrix(1.1415 0 0 1.1415 7.0693 -16.144)" gradientUnits="userSpaceOnUse">
<stop stop-color="#dde2e5" offset="0"/>
<stop stop-color="#f9fbfc" offset=".25"/>
<stop stop-color="#f6f7f8" offset=".5"/>
<stop stop-color="#f8fafc" offset=".75"/>
<stop stop-color="#dde2e5" offset="1"/>
</linearGradient>
<radialGradient id="radialGradient7430" cx="48" cy="-27" r="42" gradientTransform="matrix(-1.1437 0 0 -.93335 212.76 -20.401)" gradientUnits="userSpaceOnUse" xlink:href="#linearGradient4091-0-3-0-7"/>
<linearGradient id="linearGradient4091-0-3-0-7">
<stop stop-color="#fff" offset="0"/>
<stop stop-color="#fff" offset=".8"/>
<stop stop-color="#fff" stop-opacity="0" offset="1"/>
</linearGradient>
<linearGradient id="linearGradient7460" x1="1.5" x2="94.5" y1="88.172" y2="88.172" gradientTransform="matrix(1.031 0 0 1.031 12.372 -11.983)" gradientUnits="userSpaceOnUse">
<stop offset="0"/>
<stop stop-opacity=".58824" offset=".1"/>
<stop stop-opacity=".58824" offset=".9"/>
<stop offset="1"/>
</linearGradient>
<radialGradient id="radialGradient7462" cx="13.948" cy="44.893" r="43.199" gradientTransform="matrix(1.0054 0 0 .050718 47.323 70.672)" gradientUnits="userSpaceOnUse" xlink:href="#linearGradient4133"/>
<linearGradient id="linearGradient4133">
<stop stop-color="#fff" offset="0"/>
<stop stop-color="#fff" stop-opacity="0" offset="1"/>
</linearGradient>
<radialGradient id="radialGradient7464" cx="13.948" cy="44.893" r="43.199" gradientTransform="matrix(.9159 0 0 .050718 19.706 -105.9)" gradientUnits="userSpaceOnUse" xlink:href="#linearGradient4133"/>
<linearGradient id="linearGradient7128" x1="2.7714" x2="50.528" y1="-28.642" y2="14.514" gradientUnits="userSpaceOnUse" xlink:href="#linearGradient4133"/>
<clipPath id="clipPath4156-4">
<path d="m27.046-55.695-14.214 13.321h0.06127l15.653 21.771 10.231-10.546c-0.2169-1.1522-11.311-23.67-11.732-24.546zm-17.399 16.313-14.888 14.062 21.229 17.515 10.385-10.577zm31.491 12.951-9.7413 9.7136 8.9448 12.458 7.7808-7.555zm-49.84 4.3788-13.754 12.982 26.283 13.846 0.06127-0.0617-0.12253-0.0617 9.8332-10.053-22.301-16.652zm38.015 7.4008-9.8025 9.7753 11.579 9.5594 7.6276-7.4008-8.6691-11.009zm20.187 5.674-7.3825 7.2158 6.1878 8.5418 5.8202-6.1365zm-32.195 6.3215-9.5575 9.4977 13.662 7.185 7.9339-7.6784zm23.312 2.3744-7.1068 6.9383 8.3628 6.9074 5.3608-5.674-0.06127-0.0925-0.0919 0.12335-6.4635-8.2026zm-8.7304 8.5418-7.5051 7.3392 10.354 5.4581c1.3975-1.321 5.6751-6.1229 5.8509-6.3215z" fill="#fff" opacity=".6"/>
</clipPath>
</defs>
<metadata>
<rdf:RDF>
<cc:Work rdf:about="">
<dc:format>image/svg+xml</dc:format>
<dc:type rdf:resource="http://purl.org/dc/dcmitype/StillImage"/>
<dc:title/>
<dc:date>2017</dc:date>
<dc:creator>
<cc:Agent>
<dc:title>Cristian Pozzessere "ilnanny"</dc:title>
</cc:Agent>
</dc:creator>
<dc:subject>
<rdf:Bag>
<rdf:li>Global language</rdf:li>
</rdf:Bag>
</dc:subject>
<dc:description>Playing with Inkscape on Gnu/Linux O. S.</dc:description>
<dc:contributor>
<cc:Agent>
<dc:title>In the night, alone like a dog.</dc:title>
</cc:Agent>
</dc:contributor>
<cc:license rdf:resource="http://creativecommons.org/licenses/by-sa/4.0/"/>
</cc:Work>
<cc:License rdf:about="http://creativecommons.org/licenses/by-sa/4.0/">
<cc:permits rdf:resource="http://creativecommons.org/ns#Reproduction"/>
<cc:permits rdf:resource="http://creativecommons.org/ns#Distribution"/>
<cc:requires rdf:resource="http://creativecommons.org/ns#Notice"/>
<cc:requires rdf:resource="http://creativecommons.org/ns#Attribution"/>
<cc:permits rdf:resource="http://creativecommons.org/ns#DerivativeWorks"/>
<cc:requires rdf:resource="http://creativecommons.org/ns#ShareAlike"/>
</cc:License>
</rdf:RDF>
</metadata>
<g transform="translate(0 -1026.5)">
<g transform="matrix(.9699 0 0 .9699 -11.999 1038.1)">
<path d="m104.28-11.983h-84.84c-3.9168 0-7.07 3.1532-7.07 7.07v84.84c0 3.9168 3.1532 7.07 7.07 7.07h84.84c3.9168 0 7.07-3.1532 7.07-7.07v-84.84c0-3.9168-3.1532-7.07-7.07-7.07z" opacity=".15"/>
<path d="m103.62-11.209h-83.514c-3.8556 0-6.9595 3.1039-6.9595 6.9595v83.514c0 3.8556 3.1039 6.9595 6.9595 6.9595h83.514c3.8556 0 6.9595-3.1039 6.9595-6.9595v-83.514c0-3.8556-3.1039-6.9595-6.9595-6.9595z" opacity=".15"/>
<path d="m102.96-10.436h-82.188c-3.7944 0-6.849 3.0547-6.849 6.849v82.188c0 3.7944 3.0547 6.849 6.849 6.849h82.188c3.7944 0 6.849-3.0547 6.849-6.849v-82.188c0-3.7944-3.0547-6.849-6.849-6.849z" fill="url(#linearGradient7426)"/>
<path d="m23.969-5.5051c-2.9926 0-5.3683 2.3897-5.3683 5.4001v71.618c1.1495 1.7591 3.1103 2.9363 5.3683 2.9363h77.303c2.258 0 4.2188-1.1772 5.3683-2.9363v-71.618c0-3.0103-2.3757-5.4001-5.3683-5.4001z" fill="#f3f4f5" opacity=".963"/>
<g transform="matrix(1.0702 0 0 1.0702 -107.08 -15.573)">
<path d="m119.47 4.8c-3.5456 0-6.4 2.8544-6.4 6.4v16h1.0667v-16c0-2.9731 2.3602-5.3333 5.3333-5.3333h76.8c2.9731 0 5.3333 2.3602 5.3333 5.3333v16h1.0667v-16c0-3.5456-2.8544-6.4-6.4-6.4z" fill="url(#radialGradient7430)" opacity=".45"/>
</g>
<path d="m22.502-7.1064c-3.2134 0-5.8439 2.6183-5.8439 5.8212v71.428c0 3.2029 2.6305 5.8212 5.8439 5.8212h79.175c3.2134 0 5.8439-2.6183 5.8439-5.8212v-71.428c0-3.2029-2.6305-5.8212-5.8439-5.8212zm0 2.3914h79.175c1.9467 0 3.4561 1.526 3.4561 3.4298v71.428c0 1.9038-1.5094 3.4298-3.4561 3.4298h-79.175c-1.9467 0-3.4561-1.526-3.4561-3.4298v-71.428c0-1.9038 1.5094-3.4298 3.4561-3.4298z" color="#000000" fill="#1f2224" fill-opacity=".63265" opacity=".581" style="text-decoration-line:none;text-indent:0;text-transform:none"/>
<path d="m13.918 72.401v6.1862c0 3.7944 3.0685 6.8628 6.8628 6.8628h82.161c3.7944 0 6.8628-3.0685 6.8628-6.8628v-6.1862c0 3.7944-3.0685 6.8628-6.8628 6.8628h-82.161c-3.7944 0-6.8628-3.0685-6.8628-6.8628z" fill="url(#linearGradient7460)" opacity=".65818"/>
<rect x="17.914" y="70.758" width="86.865" height="4.3819" rx="0" ry="4.3819" fill="url(#radialGradient7462)" opacity=".55"/>
<rect transform="rotate(90)" x="-7.0852" y="-105.81" width="79.132" height="4.3819" rx="0" ry="4.3819" fill="url(#radialGradient7464)" opacity=".55"/>
<g transform="matrix(1.5134 0 0 1.5134 -2357.6 -228.79)">
<g fill="#0e232e">
<g transform="matrix(.4574 0 0 .4574 917.41 76.691)">
<path transform="matrix(.70395 .71025 -.70395 .71025 0 0)" d="m1184.5-957.65 5.8136-5.7245 27.842-1.8857 7.6982 7.0172-0.564 85.415h-41.351z" fill="#e8d4ce" fill-opacity=".36545" fill-rule="evenodd"/>
<path d="m1506.9 157.94c-0.7403 0.0281-1.4318 0.37666-1.8946 0.95508l-0.3769 0.4707-60.535 60.533c-0.098 0.0993-0.1873 0.20641-0.2676 0.32031l0.2676-0.26758c-0.4776 0.47907-0.7452 1.1282-0.7441 1.8047 0.012 0.62463 0.2534 1.223 0.6777 1.6816l-0.2519-0.27344c0.091 0.13801 0.1948 0.26687 0.3105 0.38477l-0.8828-0.88867-10.928 10.928v2e-3c-0.2256 0.1277-0.4305 0.28906-0.6075 0.47852l-1.1679 1.25c-0.9399 1.0067-0.9106 2.5778 0.066 3.5488l27 26.826c0.1062 0.17968 0.2341 0.34563 0.3808 0.49414l1.5684 1.5703c0.1677 0.16607 0.3577 0.30805 0.5644 0.42188l-0.4765-0.47461c0.81 0.80901 2.0598 0.97912 3.0566 0.41601v-2e-3c0.042-0.0255 0.084-0.0522 0.125-0.0801 0.1192-0.084 0.2309-0.17812 0.334-0.28125l-0.1484 0.14844c0.082-0.0629 0.1604-0.13073 0.2343-0.20313l11.676-11.676c1.6047-1.828-0.2403 0.28971 0.5078-1.0293 0.312 0.0995 0.6402 0.13794 0.9668 0.11328 0.7122 0.0311 1.4049-0.23735 1.9102-0.74024l61.104-61.104c0.2231-0.22406 0.4026-0.48766 0.5293-0.77735l-0.375 0.375c0.089-0.11922 0.1675-0.246 0.2344-0.3789 0.1004-0.18381 0.1779-0.37929 0.2305-0.58203 0-0.0169 0.01-0.0338 0.014-0.0508 0.017-0.058 0.032-0.11667 0.045-0.17578l0.016 0.30078c0.053-0.25686 0.066-0.52038 0.039-0.78125 0-0.29206-0.041-0.58274-0.1347-0.85937v-2e-3c-0.125-0.37209-0.3343-0.7103-0.6114-0.98828l0.5821 0.58007 0.029 0.40821v-9.625c-4e-4 -0.68786-0.2786-1.3464-0.7715-1.8262l-13.336-13-6.6992-6.5527c-0.2305-0.4002-0.5653-0.7303-0.9687-0.95508l0.4238 0.42383c-0.087-0.086-0.1806-0.16567-0.2793-0.23828l0.1602 0.1543c-0.1227-0.11723-0.2569-0.22192-0.4004-0.3125-0.041-0.0246-0.083-0.048-0.125-0.0703-0.3584-0.18391-0.7553-0.2803-1.1582-0.28125h0.3808c-0.8696-0.16036-1.7602 0.1412-2.3535 0.79688l0.6914-0.79688h-6.6211l-1.7539-0.10937c-0.085-6e-3 -0.1705-7e-3 -0.2558-4e-3zm8.33 4.6895c0.01 5e-3 0.013 9e-3 0.02 0.0137l0.5254 0.51172 6.5195 6.377v4e-3l12.566 12.252v8.5254l0.4805-0.48047c-0.225 0.34664-0.3624 0.74277-0.4004 1.1543-0.014 0.0945-0.022 0.18971-0.025 0.28515 0 0.0242 0.01 0.0483 0.01 0.0723-5e-4 0.0293-5e-4 0.0586 0 0.0879v0.041l0.01-0.0234c0.01 0.0313 0.011 0.0626 0.018 0.0937 0.071 0.55845 0.3254 1.0776 0.7226 1.4766l-0.4726-0.47266c0.1152 0.22001 0.2619 0.42201 0.4355 0.59961l-1.668-1.6992-57.945 57.947c-0.2546-0.0551-0.5161-0.071-0.7754-0.0469l0.4219 0.40039-0.2422 0.24218c-0.8635-0.20918-1.7736 0.0461-2.4023 0.67383l-11.633 11.631c0.06 0.43967 0.2011 0.22461 0.2011 0.22461l-25.605-25.441 12.609-12.607c1.9749-5.976 4.5648 1.3563 2.016-3.8895l57.472-57.47 0.5762 0.0371c0.053 4e-3 0.1067 6e-3 0.1601 6e-3h6.9258zm1.4981 0.52343c0 1e-5 0.01 1e-5 0.012 0 0.01 7.3e-4 0.021 1e-3 0.031 2e-3h-0.078c0.012-5.9e-4 0.023-1e-3 0.035-2e-3z" color="#000000" color-rendering="auto" dominant-baseline="auto" fill="#221a1a" image-rendering="auto" shape-rendering="auto" solid-color="#000000" style="font-feature-settings:normal;font-variant-alternates:normal;font-variant-caps:normal;font-variant-ligatures:normal;font-variant-numeric:normal;font-variant-position:normal;isolation:auto;mix-blend-mode:normal;shape-padding:0;text-decoration-color:#000000;text-decoration-line:none;text-decoration-style:solid;text-indent:0;text-orientation:mixed;text-transform:none;white-space:normal"/>
<path d="m1448.6 222.81 27.308 28.152" fill="#2e110e" fill-rule="evenodd" stroke="#221a1a" stroke-width="6.3"/>
<path d="m1507.5 163.41 28.997 28.716" fill="#0e232e" fill-rule="evenodd" stroke="#0e232e" stroke-width="4"/>
<path d="m1510.9 172.98-51.519 52.364" fill="#0e232e" fill-rule="evenodd" stroke="#0e232e" stroke-width="1px"/>
<path d="m1523.8 187.06-51.519 52.364" fill="#0e232e" fill-rule="evenodd" stroke="#0e232e" stroke-width="1px"/>
</g>
</g>
</g>
<path d="m22.448-5.1329c-2.0552 0-3.7164 1.7005-3.7208 3.7989l-0.15282 72.133c1.9731 2.5993 1.717 2.4856 5.0021 2.7622 1.8602-15.322 37.632-75.613 79.821-75.613 0.50323 0 0.99317 0.020476 1.4942 0.02991-0.31226-1.7714-1.8053-3.1109-3.6329-3.1109z" fill="#fff" opacity=".14323"/>
<rect transform="matrix(.93753 0 0 .95719 17.027 24.016)" x="2" y="-30" width="92" height="92" rx="3.957" ry="3.957" clip-path="url(#clipPath4156-4)" fill="url(#linearGradient7128)" opacity=".667"/>
<g transform="matrix(1.0702 0 0 1.0702 -107.08 -15.573)">
<path d="m119.47 4.8c-3.5456 0-6.4 2.8544-6.4 6.4v16h1.0667v-16c0-2.9731 2.3602-5.3333 5.3333-5.3333h76.8c2.9731 0 5.3333 2.3602 5.3333 5.3333v16h1.0667v-16c0-3.5456-2.8544-6.4-6.4-6.4z" fill="url(#radialGradient7430)" opacity=".45"/>
</g>
</g>
</g>
</svg>
