<?xml version="1.0" encoding="UTF-8"?>
<!-- Created with Inkscape (http://www.inkscape.org/) -->
<svg version="1.1" viewBox="0 0 96 96" xmlns="http://www.w3.org/2000/svg" xmlns:cc="http://creativecommons.org/ns#" xmlns:dc="http://purl.org/dc/elements/1.1/" xmlns:rdf="http://www.w3.org/1999/02/22-rdf-syntax-ns#" xmlns:xlink="http://www.w3.org/1999/xlink">
<defs>
<linearGradient id="linearGradient4133">
<stop stop-color="#fff" offset="0"/>
<stop stop-color="#fff" stop-opacity="0" offset="1"/>
</linearGradient>
<linearGradient id="linearGradient4071" x1="6" x2="90" y1="47" y2="47" gradientTransform="matrix(1.1354 0 0 1.1337 -40.037 -46.788)" gradientUnits="userSpaceOnUse">
<stop stop-color="#b7b7b7" offset="0"/>
<stop stop-color="#fff" offset=".25"/>
<stop stop-color="#9d9d9d" offset=".5"/>
<stop stop-color="#fafafa" offset=".75"/>
<stop stop-color="#b7b7b7" offset="1"/>
</linearGradient>
<radialGradient id="radialGradient4073" cx="158" cy="6.2132" r="41" gradientTransform="matrix(0 1.6209 -2.0383 0 160.66 -243.04)" gradientUnits="userSpaceOnUse">
<stop stop-color="#fff" offset="0"/>
<stop stop-color="#fff" stop-opacity="0" offset="1"/>
</radialGradient>
<radialGradient id="radialGradient4075" cx="48" cy="-27" r="42" gradientTransform="matrix(-1.0722 0 0 -.87502 199.46 -19.126)" gradientUnits="userSpaceOnUse">
<stop stop-color="#fff" offset="0"/>
<stop stop-color="#fff" offset=".8"/>
<stop stop-color="#fff" stop-opacity="0" offset="1"/>
</radialGradient>
<linearGradient id="linearGradient4129" x1="1.5" x2="94.5" y1="88.172" y2="88.172" gradientUnits="userSpaceOnUse">
<stop offset="0"/>
<stop stop-opacity=".58824" offset=".1"/>
<stop stop-opacity=".58824" offset=".9"/>
<stop offset="1"/>
</linearGradient>
<radialGradient id="radialGradient4139" cx="13.948" cy="44.893" r="43.199" gradientTransform="matrix(1 0 0 .050369 0 39.432)" gradientUnits="userSpaceOnUse" xlink:href="#linearGradient4133"/>
<radialGradient id="radialGradient4143" cx="13.948" cy="44.893" r="43.199" gradientTransform="matrix(.90961 0 0 .050445 -11.185 -58.258)" gradientUnits="userSpaceOnUse" xlink:href="#linearGradient4133"/>
<clipPath id="clipPath4156-4-0">
<path d="m27.046-55.695-14.214 13.321h0.06127l15.653 21.771 10.231-10.546c-0.2169-1.1522-11.311-23.67-11.732-24.546zm-17.399 16.313-14.888 14.062 21.229 17.515 10.385-10.577-16.726-21zm31.491 12.951-9.7413 9.7136 8.9448 12.458 7.7808-7.555-6.9843-14.617zm-49.84 4.3788-13.754 12.982 26.283 13.846 0.06127-0.0617-0.12253-0.0617 9.8332-10.053-22.301-16.652zm38.015 7.4008-9.8025 9.7753 11.579 9.5594 7.6276-7.4008-8.6691-11.009-0.73519-0.9251zm20.187 5.674-7.3825 7.2158 6.1878 8.5418 5.8202-6.1365-4.6256-9.6211zm-32.195 6.3215-9.5575 9.4977 13.662 7.185 7.9339-7.6784-12.039-9.0043zm23.312 2.3744-7.1068 6.9383 8.3628 6.9074 5.3608-5.674-0.06127-0.0925-0.0919 0.12335-6.4635-8.2026zm-8.7304 8.5418-7.5051 7.3392 10.354 5.4581c1.3975-1.321 5.6751-6.1229 5.8509-6.3215l-8.6997-6.4757z" fill="#fff" opacity=".6"/>
</clipPath>
<linearGradient id="linearGradient3448" x1="2.7714" x2="50.528" y1="-28.642" y2="14.514" gradientUnits="userSpaceOnUse">
<stop stop-color="#fff" offset="0"/>
<stop stop-color="#fff" stop-opacity="0" offset="1"/>
</linearGradient>
<radialGradient id="radialGradient3450" cx="13.948" cy="44.893" r="43.199" gradientTransform="matrix(.84356 0 0 .046782 -22.173 -21.356)" gradientUnits="userSpaceOnUse" xlink:href="#linearGradient4133"/>
<radialGradient id="radialGradient3452" cx="13.948" cy="44.893" r="43.199" gradientTransform="matrix(.92739 0 0 .046712 -33.356 22.869)" gradientUnits="userSpaceOnUse" xlink:href="#linearGradient4133"/>
<radialGradient id="radialGradient4230" cx="48.442" cy="45.581" r="43.669" gradientTransform="matrix(.99645 0 0 .90133 -33.368 -37.816)" gradientUnits="userSpaceOnUse">
<stop stop-color="#98eeff" offset="0"/>
<stop stop-color="#007cbe" offset="1"/>
</radialGradient>
</defs>
<metadata>
<rdf:RDF>
<cc:Work rdf:about="">
<dc:format>image/svg+xml</dc:format>
<dc:type rdf:resource="http://purl.org/dc/dcmitype/StillImage"/>
<dc:title/>
</cc:Work>
</rdf:RDF>
</metadata>
<g transform="translate(0,80)">
<g transform="matrix(1.0034 0 0 1.005 33.489 -38.527)">
<path d="m55.463-41.269h-82.003c-3.7858 0-6.8336 3.0432-6.8336 6.8233v81.88c0 3.7801 3.0478 6.8233 6.8336 6.8233h82.003c3.7858 0 6.8336-3.0432 6.8336-6.8233v-81.88c0-3.7801-3.0478-6.8233-6.8336-6.8233z" opacity=".15"/>
<path d="m54.822-40.522h-80.722c-3.7267 0-6.7268 2.9956-6.7268 6.7167v80.6c0 3.721 3.0002 6.7167 6.7268 6.7167h80.722c3.7267 0 6.7268-2.9956 6.7268-6.7167v-80.6c0-3.721-3.0002-6.7167-6.7268-6.7167z" opacity=".15"/>
<g transform="matrix(.97179 0 0 .97179 .40799 .18323)">
<path d="m55.334-41.119h-81.747c-3.774 0-6.8123 3.0337-6.8123 6.802v81.624c0 3.7683 3.0383 6.802 6.8123 6.802h81.747c3.774 0 6.8123-3.0337 6.8123-6.802v-81.624c0-3.7683-3.0383-6.802-6.8123-6.802z" fill="url(#linearGradient4071)"/>
<g transform="matrix(1.1354 0 0 1.1337 -153.57 -46.221)">
<path d="m112 5.5c-2.7873 0-5 2.2127-5 5v20.719 7 38.594c1.0707 1.6288 2.8969 2.7188 5 2.7188h4 64 4c2.1031 0 3.9293-1.09 5-2.7188v-38.594-7-20.719c0-2.7873-2.2127-5-5-5z" fill="url(#radialGradient4073)" opacity=".2"/>
<path d="m112 4.5c-3.324 0-6 2.676-6 6v15h1v-15c0-2.7873 2.2127-5 5-5h72c2.7873 0 5 2.2127 5 5v15h1v-15c0-3.324-2.676-6-6-6h-72z" fill="url(#radialGradient4075)" opacity=".45"/>
</g>
<path transform="matrix(1.0255 0 0 1.024 -34.763 -42.655)" d="m1.5 81.844v6c0 3.6801 2.9761 6.6562 6.6562 6.6562h79.688c3.6801 0 6.6562-2.9761 6.6562-6.6562v-6c0 3.6801-2.9761 6.6562-6.6562 6.6562h-79.688c-3.6801 0-6.6562-2.9761-6.6562-6.6562z" fill="url(#linearGradient4129)" opacity=".65"/>
<rect x="-29.251" y="39.517" width="86.398" height="4.3518" rx="0" ry="4.3518" fill="url(#radialGradient4139)" opacity=".55"/>
<rect transform="rotate(90)" x="-37.791" y="-58.173" width="78.588" height="4.3584" rx="0" ry="4.3584" fill="url(#radialGradient4143)" opacity=".55"/>
</g>
<rect x="-28.115" y="-35.584" width="86.031" height="77.704" ry="4.4231" fill="url(#radialGradient4230)" stroke="#53768a" stroke-dasharray="1.00635985, 1.00635985" stroke-linecap="round" stroke-linejoin="round" stroke-opacity=".6" stroke-width="1.0064"/>
<g transform="matrix(1.0159 0 0 1.0588 34.687 13.312)">
<g transform="matrix(.8623 0 0 .8551 -32.379 -10.422)">
<g transform="matrix(1.1412 0 0 1.0484 -40.318 -46.658)">
<path d="m36.274 6.0962c1.6501 2.2114 0.11258 5.9042 2.6015 5.8675 1.2119 1.7099-2.4155 0.51007 0.20359 1.828 1.5061 1.1837-1.5934 1.8601 0.27179 2.9224-2.1497 1.107 0.34845 5.7901 1.9451 6.9621 2.628 2.2079 1.1622-4.6745 4.0945-5.0325 1.5934-1.8153 4.3918-2.9807 6.3793-4.8069-1.9423-0.15736-3.0765-1.3639-1.237-2.1112 3.3855 3.4621 0.8489-1.6396-1.0251-2.4474 1.8134-0.57567 3.577-0.15411 3.3254-1.6474 1.9163-1.3992-1.8423-1.8509-3.1839-1.5346h-13.375zm-27.802 1.4443c-2.4498 0.69652-2.6206 6.5392-0.15835 3.2948 0.60434-1.3322 3.3971-2.9376 0.15835-3.2948zm11.446 0.20311c-1.4123 2.21 0.20492 3.9819 1.3799 1.2863 0.83171-1.1256-0.61793-1.2451-1.3799-1.2863zm3.529 0.49648c-2.7288 1.2622-0.6726 4.2055-0.60506 4.8601 2.8746 0.99245 4.4732-0.64888 5.5607 2.1563 2.7352 1.5732-0.05382 4.3067-1.0805 5.0186 1.8493-1.6073 5.4042 4.37 4.4723 1.212-1.1118-0.81013 2.9852 1.3014 0.85962-1.3315-1.9561-3.1451 0.15527-1.408 0.97995-0.67399 2.8049-2.5101-3.1736-2.8135-1.6812-5.3966-1.3078-1.057-3.0229-4.2593-5.3387-3.6333-1.5502 2.0008-0.21415-4.3595-2.4886-1.1767-0.11789 1.7791-0.04285 4.0368-0.70571 0.95454-0.44407-0.53958 0.764-1.794 0.0273-1.9894zm-5.5649 0.022569c-1.8316 0.60939-1.7332 3.0791 0.51896 3.3439 0.77143-0.87753 0.30649-3.1777-0.51896-3.3439zm-7.1484 0.78986c-2.3791 0.56253-1.408 2.4769-0.67957 3.0161-2.9449 0.73616 4.4957 0.94087 0.79268 1.4071-3.0808 1.2279 2.9667 2.6745 3.9588 1.2186 3.8044 0.92851 0.13691-3.0393-0.19704-5.1901-1.6128-1.7273-0.06366 3.982-1.5219 0.18397-0.50879 1.1278-2.1265 0.1662-2.353-0.63573zm75.601 0.24824c-3.1924 1.2469 1.9842 5.9522 0.69764 1.6715-0.12816-0.51689 0.2882-1.8826-0.69764-1.6715zm-66.666 1.8957c-2.2941 2.1515 2.916 3.9308-0.6589 5.5336-0.53602-1.9981-1.4583 0.99971-3.5035-0.61395-3.5159 1.461-5.3139-0.761-8.2575-2.2841-1.768-0.21964-1.1038 1.6765-1.2209 3.4519v14.72c1.7335 1.8201 0.67633 0.80305 0 0.30103 0.95147 3.2339-0.41957 7.9611 3.3309 9.8422 0.63756 1.1802 3.3129 6.2082 3.4362 4.7038-1.3412-1.4017-2.7174-5.6039-0.4479-1.8586 2.0328 3.5603 4.7748 5.8694 8.7805 6.7166 2.1901 0.74344 3.9912 3.2991 5.9171 2.7368 1.0891 2.8651-3.2274 5.6164 0.14491 8.2887 1.7605 2.7053 4.7162 4.4797 3.116 8.2777-1.1191 3.7094-0.63993 7.7512-1.6078 11.207-0.30039 2.1037 2.938 7.4432 2.6575 3.1675 0.94557-2.9713 0.92064-6.2407 3.1476-8.3448 3.0471 0.02407 0.58237-3.2699 3.607-2.8396 1.8456-2.4143 2.3802-5.2944 5.4949-6.2531 0.37204-2.9306 5.1788-7.4188 0.21314-8.5598-1.3496-0.66386-4.8245-0.90257-4.5589-1.2301 0.53803-2.9079-4.4935-3.7357-6.6342-4.9255-2.8108-1.9911-7.0342 3.3077-8.0245-1.258-0.59088-1.4365-2.7513-1.4598-1.7584-3.6764-1.7894 1.7761-5.2893 1.2363-4.373-2.1937 1.3916-2.8887 6.7356-3.0253 7.6463 0.4492-1.2644-3.832 2.4439-6.8151 4.5025-9.5413 0.41916-1.3031 2.9097-2.4226 2.0527-0.69076 1.4602-0.05256 3.6733-2.6822 1.0794-1.4685-0.03668-2.3981-2.273-1.7162-2.998-1.3756 1.3438-2.1285 8.245-0.96481 5.3551-4.4439-2.2393-0.90551-2.053-6.1896-4.318-3.2458 0.19059-1.8138-4.61-5.3643-4.5053-2.3227 0.58599 2.7216 0.10713 5.8568-1.1399 7.6408-0.26024-3.9881-7.0757-3.1066-6.1994-7.3563 1.2694-2.0254 2.7528-4.8263 2.8942-4.5744 2.275-0.86686 4.1046-3.3884 1.4678-5.046-0.14092 1.4447-1.983 4.4255-1.7237 0.82036-1.7058 2.0183-1.3162-3.2117-2.9138-3.7541zm54.45 1.3992c-3.9959 0.9755-5.5801 4.7844-7.5568 7.9391-2.9139 1.3111-2.8029 6.9417 0.45241 5.1433 0.87128 1.5186-0.60951 3.9123 1.9283 1.9266 2.047-2.7034 0.35794-7.0758 3.8414-8.7805 0.25373 1.3255-3.2133 6.2748 0.837 5.4613 3.6616 0.13788-2.6619 0.3641-0.881 2.6983-1.8503-1.0956-0.88883 2.9922-3.304 2.0409-2.0923 1.1358-3.4643-0.52736-2.985-2.3493-1.646 0.95827 0.5177 3.6617-2.3396 3.8241-0.64005 2.2682-5.9034 1.9263-2.9102 4.236 1.3289 3.4371-4.9515 0.21547-3.1685 4.3401 1.5254 4.0787 4.7224-1.3515 6.0194-2.4006 2.5025-1.9372 6.2107 3.3032 3.9588 3.4979 2.5251-0.3381 2.0062-2.7347-0.01696-3.6625-1.0927-2.8282 3.459 1.387 3.2066 2.805 1.6059 3.0011 0.94462-3.0727 2.5789-0.38364-0.1908 2.8366 6.5742 0.66696 3.3444 4.2821-2.7769 0.55818-5.5101-0.71443-7.9008 0.10068-2.2251-0.01964-2.1135-2.3922-2.9236-2.9864-2.8304 0.22949-6.3279 0.20354-8.2228 2.4854-2.049 2.8056-5.0038 6.7277-2.7705 10.31 2.2349 5.3087 7.7772 0.27537 10.963 3.4106 0.94693 1.3072-0.8206 2.8612 1.2967 4.2772 0.79671 3.0163-0.90449 5.8802 1.0523 8.7636 1.0118 2.7117 1.6398 6.7704 5.4058 4.2925 3.9858-2.3937 2.9242-6.8064 6.2129-9.2505-2.6023-5.026 3.1836-7.2298 4.6272-11.31-3.1539 0.4608-5.9638-2.6773-6.7258-5.8359-1.3249-1.5342-0.98367-3.7964 0.49633-0.91428 2.0343 1.9672 2.0782 7.8043 5.8413 4.8015 1.7203-0.71811 6.4186-3.4574 2.6751-4.704-2.413 1.7442-5.0752-5.2118-1.5318-1.1771 2.576 1.0907 4.38 1.7405 4.38-1.8757v-29.426c-0.8024 0.81832-2.8638 2.3297-3.9043 1.3254-1.7904 0.24881-4.1539 3.7253-3.5912 0.36466-1.5562-0.10285-0.27858 3.0133-2.4166 3.1005-0.21528 1.602-2.1599 0.29667-1.4294 1.818-1.5007-1.0623-2.7707-4.4164 0.18614-2.3112 4.391-1.3147-2.8956-4.2801-3.458-4.9969 0.94546-0.22607-1.0286-1.2093-1.2668-0.88013zm-36.24 0.88013c-1.4615 1.2153 2.7785 1.4441 0 0zm-19.522 0.65445c-1.6347 1.7064 2.6033 1.5687 0 0zm9.4784 1.6926c-1.2379 2.0237 1.829 0.74715 0 0zm27.101 2.3921c-1.4492 1.6651-3.362-0.43821-3.3932 0.99296 0.26264 0.43244 1.3147 3.5189 3.6194 1.2412 1.237-0.52046 0.74996-1.8325-0.22622-2.2342zm-30.856 0.99296c-2.7488 2.3957 4.6683 2.6165 0.58232 0.27477l-0.58232-0.27477zm36.262 6.6348c-1.9791 1.288 0.94944 4.0232-0.04308 5.308-1.2401 2.1563 4.6083-0.15189 1.4846-1.8723-0.22257-1.4781-1.83-3.2815-1.4415-3.4357zm-1.3347 2.5952c-2.7574 0.77799-0.62596 4.7947 0.35066 1.0116 0.05497-0.21933 0.12936-1.0189-0.35066-1.0116zm-22.079 2.9112c-2.5652 1.7456-0.39843 3.4881 1.4816 2.7026-0.38596-1.0532-1.4642-1.7168-1.4816-2.7026zm48.455 2.9338c1.2799 0.64465-2.3455 1.7459-0.04983 2.8804 1.336 1.5679 0.83231 4.9336-1.3392 2.5515 0.40344-2.6596-2.9436-4.6458 1.389-5.432zm-6.5829 0.02257c-0.17367 1.7087 3.694 4.3647-0.47505 3.4979-2.2047 0.25811-5.507-0.06723-2.7294-2.8089 0.87765-0.52582 3.1821 1.8141 1.9829-0.37306 0.42514-0.02707 0.82108-0.18722 1.2216-0.31594zm-12.736 3.701c-1.6081 1.0339 1.112 1.8267 0 0zm-40.379 9.6363c-0.2711 0.90264 5.086 1.8174 1.3893 0.37126l-0.55107-0.19358-0.83823-0.17768zm4.1624 1.2863c-1.6249 1.6463 3.3478 0.49184 0 0zm54.337 15.098c-3.5307 0.09092-3.0613 9.1796-0.60013 3.8017 0.23341-1.167 1.1689-2.7073 0.60013-3.8017z" fill="#020901" fill-opacity=".59184" opacity=".85091"/>
<path d="m36.355 6.4411c1.6504 2.2018 0.1126 5.8786 2.6019 5.8421 1.2121 1.7025-2.4158 0.50786 0.20362 1.82 1.5063 1.1786-1.5936 1.852 0.27183 2.9097-2.15 1.1022 0.3485 5.765 1.9454 6.932 2.6284 2.1983 1.1624-4.6543 4.0951-5.0107 1.5936-1.8075 4.3925-2.9678 6.3803-4.786-1.9426-0.15668-3.0769-1.358-1.2372-2.1021 3.386 3.4471 0.84904-1.6325-1.0253-2.4368 1.8136-0.57317 3.5775-0.15344 3.3259-1.6403 1.9166-1.3931-1.8425-1.8429-3.1844-1.5279h-13.377zm-27.806 1.4381c-2.4501 0.69351-2.621 6.5109-0.15838 3.2806 0.60444-1.3264 3.3976-2.9249 0.15838-3.2806zm11.448 0.20223c-1.4125 2.2005 0.20495 3.9647 1.3801 1.2808 0.83184-1.1208-0.61802-1.2397-1.3801-1.2808zm3.5295 0.49433c-2.7292 1.2567-0.67271 4.1873-0.60515 4.839 2.875 0.98815 4.4739-0.64607 5.5616 2.147 2.7356 1.5664-0.05382 4.2881-1.0807 4.9969 1.8496-1.6004 5.405 4.3511 4.4729 1.2068-1.112-0.80662 2.9856 1.2958 0.85975-1.3257-1.9564-3.1315 0.1553-1.4019 0.9801-0.67107 2.8053-2.4992-3.1741-2.8013-1.6815-5.3733-1.308-1.0525-3.0234-4.2408-5.3395-3.6176-1.5505 1.9921-0.21418-4.3406-2.489-1.1716-0.11791 1.7714-0.04285 4.0193-0.70582 0.9504-0.44414-0.53724 0.76412-1.7862 0.0273-1.9808zm-5.5658 0.022472c-1.8319 0.60675-1.7335 3.0658 0.51904 3.3294 0.77156-0.87373 0.30654-3.164-0.51904-3.3294zm-7.1495 0.78644c-2.3794 0.56009-1.4082 2.4662-0.67968 3.003-2.9454 0.73297 4.4964 0.9368 0.7928 1.401-3.0813 1.2226 2.9671 2.6629 3.9594 1.2134 3.805 0.92449 0.13693-3.0261-0.19707-5.1676-1.613-1.7199-0.06367 3.9647-1.5221 0.18317-0.50887 1.123-2.1269 0.16548-2.3533-0.63298zm75.613 0.24717c-3.1929 1.2415 1.9845 5.9264 0.69775 1.6642-0.12818-0.51465 0.28824-1.8744-0.69775-1.6642zm-66.676 1.8875c-2.2944 2.1422 2.9164 3.9138-0.659 5.5097-0.5361-1.9895-1.4585 0.99538-3.504-0.61129-3.5164 1.4546-5.3147-0.75771-8.2588-2.2742-1.7683-0.21869-1.104 1.6693-1.2211 3.437v14.656c1.7338 1.8122 0.67643 0.79957 0 0.29972 0.95161 3.2199-0.41964 7.9267 3.3314 9.7996 0.63766 1.1751 3.3134 6.1813 3.4367 4.6834-1.3414-1.3956-2.7178-5.5797-0.44796-1.8505 2.0331 3.5448 4.7755 5.844 8.7818 6.6876 2.1904 0.74023 3.9918 3.2848 5.918 2.7249 1.0892 2.8527-3.2279 5.5921 0.14493 8.2528 1.7608 2.6936 4.7169 4.4603 3.1164 8.2419-1.1192 3.6933-0.64002 7.7176-1.608 11.159-0.30044 2.0946 2.9385 7.4109 2.6579 3.1538 0.94571-2.9584 0.92078-6.2136 3.1481-8.3087 3.0476 0.02397 0.58246-3.2557 3.6076-2.8273 1.8459-2.4038 2.3806-5.2715 5.4958-6.226 0.3721-2.9179 5.1796-7.3867 0.21317-8.5227-1.3498-0.66098-4.8253-0.89866-4.5596-1.2248 0.53811-2.8953-4.4942-3.7196-6.6353-4.9041-2.8112-1.9825-7.0353 3.2933-8.0258-1.2526-0.59097-1.4303-2.7517-1.4535-1.7587-3.6605-1.7897 1.7684-5.2902 1.2309-4.3737-2.1842 1.3918-2.8762 6.7367-3.0122 7.6474 0.44726-1.2645-3.8154 2.4443-6.7856 4.5032-9.5 0.41923-1.2974 2.9102-2.4121 2.053-0.68778 1.4604-0.05234 3.6739-2.6706 1.0796-1.4621-0.03669-2.3878-2.2733-1.7087-2.9985-1.3697 1.344-2.1193 8.2463-0.96064 5.3559-4.4247-2.2396-0.90159-2.0533-6.1628-4.3187-3.2318 0.19062-1.8059-4.6107-5.3411-4.506-2.3127 0.58608 2.7098 0.10715 5.8315-1.1401 7.6077-0.26028-3.9708-7.0768-3.0932-6.2004-7.3245 1.2696-2.0167 2.7533-4.8054 2.8946-4.5546 2.2754-0.86311 4.1052-3.3737 1.4681-5.0242-0.14094 1.4385-1.9833 4.4064-1.7239 0.81681-1.7061 2.0096-1.3164-3.1978-2.9142-3.7379zm54.458 1.3931c-3.9966 0.97127-5.5809 4.7636-7.558 7.9047-2.9143 1.3054-2.8034 6.9116 0.45248 5.1211 0.87141 1.5121-0.6096 3.8954 1.9286 1.9183 2.0473-2.6917 0.35799-7.0451 3.842-8.7424 0.25377 1.3197-3.2138 6.2477 0.83713 5.4377 3.6621 0.13728-2.6623 0.36252-0.88114 2.6866-1.8506-1.0908-0.88897 2.9792-3.3045 2.0321-2.0927 1.1309-3.4649-0.52508-2.9855-2.3392-1.6462 0.95412 0.51778 3.6458-2.3399 3.8076-0.64015 2.2584-5.9043 1.918-2.9107 4.2177 1.3291 3.4222-4.9523 0.21454-3.169 4.3213 1.5257 4.061 4.7231-1.3456 6.0204-2.3902 2.5029-1.9288 6.2116 3.2889 3.9594 3.4828 2.5255-0.33664 2.0065-2.7228-0.01696-3.6467-1.0928-2.8159 3.4596 1.381 3.2071 2.7928 1.6062 2.9882 0.94476-3.0594 2.5792-0.38198-0.19083 2.8243 6.5752 0.66407 3.3449 4.2636-2.7773 0.55576-5.511-0.71134-7.902 0.10025-2.2255-0.01956-2.1138-2.3819-2.924-2.9734-2.8308 0.2285-6.3289 0.20266-8.224 2.4747-2.0493 2.7935-5.0046 6.6985-2.771 10.265 2.2352 5.2857 7.7784 0.27418 10.965 3.3958 0.94708 1.3016-0.82072 2.8488 1.2969 4.2586 0.79683 3.0032-0.90463 5.8548 1.0524 8.7257 1.012 2.7 1.64 6.7411 5.4066 4.2739 3.9864-2.3834 2.9246-6.7769 6.2139-9.2104-2.6027-5.0042 3.1841-7.1985 4.6279-11.261-3.1544 0.45881-5.9647-2.6657-6.7268-5.8107-1.3251-1.5276-0.98382-3.78 0.4964-0.91032 2.0346 1.9587 2.0785 7.7706 5.8422 4.7807 1.7206-0.715 6.4196-3.4425 2.6755-4.6837-2.4134 1.7367-5.076-5.1892-1.5321-1.172 2.5764 1.086 4.3807 1.733 4.3807-1.8675v-29.299c-0.80252 0.81477-2.8642 2.3196-3.9049 1.3197-1.7906 0.24773-4.1545 3.7092-3.5918 0.36308-1.5565-0.1024-0.27862 3.0003-2.417 3.087-0.21532 1.5951-2.1602 0.29538-1.4296 1.8101-1.5009-1.0577-2.7711-4.3973 0.18617-2.3012 4.3917-1.309-2.8961-4.2616-3.4586-4.9753 0.9456-0.22509-1.0288-1.2041-1.267-0.87632zm-36.245 0.87632c-1.4617 1.21 2.779 1.4379 0 0zm-19.525 0.65162c-1.6349 1.699 2.6037 1.5619 0 0zm9.4799 1.6852c-1.2381 2.015 1.8293 0.74392 0 0zm27.105 2.3818c-1.4495 1.6579-3.3626-0.43632-3.3938 0.98866 0.26269 0.43056 1.3149 3.5036 3.62 1.2358 1.2372-0.51821 0.75007-1.8246-0.22625-2.2245zm-30.861 0.98866c-2.7492 2.3854 4.669 2.6051 0.58241 0.27358l-0.58241-0.27358zm36.268 6.6061c-1.9794 1.2824 0.94958 4.0057-0.04309 5.285-1.2403 2.147 4.609-0.15124 1.4848-1.8642-0.2226-1.4717-1.8303-3.2673-1.4418-3.4208zm-1.3349 2.584c-2.7578 0.77462-0.62606 4.774 0.35071 1.0072 0.05498-0.21838 0.12938-1.0145-0.35071-1.0072zm-22.082 2.8986c-2.5656 1.7381-0.39849 3.473 1.4818 2.6909-0.38602-1.0487-1.4644-1.7094-1.4818-2.6909zm48.463 2.9211c1.2801 0.64186-2.3459 1.7383-0.04983 2.868 1.3362 1.5611 0.83244 4.9123-1.3394 2.5405 0.4035-2.6481-2.944-4.6257 1.3892-5.4085zm-6.5839 0.02248c-0.17369 1.7013 3.6945 4.3458-0.47512 3.4828-2.2051 0.25699-5.5078-0.06694-2.7298-2.7968 0.87778-0.52355 3.1825 1.8063 1.9832-0.37144 0.4252-0.02696 0.82121-0.18641 1.2217-0.31458zm-12.738 3.685c-1.6084 1.0295 1.1122 1.8188 0 0zm-40.386 9.5945c-0.27115 0.89873 5.0868 1.8095 1.3895 0.36965l-0.55115-0.19274-0.83836-0.17691zm4.163 1.2808c-1.6252 1.6391 3.3483 0.48971 0 0zm54.345 15.032c-3.5313 0.09052-3.0618 9.1398-0.60022 3.7853 0.23344-1.1619 1.1691-2.6956 0.60022-3.7853z" fill="#00ea0c" fill-opacity=".77076" opacity=".77455" stroke="#062a09" stroke-width=".48559"/>
</g>
</g>
<g transform="matrix(.90692 0 0 .90043 -62.647 -18.141)" opacity=".7">
<rect transform="translate(-1.4999 -1.4)" x="2" y="-30" width="92" height="92" rx="3.957" ry="3.957" clip-path="url(#clipPath4156-4-0)" fill="url(#linearGradient3448)" opacity=".7"/>
<path d="m4.4689-31.4c-2.1922 0-3.964 1.7766-3.9688 3.9688l-0.163 75.358c2.1046 2.7155 1.8314 2.5968 5.3354 2.8858 1.9842-16.008 40.139-78.994 85.14-78.994 0.53676 0 1.0593 0.02139 1.5938 0.03125-0.33307-1.8506-1.9256-3.25-3.875-3.25z" fill="#fff" opacity=".13818"/>
</g>
<rect transform="rotate(90)" x="-46.848" y="-21.277" width="72.882" height="4.0419" rx="0" ry="4.0419" fill="url(#radialGradient3450)" opacity=".55"/>
<rect x="-60.483" y="22.948" width="80.125" height="4.0358" rx="0" ry="4.0358" fill="url(#radialGradient3452)" opacity=".55"/>
</g>
<path d="m-23.803-36.776c-3.1059 0-5.6485 2.527-5.6485 5.6181v68.936c0 3.0912 2.5426 5.6181 5.6485 5.6181h76.528c3.1059 0 5.6485-2.527 5.6485-5.6181v-68.936c0-3.0912-2.5426-5.6181-5.6485-5.6181h-76.528zm0 2.308h76.528c1.8816 0 3.3405 1.4728 3.3405 3.3101v68.936c0 1.8374-1.4589 3.3101-3.3405 3.3101h-76.528c-1.8816 0-3.3405-1.4728-3.3405-3.3101v-68.936c0-1.8374 1.4589-3.3101 3.3405-3.3101z" color="#000000" fill-opacity=".87149" style="block-progression:tb;text-indent:0;text-transform:none"/>
</g>
</g>
</svg>
