<?xml version="1.0" encoding="UTF-8"?>
<!-- Created with Inkscape (http://www.inkscape.org/) -->
<svg version="1.1" viewBox="0 0 96 96" xmlns="http://www.w3.org/2000/svg" xmlns:cc="http://creativecommons.org/ns#" xmlns:dc="http://purl.org/dc/elements/1.1/" xmlns:rdf="http://www.w3.org/1999/02/22-rdf-syntax-ns#" xmlns:xlink="http://www.w3.org/1999/xlink">
<defs>
<linearGradient id="linearGradient4071" x1="6" x2="90" y1="47" y2="47" gradientTransform="matrix(1.1071 0 0 1.1071 -4.9939 -3.6207)" gradientUnits="userSpaceOnUse">
<stop stop-color="#adb9c1" offset="0"/>
<stop stop-color="#fff" offset=".25"/>
<stop stop-color="#90a2aa" offset=".5"/>
<stop stop-color="#f9fafb" offset=".75"/>
<stop stop-color="#adb9c1" offset="1"/>
</linearGradient>
<linearGradient id="linearGradient4129" x1="1.5" x2="94.5" y1="88.172" y2="88.172" gradientTransform="translate(.14895 .41503)" gradientUnits="userSpaceOnUse" xlink:href="#linearGradient3832-0-6-1-1"/>
<linearGradient id="linearGradient3832-0-6-1-1">
<stop offset="0"/>
<stop stop-opacity=".58824" offset=".1"/>
<stop stop-opacity=".58824" offset=".9"/>
<stop offset="1"/>
</linearGradient>
<radialGradient id="radialGradient7462" cx="13.948" cy="44.893" r="43.199" gradientTransform="matrix(.97513 0 0 .049191 34.048 80.582)" gradientUnits="userSpaceOnUse" xlink:href="#linearGradient3737"/>
<linearGradient id="linearGradient3737">
<stop stop-color="#fff" offset="0"/>
<stop stop-color="#fff" stop-opacity="0" offset="1"/>
</linearGradient>
<radialGradient id="radialGradient7464" cx="13.948" cy="44.893" r="43.199" gradientTransform="matrix(.88833 0 0 .049191 31.96 -90.317)" gradientUnits="userSpaceOnUse" xlink:href="#linearGradient3737"/>
<linearGradient id="linearGradient4767" x1="2.7714" x2="50.528" y1="-28.642" y2="14.514" gradientUnits="userSpaceOnUse" xlink:href="#linearGradient3737"/>
<clipPath id="clipPath4156-4-1">
<path d="m27.046-55.695-14.214 13.321h0.06127l15.653 21.771 10.231-10.546c-0.2169-1.1522-11.311-23.67-11.732-24.546zm-17.399 16.313-14.888 14.062 21.229 17.515 10.385-10.577zm31.491 12.951-9.7413 9.7136 8.9448 12.458 7.7808-7.555zm-49.84 4.3788-13.754 12.982 26.283 13.846 0.06127-0.0617-0.12253-0.0617 9.8332-10.053-22.301-16.652zm38.015 7.4008-9.8025 9.7753 11.579 9.5594 7.6276-7.4008-8.6691-11.009zm20.187 5.674-7.3825 7.2158 6.1878 8.5418 5.8202-6.1365zm-32.195 6.3215-9.5575 9.4977 13.662 7.185 7.9339-7.6784zm23.312 2.3744-7.1068 6.9383 8.3628 6.9074 5.3608-5.674-0.06127-0.0925-0.0919 0.12335-6.4635-8.2026zm-8.7304 8.5418-7.5051 7.3392 10.354 5.4581c1.3975-1.321 5.6751-6.1229 5.8509-6.3215z" fill="#fff" opacity=".6"/>
</clipPath>
<linearGradient id="linearGradient3133" x1="11.999" x2="11.999" y1="5.5317" y2="20.283" gradientTransform="matrix(2.7659 0 0 3.254 10 10)" gradientUnits="userSpaceOnUse" xlink:href="#linearGradient3832-0-6-1-1"/>
</defs>
<metadata>
<rdf:RDF>
<cc:Work rdf:about="">
<dc:format>image/svg+xml</dc:format>
<dc:type rdf:resource="http://purl.org/dc/dcmitype/StillImage"/>
<dc:title/>
<dc:date>2017</dc:date>
<dc:creator>
<cc:Agent>
<dc:title>Cristian Pozzessere "ilnanny"</dc:title>
</cc:Agent>
</dc:creator>
<dc:subject>
<rdf:Bag>
<rdf:li>Global language</rdf:li>
</rdf:Bag>
</dc:subject>
<dc:description>Playing with Inkscape on Gnu/Linux O. S.</dc:description>
<dc:contributor>
<cc:Agent>
<dc:title>In the night, alone like a dog.</dc:title>
</cc:Agent>
</dc:contributor>
<cc:license rdf:resource="http://creativecommons.org/licenses/by-sa/4.0/"/>
</cc:Work>
<cc:License rdf:about="http://creativecommons.org/licenses/by-sa/4.0/">
<cc:permits rdf:resource="http://creativecommons.org/ns#Reproduction"/>
<cc:permits rdf:resource="http://creativecommons.org/ns#Distribution"/>
<cc:requires rdf:resource="http://creativecommons.org/ns#Notice"/>
<cc:requires rdf:resource="http://creativecommons.org/ns#Attribution"/>
<cc:permits rdf:resource="http://creativecommons.org/ns#DerivativeWorks"/>
<cc:requires rdf:resource="http://creativecommons.org/ns#ShareAlike"/>
</cc:License>
</rdf:RDF>
</metadata>
<g transform="translate(0 -1026.5)">
<g transform="translate(-.14896 1026.1)">
<path d="m89.292 0.41503h-82.286c-3.7988 0-6.8571 3.0583-6.8571 6.8571v82.286c0 3.7989 3.0583 6.8571 6.8571 6.8571h82.286c3.7989 0 6.8571-3.0583 6.8571-6.8571v-82.286c0-3.7989-3.0583-6.8571-6.8571-6.8571z" opacity=".15"/>
<path d="m88.649 1.165h-81c-3.7395 0-6.75 3.0105-6.75 6.75v81c0 3.7395 3.0105 6.75 6.75 6.75h81c3.7395 0 6.75-3.0105 6.75-6.75v-81c0-3.7395-3.0105-6.75-6.75-6.75z" opacity=".15"/>
<path d="m88.006 1.915h-79.714c-3.6801 0-6.6429 2.9627-6.6429 6.6429v79.714c0 3.6801 2.9627 6.6429 6.6429 6.6429h79.714c3.6801 0 6.6429-2.9627 6.6429-6.6429v-79.714c0-3.6801-2.9627-6.6429-6.6429-6.6429z" fill="url(#linearGradient4071)"/>
<path d="m11.39 6.8022c-2.8565 0-5.1241 2.2884-5.1241 5.171v68.58c1.0972 1.6845 2.9688 2.8117 5.1241 2.8117h73.787c2.1553 0 4.0269-1.1272 5.1241-2.8117v-68.58c0-2.8826-2.2676-5.171-5.1241-5.171z" fill="#f5f3f3" opacity=".77865"/>
<path d="m9.974 5.1445c-3.1166 0-5.668 2.5395-5.668 5.646v69.278c0 3.1065 2.5513 5.646 5.668 5.646h76.792c3.1166 0 5.668-2.5395 5.668-5.646v-69.278c0-3.1065-2.5513-5.646-5.668-5.646zm0 2.3194h76.792c1.8881 0 3.352 1.4801 3.352 3.3266v69.278c0 1.8465-1.4639 3.3266-3.352 3.3266h-76.792c-1.8881 0-3.352-1.4801-3.352-3.3266v-69.278c0-1.8465 1.4639-3.3266 3.352-3.3266z" color="#000000" fill="#1f2224" fill-opacity=".63265" style="text-decoration-line:none;text-indent:0;text-transform:none"/>
<path d="m1.649 82.259v6c0 3.6801 2.9761 6.6562 6.6562 6.6562h79.687c3.6801 0 6.6563-2.9761 6.6563-6.6562v-6c0 3.6801-2.9761 6.6562-6.6563 6.6562h-79.687c-3.6801 0-6.6562-2.9761-6.6562-6.6562z" fill="url(#linearGradient4129)" opacity=".65818"/>
<rect x="5.524" y="80.665" width="84.25" height="4.25" rx="0" ry="4.25" fill="url(#radialGradient7462)" opacity=".55"/>
<rect transform="rotate(90)" x="5.975" y="-90.234" width="76.75" height="4.25" rx="0" ry="4.25" fill="url(#radialGradient7464)" opacity=".669"/>
<g transform="matrix(1.2469 0 0 1.2469 -11.677 -16.165)">
<path d="m33.75 23c-2.4061 0.40902-4.0686 2.8256-3.75 5.2273 0.02111 4.3919-0.04206 8.7922 0.03125 13.179 0.37935 2.3578 2.6556 3.6309 4.1122 5.331l4.3253 4.3253c-2.9432-0.14408-5.9192-0.022478-8.875-0.0625-1.5321 0.31784-1.7422 2.0046-1.5938 3.2983v4.7017c-2.1945 0.05888-4.418-0.12008-6.5938 0.09375-1.88 0.56352-1.3325 2.7903-1.4062 4.2819 0.06007 2.0692-0.12181 4.1678 0.09375 6.2181 0.56352 1.88 2.7903 1.3325 4.2819 1.4062h3.6244c0.05888 2.1945-0.12008 4.418 0.09375 6.5938 0.56352 1.88 2.7903 1.3325 4.2819 1.4062 2.0692-0.06006 4.1678 0.12181 6.2181-0.09375 1.88-0.56352 1.3325-2.7903 1.4062-4.2819v-3.6244c2.1945-0.05888 4.418 0.12008 6.5938-0.09375 1.88-0.56352 1.3325-2.7903 1.4062-4.2819-0.04147-2.0285 0.08314-4.0774-0.0625-6.0931 2.6084 2.545 5.1016 5.2279 7.7812 7.6875 0.24212 0.15874 1.2257 0.70941 1.875 0.71875 1.0379 0.23376 2.5886-0.25755 3.1195-0.68493 2.8962-2.5992 5.5407-5.4969 8.3395-8.2116l5.8848-5.8848c0.18169-0.24693 0.76296-0.9917 0.90625-1.7812 0.31195-1.2482 0.09023-2.635-0.64296-3.6736-0.21604-0.33617-1.1442-1.2435-1.6644-1.7588-7.6935-7.6728-15.352-15.394-23.068-23.036-1.9655-1.461-4.5537-0.73002-6.8365-0.90625-3.2941 2e-6 -6.5882-2e-6 -9.8822 0zm8.75 10c4.2948-0.02805 2.1786 7.0042-1.4128 4.5819-2.0187-1.2624-1.0077-4.7113 1.4128-4.5819zm-2.5625 19.531 6.5312 6.5312c-2.1412-0.14376-4.3149-0.022352-6.4688-0.0625-0.04048-2.1532 0.08174-4.3286-0.0625-6.4688z" opacity=".1"/>
<path d="m33.969 24.062a0.9318 0.9318 0 0 0-0.0625 0.03125c-0.04588 0.0085-0.26754 0.05003-0.3125 0.0625s-0.23756 0.07737-0.28125 0.09375c-0.04369 0.01638-0.23917 0.10484-0.28125 0.125-0.04208 0.02015-0.24111 0.10122-0.28125 0.125-0.04014 0.02378-0.21211 0.16029-0.25 0.1875-0.03789 0.02721-0.1834 0.15706-0.21875 0.1875-0.03535 0.03044-0.21747 0.15407-0.25 0.1875-0.03253 0.03343-0.15804 0.21384-0.1875 0.25-0.02946 0.03616-0.16134 0.18014-0.1875 0.21875-0.02616 0.03861-0.13358 0.24049-0.15625 0.28125-0.02267 0.04076-0.10601 0.20741-0.125 0.25-0.01899 0.04259-0.10983 0.23716-0.125 0.28125-0.01517 0.04409-0.08252 0.26724-0.09375 0.3125-0.01123 0.04526-0.05529 0.23518-0.0625 0.28125-0.0072 0.04607-0.02812 0.26598-0.03125 0.3125-0.0028 0.04187 9.9e-5 0.21271 0 0.28125-1.1e-5 0.0076-9.8e-5 0.02659 0 0.03125v13.188c1.28e-4 0.02604-0.0014 0.1615 0 0.1875 0.0014 0.026 0.02856 0.13035 0.03125 0.15625 0.0027 0.0259-4e-3 0.13051 0 0.15625 4e-3 0.02574 0.02603 0.16199 0.03125 0.1875 0.0052 0.02551 0.05603 0.13102 0.0625 0.15625 0.0065 0.02523 0.02355 0.13137 0.03125 0.15625 0.0077 0.02488 0.05359 0.13178 0.0625 0.15625 0.0089 0.02447 0.05239 0.13225 0.0625 0.15625 0.01011 0.024 0.05122 0.13277 0.0625 0.15625 0.01128 0.02348 0.08133 0.13336 0.09375 0.15625 0.01242 0.02289 0.04897 0.13399 0.0625 0.15625 0.01353 0.02226 0.07914 0.13468 0.09375 0.15625 0.01461 0.02157 0.0781 0.10418 0.09375 0.125 0.01565 0.02082 0.10834 0.10497 0.125 0.125 0.01666 0.02003 0.07613 0.10581 0.09375 0.125 0.01762 0.01919 0.10646 0.1067 0.125 0.125l23.719 23.719c0.01838 0.01835 0.10574 0.10757 0.125 0.125 0.01926 0.01743 0.10491 0.07729 0.125 0.09375 0.02009 0.01646 0.10412 0.10954 0.125 0.125 0.02087 0.01546 0.13464 0.07933 0.15625 0.09375 0.02161 0.01442 0.10271 0.08041 0.125 0.09375s0.13333 0.05027 0.15625 0.0625c0.02292 0.01223 0.13276 0.08265 0.15625 0.09375s0.13224 0.05257 0.15625 0.0625c0.02401 0.0099 0.13178 0.05376 0.15625 0.0625 0.02446 0.0087 0.13138 0.05497 0.15625 0.0625 0.02486 0.0075 0.13105 0.02494 0.15625 0.03125 0.0252 0.0063 0.13077 0.02619 0.15625 0.03125 0.02548 0.0051 0.1618 0.02744 0.1875 0.03125 0.0257 0.0038 0.13039 0.02871 0.15625 0.03125 0.02586 0.0025 0.16155-0.0013 0.1875 0 0.02595 0.0013 0.13027 0 0.15625 0 0.02598 0 0.1303 0.0013 0.15625 0 0.02595-0.0013 0.16164 0.0025 0.1875 0 0.02586-0.0025 0.13055-0.02744 0.15625-0.03125 0.0257-0.0038 0.16202-0.02619 0.1875-0.03125 0.02548-0.0051 0.13105-0.02494 0.15625-0.03125 0.0252-0.0063 0.13138-0.02372 0.15625-0.03125 0.02486-0.0075 0.13178-0.05376 0.15625-0.0625 0.02446-0.0087 0.13224-0.05257 0.15625-0.0625 0.02401-0.0099 0.13276-0.0514 0.15625-0.0625s0.13333-0.08152 0.15625-0.09375c0.02292-0.01223 0.13396-0.04916 0.15625-0.0625s0.10339-0.07933 0.125-0.09375c0.02161-0.01442 0.13538-0.07829 0.15625-0.09375 0.02087-0.01546 0.10491-0.10854 0.125-0.125 0.02009-0.01646 0.10574-0.07632 0.125-0.09375 0.01926-0.01743 0.10662-0.10665 0.125-0.125l13.219-13.219c0.01837-0.01838 0.10756-0.10574 0.125-0.125 0.01744-0.01926 0.07727-0.10491 0.09375-0.125 0.01648-0.02009 0.10953-0.10413 0.125-0.125 0.01547-0.02087 0.07932-0.13465 0.09375-0.15625 0.01443-0.0216 0.0804-0.10272 0.09375-0.125 0.01335-0.02228 0.05026-0.13334 0.0625-0.15625 0.01224-0.02291 0.08265-0.13277 0.09375-0.15625 0.0111-0.02348 0.05256-0.13225 0.0625-0.15625 0.0099-0.024 0.05375-0.13179 0.0625-0.15625 0.0087-0.02446 0.05496-0.13139 0.0625-0.15625 0.0075-0.02486 0.02494-0.13105 0.03125-0.15625 0.0063-0.0252 0.02618-0.13078 0.03125-0.15625 0.0051-0.02548 0.02744-0.16181 0.03125-0.1875 0.0038-0.02569 0.02871-0.1304 0.03125-0.15625 0.0025-0.02585-0.0013-0.16156 0-0.1875 0.0013-0.02594 0-0.13028 0-0.15625 0-0.02597 0.0013-0.13031 0-0.15625-0.0013-0.02594 0.0025-0.16165 0-0.1875-0.0025-0.02585-0.02744-0.13056-0.03125-0.15625-0.0038-0.02569-0.02618-0.16202-0.03125-0.1875-0.0051-0.02548-0.02494-0.13105-0.03125-0.15625-0.0063-0.0252-0.02371-0.13139-0.03125-0.15625-0.0075-0.02486-0.05375-0.13179-0.0625-0.15625-0.0087-0.02446-0.05256-0.13225-0.0625-0.15625-0.0099-0.024-0.0514-0.13277-0.0625-0.15625-0.0111-0.02348-0.08151-0.13334-0.09375-0.15625-0.01224-0.02291-0.04915-0.13397-0.0625-0.15625-0.01335-0.02228-0.07932-0.1034-0.09375-0.125-0.01443-0.0216-0.07828-0.13538-0.09375-0.15625s-0.10852-0.10491-0.125-0.125c-0.01648-0.02009-0.07631-0.10574-0.09375-0.125-0.01744-0.01926-0.10663-0.10662-0.125-0.125l-23.719-23.719c-0.0183-0.01854-0.10581-0.10738-0.125-0.125-0.01919-0.01761-0.10497-0.0771-0.125-0.09375-0.02003-0.01665-0.10418-0.10935-0.125-0.125-0.02082-0.01565-0.10343-0.07915-0.125-0.09375-0.02157-0.0146-0.13399-0.08022-0.15625-0.09375-0.02226-0.01353-0.13335-0.05008-0.15625-0.0625s-0.13277-0.08247-0.15625-0.09375c-0.02348-0.01128-0.13224-0.05239-0.15625-0.0625s-0.13177-0.05358-0.15625-0.0625c-0.02448-0.0089-0.13136-0.0548-0.15625-0.0625-0.02489-0.0077-0.13101-0.02478-0.15625-0.03125-0.02524-0.0065-0.13073-0.05728-0.15625-0.0625-0.02552-0.0052-0.16175-0.02729-0.1875-0.03125-0.02575-4e-3 -0.13034 0.0027-0.15625 0-0.02591-0.0027-0.13023-0.02983-0.15625-0.03125-0.02602-0.0014-0.16145 1.35e-4 -0.1875 0h-13.125c-0.01473-0.0014-0.05716 2e-3 -0.09375 0-0.08538-0.0046-0.18422 0-0.21875 0-0.04933 0-0.29464-0.0046-0.34375 0zm8.5312 7.875c1.9826 0 3.5625 1.5805 3.5625 3.5625 0 1.982-1.5799 3.5625-3.5625 3.5625s-3.5625-1.5805-3.5625-3.5625c0-1.982 1.5799-3.5625 3.5625-3.5625zm-12.594 20.125a0.9318 0.9318 0 0 0-0.84375 0.9375v7.0625h-7.0625a0.9318 0.9318 0 0 0-0.9375 0.9375v8a0.9318 0.9318 0 0 0 0.9375 0.9375h7.0625v7.0625a0.9318 0.9318 0 0 0 0.9375 0.9375h8a0.9318 0.9318 0 0 0 0.9375-0.9375v-7.0625h7.0625a0.9318 0.9318 0 0 0 0.9375-0.9375v-8a0.9318 0.9318 0 0 0-0.9375-0.9375h-7.0625v-7.0625a0.9318 0.9318 0 0 0-0.9375-0.9375h-8a0.9318 0.9318 0 0 0-0.09375 0z" opacity=".15"/>
<path d="m34.062 25a2.5208 2.5201 0 0 0-2.0625 2.5312v13.219a2.5208 2.5201 0 0 0 0.75 1.7812l23.719 23.719a2.5208 2.5201 0 0 0 3.5625 0l13.219-13.219a2.5208 2.5201 0 0 0 0-3.5625l-23.719-23.719a2.5208 2.5201 0 0 0-1.7812-0.75h-13.219a2.5208 2.5201 0 0 0-0.46875 0zm8.4375 6c2.486 0 4.5 2.0146 4.5 4.5 0 2.4854-2.014 4.5-4.5 4.5s-4.5-2.0146-4.5-4.5c0-2.4854 2.014-4.5 4.5-4.5zm-12.5 22v8h-8v8h8v8h8v-8h8v-8h-8v-8z" opacity=".3"/>
<path d="m34.062 24a2.5208 2.5201 0 0 0-2.0625 2.5312v13.219a2.5208 2.5201 0 0 0 0.75 1.7812l23.719 23.719a2.5208 2.5201 0 0 0 3.5625 0l13.219-13.219a2.5208 2.5201 0 0 0 0-3.5625l-23.719-23.719a2.5208 2.5201 0 0 0-1.7812-0.75h-13.219a2.5208 2.5201 0 0 0-0.46875 0zm8.4375 6c2.486 0 4.5 2.0146 4.5 4.5 0 2.4854-2.014 4.5-4.5 4.5s-4.5-2.0146-4.5-4.5c0-2.4854 2.014-4.5 4.5-4.5zm-12.5 22v8h-8v8h8v8h8v-8h8v-8h-8v-8z" fill="url(#linearGradient3133)"/>
<path d="m34.062 24a2.5208 2.5201 0 0 0-2.0625 2.5312v0.71875a2.5208 2.5201 0 0 1 2.0625-2.25 2.5208 2.5201 0 0 1 0.46875 0h13.219a2.5208 2.5201 0 0 1 1.7812 0.75l23.719 23.719a2.5208 2.5201 0 0 1 0.6875 1.25 2.5208 2.5201 0 0 0-0.6875-2.25l-23.719-23.719a2.5208 2.5201 0 0 0-1.7812-0.75h-13.219a2.5208 2.5201 0 0 0-0.46875 0zm4 11c-0.018734 0.16678-0.0625 0.32822-0.0625 0.5 0 2.4854 2.014 4.5 4.5 4.5s4.5-2.0146 4.5-4.5c0-0.17178-0.04377-0.33322-0.0625-0.5-0.25231 2.2462-2.1233 4-4.4375 4s-4.1852-1.7538-4.4375-4zm-8.0625 17v1h8v-1zm-8 8v1h8v-1zm16 0v1h8v-1z" fill="#fff" opacity=".75"/>
<path d="m42.5 29c-2.486 0-4.5 2.0146-4.5 4.5 0 0.17178 0.04377 0.33322 0.0625 0.5 0.25231-2.2462 2.1233-4 4.4375-4s4.1852 1.7538 4.4375 4c0.018734-0.16678 0.0625-0.32822 0.0625-0.5 0-2.4854-2.014-4.5-4.5-4.5zm-10.5 10v0.75a2.5208 2.5201 0 0 0 0.75 1.7812l23.719 23.719a2.5208 2.5201 0 0 0 3.5625 0l13.219-13.219a2.5208 2.5201 0 0 0 0.6875-2.3125 2.5208 2.5201 0 0 1-0.6875 1.3125l-13.219 13.219a2.5208 2.5201 0 0 1-3.5625 0l-23.719-23.719a2.5208 2.5201 0 0 1-0.75-1.5312zm-10 28v1h8v-1zm16 0v1h8v-1zm-8 8v1h8v-1z" fill="#fff" opacity=".31"/>
</g>
<rect transform="matrix(1.0692 0 0 1.0477 4.4442 38.894)" x="2" y="-30" width="75.966" height="69.024" rx="3.957" ry="3.957" clip-path="url(#clipPath4156-4-1)" fill="url(#linearGradient4767)" opacity=".50781"/>
</g>
</g>
</svg>
