<?xml version="1.0" encoding="UTF-8"?>
<!-- Created with Inkscape (http://www.inkscape.org/) -->
<svg version="1.1" viewBox="0 0 96 96" xmlns="http://www.w3.org/2000/svg" xmlns:cc="http://creativecommons.org/ns#" xmlns:dc="http://purl.org/dc/elements/1.1/" xmlns:rdf="http://www.w3.org/1999/02/22-rdf-syntax-ns#" xmlns:xlink="http://www.w3.org/1999/xlink">
<script xlink:href=""/>
<defs>
<linearGradient id="linearGradient3888-8-4-8-6">
<stop stop-color="#fff" offset="0"/>
<stop stop-color="#fff" stop-opacity="0" offset="1"/>
</linearGradient>
<linearGradient id="ButtonShadow-4" x1="45.448" x2="45.448" y1="92.54" y2="7.0165" gradientTransform="scale(1.0059 .99417)" gradientUnits="userSpaceOnUse">
<stop offset="0"/>
<stop stop-opacity=".58824" offset="1"/>
</linearGradient>
<linearGradient id="linearGradient3613-5" x1="48" x2="48" y1="20.221" y2="138.66" gradientUnits="userSpaceOnUse">
<stop stop-color="#fff" offset="0"/>
<stop stop-color="#fff" stop-opacity="0" offset="1"/>
</linearGradient>
<linearGradient id="linearGradient3960" x1="9.3966" x2="9.3966" y1="5.547" y2="19.983" gradientTransform="matrix(3.3282 0 0 2.7042 -227.2 -331.63)" gradientUnits="userSpaceOnUse">
<stop stop-color="#1e1e1e" offset="0"/>
<stop stop-color="#505050" offset="1"/>
</linearGradient>
<linearGradient id="linearGradient4071" x1="6" x2="90" y1="47" y2="47" gradientTransform="matrix(1.1071 0 0 1.1071 -4.9939 -3.6207)" gradientUnits="userSpaceOnUse">
<stop stop-color="#b2babc" offset="0"/>
<stop stop-color="#fff" offset=".25"/>
<stop stop-color="#96a1a4" offset=".5"/>
<stop stop-color="#f9fafb" offset=".75"/>
<stop stop-color="#b2b9bc" offset="1"/>
</linearGradient>
<linearGradient id="linearGradient4129" x1="1.5" x2="94.5" y1="88.172" y2="88.172" gradientTransform="translate(.14895 .41503)" gradientUnits="userSpaceOnUse">
<stop offset="0"/>
<stop stop-opacity=".58824" offset=".1"/>
<stop stop-opacity=".58824" offset=".9"/>
<stop offset="1"/>
</linearGradient>
<radialGradient id="radialGradient7462-2" cx="13.948" cy="44.893" r="43.199" gradientTransform="matrix(.97513 0 0 .049191 34.048 80.582)" gradientUnits="userSpaceOnUse" xlink:href="#linearGradient3888-8-4-8-6"/>
<radialGradient id="radialGradient7464-9" cx="13.948" cy="44.893" r="43.199" gradientTransform="matrix(.88833 0 0 .049191 31.96 -90.317)" gradientUnits="userSpaceOnUse" xlink:href="#linearGradient3888-8-4-8-6"/>
<linearGradient id="linearGradient4767" x1="2.7714" x2="50.528" y1="-28.642" y2="14.514" gradientUnits="userSpaceOnUse" xlink:href="#linearGradient3888-8-4-8-6"/>
<clipPath id="clipPath4156-4-1">
<path d="m27.046-55.695-14.214 13.321h0.06127l15.653 21.771 10.231-10.546c-0.2169-1.1522-11.311-23.67-11.732-24.546zm-17.399 16.313-14.888 14.062 21.229 17.515 10.385-10.577zm31.491 12.951-9.7413 9.7136 8.9448 12.458 7.7808-7.555zm-49.84 4.3788-13.754 12.982 26.283 13.846 0.06127-0.0617-0.12253-0.0617 9.8332-10.053-22.301-16.652zm38.015 7.4008-9.8025 9.7753 11.579 9.5594 7.6276-7.4008-8.6691-11.009zm20.187 5.674-7.3825 7.2158 6.1878 8.5418 5.8202-6.1365zm-32.195 6.3215-9.5575 9.4977 13.662 7.185 7.9339-7.6784zm23.312 2.3744-7.1068 6.9383 8.3628 6.9074 5.3608-5.674-0.06127-0.0925-0.0919 0.12335-6.4635-8.2026zm-8.7304 8.5418-7.5051 7.3392 10.354 5.4581c1.3975-1.321 5.6751-6.1229 5.8509-6.3215z" fill="#fff" opacity=".6"/>
</clipPath>
<filter id="filter3174-6-3" color-interpolation-filters="sRGB">
<feGaussianBlur stdDeviation="1.71"/>
</filter>
<clipPath id="clipPath3613-9-2">
<rect x="6" y="6" width="84" height="84" rx="6" ry="6" fill="#fff"/>
</clipPath>
<filter id="filter3794-74-9" x="-.192" y="-.192" width="1.384" height="1.384" color-interpolation-filters="sRGB">
<feGaussianBlur stdDeviation="5.28"/>
</filter>
</defs>
<metadata>
<rdf:RDF>
<cc:Work rdf:about="">
<dc:format>image/svg+xml</dc:format>
<dc:type rdf:resource="http://purl.org/dc/dcmitype/StillImage"/>
<dc:title/>
</cc:Work>
</rdf:RDF>
</metadata>
<g transform="translate(0,32)">
<g transform="translate(-8.044 -17.334)">
<g transform="translate(8.044 -1041.2)">
<g transform="translate(-.14896 1026.1)">
<path d="m89.292 0.41503h-82.286c-3.7988 0-6.8571 3.0583-6.8571 6.8571v82.286c0 3.7989 3.0583 6.8571 6.8571 6.8571h82.286c3.7989 0 6.8571-3.0583 6.8571-6.8571v-82.286c0-3.7989-3.0583-6.8571-6.8571-6.8571z" opacity=".15"/>
<path d="m88.649 1.165h-81c-3.7395 0-6.75 3.0105-6.75 6.75v81c0 3.7395 3.0105 6.75 6.75 6.75h81c3.7395 0 6.75-3.0105 6.75-6.75v-81c0-3.7395-3.0105-6.75-6.75-6.75z" opacity=".15"/>
<path d="m88.006 1.915h-79.714c-3.6801 0-6.6429 2.9627-6.6429 6.6429v79.714c0 3.6801 2.9627 6.6429 6.6429 6.6429h79.714c3.6801 0 6.6429-2.9627 6.6429-6.6429v-79.714c0-3.6801-2.9627-6.6429-6.6429-6.6429z" fill="url(#linearGradient4071)"/>
<path d="m11.39 6.8022c-2.8565 0-5.1241 2.2884-5.1241 5.171v21.427 7.2394 39.914c1.0972 1.6845 2.9688 2.8117 5.1241 2.8117h4.0993 65.589 4.0993c2.1553 0 4.0269-1.1272 5.1241-2.8117v-39.914-7.2394-21.427c0-2.8826-2.2676-5.171-5.1241-5.171z" fill="#f5f3f3" opacity=".77865"/>
<path d="m9.974 5.1445c-3.1166 0-5.668 2.5395-5.668 5.646v69.278c0 3.1065 2.5513 5.646 5.668 5.646h76.792c3.1166 0 5.668-2.5395 5.668-5.646v-69.278c0-3.1065-2.5513-5.646-5.668-5.646zm0 2.3194h76.792c1.8881 0 3.352 1.4801 3.352 3.3266v69.278c0 1.8465-1.4639 3.3266-3.352 3.3266h-76.792c-1.8881 0-3.352-1.4801-3.352-3.3266v-69.278c0-1.8465 1.4639-3.3266 3.352-3.3266z" color="#000000" fill="#1f2224" fill-opacity=".63265" style="text-decoration-line:none;text-indent:0;text-transform:none"/>
<path d="m1.649 82.259v6c0 3.6801 2.9761 6.6562 6.6562 6.6562h79.687c3.6801 0 6.6563-2.9761 6.6563-6.6562v-6c0 3.6801-2.9761 6.6562-6.6563 6.6562h-79.687c-3.6801 0-6.6562-2.9761-6.6562-6.6562z" fill="url(#linearGradient4129)" opacity=".65818"/>
<rect x="5.524" y="80.665" width="84.25" height="4.25" rx="0" ry="4.25" fill="url(#radialGradient7462-2)" opacity=".55"/>
<rect transform="rotate(90)" x="5.975" y="-90.234" width="76.75" height="4.25" rx="0" ry="4.25" fill="url(#radialGradient7464-9)" opacity=".669"/>
<g transform="matrix(1.1951 0 0 1.1951 280.25 402.33)">
<g display="none">
<rect x="5" y="7" width="86" height="85" rx="6" ry="6" fill="url(#ButtonShadow-4)" filter="url(#filter3174-6-3)" opacity=".9"/>
<rect x="15" y="15" width="66" height="66" rx="12" ry="12" clip-path="url(#clipPath3613-9-2)" fill="url(#linearGradient3613-5)" filter="url(#filter3794-74-9)" opacity=".3" stroke="#fff" stroke-linecap="round" stroke-width=".5"/>
</g>
<g>
<path d="m-210.7-315.63c-4.155 0-7.5 3.345-7.5 7.5v17c0 4.155 3.345 7.5 7.5 7.5h5.5c0.0318 0 0.0624 2e-3 0.0937 0 1.0637-0.0491 1.9062-0.92377 1.9062-2v-2c0-1.108-0.892-2-2-2h-4c-1.662 0-3-1.338-3-3v-14c0-1.662 1.338-3 3-3h30c1.662 0 3 1.338 3 3v14c0 1.662-1.338 3-3 3-1.0484-0.0489-1.8845 0-3 0v-6l-15 9 15 9v-6h4.5c4.155 0 7.5-3.345 7.5-7.5v-17c0-4.155-3.345-7.5-7.5-7.5h-33z" fill="url(#linearGradient3960)"/>
<path d="m-210.7-315.63c-4.155 0-7.5 3.345-7.5 7.5v17c0 4.155 3.345 7.5 7.5 7.5h5.5c0.0318 0 0.0624 2e-3 0.0937 0 1.0637-0.0491 1.9062-0.92377 1.9062-2v-2c0-1.108-0.892-2-2-2h-4c-1.662 0-3-1.338-3-3v-14c0-1.662 1.338-3 3-3h30c1.662 0 3 1.338 3 3v14c0 1.662-1.338 3-3 3-1.0484-0.0489-1.8845 0-3 0v-6l-15 9 15 9v-6h4.5c4.155 0 7.5-3.345 7.5-7.5v-17c0-4.155-3.345-7.5-7.5-7.5h-33zm0 1h33c3.6232 0 6.5 2.8768 6.5 6.5v17c0 3.6232-2.8768 6.5-6.5 6.5h-4.5a0.99093 0.99093 0 0 0-1 1v4.25l-12.094-7.25 12.094-7.25v4.25a0.99093 0.99093 0 0 0 1 1c1.1445 0 1.9755-0.0463 2.9688 0a0.99093 0.99093 0 0 0 0.0313 0c2.1938 0 4-1.8062 4-4v-14c0-2.1938-1.8062-4-4-4h-30c-2.1938 0-4 1.8062-4 4v14c0 2.1938 1.8062 4 4 4h4c0.57622 0 1 0.42378 1 1v2c0 0.55907-0.39116 0.97475-0.9375 1a0.99093 0.99093 0 0 0-0.0313 0c0.0307-1e-3 0.0317 0-0.0313 0h-5.5c-3.6232 0-6.5-2.8768-6.5-6.5v-17c0-3.6232 2.8768-6.5 6.5-6.5z" opacity=".2"/>
<path d="m-210.7-315.63c-4.155 0-7.5 3.345-7.5 7.5v17c0 4.155 3.345 7.5 7.5 7.5h5.5c0.0318 0 0.0624 2e-3 0.0937 0 1.0637-0.0491 1.9062-0.92377 1.9062-2v-2c0-1.108-0.892-2-2-2h-4c-1.662 0-3-1.338-3-3v-14c0-1.662 1.338-3 3-3h30c1.662 0 3 1.338 3 3v14c0 1.662-1.338 3-3 3-1.0484-0.0489-1.8845 0-3 0v-6l-15 9 15 9v-6h4.5c4.155 0 7.5-3.345 7.5-7.5v-17c0-4.155-3.345-7.5-7.5-7.5h-33zm0 1.9688h33c3.0914 0 5.5312 2.4398 5.5312 5.5312v17c0 3.0914-2.4398 5.5312-5.5312 5.5312h-4.5a1.9819 1.9819 0 0 0-1.9688 1.9688v2.5l-9.1875-5.5 9.1875-5.5v2.5a1.9819 1.9819 0 0 0 1.9688 1.9688c1.1734 0 1.9681-0.0437 2.9062 0a1.9819 1.9819 0 0 0 0.0937 0c2.7256 0 4.9688-2.2432 4.9688-4.9688v-14c0-2.7256-2.2432-4.9688-4.9688-4.9688h-30c-2.7256 0-4.9688 2.2432-4.9688 4.9688v14c0 2.7256 2.2432 4.9688 4.9688 4.9688h4c0.0444 0 0.0313-0.0132 0.0313 0.0313v2c0 0.0419-2e-3 0.0299-0.0313 0.0313h-5.5c-3.0914 0-5.5312-2.4398-5.5312-5.5312v-17c0-3.0914 2.4398-5.5312 5.5312-5.5312z" opacity=".1"/>
<path d="m-210.7-315.63c-4.155 0-7.5 3.345-7.5 7.5v1c0-4.155 3.345-7.5 7.5-7.5h33c4.155 0 7.5 3.345 7.5 7.5v-1c0-4.155-3.345-7.5-7.5-7.5h-33zm28.5 20-15 9 0.84375 0.5 14.156-8.5v-1zm-30 3v1c0 1.662 1.338 3 3 3h4c1.108 0 2 0.892 2 2v-1c0-1.108-0.892-2-2-2h-4c-1.662 0-3-1.338-3-3zm36 0c0 1.662-1.338 3-3 3-1.0484-0.0489-1.8845 0-3 0v1c1.1155 0 1.9516-0.0489 3 0 1.662 0 3-1.338 3-3v-1z" opacity=".6"/>
<path d="m-209.2-309.63c-1.662 0-3 1.338-3 3v1c0-1.662 1.338-3 3-3h30c1.662 0 3 1.338 3 3v-1c0-1.662-1.338-3-3-3h-30zm-9 18.5v1c0 4.155 3.345 7.5 7.5 7.5h5.5c0.0318 0 0.0624 2e-3 0.0937 0 1.0637-0.0491 1.9062-0.92377 1.9062-2v-1c0 1.0762-0.84259 1.9508-1.9062 2-0.0314 2e-3 -0.062 0-0.0937 0h-5.5c-4.155 0-7.5-3.345-7.5-7.5zm48 0c0 4.155-3.345 7.5-7.5 7.5h-4.5v1h4.5c4.155 0 7.5-3.345 7.5-7.5v-1zm-26.156 5-0.84375 0.5 15 9v-1l-14.156-8.5z" fill="#fff" opacity=".6"/>
</g>
</g>
<rect transform="matrix(1.0692 0 0 1.0477 4.4442 38.894)" x="2" y="-30" width="75.966" height="69.024" rx="3.957" ry="3.957" clip-path="url(#clipPath4156-4-1)" fill="url(#linearGradient4767)" opacity=".50781"/>
</g>
</g>
</g>
</g>
</svg>
