<?xml version="1.0" encoding="UTF-8"?>
<!-- Created with Inkscape (http://www.inkscape.org/) -->
<svg version="1.1" viewBox="0 0 96 96" xmlns="http://www.w3.org/2000/svg" xmlns:cc="http://creativecommons.org/ns#" xmlns:dc="http://purl.org/dc/elements/1.1/" xmlns:rdf="http://www.w3.org/1999/02/22-rdf-syntax-ns#" xmlns:xlink="http://www.w3.org/1999/xlink">
<defs>
<linearGradient id="linearGradient4071" x1="6" x2="90" y1="47" y2="47" gradientTransform="matrix(1.1071 0 0 1.1071 -4.9939 -3.6207)" gradientUnits="userSpaceOnUse">
<stop stop-color="#adb9c1" offset="0"/>
<stop stop-color="#fff" offset=".25"/>
<stop stop-color="#90a2aa" offset=".5"/>
<stop stop-color="#f9fafb" offset=".75"/>
<stop stop-color="#adb9c1" offset="1"/>
</linearGradient>
<linearGradient id="linearGradient4129" x1="1.5" x2="94.5" y1="88.172" y2="88.172" gradientTransform="translate(.14895 .41503)" gradientUnits="userSpaceOnUse">
<stop offset="0"/>
<stop stop-opacity=".58824" offset=".1"/>
<stop stop-opacity=".58824" offset=".9"/>
<stop offset="1"/>
</linearGradient>
<radialGradient id="radialGradient7462" cx="13.948" cy="44.893" r="43.199" gradientTransform="matrix(.97513 0 0 .049191 34.048 80.582)" gradientUnits="userSpaceOnUse" xlink:href="#linearGradient3737"/>
<linearGradient id="linearGradient3737">
<stop stop-color="#fff" offset="0"/>
<stop stop-color="#fff" stop-opacity="0" offset="1"/>
</linearGradient>
<radialGradient id="radialGradient7464" cx="13.948" cy="44.893" r="43.199" gradientTransform="matrix(.88833 0 0 .049191 31.96 -90.317)" gradientUnits="userSpaceOnUse" xlink:href="#linearGradient3737"/>
<linearGradient id="linearGradient4767" x1="2.7714" x2="50.528" y1="-28.642" y2="14.514" gradientUnits="userSpaceOnUse" xlink:href="#linearGradient3737"/>
<clipPath id="clipPath4156-4-1">
<path d="m27.046-55.695-14.214 13.321h0.06127l15.653 21.771 10.231-10.546c-0.2169-1.1522-11.311-23.67-11.732-24.546zm-17.399 16.313-14.888 14.062 21.229 17.515 10.385-10.577zm31.491 12.951-9.7413 9.7136 8.9448 12.458 7.7808-7.555zm-49.84 4.3788-13.754 12.982 26.283 13.846 0.06127-0.0617-0.12253-0.0617 9.8332-10.053-22.301-16.652zm38.015 7.4008-9.8025 9.7753 11.579 9.5594 7.6276-7.4008-8.6691-11.009zm20.187 5.674-7.3825 7.2158 6.1878 8.5418 5.8202-6.1365zm-32.195 6.3215-9.5575 9.4977 13.662 7.185 7.9339-7.6784zm23.312 2.3744-7.1068 6.9383 8.3628 6.9074 5.3608-5.674-0.06127-0.0925-0.0919 0.12335-6.4635-8.2026zm-8.7304 8.5418-7.5051 7.3392 10.354 5.4581c1.3975-1.321 5.6751-6.1229 5.8509-6.3215z" fill="#fff" opacity=".6"/>
</clipPath>
<radialGradient id="radialGradient4333" cx="32" cy="32" r="8" gradientUnits="userSpaceOnUse">
<stop stop-color="#ffb800" offset="0"/>
<stop stop-color="#ffb800" stop-opacity="0" offset="1"/>
</radialGradient>
<radialGradient id="radialGradient3556" cx="29.095" cy="31.602" r="7.2449" gradientUnits="userSpaceOnUse">
<stop stop-color="#ffe375" offset="0"/>
<stop stop-color="#ffa600" offset="1"/>
</radialGradient>
<radialGradient id="radialGradient4355" cx="32" cy="32" r="8" gradientUnits="userSpaceOnUse">
<stop stop-color="#dcfaff" offset="0"/>
<stop stop-color="#00bdff" stop-opacity="0" offset="1"/>
</radialGradient>
<radialGradient id="radialGradient4357" cx="29.095" cy="31.602" r="7.2449" gradientUnits="userSpaceOnUse">
<stop stop-color="#d0e9ff" offset="0"/>
<stop stop-color="#00b3ff" offset="1"/>
</radialGradient>
<radialGradient id="radialGradient4397" cx="32" cy="32" r="8" gradientUnits="userSpaceOnUse">
<stop stop-color="#ffb7ec" offset="0"/>
<stop stop-color="#f0c" stop-opacity="0" offset="1"/>
</radialGradient>
<radialGradient id="radialGradient4399" cx="29.095" cy="31.602" r="7.2449" gradientUnits="userSpaceOnUse">
<stop stop-color="#fac2cf" offset="0"/>
<stop stop-color="#f022be" offset="1"/>
</radialGradient>
<radialGradient id="radialGradient4481" cx="32" cy="32" r="8" gradientUnits="userSpaceOnUse">
<stop stop-color="#a9ffb6" offset="0"/>
<stop stop-color="#00ff02" stop-opacity="0" offset="1"/>
</radialGradient>
<radialGradient id="radialGradient4483-3" cx="29.095" cy="31.602" r="7.2449" gradientUnits="userSpaceOnUse">
<stop stop-color="#dcffdc" offset="0"/>
<stop stop-color="#0fff00" offset="1"/>
</radialGradient>
<linearGradient id="linearGradient4238" x1="48" x2="55.078" y1="56" y2="56" gradientUnits="userSpaceOnUse">
<stop offset="0"/>
<stop stop-color="#a5a5a5" offset=".3"/>
<stop stop-color="#4c4c4c" offset=".6"/>
<stop offset="1"/>
</linearGradient>
<linearGradient id="linearGradient4240" x1="48" x2="56.154" y1="56" y2="56" gradientUnits="userSpaceOnUse" xlink:href="#linearGradient4654"/>
<linearGradient id="linearGradient4654">
<stop stop-color="#a5a5a5" offset="0"/>
<stop stop-color="#fff" offset=".3"/>
<stop stop-color="#a5a5a5" offset=".6"/>
<stop stop-color="#636363" offset="1"/>
</linearGradient>
<linearGradient id="linearGradient4242" x1="48" x2="55.869" y1="56" y2="56" gradientTransform="matrix(1,0,0,-1,0,112)" gradientUnits="userSpaceOnUse" xlink:href="#linearGradient4654"/>
</defs>
<metadata>
<rdf:RDF>
<cc:Work rdf:about="">
<dc:format>image/svg+xml</dc:format>
<dc:type rdf:resource="http://purl.org/dc/dcmitype/StillImage"/>
<dc:title/>
<dc:date>2017</dc:date>
<dc:creator>
<cc:Agent>
<dc:title>Cristian Pozzessere "ilnanny"</dc:title>
</cc:Agent>
</dc:creator>
<dc:subject>
<rdf:Bag>
<rdf:li>Global language</rdf:li>
</rdf:Bag>
</dc:subject>
<dc:description>Playing with Inkscape on Gnu/Linux O. S.</dc:description>
<dc:contributor>
<cc:Agent>
<dc:title>In the night, alone like a dog.</dc:title>
</cc:Agent>
</dc:contributor>
<cc:license rdf:resource="http://creativecommons.org/licenses/by-sa/4.0/"/>
</cc:Work>
<cc:License rdf:about="http://creativecommons.org/licenses/by-sa/4.0/">
<cc:permits rdf:resource="http://creativecommons.org/ns#Reproduction"/>
<cc:permits rdf:resource="http://creativecommons.org/ns#Distribution"/>
<cc:requires rdf:resource="http://creativecommons.org/ns#Notice"/>
<cc:requires rdf:resource="http://creativecommons.org/ns#Attribution"/>
<cc:permits rdf:resource="http://creativecommons.org/ns#DerivativeWorks"/>
<cc:requires rdf:resource="http://creativecommons.org/ns#ShareAlike"/>
</cc:License>
</rdf:RDF>
</metadata>
<g transform="translate(0 -1026.5)">
<g transform="translate(-.14896 1026.1)">
<path d="m89.292 0.41503h-82.286c-3.7988 0-6.8571 3.0583-6.8571 6.8571v82.286c0 3.7989 3.0583 6.8571 6.8571 6.8571h82.286c3.7989 0 6.8571-3.0583 6.8571-6.8571v-82.286c0-3.7989-3.0583-6.8571-6.8571-6.8571z" opacity=".15"/>
<path d="m88.649 1.165h-81c-3.7395 0-6.75 3.0105-6.75 6.75v81c0 3.7395 3.0105 6.75 6.75 6.75h81c3.7395 0 6.75-3.0105 6.75-6.75v-81c0-3.7395-3.0105-6.75-6.75-6.75z" opacity=".15"/>
<path d="m88.006 1.915h-79.714c-3.6801 0-6.6429 2.9627-6.6429 6.6429v79.714c0 3.6801 2.9627 6.6429 6.6429 6.6429h79.714c3.6801 0 6.6429-2.9627 6.6429-6.6429v-79.714c0-3.6801-2.9627-6.6429-6.6429-6.6429z" fill="url(#linearGradient4071)"/>
<path d="m11.39 6.8022c-2.8565 0-5.1241 2.2884-5.1241 5.171v68.58c1.0972 1.6845 2.9688 2.8117 5.1241 2.8117h73.787c2.1553 0 4.0269-1.1272 5.1241-2.8117v-68.58c0-2.8826-2.2676-5.171-5.1241-5.171z" fill="#f5f3f3" opacity=".77865"/>
<path d="m9.974 5.1445c-3.1166 0-5.668 2.5395-5.668 5.646v69.278c0 3.1065 2.5513 5.646 5.668 5.646h76.792c3.1166 0 5.668-2.5395 5.668-5.646v-69.278c0-3.1065-2.5513-5.646-5.668-5.646zm0 2.3194h76.792c1.8881 0 3.352 1.4801 3.352 3.3266v69.278c0 1.8465-1.4639 3.3266-3.352 3.3266h-76.792c-1.8881 0-3.352-1.4801-3.352-3.3266v-69.278c0-1.8465 1.4639-3.3266 3.352-3.3266z" color="#000000" fill="#1f2224" fill-opacity=".63265" style="text-decoration-line:none;text-indent:0;text-transform:none"/>
<path d="m1.649 82.259v6c0 3.6801 2.9761 6.6562 6.6562 6.6562h79.687c3.6801 0 6.6563-2.9761 6.6563-6.6562v-6c0 3.6801-2.9761 6.6562-6.6563 6.6562h-79.687c-3.6801 0-6.6562-2.9761-6.6562-6.6562z" fill="url(#linearGradient4129)" opacity=".65818"/>
<rect x="5.524" y="80.665" width="84.25" height="4.25" rx="0" ry="4.25" fill="url(#radialGradient7462)" opacity=".55"/>
<rect transform="rotate(90)" x="5.975" y="-90.234" width="76.75" height="4.25" rx="0" ry="4.25" fill="url(#radialGradient7464)" opacity=".669"/>
<g transform="matrix(.759 -.44408 .43821 .76917 -3.0857 28.632)">
<g transform="matrix(.97851 .56494 -.56494 .97851 22.462 4.0567)" enable-background="new">
<path transform="translate(-1,-1)" d="m40 32a8 8 0 1 1-16 0 8 8 0 1 1 16 0z" color="#000000" enable-background="accumulate" fill="url(#radialGradient4333)"/>
<path transform="rotate(30 31.097 34.982)" d="m23.906 22.634 2.3835 8.2161-6.187 5.9312 8.187-2.4671 5.9915 6.2706-2.5274-8.2706 6.331-5.9079-8.331 2.4438z" color="#000000" enable-background="accumulate" fill="#fc0" opacity=".1"/>
<path transform="rotate(30 31.097 34.982)" d="m33.778 39.713-5.2168-6.034-7.577 2.606 6.0744-5.1503-2.6463-7.6434 5.1635 6.0648 7.6303-2.6368-6.0258 5.3543z" color="#000000" enable-background="accumulate" fill="#fc0" opacity=".2"/>
<path transform="rotate(30 31.097 34.982)" d="m33.278 38.847-4.5293-5.952-6.8985 2.8899 5.952-4.5293-2.8899-6.8985 4.5293 5.952 6.8985-2.8899-5.952 4.5293z" color="#000000" enable-background="accumulate" fill="url(#radialGradient3556)"/>
</g>
<g transform="matrix(.6481 .37418 -.37418 .6481 62.326 19.687)" enable-background="new">
<path transform="translate(-1,-1)" d="m40 32a8 8 0 1 1-16 0 8 8 0 1 1 16 0z" color="#000000" enable-background="accumulate" fill="url(#radialGradient4355)"/>
<path transform="rotate(30 31.097 34.982)" d="m23.906 22.634 2.3835 8.2161-6.187 5.9312 8.187-2.4671 5.9915 6.2706-2.5274-8.2706 6.331-5.9079-8.331 2.4438z" color="#000000" enable-background="accumulate" fill="#fc0" opacity=".1"/>
<path transform="rotate(30 31.097 34.982)" d="m33.778 39.713-5.2168-6.034-7.577 2.606 6.0744-5.1503-2.6463-7.6434 5.1635 6.0648 7.6303-2.6368-6.0258 5.3543z" color="#000000" enable-background="accumulate" fill="#00d8ff" opacity=".2"/>
<path transform="rotate(30 31.097 34.982)" d="m33.278 38.847-4.5293-5.952-6.8985 2.8899 5.952-4.5293-2.8899-6.8985 4.5293 5.952 6.8985-2.8899-5.952 4.5293z" color="#000000" enable-background="accumulate" fill="url(#radialGradient4357)"/>
</g>
<g transform="matrix(1.5933 .91992 -.91992 1.5933 9.2003 -50.238)" enable-background="new">
<path transform="translate(-1,-1)" d="m40 32a8 8 0 1 1-16 0 8 8 0 1 1 16 0z" color="#000000" enable-background="accumulate" fill="url(#radialGradient4397)"/>
<path transform="rotate(30 31.097 34.982)" d="m23.906 22.634 2.3835 8.2161-6.187 5.9312 8.187-2.4671 5.9915 6.2706-2.5274-8.2706 6.331-5.9079-8.331 2.4438z" color="#000000" enable-background="accumulate" fill="#fc0" opacity=".1"/>
<path transform="rotate(30 31.097 34.982)" d="m33.778 39.713-5.2168-6.034-7.577 2.606 6.0744-5.1503-2.6463-7.6434 5.1635 6.0648 7.6303-2.6368-6.0258 5.3543z" color="#000000" enable-background="accumulate" fill="#ff00e2" opacity=".2"/>
<path transform="rotate(30 31.097 34.982)" d="m33.278 38.847-4.5293-5.952-6.8985 2.8899 5.952-4.5293-2.8899-6.8985 4.5293 5.952 6.8985-2.8899-5.952 4.5293z" color="#000000" enable-background="accumulate" fill="url(#radialGradient4399)"/>
</g>
<g transform="matrix(.76026 .43894 -.43894 .76026 37.363 -28.783)" enable-background="new">
<path transform="translate(-1,-1)" d="m40 32a8 8 0 1 1-16 0 8 8 0 1 1 16 0z" color="#000000" enable-background="accumulate" fill="url(#radialGradient4481)"/>
<path transform="rotate(30 31.097 34.982)" d="m23.906 22.634 2.3835 8.2161-6.187 5.9312 8.187-2.4671 5.9915 6.2706-2.5274-8.2706 6.331-5.9079-8.331 2.4438z" color="#000000" enable-background="accumulate" fill="#25ff00" opacity=".1"/>
<path transform="rotate(30 31.097 34.982)" d="m33.778 39.713-5.2168-6.034-7.577 2.606 6.0744-5.1503-2.6463-7.6434 5.1635 6.0648 7.6303-2.6368-6.0258 5.3543z" color="#000000" enable-background="accumulate" fill="#00ff25" opacity=".2"/>
<path transform="rotate(30 31.097 34.982)" d="m33.278 38.847-4.5293-5.952-6.8985 2.8899 5.952-4.5293-2.8899-6.8985 4.5293 5.952 6.8985-2.8899-5.952 4.5293z" color="#000000" enable-background="accumulate" fill="url(#radialGradient4483-3)"/>
</g>
<rect x="48" y="16" width="8" height="80" rx="1" ry="1.5" color="#000000" fill="url(#linearGradient4238)"/>
<path d="m49 16c-0.554 0-1 0.669-1 1.5v12.5h8v-12.5c0-0.831-0.446-1.5-1-1.5z" color="#000000" fill="url(#linearGradient4240)"/>
<path d="m49 96c-0.554 0-1-0.669-1-1.5v-12.5h8v12.5c0 0.831-0.446 1.5-1 1.5z" color="#000000" fill="url(#linearGradient4242)"/>
</g>
<rect transform="matrix(1.0692 0 0 1.0477 4.4442 38.894)" x="2" y="-30" width="75.966" height="69.024" rx="3.957" ry="3.957" clip-path="url(#clipPath4156-4-1)" fill="url(#linearGradient4767)" opacity=".50781"/>
</g>
</g>
</svg>
