<?xml version="1.0" encoding="UTF-8"?>
<!-- Created with Inkscape (http://www.inkscape.org/) -->
<svg version="1.1" viewBox="0 0 96 96" xmlns="http://www.w3.org/2000/svg" xmlns:cc="http://creativecommons.org/ns#" xmlns:dc="http://purl.org/dc/elements/1.1/" xmlns:rdf="http://www.w3.org/1999/02/22-rdf-syntax-ns#" xmlns:xlink="http://www.w3.org/1999/xlink">
<defs>
<linearGradient id="linearGradient4133-5">
<stop stop-color="#fff" offset="0"/>
<stop stop-color="#fff" stop-opacity="0" offset="1"/>
</linearGradient>
<linearGradient id="linearGradient3825" x1="6" x2="90" y1="47" y2="47" gradientTransform="matrix(1.1071 0 0 1.1071 -5.1429 -4.0357)" gradientUnits="userSpaceOnUse">
<stop stop-color="#d6dce0" offset="0"/>
<stop stop-color="#fff" offset=".25"/>
<stop stop-color="#c7d0d4" offset=".5"/>
<stop stop-color="#f9fafb" offset=".75"/>
<stop stop-color="#d4dbdf" offset="1"/>
</linearGradient>
<radialGradient id="radialGradient3827" cx="48" cy="-27" r="42" gradientTransform="matrix(-1.187 0 0 -.96877 104.98 -24.657)" gradientUnits="userSpaceOnUse">
<stop stop-color="#fff" offset="0"/>
<stop stop-color="#fff" offset=".8"/>
<stop stop-color="#fff" stop-opacity="0" offset="1"/>
</radialGradient>
<linearGradient id="linearGradient3829" x1="1.5" x2="94.5" y1="88.172" y2="88.172" gradientTransform="translate(-3e-6)" gradientUnits="userSpaceOnUse">
<stop offset="0"/>
<stop stop-opacity=".58824" offset=".1"/>
<stop stop-opacity=".58824" offset=".9"/>
<stop offset="1"/>
</linearGradient>
<clipPath id="clipPath4008-9-2-8">
<path d="m44.425 20c-1.0232 0-1.8688 0.82804-1.8688 1.8688v3.6969c-1.8296 0.48747-3.5598 1.2229-5.1594 2.1531l-2.6406-2.6406c-0.36795-0.36795-0.78321-0.52409-1.2594-0.52812-0.47616-0.0041-0.97886 0.16636-1.3406 0.52812l-5.0781 5.0781c-0.72352 0.72353-0.6952 1.8641 0.04062 2.6l2.6 2.6406c-0.93027 1.5995-1.6656 3.3298-2.1531 5.1594h-3.6562c-1.0407 0-1.9094 0.84552-1.9094 1.8688v7.15c0 1.0232 0.86866 1.8688 1.9094 1.8688h3.6562c0.48749 1.8296 1.2229 3.5599 2.1531 5.1594l-2.6 2.6c-0.73589 0.7359-0.76421 1.9171-0.04062 2.6406l5.0781 5.0781c0.72352 0.72353 1.8641 0.69527 2.6-0.04063l2.6406-2.6c1.5995 0.93027 3.3298 1.6656 5.1594 2.1531v3.6562c-5e-6 1.0407 0.84551 1.9094 1.8687 1.9094h7.15c1.0232 0 1.8688-0.86866 1.8688-1.9094v-3.6562c1.8296-0.48748 3.5598-1.2229 5.1594-2.1531l2.6406 2.6c0.73589 0.7359 1.8765 0.76415 2.6 0.04063l5.0781-5.0781c0.72352-0.72353 0.6952-1.9047-0.04063-2.6406l-2.6-2.6c0.93026-1.5995 1.6656-3.3298 2.1531-5.1594h3.6562c1.0407-5e-6 1.9094-0.84553 1.9094-1.8688v-7.15c0-1.0232-0.86867-1.8688-1.9094-1.8688h-3.6562c-0.48747-1.8296-1.2229-3.5599-2.1531-5.1594l2.6-2.6406c0.73589-0.7359 0.76422-1.8765 0.04063-2.6l-5.0781-5.0781c-0.72353-0.72353-1.8641-0.7359-2.6 0l-2.6406 2.6406c-1.5995-0.93027-3.3298-1.6657-5.1594-2.1531v-3.6969c0-1.0407-0.84553-1.8688-1.8688-1.8688h-7.15zm3.575 18.119c4.339 0 7.8406 3.5423 7.8406 7.8812 0 4.339-3.5017 7.8406-7.8406 7.8406-4.339 0-7.8406-3.5017-7.8406-7.8406 0-4.339 3.5017-7.8812 7.8406-7.8812z" display="block" fill="#f0f"/>
</clipPath>
<filter id="filter4012-5-1" color-interpolation-filters="sRGB">
<feGaussianBlur stdDeviation="0.78"/>
</filter>
<linearGradient id="linearGradient4967" x1="2.7714" x2="50.528" y1="-28.642" y2="14.514" gradientUnits="userSpaceOnUse" xlink:href="#linearGradient4133-5"/>
<clipPath id="clipPath4156-4-6-9">
<path d="m27.046-55.695-14.214 13.321h0.06127l15.653 21.771 10.231-10.546c-0.2169-1.1522-11.311-23.67-11.732-24.546zm-17.399 16.313-14.888 14.062 21.229 17.515 10.385-10.577-16.726-21zm31.491 12.951-9.7413 9.7136 8.9448 12.458 7.7808-7.555-6.9843-14.617zm-49.84 4.3788-13.754 12.982 26.283 13.846 0.06127-0.0617-0.12253-0.0617 9.8332-10.053-22.301-16.652zm38.015 7.4008-9.8025 9.7753 11.579 9.5594 7.6276-7.4008-8.6691-11.009-0.73519-0.9251zm20.187 5.674-7.3825 7.2158 6.1878 8.5418 5.8202-6.1365-4.6256-9.6211zm-32.195 6.3215-9.5575 9.4977 13.662 7.185 7.9339-7.6784-12.039-9.0043zm23.312 2.3744-7.1068 6.9383 8.3628 6.9074 5.3608-5.674-0.06127-0.0925-0.0919 0.12335-6.4635-8.2026zm-8.7304 8.5418-7.5051 7.3392 10.354 5.4581c1.3975-1.321 5.6751-6.1229 5.8509-6.3215l-8.6997-6.4757z" fill="#fff" opacity=".6"/>
</clipPath>
<radialGradient id="radialGradient4992" cx="13.948" cy="44.893" r="43.199" gradientTransform="matrix(.97513 0 0 .049191 32.735 78.814)" gradientUnits="userSpaceOnUse" xlink:href="#linearGradient4133-5"/>
<radialGradient id="radialGradient32123" cx="13.948" cy="44.893" r="43.199" gradientTransform="matrix(.88833 0 0 .049191 29.382 -89.635)" gradientUnits="userSpaceOnUse" xlink:href="#linearGradient4133-5"/>
</defs>
<metadata>
<rdf:RDF>
<cc:Work rdf:about="">
<dc:format>image/svg+xml</dc:format>
<dc:type rdf:resource="http://purl.org/dc/dcmitype/StillImage"/>
<dc:title/>
</cc:Work>
</rdf:RDF>
</metadata>
<path d="m89.143 0h-82.286c-3.7988 0-6.8571 3.0583-6.8571 6.8571v82.286c0 3.7989 3.0583 6.8571 6.8571 6.8571h82.286c3.7989 0 6.8571-3.0583 6.8571-6.8571v-82.286c0-3.7989-3.0583-6.8571-6.8571-6.8571z" opacity=".15"/>
<path d="m88.5 0.75h-81c-3.7395 0-6.75 3.0105-6.75 6.75v81c0 3.7395 3.0105 6.75 6.75 6.75h81c3.7395 0 6.75-3.0105 6.75-6.75v-81c0-3.7395-3.0105-6.75-6.75-6.75z" opacity=".15"/>
<path d="m87.857 1.5h-79.714c-3.6801 0-6.6429 2.9627-6.6429 6.6429v79.714c0 3.6801 2.9627 6.6429 6.6429 6.6429h79.714c3.6801 0 6.6429-2.9627 6.6429-6.6429v-79.714c0-3.6801-2.9627-6.6429-6.6429-6.6429z" fill="url(#linearGradient3825)"/>
<path d="m8.1429 1.5c-3.6801 0-6.6429 2.9627-6.6429 6.6429v16.607h1.1071v-16.607c0-3.0859 2.4498-5.5357 5.5357-5.5357h79.714c3.0859 0 5.5357 2.4498 5.5357 5.5357v16.607h1.1071v-16.607c0-3.6801-2.9627-6.6429-6.6429-6.6429z" fill="url(#radialGradient3827)" opacity=".45"/>
<path d="m1.5 81.844v6c0 3.6801 2.9761 6.6562 6.6562 6.6562h79.688c3.6801 0 6.6563-2.9761 6.6563-6.6562v-6c0 3.6801-2.9761 6.6562-6.6563 6.6562h-79.688c-3.6801 0-6.6562-2.9761-6.6562-6.6562z" fill="url(#linearGradient3829)" opacity=".89091"/>
<rect x="4" y="5.9" width="88" height="80" rx="6.2141" ry="5.4427" fill="#dbdfe2" fill-opacity=".9633"/>
<path d="m9.6041 5.715c-3.1166 0-5.668 2.5395-5.668 5.646v69.278c0 3.1065 2.5513 5.646 5.668 5.646h76.792c3.1166 0 5.668-2.5395 5.668-5.646v-69.278c0-3.1065-2.5514-5.646-5.668-5.646zm0 2.3194h76.792c1.8881 0 3.352 1.4801 3.352 3.3266v69.278c0 1.8465-1.4639 3.3266-3.352 3.3266h-76.792c-1.8881 0-3.352-1.4801-3.352-3.3266v-69.278c0-1.8465 1.4639-3.3266 3.352-3.3266z" color="#000000" fill="#342323" style="text-decoration-line:none;text-indent:0;text-transform:none"/>
<path d="m43.096 11.967c-1.3044 0-2.3822 1.0555-2.3822 2.3822v4.7126c-2.3323 0.62141-4.5379 1.5588-6.577 2.7447l-3.3662-3.3662c-0.46905-0.46904-0.9984-0.66809-1.6054-0.67323-0.60699-0.0052-1.2478 0.21207-1.709 0.67323l-6.4734 6.4734c-0.92232 0.92232-0.88622 2.3763 0.05178 3.3144l3.3144 3.3662c-1.1859 2.039-2.1233 4.2447-2.7447 6.577h-4.6608c-1.3266 0-2.434 1.0778-2.434 2.3822v9.1145c0 1.3044 1.1073 2.3822 2.434 2.3822h4.6608c0.62143 2.3323 1.5588 4.5379 2.7447 6.577l-3.3144 3.3144c-0.93808 0.93809-0.97419 2.4438-0.05178 3.3662l6.4734 6.4734c0.92231 0.92232 2.3763 0.8863 3.3144-0.05179l3.3662-3.3144c2.039 1.1859 4.2447 2.1233 6.577 2.7447v4.6608c-6e-6 1.3267 1.0778 2.434 2.3822 2.434h9.1145c1.3044 0 2.3822-1.1073 2.3822-2.434v-4.6608c2.3323-0.62141 4.5379-1.5588 6.577-2.7447l3.3662 3.3144c0.93808 0.93809 2.392 0.97411 3.3144 0.05179l6.4734-6.4734c0.92232-0.92232 0.88621-2.4281-0.05179-3.3662l-3.3144-3.3144c1.1859-2.039 2.1233-4.2447 2.7447-6.577h4.6608c1.3267-6e-6 2.434-1.0778 2.434-2.3822v-9.1145c0-1.3044-1.1073-2.3822-2.434-2.3822h-4.6608c-0.62141-2.3323-1.5588-4.5379-2.7447-6.577l3.3144-3.3662c0.93808-0.93809 0.9742-2.392 0.05179-3.3144l-6.4734-6.4734c-0.92233-0.92232-2.3763-0.93809-3.3144 0l-3.3662 3.3662c-2.039-1.1859-4.2447-2.1233-6.5769-2.7447v-4.7126c0-1.3267-1.0778-2.3822-2.3822-2.3822zm4.5573 23.097c5.5311 0 9.9949 4.5156 9.9949 10.047 0 5.5311-4.4638 9.9949-9.9949 9.9949-5.5311 0-9.9949-4.4638-9.9949-9.9949 0-5.5311 4.4638-10.047 9.9949-10.047z" display="block" fill="#808080" opacity=".8"/>
<path d="m20.405 27.184c-0.21524 0.78629-0.0012 1.6719 0.63738 2.3105l2.8682 2.9479c0.1496-0.27867 0.27954-0.56376 0.4382-0.83656l-3.3064-3.3861c-0.30936-0.30939-0.52625-0.6517-0.63738-1.0357zm54.496 0c-0.11113 0.38404-0.32799 0.72635-0.63738 1.0357l-3.3064 3.3861c0.15866 0.2728 0.2886 0.55789 0.4382 0.83656l2.8682-2.9479c0.63862-0.63862 0.85263-1.5242 0.63738-2.3105zm-27.248 7.8876c-5.5311 0-9.9989 4.5076-9.9989 10.039 0 0.21293 0.02679 0.4278 0.03984 0.63738 0.32561-5.238 4.6409-9.4013 9.959-9.4013 5.3182 0 9.6334 4.1633 9.959 9.4013 0.01304-0.20958 0.03984-0.42445 0.03984-0.63738 0-5.5311-4.4677-10.039-9.9989-10.039zm-33.144 14.58v1.2748c0 1.3044 1.1033 2.3902 2.43 2.3902h4.6608c0.53828 2.0203 1.3419 3.9322 2.3105 5.7364l0.4382-0.4382c-1.1859-2.039-2.1273-4.2407-2.7487-6.573h-4.6608c-1.3267 0-2.43-1.0858-2.43-2.3902zm66.287 0c0 1.3044-1.1034 2.3902-2.43 2.3902h-4.6608c-0.62141 2.3323-1.5628 4.534-2.7487 6.573l0.4382 0.4382c0.96857-1.8042 1.7722-3.7162 2.3105-5.7364h4.6608c1.3267-6e-6 2.43-1.0858 2.43-2.3902zm-60.392 14.58c-0.24266 0.80549-0.0304 1.7224 0.59754 2.3503l6.4535 6.4933c0.92231 0.92232 2.3683 0.85842 3.3064-0.07967l3.3861-3.3064c2.039 1.1859 4.2407 2.1273 6.573 2.7487v-1.2748c-2.3323-0.62141-4.534-1.5628-6.573-2.7487l-3.3861 3.3064c-0.93808 0.93809-2.3841 1.002-3.3064 0.07967l-6.4535-6.4933c-0.30422-0.30419-0.49982-0.68576-0.59754-1.0756zm54.496 0c-0.09771 0.38982-0.25352 0.77139-0.55771 1.0756l-6.4933 6.4933c-0.92232 0.92232-2.3683 0.85842-3.3064-0.07967l-3.3861-3.3064c-2.039 1.1859-4.2407 2.1273-6.573 2.7487v1.2748c2.3323-0.62141 4.534-1.5628 6.573-2.7487l3.3861 3.3064c0.93808 0.93809 2.3841 1.002 3.3064 0.07967l6.4933-6.4933c0.62788-0.62789 0.80034-1.5448 0.55771-2.3503zm-34.179 11.592v1.2748c-7e-6 1.3267 1.0858 2.43 2.3902 2.43h9.0826c1.3044 0 2.3902-1.1033 2.3902-2.43v-1.2748c0 1.3267-1.0858 2.43-2.3902 2.43h-9.0826c-1.3044 0-2.3902-1.1033-2.3902-2.43z" display="block" fill="#fff" opacity=".692"/>
<path transform="matrix(1.2748 0 0 1.2748 -13.535 -13.528)" d="m44.425 21c-1.0232 0-1.8688 0.82804-1.8688 1.8688v3.6969c-1.8296 0.48747-3.5598 1.2229-5.1594 2.1531l-2.6406-2.6406c-0.36795-0.36795-0.78321-0.52409-1.2594-0.52812-0.47616-0.0041-0.97886 0.16636-1.3406 0.52812l-5.0781 5.0781c-0.72352 0.72353-0.6952 1.8641 0.04062 2.6l2.6 2.6406c-0.93027 1.5995-1.6656 3.3298-2.1531 5.1594h-3.6562c-1.0407 0-1.9094 0.84552-1.9094 1.8688v7.15c0 1.0232 0.86866 1.8688 1.9094 1.8688h3.6562c0.48749 1.8296 1.2229 3.5599 2.1531 5.1594l-2.6 2.6c-0.73589 0.7359-0.76421 1.9171-0.04062 2.6406l5.0781 5.0781c0.72352 0.72353 1.8641 0.69527 2.6-0.04063l2.6406-2.6c1.5995 0.93027 3.3298 1.6656 5.1594 2.1531v3.6562c-5e-6 1.0407 0.84551 1.9094 1.8687 1.9094h7.15c1.0232 0 1.8688-0.86866 1.8688-1.9094v-3.6562c1.8296-0.48748 3.5598-1.2229 5.1594-2.1531l2.6406 2.6c0.73589 0.7359 1.8765 0.76415 2.6 0.04063l5.0781-5.0781c0.72352-0.72353 0.6952-1.9047-0.04063-2.6406l-2.6-2.6c0.93026-1.5995 1.6656-3.3298 2.1531-5.1594h3.6562c1.0407-5e-6 1.9094-0.84553 1.9094-1.8688v-7.15c0-1.0232-0.86867-1.8688-1.9094-1.8688h-3.6562c-0.48747-1.8296-1.2229-3.5599-2.1531-5.1594l2.6-2.6406c0.73589-0.7359 0.76422-1.8765 0.04063-2.6l-5.0781-5.0781c-0.72353-0.72353-1.8641-0.7359-2.6 0l-2.6406 2.6406c-1.5995-0.93027-3.3298-1.6657-5.1594-2.1531v-3.6969c0-1.0407-0.84553-1.8688-1.8688-1.8688zm3.575 18.119c4.339 0 7.8406 3.5423 7.8406 7.8812 0 4.339-3.5017 7.8406-7.8406 7.8406-4.339 0-7.8406-3.5017-7.8406-7.8406 0-4.339 3.5017-7.8812 7.8406-7.8812z" clip-path="url(#clipPath4008-9-2-8)" display="block" fill="none" filter="url(#filter4012-5-1)" opacity=".553" stroke="#000" stroke-width="2.1187"/>
<rect transform="matrix(.91622 0 0 .94165 4.5692 36.262)" x="2" y="-30" width="92" height="92" rx="3.957" ry="3.957" clip-path="url(#clipPath4156-4-6-9)" fill="url(#linearGradient4967)" opacity=".77"/>
<rect x="4.211" y="78.898" width="84.25" height="4.25" rx="0" ry="4.25" fill="url(#radialGradient4992)" opacity=".75494"/>
<rect transform="rotate(90)" x="3.3977" y="-89.552" width="76.75" height="4.25" rx="0" ry="4.25" fill="url(#radialGradient32123)" opacity=".70751"/>
</svg>
