<?xml version="1.0" encoding="UTF-8"?>
<!-- Created with Inkscape (http://www.inkscape.org/) -->
<svg version="1.1" viewBox="0 0 96 96" xmlns="http://www.w3.org/2000/svg" xmlns:cc="http://creativecommons.org/ns#" xmlns:dc="http://purl.org/dc/elements/1.1/" xmlns:rdf="http://www.w3.org/1999/02/22-rdf-syntax-ns#" xmlns:xlink="http://www.w3.org/1999/xlink">
<defs>
<linearGradient id="linearGradient3737">
<stop stop-color="#fff" offset="0"/>
<stop stop-color="#fff" stop-opacity="0" offset="1"/>
</linearGradient>
<linearGradient id="linearGradient4071-9" x1="6" x2="90" y1="47" y2="47" gradientTransform="matrix(1.1071 0 0 1.1071 -5.1429 -4.0357)" gradientUnits="userSpaceOnUse">
<stop stop-color="#b2babc" offset="0"/>
<stop stop-color="#fff" offset=".25"/>
<stop stop-color="#96a1a4" offset=".5"/>
<stop stop-color="#fbf9f9" offset=".75"/>
<stop stop-color="#b2b9bc" offset="1"/>
</linearGradient>
<linearGradient id="linearGradient4129-3" x1="1.5" x2="94.5" y1="88.172" y2="88.172" gradientTransform="translate(-3.4e-6)" gradientUnits="userSpaceOnUse">
<stop offset="0"/>
<stop stop-opacity=".58824" offset=".1"/>
<stop stop-opacity=".58824" offset=".9"/>
<stop offset="1"/>
</linearGradient>
<radialGradient id="radialGradient7462-6" cx="13.948" cy="44.893" r="43.199" gradientTransform="matrix(.97513 0 0 .049191 33.899 80.167)" gradientUnits="userSpaceOnUse" xlink:href="#linearGradient3737"/>
<radialGradient id="radialGradient7464-7" cx="13.948" cy="44.893" r="43.199" gradientTransform="matrix(.88833 0 0 .049191 31.544 -90.168)" gradientUnits="userSpaceOnUse" xlink:href="#linearGradient3737"/>
<clipPath id="clipPath4156-4-1-9">
<path d="m27.046-55.695-14.214 13.321h0.06127l15.653 21.771 10.231-10.546c-0.2169-1.1522-11.311-23.67-11.732-24.546zm-17.399 16.313-14.888 14.062 21.229 17.515 10.385-10.577zm31.491 12.951-9.7413 9.7136 8.9448 12.458 7.7808-7.555zm-49.84 4.3788-13.754 12.982 26.283 13.846 0.06127-0.0617-0.12253-0.0617 9.8332-10.053-22.301-16.652zm38.015 7.4008-9.8025 9.7753 11.579 9.5594 7.6276-7.4008-8.6691-11.009zm20.187 5.674-7.3825 7.2158 6.1878 8.5418 5.8202-6.1365zm-32.195 6.3215-9.5575 9.4977 13.662 7.185 7.9339-7.6784zm23.312 2.3744-7.1068 6.9383 8.3628 6.9074 5.3608-5.674-0.06127-0.0925-0.0919 0.12335-6.4635-8.2026zm-8.7304 8.5418-7.5051 7.3392 10.354 5.4581c1.3975-1.321 5.6751-6.1229 5.8509-6.3215z" fill="#fff" opacity=".6"/>
</clipPath>
<linearGradient id="linearGradient982" x1="2.7714" x2="50.528" y1="-28.642" y2="14.514" gradientUnits="userSpaceOnUse" xlink:href="#linearGradient3737"/>
<linearGradient id="linearGradient3715-6-4" x1="32.039" x2="32.039" y1="65.216" y2="4.4314" gradientTransform="matrix(.82258 0 0 .82258 7.1452 36.355)" gradientUnits="userSpaceOnUse">
<stop stop-color="#ebebeb" offset="0"/>
<stop stop-color="#ebebeb" offset=".5"/>
<stop stop-color="#d6d6d6" offset=".50287"/>
<stop stop-color="#d6d6d6" offset="1"/>
</linearGradient>
</defs>
<metadata>
<rdf:RDF>
<cc:Work rdf:about="">
<dc:format>image/svg+xml</dc:format>
<dc:type rdf:resource="http://purl.org/dc/dcmitype/StillImage"/>
<dc:title/>
</cc:Work>
</rdf:RDF>
</metadata>
<path d="m89.143 0h-82.286c-3.7988 0-6.8571 3.0583-6.8571 6.8571v82.286c0 3.7989 3.0583 6.8571 6.8571 6.8571h82.286c3.7989 0 6.8571-3.0583 6.8571-6.8571v-82.286c0-3.7989-3.0583-6.8571-6.8571-6.8571z" opacity=".15"/>
<path d="m88.5 0.75h-81c-3.7395 0-6.75 3.0105-6.75 6.75v81c0 3.7395 3.0105 6.75 6.75 6.75h81c3.7395 0 6.75-3.0105 6.75-6.75v-81c0-3.7395-3.0105-6.75-6.75-6.75z" opacity=".15"/>
<path d="m87.857 1.5h-79.714c-3.6801 0-6.6429 2.9627-6.6429 6.6429v79.714c0 3.6801 2.9627 6.6429 6.6429 6.6429h79.714c3.6801 0 6.6429-2.9627 6.6429-6.6429v-79.714c0-3.6801-2.9627-6.6429-6.6429-6.6429z" fill="url(#linearGradient4071-9)"/>
<path d="m11.241 6.3871c-2.8565 0-5.1241 2.2884-5.1241 5.171v68.58c1.0972 1.6845 2.9688 2.8117 5.1241 2.8117h73.787c2.1553 0 4.0269-1.1272 5.1241-2.8117v-68.58c0-2.8826-2.2676-5.171-5.1241-5.171z" fill="#9e6e31" opacity=".95"/>
<path d="m8.7133 5.3101-2.5962 1.2031v3.6094 22.258h2.5962zm2.5962 0v4.2109h2.5962v-4.2109zm5.1923 0v21.055h2.5962v-21.055zm5.1923 0v39.101h2.5962v-39.101zm10.385 0v33.086h2.5962v-33.086zm20.769 0v0.60156h2.5962v-0.60156zm15.577 0v23.461h2.5962v-23.461zm5.1923 0v40.305h2.5962v-40.305zm5.1923 0v17.445h2.5962v-17.445zm5.1923 0v36.695h2.5962v-36.695zm-25.962 0.60156v44.516h2.5962v-44.516zm-46.731 6.0156v44.516h2.5962v-44.516zm36.346 0v44.516h2.5962v-44.516zm-10.385 1.2031v44.516h2.5962v-44.516zm-10.385 3.6094v44.516h2.5962v-44.516zm15.577 2.4062v44.516h2.5962v-44.516zm20.769 6.0156v44.516h2.5962v-44.516zm-46.731 3.6094v44.516h2.5962v-44.516zm36.346 0v44.516h2.5962v-44.516zm15.577 2.4062v44.516h2.5962v-44.516zm-62.308 3.6094v11.43 33.086h2.5962v-44.516zm77.885 9.625v37.898h2.5962v-37.898zm-10.385 6.0156v31.883h2.5962v-31.883zm5.1923 16.844v15.039h2.5962v-15.039z" color="#000000" fill="#fc0" fill-opacity=".036219"/>
<path d="m8.7133 5.3101-2.5962 1.2031v3.6094 31.281h2.5962zm2.5962 0v16.844h2.5962v-16.844zm5.1923 0v39.703h2.5962v-39.703zm5.1923 0v22.859h2.5962v-22.859zm10.385 0v44.516h2.5962v-44.516zm25.962 0v32.484h2.5962v-32.484zm10.385 0v38.5h2.5962v-38.5zm5.1923 0v20.453h2.5962v-20.453zm5.1923 0v3.6094h2.5962v-3.6094zm5.1923 0v26.469h2.5962v-26.469zm-41.538 6.0156v44.516h2.5962v-44.516zm36.346 0v44.516h2.5962v-44.516zm-25.962 1.2031v44.516h2.5962v-44.516zm10.385 3.6094v44.516h2.5962v-44.516zm-15.577 2.4062v44.516h2.5962v-44.516zm-20.769 6.0156v44.516h2.5962v-44.516zm10.385 3.6094v44.516h2.5962v-44.516zm36.346 0v44.516h2.5962v-44.516zm-51.923 2.4062v44.516h2.5962v-44.516zm62.308 3.6094v44.516h2.5962v-44.516zm-77.885 9.625v2.4062 33.687l2.5962 2.4062v-38.5zm10.385 6.0156v32.484h2.5962v-32.484zm-5.1923 16.844v15.641h2.5962v-15.641z" color="#000000" fill="#fc0" fill-opacity=".036219"/>
<path d="m8.7133 5.3101-2.5962 1.2031v3.6094 29.477h2.5962zm2.5962 0v15.039h2.5962v-15.039zm5.1923 0v37.898h2.5962v-37.898zm5.1923 0v21.055h2.5962v-21.055zm10.385 0v42.711h2.5962v-42.711zm25.962 0v30.68h2.5962v-30.68zm10.385 0v36.695h2.5962v-36.695zm5.1923 0v18.648h2.5962v-18.648zm5.1923 0v1.8047h2.5962v-1.8047zm5.1923 0v24.664h2.5962v-24.664zm-41.538 4.2109v44.516h2.5962v-44.516zm36.346 0v44.516h2.5962v-44.516zm-25.962 1.2031v44.516h2.5962v-44.516zm10.385 3.6094v44.516h2.5962v-44.516zm-15.577 2.4062v44.516h2.5962v-44.516zm-20.769 6.0156v44.516h2.5962v-44.516zm10.385 3.6094v44.516h2.5962v-44.516zm36.346 0v44.516h2.5962v-44.516zm-51.923 2.4062v44.516h2.5962v-44.516zm62.308 3.6094v44.516h2.5962v-44.516zm-77.885 9.625v4.2109 33.687l2.5962 2.4062v-40.305zm10.385 6.0156v34.289h2.5962v-34.289zm-5.1923 16.844v17.445h2.5962v-17.445z" color="#000000" fill="#fc0" fill-opacity=".036219"/>
<path d="m8.7133 5.3101-2.5962 1.2031v22.859h2.5962zm2.5962 0v1.2031h2.5962v-1.2031zm5.1923 0v18.047h2.5962v-18.047zm5.1923 0v36.094h2.5962v-36.094zm10.385 0v30.078h2.5962v-30.078zm25.962 0v42.109h2.5962v-42.109zm10.385 0v20.453h2.5962v-20.453zm5.1923 0v37.297h2.5962v-37.297zm5.1923 0v14.437h2.5962v-14.437zm5.1923 0v33.687h2.5962v-33.687zm-72.692 3.6094v44.516h2.5962v-44.516zm36.346 0v44.516h2.5962v-44.516zm-10.385 1.2031v44.516h2.5962v-44.516zm-10.385 3.6094v44.516h2.5962v-44.516zm15.577 2.4062v44.516h2.5962v-44.516zm20.769 6.0156v44.516h2.5962v-44.516zm-46.731 3.6094v44.516h2.5962v-44.516zm36.346 0v44.516h2.5962v-44.516zm15.577 2.4062v44.516h2.5962v-44.516zm-62.308 3.6094v14.437 30.078h2.5962v-44.516zm77.885 9.625v40.906h2.5962v-40.906zm-10.385 6.0156v34.891h2.5962v-34.891zm5.1923 16.844v18.047h2.5962v-18.047z" color="#000000" fill="#fc0" fill-opacity=".036219"/>
<path d="m8.7133 5.3101-2.5962 1.2031v3.6094 35.492h2.5962zm2.5962 0v17.445h2.5962v-17.445zm5.1923 0v34.289h2.5962v-34.289zm20.769 0v11.43h2.5962v-11.43zm10.385 0v7.8203h2.5962v-7.8203zm5.1923 0v13.836h2.5962v-13.836zm15.577 0v36.695h2.5962v-36.695zm10.385 0v30.68h2.5962v-30.68zm-46.731 1.8047v44.516h2.5962v-44.516zm51.923 3.6094v44.516h2.5962v-44.516zm-62.308 2.4062v44.516h2.5962v-44.516zm51.923 1.2031v44.516h2.5962v-44.516zm-15.577 4.8125v44.516h2.5962v-44.516zm-46.731 6.0156v44.516h2.5962v-44.516zm36.346 0v44.516h2.5962v-44.516zm-10.385 1.2031v44.516h2.5962v-44.516zm-10.385 3.6094v44.516h2.5962v-44.516zm15.577 2.4062v44.516h2.5962v-44.516zm20.769 6.0156v43.914h2.5962v-43.914zm-46.731 3.6094v40.305h2.5962v-40.305zm36.346 0v40.305h2.5962v-40.305zm15.577 2.4062v37.898h2.5962v-37.898zm-62.308 3.6094v31.883l2.5962 2.4062v-34.289zm77.885 9.625v24.664h2.5962v-24.664zm-10.385 6.0156v18.648h2.5962v-18.648zm5.1923 16.844v1.8047h2.5962v-1.8047z" color="#000000" fill="#fc0" fill-opacity=".036219"/>
<path d="m11.309 5.3101v30.078h2.5962v-30.078zm10.385 0v36.094h2.5962v-36.094zm15.577 0v13.234h2.5962v-13.234zm5.1923 0v7.2187h2.5962v-7.2187zm10.385 0v10.828h2.5962v-10.828zm20.769 0v33.687h2.5962v-33.687zm5.1923 0v16.844h2.5962v-16.844zm5.1923 0v39.703h2.5962v-39.703zm-25.962 1.2031v44.516h2.5962v-44.516zm-51.923 3.6094v36.094 8.4219h2.5962v-44.516zm62.308 2.4062v44.516h2.5962v-44.516zm-51.923 1.2031v44.516h2.5962v-44.516zm15.577 4.8125v44.516h2.5962v-44.516zm10.385 6.0156v44.516h2.5962v-44.516zm36.346 0v44.516h2.5962v-44.516zm-25.962 1.2031v44.516h2.5962v-44.516zm10.385 3.6094v44.516h2.5962v-44.516zm-15.577 2.4062v44.516h2.5962v-44.516zm-20.769 6.0156v44.516h2.5962v-44.516zm10.385 3.6094v40.906h2.5962v-40.906zm36.346 0v40.906h2.5962v-40.906zm-51.923 2.4062v38.5h2.5962v-38.5zm62.308 3.6094v34.891h2.5962v-34.891zm-77.885 9.625v22.859l2.5962 2.4062v-25.266zm10.385 6.0156v19.25h2.5962v-19.25zm-5.1923 16.844v2.4062h2.5962v-2.4062z" color="#000000" fill="#fc0" fill-opacity=".036219"/>
<path d="m11.309 5.3101-2.5962 1.2031v3.6094 22.258h2.5962zm2.5962 0v4.2109h2.5962v-4.2109zm5.1923 0v21.055h2.5962v-21.055zm5.1923 0v39.101h2.5962v-39.101zm10.385 0v33.086h2.5962v-33.086zm20.769 0v0.60156h2.5962v-0.60156zm15.577 0v23.461h2.5962v-23.461zm5.1923 0v40.305h2.5962v-40.305zm5.1923 0v17.445h2.5962v-17.445zm5.1923 0v36.695h2.5962v-36.695zm-25.962 0.60156v44.516h2.5962v-44.516zm-46.731 6.0156v44.516h2.5962v-44.516zm36.346 0v44.516h2.5962v-44.516zm-10.385 1.2031v44.516h2.5962v-44.516zm-10.385 3.6094v44.516h2.5962v-44.516zm15.577 2.4062v44.516h2.5962v-44.516zm20.769 6.0156v44.516h2.5962v-44.516zm-46.731 3.6094v44.516h2.5962v-44.516zm36.346 0v44.516h2.5962v-44.516zm15.577 2.4062v44.516h2.5962v-44.516zm-62.308 3.6094v11.43 33.086h2.5962v-44.516zm77.885 9.625v37.898h2.5962v-37.898zm-10.385 6.0156v31.883h2.5962v-31.883zm5.1923 16.844v15.039h2.5962v-15.039z" color="#000000" fill="#fc0" fill-opacity=".015018"/>
<path d="m11.309 5.3101-2.5962 1.2031v3.6094 31.281h2.5962zm2.5962 0v16.844h2.5962v-16.844zm5.1923 0v39.703h2.5962v-39.703zm5.1923 0v22.859h2.5962v-22.859zm10.385 0v44.516h2.5962v-44.516zm25.962 0v32.484h2.5962v-32.484zm10.385 0v38.5h2.5962v-38.5zm5.1923 0v20.453h2.5962v-20.453zm5.1923 0v3.6094h2.5962v-3.6094zm5.1923 0v26.469h2.5962v-26.469zm-41.538 6.0156v44.516h2.5962v-44.516zm36.346 0v44.516h2.5962v-44.516zm-25.962 1.2031v44.516h2.5962v-44.516zm10.385 3.6094v44.516h2.5962v-44.516zm-15.577 2.4062v44.516h2.5962v-44.516zm-20.769 6.0156v44.516h2.5962v-44.516zm10.385 3.6094v44.516h2.5962v-44.516zm36.346 0v44.516h2.5962v-44.516zm-51.923 2.4062v44.516h2.5962v-44.516zm62.308 3.6094v44.516h2.5962v-44.516zm-77.885 9.625v2.4062 33.687l2.5962 2.4062v-38.5zm10.385 6.0156v32.484h2.5962v-32.484zm-5.1923 16.844v15.641h2.5962v-15.641z" color="#000000" fill="#fc0" fill-opacity=".015018"/>
<path d="m11.309 5.3101-2.5962 1.2031v3.6094 29.477h2.5962zm2.5962 0v15.039h2.5962v-15.039zm5.1923 0v37.898h2.5962v-37.898zm5.1923 0v21.055h2.5962v-21.055zm10.385 0v42.711h2.5962v-42.711zm25.962 0v30.68h2.5962v-30.68zm10.385 0v36.695h2.5962v-36.695zm5.1923 0v18.648h2.5962v-18.648zm5.1923 0v1.8047h2.5962v-1.8047zm5.1923 0v24.664h2.5962v-24.664zm-41.538 4.2109v44.516h2.5962v-44.516zm36.346 0v44.516h2.5962v-44.516zm-25.962 1.2031v44.516h2.5962v-44.516zm10.385 3.6094v44.516h2.5962v-44.516zm-15.577 2.4062v44.516h2.5962v-44.516zm-20.769 6.0156v44.516h2.5962v-44.516zm10.385 3.6094v44.516h2.5962v-44.516zm36.346 0v44.516h2.5962v-44.516zm-51.923 2.4062v44.516h2.5962v-44.516zm62.308 3.6094v44.516h2.5962v-44.516zm-77.885 9.625v4.2109 33.687l2.5962 2.4062v-40.305zm10.385 6.0156v34.289h2.5962v-34.289zm-5.1923 16.844v17.445h2.5962v-17.445z" color="#000000" fill="#fc0" fill-opacity=".015018"/>
<path d="m8.3075-4.3148-2.5962 1.2031v22.859h2.5962zm2.5962 0v1.2031h2.5962v-1.2031zm5.1923 0v18.047h2.5962v-18.047zm5.1923 0v36.094h2.5962v-36.094zm10.385 0v30.078h2.5962v-30.078zm25.962 0v42.109h2.5962v-42.109zm10.385 0v20.453h2.5962v-20.453zm5.1923 0v37.297h2.5962v-37.297zm5.1923 0v14.437h2.5962v-14.437zm5.1923 0v33.687h2.5962v-33.687zm-72.692 3.6094v44.516h2.5962v-44.516zm36.346 0v44.516h2.5962v-44.516zm-10.385 1.2031v44.516h2.5962v-44.516zm-10.385 3.6094v44.516h2.5962v-44.516zm15.577 2.4062v44.516h2.5962v-44.516zm20.769 6.0156v44.516h2.5962v-44.516zm-46.731 3.6094v44.516h2.5962v-44.516zm36.346 0v44.516h2.5962v-44.516zm15.577 2.4062v44.516h2.5962v-44.516zm-62.308 3.6094v14.437 30.078h2.5962v-44.516zm77.885 9.625v40.906h2.5962v-40.906zm-10.385 6.0156v34.891h2.5962v-34.891zm5.1923 16.844v18.047h2.5962v-18.047z" color="#000000" fill="#fc0" fill-opacity=".015018"/>
<path d="m11.309 5.3101-2.5962 1.2031v3.6094 35.492h2.5962zm2.5962 0v17.445h2.5962v-17.445zm5.1923 0v34.289h2.5962v-34.289zm20.769 0v11.43h2.5962v-11.43zm10.385 0v7.8203h2.5962v-7.8203zm5.1923 0v13.836h2.5962v-13.836zm15.577 0v36.695h2.5962v-36.695zm10.385 0v30.68h2.5962v-30.68zm-46.731 1.8047v44.516h2.5962v-44.516zm51.923 3.6094v44.516h2.5962v-44.516zm-62.308 2.4062v44.516h2.5962v-44.516zm51.923 1.2031v44.516h2.5962v-44.516zm-15.577 4.8125v44.516h2.5962v-44.516zm-46.731 6.0156v44.516h2.5962v-44.516zm36.346 0v44.516h2.5962v-44.516zm-10.385 1.2031v44.516h2.5962v-44.516zm-10.385 3.6094v44.516h2.5962v-44.516zm15.577 2.4062v44.516h2.5962v-44.516zm20.769 6.0156v43.914h2.5962v-43.914zm-46.731 3.6094v40.305h2.5962v-40.305zm36.346 0v40.305h2.5962v-40.305zm15.577 2.4062v37.898h2.5962v-37.898zm-62.308 3.6094v31.883l2.5962 2.4062v-34.289zm77.885 9.625v24.664h2.5962v-24.664zm-10.385 6.0156v18.648h2.5962v-18.648zm5.1923 16.844v1.8047h2.5962v-1.8047z" color="#000000" fill="#fc0" fill-opacity=".015018"/>
<path d="m13.906 5.3101v30.078h2.5962v-30.078zm10.385 0v36.094h2.5962v-36.094zm15.577 0v13.234h2.5962v-13.234zm5.1923 0v7.2187h2.5962v-7.2187zm10.385 0v10.828h2.5962v-10.828zm20.769 0v33.687h2.5962v-33.687zm5.1923 0v16.844h2.5962v-16.844zm5.1923 0v39.703h2.5962v-39.703zm-25.962 1.2031v44.516h2.5962v-44.516zm-51.923 3.6094v36.094 8.4219h2.5962v-44.516zm62.308 2.4062v44.516h2.5962v-44.516zm-51.923 1.2031v44.516h2.5962v-44.516zm15.577 4.8125v44.516h2.5962v-44.516zm10.385 6.0156v44.516h2.5962v-44.516zm36.346 0v44.516h2.5962v-44.516zm-25.962 1.2031v44.516h2.5962v-44.516zm10.385 3.6094v44.516h2.5962v-44.516zm-15.577 2.4062v44.516h2.5962v-44.516zm-20.769 6.0156v44.516h2.5962v-44.516zm10.385 3.6094v40.906h2.5962v-40.906zm36.346 0v40.906h2.5962v-40.906zm-51.923 2.4062v38.5h2.5962v-38.5zm62.308 3.6094v34.891h2.5962v-34.891zm-77.885 9.625v22.859l2.5962 2.4062v-25.266zm10.385 6.0156v19.25h2.5962v-19.25zm-5.1923 16.844v2.4062h2.5962v-2.4062z" color="#000000" fill="#fc0" fill-opacity=".015018"/>
<path d="m9.8251 4.7295c-3.1166 0-5.668 2.5395-5.668 5.646v69.278c0 3.1065 2.5513 5.646 5.668 5.646h76.792c3.1166 0 5.668-2.5395 5.668-5.646v-69.278c0-3.1065-2.5513-5.646-5.668-5.646zm0 2.3194h76.792c1.8881 0 3.352 1.4801 3.352 3.3266v69.278c0 1.8465-1.4639 3.3266-3.352 3.3266h-76.792c-1.8881 0-3.352-1.4801-3.352-3.3266v-69.278c0-1.8465 1.4639-3.3266 3.352-3.3266z" color="#000000" fill="#1f2224" fill-opacity=".75652" style="text-decoration-line:none;text-indent:0;text-transform:none"/>
<path d="m1.5 81.844v6c0 3.6801 2.9761 6.6562 6.6562 6.6562h79.688c3.6801 0 6.6563-2.9761 6.6563-6.6562v-6c0 3.6801-2.9761 6.6562-6.6563 6.6562h-79.688c-3.6801 0-6.6562-2.9761-6.6562-6.6562z" fill="url(#linearGradient4129-3)" opacity=".65818"/>
<rect x="5.375" y="80.25" width="84.25" height="4.25" rx="4.25" ry="4.25" fill="url(#radialGradient7462-6)" opacity=".55"/>
<rect transform="rotate(90)" x="5.56" y="-90.085" width="76.75" height="4.25" rx="4.25" ry="4.25" fill="url(#radialGradient7464-7)" opacity=".669"/>
<g transform="matrix(1.2869 0 0 1.2869 5.1882 -40.211)" stroke-width=".77707">
<path d="m11 40v2h-1l-1 48 1 1h46v-50l-1-1z" color="#000000" fill="#421300" fill-opacity=".16369" stroke-width=".77707"/>
<path d="m9 40h46v50h-46z" color="#000000" fill="url(#linearGradient3715-6-4)" stroke-width=".77707"/>
<path d="m13 44v1 1h1 1v-1-1h-1zm4 2h2v-2h-2zm4 0h2v-2h-2zm4 0h2v-2h-2zm4 0h2v-2h-2zm4 0h2v-2h-2zm4 0h2v-2h-2zm4 0h2v-2h-2zm4 0h2v-2h-2zm4-1v1h1 1v-1-1h-1-1zm-36 5h2v-2h-2zm36 0h2v-2h-2zm-36 4h2v-2h-2zm36 0h2v-2h-2zm-36 4h2v-2h-2zm36 0h2v-2h-2zm-36 4h2v-2h-2zm36 0h2v-2h-2zm-36 4h2v-2h-2zm36 0h2v-2h-2zm-36 4h2v-2h-2zm36 0h2v-2h-2zm-36 4h2v-2h-2zm36 0h2v-2h-2zm-36 4h2v-2h-2zm36 0h2v-2h-2zm-36 4h2v-2h-2zm36 0h2v-2h-2zm-36 3v1h1 1v-1-1h-1-1zm4 1h2v-2h-2zm4 0h2v-2h-2zm4 0h2v-2h-2zm4 0h2v-2h-2zm4 0h2v-2h-2zm4 0h2v-2h-2zm4 0h2v-2h-2zm4 0h2v-2h-2zm4-1v1h1 1v-1-1h-1-1z" color="#000000" fill="#1e2428" fill-opacity=".81304" style="text-decoration-line:none;text-indent:0;text-transform:none"/>
<g transform="translate(0,32)" color="#000000" fill-opacity=".50717">
<path d="m33.161 47.978c-2.481-1.4363 1.6076-0.9791 1.6e-5 2e-6m-0.41206-0.96572c1.0947 0.88117 0.1513-1.416 0 0zm-1.2036 0.9643c-1.9162-1.7801 1.5813-1.6245 0 0zm-1.3934 0c-1.9162-1.7801 1.5813-1.6245 0 0zm-1.2532-0.02832c-1.3243-1.7709 1.6188-1.067 0 0zm0-1.7828c-0.2843-0.97576 0.88126 0.51569 0 0zm-1.2135 1.8125c-2.4434-3.1519 3.8109-0.4977 0 0zm0.0878-0.28178c1.3461-0.90632-1.4782-0.52434 0 0zm-2.4455 0.25205c-0.40568-1.8109 2.1902-0.86047 0 0zm-0.91758 0.02973c-2.481-1.4363 1.6076-0.97908 1.6e-5 2e-6m-0.41206-0.96572c1.0947 0.88117 0.1513-1.416 0 0zm-2.0858 1.5831c-1.9624-3.5158 4.3629-1.63 0 0zm0.74766-0.90059c1.4737-1.0459-1.7241-0.51537 0 0zm-1.644 0.28179c-1.9162-1.7801 1.5813-1.6246 0 0zm-1.0224-0.15009c-2.6901-0.02975 1.5147-2.0455 0 0zm-2.1877 0.1501c-1.8595-2.3597 1.7729-1.2215 0 0zm19.87-7.2528c-1.0373-0.26998 0.91032-0.43451 0 0zm-1.0549 0.0028c-1.906-1.7715 1.5745-1.6297 2.2e-5 -1e-5m-1.2532-0.02831c-1.3243-1.7709 1.6188-1.0669 4e-6 2.8e-5m0-1.7828c-0.2843-0.97576 0.88126 0.51569 0 0zm-0.45454 1.804c-1.5438-1.0496 0.9281-2.1022-7e-6 3.7e-5m-1.4627 0.0085c-2.481-1.4363 1.6076-0.9791 1.6e-5 2e-6m-0.41206-0.96572c1.0947 0.88117 0.1513-1.416 0 0zm-1.256 0.93598c-1.4293-2.0021 2.419-1.9089 0 0zm-1.6808 0.40073c-0.72329-1.2055 1.6458-0.11279 4.8e-5 -5e-6m-0.64859-0.37099c-2.1685-1.2636 1.6773-1.831 0 0zm-1.5987 0c-2.481-1.4363 1.6076-0.9791 1.6e-5 2e-6m-0.41206-0.96572c1.0947 0.88117 0.1513-1.416 0 0zm-2.0858 0.93598c-0.35644-1.7186 2.2313-0.62298 0.06584-0.10609l-0.06584 0.10603m-1.9739 0.02974c-1.7962-2.6971 3.1226-0.68101 0 0zm0.10053-0.26337c1.2614 0.34517-0.51329-0.96063 1e-6 6.7e-5m-1.028 0.25481c-1.7655-0.88011 1.0138-2.2128-2e-5 -2.5e-5m-1.753-0.0212c-1.2015-1.9229 2.3699-1.1476-2.8e-5 2.9e-5m-1.0563-0.25208c1.3529-0.91898-1.4903-0.50746 0 0zm-0.0099 0.28179c-2.2038-2.0311 2.8366-0.7466 0 0zm-2.4469 0.61739c-1.9624-3.5158 4.3629-1.63 0 0zm0.74766-0.90059c1.4737-1.0459-1.7241-0.51537 0 0zm21.675-2.9708c-0.72329-1.2055 1.6458-0.11279 4.8e-5 -5e-6m-0.64858-0.37099c-2.1685-1.2636 1.6773-1.8311 0 0zm-1.8904 0c-1.7962-2.6971 3.1226-0.68101 0 0zm0.10053-0.26337c1.2614 0.34518-0.51329-0.96063 2e-6 6.7e-5m-2.1722 0.26189c-1.9162-1.7801 1.5813-1.6245 0 0zm-1.4146 0.0014c-2.481-1.4363 1.6076-0.97909 1.7e-5 2e-6m-0.41206-0.96572c1.0947 0.88117 0.1513-1.416 0 0zm-1.0422 0.96572c-2.1685-1.2636 1.6773-1.831 0 0zm-1.4373-0.02974c-1.3243-1.7709 1.6188-1.0669 4e-6 2.3e-5m0-1.7828c-0.2843-0.97576 0.88126 0.5157 0 0zm-1.1399 1.7828c-1.2014-1.9229 2.3699-1.1476-3.8e-5 3.2e-5m-0.51822 0.02121c-1.7655-0.8801 1.0138-2.2128-1e-5 -3.5e-5m-1.0677 3.7e-5c-1.5438-1.0496 0.9281-2.1022-7e-6 3.7e-5m-1.0705-0.14306c-2.6901-0.02975 1.5147-2.0455 0 0zm-2.7046 0.52251c-0.72329-1.2055 1.6458-0.11279 4.8e-5 -5e-6m-0.41919-0.37949c-1.7655-0.88011 1.0138-2.2128-1e-5 -3.3e-5m-1.5392 0.0085c-2.481-1.4363 1.6076-0.97908 1.6e-5 2e-6m-0.41206-0.96572c1.0947 0.88117 0.1513-1.416 0 0zm-3.0147 0.93598c0.16169-2.27 3.0461-0.04767 0.24732-0.09765l-0.24732 0.09768m-1.2093 0.02975c-1.7962-2.6971 3.1226-0.681 0 0zm0.10053-0.26337c1.2614 0.34518-0.51329-0.96063 1e-6 6.7e-5m23.333-3.3702c-1.7655-0.8801 1.0138-2.2128-1e-5 -3.7e-5m-1.3778-0.0212c-1.3243-1.7709 1.6188-1.067 0 0zm0-1.7828c-0.2843-0.97576 0.88126 0.51569 0 0zm-0.90483 1.8111c-1.9162-1.7801 1.5813-1.6246 0 0zm-2.158 0c-1.9162-1.7801 1.5813-1.6246 0 0zm-1.0224-0.15011c-2.6901-0.02975 1.5147-2.0455 0 0zm-2.9014 0.7689c-1.9624-3.5158 4.3629-1.63 0 0zm0.74766-0.90059c1.4737-1.0459-1.7241-0.51537 0 0zm-3.4551 0.25347c0.16162-2.27 3.0461-0.04774 0.24731-0.09769l-0.24732 0.09767m-0.91757 0.02975c-2.481-1.4363 1.6076-0.9791 1.6e-5 2e-6m-0.41206-0.96572c1.0947 0.88117 0.1513-1.416 0 0zm-0.81281 0.95722c-1.7655-0.88009 1.0138-2.2128-1e-5 -3.7e-5m-2.2033 0.37953c-0.72329-1.2055 1.6458-0.11279 4.8e-5 -5e-6m-0.79868-0.37241c-1.906-1.7715 1.5745-1.6297 2.2e-5 -1e-5m-1.0224-0.15009c-2.6901-0.02975 1.5147-2.0455 0 0zm-1.6398 0.14303c-1.7655-0.8801 1.0138-2.2128-1e-5 -3.3e-5m-1.5392 0.0085c-2.481-1.4363 1.6076-0.97908 1.6e-5 2e-6m-0.41206-0.96572c1.0947 0.88117 0.1513-1.416 0 0zm-3.0147 0.93602c0.16162-2.2701 3.0461-0.04774 0.24732-0.09768zm28.136-3.625c-1.3243-1.7709 1.6188-1.067 0 0zm0-1.7828c-0.2843-0.97576 0.88126 0.51569 0 0zm-0.90483 1.8111c-1.9162-1.7801 1.5813-1.6246 0 0zm-1.2532-0.02832c-1.3243-1.7709 1.6188-1.067 0 0zm0-1.7828c-0.2843-0.97576 0.88126 0.51569 0 0zm-1.787 1.7828c-0.40568-1.8109 2.1902-0.86047 0 0zm-1.661 0.02832c-1.9162-1.7801 1.5813-1.6245 0 0zm-1.0224-0.1501c-2.6901-0.02974 1.5147-2.0455 0 0zm-1.5689 0.14302c-1.5438-1.0496 0.9281-2.1022-7e-6 3.7e-5m-0.9912-3.7e-5c-1.5438-1.0496 0.9281-2.1022-6e-6 3.7e-5m-1.4627 0.0085c-2.481-1.4363 1.6076-0.97908 1.6e-5 2e-6m-0.41206-0.96572c1.0947 0.88117 0.1513-1.416 0 0zm-1.2036 0.9643c-1.9162-1.7801 1.5813-1.6246 0 0zm-1.7063 0.0014c-1.7636-2.4938 2.9826-0.59943 0 0zm0.10053-0.26337c1.2614 0.34517-0.51329-0.96063 1e-6 6.7e-5m-2.284 0.23357c-1.011-2.195 2.5577-1.1841 9.1e-5 -1.9e-5m-1.7361 0c-1.8063-3.4144 3.8884-1.1239 0 0zm0.64996-1.0648c1.4261-0.76041-1.3939-0.32521-1.6e-5 -4e-5m-1.9498 1.0904c-1.0373-0.26991 0.91027-0.43457 0 0zm-0.91475-0.02549c-1.3243-1.7709 1.6188-1.067 0 0zm0-1.7828c-0.2843-0.97576 0.88126 0.5157 0 0zm-0.90483 1.8111c-1.906-1.7715 1.5745-1.6297 2.1e-5 -1e-5m-1.2532-0.02831c-1.3243-1.7709 1.6188-1.067 0 0zm0-1.7828c-0.2843-0.97576 0.88126 0.51569 0 0zm-0.45454 1.804c-1.5438-1.0496 0.9281-2.1022-7e-6 3.7e-5m-1.3013-0.02128c-1.3243-1.7709 1.6188-1.067 0 0zm0-1.7828c-0.2843-0.97576 0.88126 0.5157 0 0zm-0.75474 1.8125c-2.1685-1.2636 1.6773-1.831 0 0zm-1.8904 0c-1.7636-2.4938 2.9826-0.59943 0 0zm0.10053-0.26337c1.2614 0.34518-0.51329-0.96063 0 6.7e-5m-1.4712 0.23357c-1.4293-2.0021 2.419-1.9089 0 0zm26.746-3.5953c-1.7962-2.6971 3.1226-0.68101 0 0zm0.10053-0.26337c1.2614 0.34517-0.51329-0.96063 1e-6 6.7e-5m-0.95722 0.25481c-1.5438-1.0496 0.92811-2.1022-1.5e-5 3.7e-5m-0.9912-3.7e-5c-1.5438-1.0496 0.92811-2.1022-1.5e-5 3.7e-5m-1.0705-0.14305c-2.6901-0.02974 1.5147-2.0455 0 0zm-3.2908 0.12178c-0.25848-2.729 3.0307-0.27233 1.2e-5 4.3e-5m-1.3098 0.02549c-1.0373-0.26998 0.91032-0.43451 0 0zm-0.67544-0.0042c-1.7655-0.87997 1.0138-2.2129 0-8.3e-5m-1.3778-0.0212c-1.3243-1.7709 1.6188-1.067 0 0zm0-1.7828c-0.2843-0.97576 0.88126 0.51569 0 0zm-0.45454 1.804c-1.5438-1.0496 0.9281-2.1022-7e-6 3.7e-5m-1.4627 0.0085c-2.481-1.4363 1.6076-0.9791 1.6e-5 2e-6m-0.41207-0.96576c1.0947 0.88117 0.1513-1.416 0 0zm-2.5559 1.6327c-1.9923-4.3033 3.7909-1.224-5e-6 -2.9e-5m0.37241-0.95581c1.5429-0.89412-1.716-0.62 0 0zm-2.4624 0.25912c-0.40568-1.8109 2.1902-0.86046 0 0zm-0.75615 0c-1.3243-1.7709 1.6188-1.067 0 0zm0-1.7828c-0.2843-0.97576 0.88126 0.51569 0 0zm-0.75474 1.8125c-2.1685-1.2636 1.6773-1.8311 0 0zm-1.5774-0.0014c-1.906-1.7715 1.5745-1.6297 2.1e-5 -1e-5m-1.2532-0.02831c-1.3244-1.7709 1.6188-1.0671 4e-6 -2.3e-5m0-1.7828c-0.2843-0.97576 0.88126 0.51569 0 0zm-1.787 2.4299c-1.9624-3.5158 4.3629-1.63 0 0zm0.74766-0.90059c1.4737-1.0459-1.7241-0.51537 0 0zm-1.5038 0.25347c-1.3243-1.7709 1.6188-1.067 0 0zm0-1.7828c-0.2843-0.97576 0.88126 0.51569 0 0zm-1.2135 1.8125c-2.4434-3.1519 3.8109-0.49769 0 0zm0.0878-0.28178c1.3461-0.90632-1.4782-0.52434 0 0zm-1.8762 0.28178c-1.7962-2.6971 3.1226-0.68101 0 0zm0.10053-0.26337c1.2614 0.34518-0.51329-0.96063 1e-6 6.7e-5m24.65-3.3914c-1.2014-1.9229 2.3699-1.1476-3.7e-5 3.2e-5m-0.91895 0.0297c-2.481-1.4363 1.6076-0.97908 1.6e-5 2e-6m-0.41206-0.96572c1.0947 0.88117 0.1513-1.416 0 0zm-0.83263 0.81421c-2.6901-0.02975 1.5147-2.0455 0 0zm-1.6397 0.14302c-1.7655-0.8801 1.0138-2.2128-1e-5 -3.3e-5m-1.5392 0.0085c-2.481-1.4363 1.6076-0.97908 1.6e-5 2e-6m-0.41206-0.96572c1.0947 0.88117 0.1513-1.416 0 0zm-0.81281 0.95722c-1.7754-0.88275 1.0242-2.2131 0 0zm-1.3679 0.0085c-2.1685-1.2636 1.6773-1.831 0 0zm-1.5987 0c-2.481-1.4363 1.6076-0.97908 1.6e-5 2e-6m-0.41206-0.96572c1.0947 0.88117 0.1513-1.416 0 0zm-1.2036 0.9643c-1.9162-1.7801 1.5813-1.6246 0 0zm-2.2755-0.02832c-0.35629-1.7187 2.2313-0.6228 0.06584-0.10601l-0.06584 0.10603m-1.0549-0.25205c1.3529-0.91898-1.4903-0.50746 0 0zm-0.0099 0.28179c-2.2038-2.0311 2.8366-0.7466 0 0zm-1.4033 0c-2.1685-1.2636 1.6773-1.831 0 0zm-2.2628 0.371c-0.72325-1.2055 1.6458-0.1128 4.8e-5 5e-6m-0.41919-0.3795c-1.7655-0.88011 1.0138-2.2128-1e-5 -3.3e-5m-1.5392 0.0085c-2.481-1.4363 1.6076-0.97908 1.6e-5 2e-6m-0.41206-0.96572c1.0947 0.88117 0.1513-1.416 0 0zm-3.0147 0.93598c0.1617-2.27 3.0461-0.04764 0.24732-0.09764l-0.24732 0.09768m-1.2093 0.02974c-1.7962-2.6971 3.1226-0.68101 0 0zm0.10053-0.26337c1.2614 0.34518-0.51329-0.96063 1e-6 6.7e-5m28.941-3.3702c-1.7655-0.8801 1.0138-2.2128-1e-5 -3.7e-5m-1.3778-0.0212c-1.3243-1.7709 1.6188-1.067 0 0zm0-1.7828c-0.2843-0.97576 0.88126 0.51569 0 0zm-0.90483 1.8111c-1.9162-1.7801 1.5813-1.6246 0 0zm-2.3931-0.02832c-1.2015-1.9229 2.37-1.1476-3.8e-5 2.8e-5m-1.0563-0.25209c1.3529-0.91898-1.4903-0.50746 0 0zm-0.0099 0.28179c-2.2038-2.0311 2.8366-0.7466 0 0zm-1.1088-0.0085c-1.5438-1.0496 0.9281-2.1022-7e-6 3.7e-5m-1.6001-0.27332c1.3529-0.91898-1.4903-0.50746 0 0zm-0.0099 0.28179c-2.2038-2.0311 2.8366-0.7466 0 0zm-1.8734 0c-2.4434-3.1519 3.8109-0.49769 0 0zm0.0878-0.28178c1.3461-0.90632-1.4782-0.52434 0 0zm-4.139 0.25205c0.16215-2.2697 3.0449-0.04809 0.24812-0.09642zm-0.52534-0.12178c-2.6901-0.02974 1.5147-2.0455 0 0zm-2.0192 0.1501c-1.9162-1.7801 1.5813-1.6245 0 0zm-2.2755 0.6188c-1.9624-3.5158 4.3629-1.63 0 0zm0.74766-0.90059c1.4737-1.0459-1.7241-0.51537 0 0zm-1.5038 0.25347c-1.3243-1.7709 1.6188-1.067 0 0zm0-1.7828c-0.2843-0.97576 0.88126 0.51569 0 0zm-3.4806 1.7828c0.16308-2.2699 3.0439-0.04744 0.24807-0.09606zm-0.91758 0.02974c-2.481-1.4363 1.6076-0.97909 1.7e-5 2e-6m-0.41206-0.96572c1.0947 0.88117 0.1513-1.416 0 0zm-1.4274 0.93598c-1.2015-1.9229 2.37-1.1476-3.7e-5 2.8e-5m-1.0563-0.25208c1.3529-0.91898-1.4903-0.50746 0 0zm-0.0099 0.28179c-2.2038-2.0311 2.8366-0.7466 0 0zm-2.1509-0.02974c-1.9949-2.7894 2.262-0.94566 0 0z" color="#000000" fill="#0c64a0" fill-opacity=".97531"/>
</g>
</g>
<rect transform="matrix(1.0692 0 0 1.0477 4.2952 38.479)" x="2" y="-30" width="75.966" height="69.024" rx="3.957" ry="3.957" clip-path="url(#clipPath4156-4-1-9)" fill="url(#linearGradient982)" opacity=".65"/>
</svg>
