<?xml version="1.0" encoding="UTF-8"?>
<!-- Created with Inkscape (http://www.inkscape.org/) -->
<svg version="1.1" viewBox="0 0 96 96" xmlns="http://www.w3.org/2000/svg" xmlns:cc="http://creativecommons.org/ns#" xmlns:dc="http://purl.org/dc/elements/1.1/" xmlns:rdf="http://www.w3.org/1999/02/22-rdf-syntax-ns#" xmlns:xlink="http://www.w3.org/1999/xlink">
<title>Lila-HD-Icon-Theme</title>
<script xlink:href=""/>
<defs>
<linearGradient id="linearGradient5187" x1="6" x2="90" y1="47" y2="47" gradientTransform="matrix(1.1393 0 0 1.1393 -8.3221 -17.728)" gradientUnits="userSpaceOnUse">
<stop stop-color="#b7b7b7" offset="0"/>
<stop stop-color="#fff" offset=".25"/>
<stop stop-color="#9d9d9d" offset=".5"/>
<stop stop-color="#fafafa" offset=".75"/>
<stop stop-color="#b7b7b7" offset="1"/>
</linearGradient>
<radialGradient id="radialGradient5189" cx="158" cy="6.2132" r="41" gradientTransform="matrix(0 1.8467 -2.3222 0 60.792 -294.05)" gradientUnits="userSpaceOnUse">
<stop stop-color="#fff" offset="0"/>
<stop stop-color="#fff" stop-opacity="0" offset="1"/>
</radialGradient>
<radialGradient id="radialGradient5191" cx="48" cy="-27" r="42" gradientTransform="matrix(-1.2215 0 0 -.9969 105 -38.948)" gradientUnits="userSpaceOnUse">
<stop stop-color="#fff" offset="0"/>
<stop stop-color="#fff" offset=".8"/>
<stop stop-color="#fff" stop-opacity="0" offset="1"/>
</radialGradient>
<linearGradient id="linearGradient5193" x1="-94" x2="-10.188" y1="82.984" y2="82.984" gradientTransform="matrix(1.1393 0 0 1.0129 105.61 -6.9698)" gradientUnits="userSpaceOnUse">
<stop offset="0"/>
<stop stop-opacity=".58824" offset=".1"/>
<stop stop-opacity=".58824" offset=".9"/>
<stop offset="1"/>
</linearGradient>
<linearGradient id="linearGradient5195" x1="3.0218" x2="79.99" y1="-24.69" y2="25.856" gradientTransform="translate(4.1818 21.273)" gradientUnits="userSpaceOnUse">
<stop stop-color="#cbdbfc" stop-opacity=".99608" offset="0"/>
<stop stop-color="#fafbff" stop-opacity=".99608" offset=".52925"/>
<stop stop-color="#d4defa" offset="1"/>
</linearGradient>
<linearGradient id="linearGradient5197" x1="6" x2="90" y1="47" y2="47" gradientTransform="matrix(1.1393 0 0 1.1393 -8.3221 -17.728)" gradientUnits="userSpaceOnUse">
<stop stop-color="#fff" stop-opacity="0" offset="0"/>
<stop stop-color="#fff" stop-opacity=".85135" offset=".036815"/>
<stop stop-color="#fff" stop-opacity="0" offset=".065061"/>
<stop stop-color="#fff" stop-opacity="0" offset=".94494"/>
<stop stop-color="#fff" stop-opacity=".85135" offset=".96582"/>
<stop stop-color="#fff" stop-opacity="0" offset="1"/>
</linearGradient>
<linearGradient id="linearGradient5199" x1="2.4652" x2="59.378" y1=".27862" y2=".27862" gradientTransform="matrix(1.0034 0 0 1.005 31.853 29.291)" gradientUnits="userSpaceOnUse">
<stop stop-color="#fff" offset="0"/>
<stop stop-color="#fff" stop-opacity="0" offset="1"/>
</linearGradient>
</defs>
<metadata>
<rdf:RDF>
<cc:Work rdf:about="">
<dc:format>image/svg+xml</dc:format>
<dc:type rdf:resource="http://purl.org/dc/dcmitype/StillImage"/>
<dc:title>Lila-HD-Icon-Theme</dc:title>
<dc:date>2015-2019</dc:date>
<dc:creator>
<cc:Agent>
<dc:title>Cristian Pozzessere  == ilnanny ==</dc:title>
</cc:Agent>
</dc:creator>
<dc:subject>
<rdf:Bag>
<rdf:li>ilnanny</rdf:li>
<rdf:li>lila_hd</rdf:li>
<rdf:li>lila-hd</rdf:li>
<rdf:li>lila hd icon theme</rdf:li>
<rdf:li>Lila-HD-Icon-Theme lila hd icon lila icon</rdf:li>
</rdf:Bag>
</dc:subject>
<dc:coverage>CC-BY-SA</dc:coverage>
<dc:description>Playing with Inkscape on Gnu/Linux O. S.</dc:description>
<dc:contributor>
<cc:Agent>
<dc:title>In the night, alone like a dog.</dc:title>
</cc:Agent>
</dc:contributor>
<cc:license rdf:resource="http://creativecommons.org/licenses/by-sa/4.0/"/>
</cc:Work>
<cc:License rdf:about="http://creativecommons.org/licenses/by-sa/4.0/">
<cc:permits rdf:resource="http://creativecommons.org/ns#Reproduction"/>
<cc:permits rdf:resource="http://creativecommons.org/ns#Distribution"/>
<cc:requires rdf:resource="http://creativecommons.org/ns#Notice"/>
<cc:requires rdf:resource="http://creativecommons.org/ns#Attribution"/>
<cc:permits rdf:resource="http://creativecommons.org/ns#DerivativeWorks"/>
<cc:requires rdf:resource="http://creativecommons.org/ns#ShareAlike"/>
</cc:License>
</rdf:RDF>
</metadata>
<g transform="translate(0,32)">
<g transform="translate(1.6364 -19.818)">
<path d="m87.378-12.032h-82.029c-3.787 0-6.8357 3.0487-6.8357 6.8357v82.029c0 3.787 3.0487 6.8357 6.8357 6.8357h82.029c3.787 0 6.8357-3.0487 6.8357-6.8357v-82.029c0-3.787-3.0487-6.8357-6.8357-6.8357z" fill="url(#linearGradient5187)"/>
<path d="m5.3494-10.893c-3.1755 0-5.6964 2.5209-5.6964 5.6964v75.549c1.2198 1.8556 3.3004 3.0974 5.6964 3.0974h82.029c2.396 0 4.4766-1.2418 5.6964-3.0974v-75.549c0-3.1755-2.5209-5.6964-5.6964-5.6964z" fill="url(#radialGradient5189)" opacity=".2"/>
<path d="m5.3494-12.032c-3.787 0-6.8357 3.0487-6.8357 6.8357v17.089h1.1393v-17.089c0-3.1755 2.5209-5.6964 5.6964-5.6964h82.029c3.1755 0 5.6964 2.5209 5.6964 5.6964v17.089h1.1393v-17.089c0-3.787-3.0487-6.8357-6.8357-6.8357z" fill="url(#radialGradient5191)" opacity=".45"/>
<path d="m-1.4864 70.501v7.0902c0 3.3669 3.0487 6.0773 6.8357 6.0773h82.029c3.787 0 6.8357-2.7105 6.8357-6.0773v-7.0902c0 3.3669-3.0487 6.0773-6.8357 6.0773h-82.029c-3.787 0-6.8357-2.7105-6.8357-6.0773z" fill="url(#linearGradient5193)" opacity=".46965"/>
<ellipse cx="28.079" cy="72.527" rx="3.4436" ry="3.1329" fill="#1c1c1c" opacity=".71"/>
<ellipse cx="28.079" cy="72.32" rx="2.8653" ry="2.6822" fill="#fff"/>
<ellipse cx="28.079" cy="72.32" rx="1.9422" ry="1.8181" fill="#114751"/>
<ellipse cx="62.197" cy="72.527" rx="3.4436" ry="3.1329" fill="#1c1c1c" opacity=".71"/>
<ellipse cx="62.197" cy="72.32" rx="2.8653" ry="2.6822" fill="#fff"/>
<ellipse cx="62.197" cy="72.32" rx="1.9422" ry="1.8181" fill="#114751"/>
<rect x="39.02" y="71.476" width="12.718" height="3.252" rx="1.1521" ry="1.1538" fill="#0c2f31" fill-opacity=".90455" opacity=".75097" stroke="#fff" stroke-width=".502"/>
<path d="m6.1446 45.95c-1.8851 0-3.6495 0.91815-4.7591 2.2718v15.089c0 2.4045 2.1226 4.3402 4.7591 4.3402h80.905c2.6365 0 4.7591-1.9357 4.7591-4.3402v-15.089c-1.1096-1.3537-2.874-2.2718-4.7591-2.2718h-80.905zm0 3.2552h80.905c1.3594 0 2.3796 0.93033 2.3796 2.1701v11.936c0 1.2398-1.0201 2.1701-2.3796 2.1701h-80.905c-1.3594 0-2.3796-0.93033-2.3796-2.1701v-11.936c0-1.2398 1.0201-2.1701 2.3796-2.1701z" color="#000000" opacity=".02" style="block-progression:tb;text-indent:0;text-transform:none"/>
<path d="m6.1446-8.3028h80.905c2.6365 0 4.7591 1.9357 4.7591 4.3402v67.273c0 2.4045-2.1226 4.3402-4.7591 4.3402h-80.905c-2.6365 0-4.7591-1.9357-4.7591-4.3402v-67.273c0-2.4045 2.1226-4.3402 4.7591-4.3402z" color="#000000" fill="url(#linearGradient5195)" opacity=".865"/>
<path d="m7.0887-7.5016h79.017c2.575 0 4.648 1.8912 4.648 4.2405v65.727c0 2.3492-2.073 4.2405-4.648 4.2405h-79.017c-2.575 0-4.648-1.8912-4.648-4.2405v-65.727c0-2.3492 2.073-4.2405 4.648-4.2405z" color="#000000" fill="none" stroke="#000" stroke-opacity=".7758" stroke-width="2.2904"/>
<path d="m87.378-12.032h-82.029c-3.787 0-6.8357 3.0487-6.8357 6.8357v82.029c0 3.787 3.0487 6.8357 6.8357 6.8357h82.029c3.787 0 6.8357-3.0487 6.8357-6.8357v-82.029c0-3.787-3.0487-6.8357-6.8357-6.8357z" fill="url(#linearGradient5197)" opacity=".72794"/>
<path d="m56.979 3.3293c1.2905 0.85973 2.5581 2.0335 3.7591 3.5815l1.7121 0.23843c-1.7522-1.953-3.6183-3.1726-5.4712-3.82zm-37.913 2.8333c-0.05011 0.15856-0.08939 0.31407-0.13697 0.47179l26.106 18.783 3.617 2.0343zm31.617 0.27648c-3.1802 0.01848-5.6601 1.9942-7.0819 4.4262-0.53327 2.2006-0.33639 4.6116 0.89792 6.917l1.0805 1.6969c-2.6784-4.1747 2.4264-14.114 10.668-11.204-2.0113-1.3005-3.8856-1.8462-5.5651-1.8364zm8.1066 3.0971c0.57844 0.37043 1.1677 0.79642 1.7679 1.2987h21.616l-9.3191-1.2987zm-37.408 2.7521c-0.74282 4.7417-0.42825 9.3879 4.9664 14.029 0.84363 0.6335 1.8032 1.0448 2.7648 1.4052-0.05415-0.03847-0.11418-0.06656-0.16741-0.10653-5.3378-4.5925-5.6967-9.1899-4.9842-13.88zm37.86 4.3552c-1.0719 1.0112-1.5895 4.4451-1.1795 7.6881 1.3097 2.9212 3.0444 6.1554 4.4693 9.631 0.44251 1.0794 0.89022 2.1809 1.0907 3.6475 0.20706 1.8679 0.21675 3.1984-0.104 4.7001-1.2937 6.0569-6.0635 9.2303-7.7363 10.293-5.833 3.2757-10.988 3.1086-16.059 2.2625l-0.89792 1.9353v6.8967l3.4953-7.5334c5.0701 0.846 10.225 1.0132 16.059-2.2625 1.6728-1.0628 6.4426-4.2361 7.7363-10.293 0.32075-1.5017 0.31106-2.8322 0.104-4.7001-0.20047-1.4666-0.64818-2.5681-1.0907-3.6475-3.152-7.6885-7.9331-14.286-5.8872-18.618zm-35.13 12.129c1.3059 5.7701 3.9043 8.1752 7.0413 9.1846-1.9493-1.4129-3.5205-3.8058-4.4439-7.8859l19.65 3.1655c-3.3888-0.80499-6.0365-1.5007-8.6748-2.2778zm2.26 9.0045c2.0026 1.3973 4.7643 2.1882 8.6875 2.2828l2.2397-0.16234c-1.698-0.12692-3.3297-0.43059-4.8041-1.1389l-0.03298 0.0025c-2.4573-0.05927-4.445-0.4006-6.0901-0.98416z" fill="#fff" fill-opacity=".38538" fill-rule="evenodd" stroke-width="0"/>
<path d="m39.722 54.866-3.4936 7.5331v-11.027c15.931 1.8156 27.294-7.8798 20.085-24.952-1.5866-3.7577-1.1378-9.6905 0.33046-11.076-2.0459 4.3319 2.7357 10.929 5.8877 18.618 0.44251 1.0794 0.88875 2.1803 1.0892 3.6468 0.20707 1.8679 0.21865 3.1995-0.1021 4.7012-1.2937 6.0569-6.0652 9.2311-7.738 10.294-5.833 3.2757-10.989 3.108-16.059 2.262z" fill="#2a7fff" fill-rule="evenodd" stroke-width="0"/>
<path d="m42.983 18.181c-3.12-4.863 4.3158-17.568 14.977-8.6463h21.616l-18.836-2.6248c-9.8763-12.73-24.254-0.54677-18.836 9.5726z" fill="#1a1a1a" fill-rule="evenodd" stroke-width="0"/>
<path d="m46.054 26.153-29.587-21.289c-2.7038 8.5557-1.7503 15.892 6.0047 20.962l-4.2578-1.0918c1.5565 8.5213 3.7345 13.775 14.247 14.029l2.2381-0.16376c-4.6559-0.34802-8.8157-1.9859-10.59-9.8258l19.652 3.1661c-5.3104-1.2615-8.8054-2.2324-13.287-3.716-1.3773-0.45598-2.8819-0.97165-4.1269-1.9066-5.3947-4.6414-5.7103-9.2873-4.9675-14.029z" fill="#2a7fff" fill-rule="evenodd" stroke-width="0"/>
<path d="m49.605-1.145c-7.093 0.14182-12.727 8.0741-9.002 15.031l0.60368 0.94865c-3.1758-9.7108 10.186-19.969 19.531-7.924l0.20038 0.0279h17.339l-18.838-2.6253c-3.0863-3.9782-6.6099-5.523-9.834-5.4585zm-34.435 3.4116c-1.9089 6.0406-1.9813 11.468 0.86241 15.924-1.4532-3.9098-1.1159-8.4152 0.43628-13.327l17.738 12.764 10.549 5.9278zm40.175 10.481c-1.4683 1.3852-1.9163 7.3166-0.32974 11.074 7.2084 17.072-4.1559 26.77-20.086 24.954v11.026l1.2987-2.8003v-5.6285c15.931 1.8156 27.295-7.8815 20.086-24.954-0.98701-2.3376-1.1834-5.5137-0.83958-7.9164-0.70371-2.1945-0.89511-4.1339-0.12936-5.7553zm-33.532 7.3609c0.74322 2.0758 2.1339 4.1433 4.5352 6.2093 0.2837 0.21304 0.58423 0.39696 0.89031 0.57071l15.224 2.4528c-5.3104-1.2615-8.8049-2.2323-13.286-3.716-1.3773-0.45598-2.8818-0.96998-4.1269-1.9049-1.3979-1.2027-2.4508-2.407-3.2366-3.612zm-4.898 2.0292c0.66816 3.658 1.4552 6.7081 2.9626 9.0248-0.72085-1.8553-1.2212-4.0036-1.6639-6.4275l4.2588 1.0907c-1.5187-0.99279-2.7689-2.0752-3.7895-3.234zm8.0356 9.4586c0.70493 1.8556 1.5954 3.2278 2.6253 4.2385 1.0743 0.18683 2.2636 0.29783 3.5866 0.32974l2.2397-0.16233c-3.2868-0.24568-6.3239-1.1465-8.4516-4.4059z" fill="#00050c" fill-opacity=".19934" fill-rule="evenodd" stroke-width="0"/>
<path d="m34.327-8.4053c8.3294 26.184 16.985 51.751 25.766 75.954h26.584c2.6365 0 4.7591-1.9357 4.7591-4.3402v-67.273c0-2.4045-2.1225-4.3402-4.7591-4.3402h-52.35z" color="#000000" fill="url(#linearGradient5199)" opacity=".371"/>
</g>
</g>
</svg>
