<?xml version="1.0" encoding="UTF-8"?>
<!-- Created with Inkscape (http://www.inkscape.org/) -->
<svg version="1.1" viewBox="0 0 96 96" xmlns="http://www.w3.org/2000/svg" xmlns:cc="http://creativecommons.org/ns#" xmlns:dc="http://purl.org/dc/elements/1.1/" xmlns:rdf="http://www.w3.org/1999/02/22-rdf-syntax-ns#" xmlns:xlink="http://www.w3.org/1999/xlink">
<defs>
<linearGradient id="linearGradient4672">
<stop stop-color="#727e7f" offset="0"/>
<stop stop-color="#eaeced" offset=".40357"/>
<stop stop-color="#f6f7f8" offset=".56775"/>
<stop stop-color="#e6e9ea" offset=".71368"/>
<stop stop-color="#828b8c" offset="1"/>
</linearGradient>
<filter id="filter18944-3" color-interpolation-filters="sRGB">
<feGaussianBlur stdDeviation="0.2358929"/>
</filter>
<filter id="filter18574-7" color-interpolation-filters="sRGB">
<feGaussianBlur stdDeviation="2.7808487"/>
</filter>
<filter id="filter898-3" x="-.011576" y="-.012447" width="1.0232" height="1.0249" color-interpolation-filters="sRGB">
<feGaussianBlur stdDeviation="0.29569863"/>
</filter>
<linearGradient id="linearGradient910-6" x1="80.782" x2="84.413" y1="56.714" y2="56.714" gradientTransform="matrix(.99022 0 0 .98559 .085485 .88715)" gradientUnits="userSpaceOnUse" xlink:href="#linearGradient4672"/>
<linearGradient id="linearGradient912-0" x1="82.52" x2="86.15" y1="-10.46" y2="-10.46" gradientTransform="matrix(.99022 0 0 .98559 .085485 .88715)" gradientUnits="userSpaceOnUse" xlink:href="#linearGradient4672"/>
<filter id="filter18821-9" x="-.19731" y="-.016554" width="1.3946" height="1.0331" color-interpolation-filters="sRGB">
<feGaussianBlur stdDeviation="0.96167774"/>
</filter>
<linearGradient id="linearGradient908-6" x1="10.226" x2="13.857" y1="57.293" y2="57.293" gradientTransform="matrix(.99022 0 0 .98559 .085485 .88715)" gradientUnits="userSpaceOnUse" xlink:href="#linearGradient4672"/>
<linearGradient id="linearGradient914-0" x1="9.6024" x2="13.233" y1="-10.319" y2="-10.319" gradientTransform="matrix(.99022 0 0 .98559 .085485 .88715)" gradientUnits="userSpaceOnUse" xlink:href="#linearGradient4672"/>
<filter id="filter916" x="-.043538" y="-.037626" width="1.0871" height="1.0753" color-interpolation-filters="sRGB">
<feGaussianBlur stdDeviation="2.121197"/>
</filter>
</defs>
<metadata>
<rdf:RDF>
<cc:Work rdf:about="">
<dc:format>image/svg+xml</dc:format>
<dc:type rdf:resource="http://purl.org/dc/dcmitype/StillImage"/>
<dc:title/>
<dc:date>2017</dc:date>
<dc:creator>
<cc:Agent>
<dc:title>Cristian Pozzessere "ilnanny"</dc:title>
</cc:Agent>
</dc:creator>
<dc:subject>
<rdf:Bag>
<rdf:li>Global language</rdf:li>
</rdf:Bag>
</dc:subject>
<dc:description>Playing with Inkscape on Gnu/Linux O. S.</dc:description>
<dc:contributor>
<cc:Agent>
<dc:title>In the night, alone like a dog.</dc:title>
</cc:Agent>
</dc:contributor>
<cc:license rdf:resource="http://creativecommons.org/licenses/by-sa/4.0/"/>
</cc:Work>
<cc:License rdf:about="http://creativecommons.org/licenses/by-sa/4.0/">
<cc:permits rdf:resource="http://creativecommons.org/ns#Reproduction"/>
<cc:permits rdf:resource="http://creativecommons.org/ns#Distribution"/>
<cc:requires rdf:resource="http://creativecommons.org/ns#Notice"/>
<cc:requires rdf:resource="http://creativecommons.org/ns#Attribution"/>
<cc:permits rdf:resource="http://creativecommons.org/ns#DerivativeWorks"/>
<cc:requires rdf:resource="http://creativecommons.org/ns#ShareAlike"/>
</cc:License>
</rdf:RDF>
</metadata>
<g transform="translate(0 -1026.5)">
<g transform="matrix(1.1716 0 0 1.1051 -8.2078 1055.4)">
<g transform="matrix(1.3193 0 0 1.3987 -15.352 -35.477)">
<g transform="matrix(.87465 0 0 .87465 6.0169 .40442)">
<g transform="matrix(.86662 0 0 .81742 6.7352 27.744)">
<path d="m86.917-16.401c-0.81356-0.0375-2.0306 0.50166-3.303 0.50166h-72.219c-2.2621 0-4.1222-1.419-4.0838 1.4458l0.92604 69.027c0.038426 2.8647 1.31 5.4956 3.5721 5.4956h71.731c2.2621 0 3.274-2.6311 3.3179-5.4956l1.0614-69.314c0.0192-1.2532-0.3692-1.6308-1.002-1.66zm-75.438 5.4608a1.6724 1.5178 0 0 1 1.6721 1.5172 1.6724 1.5178 0 0 1-1.6721 1.5189 1.6724 1.5178 0 0 1-1.6722-1.5189 1.6724 1.5178 0 0 1 1.6722-1.5172zm72.115 0a1.5042 1.5178 0 0 1 1.5054 1.5172 1.5042 1.5178 0 0 1-1.5054 1.5189 1.5042 1.5178 0 0 1-1.5038-1.5189 1.5042 1.5178 0 0 1 1.5038-1.5172zm-1.72 66.207a1.5042 1.5178 0 0 1 1.5038 1.5172 1.5042 1.5178 0 0 1-1.5038 1.5172 1.5042 1.5178 0 0 1-1.5038-1.5172 1.5042 1.5178 0 0 1 1.5038-1.5172zm-69.791 0.44592a1.5883 1.5178 0 0 1 1.588 1.5189 1.5883 1.5178 0 0 1-1.588 1.5172 1.5883 1.5178 0 0 1-1.588-1.5172 1.5883 1.5178 0 0 1 1.588-1.5189z" fill="#e9af76"/>
<path d="m11.396-15.893h72.218c2.262 0 4.349-1.719 4.3051 1.1674l-1.062 69.844c-0.04385 2.8863-1.0555 5.5376-3.3174 5.5376h-71.728c-2.262 0-3.5342-2.651-3.5726-5.5376l-0.92592-69.555c-0.038424-2.8866 1.821-1.4563 4.083-1.4563z" fill="none" opacity=".7886" stroke="#764514" stroke-linecap="round" stroke-linejoin="bevel" stroke-width=".98112"/>
<path transform="matrix(-.017455 .14851 -.26267 -.048842 276.18 29.27)" d="m13.344 722.33 1.291 30.983-51.638 3.8729" fill="none" filter="url(#filter18944-3)" opacity=".59762" stroke="#703f00" stroke-linejoin="round" stroke-width="3"/>
<path transform="matrix(.16227 0 0 .21064 4.0716 -161.25)" d="m111.9 747.14h309.54c9.6952 0 17.836 8.1208 17.5 18.194l-7.6564 229.7c-0.33575 10.074-4.5238 19.332-14.219 19.332h-299.69c-9.6951 0-14.977-9.2579-15.313-19.332l-7.6564-229.7c-0.33576-10.074 7.8051-18.194 17.5-18.194z" fill="none" filter="url(#filter18574-7)" stroke="#fff" stroke-linecap="round" stroke-linejoin="round" stroke-width="3.8117"/>
<path transform="matrix(.017366 -.12741 .24424 .045577 -167.32 20.358)" d="m13.344 722.33 1.291 30.983-51.638 3.8729" fill="none" filter="url(#filter18944-3)" opacity=".8524" stroke="#703f00" stroke-linejoin="round" stroke-width="3"/>
<path transform="matrix(.98471 0 0 1.0704 .51676 -4.3025)" d="m20.143-1.8295h55.076c1.7251 0 3.1736 1.7326 3.1139 3.8819l-1.3623 49.009c-0.05974 2.1493-0.80493 4.1244-2.53 4.1244h-53.325c-1.7251 0-2.6649-1.9752-2.7246-4.1244l-1.3623-49.009c-0.05974-2.1493 1.3888-3.8819 3.1139-3.8819z" fill="none" filter="url(#filter898-3)" opacity=".77" stroke="#603600" stroke-linecap="round" stroke-linejoin="round" stroke-width="1.2649"/>
<path d="m18.861 49.627 57.088 0.28875m-57.31-10.972 57.532 0.57749m-57.977-11.55h58.421m-58.865-12.994 58.865 0.28875m-58.865-11.261 59.31 0.28875" fill="none" stroke="#000" stroke-linejoin="round" stroke-width=".58854"/>
<path transform="matrix(.17207 0 0 .23936 14.749 -187.38)" d="m13.344 722.33 1.291 30.983-51.638 3.8729" fill="none" filter="url(#filter18944-3)" opacity=".65556" stroke="#703f00" stroke-linejoin="round" stroke-width="3"/>
<path transform="matrix(-.17181 -.012291 .0094554 -.22333 72.084 221.5)" d="m13.344 722.33 1.291 30.983-51.638 3.8729" fill="none" filter="url(#filter18944-3)" opacity=".8524" stroke="#703f00" stroke-linejoin="round" stroke-width="3"/>
<ellipse cx="81.875" cy="56.784" rx="1.5042" ry="1.5178" fill="url(#linearGradient910-6)" stroke="#4f2f01" stroke-linejoin="round" stroke-width=".58522"/>
<ellipse cx="83.595" cy="-9.4222" rx="1.5042" ry="1.5178" fill="url(#linearGradient912-0)" stroke="#4f2f01" stroke-linejoin="round" stroke-width=".58522"/>
<path transform="matrix(.023641 .13675 -.20313 .010637 184.04 -49.479)" d="m232.71 641.51c-0.86063 1.7213-1.7213 3.4426-2.5819 5.1638 0 0.43032 0.13608 0.88272 0 1.291-0.30428 0.91284-0.98667 1.6691-1.291 2.5819-0.13608 0.40824 0.19244 0.90607 0 1.291-0.27216 0.54431-1.0188 0.74664-1.291 1.291-0.19244 0.38489 0 0.86064 0 1.291v1.291c0 1.7213 0.28298 3.466 0 5.1638-0.15819 0.94913-1.1022 1.6384-1.291 2.5819 0 9.8482 0.57734-1.0184-1.291 6.4548-0.20874 0.83494 0 1.7213 0 2.5819v7.7457 7.7457 2.5819c0 0.43032-0.10437 0.87349 0 1.291 0.33004 1.3202 0.96091 2.5527 1.291 3.8729 0.10437 0.41747-0.19244 0.90607 0 1.291 0.27216 0.54432 1.0985 0.71362 1.291 1.291 0.27216 0.81647 0 1.7213 0 2.5819 0 0.43032-0.19244 0.90607 0 1.291 0.54431 1.0886 2.0376 1.4933 2.5819 2.5819 0.19202 0.38402 0 7.2027 0 7.7457 0 0.43032-0.19244 0.90607 0 1.291 0.27216 0.54432 1.0188 0.74664 1.291 1.291 0.38489 0.76977-0.27216 1.7654 0 2.5819 0.30428 0.91284 1.1022 1.6384 1.291 2.5819 0.42197 2.1098-0.42196 4.345 0 6.4548 0.26688 1.3344 1.0241 2.5385 1.291 3.8729 0.16879 0.84392 0 1.7213 0 2.5819v7.7457c0 0.67507 0.16972 4.8244 0 5.1638-0.54431 1.0886-2.0376 1.4933-2.5819 2.5819-0.19245 0.38488 0.19244 0.90606 0 1.291-0.34474 0.68948-3.1932 3.1932-3.8729 3.8729l-1.291 1.291c-0.43031 0.43031-1.0188 0.74664-1.291 1.291-0.14467 0.28934 0 4.8571 0 5.1638v7.7457c0 1.291 0.25317 2.607 0 3.8729-0.18871 0.94354-0.9336 1.6885-1.291 2.5819-1.427 3.5676-1.291 2.7377-1.291 5.1638" fill="none" filter="url(#filter18821-9)" stroke="#fdc995" stroke-width="1px"/>
<path transform="matrix(.023641 .13675 -.20313 .010637 183.58 -50.456)" d="m236.71 641.51c-0.86063 1.7213-1.7213 3.4426-2.5819 5.1638 0 0.43032 0.13608 0.88272 0 1.291-0.30428 0.91284-0.98667 1.6691-1.291 2.5819-0.13608 0.40824 0.19244 0.90607 0 1.291-0.27216 0.54431-1.0188 0.74664-1.291 1.291-0.19244 0.38489 0 0.86064 0 1.291v1.291c0 1.7213 0.28298 3.466 0 5.1638-0.15819 0.94913-1.1022 1.6384-1.291 2.5819 0 9.8482 0.57734-1.0184-1.291 6.4548-0.20874 0.83494 0 1.7213 0 2.5819v7.7457 7.7457 2.5819c0 0.43032-0.10437 0.87349 0 1.291 0.33004 1.3202 0.96091 2.5527 1.291 3.8729 0.10437 0.41747-0.19244 0.90607 0 1.291 0.27216 0.54432 1.0985 0.71362 1.291 1.291 0.27216 0.81647 0 1.7213 0 2.5819 0 0.43032-0.19244 0.90607 0 1.291 0.54431 1.0886 2.0376 1.4933 2.5819 2.5819 0.19202 0.38402 0 7.2027 0 7.7457 0 0.43032-0.19244 0.90607 0 1.291 0.27216 0.54432 1.0188 0.74664 1.291 1.291 0.38489 0.76977-0.27216 1.7654 0 2.5819 0.30428 0.91284 1.1022 1.6384 1.291 2.5819 0.42197 2.1098-0.42196 4.345 0 6.4548 0.26688 1.3344 1.0241 2.5385 1.291 3.8729 0.16879 0.84392 0 1.7213 0 2.5819v7.7457c0 0.67507 0.16972 4.8244 0 5.1638-0.54431 1.0886-2.0376 1.4933-2.5819 2.5819-0.19245 0.38488 0.19244 0.90606 0 1.291-0.34474 0.68948-3.1932 3.1932-3.8729 3.8729l-1.291 1.291c-0.43031 0.43031-1.0188 0.74664-1.291 1.291-0.14467 0.28934 0 4.8571 0 5.1638v7.7457c0 1.291 0.25317 2.607 0 3.8729-0.18871 0.94354-0.9336 1.6885-1.291 2.5819-1.427 3.5676-1.291 2.7377-1.291 5.1638" fill="#653a10" fill-opacity=".23288" filter="url(#filter18821-9)" stroke="#130900" stroke-width="1px"/>
<path d="m18.122-24.693h58.713c0.99578 0 4.0234 0.10576 4.2864 0.40262l6.4552 7.2857c0.26303 0.29685-0.84836 0.55973-1.8441 0.55973h-76.371c-0.99579 0-2.0349-0.26033-1.7507-0.55973l6.9144-7.2857c0.28414-0.2994 2.6011-0.40262 3.5969-0.40262z" fill="#c37120" fill-opacity=".57255" stroke="#7e5a28" stroke-width=".49156"/>
<path d="m35.838-5.6331h34.958c1.5656 0 2.8803 1.7101 2.826 3.8314l-1.2364 48.371c-0.0542 2.1213-0.73053 4.0708-2.2962 4.0708h-26.113c-1.6544-11.641-6.1308-39.137-8.1383-56.274z" fill="#fff" fill-opacity=".25397"/>
<path d="m26.772 36.443 9.1986 9.7523 11.498-12.19 11.498 12.19 9.1986-9.7523-11.498-12.19 11.498-12.19-9.1986-9.7523-11.498 12.19-11.498-12.19-9.1986 9.7523 11.498 12.19z" fill="none" opacity=".649" stroke="#170d00" stroke-width="1.7576"/>
<path d="m26.772 36.443 9.1986 9.7523 11.498-12.19 11.498 12.19 9.1986-9.7523-11.498-12.19 11.498-12.19-9.1986-9.7523-11.498 12.19-11.498-12.19-9.1986 9.7523 11.498 12.19z" fill="#ad0513"/>
<path d="m36.883-5.3092h37.304c1.6707 0 3.0736 1.8248 3.0157 4.0885l-1.3194 51.618c-0.05786 2.2637-0.77956 4.344-2.4503 4.344h-27.866c-1.7654-12.422-6.5422-41.764-8.6845-60.05z" fill="#fff" fill-opacity=".25397"/>
<ellipse cx="12.009" cy="57.354" rx="1.5042" ry="1.5178" fill="url(#linearGradient908-6)" stroke="#4f2f01" stroke-linejoin="round" stroke-width=".58522"/>
<ellipse cx="11.391" cy="-9.2836" rx="1.5042" ry="1.5178" fill="url(#linearGradient914-0)" stroke="#4f2f01" stroke-linejoin="round" stroke-width=".58522"/>
<path transform="matrix(-.12959 .024946 -.01008 -.21435 49.453 170.82)" d="m236.71 641.51c-0.86063 1.7213-1.7213 3.4426-2.5819 5.1638 0 0.43032 0.13608 0.88272 0 1.291-0.30428 0.91284-0.98667 1.6691-1.291 2.5819-0.13608 0.40824 0.19244 0.90607 0 1.291-0.27216 0.54431-1.0188 0.74664-1.291 1.291-0.19244 0.38489 0 0.86064 0 1.291v1.291c0 1.7213 0.28298 3.466 0 5.1638-0.15819 0.94913-1.1022 1.6384-1.291 2.5819 0 9.8482 0.57734-1.0184-1.291 6.4548-0.20874 0.83494 0 1.7213 0 2.5819v7.7457 7.7457 2.5819c0 0.43032-0.10437 0.87349 0 1.291 0.33004 1.3202 0.96091 2.5527 1.291 3.8729 0.10437 0.41747-0.19244 0.90607 0 1.291 0.27216 0.54432 1.0985 0.71362 1.291 1.291 0.27216 0.81647 0 1.7213 0 2.5819 0 0.43032-0.19244 0.90607 0 1.291 0.54431 1.0886 2.0376 1.4933 2.5819 2.5819 0.19202 0.38402 0 7.2027 0 7.7457 0 0.43032-0.19244 0.90607 0 1.291 0.27216 0.54432 1.0188 0.74664 1.291 1.291 0.38489 0.76977-0.27216 1.7654 0 2.5819 0.30428 0.91284 1.1022 1.6384 1.291 2.5819 0.42197 2.1098-0.42196 4.345 0 6.4548 0.26688 1.3344 1.0241 2.5385 1.291 3.8729 0.16879 0.84392 0 1.7213 0 2.5819v7.7457c0 0.67507 0.16972 4.8244 0 5.1638-0.54431 1.0886-2.0376 1.4933-2.5819 2.5819-0.19245 0.38488 0.19244 0.90606 0 1.291-0.34474 0.68948-3.1932 3.1932-3.8729 3.8729l-1.291 1.291c-0.43031 0.43031-1.0188 0.74664-1.291 1.291-0.14467 0.28934 0 4.8571 0 5.1638v7.7457c0 1.291 0.25317 2.607 0 3.8729-0.18871 0.94354-0.9336 1.6885-1.291 2.5819-1.427 3.5676-1.291 2.7377-1.291 5.1638" fill="#653a10" fill-opacity=".23288" filter="url(#filter18821-9)" stroke="#130900" stroke-width="1px"/>
<path transform="matrix(-.12959 .024946 -.01008 -.21435 119.94 181.21)" d="m236.71 641.51c-0.86063 1.7213-1.7213 3.4426-2.5819 5.1638 0 0.43032 0.13608 0.88272 0 1.291-0.30428 0.91284-0.98667 1.6691-1.291 2.5819-0.13608 0.40824 0.19244 0.90607 0 1.291-0.27216 0.54431-1.0188 0.74664-1.291 1.291-0.19244 0.38489 0 0.86064 0 1.291v1.291c0 1.7213 0.28298 3.466 0 5.1638-0.15819 0.94913-1.1022 1.6384-1.291 2.5819 0 9.8482 0.57734-1.0184-1.291 6.4548-0.20874 0.83494 0 1.7213 0 2.5819v7.7457 7.7457 2.5819c0 0.43032-0.10437 0.87349 0 1.291 0.33004 1.3202 0.96091 2.5527 1.291 3.8729 0.10437 0.41747-0.19244 0.90607 0 1.291 0.27216 0.54432 1.0985 0.71362 1.291 1.291 0.27216 0.81647 0 1.7213 0 2.5819 0 0.43032-0.19244 0.90607 0 1.291 0.54431 1.0886 2.0376 1.4933 2.5819 2.5819 0.19202 0.38402 0 7.2027 0 7.7457 0 0.43032-0.19244 0.90607 0 1.291 0.27216 0.54432 1.0188 0.74664 1.291 1.291 0.38489 0.76977-0.27216 1.7654 0 2.5819 0.30428 0.91284 1.1022 1.6384 1.291 2.5819 0.42197 2.1098-0.42196 4.345 0 6.4548 0.26688 1.3344 1.0241 2.5385 1.291 3.8729 0.16879 0.84392 0 1.7213 0 2.5819v7.7457c0 0.67507 0.16972 4.8244 0 5.1638-0.54431 1.0886-2.0376 1.4933-2.5819 2.5819-0.19245 0.38488 0.19244 0.90606 0 1.291-0.34474 0.68948-3.1932 3.1932-3.8729 3.8729l-1.291 1.291c-0.43031 0.43031-1.0188 0.74664-1.291 1.291-0.14467 0.28934 0 4.8571 0 5.1638v7.7457c0 1.291 0.25317 2.607 0 3.8729-0.18871 0.94354-0.9336 1.6885-1.291 2.5819-1.427 3.5676-1.291 2.7377-1.291 5.1638" fill="#653a10" fill-opacity=".23288" filter="url(#filter18821-9)" stroke="#130900" stroke-width="1px"/>
<path transform="matrix(-.0009028 -.093907 -.18476 .045162 175.23 -30.851)" d="m236.71 641.51c-0.86063 1.7213-1.7213 3.4426-2.5819 5.1638 0 0.43032 0.13608 0.88272 0 1.291-0.30428 0.91284-0.98667 1.6691-1.291 2.5819-0.13608 0.40824 0.19244 0.90607 0 1.291-0.27216 0.54431-1.0188 0.74664-1.291 1.291-0.19244 0.38489 0 0.86064 0 1.291v1.291c0 1.7213 0.28298 3.466 0 5.1638-0.15819 0.94913-1.1022 1.6384-1.291 2.5819 0 9.8482 0.57734-1.0184-1.291 6.4548-0.20874 0.83494 0 1.7213 0 2.5819v7.7457 7.7457 2.5819c0 0.43032-0.10437 0.87349 0 1.291 0.33004 1.3202 0.96091 2.5527 1.291 3.8729 0.10437 0.41747-0.19244 0.90607 0 1.291 0.27216 0.54432 1.0985 0.71362 1.291 1.291 0.27216 0.81647 0 1.7213 0 2.5819 0 0.43032-0.19244 0.90607 0 1.291 0.54431 1.0886 2.0376 1.4933 2.5819 2.5819 0.19202 0.38402 0 7.2027 0 7.7457 0 0.43032-0.19244 0.90607 0 1.291 0.27216 0.54432 1.0188 0.74664 1.291 1.291 0.38489 0.76977-0.27216 1.7654 0 2.5819 0.30428 0.91284 1.1022 1.6384 1.291 2.5819 0.42197 2.1098-0.42196 4.345 0 6.4548 0.26688 1.3344 1.0241 2.5385 1.291 3.8729 0.16879 0.84392 0 1.7213 0 2.5819v7.7457c0 0.67507 0.16972 4.8244 0 5.1638-0.54431 1.0886-2.0376 1.4933-2.5819 2.5819-0.19245 0.38488 0.19244 0.90606 0 1.291-0.34474 0.68948-3.1932 3.1932-3.8729 3.8729l-1.291 1.291c-0.43031 0.43031-1.0188 0.74664-1.291 1.291-0.14467 0.28934 0 4.8571 0 5.1638v7.7457c0 1.291 0.25317 2.607 0 3.8729-0.18871 0.94354-0.9336 1.6885-1.291 2.5819-1.427 3.5676-1.291 2.7377-1.291 5.1638" fill="#653a10" fill-opacity=".23288" filter="url(#filter18821-9)" stroke="#130900" stroke-width="1px"/>
<path transform="matrix(-.00074283 .077268 -.15202 -.03716 177.93 -11.342)" d="m236.71 641.51c-0.86063 1.7213-1.7213 3.4426-2.5819 5.1638 0 0.43032 0.13608 0.88272 0 1.291-0.30428 0.91284-0.98667 1.6691-1.291 2.5819-0.13608 0.40824 0.19244 0.90607 0 1.291-0.27216 0.54431-1.0188 0.74664-1.291 1.291-0.19244 0.38489 0 0.86064 0 1.291v1.291c0 1.7213 0.28298 3.466 0 5.1638-0.15819 0.94913-1.1022 1.6384-1.291 2.5819 0 9.8482 0.57734-1.0184-1.291 6.4548-0.20874 0.83494 0 1.7213 0 2.5819v7.7457 7.7457 2.5819c0 0.43032-0.10437 0.87349 0 1.291 0.33004 1.3202 0.96091 2.5527 1.291 3.8729 0.10437 0.41747-0.19244 0.90607 0 1.291 0.27216 0.54432 1.0985 0.71362 1.291 1.291 0.27216 0.81647 0 1.7213 0 2.5819 0 0.43032-0.19244 0.90607 0 1.291 0.54431 1.0886 2.0376 1.4933 2.5819 2.5819 0.19202 0.38402 0 7.2027 0 7.7457 0 0.43032-0.19244 0.90607 0 1.291 0.27216 0.54432 1.0188 0.74664 1.291 1.291 0.38489 0.76977-0.27216 1.7654 0 2.5819 0.30428 0.91284 1.1022 1.6384 1.291 2.5819 0.42197 2.1098-0.42196 4.345 0 6.4548 0.26688 1.3344 1.0241 2.5385 1.291 3.8729 0.16879 0.84392 0 1.7213 0 2.5819v7.7457c0 0.67507 0.16972 4.8244 0 5.1638-0.54431 1.0886-2.0376 1.4933-2.5819 2.5819-0.19245 0.38488 0.19244 0.90606 0 1.291-0.34474 0.68948-3.1932 3.1932-3.8729 3.8729l-1.291 1.291c-0.43031 0.43031-1.0188 0.74664-1.291 1.291-0.14467 0.28934 0 4.8571 0 5.1638v7.7457c0 1.291 0.25317 2.607 0 3.8729-0.18871 0.94354-0.9336 1.6885-1.291 2.5819-1.427 3.5676-1.291 2.7377-1.291 5.1638" fill="#653a10" fill-opacity=".23288" filter="url(#filter18821-9)" stroke="#130900" stroke-width="1px"/>
<path transform="matrix(-.038844 -.0017544 .025088 -.04036 11.434 7.6973)" d="m236.71 641.51c-0.86063 1.7213-1.7213 3.4426-2.5819 5.1638 0 0.43032 0.13608 0.88272 0 1.291-0.30428 0.91284-0.98667 1.6691-1.291 2.5819-0.13608 0.40824 0.19244 0.90607 0 1.291-0.27216 0.54431-1.0188 0.74664-1.291 1.291-0.19244 0.38489 0 0.86064 0 1.291v1.291c0 1.7213 0.28298 3.466 0 5.1638-0.15819 0.94913-1.1022 1.6384-1.291 2.5819 0 9.8482 0.57734-1.0184-1.291 6.4548-0.20874 0.83494 0 1.7213 0 2.5819v7.7457 7.7457 2.5819c0 0.43032-0.10437 0.87349 0 1.291 0.33004 1.3202 0.96091 2.5527 1.291 3.8729 0.10437 0.41747-0.19244 0.90607 0 1.291 0.27216 0.54432 1.0985 0.71362 1.291 1.291 0.27216 0.81647 0 1.7213 0 2.5819 0 0.43032-0.19244 0.90607 0 1.291 0.54431 1.0886 2.0376 1.4933 2.5819 2.5819 0.19202 0.38402 0 7.2027 0 7.7457 0 0.43032-0.19244 0.90607 0 1.291 0.27216 0.54432 1.0188 0.74664 1.291 1.291 0.38489 0.76977-0.27216 1.7654 0 2.5819 0.30428 0.91284 1.1022 1.6384 1.291 2.5819 0.42197 2.1098-0.42196 4.345 0 6.4548 0.26688 1.3344 1.0241 2.5385 1.291 3.8729 0.16879 0.84392 0 1.7213 0 2.5819v7.7457c0 0.67507 0.16972 4.8244 0 5.1638-0.54431 1.0886-2.0376 1.4933-2.5819 2.5819-0.19245 0.38488 0.19244 0.90606 0 1.291-0.34474 0.68948-3.1932 3.1932-3.8729 3.8729l-1.291 1.291c-0.43031 0.43031-1.0188 0.74664-1.291 1.291-0.14467 0.28934 0 4.8571 0 5.1638v7.7457c0 1.291 0.25317 2.607 0 3.8729-0.18871 0.94354-0.9336 1.6885-1.291 2.5819-1.427 3.5676-1.291 2.7377-1.291 5.1638" fill="#653a10" fill-opacity=".23288" filter="url(#filter916)" stroke="#130900" stroke-width="1px"/>
</g>
</g>
</g>
<g transform="translate(-.004435 .40177)">
<g stroke="#076c96" stroke-width=".17576">
<g stroke="#076c96" stroke-width=".17576"></g>
</g>
</g>
</g>
</g>
</svg>
