<?xml version="1.0" encoding="UTF-8"?>
<!-- Created with Inkscape (http://www.inkscape.org/) -->
<svg version="1.1" viewBox="0 0 96 96" xmlns="http://www.w3.org/2000/svg" xmlns:cc="http://creativecommons.org/ns#" xmlns:dc="http://purl.org/dc/elements/1.1/" xmlns:rdf="http://www.w3.org/1999/02/22-rdf-syntax-ns#" xmlns:xlink="http://www.w3.org/1999/xlink">
<defs>
<linearGradient id="linearGradient4071" x1="6" x2="90" y1="47" y2="47" gradientTransform="matrix(1.1071 0 0 1.1071 -4.9939 -3.6207)" gradientUnits="userSpaceOnUse">
<stop stop-color="#adb9c1" offset="0"/>
<stop stop-color="#fff" offset=".25"/>
<stop stop-color="#90a2aa" offset=".5"/>
<stop stop-color="#f9fafb" offset=".75"/>
<stop stop-color="#adb9c1" offset="1"/>
</linearGradient>
<linearGradient id="linearGradient4129" x1="1.5" x2="94.5" y1="88.172" y2="88.172" gradientTransform="translate(.14895 .41503)" gradientUnits="userSpaceOnUse" xlink:href="#linearGradient3832-0-6-1-1"/>
<linearGradient id="linearGradient3832-0-6-1-1">
<stop offset="0"/>
<stop stop-opacity=".58824" offset=".1"/>
<stop stop-opacity=".58824" offset=".9"/>
<stop offset="1"/>
</linearGradient>
<radialGradient id="radialGradient7462" cx="13.948" cy="44.893" r="43.199" gradientTransform="matrix(.97513 0 0 .049191 34.048 80.582)" gradientUnits="userSpaceOnUse" xlink:href="#linearGradient3737"/>
<linearGradient id="linearGradient3737">
<stop stop-color="#fff" offset="0"/>
<stop stop-color="#fff" stop-opacity="0" offset="1"/>
</linearGradient>
<radialGradient id="radialGradient7464" cx="13.948" cy="44.893" r="43.199" gradientTransform="matrix(.88833 0 0 .049191 31.96 -90.317)" gradientUnits="userSpaceOnUse" xlink:href="#linearGradient3737"/>
<linearGradient id="linearGradient4767" x1="2.7714" x2="50.528" y1="-28.642" y2="14.514" gradientUnits="userSpaceOnUse" xlink:href="#linearGradient3737"/>
<clipPath id="clipPath4156-4-1">
<path d="m27.046-55.695-14.214 13.321h0.06127l15.653 21.771 10.231-10.546c-0.2169-1.1522-11.311-23.67-11.732-24.546zm-17.399 16.313-14.888 14.062 21.229 17.515 10.385-10.577zm31.491 12.951-9.7413 9.7136 8.9448 12.458 7.7808-7.555zm-49.84 4.3788-13.754 12.982 26.283 13.846 0.06127-0.0617-0.12253-0.0617 9.8332-10.053-22.301-16.652zm38.015 7.4008-9.8025 9.7753 11.579 9.5594 7.6276-7.4008-8.6691-11.009zm20.187 5.674-7.3825 7.2158 6.1878 8.5418 5.8202-6.1365zm-32.195 6.3215-9.5575 9.4977 13.662 7.185 7.9339-7.6784zm23.312 2.3744-7.1068 6.9383 8.3628 6.9074 5.3608-5.674-0.06127-0.0925-0.0919 0.12335-6.4635-8.2026zm-8.7304 8.5418-7.5051 7.3392 10.354 5.4581c1.3975-1.321 5.6751-6.1229 5.8509-6.3215z" fill="#fff" opacity=".6"/>
</clipPath>
<linearGradient id="linearGradient4002" x1="38" x2="38" y1="24" y2="72" gradientUnits="userSpaceOnUse" xlink:href="#linearGradient3832-0-6-1-1"/>
</defs>
<metadata>
<rdf:RDF>
<cc:Work rdf:about="">
<dc:format>image/svg+xml</dc:format>
<dc:type rdf:resource="http://purl.org/dc/dcmitype/StillImage"/>
<dc:title/>
<dc:date>2017</dc:date>
<dc:creator>
<cc:Agent>
<dc:title>Cristian Pozzessere "ilnanny"</dc:title>
</cc:Agent>
</dc:creator>
<dc:subject>
<rdf:Bag>
<rdf:li>Global language</rdf:li>
</rdf:Bag>
</dc:subject>
<dc:description>Playing with Inkscape on Gnu/Linux O. S.</dc:description>
<dc:contributor>
<cc:Agent>
<dc:title>In the night, alone like a dog.</dc:title>
</cc:Agent>
</dc:contributor>
<cc:license rdf:resource="http://creativecommons.org/licenses/by-sa/4.0/"/>
</cc:Work>
<cc:License rdf:about="http://creativecommons.org/licenses/by-sa/4.0/">
<cc:permits rdf:resource="http://creativecommons.org/ns#Reproduction"/>
<cc:permits rdf:resource="http://creativecommons.org/ns#Distribution"/>
<cc:requires rdf:resource="http://creativecommons.org/ns#Notice"/>
<cc:requires rdf:resource="http://creativecommons.org/ns#Attribution"/>
<cc:permits rdf:resource="http://creativecommons.org/ns#DerivativeWorks"/>
<cc:requires rdf:resource="http://creativecommons.org/ns#ShareAlike"/>
</cc:License>
</rdf:RDF>
</metadata>
<g transform="translate(0 -1026.5)">
<g transform="translate(-.14896 1026.1)">
<path d="m89.292 0.41503h-82.286c-3.7988 0-6.8571 3.0583-6.8571 6.8571v82.286c0 3.7989 3.0583 6.8571 6.8571 6.8571h82.286c3.7989 0 6.8571-3.0583 6.8571-6.8571v-82.286c0-3.7989-3.0583-6.8571-6.8571-6.8571z" opacity=".15"/>
<path d="m88.649 1.165h-81c-3.7395 0-6.75 3.0105-6.75 6.75v81c0 3.7395 3.0105 6.75 6.75 6.75h81c3.7395 0 6.75-3.0105 6.75-6.75v-81c0-3.7395-3.0105-6.75-6.75-6.75z" opacity=".15"/>
<path d="m88.006 1.915h-79.714c-3.6801 0-6.6429 2.9627-6.6429 6.6429v79.714c0 3.6801 2.9627 6.6429 6.6429 6.6429h79.714c3.6801 0 6.6429-2.9627 6.6429-6.6429v-79.714c0-3.6801-2.9627-6.6429-6.6429-6.6429z" fill="url(#linearGradient4071)"/>
<path d="m11.39 6.8022c-2.8565 0-5.1241 2.2884-5.1241 5.171v68.58c1.0972 1.6845 2.9688 2.8117 5.1241 2.8117h73.787c2.1553 0 4.0269-1.1272 5.1241-2.8117v-68.58c0-2.8826-2.2676-5.171-5.1241-5.171z" fill="#f5f3f3" opacity=".77865"/>
<path d="m9.974 5.1445c-3.1166 0-5.668 2.5395-5.668 5.646v69.278c0 3.1065 2.5513 5.646 5.668 5.646h76.792c3.1166 0 5.668-2.5395 5.668-5.646v-69.278c0-3.1065-2.5513-5.646-5.668-5.646zm0 2.3194h76.792c1.8881 0 3.352 1.4801 3.352 3.3266v69.278c0 1.8465-1.4639 3.3266-3.352 3.3266h-76.792c-1.8881 0-3.352-1.4801-3.352-3.3266v-69.278c0-1.8465 1.4639-3.3266 3.352-3.3266z" color="#000000" fill="#1f2224" fill-opacity=".63265" style="text-decoration-line:none;text-indent:0;text-transform:none"/>
<path d="m1.649 82.259v6c0 3.6801 2.9761 6.6562 6.6562 6.6562h79.687c3.6801 0 6.6563-2.9761 6.6563-6.6562v-6c0 3.6801-2.9761 6.6562-6.6563 6.6562h-79.687c-3.6801 0-6.6562-2.9761-6.6562-6.6562z" fill="url(#linearGradient4129)" opacity=".65818"/>
<rect x="5.524" y="80.665" width="84.25" height="4.25" rx="0" ry="4.25" fill="url(#radialGradient7462)" opacity=".55"/>
<rect transform="rotate(90)" x="5.975" y="-90.234" width="76.75" height="4.25" rx="0" ry="4.25" fill="url(#radialGradient7464)" opacity=".669"/>
<g transform="matrix(1.3214 0 0 1.352 -15.257 -18.853)">
<path d="m27.594 23c-3.0718 0-5.5938 2.5219-5.5938 5.5938v26.844c0 3.0691 2.5055 5.625 5.5938 5.625h20.812c0.0016 0.0411 0 0.09375 0 0.09375l0.03125 0.125 0.03125 0.15625 0.03125 0.125 0.03125 0.15625 0.1875 0.375 0.09375 0.125 0.09375 0.09375 10.75 12 0.0625 0.09375 0.09375 0.0625 0.0625 0.0625 0.375 0.25 0.1875 0.0625 0.09375 0.0625 0.09375 0.03125h0.125l0.09375 0.03125h0.09375l0.125 0.03125h0.1875l0.125-0.03125h0.09375l0.09375-0.03125h0.125l0.09375-0.03125 0.09375-0.0625 0.1875-0.0625 0.375-0.25 0.0625-0.0625 0.09375-0.0625 0.0625-0.09375 10.844-12 0.09375-0.09375 0.09375-0.125 0.1875-0.375 0.03125-0.15625 0.03125-0.125 0.03125-0.15625 0.03125-0.125v-0.28125l-0.03125-0.15625-0.03125-0.125-0.03125-0.15625-0.03125-0.125-0.0625-0.125-0.0625-0.15625-0.0625-0.09375-0.1875-0.25-0.1875-0.1875-0.125-0.09375-0.09375-0.09375-0.25-0.125-0.15625-0.0625-0.25-0.0625-0.15625-0.03125-0.125-0.03125h-4.1562v-4.0312l-0.03125-0.1875-0.0625-0.21875-0.0625-0.15625-0.09375-0.1875c-1e-6 -3e-6 -0.07355-0.12251-0.09375-0.15625-0.0031-0.0052 0-0.03125 0-0.03125 0.0202-0.03374 0.09375-0.15625 0.09375-0.15625l0.09375-0.1875 0.0625-0.15625 0.0625-0.21875 0.03125-0.1875v-4.2188l-0.03125-0.1875-0.0625-0.21875-0.0625-0.15625-0.09375-0.1875c-1e-6 -2e-6 -0.03668-0.11312-0.0625-0.15625 0.02988-0.04992 0.0625-0.125 0.0625-0.125l0.09375-0.1875 0.0625-0.15625 0.0625-0.21875 0.03125-0.1875v-2.2812l-0.03125-0.1875-0.0625-0.21875-0.0625-0.15625-0.1875-0.375-0.125-0.15625-0.25-0.25-0.15625-0.125-0.375-0.1875-0.15625-0.0625-0.21875-0.0625-0.1875-0.03125h-10.312a0.99834 0.99834 0 0 0-0.15625 0.03125l-0.15625 0.03125-0.1875 0.0625-0.15625 0.0625-0.15625 0.09375-0.125 0.09375-0.15625 0.09375-0.25 0.25-0.09375 0.15625-0.09375 0.125-0.0625 0.15625-0.0625 0.1875-0.0625 0.15625-0.03125 0.15625-0.03125 0.1875c0 2e-6 1e-3 0.11575 0 0.15625-2e-4 0.0081 0 0.03125 0 0.03125v2.0625l0.03125 0.1875 0.0625 0.21875 0.0625 0.15625 0.09375 0.1875c1e-6 2e-6 0.03262 0.07508 0.0625 0.125-0.02659 0.04329-0.0625 0.09375-0.0625 0.09375l-0.0625 0.15625-0.0625 0.1875-0.0625 0.15625-0.03125 0.15625-0.03125 0.1875c0 2e-6 1e-3 0.11575 0 0.15625-2e-4 0.0081 0 0.03125 0 0.03125v4l0.03125 0.1875 0.0625 0.21875 0.0625 0.15625 0.09375 0.1875c1e-6 3e-6 0.07355 0.12251 0.09375 0.15625 0.0031 0.0052 0 0.03125 0 0.03125-0.02068 0.03367-0.09375 0.09375-0.09375 0.09375l-0.0625 0.15625-0.0625 0.1875-0.0625 0.15625-0.03125 0.15625-0.03125 0.1875c0 2e-6 1e-3 0.11575 0 0.15625-2e-4 0.0081 0 0.03125 0 0.03125v3.8125h-1.375c0.81357-0.97954 1.3438-2.205 1.3438-3.5625v-26.844c0-3.0718-2.5219-5.5938-5.5938-5.5938zm4.375 9.9688h12.125v18.125h-12.125zm-4.9688 32c-2.7612 0-5.0312 2.27-5.0312 5.0312s2.27 5.0312 5.0312 5.0312c2.7056 0 4.9112-2.1895 5-4.875 0.08875 2.6855 2.2944 4.875 5 4.875s4.9112-2.1895 5-4.875c0.08875 2.6855 2.2944 4.875 5 4.875 2.7612 0 5.0312-2.27 5.0312-5.0312s-2.27-5.0312-5.0312-5.0312c-2.7056 0-4.9112 2.1895-5 4.875-0.08875-2.6855-2.2944-4.875-5-4.875s-4.9112 2.1895-5 4.875c-0.08875-2.6855-2.2944-4.875-5-4.875z" opacity=".1"/>
<path d="m27.594 24c-2.5281 0-4.5938 2.0657-4.5938 4.5938v26.844c0 2.5281 2.0552 4.625 4.5938 4.625h20.875c2.5385 0 4.5938-2.0969 4.5938-4.625v-26.844c0-2.5281-2.0657-4.5938-4.5938-4.5938zm3.5938 7.9688h13.719c0.11027 0 0.1875 0.0772 0.1875 0.21875v19.688c0 0.14155-0.07723 0.21875-0.1875 0.21875h-13.719c-0.11027 0-0.21875-0.10848-0.21875-0.21875v-19.688c0-0.11027 0.10848-0.21875 0.21875-0.21875zm24.719 12.062a0.99834 0.99834 0 0 0-0.8125 1v1.9062a0.99834 0.99834 0 0 0 1 1h9.9062a0.99834 0.99834 0 0 0 1-1v-1.9062a0.99834 0.99834 0 0 0-1-1h-9.9062a0.99834 0.99834 0 0 0-0.09375 0 0.99834 0.99834 0 0 0-0.09375 0zm0 4.0625a0.99834 0.99834 0 0 0-0.8125 1v3.8438a0.99834 0.99834 0 0 0 1 1h9.9062a0.99834 0.99834 0 0 0 1-1v-3.8438a0.99834 0.99834 0 0 0-1-1h-9.9062a0.99834 0.99834 0 0 0-0.09375 0 0.99834 0.99834 0 0 0-0.09375 0zm0 6.0625a0.99834 0.99834 0 0 0-0.8125 1v4.8438h-4.6875a0.99834 0.99834 0 0 0-0.75 1.6562l10.75 12a0.99834 0.99834 0 0 0 1.5 0l10.844-12a0.99834 0.99834 0 0 0-0.75-1.6562h-5v-4.8438a0.99834 0.99834 0 0 0-1-1h-9.9062a0.99834 0.99834 0 0 0-0.09375 0 0.99834 0.99834 0 0 0-0.09375 0zm-28.906 11.812c-2.2158 0-4.0312 1.8155-4.0312 4.0312s1.8155 4.0312 4.0312 4.0312 4.0312-1.8155 4.0312-4.0312-1.8155-4.0312-4.0312-4.0312zm10 0c-2.2158 0-4.0312 1.8155-4.0312 4.0312s1.8155 4.0312 4.0312 4.0312 4.0312-1.8155 4.0312-4.0312-1.8155-4.0312-4.0312-4.0312zm10 0c-2.2158 0-4.0312 1.8155-4.0312 4.0312s1.8155 4.0312 4.0312 4.0312 4.0312-1.8155 4.0312-4.0312-1.8155-4.0312-4.0312-4.0312z" opacity=".15"/>
<path d="m27.594 25c-1.9944 0-3.5938 1.5994-3.5938 3.5938v26.844c0 1.9944 1.5994 3.625 3.5938 3.625h20.875c1.9944 0 3.5938-1.6306 3.5938-3.625v-26.844c0-1.9944-1.5994-3.5938-3.5938-3.5938zm3.5938 5.9688h13.719c0.6648 0 1.1875 0.55395 1.1875 1.2188v19.688c0 0.6648-0.5227 1.2188-1.1875 1.2188h-13.719c-0.6648 0-1.2188-0.55395-1.2188-1.2188v-19.688c0-0.6648 0.55395-1.2188 1.2188-1.2188zm24.906 14.062v1.9062h9.9062v-1.9062zm0 4.0625v3.8438h9.9062v-3.8438zm0 6.0625v5.8438h-5.6875l10.75 12 10.844-12h-6v-5.8438zm-29.094 11.844c-1.6569 0-3 1.3431-3 3s1.3431 3 3 3 3-1.3431 3-3-1.3431-3-3-3zm10 0c-1.6569 0-3 1.3431-3 3s1.3431 3 3 3 3-1.3431 3-3-1.3431-3-3-3zm10 0c-1.6569 0-3 1.3431-3 3s1.3431 3 3 3 3-1.3431 3-3-1.3431-3-3-3z" opacity=".3"/>
<path d="m27.594 24c-1.9944 0-3.5938 1.5994-3.5938 3.5938v26.844c0 1.9944 1.5994 3.625 3.5938 3.625h20.875c1.9944 0 3.5938-1.6306 3.5938-3.625v-26.844c0-1.9944-1.5994-3.5938-3.5938-3.5938zm3.5938 5.9688h13.719c0.6648 0 1.1875 0.55395 1.1875 1.2188v19.688c0 0.6648-0.5227 1.2188-1.1875 1.2188h-13.719c-0.6648 0-1.2188-0.55395-1.2188-1.2188v-19.688c0-0.6648 0.55395-1.2188 1.2188-1.2188zm24.906 14.062v1.9062h9.9062v-1.9062zm0 4.0625v3.8438h9.9062v-3.8438zm0 6.0625v5.8438h-5.6875l10.75 12 10.844-12h-6v-5.8438zm-29.094 11.844c-1.6569 0-3 1.3431-3 3s1.3431 3 3 3 3-1.3431 3-3-1.3431-3-3-3zm10 0c-1.6569 0-3 1.3431-3 3s1.3431 3 3 3 3-1.3431 3-3-1.3431-3-3-3zm10 0c-1.6569 0-3 1.3431-3 3s1.3431 3 3 3 3-1.3431 3-3-1.3431-3-3-3z" color="#000000" fill="url(#linearGradient4002)"/>
<path d="m27.594 24c-1.9944 0-3.5938 1.5994-3.5938 3.5938v1c0-1.9944 1.5994-3.5938 3.5938-3.5938h20.875c1.9944 0 3.5938 1.5994 3.5938 3.5938v-1c0-1.9944-1.5994-3.5938-3.5938-3.5938zm28.5 20.031v1h9.9062v-1zm0 4.0625v1h9.9062v-1zm-26.125 2.7812v1c0 0.6648 0.55395 1.2188 1.2188 1.2188h13.719c0.6648 0 1.1875-0.55395 1.1875-1.2188v-1c0 0.6648-0.5227 1.2188-1.1875 1.2188h-13.719c-0.6648 0-1.2188-0.55395-1.2188-1.2188zm26.125 3.2812v1h9.9062v-1zm-5.6875 5.8438 0.90625 1h4.7812v-1zm15.594 0v1h5.0938l0.90625-1zm-39 6c-1.6569 0-3 1.3431-3 3 0 0.17476 0.03382 0.33342 0.0625 0.5 0.24322-1.4126 1.4554-2.5 2.9375-2.5s2.6943 1.0874 2.9375 2.5c0.028679-0.16658 0.0625-0.32524 0.0625-0.5 0-1.6569-1.3431-3-3-3zm10 0c-1.6569 0-3 1.3431-3 3 0 0.17476 0.03382 0.33342 0.0625 0.5 0.24322-1.4126 1.4554-2.5 2.9375-2.5s2.6943 1.0874 2.9375 2.5c0.028679-0.16658 0.0625-0.32524 0.0625-0.5 0-1.6569-1.3431-3-3-3zm10 0c-1.6569 0-3 1.3431-3 3 0 0.17476 0.03382 0.33342 0.0625 0.5 0.24322-1.4126 1.4554-2.5 2.9375-2.5s2.6943 1.0874 2.9375 2.5c0.028679-0.16658 0.0625-0.32524 0.0625-0.5 0-1.6569-1.3431-3-3-3z" color="#000000" fill="#fff" opacity=".75"/>
<path d="m31.188 28.969c-0.6648 0-1.2188 0.55395-1.2188 1.2188v1c0-0.6648 0.55395-1.2188 1.2188-1.2188h13.719c0.6648 0 1.1875 0.55395 1.1875 1.2188v-1c0-0.6648-0.5227-1.2188-1.1875-1.2188zm24.906 15.969v1h9.9062v-1zm0 6v1h9.9062v-1zm-32.094 2.5v1c0 1.9944 1.5994 3.625 3.5938 3.625h20.875c1.9944 0 3.5938-1.6306 3.5938-3.625v-1c0 1.9944-1.5994 3.625-3.5938 3.625h-20.875c-1.9944 0-3.5938-1.6306-3.5938-3.625zm26.406 6.5625 10.75 12 10.844-12h-0.90625l-9.9375 11-9.8438-11zm-26.344 8.5c-0.028679 0.16658-0.0625 0.32524-0.0625 0.5 0 1.6569 1.3431 3 3 3s3-1.3431 3-3c0-0.17476-0.03382-0.33342-0.0625-0.5-0.24322 1.4126-1.4554 2.5-2.9375 2.5s-2.6943-1.0874-2.9375-2.5zm10 0c-0.028679 0.16658-0.0625 0.32524-0.0625 0.5 0 1.6569 1.3431 3 3 3s3-1.3431 3-3c0-0.17476-0.03382-0.33342-0.0625-0.5-0.24322 1.4126-1.4554 2.5-2.9375 2.5s-2.6943-1.0874-2.9375-2.5zm10 0c-0.028679 0.16658-0.0625 0.32524-0.0625 0.5 0 1.6569 1.3431 3 3 3s3-1.3431 3-3c0-0.17476-0.03382-0.33342-0.0625-0.5-0.24322 1.4126-1.4554 2.5-2.9375 2.5s-2.6943-1.0874-2.9375-2.5z" color="#000000" fill="#fafafa" opacity=".335"/>
</g>
<rect transform="matrix(1.0692 0 0 1.0477 4.4442 38.894)" x="2" y="-30" width="75.966" height="69.024" rx="3.957" ry="3.957" clip-path="url(#clipPath4156-4-1)" fill="url(#linearGradient4767)" opacity=".50781"/>
</g>
</g>
</svg>
