<?xml version="1.0" encoding="UTF-8"?>
<!-- Created with Inkscape (http://www.inkscape.org/) -->
<svg version="1.1" viewBox="0 0 96 96" xmlns="http://www.w3.org/2000/svg" xmlns:cc="http://creativecommons.org/ns#" xmlns:dc="http://purl.org/dc/elements/1.1/" xmlns:rdf="http://www.w3.org/1999/02/22-rdf-syntax-ns#" xmlns:xlink="http://www.w3.org/1999/xlink">
<defs>
<linearGradient id="linearGradient3825" x1="6" x2="90" y1="47" y2="47" gradientTransform="matrix(1.1071 0 0 1.1071 2.9011 -18.701)" gradientUnits="userSpaceOnUse">
<stop stop-color="#adb9c1" offset="0"/>
<stop stop-color="#fff" offset=".25"/>
<stop stop-color="#90a2aa" offset=".5"/>
<stop stop-color="#f9fafb" offset=".75"/>
<stop stop-color="#adb9c1" offset="1"/>
</linearGradient>
<radialGradient id="radialGradient3827" cx="48" cy="-27" r="42" gradientTransform="matrix(-1.0722 0 0 -.87502 199.46 -19.126)" gradientUnits="userSpaceOnUse">
<stop stop-color="#fff" offset="0"/>
<stop stop-color="#fff" offset=".8"/>
<stop stop-color="#fff" stop-opacity="0" offset="1"/>
</radialGradient>
<linearGradient id="linearGradient3829" x1="1.5" x2="94.5" y1="88.172" y2="88.172" gradientTransform="translate(8.044 -14.666)" gradientUnits="userSpaceOnUse">
<stop offset="0"/>
<stop stop-opacity=".58824" offset=".1"/>
<stop stop-opacity=".58824" offset=".9"/>
<stop offset="1"/>
</linearGradient>
<linearGradient id="linearGradient3835" x1="45.448" x2="45.448" y1="92.54" y2="7.0165" gradientTransform="scale(1.0059 .99417)" gradientUnits="userSpaceOnUse">
<stop offset="0"/>
<stop stop-opacity=".58824" offset="1"/>
</linearGradient>
<filter id="filter3174-3" color-interpolation-filters="sRGB">
<feGaussianBlur stdDeviation="1.71"/>
</filter>
<clipPath id="clipPath4008-9-2">
<path d="m44.425 20c-1.0232 0-1.8688 0.82804-1.8688 1.8688v3.6969c-1.8296 0.48747-3.5598 1.2229-5.1594 2.1531l-2.6406-2.6406c-0.36795-0.36795-0.78321-0.52409-1.2594-0.52812-0.47616-0.0041-0.97886 0.16636-1.3406 0.52812l-5.0781 5.0781c-0.72352 0.72353-0.6952 1.8641 0.04062 2.6l2.6 2.6406c-0.93027 1.5995-1.6656 3.3298-2.1531 5.1594h-3.6562c-1.0407 0-1.9094 0.84552-1.9094 1.8688v7.15c0 1.0232 0.86866 1.8688 1.9094 1.8688h3.6562c0.48749 1.8296 1.2229 3.5599 2.1531 5.1594l-2.6 2.6c-0.73589 0.7359-0.76421 1.9171-0.04062 2.6406l5.0781 5.0781c0.72352 0.72353 1.8641 0.69527 2.6-0.04063l2.6406-2.6c1.5995 0.93027 3.3298 1.6656 5.1594 2.1531v3.6562c-5e-6 1.0407 0.84551 1.9094 1.8687 1.9094h7.15c1.0232 0 1.8688-0.86866 1.8688-1.9094v-3.6562c1.8296-0.48748 3.5598-1.2229 5.1594-2.1531l2.6406 2.6c0.73589 0.7359 1.8765 0.76415 2.6 0.04063l5.0781-5.0781c0.72352-0.72353 0.6952-1.9047-0.04063-2.6406l-2.6-2.6c0.93026-1.5995 1.6656-3.3298 2.1531-5.1594h3.6562c1.0407-5e-6 1.9094-0.84553 1.9094-1.8688v-7.15c0-1.0232-0.86867-1.8688-1.9094-1.8688h-3.6562c-0.48747-1.8296-1.2229-3.5599-2.1531-5.1594l2.6-2.6406c0.73589-0.7359 0.76422-1.8765 0.04063-2.6l-5.0781-5.0781c-0.72353-0.72353-1.8641-0.7359-2.6 0l-2.6406 2.6406c-1.5995-0.93027-3.3298-1.6657-5.1594-2.1531v-3.6969c0-1.0407-0.84553-1.8688-1.8688-1.8688h-7.15zm3.575 18.119c4.339 0 7.8406 3.5423 7.8406 7.8812 0 4.339-3.5017 7.8406-7.8406 7.8406-4.339 0-7.8406-3.5017-7.8406-7.8406 0-4.339 3.5017-7.8812 7.8406-7.8812z" display="block" fill="#f0f"/>
</clipPath>
<filter id="filter4012-5-1" color-interpolation-filters="sRGB">
<feGaussianBlur stdDeviation="0.78"/>
</filter>
<linearGradient id="linearGradient4967" x1="2.7714" x2="50.528" y1="-28.642" y2="14.514" gradientUnits="userSpaceOnUse">
<stop stop-color="#fff" offset="0"/>
<stop stop-color="#fff" stop-opacity="0" offset="1"/>
</linearGradient>
<clipPath id="clipPath4156-4-6">
<path d="m27.046-55.695-14.214 13.321h0.06127l15.653 21.771 10.231-10.546c-0.2169-1.1522-11.311-23.67-11.732-24.546zm-17.399 16.313-14.888 14.062 21.229 17.515 10.385-10.577-16.726-21zm31.491 12.951-9.7413 9.7136 8.9448 12.458 7.7808-7.555-6.9843-14.617zm-49.84 4.3788-13.754 12.982 26.283 13.846 0.06127-0.0617-0.12253-0.0617 9.8332-10.053-22.301-16.652zm38.015 7.4008-9.8025 9.7753 11.579 9.5594 7.6276-7.4008-8.6691-11.009-0.73519-0.9251zm20.187 5.674-7.3825 7.2158 6.1878 8.5418 5.8202-6.1365-4.6256-9.6211zm-32.195 6.3215-9.5575 9.4977 13.662 7.185 7.9339-7.6784-12.039-9.0043zm23.312 2.3744-7.1068 6.9383 8.3628 6.9074 5.3608-5.674-0.06127-0.0925-0.0919 0.12335-6.4635-8.2026zm-8.7304 8.5418-7.5051 7.3392 10.354 5.4581c1.3975-1.321 5.6751-6.1229 5.8509-6.3215l-8.6997-6.4757z" fill="#fff" opacity=".6"/>
</clipPath>
<radialGradient id="radialGradient4992" cx="13.948" cy="44.893" r="43.199" gradientTransform="matrix(.97513 0 0 .049191 32.735 78.814)" gradientUnits="userSpaceOnUse" xlink:href="#linearGradient4133-5"/>
<linearGradient id="linearGradient4133-5">
<stop stop-color="#fff" offset="0"/>
<stop stop-color="#fff" stop-opacity="0" offset="1"/>
</linearGradient>
<radialGradient id="radialGradient32123" cx="13.948" cy="44.893" r="43.199" gradientTransform="matrix(.88833 0 0 .049191 29.382 -89.635)" gradientUnits="userSpaceOnUse" xlink:href="#linearGradient4133-5"/>
</defs>
<metadata>
<rdf:RDF>
<cc:Work rdf:about="">
<dc:format>image/svg+xml</dc:format>
<dc:type rdf:resource="http://purl.org/dc/dcmitype/StillImage"/>
<dc:title/>
</cc:Work>
</rdf:RDF>
</metadata>
<g transform="translate(-8.044 14.666)">
<path d="m97.187-14.666h-82.286c-3.7988 0-6.8571 3.0583-6.8571 6.8571v82.286c0 3.7989 3.0583 6.8571 6.8571 6.8571h82.286c3.7989 0 6.8571-3.0583 6.8571-6.8571v-82.286c0-3.7989-3.0583-6.8571-6.8571-6.8571z" opacity=".15"/>
<path d="m96.544-13.916h-81c-3.7395 0-6.75 3.0105-6.75 6.75v81c0 3.7395 3.0105 6.75 6.75 6.75h81c3.7395 0 6.75-3.0105 6.75-6.75v-81c0-3.7395-3.0105-6.75-6.75-6.75z" opacity=".15"/>
<path d="m95.901-13.166h-79.714c-3.6801 0-6.6429 2.9627-6.6429 6.6429v79.714c0 3.6801 2.9627 6.6429 6.6429 6.6429h79.714c3.6801 0 6.6429-2.9627 6.6429-6.6429v-79.714c0-3.6801-2.9627-6.6429-6.6429-6.6429z" fill="url(#linearGradient3825)"/>
<g transform="matrix(1.1071 0 0 1.1071 -107.81 -18.148)">
<path d="m112 4.5c-3.324 0-6 2.676-6 6v15h1v-15c0-2.7873 2.2127-5 5-5h72c2.7873 0 5 2.2127 5 5v15h1v-15c0-3.324-2.676-6-6-6h-72z" fill="url(#radialGradient3827)" opacity=".45"/>
</g>
<path d="m9.544 67.178v6c0 3.6801 2.9761 6.6562 6.6562 6.6562h79.688c3.6801 0 6.6563-2.9761 6.6563-6.6562v-6c0 3.6801-2.9761 6.6562-6.6563 6.6562h-79.688c-3.6801 0-6.6562-2.9761-6.6562-6.6562z" fill="url(#linearGradient3829)" opacity=".89091"/>
<g transform="translate(251.29 -104.9)">
<g display="none">
<rect x="5" y="7" width="86" height="85" rx="6" ry="6" fill="url(#linearGradient3835)" filter="url(#filter3174-3)" opacity=".9"/>
</g>
</g>
</g>
<rect transform="translate(0,32)" x="4" y="-26.1" width="88" height="80" rx="6.2141" ry="5.4427" fill="#cec7c7" fill-opacity=".74775"/>
<path d="m9.6041 5.715c-3.1166 0-5.668 2.5395-5.668 5.646v69.278c0 3.1065 2.5513 5.646 5.668 5.646h76.792c3.1166 0 5.668-2.5395 5.668-5.646v-69.278c0-3.1065-2.5514-5.646-5.668-5.646h-76.792zm0 2.3194h76.792c1.8881 0 3.352 1.4801 3.352 3.3266v69.278c0 1.8465-1.4639 3.3266-3.352 3.3266h-76.792c-1.8881 0-3.352-1.4801-3.352-3.3266v-69.278c0-1.8465 1.4639-3.3266 3.352-3.3266z" color="#000000" fill="#342323" style="block-progression:tb;text-indent:0;text-transform:none"/>
<path d="m42.826 10.096c-1.3818 0-2.5236 1.1182-2.5236 2.5236v4.9923c-2.4707 0.65829-4.8072 1.6514-6.9672 2.9076l-3.5659-3.5659c-0.49688-0.49688-1.0577-0.70773-1.7007-0.71318-0.64301-0.0055-1.3219 0.22466-1.8104 0.71318l-6.8575 6.8575c-0.97705 0.97706-0.9388 2.5173 0.05485 3.5111l3.5111 3.5659c-1.2562 2.16-2.2493 4.4965-2.9076 6.9672h-4.9374c-1.4054 0-2.5784 1.1418-2.5784 2.5236v9.6554c0 1.3818 1.173 2.5236 2.5784 2.5236h4.9374c0.6583 2.4707 1.6514 4.8072 2.9076 6.9672l-3.5111 3.5111c-0.99375 0.99376-1.032 2.5889-0.05485 3.5659l6.8575 6.8575c0.97705 0.97706 2.5173 0.93889 3.5111-0.05487l3.5659-3.5111c2.16 1.2562 4.4966 2.2493 6.9672 2.9076v4.9374c-7e-6 1.4054 1.1418 2.5784 2.5236 2.5784h9.6554c1.3818 0 2.5236-1.173 2.5236-2.5784v-4.9374c2.4707-0.65829 4.8072-1.6513 6.9672-2.9076l3.5659 3.5111c0.99375 0.99376 2.534 1.0319 3.5111 0.05487l6.8575-6.8575c0.97705-0.97706 0.9388-2.5722-0.05487-3.5659l-3.5111-3.5111c1.2562-2.16 2.2493-4.4965 2.9076-6.9672h4.9374c1.4054-7e-6 2.5784-1.1418 2.5784-2.5236v-9.6554c0-1.3818-1.1731-2.5236-2.5784-2.5236h-4.9374c-0.65828-2.4707-1.6514-4.8072-2.9076-6.9672l3.5111-3.5659c0.99375-0.99376 1.032-2.534 0.05487-3.5111l-6.8575-6.8575c-0.97706-0.97706-2.5173-0.99376-3.5111 0l-3.5659 3.5659c-2.16-1.2562-4.4965-2.2493-6.9672-2.9076v-4.9923c0-1.4054-1.1418-2.5236-2.5236-2.5236zm4.8277 24.468c5.8594 0 10.588 4.7835 10.588 10.643 0 5.8594-4.7286 10.588-10.588 10.588-5.8594 0-10.588-4.7287-10.588-10.588 0-5.8594 4.7287-10.643 10.588-10.643z" display="block" fill="#0e232e" opacity=".8"/>
<path d="m18.789 26.216c-0.22801 0.83295-0.0013 1.7711 0.6752 2.4476l3.0384 3.1228c0.15848-0.29521 0.29613-0.59721 0.4642-0.8862l-3.5026-3.587c-0.32772-0.32775-0.55748-0.69038-0.6752-1.0972zm57.73 0c-0.11773 0.40683-0.34746 0.76946-0.6752 1.0972l-3.5026 3.587c0.16807 0.28899 0.30572 0.59099 0.4642 0.8862l3.0384-3.1228c0.67652-0.67652 0.90323-1.6147 0.6752-2.4476zm-28.865 8.3556c-5.8594 0-10.592 4.7751-10.592 10.634 0 0.22557 0.02839 0.45319 0.0422 0.6752 0.34494-5.5489 4.9163-9.9592 10.55-9.9592 5.6338 0 10.205 4.4104 10.55 9.9592 0.01382-0.22201 0.0422-0.44964 0.0422-0.6752 0-5.8594-4.7329-10.634-10.592-10.634zm-35.111 15.445v1.3504c0 1.3818 1.1688 2.532 2.5742 2.532h4.9374c0.57023 2.1401 1.4216 4.1655 2.4476 6.0768l0.4642-0.4642c-1.2562-2.16-2.2535-4.4923-2.9118-6.963h-4.9374c-1.4054 0-2.5742-1.1502-2.5742-2.532zm70.221 0c0 1.3818-1.1688 2.532-2.5742 2.532h-4.9374c-0.65829 2.4707-1.6556 4.803-2.9118 6.963l0.4642 0.4642c1.0261-1.9113 1.8774-3.9367 2.4476-6.0768h4.9374c1.4054-6e-6 2.5742-1.1502 2.5742-2.532zm-63.975 15.445c-0.25705 0.85329-0.03221 1.8247 0.633 2.4898l6.8364 6.8786c0.97705 0.97706 2.5089 0.90936 3.5026-0.0844l3.587-3.5026c2.16 1.2562 4.4923 2.2535 6.963 2.9118v-1.3504c-2.4707-0.65829-4.803-1.6556-6.963-2.9118l-3.587 3.5026c-0.99375 0.99376-2.5256 1.0615-3.5026 0.0844l-6.8364-6.8786c-0.32227-0.32224-0.52948-0.72645-0.633-1.1394zm57.73 0c-0.10351 0.41295-0.26856 0.81716-0.5908 1.1394l-6.8786 6.8786c-0.97706 0.97705-2.5089 0.90936-3.5026-0.0844l-3.587-3.5026c-2.16 1.2562-4.4923 2.2535-6.963 2.9118v1.3504c2.4707-0.65829 4.803-1.6556 6.963-2.9118l3.587 3.5026c0.99375 0.99376 2.5256 1.0614 3.5026 0.0844l6.8786-6.8786c0.66514-0.66515 0.84784-1.6365 0.5908-2.4898zm-36.208 12.28v1.3504c-7e-6 1.4054 1.1502 2.5742 2.532 2.5742h9.6216c1.3818 0 2.532-1.1688 2.532-2.5742v-1.3504c0 1.4054-1.1502 2.5742-2.532 2.5742h-9.6216c-1.3818 0-2.532-1.1688-2.532-2.5742z" display="block" fill="#fff" opacity=".6"/>
<path transform="matrix(1.3504 0 0 1.3504 -17.166 -16.912)" d="m44.425 21c-1.0232 0-1.8688 0.82804-1.8688 1.8688v3.6969c-1.8296 0.48747-3.5598 1.2229-5.1594 2.1531l-2.6406-2.6406c-0.36795-0.36795-0.78321-0.52409-1.2594-0.52812-0.47616-0.0041-0.97886 0.16636-1.3406 0.52812l-5.0781 5.0781c-0.72352 0.72353-0.6952 1.8641 0.04062 2.6l2.6 2.6406c-0.93027 1.5995-1.6656 3.3298-2.1531 5.1594h-3.6562c-1.0407 0-1.9094 0.84552-1.9094 1.8688v7.15c0 1.0232 0.86866 1.8688 1.9094 1.8688h3.6562c0.48749 1.8296 1.2229 3.5599 2.1531 5.1594l-2.6 2.6c-0.73589 0.7359-0.76421 1.9171-0.04062 2.6406l5.0781 5.0781c0.72352 0.72353 1.8641 0.69527 2.6-0.04063l2.6406-2.6c1.5995 0.93027 3.3298 1.6656 5.1594 2.1531v3.6562c-5e-6 1.0407 0.84551 1.9094 1.8687 1.9094h7.15c1.0232 0 1.8688-0.86866 1.8688-1.9094v-3.6562c1.8296-0.48748 3.5598-1.2229 5.1594-2.1531l2.6406 2.6c0.73589 0.7359 1.8765 0.76415 2.6 0.04063l5.0781-5.0781c0.72352-0.72353 0.6952-1.9047-0.04063-2.6406l-2.6-2.6c0.93026-1.5995 1.6656-3.3298 2.1531-5.1594h3.6562c1.0407-5e-6 1.9094-0.84553 1.9094-1.8688v-7.15c0-1.0232-0.86867-1.8688-1.9094-1.8688h-3.6562c-0.48747-1.8296-1.2229-3.5599-2.1531-5.1594l2.6-2.6406c0.73589-0.7359 0.76422-1.8765 0.04063-2.6l-5.0781-5.0781c-0.72353-0.72353-1.8641-0.7359-2.6 0l-2.6406 2.6406c-1.5995-0.93027-3.3298-1.6657-5.1594-2.1531v-3.6969c0-1.0407-0.84553-1.8688-1.8688-1.8688zm3.575 18.119c4.339 0 7.8406 3.5423 7.8406 7.8812 0 4.339-3.5017 7.8406-7.8406 7.8406-4.339 0-7.8406-3.5017-7.8406-7.8406 0-4.339 3.5017-7.8812 7.8406-7.8812z" clip-path="url(#clipPath4008-9-2)" display="block" fill="none" filter="url(#filter4012-5-1)" opacity=".4" stroke="#000" stroke-width="2"/>
<rect transform="matrix(.91622 0 0 .94165 4.5692 36.262)" x="2" y="-30" width="92" height="92" rx="3.957" ry="3.957" clip-path="url(#clipPath4156-4-6)" fill="url(#linearGradient4967)"/>
<rect x="4.211" y="78.898" width="84.25" height="4.25" rx="0" ry="4.25" fill="url(#radialGradient4992)" opacity=".75494"/>
<rect transform="rotate(90)" x="3.3977" y="-89.552" width="76.75" height="4.25" rx="0" ry="4.25" fill="url(#radialGradient32123)" opacity=".70751"/>
</svg>
