<?xml version="1.0" encoding="UTF-8"?>
<!-- Created with Inkscape (http://www.inkscape.org/) -->
<svg version="1.1" viewBox="0 0 96 96" xmlns="http://www.w3.org/2000/svg" xmlns:cc="http://creativecommons.org/ns#" xmlns:dc="http://purl.org/dc/elements/1.1/" xmlns:rdf="http://www.w3.org/1999/02/22-rdf-syntax-ns#" xmlns:xlink="http://www.w3.org/1999/xlink">
<defs>
<linearGradient id="linearGradient4133-5">
<stop stop-color="#fff" offset="0"/>
<stop stop-color="#fff" stop-opacity="0" offset="1"/>
</linearGradient>
<linearGradient id="linearGradient3825" x1="6" x2="90" y1="47" y2="47" gradientTransform="matrix(.81986 0 0 .81986 8.9034 9.5352)" gradientUnits="userSpaceOnUse">
<stop stop-color="#d6dce0" offset="0"/>
<stop stop-color="#fff" offset=".25"/>
<stop stop-color="#c7d0d4" offset=".5"/>
<stop stop-color="#f9fafb" offset=".75"/>
<stop stop-color="#d4dbdf" offset="1"/>
</linearGradient>
<radialGradient id="radialGradient3827" cx="48" cy="-27" r="42" gradientTransform="matrix(-.87903 0 0 -.71739 90.45 -5.7352)" gradientUnits="userSpaceOnUse">
<stop stop-color="#fff" offset="0"/>
<stop stop-color="#fff" offset=".8"/>
<stop stop-color="#fff" stop-opacity="0" offset="1"/>
</radialGradient>
<linearGradient id="linearGradient3829" x1="1.5" x2="94.5" y1="88.172" y2="88.172" gradientTransform="matrix(.74052 0 0 .74052 12.712 12.524)" gradientUnits="userSpaceOnUse">
<stop offset="0"/>
<stop stop-opacity=".58824" offset=".1"/>
<stop stop-opacity=".58824" offset=".9"/>
<stop offset="1"/>
</linearGradient>
<clipPath id="clipPath4008-9-2-8">
<path d="m44.425 20c-1.0232 0-1.8688 0.82804-1.8688 1.8688v3.6969c-1.8296 0.48747-3.5598 1.2229-5.1594 2.1531l-2.6406-2.6406c-0.36795-0.36795-0.78321-0.52409-1.2594-0.52812-0.47616-0.0041-0.97886 0.16636-1.3406 0.52812l-5.0781 5.0781c-0.72352 0.72353-0.6952 1.8641 0.04062 2.6l2.6 2.6406c-0.93027 1.5995-1.6656 3.3298-2.1531 5.1594h-3.6562c-1.0407 0-1.9094 0.84552-1.9094 1.8688v7.15c0 1.0232 0.86866 1.8688 1.9094 1.8688h3.6562c0.48749 1.8296 1.2229 3.5599 2.1531 5.1594l-2.6 2.6c-0.73589 0.7359-0.76421 1.9171-0.04062 2.6406l5.0781 5.0781c0.72352 0.72353 1.8641 0.69527 2.6-0.04063l2.6406-2.6c1.5995 0.93027 3.3298 1.6656 5.1594 2.1531v3.6562c-5e-6 1.0407 0.84551 1.9094 1.8687 1.9094h7.15c1.0232 0 1.8688-0.86866 1.8688-1.9094v-3.6562c1.8296-0.48748 3.5598-1.2229 5.1594-2.1531l2.6406 2.6c0.73589 0.7359 1.8765 0.76415 2.6 0.04063l5.0781-5.0781c0.72352-0.72353 0.6952-1.9047-0.04063-2.6406l-2.6-2.6c0.93026-1.5995 1.6656-3.3298 2.1531-5.1594h3.6562c1.0407-5e-6 1.9094-0.84553 1.9094-1.8688v-7.15c0-1.0232-0.86867-1.8688-1.9094-1.8688h-3.6562c-0.48747-1.8296-1.2229-3.5599-2.1531-5.1594l2.6-2.6406c0.73589-0.7359 0.76422-1.8765 0.04063-2.6l-5.0781-5.0781c-0.72353-0.72353-1.8641-0.7359-2.6 0l-2.6406 2.6406c-1.5995-0.93027-3.3298-1.6657-5.1594-2.1531v-3.6969c0-1.0407-0.84553-1.8688-1.8688-1.8688h-7.15zm3.575 18.119c4.339 0 7.8406 3.5423 7.8406 7.8812 0 4.339-3.5017 7.8406-7.8406 7.8406-4.339 0-7.8406-3.5017-7.8406-7.8406 0-4.339 3.5017-7.8812 7.8406-7.8812z" display="block" fill="#f0f"/>
</clipPath>
<filter id="filter4012-5-1" color-interpolation-filters="sRGB">
<feGaussianBlur stdDeviation="0.78"/>
</filter>
<linearGradient id="linearGradient4967" x1="2.7714" x2="50.528" y1="-28.642" y2="14.514" gradientUnits="userSpaceOnUse" xlink:href="#linearGradient4133-5"/>
<clipPath id="clipPath4156-4-6-9">
<path d="m27.046-55.695-14.214 13.321h0.06127l15.653 21.771 10.231-10.546c-0.2169-1.1522-11.311-23.67-11.732-24.546zm-17.399 16.313-14.888 14.062 21.229 17.515 10.385-10.577-16.726-21zm31.491 12.951-9.7413 9.7136 8.9448 12.458 7.7808-7.555-6.9843-14.617zm-49.84 4.3788-13.754 12.982 26.283 13.846 0.06127-0.0617-0.12253-0.0617 9.8332-10.053-22.301-16.652zm38.015 7.4008-9.8025 9.7753 11.579 9.5594 7.6276-7.4008-8.6691-11.009-0.73519-0.9251zm20.187 5.674-7.3825 7.2158 6.1878 8.5418 5.8202-6.1365-4.6256-9.6211zm-32.195 6.3215-9.5575 9.4977 13.662 7.185 7.9339-7.6784-12.039-9.0043zm23.312 2.3744-7.1068 6.9383 8.3628 6.9074 5.3608-5.674-0.06127-0.0925-0.0919 0.12335-6.4635-8.2026zm-8.7304 8.5418-7.5051 7.3392 10.354 5.4581c1.3975-1.321 5.6751-6.1229 5.8509-6.3215l-8.6997-6.4757z" fill="#fff" opacity=".6"/>
</clipPath>
<radialGradient id="radialGradient4992" cx="13.948" cy="44.893" r="43.199" gradientTransform="matrix(.72211 0 0 .036427 36.952 70.887)" gradientUnits="userSpaceOnUse" xlink:href="#linearGradient4133-5"/>
<radialGradient id="radialGradient32123" cx="13.948" cy="44.893" r="43.199" gradientTransform="matrix(.65782 0 0 .036427 34.282 -79.088)" gradientUnits="userSpaceOnUse" xlink:href="#linearGradient4133-5"/>
</defs>
<metadata>
<rdf:RDF>
<cc:Work rdf:about="">
<dc:format>image/svg+xml</dc:format>
<dc:type rdf:resource="http://purl.org/dc/dcmitype/StillImage"/>
<dc:title/>
</cc:Work>
</rdf:RDF>
</metadata>
<g transform="matrix(1.3504 0 0 1.3504 -17.166 -16.912)">
<path d="m78.724 12.524h-60.934c-2.8131 0-5.0778 2.2647-5.0778 5.0778v60.934c0 2.8131 2.2647 5.0778 5.0778 5.0778h60.934c2.8131 0 5.0778-2.2647 5.0778-5.0778v-60.934c0-2.8131-2.2647-5.0778-5.0778-5.0778z" opacity=".15"/>
<path d="m78.248 13.079h-59.982c-2.7692 0-4.9985 2.2293-4.9985 4.9985v59.982c0 2.7692 2.2293 4.9985 4.9985 4.9985h59.982c2.7692 0 4.9985-2.2293 4.9985-4.9985v-59.982c0-2.7692-2.2293-4.9985-4.9985-4.9985z" opacity=".15"/>
<path d="m77.772 13.634h-59.03c-2.7252 0-4.9192 2.1939-4.9192 4.9192v59.03c0 2.7252 2.1939 4.9192 4.9192 4.9192h59.03c2.7252 0 4.9192-2.1939 4.9192-4.9192v-59.03c0-2.7252-2.1939-4.9192-4.9192-4.9192z" fill="url(#linearGradient3825)"/>
<path d="m18.742 13.634c-2.7252 0-4.9192 2.1939-4.9192 4.9192v12.298h0.81986v-12.298c0-2.2852 1.8141-4.0993 4.0993-4.0993h59.03c2.2852 0 4.0993 1.8141 4.0993 4.0993v12.298h0.81986v-12.298c0-2.7252-2.1939-4.9192-4.9192-4.9192z" fill="url(#radialGradient3827)" opacity=".45"/>
<path d="m13.823 73.131v4.4431c0 2.7252 2.2039 4.9291 4.9291 4.9291h59.01c2.7252 0 4.9291-2.2039 4.9291-4.9291v-4.4431c0 2.7252-2.2039 4.9291-4.9291 4.9291h-59.01c-2.7252 0-4.9291-2.2039-4.9291-4.9291z" fill="url(#linearGradient3829)" opacity=".89091"/>
<rect x="15.674" y="16.893" width="65.166" height="59.242" rx="4.6017" ry="4.0304" fill="#dbdfe2" fill-opacity=".9633"/>
<path d="m19.824 16.756c-2.3079 0-4.1972 1.8806-4.1972 4.181v51.302c0 2.3004 1.8893 4.181 4.1972 4.181h56.866c2.3079 0 4.1972-1.8806 4.1972-4.181v-51.302c0-2.3004-1.8893-4.181-4.1972-4.181zm0 1.7176h56.866c1.3982 0 2.4822 1.096 2.4822 2.4634v51.302c0 1.3673-1.0841 2.4634-2.4822 2.4634h-56.866c-1.3982 0-2.4822-1.096-2.4822-2.4634v-51.302c0-1.3673 1.0841-2.4634 2.4822-2.4634z" color="#000000" fill="#232a34" style="text-decoration-line:none;text-indent:0;text-transform:none"/>
<g transform="matrix(.94398 0 0 .94398 2.6889 2.5059)" stroke-width="1.0593">
<path d="m44.425 20c-1.0232 0-1.8688 0.82804-1.8688 1.8688v3.6969c-1.8296 0.48747-3.5598 1.2229-5.1594 2.1531l-2.6406-2.6406c-0.36795-0.36795-0.78321-0.52409-1.2594-0.52812-0.47616-0.0041-0.97886 0.16636-1.3406 0.52812l-5.0781 5.0781c-0.72352 0.72353-0.6952 1.8641 0.04062 2.6l2.6 2.6406c-0.93027 1.5995-1.6656 3.3298-2.1531 5.1594h-3.6562c-1.0407 0-1.9094 0.84552-1.9094 1.8688v7.15c0 1.0232 0.86866 1.8688 1.9094 1.8688h3.6562c0.48749 1.8296 1.2229 3.5599 2.1531 5.1594l-2.6 2.6c-0.73589 0.7359-0.76421 1.9171-0.04062 2.6406l5.0781 5.0781c0.72352 0.72353 1.8641 0.69527 2.6-0.04063l2.6406-2.6c1.5995 0.93027 3.3298 1.6656 5.1594 2.1531v3.6562c-5e-6 1.0407 0.84551 1.9094 1.8687 1.9094h7.15c1.0232 0 1.8688-0.86866 1.8688-1.9094v-3.6562c1.8296-0.48748 3.5598-1.2229 5.1594-2.1531l2.6406 2.6c0.73589 0.7359 1.8765 0.76415 2.6 0.04063l5.0781-5.0781c0.72352-0.72353 0.6952-1.9047-0.04063-2.6406l-2.6-2.6c0.93026-1.5995 1.6656-3.3298 2.1531-5.1594h3.6562c1.0407-5e-6 1.9094-0.84553 1.9094-1.8688v-7.15c0-1.0232-0.86867-1.8688-1.9094-1.8688h-3.6562c-0.48747-1.8296-1.2229-3.5599-2.1531-5.1594l2.6-2.6406c0.73589-0.7359 0.76422-1.8765 0.04063-2.6l-5.0781-5.0781c-0.72353-0.72353-1.8641-0.7359-2.6 0l-2.6406 2.6406c-1.5995-0.93027-3.3298-1.6657-5.1594-2.1531v-3.6969c0-1.0407-0.84553-1.8688-1.8688-1.8688zm3.575 18.119c4.339 0 7.8406 3.5423 7.8406 7.8812 0 4.339-3.5017 7.8406-7.8406 7.8406-4.339 0-7.8406-3.5017-7.8406-7.8406 0-4.339 3.5017-7.8812 7.8406-7.8812z" display="block" fill="#f60" opacity=".8"/>
<path d="m26.625 31.938c-0.16884 0.61682-9.26e-4 1.3115 0.5 1.8125l2.25 2.3125c0.11736-0.21861 0.21929-0.44225 0.34375-0.65625l-2.5938-2.6562c-0.24268-0.2427-0.41282-0.51124-0.5-0.8125zm42.75 0c-0.08718 0.30126-0.2573 0.5698-0.5 0.8125l-2.5938 2.6562c0.12446 0.214 0.22639 0.43764 0.34375 0.65625l2.25-2.3125c0.50097-0.50098 0.66886-1.1957 0.5-1.8125zm-21.375 6.1875c-4.339 0-7.8438 3.536-7.8438 7.875 0 0.16704 0.02102 0.3356 0.03125 0.5 0.25543-4.109 3.6406-7.375 7.8125-7.375 4.1719 0 7.5571 3.266 7.8125 7.375 0.01023-0.1644 0.03125-0.33296 0.03125-0.5 0-4.339-3.5048-7.875-7.8438-7.875zm-26 11.438v1c0 1.0232 0.86554 1.875 1.9062 1.875h3.6562c0.42226 1.5848 1.0527 3.0847 1.8125 4.5l0.34375-0.34375c-0.93027-1.5995-1.6688-3.3267-2.1562-5.1562h-3.6562c-1.0407 0-1.9062-0.85178-1.9062-1.875zm52 0c0 1.0232-0.86554 1.875-1.9062 1.875h-3.6562c-0.48748 1.8296-1.226 3.5567-2.1562 5.1562l0.34375 0.34375c0.75981-1.4153 1.3902-2.9152 1.8125-4.5h3.6562c1.0407-5e-6 1.9062-0.85177 1.9062-1.875zm-47.375 11.438c-0.19035 0.63188-0.02385 1.3512 0.46875 1.8438l5.0625 5.0938c0.72352 0.72353 1.8579 0.6734 2.5938-0.0625l2.6562-2.5938c1.5995 0.93027 3.3267 1.6688 5.1562 2.1562v-1c-1.8296-0.48748-3.5567-1.226-5.1562-2.1562l-2.6562 2.5938c-0.73589 0.7359-1.8702 0.78603-2.5938 0.0625l-5.0625-5.0938c-0.23865-0.23863-0.39209-0.53795-0.46875-0.84375zm42.75 0c-0.07665 0.3058-0.19888 0.60512-0.4375 0.84375l-5.0938 5.0938c-0.72353 0.72352-1.8579 0.6734-2.5938-0.0625l-2.6562-2.5938c-1.5995 0.93027-3.3267 1.6688-5.1562 2.1562v1c1.8296-0.48748 3.5567-1.226 5.1562-2.1562l2.6562 2.5938c0.73589 0.7359 1.8702 0.78602 2.5938 0.0625l5.0938-5.0938c0.49255-0.49256 0.62784-1.2119 0.4375-1.8438zm-26.812 9.0938v1c-5e-6 1.0407 0.85177 1.9062 1.875 1.9062h7.125c1.0232 0 1.875-0.86554 1.875-1.9062v-1c0 1.0407-0.85178 1.9062-1.875 1.9062h-7.125c-1.0232 0-1.875-0.86553-1.875-1.9062z" display="block" fill="#fff" opacity=".692"/>
<g stroke-width="1.0593">
<path d="m44.425 21c-1.0232 0-1.8688 0.82804-1.8688 1.8688v3.6969c-1.8296 0.48747-3.5598 1.2229-5.1594 2.1531l-2.6406-2.6406c-0.36795-0.36795-0.78321-0.52409-1.2594-0.52812-0.47616-0.0041-0.97886 0.16636-1.3406 0.52812l-5.0781 5.0781c-0.72352 0.72353-0.6952 1.8641 0.04062 2.6l2.6 2.6406c-0.93027 1.5995-1.6656 3.3298-2.1531 5.1594h-3.6562c-1.0407 0-1.9094 0.84552-1.9094 1.8688v7.15c0 1.0232 0.86866 1.8688 1.9094 1.8688h3.6562c0.48749 1.8296 1.2229 3.5599 2.1531 5.1594l-2.6 2.6c-0.73589 0.7359-0.76421 1.9171-0.04062 2.6406l5.0781 5.0781c0.72352 0.72353 1.8641 0.69527 2.6-0.04063l2.6406-2.6c1.5995 0.93027 3.3298 1.6656 5.1594 2.1531v3.6562c-5e-6 1.0407 0.84551 1.9094 1.8687 1.9094h7.15c1.0232 0 1.8688-0.86866 1.8688-1.9094v-3.6562c1.8296-0.48748 3.5598-1.2229 5.1594-2.1531l2.6406 2.6c0.73589 0.7359 1.8765 0.76415 2.6 0.04063l5.0781-5.0781c0.72352-0.72353 0.6952-1.9047-0.04063-2.6406l-2.6-2.6c0.93026-1.5995 1.6656-3.3298 2.1531-5.1594h3.6562c1.0407-5e-6 1.9094-0.84553 1.9094-1.8688v-7.15c0-1.0232-0.86867-1.8688-1.9094-1.8688h-3.6562c-0.48747-1.8296-1.2229-3.5599-2.1531-5.1594l2.6-2.6406c0.73589-0.7359 0.76422-1.8765 0.04063-2.6l-5.0781-5.0781c-0.72353-0.72353-1.8641-0.7359-2.6 0l-2.6406 2.6406c-1.5995-0.93027-3.3298-1.6657-5.1594-2.1531v-3.6969c0-1.0407-0.84553-1.8688-1.8688-1.8688zm3.575 18.119c4.339 0 7.8406 3.5423 7.8406 7.8812 0 4.339-3.5017 7.8406-7.8406 7.8406-4.339 0-7.8406-3.5017-7.8406-7.8406 0-4.339 3.5017-7.8812 7.8406-7.8812z" clip-path="url(#clipPath4008-9-2-8)" display="block" fill="none" filter="url(#filter4012-5-1)" opacity=".553" stroke="#000" stroke-width="2.1187"/>
</g>
</g>
<rect transform="matrix(.67848 0 0 .69731 16.095 39.376)" x="2" y="-30" width="92" height="92" rx="3.957" ry="3.957" clip-path="url(#clipPath4156-4-6-9)" fill="url(#linearGradient4967)" opacity=".77"/>
<rect x="15.83" y="70.949" width="62.389" height="3.1472" rx="0" ry="3.1472" fill="url(#radialGradient4992)" opacity=".75494"/>
<rect transform="rotate(90)" x="15.04" y="-79.027" width="56.835" height="3.1472" rx="0" ry="3.1472" fill="url(#radialGradient32123)" opacity=".70751"/>
</g>
</svg>
