<?xml version="1.0" encoding="UTF-8"?>
<!-- Created with Inkscape (http://www.inkscape.org/) -->
<svg version="1.1" viewBox="0 0 96 96" xmlns="http://www.w3.org/2000/svg" xmlns:cc="http://creativecommons.org/ns#" xmlns:dc="http://purl.org/dc/elements/1.1/" xmlns:rdf="http://www.w3.org/1999/02/22-rdf-syntax-ns#" xmlns:xlink="http://www.w3.org/1999/xlink">
<defs>
<linearGradient id="linearGradient4071" x1="6" x2="90" y1="47" y2="47" gradientTransform="matrix(1.1071 0 0 1.1071 -4.9939 -3.6207)" gradientUnits="userSpaceOnUse">
<stop stop-color="#adb9c1" offset="0"/>
<stop stop-color="#fff" offset=".25"/>
<stop stop-color="#90a2aa" offset=".5"/>
<stop stop-color="#f9fafb" offset=".75"/>
<stop stop-color="#adb9c1" offset="1"/>
</linearGradient>
<linearGradient id="linearGradient4129" x1="1.5" x2="94.5" y1="88.172" y2="88.172" gradientTransform="translate(.14895 .41503)" gradientUnits="userSpaceOnUse">
<stop offset="0"/>
<stop stop-opacity=".58824" offset=".1"/>
<stop stop-opacity=".58824" offset=".9"/>
<stop offset="1"/>
</linearGradient>
<radialGradient id="radialGradient7462" cx="13.948" cy="44.893" r="43.199" gradientTransform="matrix(.97513 0 0 .049191 34.048 80.582)" gradientUnits="userSpaceOnUse" xlink:href="#linearGradient3737"/>
<linearGradient id="linearGradient3737">
<stop stop-color="#fff" offset="0"/>
<stop stop-color="#fff" stop-opacity="0" offset="1"/>
</linearGradient>
<radialGradient id="radialGradient7464" cx="13.948" cy="44.893" r="43.199" gradientTransform="matrix(.88833 0 0 .049191 31.96 -90.317)" gradientUnits="userSpaceOnUse" xlink:href="#linearGradient3737"/>
<linearGradient id="linearGradient4767" x1="2.7714" x2="50.528" y1="-28.642" y2="14.514" gradientUnits="userSpaceOnUse" xlink:href="#linearGradient3737"/>
<clipPath id="clipPath4156-4-1">
<path d="m27.046-55.695-14.214 13.321h0.06127l15.653 21.771 10.231-10.546c-0.2169-1.1522-11.311-23.67-11.732-24.546zm-17.399 16.313-14.888 14.062 21.229 17.515 10.385-10.577zm31.491 12.951-9.7413 9.7136 8.9448 12.458 7.7808-7.555zm-49.84 4.3788-13.754 12.982 26.283 13.846 0.06127-0.0617-0.12253-0.0617 9.8332-10.053-22.301-16.652zm38.015 7.4008-9.8025 9.7753 11.579 9.5594 7.6276-7.4008-8.6691-11.009zm20.187 5.674-7.3825 7.2158 6.1878 8.5418 5.8202-6.1365zm-32.195 6.3215-9.5575 9.4977 13.662 7.185 7.9339-7.6784zm23.312 2.3744-7.1068 6.9383 8.3628 6.9074 5.3608-5.674-0.06127-0.0925-0.0919 0.12335-6.4635-8.2026zm-8.7304 8.5418-7.5051 7.3392 10.354 5.4581c1.3975-1.321 5.6751-6.1229 5.8509-6.3215z" fill="#fff" opacity=".6"/>
</clipPath>
<linearGradient id="linearGradient2881" x1="15.502" x2="15.502" y1="23.279" y2="6.5162" gradientTransform="matrix(2.7021 0 0 3.4459 17.712 -.076982)" gradientUnits="userSpaceOnUse">
<stop stop-color="#1e1e1e" offset="0"/>
<stop stop-color="#505050" offset="1"/>
</linearGradient>
</defs>
<metadata>
<rdf:RDF>
<cc:Work rdf:about="">
<dc:format>image/svg+xml</dc:format>
<dc:type rdf:resource="http://purl.org/dc/dcmitype/StillImage"/>
<dc:title/>
<dc:date>2017</dc:date>
<dc:creator>
<cc:Agent>
<dc:title>Cristian Pozzessere "ilnanny"</dc:title>
</cc:Agent>
</dc:creator>
<dc:subject>
<rdf:Bag>
<rdf:li>Global language</rdf:li>
</rdf:Bag>
</dc:subject>
<dc:description>Playing with Inkscape on Gnu/Linux O. S.</dc:description>
<dc:contributor>
<cc:Agent>
<dc:title>In the night, alone like a dog.</dc:title>
</cc:Agent>
</dc:contributor>
<cc:license rdf:resource="http://creativecommons.org/licenses/by-sa/4.0/"/>
</cc:Work>
<cc:License rdf:about="http://creativecommons.org/licenses/by-sa/4.0/">
<cc:permits rdf:resource="http://creativecommons.org/ns#Reproduction"/>
<cc:permits rdf:resource="http://creativecommons.org/ns#Distribution"/>
<cc:requires rdf:resource="http://creativecommons.org/ns#Notice"/>
<cc:requires rdf:resource="http://creativecommons.org/ns#Attribution"/>
<cc:permits rdf:resource="http://creativecommons.org/ns#DerivativeWorks"/>
<cc:requires rdf:resource="http://creativecommons.org/ns#ShareAlike"/>
</cc:License>
</rdf:RDF>
</metadata>
<g transform="translate(0 -1026.5)">
<g transform="translate(-.14896 1026.1)">
<path d="m89.292 0.41503h-82.286c-3.7988 0-6.8571 3.0583-6.8571 6.8571v82.286c0 3.7989 3.0583 6.8571 6.8571 6.8571h82.286c3.7989 0 6.8571-3.0583 6.8571-6.8571v-82.286c0-3.7989-3.0583-6.8571-6.8571-6.8571z" opacity=".15"/>
<path d="m88.649 1.165h-81c-3.7395 0-6.75 3.0105-6.75 6.75v81c0 3.7395 3.0105 6.75 6.75 6.75h81c3.7395 0 6.75-3.0105 6.75-6.75v-81c0-3.7395-3.0105-6.75-6.75-6.75z" opacity=".15"/>
<path d="m88.006 1.915h-79.714c-3.6801 0-6.6429 2.9627-6.6429 6.6429v79.714c0 3.6801 2.9627 6.6429 6.6429 6.6429h79.714c3.6801 0 6.6429-2.9627 6.6429-6.6429v-79.714c0-3.6801-2.9627-6.6429-6.6429-6.6429z" fill="url(#linearGradient4071)"/>
<path d="m11.39 6.8022c-2.8565 0-5.1241 2.2884-5.1241 5.171v68.58c1.0972 1.6845 2.9688 2.8117 5.1241 2.8117h73.787c2.1553 0 4.0269-1.1272 5.1241-2.8117v-68.58c0-2.8826-2.2676-5.171-5.1241-5.171z" fill="#f5f3f3" opacity=".77865"/>
<path d="m9.974 5.1445c-3.1166 0-5.668 2.5395-5.668 5.646v69.278c0 3.1065 2.5513 5.646 5.668 5.646h76.792c3.1166 0 5.668-2.5395 5.668-5.646v-69.278c0-3.1065-2.5513-5.646-5.668-5.646zm0 2.3194h76.792c1.8881 0 3.352 1.4801 3.352 3.3266v69.278c0 1.8465-1.4639 3.3266-3.352 3.3266h-76.792c-1.8881 0-3.352-1.4801-3.352-3.3266v-69.278c0-1.8465 1.4639-3.3266 3.352-3.3266z" color="#000000" fill="#1f2224" fill-opacity=".63265" style="text-decoration-line:none;text-indent:0;text-transform:none"/>
<path d="m1.649 82.259v6c0 3.6801 2.9761 6.6562 6.6562 6.6562h79.687c3.6801 0 6.6563-2.9761 6.6563-6.6562v-6c0 3.6801-2.9761 6.6562-6.6563 6.6562h-79.687c-3.6801 0-6.6562-2.9761-6.6562-6.6562z" fill="url(#linearGradient4129)" opacity=".65818"/>
<rect x="5.524" y="80.665" width="84.25" height="4.25" rx="0" ry="4.25" fill="url(#radialGradient7462)" opacity=".55"/>
<rect transform="rotate(90)" x="5.975" y="-90.234" width="76.75" height="4.25" rx="0" ry="4.25" fill="url(#radialGradient7464)" opacity=".669"/>
<g transform="matrix(1.0901 0 0 1.0901 -7.6744 -8.5644)">
<path d="m52.4 21.333c-1.1314 0.017-2.2787 0.45492-3.2333 1.2333-0.05841 0.04763-0.14326 0.04921-0.2 0.1-0.12378 0.07207-0.22849 0.14424-0.26667 0.16667v0.03333c-0.0022 0.0013-0.03329-4.3e-5 -0.03333 0l-21.6 21.533a1.0133 1.0133 0 0 0 0 0.03333 1.0133 1.0133 0 0 0-0.3 0.5 1.0133 1.0133 0 0 0 0 0.03333c-1.0348 1.3028-1.487 2.9775-1.0667 4.5667 0.46767 1.7681 1.825 3.1324 3.6 3.6 0.62161 0.16374 1.2714 0.06368 1.9 0l-6.2 6.2c-2.016 2.0122-2.019 5.3514 0 7.3667l15.067 15c2.0167 2.0121 5.2864 2.0091 7.3 0l29.933-29.867a1.0133 1.0133 0 0 0 0-0.03333 1.0133 1.0133 0 0 0 0.2-0.23333 1.0133 1.0133 0 0 0 0.03333-0.1c0.76508-0.84003 1.3798-1.9343 1.4-3.2667 2e-5 -0.0013 2e-5 -0.03202 0-0.03333l-0.1-21.6c-0.0064-1.583-0.68921-3.114-1.9667-4.1 0.19046 0.15306 0.18565 0.13968-0.03333-0.03333-0.82649-0.65296-1.9236-1.0886-3.1333-1.1h-21.267c-0.0013-1.9e-5 -0.03202-1.9e-5 -0.03333 0zm2.1333 10.367h13.933v14.367l-5.5667 5.5667c0.04664-0.2508 0.1626-0.46529 0.16667-0.73333 1.9e-5 -0.0013 1.9e-5 -0.03202 0-0.03333v-8.4667c5.86e-4 -0.0375 7.5e-5 -0.04328 0-0.03333 0.01074-1.4024-0.5495-2.7515-1.5333-3.7333-0.97938-0.97738-2.2942-1.5103-3.7-1.5h-8.4c-0.0013-1.9e-5 -0.03202-1.9e-5 -0.03333 0-0.12238 0.0019-0.24422 0.05651-0.36667 0.06667zm-3 15.8h1.0667v1.3l-10.533 10.533a1.0133 1.0133 0 0 0-0.3 0.5c-1.0189 1.2644-1.4871 2.9104-1.0667 4.5 0.4936 1.8662 1.976 3.1459 3.7 3.6 0.72367 0.19063 1.4562 0.126 2.1667 0l-2.8 2.8333-7.7667-7.7667z" opacity=".1"/>
<path d="m52.4 22.333c-1.0762 0.01617-2.1539 0.39635-2.9667 1.2333-0.0067 0.0069-0.02662-7e-3 -0.03333 0l-21.633 21.567v0.03333c-1.0911 1.0741-1.4823 2.6546-1.1 4.1 0.37632 1.4227 1.4727 2.524 2.9 2.9 1.4461 0.38094 3.0264-0.01342 4.1-1.1h0.033333l20.4-20.367h15.367v15.8l-25.7 25.667-9.2-9.2 16.533-16.467h2.5v2.7l-10.833 10.833v0.03333c-1.0557 1.039-1.4777 2.572-1.1 4 0.3937 1.4884 1.59 2.5286 3 2.9 1.423 0.37484 2.9398-0.06048 3.9667-1.1h0.03333l12.067-12.067v-0.03333c0.7499-0.72214 1.3156-1.6978 1.3333-2.8667a1.1484 1.1484 0 0 0 0-0.03333v-8.4667c1.72e-4 -0.01105-8.5e-5 -0.02229 0-0.03333 0.0086-1.1288-0.44036-2.2087-1.2333-3-0.79012-0.78851-1.8697-1.2416-3-1.2333h-8.4a1.1484 1.1484 0 0 0-0.03333 0c-1.0761 0.0166-2.1361 0.41204-2.9333 1.2333-0.0066 0.0068-0.02675-0.0069-0.03333 0l-20.733 20.7c-1.6259 1.6229-1.6288 4.2743 0 5.9l15.067 15c1.6271 1.6234 4.2758 1.6205 5.9 0l29.933-29.867v-0.03333c0.74989-0.72214 1.3156-1.6977 1.3333-2.8667a1.1484 1.1484 0 0 0 0-0.03333l-0.1-21.6c-0.0052-1.2821-0.58142-2.5138-1.6-3.3-0.01067-0.0085-0.02259-0.02485-0.03333-0.03333-0.66675-0.52676-1.5408-0.89092-2.5-0.9h-21.267a1.1484 1.1484 0 0 0-0.03333 0z" opacity=".15"/>
<path d="m52.441 23.467c-0.80913 0.01216-1.6381 0.31677-2.1963 0.90026l-21.663 21.606c-0.78111 0.75772-1.0771 1.948-0.79864 3.0009 0.27849 1.0529 1.0414 1.8227 2.0964 2.1006 1.055 0.27792 2.2356-0.02048 2.9949-0.80023l20.765-20.706h16.971v17.405l-26.854 26.808-10.782-10.803 17.67-17.605h4.093v4.3012l-11.181 11.203c-0.78111 0.75772-1.0771 1.848-0.79864 2.9008 0.27849 1.0529 1.1412 1.8227 2.1963 2.1006 1.055 0.27792 2.1358-0.02048 2.8951-0.80023l12.079-12.103c0.58469-0.55701 0.98606-1.2931 0.9983-2.1006v-8.5024c0.0128-0.81751-0.31846-1.6218-0.89847-2.2006-0.57999-0.57881-1.3771-0.91282-2.1963-0.90026h-8.3858c-0.80913 0.01248-1.6381 0.31677-2.1963 0.90026l-20.765 20.706c-1.1793 1.1771-1.182 3.1214 0 4.3012l15.074 15.004c1.1822 1.1796 3.1131 1.1769 4.2927 0l29.949-29.909c0.58469-0.55702 0.98607-1.2931 0.9983-2.1006l-0.09981-21.606c-0.0038-0.9438-0.44238-1.8314-1.198-2.4007-0.53105-0.42676-1.1159-0.69376-1.7969-0.7002z" opacity=".3"/>
<path d="m52.441 22.4c-0.80913 0.01216-1.6381 0.31677-2.1963 0.90026l-21.663 21.606c-0.78111 0.75772-1.0771 1.948-0.79864 3.0009 0.27849 1.0529 1.0414 1.8227 2.0964 2.1006 1.055 0.27792 2.2356-0.02048 2.9949-0.80023l20.765-20.706h16.971v17.405l-26.854 26.808-10.782-10.803 17.67-17.605h4.093v4.3012l-11.181 11.203c-0.78111 0.75772-1.0771 1.848-0.79864 2.9008 0.27849 1.0529 1.1412 1.8227 2.1963 2.1006 1.055 0.27792 2.1358-0.02048 2.8951-0.80023l12.079-12.103c0.58469-0.55702 0.98606-1.2931 0.9983-2.1006v-8.5024c0.0128-0.81751-0.31846-1.6218-0.89847-2.2006-0.57999-0.57881-1.3771-0.91282-2.1963-0.90026h-8.3858c-0.80913 0.01248-1.6381 0.31677-2.1963 0.90026l-20.765 20.706c-1.1793 1.1771-1.182 3.1214 0 4.3012l15.074 15.004c1.1822 1.1796 3.1131 1.1769 4.2927 0l29.949-29.909c0.58469-0.55701 0.98607-1.2931 0.9983-2.1006l-0.099808-21.606c-0.00384-0.9438-0.44238-1.8314-1.198-2.4007-0.53105-0.42676-1.1159-0.69376-1.7969-0.7002z" fill="url(#linearGradient2881)"/>
<path d="m52.433 22.4c-0.80913 0.01216-1.6418 0.31651-2.2 0.9l-21.667 21.6c-0.74021 0.71804-1.0404 1.8234-0.83333 2.8333 0.0927-0.66047 0.35306-1.3008 0.83333-1.7667l21.667-21.6c0.55816-0.58349 1.3909-0.88784 2.2-0.9h21.267c0.68105 0.0064 1.269 0.27324 1.8 0.7 0.75561 0.56929 1.1962 1.4562 1.2 2.4v-1.0667c-0.0038-0.9438-0.44439-1.8307-1.2-2.4-0.53105-0.42676-1.1189-0.69356-1.8-0.7zm-3 15.8c-0.80913 0.01248-1.6085 0.31651-2.1667 0.9l-20.767 20.7c-0.71141 0.7101-0.98004 1.7011-0.83333 2.6333 0.11089-0.57642 0.39109-1.1252 0.83333-1.5667l20.767-20.7c0.55816-0.58349 1.3575-0.88752 2.1667-0.9h8.4c0.81919-0.01257 1.62 0.32119 2.2 0.9 0.58001 0.57882 0.9128 1.3825 0.9 2.2v-1.0667c0.0128-0.81751-0.31999-1.6212-0.9-2.2-0.57999-0.57881-1.3808-0.91256-2.2-0.9zm21.167 7.7-26.833 26.8-10.267-10.267-0.53333 0.53333 10.8 10.8 26.833-26.8zm-15.867 2.7-11.167 11.2c-0.72159 0.69997-1.0102 1.6908-0.83333 2.6667 0.11086-0.58665 0.38325-1.1634 0.83333-1.6l11.167-11.2z" fill="#fff" opacity=".75"/>
<path d="m53.633 27.433-20.767 20.7c-0.75928 0.77975-1.945 1.0779-3 0.8-1.055-0.27791-1.8215-1.0471-2.1-2.1-0.01458-0.05513-0.02189-0.11086-0.03333-0.16667-0.05807 0.4137-0.07392 0.82783 0.03333 1.2333 0.27849 1.0529 1.045 1.8221 2.1 2.1 1.055 0.27792 2.2407-0.02026 3-0.8l20.767-20.7h16.967v-1.0667zm-3 15.8-17.667 17.6 0.53333 0.53333 17.133-17.067h4.1v-1.0667zm26.167 2.8333c-0.02256 0.79445-0.42333 1.5173-1 2.0667l-29.933 29.9c-1.1796 1.1769-3.1178 1.1796-4.3 0l-15.067-15c-0.44325-0.44243-0.72285-0.99-0.83333-1.5667-0.14938 0.93347 0.11891 1.9202 0.83333 2.6333l15.067 15c1.1822 1.1796 3.1204 1.1769 4.3 0l29.933-29.9c0.58469-0.55701 0.98777-1.2925 1-2.1zm-15.867 2.6667c-0.01225 0.80748-0.41531 1.543-1 2.1l-12.1 12.1c-0.75928 0.77975-1.8116 1.0779-2.8667 0.8-1.055-0.27792-1.9215-1.0471-2.2-2.1-0.02123-0.08023-0.01874-0.15282-0.03333-0.23333-0.08154 0.43147-0.08468 0.8538 0.03333 1.3 0.27849 1.0529 1.145 1.8221 2.2 2.1 1.055 0.27792 2.1074-0.02026 2.8667-0.8l12.1-12.1c0.58469-0.55701 0.98775-1.2925 1-2.1z" fill="#fefefe" opacity=".229"/>
</g>
<rect transform="matrix(1.0692 0 0 1.0477 4.4442 38.894)" x="2" y="-30" width="75.966" height="69.024" rx="3.957" ry="3.957" clip-path="url(#clipPath4156-4-1)" fill="url(#linearGradient4767)" opacity=".50781"/>
</g>
</g>
</svg>
