<?xml version="1.0" encoding="UTF-8"?>
<!-- Created with Inkscape (http://www.inkscape.org/) -->
<svg version="1.1" viewBox="0 0 96 96" xmlns="http://www.w3.org/2000/svg" xmlns:cc="http://creativecommons.org/ns#" xmlns:dc="http://purl.org/dc/elements/1.1/" xmlns:rdf="http://www.w3.org/1999/02/22-rdf-syntax-ns#" xmlns:xlink="http://www.w3.org/1999/xlink">
<defs>
<linearGradient id="linearGradient4133">
<stop stop-color="#fff" offset="0"/>
<stop stop-color="#fff" stop-opacity="0" offset="1"/>
</linearGradient>
<linearGradient id="linearGradient4071" x1="6" x2="90" y1="47" y2="47" gradientTransform="matrix(1.1354 0 0 1.1337 -40.037 -46.788)" gradientUnits="userSpaceOnUse">
<stop stop-color="#b7b7b7" offset="0"/>
<stop stop-color="#fff" offset=".25"/>
<stop stop-color="#9d9d9d" offset=".5"/>
<stop stop-color="#fafafa" offset=".75"/>
<stop stop-color="#b7b7b7" offset="1"/>
</linearGradient>
<radialGradient id="radialGradient4073" cx="158" cy="6.2132" r="41" gradientTransform="matrix(0 1.6209 -2.0383 0 160.66 -243.04)" gradientUnits="userSpaceOnUse">
<stop stop-color="#fff" offset="0"/>
<stop stop-color="#fff" stop-opacity="0" offset="1"/>
</radialGradient>
<radialGradient id="radialGradient4075" cx="48" cy="-27" r="42" gradientTransform="matrix(-1.0722 0 0 -.87502 199.46 -19.126)" gradientUnits="userSpaceOnUse">
<stop stop-color="#fff" offset="0"/>
<stop stop-color="#fff" offset=".8"/>
<stop stop-color="#fff" stop-opacity="0" offset="1"/>
</radialGradient>
<linearGradient id="linearGradient4129" x1="1.5" x2="94.5" y1="88.172" y2="88.172" gradientUnits="userSpaceOnUse">
<stop offset="0"/>
<stop stop-opacity=".58824" offset=".1"/>
<stop stop-opacity=".58824" offset=".9"/>
<stop offset="1"/>
</linearGradient>
<radialGradient id="radialGradient4139" cx="13.948" cy="44.893" r="43.199" gradientTransform="matrix(1 0 0 .050369 0 39.432)" gradientUnits="userSpaceOnUse" xlink:href="#linearGradient4133"/>
<radialGradient id="radialGradient4143" cx="13.948" cy="44.893" r="43.199" gradientTransform="matrix(.90961 0 0 .050445 -11.185 -58.258)" gradientUnits="userSpaceOnUse" xlink:href="#linearGradient4133"/>
<clipPath id="clipPath4156-4-0">
<path d="m27.046-55.695-14.214 13.321h0.06127l15.653 21.771 10.231-10.546c-0.2169-1.1522-11.311-23.67-11.732-24.546zm-17.399 16.313-14.888 14.062 21.229 17.515 10.385-10.577-16.726-21zm31.491 12.951-9.7413 9.7136 8.9448 12.458 7.7808-7.555-6.9843-14.617zm-49.84 4.3788-13.754 12.982 26.283 13.846 0.06127-0.0617-0.12253-0.0617 9.8332-10.053-22.301-16.652zm38.015 7.4008-9.8025 9.7753 11.579 9.5594 7.6276-7.4008-8.6691-11.009-0.73519-0.9251zm20.187 5.674-7.3825 7.2158 6.1878 8.5418 5.8202-6.1365-4.6256-9.6211zm-32.195 6.3215-9.5575 9.4977 13.662 7.185 7.9339-7.6784-12.039-9.0043zm23.312 2.3744-7.1068 6.9383 8.3628 6.9074 5.3608-5.674-0.06127-0.0925-0.0919 0.12335-6.4635-8.2026zm-8.7304 8.5418-7.5051 7.3392 10.354 5.4581c1.3975-1.321 5.6751-6.1229 5.8509-6.3215l-8.6997-6.4757z" fill="#fff" opacity=".6"/>
</clipPath>
<linearGradient id="linearGradient3448" x1="2.7714" x2="50.528" y1="-28.642" y2="14.514" gradientUnits="userSpaceOnUse">
<stop stop-color="#fff" offset="0"/>
<stop stop-color="#fff" stop-opacity="0" offset="1"/>
</linearGradient>
<radialGradient id="radialGradient3450" cx="13.948" cy="44.893" r="43.199" gradientTransform="matrix(.84356 0 0 .046782 -22.173 -21.356)" gradientUnits="userSpaceOnUse" xlink:href="#linearGradient4133"/>
<radialGradient id="radialGradient3452" cx="13.948" cy="44.893" r="43.199" gradientTransform="matrix(.92739 0 0 .046712 -33.356 22.869)" gradientUnits="userSpaceOnUse" xlink:href="#linearGradient4133"/>
<radialGradient id="radialGradient4230" cx="48.442" cy="45.581" r="43.669" gradientTransform="matrix(.99645 0 0 .90133 -33.368 -37.816)" gradientUnits="userSpaceOnUse">
<stop stop-color="#98eeff" offset="0"/>
<stop stop-color="#007cbe" offset="1"/>
</radialGradient>
</defs>
<metadata>
<rdf:RDF>
<cc:Work rdf:about="">
<dc:format>image/svg+xml</dc:format>
<dc:type rdf:resource="http://purl.org/dc/dcmitype/StillImage"/>
<dc:title/>
</cc:Work>
</rdf:RDF>
</metadata>
<g transform="translate(0,80)">
<g transform="matrix(1.0034 0 0 1.005 33.489 -38.527)">
<path d="m55.463-41.269h-82.003c-3.7858 0-6.8336 3.0432-6.8336 6.8233v81.88c0 3.7801 3.0478 6.8233 6.8336 6.8233h82.003c3.7858 0 6.8336-3.0432 6.8336-6.8233v-81.88c0-3.7801-3.0478-6.8233-6.8336-6.8233z" opacity=".15"/>
<path d="m54.822-40.522h-80.722c-3.7267 0-6.7268 2.9956-6.7268 6.7167v80.6c0 3.721 3.0002 6.7167 6.7268 6.7167h80.722c3.7267 0 6.7268-2.9956 6.7268-6.7167v-80.6c0-3.721-3.0002-6.7167-6.7268-6.7167z" opacity=".15"/>
<g transform="matrix(.97179 0 0 .97179 .40799 .18323)">
<path d="m55.334-41.119h-81.747c-3.774 0-6.8123 3.0337-6.8123 6.802v81.624c0 3.7683 3.0383 6.802 6.8123 6.802h81.747c3.774 0 6.8123-3.0337 6.8123-6.802v-81.624c0-3.7683-3.0383-6.802-6.8123-6.802z" fill="url(#linearGradient4071)"/>
<g transform="matrix(1.1354 0 0 1.1337 -153.57 -46.221)">
<path d="m112 5.5c-2.7873 0-5 2.2127-5 5v20.719 7 38.594c1.0707 1.6288 2.8969 2.7188 5 2.7188h4 64 4c2.1031 0 3.9293-1.09 5-2.7188v-38.594-7-20.719c0-2.7873-2.2127-5-5-5z" fill="url(#radialGradient4073)" opacity=".2"/>
<path d="m112 4.5c-3.324 0-6 2.676-6 6v15h1v-15c0-2.7873 2.2127-5 5-5h72c2.7873 0 5 2.2127 5 5v15h1v-15c0-3.324-2.676-6-6-6h-72z" fill="url(#radialGradient4075)" opacity=".45"/>
</g>
<path transform="matrix(1.0255 0 0 1.024 -34.763 -42.655)" d="m1.5 81.844v6c0 3.6801 2.9761 6.6562 6.6562 6.6562h79.688c3.6801 0 6.6562-2.9761 6.6562-6.6562v-6c0 3.6801-2.9761 6.6562-6.6562 6.6562h-79.688c-3.6801 0-6.6562-2.9761-6.6562-6.6562z" fill="url(#linearGradient4129)" opacity=".65"/>
<rect x="-29.251" y="39.517" width="86.398" height="4.3518" rx="0" ry="4.3518" fill="url(#radialGradient4139)" opacity=".55"/>
<rect transform="rotate(90)" x="-37.791" y="-58.173" width="78.588" height="4.3584" rx="0" ry="4.3584" fill="url(#radialGradient4143)" opacity=".55"/>
</g>
<rect x="-28.115" y="-35.584" width="86.031" height="77.704" ry="4.4231" fill="url(#radialGradient4230)" stroke="#53768a" stroke-dasharray="1.00635985, 1.00635985" stroke-linecap="round" stroke-linejoin="round" stroke-opacity=".6" stroke-width="1.0064"/>
<g transform="matrix(1.0159 0 0 1.0588 34.687 13.312)">
<g transform="matrix(.98407 0 0 .89646 -67.02 -51.042)" fill="#d8ecfa">
<path d="m36.274 6.0962c1.6501 2.2114 0.11258 5.9042 2.6015 5.8675 1.2119 1.7099-2.4155 0.51007 0.20359 1.828 1.5061 1.1837-1.5934 1.8601 0.27179 2.9224-2.1497 1.107 0.34845 5.7901 1.9451 6.9621 2.628 2.2079 1.1622-4.6745 4.0945-5.0325 1.5934-1.8153 4.3918-2.9807 6.3793-4.8069-1.9423-0.15736-3.0765-1.3639-1.237-2.1112 3.3855 3.4621 0.8489-1.6396-1.0251-2.4474 1.8134-0.57567 3.577-0.15411 3.3254-1.6474 1.9163-1.3992-1.8423-1.8509-3.1839-1.5346h-13.375zm-27.802 1.4443c-2.4498 0.69652-2.6206 6.5392-0.15835 3.2948 0.60434-1.3322 3.3971-2.9376 0.15835-3.2948zm11.446 0.20311c-1.4123 2.21 0.20492 3.9819 1.3799 1.2863 0.83171-1.1256-0.61793-1.2451-1.3799-1.2863zm3.529 0.49648c-2.7288 1.2622-0.6726 4.2055-0.60506 4.8601 2.8746 0.99245 4.4732-0.64888 5.5607 2.1563 2.7352 1.5732-0.05382 4.3067-1.0805 5.0186 1.8493-1.6073 5.4042 4.37 4.4723 1.212-1.1118-0.81013 2.9852 1.3014 0.85962-1.3315-1.9561-3.1451 0.15527-1.408 0.97995-0.67399 2.8049-2.5101-3.1736-2.8135-1.6812-5.3966-1.3078-1.057-3.0229-4.2593-5.3387-3.6333-1.5502 2.0008-0.21415-4.3595-2.4886-1.1767-0.11789 1.7791-0.04285 4.0368-0.70571 0.95454-0.44407-0.53958 0.764-1.794 0.0273-1.9894zm-5.5649 0.022569c-1.8316 0.60939-1.7332 3.0791 0.51896 3.3439 0.77143-0.87753 0.30649-3.1777-0.51896-3.3439zm-7.1484 0.78986c-2.3791 0.56253-1.408 2.4769-0.67957 3.0161-2.9449 0.73616 4.4957 0.94087 0.79268 1.4071-3.0808 1.2279 2.9667 2.6745 3.9588 1.2186 3.8044 0.92851 0.13691-3.0393-0.19704-5.1901-1.6128-1.7273-0.06366 3.982-1.5219 0.18397-0.50879 1.1278-2.1265 0.1662-2.353-0.63573zm75.601 0.24824c-3.1924 1.2469 1.9842 5.9522 0.69764 1.6715-0.12816-0.51689 0.2882-1.8826-0.69764-1.6715zm-66.666 1.8957c-2.2941 2.1515 2.916 3.9308-0.6589 5.5336-0.53602-1.9981-1.4583 0.99971-3.5035-0.61395-3.5159 1.461-5.3139-0.761-8.2575-2.2841-1.768-0.21964-1.1038 1.6765-1.2209 3.4519v14.72c1.7335 1.8201 0.67633 0.80305 0 0.30103 0.95147 3.2339-0.41957 7.9611 3.3309 9.8422 0.63756 1.1802 3.3129 6.2082 3.4362 4.7038-1.3412-1.4017-2.7174-5.6039-0.4479-1.8586 2.0328 3.5603 4.7748 5.8694 8.7805 6.7166 2.1901 0.74344 3.9912 3.2991 5.9171 2.7368 1.0891 2.8651-3.2274 5.6164 0.14491 8.2887 1.7605 2.7053 4.7162 4.4797 3.116 8.2777-1.1191 3.7094-0.63993 7.7512-1.6078 11.207-0.30039 2.1037 2.938 7.4432 2.6575 3.1675 0.94557-2.9713 0.92064-6.2407 3.1476-8.3448 3.0471 0.02407 0.58237-3.2699 3.607-2.8396 1.8456-2.4143 2.3802-5.2944 5.4949-6.2531 0.37204-2.9306 5.1788-7.4188 0.21314-8.5598-1.3496-0.66386-4.8245-0.90257-4.5589-1.2301 0.53803-2.9079-4.4935-3.7357-6.6342-4.9255-2.8108-1.9911-7.0342 3.3077-8.0245-1.258-0.59088-1.4365-2.7513-1.4598-1.7584-3.6764-1.7894 1.7761-5.2893 1.2363-4.373-2.1937 1.3916-2.8887 6.7356-3.0253 7.6463 0.4492-1.2644-3.832 2.4439-6.8151 4.5025-9.5413 0.41916-1.3031 2.9097-2.4226 2.0527-0.69076 1.4602-0.05256 3.6733-2.6822 1.0794-1.4685-0.03668-2.3981-2.273-1.7162-2.998-1.3756 1.3438-2.1285 8.245-0.96481 5.3551-4.4439-2.2393-0.90551-2.053-6.1896-4.318-3.2458 0.19059-1.8138-4.61-5.3643-4.5053-2.3227 0.58599 2.7216 0.10713 5.8568-1.1399 7.6408-0.26024-3.9881-7.0757-3.1066-6.1994-7.3563 1.2694-2.0254 2.7528-4.8263 2.8942-4.5744 2.275-0.86686 4.1046-3.3884 1.4678-5.046-0.14092 1.4447-1.983 4.4255-1.7237 0.82036-1.7058 2.0183-1.3162-3.2117-2.9138-3.7541zm54.45 1.3992c-3.9959 0.9755-5.5801 4.7844-7.5568 7.9391-2.9139 1.3111-2.8029 6.9417 0.45241 5.1433 0.87128 1.5186-0.60951 3.9123 1.9283 1.9266 2.047-2.7034 0.35794-7.0758 3.8414-8.7805 0.25373 1.3255-3.2133 6.2748 0.837 5.4613 3.6616 0.13788-2.6619 0.3641-0.881 2.6983-1.8503-1.0956-0.88883 2.9922-3.304 2.0409-2.0923 1.1358-3.4643-0.52736-2.985-2.3493-1.646 0.95827 0.5177 3.6617-2.3396 3.8241-0.64005 2.2682-5.9034 1.9263-2.9102 4.236 1.3289 3.4371-4.9515 0.21547-3.1685 4.3401 1.5254 4.0787 4.7224-1.3515 6.0194-2.4006 2.5025-1.9372 6.2107 3.3032 3.9588 3.4979 2.5251-0.3381 2.0062-2.7347-0.01696-3.6625-1.0927-2.8282 3.459 1.387 3.2066 2.805 1.6059 3.0011 0.94462-3.0727 2.5789-0.38364-0.1908 2.8366 6.5742 0.66696 3.3444 4.2821-2.7769 0.55818-5.5101-0.71443-7.9008 0.10068-2.2251-0.01964-2.1135-2.3922-2.9236-2.9864-2.8304 0.22949-6.3279 0.20354-8.2228 2.4854-2.049 2.8056-5.0038 6.7277-2.7705 10.31 2.2349 5.3087 7.7772 0.27537 10.963 3.4106 0.94693 1.3072-0.8206 2.8612 1.2967 4.2772 0.79671 3.0163-0.90449 5.8802 1.0523 8.7636 1.0118 2.7117 1.6398 6.7704 5.4058 4.2925 3.9858-2.3937 2.9242-6.8064 6.2129-9.2505-2.6023-5.026 3.1836-7.2298 4.6272-11.31-3.1539 0.4608-5.9638-2.6773-6.7258-5.8359-1.3249-1.5342-0.98367-3.7964 0.49633-0.91428 2.0343 1.9672 2.0782 7.8043 5.8413 4.8015 1.7203-0.71811 6.4186-3.4574 2.6751-4.704-2.413 1.7442-5.0752-5.2118-1.5318-1.1771 2.576 1.0907 4.38 1.7405 4.38-1.8757v-29.426c-0.8024 0.81832-2.8638 2.3297-3.9043 1.3254-1.7904 0.24881-4.1539 3.7253-3.5912 0.36466-1.5562-0.10285-0.27858 3.0133-2.4166 3.1005-0.21528 1.602-2.1599 0.29667-1.4294 1.818-1.5007-1.0623-2.7707-4.4164 0.18614-2.3112 4.391-1.3147-2.8956-4.2801-3.458-4.9969 0.94546-0.22607-1.0286-1.2093-1.2668-0.88013zm-36.24 0.88013c-1.4615 1.2153 2.7785 1.4441 0 0zm-19.522 0.65445c-1.6347 1.7064 2.6033 1.5687 0 0zm9.4784 1.6926c-1.2379 2.0237 1.829 0.74715 0 0zm27.101 2.3921c-1.4492 1.6651-3.362-0.43821-3.3932 0.99296 0.26264 0.43244 1.3147 3.5189 3.6194 1.2412 1.237-0.52046 0.74996-1.8325-0.22622-2.2342zm-30.856 0.99296c-2.7488 2.3957 4.6683 2.6165 0.58232 0.27477zm36.262 6.6348c-1.9791 1.288 0.94944 4.0232-0.04308 5.308-1.2401 2.1563 4.6083-0.15189 1.4846-1.8723-0.22257-1.4781-1.83-3.2815-1.4415-3.4357zm-1.3347 2.5952c-2.7574 0.77799-0.62596 4.7947 0.35066 1.0116 0.05497-0.21933 0.12936-1.0189-0.35066-1.0116zm-22.079 2.9112c-2.5652 1.7456-0.39843 3.4881 1.4816 2.7026-0.38596-1.0532-1.4642-1.7168-1.4816-2.7026zm48.455 2.9338c1.2799 0.64465-2.3455 1.7459-0.04983 2.8804 1.336 1.5679 0.83231 4.9336-1.3392 2.5515 0.40344-2.6596-2.9436-4.6458 1.389-5.432zm-6.5829 0.02257c-0.17367 1.7087 3.694 4.3647-0.47505 3.4979-2.2047 0.25811-5.507-0.06723-2.7294-2.8089 0.87765-0.52582 3.1821 1.8141 1.9829-0.37306 0.42514-0.02707 0.82108-0.18722 1.2216-0.31594zm-12.736 3.701c-1.6081 1.0339 1.112 1.8267 0 0zm-40.379 9.6363c-0.2711 0.90264 5.086 1.8174 1.3893 0.37126l-0.55107-0.19358zm4.1624 1.2863c-1.6249 1.6463 3.3478 0.49184 0 0zm54.337 15.098c-3.5307 0.09092-3.0613 9.1796-0.60013 3.8017 0.23341-1.167 1.1689-2.7073 0.60013-3.8017z" fill="#020901" fill-opacity=".59184" opacity=".85091"/>
</g>
<rect transform="matrix(.90692 0 0 .90043 -64.007 -19.402)" x="2" y="-30" width="92" height="92" rx="3.957" ry="3.957" clip-path="url(#clipPath4156-4-0)" fill="url(#linearGradient3448)" opacity=".49"/>
<rect transform="rotate(90)" x="-46.848" y="-21.277" width="72.882" height="4.0419" rx="0" ry="4.0419" fill="url(#radialGradient3450)" opacity=".55"/>
<rect x="-60.483" y="22.948" width="80.125" height="4.0358" rx="0" ry="4.0358" fill="url(#radialGradient3452)" opacity=".55"/>
</g>
<path d="m-23.803-36.776c-3.1059 0-5.6485 2.527-5.6485 5.6181v68.936c0 3.0912 2.5426 5.6181 5.6485 5.6181h76.528c3.1059 0 5.6485-2.527 5.6485-5.6181v-68.936c0-3.0912-2.5426-5.6181-5.6485-5.6181h-76.528zm0 2.308h76.528c1.8816 0 3.3405 1.4728 3.3405 3.3101v68.936c0 1.8374-1.4589 3.3101-3.3405 3.3101h-76.528c-1.8816 0-3.3405-1.4728-3.3405-3.3101v-68.936c0-1.8374 1.4589-3.3101 3.3405-3.3101z" color="#000000" fill-opacity=".87149" style="block-progression:tb;text-indent:0;text-transform:none"/>
</g>
</g>
</svg>
