<?xml version="1.0" encoding="UTF-8"?>
<!-- Created with Inkscape (http://www.inkscape.org/) -->
<svg version="1.1" viewBox="0 0 96 96" xmlns="http://www.w3.org/2000/svg" xmlns:cc="http://creativecommons.org/ns#" xmlns:dc="http://purl.org/dc/elements/1.1/" xmlns:rdf="http://www.w3.org/1999/02/22-rdf-syntax-ns#" xmlns:xlink="http://www.w3.org/1999/xlink">
<defs>
<style type="text/css">.ColorScheme-Text {
        color:#4d4d4d;
      }</style>
<linearGradient id="linearGradient4071" x1="6" x2="90" y1="47" y2="47" gradientTransform="matrix(1.1071 0 0 1.1071 -5.1429 -4.0357)" gradientUnits="userSpaceOnUse">
<stop stop-color="#b2b9bc" offset="0"/>
<stop stop-color="#fff" offset=".25"/>
<stop stop-color="#96a0a4" offset=".5"/>
<stop stop-color="#f9fafb" offset=".75"/>
<stop stop-color="#b2b9bc" offset="1"/>
</linearGradient>
<linearGradient id="linearGradient4129" x1="1.5" x2="94.5" y1="88.172" y2="88.172" gradientTransform="translate(-2.95e-6,2.6e-5)" gradientUnits="userSpaceOnUse">
<stop offset="0"/>
<stop stop-opacity=".58824" offset=".1"/>
<stop stop-opacity=".58824" offset=".9"/>
<stop offset="1"/>
</linearGradient>
<radialGradient id="radialGradient7462" cx="13.948" cy="44.893" r="43.199" gradientTransform="matrix(.97513 0 0 .049191 33.899 80.167)" gradientUnits="userSpaceOnUse" xlink:href="#linearGradient3737"/>
<linearGradient id="linearGradient3737">
<stop stop-color="#fff" offset="0"/>
<stop stop-color="#fff" stop-opacity="0" offset="1"/>
</linearGradient>
<radialGradient id="radialGradient7464" cx="13.948" cy="44.893" r="43.199" gradientTransform="matrix(.88833 0 0 .049191 31.545 -90.168)" gradientUnits="userSpaceOnUse" xlink:href="#linearGradient3737"/>
<linearGradient id="linearGradient4767" x1="2.7714" x2="50.528" y1="-28.642" y2="14.514" gradientUnits="userSpaceOnUse" xlink:href="#linearGradient3737"/>
<clipPath id="clipPath4156-4-1">
<path d="m27.046-55.695-14.214 13.321h0.06127l15.653 21.771 10.231-10.546c-0.2169-1.1522-11.311-23.67-11.732-24.546zm-17.399 16.313-14.888 14.062 21.229 17.515 10.385-10.577zm31.491 12.951-9.7413 9.7136 8.9448 12.458 7.7808-7.555zm-49.84 4.3788-13.754 12.982 26.283 13.846 0.06127-0.0617-0.12253-0.0617 9.8332-10.053-22.301-16.652zm38.015 7.4008-9.8025 9.7753 11.579 9.5594 7.6276-7.4008-8.6691-11.009zm20.187 5.674-7.3825 7.2158 6.1878 8.5418 5.8202-6.1365zm-32.195 6.3215-9.5575 9.4977 13.662 7.185 7.9339-7.6784zm23.312 2.3744-7.1068 6.9383 8.3628 6.9074 5.3608-5.674-0.06127-0.0925-0.0919 0.12335-6.4635-8.2026zm-8.7304 8.5418-7.5051 7.3392 10.354 5.4581c1.3975-1.321 5.6751-6.1229 5.8509-6.3215z" fill="#fff" opacity=".6"/>
</clipPath>
</defs>
<metadata>
<rdf:RDF>
<cc:Work rdf:about="">
<dc:format>image/svg+xml</dc:format>
<dc:type rdf:resource="http://purl.org/dc/dcmitype/StillImage"/>
<dc:title/>
</cc:Work>
</rdf:RDF>
</metadata>
<path d="m89.143 2.6e-5h-82.286c-3.7988 0-6.8571 3.0583-6.8571 6.8571v82.286c0 3.7989 3.0583 6.8571 6.8571 6.8571h82.286c3.7989 0 6.8571-3.0583 6.8571-6.8571v-82.286c0-3.7989-3.0583-6.8571-6.8571-6.8571z" opacity=".15"/>
<path d="m88.5 0.75003h-81c-3.7395 0-6.75 3.0105-6.75 6.75v81c0 3.7395 3.0105 6.75 6.75 6.75h81c3.7395 0 6.75-3.0105 6.75-6.75v-81c0-3.7395-3.0105-6.75-6.75-6.75z" opacity=".15"/>
<path d="m87.857 1.5h-79.714c-3.6801 0-6.6429 2.9627-6.6429 6.6429v79.714c0 3.6801 2.9627 6.6429 6.6429 6.6429h79.714c3.6801 0 6.6429-2.9627 6.6429-6.6429v-79.714c0-3.6801-2.9627-6.6429-6.6429-6.6429z" fill="url(#linearGradient4071)"/>
<path d="m11.241 6.3872c-2.8565 0-5.1241 2.2884-5.1241 5.171v68.58c1.0972 1.6845 2.9688 2.8117 5.1241 2.8117h73.787c2.1553 0 4.0269-1.1272 5.1241-2.8117v-68.58c0-2.8826-2.2676-5.171-5.1241-5.171z" fill="#dbdfe5" opacity=".979"/>
<path d="m9.8251 4.7295c-3.1166 0-5.668 2.5395-5.668 5.646v69.278c0 3.1065 2.5513 5.646 5.668 5.646h76.792c3.1166 0 5.668-2.5395 5.668-5.646v-69.278c0-3.1065-2.5513-5.646-5.668-5.646zm0 2.3194h76.792c1.8881 0 3.352 1.4801 3.352 3.3266v69.278c0 1.8465-1.4639 3.3266-3.352 3.3266h-76.792c-1.8881 0-3.352-1.4801-3.352-3.3266v-69.278c0-1.8465 1.4639-3.3266 3.352-3.3266z" color="#000000" fill="#1f2224" fill-opacity=".63265" style="text-decoration-line:none;text-indent:0;text-transform:none"/>
<path d="m1.5 81.844v6c0 3.6801 2.9761 6.6562 6.6562 6.6562h79.688c3.6801 0 6.6563-2.9761 6.6563-6.6562v-6c0 3.6801-2.9761 6.6562-6.6563 6.6562h-79.688c-3.6801 0-6.6562-2.9761-6.6562-6.6562z" fill="url(#linearGradient4129)" opacity=".65818"/>
<rect x="5.375" y="80.25" width="84.25" height="4.25" rx="4.25" ry="4.25" fill="url(#radialGradient7462)" opacity=".55"/>
<rect transform="rotate(90)" x="5.56" y="-90.085" width="76.75" height="4.25" rx="4.25" ry="4.25" fill="url(#radialGradient7464)" opacity=".669"/>
<g transform="matrix(1.2973 0 0 1.2975 7.0761 3.0838)" stroke-width=".77079">
<rect x="4" y="15" width="15" height="45" color="#000000" fill="#fff" fill-opacity=".53578"/>
<rect x="21" y="15" width="39" height="45" color="#000000" fill="#fff" fill-opacity=".53578"/>
<rect x="56" y="19" width="3" height="22" rx="1.1563" ry="1.1561" color="#000000" fill="#00122b" fill-opacity=".6586" stroke="#596273" stroke-width=".77079"/>
<rect transform="rotate(-90)" x="-59" y="25" width="3" height="22" rx="1.1561" ry="1.1563" color="#000000" fill="#00122b" fill-opacity=".6586" stroke="#596273" stroke-width=".77079"/>
<g transform="matrix(.5625 0 0 .5625 1.7324 4)" stroke="#596273">
<rect width="16" height="16" fill="#fff" fill-opacity=".44581" opacity=".001" stroke-width=".77079"/>
<path d="m5.4688 4.0312-1.4375 1.4375 2.5312 2.5312-2.5312 2.5312 1.4375 1.4375 2.5312-2.5312 2.5312 2.5312 1.4375-1.4375-2.5312-2.5312 2.5312-2.5312-1.4375-1.4375-2.5312 2.5312z" color="#000000" fill="#00122b" fill-opacity=".6586" stroke-width="1.3703" style="text-decoration-line:none;text-indent:0;text-transform:none"/>
</g>
<g transform="matrix(.5625 0 0 .5625 19.732 4)" stroke="#596273">
<rect width="16" height="16" fill="#fff" fill-opacity=".44581" opacity=".001" stroke-width=".77079"/>
<path d="m5 5v6h6v-6zm2 2h2v2h-2z" color="#000000" fill="#00122b" fill-opacity=".6586" stroke-width="1.3703" style="text-decoration-line:none;text-indent:0;text-transform:none"/>
</g>
<g transform="matrix(.5625 0 0 .5625 10.732 4)" stroke="#596273">
<rect width="16" height="16" fill="#fff" fill-opacity=".44581" opacity=".001" stroke-width=".77079"/>
<path d="m4 6.9671v2.0329h8v-2.0329z" color="#000000" fill="#00122b" fill-opacity=".6586" stroke-width="1.3703" style="text-decoration-line:none;text-indent:0;text-transform:none"/>
</g>
<g transform="matrix(.5625 0 0 .5625 53 4)" stroke="#596273">
<rect width="16" height="16" fill="#fff" fill-opacity=".44581" opacity=".001" stroke-width=".77079"/>
<path d="m6.5625 6.7344-2.5312 2.5312 1.4375 1.4375 2.5312-2.5312 2.5312 2.5312 1.4375-1.4375-2.5312-2.5312-1.4375-1.4375z" color="#000000" fill="#00122b" fill-opacity=".6586" stroke-width="1.3703" style="text-decoration-line:none;text-indent:0;text-transform:none"/>
</g>
<path d="m7 19v9h9v-9zm0 12v9h9v-9zm0 12v9h9v-9z" color="#000000" fill="#ef9a25"/>
<g transform="translate(1.2812 23.182)" color="#000000" fill="#00122b" fill-opacity=".6586">
<path d="m51.335 26.289c0.38358 1.9936-1.7674-1.3185-1.7e-5 1.4e-5m-1.1631 0.54588c0.3866 2.9823-1.3901-1.5613 0 0zm-0.75195-0.14454c0.95524 0.94036-0.28094-1.2212 0 0zm-0.41797-0.42578c1.5045 2.691-2.892-0.31717 1e-5 -4.8e-5m-0.51953 0.56641c1.2643-0.10148-1.0573-0.38293 0 0zm0.0957 0.48828c0.12701-2.2755-1.6266 0.06777 0 0zm-0.80469-0.48433c0.3866 2.9823-1.3901-1.5613 0 0zm-0.75196-0.14454c0.95524 0.94035-0.28095-1.2212 0 0zm-0.52148 0.5c-1.7422-0.51388 1.621-0.74183 0 0zm-1.3291 0.14648c-1.8916 1.4165 0.2883-1.7014 4.2e-5 -1e-5m-1.0879 0c-1.8789-0.43372 1.9888-1.11 0 0zm-2.7764-0.29394c1.05 0.12652-0.95449 0.25141 0 0zm-0.80274 0.14746c-1.7422-0.51388 1.621-0.74183 0 0zm-1.5771-1.3672c0.76899 0.0178-0.62664 0.26556 0 0zm-0.08984 0.58203c1.4152 0.82213-1.8593 0.34219 0 0zm-1.208-0.44824c1.3355 1.309-1.7621-0.06246 0 0zm-0.64844 0.87793c0.38659 2.9823-1.3901-1.5613 0 0zm-0.75196-0.14453c0.95524 0.94036-0.28094-1.2212 0 0zm-1.6172-0.42578c1.5045 2.691-2.892-0.31717 1e-5 -4.8e-5m-0.51953 0.56641c1.2643-0.10148-1.0573-0.38293 0 0zm0.0957 0.48828c0.12701-2.2755-1.6266 0.06777 0 0zm-1.0088 0.01763c-1.8916 1.4165 0.28831-1.7014 3.4e-5 -1e-5m-1.4473-1.5137c0.769 0.01773-0.6266 0.2656 0 0zm-0.08984 0.58203c1.4152 0.82213-1.8593 0.34219 0 0zm-0.69141-0.10253c1.3042 1.5922-1.6278-0.24136 0 0zm-2.0371 0.98633c-1.4949-0.87497 1.3214-0.24627 0 0zm-0.77931-1.4658c0.76899 0.01778-0.62664 0.26557 0 0zm-0.08984 0.58203c1.4152 0.82214-1.8593 0.34219 0 0zm-1.3955 0.79591c-1.2362-1.4922 1.7728 0.19248 0.12856 0.0479zm-9e-6 -0.44238c-1.9222 1.8059 1.0305 1.0252 0 0zm-0.91308-0.93554c0.769 0.01777-0.62663 0.26557 0 0zm-0.08985 0.58203c1.4152 0.82213-1.8593 0.34219 0 0zm-0.85157 0.78809c-1.4433-0.64381 1.5238-0.3744 0 0zm-0.0078-0.35059c1.9245-1.8027-1.0304-1.0291 0 0zm-1.1934 0.49414c-1.6271 0.05315 1.2502-1.0186 2.5e-5 2.9e-5m-0.04785-0.52441c-1.0846-0.98296 0.34262 1.4367-4e-5 -3.3e-5m20.595-3.0234c0.38362 1.9936-1.7674-1.3185-1.9e-5 1.4e-5m-1.1631 0.54588c0.3866 2.9823-1.3901-1.5613 0 0zm-0.7519-0.14454c0.95524 0.94035-0.28095-1.2212 0 0zm-0.61719 0.64649c-1.6707 0.45399 0.99315-1.2466-2.8e-5 5e-6m-1.1035-0.14649c-1.7422-0.51388 1.621-0.74183 0 0zm-1.125-0.35547c0.3866 2.9823-1.3901-1.5613 0 0zm-0.75196-0.14454c0.95524 0.94036-0.28094-1.2212 0 0zm-0.52148 0.5c-1.7422-0.51387 1.621-0.74184 0 0zm-1.1592-0.8877c1.3042 1.5922-1.6278-0.24136 0 0zm-1.165 0.53223c0.3866 2.9823-1.3901-1.5613 0 0zm-0.75195-0.14454c0.95524 0.94036-0.28094-1.2212 0 0zm-1.3193 0.59864c-1.4949-0.87497 1.3214-0.24627 0 0zm-0.53126 0.04784c-1.8916 1.4165 0.28831-1.7014 3.4e-5 -1e-5m-1.4698 0.01953c-1.9204-0.39692 1.5721-0.71443 0 0zm0.0039-0.14746c1.4708 0.04207-0.51478-0.79732-0.42897-0.2405zm-0.76269-0.90625c1.3042 1.5922-1.6278-0.24136 0 0zm-2.6826 0.77832c1.0186 0.62939-1.0567-0.14512 0 0zm-0.95506 0.1094c-1.7422-0.51388 1.621-0.74183 0 0zm-1.125-0.35547c0.3866 2.9823-1.3901-1.5613 0 0zm-0.75195-0.14454c0.95524 0.94036-0.28094-1.2212 0 0zm-0.56348 0.64649c-1.8139 0.14558 1.2485-1.3143 6e-5 0m-1.2794-3e-6c-1.6271 0.05315 1.2502-1.0186 2.5e-5 2.9e-5m-0.04785-0.52441c-1.0846-0.98296 0.34262 1.4367-4e-5 -3.3e-5m24.154-2.1221c-1.7422-0.51387 1.621-0.74184 0 0zm-1.5771-1.3672c0.769 0.01773-0.6266 0.2656 0 0zm-0.08984 0.58203c1.4152 0.82213-1.8593 0.34219 0 0zm-1.5293 0.88379c-1.4947-0.87513 1.3214-0.24608 0 2e-5m-1.5625-1c0.38363 1.9936-1.7674-1.3184-1.8e-5 1.4e-5m-1.6377 1.0674c-1.9204-0.39692 1.5721-0.71443 0 0zm0.0039-0.14746c1.4708 0.04207-0.51478-0.79732-0.42897-0.2405zm-1.2793-1.252c1.3355 1.309-1.7621-0.06246 0 0zm-1.123 1.3994c-1.9204-0.39692 1.5721-0.71444 0 0zm0.0039-0.14746c1.4708 0.04208-0.51477-0.79732-0.42897-0.2405zm-0.92284-0.01563c-1.4433-0.64381 1.5238-0.3744 0 0zm-0.0078-0.35059c1.9245-1.8027-1.0304-1.0291 0 0zm-2.3125 0.49414c-1.8139 0.14559 1.2485-1.3143 7e-5 0m-1.253-3e-6c-1.6707 0.45399 0.99315-1.2466-2.8e-5 4e-6m-1.9013-0.04785c-1.4947-0.87509 1.3214-0.24613 0 2e-5m-1.0654-0.0879c-1.2362-1.4922 1.7728 0.19248 0.12856 0.0479zm-9e-6 -0.44238c-1.9222 1.8059 1.0305 1.0252 0 0zm-0.91306-0.93555c0.769 0.01778-0.62663 0.26557 0 0zm-0.08985 0.58203c1.4152 0.82213-1.8593 0.34219 0 0zm-1.9727 0.93164c-1.8139 0.1456 1.2485-1.3143 6e-5 1e-5m-1.0831-0.50195c0.38659 2.9823-1.3901-1.5613 0 0zm-0.75194-0.14455c0.95524 0.94036-0.28094-1.2212 0 0zm-0.4834-0.40136c0.38363 1.9936-1.7674-1.3184-1.8e-5 1.4e-5m-1.6377 1.0674c-1.9204-0.39692 1.5721-0.71444 0 0zm0.0039-0.14746c1.4708 0.04208-0.51477-0.79732-0.42897-0.2405zm-1.5713 0.12793c-1.8926 0.41977 1.1196-1.1709 0 0zm28.389-8.0479c0.38365 1.9936-1.7675-1.3184-1.7e-5 1.4e-5m-1.1631 0.54588c0.3866 2.9823-1.3901-1.5613 0 0zm-0.75195-0.14454c0.95524 0.94036-0.28094-1.2212 0 0zm-0.41797-0.42578c1.5045 2.691-2.892-0.31717 1e-5 -4.8e-5m-0.51953 0.56641c1.2643-0.10148-1.0573-0.38293 0 0zm0.0957 0.48828c0.12701-2.2755-1.6266 0.06777 0 0zm-0.80469-0.48433c0.3866 2.9823-1.3901-1.5613 0 0zm-0.75196-0.14454c0.95524 0.94035-0.28095-1.2212 0 0zm-0.52148 0.5c-1.7422-0.51388 1.621-0.74183 0 0zm-1.3291 0.14648c-1.8916 1.4165 0.2883-1.7014 4.2e-5 -1e-5m-1.0879 0c-1.8789-0.43372 1.9888-1.11 0 0zm-2.7764-0.29394c1.05 0.12652-0.95449 0.25141 0 0zm-0.80274 0.14746c-1.7422-0.51388 1.621-0.74183 0 0zm-1.5771-1.3672c0.76899 0.0178-0.62664 0.26556 0 0zm-0.08984 0.58203c1.4152 0.82213-1.8593 0.34219 0 0zm-1.208-0.44824c1.3355 1.309-1.7621-0.06246 0 0zm-0.64844 0.87793c0.38659 2.9823-1.3901-1.5613 0 0zm-0.75196-0.14453c0.95524 0.94036-0.28094-1.2212 0 0zm-1.6172-0.42578c1.5045 2.691-2.892-0.31717 1e-5 -4.8e-5m-0.51953 0.56641c1.2643-0.10148-1.0573-0.38293 0 0zm0.0957 0.48828c0.12701-2.2755-1.6266 0.06777 0 0zm-1.0088 0.01763c-1.8916 1.4165 0.28831-1.7014 3.4e-5 -1e-5m-1.4473-1.5137c0.769 0.01773-0.6266 0.2656 0 0zm-0.08984 0.58203c1.4152 0.82213-1.8593 0.34219 0 0zm-0.69141-0.10253c1.3042 1.5922-1.6278-0.24136 0 0zm-2.0371 0.98633c-1.4948-0.87497 1.3214-0.24627 0 1e-5zm-0.77931-1.4658c0.76899 0.01778-0.62664 0.26557 0 0zm-0.08984 0.58203c1.4152 0.82214-1.8593 0.34219 0 0zm-1.3955 0.7959c-1.2362-1.4922 1.7728 0.19248 0.12856 0.0479zm-9e-6 -0.44238c-1.9222 1.8059 1.0305 1.0252 0 0zm-0.91308-0.93554c0.769 0.01778-0.62663 0.26557 0 0zm-0.08985 0.58203c1.4152 0.82213-1.8593 0.34219 0 0zm-0.85157 0.78809c-1.4433-0.64381 1.5238-0.3744 0 0zm-0.0078-0.35059c1.9245-1.8027-1.0304-1.0291 0 0zm-1.1934 0.49414c-1.6271 0.05315 1.2502-1.0186 2.5e-5 2.9e-5m-0.04785-0.52441c-1.0846-0.98296 0.34262 1.4367-4e-5 -3.3e-5m20.595-3.0234c0.38362 1.9936-1.7674-1.3185-1.9e-5 1.4e-5m-1.1631 0.54588c0.3866 2.9823-1.3901-1.5613 0 0zm-0.7519-0.14454c0.95524 0.94035-0.28095-1.2212 0 0zm-0.61719 0.64649c-1.6707 0.45399 0.99315-1.2466-2.7e-5 4e-6m-1.1035-0.14649c-1.7422-0.51388 1.621-0.74183 0 0zm-1.125-0.35547c0.3866 2.9823-1.3901-1.5613 0 0zm-0.75196-0.14454c0.95524 0.94036-0.28094-1.2212 0 0zm-0.52148 0.5c-1.7422-0.51387 1.621-0.74184 0 0zm-1.1592-0.8877c1.3042 1.5922-1.6278-0.24136 0 0zm-1.165 0.53223c0.3866 2.9823-1.3901-1.5613 0 0zm-0.75195-0.14454c0.95524 0.94036-0.28094-1.2212 0 0zm-1.3193 0.59864c-1.4948-0.87497 1.3214-0.24627 0 1e-5zm-0.53126 0.04785c-1.8916 1.4165 0.28831-1.7014 3.4e-5 -1e-5m-1.4698 0.01953c-1.9204-0.39692 1.5721-0.71444 0 0zm0.0039-0.14746c1.4708 0.04207-0.51478-0.79732-0.42897-0.2405zm-0.76269-0.90625c1.3042 1.5922-1.6278-0.24136 0 0zm-2.6826 0.77832c1.0186 0.62939-1.0567-0.14513 0 0zm-0.95506 0.10939c-1.7422-0.51388 1.621-0.74183 0 0zm-1.125-0.35547c0.3866 2.9823-1.3901-1.5613 0 0zm-0.75195-0.14454c0.95524 0.94036-0.28094-1.2212 0 0zm-0.56348 0.64649c-1.8139 0.14557 1.2486-1.3143 6e-5 0m-1.2794-3e-6c-1.6271 0.05315 1.2502-1.0186 2.5e-5 2.9e-5m-0.04785-0.52441c-1.0846-0.98296 0.34262 1.4367-4e-5 -3.3e-5m24.154-2.1221c-1.7422-0.51387 1.621-0.74184 0 0zm-1.5771-1.3672c0.76899 0.017762-0.62662 0.26558 0 0zm-0.08984 0.58203c1.4152 0.82213-1.8593 0.34219 0 0zm-1.5293 0.88379c-1.4947-0.87511 1.3214-0.24609 0 2e-5m-1.5625-1c0.38363 1.9936-1.7674-1.3184-1.8e-5 1.4e-5m-1.6377 1.0674c-1.9204-0.39691 1.5721-0.71444 0 0zm0.0039-0.14746c1.4708 0.04207-0.51478-0.79732-0.42897-0.2405zm-1.2793-1.252c1.3355 1.309-1.7621-0.062458 0 0zm-1.123 1.3994c-1.9204-0.39692 1.5721-0.71443 0 0zm0.0039-0.14746c1.4708 0.04208-0.51478-0.79732-0.42897-0.2405zm-0.92284-0.01563c-1.4433-0.6438 1.5238-0.37441 0 0zm-0.0078-0.35058c1.9245-1.8026-1.0304-1.0292 0 0zm-2.3125 0.49414c-1.8139 0.14557 1.2485-1.3143 8e-5 1e-5m-1.253-3e-6c-1.6707 0.454 0.99314-1.2466-2.9e-5 3e-6m-1.9013-0.04786c-1.4949-0.87495 1.3214-0.24631 0 1e-5zm-1.0654-0.08789c-1.2463-1.4828 1.7697 0.17667 0.12783 0.04662zm-9e-6 -0.44238c-1.9222 1.806 1.0305 1.0252 0 0zm-0.91307-0.93555c0.76899 0.017777-0.62663 0.26557 0 0zm-0.08985 0.58203c1.4152 0.82213-1.8593 0.34219 0 0zm-1.9727 0.93164c-1.8139 0.14558 1.2485-1.3143 7e-5 0m-1.0831-0.50196c0.38659 2.9823-1.3901-1.5613 0 0zm-0.75196-0.14453c0.95524 0.94036-0.28094-1.2212 0 0zm-0.4834-0.40136c0.38363 1.9936-1.7674-1.3184-1.8e-5 1.4e-5m-1.6377 1.0674c-1.9204-0.39691 1.5721-0.71444 0 0zm0.0039-0.14746c1.4708 0.04208-0.51478-0.79732-0.42897-0.2405zm-1.5713 0.12793c-1.8926 0.41977 1.1196-1.1709 0 0zm28.389-8.0479c0.38365 1.9936-1.7674-1.3184-1.7e-5 1.4e-5m-1.1631 0.54588c0.38659 2.9823-1.3901-1.5613 0 0zm-0.75195-0.14454c0.95524 0.94036-0.28095-1.2212 0 0zm-0.41797-0.42578c1.5045 2.691-2.892-0.31718 1e-5 -4.8e-5m-0.51953 0.56641c1.2643-0.10148-1.0573-0.38293 0 0zm0.0957 0.48828c0.12702-2.2755-1.6266 0.067768 0 0zm-0.80469-0.48433c0.3866 2.9823-1.3901-1.5613 0 0zm-0.75195-0.14454c0.95524 0.94036-0.28095-1.2212 0 0zm-0.52149 0.5c-1.7421-0.51395 1.6211-0.74178 0 0zm-1.3291 0.14648c-1.8916 1.4165 0.2883-1.7014 3.4e-5 3e-7m-1.0879 0c-1.8789-0.43373 1.9889-1.11 0 0zm-2.7764-0.29394c1.05 0.12653-0.95449 0.2514 0 0zm-0.80274 0.14746c-1.7422-0.51395 1.6211-0.74179 0 0zm-1.5771-1.3672c0.76899 0.017791-0.62664 0.26556 0 0zm-0.08984 0.58203c1.4152 0.82213-1.8593 0.34219 0 0zm-1.208-0.44824c1.3355 1.309-1.7621-0.062461 0 0zm-0.64844 0.87793c0.38659 2.9823-1.3901-1.5613 0 0zm-0.75195-0.14454c0.95524 0.94036-0.28094-1.2212 0 0zm-1.6172-0.42578c1.5045 2.691-2.892-0.31717 1e-5 -4.8e-5m-0.51953 0.56641c1.2643-0.10148-1.0573-0.38293 0 0zm0.0957 0.48828c0.12702-2.2755-1.6266 0.067768 0 0zm-1.0088 0.017626c-1.8916 1.4165 0.28827-1.7014 3e-5 0m-1.4473-1.5137c0.76899 0.017762-0.62662 0.26558 0 0zm-0.08984 0.58203c1.4152 0.82213-1.8593 0.34219 0 0zm-0.69141-0.10254c1.3042 1.5922-1.6278-0.24136 0 0zm-2.0371 0.98633c-1.4948-0.875 1.3214-0.24624 0 1.3e-5m-0.7793-1.4658c0.76899 0.017767-0.62662 0.26558 0 0zm-0.08984 0.58203c1.4152 0.82213-1.8593 0.34219 0 0zm-1.3955 0.7959c-1.2361-1.4922 1.7728 0.19252 0.12856 0.047899zm-9e-6 -0.44238c-1.9222 1.806 1.0305 1.0251 0 0zm-0.91307-0.93555c0.76899 0.017777-0.62663 0.26557 0 0zm-0.08985 0.58203c1.4152 0.82213-1.8593 0.34219 0 0zm-0.85156 0.78809c-1.4433-0.6439 1.5239-0.37434 0 0zm-0.0078-0.35059c1.9246-1.8025-1.0303-1.0294 0 0zm-1.1934 0.49414c-1.6271 0.053158 1.2502-1.0186 2.4e-5 3.06e-5m-0.04785-0.52441c-1.0846-0.98297 0.34261 1.4367-4e-5 -3.05e-5m20.595-3.0234c0.38362 1.9936-1.7675-1.3185-1.9e-5 1.4e-5m-1.1631 0.54588c0.3866 2.9823-1.3901-1.5613 0 0zm-0.75195-0.14454c0.95524 0.94036-0.28094-1.2212 0 0zm-0.61719 0.64649c-1.6706 0.45402 0.99318-1.2466 3e-6 3.94e-6zm-1.1035-0.14648c-1.7422-0.51393 1.6211-0.74179 0 0zm-1.125-0.35547c0.38659 2.9822-1.3901-1.5613 0 0zm-0.75195-0.14454c0.95524 0.94036-0.28094-1.2212 0 0zm-0.52148 0.5c-1.7422-0.51393 1.6211-0.7418 0 0zm-1.1592-0.8877c1.3042 1.5922-1.6278-0.24136 0 0zm-1.165 0.53223c0.3866 2.9823-1.3901-1.5613 0 0zm-0.75195-0.14454c0.95524 0.94036-0.28095-1.2212 0 0zm-1.3193 0.59864c-1.4948-0.875 1.3214-0.24623 0 1.301e-5m-0.53126 0.047838c-1.8917 1.4164 0.28836-1.7014 4.8e-5 -3e-7m-1.4698 0.019532c-1.9204-0.3969 1.5721-0.71445 0 0zm0.0039-0.14746c1.4708 0.042073-0.51478-0.79732-0.42897-0.2405zm-0.76269-0.90625c1.0114 1.3274-1.5388-0.3241 0 0zm-2.6826 0.77832c1.0186 0.62938-1.0567-0.14509 0 0zm-0.95508 0.10938c-1.7422-0.51393 1.6211-0.7418 0 0zm-1.125-0.35547c0.38659 2.9822-1.3901-1.5613 0 0zm-0.75195-0.14454c0.95524 0.94036-0.28095-1.2212 0 0zm-0.56348 0.64649c-1.8139 0.14558 1.2485-1.3143 7e-5 3.1e-6m-1.2794-3e-6c-1.6271 0.053156 1.2502-1.0186 2.4e-5 3.097e-5m-0.04785-0.52441c-1.0846-0.98297 0.34261 1.4367-4e-5 -3.096e-5m24.154-2.1221c-1.7422-0.51395 1.6211-0.74179 0 0zm-1.5771-1.3672c0.76899 0.017762-0.62662 0.26558 0 0zm-0.08984 0.58203c1.4152 0.82213-1.8593 0.34219 0 0zm-1.5293 0.88379c-1.4947-0.8751 1.3214-0.24611 0 1.3e-5m-1.5625-1c0.38364 1.9936-1.7675-1.3184-1.8e-5 1.4e-5m-1.6377 1.0674c-1.9204-0.3969 1.5721-0.71445 0 0zm0.0039-0.14746c1.4708 0.042073-0.51478-0.79732-0.42897-0.2405zm-1.2793-1.252c1.3355 1.309-1.7621-0.062461 0 0zm-1.123 1.3994c-1.9204-0.3969 1.5721-0.71445 0 0zm0.0039-0.14746c1.4708 0.042075-0.51478-0.79732-0.42897-0.2405zm-0.92284-0.015625c-1.4433-0.6439 1.5239-0.37434 0 0zm-0.0078-0.35059c1.9245-1.8026-1.0304-1.0292 0 0zm-2.3125 0.49414c-1.8139 0.14559 1.2485-1.3143 7e-5 3e-6m-1.253-3e-6c-1.6707 0.454 0.99314-1.2466-2.9e-5 3.7e-6m-1.9013-0.047855c-1.4947-0.87508 1.3214-0.24613 0 1.3e-5m-1.0654-0.087904c-1.2361-1.4922 1.7728 0.19252 0.12856 0.047899zm-9e-6 -0.44238c-1.9222 1.806 1.0305 1.0251 0 0zm-0.91308-0.93555c0.76899 0.017777-0.62663 0.26557 0 0zm-0.08985 0.58203c1.4152 0.82213-1.8593 0.34219 0 0zm-1.9727 0.93164c-1.8139 0.14558 1.2485-1.3143 7e-5 3e-6m-1.0831-0.50196c0.38659 2.9823-1.3901-1.5613 0 0zm-0.75196-0.14453c0.95524 0.94036-0.28094-1.2212 0 0zm-0.4834-0.40136c0.38363 1.9936-1.7674-1.3184-1.8e-5 1.4e-5m-1.6377 1.0674c-1.9204-0.3969 1.5721-0.71445 0 0zm0.0039-0.14746c1.4708 0.042075-0.51478-0.79732-0.42897-0.2405zm-1.5713 0.12793c-1.8926 0.41976 1.1196-1.1709 0 0z" color="#000000" fill="#00122b" fill-opacity=".6586"/>
</g>
</g>
<rect transform="matrix(1.0692 0 0 1.0477 4.2952 38.479)" x="2" y="-30" width="75.966" height="69.024" rx="3.957" ry="3.957" clip-path="url(#clipPath4156-4-1)" fill="url(#linearGradient4767)" opacity=".50781"/>
<g transform="translate(-70.315 71.595)"></g>
</svg>
