<?xml version="1.0" encoding="UTF-8"?>
<!-- Created with Inkscape (http://www.inkscape.org/) -->
<svg version="1.1" viewBox="0 0 96 96" xmlns="http://www.w3.org/2000/svg" xmlns:cc="http://creativecommons.org/ns#" xmlns:dc="http://purl.org/dc/elements/1.1/" xmlns:rdf="http://www.w3.org/1999/02/22-rdf-syntax-ns#" xmlns:xlink="http://www.w3.org/1999/xlink">
<title>Template-icon-for-Lila-HD-Icon-Theme,</title>
<defs>
<linearGradient id="linearGradient4213-7">
<stop stop-color="#fff" offset="0"/>
<stop stop-color="#fff" stop-opacity="0" offset="1"/>
</linearGradient>
<style type="text/css">.ColorScheme-Text {
        color:#4d4d4d;
      }</style>
<linearGradient id="linearGradient4071" x1="6" x2="90" y1="47" y2="47" gradientTransform="matrix(1.1071 0 0 1.1071 -4.9939 -3.6207)" gradientUnits="userSpaceOnUse">
<stop stop-color="#b2babc" offset="0"/>
<stop stop-color="#fff" offset=".25"/>
<stop stop-color="#96a1a4" offset=".5"/>
<stop stop-color="#f9fafb" offset=".75"/>
<stop stop-color="#b2b9bc" offset="1"/>
</linearGradient>
<linearGradient id="linearGradient4129" x1="1.5" x2="94.5" y1="88.172" y2="88.172" gradientTransform="translate(.14895 .41503)" gradientUnits="userSpaceOnUse">
<stop offset="0"/>
<stop stop-opacity=".58824" offset=".1"/>
<stop stop-opacity=".58824" offset=".9"/>
<stop offset="1"/>
</linearGradient>
<radialGradient id="radialGradient7462" cx="13.948" cy="44.893" r="43.199" gradientTransform="matrix(.97513 0 0 .049191 34.048 80.582)" gradientUnits="userSpaceOnUse" xlink:href="#linearGradient4213-7"/>
<radialGradient id="radialGradient7464" cx="13.948" cy="44.893" r="43.199" gradientTransform="matrix(.88833 0 0 .049191 31.96 -90.317)" gradientUnits="userSpaceOnUse" xlink:href="#linearGradient4213-7"/>
<linearGradient id="linearGradient4767" x1="2.7714" x2="50.528" y1="-28.642" y2="14.514" gradientUnits="userSpaceOnUse" xlink:href="#linearGradient4213-7"/>
<clipPath id="clipPath4156-4-1">
<path d="m27.046-55.695-14.214 13.321h0.06127l15.653 21.771 10.231-10.546c-0.2169-1.1522-11.311-23.67-11.732-24.546zm-17.399 16.313-14.888 14.062 21.229 17.515 10.385-10.577zm31.491 12.951-9.7413 9.7136 8.9448 12.458 7.7808-7.555zm-49.84 4.3788-13.754 12.982 26.283 13.846 0.06127-0.0617-0.12253-0.0617 9.8332-10.053-22.301-16.652zm38.015 7.4008-9.8025 9.7753 11.579 9.5594 7.6276-7.4008-8.6691-11.009zm20.187 5.674-7.3825 7.2158 6.1878 8.5418 5.8202-6.1365zm-32.195 6.3215-9.5575 9.4977 13.662 7.185 7.9339-7.6784zm23.312 2.3744-7.1068 6.9383 8.3628 6.9074 5.3608-5.674-0.06127-0.0925-0.0919 0.12335-6.4635-8.2026zm-8.7304 8.5418-7.5051 7.3392 10.354 5.4581c1.3975-1.321 5.6751-6.1229 5.8509-6.3215z" fill="#fff" opacity=".6"/>
</clipPath>
<radialGradient id="radialGradient3409" cx="63.938" cy="95.866" r="20.688" gradientTransform="matrix(.10812 -.11902 .69547 .63171 -30.076 1034.9)" gradientUnits="userSpaceOnUse">
<stop stop-color="#d0d0d0" offset="0"/>
<stop stop-color="#a1a1a1" offset="1"/>
</radialGradient>
<linearGradient id="linearGradient4378" x1="74.455" x2="45.494" y1="129.18" y2="128.3" gradientTransform="matrix(.31788 0 0 .31788 -794.68 733.91)" gradientUnits="userSpaceOnUse">
<stop offset="0"/>
<stop stop-color="#b0b0b0" offset=".44436"/>
<stop stop-color="#646464" offset=".70815"/>
<stop stop-color="#c8c8c8" offset=".70815"/>
<stop stop-color="#646464" offset=".70815"/>
<stop offset="1"/>
</linearGradient>
<filter id="filter6745" x="-.036001" y="-.035999" width="1.072" height="1.072" color-interpolation-filters="sRGB">
<feGaussianBlur stdDeviation="0.78679156"/>
</filter>
<radialGradient id="radialGradient4817" cx="28.743" cy="1073.1" r="13.999" gradientTransform="scale(1.0059 .99417)" gradientUnits="userSpaceOnUse">
<stop offset="0"/>
<stop stop-opacity=".58824" offset="1"/>
</radialGradient>
</defs>
<metadata>
<rdf:RDF>
<cc:Work rdf:about="">
<dc:format>image/svg+xml</dc:format>
<dc:type rdf:resource="http://purl.org/dc/dcmitype/StillImage"/>
<dc:title>Template-icon-for-Lila-HD-Icon-Theme,</dc:title>
<dc:date>2015.14.10</dc:date>
<dc:creator>
<cc:Agent>
<dc:title>Cristian Pozzessere "ilnanny"</dc:title>
</cc:Agent>
</dc:creator>
<dc:subject>
<rdf:Bag>
<rdf:li>Global language</rdf:li>
</rdf:Bag>
</dc:subject>
<dc:description>Templaate for new icon theme for gnu-linux and unix-like operations-systems.</dc:description>
<dc:contributor>
<cc:Agent>
<dc:title/>
</cc:Agent>
</dc:contributor>
<cc:license rdf:resource="http://creativecommons.org/licenses/by-sa/4.0/"/>
<dc:source>LFS</dc:source>
<dc:publisher>
<cc:Agent>
<dc:title>ilnanny</dc:title>
</cc:Agent>
</dc:publisher>
<dc:rights>
<cc:Agent>
<dc:title>ilnanny</dc:title>
</cc:Agent>
</dc:rights>
<dc:language>it_IT-UTF8 , en_US-UTF8</dc:language>
</cc:Work>
<cc:License rdf:about="http://creativecommons.org/licenses/by-sa/4.0/">
<cc:permits rdf:resource="http://creativecommons.org/ns#Reproduction"/>
<cc:permits rdf:resource="http://creativecommons.org/ns#Distribution"/>
<cc:requires rdf:resource="http://creativecommons.org/ns#Notice"/>
<cc:requires rdf:resource="http://creativecommons.org/ns#Attribution"/>
<cc:permits rdf:resource="http://creativecommons.org/ns#DerivativeWorks"/>
<cc:requires rdf:resource="http://creativecommons.org/ns#ShareAlike"/>
</cc:License>
</rdf:RDF>
</metadata>
<g transform="translate(0 -1026.5)">
<g transform="matrix(.99583 0 0 .99583 23.329 7.7012)">
<g transform="matrix(1.0042 0 0 1.0042 -23.427 -7.7335)">
<g transform="translate(-.14896 1026.1)">
<path d="m89.292 0.41503h-82.286c-3.7988 0-6.8571 3.0583-6.8571 6.8571v82.286c0 3.7989 3.0583 6.8571 6.8571 6.8571h82.286c3.7989 0 6.8571-3.0583 6.8571-6.8571v-82.286c0-3.7989-3.0583-6.8571-6.8571-6.8571z" opacity=".15"/>
<path d="m88.649 1.165h-81c-3.7395 0-6.75 3.0105-6.75 6.75v81c0 3.7395 3.0105 6.75 6.75 6.75h81c3.7395 0 6.75-3.0105 6.75-6.75v-81c0-3.7395-3.0105-6.75-6.75-6.75z" opacity=".15"/>
<path d="m88.006 1.915h-79.714c-3.6801 0-6.6429 2.9627-6.6429 6.6429v79.714c0 3.6801 2.9627 6.6429 6.6429 6.6429h79.714c3.6801 0 6.6429-2.9627 6.6429-6.6429v-79.714c0-3.6801-2.9627-6.6429-6.6429-6.6429z" fill="url(#linearGradient4071)"/>
<path d="m11.39 6.8022c-2.8565 0-5.1241 2.2884-5.1241 5.171v21.427 7.2394 39.914c1.0972 1.6845 2.9688 2.8117 5.1241 2.8117h4.0993 65.589 4.0993c2.1553 0 4.0269-1.1272 5.1241-2.8117v-39.914-7.2394-21.427c0-2.8826-2.2676-5.171-5.1241-5.171z" fill="#f5f3f3" opacity=".77865"/>
<path d="m9.974 5.1445c-3.1166 0-5.668 2.5395-5.668 5.646v69.278c0 3.1065 2.5513 5.646 5.668 5.646h76.792c3.1166 0 5.668-2.5395 5.668-5.646v-69.278c0-3.1065-2.5513-5.646-5.668-5.646zm0 2.3194h76.792c1.8881 0 3.352 1.4801 3.352 3.3266v69.278c0 1.8465-1.4639 3.3266-3.352 3.3266h-76.792c-1.8881 0-3.352-1.4801-3.352-3.3266v-69.278c0-1.8465 1.4639-3.3266 3.352-3.3266z" color="#000000" fill="#1f2224" fill-opacity=".63265" style="text-decoration-line:none;text-indent:0;text-transform:none"/>
<path d="m1.649 82.259v6c0 3.6801 2.9761 6.6562 6.6562 6.6562h79.687c3.6801 0 6.6563-2.9761 6.6563-6.6562v-6c0 3.6801-2.9761 6.6562-6.6563 6.6562h-79.687c-3.6801 0-6.6562-2.9761-6.6562-6.6562z" fill="url(#linearGradient4129)" opacity=".65818"/>
<rect x="5.524" y="80.665" width="84.25" height="4.25" rx="0" ry="4.25" fill="url(#radialGradient7462)" opacity=".55"/>
<rect transform="rotate(90)" x="5.975" y="-90.234" width="76.75" height="4.25" rx="0" ry="4.25" fill="url(#radialGradient7464)" opacity=".669"/>
<g transform="matrix(.99583 0 0 .99583 22.08 -1020.2)">
<g transform="matrix(.99916 -.04091 .04091 .99916 -40.59 4.3249)">
<path d="m13.568 1030.3c-16.988 0.8157-30.123 15.274-29.305 32.262 0.81302 16.987 15.271 30.122 32.26 29.306 16.988-0.8156 30.123-15.274 29.305-32.262-0.81302-16.988-15.271-30.122-32.26-29.307zm0.11178 2.3109c15.739-0.7557 29.082 11.368 29.835 27.106 0.75796 15.738-11.363 29.084-27.102 29.839-15.739 0.7556-29.084-11.368-29.837-27.106-0.75796-15.738 11.365-29.083 27.104-29.839z" color="#000000" color-rendering="auto" fill-opacity=".23381" image-rendering="auto" shape-rendering="auto" solid-color="#000000" style="isolation:auto;mix-blend-mode:normal;text-decoration-color:#000000;text-decoration-line:none;text-decoration-style:solid;text-indent:0;text-transform:none;white-space:normal"/>
<path d="m21.592 1089.3s12.359-5.7933 20.495 1.597l4.4151-4.7167c-8.2188-7.4654-3.1212-19.508-3.1212-19.508-1.4793 5.1711-1.9519 8.4579-7.2976 14.342-5.3781 5.9203-14.491 8.285-14.491 8.285z" fill="url(#radialGradient3409)" fill-rule="evenodd" stroke="#404141"/>
<rect transform="matrix(.67206 -.74049 .73991 .6727 0 0)" x="-779.26" y="762.18" width="7.3008" height="22.427" rx=".63576" ry=".63576" fill="url(#linearGradient4378)" stroke="#000" stroke-width=".62316"/>
<path d="m-13.429 1057.3a28.503 28.502 7.4379 1 0 56.527 7.3796 28.503 28.502 7.4379 1 0-56.527-7.3796z" fill="#fff" fill-opacity=".3813" stroke="#000" stroke-opacity=".61511" stroke-width="2.224"/>
<path d="m13.859 1034.9c-14.456 0.6941-25.633 12.998-24.936 27.453 0.69183 14.455 12.995 25.632 27.451 24.938 14.456-0.6941 25.633-12.998 24.936-27.453-0.69184-14.455-12.995-25.632-27.451-24.938zm0.09512 1.9665c13.393-0.6431 24.747 9.6731 25.388 23.065 0.64498 13.392-9.669 24.748-23.062 25.391-13.393 0.643-24.749-9.6729-25.39-23.065-0.64498-13.392 9.6707-24.748 23.064-25.391z" color="#000000" color-rendering="auto" fill="#fff" fill-opacity=".85252" filter="url(#filter6745)" image-rendering="auto" shape-rendering="auto" solid-color="#000000" style="isolation:auto;mix-blend-mode:normal;text-decoration-color:#000000;text-decoration-line:none;text-decoration-style:solid;text-indent:0;text-transform:none;white-space:normal"/>
</g>
<g transform="matrix(.91882 0 0 .91882 -15.189 174.36)">
<g transform="matrix(.791 0 0 .791 13.251 119.45)">
<rect x="14.744" y="1059.1" width="27.999" height="27.999" rx="2.1971" ry="2.3169" fill="url(#radialGradient4817)" style="paint-order:markers stroke fill"/>
<path transform="matrix(1.0929 0 0 1.0929 -6.6396 926.01)" d="m11.145 112.75c-0.40388 0-0.72852 0.34362-0.72852 0.76953v7.752c0 0.42591 0.32464 0.76954 0.72852 0.76954h3.918v25.197h-3.918c-0.40388 0-0.72852 0.34167-0.72852 0.76758v7.7539c0 0.4259 0.32464 0.76757 0.72852 0.76757h7.834c0.40388 0 0.72852-0.34167 0.72852-0.76757v-3.877h25.195v3.877c0 0.4259 0.32659 0.76757 0.73047 0.76757h7.832c0.40388 0 0.72852-0.34167 0.72852-0.76757v-7.7539c0-0.42591-0.32464-0.76758-0.72852-0.76758h-3.916v-25.197h3.916c0.40388 0 0.72852-0.34363 0.72852-0.76954v-7.752c0-0.42591-0.32464-0.76953-0.72852-0.76953h-7.832c-0.40388 0-0.73047 0.34362-0.73047 0.76953v3.877h-25.195v-3.877c0-0.42591-0.32464-0.76953-0.72852-0.76953z" fill="none" stroke="#515151" stroke-linecap="square" stroke-linejoin="bevel" stroke-opacity=".98956" stroke-width="1.8" style="paint-order:markers stroke fill"/>
</g>
</g>
</g>
<rect transform="matrix(1.0692 0 0 1.0477 4.4442 38.894)" x="2" y="-30" width="75.966" height="69.024" rx="3.957" ry="3.957" clip-path="url(#clipPath4156-4-1)" fill="url(#linearGradient4767)" opacity=".50781"/>
</g>
</g>
</g>
</g>
</svg>
