<?xml version="1.0" encoding="UTF-8"?>
<!-- Created with Inkscape (http://www.inkscape.org/) -->
<svg version="1.1" viewBox="0 0 96 96" xmlns="http://www.w3.org/2000/svg" xmlns:cc="http://creativecommons.org/ns#" xmlns:dc="http://purl.org/dc/elements/1.1/" xmlns:rdf="http://www.w3.org/1999/02/22-rdf-syntax-ns#" xmlns:xlink="http://www.w3.org/1999/xlink">
<title>Folder-Lila-HD-I</title>
<defs>
<linearGradient id="linearGradient4125">
<stop stop-color="#fff" offset="0"/>
<stop stop-color="#fff" stop-opacity="0" offset="1"/>
</linearGradient>
<linearGradient id="linearGradient3891" x1="6.25" x2="89.75" y1="80.625" y2="80.625" gradientTransform="matrix(1.115 0 0 1.1151 6.5966 1043.4)" gradientUnits="userSpaceOnUse">
<stop stop-color="#fff" stop-opacity="0" offset="0"/>
<stop stop-color="#fff" offset=".15"/>
<stop stop-color="#fff" offset=".85"/>
<stop stop-color="#fff" stop-opacity="0" offset="1"/>
</linearGradient>
<linearGradient id="linearGradient3893" x1="1.1209" x2="95.496" y1="84.063" y2="84.063" gradientTransform="matrix(.99266 0 0 .9812 12.165 1055.3)" gradientUnits="userSpaceOnUse">
<stop stop-color="#fff" stop-opacity=".031373" offset="0"/>
<stop stop-color="#fff" offset=".05"/>
<stop stop-color="#fff" stop-opacity=".023529" offset=".1"/>
<stop stop-color="#fff" stop-opacity=".28058" offset=".5"/>
<stop stop-color="#fefefe" stop-opacity=".015686" offset=".9"/>
<stop stop-color="#fff" offset=".95"/>
<stop stop-color="#fdfdfd" stop-opacity="0" offset="1"/>
</linearGradient>
<linearGradient id="linearGradient3391" x1="44.726" x2="22.635" y1="59.746" y2="34.832" gradientTransform="matrix(.99266 0 0 .9812 11.828 1054.9)" gradientUnits="userSpaceOnUse" xlink:href="#linearGradient4125"/>
<linearGradient id="linearGradient3889" x1="6.076" x2="89.924" y1="47.473" y2="47.473" gradientTransform="matrix(1.115 0 0 1.0365 -5.522 2.796)" gradientUnits="userSpaceOnUse">
<stop stop-color="#d8d8d8" stop-opacity="0" offset="0"/>
<stop stop-color="#fff" offset=".05"/>
<stop stop-color="#d8d8d8" stop-opacity="0" offset=".1"/>
<stop stop-color="#d8d8d8" stop-opacity="0" offset=".5"/>
<stop stop-color="#d8d8d8" stop-opacity="0" offset=".9"/>
<stop stop-color="#fff" offset=".95"/>
<stop stop-color="#d8d8d8" stop-opacity="0" offset="1"/>
</linearGradient>
<radialGradient id="radialGradient3885" cx="44.659" cy="-187.51" r="36.916" gradientTransform="matrix(1.6991 .0043381 -9.9579e-5 .013731 -31.242 -184.99)" gradientUnits="userSpaceOnUse" xlink:href="#linearGradient4125"/>
</defs>
<metadata>
<rdf:RDF>
<cc:Work rdf:about="">
<dc:format>image/svg+xml</dc:format>
<dc:type rdf:resource="http://purl.org/dc/dcmitype/StillImage"/>
<dc:title>Folder-Lila-HD-I</dc:title>
<dc:date>2017</dc:date>
<dc:creator>
<cc:Agent>
<dc:title>Cristian Pozzessere "ilnanny"</dc:title>
</cc:Agent>
</dc:creator>
<dc:subject>
<rdf:Bag>
<rdf:li>Global language</rdf:li>
</rdf:Bag>
</dc:subject>
<dc:description>Playing with Inkscape on Gnu/Linux O. S.</dc:description>
<dc:contributor>
<cc:Agent>
<dc:title>In the night, alone like a dog.</dc:title>
</cc:Agent>
</dc:contributor>
<cc:license rdf:resource="http://creativecommons.org/licenses/by-sa/4.0/"/>
</cc:Work>
<cc:License rdf:about="http://creativecommons.org/licenses/by-sa/4.0/">
<cc:permits rdf:resource="http://creativecommons.org/ns#Reproduction"/>
<cc:permits rdf:resource="http://creativecommons.org/ns#Distribution"/>
<cc:requires rdf:resource="http://creativecommons.org/ns#Notice"/>
<cc:requires rdf:resource="http://creativecommons.org/ns#Attribution"/>
<cc:permits rdf:resource="http://creativecommons.org/ns#DerivativeWorks"/>
<cc:requires rdf:resource="http://creativecommons.org/ns#ShareAlike"/>
</cc:License>
</rdf:RDF>
</metadata>
<g transform="translate(0 -1026.5)">
<g transform="translate(-12.119 -22.917)">
<path d="m101.26 1049.4h-82.286c-3.7989 0-6.8571 3.0583-6.8571 6.8571v82.286c0 3.7988 3.0583 6.8571 6.8571 6.8571h82.286c3.7989 0 6.8571-3.0583 6.8571-6.8571v-82.286c0-3.7988-3.0583-6.8571-6.8571-6.8571z" enable-background="new" opacity=".15"/>
<path d="m100.83 1049.9h-81.429c-3.7593 0-6.7857 3.0264-6.7857 6.7857v81.429c0 3.7593 3.0264 6.7857 6.7857 6.7857h81.429c3.7593 0 6.7857-3.0264 6.7857-6.7857v-81.429c0-3.7593-3.0264-6.7857-6.7857-6.7857z" enable-background="new" opacity=".25"/>
</g>
</g>
<path d="m88.142 1.1657h-80.283c-3.7064 0-6.6903 2.984-6.6903 6.6906v80.287c0 3.7066 2.9839 6.6906 6.6903 6.6906h80.283c3.7064 0 6.6903-2.984 6.6903-6.6906v-80.287c0-3.7066-2.9839-6.6906-6.6903-6.6906z" enable-background="new" fill="#e0a55a" stroke="#6d6d6d" stroke-width=".33452"/>
<g transform="matrix(0 -1.0859 1.115 0 -.94838 206.75)" enable-background="new">
<path d="m117.22 6.0979c-3.921 0-7.125 3.204-7.125 7.125v60.562c0 3.921 3.204 7.125 7.125 7.125h61.562c3.921 0 7.125-3.204 7.125-7.125v-60.562c0-3.921-3.204-7.125-7.125-7.125z" color="#000000" enable-background="accumulate" opacity=".13718" style="text-decoration-line:none;text-indent:0;text-transform:none"/>
<path d="m117.22 6.8133c-3.3794 0-6.125 2.7457-6.125 6.125v61.562c0 3.3793 2.7456 6.125 6.125 6.125h61.562c3.3794 0 6.125-2.7457 6.125-6.125v-61.562c0-3.3793-2.7456-6.125-6.125-6.125z" color="#000000" enable-background="accumulate" opacity=".24549" style="text-decoration-line:none;text-indent:0;text-transform:none"/>
<path d="m183.7 12.925c0-2.8428-2.242-5.1189-5.0262-5.1189h-30.722c2.7842 0 5.0262 2.2761 5.0262 5.1189v61.594c0 2.8428-2.242 5.1189-5.0262 5.1189h30.722c2.7842 0 5.0262-2.2761 5.0262-5.1189z" fill="#fdffeb" stroke="#b4b4b4" stroke-width=".4374"/>
<path d="m115.71 79.154v1c0.26183 2.5937 2.46 4.5938 5.125 4.5938h61.562c2.665 0 4.8632-2.0001 5.125-4.5938v-1c-0.26183 2.5937-2.46 4.5938-5.125 4.5938h-61.562c-2.665 0-4.8632-2.0001-5.125-4.5938z" fill="#fff" opacity=".4"/>
<path d="m116.69 7.8133c-2.5937 0.26183-4.5938 2.46-4.5938 5.125v0.46875c0.26183-2.5937 2.46-4.5938 5.125-4.5938h61.562c2.665 0 4.8632 2.0001 5.125 4.5938v-0.46875c0-2.8426-2.2824-5.125-5.125-5.125h-61.562c-0.17767 0-0.35834-0.017455-0.53125 0z" fill="#fff" opacity=".5"/>
<path d="m115.71 8.6425v-1c0.26183-2.5937 2.46-4.5938 5.125-4.5938h61.562c2.665 0 4.8632 2.0001 5.125 4.5938v1c-0.26183-2.5937-2.46-4.5938-5.125-4.5938h-61.562c-2.665 0-4.8632 2.0001-5.125 4.5938z" fill="#fff" opacity=".4"/>
<rect transform="rotate(90)" x="7.7431" y="-187.83" width="73.831" height=".90709" fill="url(#radialGradient3885)" opacity=".42599"/>
<path d="m183.73 12.934c0-2.8428-2.242-5.1189-5.0262-5.1189h-5.4216c2.7842 0 5.0262 2.2761 5.0262 5.1189v61.594c0 2.8428-2.242 5.1189-5.0262 5.1189h5.4216c2.7842 0 5.0262-2.2761 5.0262-5.1189z" fill="#e9ffdb" stroke="#b4b4b4" stroke-width=".4374"/>
<path d="m180.05 12.896c0-2.842-2.242-5.1174-5.0262-5.1174h-5.4216c2.7842 0 5.0262 2.2755 5.0262 5.1174v61.576c0 2.842-2.242 5.1174-5.0262 5.1174h5.4216c2.7842 0 5.0262-2.2755 5.0262-5.1174z" fill="#ffecfe" stroke="#b4b4b4" stroke-width=".43734"/>
<path d="m127.62 73.032v1.4688c0 2.8426 1.789 5.125 4.0171 5.125h48.254c2.2282 0 4.0171-2.2824 4.0171-5.125v-1.4688c-0.20523 2.5937-1.9282 4.5938-4.0171 4.5938h-48.254c-2.0889 0-3.8119-2.0001-4.0171-4.5938z" opacity=".138"/>
<path d="m112.09 13.748v-1.4688c0-2.8426 2.2824-5.125 5.125-5.125h61.562c2.8426 0 5.125 2.2824 5.125 5.125v1.4688c-0.26183-2.5937-2.46-4.5938-5.125-4.5938h-61.562c-2.665 0-4.8632 2.0001-5.125 4.5938z" opacity=".169"/>
</g>
<path d="m1.411 83.85c0 2.6997 3.0408 4.8731 6.8179 4.8731h79.542c3.7771 0 6.8179-2.1734 6.8179-4.8731v-50.355c0-2.6997-3.0408-4.8731-6.8179-4.8731h-43.393l-4.6873-5.5838c-1.1519-1.5193-3.4044-2.5381-6.0012-2.5381h-25.461c-3.7771 0-6.8179 2.1734-6.8179 4.8731z" enable-background="new" fill="#e0a55a" stroke="#6d6d6d" stroke-width=".29432"/>
<g transform="matrix(.99266 0 0 .9812 .64131 5.7613)" enable-background="new">
<g transform="matrix(.95639 0 0 .95639 -.66006 4.1581)" enable-background="new">
<path d="m51.059 25.646c-3.5967 1.5082-12.2 4.9726-8.7685 9.5142 0.63701 0.84374 1.6004 2.1195 1.8742 2.4378 0.26862 0.31834 0.06845 0.62604-0.1004 0.77874-0.17141 0.14494-3.6571 3.3194-3.8822 3.5213-0.05967 0.05223-0.15598 0.10569-0.23427 0.16929 0.27285 0.29202 0.54957 0.61172 0.83669 0.94803 0.29676 0.3494 0.67594-0.07157 0.90362-0.27087 0.22513-0.20189 3.7108-3.3763 3.8822-3.5213 0.16885-0.1527 0.36902-0.42654 0.1004-0.74488-0.27373-0.31834-1.2706-1.6279-1.9076-2.4717-4.6254-6.121 12.66-10.262 10.007-10.327-0.45968-0.01233-1.6509-0.02217-2.7109-0.03386zm17.269 0.57559c-0.09399 0.0122-0.18736 0.04852-0.30121 0.10158-0.11486 0.05353-0.45945 0.22934-0.70282 0.33858-0.37966 0.6236-1.698 2.9397-2.1754 3.8598-0.51165 0.98608-1.5313 2.438 1.4056 4.537 0.46048 0.33016 0.87913 0.54196 1.2718 0.67716-2.6042-1.9934-1.6667-3.413-1.1714-4.3677 0.51421-0.99126 2.0816-3.7526 2.3093-4.0968 0.19923-0.30572 0.02206-1.135-0.63588-1.0496zm7.7979 4.3c-0.22992-0.02556-0.49922 0.1697-0.66935 0.44016-0.03257 0.05227-0.18217 0.29056-0.23427 0.37244 0.15213 1.8256 0.17873 5.7292-0.90362 7.7874-1.3738 2.6244-3.6537 4.2393-7.8314 3.2843-1.9494-0.45034-4.1126 0.53257-5.1205 1.5575l-3.8153 3.6567 1.1044 1.2866 4.2169-4.063c1.008-1.0249 3.1711-2.0417 5.1205-1.5913 4.1777 0.95502 6.4576-0.62601 7.8314-3.2504 1.2331-2.3449 1.0286-7.2876 0.83669-8.5661-0.09466-0.63927-0.30556-0.88862-0.53548-0.91417zm-41.7 8.2276c-0.69908 0.0089-1.4295 0.29394-2.1754 0.88032-1.0438 0.81786-0.70407 2.8764-0.90362 3.0472-0.19443 0.18117-1.3544 1.2214-1.8072 1.6252-0.11256 0.10158-0.2655 0.1428-0.40161 0.16929 0.11789 0.13346 0.40053 0.46699 0.43508 0.50787 0.26862 0.31575 1.0223 0.57563 1.4726 0.16929 0.45281-0.40375 1.6128-1.4102 1.8072-1.5913 0.19955-0.17081-0.14016-2.2294 0.90362-3.0472 1.1119-0.87412 2.1359-1.0746 3.1794-0.71102-0.86112-0.66982-1.6831-1.0602-2.5101-1.0496zm13.42 2.8102c-0.1334-0.0082-0.23888 0.05048-0.36814 0.13543l20.382 23.972c0.49374 0.58233 0.43407 1.4591-0.13387 1.9638l-2.4766 2.0992c-0.22941 0.20268-0.52085 0.28336-0.80322 0.30472l0.36814 0.44016c0.49631 0.57716 1.3757 0.63494 1.9411 0.13543l2.4766-2.0992c0.56794-0.50469 0.6276-1.3814 0.13387-1.9638l-21.018-24.717c-0.1535-0.17988-0.32741-0.26019-0.50201-0.27087zm-2.0415 12.46-0.40161 0.4063 2.7443 3.1827-12.55 12.46c-0.27556 0.28012-0.64775 0.49284-1.004 0.54173l0.56895 0.57559c0.53212 0.54092 1.409 0.30392 1.9411-0.23701l12.55-12.494z" fill="#020202" fill-opacity=".45714"/>
<path d="m32.259 39.633c2.3869-1.8764 4.367-0.58233 7.0097 2.5131 0.29676 0.3494 0.69585-0.05952 0.92354-0.25882 0.22513-0.20189 3.7121-3.3775 3.8835-3.5225 0.16885-0.1527 0.37351-0.4374 0.10489-0.75574-0.27373-0.31834-1.2638-1.6176-1.9008-2.4613-4.6254-6.121 12.653-10.272 10-10.337-1.3508-0.03623-6.7692-0.10094-7.5802-0.01042-3.2823 0.3494-7.4036 3.4526-9.4784 4.8994-2.7143 1.879-3.7274 2.9815-3.8937 3.1342-0.76748 0.6781-0.12281 2.2439-1.5145 3.4785-1.471 1.3018-2.3894 0.31575-3.2413 1.0715-0.42211 0.37787-1.604 1.2734-1.9417 1.571-0.34025 0.30281-0.40165 0.81268-0.05374 1.219 0 0 3.2337 3.6131 3.5048 3.934 0.26862 0.31575 1.0003 0.5901 1.4505 0.18376 0.45282-0.40375 1.6168-1.4312 1.8113-1.6124 0.19955-0.17081-0.12791-2.2284 0.91586-3.0463zm14.603 1.3381c-0.307-0.35975-0.68818-0.3701-1.0156-0.07504l-3.6686 3.2404c-0.28909 0.25882-0.33002 0.73245-0.06908 1.0353l21.218 24.43c0.49631 0.57716 1.3559 0.63669 1.9213 0.13718l2.4815-2.1042c0.56794-0.50469 0.62678-1.3795 0.13304-1.9618l-21.001-24.701zm28.292-10.397c-0.18932-1.2785-0.84423-1.012-1.1845-0.47104-0.34025 0.5461-1.8445 2.8521-2.4636 3.8978-0.61398 1.0353-2.1285 3.0825-4.9477 1.0611-2.9369-2.099-1.9161-3.5639-1.4045-4.55 0.51421-0.99126 2.0927-3.7709 2.3204-4.1152 0.22769-0.3494-0.03837-1.364-0.94912-0.9395-0.91075 0.42446-6.4545 2.6529-7.222 5.8492-0.78539 3.2507 0.65748 6.1572-2.1745 9.043l-3.4358 3.6234 3.4511 4.053 4.2314-4.0634c1.008-1.0249 3.162-2.0213 5.1114-1.571 4.1777 0.95502 6.4571-0.63151 7.8309-3.2559 1.2331-2.3449 1.0284-7.283 0.83655-8.5616zm-43.908 35.362c-0.53212 0.54092-0.53212 1.4209 0 1.9618l2.4329 2.407c0.53212 0.54092 1.3764 0.31317 1.9085-0.22777l12.553-12.485-3.8451-4.4361z" fill="#fff" fill-opacity=".68771"/>
</g>
</g>
<g>
<g transform="matrix(1 0 0 .93315 0 6.3272)">
<g transform="translate(-11.94 -1049.6)">
<path d="m13.566 1129v2.2302c0 3.4905 3.0556 6.2725 6.8296 6.2725h79.447c3.774 0 6.8296-2.782 6.8296-6.2725v-2.2302c0 3.4905-3.0556 6.2724-6.8296 6.2724h-79.447c-3.774 0-6.8296-2.7819-6.8296-6.2724z" enable-background="new" fill="url(#linearGradient3891)" opacity=".83103"/>
<path d="m18.476 1132.6h83.286" enable-background="new" fill="none" opacity=".375" stroke="#000" stroke-width="1.7273px"/>
<path d="m18.476 1131.8h83.286" enable-background="new" fill="none" opacity=".435" stroke="#fff" stroke-width="1.7273px"/>
<path d="m18.476 1128.5h83.286" enable-background="new" fill="none" opacity=".375" stroke="#000" stroke-width="1.7273px"/>
<path d="m18.476 1127.7h83.286" enable-background="new" fill="none" opacity=".435" stroke="#fff" stroke-width="1.7273px"/>
<path d="m13.277 1131.4v6.2378c0 3.6782 2.9941 6.6333 6.7005 6.6333h80.281c3.7064 0 6.7004-2.9551 6.7004-6.6333v-6.2378c0 3.6782-2.994 6.6637-6.7004 6.6637h-80.281c-3.7064 0-6.7005-2.9855-6.7005-6.6637z" enable-background="new" opacity=".3"/>
<path d="m13.277 1131.4v6.2378c0 3.6782 2.9941 6.6333 6.7005 6.6333h80.281c3.7064 0 6.7004-2.9551 6.7004-6.6333v-6.2378c0 3.6782-2.994 6.6637-6.7004 6.6637h-80.281c-3.7064 0-6.7005-2.9855-6.7005-6.6637z" enable-background="new" fill="url(#linearGradient3893)" opacity=".95052"/>
<path d="m13.193 1132.3c0 2.895 3.0408 5.2256 6.8179 5.2256 49.601-40.026 39.172-32.106 79.542-64.449h-43.393l-4.6873-5.9877c-1.1519-1.6292-3.4044-2.7216-6.0012-2.7216h-25.461c-3.7771 0-6.8179 2.3306-6.8179 5.2256z" enable-background="new" fill="url(#linearGradient3391)" opacity=".332"/>
</g>
<path d="m1.411 83.354c0 2.895 3.0408 5.2256 6.8179 5.2256h79.542c3.7771 0 6.8179-2.3306 6.8179-5.2256v-53.998c0-2.895-3.0408-5.2257-6.8179-5.2257h-43.393l-4.6873-5.9876c-1.1519-1.6292-3.4044-2.7217-6.0012-2.7217h-25.461c-3.7771 0-6.8179 2.3306-6.8179 5.2256z" enable-background="new" fill="url(#linearGradient3889)" opacity=".381"/>
</g>
</g>
</svg>
