<?xml version="1.0" encoding="UTF-8"?>
<!-- Created with Inkscape (http://www.inkscape.org/) -->
<svg version="1.1" viewBox="0 0 96 96" xmlns="http://www.w3.org/2000/svg" xmlns:cc="http://creativecommons.org/ns#" xmlns:dc="http://purl.org/dc/elements/1.1/" xmlns:rdf="http://www.w3.org/1999/02/22-rdf-syntax-ns#" xmlns:xlink="http://www.w3.org/1999/xlink">
<title>Lila-HD-Icon-Theme</title>
<defs>
<linearGradient id="linearGradient3888-8-4-8-4-6-9-0-8-7-9">
<stop stop-color="#fff" offset="0"/>
<stop stop-color="#fff" stop-opacity="0" offset="1"/>
</linearGradient>
<linearGradient id="linearGradient4539" x1="-94" x2="-10.188" y1="82.984" y2="82.984" gradientTransform="matrix(1 0 0 .88906 200 8.9432)" gradientUnits="userSpaceOnUse">
<stop offset="0"/>
<stop stop-opacity=".58824" offset=".1"/>
<stop stop-opacity=".58824" offset=".9"/>
<stop offset="1"/>
</linearGradient>
<linearGradient id="linearGradient3980" x1="2.4652" x2="59.378" y1=".27862" y2=".27862" gradientTransform="matrix(1.0034 0 0 1.005 33.126 20.019)" gradientUnits="userSpaceOnUse" xlink:href="#linearGradient3888-8-4-8-4-6-9-0-8-7-9"/>
<linearGradient id="linearGradient5698" x1="6" x2="90" y1="47" y2="47" gradientTransform="matrix(1.1393 0 0 1.1393 -7.0493 -27.001)" gradientUnits="userSpaceOnUse">
<stop stop-color="#fff" stop-opacity="0" offset="0"/>
<stop stop-color="#fff" stop-opacity=".85135" offset=".036815"/>
<stop stop-color="#fff" stop-opacity="0" offset=".065061"/>
<stop stop-color="#fff" stop-opacity="0" offset=".94494"/>
<stop stop-color="#fff" stop-opacity=".85135" offset=".96582"/>
<stop stop-color="#fff" stop-opacity="0" offset="1"/>
</linearGradient>
<linearGradient id="linearGradient5411" x1="6" x2="90" y1="47" y2="47" gradientTransform="matrix(1.1393 0 0 1.1393 -7.0493 -27.001)" gradientUnits="userSpaceOnUse">
<stop stop-color="#b7b7b7" offset="0"/>
<stop stop-color="#fff" offset=".25"/>
<stop stop-color="#9d9d9d" offset=".5"/>
<stop stop-color="#fafafa" offset=".75"/>
<stop stop-color="#b7b7b7" offset="1"/>
</linearGradient>
<radialGradient id="radialGradient5619" cx="158" cy="6.2132" r="41" gradientTransform="matrix(0 1.6209 -2.0383 0 160.66 -243.04)" gradientUnits="userSpaceOnUse" xlink:href="#linearGradient3888-8-4-8-4-6-9-0-8-7-9"/>
<radialGradient id="radialGradient5621" cx="48" cy="-27" r="42" gradientTransform="matrix(-1.0722 0 0 -.87502 199.46 -19.126)" gradientUnits="userSpaceOnUse">
<stop stop-color="#fff" offset="0"/>
<stop stop-color="#fff" offset=".8"/>
<stop stop-color="#fff" stop-opacity="0" offset="1"/>
</radialGradient>
<radialGradient id="radialGradient4667" cx="-61.485" cy="21.802" r="54.125" gradientTransform="matrix(1.054 -.56724 .47392 .88057 -111.66 46.992)" gradientUnits="userSpaceOnUse">
<stop stop-color="#ebfaff" offset="0"/>
<stop stop-color="#1cbeff" offset="1"/>
</radialGradient>
<radialGradient id="radialGradient4734" cx="-64.128" cy="12.631" r="55.519" gradientTransform="matrix(.65555 .69048 -.72509 .68842 -114.93 136.65)" gradientUnits="userSpaceOnUse">
<stop stop-color="#86dfff" offset="0"/>
<stop stop-color="#1cbeff" offset="1"/>
</radialGradient>
<radialGradient id="radialGradient4703" cx="-81.303" cy="29.797" r="46.186" gradientTransform="translate(-102 88.437)" gradientUnits="userSpaceOnUse">
<stop stop-color="#fce5c8" offset="0"/>
<stop stop-color="#f3a33c" stop-opacity=".95556" offset="1"/>
</radialGradient>
</defs>
<metadata>
<rdf:RDF>
<cc:Work rdf:about="">
<dc:format>image/svg+xml</dc:format>
<dc:type rdf:resource="http://purl.org/dc/dcmitype/StillImage"/>
<dc:title>Lila-HD-Icon-Theme</dc:title>
<dc:date>2015-2019</dc:date>
<dc:creator>
<cc:Agent>
<dc:title>Cristian Pozzessere  == ilnanny ==</dc:title>
</cc:Agent>
</dc:creator>
<dc:subject>
<rdf:Bag>
<rdf:li>ilnanny</rdf:li>
<rdf:li>lila_hd</rdf:li>
<rdf:li>lila-hd</rdf:li>
<rdf:li>lila hd icon theme</rdf:li>
<rdf:li>Lila-HD-Icon-Theme lila hd icon lila icon</rdf:li>
</rdf:Bag>
</dc:subject>
<dc:coverage>CC-BY-SA</dc:coverage>
<dc:description>Playing with Inkscape on Gnu/Linux O. S.</dc:description>
<dc:contributor>
<cc:Agent>
<dc:title>In the night, alone like a dog.</dc:title>
</cc:Agent>
</dc:contributor>
<cc:license rdf:resource="http://creativecommons.org/licenses/by-sa/4.0/"/>
</cc:Work>
<cc:License rdf:about="http://creativecommons.org/licenses/by-sa/4.0/">
<cc:permits rdf:resource="http://creativecommons.org/ns#Reproduction"/>
<cc:permits rdf:resource="http://creativecommons.org/ns#Distribution"/>
<cc:requires rdf:resource="http://creativecommons.org/ns#Notice"/>
<cc:requires rdf:resource="http://creativecommons.org/ns#Attribution"/>
<cc:permits rdf:resource="http://creativecommons.org/ns#DerivativeWorks"/>
<cc:requires rdf:resource="http://creativecommons.org/ns#ShareAlike"/>
</cc:License>
</rdf:RDF>
</metadata>
<g transform="translate(0,32)">
<g transform="translate(.36363 -10.545)">
<path d="m88.651-21.305h-82.029c-3.787 0-6.8357 3.0487-6.8357 6.8357v82.029c0 3.787 3.0487 6.8357 6.8357 6.8357h82.029c3.787 0 6.8357-3.0487 6.8357-6.8357v-82.029c0-3.787-3.0487-6.8357-6.8357-6.8357z" fill="url(#linearGradient5411)"/>
<g transform="matrix(1.1393 0 0 1.1393 -120.98 -26.431)">
<path d="m112 5.5c-2.7873 0-5 2.2127-5 5v20.719 7 38.594c1.0707 1.6288 2.8969 2.7188 5 2.7188h4 64 4c2.1031 0 3.9293-1.09 5-2.7188v-38.594-7-20.719c0-2.7873-2.2127-5-5-5z" fill="url(#radialGradient5619)" opacity=".2"/>
<path d="m112 4.5c-3.324 0-6 2.676-6 6v15h1v-15c0-2.7873 2.2127-5 5-5h72c2.7873 0 5 2.2127 5 5v15h1v-15c0-3.324-2.676-6-6-6h-72z" fill="url(#radialGradient5621)" opacity=".45"/>
<path d="m106 76.942v0.88906 0.88906 0.88906 1.7781 1.7781c0 2.9552 2.676 5.3344 6 5.3344h72c3.324 0 6-2.3791 6-5.3344v-1.7781-1.7781-0.88906-0.88906-0.88906c0 2.9552-2.676 5.3344-6 5.3344h-72c-3.324 0-6-2.3791-6-5.3344z" fill="url(#linearGradient4539)" opacity=".46965"/>
</g>
<g transform="matrix(.98961 0 0 1.0556 -3.4511 -18.735)">
<circle transform="matrix(1.2467 0 0 1.0634 -54.59 -6.5568)" cx="70.373" cy="79.209" r="2.791" fill="#1c1c1c" opacity=".71"/>
<circle transform="matrix(1.0374 0 0 .91042 -39.857 5.3629)" cx="70.373" cy="79.209" r="2.791" fill="#fff"/>
<circle transform="matrix(.70317 0 0 .6171 -16.336 28.596)" cx="70.373" cy="79.209" r="2.791" fill="#114751"/>
<circle transform="matrix(1.2467 0 0 1.0634 -20.114 -6.5568)" cx="70.373" cy="79.209" r="2.791" fill="#1c1c1c" opacity=".71"/>
<circle transform="matrix(1.0374 0 0 .91042 -5.3813 5.3629)" cx="70.373" cy="79.209" r="2.791" fill="#fff"/>
<circle transform="matrix(.70317 0 0 .6171 18.139 28.596)" cx="70.373" cy="79.209" r="2.791" fill="#114751"/>
<rect transform="matrix(1.014 0 0 .95205 3.1886 -2.9106)" x="40.449" y="83.596" width="12.674" height="3.236" rx="1.1481" ry="1.1481" fill="#0c2f31" fill-opacity=".90455" opacity=".75097" stroke="#fff" stroke-width=".4999"/>
</g>
<path d="m7.4173 36.677c-1.8851 0-3.6495 0.91815-4.7591 2.2718v15.089c0 2.4045 2.1226 4.3402 4.7591 4.3402h80.905c2.6365 0 4.7591-1.9357 4.7591-4.3402v-15.089c-1.1096-1.3537-2.874-2.2718-4.7591-2.2718h-80.905zm0 3.2552h80.905c1.3594 0 2.3796 0.93033 2.3796 2.1701v11.936c0 1.2398-1.0201 2.1701-2.3796 2.1701h-80.905c-1.3594 0-2.3796-0.93033-2.3796-2.1701v-11.936c0-1.2398 1.0201-2.1701 2.3796-2.1701z" color="#000000" opacity=".02" style="block-progression:tb;text-decoration-line:none;text-indent:0;text-transform:none"/>
<path d="m7.4173-17.576h80.905c2.6365 0 4.7591 1.9357 4.7591 4.3402v67.273c0 2.4045-2.1226 4.3402-4.7591 4.3402h-80.905c-2.6365 0-4.7591-1.9357-4.7591-4.3402v-67.273c0-2.4045 2.1226-4.3402 4.7591-4.3402z" color="#000000" fill="#75b2ff"/>
<path d="m46.086-15.356c-4.0305 0.517-9.0226 1.2873-13.03 3.278-4.3066 1.0254-6.9129 6.2494-11.404 5.6635-2.3655 1.3413 0.30953 4.541-2.6109 5.9132-5.5476 7.6035-7.8792 17.515-6.0314 26.77 1.8158 0.43685 3.6315 0.8737 5.4473 1.3105 1.5602 6.1998 5.2825 11.801 10.273 15.774-4.9e-5 3.0945 0.09227 8.2781-4.3786 7.9197-2.7847-0.99846-5.5029 2.121-2.9305 4.2771 6.9712-0.26478 13.973-0.76912 20.95-0.10827 2.6141 0.77702 4.1027-0.67885 6.4707-0.51184 4.3558-0.18783 8.6526-1.2696 12.639-3.02 0.41918 2.7711 2.1529 4.5224 5.1899 3.2355 4.0244-0.21746 8.0332 0.40784 12.056 0.41661 2.3853-1.8769 0.20667-5.0636-2.4662-4.641-2.0065-0.82072-8.4392-3.4459-4.7408-5.5855 4.5497-4.2747 8.2509-10.19 9.929-16.43 1.2716-4.5878 1.5859-9.4409 0.84834-14.148-3.0231-0.33124-6.4109-0.65967-6.3799-4.3923-1.2573-3.7296-3.2679-7.1992-5.8564-10.162 2.348-1.4841 5.1622-2.1213 7.7722-2.7039 2.4105-2.4209-0.77264-5.2957-3.4616-3.7987-3.9864 0.34135-7.9936 0.4833-11.986 0.14508-2.4739-2.4063-7.8579-1.4838-8.6394-4.9576-0.15066-2.6261-0.52598-4.8312-3.7637-4.1299-1.2959-0.10758-2.5964-0.10064-3.8954-0.11344zm1.5137 2.0137c3.0331-0.5063 4.5567 0.81522 4.4794 3.9024 0.20231 3.3804 4.9902 1.9427 7.0284 3.8229 2.8002 2.2049 6.4128 1.5291 9.727 1.652 1.9945 0.11301 7.1944-0.7544 7.1909-0.12433-3.2825 0.50041-6.3903 1.8519-9.0799 3.7841 4.2423 4.1512 7.1853 9.6164 8.1777 15.479 2.7963 0.89846 6.5942 0.58542 5.5723 4.5703 0.02308 8.3942-3.3978 16.693-9.2031 22.736-1.1634-1.1634-2.3268-2.3268-3.4902-3.4902-1.055 1.3588-3.0991 2.4559-3.843 3.6787 0.79548 2.5821 2.4137 0.38874 3.6711-0.75875 1.6015 1.3207 2.9954 2.6959 0.17969 3.8652-1.8045 0.76927 0.76017 1.993 1.1714 2.9703 2.2004 2.4029 5.2322 3.9851 8.4321 4.5472-3.0237 0.45123-6.9967-0.43828-10.398-0.1813-2.5194 0.82416-3.4899-0.02577-4.0274-2.4609-0.60813-2.7382-3.2091 0.48397-4.915 0.48153-4.2005 1.4579-8.6977 2.0695-13.134 1.7349-2.4339 1.622-7.291-0.28276-10.595 0.23023-3.3522-0.19161-10.087 0.58303-11.48 0.26585 3.4612 0.27553 7.3822-1.6024 7.4-5.5026-0.16156-2.2129 1.5287-5.4702-1.1644-6.6222-4.6352-3.9274-7.9288-9.3958-9.2304-15.33-1.7526-0.42122-3.5052-0.84244-5.2578-1.2637-1.6548-9.7574 1.7182-20.111 8.457-27.297 1.1823 1.1823 2.3646 2.3646 3.5469 3.5469 1.1085-0.91089 2.023-1.8125 0.37704-2.7147-1.159-0.90386-1.9223-2.6909-3.5255-2.3888-2.9576-0.41397 2.7183 0.63267 2.7457-1.393 5.8719-4.9547 13.506-7.742 21.188-7.7401zm11.221 58.85c-3.5662 1.5659-7.4568 2.4048-11.35 2.4205-0.82176 2.7348 1.8983 1.9273 3.7049 1.7666 3.2774-0.42586 6.5165-1.3943 9.5098-2.8252-0.10058-2.2146-2.5929 0.85472-2.0871-0.63807 0.07243-0.23568 0.15304-0.50153 0.22213-0.72382zm-22.221 0.2793c0.17581 2.6774 0.79883 5.5831 3.2695 7.0574 0.96884 0.7572 0.30564-2.0985 0.56821-2.9048-0.27554-0.9883 0.83212-2.9875-0.65806-3.0881-1.0775-0.30057-2.124-0.69742-3.1797-1.0644z" color="#000000" color-rendering="auto" dominant-baseline="auto" fill="#fff" image-rendering="auto" opacity=".806" shape-rendering="auto" solid-color="#000000" stroke="#fff" stroke-linecap="round" stroke-width="2" style="font-feature-settings:normal;font-variant-alternates:normal;font-variant-caps:normal;font-variant-ligatures:normal;font-variant-numeric:normal;font-variant-position:normal;isolation:auto;mix-blend-mode:normal;paint-order:stroke fill markers;shape-padding:0;text-decoration-color:#000000;text-decoration-line:none;text-decoration-style:solid;text-indent:0;text-orientation:mixed;text-transform:none;white-space:normal"/>
<g transform="matrix(.5368 0 0 .5368 141.49 -39.281)">
<path d="m-175.36 56.169a54.125 54.125 0 0 0-38.248 15.879l76.494 76.494a54.125 54.125 0 0 0 15.879-38.248 54.125 54.125 0 0 0-54.125-54.125zm38.246 92.373c-0.46806 0.46865-0.95237 0.91759-1.4355 1.3672a54.125 54.125 0 0 0 1.4355-1.3672zm-78.828-73.992a54.125 54.125 0 0 0-1.2617 1.4648c0.40812-0.49742 0.8349-0.98096 1.2617-1.4648zm-3.4297 4.3164a54.125 54.125 0 0 0-0.99805 1.416c0.32027-0.47953 0.66205-0.9462 0.99805-1.416zm-2.9609 4.6191a54.125 54.125 0 0 0-0.75586 1.332c0.24052-0.44973 0.50254-0.88895 0.75586-1.332zm-2.502 4.9473a54.125 54.125 0 0 0-0.51367 1.1602c0.16218-0.39067 0.34237-0.77337 0.51367-1.1602zm-2.0117 5.2637a54.125 54.125 0 0 0-0.28711 0.86328c0.0885-0.29028 0.19377-0.57463 0.28711-0.86328zm-1.4356 5.3574a54.125 54.125 0 0 0-0.16796 0.76758c0.051-0.2571 0.11331-0.51142 0.16796-0.76758zm-0.89257 5.5645a54.125 54.125 0 0 0-0.0488 0.4375c0.0144-0.14628 0.0333-0.29142 0.0488-0.4375zm-0.18946 9.1406a54.125 54.125 0 0 0 0.0527 0.6914c-0.0175-0.23054-0.0381-0.46006-0.0527-0.6914zm0.65039 5.6113a54.125 54.125 0 0 0 0.0508 0.27539c-0.016-0.092-0.0352-0.18324-0.0508-0.27539zm2.8906 10.49a54.125 54.125 0 0 0 0.0391 0.10156c-0.0132-0.0338-0.0259-0.0677-0.0391-0.10156zm2.1894 4.9004a54.125 54.125 0 0 0 0.0879 0.17188c-0.0293-0.0573-0.0587-0.11449-0.0879-0.17188zm2.6328 4.6113a54.125 54.125 0 0 0 0.20507 0.32031c-0.069-0.10638-0.13683-0.21342-0.20507-0.32031zm3.0762 4.3359a54.125 54.125 0 0 0 0.32422 0.41015c-0.10905-0.13599-0.21647-0.27309-0.32422-0.41015zm3.5293 4.0566a54.125 54.125 0 0 0 0.3711 0.38867c-0.12534-0.12799-0.24703-0.25946-0.3711-0.38867zm3.9688 3.7422a54.125 54.125 0 0 0 0.32032 0.27735c-0.10824-0.0907-0.2128-0.18578-0.32032-0.27735zm69.312 0.65625c-0.48886 0.40047-0.98886 0.78382-1.4902 1.166a54.125 54.125 0 0 0 1.4902-1.166zm-64.871 2.7539a54.125 54.125 0 0 0 0.0977 0.0703c-0.0331-0.0227-0.0646-0.0476-0.0977-0.0703zm60.484 0.48242c-0.48047 0.31859-0.96924 0.62116-1.459 0.92383a54.125 54.125 0 0 0 1.459-0.92383zm-4.7109 2.7891c-0.44638 0.23484-0.89903 0.45753-1.3516 0.67969a54.125 54.125 0 0 0 1.3516-0.67969zm-4.9121 2.2734c-0.43247 0.17488-0.86778 0.34219-1.3047 0.50586a54.125 54.125 0 0 0 1.3047-0.50586zm-5.2129 1.8027c-0.36221 0.10506-0.7253 0.20716-1.0898 0.30468a54.125 54.125 0 0 0 1.0898-0.30468zm-5.3145 1.252c-0.32364 0.0593-0.64766 0.11839-0.97265 0.17187a54.125 54.125 0 0 0 0.97265-0.17187zm-5.4453 0.71484c-0.31039 0.0248-0.62042 0.0508-0.93164 0.0703a54.125 54.125 0 0 0 0.93164-0.0703z" fill="url(#radialGradient4667)" style="paint-order:stroke fill markers"/>
<path d="m-175.36 46.794c-1.9737 0.0084-3.9458 0.10873-5.9102 0.30078 1.9643-0.19205 3.9365-0.29242 5.9102-0.30078zm-5.9102 0.30078c-1.0614 0.11912-2.1197 0.265-3.1738 0.4375 1.0541-0.1725 2.1124-0.31838 3.1738-0.4375zm-3.1738 0.4375c-1.033 0.13156-2.0626 0.28851-3.0879 0.4707 1.0253-0.1822 2.0549-0.33914 3.0879-0.4707zm-3.0879 0.4707c-1.0459 0.22434-2.0859 0.47507-3.1191 0.75195 1.0332-0.27688 2.0733-0.52761 3.1191-0.75195zm-3.1191 0.75195c-1.0259 0.23632-2.0457 0.49812-3.0586 0.78516 1.0129-0.28703 2.0327-0.54883 3.0586-0.78516zm-3.0586 0.78516c-0.99406 0.32133-1.98 0.66713-2.957 1.0371 0.97699-0.36998 1.963-0.71578 2.957-1.0371zm-2.957 1.0371c-1.013 0.34178-2.0172 0.70908-3.0117 1.1016 0.99447-0.39248 1.9987-0.75979 3.0117-1.1016zm-3.0117 1.1016c-0.95806 0.41924-1.9056 0.86208-2.8418 1.3281 0.93619-0.46604 1.8837-0.90888 2.8418-1.3281zm-2.8418 1.3281c-0.97651 0.44229-1.9417 0.90924-2.8945 1.4004 0.95287-0.49115 1.918-0.9581 2.8945-1.4004zm-2.8945 1.4004c-0.90349 0.50871-1.7944 1.0395-2.6719 1.5918 0.8775-0.55233 1.7684-1.0831 2.6719-1.5918zm-2.6719 1.5918c-0.93285 0.54096-1.8518 1.1056-2.7559 1.6934 0.90409-0.58776 1.823-1.1524 2.7559-1.6934zm-2.7559 1.6934c-0.86518 0.60759-1.7151 1.2367-2.5488 1.8867 0.83377-0.65003 1.6836-1.2791 2.5488-1.8867zm-2.5488 1.8867c-0.85296 0.61646-1.6904 1.254-2.5117 1.9121 0.82127-0.65808 1.6588-1.2957 2.5117-1.9121zm-2.5117 1.9121c-1.5227 1.2579-2.9859 2.5862-4.3848 3.9805 1.3989-1.3943 2.8621-2.7226 4.3848-3.9805zm49.084-14.047c0.0839 0.5761 0.1757 1.151 0.27539 1.7246-0.0997-0.57358-0.1915-1.1485-0.27539-1.7246zm0.80274 4.5488c0.34681 1.7566 0.76776 3.4977 1.2617 5.2188-0.49396-1.721-0.91491-3.4622-1.2617-5.2188zm-54.473 13.664c-11.761 11.881-18.362 27.92-18.371 44.637 0.0244 3.4832 0.33533 6.9584 0.92969 10.391l10.041 2.4121c-1.0404-4.1887-1.5762-8.4868-1.5957-12.803 0.0175-14.228 5.6363-27.876 15.641-37.992zm98.318 34.773c1.6021 0.47982 3.2225 0.89616 4.8574 1.248-1.6349-0.35189-3.2553-0.76823-4.8574-1.248zm4.8574 1.248c1.624 0.38605 3.2627 0.70792 4.9121 0.96484-1.6494-0.25692-3.2881-0.57879-4.9121-0.96484zm5.4531 8.6152c-0.01 1.7193-0.0892 3.4375-0.23828 5.1504 0.14912-1.7129 0.22861-3.4311 0.23828-5.1504zm-0.56445 7.8438c-0.14049 1.2426-0.31765 2.4808-0.53125 3.7129 0.2136-1.2321 0.39076-2.4703 0.53125-3.7129zm-1.0293 5.9297c-0.28727 1.3555-0.61883 2.7013-0.99414 4.0352 0.37531-1.3338 0.70687-2.6796 0.99414-4.0352zm-1.5879 5.8203c-0.45653 1.4455-0.96467 2.8741-1.5234 4.2832 0.55877-1.4091 1.0669-2.8378 1.5234-4.2832zm-2.127 5.6348c-0.6467 1.5178-1.3523 3.0098-2.1152 4.4727 0.76291-1.4628 1.4685-2.9549 2.1152-4.4727zm-2.6543 5.4121c-0.8562 1.5688-1.7782 3.1008-2.7637 4.5918 0.98543-1.491 1.9075-3.023 2.7637-4.5918zm-3.1309 5.1055c-1.0826 1.5967-2.2375 3.1432-3.4609 4.6348 1.2234-1.4916 2.3783-3.0381 3.4609-4.6348zm-14.396 2.7559c-10.123 10.002-23.779 15.615-38.01 15.623-5.0204-0.0155-10.014-0.72933-14.838-2.1211l-0.31055 9.5938c4.9546 1.241 10.041 1.8798 15.148 1.9023 16.713-0.0187 32.746-6.626 44.619-18.389zm10.73 2.1113c-1.2985 1.5617-2.6712 3.0601-4.1133 4.4902 1.4421-1.4301 2.8148-2.9286 4.1133-4.4902z" fill="#f25f0c" opacity=".73" stroke="#fc0" stroke-linecap="round" stroke-opacity=".97407" stroke-width="2" style="paint-order:stroke fill markers"/>
<path d="m-175.11 46.557a63.5 63.5 0 0 0-45.129 18.863l89.748 89.748a63.5 63.5 0 0 0 18.881-45.111 63.5 63.5 0 0 0-0.54102-7.6504 63.5 63.5 0 0 1-54.418-55.199 63.5 63.5 0 0 0-8.541-0.65039z" fill="url(#radialGradient4734)" opacity=".73" stroke="#029" stroke-linecap="round" stroke-opacity=".77407" stroke-width="2" style="paint-order:stroke fill markers"/>
<path d="m-213.61 72.048c-10.153 10.14-15.864 23.897-15.877 38.246 0 29.892 24.233 54.125 54.125 54.125 14.349-0.0133 28.106-5.7241 38.246-15.877z" fill="url(#radialGradient4703)" style="paint-order:stroke fill markers"/>
<path d="m-327.94 176.47-15.09-20.712c-0.9863-1.2822-1.9726-2.5644-1.9726-3.3534 0-0.88767 0-1.3808 1.0849-2.8603l13.512-17.457c3.452-4.3397 7.989-6.9041 12.427-7.3972 0.59178-0.59178 0.59178-1.6767 0-2.2685-2.9589 0.0986-6.6082 0.49314-8.8767 0.49314s-6.4109-0.39451-10.356-0.49314c-0.59178 0.59177-0.59178 1.6767 0 2.2685 4.3397 0.29589 5.7205 2.1698 3.3534 5.4246l-12.131 17.26c-0.88767 1.3808-0.9863 1.4794-1.3808 1.4794-0.29589 0-0.78904-0.19726-1.5781-1.3808l-10.849-16.077c-2.8602-3.9452-3.9452-6.4109 1.5781-6.7068 0.59177-0.59178 0.59177-1.6767 0-2.2685-3.9452 0.0986-7.8904 0.49314-11.836 0.49314-3.8466 0-7.1013-0.39451-10.06-0.49314-0.59178 0.59177-0.49315 1.6767 0.0986 2.2685 4.1424 0.29589 7.2986 2.1698 11.342 7.8904l14.005 20.022c1.1836 1.7753 1.3808 1.9726 1.3808 2.9589 0 0.59178-0.0986 1.3808-0.78903 2.2685l-14.597 19.529c-3.3534 4.537-7.989 7.0027-12.427 7.3972-0.59177 0.59177-0.59177 1.6767 0 2.2685 2.9589-0.0986 6.6082-0.49315 8.8767-0.49315s6.4109 0.39452 10.356 0.49315c0.59178-0.59178 0.59178-1.6767 0-2.2685-4.3397-0.29589-5.7205-2.0712-3.3534-5.4246l13.019-18.246c0.78903-0.9863 1.2822-1.874 1.5781-1.874 0.39452 0 0.78904 0.59177 1.4794 1.5781l12.23 17.359c2.7616 4.0438 3.8466 6.3123-1.6767 6.6082-0.59177 0.59177-0.59177 1.6767 0 2.2685 3.9452-0.0986 7.8904-0.49315 11.836-0.49315 3.8466 0 7.1013 0.39452 10.06 0.49315 0.59178-0.59178 0.49315-1.6767-0.0986-2.2685-4.1424-0.29589-7.0027-2.4657-11.145-8.2849z" stroke-width="2.4657"/>
<path d="m-193.78 155.46c-0.34107-13.643-0.51161-21.488-0.51161-34.96 5.9688 0.17049 11.938 2.8991 15.519 7.3331l26.774 33.766c3.4108 4.434 5.7982 9.55 6.1393 12.279 0 0.5116 0.17048 1.0232 0.85268 1.0232 3.4107-0.17048 3.0696-0.85269 8.1857-0.85269 6.6509 0 10.914 0.68215 18.93 0.85269 1.0232-1.0232 1.0232-2.8991 0-3.9223-2.3384-0.38973-7.4478-1.4722-12.313-5.1322-1.5213-1.1445-3.0187-2.5411-4.3999-4.2473l-37.347-44.339c-1.3643-1.5348-2.217-2.8991-2.217-4.2634 0-1.1937 0.17048-2.3875 5.9688-8.3563l25.069-25.751c7.8447-8.3563 16.371-10.914 23.193-11.767 1.0232-1.0232 1.0232-2.8991 0-3.9223-8.0152 0.17048-11.085 0.85267-17.906 0.85267-6.8215 0-12.108-0.68213-20.123-0.85267-1.0232 1.0232-1.0232 2.8991 0 3.9223 6.1393 0.51161 13.472 3.4107 6.4804 11.085l-27.286 30.014c-3.5813 3.9223-9.209 6.992-15.519 7.5036 0-11.938 0.17048-20.123 0.51161-33.084 0.34108-14.155 2.8991-15.007 14.837-15.519 1.0232-1.0232 1.0232-2.8991 0-3.9223-8.3563 0.17048-13.643 0.85267-22.34 0.85267-8.5268 0-13.302-0.68213-21.829-0.85267-1.0232 1.0232-1.0232 2.8991 0 3.9223 11.938 0.51161 14.325 1.3643 14.666 15.519 0.34107 14.155 0.68214 22.511 0.68214 36.665 0 14.155-0.34107 21.999-0.68214 36.154-0.34108 14.155-2.7286 15.007-14.666 15.519-1.0232 1.0232-1.0232 2.8991 0 3.9223 8.3563-0.17048 13.472-0.85269 22.17-0.85269 8.5268 0 13.472 0.68215 21.999 0.85269 1.0232-1.0232 1.0232-2.8991 0-3.9223-11.938-0.51162-14.496-1.3643-14.837-15.519z" fill="#374562" stroke-width="4.2634"/>
</g>
<path d="m8.3615-16.774h79.017c2.575 0 4.648 1.8912 4.648 4.2405v65.727c0 2.3492-2.073 4.2405-4.648 4.2405h-79.017c-2.575 0-4.648-1.8912-4.648-4.2405v-65.727c0-2.3492 2.073-4.2405 4.648-4.2405z" color="#000000" fill="none" stroke="#000" stroke-opacity=".7758" stroke-width="2.2904"/>
<path d="m88.651-21.305h-82.029c-3.787 0-6.8357 3.0487-6.8357 6.8357v82.029c0 3.787 3.0487 6.8357 6.8357 6.8357h82.029c3.787 0 6.8357-3.0487 6.8357-6.8357v-82.029c0-3.787-3.0487-6.8357-6.8357-6.8357z" fill="url(#linearGradient5698)" opacity=".72794"/>
<path d="m35.599-17.678c8.3294 26.184 16.985 51.751 25.766 75.954h26.584c2.6365 0 4.7591-1.9357 4.7591-4.3402v-67.273c0-2.4045-2.1225-4.3402-4.7591-4.3402h-52.35z" color="#000000" fill="url(#linearGradient3980)" opacity=".30882"/>
</g>
</g>
</svg>
