<?xml version="1.0" encoding="UTF-8"?>
<svg version="1.1" viewBox="0 0 96 96" xmlns="http://www.w3.org/2000/svg" xmlns:cc="http://creativecommons.org/ns#" xmlns:dc="http://purl.org/dc/elements/1.1/" xmlns:rdf="http://www.w3.org/1999/02/22-rdf-syntax-ns#" xmlns:xlink="http://www.w3.org/1999/xlink">
<metadata>
<rdf:RDF>
<cc:Work rdf:about="">
<dc:format>image/svg+xml</dc:format>
<dc:type rdf:resource="http://purl.org/dc/dcmitype/StillImage"/>
<dc:title/>
</cc:Work>
</rdf:RDF>
</metadata>
<defs>
<linearGradient id="linearGradient10533" x1="2.4652" x2="59.378" y1=".27862" y2=".27862" gradientTransform="matrix(1.0034 0 0 1.005 36.035 -1.6177)" gradientUnits="userSpaceOnUse" xlink:href="#linearGradient3888-8-4-8-4-6-9-0-8-7-9"/>
<linearGradient id="linearGradient3888-8-4-8-4-6-9-0-8-7-9">
<stop stop-color="#fff" offset="0"/>
<stop stop-color="#fff" stop-opacity="0" offset="1"/>
</linearGradient>
<linearGradient id="linearGradient9234" x1="-30.363" x2="59.75" y1=".38068" y2=".38068" gradientTransform="matrix(1.0034 0 0 1.005 36.035 -1.6177)" gradientUnits="userSpaceOnUse">
<stop stop-color="#e4e4e4" offset="0"/>
<stop stop-color="#eee" offset="1"/>
</linearGradient>
<linearGradient id="linearGradient3120" x1="-94" x2="-10.188" y1="82.984" y2="82.984" gradientTransform="matrix(1 0 0 .88906 200 8.9432)" gradientUnits="userSpaceOnUse">
<stop offset="0"/>
<stop stop-opacity=".58824" offset=".1"/>
<stop stop-opacity=".58824" offset=".9"/>
<stop offset="1"/>
</linearGradient>
<linearGradient id="linearGradient11623" x1="6" x2="90" y1="47" y2="47" gradientTransform="matrix(1.1393 0 0 1.1393 -4.1403 -48.637)" gradientUnits="userSpaceOnUse">
<stop stop-color="#b7b7b7" offset="0"/>
<stop stop-color="#fff" offset=".25"/>
<stop stop-color="#9d9d9d" offset=".5"/>
<stop stop-color="#fafafa" offset=".75"/>
<stop stop-color="#b7b7b7" offset="1"/>
</linearGradient>
<radialGradient id="radialGradient11806" cx="158" cy="6.2132" r="41" gradientTransform="matrix(0 1.6209 -2.0383 0 160.66 -243.04)" gradientUnits="userSpaceOnUse" xlink:href="#linearGradient3888-8-4-8-4-6-9-0-8-7-9"/>
<radialGradient id="radialGradient11808" cx="48" cy="-27" r="42" gradientTransform="matrix(-1.0722 0 0 -.87502 199.46 -19.126)" gradientUnits="userSpaceOnUse">
<stop stop-color="#fff" offset="0"/>
<stop stop-color="#fff" offset=".8"/>
<stop stop-color="#fff" stop-opacity="0" offset="1"/>
</radialGradient>
<linearGradient id="linearGradient5698" x1="6" x2="90" y1="47" y2="47" gradientTransform="matrix(1.1393 0 0 1.1393 -4.1403 -48.637)" gradientUnits="userSpaceOnUse">
<stop stop-color="#fff" stop-opacity="0" offset="0"/>
<stop stop-color="#fff" stop-opacity=".85135" offset=".036815"/>
<stop stop-color="#fff" stop-opacity="0" offset=".065061"/>
<stop stop-color="#fff" stop-opacity="0" offset=".94494"/>
<stop stop-color="#fff" stop-opacity=".85135" offset=".96582"/>
<stop stop-color="#fff" stop-opacity="0" offset="1"/>
</linearGradient>
</defs>
<g transform="translate(-5e-8 32)">
<g transform="translate(-2.5455 11.091)">
<path d="m91.56-42.941h-82.029c-3.787 0-6.8357 3.0487-6.8357 6.8357v82.029c0 3.787 3.0487 6.8357 6.8357 6.8357h82.029c3.787 0 6.8357-3.0487 6.8357-6.8357v-82.029c0-3.787-3.0487-6.8357-6.8357-6.8357z" fill="url(#linearGradient11623)"/>
<g transform="matrix(1.1393 0 0 1.1393 -118.07 -48.068)">
<path d="m112 5.5c-2.7873 0-5 2.2127-5 5v20.719 7 38.594c1.0707 1.6288 2.8969 2.7188 5 2.7188h4 64 4c2.1031 0 3.9293-1.09 5-2.7188v-38.594-7-20.719c0-2.7873-2.2127-5-5-5z" fill="url(#radialGradient11806)" opacity=".2"/>
<path d="m112 4.5c-3.324 0-6 2.676-6 6v15h1v-15c0-2.7873 2.2127-5 5-5h72c2.7873 0 5 2.2127 5 5v15h1v-15c0-3.324-2.676-6-6-6h-72z" fill="url(#radialGradient11808)" opacity=".45"/>
<path d="m106 76.942v0.88906 0.88906 0.88906 1.7781 1.7781c0 2.9552 2.676 5.3344 6 5.3344h72c3.324 0 6-2.3791 6-5.3344v-1.7781-1.7781-0.88906-0.88906-0.88906c0 2.9552-2.676 5.3344-6 5.3344h-72c-3.324 0-6-2.3791-6-5.3344z" fill="url(#linearGradient3120)" opacity=".46965"/>
</g>
<g transform="matrix(.98961 0 0 1.0556 -.54199 -40.371)">
<circle transform="matrix(1.2467 0 0 1.0634 -54.59 -6.5568)" cx="70.373" cy="79.209" r="2.791" fill="#1c1c1c" opacity=".71"/>
<circle transform="matrix(1.0374 0 0 .91042 -39.857 5.3629)" cx="70.373" cy="79.209" r="2.791" fill="#fff"/>
<circle transform="matrix(.70317 0 0 .6171 -16.336 28.596)" cx="70.373" cy="79.209" r="2.791" fill="#114751"/>
<circle transform="matrix(1.2467 0 0 1.0634 -20.114 -6.5568)" cx="70.373" cy="79.209" r="2.791" fill="#1c1c1c" opacity=".71"/>
<circle transform="matrix(1.0374 0 0 .91042 -5.3813 5.3629)" cx="70.373" cy="79.209" r="2.791" fill="#fff"/>
<circle transform="matrix(.70317 0 0 .6171 18.139 28.596)" cx="70.373" cy="79.209" r="2.791" fill="#114751"/>
<rect transform="matrix(1.014 0 0 .95205 3.1886 -2.9106)" x="40.449" y="83.596" width="12.674" height="3.236" rx="1.1481" ry="1.1481" fill="#0c2f31" fill-opacity=".90455" opacity=".75097" stroke="#fff" stroke-width=".4999"/>
</g>
<path d="m10.326 15.041c-1.8851 0-3.6495 0.91815-4.7591 2.2718v15.089c0 2.4045 2.1226 4.3402 4.7591 4.3402h80.905c2.6365 0 4.7591-1.9357 4.7591-4.3402v-15.089c-1.1096-1.3537-2.874-2.2718-4.7591-2.2718h-80.905zm0 3.2552h80.905c1.3594 0 2.3796 0.93033 2.3796 2.1701v11.936c0 1.2398-1.0201 2.1701-2.3796 2.1701h-80.905c-1.3594 0-2.3796-0.93033-2.3796-2.1701v-11.936c0-1.2398 1.0201-2.1701 2.3796-2.1701z" color="#000000" opacity=".02" style="block-progression:tb;text-decoration-line:none;text-indent:0;text-transform:none"/>
<path d="m10.326-39.212h80.905c2.6365 0 4.7591 1.9357 4.7591 4.3402v67.273c0 2.4045-2.1226 4.3402-4.7591 4.3402h-80.905c-2.6365 0-4.7591-1.9357-4.7591-4.3402v-67.273c0-2.4045 2.1226-4.3402 4.7591-4.3402z" color="#000000" fill="url(#linearGradient9234)"/>
<path d="m11.271-38.411h79.017c2.575 0 4.648 1.8912 4.648 4.2405v65.727c0 2.3492-2.073 4.2405-4.648 4.2405h-79.017c-2.575 0-4.648-1.8912-4.648-4.2405v-65.727c0-2.3492 2.073-4.2405 4.648-4.2405z" color="#000000" fill="none" stroke="#000" stroke-opacity=".7758" stroke-width="2.2904"/>
<g transform="matrix(2.7401 0 0 2.6874 -16.587 -194.64)">
<path d="m25 60-11 6.5v13l11 6.5 3.441-2.033 3.559 2.033h2l2-1v-2l-3.01-1.721 3.01-1.779v-13l-11-6.5m0 6 6 3.5v7l-6 3.5-6-3.5v-7l6-3.5z" opacity=".333"/>
<path d="m24 59-11 6.5c0.582 2.761 2.792 2.517 5 3l6-3.5 6 3.5c2.81 1.045 4.181-0.064 5-3z" fill="#7dadff"/>
<path d="m30 68.5v7l-6 3.5c-2.061 2-1.226 4 0 6l11-6.5v-13z" fill="#2764c9"/>
<path d="m13 65.5v13l11 6.5v-6l-6-3.5v-7z" fill="#418bff"/>
<path d="m28 78 7 4v2l-2 1h-2l-7-4z" fill="#2764c9"/>
</g>
<path d="m38.508-39.314c8.3294 26.184 16.985 51.751 25.766 75.954h26.584c2.6365 0 4.7591-1.9357 4.7591-4.3402v-67.273c0-2.4045-2.1225-4.3402-4.7591-4.3402h-52.35z" color="#000000" fill="url(#linearGradient10533)" opacity=".443"/>
<path d="m91.56-42.941h-82.029c-3.787 0-6.8357 3.0487-6.8357 6.8357v82.029c0 3.787 3.0487 6.8357 6.8357 6.8357h82.029c3.787 0 6.8357-3.0487 6.8357-6.8357v-82.029c0-3.787-3.0487-6.8357-6.8357-6.8357z" fill="url(#linearGradient5698)" opacity=".72794"/>
</g>
</g>
</svg>
