<?xml version="1.0" encoding="UTF-8"?>
<!-- Created with Inkscape (http://www.inkscape.org/) -->
<svg version="1.1" viewBox="0 0 16 16" xmlns="http://www.w3.org/2000/svg" xmlns:cc="http://creativecommons.org/ns#" xmlns:dc="http://purl.org/dc/elements/1.1/" xmlns:rdf="http://www.w3.org/1999/02/22-rdf-syntax-ns#">
<metadata>
<rdf:RDF>
<cc:Work rdf:about="">
<dc:format>image/svg+xml</dc:format>
<dc:type rdf:resource="http://purl.org/dc/dcmitype/StillImage"/>
<dc:title/>
</cc:Work>
</rdf:RDF>
</metadata>
<g transform="translate(9379.3 -4843.2)">
<path transform="translate(-9379.3 4843.2)" d="m3 0v2h-1-2v1h2v1h-2v1h2v1h-2v1h2v1h-2v1h2v1h-2v1h2v1h-2v1h2v1 2h1v-2h1v2h1v-2h1v2h1v-2h1v2h1v-2h1v2h1v-2h1v2h1v-2h1 2v-1h-2v-1h2v-1h-2v-1h2v-1h-2v-1h2v-1h-2v-1h2v-1h-2v-1h2v-1h-2v-1-2h-1v2h-1v-2h-1v2h-1v-2h-1v2h-1v-2h-1v2h-1v-2h-1v2h-1v-2h-1zm5.5625 3.0625 1.625 0.90625 0.03125 0.8125s0.595 1.2428 1.5625 3.2188c0.7008 2.9809-2.4062 3.1875-2.4062 3.1875s-1.1411-0.14055-0.375-0.53125c0.8623-0.4397 2.0676-1.2881 1.5-2.5-1.2664-1.5588-1.3438-2.75-1.3438-2.75l-1.1562 4.5c-0.6245 2.81-2.0488 2.986-2.9688 2.5938-2.3011-0.6629-0.7008-4.6574 1.5-2.6562l2.0312-6.7812z" fill="#999" fill-opacity=".91237"/>
</g>
</svg>
