<?xml version="1.0" encoding="UTF-8"?>
<!-- Created with Inkscape (http://www.inkscape.org/) -->
<svg version="1.1" viewBox="0 0 96 96" xmlns="http://www.w3.org/2000/svg" xmlns:cc="http://creativecommons.org/ns#" xmlns:dc="http://purl.org/dc/elements/1.1/" xmlns:rdf="http://www.w3.org/1999/02/22-rdf-syntax-ns#" xmlns:xlink="http://www.w3.org/1999/xlink">
<defs>
<linearGradient id="linearGradient4987" x1="62" x2="62" y1="8" y2="68" gradientTransform="matrix(1.1832 0 0 1.0774 -42.201 -45.837)" gradientUnits="userSpaceOnUse">
<stop stop-color="#fff" offset="0"/>
<stop stop-color="#fff" stop-opacity="0" offset="1"/>
</linearGradient>
<radialGradient id="radialGradient4985" cx="48" cy="43" r="38" gradientTransform="matrix(1.1832 0 0 .99238 -42.201 -42.179)" gradientUnits="userSpaceOnUse">
<stop stop-color="#a2aaac" offset="0"/>
<stop stop-color="#3e494e" offset="1"/>
</radialGradient>
<radialGradient id="radialGradient3114" cx="158" cy="6.2132" r="41" gradientTransform="matrix(0 1.6209 -2.0383 0 160.66 -243.04)" gradientUnits="userSpaceOnUse">
<stop stop-color="#fff" offset="0"/>
<stop stop-color="#fff" stop-opacity="0" offset="1"/>
</radialGradient>
<radialGradient id="radialGradient3118" cx="48" cy="-27" r="42" gradientTransform="matrix(-1.0722 0 0 -.87502 199.46 -19.126)" gradientUnits="userSpaceOnUse">
<stop stop-color="#fff" offset="0"/>
<stop stop-color="#fff" offset=".8"/>
<stop stop-color="#fff" stop-opacity="0" offset="1"/>
</radialGradient>
<linearGradient id="linearGradient3120" x1="-94" x2="-10.188" y1="82.984" y2="82.984" gradientTransform="matrix(1 0 0 .88906 200 8.9432)" gradientUnits="userSpaceOnUse" xlink:href="#linearGradient3832-0-6-1-1"/>
<linearGradient id="linearGradient3832-0-6-1-1">
<stop offset="0"/>
<stop stop-opacity=".58824" offset=".1"/>
<stop stop-opacity=".58824" offset=".9"/>
<stop offset="1"/>
</linearGradient>
<linearGradient id="linearGradient6139-0">
<stop stop-color="#b7b7b7" offset="0"/>
<stop stop-color="#fff" offset=".25"/>
<stop stop-color="#9d9d9d" offset=".5"/>
<stop stop-color="#fafafa" offset=".75"/>
<stop stop-color="#b7b7b7" offset="1"/>
</linearGradient>
<linearGradient id="linearGradient5021" x1="6" x2="90" y1="47" y2="47" gradientTransform="matrix(1.133 0 0 1.1313 -40.023 -46.577)" gradientUnits="userSpaceOnUse" xlink:href="#linearGradient6139-0"/>
<linearGradient id="linearGradient5698" x1="6" x2="90" y1="47" y2="47" gradientTransform="matrix(1.133 0 0 1.1313 -40.023 -46.577)" gradientUnits="userSpaceOnUse">
<stop stop-color="#fff" stop-opacity="0" offset="0"/>
<stop stop-color="#fff" stop-opacity=".85135" offset=".036815"/>
<stop stop-color="#fff" stop-opacity="0" offset=".065061"/>
<stop stop-color="#fff" stop-opacity="0" offset=".94494"/>
<stop stop-color="#fff" stop-opacity=".85135" offset=".96582"/>
<stop stop-color="#fff" stop-opacity="0" offset="1"/>
</linearGradient>
<radialGradient id="radialGradient3828" cx="46.787" cy="85.213" r="6.5871" gradientTransform="matrix(4.7897 -.093009 .041471 2.1292 -180.84 -91.87)" gradientUnits="userSpaceOnUse" xlink:href="#linearGradient6139-0"/>
<radialGradient id="radialGradient3836" cx="70.373" cy="79.209" r="2.791" gradientUnits="userSpaceOnUse" xlink:href="#linearGradient3832-0-6-1-1"/>
</defs>
<metadata>
<rdf:RDF>
<cc:Work rdf:about="">
<dc:format>image/svg+xml</dc:format>
<dc:type rdf:resource="http://purl.org/dc/dcmitype/StillImage"/>
<dc:title/>
</cc:Work>
</rdf:RDF>
</metadata>
<g transform="translate(0,80)">
<g transform="matrix(1.0034 0 0 1.005 33.489 -38.527)">
<g transform="translate(.099659 -.099507)">
<path d="m55.149-40.92h-81.576c-3.7661 0-6.798 3.0273-6.798 6.7878v81.453c0 3.7604 3.0319 6.7878 6.798 6.7878h81.576c3.7661 0 6.798-3.0273 6.798-6.7878v-81.453c0-3.7604-3.0319-6.7878-6.798-6.7878z" fill="url(#linearGradient5021)"/>
<g transform="matrix(1.133 0 0 1.1313 -153.32 -46.011)">
<path d="m112 5.5c-2.7873 0-5 2.2127-5 5v66.312c1.0707 1.6288 2.8969 2.7188 5 2.7188h72c2.1031 0 3.9293-1.09 5-2.7188v-66.312c0-2.7873-2.2127-5-5-5z" fill="url(#radialGradient3114)" opacity=".2"/>
<path d="m112 4.5c-3.324 0-6 2.676-6 6v15h1v-15c0-2.7873 2.2127-5 5-5h72c2.7873 0 5 2.2127 5 5v15h1v-15c0-3.324-2.676-6-6-6z" fill="url(#radialGradient3118)" opacity=".45"/>
<path d="m106 76.942v6.2234c0 2.9552 2.676 5.3344 6 5.3344h72c3.324 0 6-2.3791 6-5.3344v-6.2234c0 2.9552-2.676 5.3344-6 5.3344h-72c-3.324 0-6-2.3791-6-5.3344z" fill="url(#linearGradient3120)" opacity=".46965"/>
</g>
<g transform="matrix(.98415 0 0 1.0482 -36.444 -38.368)">
<circle transform="matrix(1.2467 0 0 1.0634 -54.59 -6.5568)" cx="70.373" cy="79.209" r="2.791" fill="#1c1c1c" opacity=".71"/>
<circle transform="matrix(1.0374 0 0 .91042 -39.857 5.3629)" cx="70.373" cy="79.209" r="2.791" fill="#fff"/>
<circle transform="matrix(.70317 0 0 .6171 -16.336 28.596)" cx="70.373" cy="79.209" r="2.791" fill="url(#radialGradient3836)"/>
<circle transform="matrix(1.2467 0 0 1.0634 -20.114 -6.5568)" cx="70.373" cy="79.209" r="2.791" fill="#1c1c1c" opacity=".71"/>
<circle transform="matrix(1.0374 0 0 .91042 -5.3813 5.3629)" cx="70.373" cy="79.209" r="2.791" fill="#fff"/>
<circle transform="matrix(.70317 0 0 .6171 18.139 28.596)" cx="70.373" cy="79.209" r="2.791" fill="url(#radialGradient3836)"/>
<rect transform="matrix(1.014 0 0 .95205 3.1886 -2.9106)" x="40.449" y="83.596" width="12.674" height="3.236" rx="1.1481" ry="1.1481" fill="url(#radialGradient3828)" opacity=".9622" stroke="#000" stroke-width=".5"/>
</g>
<path d="m-25.636 16.655c-1.8747 0-3.6294 0.91171-4.7329 2.2559v14.983c0 2.3876 2.1109 4.3098 4.7329 4.3098h80.459c2.622 0 4.7329-1.9222 4.7329-4.3098v-14.983c-1.1035-1.3442-2.8582-2.2559-4.7329-2.2559zm0 3.2323h80.459c1.3519 0 2.3664 0.92381 2.3664 2.1549v11.852c0 1.2311-1.0145 2.1549-2.3664 2.1549h-80.459c-1.3519 0-2.3664-0.92381-2.3664-2.1549v-11.852c0-1.2311 1.0145-2.1549 2.3664-2.1549z" color="#000000" opacity=".02" style="text-decoration-line:none;text-indent:0;text-transform:none"/>
<path d="m2.7612-37.217c8.2835 26 16.891 51.388 25.624 75.421h26.437c2.622 0 4.7329-1.9222 4.7329-4.3098v-66.801c0-2.3876-2.1109-4.3098-4.7329-4.3098z" color="#000000" fill="url(#linearGradient4987)" opacity=".45"/>
<path d="m-25.636-37.217h80.459c2.622 0 4.7329 1.9222 4.7329 4.3098v66.801c0 2.3876-2.1109 4.3098-4.7329 4.3098h-80.459c-2.622 0-4.7329-1.9222-4.7329-4.3098v-66.801c0-2.3876 2.1109-4.3098 4.7329-4.3098z" color="#000000" fill="url(#radialGradient4985)"/>
<path d="m57.955-22.419-4.5141-3.6488-34.608 35.414 12.468-39.492-58.468 58.38 4.2991 3.8634 41.917-41.853-12.468 39.492 51.375-52.156" fill="#f9c849" fill-opacity=".78113" stroke="#000" stroke-width="1.192px"/>
<path d="m-2.8881-36.521h55.347c2.5608 0 4.6224 1.878 4.6224 4.2107v65.266c0 2.3327-2.0616 4.2107-4.6224 4.2107-55.141-73.692-0.5837-0.30264-55.347-73.687z" color="#000000" fill="#fff" fill-opacity=".14694"/>
<path d="m-24.697-36.422h78.581c2.5608 0 4.6224 1.878 4.6224 4.2107v65.266c0 2.3327-2.0616 4.2107-4.6224 4.2107h-78.581c-2.5608 0-4.6224-1.878-4.6224-4.2107v-65.266c0-2.3327 2.0616-4.2107 4.6224-4.2107z" color="#000000" fill="none" stroke="#000" stroke-opacity=".7758" stroke-width="2.276"/>
<path d="m55.149-40.92h-81.576c-3.7661 0-6.798 3.0273-6.798 6.7878v81.453c0 3.7604 3.0319 6.7878 6.798 6.7878h81.576c3.7661 0 6.798-3.0273 6.798-6.7878v-81.453c0-3.7604-3.0319-6.7878-6.798-6.7878z" fill="url(#linearGradient5698)" opacity=".76289"/>
</g>
</g>
</g>
</svg>
