<?xml version="1.0" encoding="UTF-8"?>
<!-- Created with Inkscape (http://www.inkscape.org/) -->
<svg version="1.1" viewBox="0 0 96 96" xmlns="http://www.w3.org/2000/svg" xmlns:cc="http://creativecommons.org/ns#" xmlns:dc="http://purl.org/dc/elements/1.1/" xmlns:rdf="http://www.w3.org/1999/02/22-rdf-syntax-ns#" xmlns:xlink="http://www.w3.org/1999/xlink">
<defs>
<linearGradient id="linearGradient3120" x1="-94" x2="-10.188" y1="82.984" y2="82.984" gradientTransform="matrix(1.133 0 0 1.0058 73.277 -35.894)" gradientUnits="userSpaceOnUse">
<stop offset="0"/>
<stop stop-opacity=".58824" offset=".1"/>
<stop stop-opacity=".58824" offset=".9"/>
<stop offset="1"/>
</linearGradient>
<linearGradient id="linearGradient5021-8" x1="6" x2="90" y1="47" y2="47" gradientTransform="matrix(1.133 0 0 1.1313 -40.023 -46.577)" gradientUnits="userSpaceOnUse" xlink:href="#linearGradient6139-0-7"/>
<linearGradient id="linearGradient6139-0-7">
<stop stop-color="#adbac1" offset="0"/>
<stop stop-color="#fff" offset=".25"/>
<stop stop-color="#adbac1" offset=".5"/>
<stop stop-color="#fff" offset=".75"/>
<stop stop-color="#adbac1" offset="1"/>
</linearGradient>
<radialGradient id="radialGradient3118" cx="48" cy="-27" r="42" gradientTransform="matrix(-1.2148 0 0 -.9899 72.67 -67.648)" gradientUnits="userSpaceOnUse">
<stop stop-color="#fff" offset="0"/>
<stop stop-color="#fff" offset=".8"/>
<stop stop-color="#fff" stop-opacity="0" offset="1"/>
</radialGradient>
<linearGradient id="linearGradient1210" x1="4.1613" x2="24.761" y1="42.204" y2="42.204" gradientTransform="matrix(.67083 0 0 .64 4.6604 15.278)" gradientUnits="userSpaceOnUse">
<stop stop-color="#fff" stop-opacity=".016779" offset="0"/>
<stop stop-color="#fff" offset=".17869"/>
<stop stop-color="#fff" offset=".8"/>
<stop stop-color="#fff" stop-opacity=".02349" offset="1"/>
</linearGradient>
<linearGradient id="linearGradient925" x1="6" x2="90" y1="47" y2="47" gradientTransform="matrix(1.133 0 0 1.1313 -40.023 -46.577)" gradientUnits="userSpaceOnUse">
<stop stop-color="#fff" stop-opacity=".40969" offset="0"/>
<stop stop-color="#fff" stop-opacity=".85135" offset=".036815"/>
<stop stop-color="#fff" stop-opacity="0" offset=".065061"/>
<stop stop-color="#fff" stop-opacity="0" offset=".94494"/>
<stop stop-color="#fff" stop-opacity=".85135" offset=".96582"/>
<stop stop-color="#fff" stop-opacity=".56388" offset="1"/>
</linearGradient>
</defs>
<metadata>
<rdf:RDF>
<cc:Work rdf:about="">
<dc:format>image/svg+xml</dc:format>
<dc:type rdf:resource="http://purl.org/dc/dcmitype/StillImage"/>
<dc:title/>
<dc:date>2017</dc:date>
<dc:creator>
<cc:Agent>
<dc:title>Cristian Pozzessere "ilnanny"</dc:title>
</cc:Agent>
</dc:creator>
<dc:subject>
<rdf:Bag>
<rdf:li>Global language</rdf:li>
</rdf:Bag>
</dc:subject>
<dc:description>Playing with Inkscape on Gnu/Linux O. S.</dc:description>
<dc:contributor>
<cc:Agent>
<dc:title>In the night, alone like a dog.</dc:title>
</cc:Agent>
</dc:contributor>
<cc:license rdf:resource="http://creativecommons.org/licenses/by-sa/4.0/"/>
</cc:Work>
<cc:License rdf:about="http://creativecommons.org/licenses/by-sa/4.0/">
<cc:permits rdf:resource="http://creativecommons.org/ns#Reproduction"/>
<cc:permits rdf:resource="http://creativecommons.org/ns#Distribution"/>
<cc:requires rdf:resource="http://creativecommons.org/ns#Notice"/>
<cc:requires rdf:resource="http://creativecommons.org/ns#Attribution"/>
<cc:permits rdf:resource="http://creativecommons.org/ns#DerivativeWorks"/>
<cc:requires rdf:resource="http://creativecommons.org/ns#ShareAlike"/>
</cc:License>
</rdf:RDF>
</metadata>
<g transform="translate(0 -1026.5)">
<g transform="matrix(1.0034 0 0 1.005 33.489 1068)">
<g transform="translate(.099655 -.09955)">
<path d="m55.149-40.92h-81.576c-3.7661 0-6.798 3.0273-6.798 6.7878v81.453c0 3.7603 3.0319 6.7877 6.798 6.7877h81.576c3.7661 0 6.798-3.0274 6.798-6.7877v-81.453c0-3.7604-3.0319-6.7878-6.798-6.7878z" fill="url(#linearGradient5021-8)"/>
<path d="m55.149-40.92h-81.576c-3.7661 0-6.798 3.0273-6.798 6.7878v81.453c0 3.7603 3.0319 6.7877 6.798 6.7877h81.576c3.7661 0 6.798-3.0274 6.798-6.7877v-81.453c0-3.7604-3.0319-6.7878-6.798-6.7878z" fill="url(#linearGradient5021-8)"/>
<path d="m55.149-40.92h-81.576c-3.7661 0-6.798 3.0273-6.798 6.7878v81.453c0 3.7603 3.0319 6.7877 6.798 6.7877h81.576c3.7661 0 6.798-3.0274 6.798-6.7877v-81.453c0-3.7604-3.0319-6.7878-6.798-6.7878z" fill="#132639" opacity=".25"/>
<path d="m-26.427-40.92c-3.7661 0-6.798 3.0273-6.798 6.7878v16.969h1.133v-16.969c0-3.1533 2.507-5.6565 5.665-5.6565h81.576c3.158 0 5.665 2.5032 5.665 5.6565v16.969h1.133v-16.969c0-3.7604-3.0319-6.7878-6.798-6.7878z" fill="url(#radialGradient3118)" opacity=".45"/>
<path d="m-33.225 41.033v7.0405c0 3.3432 3.0319 6.0347 6.798 6.0347h81.576c3.7661 0 6.798-2.6915 6.798-6.0347v-7.0405c0 3.3432-3.0319 6.0347-6.798 6.0347h-81.576c-3.7661 0-6.798-2.6915-6.798-6.0347z" fill="url(#linearGradient3120)" opacity=".589"/>
<rect x="7.4898" y="40.185" width="13.743" height="4.208" rx="2.8286" ry="3.3944" fill="url(#linearGradient1210)" fill-rule="evenodd" stroke="#3f3f3f" stroke-linecap="square" stroke-linejoin="round" stroke-width=".79147" style="paint-order:fill markers stroke"/>
<path d="m-27.454-37.507c-2.7013 0-4.8747 1.9175-4.8747 4.2998v66.653c0 2.3823 2.1734 4.2998 4.8747 4.2998h82.894c2.7013 0 4.8747-1.9175 4.8747-4.2998v-66.653c0-2.3823-2.1734-4.2998-4.8747-4.2998zm2.4253 2.2002h78.043c2.5433 0 4.5905 1.8063 4.5905 4.0493v62.754c0 2.243-2.0472 4.0492-4.5905 4.0492h-78.043c-2.5433 0-4.5905-1.8062-4.5905-4.0492v-62.754c0-2.243 2.0472-4.0493 4.5905-4.0493z" color="#000000" fill="#0d1625" fill-opacity=".59809"/>
<path d="m-27.454-37.507h82.893c2.7013 0 4.876 1.9179 4.876 4.3002v66.653c0 2.3823-2.1747 4.3002-4.876 4.3002h-82.893c-2.7013 0-4.876-1.9179-4.876-4.3002v-66.653c0-2.3823 2.1747-4.3002 4.876-4.3002z" color="#000000" fill="#415163"/>
<path d="m55.149-40.92h-81.576c-3.7661 0-6.798 3.0273-6.798 6.7878v81.453c0 3.7603 3.0319 6.7877 6.798 6.7877h81.576c3.7661 0 6.798-3.0274 6.798-6.7877v-81.453c0-3.7604-3.0319-6.7878-6.798-6.7878z" fill="url(#linearGradient925)"/>
<g transform="matrix(.31051 0 0 .31004 -12.66 -15.201)" fill="#fff" fill-opacity=".83682" aria-label="ABCJDHYE SDKJSGFD SKFHDSLS SJKDFSLSA">
<path d="m181.82 104.29c-8.5891 5.4999 0.24763 23.318 4.0842 10.268-0.4159-3.7521-3.0356-6.7235-4.0842-10.268zm-2.2172-3.8705c9.8986 2.5679 14.736 26.119 11.834 25.789-6.0396-9.1534-16.174-1.5582-21.059-0.78133 1.2174-8.8787 7.3797-16.268 9.225-25.008zm-16.143 0.95303c-3.4183 3.5464-22.276 4.7096-9.5931 9.4223 18.141 1.0604 7.4962 30.804-6.3265 17.042-0.34354-4.3594 18.265 2.9235 10.548-9.985-6.5812-2.7715-20.837-8.9496-8.2319-16.508 4.063-2.2398 9.7661-3.2019 13.603 0.0293zm-39.58-0.95303c10.373 7.0476-4.8935 30.173 15.73 26.753-10.569 10.749-20.08-5.2832-15.73-16.208v-10.545zm-7.8771 0.95303c-3.4183 3.5464-22.276 4.7096-9.5931 9.4223 18.141 1.0604 7.4962 30.804-6.3265 17.042-0.34352-4.3594 18.265 2.9235 10.548-9.985-6.5812-2.7715-20.837-8.9496-8.2319-16.508 4.063-2.2398 9.7662-3.2019 13.603 0.0293zm-39.658-0.95303h16.688c-3.5211 2.9206-20.931 8.627-9.6075 10.626 9.4219 0.5926 6.1614 6.5374-1.1382 4.612-2.3542 4.2248-3.6111 20.46-6.0777 6.5215 0.37545-7.2481 0.10179-14.506 0.13569-21.759zm-26.724 3.2286v22.581c13.216 6.1134 23.93-16.571 9.6357-21.962-3.0097-1.3182-6.4809-1.5134-9.6357-0.61891zm-3.9288-3.2286c14.204-6.4622 33.405 12.304 20.812 25.054-16.372 14.262-25.53-5.48-20.829-20.303l1.28e-4 -2.3756 0.01682-2.3755zm-26.14 0c5.7884 1.4439 5.1463 17.575 10.329 4.7954 6.3284-7.0173 13.505-0.92642 2.6489 2.2527-12.84 7.0713 18.911 27.895 1.5311 18.626-6.7539-8.6751-10.388-8.7977-12.393 1.6646-5.7377-6.1995-0.24558-18.979-2.1158-27.339zm-11.748 0c8.6017 8.9597 4.0855 25.048 1.0979 34.889-11.631 3.9593 4.965-15.16-1.0904-22.255-0.38016-4.191-0.834-8.4632-0.0075-12.633zm-7.8771 0.95303c-3.4183 3.5464-22.276 4.7096-9.5931 9.4223 18.141 1.0604 7.4962 30.804-6.3265 17.042-0.34352-4.3594 18.265 2.9235 10.548-9.985-6.5812-2.7715-20.837-8.9496-8.2319-16.508 4.063-2.2398 9.7661-3.2019 13.603 0.0293zm182.44-49.791c-3.4183 3.5464-22.276 4.7096-9.5931 9.4223 18.141 1.0604 7.4962 30.804-6.3265 17.042-0.34352-4.3594 18.265 2.9235 10.548-9.985-6.5812-2.7715-20.837-8.9496-8.2318-16.508 4.063-2.2398 9.7662-3.2019 13.603 0.02928zm-39.58-0.95303c10.373 7.0475-4.8935 30.173 15.73 26.753-10.569 10.749-20.08-5.2832-15.73-16.208v-10.545zm-7.8771 0.95303c-3.4183 3.5464-22.276 4.7096-9.5931 9.4223 18.141 1.0604 7.4962 30.804-6.3264 17.042-0.34352-4.3594 18.265 2.9235 10.548-9.985-6.5812-2.7715-20.837-8.9496-8.2319-16.508 4.063-2.2398 9.7662-3.2019 13.603 0.02928zm-44.131 2.2756v22.581c13.216 6.1133 23.93-16.571 9.6357-21.962-3.0097-1.3182-6.4809-1.5134-9.6357-0.61891zm-3.9288-3.2286c14.204-6.4622 33.405 12.304 20.812 25.054-16.372 14.262-25.53-5.48-20.829-20.303l1.28e-4 -2.3756 0.01682-2.3755zm-29.952 0c5.6446 5.3121 6.4005 18.425 16.779 11.507 1.4068-6.2085 5.1517-15.366 5.1003-3.2458 1.2103 7.9331 0.35806 27.707-4.5773 10.839-8.7297-12.728-14.298 1.5782-15.688 8.5122-3.6195-8.5397-0.7355-18.575-1.6147-27.612zm-22.95 0h16.688c-3.5211 2.9206-20.931 8.627-9.6075 10.626 9.4219 0.59259 6.1614 6.5374-1.1382 4.612-2.3542 4.2248-3.6111 20.46-6.0777 6.5215 0.37545-7.2481 0.10179-14.506 0.13569-21.759zm-26.14 0c5.8043 1.5768 5.1521 17.549 10.459 4.7277 5.0666-6.4226 14.076-1.627 3.1453 2.1295-15.335 7.5741 21.147 27.388 1.7011 19.835-4.1957-6.7358-12.799-13.004-11.47-0.46-8.1829 3.5117-1.8457-17.634-3.8323-23.253zm-7.8771 0.95303c-3.4183 3.5464-22.276 4.7096-9.5931 9.4223 18.141 1.0604 7.4962 30.804-6.3265 17.042-0.34352-4.3594 18.265 2.9235 10.548-9.985-6.5812-2.7715-20.837-8.9496-8.2319-16.508 4.063-2.2398 9.7661-3.2019 13.603 0.02928zm159.47-47.515v22.581c13.216 6.1133 23.93-16.571 9.6357-21.962-3.0097-1.3182-6.4809-1.5134-9.6357-0.61891zm-3.9288-3.2286c14.204-6.4622 33.405 12.304 20.812 25.054-16.372 14.262-25.53-5.48-20.829-20.303l1.3e-4 -2.3756 0.0168-2.3755zm-22.95 0h16.688c-3.5211 2.9206-20.931 8.627-9.6075 10.626 9.4219 0.59259 6.1614 6.5374-1.1382 4.612-2.3541 4.2248-3.6111 20.46-6.0777 6.5215 0.37545-7.2481 0.10178-14.506 0.13568-21.759zm-11.086 24.895c3.672-4.9265-11.696-15.291 1.8747-10.048 10.284 15.005-20.106 22.728-22.558 5.3807-7.9548-13.76 15.501-29.397 20.404-16.9-13.606-7.3628-25.227 17.174-10.465 22.417 3.4765 1.2892 7.5182 0.98903 10.744-0.85028zm-27.677-23.942c-3.4183 3.5464-22.276 4.7096-9.5931 9.4223 18.141 1.0604 7.4962 30.804-6.3265 17.042-0.34352-4.3594 18.265 2.9235 10.548-9.985-6.5812-2.7715-20.837-8.9496-8.2319-16.508 4.063-2.2398 9.7661-3.2019 13.603 0.029277zm-29.155-0.95303c8.6017 8.9597 4.0855 25.048 1.0979 34.889-11.631 3.9593 4.965-15.16-1.0904-22.255-0.38016-4.191-0.834-8.4632-0.007498-12.633zm-26.14 0c5.8043 1.5768 5.1521 17.549 10.459 4.7277 5.0666-6.4226 14.076-1.627 3.1453 2.1295-15.335 7.5741 21.147 27.388 1.7011 19.835-4.1957-6.7358-12.799-13.004-11.47-0.46-8.1829 3.5117-1.8457-17.634-3.8323-23.253zm-26.724 3.2286v22.581c13.216 6.1133 23.93-16.571 9.6357-21.962-3.0097-1.3182-6.4809-1.5134-9.6357-0.61891zm-3.9288-3.2286c14.204-6.4622 33.405 12.304 20.812 25.054-16.372 14.262-25.53-5.48-20.829-20.303l1.301e-4 -2.3756zm-7.8771 0.95303c-3.4183 3.5464-22.276 4.7096-9.5931 9.4223 18.141 1.0604 7.4962 30.804-6.3265 17.042-0.34352-4.3594 18.265 2.9235 10.548-9.985-6.5812-2.7715-20.837-8.9496-8.2319-16.508 4.063-2.2398 9.7661-3.2019 13.603 0.029277zm160.98-50.744h18.36c-5.1318 2.0306-22.589 9.3717-8.8032 10.901 11.267 2.3108 2.9923 5.3704-3.712 4.4786-6.5175 7.8633 6.2285 14.382 9.6359 11.604-7.6858 9.3946-20.638-1.3699-15.481-11.598v-15.386zm-28.338 0c7.3354 5.7278 16.483 12.36 20.852 1.1527 4.0766 6.734-11.557 12.254-6.5071 22.091-4.3353 13.416-5.7015-21.361-14.345-23.243zm-25.965 0c5.6447 5.3121 6.4005 18.425 16.779 11.507 1.4069-6.2085 5.1517-15.366 5.1002-3.2458 1.2103 7.9331 0.35806 27.707-4.5773 10.839-8.7298-12.728-14.298 1.5782-15.688 8.5122-3.6195-8.5397-0.7355-18.575-1.6147-27.612zm-26.724 3.2286v22.581c13.216 6.1133 23.93-16.571 9.6357-21.962-3.0097-1.3182-6.4809-1.5134-9.6357-0.61891zm-3.9288-3.2286c14.204-6.4622 33.405 12.304 20.812 25.054-16.372 14.262-25.53-5.48-20.829-20.303l1.28e-4 -2.3756 0.01682-2.3755zm-11.748 0c8.6017 8.9597 4.0855 25.048 1.0979 34.889-11.631 3.9593 4.965-15.16-1.0904-22.255-0.38016-4.191-0.834-8.4632-0.0075-12.633zm-6.1072 2.2367c-13.265-2.0788-29.464 12.21-14.027 22.192 5.2489 3.0242 19.904-0.71678 7.8094 4.9423-15.32 3.7487-24.728-18.873-11.364-27.158 5.0844-3.6124 12.651-4.1979 17.582 0.02443zm-44.423 12.934c-8.9256 14.064 23.237 11.355 8.746 0.43279-2.8428-0.92136-5.8336-0.46284-8.746-0.43279zm0-11.942c-9.0558 12.205 20.851 7.1816 6.484 0.10814-2.1566-0.23153-4.3226-0.04943-6.484-0.10814zm-3.9288-3.2286c11.872-6.3307 21.858 8.2354 18.094 15.761 9.9058 13.106-23.446 22.41-18.277 3.2551 0.4277-6.3365 0.093535-12.672 0.18275-19.016zm-17.524 3.8705c-11.323 5.4186 5.1877 23.606 3.2195 8.418-1.1344-2.7818-2.2589-5.5702-3.2195-8.418zm-2.2172-3.8705c9.2885 3.4346 14.968 24.125 11.552 27.43-3.5611-14.504-17.268 0.65153-20.969-2.9603 3.1072-8.1639 6.4452-16.247 9.4173-24.469z" fill="#fff" fill-opacity=".83682" stroke-width=".99582"/>
</g>
</g>
</g>
</g>
</svg>
