<?xml version="1.0" encoding="UTF-8"?>
<!-- Created with Inkscape (http://www.inkscape.org/) -->
<svg version="1.1" viewBox="0 0 96 96" xmlns="http://www.w3.org/2000/svg" xmlns:cc="http://creativecommons.org/ns#" xmlns:dc="http://purl.org/dc/elements/1.1/" xmlns:rdf="http://www.w3.org/1999/02/22-rdf-syntax-ns#" xmlns:xlink="http://www.w3.org/1999/xlink">
<title>Lila-HD-Icon-Theme</title>
<defs>
<linearGradient id="linearGradient4071" x1="6" x2="90" y1="47" y2="47" gradientTransform="matrix(1.1071 0 0 1.1071 -4.9939 -3.6207)" gradientUnits="userSpaceOnUse">
<stop stop-color="#b2babc" offset="0"/>
<stop stop-color="#fff" offset=".25"/>
<stop stop-color="#96a1a4" offset=".5"/>
<stop stop-color="#fbf9f9" offset=".75"/>
<stop stop-color="#b2b9bc" offset="1"/>
</linearGradient>
<linearGradient id="linearGradient4129" x1="1.5" x2="94.5" y1="88.172" y2="88.172" gradientTransform="translate(.14895 .41503)" gradientUnits="userSpaceOnUse">
<stop offset="0"/>
<stop stop-opacity=".58824" offset=".1"/>
<stop stop-opacity=".58824" offset=".9"/>
<stop offset="1"/>
</linearGradient>
<radialGradient id="radialGradient7462" cx="13.948" cy="44.893" r="43.199" gradientTransform="matrix(.97513 0 0 .049191 34.048 80.582)" gradientUnits="userSpaceOnUse" xlink:href="#linearGradient3737"/>
<linearGradient id="linearGradient3737">
<stop stop-color="#fff" offset="0"/>
<stop stop-color="#fff" stop-opacity="0" offset="1"/>
</linearGradient>
<radialGradient id="radialGradient7464" cx="13.948" cy="44.893" r="43.199" gradientTransform="matrix(.88833 0 0 .049191 31.96 -90.317)" gradientUnits="userSpaceOnUse" xlink:href="#linearGradient3737"/>
<linearGradient id="linearGradient4767" x1="2.7714" x2="50.528" y1="-28.642" y2="14.514" gradientUnits="userSpaceOnUse" xlink:href="#linearGradient3737"/>
<clipPath id="clipPath4156-4-1">
<path d="m27.046-55.695-14.214 13.321h0.06127l15.653 21.771 10.231-10.546c-0.2169-1.1522-11.311-23.67-11.732-24.546zm-17.399 16.313-14.888 14.062 21.229 17.515 10.385-10.577zm31.491 12.951-9.7413 9.7136 8.9448 12.458 7.7808-7.555zm-49.84 4.3788-13.754 12.982 26.283 13.846 0.06127-0.0617-0.12253-0.0617 9.8332-10.053-22.301-16.652zm38.015 7.4008-9.8025 9.7753 11.579 9.5594 7.6276-7.4008-8.6691-11.009zm20.187 5.674-7.3825 7.2158 6.1878 8.5418 5.8202-6.1365zm-32.195 6.3215-9.5575 9.4977 13.662 7.185 7.9339-7.6784zm23.312 2.3744-7.1068 6.9383 8.3628 6.9074 5.3608-5.674-0.06127-0.0925-0.0919 0.12335-6.4635-8.2026zm-8.7304 8.5418-7.5051 7.3392 10.354 5.4581c1.3975-1.321 5.6751-6.1229 5.8509-6.3215z" fill="#fff" opacity=".6"/>
</clipPath>
<linearGradient id="linearGradient3895">
<stop stop-color="#f9f9f9" offset="0"/>
<stop stop-color="#f9f9f9" stop-opacity="0" offset="1"/>
</linearGradient>
<filter id="filter4077" x="-.13764" y="-.15075" width="1.2753" height="1.3015">
<feGaussianBlur stdDeviation="0.18237018"/>
</filter>
<filter id="filter4081" x="-.20424" y="-.22369" width="1.4085" height="1.4474">
<feGaussianBlur stdDeviation="0.27060245"/>
</filter>
<filter id="filter4085" x="-.46581" y="-.18842" width="1.9316" height="1.3768">
<feGaussianBlur stdDeviation="0.19320215"/>
</filter>
<filter id="filter4089" x="-.13764" y="-.15075" width="1.2753" height="1.3015">
<feGaussianBlur stdDeviation="0.18237018"/>
</filter>
<filter id="filter4093" x="-.20424" y="-.22369" width="1.4085" height="1.4474">
<feGaussianBlur stdDeviation="0.27060245"/>
</filter>
<filter id="filter4097" x="-.46581" y="-.11809" width="1.9316" height="1.2362">
<feGaussianBlur stdDeviation="0.19320215"/>
</filter>
<filter id="filter4101" x="-.089713" y="-.14111" width="1.1794" height="1.2822">
<feGaussianBlur stdDeviation="0.19320215"/>
</filter>
<filter id="filter4105" x="-.087591" y="-.20384" width="1.1752" height="1.4077">
<feGaussianBlur stdDeviation="0.19320215"/>
</filter>
<filter id="filter4109" x="-.10788" y="-.24564" width="1.2158" height="1.4913">
<feGaussianBlur stdDeviation="0.19320215"/>
</filter>
<filter id="filter4113" x="-.15958" y="-.3439" width="1.3192" height="1.6878">
<feGaussianBlur stdDeviation="0.19320215"/>
</filter>
<filter id="filter4117" x="-.15899" y="-.19296" width="1.318" height="1.3859">
<feGaussianBlur stdDeviation="0.19320215"/>
</filter>
<filter id="filter4121" x="-.26817" y="-.12644" width="1.5363" height="1.2529">
<feGaussianBlur stdDeviation="0.19320215"/>
</filter>
<filter id="filter4125" x="-.26655" y="-.15918" width="1.5331" height="1.3184">
<feGaussianBlur stdDeviation="0.19320215"/>
</filter>
<filter id="filter4129" x="-.1275" y="-.22466" width="1.255" height="1.4493">
<feGaussianBlur stdDeviation="0.19320215"/>
</filter>
<filter id="filter4133" x="-.18972" y="-.31572" width="1.3794" height="1.6314">
<feGaussianBlur stdDeviation="0.19320215"/>
</filter>
<filter id="filter4137" x="-.1275" y="-.22466" width="1.255" height="1.4493">
<feGaussianBlur stdDeviation="0.19320215"/>
</filter>
<filter id="filter4141" x="-.18972" y="-.31572" width="1.3794" height="1.6314">
<feGaussianBlur stdDeviation="0.19320215"/>
</filter>
<filter id="filter4145" x="-.1275" y="-.22466" width="1.255" height="1.4493">
<feGaussianBlur stdDeviation="0.19320215"/>
</filter>
<filter id="filter4149" x="-.18972" y="-.31572" width="1.3794" height="1.6314">
<feGaussianBlur stdDeviation="0.19320215"/>
</filter>
<filter id="filter4153" x="-.1275" y="-.22466" width="1.255" height="1.4493">
<feGaussianBlur stdDeviation="0.19320215"/>
</filter>
<filter id="filter4157" x="-.18972" y="-.31572" width="1.3794" height="1.6314">
<feGaussianBlur stdDeviation="0.19320215"/>
</filter>
<radialGradient id="radialGradient4426" cx="269.88" cy="377.51" r="30.528" gradientTransform="matrix(.15549 -.013647 .69581 7.9279 -34.759 -2575.8)" gradientUnits="userSpaceOnUse">
<stop stop-color="#ececec" offset="0"/>
<stop stop-color="#ececec" stop-opacity="0" offset="1"/>
</radialGradient>
<radialGradient id="radialGradient4428" cx="494.75" cy="368.99" r="18.631" gradientTransform="matrix(.56343 0 0 10.377 207.86 -3460.1)" gradientUnits="userSpaceOnUse">
<stop stop-color="#f2f2f2" offset="0"/>
<stop stop-color="#f2f2f2" stop-opacity="0" offset="1"/>
</radialGradient>
<radialGradient id="radialGradient4430" cx="697.53" cy="372.01" r="22.02" gradientTransform="matrix(.73415 .050454 -.72233 10.511 442.91 -3575.4)" gradientUnits="userSpaceOnUse">
<stop stop-color="#f2f2f2" offset="0"/>
<stop stop-color="#f2f2f2" stop-opacity="0" offset="1"/>
</radialGradient>
<linearGradient id="linearGradient4432" x1="468.96" x2="470.73" y1="646.95" y2="699.15" gradientUnits="userSpaceOnUse">
<stop stop-color="#4d4d4d" offset="0"/>
<stop stop-color="#4d4d4d" stop-opacity="0" offset="1"/>
</linearGradient>
<linearGradient id="linearGradient4434" x1="-983.06" x2="457.46" y1="969.92" y2="605.36" gradientUnits="userSpaceOnUse" xlink:href="#linearGradient3895"/>
</defs>
<metadata>
<rdf:RDF>
<cc:Work rdf:about="">
<dc:format>image/svg+xml</dc:format>
<dc:type rdf:resource="http://purl.org/dc/dcmitype/StillImage"/>
<dc:title>Lila-HD-Icon-Theme</dc:title>
<dc:date>2015-2017</dc:date>
<dc:creator>
<cc:Agent>
<dc:title>Cristian Pozzessere  &lt; ilnanny &gt;</dc:title>
</cc:Agent>
</dc:creator>
<dc:subject>
<rdf:Bag>
<rdf:li>ilnanny</rdf:li>
<rdf:li>lila_hd</rdf:li>
<rdf:li>lila-hd</rdf:li>
<rdf:li>lila hd icon theme</rdf:li>
<rdf:li>Lila-HD-Icon-Theme lila hd icon lila icon</rdf:li>
</rdf:Bag>
</dc:subject>
<dc:description>Playing with Inkscape on Gnu/Linux O. S.</dc:description>
<dc:contributor>
<cc:Agent>
<dc:title>In the night, alone like a dog.</dc:title>
</cc:Agent>
</dc:contributor>
<cc:license rdf:resource="http://creativecommons.org/licenses/by-sa/3.0/"/>
</cc:Work>
<cc:License rdf:about="http://creativecommons.org/licenses/by-sa/3.0/">
<cc:permits rdf:resource="http://creativecommons.org/ns#Reproduction"/>
<cc:permits rdf:resource="http://creativecommons.org/ns#Distribution"/>
<cc:requires rdf:resource="http://creativecommons.org/ns#Notice"/>
<cc:requires rdf:resource="http://creativecommons.org/ns#Attribution"/>
<cc:permits rdf:resource="http://creativecommons.org/ns#DerivativeWorks"/>
<cc:requires rdf:resource="http://creativecommons.org/ns#ShareAlike"/>
</cc:License>
</rdf:RDF>
</metadata>
<g transform="translate(0 -1026.5)">
<g transform="translate(-.14896 1026.1)">
<path d="m89.292 0.41503h-82.286c-3.7988 0-6.8571 3.0583-6.8571 6.8571v82.286c0 3.7989 3.0583 6.8571 6.8571 6.8571h82.286c3.7989 0 6.8571-3.0583 6.8571-6.8571v-82.286c0-3.7989-3.0583-6.8571-6.8571-6.8571z" opacity=".15"/>
<path d="m88.649 1.165h-81c-3.7395 0-6.75 3.0105-6.75 6.75v81c0 3.7395 3.0105 6.75 6.75 6.75h81c3.7395 0 6.75-3.0105 6.75-6.75v-81c0-3.7395-3.0105-6.75-6.75-6.75z" opacity=".15"/>
<path d="m88.006 1.915h-79.714c-3.6801 0-6.6429 2.9627-6.6429 6.6429v79.714c0 3.6801 2.9627 6.6429 6.6429 6.6429h79.714c3.6801 0 6.6429-2.9627 6.6429-6.6429v-79.714c0-3.6801-2.9627-6.6429-6.6429-6.6429z" fill="url(#linearGradient4071)"/>
<path d="m11.468 6.0382c-2.8998 0-5.2018 2.3188-5.2018 5.2398v69.493c1.1139 1.7069 3.0138 2.8491 5.2018 2.8491h74.905c2.1879 0 4.0879-1.1422 5.2018-2.8491v-69.493c0-2.921-2.302-5.2398-5.2018-5.2398z" fill="#e8e8e8" opacity=".96"/>
<path d="m9.974 5.1445c-3.1166 0-5.668 2.5395-5.668 5.646v69.278c0 3.1065 2.5513 5.646 5.668 5.646h76.792c3.1166 0 5.668-2.5395 5.668-5.646v-69.278c0-3.1065-2.5513-5.646-5.668-5.646zm0 2.3194h76.792c1.8881 0 3.352 1.4801 3.352 3.3266v69.278c0 1.8465-1.4639 3.3266-3.352 3.3266h-76.792c-1.8881 0-3.352-1.4801-3.352-3.3266v-69.278c0-1.8465 1.4639-3.3266 3.352-3.3266z" color="#000000" fill="#202223" fill-opacity=".93689" style="text-decoration-line:none;text-indent:0;text-transform:none"/>
<path d="m1.649 82.259v6c0 3.6801 2.9761 6.6562 6.6562 6.6562h79.687c3.6801 0 6.6563-2.9761 6.6563-6.6562v-6c0 3.6801-2.9761 6.6562-6.6563 6.6562h-79.687c-3.6801 0-6.6562-2.9761-6.6562-6.6562z" fill="url(#linearGradient4129)" opacity=".65818"/>
<rect x="5.524" y="80.665" width="84.25" height="4.25" rx="0" ry="4.25" fill="url(#radialGradient7462)" opacity=".55"/>
<rect transform="rotate(90)" x="5.975" y="-90.234" width="76.75" height="4.25" rx="0" ry="4.25" fill="url(#radialGradient7464)" opacity=".669"/>
<g transform="matrix(.086015 0 0 .086015 5.4075 1.2556)">
<g transform="matrix(1.2191,0,0,1.2191,-68.874,-93.594)">
<path d="m691.66 188.62c1.7702-13.274 20.587-10.862 21.655-1.2632-4.4504 104.76-16.359 209.48-13.094 314.27l-2.6481 63.558-27.653-0.52012c-0.19283-21.417-1.7748-43.129 0.8679-64.647 12.454-101.41 15.875-207.84 20.872-311.4z" fill="#1a1a1a"/>
<path d="m244.22 188.6c-0.19477-13.39 18.772-13.763 21.236-4.4242 10.955 104.28 14.527 209.61 33.12 312.8l6.6981 63.259-27.43 3.5394c-3.3305-21.158-8.0782-42.403-8.6187-64.076-2.5474-102.14-14.766-207.92-25.005-311.1z" fill="#1a1a1a"/>
<path d="m244.22 188.6c-0.19477-13.39 18.772-13.763 21.236-4.4242 10.955 104.28 14.527 209.61 33.12 312.8l6.6981 63.259-27.43 3.5394c-3.3305-21.158-8.0782-42.403-8.6187-64.076-2.5474-102.14-14.766-207.92-25.005-311.1z" fill="url(#radialGradient4426)" opacity=".65"/>
<path d="m476.12 185.78c0.65836-13.375 19.61-12.539 21.475-3.0628 4.2917 104.76 1.1482 210.11 13.132 314.27l2.6557 63.558-27.6 1.7852c-1.9763-21.327-5.3614-42.831-4.5205-64.495 3.9629-102.1-1.4945-208.44-5.1418-312.06z" fill="#1a1a1a"/>
<path d="m476.12 185.78c0.37094-13.375 11.049-12.539 12.099-3.0628 2.4181 104.76 0.64694 210.11 7.3986 314.27l1.4963 63.558-15.55 1.7852c-1.1135-21.327-3.0207-42.831-2.547-64.495 2.2328-102.1-0.84204-208.44-2.897-312.06z" fill="url(#radialGradient4428)" opacity=".65"/>
<path d="m682.76 188.62c1.066-13.274 12.397-10.862 13.041-1.2632-2.6801 104.76-9.8513 209.48-7.8853 314.27l-1.5947 63.558-16.652-0.52012c-0.11612-21.417-1.0688-43.129 0.52265-64.647 7.5-101.41 9.5598-207.84 12.569-311.4z" fill="url(#radialGradient4430)" opacity=".65"/>
<path d="m206.17 552.27-142.46 117.69c266.92-19.18 533.85-18.31 800.78 0.88l-97.33-116.8c-190.35-9.9931-378.91-14.957-560.99-1.7697z"/>
<path d="m865.37 669.71v41.164h-799.01l-2.6545-42.168c262.55-19.98 529.11-22.51 801.66 1.01z"/>
<path d="m66.363 708 799.01-0.88c-127.98 17.45-266.63 14.75-399.94 22.12-133.02-7.07-264.31-7.22-399.07-21.24z" fill="#1a1a1a"/>
<path d="m145.11 715.08 16.812 24.775c211.28 6.2704 411.73 3.8821 611.42 0.88484l15.927-24.775z"/>
<path d="m115.03 621.73-52.205 45.569c271.83-15.647 539.62-17.149 801.44 2.2121l-35.17-43.35c-241.52-19.88-479.2-19.57-714.06-4.43z" fill="#1a1a1a" opacity=".45"/>
<path d="m161.74 586.12-39.418 31.909c232.32-17.062 465.52-15.469 699.51 2.5027l-25.97-32.22c-212.79-15.59-424.66-21.48-634.12-2.19z" fill="#1a1a1a" opacity=".45"/>
<path d="m167.68 581.69 36.278-29.863c179.6-14.116 369.65-8.6485 562.5 2.0642l24.401 30.032c-207.73-15.19-415.46-18.69-623.18-2.23z" fill="#1a1a1a" opacity=".45"/>
<path d="m460.78 656.03c-131.25 0.16618-261.27 4.9748-390.34 13.5 32.28 17.275 197.23 30.406 395.88 30.406 194.95 0 357.44-12.67 393.94-29.469-134.54-10.09-267.63-14.61-399.48-14.44z" fill="url(#linearGradient4432)" opacity=".65"/>
<path d="m167.68 581.69 36.278-29.863c179.6-14.116 369.65-8.6485 562.5 2.0642l24.401 30.032c-207.73-15.19-415.46-18.69-623.18-2.23z" fill="url(#linearGradient4434)"/>
<path d="m161.74 586.12-39.418 31.909c232.32-17.062 465.52-15.469 699.51 2.5027l-25.97-32.22c-212.79-15.59-424.66-21.48-634.12-2.19z" fill="url(#linearGradient4434)"/>
<path d="m115.03 621.73-52.205 45.569c271.83-15.647 539.62-17.149 801.44 2.2121l-35.17-43.35c-241.52-19.88-479.2-19.57-714.06-4.43z" fill="url(#linearGradient4434)"/>
<g transform="translate(1.3122)">
<g transform="matrix(4.1884,0,0,3.7438,2332.9,488.02)">
<ellipse transform="matrix(1.0522,0,0,1.0667,24.806,-3.3012)" cx="-481.28" cy="51.384" rx="1.5899" ry="1.4517" filter="url(#filter4077)"/>
<ellipse transform="matrix(.66079 0 0 .77143 -163.57 11.441)" cx="-481.28" cy="51.384" rx="1.5899" ry="1.4517" filter="url(#filter4081)"/>
<rect x="-482.15" y="49.434" width=".99544" height="2.461" ry=".56072" filter="url(#filter4085)"/>
<ellipse transform="matrix(1.0522,0,0,1.0667,33.516,-3.9095)" cx="-481.28" cy="51.384" rx="1.5899" ry="1.4517" filter="url(#filter4089)"/>
<ellipse transform="matrix(.66079 0 0 .77143 -154.75 10.888)" cx="-481.28" cy="51.384" rx="1.5899" ry="1.4517" filter="url(#filter4093)"/>
<rect x="-473.36" y="49.6" width=".99544" height="3.9265" ry=".89464" filter="url(#filter4097)"/>
<path d="m-465.67 52.365c1.0355-0.3254 2.0316-0.72966 2.8481-1.4932 0.45469-1.5847 0.83348-0.66476 1.2166 0.1106-0.28148 0.5908-0.56905 1.1746-1.3549 1.189-0.31122 0.64056-0.42335 1.5036-1.9356 0.80188-0.31753 0.2355-0.6434 0.46266-1.4655 0.19356-1.1874-1.5377 0.55188-1.4512 0.69128-0.80188z" filter="url(#filter4101)"/>
<path d="m-457.16 51.149c1.0764-1.1454 2.2326-1.0941 3.4564-0.02765 1.1965 0.93686 1.0963-0.3338 0.41476-0.82954-1.5-1.7656-2.942-1.1498-4.3689 0.08295-0.85444 0.57103-0.2733 1.6255 0.49772 0.77424z" filter="url(#filter4105)"/>
<path d="m-456.86 52.171c0.87398-0.95044 1.8128-0.90787 2.8065-0.02294 0.9715 0.77743 0.89012-0.27699 0.33677-0.68837-1.218-1.4651-2.3888-0.95414-3.5474 0.06883-0.69377 0.47386-0.22191 1.3489 0.40413 0.64248z" filter="url(#filter4109)"/>
<path d="m-456.04 53.054c0.60411-0.56062 0.94884-0.48021 1.6357 0.04177 0.67151 0.45856 0.61526-0.43989 0.23278-0.68254-0.84187-0.86419-1.6512-0.5628-2.452 0.0406-0.47954 0.2795 0.15078 1.0169 0.5835 0.60017z" filter="url(#filter4113)"/>
<path d="m-463.93 50.54c-0.74144-0.51536-1.148-0.37863-1.189 0.47007 0.0968 0.80982-0.81127 1.0974-0.84337 0.09678 0.39324-2.2358 1.4183-2.0541 2.6545-1.0646 0.54809 0.68784 0.18595 1.4208-0.62215 0.49772z" filter="url(#filter4117)"/>
<path d="m-446.13 50.978-0.27652 0.0553c0.19931-0.71777-0.1383-1.1492-0.29635-1.6764 0.56306 0.20113 1.115 0.43334 1.5499 0.99348l-0.25806 0.15752c0.71537 0.77903 0.46949 1.6335-0.13826 2.5163l-0.74658-0.16591c0.64137-0.65606 1.0692-1.3014 0.16591-1.8803z" filter="url(#filter4121)"/>
<path d="m-447.29 51.812 0.30416-0.13826c-0.20449 0.53134-0.18017 0.97838 0.1106 1.3273-0.64014 0.11655-1.1456-0.05865-1.6314-0.27651l0.30417-0.41477c-0.76693-0.72815-0.31716-1.4563 0.1659-2.1844l0.63598 0.08295c-0.19866 0.58319-1.1863 1.3292 0.11061 1.6038z" filter="url(#filter4125)"/>
<path d="m-413.3 51.463 0.0782-1.0949 1.9748-0.05866 0.15646 1.2905c0.23846 0.11006 0.49172 0.11647 0.78209-0.13687l-0.21507-1.7597-3.4021 0.07821-0.0195 1.8184c0.33007 0.23039 0.57508 0.25667 0.64518-0.13686z" filter="url(#filter4129)"/>
<path d="m-413.17 52.812c0.93501 0.4402 1.7694 0.4579 2.444-0.19552-0.52338-0.19796-1.0416-0.40318-1.31-0.95807-0.0498 0.58148-0.57175 0.87962-1.134 1.1536z" filter="url(#filter4133)"/>
<path d="m-421.99 51.072 0.0782-1.0949 1.9748-0.05866 0.15646 1.2905c0.23846 0.11006 0.49172 0.11647 0.78209-0.13687l-0.21507-1.7597-3.4021 0.07821-0.0195 1.8184c0.33007 0.23039 0.57508 0.25667 0.64518-0.13686z" filter="url(#filter4137)"/>
<path d="m-421.85 52.421c0.93501 0.4402 1.7694 0.4579 2.444-0.19552-0.52338-0.19796-1.0416-0.40318-1.31-0.95807-0.0498 0.58148-0.57175 0.87962-1.134 1.1536z" filter="url(#filter4141)"/>
<path d="m-430.43 51.228 0.0782-1.0949 1.9748-0.05866 0.15646 1.2905c0.23846 0.11006 0.49172 0.11647 0.78209-0.13687l-0.21507-1.7597-3.4021 0.07821-0.0195 1.8184c0.33007 0.23039 0.57508 0.25667 0.64518-0.13686z" filter="url(#filter4145)"/>
<path d="m-430.29 52.577c0.93501 0.4402 1.7694 0.4579 2.444-0.19552-0.52338-0.19796-1.0416-0.40318-1.31-0.95807-0.0498 0.58148-0.57175 0.87962-1.134 1.1536z" filter="url(#filter4149)"/>
<path d="m-439.35 51.463 0.0782-1.0949 1.9748-0.05866 0.15646 1.2905c0.23846 0.11006 0.49172 0.11647 0.78209-0.13687l-0.21507-1.7597-3.4021 0.07821-0.0195 1.8184c0.33007 0.23039 0.57508 0.25667 0.64518-0.13686z" filter="url(#filter4153)"/>
<path d="m-439.21 52.812c0.93501 0.4402 1.7694 0.4579 2.444-0.19552-0.52338-0.19796-1.0416-0.40318-1.31-0.95807-0.0498 0.58148-0.57175 0.87962-1.134 1.1536z" filter="url(#filter4157)"/>
<ellipse transform="matrix(1.0522,0,0,1.0667,25.027,-3.5224)" cx="-481.28" cy="51.384" rx="1.5899" ry="1.4517" fill="#0ff"/>
<ellipse transform="matrix(.66079 0 0 .77143 -163.35 11.219)" cx="-481.28" cy="51.384" rx="1.5899" ry="1.4517"/>
<rect x="-481.93" y="49.213" width=".99544" height="2.461" ry=".56072" fill="#0ff"/>
<ellipse transform="matrix(1.0522,0,0,1.0667,33.738,-4.1307)" cx="-481.28" cy="51.384" rx="1.5899" ry="1.4517" fill="#0ff"/>
<ellipse transform="matrix(.66079 0 0 .77143 -154.53 10.666)" cx="-481.28" cy="51.384" rx="1.5899" ry="1.4517"/>
<rect x="-473.14" y="49.379" width=".99544" height="3.9265" ry=".89464" fill="#0ff"/>
<path d="m-465.45 52.144c1.0355-0.3254 2.0316-0.72966 2.8481-1.4932 0.45469-1.5847 0.83348-0.66476 1.2166 0.1106-0.28148 0.5908-0.56905 1.1746-1.3549 1.189-0.31122 0.64056-0.42335 1.5036-1.9356 0.80188-0.31753 0.2355-0.6434 0.46266-1.4655 0.19356-1.1874-1.5377 0.55188-1.4512 0.69128-0.80188z" fill="#0ff"/>
<path d="m-456.94 50.927c1.0764-1.1454 2.2326-1.0941 3.4564-0.02765 1.1965 0.93686 1.0963-0.3338 0.41476-0.82954-1.5-1.7656-2.942-1.1498-4.3689 0.08295-0.85444 0.57103-0.2733 1.6255 0.49772 0.77424z" fill="#0ff"/>
<path d="m-456.64 51.95c0.87398-0.95044 1.8128-0.90787 2.8065-0.02294 0.9715 0.77743 0.89012-0.27699 0.33677-0.68837-1.218-1.4651-2.3888-0.95414-3.5474 0.06883-0.69377 0.47386-0.22191 1.3489 0.40413 0.64248z" fill="#0ff"/>
<path d="m-455.82 52.833c0.60411-0.56062 0.94884-0.48021 1.6357 0.04177 0.67151 0.45856 0.61526-0.43989 0.23278-0.68254-0.84187-0.86419-1.6512-0.5628-2.452 0.0406-0.47954 0.2795 0.15078 1.0169 0.5835 0.60017z" fill="#0ff"/>
<path d="m-463.71 50.319c-0.74144-0.51536-1.148-0.37863-1.189 0.47007 0.0968 0.80982-0.81127 1.0974-0.84337 0.09678 0.39324-2.2358 1.4183-2.0541 2.6545-1.0646 0.54809 0.68784 0.18595 1.4208-0.62215 0.49772z" fill="#0ff"/>
<path d="m-445.91 50.757-0.27652 0.0553c0.19931-0.71777-0.1383-1.1492-0.29635-1.6764 0.56306 0.20113 1.115 0.43334 1.5499 0.99348l-0.25806 0.15752c0.71537 0.77903 0.46949 1.6335-0.13826 2.5163l-0.74658-0.16591c0.64137-0.65606 1.0692-1.3014 0.16591-1.8803z" fill="#0ff"/>
<path d="m-447.06 51.591 0.30416-0.13826c-0.20449 0.53134-0.18017 0.97838 0.1106 1.3273-0.64014 0.11655-1.1456-0.05865-1.6314-0.27651l0.30417-0.41477c-0.76693-0.72815-0.31716-1.4563 0.1659-2.1844l0.63598 0.08295c-0.19866 0.58319-1.1863 1.3292 0.11061 1.6038z" fill="#0ff"/>
<path d="m-413.08 51.241 0.0782-1.0949 1.9748-0.05866 0.15646 1.2905c0.23846 0.11006 0.49172 0.11647 0.78209-0.13687l-0.21507-1.7597-3.4021 0.07821-0.0195 1.8184c0.33007 0.23039 0.57508 0.25667 0.64518-0.13686z" fill="#0ff"/>
<path d="m-412.95 52.59c0.93501 0.4402 1.7694 0.4579 2.444-0.19552-0.52338-0.19796-1.0416-0.40318-1.31-0.95807-0.0498 0.58148-0.57175 0.87962-1.134 1.1536z" fill="#0ff"/>
<path d="m-421.76 50.85 0.0782-1.0949 1.9748-0.05866 0.15646 1.2905c0.23846 0.11006 0.49172 0.11647 0.78209-0.13687l-0.21507-1.7597-3.4021 0.07821-0.0195 1.8184c0.33007 0.23039 0.57508 0.25667 0.64518-0.13686z" fill="#b3b3b3"/>
<path d="m-421.63 52.199c0.93501 0.4402 1.7694 0.4579 2.444-0.19552-0.52338-0.19796-1.0416-0.40318-1.31-0.95807-0.0498 0.58148-0.57175 0.87962-1.134 1.1536z" fill="#b3b3b3"/>
<path d="m-430.21 51.007 0.0782-1.0949 1.9748-0.05866 0.15646 1.2905c0.23846 0.11006 0.49172 0.11647 0.78209-0.13687l-0.21507-1.7597-3.4021 0.07821-0.0195 1.8184c0.33007 0.23039 0.57508 0.25667 0.64518-0.13686z" fill="#999"/>
<path d="m-430.07 52.356c0.93501 0.4402 1.7694 0.4579 2.444-0.19552-0.52338-0.19796-1.0416-0.40318-1.31-0.95807-0.0498 0.58148-0.57175 0.87962-1.134 1.1536z" fill="#999"/>
<path d="m-439.13 51.241 0.0782-1.0949 1.9748-0.05866 0.15646 1.2905c0.23846 0.11006 0.49172 0.11647 0.78209-0.13687l-0.21507-1.7597-3.4021 0.07821-0.0195 1.8184c0.33007 0.23039 0.57508 0.25667 0.64518-0.13686z" fill="#999"/>
<path d="m-438.99 52.59c0.93501 0.4402 1.7694 0.4579 2.444-0.19552-0.52338-0.19796-1.0416-0.40318-1.31-0.95807-0.0498 0.58148-0.57175 0.87962-1.134 1.1536z" fill="#999"/>
</g>
</g>
</g>
</g>
<rect transform="matrix(1.0692 0 0 1.0477 4.4442 38.894)" x="2" y="-30" width="75.966" height="69.024" rx="3.957" ry="3.957" clip-path="url(#clipPath4156-4-1)" fill="url(#linearGradient4767)" opacity=".65"/>
</g>
</g>
</svg>
