<?xml version="1.0" encoding="UTF-8"?>
<!-- Created with Inkscape (http://www.inkscape.org/) -->
<svg version="1.1" viewBox="0 0 24 24" xmlns="http://www.w3.org/2000/svg" xmlns:cc="http://creativecommons.org/ns#" xmlns:dc="http://purl.org/dc/elements/1.1/" xmlns:rdf="http://www.w3.org/1999/02/22-rdf-syntax-ns#">
<metadata>
<rdf:RDF>
<cc:Work rdf:about="">
<dc:format>image/svg+xml</dc:format>
<dc:type rdf:resource="http://purl.org/dc/dcmitype/StillImage"/>
<dc:title/>
</cc:Work>
</rdf:RDF>
</metadata>
<g transform="translate(3316.4 -2092.7)">
<path class="error" d="m-3305.4 2096.7c-0.554 0-1 0.446-1 1-1.6447 0-3 1.3553-3 3v9c0 1.6447 1.3553 3 3 3h4c1.6447 0 3-1.3553 3-3v-9c0-1.6447-1.3553-3-3-3 0-0.554-0.446-1-1-1zm-1 3h4c0.5713 0 1 0.4287 1 1v9c0 0.5713-0.4287 1-1 1h-4c-0.5713 0-1-0.4287-1-1v-9c0-0.5713 0.4287-1 1-1z" color="#000000" fill="#d95f43"/>
</g>
</svg>
