<?xml version="1.0" encoding="UTF-8"?>
<!-- Created with Inkscape (http://www.inkscape.org/) -->
<svg version="1.1" viewBox="0 0 96 96" xmlns="http://www.w3.org/2000/svg" xmlns:cc="http://creativecommons.org/ns#" xmlns:dc="http://purl.org/dc/elements/1.1/" xmlns:rdf="http://www.w3.org/1999/02/22-rdf-syntax-ns#" xmlns:xlink="http://www.w3.org/1999/xlink">
<defs>
<linearGradient id="linearGradient4071" x1="6" x2="90" y1="47" y2="47" gradientTransform="matrix(1.1071 0 0 1.1071 -4.9939 -3.6207)" gradientUnits="userSpaceOnUse">
<stop stop-color="#b2babc" offset="0"/>
<stop stop-color="#fff" offset=".25"/>
<stop stop-color="#96a1a4" offset=".5"/>
<stop stop-color="#fbf9f9" offset=".75"/>
<stop stop-color="#b2b9bc" offset="1"/>
</linearGradient>
<linearGradient id="linearGradient4129" x1="1.5" x2="94.5" y1="88.172" y2="88.172" gradientTransform="translate(.14895 .41503)" gradientUnits="userSpaceOnUse">
<stop offset="0"/>
<stop stop-opacity=".58824" offset=".1"/>
<stop stop-opacity=".58824" offset=".9"/>
<stop offset="1"/>
</linearGradient>
<linearGradient id="linearGradient3737">
<stop stop-color="#fff" offset="0"/>
<stop stop-color="#fff" stop-opacity="0" offset="1"/>
</linearGradient>
<linearGradient id="linearGradient4767" x1="2.7714" x2="50.528" y1="-28.642" y2="14.514" gradientUnits="userSpaceOnUse" xlink:href="#linearGradient3737"/>
<clipPath id="clipPath4156-4-1">
<path d="m27.046-55.695-14.214 13.321h0.06127l15.653 21.771 10.231-10.546c-0.2169-1.1522-11.311-23.67-11.732-24.546zm-17.399 16.313-14.888 14.062 21.229 17.515 10.385-10.577zm31.491 12.951-9.7413 9.7136 8.9448 12.458 7.7808-7.555zm-49.84 4.3788-13.754 12.982 26.283 13.846 0.06127-0.0617-0.12253-0.0617 9.8332-10.053-22.301-16.652zm38.015 7.4008-9.8025 9.7753 11.579 9.5594 7.6276-7.4008-8.6691-11.009zm20.187 5.674-7.3825 7.2158 6.1878 8.5418 5.8202-6.1365zm-32.195 6.3215-9.5575 9.4977 13.662 7.185 7.9339-7.6784zm23.312 2.3744-7.1068 6.9383 8.3628 6.9074 5.3608-5.674-0.06127-0.0925-0.0919 0.12335-6.4635-8.2026zm-8.7304 8.5418-7.5051 7.3392 10.354 5.4581c1.3975-1.321 5.6751-6.1229 5.8509-6.3215z" fill="#fff" opacity=".6"/>
</clipPath>
<linearGradient id="linearGradient4160">
<stop stop-opacity="0" offset="0"/>
<stop stop-opacity=".96471" offset=".031756"/>
<stop stop-opacity="0" offset=".094256"/>
<stop stop-opacity="0" offset=".49595"/>
<stop stop-opacity="0" offset=".90526"/>
<stop stop-opacity=".98824" offset=".96241"/>
<stop stop-opacity="0" offset="1"/>
</linearGradient>
<radialGradient id="radialGradient4543" cx="48" cy="-16.128" r="44.544" gradientTransform="matrix(.97115 0 0 .043804 -16.346 4.0121)" gradientUnits="userSpaceOnUse" xlink:href="#linearGradient3737"/>
<linearGradient id="linearGradient4545" x1="53.898" x2="27.952" y1="-69.457" y2="23.168" gradientTransform="matrix(.96067 0 0 .85224 -17.086 -18.213)" gradientUnits="userSpaceOnUse" spreadMethod="reflect">
<stop stop-color="#e3e9e9" offset="0"/>
<stop stop-color="#eef2f2" offset=".21972"/>
<stop stop-color="#f9fbfb" offset=".47878"/>
<stop stop-color="#fff" offset="1"/>
</linearGradient>
<linearGradient id="linearGradient4549" x1="2.5" x2="93.5" y1="54.297" y2="54.297" gradientTransform="matrix(.97115 0 0 .89669 -17.589 -13.417)" gradientUnits="userSpaceOnUse" xlink:href="#linearGradient4160"/>
<linearGradient id="linearGradient4555" x1="2.5" x2="93.5" y1="11.141" y2="11.141" gradientTransform="matrix(.97115 0 0 .89669 -17.589 -12.792)" gradientUnits="userSpaceOnUse" xlink:href="#linearGradient4160"/>
<linearGradient id="linearGradient1189" x1="-11.081" x2="63.712" y1="26.189" y2="26.189" gradientTransform="matrix(1.0201 0 0 .92211 2.5126 10.573)" gradientUnits="userSpaceOnUse">
<stop stop-color="#2567a5" offset="0"/>
<stop stop-color="#42b5c3" offset=".5"/>
<stop stop-color="#1e6020" offset="1"/>
</linearGradient>
</defs>
<metadata>
<rdf:RDF>
<cc:Work rdf:about="">
<dc:format>image/svg+xml</dc:format>
<dc:type rdf:resource="http://purl.org/dc/dcmitype/StillImage"/>
<dc:title/>
<dc:date>2017</dc:date>
<dc:creator>
<cc:Agent>
<dc:title>Cristian Pozzessere "ilnanny"</dc:title>
</cc:Agent>
</dc:creator>
<dc:subject>
<rdf:Bag>
<rdf:li>Global language</rdf:li>
</rdf:Bag>
</dc:subject>
<dc:description>Playing with Inkscape on Gnu/Linux O. S.</dc:description>
<dc:contributor>
<cc:Agent>
<dc:title>In the night, alone like a dog.</dc:title>
</cc:Agent>
</dc:contributor>
<cc:license rdf:resource="http://creativecommons.org/licenses/by-sa/4.0/"/>
</cc:Work>
<cc:License rdf:about="http://creativecommons.org/licenses/by-sa/4.0/">
<cc:permits rdf:resource="http://creativecommons.org/ns#Reproduction"/>
<cc:permits rdf:resource="http://creativecommons.org/ns#Distribution"/>
<cc:requires rdf:resource="http://creativecommons.org/ns#Notice"/>
<cc:requires rdf:resource="http://creativecommons.org/ns#Attribution"/>
<cc:permits rdf:resource="http://creativecommons.org/ns#DerivativeWorks"/>
<cc:requires rdf:resource="http://creativecommons.org/ns#ShareAlike"/>
</cc:License>
</rdf:RDF>
</metadata>
<g transform="translate(0 -1026.5)">
<g transform="translate(-.14896 1026.1)">
<path d="m89.292 0.41503h-82.286c-3.7988 0-6.8571 3.0583-6.8571 6.8571v82.286c0 3.7989 3.0583 6.8571 6.8571 6.8571h82.286c3.7989 0 6.8571-3.0583 6.8571-6.8571v-82.286c0-3.7989-3.0583-6.8571-6.8571-6.8571z" opacity=".15"/>
<path d="m88.649 1.165h-81c-3.7395 0-6.75 3.0105-6.75 6.75v81c0 3.7395 3.0105 6.75 6.75 6.75h81c3.7395 0 6.75-3.0105 6.75-6.75v-81c0-3.7395-3.0105-6.75-6.75-6.75z" opacity=".15"/>
<path d="m88.006 1.915h-79.714c-3.6801 0-6.6429 2.9627-6.6429 6.6429v79.714c0 3.6801 2.9627 6.6429 6.6429 6.6429h79.714c3.6801 0 6.6429-2.9627 6.6429-6.6429v-79.714c0-3.6801-2.9627-6.6429-6.6429-6.6429z" fill="url(#linearGradient4071)"/>
<g transform="translate(19.118 13.653)">
<rect x="-12.99" y="1.3545" width="86.518" height="3.9024" rx="3.8428" ry="2.7418" fill="url(#radialGradient4543)" opacity=".65091"/>
<path d="m-11.641-10.83c-2.1197 0-3.8239 1.5735-3.8239 3.5307v10.76c0-1.9572 1.7042-3.5307 3.8239-3.5307h81.334c2.1197 0 3.8239 1.5735 3.8239 3.5307v-10.76c0-1.9572-1.7042-3.5307-3.8239-3.5307z" opacity="0" stroke-width=".93318"/>
<rect transform="scale(1,-1)" x="-15.165" y="-71.052" width="88.382" height="78.406" rx="3.8014" ry="3.3723" fill="url(#linearGradient4545)" stroke="#738589" stroke-width=".90877"/>
<rect x="-10.656" y="5.9398" width="80.025" height="57.564" fill="#dbe3e2" stroke="#525252" stroke-linecap="round" stroke-linejoin="round" stroke-width=".6789"/>
<rect x="-8.4334" y="7.9687" width="75.579" height="53.506" fill="url(#linearGradient1189)" opacity=".642" stroke="#525252" stroke-linecap="round" stroke-linejoin="round" stroke-width=".6789"/>
<g transform="matrix(1.0839 0 0 1.0839 -2.4367 -2.9177)">
<path d="m55.214 34.781a26.183 26.183 0 0 1-52.365 0 26.183 26.183 0 1 1 52.365 0z" fill="#fff" stroke="#364e59" stroke-width="1.0909"/>
<path d="m29.031 11.675c-12.751 0-23.087 10.337-23.087 23.087 0 12.751 10.337 23.087 23.087 23.087 12.751 0 23.087-10.337 23.087-23.087 0-12.751-10.337-23.087-23.087-23.087zm0 2.8408c11.191 0 20.247 9.0555 20.247 20.247s-9.0555 20.247-20.247 20.247c-11.191 0-20.247-9.0555-20.247-20.247s9.0555-20.247 20.247-20.247z" fill="#0e232e" opacity=".438"/>
<text x="25.087008" y="22.790462" fill="#4d4d4d" font-family="BabelSans" font-size="7.0534px" font-weight="bold" stroke-width="1.071" style="line-height:0%" xml:space="preserve"><tspan x="25.087008" y="22.790462" stroke-width="1.071">12</tspan></text>
<text x="26.630871" y="51.868748" fill="#4d4d4d" font-family="BabelSans" font-size="7.0534px" font-weight="bold" stroke-width="1.071" style="line-height:0%" xml:space="preserve"><tspan x="26.630871" y="51.868748" stroke-width="1.071">6</tspan></text>
<text x="11.028529" y="37.27272" fill="#4d4d4d" font-family="BabelSans" font-size="7.0534px" font-weight="bold" stroke-width="1.071" style="line-height:0%" xml:space="preserve"><tspan x="11.028529" y="37.27272" stroke-width="1.071">9</tspan></text>
<text x="42.32291" y="37.27272" fill="#4d4d4d" font-family="BabelSans" font-size="7.0534px" font-weight="bold" stroke-width="1.071" style="line-height:0%" xml:space="preserve"><tspan x="42.32291" y="37.27272" stroke-width="1.071">3</tspan></text>
<rect transform="rotate(30)" x="41.187" y="-1.0962" width="1.224" height="3.6719" fill="#4d4d4d" opacity=".4"/>
<rect transform="rotate(60)" x="43.646" y="-24.155" width="1.224" height="3.6719" fill="#4d4d4d" opacity=".4"/>
<rect transform="rotate(120)" x="15.505" y="-59.012" width="1.224" height="3.6719" fill="#4d4d4d" opacity=".4"/>
<rect transform="rotate(150)" x="-7.5535" y="-61.471" width="1.224" height="3.6719" fill="#4d4d4d" opacity=".4"/>
<rect transform="rotate(210)" x="-42.411" y="-33.331" width="1.224" height="3.6719" fill="#4d4d4d" opacity=".4"/>
<rect transform="rotate(240)" x="-44.87" y="-10.272" width="1.224" height="3.6719" fill="#4d4d4d" opacity=".4"/>
<rect transform="rotate(-60)" x="-16.729" y="24.585" width="1.224" height="3.6719" fill="#4d4d4d" opacity=".4"/>
<rect transform="rotate(-30)" x="6.3295" y="27.044" width="1.224" height="3.6719" fill="#4d4d4d" opacity=".4"/>
<rect transform="rotate(135)" x="4.4896" y="-60.404" width="1.224" height="12.24" fill="#d40000"/>
<path d="m31.98 36.672a2.4479 2.4479 0 1 1-4.8958 0 2.4479 2.4479 0 1 1 4.8958 0z"/>
<path d="m18.525 36.574 4.8107-0.63646 4.9407-0.5875 0.13003 1.224-0.13003 1.224-4.9407-0.5875z"/>
<path d="m30.744 36.672a1.2115 1.2115 0 1 1-2.4231 0 1.2115 1.2115 0 1 1 2.4231 0z" fill="#fff"/>
<path d="m37.707 22.772-3.0677 6.5864-3.2079 6.7313-1.1578-0.44255-0.96216-0.7814 4.2255-6.1438z"/>
</g>
<path d="m-11.352-3.4419c-2.1059 0-3.8126 1.5794-3.8126 3.5283v3.5561c0-1.9489 1.7067-3.5283 3.8126-3.5283h80.756c2.1059 0 3.8126 1.5794 3.8126 3.5283v-3.5561c0-1.9489-1.7067-3.5283-3.8126-3.5283z" fill="#e4e8e8" stroke="#738589" stroke-width=".92611"/>
<path d="m-11.352-6.9976c-2.1059 0-3.8126 1.5794-3.8126 3.5283v3.5561c0-1.9489 1.7067-3.5283 3.8126-3.5283h80.756c2.1059 0 3.8126 1.5794 3.8126 3.5283v-3.5561c0-1.9489-1.7067-3.5283-3.8126-3.5283z" fill="#e4e8e8" stroke="#738589" stroke-width=".92611"/>
<path d="m-11.368 0.11773c-2.106 0-3.7935 1.5624-3.7935 3.5027v63.301c0 1.9403 1.6876 3.5027 3.7935 3.5027h80.787c2.106 0 3.7935-1.5624 3.7935-3.5027v-63.301c0-1.9403-1.6876-3.5027-3.7935-3.5027z" fill="url(#linearGradient4549)" opacity=".28"/>
<path d="m-11.368-6.3892c-2.106 0-3.7935 1.5624-3.7935 3.5027v7.6643c0-1.9403 2.027-4.2903 4.133-4.2862l80.618 0.15671c2.106 0.004096 3.6238 2.1893 3.6238 4.1295v-7.6643c0-1.9403-1.6876-3.5027-3.7935-3.5027z" fill="url(#linearGradient4555)" opacity=".25818"/>
</g>
<path d="m9.3868 5.1445c-3.1463 0-5.722 2.5395-5.722 5.646v69.278c0 3.1065 2.5757 5.646 5.722 5.646h77.524c3.1463 0 5.722-2.5395 5.722-5.646v-69.278c0-3.1065-2.5757-5.646-5.722-5.646zm0 2.3194h77.524c1.9061 0 3.384 1.4801 3.384 3.3266v69.278c0 1.8465-1.4779 3.3266-3.384 3.3266h-77.524c-1.9061 0-3.384-1.4801-3.384-3.3266v-69.278c0-1.8465 1.4779-3.3266 3.384-3.3266z" color="#000000" fill="#252b30" fill-opacity=".89701" style="text-decoration-line:none;text-indent:0;text-transform:none"/>
<path d="m1.649 82.259v6c0 3.6801 2.9761 6.6562 6.6562 6.6562h79.687c3.6801 0 6.6563-2.9761 6.6563-6.6562v-6c0 3.6801-2.9761 6.6562-6.6563 6.6562h-79.687c-3.6801 0-6.6562-2.9761-6.6562-6.6562z" fill="url(#linearGradient4129)" opacity=".65818"/>
<rect transform="matrix(1.0692 0 0 1.0477 4.4442 38.894)" x="2" y="-30" width="75.966" height="69.024" rx="3.957" ry="3.957" clip-path="url(#clipPath4156-4-1)" fill="url(#linearGradient4767)" opacity=".50781"/>
<g transform="translate(-44.527 105.49)"></g>
</g>
</g>
</svg>
