<?xml version="1.0" encoding="UTF-8"?>
<svg version="1.1" viewBox="0 0 32 32" xmlns="http://www.w3.org/2000/svg" xmlns:cc="http://creativecommons.org/ns#" xmlns:dc="http://purl.org/dc/elements/1.1/" xmlns:rdf="http://www.w3.org/1999/02/22-rdf-syntax-ns#" xmlns:xlink="http://www.w3.org/1999/xlink">
<script xlink:href=""/>
<defs>
<clipPath id="clipPath4031">
<path d="m48 32c-19.882 0-36 16.118-36 36s16.118 36 36 36 36-16.118 36-36-16.118-36-36-36zm0 24c6.6274 0 12 5.3726 12 12s-5.3726 12-12 12-12-5.3726-12-12 5.3726-12 12-12z" fill="#bbb1bf"/>
</clipPath>
<filter id="filter4035" x="-.19037" y="-.1707" width="1.3807" height="1.3414" color-interpolation-filters="sRGB">
<feGaussianBlur stdDeviation="4.9476562"/>
</filter>
<clipPath id="clipPath4187">
<path d="m51.2 108.8c-21.208 0-38.4 17.192-38.4 38.4s17.192 38.4 38.4 38.4 38.4-17.192 38.4-38.4-17.192-38.4-38.4-38.4zm0 25.6c7.0692 0 12.8 5.7308 12.8 12.8s-5.7308 12.8-12.8 12.8-12.8-5.7308-12.8-12.8 5.7308-12.8 12.8-12.8z" fill="#bbb1bf"/>
</clipPath>
<filter id="filter4195" x="-.18" y="-.18" width="1.36" height="1.36" color-interpolation-filters="sRGB">
<feGaussianBlur stdDeviation="5.2159999"/>
</filter>
<linearGradient id="linearGradient3888-8-4-8-4-6-9-0-8-7-9">
<stop stop-color="#fff" offset="0"/>
<stop stop-color="#fff" stop-opacity="0" offset="1"/>
</linearGradient>
<linearGradient id="linearGradient4788" x1="6" x2="90" y1="47" y2="47" gradientTransform="matrix(1.1429 0 0 1.1429 -32.183 -24.606)" gradientUnits="userSpaceOnUse">
<stop stop-color="#b7b7b7" offset="0"/>
<stop stop-color="#fff" offset=".25"/>
<stop stop-color="#9d9d9d" offset=".5"/>
<stop stop-color="#fafafa" offset=".75"/>
<stop stop-color="#b7b7b7" offset="1"/>
</linearGradient>
<radialGradient id="radialGradient4790" cx="158" cy="6.2132" r="41" gradientTransform="matrix(0 1.729 -2.1742 0 171.38 -259.24)" gradientUnits="userSpaceOnUse">
<stop stop-color="#fff" offset="0"/>
<stop stop-color="#fff" stop-opacity="0" offset="1"/>
</radialGradient>
<radialGradient id="radialGradient4792" cx="48" cy="-27" r="42" gradientTransform="matrix(-1.1437 0 0 -.93335 212.76 -20.401)" gradientUnits="userSpaceOnUse">
<stop stop-color="#fff" offset="0"/>
<stop stop-color="#fff" offset=".8"/>
<stop stop-color="#fff" stop-opacity="0" offset="1"/>
</radialGradient>
<linearGradient id="linearGradient4794" x1="-94" x2="-10.188" y1="82.984" y2="82.984" gradientTransform="matrix(1.0667 0 0 .94833 213.33 9.5394)" gradientUnits="userSpaceOnUse">
<stop offset="0"/>
<stop stop-opacity=".58824" offset=".1"/>
<stop stop-opacity=".58824" offset=".9"/>
<stop offset="1"/>
</linearGradient>
<linearGradient id="linearGradient4796" x1="62" x2="62" y1="8" y2="68" gradientTransform="matrix(1.1935 0 0 1.1544 -34.38 -24.386)" gradientUnits="userSpaceOnUse" xlink:href="#linearGradient3888-8-4-8-4-6-9-0-8-7-9"/>
<radialGradient id="radialGradient4798" cx="14.693" cy=".38068" r="45.056" gradientTransform="matrix(1.0066 0 0 .89676 8.1182 24.913)" gradientUnits="userSpaceOnUse">
<stop stop-color="#faa" offset="0"/>
<stop stop-color="#f77" offset="1"/>
</radialGradient>
<linearGradient id="linearGradient4800" x1="25.22" x2="94.568" y1="61.922" y2="61.922" gradientTransform="matrix(0 .14771 -.17078 0 59.721 45.929)" gradientUnits="userSpaceOnUse">
<stop stop-color="#4d4d4d" offset="0"/>
<stop stop-color="#fff" offset="1"/>
</linearGradient>
<radialGradient id="radialGradient4802" cx="59.894" cy="61.922" r="33.714" gradientTransform="matrix(0 .25514 -.24706 0 64.444 39.495)" gradientUnits="userSpaceOnUse">
<stop stop-opacity="0" offset="0"/>
<stop stop-opacity="0" offset=".85"/>
<stop offset="1"/>
</radialGradient>
<linearGradient id="linearGradient4804" x1="26.18" x2="93.608" y1="61.922" y2="61.922" gradientTransform="matrix(0 .25514 -.29498 0 67.412 39.495)" gradientUnits="userSpaceOnUse">
<stop stop-color="#fff" stop-opacity=".20312" offset="0"/>
<stop stop-color="#fff" stop-opacity=".67969" offset="1"/>
</linearGradient>
<clipPath id="clipPath4156-4-1-6">
<path d="m27.046-55.695-14.214 13.321h0.06127l15.653 21.771 10.231-10.546c-0.2169-1.1522-11.311-23.67-11.732-24.546zm-17.399 16.313-14.888 14.062 21.229 17.515 10.385-10.577zm31.491 12.951-9.7413 9.7136 8.9448 12.458 7.7808-7.555zm-49.84 4.3788-13.754 12.982 26.283 13.846 0.06127-0.0617-0.12253-0.0617 9.8332-10.053-22.301-16.652zm38.015 7.4008-9.8025 9.7753 11.579 9.5594 7.6276-7.4008-8.6691-11.009zm20.187 5.674-7.3825 7.2158 6.1878 8.5418 5.8202-6.1365zm-32.195 6.3215-9.5575 9.4977 13.662 7.185 7.9339-7.6784zm23.312 2.3744-7.1068 6.9383 8.3628 6.9074 5.3608-5.674-0.06127-0.0925-0.0919 0.12335-6.4635-8.2026zm-8.7304 8.5418-7.5051 7.3392 10.354 5.4581c1.3975-1.321 5.6751-6.1229 5.8509-6.3215z" fill="#fff" opacity=".6"/>
</clipPath>
<linearGradient id="linearGradient1162" x1="2.7714" x2="50.528" y1="-28.642" y2="14.514" gradientUnits="userSpaceOnUse" xlink:href="#linearGradient3888-8-4-8-4-6-9-0-8-7-9"/>
</defs>
<metadata>
<rdf:RDF>
<cc:Work rdf:about="">
<dc:format>image/svg+xml</dc:format>
<dc:type rdf:resource="http://purl.org/dc/dcmitype/StillImage"/>
<dc:title/>
<dc:date>2017</dc:date>
<dc:creator>
<cc:Agent>
<dc:title>Cristian Pozzessere "ilnanny"</dc:title>
</cc:Agent>
</dc:creator>
<dc:subject>
<rdf:Bag>
<rdf:li>Global language</rdf:li>
</rdf:Bag>
</dc:subject>
<dc:description>Playing with Inkscape on Gnu/Linux O. S.</dc:description>
<dc:contributor>
<cc:Agent>
<dc:title>In the night, alone like a dog.</dc:title>
</cc:Agent>
</dc:contributor>
<cc:license rdf:resource="http://creativecommons.org/licenses/by-sa/4.0/"/>
</cc:Work>
<cc:License rdf:about="http://creativecommons.org/licenses/by-sa/4.0/">
<cc:permits rdf:resource="http://creativecommons.org/ns#Reproduction"/>
<cc:permits rdf:resource="http://creativecommons.org/ns#Distribution"/>
<cc:requires rdf:resource="http://creativecommons.org/ns#Notice"/>
<cc:requires rdf:resource="http://creativecommons.org/ns#Attribution"/>
<cc:permits rdf:resource="http://creativecommons.org/ns#DerivativeWorks"/>
<cc:requires rdf:resource="http://creativecommons.org/ns#ShareAlike"/>
</cc:License>
</rdf:RDF>
</metadata>
<g transform="translate(0 27.733)">
<g transform="translate(25.486 -9.0021)">
<g transform="matrix(.99583 0 0 .99583 -.065529 .28129)">
<g transform="matrix(.32427 0 0 .32427 -16.812 -12.464)">
<path d="m63.817-18.891h-82.286c-3.7989 0-6.8571 3.0583-6.8571 6.8571v82.286c0 3.7989 3.0583 6.8571 6.8571 6.8571h82.286c3.7989 0 6.8571-3.0583 6.8571-6.8571v-82.286c0-3.7989-3.0583-6.8571-6.8571-6.8571z" fill="url(#linearGradient4788)"/>
<g transform="matrix(1.0714 0 0 1.0714 -146.47 -24.034)">
<path d="m119.47 5.8667c-2.9731 0-5.3333 2.3602-5.3333 5.3333v70.733c1.142 1.7374 3.0901 2.9 5.3333 2.9h76.8c2.2433 0 4.1913-1.1626 5.3333-2.9v-70.733c0-2.9731-2.3602-5.3333-5.3333-5.3333z" fill="url(#radialGradient4790)" opacity=".2"/>
<path d="m119.47 4.8c-3.5456 0-6.4 2.8544-6.4 6.4v16h1.0667v-16c0-2.9731 2.3602-5.3333 5.3333-5.3333h76.8c2.9731 0 5.3333 2.3602 5.3333 5.3333v16h1.0667v-16c0-3.5456-2.8544-6.4-6.4-6.4z" fill="url(#radialGradient4792)" opacity=".45"/>
<path d="m113.07 82.072v6.6383c0 3.1522 2.8544 5.69 6.4 5.69h76.8c3.5456 0 6.4-2.5377 6.4-5.69v-6.6383c0 3.1522-2.8544 5.69-6.4 5.69h-76.8c-3.5456 0-6.4-2.5377-6.4-5.69z" fill="url(#linearGradient4794)" opacity=".43092"/>
</g>
<path d="m-17.671 42.571c-1.891 0-3.6609 0.97685-4.774 2.4171v16.054c0 2.5582 2.1292 4.6177 4.774 4.6177h81.158c2.6448 0 4.774-2.0595 4.774-4.6177v-16.054c-1.1131-1.4402-2.883-2.4171-4.774-2.4171zm0 3.4633h81.158c1.3637 0 2.387 0.98981 2.387 2.3088v12.699c0 1.319-1.0233 2.3088-2.387 2.3088h-81.158c-1.3637 0-2.387-0.98981-2.387-2.3088v-12.699c0-1.319 1.0233-2.3088 2.387-2.3088z" color="#000000" opacity=".02" style="text-decoration-line:none;text-indent:0;text-transform:none"/>
<path d="m10.973-15.151c8.3556 27.858 17.038 55.06 25.847 80.809h26.667c2.6448 0 4.774-2.0595 4.774-4.6177v-71.574c0-2.5582-2.1292-4.6177-4.774-4.6177z" color="#000000" fill="url(#linearGradient4796)" opacity=".45"/>
<path d="m-17.671-15.151h81.158c2.6448 0 4.774 2.0595 4.774 4.6177v71.574c0 2.5582-2.1292 4.6177-4.774 4.6177h-81.158c-2.6448 0-4.774-2.0595-4.774-4.6177v-71.574c0-2.5582 2.1292-4.6177 4.774-4.6177z" color="#000000" fill="url(#radialGradient4798)" opacity=".084"/>
<path d="m-16.724-14.298h79.264c2.5831 0 4.6626 2.0122 4.6626 4.5116v69.929c0 2.4994-2.0795 4.5116-4.6626 4.5116h-79.264c-2.5831 0-4.6626-2.0122-4.6626-4.5116v-69.929c0-2.4994 2.0795-4.5116 4.6626-4.5116z" color="#000000" fill="none" stroke="#000" stroke-opacity=".7758" stroke-width="2.3662"/>
<g transform="matrix(1.2414 0 0 1.1891 -37.61 -40.126)">
<path d="m49.146 36.817c-10.092 0-18.3 8.5292-18.3 19.015 0 10.486 8.2086 19.015 18.3 19.015 10.092 0 18.3-8.5292 18.3-19.015 0-10.486-8.2086-19.015-18.3-19.015zm0 10.564c4.5104 0 8.1334 3.7645 8.1334 8.4511 0 4.6866-3.6229 8.4511-8.1334 8.4511-4.5104 0-8.1334-3.7645-8.1334-8.4511 0-4.6866 3.6229-8.4511 8.1334-8.4511z" color="#000000" opacity=".05"/>
<path d="m49.146 38.93c-8.9839 0-16.267 7.5674-16.267 16.902s7.2829 16.902 16.267 16.902c8.9839 0 16.267-7.5674 16.267-16.902s-7.2829-16.902-16.267-16.902zm0 6.3383c5.6149 0 10.167 4.7296 10.167 10.564 0 5.8343-4.5518 10.564-10.167 10.564-5.6149 0-10.167-4.7296-10.167-10.564 0-5.8343 4.5518-10.564 10.167-10.564z" color="#000000" opacity=".3"/>
<path d="m49.146 37.841c-9.5542 0-17.315 8.0642-17.315 17.992 0 9.9274 7.761 17.992 17.315 17.992 9.5542 0 17.315-8.0642 17.315-17.992 0-9.9274-7.761-17.992-17.315-17.992zm0 8.5171c5.0446 0 9.1183 4.2328 9.1183 9.4745 0 5.2416-4.0737 9.4745-9.1183 9.4745-5.0446 0-9.1183-4.2328-9.1183-9.4745 0-5.2417 4.0737-9.4745 9.1183-9.4745z" color="#000000" opacity=".1"/>
<path d="m49.146 23.174c-16.797 0-30.414 14.149-30.414 31.602 0 17.453 13.617 31.602 30.414 31.602 16.797 0 30.414-14.149 30.414-31.602 0-17.453-13.617-31.602-30.414-31.602zm0 21.068c5.5991 0 10.138 4.7163 10.138 10.534 0 5.8178-4.539 10.534-10.138 10.534-5.5991 0-10.138-4.7163-10.138-10.534 0-5.8178 4.539-10.534 10.138-10.534z" fill="#bbb1bf"/>
<path d="m49.146 44.242c-5.5991 0-10.138 4.7163-10.138 10.534 0 5.8178 4.539 10.534 10.138 10.534 5.5991 0 10.138-4.7163 10.138-10.534 0-5.8178-4.539-10.534-10.138-10.534zm0 6.1449c2.333 0 4.2242 1.9651 4.2242 4.3892s-1.8912 4.3892-4.2242 4.3892c-2.333 0-4.2242-1.9651-4.2242-4.3892s1.8912-4.3892 4.2242-4.3892z" fill="#fff" opacity=".3"/>
<path d="m49.146 59.604a4.6466 4.8281 0 1 1 0-9.6563 4.6466 4.8281 0 1 1 0 9.6563z" fill="none" opacity=".6" stroke="url(#linearGradient4800)" stroke-linecap="round" stroke-width="1.0363"/>
<path d="m49.146 63.115a8.026 8.3394 0 1 1 0-16.679 8.026 8.3394 0 1 1 0 16.679z" fill="url(#radialGradient4802)" fill-rule="evenodd" opacity=".5" stroke="url(#linearGradient4804)" stroke-linecap="round" stroke-width="1.0363"/>
<path transform="matrix(.84484 0 0 .87784 8.5937 -4.9174)" d="m57.312 33.219-9.3125 34.781 31.188-18c-4.7739-8.2686-12.653-14.31-21.875-16.781zm-9.3125 34.781-31.188 18c4.7739 8.2686 12.653 14.31 21.875 16.781z" clip-path="url(#clipPath4031)" fill="#fff" filter="url(#filter4035)" opacity=".8"/>
<g transform="matrix(.79204 0 0 .82298 8.5937 -66.366)" clip-path="url(#clipPath4187)" filter="url(#filter4195)" opacity=".6">
<path d="m68.304 181.58a38.4 38.4 37.964 0 1-7.1657 2.7113l-9.9386-37.092z" fill="#7137c8"/>
<path d="m76.199 176.35a38.4 38.4 31.514 0 1-7.899 5.2343l-17.1-34.382z" fill="#0cf"/>
<path d="m86.497 162.32a38.4 38.4 17.712 0 1-4.1902 7.3927l-31.107-22.515z" fill="#fc0"/>
<path d="m88.292 157.14a38.4 38.4 89.232 0 1-1.843 5.2962l-35.249-15.235z" fill="#f00"/>
<path d="m82.578 169.34a38.4 38.4 31.514 0 1-6.4436 7.0677l-24.934-29.204z" fill="#0f0"/>
<path d="m34.096 112.82a38.4 38.4 37.964 0 1 7.1657-2.7113l9.9386 37.092z" fill="#7137c8"/>
<path d="m26.201 118.05a38.4 38.4 31.514 0 1 7.899-5.2343l17.1 34.382z" fill="#0cf"/>
<path d="m15.903 132.08a38.4 38.4 17.712 0 1 4.1902-7.3927l31.107 22.515z" fill="#fc0"/>
<path d="m14.108 137.26a38.4 38.4 89.232 0 1 1.843-5.2962l35.249 15.235z" fill="#f00"/>
<path d="m19.822 125.06a38.4 38.4 31.514 0 1 6.4436-7.0677l24.934 29.204z" fill="#0f0"/>
</g>
<path d="m49.146 42.047c-6.7656 0-12.25 5.6988-12.25 12.729s5.4846 12.729 12.25 12.729c6.7656 0 12.25-5.6988 12.25-12.729s-5.4846-12.729-12.25-12.729zm0 2.1946c5.5991 0 10.138 4.7163 10.138 10.534 0 5.8178-4.539 10.534-10.138 10.534-5.5991 0-10.138-4.7163-10.138-10.534 0-5.8178 4.539-10.534 10.138-10.534z" opacity=".2"/>
<path d="m18.646 55.304c-0.0028 0.17783 0 0.34967 0 0.52819 0 17.503 13.655 31.692 30.5 31.692 16.845 0 30.5-14.189 30.5-31.692 0-0.17852 0.0028-0.35037 0-0.52819-0.27465 17.256-13.827 31.163-30.5 31.163-16.673 0-30.225-13.907-30.5-31.163z" color="#000000" fill="#fff" opacity=".6"/>
<path d="m49.146 23.084c-16.845 0-30.5 14.189-30.5 31.692s13.655 31.692 30.5 31.692c16.845 0 30.5-14.189 30.5-31.692s-13.655-31.692-30.5-31.692zm0 3.1692c15.16 0 27.45 12.77 27.45 28.522s-12.29 28.522-27.45 28.522c-15.16 0-27.45-12.77-27.45-28.522s12.29-28.522 27.45-28.522z" color="#000000" opacity=".05"/>
<path d="m49.146 23.084c-16.845 0-30.5 14.189-30.5 31.692s13.655 31.692 30.5 31.692c16.845 0 30.5-14.189 30.5-31.692s-13.655-31.692-30.5-31.692zm0 2.1458c15.727 0 28.435 13.204 28.435 29.546 0 16.342-12.708 29.546-28.435 29.546-15.727 0-28.435-13.204-28.435-29.546 0-16.342 12.708-29.546 28.435-29.546z" color="#000000" opacity=".1"/>
<path d="m49.146 23.084c-16.845 0-30.5 14.189-30.5 31.692s13.655 31.692 30.5 31.692c16.845 0 30.5-14.189 30.5-31.692s-13.655-31.692-30.5-31.692zm0 1.0564c16.283 0 29.483 13.716 29.483 30.635 0 16.919-13.2 30.635-29.483 30.635-16.283 0-29.483-13.716-29.483-30.635 0-16.919 13.2-30.635 29.483-30.635z" color="#000000" opacity=".15"/>
<path d="m49.146 23.084c-16.845 0-30.5 14.189-30.5 31.692 0 0.17852-0.0028 0.35037 0 0.52819 0.27464-17.256 13.827-31.163 30.5-31.163 16.673 0 30.225 13.907 30.5 31.163 0.0028-0.17782 0-0.34967 0-0.52819 0-17.503-13.655-31.692-30.5-31.692z" color="#000000" opacity=".2"/>
<g transform="matrix(.83587 0 0 .83587 9.5363 14.628)" stroke-linecap="round" stroke-linejoin="bevel">
<g transform="matrix(.90159 0 0 .89071 2.3265 5.8724)" fill="#37495b" style="font-feature-settings:normal;font-variant-caps:normal;font-variant-ligatures:normal;font-variant-numeric:normal;paint-order:stroke fill markers" aria-label="iso">
<path d="m19.023 88.8h6.3696v-26.532h-6.3696zm0-29.406h6.3696v-5.9865h-6.3696z"/>
<path d="m28.852 80.371c0.28735 2.5862 0.71838 3.9272 1.772 5.3639 1.7241 2.2988 4.7413 3.6877 7.9501 3.6877 5.316 0 9.4826-3.975 9.4826-9.0516 0-2.2988-0.86206-4.2145-2.4904-5.5076-1.0057-0.86206-2.5862-1.5325-4.885-2.2509-2.5862-0.81416-2.5862-0.81416-3.2088-1.1015-0.86206-0.38314-1.2931-1.0057-1.2931-1.772 0-1.2931 1.0536-2.2509 2.4425-2.2509 1.341 0 2.203 0.71838 2.4904 2.1073h6.226c-0.09578-2.2509-0.6226-3.5919-1.9157-5.0287-1.6762-1.8678-4.1666-2.9214-6.8007-2.9214-4.9329 0-8.8121 3.544-8.8121 8.0938 0 3.8793 2.1073 6.0823 7.3754 7.8543 2.4425 0.81416 2.6341 0.90995 3.3046 1.341 0.76627 0.47892 1.1973 1.1973 1.1973 2.0594 0 1.4847-1.2452 2.5862-2.8735 2.5862-1.8678 0-2.9214-0.95784-3.544-3.2088z"/>
<path d="m64.458 61.645c-7.7106 0-14.032 6.2739-14.032 13.889 0 7.6627 6.3218 13.889 14.08 13.889 7.7106 0 14.128-6.226 14.128-13.697 0-7.9022-6.1781-14.08-14.176-14.08zm0.04789 5.8428c4.2624 0 7.7106 3.6398 7.7106 8.0459 0 4.454-3.4482 8.0459-7.6627 8.0459-4.3103 0-7.7106-3.5919-7.7106-8.1417 0-4.3582 3.4961-7.9501 7.6627-7.9501z"/>
</g>
<path d="m19.471 52.238v5.4004h0.0067v-4.1955h5.7423v4.1955h0.06717v-5.4004zm17.899 7.4318c-4.3903 0-7.8575 3.0391-8.0317 6.9931 0.66898-3.3933 3.8622-5.8824 7.81-5.8824 2.3748 0 4.6207 0.93923 6.1319 2.6029 0.9519 1.0449 1.4371 2.0399 1.6324 3.4587h0.41784c-0.08748-2.0309-0.56972-3.2406-1.7506-4.5369-1.5308-1.6852-3.8043-2.6353-6.2098-2.6353zm23.594 0c-5.7515 0-10.653 3.7781-12.257 8.9055 1.8753-4.5455 6.4372-7.7948 11.734-7.7948 7.2109 0 12.781 5.5032 12.781 12.542 0 2.4498-0.78911 4.7455-2.1268 6.6733 1.7519-2.112 2.8147-4.7625 2.8147-7.6218 0-7.1296-5.6422-12.704-12.946-12.704zm-41.493 0.56229v23.937h0.0067v-22.834h5.7423v22.834h0.06717v-23.937zm15.679 6.8973c-0.12813 0.25842-0.20422 0.54636-0.20422 0.86042 0 0.68253 0.38897 1.2375 1.1662 1.5787 0.56133 0.25595 0.56098 0.25572 2.8926 0.98091 2.0726 0.63987 3.4974 1.2372 4.4041 2.0051 1.4681 1.1518 2.2451 2.8585 2.2451 4.9061 0 0.82307-0.1262 1.6116-0.35872 2.3542 0.44453-0.99146 0.69058-2.0886 0.69058-3.2501 0-2.0741-0.78754-3.8028-2.2746-4.9694-0.91848-0.77778-2.3612-1.3816-4.4606-2.0298-2.3618-0.73457-2.3617-0.73556-2.9303-0.99482-0.72607-0.3188-1.1138-0.8227-1.1702-1.4412zm19.303 2.5241c-0.55551 1.0154-0.87733 2.178-0.87733 3.4123 0 4.0525 3.0654 7.2526 6.9515 7.2526 2.5259 0 4.7402-1.418 5.9452-3.5313-1.286 1.6321-3.2409 2.6724-5.4212 2.6724-3.9364 0-7.0415-3.2403-7.0415-7.3453 0-0.86396 0.16246-1.6906 0.44337-2.4608zm-26.006 6.9112c0.03772 0.33534 0.08723 0.60343 0.13167 0.89595h5.5461c0.56133 2.0049 1.5123 2.8578 3.1963 2.8578 1.4048 0 2.4816-0.90188 2.5729-2.1379-0.4205 0.77204-1.2924 1.279-2.3499 1.279-1.7058 0-2.668-0.86399-3.2366-2.8949z" fill="#0e232e" opacity=".514" stroke="#020202" stroke-width=".17467" style="font-feature-settings:normal;font-variant-caps:normal;font-variant-ligatures:normal;font-variant-numeric:normal;paint-order:stroke fill markers"/>
</g>
</g>
<rect transform="matrix(1.0737 0 0 1.0521 -23.132 17.955)" x="2" y="-30" width="75.966" height="69.024" rx="3.957" ry="3.957" clip-path="url(#clipPath4156-4-1-6)" fill="url(#linearGradient1162)" opacity=".579"/>
</g>
</g>
</g>
</g>
</svg>
