<?xml version="1.0" encoding="UTF-8"?>
<svg version="1.1" viewBox="0 0 32 32" xmlns="http://www.w3.org/2000/svg" xmlns:cc="http://creativecommons.org/ns#" xmlns:dc="http://purl.org/dc/elements/1.1/" xmlns:rdf="http://www.w3.org/1999/02/22-rdf-syntax-ns#" xmlns:xlink="http://www.w3.org/1999/xlink">
<script xlink:href=""/>
<defs>
<linearGradient id="linearGradient4408" x1="6" x2="90" y1="47" y2="47" gradientTransform="matrix(1.0976 0 0 1.0959 -38.473 -44.766)" gradientUnits="userSpaceOnUse">
<stop stop-color="#b7b7b7" offset="0"/>
<stop stop-color="#fff" offset=".25"/>
<stop stop-color="#9d9d9d" offset=".5"/>
<stop stop-color="#fafafa" offset=".75"/>
<stop stop-color="#b7b7b7" offset="1"/>
</linearGradient>
<radialGradient id="radialGradient4414" cx="48" cy="-27" r="42" gradientTransform="matrix(-1.0722 0 0 -.87502 199.46 -19.126)" gradientUnits="userSpaceOnUse">
<stop stop-color="#fff" offset="0"/>
<stop stop-color="#fff" offset=".8"/>
<stop stop-color="#fff" stop-opacity="0" offset="1"/>
</radialGradient>
<linearGradient id="linearGradient4416" x1="1.5" x2="94.5" y1="88.172" y2="88.172" gradientTransform="matrix(.99138 0 0 .98988 -33.374 -40.771)" gradientUnits="userSpaceOnUse">
<stop offset="0"/>
<stop stop-opacity=".58824" offset=".1"/>
<stop stop-opacity=".58824" offset=".9"/>
<stop offset="1"/>
</linearGradient>
<radialGradient id="radialGradient4418" cx="13.948" cy="44.893" r="43.199" gradientTransform="matrix(.96673 0 0 .048693 .23204 38.585)" gradientUnits="userSpaceOnUse" xlink:href="#linearGradient4133"/>
<linearGradient id="linearGradient4133">
<stop stop-color="#fff" offset="0"/>
<stop stop-color="#fff" stop-opacity="0" offset="1"/>
</linearGradient>
<radialGradient id="radialGradient4420" cx="13.948" cy="44.893" r="43.199" gradientTransform="matrix(.87934 0 0 .048767 -10.348 -56.552)" gradientUnits="userSpaceOnUse" xlink:href="#linearGradient4133"/>
<linearGradient id="linearGradient4446" x1="2.7714" x2="50.528" y1="-28.642" y2="14.514" gradientUnits="userSpaceOnUse">
<stop stop-color="#fff" offset="0"/>
<stop stop-color="#fff" stop-opacity="0" offset="1"/>
</linearGradient>
<clipPath id="clipPath4156-4">
<path d="m27.046-55.695-14.214 13.321h0.06127l15.653 21.771 10.231-10.546c-0.2169-1.1522-11.311-23.67-11.732-24.546zm-17.399 16.313-14.888 14.062 21.229 17.515 10.385-10.577-16.726-21zm31.491 12.951-9.7413 9.7136 8.9448 12.458 7.7808-7.555-6.9843-14.617zm-49.84 4.3788-13.754 12.982 26.283 13.846 0.06127-0.0617-0.12253-0.0617 9.8332-10.053-22.301-16.652zm38.015 7.4008-9.8025 9.7753 11.579 9.5594 7.6276-7.4008-8.6691-11.009-0.73519-0.9251zm20.187 5.674-7.3825 7.2158 6.1878 8.5418 5.8202-6.1365-4.6256-9.6211zm-32.195 6.3215-9.5575 9.4977 13.662 7.185 7.9339-7.6784-12.039-9.0043zm23.312 2.3744-7.1068 6.9383 8.3628 6.9074 5.3608-5.674-0.06127-0.0925-0.0919 0.12335-6.4635-8.2026zm-8.7304 8.5418-7.5051 7.3392 10.354 5.4581c1.3975-1.321 5.6751-6.1229 5.8509-6.3215l-8.6997-6.4757z" fill="#fff" opacity=".6"/>
</clipPath>
<linearGradient id="linearGradient4246" x1="-30.363" x2="59.75" y1="3.0703" y2="3.0703" gradientTransform="matrix(.96673 0 0 .96673 .23204 .46487)" gradientUnits="userSpaceOnUse">
<stop offset="0"/>
<stop stop-color="#393939" offset="1"/>
</linearGradient>
</defs>
<metadata>
<rdf:RDF>
<cc:Work rdf:about="">
<dc:format>image/svg+xml</dc:format>
<dc:type rdf:resource="http://purl.org/dc/dcmitype/StillImage"/>
<dc:title/>
</cc:Work>
</rdf:RDF>
</metadata>
<g transform="translate(0,32)">
<g transform="matrix(1.0034 0 0 1.005 33.489 9.4732)">
<g transform="matrix(.32461 0 0 .32461 -22.043 -27.536)">
<path d="m55-40.771h-81.576c-3.7661 0-6.798 3.0273-6.798 6.7878v81.453c0 3.7604 3.0319 6.7878 6.798 6.7878h81.576c3.7661 0 6.798-3.0273 6.798-6.7878v-81.453c0-3.7604-3.0319-6.7878-6.798-6.7878z" opacity=".15"/>
<path d="m54.363-40.029h-80.302c-3.7072 0-6.6918 2.98-6.6918 6.6817v80.18c0 3.7017 2.9845 6.6817 6.6918 6.6817h80.302c3.7073 0 6.6918-2.98 6.6918-6.6817v-80.18c0-3.7017-2.9845-6.6817-6.6918-6.6817z" opacity=".15"/>
<path d="m53.725-39.286h-79.027c-3.6484 0-6.5856 2.9327-6.5856 6.5756v78.908c0 3.6429 2.9372 6.5756 6.5856 6.5756h79.027c3.6484 0 6.5856-2.9327 6.5856-6.5756v-78.908c0-3.6429-2.9372-6.5756-6.5856-6.5756z" fill="url(#linearGradient4408)"/>
<path d="m-24.536-35.699h77.944c2.5401 0 4.585 1.9946 4.585 4.4722v69.32c0 2.4776-2.0449 4.4722-4.585 4.4722h-77.944c-2.5401 0-4.585-1.9946-4.585-4.4722v-69.32c0-2.4776 2.0449-4.4722 4.585-4.4722z" color="#000000" fill="url(#linearGradient4246)"/>
<g transform="matrix(.64047 0 0 .65291 -17.584 -1.9477)" fill="#f2f4f1" fill-opacity=".93208" stroke="#e3e6e9" stroke-width=".78255">
<g transform="matrix(1.0104 0 0 .98967 -7.8855 -19.176)">
<path d="m14.551-9.3045 36.12 15.019v7.6595l-36.12 15.094v-9.9123l22.303-8.9736-22.303-8.9361v-9.9499" fill="#f2f4f1" fill-opacity=".93208" stroke="#e3e6e9" stroke-width=".78255"/>
</g>
<g transform="matrix(1.1512 0 0 .86867 1.9445 -14.362)">
<path d="m57.08 20.045v8.1084h-15.432v-8.1084h15.432" fill="#f2f4f1" fill-opacity=".93208" stroke="#e3e6e9" stroke-width=".78255"/>
</g>
</g>
<g transform="matrix(1.0976 0 0 1.0959 -148.23 -44.218)">
<path d="m112 4.5c-3.324 0-6 2.676-6 6v15h1v-15c0-2.7873 2.2127-5 5-5h72c2.7873 0 5 2.2127 5 5v15h1v-15c0-3.324-2.676-6-6-6z" fill="url(#radialGradient4414)" opacity=".45"/>
</g>
<path d="m-23.634-36.089c-3.0897 0-5.6191 2.5138-5.6191 5.5889v68.577c0 3.0751 2.5293 5.5889 5.6191 5.5889h76.13c3.0897 0 5.6191-2.5138 5.6191-5.5889v-68.577c0-3.0751-2.5293-5.5889-5.6191-5.5889zm0 2.296h76.13c1.8718 0 3.3231 1.4651 3.3231 3.2929v68.577c0 1.8278-1.4513 3.2929-3.3231 3.2929h-76.13c-1.8718 0-3.3231-1.4651-3.3231-3.2929v-68.577c0-1.8278 1.4513-3.2929 3.3231-3.2929z" color="#000000" fill-opacity=".87149" style="text-decoration-line:none;text-indent:0;text-transform:none"/>
<path d="m-31.887 40.245v5.9393c0 3.6429 2.9504 6.5889 6.5989 6.5889h79c3.6484 0 6.5989-2.946 6.5989-6.5889v-5.9393c0 3.6429-2.9504 6.5889-6.5989 6.5889h-79c-3.6484 0-6.5989-2.946-6.5989-6.5889z" fill="url(#linearGradient4416)" opacity=".65"/>
<rect x="-28.046" y="38.667" width="83.524" height="4.207" rx="0" ry="4.207" fill="url(#radialGradient4418)" opacity=".55"/>
<rect transform="rotate(90)" x="-36.069" y="-56.469" width="75.974" height="4.2134" rx="0" ry="4.2134" fill="url(#radialGradient4420)" opacity=".55"/>
<g transform="matrix(.90146 0 0 .91898 -27.715 -5.3386)" opacity=".7">
<rect transform="translate(-1.4999 -1.4)" x="2" y="-30" width="92" height="92" rx="3.957" ry="3.957" clip-path="url(#clipPath4156-4)" fill="url(#linearGradient4446)" opacity=".70833"/>
</g>
</g>
</g>
</g>
</svg>
