<?xml version="1.0" encoding="UTF-8"?>
<!-- Created with Inkscape (http://www.inkscape.org/) -->
<svg width="32" height="32" version="1.1" viewBox="0 0 96 96" xmlns="http://www.w3.org/2000/svg" xmlns:cc="http://creativecommons.org/ns#" xmlns:dc="http://purl.org/dc/elements/1.1/" xmlns:rdf="http://www.w3.org/1999/02/22-rdf-syntax-ns#" xmlns:xlink="http://www.w3.org/1999/xlink">
<defs>
<clipPath id="clipPath4156-4">
<path d="m27.046-55.695-14.214 13.321h0.06127l15.653 21.771 10.231-10.546c-0.2169-1.1522-11.311-23.67-11.732-24.546zm-17.399 16.313-14.888 14.062 21.229 17.515 10.385-10.577-16.726-21zm31.491 12.951-9.7413 9.7136 8.9448 12.458 7.7808-7.555-6.9843-14.617zm-49.84 4.3788-13.754 12.982 26.283 13.846 0.06127-0.0617-0.12253-0.0617 9.8332-10.053-22.301-16.652zm38.015 7.4008-9.8025 9.7753 11.579 9.5594 7.6276-7.4008-8.6691-11.009-0.73519-0.9251zm20.187 5.674-7.3825 7.2158 6.1878 8.5418 5.8202-6.1365-4.6256-9.6211zm-32.195 6.3215-9.5575 9.4977 13.662 7.185 7.9339-7.6784-12.039-9.0043zm23.312 2.3744-7.1068 6.9383 8.3628 6.9074 5.3608-5.674-0.06127-0.0925-0.0919 0.12335-6.4635-8.2026zm-8.7304 8.5418-7.5051 7.3392 10.354 5.4581c1.3975-1.321 5.6751-6.1229 5.8509-6.3215l-8.6997-6.4757z" fill="#fff" opacity=".6"/>
</clipPath>
<linearGradient id="linearGradient4133">
<stop stop-color="#fff" offset="0"/>
<stop stop-color="#fff" stop-opacity="0" offset="1"/>
</linearGradient>
<linearGradient id="linearGradient7426" x1="6" x2="90" y1="47" y2="47" gradientTransform="matrix(1.1071 0 0 1.1071 2.9011 -18.701)" gradientUnits="userSpaceOnUse">
<stop stop-color="#adb9c1" offset="0"/>
<stop stop-color="#fff" offset=".25"/>
<stop stop-color="#90a1aa" offset=".5"/>
<stop stop-color="#f9fafb" offset=".75"/>
<stop stop-color="#adbbc1" offset="1"/>
</linearGradient>
<radialGradient id="radialGradient7430" cx="48" cy="-27" r="42" gradientTransform="matrix(-1.0722 0 0 -.87502 199.46 -19.126)" gradientUnits="userSpaceOnUse">
<stop stop-color="#fff" offset="0"/>
<stop stop-color="#fff" offset=".8"/>
<stop stop-color="#fff" stop-opacity="0" offset="1"/>
</radialGradient>
<linearGradient id="linearGradient7460" x1="1.5" x2="94.5" y1="88.172" y2="88.172" gradientTransform="translate(8.044 -14.666)" gradientUnits="userSpaceOnUse">
<stop offset="0"/>
<stop stop-opacity=".58824" offset=".1"/>
<stop stop-opacity=".58824" offset=".9"/>
<stop offset="1"/>
</linearGradient>
<radialGradient id="radialGradient7462" cx="13.948" cy="44.893" r="43.199" gradientTransform="matrix(.97513 0 0 .049191 41.943 65.501)" gradientUnits="userSpaceOnUse" xlink:href="#linearGradient4133"/>
<radialGradient id="radialGradient7464" cx="13.948" cy="44.893" r="43.199" gradientTransform="matrix(.88833 0 0 .049191 16.069 -98.752)" gradientUnits="userSpaceOnUse" xlink:href="#linearGradient4133"/>
<linearGradient id="linearGradient7466" x1="2.7714" x2="50.528" y1="-28.642" y2="14.514" gradientUnits="userSpaceOnUse">
<stop stop-color="#fff" offset="0"/>
<stop stop-color="#fff" stop-opacity="0" offset="1"/>
</linearGradient>
<linearGradient id="ButtonShadow-1" x1="45.448" x2="45.448" y1="92.54" y2="7.0165" gradientTransform="scale(1.0059 .99417)" gradientUnits="userSpaceOnUse">
<stop offset="0"/>
<stop stop-opacity=".58824" offset="1"/>
</linearGradient>
<filter id="filter3174-3" color-interpolation-filters="sRGB">
<feGaussianBlur stdDeviation="1.71"/>
</filter>
<filter id="filter3174" color-interpolation-filters="sRGB">
<feGaussianBlur stdDeviation="1.71"/>
</filter>
<linearGradient id="linearGradient3041-7" x1="20.626" x2="18.225" y1="24.225" y2="21.824" gradientTransform="matrix(1.1774 0 0 1.1774 380.31 495.5)" gradientUnits="userSpaceOnUse">
<stop stop-color="#6d9990" offset="0"/>
<stop stop-color="#6dcec5" offset="1"/>
</linearGradient>
<linearGradient id="linearGradient3043-6" x1="20.616" x2="19.831" y1="25.815" y2="21.263" gradientTransform="matrix(1.1774 0 0 1.1774 380.31 495.5)" gradientUnits="userSpaceOnUse">
<stop stop-color="#4a2834" offset="0"/>
<stop stop-color="#512531" stop-opacity="0" offset="1"/>
</linearGradient>
<linearGradient id="linearGradient3045-2" x1="21.824" x2="27.722" y1="22.849" y2="24.063" gradientTransform="matrix(1.1774 0 0 1.1774 380.31 495.5)" gradientUnits="userSpaceOnUse" xlink:href="#linearGradient4791-3"/>
<linearGradient id="linearGradient4791-3">
<stop stop-color="#771a0f" offset="0"/>
<stop stop-color="#92280f" stop-opacity="0" offset="1"/>
</linearGradient>
<linearGradient id="linearGradient3047-6" x1="22.858" x2="22.274" y1="43.732" y2="36.825" gradientTransform="matrix(1.1774 0 0 1.1774 380.31 495.5)" gradientUnits="userSpaceOnUse" xlink:href="#linearGradient4776-1"/>
<linearGradient id="linearGradient4776-1">
<stop stop-color="#fff80f" offset="0"/>
<stop stop-color="#fff80f" stop-opacity="0" offset="1"/>
</linearGradient>
<linearGradient id="linearGradient3049-1" x1="31.507" x2="31.507" y1="4.1349" y2="22.616" gradientTransform="matrix(1.1774 0 0 1.1774 380.31 495.5)" gradientUnits="userSpaceOnUse">
<stop stop-color="#a0240f" offset="0"/>
<stop stop-color="#bc4a0f" stop-opacity="0" offset="1"/>
</linearGradient>
<linearGradient id="linearGradient3051-4" x1="36.213" x2="33.719" y1="8.638" y2="17.945" gradientTransform="matrix(1.1774 0 0 1.1774 380.31 495.5)" gradientUnits="userSpaceOnUse" xlink:href="#linearGradient4791-3"/>
<linearGradient id="linearGradient3053-5" x1="37.971" x2="35.118" y1="24.451" y2="25.031" gradientTransform="matrix(1.1774 0 0 1.1774 380.31 495.5)" gradientUnits="userSpaceOnUse">
<stop stop-color="#af270f" offset="0"/>
<stop stop-color="#d86c3b" stop-opacity="0" offset="1"/>
</linearGradient>
<linearGradient id="linearGradient3055-1" x1="375.8" x2="382.68" y1="522.29" y2="549.47" gradientTransform="matrix(1.1773 -.016683 .016683 1.1773 -36.951 -119.77)" gradientUnits="userSpaceOnUse" xlink:href="#linearGradient4776-1"/>
</defs>
<metadata>
<rdf:RDF>
<cc:Work rdf:about="">
<dc:format>image/svg+xml</dc:format>
<dc:type rdf:resource="http://purl.org/dc/dcmitype/StillImage"/>
<dc:title/>
</cc:Work>
</rdf:RDF>
</metadata>
<g transform="translate(-384.57 -451.8)">
<g transform="translate(384.57 451.8)">
<g transform="translate(-1e-6,32)">
<g transform="translate(-8.044 -17.334)">
<path d="m97.187-14.666h-82.286c-3.7988 0-6.8571 3.0583-6.8571 6.8571v82.286c0 3.7989 3.0583 6.8571 6.8571 6.8571h82.286c3.7989 0 6.8571-3.0583 6.8571-6.8571v-82.286c0-3.7989-3.0583-6.8571-6.8571-6.8571z" opacity=".15"/>
<path d="m96.544-13.916h-81c-3.7395 0-6.75 3.0105-6.75 6.75v81c0 3.7395 3.0105 6.75 6.75 6.75h81c3.7395 0 6.75-3.0105 6.75-6.75v-81c0-3.7395-3.0105-6.75-6.75-6.75z" opacity=".15"/>
<path d="m95.901-13.166h-79.714c-3.6801 0-6.6429 2.9627-6.6429 6.6429v79.714c0 3.6801 2.9627 6.6429 6.6429 6.6429h79.714c3.6801 0 6.6429-2.9627 6.6429-6.6429v-79.714c0-3.6801-2.9627-6.6429-6.6429-6.6429z" fill="url(#linearGradient7426)"/>
<rect transform="translate(8.044 -14.666)" x="5.7927" y="6.2128" width="84.846" height="77.52" ry="4.25" fill="#e1e3e4" fill-opacity=".97357" stroke="#fff" stroke-linecap="round" stroke-linejoin="round" stroke-width=".4"/>
<g transform="matrix(1.6974 0 0 1.6974 -478.85 -831.8)">
<g transform="translate(-93.443 -14.311)">
<path d="m415.64 505.4c-0.22375-0.0139-0.45586 0.0157-0.66459 0.0874-0.30124 0.1035-0.44266 0.17493-0.56571 0.29206-0.036 0.0343-0.17554 0.15565-0.31274 0.26904-0.19803 0.16368-0.44974 0.47105-0.73588 0.86466-0.33795 0.46489-0.72968 1.0636-1.205 1.8696-0.26698 0.45277-0.63494 1.0561-0.81865 1.3407-0.1837 0.28459-0.39473 0.62172-0.46913 0.74967-0.30126 0.51803-1.3008 1.8816-2.088 2.8492-0.6665 0.81914-1.9303 1.9929-2.4077 2.2352-0.0905 0.0459-0.25065 0.13968-0.35413 0.20926-0.23215 0.15607-0.66133 0.32532-1.2372 0.48982-0.48691 0.1391-1.4 0.59056-1.7914 0.88535-0.6697 0.50441-2.1676 2.1187-2.7917 3.0079-0.0971 0.13832-0.24606 0.32598-0.33114 0.41853-0.085 0.0926-0.19537 0.22476-0.24606 0.29206-0.0568 0.0754-0.24598 0.18505-0.49211 0.28514-0.21992 0.0895-0.59041 0.24663-0.82327 0.34955-0.23285 0.1029-0.8787 0.36124-1.435 0.5749s-1.2346 0.49145-1.5062 0.6163c-0.27166 0.12484-0.66227 0.28938-0.86925 0.36563-0.57519 0.21189-1.8028 0.70545-1.9938 0.80256-0.0936 0.0476-0.82607 0.34597-1.6281 0.65999-0.80203 0.31403-1.618 0.64297-1.8121 0.73358-0.19403 0.0907-0.6071 0.26701-0.91755 0.39093-0.74561 0.29765-0.75075 0.32971-0.14027 0.73128 0.21257 0.13982 0.95779 0.67432 1.6879 1.2119 0.15241 0.11221 0.41772 0.30151 0.5887 0.41853 0.17099 0.11704 0.51078 0.35963 0.75657 0.54041 0.24578 0.18076 0.53709 0.38694 0.64619 0.45763 0.18029 0.1168 0.92064 0.64788 1.6304 1.1705 0.15242 0.11221 0.41772 0.30133 0.5887 0.41852 0.2897 0.19854 0.92294 0.65414 1.5752 1.1337 0.52939 0.38922 1.0679 0.74507 1.1268 0.74507 0.0604 0 0.82006-0.29509 0.96354-0.37484 0.17846-0.0991 0.56844-0.19912 0.87845-0.22306 0.0502-4e-3 0.10549 0.0167 0.15178 0.0161 0.18465-2e-3 0.34529 2e-4 0.6025 0.0644 0.67124 0.16762 0.87198 0.29496 1.4855 0.93135 0.47569 0.49338 0.61378 0.67616 1.1153 1.4856 0.62821 1.0138 0.87828 1.4877 1.113 2.0972 0.0854 0.22178 0.30843 0.72033 0.49441 1.1084 0.18597 0.38809 0.42845 0.94885 0.54042 1.2464s0.30373 0.76317 0.42543 1.0348c0.12169 0.27165 0.3659 0.8547 0.5427 1.297 0.1768 0.44226 0.39496 0.96552 0.48522 1.1636 0.11656 0.2559 0.19025 0.36123 0.25065 0.36104 0.10927-3.8e-4 0.79855-0.1659 1.1705-0.28055 0.27999-0.0863 1.1394-0.50539 1.8535-0.90375 0.19405-0.10821 0.56495-0.36338 0.82326-0.568 0.53835-0.42644 2.0052-1.7321 2.157-1.9202 0.056-0.0693 0.3866-0.44168 0.73587-0.82787 0.34928-0.38618 0.90001-1.0077 1.2234-1.3798 0.32341-0.37201 0.74785-0.85701 0.94284-1.0785 0.19498-0.2215 0.56885-0.65536 0.83016-0.96583 0.64863-0.77067 2.0533-2.1472 2.6238-2.5687 1.0402-0.76839 1.7194-1.1026 2.5549-1.2625 0.62274-0.1192 1.1295-0.0741 1.8443 0.16788 0.58275 0.19729 0.76019 0.28457 1.2004 0.5818 0.1811 0.12228 0.38774 0.25759 0.45992 0.30125 0.34375 0.20784 1.4094 1.1166 2.1524 1.8374 1.6206 1.5722 3.2313 2.9248 3.3459 2.8101 0.0497-0.0497-0.12359-0.48185-0.6439-1.6097-0.17306-0.37514-0.40611-0.92586-0.51741-1.2234-0.11126-0.29752-0.35444-0.90084-0.5404-1.3407s-0.42886-1.0532-0.54041-1.3637c-0.1115-0.31047-0.35488-0.92384-0.54041-1.3637s-0.45087-1.0957-0.5887-1.458c-0.13782-0.3622-0.39693-1.0405-0.57721-1.5062-0.37672-0.97313-1.2245-3.4025-2.5273-7.2438-1.2976-3.8263-1.9308-5.6071-2.6722-7.5266-0.63091-1.6335-1.8086-4.0561-2.4399-5.0178-0.4437-0.67591-1.3026-1.5698-1.7247-1.796-0.17935-0.0961-0.39485-0.15398-0.6186-0.16788z" fill-opacity=".23529"/>
<path d="m398.6 531.81c0.18465-2e-3 0.34475-1e-5 0.60196 0.0642 0.67124 0.16763 0.87343 0.29419 1.487 0.93057 0.47568 0.49339 0.61276 0.67536 1.1143 1.4847 0.62822 1.0138 0.87958 1.4876 1.1143 2.0972 0.0854 0.22178 0.30769 0.72098 0.49367 1.1091 0.18597 0.38809 0.42949 0.94897 0.54146 1.2465s0.30327 0.76347 0.42496 1.0351c0.1217 0.27165 0.36616 0.85575 0.54296 1.298 0.1768 0.44227 0.3952 0.96551 0.48545 1.1636 0.11657 0.25589 0.18831 0.36017 0.24871 0.35998 0.10926-3.8e-4 0.80058-0.16542 1.1726-0.28007 0.27999-0.0863 1.1388-0.50533 1.8529-0.90369 0.19405-0.1082 0.56398-0.36374 0.82229-0.56836 0.53834-0.42643 2.005-1.7328 2.1569-1.9209 0.056-0.0693 0.38787-0.44207 0.73715-0.82825 0.34927-0.38619 0.89919-1.0059 1.2226-1.378 0.3234-0.37201 0.74754-0.85769 0.94253-1.0792 0.19498-0.2215 0.56844-0.6567 0.82975-0.96717 0.64863-0.77067 2.0546-2.1454 2.6252-2.5669 1.0402-0.7684 1.718-1.1037 2.5535-1.2637 0.62274-0.1192 1.1315-0.0724 1.8462 0.16953 0.58276 0.1973 0.75924 0.28233 1.1994 0.57955 0.1811 0.12229 0.38787 0.25808 0.46005 0.30174 0.34375 0.20784 1.4087 1.1179 2.1517 1.8387 1.6206 1.5723 3.2312 2.925 3.3459 2.8104 0.0497-0.0497-0.12348-0.48308-0.64378-1.611-0.17307-0.37514-0.40552-0.92581-0.51682-1.2233-0.11126-0.29753-0.35476-0.90077-0.54072-1.3406s-0.42916-1.0533-0.54072-1.3638c-0.1115-0.31046-0.35445-0.92466-0.53997-1.3645-0.18554-0.43982-0.4507-1.0956-0.58852-1.4578-0.13783-0.36221-0.39779-1.0399-0.57806-1.5056-0.37672-0.97313-1.2246-3.4032-2.5274-7.2444-1.2976-3.8263-1.9294-5.6065-2.6707-7.526-0.63091-1.6335-1.8086-4.0556-2.44-5.0173-0.4437-0.67592-1.3024-1.5708-1.7245-1.7969-0.35869-0.19219-0.86564-0.22334-1.2831-0.0799-0.30124 0.1035-0.44231 0.17639-0.56536 0.29352-0.036 0.0343-0.17723 0.15472-0.31443 0.26812-0.19803 0.16367-0.45026 0.47049-0.73639 0.8641-0.11562 0.43389-0.17974 0.86429-0.30547 1.298-0.59013 2.0361-1.2926 4.0675-2.1084 6.0644-0.81577 1.9969-1.7451 3.9591-2.7895 5.8576-0.52218 0.94921-1.0729 1.8827-1.6528 2.7962-0.57988 0.91346-1.1888 1.8071-1.8268 2.6774-0.63797 0.87032-1.3052 1.7173-2.0016 2.537-0.69641 0.81977-1.4218 1.6117-2.1771 2.3735-0.60988 0.61519-1.253 1.1955-1.9015 1.7686z" fill="#d5600f"/>
<path d="m398.6 531.81c0.64845-0.57303 1.2916-1.1534 1.9015-1.7686 0.75522-0.76179 1.4807-1.5537 2.1771-2.3735 0.6964-0.81977 1.3636-1.6667 2.0016-2.537 0.63796-0.87033 1.2469-1.764 1.8268-2.6775s1.1306-1.847 1.6528-2.7962c1.0444-1.8984 1.9737-3.8607 2.7895-5.8575 0.81578-1.9969 1.5182-4.0284 2.1084-6.0644 0.12573-0.43374 0.18991-0.86414 0.30547-1.298-0.33795 0.46488-0.72861 1.0633-1.2039 1.8694-0.26699 0.45276-0.63558 1.0568-0.81929 1.3414-0.1837 0.28459-0.39462 0.62188-0.46902 0.74983-0.30126 0.51803-1.3002 1.8809-2.0874 2.8485-0.6665 0.81914-1.9304 1.9922-2.4078 2.2346-0.0905 0.0459-0.24978 0.14029-0.35326 0.20987-0.23215 0.15606-0.66242 0.32692-1.2383 0.49142-0.4869 0.1391-1.3996 0.59023-1.791 0.88502-0.6697 0.50441-2.1676 2.1176-2.7917 3.0068-0.0971 0.13832-0.24652 0.32718-0.3316 0.41973-0.085 0.0925-0.19577 0.22397-0.24646 0.29127-0.0567 0.0753-0.24604 0.18446-0.49217 0.28455-0.21992 0.0895-0.59018 0.24661-0.82303 0.34953-0.23285 0.1029-0.87845 0.36215-1.4347 0.57582-0.55625 0.21366-1.234 0.49056-1.5056 0.61541-0.27166 0.12484-0.6631 0.2897-0.87008 0.36595-0.57519 0.2119-1.8031 0.7065-1.9941 0.80361-0.0936 0.0476-0.82608 0.34395-1.6281 0.65798-0.80203 0.31402-1.6171 0.64504-1.8111 0.73565-0.19404 0.0907-0.60668 0.26593-0.91713 0.38985-0.74561 0.29765-0.75164 0.32886-0.14116 0.73042 0.21257 0.13983 0.95777 0.67606 1.6879 1.2136 0.15242 0.11221 0.41753 0.29972 0.58851 0.41674 0.171 0.11704 0.51152 0.3607 0.75732 0.54148 0.24578 0.18077 0.53616 0.38637 0.64527 0.45707 0.18029 0.11679 0.92133 0.64918 1.6311 1.1718 0.15241 0.11221 0.41753 0.29956 0.58851 0.41674 0.2897 0.19855 0.92431 0.65564 1.5766 1.1352 0.52939 0.38922 1.0674 0.74535 1.1262 0.74535 0.0604 0 0.81921-0.29667 0.96269-0.37641 0.17846-0.0991 0.56904-0.19788 0.87905-0.22181 0.0502-4e-3 0.10455 0.0171 0.15086 0.0165z" fill="#6dd6cd"/>
<path d="m412.12 510.66c-1.5528 1.752-7.0179 10.57-10.121 10.491-3.6149-0.0927-13.255 4.7257-13.255 4.7257s0.86761 1.0768 2.0467 2.4146c0.0892 0.0643 0.16301 0.11478 0.24145 0.17247 0.24579 0.18077 0.53709 0.38693 0.64619 0.45762 0.18029 0.1168 0.92063 0.64788 1.6304 1.1705 0.15241 0.11221 0.41772 0.30135 0.5887 0.41853 0.2897 0.19855 0.92294 0.65413 1.5752 1.1337 0.5294 0.38923 1.0679 0.74508 1.1268 0.74508 0.0604 0 0.82006-0.2951 0.96354-0.37484 0.17846-0.0991 0.56844-0.19913 0.87845-0.22306 0.0502-4e-3 0.10547 0.0167 0.15177 0.0161 0.64846-0.57303 1.2919-1.1532 1.9018-1.7684 0.75522-0.76179 1.479-1.5534 2.1754-2.3732 0.6964-0.81977 1.365-1.6662 2.003-2.5365 0.63797-0.87033 1.246-1.7633 1.8259-2.6768 0.57989-0.91346 1.1312-1.8471 1.6534-2.7963 1.0444-1.8984 1.9737-3.8625 2.7894-5.8594 0.42394-1.0377 0.81454-2.0845 1.1774-3.1367z" fill="url(#linearGradient3041-7)"/>
<path d="m409.32 517.38c-2.0663 0.95529-6.778 2.9804-9.8975 3.5161-0.0905 0.0576-0.14815 0.11209-0.29665 0.17247-0.0294 0.012-0.0763 0.0319-0.11038 0.046 2.9949 0.96991 4.8549 2.2818 5.9583 3.5782 0.5258-0.73443 1.0418-1.4756 1.5269-2.2398 0.57989-0.91346 1.1312-1.8471 1.6534-2.7963 0.41098-0.74705 0.79047-1.5116 1.1659-2.2766z" fill="url(#linearGradient3043-6)"/>
<path d="m415.64 504.93c-0.22376-0.0139-0.45587 0.0157-0.66459 0.0874-0.30124 0.1035-0.44266 0.17493-0.56571 0.29205-0.036 0.0343-0.17554 0.15566-0.31274 0.26906-0.19803 0.16367-0.44975 0.47104-0.73588 0.86465-0.11562 0.43389-0.18012 0.86324-0.30585 1.297-0.59013 2.0361-1.293 4.0672-2.1087 6.0641-0.81577 1.9969-1.7451 3.961-2.7894 5.8594-0.52217 0.94921-1.0735 1.8829-1.6534 2.7963-0.57988 0.91346-1.1879 1.8064-1.8259 2.6768-0.63796 0.87032-1.3066 1.7167-2.003 2.5365-0.69641 0.81976-1.4202 1.6114-2.1754 2.3732-0.60988 0.6152-1.2533 1.1954-1.9018 1.7684 0.18466-2e-3 0.3453 2e-4 0.6025 0.0644 0.67125 0.16762 0.87199 0.29495 1.4856 0.93134 0.47568 0.49339 0.61377 0.67617 1.1153 1.4856 0.62821 1.0138 0.87829 1.4877 1.113 2.0972 0.0854 0.22178 0.30844 0.72033 0.49442 1.1084 0.0539 0.11239 0.0975 0.23024 0.15637 0.36103 9.1292-6.5852 10.916-20.512 12.735-29.498-0.27117-0.51827-0.43636-1.1698-0.63398-1.4709-0.44371-0.67591 1.0146-1.5698 0.59253-1.796-0.17934-0.0961-0.39484-0.15398-0.61859-0.16787z" fill="url(#linearGradient3045-2)"/>
<path d="m415.41 504.93c-0.14713 0.0101-0.29371 0.0337-0.43003 0.0805-0.30124 0.1035-0.44266 0.17493-0.56571 0.29205-0.036 0.0343-0.17554 0.15566-0.31274 0.26906-0.19803 0.16367-0.44975 0.47104-0.73588 0.86465-0.11562 0.43389-0.18012 0.86324-0.30585 1.297-0.59013 2.0361-1.293 4.0672-2.1087 6.0641-0.81577 1.9969-1.7451 3.961-2.7894 5.8594-0.52217 0.94921-1.0735 1.8829-1.6534 2.7963-0.57988 0.91346-1.1879 1.8064-1.8259 2.6768-0.63796 0.87032-1.3066 1.7167-2.003 2.5365-0.69641 0.81976-1.4202 1.6114-2.1754 2.3732-0.60988 0.6152-1.2533 1.1954-1.9018 1.7684 0.18466-2e-3 0.3453 2e-4 0.6025 0.0644 0.44194 0.11036 0.68388 0.21645 0.97044 0.44843 0.15458-0.14912 0.31324-0.29353 0.46452-0.44613 0.84962-0.85702 1.6656-1.7476 2.4491-2.6698 0.78343-0.92224 1.5336-1.877 2.2513-2.8561 0.71772-0.97912 1.4035-1.9825 2.0558-3.0102 0.65237-1.0276 1.2706-2.078 1.8581-3.1459 1.1749-2.1357 2.2212-4.3442 3.139-6.5907 0.91776-2.2465 1.7093-4.5324 2.3732-6.823 0.14145-0.48797 0.21256-0.97212 0.34264-1.4602 0.10753-0.14793 0.20307-0.26486 0.30125-0.38863zm10.047 28.099c0.26569 0.23705 0.5383 0.47401 0.77266 0.70138 1.6206 1.5722 3.2313 2.9248 3.3459 2.8101 0.0323-0.0323-0.0788-0.32131-0.26906-0.76347-0.80722-0.75956-1.7972-1.6084-2.1455-1.819-0.0812-0.0491-0.31368-0.20277-0.51742-0.34034-0.44037-0.29734-0.68546-0.41224-1.1866-0.5887z" fill-opacity=".23529"/>
<path d="m408 536.62c-1.3335-0.0386-2.8961 0.15664-4.7004 0.63009 0.0433 0.0937 0.0687 0.16146 0.11038 0.24836 0.18597 0.3881 0.42844 0.94886 0.54041 1.2464s0.30373 0.76316 0.42543 1.0348c0.12169 0.27165 0.3659 0.8547 0.5427 1.297s0.39496 0.96553 0.48522 1.1636c0.11656 0.25589 0.19026 0.36123 0.25066 0.36104 0.10926-3.8e-4 0.79854-0.1659 1.1705-0.28056 0.28-0.0863 1.1394-0.50538 1.8535-0.90374 0.19404-0.10821 0.56495-0.36339 0.82326-0.56801 0.53834-0.42643 2.0052-1.7321 2.157-1.9202 0.056-0.0693 0.3866-0.44167 0.73588-0.82786 0.0315-0.0348 0.076-0.0859 0.11038-0.12418-1.1228-0.77639-2.5841-1.3012-4.5049-1.3568z" fill="url(#linearGradient3047-6)"/>
<path d="m415.64 504.93c-0.22376-0.0139-0.45587 0.0157-0.66459 0.0874-0.30124 0.1035-0.44266 0.17493-0.56571 0.29205-0.036 0.0343-0.17554 0.15566-0.31274 0.26906-0.19803 0.16367-0.44975 0.47104-0.73588 0.86465-0.11562 0.43389-0.18012 0.86324-0.30585 1.297-0.59013 2.0361-1.293 4.0672-2.1087 6.0641-0.81577 1.9969-1.7451 3.961-2.7894 5.8594-0.52217 0.94921-1.0735 1.8829-1.6534 2.7963-0.57988 0.91346-1.1879 1.8064-1.8259 2.6768-0.63796 0.87032-1.3066 1.7167-2.003 2.5365-0.12111 0.14257-0.24736 0.27995-0.37023 0.42082 10.436-3.7329 17.846-3.7271 23.093-2.0582-0.41956-1.1227-1.1154-3.099-2.3019-6.5976-1.2976-3.8263-1.9308-5.6071-2.6721-7.5266-0.63091-1.6335-1.8086-4.0561-2.4399-5.0178-0.4437-0.67591-1.3026-1.5698-1.7247-1.796-0.17934-0.0961-0.39484-0.15398-0.61859-0.16787z" fill="url(#linearGradient3049-1)"/>
<path d="m415.64 504.93c-0.22376-0.0139-0.45587 0.0157-0.66459 0.0874-0.30124 0.1035-0.44266 0.17493-0.56571 0.29205-0.036 0.0343-0.17554 0.15566-0.31274 0.26906-0.19803 0.16367-0.44975 0.47104-0.73588 0.86465-0.11562 0.43389-0.18012 0.86324-0.30585 1.297-0.59013 2.0361-1.293 4.0672-2.1087 6.0641-0.81577 1.9969-1.7451 3.961-2.7894 5.8594-0.52217 0.94921-1.0735 1.8829-1.6534 2.7963-0.14748 0.23232-0.31328 0.45098-0.46452 0.68068 18.166-11.499 13.835 5.7072 19.648 3.7093-0.0218-0.0564-0.0443-0.11597-0.0644-0.16788-0.37673-0.97313-1.2246-3.4025-2.5273-7.2438-1.2976-3.8263-1.9308-5.6071-2.6721-7.5266-0.63091-1.6335-1.8086-4.0561-2.4399-5.0178-0.4437-0.67591-1.3026-1.5698-1.7247-1.796-0.17934-0.0961-0.39484-0.15398-0.61859-0.16787z" fill="url(#linearGradient3051-4)"/>
<path d="m415.64 504.93c-0.22376-0.0139-0.45587 0.0157-0.66459 0.0874-0.26267 0.0903-0.39716 0.15964-0.51051 0.25296 7.1488 9.7999 8.196 18.862 7.3794 25.59 0.17858 0.038 0.3631 0.087 0.568 0.15637 0.58275 0.1973 0.76019 0.28458 1.2004 0.5818 0.1811 0.12229 0.38773 0.25759 0.45992 0.30125 0.34374 0.20785 1.4094 1.1166 2.1524 1.8374 1.6206 1.5722 3.2313 2.9248 3.3459 2.8101 0.0497-0.0497-0.12359-0.48185-0.64389-1.6097-0.17307-0.37515-0.40612-0.92587-0.51742-1.2234-0.11126-0.29753-0.35445-0.90084-0.5404-1.3407-0.18596-0.43983-0.42885-1.0532-0.54041-1.3637-0.1115-0.31047-0.35489-0.92384-0.54041-1.3637-0.18554-0.43983-0.45088-1.0957-0.5887-1.458-0.13783-0.36221-0.39693-1.0405-0.5772-1.5062-0.37673-0.97313-1.2246-3.4025-2.5273-7.2438-1.2976-3.8263-1.9308-5.6071-2.6721-7.5266-0.63091-1.6335-1.8086-4.0561-2.4399-5.0178-0.4437-0.67591-1.3026-1.5698-1.7247-1.796-0.17934-0.0961-0.39484-0.15398-0.61859-0.16787z" fill="url(#linearGradient3053-5)"/>
<path d="m388.24 525.52c-0.0346 0.0141-0.0639 0.0283-0.0966 0.0414-0.74561 0.29765-0.75075 0.32971-0.14027 0.73128 0.21257 0.13983 0.95779 0.67432 1.6879 1.2119 0.15242 0.11221 0.41772 0.30151 0.5887 0.41853 0.171 0.11704 0.51078 0.35963 0.75657 0.54041 0.24579 0.18077 0.53709 0.38693 0.64619 0.45762 0.18029 0.1168 0.92063 0.64788 1.6304 1.1705 0.15241 0.11221 0.41772 0.30135 0.5887 0.41853 0.2897 0.19855 0.92294 0.65413 1.5752 1.1337 0.5294 0.38923 1.0679 0.74508 1.1268 0.74508 0.0604 0 0.82006-0.2951 0.96354-0.37484 0.17846-0.0991 0.56844-0.19913 0.87845-0.22306 0.0502-4e-3 0.10547 0.0167 0.15177 0.0161 0.18466-2e-3 0.3453 2e-4 0.6025 0.0644 0.67125 0.16763 0.87199 0.29496 1.4856 0.93135 0.47568 0.49339 0.61377 0.67616 1.1153 1.4855 0.62821 1.0138 0.87829 1.4877 1.113 2.0972 0.0854 0.22177 0.30844 0.72033 0.49442 1.1084 0.18597 0.3881 0.42844 0.94886 0.54041 1.2464s0.30373 0.76316 0.42543 1.0348c0.12169 0.27165 0.3659 0.8547 0.5427 1.297s0.39496 0.96553 0.48522 1.1636c0.11656 0.25589 0.19026 0.36123 0.25066 0.36104 0.10926-3.8e-4 0.79854-0.1659 1.1705-0.28056 0.28-0.0863 1.1394-0.50538 1.8535-0.90374 0.19404-0.10821 0.56495-0.36339 0.82326-0.56801 0.53834-0.42643 2.0052-1.7321 2.157-1.9202 0.056-0.0693 0.3866-0.44167 0.73588-0.82786 0.34927-0.38619 0.89999-1.0077 1.2234-1.3798 0.32341-0.37201 0.74785-0.85701 0.94284-1.0785 0.19498-0.22151 0.56885-0.65537 0.83016-0.96584 0.64863-0.77067 2.0533-2.1472 2.6238-2.5687 1.0402-0.76839 1.7194-1.1026 2.5549-1.2625 0.62274-0.1192 1.1295-0.0741 1.8443 0.16787 0.58275 0.1973 0.76019 0.28458 1.2004 0.5818 0.1811 0.12229 0.38773 0.25759 0.45992 0.30125 0.34374 0.20785 1.4094 1.1166 2.1524 1.8374 1.6206 1.5722 3.2313 2.9248 3.3459 2.8101 0.0414-0.0414-0.12629-0.45241-0.46682-1.2073-0.60893-0.44858-1.729-1.4298-2.8791-2.5457-0.74298-0.72081-1.8087-1.6295-2.1524-1.8374-0.0722-0.0437-0.27882-0.17896-0.45992-0.30125-0.44021-0.29722-0.61765-0.3845-1.2004-0.5818-0.71475-0.24193-1.2216-0.28706-1.8443-0.16787-0.83552 0.15994-1.5147 0.49409-2.5549 1.2625-0.57054 0.42148-1.9752 1.798-2.6238 2.5687-0.26131 0.31047-0.63518 0.74433-0.83016 0.96583-0.19499 0.22151-0.61943 0.70651-0.94284 1.0785-0.3234 0.37203-0.87412 0.99358-1.2234 1.3798-0.34928 0.38619-0.67983 0.75851-0.73588 0.82786-0.15185 0.18806-1.6187 1.4937-2.157 1.9202-0.25831 0.20462-0.62922 0.4598-0.82326 0.56801-0.7141 0.39836-1.5735 0.81744-1.8535 0.90374-0.37196 0.11466-1.0612 0.28018-1.1705 0.28056-0.0604 1.9e-4 -0.1341-0.10515-0.25066-0.36104-0.0903-0.19808-0.30842-0.72134-0.48522-1.1636s-0.42101-1.0253-0.5427-1.297c-0.1217-0.27166-0.31346-0.73729-0.42543-1.0348s-0.35444-0.85829-0.54041-1.2464c-0.18598-0.38807-0.40906-0.88664-0.49442-1.1084-0.23472-0.60958-0.4848-1.0834-1.113-2.0972-0.50154-0.80938-0.63963-0.99216-1.1153-1.4855-0.61356-0.63639-0.8143-0.76372-1.4856-0.93135-0.2572-0.0642-0.41784-0.0667-0.6025-0.0644-0.0463 5.9e-4 -0.10161-0.0196-0.15177-0.0161-0.31001 0.0239-0.69999 0.12392-0.87845 0.22306-0.14348 0.0797-0.90314 0.37484-0.96354 0.37484-0.0589 0-0.59741-0.35585-1.1268-0.74508-0.65229-0.47958-1.2855-0.93516-1.5752-1.1337-0.17098-0.11717-0.43629-0.30632-0.5887-0.41853-0.7098-0.52262-1.4501-1.0537-1.6304-1.1705-0.1091-0.0707-0.4004-0.27685-0.64619-0.45762-0.24579-0.18078-0.58557-0.42337-0.75657-0.54041-0.17098-0.11702-0.43628-0.30632-0.5887-0.41853-0.62764-0.46212-1.1491-0.83291-1.451-1.0417z" fill="#0f0f0f" fill-opacity=".31373"/>
<path d="m415.32 507.7c0 9.1032-1.8329 17.016-6.0227 24.006-2.1247 1.7387-2.0445 0.75973-1.6166 2.6952 0.42786 1.9354 10.426-6.3619 10.992-6.3699 0.51025-7e-3 1.7908 0.69749 2.3134-0.5841 0.67552-9.0297-2.1951-15.419-5.6662-19.747z" fill="url(#linearGradient3055-1)"/>
</g>
</g>
<g transform="matrix(1.1071 0 0 1.1071 -107.81 -18.148)">
<path d="m112 4.5c-3.324 0-6 2.676-6 6v15h1v-15c0-2.7873 2.2127-5 5-5h72c2.7873 0 5 2.2127 5 5v15h1v-15c0-3.324-2.676-6-6-6h-72z" fill="url(#radialGradient7430)" opacity=".45"/>
</g>
<path d="m9.544 67.178v6c0 3.6801 2.9761 6.6562 6.6562 6.6562h79.688c3.6801 0 6.6563-2.9761 6.6563-6.6562v-6c0 3.6801-2.9761 6.6562-6.6563 6.6562h-79.688c-3.6801 0-6.6562-2.9761-6.6562-6.6562z" fill="url(#linearGradient7460)" opacity=".89091"/>
<rect x="13.419" y="65.584" width="84.25" height="4.25" rx="0" ry="4.25" fill="url(#radialGradient7462)" opacity=".55"/>
<rect transform="rotate(90)" x="-9.9156" y="-98.669" width="76.75" height="4.25" rx="0" ry="4.25" fill="url(#radialGradient7464)" opacity=".55"/>
<g transform="translate(251.29 -104.9)">
<g display="none">
<rect x="5" y="7" width="86" height="85" rx="6" ry="6" fill="url(#ButtonShadow-1)" filter="url(#filter3174-3)" opacity=".9"/>
</g>
</g>
<rect transform="matrix(.9093 0 0 .92838 12.389 19.829)" x="2" y="-30" width="92" height="92" rx="3.957" ry="3.957" clip-path="url(#clipPath4156-4)" fill="url(#linearGradient7466)"/>
<path d="m17.869-9.9361c-3.1166 0-5.668 2.5395-5.668 5.646v69.278c0 3.1065 2.5513 5.646 5.668 5.646h76.792c3.1166 0 5.668-2.5395 5.668-5.646v-69.278c0-3.1065-2.5513-5.646-5.668-5.646h-76.792zm0 2.3194h76.792c1.8881 0 3.352 1.4801 3.352 3.3266v69.278c0 1.8465-1.4639 3.3266-3.352 3.3266h-76.792c-1.8881 0-3.352-1.4801-3.352-3.3266v-69.278c0-1.8465 1.4639-3.3266 3.352-3.3266z" color="#000000" fill="#1f2224" fill-opacity=".63265" style="block-progression:tb;text-indent:0;text-transform:none"/>
</g>
</g>
<g display="none">
<rect x="5" y="7" width="86" height="85" rx="6" ry="6" fill="url(#ButtonShadow-1)" filter="url(#filter3174)" opacity=".9"/>
</g>
</g>
</g>
</svg>
