<?xml version="1.0" encoding="UTF-8"?>
<svg version="1.1" viewBox="0 0 32 32" xmlns="http://www.w3.org/2000/svg" xmlns:cc="http://creativecommons.org/ns#" xmlns:dc="http://purl.org/dc/elements/1.1/" xmlns:rdf="http://www.w3.org/1999/02/22-rdf-syntax-ns#" xmlns:xlink="http://www.w3.org/1999/xlink">
<defs>
<linearGradient id="linearGradient4071" x1="6" x2="90" y1="47" y2="47" gradientTransform="matrix(1.1071 0 0 1.1071 -4.9939 -3.6207)" gradientUnits="userSpaceOnUse">
<stop stop-color="#adbdc1" offset="0"/>
<stop stop-color="#fff" offset=".25"/>
<stop stop-color="#90a4aa" offset=".5"/>
<stop stop-color="#fbf9f9" offset=".75"/>
<stop stop-color="#adbcc1" offset="1"/>
</linearGradient>
<linearGradient id="linearGradient4129" x1="1.5" x2="94.5" y1="88.172" y2="88.172" gradientTransform="translate(.14895 .41503)" gradientUnits="userSpaceOnUse">
<stop offset="0"/>
<stop stop-opacity=".58824" offset=".1"/>
<stop stop-opacity=".58824" offset=".9"/>
<stop offset="1"/>
</linearGradient>
<radialGradient id="radialGradient7462" cx="13.948" cy="44.893" r="43.199" gradientTransform="matrix(.97513 0 0 .049191 34.048 80.582)" gradientUnits="userSpaceOnUse" xlink:href="#linearGradient3737"/>
<linearGradient id="linearGradient3737">
<stop stop-color="#fff" offset="0"/>
<stop stop-color="#fff" stop-opacity="0" offset="1"/>
</linearGradient>
<radialGradient id="radialGradient7464" cx="13.948" cy="44.893" r="43.199" gradientTransform="matrix(.88833 0 0 .049191 31.96 -90.317)" gradientUnits="userSpaceOnUse" xlink:href="#linearGradient3737"/>
<linearGradient id="linearGradient4767" x1="2.7714" x2="50.528" y1="-28.642" y2="14.514" gradientUnits="userSpaceOnUse" xlink:href="#linearGradient3737"/>
<clipPath id="clipPath4156-4-1">
<path d="m27.046-55.695-14.214 13.321h0.06127l15.653 21.771 10.231-10.546c-0.2169-1.1522-11.311-23.67-11.732-24.546zm-17.399 16.313-14.888 14.062 21.229 17.515 10.385-10.577zm31.491 12.951-9.7413 9.7136 8.9448 12.458 7.7808-7.555zm-49.84 4.3788-13.754 12.982 26.283 13.846 0.06127-0.0617-0.12253-0.0617 9.8332-10.053-22.301-16.652zm38.015 7.4008-9.8025 9.7753 11.579 9.5594 7.6276-7.4008-8.6691-11.009zm20.187 5.674-7.3825 7.2158 6.1878 8.5418 5.8202-6.1365zm-32.195 6.3215-9.5575 9.4977 13.662 7.185 7.9339-7.6784zm23.312 2.3744-7.1068 6.9383 8.3628 6.9074 5.3608-5.674-0.06127-0.0925-0.0919 0.12335-6.4635-8.2026zm-8.7304 8.5418-7.5051 7.3392 10.354 5.4581c1.3975-1.321 5.6751-6.1229 5.8509-6.3215z" fill="#fff" opacity=".6"/>
</clipPath>
<linearGradient id="linearGradient3053" x1="24" x2="24" y1="44.5" y2="1.4999" gradientTransform="matrix(1.2558 0 0 -1.2558 17.861 76.884)" gradientUnits="userSpaceOnUse">
<stop stop-color="#44a9d7" offset="0"/>
<stop stop-color="#00aced" offset=".1"/>
<stop stop-color="#20507f" offset=".9"/>
<stop stop-color="#1c5083" offset="1"/>
</linearGradient>
</defs>
<metadata>
<rdf:RDF>
<cc:Work rdf:about="">
<dc:format>image/svg+xml</dc:format>
<dc:type rdf:resource="http://purl.org/dc/dcmitype/StillImage"/>
<dc:title/>
<dc:date>2017</dc:date>
<dc:creator>
<cc:Agent>
<dc:title>Cristian Pozzessere "ilnanny"</dc:title>
</cc:Agent>
</dc:creator>
<dc:subject>
<rdf:Bag>
<rdf:li>Global language</rdf:li>
</rdf:Bag>
</dc:subject>
<dc:description>Playing with Inkscape on Gnu/Linux O. S.</dc:description>
<dc:contributor>
<cc:Agent>
<dc:title>In the night, alone like a dog.</dc:title>
</cc:Agent>
</dc:contributor>
<cc:license rdf:resource="http://creativecommons.org/licenses/by-sa/4.0/"/>
</cc:Work>
<cc:License rdf:about="http://creativecommons.org/licenses/by-sa/4.0/">
<cc:permits rdf:resource="http://creativecommons.org/ns#Reproduction"/>
<cc:permits rdf:resource="http://creativecommons.org/ns#Distribution"/>
<cc:requires rdf:resource="http://creativecommons.org/ns#Notice"/>
<cc:requires rdf:resource="http://creativecommons.org/ns#Attribution"/>
<cc:permits rdf:resource="http://creativecommons.org/ns#DerivativeWorks"/>
<cc:requires rdf:resource="http://creativecommons.org/ns#ShareAlike"/>
</cc:License>
</rdf:RDF>
</metadata>
<g transform="translate(0 -1026.5)">
<g transform="translate(-.14896 1026.1)">
<g transform="matrix(.32292 0 0 .32292 .60086 .78098)">
<path d="m89.292 0.41503h-82.286c-3.7988 0-6.8571 3.0583-6.8571 6.8571v82.286c0 3.7989 3.0583 6.8571 6.8571 6.8571h82.286c3.7989 0 6.8571-3.0583 6.8571-6.8571v-82.286c0-3.7989-3.0583-6.8571-6.8571-6.8571z" opacity=".15"/>
<path d="m88.649 1.165h-81c-3.7395 0-6.75 3.0105-6.75 6.75v81c0 3.7395 3.0105 6.75 6.75 6.75h81c3.7395 0 6.75-3.0105 6.75-6.75v-81c0-3.7395-3.0105-6.75-6.75-6.75z" opacity=".15"/>
<path d="m88.006 1.915h-79.714c-3.6801 0-6.6429 2.9627-6.6429 6.6429v79.714c0 3.6801 2.9627 6.6429 6.6429 6.6429h79.714c3.6801 0 6.6429-2.9627 6.6429-6.6429v-79.714c0-3.6801-2.9627-6.6429-6.6429-6.6429z" fill="url(#linearGradient4071)"/>
<path d="m11.39 6.8022c-2.8565 0-5.1241 2.2884-5.1241 5.171v68.58c1.0972 1.6845 2.9688 2.8117 5.1241 2.8117h73.787c2.1553 0 4.0269-1.1272 5.1241-2.8117v-68.58c0-2.8826-2.2676-5.171-5.1241-5.171z" fill="#dae2e8" opacity=".77865"/>
<path d="m9.974 5.1445c-3.1166 0-5.668 2.5395-5.668 5.646v69.278c0 3.1065 2.5513 5.646 5.668 5.646h76.792c3.1166 0 5.668-2.5395 5.668-5.646v-69.278c0-3.1065-2.5513-5.646-5.668-5.646zm0 2.3194h76.792c1.8881 0 3.352 1.4801 3.352 3.3266v69.278c0 1.8465-1.4639 3.3266-3.352 3.3266h-76.792c-1.8881 0-3.352-1.4801-3.352-3.3266v-69.278c0-1.8465 1.4639-3.3266 3.352-3.3266z" color="#000000" fill="#241f1f" fill-opacity=".63265" style="text-decoration-line:none;text-indent:0;text-transform:none"/>
<path d="m1.649 82.259v6c0 3.6801 2.9761 6.6562 6.6562 6.6562h79.687c3.6801 0 6.6563-2.9761 6.6563-6.6562v-6c0 3.6801-2.9761 6.6562-6.6563 6.6562h-79.687c-3.6801 0-6.6562-2.9761-6.6562-6.6562z" fill="url(#linearGradient4129)" opacity=".65818"/>
<rect x="5.524" y="80.665" width="84.25" height="4.25" rx="0" ry="4.25" fill="url(#radialGradient7462)" opacity=".55"/>
<rect transform="rotate(90)" x="5.975" y="-90.234" width="76.75" height="4.25" rx="0" ry="4.25" fill="url(#radialGradient7464)" opacity=".669"/>
<g transform="matrix(1.1779 0 0 1.1779 -7.8176 -11.467)">
<path d="m44.25 19.906c-2.2444 0-3.9688 1.9011-3.9688 4.0625v2.4062c-0.97527 0.31762-1.937 0.71035-2.875 1.1562l-1.6875-1.6875c-4.1e-5 -4.1e-5 -0.02916 0.0012-0.03125 0-0.02224-0.01297-0.12574-0.08477-0.25-0.15625-1.5002-1.2808-3.8434-1.4379-5.3438 0.0625l-5.3438 5.3438c-1.5705 1.5704-1.3592 4.0792 0.09375 5.5625l1.6875 1.75c-0.44589 0.93797-0.83863 1.8997-1.1562 2.875h-2.4062c-2.1614 0-4.0625 1.7243-4.0625 3.9688v7.5c0 2.2444 1.9011 3.9688 4.0625 3.9688h2.4062c0.31762 0.97527 0.71035 1.937 1.1562 2.875l-1.6875 1.75c-1.4529 1.4833-1.6641 3.9921-0.09375 5.5625l5.3438 5.3438c0.7304 0.73037 1.7345 1.1654 2.8125 1.1562 1.0699-0.0091 1.8494-0.51835 2.4375-1.0312 0.02268-0.01978 0.07181-0.01147 0.09375-0.03125a1.1273 1.1273 0 0 0 0.21875-0.1875 1.1273 1.1273 0 0 0 0.03125 0l1.7188-1.6875c0.93797 0.4459 1.8997 0.83863 2.875 1.1562v2.4062c0 2.1614 1.7243 4.0625 3.9688 4.0625h7.5c2.2444 0 3.9688-1.9011 3.9688-4.0625v-2.4062c0.97527-0.31762 1.937-0.71035 2.875-1.1562l1.75 1.6875c1.4833 1.4527 3.9921 1.6641 5.5625 0.09375l5.3438-5.3438c1.4465-1.4463 1.3095-3.6532 0.15625-5.1562a1.1273 1.1273 0 0 0-0.03125-0.0625c-0.0055-0.0069 0.0056-0.02436 0-0.03125a1.1273 1.1273 0 0 0-0.21875-0.3125 1.1273 1.1273 0 0 0 0-0.03125l-1.6875-1.7188c0.4459-0.93797 0.83863-1.8997 1.1562-2.875h2.4062c2.1614 0 4.0625-1.7243 4.0625-3.9688v-7.5c0-2.2444-1.901-3.9688-4.0625-3.9688h-2.4062c-0.31762-0.97527-0.71035-1.937-1.1562-2.875l1.6875-1.7188a1.1273 1.1273 0 0 0 0-0.03125c0.0209-0.02134 0.04212-0.04075 0.0625-0.0625a1.1273 1.1273 0 0 0 0.125-0.1875 1.1273 1.1273 0 0 0 0.09375-0.1875c1.1271-1.5025 1.2475-3.69-0.1875-5.125l-5.3438-5.3438c-1.5004-1.5005-3.8436-1.3433-5.3438-0.0625-0.12426 0.07148-0.22776 0.14328-0.25 0.15625-0.0021 0.0012-0.03121-4.1e-5 -0.03125 0l-1.6875 1.6875c-0.93797-0.4459-1.8997-0.83863-2.875-1.1562v-2.4062c0-2.1614-1.7243-4.0625-3.9688-4.0625zm3.75 17.094 9.9062 9.9062h-1.9062c0.0056 6e-5 -0.19307 4.96e-4 -0.1875 0 0.0056-4.96e-4 -0.22425 0.0323-0.21875 0.03125 0.0055-1e-3 -0.19286 0.06409-0.1875 0.0625 0.0054-0.0016-0.22393 0.06461-0.21875 0.0625 0.0052-0.0021-0.19244 0.09637-0.1875 0.09375 0.0049-0.0026-0.16091 0.09685-0.15625 0.09375 0.0047-0.0031-0.19183 0.12854-0.1875 0.125 0.0043-0.0035-0.16021 0.12896-0.15625 0.125 4e-3 -4e-3 -0.12854 0.16058-0.125 0.15625 0.0035-0.0043-0.1281 0.19216-0.125 0.1875 0.0031-0.0047-0.09637 0.1612-0.09375 0.15625 0.0026-0.0049-0.09586 0.19268-0.09375 0.1875 0.0021-0.0052-0.06409 0.22412-0.0625 0.21875 0.0016-0.0054-0.06355 0.193-0.0625 0.1875 1e-3 -0.0055-0.03175 0.22432-0.03125 0.21875 4.96e-4 -0.0056 6e-5 0.1931 0 0.1875v9.9062h-11.812v-9.9062c-6e-5 0.0056-4.96e-4 -0.19307 0-0.1875 4.96e-4 0.0056-0.0323-0.22425-0.03125-0.21875 1e-3 0.0055-0.06409-0.19286-0.0625-0.1875 0.0016 0.0054-0.06461-0.22393-0.0625-0.21875 0.0021 0.0052-0.09637-0.19244-0.09375-0.1875 0.0026 0.0049-0.09685-0.16091-0.09375-0.15625 0.0031 0.0047-0.12854-0.19183-0.125-0.1875 0.0035 0.0043-0.12896-0.16021-0.125-0.15625 4e-3 4e-3 -0.16058-0.12854-0.15625-0.125 0.0043 0.0035-0.19216-0.1281-0.1875-0.125 0.0047 0.0031-0.1612-0.09637-0.15625-0.09375 0.0049 0.0026-0.19268-0.09586-0.1875-0.09375 0.0052 0.0021-0.22412-0.06409-0.21875-0.0625 0.0054 0.0016-0.193-0.06355-0.1875-0.0625 0.0055 1e-3 -0.22432-0.03175-0.21875-0.03125 0.0056 4.96e-4 -0.1931 6e-5 -0.1875 0h-1.9062z" display="block" opacity=".1"/>
<path d="m44.25 21.031c-1.5966 0-2.8438 1.3764-2.8438 2.9375v3.1875c-1.4666 0.42859-2.8931 0.97426-4.25 1.6875l-2.25-2.1875c-0.0071-0.0071-0.0241 7e-3 -0.03125 0-1.0708-1.0488-2.8669-1.1956-3.9688-0.09375l-5.3438 5.3438c-1.102 1.1019-0.95508 2.898 0.09375 3.9688l2.1875 2.2812c-0.71324 1.3569-1.2589 2.7834-1.6875 4.25h-3.1875c-1.5611 0-2.9375 1.2472-2.9375 2.8438v7.5c0 1.5966 1.3764 2.8438 2.9375 2.8438h3.1875c0.4286 1.4666 0.97425 2.8931 1.6875 4.25l-2.1875 2.2812c-1.0488 1.0708-1.1956 2.8668-0.09375 3.9688l5.3438 5.3438c0.52679 0.52677 1.2538 0.85009 2 0.84375 0.82861-7e-3 1.4899-0.46377 1.9688-0.9375h0.03125l2.25-2.1875c1.3569 0.71324 2.7834 1.2589 4.25 1.6875v3.1875c0 1.5611 1.2472 2.9375 2.8438 2.9375h7.5c1.5965 0 2.8438-1.3764 2.8438-2.9375v-3.1875c1.4666-0.42859 2.8931-0.97425 4.25-1.6875l2.2812 2.1875c1.0708 1.0487 2.8668 1.1956 3.9688 0.09375l5.3438-5.3438c1.102-1.1019 0.95506-2.898-0.09375-3.9688v-0.03125l-2.1875-2.25c0.71324-1.3569 1.2589-2.7834 1.6875-4.25h3.1875c1.5611 0 2.9375-1.2472 2.9375-2.8438v-7.5c0-1.5966-1.3764-2.8438-2.9375-2.8438h-3.1875c-0.42859-1.4666-0.97426-2.8931-1.6875-4.25l2.1875-2.25v-0.03125c1.0487-1.0708 1.1957-2.8668 0.09375-3.9688l-5.3438-5.3438c-1.1019-1.1019-2.898-0.95508-3.9688 0.09375-0.0071 7e-3 -0.02417-0.0071-0.03125 0l-2.25 2.1875c-1.3569-0.71324-2.7834-1.2589-4.25-1.6875v-3.1875c0-1.5611-1.2472-2.9375-2.8438-2.9375zm3.75 14.344 12.656 12.656h-4.6562a0.95852 0.95852 0 0 0-0.96875 0.96875v11.031h-14.062v-11.031a0.95852 0.95852 0 0 0-0.96875-0.96875h-4.6562z" display="block" opacity=".15"/>
<path d="m44.25 76c-1.0626 0-1.875-0.88801-1.875-1.9688v-3.8438c-1.9-0.50622-3.7765-1.1902-5.4375-2.1562l-2.7188 2.625c-0.38211 0.38209-0.81802 0.65206-1.3125 0.65625-0.49448 0.0042-0.93682-0.18684-1.3125-0.5625l-5.3438-5.3438c-0.75135-0.75136-0.6704-1.8608 0.09375-2.625l2.625-2.7188c-0.96606-1.661-1.65-3.5375-2.1562-5.4375h-3.8438c-1.0807 0-1.9688-0.81242-1.9688-1.875v-7.5c0-1.0626 0.88801-1.875 1.9688-1.875h3.8438c0.50624-1.9 1.1902-3.7765 2.1562-5.4375l-2.625-2.7188c-0.7642-0.7642-0.84517-1.8736-0.09375-2.625l5.3438-5.3438c0.75135-0.75136 1.8608-0.67044 2.625 0.09375l2.7188 2.625c1.661-0.96605 3.5375-1.65 5.4375-2.1562v-3.8438c0-1.0807 0.81242-1.9688 1.875-1.9688h7.5c1.0626 0 1.875 0.88801 1.875 1.9688v3.8438c1.9 0.50623 3.7765 1.1902 5.4375 2.1562l2.7188-2.625c0.76419-0.76419 1.8736-0.84514 2.625-0.09375l5.3438 5.3438c0.75135 0.75136 0.67035 1.8608-0.09375 2.625l-2.625 2.7188c0.96605 1.661 1.65 3.5375 2.1562 5.4375h3.8438c1.0807-2.4e-5 1.9688 0.81242 1.9688 1.875v7.5c0 1.0626-0.88802 1.875-1.9688 1.875h-3.8438c-0.50622 1.9-1.1902 3.7764-2.1562 5.4375l2.625 2.7188c0.76419 0.7642 0.8452 1.8736 0.09375 2.625l-5.3438 5.3438c-0.75137 0.75135-1.8608 0.67035-2.625-0.09375l-2.7188-2.625c-1.661 0.96606-3.5375 1.65-5.4375 2.1562v3.8438c0 1.0807-0.81243 1.9688-1.875 1.9688zm-4.25-15h16v-12h7l-15-15-15 15h7z" display="block" opacity=".3"/>
<path d="m44.25 75c-1.0626 0-1.875-0.88801-1.875-1.9688v-3.8438c-1.9-0.50622-3.7765-1.1902-5.4375-2.1562l-2.7188 2.625c-0.38211 0.38209-0.81802 0.65206-1.3125 0.65625-0.49448 0.0042-0.93682-0.18684-1.3125-0.5625l-5.3438-5.3438c-0.75135-0.75136-0.6704-1.8608 0.09375-2.625l2.625-2.7188c-0.96606-1.661-1.65-3.5375-2.1562-5.4375h-3.8438c-1.0807 0-1.9688-0.81242-1.9688-1.875v-7.5c0-1.0626 0.88801-1.875 1.9688-1.875h3.8438c0.50624-1.9 1.1902-3.7765 2.1562-5.4375l-2.625-2.7188c-0.7642-0.7642-0.84517-1.8736-0.09375-2.625l5.3438-5.3438c0.75135-0.75136 1.8608-0.67044 2.625 0.09375l2.7188 2.625c1.661-0.96605 3.5375-1.65 5.4375-2.1562v-3.8438c0-1.0807 0.81242-1.9688 1.875-1.9688h7.5c1.0626 0 1.875 0.88801 1.875 1.9688v3.8438c1.9 0.50623 3.7765 1.1902 5.4375 2.1562l2.7188-2.625c0.76419-0.76419 1.8736-0.84514 2.625-0.09375l5.3438 5.3438c0.75135 0.75136 0.67035 1.8608-0.09375 2.625l-2.625 2.7188c0.96605 1.661 1.65 3.5375 2.1562 5.4375h3.8438c1.0807-2.4e-5 1.9688 0.81242 1.9688 1.875v7.5c0 1.0626-0.88802 1.875-1.9688 1.875h-3.8438c-0.50622 1.9-1.1902 3.7764-2.1562 5.4375l2.625 2.7188c0.76419 0.7642 0.8452 1.8736 0.09375 2.625l-5.3438 5.3438c-0.75137 0.75135-1.8608 0.67035-2.625-0.09375l-2.7188-2.625c-1.661 0.96606-3.5375 1.65-5.4375 2.1562v3.8438c0 1.0807-0.81243 1.9688-1.875 1.9688zm-4.25-15h16v-12h7l-15-15-15 15h7z" display="block" fill="url(#linearGradient3053)"/>
<path d="m44.25 75c-1.0626 0-1.875-0.88801-1.875-1.9688v-1c0 1.0807 0.81242 1.9688 1.875 1.9688h7.5c1.0626 0 1.875-0.888 1.875-1.9688v1c0 1.0807-0.81243 1.9688-1.875 1.9688zm-11.344-4.6875c-0.49448 0.0042-0.93682-0.18684-1.3125-0.5625l-5.3438-5.3438c-0.49496-0.49496-0.62229-1.1453-0.4375-1.75 0.08058 0.26611 0.21571 0.5282 0.4375 0.75l5.3438 5.3438c0.37568 0.37566 0.81802 0.5667 1.3125 0.5625s0.93039-0.27416 1.3125-0.65625l2.7188-2.625c1.661 0.96605 3.5375 1.65 5.4375 2.1562v1c-1.9-0.50622-3.7765-1.1902-5.4375-2.1562l-2.7188 2.625c-0.38211 0.38209-0.81802 0.65206-1.3125 0.65625zm30.188-0.03125c-0.4668-0.02184-0.9304-0.24295-1.3125-0.625l-2.7188-2.625c-1.661 0.96606-3.5375 1.65-5.4375 2.1562v-1c1.9-0.50623 3.7765-1.1902 5.4375-2.1562l2.7188 2.625c0.7642 0.7641 1.8736 0.8451 2.625 0.09375l5.3438-5.3438c0.22182-0.2218 0.35692-0.48389 0.4375-0.75 0.18481 0.60469 0.05752 1.255-0.4375 1.75l-5.3438 5.3438c-0.37569 0.37567-0.8457 0.55309-1.3125 0.53125zm-34.469-11.875c-0.78178-1.4947-1.3707-3.1233-1.8125-4.7812h-3.8438c-1.0807 0-1.9688-0.81242-1.9688-1.875v-1c0 1.0626 0.88801 1.875 1.9688 1.875h3.8438c0.50624 1.9 1.1902 3.7765 2.1562 5.4375zm38.75 0-0.34375-0.34375c0.96605-1.6611 1.65-3.5375 2.1562-5.4375h3.8438c1.0807 0 1.9688-0.81243 1.9688-1.875v1c0 1.0626-0.88802 1.875-1.9688 1.875h-3.8438c-0.44175 1.658-1.0307 3.2866-1.8125 4.7812zm-34.375-11.406 15-15 15 15h-1l-14-14-14 14zm-4.375-10.406-2.2812-2.375c-0.53861-0.53861-0.72365-1.2396-0.53125-1.875 0.09573 0.31323 0.27047 0.61422 0.53125 0.875l2.625 2.7188c-0.12304 0.21156-0.22964 0.43809-0.34375 0.65625zm38.75 0c-0.11411-0.21816-0.22071-0.44469-0.34375-0.65625l2.625-2.7188c0.26074-0.26078 0.43553-0.56177 0.53125-0.875 0.19238 0.63537 0.0073 1.3364-0.53125 1.875z" display="block" fill="#fafafa" opacity=".782"/>
<path d="m25.812 63.656c-0.19239-0.63537-0.0073-1.3364 0.53125-1.875l2.2812-2.375c0.11411 0.21816 0.22071 0.44469 0.34375 0.65625l-2.625 2.7188c-0.26076 0.26078-0.43553 0.56177-0.53125 0.875zm44.375 0c-0.09573-0.31323-0.27048-0.61422-0.53125-0.875l-2.625-2.7188c0.12304-0.21156 0.22964-0.43809 0.34375-0.65625l2.2812 2.375c0.53861 0.53861 0.72365 1.2396 0.53125 1.875zm-30.188-2.6562v-1h16v1zm-7-12 1-1h6v1zm23 0v-1h6l1 1zm-35-3.75v-1c0-1.0626 0.88801-1.875 1.9688-1.875h3.8438c0.44176-1.658 1.0307-3.2866 1.8125-4.7812l0.34375 0.34375c-0.96604 1.661-1.65 3.5375-2.1562 5.4375h-3.8438c-1.0807 0-1.9688 0.81242-1.9688 1.875zm54 0c0-1.0626-0.88802-1.875-1.9688-1.875h-3.8438c-0.50622-1.9-1.1902-3.7765-2.1562-5.4375l0.34375-0.34375c0.78178 1.4947 1.3708 3.1233 1.8125 4.7812h3.8438c1.0807-2.4e-5 1.9688 0.81242 1.9688 1.875zm-49.188-11.906c-0.18481-0.60469-0.0575-1.255 0.4375-1.75l5.3438-5.3438c0.75135-0.75136 1.8608-0.67044 2.625 0.09375l2.7188 2.625c1.661-0.96605 3.5375-1.65 5.4375-2.1562v1c-1.9 0.50623-3.7765 1.1902-5.4375 2.1562l-2.7188-2.625c-0.7642-0.76419-1.8736-0.84511-2.625-0.09375l-5.3438 5.3438c-0.22181 0.2218-0.35692 0.48389-0.4375 0.75zm44.375 0c-0.08057-0.26611-0.21571-0.5282-0.4375-0.75l-5.3438-5.3438c-0.75136-0.75139-1.8608-0.67044-2.625 0.09375l-2.7188 2.625c-1.661-0.96605-3.5375-1.65-5.4375-2.1562v-1c1.9 0.50623 3.7765 1.1902 5.4375 2.1562l2.7188-2.625c0.76419-0.76419 1.8736-0.84514 2.625-0.09375l5.3438 5.3438c0.49496 0.49496 0.62229 1.1453 0.4375 1.75zm-27.812-9.375v-1c0-1.0807 0.81242-1.9688 1.875-1.9688h7.5c1.0626 0 1.875 0.88801 1.875 1.9688v1c0-1.0807-0.81242-1.9688-1.875-1.9688h-7.5c-1.0626 0-1.875 0.88801-1.875 1.9688z" display="block" fill="#fff" opacity=".75"/>
</g>
<rect transform="matrix(1.0692 0 0 1.0477 4.4442 38.894)" x="2" y="-30" width="75.966" height="69.024" rx="3.957" ry="3.957" clip-path="url(#clipPath4156-4-1)" fill="url(#linearGradient4767)" opacity=".50781"/>
</g>
</g>
</g>
</svg>
