<?xml version="1.0" encoding="UTF-8"?>
<svg version="1.1" viewBox="0 0 32 32" xmlns="http://www.w3.org/2000/svg" xmlns:cc="http://creativecommons.org/ns#" xmlns:dc="http://purl.org/dc/elements/1.1/" xmlns:rdf="http://www.w3.org/1999/02/22-rdf-syntax-ns#" xmlns:xlink="http://www.w3.org/1999/xlink">
<defs>
<linearGradient id="linearGradient3832-0-6-1-1">
<stop offset="0"/>
<stop stop-opacity=".58824" offset=".1"/>
<stop stop-opacity=".58824" offset=".9"/>
<stop offset="1"/>
</linearGradient>
<linearGradient id="linearGradient5021" x1="6" x2="90" y1="47" y2="47" gradientTransform="matrix(1.1393 0 0 1.1393 -6.6857 1021)" gradientUnits="userSpaceOnUse">
<stop stop-color="#adbac1" offset="0"/>
<stop stop-color="#fff" offset=".25"/>
<stop stop-color="#adbac1" offset=".5"/>
<stop stop-color="#fff" offset=".75"/>
<stop stop-color="#adbac1" offset="1"/>
</linearGradient>
<radialGradient id="radialGradient3114" cx="158" cy="6.2132" r="41" gradientTransform="matrix(0 1.6209 -2.0383 0 160.66 -243.04)" gradientUnits="userSpaceOnUse">
<stop stop-color="#fff" offset="0"/>
<stop stop-color="#fff" stop-opacity="0" offset="1"/>
</radialGradient>
<radialGradient id="radialGradient3118" cx="48" cy="-27" r="42" gradientTransform="matrix(-1.0722 0 0 -.87502 199.46 -19.126)" gradientUnits="userSpaceOnUse">
<stop stop-color="#fff" offset="0"/>
<stop stop-color="#fff" offset=".8"/>
<stop stop-color="#fff" stop-opacity="0" offset="1"/>
</radialGradient>
<linearGradient id="linearGradient3120" x1="-94" x2="-10.188" y1="82.984" y2="82.984" gradientTransform="matrix(1 0 0 .88906 200 8.9432)" gradientUnits="userSpaceOnUse" xlink:href="#linearGradient3832-0-6-1-1"/>
<linearGradient id="linearGradient5698" x1="6" x2="90" y1="47" y2="47" gradientTransform="matrix(1.1393 0 0 1.1393 -6.6857 1021)" gradientUnits="userSpaceOnUse">
<stop stop-color="#fff" stop-opacity="0" offset="0"/>
<stop stop-color="#fff" stop-opacity=".85135" offset=".036815"/>
<stop stop-color="#fff" stop-opacity="0" offset=".065061"/>
<stop stop-color="#fff" stop-opacity="0" offset=".94494"/>
<stop stop-color="#fff" stop-opacity=".85135" offset=".96582"/>
<stop stop-color="#fff" stop-opacity="0" offset="1"/>
</linearGradient>
<linearGradient id="linearGradient1210" x1="4.1613" x2="24.761" y1="42.204" y2="42.204" gradientTransform="matrix(.9063 0 0 .86595 34.894 1073.1)" gradientUnits="userSpaceOnUse">
<stop stop-color="#fff" stop-opacity=".016779" offset="0"/>
<stop stop-color="#fff" offset=".17869"/>
<stop stop-color="#fff" offset=".8"/>
<stop stop-color="#fff" stop-opacity=".02349" offset="1"/>
</linearGradient>
<linearGradient id="linearGradient970" x1="6" x2="90" y1="47" y2="47" gradientTransform="matrix(1.1393 0 0 1.1393 -6.6857 1021)" gradientUnits="userSpaceOnUse" xlink:href="#linearGradient3832-0-6-1-1"/>
</defs>
<metadata>
<rdf:RDF>
<cc:Work rdf:about="">
<dc:format>image/svg+xml</dc:format>
<dc:type rdf:resource="http://purl.org/dc/dcmitype/StillImage"/>
<dc:title/>
<dc:date>2017</dc:date>
<dc:creator>
<cc:Agent>
<dc:title>Cristian Pozzessere "ilnanny"</dc:title>
</cc:Agent>
</dc:creator>
<dc:subject>
<rdf:Bag>
<rdf:li>Global language</rdf:li>
</rdf:Bag>
</dc:subject>
<dc:description>Playing with Inkscape on Gnu/Linux O. S.</dc:description>
<dc:contributor>
<cc:Agent>
<dc:title>In the night, alone like a dog.</dc:title>
</cc:Agent>
</dc:contributor>
<cc:license rdf:resource="http://creativecommons.org/licenses/by-sa/4.0/"/>
</cc:Work>
<cc:License rdf:about="http://creativecommons.org/licenses/by-sa/4.0/">
<cc:permits rdf:resource="http://creativecommons.org/ns#Reproduction"/>
<cc:permits rdf:resource="http://creativecommons.org/ns#Distribution"/>
<cc:requires rdf:resource="http://creativecommons.org/ns#Notice"/>
<cc:requires rdf:resource="http://creativecommons.org/ns#Attribution"/>
<cc:permits rdf:resource="http://creativecommons.org/ns#DerivativeWorks"/>
<cc:requires rdf:resource="http://creativecommons.org/ns#ShareAlike"/>
</cc:License>
</rdf:RDF>
</metadata>
<g transform="translate(0 -1026.5)">
<g transform="translate(-.14896 1026.1)">
<g transform="translate(.14896 -1026.1)">
<g transform="matrix(.32393 0 0 .32393 .45141 694.45)">
<path d="m89.014 1026.7h-82.029c-3.787 0-6.8357 3.0487-6.8357 6.8357v82.029c0 3.7869 3.0487 6.8357 6.8357 6.8357h82.029c3.787 0 6.8357-3.0488 6.8357-6.8357v-82.029c0-3.787-3.0487-6.8357-6.8357-6.8357z" fill="url(#linearGradient5021)"/>
<path d="m89.014 1026.7h-82.029c-3.787 0-6.8357 3.0487-6.8357 6.8357v82.029c0 3.7869 3.0487 6.8357 6.8357 6.8357h82.029c3.787 0 6.8357-3.0488 6.8357-6.8357v-82.029c0-3.787-3.0487-6.8357-6.8357-6.8357z" fill="url(#linearGradient970)" opacity=".43"/>
<g transform="matrix(1.1393 0 0 1.1393 -120.61 1021.5)">
<path d="m112 5.5c-2.7873 0-5 2.2127-5 5v66.312c1.0707 1.6288 2.8969 2.7188 5 2.7188h72c2.1031 0 3.9293-1.09 5-2.7188v-66.312c0-2.7873-2.2127-5-5-5z" fill="url(#radialGradient3114)" opacity=".2"/>
<path d="m112 4.5c-3.324 0-6 2.676-6 6v15h1v-15c0-2.7873 2.2127-5 5-5h72c2.7873 0 5 2.2127 5 5v15h1v-15c0-3.324-2.676-6-6-6z" fill="url(#radialGradient3118)" opacity=".45"/>
<path d="m106 76.942v6.2234c0 2.9552 2.676 5.3344 6 5.3344h72c3.324 0 6-2.3791 6-5.3344v-6.2234c0 2.9552-2.676 5.3344-6 5.3344h-72c-3.324 0-6-2.3791-6-5.3344z" fill="url(#linearGradient3120)" opacity=".589"/>
</g>
<rect x="38.717" y="1106.8" width="18.567" height="5.6936" rx="3.8214" ry="4.5928" fill="url(#linearGradient1210)" fill-rule="evenodd" stroke="#3f3f3f" stroke-linecap="square" stroke-linejoin="round" stroke-width="1.0701" style="paint-order:fill markers stroke"/>
<g transform="matrix(.96102 0 0 .95774 -3.0067 45.721)" fill="#0d1625">
<path d="m16.956 1030.4c-2.3542 0-4.2482 1.8979-4.2482 4.2559v65.973c0 2.358 1.8941 4.2559 4.2482 4.2559h72.241c2.3542 0 4.2482-1.8979 4.2482-4.2559v-65.973c0-2.358-1.8941-4.2559-4.2482-4.2559zm2.1136 2.1777h68.014c2.2165 0 4.0006 1.7878 4.0006 4.0079v62.113c0 2.2201-1.7841 4.0078-4.0006 4.0078h-68.014c-2.2165 0-4.0006-1.7877-4.0006-4.0078v-62.113c0-2.2201 1.7841-4.0079 4.0006-4.0079z" color="#000000" fill-opacity=".59809"/>
<path d="m16.956 1030.4h72.24c2.3542 0 4.2494 1.8983 4.2494 4.2563v65.973c0 2.358-1.8952 4.2563-4.2494 4.2563h-72.24c-2.3542 0-4.2494-1.8983-4.2494-4.2563v-65.973c0-2.358 1.8952-4.2563 4.2494-4.2563z" color="#000000" fill-opacity=".78261"/>
</g>
<path d="m89.014 1026.7h-82.029c-3.787 0-6.8357 3.0487-6.8357 6.8357v82.029c0 3.7869 3.0487 6.8357 6.8357 6.8357h82.029c3.787 0 6.8357-3.0488 6.8357-6.8357v-82.029c0-3.787-3.0487-6.8357-6.8357-6.8357z" fill="url(#linearGradient5698)"/>
<g transform="matrix(.93683 0 0 .94619 2.102 58.412)" stroke="#fdfdfd">
<path d="m53.698 1087.3h-8.1185c-1.1209 0-2.0297 0.8567-2.0297 1.9131v7.6522c0 1.0564 0.90887 1.9131 2.0297 1.9131h8.1185c1.1209 0 2.0297-0.8567 2.0297-1.9131v-7.6522c0-1.0564-0.90888-1.9131-2.0297-1.9131zm-4.0592 9.5653c-2.242 0-4.0592-1.7131-4.0592-3.8261 0-2.1131 1.8173-3.8261 4.0592-3.8261 2.242 0 4.0592 1.713 4.0592 3.8261 0 2.113-1.8173 3.8261-4.0592 3.8261z" fill="#63afdb" stroke-width=".39801"/>
<path d="m64.947 1096.9c0 1.0564 0.90888 1.9131 2.0297 1.9131h8.1185c1.1209 0 2.0297-0.8567 2.0297-1.9131v-7.6522c0-1.0564-0.90888-1.9131-2.0297-1.9131h-8.1185c-1.1209 0-2.0297 0.8567-2.0297 1.9131z" fill="#ff6469" stroke-width=".39801"/>
<path d="m32.301 1087.3h-8.1185c-1.1209 0-2.0297 0.8567-2.0297 1.9131v7.6522c0 1.0564 0.90888 1.9131 2.0297 1.9131h8.1185c1.1209 0 2.0297-0.8567 2.0297-1.9131v-7.6522c0-1.0564-0.90864-1.9131-2.0297-1.9131z" fill="#5fc960" stroke-width=".39801"/>
<path d="m44.792 1068.4h9.6928c1.3382 0 2.4233-1.026 2.4233-2.2915v-9.1656c0-1.2654-1.0851-2.2915-2.4233-2.2915h-9.6928c-1.3382 0-2.4233 1.0261-2.4233 2.2915v9.1656c0 1.2655 1.0851 2.2915 2.4233 2.2915z" fill="#ffdc69" stroke-width=".47519"/>
<path d="m67.79 1068.4h9.6928c1.3382 0 2.4233-1.026 2.4233-2.2915v-9.1656c0-1.2654-1.0851-2.2915-2.4233-2.2915h-9.6928c-1.3382 0-2.4233 1.0261-2.4233 2.2915v9.1656c0 1.2655 1.0848 2.2915 2.4233 2.2915zm0-6.8743c0-1.2654 1.0851-2.2915 2.4233-2.2915h4.8464c1.3382 0 2.4233 1.0261 2.4233 2.2915 0 1.2655-1.0851 2.2916-2.4233 2.2916h-4.8464c-1.3385 0-2.4233-1.0261-2.4233-2.2916z" fill="#4abf40" stroke-width=".47519"/>
<path d="m21.795 1068.4h9.6928c1.3382 0 2.4233-1.026 2.4233-2.2915v-9.1656c0-1.2654-1.0851-2.2915-2.4233-2.2915h-9.6928c-1.3382 0-2.4233 1.0261-2.4233 2.2915v9.1656c2.72e-4 1.2655 1.0851 2.2915 2.4233 2.2915zm0-6.8743c0-1.2654 1.0851-2.2915 2.4233-2.2915h4.8464c1.3382 0 2.4233 1.0261 2.4233 2.2915 0 1.2655-1.0851 2.2916-2.4233 2.2916h-4.8464c-1.3382 0-2.4233-1.0261-2.4233-2.2916z" fill="#468cbe" stroke-width=".47519"/>
<path d="m44.792 1050h9.6928c1.3382 0 2.4233-1.0262 2.4233-2.2916v-9.1656c0-1.2654-1.0851-2.2915-2.4233-2.2915h-9.6928c-1.3382 0-2.4233 1.0261-2.4233 2.2915v9.1656c0 1.2657 1.0851 2.2916 2.4233 2.2916zm0-6.8744c0-1.2654 1.0851-2.2915 2.4233-2.2915h4.8464c1.3382 0 2.4233 1.0261 2.4233 2.2915s-1.0851 2.2916-2.4233 2.2916h-4.8464c-1.3385 0-2.4233-1.0259-2.4233-2.2916z" fill="#cdb0c9" stroke-width=".47519"/>
<path d="m67.79 1050h9.6928c1.3382 0 2.4233-1.0262 2.4233-2.2916v-9.1656c0-1.2654-1.0851-2.2915-2.4233-2.2915h-9.6928c-1.3382 0-2.4233 1.0261-2.4233 2.2915v9.1656c0 1.2657 1.0848 2.2916 2.4233 2.2916z" fill="#0ff" stroke-width=".47519"/>
<path d="m21.795 1050h9.6928c1.3382 0 2.4233-1.0262 2.4233-2.2916v-9.1656c0-1.2654-1.0851-2.2915-2.4233-2.2915h-9.6928c-1.3382 0-2.4233 1.0261-2.4233 2.2915v9.1656c2.72e-4 1.2657 1.0851 2.2916 2.4233 2.2916zm4.8464-11.457c2.6767 0 4.8464 2.0517 4.8464 4.5828 0 2.5309-2.1697 4.5828-4.8464 4.5828-2.6767 0-4.8464-2.0519-4.8464-4.5828 0-2.5311 2.1697-4.5828 4.8464-4.5828z" fill="#d7788b" stroke-width=".47519"/>
<ellipse cx="26.641" cy="1043.2" rx="4.8464" ry="4.5828" fill="#ffdc69" stroke-width=".47519"/>
<ellipse cx="49.639" cy="1093.1" rx="4.0592" ry="3.8261" fill="#ffdc69" stroke-width=".39801"/>
<path d="m47.215 1045.5h4.8464c1.3382 0 2.4233-1.0262 2.4233-2.2916s-1.0851-2.2915-2.4233-2.2915h-4.8464c-1.3382 0-2.4233 1.0261-2.4233 2.2915 2.7e-4 1.2657 1.0851 2.2916 2.4233 2.2916z" fill="#468cbe" stroke-width=".47519"/>
<path d="m70.213 1063.8h4.8464c1.3382 0 2.4233-1.0261 2.4233-2.2916 0-1.2654-1.0851-2.2915-2.4233-2.2915h-4.8464c-1.3382 0-2.4233 1.0261-2.4233 2.2915 2.76e-4 1.2655 1.0851 2.2916 2.4233 2.2916z" fill="#ff6469" stroke-width=".47519"/>
<path d="m24.218 1063.8h4.8464c1.3382 0 2.4233-1.0261 2.4233-2.2916 0-1.2654-1.0851-2.2915-2.4233-2.2915h-4.8464c-1.3382 0-2.4233 1.0261-2.4233 2.2915 0 1.2655 1.0851 2.2916 2.4233 2.2916z" fill="#fff" stroke-width=".47519"/>
<ellipse cx="39.665" cy="1079.9" rx="2.4233" ry="2.4917" fill="#1da0f2" stroke-width=".47519"/>
<ellipse cx="49.358" cy="1079.9" rx="2.4233" ry="2.4917" fill="#fff" stroke-width=".47519"/>
<ellipse cx="59.051" cy="1079.9" rx="2.4233" ry="2.4917" fill="#fff" stroke-width=".47519"/>
<path transform="matrix(.90287 0 0 1.0004 7.7727 -.42412)" d="m77.228 1042.2-2.7923 2.4503 0.43551 3.6894-3.1933-1.8984-3.3742 1.5542 0.81877-3.6236-2.5209-2.7288 3.6993-0.3411 1.8162-3.2407 1.4675 3.4128z" fill="#fff" stroke-width=".5"/>
</g>
</g>
</g>
</g>
</g>
</svg>
