<?xml version="1.0" encoding="UTF-8"?>
<svg version="1.1" viewBox="0 0 32 32" xmlns="http://www.w3.org/2000/svg" xmlns:cc="http://creativecommons.org/ns#" xmlns:dc="http://purl.org/dc/elements/1.1/" xmlns:rdf="http://www.w3.org/1999/02/22-rdf-syntax-ns#" xmlns:xlink="http://www.w3.org/1999/xlink">
<defs>
<linearGradient id="linearGradient4071" x1="6" x2="90" y1="47" y2="47" gradientTransform="matrix(1.1071 0 0 1.1071 -4.9939 -3.6207)" gradientUnits="userSpaceOnUse">
<stop stop-color="#adbbc1" offset="0"/>
<stop stop-color="#fff" offset=".25"/>
<stop stop-color="#90a2aa" offset=".5"/>
<stop stop-color="#f9fafb" offset=".75"/>
<stop stop-color="#adbcc1" offset="1"/>
</linearGradient>
<linearGradient id="linearGradient4129" x1="1.5" x2="94.5" y1="88.172" y2="88.172" gradientTransform="translate(.14895 .41503)" gradientUnits="userSpaceOnUse">
<stop offset="0"/>
<stop stop-opacity=".58824" offset=".1"/>
<stop stop-opacity=".58824" offset=".9"/>
<stop offset="1"/>
</linearGradient>
<radialGradient id="radialGradient7462" cx="13.948" cy="44.893" r="43.199" gradientTransform="matrix(.97513 0 0 .049191 34.048 80.582)" gradientUnits="userSpaceOnUse" xlink:href="#linearGradient3737"/>
<linearGradient id="linearGradient3737">
<stop stop-color="#fff" offset="0"/>
<stop stop-color="#fff" stop-opacity="0" offset="1"/>
</linearGradient>
<radialGradient id="radialGradient7464" cx="13.948" cy="44.893" r="43.199" gradientTransform="matrix(.88833 0 0 .049191 31.96 -90.317)" gradientUnits="userSpaceOnUse" xlink:href="#linearGradient3737"/>
<linearGradient id="linearGradient4767" x1="2.7714" x2="50.528" y1="-28.642" y2="14.514" gradientUnits="userSpaceOnUse" xlink:href="#linearGradient3737"/>
<clipPath id="clipPath4156-4-1">
<path d="m27.046-55.695-14.214 13.321h0.06127l15.653 21.771 10.231-10.546c-0.2169-1.1522-11.311-23.67-11.732-24.546zm-17.399 16.313-14.888 14.062 21.229 17.515 10.385-10.577zm31.491 12.951-9.7413 9.7136 8.9448 12.458 7.7808-7.555zm-49.84 4.3788-13.754 12.982 26.283 13.846 0.06127-0.0617-0.12253-0.0617 9.8332-10.053-22.301-16.652zm38.015 7.4008-9.8025 9.7753 11.579 9.5594 7.6276-7.4008-8.6691-11.009zm20.187 5.674-7.3825 7.2158 6.1878 8.5418 5.8202-6.1365zm-32.195 6.3215-9.5575 9.4977 13.662 7.185 7.9339-7.6784zm23.312 2.3744-7.1068 6.9383 8.3628 6.9074 5.3608-5.674-0.06127-0.0925-0.0919 0.12335-6.4635-8.2026zm-8.7304 8.5418-7.5051 7.3392 10.354 5.4581c1.3975-1.321 5.6751-6.1229 5.8509-6.3215z" fill="#fff" opacity=".6"/>
</clipPath>
<linearGradient id="linearGradient3664-2" x1="48.082" x2="46.655" y1="75.562" y2="16.973" gradientTransform="translate(0,1)" gradientUnits="userSpaceOnUse">
<stop stop-color="#eaecee" offset="0"/>
<stop stop-color="#eaedee" offset=".30654"/>
<stop stop-color="#f8f9fa" offset=".70706"/>
<stop stop-color="#e5e8ea" offset=".84501"/>
<stop stop-color="#ecf0f4" offset="1"/>
</linearGradient>
</defs>
<metadata>
<rdf:RDF>
<cc:Work rdf:about="">
<dc:format>image/svg+xml</dc:format>
<dc:type rdf:resource="http://purl.org/dc/dcmitype/StillImage"/>
<dc:title/>
<dc:date>2017</dc:date>
<dc:creator>
<cc:Agent>
<dc:title>Cristian Pozzessere "ilnanny"</dc:title>
</cc:Agent>
</dc:creator>
<dc:subject>
<rdf:Bag>
<rdf:li>Global language</rdf:li>
</rdf:Bag>
</dc:subject>
<dc:description>Playing with Inkscape on Gnu/Linux O. S.</dc:description>
<dc:contributor>
<cc:Agent>
<dc:title>In the night, alone like a dog.</dc:title>
</cc:Agent>
</dc:contributor>
<cc:license rdf:resource="http://creativecommons.org/licenses/by-sa/4.0/"/>
</cc:Work>
<cc:License rdf:about="http://creativecommons.org/licenses/by-sa/4.0/">
<cc:permits rdf:resource="http://creativecommons.org/ns#Reproduction"/>
<cc:permits rdf:resource="http://creativecommons.org/ns#Distribution"/>
<cc:requires rdf:resource="http://creativecommons.org/ns#Notice"/>
<cc:requires rdf:resource="http://creativecommons.org/ns#Attribution"/>
<cc:permits rdf:resource="http://creativecommons.org/ns#DerivativeWorks"/>
<cc:requires rdf:resource="http://creativecommons.org/ns#ShareAlike"/>
</cc:License>
</rdf:RDF>
</metadata>
<g transform="translate(0 -1026.5)">
<g transform="translate(-.14896 1026.1)">
<g transform="matrix(.32292 0 0 .32292 .60086 .78098)">
<path d="m89.292 0.41503h-82.286c-3.7988 0-6.8571 3.0583-6.8571 6.8571v82.286c0 3.7989 3.0583 6.8571 6.8571 6.8571h82.286c3.7989 0 6.8571-3.0583 6.8571-6.8571v-82.286c0-3.7989-3.0583-6.8571-6.8571-6.8571z" opacity=".15"/>
<path d="m88.649 1.165h-81c-3.7395 0-6.75 3.0105-6.75 6.75v81c0 3.7395 3.0105 6.75 6.75 6.75h81c3.7395 0 6.75-3.0105 6.75-6.75v-81c0-3.7395-3.0105-6.75-6.75-6.75z" opacity=".15"/>
<path d="m88.006 1.915h-79.714c-3.6801 0-6.6429 2.9627-6.6429 6.6429v79.714c0 3.6801 2.9627 6.6429 6.6429 6.6429h79.714c3.6801 0 6.6429-2.9627 6.6429-6.6429v-79.714c0-3.6801-2.9627-6.6429-6.6429-6.6429z" fill="url(#linearGradient4071)"/>
<path d="m11.39 6.8022c-2.8565 0-5.1241 2.2884-5.1241 5.171v68.58c1.0972 1.6845 2.9688 2.8117 5.1241 2.8117h73.787c2.1553 0 4.0269-1.1272 5.1241-2.8117v-68.58c0-2.8826-2.2676-5.171-5.1241-5.171z" fill="#75b2ef" opacity=".927"/>
<path d="m9.974 5.1445c-3.1166 0-5.668 2.5395-5.668 5.646v69.278c0 3.1065 2.5513 5.646 5.668 5.646h76.792c3.1166 0 5.668-2.5395 5.668-5.646v-69.278c0-3.1065-2.5513-5.646-5.668-5.646zm0 2.3194h76.792c1.8881 0 3.352 1.4801 3.352 3.3266v69.278c0 1.8465-1.4639 3.3266-3.352 3.3266h-76.792c-1.8881 0-3.352-1.4801-3.352-3.3266v-69.278c0-1.8465 1.4639-3.3266 3.352-3.3266z" color="#000000" fill="#241f1f" fill-opacity=".63265" style="text-decoration-line:none;text-indent:0;text-transform:none"/>
<path d="m1.649 82.259v6c0 3.6801 2.9761 6.6562 6.6562 6.6562h79.687c3.6801 0 6.6563-2.9761 6.6563-6.6562v-6c0 3.6801-2.9761 6.6562-6.6563 6.6562h-79.687c-3.6801 0-6.6562-2.9761-6.6562-6.6562z" fill="url(#linearGradient4129)" opacity=".65818"/>
<g transform="translate(.14896 -1.8274)">
<path transform="translate(0,1)" d="m48 13.75c-20.117 0-37.25 13.556-37.25 31.25 0 10.082 5.918 18.698 14.344 24.281-0.15691 0.52532-0.26659 1.039-0.625 1.5938-0.91988 1.4238-2.1321 2.6471-4.8438 3.4375-0.01115 0.0032-0.02005-0.0032-0.03125 0-0.01706 0.0041-0.01361-0.0051-0.03125 0-0.06018 0.01709-0.12731 0.03202-0.125 0.03125 0.0027-9.11e-4 -0.10648 0.04343-0.15625 0.0625-0.01244 0.0048-0.03191 0.03154-0.03125 0.03125l-0.125 0.03125a1.2012 1.2012 0 0 0-0.03125 0v0.03125a1.2012 1.2012 0 0 0-0.0625 0 1.2012 1.2012 0 0 0 0 0.03125 1.2012 1.2012 0 0 0-0.03125 0 1.2012 1.2012 0 0 0-0.125 0.0625 1.2012 1.2012 0 0 0-0.09375 0.03125s-0.04304 0.06225-0.09375 0.09375a1.2012 1.2012 0 0 0-0.03125 0c-0.01203 0.0075-0.0194 0.02387-0.03125 0.03125-0.0071 0.0044-0.02439-0.0043-0.03125 0 3.11e-4 -0.0016-0.02944 4.53e-4 -0.03125 0-0.01135 0.0055 0.0064 0.02802 0 0.03125-0.0064 0.0032-0.02556-0.0029-0.03125 0-0.0173 0.0078-0.0138-0.0022-0.0625 0.03125a1.2012 1.2012 0 0 0-0.0625 0.03125c-0.02259 0.01561-0.0032 0.01018-0.03125 0.03125-0.08339 0.05003-0.01856 0.02974-0.0625 0.0625 2.55e-4 -0.0016-0.02938 4.14e-4 -0.03125 0a1.2012 1.2012 0 0 0-0.0625 0.0625c-0.02131 0.01331 0.0037 0.0063-0.03125 0.03125-0.02227 0.01587-0.0025-0.0216-0.03125 0a1.2012 1.2012 0 0 0-0.0625 0.03125c-2e-4 9.87e-4 -0.0036 0.03323 0 0.03125 0.0036-2e-3 -0.035 0.0024-0.03125 0a1.2012 1.2012 0 0 0-0.21875 0.1875s-0.03924 0.06292-0.09375 0.125c-0.02725 0.03104-0.07117 0.03661-0.09375 0.0625-0.0056 0.0065 0.0051 0.02544 0 0.03125-0.0051 0.0058-0.02656-0.0054-0.03125 0-0.0011 6.63e-4 0.0026 0.02921 0 0.03125-0.0076 0.0071 0.0073 0.02449 0 0.03125a1.2012 1.2012 0 0 0-0.03125 0.03125 1.2012 1.2012 0 0 0-0.03125 0c-0.0052 0.0048 0.0042 0.02735 0 0.03125a1.2012 1.2012 0 0 0-0.03125 0c-0.0029 0.0027 0.0016 0.02973 0 0.03125-0.0018 0.0017-0.03125-5e-6 -0.03125 0a1.2012 1.2012 0 0 0-0.0625 0.0625s-0.05453 0.07039-0.09375 0.125c-0.01961 0.02731-0.01399 0.03821-0.03125 0.0625-0.0048 0.0068-0.03376 0.03711-0.03125 0.03125a1.2012 1.2012 0 0 0-0.03125 0.03125 1.2012 1.2012 0 0 0 0 0.03125c-0.01159 0.01821 0.0056-0.03024-0.03125 0.03125a1.2012 1.2012 0 0 0-0.03125 0.03125c0.0076-0.01071-0.03409 0.08806 0 0.03125-0.0066 0.01-0.02415-0.01127-0.03125 0-6e-3 0.0091 0.0056 0.02198 0 0.03125a1.2012 1.2012 0 0 0-0.0625 0.0625 1.2012 1.2012 0 0 0-0.0625 0.125c-0.0021 0.0039 1.5e-5 0.03121 0 0.03125-0.0078 0.01754-0.03697 0.06771-0.0625 0.125-0.01543 0.03462-0.01866 0.06536-0.03125 0.09375s-0.0061-0.04717-0.0625 0.09375c0.10388-0.25972 0.05856-0.16201-0.03125 0.0625-0.01017 0.0212-0.02229 0.0089-0.03125 0.03125-8e-3 0.02004 0.0069 0.01183 0 0.03125l-0.0625 0.15625a1.2012 1.2012 0 0 0-0.0625 0.3125 1.2012 1.2012 0 0 0 0 0.03125c-0.0082 0.01102-0.0625 0.06249-0.0625 0.0625-0.0055 0.02756 4e-3 0.0078 0 0.03125-0.0027 0.01126 0.0023 0.01981 0 0.03125-0.0042 0.01621-0.02797 0.01485-0.03125 0.03125-0.0042 0.02103 0.0032 0.01174 0 0.03125l-0.03125 0.15625a1.2012 1.2012 0 0 0 0 0.03125c-0.0055 0.02741 4e-3 0.0079 0 0.03125-0.0027 0.01126 0.0023 0.01981 0 0.03125-0.0046 0.02317 0.0033 0.01139 0 0.03125-0.0014 0.0065-0.02995-0.0065-0.03125 0-0.02535 0.12674-1e-3 0.11406 0 0.1875a1.2012 1.2012 0 0 0-0.03125 0.3125v0.1875a1.2012 1.2012 0 0 0 0 0.09375 1.2012 1.2012 0 0 0 0 0.03125v0.03125a1.2012 1.2012 0 0 0 0 0.09375 1.2012 1.2012 0 0 0 0 0.0625s-0.0077 0.06251 0 0.125c0.0038 0.03125 0.02777 0.03514 0.03125 0.0625 0.0035 0.02736-0.04918-0.08964 0 0.15625 0.0033 0.01647 0.02708 0.01498 0.03125 0.03125 0.0025 0.0098-0.0028 0.02148 0 0.03125 4e-3 0.02339-0.0055 0.0038 0 0.03125a1.2012 1.2012 0 0 0 0 0.03125l0.03125 0.15625a1.2012 1.2012 0 0 0 0.125 0.28125 1.2012 1.2012 0 0 0 0 0.03125c-7.1e-4 0.01656-2e-6 0.09374 0 0.09375 9e-3 0.02249 0.02105 0.01 0.03125 0.03125 0.0102 0.02126 0.02005 0.01121 0.03125 0.03125-5.37e-4 -0.0043 0.0414 0.13478 0 0.03125a1.2012 1.2012 0 0 0 0 0.03125l0.0625 0.15625a1.2012 1.2012 0 0 0 0 0.03125c9e-3 0.02239 0.02108 0.01006 0.03125 0.03125s0.02007 0.01127 0.03125 0.03125c0.0044 9e-3 -0.0048 0.02234 0 0.03125a1.2012 1.2012 0 0 0 0 0.03125 1.2012 1.2012 0 0 0 0.03125 0.03125 1.2012 1.2012 0 0 0 0 0.03125 1.2012 1.2012 0 0 0 0.03125 0.03125 1.2012 1.2012 0 0 0 0.0625 0.125 1.2012 1.2012 0 0 0 0 0.03125 1.2012 1.2012 0 0 0 0.03125 0.09375l0.09375 0.15625c-0.0021-0.0035 0.12745 0.19079 0.125 0.1875l0.09375 0.125a1.2012 1.2012 0 0 0 0.25 0.25 1.2012 1.2012 0 0 0 0.0625 0.03125c0.03396 0.03875-0.01591 0.01534 0.03125 0.0625a1.2012 1.2012 0 0 0 0.09375 0.09375s0.02413 0.03173 0.0625 0.0625c0.0061 0.0049 0.02927-0.0018 0.03125 0l0.03125 0.03125c0.0017 0.0018 0.01733 0.02046 0.03125 0.03125a1.2012 1.2012 0 0 0 0.03125 0.03125c4.4e-5 3.7e-5 0.02773-0.0024 0.03125 0 0.0022 0.0015-0.0033 0.02902 0 0.03125a1.2012 1.2012 0 0 0 0.09375 0.09375h0.03125a1.2012 1.2012 0 0 0 0.09375 0.09375c-0.26162-0.19618-0.1894-0.13422 0.03125 0.03125 0.04616 0.03462 0.03062 0.0106 0.0625 0.03125a1.2012 1.2012 0 0 0 0.21875 0.15625s0.08702 0.03165 0.15625 0.0625c0.03462 0.01543 0.06536 0.01866 0.09375 0.03125s-0.04735 0.0061 0.09375 0.0625c-0.26005-0.10401-0.16189-0.05853 0.0625 0.03125 0.02117 0.01016 0.0089 0.0223 0.03125 0.03125 0.02002 8e-3 0.01185-0.0069 0.03125 0l0.3125 0.125a1.2012 1.2012 0 0 0 0.3125 0.0625c0.0039 0.0028 0.02816-0.0023 0.03125 0 0.01094 8e-3 0.06249 0.0625 0.0625 0.0625 0.02753 0.0055 0.0078-4e-3 0.03125 0 0.0097 0.0028 0.02143-0.0025 0.03125 0 0.01622 0.0042 0.01484 0.02797 0.03125 0.03125 0.02105 0.0042 0.01174-0.0032 0.03125 0l0.15625 0.03125a1.2012 1.2012 0 0 0 0.1875 0c-0.0023-1.31e-4 0.12728 0 0.125 0-0.0017 0 0.05646 0.0011 0.09375 0 0.01122 0.0012 0.02004-0.0011 0.03125 0-2.2e-5 8.21e-4 1.8e-5 0.03125 0 0.03125 0.0087-2e-6 0.01947 0 0.03125 0s0.05383-2e-6 0.0625 0v-0.03125c9.7538 0.95831 16.717-3.1403 20.906-6.9375 2.0913 0.33473 4.2359 0.59375 6.5312 0.59375 20.117 0 37.25-13.556 37.25-31.25s-17.133-31.25-37.25-31.25zm-27.562 68.5a1.2012 1.2012 0 0 0 0.03125 0v0.15625z" opacity=".05"/>
<path transform="translate(0,1)" d="m48 14.938c-19.579 0-36.062 13.148-36.062 30.062 0 9.945 5.9764 18.491 14.594 23.875-0.21998 0.83356-0.43648 1.6873-1.0625 2.6562-1.0314 1.5963-2.548 3.0757-5.5312 3.9375-0.01077 0.0031-0.02044-0.0031-0.03125 0a1.0828 1.0828 0 0 0-0.1875 0.0625l-0.15625 0.0625 0.40625 1c-0.21083-0.49864-0.43017-1.0029-0.4375-1-0.01466 0.0059-0.01172 0.02344-0.03125 0.03125-0.01953 0.0078-0.0479 0.02541-0.0625 0.03125-0.0146 0.0058-0.03125 0-0.03125 0s-0.23834 0.1475-0.25 0.15625c-0.01166 0.0087-0.04687 0.01953-0.0625 0.03125 0.01466-0.0088-0.0625 0.03125-0.0625 0.03125-0.01125 0.0067-0.02248 0.02599-0.03125 0.03125-0.01461 0.0088-0.03125 0-0.03125 0s-0.08203 0.08496-0.09375 0.09375c-0.01172 0.0088-0.04687 0.01953-0.0625 0.03125s-0.01957 0.02249-0.03125 0.03125c-0.01168 0.0088-0.03125 0-0.03125 0s-0.21001 0.23835-0.21875 0.25c-0.0087 0.01165-0.01953 0.01562-0.03125 0.03125-6e-3 6e-3 0.0063 0.025 0 0.03125-0.0023 3e-3 -0.02911-0.0028-0.03125 0-0.01328 0.01555-0.03125 0.03125-0.03125 0.03125l-0.03125 0.03125s-0.14748 0.20414-0.15625 0.21875c-0.0088 0.01461-0.01953 0.04296-0.03125 0.0625s-0.02245 0.01659-0.03125 0.03125-0.03125 0.03125-0.03125 0.03125c-0.0043 0.0057 0.0035 0.02658 0 0.03125-0.0087 0.01166-0.03125 0-0.03125 0s-0.11916 0.26665-0.125 0.28125c-0.0058 0.0146-0.02343 0.04296-0.03125 0.0625-0.0078 0.01954-0.02538 0.01659-0.03125 0.03125-0.0059 0.01466 0 0.03125 0 0.03125l-0.0625 0.15625 1 0.40625 1.0312 0.34375s-2.0908-0.54584-2.0938-0.53125c-0.0029 0.01459 0.0039 0.04297 0 0.0625s-0.02832 0.01659-0.03125 0.03125c-0.0029 0.01466 0 0.03125 0 0.03125l-0.03125 0.15625 0.71875 0.15625c-0.32438-0.05392-0.71776-0.12997-0.71875-0.125-0.0029 0.01467 0.0039 0.04296 0 0.0625s-0.02833 0.01666-0.03125 0.03125c-0.0029 0.01459 0 0.03125 0 0.03125l1.0625 0.21875h-1.0938v0.1875h1.0938c-0.5413 0.0092-1.0938 0.02392-1.0938 0.03125 1e-6 0.01466-1e-6 0.04296 0 0.0625s0 0.01665 0 0.03125v0.03125s0.02833 0.23539 0.03125 0.25c0.0029 0.01461 0.02734 0.01171 0.03125 0.03125 0.0039 0.01954-0.0029 0.04785 0 0.0625s0 0.03125 0 0.03125l0.03125 0.15625 1.0625-0.21875 1.0312-0.28125s-2.0371 0.70415-2.0312 0.71875c0.0058 0.0146 0.02344 0.01171 0.03125 0.03125 0.0078 0.01954 0.02539 0.04784 0.03125 0.0625 0.0059 0.01466 0 0.03125 0 0.03125l0.0625 0.15625 0.8125-0.34375c-0.39954 0.17642-0.81494 0.36891-0.8125 0.375 0.0059 0.01467 0.02343 0.01172 0.03125 0.03125 0.0078 0.01953 0.02541 0.04791 0.03125 0.0625 0.0058 0.01459 0 0.03125 0 0.03125l1-0.40625-0.9375 0.5625 0.09375 0.15625a1.0828 1.0828 0 0 0 0.0625 0.09375l0.09375 0.125 0.875-0.65625 0.84375-0.6875s-1.6054 1.4571-1.5938 1.4688c0.01169 0.01169 0.04687 0.01562 0.0625 0.03125s0.01953 0.05078 0.03125 0.0625c0 0 0.14459 0.11625 0.15625 0.125 0.01166 0.0087 0.01562 0.01953 0.03125 0.03125 0.0073 0.0073 0.02343 0.02344 0.03125 0.03125 0.0078 0.0066 0.02631-0.0042 0.03125 0 0.0073 0.0073-0.0058 0.02541 0 0.03125 0.01168 0.01167 0.03125 0.03125 0.03125 0.03125s0.11328 0.08496 0.125 0.09375c0.01172 0.0088 0.01562 0.01953 0.03125 0.03125s0.05082 0.02249 0.0625 0.03125c0.01168 0.0088 0 0.03125 0 0.03125s0.26667 0.11917 0.28125 0.125c0.01458 0.0058 0.04297 0.02343 0.0625 0.03125 0.01953 0.0078 0.01657 0.02538 0.03125 0.03125 0.01468 0.0059 0.03125 0 0.03125 0l0.3125 0.125 0.40625-1 0.3125-1.0312s-0.5146 2.0908-0.5 2.0938c0.0146 0.0029 0.04297-0.0039 0.0625 0s0.0166 0.02832 0.03125 0.03125c0.01465 0.0029 0.03125 0 0.03125 0l0.15625 0.03125a1.0828 1.0828 0 0 0 0.125 0 1.0828 1.0828 0 0 0 0.0625 0.03125c-1e-3 -1.6e-5 0.09477-1.6e-5 0.09375 0v-0.03125c9.7462 1.0017 16.58-3.2481 20.562-7 2.2149 0.36956 4.4887 0.65625 6.875 0.65625 19.579 0 36.062-13.148 36.062-30.062s-16.483-30.062-36.062-30.062zm2.7812 15.125c0.60149 1.8e-5 0.59144-0.0134 1 0.375 0.01551 0.01474 0.01445 0.01533 0.03125 0.03125a1.0828 1.0828 0 0 0 0.03125 0.03125c0.46322 0.43652 0.34374 0.17128 0.34375 0.71875-8e-6 0.55757 0.08353 0.36378-0.3125 0.71875-0.01407 0.01289-0.018 0.01916-0.03125 0.03125-0.37162 0.3389-0.46074 0.37501-1.0625 0.375-0.6068 1.3e-5 -0.713-0.03482-1.0938-0.375-0.02392-0.02227-0.01031-0.01248-0.03125-0.03125-0.39602-0.35496-0.3125-0.16122-0.3125-0.71875-4e-6 -0.58696-0.13266-0.30643 0.34375-0.75 0.43891-0.40862 0.47447-0.40623 1.0938-0.40625zm-3.4688 12.375c0.51469 0.09218 1.1358 0.14161 1.3438 0.3125-0.0015-0.0015 0.09538 0.09517 0.09375 0.09375 0.25852 0.22671 0.33586 0.31659 0.375 0.40625 0.03914 0.08966 0.06249 0.2701 0.0625 0.6875-1.5e-5 0.22326 0.03249 0.60673-0.03125 1.2188a1.0828 1.0828 0 0 0-0.03125 0.03125c-0.04207 0.50473-0.12211 0.97992-0.25 1.4062a1.0828 1.0828 0 0 0 0 0.03125l-1.875 6.625v0.03125c-0.17716 0.62233-0.36212 1.3181-0.5 2.0938-0.13701 0.77058-0.25002 1.4556-0.25 2.125-9e-6 0.71305 0.15869 1.5417 0.46875 2.3438-0.70023-0.09323-1.1727-0.2395-1.4375-0.46875-0.522-0.47649-0.46875-0.37179-0.46875-1.0938-3e-6 -0.35477 0.0018-0.78178 0.0625-1.2188 0.06073-0.44938 0.19785-1.0149 0.34375-1.625a1.0828 1.0828 0 0 0 0.03125-0.3125l1.6562-5.9375a1.0828 1.0828 0 0 0 0.03125-0.03125 1.0828 1.0828 0 0 0 0.09375-0.28125 1.0828 1.0828 0 0 0 0-0.0625h0.03125a1.0828 1.0828 0 0 0 0-0.03125c0.01001-0.03975 0.02612-0.07392 0.03125-0.09375a1.0828 1.0828 0 0 0 0-0.0625c0.14901-0.57668 0.29577-1.1715 0.40625-1.75 0.08351-0.43734 0.07905-0.44903 0-0.03125 0.14704-0.71723 0.24999-1.4237 0.25-2.125-4e-6 -0.69492-0.15336-1.4964-0.4375-2.2812z" opacity=".05"/>
<path transform="translate(0,1)" d="m48 16.031c-19.097 0-34.969 12.762-34.969 28.969 0 9.8126 6.0152 18.31 14.812 23.5-0.22779 1.0474-0.61321 2.3008-1.4688 3.625-1.149 1.7784-2.9471 3.4814-6.2188 4.4062a0.98626 0.98626 0 0 0-0.03125 0c1.04e-4 -3.5e-5 -0.15635 0.06254-0.15625 0.0625 1.01e-4 -4.3e-5 -0.15635 0.06255-0.15625 0.0625 9.7e-5 -5.2e-5 -0.12509 0.09381-0.125 0.09375s-0.15634 0.09382-0.15625 0.09375c8.7e-5 -6.7e-5 -0.12508 0.09382-0.125 0.09375 8.1e-5 -7.4e-5 -0.09382 0.12508-0.09375 0.125 7.4e-5 -8.1e-5 -0.12507 0.12509-0.125 0.125s-0.09381 0.15634-0.09375 0.15625-0.0938 0.1251-0.09375 0.125c5.2e-5 -9.7e-5 -0.06254 0.15635-0.0625 0.15625 4.4e-5 -1.01e-4 -0.06254 0.15635-0.0625 0.15625 3.5e-5 -1.04e-4 -0.03128 0.15636-0.03125 0.15625 2.6e-5 -1.07e-4 -0.03127 0.15636-0.03125 0.15625 1.7e-5 -1.09e-4 -0.03126 0.15636-0.03125 0.15625 8e-6 -1.1e-4 2e-6 0.18761 0 0.1875s1.1e-5 0.15636 0 0.15625 0.03127 0.15636 0.03125 0.15625 0.03128 0.15636 0.03125 0.15625c-2.9e-5 -1.06e-4 0.06254 0.15635 0.0625 0.15625-3.8e-5 -1.03e-4 0.06255 0.15635 0.0625 0.15625-4.6e-5 -1e-4 0.06255 0.15634 0.0625 0.15625-5.5e-5 -9.5e-5 0.09381 0.15634 0.09375 0.15625-6.2e-5 -9.1e-5 0.09382 0.12508 0.09375 0.125s0.12508 0.12508 0.125 0.125 0.12508 0.09382 0.125 0.09375c-8.3e-5 -7.2e-5 0.12509 0.12506 0.125 0.125s0.12509 0.09381 0.125 0.09375c-9.4e-5 -5.7e-5 0.15635 0.06255 0.15625 0.0625-9.8e-5 -4.9e-5 0.15635 0.06254 0.15625 0.0625-1.02e-4 -4.1e-5 0.15636 0.06253 0.15625 0.0625-1.05e-4 -3.2e-5 0.15636 0.03127 0.15625 0.03125-1.08e-4 -2.3e-5 0.15636 0.03126 0.15625 0.03125a0.98626 0.98626 0 0 0 0.03125 0c9.7546 1.0601 16.452-3.3592 20.25-7.0625 2.3307 0.41039 4.728 0.6875 7.2188 0.6875 19.097 0 34.969-12.762 34.969-28.969s-15.872-28.969-34.969-28.969zm2.7812 12.938c0.79039 2.3e-5 1.2145 0.18189 1.7812 0.71875a0.98626 0.98626 0 0 0 0.03125 0 0.98626 0.98626 0 0 0 0 0.03125c0.54254 0.51126 0.68749 0.80252 0.6875 1.5-1e-5 0.7096-0.1205 1.0034-0.6875 1.5312-0.53838 0.49346-1.0139 0.68752-1.8125 0.6875-0.80026 1.7e-5 -1.2926-0.19118-1.8438-0.6875-0.56701-0.52788-0.6875-0.82167-0.6875-1.5312-5e-6 -0.7095 0.12045-1.0033 0.6875-1.5312 0.5686-0.52937 1.0519-0.71873 1.8438-0.71875zm-4.1875 12.188c1.4004 1.8e-5 2.2091 0.30555 2.75 0.75a0.98626 0.98626 0 0 0 0.03125 0.03125 0.98626 0.98626 0 0 0 0.09375 0.09375c0.625 0.5481 0.81249 0.93249 0.8125 1.9062-1.3e-5 0.19526 0.0075 0.67138-0.0625 1.3438-0.04926 0.59111-0.16629 1.1376-0.3125 1.625l-1.875 6.6562c-0.173 0.60545-0.33681 1.2578-0.46875 2-0.13266 0.7461-0.21877 1.3796-0.21875 1.9375-1.5e-5 1.1526 0.24507 2.4816 1.3125 3.3438-0.38105 0.05711-0.65868 0.1875-1.125 0.1875-1.5163 0-2.3846-0.33804-2.9688-0.84375-0.63406-0.57878-0.84375-1.0145-0.84375-1.9062-3e-6 -0.39967 0.02486-0.87902 0.09375-1.375 0.06933-0.51304 0.19431-1.0938 0.34375-1.7188h-0.03125l1.8438-6.5625a0.98626 0.98626 0 0 0 0-0.03125h0.03125a0.98626 0.98626 0 0 0 0-0.0625c0.0114-0.04369 0.02002-0.08155 0.03125-0.125 0.15396-0.59571 0.30098-1.1675 0.40625-1.7188 0.0018-0.0095-0.0018-0.02175 0-0.03125 0.13951-0.67296 0.21874-1.3184 0.21875-1.9375-7e-6 -1.1021-0.19818-2.3322-1.125-3.2188-0.06479-0.06197-0.15111-0.06987-0.21875-0.125 0.42556-0.0802 0.91404-0.21874 1.2812-0.21875z" opacity=".12"/>
<path transform="translate(0,1)" d="m48 17.031c-18.66 0-33.969 12.408-33.969 27.969 0 9.6667 5.998 18.089 14.938 23.094-0.21052 1.1926-0.65132 2.862-1.75 4.5625-1.2551 1.9426-3.2901 3.8256-6.7812 4.8125a0.98224 0.98224 0 0 0 0.1875 1.9062c9.6905 1.0532 16.246-3.4959 19.844-7.125 2.4289 0.45447 4.9344 0.71875 7.5312 0.71875 18.66 0 33.969-12.408 33.969-27.969s-15.309-27.969-33.969-27.969zm2.7812 10.938c1.0077 2.9e-5 1.7648 0.33312 2.4688 1a0.98224 0.98224 0 0 0 0.03125 0c0.71283 0.66371 0.99999 1.3343 1 2.25-1.3e-5 0.91577-0.28719 1.5864-1 2.25-0.70031 0.65118-1.4838 0.96877-2.5 0.96875-1.0162 2.1e-5 -1.8162-0.31528-2.5312-0.96875-0.71282-0.66364-1-1.3342-1-2.25-6e-6 -0.91568 0.28715-1.5863 1-2.25 0.71868-0.66909 1.5235-0.99997 2.5312-1zm-4.1875 12.188c1.6473 2.1e-5 2.7767 0.40993 3.5312 1.0938a0.98224 0.98224 0 0 0 0 0.03125c0.7892 0.69209 1.1562 1.4777 1.1562 2.6562-1.7e-5 0.24994-0.02084 0.73745-0.09375 1.4375-0.05533 0.66388-0.17974 1.2658-0.34375 1.8125l-1.875 6.6562c-0.16412 0.57438-0.31132 1.1964-0.4375 1.9062-0.12646 0.71122-0.18752 1.277-0.1875 1.75-1.3e-5 1.0302 0.19184 1.9603 0.9375 2.5625 0.71475 0.57733 1.6124 0.6875 2.6875 0.6875 0.32408 0 0.70232-0.09895 1.0625-0.15625-1.0209 0.39027-2.0234 0.77489-2.6875 1a0.98224 0.98224 0 0 0-0.03125 0c-0.76479 0.27221-1.6746 0.4375-2.7812 0.4375-1.6751 0-2.8288-0.40446-3.625-1.0938-0.80405-0.72686-1.1875-1.5302-1.1875-2.6562-3e-6 -0.47341 0.05309-0.98231 0.125-1.5 0.07417-0.54882 0.18711-1.1575 0.34375-1.8125l1.8438-6.5938a0.98224 0.98224 0 0 0 0-0.03125c0.17427-0.66541 0.32733-1.2927 0.4375-1.875 0.13127-0.62353 0.18749-1.1867 0.1875-1.75-6e-6 -0.99202-0.16613-1.8817-0.8125-2.5-0.65672-0.62812-1.5675-0.78123-2.6875-0.78125-0.33666 1.4e-5 -0.64828 0.09628-0.96875 0.15625 0.85579-0.32529 1.7067-0.65967 2.5-0.90625a0.98224 0.98224 0 0 0 0.03125 0c1.0551-0.34218 1.9974-0.53123 2.875-0.53125z" opacity=".24"/>
<path d="m48 18c-18.225 0-33 12.088-33 27 0 9.4984 5.9998 17.843 15.062 22.656-0.34462 2.5088-1.914 8.6498-9.3438 10.75 9.6229 1.0458 16.014-3.6463 19.406-7.1875 2.5235 0.5055 5.1611 0.78125 7.875 0.78125 18.225 0 33-12.088 33-27s-14.775-27-33-27zm2.7812 9c1.2343 3.5e-5 2.2877 0.42718 3.1562 1.25 0.88379 0.82289 1.3125 1.8107 1.3125 2.9688-1.6e-5 1.1581-0.42871 2.1459-1.3125 2.9688-0.86859 0.80765-1.922 1.2188-3.1562 1.2188-1.2343 2.6e-5 -2.3037-0.4111-3.1875-1.2188-0.88382-0.82283-1.3125-1.8106-1.3125-2.9688-8e-6 -1.1581 0.42868-2.1459 1.3125-2.9688 0.8838-0.82282 1.9532-1.25 3.1875-1.25zm-4.1875 12.188c1.8133 2.3e-5 3.2122 0.45996 4.1875 1.3438 0.99046 0.86859 1.4687 2.0044 1.4688 3.4062-2e-5 0.28954-0.01757 0.79984-0.09375 1.5312-0.06096 0.73144-0.19216 1.3905-0.375 2l-1.875 6.6562c-0.15239 0.53334-0.28436 1.1268-0.40625 1.8125-0.12192 0.68572-0.18751 1.212-0.1875 1.5625-1.1e-5 0.88382 0.19755 1.4925 0.59375 1.8125 0.39618 0.32 1.0872 0.46875 2.0625 0.46875 0.45713 0 0.98344-0.06635 1.5625-0.21875 0.57903-0.16762 0.99094-0.31558 1.25-0.4375l-0.5 2.0625c-1.5086 0.59428-2.726 1.039-3.625 1.3438-0.89906 0.32-1.9364 0.46875-3.125 0.46875-1.8286 0-3.2603-0.42869-4.2812-1.3125-1.0057-0.89904-1.5-2.0348-1.5-3.4062-3e-6 -0.53333 0.0488-1.0764 0.125-1.625 0.07619-0.5638 0.17613-1.2053 0.34375-1.9062l1.875-6.6562c0.16761-0.63998 0.29958-1.2487 0.40625-1.8125 0.1219-0.57903 0.1875-1.0901 0.1875-1.5625-5e-6 -0.85332-0.18078-1.446-0.53125-1.7812-0.35048-0.33522-1.0095-0.53123-2-0.53125-0.48762 2e-5 -0.98191 0.09765-1.5 0.25-0.50286 0.1524-0.94679 0.30038-1.3125 0.4375l0.5-2.0625c1.2343-0.50284 2.4349-0.93075 3.5625-1.2812 1.1276-0.36569 2.1818-0.56248 3.1875-0.5625z" fill="url(#linearGradient3664-2)" opacity=".96727"/>
<path d="m48 18c-18.225 0-33 12.088-33 27 0 0.20841 0.0255 0.41773 0.03125 0.625 0.88384-14.266 15.313-25.625 32.969-25.625 17.811 0 32.318 11.557 32.969 26 0.015136-0.33594 0.03125-0.66103 0.03125-1 0-14.912-14.775-27-33-27zm-1.5938 14.219c-0.07734 0.31592-0.125 0.65378-0.125 1-8e-6 1.1581 0.42868 2.1459 1.3125 2.9688 0.8838 0.80765 1.9532 1.2188 3.1875 1.2188 1.2343 2.6e-5 2.2877-0.4111 3.1562-1.2188 0.88379-0.82283 1.3125-1.8106 1.3125-2.9688-5e-6 -0.34622-0.04766-0.68408-0.125-1-0.18135 0.74083-0.56793 1.3919-1.1875 1.9688-0.86859 0.80765-1.922 1.2188-3.1562 1.2188-1.2343 2.6e-5 -2.3037-0.4111-3.1875-1.2188-0.61959-0.57683-1.0062-1.2279-1.1875-1.9688zm-4.25 10.188c-0.31552 1.3e-5 -0.64301 0.05487-0.96875 0.125-0.44524 0.16533-0.88731 0.31405-1.3438 0.5l-0.5 2.0625c0.36571-0.13712 0.80964-0.2851 1.3125-0.4375 0.51809-0.15235 1.0124-0.24998 1.5-0.25 0.99047 2e-5 1.6495 0.19603 2 0.53125 0.19739 0.18882 0.34975 0.4598 0.4375 0.8125 0.05642-0.36125 0.09375-0.71382 0.09375-1.0312-5e-6 -0.85332-0.18078-1.446-0.53125-1.7812-0.35048-0.33522-1.0095-0.53123-2-0.53125zm10.031 2.75c-0.01103 0.13112-0.01567 0.16288-0.03125 0.3125-0.06096 0.73144-0.19216 1.3905-0.375 2l-1.875 6.6562c-0.15239 0.53334-0.28436 1.1268-0.40625 1.8125-0.12192 0.68572-0.18751 1.212-0.1875 1.5625-5e-6 0.37367 0.05429 0.69446 0.125 0.96875 0.02578-0.17278 0.02686-0.33082 0.0625-0.53125 0.12189-0.68571 0.25386-1.2792 0.40625-1.8125l1.875-6.6562c0.18284-0.60951 0.31404-1.2686 0.375-2 0.07618-0.73141 0.09373-1.2417 0.09375-1.5312-3e-6 -0.27346-0.02585-0.52805-0.0625-0.78125zm-10.375 13.906c-0.04575 0.40857-0.0625 0.81934-0.0625 1.2188-3e-6 1.3714 0.49428 2.5072 1.5 3.4062 1.0209 0.88381 2.4527 1.3125 4.2812 1.3125 1.1886 0 2.2259-0.14874 3.125-0.46875 0.89903-0.30476 2.1164-0.74947 3.625-1.3438l0.5-2.0625c-0.25906 0.12192-0.67097 0.26988-1.25 0.4375-0.18875 0.04968-0.35428 0.06168-0.53125 0.09375-0.84103 0.31703-1.762 0.67779-2.3438 0.875-0.89906 0.32-1.9364 0.46875-3.125 0.46875-1.8286 0-3.2603-0.42869-4.2812-1.3125-0.80328-0.71808-1.278-1.6054-1.4375-2.625zm-12.125 10.375c-0.78888 2.9258-2.9421 7.2652-8.9688 8.9688 1.4386 0.15635 2.7988 0.17086 4.0938 0.09375 3.9509-2.7354 4.9814-6.8885 5.25-8.8438-0.1292-0.06861-0.24706-0.14871-0.375-0.21875z" fill="#fff"/>
</g>
<rect x="5.524" y="80.665" width="84.25" height="4.25" rx="0" ry="4.25" fill="url(#radialGradient7462)" opacity=".55"/>
<rect transform="rotate(90)" x="5.975" y="-90.234" width="76.75" height="4.25" rx="0" ry="4.25" fill="url(#radialGradient7464)" opacity=".669"/>
<rect transform="matrix(1.0692 0 0 1.0477 4.4442 38.894)" x="2" y="-30" width="75.966" height="69.024" rx="3.957" ry="3.957" clip-path="url(#clipPath4156-4-1)" fill="url(#linearGradient4767)" opacity=".50781"/>
</g>
</g>
</g>
</svg>
