<?xml version="1.0" encoding="UTF-8"?>
<!-- Created with Inkscape (http://www.inkscape.org/) -->
<svg version="1.1" viewBox="0 0 96 96" xmlns="http://www.w3.org/2000/svg" xmlns:cc="http://creativecommons.org/ns#" xmlns:dc="http://purl.org/dc/elements/1.1/" xmlns:rdf="http://www.w3.org/1999/02/22-rdf-syntax-ns#" xmlns:xlink="http://www.w3.org/1999/xlink">
<defs>
<linearGradient id="linearGradient4071" x1="6" x2="90" y1="47" y2="47" gradientTransform="matrix(1.1071 0 0 1.1071 -4.9939 -3.6207)" gradientUnits="userSpaceOnUse">
<stop stop-color="#b4b9ba" offset="0"/>
<stop stop-color="#fff" offset=".25"/>
<stop stop-color="#98a0a2" offset=".5"/>
<stop stop-color="#fbf9f9" offset=".75"/>
<stop stop-color="#b4b8ba" offset="1"/>
</linearGradient>
<linearGradient id="linearGradient4129" x1="1.5" x2="94.5" y1="88.172" y2="88.172" gradientTransform="translate(.14895 .41503)" gradientUnits="userSpaceOnUse">
<stop offset="0"/>
<stop stop-opacity=".58824" offset=".1"/>
<stop stop-opacity=".58824" offset=".9"/>
<stop offset="1"/>
</linearGradient>
<radialGradient id="radialGradient7462" cx="13.948" cy="44.893" r="43.199" gradientTransform="matrix(.97513 0 0 .049191 34.048 80.582)" gradientUnits="userSpaceOnUse" xlink:href="#linearGradient3737"/>
<linearGradient id="linearGradient3737">
<stop stop-color="#fff" offset="0"/>
<stop stop-color="#fff" stop-opacity="0" offset="1"/>
</linearGradient>
<radialGradient id="radialGradient7464" cx="-80.233" cy="2085.6" r="43.199" gradientTransform="matrix(.0073754 -.036877 .048235 .0096472 -139.32 -10.802)" gradientUnits="userSpaceOnUse" xlink:href="#linearGradient3737"/>
<linearGradient id="linearGradient4767" x1="2.7714" x2="50.528" y1="-28.642" y2="14.514" gradientUnits="userSpaceOnUse" xlink:href="#linearGradient3737"/>
<clipPath id="clipPath4156-4-1">
<path d="m27.046-55.695-14.214 13.321h0.06127l15.653 21.771 10.231-10.546c-0.2169-1.1522-11.311-23.67-11.732-24.546zm-17.399 16.313-14.888 14.062 21.229 17.515 10.385-10.577zm31.491 12.951-9.7413 9.7136 8.9448 12.458 7.7808-7.555zm-49.84 4.3788-13.754 12.982 26.283 13.846 0.06127-0.0617-0.12253-0.0617 9.8332-10.053-22.301-16.652zm38.015 7.4008-9.8025 9.7753 11.579 9.5594 7.6276-7.4008-8.6691-11.009zm20.187 5.674-7.3825 7.2158 6.1878 8.5418 5.8202-6.1365zm-32.195 6.3215-9.5575 9.4977 13.662 7.185 7.9339-7.6784zm23.312 2.3744-7.1068 6.9383 8.3628 6.9074 5.3608-5.674-0.06127-0.0925-0.0919 0.12335-6.4635-8.2026zm-8.7304 8.5418-7.5051 7.3392 10.354 5.4581c1.3975-1.321 5.6751-6.1229 5.8509-6.3215z" fill="#fff" opacity=".6"/>
</clipPath>
<filter id="filter4439" x="-.038564" y="-.13509" width="1.0771" height="1.2702">
<feGaussianBlur stdDeviation="1.8320184"/>
</filter>
<filter id="filter4206" x="-.34392" y="-.47349" width="1.6878" height="1.947">
<feGaussianBlur stdDeviation="1.8002319"/>
</filter>
<linearGradient id="linearGradient972" x1="130.11" x2="130.11" y1="116" y2="162.64" gradientTransform="matrix(1.0145 0 0 .25222 -57.946 -20.348)" gradientUnits="userSpaceOnUse" xlink:href="#linearGradient5236"/>
<linearGradient id="linearGradient5236">
<stop stop-color="#fd0" offset="0"/>
<stop stop-color="#fd0" stop-opacity="0" offset="1"/>
</linearGradient>
<radialGradient id="radialGradient970" cx="132" cy="136" r="4" fy="133.38" gradientTransform="matrix(2.6979 0 0 3.5 -280.15 -453.72)" gradientUnits="userSpaceOnUse" xlink:href="#linearGradient3879"/>
<linearGradient id="linearGradient3879">
<stop stop-color="#4d2600" offset="0"/>
<stop offset="1"/>
</linearGradient>
<filter id="filter4248" x="-.13745" y="-.02749" width="1.2749" height="1.055">
<feGaussianBlur stdDeviation="0.45817097"/>
</filter>
<linearGradient id="linearGradient930" x1="130.11" x2="130.11" y1="116" y2="162.64" gradientTransform="matrix(1.0145 0 0 .25222 -103.95 -20.348)" gradientUnits="userSpaceOnUse" xlink:href="#linearGradient5236"/>
<radialGradient id="radialGradient928" cx="132" cy="136" r="4" fy="133.38" gradientTransform="matrix(2.6979 0 0 3.5 -326.15 -453.72)" gradientUnits="userSpaceOnUse" xlink:href="#linearGradient3879"/>
<radialGradient id="radialGradient4455" cx="64" cy="133" r="7" fx="61.5" fy="129" gradientTransform="matrix(.82143 0 0 .82143 -167.79 -50.496)" gradientUnits="userSpaceOnUse" xlink:href="#linearGradient4445"/>
<linearGradient id="linearGradient4445">
<stop stop-color="#382509" offset="0"/>
<stop stop-color="#382509" stop-opacity="0" offset="1"/>
</linearGradient>
<radialGradient id="radialGradient4451" cx="64" cy="133" r="7" fx="61.5" fy="129" gradientTransform="matrix(.82143 0 0 .82143 -62.352 -50.496)" gradientUnits="userSpaceOnUse" xlink:href="#linearGradient4445"/>
<radialGradient id="radialGradient4428" cx="127.98" cy="215.58" r="64.807" gradientTransform="matrix(1 0 0 .32054 -75.03 28.945)" gradientUnits="userSpaceOnUse">
<stop stop-color="#590000" offset="0"/>
<stop stop-color="#191104" offset="1"/>
</radialGradient>
<radialGradient id="radialGradient4660" cx="48.284" cy="45.524" r="42.018" gradientTransform="matrix(1 0 0 .92155 0 3.5712)" gradientUnits="userSpaceOnUse">
<stop stop-color="#ffe03e" offset="0"/>
<stop stop-color="#ffc100" offset="1"/>
</radialGradient>
</defs>
<metadata>
<rdf:RDF>
<cc:Work rdf:about="">
<dc:format>image/svg+xml</dc:format>
<dc:type rdf:resource="http://purl.org/dc/dcmitype/StillImage"/>
<dc:title/>
<dc:date>2017</dc:date>
<dc:creator>
<cc:Agent>
<dc:title>Cristian Pozzessere "ilnanny"</dc:title>
</cc:Agent>
</dc:creator>
<dc:subject>
<rdf:Bag>
<rdf:li>Global language</rdf:li>
</rdf:Bag>
</dc:subject>
<dc:description>Playing with Inkscape on Gnu/Linux O. S.</dc:description>
<dc:contributor>
<cc:Agent>
<dc:title>In the night, alone like a dog.</dc:title>
</cc:Agent>
</dc:contributor>
<cc:license rdf:resource="http://creativecommons.org/licenses/by-sa/4.0/"/>
</cc:Work>
<cc:License rdf:about="http://creativecommons.org/licenses/by-sa/4.0/">
<cc:permits rdf:resource="http://creativecommons.org/ns#Reproduction"/>
<cc:permits rdf:resource="http://creativecommons.org/ns#Distribution"/>
<cc:requires rdf:resource="http://creativecommons.org/ns#Notice"/>
<cc:requires rdf:resource="http://creativecommons.org/ns#Attribution"/>
<cc:permits rdf:resource="http://creativecommons.org/ns#DerivativeWorks"/>
<cc:requires rdf:resource="http://creativecommons.org/ns#ShareAlike"/>
</cc:License>
</rdf:RDF>
</metadata>
<g transform="translate(0 -1026.5)">
<g transform="translate(-.14896 1026.1)">
<path d="m89.292 0.41503h-82.286c-3.7988 0-6.8571 3.0583-6.8571 6.8571v82.286c0 3.7989 3.0583 6.8571 6.8571 6.8571h82.286c3.7989 0 6.8571-3.0583 6.8571-6.8571v-82.286c0-3.7989-3.0583-6.8571-6.8571-6.8571z" opacity=".15"/>
<path d="m88.649 1.165h-81c-3.7395 0-6.75 3.0105-6.75 6.75v81c0 3.7395 3.0105 6.75 6.75 6.75h81c3.7395 0 6.75-3.0105 6.75-6.75v-81c0-3.7395-3.0105-6.75-6.75-6.75z" opacity=".15"/>
<path d="m88.006 1.915h-79.714c-3.6801 0-6.6429 2.9627-6.6429 6.6429v79.714c0 3.6801 2.9627 6.6429 6.6429 6.6429h79.714c3.6801 0 6.6429-2.9627 6.6429-6.6429v-79.714c0-3.6801-2.9627-6.6429-6.6429-6.6429z" fill="url(#linearGradient4071)"/>
<path d="m11.39 6.8022c-2.8565 0-5.1241 2.3147-5.1241 5.2305v69.369c1.0972 1.7038 2.9688 2.8441 5.1241 2.8441h73.787c2.1553 0 4.0269-1.1402 5.1241-2.8441v-69.369c0-2.9158-2.2676-5.2305-5.1241-5.2305z" fill="url(#radialGradient4660)" opacity=".969"/>
<path d="m9.974 5.1445c-3.1166 0-5.668 2.5395-5.668 5.646v69.278c0 3.1065 2.5513 5.646 5.668 5.646h76.792c3.1166 0 5.668-2.5395 5.668-5.646v-69.278c0-3.1065-2.5513-5.646-5.668-5.646zm0 2.3194h76.792c1.8881 0 3.352 1.4801 3.352 3.3266v69.278c0 1.8465-1.4639 3.3266-3.352 3.3266h-76.792c-1.8881 0-3.352-1.4801-3.352-3.3266v-69.278c0-1.8465 1.4639-3.3266 3.352-3.3266z" color="#000000" fill="#241f1f" fill-opacity=".63265" style="text-decoration-line:none;text-indent:0;text-transform:none"/>
<path d="m1.649 82.259v6c0 3.6801 2.9761 6.6562 6.6562 6.6562h79.687c3.6801 0 6.6563-2.9761 6.6563-6.6562v-6c0 3.6801-2.9761 6.6562-6.6563 6.6562h-79.687c-3.6801 0-6.6562-2.9761-6.6562-6.6562z" fill="url(#linearGradient4129)" opacity=".65818"/>
<rect x="5.524" y="80.665" width="84.25" height="4.25" rx="0" ry="4.25" fill="url(#radialGradient7462)" opacity=".55"/>
<rect transform="rotate(90)" x="5.975" y="-90.234" width="76.75" height="4.25" rx="0" ry="4.25" fill="url(#radialGradient7464)" opacity=".669"/>
<g transform="matrix(.57459 0 0 .57459 17.857 19.165)">
<path transform="matrix(.98246 0 0 1.0307 -72.785 -79.905)" d="m72.195 143.5c-0.44214 0.0296-0.83803 0.25498-1.0538 0.59991-0.2158 0.34494-0.22265 0.76333-0.01825 1.1137l0.38485 0.68545 0.08247 0.1224c14.978 26.419 51.656 36.34 80.268 25.998 13.84-4.7788 25.986-14.109 32.877-26.635 0.0383-0.0696 0.0995-0.12604 0.13744-0.19585 0.27138-0.53799 0.053-1.1718-0.51058-1.4816-0.56354-0.3098-1.2976-0.19962-1.716 0.25755-19.434 22.225-54.512 27.671-82.248 17.944-10.421-3.7638-20.064-9.6779-27.049-17.944-0.27061-0.32022-0.70582-0.49555-1.1545-0.46513z" fill="#fff" filter="url(#filter4439)"/>
<path d="m-10.468 56.504c-0.50263 0.0378-0.95268 0.32548-1.198 0.7658s-0.25312 0.97441-0.0207 1.4217l0.4375 0.875 0.0937 0.15625c17.027 33.724 58.723 46.389 91.25 33.188 15.734-6.1002 29.542-18.011 37.375-34 0.0435-0.0889 0.11309-0.16089 0.15625-0.25 0.30851-0.68676 0.0602-1.4958-0.58043-1.8913-0.64064-0.39546-1.4752-0.25482-1.9508 0.32877-22.093 28.371-61.97 35.322-93.5 22.906-11.846-4.8046-22.809-12.354-30.75-22.906-0.30763-0.40877-0.80238-0.63258-1.3125-0.59375z" fill="url(#radialGradient4428)"/>
<circle cx="-9.7802" cy="58.754" r="5.75" fill="url(#radialGradient4451)"/>
<circle transform="scale(-1,1)" cx="-115.22" cy="58.754" r="5.75" fill="url(#radialGradient4455)"/>
<g transform="matrix(1.307 0 0 1.307 -16.512 -10.386)">
<ellipse transform="matrix(2.2472 0 0 .78981 -266.66 -82.631)" cx="132" cy="136" rx="4" ry="20" fill="#fff" filter="url(#filter4248)"/>
<ellipse transform="matrix(2.378 0 0 .73981 -283.92 -80.331)" cx="132" cy="136" rx="4" ry="20" filter="url(#filter4248)"/>
<ellipse cx="29.97" cy="22.283" rx="9" ry="14" fill="url(#radialGradient928)"/>
<ellipse cx="29.97" cy="13.955" rx="4.0581" ry="5.0445" fill="url(#linearGradient930)"/>
<path transform="matrix(.83607 0 0 .58904 -57.817 -30.422)" d="m98.719 99.875c0.22882 5.0967 2.947 9.125 6.2812 9.125s6.0524-4.0283 6.2812-9.125c-1.1394 2.4311-3.5158 4.125-6.2812 4.125s-5.1419-1.6939-6.2812-4.125z" fill="#ffd500" filter="url(#filter4206)" opacity=".6746"/>
<ellipse transform="matrix(2.2472 0 0 .78981 -220.66 -82.631)" cx="132" cy="136" rx="4" ry="20" fill="#fff" filter="url(#filter4248)"/>
<ellipse transform="matrix(2.378 0 0 .73981 -237.92 -80.331)" cx="132" cy="136" rx="4" ry="20" filter="url(#filter4248)"/>
<ellipse cx="75.97" cy="22.283" rx="9" ry="14" fill="url(#radialGradient970)"/>
<ellipse cx="75.97" cy="13.955" rx="4.0581" ry="5.0445" fill="url(#linearGradient972)"/>
<path transform="matrix(.83607 0 0 .58904 -11.817 -30.422)" d="m98.719 99.875c0.22882 5.0967 2.947 9.125 6.2812 9.125s6.0524-4.0283 6.2812-9.125c-1.1394 2.4311-3.5158 4.125-6.2812 4.125s-5.1419-1.6939-6.2812-4.125z" fill="#ffd500" filter="url(#filter4206)" opacity=".6746"/>
</g>
</g>
<rect transform="matrix(1.0692 0 0 1.0477 4.4442 38.894)" x="2" y="-30" width="75.966" height="69.024" rx="3.957" ry="3.957" clip-path="url(#clipPath4156-4-1)" fill="url(#linearGradient4767)" opacity=".50781"/>
</g>
</g>
</svg>
