<?xml version="1.0" encoding="UTF-8"?>
<!-- Created with Inkscape (http://www.inkscape.org/) -->
<svg version="1.1" viewBox="0 0 96 96" xmlns="http://www.w3.org/2000/svg" xmlns:cc="http://creativecommons.org/ns#" xmlns:dc="http://purl.org/dc/elements/1.1/" xmlns:rdf="http://www.w3.org/1999/02/22-rdf-syntax-ns#" xmlns:xlink="http://www.w3.org/1999/xlink">
<title>Lila-HD-Icon-Theme</title>
<script xlink:href=""/>
<defs>
<linearGradient id="linearGradient18191" x1="6" x2="90" y1="47" y2="47" gradientTransform="matrix(1.1393 0 0 1.1393 -6.6857 -37.546)" gradientUnits="userSpaceOnUse">
<stop stop-color="#b7b7b7" offset="0"/>
<stop stop-color="#fff" offset=".25"/>
<stop stop-color="#9d9d9d" offset=".5"/>
<stop stop-color="#fafafa" offset=".75"/>
<stop stop-color="#b7b7b7" offset="1"/>
</linearGradient>
<radialGradient id="radialGradient18193" cx="158" cy="6.2132" r="41" gradientTransform="matrix(0 1.8467 -2.3222 0 62.428 -313.86)" gradientUnits="userSpaceOnUse">
<stop stop-color="#fff" offset="0"/>
<stop stop-color="#fff" stop-opacity="0" offset="1"/>
</radialGradient>
<radialGradient id="radialGradient18195" cx="48" cy="-27" r="42" gradientTransform="matrix(-1.2215 0 0 -.9969 106.63 -58.766)" gradientUnits="userSpaceOnUse">
<stop stop-color="#fff" offset="0"/>
<stop stop-color="#fff" offset=".8"/>
<stop stop-color="#fff" stop-opacity="0" offset="1"/>
</radialGradient>
<linearGradient id="linearGradient18197" x1="-94" x2="-10.188" y1="82.984" y2="82.984" gradientTransform="matrix(1.1393 0 0 1.0129 107.24 -26.788)" gradientUnits="userSpaceOnUse">
<stop offset="0"/>
<stop stop-opacity=".58824" offset=".1"/>
<stop stop-opacity=".58824" offset=".9"/>
<stop offset="1"/>
</linearGradient>
<linearGradient id="linearGradient18199" x1="-30.363" x2="59.75" y1=".38068" y2=".38068" gradientTransform="matrix(1.0034 0 0 1.005 33.489 9.4732)" gradientUnits="userSpaceOnUse">
<stop stop-color="#78a1bd" offset="0"/>
<stop stop-color="#afc8d8" offset="1"/>
</linearGradient>
<radialGradient id="radialGradient18201" cx="48" cy="41.781" r="41.135" gradientTransform="matrix(1 0 0 .9296 -1e-5 -29.059)" gradientUnits="userSpaceOnUse">
<stop stop-color="#22a7dc" offset="0"/>
<stop stop-color="#1d73bb" offset="1"/>
</radialGradient>
<linearGradient id="linearGradient18205" x1="50.035" x2="50.035" y1="72.402" y2="22.692" gradientTransform="matrix(1.1237 0 0 1.1237 -6.8379 -44.888)" gradientUnits="userSpaceOnUse">
<stop stop-color="#0e4688" offset="0"/>
<stop stop-color="#135eb7" offset="1"/>
</linearGradient>
<linearGradient id="linearGradient18207" x1="22.031" x2="104" y1="48" y2="48" gradientTransform="matrix(0 1.1237 -1.1237 0 101.04 -44.888)" gradientUnits="userSpaceOnUse">
<stop stop-color="#fff" offset="0"/>
<stop stop-color="#fff" stop-opacity="0" offset="1"/>
</linearGradient>
<linearGradient id="linearGradient18209" x1="2.4652" x2="59.378" y1=".27862" y2=".27862" gradientTransform="matrix(1.0034 0 0 1.005 33.489 9.4732)" gradientUnits="userSpaceOnUse">
<stop stop-color="#fff" offset="0"/>
<stop stop-color="#fff" stop-opacity="0" offset="1"/>
</linearGradient>
<linearGradient id="linearGradient18310" x1="6" x2="90" y1="47" y2="47" gradientTransform="matrix(1.1393 0 0 1.1393 -6.6857 -37.546)" gradientUnits="userSpaceOnUse">
<stop stop-color="#fff" stop-opacity="0" offset="0"/>
<stop stop-color="#fff" stop-opacity=".85135" offset=".036815"/>
<stop stop-color="#fff" stop-opacity="0" offset=".065061"/>
<stop stop-color="#fff" stop-opacity="0" offset=".94494"/>
<stop stop-color="#fff" stop-opacity=".85135" offset=".96582"/>
<stop stop-color="#fff" stop-opacity="0" offset="1"/>
</linearGradient>
</defs>
<metadata>
<rdf:RDF>
<cc:Work rdf:about="">
<dc:format>image/svg+xml</dc:format>
<dc:type rdf:resource="http://purl.org/dc/dcmitype/StillImage"/>
<dc:title>Lila-HD-Icon-Theme</dc:title>
<dc:date>2015-2019</dc:date>
<dc:creator>
<cc:Agent>
<dc:title>Cristian Pozzessere  == ilnanny ==</dc:title>
</cc:Agent>
</dc:creator>
<dc:subject>
<rdf:Bag>
<rdf:li>ilnanny</rdf:li>
<rdf:li>lila_hd</rdf:li>
<rdf:li>lila-hd</rdf:li>
<rdf:li>lila hd icon theme</rdf:li>
<rdf:li>Lila-HD-Icon-Theme lila hd icon lila icon</rdf:li>
</rdf:Bag>
</dc:subject>
<dc:coverage>CC-BY-SA</dc:coverage>
<dc:description>Playing with Inkscape on Gnu/Linux O. S.</dc:description>
<dc:contributor>
<cc:Agent>
<dc:title>In the night, alone like a dog.</dc:title>
</cc:Agent>
</dc:contributor>
</cc:Work>
</rdf:RDF>
</metadata>
<g transform="translate(0,32)">
<path d="m89.014-31.85h-82.029c-3.787 0-6.8357 3.0487-6.8357 6.8357v82.029c0 3.787 3.0487 6.8357 6.8357 6.8357h82.029c3.787 0 6.8357-3.0487 6.8357-6.8357v-82.029c0-3.787-3.0487-6.8357-6.8357-6.8357z" fill="url(#linearGradient18191)"/>
<path d="m6.9857-30.711c-3.1755 0-5.6964 2.5209-5.6964 5.6964v75.549c1.2198 1.8556 3.3004 3.0974 5.6964 3.0974h82.029c2.396 0 4.4766-1.2418 5.6964-3.0974v-75.549c0-3.1755-2.5209-5.6964-5.6964-5.6964z" fill="url(#radialGradient18193)" opacity=".2"/>
<path d="m6.9857-31.85c-3.787 0-6.8357 3.0487-6.8357 6.8357v17.089h1.1393v-17.089c0-3.1755 2.5209-5.6964 5.6964-5.6964h82.029c3.1755 0 5.6964 2.5209 5.6964 5.6964v17.089h1.1393v-17.089c0-3.787-3.0487-6.8357-6.8357-6.8357z" fill="url(#radialGradient18195)" opacity=".45"/>
<path d="m0.14999 50.682v7.0902c0 3.3669 3.0487 6.0773 6.8357 6.0773h82.029c3.787 0 6.8357-2.7105 6.8357-6.0773v-7.0902c0 3.3669-3.0487 6.0773-6.8357 6.0773h-82.029c-3.787 0-6.8357-2.7105-6.8357-6.0773z" fill="url(#linearGradient18197)" opacity=".46965"/>
<ellipse cx="29.716" cy="52.709" rx="3.4436" ry="3.1329" fill="#1c1c1c" opacity=".71"/>
<ellipse cx="29.716" cy="52.501" rx="2.8653" ry="2.6822" fill="#fff"/>
<ellipse cx="29.716" cy="52.501" rx="1.9422" ry="1.8181" fill="#114751"/>
<ellipse cx="63.833" cy="52.709" rx="3.4436" ry="3.1329" fill="#1c1c1c" opacity=".71"/>
<ellipse cx="63.833" cy="52.501" rx="2.8653" ry="2.6822" fill="#fff"/>
<ellipse cx="63.833" cy="52.501" rx="1.9422" ry="1.8181" fill="#114751"/>
<rect x="40.657" y="51.658" width="12.718" height="3.252" rx="1.1521" ry="1.1538" fill="#0c2f31" fill-opacity=".90455" opacity=".75097" stroke="#fff" stroke-width=".502"/>
<path d="m7.7809 26.132c-1.8851 0-3.6495 0.91815-4.7591 2.2718v15.089c0 2.4045 2.1226 4.3402 4.7591 4.3402h80.905c2.6366 0 4.7591-1.9357 4.7591-4.3402v-15.089c-1.1096-1.3537-2.874-2.2718-4.7591-2.2718zm0 3.2552h80.905c1.3594 0 2.3796 0.93033 2.3796 2.1701v11.936c0 1.2398-1.0201 2.1701-2.3796 2.1701h-80.905c-1.3594 0-2.3796-0.93034-2.3796-2.1701v-11.936c0-1.2398 1.0201-2.1701 2.3796-2.1701z" color="#000000" opacity=".02" style="text-decoration-line:none;text-indent:0;text-transform:none"/>
<path d="m7.7809-28.121h80.905c2.6366 0 4.7591 1.9357 4.7591 4.3402v67.273c0 2.4045-2.1226 4.3402-4.7591 4.3402h-80.905c-2.6365 0-4.7591-1.9357-4.7591-4.3402v-67.273c0-2.4045 2.1226-4.3402 4.7591-4.3402z" color="#000000" fill="url(#linearGradient18199)" opacity=".73115"/>
<path d="m23.531-27.312c-0.0878 0.19804-0.19209 0.40892-0.25 0.625l-15.125 56.5c-0.59908 2.2358 0.70171 4.5259 2.9375 5.125l44.594 11.938h17.094l15.062-56.281c0.59908-2.2358-0.7017-4.4947-2.9375-5.0938l-47.75-12.812z" color="#000000" fill="url(#radialGradient18201)" stroke="#000" stroke-opacity=".7758" stroke-width="2.2904"/>
<rect x="17.904" y="-20.146" width="58.392" height="58.392" rx="3.6495" ry="3.6495" color="#000000" fill="url(#linearGradient18205)"/>
<path d="m76.281-16.479c0-2.0218-1.6302-3.652-3.652-3.652h-51.058c-2.0218 0-3.652 1.6302-3.652 3.652v51.058c0 2.0218 1.6302 3.652 3.652 3.652h51.058c2.0218 0 3.652-1.6302 3.652-3.652zm-1.0886 0v51.058c0 1.4376-1.1259 2.5635-2.5635 2.5635h-51.058c-1.4376 0-2.5635-1.1259-2.5635-2.5635v-51.058c0-1.4376 1.1259-2.5635 2.5635-2.5635h51.058c1.4376 0 2.5635 1.1259 2.5635 2.5635z" color="#000000" fill="url(#linearGradient18207)" opacity=".4"/>
<path d="m34.989-12.933a1.126 1.126 0 0 0-1.142 1.142v40.082a1.126 1.126 0 0 0 1.142 1.142h11.789a1.126 1.126 0 0 0 1.142-1.142v-13.004h13.004a1.126 1.126 0 0 0 1.142-1.142v-9.431a1.126 1.126 0 0 0-1.142-1.142h-13.004v-4.7892h17.72a1.126 1.126 0 0 0 1.142-1.142v-9.431a1.126 1.126 0 0 0-1.142-1.142z" color="#000000" fill="#143b69"/>
<path d="m34.989-11.791v40.082h11.789v-14.146h14.146v-9.431h-14.146v-7.0732h18.862v-9.431z" color="#000000" fill="#fff"/>
<path d="m8.4917-27.304h79.017c2.575 0 4.648 1.8912 4.648 4.2405v65.727c0 2.3492-2.073 4.2405-4.648 4.2405h-79.017c-2.575 0-4.648-1.8912-4.648-4.2405v-65.727c0-2.3492 2.073-4.2405 4.648-4.2405z" color="#000000" fill="none" stroke="#000" stroke-opacity=".7758" stroke-width="2.2904"/>
<path d="m35.963-28.224c8.3294 26.184 16.985 51.751 25.766 75.954h26.584c2.6365 0 4.7591-1.9357 4.7591-4.3402v-67.273c0-2.4045-2.1225-4.3402-4.7591-4.3402z" color="#000000" fill="url(#linearGradient18209)" opacity=".30882"/>
<path d="m89.014-31.85h-82.029c-3.787 0-6.8357 3.0487-6.8357 6.8357v82.029c0 3.787 3.0487 6.8357 6.8357 6.8357h82.029c3.787 0 6.8357-3.0487 6.8357-6.8357v-82.029c0-3.787-3.0487-6.8357-6.8357-6.8357z" fill="url(#linearGradient18310)" opacity=".72794"/>
</g>
</svg>
