<?xml version="1.0" encoding="UTF-8"?>
<!-- Created with Inkscape (http://www.inkscape.org/) -->
<svg version="1.1" viewBox="0 0 16 16" xmlns="http://www.w3.org/2000/svg" xmlns:cc="http://creativecommons.org/ns#" xmlns:dc="http://purl.org/dc/elements/1.1/" xmlns:rdf="http://www.w3.org/1999/02/22-rdf-syntax-ns#">
<metadata>
<rdf:RDF>
<cc:Work rdf:about="">
<dc:format>image/svg+xml</dc:format>
<dc:type rdf:resource="http://purl.org/dc/dcmitype/StillImage"/>
<dc:title/>
</cc:Work>
</rdf:RDF>
</metadata>
<path d="m29.332 0.34132c-0.88071-0.38964-1.9236-0.33622-2.8009 0.21394-0.89864 0.56355-1.3904 1.5241-1.4009 2.5114-1.8072 2.5571-2.6774 2.7377-4.1855 2.6279-1.443-0.68796-3.1895-0.12058-3.9448 1.3055-0.77548 1.4642-0.2172 3.2798 1.247 4.0553 1.0546 0.55855 2.2802 0.40442 3.1794-0.26099 2.0344-0.40683 3.4475 0.26512 4.0855 2.2346-0.01885 1.0937 0.53933 2.1599 1.5721 2.7069 1.4642 0.77548 3.2798 0.2172 4.0553-1.247s0.2172-3.2798-1.247-4.0553c-0.02858-0.01514-0.054-0.02976-0.08285-0.04388-0.83219-0.95722-1.0392-2.0466-0.056-4.7682 1.3756-0.88893 1.7802-2.7247 0.90728-4.1166-0.3301-0.52638-0.80029-0.92968-1.3287-1.1635zm-3.4921 4.6571c0.4095 0.49256 0.95307 0.8042 1.5432 0.9588 1.0634 1.6644 1.3545 3.496 0.20718 4.2825-0.53236 0.16829-1.0183 0.4468-1.3908 0.89004-1.463-0.04783-2.6816-0.67547-3.6453-1.9307 0.20539-0.72734 0.1088-1.4753-0.21569-2.1299 0.15979-0.95622 1.0462-1.7322 3.5014-2.0707z" fill="#999" fill-opacity=".91237"/>
<path d="m14.531-2.7812-4.5625 4.5625c-1.7066-0.5402-3.6206-0.37823-5.25 0.5625-0.58564 0.33812-1.0641 0.74678-1.5 1.2188-1.8164 1.9668-2.2694 4.9245-1 7.4062l1.9375-1.9375c-0.35982-1.3301-0.015339-2.8284 1.0312-3.875 1.5621-1.5621 4.0942-1.5621 5.6562 0l5.8125-5.8125-2.125-2.125zm-0.75 7.8125-1.9375 1.9375c0.35982 1.3301 0.046586 2.8284-1 3.875-1.5621 1.5621-4.0942 1.5621-5.6562 0l-5.8438 5.8125 2.125 2.125 4.5625-4.5625c1.7066 0.5402 3.6206 0.37823 5.25-0.5625 3.0243-1.7461 4.0705-5.5498 2.5-8.625zm-5.7812 0.96875c-1.1046 0-2 0.89543-2 2s0.89543 2 2 2 2-0.89543 2-2-0.89543-2-2-2z" fill="#999" fill-opacity=".91237"/>
<path transform="translate(-25.58 3.5206)" d="m15 3.5a2.5 2.5 0 1 1-5 0 2.5 2.5 0 1 1 5 0z" fill="#999" fill-opacity=".91237"/>
<path d="m-5.8007 10.942-5.6089-3.6194" fill="none" stroke="#999" stroke-opacity=".91237" stroke-width="1.5"/>
<path d="m-4.2426 9.8158-0.50336-6.5437" fill="none" stroke="#999" stroke-opacity=".91237" stroke-width="1.5"/>
<path d="m-6.9033 2.1455-4.4104 3.4037" fill="none" stroke="#999" stroke-opacity=".91237" stroke-width="1.5"/>
<path d="m-10.682 28.693c1.3256-0.57618 1.9287-2.1254 1.3525-3.451-0.047896-0.11011-0.098296-0.20618-0.15883-0.30612 1.1745-0.87162 2.6067-2.2072 3.5996-3.6442 0.53162 0.05966 1.0823-0.0083 1.6081-0.23683 1.6027-0.69663 2.3417-2.5601 1.6451-4.1627-0.69663-1.6027-2.5491-2.3153-4.1517-1.6186-0.62759 0.2728-1.1058 0.70511-1.4334 1.2501-2.193-0.13926-3.7238-0.17715-5.4989 0.06103-0.02457-0.0904-0.04546-0.18688-0.08391-0.27533-0.42973-0.98864-1.5742-1.4392-2.5629-1.0095-0.98864 0.42973-1.4656 1.5853-1.0359 2.5739 0.34349 0.79024 1.1612 1.2333 1.9748 1.1619 0.29184 1.7219 0.7037 3.919 1.6429 5.6454-0.56499 0.73084-0.71631 1.7413-0.32205 2.6483 0.57618 1.3256 2.099 1.9398 3.4245 1.3636zm0.46396-4.5387c-0.69187-0.48946-1.5893-0.64149-2.4302-0.31999-1.0583-1.4535-1.7152-3.2187-2.2439-4.929 0.02655-0.01024 0.05295-0.02165 0.07929-0.0331 0.67536-0.29355 1.0973-0.91774 1.1621-1.6024 1.8868 2.11e-4 3.9036 0.66632 4.9754 1.2127 0.03281 0.31398 0.11046 0.64886 0.24299 0.95377 0.15728 0.36185 0.39728 0.63816 0.65714 0.90502-0.65402 1.4088-1.4619 2.7268-2.4428 3.813z" color="#000000" fill="#999" fill-opacity=".91237" style="block-progression:tb;text-indent:0;text-transform:none"/>
</svg>
