<?xml version="1.0" encoding="UTF-8"?>
<svg version="1.1" viewBox="0 0 96 96" xmlns="http://www.w3.org/2000/svg" xmlns:cc="http://creativecommons.org/ns#" xmlns:dc="http://purl.org/dc/elements/1.1/" xmlns:rdf="http://www.w3.org/1999/02/22-rdf-syntax-ns#" xmlns:xlink="http://www.w3.org/1999/xlink">
<metadata>
<rdf:RDF>
<cc:Work rdf:about="">
<dc:format>image/svg+xml</dc:format>
<dc:type rdf:resource="http://purl.org/dc/dcmitype/StillImage"/>
<dc:title/>
</cc:Work>
</rdf:RDF>
</metadata>
<defs>
<linearGradient id="linearGradient1162">
<stop stop-color="#fff" offset="0"/>
<stop stop-color="#fff" stop-opacity="0" offset="1"/>
</linearGradient>
<linearGradient id="ButtonShadow" x1="45.448" x2="45.448" y1="92.54" y2="7.0165" gradientTransform="scale(1.0059 .99417)" gradientUnits="userSpaceOnUse">
<stop offset="0"/>
<stop stop-opacity=".58824" offset="1"/>
</linearGradient>
<filter id="filter3174" color-interpolation-filters="sRGB">
<feGaussianBlur stdDeviation="1.71"/>
</filter>
<filter id="filter3174-53" color-interpolation-filters="sRGB">
<feGaussianBlur stdDeviation="1.71"/>
</filter>
<linearGradient id="linearGradient4742" x1="45.448" x2="45.448" y1="92.54" y2="7.0165" gradientTransform="scale(1.0059 .99417)" gradientUnits="userSpaceOnUse" xlink:href="#ButtonShadow"/>
<linearGradient id="linearGradient4071" x1="6" x2="90" y1="47" y2="47" gradientTransform="matrix(1.1071 0 0 1.1071 -4.9939 -3.6207)" gradientUnits="userSpaceOnUse">
<stop stop-color="#b2babc" offset="0"/>
<stop stop-color="#fff" offset=".25"/>
<stop stop-color="#96a1a4" offset=".5"/>
<stop stop-color="#fbf9f9" offset=".75"/>
<stop stop-color="#b2b9bc" offset="1"/>
</linearGradient>
<linearGradient id="linearGradient4129" x1="1.5" x2="94.5" y1="88.172" y2="88.172" gradientTransform="translate(.14895 .41503)" gradientUnits="userSpaceOnUse">
<stop offset="0"/>
<stop stop-opacity=".58824" offset=".1"/>
<stop stop-opacity=".58824" offset=".9"/>
<stop offset="1"/>
</linearGradient>
<radialGradient id="radialGradient7462-2" cx="13.948" cy="44.893" r="43.199" gradientTransform="matrix(.97513 0 0 .049191 34.048 80.582)" gradientUnits="userSpaceOnUse" xlink:href="#linearGradient1162"/>
<radialGradient id="radialGradient7464-9" cx="13.948" cy="44.893" r="43.199" gradientTransform="matrix(.88833 0 0 .049191 31.96 -90.317)" gradientUnits="userSpaceOnUse" xlink:href="#linearGradient1162"/>
<linearGradient id="linearGradient4767" x1="2.7714" x2="50.528" y1="-28.642" y2="14.514" gradientUnits="userSpaceOnUse" xlink:href="#linearGradient1162"/>
<clipPath id="clipPath4156-4-1">
<path d="m27.046-55.695-14.214 13.321h0.06127l15.653 21.771 10.231-10.546c-0.2169-1.1522-11.311-23.67-11.732-24.546zm-17.399 16.313-14.888 14.062 21.229 17.515 10.385-10.577zm31.491 12.951-9.7413 9.7136 8.9448 12.458 7.7808-7.555zm-49.84 4.3788-13.754 12.982 26.283 13.846 0.06127-0.0617-0.12253-0.0617 9.8332-10.053-22.301-16.652zm38.015 7.4008-9.8025 9.7753 11.579 9.5594 7.6276-7.4008-8.6691-11.009zm20.187 5.674-7.3825 7.2158 6.1878 8.5418 5.8202-6.1365zm-32.195 6.3215-9.5575 9.4977 13.662 7.185 7.9339-7.6784zm23.312 2.3744-7.1068 6.9383 8.3628 6.9074 5.3608-5.674-0.06127-0.0925-0.0919 0.12335-6.4635-8.2026zm-8.7304 8.5418-7.5051 7.3392 10.354 5.4581c1.3975-1.321 5.6751-6.1229 5.8509-6.3215z" fill="#fff" opacity=".6"/>
</clipPath>
<radialGradient id="radialGradient1258" cx="376.42" cy="510.55" r="152.86" gradientTransform="matrix(.19276 -.10163 .15016 .28479 -332.02 -93.67)" gradientUnits="userSpaceOnUse">
<stop stop-color="#ababab" offset="0"/>
<stop offset="1"/>
</radialGradient>
<radialGradient id="radialGradient3181" cx="427.31" cy="321.69" r="152.86" gradientTransform="matrix(-8.8123e-8 1.0507 1.2931 -1.2699e-6 -83.684 270.61)" gradientUnits="userSpaceOnUse">
<stop stop-color="#1e1e1e" offset="0"/>
<stop stop-color="#505050" offset="1"/>
</radialGradient>
</defs>
<g display="none">
<rect x="5" y="7" width="86" height="85" rx="6" ry="6" fill="url(#linearGradient4742)" filter="url(#filter3174-53)" opacity=".9"/>
</g>
<g transform="matrix(.99792 0 0 .99792 .1 -1024.3)">
<g transform="translate(-.14896 1026.1)">
<path d="m89.292 0.41503h-82.286c-3.7988 0-6.8571 3.0583-6.8571 6.8571v82.286c0 3.7989 3.0583 6.8571 6.8571 6.8571h82.286c3.7989 0 6.8571-3.0583 6.8571-6.8571v-82.286c0-3.7989-3.0583-6.8571-6.8571-6.8571z" opacity=".15"/>
<path d="m88.649 1.165h-81c-3.7395 0-6.75 3.0105-6.75 6.75v81c0 3.7395 3.0105 6.75 6.75 6.75h81c3.7395 0 6.75-3.0105 6.75-6.75v-81c0-3.7395-3.0105-6.75-6.75-6.75z" opacity=".15"/>
<path d="m88.006 1.915h-79.714c-3.6801 0-6.6429 2.9627-6.6429 6.6429v79.714c0 3.6801 2.9627 6.6429 6.6429 6.6429h79.714c3.6801 0 6.6429-2.9627 6.6429-6.6429v-79.714c0-3.6801-2.9627-6.6429-6.6429-6.6429z" fill="url(#linearGradient4071)"/>
<path d="m11.39 6.8022c-2.8565 0-5.1241 2.2884-5.1241 5.171v68.58c1.0972 1.6845 2.9688 2.8117 5.1241 2.8117h73.787c2.1553 0 4.0269-1.1272 5.1241-2.8117v-68.58c0-2.8826-2.2676-5.171-5.1241-5.171z" fill="#f5f3f3" opacity=".77865"/>
<path d="m9.974 5.1445c-3.1166 0-5.668 2.5395-5.668 5.646v69.278c0 3.1065 2.5513 5.646 5.668 5.646h76.792c3.1166 0 5.668-2.5395 5.668-5.646v-69.278c0-3.1065-2.5513-5.646-5.668-5.646zm0 2.3194h76.792c1.8881 0 3.352 1.4801 3.352 3.3266v69.278c0 1.8465-1.4639 3.3266-3.352 3.3266h-76.792c-1.8881 0-3.352-1.4801-3.352-3.3266v-69.278c0-1.8465 1.4639-3.3266 3.352-3.3266z" color="#000000" fill="#241f1f" fill-opacity=".63265" style="text-decoration-line:none;text-indent:0;text-transform:none"/>
<path d="m1.649 82.259v6c0 3.6801 2.9761 6.6562 6.6562 6.6562h79.687c3.6801 0 6.6563-2.9761 6.6563-6.6562v-6c0 3.6801-2.9761 6.6562-6.6563 6.6562h-79.687c-3.6801 0-6.6562-2.9761-6.6562-6.6562z" fill="url(#linearGradient4129)" opacity=".65818"/>
<rect x="5.524" y="80.665" width="84.25" height="4.25" rx="0" ry="4.25" fill="url(#radialGradient7462-2)" opacity=".55"/>
<g transform="matrix(.97673 0 0 .97673 241.78 16.45)">
<circle cx="-197.28" cy="29.945" r="37.899" fill="url(#radialGradient1258)" stroke-width="0"/>
<circle cx="-197.91" cy="29.313" r="20.665" fill="#fff" stroke="#000" stroke-linecap="round" stroke-width=".089476"/>
<path d="m-197.91 40.014c-0.90712 0-1.7953-0.13701-2.6646-0.41103-0.85987-0.27402-1.63-0.67088-2.3103-1.1906-0.68033-0.52915-1.2284-1.167-1.6441-1.9134-0.4063-0.75592-0.60946-1.6158-0.60946-2.5796 0-0.72757 0.10394-1.3796 0.31182-1.956 0.21733-0.57638 0.49607-1.0866 0.83624-1.5308 0.34961-0.4441 0.74647-0.83151 1.1906-1.1622 0.44411-0.34015 0.89294-0.63308 1.3465-0.87876-0.27403-0.15118-0.5764-0.34488-0.90711-0.58112-0.33072-0.23622-0.63782-0.52914-0.92129-0.87877-0.28347-0.3496-0.52443-0.76536-0.72285-1.2473-0.18898-0.48189-0.28348-1.0441-0.28347-1.6867-1e-5 -0.8693 0.18425-1.6394 0.55277-2.3103 0.37796-0.67087 0.87404-1.2331 1.4882-1.6867 0.61419-0.45354 1.3087-0.79843 2.0835-1.0347 0.78426-0.23621 1.5827-0.35432 2.3953-0.35434 0.81261 2.2e-5 1.5922 0.11813 2.3386 0.35434 0.75592 0.23625 1.4221 0.58114 1.9985 1.0347 0.57638 0.45357 1.0347 1.0158 1.3748 1.6867 0.3496 0.6709 0.52441 1.441 0.52442 2.3103-1e-5 0.64255-0.0945 1.2-0.28347 1.6725-0.17955 0.47247-0.41104 0.8835-0.6945 1.2331-0.27404 0.34018-0.57169 0.6331-0.89294 0.87876-0.32128 0.23624-0.61893 0.43939-0.89294 0.60947 0.3874 0.19844 0.79371 0.46302 1.2189 0.79372 0.42519 0.32128 0.81261 0.71341 1.1622 1.1764 0.35905 0.45357 0.65197 0.97799 0.87876 1.5733 0.23621 0.5953 0.35432 1.2567 0.35434 1.9843-2e-5 0.96381-0.20789 1.8237-0.62364 2.5796-0.40632 0.74648-0.94964 1.3843-1.63 1.9134-0.6709 0.5197-1.441 0.91656-2.3103 1.1906-0.86933 0.27402-1.7575 0.41103-2.6646 0.41103m3.6851-16.016c-1e-5 -0.51968-0.0992-0.97324-0.29765-1.3607-0.18899-0.39684-0.45356-0.72283-0.79372-0.97798-0.33073-0.26455-0.71814-0.45826-1.1622-0.58112-0.44412-0.13227-0.9213-0.19841-1.4315-0.19843-0.51026 1.9e-5 -0.98743 0.06616-1.4315 0.19843-0.44412 0.12286-0.83625 0.31656-1.1764 0.58112-0.33072 0.25515-0.59529 0.58114-0.79371 0.97798-0.18899 0.38743-0.28348 0.84099-0.28348 1.3607 0 0.55751 0.0945 1.0489 0.28348 1.4741 0.19842 0.41577 0.46299 0.77011 0.79371 1.063 0.34017 0.28349 0.7323 0.50081 1.1764 0.65199 0.4441 0.14175 0.92127 0.21262 1.4315 0.2126 0.51024 1.3e-5 0.98742-0.07086 1.4315-0.2126 0.44409-0.15118 0.8315-0.3685 1.1622-0.65199 0.34016-0.29291 0.60473-0.64725 0.79372-1.063 0.19842-0.42519 0.29764-0.91654 0.29765-1.4741m0.70868 9.6381c-1e-5 -0.59529-0.1134-1.1386-0.34017-1.63-0.21734-0.49134-0.52443-0.91655-0.92128-1.2756-0.38743-0.35905-0.85043-0.6378-1.389-0.83624-0.52915-0.19842-1.1103-0.29764-1.7434-0.29764-0.64255 1e-5 -1.2331 0.09923-1.7717 0.29764-0.52915 0.19844-0.99216 0.47719-1.389 0.83624-0.38742 0.35907-0.68979 0.78428-0.90711 1.2756-0.21734 0.49136-0.326 1.0347-0.326 1.63 0 0.62364 0.10866 1.1811 0.326 1.6725 0.21732 0.49136 0.51969 0.90711 0.90711 1.2473 0.39685 0.34017 0.85986 0.60002 1.389 0.77955 0.53859 0.17953 1.1292 0.2693 1.7717 0.2693 0.63308 0 1.2142-0.0898 1.7434-0.2693 0.53859-0.17953 1.0016-0.43938 1.389-0.77955 0.39685-0.34016 0.70394-0.75592 0.92128-1.2473 0.22677-0.49135 0.34016-1.0488 0.34017-1.6725" stroke="#000" stroke-width="1.565"/>
<path transform="matrix(.25407 0 0 .20322 -281.49 -82.567)" d="m331.03 727.07c-58.898 0-108.9-38.226-126.58-91.201 14.988-57.297 67.121-99.631 129.09-99.631 58.911 0 108.94 38.261 126.61 91.256-15.006 57.271-67.166 99.576-129.12 99.576z" fill="url(#radialGradient3181)" opacity=".206" stroke-width="0"/>
</g>
<rect transform="rotate(90)" x="5.975" y="-90.234" width="76.75" height="4.25" rx="0" ry="4.25" fill="url(#radialGradient7464-9)" opacity=".669"/>
<rect transform="matrix(1.0692 0 0 1.0477 4.4442 38.894)" x="2" y="-30" width="75.966" height="69.024" rx="3.957" ry="3.957" clip-path="url(#clipPath4156-4-1)" fill="url(#linearGradient4767)" opacity=".84969"/>
</g>
</g>
<g display="none">
<rect x="5" y="7" width="86" height="85" rx="6" ry="6" fill="url(#linearGradient4742)" filter="url(#filter3174)" opacity=".9"/>
</g>
<g transform="matrix(.22592 0 0 .22592 -124.66 27.529)"></g>
</svg>
