<?xml version="1.0" encoding="UTF-8"?>
<!-- Created with Inkscape (http://www.inkscape.org/) -->
<svg version="1.1" viewBox="0 0 96 96" xmlns="http://www.w3.org/2000/svg" xmlns:cc="http://creativecommons.org/ns#" xmlns:dc="http://purl.org/dc/elements/1.1/" xmlns:rdf="http://www.w3.org/1999/02/22-rdf-syntax-ns#" xmlns:xlink="http://www.w3.org/1999/xlink">
<defs>
<linearGradient id="linearGradient4071" x1="6" x2="90" y1="47" y2="47" gradientTransform="matrix(1.1071 0 0 1.1071 -4.9939 -3.6207)" gradientUnits="userSpaceOnUse">
<stop stop-color="#bcb2b2" offset="0"/>
<stop stop-color="#fff" offset=".25"/>
<stop stop-color="#a49696" offset=".5"/>
<stop stop-color="#fbf9f9" offset=".75"/>
<stop stop-color="#bcb2b2" offset="1"/>
</linearGradient>
<linearGradient id="linearGradient4129" x1="1.5" x2="94.5" y1="88.172" y2="88.172" gradientTransform="translate(.14895 .41503)" gradientUnits="userSpaceOnUse">
<stop offset="0"/>
<stop stop-opacity=".58824" offset=".1"/>
<stop stop-opacity=".58824" offset=".9"/>
<stop offset="1"/>
</linearGradient>
<radialGradient id="radialGradient7462" cx="13.948" cy="44.893" r="43.199" gradientTransform="matrix(.97513 0 0 .049191 34.048 80.582)" gradientUnits="userSpaceOnUse" xlink:href="#linearGradient3737"/>
<linearGradient id="linearGradient3737">
<stop stop-color="#fff" offset="0"/>
<stop stop-color="#fff" stop-opacity="0" offset="1"/>
</linearGradient>
<radialGradient id="radialGradient7464" cx="13.948" cy="44.893" r="43.199" gradientTransform="matrix(.88833 0 0 .049191 31.96 -90.317)" gradientUnits="userSpaceOnUse" xlink:href="#linearGradient3737"/>
<linearGradient id="linearGradient4767" x1="2.7714" x2="50.528" y1="-28.642" y2="14.514" gradientUnits="userSpaceOnUse" xlink:href="#linearGradient3737"/>
<clipPath id="clipPath4156-4-1">
<path d="m27.046-55.695-14.214 13.321h0.06127l15.653 21.771 10.231-10.546c-0.2169-1.1522-11.311-23.67-11.732-24.546zm-17.399 16.313-14.888 14.062 21.229 17.515 10.385-10.577zm31.491 12.951-9.7413 9.7136 8.9448 12.458 7.7808-7.555zm-49.84 4.3788-13.754 12.982 26.283 13.846 0.06127-0.0617-0.12253-0.0617 9.8332-10.053-22.301-16.652zm38.015 7.4008-9.8025 9.7753 11.579 9.5594 7.6276-7.4008-8.6691-11.009zm20.187 5.674-7.3825 7.2158 6.1878 8.5418 5.8202-6.1365zm-32.195 6.3215-9.5575 9.4977 13.662 7.185 7.9339-7.6784zm23.312 2.3744-7.1068 6.9383 8.3628 6.9074 5.3608-5.674-0.06127-0.0925-0.0919 0.12335-6.4635-8.2026zm-8.7304 8.5418-7.5051 7.3392 10.354 5.4581c1.3975-1.321 5.6751-6.1229 5.8509-6.3215z" fill="#fff" opacity=".6"/>
</clipPath>
</defs>
<metadata>
<rdf:RDF>
<cc:Work rdf:about="">
<dc:format>image/svg+xml</dc:format>
<dc:type rdf:resource="http://purl.org/dc/dcmitype/StillImage"/>
<dc:title/>
<dc:date>2017</dc:date>
<dc:creator>
<cc:Agent>
<dc:title>Cristian Pozzessere "ilnanny"</dc:title>
</cc:Agent>
</dc:creator>
<dc:subject>
<rdf:Bag>
<rdf:li>Global language</rdf:li>
</rdf:Bag>
</dc:subject>
<dc:description>Playing with Inkscape on Gnu/Linux O. S.</dc:description>
<dc:contributor>
<cc:Agent>
<dc:title>In the night, alone like a dog.</dc:title>
</cc:Agent>
</dc:contributor>
<cc:license rdf:resource="http://creativecommons.org/licenses/by-sa/4.0/"/>
</cc:Work>
<cc:License rdf:about="http://creativecommons.org/licenses/by-sa/4.0/">
<cc:permits rdf:resource="http://creativecommons.org/ns#Reproduction"/>
<cc:permits rdf:resource="http://creativecommons.org/ns#Distribution"/>
<cc:requires rdf:resource="http://creativecommons.org/ns#Notice"/>
<cc:requires rdf:resource="http://creativecommons.org/ns#Attribution"/>
<cc:permits rdf:resource="http://creativecommons.org/ns#DerivativeWorks"/>
<cc:requires rdf:resource="http://creativecommons.org/ns#ShareAlike"/>
</cc:License>
</rdf:RDF>
</metadata>
<g transform="translate(0 -1026.5)">
<g transform="translate(-.14896 1026.1)">
<path d="m89.292 0.41503h-82.286c-3.7988 0-6.8571 3.0583-6.8571 6.8571v82.286c0 3.7989 3.0583 6.8571 6.8571 6.8571h82.286c3.7989 0 6.8571-3.0583 6.8571-6.8571v-82.286c0-3.7989-3.0583-6.8571-6.8571-6.8571z" opacity=".15"/>
<path d="m88.649 1.165h-81c-3.7395 0-6.75 3.0105-6.75 6.75v81c0 3.7395 3.0105 6.75 6.75 6.75h81c3.7395 0 6.75-3.0105 6.75-6.75v-81c0-3.7395-3.0105-6.75-6.75-6.75z" opacity=".15"/>
<path d="m88.006 1.915h-79.714c-3.6801 0-6.6429 2.9627-6.6429 6.6429v79.714c0 3.6801 2.9627 6.6429 6.6429 6.6429h79.714c3.6801 0 6.6429-2.9627 6.6429-6.6429v-79.714c0-3.6801-2.9627-6.6429-6.6429-6.6429z" fill="url(#linearGradient4071)"/>
<path d="m11.39 6.8022c-2.8565 0-5.1241 2.3235-5.1241 5.2503v69.632c1.0972 1.7103 2.9688 2.8548 5.1241 2.8548h73.787c2.1553 0 4.0269-1.1445 5.1241-2.8548v-69.632c0-2.9268-2.2676-5.2503-5.1241-5.2503z" fill="#dc0000" opacity=".77865"/>
<path d="m9.974 5.1445c-3.1166 0-5.668 2.5395-5.668 5.646v69.278c0 3.1065 2.5513 5.646 5.668 5.646h76.792c3.1166 0 5.668-2.5395 5.668-5.646v-69.278c0-3.1065-2.5513-5.646-5.668-5.646zm0 2.3194h76.792c1.8881 0 3.352 1.4801 3.352 3.3266v69.278c0 1.8465-1.4639 3.3266-3.352 3.3266h-76.792c-1.8881 0-3.352-1.4801-3.352-3.3266v-69.278c0-1.8465 1.4639-3.3266 3.352-3.3266z" color="#000000" fill="#241f1f" fill-opacity=".63265" style="text-decoration-line:none;text-indent:0;text-transform:none"/>
<path d="m1.649 82.259v6c0 3.6801 2.9761 6.6562 6.6562 6.6562h79.687c3.6801 0 6.6563-2.9761 6.6563-6.6562v-6c0 3.6801-2.9761 6.6562-6.6563 6.6562h-79.687c-3.6801 0-6.6562-2.9761-6.6562-6.6562z" fill="url(#linearGradient4129)" opacity=".65818"/>
<rect x="5.524" y="80.665" width="84.25" height="4.25" rx="0" ry="4.25" fill="url(#radialGradient7462)" opacity=".55"/>
<rect transform="rotate(90)" x="5.975" y="-90.234" width="76.75" height="4.25" rx="0" ry="4.25" fill="url(#radialGradient7464)" opacity=".669"/>
<g transform="translate(.1274 .42985)">
<path d="m36.812 27.031c-8.9768-0.42456-17.79 5.4231-20.594 14.031-3e-3 0.0092 3e-3 0.02202 0 0.03125-3.2649 8.92 0.41874 19.635 8.5312 24.594 0.0072 0.0044 0.024-0.0044 0.03125 0 7.0657 4.6979 16.931 4.3074 23.594-0.96875h0.03125v0.03125c0.95851-0.74891 2.2557-1.7221 3.1875-2.9688 0.39199-0.52447 0.62148-1.178 0.78125-1.8438 0.50659 0.93295 0.89984 1.9062 1.4688 2.8125a0.89547 0.89547 0 0 0 0 0.03125c2.5771 3.8724 7.1547 5.9209 11.688 5.8125 0.04162-9.95e-4 0.08339 0.0014 0.125 0 5.1224 0.4443 10.431-1.8984 13.25-6.3125 2.8784-4.6462 3.0113-11.381-0.90625-15.594a0.89547 0.89547 0 0 0-0.03125 0c-3.898-3.9664-9.4229-4.3545-13.469-6.6562-0.29807-0.38679-0.37563-0.67202-0.3125-0.9375 0.06944-0.29203 0.30712-0.62442 0.6875-0.875s0.87057-0.39214 1.3125-0.375c0.44193 0.01714 0.80187 0.16139 1.125 0.53125l0.03125-0.03125c1.0952 1.4268 2.6998 2.0167 4.2188 1.9062 1.4927-0.10858 2.8952-0.80438 4.0312-1.7188l0.03125 0.03125c0.04085-0.02405 0.0541-0.06892 0.09375-0.09375 0.92979-0.58213 1.5465-1.3548 1.75-2.2188 0.21215-0.9008-0.0054-1.801-0.375-2.5938-0.72228-1.5492-2.0706-2.8285-3.3125-3.625-0.02948-0.02429-0.06407-0.03855-0.09375-0.0625-5.9289-4.7844-15.917-2.8671-19.156 4.2188-0.01997 0.02652-0.01208 0.06677-0.03125 0.09375-0.01557 0.03489-0.04725 0.05862-0.0625 0.09375-0.52093 0.78212-0.70938 1.7087-0.8125 2.6562-3.4563-5.8925-9.8902-9.8439-16.812-10zm-1.0312 11.062c0.89357-0.02171 1.7647 0.07799 2.625 0.28125a0.89547 0.89547 0 0 0 0.0625 0c3.2505 0.59033 5.6653 3.3304 6.875 6.4375a0.89547 0.89547 0 0 0 0.03125 0.0625c0.92994 2.0355 1.8013 4.1344 2.6875 6.2188-0.46613-0.09183-0.93626-0.12128-1.375 0-0.89311 0.24688-1.6419 0.92762-2.0312 1.8438l-0.03125-0.03125c-1.5183 2.1435-3.7524 3.9872-6.2188 4.7188-2.7339 0.10479-5.3803 0.47195-7.3125-0.96875a0.89547 0.89547 0 0 0-0.03125-0.03125c-2.7653-1.7916-5.1148-4.8512-4.75-8.0938a0.89547 0.89547 0 0 0 0-0.21875c-0.33413-2.595 0.43734-5.1446 2.3438-6.9062a0.89547 0.89547 0 0 0 0.09375-0.09375c1.6629-2.071 4.3505-3.1536 7.0312-3.2188zm23.688 11.594c3.2994 1.9777 7.0419 2.8206 10.125 4.4688 0.54363 0.5658 0.55851 1.251 0.15625 2.0312-0.41576 0.80647-1.3002 1.4606-2.0625 1.5312a0.89547 0.89547 0 0 0-0.1875 0.0625c-2.484 0.82068-5.0181-0.47019-5.7812-2.9688a0.89547 0.89547 0 0 0-0.03125-0.125c-0.77701-1.6322-1.4982-3.3207-2.2188-5z" fill="#a10619" opacity=".05"/>
<path d="m36.781 27.938c-8.5671-0.40518-17.046 5.2449-19.705 13.451-3.1288 8.5058 0.44358 18.821 8.1882 23.54 6.7321 4.4903 16.231 4.1425 22.576-0.89631 1.9508-1.5242 5.02-3.6951 3.441-6.5322-0.76707-1.652-1.3653-3.4343-2.3438-4.9688-1.0736-1.2248-3.1161-0.57956-3.5861 0.89768-1.6273 2.2975-4.0163 4.3132-6.764 5.1042-2.7069 0.09323-5.7061 0.57322-8.0356-1.1637-2.9605-1.9181-5.5311-5.2155-5.1138-8.9246-0.36639-2.8456 0.49786-5.7166 2.6342-7.6908 2.4749-3.0823 6.813-4.1462 10.559-3.261 3.647 0.66234 6.2535 3.6765 7.5453 6.9944 2.7244 5.9633 4.9347 12.218 8.4324 17.79 2.4072 3.6171 6.7305 5.5456 11.016 5.4057 4.8336 0.46202 9.8803-1.7287 12.521-5.8631 2.677-4.321 2.7766-10.659-0.8025-14.508-3.6577-3.7219-9.1814-4.0462-13.5-6.5938-2.1676-2.5031 2.19-5.1762 4.1486-2.9344 1.8325 2.4611 5.1325 1.6879 7.1763-0.01409 3.3749-1.9875 0.30159-5.6435-1.9444-7.0484-5.483-4.518-15.085-2.6628-17.981 4.0113-1.1563 1.5353-0.85309 5.7734-0.87474 5.976-2.5603-7.3732-9.7909-12.596-17.587-12.772zm20.531 19.031c3.5548 3.4791 8.6747 4.1633 12.889 6.4693 1.8293 1.7473-0.10945 4.9753-2.4135 5.1889-2.935 0.96968-5.9989-0.62016-6.9017-3.5758-1.2663-2.66-2.3978-5.382-3.574-8.0824z" fill="#a10619" opacity=".15"/>
<path d="m36.75 29.062c-7.0711-0.23513-14.22 3.493-17.656 10.406-4.7915 9.6392-0.79358 21.134 8.9375 25.688 1.5277 0.71482 3.6399 1.4069 5.0312 1.5938 4.4452 0.59696 8.6655-0.20203 12.312-2.4062 1.2016-0.72627 2.4247-1.6737 3.375-2.5312 0.47516-0.4288 0.90538-0.83777 1.2188-1.2188s0.625-0.60172 0.625-1.3438c0-0.39131-0.06149-0.42349-0.125-0.625s-0.14695-0.44641-0.25-0.71875c-0.20609-0.54468-0.50152-1.2165-0.8125-1.9062l-1.125-2.4375a0.93161 0.93161 0 0 0-1.6562-0.09375l-0.5 0.875-0.03125 0.03125c-0.91879 1.4398-3.5727 3.7249-5.2812 4.5312-1.6428 0.77528-2.0552 0.84375-4.9062 0.84375-2.9671 0-3.2345-0.03422-5.0625-0.9375-2.3885-1.1803-4.6245-3.4706-5.7188-5.8125-0.76196-1.6308-0.8125-2.04-0.8125-5.0938 0-3.2021 0.0199-3.3649 0.9375-5.1875 1.028-2.0418 3.4391-4.4596 5.3438-5.4375 1.9867-1.0201 5.3114-1.5111 7.4688-1.0625 4.6035 0.95716 7.1531 3.2045 9.3438 8.2812 5.4589 12.651 7.1438 16.175 9 18.219 2.6063 2.87 5.1013 3.8367 9.6562 3.8438 3.1444 0.0049 4.0992-0.15406 6.0625-1.0625 4.4641-2.0656 6.8636-5.7941 6.8125-10.656-0.02921-2.78-0.69075-5.0104-2.4062-6.75s-4.3476-2.9667-8.25-4.25c-2.7629-0.90859-4.3727-1.6215-5.1562-2.25s-0.90625-1.0775-0.90625-2.2812c0-1.1358 0.34385-1.9389 0.9375-2.5s1.4856-0.90625 2.7188-0.90625c1.4853 0 2.0229 0.22773 3.3125 1.4375 0.38866 0.36458 0.76688 0.64486 1.2188 0.8125s0.96788 0.17761 1.4062 0.0625c0.74109-0.19459 1.5162-0.62068 2.2188-1.0625 0.35129-0.22091 0.67266-0.42353 0.9375-0.65625 0.13242-0.11636 0.25936-0.25531 0.375-0.40625s0.28125-0.32053 0.28125-0.75c0-0.42042-0.14205-0.64027-0.28125-0.875s-0.30233-0.456-0.5-0.6875c-0.39534-0.463-0.90762-0.9833-1.4688-1.4688-1.1223-0.9709-2.3597-1.8697-3.4688-2.25-4.1942-1.4383-8.9158-0.53472-11.75 2.4062-1.8871 1.9582-2.7534 4.1257-2.75 6.9688 3e-3 2.6541 0.73885 4.8594 2.5312 6.625s4.5209 3.1082 8.5 4.5c2.5503 0.89208 4.0167 1.565 4.7188 2.1875s0.84375 1.1549 0.84375 2.4375c0 1.395-0.5602 2.5301-1.5625 3.375s-2.4669 1.375-4.25 1.375c-2.2952 0-3.1632-0.31646-4.375-1.4688-0.56079-0.53325-0.97934-1.0273-1.7812-2.625s-1.9606-4.2333-3.9062-8.75c-1.8643-4.328-3.0658-6.9883-4.1562-8.9062s-2.0918-3.0957-3.375-4.2812c-3.3828-3.1253-7.6001-4.7026-11.844-4.8438z" fill="#a10619" opacity=".3"/>
<path d="m33.199 65.818c-1.1953-0.16052-3.3373-0.83651-4.76-1.5022-9.277-4.3409-13.073-15.254-8.5039-24.447 5.2266-10.514 19.472-13.195 28.042-5.2771 2.4752 2.2868 3.5855 4.2445 7.3076 12.885 3.8935 9.0385 4.6173 10.476 5.8818 11.678 1.3478 1.2816 2.5976 1.7081 5.0055 1.7081 3.9399 0 6.751-2.3661 6.751-5.6823 0-2.7945-1.0149-3.6997-6.1703-5.503-7.8503-2.746-10.394-5.251-10.399-10.242-0.0032-2.6776 0.69849-4.4754 2.4595-6.3027 2.5349-2.6304 6.9101-3.5205 10.78-2.1933 1.6396 0.56226 5.0928 3.5476 5.0928 4.4029 0 0.41395-1.9974 1.6828-3.1081 1.9745-0.58211 0.15285-1.0878-0.04043-1.7629-0.67371-1.3722-1.2872-2.3009-1.6845-3.938-1.6845-2.8313 0-4.5893 1.6642-4.5893 4.3442 0 2.673 1.1235 3.5811 6.6992 5.4147 7.6972 2.5313 9.9565 4.8133 10.012 10.113 0.048 4.5693-2.0567 7.8659-6.2655 9.8134-1.9156 0.88638-2.559 0.99885-5.6859 0.99398-4.4471-0.0069-6.4495-0.80172-8.9459-3.5506-1.6768-1.8464-3.3834-5.3135-8.8389-17.956-2.2616-5.2411-5.1712-7.8009-10.011-8.8072-2.4427-0.50787-5.8593-0.04068-8.0942 1.1068-2.1555 1.1067-4.5957 3.6064-5.7407 5.8805-0.93719 1.8615-1.0327 2.3796-1.0327 5.5998 0 3.0771 0.12117 3.8079 0.91192 5.5003 1.1982 2.5644 3.5538 4.9512 6.1549 6.2366 1.8743 0.92618 2.4612 1.038 5.4501 1.038 2.8803 0 3.6265-0.13069 5.3262-0.9328 1.9585-0.92426 4.5917-3.2125 5.6643-4.9223l0.55654-0.88714 1.102 2.4444c0.6061 1.3444 1.102 2.6294 1.102 2.8555 0 0.66782-2.4837 2.8976-4.76 4.2734-3.4609 2.0918-7.4324 2.8733-11.693 2.3011z" fill="#fff"/>
</g>
<rect transform="matrix(1.0692 0 0 1.0477 4.4442 38.894)" x="2" y="-30" width="75.966" height="69.024" rx="3.957" ry="3.957" clip-path="url(#clipPath4156-4-1)" fill="url(#linearGradient4767)" opacity=".50781"/>
</g>
</g>
</svg>
