<?xml version="1.0" encoding="UTF-8"?>
<!-- Created with Inkscape (http://www.inkscape.org/) -->
<svg version="1.0" viewBox="0 0 96 96" xmlns="http://www.w3.org/2000/svg" xmlns:cc="http://creativecommons.org/ns#" xmlns:dc="http://purl.org/dc/elements/1.1/" xmlns:rdf="http://www.w3.org/1999/02/22-rdf-syntax-ns#" xmlns:xlink="http://www.w3.org/1999/xlink">
<defs>
<linearGradient id="ButtonShadow" x1="45.448" x2="45.448" y1="92.54" y2="7.0165" gradientTransform="scale(1.0059 .99417)" gradientUnits="userSpaceOnUse">
<stop offset="0"/>
<stop stop-opacity=".58824" offset="1"/>
</linearGradient>
<linearGradient id="linearGradient3737">
<stop stop-color="#fff" offset="0"/>
<stop stop-color="#fff" stop-opacity="0" offset="1"/>
</linearGradient>
<filter id="filter3174" color-interpolation-filters="sRGB">
<feGaussianBlur stdDeviation="1.71"/>
</filter>
<linearGradient id="linearGradient4767" x1="2.7714" x2="50.528" y1="-28.642" y2="14.514" gradientUnits="userSpaceOnUse">
<stop stop-color="#fff" offset="0"/>
<stop stop-color="#fff" stop-opacity="0" offset="1"/>
</linearGradient>
<filter id="filter3174-3" color-interpolation-filters="sRGB">
<feGaussianBlur stdDeviation="1.71"/>
</filter>
<filter id="filter3174-5" color-interpolation-filters="sRGB">
<feGaussianBlur stdDeviation="1.71"/>
</filter>
<linearGradient id="linearGradient4071-3" x1="6" x2="90" y1="47" y2="47" gradientTransform="matrix(1.1071 0 0 1.1071 -4.9939 -3.6207)" gradientUnits="userSpaceOnUse">
<stop stop-color="#b2babc" offset="0"/>
<stop stop-color="#fff" offset=".25"/>
<stop stop-color="#96a1a4" offset=".5"/>
<stop stop-color="#fbf9f9" offset=".75"/>
<stop stop-color="#b2b9bc" offset="1"/>
</linearGradient>
<linearGradient id="linearGradient4129-2" x1="1.5" x2="94.5" y1="88.172" y2="88.172" gradientTransform="translate(.14895 .41503)" gradientUnits="userSpaceOnUse">
<stop offset="0"/>
<stop stop-opacity=".58824" offset=".1"/>
<stop stop-opacity=".58824" offset=".9"/>
<stop offset="1"/>
</linearGradient>
<radialGradient id="radialGradient7462-0" cx="13.948" cy="44.893" r="43.199" gradientTransform="matrix(.97513 0 0 .049191 34.048 80.582)" gradientUnits="userSpaceOnUse" xlink:href="#linearGradient3737"/>
<radialGradient id="radialGradient7464-6" cx="13.948" cy="44.893" r="43.199" gradientTransform="matrix(.88833 0 0 .049191 31.96 -90.317)" gradientUnits="userSpaceOnUse" xlink:href="#linearGradient3737"/>
<clipPath id="clipPath4156-4-1">
<path d="m27.046-55.695-14.214 13.321h0.06127l15.653 21.771 10.231-10.546c-0.2169-1.1522-11.311-23.67-11.732-24.546zm-17.399 16.313-14.888 14.062 21.229 17.515 10.385-10.577zm31.491 12.951-9.7413 9.7136 8.9448 12.458 7.7808-7.555zm-49.84 4.3788-13.754 12.982 26.283 13.846 0.06127-0.0617-0.12253-0.0617 9.8332-10.053-22.301-16.652zm38.015 7.4008-9.8025 9.7753 11.579 9.5594 7.6276-7.4008-8.6691-11.009zm20.187 5.674-7.3825 7.2158 6.1878 8.5418 5.8202-6.1365zm-32.195 6.3215-9.5575 9.4977 13.662 7.185 7.9339-7.6784zm23.312 2.3744-7.1068 6.9383 8.3628 6.9074 5.3608-5.674-0.06127-0.0925-0.0919 0.12335-6.4635-8.2026zm-8.7304 8.5418-7.5051 7.3392 10.354 5.4581c1.3975-1.321 5.6751-6.1229 5.8509-6.3215z" fill="#fff" opacity=".6"/>
</clipPath>
<filter id="filter1185" x="-.036" y="-.036" width="1.072" height="1.072" color-interpolation-filters="sRGB">
<feGaussianBlur stdDeviation="0.72000338"/>
</filter>
</defs>
<metadata>
<rdf:RDF>
<cc:Work rdf:about="">
<dc:format>image/svg+xml</dc:format>
<dc:type rdf:resource="http://purl.org/dc/dcmitype/StillImage"/>
<dc:title/>
</cc:Work>
</rdf:RDF>
</metadata>
<g display="none">
<rect x="5" y="7" width="86" height="85" rx="6" ry="6" fill="url(#ButtonShadow)" filter="url(#filter3174)" opacity=".9"/>
</g>
<g transform="translate(-1e-6,32)">
<g transform="translate(-8.044 -17.334)">
<g transform="translate(251.29 -104.9)">
<g display="none">
<rect x="5" y="7" width="86" height="85" rx="6" ry="6" fill="url(#ButtonShadow)" filter="url(#filter3174-3)" opacity=".9"/>
</g>
</g>
<g transform="translate(7.895 -15.081)">
<path d="m89.292 0.41503h-82.286c-3.7988 0-6.8571 3.0583-6.8571 6.8571v82.286c0 3.7989 3.0583 6.8571 6.8571 6.8571h82.286c3.7989 0 6.8571-3.0583 6.8571-6.8571v-82.286c0-3.7989-3.0583-6.8571-6.8571-6.8571z" opacity=".15"/>
<path d="m88.649 1.165h-81c-3.7395 0-6.75 3.0105-6.75 6.75v81c0 3.7395 3.0105 6.75 6.75 6.75h81c3.7395 0 6.75-3.0105 6.75-6.75v-81c0-3.7395-3.0105-6.75-6.75-6.75z" opacity=".15"/>
<path d="m88.006 1.915h-79.714c-3.6801 0-6.6429 2.9627-6.6429 6.6429v79.714c0 3.6801 2.9627 6.6429 6.6429 6.6429h79.714c3.6801 0 6.6429-2.9627 6.6429-6.6429v-79.714c0-3.6801-2.9627-6.6429-6.6429-6.6429z" fill="url(#linearGradient4071-3)"/>
<path d="m11.39 6.8022c-2.8565 0-5.1241 2.2884-5.1241 5.171v68.58c1.0972 1.6845 2.9688 2.8117 5.1241 2.8117h73.787c2.1553 0 4.0269-1.1272 5.1241-2.8117v-68.58c0-2.8826-2.2676-5.171-5.1241-5.171z" fill="#f2f5f8" opacity=".9"/>
<path d="m9.974 5.1445c-3.1166 0-5.668 2.5395-5.668 5.646v69.278c0 3.1065 2.5513 5.646 5.668 5.646h76.792c3.1166 0 5.668-2.5395 5.668-5.646v-69.278c0-3.1065-2.5513-5.646-5.668-5.646zm0 2.3194h76.792c1.8881 0 3.352 1.4801 3.352 3.3266v69.278c0 1.8465-1.4639 3.3266-3.352 3.3266h-76.792c-1.8881 0-3.352-1.4801-3.352-3.3266v-69.278c0-1.8465 1.4639-3.3266 3.352-3.3266z" color="#000000" fill="#1f2224" fill-opacity=".63265" style="text-decoration-line:none;text-indent:0;text-transform:none"/>
<path d="m1.649 82.259v6c0 3.6801 2.9761 6.6562 6.6562 6.6562h79.687c3.6801 0 6.6563-2.9761 6.6563-6.6562v-6c0 3.6801-2.9761 6.6562-6.6563 6.6562h-79.687c-3.6801 0-6.6562-2.9761-6.6562-6.6562z" fill="url(#linearGradient4129-2)" opacity=".65818"/>
<rect x="5.524" y="80.665" width="84.25" height="4.25" rx="0" ry="4.25" fill="url(#radialGradient7462-0)" opacity=".55"/>
<rect transform="rotate(90)" x="5.975" y="-90.234" width="76.75" height="4.25" rx="0" ry="4.25" fill="url(#radialGradient7464-6)" opacity=".669"/>
<g transform="translate(120.24 1.2668)">
<path d="m-79.241 8.4127c-4.4789 0.9333-8.6446 2.7274-12.344 5.1563 0.10781 2.6954-0.85119 5.4137-2.9062 7.4688s-4.7733 3.0141-7.4688 2.9062c-2.4288 3.6992-4.223 7.8648-5.1562 12.344 1.9982 1.8284 3.25 4.4531 3.25 7.375s-1.2518 5.5466-3.25 7.375c0.9333 4.4789 2.7274 8.6446 5.1562 12.344 2.6954-0.10781 5.4137 0.85119 7.4688 2.9062s3.0141 4.7733 2.9062 7.4688c3.6992 2.4288 7.8648 4.2229 12.344 5.1562 1.8284-1.9982 4.4531-3.25 7.375-3.25s5.5466 1.2518 7.375 3.25c4.4644-0.93028 8.6222-2.7083 12.312-5.125-0.0063-0.14435 0-0.29318 0-0.4375 0-2.5592 0.98488-5.1099 2.9375-7.0625 2.0551-2.0551 4.7733-3.0141 7.4688-2.9062 2.4288-3.6992 4.2229-7.8648 5.1562-12.344-1.9982-1.8284-3.25-4.4531-3.25-7.375s1.2518-5.5466 3.25-7.375c-0.9333-4.4789-2.7274-8.6446-5.1562-12.344-2.6954 0.10781-5.4137-0.85119-7.4688-2.9062-1.9526-1.9526-2.9375-4.5033-2.9375-7.0625 0-0.14432-0.0063-0.29315 0-0.4375-3.6903-2.4167-7.8481-4.1947-12.312-5.125-1.8284 1.9982-4.4531 3.25-7.375 3.25s-5.5466-1.2518-7.375-3.25z" color="#000000" fill="#2c87e0"/>
<path d="m-79.241 8.4127c-4.4789 0.9333-8.6446 2.7274-12.344 5.1563 0.10781 2.6954-0.85119 5.4137-2.9062 7.4688s-4.7733 3.0141-7.4688 2.9062c-2.4288 3.6992-4.223 7.8648-5.1562 12.344 1.9982 1.8284 3.25 4.4531 3.25 7.375s-1.2518 5.5466-3.25 7.375c0.9333 4.4789 2.7274 8.6446 5.1562 12.344 2.6954-0.10781 5.4137 0.85119 7.4688 2.9062s3.0141 4.7733 2.9062 7.4688c3.6992 2.4288 7.8648 4.2229 12.344 5.1562 1.8284-1.9982 4.4531-3.25 7.375-3.25s5.5466 1.2518 7.375 3.25c4.4644-0.93028 8.6222-2.7083 12.312-5.125-0.0063-0.14435 0-0.29318 0-0.4375 0-2.5592 0.98488-5.1099 2.9375-7.0625 2.0551-2.0551 4.7733-3.0141 7.4688-2.9062 2.4288-3.6992 4.2229-7.8648 5.1562-12.344-1.9982-1.8284-3.25-4.4531-3.25-7.375s1.2518-5.5466 3.25-7.375c-0.9333-4.4789-2.7274-8.6446-5.1562-12.344-2.6954 0.10781-5.4137-0.85119-7.4688-2.9062-1.9526-1.9526-2.9375-4.5033-2.9375-7.0625 0-0.14432-0.0063-0.29315 0-0.4375-3.6903-2.4167-7.8481-4.1947-12.312-5.125-1.8284 1.9982-4.4531 3.25-7.375 3.25s-5.5466-1.2518-7.375-3.25zm-0.625 2.8438c2.1765 1.8171 4.9563 2.9375 8 2.9375s5.8235-1.1204 8-2.9375c3.3494 0.83073 6.5311 2.1444 9.4062 3.9062 0.27421 2.7946 1.3126 5.5313 3.4375 7.6562 2.1415 2.1415 4.8835 3.3019 7.6875 3.5625 1.7378 2.8522 3.0519 5.9691 3.875 9.2812-1.8171 2.1765-2.9375 4.9563-2.9375 8s1.1204 5.8235 2.9375 8c-0.82307 3.3121-2.1372 6.4291-3.875 9.2812-2.804 0.26058-5.546 1.421-7.6875 3.5625-2.1249 2.1249-3.1633 4.8616-3.4375 7.6562-2.8751 1.7618-6.0569 3.0755-9.4062 3.9062-2.1765-1.8171-4.9563-2.9375-8-2.9375s-5.8235 1.1204-8 2.9375c-3.3121-0.82307-6.4291-2.1372-9.2812-3.875-0.26058-2.804-1.421-5.546-3.5625-7.6875s-4.8835-3.3019-7.6875-3.5625c-1.7378-2.8522-3.0519-5.9691-3.875-9.2812 1.8171-2.1765 2.9375-4.9563 2.9375-8s-1.1204-5.8235-2.9375-8c0.82307-3.3121 2.1372-6.4291 3.875-9.2812 2.804-0.26058 5.546-1.421 7.6875-3.5625s3.3019-4.8835 3.5625-7.6875c2.8522-1.7378 5.9691-3.0519 9.2812-3.875z" color="#000000" opacity=".05"/>
<path d="m-61.46 19.819c-7.9756 0-14.469 6.46-14.469 14.438v6.375h-6.3438c-7.9754 0-14.438 6.4628-14.438 14.438 0 7.9758 6.4624 14.438 14.438 14.438 7.9745 0 14.469-6.4593 14.469-14.438v-6.4062h6.3438c7.9722 0 14.438-6.4315 14.438-14.406 0-7.9752-6.463-14.438-14.438-14.438zm0 8.125c3.5081 0 6.3438 2.8082 6.3438 6.3125 0 3.5038-2.8446 6.375-6.3438 6.375h-6.1875c-0.11384 0-0.15625-0.04206-0.15625-0.15625v-6.2188c0.0059-3.5001 2.8407-6.3125 6.3438-6.3125zm-20.812 20.719h6.1875c0.11244 0 0.15625 0.04453 0.15625 0.15625v6.25c-5e-3 3.4973-2.8412 6.3125-6.3438 6.3125-3.508 0-6.3438-2.8089-6.3438-6.3125 0-3.5051 2.849-6.4062 6.3438-6.4062z" fill="#0a57a4" opacity=".1"/>
<path d="m-61.472 20.663c-7.5151 0-13.607 6.0918-13.607 13.606v0.0094 7.2014h-7.1794-0.0018c-7.5149 0-13.606 6.0621-13.606 13.576 0 7.5153 6.0918 13.607 13.606 13.607 7.514 0 13.606-6.0915 13.606-13.607v-0.0094-7.2313h7.1791 3e-3c7.514 0 13.606-6.0323 13.606-13.546 0-7.5146-6.0918-13.606-13.606-13.606zm-13.607 34.406c-0.0057 3.9595-3.2194 7.1695-7.1812 7.1695-3.966 0-7.2109-3.2152-7.2109-7.1812 0-3.9674 3.2449-7.2421 7.2109-7.2421h0.0094 6.1536 0.0046c0.56023 0 1.0145 0.45338 1.0145 1.0127 0 0.0011-6.89e-4 0.0011-6.89e-4 0.0025v6.2386h-2.3e-4zm13.606-13.589h-0.0067-6.1577-0.0037c-0.56023 0-1.0134-0.45315-1.0134-1.0138v-6.2087c0.0067-3.9618 3.2194-7.1706 7.1814-7.1706 3.966 0 7.2115 3.2155 7.2115 7.1821 0 3.9662-3.2456 7.2111-7.2115 7.2111z" fill="#010d19" filter="url(#filter1185)" opacity=".87"/>
<g transform="matrix(.22979 0 0 .22979 -98.974 12.791)" fill="#7fa3d4" fill-opacity=".87391">
<path d="m163.2 29.904c-32.704 0-59.213 26.51-59.213 59.212v0.041 31.339h-31.243-8e-3c-32.703 0-59.212 26.381-59.212 59.081 0 32.705 26.51 59.214 59.212 59.214 32.699 0 59.209-26.509 59.209-59.214v-0.041-31.469h31.242 0.013c32.699 0 59.209-26.251 59.209-58.951 0-32.702-26.51-59.212-59.209-59.212zm-59.213 149.73c-0.025 17.231-14.01 31.2-31.251 31.2-17.259 0-31.38-13.992-31.38-31.251 0-17.265 14.121-31.516 31.38-31.516h0.041 26.779 0.02c2.438 0 4.415 1.973 4.415 4.407 0 5e-3 -3e-3 5e-3 -3e-3 0.011v27.149zm59.21-59.137h-0.029-26.797-0.016c-2.438 0-4.41-1.972-4.41-4.412v-27.019c0.029-17.241 14.01-31.205 31.252-31.205 17.259 0 31.383 13.993 31.383 31.255 0 17.26-14.124 31.381-31.383 31.381z" fill="#7fa3d4" fill-opacity=".87391"/>
</g>
<path d="m-75.079 40.48v-7.2017-0.0094c0-7.5146 6.0915-13.606 13.607-13.606 1.14 0 1.95 0.12845 3.0052 0.40466 1.5389 0.40351 2.7956 1.6642 2.7963 3.1316 6.9e-4 1.774-1.2871 3.0636-3.2116 3.0636-0.91687 0-1.2482-0.17556-2.5907-0.17556-3.9621 0-7.1748 3.2088-7.1814 7.1706v6.2085c0 0.56069 0.45315 1.0138 1.0134 1.0138h0.0037 4.7158c1.7574 0 3.1766 1.407 3.178 3.1691 0 1.7627-1.4213 3.1665-3.178 3.1665h-5.7328v7.2313 0.0108c0 7.514-6.0918 13.605-13.606 13.605-1.1402 0-1.9502-0.12845-3.0054-0.40489-1.5389-0.40328-2.7961-1.6646-2.7968-3.1316 0-1.7735 1.2868-3.0636 3.2123-3.0636 0.91595 0 1.2482 0.17579 2.59 0.17579 3.9621 0 7.1757-3.209 7.1819-7.1695v-6.2409c0-0.55954-0.4543-1.0127-1.0145-1.0127h-0.0025-4.7156c-1.7579 0-3.1782-1.4024-3.1782-3.1656-4.6e-4 -1.7731 1.435-3.1697 3.2116-3.1697h5.6986v-2.29e-4z" fill="#fff"/>
<path d="m-79.241 8.4127c-4.4789 0.9333-8.6446 2.7274-12.344 5.1563 0.10781 2.6954-0.85119 5.4137-2.9062 7.4688s-4.7733 3.0141-7.4688 2.9062c-2.4288 3.6992-4.223 7.8648-5.1562 12.344 1.9982 1.8284 3.25 4.4531 3.25 7.375s-1.2518 5.5466-3.25 7.375c0.9333 4.4789 2.7274 8.6446 5.1562 12.344 2.6954-0.10781 5.4137 0.85119 7.4688 2.9062s3.0141 4.7733 2.9062 7.4688c3.6992 2.4288 7.8648 4.2229 12.344 5.1562 1.8284-1.9982 4.4531-3.25 7.375-3.25s5.5466 1.2518 7.375 3.25c4.4644-0.93028 8.6222-2.7083 12.312-5.125-0.0063-0.14435 0-0.29318 0-0.4375 0-2.5592 0.98488-5.1099 2.9375-7.0625 2.0551-2.0551 4.7733-3.0141 7.4688-2.9062 2.4288-3.6992 4.2229-7.8648 5.1562-12.344-1.9982-1.8284-3.25-4.4531-3.25-7.375s1.2518-5.5466 3.25-7.375c-0.9333-4.4789-2.7274-8.6446-5.1562-12.344-2.6954 0.10781-5.4137-0.85119-7.4688-2.9062-1.9526-1.9526-2.9375-4.5033-2.9375-7.0625 0-0.14432-0.0063-0.29315 0-0.4375-3.6903-2.4167-7.8481-4.1947-12.312-5.125-1.8284 1.9982-4.4531 3.25-7.375 3.25s-5.5466-1.2518-7.375-3.25zm-0.28125 2c2.0796 1.8168 4.6871 3.0625 7.6562 3.0625s5.5766-1.2457 7.6562-3.0625c3.7269 0.85882 7.2172 2.3384 10.375 4.3125 0.18175 2.7665 1.2094 5.4906 3.3125 7.5938 2.093 2.093 4.7886 3.0604 7.5312 3.25 1.9982 3.1773 3.5093 6.6851 4.375 10.438-1.8168 2.0796-3.0625 4.6871-3.0625 7.6562s1.2457 5.5766 3.0625 7.6562c-0.86573 3.7524-2.3768 7.2602-4.375 10.438-2.7426 0.18964-5.4383 1.157-7.5312 3.25-2.1031 2.1031-3.1307 4.8272-3.3125 7.5938-3.1578 1.9741-6.6481 3.4537-10.375 4.3125-2.0796-1.8168-4.6871-3.0625-7.6562-3.0625s-5.5766 1.2457-7.6562 3.0625c-3.7524-0.86573-7.2602-2.3768-10.438-4.375-0.18964-2.7426-1.157-5.4383-3.25-7.5312s-4.7886-3.0604-7.5313-3.25c-1.9982-3.1773-3.5093-6.6851-4.375-10.438 1.8168-2.0796 3.0625-4.6871 3.0625-7.6562s-1.2457-5.5766-3.0625-7.6562c0.86573-3.7524 2.3768-7.2602 4.375-10.438 2.7426-0.18964 5.4383-1.157 7.5313-3.25s3.0604-4.7886 3.25-7.5312c3.1773-1.9982 6.6851-3.5093 10.438-4.375z" color="#000000" opacity=".1"/>
<path d="m-79.241 8.4127c-4.4789 0.9333-8.6446 2.7274-12.344 5.1563 0.01348 0.33693 0.01992 0.6637 0 1 3.6992-2.4288 7.8648-4.2229 12.344-5.1563 1.8284 1.9982 4.4531 3.25 7.375 3.25s5.5466-1.2518 7.375-3.25c4.4644 0.93028 8.6222 2.7083 12.312 5.125-0.0063 0.14435 0 0.29318 0 0.4375 0 2.5592 0.98488 5.1099 2.9375 7.0625 2.0551 2.0551 4.7733 3.0141 7.4688 2.9062 2.2798 3.4721 3.9943 7.3639 4.9688 11.531 0.06355-0.0613 0.12234-0.12788 0.1875-0.1875-0.9333-4.4789-2.7274-8.6446-5.1562-12.344-2.6954 0.10781-5.4137-0.85119-7.4688-2.9062-1.9526-1.9526-2.9375-4.5033-2.9375-7.0625 0-0.14432-0.0063-0.29315 0-0.4375-3.6903-2.4167-7.8481-4.1947-12.312-5.125-1.8284 1.9982-4.4531 3.25-7.375 3.25s-5.5466-1.2518-7.375-3.25zm-12.344 6.1563c-0.13943 2.3541-1.1081 4.6706-2.9062 6.4688-2.0551 2.0551-4.7733 3.0141-7.4688 2.9062-2.4288 3.6992-4.223 7.8648-5.1562 12.344 0.0652 0.05962 0.12395 0.1262 0.1875 0.1875 0.9744-4.1674 2.689-8.0591 4.9688-11.531 2.6954 0.10781 5.4137-0.85119 7.4688-2.9062s3.0141-4.7733 2.9062-7.4688zm-12.313 29.594c-0.13337 2.7213-1.3348 5.1511-3.2188 6.875 0.0573 0.27491 0.12378 0.53999 0.1875 0.8125 1.8854-1.8185 3.0625-4.3609 3.0625-7.1875 0-0.16702-0.0232-0.33502-0.0313-0.5zm64.063 0c-0.0081 0.16498-0.03125 0.33298-0.03125 0.5 0 2.8266 1.1771 5.369 3.0625 7.1875 0.06372-0.27251 0.13022-0.53759 0.1875-0.8125-1.8839-1.7239-3.0854-4.1537-3.2188-6.875z" color="#000000" opacity=".3"/>
<path d="m-79.241 8.4127c-4.4789 0.9333-8.6446 2.7274-12.344 5.1563 0.10781 2.6954-0.85119 5.4137-2.9062 7.4688s-4.7733 3.0141-7.4688 2.9062c-2.4288 3.6992-4.223 7.8648-5.1562 12.344 1.9982 1.8284 3.25 4.4531 3.25 7.375s-1.2518 5.5466-3.25 7.375c0.9333 4.4789 2.7274 8.6446 5.1562 12.344 2.6954-0.10781 5.4137 0.85119 7.4688 2.9062s3.0141 4.7733 2.9062 7.4688c3.6992 2.4288 7.8648 4.2229 12.344 5.1562 1.8284-1.9982 4.4531-3.25 7.375-3.25s5.5466 1.2518 7.375 3.25c4.4644-0.93028 8.6222-2.7083 12.312-5.125-0.0063-0.14435 0-0.29318 0-0.4375 0-2.5592 0.98488-5.1099 2.9375-7.0625 2.0551-2.0551 4.7733-3.0141 7.4688-2.9062 2.4288-3.6992 4.2229-7.8648 5.1562-12.344-1.9982-1.8284-3.25-4.4531-3.25-7.375s1.2518-5.5466 3.25-7.375c-0.9333-4.4789-2.7274-8.6446-5.1562-12.344-2.6954 0.10781-5.4137-0.85119-7.4688-2.9062-1.9526-1.9526-2.9375-4.5033-2.9375-7.0625 0-0.14432-0.0063-0.29315 0-0.4375-3.6903-2.4167-7.8481-4.1947-12.312-5.125-1.8284 1.9982-4.4531 3.25-7.375 3.25s-5.5466-1.2518-7.375-3.25zm-0.1875 1c1.9621 1.9143 4.6087 3.1563 7.5625 3.1563 2.9622 0 5.6302-1.2323 7.5938-3.1563 4.0465 0.89669 7.8262 2.4922 11.219 4.6563 0.02501 2.7548 1.0914 5.4977 3.1875 7.5938 2.0832 2.0832 4.7983 3.0867 7.5312 3.125 2.193 3.4195 3.8171 7.2279 4.7188 11.312-1.9143 1.9621-3.1562 4.6087-3.1562 7.5625s1.2419 5.6004 3.1562 7.5625c-0.90165 4.0846-2.5257 7.893-4.7188 11.312-2.733 0.03831-5.4481 1.0418-7.5312 3.125-2.0961 2.0961-3.1625 4.8389-3.1875 7.5938-3.3925 2.164-7.1723 3.7596-11.219 4.6562-1.9635-1.9239-4.6316-3.1562-7.5938-3.1562-2.9538 0-5.6004 1.2419-7.5625 3.1562-4.0846-0.90165-7.893-2.5257-11.312-4.7188-0.03831-2.733-1.0418-5.4481-3.125-7.5312s-4.7983-3.0867-7.5313-3.125c-2.193-3.4195-3.8171-7.2279-4.7188-11.312 1.9143-1.9621 3.1562-4.6087 3.1562-7.5625s-1.242-5.6004-3.1562-7.5625c0.90165-4.0846 2.5257-7.893 4.7188-11.312 2.733-0.03831 5.4481-1.0418 7.5313-3.125s3.0867-4.7983 3.125-7.5312c3.4195-2.193 7.2279-3.8171 11.312-4.7188z" color="#000000" opacity=".15"/>
<path d="m-106.93 36.475c-0.0637 0.27251-0.13022 0.53759-0.1875 0.8125 1.8839 1.7239 3.0854 4.1537 3.2188 6.875 8e-3 -0.16498 0.0313-0.33298 0.0313-0.5 0-2.8266-1.1771-5.369-3.0625-7.1875zm70.125 0c-1.8854 1.8185-3.0625 4.3609-3.0625 7.1875 0 0.16702 0.02316 0.33502 0.03125 0.5 0.13337-2.7213 1.3348-5.1511 3.2188-6.875-0.05728-0.27491-0.12378-0.53999-0.1875-0.8125zm-70.125 15.375c-0.0635 0.0613-0.12234 0.12788-0.1875 0.1875 0.9333 4.4789 2.7274 8.6446 5.1562 12.344 2.6954-0.10781 5.4137 0.85119 7.4688 2.9062 1.7982 1.7982 2.7668 4.1146 2.9062 6.4688 0.10781-2.6954-0.85119-5.4137-2.9062-7.4688s-4.7733-3.0141-7.4688-2.9062c-2.2798-3.4721-3.9944-7.3639-4.9688-11.531zm15.344 21.906c0.01992 0.3363 0.01348 0.66307 0 1 3.6992 2.4288 7.8648 4.2229 12.344 5.1562 1.8284-1.9982 4.4531-3.25 7.375-3.25s5.5466 1.2518 7.375 3.25c4.4644-0.93028 8.6222-2.7083 12.312-5.125-0.0063-0.14435 0-0.29318 0-0.4375 0-2.5592 0.98488-5.1099 2.9375-7.0625 2.0551-2.0551 4.7733-3.0141 7.4688-2.9062 2.4288-3.6992 4.2229-7.8648 5.1562-12.344-0.06516-0.05962-0.12395-0.1262-0.1875-0.1875-0.9744 4.1674-2.689 8.0591-4.9688 11.531-2.6954-0.10781-5.4137 0.85119-7.4688 2.9062-1.9526 1.9526-2.9375 4.5033-2.9375 7.0625 0 0.14432-0.0063 0.29315 0 0.4375-3.6903 2.4167-7.8481 4.1947-12.312 5.125-1.8284-1.9982-4.4531-3.25-7.375-3.25s-5.5466 1.2518-7.375 3.25c-4.4789-0.9333-8.6446-2.7274-12.344-5.1562z" color="#000000" fill="#fff" opacity=".2"/>
</g>
<rect transform="matrix(1.0692 0 0 1.0477 4.4442 38.894)" x="2" y="-30" width="75.966" height="69.024" rx="3.957" ry="3.957" clip-path="url(#clipPath4156-4-1)" fill="url(#linearGradient4767)" opacity=".65"/>
</g>
</g>
</g>
<g display="none">
<rect x="5" y="7" width="86" height="85" rx="6" ry="6" fill="url(#ButtonShadow)" filter="url(#filter3174-5)" opacity=".9"/>
</g>
</svg>
