<?xml version="1.0" encoding="UTF-8"?>
<svg version="1.1" viewBox="0 0 96 96" xmlns="http://www.w3.org/2000/svg" xmlns:cc="http://creativecommons.org/ns#" xmlns:dc="http://purl.org/dc/elements/1.1/" xmlns:rdf="http://www.w3.org/1999/02/22-rdf-syntax-ns#" xmlns:xlink="http://www.w3.org/1999/xlink">
<title>Part of Lila HD icon Theme</title>
<metadata>
<rdf:RDF>
<cc:Work rdf:about="">
<dc:format>image/svg+xml</dc:format>
<dc:type rdf:resource="http://purl.org/dc/dcmitype/StillImage"/>
<dc:title>Part of Lila HD icon Theme</dc:title>
<dc:date>2017</dc:date>
<dc:creator>
<cc:Agent>
<dc:title>Cristian Pozzessere "ilnanny"</dc:title>
</cc:Agent>
</dc:creator>
<dc:subject>
<rdf:Bag>
<rdf:li>All</rdf:li>
</rdf:Bag>
</dc:subject>
<dc:description>a icon theme for gnu linux o.s.</dc:description>
</cc:Work>
</rdf:RDF>
</metadata>
<defs>
<linearGradient id="linearGradient4369" x1="2.5" x2="93.5" y1="11.141" y2="11.141" gradientTransform="matrix(.99479 0 0 .99479 -17.665 -22.041)" gradientUnits="userSpaceOnUse" xlink:href="#linearGradient4160"/>
<linearGradient id="linearGradient4160">
<stop stop-opacity="0" offset="0"/>
<stop stop-opacity=".96471" offset=".031756"/>
<stop stop-opacity="0" offset=".094256"/>
<stop stop-opacity="0" offset=".49595"/>
<stop stop-opacity="0" offset=".90526"/>
<stop stop-opacity=".98824" offset=".96241"/>
<stop stop-opacity="0" offset="1"/>
</linearGradient>
<linearGradient id="linearGradient4388" x1="2.5" x2="93.5" y1="54.297" y2="54.297" gradientTransform="matrix(.99479 0 0 .99479 -17.665 -22.069)" gradientUnits="userSpaceOnUse" xlink:href="#linearGradient4160"/>
<linearGradient id="linearGradient4334" x1="53.898" x2="27.952" y1="-69.457" y2="23.168" gradientTransform="matrix(.98406 0 0 .98192 -17.15 -10.097)" gradientUnits="userSpaceOnUse" spreadMethod="reflect">
<stop stop-color="#e3e9e9" offset="0"/>
<stop stop-color="#eef2f2" offset=".21972"/>
<stop stop-color="#f9fbfb" offset=".47878"/>
<stop stop-color="#fff" offset="1"/>
</linearGradient>
<linearGradient id="linearGradient4050">
<stop stop-color="#fff" offset="0"/>
<stop stop-color="#fff" stop-opacity="0" offset="1"/>
</linearGradient>
<linearGradient id="linearGradient4071" x1="6" x2="90" y1="47" y2="47" gradientTransform="matrix(1.1295 0 0 1.1278 -40.01 -46.254)" gradientUnits="userSpaceOnUse">
<stop stop-color="#b7b7b7" offset="0"/>
<stop stop-color="#fff" offset=".25"/>
<stop stop-color="#9d9d9d" offset=".5"/>
<stop stop-color="#fafafa" offset=".75"/>
<stop stop-color="#b7b7b7" offset="1"/>
</linearGradient>
<radialGradient id="radialGradient4073" cx="158" cy="6.2132" r="41" gradientTransform="matrix(0 1.6209 -2.0383 0 160.66 -243.04)" gradientUnits="userSpaceOnUse" xlink:href="#linearGradient4050"/>
<radialGradient id="radialGradient4075" cx="48" cy="-27" r="42" gradientTransform="matrix(-1.0722 0 0 -.87502 199.46 -19.126)" gradientUnits="userSpaceOnUse">
<stop stop-color="#fff" offset="0"/>
<stop stop-color="#fff" offset=".8"/>
<stop stop-color="#fff" stop-opacity="0" offset="1"/>
</radialGradient>
<linearGradient id="linearGradient4767" x1="2.7714" x2="50.528" y1="-28.642" y2="14.514" gradientUnits="userSpaceOnUse" xlink:href="#linearGradient4050"/>
<linearGradient id="linearGradient4129" x1="1.5" x2="94.5" y1="88.172" y2="88.172" gradientTransform="matrix(1.0202 0 0 1.0186 -34.763 -42.143)" gradientUnits="userSpaceOnUse">
<stop offset="0"/>
<stop stop-opacity=".58824" offset=".1"/>
<stop stop-opacity=".58824" offset=".9"/>
<stop offset="1"/>
</linearGradient>
<radialGradient id="radialGradient4139" cx="13.948" cy="44.893" r="43.199" gradientTransform="matrix(.99479 0 0 .050107 -.18106 39.516)" gradientUnits="userSpaceOnUse" xlink:href="#linearGradient4050"/>
<radialGradient id="radialGradient4143" cx="13.948" cy="44.893" r="43.199" gradientTransform="matrix(.90487 0 0 .050182 -10.836 -57.774)" gradientUnits="userSpaceOnUse" xlink:href="#linearGradient4050"/>
<radialGradient id="radialGradient4553" cx="47.699" cy="55.411" r="41.47" gradientTransform="matrix(1.0716 0 0 .06448 -21.157 65.079)" gradientUnits="userSpaceOnUse">
<stop offset="0"/>
<stop stop-opacity="0" offset="1"/>
</radialGradient>
<linearGradient id="linearGradient4740" x1="45.448" x2="45.448" y1="92.54" y2="7.0165" gradientTransform="scale(1.0059 .99417)" gradientUnits="userSpaceOnUse" xlink:href="#ButtonShadow"/>
<linearGradient id="ButtonShadow" x1="45.448" x2="45.448" y1="92.54" y2="7.0165" gradientTransform="scale(1.0059 .99417)" gradientUnits="userSpaceOnUse">
<stop offset="0"/>
<stop stop-opacity=".58824" offset="1"/>
</linearGradient>
<filter id="filter3174-3-13" color-interpolation-filters="sRGB">
<feGaussianBlur stdDeviation="1.71"/>
</filter>
<clipPath id="clipPath4156-4-2">
<path d="m27.046-55.695-14.214 13.321h0.06127l15.653 21.771 10.231-10.546c-0.2169-1.1522-11.311-23.67-11.732-24.546zm-17.399 16.313-14.888 14.062 21.229 17.515 10.385-10.577zm31.491 12.951-9.7413 9.7136 8.9448 12.458 7.7808-7.555zm-49.84 4.3788-13.754 12.982 26.283 13.846 0.06127-0.0617-0.12253-0.0617 9.8332-10.053-22.301-16.652zm38.015 7.4008-9.8025 9.7753 11.579 9.5594 7.6276-7.4008-8.6691-11.009zm20.187 5.674-7.3825 7.2158 6.1878 8.5418 5.8202-6.1365zm-32.195 6.3215-9.5575 9.4977 13.662 7.185 7.9339-7.6784zm23.312 2.3744-7.1068 6.9383 8.3628 6.9074 5.3608-5.674-0.06127-0.0925-0.0919 0.12335-6.4635-8.2026zm-8.7304 8.5418-7.5051 7.3392 10.354 5.4581c1.3975-1.321 5.6751-6.1229 5.8509-6.3215z" fill="#fff" opacity=".6"/>
</clipPath>
<filter id="filter3174-53" color-interpolation-filters="sRGB">
<feGaussianBlur stdDeviation="1.71"/>
</filter>
<filter id="filter3174" color-interpolation-filters="sRGB">
<feGaussianBlur stdDeviation="1.71"/>
</filter>
</defs>
<g transform="translate(2.4186e-7 32)">
<g transform="translate(17.652 -9.3983)">
<g transform="translate(-17.652 57.398)">
<g transform="matrix(1.0034 0 0 1.005 33.489 -38.527)">
<g transform="matrix(.97179 0 0 .97179 .40799 .18323)">
<g transform="matrix(.97683 0 0 .88201 -15.184 -19.388)">
<g transform="matrix(2.4073 0 0 2.3839 -22.677 -343.67)">
<g transform="translate(-4.0678 133.22)">
<!-- color: #eeeeee --></g>
</g>
<g transform="translate(.26245 -.29023)">
<path transform="matrix(1.0534 0 0 1.1667 15.114 21.768)" d="m55-40.771h-81.576c-3.7661 0-6.798 3.0273-6.798 6.7878v81.453c0 3.7604 3.0319 6.7878 6.798 6.7878h81.576c3.7661 0 6.798-3.0273 6.798-6.7878v-81.453c0-3.7604-3.0319-6.7878-6.798-6.7878z" opacity=".15" stroke-width=".99479"/>
<path transform="matrix(1.0534 0 0 1.1667 15.114 21.768)" d="m54.363-40.029h-80.302c-3.7072 0-6.6918 2.98-6.6918 6.6817v80.18c0 3.7017 2.9845 6.6817 6.6918 6.6817h80.302c3.7073 0 6.6918-2.98 6.6918-6.6817v-80.18c0-3.7017-2.9845-6.6817-6.6918-6.6817z" opacity=".15" stroke-width=".99479"/>
<path transform="matrix(1.0237 0 0 1.1338 15.544 21.982)" d="m54.865-40.615h-81.321c-3.7543 0-6.7768 3.0179-6.7768 6.7666v81.199c0 3.7487 3.0224 6.7666 6.7768 6.7666h81.321c3.7543 0 6.7768-3.0179 6.7768-6.7666v-81.199c0-3.7487-3.0224-6.7666-6.7768-6.7666z" fill="url(#linearGradient4071)" stroke="#000" stroke-opacity=".11494" stroke-width=".99479"/>
<g transform="matrix(1.1562 0 0 1.2786 -141.04 -29.821)">
<path d="m112 5.5c-2.7873 0-5 2.2127-5 5v66.312c1.0707 1.6288 2.8969 2.7188 5 2.7188h72c2.1031 0 3.9293-1.09 5-2.7188v-66.312c0-2.7873-2.2127-5-5-5z" fill="url(#radialGradient4073)" opacity=".2"/>
<path d="m112 4.5c-3.324 0-6 2.676-6 6v15h1v-15c0-2.7873 2.2127-5 5-5h72c2.7873 0 5 2.2127 5 5v15h1v-15c0-3.324-2.676-6-6-6z" fill="url(#radialGradient4075)" opacity=".45"/>
</g>
<path transform="matrix(1.0237 0 0 1.1338 15.544 21.982)" d="m-33.233 41.225v6.1117c0 3.7487 3.0361 6.7802 6.7904 6.7802h81.294c3.7543 0 6.7904-3.0315 6.7904-6.7802v-6.1117c0 3.7487-3.0361 6.7802-6.7904 6.7802h-81.294c-3.7543 0-6.7904-3.0315-6.7904-6.7802z" fill="url(#linearGradient4129)" opacity=".65" stroke-width="1.0194"/>
<rect transform="matrix(1.0237 0 0 1.1338 15.544 21.982)" x="-29.28" y="39.601" width="85.948" height="4.3291" rx="0" ry="4.3291" fill="url(#radialGradient4139)" opacity=".55" stroke-width=".99479"/>
<rect transform="matrix(0 1.1338 -1.0237 0 15.544 21.982)" x="-37.305" y="-57.689" width="78.179" height="4.3357" rx="0" ry="4.3357" fill="url(#radialGradient4143)" opacity=".55" stroke-width=".99479"/>
<path d="m-11.572-19.865c-2.1713 0-3.917 1.7457-3.917 3.917v11.938c0-2.1713 1.7457-3.917 3.917-3.917h83.314c2.1713 0 3.917 1.7457 3.917 3.917v-11.938c0-2.1713-1.7457-3.917-3.917-3.917z" opacity="0" stroke-width=".99479"/>
<rect transform="scale(1,-1)" x="-15.182" y="-70.976" width="90.534" height="90.337" rx="3.8939" ry="3.8855" fill="url(#linearGradient4334)" stroke="#738589" stroke-width=".98726"/>
<path d="m-11.276-19.558c-2.1572 0-3.9055 1.7522-3.9055 3.9144v3.9452c0-2.1621 1.7482-3.9144 3.9055-3.9144h82.722c2.1572 0 3.9055 1.7522 3.9055 3.9144v-3.9452c0-2.1621-1.7482-3.9144-3.9055-3.9144z" fill="#d1e0dc" stroke="#738589" stroke-width=".98726"/>
<path d="m-11.276-11.668c-2.1572 0-3.9055 1.7522-3.9055 3.9144v3.9452c0-2.1621 1.7482-3.9144 3.9055-3.9144h82.722c2.1572 0 3.9055 1.7522 3.9055 3.9144v-3.9452c0-2.1621-1.7482-3.9144-3.9055-3.9144z" fill="#e4e8e8" stroke="#738589" stroke-width=".98726"/>
<path d="m-11.276-15.613c-2.1572 0-3.9055 1.7522-3.9055 3.9144v3.9452c0-2.1621 1.7482-3.9144 3.9055-3.9144h82.722c2.1572 0 3.9055 1.7522 3.9055 3.9144v-3.9452c0-2.1621-1.7482-3.9144-3.9055-3.9144z" fill="#e8e3e9" stroke="#738589" stroke-width=".98726"/>
<rect x="-14.481" y="65.978" width="88.879" height="5.348" fill="url(#radialGradient4553)" opacity=".6" stroke-width=".99479"/>
<path d="m-11.292-19.367c-2.1572 0-3.8859 1.7334-3.8859 3.8859v12.932c0-2.1525 2.0764-4.7597 4.2336-4.7552l82.58 0.17385c2.1572 0.00457 3.7121 2.4288 3.7121 4.5813v-12.932c0-2.1525-1.7287-3.8859-3.8859-3.8859z" fill="url(#linearGradient4369)" opacity=".361" stroke-width=".99479"/>
<path d="m-11.292-7.054c-2.1572 0-3.8859 1.7334-3.8859 3.8859v70.226c0 2.1525 1.7287 3.8859 3.8859 3.8859h82.754c2.1572 0 3.8859-1.7334 3.8859-3.8859v-70.226c0-2.1525-1.7287-3.8859-3.8859-3.8859z" fill="url(#linearGradient4388)" opacity=".356" stroke-width=".99479"/>
<g transform="matrix(2.3948 0 0 2.3715 -30.01 -23.142)" opacity=".1">
<path d="m29.04 29.645-0.527-2.75h-0.125c-0.871 1.211-1.742 2.031-2.613 2.473-0.859 0.418-1.938 0.633-3.234 0.633-1.727 0-3.09-0.496-4.066-1.484-0.98-0.984-1.477-2.391-1.477-4.215 0-3.902 2.82-5.945 8.457-6.137l2.977-0.102v-1.203c0-1.516-0.309-2.633-0.898-3.348-0.59-0.73-1.52-1.094-2.813-1.094-1.457 0-3.105 0.496-4.941 1.48l-0.816-2.238c0.859-0.52 1.805-0.926 2.82-1.219 1.027-0.293 2.063-0.441 3.09-0.441 2.082 0 3.621 0.512 4.621 1.531 1.012 1.027 1.512 2.664 1.512 4.922v13.184h-1.957m-5.977-2.063c1.648 0 2.941-0.5 3.875-1.5 0.945-1 1.414-2.395 1.414-4.199v-1.742l-2.641 0.121c-2.105 0.082-3.621 0.445-4.566 1.094-0.926 0.637-1.383 1.629-1.383 2.977 0 1.059 0.285 1.867 0.859 2.414 0.586 0.555 1.398 0.828 2.438 0.828"/>
</g>
<g transform="matrix(2.3948 0 0 2.3715 -32.405 -25.513)" fill="#364250">
<g fill="#364250">
<path d="m29.04 29.645-0.527-2.75h-0.125c-0.871 1.211-1.742 2.031-2.613 2.473-0.859 0.418-1.938 0.633-3.234 0.633-1.727 0-3.09-0.496-4.066-1.484-0.98-0.984-1.477-2.391-1.477-4.215 0-3.902 2.82-5.945 8.457-6.137l2.977-0.102v-1.203c0-1.516-0.309-2.633-0.898-3.348-0.59-0.73-1.52-1.094-2.813-1.094-1.457 0-3.105 0.496-4.941 1.48l-0.816-2.238c0.859-0.52 1.805-0.926 2.82-1.219 1.027-0.293 2.063-0.441 3.09-0.441 2.082 0 3.621 0.512 4.621 1.531 1.012 1.027 1.512 2.664 1.512 4.922v13.184h-1.957m-5.977-2.063c1.648 0 2.941-0.5 3.875-1.5 0.945-1 1.414-2.395 1.414-4.199v-1.742l-2.641 0.121c-2.105 0.082-3.621 0.445-4.566 1.094-0.926 0.637-1.383 1.629-1.383 2.977 0 1.059 0.285 1.867 0.859 2.414 0.586 0.555 1.398 0.828 2.438 0.828" fill="#364250"/>
</g>
</g>
<g transform="matrix(2.3948 0 0 2.3715 -20.567 -25.513)">
<path transform="translate(4.0678 -133.22)" d="m10.223 167.22-5.6691 2 5.6691 1.996h19.965s0.74243-0.324 0.74243-1.996c0-1.613-0.83474-2-0.83474-2z" opacity=".1" stroke-width="1.1484"/>
<path d="m32.936 37s0.74243-0.324 0.74243-1.996c0-1.613-0.83474-2-0.83474-2h-19.873l-5.6665 2 5.6665 1.996" fill="#ffd303"/>
<path d="m12.978 33-5.6704 2 5.6704 1.996" fill="#ffc13d"/>
<path d="m9.9452 34.06-2.6374 0.938 2.6374 0.941" fill="#2d2d2d"/>
<path d="m29.726 33v4h3.215s0.74243-0.324 0.74243-2c0-1.613-0.82419-2-0.82419-2" fill="#b90000"/>
<path d="m13.104 33.954h16.624" fill="none" stroke="#000" stroke-width=".52921px"/>
<path d="m13.104 34.928h16.624" fill="none" stroke="#000" stroke-width=".52921px"/>
<path d="m13.104 35.902h16.624" fill="none" stroke="#000" stroke-width=".52921px"/>
<path d="m13.104 33.077h16.624" fill="none" stroke="#000" stroke-width=".21168"/>
<path d="m13.104 36.778h16.624" fill="none" stroke="#000" stroke-width=".21168"/>
</g>
<g transform="matrix(1.0444 0 0 1.1549 -87.924 -181.84)" opacity=".522">
<g transform="translate(0 -6)" style="">
<g style="">
<g transform="translate(-1e-6,32)" style="">
<g transform="translate(-8.044 -17.334)" style="">
<g transform="translate(251.29 -104.9)" style="">
<g display="none">
<rect x="5" y="7" width="86" height="85" rx="6" ry="6" fill="url(#linearGradient4740)" filter="url(#filter3174-3-13)" opacity=".9"/>
</g>
</g>
<g transform="translate(0 6)" style="">
<rect transform="matrix(.99759 0 0 1.0044 75.701 156.15)" x="2" y="-30" width="92" height="92" rx="3.957" ry="3.957" clip-path="url(#clipPath4156-4-2)" fill="url(#linearGradient4767)"/>
</g>
</g>
</g>
<g display="none">
<rect x="5" y="7" width="86" height="85" rx="6" ry="6" fill="url(#linearGradient4740)" filter="url(#filter3174-53)" opacity=".9"/>
</g>
</g>
<g display="none">
<rect x="5" y="7" width="86" height="85" rx="6" ry="6" fill="url(#linearGradient4740)" filter="url(#filter3174)" opacity=".9"/>
</g>
</g>
<g transform="translate(0 42)" style="">
<g style="">
<!-- color: #eeeeee --></g>
</g>
</g>
</g>
</g>
</g>
</g>
</g>
</g>
</g>
<g transform="matrix(1.9444 0 0 1.9444 -29.212 -161.7)">
<g transform="translate(-4.0678 133.22)">
<g>
<g transform="translate(1,1)">
<g opacity=".1">
<!-- color: #eeeeee -->
<g></g>
</g>
</g>
</g>
</g>
</g>
</svg>
