<?xml version="1.0" encoding="UTF-8"?>
<!-- Created with Inkscape (http://www.inkscape.org/) -->
<svg version="1.1" viewBox="0 0 96 96" xmlns="http://www.w3.org/2000/svg" xmlns:cc="http://creativecommons.org/ns#" xmlns:dc="http://purl.org/dc/elements/1.1/" xmlns:rdf="http://www.w3.org/1999/02/22-rdf-syntax-ns#" xmlns:xlink="http://www.w3.org/1999/xlink">
<defs>
<linearGradient id="linearGradient4071" x1="6" x2="90" y1="47" y2="47" gradientTransform="matrix(.55126 0 0 .55126 -2.4607 -1.9094)" gradientUnits="userSpaceOnUse">
<stop stop-color="#b2babc" offset="0"/>
<stop stop-color="#fff" offset=".25"/>
<stop stop-color="#96a1a4" offset=".5"/>
<stop stop-color="#fbf9f9" offset=".75"/>
<stop stop-color="#b2b9bc" offset="1"/>
</linearGradient>
<linearGradient id="linearGradient4129" x1="1.5" x2="94.5" y1="88.172" y2="88.172" gradientTransform="matrix(.49792 0 0 .49792 .099999 .1)" gradientUnits="userSpaceOnUse">
<stop offset="0"/>
<stop stop-opacity=".58824" offset=".1"/>
<stop stop-opacity=".58824" offset=".9"/>
<stop offset="1"/>
</linearGradient>
<radialGradient id="radialGradient7462" cx="13.948" cy="44.893" r="43.199" gradientTransform="matrix(.48554 0 0 .024493 16.979 40.016)" gradientUnits="userSpaceOnUse" xlink:href="#linearGradient3737"/>
<linearGradient id="linearGradient3737">
<stop stop-color="#fff" offset="0"/>
<stop stop-color="#fff" stop-opacity="0" offset="1"/>
</linearGradient>
<radialGradient id="radialGradient7464" cx="13.948" cy="44.893" r="43.199" gradientTransform="matrix(.44231 0 0 .024493 15.807 -44.996)" gradientUnits="userSpaceOnUse" xlink:href="#linearGradient3737"/>
<linearGradient id="linearGradient4767" x1="2.7714" x2="50.528" y1="-28.642" y2="14.514" gradientUnits="userSpaceOnUse" xlink:href="#linearGradient3737"/>
<clipPath id="clipPath4156-4-1">
<path d="m27.046-55.695-14.214 13.321h0.06127l15.653 21.771 10.231-10.546c-0.2169-1.1522-11.311-23.67-11.732-24.546zm-17.399 16.313-14.888 14.062 21.229 17.515 10.385-10.577zm31.491 12.951-9.7413 9.7136 8.9448 12.458 7.7808-7.555zm-49.84 4.3788-13.754 12.982 26.283 13.846 0.06127-0.0617-0.12253-0.0617 9.8332-10.053-22.301-16.652zm38.015 7.4008-9.8025 9.7753 11.579 9.5594 7.6276-7.4008-8.6691-11.009zm20.187 5.674-7.3825 7.2158 6.1878 8.5418 5.8202-6.1365zm-32.195 6.3215-9.5575 9.4977 13.662 7.185 7.9339-7.6784zm23.312 2.3744-7.1068 6.9383 8.3628 6.9074 5.3608-5.674-0.06127-0.0925-0.0919 0.12335-6.4635-8.2026zm-8.7304 8.5418-7.5051 7.3392 10.354 5.4581c1.3975-1.321 5.6751-6.1229 5.8509-6.3215z" fill="#fff" opacity=".6"/>
</clipPath>
<filter id="filter947" x="-.024382" y="-.046432" width="1.0488" height="1.0929" color-interpolation-filters="sRGB">
<feGaussianBlur stdDeviation="0.31046876"/>
</filter>
<filter id="filter951" x="-.024382" y="-.046434" width="1.0488" height="1.0929" color-interpolation-filters="sRGB">
<feGaussianBlur stdDeviation="0.31046876"/>
</filter>
</defs>
<metadata>
<rdf:RDF>
<cc:Work rdf:about="">
<dc:format>image/svg+xml</dc:format>
<dc:type rdf:resource="http://purl.org/dc/dcmitype/StillImage"/>
<dc:title/>
<dc:date>2018</dc:date>
<dc:creator>
<cc:Agent>
<dc:title>Cristian Pozzessere  == ilnanny ==</dc:title>
</cc:Agent>
</dc:creator>
<dc:subject>
<rdf:Bag>
<rdf:li>Global language</rdf:li>
</rdf:Bag>
</dc:subject>
<dc:description>Playing with Inkscape on Gnu/Linux O. S.</dc:description>
<dc:contributor>
<cc:Agent>
<dc:title>In the night, alone like a dog.</dc:title>
</cc:Agent>
</dc:contributor>
</cc:Work>
</rdf:RDF>
</metadata>
<g transform="matrix(2.0084 0 0 2.0084 -.20084 -.20084)">
<path d="m44.486 0.1h-40.971c-1.8915 0-3.4143 1.5228-3.4143 3.4143v40.971c0 1.8915 1.5228 3.4143 3.4143 3.4143h40.971c1.8915 0 3.4143-1.5228 3.4143-3.4143v-40.971c0-1.8915-1.5228-3.4143-3.4143-3.4143z" opacity=".15"/>
<path d="m44.166 0.47344h-40.331c-1.862 0-3.3609 1.499-3.3609 3.3609v40.331c0 1.862 1.499 3.3609 3.3609 3.3609h40.331c1.862 0 3.3609-1.499 3.3609-3.3609v-40.331c0-1.862-1.499-3.3609-3.3609-3.3609z" opacity=".15"/>
<path d="m43.846 0.84687h-39.691c-1.8324 0-3.3076 1.4752-3.3076 3.3076v39.691c0 1.8324 1.4752 3.3076 3.3076 3.3076h39.691c1.8324 0 3.3076-1.4752 3.3076-3.3076v-39.691c0-1.8324-1.4752-3.3076-3.3076-3.3076z" fill="url(#linearGradient4071)"/>
<path d="m5.6972 3.2803c-1.4223 0-2.5514 1.153-2.5514 2.6055v34.556c0.54633 0.84876 1.4782 1.4167 2.5514 1.4167h37.521c1.0732 0 1.2236 0.01811 1.7699-0.83064v-35.142c0-1.4525-1.1291-2.6055-2.5514-2.6055z" fill="#007de5" opacity=".98"/>
<path d="m4.9921 2.4549c-1.5518 0-2.8222 1.2645-2.8222 2.8112v34.495c0 1.5468 1.2704 2.8112 2.8222 2.8112h38.236c1.5518 0 2.8222-1.2645 2.8222-2.8112v-34.495c0-1.5468-1.2704-2.8112-2.8222-2.8112zm0 1.1549h38.236c0.94012 0 1.669 0.73696 1.669 1.6564v34.495c0 0.91939-0.72891 1.6564-1.669 1.6564h-38.236c-0.94012 0-1.669-0.73696-1.669-1.6564v-34.495c0-0.91939 0.72891-1.6564 1.669-1.6564z" color="#000000" fill="#1f2224" fill-opacity=".8087" style="text-decoration-line:none;text-indent:0;text-transform:none"/>
<path d="m0.84687 40.851v2.9875c0 1.8324 1.4819 3.3143 3.3143 3.3143h39.678c1.8324 0 3.3143-1.4819 3.3143-3.3143v-2.9875c0 1.8324-1.4819 3.3143-3.3143 3.3143h-39.678c-1.8324 0-3.3143-1.4819-3.3143-3.3143z" fill="url(#linearGradient4129)" opacity=".65818"/>
<rect x="2.7763" y="40.058" width="41.949" height="2.1161" rx="2.1161" ry="2.1161" fill="url(#radialGradient7462)" opacity=".55"/>
<path d="m9.9707 22.432c-1.7159-0.02972-2.881 1.7863-2.5072 3.3803 0.71016 7.1268 6.5585 13.473 13.688 14.528 5.7602 0.99279 12.086-1.0634 15.729-5.7363 1.4764-1.9213 2.7327-4.1209 3.2004-6.5187 0.28963-2.1876-2.69-3.5858-4.2552-2.1117-1.1026 1.2175-1.0777 2.9389-2.1484 4.2886-1.7934 3.012-5.0833 5.0386-8.6084 5.1348-3.6819 0.36383-7.5592-1.0342-9.8328-4.0235-0.64884-0.97536-1.8007-2.2259-0.21731-2.7926 1.1164-1.3087 0.40531-3.3816-1.0901-4.0484-1.1864-0.69845-2.2228-1.7248-3.573-2.0759l-0.38516-0.02444zm0.023437 2.0898c1.1609 0.54826 2.1755 1.4095 3.2774 2.084 0.82757 1.2751-0.9727 0.47448-1.5581 0.94243-0.91104 0.73608-0.01268 1.8879 0.31709 2.6805 2.1463 4.4896 7.0052 7.4233 11.969 7.2931 4.374 0.11064 8.7768-2.0025 11.165-5.7197 0.87964-1.2832 1.5306-2.713 1.9723-4.2018 1.7963-0.30792 0.09599 2.2829-0.23133 3.1373-2.1502 4.4027-6.7258 7.4515-11.623 7.6946-4.8786 0.46977-9.9524-1.6453-12.824-5.6687-1.6602-2.294-2.9822-5.0702-2.9015-7.953 0.065988-0.1764 0.25146-0.29183 0.43731-0.28876z" color="#000000" color-rendering="auto" dominant-baseline="auto" fill="#1a1a1a" filter="url(#filter951)" image-rendering="auto" opacity=".47" shape-rendering="auto" solid-color="#000000" style="font-feature-settings:normal;font-variant-alternates:normal;font-variant-caps:normal;font-variant-ligatures:normal;font-variant-numeric:normal;font-variant-position:normal;isolation:auto;mix-blend-mode:normal;shape-padding:0;text-decoration-color:#000000;text-decoration-line:none;text-decoration-style:solid;text-indent:0;text-orientation:mixed;text-transform:none;white-space:normal"/>
<rect transform="rotate(90)" x="2.8684" y="-44.955" width="38.215" height="2.1161" rx="2.1161" ry="2.1161" fill="url(#radialGradient7464)" opacity=".669"/>
<path d="m37.5 28s-2.5 10-13.5 10c-10 0-14-9-14-13l3 2" fill="none" stroke="#f4f5f5" stroke-linecap="round" stroke-linejoin="round" stroke-width="2"/>
<path d="m24 7.4316c-5.6834-0.11966-11.354 2.89-14.197 7.8595-0.85377 1.6057-1.9075 3.3114-1.8651 5.1843 0.21355 2.28 3.7111 2.9727 4.7525 0.91576 0.5067-1.3788 1.0367-2.9358 2.0072-4.2132 1.8937-2.8651 5.23-4.5835 8.6509-4.5968 4.1365-0.32656 8.5531 1.7739 10.349 5.6174 0.55777 0.95641-1.7298 1.4476-1.2587 2.85-0.02451 1.7492 1.7496 2.4226 2.9416 3.2924 1.0921 0.78911 2.4612 1.7263 3.8135 0.89129 2.0022-1.0505 1.3471-3.6035 0.93894-5.3663-1.6343-6.1414-6.9277-11.265-13.284-12.206-0.94108-0.15462-1.895-0.2286-2.8486-0.22851zm0 2.0898c4.9349-0.11031 9.7674 2.5729 12.296 6.8135 1.2354 2.0757 2.3063 4.4896 2.1175 6.9473-0.6755 0.53226-1.3504-0.4813-1.9889-0.75684-0.63649-0.4985-1.4673-0.81714-1.9613-1.4494 0.13617-1.1817 1.4542 0.1248 1.9752-0.76678 0.72844-0.9889-0.40386-2.109-0.73314-3.0369-2.2794-4.3074-7.1051-6.9909-11.955-6.7922-4.3854-0.04915-8.7426 2.1782-11.063 5.9393-0.89133 1.2262-1.3324 2.7394-1.9359 4.0687-1.6954-0.14242 0.15836-2.4875 0.4564-3.4423 2.1823-4.295 6.6976-7.235 11.509-7.4779 0.42676-0.031474 0.85471-0.04655 1.2826-0.046548z" color="#000000" color-rendering="auto" dominant-baseline="auto" fill="#1a1a1a" filter="url(#filter947)" image-rendering="auto" opacity=".47" shape-rendering="auto" solid-color="#000000" style="font-feature-settings:normal;font-variant-alternates:normal;font-variant-caps:normal;font-variant-ligatures:normal;font-variant-numeric:normal;font-variant-position:normal;isolation:auto;mix-blend-mode:normal;shape-padding:0;text-decoration-color:#000000;text-decoration-line:none;text-decoration-style:solid;text-indent:0;text-orientation:mixed;text-transform:none;white-space:normal"/>
<path d="m10.5 20s2.5-10 13.5-10c10 0 14 9 14 13l-3-2" fill="none" stroke="#f4f5f5" stroke-linecap="round" stroke-linejoin="round" stroke-width="2"/>
<rect transform="matrix(.53239 0 0 .52166 2.2387 19.259)" x="2" y="-30" width="75.966" height="69.024" rx="3.957" ry="3.957" clip-path="url(#clipPath4156-4-1)" fill="url(#linearGradient4767)" opacity=".7"/>
</g>
</svg>
