<?xml version="1.0" encoding="UTF-8"?>
<svg width="96" height="96" version="1.1" viewBox="0 0 72 72" xmlns="http://www.w3.org/2000/svg" xmlns:cc="http://creativecommons.org/ns#" xmlns:dc="http://purl.org/dc/elements/1.1/" xmlns:rdf="http://www.w3.org/1999/02/22-rdf-syntax-ns#" xmlns:xlink="http://www.w3.org/1999/xlink">
<metadata>
<rdf:RDF>
<cc:Work rdf:about="">
<dc:format>image/svg+xml</dc:format>
<dc:type rdf:resource="http://purl.org/dc/dcmitype/StillImage"/>
<dc:title/>
<dc:date>2019</dc:date>
<dc:creator>
<cc:Agent>
<dc:title>Cristian Pozzessere  &lt; ilnanny &gt;</dc:title>
</cc:Agent>
</dc:creator>
<dc:subject>
<rdf:Bag>
<rdf:li>ilnanny</rdf:li>
<rdf:li>lila_hd</rdf:li>
<rdf:li>lila-hd</rdf:li>
<rdf:li>lila hd icon theme</rdf:li>
<rdf:li>Lila-HD-Icon-Theme lila hd icon lila icon</rdf:li>
</rdf:Bag>
</dc:subject>
<dc:description>Playing with Inkscape on Gnu/Linux O. S.</dc:description>
<dc:contributor>
<cc:Agent>
<dc:title>In the night, alone like a dog.</dc:title>
</cc:Agent>
</dc:contributor>
</cc:Work>
</rdf:RDF>
</metadata>
<defs>
<linearGradient id="linearGradient4071" x1="6" x2="90" y1="47" y2="47" gradientTransform="matrix(.82949 0 0 .83036 -3.8531 -3.0268)" gradientUnits="userSpaceOnUse">
<stop stop-color="#b2babc" offset="0"/>
<stop stop-color="#fff" offset=".25"/>
<stop stop-color="#96a1a4" offset=".5"/>
<stop stop-color="#fbf9f9" offset=".75"/>
<stop stop-color="#b2b9bc" offset="1"/>
</linearGradient>
<linearGradient id="linearGradient4129" x1="1.5" x2="94.5" y1="88.172" y2="88.172" gradientTransform="matrix(.74922 0 0 .75 -2.2275e-6 1.4492e-5)" gradientUnits="userSpaceOnUse">
<stop offset="0"/>
<stop stop-opacity=".58824" offset=".1"/>
<stop stop-opacity=".58824" offset=".9"/>
<stop offset="1"/>
</linearGradient>
<radialGradient id="radialGradient7462" cx="13.948" cy="44.893" r="43.199" gradientTransform="matrix(.73059 0 0 .035798 25.398 59.37)" gradientUnits="userSpaceOnUse" xlink:href="#linearGradient3737"/>
<linearGradient id="linearGradient3737">
<stop stop-color="#fff" offset="0"/>
<stop stop-color="#fff" stop-opacity="0" offset="1"/>
</linearGradient>
<radialGradient id="radialGradient7464" cx="13.948" cy="44.893" r="43.199" gradientTransform="matrix(.66624 0 0 .036855 23.658 -67.556)" gradientUnits="userSpaceOnUse" xlink:href="#linearGradient3737"/>
<linearGradient id="linearGradient4767" x1="2.7714" x2="50.528" y1="-28.642" y2="14.514" gradientTransform="matrix(1.0042 0 0 1.0052 -.21821 -.047555)" gradientUnits="userSpaceOnUse" xlink:href="#linearGradient3737"/>
<clipPath id="clipPath4156-4-1">
<path d="m27.046-55.695-14.214 13.321h0.06127l15.653 21.771 10.231-10.546c-0.2169-1.1522-11.311-23.67-11.732-24.546zm-17.399 16.313-14.888 14.062 21.229 17.515 10.385-10.577zm31.491 12.951-9.7413 9.7136 8.9448 12.458 7.7808-7.555zm-49.84 4.3788-13.754 12.982 26.283 13.846 0.06127-0.0617-0.12253-0.0617 9.8332-10.053-22.301-16.652zm38.015 7.4008-9.8025 9.7753 11.579 9.5594 7.6276-7.4008-8.6691-11.009zm20.187 5.674-7.3825 7.2158 6.1878 8.5418 5.8202-6.1365zm-32.195 6.3215-9.5575 9.4977 13.662 7.185 7.9339-7.6784zm23.312 2.3744-7.1068 6.9383 8.3628 6.9074 5.3608-5.674-0.06127-0.0925-0.0919 0.12335-6.4635-8.2026zm-8.7304 8.5418-7.5051 7.3392 10.354 5.4581c1.3975-1.321 5.6751-6.1229 5.8509-6.3215z" fill="#fff" opacity=".6"/>
</clipPath>
<filter id="filter920" x="-.0080644" y="-.023438" width="1.0161" height="1.0469" color-interpolation-filters="sRGB">
<feGaussianBlur stdDeviation="0.15750649"/>
</filter>
<filter id="filter930" x="-.0080645" y="-.023438" width="1.0161" height="1.0469" color-interpolation-filters="sRGB">
<feGaussianBlur stdDeviation="0.15750677"/>
</filter>
</defs>
<path d="m66.696 0.1875h-61.393c-2.8343 0-5.1161 2.2818-5.1161 5.1161v61.393c0 2.8343 2.2818 5.1161 5.1161 5.1161h61.393c2.8343 0 5.1161-2.2818 5.1161-5.1161v-61.393c0-2.8343-2.2818-5.1161-5.1161-5.1161z" opacity=".15"/>
<path d="m66.217 0.74707h-60.434c-2.79 0-5.0361 2.2461-5.0361 5.0361v60.434c0 2.79 2.2461 5.0361 5.0361 5.0361h60.434c2.79 0 5.0361-2.2461 5.0361-5.0361v-60.434c0-2.79-2.2461-5.0361-5.0361-5.0361z" opacity=".15"/>
<path d="m65.737 1.3066h-59.474c-2.7457 0-4.9562 2.2105-4.9562 4.9562v59.474c0 2.7457 2.2105 4.9562 4.9562 4.9562h59.474c2.7457 0 4.9562-2.2105 4.9562-4.9562v-59.474c0-2.7457-2.2105-4.9562-4.9562-4.9562z" fill="url(#linearGradient4071)"/>
<rect x="4.4556" y="4.8895" width="63.418" height="57.766" rx="1.7752" ry="2.2485" fill="#0ebe59" fill-opacity=".9717"/>
<path d="m7.5179 3.7161c-2.3253 0-4.2288 1.8947-4.2288 4.2124v51.688c0 2.3177 1.9035 4.2124 4.2288 4.2124h57.294c2.3253 0 4.2288-1.8947 4.2288-4.2124v-51.688c0-2.3177-1.9035-4.2124-4.2288-4.2124zm0 1.7305h57.294c1.4087 0 2.5009 1.1043 2.5009 2.4819v51.688c0 1.3776-1.0922 2.4819-2.5009 2.4819h-57.294c-1.4087 0-2.5009-1.1043-2.5009-2.4819v-51.688c0-1.3776 1.0922-2.4819 2.5009-2.4819z" color="#000000" fill="#202223" fill-opacity=".93689" style="text-decoration-line:none;text-indent:0;text-transform:none"/>
<path d="m1.3066 61.251v4.4766c0 2.7457 2.2205 4.9662 4.9662 4.9662h59.454c2.7457 0 4.9662-2.2205 4.9662-4.9662v-4.4766c0 2.7457-2.2205 4.9662-4.9662 4.9662h-59.454c-2.7457 0-4.9662-2.2205-4.9662-4.9662z" fill="url(#linearGradient4129)" opacity=".65818"/>
<rect x="4.1978" y="59.309" width="62.858" height="3.0768" rx="3.1875" ry="3.0929" fill="url(#radialGradient7462)" opacity=".55"/>
<rect transform="rotate(90)" x="4.3358" y="-67.399" width="57.263" height="3.1709" rx="3.1842" ry="3.1842" fill="url(#radialGradient7464)" opacity=".669"/>
<g transform="matrix(1.1526 0 0 1.1526 -81.562 552.08)">
<g transform="matrix(.13889 0 0 .13889 75.25 -476.1)" fill-rule="evenodd" stroke-width="1.0045">
<path d="m256.39 79.097-96.608 96.608-61.616-47.924-24.341 12.172v121.72l24.341 12.172 61.616-47.924 96.608 96.608 60.856-24.341v-194.74zm0 71.671v100.08l-64.325-50.038zm-158.22 13.526 36.513 36.513-36.513 36.513z" opacity=".53" stroke-width="1.0143"/>
<path d="m246.98 65.575-96.608 96.608-61.616-47.924-24.341 12.172v121.72l24.341 12.172 61.616-47.924 96.608 96.608 60.856-24.341v-194.74zm0 71.671v100.08l-64.325-50.038zm-158.22 13.526 36.513 36.513-36.513 36.513z" fill="#fff" opacity=".318" stroke-width="1.0143"/>
<path d="m252.27 71.462-95.675 95.675-61.021-47.461-24.106 12.054v120.54l24.106 12.054 61.021-47.461 95.675 95.675 60.268-24.106v-192.86zm0 70.979v99.111l-63.704-49.555zm-156.69 13.395 36.16 36.16-36.16 36.16z" fill="#fff"/>
</g>
<path d="m78.48-442.12v1.0603c0 2.5368 1.4326 4.8554 3.7013 5.99l3.3482 1.674c2.3063 1.1531 5.0696 0.87948 7.105-0.70307l3.8092-2.9622 9.1094 9.1061c1.8936 1.8949 4.7352 2.479 7.2228 1.4844l8.3704-3.3482c2.5422-1.018 4.2086-3.4806 4.2081-6.2188v-1.0603c5.5e-4 2.7385-1.6658 5.201-4.2081 6.2188l-8.3704 3.3482c-2.4876 0.99453-5.3292 0.41039-7.2228-1.4844l-9.1094-9.1061-3.8092 2.9622c-2.0354 1.5826-4.7988 1.8561-7.105 0.70307l-3.3482-1.674c-2.2686-1.1346-3.7013-3.4532-3.7013-5.99z" fill="none" filter="url(#filter920)" opacity=".792" stroke="#000" stroke-opacity=".37885" stroke-width="1.2773"/>
<path d="m110.16-472.87c-1.7301 0.0343-3.3803 0.73724-4.6038 1.9618l-9.1095 9.1061-3.8092-2.9624c-2.0354-1.5826-4.7988-1.856-7.105-0.70287l-3.3482 1.674c-2.2686 1.1346-3.7013 3.4532-3.7013 5.99v1.0603c0-2.5368 1.4326-4.8554 3.7013-5.99l3.3482-1.674c2.3063-1.1531 5.0696-0.87969 7.105 0.70286l3.8092 2.9624 9.1095-9.1061c1.2234-1.2245 2.8736-1.9274 4.6038-1.9618 0.89591-0.018 1.787 0.14437 2.619 0.47734l8.3704 3.3482c2.5422 1.018 4.2086 3.4806 4.208 6.2188v-1.0603c5.6e-4 -2.7385-1.6658-5.201-4.208-6.2188l-8.3704-3.3482c-0.83214-0.33296-1.7232-0.49532-2.619-0.47735z" fill="#fff" filter="url(#filter930)" opacity=".903" stroke="#fff" stroke-opacity=".37885" stroke-width="1.4407"/>
<path d="m78.48-442.12v1.0603c0 2.5368 1.4326 4.8554 3.7013 5.99l3.3482 1.674c2.3063 1.1531 5.0696 0.87948 7.105-0.70307l3.8092-2.9622 9.1094 9.1061c1.8936 1.8949 4.7352 2.479 7.2228 1.4844l8.3704-3.3482c2.5422-1.018 4.2086-3.4806 4.2081-6.2188v-1.0603c5.5e-4 2.7385-1.6658 5.201-4.2081 6.2188l-8.3704 3.3482c-2.4876 0.99453-5.3292 0.41039-7.2228-1.4844l-9.1094-9.1061-3.8092 2.9622c-2.0354 1.5826-4.7988 1.8561-7.105 0.70307l-3.3482-1.674c-2.2686-1.1346-3.7013-3.4532-3.7013-5.99z" opacity=".792" stroke-width=".10603"/>
<path d="m110.16-472.87c-1.7301 0.0343-3.3803 0.73724-4.6038 1.9618l-9.1095 9.1061-3.8092-2.9624c-2.0354-1.5826-4.7988-1.856-7.105-0.70287l-3.3482 1.674c-2.2686 1.1346-3.7013 3.4532-3.7013 5.99v1.0603c0-2.5368 1.4326-4.8554 3.7013-5.99l3.3482-1.674c2.3063-1.1531 5.0696-0.87969 7.105 0.70286l3.8092 2.9624 9.1095-9.1061c1.2234-1.2245 2.8736-1.9274 4.6038-1.9618 0.89591-0.018 1.787 0.14437 2.619 0.47734l8.3704 3.3482c2.5422 1.018 4.2086 3.4806 4.208 6.2188v-1.0603c5.6e-4 -2.7385-1.6658-5.201-4.208-6.2188l-8.3704-3.3482c-0.83214-0.33296-1.7232-0.49532-2.619-0.47735z" fill="#fff" opacity=".903" stroke-width=".1395"/>
</g>
<rect transform="matrix(.79776 0 0 .78167 3.3921 28.896)" x="2" y="-30" width="75.966" height="69.024" rx="3.9736" ry="3.9777" clip-path="url(#clipPath4156-4-1)" fill="url(#linearGradient4767)" opacity=".65"/>
</svg>
