<?xml version="1.0" encoding="UTF-8"?>
<!-- Created with Inkscape (http://www.inkscape.org/) -->
<svg version="1.0" viewBox="0 0 96 96" xmlns="http://www.w3.org/2000/svg" xmlns:cc="http://creativecommons.org/ns#" xmlns:dc="http://purl.org/dc/elements/1.1/" xmlns:rdf="http://www.w3.org/1999/02/22-rdf-syntax-ns#" xmlns:xlink="http://www.w3.org/1999/xlink">
<defs>
<linearGradient id="ButtonShadow" x1="45.448" x2="45.448" y1="92.54" y2="7.0165" gradientTransform="scale(1.0059 .99417)" gradientUnits="userSpaceOnUse">
<stop offset="0"/>
<stop stop-opacity=".58824" offset="1"/>
</linearGradient>
<filter id="filter3174" color-interpolation-filters="sRGB">
<feGaussianBlur stdDeviation="1.71"/>
</filter>
<filter id="filter3814" color-interpolation-filters="sRGB">
<feGaussianBlur stdDeviation="2.1999956"/>
</filter>
<linearGradient id="linearGradient3806" x1="37.201" x2="37.201" y1="1" y2="45" gradientTransform="matrix(1.2791 0 0 1.2791 17.302 18.582)" gradientUnits="userSpaceOnUse">
<stop stop-color="#aaa" offset="0"/>
<stop stop-color="#8c8c8c" offset="1"/>
</linearGradient>
<linearGradient id="linearGradient3804" x1="20.759" x2="20.759" y1="1" y2="45.017" gradientTransform="matrix(1.2791 0 0 1.2791 17.302 18.582)" gradientUnits="userSpaceOnUse">
<stop stop-color="#f6f6f6" offset="0"/>
<stop stop-color="#d2d2d2" offset="1"/>
</linearGradient>
<linearGradient id="linearGradient3801" x1="86.133" x2="84.639" y1="105.1" y2="20.895" gradientTransform="matrix(.41503 0 0 .41503 21.438 21.853)" gradientUnits="userSpaceOnUse">
<stop stop-color="#e5e5e5" offset="0"/>
<stop stop-color="#ababab" offset="1"/>
</linearGradient>
<filter id="filter3174-8" color-interpolation-filters="sRGB">
<feGaussianBlur stdDeviation="1.71"/>
</filter>
<filter id="filter3174-6" color-interpolation-filters="sRGB">
<feGaussianBlur stdDeviation="1.71"/>
</filter>
<linearGradient id="linearGradient3837" x1="2.7714" x2="50.528" y1="-28.642" y2="14.514" gradientUnits="userSpaceOnUse">
<stop stop-color="#fff" offset="0"/>
<stop stop-color="#fff" stop-opacity="0" offset="1"/>
</linearGradient>
<radialGradient id="radialGradient3833" cx="13.948" cy="44.893" r="43.199" gradientTransform="matrix(.8837 0 0 .048935 31.074 -90.236)" gradientUnits="userSpaceOnUse" xlink:href="#linearGradient4133"/>
<radialGradient id="radialGradient3831" cx="13.948" cy="44.893" r="43.199" gradientTransform="matrix(.97005 0 0 .048935 33.722 80.249)" gradientUnits="userSpaceOnUse" xlink:href="#linearGradient4133"/>
<linearGradient id="linearGradient3829" x1="1.5" x2="94.5" y1="88.172" y2="88.172" gradientTransform="matrix(.99479 0 0 .99479 -2.9844e-6 .5)" gradientUnits="userSpaceOnUse">
<stop offset="0"/>
<stop stop-opacity=".58824" offset=".1"/>
<stop stop-opacity=".58824" offset=".9"/>
<stop offset="1"/>
</linearGradient>
<radialGradient id="radialGradient3827" cx="48" cy="-27" r="42" gradientTransform="matrix(-1.1809 0 0 -.96373 104.43 -24.028)" gradientUnits="userSpaceOnUse">
<stop stop-color="#fff" offset="0"/>
<stop stop-color="#fff" offset=".8"/>
<stop stop-color="#fff" stop-opacity="0" offset="1"/>
</radialGradient>
<linearGradient id="linearGradient3825" x1="6" x2="90" y1="47" y2="47" gradientTransform="matrix(1.1014 0 0 1.1014 -5.1161 -3.5147)" gradientUnits="userSpaceOnUse">
<stop stop-color="#adb4c1" offset="0"/>
<stop stop-color="#fff" offset=".25"/>
<stop stop-color="#9095aa" offset=".5"/>
<stop stop-color="#fbf9f9" offset=".75"/>
<stop stop-color="#adb3c1" offset="1"/>
</linearGradient>
<linearGradient id="linearGradient4133">
<stop stop-color="#fff" offset="0"/>
<stop stop-color="#fff" stop-opacity="0" offset="1"/>
</linearGradient>
<clipPath id="clipPath4156-4">
<path d="m27.046-55.695-14.214 13.321h0.06127l15.653 21.771 10.231-10.546c-0.2169-1.1522-11.311-23.67-11.732-24.546zm-17.399 16.313-14.888 14.062 21.229 17.515 10.385-10.577-16.726-21zm31.491 12.951-9.7413 9.7136 8.9448 12.458 7.7808-7.555-6.9843-14.617zm-49.84 4.3788-13.754 12.982 26.283 13.846 0.06127-0.0617-0.12253-0.0617 9.8332-10.053-22.301-16.652zm38.015 7.4008-9.8025 9.7753 11.579 9.5594 7.6276-7.4008-8.6691-11.009-0.73519-0.9251zm20.187 5.674-7.3825 7.2158 6.1878 8.5418 5.8202-6.1365-4.6256-9.6211zm-32.195 6.3215-9.5575 9.4977 13.662 7.185 7.9339-7.6784-12.039-9.0043zm23.312 2.3744-7.1068 6.9383 8.3628 6.9074 5.3608-5.674-0.06127-0.0925-0.0919 0.12335-6.4635-8.2026zm-8.7304 8.5418-7.5051 7.3392 10.354 5.4581c1.3975-1.321 5.6751-6.1229 5.8509-6.3215l-8.6997-6.4757z" fill="#fff" opacity=".6"/>
</clipPath>
</defs>
<metadata>
<rdf:RDF>
<cc:Work rdf:about="">
<dc:format>image/svg+xml</dc:format>
<dc:type rdf:resource="http://purl.org/dc/dcmitype/StillImage"/>
<dc:title/>
<dc:date>2016</dc:date>
<dc:creator>
<cc:Agent>
<dc:title>Cristian Pozzessere &lt; ilnanny &gt;</dc:title>
</cc:Agent>
</dc:creator>
<dc:subject>
<rdf:Bag>
<rdf:li>ilnanny</rdf:li>
<rdf:li>inkscape</rdf:li>
<rdf:li>vectorart</rdf:li>
<rdf:li>svg</rdf:li>
</rdf:Bag>
</dc:subject>
<dc:coverage>Italy</dc:coverage>
<dc:description>..when I have nothing to do, I scribble and have fun with inkscape.</dc:description>
</cc:Work>
</rdf:RDF>
</metadata>
<g display="none">
<rect x="5" y="7" width="86" height="85" rx="6" ry="6" fill="url(#ButtonShadow)" filter="url(#filter3174)" opacity=".9"/>
</g>
<path d="m88.679 0.5h-81.857c-3.7791 0-6.8214 3.0424-6.8214 6.8214v81.857c0 3.7791 3.0424 6.8214 6.8214 6.8214h81.857c3.7791 0 6.8214-3.0424 6.8214-6.8214v-81.857c0-3.7791-3.0424-6.8214-6.8214-6.8214z" opacity=".15"/>
<path d="m88.039 1.2461h-80.578c-3.72 0-6.7148 2.9948-6.7148 6.7148v80.578c0 3.72 2.9948 6.7148 6.7148 6.7148h80.578c3.72 0 6.7148-2.9948 6.7148-6.7148v-80.578c0-3.72-2.9948-6.7148-6.7148-6.7148z" opacity=".15"/>
<path d="m87.4 1.9922h-79.299c-3.661 0-6.6083 2.9473-6.6083 6.6083v79.299c0 3.661 2.9473 6.6083 6.6083 6.6083h79.299c3.661 0 6.6083-2.9473 6.6083-6.6083v-79.299c0-3.661-2.9473-6.6083-6.6083-6.6083z" fill="url(#linearGradient3825)"/>
<rect x="5.7626" y="7.0765" width="84.404" height="77.117" ry="4.2279" fill="#970bbd" fill-opacity=".96916" stroke="#fff" stroke-linecap="round" stroke-linejoin="round" stroke-width=".39792"/>
<path d="m8.1005 1.9922c-3.661 0-6.6083 2.9473-6.6083 6.6083v16.521h1.1014v-16.521c0-3.0699 2.437-5.5069 5.5069-5.5069h79.299c3.0699 0 5.5069 2.437 5.5069 5.5069v16.521h1.1014v-16.521c0-3.661-2.9473-6.6083-6.6083-6.6083z" fill="url(#radialGradient3827)" opacity=".45"/>
<path d="m1.4922 81.917v5.9688c0 3.661 2.9606 6.6216 6.6216 6.6216h79.272c3.661 0 6.6216-2.9606 6.6216-6.6216v-5.9688c0 3.661-2.9606 6.6216-6.6216 6.6216h-79.272c-3.661 0-6.6216-2.9606-6.6216-6.6216z" fill="url(#linearGradient3829)" opacity=".89091"/>
<rect x="5.347" y="80.332" width="83.811" height="4.2279" rx="0" ry="4.2279" fill="url(#radialGradient3831)" opacity=".55"/>
<rect transform="rotate(90)" x="5.2253" y="-90.153" width="76.35" height="4.2279" rx="0" ry="4.2279" fill="url(#radialGradient3833)" opacity=".55"/>
<rect transform="matrix(.90457 0 0 .92354 4.3225 34.815)" x="2" y="-30" width="92" height="92" rx="3.957" ry="3.957" clip-path="url(#clipPath4156-4)" fill="url(#linearGradient3837)" opacity=".539"/>
<path d="m9.7739 5.2048c-3.1004 0-5.6384 2.5263-5.6384 5.6166v68.917c0 3.0903 2.5381 5.6166 5.6384 5.6166h76.392c3.1004 0 5.6384-2.5263 5.6384-5.6166v-68.917c0-3.0903-2.5381-5.6166-5.6384-5.6166zm0 2.3074h76.392c1.8783 0 3.3346 1.4724 3.3346 3.3092v68.917c0 1.8369-1.4563 3.3092-3.3346 3.3092h-76.392c-1.8783 0-3.3346-1.4724-3.3346-3.3092v-68.917c0-1.8369 1.4563-3.3092 3.3346-3.3092z" color="#000000" fill="#212122" style="text-decoration-line:none;text-indent:0;text-transform:none"/>
<path d="m23.898 18.049v33.165c-1e-5 4.016 0.43951 7.7212 1.273 11.055 0.83349 3.2582 2.1592 6.1179 4.0536 8.5426 1.8943 2.4247 4.3639 4.2977 7.4706 5.6616 3.1066 1.2881 6.9443 1.9765 11.491 1.9765 5.2282 0 9.8285-0.35656 13.769-1.0385 4.0159-0.68195 7.2234-1.3368 9.6481-1.943v-57.42h-17.454v23.752c3.8618 2.2188 6.4656 6.3812 6.4656 11.156 0 4.7676-2.6103 8.9333-6.4656 11.156v-8.9446l-6.3986-3.685-6.4321 3.685v8.9111c-3.834-2.2278-6.4321-6.3705-6.4321-11.122 0-4.7516 2.5981-8.8943 6.4321-11.122v-23.785h-17.42z" fill="#fff" opacity=".1" stroke="#000" stroke-width="3.9792"/>
<path d="m23.898 18.049v33.165c-1e-5 4.016 0.43951 7.7212 1.273 11.055 0.83349 3.2582 2.1592 6.1179 4.0536 8.5426 1.8943 2.4247 4.3639 4.2977 7.4706 5.6616 3.1066 1.2881 6.9443 1.9765 11.491 1.9765 5.2282 0 9.8285-0.35656 13.769-1.0385 4.0159-0.68195 7.2234-1.3368 9.6481-1.943v-57.42h-17.454v23.752c3.8618 2.2188 6.4656 6.3812 6.4656 11.156 0 4.7676-2.6103 8.9333-6.4656 11.156v-8.9446l-6.3986-3.685-6.4321 3.685v8.9111c-3.834-2.2278-6.4321-6.3705-6.4321-11.122 0-4.7516 2.5981-8.8943 6.4321-11.122v-23.785h-17.42z" fill="#fff" opacity=".15" stroke="#000" stroke-width="1.9896"/>
<path d="m23.898 18.049v33.165c-1e-5 4.016 0.43951 7.7212 1.273 11.055 0.83349 3.2582 2.1592 6.1179 4.0536 8.5426 1.8943 2.4247 4.3639 4.2977 7.4706 5.6616 3.1066 1.2881 6.9443 1.9765 11.491 1.9765 5.2282 0 9.8285-0.35656 13.769-1.0385 4.0159-0.68195 7.2234-1.3368 9.6481-1.943v-57.42h-17.454v23.752c3.8618 2.2188 6.4656 6.3812 6.4656 11.156 0 4.7676-2.6103 8.9333-6.4656 11.156v-8.9446l-6.3986-3.685-6.4321 3.685v8.9111c-3.834-2.2278-6.4321-6.3705-6.4321-11.122 0-4.7516 2.5981-8.8943 6.4321-11.122v-23.785h-17.42z" opacity=".15"/>
<path d="m23.898 17.055v33.165c-1e-5 4.016 0.43951 7.7212 1.273 11.055 0.83349 3.2582 2.1592 6.1179 4.0536 8.5426 1.8943 2.4247 4.3639 4.2977 7.4706 5.6616 3.1066 1.2881 6.9443 1.9765 11.491 1.9765 5.2282 0 9.8285-0.35656 13.769-1.0385 4.0159-0.68195 7.2234-1.3368 9.6481-1.943v-57.42h-17.454v23.752c3.8618 2.2188 6.4656 6.3812 6.4656 11.156 0 4.7676-2.6103 8.9333-6.4656 11.156v-8.9446l-6.3986-3.685-6.4321 3.685v8.9111c-3.834-2.2278-6.4321-6.3705-6.4321-11.122 0-4.7516 2.5981-8.8943 6.4321-11.122v-23.785h-17.42z" fill="#fff"/>
<g transform="translate(-175.59 -7.6232)" display="none">
<rect x="5" y="7" width="86" height="85" rx="6" ry="6" fill="url(#ButtonShadow)" filter="url(#filter3174-8)" opacity=".9"/>
<path d="m44.203 21.5c-1.0823 0-1.9586 0.89778-1.9586 1.9985v3.8772c-1.9351 0.5156-3.7842 1.2944-5.476 2.2783l-2.758-2.758c-0.38918-0.38918-0.85537-0.5953-1.359-0.59956-0.50363-0.0043-1.0163 0.17696-1.399 0.55959l-5.3961 5.3961c-0.76526 0.76527-0.73838 1.9796 0.03989 2.758l2.758 2.758c-0.98393 1.6918-1.7627 3.5408-2.2783 5.476h-3.8772c-1.1008 0-1.9985 0.87631-1.9985 1.9586v7.5944c0 1.0823 0.89779 1.9586 1.9985 1.9586h3.8772c0.51561 1.9352 1.2944 3.7842 2.2783 5.476l-2.758 2.758c-0.77835 0.77835-0.80523 1.9927-0.03989 2.758l5.3961 5.3961c0.76526 0.76527 1.9796 0.73838 2.758-0.03997l2.758-2.758c1.6918 0.98394 3.5408 1.7627 5.476 2.2783v3.8772c0 1.1008 0.87632 1.9985 1.9586 1.9985h7.5944c1.0823 0 1.9586-0.89779 1.9586-1.9985v-3.8772c1.9351-0.5156 3.7842-1.2944 5.476-2.2783l2.758 2.758c0.77835 0.77835 1.9927 0.80524 2.758 0.03997l5.3961-5.3961c0.76526-0.76527 0.73838-1.9796-0.03989-2.758l-2.758-2.758c0.98393-1.6918 1.7627-3.5408 2.2783-5.476h3.8772c1.1007 0 1.9985-0.87631 1.9985-1.9586v-7.5944c0-1.0823-0.89779-1.9586-1.9985-1.9586h-3.8772c-0.5156-1.9352-1.2944-3.7842-2.2783-5.476l2.758-2.758c0.77835-0.77835 0.80524-1.9927 0.03989-2.758l-5.3961-5.3961c-0.76527-0.76527-1.9796-0.73838-2.758 0.03997l-2.758 2.758c-1.6918-0.98394-3.5408-1.7627-5.476-2.2783v-3.8772c0-1.1008-0.87631-1.9985-1.9586-1.9985h-7.5944zm3.7972 19.186c4.5893 0 8.3139 3.7246 8.3139 8.3139 0 4.5893-3.7246 8.3139-8.3139 8.3139-4.5893 0-8.3139-3.7246-8.3139-8.3139 0-4.5893 3.7246-8.3139 8.3139-8.3139z" display="block" filter="url(#filter3814)"/>
<path d="m44.203 20.5c-1.0823 0-1.9586 0.89778-1.9586 1.9985v3.8772c-1.9351 0.5156-3.7842 1.2944-5.476 2.2783l-2.758-2.758c-0.38918-0.38918-0.85537-0.5953-1.359-0.59956-0.50363-0.0043-1.0163 0.17696-1.399 0.55959l-5.3961 5.3961c-0.76526 0.76527-0.73838 1.9796 0.03989 2.758l2.758 2.758c-0.98393 1.6918-1.7627 3.5408-2.2783 5.476h-3.8772c-1.1008 0-1.9985 0.87631-1.9985 1.9586v7.5944c0 1.0823 0.89779 1.9586 1.9985 1.9586h3.8772c0.51561 1.9352 1.2944 3.7842 2.2783 5.476l-2.758 2.758c-0.77835 0.77835-0.80523 1.9927-0.03989 2.758l5.3961 5.3961c0.76526 0.76527 1.9796 0.73838 2.758-0.03997l2.758-2.758c1.6918 0.98394 3.5408 1.7627 5.476 2.2783v3.8772c0 1.1008 0.87632 1.9985 1.9586 1.9985h7.5944c1.0823 0 1.9586-0.89779 1.9586-1.9985v-3.8772c1.9351-0.5156 3.7842-1.2944 5.476-2.2783l2.758 2.758c0.77835 0.77835 1.9927 0.80524 2.758 0.03997l5.3961-5.3961c0.76526-0.76527 0.73838-1.9796-0.03989-2.758l-2.758-2.758c0.98393-1.6918 1.7627-3.5408 2.2783-5.476h3.8772c1.1007 0 1.9985-0.87631 1.9985-1.9586v-7.5944c0-1.0823-0.89779-1.9586-1.9985-1.9586h-3.8772c-0.5156-1.9352-1.2944-3.7842-2.2783-5.476l2.758-2.758c0.77835-0.77835 0.80524-1.9927 0.03989-2.758l-5.3961-5.3961c-0.76527-0.76527-1.9796-0.73838-2.758 0.03997l-2.758 2.758c-1.6918-0.98394-3.5408-1.7627-5.476-2.2783v-3.8772c0-1.1008-0.87631-1.9985-1.9586-1.9985h-7.5944zm3.7972 19.186c4.5893 0 8.3139 3.7246 8.3139 8.3139 0 4.5893-3.7246 8.3139-8.3139 8.3139-4.5893 0-8.3139-3.7246-8.3139-8.3139 0-4.5893 3.7246-8.3139 8.3139-8.3139z" display="block" fill="url(#linearGradient3804)" stroke="url(#linearGradient3806)" stroke-linejoin="round"/>
<path d="m48 30.733c-9.5212 0-17.267 7.7461-17.267 17.267 0 9.5212 7.7461 17.267 17.267 17.267s17.267-7.7461 17.267-17.267c0-9.5212-7.7462-17.267-17.267-17.267z" fill="none" stroke="url(#linearGradient3801)" stroke-width="2"/>
<path d="m48 31.372c-9.1688 0-16.628 7.4591-16.628 16.628s7.4591 16.628 16.628 16.628c9.1688-2e-6 16.628-7.4591 16.628-16.628s-7.4591-16.628-16.628-16.628zm0 7.6744c4.9423 0 8.9535 4.0111 8.9535 8.9535s-4.0112 8.9535-8.9535 8.9535-8.9535-4.0111-8.9535-8.9535 4.0112-8.9535 8.9535-8.9535z" opacity=".05"/>
</g>
<g transform="translate(-205.49 220.17)" display="none">
<rect x="5" y="7" width="86" height="85" rx="6" ry="6" fill="url(#ButtonShadow)" filter="url(#filter3174-6)" opacity=".9"/>
</g>
</svg>
