<?xml version="1.0" encoding="UTF-8"?>
<!-- Created with Inkscape (http://www.inkscape.org/) -->
<svg version="1.0" viewBox="0 0 96 96" xmlns="http://www.w3.org/2000/svg" xmlns:cc="http://creativecommons.org/ns#" xmlns:dc="http://purl.org/dc/elements/1.1/" xmlns:rdf="http://www.w3.org/1999/02/22-rdf-syntax-ns#" xmlns:xlink="http://www.w3.org/1999/xlink">
<defs>
<linearGradient id="ButtonShadow" x1="45.448" x2="45.448" y1="92.54" y2="7.0165" gradientTransform="scale(1.0059 .99417)" gradientUnits="userSpaceOnUse">
<stop offset="0"/>
<stop stop-opacity=".58824" offset="1"/>
</linearGradient>
<linearGradient id="linearGradient3737">
<stop stop-color="#fff" offset="0"/>
<stop stop-color="#fff" stop-opacity="0" offset="1"/>
</linearGradient>
<filter id="filter3174" color-interpolation-filters="sRGB">
<feGaussianBlur stdDeviation="1.71"/>
</filter>
<filter id="filter3174-6" color-interpolation-filters="sRGB">
<feGaussianBlur stdDeviation="1.71"/>
</filter>
<linearGradient id="linearGradient4071-3" x1="6" x2="90" y1="47" y2="47" gradientTransform="matrix(1.1071 0 0 1.1071 -5.1429 -4.0357)" gradientUnits="userSpaceOnUse">
<stop stop-color="#b2babc" offset="0"/>
<stop stop-color="#fff" offset=".25"/>
<stop stop-color="#96a1a4" offset=".5"/>
<stop stop-color="#fbf9f9" offset=".75"/>
<stop stop-color="#b2b9bc" offset="1"/>
</linearGradient>
<linearGradient id="linearGradient4129" x1="1.5" x2="94.5" y1="88.172" y2="88.172" gradientTransform="translate(-4.4139e-6 4.9855e-6)" gradientUnits="userSpaceOnUse">
<stop offset="0"/>
<stop stop-opacity=".58824" offset=".1"/>
<stop stop-opacity=".58824" offset=".9"/>
<stop offset="1"/>
</linearGradient>
<radialGradient id="radialGradient7462" cx="13.948" cy="44.893" r="43.199" gradientTransform="matrix(.97513 0 0 .049191 33.899 80.167)" gradientUnits="userSpaceOnUse" xlink:href="#linearGradient3737"/>
<radialGradient id="radialGradient7464" cx="13.948" cy="44.893" r="43.199" gradientTransform="matrix(.88833 0 0 .049191 31.544 -90.168)" gradientUnits="userSpaceOnUse" xlink:href="#linearGradient3737"/>
<linearGradient id="linearGradient4767" x1="2.7714" x2="50.528" y1="-28.642" y2="14.514" gradientUnits="userSpaceOnUse" xlink:href="#linearGradient3737"/>
<clipPath id="clipPath4156-4-1">
<path d="m27.046-55.695-14.214 13.321h0.06127l15.653 21.771 10.231-10.546c-0.2169-1.1522-11.311-23.67-11.732-24.546zm-17.399 16.313-14.888 14.062 21.229 17.515 10.385-10.577zm31.491 12.951-9.7413 9.7136 8.9448 12.458 7.7808-7.555zm-49.84 4.3788-13.754 12.982 26.283 13.846 0.06127-0.0617-0.12253-0.0617 9.8332-10.053-22.301-16.652zm38.015 7.4008-9.8025 9.7753 11.579 9.5594 7.6276-7.4008-8.6691-11.009zm20.187 5.674-7.3825 7.2158 6.1878 8.5418 5.8202-6.1365zm-32.195 6.3215-9.5575 9.4977 13.662 7.185 7.9339-7.6784zm23.312 2.3744-7.1068 6.9383 8.3628 6.9074 5.3608-5.674-0.06127-0.0925-0.0919 0.12335-6.4635-8.2026zm-8.7304 8.5418-7.5051 7.3392 10.354 5.4581c1.3975-1.321 5.6751-6.1229 5.8509-6.3215z" fill="#fff" opacity=".6"/>
</clipPath>
</defs>
<metadata>
<rdf:RDF>
<cc:Work rdf:about="">
<dc:format>image/svg+xml</dc:format>
<dc:type rdf:resource="http://purl.org/dc/dcmitype/StillImage"/>
<dc:title/>
</cc:Work>
</rdf:RDF>
</metadata>
<g transform="translate(0,32)">
<g transform="translate(0,-32)">
<path d="m89.143 4.9855e-6h-82.286c-3.7988 0-6.8571 3.0583-6.8571 6.8571v82.286c0 3.7989 3.0583 6.8571 6.8571 6.8571h82.286c3.7989 0 6.8571-3.0583 6.8571-6.8571v-82.286c0-3.7989-3.0583-6.8571-6.8571-6.8571z" opacity=".15"/>
<path d="m88.5 0.75h-81c-3.7395 0-6.75 3.0105-6.75 6.75v81c0 3.7395 3.0105 6.75 6.75 6.75h81c3.7395 0 6.75-3.0105 6.75-6.75v-81c0-3.7395-3.0105-6.75-6.75-6.75z" opacity=".15"/>
<path d="m87.857 1.5h-79.714c-3.6801 0-6.6429 2.9627-6.6429 6.6429v79.714c0 3.6801 2.9627 6.6429 6.6429 6.6429h79.714c3.6801 0 6.6429-2.9627 6.6429-6.6429v-79.714c0-3.6801-2.9627-6.6429-6.6429-6.6429z" fill="url(#linearGradient4071-3)"/>
<path d="m11.241 6.3871c-2.8565 0-5.1241 2.2884-5.1241 5.171v68.58c1.0972 1.6845 2.9688 2.8117 5.1241 2.8117h73.787c2.1553 0 4.0269-1.1272 5.1241-2.8117v-68.58c0-2.8826-2.2676-5.171-5.1241-5.171z" fill="#e8e8e8" opacity=".96"/>
<path d="m9.8251 4.7295c-3.1166 0-5.668 2.5395-5.668 5.646v69.278c0 3.1065 2.5513 5.646 5.668 5.646h76.792c3.1166 0 5.668-2.5395 5.668-5.646v-69.278c0-3.1065-2.5514-5.646-5.668-5.646zm0 2.3194h76.792c1.8881 0 3.352 1.4801 3.352 3.3266v69.278c0 1.8465-1.4639 3.3266-3.352 3.3266h-76.792c-1.8881 0-3.352-1.4801-3.352-3.3266v-69.278c0-1.8465 1.4639-3.3266 3.352-3.3266z" color="#000000" fill="#202223" fill-opacity=".93689" style="text-decoration-line:none;text-indent:0;text-transform:none"/>
<path d="m1.5 81.844v6c0 3.6801 2.9761 6.6562 6.6562 6.6562h79.688c3.6801 0 6.6563-2.9761 6.6563-6.6562v-6c0 3.6801-2.9761 6.6562-6.6563 6.6562h-79.688c-3.6801 0-6.6562-2.9761-6.6562-6.6562z" fill="url(#linearGradient4129)" opacity=".65818"/>
<rect x="5.375" y="80.25" width="84.25" height="4.25" rx="0" ry="4.25" fill="url(#radialGradient7462)" opacity=".55"/>
<rect transform="rotate(90)" x="5.56" y="-90.085" width="76.75" height="4.25" rx="0" ry="4.25" fill="url(#radialGradient7464)" opacity=".669"/>
<g transform="translate(-5.3885e-5 -5.9903)">
<path d="m76.984 24.204c-3.1055 5.7073-4.9684 12.021-8.179 17.674-1.3853 1.8255-1.7614 5.5548-3.3285 6.4118-0.87684-3.4768-3.0815-6.035-4.2938-9.4292-1.6577-3.4868-3.1917-7.2227-4.7668-10.873-0.87154-1.9166-1.4926-4.4246-4.0358-3.6912h-5.738c0.78767 1.6849-2.61 1.9063-0.68906 3.7367-0.60081 0.99901-1.2592 1.8534-0.92617 3.5296v10.136c0.03794 1.4064 0.1113 3.9724 4e-6 5.876v22.368c0.83932 2.0434 3.1977 0.87541 4.8789 1.1524h5.4219c-0.01497-7.4284-0.02995-14.857-0.04492-22.285 2.9002 6.1243 5.5238 12.375 8.3965 18.512 2.0726-1.1912 5.431 0.80652 5.5501-2.9869 0.99117-2.7323 2.488-5.2654 3.5551-7.9912 0.96693-1.8481 2.6189-6.5598 3.2256-6.4922-0.0616 6.7124-0.0961 13.423-0.25841 20.134 0.6534 1.1002 2.0956-1.1056 1.496 0.88975 2.4102 0.63326 5.0825 0.0874 7.6002 0.28587 2.4462-1.06 1.1484-4.4432 1.4234-6.6037-4e-3 -12.287 2e-3 -24.574 0-36.863-0.73823-1.3906 1.9151-4.3253-1.3981-3.4902h-7.8891zm-51.082 0.0918c-7.3398 0.0184-13.171 6.2875-15.008 13.015-1.9404 5.899-1.7379 12.222-0.72526 18.262 0.86576 2.6629 1.5892 5.5659 3.1567 7.8795 1.3359 2.9493 4.222 4.6434 6.1742 6.8098-0.34419 1.6107 0.19764 2.5015 1.0685 0.63416 2.1233-0.84017 4.187 1.1599 6.3526 0.29792 6.7626 0.13298 12.537-5.277 14.717-11.396 1.5957-1.2253-2.083-1.9711-0.0576-2.9954-2.7783-2.0948-5.662-4.045-8.4801-6.0854-0.04615 3.3592-1.2597 5.8134-3.184 8.1206-1.1548 1.3191-3.8358 0.73903-3.068 3.1431-0.29561-2.9736-5.0698-2.5468-5.4542-6.078-1.3502-2.8925-1.4037-6.1877-1.6132-9.2866 0.30023-1.8194 0.35905-3.9045 1.9483-5.2116-2.1396-0.27108 0.99726-3.0562 1.2005-4.2766 1.7524-2.0964 4.3229-1.7931 6.3533-0.99949 2.8566 1.5161 2.5133 5.0684 4.5418 7.064 1.3661 0.0468 1.3651-0.68875 2.4397 0.45836 1.5063-0.66801 2.8288-1.7506 4.2753-2.5764 0.83023 1.4107 2.3933 3.3094 1.8341 0.36483 0.9432-3.0318-0.65942-5.8263-1.905-8.5533-2.7245-4.898-7.9543-8.8264-13.748-8.5909-0.51439 0.81337-1.0761 1.5618-0.81839-1.3e-4zm52.953 2.9082c0.75209 0.18768-0.25336 2.0678 1.671 1.5888 0.55815 0.84603-3.1766-0.67964-2.0816 1.6567-0.27731 2.3774 0.22255 3.2383 1.5493 1.0815 0.6932-0.76609 2.4214-3.1821 1.0023-0.74941-0.64521 1.4682-1.8603 5.1943-2.673 5.0119-0.01-1.5553-1.604-2.9494-0.95519-4.0377-1.2325-0.1154 1.2333-3.4137 1.4871-4.5518zm2.8809 0c2.1812-0.75552-0.82234 4.3115 0 0zm-32.871 0.0918c1.3755-0.22338 4.268 0.17756 1.3095 0.58597-0.88692 0.91517 1.2277 2.1656 1.7338 3.1564 0.90223 1.3529 1.4057 1.5978 1.1598-0.23867 0.02827-1.1992-0.25612-3.9547 0.72311-1.322 0.44766 2.1987 0.57661 3.7395 2.103 5.5114-2.4819-2.1387-0.35096 3.7542-2.6247 1.3218-1.7158-2.0964-2.4704-5.2602-3.8623-7.7386l-0.27976-0.63449zm3.8418 0.0293c-0.04095 1.225-2.5905 0.21112 0 0zm-23.969 0.13086c2.6202 0.60171 6.2239 2.0715 5.1838 4.9522 2.1079 0.16382 4.0787 1.0256 4.7045 3.5164 1.2898 2.1478-1.0986 2.0164-1.3454 3.6671-2.8355 2.4654-2.5139-3.6541-4.7777-4.6131-1.1614-1.8004-4.5339-1.5694-3.7652-4.1798l-3e-6 -3.3428zm-4.2207 0.0332v4.6094c-1.6911 1.2794-4.7788 4.5833-6.2223 1.5348 0.4952-1.281 0.47514-1.8719-0.57357-2.3312 1.4988-2.1077 4.249-3.4475 6.7959-3.8129zm26.777 0.34375c-0.84974 1.3336-2.0047 0.39053 0 0zm-15.998 2.4102c0.287 0.72432-1.0474 0.53825 0 0zm-0.53125 0.53125c1.5263 0.92632-0.24278 1.2061 0 0zm-19.225 1.791c1.663 0.45472 1.7045 3.069 0.28292 0.68051-0.0911-0.13404-0.52535-0.44697-0.28292-0.68051zm2.4902 1.6445c1.9726 2.7619 0.0038 6.9337-1.5667 8.1609 0.14916 1.796-0.79614 2.0306-1.7719 0.68465-1.3086-0.39673-1.9223 2.0089-2.1361-0.45594 0.93834-1.2091 3.3109-0.63882 2.5856-3.1157 0.14836-1.4179-2.3356-0.8372-0.9017-2.7534 1.0289-2.2352 0.21957 0.75239 1.4541-0.67378 0.83893-0.52886 1.7271-1.0419 2.3367-1.8468zm57.533 0.6875c1.5428 0.27243 2.789 0.14326 1.0128 0.86085-0.42568 0.74995-2.026-0.14266-1.0128-0.86085zm-20.635 0.43359c2.0106-0.75024-0.6055 1.7229 0 0zm1.1445 0c0.24881-0.0912 0.16886 0.3853 0 0zm-8.0469 0.0918c1.2853 1.1049 0.36954 3.6794-0.0042 1.114l0.0078-0.56306zm26.83 0.77734c1.0964 0.70168-0.36962 0.71372 0 0zm2.9356 0.60352c0.44521 1.1063-0.774 0.60951 0 0zm5.4785 0.46289v3.3438c-1.4814-0.0926-4.9553 4.2359-1.384 3.3047 2.7312 0.53722-0.99062-1.874 1.1438-1.6478 0.54459-0.86421 1.4848 1.5061 0.19954 1.885 0.0939 3.4875 0.0143 6.9845 0.0407 10.476-1.2301 0.29871 0.0998 2.1531-0.77588 1.414-1.021 1.8048-2.7867 3.6127-2.5653 0.3419-1.7166-1.1492 1.644-1.6575-0.61542-1.848 0.71238-1.1169 1.3182-1.7807 1.9966-2.031-0.72165-1.2026-1.7836-1.8994-2.295-2.2134-0.43922-3.9798 0.86844-7.7612 2.9056-11.137 0.40171-0.66188 0.84866-1.2972 1.3494-1.8882zm-44.066 0.71484c0.28643 1.7524-2.0612 0.69479 0 0zm-25.676 1.0527c2.1671 1.0175-0.9265 1.6384 0 0zm-0.29102 0.0547c0.37419 1.5011-1.6788 0.7063 0 0zm0 1.2988c0.11833 0.50331-0.23472 1.0323 0 0zm4.2188 1.5996c0.33866-0.13058-0.07208 0.50446 0 0zm0.5293 0c1.2236 0.69361-0.51068 1.509 0 0zm53.977 0.55078c1.2632 0.44729 3.0527 2.2709 0.37675 1.6269-0.63739 0.47685-0.78716-1.4003-0.37675-1.6269zm-55.008 0.24023c0.46499 0.10878-0.31277 0.2555 0 0zm41.291 0.6875c0.3626 1.1543-0.76118 0.9773 0 0zm14.23 0.31836c-0.31156 0.22883 0.2001 0.0749 0 0zm-0.92188 0.3457c0.62005-0.0902-0.0853 0.31531 0 0zm-13.07 0.12305c0.5127-0.10882 0.3037 0.23663 0 0zm-46.215 0.13867c2.1493-0.47113-0.0401 0.92774 0 0zm1.1777 0c0.74983-0.34431 0.13027 0.61053 0 0zm0.85742 0c1.0249 0.25985-0.90062 0.43529 0 0zm0.3418 0.10156c0.17026 0.13735-0.17088 0.33421 0 0zm43.285 0.0644c0.92497 0.15632-0.28186 1.4052-0.02635 0.14463zm13.529 0.10938c0.2644 0.32051-0.31111 0.0932 0 0zm0.20898 0.11133c0.2713 0.38934-0.42287 0.0782 0 0zm-0.20898 0.18554c0.14617 0.46771-0.59049 0.11774 0 0zm-12.354 0.0312c0.5826 0.71806-1.0464 0.36965 0 0zm-46.443 0.45118c-0.01825 0.49578-0.55572 0.26503 0 0zm45.953 0.0391c1.7488-2e-3 -0.48432 0.92113-0.04791 0.0474zm11.533 0.3828c-0.0241 1.2926-1.4346 0.76752 0 0zm3.6191 0.16016c0.76385 1.2692-1.1899 2.2732 0 0zm-16.398 0.0918c0.94594 7e-3 1.2792 4.1274 0 0zm1.2559 0c1.5222-0.57293 1.0284 1.7872 0 0zm11.523 0.13281c0.23784 0.59513-0.53019 0.58491 0 0zm-8.7695 0.49024c0.36128-0.0854-0.01027 0.19749 0 0zm-0.52148 0.47851c0.50855 0.82044-0.59592 0.4442 0 0zm-49.213 0.24024c1.0515 0.19893-0.28262 0.69571 0 0zm51.4 0.35156c0.16274 1.0021-1.3124 2.1284-0.92678 0.5286 0.39919 0.37837 1.0518 0.1099 0.92678-0.5286zm6.1504 0.57031c1.4555 0.23527 2.937 0.87052 0.60997 1.3723-0.72904 3.5334-1.4301-0.53041-0.60997-1.3723zm2.0938 0c2.3481 0.17479-0.11047 4.9463 0.31473 1.479-0.0468-0.5029-0.14688-1.002-0.31473-1.479zm-20.436 0.0781 0.03321 0.0653zm9.0605 0.0137c2.7422-0.74963 0.71945 3.002 3.1499 2.803 1.2389 0.75282-0.79396 1.1291 0.36077 1.7448-1.8555-0.17916-1.2864 0.64907-0.49644 1.4773-1.4022 0.61739-1.0941 1.014-2.0303-0.78296-0.3814-1.7135-3.0237-3.7278-0.98393-5.2421zm-11.889 1.2852c0.88917-2e-3 -0.30468 0.96208 0 0zm20.303 0.56449c0.27174 1.8122 4.9711 0.94203 2.1865 2.6795-1.0747-2.8136-1.1422 3.3034-1.8903 0.30554-1.1297-0.13315 1.1709-1.8842-0.63607-2.0672l0.0649-0.30798 0.27497-0.60981zm-17.494 0.0781c1.8949-0.51109-0.04104 1.8073 0 0zm1.4512 0.16406c0.01172 5.8424 0.02344 11.685 0.03516 17.527h-4.2949v-13.957c2.2026 0.35058 3.5936-0.0666 1.6081-2.0279-0.77618-3.9744 1.6937 2.2143 2.6517-1.5424zm9.4785 0.29492c-0.2418 0.59051 0.42408 0.14291 0 0zm-13.719 0.27539c2.1145-0.20322-0.1757 2.085 0 0zm30.949 0.26368c0.73012 0.43678-0.24324 0.66833 0 0zm-31.295 0.42971c0.24318 0.26729-0.39506 0.15525 0 0zm31.295 1.0215c1.8521-0.33999-0.268 2.6265 0 0zm-68.1 0.34179c0.21009 0.90929-1.0725 0.98009 0 0zm70.563 0.11719c-0.40623 0.1865 0.27331 0.45124 0 0zm-70.941 1.0781 0.0037 0.1398zm57.496 0.36132c3.7186-1.148 0.7381 3.8592-0.0252 4.1022 2e-5 -1.3654 0.0448-2.7339 0.0252-4.1022zm-4.4746 0.72266v4.2168c-0.64871-1.3897-2.0621-3.253 0-4.2168zm-45.309 0.67774c0.51778 0.52056-0.76263 0.27556 0 0zm64.559 0.50586c-0.0103 0.81459 0.32208 1.9018-0.0453 0.44189zm-47.34 0.43554c-0.1955 0.75513-0.56786 0.18554 0 0zm-16.215 0.14453c0.27079 0.3253-0.37897-0.11266 0 0zm15.938 0.26755c-0.09804 1.3422-0.47389 0.13284 0 0zm0.68555 0c1.8915-0.25652-1.2886 1.157 0 0zm-2.498 0.27539c0.86867-0.45151 0.25123 0.34531 0 0zm3.668 0.1211 0.0553 0.0541zm46.57 0.0917c0.40844 0.80098-0.034 1.1904 0 0zm-65.611 0.0937c2.3516 0.63697-0.50804 2.2714 0 0zm0.56055 0c1.303 0.28672 1.1282 1.8055 0 0zm59.537 0.0781c1.7451 0.51869-1.7628 0.73202 0 0zm-39.602 0.0684c0.82674 0.34958-0.22716 1.1183 0 0zm-23.064 0.10742c0.19594-0.0206-0.04036 0.28136 0 0zm4.1699 0.31836c-0.04056 0.49-0.3131 0.18963 0 0zm13.082 0.31445c0.48961-0.25301-0.01517 0.38629 0 0zm-13.561 0.16406c0.31138 0.51088-1.1026 0.46972 0 0zm17.918 0.14258c3.0241 0.081-1.046 4.3596-2.1128 5.465-1.6937 1.9055-1.3695 0.42674-1.6245-0.71082-1.4839-0.32734-2.9086 0.84702-2.1268-1.1885-0.71442-2.9512 3.6579-1.6194 5.0271-2.8313 0.51925 0.16094 1.1319-0.0627 0.83702-0.73438zm-17.781 0.0605c0.21448 0.15082-0.1968 0.36992 0 0zm-3.8535 0.0898c1.7777-0.12347-0.58758 1.0279 0 0zm0.69922 0.0352c0.38336-0.21346 0.71591 0.40715 0 0zm66.658 0.0293c1.8488 0.83386-2.3293 1.0024 0.0219 0.57616l-0.0219-0.52139zm-49.398 0.0918c1.0977-0.36912 1.0087 0.74879 0 0zm1.0137 0 0.1083 3e-3zm44.305 0.21289c-0.30028 0.54766 0.45562-0.1951 0 0zm0.21093 0c0.7928 0.26441 0.71208 3.1154 2.3136 1.0239 1.627-0.75086-1.0233 4.0198 2.0586 2.6695-0.6827 1.8526-4.9374-1.83-4.3722-3.6934zm-63.787 0.0274c0.26403-0.0246-0.09447 0.12549 0 0zm0.29688 0.0937c1.05-0.0685 0.27291 0.6958 0 0zm-1.4062 0.0937c0.7185 1.0216-0.79867 1.5544 0 0zm53.541 0.31445c0.0782 1.9842-2.0693 1.2867 0 0zm15.705 0.32031c0.12545 1.4261 0.33827 3.4904-0.53675 0.93115-0.44928-1.6071 0.95207 1.9037 0.53675-0.93115zm-0.78711 0.16211c0.31492 0.22213-0.2522 0.40839 0 0zm-67.891 0.11328c0.234 0.2862-0.47835 0.0751 0 0zm15.867 2.8535c-0.32212 0.67122-1.4062-0.16554 0 0zm49.83 0.58203c0.77129 0.6944-1.1349 0.24175 0 0zm-49.695 0.0918c0.26098 0.0127-0.34934 0.36842 0 0zm0.21094 0c0.98225-0.37584 2.8983 1.8492 0.91865 1.4137 2.4034 2.5017-2.1401-0.12208-0.91865-1.4137zm-9.5332 0.49023c1.5969 1.2808-1.0159 2.2956 0 0zm-4.6406 0.15235c1.0909-0.23386-0.3723 0.42883 0 0zm66.178 0.0371c0.7799 0.41984-0.0862 1.9641-0.40342 1.5981 0.59572-0.46383-0.38939-1.0602 0.40342-1.5981zm-2.6602 0.33008c0.78999-0.18703 0.0488 0.95066 0 0zm-50.352 1.2305c-0.47318 0.86022-1.3732 0.65637 0 0zm51.262 0.0273c2.0528 0.78657-1.3516 1.2427 0.0273 0.19696zm-0.78906 0.24218c0.40877-0.17134 0.17344 0.48308 0 0zm-50.232 0.0566c0.98046 1.2103-1.9991 0.60032 0 0zm52.195 0.29492c1.2867 0.67792-0.40887 1.5594 0 0zm-51.543 0.13868c0.37266-0.22388-0.02006 0.24815 0 0zm16.541 0.3789c0.2875 0.19488-0.34089 8.3e-4 0 0zm-24.469 1.4668c0.22666 0.30255-0.23142 0.0834 0 0z" color="#000000" color-rendering="auto" dominant-baseline="auto" fill="#070707" fill-opacity=".19643" image-rendering="auto" shape-rendering="auto" solid-color="#000000" stroke="#070707" stroke-opacity=".098214" stroke-width="1.3" style="font-feature-settings:normal;font-variant-alternates:normal;font-variant-caps:normal;font-variant-ligatures:normal;font-variant-numeric:normal;font-variant-position:normal;isolation:auto;mix-blend-mode:normal;shape-padding:0;text-decoration-color:#000000;text-decoration-line:none;text-decoration-style:solid;text-indent:0;text-orientation:mixed;text-transform:none;white-space:normal"/>
<g transform="translate(103.11 -50.022)" fill="#a80000">
<path d="m-77.111 76.123 0.11513 0.15303v6.8252l-0.69077 0.61213v0.15303l0.34538 0.15303c-1e-5 -0.30603 0.0768-0.45906 0.23026-0.4591h0.11513v0.30606l-2.9243 1.3467-1.8881 1.9282-0.89801-0.30606c0.13815 0.44893 0.28398 0.69378 0.43749 0.73455-1e-5 -0.28563 0.0768-0.42846 0.23026-0.42849v0.27546c-1.2741 2.0405-2.0954 4.6216-2.4638 7.7434l-0.11513-0.15303h-0.34538c-1e-5 0.20407 0.11512 0.30609 0.34538 0.30606l0.11513 0.15303v0.30606c0 1.1835-0.11514 1.7752-0.34539 1.7752h-0.11512l0.11512 0.15303v0.30606l-0.20722 0.27546-0.3454-0.15303-0.11512 0.15303v0.15303l0.11512 0.15303h0.11514l0.32236-0.15303c0.2763 0.3673 0.53726 1.9078 0.78288 4.6216l-0.32237 0.42849h-0.11513v0.15303h0.23026v-0.15303c0.36841 1e-5 0.55261 0.44891 0.55262 1.3467l-0.11513 0.15303c0.18419 0.0612 0.78287 1.3059 1.796 3.734-1e-5 0.22446 0.78286 1.01 2.3486 2.3567l1.9111 0.61213v0.42849l-0.11512 0.15303v0.15303l-0.11514-0.15303h-0.23025v0.4591h-0.23026v-0.15303l0.11513-0.15304v-0.15303l-0.66775-0.15303c-0.21491 0.8978-0.6217 1.3467-1.2204 1.3467v0.30607c0.21489 0 0.32234 0.19384 0.32236 0.58152v0.15303l0.46051-0.15303-0.11512-0.15303v-0.12243c0.36839 1e-5 0.5526-0.10201 0.55261-0.30606v-0.30607l-0.11513-0.42849h0.11513l0.46052-0.15303h0.20723l0.78288 0.27546v-0.12243c0.30699 0.14284 0.4605 0.28567 0.46051 0.42849l-0.11513 0.15304v0.15303h0.11513l-0.11513 0.15303v0.42849l0.11513 0.15303v0.15303l-0.11513 0.15303h-0.11512l-0.23026-0.30606c-2e-5 0.20405-0.10747 0.30607-0.32236 0.30606l-0.11514 0.73456h0.11514l0.43748-0.15303c-1e-5 0.20404 0.1535 0.30606 0.46052 0.30606v0.30606l-0.23026 0.73456h-0.11512l-0.4375-0.30607-0.46051 0.4591v0.30606h0.23025v0.58153l-0.23025 0.30606-0.43749 0.15303v-0.45909h0.20723v-0.30607l-0.32236-0.12242c0.44516-0.73455 0.66773-1.2855 0.66775-1.6528-0.16887 0-0.42983 0.39789-0.78288 1.1936l0.11513 0.15303h-0.11513l-0.34539-0.30606h-0.0921l-0.23026 0.30606c-1e-5 0.28566 0.14582 0.42849 0.43748 0.42849l-0.11513 0.4591 0.11513 0.73455-0.11513-0.15303h-0.0921v0.15303c0.21489 0 0.36072 0.34687 0.43748 1.0406h-0.23026v0.15303l-2.0032-0.58152 0.11512-0.76516-0.66774-0.27546-0.23026 0.27546c-1e-5 -0.38768-0.11514-0.58152-0.34539-0.58152h-0.11513c-1e-5 0.38768-0.14584 0.58152-0.43749 0.58152-1.3508-0.55091-2.955-2.0812-4.8124-4.591l0.11513-0.61213-0.11513-0.15303h-0.11513l-0.23026 0.30606-1.6809-3.1218 0.11512-0.4591h-0.11512c-0.27632 1e-5 -0.75985-1.3365-1.4506-4.0094 0-0.89778 0.26096-1.3467 0.78287-1.3467l-0.11512-0.73455c0.1535 2e-5 0.23025 0.15305 0.23026 0.4591l0.11512-0.15304h0.11513l0.11513 0.15304v-0.4591h0.32236l0.23026 0.30606-0.34538 0.42849 0.11512 0.15304v0.30606l-0.11512-0.15303h-0.0921l-0.11513 1.0406 0.55262 0.15303v-0.15303c0.46051 1e-5 0.8366 0.29587 1.1283 0.88758l-0.11513 0.15303 0.11513 0.15304h0.20723l-0.20723-0.88759h0.0921l0.34538 0.15303v-0.15303l0.34539 0.30606 0.0921-0.15303h0.23026v0.30607l0.23026-0.30607v-0.15303l-0.11513-0.15303v-0.15303l0.11513-0.15304-0.11513-0.15303h-0.11513c0 0.4081-0.10746 0.61214-0.32236 0.61213h-0.11513c-0.35307-0.48969-0.61402-0.73454-0.78288-0.73455l-0.23026 0.27545h-0.43748c-0.15351-0.0408-0.30702-0.28564-0.46052-0.73455 0-0.48969 0.1842-0.88757 0.55262-1.1936l0.11513 0.15303v-0.15303l0.46051 0.30606 0.11513-0.15303v-0.15303l-0.11513-0.15303 0.20724-0.58152-0.0921-0.15304 0.0921-0.15303h-0.20724l-0.11512 0.15303h-0.11514l-0.34538-0.15303v0.15303l-0.20724 0.30607v-0.15303l-0.66774 0.30606h-1.0131v0.27546h-0.57565c-0.29166 1e-5 -0.43749-0.74474-0.43749-2.2343l0.55262 0.4591h0.34539v-0.30607l-0.11513-0.73455 0.34539-0.4591h-0.11513l-0.46052 0.4591-0.20723-0.61213 0.0921-0.12242-0.43749-0.30607c0.0614 0.59175 0.13816 0.88761 0.23026 0.88759l-0.11512 0.45909c-0.23026 2e-5 -0.34539-1.0916-0.34539-3.2749 0-2.3873 0.11513-3.5809 0.34539-3.581l-0.11514-0.15303v-0.15303c0.21491-3.0402 1.182-6.4069 2.9012-10.1 3.2543-5.1622 7.2147-7.7434 11.881-7.7434m14.829 32.198c-0.5987 1.6324-1.3662 3.2953-2.3026 4.9888-3.3004 4.4685-6.9922 6.7028-11.075 6.7028v-0.30606c0.21489 0 0.32234-0.0918 0.32235-0.27546h-0.43749v-2.0812h0.23026v-0.9182h0.32236l0.34539 0.30607h0.11513l0.43748-0.30607-0.66774-1.1936v-0.58152c-2e-5 -1.061 0.29931-1.6527 0.898-1.7752l-0.11512-0.15303 0.11512-0.15303v-0.58152l-0.55261 0.12242v-0.42849l0.99011-0.30606v0.15303l-0.0921 0.15303v0.15303h0.20723c-1e-5 -0.40807 0.59865-1.01 1.796-1.8058 0.89031-0.9794 1.3355-1.6221 1.3355-1.9282h0.78287v-0.15303l-0.0921-0.15303v-0.12243l-0.11513 0.12243h-0.23026v-0.12243c-2e-5 -0.16322 0.33769-0.51009 1.0131-1.0406v-0.4591l-0.11512-0.73455 0.11512-0.15304h0.20724l0.11512 0.15304 0.11514-0.15304h0.11512c0.23024 2e-5 0.34536 0.14285 0.34539 0.42849h0.0921v-0.58152h-0.55262c-0.15353 2e-5 -0.23029-0.15302-0.23026-0.45909l0.11512-0.9488 6.4472 4.591m-5.4341-15.395-1.2204-1.4691 0.0921-0.15303v-0.15303l-1.3355-2.9688c-1.1053-1.7955-2.5252-3.0402-4.2598-3.734-0.89035-0.14279-1.3355-0.33664-1.3355-0.58152v-7.4374l0.23026-0.30606c3.4232 4.3e-5 6.7388 1.7344 9.9471 5.2031 2.0109 2.7954 3.1698 5.1317 3.4769 7.0089l-0.23026 0.42849v0.30606l0.23026 0.30606v-0.91819c0.10742 3.2e-5 0.22255 0.24488 0.34538 0.73455l-5.9406 3.734m0-11.906v0.15303c0.15348 3.9e-5 0.23023 0.15307 0.23026 0.4591h0.20723v-0.61213h-0.43749m-18.927 2.6934v0.42849c0.33771-0.22441 0.5296-0.46926 0.57565-0.73455h-0.11513l-0.46052 0.30606m23.394 5.6622c-3e-5 0.28569-0.18424 0.42852-0.55262 0.42849v0.15303h0.46052l0.66774-0.30606v-0.27546h-0.23026l-0.11512 0.12243h-0.11514l-0.11512-0.12243m-26.526 0.88759v0.30606h0.34538v-0.30606h-0.34538m5.1578 2.9688c-1e-5 0.20407-0.11513 0.30609-0.34538 0.30606v0.27546h0.11512l0.46052-0.58152h-0.23026m-2.2335 0.30606v0.27546h0.32237v-0.27546h-0.32237m-2.9243 1.4691v0.30606l0.23025 0.30606 0.11513-0.15303v-0.4591h-0.34538m1.0131 0.61213v0.30606h0.34538v-0.15303l-0.34538-0.15303m-1.796 0.58152v0.30606l0.34538 0.15303v-0.15303l-0.34538-0.30606m2.4638 0.30606v0.15303l0.11514 0.42849c-0.23026 0.24488-0.56798 0.39791-1.0131 0.4591 0-0.24483-0.14583-0.39786-0.43749-0.4591l-0.11513 0.15303v0.15303c0.59867 2.2e-5 0.898 0.49993 0.898 1.4997h-0.11512c-0.15351 2.1e-5 -0.23026 0.14285-0.23026 0.42849-0.58332 0.34689-0.87498 0.60195-0.87498 0.76516h0.0921c0.67542-0.20403 1.0131-0.51009 1.0131-0.9182l0.66774-0.12243v0.12243l0.11514-0.12243h0.23025l-0.11513 0.12243v0.15303l0.11513 0.15303 0.11513-0.15303h0.11513l0.20723 0.30606-0.11513 0.15303h0.57564v-0.15303l-0.11512-0.4591h0.23026v0.30606h0.32235l-0.11512-0.15303v-0.27546h0.11512l0.46052 0.42849 0.32236-0.15303-0.11513-0.15303v-0.12243l0.11513-0.76516h-0.66775v-0.27546h-0.11513v0.27546c-0.52192-0.14281-0.78287-0.38766-0.78287-0.73455v-0.15303l-0.11513 0.15303h-0.11513c-0.26096-0.22442-0.44516-0.5713-0.55261-1.0406h-0.11514m-2.1184 1.6221v0.4591l0.34539-0.15303v-0.30606l-0.11513 0.15303h-0.11513l-0.11513-0.15303m-0.11512 1.9588v0.27545h0.46051l-0.23026-0.27545h-0.23025m1.4506 0-0.11513 0.58152c0.1535 2e-5 0.23026-0.15301 0.23026-0.4591v-0.12242h-0.11513m-0.43749 1.0406v0.15304l0.32236-0.4591h-0.0921l-0.23026 0.30606m3.7992 0.88759 0.11512 0.15303v0.15303l0.55262-0.15303v-0.30606h-0.11512l-0.55262 0.15303m-0.66775 0.30606 0.11513 0.42849 0.43749-0.58152h-0.20723l-0.34539 0.15303m-1.4506 0.58152-0.34538-0.15303h-0.11514v0.15303l0.78288 0.58153h0.11513l-0.11513-0.73456 0.23026-0.30606h-0.11513l-0.43749 0.45909m1.5658 0.73456c-1e-5 0.30608-0.0768 0.45911-0.23026 0.45909l-0.43748-0.15303v0.15303l-0.11514-0.15303h-0.11512l-0.46052 0.88759 0.11513 0.61213h0.11513c0-0.40807 0.1842-0.71414 0.55261-0.9182h0.34539v0.15304h-0.23025l0.34538 0.76516h0.55262l0.11513-0.15304h0.11512l0.4375 0.58153h0.11512c-0.46052-0.97939-0.79055-1.4691-0.9901-1.4691v-0.76516h-0.23026m-5.4801 0.61213h0.0921l0.46052 0.15303v0.12242l-0.34539 0.4591h-0.11513l-0.0921-0.73455m3.4539 0.27545-0.11512 0.4591 0.11512 0.4591h0.11514l0.11512-0.4591 0.34539 0.15303v-0.45909l-0.57565-0.15304m-2.5789 1.4997-0.0921 0.15303v0.15303l1.1052 0.88759v-0.30607c0-0.34686-0.10746-0.64272-0.32236-0.88758l-0.11513 0.15303h-0.11513l-0.46051-0.15303m22.842 0 0.23026 0.30606h0.11513l-0.23026-0.30606h-0.11513m-16.233 0.73455v0.15303h0.34539v-0.27545l-0.34539 0.12242m15.45 1.1936 0.11512 0.4591h0.11513l0.23026-0.30607v-0.30606l-0.23026-0.27546c-0.15352 1e-5 -0.23028 0.14284-0.23025 0.42849m2.1184-0.15303 0.11513 0.15303-0.11513 0.15303h0.34539l-0.11513-0.58152-0.23026 0.27546m-16.556 0v0.30606l0.23026 0.30607 0.20723-0.30607-0.32236-0.30606h-0.11513m-4.467 0.91819 0.43749 0.12243 0.23025-0.42849h-0.46051l-0.20723 0.30606m19.572-0.15303v0.15303l0.11513 0.12243h0.34539v-0.12243l-0.46052-0.15303m-1.3355 0.58152 0.11514 0.4591h0.11512l0.20724-0.30607v-0.30606l-0.20724-0.27546c-0.15353 1e-5 -0.23027 0.14284-0.23026 0.42849m-14.322 0.30606 0.11513 0.15304v0.15303l-0.11513 0.42849 0.11513 0.15303h0.20723c-1e-5 -0.5101-0.10747-0.80596-0.32236-0.88759m0.898 0.73456-0.57564 0.73455 1.0131-0.42849v-0.15303l-0.43749-0.15303m-4.3749 0.30606 0.11513 0.58152h0.23026l0.20723-0.27545v-0.30607l-0.11514 0.15303-0.0921-0.15303h-0.34539m-1.796 0.88759v0.45909h0.11513l0.34538-0.15303-0.23026-0.30606h-0.23025m4.1446 0v0.61213h0.11512l0.11513-0.61213h-0.23025m5.0426 0 0.11512 0.15303v0.15303h-0.23025v0.30607l0.34539-0.30607 0.0921 0.15303v-0.15303l-0.20723-0.30606h-0.11512m-8.5195 0.30606v0.42849l0.11512 0.15303h0.11514v-0.15303l-0.11514-0.42849h-0.11512m5.1578 0.15303v0.58152c-1e-5 0.48971 0.1842 0.83659 0.55262 1.0406h0.23026v-0.58152l-0.78288-1.0406m-4.3749 1.0406 0.23026 0.27546 0.11513-0.12243v0.12243l0.34539-0.12243-0.11514-0.45909h-0.34538l-0.23026 0.30606m1.5888 0.27546 0.20723 0.30606h0.23025l0.11514-0.58152h-0.11514l-0.43748 0.27546m10.293-0.12243h0.20723l-0.0921 0.73456h-0.11513l-0.23026-0.30607v-0.15303l0.23026-0.27546m-10.753 0.88759h0.11513l0.23026-0.30606v-0.15304l-0.34539 0.4591m1.1283-0.4591v0.4591h0.20724v-0.4591h-0.20724m0.32236 0.61213 0.11514 0.12243-0.11514 0.15303v0.15303l0.23026 0.30606 0.34539-0.15303v0.30607h0.0921c-1e-5 -0.20404 0.15349-0.30606 0.46051-0.30607l0.23026-0.30606v-0.27546l-0.34539 0.27546-0.66775-0.27546h-0.34539m10.753 0.27546v0.15303l0.34539 0.15303v-0.30606h-0.34539m-1.6809 0.45909h0.23026v1.1936l-0.23026 0.27546v-1.4691m-9.855 0.73456v0.15303c0.1535 0.48971 0.41446 0.73456 0.78287 0.73455h0.57565v-0.15303l-0.57565-0.12242-0.32236 0.12242 0.11514-0.12242v-0.30607l-0.57565-0.30606m2.1414 0.15303-0.23026 0.4591h0.23026l0.0921-0.4591h-0.0921m11.973 0.4591v0.12242h0.20723l0.11513-0.42849h-0.11513l-0.20723 0.30607m-10.2 0.42849v0.15303l0.11512 0.15303h0.3454v-0.15303l-0.46052-0.15303m1.2434 0 0.23026 0.76516h0.43749v-0.30607c-0.15352 0-0.23028-0.15303-0.23026-0.45909h-0.43749m-3.592 0.30606-0.11512 0.4591h0.11512l0.46052-0.30607v-0.15303h-0.23026l-0.11513-0.15303-0.11513 0.15303m3.0394 0.4591-0.11513 0.12242v0.15303h0.20724l-0.0921 0.15304v0.15303h0.43749v-0.4591l-0.43749-0.12242m3.9144-0.15304h0.11513v1.1936l-0.11513 0.12243v0.15303l-0.34538-0.15303c0.0921-0.87738 0.20721-1.3161 0.34538-1.3161m3.0164 0.58153-0.11512 0.15303v0.30606l0.34538 0.15303v-0.30606l-0.23026-0.30606m-3.6841 0.88758c0.44515 0 0.66774 0.25506 0.66775 0.76516l0.11513 0.42849h-0.11513l-0.898 0.15303v-0.15303l-0.34539-0.58152-0.11513 0.15303h-0.11513v-0.30606l0.8059-0.4591"/>
<path d="m-56.372 76.123h7.0229c1.1666 2.2037 2.3026 4.744 3.4078 7.621h-0.25328c0.76752 0.97944 1.4736 2.2751 2.1184 3.887v0.30606l-0.23026 0.4897c0.30699 0.04085 0.46051 0.19387 0.46052 0.4591l-0.11513 0.15303c0.7061 0.10205 1.0592 0.62236 1.0592 1.5609l-0.23026 0.30606h-1.2894v0.30606h-0.82892v0.30606h-0.69078l-1.4046 0.4897v-0.15303l-0.94405 0.30606-0.23026-0.30606h-0.34539c-1e-5 0.30609-0.0844 0.45912-0.25328 0.4591h-0.11513l-0.92103-2.1731v-0.15303h0.23026c-1e-5 0.30609 0.23025 0.45912 0.69077 0.4591l0.48354-0.30606 0.23026 0.30606 0.57564-0.15303v-0.30606c-0.41447 2.9e-5 -0.76753-0.26523-1.0592-0.79577l-0.57565-0.15303v-0.30606h-0.34538v0.30606h-0.48355c-0.23026 3.1e-5 -0.34538-0.30603-0.34538-0.91819-0.33772 3.1e-5 -0.92103-1.0916-1.75-3.2749-2.3486-4.9786-3.6381-7.8862-3.8683-8.7228m30.739 43.859-0.11513-0.15304 0.11513-4.1931v-6.0907c0.38374-0.61211 0.81355-0.91818 1.2894-0.91819l-0.23025-0.45909v-0.79577l-0.94406-0.30606v-1.4079l0.23026-0.30606-0.23026-0.4591v-4.3767l0.11513-4.6522c-2.7e-5 -0.73453 1.0975-3.3769 3.2927-7.9271l0.11512 0.15303 0.23026-0.30606h-0.23026l3.4999-8.2637h0.25329v26.628c-4.4e-5 0.20406-0.16122 0.30608-0.48355 0.30607v0.15303c0.32232 1e-5 0.4835 0.10204 0.48355 0.30606v11.049c-4.4e-5 0.20405-0.1996 0.30607-0.59867 0.30607v0.30606h0.59867v1.1018l-0.25329 0.30607h-3.8453l-0.82892-0.15304-0.46052 0.15304h-1.0592l-0.11513-0.15304-0.11513 0.15304h-0.7138m4.8124-1.0712v-0.33667l-0.23026-0.30606v0.64273h0.23026m-30.878-40.768v0.15303l0.25329 0.30606v-0.15303l-0.25329-0.30606m29.358 39.513h-0.36841v0.15303l0.11514 0.15303 0.25328-0.30606m-34.147-38.503h0.23026l3.9834 9.0289c-0.15351 3.2e-5 -0.23027 0.15306-0.23026 0.4591-0.47587 3.2e-5 -0.7138 0.35711-0.7138 1.0712l-1.0362-0.15303v0.15303c-1e-5 0.24488-0.42982 0.51014-1.2894 0.79577l-0.23026 0.30606h-0.13815l-0.46052-0.76516h-0.11512v-10.896m36.243 37.248h0.23025l-0.46051-0.4591h-0.23026v0.15303l0.46052 0.30607m-1.75-0.61213v-0.30606h-0.59866v0.30606h0.59866m-1.1743-0.79577-0.34538-0.45909-0.11514 0.45909v0.15303l0.46052-0.15303m3.3848-2.6322 0.7138-0.45909v-0.15304h-0.34539c-0.15354 1e-5 -0.2303 0.15304-0.23026 0.4591h-0.25328v0.15303h0.11513m-1.9802-1.2549v-0.61213l-0.23026 0.30607 0.23026 0.30606m-25.236-25.495-0.11512 0.15303v0.4897l0.23026 0.30606 0.23026-0.30606v-0.18364l-0.3454-0.4591m21.483 23.322-0.11513-0.15304v-0.76516l0.23026-0.33667h0.36841l0.23026 0.33667v0.30607c-0.15354 0.36729-0.39148 0.62234-0.7138 0.76516v-0.15303m-21.598-21.455v1.2549c-0.32237 0.04085-0.48355 0.19387-0.48354 0.4591v0.15303h0.7138c-1e-5 0.63256 0.15349 0.94883 0.46051 0.9488v-0.4897l0.59867 0.18364h0.23026l0.69077-0.64274-0.11512-0.15303v-0.15303c-2e-5 -0.26522 0.16116-0.41826 0.48353-0.4591v-0.15303h-1.2894c-0.70613-0.28563-1.0592-0.60189-1.0592-0.9488h-0.23026m27.7 20.843 0.57565-0.15303v-0.15304h-0.11513l-0.57564 0.15304v0.15303h0.11512m-25.95-19.588v0.61213l-0.23025 0.30606h-0.11513l-0.23026-0.30606 0.57564-0.61213m-6.4472 1.163h0.25329l0.34539 0.61213-0.34539 0.30606h-0.25329l-0.34538-0.4591 0.34538-0.4591m-2.2105 0.30606c0.35306 0.20407 0.54494 0.40811 0.57564 0.61213l-0.23026 0.79577c0.15351 2.9e-5 0.23026-0.1632 0.23026-0.4897h0.7138l0.34539-0.30606h0.11513l0.23025 0.30606-0.23025 0.4897v0.15303h0.23025c0.39912-0.22442 0.59867-0.43866 0.59868-0.64274h0.34538c0.46051 0.42852 0.69077 0.94883 0.69077 1.5609v0.15303c-0.85963 0.10205-1.3662 0.25508-1.5197 0.4591h-1.2894c0 0.22447-0.19188 0.3367-0.57564 0.33667l-0.34539 0.4591-0.59867-0.15303h-0.34539l-0.82892 0.61213h-0.34538l-0.23026-0.30606v-1.4079l0.11512-0.15303-0.11512-0.15303v-0.76516h0.11512l0.23026 0.30606-0.11512 0.15303v0.15303l0.82892 0.15303c0-0.20402 0.26863-0.35705 0.8059-0.4591l-0.11513-0.79577h0.7138v-0.15303l-0.23025-0.76516h0.11512l0.11513-0.15303m16.049 26.811c-1.3355-2.8566-3.523-7.723-6.5624-14.599-1.9035-3.9584-2.9243-6.2335-3.0624-6.8252h0.25328v-0.15303h-0.25328l-0.11514 0.15303c-0.53727-1.1222-0.8059-1.8568-0.80589-2.2037h0.92103v0.33667h0.59866l0.57565 0.15303 0.11513-0.64273 0.59867 0.15303h0.69078l0.71379-0.61213 0.34539 0.30606h0.11513c-1e-5 -0.51008 0.35305-0.86715 1.0592-1.0712l0.34538 0.15303v-0.30606h0.11514c0.5526 0.69377 0.8289 1.3161 0.82892 1.867-0.19957 2.7e-5 -0.3147 0.20407-0.34538 0.61213l0.34538 0.30606h0.11513l-0.11513-0.15303v-0.4591h0.34539l3.1776 7.1007v15.885m15.266-13.069-0.23025-0.30606h-0.11513v0.30606h0.34538m-1.5197-0.76516v-0.30606l-0.57565 0.15303v0.15303l0.11513 0.15303 0.46052-0.15303m-26.756-8.9371h0.46052l0.11512-0.15303h0.13816c0.0768 0.93862 0.307 1.4079 0.69077 1.4079l0.11513-0.15303 0.23026 0.91819v1.1018h-0.46052v0.30606h0.46052l0.0461 22.251h-6.24l-0.48354-0.15303-0.46052 0.15303-0.11512-0.15303v-23.659c0.1842-0.63251 0.49889-0.94877 0.94405-0.9488 0.36842 2.4e-5 0.63705-0.102 0.8059-0.30606h0.23026c0.70612 0.42852 1.0592 0.74478 1.0592 0.9488l0.34539-0.15303c0.32236 0.10205 0.48354 0.45912 0.48355 1.0712h0.11512l0.23026-0.30606v-0.30606c-0.30701-0.38766-0.46052-0.70392-0.46052-0.9488h-0.59866l-0.57565-0.15303v-0.30606l0.34539-0.4591h1.5197v0.30606h0.48354v-0.30606l-0.13815-0.15303v-0.15303l0.7138-0.4591v0.76516m0.94404-0.30606h0.23026c0.30701 0.16326 0.46052 0.52034 0.46052 1.0712h-0.11513c-0.38376-0.20402-0.57565-0.56109-0.57565-1.0712m5.2729 0.70395v0.30606h0.34539v-0.30606h-0.34539m-6.4472 0.36728-0.11513 0.79577v0.4591h0.11513c0.23025-0.102 0.34537-0.40806 0.34538-0.91819l-0.34538-0.33667m7.4834 0.73455v0.15303l0.48354 0.15303h0.11512v-0.15303l-0.23025-0.30606-0.36841 0.15303m0.36841 0.4591v0.4591l0.23025-0.30606v-0.15303h-0.23025m1.8651 0.91819h0.34539l0.34538-0.76516h-0.11512c-0.19958 2.3e-5 -0.39145 0.25508-0.57565 0.76516m-0.59866 0v0.18364h0.48354v-0.18364h-0.48354m-13.217 0.24485c0.30701 0.44892 0.46051 0.857 0.46051 1.2243h0.11513c0.29167-0.40806 0.52959-0.61211 0.7138-0.61213v-0.30606c-0.23026 2.2e-5 -0.34539-0.102-0.34539-0.30606h-0.94405m3.2697 0.30606c-1e-5 0.46932-0.39145 0.72437-1.1743 0.76516v0.79576h0.11513c0.30701-0.42847 0.62169-0.64271 0.94406-0.64273 0-0.40806 0.11512-0.61211 0.34538-0.61213v-0.30606h-0.23025m2.0032 0.91819v0.15303l0.23026 0.33667h0.11514l-0.11514-0.4897h-0.23026m-1.773 0.33667v0.30606h0.7138v-0.30606h-0.7138m11.95 0.09182-0.11512 0.4591v0.15303h0.11512l0.23026-0.30606v-0.30606h-0.23026m-14.161 0.21424-0.11513 0.15303v0.15303h0.46052v-0.15303l-0.34539-0.15303m1.2894 1.2243h0.46052l0.23026-0.30607v-0.15303c-0.46052 0.10204-0.69078 0.25507-0.69078 0.4591m12.641 1.0406h0.34539v-0.30606h-0.11514l-0.23025 0.30606m-15.22 0.82638v0.33667l0.23025 0.30606h0.11514l-0.11514-0.15303v-0.15303l0.11514-0.18364v-0.15303h-0.34539m35.529-9.5798v-0.30606h-0.11513l-0.23026 0.30606h0.34539m-21.253 12.181v0.30606h0.11513l0.23026-0.30606h-0.34539m12.503-15.67-0.23025 0.30606h-0.11514l-0.23025-0.30606v-0.61213l0.57564 0.61213m5.5032-9.8859v0.15303l0.25329-0.30606v-0.15303l-0.25329 0.30606m-12.457 32.137 0.23026 0.30607h0.11512v-0.30607h-0.34538m1.1513-8.2331h-0.11514v0.30607h0.34539l-0.23025-0.30607m1.1052-3.4891v0.30607l0.23026 0.30606h0.11512v-0.15303l-0.11512-0.4591h-0.23026m0.36841-2.7546v0.18364h0.48355v-0.18364h-0.48355m-0.69077-0.76516h-0.11513l0.34539 0.76516h0.34538c-0.18423-0.51008-0.37611-0.76514-0.57564-0.76516m2.2105-0.15303v0.15303l0.23026 0.30606v-0.4591h-0.23026m0.23026-0.61213-0.23026 0.30606v0.15303h0.11513l0.48354-0.15303v-0.15303l-0.36841-0.15303m1.0592-0.9488v0.30606h0.34538v-0.30606h-0.34538m1.6118-5.8458c0.29163-0.28563 0.22256-0.40805-0.20724-0.36728h-1.2894v0.15303c0.32233 0.04083 0.48351 0.19387 0.48355 0.4591v0.15303l-0.11514 0.15303 0.69077 0.64273h0.23026l0.59868-0.18364v0.4897c0.30698 2.9e-5 0.46048-0.31624 0.46051-0.9488h0.7138v-0.15303c-0.27633-0.02037-0.57567-0.05098-0.898-0.09182l-0.43748-0.30606h-0.23026m1.75-2.9076v0.18364l0.23026 0.30606 0.23026-0.30606v-0.4897l-0.11513-0.15303-0.34539 0.4591m-3.3618 5.1419v-0.12243h-1.2894l-0.23026-0.30606c-2e-5 -0.93857 0.35304-1.4589 1.0592-1.5609l-0.11513-0.15303c-3e-5 -0.26522 0.15348-0.41826 0.46051-0.4591l-0.23025-0.4897v-0.30606c0.64469-1.6119 1.3508-2.9076 2.1184-3.887h-0.25329c1.1052-2.877 2.2412-5.4173 3.4078-7.621h7.0229c-0.2303 0.83662-1.5197 3.7442-3.8683 8.7228-0.82896 2.1833-1.4123 3.2749-1.75 3.2749-3.5e-5 0.61216-0.11516 0.91822-0.34538 0.91819l-0.48355 0.76516v-0.30606h-0.34538v0.30606l-0.57564 0.15303c-0.29169 0.02043-0.64475 0.03063-1.0592 0.03061v0.30606l0.57564 0.15303 0.23026-0.30606 0.48354 0.30606c0.46048 3e-5 0.69074-0.153 0.69077-0.4591h0.23026v0.15303l-0.92103 2.1731c-0.04605 0.40811-0.55264 1.4997-1.5197 3.2749l-0.11513-0.15303h-0.25328v0.15303h0.25328c-0.13818 0.59175-1.159 2.8668-3.0624 6.8252-3.0394 6.8762-5.2269 11.743-6.5623 14.599v-15.885l3.1776-7.1007h0.34538v0.4591l-0.11512 0.15303h0.11512l0.34539-0.30606c-0.0307-0.40806-0.14586-0.6121-0.34539-0.61213-2e-5 -0.55089 0.43747-1.4589 1.3125-2.724h0.11513v0.30606l0.34538-0.15303c0.53725-0.1632 0.92101-0.20401 1.1513-0.12243m4.513 1.163c-0.04605-0.08159-0.06908-0.19381-0.06908-0.33667h-0.34539l-0.16118 0.21424 0.57564 0.12243m-1.0362-0.15303-0.55262-0.18364v0.15303l-1.4046-0.4897h-0.69077v-0.30606h-0.0691l0.13815 0.76516h0.69077l0.59867-0.15303 0.11513 0.64273 0.57564-0.15303h0.59867v-0.27546m-2.8091-0.82637h-0.43748c0.0307 0.06124 0.046 0.14286 0.046 0.24485h0.11513l0.27631-0.24485"/>
</g>
</g>
<rect transform="matrix(1.0692 0 0 1.0477 4.2952 38.479)" x="2" y="-30" width="75.966" height="69.024" rx="3.957" ry="3.957" clip-path="url(#clipPath4156-4-1)" fill="url(#linearGradient4767)" opacity=".65"/>
<g transform="translate(-103.11 60.779)">
<path d="m112.29 12.386v3h78.479v-3h-78.479zm0 4c0.19516 0.80032-0.56486 2.5558 0.78723 2.1992h77.691c-0.19516-0.80032 0.56486-2.5558-0.78723-2.1992h-77.691z" color="#000000" color-rendering="auto" dominant-baseline="auto" fill-opacity=".20982" image-rendering="auto" shape-rendering="auto" solid-color="#000000" style="font-feature-settings:normal;font-variant-alternates:normal;font-variant-caps:normal;font-variant-ligatures:normal;font-variant-numeric:normal;font-variant-position:normal;isolation:auto;mix-blend-mode:normal;shape-padding:0;text-decoration-color:#000000;text-decoration-line:none;text-decoration-style:solid;text-indent:0;text-orientation:mixed;text-transform:none;white-space:normal"/>
</g>
<g transform="translate(-129.89 59.239)">
<g display="none">
<rect x="5" y="7" width="86" height="85" rx="6" ry="6" fill="url(#ButtonShadow)" filter="url(#filter3174-6)" opacity=".9"/>
</g>
</g>
</g>
</g>
<g display="none">
<rect x="5" y="7" width="86" height="85" rx="6" ry="6" fill="url(#ButtonShadow)" filter="url(#filter3174)" opacity=".9"/>
</g>
</svg>
