<?xml version="1.0" encoding="UTF-8"?>
<!-- Created with Inkscape (http://www.inkscape.org/) -->
<svg version="1.1" viewBox="0 0 96 96" xmlns="http://www.w3.org/2000/svg" xmlns:cc="http://creativecommons.org/ns#" xmlns:dc="http://purl.org/dc/elements/1.1/" xmlns:rdf="http://www.w3.org/1999/02/22-rdf-syntax-ns#" xmlns:xlink="http://www.w3.org/1999/xlink">
<title>Lila-HD-Icon-Theme</title>
<defs>
<linearGradient id="linearGradient4071" x1="6" x2="90" y1="47" y2="47" gradientTransform="matrix(1.1014 0 0 1.1014 -4.9671 -3.0997)" gradientUnits="userSpaceOnUse">
<stop stop-color="#b2b8bc" offset="0"/>
<stop stop-color="#fff" offset=".25"/>
<stop stop-color="#96a0a4" offset=".5"/>
<stop stop-color="#f9fafb" offset=".75"/>
<stop stop-color="#b2b7bc" offset="1"/>
</linearGradient>
<linearGradient id="linearGradient4129" x1="1.5" x2="94.5" y1="88.172" y2="88.172" gradientTransform="matrix(.99479 0 0 .99479 .14895 .91503)" gradientUnits="userSpaceOnUse">
<stop offset="0"/>
<stop stop-opacity=".58824" offset=".1"/>
<stop stop-opacity=".58824" offset=".9"/>
<stop offset="1"/>
</linearGradient>
<radialGradient id="radialGradient7462" cx="13.948" cy="44.893" r="43.199" gradientTransform="matrix(.97005 0 0 .048935 33.871 80.664)" gradientUnits="userSpaceOnUse" xlink:href="#linearGradient3737"/>
<linearGradient id="linearGradient3737">
<stop stop-color="#fff" offset="0"/>
<stop stop-color="#fff" stop-opacity="0" offset="1"/>
</linearGradient>
<radialGradient id="radialGradient7464" cx="13.948" cy="44.893" r="43.199" gradientTransform="matrix(.8837 0 0 .048935 32.295 -89.848)" gradientUnits="userSpaceOnUse" xlink:href="#linearGradient3737"/>
<linearGradient id="linearGradient4767" x1="2.7714" x2="50.528" y1="-28.642" y2="14.514" gradientUnits="userSpaceOnUse" xlink:href="#linearGradient3737"/>
<clipPath id="clipPath4156-4-1">
<path d="m27.046-55.695-14.214 13.321h0.06127l15.653 21.771 10.231-10.546c-0.2169-1.1522-11.311-23.67-11.732-24.546zm-17.399 16.313-14.888 14.062 21.229 17.515 10.385-10.577zm31.491 12.951-9.7413 9.7136 8.9448 12.458 7.7808-7.555zm-49.84 4.3788-13.754 12.982 26.283 13.846 0.06127-0.0617-0.12253-0.0617 9.8332-10.053-22.301-16.652zm38.015 7.4008-9.8025 9.7753 11.579 9.5594 7.6276-7.4008-8.6691-11.009zm20.187 5.674-7.3825 7.2158 6.1878 8.5418 5.8202-6.1365zm-32.195 6.3215-9.5575 9.4977 13.662 7.185 7.9339-7.6784zm23.312 2.3744-7.1068 6.9383 8.3628 6.9074 5.3608-5.674-0.06127-0.0925-0.0919 0.12335-6.4635-8.2026zm-8.7304 8.5418-7.5051 7.3392 10.354 5.4581c1.3975-1.321 5.6751-6.1229 5.8509-6.3215z" fill="#fff" opacity=".6"/>
</clipPath>
<linearGradient id="linearGradient4310" x1="1.2812" x2="46.658" y1="42.998" y2="42.998" gradientTransform="matrix(.99369 0 0 1.0001 .43544 41.995)" gradientUnits="userSpaceOnUse">
<stop stop-color="#535557" stop-opacity="0" offset="0"/>
<stop stop-color="#535657" offset=".1"/>
<stop stop-color="#474e56" offset=".75"/>
<stop stop-color="#4e545c" stop-opacity="0" offset="1"/>
</linearGradient>
<linearGradient id="linearGradient4312" x1="1.0294" x2="46.939" y1="36.379" y2="36.556" gradientTransform="matrix(.99369 0 0 1.0001 .43544 41.995)" gradientUnits="userSpaceOnUse" xlink:href="#f"/>
<linearGradient id="f" stop-color="#fff">
<stop stop-opacity="0" offset="0"/>
<stop offset=".1"/>
<stop offset=".76"/>
<stop stop-opacity="0" offset="1"/>
</linearGradient>
<linearGradient id="linearGradient4316" x1="1.813" x2="46.164" y1="36.364" y2="36.364" gradientTransform="matrix(1.043 0 0 1.0043 -1.0323 41.976)" gradientUnits="userSpaceOnUse" xlink:href="#f"/>
<linearGradient id="linearGradient905" x1="1.813" x2="46.164" y1="36.364" y2="36.364" gradientTransform="matrix(1.0364 0 0 1.0044 -.35744 41.972)" gradientUnits="userSpaceOnUse">
<stop stop-color="#7a8a94" stop-opacity=".0095694" offset="0"/>
<stop stop-color="#4b555f" offset=".12931"/>
<stop stop-color="#535557" offset=".75"/>
<stop stop-color="#4c5b5e" stop-opacity=".014354" offset="1"/>
</linearGradient>
<radialGradient id="radialGradient921" cx="13.948" cy="44.893" r="43.199" gradientTransform="matrix(.8837 0 0 .048935 32.295 -10.428)" gradientUnits="userSpaceOnUse" xlink:href="#linearGradient3737"/>
<linearGradient id="linearGradient910" x1="29" x2="48" y1="78.5" y2="78.5" gradientUnits="userSpaceOnUse">
<stop stop-color="#0a0b0c" stop-opacity=".99608" offset="0"/>
<stop stop-color="#131719" stop-opacity=".93478" offset=".38541"/>
<stop stop-color="#1f292f" stop-opacity=".96087" offset=".63119"/>
<stop stop-color="#324551" stop-opacity=".34783" offset="1"/>
</linearGradient>
</defs>
<metadata>
<rdf:RDF>
<cc:Work rdf:about="">
<dc:format>image/svg+xml</dc:format>
<dc:type rdf:resource="http://purl.org/dc/dcmitype/StillImage"/>
<dc:title>Lila-HD-Icon-Theme</dc:title>
<dc:date>2015-2019</dc:date>
<dc:creator>
<cc:Agent>
<dc:title>Cristian Pozzessere  &lt; ilnanny &gt;</dc:title>
</cc:Agent>
</dc:creator>
<dc:subject>
<rdf:Bag>
<rdf:li>ilnanny</rdf:li>
<rdf:li>lila_hd</rdf:li>
<rdf:li>lila-hd</rdf:li>
<rdf:li>lila hd icon theme</rdf:li>
<rdf:li>Lila-HD-Icon-Theme lila hd icon lila icon</rdf:li>
</rdf:Bag>
</dc:subject>
<dc:description>Playing with Inkscape on Gnu/Linux O. S.</dc:description>
<dc:contributor>
<cc:Agent>
<dc:title>In the night, alone like a dog.</dc:title>
</cc:Agent>
</dc:contributor>
<cc:license rdf:resource="http://creativecommons.org/licenses/by-sa/4.0/"/>
</cc:Work>
<cc:License rdf:about="http://creativecommons.org/licenses/by-sa/4.0/">
<cc:permits rdf:resource="http://creativecommons.org/ns#Reproduction"/>
<cc:permits rdf:resource="http://creativecommons.org/ns#Distribution"/>
<cc:requires rdf:resource="http://creativecommons.org/ns#Notice"/>
<cc:requires rdf:resource="http://creativecommons.org/ns#Attribution"/>
<cc:permits rdf:resource="http://creativecommons.org/ns#DerivativeWorks"/>
<cc:requires rdf:resource="http://creativecommons.org/ns#ShareAlike"/>
</cc:License>
</rdf:RDF>
</metadata>
<g transform="translate(0 -1026.5)">
<g transform="translate(-.14896 1026.1)">
<path d="m88.828 0.91503h-81.857c-3.7791 0-6.8214 3.0424-6.8214 6.8214v81.857c0 3.7791 3.0424 6.8214 6.8214 6.8214h81.857c3.7791 0 6.8214-3.0424 6.8214-6.8214v-81.857c0-3.7791-3.0424-6.8214-6.8214-6.8214z" opacity=".15"/>
<path d="m88.188 1.6611h-80.578c-3.72 0-6.7148 2.9948-6.7148 6.7148v80.578c0 3.72 2.9948 6.7148 6.7148 6.7148h80.578c3.72 0 6.7148-2.9948 6.7148-6.7148v-80.578c0-3.72-2.9948-6.7148-6.7148-6.7148z" opacity=".15"/>
<path d="m87.549 2.4072h-79.299c-3.661 0-6.6083 2.9473-6.6083 6.6083v79.299c0 3.661 2.9473 6.6083 6.6083 6.6083h79.299c3.661 0 6.6083-2.9473 6.6083-6.6083v-79.299c0-3.661-2.9473-6.6083-6.6083-6.6083z" fill="url(#linearGradient4071)"/>
<path d="m11.332 7.2689c-2.8416 0-5.0974 2.3005-5.0974 5.1983v68.943c1.0915 1.6934 2.9534 2.8266 5.0974 2.8266h73.403c2.1441 0 4.0059-1.1332 5.0974-2.8266v-70.145c0-2.8979-2.2558-3.9962-5.0974-3.9962z" fill="#e4e7ec"/>
<path d="m1.6411 82.333v5.9688c0 3.661 2.9606 6.6216 6.6216 6.6216h79.272c3.661 0 6.6216-2.9606 6.6216-6.6216v-5.9688c0 3.661-2.9606 6.6216-6.6216 6.6216h-79.272c-3.661 0-6.6216-2.9606-6.6216-6.6216z" fill="url(#linearGradient4129)" opacity=".65818"/>
<g transform="matrix(1.7734 0 0 1.7112 4.9224 -76.063)">
<rect x="1.1652" y="66.498" width="46.704" height="24.003" rx="0" ry="0" fill="#758399" fill-opacity=".55094" stroke="url(#linearGradient905)" stroke-linejoin="round" stroke-width=".99691"/>
<path d="m0.96333 69.544v17.99h6.6143c0.13555 0 0.28096-0.02389 0.40369-0.06251 0.19222-0.06581 0.38786-0.20154 0.5279-0.3438 0.064733-0.06898 0.13738-0.16805 0.18632-0.25003 0.10974-0.19431 0.18632-0.44664 0.18632-0.68759v-15.303c0-0.24095-0.076578-0.4933-0.18632-0.68759-0.048938-0.081981-0.12159-0.18105-0.18632-0.25003-0.14001-0.14102-0.33567-0.27704-0.52785-0.34304-0.12282-0.039005-0.2682-0.063008-0.40374-0.063008h-6.6143zm11.055 0c-0.07636 0.0098-0.17683 0.03999-0.24842 0.06251-0.19222 0.06581-0.38786 0.20154-0.5279 0.3438-0.06473 0.06898-0.13738 0.16805-0.18632 0.25003-0.10974 0.1943-0.18632 0.44664-0.18632 0.68759v15.303c0 0.24095 0.07657 0.4933 0.18632 0.68759 0.04894 0.08198 0.12159 0.18105 0.18632 0.25003 0.14004 0.14226 0.33568 0.27799 0.5279 0.3438 0.12273 0.03862 0.26814 0.06251 0.40369 0.06251h35.431v-17.99h-35.431c-0.05648 0-0.10072-7e-3 -0.15526 0z" fill="#9facbc" stroke="url(#linearGradient4310)" stroke-linejoin="round" stroke-width=".99691"/>
<path d="m0.90123 70.561v15.894h6.3659c0.09384 0 0.20046-0.02429 0.27948-0.06251 0.1451-0.07914 0.26858-0.24142 0.31053-0.4063 8e-3 -0.03954 0.031053-0.08304 0.031053-0.12502v-14.675c0-0.1784-0.096273-0.35808-0.21737-0.46881-0.029722-0.02466-0.090071-0.07514-0.12421-0.09376-0.079022-0.03822-0.18563-0.06251-0.27948-0.06251h-6.3659zm11.458 0c-0.06993 0.01069-0.15762 0.06118-0.21737 0.09376-0.02483 0.01515-0.07087 0.044-0.09316 0.06251-0.01425 0.01303-0.04916 0.04817-0.0621 0.06251-0.01838 0.02243-0.04705 0.06877-0.06211 0.09376-0.04625 0.0859-0.09316 0.2076-0.09316 0.31254v14.675c0 0.05247 0.01871 0.10777 0.03105 0.15627 0.01755 0.05701 0.06075 0.13917 0.09316 0.18752 0.10963 0.14773 0.29873 0.25003 0.49685 0.25003h35.183v-15.894h-35.183c-0.03128 0-0.06319-0.0046-0.09316 0z" fill="none" stroke="url(#linearGradient4312)" stroke-linejoin="round" stroke-width=".99691"/>
<rect x="14.5" y="73.5" width="11" height="10" rx="1.3" ry="1.3" fill="#ecedee" stroke="#535a61" stroke-linecap="round" stroke-linejoin="round"/>
<rect x="15.5" y="74.5" width="9" height="8" rx="0" ry="1.3" fill="none" stroke="#fff" stroke-linecap="round" stroke-linejoin="round"/>
<rect x="14.5" y="73.5" width="11" height="3" rx="0" ry="1.3" fill="#303639" stroke="#4e575c" stroke-linecap="square" stroke-linejoin="bevel" stroke-width=".99991" style="paint-order:markers fill stroke"/>
<rect x="29" y="76" width="19" height="5" rx=".56" ry=".56" fill="url(#linearGradient910)" opacity=".554"/>
<rect x=".5" y="67.5" width="47.5" height="22" rx="0" ry="0" fill="none" opacity=".921" stroke="url(#linearGradient4316)" stroke-linejoin="round"/>
</g>
<rect transform="matrix(1.0637 0 0 1.0422 4.4218 38.47)" x="2" y="-30" width="75.966" height="69.024" rx="3.957" ry="3.957" clip-path="url(#clipPath4156-4-1)" fill="url(#linearGradient4767)" opacity=".747"/>
<path d="m9.9229 5.6199c-3.1004 0-5.6384 2.5263-5.6384 5.6166v68.917c0 3.0903 2.5381 5.6166 5.6384 5.6166h76.392c3.1004 0 5.6384-2.5263 5.6384-5.6166v-68.917c0-3.0903-2.5381-5.6166-5.6384-5.6166zm0 2.3074h76.392c1.8783 0 3.3346 1.4724 3.3346 3.3092v68.917c0 1.8369-1.4563 3.3092-3.3346 3.3092h-76.392c-1.8783 0-3.3346-1.4724-3.3346-3.3092v-68.917c0-1.8369 1.4563-3.3092 3.3346-3.3092z" color="#000000" fill="#232633" fill-opacity=".85246" style="text-decoration-line:none;text-indent:0;text-transform:none"/>
<rect transform="rotate(90)" x="6.4461" y="-89.765" width="76.35" height="4.2279" rx="0" ry="4.2279" fill="url(#radialGradient7464)" opacity=".669"/>
<rect x="5.496" y="80.747" width="83.811" height="4.2279" rx="0" ry="4.2279" fill="url(#radialGradient7462)" opacity=".55"/>
<rect transform="rotate(90)" x="6.4461" y="-10.346" width="76.35" height="4.2279" rx="0" ry="4.2279" fill="url(#radialGradient921)" opacity=".5609"/>
</g>
</g>
</svg>
