<?xml version="1.0" encoding="UTF-8"?>
<!-- Created with Inkscape (http://www.inkscape.org/) -->
<svg version="1.1" viewBox="0 0 96 96" xmlns="http://www.w3.org/2000/svg" xmlns:cc="http://creativecommons.org/ns#" xmlns:dc="http://purl.org/dc/elements/1.1/" xmlns:rdf="http://www.w3.org/1999/02/22-rdf-syntax-ns#" xmlns:xlink="http://www.w3.org/1999/xlink">
<script xlink:href=""/>
<defs>
<linearGradient id="ButtonShadow" x1="45.448" x2="45.448" y1="92.54" y2="7.0165" gradientTransform="scale(1.0059 .99417)" gradientUnits="userSpaceOnUse">
<stop offset="0"/>
<stop stop-opacity=".58824" offset="1"/>
</linearGradient>
<linearGradient id="linearGradient6291" x1="2.7714" x2="50.528" y1="-28.642" y2="14.514" gradientUnits="userSpaceOnUse" xlink:href="#linearGradient4213-7"/>
<linearGradient id="linearGradient4213-7">
<stop stop-color="#fff" offset="0"/>
<stop stop-color="#fff" stop-opacity="0" offset="1"/>
</linearGradient>
<linearGradient id="linearGradient3924" x1="10" x2="16" y1="13" y2="13" gradientTransform="matrix(0 -.83333 .83333 0 3.4879 20.895)" gradientUnits="userSpaceOnUse">
<stop stop-color="#c80000" offset="0"/>
<stop stop-color="#f3604d" offset="1"/>
</linearGradient>
<linearGradient id="linearGradient3613" x1="48" x2="48" y1="20.221" y2="138.66" gradientUnits="userSpaceOnUse">
<stop stop-color="#fff" offset="0"/>
<stop stop-color="#fff" stop-opacity="0" offset="1"/>
</linearGradient>
<linearGradient id="linearGradient4071" x1="6" x2="90" y1="47" y2="47" gradientTransform="matrix(1.1071 0 0 1.1071 -4.9939 -3.6207)" gradientUnits="userSpaceOnUse">
<stop stop-color="#b4b8ba" offset="0"/>
<stop stop-color="#fff" offset=".25"/>
<stop stop-color="#989fa2" offset=".5"/>
<stop stop-color="#f9fafb" offset=".75"/>
<stop stop-color="#b4b9ba" offset="1"/>
</linearGradient>
<linearGradient id="linearGradient4129" x1="1.5" x2="94.5" y1="88.172" y2="88.172" gradientTransform="translate(.14895 .41503)" gradientUnits="userSpaceOnUse">
<stop offset="0"/>
<stop stop-opacity=".58824" offset=".1"/>
<stop stop-opacity=".58824" offset=".9"/>
<stop offset="1"/>
</linearGradient>
<radialGradient id="radialGradient7462" cx="13.948" cy="44.893" r="43.199" gradientTransform="matrix(.97513 0 0 .049191 34.048 80.582)" gradientUnits="userSpaceOnUse" xlink:href="#linearGradient4213-7"/>
<radialGradient id="radialGradient7464" cx="13.948" cy="44.893" r="43.199" gradientTransform="matrix(.88833 0 0 .049191 31.96 -90.317)" gradientUnits="userSpaceOnUse" xlink:href="#linearGradient4213-7"/>
<clipPath id="clipPath4156-4-1">
<path d="m27.046-55.695-14.214 13.321h0.06127l15.653 21.771 10.231-10.546c-0.2169-1.1522-11.311-23.67-11.732-24.546zm-17.399 16.313-14.888 14.062 21.229 17.515 10.385-10.577zm31.491 12.951-9.7413 9.7136 8.9448 12.458 7.7808-7.555zm-49.84 4.3788-13.754 12.982 26.283 13.846 0.06127-0.0617-0.12253-0.0617 9.8332-10.053-22.301-16.652zm38.015 7.4008-9.8025 9.7753 11.579 9.5594 7.6276-7.4008-8.6691-11.009zm20.187 5.674-7.3825 7.2158 6.1878 8.5418 5.8202-6.1365zm-32.195 6.3215-9.5575 9.4977 13.662 7.185 7.9339-7.6784zm23.312 2.3744-7.1068 6.9383 8.3628 6.9074 5.3608-5.674-0.06127-0.0925-0.0919 0.12335-6.4635-8.2026zm-8.7304 8.5418-7.5051 7.3392 10.354 5.4581c1.3975-1.321 5.6751-6.1229 5.8509-6.3215z" fill="#fff" opacity=".6"/>
</clipPath>
<filter id="filter3174-3-9" color-interpolation-filters="sRGB">
<feGaussianBlur stdDeviation="1.71"/>
</filter>
<clipPath id="clipPath3613-6">
<rect x="6" y="6" width="84" height="84" rx="6" ry="6" fill="#fff"/>
</clipPath>
<filter id="filter3794-6" x="-.192" y="-.192" width="1.384" height="1.384" color-interpolation-filters="sRGB">
<feGaussianBlur stdDeviation="5.28"/>
</filter>
<linearGradient id="linearGradient5525-4" x1="10" x2="16" y1="13" y2="13" gradientTransform="matrix(0 .83333 .83333 0 10.532 -.77152)" gradientUnits="userSpaceOnUse">
<stop stop-color="#e2b72e" offset="0"/>
<stop stop-color="#cd9a11" offset="1"/>
</linearGradient>
<linearGradient id="linearGradient1615" x1="41.175" x2="41.497" y1="39.961" y2="-33.835" gradientUnits="userSpaceOnUse">
<stop stop-color="#f0f0f0" offset="0"/>
<stop stop-color="#f0f0f0" offset=".76652"/>
<stop stop-color="#090909" stop-opacity=".69767" offset=".79736"/>
<stop stop-color="#121212" stop-opacity=".40532" offset="1"/>
</linearGradient>
<linearGradient id="linearGradient1633" x1="25.908" x2="30.911" y1="10.062" y2="10.062" gradientUnits="userSpaceOnUse">
<stop stop-color="#0c7b02" offset="0"/>
<stop stop-color="#0fe041" offset="1"/>
</linearGradient>
</defs>
<metadata>
<rdf:RDF>
<cc:Work rdf:about="">
<dc:format>image/svg+xml</dc:format>
<dc:type rdf:resource="http://purl.org/dc/dcmitype/StillImage"/>
<dc:title/>
</cc:Work>
</rdf:RDF>
</metadata>
<g transform="translate(0,32)">
<g transform="translate(0,-32)">
<g transform="translate(0 -1026.5)">
<g transform="translate(-.14896 1026.1)">
<path d="m89.292 0.41503h-82.286c-3.7988 0-6.8571 3.0583-6.8571 6.8571v82.286c0 3.7989 3.0583 6.8571 6.8571 6.8571h82.286c3.7989 0 6.8571-3.0583 6.8571-6.8571v-82.286c0-3.7989-3.0583-6.8571-6.8571-6.8571z" opacity=".15"/>
<path d="m88.649 1.165h-81c-3.7395 0-6.75 3.0105-6.75 6.75v81c0 3.7395 3.0105 6.75 6.75 6.75h81c3.7395 0 6.75-3.0105 6.75-6.75v-81c0-3.7395-3.0105-6.75-6.75-6.75z" opacity=".15"/>
<path d="m88.006 1.915h-79.714c-3.6801 0-6.6429 2.9627-6.6429 6.6429v79.714c0 3.6801 2.9627 6.6429 6.6429 6.6429h79.714c3.6801 0 6.6429-2.9627 6.6429-6.6429v-79.714c0-3.6801-2.9627-6.6429-6.6429-6.6429z" fill="url(#linearGradient4071)"/>
<path d="m9.974 5.1445c-3.1166 0-5.668 2.5395-5.668 5.646v69.278c0 3.1065 2.5513 5.646 5.668 5.646h76.792c3.1166 0 5.668-2.5395 5.668-5.646v-69.278c0-3.1065-2.5513-5.646-5.668-5.646zm0 2.3194h76.792c1.8881 0 3.352 1.4801 3.352 3.3266v69.278c0 1.8465-1.4639 3.3266-3.352 3.3266h-76.792c-1.8881 0-3.352-1.4801-3.352-3.3266v-69.278c0-1.8465 1.4639-3.3266 3.352-3.3266z" color="#000000" fill="#241f1f" fill-opacity=".63265" style="text-decoration-line:none;text-indent:0;text-transform:none"/>
<path d="m1.649 82.259v6c0 3.6801 2.9761 6.6562 6.6562 6.6562h79.687c3.6801 0 6.6563-2.9761 6.6563-6.6562v-6c0 3.6801-2.9761 6.6562-6.6563 6.6562h-79.687c-3.6801 0-6.6562-2.9761-6.6562-6.6562z" fill="url(#linearGradient4129)" opacity=".65818"/>
<rect x="5.524" y="80.665" width="84.25" height="4.25" rx="0" ry="4.25" fill="url(#radialGradient7462)" opacity=".55"/>
<rect transform="rotate(90)" x="5.975" y="-90.234" width="76.75" height="4.25" rx="0" ry="4.25" fill="url(#radialGradient7464)" opacity=".669"/>
<g transform="matrix(.95545 0 0 .95545 128.79 44.663)">
<g transform="matrix(1.1071 0 0 1.0941 -5.1429 -5.0647)">
<g display="none">
<rect x="5" y="7" width="86" height="85" rx="6" ry="6" fill="url(#ButtonShadow)" filter="url(#filter3174-3-9)" opacity=".9"/>
<rect x="15" y="15" width="66" height="66" rx="12" ry="12" clip-path="url(#clipPath3613-6)" fill="url(#linearGradient3613)" filter="url(#filter3794-6)" opacity=".1" stroke="#fff" stroke-linecap="round" stroke-width=".5"/>
</g>
<g transform="translate(-115.41 2.7955)">
<path d="m8.9818-34.16h69.527c2.9886 0 5.3946 2.4177 5.3946 5.4209v63.279c0 3.0032-2.406 5.4209-5.3946 5.4209h-69.527c-2.9886 0-5.3946-2.4177-5.3946-5.4209v-63.279c0-3.0032 2.406-5.4209 5.3946-5.4209z" fill="url(#linearGradient1615)" style="paint-order:fill markers stroke"/>
<g transform="translate(46.948 -34.653)">
<g>
<g transform="matrix(.64183 0 0 .64183 -35.461 -5.8902)" fill="#ececec">
<path d="m37.803 22.232-0.33594-1.5273c-0.01042-0.04427-0.02474-0.10677-0.04297-0.1875-0.01563-0.08333-0.03386-0.17578-0.05469-0.27734-0.02084-0.10416-0.04297-0.21354-0.06641-0.32812-0.02084-0.11718-0.04297-0.23307-0.06641-0.34766-0.05209-0.26823-0.10938-0.55729-0.17188-0.86719h-0.02344c-0.0599 0.3099-0.11459 0.60026-0.16406 0.87109-0.02084 0.11459-0.04297 0.23047-0.06641 0.34766-0.02084 0.11719-0.04167 0.22787-0.0625 0.33203-0.02084 0.10156-0.04037 0.19401-0.05859 0.27734-0.01563 0.08333-0.02865 0.14844-0.03906 0.19531l-0.35156 1.5117h-1.2812l-1.1758-4.3672h1.1836l0.44141 1.9336c0.02344 0.10156 0.04687 0.22396 0.07031 0.36719 0.02604 0.14063 0.04948 0.28386 0.07031 0.42969 0.02343 0.14323 0.04427 0.27995 0.0625 0.41016 0.01823 0.1276 0.03255 0.22917 0.04297 0.30469h0.02344c0.0026-0.04948 0.0078-0.11328 0.01563-0.19141 0.01042-0.08073 0.02213-0.16666 0.03516-0.25781 0.01302-0.09114 0.02604-0.18359 0.03906-0.27734 0.01562-0.09635 0.02995-0.1862 0.04297-0.26953 0.01562-0.08333 0.02864-0.15625 0.03906-0.21875 0.01302-0.0651 0.02343-0.11067 0.03125-0.13672l0.47656-2.0938h1.3125l0.45703 2.0938c0.01302 0.05729 0.02994 0.14584 0.05078 0.26562 0.02083 0.11979 0.04166 0.2487 0.0625 0.38672 0.02343 0.13542 0.04296 0.26823 0.05859 0.39844 0.01562 0.1276 0.02473 0.22787 0.02734 0.30078h0.02344c0.0078-0.0651 0.02083-0.16146 0.03906-0.28906 0.02083-0.1276 0.04297-0.26432 0.06641-0.41016 0.02343-0.14844 0.04817-0.29557 0.07422-0.44141 0.02864-0.14583 0.05468-0.26953 0.07813-0.37109l0.45703-1.9336h1.168l-1.1914 4.3672h-1.2969"/>
<path d="m40.87 16.736c0-0.11197 0.01693-0.20442 0.05078-0.27734 0.03385-0.07551 0.07943-0.13541 0.13672-0.17969 0.0599-0.04687 0.12891-0.07942 0.20703-0.09766 0.08073-0.01822 0.16536-0.02734 0.25391-0.02734 0.08854 6e-6 0.17187 0.0091 0.25 0.02734 0.07812 0.01823 0.14583 0.05079 0.20312 0.09766 0.05989 0.04428 0.10677 0.10417 0.14062 0.17969 0.03646 0.07292 0.05469 0.16537 0.05469 0.27734-1e-6 0.10938-0.01823 0.20183-0.05469 0.27734-0.03386 0.07553-0.08073 0.13672-0.14062 0.18359-0.05729 0.04428-0.125 0.07683-0.20312 0.09766-0.07813 0.01823-0.16146 0.02735-0.25 0.02734-0.08854 5e-6 -0.17318-0.0091-0.25391-0.02734-0.07813-0.02083-0.14714-0.05338-0.20703-0.09766-0.05729-0.04687-0.10286-0.10807-0.13672-0.18359-0.03385-0.07551-0.05078-0.16796-0.05078-0.27734m1.2422 5.4961h-1.1914v-4.3672h1.1914v4.3672"/>
<path d="m47.147 22.232h-1.1914v-2.5508c-3e-6 -0.3151-0.04818-0.55078-0.14453-0.70703-0.09375-0.15885-0.2448-0.23828-0.45312-0.23828-0.15625 4e-6 -0.28646 0.03125-0.39062 0.09375-0.10417 0.0625-0.1875 0.15495-0.25 0.27734-0.0599 0.1224-0.10287 0.27344-0.12891 0.45312-0.02604 0.17969-0.03906 0.38542-0.03906 0.61719v2.0547h-1.1914v-4.3672h0.91016l0.16016 0.55859h0.06641c0.0625-0.11198 0.13802-0.20833 0.22656-0.28906 0.09114-0.08073 0.1901-0.14713 0.29688-0.19922 0.10677-0.05208 0.22005-0.08984 0.33984-0.11328 0.11979-0.02604 0.24218-0.03906 0.36719-0.03906 0.21354 5e-6 0.40755 0.03125 0.58203 0.09375 0.17448 0.0599 0.32422 0.15495 0.44922 0.28516 0.125 0.13021 0.22135 0.29688 0.28906 0.5 0.0677 0.20052 0.10156 0.44141 0.10156 0.72266v2.8477"/>
<path d="m49.659 22.31c-0.22396 0-0.42839-0.04818-0.61328-0.14453-0.1849-0.09635-0.34375-0.23828-0.47656-0.42578-0.13281-0.1901-0.23698-0.42578-0.3125-0.70703-0.07292-0.28125-0.10938-0.60677-0.10938-0.97656 0-0.375 0.03646-0.70312 0.10938-0.98438 0.07552-0.28385 0.18099-0.52083 0.31641-0.71094 0.13802-0.1927 0.30208-0.33724 0.49219-0.43359 0.1901-0.09635 0.39974-0.14453 0.62891-0.14453 0.14062 5e-6 0.26953 0.01693 0.38672 0.05078 0.11718 0.03125 0.22265 0.07683 0.31641 0.13672 0.09375 0.0573 0.17708 0.125 0.25 0.20312 0.07552 0.07553 0.14192 0.15886 0.19922 0.25h0.03906c-0.01563-0.10156-0.02995-0.20442-0.04297-0.30859-0.01302-0.08854-0.02474-0.18229-0.03516-0.28125-0.0078-0.10156-0.01172-0.19531-0.01172-0.28125v-1.3984h1.1914v6.0781h-0.91016l-0.23047-0.56641h-0.05078c-0.05469 0.08854-0.11719 0.17318-0.1875 0.25391-0.07032 0.07813-0.15235 0.14583-0.24609 0.20312-0.09115 0.05729-0.19532 0.10286-0.3125 0.13672-0.11459 0.03385-0.24479 0.05078-0.39062 0.05078m0.43359-0.94922c0.14062 1e-6 0.26041-0.02344 0.35938-0.07031 0.09896-0.04948 0.17838-0.1224 0.23828-0.21875 0.0625-0.09896 0.10807-0.22135 0.13672-0.36719 0.03125-0.14583 0.04817-0.3164 0.05078-0.51172v-0.12891c-3e-6 -0.21094-0.01302-0.39843-0.03906-0.5625-0.02604-0.16406-0.06901-0.30078-0.12891-0.41016-0.0599-0.11198-0.14063-0.19661-0.24219-0.25391-0.10156-0.05729-0.22917-0.08593-0.38281-0.08594-0.25 4e-6 -0.4336 0.11328-0.55078 0.33984-0.11719 0.22396-0.17578 0.55078-0.17578 0.98047-2e-6 0.42969 0.05859 0.75261 0.17578 0.96875 0.11979 0.21354 0.30599 0.32031 0.55859 0.32031"/>
<path d="m54.225 20.04c-1e-6 0.4349 0.0612 0.76302 0.18359 0.98438 0.12239 0.21875 0.32161 0.32813 0.59766 0.32812 0.27344 1e-6 0.47135-0.11068 0.59375-0.33203 0.12239-0.22135 0.18359-0.54818 0.18359-0.98047-3e-6 -0.43489-0.0612-0.75911-0.18359-0.97266-0.1224-0.21614-0.32292-0.32422-0.60156-0.32422-0.27344 3e-6 -0.47136 0.10808-0.59375 0.32422-0.11979 0.21354-0.17969 0.53776-0.17969 0.97266m2.7734 0c-5e-6 0.36458-0.04688 0.6875-0.14062 0.96875-0.09115 0.28125-0.22396 0.51823-0.39844 0.71094-0.17188 0.19271-0.38282 0.33984-0.63281 0.44141-0.2474 0.09896-0.52604 0.14844-0.83594 0.14844-0.28906 0-0.55469-0.04948-0.79688-0.14844-0.24219-0.10156-0.45182-0.2487-0.62891-0.44141-0.17448-0.19271-0.3112-0.42969-0.41016-0.71094-0.09896-0.28125-0.14844-0.60416-0.14844-0.96875 0-0.36198 0.04557-0.68359 0.13672-0.96484 0.09375-0.28125 0.22656-0.51692 0.39844-0.70703 0.17448-0.1927 0.38542-0.33854 0.63281-0.4375 0.24739-0.09895 0.52734-0.14843 0.83984-0.14844 0.28906 5e-6 0.55468 0.04948 0.79688 0.14844 0.24218 0.09896 0.45052 0.2448 0.625 0.4375 0.17708 0.19011 0.3151 0.42578 0.41406 0.70703 0.09895 0.28125 0.14843 0.60287 0.14844 0.96484"/>
<path d="m61.366 22.232-0.33594-1.5273c-0.01042-0.04427-0.02474-0.10677-0.04297-0.1875-0.01563-0.08333-0.03386-0.17578-0.05469-0.27734-0.02084-0.10416-0.04297-0.21354-0.06641-0.32812-0.02084-0.11718-0.04297-0.23307-0.06641-0.34766-0.05209-0.26823-0.10938-0.55729-0.17188-0.86719h-0.02344c-0.0599 0.3099-0.11459 0.60026-0.16406 0.87109-0.02084 0.11459-0.04297 0.23047-0.06641 0.34766-0.02084 0.11719-0.04167 0.22787-0.0625 0.33203-0.02084 0.10156-0.04037 0.19401-0.05859 0.27734-0.01563 0.08333-0.02865 0.14844-0.03906 0.19531l-0.35156 1.5117h-1.2812l-1.1758-4.3672h1.1836l0.44141 1.9336c0.02344 0.10156 0.04687 0.22396 0.07031 0.36719 0.02604 0.14063 0.04948 0.28386 0.07031 0.42969 0.02343 0.14323 0.04427 0.27995 0.0625 0.41016 0.01823 0.1276 0.03255 0.22917 0.04297 0.30469h0.02344c0.0026-0.04948 0.0078-0.11328 0.01563-0.19141 0.01041-0.08073 0.02213-0.16666 0.03516-0.25781 0.01302-0.09114 0.02604-0.18359 0.03906-0.27734 0.01562-0.09635 0.02995-0.1862 0.04297-0.26953 0.01562-0.08333 0.02864-0.15625 0.03906-0.21875 0.01302-0.0651 0.02343-0.11067 0.03125-0.13672l0.47656-2.0938h1.3125l0.45703 2.0938c0.01302 0.05729 0.02994 0.14584 0.05078 0.26562 0.02083 0.11979 0.04166 0.2487 0.0625 0.38672 0.02343 0.13542 0.04296 0.26823 0.05859 0.39844 0.01562 0.1276 0.02473 0.22787 0.02734 0.30078h0.02344c0.0078-0.0651 0.02083-0.16146 0.03906-0.28906 0.02083-0.1276 0.04296-0.26432 0.06641-0.41016 0.02343-0.14844 0.04817-0.29557 0.07422-0.44141 0.02864-0.14583 0.05468-0.26953 0.07813-0.37109l0.45703-1.9336h1.168l-1.1914 4.3672h-1.2969"/>
</g>
<path d="m14.321 7.5618a2.5 2.5 0 1 1 0 5 2.5 2.5 0 1 1 0-5z" color="#000000" fill="url(#linearGradient3924)"/>
<path d="m21.365 12.562a2.5 2.5 0 1 0 0-5 2.5 2.5 0 1 0 0 5z" color="#000000" fill="url(#linearGradient5525-4)"/>
<path d="m28.409 12.562a2.5 2.5 0 1 0 0-5 2.5 2.5 0 1 0 0 5z" color="#000000" fill="url(#linearGradient1633)"/>
</g>
</g>
</g>
</g>
<g transform="translate(-131.63 -42.149)" stroke="#505050" stroke-linecap="round" stroke-linejoin="round">
<rect x="12.186" y="30.763" width="11.131" height="46.664" fill="#578ca1" fill-opacity=".38776" opacity=".47273" stroke-width=".41802"/>
<rect x="13.573" y="34.829" width="8.1562" height="8.496" fill="#693967" fill-opacity=".54286" opacity=".56364" stroke-width=".4"/>
<rect x="13.573" y="48.829" width="8.1562" height="8.496" fill="#3e6939" fill-opacity=".76327" opacity=".56364" stroke-width=".4"/>
<rect x="13.573" y="62.829" width="8.1562" height="8.496" fill="#395c69" fill-opacity=".75102" opacity=".56364" stroke-width=".4"/>
</g>
<g transform="rotate(90 -17.046 -5.1448)" stroke="#505050" stroke-linecap="round" stroke-linejoin="round">
<rect x="12.186" y="30.763" width="11.131" height="46.664" fill="#578ca1" fill-opacity=".38776" opacity=".47273" stroke-width=".41802"/>
<rect x="13.573" y="34.829" width="8.1562" height="8.496" fill="#693967" fill-opacity=".54286" opacity=".56364" stroke-width=".4"/>
<rect x="13.573" y="48.829" width="8.1562" height="8.496" fill="#3e6939" fill-opacity=".76327" opacity=".56364" stroke-width=".4"/>
<rect x="13.573" y="62.829" width="8.1562" height="8.496" fill="#395c69" fill-opacity=".75102" opacity=".56364" stroke-width=".4"/>
</g>
</g>
<rect transform="matrix(1.0692 0 0 1.0477 3.3584 38.59)" x="2" y="-30" width="75.966" height="69.024" rx="3.957" ry="3.957" clip-path="url(#clipPath4156-4-1)" fill="url(#linearGradient6291)" opacity=".50781"/>
</g>
</g>
</g>
</g>
</svg>
