<?xml version="1.0" encoding="UTF-8"?>
<!-- Created with Inkscape (http://www.inkscape.org/) -->
<svg version="1.1" viewBox="0 0 96 96" xmlns="http://www.w3.org/2000/svg" xmlns:cc="http://creativecommons.org/ns#" xmlns:dc="http://purl.org/dc/elements/1.1/" xmlns:rdf="http://www.w3.org/1999/02/22-rdf-syntax-ns#" xmlns:xlink="http://www.w3.org/1999/xlink">
<defs>
<linearGradient id="linearGradient4071" x1="6" x2="90" y1="47" y2="47" gradientTransform="matrix(1.1071 0 0 1.1071 -5.1429 -4.0357)" gradientUnits="userSpaceOnUse">
<stop stop-color="#b2babc" offset="0"/>
<stop stop-color="#fff" offset=".25"/>
<stop stop-color="#96a1a4" offset=".5"/>
<stop stop-color="#fbf9f9" offset=".75"/>
<stop stop-color="#b2b9bc" offset="1"/>
</linearGradient>
<linearGradient id="linearGradient4129" x1="1.5" x2="94.5" y1="88.172" y2="88.172" gradientTransform="translate(-2.95e-6,2.6e-5)" gradientUnits="userSpaceOnUse">
<stop offset="0"/>
<stop stop-opacity=".58824" offset=".1"/>
<stop stop-opacity=".58824" offset=".9"/>
<stop offset="1"/>
</linearGradient>
<radialGradient id="radialGradient7462" cx="13.948" cy="44.893" r="43.199" gradientTransform="matrix(.97513 0 0 .049191 33.899 80.167)" gradientUnits="userSpaceOnUse" xlink:href="#linearGradient3737"/>
<linearGradient id="linearGradient3737">
<stop stop-color="#fff" offset="0"/>
<stop stop-color="#fff" stop-opacity="0" offset="1"/>
</linearGradient>
<radialGradient id="radialGradient7464" cx="13.948" cy="44.893" r="43.199" gradientTransform="matrix(.88833 0 0 .049191 31.545 -90.168)" gradientUnits="userSpaceOnUse" xlink:href="#linearGradient3737"/>
<linearGradient id="linearGradient4767" x1="2.7714" x2="50.528" y1="-28.642" y2="14.514" gradientUnits="userSpaceOnUse" xlink:href="#linearGradient3737"/>
<clipPath id="clipPath4156-4-1">
<path d="m27.046-55.695-14.214 13.321h0.06127l15.653 21.771 10.231-10.546c-0.2169-1.1522-11.311-23.67-11.732-24.546zm-17.399 16.313-14.888 14.062 21.229 17.515 10.385-10.577zm31.491 12.951-9.7413 9.7136 8.9448 12.458 7.7808-7.555zm-49.84 4.3788-13.754 12.982 26.283 13.846 0.06127-0.0617-0.12253-0.0617 9.8332-10.053-22.301-16.652zm38.015 7.4008-9.8025 9.7753 11.579 9.5594 7.6276-7.4008-8.6691-11.009zm20.187 5.674-7.3825 7.2158 6.1878 8.5418 5.8202-6.1365zm-32.195 6.3215-9.5575 9.4977 13.662 7.185 7.9339-7.6784zm23.312 2.3744-7.1068 6.9383 8.3628 6.9074 5.3608-5.674-0.06127-0.0925-0.0919 0.12335-6.4635-8.2026zm-8.7304 8.5418-7.5051 7.3392 10.354 5.4581c1.3975-1.321 5.6751-6.1229 5.8509-6.3215z" fill="#fff" opacity=".6"/>
</clipPath>
</defs>
<metadata>
<rdf:RDF>
<cc:Work rdf:about="">
<dc:format>image/svg+xml</dc:format>
<dc:type rdf:resource="http://purl.org/dc/dcmitype/StillImage"/>
<dc:title/>
</cc:Work>
</rdf:RDF>
</metadata>
<path d="m89.143 2.6e-5h-82.286c-3.7988 0-6.8571 3.0583-6.8571 6.8571v82.286c0 3.7989 3.0583 6.8571 6.8571 6.8571h82.286c3.7989 0 6.8571-3.0583 6.8571-6.8571v-82.286c0-3.7989-3.0583-6.8571-6.8571-6.8571z" opacity=".15"/>
<path d="m88.5 0.75003h-81c-3.7395 0-6.75 3.0105-6.75 6.75v81c0 3.7395 3.0105 6.75 6.75 6.75h81c3.7395 0 6.75-3.0105 6.75-6.75v-81c0-3.7395-3.0105-6.75-6.75-6.75z" opacity=".15"/>
<path d="m87.857 1.5h-79.714c-3.6801 0-6.6429 2.9627-6.6429 6.6429v79.714c0 3.6801 2.9627 6.6429 6.6429 6.6429h79.714c3.6801 0 6.6429-2.9627 6.6429-6.6429v-79.714c0-3.6801-2.9627-6.6429-6.6429-6.6429z" fill="url(#linearGradient4071)"/>
<path d="m11.241 6.3872c-2.8565 0-5.1241 2.2884-5.1241 5.171v68.58c1.0972 1.6845 2.9688 2.8117 5.1241 2.8117h73.787c2.1553 0 4.0269-1.1272 5.1241-2.8117v-68.58c0-2.8826-2.2676-5.171-5.1241-5.171z" fill="#e8e8e8" opacity=".96"/>
<g transform="matrix(1.0297 0 0 1.0297 -2.6823 -4.8415)">
<path d="m10.758 10.949v32.634l2.4173 2.4173h31.425l2.4173-2.4173v-30.217l-2.4173-2.4173z" color="#000000" fill="#f9861b" stroke-width="1.2087"/>
<path d="m51.852 10.949v32.634l2.4173 2.4173h31.425l2.4173-2.4173v-30.217l-2.4173-2.4173z" color="#000000" fill="#3add37" stroke-width="1.2087"/>
<path d="m51.852 50.835v32.634l2.4173 2.4173h31.425l2.4173-2.4173v-30.217l-2.4173-2.4173z" color="#000000" fill="#c204ac" stroke-width="1.2087"/>
<path d="m10.758 50.835v32.634l2.4173 2.4173h31.425l2.4173-2.4173v-30.217l-2.4173-2.4173z" color="#000000" fill="#18d1fc" stroke-width="1.2087"/>
<path d="m47.018 83.469v1.2087l-2.4173 1.2087z" color="#000000" fill="#874f5e" stroke-width="1.2087"/>
<path d="m51.852 83.469v1.2087l2.4173 1.2087z" color="#000000" fill="#588073" fill-opacity=".9933" stroke-width="1.2087"/>
<path d="m10.758 83.469v1.2087l2.4173 1.2087z" color="#000000" fill="#874f5e" stroke-width="1.2087"/>
<g transform="matrix(1.2087 0 0 1.2087 10.758 8.532)" stroke="#f9f9f9" stroke-width=".35756">
<path d="m43.707 42c-2.9453 1.8155-3.7081 4.6443-3.2205 7.917-0.14035 2.486 0.14268 7.2246 3.2907 7.0949 3.0408 0.58231 4.0168-4.722 7.2653-2.708 1.1816 1.968 3.6606 3.6028 5.9087 2.3772 1.0658-1.8504 1.8012-3.8065 1.5468-5.9598v-5.5104c-1.478-1.2869-2.5974-3.7216-4.8632-3.2109h-9.9278zm3.7891 3h4.418c-1.7208-0.01029-3.2528 0.4244-3.8695 2.0663-0.91243-0.23161-0.55726-1.3961-0.54843-2.0663zm-3 0.41406c0.9112 1.9793-2.2447 1.8233-0.31632 0.33186zm10.877 0.87695c0.61944 1.2065-0.74841 1.6151 0 0zm-3.084 1.2031c1.9284 0.36171-1.1115 1.7157 0 0zm-2.793 1.0879c0.96006 1.5899-0.36597 3.3884-2.0092 2.1667-0.06844-1.6733 2.7554 0.2455 2.0092-2.1667zm-6 1.418c1.8436-0.3903 0.20821 2.8166 2.4661 2.1314-0.88342 1.3836-2.661 2.4522-2.4937-0.10372-0.014896-0.6763 0.10064-1.3521 0.027601-2.0277zm9.793 0.49414c2.1477-0.12446 2.95 1.5219 1.7127 3.2694-0.83691-0.41856-3.2927-1.9818-1.7127-3.2694zm-38.691-9.5703c-3.0955-0.74186-3.091 3.8987-6.1567 2.6627-2.5469 1.0292-3.1028 4.8346-1.3883 6.6319-2.1645 1.4124-0.36906 4.2115-0.4766 5.2447 1.2387 1.1618 3.4177 0.85934 4.4183 1.0838 0.32573 2.7237 3.7561 3.1302 5.7654 2.037 1.3583-0.76354 0.78544-3.2 2.8201-2.0551 2.5637 0.23335 3.4937-3.6014 3.8907-4.9106-1.575-0.76213-2.0823-1.9572-0.54272-3.0648 0.73974-2.5648-1.9956-6.1768-4.7811-4.6885-0.33105-1.8068-1.6822-3.2177-3.5492-2.9411zm-3.2617 16.688-0.0293-0.0664zm-2.7109-1.1719 0.25012 0.03829zm4.3379-14.295c-0.01812 0.2005-0.22831-0.07038 0 0zm-1.5566 0.17774c1.1712 0.33534 0.64322 0.85194 0 0zm2.6289 1.4043-0.03397 0.10868zm-0.04297 0.21289c1.7721-0.22923 0.89902 2.542 2.8933 2.6425 0.72691 0.97757 3.7751-0.81926 2.6488 1.2032-1.616 1.2147-0.9595 3.9535 0.36105 5.0386-0.91839 1.1665-2.6097-0.64829-3.697 1.0276-1.2949 0.27607-1.2291 3.7656-2.478 1.4071-0.14916-1.6737-2.6424-2.6897-4.0706-1.8927-1.6422-0.9443 1.7542-1.882 0.66881-3.3774 0.73766-1.4432-2.7958-3.5887 0.16934-3.2107 1.5643 0.622 3.6184-1.1551 3.5043-2.8383zm8.1328 3.3906 0.0036 0.06774zm-13.355 8.0938c0.67037 0.85622-0.78107 1.1744 0 0zm-0.25977 0.57812c0.33211 0.37315-0.51865 0.23765 0 0zm8.5 0.24414c2.0682 1.182-0.8616 1.9729 0 0zm32.99-50.66v9.6172c-3.3792-1.9661-7.906 1.7611-6.9147 5.4627 0.54968 3.6279 5.6134 5.3677 8.2467 2.7659 2.4333-2.2366 1.5028-5.7628 1.6699-8.7084 0.07502-0.75039-0.32216-2.6408 0.63726-1.256l2.3608 2.3608v-4.2422c-2-2-4-4-6-6zm-1.7988 11.984c3.3388 0.55547 1.5129 6.0155-1.4485 3.9899-1.6598-1.1-0.38759-4.0204 1.4485-3.9899zm-42.201-10.57v18h16v-18h-16z" color="#000000" color-rendering="auto" dominant-baseline="auto" fill-opacity=".15179" image-rendering="auto" shape-rendering="auto" solid-color="#000000" style="font-feature-settings:normal;font-variant-alternates:normal;font-variant-caps:normal;font-variant-ligatures:normal;font-variant-numeric:normal;font-variant-position:normal;isolation:auto;mix-blend-mode:normal;shape-padding:0;text-decoration-color:#000000;text-decoration-line:none;text-decoration-style:solid;text-indent:0;text-orientation:mixed;text-transform:none;white-space:normal"/>
<path d="m7 8v16h14v-16h-13zm1 1h12v14h-12zm2 2v1h8v-1zm0 2v2h2v-2zm3 0v2h2v-2zm3 0v2h2v-2zm-6 3v2h2v-2zm3 0v2h2v-2zm3 0v2h2v-2zm-6 3v2h2v-2zm3 0v2h2v-2zm3 0v2h2v-2z" color="#000000" fill="#fdfeff" style="text-decoration-line:none;text-indent:0;text-transform:none"/>
<path d="m51 8v1.414l4 4v-1.414zm0 2.818v9.182c0 1.434-1.007 2.662-2.414 2.941-1.407 0.2798-2.809-0.4679-3.357-1.793-0.5489-1.325-0.08711-2.846 1.105-3.963 1.148-0.767 2.65-0.9628 3.666 0.2715v-1.223c-0.4993-0.2892-1.044-0.4777-1.607-0.5332-0.2241-0.02207-0.4505-0.02544-0.6758-0.0098-0.6759 0.04702-1.345 0.2652-1.939 0.6621-1.584 1.058-2.202 3.097-1.473 4.857 0.7291 1.76 2.608 2.796 4.477 2.393 1.869-0.3717 3.219-2.019 3.219-3.924v-8.182z" color="#000000" color-rendering="auto" dominant-baseline="auto" fill="#edf9ff" image-rendering="auto" shape-rendering="auto" solid-color="#000000" style="font-feature-settings:normal;font-variant-alternates:normal;font-variant-caps:normal;font-variant-ligatures:normal;font-variant-numeric:normal;font-variant-position:normal;isolation:auto;mix-blend-mode:normal;paint-order:normal;shape-padding:0;text-decoration-color:#000000;text-decoration-line:none;text-decoration-style:solid;text-indent:0;text-orientation:mixed;text-transform:none;white-space:normal"/>
<path d="m13.61 41.94c-0.4966 0.0083-0.6914 0.2145-0.8066 0.3027-0.06298 0.02888-0.08886 0.01832-0.1992 0.1211-0.0093 0.0089-0.0184 0.01805-0.02734 0.02734-0.2124 0.2133-0.257 0.3467-0.293 0.4121 0.0095-0.01735-0.1071 0.1139-0.1855 0.416-0.0051 0.01874-0.0097 0.03763-0.01367 0.05696l-0.2266 1.135c-0.3128 0.1421-0.61 0.3146-0.8984 0.5098l-1.07-0.3652c-0.0071-2e-3 -0.0143-4e-3 -0.02149-0.0059-0.2889-0.09161-0.5723-0.1149-0.9102-0.04297-0.3378 0.0719-0.7636 0.2919-1.008 0.7148-6.528e-4 0.0013-0.0013 0.0026-0.00195 0.0039l-0.875 1.531c-0.00296 0.0045-0.00524 0.0091-0.00781 0.01367-0.2011 0.3966-0.217 0.8183-0.1152 1.15s0.2826 0.5701 0.4766 0.7617c0.01879 0.01901 0.03834 0.03725 0.05859 0.05469l0.793 0.668c-0.01754 0.2001-0.05469 0.3992-0.05469 0.5977 0 0.2066 0.01333 0.4141 0.03516 0.6133l-0.7734 0.6523c-0.0106 0.0089-0.02102 0.01801-0.03125 0.02734-0.254 0.2317-0.606 0.6314-0.5742 1.287 1.965e-4 0.01037-6.026e-4 0.0088 0 0.02344 0.00121 0.0222 0.00317 0.04434 0.00586 0.06961 0.02395 0.2206 0.07798 0.3855 0.1875 0.5762l0.00195 2e-3v2e-3l0.873 1.527c0.00382 0.0072 0.00773 0.01437 0.01172 0.02148 0.02826 0.0468 0.1233 0.2577 0.4121 0.459 0.02504 0.01311 0.2379 0.1229 0.2383 0.123 3.692e-4 1.31e-4 0.0908 0.02411 0.1484 0.03711 0.03775 0.01249 0.08449 0.04035 0.1172 0.04883h0.00195c0.06998 0.01826 0.2803 0.07149 0.5176 0.06055 0.1412-5e-3 0.2816-0.02023 0.4355-0.0625 0.01971-0.0053 0.03924-0.01112 0.05859-0.01758l1.07-0.3652c0.2885 0.1951 0.5857 0.3677 0.8984 0.5098l0.2266 1.135c0.0012 0.0059 0.0025 0.01173 0.0039 0.01758 0.02434 0.1115 0.0571 0.2415 0.1445 0.418 0.0013 0.0033 0.0026 0.0065 0.0039 0.0098 0.2135 0.4204 0.6996 0.8906 1.393 0.8906h1.75c0.0059 5.2e-5 0.01172 5.2e-5 0.01758 0 0.4098-0.0073 0.8095-0.2267 1.035-0.4551h2e-3c0.2065-0.2093 0.2535-0.3435 0.2891-0.4082 0.0013-2e-3 0.0026-0.0039 0.0039-0.0059-0.01581 0.02939 0.1012-0.1012 0.1816-0.4102 0.0061-0.02453 0.01136-0.04929 0.01563-0.07422l0.1973-1.102c0.3223-0.1448 0.6287-0.3241 0.9277-0.5254l1.07 0.3652c0.0065 2e-3 0.013 4e-3 0.01953 0.0059 0.2368 0.07499 0.4973 0.123 0.8438 0.09645 0.3502-0.05938 0.4506-0.1525 0.5723-0.2266 0.0066-0.0038 0.01307-0.0077 0.01953-0.01172 0.3617-0.2327 0.4218-0.4489 0.4258-0.4551 0.0067-0.01094 0.01323-0.02201 0.01953-0.0332l0.9062-1.531c0.0054-9e-3 0.01056-0.01815 0.01563-0.02734 0.2054-0.3723 0.212-0.827 0.1074-1.158-0.09812-0.3139-0.2709-0.5585-0.4688-0.7539-0.1867-0.1847-0.4386-0.2886-0.7012-0.2892h0.3398l-0.4902-0.4238c0.01795-0.2034 0.05696-0.4069 0.05696-0.6074 0-0.2334-0.02022-0.4399-0.03711-0.623v-2e-3l0.752-0.6504c0.0072-0.0058 0.0144-0.01162 0.02148-0.01758 0.08892-0.0811 0.3423-0.2393 0.5137-0.707 0.0013-0.0033 0.0026-0.0065 0.0039-0.0098 0.05168-0.146 0.09708-0.3787 0.07813-0.627-0.01927-0.2388-0.1148-0.4907-0.1855-0.6132-0.0019-0.0033-0.0039-0.0065-0.0059-0.0098l-0.9062-1.531-0.0039-0.0078c-0.02492-0.04127-0.1025-0.2607-0.4395-0.4785-0.2795-0.1807-0.9676-0.2671-0.9688-0.25-0.14 0.0052-0.2792 0.02066-0.4316 0.0625-0.01905 0.0053-0.03794 0.01116-0.05696 0.01758l-1.07 0.3652c-0.299-0.2013-0.6054-0.3806-0.9277-0.5254l-0.1973-1.102c-0.0018-0.01175-0.0037-0.02348-0.0059-0.03516-0.09682-0.2976-0.1898-0.559-0.4238-0.8144-0.2339-0.2554-0.6362-0.5039-1.115-0.5039h-1.75c-0.0065-6.4e-5 -0.01302-6.4e-5 -0.01953 0zm0.01953 1h1.75c0.3116 0 0.5125 0.3022 0.5625 0.5312l0.2812 1.562c9e-3 0.0031 0.02225-0.0032 0.03125 0 0.632 0.2232 1.223 0.5377 1.719 0.9688l1.469-0.5c0.07003-0.01922 0.1466-0.02945 0.2188-0.03125 0.1431-0.0084 0.2658 0.02319 0.375 0.09375 0.05458 0.03528 0.08892 0.09651 0.125 0.1562l0.9062 1.531c0.03895 0.06748 0.0597 0.1201 0.0625 0.1875 0.0084 0.07689-6e-3 0.1473-0.03125 0.2188-0.04599 0.1255-0.1634 0.2334-0.25 0.3125l-1.156 1c0.0316 0.1638 0.04285 0.3295 0.0625 0.5 0.01963 0.1782 0.03125 0.3534 0.03125 0.5312 0 0.3462-0.02975 0.7036-0.09375 1.031l1.156 1h0.03125c0.1034 0.1021 0.1809 0.2201 0.2188 0.3438 0.03919 0.1229 0.03615 0.2528-0.03125 0.375l-0.9062 1.531c-0.03744 0.05795-0.07086 0.1214-0.125 0.1562-0.05954 0.03626-0.1495 0.0821-0.2188 0.09375-0.131 0.02211-0.2712 0.0016-0.375-0.03125l-1.469-0.5c-0.4956 0.4311-1.087 0.7456-1.719 0.9688-9e-3 0.0032-0.02225-0.0031-0.03125 0l-0.2812 1.562c-0.0183 0.07026-0.06049 0.1257-0.09375 0.1875-0.03436 0.06259-0.07669 0.139-0.125 0.1875-0.09365 0.09504-0.2042 0.1538-0.3438 0.1562h-1.75c-0.2337 0-0.4078-0.1621-0.5-0.3438-0.02963-0.05979-0.05-0.1302-0.0625-0.1875l-0.3125-1.562c-0.9624-0.2233-1.216-0.5316-1.719-0.9688l-1.469 0.5c-0.07003 0.01923-0.1466 0.02945-0.2188 0.03125-0.08229 0.0048-0.1439-0.01174-0.2188-0.03125-0.05714-0.01463-0.1074-0.03314-0.1562-0.0625-0.00546-0.0035-0.02595 0.0038-0.03125 0-0.05519-0.03772-0.08893-0.09651-0.125-0.1562l-0.875-1.531c-0.03381-0.05857-0.0561-0.1286-0.0625-0.1875-3.89e-4 -0.0094-2.04e-4 -0.02185 0-0.03125-0.00984-0.203 0.1199-0.3813 0.25-0.5l1.187-1c-0.03096-0.1594-0.04694-0.3313-0.0625-0.5-0.01965-0.1705-0.03125-0.3581-0.03125-0.5312 0-0.3462 0.03075-0.7036 0.09375-1.031l-1.187-1c-0.2067-0.2042-0.3223-0.4744-0.1875-0.7188l0.875-1.531c0.1559-0.27 0.5296-0.2896 0.75-0.2188l1.469 0.5c0.5027-0.4372 1.076-0.7454 1.719-0.9688l0.3125-1.562c0.01825-0.07026 0.05939-0.1249 0.09375-0.1875s0.07669-0.139 0.125-0.1875c0.01617-0.01506 0.04495-0.01831 0.0625-0.03125 0.08073-0.05954 0.1743-0.1231 0.2812-0.125zm-5.371 7.686c2.087e-4 0.0023 0.00174 0.0055 0.00195 0.0078 5.681e-4 5e-3 -5.802e-4 0.01058 0 0.01563zm0.2637 4.699c0.07005 0.03686 0.1319 0.05672 0.1973 0.08008-0.0138-0.0033-0.04504-0.0098-0.04492-0.0098 2.832e-4 8.8e-5 -0.08103-0.03717-0.1523-0.07031z" color="#000000" color-rendering="auto" dominant-baseline="auto" fill="#fff" image-rendering="auto" shape-rendering="auto" solid-color="#000000" style="font-feature-settings:normal;font-variant-alternates:normal;font-variant-caps:normal;font-variant-ligatures:normal;font-variant-numeric:normal;font-variant-position:normal;isolation:auto;mix-blend-mode:normal;shape-padding:0;text-decoration-color:#000000;text-decoration-line:none;text-decoration-style:solid;text-indent:0;text-orientation:mixed;text-transform:none;white-space:normal"/>
<path d="m44.09 43-0.3125 0.2812-2 2-0.2812 0.3125v7.625l0.09375 0.2188 1 2 0.2812 0.5625h1.9375l0.25-0.1875c1.141-0.5104 1.993-2.136 2.719-2.812h3.438c0.9684 0.7147 1.489 2.347 2.719 2.812l0.25 0.1875h1.9375l0.2812-0.5625 1-2 0.09375-0.2188v-7.625l-0.2812-0.3125-2-2-0.3125-0.2812h-10.406zm0.4062 1h10l2 2v7l-1 2h-1l-3-3h-4l-3 3h-1l-1-2v-7zm9 1c-0.5523 0-1 0.4477-1 1s0.4477 1 1 1 1-0.4477 1-1-0.4477-1-1-1zm-8 1v2h-2v1h2v2h1v-2h2v-1h-2v-2zm5 0c-0.5523 0-1 0.4477-1 1s0.4477 1 1 1 1-0.4477 1-1-0.4477-1-1-1zm4 2c-0.5523 0-1 0.4477-1 1s0.4477 1 1 1 1-0.4477 1-1-0.4477-1-1-1zm-3 1c-0.5523 0-1 0.4477-1 1s0.4477 1 1 1 1-0.4477 1-1-0.4477-1-1-1z" color="#000000" fill="#fefefe" style="text-decoration-line:none;text-indent:0;text-transform:none"/>
</g>
<path d="m49.841 23.038c-2.4129 0.21118-2.8554 3.1766-3.9184 4.9113-1.4439 3.0476-2.7739 6.1482-4.2457 9.1826-4.7989 0.7144-9.6868 0.90275-14.426 1.9608-2.6051 0.79587-1.5287 4.0092 0.27927 5.0785 2.9438 2.8978 6.0388 5.645 9.2159 8.2726 0.28661 1.8616-0.70462 4.0878-0.93428 6.085-0.48727 2.9905-1.4799 5.9699-1.3738 9.0143 0.66328 2.7737 4.0275 1.5535 5.5677 0.31878 2.6495-1.5914 5.4835-2.8668 8.1247-4.4859 1.8177-1.9384 3.6716-0.22232 5.4717 0.77741 3.1902 1.7126 6.2358 3.7656 9.6251 5.0616 2.8387 0.62491 3.1929-2.9419 2.4455-4.8563-0.67967-3.9151-1.5847-7.7868-2.2878-11.697 3.0143-2.9825 6.512-5.4123 9.4397-8.4901 1.8083-1.0691 2.8841-4.2828 0.27923-5.0785-4.7392-1.0603-9.628-1.2418-14.426-1.9608-2.1682-4.3405-3.845-8.9398-6.3236-13.117-0.56889-0.90011-1.5357-1.0453-2.5127-0.97665zm0 6.4919c1.7882 3.5799 3.2028 7.351 5.1571 10.843 1.6405 1.4226 4.0768 0.9705 6.087 1.4088 1.9243 0.41233 5.6909 0.22508 6.36 1.0939-2.7734 2.7668-6.0453 5.053-8.4745 8.1382-0.62373 2.0885 0.46901 4.2612 0.70567 6.3594 0.18568 1.8501 1.4966 5.2635 0.85892 6.061-3.4018-1.8084-6.6328-3.9614-10.149-5.5418-2.1623-0.1848-3.8685 1.6108-5.7517 2.4386-1.8025 0.8041-4.7486 3.1569-5.7868 2.8865 0.62848-3.7968 1.6876-7.5274 2.1017-11.355-0.49306-2.1131-2.7253-3.1836-4.0963-4.7171-1.316-1.4622-4.4727-3.5252-4.503-4.6208 3.8059-0.57316 7.6816-0.72284 11.45-1.5106 1.8632-1.1288 2.1719-3.6052 3.2209-5.3865 0.92739-2.0383 1.8491-4.0802 2.8199-6.0977z" color="#000000" color-rendering="auto" dominant-baseline="auto" fill="#fff" fill-opacity=".85268" image-rendering="auto" shape-rendering="auto" solid-color="#000000" stroke-width="1.3906" style="font-feature-settings:normal;font-variant-alternates:normal;font-variant-caps:normal;font-variant-ligatures:normal;font-variant-numeric:normal;font-variant-position:normal;isolation:auto;mix-blend-mode:normal;shape-padding:0;text-decoration-color:#000000;text-decoration-line:none;text-decoration-style:solid;text-indent:0;text-orientation:mixed;text-transform:none;white-space:normal"/>
<path d="m49.841 27.241c0.61767 0 6.3047 13.498 6.8044 13.862 0.4997 0.36305 15.095 1.6006 15.286 2.188 0.19087 0.58743-10.89 10.167-11.08 10.755-0.19087 0.58743 3.1423 14.85 2.6427 15.214-0.49969 0.36305-13.035-7.2147-13.653-7.2147-0.61766 0-13.153 7.5776-13.653 7.2147-0.4997-0.36305 2.8336-14.626 2.6427-15.214-0.19087-0.58743-11.271-10.167-11.08-10.755 0.19087-0.58743 14.786-1.825 15.286-2.188 0.4997-0.36305 6.1868-13.862 6.8044-13.862z" color="#000000" fill="#ffc022" stroke-width="1.3906"/>
</g>
<path d="m1.5 81.844v6c0 3.6801 2.9761 6.6562 6.6562 6.6562h79.688c3.6801 0 6.6563-2.9761 6.6563-6.6562v-6c0 3.6801-2.9761 6.6562-6.6563 6.6562h-79.688c-3.6801 0-6.6562-2.9761-6.6562-6.6562z" fill="url(#linearGradient4129)" opacity=".65818"/>
<rect x="5.375" y="80.25" width="84.25" height="4.25" rx="0" ry="4.25" fill="url(#radialGradient7462)" opacity=".55"/>
<rect transform="rotate(90)" x="5.56" y="-90.085" width="76.75" height="4.25" rx="0" ry="4.25" fill="url(#radialGradient7464)" opacity=".669"/>
<rect transform="matrix(1.0692 0 0 1.0477 4.2952 38.479)" x="2" y="-30" width="75.966" height="69.024" rx="3.957" ry="3.957" clip-path="url(#clipPath4156-4-1)" fill="url(#linearGradient4767)" opacity=".65"/>
<path d="m9.8251 4.7295c-3.1166 0-5.668 2.5395-5.668 5.646v69.278c0 3.1065 2.5513 5.646 5.668 5.646h76.792c3.1166 0 5.668-2.5395 5.668-5.646v-69.278c0-3.1065-2.5513-5.646-5.668-5.646zm0 2.3194h76.792c1.8881 0 3.352 1.4801 3.352 3.3266v69.278c0 1.8465-1.4639 3.3266-3.352 3.3266h-76.792c-1.8881 0-3.352-1.4801-3.352-3.3266v-69.278c0-1.8465 1.4639-3.3266 3.352-3.3266z" color="#000000" fill="#2f3030" style="text-decoration-line:none;text-indent:0;text-transform:none"/>
</svg>
