<?xml version="1.0" encoding="UTF-8"?>
<!-- Created with Inkscape (http://www.inkscape.org/) -->
<svg version="1.0" viewBox="0 0 96 96" xmlns="http://www.w3.org/2000/svg" xmlns:cc="http://creativecommons.org/ns#" xmlns:dc="http://purl.org/dc/elements/1.1/" xmlns:rdf="http://www.w3.org/1999/02/22-rdf-syntax-ns#" xmlns:xlink="http://www.w3.org/1999/xlink">
<defs>
<linearGradient id="ButtonShadow" x1="45.448" x2="45.448" y1="92.54" y2="7.0165" gradientTransform="scale(1.0059 .99417)" gradientUnits="userSpaceOnUse">
<stop offset="0"/>
<stop stop-opacity=".58824" offset="1"/>
</linearGradient>
<linearGradient id="linearGradient3737">
<stop stop-color="#fff" offset="0"/>
<stop stop-color="#fff" stop-opacity="0" offset="1"/>
</linearGradient>
<filter id="filter3174" color-interpolation-filters="sRGB">
<feGaussianBlur stdDeviation="1.71"/>
</filter>
<linearGradient id="linearGradient4063" x1="251.56" x2="251.56" y1="625.38" y2="989.65" gradientTransform="matrix(.10972 0 0 .10972 19.982 -39.815)" gradientUnits="userSpaceOnUse">
<stop stop-color="#fafafa" offset="0"/>
<stop stop-color="#e1e1e1" offset="1"/>
</linearGradient>
<filter id="filter3174-3" color-interpolation-filters="sRGB">
<feGaussianBlur stdDeviation="1.71"/>
</filter>
<filter id="filter3174-5" color-interpolation-filters="sRGB">
<feGaussianBlur stdDeviation="1.71"/>
</filter>
<linearGradient id="linearGradient7426-2" x1="6" x2="90" y1="47" y2="47" gradientTransform="matrix(1.1071 0 0 1.1071 2.9011 -18.701)" gradientUnits="userSpaceOnUse">
<stop stop-color="#c8d0d5" offset="0"/>
<stop stop-color="#fff" offset=".25"/>
<stop stop-color="#bbc5cb" offset=".5"/>
<stop stop-color="#f9fafb" offset=".75"/>
<stop stop-color="#cfd8db" offset="1"/>
</linearGradient>
<radialGradient id="radialGradient7462-6" cx="13.948" cy="44.893" r="43.199" gradientTransform="matrix(.97513 0 0 .049191 41.943 65.501)" gradientUnits="userSpaceOnUse" xlink:href="#linearGradient3737"/>
<radialGradient id="radialGradient7464-1" cx="13.948" cy="44.893" r="43.199" gradientTransform="matrix(.88833 0 0 .05385 16.069 -98.76)" gradientUnits="userSpaceOnUse" xlink:href="#linearGradient3737"/>
<radialGradient id="radialGradient7430-0" cx="48" cy="-27" r="42" gradientTransform="matrix(-1.187 0 0 -.96877 113.02 -39.322)" gradientUnits="userSpaceOnUse">
<stop stop-color="#fff" offset="0"/>
<stop stop-color="#fff" offset=".8"/>
<stop stop-color="#fff" stop-opacity="0" offset="1"/>
</radialGradient>
<linearGradient id="linearGradient4129-5" x1="1.5" x2="94.5" y1="88.172" y2="88.172" gradientTransform="translate(8.044 -14.666)" gradientUnits="userSpaceOnUse">
<stop offset="0"/>
<stop stop-opacity=".58824" offset=".1"/>
<stop stop-opacity=".58824" offset=".9"/>
<stop offset="1"/>
</linearGradient>
<linearGradient id="linearGradient7466-5" x1="2.7714" x2="48.345" y1="-28.642" y2="12.377" gradientUnits="userSpaceOnUse">
<stop stop-color="#fff" offset="0"/>
<stop stop-color="#fff" stop-opacity=".0044643" offset="1"/>
</linearGradient>
<clipPath id="clipPath4156-4-7">
<path d="m27.046-55.695-14.214 13.321h0.06127l15.653 21.771 10.231-10.546c-0.2169-1.1522-11.311-23.67-11.732-24.546zm-17.399 16.313-14.888 14.062 21.229 17.515 10.385-10.577zm31.491 12.951-9.7413 9.7136 8.9448 12.458 7.7808-7.555zm-49.84 4.3788-13.754 12.982 26.283 13.846 0.06127-0.0617-0.12253-0.0617 9.8332-10.053-22.301-16.652zm38.015 7.4008-9.8025 9.7753 11.579 9.5594 7.6276-7.4008-8.6691-11.009zm20.187 5.674-7.3825 7.2158 6.1878 8.5418 5.8202-6.1365zm-32.195 6.3215-9.5575 9.4977 13.662 7.185 7.9339-7.6784zm23.312 2.3744-7.1068 6.9383 8.3628 6.9074 5.3608-5.674-0.06127-0.0925-0.0919 0.12335-6.4635-8.2026zm-8.7304 8.5418-7.5051 7.3392 10.354 5.4581c1.3975-1.321 5.6751-6.1229 5.8509-6.3215z" fill="#fff" opacity=".6"/>
</clipPath>
<linearGradient id="linearGradient1224" x1="13.432" x2="99.124" y1="29.796" y2="29.796" gradientUnits="userSpaceOnUse">
<stop stop-color="#116cad" offset="0"/>
<stop stop-color="#2497ea" offset="1"/>
</linearGradient>
</defs>
<metadata>
<rdf:RDF>
<cc:Work rdf:about="">
<dc:format>image/svg+xml</dc:format>
<dc:type rdf:resource="http://purl.org/dc/dcmitype/StillImage"/>
<dc:title/>
</cc:Work>
</rdf:RDF>
</metadata>
<g display="none">
<rect x="5" y="7" width="86" height="85" rx="6" ry="6" fill="url(#ButtonShadow)" filter="url(#filter3174)" opacity=".9"/>
</g>
<g transform="translate(-1e-6,32)">
<g transform="translate(-8.044 -17.334)">
<rect x="8.044" y="-14.666" width="96" height="2.5" fill="#fff" opacity=".31222"/>
<path d="m97.187-14.666h-82.286c-3.7988 0-6.8571 3.0583-6.8571 6.8571v82.286c0 3.7989 3.0583 6.8571 6.8571 6.8571h82.286c3.7989 0 6.8571-3.0583 6.8571-6.8571v-82.286c0-3.7989-3.0583-6.8571-6.8571-6.8571z" opacity=".15"/>
<path d="m96.544-13.916h-81c-3.7395 0-6.75 3.0105-6.75 6.75v81c0 3.7395 3.0105 6.75 6.75 6.75h81c3.7395 0 6.75-3.0105 6.75-6.75v-81c0-3.7395-3.0105-6.75-6.75-6.75z" opacity=".15"/>
<path d="m95.901-13.166h-79.714c-3.6801 0-6.6428 2.9627-6.6428 6.6429v79.714c0 3.6801 2.9627 6.6429 6.6428 6.6429h79.714c3.6801 0 6.6429-2.9627 6.6429-6.6429v-79.714c0-3.6801-2.9627-6.6429-6.6429-6.6429z" fill="url(#linearGradient7426-2)"/>
<rect x="13.419" y="65.584" width="84.25" height="4.25" rx="0" ry="4.25" fill="url(#radialGradient7462-6)" opacity=".55"/>
<rect transform="rotate(90)" x="-9.9156" y="-98.669" width="76.75" height="4.6526" rx="0" ry="4.6526" fill="url(#radialGradient7464-1)" opacity=".55"/>
<rect x="13.432" y="-9.6705" width="85.692" height="78.933" rx="6.1209" ry="5.6381" fill="url(#linearGradient1224)"/>
<path d="m17.869-9.9361c-3.1166 0-5.668 2.5395-5.668 5.646v69.278c0 3.1065 2.5514 5.646 5.668 5.646h76.792c3.1166 0 5.668-2.5395 5.668-5.646v-69.278c0-3.1065-2.5513-5.646-5.668-5.646zm0 2.3194h76.792c1.8881 0 3.352 1.4801 3.352 3.3266v69.278c0 1.8465-1.4639 3.3266-3.352 3.3266h-76.792c-1.8881 0-3.352-1.4801-3.352-3.3266v-69.278c0-1.8465 1.4639-3.3266 3.352-3.3266z" color="#000000" fill="#363636" fill-opacity=".98214" style="text-decoration-line:none;text-indent:0;text-transform:none"/>
<path d="m16.187-13.166c-3.6801 0-6.6428 2.9627-6.6428 6.6429v16.607h1.1071v-16.607c0-3.0859 2.4498-5.5357 5.5357-5.5357h79.714c3.0859 0 5.5357 2.4498 5.5357 5.5357v16.607h1.1071v-16.607c0-3.6801-2.9627-6.6429-6.6429-6.6429z" fill="url(#radialGradient7430-0)" opacity=".45"/>
<path d="m9.544 67.178v6c0 3.6801 2.9761 6.6562 6.6562 6.6562h79.687c3.6801 0 6.6563-2.9761 6.6563-6.6562v-6c0 3.6801-2.9761 6.6562-6.6563 6.6562h-79.687c-3.6802 0-6.6562-2.9761-6.6562-6.6562z" fill="url(#linearGradient4129-5)" opacity=".65818"/>
<g transform="matrix(1.0891 0 0 1.0891 3.7615 -18.364)">
<path d="m47.781 19.094c-1.5314 0.43054-2.4728 1.9421-3.7502 2.8314-2.7187 2.3583-5.4374 4.7165-8.156 7.0748-4.7184-0.39988-9.4391-1.0139-14.156-1.2812-1.8817 0.38826-1.7274 2.6839-2.3444 4.1028-1.8457 6.3231-3.8403 12.621-5.5931 18.96-0.0169 1.7196 1.9498 2.4098 2.9445 3.54 4.2998 3.7158 8.5995 7.4317 12.899 11.148 0.28383 1.2733 1.2062 2.1631 2.4246 2.5603 5.1619 2.5887 10.315 5.221 15.482 7.7834 1.4978 0.25145 2.7156-1.0782 4.0758-1.5483 4.6171-2.3785 9.3431-4.6041 13.893-7.0767 0.71833-0.79961 0.78073-2.0132 1.8485-2.533 4.8296-4.2201 9.7597-8.3415 14.527-12.623 0.97382-1.4817-0.36967-3.1856-0.60227-4.725-1.8867-6.2211-3.6588-12.49-5.6165-18.681-1.1107-1.6386-3.2545-0.61444-4.8542-0.64817-3.5486 0.34106-7.0972 0.68211-10.646 1.0232-3.7853-3.2199-7.4535-6.5988-11.312-9.7188-0.32985-0.17411-0.69755-0.20132-1.0625-0.1875z" fill="#fff" opacity=".05"/>
<path d="m47.906 19.969a1.0274 1.0274 0 0 0-0.59375 0.25l-11.156 9.6875-14.031-1.3438a1.0274 1.0274 0 0 0-1.0938 0.75l-6.3438 21.312a1.0274 1.0274 0 0 0 0.3125 1.0625l15.312 13.25 0.53125 1.25a1.0274 1.0274 0 0 0 0.46875 0.5l16.219 8.1875a1.0274 1.0274 0 0 0 0.46875 0.125h0.03125a1.0274 1.0274 0 0 0 0.46875-0.125l16.219-8.1875a1.0274 1.0274 0 0 0 0.46875-0.5l0.53125-1.25 15.312-13.25a1.0274 1.0274 0 0 0 0.3125-1.0625l-6.3438-21.312a1.0274 1.0274 0 0 0-1.0938-0.75l-14.031 1.3438-11.156-9.6875a1.0274 1.0274 0 0 0-0.6875-0.25h-0.03125a1.0274 1.0274 0 0 0-0.09375 0z" fill="#fff" opacity=".05"/>
<path d="m48 20.969v0.03125l-11.5 9.9687-14.469-1.375-6.3438 21.312 15.438 13.375 0.65625 1.5 16.219 8.1875 0.03125 0.03125v-0.03125l16.219-8.1875 0.65625-1.5 15.438-13.375-6.3438-21.312-14.469 1.375-11.5-9.9687z" fill="#333"/>
<path d="m47.75 27a0.85224 0.85224 0 0 0-0.28125 0.09375c-1.9529 1.1437-3.4557 2.8036-5.0312 4.0625-0.02208 0.01764-0.04039 0.04501-0.0625 0.0625-1.0203 0.69302-1.8736 1.6143-2.6875 2.375-0.82066 0.76699-1.5905 1.3065-2.375 1.4688-3.6384-0.28403-7.3359-0.85496-11.094-0.96875a0.85224 0.85224 0 0 0-0.5625 0.1875c-0.89411 0.74803-1.2459 1.7871-1.4688 2.7188s-0.37111 1.8063-0.65625 2.4062a0.85224 0.85224 0 0 0-0.03125 0.125c-1.0395 3.5815-2.2412 7.1785-3.1875 10.844a0.85224 0.85224 0 0 0 0.09375 0.6875c1.3508 2.0111 3.4579 3.2447 4.9062 4.6562a0.85224 0.85224 0 0 0 0.0625 0.03125c2.5552 2.1374 5.0449 4.3664 7.6875 6.4688a0.85224 0.85224 0 0 0 0.46875 0.1875c0.13215 0.0077 0.27348-0.0068 0.40625 0-0.09208 0.27177-0.20092 0.55509-0.15625 0.8125 0.10558 0.60843 0.59209 1.1501 1.25 1.375v0.03125c4.154 2.081 8.2806 4.3359 12.531 6.3125a0.85224 0.85224 0 0 0 0.5625 0.03125c2.0762-0.53607 3.7465-1.8327 5.375-2.5312a0.85224 0.85224 0 0 0 0.0625-0.03125c2.6439-1.3847 5.368-2.6388 8.0312-4.125a0.85224 0.85224 0 0 0 0.1875-0.15625c0.47246-0.47789 0.4632-1.1316 0.28125-1.6875 0.13733-0.0065 0.2689 0.0092 0.40625 0a0.85224 0.85224 0 0 0 0.46875-0.1875c3.9815-3.2395 7.8271-6.6417 11.719-9.9375l-0.03125-0.0625c0.47715-0.34268 0.85262-0.78485 0.96875-1.2812 0.12743-0.54469 0.05811-1.0486-0.0625-1.5-0.24122-0.90275-0.63969-1.725-0.6875-2.125a0.85224 0.85224 0 0 0-0.03125-0.15625c-1.1894-4.056-2.3962-8.1281-3.6562-12.156a0.85224 0.85224 0 0 0-0.34375-0.46875c-1.0977-0.72811-2.3451-0.58992-3.4062-0.40625s-2.0317 0.41546-2.7188 0.34375a0.85224 0.85224 0 0 0-0.15625 0c-2.2144 0.15662-4.3758 0.57018-6.3438 0.5625-3.1499-2.4777-6.0844-5.3522-9.3438-7.875a0.85224 0.85224 0 0 0-0.4375-0.15625l-0.25-0.03125a0.85224 0.85224 0 0 0-0.09375 0h-0.15625a0.85224 0.85224 0 0 0-0.15625 0zm-16.625 14.531c0.06193 0.0056 0.12553 0.02542 0.1875 0.03125-0.09761 0.03705-0.1603 0.10759-0.25 0.15625 0.02029-0.0626 0.04219-0.12491 0.0625-0.1875zm33.562 0.03125c0.06185-0.0068 0.12562 0.0069 0.1875 0 0.0072 0.0219 0.02408 0.0406 0.03125 0.0625-0.07088-0.02972-0.14484-0.04112-0.21875-0.0625zm-10.312 0.1875c0.24259 0.19794 0.47302 0.39917 0.71875 0.59375a0.85224 0.85224 0 0 0 0.46875 0.1875c0.2969 0.01809 0.5249-0.05035 0.8125-0.0625a0.85224 0.85224 0 0 0-0.09375 0.125c-0.79921 1.3074-0.86647 2.7818-0.90625 4.1562-0.03978 1.3745-0.05224 2.6802-0.46875 3.6875a0.85224 0.85224 0 0 0-0.0625 0.125c-0.06549 0.29088-0.20665 0.55546-0.28125 0.84375 0.37579-2.4206 0.5214-4.8738 0.53125-7.2188 8.5e-5 -0.02034-7.4e-5 -0.04218 0-0.0625 1e-3 -0.0094-1e-3 -0.02182 0-0.03125 0.04607-0.42475 0.08946-0.88696-0.03125-1.4062-0.07954-0.34217-0.42574-0.62903-0.6875-0.9375zm-13.031 0.21875c-0.05816 0.07269-0.13084 0.11289-0.1875 0.1875a0.85224 0.85224 0 0 0-0.15625 0.46875c-0.10152 2.8091-0.0949 5.7433 0.34375 8.625-0.5969-2.4918-0.9181-5.096-1.0625-7.6875a0.85224 0.85224 0 0 0-0.15625-0.46875c-0.26581-0.34135-0.62862-0.47568-0.96875-0.65625 0.36997 0.03503 0.72225 0.0982 1.0938 0.125a0.85224 0.85224 0 0 0 0.5625-0.15625c0.1946-0.13633 0.34289-0.29525 0.53125-0.4375zm-0.5 18.688c0.24291 0.18688 0.47246 0.37915 0.71875 0.5625-0.26544 0.0049-0.54532-0.0019-0.8125 0 0.0693-0.18262 0.0869-0.37967 0.09375-0.5625zm10 0c0.03899 0.20893 0.10384 0.40993 0.1875 0.59375-0.18762-4.25e-4 -0.37487-0.03088-0.5625-0.03125 0.0594-0.09078 0.13247-0.15153 0.1875-0.25 0.03433-0.04118 0.05994-0.08358 0.09375-0.125 0.04536-0.05557 0.04933-0.1315 0.09375-0.1875zm4.25 0.15625c0.02215 0.17119 0.15377 0.28489 0.21875 0.4375-0.25009-0.0011-0.4999 9.86e-4 -0.75 0 0.21612-0.16576 0.33162-0.26864 0.53125-0.4375zm-9.8125 0.1875c0.05848 0.06938 0.09477 0.15194 0.15625 0.21875-0.05212 7.1e-5 -0.10413-7.7e-5 -0.15625 0 0.02308-0.08022-0.01168-0.1422 0-0.21875z" opacity=".1"/>
<path d="m47.906 27.844c-1.8287 1.071-3.3327 2.7149-5.0066 4.0388-1.852 1.2256-3.3391 3.6561-5.4762 4.0616-3.7465-0.28169-7.4885-0.89324-11.236-1.0067-1.3381 1.1195-1.1563 3.3062-1.8863 4.842-1.0462 3.6046-2.238 7.1837-3.174 10.809 1.2017 1.7891 3.2229 2.9847 4.7758 4.498 2.5697 2.1495 5.0753 4.3971 7.6921 6.479 1.9539 0.11455 3.9664 0.12068 5.9144-0.1352 0.9027-0.30703 0.60726-1.5111-0.14991-1.8102-3.9397-3.2584-7.895-6.4994-11.766-9.8389 0.97227-3.0542 1.946-6.1087 2.9375-9.1562 3.2657 0.24948 6.5188 0.86766 9.7754 1.1026 1.6542-1.1589 3.1138-2.6309 4.6886-3.9133 1.2906-0.51039 2.5412-3.6564 3.8316-1.9415 2.2755 1.9263 4.4654 3.9738 6.7979 5.8207 1.4465 0.08812 2.9183-0.33187 4.3737-0.43244 1.8209-0.23382 3.6464-0.42856 5.4704-0.63608 0.99383 3.0467 2.014 6.0877 2.9375 9.1562-4.0403 3.5484-8.29 6.8687-12.357 10.378-0.50337 0.77031 0.40485 1.5204 1.1691 1.372 1.7178 0.06624 3.4673 0.18331 5.1777 0.06889 3.9615-3.2233 7.7946-6.6387 11.697-9.9439 1.6029-0.9947 0.06437-2.8874-0.09616-4.2304-1.1889-4.0544-2.3963-8.1246-3.6538-12.145-1.6173-1.0728-3.9008 0.25859-5.7487 0.06571-2.2299 0.15772-4.5427 0.64592-6.72 0.59054-3.2892-2.558-6.2819-5.5232-9.5625-8.0625l-0.25-0.03125zm-0.125 8.8437c-1.0756 0.62495-1.7911 1.7766-2.7313 2.5978-1.0403 1.1438-2.2613 2.1573-3.1909 3.3813-0.20554 5.6874 0.10312 11.796 3.3118 16.706 1.0335 1.9183 3.4137 3.8 4.8253 1.0682 3.7646-4.5155 4.242-10.695 4.2612-16.343 0.09379-0.82009 0.1021-1.732-0.71242-2.2033-1.7766-1.6897-3.4375-3.5242-5.2597-5.1512-0.15725-0.06903-0.33553-0.08867-0.50404-0.05552zm16.219 5.5312c-2.3392 0.22962-4.6848 0.48144-7.0085 0.81756-1.3025 2.1307-0.28485 5.2619-1.2928 7.6997-0.7617 3.383-2.1341 6.6277-4.105 9.4827 0.25932 2.9697 3.354-0.4664 4.5394-1.335 3.602-3.0311 7.341-5.9421 10.679-9.2588 0.0077-2.1834-1.0817-4.3672-1.5625-6.5312-0.07581-0.62337-0.63901-0.98999-1.25-0.875zm-32.281 0.03125c-1.5724 0.37467-1.1742 2.6162-1.7812 3.8125-0.21248 1.1798-0.83586 2.3394-0.78999 3.5345 1.1728 1.6335 3.0221 2.6832 4.4718 4.0696 3.249 2.6446 6.3395 5.5133 9.7869 7.896 2.6146-0.25049-0.2837-3.0026-0.72466-4.1905-2.2781-4.2144-2.9813-9.0314-3.2441-13.747-1.1059-1.4202-3.5795-0.6557-5.2116-1.1758-0.83296-0.10396-1.6715-0.13947-2.5072-0.19922zm10 19.812c-2.1852 0.04551-4.387-0.04662-6.5621 0.08202-0.87699 0.29991-0.61623 1.5919 0.24012 1.7294 4.1707 2.0894 8.2908 4.3206 12.509 6.2824 1.8401-0.47512 3.4811-1.729 5.2498-2.4877 2.6693-1.398 5.4197-2.6729 8.0447-4.1378 0.65124-0.65872-0.15826-1.7015-0.98606-1.439-6.1653-0.03478-12.331-0.05654-18.496-0.02922z" opacity=".15"/>
<path d="m48.029 28.688c-0.04652-0.01646-2.2114 1.7982-4.8169 4.0625-3.7738 3.2795-4.8084 4.1212-5.0491 4.1205-0.16618-4.41e-4 -2.8422-0.25149-5.9776-0.58035-3.1354-0.32886-5.7204-0.57646-5.7455-0.55134-0.0494 0.04937-4.38 14.37-4.4397 14.683-0.02563 0.13418 1.7079 1.6717 5.9486 5.2812l5.9776 5.0781h2.1473c1.1767-0.0028 2.3548-0.04708 2.6406-0.08705l0.52232-0.05803-6.2968-5.2232c-3.4655-2.8663-6.2934-5.28-6.2968-5.3683-0.0037-0.08831 0.58554-1.9448 1.3058-4.1495 0.72025-2.2047 1.4373-4.4897 1.625-5.0781 0.33877-1.0616 0.34766-1.0776 0.69642-1.0737 0.19329 0.0022 2.4887 0.25892 5.0781 0.58035l4.7009 0.58035 3.6852-3.1629c2.0269-1.7511 3.817-3.3075 3.9754-3.4531l0.29018-0.26116 2.9018 2.4955c1.5916 1.3771 3.372 2.9338 3.9754 3.4531l1.1027 0.92856 5.0201-0.60937c2.7646-0.34148 5.0313-0.61349 5.0491-0.58035 0.05664 0.10569 3.366 10.29 3.366 10.359 0 0.03649-2.848 2.4255-6.3258 5.3102l-6.3258 5.2522 0.55134 0.05803c0.29468 0.03997 1.48 0.08176 2.6406 0.08705l2.1183 0.02902 5.9486-5.0781c3.2746-2.7833 5.961-5.0969 5.9776-5.1651 0.02498-0.10214-4.3321-14.778-4.4107-14.857-0.01356-0.01358-2.6097 0.24852-5.7745 0.58035-3.1648 0.33183-5.8735 0.5972-6.0357 0.58035-0.20766-0.02157-1.6981-1.2321-4.991-4.0915-2.5713-2.2327-4.7124-4.075-4.7589-4.0915zm-0.05804 8.8504-2.6696 2.6986-2.6406 2.7277v2.3504c-0.0084 3.6921 0.4168 6.8261 1.2768 9.4888 0.79062 2.4479 1.7127 4.0908 3.1049 5.4843 0.46721 0.46766 0.87496 0.84151 0.92856 0.84151 0.21561 0 1.3333-1.1014 1.9152-1.8861 0.86539-1.1672 1.5918-2.6008 2.1473-4.2946 0.90143-2.7489 1.2542-5.146 1.3348-9.1115l0.05804-2.8727-2.7277-2.7277-2.7277-2.6986zm16.366 5.5134c-0.0273-0.02734-1.5783 0.13396-3.4531 0.34821-1.8748 0.21425-3.4769 0.40625-3.5402 0.40625-0.07419 0-0.11607 0.50473-0.11607 1.4219 0 4.8323-1.7389 10.658-4.3236 14.509-0.5988 0.89212-0.65696 1.0607-0.40625 0.89955 1.6741-1.0757 13.601-11.165 13.551-11.462-0.05414-0.32646-1.661-6.0717-1.712-6.1227zm-32.674 0.05803c-0.04494 0.04803-0.44005 1.4733-0.89955 3.1629l-0.84151 3.0469 0.29018 0.29018c2.8009 2.4526 10.487 8.8896 12.303 10.301 0.63015 0.48978 1.1718 0.85938 1.1897 0.84151 0.01783-0.01787-0.27315-0.50359-0.66741-1.1027-2.5317-3.8469-4.0501-8.895-4.2946-14.277-0.03965-0.87275-0.1095-1.567-0.14509-1.567-0.03556 0-1.5879-0.19228-3.4531-0.40625-1.8652-0.21397-3.4371-0.3382-3.4821-0.29018zm10.069 19.79-6.3258 0.02902 6.2968 3.221c3.4512 1.7615 6.2934 3.1745 6.3258 3.1629 0.03241-0.01153 2.8793-1.442 6.3258-3.1919l6.2678-3.1919-6.2968-0.02902c-3.4638-0.01557-9.1274-0.01557-12.594 0z" opacity=".3"/>
<path d="m48.029 27.688c-0.04652-0.01646-2.2114 1.7982-4.8169 4.0625-3.7738 3.2795-4.8084 4.1212-5.0491 4.1205-0.16618-4.41e-4 -2.8422-0.25149-5.9776-0.58035-3.1354-0.32886-5.7204-0.57646-5.7455-0.55134-0.0494 0.04937-4.38 14.37-4.4397 14.683-0.02563 0.13418 1.7079 1.6717 5.9486 5.2812l5.9776 5.0781h2.1473c1.1767-0.0028 2.3548-0.04708 2.6406-0.08705l0.52232-0.05803-6.2968-5.2232c-3.4655-2.8663-6.2934-5.28-6.2968-5.3683-0.0037-0.08831 0.58554-1.9448 1.3058-4.1495 0.72025-2.2047 1.4373-4.4897 1.625-5.0781 0.33877-1.0616 0.34766-1.0776 0.69642-1.0737 0.19329 0.0022 2.4887 0.25892 5.0781 0.58035l4.7009 0.58035 3.6852-3.1629c2.0269-1.7511 3.817-3.3075 3.9754-3.4531l0.29018-0.26116 2.9018 2.4955c1.5916 1.3771 3.372 2.9338 3.9754 3.4531l1.1027 0.92856 5.0201-0.60937c2.7646-0.34148 5.0313-0.61349 5.0491-0.58035 0.05664 0.10569 3.366 10.29 3.366 10.359 0 0.03649-2.848 2.4255-6.3258 5.3102l-6.3258 5.2522 0.55134 0.05803c0.29468 0.03997 1.48 0.08176 2.6406 0.08705l2.1183 0.02902 5.9486-5.0781c3.2746-2.7833 5.961-5.0969 5.9776-5.1651 0.02498-0.10214-4.3321-14.778-4.4107-14.857-0.01356-0.01358-2.6097 0.24852-5.7745 0.58035-3.1648 0.33183-5.8735 0.5972-6.0357 0.58035-0.20766-0.02157-1.6981-1.2321-4.991-4.0915-2.5713-2.2327-4.7124-4.075-4.7589-4.0915zm-0.05804 8.8504-2.6696 2.6986-2.6406 2.7277v2.3504c-0.0084 3.6921 0.4168 6.8261 1.2768 9.4888 0.79062 2.4479 1.7127 4.0908 3.1049 5.4843 0.46721 0.46766 0.87496 0.84151 0.92856 0.84151 0.21561 0 1.3333-1.1014 1.9152-1.8861 0.86539-1.1672 1.5918-2.6008 2.1473-4.2946 0.90143-2.7489 1.2542-5.146 1.3348-9.1115l0.05804-2.8727-2.7277-2.7277-2.7277-2.6986zm16.366 5.5134c-0.0273-0.02734-1.5783 0.13396-3.4531 0.34821-1.8748 0.21425-3.4769 0.40625-3.5402 0.40625-0.07419 0-0.11607 0.50473-0.11607 1.4219 0 4.8323-1.7389 10.658-4.3236 14.509-0.5988 0.89212-0.65696 1.0607-0.40625 0.89955 1.6741-1.0757 13.601-11.165 13.551-11.462-0.05414-0.32646-1.661-6.0717-1.712-6.1227zm-32.674 0.05803c-0.04494 0.04803-0.44005 1.4733-0.89955 3.1629l-0.84151 3.0469 0.29018 0.29018c2.8009 2.4526 10.487 8.8896 12.303 10.301 0.63015 0.48978 1.1718 0.85938 1.1897 0.84151 0.01783-0.01787-0.27315-0.50359-0.66741-1.1027-2.5317-3.8469-4.0501-8.895-4.2946-14.277-0.03965-0.87275-0.1095-1.567-0.14509-1.567-0.03556 0-1.5879-0.19228-3.4531-0.40625-1.8652-0.21397-3.4371-0.3382-3.4821-0.29018zm10.069 19.79-6.3258 0.02902 6.2968 3.221c3.4512 1.7615 6.2934 3.1745 6.3258 3.1629 0.03241-0.01153 2.8793-1.442 6.3258-3.1919l6.2678-3.1919-6.2968-0.02902c-3.4638-0.01557-9.1274-0.01557-12.594 0z" fill="url(#linearGradient4063)"/>
<path d="m15.938 51.125-0.25 0.78125 15.438 13.375 0.65625 1.5 16.219 8.1875h0.0312l16.219-8.1875 0.65625-1.5 15.438-13.375-0.25-0.78125-15.188 13.156-0.65625 1.5-16.219 8.1875h-0.0312l-16.219-8.1875-0.65625-1.5z" fill="#fff" opacity=".2"/>
<path d="m48 21-11.5 9.9687-14.469-1.375-6.3438 21.312 15.438 13.375 0.65625 1.5 16.219 8.1875h0.0312l16.219-8.1875 0.65625-1.5 15.438-13.375-6.3437-21.312-14.469 1.375-11.5-9.9687h-0.0312zm0 2 10.531 9.125a1.5115 1.5115 0 0 0 1.1562 0.34375l13.219-1.25 5.7188 19.156-14.719 12.75a1.5115 1.5115 0 0 0-0.375 0.5625l-0.4375 0.96875-15.094 7.625-15.062-7.625-0.4375-0.96875a1.5115 1.5115 0 0 0-0.375-0.5625l-14.719-12.75 5.7188-19.156 13.219 1.25a1.5115 1.5115 0 0 0 1.1562-0.34375z" opacity=".1"/>
<path d="m48 21-11.5 9.9687-14.469-1.375-6.3438 21.312 15.438 13.375 0.65625 1.5 16.219 8.1875h0.0312l16.219-8.1875 0.65625-1.5 15.438-13.375-6.3437-21.312-14.469 1.375-11.5-9.9687h-0.0312zm0 0.96875 11.031 9.5625a0.74618 0.74618 0 0 0 0.5625 0.1875l13.875-1.3125 6.0312 20.25-15.094 13.062a0.74618 0.74618 0 0 0-0.1875 0.25l-0.5625 1.2812-15.656 7.9062-15.625-7.9062-0.5625-1.2812a0.74618 0.74618 0 0 0-0.1875-0.25l-15.094-13.062 6.0312-20.25 13.875 1.3125a0.74618 0.74618 0 0 0 0.5625-0.1875z" opacity=".15"/>
<path d="m48 21-11.5 9.9687-14.469-1.375-6.3438 21.312 0.25 0.21875 6.0938-20.531 14.469 1.375 11.5-9.9687h0.0312l11.5 9.9687 14.469-1.375 6.0938 20.531 0.25-0.21875-6.3437-21.312-14.469 1.375-11.5-9.9687h-0.0312z" opacity=".3"/>
<path d="m48.031 27.688c-0.04652-0.01646-2.207 1.7982-4.8125 4.0625-3.7738 3.2795-4.8218 4.1257-5.0625 4.125-0.16618-4.41e-4 -2.8333-0.26489-5.9688-0.59375-3.1354-0.32886-5.7249-0.55638-5.75-0.53125-0.0494 0.04937-4.3778 14.375-4.4375 14.688-0.0046 0.02398 0.10666 0.13254 0.21875 0.25 0.44308-1.5638 4.1718-13.891 4.2188-13.938 0.02513-0.02513 2.6146 0.20239 5.75 0.53125 3.1354 0.32886 5.8026 0.59331 5.9688 0.59375 0.24069 6.59e-4 1.2887-0.84548 5.0625-4.125 2.6055-2.2643 4.766-4.079 4.8125-4.0625 0.04651 0.01646 2.1787 1.861 4.75 4.0937 3.293 2.8594 4.7923 4.0722 5 4.0938 0.16215 0.01685 2.8664-0.26192 6.0312-0.59375 3.1648-0.33183 5.7677-0.57608 5.7812-0.5625 0.07431 0.07431 3.7851 12.519 4.1875 14.031 0.02028-0.02034 0.21774-0.18335 0.21875-0.1875 0.02498-0.10214-4.3277-14.765-4.4062-14.844-0.01356-0.01358-2.6164 0.23067-5.7812 0.5625-3.1648 0.33183-5.8691 0.6106-6.0312 0.59375-0.20766-0.02157-1.707-1.2344-5-4.0938-2.5713-2.2327-4.7035-4.0773-4.75-4.0937zm-0.0625 8.8437-5.3125 5.4375v1l5.3125-5.4375 2.7188 2.7188 2.7188 2.6875 0.03125-0.96875-2.75-2.7188zm16.375 5.5312c-0.0273-0.02734-1.594 0.1295-3.4688 0.34375-1.8748 0.21425-3.468 0.40625-3.5312 0.40625-0.07419 0-0.125 0.48912-0.125 1.4062 0 4.8323-1.7277 10.68-4.3125 14.531-0.5988 0.89212-0.65696 1.0361-0.40625 0.875 0.17354-0.11151 0.50587-0.37197 0.875-0.65625 2.3169-3.8302 3.8438-9.2242 3.8438-13.75 0-0.91713 0.05081-1.4062 0.125-1.4062 0.06323 0 1.6565-0.192 3.5312-0.40625 1.8748-0.21425 3.4414-0.37109 3.4688-0.34375 0.0448 0.0448 1.1592 4.0374 1.5 5.3438 0.06131-0.06793 0.22136-0.203 0.21875-0.21875-0.05414-0.32646-1.6677-6.0739-1.7188-6.125zm-32.688 0.0625c-0.04494 0.04803-0.44675 1.4666-0.90625 3.1562l-0.8125 3.0312 0.21875 0.21875 0.59375-2.25c0.4595-1.6896 0.86131-3.1082 0.90625-3.1562 0.04497-0.04803 1.6348 0.06728 3.5 0.28125 1.8652 0.21397 3.4019 0.40625 3.4375 0.40625 0.03559 0 0.1166 0.68975 0.15625 1.5625 0.23062 5.0752 1.5971 9.8396 3.875 13.594 0.58519 0.44971 1.0769 0.79814 1.0938 0.78125 0.01783-0.01787-0.29324-0.49467-0.6875-1.0938-2.5317-3.8469-4.0367-8.8995-4.2812-14.281-0.03965-0.87275-0.12066-1.5625-0.15625-1.5625-0.03556 0-1.5723-0.19228-3.4375-0.40625-1.8652-0.21397-3.455-0.32928-3.5-0.28125zm-4.75 7.125c-0.0389 0.13457-0.2507 0.76448-0.25 0.78125 0.0034 0.08831 2.8157 2.5087 6.2812 5.375l5.2188 4.3125c0.20153-0.0109 0.48214-0.02001 0.5625-0.03125l0.53125-0.0625-6.3125-5.2188c-3.2333-2.6742-5.684-4.7909-6.0312-5.1562zm42.25 0.03125c-0.21662 0.21391-2.7247 2.3251-6.0625 5.0938l-6.3438 5.25 0.5625 0.0625c0.06245 0.0085 0.42877 0.02298 0.5625 0.03125l5.2188-4.3438c3.4778-2.8847 6.3125-5.276 6.3125-5.3125 0-0.0052-0.21513-0.66952-0.25-0.78125zm-27.438 12.625-6.3125 0.03125 1.9375 1 4.375-0.03125c3.4663-0.01557 9.1299-0.01557 12.594 0l4.375 0.03125 1.9375-1-6.3125-0.03125c-3.4638-0.01557-9.1275-0.01557-12.594 0z" fill="#fff"/>
</g>
<rect transform="matrix(.9093 0 0 .92838 12.389 19.829)" x="2" y="-30" width="92" height="92" rx="3.957" ry="3.957" clip-path="url(#clipPath4156-4-7)" fill="url(#linearGradient7466-5)" opacity=".585"/>
<g transform="translate(251.29 -104.9)">
<g display="none">
<rect x="5" y="7" width="86" height="85" rx="6" ry="6" fill="url(#ButtonShadow)" filter="url(#filter3174-3)" opacity=".9"/>
</g>
</g>
</g>
</g>
<g display="none">
<rect x="5" y="7" width="86" height="85" rx="6" ry="6" fill="url(#ButtonShadow)" filter="url(#filter3174-5)" opacity=".9"/>
</g>
</svg>
