<?xml version="1.0" encoding="UTF-8"?>
<!-- Created with Inkscape (http://www.inkscape.org/) -->
<svg version="1.1" viewBox="0 0 48 48" xmlns="http://www.w3.org/2000/svg" xmlns:cc="http://creativecommons.org/ns#" xmlns:dc="http://purl.org/dc/elements/1.1/" xmlns:rdf="http://www.w3.org/1999/02/22-rdf-syntax-ns#" xmlns:xlink="http://www.w3.org/1999/xlink">
<defs>
<linearGradient id="linearGradient6303-33-0-2">
<stop stop-color="#fff" offset="0"/>
<stop stop-color="#fff" stop-opacity="0" offset="1"/>
</linearGradient>
<radialGradient id="radialGradient3161" cx="23.896" cy="3.99" r="20.397" gradientTransform="matrix(0 13.769 -18.175 0 377.17 -297.25)" gradientUnits="userSpaceOnUse">
<stop stop-color="#c6d7e4" offset="0"/>
<stop stop-color="#a3bed3" offset=".26238"/>
<stop stop-color="#90b1ca" offset=".66094"/>
<stop stop-color="#4c6b78" offset="1"/>
</radialGradient>
<linearGradient id="linearGradient4071" x1="6" x2="90" y1="47" y2="47" gradientTransform="matrix(1.106 0 0 1.1071 -5.1375 -4.0357)" gradientUnits="userSpaceOnUse">
<stop stop-color="#b2babc" offset="0"/>
<stop stop-color="#fff" offset=".25"/>
<stop stop-color="#96a1a4" offset=".5"/>
<stop stop-color="#fbf9f9" offset=".75"/>
<stop stop-color="#b2b9bc" offset="1"/>
</linearGradient>
<linearGradient id="linearGradient4129" x1="1.5" x2="94.5" y1="88.172" y2="88.172" gradientTransform="matrix(.99896 0 0 1 -2.9511e-6 2.5281e-5)" gradientUnits="userSpaceOnUse">
<stop offset="0"/>
<stop stop-opacity=".58824" offset=".1"/>
<stop stop-opacity=".58824" offset=".9"/>
<stop offset="1"/>
</linearGradient>
<radialGradient id="radialGradient7462" cx="13.948" cy="44.893" r="43.199" gradientTransform="matrix(.97412 0 0 .049191 33.863 80.167)" gradientUnits="userSpaceOnUse" xlink:href="#linearGradient6303-33-0-2"/>
<radialGradient id="radialGradient7464" cx="13.948" cy="44.893" r="43.199" gradientTransform="matrix(.88833 0 0 .049139 31.545 -90.074)" gradientUnits="userSpaceOnUse" xlink:href="#linearGradient6303-33-0-2"/>
<linearGradient id="linearGradient4767" x1="2.7714" x2="50.528" y1="-28.642" y2="14.514" gradientTransform="matrix(2.0189 0 0 2.0211 3.6206 37.019)" gradientUnits="userSpaceOnUse" xlink:href="#linearGradient6303-33-0-2"/>
<clipPath id="clipPath4156-4-1">
<path d="m27.046-55.695-14.214 13.321h0.06127l15.653 21.771 10.231-10.546c-0.2169-1.1522-11.311-23.67-11.732-24.546zm-17.399 16.313-14.888 14.062 21.229 17.515 10.385-10.577zm31.491 12.951-9.7413 9.7136 8.9448 12.458 7.7808-7.555zm-49.84 4.3788-13.754 12.982 26.283 13.846 0.06127-0.0617-0.12253-0.0617 9.8332-10.053-22.301-16.652zm38.015 7.4008-9.8025 9.7753 11.579 9.5594 7.6276-7.4008-8.6691-11.009zm20.187 5.674-7.3825 7.2158 6.1878 8.5418 5.8202-6.1365zm-32.195 6.3215-9.5575 9.4977 13.662 7.185 7.9339-7.6784zm23.312 2.3744-7.1068 6.9383 8.3628 6.9074 5.3608-5.674-0.06127-0.0925-0.0919 0.12335-6.4635-8.2026zm-8.7304 8.5418-7.5051 7.3392 10.354 5.4581c1.3975-1.321 5.6751-6.1229 5.8509-6.3215z" fill="#fff" opacity=".6"/>
</clipPath>
<clipPath id="clipPath3157-3">
<path d="m304.65 33.793c-53.917 0-97.718 43.8-97.718 97.718 0 53.917 43.8 97.718 97.718 97.718 53.917 0 97.718-43.8 97.718-97.718 0-53.917-43.8-97.718-97.718-97.718z" color="#000000" fill="url(#radialGradient3161)"/>
</clipPath>
</defs>
<metadata>
<rdf:RDF>
<cc:Work rdf:about="">
<dc:format>image/svg+xml</dc:format>
<dc:type rdf:resource="http://purl.org/dc/dcmitype/StillImage"/>
<dc:title/>
<dc:date>2019</dc:date>
<dc:creator>
<cc:Agent>
<dc:title>Cristian Pozzessere &lt; ilnanny &gt;</dc:title>
</cc:Agent>
</dc:creator>
<dc:subject>
<rdf:Bag>
<rdf:li>ilnanny</rdf:li>
<rdf:li>inkscape</rdf:li>
<rdf:li>vectorart</rdf:li>
<rdf:li>svg</rdf:li>
</rdf:Bag>
</dc:subject>
<dc:coverage>Italy</dc:coverage>
<dc:description>..when I have nothing to do, I scribble and have fun with inkscape.</dc:description>
</cc:Work>
</rdf:RDF>
</metadata>
<path d="m44.357 0.25h-40.714c-1.8796 0-3.3929 1.5132-3.3929 3.3929v40.714c0 1.8796 1.5132 3.3929 3.3929 3.3929h40.714c1.8796 0 3.3929-1.5132 3.3929-3.3929v-40.714c0-1.8796-1.5132-3.3929-3.3929-3.3929z" opacity=".15"/>
<path d="m44.039 0.62109h-40.078c-1.8503 0-3.3398 1.4896-3.3398 3.3398v40.078c0 1.8503 1.4896 3.3398 3.3398 3.3398h40.078c1.8503 0 3.3398-1.4896 3.3398-3.3398v-40.078c0-1.8503-1.4896-3.3398-3.3398-3.3398z" opacity=".15"/>
<path d="m43.721 0.99219h-39.442c-1.8209 0-3.2868 1.4659-3.2868 3.2868v39.442c0 1.8209 1.4659 3.2868 3.2868 3.2868h39.442c1.8209 0 3.2868-1.4659 3.2868-3.2868v-39.442c0-1.8209-1.4659-3.2868-3.2868-3.2868z" fill="url(#linearGradient4071)"/>
<rect x="3.0805" y="3.3682" width="42.058" height="38.309" rx="2.2868" ry="1.9721" fill="#98cafc" fill-opacity=".99559"/>
<path d="m0.99219 40.746v2.9688c0 1.8209 1.4726 3.2935 3.2935 3.2935h39.429c1.8209 0 3.2935-1.4726 3.2935-3.2935v-2.9688c0 1.8209-1.4726 3.2935-3.2935 3.2935h-39.429c-1.8209 0-3.2935-1.4726-3.2935-3.2935z" fill="url(#linearGradient4129)" opacity=".65818"/>
<g transform="matrix(.20979 0 0 .20979 -39.384 -7.8014)" clip-path="url(#clipPath3157-3)">
<g fill="#f9f9f9" stroke="#000" stroke-width="3.3367">
<path transform="rotate(5.3046)" d="m323.93 177.71 4.1163 6.3671 3.2749 46.201-21.685 2.4502z"/>
<path transform="matrix(-.99572 .092451 .092451 .99572 0 0)" d="m-307.82 236.79 2.172 5.9136 1.1989 46.606-22.163 1.8604z"/>
</g>
<path d="m306.25 206.4-0.89286 53.274 13.839 8.631 7.8869-10.863 12.5 9.5238s-0.63508-11.866-1.6369-17.708c-0.8214-4.7904-2.4438-9.4092-3.5714-14.137-2.3118-9.6923-6.5476-29.167-6.5476-29.167z" fill="#a02c2c"/>
<path d="m276.49 173.07c-0.44643-1.0417-3.6522-13.645-9.375-15.923-2.1588-0.85903-6.6964 1.9345-6.6964 1.9345l-16.22-12.054s4.2777-2.2731 5.6548-4.1667c1.1993-1.6492 2.9675-4.0454 1.9345-5.8036-5.4403-9.2593-23.214-29.167-23.214-29.167s21.169-34.213 34.524-46.131c1.6288-1.4535 6.5476-0.14881 6.5476-0.14881s-3.2929 1.4875-4.6131 2.6786c-3.0056 2.7117-5.7562 6.0183-7.1428 9.8214-1.4479 3.971-2.1946 8.6275-0.89286 12.649 2.0714 6.3988 7.0895 12.17 12.946 15.476 3.1034 1.752 7.0245 2.0402 10.565 1.6369 3.7157-0.42317 8.1474-1.1942 10.417-4.1667 2.1207-2.7778 2.1729-7.0628 1.1905-10.417-0.97131-3.3158-6.5476-8.0357-6.5476-8.0357l-2.9762-1.7857-3.7202 3.869-3.125 5.506-0.14881 3.7202h-2.2321s0.4061-6.7164 1.1905-9.9702c0.90477-3.7533 2.4438-7.3378 4.0179-10.863 0.82322-1.8437 2.2321-5.3571 2.8274-5.3571s7.1429 1.0417 7.1429 1.0417l-0.44643-3.4226s4.2398-0.4004 6.25 0.14881c3.7274 1.0183 6.8652 3.5709 10.119 5.6548 3.6177 2.3169 6.9682 5.0272 10.417 7.5893 3.2968 2.4495 9.8214 7.4405 9.8214 7.4405l-0.59524 13.542s7.9625-4.2064 11.161-7.2917c2.2286-2.1499 4.2061-4.7147 5.3571-7.5893 1.0066-2.5138 1.1633-5.328 1.1905-8.0357 0.0236-2.3502 0.0698-4.85-0.89286-6.994-1.0512-2.3413-5.0595-5.8036-5.0595-5.8036s-2.4332 3.0288-3.2738 4.7619c-0.65731 1.3552-1.3393 3.2738-1.3393 4.3155s-0.82405 2.7936 0 3.7202c0.56422 0.63449 1.692 0.43595 2.5298 0.29762 1.1383-0.18797 3.125-1.4881 3.125-1.4881s-0.84238 4.2714-2.5298 5.2083c-1.657 0.9201-4.0694 0.44355-5.6548-0.59524-1.4306-0.93744-2.1882-2.7883-2.5298-4.4643-0.78764-3.8646-0.16667-8.1108 1.3393-11.756 1.2808-3.1002 5.2083-7.5893 6.25-7.8869 1.0417-0.29762 3.125 0.59524 3.125 0.59524s4.9 7.3589 7.5893 10.863c4.2224 5.502 9.2812 10.337 13.393 15.923 3.5974 4.8867 7.055 9.9267 9.8214 15.327 1.1674 2.2791 2.8274 7.1429 2.8274 7.1429s-4.7234 4.0041-6.8452 6.25c-3.7774 3.9982-7.5935 8.0771-10.417 12.798-0.66196 1.1068-1.7384 2.3063-1.4881 3.5714 0.23143 1.1699 1.4799 1.9641 2.5298 2.5298 1.5158 0.81677 3.3419 0.9207 5.0595 1.0417 0.79323 0.0559 2.381-0.14881 2.381-0.14881s-0.2482 3.344-1.0417 4.7619c-0.87371 1.5613-2.5916 2.4676-3.869 3.7202-1.5026 1.4734-3.0696 2.8884-4.4643 4.4643-2.2951 2.5932-4.8376 5.0934-6.3988 8.1845-1.416 2.8038-2.5298 9.0774-2.5298 9.0774z" fill="#1a1a1a" stroke="#000" stroke-width="3.3367"/>
<path d="m327.91 206.97-5.7188 1.9688-4.125 1.4375-3.5312-0.9375-7.375-1.9688 1.9688 7.375 2 7.375 3.8869-6.2991 2.9777-3.4241 3.8572 0.75446 6.5684 7.8184-0.25447-7.1399z" fill="#f9f9f9"/>
<path transform="matrix(3.3367 0 0 3.3367 222.41 24.608)" d="m34.875 27.5s-1.589-0.02386-2.375 0.125c-1.4371 0.27216-2.8136 0.82613-4.1562 1.4062-1.1398 0.49248-3.2812 1.75-3.2812 1.75s-1.4151-0.65545-2.1562-0.875c-1.3126-0.3888-2.6748-0.56558-4.0312-0.75-1.9653-0.26719-5.9375-0.5-5.9375-0.5s0.48121 0.54311 0.625 0.875c0.34092 0.78692 0.09533 1.7751 0.5 2.5312 0.22447 0.41942 1.0312 1 1.0312 1s-0.55173 1.8355-0.625 2.7812c-0.0944 1.2186 0.02599 2.4547 0.25 3.6562 0.12048 0.64626 0.22793 1.2915 0.375 1.9375-0.84553-1.3696-1.9007-2.1905-2.5938-1.875-0.84066 0.38265-0.81503 2.2596 0.0625 4.1875s2.2843 3.1951 3.125 2.8125c0.38337-0.1745 0.5703-0.68548 0.59375-1.3438 0.17392 0.41196 0.35203 0.8243 0.5625 1.2188 1.0696 2.0046 2.5968 3.7565 4.2812 5.2812 2.4987 2.2618 8.4688 5.5625 8.4688 5.5625s0.61998-0.63292 0.875-1c1.009-1.4524 1.7749-3.0889 2.5312-4.6875 0.85491-1.8069 1.721-3.6125 2.2812-5.5312 0.23375-0.80057 0.44802-1.6173 0.625-2.4375 0.1196 0.30004 0.28088 0.50098 0.5 0.5625 0.73872 0.2074 1.7211-1.2198 2.2188-3.1875s0.33247-3.7301-0.40625-3.9375c-0.64638-0.18147-1.4959 0.91146-2.0312 2.5-0.11238-0.65214-0.29514-1.3162-0.40625-1.9688-0.25761-1.5128-0.63731-3.0034-0.78125-4.5312-0.17358-1.8424-0.125-5.5625-0.125-5.5625z" fill="#e3dedb" stroke="#000"/>
<circle transform="translate(4.3155 4.3155)" cx="292.86" cy="153.87" r="5.2083"/>
<circle transform="translate(29.018 1.3393)" cx="292.86" cy="153.87" r="5.2083"/>
<path d="m303.72 151.19s-0.92803-5.3654-2.9762-6.6964c-0.74865-0.48653-2.6786 0-2.6786 0l0.74404 2.2321-18.452-4.0179-0.74404 9.0774z" fill="#1a1a1a"/>
<path d="m313.84 144.46 0.29762 5.8036 23.363-2.6786s-5.7369-3.2908-8.9286-3.869c-4.8382-0.87652-14.732 0.74405-14.732 0.74405z" fill="#1a1a1a"/>
<path d="m306.99 185.86c1.0417-1.3393 7.7381-3.4226 7.7381-3.4226l6.25-0.74405 0.14881 3.125-5.6548 0.29762-6.994 3.125z"/>
<path d="m313.69 158.04h2.5298l0.14881 21.875-4.9107-1.3393-2.8274-2.6786 1.7857-1.6369 1.7857 1.6369 2.0833 1.0417z" opacity=".8"/>
</g>
<rect x="2.9095" y="39.957" width="41.686" height="2.1029" rx="4.25" ry="4.25" fill="url(#radialGradient7462)" opacity=".55"/>
<rect transform="rotate(90)" x="3.001" y="-44.823" width="37.975" height="2.1029" rx="4.2456" ry="4.2456" fill="url(#radialGradient7464)" opacity=".669"/>
<rect transform="matrix(.52905 0 0 .51838 1.5477 18.398)" x="2" y="-30" width="75.966" height="69.024" rx="7.9889" ry="7.9973" clip-path="url(#clipPath4156-4-1)" fill="url(#linearGradient4767)" opacity=".65"/>
<path d="m5.1114 2.5901c-1.5421 0-2.8045 1.2565-2.8045 2.7936v34.278c0 1.5371 1.2624 2.7936 2.8045 2.7936h37.996c1.5421 0 2.8045-1.2565 2.8045-2.7936v-34.278c0-1.5371-1.2624-2.7936-2.8045-2.7936zm0 1.1476h37.996c0.93422 0 1.6586 0.73234 1.6586 1.646v34.278c0 0.91362-0.72434 1.646-1.6586 1.646h-37.996c-0.93422 0-1.6586-0.73234-1.6586-1.646v-34.278c0-0.91362 0.72434-1.646 1.6586-1.646z" color="#000000" fill="#202223" fill-opacity=".93689" style="text-decoration-line:none;text-indent:0;text-transform:none"/>
<path d="m5.1114 2.5901c-1.5421 0-2.8045 1.2565-2.8045 2.7936v34.278c0 1.5371 1.2624 2.7936 2.8045 2.7936h37.996c1.5421 0 2.8045-1.2565 2.8045-2.7936v-34.278c0-1.5371-1.2624-2.7936-2.8045-2.7936zm0 1.1476h37.996c0.93422 0 1.6586 0.73234 1.6586 1.646v34.278c0 0.91362-0.72434 1.646-1.6586 1.646h-37.996c-0.93422 0-1.6586-0.73234-1.6586-1.646v-34.278c0-0.91362 0.72434-1.646 1.6586-1.646z" color="#000000" fill="#202223" fill-opacity=".93689" style="text-decoration-line:none;text-indent:0;text-transform:none"/>
</svg>
