<?xml version="1.0" encoding="UTF-8"?>
<!-- Created with Inkscape (http://www.inkscape.org/) -->
<svg version="1.1" viewBox="0 0 96 96" xmlns="http://www.w3.org/2000/svg" xmlns:cc="http://creativecommons.org/ns#" xmlns:dc="http://purl.org/dc/elements/1.1/" xmlns:rdf="http://www.w3.org/1999/02/22-rdf-syntax-ns#" xmlns:xlink="http://www.w3.org/1999/xlink">
<script xlink:href=""/>
<defs>
<linearGradient id="linearGradient12946">
<stop stop-color="#fff" offset="0"/>
<stop stop-color="#fff" stop-opacity="0" offset="1"/>
</linearGradient>
<linearGradient id="ButtonShadow-4" x1="45.448" x2="45.448" y1="92.54" y2="7.0165" gradientTransform="scale(1.0059 .99417)" gradientUnits="userSpaceOnUse">
<stop offset="0"/>
<stop stop-opacity=".58824" offset="1"/>
</linearGradient>
<filter id="filter3174-98" color-interpolation-filters="sRGB">
<feGaussianBlur stdDeviation="1.71"/>
</filter>
<filter id="filter3174-0" color-interpolation-filters="sRGB">
<feGaussianBlur stdDeviation="1.71"/>
</filter>
<filter id="filter3174-9-1" color-interpolation-filters="sRGB">
<feGaussianBlur stdDeviation="1.71"/>
</filter>
<filter id="filter3174-1-76" color-interpolation-filters="sRGB">
<feGaussianBlur stdDeviation="1.71"/>
</filter>
<filter id="filter3174-28" color-interpolation-filters="sRGB">
<feGaussianBlur stdDeviation="1.71"/>
</filter>
<linearGradient id="linearGradient8478" x1="48" x2="48" y1="20.221" y2="138.66" gradientUnits="userSpaceOnUse">
<stop stop-color="#fff" offset="0"/>
<stop stop-color="#fff" stop-opacity="0" offset="1"/>
</linearGradient>
<clipPath id="clipPath3613-01">
<rect x="6" y="6" width="84" height="84" rx="6" ry="6" fill="#fff"/>
</clipPath>
<filter id="filter3794-71" x="-.192" y="-.192" width="1.384" height="1.384" color-interpolation-filters="sRGB">
<feGaussianBlur stdDeviation="5.28"/>
</filter>
<linearGradient id="linearGradient4071" x1="6" x2="90" y1="47" y2="47" gradientTransform="translate(100 -.5)" gradientUnits="userSpaceOnUse">
<stop stop-color="#b2babc" offset="0"/>
<stop stop-color="#fff" offset=".25"/>
<stop stop-color="#96a1a4" offset=".5"/>
<stop stop-color="#fbf9f9" offset=".75"/>
<stop stop-color="#b2b9bc" offset="1"/>
</linearGradient>
<linearGradient id="linearGradient4129" x1="1.5" x2="94.5" y1="88.172" y2="88.172" gradientTransform="matrix(.90323 0 0 .90323 104.65 3.1452)" gradientUnits="userSpaceOnUse">
<stop offset="0"/>
<stop stop-opacity=".58824" offset=".1"/>
<stop stop-opacity=".58824" offset=".9"/>
<stop offset="1"/>
</linearGradient>
<radialGradient id="radialGradient7462" cx="13.948" cy="44.893" r="43.199" gradientTransform="matrix(.88077 0 0 .04443 135.26 75.554)" gradientUnits="userSpaceOnUse" xlink:href="#linearGradient12946"/>
<radialGradient id="radialGradient7464" cx="13.948" cy="44.893" r="43.199" gradientTransform="matrix(.80236 0 0 .04443 31.637 -186.09)" gradientUnits="userSpaceOnUse" xlink:href="#linearGradient12946"/>
<linearGradient id="linearGradient4767" x1="2.7714" x2="50.528" y1="-28.642" y2="14.514" gradientUnits="userSpaceOnUse" xlink:href="#linearGradient12946"/>
<clipPath id="clipPath4156-4-1-6">
<path d="m27.046-55.695-14.214 13.321h0.06127l15.653 21.771 10.231-10.546c-0.2169-1.1522-11.311-23.67-11.732-24.546zm-17.399 16.313-14.888 14.062 21.229 17.515 10.385-10.577zm31.491 12.951-9.7413 9.7136 8.9448 12.458 7.7808-7.555zm-49.84 4.3788-13.754 12.982 26.283 13.846 0.06127-0.0617-0.12253-0.0617 9.8332-10.053-22.301-16.652zm38.015 7.4008-9.8025 9.7753 11.579 9.5594 7.6276-7.4008-8.6691-11.009zm20.187 5.674-7.3825 7.2158 6.1878 8.5418 5.8202-6.1365zm-32.195 6.3215-9.5575 9.4977 13.662 7.185 7.9339-7.6784zm23.312 2.3744-7.1068 6.9383 8.3628 6.9074 5.3608-5.674-0.06127-0.0925-0.0919 0.12335-6.4635-8.2026zm-8.7304 8.5418-7.5051 7.3392 10.354 5.4581c1.3975-1.321 5.6751-6.1229 5.8509-6.3215z" fill="#fff" opacity=".6"/>
</clipPath>
</defs>
<metadata>
<rdf:RDF>
<cc:Work rdf:about="">
<dc:format>image/svg+xml</dc:format>
<dc:type rdf:resource="http://purl.org/dc/dcmitype/StillImage"/>
<dc:title/>
</cc:Work>
</rdf:RDF>
</metadata>
<g transform="translate(0,32)">
<g transform="matrix(.97513 0 0 .97661 33.899 9.6574)">
<g transform="matrix(1.1354 0 0 1.1337 -153.57 -46.221)">
<g transform="matrix(.90323 0 0 .90323 23.387 .64184)">
<g transform="translate(199.08 40.101)">
<g display="none">
<rect x="5" y="7" width="86" height="85" rx="6" ry="6" fill="url(#ButtonShadow-4)" filter="url(#filter3174-98)" opacity=".9"/>
</g>
<g transform="translate(115.54 .85219)" display="none">
<rect x="5" y="7" width="86" height="85" rx="6" ry="6" fill="url(#ButtonShadow-4)" filter="url(#filter3174-0)" opacity=".9"/>
</g>
<g transform="translate(235.43 .85219)" display="none">
<rect x="5" y="7" width="86" height="85" rx="6" ry="6" fill="url(#ButtonShadow-4)" filter="url(#filter3174-9-1)" opacity=".9"/>
</g>
<g transform="matrix(.95833 0 0 .94792 252.01 5.1359)" display="none">
<rect x="5" y="7" width="86" height="85" rx="6" ry="6" fill="url(#ButtonShadow-4)" filter="url(#filter3174-1-76)" opacity=".9"/>
</g>
<g transform="matrix(1.0222 0 0 1.0111 248.67 2.1302)" display="none">
<rect x="5" y="7" width="86" height="85" rx="6" ry="6" fill="url(#ButtonShadow-4)" filter="url(#filter3174-28)" opacity=".9"/>
<rect x="15" y="15" width="66" height="66" rx="12" ry="12" clip-path="url(#clipPath3613-01)" fill="url(#linearGradient8478)" filter="url(#filter3794-71)" opacity=".1" stroke="#fff" stroke-linecap="round" stroke-width=".5"/>
</g>
</g>
</g>
<path d="m185.16 3.1452h-74.323c-3.4312 0-6.1935 2.7623-6.1935 6.1935v74.323c0 3.4312 2.7623 6.1935 6.1935 6.1935h74.323c3.4312 0 6.1936-2.7623 6.1936-6.1935v-74.323c0-3.4312-2.7623-6.1935-6.1936-6.1935z" opacity=".15"/>
<path d="m184.58 3.8226h-73.161c-3.3776 0-6.0968 2.7192-6.0968 6.0968v73.161c0 3.3776 2.7192 6.0968 6.0968 6.0968h73.161c3.3776 0 6.0968-2.7192 6.0968-6.0968v-73.161c0-3.3776-2.7192-6.0968-6.0968-6.0968z" opacity=".15"/>
<path d="m184 4.5h-72c-3.324 0-6 2.676-6 6v72c0 3.324 2.676 6 6 6h72c3.324 0 6-2.676 6-6v-72c0-3.324-2.676-6-6-6z" fill="url(#linearGradient4071)"/>
<path d="m114.8 8.9142c-2.5801 0-4.6282 2.0669-4.6282 4.6706v61.944c0.99105 1.5215 2.6815 2.5396 4.6282 2.5396h66.647c1.9467 0 3.6372-1.0182 4.6282-2.5396v-61.944c0-2.6037-2.0482-4.6706-4.6282-4.6706z" fill="#e8e8e8" opacity=".9"/>
<path d="m110.17 42.113v33.743c0.99105 1.5363 0.82691 2.5634 2.7736 2.5634h69.89c1.9467 0 2.2478 0.14282 3.2388-1.3935v-34.913z" fill="#dc0000" opacity=".9"/>
<path d="m113.52 7.4169c-2.815 0-5.1195 2.2938-5.1195 5.0996v62.574c0 2.8059 2.3044 5.0996 5.1195 5.0996h69.36c2.815 0 5.1194-2.2938 5.1194-5.0996v-62.574c0-2.8059-2.3044-5.0996-5.1194-5.0996zm0 2.095h69.36c1.7054 0 3.0276 1.3369 3.0276 3.0046v62.574c0 1.6678-1.3222 3.0046-3.0276 3.0046h-69.36c-1.7054 0-3.0276-1.3369-3.0276-3.0046v-62.574c0-1.6678 1.3222-3.0046 3.0276-3.0046z" color="#000000" fill="#1f2224" fill-opacity=".83478" style="text-decoration-line:none;text-indent:0;text-transform:none"/>
<path d="m106 77.069v5.4194c0 3.324 2.6881 6.0121 6.0121 6.0121h71.976c3.324 0 6.0121-2.6881 6.0121-6.0121v-5.4194c0 3.324-2.6881 6.0121-6.0121 6.0121h-71.976c-3.324 0-6.0121-2.6881-6.0121-6.0121z" fill="url(#linearGradient4129)" opacity=".65818"/>
<rect x="109.5" y="75.629" width="76.097" height="3.8387" rx="0" ry="3.8387" fill="url(#radialGradient7462)" opacity=".55"/>
<rect transform="rotate(90)" x="8.1671" y="-186.01" width="69.323" height="3.8387" rx="0" ry="3.8387" fill="url(#radialGradient7464)" opacity=".669"/>
<path d="m165.29 18.77v18.381h-3.3081v-2.0291c-0.60978 0.74757-1.2441 1.3175-1.9035 1.7084-0.65941 0.39022-1.2998 0.58618-1.9201 0.58618-0.76478 0-1.3414-0.27327-1.7293-0.82079-0.38794-0.54721-0.58165-1.368-0.58165-2.4624v-15.363h3.3082v14.09c0 0.43599 0.0692 0.75095 0.20775 0.9459 0.13843 0.19495 0.36281 0.29258 0.67344 0.29258 0.24393 0 0.55103-0.12876 0.92237-0.38682 0.37136-0.25835 0.7121-0.58788 1.0228-0.98964v-13.952zm-21.854 4.2022c0-1.4235 0.4451-2.5568 1.3359-3.4007 0.89079-0.84403 2.0876-1.266 3.5911-1.266 1.369 0 2.4906 0.4453 3.3648 1.3349 0.87422 0.88962 1.3113 2.0348 1.3113 3.4356v9.4936c0 1.5731-0.42911 2.8072-1.2862 3.7025-0.85716 0.89537-2.0375 1.3432-3.5405 1.3432-1.4473 0-2.6055-0.46243-3.4737-1.3863-0.86864-0.92385-1.3028-2.1667-1.3028-3.7283zm3.4045 9.8726c0 0.50616 0.11745 0.8964 0.3533 1.1724 0.23531 0.27562 0.57154 0.41294 1.0092 0.41294 0.44865 0 0.80448-0.14033 1.0684-0.42176 0.26345-0.28172 0.39548-0.66924 0.39548-1.1635v-10.011c0-0.40174-0.13496-0.72628-0.40401-0.973-0.26895-0.24681-0.62225-0.37066-1.0599-0.37066-0.4035 0-0.7317 0.12387-0.98407 0.37066-0.25246 0.24672-0.37841 0.57126-0.37841 0.973zm-15.73-20.611h3.7523l2.4173 9.9597h0.23393l2.3049-9.9597h3.7854l-4.3359 14.578v10.339h-3.7257v-9.8737z" fill="#0a0a0a" stroke-width=".94152"/>
<rect transform="matrix(.96577 0 0 .94629 108.52 37.9)" x="2" y="-30" width="75.966" height="69.024" rx="3.957" ry="3.957" clip-path="url(#clipPath4156-4-1-6)" fill="url(#linearGradient4767)" opacity=".65"/>
<path d="m136.81 49.022h-11.364v3.4453h3.8306v20.292h3.7028v-20.292h3.8307zm6.052 19.518c-0.30857 0.38273-0.64747 0.69699-1.0164 0.94278-0.36924 0.24611-0.67455 0.36852-0.9169 0.36852-0.30857 0-0.53168-0.09302-0.66933-0.27873-0.13765-0.18539-0.20648-0.48576-0.20648-0.90111v-13.423h-3.2879v14.636c0 1.0426 0.19278 1.8245 0.57833 2.3461 0.38555 0.52129 0.95865 0.78161 1.7187 0.78161 0.61649 0 1.2529-0.18668 1.9082-0.55843 0.65563-0.37239 1.2858-0.91532 1.8919-1.6275v1.933h3.2879v-17.511h-3.2879zm12.739-13.513c-0.50983 0-1.0135 0.13928-1.5119 0.41737-0.49808 0.27849-0.96844 0.68447-1.4114 1.2188v-7.6417h-3.3199v23.737h3.3199v-1.3462c0.43187 0.53324 0.89994 0.92792 1.4036 1.1837 0.50363 0.2558 1.0767 0.3837 1.7193 0.3837 0.97399 0 1.7187-0.32976 2.2334-0.99058 0.51472-0.66081 0.77273-1.6136 0.77273-2.8587v-9.7143c0-1.4302-0.27432-2.5197-0.82264-3.2674-0.54799-0.7477-1.3426-1.1221-2.3831-1.1221zm-0.1781 13.628c0 0.55811-0.0953 0.96086-0.28476 1.2066-0.18951 0.24611-0.48536 0.36884-0.8869 0.36884-0.27921 0-0.54407-0.06266-0.79523-0.18862-0.25149-0.12532-0.51081-0.33073-0.77828-0.61528v-10.912c0.22311-0.24046 0.44883-0.41826 0.67781-0.53332 0.22866-0.11458 0.46057-0.17239 0.69477-0.17239 0.4459 0 0.78676 0.15358 1.021 0.45976 0.23453 0.30626 0.35163 0.75464 0.35163 1.3454zm15.536-4.2404v-4.4581c0-1.6618-0.40414-2.9356-1.2111-3.8215-0.80764-0.88601-1.9633-1.3291-3.4674-1.3291-1.4714 0-2.6714 0.47857-3.6001 1.4352-0.9293 0.95715-1.3938 2.1953-1.3938 3.7154v7.8594c0 1.6856 0.42306 3.0098 1.2689 3.973 0.84612 0.9628 2.0047 1.4444 3.4762 1.4444 1.6368 0 2.8675-0.45443 3.6914-1.3626 0.82394-0.90822 1.2359-2.2599 1.2359-4.0547v-1.3152h-3.3838v1.217c0 1.0303-0.10862 1.6966-0.32553 1.9976-0.21691 0.30134-0.59822 0.45217-1.1433 0.45217-0.52385 0-0.89374-0.17796-1.1107-0.53453-0.21691-0.35592-0.3252-0.99478-0.3252-1.9153v-3.3031zm-6.2885-4.4906c0-0.73292 0.11351-1.2584 0.34217-1.576 0.228-0.31708 0.60344-0.47607 1.1266-0.47607 0.50069 0 0.86536 0.15899 1.0937 0.47607 0.22801 0.31757 0.34217 0.84306 0.34217 1.576v1.7724h-2.9047z" fill="#0a0a0a" stroke-width=".16618"/>
<rect x="109.96" y="41.892" width="76.366" height="1.3902" fill="#020202" fill-opacity=".53913" style="paint-order:markers stroke fill"/>
</g>
</g>
</g>
</svg>
