<?xml version="1.0" encoding="UTF-8"?>
<!-- Created with Inkscape (http://www.inkscape.org/) -->
<svg version="1.1" viewBox="0 0 48 48" xmlns="http://www.w3.org/2000/svg" xmlns:cc="http://creativecommons.org/ns#" xmlns:dc="http://purl.org/dc/elements/1.1/" xmlns:rdf="http://www.w3.org/1999/02/22-rdf-syntax-ns#" xmlns:xlink="http://www.w3.org/1999/xlink">
<defs>
<linearGradient id="linearGradient4071" x1="6" x2="90" y1="47" y2="47" gradientTransform="matrix(1.106 0 0 1.1071 -5.1375 1000.3)" gradientUnits="userSpaceOnUse">
<stop stop-color="#b2babc" offset="0"/>
<stop stop-color="#fff" offset=".25"/>
<stop stop-color="#96a1a4" offset=".5"/>
<stop stop-color="#fbf9f9" offset=".75"/>
<stop stop-color="#b2b9bc" offset="1"/>
</linearGradient>
<linearGradient id="linearGradient4129" x1="1.5" x2="94.5" y1="88.172" y2="88.172" gradientTransform="matrix(.99896 0 0 1 -2.9511e-6 1004.4)" gradientUnits="userSpaceOnUse">
<stop offset="0"/>
<stop stop-opacity=".58824" offset=".1"/>
<stop stop-opacity=".58824" offset=".9"/>
<stop offset="1"/>
</linearGradient>
<radialGradient id="radialGradient7462" cx="13.948" cy="44.893" r="43.199" gradientTransform="matrix(.97412 0 0 .049191 33.863 1084.5)" gradientUnits="userSpaceOnUse" xlink:href="#linearGradient3737"/>
<linearGradient id="linearGradient3737">
<stop stop-color="#fff" offset="0"/>
<stop stop-color="#fff" stop-opacity="0" offset="1"/>
</linearGradient>
<radialGradient id="radialGradient7464" cx="13.948" cy="44.893" r="43.199" gradientTransform="matrix(.88833 0 0 .049139 1035.9 -90.074)" gradientUnits="userSpaceOnUse" xlink:href="#linearGradient3737"/>
<linearGradient id="linearGradient4767" x1="2.7714" x2="50.528" y1="-28.642" y2="14.514" gradientTransform="matrix(2.0189 0 0 2.0211 3.6206 37.019)" gradientUnits="userSpaceOnUse" xlink:href="#linearGradient3737"/>
<clipPath id="clipPath4156-4-1">
<path d="m27.046-55.695-14.214 13.321h0.06127l15.653 21.771 10.231-10.546c-0.2169-1.1522-11.311-23.67-11.732-24.546zm-17.399 16.313-14.888 14.062 21.229 17.515 10.385-10.577zm31.491 12.951-9.7413 9.7136 8.9448 12.458 7.7808-7.555zm-49.84 4.3788-13.754 12.982 26.283 13.846 0.06127-0.0617-0.12253-0.0617 9.8332-10.053-22.301-16.652zm38.015 7.4008-9.8025 9.7753 11.579 9.5594 7.6276-7.4008-8.6691-11.009zm20.187 5.674-7.3825 7.2158 6.1878 8.5418 5.8202-6.1365zm-32.195 6.3215-9.5575 9.4977 13.662 7.185 7.9339-7.6784zm23.312 2.3744-7.1068 6.9383 8.3628 6.9074 5.3608-5.674-0.06127-0.0925-0.0919 0.12335-6.4635-8.2026zm-8.7304 8.5418-7.5051 7.3392 10.354 5.4581c1.3975-1.321 5.6751-6.1229 5.8509-6.3215z" fill="#fff" opacity=".6"/>
</clipPath>
</defs>
<metadata>
<rdf:RDF>
<cc:Work rdf:about="">
<dc:format>image/svg+xml</dc:format>
<dc:type rdf:resource="http://purl.org/dc/dcmitype/StillImage"/>
<dc:title/>
</cc:Work>
</rdf:RDF>
</metadata>
<g transform="translate(0 -1004.4)">
<path d="m44.357 1004.6h-40.714c-1.8796 0-3.3929 1.5132-3.3929 3.3929v40.714c0 1.8796 1.5132 3.3928 3.3929 3.3928h40.714c1.8796 0 3.3929-1.5132 3.3929-3.3928v-40.714c0-1.8797-1.5132-3.3929-3.3929-3.3929z" opacity=".15"/>
<path d="m44.039 1005h-40.078c-1.8503 0-3.3398 1.4896-3.3398 3.3399v40.078c0 1.8503 1.4896 3.3398 3.3398 3.3398h40.078c1.8503 0 3.3398-1.4895 3.3398-3.3398v-40.078c0-1.8503-1.4896-3.3399-3.3398-3.3399z" opacity=".15"/>
<path d="m43.721 1005.4h-39.442c-1.8209 0-3.2868 1.4659-3.2868 3.2868v39.442c0 1.8209 1.4659 3.2868 3.2868 3.2868h39.442c1.8209 0 3.2868-1.4659 3.2868-3.2868v-39.442c0-1.8209-1.4659-3.2868-3.2868-3.2868z" fill="url(#linearGradient4071)"/>
<rect x="3.0805" y="1007.7" width="42.058" height="38.309" rx="3.4964" ry="3.5" fill="#e2e6ea" fill-opacity=".9717"/>
<path d="m5.1114 1007c-1.5421 0-2.8045 1.2565-2.8045 2.7936v34.278c0 1.5371 1.2624 2.7936 2.8045 2.7936h37.996c1.5421 0 2.8045-1.2565 2.8045-2.7936v-34.278c0-1.5371-1.2624-2.7936-2.8045-2.7936zm0 1.1477h37.996c0.93422 0 1.6586 0.7323 1.6586 1.6459v34.278c0 0.9136-0.72434 1.6459-1.6586 1.6459h-37.996c-0.93422 0-1.6586-0.7323-1.6586-1.6459v-34.278c0-0.9136 0.72434-1.6459 1.6586-1.6459z" color="#000000" fill="#202223" fill-opacity=".93689" style="text-decoration-line:none;text-indent:0;text-transform:none"/>
<path d="m0.99219 1045.1v2.9688c0 1.8209 1.4726 3.2934 3.2935 3.2934h39.429c1.8209 0 3.2935-1.4725 3.2935-3.2934v-2.9688c0 1.8209-1.4726 3.2935-3.2935 3.2935h-39.429c-1.8209 0-3.2935-1.4726-3.2935-3.2935z" fill="url(#linearGradient4129)" opacity=".65818"/>
<rect x="2.9095" y="1044.3" width="41.686" height="2.1029" rx="4.25" ry="4.25" fill="url(#radialGradient7462)" opacity=".55"/>
<rect transform="rotate(90)" x="1007.4" y="-44.823" width="37.975" height="2.1029" rx="4.2456" ry="4.2456" fill="url(#radialGradient7464)" opacity=".669"/>
<g transform="matrix(1.2608 0 0 1.2608 92.063 -200.77)">
<g transform="matrix(1.7539 0 0 1.7539 -82.046 -824.77)" opacity=".15">
<path transform="translate(0 1004.4)" d="m8 20v4h4v-8h4v4z"/>
<path transform="translate(0 1004.4)" d="m12 20v8h4v-8z"/>
<path transform="translate(0 1004.4)" d="m16 16h8v12h-8z"/>
</g>
<g transform="matrix(1.7539 0 0 1.7539 -82.046 -825.77)">
<path transform="translate(0 1004.4)" d="m8 20v4h4v-8h4v4z" fill="#ffb425"/>
<path transform="translate(0 1004.4)" d="m12 20v8h4v-8z" fill="#a60007"/>
<path transform="translate(0 1004.4)" d="m16 16h8v12h-8z" fill="#d60009"/>
</g>
</g>
<rect transform="matrix(.52905 0 0 .51838 2.3752 1023.7)" x="2" y="-30" width="75.966" height="69.024" rx="7.9889" ry="7.9973" clip-path="url(#clipPath4156-4-1)" fill="url(#linearGradient4767)" opacity=".65"/>
</g>
</svg>
