<?xml version="1.0" encoding="UTF-8"?>
<!-- Created with Inkscape (http://www.inkscape.org/) -->
<svg version="1.1" viewBox="0 0 96 96" xmlns="http://www.w3.org/2000/svg" xmlns:cc="http://creativecommons.org/ns#" xmlns:dc="http://purl.org/dc/elements/1.1/" xmlns:rdf="http://www.w3.org/1999/02/22-rdf-syntax-ns#" xmlns:xlink="http://www.w3.org/1999/xlink">
<defs>
<linearGradient id="linearGradient4071" x1="6" x2="90" y1="47" y2="47" gradientTransform="matrix(1.1014 0 0 1.1014 -4.9671 -3.0997)" gradientUnits="userSpaceOnUse">
<stop stop-color="#b2babc" offset="0"/>
<stop stop-color="#fff" offset=".25"/>
<stop stop-color="#969fa4" offset=".5"/>
<stop stop-color="#f9fafb" offset=".75"/>
<stop stop-color="#b2b7bc" offset="1"/>
</linearGradient>
<linearGradient id="linearGradient4129" x1="1.5" x2="94.5" y1="88.172" y2="88.172" gradientTransform="matrix(.99479 0 0 .99479 .14895 .91503)" gradientUnits="userSpaceOnUse">
<stop offset="0"/>
<stop stop-opacity=".58824" offset=".1"/>
<stop stop-opacity=".58824" offset=".9"/>
<stop offset="1"/>
</linearGradient>
<radialGradient id="radialGradient7462" cx="13.948" cy="44.893" r="43.199" gradientTransform="matrix(.97005 0 0 .048935 33.871 80.664)" gradientUnits="userSpaceOnUse" xlink:href="#linearGradient3737"/>
<linearGradient id="linearGradient3737">
<stop stop-color="#fff" offset="0"/>
<stop stop-color="#fff" stop-opacity="0" offset="1"/>
</linearGradient>
<radialGradient id="radialGradient7464" cx="13.948" cy="44.893" r="43.199" gradientTransform="matrix(.8837 0 0 .048935 32.295 -89.848)" gradientUnits="userSpaceOnUse" xlink:href="#linearGradient3737"/>
<linearGradient id="linearGradient4767" x1="2.7714" x2="50.528" y1="-28.642" y2="14.514" gradientUnits="userSpaceOnUse" xlink:href="#linearGradient3737"/>
<clipPath id="clipPath4156-4-1">
<path d="m27.046-55.695-14.214 13.321h0.06127l15.653 21.771 10.231-10.546c-0.2169-1.1522-11.311-23.67-11.732-24.546zm-17.399 16.313-14.888 14.062 21.229 17.515 10.385-10.577zm31.491 12.951-9.7413 9.7136 8.9448 12.458 7.7808-7.555zm-49.84 4.3788-13.754 12.982 26.283 13.846 0.06127-0.0617-0.12253-0.0617 9.8332-10.053-22.301-16.652zm38.015 7.4008-9.8025 9.7753 11.579 9.5594 7.6276-7.4008-8.6691-11.009zm20.187 5.674-7.3825 7.2158 6.1878 8.5418 5.8202-6.1365zm-32.195 6.3215-9.5575 9.4977 13.662 7.185 7.9339-7.6784zm23.312 2.3744-7.1068 6.9383 8.3628 6.9074 5.3608-5.674-0.06127-0.0925-0.0919 0.12335-6.4635-8.2026zm-8.7304 8.5418-7.5051 7.3392 10.354 5.4581c1.3975-1.321 5.6751-6.1229 5.8509-6.3215z" fill="#fff" opacity=".6"/>
</clipPath>
<linearGradient id="linearGradient2936-5" x1="62.337" x2="62.337" y1="79.015" y2="12.798" gradientTransform="matrix(.94183 0 0 .97642 -.80134 1.8255)" gradientUnits="userSpaceOnUse">
<stop stop-color="#e6e6e6" offset="0"/>
<stop stop-color="#f5f5f5" offset="1"/>
</linearGradient>
<linearGradient id="linearGradient3831-5" x1="55" x2="55" y1="18" y2="112" gradientTransform="matrix(1.0766 0 0 1.0766 -3.7755 -4.9937)" gradientUnits="userSpaceOnUse">
<stop stop-color="#501616" offset="0"/>
<stop stop-color="#501616" stop-opacity="0" offset="1"/>
</linearGradient>
<filter id="filter4317">
<feGaussianBlur stdDeviation="0.24224407"/>
</filter>
</defs>
<metadata>
<rdf:RDF>
<cc:Work rdf:about="">
<dc:format>image/svg+xml</dc:format>
<dc:type rdf:resource="http://purl.org/dc/dcmitype/StillImage"/>
<dc:title/>
<dc:date>2017</dc:date>
<dc:creator>
<cc:Agent>
<dc:title>Cristian Pozzessere "ilnanny"</dc:title>
</cc:Agent>
</dc:creator>
<dc:subject>
<rdf:Bag>
<rdf:li>Global language</rdf:li>
</rdf:Bag>
</dc:subject>
<dc:description>Playing with Inkscape on Gnu/Linux O. S.</dc:description>
<dc:contributor>
<cc:Agent>
<dc:title>In the night, alone like a dog.</dc:title>
</cc:Agent>
</dc:contributor>
<cc:license rdf:resource="http://creativecommons.org/licenses/by-sa/4.0/"/>
</cc:Work>
<cc:License rdf:about="http://creativecommons.org/licenses/by-sa/4.0/">
<cc:permits rdf:resource="http://creativecommons.org/ns#Reproduction"/>
<cc:permits rdf:resource="http://creativecommons.org/ns#Distribution"/>
<cc:requires rdf:resource="http://creativecommons.org/ns#Notice"/>
<cc:requires rdf:resource="http://creativecommons.org/ns#Attribution"/>
<cc:permits rdf:resource="http://creativecommons.org/ns#DerivativeWorks"/>
<cc:requires rdf:resource="http://creativecommons.org/ns#ShareAlike"/>
</cc:License>
</rdf:RDF>
</metadata>
<g transform="translate(0 -1026.5)">
<g transform="translate(-.14896 1026.1)">
<g transform="translate(.25 -.25003)">
<path d="m88.828 0.91503h-81.857c-3.7791 0-6.8214 3.0424-6.8214 6.8214v81.857c0 3.7791 3.0424 6.8214 6.8214 6.8214h81.857c3.7791 0 6.8214-3.0424 6.8214-6.8214v-81.857c0-3.7791-3.0424-6.8214-6.8214-6.8214z" opacity=".15"/>
<path d="m88.188 1.6611h-80.578c-3.72 0-6.7148 2.9948-6.7148 6.7148v80.578c0 3.72 2.9948 6.7148 6.7148 6.7148h80.578c3.72 0 6.7148-2.9948 6.7148-6.7148v-80.578c0-3.72-2.9948-6.7148-6.7148-6.7148z" opacity=".15"/>
<path d="m87.549 2.4072h-79.299c-3.661 0-6.6083 2.9473-6.6083 6.6083v79.299c0 3.661 2.9473 6.6083 6.6083 6.6083h79.299c3.661 0 6.6083-2.9473 6.6083-6.6083v-79.299c0-3.661-2.9473-6.6083-6.6083-6.6083z" fill="url(#linearGradient4071)"/>
<path d="m11.373 7.2689c-2.8647 0-5.1389 2.3114-5.1389 5.2229v69.269c1.1004 1.7014 2.9774 2.84 5.1389 2.84h74c2.1615 0 4.0385-1.1386 5.1389-2.84v-69.269c0-2.9116-2.2742-5.2229-5.1389-5.2229z" fill="#dc0000" opacity=".77865"/>
<path d="m9.9229 5.6199c-3.1004 0-5.6384 2.5263-5.6384 5.6166v68.917c0 3.0903 2.5381 5.6166 5.6384 5.6166h76.392c3.1004 0 5.6384-2.5263 5.6384-5.6166v-68.917c0-3.0903-2.5381-5.6166-5.6384-5.6166zm0 2.3074h76.392c1.8783 0 3.3346 1.4724 3.3346 3.3092v68.917c0 1.8369-1.4563 3.3092-3.3346 3.3092h-76.392c-1.8783 0-3.3346-1.4724-3.3346-3.3092v-68.917c0-1.8369 1.4563-3.3092 3.3346-3.3092z" color="#000000" fill="#1f2324" style="text-decoration-line:none;text-indent:0;text-transform:none"/>
<path d="m1.6411 82.333v5.9688c0 3.661 2.9606 6.6216 6.6216 6.6216h79.272c3.661 0 6.6216-2.9606 6.6216-6.6216v-5.9688c0 3.661-2.9606 6.6216-6.6216 6.6216h-79.272c-3.661 0-6.6216-2.9606-6.6216-6.6216z" fill="url(#linearGradient4129)" opacity=".65818"/>
<rect x="5.496" y="80.747" width="83.811" height="4.2279" rx="0" ry="4.2279" fill="url(#radialGradient7462)" opacity=".55"/>
<rect transform="rotate(90)" x="6.4461" y="-89.765" width="76.35" height="4.2279" rx="0" ry="4.2279" fill="url(#radialGradient7464)" opacity=".669"/>
<path d="m73.736 14.406v12.994c-12.974 0.22797-16.162 12.88-16.162 12.88h9.7852v12.994h-15.172c-9.1255 28.154-30.125 25.646-30.125 25.646v-12.994s13.326 2.472 20.12-22.341c8.4993-31.038 31.554-29.18 31.554-29.18z" fill="url(#linearGradient2936-5)"/>
<path d="m72.727 14.384c-4.5291 0.068584-23.11 2.0428-30.547 29.201-6.7945 24.813-20.118 22.338-20.118 22.338v12.986s20.984 2.5185 30.11-25.635h15.173v-12.986h-9.7562s3.1747-12.657 16.148-12.885v-12.986s-0.36225-0.04345-1.0093-0.03362zm-0.06729 1.1438v10.934c-6.1973 0.45413-10.306 3.6432-12.717 6.8294-2.5524 3.3739-3.3979 6.7284-3.3979 6.7284a1.0688 1.0688 0 0 0 1.0429 1.3457h8.6797v10.833h-14.096a1.0688 1.0688 0 0 0-1.0093 0.74013c-4.4858 13.839-11.764 19.967-17.898 22.742-5.239 2.3703-8.9655 2.2309-10.126 2.1531v-10.833c0.43972 0.02291 0.51265 0.08412 1.2448 0 1.4843-0.17056 3.4884-0.69347 5.7192-2.0185 4.4615-2.6501 9.6738-8.5406 13.12-21.127 4.1832-15.277 11.826-22.247 18.402-25.534 5.6689-2.8335 9.8089-2.831 11.035-2.7923z" fill="url(#linearGradient3831-5)" opacity=".25"/>
<path d="m72.727 13.308c-4.5291 0.068587-23.11 2.0428-30.547 29.201-6.7945 24.813-20.118 22.338-20.118 22.338v1.0766s13.324 2.4742 20.118-22.338c8.4993-31.038 31.556-29.168 31.556-29.168v-1.0766s-0.36225-0.04342-1.0093-0.03365zm-14.803 25.905c-0.22098 0.61813-0.33642 1.0766-0.33642 1.0766h9.7562v-1.0766z" opacity=".3"/>
<path transform="matrix(1.0766 0 0 1.0766 -3.7755 -4.9937)" d="m72 30.094c-12.051 0.21176-15 11.969-15 11.969h0.3125c0.99127-2.7727 4.7039-10.793 14.688-10.969zm-20.031 24.031c-8.4766 26.152-27.969 23.812-27.969 23.812v1s19.492 2.3394 27.969-23.812h14.094v-1z" filter="url(#filter4317)" opacity=".69091"/>
<rect transform="matrix(1.0637 0 0 1.0422 4.4218 39.194)" x="2" y="-30" width="75.966" height="69.024" rx="3.957" ry="3.957" clip-path="url(#clipPath4156-4-1)" fill="url(#linearGradient4767)" opacity=".50781"/>
</g>
</g>
</g>
</svg>
