<?xml version="1.0" encoding="UTF-8"?>
<!-- Created with Inkscape (http://www.inkscape.org/) -->
<svg version="1.0" viewBox="0 0 96 96" xmlns="http://www.w3.org/2000/svg" xmlns:cc="http://creativecommons.org/ns#" xmlns:dc="http://purl.org/dc/elements/1.1/" xmlns:rdf="http://www.w3.org/1999/02/22-rdf-syntax-ns#" xmlns:xlink="http://www.w3.org/1999/xlink">
<defs>
<linearGradient id="ButtonShadow" x1="45.448" x2="45.448" y1="92.54" y2="7.0165" gradientTransform="scale(1.0059 .99417)" gradientUnits="userSpaceOnUse">
<stop offset="0"/>
<stop stop-opacity=".58824" offset="1"/>
</linearGradient>
<filter id="filter3174" color-interpolation-filters="sRGB">
<feGaussianBlur stdDeviation="1.71"/>
</filter>
<filter id="filter3794-69" x="-.192" y="-.192" width="1.384" height="1.384" color-interpolation-filters="sRGB">
<feGaussianBlur stdDeviation="5.28"/>
</filter>
<clipPath id="clipPath3613-88">
<rect x="6" y="6" width="84" height="84" rx="6" ry="6" fill="#fff"/>
</clipPath>
<linearGradient id="linearGradient3613-37" x1="48" x2="48" y1="20.221" y2="138.66" gradientUnits="userSpaceOnUse">
<stop stop-color="#fff" offset="0"/>
<stop stop-color="#fff" stop-opacity="0" offset="1"/>
</linearGradient>
<filter id="filter3174-234" color-interpolation-filters="sRGB">
<feGaussianBlur stdDeviation="1.71"/>
</filter>
<linearGradient id="linearGradient3593" x1="6" x2="90" y1="47" y2="47" gradientTransform="matrix(1.1354 0 0 1.1337 -40.037 -46.788)" gradientUnits="userSpaceOnUse">
<stop stop-color="#b7b7b7" offset="0"/>
<stop stop-color="#fff" offset=".25"/>
<stop stop-color="#9d9d9d" offset=".5"/>
<stop stop-color="#fafafa" offset=".75"/>
<stop stop-color="#b7b7b7" offset="1"/>
</linearGradient>
<radialGradient id="radialGradient3595" cx="48" cy="-27" r="42" gradientTransform="matrix(-1.0722 0 0 -.87502 199.46 -19.126)" gradientUnits="userSpaceOnUse">
<stop stop-color="#fff" offset="0"/>
<stop stop-color="#fff" offset=".8"/>
<stop stop-color="#fff" stop-opacity="0" offset="1"/>
</radialGradient>
<linearGradient id="linearGradient3597" x1="-94" x2="-10.188" y1="82.984" y2="82.984" gradientTransform="matrix(1 0 0 .73089 200 23.097)" gradientUnits="userSpaceOnUse">
<stop offset="0"/>
<stop stop-opacity=".58824" offset=".1"/>
<stop stop-opacity=".58824" offset=".9"/>
<stop offset="1"/>
</linearGradient>
<linearGradient id="linearGradient3875-6" x1="102.04" x2="16.971" y1="22.845" y2="-62.225" gradientTransform="matrix(.97189 0 0 .97189 -53.017 -7.4786)" gradientUnits="userSpaceOnUse">
<stop offset="0"/>
<stop stop-opacity="0" offset="1"/>
</linearGradient>
<linearGradient id="linearGradient3794-9" x1="279.12" x2="275.04" y1="547.96" y2="543.91" gradientTransform="matrix(1.6411 0 0 1.6574 -440.35 -897.59)" gradientUnits="userSpaceOnUse" xlink:href="#linearGradient854-3"/>
<linearGradient id="linearGradient854-3">
<stop offset="0"/>
<stop stop-color="#f5f5f5" offset=".87779"/>
<stop stop-color="#fff" offset="1"/>
</linearGradient>
<linearGradient id="linearGradient3791-4" x1="737.87" x2="723.67" y1="197.22" y2="197.27" gradientTransform="matrix(.59753 0 0 4.5522 -440.35 -897.59)" gradientUnits="userSpaceOnUse" xlink:href="#linearGradient854-3"/>
<linearGradient id="linearGradient3788-9" x1="247.92" x2="247.85" y1="577.1" y2="571.18" gradientTransform="matrix(1.7811 0 0 1.5272 -440.35 -897.59)" gradientUnits="userSpaceOnUse" xlink:href="#linearGradient854-3"/>
<linearGradient id="linearGradient3785-8" x1="432.78" x2="431.52" y1="444.34" y2="448.11" gradientTransform="matrix(1.4402 0 0 1.8887 -600.83 -859.89)" gradientUnits="userSpaceOnUse" xlink:href="#linearGradient854-3"/>
<linearGradient id="linearGradient3782-7" x1="196.8" x2="192.16" y1="764.65" y2="763.53" gradientTransform="matrix(2.375 0 0 1.1453 -440.35 -897.59)" gradientUnits="userSpaceOnUse" xlink:href="#linearGradient854-3"/>
<linearGradient id="linearGradient3779-1" x1="195.6" x2="193.06" y1="696.41" y2="694.71" gradientTransform="matrix(2.1581 0 0 1.2604 -440.35 -897.59)" gradientUnits="userSpaceOnUse" xlink:href="#linearGradient854-3"/>
<linearGradient id="linearGradient3776-1" x1="508.59" x2="508.46" y1="267.28" y2="269.14" gradientTransform="matrix(.82626 0 0 3.292 -440.35 -897.59)" gradientUnits="userSpaceOnUse" xlink:href="#linearGradient854-3"/>
<linearGradient id="linearGradient3744" x1="48" x2="48" y1="80" y2="15.502" gradientTransform="matrix(1.0255 0 0 1.024 -42.353 -42.99)" gradientUnits="userSpaceOnUse">
<stop stop-color="#c6c3c6" offset="0"/>
<stop stop-color="#eae9ea" offset="1"/>
</linearGradient>
<linearGradient id="linearGradient4031-2" x1="387.56" x2="387.56" y1="527.42" y2="513.37" gradientTransform="matrix(1.7514 0 0 1.7487 -648.42 -887.1)" gradientUnits="userSpaceOnUse">
<stop stop-color="#c6c3c6" offset="0"/>
<stop stop-color="#eae9ea" offset="1"/>
</linearGradient>
<linearGradient id="linearGradient3784" x1="2.7714" x2="50.528" y1="-28.642" y2="14.514" gradientUnits="userSpaceOnUse">
<stop stop-color="#fff" offset="0"/>
<stop stop-color="#fff" stop-opacity="0" offset="1"/>
</linearGradient>
<clipPath id="clipPath4156-4-0">
<path d="m27.046-55.695-14.214 13.321h0.06127l15.653 21.771 10.231-10.546c-0.2169-1.1522-11.311-23.67-11.732-24.546zm-17.399 16.313-14.888 14.062 21.229 17.515 10.385-10.577zm31.491 12.951-9.7413 9.7136 8.9448 12.458 7.7808-7.555zm-49.84 4.3788-13.754 12.982 26.283 13.846 0.06127-0.0617-0.12253-0.0617 9.8332-10.053-22.301-16.652zm38.015 7.4008-9.8025 9.7753 11.579 9.5594 7.6276-7.4008-8.6691-11.009zm20.187 5.674-7.3825 7.2158 6.1878 8.5418 5.8202-6.1365zm-32.195 6.3215-9.5575 9.4977 13.662 7.185 7.9339-7.6784zm23.312 2.3744-7.1068 6.9383 8.3628 6.9074 5.3608-5.674-0.06127-0.0925-0.0919 0.12335-6.4635-8.2026zm-8.7304 8.5418-7.5051 7.3392 10.354 5.4581c1.3975-1.321 5.6751-6.1229 5.8509-6.3215z" fill="#fff" opacity=".6"/>
</clipPath>
</defs>
<metadata>
<rdf:RDF>
<cc:Work rdf:about="">
<dc:format>image/svg+xml</dc:format>
<dc:type rdf:resource="http://purl.org/dc/dcmitype/StillImage"/>
<dc:title/>
</cc:Work>
</rdf:RDF>
</metadata>
<g display="none">
<rect x="5" y="7" width="86" height="85" rx="6" ry="6" fill="url(#ButtonShadow)" filter="url(#filter3174)" opacity=".9"/>
</g>
<g transform="translate(-113.76 41.738)">
<g transform="matrix(.97513 0 0 .97661 33.899 9.6574)">
<g transform="matrix(1.1354 0 0 1.1337 -153.57 -46.221)">
<g transform="matrix(.90323 0 0 .90323 104.65 1.8152)">
<g display="none">
<rect x="5" y="7" width="86" height="85" rx="6" ry="6" fill="url(#ButtonShadow)" filter="url(#filter3174-234)" opacity=".9"/>
<rect x="15" y="15" width="66" height="66" rx="12" ry="12" clip-path="url(#clipPath3613-88)" fill="url(#linearGradient3613-37)" filter="url(#filter3794-69)" opacity=".1" stroke="#fff" stroke-linecap="round" stroke-width=".5"/>
</g>
</g>
</g>
<g transform="translate(116.66 -9.9713)">
<path transform="matrix(1.029 0 0 1.029 -.41983 -.18855)" d="m55.463-41.269h-82.003c-3.7858 0-6.8336 3.0432-6.8336 6.8233v81.88c0 3.7801 3.0478 6.8233 6.8336 6.8233h82.003c3.7858 0 6.8336-3.0432 6.8336-6.8233v-81.88c0-3.7801-3.0478-6.8233-6.8336-6.8233z" opacity=".15"/>
<path transform="matrix(1.029 0 0 1.029 -.41983 -.18855)" d="m54.822-40.522h-80.722c-3.7267 0-6.7268 2.9956-6.7268 6.7167v80.6c0 3.721 3.0002 6.7167 6.7268 6.7167h80.722c3.7267 0 6.7268-2.9956 6.7268-6.7167v-80.6c0-3.721-3.0002-6.7167-6.7268-6.7167z" opacity=".15"/>
<path d="m55.334-41.119h-81.747c-3.774 0-6.8123 3.0337-6.8123 6.802v81.624c0 3.7683 3.0383 6.802 6.8123 6.802h81.747c3.774 0 6.8123-3.0337 6.8123-6.802v-81.624c0-3.7683-3.0383-6.802-6.8123-6.802z" fill="url(#linearGradient3593)"/>
<path transform="matrix(1.1354 0 0 1.1337 -153.57 -46.221)" d="m114.72 8.4369c-2.5984 0-4.6612 2.1249-4.6612 4.8016v19.897 6.7223 37.063c0.99812 1.5642 2.7006 2.6109 4.6612 2.6109h3.729 59.664 3.729c1.9606 0 3.6631-1.0467 4.6612-2.6109v-37.063-6.7223-19.897c0-2.6767-2.0628-4.8016-4.6612-4.8016z" fill="#4bb403" opacity=".87973"/>
<path transform="matrix(1.1354 0 0 1.1337 -153.57 -46.221)" d="m112 4.5c-3.324 0-6 2.676-6 6v15h1v-15c0-2.7873 2.2127-5 5-5h72c2.7873 0 5 2.2127 5 5v15h1v-15c0-3.324-2.676-6-6-6h-72z" fill="url(#radialGradient3595)" opacity=".45"/>
<path transform="matrix(1.1354 0 0 1.1337 -153.57 -46.221)" d="m106 78.998v0.73089 0.73089 0.73089 1.4618 1.4618c0 2.4295 2.676 4.3853 6 4.3853h72c3.324 0 6-1.9559 6-4.3853v-1.4618-1.4618-0.73089-0.73089-0.73089c0 2.4295-2.676 4.3853-6 4.3853h-72c-3.324 0-6-1.9559-6-4.3853z" fill="url(#linearGradient3597)" opacity=".46965"/>
<path d="m-24.688-37.812c-3.1961 0-5.8125 2.6003-5.8125 5.7812v70.938c0 3.1809 2.6164 5.7812 5.8125 5.7812h78.75c3.1961 0 5.8125-2.6003 5.8125-5.7812v-70.938c0-3.1809-2.6164-5.7812-5.8125-5.7812h-78.75zm0 2.375h78.75c1.9362 0 3.4375 1.5155 3.4375 3.4062v70.938c0 1.8907-1.5013 3.4062-3.4375 3.4062h-78.75c-1.9362 0-3.4375-1.5155-3.4375-3.4062v-70.938c0-1.8907 1.5013-3.4062 3.4375-3.4062z" color="#000000" fill="#373737" fill-opacity=".94811" style="block-progression:tb;text-indent:0;text-transform:none"/>
<path d="m14.461-34.976-38.905 38.846 38.905 38.846 38.905-38.846zm0 2.8224 36.048 36.024-36.048 35.993-36.078-35.993z" fill-rule="evenodd" opacity=".05"/>
<path d="m14.461-34.976-38.905 38.846 38.905 38.846 38.905-38.846zm0 1.8816 36.99 36.965-36.99 36.934-37.02-36.934z" fill-rule="evenodd" opacity=".1"/>
<rect transform="matrix(.70764 .70657 -.70764 .70657 0 0)" x="-14.532" y="-34.968" width="54.978" height="54.978" fill="url(#linearGradient3875-6)" fill-rule="evenodd" opacity=".4"/>
<path d="m-23.958 4.3562-0.48631 0.48558 38.905 38.846 38.905-38.846-0.48631-0.48558-38.419 38.361z" fill="#fff" fill-rule="evenodd" opacity=".2" stroke-width="0"/>
<path d="m14.461-34.976-38.905 38.846 38.905 38.846 38.905-38.846zm0 0.97116 37.902 37.875-37.902 37.845-37.932-37.845z" fill-rule="evenodd" opacity=".15"/>
<path d="m14.461-34.976-38.905 38.846 0.48631 0.48558 38.419-38.361 38.419 38.361 0.48631-0.48558z" fill-rule="evenodd" opacity=".2"/>
<path d="m23.641 5.531c-4.8835-0.096354-7.5892 5.9606-5.0634 9.8236-0.23806 0.16258-0.59568 0.36756-0.96141 0.63997-0.4023 0.29965-0.81519 0.65921-1.1216 1.1839-0.28795 0.49305-0.41136 1.1535-0.25638 1.8239 0.0099 0.04309-0.01244 0.08487 0 0.12799 0.32387 2.9916-1.5308 5.8275-2.9163 8.8636a0.8185 0.81727 0 0 0-0.03205 0.032c-0.39719 0.95779-1.2052 2.0912-1.7946 3.3598-0.58946 1.2686-0.90176 2.8247-0.06409 4.3518a0.8185 0.81727 0 0 0 0 0.032c0.80404 1.3917 2.1926 1.8821 3.4611 1.9839 1.2685 0.10179 2.5147-0.09234 3.4611-0.032 0.79767 0.07357 1.6747 0.06803 2.5317-0.15999 0.54606-0.1453 1.0603-0.44917 1.5062-0.83196 0.79652 0.76201 1.7549 1.2007 2.724 1.2799 1.2115 0.09901 2.3997-0.06314 3.3329-0.032 0.05625 0.01458 0.10426-0.01156 0.16023 0 1.0415 0.21519 2.018-0.0427 2.8201-0.38398 0.64735-0.27544 1.0499-0.51906 1.378-0.70397 0.89529 0.76518 1.9563 1.1117 2.9804 1.1519 1.1833 0.04652 2.3208-0.11204 3.2367-0.064 0.05565 0.01533 0.10499-0.012 0.16024 0 1.0281 0.22331 2.0067-0.09692 2.756-0.44798 0.39479-0.18496 0.74768-0.35951 1.0255-0.51198 0.1317-0.07228 0.13238-0.08429 0.22433-0.12799 0.89143 0.76351 1.9626 1.1167 2.9804 1.1519 1.2061 0.04173 2.3547-0.12751 3.2688-0.064 0.02104 0.0031 0.04302-0.0028 0.06409 0 2.1395 0.28433 4.4486-0.85331 5.0634-3.1039 0.0027-0.0097-0.0026-0.02219 0-0.032 0.0065-0.02433 0.02598-0.03941 0.03205-0.064 0.31286-0.87696 0.18832-1.7597-0.12819-2.4639-0.24642-0.54822-0.61464-0.93702-0.96141-1.3439 0.87359-2.918 3.3692-5.437 4.2943-8.9276a0.8185 0.81727 0 0 0 0-0.064c0.41673-2.0035-0.35952-4.0229-1.6985-5.4718-1.3247-1.4334-3.2516-2.3383-5.2877-2.1119v-0.032c-0.73368 0.01759-1.6665-0.10831-2.6599 0-0.74834 0.08159-1.4944 0.49687-2.1151 1.12-1.0809-0.81636-2.4101-1.1977-3.7495-1.056-8e-3 5.88e-4 -0.02395-5.33e-4 -0.03205 0-0.70484 0.04648-1.7261-0.13094-2.7881-0.064-0.8973 0.05656-1.8311 0.51934-2.4997 1.3439-0.02839 0.01024-0.0093-0.0072-0.03205 0-0.17039 0.05371-0.22806 0.0626-0.22433 0.064 0.0042 0.0015-0.04749-0.02144-0.16024-0.15999-0.22548-0.2771-0.66426-1.0282-1.6023-1.2159a0.8185 0.81727 0 0 0-0.03205 0c-1.8464-0.29696-3.8597-0.33976-5.8005 0 0.17596-0.33779 0.38066-0.66283 0.51275-1.056 0.13731-0.40867 0.18576-0.88892 0.06409-1.3759h0.03205c0.0676-3.3069-2.601-6.4694-6.0569-6.4317-0.01106 1.208e-4 -0.02098-1.853e-4 -0.03205 0zm1.378 19.519h0.03205c-0.19447 0.41324-0.39976 0.78641-0.5448 1.2159-0.28181 0.39448-0.52826 0.82468-0.73708 1.3119-0.25455 0.59398-0.49786 1.2121-0.73708 1.7599-0.06626 0.15174-0.12563 0.18587-0.19228 0.31998 0.10575-0.41986 0.29915-0.85502 0.5448-1.3439 0.11723-0.23334 0.25113-0.49708 0.38456-0.73597 0.45322-0.81139 0.92727-1.644 1.2498-2.5279z" fill-rule="evenodd" opacity=".05"/>
<path d="m23.641 6.3629c-4.4186-0.11223-6.8574 5.7835-4.0824 9.042 0.09511 0.65164-3.119 1.4677-2.5298 3.5105 0.44154 3.4191-1.6171 6.4444-2.9801 9.4313-0.91154 2.1981-3.2968 4.4834-1.9126 7.0069 1.3105 2.2684 4.1289 1.4414 6.2787 1.5785 1.4462 0.13339 3.2985-0.10626 3.9443-1.3225 1.3114 2.2727 4.1289 1.4374 6.2784 1.5568 1.6533 0.42861 3.5463-0.91452 4.2374-1.2368 1.5504 1.9726 4.2288 1.0659 6.379 1.2332 1.5783 0.43484 3.3019-1.0298 3.9994-1.2091 1.5362 1.9503 4.1916 1.0374 6.3197 1.2089 1.8285 0.26751 3.7686-0.69414 4.2362-2.5894 0.54733-1.3827-0.36931-2.5719-1.23-3.5074 0.858-3.3463 3.5443-5.9339 4.4225-9.2476 0.70407-3.3849-2.6598-7.045-6.1565-6.6134-1.6608 0.03983-3.7478-0.50887-4.7074 1.2697-0.91428-1.0354-2.3601-1.3979-3.7894-1.2396-1.7117 0.12563-4.1546-0.65495-5.0875 1.2396-1.4408 0.51911-1.2861-1.0434-2.4676-1.2799-2.1399-0.34417-4.5128-0.4374-6.6114 0.15278-1.4555 0.84636 1.3929-2.2771 0.71473-3.4166 0.05842-2.8579-2.3012-5.6173-5.2557-5.5678zm3.4611 9.6956c-0.51074 1.2402-1.1946 0.64492 0 0zm-0.25638 3.6798c1.1816 2.2608-0.85811 4.6725-1.5687 6.7771-1.0458 1.1939-1.862 5.6376-3.2078 4.7781-0.76017-2.1434 1.5568-4.5807 2.2588-6.6388 0.85416-1.6299 1.8089-3.2151 2.5178-4.9164zm19.485 5.3438c-0.887 2.3962-2.0215 4.877-3.3008 6.9757-1.8387-1.5 0.6232-3.8141 1.0575-5.4718 0.53637-0.74176 1.2925-1.4064 2.2433-1.5039zm-10.351 0.09599c-0.93078 2.2208-2.0093 5.2335-3.3733 6.7526-1.6229-1.4267 0.67389-3.6034 1.0019-5.1847 0.61209-0.74162 1.3991-1.3849 2.3715-1.5679z" fill-rule="evenodd" opacity=".1"/>
<path d="m23.641 7.3549c-2.3775 0-4.2622 2.0868-4.2622 4.5758 0 2.489 1.8848 4.5758 4.2622 4.5758 2.3774 0 4.2622-2.0868 4.2622-4.5758 0-2.489-1.8848-4.5758-4.2622-4.5758zm7.9156 8.5756c-0.94378 0.01588-1.829 0.11926-2.6919 0.22399-0.03061 0.0037-0.06566-0.0038-0.09614 0v0.032c-0.30671 0.0082-0.60041 0.10313-0.80117 0.28799-0.22465 0.20685-0.36285 0.47816-0.44866 0.73597-0.1716 0.5156-0.17253 1.0659 0 1.5999a0.63899 0.63802 0 0 0 0.03205 0.096l0.67298 1.3439c0.06154 0.59768 0.18502 0.99969-0.32047 2.5919-0.54143 1.7054-1.8082 4.6244-4.7109 9.8876a0.63899 0.63802 0 0 0-0.03205 0.064c-0.36461 0.79933-0.318 1.6416 0.06409 2.3039 0.38209 0.66232 1.1067 1.1283 1.9549 1.12l5.1275-0.064c0.38704-9e-3 0.65416-0.18694 0.89731-0.38398 0.24315-0.19704 0.46117-0.44702 0.64094-0.73597 0.35953-0.5779 0.62005-1.3818 0.25638-2.1439a0.63899 0.63802 0 0 0-0.09614-0.12799l-1.0255-1.2479c-4.96e-4 -8.59e-4 7.89e-4 -0.0299 0-0.032-0.01261-0.03352-0.03637-0.20293 0-0.51198 0.03864-0.32836 0.12012-0.77563 0.28842-1.2799 0.32666-0.9788 0.87333-2.1891 1.4742-3.4238 0.01051-0.01377 0.02153-0.01839 0.03205-0.032 0.01155-0.02368 0.02046-0.0403 0.03205-0.064 1.6086-2.0422 3.2886-2.1489 4.5507-2.1759 0.03434 0.06313 0.09005 0.22362 0.12819 0.35198-0.6592 1.7948-1.4907 3.8812-3.9738 8.3836a0.63899 0.63802 0 0 0-0.03205 0.064c-0.36274 0.79525-0.3403 1.6391 0.03205 2.3039 0.37234 0.6648 1.1068 1.1283 1.9549 1.12l5.1916-0.064c0.38718-0.0091 0.65644-0.18545 0.89731-0.38398 0.24087-0.19854 0.46572-0.44625 0.64094-0.73597 0.35043-0.57943 0.58554-1.387 0.22433-2.1439a0.63899 0.63802 0 0 0-0.09614-0.12799l-1.0255-1.2479c-4.19e-4 -7.27e-4 7.17e-4 -0.03001 0-0.032-0.01148-0.03185-0.04168-0.19716 0-0.51198 0.04428-0.3345 0.14137-0.79806 0.32047-1.3119 0.35819-1.0278 0.96539-2.2876 1.6023-3.5838 1.4695-2.0439 3.0163-2.0784 4.2302-2.0799 0.01586 0.0143 0.02989 0.0019 0.06409 0.096 0.04796 0.13189 0.08785 0.36605 0.09614 0.60797-0.69111 1.8254-1.3673 3.7123-3.7495 8.0316a0.63899 0.63802 0 0 0-0.03205 0.064c-0.36088 0.79117-0.33044 1.6367 0.03205 2.3039 0.36249 0.66724 1.0748 1.1283 1.9228 1.12l5.1595-0.064c0.38691-9e-3 0.65188-0.1884 0.89731-0.38398 0.24543-0.19559 0.4887-0.4478 0.67298-0.73597 0.36857-0.57634 0.62255-1.3766 0.25638-2.1439a0.63899 0.63802 0 0 0-0.09614-0.12799l-1.0255-1.2479c-0.0976-0.16897-0.10865-0.66284 0.12819-1.3759 0.23684-0.7131 0.66737-1.5831 1.1857-2.5279 1.0367-1.8897 2.3981-3.9875 3.0445-5.7277a0.63899 0.63802 0 0 0 0-0.032c0.45622-1.4121-0.11646-2.7537-0.92936-3.7118-0.8129-0.95814-1.8536-1.6135-2.724-1.8879a0.63899 0.63802 0 0 0-0.19228-0.032l-3.9097-0.064a0.63899 0.63802 0 0 0-0.12819 0.032c-0.4584 0.1044-0.88254 0.33265-1.1216 0.67197-0.133 0.18874-0.15535 0.4072-0.22433 0.60797l-1.7305-0.032c-0.02939-0.15538 0.01099-0.33217-0.06409-0.47998-0.18607-0.36627-0.59332-0.66129-1.0255-0.70397a0.63899 0.63802 0 0 0-0.06409 0l-4.102-0.064c-0.37029-0.0076-0.64955 0.0075-0.92936 0.096-0.27981 0.08849-0.55087 0.28388-0.70503 0.51198-0.17444 0.2581-0.15852 0.45518-0.19228 0.67197h-2.724c6.52e-4 -0.02083-1.07e-4 -0.04318 0-0.064 0.0017-0.33908-0.05925-0.70664-0.32047-1.024a0.63899 0.63802 0 0 0-0.35252-0.22399c-1.002-0.18109-2.0351-0.24044-3.0124-0.22399zm-8.0438 0.70397-2.724 0.064c-0.98508-0.0202-1.7448 0.13032-2.2433 0.70397-0.49847 0.57364-0.5592 1.333-0.51275 2.2079 0.02325 0.76564 0.25115 1.0351-0.25638 2.7199-0.50753 1.6848-1.7698 4.6363-4.807 10.144a0.63899 0.63802 0 0 0-0.03205 0.064c-0.36464 0.79943-0.31797 1.6414 0.06409 2.3039 0.38206 0.66254 1.1063 1.1294 1.9549 1.12l5.1595-0.032c0.39312-0.0089 0.68895-0.18173 0.92936-0.38398 0.24041-0.20225 0.43462-0.47478 0.60889-0.76797 0.34855-0.58637 0.58675-1.3845 0.22433-2.1439a0.63899 0.63802 0 0 0-0.09614-0.128l-1.0255-1.2479c-5.78e-4 -1e-3 8.36e-4 -0.02984 0-0.032-0.01421-0.03674-0.04077-0.21761 0-0.54398 0.04317-0.34556 0.14077-0.81648 0.32047-1.3439 0.35939-1.0549 0.94806-2.36 1.6023-3.6798 0.65429-1.3199 1.3912-2.6489 1.9869-3.7758 0.5957-1.1269 1.0659-2.0097 1.2819-2.5919 0.13131-0.37147 0.18426-0.73227 0.16023-1.088-0.02403-0.35568-0.15979-0.73146-0.41661-0.99196-0.50709-0.51436-1.2433-0.61265-2.1471-0.57597-0.01167 4.73e-4 -0.02032-5.2e-4 -0.03205 0z" fill-rule="evenodd" opacity=".15"/>
<path d="m27.269 11.926c0 2.1724-1.6227 3.9335-3.6243 3.9335-2.0016 0-3.6243-1.7611-3.6243-3.9335 0-2.1724 1.6226-3.9335 3.6243-3.9335 2.0016 0 3.6243 1.7611 3.6243 3.9335zm-13.743 20.867c6.0946-11.051 5.1973-11.984 5.1599-13.216-0.08722-1.6427 0.2742-2.2774 2.0939-2.2401l2.7669-0.07467c1.6826-0.07468 2.2434 0.52266 1.7948 1.792-0.7183 1.936-6.1428 10.736-5.1161 12.513l1.0907 1.3569c0.46004 0.96391-0.61337 2.3502-1.2109 2.3638l-5.1583 0.04354c-1.2588 0.01399-1.9942-1.2818-1.4208-2.5387zm20.909-15.984c-1.9012-0.34361-3.8398-0.23921-5.5915-0.02273-0.68548-0.04984-0.95368 1.0604-0.70441 1.8319l0.72726 1.4523c0.0937 1.1717 0.68194 2.4057-5.1428 12.967-0.57333 1.2569 0.19568 2.554 1.4545 2.5416l5.1428-0.05176c0.59752-0.01399 1.6548-1.3701 1.1948-2.3341l-1.0909-1.3486c-0.49601-0.85881 0.56083-3.3939 1.8181-5.9649 1.8177-2.383 3.9164-2.5178 5.2466-2.5416 0.39678 0.09042 0.55783 0.54475 0.67532 1.0374-0.67257 1.843-1.5353 4.0048-4.1038 8.6621-0.57332 1.2569 0.14379 2.554 1.4026 2.5416l5.1947-0.05176c0.59752-0.01399 1.6548-1.3701 1.1948-2.3341l-1.0909-1.3486c-0.50319-0.87124 0.58752-3.4585 1.8701-6.0686 1.6809-2.4054 3.7172-2.4378 4.9869-2.4378 0.50685 0.15564 0.62314 0.7948 0.62337 1.4523-0.70182 1.8493-1.401 3.8173-3.8441 8.2471-0.57332 1.2569 0.14379 2.554 1.4026 2.5416l5.1427-0.05176c0.59752-0.01399 1.7068-1.3701 1.2467-2.3341l-1.0909-1.3486c-1.0267-1.7776 3.1012-6.9574 4.3056-10.2 0.74782-2.3147-1.8181-4.3396-3.239-4.7876l-3.9123-0.06016c-0.70563 0.16071-0.85342 0.56659-1.0475 1.305l-2.6767-0.02273c0.05272-0.68348-0.12575-1.1349-0.62992-1.1847l-4.0992-0.06016c-1.3224-0.0271-1.1916 0.44775-1.3612 1.2594l-3.9919 0.0016c0.22015-0.42872 0.21596-1.0068-0.01401-1.2862z" fill-rule="evenodd" opacity=".3"/>
<path d="m27.269 10.902c0 2.1724-1.6227 3.9335-3.6243 3.9335-2.0016 0-3.6243-1.7611-3.6243-3.9335 0-2.1724 1.6226-3.9335 3.6243-3.9335 2.0016 0 3.6243 1.7611 3.6243 3.9335zm-13.743 20.867c6.0946-11.051 5.1973-11.984 5.1599-13.216-0.08722-1.6427 0.2742-2.2774 2.0939-2.2401l2.7669-0.07467c1.6826-0.07467 2.2434 0.52266 1.7948 1.792-0.7183 1.936-6.1428 10.736-5.1161 12.513l1.0907 1.3569c0.46004 0.96391-0.61337 2.3502-1.2109 2.3638l-5.1583 0.04354c-1.2588 0.01399-1.9942-1.2818-1.4208-2.5387zm20.909-15.984c-1.9012-0.34361-3.8398-0.23921-5.5915-0.02273-0.68548-0.04984-0.95368 1.0604-0.70441 1.8319l0.72726 1.4523c0.0937 1.1717 0.68194 2.4057-5.1428 12.967-0.57333 1.2569 0.19568 2.554 1.4545 2.5416l5.1428-0.05176c0.59752-0.01399 1.6548-1.3701 1.1948-2.3341l-1.0909-1.3486c-0.49601-0.85881 0.56083-3.3939 1.8181-5.9649 1.8177-2.383 3.9164-2.5178 5.2466-2.5416 0.39678 0.09041 0.55783 0.54475 0.67532 1.0374-0.67257 1.843-1.5353 4.0048-4.1038 8.6621-0.57332 1.2569 0.14379 2.554 1.4026 2.5416l5.1947-0.05176c0.59752-0.01399 1.6548-1.3701 1.1948-2.3341l-1.0909-1.3486c-0.50319-0.87124 0.58752-3.4585 1.8701-6.0686 1.6809-2.4054 3.7172-2.4378 4.9869-2.4378 0.50685 0.15564 0.62314 0.79481 0.62337 1.4523-0.70182 1.8493-1.401 3.8173-3.8441 8.2471-0.57332 1.2569 0.14379 2.554 1.4026 2.5416l5.1427-0.05176c0.59752-0.01399 1.7068-1.3701 1.2467-2.3341l-1.0909-1.3486c-1.0267-1.7776 3.1012-6.9574 4.3056-10.2 0.74782-2.3147-1.8181-4.3396-3.239-4.7876l-3.9123-0.06016c-0.70563 0.16071-0.85342 0.56659-1.0475 1.305l-2.6767-0.02273c0.05272-0.68348-0.12575-1.1349-0.62992-1.1847l-4.0992-0.06016c-1.3224-0.0271-1.1916 0.44775-1.3612 1.2594l-3.9919 0.0016c0.22015-0.42872 0.21596-1.0068-0.01401-1.2862z" fill="url(#linearGradient4031-2)" fill-rule="evenodd"/>
<path d="m23.641 6.9709c-2.0016 0-3.6213 1.7634-3.6213 3.9358 0 1.4023 0.6808 2.6314 1.6985 3.3279-0.42913-0.64631-0.67298-1.4464-0.67298-2.3039 0-2.1724 1.6197-3.9358 3.6213-3.9358 0.7096 0 1.3639 0.22545 1.9228 0.60797-0.65807-0.99111-1.7368-1.6319-2.9483-1.6319zm7.9476 8.5756c-0.94126 0.01024-1.8802 0.11575-2.756 0.22399-0.68548-0.04984-0.95431 1.0523-0.70503 1.8239l0.73708 1.4399c0.0937 1.1717 0.69719 2.43-5.1275 12.991-0.48937 1.0728-0.0071 2.1398 0.92936 2.4319-0.14154-0.42683-0.13116-0.90964 0.09614-1.4079 5.8247-10.561 5.2212-11.82 5.1275-12.991l-0.73708-1.4399c-0.24927-0.77158 0.01956-1.8738 0.70503-1.8239 1.4793-0.18282 3.1001-0.27538 4.7109-0.096 0.07112-0.34689 0.03911-0.72473-0.12819-0.92796-0.9506-0.1718-1.9109-0.2342-2.8522-0.22399zm16.664 0.22399c-0.70563 0.16071-0.86346 0.57357-1.0575 1.3119l-1.9228-0.032c0.23269 0.18961 0.32608 0.53576 0.28842 1.024l2.6599 0.032c0.19409-0.73837 0.35191-1.1512 1.0575-1.3119l3.9097 0.064c0.44188 0.13934 1.009 0.42631 1.5383 0.83196-0.73263-0.93434-1.8093-1.618-2.5638-1.8559zm-8.4604 0.032c-1.3224-0.0271-1.1764 0.46833-1.346 1.2799h-2.8522c0.08788 0.30054 0.03693 0.70241-0.12819 1.024h4.0059c0.1696-0.81161 0.02359-1.307 1.346-1.2799l3.7174 0.064c0.0097-0.58349-0.18178-0.97861-0.64094-1.024zm-16.248 0.44798-2.756 0.064c-1.8197-0.03732-2.2023 0.5972-2.1151 2.2399 0.03741 1.232 0.9351 2.1645-5.1595 13.215-0.48936 1.0729 1.43e-4 2.1731 0.92936 2.4639-0.14304-0.43113-0.13511-0.93295 0.09614-1.4399 6.0946-11.051 5.197-11.983 5.1595-13.215-0.08722-1.6427 0.29542-2.2772 2.1151-2.2399l2.756-0.064c0.3637-0.01614 0.66935-0.01466 0.92936 0.032 9.34e-4 -0.76156-0.64071-1.1143-1.9549-1.056zm14.966 7.0717c-0.10457 0.0018-0.23896 0.02772-0.35252 0.032-0.67257 1.843-1.5335 4.0143-4.102 8.6716-0.49656 1.0886-0.02367 2.1919 0.92936 2.4639-0.14176-0.43278-0.13624-0.93048 0.09614-1.4399 2.5685-4.6573 3.4294-6.8286 4.102-8.6716-0.11748-0.49262-0.27621-0.96554-0.67298-1.056zm10.127 0c-0.12517 0-0.27762 0.02912-0.41661 0.032 0.01376 0.13609 0.032 0.27342 0.03205 0.41598-0.70182 1.8493-1.4025 3.8258-3.8456 8.2556-0.48935 1.0728-0.028 2.1398 0.89731 2.4319-0.13169-0.42683-0.09911-0.90964 0.12819-1.4079 2.4431-4.4298 3.1438-6.4064 3.8456-8.2556-2.27e-4 -0.65751-0.13409-1.3163-0.64094-1.4719z" fill="#fff" fill-rule="evenodd" opacity=".6"/>
<path d="m25.564 7.5789c0.42913 0.6463 0.67298 1.4464 0.67298 2.3039 0 2.1724-1.6197 3.9358-3.6213 3.9358-0.70961 0-1.3639-0.22545-1.9228-0.60797 0.65807 0.99111 1.7367 1.6319 2.9483 1.6319 2.0016 0 3.6213-1.7634 3.6213-3.9358 0-1.4023-0.6808-2.6314-1.6985-3.3279zm7.9797 8.0956c-0.02664 0.12996-0.06818 0.26714-0.12819 0.38398h1.1537c-0.02929-0.10018-0.07069-0.21815-0.12819-0.28799-0.29561-0.05343-0.60073-0.06297-0.89731-0.096zm9.9666 0.19199c-9.53e-4 0.05721 0.0047 0.09897 0 0.15999h0.73708c-0.09307-0.07584-0.20847-0.14577-0.35252-0.15999zm-19.036 0.41598c-2.62e-4 0.21351-0.06199 0.45802-0.16023 0.73597-0.7183 1.936-6.1542 10.734-5.1275 12.511l1.0896 1.3439c0.46004 0.96391-0.58822 2.3543-1.1857 2.3679l-5.1595 0.032c-0.18435 2e-3 -0.35332-0.0141-0.51275-0.064 0.2116 0.63774 0.78718 1.0963 1.5382 1.088l5.1595-0.032c0.59752-0.01356 1.6458-1.404 1.1857-2.3679l-1.0896-1.3439c-1.0267-1.7776 4.4092-10.575 5.1275-12.511 0.3517-0.99498 0.07761-1.5907-0.86527-1.7599zm29.227 0.38398c0.64717 0.82535 1.0237 1.8582 0.67298 2.9439-1.2044 3.2428-5.321 8.3979-4.2943 10.176l1.0896 1.3439c0.46005 0.96396-0.65231 2.3219-1.2498 2.3359l-5.1595 0.064c-0.18435 0.0018-0.32194-0.04588-0.4807-0.096 0.20049 0.64981 0.74646 1.1275 1.5062 1.12l5.1595-0.064c0.59752-0.01399 1.7099-1.3719 1.2498-2.3359l-1.0896-1.3439c-1.0267-1.7776 3.0899-6.9328 4.2943-10.176 0.51525-1.5948-0.52592-3.0691-1.6985-3.9678zm-17.241 4.6078c-1.3303 0.02371-3.438 0.1769-5.2557 2.5599-1.2573 2.571-2.2906 5.0929-1.7946 5.9517l1.0896 1.3439c0.46002 0.96394-0.62026 2.3219-1.2178 2.3359l-5.1275 0.064c-0.18436 0.0018-0.35208-0.04588-0.51275-0.096 0.21548 0.6498 0.77848 1.1275 1.5382 1.12l5.1275-0.064c0.59752-0.01399 1.6778-1.372 1.2178-2.3359l-1.0896-1.3439c-0.49601-0.85881 0.5373-3.3808 1.7946-5.9517 1.6748-2.1957 3.5721-2.4778 4.9032-2.5279-0.11748-0.49262-0.27621-0.96554-0.67298-1.056zm10.127 0c-1.2697 0-3.2863 0.05851-4.9673 2.4639-1.2826 2.6101-2.394 5.1765-1.8908 6.0477l1.0896 1.3439c0.46004 0.96394-0.58821 2.3219-1.1857 2.3359l-5.1916 0.064c-0.16852 0.0016-0.3334-0.02196-0.4807-0.064 0.20799 0.63496 0.75763 1.0954 1.5062 1.088l5.1916-0.064c0.59752-0.01399 1.6458-1.372 1.1857-2.3359l-1.0896-1.3439c-0.50319-0.87124 0.60819-3.4376 1.8908-6.0477 1.5152-2.1683 3.2797-2.4056 4.5507-2.4319-0.0497-0.4916-0.21193-0.93406-0.60889-1.056z" fill-rule="evenodd" opacity=".2"/>
<path d="m40.424-28.59c-7.5632 0.11993-15.196-0.07671-22.817 0.096-0.01071 2.43e-4 -0.02134-2.44e-4 -0.03205 0-2.3979-0.02147-4.2041 1.4409-5.1595 3.2639-0.95987 1.8314-1.2108 4.0336-0.67298 5.9837h0.06409c-0.05987 0.66578-0.0619 1.3298 0.19228 1.8559 0.32446 0.67157 0.80483 1.2132 1.2498 1.6639 0.40688 0.41209 0.78714 0.73136 1.0575 0.99196-4.098 4.0405-8.1979 8.0697-12.306 12.095-0.00133-3.9996-0.00215-7.9833 0.064094-11.967 1.2941-0.56485 2.2694-1.5591 2.724-2.7519 0.53732-1.4099 0.59125-2.9528 0.44866-4.2878h0.032047c0.00226-0.05479-0.033154-0.10513-0.032047-0.15999 0.029032-1.4448-0.33463-2.898-1.1537-4.0958-0.85016-1.2433-2.2382-2.1993-3.9738-2.3359-5.5598-0.32091-11.114 0.0077-16.568-0.064a1.0165 1.015 0 0 0-0.09614 0c-2.9869 0.27936-6.6441-0.61662-10.095 0.86396a1.0165 1.015 0 0 0-0.12819 0.064c-1.9232 1.1996-2.8499 3.2243-3.0765 5.2478-0.22546 2.013 0.18842 4.0831 0.99345 5.7917 0.0072 0.01632 0.02466 0.01591 0.03205 0.032 0.80554 1.7542 2.6189 2.1462 3.5252 2.5279 0.45729 0.19258 0.62933 0.32746 0.67298 0.41598 0.04366 0.08852 0.1373 0.37882-0.19228 1.1839a1.0165 1.015 0 0 0-0.09614 0.38398c0.03929 16.3-0.0053 32.595 0.06409 48.894a1.0165 1.015 0 0 0 0.03205 0.15999c0.57911 3.5789 3.9124 6.0056 7.499 5.6317v0.032c1.4047 0.01623 3.0165 0.07974 4.6148-0.22399 1.5506-0.29468 3.0832-1.0445 4.1661-2.5599l0.032047 0.032c0.036908-0.03794 0.059233-0.09005 0.096141-0.12799 17.814-18.312 35.64-36.63 53.422-54.974a1.0165 1.015 0 0 0 0.09614-0.128c2.184-3.2836 1.5945-7.5092 0.80117-10.688a1.0165 1.015 0 0 0-0.12819-0.28799c-1.2014-1.9256-3.4519-2.4781-5.2877-2.5599a1.0165 1.015 0 0 0-0.06409 0z" fill-rule="evenodd" opacity=".05"/>
<path d="m40.456-27.566c-7.6023 0.12055-15.25-0.07724-22.849 0.096-4.0388-0.05901-5.795 4.6178-4.8711 7.9676-0.66865 2.4258 2.9935 4.072 2.8611 4.913-4.868 4.8002-9.7358 9.6007-14.622 14.382 0.008204-4.9918-0.028006-9.9841 0.064094-14.975 2.9105-0.56462 3.5014-4.0352 3.2041-6.5004 0.1075-2.5898-1.3444-5.2932-4.2022-5.5182-5.4806-0.31633-11.003-0.0037-16.506-0.07596-3.2292 0.30202-6.7091-0.5461-9.755 0.76081-3.2468 2.0252-3.1859 6.678-1.7222 9.7623 1.1392 2.5772 5.5929 1.1832 4.0492 4.9541 0.0393 16.303-0.01801 32.621 0.05135 48.916 0.49904 3.084 3.4216 5.1577 6.534 4.7741 2.8602 0.03305 6.2341 0.28386 8.0632-2.4347 17.851-18.35 35.696-36.705 53.515-55.086 1.903-2.861 1.4101-6.7741 0.64094-9.8556-0.93757-1.5028-2.7895-2.0057-4.4545-2.0799z" fill-rule="evenodd" opacity=".1"/>
<path d="m40.424-26.542c-0.62154-0.02664-1.2078 0.03186-1.7305 0.064v-0.032h-20.798v0.032c-1.8376-0.09437-3.1904 0.95731-3.7815 2.2719-0.55726 1.2393-0.60256 2.6657-0.4807 3.9038 9e-3 0.09199-0.01117 0.19811 0 0.28799h0.03205c-0.15069 1.5171 0.55354 2.8477 1.6344 3.6158 0.77216 0.54875 1.6946 0.79207 2.6278 0.92796-0.02086 0.02167-0.04238 0.03839-0.06409 0.064-5.9923 5.8982-11.94 11.847-17.946 17.695-0.0018459-0.032685 0.0044097-0.061243 0-0.095996h0.032047c0.042538-6.067-0.064945-12.108 0.064094-18.111 0.45687-0.11278 0.90556-0.185 1.4421-0.44798 0.78855-0.3865 1.5746-1.2152 1.6664-2.3999a0.9137 0.91232 0 0 0 0.032047-0.064c-0.00943-1.6767 0.39926-3.8939-0.67298-5.9197a0.9137 0.91232 0 0 0-0.19228-0.25599c-1.1938-1.076-2.6443-1.3247-3.9738-1.3439-1.3295-0.01921-2.6244 0.15541-3.6854 0.064a0.9137 0.91232 0 0 0-0.064094-0.032c-6.1675 0.08095-12.467 9.92e-4 -18.619 0.19199a0.9137 0.91232 0 0 0-0.03205 0c-1.6469 0.1318-2.7934 1.1921-3.3008 2.3999-0.48074 1.1442-0.51754 2.386-0.44866 3.4878 0.0038 0.06121-0.0046 0.13183 0 0.19199h0.03205c-0.15055 1.5594 0.51857 2.9233 1.6023 3.7438 0.94601 0.71625 2.1406 0.99214 3.3649 0.95996-0.03231 0.24062-0.04228 0.67707 0.03205 1.1519h-0.06409c-7.26e-4 16.995 0.0547 34.071 0 51.006a0.9137 0.91232 0 0 0 0.03205 0.032c0.05714 1.8112 1.2099 3.0355 2.5317 3.5518 1.3109 0.5121 2.7557 0.51499 3.9738 0.41598 0.0094-2.53e-4 0.02259 2.19e-4 0.03205 0 0.83186-0.01927 1.7902 0.11097 2.8201 0 1.0156-0.10942 2.129-0.51453 2.9483-1.5039 0.021-0.02536 0.04349-0.03786 0.06409-0.064 17.963-18.47 35.944-36.946 53.871-55.454a0.9137 0.91232 0 0 0 0.06409-0.064c0.8466-1.0556 1.0244-2.2908 1.0255-3.3918 0.0011-1.0773-0.13464-2.077-0.06409-2.9119 0.0039-0.02391-0.0035-0.0402 0-0.064 0.13015-0.87968 0.01015-1.6863-0.38456-2.3039-0.40538-0.63431-1.0336-1.0268-1.6664-1.2479-0.63287-0.22118-1.3103-0.32436-1.9549-0.35198z" fill-rule="evenodd" opacity=".15"/>
<path d="m17.895-25.582c-1.0503 0.01262-1.8993 0.33402-2.4907 0.93665s-0.91635 1.4837-0.90572 2.5839l0.03235 2.713h-0.03235c0.08441 1.211 0.66144 1.9261 1.5203 2.3901 0.86691 0.46831 2.0428 0.67026 3.2024 0.71056a0.30742 0.30696 0 0 1 0.29112 0.35528 0.30742 0.30696 0 0 1-0.06469 0.16149l-19.893 19.702a0.30742 0.30696 0 0 1-0.5499-0.22609v-20.154a0.30742 0.30696 0 0 1 0.064694-0.16149 0.30742 0.30696 0 0 1 0.16173-0.12919 0.30742 0.30696 0 0 1 0.097041 0c0.85005 0.02933 1.5609-0.21619 2.0702-0.67826 0.50934-0.46207 0.86265-1.1568 0.90572-2.164h-0.032347l-0.032347-2.7453h0.032347c-0.059384-1.2816-0.38816-2.0012-0.97041-2.4547-0.58225-0.45348-1.5034-0.66866-2.8789-0.71056v0.0323l-21.672 0.12919v-0.0323c-1.0956 0.09322-1.9612 0.35447-2.5554 0.83975-0.59472 0.4857-0.9894 1.2336-1.1321 2.487h0.03235l-0.03235 1.8733h-0.03235c0.06423 1.2867 0.33825 2.2231 0.87337 2.8422 0.53512 0.61917 1.3565 0.97296 2.6848 1.0335l1.1321 0.0323a0.30742 0.30696 0 0 1 0.32347 0.29068l0.06469 52.743h-0.03235c0.1177 0.94756 0.45625 1.6964 1.0028 2.2286 0.55293 0.53841 1.3424 0.85505 2.426 0.87205h5.0461v0.0323c0.91974-0.08005 1.8142-0.79867 2.5878-1.5826l53.017-54.552c0.90128-0.91907 1.4993-1.6283 1.4233-2.8745a0.30742 0.30696 0 0 1-0.03235-0.0323v-3.1329c0.0082-1.4523-0.1445-2.2987-0.5499-2.7453-0.4054-0.44666-1.1458-0.60929-2.5554-0.61367z" fill-rule="evenodd" opacity=".3"/>
<path d="m17.895-26.606c-1.0503 0.01262-1.8993 0.33402-2.4907 0.93665s-0.91635 1.4837-0.90572 2.5839l0.03235 2.713h-0.03235c0.08441 1.211 0.66144 1.9261 1.5203 2.3901 0.86691 0.46831 2.0428 0.67026 3.2024 0.71056a0.30742 0.30696 0 0 1 0.29112 0.35528 0.30742 0.30696 0 0 1-0.06469 0.16149l-19.893 19.702a0.30742 0.30696 0 0 1-0.5499-0.22609v-20.154a0.30742 0.30696 0 0 1 0.064694-0.16149 0.30742 0.30696 0 0 1 0.16173-0.12919 0.30742 0.30696 0 0 1 0.097041 0c0.85005 0.02933 1.5609-0.21619 2.0702-0.67826 0.50934-0.46207 0.86265-1.1568 0.90572-2.164h-0.032347l-0.032347-2.7453h0.032347c-0.059384-1.2816-0.38816-2.0012-0.97041-2.4547-0.58225-0.45348-1.5034-0.66866-2.8789-0.71056v0.0323l-21.672 0.12919v-0.0323c-1.0956 0.09322-1.9612 0.35447-2.5554 0.83975-0.59472 0.4857-0.9894 1.2336-1.1321 2.487h0.03235l-0.03235 1.8733h-0.03235c0.06423 1.2867 0.33825 2.2231 0.87337 2.8422 0.53512 0.61917 1.3565 0.97296 2.6848 1.0335l1.1321 0.0323a0.30742 0.30696 0 0 1 0.32347 0.29068l0.06469 52.743h-0.03235c0.1177 0.94756 0.45625 1.6964 1.0028 2.2286 0.55293 0.53841 1.3424 0.85505 2.426 0.87205h5.0461v0.0323c0.91974-0.08005 1.8142-0.79867 2.5878-1.5826l53.017-54.552c0.90128-0.91907 1.4993-1.6283 1.4233-2.8745a0.30742 0.30696 0 0 1-0.03235-0.0323v-3.1329c0.0082-1.4523-0.1445-2.2987-0.5499-2.7453-0.4054-0.44666-1.1458-0.60929-2.5554-0.61367z" fill="#fff" fill-rule="evenodd"/>
<path d="m42.42-26.319-63.464 63.805c0.61402 0.73742 1.2526 1.3665 2.5364 1.3867l5.0302 0.05126c1.0575-0.07664 1.9755-0.83304 2.7718-1.64l52.766-54.327c0.91058-0.92854 1.5707-1.7291 1.4885-3.0751v-3.1263c0.0099-1.7381-0.37486-2.5739-1.1292-3.0751z" fill="url(#linearGradient3794-9)" fill-opacity=".75" fill-rule="evenodd" stroke-width=".38427"/>
<path d="m-4.7401 10.977 3.8341-7.5637-0.10497-21.182-3.8282-1.2191 0.099022 29.965z" fill="url(#linearGradient3791-4)" fill-opacity=".75" fill-rule="evenodd" stroke-width=".38427"/>
<path d="m1.3472-25.827-8.5489 6.0401 6.3992 2.1465h0.050003c1.7407 0.03889 3.0119-0.993 3.0996-3.045v-2.6956c-0.05629-1.2139-0.41964-1.9359-0.99987-2.446z" fill="url(#linearGradient3788-9)" fill-opacity=".75" fill-rule="evenodd" stroke-width=".25618"/>
<path d="m27.567-23.388-1.8052 1.133 1.341 0.51501zm-0.4642 1.648-5.7768 3.502c-0.4493-0.03231-0.9466-0.18334-1.4442-0.2575l-0.36105 0.2575c0.42864 0.06327 0.80124 0.24232 1.2379 0.2575l-4.3841 4.326 7.2209 4.944z" fill="url(#linearGradient3785-8)" fill-opacity=".75" fill-rule="evenodd" stroke-width=".12809"/>
<path d="m20.625-22.514-5.9803 2.6771c0.43324 2.0018 2.4687 2.4788 5.1717 2.6238l5.8209-3.5353z" fill="url(#linearGradient3782-7)" fill-opacity=".75" fill-rule="evenodd" stroke-width=".38427"/>
<path d="m-20.949-22.38-5.7703 2.5723c0.43324 2.0018 1.6286 2.5836 4.7517 2.5713l5.6109-6.0516z" fill="url(#linearGradient3779-1)" fill-opacity=".75" fill-rule="evenodd" stroke-width=".38427"/>
<path d="m-18.506-21.434-3.5441 4.2736 0.18494 4.1583c-0.04026 0.57301 0.87756 7.9026 1.7293 5.0075 0.85172-2.8951 1.0482-13.758 1.6299-13.439z" fill="url(#linearGradient3776-1)" fill-opacity=".75" fill-rule="evenodd" stroke-width=".12809"/>
<path d="m-15.264 37.464c0.61055-0.05372 1.4365-0.80683 2.1548-1.6137l52.448-53.24c0.57462-0.62755 1.2004-1.3558 1.1824-1.9834l-0.10497-4.2595c0-0.55583-0.42959-0.9571-1.1299-0.92124l-21.33-0.04976c-0.9158-0.03593-1.7239 0.51995-1.6161 1.5061v2.2291c0.03599 1.3476 1.0762 1.542 1.8125 1.5061l2.5995 0.0032c0.68237 0.28689 0.94197 0.68543 0.97789 1.5102-0.08435 1.698-0.12016 1.6688-1.7449 3.309l-24.496 25.145-0.10497-29.44h2.8259c0.52075-0.05372 1.1976-0.63727 1.2874-1.2827v-3.3076c-0.017977-0.62752-0.41302-1.0937-1.1851-1.0757h-22.126c-0.80805-0.03592-1.3467 0.68134-1.2929 1.5061l-0.05248 2.4497c-0.0033 0.82478 0.59121 1.4786 1.3454 1.5503h3.4866l-0.0538 55.384c-0.0538 0.57376 0.0538 0.87855 0.48484 1.0758l4.6329-1.7e-5z" fill="url(#linearGradient3744)" fill-rule="evenodd" stroke-width=".25618"/>
<rect transform="matrix(.911 0 0 .9287 -29.746 -7.8206)" x="2" y="-30" width="92" height="92" rx="3.957" ry="3.957" clip-path="url(#clipPath4156-4-0)" fill="url(#linearGradient3784)" opacity=".777"/>
</g>
</g>
</g>
</svg>
