<?xml version="1.0" encoding="UTF-8"?>
<!-- Created with Inkscape (http://www.inkscape.org/) -->
<svg version="1.1" viewBox="0 0 96 96" xmlns="http://www.w3.org/2000/svg" xmlns:cc="http://creativecommons.org/ns#" xmlns:dc="http://purl.org/dc/elements/1.1/" xmlns:rdf="http://www.w3.org/1999/02/22-rdf-syntax-ns#" xmlns:xlink="http://www.w3.org/1999/xlink">
<defs>
<radialGradient id="radialGradient4992" cx="13.948" cy="44.893" r="43.199" gradientTransform="matrix(.97513 0 0 .049191 32.735 78.814)" gradientUnits="userSpaceOnUse" xlink:href="#linearGradient4133-5"/>
<linearGradient id="linearGradient4133-5">
<stop stop-color="#fff" offset="0"/>
<stop stop-color="#fff" stop-opacity="0" offset="1"/>
</linearGradient>
<radialGradient id="radialGradient3833-1" cx="13.948" cy="44.893" r="43.199" gradientTransform="matrix(.88833 0 0 .049191 29.382 -89.635)" gradientUnits="userSpaceOnUse" xlink:href="#linearGradient4133-5"/>
<linearGradient id="linearGradient4967" x1="2.7714" x2="50.528" y1="-28.642" y2="14.514" gradientUnits="userSpaceOnUse">
<stop stop-color="#fff" offset="0"/>
<stop stop-color="#fff" stop-opacity="0" offset="1"/>
</linearGradient>
<clipPath id="clipPath4156-4-6">
<path d="m27.046-55.695-14.214 13.321h0.06127l15.653 21.771 10.231-10.546c-0.2169-1.1522-11.311-23.67-11.732-24.546zm-17.399 16.313-14.888 14.062 21.229 17.515 10.385-10.577-16.726-21zm31.491 12.951-9.7413 9.7136 8.9448 12.458 7.7808-7.555-6.9843-14.617zm-49.84 4.3788-13.754 12.982 26.283 13.846 0.06127-0.0617-0.12253-0.0617 9.8332-10.053-22.301-16.652zm38.015 7.4008-9.8025 9.7753 11.579 9.5594 7.6276-7.4008-8.6691-11.009-0.73519-0.9251zm20.187 5.674-7.3825 7.2158 6.1878 8.5418 5.8202-6.1365-4.6256-9.6211zm-32.195 6.3215-9.5575 9.4977 13.662 7.185 7.9339-7.6784-12.039-9.0043zm23.312 2.3744-7.1068 6.9383 8.3628 6.9074 5.3608-5.674-0.06127-0.0925-0.0919 0.12335-6.4635-8.2026zm-8.7304 8.5418-7.5051 7.3392 10.354 5.4581c1.3975-1.321 5.6751-6.1229 5.8509-6.3215l-8.6997-6.4757z" fill="#fff" opacity=".6"/>
</clipPath>
<filter id="filter3174-3" color-interpolation-filters="sRGB">
<feGaussianBlur stdDeviation="1.71"/>
</filter>
<linearGradient id="linearGradient3835" x1="45.448" x2="45.448" y1="92.54" y2="7.0165" gradientTransform="matrix(1.0059 0 0 .99417 243.24 -122.23)" gradientUnits="userSpaceOnUse">
<stop offset="0"/>
<stop stop-opacity=".58824" offset="1"/>
</linearGradient>
<linearGradient id="linearGradient3829" x1="1.5" x2="94.5" y1="88.172" y2="88.172" gradientTransform="translate(-3e-6,-32)" gradientUnits="userSpaceOnUse">
<stop offset="0"/>
<stop stop-opacity=".58824" offset=".1"/>
<stop stop-opacity=".58824" offset=".9"/>
<stop offset="1"/>
</linearGradient>
<radialGradient id="radialGradient3827" cx="48" cy="-27" r="42" gradientTransform="matrix(-1.187 0 0 -.96877 104.98 -56.657)" gradientUnits="userSpaceOnUse">
<stop stop-color="#fff" offset="0"/>
<stop stop-color="#fff" offset=".8"/>
<stop stop-color="#fff" stop-opacity="0" offset="1"/>
</radialGradient>
<linearGradient id="linearGradient3825" x1="6" x2="90" y1="47" y2="47" gradientTransform="matrix(1.1071 0 0 1.1071 -5.1429 -36.036)" gradientUnits="userSpaceOnUse">
<stop stop-color="#adb4c1" offset="0"/>
<stop stop-color="#fff" offset=".25"/>
<stop stop-color="#9095aa" offset=".5"/>
<stop stop-color="#fbf9f9" offset=".75"/>
<stop stop-color="#adb3c1" offset="1"/>
</linearGradient>
</defs>
<metadata>
<rdf:RDF>
<cc:Work rdf:about="">
<dc:format>image/svg+xml</dc:format>
<dc:type rdf:resource="http://purl.org/dc/dcmitype/StillImage"/>
<dc:title/>
</cc:Work>
</rdf:RDF>
</metadata>
<g transform="translate(0,32)">
<path d="m89.143-32h-82.286c-3.7988 0-6.8571 3.0583-6.8571 6.8571v82.286c0 3.7989 3.0583 6.8571 6.8571 6.8571h82.286c3.7989 0 6.8571-3.0583 6.8571-6.8571v-82.286c0-3.7989-3.0583-6.8571-6.8571-6.8571z" opacity=".15"/>
<path d="m88.5-31.25h-81c-3.7395 0-6.75 3.0105-6.75 6.75v81c0 3.7395 3.0105 6.75 6.75 6.75h81c3.7395 0 6.75-3.0105 6.75-6.75v-81c0-3.7395-3.0105-6.75-6.75-6.75z" opacity=".15"/>
<path d="m87.857-30.5h-79.714c-3.6801 0-6.6429 2.9627-6.6429 6.6429v79.714c0 3.6801 2.9627 6.6429 6.6429 6.6429h79.714c3.6801 0 6.6429-2.9627 6.6429-6.6429v-79.714c0-3.6801-2.9627-6.6429-6.6429-6.6429z" fill="url(#linearGradient3825)"/>
<path d="m8.1429-30.5c-3.6801 0-6.6429 2.9627-6.6429 6.6429v16.607h1.1071v-16.607c0-3.0859 2.4498-5.5357 5.5357-5.5357h79.714c3.0859 0 5.5357 2.4498 5.5357 5.5357v16.607h1.1071v-16.607c0-3.6801-2.9627-6.6429-6.6429-6.6429z" fill="url(#radialGradient3827)" opacity=".45"/>
<path d="m1.5 49.844v6c0 3.6801 2.9761 6.6562 6.6562 6.6562h79.688c3.6801 0 6.6563-2.9761 6.6563-6.6562v-6c0 3.6801-2.9761 6.6562-6.6563 6.6562h-79.688c-3.6801 0-6.6562-2.9761-6.6562-6.6562z" fill="url(#linearGradient3829)" opacity=".89091"/>
<rect x="248.24" y="-115.23" width="86" height="85" rx="6" ry="6" fill="url(#linearGradient3835)" filter="url(#filter3174-3)" opacity=".9"/>
</g>
<g>
<rect x="5.5768" y="7.2399" width="84.846" height="77.52" ry="4.25" fill="#ab3636"/>
<path d="m9.6041 5.715c-3.1166 0-5.668 2.5395-5.668 5.646v69.278c0 3.1065 2.5513 5.646 5.668 5.646h76.792c3.1166 0 5.668-2.5395 5.668-5.646v-69.278c0-3.1065-2.5514-5.646-5.668-5.646h-76.792zm0 2.3194h76.792c1.8881 0 3.352 1.4801 3.352 3.3266v69.278c0 1.8465-1.4639 3.3266-3.352 3.3266h-76.792c-1.8881 0-3.352-1.4801-3.352-3.3266v-69.278c0-1.8465 1.4639-3.3266 3.352-3.3266z" color="#000000" fill="#333" style="block-progression:tb;text-indent:0;text-transform:none"/>
</g>
<g transform="matrix(1.3305 0 0 1.3305 2.0595 -40.475)">
<path d="m49.562 43.688c-2.3552 0.0077-4.8588 0.15625-7.0312 0.15625-4.8484 0-9.6048-0.15488-13.812 0.15625-6.5008 0.48067-11.324 3.3198-14.656 6.9062-3.4038 3.6638-6.0625 8.8541-6.0625 15.219 0 6.6347 2.5818 11.595 6.0625 15.219 3.3113 3.4468 8.2136 6.4929 14.375 6.9062 11.364 0.76161 18.916-5.6205 22.25-13.688 2.1651-5.2386 4.7994-11.52 7.0625-17.031 0.68383-1.6651 2.0242-3.7857 2.25-5.7812 0.44974-3.9772-1.6839-6.2533-4.375-7.3125-1.5107-0.5946-3.7073-0.75773-6.0625-0.75zm-19.125 4.4062c5.4263 0.01811 9.3401 2.1854 12.094 4.6562 3.4556 3.1007 6.6594 9.4159 5.5 16.344-0.94662 5.6556-4.1365 10.127-9.3125 12.938-5.6324 3.0589-12.702 2.6185-17.75-0.40625-4.8717-2.919-9.47-8.5708-8.75-17.469 0.38281-4.7312 2.4585-8.0267 5.0938-10.719 2.4554-2.5085 5.8851-4.7054 10.688-5.2188 0.83796-0.08961 1.6623-0.12759 2.4375-0.125zm-6.2188 4.7812v3.8125h3.2188c0.31098 1.098 0.88139 1.9282 1.125 3.0938-2.7799 4.7447-5.951 9.9067-8.7188 14.5-0.35812 0.5943-0.88792 1.331-0.84375 2h4.7812c2.4395-3.4785 4.5232-7.3088 7.0312-10.719 1.3931 3.9612 3.0598 7.6482 4.375 11.688 2.6673-0.66702 5.3782-1.3183 7.625-2.4062-0.63371-1.0573-0.73209-2.6397-1.4062-3.6562-1.0631 0.43977-2.1878 0.84064-3.4062 1.125-2.2774-6.6464-5.035-12.791-7.3125-19.438z" fill="#fc0"/>
<path d="m58.719 46.656c0.98195 1.2395 1.5291 2.9023 1.2812 5.0938-0.22576 1.9956-1.5662 4.1161-2.25 5.7812-2.2631 5.5114-4.8974 11.793-7.0625 17.031-3.3344 8.067-10.886 14.449-22.25 13.688-5.3913-0.36164-9.8216-2.7272-13.062-5.625 3.3047 3.3241 8.0774 6.2235 14.062 6.625 11.364 0.76161 18.916-5.6205 22.25-13.688 2.1651-5.2386 4.7994-11.52 7.0625-17.031 0.68383-1.6651 2.0242-3.7857 2.25-5.7812 0.32209-2.8483-0.6975-4.8125-2.2812-6.0938zm-28.281 1.4375c-0.77519-0.0026-1.5995 0.03539-2.4375 0.125-4.8024 0.51339-8.2321 2.7102-10.688 5.2188-2.6352 2.692-4.7109 5.9876-5.0938 10.719-0.54952 6.7913 2.0026 11.669 5.4062 14.906-2.8931-3.2155-4.9012-7.7889-4.4062-13.906 0.38281-4.7312 2.4585-8.0267 5.0938-10.719 2.4554-2.5085 5.8851-4.7054 10.688-5.2188 0.83796-0.08961 1.6623-0.12759 2.4375-0.125 5.4263 0.01811 9.3401 2.1854 12.094 4.6562-0.32579-0.35769-0.66578-0.7001-1-1-2.7536-2.4708-6.6674-4.6381-12.094-4.6562zm0.625 5.7812c2.2053 6.26 4.7766 12.131 6.9375 18.438 0.19542-0.04561 0.37178-0.10497 0.5625-0.15625-2.1929-6.2004-4.7323-12.029-6.875-18.281zm-5.8438 2.8125v1h2.5938c-0.13493-0.31931-0.27448-0.64509-0.375-1zm5.5938 8.875c-2.5081 3.4099-4.5917 7.2403-7.0312 10.719h-3.5c-0.16485 0.33393-0.30278 0.67393-0.28125 1h4.7812c2.302-3.2824 4.3012-6.8649 6.625-10.125-0.19748-0.5288-0.40478-1.0564-0.59375-1.5938zm11.594 6.625c-0.16034 0.06633-0.33675 0.12321-0.5 0.1875 0.27305 0.84427 0.48637 1.7682 0.90625 2.4688-2.0795 1.0069-4.5591 1.6325-7.0312 2.25 0.13432 0.38767 0.27804 0.76246 0.40625 1.1562 2.6673-0.66702 5.3782-1.3183 7.625-2.4062-0.63371-1.0573-0.73209-2.6397-1.4062-3.6562z" fill="#211b1b" fill-opacity=".99658"/>
<path d="m49.562 43.688c-2.3552 0.0077-4.8588 0.15625-7.0312 0.15625-4.8484 0-9.6048-0.15488-13.812 0.15625-6.5008 0.48067-11.324 3.3198-14.656 6.9062-3.4038 3.6638-6.0625 8.8541-6.0625 15.219 0 6.6347 2.5818 11.595 6.0625 15.219 0.2743 0.28552 0.57905 0.56499 0.875 0.84375-3.4115-3.6105-5.9375-8.5149-5.9375-15.062 0-6.3646 2.6587-11.555 6.0625-15.219 3.3321-3.5865 8.1554-6.4256 14.656-6.9062 4.2077-0.31113 8.9641-0.15625 13.812-0.15625 2.1725 0 4.6761-0.14855 7.0312-0.15625s4.5518 0.1554 6.0625 0.75c0.76384 0.30064 1.4661 0.71096 2.0938 1.2188-0.80014-1.01-1.8855-1.7432-3.0938-2.2188-1.5107-0.5946-3.7073-0.75773-6.0625-0.75zm-25.344 9.1875v3.8125h1v-2.8125h5.8438c-0.11888-0.33747-0.2585-0.66005-0.375-1zm19.312 0.875c3.0426 3.3405 5.5473 9.086 4.5 15.344-0.94662 5.6556-4.1365 10.127-9.3125 12.938-5.6324 3.0589-12.702 2.6185-17.75-0.40625-1.0949-0.65604-2.1775-1.4683-3.1875-2.4062 1.2783 1.386 2.7225 2.5285 4.1875 3.4062 5.0483 3.0247 12.118 3.4652 17.75 0.40625 5.176-2.8107 8.3659-7.2819 9.3125-12.938 1.1594-6.9278-2.0444-13.243-5.5-16.344zm-15.719 3.9375c0.28252 0.66858 0.58513 1.3049 0.75 2.0938-2.7799 4.7447-5.951 9.9067-8.7188 14.5-0.35812 0.5943-0.88792 1.331-0.84375 2h1.2812c0.17336-0.35116 0.37893-0.69538 0.5625-1 2.7677-4.5933 5.9388-9.7553 8.7188-14.5-0.24361-1.1655-0.81402-1.9957-1.125-3.0938zm4 8.875c-0.14141 0.19226-0.2674 0.39896-0.40625 0.59375 1.2583 3.3696 2.6445 6.6024 3.7812 10.094 0.19858-0.04966 0.3949-0.10658 0.59375-0.15625-1.2435-3.5889-2.7115-6.9562-3.9688-10.531zm9.5938 4.625c-0.89258 0.36924-1.8452 0.70029-2.8438 0.96875 0.138 0.39021 0.30266 0.76274 0.4375 1.1562 1.0347-0.24147 1.9871-0.57552 2.9062-0.9375-0.13905-0.42994-0.27253-0.84451-0.5-1.1875z" fill="#594c00" fill-opacity=".3862"/>
</g>
<g opacity=".424">
<g transform="matrix(1.0076 0 0 1.0143 -1.0512 .60534)" style="">
<rect transform="matrix(.9093 0 0 .92838 5.0676 34.52)" x="2" y="-30" width="90.125" height="75.961" rx="3.957" ry="3.957" clip-path="url(#clipPath4156-4-6)" fill="url(#linearGradient4967)"/>
</g>
<rect x="4.211" y="78.898" width="84.25" height="4.25" rx="0" ry="4.25" fill="url(#radialGradient4992)" opacity=".55"/>
<rect transform="rotate(90)" x="3.3977" y="-89.552" width="76.75" height="4.25" rx="0" ry="4.25" fill="url(#radialGradient3833-1)" opacity=".55"/>
</g>
</svg>
