<?xml version="1.0" encoding="UTF-8"?>
<!-- Created with Inkscape (http://www.inkscape.org/) -->
<svg version="1.1" viewBox="0 0 96 96" xmlns="http://www.w3.org/2000/svg" xmlns:cc="http://creativecommons.org/ns#" xmlns:dc="http://purl.org/dc/elements/1.1/" xmlns:rdf="http://www.w3.org/1999/02/22-rdf-syntax-ns#" xmlns:xlink="http://www.w3.org/1999/xlink">
<script xlink:href=""/>
<defs>
<linearGradient id="linearGradient4370-2">
<stop stop-color="#2a7fff" offset="0"/>
<stop stop-color="#003380" offset="1"/>
</linearGradient>
<linearGradient id="linearGradient3266-4">
<stop stop-color="#fff" offset="0"/>
<stop stop-opacity="0" offset="1"/>
</linearGradient>
<linearGradient id="linearGradient3888-8-4-8-4-6-9-0-8-7-9">
<stop stop-color="#fff" offset="0"/>
<stop stop-color="#fff" stop-opacity="0" offset="1"/>
</linearGradient>
<linearGradient id="linearGradient4071" x1="6" x2="90" y1="47" y2="47" gradientTransform="matrix(1.106 0 0 1.1071 -5.1375 -36.036)" gradientUnits="userSpaceOnUse">
<stop stop-color="#b2babc" offset="0"/>
<stop stop-color="#fff" offset=".25"/>
<stop stop-color="#96a1a4" offset=".5"/>
<stop stop-color="#fbf9f9" offset=".75"/>
<stop stop-color="#b2b9bc" offset="1"/>
</linearGradient>
<linearGradient id="linearGradient4129" x1="1.5" x2="94.5" y1="88.172" y2="88.172" gradientTransform="matrix(.99896 0 0 1 -2.96e-6 -32)" gradientUnits="userSpaceOnUse">
<stop offset="0"/>
<stop stop-opacity=".58824" offset=".1"/>
<stop stop-opacity=".58824" offset=".9"/>
<stop offset="1"/>
</linearGradient>
<radialGradient id="radialGradient7462" cx="13.948" cy="44.893" r="43.199" gradientTransform="matrix(.97412 0 0 .049191 33.863 48.167)" gradientUnits="userSpaceOnUse" xlink:href="#linearGradient3888-8-4-8-4-6-9-0-8-7-9"/>
<radialGradient id="radialGradient7464" cx="13.948" cy="44.893" r="43.199" gradientTransform="matrix(.88833 0 0 .049139 -.45548 -90.074)" gradientUnits="userSpaceOnUse" xlink:href="#linearGradient3888-8-4-8-4-6-9-0-8-7-9"/>
<linearGradient id="linearGradient4767" x1="2.7714" x2="50.528" y1="-28.642" y2="14.514" gradientTransform="matrix(1.0042 0 0 1.0052 -.21821 -.047555)" gradientUnits="userSpaceOnUse" xlink:href="#linearGradient3888-8-4-8-4-6-9-0-8-7-9"/>
<clipPath id="clipPath4156-4-1">
<path d="m27.046-55.695-14.214 13.321h0.06127l15.653 21.771 10.231-10.546c-0.2169-1.1522-11.311-23.67-11.732-24.546zm-17.399 16.313-14.888 14.062 21.229 17.515 10.385-10.577zm31.491 12.951-9.7413 9.7136 8.9448 12.458 7.7808-7.555zm-49.84 4.3788-13.754 12.982 26.283 13.846 0.06127-0.0617-0.12253-0.0617 9.8332-10.053-22.301-16.652zm38.015 7.4008-9.8025 9.7753 11.579 9.5594 7.6276-7.4008-8.6691-11.009zm20.187 5.674-7.3825 7.2158 6.1878 8.5418 5.8202-6.1365zm-32.195 6.3215-9.5575 9.4977 13.662 7.185 7.9339-7.6784zm23.312 2.3744-7.1068 6.9383 8.3628 6.9074 5.3608-5.674-0.06127-0.0925-0.0919 0.12335-6.4635-8.2026zm-8.7304 8.5418-7.5051 7.3392 10.354 5.4581c1.3975-1.321 5.6751-6.1229 5.8509-6.3215z" fill="#fff" opacity=".6"/>
</clipPath>
<filter id="filter1376" x="-.036026" y="-.036027" width="1.0721" height="1.0721" color-interpolation-filters="sRGB">
<feGaussianBlur stdDeviation="0.96262163"/>
</filter>
<linearGradient id="linearGradient1346" x1="-206.88" x2="-183.5" y1="114.07" y2="114.07" gradientTransform="matrix(.99541 0 0 1 23.393 -119.97)" gradientUnits="userSpaceOnUse" xlink:href="#linearGradient1330"/>
<linearGradient id="linearGradient1330">
<stop stop-color="#00e7ff" offset="0"/>
<stop stop-color="#f2f342" stop-opacity=".99608" offset=".27375"/>
<stop stop-color="#8ccaf0" stop-opacity=".99608" offset=".72702"/>
<stop stop-color="#f032f7" stop-opacity=".99559" offset="1"/>
</linearGradient>
<filter id="filter1380" x="-.036027" y="-.036026" width="1.0721" height="1.0721" color-interpolation-filters="sRGB">
<feGaussianBlur stdDeviation="0.96262163"/>
</filter>
<radialGradient id="radialGradient1338" cx="-195.19" cy="82.069" r="35.571" gradientTransform="matrix(.98768 -.0043007 .002937 .68073 21.643 -62.607)" gradientUnits="userSpaceOnUse" xlink:href="#linearGradient1330"/>
<linearGradient id="linearGradient4800" x1="25.22" x2="94.568" y1="61.922" y2="61.922" gradientTransform="matrix(0 .16627 -.20328 0 -158.2 -16.118)" gradientUnits="userSpaceOnUse">
<stop stop-color="#4d4d4d" offset="0"/>
<stop stop-color="#fff" offset="1"/>
</linearGradient>
<radialGradient id="radialGradient4802" cx="59.894" cy="61.922" r="33.714" gradientTransform="matrix(0 .28718 -.29408 0 -152.58 -23.36)" gradientUnits="userSpaceOnUse">
<stop stop-opacity="0" offset="0"/>
<stop stop-opacity="0" offset=".85"/>
<stop offset="1"/>
</radialGradient>
<linearGradient id="linearGradient4804" x1="26.18" x2="93.608" y1="61.922" y2="61.922" gradientTransform="matrix(0 .28718 -.35112 0 -149.04 -23.36)" gradientUnits="userSpaceOnUse">
<stop stop-color="#fff" stop-opacity=".20312" offset="0"/>
<stop stop-color="#fff" stop-opacity=".67969" offset="1"/>
</linearGradient>
<clipPath id="clipPath4031-6">
<path d="m48 32c-19.882 0-36 16.118-36 36s16.118 36 36 36 36-16.118 36-36-16.118-36-36-36zm0 24c6.6274 0 12 5.3726 12 12s-5.3726 12-12 12-12-5.3726-12-12 5.3726-12 12-12z" fill="#bbb1bf"/>
</clipPath>
<filter id="filter4035-8" x="-.19037" y="-.1707" width="1.3807" height="1.3414" color-interpolation-filters="sRGB">
<feGaussianBlur stdDeviation="4.9476562"/>
</filter>
<filter id="filter4195-9" x="-.18" y="-.18" width="1.36" height="1.36" color-interpolation-filters="sRGB">
<feGaussianBlur stdDeviation="5.2159999"/>
</filter>
<filter id="filter3832-0-0" color-interpolation-filters="sRGB">
<feGaussianBlur stdDeviation="0.7690217"/>
</filter>
<radialGradient id="radialGradient4806" cx="39.649" cy="154.59" r="27.097" gradientTransform="matrix(.35062 .13171 -.23185 .64943 -163.69 -95.701)" gradientUnits="userSpaceOnUse" xlink:href="#linearGradient4370-2"/>
<radialGradient id="radialGradient4808" cx="40.847" cy="75.264" r="14.672" gradientTransform="matrix(.43476 .065607 -.0449 .31308 -206.61 -7.399)" gradientUnits="userSpaceOnUse" xlink:href="#linearGradient3266-4"/>
<radialGradient id="radialGradient4810" cx="39.649" cy="154.59" r="27.097" gradientTransform="matrix(.41985 .15606 -.27472 .77766 -164.21 -142.12)" gradientUnits="userSpaceOnUse" xlink:href="#linearGradient4370-2"/>
<radialGradient id="radialGradient4812" cx="40.847" cy="75.264" r="14.672" gradientTransform="matrix(.52022 .076657 -.052463 .37462 -215.19 -36.335)" gradientUnits="userSpaceOnUse" xlink:href="#linearGradient3266-4"/>
<linearGradient id="linearGradient1662" x1="67.972" x2="38.068" y1="40.353" y2="-22.908" gradientUnits="userSpaceOnUse">
<stop stop-color="#ff9800" offset="0"/>
<stop stop-color="#ff4600" offset="1"/>
</linearGradient>
</defs>
<metadata>
<rdf:RDF>
<cc:Work rdf:about="">
<dc:format>image/svg+xml</dc:format>
<dc:type rdf:resource="http://purl.org/dc/dcmitype/StillImage"/>
<dc:title/>
</cc:Work>
</rdf:RDF>
</metadata>
<g transform="translate(0,32)">
<path d="m88.929-31.75h-81.857c-3.7791 0-6.8214 3.0424-6.8214 6.8214v81.857c0 3.7791 3.0424 6.8214 6.8214 6.8214h81.857c3.7791 0 6.8214-3.0424 6.8214-6.8214v-81.857c0-3.7791-3.0424-6.8214-6.8214-6.8214z" opacity=".15"/>
<path d="m88.289-31.004h-80.578c-3.72 0-6.7148 2.9948-6.7148 6.7148v80.578c0 3.72 2.9948 6.7148 6.7148 6.7148h80.578c3.72 0 6.7148-2.9948 6.7148-6.7148v-80.578c0-3.72-2.9948-6.7148-6.7148-6.7148z" opacity=".15"/>
<path d="m87.65-30.258h-79.299c-3.661 0-6.6083 2.9473-6.6083 6.6083v79.299c0 3.661 2.9473 6.6083 6.6083 6.6083h79.299c3.661 0 6.6083-2.9473 6.6083-6.6083v-79.299c0-3.661-2.9473-6.6083-6.6083-6.6083z" fill="url(#linearGradient4071)"/>
<rect x="5.9408" y="-25.481" width="84.558" height="77.021" rx="2.3669" ry="2.998" fill="#f5f5f7"/>
<rect x="5.9408" y="-25.481" width="84.558" height="77.021" rx="2.3669" ry="2.998" fill="url(#linearGradient1662)" opacity=".161"/>
<path d="m10.024-27.045c-3.1004 0-5.6384 2.5263-5.6384 5.6166v68.917c0 3.0903 2.5381 5.6166 5.6384 5.6166h76.392c3.1004 0 5.6384-2.5263 5.6384-5.6166v-68.917c0-3.0903-2.5381-5.6166-5.6384-5.6166zm0 2.3074h76.392c1.8783 0 3.3346 1.4724 3.3346 3.3092v68.917c0 1.8369-1.4563 3.3092-3.3346 3.3092h-76.392c-1.8783 0-3.3346-1.4724-3.3346-3.3092v-68.917c0-1.8369 1.4563-3.3092 3.3346-3.3092z" color="#000000" fill="#202223" fill-opacity=".93689" style="text-decoration-line:none;text-indent:0;text-transform:none"/>
<path d="m1.7422 49.667v5.9688c0 3.661 2.9606 6.6216 6.6216 6.6216h79.272c3.661 0 6.6216-2.9606 6.6216-6.6216v-5.9688c0 3.661-2.9606 6.6216-6.6216 6.6216h-79.272c-3.661 0-6.6216-2.9606-6.6216-6.6216z" fill="url(#linearGradient4129)" opacity=".65818"/>
<rect x="5.597" y="48.082" width="83.811" height="4.2279" rx="4.25" ry="4.25" fill="url(#radialGradient7462)" opacity=".55"/>
<rect transform="rotate(90)" x="-26.219" y="-89.866" width="76.35" height="4.2279" rx="4.2456" ry="4.2456" fill="url(#radialGradient7464)" opacity=".669"/>
<g transform="translate(219.66 18.199)">
<path d="m-170.79-26.373c-12.012 0-21.783 9.6004-21.783 21.403 0 11.803 9.7707 21.403 21.783 21.403s21.783-9.6004 21.783-21.403c0-11.803-9.7707-21.403-21.783-21.403zm0 11.891c5.3688 0 9.6812 4.2372 9.6812 9.5125 0 5.2752-4.3124 9.5125-9.6812 9.5125s-9.6812-4.2372-9.6812-9.5125c0-5.2752 4.3124-9.5125 9.6812-9.5125z" color="#000000" opacity=".05"/>
<path d="m-170.79-23.995c-10.694 0-19.362 8.5178-19.362 19.025 0 10.507 8.6688 19.025 19.362 19.025 10.694 0 19.362-8.5178 19.362-19.025 0-10.507-8.6689-19.025-19.362-19.025zm0 7.1344c6.6835 0 12.102 5.3236 12.102 11.891 0 6.567-5.418 11.891-12.102 11.891-6.6835 0-12.102-5.3236-12.102-11.891 0-6.567 5.418-11.891 12.102-11.891z" color="#000000" opacity=".3"/>
<path d="m-170.79-25.221c-11.372 0-20.61 9.0769-20.61 20.251 0 11.174 9.238 20.251 20.61 20.251 11.372 0 20.61-9.0769 20.61-20.251 0-11.174-9.238-20.251-20.61-20.251zm0 9.5868c6.0046 0 10.854 4.7644 10.854 10.664 0 5.9-4.8489 10.664-10.854 10.664-6.0046 0-10.854-4.7644-10.854-10.664 0-5.9 4.8489-10.664 10.854-10.664z" color="#000000" opacity=".1"/>
<path d="m-170.79-41.731c-19.994 0-36.202 15.926-36.202 35.571 0 19.646 16.208 35.571 36.202 35.571 19.994 0 36.202-15.926 36.202-35.571 0-19.645-16.208-35.571-36.202-35.571zm0 23.714c6.6647 0 12.067 5.3086 12.067 11.857 0 6.5485-5.4028 11.857-12.067 11.857-6.6646 0-12.067-5.3086-12.067-11.857 0-6.5485 5.4028-11.857 12.067-11.857z" fill="#bbb1bf"/>
<path transform="matrix(.99541 0 0 1 -.61754 0)" d="m-145.83-30.974c-2.9227-2.9227-6.2109-5.2445-9.7075-6.9841l-10.793 21.198c1.3504 0.59801 2.6221 1.4427 3.733 2.5536 1.0693 1.0693 1.889 2.2886 2.4832 3.5825l21.163-10.855c-1.7278-3.4168-4.016-6.6317-6.8791-9.4948zm-36.033 29.924-21.216 10.753c1.7353 3.467 4.0434 6.7282 6.944 9.6288 2.8412 2.8412 6.03 5.1145 9.4175 6.8377l10.814-21.18c-1.2488-0.58999-2.4262-1.3904-3.4623-2.4265-1.0777-1.0777-1.9019-2.3077-2.497-3.6129z" fill="#fff" filter="url(#filter1376)" opacity=".255" style="paint-order:stroke fill markers"/>
<path d="m-170.79-41.472c-4.1144 0-8.063 0.68335-11.749 1.9258l7.3236 22.621c1.3714-0.53203 2.861-0.83398 4.4249-0.83398 1.5053 0 2.9405 0.28257 4.2694 0.77734l7.2556-22.641c-3.6211-1.1944-7.4945-1.8496-11.525-1.8496zm-4.3005 46.639-7.3645 22.605c3.6617 1.2245 7.5816 1.8984 11.665 1.8984 3.9996 0 7.8442-0.64736 11.441-1.8242l-7.2964-22.623c-1.2943 0.46586-2.6864 0.73242-4.1449 0.73242-1.5171 0-2.963-0.28691-4.3005-0.78906z" fill="url(#linearGradient1346)" opacity=".40303" style="paint-order:stroke fill markers"/>
<path transform="matrix(.99541 0 0 1 -.61754 0)" d="m-196.14-31.133c-2.9227 2.9227-5.2445 6.2109-6.9841 9.7075l21.198 10.793c0.59801-1.3504 1.4427-2.6221 2.5536-3.733 1.0693-1.0693 2.2886-1.889 3.5825-2.4832l-10.855-21.163c-3.4168 1.7278-6.6317 4.016-9.4948 6.8791zm29.924 36.033 10.753 21.216c3.467-1.7353 6.7282-4.0434 9.6288-6.944 2.8412-2.8412 5.1145-6.03 6.8377-9.4175l-21.18-10.814c-0.58999 1.2488-1.3904 2.4262-2.4265 3.4623-1.0777 1.0777-2.3077 1.9019-3.6129 2.497z" fill="#fff" filter="url(#filter1380)" opacity=".255" style="paint-order:stroke fill markers"/>
<path d="m-170.79-18.016c-6.6646 0-12.067 5.3086-12.067 11.857 0 6.5485 5.4028 11.857 12.067 11.857 6.6647 0 12.067-5.3086 12.067-11.857 0-6.5485-5.4028-11.857-12.067-11.857zm0 6.9166c2.7769 0 5.0281 2.2119 5.0281 4.9405 0 2.7285-2.2512 4.9405-5.0281 4.9405s-5.0281-2.2119-5.0281-4.9405c0-2.7285 2.2512-4.9405 5.0281-4.9405z" fill="#fff" opacity=".3"/>
<path d="m-206.31-6.013c0 4.1334 0.68023 8.1002 1.9169 11.803l22.517-7.3574c-0.52958-1.3777-0.83015-2.8742-0.83015-4.4453 0-1.5123 0.28128-2.9541 0.77377-4.2891l-22.537-7.2891c-1.1889 3.6378-1.8411 7.529-1.8411 11.578zm46.425 4.3203 22.502 7.3984c1.2189-3.6786 1.8897-7.6166 1.8897-11.719 0-4.018-0.64438-7.8804-1.8158-11.494l-22.519 7.3301c0.46372 1.3002 0.72905 2.6988 0.72905 4.1641 0 1.5241-0.28559 2.9767-0.78543 4.3203z" fill="url(#radialGradient1338)" opacity=".40303" style="paint-order:stroke fill markers"/>
<path d="m-170.79-0.72473a5.5309 5.4345 0 1 1 0-10.869 5.5309 5.4345 0 1 1 0 10.869z" fill="none" opacity=".6" stroke="url(#linearGradient4800)" stroke-linecap="round" stroke-width="1.1996"/>
<path d="m-170.79 3.2276a9.5534 9.3868 0 1 1 0-18.774 9.5534 9.3868 0 1 1 0 18.774z" fill="url(#radialGradient4802)" fill-rule="evenodd" opacity=".5" stroke="url(#linearGradient4804)" stroke-linecap="round" stroke-width="1.1996"/>
<path transform="matrix(1.0056 0 0 .98809 -219.06 -73.35)" d="m57.312 33.219-9.3125 34.781 31.188-18c-4.7739-8.2686-12.653-14.31-21.875-16.781zm-9.3125 34.781-31.188 18c4.7739 8.2686 12.653 14.31 21.875 16.781z" clip-path="url(#clipPath4031-6)" fill="#fff" filter="url(#filter4035-8)" opacity=".8"/>
<path transform="matrix(1.514 .85887 -.96211 1.6374 -191.34 -121.27)" d="m60.947 57.784a20.708 18.814 0 0 1-2.6155 2.9059l-14.643-13.304z" fill="#7137c8" filter="url(#filter4195-9)"/>
<path d="m-170.79-20.487c-8.0531 0-14.581 6.4146-14.581 14.327 0 7.9128 6.5283 14.327 14.581 14.327 8.0531 0 14.581-6.4146 14.581-14.327 0-7.9128-6.5284-14.327-14.581-14.327zm0 2.4702c6.6647 0 12.067 5.3086 12.067 11.857 0 6.5485-5.4028 11.857-12.067 11.857-6.6646 0-12.067-5.3086-12.067-11.857 0-6.5485 5.4028-11.857 12.067-11.857z" opacity=".2"/>
<path d="m-207.09-5.5647c-4e-3 0.20016 0 0.39358 0 0.59453 0 19.701 16.254 35.672 36.305 35.672s36.305-15.971 36.305-35.672c0-0.20095 4e-3 -0.39437 0-0.59453-0.32692 19.423-16.459 35.077-36.305 35.077-19.846 0-35.978-15.654-36.305-35.077z" color="#000000" fill="#fff" opacity=".6"/>
<path d="m-170.79-41.831c-20.05 0-36.305 15.971-36.305 35.672 0 19.701 16.254 35.672 36.305 35.672s36.305-15.971 36.305-35.672c0-19.701-16.254-35.672-36.305-35.672zm0 3.5672c18.045 0 32.674 14.374 32.674 32.105 0 17.731-14.629 32.105-32.674 32.105s-32.674-14.374-32.674-32.105c0-17.731 14.629-32.105 32.674-32.105z" color="#000000" opacity=".05"/>
<path d="m-170.79-41.831c-20.05 0-36.305 15.971-36.305 35.672 0 19.701 16.254 35.672 36.305 35.672s36.305-15.971 36.305-35.672c0-19.701-16.254-35.672-36.305-35.672zm0 2.4153c18.72 0 33.846 14.863 33.846 33.257 0 18.394-15.126 33.257-33.846 33.257s-33.846-14.863-33.846-33.257c0-18.394 15.126-33.257 33.846-33.257z" color="#000000" opacity=".1"/>
<path d="m-170.79-41.831c-20.05 0-36.305 15.971-36.305 35.672 0 19.701 16.254 35.672 36.305 35.672s36.305-15.971 36.305-35.672c0-19.701-16.254-35.672-36.305-35.672zm0 1.1891c19.382 0 35.094 15.438 35.094 34.483 0 19.044-15.712 34.483-35.094 34.483-19.382 0-35.094-15.438-35.094-34.483 0-19.044 15.712-34.483 35.094-34.483z" color="#000000" opacity=".15"/>
<path d="m-170.79-41.831c-20.05 0-36.305 15.971-36.305 35.672 0 0.20095-4e-3 0.39437 0 0.59453 0.32691-19.423 16.459-35.077 36.305-35.077 19.846 0 35.978 15.654 36.305 35.077 4e-3 -0.20016 0-0.39358 0-0.59453 0-19.701-16.254-35.672-36.305-35.672z" color="#000000" opacity=".2"/>
<path transform="matrix(.51986 .19528 -.19038 .53327 -191.66 -23.192)" d="m34.156 19v47.625c-2.9551-1.1572-6.8274-1.328-10.812-0.25-7.4477 2.0147-12.437 7.6498-11.125 12.594 1.3121 4.944 8.3961 7.3272 15.844 5.3125 6.3275-1.7117 9.3928-6.0469 9.8125-10.344h0.03125v-43.75c3.7268 2.6581 12.764 12.968 8.4375 25.125 2.3963-6.2373 2.6146-12.927 1.7188-16.531-1.0841-4.3617-4.7454-8.857-8.5312-12.906-3.977-4.2538-5.375-6.875-5.375-6.875zm11.75 37.406c-0.40183 0.93359-0.8668 1.8588-1.375 2.75 0.53876-0.92199 0.99568-1.8438 1.375-2.75z" filter="url(#filter3832-0-0)" opacity=".5"/>
<path d="m-177.34-6.9253-9.0682 25.401c-1.3159-1.1942-3.2882-2.0465-5.5651-2.2498-4.2553-0.38002-7.9288 1.6504-8.1879 4.5431-0.25909 2.8927 2.9748 5.5515 7.2301 5.9315 3.6153 0.32287 6.0259-1.3951 7.062-3.6045l0.0249 0.0094 8.3286-23.329c1.5794 2.3672 4.7356 10.971-2.066 16.74 3.4709-3.0081 5.4434-7.6359 5.7102-10.173 0.26677-2.5376-0.7835-5.6441-1.9807-8.5427-1.2577-3.0451-1.4879-4.7254-1.4879-4.7254z" fill="url(#radialGradient4806)"/>
<path d="m-185.59 21.768a6.5475 4.245 7.2835 1 1-12.996-1.6033 6.5475 4.245 7.2835 1 1 12.996 1.6033z" fill="url(#radialGradient4808)"/>
<path transform="matrix(.62251 .23139 -.22558 .63856 -197.37 -55.286)" d="m34.156 19v47.625c-2.9551-1.1572-6.8274-1.328-10.812-0.25-7.4477 2.0147-12.437 7.6498-11.125 12.594 1.3121 4.944 8.3961 7.3272 15.844 5.3125 6.3275-1.7117 9.3928-6.0469 9.8125-10.344h0.03125v-43.75c3.7268 2.6581 12.764 12.968 8.4375 25.125 2.3963-6.2373 2.6146-12.927 1.7188-16.531-1.0841-4.3617-4.7454-8.857-8.5312-12.906-3.977-4.2538-5.375-6.875-5.375-6.875zm11.75 37.406c-0.40183 0.93359-0.8668 1.8588-1.375 2.75 0.53876-0.92199 0.99568-1.8438 1.375-2.75z" filter="url(#filter3832-0-0)" opacity=".5"/>
<path d="m-180.17-35.89-10.745 30.417c-1.5785-1.4228-3.9406-2.4339-6.6645-2.6676-5.0907-0.43682-9.476 2.0068-9.7744 5.4674-0.29842 3.4606 3.5797 6.627 8.6704 7.0639 4.325 0.37112 7.2012-1.6935 8.4317-4.3401l0.0299 0.01108 9.8686-27.936c1.8983 2.8245 5.7069 13.101-2.4048 20.029 4.1391-3.6119 6.48-9.1548 6.7891-12.191 0.30902-3.036-0.95932-6.7468-2.4026-10.209-1.5162-3.6366-1.7982-5.6452-1.7982-5.6452z" fill="url(#radialGradient4810)"/>
<path d="m-189.94-1.5405a7.8304 5.077 7.0777 1 1-15.549-1.8635 7.8304 5.077 7.0777 1 1 15.549 1.8635z" fill="url(#radialGradient4812)"/>
</g>
<rect transform="matrix(1.0637 0 0 1.0422 4.5229 6.5286)" x="2" y="-30" width="75.966" height="69.024" rx="3.9736" ry="3.9777" clip-path="url(#clipPath4156-4-1)" fill="url(#linearGradient4767)" opacity=".573"/>
</g>
</svg>
