<?xml version="1.0" encoding="UTF-8"?>
<svg version="1.1" viewBox="0 0 48 48" xmlns="http://www.w3.org/2000/svg" xmlns:cc="http://creativecommons.org/ns#" xmlns:dc="http://purl.org/dc/elements/1.1/" xmlns:rdf="http://www.w3.org/1999/02/22-rdf-syntax-ns#" xmlns:xlink="http://www.w3.org/1999/xlink">
<metadata>
<rdf:RDF>
<cc:Work rdf:about="">
<dc:format>image/svg+xml</dc:format>
<dc:type rdf:resource="http://purl.org/dc/dcmitype/StillImage"/>
</cc:Work>
</rdf:RDF>
</metadata>
<defs>
<linearGradient id="linearGradient4071" x1="6" x2="90" y1="47" y2="47" gradientTransform="matrix(.55357 0 0 .55357 -2.5714 1072.5)" gradientUnits="userSpaceOnUse">
<stop stop-color="#b2babc" offset="0"/>
<stop stop-color="#fff" offset=".25"/>
<stop stop-color="#96a1a4" offset=".5"/>
<stop stop-color="#fbf9f9" offset=".75"/>
<stop stop-color="#b2b9bc" offset="1"/>
</linearGradient>
<linearGradient id="linearGradient4129" x1="1.5" x2="94.5" y1="88.172" y2="88.172" gradientTransform="matrix(.5 0 0 .5 -9.9149e-7 1074.5)" gradientUnits="userSpaceOnUse">
<stop offset="0"/>
<stop stop-opacity=".58824" offset=".1"/>
<stop stop-opacity=".58824" offset=".9"/>
<stop offset="1"/>
</linearGradient>
<radialGradient id="radialGradient7462" cx="13.948" cy="44.893" r="43.199" gradientTransform="matrix(.48757 0 0 .024595 16.949 1114.6)" gradientUnits="userSpaceOnUse" xlink:href="#linearGradient3737"/>
<linearGradient id="linearGradient3737">
<stop stop-color="#fff" offset="0"/>
<stop stop-color="#fff" stop-opacity="0" offset="1"/>
</linearGradient>
<radialGradient id="radialGradient7464" cx="13.948" cy="44.893" r="43.199" gradientTransform="matrix(.44416 0 0 .024595 1090.3 -45.084)" gradientUnits="userSpaceOnUse" xlink:href="#linearGradient3737"/>
<linearGradient id="linearGradient4767" x1="2.7714" x2="50.528" y1="-28.642" y2="14.514" gradientUnits="userSpaceOnUse" xlink:href="#linearGradient3737"/>
<clipPath id="clipPath4156-4-1">
<path d="m27.046-55.695-14.214 13.321h0.06127l15.653 21.771 10.231-10.546c-0.2169-1.1522-11.311-23.67-11.732-24.546zm-17.399 16.313-14.888 14.062 21.229 17.515 10.385-10.577zm31.491 12.951-9.7413 9.7136 8.9448 12.458 7.7808-7.555zm-49.84 4.3788-13.754 12.982 26.283 13.846 0.06127-0.0617-0.12253-0.0617 9.8332-10.053-22.301-16.652zm38.015 7.4008-9.8025 9.7753 11.579 9.5594 7.6276-7.4008-8.6691-11.009zm20.187 5.674-7.3825 7.2158 6.1878 8.5418 5.8202-6.1365zm-32.195 6.3215-9.5575 9.4977 13.662 7.185 7.9339-7.6784zm23.312 2.3744-7.1068 6.9383 8.3628 6.9074 5.3608-5.674-0.06127-0.0925-0.0919 0.12335-6.4635-8.2026zm-8.7304 8.5418-7.5051 7.3392 10.354 5.4581c1.3975-1.321 5.6751-6.1229 5.8509-6.3215z" fill="#fff" opacity=".6"/>
</clipPath>
</defs>
<g transform="translate(0 -1074.5)">
<path d="m44.571 1074.5h-41.143c-1.8994 0-3.4286 1.5292-3.4286 3.4286v41.143c0 1.8995 1.5291 3.4286 3.4286 3.4286h41.143c1.8994 0 3.4286-1.5291 3.4286-3.4286v-41.143c0-1.8994-1.5291-3.4286-3.4286-3.4286z" opacity=".15"/>
<path d="m44.25 1074.9h-40.5c-1.8697 0-3.375 1.5053-3.375 3.375v40.5c0 1.8698 1.5053 3.375 3.375 3.375h40.5c1.8698 0 3.375-1.5052 3.375-3.375v-40.5c0-1.8697-1.5052-3.375-3.375-3.375z" opacity=".15"/>
<path d="m43.929 1075.3h-39.857c-1.8401 0-3.3214 1.4814-3.3214 3.3214v39.857c0 1.8401 1.4814 3.3214 3.3214 3.3214h39.857c1.8401 0 3.3214-1.4813 3.3214-3.3214v-39.857c0-1.84-1.4814-3.3214-3.3214-3.3214z" fill="url(#linearGradient4071)"/>
<path d="m5.6206 1077.7c-1.4282 0-2.5621 1.1442-2.5621 2.5855v34.29c0.54862 0.8422 1.4844 1.4059 2.5621 1.4059h36.894c1.0776 0 2.0134-0.5637 2.5621-1.4059v-34.29c0-1.4413-1.1338-2.5855-2.5621-2.5855z" fill="#e8e8e8" opacity=".9"/>
<path d="m4.9125 1076.9c-1.5583 0-2.834 1.2698-2.834 2.823v34.639c0 1.5533 1.2757 2.823 2.834 2.823h38.396c1.5583 0 2.834-1.2697 2.834-2.823v-34.639c0-1.5532-1.2757-2.823-2.834-2.823zm0 1.1598h38.396c0.94405 0 1.676 0.74 1.676 1.6632v34.639c0 0.9233-0.73196 1.6633-1.676 1.6633h-38.396c-0.94405 0-1.676-0.74-1.676-1.6633v-34.639c0-0.9232 0.73196-1.6632 1.676-1.6632z" color="#000000" fill="#1f2224" fill-opacity=".63265" style="text-decoration-line:none;text-indent:0;text-transform:none"/>
<path d="m0.75 1115.4v3c0 1.8401 1.4881 3.3281 3.3281 3.3281h39.844c1.8401 0 3.3281-1.488 3.3281-3.3281v-3c0 1.8401-1.4881 3.3281-3.3281 3.3281h-39.844c-1.8401 0-3.3281-1.488-3.3281-3.3281z" fill="url(#linearGradient4129)" opacity=".65818"/>
<rect x="2.6875" y="1114.6" width="42.125" height="2.125" rx="0" ry="2.125" fill="url(#radialGradient7462)" opacity=".55"/>
<rect transform="rotate(90)" x="1077.3" y="-45.043" width="38.375" height="2.125" rx="0" ry="2.125" fill="url(#radialGradient7464)" opacity=".669"/>
<g transform="matrix(1.339 0 0 1.339 -9.5624 1066.8)">
<path d="m23.22 11c-0.333 0-0.822 0.532-1.465 1.596-0.963-0.576-2.442-1.127-3.725-1.121 0.111 0.905 0.166 1.517 0.166 1.834 0 0.385-0.011 0.679-0.033 0.883-1.121 4.03-3.414 6.269-4.158 10.289-0.068 0.367 0.301 0.611 0.434 0.814 0.399 0.611 1.074 1.042 2.027 1.291 0.444 0.113 0.666 0.17 0.666 0.17 0.288 0 0.544-0.147 0.766-0.441 0 0.702 0.278 1.053 0.832 1.053 0.222 0 0.387-0.09 0.498-0.271 1.14-1.786 2.12-3.437 4.391-4.381-0.573 2.887-3.483 4.697-3.611 8.285h-1.51c-0.277 0-0.5 0.223-0.5 0.5v0.5l-2 5h22l-2-5v-0.5c0-0.277-0.223-0.5-0.5-0.5h-1.49c0-8-1.999-16-8.891-17.25-0.335-1.038-0.679-2.092-1.896-2.75m1.529 4.244c5.04 0.235 7.553 7.089 7.617 12.12v1.256c-0.044 0.589-0.243 0.883-0.598 0.883-0.421 0-0.633-0.498-0.633-1.494-0.022-5.138-1.417-10.341-6.324-11.834-0.464-0.099-0.494-0.47-0.494-0.561 0-0.249 0.143-0.373 0.432-0.373zm-4.689 1.359c0.532 0 0.799 0.147 0.799 0.441 0 0.249-0.167 0.543-0.5 0.883-0.621 0.656-1.209 0.984-1.764 0.984-0.288 0-0.432-0.204-0.432-0.611 7e-3 -0.713 0.742-1.606 1.896-1.697zm-4.03 6.791-6e-3 1e-3c0.172 0.537-0.279 1.264-1.025 1.381-0.155-0.611 0.068-1.2 1.031-1.391z" fill-opacity=".098"/>
<path d="m22.22 10c-0.333 0-0.822 0.532-1.465 1.596-0.963-0.576-2.442-1.127-3.725-1.121 0.111 0.905 0.166 1.517 0.166 1.834 0 0.385-0.011 0.679-0.033 0.883-1.121 4.03-3.414 6.269-4.158 10.289-0.068 0.367 0.301 0.611 0.434 0.814 0.399 0.611 1.074 1.042 2.027 1.291 0.444 0.113 0.666 0.17 0.666 0.17 0.288 0 0.544-0.147 0.766-0.441 0 0.702 0.278 1.053 0.832 1.053 0.222 0 0.387-0.09 0.498-0.271 1.14-1.786 2.12-3.437 4.391-4.381-0.573 2.887-3.483 4.697-3.611 8.285h-1.51c-0.277 0-0.5 0.223-0.5 0.5v0.5l-2 5h22l-2-5v-0.5c0-0.277-0.223-0.5-0.5-0.5h-1.49c0-8-1.999-16-8.891-17.25-0.335-1.038-0.679-2.092-1.896-2.75m1.529 4.244c5.04 0.235 7.553 7.089 7.617 12.12v1.256c-0.044 0.589-0.243 0.883-0.598 0.883-0.421 0-0.633-0.498-0.633-1.494-0.022-5.138-1.417-10.341-6.324-11.834-0.464-0.099-0.494-0.47-0.494-0.561 0-0.249 0.143-0.373 0.432-0.373zm-4.689 1.359c0.532 0 0.799 0.147 0.799 0.441 0 0.249-0.167 0.543-0.5 0.883-0.621 0.656-1.209 0.984-1.764 0.984-0.288 0-0.432-0.204-0.432-0.611 7e-3 -0.713 0.742-1.606 1.896-1.697zm-4.03 6.791-6e-3 1e-3c0.172 0.537-0.279 1.264-1.025 1.381-0.155-0.611 0.068-1.2 1.031-1.391z" fill="#292929"/>
</g>
<rect transform="matrix(.53462 0 0 .52384 2.1476 1093.8)" x="2" y="-30" width="75.966" height="69.024" rx="3.957" ry="3.957" clip-path="url(#clipPath4156-4-1)" fill="url(#linearGradient4767)" opacity=".47892"/>
</g>
</svg>
