<?xml version="1.0" encoding="UTF-8"?>
<!-- Created with Inkscape (http://www.inkscape.org/) -->
<svg version="1.0" viewBox="0 0 96 96" xmlns="http://www.w3.org/2000/svg" xmlns:cc="http://creativecommons.org/ns#" xmlns:dc="http://purl.org/dc/elements/1.1/" xmlns:rdf="http://www.w3.org/1999/02/22-rdf-syntax-ns#" xmlns:xlink="http://www.w3.org/1999/xlink">
<defs>
<linearGradient id="linearGradient3706" x1="48" x2="48" y1="90" y2="5.9877" gradientUnits="userSpaceOnUse">
<stop stop-color="#2276c5" offset="0"/>
<stop stop-color="#69a9e6" offset="1"/>
</linearGradient>
<linearGradient id="linearGradient3188" x1="36.357" x2="36.357" y1="6" y2="63.893" gradientUnits="userSpaceOnUse">
<stop stop-color="#fff" offset="0"/>
<stop stop-color="#fff" stop-opacity="0" offset="1"/>
</linearGradient>
<filter id="filter7725" color-interpolation-filters="sRGB">
<feGaussianBlur stdDeviation="1.71"/>
</filter>
<linearGradient id="linearGradient7959" x1="-34.4" x2="-34.4" y1="92.083" y2="7" gradientTransform="translate(100)" gradientUnits="userSpaceOnUse">
<stop offset="0"/>
<stop stop-opacity=".58824" offset="1"/>
</linearGradient>
<clipPath id="clipPath4156-4">
<path d="m27.046-55.695-14.214 13.321h0.06127l15.653 21.771 10.231-10.546c-0.2169-1.1522-11.311-23.67-11.732-24.546zm-17.399 16.313-14.888 14.062 21.229 17.515 10.385-10.577-16.726-21zm31.491 12.951-9.7413 9.7136 8.9448 12.458 7.7808-7.555-6.9843-14.617zm-49.84 4.3788-13.754 12.982 26.283 13.846 0.06127-0.0617-0.12253-0.0617 9.8332-10.053-22.301-16.652zm38.015 7.4008-9.8025 9.7753 11.579 9.5594 7.6276-7.4008-8.6691-11.009-0.73519-0.9251zm20.187 5.674-7.3825 7.2158 6.1878 8.5418 5.8202-6.1365-4.6256-9.6211zm-32.195 6.3215-9.5575 9.4977 13.662 7.185 7.9339-7.6784-12.039-9.0043zm23.312 2.3744-7.1068 6.9383 8.3628 6.9074 5.3608-5.674-0.06127-0.0925-0.0919 0.12335-6.4635-8.2026zm-8.7304 8.5418-7.5051 7.3392 10.354 5.4581c1.3975-1.321 5.6751-6.1229 5.8509-6.3215l-8.6997-6.4757z" fill="#fff" opacity=".6"/>
</clipPath>
<linearGradient id="linearGradient4133">
<stop stop-color="#fff" offset="0"/>
<stop stop-color="#fff" stop-opacity="0" offset="1"/>
</linearGradient>
<linearGradient id="linearGradient7426" x1="6" x2="90" y1="47" y2="47" gradientTransform="matrix(1.1071 0 0 1.1071 2.9011 -18.701)" gradientUnits="userSpaceOnUse">
<stop stop-color="#cbd3d8" offset="0"/>
<stop stop-color="#fff" offset=".25"/>
<stop stop-color="#ced3d9" offset=".5"/>
<stop stop-color="#f9f9fb" offset=".75"/>
<stop stop-color="#d2d6dd" offset="1"/>
</linearGradient>
<linearGradient id="linearGradient7460" x1="1.5" x2="94.5" y1="88.172" y2="88.172" gradientTransform="translate(8.044 -14.666)" gradientUnits="userSpaceOnUse">
<stop offset="0"/>
<stop stop-opacity=".58824" offset=".1"/>
<stop stop-opacity=".58824" offset=".9"/>
<stop offset="1"/>
</linearGradient>
<radialGradient id="radialGradient7462" cx="13.948" cy="44.893" r="43.199" gradientTransform="matrix(.97513 0 0 .049191 41.943 65.501)" gradientUnits="userSpaceOnUse" xlink:href="#linearGradient4133"/>
<radialGradient id="radialGradient7464" cx="13.948" cy="44.893" r="43.199" gradientTransform="matrix(.88833 0 0 .049191 16.069 -98.752)" gradientUnits="userSpaceOnUse" xlink:href="#linearGradient4133"/>
<linearGradient id="linearGradient7466" x1="2.7714" x2="50.528" y1="-28.642" y2="14.514" gradientUnits="userSpaceOnUse">
<stop stop-color="#fff" offset="0"/>
<stop stop-color="#fff" stop-opacity="0" offset="1"/>
</linearGradient>
<linearGradient id="ButtonShadow-1" x1="45.448" x2="45.448" y1="92.54" y2="7.0165" gradientTransform="scale(1.0059 .99417)" gradientUnits="userSpaceOnUse">
<stop offset="0"/>
<stop stop-opacity=".58824" offset="1"/>
</linearGradient>
<filter id="filter3174-3" color-interpolation-filters="sRGB">
<feGaussianBlur stdDeviation="1.71"/>
</filter>
<filter id="filter3174" color-interpolation-filters="sRGB">
<feGaussianBlur stdDeviation="1.71"/>
</filter>
<linearGradient id="linearGradient8096-7" x1="48" x2="48" y1="90" y2="5.9877" gradientTransform="matrix(.46368 0 0 .49758 27.502 -59.029)" gradientUnits="userSpaceOnUse" xlink:href="#linearGradient3977-2"/>
<linearGradient id="linearGradient3977-2">
<stop stop-color="#366598" offset="0"/>
<stop stop-color="#6593c3" offset="1"/>
</linearGradient>
<linearGradient id="linearGradient3975-3" x1="48" x2="48" y1="90" y2="5.9877" gradientTransform="matrix(.46368 0 0 .49758 27.502 -100.83)" gradientUnits="userSpaceOnUse" xlink:href="#linearGradient4941-7"/>
<linearGradient id="linearGradient4941-7">
<stop stop-color="#2a2a2a" offset="0"/>
<stop stop-color="#4b4b4b" offset="1"/>
</linearGradient>
<linearGradient id="linearGradient3987-0" x1="48" x2="48" y1="90" y2="5.9877" gradientTransform="matrix(.46368 0 0 .49758 -11.448 -100.83)" gradientUnits="userSpaceOnUse" xlink:href="#linearGradient3977-2"/>
<linearGradient id="linearGradient3993-8" x1="48" x2="48" y1="90" y2="5.9877" gradientTransform="matrix(.46368 0 0 .49758 -11.448 -59.029)" gradientUnits="userSpaceOnUse" xlink:href="#linearGradient4941-7"/>
<linearGradient id="linearGradient4003-4" x1="24" x2="24" y1="48" y2="88" gradientTransform="matrix(.99516 0 0 .92736 8.2764 -14.23)" gradientUnits="userSpaceOnUse" xlink:href="#linearGradient4133"/>
<linearGradient id="linearGradient4007-1" x1="24" x2="24" y1="48" y2="88" gradientTransform="matrix(.99516 0 0 .92736 50.073 -53.179)" gradientUnits="userSpaceOnUse" xlink:href="#linearGradient4133"/>
<linearGradient id="linearGradient4011-7" x1="24" x2="24" y1="48" y2="88" gradientTransform="matrix(.99516 0 0 .92736 8.2764 -53.179)" gradientUnits="userSpaceOnUse" xlink:href="#linearGradient4133"/>
<linearGradient id="linearGradient11536" x1="24" x2="24" y1="48" y2="88" gradientTransform="matrix(.99516 0 0 .92736 50.073 -14.23)" gradientUnits="userSpaceOnUse" xlink:href="#linearGradient4133"/>
</defs>
<metadata>
<rdf:RDF>
<cc:Work rdf:about="">
<dc:format>image/svg+xml</dc:format>
<dc:type rdf:resource="http://purl.org/dc/dcmitype/StillImage"/>
<dc:title/>
</cc:Work>
</rdf:RDF>
</metadata>
<g display="none">
<path d="m11.281 7c-3.4823 0-6.2812 2.7531-6.2812 6.1562v30.688c0 2.5287 1.5572 4.712 3.7812 5.6562-2.2241 0.9443-3.7812 3.1275-3.7812 5.6562v30.688c0 3.4031 2.799 6.1562 6.2812 6.1562h31.438c2.218 0 4.163-1.1261 5.2812-2.8125 1.1182 1.6864 3.0632 2.8125 5.2812 2.8125h31.438c3.4823 0 6.2812-2.7531 6.2812-6.1562v-30.688c0-3.4031-2.799-6.1562-6.2812-6.1562h-31.438c-2.218 0-4.163 1.1261-5.2812 2.8125-0.66711-1.0061-1.6439-1.8296-2.7812-2.3125 2.2241-0.9443 3.7812-3.1275 3.7812-5.6562v-30.688c0-3.4031-2.799-6.1562-6.2812-6.1562h-31.438z" fill="url(#linearGradient7959)" filter="url(#filter7725)" opacity=".9"/>
<rect x="6" y="6" width="84" height="84" rx="6" ry="6" fill="url(#linearGradient3706)"/>
<path d="m12 6c-3.324 0-6 2.676-6 6v2 68 2c0 0.33472 0.04135 0.6507 0.09375 0.96875 0.0487 0.2956 0.09704 0.59692 0.1875 0.875 0.00988 0.03038 0.020892 0.0636 0.03125 0.09375 0.098865 0.28777 0.23488 0.54745 0.375 0.8125 0.14459 0.27351 0.31562 0.53562 0.5 0.78125s0.37378 0.47347 0.59375 0.6875c0.43995 0.42806 0.94291 0.81453 1.5 1.0938 0.27854 0.13961 0.57347 0.24695 0.875 0.34375-0.2562-0.10022-0.48671-0.23627-0.71875-0.375-0.00741-0.0044-0.023866 0.0045-0.03125 0-0.031933-0.0193-0.062293-0.04251-0.09375-0.0625-0.1204-0.0767-0.23102-0.16351-0.34375-0.25-0.10617-0.0808-0.21328-0.16111-0.3125-0.25-0.17793-0.16143-0.34746-0.34539-0.5-0.53125-0.10758-0.13026-0.21839-0.26528-0.3125-0.40625-0.025089-0.03838-0.038446-0.08587-0.0625-0.125-0.064763-0.10303-0.13023-0.20452-0.1875-0.3125-0.10101-0.19471-0.20567-0.4157-0.28125-0.625-0.00796-0.02181-0.023589-0.04055-0.03125-0.0625-0.031825-0.09195-0.035804-0.18683-0.0625-0.28125-0.030332-0.10662-0.070389-0.20303-0.09375-0.3125-0.072879-0.34151-0.125-0.6982-0.125-1.0625v-2-68-2c0-2.7818 2.2182-5 5-5h2 68 2c2.7818 0 5 2.2182 5 5v2 68 2c0 0.3643-0.05212 0.72099-0.125 1.0625-0.04415 0.20689-0.08838 0.39766-0.15625 0.59375-0.0077 0.02195-0.0233 0.04069-0.03125 0.0625-0.06274 0.17374-0.13838 0.36745-0.21875 0.53125-0.04158 0.0828-0.07904 0.16995-0.125 0.25-0.0546 0.09721-0.12677 0.18835-0.1875 0.28125-0.09411 0.14096-0.20492 0.276-0.3125 0.40625-0.14317 0.17445-0.30314 0.347-0.46875 0.5-0.01117 0.0102-0.01998 0.02115-0.03125 0.03125-0.13839 0.12556-0.28509 0.23444-0.4375 0.34375-0.10257 0.07315-0.20432 0.15336-0.3125 0.21875-0.0074 0.0045-0.02384-0.0044-0.03125 0-0.23204 0.13873-0.46255 0.27478-0.71875 0.375 0.30153-0.0968 0.59646-0.20414 0.875-0.34375 0.55709-0.27922 1.0601-0.66569 1.5-1.0938 0.21997-0.21403 0.40937-0.44186 0.59375-0.6875s0.35541-0.50774 0.5-0.78125c0.14012-0.26505 0.27614-0.52473 0.375-0.8125 0.01041-0.03078 0.02133-0.06274 0.03125-0.09375 0.09046-0.27808 0.1388-0.5794 0.1875-0.875 0.0524-0.31805 0.09375-0.63403 0.09375-0.96875v-2-68-2c0-3.324-2.676-6-6-6h-72z" fill="url(#linearGradient3188)" opacity=".5"/>
</g>
<g>
<g transform="translate(-1e-6,32)">
<g transform="translate(-8.044 -17.334)">
<path d="m97.187-14.666h-82.286c-3.7988 0-6.8571 3.0583-6.8571 6.8571v82.286c0 3.7989 3.0583 6.8571 6.8571 6.8571h82.286c3.7989 0 6.8571-3.0583 6.8571-6.8571v-82.286c0-3.7989-3.0583-6.8571-6.8571-6.8571z" opacity=".15"/>
<path d="m96.544-13.916h-81c-3.7395 0-6.75 3.0105-6.75 6.75v81c0 3.7395 3.0105 6.75 6.75 6.75h81c3.7395 0 6.75-3.0105 6.75-6.75v-81c0-3.7395-3.0105-6.75-6.75-6.75z" opacity=".15"/>
<path d="m95.901-13.166h-79.714c-3.6801 0-6.6429 2.9627-6.6429 6.6429v79.714c0 3.6801 2.9627 6.6429 6.6429 6.6429h79.714c3.6801 0 6.6429-2.9627 6.6429-6.6429v-79.714c0-3.6801-2.9627-6.6429-6.6429-6.6429z" fill="url(#linearGradient7426)"/>
<rect transform="translate(8.044 -14.666)" x="5.7927" y="6.2128" width="84.846" height="77.52" ry="4.25" fill="#fff4ed" fill-opacity=".76735" stroke="#fff" stroke-linecap="round" stroke-linejoin="round" stroke-width=".4"/>
<path d="m9.544 67.178v6c0 3.6801 2.9761 6.6562 6.6562 6.6562h79.688c3.6801 0 6.6563-2.9761 6.6563-6.6562v-6c0 3.6801-2.9761 6.6562-6.6563 6.6562h-79.688c-3.6801 0-6.6562-2.9761-6.6562-6.6562z" fill="url(#linearGradient7460)" opacity=".89091"/>
<rect transform="rotate(90)" x="30.284" y="-56.044" width="38.949" height="41.797" rx="5.5642" ry="5.9709" fill="url(#linearGradient8096-7)"/>
<path d="m20.218 30.284c-3.3079 0-5.9709 2.4816-5.9709 5.5642v27.821c0 3.0825 2.663 5.5642 5.9709 5.5642h29.855c3.3079 0 5.9709-2.4816 5.9709-5.5642v-27.821c0-3.0825-2.663-5.5642-5.9709-5.5642zm0 0.92736h29.855c2.7655 0 4.9758 2.0597 4.9758 4.6368v27.821c0 2.5771-2.2103 4.6368-4.9758 4.6368h-29.855c-2.7655 3e-6 -4.9758-2.0597-4.9758-4.6368v-27.821c0-2.5771 2.2103-4.6368 4.9758-4.6368z" fill="#fff" opacity=".3"/>
<rect transform="rotate(90)" x="30.284" y="-97.841" width="38.949" height="41.797" rx="5.5642" ry="5.9709" fill="url(#linearGradient3975-3)"/>
<path d="m62.015 30.284c-3.3079 0-5.9709 2.4816-5.9709 5.5642v27.821c0 3.0825 2.663 5.5642 5.9709 5.5642h29.855c3.3079 0 5.9709-2.4816 5.9709-5.5642v-27.821c0-3.0825-2.663-5.5642-5.9709-5.5642zm0 0.92736h29.855c2.7655 0 4.9758 2.0597 4.9758 4.6368v27.821c0 2.5771-2.2103 4.6368-4.9758 4.6368h-29.855c-2.7655 3e-6 -4.9758-2.0597-4.9758-4.6368v-27.821c0-2.5771 2.2103-4.6368 4.9758-4.6368z" fill="#fff" opacity=".2"/>
<rect transform="rotate(90)" x="-8.6656" y="-97.841" width="38.949" height="41.797" rx="5.5642" ry="5.9709" fill="url(#linearGradient3987-0)"/>
<path d="m62.015-8.6656c-3.3079 0-5.9709 2.4816-5.9709 5.5642v27.821c0 3.0825 2.663 5.5642 5.9709 5.5642h29.855c3.3079 0 5.9709-2.4816 5.9709-5.5642v-27.821c0-3.0825-2.663-5.5642-5.9709-5.5642zm0 0.92736h29.855c2.7655 0 4.9758 2.0597 4.9758 4.6368v27.821c0 2.5771-2.2103 4.6368-4.9758 4.6368h-29.855c-2.7655 2e-6 -4.9758-2.0597-4.9758-4.6368v-27.821c0-2.5771 2.2103-4.6368 4.9758-4.6368z" fill="#fff" opacity=".3"/>
<rect transform="rotate(90)" x="-8.6656" y="-56.044" width="38.949" height="41.797" rx="5.5642" ry="5.9709" fill="url(#linearGradient3993-8)"/>
<path d="m20.218-8.6656c-3.3079 0-5.9709 2.4816-5.9709 5.5642v27.821c0 3.0825 2.663 5.5642 5.9709 5.5642h29.855c3.3079 0 5.9709-2.4816 5.9709-5.5642v-27.821c0-3.0825-2.663-5.5642-5.9709-5.5642zm0 0.92736h29.855c2.7655 0 4.9758 2.0597 4.9758 4.6368v27.821c0 2.5771-2.2103 4.6368-4.9758 4.6368h-29.855c-2.7655 2e-6 -4.9758-2.0597-4.9758-4.6368v-27.821c0-2.5771 2.2103-4.6368 4.9758-4.6368z" fill="#fff" opacity=".2"/>
<path d="m20.218 30.284c-3.3079 0-5.9709 2.4816-5.9709 5.5642v27.821c0 2.768 2.1424 5.0401 4.9758 5.4772-2.2757-0.42948-3.9806-2.2949-3.9806-4.5499v-27.821c0-2.5771 2.2103-4.6368 4.9758-4.6368h29.855c2.7655 0 4.9758 2.0597 4.9758 4.6368v27.821c0 2.2549-1.7049 4.1204-3.9806 4.5499 2.8334-0.43714 4.9758-2.7092 4.9758-5.4772v-27.821c0-3.0825-2.663-5.5642-5.9709-5.5642z" fill="url(#linearGradient4003-4)" opacity=".1"/>
<path d="m62.015-8.6656c-3.3079 0-5.9709 2.4816-5.9709 5.5642v27.821c0 2.768 2.1424 5.0401 4.9758 5.4772-2.2757-0.42948-3.9806-2.2949-3.9806-4.5499v-27.821c0-2.5771 2.2103-4.6368 4.9758-4.6368h29.855c2.7655 0 4.9758 2.0597 4.9758 4.6368v27.821c0 2.2549-1.7049 4.1204-3.9806 4.5499 2.8334-0.43714 4.9758-2.7092 4.9758-5.4772v-27.821c0-3.0825-2.663-5.5642-5.9709-5.5642z" fill="url(#linearGradient4007-1)" opacity=".1"/>
<path d="m20.218-8.6656c-3.3079 0-5.9709 2.4816-5.9709 5.5642v27.821c0 2.768 2.1424 5.0401 4.9758 5.4772-2.2757-0.42948-3.9806-2.2949-3.9806-4.5499v-27.821c0-2.5771 2.2103-4.6368 4.9758-4.6368h29.855c2.7655 0 4.9758 2.0597 4.9758 4.6368v27.821c0 2.2549-1.7049 4.1204-3.9806 4.5499 2.8334-0.43714 4.9758-2.7092 4.9758-5.4772v-27.821c0-3.0825-2.663-5.5642-5.9709-5.5642z" fill="url(#linearGradient4011-7)" opacity=".1"/>
<path d="m62.015 30.284c-3.3079 0-5.9709 2.4816-5.9709 5.5642v27.821c0 2.768 2.1424 5.0401 4.9758 5.4772-2.2757-0.42948-3.9806-2.2949-3.9806-4.5499v-27.821c0-2.5771 2.2103-4.6368 4.9758-4.6368h29.855c2.7655 0 4.9758 2.0597 4.9758 4.6368v27.821c0 2.2549-1.7049 4.1204-3.9806 4.5499 2.8334-0.43714 4.9758-2.7092 4.9758-5.4772v-27.821c0-3.0825-2.663-5.5642-5.9709-5.5642z" fill="url(#linearGradient11536)" opacity=".1"/>
<rect x="13.419" y="65.584" width="84.25" height="4.25" rx="0" ry="4.25" fill="url(#radialGradient7462)" opacity=".55"/>
<rect transform="rotate(90)" x="-9.9156" y="-98.669" width="76.75" height="4.25" rx="0" ry="4.25" fill="url(#radialGradient7464)" opacity=".55"/>
<g transform="translate(251.29 -104.9)">
<g display="none">
<rect x="5" y="7" width="86" height="85" rx="6" ry="6" fill="url(#ButtonShadow-1)" filter="url(#filter3174-3)" opacity=".9"/>
</g>
</g>
<rect transform="matrix(.9093 0 0 .92838 12.389 19.829)" x="2" y="-30" width="92" height="92" rx="3.957" ry="3.957" clip-path="url(#clipPath4156-4)" fill="url(#linearGradient7466)" opacity=".759"/>
<path d="m17.869-9.9361c-3.1166 0-5.668 2.5395-5.668 5.646v69.278c0 3.1065 2.5513 5.646 5.668 5.646h76.792c3.1166 0 5.668-2.5395 5.668-5.646v-69.278c0-3.1065-2.5513-5.646-5.668-5.646h-76.792zm0 2.3194h76.792c1.8881 0 3.352 1.4801 3.352 3.3266v69.278c0 1.8465-1.4639 3.3266-3.352 3.3266h-76.792c-1.8881 0-3.352-1.4801-3.352-3.3266v-69.278c0-1.8465 1.4639-3.3266 3.352-3.3266z" color="#000000" fill="#1f2124" fill-opacity=".63265" style="block-progression:tb;text-indent:0;text-transform:none"/>
</g>
</g>
<g display="none">
<rect x="5" y="7" width="86" height="85" rx="6" ry="6" fill="url(#ButtonShadow-1)" filter="url(#filter3174)" opacity=".9"/>
</g>
</g>
</svg>
