<?xml version="1.0" encoding="UTF-8"?>
<!-- Created with Inkscape (http://www.inkscape.org/) -->
<svg version="1.1" viewBox="0 0 96 96" xmlns="http://www.w3.org/2000/svg" xmlns:cc="http://creativecommons.org/ns#" xmlns:dc="http://purl.org/dc/elements/1.1/" xmlns:rdf="http://www.w3.org/1999/02/22-rdf-syntax-ns#" xmlns:xlink="http://www.w3.org/1999/xlink">
<defs>
<linearGradient id="linearGradient4071" x1="6" x2="90" y1="47" y2="47" gradientTransform="matrix(1.1014 0 0 1.1014 -4.9671 -3.0997)" gradientUnits="userSpaceOnUse">
<stop stop-color="#b0bbbe" offset="0"/>
<stop stop-color="#fff" offset=".25"/>
<stop stop-color="#94a2a6" offset=".5"/>
<stop stop-color="#fbf9f9" offset=".75"/>
<stop stop-color="#b1babd" offset="1"/>
</linearGradient>
<linearGradient id="linearGradient4129" x1="1.5" x2="94.5" y1="88.172" y2="88.172" gradientTransform="matrix(.99479 0 0 .99479 .14895 .91503)" gradientUnits="userSpaceOnUse">
<stop offset="0"/>
<stop stop-opacity=".58824" offset=".1"/>
<stop stop-opacity=".58824" offset=".9"/>
<stop offset="1"/>
</linearGradient>
<radialGradient id="radialGradient7462" cx="13.948" cy="44.893" r="43.199" gradientTransform="matrix(.97005 0 0 .048935 33.871 80.664)" gradientUnits="userSpaceOnUse" xlink:href="#linearGradient3737"/>
<linearGradient id="linearGradient3737">
<stop stop-color="#fff" offset="0"/>
<stop stop-color="#fff" stop-opacity="0" offset="1"/>
</linearGradient>
<radialGradient id="radialGradient7464" cx="13.948" cy="44.893" r="43.199" gradientTransform="matrix(.8837 0 0 .048935 32.295 -89.848)" gradientUnits="userSpaceOnUse" xlink:href="#linearGradient3737"/>
<linearGradient id="linearGradient4767" x1="2.7714" x2="50.528" y1="-28.642" y2="14.514" gradientUnits="userSpaceOnUse" xlink:href="#linearGradient3737"/>
<clipPath id="clipPath4156-4-1">
<path d="m27.046-55.695-14.214 13.321h0.06127l15.653 21.771 10.231-10.546c-0.2169-1.1522-11.311-23.67-11.732-24.546zm-17.399 16.313-14.888 14.062 21.229 17.515 10.385-10.577zm31.491 12.951-9.7413 9.7136 8.9448 12.458 7.7808-7.555zm-49.84 4.3788-13.754 12.982 26.283 13.846 0.06127-0.0617-0.12253-0.0617 9.8332-10.053-22.301-16.652zm38.015 7.4008-9.8025 9.7753 11.579 9.5594 7.6276-7.4008-8.6691-11.009zm20.187 5.674-7.3825 7.2158 6.1878 8.5418 5.8202-6.1365zm-32.195 6.3215-9.5575 9.4977 13.662 7.185 7.9339-7.6784zm23.312 2.3744-7.1068 6.9383 8.3628 6.9074 5.3608-5.674-0.06127-0.0925-0.0919 0.12335-6.4635-8.2026zm-8.7304 8.5418-7.5051 7.3392 10.354 5.4581c1.3975-1.321 5.6751-6.1229 5.8509-6.3215z" fill="#fff" opacity=".6"/>
</clipPath>
<radialGradient id="radialGradient853" cx="48.284" cy="45.084" r="42.018" gradientTransform="matrix(.99479 0 0 .91115 .00077581 4.4754)" gradientUnits="userSpaceOnUse">
<stop stop-color="#6fb9ee" offset="0"/>
<stop stop-color="#0161b0" offset="1"/>
</radialGradient>
</defs>
<metadata>
<rdf:RDF>
<cc:Work rdf:about="">
<dc:format>image/svg+xml</dc:format>
<dc:type rdf:resource="http://purl.org/dc/dcmitype/StillImage"/>
<dc:title/>
<dc:date>2017</dc:date>
<dc:creator>
<cc:Agent>
<dc:title>Cristian Pozzessere "ilnanny"</dc:title>
</cc:Agent>
</dc:creator>
<dc:subject>
<rdf:Bag>
<rdf:li>Global language</rdf:li>
</rdf:Bag>
</dc:subject>
<dc:description>Playing with Inkscape on Gnu/Linux O. S.</dc:description>
<dc:contributor>
<cc:Agent>
<dc:title>In the night, alone like a dog.</dc:title>
</cc:Agent>
</dc:contributor>
<cc:license rdf:resource="http://creativecommons.org/licenses/by-sa/4.0/"/>
</cc:Work>
<cc:License rdf:about="http://creativecommons.org/licenses/by-sa/4.0/">
<cc:permits rdf:resource="http://creativecommons.org/ns#Reproduction"/>
<cc:permits rdf:resource="http://creativecommons.org/ns#Distribution"/>
<cc:requires rdf:resource="http://creativecommons.org/ns#Notice"/>
<cc:requires rdf:resource="http://creativecommons.org/ns#Attribution"/>
<cc:permits rdf:resource="http://creativecommons.org/ns#DerivativeWorks"/>
<cc:requires rdf:resource="http://creativecommons.org/ns#ShareAlike"/>
</cc:License>
</rdf:RDF>
</metadata>
<g transform="translate(0 -1026.5)">
<g transform="translate(-.14896 1026.1)">
<g transform="translate(.25 -.25003)">
<path d="m88.828 0.91503h-81.857c-3.7791 0-6.8214 3.0424-6.8214 6.8214v81.857c0 3.7791 3.0424 6.8214 6.8214 6.8214h81.857c3.7791 0 6.8214-3.0424 6.8214-6.8214v-81.857c0-3.7791-3.0424-6.8214-6.8214-6.8214z" opacity=".15"/>
<path d="m88.188 1.6611h-80.578c-3.72 0-6.7148 2.9948-6.7148 6.7148v80.578c0 3.72 2.9948 6.7148 6.7148 6.7148h80.578c3.72 0 6.7148-2.9948 6.7148-6.7148v-80.578c0-3.72-2.9948-6.7148-6.7148-6.7148z" opacity=".15"/>
<path d="m87.549 2.4072h-79.299c-3.661 0-6.6083 2.9473-6.6083 6.6083v79.299c0 3.661 2.9473 6.6083 6.6083 6.6083h79.299c3.661 0 6.6083-2.9473 6.6083-6.6083v-79.299c0-3.661-2.9473-6.6083-6.6083-6.6083z" fill="url(#linearGradient4071)"/>
<path d="m11.332 7.2689c-2.8416 0-5.0974 2.2886-5.0974 5.1714v68.586c1.0915 1.6846 2.9534 2.812 5.0974 2.812h73.403c2.1441 0 4.0059-1.1273 5.0974-2.812v-68.586c0-2.8829-2.2558-5.1714-5.0974-5.1714z" fill="url(#radialGradient853)" opacity=".77865"/>
<path d="m9.9229 5.6199c-3.1004 0-5.6384 2.5263-5.6384 5.6166v68.917c0 3.0903 2.5381 5.6166 5.6384 5.6166h76.392c3.1004 0 5.6384-2.5263 5.6384-5.6166v-68.917c0-3.0903-2.5381-5.6166-5.6384-5.6166zm0 2.3074h76.392c1.8783 0 3.3346 1.4724 3.3346 3.3092v68.917c0 1.8369-1.4563 3.3092-3.3346 3.3092h-76.392c-1.8783 0-3.3346-1.4724-3.3346-3.3092v-68.917c0-1.8369 1.4563-3.3092 3.3346-3.3092z" color="#000000" fill="#1f2024" style="text-decoration-line:none;text-indent:0;text-transform:none"/>
<path d="m1.6411 82.333v5.9688c0 3.661 2.9606 6.6216 6.6216 6.6216h79.272c3.661 0 6.6216-2.9606 6.6216-6.6216v-5.9688c0 3.661-2.9606 6.6216-6.6216 6.6216h-79.272c-3.661 0-6.6216-2.9606-6.6216-6.6216z" fill="url(#linearGradient4129)" opacity=".65818"/>
<rect x="5.496" y="80.747" width="83.811" height="4.2279" rx="0" ry="4.2279" fill="url(#radialGradient7462)" opacity=".55"/>
<rect transform="rotate(90)" x="6.4461" y="-89.765" width="76.35" height="4.2279" rx="0" ry="4.2279" fill="url(#radialGradient7464)" opacity=".669"/>
<path d="m72.067 65.24c-2.2709 0.60813-4.6941 0.80366-6.8996 1.5558 3.7354-3.2028 3.5221-8.1585 6.0143-11.931 0.79388-1.068 1.4501-2.1875 2.3755-3.2011-1.5159 3.0409-0.85851 6.9862-2.6 9.9372-0.67039 1.1722-1.6291 2.3094-2.6894 3.2301 0.34641-0.01298 0.6496-0.31286 0.95422-0.51313 2.8287-2.8227 6.5242-3.6121 9.584-5.9054 1.2257-0.97666 2.3483-2.2565 2.8872-3.6407-0.57899 4.6832-5.2381 9.0727-9.6262 10.468z" fill="#fff" stroke-width=".21077"/>
<path d="m82.257 46.278c-1.384 1.9694-3.0582 3.8027-4.3368 5.8042 0.14264-1.5847 0.33035-3.5333-0.28693-5.0344-1.0697-3.2325-2.0095-6.5147-2.3127-10.062l0.0418-1.3566c0.805 3.623 4.364 6.1135 4.1394 10.177 0.08149 0.98489-0.22312 1.8222-0.40755 2.6883l0.06115 0.064 0.16034-0.17968c0.52775-1.9935 0.79409-4.0896 1.6147-5.9495 1.1662-2.6764 2.6225-5.3775 2.0291-8.609 1.7738 3.8099 1.2364 8.9002-0.7025 12.458z" fill="#fff" stroke-width=".21077"/>
<path d="m80.073 25.752c2.3337 3.1627 2.8452 8.2027 1.1454 11.83-0.63354 1.5373-1.081 3.1755-1.3299 4.8771-0.11876-0.29351-0.14593-0.68808-0.25193-1.0151-0.92829-3.551-4.2866-6.0816-5.6677-9.4295-0.43801-1.0948-0.81138-2.226-1.0184-3.4145 1.4758 2.7295 5.1128 4.1393 6.1041 7.1473 0.4061 0.76074 0.38326 1.7113 0.63519 2.5292 0.05291 0 0.1058-0.03932 0.1058-0.09302-0.43636-3.0985-0.30318-6.3415 0.11733-9.4015-0.02429-1.6575-0.18607-3.2654-1.1069-4.5484 0.59052 0.34404 0.85645 1.0049 1.2671 1.5181z" fill="#fff" stroke-width=".21077"/>
<path d="m78.428 25.145c0.61296 2.7714-0.2824 5.4704 0.28075 8.2685l-0.021 0.02406c-1.5077-2.9648-4.7085-4.364-6.9109-6.7369-1.2763-1.4081-1.8313-3.1242-2.1505-4.9412 1.2619 3.0424 4.6672 3.7127 6.6221 6.2764 0.65412 0.59104 0.86757 1.4098 1.2893 2.0801l0.06896-0.06659c-1.1242-2.4-1.5009-5.1009-2.2853-7.6604-0.39272-1.1091-1.1722-2.1989-2.218-2.8982 2.5663 0.52445 4.7905 3.2036 5.3246 5.6542z" fill="#fff" stroke-width=".21077"/>
<path d="m71.567 18.789c1.9327 1.7298 2.8069 3.9695 3.3713 6.2901l0.31924 0.73697c-2.8052-2.0175-5.3536-4.7296-7.1449-7.594l-2.1878-2.2133c1.9233 0.81549 3.9968 1.3023 5.6422 2.7801z" fill="#fff" stroke-width=".21077"/>
<path d="m27.262 16.376c-1.9391 1.6999-3.284 3.8498-4.7225 5.8546-1.2895 1.5966-2.939 2.6494-4.4008 4.0224 0.78915-1.6359 0.81796-3.5901 1.9373-5.0928 1.5927-2.7787 4.5461-3.7563 7.1861-4.7842z" fill="#fff" stroke-width=".21077"/>
<path d="m16.657 22.296c0.94311-1.1724 2.1388-1.9872 3.4843-2.3312-2.6126 1.7947-2.4426 5.011-3.2708 7.6847-0.26408 0.9887-0.72266 1.8996-0.95113 2.9131l0.06648 0.05288c0.43471-1.1457 1.1987-2.2283 2.1524-3.1632 1.8555-1.7129 4.6005-2.7804 5.5098-5.3143-0.04159 3.5211-2.979 6.2893-5.7896 8.2683-1.159 1.0168-2.2767 2.1756-2.915 3.4827-0.06255-0.88836 0.13132-1.7803 0.06814-2.732-0.30566-3.0737-0.52775-6.5821 1.6454-8.861z" fill="#fff" stroke-width=".21077"/>
<path d="m11.371 32.806c-0.07864-3.1148 1.2142-5.6574 3.036-7.9782 0.05291-0.02644 0.09056-0.07936 0.1587-0.06659-2.0054 3.0474-0.34641 6.8859-0.4378 10.351l-0.26449 3.5477c0.03932 0.02571 0.03932 0.13235 0.13235 0.09136 0.11856-0.3954 0.14429-0.81797 0.22353-1.2247 0.47238-2.8616 2.9576-4.8921 5.1282-6.8697 0.46352-0.51725 0.87333-1.0424 1.1115-1.6494-0.17722 1.4248-0.62387 2.8619-1.215 4.1797-1.6894 3.2947-4.8104 5.9981-5.3806 9.7701-0.27663-3.6148-2.7377-6.3173-2.4924-10.151z" fill="#fff" stroke-width=".21077"/>
<path d="m9.8539 37.236c0.22456-0.97419 0.39622-1.9823 0.82023-2.8763-0.80335 4.1178 1.9663 7.0848 2.8748 10.654 0.38017 1.335 0.4732 2.7688 1.0168 4.0215 0.05065 0.02737 0.09468-0.02551 0.12597-0.06566-1.3527-3.7916 0.59999-7.315 2.5622-10.284 0.47711-0.80438 0.7521-1.7001 0.98942-2.6247 0.20851 1.716-0.22538 3.6922-0.47464 5.4738-0.47711 2.267-1.1893 4.4169-1.8092 6.6166-0.40795 1.3745-0.30072 2.9252-0.09116 4.3654l-0.19659-0.15705c-1.4385-2.6527-4.287-4.7217-5.133-7.6198-0.69611-2.3104-1.1588-4.9868-0.68479-7.5043z" fill="#fff" stroke-width=".21077"/>
<path d="m9.724 45.278c0.31677 4.3646 5.0103 6.6709 7.1859 10.284 0.51478 0.73933 0.96143 1.5573 1.6493 2.1762-0.10744-0.46497-0.54133-0.85625-0.70064-1.3325-0.76116-1.5155-1.0386-3.3215-0.85563-5.1531 0.21077-2.2293 1.1458-4.2981 0.78894-6.6429 1.9117 4.1219 1.3311 9.2668 2.4 13.733 0.27993 0.97686 0.84534 1.8492 1.2158 2.7828-3.9278-2.6752-9.2837-5.2204-11.026-10.123-0.7344-1.6905-0.81632-3.7833-0.65742-5.7247z" fill="#fff" stroke-width=".21077"/>
<path d="m12.07 55.301c2.19 4.9543 7.6749 5.3647 11.352 8.3816 0.67676 0.59978 1.3858 1.1098 2.1499 1.4657l0.03932-0.03994c-0.84431-0.76342-1.821-1.6328-2.4121-2.6223-2.1524-2.9928-1.3953-7.1851-3.008-10.404 1.4653 1.7528 2.7978 3.5748 3.6825 5.5633 1.3159 3.2461 1.8187 6.9126 4.8635 9.3664-3.2951-1.086-7.1554-0.78256-10.064-2.8115-3.1755-1.9517-6.0096-5.262-6.6038-8.8994z" fill="#fff" stroke-width=".21077"/>
<path d="m17.699 64.543c3.5114 3.9936 9.2491 2.6611 13.927 3.7063 0.66071 0.09018 1.2654 0.35485 1.9657 0.24741-0.55759-0.35279-1.3313-0.3145-1.9399-0.63519-3.6664-1.2881-4.2043-5.2574-6.1946-7.934 2.5428 1.6886 4.6805 3.9661 7.0264 6.1729 1.6862 1.477 3.7158 2.1587 5.8544 2.5934-0.51395 0.18771-1.1876 0.13626-1.7393 0.28075-3.842 0.94476-8.1105 2.4889-12.185 1.1065-2.6488-0.83402-5.3816-2.9285-6.7143-5.5381z" fill="#fff" stroke-width=".21077"/>
<path d="m65.358 73.852c-3.9569 1.4766-8.0864-0.06751-11.177-2.4111-1.2512-0.79532-2.3543-1.9406-3.9727-1.8393-0.58702-0.01112-1.1531 0.0177-1.652 0.16178 3.0024 1.3972 5.7914 3.3233 8.3414 5.7867-0.42977 0.49069-0.98633 0.94969-1.5106 1.3729-2.4574-2.6478-5.1789-5.1964-8.226-6.6849-0.5967 0.0774-1.1644 0.43636-1.7024 0.72534-2.4807 1.5684-4.9335 3.586-6.7777 6.0559l-1.5847-1.3087c2.5292-2.5585 5.3269-4.5501 8.3873-5.9727-3.0074-0.95258-4.9704 1.5668-7.2532 2.8483-2.6601 1.8574-6.4859 2.7297-9.7007 1.4482-1.729-0.65577-3.404-1.6215-4.6558-3.1912 2.53 1.743 6.2982 1.9257 9.1754 0.79368 3.8609-1.6746 7.873-3.7975 12.527-2.7824 0.72637 0.01277 1.4322 0.73604 2.1184 0.1202 3.4594-0.89824 7.3759-0.28075 10.354 1.3004l3.0697 1.2304c2.8532 1.0551 6.5421 0.76322 8.9877-0.97522-1.2574 1.5651-2.975 2.6865-4.7489 3.3217z" fill="#fff" stroke-width=".21077"/>
<path d="m69.599 69.764c-4.4426 1.6775-8.912-0.38161-13.169-1.0695l-0.81961-0.10415v-0.02592c2.0354-0.46188 4.0112-1.0678 5.6313-2.5305 2.3862-2.2937 4.5095-4.6545 7.1593-6.4619-1.965 2.5196-2.1733 6.1058-5.4195 7.7257-0.80335 0.52569-1.8173 0.61872-2.6463 1.0168 1.1823 0.02551 2.2647-0.39807 3.4355-0.51663 4.3529-0.68336 9.3325 0.0177 12.386-3.6904-1.1337 2.5839-3.9729 4.7475-6.5581 5.6565z" fill="#fff" stroke-width=".21077"/>
<path d="m77.671 57.264c-1.7545 1.1483-3.5328 2.2133-5.2188 3.5189v-0.16034c2.5823-4.2917 1.32-10.188 2.911-14.911l0.59341-1.5822c-0.33201 2.9423 0.94599 5.4347 0.85625 8.3871-0.08976 1.7835-0.67182 3.3649-1.6083 4.789h0.1587c1.2652-1.6617 2.2532-3.4289 3.7319-5.0117 2.2952-2.2133 4.6287-4.4827 4.93-7.5541 0.77948 5.1274-2.0976 9.6213-6.3541 12.524z" fill="#fff" stroke-width=".21077"/>
<polygon transform="matrix(.21077 0 0 .21077 -47.942 -17.826)" points="448.11 398.07 448.11 303.25 451.89 303.25 451.89 398.07" fill="#fff" fill-rule="evenodd"/>
<polygon transform="matrix(.21077 0 0 .21077 -47.942 -17.826)" points="360.51 360.94 427.61 293.94 430.28 296.61 363.18 363.61" fill="#fff" fill-rule="evenodd"/>
<polygon transform="matrix(.21077 0 0 .21077 -47.942 -17.826)" points="326.37 274.07 421.2 274.19 421.19 277.96 326.37 277.85" fill="#fff" fill-rule="evenodd"/>
<polygon transform="matrix(.21077 0 0 .21077 -47.942 -17.826)" points="363.16 188.84 430.2 255.9 427.53 258.57 360.49 191.51" fill="#fff" fill-rule="evenodd"/>
<polygon transform="matrix(.21077 0 0 .21077 -47.942 -17.826)" points="451.93 153.29 451.85 248.11 448.07 248.11 448.16 153.28" fill="#fff" fill-rule="evenodd"/>
<polygon transform="matrix(.21077 0 0 .21077 -47.942 -17.826)" points="537.96 190.19 470.82 257.16 468.16 254.48 535.3 187.52" fill="#fff" fill-rule="evenodd"/>
<polygon transform="matrix(.21077 0 0 .21077 -47.942 -17.826)" points="572.97 278.14 478.15 278.26 478.14 274.48 572.96 274.36" fill="#fff" fill-rule="evenodd"/>
<polygon transform="matrix(.21077 0 0 .21077 -47.942 -17.826)" points="534.31 364.55 467.2 297.56 469.87 294.89 536.97 361.88" fill="#fff" fill-rule="evenodd"/>
<path d="m54.358 20.361c11.008 4.1146 16.602 16.387 12.487 27.394-4.1147 11.007-16.387 16.601-27.394 12.487-11.008-4.1144-16.601-16.387-12.487-27.394 4.1148-11.007 16.387-16.601 27.394-12.487zm-0.32212 0.86304c10.531 3.9365 15.883 15.678 11.947 26.209-3.9363 10.531-15.679 15.883-26.209 11.946-10.531-3.9361-15.882-15.678-11.946-26.209 3.9365-10.531 15.678-15.883 26.209-11.946z" fill="#fff" fill-rule="evenodd" stroke-width=".21077"/>
<path d="m52.65 24.93c8.4857 3.1718 12.797 12.632 9.6262 21.118-3.172 8.4852-12.633 12.797-21.118 9.6258-8.4848-3.1716-12.797-12.633-9.6258-21.118 3.1716-8.4851 12.633-12.797 21.117-9.6257zm-0.32377 0.86798c8.0055 2.9925 12.075 11.919 9.0822 19.926-2.9926 8.0062-11.92 12.075-19.925 9.0822-8.0062-2.9925-12.076-11.92-9.0826-19.926 2.993-8.0062 11.92-12.075 19.926-9.0822z" fill="#fff" fill-rule="evenodd" stroke-width=".21077"/>
<path d="m50.993 29.362c6.0395 2.2574 9.1086 8.9908 6.8515 15.03-2.2581 6.0389-8.9914 9.1084-15.03 6.8508-6.0393-2.2575-9.1084-8.9908-6.8508-15.03 2.2575-6.0389 8.9908-9.1082 15.029-6.8509zm-0.2967 0.79429c5.6008 2.0936 8.4474 8.3381 6.3537 13.939-2.0939 5.6006-8.3381 8.4468-13.939 6.3532-5.6006-2.0933-8.4468-8.338-6.3535-13.939 2.0936-5.6004 8.3379-8.4468 13.939-6.3533z" fill="#fff" fill-rule="evenodd" stroke-width=".21077"/>
<path d="m49.13 34.347c3.2876 1.2289 4.9585 4.8942 3.7295 8.1819-1.229 3.2872-4.894 4.9582-8.1817 3.7291-3.2876-1.2287-4.9582-4.894-3.7295-8.1817 1.2291-3.2874 4.8948-4.9582 8.1817-3.7293zm-0.3214 0.85923c2.8139 1.0516 4.2432 4.1883 3.192 7.0016-1.0521 2.8132-4.1882 4.2427-7.0013 3.1912-2.8136-1.0516-4.2432-4.1881-3.192-7.0015 1.052-2.8133 4.1889-4.243 7.0013-3.1913z" fill="#fff" fill-rule="evenodd" stroke-width=".21077"/>
<path d="m59.321 17.205c12.875 7.0851 17.762 23.183 10.907 35.932-6.8537 12.75-22.866 17.347-35.741 10.262-12.875-7.0849-17.761-23.183-10.907-35.933 6.8541-12.75 22.866-17.347 35.741-10.262zm-0.45056 0.83885c12.407 6.8278 17.116 22.341 10.511 34.628-6.6048 12.286-22.036 16.717-34.443 9.8893-12.408-6.8282-17.117-22.341-10.511-34.628 6.6048-12.287 22.036-16.717 34.443-9.8891z" fill="#fff" fill-rule="evenodd" stroke-width=".21077"/>
<path d="m62.445 52.655c0.01502 0.13678-0.03192 0.47341 0.03192 0.5507 0.06607 0.10487 0.31265 0.08252 0.41948 0.04548 0.29187-0.10971 0.58229-0.49533 0.71711-0.78442 0.09489-0.14676 0.15869-0.31862 0.1379-0.51087l-0.20418-0.61851c-0.05106-0.21694-0.11959-0.59824-0.35094-0.68829 0.02163-0.05743 0.09489-0.14717 0.08624-0.2294-0.0535-0.24442-0.46188-0.1802-0.60781-6.31e-4 -0.07346 0.08976-0.0527 0.28147-0.06855 0.39354-0.0041 0.22219-0.06628 0.67079-0.15478 0.87261-0.08852 0.2014-0.33653 0.473-0.33982 0.69508 0.01748 0.16425 0.19389 0.25924 0.33344 0.27478zm-13.59-1.716 0.07254 0.15952c0.0032 0.02747 0.0359 0.07977 0.06379 0.07739 0.18504 0.17742 0.44428-0.23372 0.13482-0.28878-0.02789 0.0024-0.08531-0.02039-0.11002 0.0096-0.05422 0.0052-0.1093 0.01-0.16116 0.04232zm0.205-0.406c-0.12525 0.12165-0.17073 0.20902 0.03275 0.30144zm-3.3005-2.4175c-0.20099 0.1838-0.18576 0.07212-0.28868 0.13677-0.07657 0.06177-0.01277 0.13914-0.08293 0.25636-0.02163 0.05743-0.10127 0.09219-0.09488 0.14717-0.01842 0.08459 0.06938 0.13204 0.15468 0.152 0.11248 0.01748 0.44109-0.01165 0.5439-0.07616 0.10137-0.09219 0.06146-0.19945 0.10775-0.28682 0.02468-0.02985 0.07336-0.08966 0.09809-0.11959 0.01194-0.13955-0.2824-0.3071-0.4379-0.20974zm7.9249-0.84946 0.02944 0.27396-0.03192 0.22456c0.29825-0.05463 0.48185-0.15396 0.74654-0.26089 0.07905-0.03466 0.23691-0.10445 0.29824-0.05453 0.0879 0.04786 0.0416 0.13472 0.01996 0.19214-0.043 0.11444-0.21365 0.32387-0.28713 0.41362-0.2225 0.24123-0.55101 0.27077-0.82867 0.51725-0.14923 0.1519-0.18895 0.29382-0.339 0.44582-0.14902 0.15149-0.25605 0.18906-0.33262 0.25122-0.07326 0.08976-0.01194 0.13955-0.16734 0.2365l0.08852-0.2014c-0.08459-0.02039-0.19472-0.0104-0.25852-0.08811-0.0358-0.07936-0.04465-0.16198-0.02633-0.24648 0.03766-0.1695 0.07185-0.61574 0.17002-0.73543 0.02468-0.02985 0.23773-0.10445 0.31656-0.13914l-0.03663 0.1695c0.08211-0.0072 0.21859-0.01956 0.27025-0.05189 0.1342-0.03983 0.26881-0.32902 0.339-0.44582l-0.37152 0.14398c0.06462-0.17187 0.24802-0.52044 0.40116-0.64486zm-7.3466 0.82506c-0.05577 0.25451 0.09972 0.15715 0.19379 0.25965 0.06064 0.04982 0.06948 0.13204 0.07822 0.21458l-0.21612 0.04703-0.09499 0.14676-0.12206 0.14953 0.3709 0.10528c-0.18576 0.07184-0.29825 0.05422-0.41711 0.23135l0.46497-0.0419c0.30391 4.18e-4 0.53207 0.06296 0.81838-0.10137l-0.06063-0.04982 0.08293-0.25677-0.20655-0.11969-0.07264-0.15952-0.34775-0.41197-0.11557-0.04506c0.09809-0.11959 0.29588-0.33138 0.01351-0.38881l-0.13955-0.01511 0.12206-0.14954c-0.16754-0.01237-0.3071-0.02758-0.43234 0.09447-0.14676 0.17907-0.15077 0.40086 0.08061 0.4909zm-0.16189-3.5572-0.0064 0.1942-0.06379-0.07729 8e-3 0.33138c0.04868 0.18977 0.26161 0.11526 0.31029 0.05536 0.05189-0.03223 0.067-0.1447 0.06146-0.19935-0.0056-0.05463-0.03911-0.10723-0.06938-0.13204-0.05826-0.02276-0.08542-0.02028-0.14038-0.01552l-0.01759-0.16425-0.08211 0.0075zm-22.559 1.7472c-0.01082 0.41629 0.09882 0.4063 0.19173 0.75807 0.04827 0.18946-0.02789 0.25162 0.12288 0.62572 0.07253 0.15993 0.11722 0.32181 0.29032 0.38922-0.04982-0.4662-0.10693-0.73779-0.26326-1.1668-0.11166-0.26686-0.19698-0.28672-0.28713-0.61142zm37.819-4.5562c-0.1307 0.067-0.17701 0.15427-0.16199 0.29105-0.01277 0.13996 0.10847 0.23969 0.24247 0.19986 0.18586-0.07181 0.21777-0.54555-0.0805-0.4909zm-25.878-0.05991c-0.06741 0.14481-0.08019 0.28435 0.06855 0.38172-0.01472-0.13678 0.02509-0.27921-0.06855-0.38172zm8.0852 0.13328 0.0913 0.07491c0.20099-0.18422 0.24411-0.29907 0.39087-0.47814 0.12196-0.14954 0.20418-0.15674 0.28034-0.2189 0.04858-0.05991 0.04261-0.11485 0.06095-0.19945 0.04312-0.11485 0.12247-0.14953 0.10209-0.34137 0.0097-0.16703-0.09923-0.40641-0.28785-0.36185l-0.04231-0.13461c-0.08211 0.0074-0.21612 0.04703-0.29228 0.10909-0.07616 0.06235-0.03715 0.1696-0.1376 0.26171-0.12206 0.14923-0.33498 0.22374-0.38685 0.25605-0.07936 0.03508-0.04301 0.11485-0.17146 0.20943-0.17948 0.12679-0.29794 0.05422-0.40446 0.09168-0.134 0.03953-0.33252 0.25121-0.43306 0.34332-0.14676 0.17907-0.18936 0.29392-0.2508 0.49337-0.02152 0.05701-0.06741 0.14429-0.03425 0.19698 0.03303 0.0523 0.11526 0.04465 0.16744 0.01237 0.10652-0.03704 0.34096-0.16867 0.42637-0.14871 0.0817-0.0076 0.11516 0.04496 0.173 0.06741 0.085 0.01986 0.13966 0.01512 0.19739 0.03746 0.05743 0.02276 0.12123 0.10003 0.18185 0.14994 0.14562 0.06979 0.29238-0.10929 0.3354-0.22374 0.02152-0.05743 0.0427-0.11485 0.03395-0.19697zm0.15911-2.1188 0.0032 0.02747-0.03078-0.02489 0.02757-0.0026zm0.24247 0.19976c0.07254 0.15972 0.33972 0.32943 0.49131 0.45447 0.05179-0.03233 0.07615-0.06227 0.09768-0.11948 0.06741-0.14459 0.03787-0.41896-0.10806-0.48895-0.08769-0.04744-0.19461-0.01008-0.27354 0.02459-0.0032-0.02737-0.03911-0.10714-0.06938-0.13225-0.2154-0.20212-0.48493 0.37585-0.13801 0.26161zm-1.1449-0.3678c0.18463 0.17722 0.18782 0.20449 0.4343 0.18236-0.03756 0.1695-0.25687 0.43852-0.43636 0.31626-0.11804-0.07253-0.12998-0.18226-0.18741-0.2048-0.08811-0.04744-0.09489 0.14696-0.14357 0.20665-0.1165 0.20428-0.31101 0.1942-0.33015 0.52816l0.10364-0.06503c0.10528 0.21221 0.30072-0.02664 0.43193-0.09385-0.02438 0.02996-0.07336 0.08996-0.09457 0.14696-0.01914 0.0849 0.07225 0.15993 0.1516 0.12484 0.07895-0.03477 0.17382-0.18185 0.24967-0.24411 0.07657-0.06198 0.10364-0.06441 0.18298-0.09953 0.07615-0.06196 0.1767-0.15406 0.25327-0.21633 0.22888-0.18658 0.24041-0.07698 0.32058-0.36113-0.0064-0.05474 0.01831-0.08469 0.01237-0.13955-0.10889-0.23948-0.5012-0.03808-0.53197-0.06278l-0.17032-0.04035c-0.05743-0.02256-0.16425 0.01479-0.24597 0.02225zm1.2649-0.05805-0.13678 0.01215 0.03632 0.07978c0.16147-0.04211 0.27077-0.0521 0.27756-0.24648-0.13688 0.01237-0.16436 0.0147-0.17712 0.15458zm-8.6223 0.52414-0.12689 0.62078 0.0567 0.27159 0.11403 0.54349c0.0702-0.11681 0.19615-0.48812 0.20892-0.62768l0.03119-0.22456c0.0096-0.16682 0.03109-0.22404-0.04149-0.38377l-0.17712 0.15427-0.01082-0.35886-0.05453 0.0048zm8.9058-0.71598c-0.01749-0.16456 0.01277-0.13945 0.15232-0.12442l-0.0019-0.27674c-0.07936 0.03477-0.18864 0.04475-0.26521 0.10682-0.12206 0.14933-0.10683 0.28672 0.11485 0.29434zm-0.81354-0.36988 0.09374 0.1023c0.18864-0.04465 0.24926 0.0052 0.41948 0.04537l-0.06659-0.10487 0.07021-0.11701c0.16435-0.0145 0.17711-0.15437 0.10775-0.28651-0.03037-0.02499-0.08821-0.04744-0.11846-0.07254-0.29475-0.16713-0.32264 0.08449-0.39283 0.2015zm0.70867-0.09137c0.05463-5e-3 0.10971-0.0098 0.16147-0.04201 0.10055-0.09219 0.04392-0.36411-0.04465-0.41145-0.0849-0.02007-0.1307 0.067-0.12473 0.12185l-0.01874 0.085 0.0147 0.13698 0.01194 0.1096zm-8.7994 0.67882c0.09768-0.11948 0.13163-0.31646 0.14439-0.45612-0.18267 0.09972-0.16507 0.26408-0.14439 0.45612zm0.96986-1.7761c0.02634 0.24689-0.0048 0.47114-0.09085 0.70034-0.11012 0.25924-0.37574 0.61532-0.43152 0.86932l-0.06338-0.0774c-0.11928 0.17691-0.13286 0.56593-0.05701 0.75282 0.14912-0.1518 0.18339-0.34878 0.27509-0.52312 0.18072-0.37605 0.42195-0.70219 0.51447-1.126 0.01594-0.11218 0.03829-0.41887-0.02871-0.52353-0.03314-0.05248-0.06064-0.04992-0.11805-0.07243zm24.926 0.72626c0.14367-0.20686 0.18195-0.62531 0.23691-0.87981 0.13008-0.59299 0.40445-0.86675 0.3246-1.6073-0.01749-0.16446-0.0805-0.49111-0.27746-0.52898-0.30709-0.02768-0.18113 0.37626-0.19945 0.46095 0.0089 0.08241-0.01279 0.13965-0.03435 0.19708-0.13461 0.28888-0.07164 0.61553-0.06689 0.91964l-0.05826 1.0021zm-4.4329-4.7249c0.0056 0.05474 0.0358 0.07988 0.06938 0.13214 0.03027 0.02509 0.06074 0.05003 0.09096 0.07502 0.17619 0.09489 0.26799-0.07936 0.20089-0.18432-0.03254-0.05239-0.14511-0.07-0.20006-0.06493-0.05432 5e-3 -0.1093 0.0098-0.16117 0.04211zm4.0948-0.47824c0.02633 0.24689 0.12535 0.6535 0.23135 0.86541l0.24164 0.44901 0.28548 0.86047c0.14676-0.17928 0.06876-0.39385 0.02079-0.58332-0.1235-0.37656-0.30155-0.74829-0.44974-1.0948-0.10292-0.18463-0.17784-0.37193-0.32953-0.49677zm-1.513-0.44562-0.02225 0.30648-0.3742-0.13266c-0.0062 0.19471 0.08071 0.49142 0.23547 0.64352l0.30051 0.2223c0.24247 0.19986 0.48823 0.42709 0.706 0.65659 0.19142 0.23218 0.20006 0.31451 0.26634 0.41917 0.06074 0.04982 0.12123 0.09993 0.20027 0.06503 0.05189-0.03233 0.06462-0.17187 0.08604-0.22929l0.09178-0.17434c0.03994-0.14192-0.06545-0.35393-0.13482-0.48627l-0.18112-0.399c-0.07574-0.1871-0.12123-0.34919-0.24802-0.50387-0.2153-0.20222-0.37955-0.18751-0.60699-0.25029zm-7.6155 0.37862c-0.01604 0.11228-0.02551 0.27941-0.15952 0.31904-0.02716 0.0025-0.13955-0.01511-0.17002-0.04025l-0.10435 0.3141c-0.0463 0.08707-0.13245 0.31636-0.12288 0.39879-0.01277 0.13935 0.17866 0.12216 0.27602 0.0028 0.10127-0.09209 0.11403-0.23177 0.18422-0.34878 0.11321-0.23166 0.32294-0.33376 0.34847-0.61276l-0.25194-0.03292zm8.4841-1.0382c0.08151 0.24206 0.13873 0.26459 0.27211 0.47413 0.06938 0.13224 0.05106 0.21694 0.212 0.17485-0.09633-0.12977-0.36514-0.57642-0.48411-0.64898zm-11.478 1.4729c-0.3071-0.02768-0.10446 0.31409-0.14439 0.45601-0.067 0.1446-0.37482 0.36607-0.52394 0.26861-0.07905 0.03487-0.16116 0.04232-0.24648 0.02214-0.08459-0.02018-0.14521-0.07-0.22734-0.06256l-0.43626 0.31605c-0.07657 0.06217-0.17948 0.1268-0.2895 0.13657-0.08138 0.0075-0.19142 0.01708-0.2401 0.07719-0.07657 0.06197-4e-3 0.22168 0.03275 0.30144l0.12998 0.18226c-0.26799 0.07936-0.2473 0.27118-0.22096 0.51827 0.01511 0.13698 0.06782 0.63066 0.10693 0.7379 0.04222 0.13481 0.22168 0.25708 0.3637 0.29948 0.08852 0.04775 0.22806 0.06265 0.31018 0.05546l0.01914-0.33416 0.08221-0.0072 0.08449 0.26943c0.02716-0.0027 0.08211-0.0075 0.10929-0.01l0.34055 0.0804c0.03037 0.02489 0.03037 0.02489 0.06063 0.04982 0.0359 0.07978-0.03109 0.22436-0.02235 0.30669 0.04786 0.18936 0.24566 0.22713 0.41001 0.21232-4e-3 0.22178 0.01749 0.16456 0.0048 0.30411 0.01511 0.13719-0.067 0.1446 0.10209 0.43389 0.03355 0.05228 0.10292 0.18463 0.18504 0.17722 0.08211-0.0074 0.25286-0.21654 0.43553-0.31595 0.04221 0.13451 0.04537 0.16209 0.16343 0.23465l-0.03984 0.14192 0.31101-0.19399c-0.0925 0.4236-0.26871 0.3286-0.46095 0.59505-0.06783 0.1447-0.02551 0.27931-0.06545 0.42133l0.03037 0.02489 0.10363-0.06462 0.07905-0.03466c0.24319-0.04972 0.05422 0.24421 0.05981 0.29907 0.0088 0.08242 0.067 0.10466 0.12442 0.1274l-0.12844 0.09437 0.07574 0.1872-0.49286 0.04424c-0.24329 0.04951-0.44511 0.23372-0.64929 0.39046l0.0064 0.05484 0.08459 0.02007-0.47217 0.23629c0.14274 0.04232 0.32861-0.02954 0.46579-0.0419 0.134-0.03984 0.1093-0.0096 0.27118-0.05219l0.08769 0.04786-0.01594 0.11207 0.60143 0.19503c0.14274 0.04263 0.24648-0.02204 0.33499 0.02551 0.11804 0.07255 0.07812 0.21447 0.27591 0.25194 0.22734 0.06265 0.40764-0.0641 0.59588-0.10878l-0.2226 0.24164 0.10291 0.18463 0.26799-0.07936c-0.19862 0.21139-0.18905 0.04465-0.57189 0.07895 0.0878 0.04744 0.34857 0.1623 0.40682 0.18504 0.14274 0.0427 0.21849-0.01996 0.41948 0.04548 0.16991 0.03984 0.37646 0.15993 0.43152-0.09457 0.03345 0.05269 0.067 0.10497 0.09726 0.13008 0.0879 0.04744 0.14285 0.04262 0.22826 0.06257 0.11239 0.01759 0.37873 0.1874 0.36679 0.32706-0.02468 0.02985-0.04941 0.05981-0.07326 0.08976-0.03684-0.08019-0.07264-0.15952-0.13646-0.23691-0.15705-0.17989-0.39807-0.10292-0.59577-0.14078l-0.39807-0.1025-0.307-0.02789c-0.16672-0.01277-0.26089-0.11485-0.42514-0.10013-0.05505 0.0049-0.134 0.03953-0.12761 0.09447 0.0056 0.05463 0.06617 0.10497 0.09654 0.12967 0.17619 0.09489 0.11238 0.01749 0.37965 0.18741 0.1483 0.09737 0.20017 0.06503 0.34291 0.10765l0.14593 0.0702c0.11248 0.01759 0.13399-0.03984 0.24648-0.02235 0.05422-0.0048 0.16672 0.01277 0.22487 0.03549l-0.47526 0.20861-0.36452-0.05024c0.07254 0.15952 0.10291 0.18463-0.01914 0.33375l-0.067-0.10446c-0.07336 0.08935-0.067 0.14439-0.14037 0.23403l-0.12206 0.14923c-0.02152 0.05743-0.09488 0.14717-0.14994 0.1519-0.08211 0.0076-0.17547-0.09488-0.23691-0.1447-0.11804-0.07264-0.173-0.06783-0.30699-0.02799 0.10044 0.15715 0.15231 0.12483 0.29742 0.19461 0.11887 0.07253 0.42195 0.32222 0.51612 0.42472-0.02799 0.0024-0.05505 0.0049-0.07657 0.06227-0.04868 0.05981 0.0048 0.30421 0.06855 0.3812 0.06063 0.05024 0.11887 0.07253 0.20017 0.06545l-0.32614 0.30628c0.14274 0.04221 0.19461 0.01 0.31584 0.11001l-0.27365 0.0243-0.36123-0.2719-0.37646-0.16035c0.14037 0.01514 0.36205 0.02318 0.49286-0.04423 0.23454-0.13163 0.12288-0.39838-0.05898-0.54833-0.11804-0.07264-0.20027-0.06503-0.33982-0.08019-0.11248-0.01759-0.28549-0.08531-0.3956-0.07543l-0.29825 0.05464 0.01914-0.0849c-0.08542-0.01996-0.11568-0.04506-0.19224 0.01717-0.09098-0.07502-0.09333-0.1021-0.20583-0.11969l0.01443 0.13677-0.12442-0.1272-0.01194 0.13955c-0.067-0.10487-0.0702-0.13194-0.18504-0.17702l0.09251 0.35135-0.04548 0.08728c-0.15231 0.12442-0.15077 0.40126-0.13245 0.56592 0.03508 0.32902-0.03828 0.41876-0.06617 0.67038-0.0072 0.1942 0.0566 0.27159 4e-3 0.55348-0.01511 0.11207-0.11969 0.42596-0.1659 0.51333l-0.12206 0.14912-0.09168 0.17424c-0.0463 0.08738-0.12206 0.14954-0.16827 0.23691-0.04313 0.11444 0.01749 0.16466 0.05106 0.21694 0.04537 0.16189-0.0702 0.11681 0.12041 0.3493l-0.09736 0.11928 0.1093-0.01c-0.06146 0.19945 0.06296 0.32706 0.25122 0.2824 0.13399-0.03994 0.28075-0.219 0.32068-0.36133l0.05505-0.0049 0.36844 0.6038c0.06379 0.0774 0.07895 0.21458 0.19142 0.23207 0.11248 0.01759 0.15478-0.09685 0.201-0.18422 0.04868-0.05981 0.10054-0.09209 0.14912-0.1519 0.06783-0.14439-0.06534-0.35413-0.05257-0.49378 0.01511-0.11197 0.09168-0.17424 0.10446-0.31379-0.02068-0.19183-0.16353-0.23454-0.2576-0.33704-0.09416-0.10209-0.10528-0.21169-0.12041-0.34888-0.03275-0.30195 0.12278-0.39879 0.15149-0.65042 0.0096-0.16713-0.08449-0.26923-0.09654-0.37924-0.0088-0.08221 0.0096-0.16672 0.09178-0.17434 0.18895-0.04465 0.21211 0.17506 0.22724 0.31194l-0.02551 0.2791c-0.01511 0.11249-0.06136 0.19945-0.0462 0.33653 0.03911 0.10734 0.10292 0.18473 0.13873 0.26449 0.06379 0.07729 0.07264 0.15993 0.13328 0.20974 0.05743 0.02235 0.08769 0.04703 0.14274 0.04232 0.05743 0.02276 0.11485 0.04496 0.16991 0.04025 0.13399-0.03994 0.2719-0.30154 0.39952-0.3956 0.07657-0.06255 0.18905-0.04465 0.27118-0.05228-0.0462 0.08738-0.16826 0.23691-0.21694 0.2964-0.10363 0.06452-0.29269 0.10919-0.30226 0.27632-0.05825 0.22693 0.24247 0.19976 0.23608 0.39396-0.01277 0.13965-0.22487-0.03508-0.2895 0.13677-0.09168 0.17434 0.02954 0.27447 0.07173 0.40919 0.0089 0.08221-0.03663 0.16909-0.05577 0.25409-0.11568 0.20418-0.21293 0.0745-0.36854 0.17145-0.1308 0.06741-0.27437 0.27396-0.40837 0.31389-0.106 0.03704-0.1978-0.03798-0.27993-0.03078-0.10929 0.01-0.20099 0.18463-0.38284 0.03466-0.18504-0.17743 0.02551-0.2791-0.01996-0.4414l-0.11171-0.26672c-0.1555 0.09695-0.30782 0.22178-0.25677 0.43873 0.07574 0.18658 0.25759 0.33653 0.16271 0.48329-0.07657 0.06227-0.24092 0.07698-0.36854 0.17156-0.15551 0.09726-0.31739 0.3884-0.36926 0.42112-0.07657 0.06215-0.1587 0.06938-0.23444 0.13152l-0.27519 0.27396c-0.02396 0.02995-0.02396 0.02995-0.04868 0.05991l-0.34291-0.10775 0.02068 0.19183c-0.13718 0.01237-0.13718 0.01237-0.24967-0.0052-0.08448-0.02039-0.25204-0.03275-0.29506 0.0817-0.0463 0.08738 0.18185 0.14995 0.2401 0.17228 0.34847 0.16271 0.41711 0.54401 0.26799 0.69632-0.10055 0.09168-0.27365 0.0243-0.38603 0.0068-0.25286-0.03275-0.65083-0.13564-0.89968-0.14079-0.32871 0.02913-0.22332 0.24123-0.28713 0.4132-0.01604 0.11238-0.11969 0.17701-0.13801 0.26161-0.02478 0.02985-0.02152 0.05743-0.01842 0.0849-0.0031-0.02747 0.09017 0.32418 0.08697 0.2967 0.03911 0.10724 0.23135 0.09017 0.34384 0.10765 0.14192 0.04229 0.17866 0.12246 0.2966 0.19502 0.11568 0.04465 0.16754 0.01237 0.27437-0.02468 0.24576-0.02235 0.4802 0.0953 0.84555-0.10373 0.07895-0.03466 0.1555-0.09685 0.17701-0.15427 0.07336-0.08935 0.03673-0.1695 0.13718-0.26161 0.12525-0.12206 0.36854-0.17156 0.49687-0.26603 0.10055-0.09209 0.02799-0.25163 0.21375-0.32377 0.134-0.03953 0.2824 0.05784 0.46826-0.01443 0.16106-0.04232 0.33499-0.22374 0.49687-0.26593 0.16425-0.0148 0.26634 0.16981 0.4945 0.23249l0.90524 0.19533c0.02788-0.0024 0.08531 0.02039 0.11567 0.04548 0.24247 0.19945-0.10693 0.28631-0.24092 0.32624-0.10682 0.03704-0.134 0.03942-0.24401 0.04941 0.03109 0.02481 0.03345 0.0523 0.06379 0.0774 0.11567 0.04506 0.39478 0.07543 0.49605-0.01677 0.04868-0.05981 0.04312-0.11485 0.03435-0.19698 0.106-0.03704 0.15787-0.06938 0.20099-0.18422-0.0089-0.08211-0.04548-0.16188 0.03109-0.22415 0.04868-0.05981 0.15787-0.06979 0.24082-0.0774-0.12762-0.15427-0.23125-0.08976-0.3988-0.1025-0.08448-0.01986-0.11804-0.07254-0.20336-0.0924-0.08211 0.0075-0.15787 0.06979-0.27354 0.02468-0.08531-0.02039-0.1763-0.0953-0.26079-0.11526-0.08862-0.04744-0.31348-0.08252-0.30072-0.22219 0.02152-0.05743 0.0462-0.08728 0.10045-0.09209 0.02478-0.02985 0.05186-0.03233 0.07977-0.03508l0.03911 0.10775c0.29197-0.1093 0.19698 0.03746 0.44984 0.07021 0.22734 0.06258 0.49533-0.01676 0.72657 0.07336 0.14285 0.04218 0.09654 0.12957 0.22096 0.25677 0.15159 0.12525 0.36771 0.07781 0.55903 0.06063-0.02387 0.02995-0.05167 0.03275-0.04858 0.05981-0.0463 0.08738 0.0144 0.13718 0.07264 0.15952 0.20562 0.1201 0.51128-0.12875 0.24967-0.2436l0.4203-0.20377c-0.20336-0.0925-0.30401-4.24e-4 -0.57118-0.17033 0.13729-0.01237 0.16425-0.01469 0.2649-0.10693l0.01583-0.11238 0.445-0.23372c-0.14099 0.23413 0.0177 0.16466 0.07102 0.40919 0.13729-0.01236 0.3071 0.02747 0.44438 0.01552 0.10682-0.03746 0.39869-0.14675 0.47526-0.20902 0.07574-0.06217 0.09488-0.14675 0.17063-0.20892l0.31677-0.13925c0.12844-0.09447 0.2258-0.21406 0.32377-0.33375 0.04858-0.05981 0.09737-0.11959 0.18278-0.09933 0.11485 0.04506 0.14429 0.31944 0.15622 0.42916 0.03663 0.07978 0.07574 0.18658 0.08459 0.26912-0.01687 0.36133-0.39643 0.42319-0.62531 0.60977-0.15231 0.12442-0.26881 0.32861-0.4275 0.39838-0.20418 0.15674-0.78894 0.37533-1.0569 0.45468l-0.56871 0.10642c-0.1307 0.06741-0.28301 0.19183-0.32603 0.30627-0.04322 0.11485 0.02613 0.24689-0.10456 0.31389-0.13091 0.06741-0.67553 0.14357-0.81518 0.12885-0.22487-0.03549-0.14912-0.09778-0.47773-0.06824-0.30072 0.02716-0.62613 0.08417-0.93632 0.02871 0.04858-0.05981 0.14676-0.17948 0.16508-0.26398 0.02152-0.05743-0.0088-0.08252-0.01512-0.13718-0.0025-0.02716-0.0089-0.08211-0.03911-0.10724-0.06379-0.0774-0.2824-0.05784-0.36452-0.05034-0.18906 0.04465-0.15551 0.09695-0.45622 0.12401l-1.0105 0.11846c-0.49214 0.04392-0.88537 0.24566-1.0768 0.26284-0.13719 0.01237-0.44428-0.01551-0.58703-0.05825-0.11557-0.04506-0.23681-0.14511-0.36771-0.07771-0.13399 0.03984-0.17701 0.15427-0.33488 0.22363-0.1588 0.0699-0.45941 0.09696-0.63972 0.22373-0.17948 0.1269-0.08573 0.22929-0.29588 0.33108-0.10652 0.03746-0.46507 0.0418-0.60215 0.05411-0.30391-2.12e-4 -0.45632 0.12412-0.72143 0.23094l-0.29238 0.1093c-0.10642 0.03704-0.32264 0.08418-0.36844 0.17145-0.04589 0.08697 0.02068 0.19183 0.02954 0.27437 0.0088 0.08211-0.0097 0.16672-0.0284 0.25163-0.14315 0.20665-0.512 0.37811-0.45179 0.67759 0.04785 0.18947 0.16034 0.20696 0.37245 0.38161 0.27879 0.27962 0.4873 0.67635 0.78761 0.89855 0.38809 0.26994 0.94959 0.6073 1.4297 0.7026l0.8335 0.03591c0.44665 0.04273 0.78966 0.15077 1.2586 0.13605l1.0305-0.17546c0.21931-0.01956 0.54472-0.07657 0.77278-0.01401 0.22816 0.06258 0.27282 0.22487 0.68356 0.18782l0.5719-0.07895c0.134-0.03953 0.24082-0.07698 0.38603-0.0068 0.35248 0.18988-0.24484 0.54792 0.02789 0.77289 0.15159 0.12484 0.6532 0.16271 0.85419 0.22765 0.13966 0.01522 0.57982 0.25245 0.67409 0.35495 0.06053 0.04982 0.06606 0.10487 0.12988 0.18226 0.06296 0.0774 0.20665 0.11969 0.2153 0.20223 0.0089 0.08211-0.16816 0.2365-0.21694 0.29629-0.14984 0.1519-0.44016 0.53793-0.27663 0.77247 0.06379 0.07729 0.23691 0.1447 0.32542 0.19214l0.79841 0.23289c0.346 0.13523 0.37564 0.4096 0.58538 0.55677 0.1484 0.09768 0.39478 0.07533 0.5895 0.08573l0.82311 0.20295c0.28631 0.08542 0.16672 0.26202 0.39149 0.29711 0.47464 0.04077 1.2031-0.3848 1.5898-0.64085l0.78565-0.40284c0.3143-0.16662 0.59732-0.35845 0.88054-0.54987 0.5368-0.40795 0.97625-0.94599 1.2426-1.5513 0.09178-0.17424 0.35176-0.58548 0.36782-0.69746 0.03663-0.1695-0.13976-0.26449-0.07184-0.40878 0.08852-0.20222 0.44583-0.48339 0.53124-0.71227 0.07103-0.11722 0.05024-0.30905-0.06876-0.3816-0.11485-0.04506-0.19142 0.01708-0.41948-0.04548 0.17228-0.45828 0.48411-0.90174 0.74346-1.3129 0.11959-0.1766 0.33324-0.50048 0.33736-0.72215 8.43e-4 -0.24926-0.22189-0.25729-0.31512-0.35938-0.09097-0.07491-0.07021-0.13235-0.12762-0.15509-0.11485-0.04465-0.29825 0.05463-0.41063 0.03704-0.08231 0.0072-0.14284-0.0426-0.20027-0.06493-0.08852-0.04744-0.19471-0.0104-0.27684-0.0032-0.1235-0.37646 0.13399-1.064 0.26016-1.4352 0.24556-0.79728 0.57426-1.6024 0.4553-2.4499l-0.126-0.65313c-0.0358-0.08019-0.10209-0.18463-0.20892-0.14758-0.16116 0.04232-0.30318 0.52569-0.37008 0.66997l-0.37008 0.67039c-0.09488 0.14675-0.15643 0.3462-0.28157 0.46815-0.10065 0.09219-0.25934 0.16158-0.39005 0.22857-0.04241-0.1344-0.12124-0.09973-0.22806-0.06227l-0.49625 0.26604c-0.10353 0.06462-0.30771 0.22137-0.445 0.23372-0.1093 0.01-0.1731-0.06741-0.33406-0.02551-0.1093 0.01-0.29516 0.08211-0.38058 0.06173-0.11238-0.01748-0.23362-0.11722-0.3462-0.13472-0.08438-0.02039-0.24638 0.02194-0.32541 0.0566-0.27375 0.02468-0.70208-0.10333-0.9851-0.16076 0.05188-0.03233 0.10683-0.03704 0.10127-0.09209 0.03994-0.14192-0.17866-0.37162 0.08935-0.45107 0.02716-0.0024 0.08211-0.0075 0.10929-0.0099l0.46806-0.01441 0.27149-0.05186c0.13955 0.01522 0.17619 0.09499 0.36761 0.07781l0.67244-0.17104c0.27437-0.02478 0.3851 0.24247 0.66915 0.05065 0.23135-0.1591 0.44912-0.70507 0.53207-0.96153l0.23917-0.60298 0.09261-0.42349c0.10436-0.3143 0.19924-0.46106 0.16096-0.81755l-0.05577-0.52126c-0.0239-0.21931-0.06855-0.38161-0.29434-0.16744-0.17454 0.18185-0.23608 0.3812-0.51519 0.35094-0.07409 0.339-0.02716 0.77762-0.36535 0.97429-0.12843 0.09447-0.27108 0.05179-0.40424 0.09168-0.07988 0.03466-0.1836 0.09973-0.24103 0.07698-0.08211 0.0071-0.14264-0.0427-0.15149-0.12484 0.01522-0.11207 0.20109-0.18422 0.28075-0.219 0.2649-0.10682 0.3989-0.14676 0.59423-0.38562 0.11876-0.17702 0.13152-0.31667 0.22641-0.46342 0.09737-0.11959 0.18278-0.09964 0.28013-0.2189 0.07326-0.08976 0.20809-0.37882 0.27828-0.49574l0.33485-0.9993c0.16198-0.29156 0.43327-0.34343 0.50428-0.7099l0.04221 0.13482c0.2896-0.13677 0.28713-0.41351 0.23053-0.6851 0.16425-0.01479 0.49852 0.0104 0.63252-0.02913l0.62119-0.38799c0.15561-0.09737 0.41166-0.28641 0.4483-0.45591 0.04301-0.11444-0.13482-0.48607-0.19863-0.56346-0.03273-0.05228-0.06296-0.0774-0.12123-0.09971-0.14284-0.04263-0.33097 0.0021-0.43388-0.18267-0.12762-0.15468-0.26882-0.6958-0.37399-0.90801-0.22662-0.56109-0.24164-0.44902-0.34785-0.66102-0.06938-0.13214-0.0566-0.2718-0.07182-0.40898-0.0389-0.10703-0.10271-0.18442-0.10827-0.23948-0.01215-0.1096 0.06441-0.17187 0.13791-0.2614 0.11567-0.20439 0.09799-0.36885 0.22332-0.4909 0.10044-0.09209 0.18895-0.04444 0.23444-0.13173 0.16837-0.2365-0.23835-0.42154-0.10127-0.68315 0.07021-0.11711 0.26881-0.32861 0.40589-0.34106 0.10621-0.03704 0.19471 0.01018 0.30072-0.02685 0.10374-0.06483 0.11094-0.25924 0.15396-0.37388 0.10682-0.28652 0.27437-0.27376 0.31512-0.66493 0.01277-0.13965 0.01914-0.33426-0.04713-0.43893-0.12762-0.15489-0.3071-0.02789-0.35012 0.08676-0.09488 0.14675-0.07409 0.339-0.0566 0.50346-0.0097 0.16693-0.04077 0.39117-0.13564 0.53814-0.11567 0.20439-0.35258 0.0595-0.41948-0.04517-0.03275-0.05248-0.01112-0.1097-0.01749-0.16476 0.0039-0.22189-0.05991-0.29907-0.0041-0.55327 0.01522-0.11228 0.11959-0.42617 0.08707-0.47855-0.0097-0.08231-0.26099-0.36411-0.32398-0.44171-0.12432-0.1272-0.34847-0.41176-0.55574-0.28229-0.18278 0.09933-0.14449 0.45601-0.17866 0.65278-0.01852 0.08469-0.05598 0.2542-0.13811 0.26161-0.05106 0.03234-0.14264-0.0427-0.20254-0.09251-0.15478-0.15232-0.24885-0.25461-0.2752-0.5015 0.08459 0.01996 0.31266 0.08273 0.3285-0.02954-0.01194-0.1096-0.14182-0.29186-0.25193-0.28188-0.11238-0.01759-0.12761 0.09447-0.27684-0.0028-0.12123-0.09993-0.39005-0.54658-0.51766-0.70136-0.16013-0.20717-0.39951-0.37944-0.63395-0.49687-0.14202-0.04242-0.6039-0.22271-0.73214-0.12803-0.05186 0.03233-0.0432 0.11444-0.06462 0.17166-0.03027-0.02468-0.06074-0.04982-0.11485-0.04496-0.1978-0.03756-0.25605 0.18916-0.26881 0.32881 0.0056 0.05474 0.01749 0.16466-0.06156 0.19934-0.07967 0.03466-0.14037-0.01511-0.20109-0.06513-0.1484-0.09737-0.15149-0.12484-0.35176-0.18988 0.03911 0.10724 0.07822 0.21458 0.14449 0.31924 0.16096 0.20717 0.27025 0.19718 0.24473 0.4766-0.23053-0.09018-0.49132-0.20501-0.64919-0.3849l0.21303-0.0745-0.0058-0.05463c-0.08769-0.04765-0.3884-0.26984-0.40034-0.37945-0.0089-0.08231 0.10044-0.0923 0.09178-0.17454 0.01914-0.08469-0.06938-0.13214-0.02633-0.24678 0.07326-0.08976 0.23197-0.15932 0.22004-0.26902-0.0064-0.05484-0.0669-0.10466-0.12432-0.1272-0.11815-0.07253-0.32789-0.21972-0.45303-0.09788-0.10045 0.09209-0.02469 0.2791-0.0805 0.5333-0.08542-0.01986-0.23135-0.09007-0.31595-0.11002-0.11238-0.01759-0.24329 0.04941-0.38922-0.02039-0.20089-0.06514-0.27273-0.22487-0.44583-0.29249-0.31904-0.13739-0.58702-0.05784-0.88527-0.0034-0.13646 0.01215-0.35588 0.03192-0.48658 0.09892-0.10374 0.06483-0.15005 0.1519-0.19554 0.23907-0.12185 0.14953-0.36288 0.22631-0.33879 0.44562 0.04775 0.18968 0.2153 0.20243 0.27581 0.25204l0.17475 0.34456c-0.18833 0.04444-0.27684-0.0028-0.44027 0.01186l-0.64848 0.1411c-0.3318 0.0023-0.43471-0.18237-0.63807-0.27489-0.11485-0.04506-0.19698-0.03777-0.28548-0.08521-0.09099-0.07471-0.09973-0.15705-0.13009-0.18227-0.06379-0.07709-0.34291-0.10765-0.42504-0.10024 0.0056 0.05505 0.0088 0.08231-0.03994 0.14192-0.0462 0.08738-0.28075 0.2192-0.39004 0.22898-0.05178 0.03233-0.13719 0.01237-0.19461-0.01018l0.01522-0.11228c0.01279-0.13934-0.06948-0.13204-0.17547-0.09489-0.16199 0.04219-0.25924 0.16168-0.38768 0.25625 0.04631-0.08717 0.08935-0.20181 0.16271-0.29135 0.10054-0.09209 0.23454-0.13203 0.36534-0.19903l0.41392-0.25865c0.10363-0.06462 0.26243-0.13441 0.33818-0.19657 0.22888-0.18669 0.27674-0.77227 0.21694-1.0715-0.42349 0.17619-0.31111 0.19379-0.59742 0.35804-0.10363 0.06462-0.15869 0.06969-0.23763 0.10435-0.07585 0.06236-0.09499 0.14717-0.11331 0.23166zm2.9049-1.0082 0.26963 0.19739 0.20563 0.36905c0.15808-0.06959 0.17948-0.12679 0.28651-0.16404 0.05167-0.03233 0.39231 0.04785 0.31327-0.16652-0.03026-0.02509-0.06053-0.05003-0.09078-0.07491l-0.01831 0.08469c-0.09096-0.07491-0.21221-0.17485-0.32788-0.21993-0.11568-0.04485-0.50181-0.03787-0.63807-0.02571zm0.92685 0.13842c0.38284-0.03425 0.31657-0.13924 0.53598-0.15879 0.106-0.03746 0.27581 0.0029 0.3884 0.02039l-0.01522 0.11207c0.23053 0.09018 0.21612-0.04703 0.38614-7e-3 0.1731 0.06762 0.2791 0.27982 0.56459 0.36473 0.11485 0.04527 0.1731 0.06762 0.27684 3e-3 0.06607 0.10487 0.09406 0.1025 0.20336 0.0925 0.01277-0.13955 0.09157-0.17444 0.05494-0.25419-0.0358-0.07998-0.32459-0.19245-0.34929 0.08687-0.09737-0.12998-0.04548-0.1623-0.08131-0.24185-0.09737-0.12998-0.29187-0.14017-0.42607-0.10044-0.0566-0.2718-0.0206-0.19204-0.39951-0.37945-0.11876-0.07243-0.37955-0.18751-0.51993-0.20263-0.16672-0.01277-0.20974 0.10188-0.34065 0.16908-0.07326 0.08976-0.1587 0.06958-0.23444 0.13183-0.07347 0.08955-0.05577 0.2542-0.04382 0.3639zm5.7842-1.2114 0.3462 0.38448c0.13009 0.18206 0.25996 0.36432 0.41475 0.51643 0.12123 0.09993 0.29433 0.16754 0.4555 0.12545 0.10682-0.03735 0.42977-0.3709 0.1659-0.51344-0.0879-0.04734-0.21941 0.01975-0.30072 0.02706 0.0064-0.1944-0.0056-0.30411-0.05349-0.49368-0.0056-0.05484-0.01749-0.16445-0.12453-0.1272-0.1307 0.0672 0.02328 0.46857-0.18339 0.34867l-0.08769-0.04744-0.09098-0.07491c-0.09799 0.11938 0.01749 0.16445 0.11177 0.26675 0.12123 0.10014 0.21447 0.20243 0.2328 0.36689-0.29742-0.19502-0.31492-0.35928-0.50634-0.59135-0.1237-0.1274-0.21468-0.20243-0.37975-0.18771zm1.1876-0.27252c0.07491 0.18699 0.36843 0.6038 0.56953 0.66874-0.13647-0.23691-0.31183-0.58126-0.56953-0.66874zm-20.265 2.0121c0.08211-0.0074 0.19183-0.01717 0.24638-0.02214l0.71392 0.21283c0.1978 0.03766 0.39241 0.04796 0.5224 0.23001-0.35578 0.03213-0.27993-0.03027-0.56233-0.0879-0.25204-0.03275-0.3286 0.02954-0.52322 0.01914-0.11249-0.01759-0.16991-0.04004-0.25523-0.06001l-0.73296 0.12103c-0.19461-0.01018-0.23691-0.1448-0.35259-0.18988-0.11804-0.07254-0.22487-0.03528-0.3286 0.02954-0.18504 0.07202-0.36524 0.19883-0.54514 0.32583-0.3354 0.22373-0.72215 0.48009-0.96348 0.80633-0.16785 0.2365-0.12597 0.37131-0.29392 0.60781-0.17064 0.20912-0.56387 0.41053-0.82949 0.76682-0.19255 0.26644-0.17505 0.4309-0.24802 0.52064-0.0491 0.0596-0.38727 0.25625-0.46661 0.29094-0.07895 0.03467-0.16106 0.04211-0.21293 0.0746-0.07616 0.06216-0.12206 0.14933-0.16827 0.2366l-0.27118 0.30114c-0.07021 0.11701-0.35495 0.5579-0.37049 0.67018-0.0068 0.19441 0.30669 0.27715 0.1412 0.54113-0.02439 0.02975-0.04868 0.0597-0.07305 0.08976-0.17979 0.12679-0.22806-0.06278-0.36761-0.07791-0.17032-0.04015-0.42349 0.17639-0.57508 0.05158-0.09406-0.1023-0.05381-0.24421-0.06534-0.35402-0.04232-0.13461-0.10291-0.18453-0.14202-0.29177-0.06979-0.13245-0.01431-0.38665-0.2082-0.6461-0.09964-0.15704-0.21489-0.20212-0.3038-9.8e-5l-0.06462 0.17166c-0.10847-0.23927-0.04713-0.43872-0.24493-0.4766-0.25194-0.03254-0.32892 0.279-0.47567 0.45818-0.36617 0.44829-0.4271 0.39838-0.70754 0.61717l-0.37205 0.39344-0.23207 0.15931c-0.12484 0.12196-0.20778 0.37862-0.272 0.55049l-0.2684 1.1041c-0.05867 0.22651-0.15715 0.59577-0.39756 0.67234-0.07905 0.03466-0.3286 0.02954-0.41361 0.0096-0.08811-0.04744-0.15149-0.12473-0.2365-0.14511-0.08211 0.0076-0.30143 0.02706-0.50479-0.06545-0.12123-0.09962-0.28157-0.30699-0.39725-0.35165-0.11526-0.04548-0.22487-0.03549-0.33416-0.02551-0.13719 0.01194-0.32861 0.02944-0.44109 0.01194-0.28548-0.0851-0.4698-0.51169-0.57828-0.75118-0.03901-0.10723-0.11166-0.26696-0.19976-0.3144-0.12123-0.09993-0.26757 0.07936-0.41032 0.03684-0.11248-0.0177-0.36134-0.2721-0.50685-0.3423-0.03037-0.02499-0.12164-0.09972-0.1731-0.06741-0.05464 0.0048-0.07062 0.11722-0.09178 0.17424-0.0039 0.22198 0.05712 0.2718 0.18391 0.42668 0.03026 0.02478 0.12442 0.12731 0.04785 0.18946-0.12761 0.09447-0.31183-0.332-0.4554-0.12524-0.02163 0.05743-0.01842 0.0848-0.04312 0.11444l-0.05463 0.0051-0.13235-0.45879-0.02039-0.19204-0.18422-0.42648-0.22569 0.21406-0.05391-0.24442-0.07533-0.18699c-0.04232-0.13461-0.15149-0.12484-0.25523-0.06033-0.20418 0.15695-0.34538 0.39108-0.47299 0.48555-0.1555 0.09716-0.27396 0.02458-0.38037 0.06184-0.1308 0.0672-0.22261 0.24144-0.26284 0.38366l-0.21056 1.1264c-0.18226 0.87488-0.29866 1.0791-0.19822 2.0115l0.11084 0.51611 0.10415 0.71062 0.09292 0.35166 0.05494-0.0052c-0.03828-0.35649-0.02706-1.0221 0.07419-1.3634 0.09892-0.36854 0.25687-0.43831 0.2648-0.88218l0.06545 0.35454c0.14953-0.15242 0.1379-0.26202 0.34775-0.3637 0.06979 0.13194 0.10003 0.15715 0.14511 0.31945 0.04228 0.1343 0.05381 0.24401 0.1236 0.37646 0.06948 0.13193 0.12689 0.15468 0.19348 0.25955 0.06379 0.07698 0.10569 0.2118 0.1447 0.31904 0.07585 0.1871 0.13564 0.48658 0.36329 0.54915 0.08904-0.20182 0.06265-0.44861 0.06586-0.6707 0.02152-0.05743 0.03151-0.22414 0.08293-0.25646 0.13399-0.03994 0.18823 0.20459 0.19698 0.28672 0.07823 0.21458 0.13523 0.48658 0.26521 0.66833 0.13595 0.23732 0.24288 0.19986 0.42072 0.57148l0.04025-0.14192c0.07543 0.187-0.01946 0.33416 0.1871 0.45385-0.01194-0.1097-0.03425-0.57827 0.01112-0.66565 0.02162-0.05743 0.10374-0.06462 0.1588-0.06938l0.12761 0.92993c0.01154 0.10971 0.05339 0.24453 0.11722 0.32192 0.15468 0.15232 0.33458 0.02509 0.40394 0.15746l0.10806 0.48854c0.09292 0.35176 0.22261 0.78328 0.36689 1.1023 0.10888 0.23958 0.25368 0.55903 0.43872 0.73615 0.06379 0.0774 0.15756 0.17989 0.26398 0.14233 0.10693-0.03704 0.06462-0.17187 0.08293-0.25636 0.01594-0.11207 0.06741-0.14439 0.08614-0.22929 0.01277-0.13966-0.03275-0.30195 0.03746-0.41876-0.03663 0.1695 0.02079 0.19183 0.0387 0.35649 0.02359 0.21932 0.0774 0.46384 0.15592 0.678 0.11732 0.32223 0.20459 0.61852 0.40126 0.90565 0.13039 0.18226 0.4307 0.40435 0.61254 0.5543 0.24885 0.2544 0.49409 0.48174 0.7944 0.70383l0.35814 0.24493 0.29742 0.19502c0.26408 0.14233 0.29197-0.10971 0.45622-0.12412 0.08531 0.01996 0.38521 0.24206 0.47619 0.31708 0.46106 0.42946 0.30946 0.30473 0.62768 0.69148l0.71783 0.7661c0.18504 0.17711 0.41474 0.51684 0.66719 0.54915l0.25245 0.03312c0.2824 0.05784 0.59824 0.16785 0.8933 0.08573 0.10971-0.01 0.18586-0.07185 0.23485-0.13163 0.07305-0.08976 0.11609-0.20418 0.22579-0.21417 0.11238 0.01759 0.37368 0.13246 0.48884 0.17784 0.29156 0.13966 0.70435 0.37966 1.0142 0.43471 0.31018 0.05546 0.53279-0.18617 0.48174-0.40312-0.07822-0.21457-0.406-0.4343-0.58106-0.77845-0.1695-0.28919-0.28672-0.611-0.48061-0.87065l-0.445-0.54154-0.26644-0.41917-0.12998-0.18216c-0.03342-0.0523-0.08129-0.24175-0.09017-0.32429l-0.30464-0.77567c-0.13883-0.26438-0.4132-0.23969-0.59104-0.61131 0.1272 0.15468 0.37008 0.35454 0.54277 0.42195-0.07812-0.21458-0.25327-0.55872-0.38367-0.74098l-0.27868-0.27951c0.15149 0.12473 0.27272 0.22487 0.47052 0.26233l0.05825-0.22692c0.08614-0.22929 0.16508-0.26397 0.16312-0.54071-0.02276-0.46857-0.4555-1.1498-0.51725-1.7256-0.02675-0.24689 0.02871-0.50088 0.05701-0.75251l0.0076-0.44387c-0.0089-0.08221 0.03984-0.14244 0.05577-0.2541l-0.0052-0.30421c0.03704-0.1695 0.05857-0.22693 0.04108-0.39169l-0.13245-0.45859-8e-3 -0.3318-0.04744-0.43862c-0.03549-0.32902 0.14151-0.48339 0.17269-0.70754 0.01594-0.11238-0.12607-0.40435-0.1871-0.45416-0.08811-0.04744-0.27632-0.0028-0.20933-0.14717 0.06741-0.14439 0.31584 0.11002 0.37965 0.18741 0.07978-0.28394 0.01914-0.33416-0.03466-0.57848l-0.10415-0.71062c-0.04785-0.18957-0.16909-0.28929-0.17824-0.37162 0.01874-0.08479 0.10085-0.09219 0.19821-0.2116 0.09809-0.11958 0.13801-0.26161 0.15077-0.40116l0.0048-0.47125c0.03078-0.22425 0.22013-0.51817 0.46106-0.59516 0.24329-0.04941 0.49173 0.20501 0.6285 0.19286 0.13718-0.01247 0.20418-0.15674 0.25039-0.24411l0.31584-0.9144 0.05505-0.0051c0.13595 0.23732 0.27879 0.27972 0.46342 0.45704l0.15787 0.17969c0.03037 0.02488 0.08221-0.0075 0.13399-0.03973 0.09737-0.11948 0.21458-0.57303 0.14521-0.70527-0.03911-0.10724-0.16034-0.20717-0.20264-0.34178-0.0088-0.08231 0.03715-0.1695 0.08293-0.25656 0.06462-0.17207 0.09861-0.36895 0.22332-0.4909 0.2473-0.27138 0.74016-0.31574 1.0405-0.09333 0.152 0.12484 0.13286 0.20954 0.19667 0.28693 0.09406 0.1023 0.23084 0.09014 0.27591 0.25224 6e-3 0.05484-0.0064 0.1944-0.02509 0.2791 0.01791 0.16456 0.05065 0.21694-0.01362 0.38881-0.09168 0.17434-0.24401 0.29876-0.30586 0.49811-0.08573 0.22929 0.05422 0.24452 0.01996 0.4413-0.06144 0.19945-0.21098 0.35135-0.27241 0.5507-0.07062 0.11711-0.05856 0.22672-0.18618 0.3213-0.10374 0.06451-0.27118 0.05197-0.38047 0.06175-0.16147 0.04211-0.2895 0.13678-0.4203 0.20387 0.0056 0.05494 0.01154 0.10961 0.04465 0.1621 0.04537 0.16209 0.18226 0.14974 0.31584 0.11002 0.21612-0.04682 0.50243-0.21118 0.71505-0.03642 0.18463 0.17742 0.24082 0.69848 0.39838 0.87806 0.15149 0.12484 0.26119 0.11506 0.43142 0.1552 0.11526 0.04506 0.20346 0.09251 0.29434 0.16744 0.21221 0.17465 0.14521 0.31924 0.24164 0.44891 0.09096 0.07471 0.17032 0.04046 0.26408 0.14254l0.40229 0.65598 0.27725-0.24638c0.09406 0.1024 0.20377 0.0924 0.21612-0.04713-0.0088-0.08212-0.05339-0.24401-0.09016-0.32418 0.18504 0.17742 0.19986 0.31461 0.19903 0.56387 6e-3 0.05463-0.01552 0.11207 0.01791 0.16476 0.01164 0.10919 0.1448 0.31903 0.23568 0.39396 0.11846 0.07214 0.19739 0.03746 0.30112-0.02716 0.09488-0.14675 0.15036-0.40116 0.2967-0.58023 0.12247-0.14954 0.36566-0.19894 0.58548-0.46816-0.05743-0.02235-0.23053-0.08976-0.21221-0.17464 0.04302-0.11444 0.20737-0.12926 0.31101-0.19399 0.15242-0.12442 0.26882-0.32881 0.30278-0.52548l-0.33468-0.02551-0.19739-0.03766-0.27396 0.02478-0.26953-0.19749-0.38922-0.02049c0.067-0.14439 0.1132-0.23176 0.27756-0.24648 0.0821-0.0074 0.19739 0.03787 0.24926 0.0056 0.10642-0.03746 0.09447-0.14717 0.17105-0.20933 0.14634-0.17928 0.36205-0.22631 0.39365-0.45066 0.22487 0.03508 0.27396-0.02448 0.38603-7e-3 0.23084 0.08997 0.30267 0.49893 0.40836 0.71104-0.28559-0.08511-0.23176 0.15921-0.23856 0.35361 0.10374-0.06462 0.2258-0.21396 0.33221-0.25132l0.35897-0.0046c0.0821-0.0074 0.10641-0.03715 0.18586-0.07201 0.18854-0.04444 0.31296 0.08272 0.41268 0.23989 0.10374-0.06462 0.09778-0.11958 0.03109-0.22435l0.13688-0.01237-0.07822-0.21426c-0.13677 0.01215-0.16754-0.01279-0.20737 0.12915-0.11804-0.07233-0.11804-0.07233-0.25801-0.08759l0.10086-0.09189-0.0064-0.05505c-0.23362-0.11743 0.03435-0.19677 0.07419-0.3389 0.01874-0.0848-0.01432-0.13698-0.04786-0.18947l0.34415-0.14171c0.14634-0.17907 0.27077-0.05189 0.33221-0.25132 0.2824 0.05784 0.18947-0.29382 0.4028-0.36843 0.05148-0.03233 0.13636-0.01215 0.19142-0.01717 0.07895-0.03466 0.15787-0.06938 0.23763-0.10425 0.1093-0.0098 0.16435-0.0145 0.27036-0.0521 0.10374-0.06452 0.19862-0.21149 0.272-0.30102 0.04868-0.06012 0.14912-0.152 0.17073-0.20943 0.01831-0.08469-0.01759-0.16425-0.03192-0.30164 0.11238 0.01748 0.19461 0.01018 0.26716-0.07936 0.07657-0.06228 0.06462-0.17197-0.05106-0.21694-0.02716 0.0026-0.10929 0.01-0.13636 0.01237l0.378-0.33858 0.07419-0.339-0.10693 0.03725 0.03756-0.1695-0.30154 0.02716c0.04868-0.05981 0.19543-0.23907 0.24411-0.29887 0.12844-0.09457 0.26799-0.07936 0.33262-0.25152-0.27046 0.05208-0.60297 0.30339-0.77371 0.51251l-0.26645 0.35608 0.01605-0.11207c-0.26799 0.07957-0.25049 0.24411-0.35423 0.30874l-0.05177 0.03223c0.08211-0.0074-0.46816 0.01441-0.38284 0.03456-0.13997-0.01522-0.29156-0.13996-0.41279-0.2401-0.09128-0.07481-0.15437-0.15211-0.25801-0.08738l-0.51266-0.3969c0.04858-0.05981 0.07336-0.08976 0.01277-0.13976-0.06063-0.04992-0.20336-0.0925-0.32181-0.16497-0.21262-0.17464-0.20264-0.34178-0.22939-0.58857-0.02307-0.21931-0.05106-0.21694-0.12597-0.40404-0.03632-0.07998-0.04232-0.13471-0.10611-0.2121-0.06338-0.0774-0.21211-0.17465-0.30308-0.24967-0.12123-0.09974-0.27272-0.22466-0.41269-0.2399-0.19739-0.03746-0.34981 0.08697-0.52044 0.04672-0.14274-0.0425-0.32747-0.21972-0.50047-0.28734-0.11249-0.01759-0.24926-0.0053-0.35897 0.0046-6e-3 -0.05484-0.01791-0.16445-0.07533-0.187-0.0878-0.04744-0.24648 0.02214-0.35578 0.03192-0.1096 0.0098-0.14593-0.07-0.23084-0.09018-0.085-0.01996-0.47145-0.01298-0.52044 0.04672-0.05189 0.03244-0.01522 0.11218-0.0096 0.16703zm19.565-2.8631c0.22415 0.28446 0.62448 0.6639 0.96184 0.7168-0.09963-0.15736-0.18504-0.17722-0.30627-0.27715-0.17866-0.12247-0.48246-0.37214-0.65557-0.43965zm-2.1919-1.1047-0.06936-0.13224c0.11568 0.04486 0.23135 0.08995 0.29763 0.19482 0.0358 0.07978 0.04221 0.13461 0.05106 0.21694 0.01749 0.16456 0.30545 0.52641 0.47217 0.53896 0.05805 0.02256 0.05494-0.0048 0.10991-0.0098l-0.1412-0.54112c-0.06379-0.0774-0.14264-0.04253-0.2367-0.1448l-0.56953-0.66895c-0.03355-0.05249-0.16034-0.20717-0.14202-0.29176 0.04858-0.05981 0.18586-0.07213 0.24082-0.07688l-0.52157-0.47938c-0.06074-0.05003-0.15478-0.15232-0.26161-0.11506-0.10621 0.03725-0.14614 0.17928-0.19245 0.26635-0.04548 0.08738-0.11876 0.1769-0.11012 0.25924 0.03911 0.10734 0.16364 0.23454 0.22682 0.31183l0.48576 0.39941c0.12432 0.12741 0.1873 0.2048 0.3604 0.27242zm7.0978-0.05546c-0.07183-0.40899-0.33509-0.80058-0.64363-1.1051l-0.48575-0.39951c-0.18751-0.2046-0.39005-0.54637-0.66607-0.79862-0.30298-0.24967-0.53104-0.31224-0.80067-0.50963l-0.45859-0.40199-0.81838-0.67419c-0.21221-0.17464-0.46414-0.45683-0.62448-0.66379-0.16364-0.23465-0.11732-0.32182-0.21139-0.42411-0.06379-0.0774-0.29434-0.16755-0.40672-0.18504l0.04301-0.11465-0.20336-0.09251c0.1132-0.23166-0.04548-0.16209-0.20583-0.36905-0.06379-0.0774-0.07491-0.18731-0.17536-0.34436-0.15725-0.1797-0.367-0.32706-0.57282-0.44686l-0.99848-0.54742c-0.32233-0.16487-0.7628-0.40239-1.124-0.42524-0.27684-0.0029-0.45385 0.15149-0.72514 0.20336-0.24308 0.04961-0.76877 0.04149-0.93714 0.27797-0.17063 0.20912 0.25687 0.5862 0.41166 0.73851l0.43306 0.43173c0.12453 0.12741 0.16034 0.20717 0.28714 0.36185 0.12206 0.09993 0.35814 0.24494 0.4555 0.37451 0.09654 0.12978-0.06462 0.17207 0.06524 0.35413 0.09983 0.15715 0.34312 0.35691 0.41578 0.51663 0.03911 0.10724 0.0566 0.2718 0.14758 0.34682 0.08769 0.04744 0.19142-0.01738 0.27355-0.02478 0.134-0.03963 0.52734-0.24102 0.64527-0.16847 0.11815 0.07233 0.52157 0.47917 0.61584 0.58167 0.06053 0.04982 0.18422 0.17701 0.1659 0.26202 0.01501 0.13698-0.41639-0.01821-0.31348 0.16641 0.03334 0.05249 0.29742 0.19482 0.3884 0.26984l0.33653 0.30206 0.39087 0.29711c0.09096 0.07502 0.1906 0.23207 0.2791 0.27962 0.1731 0.06751 0.26161-0.1342 0.41084-0.03694 0.29104 0.13996 0.49996 0.5368 0.80314 0.78637 0.20583 0.1199 0.25749 0.08759 0.43059 0.1552 0.14593 0.07 0.2402 0.17228 0.3884 0.26974 0.23382 0.11742 0.25296 0.03273 0.52568 0.25749 0.3637 0.29948 0.67326 0.60411 0.9851 0.93611 0.12432 0.1272 0.43059 0.40435 0.57344 0.44685 0.02716-0.0024 0.05412-0.0048 0.08211-0.0074l0.31348-0.16652s0.02799-0.0027 0.02468-0.02995c0.01831-0.08469 0.0064-0.1944 0.02468-0.2792 0.01914-0.08469 0.07103-0.11702 0.08624-0.22929 0.01831-0.08449 8.42e-4 -0.24926 0.07967-0.28394 0.07988-0.03487 0.23135 0.08997 0.28878 0.11248zm-6.6814-7.126c-0.01194-0.1097-0.04221-0.13461-0.08129-0.24185-0.16363-0.23454-0.34538-0.38428-0.6039-0.47207-0.08438-0.01986-0.33962-0.08019-0.38593 7e-3 -0.0702 0.11702 0.22723 0.31204 0.31492 0.35948 0.09098 0.07481 0.20665 0.11989 0.29763 0.19492 0.17619 0.09489 0.26078 0.11495 0.45859 0.15252zm-10.724-2.3051c0.36216 0.02276 0.49852 0.01061 0.84462 0.14552 0.31584 0.11012 0.50088 0.28734 0.86304 0.31029l-0.406-0.4343 0.23135-0.1591c-0.12123-0.09993-0.17547-0.09509-0.29434-0.16744-0.06064-0.04993-0.06617-0.10487-0.12679-0.15478-0.05505 0.0051-0.19224 0.01717-0.24648 0.02214-0.16188 0.04211-0.29516 0.082-0.48092 0.15396-0.16199 0.04211-0.37728 0.08914-0.38449 0.28374zm1.6598-0.75807c-0.03994 0.14192-0.17392 0.18165-0.30226 0.27612 0.03027 0.02488 0.03345 0.05249 0.06379 0.0774 0.08852 0.04744 0.53834 0.11784 0.65083 0.13554 0.27674 0.0029 0.28631-0.16404 0.61172-0.22106l0.40754-0.0642c0.38284-0.03446 0.90606-0.0536 1.2474-0.22271-0.12998-0.18205-0.21211-0.17496-0.41238-0.2399-0.31338-0.08272-0.64764-0.10805-0.9674 0.0036-0.29516 0.0819-0.28322 0.19163-0.66678 0.2261l-0.63252 0.02913zm-5.8145 46.93c-6.3935-1.3651 1.3005 0.27087 0 0z" fill="#fff" stroke-width=".21077"/>
<rect transform="matrix(1.0637 0 0 1.0422 4.4218 39.194)" x="2" y="-30" width="75.966" height="69.024" rx="3.957" ry="3.957" clip-path="url(#clipPath4156-4-1)" fill="url(#linearGradient4767)" opacity=".50781"/>
</g>
</g>
</g>
</svg>
