<?xml version="1.0" encoding="UTF-8"?>
<!-- Created with Inkscape (http://www.inkscape.org/) -->
<svg version="1.1" viewBox="0 0 96 96" xmlns="http://www.w3.org/2000/svg" xmlns:cc="http://creativecommons.org/ns#" xmlns:dc="http://purl.org/dc/elements/1.1/" xmlns:rdf="http://www.w3.org/1999/02/22-rdf-syntax-ns#" xmlns:xlink="http://www.w3.org/1999/xlink">
<defs>
<linearGradient id="linearGradient4071" x1="6" x2="90" y1="47" y2="47" gradientTransform="matrix(1.1071 0 0 1.1071 -4.9939 -3.6207)" gradientUnits="userSpaceOnUse">
<stop stop-color="#b4b9ba" offset="0"/>
<stop stop-color="#fff" offset=".25"/>
<stop stop-color="#98a0a2" offset=".5"/>
<stop stop-color="#fbf9f9" offset=".75"/>
<stop stop-color="#b4b8ba" offset="1"/>
</linearGradient>
<linearGradient id="linearGradient4129" x1="1.5" x2="94.5" y1="88.172" y2="88.172" gradientTransform="translate(.14895 .41503)" gradientUnits="userSpaceOnUse">
<stop offset="0"/>
<stop stop-opacity=".58824" offset=".1"/>
<stop stop-opacity=".58824" offset=".9"/>
<stop offset="1"/>
</linearGradient>
<radialGradient id="radialGradient7462" cx="13.948" cy="44.893" r="43.199" gradientTransform="matrix(.97513 0 0 .049191 34.048 80.582)" gradientUnits="userSpaceOnUse" xlink:href="#linearGradient3737"/>
<linearGradient id="linearGradient3737">
<stop stop-color="#fff" offset="0"/>
<stop stop-color="#fff" stop-opacity="0" offset="1"/>
</linearGradient>
<radialGradient id="radialGradient7464" cx="13.948" cy="44.893" r="43.199" gradientTransform="matrix(.88833 0 0 .049191 31.96 -90.317)" gradientUnits="userSpaceOnUse" xlink:href="#linearGradient3737"/>
<linearGradient id="linearGradient4767" x1="2.7714" x2="50.528" y1="-28.642" y2="14.514" gradientUnits="userSpaceOnUse" xlink:href="#linearGradient3737"/>
<clipPath id="clipPath4156-4-1">
<path d="m27.046-55.695-14.214 13.321h0.06127l15.653 21.771 10.231-10.546c-0.2169-1.1522-11.311-23.67-11.732-24.546zm-17.399 16.313-14.888 14.062 21.229 17.515 10.385-10.577zm31.491 12.951-9.7413 9.7136 8.9448 12.458 7.7808-7.555zm-49.84 4.3788-13.754 12.982 26.283 13.846 0.06127-0.0617-0.12253-0.0617 9.8332-10.053-22.301-16.652zm38.015 7.4008-9.8025 9.7753 11.579 9.5594 7.6276-7.4008-8.6691-11.009zm20.187 5.674-7.3825 7.2158 6.1878 8.5418 5.8202-6.1365zm-32.195 6.3215-9.5575 9.4977 13.662 7.185 7.9339-7.6784zm23.312 2.3744-7.1068 6.9383 8.3628 6.9074 5.3608-5.674-0.06127-0.0925-0.0919 0.12335-6.4635-8.2026zm-8.7304 8.5418-7.5051 7.3392 10.354 5.4581c1.3975-1.321 5.6751-6.1229 5.8509-6.3215z" fill="#fff" opacity=".6"/>
</clipPath>
</defs>
<metadata>
<rdf:RDF>
<cc:Work rdf:about="">
<dc:format>image/svg+xml</dc:format>
<dc:type rdf:resource="http://purl.org/dc/dcmitype/StillImage"/>
<dc:title/>
<dc:date>2017</dc:date>
<dc:creator>
<cc:Agent>
<dc:title>Cristian Pozzessere "ilnanny"</dc:title>
</cc:Agent>
</dc:creator>
<dc:subject>
<rdf:Bag>
<rdf:li>Global language</rdf:li>
</rdf:Bag>
</dc:subject>
<dc:description>Playing with Inkscape on Gnu/Linux O. S.</dc:description>
<dc:contributor>
<cc:Agent>
<dc:title>In the night, alone like a dog.</dc:title>
</cc:Agent>
</dc:contributor>
<cc:license rdf:resource="http://creativecommons.org/licenses/by-sa/4.0/"/>
</cc:Work>
<cc:License rdf:about="http://creativecommons.org/licenses/by-sa/4.0/">
<cc:permits rdf:resource="http://creativecommons.org/ns#Reproduction"/>
<cc:permits rdf:resource="http://creativecommons.org/ns#Distribution"/>
<cc:requires rdf:resource="http://creativecommons.org/ns#Notice"/>
<cc:requires rdf:resource="http://creativecommons.org/ns#Attribution"/>
<cc:permits rdf:resource="http://creativecommons.org/ns#DerivativeWorks"/>
<cc:requires rdf:resource="http://creativecommons.org/ns#ShareAlike"/>
</cc:License>
</rdf:RDF>
</metadata>
<g transform="translate(0 -1026.5)">
<g transform="translate(-.14896 1026.1)">
<path d="m89.292 0.41503h-82.286c-3.7988 0-6.8571 3.0583-6.8571 6.8571v82.286c0 3.7989 3.0583 6.8571 6.8571 6.8571h82.286c3.7989 0 6.8571-3.0583 6.8571-6.8571v-82.286c0-3.7989-3.0583-6.8571-6.8571-6.8571z" opacity=".15"/>
<path d="m88.649 1.165h-81c-3.7395 0-6.75 3.0105-6.75 6.75v81c0 3.7395 3.0105 6.75 6.75 6.75h81c3.7395 0 6.75-3.0105 6.75-6.75v-81c0-3.7395-3.0105-6.75-6.75-6.75z" opacity=".15"/>
<path d="m88.006 1.915h-79.714c-3.6801 0-6.6429 2.9627-6.6429 6.6429v79.714c0 3.6801 2.9627 6.6429 6.6429 6.6429h79.714c3.6801 0 6.6429-2.9627 6.6429-6.6429v-79.714c0-3.6801-2.9627-6.6429-6.6429-6.6429z" fill="url(#linearGradient4071)"/>
<path d="m11.39 6.8022c-2.8565 0-5.1241 2.3147-5.1241 5.2305v69.369c1.0972 1.7038 2.9688 2.8441 5.1241 2.8441h73.787c2.1553 0 4.0269-1.1402 5.1241-2.8441v-69.369c0-2.9158-2.2676-5.2305-5.1241-5.2305z" fill="#dc0000" opacity=".77865"/>
<path d="m9.974 5.1445c-3.1166 0-5.668 2.5395-5.668 5.646v69.278c0 3.1065 2.5513 5.646 5.668 5.646h76.792c3.1166 0 5.668-2.5395 5.668-5.646v-69.278c0-3.1065-2.5513-5.646-5.668-5.646zm0 2.3194h76.792c1.8881 0 3.352 1.4801 3.352 3.3266v69.278c0 1.8465-1.4639 3.3266-3.352 3.3266h-76.792c-1.8881 0-3.352-1.4801-3.352-3.3266v-69.278c0-1.8465 1.4639-3.3266 3.352-3.3266z" color="#000000" fill="#1f2124" fill-opacity=".63265" style="text-decoration-line:none;text-indent:0;text-transform:none"/>
<path d="m1.649 82.259v6c0 3.6801 2.9761 6.6562 6.6562 6.6562h79.687c3.6801 0 6.6563-2.9761 6.6563-6.6562v-6c0 3.6801-2.9761 6.6562-6.6563 6.6562h-79.687c-3.6801 0-6.6562-2.9761-6.6562-6.6562z" fill="url(#linearGradient4129)" opacity=".65818"/>
<rect x="5.524" y="80.665" width="84.25" height="4.25" rx="0" ry="4.25" fill="url(#radialGradient7462)" opacity=".55"/>
<rect transform="rotate(90)" x="5.975" y="-90.234" width="76.75" height="4.25" rx="0" ry="4.25" fill="url(#radialGradient7464)" opacity=".669"/>
<g transform="translate(-150.4 -14.656)" fill="#fff" stroke="#707070" stroke-linecap="round" stroke-linejoin="round">
<path d="m171.09 40.632c-2.4624 2.1384-5.7199 3.7271-7.3871 6.4151-1.6672 2.688-1.383 7.4213-2.1384 8.9423-0.75539 1.521 3.8421 0.89634 8.5487-1.4732 5.0524-3.2507 11.254-8.0307 15.702-8.8336 2.4169-0.43632-0.15681 5.2631-0.71385 7.3333-1.7463 4.1998-4.9539 7.5679-7.4251 11.343-3.2201 4.4763-6.4548 8.942-9.6962 13.403 0.93877 3.0875 1.4844 6.9564 4.9602 8.1951 0.91176-0.0083 1.451-1.752 2.2112-2.4669 5.9328-8.2187 11.57-16.656 17.451-24.907 2.8634-2.7858 5.5896-5.7442 8.5381-8.423 0.93444-0.58402 1.8689-1.1681 2.8033-1.7521 1.4142 2.2408-1.5062 4.9097-1.9842 7.2045-4.5209 6.6024-8.7208 13.445-13.568 19.817-2.6004 2.02-2.766 5.346-1.8676 8.2721 0.45093 1.739 2.3743 5 3.6098 2.1954 4.6458-5.7968 9.9292-11.057 14.433-16.967 2.0246-3.2358 5.5759-5.131 8.0623-7.9942 2.6957-2.4706 5.0831-5.3931 8.315-7.1814 3.3636 0.8901-2.0597 3.8296-2.942 5.3959-2.6864 2.8694-5.6558 5.5493-7.433 9.1194-1.8264 2.917-3.4035 6.0304-4.5437 9.2672-0.1376 1.5794-0.41565 3.1785-0.0687 4.7098 0.42598 1.8804 0.96631 4.1101 2.5686 5.1824 2.1225 1.4205 5.3999 1.647 7.6439 0.52766 3.4076-2.2671 6.9452-4.3586 9.9764-7.1345 1.4609-1.3941 3.4839-2.4272 4.4304-4.2129-0.12474-1.0117 0.24335-2.3786-0.17174-3.181-2.372 0.62914-4.396 3.3381-6.6439 4.6628-1.8984 1.2895-3.9608 2.883-6.2643 2.9204-1.1072 0.018-2.5776-0.30604-3.055-1.3052-1.5912-3.3305 1.7351-7.19 3.0132-10.655 1.4804-2.5517 3.3646-4.9134 4.8446-7.5103 1.8873-2.7111 4.2213-5.0856 6.1146-7.8093 2.0928-2.6457 4.9637-4.55 7.217-7.0726-0.0714-1.2078-0.0767-2.4411-1.0634-3.297-0.86177-1.3099-1.8888-2.4574-3.2134-3.3126-5.2489 3.0883-9.6464 7.347-14.58 10.886-3.5676 3.2299-7.1274 6.5234-10.321 10.123-1.4851 1.7113-2.7515 3.6738-4.3749 5.2262-1.3926 1.0446 0.34214-1.2474 0.49913-1.8561 1.2243-2.4282 2.4002-4.8852 4.2324-6.9318 2.0931-2.6032 3.8529-5.4284 4.9796-8.5856 0.89648-1.8459 2.076-3.8744 1.8134-5.9222-0.16049-1.2515-0.87328-2.6272-1.9857-3.2227-0.93053-0.49815-2.1279-0.08664-3.1645 0.11254-1.2206 0.23456-2.4276 0.6475-3.5103 1.2581-2.4389 1.3754-4.5511 3.3205-6.5164 5.3004-4.1326 4.8775-8.0782 9.9711-12.668 14.419-0.46336 0.08324 0.84568-1.8413 1.0944-2.5646 1.8982-4.3179 5.3971-8.1165 6.0022-12.786 0.22374-1.7265-0.14317-3.5899-0.94097-5.1373-0.53501-1.0377-1.3779-2.0285-2.4405-2.5122-1.1683-0.53173-2.5773-0.40999-3.8451-0.20928-3.1902 0.50505-6.127 2.113-9.0396 3.4894-2.5675 1.4248-5.1134 3.128-7.943 3.8971-0.67409-1.273 2.4803-2.5482 3.2305-3.2509 0.92627-0.10704 1.0311-1.1564-0.33324-1.075-0.15071-0.02511-0.30142-0.05023-0.45212-0.07536z" fill="#fff" stroke="#707070" stroke-linecap="round" stroke-linejoin="round"/>
</g>
<rect transform="matrix(1.0692 0 0 1.0477 4.4442 38.894)" x="2" y="-30" width="75.966" height="69.024" rx="3.957" ry="3.957" clip-path="url(#clipPath4156-4-1)" fill="url(#linearGradient4767)" opacity=".661"/>
</g>
</g>
</svg>
