<?xml version="1.0" encoding="UTF-8"?>
<!-- Created with Inkscape (http://www.inkscape.org/) -->
<svg version="1.1" viewBox="0 0 96 96" xmlns="http://www.w3.org/2000/svg" xmlns:cc="http://creativecommons.org/ns#" xmlns:dc="http://purl.org/dc/elements/1.1/" xmlns:rdf="http://www.w3.org/1999/02/22-rdf-syntax-ns#" xmlns:xlink="http://www.w3.org/1999/xlink">
<defs>
<linearGradient id="linearGradient4071" x1="6" x2="90" y1="47" y2="47" gradientTransform="matrix(1.1071 0 0 1.1071 -5.1429 -4.0357)" gradientUnits="userSpaceOnUse">
<stop stop-color="#b2babc" offset="0"/>
<stop stop-color="#fff" offset=".25"/>
<stop stop-color="#96a1a4" offset=".5"/>
<stop stop-color="#fbf9f9" offset=".75"/>
<stop stop-color="#b2b9bc" offset="1"/>
</linearGradient>
<linearGradient id="linearGradient4129" x1="1.5" x2="94.5" y1="88.172" y2="88.172" gradientTransform="translate(-2.95e-6,2.6e-5)" gradientUnits="userSpaceOnUse">
<stop offset="0"/>
<stop stop-opacity=".58824" offset=".1"/>
<stop stop-opacity=".58824" offset=".9"/>
<stop offset="1"/>
</linearGradient>
<radialGradient id="radialGradient7462" cx="13.948" cy="44.893" r="43.199" gradientTransform="matrix(.97513 0 0 .049191 33.899 80.167)" gradientUnits="userSpaceOnUse" xlink:href="#linearGradient3737"/>
<linearGradient id="linearGradient3737">
<stop stop-color="#fff" offset="0"/>
<stop stop-color="#fff" stop-opacity="0" offset="1"/>
</linearGradient>
<radialGradient id="radialGradient7496" cx="13.948" cy="44.893" r="43.199" gradientTransform="matrix(.88833 0 0 .049191 31.545 -90.168)" gradientUnits="userSpaceOnUse" xlink:href="#linearGradient3737"/>
<linearGradient id="linearGradient4767" x1="2.7714" x2="50.528" y1="-28.962" y2="14.514" gradientUnits="userSpaceOnUse" xlink:href="#linearGradient3737"/>
<clipPath id="clipPath4156-4-1">
<path d="m27.046-55.695-14.214 13.321h0.06127l15.653 21.771 10.231-10.546c-0.2169-1.1522-11.311-23.67-11.732-24.546zm-17.079 16.313-15.208 14.062 21.229 17.515 10.385-10.577zm31.491 12.951-9.7413 9.7136 8.9448 12.458 7.7808-7.555zm-49.84 4.3788-13.754 12.982 26.283 13.846 0.06127-0.0617-0.12253-0.0617 9.5132-10.053-22.301-16.652zm38.015 7.4008-9.8025 9.7753 11.579 9.5594 7.6276-7.4008-8.6691-11.009zm20.187 5.674-7.3825 7.2158 6.1878 8.5418 5.8202-6.1365zm-32.195 6.3215-9.5575 9.4977 13.662 7.185 7.9339-7.6784zm23.312 2.3744-7.1068 6.9383 8.3628 6.9074 5.3608-5.674-0.06127-0.0925-0.0919 0.12335-6.4635-8.2026zm-8.7304 8.5418-7.5051 7.3392 10.354 5.4581c1.3975-1.321 5.6751-6.1229 5.8509-6.3215z" fill="#fff" opacity=".6"/>
</clipPath>
</defs>
<metadata>
<rdf:RDF>
<cc:Work rdf:about="">
<dc:format>image/svg+xml</dc:format>
<dc:type rdf:resource="http://purl.org/dc/dcmitype/StillImage"/>
<dc:title/>
</cc:Work>
</rdf:RDF>
</metadata>
<path d="m89.143 2.6e-5h-82.286c-3.7988 0-6.8571 3.0583-6.8571 6.8571v82.286c0 3.7989 3.0583 6.8571 6.8571 6.8571h82.286c3.7989 0 6.8571-3.0583 6.8571-6.8571v-82.286c0-3.7989-3.0583-6.8571-6.8571-6.8571z" opacity=".15"/>
<path d="m88.82 0.75003h-81c-3.7395 0-6.75 3.0105-6.75 6.75v81c0 3.7395 3.0105 6.75 6.75 6.75h81c3.7395 0 6.75-3.0105 6.75-6.75v-81c0-3.7395-3.0105-6.75-6.75-6.75z" opacity=".15"/>
<path d="m87.857 1.5h-79.714c-3.6801 0-6.9629 2.9627-6.9629 6.9629v79.394c0 3.6801 2.9627 6.9629 6.9629 6.9629h79.714c3.6801 0 6.9629-2.9627 6.9629-6.9629v-79.714c0-3.6801-2.9627-6.9629-6.9629-6.9629z" fill="url(#linearGradient4071)"/>
<path d="m11.241 6.3872c-2.8597 0-5.1241 2.316-5.1241 5.2334v69.408c1.0972 1.7048 2.9688 2.8457 5.1241 2.8457h73.787c2.1553 0 4.0269-1.1409 5.1241-2.8457v-69.408c0-2.9174-2.2676-5.2334-5.1241-5.2334z" fill="#ede6e6"/>
<g transform="matrix(1.2792 0 0 1.2792 8.3428 4.1522)">
<polygon transform="matrix(.22735 0 0 .22735 2.6724 2.7861)" points="199.67 237.67 129.5 188.33 57.667 237.67 82.667 154 15 102.33 100.33 100.33 130.5 19.333 158 100.33 243 102.67 175.82 154.68" fill="none" opacity=".465" stroke="#000" stroke-width="10.315"/>
<polygon transform="matrix(.22735 0 0 .22735 2.6724 2.7861)" points="199.67 237.67 129.5 188.33 57.667 237.67 82.667 154 15 102.33 100.33 100.33 130.5 19.333 158 100.33 243 102.67 175.82 154.68" fill="#bc0000"/>
<path d="m34.658 16.319c0.71505 0.68412 1.2781 1.2108 2.1135 2.054 1.9105 1.8925 3.5408 4.1429 4.6733 5.6607 4.1958 5.624 3.7865 10.993 2.0079 13.837a0.91968 0.91968 0 0 1-1.4537 0.13855s-4.5658-4.902-8.7067-9.3885a0.91968 0.91968 0 0 1 0.02859-1.2778s0.94194-0.932 2.212-1.8891c0.45489-0.47856 0.90302-0.96653 1.2052-1.3261 0.02466-0.02934 0.02792-0.03829 0.05058-0.06597-0.05141-0.06435-0.16827-0.21343-0.20233-0.25072-0.05726-0.06266-0.20642-0.16265-0.3013-0.23531-0.32643 0.08648-0.82681 0.25631-2.0145 0.3013-1.0192 0.03864-2.1841 0.02127-3.1075 0.01539-0.4617-0.0029-0.86541-0.0019-1.1392 0.0066-0.06845 0.0021-0.0937 0.0057-0.14294 0.0088-0.25668 0.23979-0.60289 0.54737-1.2425 1.1194-0.75758 0.67748-1.7198 1.5401-2.6676 2.4038-0.94782 0.86358-1.8829 1.7307-2.5775 2.4103-0.318 0.31119-0.56611 0.56894-0.75433 0.77412 0.08001 0.10387 0.13692 0.22181 0.24851 0.31888 0.39098 0.46637 0.94461 1.0714 1.5109 1.6583 0.56625 0.58679 1.1494 1.1596 1.5967 1.5614 0.1108 0.09957 0.17393 0.14478 0.26391 0.21992 0.03801-0.03242 0.05989-0.04797 0.10116-0.08357 0.33686-0.29066 0.77361-0.68257 1.2052-1.071 0.86312-0.77689 1.7022-1.5482 1.7022-1.5482a0.91968 0.91968 0 0 1 1.2953 0.05278l8.7902 9.472a0.91968 0.91968 0 0 1-0.21772 1.4229s-2.5598 1.5187-5.498 1.225c-1.3855-0.13855-2.5936-0.52412-3.7716-1.2953-1.1755-0.7696-2.3601-1.8908-3.8025-3.5165-0.02177 0.0047-0.10754 0.02551-0.22871 0.10116-0.26528 0.16561-0.52781 0.45963-0.52781 0.45963a0.91968 0.91968 0 0 1-0.75654 0.32769l-1.2887-0.10858c-0.09753 0.04252-0.28676 0.11679-0.48162 0.2749-0.12097 0.09815-0.18599 0.19429-0.19354 0.21332-0.0075 0.01903-0.02769-0.04659 0.01979 0.04838 0.11271 0.22544 0.12479 0.51116 0.07697 0.70594-0.04782 0.19479-0.12722 0.3176-0.19793 0.41346-0.14144 0.19171-0.27192 0.29354-0.41125 0.40026-0.27868 0.21344-0.60602 0.44676-0.98965 0.63997-0.76726 0.4585-1.7392 1.0194-2.5819 1.6539-0.8427 0.63451-1.5246 1.3505-1.7725 1.9529-0.24793 0.60236-0.25812 1.0653 0.45963 1.8935 0.66687 0.76946 1.0904 0.82369 1.6758 0.68176 0.58538-0.14193 1.3447-0.67052 2.0519-1.3877 0.70719-0.71718 1.3657-1.5919 1.8826-2.3201 0.25837-0.36414 0.48177-0.69174 0.66856-0.95446 0.09339-0.13136 0.1758-0.24463 0.25951-0.34968 0.08371-0.10504 0.13026-0.18982 0.33868-0.33868 0.25415-0.18152 0.6148-0.20493 0.8181-0.15614 0.20331 0.04879 0.3106 0.12296 0.40026 0.22076 0.17932 0.12356 0.28654 0.23564 0.41125 0.36507 0.24942 0.25887 0.52983 0.58561 0.89069 0.96766 1.082 0.7641 1.7399 1.7293 3.1228 2.5247 2.766 1.5908 6.9679 2.5848 13.54-0.39146a0.91968 0.91968 0 0 1 1.0424 0.20233s0.46161 0.48373 0.94127 0.95886c0.17796 0.17762 0.33855 0.33091 0.49482 0.47943 0.08247-0.06558 0.13772-0.10427 0.23531-0.22076 0.4527-0.37326 1.0442-0.88868 1.6274-1.4141 0.58319-0.52541 1.16-1.0642 1.5768-1.4801 0.09205-0.09185 0.13686-0.14445 0.21112-0.22211-0.21371-0.23671-0.48551-0.521-0.77193-0.80931-0.62701-0.63116-1.258-1.2294-1.258-1.2294a0.91968 0.91968 0 0 1-0.07037-1.2624s1.3833-1.622 2.0056-4.5347c0.62236-2.9127 0.47509-7.0433-2.8766-12.1-0.4467-0.6196-3.0511-4.463-6.4041-6.2765-1.3161-0.85319-3.0144-1.7724-4.9856-2.6786z" fill="#fc0" opacity=".347" stroke="#000" stroke-width="1.126"/>
<path d="m34.658 16.319c0.71505 0.68412 1.2781 1.2108 2.1135 2.054 1.9105 1.8925 3.5408 4.1429 4.6733 5.6607 4.1958 5.624 3.7865 10.993 2.0079 13.837a0.91968 0.91968 0 0 1-1.4537 0.13855s-4.5658-4.902-8.7067-9.3885a0.91968 0.91968 0 0 1 0.02859-1.2778s0.94194-0.932 2.212-1.8891c0.45489-0.47856 0.90302-0.96653 1.2052-1.3261 0.02466-0.02934 0.02792-0.03829 0.05058-0.06597-0.05141-0.06435-0.16827-0.21343-0.20233-0.25072-0.05726-0.06266-0.20642-0.16265-0.3013-0.23531-0.32643 0.08648-0.82681 0.25631-2.0145 0.3013-1.0192 0.03864-2.1841 0.02127-3.1075 0.01539-0.4617-0.0029-0.86541-0.0019-1.1392 0.0066-0.06845 0.0021-0.0937 0.0057-0.14294 0.0088-0.25668 0.23979-0.60289 0.54737-1.2425 1.1194-0.75758 0.67748-1.7198 1.5401-2.6676 2.4038-0.94782 0.86358-1.8829 1.7307-2.5775 2.4103-0.318 0.31119-0.56611 0.56894-0.75433 0.77412 0.08001 0.10387 0.13692 0.22181 0.24851 0.31888 0.39098 0.46637 0.94461 1.0714 1.5109 1.6583 0.56625 0.58679 1.1494 1.1596 1.5967 1.5614 0.1108 0.09957 0.17393 0.14478 0.26391 0.21992 0.03801-0.03242 0.05989-0.04797 0.10116-0.08357 0.33686-0.29066 0.77361-0.68257 1.2052-1.071 0.86312-0.77689 1.7022-1.5482 1.7022-1.5482a0.91968 0.91968 0 0 1 1.2953 0.05278l8.7902 9.472a0.91968 0.91968 0 0 1-0.21772 1.4229s-2.5598 1.5187-5.498 1.225c-1.3855-0.13855-2.5936-0.52412-3.7716-1.2953-1.1755-0.7696-2.3601-1.8908-3.8025-3.5165-0.02177 0.0047-0.10754 0.02551-0.22871 0.10116-0.26528 0.16561-0.52781 0.45963-0.52781 0.45963a0.91968 0.91968 0 0 1-0.75654 0.32769l-1.2887-0.10858c-0.09753 0.04252-0.28676 0.11679-0.48162 0.2749-0.12097 0.09815-0.18599 0.19429-0.19354 0.21332-0.0075 0.01903-0.02769-0.04659 0.01979 0.04838 0.11271 0.22544 0.12479 0.51116 0.07697 0.70594-0.04782 0.19479-0.12722 0.3176-0.19793 0.41346-0.14144 0.19171-0.27192 0.29354-0.41125 0.40026-0.27868 0.21344-0.60602 0.44676-0.98965 0.63997-0.76726 0.4585-1.7392 1.0194-2.5819 1.6539-0.8427 0.63451-1.5246 1.3505-1.7725 1.9529-0.24793 0.60236-0.25812 1.0653 0.45963 1.8935 0.66687 0.76946 1.0904 0.82369 1.6758 0.68176 0.58538-0.14193 1.3447-0.67052 2.0519-1.3877 0.70719-0.71718 1.3657-1.5919 1.8826-2.3201 0.25837-0.36414 0.48177-0.69174 0.66856-0.95446 0.09339-0.13136 0.1758-0.24463 0.25951-0.34968 0.08371-0.10504 0.13026-0.18982 0.33868-0.33868 0.25415-0.18152 0.6148-0.20493 0.8181-0.15614 0.20331 0.04879 0.3106 0.12296 0.40026 0.22076 0.17932 0.12356 0.28654 0.23564 0.41125 0.36507 0.24942 0.25887 0.52983 0.58561 0.89069 0.96766 1.082 0.7641 1.7399 1.7293 3.1228 2.5247 2.766 1.5908 6.9679 2.5848 13.54-0.39146a0.91968 0.91968 0 0 1 1.0424 0.20233s0.46161 0.48373 0.94127 0.95886c0.17796 0.17762 0.33855 0.33091 0.49482 0.47943 0.08247-0.06558 0.13772-0.10427 0.23531-0.22076 0.4527-0.37326 1.0442-0.88868 1.6274-1.4141 0.58319-0.52541 1.16-1.0642 1.5768-1.4801 0.09205-0.09185 0.13686-0.14445 0.21112-0.22211-0.21371-0.23671-0.48551-0.521-0.77193-0.80931-0.62701-0.63116-1.258-1.2294-1.258-1.2294a0.91968 0.91968 0 0 1-0.07037-1.2624s1.3833-1.622 2.0056-4.5347c0.62236-2.9127 0.47509-7.0433-2.8766-12.1-0.4467-0.6196-3.0511-4.463-6.4041-6.2765-1.3161-0.85319-3.0144-1.7724-4.9856-2.6786z" fill="#fc0" stroke-width="1.126"/>
</g>
<path d="m1.82 81.844v6c0 3.6801 2.9761 6.6562 6.6562 6.6562h79.368c3.6801 0 6.6563-2.9761 6.6563-6.6562v-6c0 3.6801-2.9761 6.6562-6.6563 6.6562h-79.688c-3.6801 0-6.6562-2.9761-6.6562-6.6562z" fill="url(#linearGradient4129)" opacity=".65818"/>
<rect x="5.375" y="80.25" width="84.25" height="4.25" rx="0" ry="4.25" fill="url(#radialGradient7462)" opacity=".55"/>
<rect transform="rotate(90)" x="5.56" y="-90.085" width="76.75" height="4.25" rx="0" ry="4.25" fill="url(#radialGradient7496)" opacity=".669"/>
<rect transform="matrix(1.0692 0 0 1.0477 4.2952 38.479)" x="2" y="-30" width="75.966" height="69.024" rx="3.957" ry="3.957" clip-path="url(#clipPath4156-4-1)" fill="url(#linearGradient4767)" opacity=".69"/>
<path d="m9.8251 4.7295c-3.1166 0-5.668 2.5395-5.668 5.966v69.278c0 3.1097 2.5513 5.966 5.668 5.966h76.792c3.1166 0 5.668-2.5395 5.668-5.966v-69.598c0-3.1097-2.5513-5.966-5.668-5.966zm0 2.3194h76.792c1.8881 0 3.352 1.4801 3.352 3.3266v69.278c0 1.8497-1.4639 3.3266-3.352 3.3266h-76.792c-1.8881 0-3.352-1.4801-3.352-3.3266v-69.278c0-1.8497 1.4639-3.3266 3.352-3.3266z" color="#000000" fill="#404040" style="text-decoration-line:none;text-indent:0;text-transform:none"/>
</svg>
