<?xml version="1.0" encoding="UTF-8"?>
<svg version="1.1" viewBox="0 0 96 96" xmlns="http://www.w3.org/2000/svg" xmlns:cc="http://creativecommons.org/ns#" xmlns:dc="http://purl.org/dc/elements/1.1/" xmlns:rdf="http://www.w3.org/1999/02/22-rdf-syntax-ns#" xmlns:xlink="http://www.w3.org/1999/xlink">
<defs>
<linearGradient id="linearGradient4071" x1="6" x2="90" y1="47" y2="47" gradientTransform="matrix(1.1014 0 0 1.1014 -4.9671 -3.0997)" gradientUnits="userSpaceOnUse">
<stop stop-color="#b4b9ba" offset="0"/>
<stop stop-color="#f7f8fa" offset=".25"/>
<stop stop-color="#98a0a2" offset=".5"/>
<stop stop-color="#eff2f4" offset=".75"/>
<stop stop-color="#b4b8ba" offset="1"/>
</linearGradient>
<linearGradient id="linearGradient6139-0">
<stop stop-color="#b4b9ba" offset="0"/>
<stop stop-color="#fff" offset=".25"/>
<stop stop-color="#98a0a2" offset=".5"/>
<stop stop-color="#fbf9f9" offset=".75"/>
<stop stop-color="#b4b8ba" offset="1"/>
</linearGradient>
<linearGradient id="linearGradient4129" x1="1.5" x2="94.5" y1="88.172" y2="88.172" gradientTransform="matrix(.99479 0 0 .99479 .14895 .91503)" gradientUnits="userSpaceOnUse">
<stop offset="0"/>
<stop stop-opacity=".58824" offset=".1"/>
<stop stop-opacity=".58824" offset=".9"/>
<stop offset="1"/>
</linearGradient>
<radialGradient id="radialGradient7462" cx="13.948" cy="44.893" r="43.199" gradientTransform="matrix(.97005 0 0 .048935 33.871 80.664)" gradientUnits="userSpaceOnUse" xlink:href="#linearGradient3737"/>
<linearGradient id="linearGradient3737">
<stop stop-color="#fff" offset="0"/>
<stop stop-color="#fff" stop-opacity="0" offset="1"/>
</linearGradient>
<radialGradient id="radialGradient7464" cx="13.948" cy="44.893" r="43.199" gradientTransform="matrix(.8837 0 0 .048935 32.295 -89.848)" gradientUnits="userSpaceOnUse" xlink:href="#linearGradient3737"/>
<linearGradient id="linearGradient4767" x1="2.7714" x2="50.528" y1="-28.642" y2="14.514" gradientUnits="userSpaceOnUse" xlink:href="#linearGradient3737"/>
<clipPath id="clipPath4156-4-1">
<path d="m27.046-55.695-14.214 13.321h0.06127l15.653 21.771 10.231-10.546c-0.2169-1.1522-11.311-23.67-11.732-24.546zm-17.399 16.313-14.888 14.062 21.229 17.515 10.385-10.577zm31.491 12.951-9.7413 9.7136 8.9448 12.458 7.7808-7.555zm-49.84 4.3788-13.754 12.982 26.283 13.846 0.06127-0.0617-0.12253-0.0617 9.8332-10.053-22.301-16.652zm38.015 7.4008-9.8025 9.7753 11.579 9.5594 7.6276-7.4008-8.6691-11.009zm20.187 5.674-7.3825 7.2158 6.1878 8.5418 5.8202-6.1365zm-32.195 6.3215-9.5575 9.4977 13.662 7.185 7.9339-7.6784zm23.312 2.3744-7.1068 6.9383 8.3628 6.9074 5.3608-5.674-0.06127-0.0925-0.0919 0.12335-6.4635-8.2026zm-8.7304 8.5418-7.5051 7.3392 10.354 5.4581c1.3975-1.321 5.6751-6.1229 5.8509-6.3215z" fill="#fff" opacity=".6"/>
</clipPath>
<radialGradient id="radialGradient1049" cx="18.646" cy="238.46" r="17.546" gradientTransform="matrix(.23104 -2.1426 1.3732 .14807 -310.48 245.46)" gradientUnits="userSpaceOnUse">
<stop stop-color="#2a2a2a" offset="0"/>
<stop stop-color="#2b2b2b" stop-opacity=".99608" offset=".63956"/>
<stop stop-color="#474747" stop-opacity=".99608" offset="1"/>
</radialGradient>
<radialGradient id="radialGradient1035" cx="35.637" cy="243.75" r="39.468" gradientTransform="matrix(1.3125 .68678 -.34727 .66367 71.077 -143.32)" gradientUnits="userSpaceOnUse" xlink:href="#linearGradient6139-0"/>
<radialGradient id="radialGradient929" cx="54.234" cy="139.61" r="22.057" gradientTransform="matrix(1.068 1.5132 -1.7675 1.2474 231.66 -210.79)" gradientUnits="userSpaceOnUse" xlink:href="#linearGradient6139-0"/>
</defs>
<metadata>
<rdf:RDF>
<cc:Work rdf:about="">
<dc:format>image/svg+xml</dc:format>
<dc:type rdf:resource="http://purl.org/dc/dcmitype/StillImage"/>
<dc:title/>
<dc:date>2017</dc:date>
<dc:creator>
<cc:Agent>
<dc:title>Cristian Pozzessere "ilnanny"</dc:title>
</cc:Agent>
</dc:creator>
<dc:subject>
<rdf:Bag>
<rdf:li>Global language</rdf:li>
</rdf:Bag>
</dc:subject>
<dc:description>Playing with Inkscape on Gnu/Linux O. S.</dc:description>
<dc:contributor>
<cc:Agent>
<dc:title>In the night, alone like a dog.</dc:title>
</cc:Agent>
</dc:contributor>
<cc:license rdf:resource="http://creativecommons.org/licenses/by-sa/4.0/"/>
</cc:Work>
<cc:License rdf:about="http://creativecommons.org/licenses/by-sa/4.0/">
<cc:permits rdf:resource="http://creativecommons.org/ns#Reproduction"/>
<cc:permits rdf:resource="http://creativecommons.org/ns#Distribution"/>
<cc:requires rdf:resource="http://creativecommons.org/ns#Notice"/>
<cc:requires rdf:resource="http://creativecommons.org/ns#Attribution"/>
<cc:permits rdf:resource="http://creativecommons.org/ns#DerivativeWorks"/>
<cc:requires rdf:resource="http://creativecommons.org/ns#ShareAlike"/>
</cc:License>
</rdf:RDF>
</metadata>
<g transform="translate(0 -1026.5)">
<g transform="translate(-.14896 1026.1)">
<g transform="matrix(.99476 0 0 .99476 .50078 .0047646)">
<path d="m88.828 0.91503h-81.857c-3.7791 0-6.8214 3.0424-6.8214 6.8214v81.857c0 3.7791 3.0424 6.8214 6.8214 6.8214h81.857c3.7791 0 6.8214-3.0424 6.8214-6.8214v-81.857c0-3.7791-3.0424-6.8214-6.8214-6.8214z" opacity=".15"/>
<path d="m88.188 1.6611h-80.578c-3.72 0-6.7148 2.9948-6.7148 6.7148v80.578c0 3.72 2.9948 6.7148 6.7148 6.7148h80.578c3.72 0 6.7148-2.9948 6.7148-6.7148v-80.578c0-3.72-2.9948-6.7148-6.7148-6.7148z" opacity=".15"/>
<path d="m87.549 2.4072h-79.299c-3.661 0-6.6083 2.9473-6.6083 6.6083v79.299c0 3.661 2.9473 6.6083 6.6083 6.6083h79.299c3.661 0 6.6083-2.9473 6.6083-6.6083v-79.299c0-3.661-2.9473-6.6083-6.6083-6.6083z" fill="url(#linearGradient4071)"/>
<path d="m11.332 7.2689c-2.8416 0-5.0974 2.3026-5.0974 5.2032v69.008c1.0915 1.695 2.9534 2.8292 5.0974 2.8292h73.403c2.1441 0 4.0059-1.1343 5.0974-2.8292v-69.008c0-2.9006-2.2558-5.2032-5.0974-5.2032z" fill="#e96a16" fill-opacity=".99649" opacity=".875"/>
<path d="m9.9229 5.6199c-3.1004 0-5.6384 2.5263-5.6384 5.6166v68.917c0 3.0903 2.5381 5.6166 5.6384 5.6166h76.392c3.1004 0 5.6384-2.5263 5.6384-5.6166v-68.917c0-3.0903-2.5381-5.6166-5.6384-5.6166zm0 2.3074h76.392c1.8783 0 3.3346 1.4724 3.3346 3.3092v68.917c0 1.8369-1.4563 3.3092-3.3346 3.3092h-76.392c-1.8783 0-3.3346-1.4724-3.3346-3.3092v-68.917c0-1.8369 1.4563-3.3092 3.3346-3.3092z" color="#000000" fill="#1f2124" style="text-decoration-line:none;text-indent:0;text-transform:none"/>
<path d="m1.6411 82.333v5.9688c0 3.661 2.9606 6.6216 6.6216 6.6216h79.272c3.661 0 6.6216-2.9606 6.6216-6.6216v-5.9688c0 3.661-2.9606 6.6216-6.6216 6.6216h-79.272c-3.661 0-6.6216-2.9606-6.6216-6.6216z" fill="url(#linearGradient4129)" opacity=".65818"/>
<rect x="5.496" y="80.747" width="83.811" height="4.2279" rx="0" ry="4.2279" fill="url(#radialGradient7462)" opacity=".55"/>
<rect transform="rotate(90)" x="6.4461" y="-89.765" width="76.35" height="4.2279" rx="0" ry="4.2279" fill="url(#radialGradient7464)" opacity=".669"/>
<g transform="matrix(.99479 0 0 .99479 -.40287 1.5899)">
<g transform="translate(8.8371 -179.68)" fill="#ccff42">
<path d="m10.341 198.38c-0.89525-0.0342-1.6659 0.31844-2.5684 0.33789-0.61884 0.0133-1.2125 0.0766-1.7891 0.16602-0.03878 0.038-0.085 0.0691-0.12109 0.10937v0.0391c-1.1802 1.0677-1.0003 2.5484 2e-3 3.959 0.91562-1.0197 2.7058-1.2891 4.6289-1.0391 0.14162 0.0182 0.28342 0.0402 0.42578 0.0644 1.7909 0.30406 3.5848 1.0534 4.7676 2.0625 0.50705 0.43263 1.4899 1.795 1.7871 2.2461 0.12744-0.15221 1.0479-0.90645 1.1426-1.0781 0.65105-1.1806-0.94211-3.0753-2.2793-4.543-0.73153-0.36724-1.2838-1.4443-2.082-1.6992-1.0051-0.35905-2.516-0.35477-3.5215-0.58399-0.13373-0.0227-0.26468-0.0361-0.39258-0.041zm-9.1992 1.875-0.53906 1.7227c-1.6165 3.2831 1.6985 8.003 6.8906 10.154 5.7607 2.7483 12.933 4.8288 19.166 11.377l0.03906 0.041c0.05914-0.0406 1.1871 1.5278 1.2461 1.4863l2.1191-2.3223-3.4043-3.2051c-4.2415-4.4563-8.9101-6.8326-13.281-8.7695-0.37937-6e-3 -0.77261-0.0317-1.1953-0.10351l-0.05664-0.01c-0.10603-0.0142-0.2131-0.0309-0.31836-0.0488-2.1341-0.36234-4.176-1.5482-5.4551-2.9785-2.6803-1.3783-4.3774-5.2874-5.2109-7.3438zm20.781 5.6895c-0.39935 0.80503-0.91553 1.2918-1.373 1.627-0.59217 0.43316-1.4084 0.99507-2.1758 1.2441 0.0419 0.0271 0.24697 1.1329 0.57812 1.373 0.42223 0.30657 1.1008 0.70215 1.8828 1.1387 0.31346-0.39261 1.1958-1.488 1.4062-2.1699 0.31694-1.0289 0.16923-2.1291-0.31836-3.2129zm13.242 21.293c-4.9282 1.5535-9.2151 2.3221-12.137 2.8887-1.4956 0.28942-2.6535 0.54354-3.3164 0.79687-0.44442 0.15924-0.74437 0.25914-1.2617 0.49024 0.04163 0.0269 0.03442 0.61529 0.23242 0.79101 0.19799 0.17637 0.6935 0.57233 1.0449 0.87891 0.41645 0.36432 0.92318 1.0324 1.332 1.7617 0.44783-0.0978 1.4235-0.61323 1.9688-0.71875 2.9451-0.57119 7.2756-1.3469 12.254-2.9258zm-21.604 4.416c-2.0701 0.2076-4.0843 0.34483-5.9551 0.5918-0.34611 0.0261-0.68146 0.0694-1.0078 0.12304-0.10745 0.0789-0.21932 0.15517-0.31641 0.24024-1.2479 1.0934-1.6222 2.5853-0.35547 4.1758l0.05664 0.0488c0.01005 0.0148 0.02294 0.0282 0.0332 0.043 0.08641-0.0901 0.16818-0.1822 0.26562-0.26758 1.2479-1.0934 3.3839-1.6942 5.6035-1.3438 0.0992 0.0156 0.19851 0.0318 0.28711 0.0469 0.06437 0.011 0.12298 0.0214 0.16992 0.0312 2.1834 0.37071 4.5551 2.4332 5.4238 3.7656 0.82006-0.9683 0.87738-2.963 0.3418-4.1348-0.60608-1.3255-2.684-2.7111-4.5469-3.3203zm-12.32 2.6621-0.38086 1.2168c-0.58614 1.2746-0.44969 3.258 0.26758 4.7871 1.2888 3.1824 5.6495 5.5512 9.9492 6.2812 1.0177 0.17282 2.0327 0.25253 3.0586 0.24023 5.1856 0.11331 9.8333-3.3994 8.641-7.2214-0.09704-0.31084 0.31861-0.16819 0.21342-0.43124-0.92545 1.6414-3.9493 3.0806-6.5302 3.4905-0.19392 0.14569-0.41166 0.2811-0.6543 0.4043-1.195 0.60666-3.0506-0.0643-4.8574-0.3711-0.13404-0.0227-0.26789-0.0505-0.40039-0.0781-1.8526-0.38805-3.5166-0.40343-4.4453-1.6504-2.3104-1.1457-3.4392-3.402-4.2129-5.3125-0.04575-0.0975-0.60858-1.2583-0.64844-1.3555z" fill="url(#radialGradient1049)"/>
</g>
<path d="m87.344 33.436-34.744 11.371 4.0059 2.6777 31.162-10.279s1.2332-3.2609-0.42383-3.7695zm-43.02 14.127-0.24219 3.9707c0.04557-0.01442 0.08909-0.02646 0.13476-0.04102 9.0534 5.9134 20.817 13.577 27.318 17.814 2.7678 1.8035 5.568 2.7587 8.082 3.1855 3.3917 0.57587 7.8516-0.36523 7.8516-0.36523l0.31445-3.1523s-7.1721-0.31367-8.166-0.48242c-2.5141-0.42685-5.3143-1.382-8.082-3.1855-6.4756-4.2205-18.172-11.84-27.211-17.744z" fill="url(#radialGradient1035)" stroke="#323537" stroke-opacity=".81893" stroke-width=".2"/>
<path d="m88.302 34.061-35.167 11.602 34.868 23.321c-1.5865 0.55561-4.4605 0.93957-7.8522 0.3637-2.5141-0.42685-5.3138-1.3819-8.0816-3.1854-6.5012-4.2372-18.265-11.901-27.318-17.815-5.02 1.6001-9.386 2.3814-12.351 2.9564-1.4956 0.28941-2.6532 0.54361-3.3161 0.79694-0.44442 0.15924-0.74547 0.25859-1.2628 0.48969 0.04163 0.0269 0.83261 0.53873 1.0306 0.71445 0.19799 0.17637 0.50425 0.38268 0.85567 0.68926 0.70133 0.61355 1.4585 1.5716 2.0471 3.4571 1.1923 3.8219-3.0615 6.6812-8.2471 6.5679-1.0258 0.0123-2.0408-0.0687-3.0586-0.24152-4.2997-0.73002-8.6614-3.0993-9.9502-6.2817-1.8661-3.9781 1.2036-7.675 6.4793-8.073 5.8336-0.7701 12.987-0.39847 19.27-4.8121l2.1179-1.4672-2.3356-2.4567c-6.2325-6.5482-13.513-7.988-19.273-10.736-5.3402-2.2126-8.3169-7.6165-6.3779-10.915 1.2943-2.758 5.6613-3.6254 9.9406-2.8988 1.0055 0.22922 2.0867 0.44046 3.0918 0.79951 5.1797 1.6542 9.2678 5.9389 8.2018 9.3992-0.40373 1.3081-1.1011 1.9806-1.6925 2.4139-0.59217 0.43316-1.4074 0.99433-2.1749 1.2434 0.0419 0.0271 0.8379 0.54157 1.1691 0.7817 0.66231 0.48089 1.8143 1.1214 3.3084 1.9223 3.9056 2.0932 8.41 4.6468 12.606 7.3095 9.2298-2.8478 18.469-5.6875 27.68-8.5539 2.3472-0.57371 5.3596-0.8718 8.5188-0.33476 2.4156 0.41013 4.9178 1.3082 7.2731 2.9433zm-63.125 26.2c1.9256-0.97771 2.2874-2.7212 1.5555-4.3224-0.73187-1.6006-2.5068-2.9912-5.0186-3.4177-0.04694-0.01-0.10525-0.0204-0.16962-0.0314-0.0886-0.0151-0.18856-0.0307-0.28776-0.0463-2.2196-0.35048-4.3555 0.24881-5.6034 1.3422s-1.6211 2.5862-0.35428 4.1766l0.05668 0.0482c0.90233 1.3318 2.6355 2.2363 4.564 2.6402 0.1325 0.0276 0.26577 0.0535 0.39981 0.0762 1.8068 0.30677 3.6627 0.1409 4.8576-0.46576m1.4098-34.159c0.74478-1.3505 0.38489-3.2133-1.5288-4.8461-1.1828-1.0091-2.9762-1.7572-4.7671-2.0613-0.14236-0.0242-0.28473-0.0458-0.42636-0.064-1.9244-0.25021-3.7162 0.0191-4.6312 1.0405l-1.14e-4 0.0392c-1.3201 1.1943-0.94466 2.9061 0.38738 4.4575 1.2709 1.4799 3.3698 2.7159 5.559 3.0876 0.10526 0.0179 0.21128 0.0339 0.31731 0.0481l0.05679 0.01c2.5171 0.42737 4.2899-0.36282 5.0332-1.711" fill="#6a6a6a" stroke-width=".037844"/>
<path d="m87.344 33.436-34.744 11.371 4.0059 2.6777 31.162-10.279s1.2332-3.2609-0.42383-3.7695zm-43.02 14.127-0.24219 3.9707c0.04557-0.01442 0.08909-0.02646 0.13476-0.04102 9.0534 5.9134 20.817 13.577 27.318 17.814 2.7678 1.8035 5.568 2.7587 8.082 3.1855 3.3917 0.57587 7.8516-0.36523 7.8516-0.36523l0.31445-3.1523s-7.1721-0.31367-8.166-0.48242c-2.5141-0.42685-5.3143-1.382-8.082-3.1855-6.4756-4.2205-18.172-11.84-27.211-17.744z" fill="#2d2d2d" fill-opacity=".4913"/>
<path d="m77.563 30.835c-1.8601 7e-3 -3.5857 0.25861-5.0527 0.61718-9.2109 2.8664-18.452 5.7049-27.682 8.5527-0.21082-0.13377 0.17701 0.0999-0.03524-0.0333l-0.60538 8.545c0.18862-0.0584 0.37196-0.10919 0.5625-0.16993 9.0534 5.9134 20.817 13.577 27.318 17.814 2.7678 1.8035 5.568 2.7587 8.082 3.1855 3.3917 0.57587 6.2651 0.19233 7.8516-0.36328l-34.869-23.32 35.168-11.604c-2.3553-1.6351-4.8578-2.5332-7.2734-2.9434-1.1847-0.20139-2.3488-0.28524-3.4648-0.28125z" fill="url(#radialGradient929)"/>
<path d="m77.563 30.835c-1.8601 7e-3 -3.5857 0.25861-5.0527 0.61718-9.2109 2.8664-18.452 5.7049-27.682 8.5527-0.21082-0.13377 0.05594 0.22099-0.15632 0.0878l-0.72646 8.1818c0.18862-0.0584 0.61411 0.13296 0.80465 0.0722 9.0534 5.9134 20.817 13.577 27.318 17.814 2.7678 1.8035 5.568 2.7587 8.082 3.1855 3.3917 0.57587 6.2651 0.19233 7.8516-0.36328l-34.737-23.372-9.0315 2.7155 9.5355-2.8737 34.532-11.394c-2.3553-1.6351-4.8578-2.5332-7.2734-2.9434-1.1847-0.20139-2.3488-0.28524-3.4648-0.28125z" fill="none" stroke="#323537" stroke-opacity=".83539" stroke-width=".2"/>
</g>
<rect transform="matrix(1.0637 0 0 1.0422 4.8708 38.932)" x="2" y="-30" width="75.966" height="69.024" rx="3.957" ry="3.957" clip-path="url(#clipPath4156-4-1)" fill="url(#linearGradient4767)" opacity=".47"/>
</g>
</g>
</g>
</svg>
