<?xml version="1.0" encoding="UTF-8"?>
<!-- Created with Inkscape (http://www.inkscape.org/) -->
<svg version="1.1" viewBox="0 0 96 96" xmlns="http://www.w3.org/2000/svg" xmlns:cc="http://creativecommons.org/ns#" xmlns:dc="http://purl.org/dc/elements/1.1/" xmlns:rdf="http://www.w3.org/1999/02/22-rdf-syntax-ns#" xmlns:xlink="http://www.w3.org/1999/xlink">
<title>template-icona-febbraio-2016</title>
<defs>
<linearGradient id="linearGradient4142">
<stop stop-color="#fff" offset="0"/>
<stop stop-color="#fff" stop-opacity="0" offset="1"/>
</linearGradient>
<linearGradient id="linearGradient4071" x1="6" x2="90" y1="47" y2="47" gradientTransform="matrix(1.1071 0 0 1.1071 2.9011 -18.701)" gradientUnits="userSpaceOnUse">
<stop stop-color="#adbdc1" offset="0"/>
<stop stop-color="#fff" offset=".25"/>
<stop stop-color="#90a6aa" offset=".5"/>
<stop stop-color="#f9fafb" offset=".75"/>
<stop stop-color="#adbac1" offset="1"/>
</linearGradient>
<radialGradient id="radialGradient7430-4" cx="48" cy="-27" r="42" gradientTransform="matrix(-1.0722 0 0 -.87502 199.46 -19.126)" gradientUnits="userSpaceOnUse">
<stop stop-color="#fff" offset="0"/>
<stop stop-color="#fff" offset=".8"/>
<stop stop-color="#fff" stop-opacity="0" offset="1"/>
</radialGradient>
<linearGradient id="linearGradient4129" x1="1.5" x2="94.5" y1="88.172" y2="88.172" gradientTransform="translate(8.044 -14.666)" gradientUnits="userSpaceOnUse">
<stop offset="0"/>
<stop stop-opacity=".58824" offset=".1"/>
<stop stop-opacity=".58824" offset=".9"/>
<stop offset="1"/>
</linearGradient>
<radialGradient id="radialGradient7462-1" cx="13.948" cy="44.893" r="43.199" gradientTransform="matrix(.97513 0 0 .049191 41.943 65.501)" gradientUnits="userSpaceOnUse" xlink:href="#linearGradient4142"/>
<radialGradient id="radialGradient7464-8" cx="13.948" cy="44.893" r="43.199" gradientTransform="matrix(.88833 0 0 .049191 16.069 -98.752)" gradientUnits="userSpaceOnUse" xlink:href="#linearGradient4142"/>
<linearGradient id="linearGradient4740" x1="45.448" x2="45.448" y1="92.54" y2="7.0165" gradientTransform="scale(1.0059 .99417)" gradientUnits="userSpaceOnUse" xlink:href="#ButtonShadow"/>
<linearGradient id="ButtonShadow" x1="45.448" x2="45.448" y1="92.54" y2="7.0165" gradientTransform="scale(1.0059 .99417)" gradientUnits="userSpaceOnUse">
<stop offset="0"/>
<stop stop-opacity=".58824" offset="1"/>
</linearGradient>
<filter id="filter3174-3-13" x="-.047721" y="-.048282" width="1.0954" height="1.0966" color-interpolation-filters="sRGB">
<feGaussianBlur stdDeviation="1.71"/>
</filter>
<linearGradient id="linearGradient4767" x1="2.7714" x2="50.528" y1="-28.642" y2="14.514" gradientUnits="userSpaceOnUse" xlink:href="#linearGradient4142"/>
<clipPath id="clipPath4156-4-2">
<path d="m27.046-55.695-14.214 13.321h0.06127l15.653 21.771 10.231-10.546c-0.2169-1.1522-11.311-23.67-11.732-24.546zm-17.399 16.313-14.888 14.062 21.229 17.515 10.385-10.577zm31.491 12.951-9.7413 9.7136 8.9448 12.458 7.7808-7.555zm-49.84 4.3788-13.754 12.982 26.283 13.846 0.06127-0.0617-0.12253-0.0617 9.8332-10.053-22.301-16.652zm38.015 7.4008-9.8025 9.7753 11.579 9.5594 7.6276-7.4008-8.6691-11.009zm20.187 5.674-7.3825 7.2158 6.1878 8.5418 5.8202-6.1365zm-32.195 6.3215-9.5575 9.4977 13.662 7.185 7.9339-7.6784zm23.312 2.3744-7.1068 6.9383 8.3628 6.9074 5.3608-5.674-0.06127-0.0925-0.0919 0.12335-6.4635-8.2026zm-8.7304 8.5418-7.5051 7.3392 10.354 5.4581c1.3975-1.321 5.6751-6.1229 5.8509-6.3215z" fill="#fff" opacity=".6"/>
</clipPath>
<filter id="filter3174-53" x="-.047721" y="-.048282" width="1.0954" height="1.0966" color-interpolation-filters="sRGB">
<feGaussianBlur stdDeviation="1.71"/>
</filter>
<filter id="filter3174" x="-.047721" y="-.048282" width="1.0954" height="1.0966" color-interpolation-filters="sRGB">
<feGaussianBlur stdDeviation="1.71"/>
</filter>
<linearGradient id="linearGradient2109" x1="86.643" x2="42.643" y1="16.519" y2="32.859" gradientUnits="userSpaceOnUse">
<stop stop-color="#e6461d" offset="0"/>
<stop stop-color="#f9da02" offset="1"/>
</linearGradient>
<linearGradient id="linearGradient2156" x1="11.228" x2="28.309" y1="23.864" y2="30.54" gradientTransform="matrix(1.5648 0 0 1 4.7718 -14.666)" gradientUnits="userSpaceOnUse">
<stop stop-color="#6acc0a" offset="0"/>
<stop stop-color="#87bae1" stop-opacity="0" offset="1"/>
</linearGradient>
<linearGradient id="linearGradient2161" x1="22.096" x2="29.906" y1="21.449" y2="28.021" gradientTransform="matrix(1.7814 0 0 -1 3.5176 75.28)" gradientUnits="userSpaceOnUse">
<stop stop-color="#2bd1ff" offset="0"/>
<stop stop-color="#8ff0a4" stop-opacity=".0041494" offset="1"/>
</linearGradient>
<linearGradient id="linearGradient4428" x1="-.49774" x2="9.4917" y1="-39.869" y2="-39.869" gradientUnits="userSpaceOnUse">
<stop stop-color="#a7b0b7" offset="0"/>
<stop stop-color="#a7b0b7" stop-opacity="0" offset="1"/>
</linearGradient>
</defs>
<metadata id="">
<rdf:RDF>
<cc:Work rdf:about="">
<dc:format>image/svg+xml</dc:format>
<dc:type rdf:resource="http://purl.org/dc/dcmitype/StillImage"/>
<dc:title>template-icona-febbraio-2016</dc:title>
<dc:date>01/02/2016</dc:date>
<dc:creator>
<cc:Agent>
<dc:title>Cristian Pozzessere</dc:title>
</cc:Agent>
</dc:creator>
<dc:language>Italiano</dc:language>
<dc:description>prova di un template per un tema di icone per Linux</dc:description>
<cc:license rdf:resource="http://creativecommons.org/licenses/by-nc-nd/3.0/"/>
</cc:Work>
<cc:License rdf:about="http://creativecommons.org/licenses/by-nc-nd/3.0/">
<cc:permits rdf:resource="http://creativecommons.org/ns#Reproduction"/>
<cc:permits rdf:resource="http://creativecommons.org/ns#Distribution"/>
<cc:requires rdf:resource="http://creativecommons.org/ns#Notice"/>
<cc:requires rdf:resource="http://creativecommons.org/ns#Attribution"/>
<cc:prohibits rdf:resource="http://creativecommons.org/ns#CommercialUse"/>
</cc:License>
</rdf:RDF>
</metadata>
<g transform="translate(0 -6)">
<g transform="translate(-1e-6,32)">
<g transform="translate(-8.044 -17.334)">
<g transform="translate(251.29 -104.9)">
<g display="none">
<rect x="5" y="7" width="86" height="85" rx="6" ry="6" fill="url(#linearGradient4740)" filter="url(#filter3174-3-13)" opacity=".9"/>
</g>
</g>
<g transform="translate(0 6)">
<path d="m97.187-14.666h-82.286c-3.7988 0-6.8571 3.0583-6.8571 6.8571v82.286c0 3.7989 3.0583 6.8571 6.8571 6.8571h82.286c3.7989 0 6.8571-3.0583 6.8571-6.8571v-82.286c0-3.7989-3.0583-6.8571-6.8571-6.8571z" opacity=".15"/>
<path d="m96.544-13.916h-81c-3.7395 0-6.75 3.0105-6.75 6.75v81c0 3.7395 3.0105 6.75 6.75 6.75h81c3.7395 0 6.75-3.0105 6.75-6.75v-81c0-3.7395-3.0105-6.75-6.75-6.75z" opacity=".15"/>
<path d="m95.901-13.166h-79.714c-3.6801 0-6.6429 2.9627-6.6429 6.6429v79.714c0 3.6801 2.9627 6.6429 6.6429 6.6429h79.714c3.6801 0 6.6429-2.9627 6.6429-6.6429v-79.714c0-3.6801-2.9627-6.6429-6.6429-6.6429z" fill="url(#linearGradient4071)"/>
<rect transform="translate(8.044 -14.666)" x="5.7927" y="6.2128" width="84.846" height="77.52" ry="4.25" fill="url(#linearGradient2109)" stroke="#fff" stroke-linecap="round" stroke-linejoin="round" stroke-width=".4"/>
<path d="m20.488-8.4527c-3.6844 0-6.6506 1.8955-6.6506 4.25v69.02c0 2.3545 2.9662 4.25 6.6506 4.25h40.414v-77.52z" fill="url(#linearGradient2156)"/>
<path d="m21.408 69.067c-4.1942 0-7.5708-1.8955-7.5708-4.25v-69.02c0-2.3545 3.3766-4.25 7.5708-4.25h46.006l13.21 69.931-13.21 7.5887z" fill="url(#linearGradient2161)" opacity=".5661"/>
<g transform="matrix(2.1635 0 0 2.1635 74.916 123.13)">
<path d="m-23.719-42.313-0.0043 3.6335c-0.01175 0.13978-0.04699-3.9362-0.04699-0.63432 4.7e-4 4.5123 5.8593 12.889 13.026 12.889 7.1664-2.35e-4 12.926-8.3769 12.926-12.889 0.07048 3.5992-0.00458 0.13861-0.03524 0h0.03524l0.03524-2.9989z" enable-background="new" fill="#a7b0b7" style="paint-order:normal"/>
<path d="m4.497-43.643a4.4639 3.7735 0 0 0-4.4639 3.7734 4.4639 3.7735 0 0 0 4.4639 3.7736 4.4639 3.7735 0 0 0 4.4638-3.7736 4.4639 3.7735 0 0 0-4.4638-3.7734zm0 2.5157a1.488 1.2578 0 0 1 1.4879 1.2578 1.488 1.2578 0 0 1-1.4879 1.2578 1.488 1.2578 0 0 1-1.4881-1.2578 1.488 1.2578 0 0 1 1.4881-1.2578z" enable-background="new" fill="#f1f3f5" stroke="url(#linearGradient4428)" stroke-width="1.0616" style="paint-order:normal"/>
<path d="m-23.719-42.792-0.0043 3.573c-0.01175 0.13861-0.04699-3.8706-0.04699-0.62374 4.7e-4 4.437 5.8702 12.674 13.05 12.675 7.1798-2.35e-4 12.95-8.2375 12.95-12.675 0.07048 3.5391-0.00435 0.13626-0.03524 0h0.03524l0.03524-2.9491z" enable-background="new" fill="#f1f3f5" style="paint-order:normal"/>
<ellipse cx="-10.754" cy="-42.606" rx="12.648" ry="7.6258" enable-background="new" fill="#4a3025" stroke="#a7b0b7" stroke-linecap="round" stroke-width=".74406" style="paint-order:normal"/>
</g>
<g transform="matrix(1.1071 0 0 1.1071 -107.81 -18.148)">
<path d="m112 4.5c-3.324 0-6 2.676-6 6v15h1v-15c0-2.7873 2.2127-5 5-5h72c2.7873 0 5 2.2127 5 5v15h1v-15c0-3.324-2.676-6-6-6z" fill="url(#radialGradient7430-4)" opacity=".45"/>
</g>
<path d="m9.544 67.178v6c0 3.6801 2.9761 6.6562 6.6562 6.6562h79.688c3.6801 0 6.6563-2.9761 6.6563-6.6562v-6c0 3.6801-2.9761 6.6562-6.6563 6.6562h-79.688c-3.6801 0-6.6562-2.9761-6.6562-6.6562z" fill="url(#linearGradient4129)" opacity=".89091"/>
<rect x="13.419" y="65.584" width="84.25" height="4.25" rx="0" ry="4.25" fill="url(#radialGradient7462-1)" opacity=".55"/>
<rect transform="rotate(90)" x="-9.9156" y="-98.669" width="76.75" height="4.25" rx="0" ry="4.25" fill="url(#radialGradient7464-8)" opacity=".55"/>
<rect transform="matrix(.9093 0 0 .92838 12.389 19.829)" x="2" y="-30" width="92" height="92" rx="3.957" ry="3.957" clip-path="url(#clipPath4156-4-2)" fill="url(#linearGradient4767)" opacity=".398"/>
<path d="m17.869-9.9361c-3.1166 0-5.668 2.5395-5.668 5.646v69.278c0 3.1065 2.5513 5.646 5.668 5.646h76.792c3.1166 0 5.668-2.5395 5.668-5.646v-69.278c0-3.1065-2.5513-5.646-5.668-5.646zm0 2.3194h76.792c1.8881 0 3.352 1.4801 3.352 3.3266v69.278c0 1.8465-1.4639 3.3266-3.352 3.3266h-76.792c-1.8881 0-3.352-1.4801-3.352-3.3266v-69.278c0-1.8465 1.4639-3.3266 3.352-3.3266z" color="#000000" fill="#241f1f" fill-opacity=".63265" style="text-decoration-line:none;text-indent:0;text-transform:none"/>
<rect x="-197.79" y="-71.44" width="0" height="0" fill="#00aade"/>
<circle cx="-133.79" cy="-11.44" r="0" fill="#f9da02" style="paint-order:normal"/>
<rect transform="rotate(90)" x="-54.44" y="423.79" width="187.95" height="187.95" color="#bebebe" fill="none"/>
<rect transform="rotate(90)" x="-54.439" y="423.79" width="187.95" height="187.95" color="#bebebe" fill="none"/>
<rect x="-197.79" y="-71.44" width="0" height="0" fill="#003445" opacity=".99" stroke="#f1f3f5" stroke-linecap="round" stroke-width="4"/>
</g>
</g>
</g>
<g display="none">
<rect x="5" y="7" width="86" height="85" rx="6" ry="6" fill="url(#linearGradient4740)" filter="url(#filter3174-53)" opacity=".9"/>
</g>
<g display="none">
<rect x="5" y="7" width="86" height="85" rx="6" ry="6" fill="url(#linearGradient4740)" filter="url(#filter3174)" opacity=".9"/>
</g>
</g>
<g transform="translate(0 42)">
<!-- color: #eeeeee --></g>
</svg>
