<?xml version="1.0" encoding="UTF-8"?>
<!-- Created with Inkscape (http://www.inkscape.org/) -->
<svg version="1.1" viewBox="0 0 96 96" xmlns="http://www.w3.org/2000/svg" xmlns:cc="http://creativecommons.org/ns#" xmlns:dc="http://purl.org/dc/elements/1.1/" xmlns:rdf="http://www.w3.org/1999/02/22-rdf-syntax-ns#" xmlns:xlink="http://www.w3.org/1999/xlink">
<defs>
<linearGradient id="linearGradient4133-5">
<stop stop-color="#fff" offset="0"/>
<stop stop-color="#fff" stop-opacity="0" offset="1"/>
</linearGradient>
<radialGradient id="radialGradient3833-1" cx="13.948" cy="44.893" r="43.199" gradientTransform="matrix(.94755 0 0 .05247 31.341 -95.611)" gradientUnits="userSpaceOnUse" xlink:href="#linearGradient4133-5"/>
<linearGradient id="linearGradient4967" x1="2.7714" x2="50.528" y1="-28.642" y2="14.514" gradientUnits="userSpaceOnUse">
<stop stop-color="#fff" offset="0"/>
<stop stop-color="#fff" stop-opacity="0" offset="1"/>
</linearGradient>
<clipPath id="clipPath4156-4-6">
<path d="m27.046-55.695-14.214 13.321h0.06127l15.653 21.771 10.231-10.546c-0.2169-1.1522-11.311-23.67-11.732-24.546zm-17.399 16.313-14.888 14.062 21.229 17.515 10.385-10.577zm31.491 12.951-9.7413 9.7136 8.9448 12.458 7.7808-7.555zm-49.84 4.3788-13.754 12.982 26.283 13.846 0.06127-0.0617-0.12253-0.0617 9.8332-10.053-22.301-16.652zm38.015 7.4008-9.8025 9.7753 11.579 9.5594 7.6276-7.4008-8.6691-11.009zm20.187 5.674-7.3825 7.2158 6.1878 8.5418 5.8202-6.1365zm-32.195 6.3215-9.5575 9.4977 13.662 7.185 7.9339-7.6784zm23.312 2.3744-7.1068 6.9383 8.3628 6.9074 5.3608-5.674-0.06127-0.0925-0.0919 0.12335-6.4635-8.2026zm-8.7304 8.5418-7.5051 7.3392 10.354 5.4581c1.3975-1.321 5.6751-6.1229 5.8509-6.3215z" fill="#fff" opacity=".6"/>
</clipPath>
<filter id="filter3174-3" x="-.047721" y="-.048282" width="1.0954" height="1.0966" color-interpolation-filters="sRGB">
<feGaussianBlur stdDeviation="1.71"/>
</filter>
<linearGradient id="linearGradient3835" x1="45.448" x2="45.448" y1="92.54" y2="7.0165" gradientTransform="scale(1.0059 .99417)" gradientUnits="userSpaceOnUse">
<stop offset="0"/>
<stop stop-opacity=".58824" offset="1"/>
</linearGradient>
<linearGradient id="linearGradient3829" x1="1.5" x2="94.5" y1="88.172" y2="88.172" gradientTransform="matrix(1.0667 0 0 1.0667 8.5802 -15.643)" gradientUnits="userSpaceOnUse">
<stop offset="0"/>
<stop stop-opacity=".58824" offset=".1"/>
<stop stop-opacity=".58824" offset=".9"/>
<stop offset="1"/>
</linearGradient>
<radialGradient id="radialGradient3827" cx="48" cy="-27" r="42" gradientTransform="matrix(-1.1437 0 0 -.93335 212.76 -20.401)" gradientUnits="userSpaceOnUse">
<stop stop-color="#fff" offset="0"/>
<stop stop-color="#fff" offset=".8"/>
<stop stop-color="#fff" stop-opacity="0" offset="1"/>
</radialGradient>
<linearGradient id="linearGradient1046" x1="6" x2="90" y1="47" y2="47" gradientTransform="matrix(1.181 0 0 1.181 3.0945 -19.948)" gradientUnits="userSpaceOnUse">
<stop stop-color="#adbbc1" offset="0"/>
<stop stop-color="#f9fafa" offset=".25"/>
<stop stop-color="#90a1aa" offset=".5"/>
<stop stop-color="#f9fafb" offset=".75"/>
<stop stop-color="#adbac1" offset="1"/>
</linearGradient>
<radialGradient id="radialGradient1048" cx="13.948" cy="44.893" r="43.199" gradientTransform="matrix(1.0401 0 0 .05247 34.917 84.069)" gradientUnits="userSpaceOnUse" xlink:href="#linearGradient4133-5"/>
<filter id="filter972" x="-.066697" y="-.066697" width="1.1334" height="1.1334" color-interpolation-filters="sRGB">
<feGaussianBlur stdDeviation="0.50022728"/>
</filter>
<filter id="filter976" x="-.012506" y="-.013627" width="1.025" height="1.0273" color-interpolation-filters="sRGB">
<feGaussianBlur stdDeviation="0.50022728"/>
</filter>
<clipPath id="clipPath958-7-3"></clipPath>
<filter id="filter968" x="-.066697" y="-.066697" width="1.1334" height="1.1334" color-interpolation-filters="sRGB">
<feGaussianBlur stdDeviation="0.50022728"/>
</filter>
<clipPath id="clipPath1114-7">
<rect x="-4" y="-184" width="48" height="88" fill="#fcf4c0" opacity=".404"/>
</clipPath>
<clipPath id="clipPath958-356"></clipPath>
<linearGradient id="linearGradient884" x1="61.78" x2="127.29" y1="55.959" y2="55.959" gradientTransform="translate(-40)" gradientUnits="userSpaceOnUse">
<stop stop-color="#f9da02" offset="0"/>
<stop stop-color="#dcb102" offset="1"/>
</linearGradient>
<clipPath id="clipPath1058-0-9">
<path d="m60 100 14 4v-4z" fill="#dcb102"/>
</clipPath>
<clipPath id="clipPath1141-1-2">
<rect x="-4" y="-111.91" width="48" height="8" fill="#ad7702"/>
</clipPath>
<clipPath id="clipPath1141-0">
<rect x="-4" y="-111.91" width="48" height="8" fill="#ad7702"/>
</clipPath>
<linearGradient id="linearGradient909" x1="-4" x2="25.6" y1="-107.91" y2="-107.91" gradientUnits="userSpaceOnUse">
<stop stop-color="#fbeb83" offset="0"/>
<stop stop-color="#ad7702" offset="1"/>
</linearGradient>
<clipPath id="clipPath1141-3-3">
<rect x="-4" y="-111.91" width="48" height="8" fill="#ad7702"/>
</clipPath>
</defs>
<metadata>
<rdf:RDF>
<cc:Work rdf:about="">
<dc:format>image/svg+xml</dc:format>
<dc:type rdf:resource="http://purl.org/dc/dcmitype/StillImage"/>
</cc:Work>
</rdf:RDF>
</metadata>
<g transform="translate(0 -1026.5)">
<g transform="translate(0 1020.1)">
<g></g>
<g transform="matrix(.9375 0 0 .9375 8.9788e-7 6.4)">
<g transform="translate(0 34.133)">
<g transform="translate(-8.5802 -18.49)">
<path d="m103.67-15.643h-87.771c-4.0521 0-7.3143 3.2622-7.3143 7.3143v87.771c0 4.0521 3.2622 7.3143 7.3143 7.3143h87.771c4.0521 0 7.3143-3.2622 7.3143-7.3143v-87.771c0-4.0521-3.2622-7.3143-7.3143-7.3143z" opacity=".15"/>
<path d="m102.98-14.843h-86.4c-3.9888 0-7.2 3.2112-7.2 7.2v86.4c0 3.9888 3.2112 7.2 7.2 7.2h86.4c3.9888 0 7.2-3.2112 7.2-7.2v-86.4c0-3.9888-3.2112-7.2-7.2-7.2z" opacity=".15"/>
<path d="m102.29-14.043h-85.029c-3.9255 0-7.0857 3.1602-7.0857 7.0857v85.029c0 3.9255 3.1602 7.0857 7.0857 7.0857h85.029c3.9255 0 7.0857-3.1602 7.0857-7.0857v-85.029c0-3.9255-3.1602-7.0857-7.0857-7.0857z" fill="url(#linearGradient1046)"/>
<g transform="matrix(1.1071 0 0 1.1071 -115 -19.358)">
<path d="m119.47 4.8c-3.5456 0-6.4 2.8544-6.4 6.4v16h1.0667v-16c0-2.9731 2.3602-5.3333 5.3333-5.3333h76.8c2.9731 0 5.3333 2.3602 5.3333 5.3333v16h1.0667v-16c0-3.5456-2.8544-6.4-6.4-6.4z" fill="url(#radialGradient3827)" opacity=".45"/>
</g>
<path d="m10.18 71.657v6.4c0 3.9255 3.1745 7.1 7.1 7.1h85c3.9255 0 7.1-3.1745 7.1-7.1v-6.4c0 3.9255-3.1745 7.1-7.1 7.1h-85c-3.9255 0-7.1-3.1745-7.1-7.1z" fill="url(#linearGradient3829)" opacity=".89091"/>
<g transform="translate(268.04 -111.89)">
<g display="none">
<rect transform="scale(1.0667)" x="5" y="7" width="86" height="85" rx="6" ry="6" fill="url(#linearGradient3835)" filter="url(#filter3174-3)" opacity=".9"/>
</g>
</g>
</g>
</g>
<rect x="5.9486" y="7.7225" width="90.502" height="82.688" ry="4.5333" fill="#e6e6e6"/>
<g transform="matrix(.65395 0 0 .65395 9.8001 9.4796)" enable-background="new">
<path d="m74.5 107a9 9 0 0 1-8.9948 9 9 9 0 0 1-9.0052-8.9896 9 9 0 0 1 8.9844-9.0103 9 9 0 0 1 9.0155 8.9792" enable-background="new" fill="#ad7702" filter="url(#filter972)" opacity=".4"/>
<path d="m64 11.909c-17.673 0-26.641 12.014-32 32.036l-8 40.045c-0.86648 4.3374-3.5818 8.0091-8 8.0091v8.0091h96v-8.0091c-4.4183 0-7.1335-3.6717-8-8.0091l-8-40.045c-4.2426-20.023-14.327-32.036-32-32.036z" enable-background="new" fill="#ad7702" filter="url(#filter976)" opacity=".4" style="paint-order:normal"/>
<path transform="translate(2.5 -.023042)" d="m72 107.02a9 9 0 0 1-8.9948 9 9 9 0 0 1-9.0052-8.9896 9 9 0 0 1 8.9844-9.0104 9 9 0 0 1 9.0155 8.9793" clip-path="url(#clipPath958-7-3)" enable-background="new" fill="#ad7702" filter="url(#filter968)" opacity=".4"/>
<rect width="0" height="0" fill="#00aade"/>
<path d="m74.5 107a9 9 0 0 1-8.9948 9 9 9 0 0 1-9.0052-8.9896 9 9 0 0 1 8.9844-9.0104 9 9 0 0 1 9.0155 8.9793" fill="#fbeb83"/>
<path transform="translate(20 195.96)" d="m44-184c-17.673 0-26.641 12.014-32 32.036l-8 40.045c-0.86648 4.3374-3.5818 8.0091-8 8.0091v8.0091h96v-8.0091c-4.4183 0-7.1335-3.6717-8-8.0091l-8-40.045c-4.2426-20.023-14.327-32.036-32-32.036z" clip-path="url(#clipPath1114-7)" enable-background="new" fill="#fcf4c0" style="paint-order:normal"/>
<path d="m128 40" fill="#f9da02" stroke="#000" stroke-width="1px"/>
<path transform="translate(2.5 -.023041)" d="m72 107.02a9 9 0 0 1-8.9948 9 9 9 0 0 1-9.0052-8.9896 9 9 0 0 1 8.9844-9.0104 9 9 0 0 1 9.0155 8.9793" clip-path="url(#clipPath958-356)" enable-background="new" fill="#f9da02"/>
<path d="m64 11.909c-17.673 0-26.641 12.014-32 32.036l-8 40.045c-0.86648 4.3374-3.5818 8.0091-8 8.0091v8.0091h96v-8.0091c-4.4183 0-7.1335-3.6717-8-8.0091l-8-40.045c-4.2426-20.023-14.327-32.036-32-32.036z" enable-background="new" fill="url(#linearGradient884)" stroke="#000" stroke-width=".005" style="paint-order:normal"/>
<path d="m72.25 107.02a6.75 6.75 0 0 1-6.7461 6.75 6.75 6.75 0 0 1-6.7539-6.7422 6.75 6.75 0 0 1 6.7383-6.7578 6.75 6.75 0 0 1 6.7616 6.7344" clip-path="url(#clipPath1058-0-9)" enable-background="new" fill="#dcb102" stroke="#dcb102" stroke-width="4.5"/>
<path transform="matrix(-1 0 0 1 108 195.91)" d="m44-184c-17.673 0-26.641 12.014-32 32.036l-8 40.045c-0.86648 4.3374-3.5818 8.0091-8 8.0091v8.0091h96v-8.0091c-4.4183 0-7.1335-3.6717-8-8.0091l-8-40.045c-4.2426-20.023-14.327-32.036-32-32.036z" clip-path="url(#clipPath1141-1-2)" enable-background="new" fill="#ad7702" style="paint-order:normal"/>
<path transform="translate(28 195.91)" d="m44-184c-17.673 0-26.641 12.014-32 32.036l-8 40.045c-0.86648 4.3374-3.5818 8.0091-8 8.0091v8.0091h96v-8.0091c-4.4183 0-7.1335-3.6717-8-8.0091l-8-40.045c-4.2426-20.023-14.327-32.036-32-32.036z" clip-path="url(#clipPath1141-0)" enable-background="new" fill="#ad7702" style="paint-order:normal"/>
<path d="m64 11.908c-17.673 0-26.641 12.014-32 32.037l-8 40.045c-0.86648 4.3374-3.5818 8.0098-8 8.0098v0.05469c4.4182 0 15.134-3.6724 16-8.0098l8-40.045c5.359-20.023 13.161-32.037 24-32.037 0 0 18.435 0.42614 0-0.05469z" enable-background="new" fill="#fbeb83" opacity=".632" stroke="#000" stroke-width=".005" style="paint-order:normal"/>
<path transform="translate(20 195.91)" d="m44-184c-17.673 0-26.641 12.014-32 32.036l-8 40.045c-0.86648 4.3374-3.5818 8.0091-8 8.0091v8.0091h96v-8.0091c-4.4183 0-7.1335-3.6717-8-8.0091l-8-40.045c-4.2426-20.023-14.327-32.036-32-32.036z" clip-path="url(#clipPath1141-3-3)" enable-background="new" fill="url(#linearGradient909)" style="paint-order:normal"/>
</g>
<path d="m10.244 6.096c-3.3244 0-6.0458 2.7088-6.0458 6.0224v73.897c0 3.3136 2.7214 6.0224 6.0458 6.0224h81.911c3.3244 0 6.0458-2.7088 6.0458-6.0224v-73.897c0-3.3136-2.7214-6.0224-6.0458-6.0224zm0 2.4741h81.911c2.014 0 3.5755 1.5788 3.5755 3.5483v73.897c0 1.9696-1.5615 3.5483-3.5755 3.5483h-81.911c-2.014 0-3.5755-1.5788-3.5755-3.5483v-73.897c0-1.9696 1.5615-3.5483 3.5755-3.5483z" color="#000000" fill="#241f1f" fill-opacity=".63265" style="text-decoration-line:none;text-indent:0;text-transform:none"/>
<g transform="matrix(1.0076 0 0 1.0143 -1.1213 .64569)">
<rect transform="matrix(.96992 0 0 .99027 5.4055 36.822)" x="2" y="-30" width="92" height="92" rx="3.957" ry="3.957" clip-path="url(#clipPath4156-4-6)" fill="url(#linearGradient4967)"/>
</g>
<rect x="4.4917" y="84.158" width="89.867" height="4.5333" rx="0" ry="4.5333" fill="url(#radialGradient1048)" opacity=".55"/>
<rect transform="rotate(90)" x="3.6242" y="-95.522" width="81.867" height="4.5333" rx="0" ry="4.5333" fill="url(#radialGradient3833-1)" opacity=".55"/>
</g>
</g>
</g>
</svg>
