<?xml version="1.0" encoding="UTF-8"?>
<!-- Created with Inkscape (http://www.inkscape.org/) -->
<svg version="1.1" viewBox="0 0 96 96" xmlns="http://www.w3.org/2000/svg" xmlns:cc="http://creativecommons.org/ns#" xmlns:dc="http://purl.org/dc/elements/1.1/" xmlns:rdf="http://www.w3.org/1999/02/22-rdf-syntax-ns#" xmlns:xlink="http://www.w3.org/1999/xlink">
<defs>
<linearGradient id="linearGradient4071" x1="6" x2="90" y1="47" y2="47" gradientTransform="matrix(1.1071 0 0 1.1071 -4.9939 -3.6207)" gradientUnits="userSpaceOnUse">
<stop stop-color="#c8d2d5" offset="0"/>
<stop stop-color="#eef3f5" offset=".25"/>
<stop stop-color="#c7d0d4" offset=".5"/>
<stop stop-color="#f9fafb" offset=".75"/>
<stop stop-color="#d2dadd" offset="1"/>
</linearGradient>
<linearGradient id="linearGradient4129" x1="1.5" x2="94.5" y1="88.172" y2="88.172" gradientTransform="translate(.14895 .41503)" gradientUnits="userSpaceOnUse">
<stop offset="0"/>
<stop stop-opacity=".58824" offset=".1"/>
<stop stop-opacity=".58824" offset=".9"/>
<stop offset="1"/>
</linearGradient>
<radialGradient id="radialGradient7462" cx="13.948" cy="44.893" r="43.199" gradientTransform="matrix(.97513 0 0 .049191 34.048 80.582)" gradientUnits="userSpaceOnUse" xlink:href="#linearGradient3737"/>
<linearGradient id="linearGradient3737">
<stop stop-color="#fff" offset="0"/>
<stop stop-color="#fff" stop-opacity="0" offset="1"/>
</linearGradient>
<radialGradient id="radialGradient7464" cx="13.948" cy="44.893" r="43.199" gradientTransform="matrix(.88833 0 0 .049191 31.96 -90.317)" gradientUnits="userSpaceOnUse" xlink:href="#linearGradient3737"/>
<linearGradient id="linearGradient4767" x1="2.7714" x2="50.528" y1="-28.642" y2="14.514" gradientUnits="userSpaceOnUse" xlink:href="#linearGradient3737"/>
<clipPath id="clipPath4156-4-1">
<path d="m27.046-55.695-14.214 13.321h0.06127l15.653 21.771 10.231-10.546c-0.2169-1.1522-11.311-23.67-11.732-24.546zm-17.399 16.313-14.888 14.062 21.229 17.515 10.385-10.577zm31.491 12.951-9.7413 9.7136 8.9448 12.458 7.7808-7.555zm-49.84 4.3788-13.754 12.982 26.283 13.846 0.06127-0.0617-0.12253-0.0617 9.8332-10.053-22.301-16.652zm38.015 7.4008-9.8025 9.7753 11.579 9.5594 7.6276-7.4008-8.6691-11.009zm20.187 5.674-7.3825 7.2158 6.1878 8.5418 5.8202-6.1365zm-32.195 6.3215-9.5575 9.4977 13.662 7.185 7.9339-7.6784zm23.312 2.3744-7.1068 6.9383 8.3628 6.9074 5.3608-5.674-0.06127-0.0925-0.0919 0.12335-6.4635-8.2026zm-8.7304 8.5418-7.5051 7.3392 10.354 5.4581c1.3975-1.321 5.6751-6.1229 5.8509-6.3215z" fill="#fff" opacity=".6"/>
</clipPath>
</defs>
<metadata>
<rdf:RDF>
<cc:Work rdf:about="">
<dc:format>image/svg+xml</dc:format>
<dc:type rdf:resource="http://purl.org/dc/dcmitype/StillImage"/>
<dc:title/>
<dc:date>2017</dc:date>
<dc:creator>
<cc:Agent>
<dc:title>Cristian Pozzessere "ilnanny"</dc:title>
</cc:Agent>
</dc:creator>
<dc:subject>
<rdf:Bag>
<rdf:li>Global language</rdf:li>
</rdf:Bag>
</dc:subject>
<dc:description>Playing with Inkscape on Gnu/Linux O. S.</dc:description>
<dc:contributor>
<cc:Agent>
<dc:title>In the night, alone like a dog.</dc:title>
</cc:Agent>
</dc:contributor>
<cc:license rdf:resource="http://creativecommons.org/licenses/by-sa/4.0/"/>
</cc:Work>
<cc:License rdf:about="http://creativecommons.org/licenses/by-sa/4.0/">
<cc:permits rdf:resource="http://creativecommons.org/ns#Reproduction"/>
<cc:permits rdf:resource="http://creativecommons.org/ns#Distribution"/>
<cc:requires rdf:resource="http://creativecommons.org/ns#Notice"/>
<cc:requires rdf:resource="http://creativecommons.org/ns#Attribution"/>
<cc:permits rdf:resource="http://creativecommons.org/ns#DerivativeWorks"/>
<cc:requires rdf:resource="http://creativecommons.org/ns#ShareAlike"/>
</cc:License>
</rdf:RDF>
</metadata>
<g transform="translate(0 -1026.5)">
<g transform="translate(-.14896 1026.1)">
<path d="m89.292 0.41503h-82.286c-3.7988 0-6.8571 3.0583-6.8571 6.8571v82.286c0 3.7989 3.0583 6.8571 6.8571 6.8571h82.286c3.7989 0 6.8571-3.0583 6.8571-6.8571v-82.286c0-3.7989-3.0583-6.8571-6.8571-6.8571z" opacity=".15"/>
<path d="m88.649 1.165h-81c-3.7395 0-6.75 3.0105-6.75 6.75v81c0 3.7395 3.0105 6.75 6.75 6.75h81c3.7395 0 6.75-3.0105 6.75-6.75v-81c0-3.7395-3.0105-6.75-6.75-6.75z" opacity=".15"/>
<path d="m88.006 1.915h-79.714c-3.6801 0-6.6429 2.9627-6.6429 6.6429v79.714c0 3.6801 2.9627 6.6429 6.6429 6.6429h79.714c3.6801 0 6.6429-2.9627 6.6429-6.6429v-79.714c0-3.6801-2.9627-6.6429-6.6429-6.6429z" fill="url(#linearGradient4071)"/>
<path d="m11.39 6.8022c-2.8565 0-5.1241 2.2884-5.1241 5.171v68.58c1.0972 1.6845 1.1685 3.5162 3.3156 3.3285l5.9078-0.51672h65.589l5.6495 1.0334c2.1201 0.38782 3.574-3.8452 3.574-3.8452v-68.58c0-2.8826-2.2676-5.171-5.1241-5.171z" fill="#d01e0d" opacity=".903"/>
<path d="m9.974 5.1445c-3.1166 0-5.668 2.5395-5.668 5.646v69.278c0 3.1065 2.5513 5.646 5.668 5.646h76.792c3.1166 0 5.668-2.5395 5.668-5.646v-69.278c0-3.1065-2.5513-5.646-5.668-5.646zm0 2.3194h76.792c1.8881 0 3.352 1.4801 3.352 3.3266v69.278c0 1.8465-1.4639 3.3266-3.352 3.3266h-76.792c-1.8881 0-3.352-1.4801-3.352-3.3266v-69.278c0-1.8465 1.4639-3.3266 3.352-3.3266z" color="#000000" fill="#4b4b4b" fill-opacity=".89286" style="text-decoration-line:none;text-indent:0;text-transform:none"/>
<path d="m1.649 82.259v6c0 3.6801 2.9761 6.6562 6.6562 6.6562h79.687c3.6801 0 6.6563-2.9761 6.6563-6.6562v-6c0 3.6801-2.9761 6.6562-6.6563 6.6562h-79.687c-3.6801 0-6.6562-2.9761-6.6562-6.6562z" fill="url(#linearGradient4129)" opacity=".65818"/>
<path d="m44.449 13.415c-1.1067 0-1.325 0.05174-1.7703 0.42492-0.88635 0.74294-1.3915 3.0289-1.3863 6.3526 0.0053 3.4365 0.47581 6.7071 1.557 10.963l0.68251 2.6558-0.63985 1.9971c-2.0323 6.4943-4.9787 13.253-9.3205 21.352-6.5802 12.275-11.665 18.719-15.207 19.291-0.56986 0.09211-0.5972 0.06837-0.5972-0.33994-1e-6 -2.0717 3.9282-7.2519 8.2968-10.942 2.2316-1.8849-0.36534-0.62516-3.3699 1.6359-3.0278 2.2786-5.5359 5.2331-6.3132 7.4362-0.55272 1.5665-0.4358 2.1204 0.57587 2.6345 1.8076 0.9186 2.7274 0.95473 4.2657 0.19121 2.9901-1.4842 6.9445-6.1813 11.347-13.47 1.4274-2.3634 1.8753-2.9532 2.2395-2.9532 0.12832 0 1.4773-0.37394 2.986-0.8286 6.0298-1.8172 13.27-3.2839 20.369-4.143l2.3675-0.29745 1.1944 0.59489c3.1105 1.5604 7.4447 3.0745 10.622 3.6968 2.1486 0.42093 4.9466 0.4985 5.8866 0.16996 0.59233-0.207 1.8263-0.93846 1.8263-1.1788-2.4112 1.1308-6.0454-0.26648-8.7794-1.0732-1.8026-0.56789-5.7695-2.1188-5.9933-2.3371 4.803-0.92965 13.812-1.1358 14.781 2.1884 0.28364 0 0.21075-1.3344-0.10664-1.8697-0.59446-1.0025-2.317-1.8117-4.7989-2.2733-2.0094-0.37373-6.7707-0.47835-10.494-0.2337l-3.3059 0.21246-1.1944-0.72237c-6.8487-4.1487-10.476-8.829-13.757-17.719-0.49234-1.3341-0.52547-1.5172-0.36258-2.3583 0.5735-2.9615 1.1057-12.968 0.70384-13.215-0.73196 3.2788-1.3239 6.5583-2.0689 9.5183-0.15388 0-0.60476-2.3072-0.95978-4.9928-0.38626-2.922-0.24598-6.875 0.27727-8.2223 0.20968-0.53988 0.48317-1.0318 0.61852-1.0836 1.3412 0.38468 2.0877 1.447 2.2821 3.0807 0.1903 0 0.23917-0.31221 0.27727-1.3173 0.0838-2.2105-0.50859-2.8257-2.73-2.8257zm0.53321 24.391c0.07601-0.02422 0.11924 0.1399 0.21328 0.40368 0.11577 0.32473 0.76376 1.6543 1.429 2.9532 2.8624 5.5889 6.0321 9.2544 10.6 12.259 0.23143 0.15222 0.37443 0.32573 0.31993 0.38242-0.0545 0.0567-0.98435 0.25686-2.0475 0.44617-7.2501 1.291-16.276 4.0068-20.667 6.2039-0.06985 0.03492-0.12797-0.03365-0.12797-0.14872 1e-6 -0.11506 0.43162-1.0143 0.9811-1.9971 4.1388-7.403 6.9198-13.386 8.4887-18.314 0.4977-1.5633 0.68379-2.148 0.81048-2.1884z" enable-background="new" fill="none" stroke="#fafafa" stroke-opacity=".50446" stroke-width="5.7383"/>
<path d="m44.449 13.415c-1.1067 0-1.325 0.05174-1.7703 0.42492-0.88635 0.74294-1.3915 3.0289-1.3863 6.3526 0.0053 3.4365 0.47581 6.7071 1.557 10.963l0.68251 2.6558-0.63985 1.9971c-2.0323 6.4943-4.9787 13.253-9.3205 21.352-6.5802 12.275-11.665 18.719-15.207 19.291-0.56986 0.09211-0.5972 0.06837-0.5972-0.33994-1e-6 -2.0717 3.9282-7.2519 8.2968-10.942 2.2316-1.8849-0.36534-0.62516-3.3699 1.6359-3.0278 2.2786-5.5359 5.2331-6.3132 7.4362-0.55272 1.5665-0.4358 2.1204 0.57587 2.6345 1.8076 0.9186 2.7274 0.95473 4.2657 0.19121 2.9901-1.4842 6.9445-6.1813 11.347-13.47 1.4274-2.3634 1.8753-2.9532 2.2395-2.9532 0.12832 0 1.4773-0.37394 2.986-0.8286 6.0298-1.8172 13.27-3.2839 20.369-4.143l2.3675-0.29745 1.1944 0.59489c3.1105 1.5604 7.4447 3.0745 10.622 3.6968 2.1486 0.42093 4.9466 0.4985 5.8866 0.16996 0.59233-0.207 1.8263-0.93846 1.8263-1.1788-2.4112 1.1308-6.0454-0.26648-8.7794-1.0732-1.8026-0.56789-5.7695-2.1188-5.9933-2.3371 4.803-0.92965 13.812-1.1358 14.781 2.1884 0.28364 0 0.21075-1.3344-0.10664-1.8697-0.59446-1.0025-2.317-1.8117-4.7989-2.2733-2.0094-0.37373-6.7707-0.47835-10.494-0.2337l-3.3059 0.21246-1.1944-0.72237c-6.8487-4.1487-10.476-8.829-13.757-17.719-0.49234-1.3341-0.52547-1.5172-0.36258-2.3583 0.5735-2.9615 1.1057-12.968 0.70384-13.215-0.73196 3.2788-1.3239 6.5583-2.0689 9.5183-0.15388 0-0.60476-2.3072-0.95978-4.9928-0.38626-2.922-0.24598-6.875 0.27727-8.2223 0.20968-0.53988 0.48317-1.0318 0.61852-1.0836 1.3412 0.38468 2.0877 1.447 2.2821 3.0807 0.1903 0 0.23917-0.31221 0.27727-1.3173 0.0838-2.2105-0.50859-2.8257-2.73-2.8257zm0.53321 24.391c0.07601-0.02422 0.11924 0.1399 0.21328 0.40368 0.11577 0.32473 0.76376 1.6543 1.429 2.9532 2.8624 5.5889 6.0321 9.2544 10.6 12.259 0.23143 0.15222 0.37443 0.32573 0.31993 0.38242-0.0545 0.0567-0.98435 0.25686-2.0475 0.44617-7.2501 1.291-16.276 4.0068-20.667 6.2039-0.06985 0.03492-0.12797-0.03365-0.12797-0.14872 1e-6 -0.11506 0.43162-1.0143 0.9811-1.9971 4.1388-7.403 6.9198-13.386 8.4887-18.314 0.4977-1.5633 0.68379-2.148 0.81048-2.1884z" enable-background="new" fill="#ffebeb" stroke="#ffe8e8" stroke-width=".9726"/>
<rect x="5.524" y="80.665" width="84.25" height="4.25" rx="0" ry="4.25" fill="url(#radialGradient7462)" opacity=".55"/>
<rect transform="rotate(90)" x="5.975" y="-90.234" width="76.75" height="4.25" rx="0" ry="4.25" fill="url(#radialGradient7464)" opacity=".669"/>
<rect transform="matrix(1.0692 0 0 1.0477 4.4442 38.894)" x="2" y="-30" width="75.966" height="69.024" rx="3.957" ry="3.957" clip-path="url(#clipPath4156-4-1)" fill="url(#linearGradient4767)" opacity=".50781"/>
</g>
</g>
</svg>
