<?xml version="1.0" encoding="UTF-8"?>
<!-- Created with Inkscape (http://www.inkscape.org/) -->
<svg version="1.1" viewBox="0 0 96 96" xmlns="http://www.w3.org/2000/svg" xmlns:cc="http://creativecommons.org/ns#" xmlns:dc="http://purl.org/dc/elements/1.1/" xmlns:rdf="http://www.w3.org/1999/02/22-rdf-syntax-ns#" xmlns:xlink="http://www.w3.org/1999/xlink">
<defs>
<linearGradient id="linearGradient5021" x1="6" x2="90" y1="47" y2="47" gradientTransform="matrix(1.1354 0 0 1.1337 -40.037 -46.788)" gradientUnits="userSpaceOnUse">
<stop stop-color="#b7b7b7" offset="0"/>
<stop stop-color="#fff" offset=".25"/>
<stop stop-color="#9d9d9d" offset=".5"/>
<stop stop-color="#fafafa" offset=".75"/>
<stop stop-color="#b7b7b7" offset="1"/>
</linearGradient>
<radialGradient id="radialGradient3114" cx="158" cy="6.2132" r="41" gradientTransform="matrix(0 1.6209 -2.0383 0 160.66 -243.04)" gradientUnits="userSpaceOnUse" xlink:href="#linearGradient3888-8-4-8-6"/>
<linearGradient id="linearGradient3888-8-4-8-6">
<stop stop-color="#fff" offset="0"/>
<stop stop-color="#fff" stop-opacity="0" offset="1"/>
</linearGradient>
<radialGradient id="radialGradient3118" cx="48" cy="-27" r="42" gradientTransform="matrix(-1.0722 0 0 -.87502 199.46 -19.126)" gradientUnits="userSpaceOnUse">
<stop stop-color="#fff" offset="0"/>
<stop stop-color="#fff" offset=".8"/>
<stop stop-color="#fff" stop-opacity="0" offset="1"/>
</radialGradient>
<linearGradient id="linearGradient3120" x1="-94" x2="-10.188" y1="82.984" y2="82.984" gradientTransform="matrix(1 0 0 .88906 200 8.9432)" gradientUnits="userSpaceOnUse">
<stop offset="0"/>
<stop stop-opacity=".58824" offset=".1"/>
<stop stop-opacity=".58824" offset=".9"/>
<stop offset="1"/>
</linearGradient>
<linearGradient id="linearGradient5698" x1="6" x2="90" y1="47" y2="47" gradientTransform="matrix(1.1354 0 0 1.1337 -40.037 -46.788)" gradientUnits="userSpaceOnUse">
<stop stop-color="#fff" stop-opacity="0" offset="0"/>
<stop stop-color="#fff" stop-opacity=".85135" offset=".036815"/>
<stop stop-color="#fff" stop-opacity="0" offset=".065061"/>
<stop stop-color="#fff" stop-opacity="0" offset=".94494"/>
<stop stop-color="#fff" stop-opacity=".85135" offset=".96582"/>
<stop stop-color="#fff" stop-opacity="0" offset="1"/>
</linearGradient>
<linearGradient id="linearGradient1210" x1="4.1613" x2="24.761" y1="42.204" y2="42.204" gradientTransform="matrix(1.0066 0 0 .85347 -.094833 5.3836)" gradientUnits="userSpaceOnUse">
<stop stop-color="#fff" stop-opacity=".016779" offset="0"/>
<stop stop-color="#fff" offset=".17869"/>
<stop stop-color="#fff" offset=".8"/>
<stop stop-color="#fff" stop-opacity=".02349" offset="1"/>
</linearGradient>
<linearGradient id="linearGradient4767" x1="2.7714" x2="50.528" y1="-28.642" y2="14.514" gradientUnits="userSpaceOnUse" xlink:href="#linearGradient3888-8-4-8-6"/>
<clipPath id="clipPath4156-4-1">
<path d="m27.046-55.695-14.214 13.321h0.06127l15.653 21.771 10.231-10.546c-0.2169-1.1522-11.311-23.67-11.732-24.546zm-17.399 16.313-14.888 14.062 21.229 17.515 10.385-10.577zm31.491 12.951-9.7413 9.7136 8.9448 12.458 7.7808-7.555zm-49.84 4.3788-13.754 12.982 26.283 13.846 0.06127-0.0617-0.12253-0.0617 9.8332-10.053-22.301-16.652zm38.015 7.4008-9.8025 9.7753 11.579 9.5594 7.6276-7.4008-8.6691-11.009zm20.187 5.674-7.3825 7.2158 6.1878 8.5418 5.8202-6.1365zm-32.195 6.3215-9.5575 9.4977 13.662 7.185 7.9339-7.6784zm23.312 2.3744-7.1068 6.9383 8.3628 6.9074 5.3608-5.674-0.06127-0.0925-0.0919 0.12335-6.4635-8.2026zm-8.7304 8.5418-7.5051 7.3392 10.354 5.4581c1.3975-1.321 5.6751-6.1229 5.8509-6.3215z" fill="#fff" opacity=".6"/>
</clipPath>
</defs>
<metadata>
<rdf:RDF>
<cc:Work rdf:about="">
<dc:format>image/svg+xml</dc:format>
<dc:type rdf:resource="http://purl.org/dc/dcmitype/StillImage"/>
<dc:title/>
<dc:date>2017</dc:date>
<dc:creator>
<cc:Agent>
<dc:title>Cristian Pozzessere "ilnanny"</dc:title>
</cc:Agent>
</dc:creator>
<dc:subject>
<rdf:Bag>
<rdf:li>Global language</rdf:li>
</rdf:Bag>
</dc:subject>
<dc:description>Playing with Inkscape on Gnu/Linux O. S.</dc:description>
<dc:contributor>
<cc:Agent>
<dc:title>In the night, alone like a dog.</dc:title>
</cc:Agent>
</dc:contributor>
<cc:license rdf:resource="http://creativecommons.org/licenses/by-sa/4.0/"/>
</cc:Work>
<cc:License rdf:about="http://creativecommons.org/licenses/by-sa/4.0/">
<cc:permits rdf:resource="http://creativecommons.org/ns#Reproduction"/>
<cc:permits rdf:resource="http://creativecommons.org/ns#Distribution"/>
<cc:requires rdf:resource="http://creativecommons.org/ns#Notice"/>
<cc:requires rdf:resource="http://creativecommons.org/ns#Attribution"/>
<cc:permits rdf:resource="http://creativecommons.org/ns#DerivativeWorks"/>
<cc:requires rdf:resource="http://creativecommons.org/ns#ShareAlike"/>
</cc:License>
</rdf:RDF>
</metadata>
<g transform="translate(0 -1026.5)">
<g transform="matrix(1.0034 0 0 1.005 33.489 1068)">
<path d="m55.334-41.119h-81.747c-3.774 0-6.8123 3.0337-6.8123 6.802v81.624c0 3.7683 3.0383 6.802 6.8123 6.802h81.747c3.774 0 6.8123-3.0337 6.8123-6.802v-81.624c0-3.7683-3.0383-6.802-6.8123-6.802z" fill="url(#linearGradient5021)"/>
<g transform="matrix(1.1354 0 0 1.1337 -153.57 -46.221)">
<path d="m112 5.5c-2.7873 0-5 2.2127-5 5v66.312c1.0707 1.6288 2.8969 2.7188 5 2.7188h72c2.1031 0 3.9293-1.09 5-2.7188v-66.312c0-2.7873-2.2127-5-5-5z" fill="url(#radialGradient3114)" opacity=".2"/>
<path d="m112 4.5c-3.324 0-6 2.676-6 6v15h1v-15c0-2.7873 2.2127-5 5-5h72c2.7873 0 5 2.2127 5 5v15h1v-15c0-3.324-2.676-6-6-6z" fill="url(#radialGradient3118)" opacity=".45"/>
<path d="m106 76.942v6.2234c0 2.9552 2.676 5.3344 6 5.3344h72c3.324 0 6-2.3791 6-5.3344v-6.2234c0 2.9552-2.676 5.3344-6 5.3344h-72c-3.324 0-6-2.3791-6-5.3344z" fill="url(#linearGradient3120)" opacity=".46965"/>
</g>
<path d="m-25.62 16.576c-1.8786 0-3.637 0.91362-4.7428 2.2606v15.015c0 2.3926 2.1153 4.3188 4.7428 4.3188h80.627c2.6275 0 4.7428-1.9262 4.7428-4.3188v-15.015c-1.1058-1.347-2.8641-2.2606-4.7428-2.2606zm0 3.2391h80.627c1.3548 0 2.3714 0.92574 2.3714 2.1594v11.877c0 1.2337-1.0166 2.1594-2.3714 2.1594h-80.627c-1.3548 0-2.3714-0.92574-2.3714-2.1594v-11.877c0-1.2336 1.0166-2.1594 2.3714-2.1594z" color="#000000" opacity=".02" style="text-decoration-line:none;text-indent:0;text-transform:none"/>
<path d="m-25.62-37.409h80.627c2.6275 0 4.7428 1.8889 4.7428 4.2353v65.647c0 2.3464-2.1153 4.2353-4.7428 4.2353h-80.627c-2.6275 0-4.7428-1.8889-4.7428-4.2353v-65.647c0-2.3464 2.1153-4.2353 4.7428-4.2353z" color="#000000" fill="#0d1625" fill-opacity=".78261" opacity=".862"/>
<path d="m55.334-41.119h-81.747c-3.774 0-6.8122 3.0337-6.8122 6.802v81.624c0 3.7683 3.0383 6.802 6.8122 6.802h81.747c3.774 0 6.8123-3.0337 6.8123-6.802v-81.624c0-3.7683-3.0383-6.802-6.8123-6.802z" fill="url(#linearGradient5698)" opacity=".877"/>
<rect x="4.1505" y="38.597" width="20.621" height="5.6116" rx="4.2441" ry="4.5267" fill="url(#linearGradient1210)" fill-rule="evenodd" opacity=".862" stroke="#3f3f3f" stroke-linecap="square" stroke-linejoin="round" stroke-width="1.1196" style="paint-order:fill markers stroke"/>
<path d="m18.186 16.971h-10.699c-1.4771 0-2.6748 1.0173-2.6748 2.272v9.0873c0 1.2546 1.1977 2.272 2.6748 2.272h10.699c1.4771 0 2.6748-1.0173 2.6748-2.272v-9.0873c0-1.2546-1.1977-2.272-2.6748-2.272zm-5.3494 11.359c-2.9545 0-5.3493-2.0344-5.3493-4.5436 0-2.5095 2.3949-4.5436 5.3493-4.5436 2.9545 0 5.3494 2.0342 5.3494 4.5436 0 2.5092-2.3949 4.5436-5.3494 4.5436z" fill="#63afdb" stroke="#fdfdfd" stroke-width=".49791"/>
<path d="m30.196 28.33c0 1.2546 1.1977 2.272 2.6748 2.272h10.699c1.4771 0 2.6748-1.0173 2.6748-2.272v-9.0873c0-1.2546-1.1977-2.272-2.6748-2.272h-10.699c-1.4771 0-2.6748 1.0173-2.6748 2.272z" fill="#ff6469" stroke="#fdfdfd" stroke-width=".49791"/>
<path d="m-7.198 16.971h-10.699c-1.4771 0-2.6748 1.0173-2.6748 2.272v9.0873c0 1.2546 1.1977 2.272 2.6748 2.272h10.699c1.4771 0 2.6748-1.0173 2.6748-2.272v-9.0873c0-1.2546-1.1974-2.272-2.6748-2.272z" fill="#5fc960" stroke="#fdfdfd" stroke-width=".49791"/>
<path d="m7.4873 0.37409h10.699c1.4771 0 2.6748-1.0206 2.6748-2.2793v-9.1168c0-1.2587-1.1977-2.2793-2.6748-2.2793h-10.699c-1.4771 0-2.6748 1.0206-2.6748 2.2793v9.1168c0 1.2587 1.1977 2.2793 2.6748 2.2793z" fill="#ffdc69" stroke="#fdfdfd" stroke-width=".49791"/>
<path d="m32.871 0.37409h10.699c1.4771 0 2.6748-1.0206 2.6748-2.2793v-9.1168c0-1.2587-1.1977-2.2793-2.6748-2.2793h-10.699c-1.4771 0-2.6748 1.0206-2.6748 2.2793v9.1168c0 1.2587 1.1974 2.2793 2.6748 2.2793zm0-6.8377c0-1.2587 1.1977-2.2793 2.6748-2.2793h5.3493c1.4771 0 2.6748 1.0206 2.6748 2.2793 0 1.2587-1.1977 2.2793-2.6748 2.2793h-5.3493c-1.4774 0-2.6748-1.0206-2.6748-2.2793z" fill="#4abf40" stroke="#fdfdfd" stroke-width=".49791"/>
<path d="m-17.897 0.37409h10.699c1.4771 0 2.6748-1.0206 2.6748-2.2793v-9.1168c0-1.2587-1.1977-2.2793-2.6748-2.2793h-10.699c-1.4771 0-2.6748 1.0206-2.6748 2.2793v9.1168c3e-4 1.2587 1.1977 2.2793 2.6748 2.2793zm0-6.8377c0-1.2587 1.1977-2.2793 2.6748-2.2793h5.3493c1.4771 0 2.6748 1.0206 2.6748 2.2793 0 1.2587-1.1977 2.2793-2.6748 2.2793h-5.3493c-1.4771 0-2.6748-1.0206-2.6748-2.2793z" fill="#468cbe" stroke="#fdfdfd" stroke-width=".49791"/>
<path d="m7.4873-17.86h10.699c1.4771 0 2.6748-1.0206 2.6748-2.2793v-9.1168c0-1.2587-1.1977-2.2793-2.6748-2.2793h-10.699c-1.4771 0-2.6748 1.0206-2.6748 2.2793v9.1168c0 1.2589 1.1977 2.2793 2.6748 2.2793zm0-6.8377c0-1.2587 1.1977-2.2793 2.6748-2.2793h5.3493c1.4771 0 2.6748 1.0207 2.6748 2.2793 0 1.2587-1.1977 2.2793-2.6748 2.2793h-5.3493c-1.4774 0-2.6748-1.0204-2.6748-2.2793z" fill="#cdb0c9" stroke="#fdfdfd" stroke-width=".49791"/>
<path d="m32.871-17.86h10.699c1.4771 0 2.6748-1.0206 2.6748-2.2793v-9.1168c0-1.2587-1.1977-2.2793-2.6748-2.2793h-10.699c-1.4771 0-2.6748 1.0206-2.6748 2.2793v9.1168c0 1.2589 1.1974 2.2793 2.6748 2.2793z" fill="#0ff" stroke="#fdfdfd" stroke-width=".49791"/>
<path d="m-17.897-17.86h10.699c1.4771 0 2.6748-1.0206 2.6748-2.2793v-9.1168c0-1.2587-1.1977-2.2793-2.6748-2.2793h-10.699c-1.4771 0-2.6748 1.0206-2.6748 2.2793v9.1168c3e-4 1.2589 1.1977 2.2793 2.6748 2.2793zm5.3493-11.396c2.9545 0 5.3493 2.0408 5.3493 4.5584 0 2.5174-2.3949 4.5584-5.3493 4.5584-2.9545 0-5.3493-2.041-5.3493-4.5584 0-2.5176 2.3949-4.5584 5.3493-4.5584z" fill="#d7788b" stroke="#fdfdfd" stroke-width=".49791"/>
<ellipse cx="-12.547" cy="-24.697" rx="5.3493" ry="4.5584" fill="#ffdc69" stroke="#fdfdfd" stroke-width=".49791"/>
<ellipse cx="12.837" cy="23.786" rx="5.3493" ry="4.5436" fill="#ffdc69" stroke="#fdfdfd" stroke-width=".49791"/>
<path d="m10.162-22.418h5.3493c1.4771 0 2.6748-1.0207 2.6748-2.2793 0-1.2587-1.1977-2.2793-2.6748-2.2793h-5.3493c-1.4771 0-2.6748 1.0207-2.6748 2.2793 2.98e-4 1.2589 1.1977 2.2793 2.6748 2.2793z" fill="#468cbe" stroke="#fdfdfd" stroke-width=".49791"/>
<path d="m35.546-4.1843h5.3493c1.4771 0 2.6748-1.0206 2.6748-2.2793 0-1.2587-1.1977-2.2793-2.6748-2.2793h-5.3493c-1.4771 0-2.6748 1.0206-2.6748 2.2793 3.05e-4 1.2587 1.1977 2.2793 2.6748 2.2793z" fill="#ff6469" stroke="#fdfdfd" stroke-width=".49791"/>
<path d="m-15.222-4.1843h5.3493c1.4771 0 2.6748-1.0206 2.6748-2.2793 0-1.2587-1.1977-2.2793-2.6748-2.2793h-5.3493c-1.4771 0-2.6748 1.0206-2.6748 2.2793 0 1.2587 1.1977 2.2793 2.6748 2.2793z" fill="#fff" stroke="#fdfdfd" stroke-width=".49791"/>
<ellipse cx="1.8278" cy="9.5357" rx="2.6748" ry="2.4784" fill="#1da0f2" stroke="#fdfdfd" stroke-width=".49791"/>
<ellipse cx="12.527" cy="9.5357" rx="2.6748" ry="2.4784" fill="#fff" stroke="#fdfdfd" stroke-width=".49791"/>
<ellipse cx="23.225" cy="9.5357" rx="2.6748" ry="2.4784" fill="#fff" stroke="#fdfdfd" stroke-width=".49791"/>
<path transform="matrix(.66533 0 0 .66432 107.98 .91227)" d="m-96.783-39.989-4.1825 3.6703 0.65234 5.5262-4.7831-2.8437-5.0542 2.3281 1.2264-5.4277-3.776-4.0874 5.5411-0.51088 2.7205-4.8542 2.1982 5.112z" fill="#fff" stroke="#fdfdfd" stroke-width=".74893"/>
<rect transform="matrix(1.0656 0 0 1.0425 -30.21 -4.2869)" x="2" y="-30" width="75.966" height="69.024" rx="3.957" ry="3.957" clip-path="url(#clipPath4156-4-1)" fill="url(#linearGradient4767)" opacity=".63462"/>
<path d="m-25.62-37.409c-2.6275 0-4.7415 1.8885-4.7415 4.2349v65.647c0 2.3464 2.114 4.2349 4.7415 4.2349h80.629c2.6275 0 4.7415-1.8885 4.7415-4.2349v-65.647c0-2.3463-2.114-4.2349-4.7415-4.2349zm2.3591 2.167h75.91c2.4738 0 4.4651 1.7789 4.4651 3.988v61.807c0 2.2091-1.9913 3.988-4.4651 3.988h-75.91c-2.4738 0-4.4651-1.7789-4.4651-3.988v-61.807c0-2.2091 1.9913-3.988 4.4651-3.988z" color="#000000" fill="#0d1625" fill-opacity=".59809" opacity=".862"/>
</g>
</g>
</svg>
