<?xml version="1.0" encoding="UTF-8"?>
<!-- Created with Inkscape (http://www.inkscape.org/) -->
<svg version="1.1" viewBox="0 0 96 96" xmlns="http://www.w3.org/2000/svg" xmlns:cc="http://creativecommons.org/ns#" xmlns:dc="http://purl.org/dc/elements/1.1/" xmlns:rdf="http://www.w3.org/1999/02/22-rdf-syntax-ns#" xmlns:xlink="http://www.w3.org/1999/xlink">
<defs>
<linearGradient id="c" x1="17.145" x2="15.23" y1="4.9665" y2="49.031" gradientTransform="matrix(1.2518 0 0 1.2518 -.19703 -.55629)" gradientUnits="userSpaceOnUse">
<stop stop-color="#f82f98" offset="0"/>
<stop stop-color="#795cf8" offset="1"/>
</linearGradient>
<linearGradient id="d" x1="42.47" x2="54.393" y1="7.0833" y2="33.54" gradientTransform="matrix(1.2518 0 0 1.2518 -.19703 -.55629)" gradientUnits="userSpaceOnUse">
<stop stop-color="#bc41f1" offset="0"/>
<stop stop-color="#8857f6" offset="1"/>
</linearGradient>
<linearGradient id="linearGradient3737">
<stop stop-color="#fff" offset="0"/>
<stop stop-color="#fff" stop-opacity="0" offset="1"/>
</linearGradient>
<linearGradient id="linearGradient4071" x1="6" x2="90" y1="47" y2="47" gradientTransform="matrix(1.1071 0 0 1.1071 -5.1429 -4.0357)" gradientUnits="userSpaceOnUse">
<stop stop-color="#b2babc" offset="0"/>
<stop stop-color="#fff" offset=".25"/>
<stop stop-color="#96a1a4" offset=".5"/>
<stop stop-color="#fbf9f9" offset=".75"/>
<stop stop-color="#b2b9bc" offset="1"/>
</linearGradient>
<linearGradient id="linearGradient4129" x1="1.5" x2="94.5" y1="88.172" y2="88.172" gradientTransform="translate(-2.95e-6,2.6e-5)" gradientUnits="userSpaceOnUse">
<stop offset="0"/>
<stop stop-opacity=".58824" offset=".1"/>
<stop stop-opacity=".58824" offset=".9"/>
<stop offset="1"/>
</linearGradient>
<radialGradient id="radialGradient7462" cx="13.948" cy="44.893" r="43.199" gradientTransform="matrix(.97513 0 0 .049191 33.899 80.167)" gradientUnits="userSpaceOnUse" xlink:href="#linearGradient3737"/>
<radialGradient id="radialGradient7496" cx="13.948" cy="44.893" r="43.199" gradientTransform="matrix(.88833 0 0 .049191 31.545 -90.168)" gradientUnits="userSpaceOnUse" xlink:href="#linearGradient3737"/>
<linearGradient id="linearGradient4767" x1="2.7714" x2="50.528" y1="-28.962" y2="14.514" gradientUnits="userSpaceOnUse" xlink:href="#linearGradient3737"/>
<clipPath id="clipPath4156-4-1-7">
<path d="m27.046-55.695-14.214 13.321h0.06127l15.653 21.771 10.231-10.546c-0.2169-1.1522-11.311-23.67-11.732-24.546zm-17.079 16.313-15.208 14.062 21.229 17.515 10.385-10.577zm31.491 12.951-9.7413 9.7136 8.9448 12.458 7.7808-7.555zm-49.84 4.3788-13.754 12.982 26.283 13.846 0.06127-0.0617-0.12253-0.0617 9.5132-10.053-22.301-16.652zm38.015 7.4008-9.8025 9.7753 11.579 9.5594 7.6276-7.4008-8.6691-11.009zm20.187 5.674-7.3825 7.2158 6.1878 8.5418 5.8202-6.1365zm-32.195 6.3215-9.5575 9.4977 13.662 7.185 7.9339-7.6784zm23.312 2.3744-7.1068 6.9383 8.3628 6.9074 5.3608-5.674-0.06127-0.0925-0.0919 0.12335-6.4635-8.2026zm-8.7304 8.5418-7.5051 7.3392 10.354 5.4581c1.3975-1.321 5.6751-6.1229 5.8509-6.3215z" fill="#fff" opacity=".6"/>
</clipPath>
<radialGradient id="a-3" cx="52.174" cy="55.461" r="21.975" gradientTransform="matrix(1.596 0 0 1.4791 -18.158 -14.24)" gradientUnits="userSpaceOnUse">
<stop stop-color="#7b59f7" offset="0"/>
<stop stop-color="#b745f0" offset="1"/>
</radialGradient>
</defs>
<metadata>
<rdf:RDF>
<cc:Work rdf:about="">
<dc:format>image/svg+xml</dc:format>
<dc:type rdf:resource="http://purl.org/dc/dcmitype/StillImage"/>
<dc:title/>
</cc:Work>
</rdf:RDF>
</metadata>
<path d="m89.143 2.6e-5h-82.286c-3.7988 0-6.8571 3.0583-6.8571 6.8571v82.286c0 3.7989 3.0583 6.8571 6.8571 6.8571h82.286c3.7989 0 6.8571-3.0583 6.8571-6.8571v-82.286c0-3.7989-3.0583-6.8571-6.8571-6.8571z" opacity=".15"/>
<path d="m88.82 0.75003h-81c-3.7395 0-6.75 3.0105-6.75 6.75v81c0 3.7395 3.0105 6.75 6.75 6.75h81c3.7395 0 6.75-3.0105 6.75-6.75v-81c0-3.7395-3.0105-6.75-6.75-6.75z" opacity=".15"/>
<path d="m87.857 1.5h-79.714c-3.6801 0-6.9629 2.9627-6.9629 6.9629v79.394c0 3.6801 2.9627 6.9629 6.9629 6.9629h79.714c3.6801 0 6.9629-2.9627 6.9629-6.9629v-79.714c0-3.6801-2.9627-6.9629-6.9629-6.9629z" fill="url(#linearGradient4071)"/>
<path d="m11.344 5.0405c-2.9098 0-5.2138 2.3615-5.2138 5.3363v29.583l-0.75515 41.305c1.1164 1.7383 1.515 3.2996 3.7043 3.1694l6.4357-0.38282h66.737l6.4357 0.38282c2.1892 0.13022 1.8327-1.5461 2.9491-3.2844v-70.773c0-2.9748-2.3073-5.3363-5.2138-5.3363z" fill="#800080"/>
<g transform="translate(8.2702 5.0618)">
<path d="m43.379 12.123-1.6341-0.21789-0.32683-3.7041-27.126-5.9918-13.509 15.252 7.6259 43.467 24.294 0.65365z" fill="url(#c)" stroke-width="1.2518" style="paint-order:normal"/>
<path d="m41.201 12.996 8.0617-6.3187 19.609 3.7041 9.369 23.531-11.875 13.836-17.431-14.272-12.746-15.361z" fill="url(#d)" stroke-width="1.2518" style="paint-order:normal"/>
<path d="m78.677 62.127-17.758-33.445-37.298 36.605v5.0113l25.819 9.369z" fill="url(#a-3)" stroke-width="1.2518" style="paint-order:normal"/>
<g transform="matrix(1.2518 0 0 1.2518 -.19703 -.55629)">
<rect x="12.677" y="13.6" width="38.892" height="38.831" fill="#282828" style="paint-order:normal"/>
<path d="m16.361 18.266v16.102l3.873-0.04297v-5.0059h4.6113c2.2114 0 4.918-2.5635 4.918-5.4824 0-2.919-2.454-5.5703-4.918-5.5703h-8.4844zm3.873 2.916h3.4375c1.4223 0 2.5696 1.1461 2.5696 2.5684s-1.1441 2.5696-2.5696 2.5696h-3.4375v-2.5696z" fill="#f2f2f2" style="paint-order:normal"/>
<path d="m30.615 32.092 2.1231-2.6154c2.8906 2.9639 6.4834 2.3996 7.0462 0.83077 1.1311-3.1468-9.1074-1.4904-8.5538-7.4462 0.68338-7.3519 10.455-4.8415 11.723-2.7077l-1.9077 2.5846c-1.0105-1.0445-5.4333-2.4493-6.0923-0.8-1.5517 3.8834 9.4307 1.3331 8.5538 8.2462-0.972 7.6628-12.214 3.948-12.892 1.9077z" fill="#f2f2f2" style="paint-order:normal"/>
<rect x="16.492" y="44.554" width="14.585" height="2.9538" fill="#f2f2f2" style="paint-order:normal"/>
</g>
</g>
<path d="m9.8251 4.7295c-3.1166 0-5.668 2.5395-5.668 5.966v69.278c0 3.1097 2.5513 5.966 5.668 5.966h76.792c3.1166 0 5.668-2.5395 5.668-5.966v-69.598c0-3.1097-2.5513-5.966-5.668-5.966zm0 2.3194h76.792c1.8881 0 3.352 1.4801 3.352 3.3266v69.278c0 1.8497-1.4639 3.3266-3.352 3.3266h-76.792c-1.8881 0-3.352-1.4801-3.352-3.3266v-69.278c0-1.8497 1.4639-3.3266 3.352-3.3266z" color="#000000" fill="#646464" style="text-decoration-line:none;text-indent:0;text-transform:none"/>
<path d="m1.82 81.844v6c0 3.6801 2.9761 6.6562 6.6562 6.6562h79.368c3.6801 0 6.6563-2.9761 6.6563-6.6562v-6c0 3.6801-2.9761 6.6562-6.6563 6.6562h-79.688c-3.6801 0-6.6562-2.9761-6.6562-6.6562z" fill="url(#linearGradient4129)" opacity=".65818"/>
<rect x="5.375" y="80.25" width="84.25" height="4.25" rx="0" ry="4.25" fill="url(#radialGradient7462)" opacity=".55"/>
<rect transform="rotate(90)" x="5.56" y="-90.085" width="76.75" height="4.25" rx="0" ry="4.25" fill="url(#radialGradient7496)" opacity=".669"/>
<rect transform="matrix(1.0692 0 0 1.0477 4.2952 38.479)" x="2" y="-30" width="75.966" height="69.024" rx="3.957" ry="3.957" clip-path="url(#clipPath4156-4-1-7)" fill="url(#linearGradient4767)" opacity=".69"/>
</svg>
