<?xml version="1.0" encoding="UTF-8"?>
<!-- Created with Inkscape (http://www.inkscape.org/) -->
<svg version="1.0" viewBox="0 0 96 96" xmlns="http://www.w3.org/2000/svg" xmlns:cc="http://creativecommons.org/ns#" xmlns:dc="http://purl.org/dc/elements/1.1/" xmlns:rdf="http://www.w3.org/1999/02/22-rdf-syntax-ns#" xmlns:xlink="http://www.w3.org/1999/xlink">
<defs>
<linearGradient id="ButtonShadow" x1="45.448" x2="45.448" y1="92.54" y2="7.0165" gradientTransform="scale(1.0059 .99417)" gradientUnits="userSpaceOnUse">
<stop offset="0"/>
<stop stop-opacity=".58824" offset="1"/>
</linearGradient>
<filter id="filter3174" color-interpolation-filters="sRGB">
<feGaussianBlur stdDeviation="1.71"/>
</filter>
<linearGradient id="linearGradient3700-0">
<stop stop-color="#70a83e" offset="0"/>
<stop stop-color="#9fd058" offset="1"/>
</linearGradient>
<filter id="filter3174-4-0" color-interpolation-filters="sRGB">
<feGaussianBlur stdDeviation="1.71"/>
</filter>
<linearGradient id="linearGradient4071" x1="6" x2="90" y1="47" y2="47" gradientTransform="matrix(1.1071 0 0 1.1071 -10.871 -4.9825)" gradientUnits="userSpaceOnUse">
<stop stop-color="#b2babc" offset="0"/>
<stop stop-color="#fff" offset=".25"/>
<stop stop-color="#96a1a4" offset=".5"/>
<stop stop-color="#fbf9f9" offset=".75"/>
<stop stop-color="#b2b9bc" offset="1"/>
</linearGradient>
<linearGradient id="linearGradient4129" x1="1.5" x2="94.5" y1="88.172" y2="88.172" gradientTransform="translate(-5.7286 -.94683)" gradientUnits="userSpaceOnUse">
<stop offset="0"/>
<stop stop-opacity=".58824" offset=".1"/>
<stop stop-opacity=".58824" offset=".9"/>
<stop offset="1"/>
</linearGradient>
<linearGradient id="linearGradient4767-9" x1="2.7714" x2="50.528" y1="-28.642" y2="14.514" gradientTransform="matrix(1.0042 0 0 1.0042 -5.5031 -1.535)" gradientUnits="userSpaceOnUse">
<stop stop-color="#fff" offset="0"/>
<stop stop-color="#fff" stop-opacity="0" offset="1"/>
</linearGradient>
<clipPath id="clipPath4156-4-1-2">
<path d="m27.046-55.695-14.214 13.321h0.06127l15.653 21.771 10.231-10.546c-0.2169-1.1522-11.311-23.67-11.732-24.546zm-17.399 16.313-14.888 14.062 21.229 17.515 10.385-10.577zm31.491 12.951-9.7413 9.7136 8.9448 12.458 7.7808-7.555zm-49.84 4.3788-13.754 12.982 26.283 13.846 0.06127-0.0617-0.12253-0.0617 9.8332-10.053-22.301-16.652zm38.015 7.4008-9.8025 9.7753 11.579 9.5594 7.6276-7.4008-8.6691-11.009zm20.187 5.674-7.3825 7.2158 6.1878 8.5418 5.8202-6.1365zm-32.195 6.3215-9.5575 9.4977 13.662 7.185 7.9339-7.6784zm23.312 2.3744-7.1068 6.9383 8.3628 6.9074 5.3608-5.674-0.06127-0.0925-0.0919 0.12335-6.4635-8.2026zm-8.7304 8.5418-7.5051 7.3392 10.354 5.4581c1.3975-1.321 5.6751-6.1229 5.8509-6.3215z" fill="#fff" opacity=".6"/>
</clipPath>
<linearGradient id="linearGradient1722" x1="45.448" x2="45.448" y1="92.54" y2="7.0165" gradientTransform="matrix(1.0059 0 0 .99417 -5.6775 -1.5619)" gradientUnits="userSpaceOnUse" xlink:href="#ButtonShadow"/>
<linearGradient id="linearGradient2130" x1="48" x2="48" y1="90" y2="5.9877" gradientTransform="matrix(.99981 0 0 .91759 192.17 46.943)" gradientUnits="userSpaceOnUse" xlink:href="#linearGradient3700-0"/>
<radialGradient id="radialGradient2526" cx="46.236" cy="-87.83" r="38.375" gradientTransform="matrix(1 0 0 .055375 .2 -82.766)" gradientUnits="userSpaceOnUse">
<stop stop-color="#fff" offset="0"/>
<stop stop-color="#fff" stop-opacity="0" offset="1"/>
</radialGradient>
<radialGradient id="radialGradient2534" cx="47.649" cy="82.79" r="42.125" gradientTransform="matrix(1 0 0 .050445 -.2 78.814)" gradientUnits="userSpaceOnUse">
<stop stop-color="#fff" offset="0"/>
<stop stop-color="#fff" stop-opacity="0" offset="1"/>
</radialGradient>
</defs>
<metadata>
<rdf:RDF>
<cc:Work rdf:about="">
<dc:format>image/svg+xml</dc:format>
<dc:type rdf:resource="http://purl.org/dc/dcmitype/StillImage"/>
<dc:title/>
</cc:Work>
</rdf:RDF>
</metadata>
<g transform="translate(-2.5986e-7 80)">
<g transform="matrix(1.0034 0 0 1.005 33.489 -38.527)">
<g transform="matrix(.97179 0 0 .97179 .40799 .18323)">
<g transform="matrix(1.0255 0 0 1.024 -34.763 39.261)">
<g transform="matrix(1.0034 0 0 1.005 33.489 -38.527)">
<g transform="matrix(.97179 0 0 .97179 .40799 .18323)">
<g transform="matrix(1.0255 0 0 1.024 -305.53 100.02)">
<g display="none">
<rect x="5" y="7" width="86" height="85" rx="6" ry="6" fill="url(#linearGradient1722)" filter="url(#filter3174-4-0)" opacity=".9"/>
</g>
<g transform="translate(263.89 -139.75)">
<rect x="198.17" y="52.449" width="83.984" height="77.078" rx="5.9988" ry="5.5055" display="none" fill="url(#linearGradient2130)"/>
<rect x="198.17" y="52.449" width="83.984" height="77.078" rx="5.9988" ry="5.5055" display="none" fill="url(#linearGradient2130)"/>
<g transform="translate(.2 -.2)">
<path d="m88.92 0.81503h-81.943c-3.783 0-6.8286 3.0455-6.8286 6.8286v81.943c0 3.783 3.0455 6.8286 6.8286 6.8286h81.943c3.783 0 6.8286-3.0455 6.8286-6.8286v-81.943c0-3.783-3.0455-6.8286-6.8286-6.8286z" opacity=".15"/>
<path d="m88.28 1.5619h-80.663c-3.7239 0-6.7219 2.998-6.7219 6.7219v80.663c0 3.7239 2.998 6.7219 6.7219 6.7219h80.663c3.7239 0 6.7219-2.998 6.7219-6.7219v-80.663c0-3.7239-2.998-6.7219-6.7219-6.7219z" opacity=".15"/>
<path d="m87.64 2.3088h-79.382c-3.6648 0-6.6152 2.9504-6.6152 6.6152v79.382c0 3.6648 2.9504 6.6152 6.6152 6.6152h79.382c3.6648 0 6.6152-2.9504 6.6152-6.6152v-79.382c0-3.6648-2.9504-6.6152-6.6152-6.6152z" fill="url(#linearGradient4071)"/>
<path d="m1.6427 82.318v5.975c0 3.6648 2.9637 6.6285 6.6285 6.6285h79.355c3.6648 0 6.6285-2.9637 6.6285-6.6285v-5.975c0 3.6648-2.9637 6.6285-6.6285 6.6285h-79.355c-3.6648 0-6.6285-2.9637-6.6285-6.6285z" fill="url(#linearGradient4129)" opacity=".65818"/>
<path d="m90.188 10.87c0-0.93476-0.49134-1.746-1.2589-2.3032l-41.139 37.436 41.057 37.533c0.70972-0.48563 1.1856-1.1842 1.298-1.9974l0.04347-6.5697z" fill="#fc0"/>
<path d="m6.3675 11.116c0-0.9282 0.48829-1.7338 1.2511-2.287l40.884 37.173-40.802 37.269c-0.70532-0.48223-1.1782-1.1759-1.29-1.9834l-0.04321-6.5236z" fill="#c00"/>
<path d="m9.9453 7.4938c-1.0167 0-1.8992 0.44867-2.5051 1.1496l40.719 37.567 40.824-37.491c-0.52823-0.64809-1.2881-1.0826-2.1726-1.1853l-7.1459-0.039713z" fill="#0c0"/>
<path d="m9.9453 84.345c-1.0167 0-1.8992-0.44562-2.5051-1.1418l40.719-37.311 40.824 37.237c-0.52823 0.64368-1.2881 1.0752-2.1726 1.1773l-7.1459 0.03944z" fill="#36c"/>
<ellipse cx="48.169" cy="45.642" rx="35.11" ry="35.11" fill="#fcfcfd" fill-opacity=".90094"/>
<path d="m48.169 12.372a33.269 33.269 0 0 0-33.269 33.269 33.269 33.269 0 0 0 33.269 33.271 33.269 33.269 0 0 0 33.269-33.271 33.269 33.269 0 0 0-33.269-33.269zm-0.50959 11.351c1.9047-0.02911 4.1397 0.79917 5.4401 2.0772 0.8448 0.83027 1.5975 2.2554 1.8322 3.4718 0.08477 0.43915 0.23282 2.0371 0.33065 3.5496 0.1535 2.3733 0.23726 2.8996 0.60878 3.8452 0.6974 1.7751 2.4179 4.5234 3.8608 6.1656 1.1634 1.3241 1.4076 1.7076 1.945 3.0672 1.0727 2.7139 1.2955 3.5886 1.3868 5.444 0.05244 1.0671 0.01268 2.0902-0.10308 2.6685-0.18187 0.90856-0.17519 0.95171 0.21395 1.4062 0.30121 0.3518 0.40261 0.64358 0.40261 1.167 0 0.38379 0.11463 0.93881 0.25674 1.2331 0.33043 0.68437 1.4589 1.7935 2.3398 2.3009 0.81585 0.46989 0.98128 0.85188 0.61462 1.4218-0.40271 0.6259-0.7861 0.89507-2.5051 1.7544-1.6995 0.84952-2.2814 1.2513-3.8472 2.653-1.708 1.5289-2.9181 1.9027-4.5532 1.4082-0.48095-0.14546-0.90675-0.43612-1.3343-0.90831-0.60242-0.66538-0.67937-0.69994-1.8575-0.8558-1.4778-0.1955-5.8887-0.20429-7.3793-0.01555-0.58933 0.07468-1.1964 0.24452-1.3479 0.37927-0.15151 0.13474-0.36982 0.24506-0.48625 0.24506-0.11641 0-0.58975 0.25683-1.0522 0.56988-1.2786 0.86546-2.1699 0.88092-4.209 0.07196-0.86474-0.34308-2.171-0.76041-2.9039-0.92776-2.8072-0.64107-5.4965-1.3746-5.726-1.5618-0.3338-0.27225-0.30163-0.65237 0.17116-1.9975 0.38146-1.0853 0.40161-1.2744 0.28202-2.6355-0.19821-2.2558-0.15771-2.6376 0.32287-3.0439 0.33637-0.28436 0.60276-0.3501 1.4043-0.3501 1.4403 0 1.8831-0.20325 2.4585-1.1223 0.46167-0.73739 0.48085-0.82156 0.29758-1.3673-0.27931-0.83175-0.08678-1.8714 0.53682-2.8902 0.90254-1.4746 1.3367-2.4236 2.0053-4.384 0.82228-2.4113 0.7922-2.356 2.4857-4.4424 1.7066-2.1025 2.4313-3.1559 2.5752-3.7402 0.05846-0.23728 0.02904-1.6265-0.06417-3.0867-0.2744-4.2955-0.23882-6.3493 0.12642-7.4707 0.78598-2.4132 2.2135-3.6436 4.6796-4.0339 0.25495-0.04036 0.5195-0.06198 0.79161-0.06613z" fill="#475067"/>
<path d="m9.9331 5.5248c-3.1036 0-5.6443 2.5289-5.6443 5.6225v68.989c0 3.0936 2.5407 5.6225 5.6443 5.6225h76.472c3.1036 0 5.6444-2.5289 5.6444-5.6225v-68.989c0-3.0935-2.5407-5.6225-5.6444-5.6225zm0 2.3098h76.472c1.8802 0 3.3381 1.4739 3.3381 3.3127v68.989c0 1.8388-1.4578 3.3127-3.3381 3.3127h-76.472c-1.8802 0-3.3381-1.4739-3.3381-3.3127v-68.989c0-1.8388 1.4578-3.3127 3.3381-3.3127z" color="#000000" fill="#303030" style="text-decoration-line:none;text-indent:0;text-transform:none"/>
<rect transform="matrix(1.0648 0 0 1.0433 4.4263 39.134)" x="2" y="-30" width="75.966" height="69.024" rx="3.9735" ry="3.9735" clip-path="url(#clipPath4156-4-1-2)" fill="url(#linearGradient4767-9)" opacity=".659"/>
<rect x="5.5016" y="80.731" width="83.899" height="4.2323" rx="4.25" ry="4.25" fill="url(#radialGradient2534)" opacity=".55"/>
<rect transform="rotate(90)" x="8.2302" y="-90.37" width="76.43" height="4.2323" rx="4.25" ry="4.25" fill="url(#radialGradient2526)" opacity=".758"/>
</g>
</g>
</g>
</g>
</g>
</g>
</g>
</g>
</g>
<g display="none">
<rect x="5" y="7" width="86" height="85" rx="6" ry="6" fill="url(#ButtonShadow)" filter="url(#filter3174)" opacity=".9"/>
</g>
</svg>
