<?xml version="1.0" encoding="UTF-8"?>
<!-- Created with Inkscape (http://www.inkscape.org/) -->
<svg version="1.0" viewBox="0 0 96 96" xmlns="http://www.w3.org/2000/svg" xmlns:cc="http://creativecommons.org/ns#" xmlns:dc="http://purl.org/dc/elements/1.1/" xmlns:rdf="http://www.w3.org/1999/02/22-rdf-syntax-ns#" xmlns:xlink="http://www.w3.org/1999/xlink">
<metadata>
<rdf:RDF>
<cc:Work rdf:about="">
<dc:format>image/svg+xml</dc:format>
<dc:type rdf:resource="http://purl.org/dc/dcmitype/StillImage"/>
<dc:title/>
</cc:Work>
</rdf:RDF>
</metadata>
<defs>
<linearGradient id="ButtonShadow" x1="45.448" x2="45.448" y1="92.54" y2="7.0165" gradientTransform="scale(1.0059 .99417)" gradientUnits="userSpaceOnUse">
<stop offset="0"/>
<stop stop-opacity=".58824" offset="1"/>
</linearGradient>
<filter id="filter3174" color-interpolation-filters="sRGB">
<feGaussianBlur stdDeviation="1.71"/>
</filter>
<linearGradient id="linearGradient3837" x1="2.7714" x2="50.528" y1="-28.642" y2="14.514" gradientUnits="userSpaceOnUse">
<stop stop-color="#fff" offset="0"/>
<stop stop-color="#fff" stop-opacity="0" offset="1"/>
</linearGradient>
<radialGradient id="radialGradient3833" cx="13.948" cy="44.893" r="43.199" gradientTransform="matrix(.88833 0 0 .049191 16.069 -98.752)" gradientUnits="userSpaceOnUse" xlink:href="#linearGradient4133"/>
<radialGradient id="radialGradient3831" cx="13.948" cy="44.893" r="43.199" gradientTransform="matrix(.97513 0 0 .049191 41.943 65.501)" gradientUnits="userSpaceOnUse" xlink:href="#linearGradient4133"/>
<linearGradient id="linearGradient3829" x1="1.5" x2="94.5" y1="88.172" y2="88.172" gradientTransform="translate(8.044 -14.666)" gradientUnits="userSpaceOnUse">
<stop offset="0"/>
<stop stop-opacity=".58824" offset=".1"/>
<stop stop-opacity=".58824" offset=".9"/>
<stop offset="1"/>
</linearGradient>
<radialGradient id="radialGradient3827" cx="48" cy="-27" r="42" gradientTransform="matrix(-1.187 0 0 -.96877 113.02 -39.322)" gradientUnits="userSpaceOnUse">
<stop stop-color="#fff" offset="0"/>
<stop stop-color="#fff" offset=".8"/>
<stop stop-color="#fff" stop-opacity="0" offset="1"/>
</radialGradient>
<linearGradient id="linearGradient3825" x1="6" x2="90" y1="47" y2="47" gradientTransform="matrix(1.1071 0 0 1.1071 2.9011 -18.701)" gradientUnits="userSpaceOnUse">
<stop stop-color="#adb4c1" offset="0"/>
<stop stop-color="#fff" offset=".25"/>
<stop stop-color="#9095aa" offset=".5"/>
<stop stop-color="#fbf9f9" offset=".75"/>
<stop stop-color="#adb3c1" offset="1"/>
</linearGradient>
<filter id="filter3174-36" color-interpolation-filters="sRGB">
<feGaussianBlur stdDeviation="1.71"/>
</filter>
<filter id="filter3174-3" color-interpolation-filters="sRGB">
<feGaussianBlur stdDeviation="1.71"/>
</filter>
<linearGradient id="linearGradient4133">
<stop stop-color="#fff" offset="0"/>
<stop stop-color="#fff" stop-opacity="0" offset="1"/>
</linearGradient>
<clipPath id="clipPath4156-4">
<path d="m27.046-55.695-14.214 13.321h0.06127l15.653 21.771 10.231-10.546c-0.2169-1.1522-11.311-23.67-11.732-24.546zm-17.399 16.313-14.888 14.062 21.229 17.515 10.385-10.577-16.726-21zm31.491 12.951-9.7413 9.7136 8.9448 12.458 7.7808-7.555-6.9843-14.617zm-49.84 4.3788-13.754 12.982 26.283 13.846 0.06127-0.0617-0.12253-0.0617 9.8332-10.053-22.301-16.652zm38.015 7.4008-9.8025 9.7753 11.579 9.5594 7.6276-7.4008-8.6691-11.009-0.73519-0.9251zm20.187 5.674-7.3825 7.2158 6.1878 8.5418 5.8202-6.1365-4.6256-9.6211zm-32.195 6.3215-9.5575 9.4977 13.662 7.185 7.9339-7.6784-12.039-9.0043zm23.312 2.3744-7.1068 6.9383 8.3628 6.9074 5.3608-5.674-0.06127-0.0925-0.0919 0.12335-6.4635-8.2026zm-8.7304 8.5418-7.5051 7.3392 10.354 5.4581c1.3975-1.321 5.6751-6.1229 5.8509-6.3215l-8.6997-6.4757z" fill="#fff" opacity=".6"/>
</clipPath>
<filter id="filter3174-9" color-interpolation-filters="sRGB">
<feGaussianBlur stdDeviation="1.71"/>
</filter>
<linearGradient id="linearGradient3719-5" x1="31.607" x2="31.607" y1="35.929" y2="42.015" gradientTransform="translate(8.044 -18.666)" gradientUnits="userSpaceOnUse" spreadMethod="repeat">
<stop stop-color="#1a1a1a" offset="0"/>
<stop stop-color="#1e1e1e" offset=".35"/>
<stop stop-color="#0a0a0a" offset="1"/>
</linearGradient>
</defs>
<g transform="translate(-1e-6,32)">
<g transform="translate(-8.044 -17.334)">
<path d="m97.187-14.666h-82.286c-3.7988 0-6.8571 3.0583-6.8571 6.8571v82.286c0 3.7989 3.0583 6.8571 6.8571 6.8571h82.286c3.7989 0 6.8571-3.0583 6.8571-6.8571v-82.286c0-3.7989-3.0583-6.8571-6.8571-6.8571z" opacity=".15"/>
<path d="m96.544-13.916h-81c-3.7395 0-6.75 3.0105-6.75 6.75v81c0 3.7395 3.0105 6.75 6.75 6.75h81c3.7395 0 6.75-3.0105 6.75-6.75v-81c0-3.7395-3.0105-6.75-6.75-6.75z" opacity=".15"/>
<path d="m95.901-13.166h-79.714c-3.6801 0-6.6429 2.9627-6.6429 6.6429v79.714c0 3.6801 2.9627 6.6429 6.6429 6.6429h79.714c3.6801 0 6.6429-2.9627 6.6429-6.6429v-79.714c0-3.6801-2.9627-6.6429-6.6429-6.6429z" fill="url(#linearGradient3825)"/>
<rect x="13.837" y="-8.0546" width="84.846" height="77.52" ry="4.25" fill="#e4e8ed" stroke="#fff" stroke-linecap="round" stroke-linejoin="round" stroke-width=".4"/>
<rect x="28.044" y="1.3344" width="56" height="12" rx="3" ry="3" fill="#404040"/>
<path d="m44.72 10.422 0.06214-1.1807v-0.09321c0-0.43498-0.23303-0.71461-0.69908-0.71461-0.55926 0-0.82336 0.2641-0.82336 0.80782h-2.6565l2.2992-1.9885c1.1962-1.0408 1.7865-2.0817 1.7865-3.2624 0-1.7089-1.1651-2.8585-3.107-2.8585-1.0253 0-1.8642 0.24856-2.672 0.77675-0.48159 0.32624-0.60587 0.59033-0.60587 1.2583 0 0.66801 0.24856 0.99424 0.76122 0.99424 0.60587 0 0.71461-0.52819 1.0253-0.91657 0.23303-0.27963 0.6214-0.45052 1.1651-0.45052 0.90103 0 1.3516 0.45052 1.3516 1.3516 0 0.65247-0.34177 1.3049-0.99424 1.9419l-3.0915 2.9827c-0.41945 0.40391-0.6214 0.76122-0.6214 1.1496 0 0.46605 0.32624 0.73015 0.91657 0.73015h5.4528c0.40391 0 0.43498-0.17089 0.45052-0.52819" fill="#eee"/>
<path d="m50.943 11.199c2.2681 0 3.7906-1.8642 3.7906-5.0334s-1.5224-5.0334-3.7906-5.0334c-2.2526 0-3.7595 1.8487-3.7595 5.0334 0 3.1692 1.5069 5.0334 3.7595 5.0334m0.01553-8.3579c1.0253 0 1.7399 1.1341 1.7399 3.309 0 2.1904-0.71462 3.34-1.7399 3.34-1.0408 0-1.7399-1.1651-1.7399-3.34 0-2.1594 0.71461-3.309 1.7399-3.309" fill="#eee"/>
<path d="m59.62 2.9343v6.4005h-1.4137c-0.63694 0-0.96318 0.20196-0.96318 0.80782 0 0.6214 0.32624 0.80782 0.96318 0.80782h4.4741c0.63694 0 0.96318-0.18642 0.96318-0.80782 0-0.60587-0.32624-0.80782-0.96318-0.80782h-1.2273v-7.4879c0-0.49712-0.12428-0.73015-0.55926-0.73015-0.15535 0-0.37284 0.0466-0.63694 0.12428l-1.8797 0.51266c-0.52819 0.13982-0.77675 0.37284-0.77675 0.73015 0 0.48159 0.23303 0.76122 0.65247 0.76122 0.07767 0 0.2641-0.03107 0.51266-0.09321l0.85443-0.21749" fill="#eee"/>
<path d="m68.188 5.5908c0.41945-1.9419 1.3049-2.9206 2.9051-3.0915 1.2583-0.13982 1.7865 0.06214 1.7865-0.80782 0-0.41945-0.48159-0.55926-1.4758-0.55926-3.1381 0-5.2198 2.2371-5.2198 5.6548 0 2.7963 1.3671 4.3964 3.4643 4.3964 2.0972 0 3.4177-1.336 3.4177-3.2313 0-1.8331-1.2739-3.2313-2.8895-3.2313-0.79229 0-1.5069 0.3107-1.9885 0.86996m0.03107 2.4079c0-0.94764 0.63694-1.6156 1.4603-1.6156 0.83889 0 1.4603 0.69908 1.4603 1.6933s-0.59033 1.6312-1.3982 1.6312c-0.85443 0-1.5224-0.66801-1.5224-1.7089" fill="#eee"/>
<rect x="28.044" y="17.334" width="26" height="12" rx="3" ry="3" fill="url(#linearGradient3719-5)"/>
<rect x="58.044" y="17.334" width="26" height="24" rx="3" ry="3" fill="#404040"/>
<path d="m52.044 45.334a12 12 0 1 1-24 0 12 12 0 1 1 24 0z" fill="#1c1c1c"/>
<path d="m31.044 0.33444c-1.662 0-3 1.338-3 3v1c0-1.662 1.338-3 3-3h50c1.662 0 3 1.338 3 3v-1c0-1.662-1.338-3-3-3z" opacity=".8"/>
<path d="m28.044 10.334v1c0 1.662 1.338 3 3 3h50c1.662 0 3-1.338 3-3v-1c0 1.662-1.338 3-3 3h-50c-1.662 0-3-1.338-3-3z" fill="#fff" opacity=".3"/>
<path d="m31.044 16.334c-1.662 0-3 1.338-3 3v1c0-1.662 1.338-3 3-3h20c1.662 0 3 1.338 3 3v-1c0-1.662-1.338-3-3-3z" opacity=".8"/>
<path d="m28.044 26.334v1c0 1.662 1.338 3 3 3h20c1.662 0 3-1.338 3-3v-1c0 1.662-1.338 3-3 3h-20c-1.662 0-3-1.338-3-3z" fill="#fff" opacity=".3"/>
<path d="m61.044 16.334c-1.662 0-3 1.338-3 3v1c0-1.662 1.338-3 3-3h20c1.662 0 3 1.338 3 3v-1c0-1.662-1.338-3-3-3z" opacity=".8"/>
<path d="m58.044 38.334v1c0 1.662 1.338 3 3 3h20c1.662 0 3-1.338 3-3v-1c0 1.662-1.338 3-3 3h-20c-1.662 0-3-1.338-3-3z" fill="#fff" opacity=".3"/>
<path d="m61.044 44.334c-1.662 0-3 1.338-3 3v1c0-1.662 1.338-3 3-3h20c1.662 0 3 1.338 3 3v-1c0-1.662-1.338-3-3-3z" opacity=".8"/>
<path d="m58.044 54.334v1c0 1.662 1.338 3 3 3h20c1.662 0 3-1.338 3-3v-1c0 1.662-1.338 3-3 3h-20c-1.662 0-3-1.338-3-3z" fill="#fff" opacity=".3"/>
<path d="m40.044 32.334c-6.6274 0-12 5.3726-12 12 0 0.17003 0.02425 0.33169 0.03125 0.5 0.26596-6.392 5.5114-11.5 11.969-11.5s11.703 5.108 11.969 11.5c7e-3 -0.16831 0.03125-0.32997 0.03125-0.5 0-6.6274-5.3726-12-12-12z" opacity=".6"/>
<path d="m28.075 45.834c-7e-3 0.16831-0.03125 0.32997-0.03125 0.5 0 6.6274 5.3726 12 12 12s12-5.3726 12-12c0-0.17003-0.02425-0.33169-0.03125-0.5-0.26596 6.392-5.5114 11.5-11.969 11.5s-11.703-5.108-11.969-11.5z" fill="#fff" opacity=".3"/>
<rect x="58.044" y="45.334" width="26" height="12" rx="3" ry="3" fill="#404040"/>
<rect x="28.044" y="6.8344" width="56" height=".5" opacity=".8"/>
<path d="m37.648 24.984c-7e-6 0.3531-0.06438 0.67494-0.1931 0.96552-0.12874 0.2869-0.3292 0.53333-0.60138 0.73931-0.26851 0.20598-0.61426 0.36598-1.0372 0.48-0.41932 0.11034-0.91954 0.16552-1.5007 0.16552-0.51495 0-0.9692-0.04598-1.3628-0.13793-0.39357-0.09195-0.73196-0.22805-1.0152-0.40828-0.27954-0.18023-0.50759-0.40276-0.68414-0.66759-0.17287-0.2685-0.29793-0.57563-0.37517-0.92138l1.5724-0.25931c0.04414 0.17288 0.1085 0.33104 0.1931 0.47448 0.0846 0.14345 0.20046 0.26851 0.34759 0.37517 0.1508 0.10299 0.33655 0.18391 0.55724 0.24276 0.22436 0.05517 0.49471 0.08276 0.81103 0.08276 0.55172 1e-6 0.97287-0.08276 1.2634-0.24828 0.29425-0.16919 0.44137-0.43218 0.44138-0.78897-6e-6 -0.21333-0.05886-0.38804-0.17655-0.52414-0.11771-0.13609-0.27403-0.24827-0.46896-0.33655-0.19495-0.08827-0.41932-0.16184-0.6731-0.22069-0.2538-0.05885-0.51862-0.11586-0.79448-0.17104-0.22069-0.05149-0.44138-0.10482-0.66207-0.16-0.22069-0.05517-0.43219-0.12138-0.63448-0.19862-0.19862-0.07724-0.38437-0.16919-0.55724-0.27586-0.17288-0.10666-0.32368-0.23724-0.45241-0.39172-0.12506-0.15816-0.22437-0.34206-0.29793-0.55172-0.06988-0.20965-0.10483-0.45609-0.10483-0.73931-1e-6 -0.3862 0.07724-0.71724 0.23172-0.9931 0.15448-0.27586 0.36782-0.50022 0.64-0.6731 0.27586-0.17654 0.60322-0.30528 0.98207-0.38621 0.37885-0.08091 0.79264-0.12137 1.2414-0.12138 0.50758 8e-6 0.9416 0.04047 1.3021 0.12138 0.36413 0.07725 0.66758 0.19679 0.91034 0.35862 0.24643 0.16185 0.43953 0.36598 0.57931 0.61241 0.14344 0.24277 0.24827 0.52782 0.31448 0.85517l-1.5779 0.21517c-0.08093-0.33471-0.24644-0.58666-0.49655-0.75586-0.24644-0.16919-0.60138-0.25379-1.0648-0.25379-0.2869 7e-6 -0.52598 0.02575-0.71724 0.07724-0.18759 0.04782-0.33839 0.11403-0.45241 0.19862-0.11035 0.0846-0.18943 0.18392-0.23724 0.29793-0.04782 0.11035-0.07173 0.22805-0.07172 0.3531-2e-6 0.19127 0.04598 0.34943 0.13793 0.47448 0.09195 0.12138 0.22069 0.22437 0.38621 0.30897 0.16551 0.08093 0.3623 0.15081 0.59034 0.20966 0.23172 0.05518 0.48551 0.11219 0.76138 0.17104 0.24275 0.0515 0.48367 0.10667 0.72276 0.16552 0.23908 0.05518 0.46712 0.12138 0.68414 0.19862 0.21701 0.07724 0.4193 0.17104 0.6069 0.28138 0.18758 0.11035 0.34942 0.24644 0.48552 0.40828 0.13976 0.15816 0.24827 0.34759 0.32552 0.56828 0.08091 0.22069 0.12137 0.48184 0.12138 0.78345" fill="#f2f2f2"/>
<path d="m40.352 21.254v3.349c-3e-6 0.23173 0.01839 0.44506 0.05517 0.64 0.03678 0.19127 0.09747 0.35678 0.18207 0.49655 0.0846 0.13609 0.1931 0.24276 0.32552 0.32 0.13609 0.07724 0.30161 0.11586 0.49655 0.11586 0.18758 1e-6 0.35678-0.04046 0.50759-0.12138 0.15448-0.0846 0.28689-0.2023 0.39724-0.3531 0.11034-0.15448 0.19494-0.33655 0.25379-0.54621 0.06252-0.21333 0.09379-0.44689 0.09379-0.70069v-3.2h1.5503v4.6345c-7e-6 0.12506-7e-6 0.25747 0 0.39724 0.0037 0.13609 0.0074 0.26667 0.01103 0.39172 0.0074 0.12138 0.01287 0.23172 0.01655 0.33104 0.0074 0.09563 0.01287 0.16736 0.01655 0.21517h-1.4786c-0.0037-0.04414-0.01104-0.11402-0.02207-0.20966-0.0074-0.09931-0.01472-0.20782-0.02207-0.32552-0.0037-0.1177-0.0092-0.2354-0.01655-0.3531-0.0037-0.1177-0.0055-0.21701-0.0055-0.29793h-0.02759c-0.20598 0.45242-0.46897 0.78161-0.78897 0.98759-0.31632 0.20598-0.69334 0.30897-1.131 0.30897-0.35678 0-0.66023-0.05885-0.91034-0.17655-0.25012-0.1177-0.45425-0.2777-0.61241-0.48-0.15448-0.20598-0.26667-0.44873-0.33655-0.72828-0.06989-0.27954-0.10483-0.58115-0.10483-0.90483v-3.7903h1.5503" fill="#f2f2f2"/>
<path d="m49.665 27.224v-3.349c-5e-6 -0.23172-0.0184-0.44321-0.05517-0.63448-0.03679-0.19494-0.09748-0.36046-0.18207-0.49655-0.0846-0.13977-0.19495-0.24827-0.33104-0.32552-0.1361-0.07724-0.30161-0.11586-0.49655-0.11586-0.18759 5e-6 -0.35862 0.0423-0.5131 0.1269-0.15081 0.08092-0.28138 0.19862-0.39172 0.3531-0.11035 0.15081-0.19678 0.33288-0.25931 0.54621-0.05885 0.20966-0.08828 0.44138-0.08828 0.69517v3.2h-1.5503v-4.6345c-1e-6 -0.12873-0.0018-0.26114-0.0055-0.39724 0-0.13609-0.0037-0.26482-0.01103-0.38621-0.0037-0.12505-0.0074-0.2354-0.01103-0.33104-0.0037-0.0993-0.0092-0.17287-0.01655-0.22069h1.4786c0.0074 0.04414 0.01471 0.11587 0.02207 0.21517 0.0074 0.09564 0.01471 0.2023 0.02207 0.32 0.0074 0.11771 0.01287 0.23541 0.01655 0.3531 0.0074 0.11771 0.01103 0.21702 0.01103 0.29793h0.02207c0.20965-0.45609 0.47264-0.78712 0.78897-0.9931 0.31632-0.20597 0.69333-0.30896 1.131-0.30896 0.36046 6e-6 0.6639 0.05886 0.91034 0.17655 0.25011 0.11771 0.45241 0.27955 0.6069 0.48552 0.15816 0.20598 0.27218 0.44874 0.34207 0.72828 0.06988 0.27954 0.10482 0.58115 0.10483 0.90483v3.7903h-1.5448" fill="#f2f2f2"/>
<rect x="28.044" y="22.834" width="26" height=".5" opacity=".8"/>
<path d="m63.667 24.658v8.4891h-1.875c-0.84479 0-1.2775 0.26786-1.2775 1.0714 0 0.82418 0.4327 1.0714 1.2775 1.0714h5.9341c0.84479 0 1.2775-0.24726 1.2775-1.0714 0-0.80358-0.4327-1.0714-1.2775-1.0714h-1.6278v-9.9314c0-0.65935-0.16484-0.96842-0.74176-0.96842-0.20605 0-0.49451 0.06181-0.84479 0.16484l-2.4932 0.67995c-0.70056 0.18544-1.0302 0.49451-1.0302 0.96842 0 0.63874 0.30907 1.0096 0.86539 1.0096 0.10302 0 0.35028-0.04121 0.67995-0.12363l1.1333-0.28846" fill="#eee"/>
<path d="m77.463 30.263h-3.1525l3.1525-5.5632v5.5632m-0.70056-7.5825-4.2239 7.191c-0.24725 0.41209-0.24726 0.67995-0.24726 1.0096v0.61814c0 0.41209 0.20605 0.61814 0.53572 0.61814h4.636v1.2569h-1.4629c-0.84479 0-1.2569 0.24726-1.2569 0.96842s0.41209 0.94781 1.2569 0.94781h4.2445c0.84479 0 1.2775-0.22665 1.2775-0.94781s-0.4327-0.96842-1.2775-0.96842h-0.59753v-1.2569h1.1333c0.28846 0 0.4739-0.12363 0.55632-0.41209l0.22665-0.74176c0.04121-0.12363 0.06181-0.26786 0.06181-0.39149 0-0.51511-0.37088-0.80358-0.9066-0.80358-0.37088 0-0.51512 0.51511-0.9066 0.51511-0.06181 0-0.10302 0-0.16484-0.0206v-7.1086c0-0.30907-0.10302-0.4739-0.30907-0.51511l-1.7926-0.30907c-0.10302-0.0206-0.20605-0.04121-0.28846-0.04121-0.22665 0-0.32967 0.10302-0.49451 0.39149" fill="#eee"/>
<rect x="58.044" y="28.834" width="26" height=".5" opacity=".8"/>
<path d="m63.076 46.578c0 0.60279 0.14467 0.71129 0.7354 0.71129 0.66306 0 0.71129-0.13261 0.71129-0.89212 0-0.7354-0.06028-0.9524-0.71129-0.9524-0.6269 0-0.7354 0.19289-0.7354 1.1332m1.8325 6.8718v-5.0875c0-0.15672-0.12056-0.25317-0.33756-0.25317h-3.0742c-0.49428 0-0.74746 0.14467-0.74746 0.63895s0.25317 0.65101 0.74746 0.65101h1.9651v3.4721c0 1.1815-0.1085 1.7601-1.0609 1.7601-0.49428 0-0.92829-0.12056-1.2659-0.12056-0.36167 0-0.57868 0.20495-0.57868 0.56662 0 0.59073 0.45812 0.81979 1.6999 0.81979 1.7842 0 2.6523-0.80774 2.6523-2.4473" fill="#eee"/>
<path d="m73.041 52.256v-3.894c0-0.15672-0.12056-0.25317-0.33756-0.25317h-1.1091c-0.49428 0-0.74746 0.14467-0.74746 0.63895 0 0.42195 0.22906 0.65101 0.65101 0.65101h0.09645v1.6999c0 0.83184-0.49429 1.3141-1.1091 1.3141-0.67512 0-0.86801-0.45812-0.86801-1.3141v-2.7367c0-0.15672-0.1085-0.25317-0.3255-0.25317h-1.1091c-0.49428 0-0.74746 0.14467-0.74746 0.63895 0 0.42195 0.217 0.65101 0.63895 0.65101h0.09645v1.9651c0 1.5431 0.60279 2.3147 1.8807 2.3147 0.74746 0 1.2779-0.27728 1.6516-0.8439v0.44606c0 0.15672 0.12056 0.26523 0.34962 0.26523h0.98857c0.49428 0 0.7354-0.15672 0.7354-0.65101 0-0.42195-0.217-0.63895-0.63895-0.63895h-0.09645" fill="#eee"/>
<path d="m80.39 52.244v-1.9651c0-1.5431-0.59073-2.3147-1.8686-2.3147-0.74746 0-1.29 0.28934-1.6637 0.85596v-0.45812c0-0.15672-0.1085-0.25317-0.33756-0.25317h-1.0006c-0.49428 0-0.7354 0.15672-0.7354 0.65101 0 0.42195 0.217 0.63895 0.63895 0.63895h0.09645v2.8452h-0.07233c-0.44606 0-0.66306 0.217-0.66306 0.65101 0 0.48223 0.22906 0.65101 0.7354 0.65101h1.4587c0.50634 0 0.7354-0.16878 0.7354-0.65101 0-0.43401-0.217-0.65101-0.66306-0.65101h-0.07233v-1.6999c0-0.83184 0.49429-1.302 1.1091-1.302 0.67512 0 0.85596 0.44606 0.85596 1.302v1.6999h-0.07234c-0.44606 0-0.67512 0.217-0.67512 0.65101 0 0.48223 0.24112 0.65101 0.74746 0.65101h1.4467c0.50634 0 0.7354-0.16878 0.7354-0.65101 0-0.43401-0.217-0.65101-0.66306-0.65101h-0.07233" fill="#eee"/>
<rect x="58.044" y="50.834" width="26" height=".5" opacity=".8"/>
<rect x="40.044" y="34.334" width="1" height="3" fill="#f2f2f2"/>
<rect transform="rotate(30)" x="57.418" y="8.2197" width="1" height="3" fill="#f2f2f2"/>
<rect transform="rotate(60)" x="59.406" y="-23.083" width="1" height="3" fill="#f2f2f2"/>
<rect transform="rotate(90)" x="45.477" y="-51.187" width="1" height="3" fill="#f2f2f2"/>
<rect transform="rotate(120)" x="19.363" y="-68.561" width="1" height="3" fill="#f2f2f2"/>
<rect transform="rotate(150)" x="-11.94" y="-70.549" width="1" height="3" fill="#f2f2f2"/>
<rect transform="scale(-1)" x="-40.044" y="-56.62" width="1" height="3" fill="#f2f2f2"/>
<rect transform="rotate(210)" x="-57.418" y="-30.505" width="1" height="3" fill="#f2f2f2"/>
<rect transform="rotate(240)" x="-59.406" y=".79758" width="1" height="3" fill="#f2f2f2"/>
<rect transform="rotate(-90)" x="-45.477" y="28.901" width="1" height="3" fill="#f2f2f2"/>
<rect transform="rotate(-60)" x="-19.363" y="46.275" width="1" height="3" fill="#f2f2f2"/>
<rect transform="rotate(-30)" x="11.94" y="48.264" width="1" height="3" fill="#f2f2f2"/>
<rect transform="rotate(165)" x="-27.446" y="-65.154" width="1" height="11" fill="#d40000"/>
<path d="m42.044 45.334a2 2 0 1 1-4 0 2 2 0 1 1 4 0z" fill="#f2f2f2"/>
<path d="m33.992 40.072 0.81154-0.81154 6.3265 4.9872-2.1731 2.1731z" fill="#f2f2f2"/>
<path d="m48.425 39.851 0.57384 0.99392-8.1867 5.8201-1.5366-2.6615z" fill="#f2f2f2"/>
<path d="m41.034 45.334a0.98985 0.98985 0 1 1-1.9797 0 0.98985 0.98985 0 1 1 1.9797 0z"/>
<path d="m16.187-13.166c-3.6801 0-6.6429 2.9627-6.6429 6.6429v16.607h1.1071v-16.607c0-3.0859 2.4498-5.5357 5.5357-5.5357h79.714c3.0859 0 5.5357 2.4498 5.5357 5.5357v16.607h1.1071v-16.607c0-3.6801-2.9627-6.6429-6.6429-6.6429z" fill="url(#radialGradient3827)" opacity=".45"/>
<path d="m9.544 67.178v6c0 3.6801 2.9761 6.6562 6.6562 6.6562h79.688c3.6801 0 6.6563-2.9761 6.6563-6.6562v-6c0 3.6801-2.9761 6.6562-6.6563 6.6562h-79.688c-3.6801 0-6.6562-2.9761-6.6562-6.6562z" fill="url(#linearGradient3829)" opacity=".89091"/>
<rect x="13.419" y="65.584" width="84.25" height="4.25" rx="0" ry="4.25" fill="url(#radialGradient3831)" opacity=".55"/>
<rect transform="rotate(90)" x="-9.9156" y="-98.669" width="76.75" height="4.25" rx="0" ry="4.25" fill="url(#radialGradient3833)" opacity=".55"/>
<g transform="translate(251.29 -104.9)">
<g display="none">
<rect x="5" y="7" width="86" height="85" rx="6" ry="6" fill="url(#ButtonShadow)" filter="url(#filter3174-3)" opacity=".9"/>
</g>
</g>
<rect transform="matrix(.9093 0 0 .92838 12.389 19.829)" x="2" y="-30" width="92" height="92" rx="3.957" ry="3.957" clip-path="url(#clipPath4156-4)" fill="url(#linearGradient3837)" opacity=".4"/>
<path d="m17.869-9.9361c-3.1166 0-5.668 2.5395-5.668 5.646v69.278c0 3.1065 2.5513 5.646 5.668 5.646h76.792c3.1166 0 5.668-2.5395 5.668-5.646v-69.278c0-3.1065-2.5513-5.646-5.668-5.646h-76.792zm0 2.3194h76.792c1.8881 0 3.352 1.4801 3.352 3.3266v69.278c0 1.8465-1.4639 3.3266-3.352 3.3266h-76.792c-1.8881 0-3.352-1.4801-3.352-3.3266v-69.278c0-1.8465 1.4639-3.3266 3.352-3.3266z" color="#000000" fill="#1f2124" fill-opacity=".63265" style="block-progression:tb;text-indent:0;text-transform:none"/>
</g>
</g>
<g display="none">
<rect x="5" y="7" width="86" height="85" rx="6" ry="6" fill="url(#ButtonShadow)" filter="url(#filter3174-36)" opacity=".9"/>
</g>
<g display="none">
<rect x="5" y="7" width="86" height="85" rx="6" ry="6" fill="url(#ButtonShadow)" filter="url(#filter3174-9)" opacity=".9"/>
</g>
<g display="none">
<rect x="5" y="7" width="86" height="85" rx="6" ry="6" fill="url(#ButtonShadow)" filter="url(#filter3174)" opacity=".9"/>
</g>
</svg>
