<?xml version="1.0" encoding="UTF-8"?>
<!-- Created with Inkscape (http://www.inkscape.org/) -->
<svg version="1.1" viewBox="0 0 96 96" xmlns="http://www.w3.org/2000/svg" xmlns:cc="http://creativecommons.org/ns#" xmlns:dc="http://purl.org/dc/elements/1.1/" xmlns:rdf="http://www.w3.org/1999/02/22-rdf-syntax-ns#" xmlns:xlink="http://www.w3.org/1999/xlink">
<defs>
<linearGradient id="linearGradient4071" x1="6" x2="90" y1="47" y2="47" gradientTransform="matrix(1.1071 0 0 1.1071 -4.9939 -3.6207)" gradientUnits="userSpaceOnUse">
<stop stop-color="#fff" stop-opacity="0" offset="0"/>
<stop stop-color="#fff" offset=".15"/>
<stop stop-color="#fff" offset=".85"/>
<stop stop-color="#fff" stop-opacity="0" offset="1"/>
</linearGradient>
<linearGradient id="linearGradient4129" x1="1.5" x2="94.5" y1="88.172" y2="88.172" gradientTransform="translate(.14895 .41503)" gradientUnits="userSpaceOnUse">
<stop offset="0"/>
<stop stop-opacity=".58824" offset=".1"/>
<stop stop-opacity=".58824" offset=".9"/>
<stop offset="1"/>
</linearGradient>
<radialGradient id="radialGradient7462" cx="13.948" cy="44.893" r="43.199" gradientTransform="matrix(.97513 0 0 .049191 34.048 80.582)" gradientUnits="userSpaceOnUse" xlink:href="#linearGradient3737"/>
<linearGradient id="linearGradient3737">
<stop stop-color="#fff" offset="0"/>
<stop stop-color="#fff" stop-opacity="0" offset="1"/>
</linearGradient>
<radialGradient id="radialGradient7464" cx="13.948" cy="44.893" r="43.199" gradientTransform="matrix(.88833 0 0 .049191 31.96 -90.317)" gradientUnits="userSpaceOnUse" xlink:href="#linearGradient3737"/>
<radialGradient id="radialGradient4314" cx="45.027" cy="965.2" r="37.208" gradientTransform="matrix(1 0 0 .05417 3.9848e-7 915.06)" gradientUnits="userSpaceOnUse" xlink:href="#linearGradient3737"/>
<linearGradient id="linearGradient4316" x1="5.85" x2="90.15" y1="46.5" y2="46.5" gradientTransform="matrix(1.0632 0 0 .95136 1.2027 -25.05)" gradientUnits="userSpaceOnUse">
<stop stop-color="#c6c6c6" stop-opacity=".14865" offset="0"/>
<stop stop-color="#fff" offset=".05"/>
<stop stop-color="#d4d4d4" stop-opacity=".12162" offset=".1"/>
<stop stop-color="#cdcdcd" stop-opacity=".18919" offset=".5"/>
<stop stop-color="#cacaca" stop-opacity=".17568" offset=".9"/>
<stop stop-color="#fff" offset=".95"/>
<stop stop-color="#c8c8c8" stop-opacity=".17568" offset="1"/>
</linearGradient>
<linearGradient id="linearGradient4168">
<stop stop-color="#fff" offset="0"/>
<stop stop-color="#fff" stop-opacity=".62838" offset=".5"/>
<stop stop-color="#fff" stop-opacity="0" offset="1"/>
</linearGradient>
<linearGradient id="linearGradient4344" x1="23.677" x2="24.548" y1="1061.9" y2="1031.3" gradientTransform="matrix(2.3795 0 0 1.4715 -10.093 -1530)" gradientUnits="userSpaceOnUse">
<stop stop-color="#7f8586" offset="0"/>
<stop stop-color="#fff" offset=".25"/>
<stop stop-color="#78868a" offset=".5"/>
<stop stop-color="#8b9297" offset=".67928"/>
<stop stop-color="#818282" offset="1"/>
</linearGradient>
<linearGradient id="linearGradient4346" x1="5.2802" x2="20.651" y1="1046.5" y2="1046.5" gradientTransform="matrix(5.3081 0 0 3.2825 -20.184 -3432.6)" gradientUnits="userSpaceOnUse">
<stop stop-color="#646464" offset="0"/>
<stop stop-color="#333" offset="1"/>
</linearGradient>
<linearGradient id="linearGradient4348" x1="7.6825" x2="36.138" y1="1031.6" y2="1041.6" gradientTransform="matrix(2.3075 0 0 -1.4279 -7.8085 1484.9)" gradientUnits="userSpaceOnUse" xlink:href="#linearGradient4168"/>
<linearGradient id="linearGradient4350" x1="24.683" x2="24.683" y1="1031.8" y2="1037" gradientTransform="matrix(2.4103 0 0 -1.4916 -10.346 1551.2)" gradientUnits="userSpaceOnUse" xlink:href="#linearGradient4168"/>
<linearGradient id="linearGradient4352" x1="7.6825" x2="41.683" y1="1041.6" y2="1041.6" gradientTransform="matrix(2.3795 0 0 -.078987 -10.093 95.105)" gradientUnits="userSpaceOnUse">
<stop offset="0"/>
<stop stop-opacity=".58824" offset="1"/>
</linearGradient>
<linearGradient id="linearGradient4354" x1="22.609" x2="22.609" y1="1043.5" y2="1041.6" gradientTransform="matrix(2.3795 0 0 1.4715 -10.093 -1535.4)" gradientUnits="userSpaceOnUse">
<stop stop-color="#505050" offset="0"/>
<stop stop-color="#333" offset="1"/>
</linearGradient>
<linearGradient id="linearGradient4356" x1="24.683" x2="24.683" y1="1038.8" y2="1044.4" gradientTransform="matrix(2.3795 0 0 1.4715 -10.093 -1535.4)" gradientUnits="userSpaceOnUse">
<stop offset="0"/>
<stop stop-color="#fff" offset="1"/>
</linearGradient>
<linearGradient id="linearGradient4358" x1="24.683" x2="24.683" y1="1039.3" y2="1042.1" gradientTransform="matrix(2.3795 0 0 1.4715 -10.093 -1535.4)" gradientUnits="userSpaceOnUse">
<stop stop-color="#c8c8c8" offset="0"/>
<stop stop-color="#c8c8c8" offset=".55439"/>
<stop stop-color="#505050" offset="1"/>
</linearGradient>
<radialGradient id="radialGradient4360" cx="22.045" cy="27.687" r="5.1448" gradientTransform="matrix(-2.3795 6.8075e-8 7.5779e-8 .3469 88.217 4.112)" gradientUnits="userSpaceOnUse" xlink:href="#linearGradient4168"/>
<radialGradient id="radialGradient4362" cx="22.045" cy="27.687" r="5.1448" gradientTransform="matrix(-2.3795 6.8075e-8 7.5779e-8 .3469 116.5 -33.328)" gradientUnits="userSpaceOnUse" xlink:href="#linearGradient4168"/>
<radialGradient id="radialGradient4364" cx="45.027" cy="965.2" r="37.208" gradientTransform="matrix(.91605 0 0 .049927 11.842 -78.028)" gradientUnits="userSpaceOnUse" xlink:href="#linearGradient3737"/>
</defs>
<metadata>
<rdf:RDF>
<cc:Work rdf:about="">
<dc:format>image/svg+xml</dc:format>
<dc:type rdf:resource="http://purl.org/dc/dcmitype/StillImage"/>
<dc:title/>
<dc:date>2017</dc:date>
<dc:creator>
<cc:Agent>
<dc:title>Cristian Pozzessere "ilnanny"</dc:title>
</cc:Agent>
</dc:creator>
<dc:subject>
<rdf:Bag>
<rdf:li>Global language</rdf:li>
</rdf:Bag>
</dc:subject>
<dc:description>Playing with Inkscape on Gnu/Linux O. S.</dc:description>
<dc:contributor>
<cc:Agent>
<dc:title>In the night, alone like a dog.</dc:title>
</cc:Agent>
</dc:contributor>
<cc:license rdf:resource="http://creativecommons.org/licenses/by-sa/4.0/"/>
</cc:Work>
<cc:License rdf:about="http://creativecommons.org/licenses/by-sa/4.0/">
<cc:permits rdf:resource="http://creativecommons.org/ns#Reproduction"/>
<cc:permits rdf:resource="http://creativecommons.org/ns#Distribution"/>
<cc:requires rdf:resource="http://creativecommons.org/ns#Notice"/>
<cc:requires rdf:resource="http://creativecommons.org/ns#Attribution"/>
<cc:permits rdf:resource="http://creativecommons.org/ns#DerivativeWorks"/>
<cc:requires rdf:resource="http://creativecommons.org/ns#ShareAlike"/>
</cc:License>
</rdf:RDF>
</metadata>
<g transform="translate(0 -1026.5)">
<g transform="translate(-.14896 1026.1)">
<path d="m89.292 0.41503h-82.286c-3.7988 0-6.8571 3.0583-6.8571 6.8571v82.286c0 3.7989 3.0583 6.8571 6.8571 6.8571h82.286c3.7989 0 6.8571-3.0583 6.8571-6.8571v-82.286c0-3.7989-3.0583-6.8571-6.8571-6.8571z" opacity=".15"/>
<path d="m88.649 1.165h-81c-3.7395 0-6.75 3.0105-6.75 6.75v81c0 3.7395 3.0105 6.75 6.75 6.75h81c3.7395 0 6.75-3.0105 6.75-6.75v-81c0-3.7395-3.0105-6.75-6.75-6.75z" opacity=".15"/>
<path d="m88.006 1.915h-79.714c-3.6801 0-6.6429 2.9627-6.6429 6.6429v79.714c0 3.6801 2.9627 6.6429 6.6429 6.6429h79.714c3.6801 0 6.6429-2.9627 6.6429-6.6429v-79.714c0-3.6801-2.9627-6.6429-6.6429-6.6429z" fill="url(#linearGradient4071)"/>
<path d="m9.974 5.1445c-3.1166 0-5.668 2.5395-5.668 5.646v69.278c0 3.1065 2.5513 5.646 5.668 5.646h76.792c3.1166 0 5.668-2.5395 5.668-5.646v-69.278c0-3.1065-2.5513-5.646-5.668-5.646zm0 2.3194h76.792c1.8881 0 3.352 1.4801 3.352 3.3266v69.278c0 1.8465-1.4639 3.3266-3.352 3.3266h-76.792c-1.8881 0-3.352-1.4801-3.352-3.3266v-69.278c0-1.8465 1.4639-3.3266 3.352-3.3266z" color="#000000" fill="#2a363f" style="text-decoration-line:none;text-indent:0;text-transform:none"/>
<path d="m1.649 82.259v6c0 3.6801 2.9761 6.6562 6.6562 6.6562h79.687c3.6801 0 6.6563-2.9761 6.6563-6.6562v-6c0 3.6801-2.9761 6.6562-6.6563 6.6562h-79.687c-3.6801 0-6.6562-2.9761-6.6562-6.6562z" fill="url(#linearGradient4129)" opacity=".65818"/>
<rect x="5.524" y="80.665" width="84.25" height="4.25" rx="0" ry="4.25" fill="url(#radialGradient7462)" opacity=".55"/>
<rect transform="rotate(90)" x="5.975" y="-90.234" width="76.75" height="4.25" rx="0" ry="4.25" fill="url(#radialGradient7464)" opacity=".669"/>
<g transform="matrix(1 0 0 .99914 -4.0882 26.218)">
<g transform="matrix(.99454 0 0 .92168 7.456 -908.68)">
<rect x=".2056" y="1008" width="89.344" height="2.5312" fill="#fff" opacity=".7" stroke="#272c36" stroke-linejoin="round" stroke-width=".66659"/>
<rect x=".2056" y="1005.5" width="89.344" height="1.2656" fill="#272c36"/>
<rect x="7.8187" y="965.33" width="74.416" height="4.0311" fill="url(#radialGradient4314)"/>
</g>
<path d="m90.513-20.769h-76.552c-3.5341 0-6.3793 2.5458-6.3793 5.7082v68.498c0 3.1623 2.8452 5.7082 6.3793 5.7082h76.552c3.5341 0 6.3793-2.5458 6.3793-5.7082v-68.498c0-3.1623-2.8452-5.7082-6.3793-5.7082z" fill="url(#linearGradient4316)" opacity=".903"/>
<g transform="matrix(.94652 0 0 .89742 6.2 41.629)">
<rect transform="scale(1,-1)" x="8.1871" y="-12.041" width="80.902" height="29.43" fill="url(#linearGradient4344)" stroke="url(#linearGradient4346)" stroke-width=".74054"/>
<path d="m9.9187 11.802h78.454v-28.559z" fill="url(#linearGradient4348)" stroke="url(#linearGradient4350)" stroke-width=".75843"/>
<path d="m9.3779 13.62 78.523 3.37e-4 1.1886-1.5799h-80.902z" fill="url(#linearGradient4352)"/>
<rect x="38.489" y="-6.518" width="20.297" height="7.6881" fill="url(#linearGradient4354)" stroke="url(#linearGradient4356)" stroke-width=".74848"/>
<rect x="39.251" y="-6.0471" width="18.775" height="4.0794" fill="url(#linearGradient4358)"/>
<path d="m48.002 13.717c0-0.98542-5.4809-1.7847-12.242-1.7847-6.761 0-12.242 0.7993-12.242 1.7847z" fill="url(#radialGradient4360)"/>
<path d="m76.287-23.723c0-0.98542-5.4809-1.7847-12.242-1.7847-6.761 0-12.242 0.7993-12.242 1.7847z" fill="url(#radialGradient4362)"/>
</g>
<rect transform="scale(1,-1)" x="19.004" y="-31.696" width="68.169" height="3.7154" fill="url(#radialGradient4364)"/>
<rect x="12.44" y="-16.6" width="79.594" height="33.407" fill="#151515" opacity=".748" style="paint-order:stroke fill markers"/>
<g transform="matrix(.87834 0 0 .87909 75.111 -12.362)" stroke-width="1.7977" aria-label="~/">
<path d="m-22.467 11.367v3.4781q-2.0517 1.5436-3.8102 2.208-1.739 0.66435-3.6344 0.66435-2.1494 0-5.0022-1.1528-0.21494-0.07816-0.31264-0.11724-0.13678-0.05862-0.42987-0.15632-3.0286-1.2115-4.8654-1.2115-1.7195 0-3.3999 0.76205-1.6804 0.74251-3.5953 2.3643v-3.4781q2.0517-1.5436 3.7907-2.208 1.7586-0.68389 3.6539-0.68389 2.1494 0 5.0217 1.1724 0.1954 0.07816 0.2931 0.11724 0.15632 0.05862 0.42987 0.15632 3.0286 1.2115 4.8654 1.2115 1.6804 0 3.3217-0.74251 1.6609-0.74251 3.6735-2.3838z" fill="#1f1f1f" stroke="#f8f8f8"/>
<path d="m-8.0667-1.842h3.3217l-10.161 32.885h-3.3217z" stroke="#fefefe"/>
</g>
</g>
</g>
</g>
</svg>
