<?xml version="1.0" encoding="UTF-8"?>
<!-- Created with Inkscape (http://www.inkscape.org/) -->
<svg version="1.0" viewBox="0 0 96 96" xmlns="http://www.w3.org/2000/svg" xmlns:cc="http://creativecommons.org/ns#" xmlns:dc="http://purl.org/dc/elements/1.1/" xmlns:rdf="http://www.w3.org/1999/02/22-rdf-syntax-ns#" xmlns:xlink="http://www.w3.org/1999/xlink">
<metadata>
<rdf:RDF>
<cc:Work rdf:about="">
<dc:format>image/svg+xml</dc:format>
<dc:type rdf:resource="http://purl.org/dc/dcmitype/StillImage"/>
<dc:title/>
</cc:Work>
</rdf:RDF>
</metadata>
<defs>
<linearGradient id="linearGradient3354" x1="10.609" x2="9.7298" y1="17.886" y2="20.613" gradientUnits="userSpaceOnUse" spreadMethod="reflect">
<stop stop-color="#fcd9cd" offset="0"/>
<stop stop-color="#fcd9cd" stop-opacity="0" offset="1"/>
</linearGradient>
<linearGradient id="linearGradient3352" x1="12.372" x2="14.609" y1="16.188" y2="13.462" gradientUnits="userSpaceOnUse" spreadMethod="reflect">
<stop stop-color="#ebeec7" offset="0"/>
<stop stop-color="#ebeec7" stop-opacity="0" offset="1"/>
</linearGradient>
<linearGradient id="linearGradient3350" x1="14.085" x2="16.994" y1="13.046" y2="10.732" gradientUnits="userSpaceOnUse" spreadMethod="reflect">
<stop stop-color="#c4ebdd" offset="0"/>
<stop stop-color="#c4ebdd" stop-opacity="0" offset="1"/>
</linearGradient>
<linearGradient id="linearGradient3348" x1="17.495" x2="21.047" y1="11.2" y2="9.7956" gradientUnits="userSpaceOnUse" spreadMethod="reflect">
<stop stop-color="#c1cbe4" offset="0"/>
<stop stop-color="#c1cbe4" stop-opacity="0" offset="1"/>
</linearGradient>
<linearGradient id="linearGradient3346" x1="20.58" x2="24.274" y1="10.775" y2="9.8622" gradientUnits="userSpaceOnUse" spreadMethod="reflect">
<stop stop-color="#e6cde2" offset="0"/>
<stop stop-color="#e6cde2" stop-opacity="0" offset="1"/>
</linearGradient>
<linearGradient id="linearGradient6036">
<stop stop-color="#fff" offset="0"/>
<stop stop-color="#fff" stop-opacity="0" offset="1"/>
</linearGradient>
<linearGradient id="linearGradient4129" x1="1.5" x2="94.5" y1="88.172" y2="88.172" gradientTransform="translate(.14895 .41503)" gradientUnits="userSpaceOnUse">
<stop offset="0"/>
<stop stop-opacity=".58824" offset=".1"/>
<stop stop-opacity=".58824" offset=".9"/>
<stop offset="1"/>
</linearGradient>
<linearGradient id="linearGradient4767" x1="2.7714" x2="50.528" y1="-28.642" y2="14.514" gradientUnits="userSpaceOnUse" xlink:href="#linearGradient6036"/>
<linearGradient id="linearGradient4071-3" x1="6" x2="90" y1="47" y2="47" gradientTransform="matrix(1.1071 0 0 1.1071 -4.9939 -3.6207)" gradientUnits="userSpaceOnUse">
<stop stop-color="#b2babc" offset="0"/>
<stop stop-color="#fff" offset=".25"/>
<stop stop-color="#96a1a4" offset=".5"/>
<stop stop-color="#fbf9f9" offset=".75"/>
<stop stop-color="#b2b9bc" offset="1"/>
</linearGradient>
<radialGradient id="radialGradient7462-7" cx="13.948" cy="44.893" r="43.199" gradientTransform="matrix(.97513 0 0 .049191 34.048 80.582)" gradientUnits="userSpaceOnUse" xlink:href="#linearGradient6036"/>
<radialGradient id="radialGradient7464-0" cx="13.948" cy="44.893" r="43.199" gradientTransform="matrix(.88833 0 0 .049191 31.96 -90.317)" gradientUnits="userSpaceOnUse" xlink:href="#linearGradient6036"/>
<clipPath id="clipPath4156-4-1-9">
<path d="m27.046-55.695-14.214 13.321h0.06127l15.653 21.771 10.231-10.546c-0.2169-1.1522-11.311-23.67-11.732-24.546zm-17.399 16.313-14.888 14.062 21.229 17.515 10.385-10.577zm31.491 12.951-9.7413 9.7136 8.9448 12.458 7.7808-7.555zm-49.84 4.3788-13.754 12.982 26.283 13.846 0.06127-0.0617-0.12253-0.0617 9.8332-10.053-22.301-16.652zm38.015 7.4008-9.8025 9.7753 11.579 9.5594 7.6276-7.4008-8.6691-11.009zm20.187 5.674-7.3825 7.2158 6.1878 8.5418 5.8202-6.1365zm-32.195 6.3215-9.5575 9.4977 13.662 7.185 7.9339-7.6784zm23.312 2.3744-7.1068 6.9383 8.3628 6.9074 5.3608-5.674-0.06127-0.0925-0.0919 0.12335-6.4635-8.2026zm-8.7304 8.5418-7.5051 7.3392 10.354 5.4581c1.3975-1.321 5.6751-6.1229 5.8509-6.3215z" fill="#fff" opacity=".6"/>
</clipPath>
<linearGradient id="linearGradient2500" x1="12.274" x2="35.391" y1="32.416" y2="14.203" gradientTransform="matrix(0 1.1714 -1.1714 0 51.06 43.885)" gradientUnits="userSpaceOnUse">
<stop stop-color="#dedbde" offset="0"/>
<stop stop-color="#e6e6e6" offset=".5"/>
<stop stop-color="#d2d2d2" offset="1"/>
</linearGradient>
<linearGradient id="linearGradient2496" x1="21.448" x2="21.448" y1="15.5" y2="32.509" gradientTransform="matrix(.9375 0 0 .9375 1.5 49.5)" gradientUnits="userSpaceOnUse">
<stop stop-color="#aaa" offset="0"/>
<stop stop-color="#d4d4d4" offset="1"/>
</linearGradient>
<radialGradient id="radialGradient2487" cx="8.8913" cy="12.123" r="11" gradientTransform="matrix(0 3.4077 -4.4528 0 77.534 35.875)" gradientUnits="userSpaceOnUse">
<stop stop-color="#ffed8c" offset="0"/>
<stop stop-color="#fb9858" offset=".26238"/>
<stop stop-color="#dc572a" offset=".66094"/>
<stop stop-color="#9f3110" offset="1"/>
</radialGradient>
<radialGradient id="radialGradient2482" cx="65.214" cy="-8.8342" r="9.7553" gradientTransform="matrix(0 3.89 -3.8905 0 -10.386 -181.73)" gradientUnits="userSpaceOnUse">
<stop stop-color="#51cfee" offset="0"/>
<stop stop-color="#49a3d2" offset=".26238"/>
<stop stop-color="#3470b4" offset=".70495"/>
<stop stop-color="#273567" offset="1"/>
</radialGradient>
<linearGradient id="linearGradient2484" x1="20" x2="20" y1="53.986" y2="18.127" gradientTransform="matrix(.98001 0 0 .97999 -.30979 48.846)" gradientUnits="userSpaceOnUse">
<stop stop-color="#254b6d" offset="0"/>
<stop stop-color="#415b73" offset=".5"/>
<stop stop-color="#6195b5" offset="1"/>
</linearGradient>
<radialGradient id="radialGradient2477" cx="24" cy="23.031" r="9.1875" gradientTransform="matrix(0 2.7645 -2.6846 0 85.828 5.0576)" gradientUnits="userSpaceOnUse">
<stop stop-color="#cde34f" offset="0"/>
<stop stop-color="#93b723" offset=".66094"/>
<stop stop-color="#68910f" offset="1"/>
</radialGradient>
<linearGradient id="linearGradient2479" x1="29.934" x2="29.934" y1="48.632" y2="22.397" gradientTransform="translate(0,48)" gradientUnits="userSpaceOnUse">
<stop stop-color="#4c680f" offset="0"/>
<stop stop-color="#84a718" offset="1"/>
</linearGradient>
<linearGradient id="linearGradient2471" x1="10.502" x2="48.799" y1="3.61" y2="54.698" gradientTransform="matrix(.98497 0 0 .98497 .019022 47.376)" gradientUnits="userSpaceOnUse" xlink:href="#linearGradient6036"/>
</defs>
<g transform="translate(0 -1026.5)">
<g transform="translate(-.14896 1026.1)">
<g transform="translate(.14896 -1026.1)">
<g transform="translate(-.14896 1026.1)">
<path d="m89.292 0.41503h-82.286c-3.7988 0-6.8571 3.0583-6.8571 6.8571v82.286c0 3.7989 3.0583 6.8571 6.8571 6.8571h82.286c3.7989 0 6.8571-3.0583 6.8571-6.8571v-82.286c0-3.7989-3.0583-6.8571-6.8571-6.8571z" opacity=".15"/>
<path d="m88.649 1.165h-81c-3.7395 0-6.75 3.0105-6.75 6.75v81c0 3.7395 3.0105 6.75 6.75 6.75h81c3.7395 0 6.75-3.0105 6.75-6.75v-81c0-3.7395-3.0105-6.75-6.75-6.75z" opacity=".15"/>
<path d="m88.006 1.915h-79.714c-3.6801 0-6.6429 2.9627-6.6429 6.6429v79.714c0 3.6801 2.9627 6.6429 6.6429 6.6429h79.714c3.6801 0 6.6429-2.9627 6.6429-6.6429v-79.714c0-3.6801-2.9627-6.6429-6.6429-6.6429z" fill="url(#linearGradient4071-3)"/>
<path d="m11.39 6.8022c-2.8565 0-5.1241 2.2884-5.1241 5.171v68.58c1.0972 1.6845 2.9688 2.8117 5.1241 2.8117h73.787c2.1553 0 4.0269-1.1272 5.1241-2.8117v-68.58c0-2.8826-2.2676-5.171-5.1241-5.171z" fill="#eceeef" opacity=".872"/>
<path d="m9.974 5.1445c-3.1166 0-5.668 2.5395-5.668 5.646v69.278c0 3.1065 2.5513 5.646 5.668 5.646h76.792c3.1166 0 5.668-2.5395 5.668-5.646v-69.278c0-3.1065-2.5513-5.646-5.668-5.646zm0 2.3194h76.792c1.8881 0 3.352 1.4801 3.352 3.3266v69.278c0 1.8465-1.4639 3.3266-3.352 3.3266h-76.792c-1.8881 0-3.352-1.4801-3.352-3.3266v-69.278c0-1.8465 1.4639-3.3266 3.352-3.3266z" color="#000000" fill="#241f1f" fill-opacity=".63265" style="text-decoration-line:none;text-indent:0;text-transform:none"/>
<path d="m1.649 82.259v6c0 3.6801 2.9761 6.6562 6.6562 6.6562h79.687c3.6801 0 6.6563-2.9761 6.6563-6.6562v-6c0 3.6801-2.9761 6.6562-6.6563 6.6562h-79.687c-3.6801 0-6.6562-2.9761-6.6562-6.6562z" fill="url(#linearGradient4129)" opacity=".65818"/>
<rect x="5.524" y="80.665" width="84.25" height="4.25" rx="0" ry="4.25" fill="url(#radialGradient7462-7)" opacity=".55"/>
<rect transform="rotate(90)" x="5.975" y="-90.234" width="76.75" height="4.25" rx="0" ry="4.25" fill="url(#radialGradient7464-0)" opacity=".669"/>
<g transform="matrix(1.7529 0 0 1.7529 6.2993 -81.659)">
<path d="m44.5 72c0-11.363-9.137-20.5-20.5-20.5-11.363 0-20.5 9.137-20.5 20.5-2e-6 11.363 9.137 20.5 20.5 20.5 11.363-2e-6 20.5-9.137 20.5-20.5zm-13 0c0 4.1281-3.2893 7.5-7.5 7.5-4.2933 0-7.5-3.4553-7.5-7.5 0-4.1273 3.0415-7.5 7.5-7.5s7.5 3.4545 7.5 7.5z" fill="url(#linearGradient2500)" stroke="#646464" stroke-linecap="round" stroke-linejoin="bevel" stroke-width="1.1409" style="paint-order:fill markers stroke"/>
<path d="m24 64c-4.416 0-8 3.584-8 8s3.584 8 8 8 8-3.584 8-8-3.584-8-8-8zm0 4c2.208 0 4 1.792 4 4s-1.792 4-4 4-4-1.792-4-4 1.792-4 4-4z" fill="#fff" opacity=".5"/>
<path d="m24 64.5c-4.14 0-7.5 3.36-7.5 7.5s3.36 7.5 7.5 7.5 7.5-3.36 7.5-7.5-3.36-7.5-7.5-7.5zm0 3.75c2.07 0 3.75 1.68 3.75 3.75s-1.68 3.75-3.75 3.75-3.75-1.68-3.75-3.75 1.68-3.75 3.75-3.75z" fill="none" stroke="url(#linearGradient2496)" stroke-linejoin="round"/>
<g transform="translate(0,48)">
<path transform="rotate(1.6184 24.094 24.176)" d="m15.857 5.7308 4.7681 10.613c1.0354-0.45856 2.1703-0.71875 3.375-0.71875 0.03206 0 0.06178-3.6e-4 0.09375 0l0.01426-11.62c-2.9422-0.070687-5.543 0.65729-8.2511 1.726z" fill="url(#linearGradient3346)" opacity=".8"/>
<path d="m12.121 7.906 6.931 9.3601c0.91311-0.66976 1.9659-1.1671 3.1426-1.4252 0.03132-0.0069 0.06026-0.01359 0.09157-0.02009l-2.4295-11.395c-2.889 0.56132-5.3195 1.8556-7.7357 3.4797z" fill="url(#linearGradient3348)" opacity=".8"/>
<path d="m8.2524 11.647 9.2137 7.1558c0.70865-0.88326 1.5969-1.6361 2.6667-2.19 0.02847-0.01474 0.05469-0.02872 0.08325-0.0431l-5.3502-10.319c-2.6453 1.2899-4.7 3.2018-6.6135 5.3959z" fill="url(#linearGradient3350)" opacity=".8"/>
<path d="m5.6329 16.074c7.1748 2.2422 7.8503 7.0315 12.777 1.7541l-7.9097-8.696c-2.2213 1.9306-3.5867 4.3272-4.8671 6.9418z" fill="url(#linearGradient3352)" opacity=".8"/>
<path d="m7.1553 13.193c-1.1831 1.752-1.9077 3.6364-2.5251 5.6439l11.339 2.9754c0.21551-0.763 0.51805-1.5148 0.96875-2.2188 0.01729-0.027 0.04496-0.06702 0.0625-0.09375z" fill="url(#linearGradient3354)" opacity=".8"/>
</g>
<path d="m10.844 56.25c-4.4932 3.7536-7.3438 9.4062-7.3438 15.75-6e-7 3.5259 0.88445 6.828 2.4375 9.7188 0.011014 0.0205 0.020168 0.04204 0.03125 0.0625 0.24574 0.42645 0.50637 0.84246 0.78125 1.25 3.5633 5.2831 9.4983 8.9467 16.188 9.4375 0.35328 0.02592 1.2053 0.0231 1.5625 0.03125-1.09e-4 -4.2663 0-8.6752 0-13-4.2933 0-8-3.4553-8-7.5 0-2.3782 1.0099-4.4988 2.7188-5.875z" fill="url(#radialGradient2487)" stroke="#ce5c00" stroke-linecap="round" stroke-linejoin="round"/>
<path d="m31.469 71.469c0.011798 0.17666 0.03125 0.35202 0.03125 0.53125 0 1.29-0.33607 2.5-0.90625 3.5625l11.281 6.5c1.6703-2.9707 2.625-6.8961 2.625-10.562z" fill="url(#radialGradient2482)" stroke="url(#linearGradient2484)"/>
<path d="m30.562 75.594c-1.2375 2.2746-3.2515 3.85-6.0625 3.9062v12.938c2.3228-0.04539 4.1946-0.41681 6.3438-1.125 0.42984-0.14164 0.83173-0.30144 1.25-0.46875 0.13653-0.05461 0.27106-0.13017 0.40625-0.1875 3.973-1.8046 7.2543-4.8417 9.375-8.625z" fill="url(#radialGradient2477)" stroke="url(#linearGradient2479)" stroke-linecap="round" stroke-linejoin="round" stroke-opacity=".71765"/>
<path d="m24 63.5c-4.7114 0-8.5 3.7886-8.5 8.5s3.7886 8.5 8.5 8.5c4.7114 0 8.5-3.7886 8.5-8.5s-3.7886-8.5-8.5-8.5z" fill="none" opacity=".4" stroke="#414141"/>
<path d="m24 52.5c-10.809 0-19.5 8.6914-19.5 19.5 0 10.809 8.6914 19.5 19.5 19.5s19.5-8.6914 19.5-19.5c0-10.809-8.6914-19.5-19.5-19.5z" fill="none" opacity=".4" stroke="url(#linearGradient2471)"/>
<path d="m11 58 6.5524 7.6993" fill="none" opacity=".45" stroke="#fff" stroke-width="1px"/>
<path d="m33 72.5h10" fill="none" opacity=".2" stroke="#fff" stroke-width="1px"/>
<path d="m31.362 77.214 8.7238 4.9145" fill="none" opacity=".2" stroke="#fff" stroke-width="1px"/>
</g>
<rect transform="matrix(1.0692 0 0 1.0477 4.4442 38.894)" x="2" y="-30" width="75.966" height="69.024" rx="3.957" ry="3.957" clip-path="url(#clipPath4156-4-1-9)" fill="url(#linearGradient4767)" opacity=".599"/>
</g>
</g>
</g>
</g>
</svg>
