<?xml version="1.0" encoding="UTF-8"?>
<!-- Created with Inkscape (http://www.inkscape.org/) -->
<svg version="1.1" viewBox="0 0 48 48" xmlns="http://www.w3.org/2000/svg" xmlns:cc="http://creativecommons.org/ns#" xmlns:dc="http://purl.org/dc/elements/1.1/" xmlns:rdf="http://www.w3.org/1999/02/22-rdf-syntax-ns#" xmlns:xlink="http://www.w3.org/1999/xlink">
<metadata>
<rdf:RDF>
<cc:Work rdf:about="">
<dc:format>image/svg+xml</dc:format>
<dc:type rdf:resource="http://purl.org/dc/dcmitype/StillImage"/>
<dc:title/>
</cc:Work>
</rdf:RDF>
</metadata>
<defs>
<linearGradient id="linearGradient25074">
<stop stop-color="#d3d3d3" offset="0"/>
<stop stop-color="#f4f4f4" offset="1"/>
</linearGradient>
<linearGradient id="linearGradient10691-1">
<stop offset="0"/>
<stop stop-opacity="0" offset="1"/>
</linearGradient>
<linearGradient id="linearGradient4071" x1="6" x2="90" y1="47" y2="47" gradientTransform="matrix(1.106 0 0 1.1071 -5.1375 -4.0357)" gradientUnits="userSpaceOnUse">
<stop stop-color="#b2babc" offset="0"/>
<stop stop-color="#fff" offset=".25"/>
<stop stop-color="#96a1a4" offset=".5"/>
<stop stop-color="#fbf9f9" offset=".75"/>
<stop stop-color="#b2b9bc" offset="1"/>
</linearGradient>
<linearGradient id="linearGradient4129" x1="1.5" x2="94.5" y1="88.172" y2="88.172" gradientTransform="matrix(.99896 0 0 1 0 2.5e-5)" gradientUnits="userSpaceOnUse">
<stop offset="0"/>
<stop stop-opacity=".58824" offset=".1"/>
<stop stop-opacity=".58824" offset=".9"/>
<stop offset="1"/>
</linearGradient>
<radialGradient id="radialGradient7462" cx="13.948" cy="44.893" r="43.199" gradientTransform="matrix(.97412 0 0 .049191 33.863 80.167)" gradientUnits="userSpaceOnUse" xlink:href="#linearGradient3737"/>
<linearGradient id="linearGradient3737">
<stop stop-color="#fff" offset="0"/>
<stop stop-color="#fff" stop-opacity="0" offset="1"/>
</linearGradient>
<radialGradient id="radialGradient7464" cx="13.948" cy="44.893" r="43.199" gradientTransform="matrix(.88833 0 0 .049139 31.545 -90.074)" gradientUnits="userSpaceOnUse" xlink:href="#linearGradient3737"/>
<radialGradient id="radialGradient1958" cx="24" cy="3.253" r="21" gradientTransform="matrix(0 2.2408 -2.749 0 32.693 -47.129)" gradientUnits="userSpaceOnUse">
<stop stop-color="#6284f3" offset="0"/>
<stop stop-color="#1d3c9f" offset="1"/>
</radialGradient>
<radialGradient id="radialGradient4084-7" cx="22.345" cy="9.4016" r="11.102" gradientTransform="matrix(-3.3964e-8 3.0922 -2.8654 -5.6185e-8 48.887 -65.646)" gradientUnits="userSpaceOnUse">
<stop stop-color="#7bd470" offset="0"/>
<stop stop-color="#5bcb4d" offset="1"/>
</radialGradient>
<radialGradient id="radialGradient4086-5" cx="14.566" cy="10.819" r="9.6167" gradientTransform="matrix(-2.0509 0 0 -2.9905 43.349 35.802)" gradientUnits="userSpaceOnUse">
<stop stop-color="#ff5757" offset="0"/>
<stop stop-color="#ff4b4b" offset="1"/>
</radialGradient>
<linearGradient id="linearGradient4767" x1="2.7714" x2="50.528" y1="-28.642" y2="14.514" gradientTransform="matrix(2.0189 0 0 2.0211 3.6206 37.019)" gradientUnits="userSpaceOnUse" xlink:href="#linearGradient3737"/>
<clipPath id="clipPath4156-4-1">
<path d="m27.046-55.695-14.214 13.321h0.06127l15.653 21.771 10.231-10.546c-0.2169-1.1522-11.311-23.67-11.732-24.546zm-17.399 16.313-14.888 14.062 21.229 17.515 10.385-10.577zm31.491 12.951-9.7413 9.7136 8.9448 12.458 7.7808-7.555zm-49.84 4.3788-13.754 12.982 26.283 13.846 0.06127-0.0617-0.12253-0.0617 9.8332-10.053-22.301-16.652zm38.015 7.4008-9.8025 9.7753 11.579 9.5594 7.6276-7.4008-8.6691-11.009zm20.187 5.674-7.3825 7.2158 6.1878 8.5418 5.8202-6.1365zm-32.195 6.3215-9.5575 9.4977 13.662 7.185 7.9339-7.6784zm23.312 2.3744-7.1068 6.9383 8.3628 6.9074 5.3608-5.674-0.06127-0.0925-0.0919 0.12335-6.4635-8.2026zm-8.7304 8.5418-7.5051 7.3392 10.354 5.4581c1.3975-1.321 5.6751-6.1229 5.8509-6.3215z" fill="#fff" opacity=".6"/>
</clipPath>
<linearGradient id="linearGradient4137" x1="12" x2="12" y1="13.99" y2="26.013" gradientTransform="matrix(.9375 0 0 .91667 54.414 -3.1417)" gradientUnits="userSpaceOnUse" xlink:href="#linearGradient25074"/>
<linearGradient id="linearGradient4134" x1="29" x2="29" y1="13.895" y2="25.822" gradientTransform="matrix(1 0 0 .83333 53.664 -1.475)" gradientUnits="userSpaceOnUse" xlink:href="#linearGradient25074"/>
<linearGradient id="linearGradient4126" x1="32" x2="32" y1="14" y2="25.903" gradientTransform="matrix(1 0 0 .9 54.664 -2.8083)" gradientUnits="userSpaceOnUse" xlink:href="#linearGradient25074"/>
<linearGradient id="linearGradient4114" x1="-11.7" x2="-10.6" y1="1.65" y2="1.65" gradientTransform="matrix(3.6364 0 0 .18182 55.737 -83.964)" gradientUnits="userSpaceOnUse" xlink:href="#linearGradient10691-1"/>
<linearGradient id="linearGradient4111" x1="-11.7" x2="-10.6" y1="1.65" y2="1.65" gradientTransform="matrix(7.2727 0 0 .36364 96.283 -88.764)" gradientUnits="userSpaceOnUse" xlink:href="#linearGradient10691-1"/>
</defs>
<path d="m44.357 0.25h-40.714c-1.8796 0-3.3928 1.5132-3.3928 3.3929v40.714c0 1.8796 1.5132 3.3929 3.3928 3.3929h40.714c1.8796 0 3.3929-1.5132 3.3929-3.3929v-40.714c0-1.8796-1.5132-3.3929-3.3929-3.3929z" opacity=".15"/>
<path d="m44.039 0.62109h-40.078c-1.8503 0-3.3398 1.4896-3.3398 3.3398v40.078c0 1.8503 1.4896 3.3398 3.3398 3.3398h40.078c1.8503 0 3.3398-1.4896 3.3398-3.3398v-40.078c0-1.8503-1.4896-3.3398-3.3398-3.3398z" opacity=".15"/>
<path d="m43.721 0.99219h-39.442c-1.8209 0-3.2868 1.4659-3.2868 3.2868v39.442c0 1.8209 1.4659 3.2868 3.2868 3.2868h39.442c1.8209 0 3.2868-1.4659 3.2868-3.2868v-39.442c0-1.8209-1.4659-3.2868-3.2868-3.2868z" fill="url(#linearGradient4071)"/>
<path d="m0.99218 40.746v2.9688c0 1.8209 1.4726 3.2935 3.2935 3.2935h39.429c1.8209 0 3.2935-1.4726 3.2935-3.2935v-2.9688c0 1.8209-1.4726 3.2935-3.2935 3.2935h-39.429c-1.8209 0-3.2935-1.4726-3.2935-3.2935z" fill="url(#linearGradient4129)" opacity=".65818"/>
<rect x="2.9095" y="39.957" width="41.686" height="2.1029" rx="4.25" ry="4.25" fill="url(#radialGradient7462)" opacity=".55"/>
<rect transform="rotate(90)" x="3.001" y="-44.823" width="37.975" height="2.1029" rx="4.2456" ry="4.2456" fill="url(#radialGradient7464)" opacity=".669"/>
<path d="m5.1114 2.5901c-1.5421 0-2.8045 1.2565-2.8045 2.7936v34.278c0 1.5371 1.2624 2.7936 2.8045 2.7936h37.996c1.5421 0 2.8045-1.2565 2.8045-2.7936v-34.278c0-1.5371-1.2624-2.7936-2.8045-2.7936zm0 1.1476h37.996c0.93422 0 1.6586 0.73234 1.6586 1.646v34.278c0 0.91362-0.72434 1.646-1.6586 1.646h-37.996c-0.93421 0-1.6586-0.73234-1.6586-1.646v-34.278c0-0.91362 0.72434-1.646 1.6586-1.646z" color="#000000" fill="#202223" fill-opacity=".93689" style="text-decoration-line:none;text-indent:0;text-transform:none"/>
<path d="m5.3671 3.3685c-1.2669 0-2.2871 0.88009-2.2871 1.9727v34.363c0 1.0926 1.0202 1.9727 2.2871 1.9727h37.484c1.2669 0 2.2871-0.88009 2.2871-1.9727v-34.363c0-1.0926-1.0202-1.9727-2.2871-1.9727z" enable-background="new" fill="url(#radialGradient1958)" fill-rule="evenodd"/>
<path d="m11.473 3.3685v38.309h17.016l7.168-18.779-7.4531-19.529z" fill="url(#radialGradient4084-7)"/>
<path d="m5.3671 3.3685c-1.2669 0-2.2871 0.88009-2.2871 1.9727v34.363c0 1.0926 1.0202 1.9727 2.2871 1.9727h9.2578l7.168-18.779-7.4531-19.529z" fill="url(#radialGradient4086-5)" stroke-width="1.259"/>
<g transform="matrix(1.5316 0 0 1.5316 -95.088 1.1856)">
<rect x="65.664" y="9.6917" width="15" height="11" rx="2" ry="2" fill="url(#linearGradient4137)"/>
<rect x="82.664" y="12.692" width="2" height="5" fill="url(#linearGradient4134)"/>
<rect transform="rotate(90)" x="9.6917" y="-90.664" width="11" height="5" fill="none" opacity=".4"/>
<rect x="86.664" y="10.692" width="3" height="9" fill="url(#linearGradient4126)"/>
<rect transform="rotate(90)" x="8.6917" y="-81.664" width="13" height="17" rx="3" ry="3" fill="none" opacity=".4"/>
<rect transform="rotate(90)" x="11.692" y="-85.664" width="7" height="4" fill="none" opacity=".4"/>
<rect transform="rotate(90)" x="10.692" y="-79.664" width="9" height="13" rx="1" ry="1" fill="none" opacity=".2"/>
<rect transform="rotate(90)" x="13.192" y="-84.164" width="4" height="1" fill="url(#linearGradient4114)" opacity=".2"/>
<rect transform="rotate(90)" x="11.192" y="-89.164" width="8" height="2" fill="url(#linearGradient4111)" opacity=".2"/>
<circle cx="73.164" cy="15.192" r="2.8284" fill="#ff2a2a" opacity=".8"/>
</g>
<rect transform="matrix(.52905 0 0 .51838 1.5476 18.398)" x="2" y="-30" width="75.966" height="69.024" rx="7.9889" ry="7.9973" clip-path="url(#clipPath4156-4-1)" fill="url(#linearGradient4767)" opacity=".446"/>
<path d="m5.1114 2.5901c-1.5421 0-2.8045 1.2565-2.8045 2.7936v34.278c0 1.5371 1.2624 2.7936 2.8045 2.7936h37.996c1.5421 0 2.8045-1.2565 2.8045-2.7936v-34.278c0-1.5371-1.2624-2.7936-2.8045-2.7936zm0 1.1476h37.996c0.93422 0 1.6586 0.73234 1.6586 1.646v34.278c0 0.91362-0.72434 1.646-1.6586 1.646h-37.996c-0.93421 0-1.6586-0.73234-1.6586-1.646v-34.278c0-0.91362 0.72434-1.646 1.6586-1.646z" color="#000000" fill="#202223" fill-opacity=".93689" style="text-decoration-line:none;text-indent:0;text-transform:none"/>
</svg>
