<?xml version="1.0" encoding="UTF-8"?>
<svg version="1.1" viewBox="0 0 48 48" xmlns="http://www.w3.org/2000/svg" xmlns:cc="http://creativecommons.org/ns#" xmlns:dc="http://purl.org/dc/elements/1.1/" xmlns:rdf="http://www.w3.org/1999/02/22-rdf-syntax-ns#" xmlns:xlink="http://www.w3.org/1999/xlink">
<metadata>
<rdf:RDF>
<cc:Work rdf:about="">
<dc:format>image/svg+xml</dc:format>
<dc:type rdf:resource="http://purl.org/dc/dcmitype/StillImage"/>
</cc:Work>
</rdf:RDF>
</metadata>
<defs>
<clipPath id="clipPath-701917413">
<g transform="translate(0 -1004.4)">
<path transform="matrix(15.333 0 0 11.5 415 878.86)" d="m-24 13c0 1.105-0.672 2-1.5 2s-1.5-0.895-1.5-2 0.672-2 1.5-2 1.5 0.895 1.5 2z" fill="#1890d0"/>
</g>
</clipPath>
<linearGradient id="linearGradient4071" x1="6" x2="90" y1="47" y2="47" gradientTransform="matrix(.55126 0 0 .55126 4.0361 -10.452)" gradientUnits="userSpaceOnUse">
<stop stop-color="#b2babc" offset="0"/>
<stop stop-color="#fff" offset=".25"/>
<stop stop-color="#96a1a4" offset=".5"/>
<stop stop-color="#fbf9f9" offset=".75"/>
<stop stop-color="#b2b9bc" offset="1"/>
</linearGradient>
<linearGradient id="linearGradient4129" x1="1.5" x2="94.5" y1="88.172" y2="88.172" gradientTransform="matrix(.49792 0 0 .49792 6.5969 -8.4424)" gradientUnits="userSpaceOnUse">
<stop offset="0"/>
<stop stop-opacity=".58824" offset=".1"/>
<stop stop-opacity=".58824" offset=".9"/>
<stop offset="1"/>
</linearGradient>
<radialGradient id="radialGradient7462" cx="13.948" cy="44.893" r="43.199" gradientTransform="matrix(.48554 0 0 .024493 23.476 31.474)" gradientUnits="userSpaceOnUse" xlink:href="#linearGradient3737"/>
<linearGradient id="linearGradient3737">
<stop stop-color="#fff" offset="0"/>
<stop stop-color="#fff" stop-opacity="0" offset="1"/>
</linearGradient>
<radialGradient id="radialGradient7464" cx="13.948" cy="44.893" r="43.199" gradientTransform="matrix(.44231 0 0 .024493 7.2642 -51.493)" gradientUnits="userSpaceOnUse" xlink:href="#linearGradient3737"/>
<linearGradient id="linearGradient4767" x1="2.7714" x2="50.528" y1="-28.642" y2="14.514" gradientTransform="translate(12.203 -16.375)" gradientUnits="userSpaceOnUse" xlink:href="#linearGradient3737"/>
<clipPath id="clipPath4156-4-1">
<path d="m27.046-55.695-14.214 13.321h0.06127l15.653 21.771 10.231-10.546c-0.2169-1.1522-11.311-23.67-11.732-24.546zm-17.399 16.313-14.888 14.062 21.229 17.515 10.385-10.577zm31.491 12.951-9.7413 9.7136 8.9448 12.458 7.7808-7.555zm-49.84 4.3788-13.754 12.982 26.283 13.846 0.06127-0.0617-0.12253-0.0617 9.8332-10.053-22.301-16.652zm38.015 7.4008-9.8025 9.7753 11.579 9.5594 7.6276-7.4008-8.6691-11.009zm20.187 5.674-7.3825 7.2158 6.1878 8.5418 5.8202-6.1365zm-32.195 6.3215-9.5575 9.4977 13.662 7.185 7.9339-7.6784zm23.312 2.3744-7.1068 6.9383 8.3628 6.9074 5.3608-5.674-0.06127-0.0925-0.0919 0.12335-6.4635-8.2026zm-8.7304 8.5418-7.5051 7.3392 10.354 5.4581c1.3975-1.321 5.6751-6.1229 5.8509-6.3215z" fill="#fff" opacity=".6"/>
</clipPath>
<filter id="filter4322" x="-.011999" y="-.012001" width="1.024" height="1.024" color-interpolation-filters="sRGB">
<feGaussianBlur stdDeviation="0.11999023"/>
</filter>
</defs>
<path d="m44.486 0.1h-40.971c-1.8915 0-3.4143 1.5228-3.4143 3.4143v40.971c0 1.8915 1.5228 3.4143 3.4143 3.4143h40.971c1.8915 0 3.4143-1.5228 3.4143-3.4143v-40.971c0-1.8915-1.5228-3.4143-3.4143-3.4143z" opacity=".15"/>
<path d="m44.166 0.47344h-40.331c-1.862 0-3.3609 1.499-3.3609 3.3609v40.331c0 1.862 1.499 3.3609 3.3609 3.3609h40.331c1.862 0 3.3609-1.499 3.3609-3.3609v-40.331c0-1.862-1.499-3.3609-3.3609-3.3609z" opacity=".15"/>
<path d="m43.846 0.84688h-39.691c-1.8324 0-3.3076 1.4752-3.3076 3.3076v39.691c0 1.8324 1.4752 3.3076 3.3076 3.3076h39.691c1.8324 0 3.3076-1.4752 3.3076-3.3076v-39.691c0-1.8324-1.4752-3.3076-3.3076-3.3076z" fill="url(#linearGradient4071)"/>
<path d="m5.6972 3.2803c-1.4223 0-2.5514 1.153-2.5514 2.6055v34.556c0.54633 0.84876 1.4782 1.4167 2.5514 1.4167h37.521c1.0732 0 1.2236 0.01811 1.7699-0.83064v-35.142c0-1.4525-1.1291-2.6055-2.5514-2.6055z" fill="#e8e8e8" opacity=".98"/>
<path d="m4.9921 2.4549c-1.5518 0-2.8222 1.2645-2.8222 2.8112v34.495c0 1.5468 1.2704 2.8112 2.8222 2.8112h38.236c1.5518 0 2.8222-1.2645 2.8222-2.8112v-34.495c0-1.5468-1.2704-2.8112-2.8222-2.8112zm0 1.1549h38.236c0.94012 0 1.669 0.73696 1.669 1.6564v34.495c0 0.91939-0.72891 1.6564-1.669 1.6564h-38.236c-0.94012 0-1.669-0.73696-1.669-1.6564v-34.495c0-0.91939 0.72891-1.6564 1.669-1.6564z" color="#000000" fill="#1f2224" fill-opacity=".95798" style="text-decoration-line:none;text-indent:0;text-transform:none"/>
<path d="m0.84687 40.851v2.9875c0 1.8324 1.4819 3.3143 3.3143 3.3143h39.678c1.8324 0 3.3143-1.4819 3.3143-3.3143v-2.9875c0 1.8324-1.4819 3.3143-3.3143 3.3143h-39.678c-1.8324 0-3.3143-1.4819-3.3143-3.3143z" fill="url(#linearGradient4129)" opacity=".65818"/>
<path d="m5.7409 3.2244c-0.052139 0-0.10103 0.012568-0.15234 0.015625-0.16809 0.091534-0.33635 0.18128-0.48828 0.24023l4.1973 8.1582c3.477 0.383 4.082 2.8162 1.5 7.5312l-5.0313 10.139c-0.29024 1.2754-1.3151 4.5231-2.5781 7.0215v4.0566c0.54633 0.84876 1.4796 1.416 2.5527 1.416h7.6738c0.84605-1.4422 1.9588-2.9136 2.9141-3.9258 0.441-0.023 0.867-0.03125 1.25-0.03125 4.5272 0.0063 4.7818 1.6932 3.1016 3.957h22.582c0.44403 0 0.7121-0.01187 0.93359-0.06836 0.21792-0.44923 0.39494-0.83896 0.52344-1-0.85-0.38-6.4913-2.302-7.3633-2.293-0.211 4e-3 -0.43 0.0195-0.625 0.0625-0.14076 0.89212 0.27986 2.1312 0.75 3.1523-1.3124-1.7246-3.7737-4.2029-4.3418-4.5977-1.063-0.715-1.4095-2.3202-0.5625-3.4062l0.375-3.0625c0.215-3.551-1.238-6.1623-4-8.0293l-5.4805-12.092c1.656-1.5 5.7879-3.4785 7.1699-4.1855-0.02531-0.87918 0.4848-1.9495 1.0566-3.0586zm38.229 0.48828c-1.9218 0.91067-5.1318 2.7673-5.7988 2.6992-2.781 4 0.8545 6.816 2.5625 10 0.99047 0.17012 2.5932-0.2001 4.2988-0.56055v-10.021c0-0.88067-0.41864-1.6469-1.0625-2.1172z" fill="#285935"/>
<path d="m5.2936 3.2693c-1.2043 0.21262-2.1055 1.2644-2.1055 2.5605v11.553c0.53002 0.04441 1.0635 0.06496 1.5176 0.03906 1.969-2.516 4.074-4.281 5-7.25 0.522-1.674 2.3038-2.1281 1.5488-3.7441zm16.004 6.9961c-0.313 0.016-0.6125 0.059-0.9375 0.125-1.176 0.969-1.6718 2.4435-2.2188 3.8125-0.664 1.652 0.5175 3.4688-0.3125 4.9688-0.547 0.5-1.3845 0.65547-2.0645 0.48047-2.684-0.734-5.6518-0.73047-8.2188 0.51953l-4.3574 1.6426v2.2422c2.0076 1.1743 5.3816 1.9693 6.1387 3.4707 0.688 1.359 0.97953 2.9525 1.1445 4.4375 0.227 1.898-0.672 3.6935-0.625 5.5625 3.629-0.184 8.0602-0.12525 9.5312 1.3438 0.67189 0.67355 0.65153 1.7449 0.28906 2.9316h6.127c-0.20065-0.3362-0.3866-0.68657-0.41211-1.1816-0.102-2.105 1.7774-3.375 2.9414-4.875 1.289-1.688 0.65175-4.2285-1.0312-5.5645 0.594-2.465 0.828-5.0633 1.625-7.5273 0.91-2.785 5.0195-5.387 2.9375-8.25-1.723-0.184-3.2728-0.99225-4.7188-1.9062-1.738-1.125-3.6638-2.3088-5.8438-2.2188l0.0059-0.0098zm16.369 6.877c0.066 0.719 0.60925 1.3048 1.1562 1.7188 0.398 0.301 0.83175-0.367 0.46875-0.75-0.43-0.434-0.945-1.0348-1.625-0.96875zm7.3652 5.0391-4.1426 2.709c-0.12-0.01-0.24591-9e-3 -0.37891 2e-3 -3.922 0.316-6.824 4.277-8.25 7.625 0.25 0.734 0.46125 1.5858 0.90625 2.2188 0.547 0.77 9.8791 3.2615 11.039 3.8125 0.31571-0.28516 0.58672-0.59449 0.82617-0.92383z" fill="#b07845"/>
<path d="m19.11 25.513-2 9 8-4 7.195 3.598c0.072-0.159 0.159-0.315 0.271-0.459l0.121-0.992-1.588-7.146 0.436-0.434c-0.656-0.958-1.523-1.796-2.594-2.52z" fill-opacity=".098"/>
<path d="m25.231 10.404-0.25 0.50195 3.1875 6.377 0.53516 0.06641zm10.059 8.7578-5.1211 5.1172 2 9-8-4-6.5234 3.2617-0.41406 1.8594 8-4 8 4-2-9 6-5.9961zm-22.006 0.23633-0.05273 0.0059 4.9258 4.9238 0.01172-0.04883z" fill-opacity=".2479" filter="url(#filter4322)"/>
<path d="m16.11 33.513 2-9-6-5.996 8-1 4-8 4 8 8 1-6 5.996 2 9-8-4" fill="#f6eb1a" stroke="#0b0801" stroke-opacity=".58929" stroke-width=".6"/>
<rect x="2.7763" y="40.058" width="41.949" height="2.1161" rx="2.1161" ry="2.1161" fill="url(#radialGradient7462)" opacity=".55"/>
<rect transform="rotate(90)" x="2.8684" y="-44.955" width="38.215" height="2.1161" rx="2.1161" ry="2.1161" fill="url(#radialGradient7464)" opacity=".669"/>
<rect transform="matrix(.53239 0 0 .52166 2.2387 19.259)" x="2" y="-30" width="75.966" height="69.024" rx="3.957" ry="3.957" clip-path="url(#clipPath4156-4-1)" fill="url(#linearGradient4767)" opacity=".7"/>
<g clip-path="url(#clipPath-701917413)">
<g transform="translate(1,1)">
<g opacity=".1">
<!-- color: #3f2811 --></g>
</g>
</g>
</svg>
