<?xml version="1.0" encoding="UTF-8"?>
<!-- Created with Inkscape (http://www.inkscape.org/) -->
<svg enable-background="new" version="1.0" viewBox="0 0 96 96" xmlns="http://www.w3.org/2000/svg" xmlns:cc="http://creativecommons.org/ns#" xmlns:dc="http://purl.org/dc/elements/1.1/" xmlns:rdf="http://www.w3.org/1999/02/22-rdf-syntax-ns#" xmlns:xlink="http://www.w3.org/1999/xlink">
<defs>
<linearGradient id="ButtonShadow" x1="45.448" x2="45.448" y1="92.54" y2="7.0165" gradientTransform="scale(1.0059 .99417)" gradientUnits="userSpaceOnUse">
<stop offset="0"/>
<stop stop-opacity=".58824" offset="1"/>
</linearGradient>
<filter id="filter3174" color-interpolation-filters="sRGB">
<feGaussianBlur stdDeviation="1.71"/>
</filter>
<filter id="filter3794" x="-.192" y="-.192" width="1.384" height="1.384" color-interpolation-filters="sRGB">
<feGaussianBlur stdDeviation="5.28"/>
</filter>
<linearGradient id="linearGradient3613" x1="48" x2="48" y1="20.221" y2="138.66" gradientUnits="userSpaceOnUse">
<stop stop-color="#fff" offset="0"/>
<stop stop-color="#fff" stop-opacity="0" offset="1"/>
</linearGradient>
<clipPath id="clipPath3613">
<rect x="6" y="6" width="84" height="84" rx="6" ry="6" fill="#fff"/>
</clipPath>
<linearGradient id="linearGradient3837" x1="2.7714" x2="50.528" y1="-28.642" y2="14.514" gradientUnits="userSpaceOnUse">
<stop stop-color="#fff" offset="0"/>
<stop stop-color="#fff" stop-opacity="0" offset="1"/>
</linearGradient>
<radialGradient id="radialGradient3833" cx="13.948" cy="44.893" r="43.199" gradientTransform="matrix(.88833 0 0 .049191 16.069 -98.752)" gradientUnits="userSpaceOnUse" xlink:href="#linearGradient4133"/>
<radialGradient id="radialGradient3831" cx="13.948" cy="44.893" r="43.199" gradientTransform="matrix(.97513 0 0 .049191 41.943 65.501)" gradientUnits="userSpaceOnUse" xlink:href="#linearGradient4133"/>
<linearGradient id="linearGradient3829" x1="1.5" x2="94.5" y1="88.172" y2="88.172" gradientTransform="translate(8.044 -14.666)" gradientUnits="userSpaceOnUse">
<stop offset="0"/>
<stop stop-opacity=".58824" offset=".1"/>
<stop stop-opacity=".58824" offset=".9"/>
<stop offset="1"/>
</linearGradient>
<radialGradient id="radialGradient3827" cx="48" cy="-27" r="42" gradientTransform="matrix(-1.187 0 0 -.96877 113.02 -39.322)" gradientUnits="userSpaceOnUse">
<stop stop-color="#fff" offset="0"/>
<stop stop-color="#fff" offset=".8"/>
<stop stop-color="#fff" stop-opacity="0" offset="1"/>
</radialGradient>
<linearGradient id="linearGradient3825" x1="6" x2="90" y1="47" y2="47" gradientTransform="matrix(1.1071 0 0 1.1071 2.9011 -18.701)" gradientUnits="userSpaceOnUse">
<stop stop-color="#adb4c1" offset="0"/>
<stop stop-color="#fff" offset=".25"/>
<stop stop-color="#9095aa" offset=".5"/>
<stop stop-color="#fbf9f9" offset=".75"/>
<stop stop-color="#adb3c1" offset="1"/>
</linearGradient>
<filter id="filter3174-36" color-interpolation-filters="sRGB">
<feGaussianBlur stdDeviation="1.71"/>
</filter>
<filter id="filter3174-3" color-interpolation-filters="sRGB">
<feGaussianBlur stdDeviation="1.71"/>
</filter>
<linearGradient id="linearGradient4133">
<stop stop-color="#fff" offset="0"/>
<stop stop-color="#fff" stop-opacity="0" offset="1"/>
</linearGradient>
<clipPath id="clipPath4156-4">
<path d="m27.046-55.695-14.214 13.321h0.06127l15.653 21.771 10.231-10.546c-0.2169-1.1522-11.311-23.67-11.732-24.546zm-17.399 16.313-14.888 14.062 21.229 17.515 10.385-10.577-16.726-21zm31.491 12.951-9.7413 9.7136 8.9448 12.458 7.7808-7.555-6.9843-14.617zm-49.84 4.3788-13.754 12.982 26.283 13.846 0.06127-0.0617-0.12253-0.0617 9.8332-10.053-22.301-16.652zm38.015 7.4008-9.8025 9.7753 11.579 9.5594 7.6276-7.4008-8.6691-11.009-0.73519-0.9251zm20.187 5.674-7.3825 7.2158 6.1878 8.5418 5.8202-6.1365-4.6256-9.6211zm-32.195 6.3215-9.5575 9.4977 13.662 7.185 7.9339-7.6784-12.039-9.0043zm23.312 2.3744-7.1068 6.9383 8.3628 6.9074 5.3608-5.674-0.06127-0.0925-0.0919 0.12335-6.4635-8.2026zm-8.7304 8.5418-7.5051 7.3392 10.354 5.4581c1.3975-1.321 5.6751-6.1229 5.8509-6.3215l-8.6997-6.4757z" fill="#fff" opacity=".6"/>
</clipPath>
<filter id="filter3174-4" color-interpolation-filters="sRGB">
<feGaussianBlur stdDeviation="1.71"/>
</filter>
<linearGradient id="linearGradient4050-6" x1="29" x2="29" y1="86" y2="70" gradientTransform="matrix(1 0 0 1.0615 8.044 -22.817)" gradientUnits="userSpaceOnUse">
<stop stop-color="#ffdf60" offset="0"/>
<stop stop-color="#ffd917" offset="1"/>
</linearGradient>
<linearGradient id="linearGradient4052-5" x1="41.145" x2="44.619" y1="33.264" y2="59.651" gradientTransform="matrix(1.0641 0 0 1.1295 4.6817 -29.416)" gradientUnits="userSpaceOnUse">
<stop stop-color="#f5f5f5" offset="0"/>
<stop stop-color="#dcdcdc" offset="1"/>
</linearGradient>
</defs>
<metadata>
<rdf:RDF>
<cc:Work rdf:about="">
<dc:format>image/svg+xml</dc:format>
<dc:type rdf:resource="http://purl.org/dc/dcmitype/StillImage"/>
<dc:title/>
</cc:Work>
</rdf:RDF>
</metadata>
<g transform="translate(-1e-6,32)">
<g transform="translate(-8.044 -17.334)">
<path d="m97.187-14.666h-82.286c-3.7988 0-6.8571 3.0583-6.8571 6.8571v82.286c0 3.7989 3.0583 6.8571 6.8571 6.8571h82.286c3.7989 0 6.8571-3.0583 6.8571-6.8571v-82.286c0-3.7989-3.0583-6.8571-6.8571-6.8571z" opacity=".15"/>
<path d="m96.544-13.916h-81c-3.7395 0-6.75 3.0105-6.75 6.75v81c0 3.7395 3.0105 6.75 6.75 6.75h81c3.7395 0 6.75-3.0105 6.75-6.75v-81c0-3.7395-3.0105-6.75-6.75-6.75z" opacity=".15"/>
<path d="m95.901-13.166h-79.714c-3.6801 0-6.6429 2.9627-6.6429 6.6429v79.714c0 3.6801 2.9627 6.6429 6.6429 6.6429h79.714c3.6801 0 6.6429-2.9627 6.6429-6.6429v-79.714c0-3.6801-2.9627-6.6429-6.6429-6.6429z" fill="url(#linearGradient3825)"/>
<rect x="13.837" y="-8.0546" width="84.846" height="77.52" ry="4.25" stroke="#fff" stroke-linecap="round" stroke-linejoin="round" stroke-width=".4"/>
<path d="m20.044 51.491-8 16.985h12l8-16.985zm24 0-8 16.985h12l8-16.985zm24 0-8 16.985h12l8-16.985zm24 0-8 16.985h12l8-16.985z" fill="url(#linearGradient4050-6)"/>
<path d="m98.044 59.983c0 3.5286-2.676 6.3693-6 6.3693h-7l-1 2.1231h8c3.324 0 6-2.8407 6-6.3693zm-83.344 2.8861-0.4375 0.89568c0.68553 2.7171 2.9995 4.7106 5.7812 4.7106h4l1-2.1231h-5c-2.3447 0-4.3557-1.4119-5.3438-3.4832zm22.344 3.4832-1 2.1231h12l1-2.1231zm24 0-1 2.1231h12l1-2.1231z" fill="#fff" opacity=".2"/>
<path d="m98.044 61.045c0 3.5286-2.676 6.3693-6 6.3693h-7.5l-0.5 1.0615h8c3.324 0 6-2.8407 6-6.3693zm-83.562 2.289-0.21875 0.43125c0.68553 2.7171 2.9995 4.7106 5.7812 4.7106h4l1-2.1231h-0.5l-0.5 1.0615h-4c-2.5614 0-4.7004-1.6913-5.5625-4.0803zm34.062 3.0188-0.5 1.0615h-11.5l-0.5 1.0615h12l1-2.1231zm24 0-0.5 1.0615h-11.5l-0.5 1.0615h12l1-2.1231z" fill="#fff" opacity=".3"/>
<path d="m81.7 0.56984c-6.3345 0.30184-11.192 5.5688-12 12.009l-5.6875 8.2933c-0.63241 0.13433-1.2298 0.34879-1.8125 0.59712l-25.188-11.378c-1.5655-4.0479-5.1583-7.0327-9.5625-7.0327-5.8285 0-10.562 5.097-10.562 11.279 0 6.1819 4.734 11.279 10.562 11.279 1.4623 0 2.7538-0.44702 3.9375-0.9952l25.031 11.378c1.6608 4.194 5.4704 7.1822 10 6.9664 4.9328-0.23505 8.7247-4.1502 9.6562-9.0563l7.4688-5.938c6.7676-0.71617 11.966-6.9177 11.656-14.231-0.3201-7.5699-6.3842-13.509-13.5-13.17z" color="#000000" enable-background="accumulate" opacity=".05"/>
<path d="m81.731 1.5982c-5.9696 0.28446-10.546 5.3077-11.156 11.445l-5.9688 8.7246c-0.89291 0.1483-1.7205 0.41296-2.5 0.79616l-25.781-11.644c-1.3265-3.9198-4.7242-6.8337-8.875-6.8337-5.2942 0-9.5938 4.6276-9.5938 10.251 0 5.6229 4.2995 10.251 9.5938 10.251 1.4579 0 2.795-0.45008 4-1.0615l25.625 11.644c1.4042 4.0682 5.0412 6.9709 9.3125 6.7673 4.6353-0.22088 8.1931-3.9913 8.875-8.6914l7.8438-6.2366c6.4369-0.4772 11.417-6.3369 11.125-13.236-0.2964-7.0097-5.916-12.488-12.5-12.175z" color="#000000" enable-background="accumulate" opacity=".1"/>
<path d="m81.794 2.9915c-5.5035 0.26225-9.7586 4.9714-10.062 10.715l-6.2812 9.2222c-1.2551 0.08669-2.4064 0.48763-3.4375 1.0947l-26.656-12.042c-0.97514-3.7241-4.1004-6.502-7.9062-6.502-4.581 0-8.2812 3.9794-8.2812 8.8573 0 4.8778 3.7003 8.8573 8.2812 8.8573 1.4634 0 2.8068-0.44881 4-1.1611l26.562 12.075c1.028 3.8649 4.395 6.6223 8.3125 6.4356 4.2076-0.20049 7.4637-3.7313 7.8125-8.0943l8.4688-6.7673c0.05768-1.31e-4 0.08964 0.0032 0.15625 0 5.8725-0.27983 10.421-5.5839 10.156-11.843-0.26478-6.2619-5.2523-11.127-11.125-10.848zm0.21875 5.1419c0.79246-0.037759 1.549 0.12749 2.25 0.39808-0.70553-0.2814-1.4524-0.40291-2.25-0.36491-0.79746 0.038003-1.5705 0.25012-2.25 0.59712-0.67947 0.347-1.28 0.8081-1.7812 1.3933 0.4932-0.57996 1.1088-1.0473 1.7812-1.3933 0.69062-0.35537 1.4309-0.59126 2.25-0.63029zm2.2812 0.39808c2.1264 0.83417 3.7036 2.9324 3.8125 5.5068 0.07296 1.7253-0.54542 3.3123-1.5625 4.4784 1.0025-1.1704 1.5718-2.7471 1.5-4.4452-0.10725-2.5362-1.6462-4.689-3.75-5.5399z" color="#000000" enable-background="accumulate" opacity=".15"/>
<path d="m81.826 3.908c-5.1962 0.2476-9.2401 4.792-9.3105 10.272l-6.5506 9.6364c-0.11028 6.7e-5 -0.22126-0.0053-0.33252 0-1.3385 0.06379-2.568 0.52227-3.6244 1.2354l-27.333-12.39c-0.71742-3.5694-3.6542-6.2478-7.2156-6.2478-4.0984 0-7.4151 3.5324-7.4151 7.9068 0 4.3744 3.3168 7.9421 7.4151 7.9421 1.4704 0 2.8381-0.47972 3.9902-1.2707l27.266 12.39c0.74341 3.7175 3.9054 6.4229 7.5814 6.2478 3.9274-0.18714 7.0014-3.5953 7.0826-7.7303l8.9114-7.1302c0.14459-1.19e-4 0.2864 7e-3 0.43227 0 5.3918-0.25693 9.5538-5.1522 9.3105-10.907-0.24335-5.755-4.8164-10.211-10.208-9.9541zm0.16626 3.2827c3.6916-0.17591 6.8162 2.8724 6.9828 6.8125 0.16661 3.9402-2.6928 7.272-6.3843 7.4479-3.6916 0.17591-6.8162-2.8724-6.9828-6.8125-0.16661-3.9402 2.6928-7.272 6.3843-7.4479zm-55.131 0.88245c0.19766-0.021422 0.39557 0 0.59853 0 2.4096 0 4.4769 1.5354 5.3868 3.7416l-3.7242-1.6943a4.2566 4.5186 0 0 0-2.0949-0.38828 4.2566 4.5186 0 0 0-1.2636 8.6833l3.8572 1.7649c-0.66654 0.28011-1.4023 0.42358-2.1614 0.42358-3.2473 0-5.8855-2.817-5.8855-6.2831 0-3.2494 2.3221-5.9264 5.287-6.2478zm55.198 1.0236c-2.7072 0.129-4.8107 2.5817-4.6885 5.4712 0.12218 2.8895 2.4136 5.1413 5.1208 5.0123s4.8107-2.5817 4.6885-5.4712c-0.12218-2.8895-2.4136-5.1413-5.1208-5.0123zm-16.36 16.343c3.2441-0.15458 6.0051 2.5381 6.1516 6.0007 0.14641 3.4626-2.3754 6.4109-5.6195 6.5654-2.5069 0.11946-4.7154-1.4545-5.6528-3.7769l3.6244 1.6237a4.2566 4.5186 0 1 0 3.3584-8.2951l-3.7242-1.6943c0.58172-0.2436 1.202-0.39212 1.8621-0.42358z" color="#000000" enable-background="accumulate" opacity=".3"/>
<path d="m81.826 2.8464c-5.1962 0.2476-9.2401 4.792-9.3105 10.272l-6.5506 9.6364c-0.11028 6.7e-5 -0.22126-0.0053-0.33252 0-1.3385 0.06379-2.568 0.52227-3.6244 1.2354l-27.333-12.39c-0.71742-3.5694-3.6542-6.2478-7.2156-6.2478-4.0984 0-7.4151 3.5324-7.4151 7.9068 0 4.3744 3.3168 7.9421 7.4151 7.9421 1.4704 0 2.8381-0.47972 3.9902-1.2707l27.266 12.39c0.74341 3.7175 3.9054 6.4229 7.5814 6.2478 3.9274-0.18714 7.0014-3.5953 7.0826-7.7303l8.9114-7.1302c0.14459-1.19e-4 0.2864 7e-3 0.43227 0 5.3918-0.25693 9.5538-5.1522 9.3105-10.907-0.24335-5.755-4.8164-10.211-10.208-9.9541zm0.16626 3.2827c3.6916-0.17591 6.8162 2.8724 6.9828 6.8125 0.16661 3.9402-2.6928 7.272-6.3843 7.4479-3.6916 0.17591-6.8162-2.8724-6.9828-6.8125-0.16661-3.9402 2.6928-7.272 6.3843-7.4479zm-55.131 0.88245c0.19766-0.021422 0.39557 0 0.59853 0 2.4096 0 4.4769 1.5354 5.3868 3.7416l-3.7242-1.6943a4.2566 4.5186 0 0 0-2.0949-0.38828 4.2566 4.5186 0 0 0-1.2636 8.6833l3.8572 1.7649c-0.66654 0.28011-1.4023 0.42358-2.1614 0.42358-3.2473 0-5.8855-2.817-5.8855-6.2831 0-3.2494 2.3221-5.9264 5.287-6.2478zm55.198 1.0236c-2.7072 0.129-4.8107 2.5817-4.6885 5.4712 0.12218 2.8895 2.4136 5.1413 5.1208 5.0123 2.7072-0.129 4.8107-2.5817 4.6885-5.4712-0.12218-2.8895-2.4136-5.1413-5.1208-5.0123zm-16.36 16.343c3.2441-0.15458 6.0051 2.5381 6.1516 6.0007 0.14641 3.4626-2.3754 6.4109-5.6195 6.5654-2.5069 0.11946-4.7154-1.4545-5.6528-3.7769l3.6244 1.6237a4.2566 4.5186 0 1 0 3.3584-8.2951l-3.7242-1.6943c0.58172-0.2436 1.202-0.39212 1.8621-0.42358z" color="#000000" enable-background="accumulate" fill="url(#linearGradient4052-5)"/>
<path d="m81.825 2.8588c-5.1962 0.2476-9.2421 4.7708-9.3125 10.251l-6.5625 9.6534c-0.11028 6.7e-5 -0.20124-0.0053-0.3125 0-1.3385 0.06379-2.5685 0.51425-3.625 1.2274l-27.344-12.374c-0.71742-3.5694-3.6573-6.2697-7.2188-6.2697-4.0984 0-7.4062 3.554-7.4062 7.9284 0 0.18242 0.0199 0.35135 0.03125 0.53077 0.25104-4.1304 3.4407-7.3976 7.375-7.3976 3.5614 0 6.5013 2.7003 7.2188 6.2697l27.344 12.374c1.0565-0.71316 2.2865-1.1636 3.625-1.2274 0.11126-0.0053 0.20222 6.7e-5 0.3125 0l6.5625-9.6534c0.07038-5.4797 4.1163-10.003 9.3125-10.251 5.3918-0.25693 9.9754 4.197 10.219 9.952 0.01843-0.35205 0.01521-0.70186 0-1.0615-0.24335-5.755-4.8269-10.209-10.219-9.952zm0.21875 5.175c-2.7072 0.129-4.8097 2.5841-4.6875 5.4736 0.0052 0.12364 0.01822 0.24374 0.03125 0.3649 0.21274-2.5753 2.171-4.6585 4.6562-4.7769 2.6229-0.12498 4.8774 1.9843 5.125 4.7438 0.02625-0.26133 0.01144-0.52562 0-0.79616-0.12218-2.8895-2.4178-5.1382-5.125-5.0092zm-55.031 0.63029a4.2566 4.5186 0 0 0-3.875 5.0755 4.2566 4.5186 0 0 1 3.875-4.014 4.2566 4.5186 0 0 1 2.0938 0.39808l3.75 1.6918c-0.21578-0.52324-0.50863-1.0234-0.84375-1.4596l-2.9062-1.2938a4.2566 4.5186 0 0 0-2.0938-0.39808zm48.594 5.0755c-0.02223 0.29593-0.01287 0.59131 0 0.89568 0.16661 3.9402 3.2772 6.9764 6.9688 6.8005 3.6916-0.17591 6.5729-3.4907 6.4062-7.4308-0.0029-0.06762-0.02666-0.13196-0.03125-0.19904-0.25223 3.5492-2.9588 6.4055-6.375 6.5683-3.6395 0.17343-6.7228-2.7752-6.9688-6.6347zm-54 0.16587c-0.0084 0.13689-0.03125 0.29212-0.03125 0.43125 0 3.466 2.6277 6.2697 5.875 6.2697 0.75901 0 1.4897-0.15114 2.1562-0.43125l-1.4688-0.66346c-0.22579 0.02648-0.4561 0.03317-0.6875 0.03317-3.0444 0-5.542-2.474-5.8438-5.6395zm43.75 11.577c-0.53201 0.05937-1.0522 0.16432-1.5312 0.36491l3.75 1.725a4.2566 4.5186 0 0 1 2.6875 3.6491 4.2566 4.5186 0 0 0-2.6875-4.7106zm6.4688 5.739c-0.25686 3.0855-2.6168 5.5971-5.5938 5.739-1.9276 0.09186-3.68-0.84116-4.8125-2.3221l-0.84375-0.39808c0.93736 2.3224 3.1494 3.9012 5.6562 3.7818 3.2441-0.15459 5.7714-3.1057 5.625-6.5683-0.0032-0.07606-0.02553-0.15691-0.03125-0.23221z" color="#000000" enable-background="accumulate" fill="#fff"/>
<path d="m81.981 5.0814c-3.6916 0.17591-6.5416 3.4907-6.375 7.4308 0.0023 0.05551-0.0035 0.11072 0 0.16587 0.26557-3.535 2.9686-6.3728 6.375-6.5351 3.6282-0.17289 6.7059 2.7597 6.9688 6.6015 0.02033-0.28605 0.04368-0.56863 0.03125-0.8625-0.16661-3.9402-3.3084-6.9764-7-6.8005zm-55.125 0.8625c-2.9649 0.32138-5.2812 3.0203-5.2812 6.2697 0 0.14841 0.02174 0.28539 0.03125 0.43125 0.26597-2.9727 2.4704-5.3382 5.25-5.6395 0.19766-0.021422 0.39079 0 0.59375 0 1.8381 0 3.4846 0.88579 4.5625 2.289l0.84375 0.39808c-0.90986-2.2062-2.9967-3.7486-5.4062-3.7486-0.20296 0-0.39609-0.021422-0.59375 0zm-3.7188 6.7342a4.2566 4.5186 0 0 0 2.625 4.6774l2.375 1.0947c0.51479-0.06037 1.0054-0.20337 1.4688-0.39808l-3.8438-1.7582a4.2566 4.5186 0 0 1-2.625-3.6159zm-3.0625 0.06635c-0.01047 0.17226-0.03125 0.35564-0.03125 0.53077 0 4.3744 3.3079 7.9284 7.4062 7.9284 1.4704 0 2.8479-0.46958 4-1.2606l27.25 12.374c0.74341 3.7175 3.9178 6.4117 7.5938 6.2366 3.9274-0.18714 7.0126-3.5944 7.0938-7.7294l8.9062-7.1322c0.14459-1.19e-4 0.29163 7e-3 0.4375 0 5.3918-0.25693 9.5558-5.1259 9.3125-10.881-0.27648 5.2807-4.2576 9.5784-9.3125 9.8193-0.14587 7e-3 -0.29291-1.19e-4 -0.4375 0l-8.9062 7.1322c-0.08115 4.135-3.1664 7.5422-7.0938 7.7294-3.676 0.17516-6.8503-2.519-7.5938-6.2366l-27.25-12.374c-1.1521 0.79101-2.5296 1.2606-4 1.2606-3.9275 0-7.1141-3.2748-7.375-7.3976zm67.094 0.03317c-0.25412 2.5298-2.2338 4.5605-4.6875 4.6774-2.5913 0.12348-4.8022-1.9337-5.0938-4.6443-0.01899 0.2299-0.04126 0.45983-0.03125 0.69664 0.12218 2.8895 2.4178 5.1382 5.125 5.0092 2.7072-0.129 4.8097-2.5841 4.6875-5.4736-0.0038-0.08995 8e-3 -0.17673 0-0.26539zm-21.469 10.549c-0.66012 0.03145-1.2933 0.15448-1.875 0.39808l1.5312 0.69664c0.11407-0.01273 0.2272-0.02762 0.34375-0.03317 3.1728-0.15119 5.8705 2.4197 6.125 5.7721 0.02305-0.27694 0.04331-0.54414 0.03125-0.82933-0.14641-3.4626-2.9121-6.1589-6.1562-6.0044zm4.5625 6.8669a4.2566 4.5186 0 0 1-6.0625 3.5495l-3.625-1.6255c0.2166 0.53666 0.50339 1.0146 0.84375 1.4596l2.7812 1.2274a4.2566 4.5186 0 0 0 6.0625-4.6111z" color="#000000" enable-background="accumulate" opacity=".1"/>
<path d="m16.187-13.166c-3.6801 0-6.6429 2.9627-6.6429 6.6429v16.607h1.1071v-16.607c0-3.0859 2.4498-5.5357 5.5357-5.5357h79.714c3.0859 0 5.5357 2.4498 5.5357 5.5357v16.607h1.1071v-16.607c0-3.6801-2.9627-6.6429-6.6429-6.6429z" fill="url(#radialGradient3827)" opacity=".45"/>
<path d="m9.544 67.178v6c0 3.6801 2.9761 6.6562 6.6562 6.6562h79.688c3.6801 0 6.6563-2.9761 6.6563-6.6562v-6c0 3.6801-2.9761 6.6562-6.6563 6.6562h-79.688c-3.6801 0-6.6562-2.9761-6.6562-6.6562z" fill="url(#linearGradient3829)" opacity=".89091"/>
<rect x="13.419" y="65.584" width="84.25" height="4.25" rx="0" ry="4.25" fill="url(#radialGradient3831)" opacity=".55"/>
<rect transform="rotate(90)" x="-9.9156" y="-98.669" width="76.75" height="4.25" rx="0" ry="4.25" fill="url(#radialGradient3833)" opacity=".55"/>
<g transform="translate(251.29 -104.9)">
<g display="none">
<rect x="5" y="7" width="86" height="85" rx="6" ry="6" fill="url(#ButtonShadow)" filter="url(#filter3174-3)" opacity=".9"/>
</g>
</g>
<rect transform="matrix(.9093 0 0 .92838 12.389 19.829)" x="2" y="-30" width="92" height="92" rx="3.957" ry="3.957" clip-path="url(#clipPath4156-4)" fill="url(#linearGradient3837)"/>
<path d="m17.869-9.9361c-3.1166 0-5.668 2.5395-5.668 5.646v69.278c0 3.1065 2.5513 5.646 5.668 5.646h76.792c3.1166 0 5.668-2.5395 5.668-5.646v-69.278c0-3.1065-2.5513-5.646-5.668-5.646h-76.792zm0 2.3194h76.792c1.8881 0 3.352 1.4801 3.352 3.3266v69.278c0 1.8465-1.4639 3.3266-3.352 3.3266h-76.792c-1.8881 0-3.352-1.4801-3.352-3.3266v-69.278c0-1.8465 1.4639-3.3266 3.352-3.3266z" color="#000000" enable-background="accumulate" fill="#3f3f3f" fill-opacity=".91748" style="block-progression:tb;text-indent:0;text-transform:none"/>
</g>
</g>
<g display="none">
<rect x="5" y="7" width="86" height="85" rx="6" ry="6" fill="url(#ButtonShadow)" filter="url(#filter3174-36)" opacity=".9"/>
</g>
<g display="none">
<rect x="5" y="7" width="86" height="85" rx="6" ry="6" fill="url(#ButtonShadow)" filter="url(#filter3174-4)" opacity=".9"/>
</g>
<g display="none">
<rect x="5" y="7" width="86" height="85" rx="6" ry="6" fill="url(#ButtonShadow)" filter="url(#filter3174)" opacity=".9"/>
<rect x="15" y="15" width="66" height="66" rx="12" ry="12" clip-path="url(#clipPath3613)" fill="url(#linearGradient3613)" filter="url(#filter3794)" opacity=".1" stroke="#fff" stroke-linecap="round" stroke-width=".5"/>
</g>
<g transform="translate(-173.26 12.601)"></g>
</svg>
