<?xml version="1.0" encoding="UTF-8"?>
<!-- Generator: Adobe Illustrator 12.0.0, SVG Export Plug-In . SVG Version: 6.00 Build 51448)  -->
<svg enable-background="new 0 0 128 128" overflow="visible" version="1.1" viewBox="0 0 96 96" xml:space="preserve" xmlns="http://www.w3.org/2000/svg" xmlns:cc="http://creativecommons.org/ns#" xmlns:dc="http://purl.org/dc/elements/1.1/" xmlns:rdf="http://www.w3.org/1999/02/22-rdf-syntax-ns#" xmlns:xlink="http://www.w3.org/1999/xlink"><defs><linearGradient id="linearGradient3749"><stop stop-color="#989898" offset="0"/><stop stop-color="#616161" offset=".375"/><stop stop-color="#1a1a1a" offset="1"/></linearGradient><linearGradient id="ButtonShadow" x1="45.448" x2="45.448" y1="92.54" y2="7.0165" gradientTransform="scale(1.0059 .99417)" gradientUnits="userSpaceOnUse"><stop offset="0"/><stop stop-opacity=".58824" offset="1"/></linearGradient><linearGradient id="linearGradient3737"><stop stop-color="#fff" offset="0"/><stop stop-color="#fff" stop-opacity="0" offset="1"/></linearGradient><filter id="filter3174" color-interpolation-filters="sRGB"><feGaussianBlur stdDeviation="1.71"/></filter><linearGradient id="linearGradient3878-4" x1="48" x2="48" y1="90" y2="5.9877" gradientUnits="userSpaceOnUse" xlink:href="#linearGradient3700-0"/><linearGradient id="linearGradient3700-0"><stop stop-color="#70a83e" offset="0"/><stop stop-color="#9fd058" offset="1"/></linearGradient><filter id="filter3174-4" color-interpolation-filters="sRGB"><feGaussianBlur stdDeviation="1.71"/></filter><linearGradient id="linearGradient4375" x1="45.448" x2="45.448" y1="92.54" y2="7.0165" gradientTransform="scale(1.0059 .99417)" gradientUnits="userSpaceOnUse" xlink:href="#ButtonShadow"/><clipPath><rect x="6" y="6" width="84" height="84" rx="6" ry="6" fill="url(#linearGradient3878-4)"/></clipPath><linearGradient id="linearGradient4071" x1="6" x2="90" y1="47" y2="47" gradientTransform="matrix(1.106 0 0 1.1071 171.3 -98.316)" gradientUnits="userSpaceOnUse"><stop stop-color="#b2babc" offset="0"/><stop stop-color="#fff" offset=".25"/><stop stop-color="#96a1a4" offset=".5"/><stop stop-color="#fbf9f9" offset=".75"/><stop stop-color="#b2b9bc" offset="1"/></linearGradient><linearGradient id="linearGradient4129" x1="1.5" x2="94.5" y1="88.172" y2="88.172" gradientTransform="matrix(.99896 0 0 1 176.43 -94.281)" gradientUnits="userSpaceOnUse"><stop offset="0"/><stop stop-opacity=".58824" offset=".1"/><stop stop-opacity=".58824" offset=".9"/><stop offset="1"/></linearGradient><radialGradient id="radialGradient7462" cx="13.948" cy="44.893" r="43.199" gradientTransform="matrix(.97412 0 0 .049191 210.3 -14.114)" gradientUnits="userSpaceOnUse" xlink:href="#linearGradient3737"/><radialGradient id="radialGradient7464" cx="13.948" cy="44.893" r="43.199" gradientTransform="matrix(.88833 0 0 .049139 -62.736 -266.51)" gradientUnits="userSpaceOnUse" xlink:href="#linearGradient3737"/><radialGradient id="radialGradient2000-0" cx="199.88" cy="-38.904" r="16.141" gradientTransform="matrix(.60951 1.1414 -.88212 .47103 43.735 -248.73)" gradientUnits="userSpaceOnUse" xlink:href="#linearGradient3749"/><radialGradient id="radialGradient2015" cx="30.403" cy="55.011" r="13.929" gradientTransform="matrix(1 0 0 .57583 0 23.334)" gradientUnits="userSpaceOnUse" xlink:href="#linearGradient3737"/><filter id="filter2029" x="-.03782" y="-.065679" width="1.0756" height="1.1314" color-interpolation-filters="sRGB"><feGaussianBlur stdDeviation="0.43898438"/></filter><linearGradient id="linearGradient2145" x1="12.915" x2="48.198" y1="13.988" y2="49.746" gradientUnits="userSpaceOnUse"><stop stop-color="#fff" offset="0"/><stop stop-color="#fff" stop-opacity="0" offset="1"/></linearGradient></defs><metadata><rdf:RDF><cc:Work rdf:about=""><dc:format>image/svg+xml</dc:format><dc:type rdf:resource="http://purl.org/dc/dcmitype/StillImage"/><dc:title/><dc:date>2016</dc:date><dc:creator><cc:Agent><dc:title>Cristian Pozzessere &lt; ilnanny &gt;</dc:title></cc:Agent></dc:creator><dc:subject><rdf:Bag><rdf:li>ilnanny</rdf:li><rdf:li>inkscape</rdf:li><rdf:li>vectorart</rdf:li><rdf:li>svg</rdf:li></rdf:Bag></dc:subject><dc:coverage>Italy</dc:coverage><dc:description>..when I have nothing to do, I scribble and have fun with inkscape.</dc:description></cc:Work></rdf:RDF></metadata><g transform="translate(0 -.20883)"><g display="none"><rect x="5" y="7" width="86" height="85" rx="6" ry="6" fill="url(#linearGradient4375)" filter="url(#filter3174)" opacity=".9"/></g><g transform="translate(-2.5986e-7 80.209)"><g transform="matrix(1.0034 0 0 1.005 33.489 -38.527)"><g transform="matrix(.97179 0 0 .97179 .40799 .18323)"><g transform="matrix(1.0255 0 0 1.024 -214.16 55.247)"><g display="none"><rect x="5" y="7" width="86" height="85" rx="6" ry="6" fill="url(#linearGradient4375)" filter="url(#filter3174-4)" opacity=".9"/></g><g transform="matrix(.99981 0 0 .91759 174.94 -94.856)" fill="url(#linearGradient3878-4)"><rect x="6" y="6" width="84" height="84" rx="6" ry="6" display="none"/><rect x="6" y="6" width="84" height="84" rx="6" ry="6" display="none"/></g><g transform="translate(-1.4975 -1.331)"><path d="m265.36-94.031h-81.857c-3.7791 0-6.8214 3.0424-6.8214 6.8214v81.857c0 3.7791 3.0424 6.8214 6.8214 6.8214h81.857c3.7791 0 6.8214-3.0424 6.8214-6.8214v-81.857c0-3.7791-3.0424-6.8214-6.8214-6.8214z" opacity=".1335"/><path d="m264.72-93.284h-80.578c-3.72 0-6.7148 2.9948-6.7148 6.7148v80.578c0 3.72 2.9948 6.7148 6.7148 6.7148h80.578c3.72 0 6.7148-2.9948 6.7148-6.7148v-80.578c0-3.72-2.9948-6.7148-6.7148-6.7148z" opacity=".1335"/><path d="m264.08-92.538h-79.299c-3.661 0-6.6083 2.9473-6.6083 6.6083v79.299c0 3.661 2.9473 6.6083 6.6083 6.6083h79.299c3.661 0 6.6083-2.9473 6.6083-6.6083v-79.299c0-3.661-2.9473-6.6083-6.6083-6.6083z" fill="url(#linearGradient4071)" opacity=".89"/><rect x="182.37" y="-87.761" width="84.558" height="77.021" rx="2.3669" ry="2.998" fill="#d5d8e4" fill-opacity=".9717"/><path d="m186.46-89.326c-3.1004 0-5.6384 2.5263-5.6384 5.6166v68.917c0 3.0903 2.5381 5.6166 5.6384 5.6166h76.392c3.1004 0 5.6384-2.5263 5.6384-5.6166v-68.917c0-3.0903-2.5381-5.6166-5.6384-5.6166zm0 2.3074h76.392c1.8783 0 3.3346 1.4724 3.3346 3.3092v68.917c0 1.8369-1.4563 3.3092-3.3346 3.3092h-76.392c-1.8783 0-3.3346-1.4724-3.3346-3.3092v-68.917c0-1.8369 1.4563-3.3092 3.3346-3.3092z" color="#000000" enable-background="accumulate" fill="#202223" fill-opacity=".99623" style="text-decoration-line:none;text-indent:0;text-transform:none"/><path d="m178.17-12.613v5.9687c0 3.661 2.9606 6.6216 6.6216 6.6216h79.272c3.661 0 6.6216-2.9606 6.6216-6.6216v-5.9687c0 3.661-2.9606 6.6216-6.6216 6.6216h-79.272c-3.661 0-6.6216-2.9606-6.6216-6.6216z" fill="url(#linearGradient4129)" opacity=".58578"/><rect x="182.03" y="-14.199" width="83.811" height="4.2279" rx="4.25" ry="4.25" fill="url(#radialGradient7462)" opacity=".4895"/><rect transform="rotate(90)" x="-88.5" y="-266.3" width="76.35" height="4.2279" rx="4.2456" ry="4.2456" fill="url(#radialGradient7464)" opacity=".59541"/><g transform="matrix(.68833 -.39741 .39741 .68833 70.418 71.543)"><circle cx="205.34" cy="-32.48" r="16.141" fill="url(#radialGradient2000-0)" style="paint-order:stroke fill markers"/><path transform="translate(174.94 -95.612)" d="m30.402 46.99a16.141 16.141 0 0 0-13.928 8.0156 16.141 16.141 0 0 0 13.928 8.0254 16.141 16.141 0 0 0 13.93-8.0176 16.141 16.141 0 0 0-13.93-8.0234z" fill="url(#radialGradient2015)" filter="url(#filter2029)" opacity=".429" style="paint-order:stroke fill markers"/><circle cx="205.34" cy="-32.48" r="16.141" fill="#198aff" fill-opacity=".17358" style="paint-order:stroke fill markers"/></g><g transform="matrix(.68833 -.39741 .39741 .68833 95.949 56.802)"><circle cx="205.34" cy="-32.48" r="16.141" fill="url(#radialGradient2000-0)" style="paint-order:stroke fill markers"/><path transform="translate(174.94 -95.612)" d="m30.402 46.99a16.141 16.141 0 0 0-13.928 8.0156 16.141 16.141 0 0 0 13.928 8.0254 16.141 16.141 0 0 0 13.93-8.0176 16.141 16.141 0 0 0-13.93-8.0234z" fill="url(#radialGradient2015)" filter="url(#filter2029)" opacity=".429" style="paint-order:stroke fill markers"/><circle cx="205.34" cy="-32.48" r="16.141" fill="#5de4ff" fill-opacity=".26038" style="paint-order:stroke fill markers"/></g><g transform="matrix(-.68833 -.39741 -.39741 .68833 378.57 41.821)"><circle cx="205.34" cy="-32.48" r="16.141" fill="url(#radialGradient2000-0)" style="paint-order:stroke fill markers"/><path transform="translate(174.94 -95.612)" d="m30.402 46.99a16.141 16.141 0 0 0-13.928 8.0156 16.141 16.141 0 0 0 13.928 8.0254 16.141 16.141 0 0 0 13.93-8.0176 16.141 16.141 0 0 0-13.93-8.0234z" fill="url(#radialGradient2015)" filter="url(#filter2029)" opacity=".429" style="paint-order:stroke fill markers"/><circle cx="205.34" cy="-32.48" r="16.141" fill="#ffb519" fill-opacity=".17358" style="paint-order:stroke fill markers"/></g><path transform="translate(174.94 -95.612)" d="m11.521 8.5938c-1.8783 0-3.334 1.4717-3.334 3.3086v7.8262l14.838 11.996 11.047-11.023-9.8418-12.107zm17.678 0 7.1855 9.793 9.6953-9.793zm20.578 3.7188-10.361 10.123 9.5137 12.984 8.2773-7.873zm-12.578 12.277-10.426 10.188 12.316 9.9629 8.1133-7.7129-9.2207-11.475zm-29.012 0.64258v18.621l1.9023 0.98242 0.06641-0.06445-0.13086-0.0625 10.459-10.479zm50.484 5.2695-7.8516 7.5215 6.582 8.9023 6.1895-6.3965zm-34.244 6.5898-10.166 9.8984 14.531 7.4883 8.4395-8.002zm24.795 2.4746-7.5586 7.2305 8.8945 7.1992 5.7031-5.9141-0.06641-0.0957-0.09766 0.12891zm-9.2852 8.9023-7.9824 7.6484 11.012 5.6895c1.4865-1.3768 6.0377-6.3828 6.2246-6.5898z" fill="url(#linearGradient2145)" opacity=".6"/></g></g></g></g></g></g></svg>
