<?xml version="1.0" encoding="UTF-8"?>
<!-- Created with Inkscape (http://www.inkscape.org/) -->
<svg version="1.1" viewBox="0 0 96 96" xmlns="http://www.w3.org/2000/svg" xmlns:cc="http://creativecommons.org/ns#" xmlns:dc="http://purl.org/dc/elements/1.1/" xmlns:rdf="http://www.w3.org/1999/02/22-rdf-syntax-ns#" xmlns:xlink="http://www.w3.org/1999/xlink">
<script xlink:href=""/>
<defs>
<linearGradient id="linearGradient12946">
<stop stop-color="#fff" offset="0"/>
<stop stop-color="#fff" stop-opacity="0" offset="1"/>
</linearGradient>
<linearGradient id="ButtonShadow-4" x1="45.448" x2="45.448" y1="92.54" y2="7.0165" gradientTransform="scale(1.0059 .99417)" gradientUnits="userSpaceOnUse">
<stop offset="0"/>
<stop stop-opacity=".58824" offset="1"/>
</linearGradient>
<filter id="filter3174-98" color-interpolation-filters="sRGB">
<feGaussianBlur stdDeviation="1.71"/>
</filter>
<filter id="filter3174-0" color-interpolation-filters="sRGB">
<feGaussianBlur stdDeviation="1.71"/>
</filter>
<filter id="filter3174-9-1" color-interpolation-filters="sRGB">
<feGaussianBlur stdDeviation="1.71"/>
</filter>
<linearGradient id="linearGradient8474" x1="45.448" x2="45.448" y1="92.54" y2="7.0165" gradientTransform="scale(1.0059 .99417)" gradientUnits="userSpaceOnUse" xlink:href="#ButtonShadow-4"/>
<filter id="filter3174-1-76" color-interpolation-filters="sRGB">
<feGaussianBlur stdDeviation="1.71"/>
</filter>
<filter id="filter3174-28" color-interpolation-filters="sRGB">
<feGaussianBlur stdDeviation="1.71"/>
</filter>
<linearGradient id="linearGradient8478" x1="48" x2="48" y1="20.221" y2="138.66" gradientUnits="userSpaceOnUse">
<stop stop-color="#fff" offset="0"/>
<stop stop-color="#fff" stop-opacity="0" offset="1"/>
</linearGradient>
<clipPath id="clipPath3613-01">
<rect x="6" y="6" width="84" height="84" rx="6" ry="6" fill="#fff"/>
</clipPath>
<filter id="filter3794-71" x="-.192" y="-.192" width="1.384" height="1.384" color-interpolation-filters="sRGB">
<feGaussianBlur stdDeviation="5.28"/>
</filter>
<linearGradient id="linearGradient4071" x1="6" x2="90" y1="47" y2="47" gradientTransform="matrix(1.1071 0 0 1.1071 -4.9939 -3.6207)" gradientUnits="userSpaceOnUse">
<stop stop-color="#b2babc" offset="0"/>
<stop stop-color="#fff" offset=".25"/>
<stop stop-color="#96a1a4" offset=".5"/>
<stop stop-color="#fbf9f9" offset=".75"/>
<stop stop-color="#b2b9bc" offset="1"/>
</linearGradient>
<linearGradient id="linearGradient4129" x1="1.5" x2="94.5" y1="88.172" y2="88.172" gradientTransform="translate(.14895 .41503)" gradientUnits="userSpaceOnUse">
<stop offset="0"/>
<stop stop-opacity=".58824" offset=".1"/>
<stop stop-opacity=".58824" offset=".9"/>
<stop offset="1"/>
</linearGradient>
<radialGradient id="radialGradient7462" cx="13.948" cy="44.893" r="43.199" gradientTransform="matrix(.97513 0 0 .049191 34.048 80.582)" gradientUnits="userSpaceOnUse" xlink:href="#linearGradient12946"/>
<radialGradient id="radialGradient7464" cx="13.948" cy="44.893" r="43.199" gradientTransform="matrix(.88833 0 0 .049191 31.96 -90.317)" gradientUnits="userSpaceOnUse" xlink:href="#linearGradient12946"/>
<linearGradient id="linearGradient4767" x1="2.7714" x2="50.528" y1="-28.642" y2="14.514" gradientUnits="userSpaceOnUse" xlink:href="#linearGradient12946"/>
<clipPath id="clipPath4156-4-1">
<path d="m27.046-55.695-14.214 13.321h0.06127l15.653 21.771 10.231-10.546c-0.2169-1.1522-11.311-23.67-11.732-24.546zm-17.399 16.313-14.888 14.062 21.229 17.515 10.385-10.577zm31.491 12.951-9.7413 9.7136 8.9448 12.458 7.7808-7.555zm-49.84 4.3788-13.754 12.982 26.283 13.846 0.06127-0.0617-0.12253-0.0617 9.8332-10.053-22.301-16.652zm38.015 7.4008-9.8025 9.7753 11.579 9.5594 7.6276-7.4008-8.6691-11.009zm20.187 5.674-7.3825 7.2158 6.1878 8.5418 5.8202-6.1365zm-32.195 6.3215-9.5575 9.4977 13.662 7.185 7.9339-7.6784zm23.312 2.3744-7.1068 6.9383 8.3628 6.9074 5.3608-5.674-0.06127-0.0925-0.0919 0.12335-6.4635-8.2026zm-8.7304 8.5418-7.5051 7.3392 10.354 5.4581c1.3975-1.321 5.6751-6.1229 5.8509-6.3215z" fill="#fff" opacity=".6"/>
</clipPath>
<filter id="filter3174-94-5-8" color-interpolation-filters="sRGB">
<feGaussianBlur stdDeviation="1.71"/>
</filter>
</defs>
<metadata>
<rdf:RDF>
<cc:Work rdf:about="">
<dc:format>image/svg+xml</dc:format>
<dc:type rdf:resource="http://purl.org/dc/dcmitype/StillImage"/>
<dc:title/>
</cc:Work>
</rdf:RDF>
</metadata>
<g transform="translate(0,32)">
<g transform="matrix(.97513 0 0 .97661 33.899 9.6574)">
<g transform="matrix(1.1354 0 0 1.1337 -200.22 -50.694)">
<g transform="matrix(.90323 0 0 .90323 23.387 .64184)">
<g transform="translate(199.08 40.101)">
<g display="none">
<rect x="5" y="7" width="86" height="85" rx="6" ry="6" fill="url(#ButtonShadow-4)" filter="url(#filter3174-98)" opacity=".9"/>
</g>
<g transform="translate(115.54 .85219)" display="none">
<rect x="5" y="7" width="86" height="85" rx="6" ry="6" fill="url(#ButtonShadow-4)" filter="url(#filter3174-0)" opacity=".9"/>
</g>
<g transform="translate(235.43 .85219)" display="none">
<rect x="5" y="7" width="86" height="85" rx="6" ry="6" fill="url(#ButtonShadow-4)" filter="url(#filter3174-9-1)" opacity=".9"/>
</g>
<g transform="matrix(.95833 0 0 .94792 252.01 5.1359)" display="none">
<rect x="5" y="7" width="86" height="85" rx="6" ry="6" fill="url(#linearGradient8474)" filter="url(#filter3174-1-76)" opacity=".9"/>
</g>
<g transform="matrix(1.0222 0 0 1.0111 248.67 2.1302)" display="none">
<rect x="5" y="7" width="86" height="85" rx="6" ry="6" fill="url(#ButtonShadow-4)" filter="url(#filter3174-28)" opacity=".9"/>
<rect x="15" y="15" width="66" height="66" rx="12" ry="12" clip-path="url(#clipPath3613-01)" fill="url(#linearGradient8478)" filter="url(#filter3794-71)" opacity=".1" stroke="#fff" stroke-linecap="round" stroke-width=".5"/>
</g>
</g>
</g>
<g transform="matrix(.90323 0 0 .90323 145.59 6.7159)">
<path d="m89.292 0.41503h-82.286c-3.7988 0-6.8571 3.0583-6.8571 6.8571v82.286c0 3.7989 3.0583 6.8571 6.8571 6.8571h82.286c3.7989 0 6.8571-3.0583 6.8571-6.8571v-82.286c0-3.7989-3.0583-6.8571-6.8571-6.8571z" opacity=".15"/>
<path d="m88.649 1.165h-81c-3.7395 0-6.75 3.0105-6.75 6.75v81c0 3.7395 3.0105 6.75 6.75 6.75h81c3.7395 0 6.75-3.0105 6.75-6.75v-81c0-3.7395-3.0105-6.75-6.75-6.75z" opacity=".15"/>
<path d="m88.006 1.915h-79.714c-3.6801 0-6.6429 2.9627-6.6429 6.6429v79.714c0 3.6801 2.9627 6.6429 6.6429 6.6429h79.714c3.6801 0 6.6429-2.9627 6.6429-6.6429v-79.714c0-3.6801-2.9627-6.6429-6.6429-6.6429z" fill="url(#linearGradient4071)"/>
<path d="m11.39 6.8022c-2.8565 0-5.1241 2.2884-5.1241 5.171v68.58c1.0972 1.6845 2.9688 2.8117 5.1241 2.8117h73.787c2.1553 0 4.0269-1.1272 5.1241-2.8117v-68.58c0-2.8826-2.2676-5.171-5.1241-5.171z" fill="#f5f3f3" opacity=".77865"/>
<g transform="matrix(.93031 0 0 .93031 301.07 112.94)">
<g display="none">
<rect x="5" y="7" width="86" height="85" rx="6" ry="6" fill="url(#linearGradient8474)" filter="url(#filter3174-94-5-8)" opacity=".9"/>
</g>
<g transform="translate(-323.56 -15.993)">
<path d="m51.697-74.631c-9.974 0-18.059 8.0456-18.059 18.059 0 0-0.11972 1.6964 0.39906 3.6119h27.734c-0.74873 2.0914-2.0917 3.9678-3.9152 5.2203-4.1954 3.3122-10.549 2.1078-14.123-1.6084h-8.5853c2.788 6.3754 9.1464 10.836 16.55 10.836 9.974 0 18.059-8.0855 18.059-18.059 0 0 0-1.856-0.35916-3.6119h-27.746c1.5613-3.9464 5.2895-7.1443 9.6223-7.1815 0.21682-0.01045 0.43282-0.01144 0.64901-7e-3 2.9045 0.0589 5.7228 1.4363 7.6823 3.5766h8.6417c-2.788-6.3754-9.1464-10.836-16.55-10.836zm-4.1066-23.941v9.4516c-13.444 1.6755-24.36 11.484-27.671 24.347h8.5055c3.4882-9.2847 12.724-16.526 22.818-16.458 0.24474-0.0065 0.49252-0.0095 0.73682-8e-3 3.6646 0.02185 7.2667 0.93169 10.532 2.5629 5.8811 2.6474 10.248 7.8794 12.382 13.904h8.5696c-3.3108-12.863-14.227-22.672-27.671-24.347v-9.4516zm-27.671 50.201c3.3108 12.863 14.227 22.672 27.671 24.347v9.4516h8.2012v-9.4516c13.444-1.6755 24.36-11.484 27.671-24.347h-8.4495c-3.3154 9.7804-13.563 16.814-23.923 16.45-10.087 0.05097-19.238-7.1549-22.649-16.45z" fill="#1de9ce"/>
<path d="m47.597-98.572v9.4375c-13.444 1.6755-24.377 11.512-27.688 24.375h8.5c3.4882-9.2847 12.75-16.536 22.844-16.469 0.24474-0.0065 0.47445-0.0015 0.71875 0 3.6646 0.02185 7.2662 0.93132 10.531 2.5625 5.8811 2.6474 10.241 7.882 12.375 13.906h8.5938c-3.3108-12.863-14.244-22.699-27.688-24.375v-9.4375h-1.9062v9.4375a1.9057 1.9057 0 0 0 1.6562 1.9062c11.808 1.4716 21.492 9.6467 25.281 20.562h-4.75c-2.427-5.8907-6.7731-11.02-12.719-13.719-0.02081-0.01039-0.04167-0.02091-0.0625-0.03125-3.4965-1.7355-7.3637-2.6952-11.312-2.7188-0.20758-0.0013-0.44775-0.0054-0.71875 0-0.02356 4.72e-4 -0.03832-6.42e-4 -0.0625 0-10.52-0.04192-19.916 7.089-24 16.469h-4.625c3.7894-10.916 13.474-19.091 25.281-20.562a1.9057 1.9057 0 0 0 1.6562-1.9062v-9.4375zm4.0938 23.938c-9.974 0-18.062 8.0486-18.062 18.062 0 0-0.11253 1.7095 0.40625 3.625h27.75c-0.74873 2.0914-2.1139 3.9662-3.9375 5.2188-4.1954 3.3122-10.551 2.0913-14.125-1.625h-8.5625c2.788 6.3754 9.1278 10.844 16.531 10.844 9.974 0 18.062-8.0885 18.062-18.062 0 0 0.01541-1.8691-0.34375-3.625h-27.75c1.5613-3.9464 5.2922-7.1191 9.625-7.1562 0.21682-0.01045 0.40881-0.03569 0.625-0.03125 2.9045 0.0589 5.7279 1.4534 7.6875 3.5938h8.6562c-2.788-6.3754-9.159-10.844-16.562-10.844zm0 1.9062c5.5087 0 10.24 2.835 13.156 7.0312h-4.6875c-2.2326-2.0816-5.0894-3.5303-8.2188-3.5938-0.35532-0.0073-0.55565 0.02181-0.6875 0.03125-0.01196 8.57e-4 -0.05223-4.95e-4 -0.0625 0-5.2246 0.0746-9.5051 3.8065-11.312 8.375a1.9057 1.9057 0 0 0 1.7812 2.5938h26.031c0.04408 0.66918 0.15625 1.6875 0.15625 1.6875a1.9057 1.9057 0 0 0 0 0.03125c0 8.9438-7.2125 16.156-16.156 16.156-5.5087 0-10.215-2.8333-13.125-7.0312h4.5938c4.2651 3.8012 10.96 5.0074 15.781 1.2812 0.03102-0.0213 0.06297-0.04092 0.09375-0.0625v-0.03125c2.1321-1.5012 3.6714-3.6295 4.5312-6.0312a1.9057 1.9057 0 0 0-1.7812-2.5625h-26.062c-0.04228-0.61431-0.1875-1.5938-0.1875-1.5938a1.9057 1.9057 0 0 0 0-0.125c0-8.9878 7.2074-16.156 16.156-16.156zm-31.781 24.344c3.3108 12.863 14.244 22.699 27.688 24.375v9.4375h1.9688v-1.9062h-0.0625v-7.5312a1.9057 1.9057 0 0 0-1.6562-1.9062c-11.808-1.4716-21.492-9.6467-25.281-20.562h4.6562c4.0057 9.3874 13.305 16.493 23.812 16.469 0.021-4.9e-5 0.04149 1.06e-4 0.0625 0 10.772 0.34968 21.132-6.5493 25.156-16.469h4.5625c-3.7894 10.916-13.474 19.091-25.281 20.562a1.9057 1.9057 0 0 0-1.6562 1.9062v7.5312h-0.0625v1.9062h1.9688v-9.4375c13.444-1.6755 24.377-11.512 27.688-24.375h-8.4688c-3.3154 9.7804-13.546 16.832-23.906 16.469-10.087 0.05097-19.245-7.1733-22.656-16.469z" opacity=".1"/>
<path d="m47.597-98.572v9.4375c-13.444 1.6755-24.377 11.512-27.688 24.375h8.5c3.4882-9.2847 12.75-16.536 22.844-16.469 0.24474-0.0065 0.47445-0.0015 0.71875 0 3.6646 0.02185 7.2662 0.93132 10.531 2.5625 5.8811 2.6474 10.241 7.882 12.375 13.906h8.5938c-3.3108-12.863-14.244-22.699-27.688-24.375v-9.4375h-1.0938v1.0625h0.03125v8.375a1.0672 1.0672 0 0 0 0.9375 1.0625c12.522 1.5606 22.708 10.487 26.312 22.25h-6.4375c-2.3064-5.949-6.6404-11.138-12.562-13.812-0.0083-0.0037-0.02297 0.0037-0.03125 0-3.3969-1.6923-7.1417-2.6334-10.969-2.6562-0.2241-0.0014-0.456-6e-3 -0.71875 0-0.01142 2.63e-4 -0.01971-3.07e-4 -0.03125 0-10.339-0.05453-19.67 7.1236-23.5 16.469h-6.3125c3.6047-11.763 13.791-20.689 26.312-22.25a1.0672 1.0672 0 0 0 0.9375-1.0625v-8.375h0.03125v-1.0625zm4.0938 23.938c-9.974 0-18.062 8.0486-18.062 18.062 0 0-0.11253 1.7095 0.40625 3.625h27.75c-0.74873 2.0914-2.1139 3.9662-3.9375 5.2188-4.1954 3.3122-10.551 2.0913-14.125-1.625h-8.5625c2.788 6.3754 9.1278 10.844 16.531 10.844 9.974 0 18.062-8.0885 18.062-18.062 0 0 0.01541-1.8691-0.34375-3.625h-27.75c1.5613-3.9464 5.2922-7.1191 9.625-7.1562 0.21682-0.01045 0.40881-0.03569 0.625-0.03125 2.9045 0.0589 5.7279 1.4534 7.6875 3.5938h8.6562c-2.788-6.3754-9.159-10.844-16.562-10.844zm0 1.0625c6.339 0 11.733 3.5828 14.656 8.7188h-6.4375c-2.1204-2.1061-4.9352-3.5322-7.9688-3.5938-0.28506-0.0059-0.49671 0.0208-0.65625 0.03125-0.01516 9.93e-4 -0.04822-6.88e-4 -0.0625 0-4.8204 0.07122-8.8667 3.5261-10.562 7.8125a1.0672 1.0672 0 0 0 1 1.4688h26.781c0.13825 1.188 0.25 2.5625 0.25 2.5625 0 9.3971-7.6029 17-17 17-6.339 0-11.706-3.5812-14.625-8.7188h6.3125c3.9678 3.7726 10.506 4.981 15.062 1.4375 0.01855-0.01274 0.04404-0.0184 0.0625-0.03125v-0.03125c1.9909-1.3921 3.4719-3.3956 4.2812-5.6562a1.0672 1.0672 0 0 0-1-1.4375h-26.812c-0.17996-1.191-0.28125-2.5-0.28125-2.5a1.0672 1.0672 0 0 0 0-0.0625c0-9.4393 7.6001-17 17-17zm-31.781 25.188c3.3108 12.863 14.244 22.699 27.688 24.375v9.4375h1.0938v-1.0625h-0.03125v-8.375a1.0672 1.0672 0 0 0-0.9375-1.0625c-12.522-1.5606-22.708-10.487-26.312-22.25h6.3438c3.7518 9.354 12.984 16.506 23.312 16.469 0.01053-3.8e-5 0.02072 5.3e-5 0.03125 0 10.593 0.357 20.868-6.6062 24.594-16.469h6.2812c-3.6047 11.763-13.791 20.689-26.312 22.25a1.0672 1.0672 0 0 0-0.9375 1.0625v8.375h-0.03125v1.0625h1.0938v-9.4375c13.444-1.6755 24.377-11.512 27.688-24.375h-8.4688c-3.3154 9.7804-13.546 16.832-23.906 16.469-10.087 0.05097-19.245-7.1733-22.656-16.469z" opacity=".15"/>
<path d="m47.597-89.134c-13.444 1.6755-24.377 11.512-27.688 24.375h0.3125c3.6108-12.363 14.286-21.744 27.375-23.375zm8.1875 0v1c13.089 1.6313 23.764 11.012 27.375 23.375h0.3125c-3.3108-12.863-14.244-22.699-27.688-24.375zm-4.0938 14.5c-9.974 0-18.062 8.0486-18.062 18.062 0 0-0.0224 0.43211 0 1 0-10.014 8.0885-18.062 18.062-18.062 7.0145 0 13.103 4.0006 16.094 9.8438h0.46875c-2.788-6.3754-9.159-10.844-16.562-10.844zm-9.5625 14.438c-0.16828 0.33149-0.33246 0.6555-0.46875 1h27.75c0.25718 1.2573 0.29176 2.327 0.3125 2.9688 0.0022-0.11593 0.03125-0.22729 0.03125-0.34375 0 0 0.01541-1.8691-0.34375-3.625zm19.219 8.25c-0.78637 1.6737-1.9804 3.175-3.5 4.2188-4.1954 3.3122-10.551 2.0913-14.125-1.625h-8.5625c0.14646 0.3349 0.30295 0.67603 0.46875 1h8.0938c3.5738 3.7163 9.9296 4.9372 14.125 1.625 1.8236-1.2525 3.1888-3.1273 3.9375-5.2188zm-41.438 3.5625c0.08736 0.33943 0.21464 0.66492 0.3125 1h8.2188c3.4117 9.2955 12.569 16.52 22.656 16.469 10.36 0.3633 20.591-6.6884 23.906-16.469h8.1562c0.09786-0.33508 0.22514-0.66057 0.3125-1h-8.4688c-3.3154 9.7804-13.546 16.832-23.906 16.469-10.087 0.05097-19.245-7.1733-22.656-16.469z" opacity=".3"/>
<path d="m51.253-81.228c-10.094-0.0676-19.356 7.184-22.844 16.469h-8.1875c-0.09786 0.33508-0.22514 0.66057-0.3125 1h8.5c3.4882-9.2847 12.75-16.536 22.844-16.469 0.24474-0.0065 0.47445-0.0015 0.71875 0 3.6646 0.02185 7.2662 0.93132 10.531 2.5625 5.8811 2.6474 10.241 7.882 12.375 13.906h8.5938c-0.08736-0.33943-0.21464-0.66492-0.3125-1h-8.2812c-2.1339-6.0242-6.4939-11.259-12.375-13.906-3.2651-1.6312-6.8667-2.5406-10.531-2.5625-0.2443-0.0015-0.47401-0.0065-0.71875 0zm0.65625 13.844c-0.21619-0.0044-0.40818 0.0208-0.625 0.03125-4.3328 0.03713-8.0637 3.2099-9.625 7.1562h0.46875c1.7594-3.4658 5.2017-6.1224 9.1562-6.1562 0.21682-0.01045 0.40881-0.03569 0.625-0.03125 2.9045 0.0589 5.7279 1.4534 7.6875 3.5938h8.6562c-0.14646-0.33491-0.30295-0.67603-0.46875-1h-8.1875c-1.9596-2.1404-4.783-3.5348-7.6875-3.5938zm17.812 11.156c-0.18578 9.8131-8.1737 17.719-18.031 17.719-7.0145 0-13.072-4.0006-16.062-9.8438h-0.46875c2.788 6.3754 9.1278 10.844 16.531 10.844 9.974 0 18.062-8.0885 18.062-18.062 0 0-0.02303-0.40176-0.03125-0.65625zm-36.094 0.75c-0.0085 0.13658-0.0903 1.6978 0.40625 3.5312h27.312c0.15727-0.33473 0.31271-0.65143 0.4375-1h-27.75c-0.25939-0.95775-0.37133-1.8677-0.40625-2.5312zm-13.719 8.0938c3.3108 12.863 14.244 22.699 27.688 24.375v-1c-13.089-1.6313-23.764-11.012-27.375-23.375zm63.25 0c-2.9212 10.002-10.467 18.052-20.173 21.626-2.2911 0.84352-4.7026 1.4376-7.2021 1.7492v1c13.444-1.6755 24.377-11.512 27.688-24.375z" fill="#fff" opacity=".3"/>
</g>
</g>
<path d="m9.7531 5.1445c-3.1166 0-5.668 2.5395-5.668 5.646v69.278c0 3.1065 2.5513 5.646 5.668 5.646h76.792c3.1166 0 5.668-2.5395 5.668-5.646v-69.278c0-3.1065-2.5513-5.646-5.668-5.646zm0 2.3194h76.792c1.8881 0 3.352 1.4801 3.352 3.3266v69.278c0 1.8465-1.4639 3.3266-3.352 3.3266h-76.792c-1.8881 0-3.352-1.4801-3.352-3.3266v-69.278c0-1.8465 1.4639-3.3266 3.352-3.3266z" color="#000000" fill="#241f1f" fill-opacity=".63265" style="text-decoration-line:none;text-indent:0;text-transform:none"/>
<path d="m1.649 82.259v6c0 3.6801 2.9761 6.6562 6.6562 6.6562h79.687c3.6801 0 6.6563-2.9761 6.6563-6.6562v-6c0 3.6801-2.9761 6.6562-6.6563 6.6562h-79.687c-3.6801 0-6.6562-2.9761-6.6562-6.6562z" fill="url(#linearGradient4129)" opacity=".65818"/>
<rect x="5.524" y="80.665" width="84.25" height="4.25" rx="0" ry="4.25" fill="url(#radialGradient7462)" opacity=".55"/>
<rect transform="rotate(90)" x="5.975" y="-90.234" width="76.75" height="4.25" rx="0" ry="4.25" fill="url(#radialGradient7464)" opacity=".669"/>
<rect transform="matrix(1.0692 0 0 1.0477 4.4442 38.894)" x="2" y="-30" width="75.966" height="69.024" rx="3.957" ry="3.957" clip-path="url(#clipPath4156-4-1)" fill="url(#linearGradient4767)" opacity=".603"/>
</g>
</g>
</g>
</g>
</svg>
