<?xml version="1.0" encoding="UTF-8"?>
<svg version="1.1" viewBox="0 0 96 96" xmlns="http://www.w3.org/2000/svg" xmlns:cc="http://creativecommons.org/ns#" xmlns:dc="http://purl.org/dc/elements/1.1/" xmlns:rdf="http://www.w3.org/1999/02/22-rdf-syntax-ns#" xmlns:xlink="http://www.w3.org/1999/xlink">
<script xlink:href=""/>
<defs>
<linearGradient id="linearGradient5747">
<stop stop-color="#fff" offset="0"/>
<stop stop-color="#fff" stop-opacity="0" offset="1"/>
</linearGradient>
<linearGradient id="linearGradient3804-6-1" x1="20.759" x2="20.759" y1="1" y2="45.017" gradientTransform="matrix(1.4003 0 0 1.3982 -35.072 -36.384)" gradientUnits="userSpaceOnUse" xlink:href="#linearGradient3309"/>
<linearGradient id="linearGradient3309" x1="64" x2="64" y1="3.1001" y2="122.9" gradientUnits="userSpaceOnUse">
<stop stop-color="#f6f6f6" offset="0"/>
<stop stop-color="#d2d2d2" offset="1"/>
</linearGradient>
<linearGradient id="linearGradient3806-9-9" x1="37.201" x2="37.201" y1="1" y2="45" gradientTransform="matrix(1.4003 0 0 1.3982 -35.072 -36.384)" gradientUnits="userSpaceOnUse" xlink:href="#linearGradient3309"/>
<linearGradient id="linearGradient3801-4-2" x1="86.133" x2="84.639" y1="105.1" y2="20.895" gradientTransform="matrix(.45438 0 0 .4537 -30.544 -32.808)" gradientUnits="userSpaceOnUse" xlink:href="#linearGradient3309"/>
<linearGradient id="linearGradient4071" x1="6" x2="90" y1="47" y2="47" gradientTransform="matrix(1.1002 0 0 1.1013 -5.2103 -3.3482)" gradientUnits="userSpaceOnUse">
<stop stop-color="#b2babc" offset="0"/>
<stop stop-color="#fff" offset=".25"/>
<stop stop-color="#96a1a4" offset=".5"/>
<stop stop-color="#fbf9f9" offset=".75"/>
<stop stop-color="#b2b9bc" offset="1"/>
</linearGradient>
<linearGradient id="linearGradient4129" x1="1.5" x2="94.5" y1="88.172" y2="88.172" gradientTransform="matrix(.99373 0 0 .99476 -.099739 .66636)" gradientUnits="userSpaceOnUse">
<stop offset="0"/>
<stop stop-opacity=".58824" offset=".1"/>
<stop stop-opacity=".58824" offset=".9"/>
<stop offset="1"/>
</linearGradient>
<radialGradient id="radialGradient7462" cx="13.948" cy="44.893" r="43.199" gradientTransform="matrix(.96902 0 0 .048933 33.586 80.413)" gradientUnits="userSpaceOnUse" xlink:href="#linearGradient5747"/>
<radialGradient id="radialGradient7464" cx="13.948" cy="44.893" r="43.199" gradientTransform="matrix(.88368 0 0 .048882 32.046 -89.503)" gradientUnits="userSpaceOnUse" xlink:href="#linearGradient5747"/>
<linearGradient id="linearGradient4767" x1="2.7714" x2="50.528" y1="-28.642" y2="14.514" gradientTransform="matrix(1.0042 0 0 1.0052 -.21821 -.047555)" gradientUnits="userSpaceOnUse" xlink:href="#linearGradient5747"/>
<clipPath id="clipPath4156-4-1">
<path d="m27.046-55.695-14.214 13.321h0.06127l15.653 21.771 10.231-10.546c-0.2169-1.1522-11.311-23.67-11.732-24.546zm-17.399 16.313-14.888 14.062 21.229 17.515 10.385-10.577zm31.491 12.951-9.7413 9.7136 8.9448 12.458 7.7808-7.555zm-49.84 4.3788-13.754 12.982 26.283 13.846 0.06127-0.0617-0.12253-0.0617 9.8332-10.053-22.301-16.652zm38.015 7.4008-9.8025 9.7753 11.579 9.5594 7.6276-7.4008-8.6691-11.009zm20.187 5.674-7.3825 7.2158 6.1878 8.5418 5.8202-6.1365zm-32.195 6.3215-9.5575 9.4977 13.662 7.185 7.9339-7.6784zm23.312 2.3744-7.1068 6.9383 8.3628 6.9074 5.3608-5.674-0.06127-0.0925-0.0919 0.12335-6.4635-8.2026zm-8.7304 8.5418-7.5051 7.3392 10.354 5.4581c1.3975-1.321 5.6751-6.1229 5.8509-6.3215z" fill="#fff" opacity=".6"/>
</clipPath>
</defs>
<metadata>
<rdf:RDF>
<cc:Work rdf:about="">
<dc:format>image/svg+xml</dc:format>
<dc:type rdf:resource="http://purl.org/dc/dcmitype/StillImage"/>
<dc:title/>
<dc:date>2016</dc:date>
<dc:creator>
<cc:Agent>
<dc:title>Cristian Pozzessere  &lt; ilnanny &gt;</dc:title>
</cc:Agent>
</dc:creator>
<dc:subject>
<rdf:Bag>
<rdf:li>ilnanny</rdf:li>
</rdf:Bag>
</dc:subject>
<dc:description>Playing with Inkscape on Gnu/Linux O. S.</dc:description>
<dc:contributor>
<cc:Agent>
<dc:title>In the night, alone like a dog.</dc:title>
</cc:Agent>
</dc:contributor>
<cc:license rdf:resource="http://creativecommons.org/licenses/by-sa/4.0/"/>
</cc:Work>
<cc:License rdf:about="http://creativecommons.org/licenses/by-sa/4.0/">
<cc:permits rdf:resource="http://creativecommons.org/ns#Reproduction"/>
<cc:permits rdf:resource="http://creativecommons.org/ns#Distribution"/>
<cc:requires rdf:resource="http://creativecommons.org/ns#Notice"/>
<cc:requires rdf:resource="http://creativecommons.org/ns#Attribution"/>
<cc:permits rdf:resource="http://creativecommons.org/ns#DerivativeWorks"/>
<cc:requires rdf:resource="http://creativecommons.org/ns#ShareAlike"/>
</cc:License>
</rdf:RDF>
</metadata>
<g transform="translate(0,32)">
<g transform="matrix(1.0034 0 0 1.005 33.489 9.4732)">
<g transform="matrix(.99657 0 0 .99507 -33.025 -41.682)">
<path d="m88.363 0.91503h-81.429c-3.7593 0-6.7857 3.0264-6.7857 6.7857v81.429c0 3.7593 3.0264 6.7857 6.7857 6.7857h81.429c3.7593 0 6.7857-3.0264 6.7857-6.7857v-81.429c0-3.7593-3.0264-6.7857-6.7857-6.7857z" opacity=".15"/>
<path d="m87.727 1.6572h-80.156c-3.7005 0-6.6797 2.9791-6.6797 6.6797v80.156c0 3.7005 2.9791 6.6797 6.6797 6.6797h80.156c3.7005 0 6.6797-2.9791 6.6797-6.6797v-80.156c0-3.7005-2.9791-6.6797-6.6797-6.6797z" opacity=".15"/>
<path d="m87.091 2.3994h-78.884c-3.6418 0-6.5737 2.9319-6.5737 6.5737v78.884c0 3.6418 2.9319 6.5737 6.5737 6.5737h78.884c3.6418 0 6.5737-2.9318 6.5737-6.5737v-78.884c0-3.6418-2.9318-6.5737-6.5737-6.5737z" fill="url(#linearGradient4071)"/>
<rect x="5.81" y="7.1515" width="84.115" height="76.618" rx="2.3545" ry="2.9823" fill="#b80707" fill-opacity=".9717"/>
<path d="m46.155 7.7348v36.792h-39.654v2.9873h39.654v36.559h2.9873v-36.559h39.654v-2.9873h-39.654v-36.792zm-29.29 5.9651v4.4109l8.3826 3.9641-8.3826 3.9793v4.3957l13.575-6.6939v-3.3962zm38.77 0v4.4109l8.3826 3.9641-8.3826 3.9793v4.3957l13.575-6.6939v-3.3962zm-26.407 11.928v3.1558h6.6087v-3.1558zm38.77 0v3.1558h6.6087v-3.1558zm-51.134 26.842v4.4109l8.3826 3.9641-8.3826 3.9793v4.3957l13.575-6.6939v-3.3962zm38.77 0v4.4109l8.3826 3.9641-8.3826 3.9793v4.3957l13.575-6.6939v-3.3962zm-26.407 11.928v3.1558h6.6087v-3.1558zm38.77 0v3.1558h6.6087v-3.1558z" fill="#ebebeb" fill-opacity=".96106" stroke="#6b5555" stroke-width=".31946"/>
<path d="m9.8717 5.5952c-3.0842 0-5.6089 2.5131-5.6089 5.5872v68.556c0 3.0741 2.5248 5.5872 5.6089 5.5872h75.992c3.0842 0 5.6089-2.5131 5.6089-5.5872v-68.556c0-3.0741-2.5248-5.5872-5.6089-5.5872zm0 2.2953h75.992c1.8684 0 3.3171 1.4647 3.3171 3.2919v68.556c0 1.8272-1.4487 3.2919-3.3171 3.2919h-75.992c-1.8684 0-3.3171-1.4647-3.3171-3.2919v-68.556c0-1.8272 1.4487-3.2919 3.3171-3.2919z" color="#000000" fill="#202223" fill-opacity=".93689" style="text-decoration-line:none;text-indent:0;text-transform:none"/>
<path d="m1.6333 81.906v5.9375c0 3.6418 2.9451 6.5869 6.5869 6.5869h78.857c3.6418 0 6.5869-2.9451 6.5869-6.5869v-5.9375c0 3.6418-2.9451 6.5869-6.5869 6.5869h-78.857c-3.6418 0-6.5869-2.9451-6.5869-6.5869z" fill="url(#linearGradient4129)" opacity=".65818"/>
<rect x="5.468" y="80.329" width="83.372" height="4.2057" rx="4.2277" ry="4.2277" fill="url(#radialGradient7462)" opacity=".55"/>
<rect transform="rotate(90)" x="6.4171" y="-89.296" width="75.951" height="4.2057" rx="4.2233" ry="4.2233" fill="url(#radialGradient7464)" opacity=".669"/>
<rect transform="matrix(1.0581 0 0 1.0368 4.3994 38.993)" x="2" y="-30" width="75.966" height="69.024" rx="3.9736" ry="3.9777" clip-path="url(#clipPath4156-4-1)" fill="url(#linearGradient4767)" opacity=".65"/>
</g>
<g transform="matrix(.86924 0 0 .86924 16.516 6.9376)" stroke-width="1.0676">
<path d="m10.551-25.248c-3.1089 0-5.5762 2.6026-5.5762 5.6317v1.5359c-0.41405 0.1603-0.81142 0.36272-1.2178 0.54398l-1.1216-1.12c-0.90757-0.9062-2.268-1.682-3.9097-1.6959-1.4338-0.01223-2.8784 0.53817-3.9738 1.6319l-5.5441 5.5358c-2.2026 2.1993-2.0554 5.7551 0.0641 7.8716l1.1216 1.12c-0.18152 0.40575-0.38425 0.80252-0.54479 1.2159h-1.5382c-3.0337 0-5.6402 2.4636-5.6402 5.5678v7.8076c0 3.1042 2.6065 5.5678 5.6402 5.5678h1.5382c0.16054 0.41343 0.36327 0.8102 0.54479 1.216l-1.1216 1.12c-2.1197 2.1165-2.2669 5.6724-0.0641 7.8717l5.5441 5.5358c2.2025 2.1992 5.7638 2.0526 7.8835-0.064l1.1216-1.12c0.40636 0.18125 0.80373 0.38368 1.2178 0.54398v1.5359c0 3.0291 2.4673 5.6318 5.5762 5.6318h7.8194c3.1089 0 5.5762-2.6026 5.5762-5.6318v-1.5359c0.41404-0.1603 0.81141-0.36273 1.2178-0.54398l1.1216 1.12c2.1198 2.1166 5.681 2.2632 7.8835 0.064l5.5441-5.5358c2.2026-2.1993 2.0554-5.7551-0.0641-7.8717l-1.1216-1.12c0.18152-0.40575 0.38426-0.80252 0.5448-1.216h1.5382c3.0337 0 5.6402-2.4636 5.6402-5.5678v-7.8076c0-3.1042-2.6066-5.5678-5.6402-5.5678h-1.5382c-0.16054-0.41342-0.36328-0.8102-0.5448-1.2159l1.1216-1.12c2.1197-2.1165 2.2669-5.6724 0.0641-7.8716l-5.5441-5.5358c-2.2025-2.1992-5.7638-2.0526-7.8835 0.064l-1.1216 1.12c-0.40637-0.18125-0.80374-0.38368-1.2178-0.54398v-1.5359c0-3.0291-2.4673-5.6317-5.5762-5.6317zm3.9097 26.815c2.7864 0 4.9352 2.1456 4.9352 4.9278s-2.1488 4.9278-4.9352 4.9278c-2.7864 0-4.9352-2.1456-4.9352-4.9278s2.1489-4.9278 4.9352-4.9278z" display="block" fill-opacity=".33486"/>
<path d="m10.551-22.176c-1.3968 0-2.4997 1.1649-2.4997 2.5599v3.5838c-1.7617 0.5027-3.4345 1.2365-4.9993 2.1119l-2.5958-2.5599c-0.46792-0.46721-1.0579-0.79427-1.7305-0.79996-0.64578-0.0055-1.2951 0.23718-1.7946 0.73597l-5.5441 5.5358c-0.98512 0.98365-0.91546 2.5417 0.0641 3.5198l2.5638 2.5919c-0.87674 1.5625-1.6116 3.2328-2.1151 4.9918h-3.5892c-1.3971 0-2.5638 1.1012-2.5638 2.4959v7.8076c0 1.3947 1.1666 2.4959 2.5638 2.4959h3.5892c0.50347 1.759 1.2384 3.4293 2.1151 4.9918l-2.5638 2.5919c-0.97965 0.97818-1.0493 2.5362-0.0641 3.5198l5.5441 5.5358c0.98512 0.98364 2.5455 0.91419 3.5252-0.064l2.5958-2.5599c1.5648 0.87543 3.2376 1.6092 4.9993 2.1119v3.5838c0 1.395 1.1029 2.5599 2.4997 2.5599h7.8194c1.3968 0 2.4996-1.1649 2.4996-2.5599v-3.5838c1.7617-0.50271 3.4345-1.2365 4.9993-2.1119l2.5958 2.5599c0.97966 0.97819 2.54 1.0476 3.5252 0.064l5.5441-5.5358c0.98512-0.98365 0.91546-2.5416-0.0641-3.5198l-2.5638-2.5919c0.87674-1.5625 1.6116-3.2328 2.1151-4.9918h3.5892c1.3971 0 2.5638-1.1012 2.5638-2.4959v-7.8076c0-1.3947-1.1666-2.4959-2.5638-2.4959h-3.5892c-0.50347-1.759-1.2384-3.4293-2.1151-4.9918l2.5638-2.5919c0.97965-0.97818 1.0493-2.5362 0.0641-3.5198l-5.5441-5.5358c-0.98512-0.98364-2.5455-0.91419-3.5252 0.064l-2.5958 2.5599c-1.5648-0.87542-3.2376-1.6092-4.9993-2.1119v-3.5838c0-1.395-1.1029-2.5599-2.4996-2.5599zm3.9097 20.671c4.4262 0 8.0117 3.5801 8.0117 7.9996 0 4.4195-3.5855 7.9996-8.0117 7.9996-4.4262 0-8.0117-3.5801-8.0117-7.9996 0-4.4195 3.5856-7.9996 8.0117-7.9996z" display="block" opacity=".3"/>
<path d="m10.567-22.688c-1.1099 0-2.0085 0.91929-2.0085 2.0464v3.97c-1.9845 0.52795-3.8807 1.3254-5.6156 2.3329l-2.8283-2.824c-0.3991-0.3985-0.87718-0.60956-1.3937-0.61392-0.51647-0.0044-1.0423 0.1812-1.4346 0.573l-5.5337 5.5253c-0.78477 0.7836-0.7572 2.0271 0.0409 2.824l2.8283 2.824c-1.009 1.7323-1.8077 3.6257-2.3364 5.6072h-3.976c-1.1288 0-2.0495 0.89731-2.0495 2.0055v7.7764c0 1.1082 0.92068 2.0055 2.0495 2.0055h3.976c0.52876 1.9815 1.3274 3.8748 2.3364 5.6072l-2.8283 2.8241c-0.79819 0.797-0.82577 2.0404-0.0409 2.824l5.5337 5.5253c0.78477 0.7836 2.0301 0.75606 2.8283-0.0409l2.8283-2.824c1.735 1.0075 3.6311 1.805 5.6156 2.3329v3.97c0 1.1271 0.89867 2.0464 2.0085 2.0464h7.7881c1.1098 0 2.0085-0.91929 2.0085-2.0464v-3.97c1.9845-0.52795 3.8807-1.3254 5.6156-2.3329l2.8283 2.824c0.79819 0.79699 2.0435 0.82453 2.8283 0.0409l5.5337-5.5253c0.78477-0.7836 0.7572-2.027-0.0409-2.824l-2.8283-2.8241c1.009-1.7323 1.8077-3.6257 2.3364-5.6072h3.976c1.1288 0 2.0495-0.8973 2.0495-2.0055v-7.7764c0-1.1082-0.92068-2.0055-2.0495-2.0055h-3.976c-0.52874-1.9815-1.3274-3.8748-2.3364-5.6072l2.8283-2.824c0.7982-0.797 0.82578-2.0404 0.0409-2.824l-5.5336-5.5253c-0.78479-0.7836-2.0301-0.75607-2.8283 0.04093l-2.8283 2.824c-1.735-1.0075-3.6311-1.805-5.6156-2.3329v-3.97c0-1.1271-0.89866-2.0464-2.0085-2.0464zm3.894 19.646c4.7063 0 8.5259 3.8139 8.5259 8.5131s-3.8196 8.5131-8.5259 8.5131c-4.7063 0-8.5259-3.8139-8.5259-8.5131s3.8196-8.5131 8.5259-8.5131z" display="block" fill="url(#linearGradient3804-6-1)" stroke="url(#linearGradient3806-9-9)" stroke-linejoin="round" stroke-width="1.094"/>
<path d="m14.461-12.21c-9.764 0-17.708 7.9317-17.708 17.681 0 9.7493 7.9437 17.681 17.708 17.681 9.764 0 17.708-7.9317 17.708-17.681 0-9.7493-7.9437-17.681-17.708-17.681z" fill="none" stroke="url(#linearGradient3801-4-2)" stroke-width="2.188"/>
<path d="m14.461-11.556c-9.4026 0-17.052 7.6378-17.052 17.026 0 9.3884 7.6493 17.026 17.052 17.026 9.4026-1e-5 17.052-7.6378 17.052-17.026 0-9.3884-7.6493-17.026-17.052-17.026zm0 7.8582c5.0683 0 9.1818 4.1072 9.1818 9.1679s-4.1134 9.1679-9.1818 9.1679c-5.0683 0-9.1818-4.1072-9.1818-9.1679s4.1134-9.1679 9.1818-9.1679z" fill-opacity=".22936"/>
</g>
</g>
</g>
</svg>
