<?xml version="1.0" encoding="UTF-8"?>
<!-- Created with Inkscape (http://www.inkscape.org/) -->
<svg version="1.0" viewBox="0 0 96 96" xmlns="http://www.w3.org/2000/svg" xmlns:cc="http://creativecommons.org/ns#" xmlns:dc="http://purl.org/dc/elements/1.1/" xmlns:rdf="http://www.w3.org/1999/02/22-rdf-syntax-ns#" xmlns:xlink="http://www.w3.org/1999/xlink">
<defs>
<linearGradient id="ButtonShadow" x1="45.448" x2="45.448" y1="92.54" y2="7.0165" gradientTransform="scale(1.0059 .99417)" gradientUnits="userSpaceOnUse">
<stop offset="0"/>
<stop stop-opacity=".58824" offset="1"/>
</linearGradient>
<filter id="filter3174" color-interpolation-filters="sRGB">
<feGaussianBlur stdDeviation="1.71"/>
</filter>
<linearGradient id="linearGradient8265-821-176-38-919-66-249-7-7-6-5-0">
<stop stop-color="#fff" offset="0"/>
<stop stop-color="#fff" stop-opacity="0" offset="1"/>
</linearGradient>
<filter id="filter3174-36" color-interpolation-filters="sRGB">
<feGaussianBlur stdDeviation="1.71"/>
</filter>
<filter id="filter3174-3" color-interpolation-filters="sRGB">
<feGaussianBlur stdDeviation="1.71"/>
</filter>
<linearGradient id="linearGradient4767" x1="2.7714" x2="50.528" y1="-28.642" y2="14.514" gradientUnits="userSpaceOnUse">
<stop stop-color="#fff" offset="0"/>
<stop stop-color="#fff" stop-opacity="0" offset="1"/>
</linearGradient>
<filter id="filter3174-5" color-interpolation-filters="sRGB">
<feGaussianBlur stdDeviation="1.71"/>
</filter>
<clipPath id="clipPath4156-4-1-7">
<path d="m27.046-55.695-14.214 13.321h0.06127l15.653 21.771 10.231-10.546c-0.2169-1.1522-11.311-23.67-11.732-24.546zm-17.399 16.313-14.888 14.062 21.229 17.515 10.385-10.577zm31.491 12.951-9.7413 9.7136 8.9448 12.458 7.7808-7.555zm-49.84 4.3788-13.754 12.982 26.283 13.846 0.06127-0.0617-0.12253-0.0617 9.8332-10.053-22.301-16.652zm38.015 7.4008-9.8025 9.7753 11.579 9.5594 7.6276-7.4008-8.6691-11.009zm20.187 5.674-7.3825 7.2158 6.1878 8.5418 5.8202-6.1365zm-32.195 6.3215-9.5575 9.4977 13.662 7.185 7.9339-7.6784zm23.312 2.3744-7.1068 6.9383 8.3628 6.9074 5.3608-5.674-0.06127-0.0925-0.0919 0.12335-6.4635-8.2026zm-8.7304 8.5418-7.5051 7.3392 10.354 5.4581c1.3975-1.321 5.6751-6.1229 5.8509-6.3215z" fill="#fff" opacity=".6"/>
</clipPath>
<radialGradient id="radialGradient7464-0" cx="13.948" cy="44.893" r="43.199" gradientTransform="matrix(.71168 0 0 .039409 30.012 -76.572)" gradientUnits="userSpaceOnUse" xlink:href="#linearGradient8265-821-176-38-919-66-249-7-7-6-5-0"/>
<radialGradient id="radialGradient7462-0" cx="13.948" cy="44.893" r="43.199" gradientTransform="matrix(.78123 0 0 .039409 31.491 68.966)" gradientUnits="userSpaceOnUse" xlink:href="#linearGradient8265-821-176-38-919-66-249-7-7-6-5-0"/>
<linearGradient id="linearGradient4129-2" x1="1.5" x2="94.5" y1="88.172" y2="88.172" gradientTransform="matrix(.80115 0 0 .80115 4.3334 4.7406)" gradientUnits="userSpaceOnUse">
<stop offset="0"/>
<stop stop-opacity=".58824" offset=".1"/>
<stop stop-opacity=".58824" offset=".9"/>
<stop offset="1"/>
</linearGradient>
<linearGradient id="linearGradient4071-3" x1="6" x2="90" y1="47" y2="47" gradientTransform="matrix(.88699 0 0 .88699 .21325 1.5073)" gradientUnits="userSpaceOnUse">
<stop stop-color="#b2babc" offset="0"/>
<stop stop-color="#fff" offset=".25"/>
<stop stop-color="#96a1a4" offset=".5"/>
<stop stop-color="#fbf9f9" offset=".75"/>
<stop stop-color="#b2b9bc" offset="1"/>
</linearGradient>
</defs>
<metadata>
<rdf:RDF>
<cc:Work rdf:about="">
<dc:format>image/svg+xml</dc:format>
<dc:type rdf:resource="http://purl.org/dc/dcmitype/StillImage"/>
<dc:title/>
<cc:license rdf:resource="http://creativecommons.org/licenses/by-sa/4.0/"/>
</cc:Work>
<cc:License rdf:about="http://creativecommons.org/licenses/by-sa/4.0/">
<cc:permits rdf:resource="http://creativecommons.org/ns#Reproduction"/>
<cc:permits rdf:resource="http://creativecommons.org/ns#Distribution"/>
<cc:requires rdf:resource="http://creativecommons.org/ns#Notice"/>
<cc:requires rdf:resource="http://creativecommons.org/ns#Attribution"/>
<cc:permits rdf:resource="http://creativecommons.org/ns#DerivativeWorks"/>
<cc:requires rdf:resource="http://creativecommons.org/ns#ShareAlike"/>
</cc:License>
</rdf:RDF>
</metadata>
<g transform="translate(-1e-6,32)">
<g transform="translate(-8.044 -17.334)">
<g transform="translate(251.29 -104.9)">
<g display="none">
<rect x="5" y="7" width="86" height="85" rx="6" ry="6" fill="url(#ButtonShadow)" filter="url(#filter3174-3)" opacity=".9"/>
</g>
</g>
<g transform="translate(8.044 -14.666)">
<g transform="matrix(1.2417 0 0 1.2417 -5.1309 -5.6363)">
<path d="m75.75 4.7406h-65.923c-3.0434 0-5.4936 2.4501-5.4936 5.4936v65.923c0 3.0434 2.4502 5.4936 5.4936 5.4936h65.923c3.0434 0 5.4936-2.4501 5.4936-5.4936v-65.923c0-3.0434-2.4502-5.4936-5.4936-5.4936z" opacity=".15"/>
<path d="m75.235 5.3414h-64.893c-2.9959 0-5.4078 2.4119-5.4078 5.4078v64.893c0 2.9959 2.4119 5.4078 5.4078 5.4078h64.893c2.9959 0 5.4078-2.4119 5.4078-5.4078v-64.893c0-2.9959-2.4119-5.4078-5.4078-5.4078z" opacity=".15"/>
<path d="m74.72 5.9423h-63.863c-2.9483 0-5.3219 2.3736-5.3219 5.3219v63.863c0 2.9483 2.3736 5.3219 5.3219 5.3219h63.863c2.9483 0 5.3219-2.3736 5.3219-5.3219v-63.863c0-2.9483-2.3736-5.3219-5.3219-5.3219z" fill="url(#linearGradient4071-3)"/>
<path d="m13.339 9.8576c-2.2885 0-4.1052 1.8333-4.1052 4.1428v54.943c0.87906 1.3495 2.3785 2.2526 4.1052 2.2526h59.115c1.7267 0 3.2261-0.9031 4.1052-2.2526v-54.943c0-2.3094-1.8167-4.1428-4.1052-4.1428z" fill="#de5a34" opacity=".98"/>
<path d="m41.879 17.921c-9.2713 0-16.787 7.0808-16.787 15.816 0 2.174 0.46275 4.2357 1.305 6.1212-1.3769 1.4484-2.581 3.0532-3.5739 4.7751-2.03-1.2487-4.4518-1.9917-7.057-1.9917-2.2666 0-4.3956 0.55182-6.248 1.517v24.551c0 1.3938 1.1724 2.5107 2.6851 2.5107h61.523c1.5126 0 2.6851-1.1169 2.6851-2.5107v-48.711c-17.531 0.45169-20.01 1.6439-21.911 3.3407-3.0769-3.3078-7.583-5.4179-12.621-5.4179z" color="#000000" fill="#fff" fill-opacity=".94561"/>
<path d="m29.833 26.345v25.313c0 6.2191 4.6024 13.807 13.807 13.807 9.2048 0 18.41-2.3012 18.41-2.3012v-36.819h-11.506v27.615h-9.2048v-18.41h-6.9037l6.9037-9.2049z" fill="#de5a34"/>
<path d="m5.5352 70.31v4.8069c0 2.9483 2.3843 5.3326 5.3326 5.3326h63.842c2.9483 0 5.3326-2.3843 5.3326-5.3326v-4.8069c0 2.9483-2.3843 5.3326-5.3326 5.3326h-63.842c-2.9483 0-5.3326-2.3843-5.3326-5.3326z" fill="url(#linearGradient4129-2)" opacity=".65818"/>
<rect x="8.6396" y="69.033" width="67.497" height="3.4049" rx="0" ry="3.4049" fill="url(#radialGradient7462-0)" opacity=".55"/>
<rect transform="rotate(90)" x="9.1949" y="-76.505" width="61.488" height="3.4049" rx="0" ry="3.4049" fill="url(#radialGradient7464-0)" opacity=".669"/>
<rect transform="matrix(.85662 0 0 .83935 7.7746 35.568)" x="2" y="-30" width="75.966" height="69.024" rx="3.957" ry="3.957" clip-path="url(#clipPath4156-4-1-7)" fill="url(#linearGradient4767)" opacity=".65"/>
<path d="m12.205 8.5296c-2.4969 0-4.5409 2.0345-4.5409 4.5233v55.502c0 2.4888 2.044 4.5233 4.5409 4.5233h61.522c2.4969 0 4.5409-2.0345 4.5409-4.5233v-55.502c0-2.4888-2.044-4.5233-4.5409-4.5233zm0 1.8582h61.522c1.5126 0 2.6855 1.1858 2.6855 2.6651v55.502c0 1.4793-1.1728 2.6651-2.6855 2.6651h-61.522c-1.5126 0-2.6855-1.1858-2.6855-2.6651v-55.502c0-1.4793 1.1728-2.6651 2.6855-2.6651z" color="#000000" fill="#202223" fill-opacity=".93689" style="text-decoration-line:none;text-indent:0;text-transform:none"/>
</g>
</g>
</g>
</g>
<g display="none">
<rect x="5" y="7" width="86" height="85" rx="6" ry="6" fill="url(#ButtonShadow)" filter="url(#filter3174-36)" opacity=".9"/>
</g>
<g display="none">
<rect x="5" y="7" width="86" height="85" rx="6" ry="6" fill="url(#ButtonShadow)" filter="url(#filter3174-5)" opacity=".9"/>
</g>
<g display="none">
<rect x="5" y="7" width="86" height="85" rx="6" ry="6" fill="url(#ButtonShadow)" filter="url(#filter3174)" opacity=".9"/>
</g>
</svg>
