<?xml version="1.0" encoding="UTF-8"?>
<!-- Created with Inkscape (http://www.inkscape.org/) -->
<svg version="1.1" viewBox="0 0 96 96" xmlns="http://www.w3.org/2000/svg" xmlns:cc="http://creativecommons.org/ns#" xmlns:dc="http://purl.org/dc/elements/1.1/" xmlns:rdf="http://www.w3.org/1999/02/22-rdf-syntax-ns#" xmlns:xlink="http://www.w3.org/1999/xlink">
<defs>
<linearGradient id="linearGradient4071" x1="6" x2="90" y1="47" y2="47" gradientTransform="matrix(1.1071 0 0 1.1071 -5.2311 -3.7659)" gradientUnits="userSpaceOnUse">
<stop stop-color="#b2babc" offset="0"/>
<stop stop-color="#fff" offset=".25"/>
<stop stop-color="#96a1a4" offset=".5"/>
<stop stop-color="#fbf9f9" offset=".75"/>
<stop stop-color="#b2b9bc" offset="1"/>
</linearGradient>
<linearGradient id="linearGradient4129" x1="1.5" x2="94.5" y1="88.172" y2="88.172" gradientTransform="translate(-.088284 .26983)" gradientUnits="userSpaceOnUse">
<stop offset="0"/>
<stop stop-opacity=".58824" offset=".1"/>
<stop stop-opacity=".58824" offset=".9"/>
<stop offset="1"/>
</linearGradient>
<radialGradient id="radialGradient7462" cx="13.948" cy="44.893" r="43.199" gradientTransform="matrix(.97513 0 0 .049191 33.81 80.437)" gradientUnits="userSpaceOnUse" xlink:href="#linearGradient3737"/>
<linearGradient id="linearGradient3737">
<stop stop-color="#fff" offset="0"/>
<stop stop-color="#fff" stop-opacity="0" offset="1"/>
</linearGradient>
<radialGradient id="radialGradient7464" cx="13.948" cy="44.893" r="43.199" gradientTransform="matrix(.88833 0 0 .049191 31.814 -90.08)" gradientUnits="userSpaceOnUse" xlink:href="#linearGradient3737"/>
<linearGradient id="linearGradient4767" x1="2.7714" x2="50.528" y1="-28.642" y2="14.514" gradientUnits="userSpaceOnUse" xlink:href="#linearGradient3737"/>
<clipPath id="clipPath4156-4-1">
<path d="m27.046-55.695-14.214 13.321h0.06127l15.653 21.771 10.231-10.546c-0.2169-1.1522-11.311-23.67-11.732-24.546zm-17.399 16.313-14.888 14.062 21.229 17.515 10.385-10.577zm31.491 12.951-9.7413 9.7136 8.9448 12.458 7.7808-7.555zm-49.84 4.3788-13.754 12.982 26.283 13.846 0.06127-0.0617-0.12253-0.0617 9.8332-10.053-22.301-16.652zm38.015 7.4008-9.8025 9.7753 11.579 9.5594 7.6276-7.4008-8.6691-11.009zm20.187 5.674-7.3825 7.2158 6.1878 8.5418 5.8202-6.1365zm-32.195 6.3215-9.5575 9.4977 13.662 7.185 7.9339-7.6784zm23.312 2.3744-7.1068 6.9383 8.3628 6.9074 5.3608-5.674-0.06127-0.0925-0.0919 0.12335-6.4635-8.2026zm-8.7304 8.5418-7.5051 7.3392 10.354 5.4581c1.3975-1.321 5.6751-6.1229 5.8509-6.3215z" fill="#fff" opacity=".6"/>
</clipPath>
<radialGradient id="radialGradient16726" cx="31.43" cy="16.22" r="24" gradientTransform="matrix(.1842 0 0 .1253 -103.08 -54.555)" gradientUnits="userSpaceOnUse">
<stop stop-color="#fff" stop-opacity=".3516" offset="0"/>
<stop stop-color="#fff" stop-opacity="0" offset="1"/>
</radialGradient>
<radialGradient id="y-3-1" cx="39.25" cy="42.07" r="11.38" gradientTransform="translate(94.806 -81.215)" gradientUnits="userSpaceOnUse">
<stop stop-color="#668ab5" offset="0"/>
<stop stop-color="#39608c" offset=".3969"/>
<stop stop-color="#293d55" offset="1"/>
</radialGradient>
<radialGradient id="u-6-7" cx="22.92" cy="25.28" r="24" gradientTransform="matrix(.3939 0 0 .3939 114.34 -60.485)" gradientUnits="userSpaceOnUse">
<stop stop-color="#89ff99" stop-opacity=".5055" offset="0"/>
<stop stop-color="#006ac4" stop-opacity="0" offset="1"/>
</radialGradient>
<radialGradient id="ae-4-7" cx="33" cy="35" r="24" gradientTransform="matrix(.3411 0 0 .3411 115.55 -59.155)" gradientUnits="userSpaceOnUse">
<stop stop-opacity="0" offset="0"/>
<stop stop-opacity=".2275" offset=".5813"/>
<stop stop-opacity=".5221" offset="1"/>
</radialGradient>
<radialGradient id="radialGradient16728" cx="43.7" cy="45.8" r="24" gradientTransform="matrix(.3273 0 0 .3273 98.216 -44.725)" gradientUnits="userSpaceOnUse">
<stop stop-color="#5400a7" offset="0"/>
<stop stop-color="#5400a7" stop-opacity="0" offset="1"/>
</radialGradient>
<radialGradient id="w-6-4" cx="29.34" cy="31.28" r="4.988" gradientTransform="matrix(1.276 0 0 1.276 69.784 -74.938)" gradientUnits="userSpaceOnUse">
<stop stop-color="#a4fff7" stop-opacity=".6863" offset="0"/>
<stop stop-color="#96e7f1" stop-opacity=".3168" offset=".193"/>
<stop stop-color="#8bd3ec" stop-opacity=".1369" offset=".3579"/>
<stop stop-color="#76ffde" stop-opacity="0" offset="1"/>
</radialGradient>
<radialGradient id="x-6-3" cx="28.86" cy="30.83" r="4.988" gradientTransform="matrix(1.276 0 0 1.276 -149.51 -9.9053)" gradientUnits="userSpaceOnUse">
<stop stop-color="#ff9862" stop-opacity=".4385" offset="0"/>
<stop stop-color="#d74ea6" stop-opacity=".1224" offset=".4783"/>
<stop stop-color="#f055ff" stop-opacity="0" offset="1"/>
</radialGradient>
<radialGradient id="r-0-8" cx="31.37" cy="48.32" r="24" gradientTransform="matrix(.3508 0 0 .2387 -134.32 -62.97)" gradientUnits="userSpaceOnUse">
<stop stop-color="#8dffc3" stop-opacity=".4428" offset="0"/>
<stop stop-color="#8dc7ff" stop-opacity=".001457" offset="1"/>
</radialGradient>
<radialGradient id="radialGradient1112" cx="52.973" cy="55.622" r="16.69" gradientTransform="matrix(-1.1635 .011038 -.0014034 -.14793 116.21 62.734)" gradientUnits="userSpaceOnUse">
<stop stop-color="#d3ff2e" offset="0"/>
<stop stop-color="#d3ff2e" stop-opacity="0" offset="1"/>
</radialGradient>
<radialGradient id="radialGradient1122" cx="54.812" cy="54.807" r="9.1875" gradientUnits="userSpaceOnUse">
<stop stop-color="#d3ff2e" offset="0"/>
<stop stop-color="#d3ff2e" stop-opacity="0" offset="1"/>
</radialGradient>
</defs>
<metadata>
<rdf:RDF>
<cc:Work rdf:about="">
<dc:format>image/svg+xml</dc:format>
<dc:type rdf:resource="http://purl.org/dc/dcmitype/StillImage"/>
<dc:title/>
</cc:Work>
</rdf:RDF>
</metadata>
<path d="m89.055 0.26983h-82.286c-3.7988 0-6.8571 3.0583-6.8571 6.8571v82.286c0 3.7989 3.0583 6.8571 6.8571 6.8571h82.286c3.7989 0 6.8571-3.0583 6.8571-6.8571v-82.286c0-3.7989-3.0583-6.8571-6.8571-6.8571z" opacity=".15"/>
<path d="m88.412 1.0198h-81c-3.7395 0-6.75 3.0105-6.75 6.75v81c0 3.7395 3.0105 6.75 6.75 6.75h81c3.7395 0 6.75-3.0105 6.75-6.75v-81c0-3.7395-3.0105-6.75-6.75-6.75z" opacity=".15"/>
<path d="m87.769 1.7698h-79.714c-3.6801 0-6.6429 2.9627-6.6429 6.6429v79.714c0 3.6801 2.9627 6.6429 6.6429 6.6429h79.714c3.6801 0 6.6429-2.9627 6.6429-6.6429v-79.714c0-3.6801-2.9627-6.6429-6.6429-6.6429z" fill="url(#linearGradient4071)"/>
<path d="m11.153 6.657c-2.8565 0-5.1241 2.2884-5.1241 5.171v68.58c1.0972 1.6845 2.9688 2.8117 5.1241 2.8117h73.787c2.1553 0 4.0269-1.1272 5.1241-2.8117v-47.153-23.221c0-2.8826-2.2676-3.377-5.1241-3.377z" fill="#354f6f" opacity=".96"/>
<path d="m6.6154 53.093c-0.45293 0-0.90048 0.02102-1.3448 0.03623v28.991l2.6896 2.3221h80.688l2.6896-2.3221v-28.991c-0.44863-0.01532-0.89188-0.03623-1.3448-0.03623-3.0083 0-5.9252 0.33984-8.6996 0.9797-0.13865 0.60874-0.28012 1.2203-0.46234 1.8136-0.07125 0.23291-0.17442 0.45885-0.25215 0.68943-0.12016 0.35505-0.24287 0.70302-0.37816 1.0521-0.10374 0.2689-0.22364 0.53292-0.3362 0.79822-0.18747 0.43957-0.37708 0.87694-0.58835 1.3062-0.42603 0.86545-0.9107 1.7207-1.4282 2.5404-0.0626 0.09946-0.14618 0.2286-0.21006 0.29026-0.0061 0.0091 0.0061 0.02688 0 0.03623-0.0092 0.01428-0.03275 0.02207-0.04203 0.03623-0.3327 0.50843-0.64188 1.0352-1.0086 1.5233-0.11444 0.15327-0.26049 0.28411-0.37816 0.43539-0.01731 0.0222-0.02466 0.05051-0.04203 0.07258-0.60422 0.7721-1.248 1.5326-1.9338 2.2501-0.03776 0.03921-0.08809 0.06973-0.12606 0.10881-0.44688 0.46257-0.90801 0.90504-1.3865 1.3422-1.9002 1.7358-4.0452 3.2451-6.3878 4.5351-5.2152 2.8713-11.385 4.5722-18.034 4.5722-6.4578 0-12.487-1.5918-17.604-4.318-0.40196-0.21433-0.78617-0.42484-1.1767-0.6531-0.04151-0.02428-0.08468-0.04817-0.12606-0.07258-0.06731-0.03973-0.14322-0.06869-0.21006-0.10881-0.91864-0.54941-1.798-1.1542-2.6479-1.7776-0.27824-0.20457-0.57006-0.40462-0.8405-0.61674-0.10306-0.08076-0.19231-0.17207-0.29424-0.25404-0.09411-0.0757-0.20105-0.14106-0.29424-0.2177-0.3748-0.3085-0.73467-0.62024-1.0927-0.94335-0.20132-0.18124-0.39255-0.35854-0.58835-0.5443-0.16084-0.15279-0.30514-0.31592-0.46234-0.47162-0.03917-0.03882-0.13018-0.06986-0.12607-0.10881-0.36458-0.36539-0.7071-1.1154-1.0506-1.1248-0.34952-0.38756-0.68182-0.7945-1.0086-1.197-0.1092-0.13422-0.22956-0.26321-0.3362-0.39917-0.21678-0.27692-0.42456-0.55081-0.63044-0.83457-0.08098-0.11128-0.17294-0.21433-0.25215-0.32648-0.12255-0.17416-0.21786-0.3677-0.3362-0.5443-0.15452-0.22966-0.31495-0.45583-0.46234-0.68943-0.21961-0.34902-0.42711-0.69466-0.63044-1.0522-0.0361-0.06316-0.0905-0.11796-0.12607-0.18136-0.08579-0.15372-0.16944-0.3165-0.25215-0.47162-0.14779-0.27633-0.28228-0.55359-0.42025-0.83456-0.2075-0.4607-0.40384-0.8363-0.58835-1.2702-0.0048-0.01039 0.0048-0.02542 0-0.03623-0.19311-0.45536-0.37924-0.91677-0.54626-1.3793-0.15694-0.43667-0.32908-0.89714-0.46234-1.3422-0.01078-0.03646-0.03133-0.07234-0.04203-0.1088-0.02842-0.09649-0.05677-0.19332-0.08406-0.29026-0.11365-0.40509-0.20051-0.82202-0.29424-1.233-2.7743-0.63974-5.6912-0.9797-8.6996-0.9797z" color="#000000" fill="#7293b1" fill-opacity=".69643" fill-rule="evenodd" stroke-width="1.2496"/>
<g transform="matrix(1.2984 0 0 1.2984 6.5827 2.4359)">
<path d="m7.188 3.1426c0.7314 4.7952 3.665 8.2713 8 11.357 4.44-3.1605 10.34-5.0912 16.81-5.0912s12.37 1.9308 16.81 5.0912c4.335-3.0861 7.269-6.5622 8-11.357h-24.81z" color="#000000" fill="#7293b1" fill-opacity=".69643" fill-rule="evenodd" stroke-width=".88502"/>
<ellipse transform="rotate(135)" cx="1.414" cy="-43.13" rx="3.345" ry="2.276" color="#000000" fill="url(#radialGradient16726)" fill-rule="evenodd"/>
<path d="m59.002 55.004a4.0008 4.0008 0 1 1-8.0016 0 4.0008 4.0008 0 1 1 8.0016 0z" color="#000000" fill="#15345b" fill-opacity=".4392" fill-rule="evenodd" stroke-width=".1667"/>
<path d="m57 54.997a1.9999 1.9999 0 1 1-3.9998 0 1.9999 1.9999 0 1 1 3.9998 0z" color="#000000" fill="#d1ff2a" fill-rule="evenodd" stroke-width=".08333"/>
<path d="m29 12-2 5-3.5 1.4375-4.9375-2.125-4.25 4.25 2.125 4.9375-1.4375 3.5-5 2v6l5 2 1.4375 3.5-2.125 4.9375 4.25 4.25 4.9375-2.125 3.5 1.4375 2 5h6l2-5 3.5-1.4375 4.9375 2.125 4.25-4.25-2.125-4.9375 1.4375-3.5 5-2v-6l-5-2-1.4375-3.5 2.125-4.9375-4.25-4.25-4.9375 2.125-3.5-1.4375-2-5zm3 15c3.866 0 7 3.134 7 7s-3.134 7-7 7-7-3.134-7-7c0-0.24162 0.0074-0.48343 0.03125-0.71875 0.35847-3.5298 3.3444-6.2812 6.9688-6.2812z" color="#000000" fill="#7f9dac"/>
<g fill="#fff" opacity=".26661">
<path d="m53 31v6l-6 1-1 2v-12l1 2z" color="#000000"/>
<path d="m35 55h-6l-1-6-2-1h12l-2 1z" color="#000000"/>
</g>
<g fill="#fff">
<path d="m29 13h6l1 6 2 1h-12l2-1z" color="#000000"/>
<path d="m11 37v-6l6-1 1-2v12l-1-2z" color="#000000"/>
</g>
<g fill="#fff" opacity=".88626">
<path d="m26.343 19.858-2.8284-1.4142 3.4853-1.4436z" color="#000000"/>
<path d="m18 28-3 1 1.4437-3.4853z" color="#000000"/>
</g>
<g fill="#53b3ff" opacity=".44794">
<path d="m17.858 39.657-1.4142 2.8284-1.4436-3.4853z" color="#000000"/>
<path d="m38 20-1-3 3.4853 1.4437z" color="#000000"/>
</g>
<g fill="#53b3ff" opacity=".16885">
<path d="m37.657 48.142 2.8284 1.4142-3.4853 1.4436z" color="#000000" fill="#181f2a" fill-opacity=".58929"/>
<path d="m46 40 3-1-1.4437 3.4853z" color="#000000"/>
</g>
<g fill="#fff" opacity=".545">
<path d="m44.728 17.029 4.2426 4.2426-3.5355 4.9497 0.70711 2.1213-8.4853-8.4853 2.1213 0.70711z" color="#000000"/>
<path d="m19.272 50.971-4.2426-4.2426 3.5355-4.9497-0.70711-2.1213 8.4853 8.4853-2.1213-0.70711z" color="#000000"/>
</g>
<g fill="#53b3ff" opacity=".19773">
<path d="m46.142 28.343 1.4142-2.8284 1.4436 3.4853z" color="#000000"/>
<path d="m26 48 1 3-3.4853-1.4437z" color="#000000"/>
</g>
<path d="m26.188 20-8.1875 8.1875v11.625l8.1875 8.1875h11.625l8.1875-8.1875v-11.625l-8.1875-8.1875zm5.8125 7c3.866 0 7 3.134 7 7s-3.134 7-7 7-7-3.134-7-7 3.134-7 7-7z" color="#000000" fill="#fff" opacity=".668"/>
<path d="m32 25c-4.9706 0-9 4.0294-9 9s4.0294 9 9 9 9-4.0294 9-9-4.0294-9-9-9zm0 2c3.866 0 7 3.134 7 7s-3.134 7-7 7-7-3.134-7-7 3.134-7 7-7z" color="#000000" fill="#c3c3c3"/>
<g fill="#fff" opacity=".806">
<path d="m14.322 20.565 0.70711 0.70711 3.5355 4.9497-0.70711 2.1213-1.4142-2.8284z" color="#000000"/>
<path d="m19.272 17.029-0.70711-0.70711 4.9497 2.1213 2.8284 1.4142-2.1213 0.70711z" color="#000000"/>
</g>
<g fill="#fff" opacity=".556">
<path d="m10 37h1l6 1 1 2-3-1z" color="#000000"/>
<path d="m35 13v-1l2 5 1 3-2-1z" color="#000000" fill="#181f2a" fill-opacity=".58929"/>
</g>
<g fill="#fff" opacity=".327">
<path d="m48.971 46.728-4.2426 4.2426-4.9497-3.5355-2.1213 0.70711 8.4853-8.4853-0.70711 2.1213z" color="#000000"/>
<path d="m18.565 51.678 0.70711-0.70711 4.9497-3.5355 2.1213 0.70711-2.8284 1.4142z" color="#000000" fill="#181f2a" fill-opacity=".58929"/>
<path d="m48.971 21.272 0.70711-0.70711-2.1213 4.9497-1.4142 2.8284-0.70711-2.1213z" color="#000000" fill="#181f2a" fill-opacity=".58929"/>
</g>
<g fill="#181f2a" fill-opacity=".58929" opacity=".161">
<path d="m35 56v-1l1-6 2-1-1 3z" color="#000000"/>
<path d="m53 37 1 1e-6 -5 2-3 1 1-2z" color="#000000"/>
</g>
<g fill="#181f2a" fill-opacity=".58929" opacity=".32269">
<path d="m49.678 47.435-0.70711-0.70711-3.5355-4.9497 0.70711-2.1213 1.4142 2.8284z" color="#000000"/>
<path d="m44.728 50.971 0.70711 0.70711-4.9497-2.1213-2.8284-1.4142 2.1213-0.70711z" color="#000000"/>
</g>
<g fill="#181f2a" fill-opacity=".58929" opacity=".48404">
<path d="m54 31h-1l-6-1-1-2 3 1z" color="#000000"/>
<path d="m29 55v1l-2-5-1-3 2 1z" color="#000000"/>
</g>
<g fill="#fff">
<path d="m29 12v1l-1 6-2 1 1-3z" color="#000000"/>
<path d="m11 31-1-1e-6 5-2 3-1-1 2z" color="#000000"/>
<path d="m45.435 16.322-0.70711 0.70711-4.9497 3.5355-2.1213-0.70711 2.8284-1.4142z" color="#000000"/>
<path d="m15.029 46.728-0.70711 0.7071 2.1213-4.9497 1.4142-2.8284 0.70711 2.1213z" color="#000000"/>
<path d="m15.029 21.272 4.2426-4.2426 4.9497 3.5355 2.1213-0.70711-8.4853 8.4853 0.70711-2.1213z" color="#000000"/>
</g>
<path d="m45.438 51.688 4.25-4.25-0.71694-0.70958-4.2426 4.2426z" color="#000000" fill="#181f2a" fill-opacity=".58929" opacity=".214"/>
<g fill="#fff" opacity=".24072">
<path d="m54.009 37.005v-6.0104l-1.0087 0.0052 1e-6 6z" color="#000000" fill="#181f2a" fill-opacity=".58929"/>
<path d="m28.995 56.009h6.0104l-0.0052-1.0087-6 1e-6z" color="#000000"/>
</g>
<g fill="#fff" fill-opacity=".41682">
<path d="m49.688 20.562-4.25-4.25-0.70958 0.71694 4.2426 4.2426z" color="#000000" fill="#181f2a" fill-opacity=".58929"/>
<path d="m14.312 47.438 4.25 4.25 0.70958-0.71694-4.2426-4.2426z" color="#000000"/>
</g>
<g fill="#fff">
<path d="m35.005 11.991h-6.0104l0.0052 1.0087 6-1e-6z" color="#000000"/>
<path d="m9.9913 30.995v6.0104l1.0087-0.0052-1e-6 -6z" color="#000000"/>
</g>
<path d="m18.562 16.312-4.25 4.25 0.71694 0.70958 4.2426-4.2426z" color="#000000" fill="#fff"/>
<g transform="matrix(.7913 0 0 .7913 6.6784 6.3045)" stroke-width="1.2637">
<path d="m32 23.62c-6.282 0-11.38 5.093-11.38 11.38s5.093 11.38 11.38 11.38 11.38-5.093 11.38-11.38-5.093-11.38-11.38-11.38zm0 2.312c5.013 0 9.062 4.049 9.062 9.062s-4.049 9.062-9.062 9.062-9.062-4.049-9.062-9.062 4.049-9.062 9.062-9.062z" color="#000000" fill="url(#y-3-1)" fill-rule="evenodd" opacity=".152" stroke-width="1.597"/>
<circle cx="32" cy="35" r="9.696" color="#000000" fill="#a819f2" fill-rule="evenodd" stroke-width="1.597"/>
<g transform="translate(0,1)">
<circle cx="32" cy="34" r="6" color="#000000" fill="#202b31" fill-opacity=".4297" fill-rule="evenodd" stroke-width="1.2637"/>
<g fill-rule="evenodd" stroke-width="1.2637">
<circle cx="32" cy="34" r="8.187" color="#000000" fill="url(#u-6-7)"/>
<circle cx="32" cy="34" r="8.187" color="#000000" fill="url(#ae-4-7)"/>
</g>
<g transform="matrix(1.221,0,0,1.221,-7.071,-7.513)" fill-rule="evenodd" stroke-width="1.035">
<circle cx="32" cy="34" r="6" color="#000000" fill="url(#radialGradient16728)"/>
<circle cx="32" cy="34" r="4.988" color="#000000" fill="url(#w-6-4)"/>
<circle transform="scale(-1)" cx="-32" cy="-34" r="4.988" color="#000000" fill="url(#x-6-3)"/>
</g>
<ellipse transform="rotate(135)" cx="1.378" cy="-44.07" rx="3.345" ry="2.276" color="#000000" fill="url(#r-0-8)" fill-rule="evenodd" stroke-width="1.2637"/>
<circle cx="30.19" cy="32.28" r="1.282" fill="#dcfdff" fill-opacity=".7465" stroke-width="1.2637" style="paint-order:normal"/>
<circle cx="33.69" cy="35.78" r=".685" fill="#ff9bf8" fill-opacity=".5324" stroke-width="1.2637" style="paint-order:normal"/>
<circle cx="34.69" cy="36.78" r=".3757" fill="#fff" fill-opacity=".252" stroke-width="1.2637" style="paint-order:normal"/>
</g>
</g>
<g transform="translate(0 .5)" fill-rule="evenodd">
<path d="m55 45.62c-5.172 0-9.375 4.203-9.375 9.375 0 4.28 2.891 7.883 6.812 9h5.125c3.105-0.8845 5.553-3.333 6.438-6.438v-5.125c-1.117-3.922-4.72-6.812-9-6.812z" color="#000000" fill="url(#radialGradient1122)" opacity=".384"/>
<path d="m56.242 52.53c-11.611 0-21.016 1.114-21.016 2.469s9.3961 2.469 21.016 2.469c2.7447 0 5.354-0.07588 7.7582-0.1875v-4.562c-2.4042-0.1116-5.0135-0.1875-7.7582-0.1875z" color="#000000" fill="url(#radialGradient1112)" opacity=".811" stroke-width=".92845"/>
</g>
</g>
<path d="m9.7368 4.9993c-3.1166 0-5.668 2.5395-5.668 5.646v69.278c0 3.1065 2.5513 5.646 5.668 5.646h76.792c3.1166 0 5.668-2.5395 5.668-5.646v-69.278c0-3.1065-2.5513-5.646-5.668-5.646zm0 2.3194h76.792c1.8881 0 3.352 1.4801 3.352 3.3266v69.278c0 1.8465-1.4639 3.3266-3.352 3.3266h-76.792c-1.8881 0-3.352-1.4801-3.352-3.3266v-69.278c0-1.8465 1.4639-3.3266 3.352-3.3266z" color="#000000" fill="#202223" fill-opacity=".93689" style="text-decoration-line:none;text-indent:0;text-transform:none"/>
<path d="m1.4117 82.114v6c0 3.6801 2.9761 6.6562 6.6562 6.6562h79.688c3.6801 0 6.6563-2.9761 6.6563-6.6562v-6c0 3.6801-2.9761 6.6562-6.6563 6.6562h-79.688c-3.6801 0-6.6562-2.9761-6.6562-6.6562z" fill="url(#linearGradient4129)" opacity=".65818"/>
<rect x="5.2867" y="80.52" width="84.25" height="4.25" rx="0" ry="4.25" fill="url(#radialGradient7462)" opacity=".55"/>
<rect transform="rotate(90)" x="5.8298" y="-89.997" width="76.75" height="4.25" rx="0" ry="4.25" fill="url(#radialGradient7464)" opacity=".669"/>
<rect transform="matrix(1.0692 0 0 1.0477 4.3384 38.776)" x="2" y="-30" width="75.966" height="69.024" rx="3.957" ry="3.957" clip-path="url(#clipPath4156-4-1)" fill="url(#linearGradient4767)" opacity=".311"/>
</svg>
