<?xml version="1.0" encoding="UTF-8"?>
<!-- Created with Inkscape (http://www.inkscape.org/) -->
<svg version="1.1" viewBox="0 0 96 96" xmlns="http://www.w3.org/2000/svg" xmlns:cc="http://creativecommons.org/ns#" xmlns:dc="http://purl.org/dc/elements/1.1/" xmlns:rdf="http://www.w3.org/1999/02/22-rdf-syntax-ns#" xmlns:xlink="http://www.w3.org/1999/xlink">
<defs>
<linearGradient id="linearGradient3737">
<stop stop-color="#fff" offset="0"/>
<stop stop-color="#fff" stop-opacity="0" offset="1"/>
</linearGradient>
<linearGradient id="linearGradient4071-3" x1="6" x2="90" y1="47" y2="47" gradientTransform="matrix(1.1071 0 0 1.1071 -5.1429 -4.0357)" gradientUnits="userSpaceOnUse">
<stop stop-color="#b2babc" offset="0"/>
<stop stop-color="#fff" offset=".25"/>
<stop stop-color="#96a1a4" offset=".5"/>
<stop stop-color="#fbf9f9" offset=".75"/>
<stop stop-color="#b2b9bc" offset="1"/>
</linearGradient>
<linearGradient id="linearGradient4129-6" x1="1.5" x2="94.5" y1="88.172" y2="88.172" gradientTransform="translate(-2.95e-6,2.6e-5)" gradientUnits="userSpaceOnUse">
<stop offset="0"/>
<stop stop-opacity=".58824" offset=".1"/>
<stop stop-opacity=".58824" offset=".9"/>
<stop offset="1"/>
</linearGradient>
<radialGradient id="radialGradient7462-7" cx="13.948" cy="44.893" r="43.199" gradientTransform="matrix(.97513 0 0 .049191 33.899 80.167)" gradientUnits="userSpaceOnUse" xlink:href="#linearGradient3737"/>
<radialGradient id="radialGradient7464-3" cx="13.948" cy="44.893" r="43.199" gradientTransform="matrix(.88833 0 0 .049191 31.545 -90.168)" gradientUnits="userSpaceOnUse" xlink:href="#linearGradient3737"/>
<clipPath id="clipPath4156-4-1-6">
<path d="m27.046-55.695-14.214 13.321h0.06127l15.653 21.771 10.231-10.546c-0.2169-1.1522-11.311-23.67-11.732-24.546zm-17.399 16.313-14.888 14.062 21.229 17.515 10.385-10.577zm31.491 12.951-9.7413 9.7136 8.9448 12.458 7.7808-7.555zm-49.84 4.3788-13.754 12.982 26.283 13.846 0.06127-0.0617-0.12253-0.0617 9.8332-10.053-22.301-16.652zm38.015 7.4008-9.8025 9.7753 11.579 9.5594 7.6276-7.4008-8.6691-11.009zm20.187 5.674-7.3825 7.2158 6.1878 8.5418 5.8202-6.1365zm-32.195 6.3215-9.5575 9.4977 13.662 7.185 7.9339-7.6784zm23.312 2.3744-7.1068 6.9383 8.3628 6.9074 5.3608-5.674-0.06127-0.0925-0.0919 0.12335-6.4635-8.2026zm-8.7304 8.5418-7.5051 7.3392 10.354 5.4581c1.3975-1.321 5.6751-6.1229 5.8509-6.3215z" fill="#fff" opacity=".6"/>
</clipPath>
<linearGradient id="linearGradient1323" x1="2.7714" x2="50.528" y1="-28.642" y2="14.514" gradientUnits="userSpaceOnUse" xlink:href="#linearGradient3737"/>
</defs>
<metadata>
<rdf:RDF>
<cc:Work rdf:about="">
<dc:format>image/svg+xml</dc:format>
<dc:type rdf:resource="http://purl.org/dc/dcmitype/StillImage"/>
<dc:title/>
</cc:Work>
</rdf:RDF>
</metadata>
<path d="m89.143 2.6e-5h-82.286c-3.7988 0-6.8571 3.0583-6.8571 6.8571v82.286c0 3.7989 3.0583 6.8571 6.8571 6.8571h82.286c3.7989 0 6.8571-3.0583 6.8571-6.8571v-82.286c0-3.7989-3.0583-6.8571-6.8571-6.8571z" opacity=".15"/>
<path d="m88.5 0.75003h-81c-3.7395 0-6.75 3.0105-6.75 6.75v81c0 3.7395 3.0105 6.75 6.75 6.75h81c3.7395 0 6.75-3.0105 6.75-6.75v-81c0-3.7395-3.0105-6.75-6.75-6.75z" opacity=".15"/>
<path d="m87.857 1.5h-79.714c-3.6801 0-6.6429 2.9627-6.6429 6.6429v79.714c0 3.6801 2.9627 6.6429 6.6429 6.6429h79.714c3.6801 0 6.6429-2.9627 6.6429-6.6429v-79.714c0-3.6801-2.9627-6.6429-6.6429-6.6429z" fill="url(#linearGradient4071-3)"/>
<path d="m11.309 6.3872c-2.8943 0-5.192 2.3161-5.192 5.2336v69.411c1.1118 1.7049 3.0082 2.8458 5.192 2.8458h74.765c2.1838 0 4.0802-1.1409 5.192-2.8458v-69.411c0-2.9175-2.2977-5.2336-5.192-5.2336z" fill="#822447" opacity=".96"/>
<path d="m9.8251 4.7295c-3.1166 0-5.668 2.5395-5.668 5.646v69.278c0 3.1065 2.5513 5.646 5.668 5.646h76.792c3.1166 0 5.668-2.5395 5.668-5.646v-69.278c0-3.1065-2.5513-5.646-5.668-5.646zm0 2.3194h76.792c1.8881 0 3.352 1.4801 3.352 3.3266v69.278c0 1.8465-1.4639 3.3266-3.352 3.3266h-76.792c-1.8881 0-3.352-1.4801-3.352-3.3266v-69.278c0-1.8465 1.4639-3.3266 3.352-3.3266z" color="#000000" fill="#171819" fill-opacity=".97768" style="text-decoration-line:none;text-indent:0;text-transform:none"/>
<path d="m1.5 81.844v6c0 3.6801 2.9761 6.6562 6.6562 6.6562h79.688c3.6801 0 6.6563-2.9761 6.6563-6.6562v-6c0 3.6801-2.9761 6.6562-6.6563 6.6562h-79.688c-3.6801 0-6.6562-2.9761-6.6562-6.6562z" fill="url(#linearGradient4129-6)" opacity=".65818"/>
<rect x="5.375" y="80.25" width="84.25" height="4.25" rx="0" ry="4.25" fill="url(#radialGradient7462-7)" opacity=".55"/>
<rect transform="rotate(90)" x="5.56" y="-90.085" width="76.75" height="4.25" rx="0" ry="4.25" fill="url(#radialGradient7464-3)" opacity=".669"/>
<g transform="translate(-2.2954 -1.7753)" fill-rule="evenodd">
<path d="m24.937 23.04c-0.58159-0.16046-1.2081-0.01472-1.6491 0.38361l-5.1499 4.1263c-0.39078 0.3135-0.61675 0.77755-0.61691 1.2669l-3.1531 26.583c-0.01556 0.29787 17.086 24.69 21.724 29.621l56.321-0.16293s-1.884-32.414 0.98956-50.447c-0.7879-1.2113-14.303-12.69-17.003-15.157-12.053-5.8355-36.662 3.2056-51.463 3.7864z" fill="#370016" fill-opacity=".97545" opacity=".39" stroke-width="1.6832"/>
<g transform="translate(3.7358 1.5031)">
<path d="m17.255 15.923-4.607 3.8392v32.249l6.9105 7.6783 1.1098-0.80682 7.0575 10.867 28.98 0.024 6.8356-11.044 1.3197 0.95979 7.6209-7.6783v-32.224l-6.0852-3.8631z" fill="#344f82" stroke-width="1.5357"/>
<path d="m50.796 24.701-0.27903 20.616c-0.0088 0.77951-0.28127 1.9866-0.61158 2.703l-2.2789 4.9419h-6.4049s-3e-5 -4.4e-5 -9.2e-5 -1.33e-4c-8e-3 -0.01136-2.856-4.1076-2.856-4.1076h-1.8266s-2.9e-5 4e-5 -8.9e-5 1.17e-4c-0.0075 0.01-2.7426 3.588-2.7998 4.1076h-6.3799l-7.6e-5 -1.61e-4c-0.0065-0.01367-2.348-4.9461-2.348-4.9461-0.33893-0.71332-0.61368-1.9271-0.61368-2.703v-20.616h4.7066v21.349l2.1754 4.3841 3.1439-4.3841v-21.349h6.122l0.23047 21.349s2.7931 4.3841 2.7931 4.3841l2.1515-4.3841 0.63672-21.349h4.3935m14.481 23.184m3.1706 5.0758h-13.922v-3.5919s1.4649-3.7823 1.4652-3.7827c0.05186-0.13391 6.6906-17.274 6.6906-17.274h-7.7786v-3.6115h12.952v3.6115s-1.4011 3.7415-1.4013 4.1956c-0.0496 0.13247-6.3992 17.088-6.3992 17.088h8.3935v3.8187" fill="#00112b" fill-opacity=".44196" stroke-width="1.5356"/>
<path d="m46.89 20.793-0.27903 20.616c-0.0088 0.77951-0.28127 1.9866-0.61158 2.703l-2.2789 4.9419h-6.4049s-1.68e-4 -2.42e-4 -5.04e-4 -7.23e-4c-0.04249-0.06112-2.8556-4.1069-2.8556-4.1069h-1.8266s-1.61e-4 2.14e-4 -4.82e-4 6.35e-4c-0.0408 0.05341-2.7426 3.5907-2.7993 4.107h-6.3799s-1.37e-4 -2.9e-4 -4.12e-4 -8.7e-4c-0.03494-0.07353-2.3476-4.9409-2.3476-4.9409-0.33893-0.71332-0.61369-1.9271-0.61369-2.703v-20.616h4.7066v21.349l2.1754 4.3841 3.1439-4.3841v-21.349h6.122l0.23047 21.349 2.7931 4.3841 2.1515-4.3841 0.63672-21.349h4.3935m0.57893 0.92683m17.074 27.334h-13.922v-3.5921l7.8882-20.366c0.0022-0.0054 0.26746-0.69055 0.26746-0.69055h-7.7786v-3.6115h12.952v3.6115l-7.5446 20.147c-2e-3 0.0052-0.25581 0.68312-0.25581 0.68312h8.3935v3.8186" fill="#00112b" fill-opacity=".078431" stroke-width="1.5356"/>
<path d="m46.727 20.632-0.27903 20.616c-0.0088 0.77951-0.28127 1.9866-0.61157 2.703l-2.2789 4.9419h-6.4049s-1.74e-4 -2.51e-4 -5.2e-4 -7.48e-4c-0.04393-0.06319-2.8555-4.1069-2.8555-4.1069h-1.8266s-1.67e-4 2.18e-4 -4.99e-4 6.54e-4c-0.0422 0.05521-2.7426 3.5908-2.7993 4.107h-6.3799s-1.43e-4 -3.01e-4 -4.29e-4 -9e-4c-0.03612-0.07602-2.3476-4.9409-2.3476-4.9409-0.33893-0.71332-0.61368-1.9271-0.61368-2.703v-20.616h4.7066v21.349l2.1754 4.3841s3.1439-4.3841 3.1439-4.3841v-21.349h6.122l0.23047 21.349 2.7931 4.3841 2.1515-4.3841 0.63672-21.349h4.3935m17.652 28.261h-13.922v-3.5921l8.1556-21.057h-7.7786v-3.6115h12.952v3.6115l-7.8005 20.83h8.3935v3.8187" fill="#e4f2f8" stroke-width="1.5356"/>
<path d="m39.307 62.099c0 0.4138-0.10054 0.8464-0.30655 1.2978-0.16613 0.36865-0.45465 0.85392-0.86558 1.4558-0.41093 0.60189-0.82623 1.2038-1.2459 1.8056h2.2164v1.3317h-4.459v-1.106c0.62952-1.477 1.0579-1.6627 1.2852-2.0314 0.27104-0.42885 0.58142-0.9442 0.93115-1.5461 0.22732-0.4138 0.37158-0.70909 0.43278-0.88589 0.0612-0.1768 0.0918-0.35925 0.0918-0.55226 0-0.39875-0.153-0.59813-0.45901-0.59813-0.17487 0-0.2929 0.07523-0.35409 0.22571-0.0612 0.15048-0.0918 0.36113-0.0918 0.63197v0.72225h-1.836v-0.25956c0-0.15048 0.0022-0.29718 0.0066-0.44012 0.0045-0.14296 0.01967-0.28966 0.0459-0.44012 0.08743-0.53418 0.31913-0.94044 0.69509-1.2188 0.37596-0.27837 0.87485-0.41756 1.482-0.41756 0.31475 0 0.59453 0.02821 0.83935 0.08463 0.24482 0.05644 0.47212 0.14859 0.68197 0.2765 0.60329 0.39123 0.90492 0.9442 0.90492 1.659zm4.2492 5.891h-2.2427v-4.8527c0-0.27837-0.06775-0.47586-0.20328-0.59248-0.13552-0.11662-0.39563-0.17493-0.78033-0.17493h-0.32786v-0.90283c0.49837-0.09028 0.93115-0.24451 1.2984-0.4627 0.31475-0.18809 0.62514-0.44765 0.93115-0.77869h1.3246zm6.7508-2.5392c0 0.48903-0.0045 0.77869-0.01321 0.86897-0.04372 0.4439-0.2011 0.82006-0.47212 1.1285-0.40219 0.45893-1.0055 0.68841-1.8098 0.68841-0.48088 0-0.87432-0.05078-1.1803-0.15235-0.30601-0.10157-0.57268-0.28026-0.8-0.53606-0.22732-0.2558-0.36721-0.51348-0.41967-0.77304-0.05246-0.25956-0.07869-0.6301-0.07869-1.1116v-2.7198c0-0.51161 0.02843-0.92352 0.08524-1.2357 0.05683-0.31223 0.17705-0.58119 0.36065-0.8069s0.44154-0.40251 0.77378-0.53042c0.33224-0.1279 0.70383-0.19185 1.1148-0.19185 0.47214 0 0.88961 0.07711 1.2525 0.23135 0.36285 0.15423 0.63607 0.36678 0.81968 0.63762 0.17487 0.23324 0.27978 0.47962 0.31475 0.73919 0.03497 0.25956 0.05246 0.64513 0.05246 1.1567zm-2.0197 0.59813v-4.0514c0-0.25581-0.01967-0.44012-0.05902-0.55298-0.03934-0.11284-0.1377-0.16928-0.29508-0.16928-0.1399 0-0.23824 0.05455-0.29508 0.16364-0.05683 0.10909-0.08525 0.26521-0.08525 0.46835v4.6495c0.02623 0.25581 0.14864 0.3837 0.36721 0.3837 0.16613 0 0.26885-0.05831 0.30819-0.17493 0.03934-0.11662 0.05902-0.35549 0.05902-0.71662zm7.4755-0.59813c0 0.48903-0.0045 0.77869-0.01321 0.86897-0.0437 0.4439-0.2011 0.82006-0.47212 1.1285-0.40219 0.45893-1.0055 0.68841-1.8098 0.68841-0.48088 0-0.87432-0.05078-1.1803-0.15235-0.30601-0.10157-0.57268-0.28026-0.8-0.53606-0.22732-0.2558-0.36721-0.51348-0.41967-0.77304-0.05246-0.25956-0.07869-0.6301-0.07869-1.1116v-2.7198c0-0.51161 0.02841-0.92352 0.08524-1.2357 0.05683-0.31223 0.17705-0.58119 0.36065-0.8069s0.44154-0.40251 0.77378-0.53042c0.33224-0.1279 0.70383-0.19185 1.1148-0.19185 0.47214 0 0.88961 0.07711 1.2525 0.23135 0.36285 0.15423 0.63607 0.36678 0.81968 0.63762 0.17487 0.23324 0.27978 0.47962 0.31475 0.73919 0.03497 0.25956 0.05246 0.64513 0.05246 1.1567zm-2.0197 0.59813v-4.0514c0-0.25581-0.01967-0.44012-0.05902-0.55298-0.03934-0.11284-0.1377-0.16928-0.29508-0.16928-0.13988 0-0.23824 0.05455-0.29508 0.16364-0.05683 0.10909-0.08525 0.26521-0.08525 0.46835v4.6495c0.02623 0.25581 0.14864 0.3837 0.36721 0.3837 0.16613 0 0.26885-0.05831 0.30819-0.17493 0.03934-0.11662 0.05902-0.35549 0.05902-0.71662z" fill-opacity=".42857" stroke-width="1.5357"/>
<path d="m36.235 59.795c0 0.4138-0.10054 0.8464-0.30655 1.2978-0.16613 0.36865-0.45465 0.85392-0.86558 1.4558-0.41093 0.60189-0.82623 1.2038-1.2459 1.8056h2.2164v1.3317h-4.459v-1.106c0.62952-1.477 1.0579-1.6627 1.2852-2.0314 0.27104-0.42885 0.58142-0.9442 0.93115-1.5461 0.22732-0.4138 0.37158-0.70909 0.43278-0.8859 0.0612-0.1768 0.0918-0.35925 0.0918-0.55226 0-0.39875-0.153-0.59813-0.45901-0.59813-0.17487 0-0.2929 0.07523-0.35409 0.22571-0.0612 0.15048-0.0918 0.36113-0.0918 0.63197v0.72225h-1.836v-0.25956c0-0.15048 0.0022-0.29718 0.0066-0.44012 0.0045-0.14296 0.01967-0.28966 0.0459-0.44012 0.08742-0.53418 0.31913-0.94044 0.69509-1.2188 0.37596-0.27837 0.87485-0.41756 1.482-0.41756 0.31475 0 0.59453 0.02821 0.83935 0.08463 0.24482 0.05644 0.47212 0.14859 0.68197 0.2765 0.60329 0.39123 0.90492 0.9442 0.90492 1.659zm4.2492 5.891h-2.2427v-4.8527c0-0.27837-0.06775-0.47586-0.20328-0.59248-0.13552-0.11662-0.39563-0.17493-0.78033-0.17493h-0.32786v-0.90283c0.49837-0.09028 0.93115-0.24451 1.2984-0.4627 0.31475-0.18809 0.62514-0.44765 0.93115-0.77869h1.3246zm6.7508-2.5392c0 0.48903-0.0045 0.77869-0.01321 0.86897-0.04372 0.4439-0.2011 0.82006-0.47212 1.1285-0.40219 0.45893-1.0055 0.68841-1.8098 0.68841-0.48088 0-0.87432-0.05079-1.1803-0.15235-0.30601-0.10157-0.57268-0.28026-0.8-0.53605-0.22732-0.2558-0.36721-0.51348-0.41967-0.77304-0.05246-0.25956-0.07869-0.6301-0.07869-1.1116v-2.7198c0-0.51161 0.02842-0.92352 0.08524-1.2358 0.05683-0.31223 0.17705-0.58119 0.36065-0.8069 0.1836-0.22571 0.44154-0.40251 0.77378-0.53042 0.33224-0.12791 0.70383-0.19185 1.1148-0.19185 0.47214 0 0.88961 0.07711 1.2525 0.23135 0.36285 0.15423 0.63607 0.36678 0.81968 0.63762 0.17487 0.23324 0.27978 0.47962 0.31475 0.73919 0.03497 0.25956 0.05246 0.64513 0.05246 1.1567zm-2.0197 0.59813v-4.0514c0-0.25581-0.01967-0.44012-0.05902-0.55298-0.03934-0.11284-0.1377-0.16928-0.29508-0.16928-0.1399 0-0.23824 0.05455-0.29508 0.16364-0.05683 0.10909-0.08524 0.26521-0.08524 0.46835v4.6495c0.02623 0.25581 0.14864 0.3837 0.36721 0.3837 0.16613 0 0.26885-0.05831 0.30819-0.17493 0.03934-0.11662 0.05902-0.35549 0.05902-0.71662zm7.4755-0.59813c0 0.48903-0.0045 0.77869-0.01321 0.86897-0.04371 0.4439-0.2011 0.82006-0.47212 1.1285-0.40219 0.45893-1.0055 0.68841-1.8098 0.68841-0.48088 0-0.87432-0.05079-1.1803-0.15235-0.30601-0.10157-0.57268-0.28026-0.8-0.53605-0.22732-0.2558-0.36721-0.51348-0.41967-0.77304-0.05246-0.25956-0.07869-0.6301-0.07869-1.1116v-2.7198c0-0.51161 0.02841-0.92352 0.08524-1.2358 0.05683-0.31223 0.17705-0.58119 0.36065-0.8069s0.44154-0.40251 0.77378-0.53042c0.33224-0.12791 0.70383-0.19185 1.1148-0.19185 0.47214 0 0.88961 0.07711 1.2525 0.23135 0.36285 0.15423 0.63607 0.36678 0.81968 0.63762 0.17487 0.23324 0.27978 0.47962 0.31475 0.73919 0.03497 0.25956 0.05246 0.64513 0.05246 1.1567zm-2.0197 0.59813v-4.0514c0-0.25581-0.01967-0.44012-0.05902-0.55298-0.03934-0.11284-0.1377-0.16928-0.29508-0.16928-0.13988 0-0.23824 0.05455-0.29508 0.16364-0.05683 0.10909-0.08525 0.26521-0.08525 0.46835v4.6495c0.02623 0.25581 0.14864 0.3837 0.36721 0.3837 0.16613 0 0.26885-0.05831 0.30819-0.17493 0.03934-0.11662 0.05902-0.35549 0.05902-0.71662z" fill="#e4f2f8" stroke-width="1.5357"/>
<path d="m17.255 13.619a1.5358 1.5358 0 0 0-1.4752 0.35692l-4.607 3.8392a1.5358 1.5358 0 0 0-0.55189 1.1787v32.249a1.5358 1.5358 0 0 0 0.39292 1.0288l6.9105 7.6783a1.5358 1.5358 0 0 0 1.8356 0.33892l6.1877 9.529a1.5358 1.5358 0 0 0 1.2867 0.70184l28.98 0.02099a1.5358 1.5358 0 0 0 1.3077-0.72585l5.9658-9.6369a1.5358 1.5358 0 0 0 2.0065-0.21295l7.6209-7.6783a1.5358 1.5358 0 0 0 0.41091-1.0438v-32.221a1.5358 1.5358 0 0 0-0.66334-1.2657l-6.0852-3.8631a1.5358 1.5358 0 0 0-0.87281-0.27295zm0.55488 3.0713h48.106l4.538 3.1343v30.815l-5.7918 6.2386-0.21896-0.15897-7.6178-5.1829a1.5358 1.5358 0 0 0-0.9028-0.29394h-28.41a1.5358 1.5358 0 0 0-0.9028 0.29394l-7.3274 5.3269-6.0822-6.2087v-30.941zm10.693 37.624h27.415l5.5699 4.0522-5.6357 9.103-27.289-0.02099-5.8128-8.9471z" color="#000000" color-rendering="auto" dominant-baseline="auto" fill="#e4f2f8" image-rendering="auto" shape-rendering="auto" solid-color="#000000" stroke-width="1.5357" style="font-feature-settings:normal;font-variant-alternates:normal;font-variant-caps:normal;font-variant-ligatures:normal;font-variant-numeric:normal;font-variant-position:normal;isolation:auto;mix-blend-mode:normal;shape-padding:0;text-decoration-color:#000000;text-decoration-line:none;text-decoration-style:solid;text-indent:0;text-orientation:mixed;text-transform:none;white-space:normal"/>
</g>
</g>
<rect transform="matrix(1.0692 0 0 1.0477 4.2952 38.479)" x="2" y="-30" width="75.966" height="69.024" rx="3.957" ry="3.957" clip-path="url(#clipPath4156-4-1-6)" fill="url(#linearGradient1323)" opacity=".387"/>
</svg>
