<?xml version="1.0" encoding="UTF-8"?>
<svg version="1.1" viewBox="0 0 48 48" xmlns="http://www.w3.org/2000/svg" xmlns:cc="http://creativecommons.org/ns#" xmlns:dc="http://purl.org/dc/elements/1.1/" xmlns:rdf="http://www.w3.org/1999/02/22-rdf-syntax-ns#" xmlns:xlink="http://www.w3.org/1999/xlink">
<metadata>
<rdf:RDF>
<cc:Work rdf:about="">
<dc:format>image/svg+xml</dc:format>
<dc:type rdf:resource="http://purl.org/dc/dcmitype/StillImage"/>
</cc:Work>
</rdf:RDF>
</metadata>
<defs>
<linearGradient id="linearGradient4071" x1="6" x2="90" y1="47" y2="47" gradientTransform="matrix(.55126 0 0 .55126 -2.4607 -1.9094)" gradientUnits="userSpaceOnUse">
<stop stop-color="#b2babc" offset="0"/>
<stop stop-color="#fff" offset=".25"/>
<stop stop-color="#96a1a4" offset=".5"/>
<stop stop-color="#fbf9f9" offset=".75"/>
<stop stop-color="#b2b9bc" offset="1"/>
</linearGradient>
<linearGradient id="linearGradient4129" x1="1.5" x2="94.5" y1="88.172" y2="88.172" gradientTransform="matrix(.49792 0 0 .49792 .099999 .1)" gradientUnits="userSpaceOnUse">
<stop offset="0"/>
<stop stop-opacity=".58824" offset=".1"/>
<stop stop-opacity=".58824" offset=".9"/>
<stop offset="1"/>
</linearGradient>
<radialGradient id="radialGradient7462" cx="13.948" cy="44.893" r="43.199" gradientTransform="matrix(.48554 0 0 .024493 16.979 40.016)" gradientUnits="userSpaceOnUse" xlink:href="#linearGradient3737"/>
<linearGradient id="linearGradient3737">
<stop stop-color="#fff" offset="0"/>
<stop stop-color="#fff" stop-opacity="0" offset="1"/>
</linearGradient>
<radialGradient id="radialGradient7464" cx="13.948" cy="44.893" r="43.199" gradientTransform="matrix(.44231 0 0 .024493 15.807 -44.996)" gradientUnits="userSpaceOnUse" xlink:href="#linearGradient3737"/>
<linearGradient id="linearGradient4767" x1="2.7714" x2="50.528" y1="-28.642" y2="14.514" gradientUnits="userSpaceOnUse" xlink:href="#linearGradient3737"/>
<clipPath id="clipPath4156-4-1">
<path d="m27.046-55.695-14.214 13.321h0.06127l15.653 21.771 10.231-10.546c-0.2169-1.1522-11.311-23.67-11.732-24.546zm-17.399 16.313-14.888 14.062 21.229 17.515 10.385-10.577zm31.491 12.951-9.7413 9.7136 8.9448 12.458 7.7808-7.555zm-49.84 4.3788-13.754 12.982 26.283 13.846 0.06127-0.0617-0.12253-0.0617 9.8332-10.053-22.301-16.652zm38.015 7.4008-9.8025 9.7753 11.579 9.5594 7.6276-7.4008-8.6691-11.009zm20.187 5.674-7.3825 7.2158 6.1878 8.5418 5.8202-6.1365zm-32.195 6.3215-9.5575 9.4977 13.662 7.185 7.9339-7.6784zm23.312 2.3744-7.1068 6.9383 8.3628 6.9074 5.3608-5.674-0.06127-0.0925-0.0919 0.12335-6.4635-8.2026zm-8.7304 8.5418-7.5051 7.3392 10.354 5.4581c1.3975-1.321 5.6751-6.1229 5.8509-6.3215z" fill="#fff" opacity=".6"/>
</clipPath>
<clipPath id="clipPath-210452366-5">
<g transform="translate(0 -1004.4)">
<path transform="matrix(15.333 0 0 11.5 415 878.86)" d="m-24 13c0 1.105-0.672 2-1.5 2s-1.5-0.895-1.5-2 0.672-2 1.5-2 1.5 0.895 1.5 2z" fill="#1890d0"/>
</g>
</clipPath>
<clipPath id="clipPath-467689659-3">
<g transform="translate(0 -1004.4)">
<path transform="matrix(15.333 0 0 11.5 415 878.86)" d="m-24 13c0 1.105-0.672 2-1.5 2s-1.5-0.895-1.5-2 0.672-2 1.5-2 1.5 0.895 1.5 2z" fill="#1890d0"/>
</g>
</clipPath>
<clipPath id="clipPath-481582818-2">
<g transform="translate(0 -1004.4)">
<path transform="matrix(15.333 0 0 11.5 415 878.86)" d="m-24 13c0 1.105-0.672 2-1.5 2s-1.5-0.895-1.5-2 0.672-2 1.5-2 1.5 0.895 1.5 2z" fill="#1890d0"/>
</g>
</clipPath>
</defs>
<path d="m44.486 0.1h-40.971c-1.8915 0-3.4143 1.5228-3.4143 3.4143v40.971c0 1.8915 1.5228 3.4143 3.4143 3.4143h40.971c1.8915 0 3.4143-1.5228 3.4143-3.4143v-40.971c0-1.8915-1.5228-3.4143-3.4143-3.4143z" opacity=".15"/>
<path d="m44.166 0.47344h-40.331c-1.862 0-3.3609 1.499-3.3609 3.3609v40.331c0 1.862 1.499 3.3609 3.3609 3.3609h40.331c1.862 0 3.3609-1.499 3.3609-3.3609v-40.331c0-1.862-1.499-3.3609-3.3609-3.3609z" opacity=".15"/>
<path d="m43.846 0.84687h-39.691c-1.8324 0-3.3076 1.4752-3.3076 3.3076v39.691c0 1.8324 1.4752 3.3076 3.3076 3.3076h39.691c1.8324 0 3.3076-1.4752 3.3076-3.3076v-39.691c0-1.8324-1.4752-3.3076-3.3076-3.3076z" fill="url(#linearGradient4071)"/>
<path d="m5.6972 3.2803c-1.4223 0-2.5514 1.153-2.5514 2.6055v34.556c0.54633 0.84876 1.4782 1.4167 2.5514 1.4167h37.521c1.0732 0 1.2236 0.01811 1.7699-0.83064v-35.142c0-1.4525-1.1291-2.6055-2.5514-2.6055z" fill="#e6a607" opacity=".98"/>
<path d="m4.9921 2.4549c-1.5518 0-2.8222 1.2645-2.8222 2.8112v34.495c0 1.5468 1.2704 2.8112 2.8222 2.8112h38.236c1.5518 0 2.8222-1.2645 2.8222-2.8112v-34.495c0-1.5468-1.2704-2.8112-2.8222-2.8112zm0 1.1549h38.236c0.94012 0 1.669 0.73696 1.669 1.6564v34.495c0 0.91939-0.72891 1.6564-1.669 1.6564h-38.236c-0.94012 0-1.669-0.73696-1.669-1.6564v-34.495c0-0.91939 0.72891-1.6564 1.669-1.6564z" color="#000000" fill="#1f2224" fill-opacity=".8087" style="text-decoration-line:none;text-indent:0;text-transform:none"/>
<path d="m0.84687 40.851v2.9875c0 1.8324 1.4819 3.3143 3.3143 3.3143h39.678c1.8324 0 3.3143-1.4819 3.3143-3.3143v-2.9875c0 1.8324-1.4819 3.3143-3.3143 3.3143h-39.678c-1.8324 0-3.3143-1.4819-3.3143-3.3143z" fill="url(#linearGradient4129)" opacity=".65818"/>
<rect x="2.7763" y="40.058" width="41.949" height="2.1161" rx="0" ry="2.1161" fill="url(#radialGradient7462)" opacity=".55"/>
<rect transform="rotate(90)" x="2.8684" y="-44.955" width="38.215" height="2.1161" rx="0" ry="2.1161" fill="url(#radialGradient7464)" opacity=".669"/>
<g transform="matrix(1.1181 0 0 1.1181 61.201 55.486)">
<g transform="translate(-57.763 -53.288)">
<g clip-path="url(#clipPath-467689659-3)">
<g transform="translate(1,1)">
<g opacity=".1">
<!-- color: #f3ce08 -->
<path d="m24 9c-2.559 0-4.969 0.645-7.078 1.773h2.98v0.203c-0.395 0.02-0.664 0.125-0.809 0.313-0.301-0.211-0.598-0.313-0.883-0.313h-0.98l-0.547 0.086-0.098-0.086h-0.031c-0.391 0.223-0.77 0.465-1.137 0.723 0.84 1.207 1.348 2.246 1.523 3.121h0.813v0.203h-0.625v0.227c0.238 0.875 0.414 1.313 0.527 1.313h0.191l0.434-0.113 0.094 0.113 0.098-0.113 0.094 0.113v0.082c-0.32 0.23-0.535 0.543-0.645 0.945h-0.07v0.199h0.168c0.223 3.168 0.637 5.57 1.242 7.207l0.355 0.281h0.191c0.227 0 0.742-1.109 1.504-3.332 0.492-1 0.852-1.887 1.074-2.645l-0.105-0.316c0.496-0.738 1.016-1.109 1.531-1.109h0.168c0.332 0 0.57 0.211 0.711 0.629 0.449 0.625 0.813 1.57 1.078 2.824l1.34 2.961c0.172 0.211 0.258 0.445 0.258 0.711 0.492 1.121 0.941 1.863 1.348 2.223h0.289c0.332 0 0.77-1.387 1.332-4.16 0.098 0 0.355-0.738 0.793-2.223v-0.113l-1.512-0.195-0.352 0.109h-0.457v-0.227l0.91-0.09h1.766c0.688-2.449 1.316-4.348 1.887-5.699 0.063-0.859 0.133-1.57 0.203-2.168-1.039-0.859-2.195-1.586-3.441-2.145-0.105 0.234-0.297 0.352-0.602 0.352v-0.195l0.555-0.184c-1.855-0.824-3.914-1.281-6.078-1.281m-2.863 1.77h2.414v0.203l-0.547 0.086-0.531-0.086-0.453 0.199-0.16-0.199h-0.719v-0.203m4.988 1.629h0.262v0.086c0 0.133-0.09 0.195-0.262 0.195l-0.102 0.113v0.113l-0.262-0.113v-0.195m-12.465 0.879c-2.664 2.707-4.316 6.426-4.316 10.527 0 8.281 6.723 14.996 15 14.996 8.281 0 15-6.715 15-14.996 0-3.352-1.094-6.445-2.938-8.938-0.406 0.477-0.797 1.383-1.188 2.719-0.172 1.383-0.469 2.668-0.883 3.844-0.367 1.215-0.551 2.336-0.551 3.363l-0.691 2.023c0 0.168 0.27 0.34 0.789 0.508-0.098 0.402-0.234 0.598-0.434 0.598v0.113h0.168v0.086c0 0.211-0.273 0.313-0.813 0.313l0.098 0.113v0.402h-0.164c0.109 0.398 0.344 0.594 0.711 0.594v0.203h-0.711v0.113c0.234 0 0.355 0.168 0.355 0.508l-1 0.398 0.098 0.113v0.09c0 0.133-0.121 0.195-0.359 0.195v0.113c0.301 0 0.453 0.066 0.453 0.199-0.426 0.172-0.992 1.02-1.695 2.539-0.715 1.348-1.336 2.02-1.852 2.02h-0.191c-0.398-0.305-0.723-1.313-0.98-3.02-1.02-2.605-1.527-4.133-1.527-4.586 0-1.18-0.332-2.43-0.984-3.762-0.172-0.59-0.289-1.332-0.352-2.227l-0.434-0.109c-1.086 1.957-1.648 3.484-1.695 4.586-0.301 0.648-0.539 1.426-0.715 2.34 0.652 0.203 0.977 0.402 0.977 0.598v0.105c-0.508-0.07-0.863-0.219-1.07-0.43-0.227 0.52-0.52 1.941-0.887 4.273-0.289 1.082-0.641 1.625-1.074 1.625-1.207-0.473-2.223-1.254-3.03-2.332-0.129 0-0.34-0.543-0.625-1.629-0.176 0-0.293-0.539-0.359-1.621-0.602-1.539-1.016-3.301-1.238-5.273v-2.961h-0.098l-0.43 0.113v-0.113c0-0.137 0.145-0.199 0.43-0.199l-0.094-1.707v-1.34l-0.695-4.27v-0.828m11.488 0.043v0.113c0 0.148-0.379 0.313-1.145 0.48v-0.203l0.527-0.277 0.094 0.082h0.074m-2.129 0.828v0.082c-0.332 0.309-0.879 0.582-1.625 0.832v-0.199c0.129 0 0.191-0.105 0.191-0.316l1.434-0.395m13.508 0.109-0.043 0.367h0.168l0.102-0.082c-0.074-0.098-0.152-0.195-0.23-0.289m-8.965 0.887 0.098 0.113v0.082l-0.168 0.23h-0.094l-0.191-0.23v-0.082m3.648 0h0.094v0.082l-0.16 0.23h-0.098v-0.113l0.164-0.195m-1.504 1.418 0.359 0.289c-0.063 0.207-0.242 0.313-0.527 0.313l-0.191-0.313c0-0.098 0.121-0.191 0.355-0.289m2.152 1.313 0.07 0.109v0.09l-0.07 0.113h-0.191v-0.113m-3.195 0.824v0.09l-0.453 0.426h-0.262v-0.113c0-0.168 0.238-0.305 0.715-0.398m-14.809 3.957h0.098v0.094c-0.238 0.625-0.445 1-0.617 1.137h-0.188v-0.434m12.391 3.965h0.094v0.195l-0.715 0.434-0.094-0.113v-0.199l0.715-0.313m-9.813 1.336h0.164l0.285 1.105h-0.191l-0.258-1.023v-0.086m9.551 1.313h0.07l0.285 0.316-0.094 0.086h-0.098l-0.164-0.285"/>
</g>
</g>
</g>
<g clip-path="url(#clipPath-481582818-2)">
<!-- color: #f3ce08 -->
<path d="m24 9c-2.559 0-4.969 0.645-7.078 1.773h2.98v0.203c-0.395 0.02-0.664 0.125-0.809 0.313-0.301-0.211-0.598-0.313-0.883-0.313h-0.98l-0.547 0.086-0.098-0.086h-0.031c-0.391 0.223-0.77 0.465-1.137 0.723 0.84 1.207 1.348 2.246 1.523 3.121h0.813v0.203h-0.625v0.227c0.238 0.875 0.414 1.313 0.527 1.313h0.191l0.434-0.113 0.094 0.113 0.098-0.113 0.094 0.113v0.082c-0.32 0.23-0.535 0.543-0.645 0.945h-0.07v0.199h0.168c0.223 3.168 0.637 5.57 1.242 7.207l0.355 0.281h0.191c0.227 0 0.742-1.109 1.504-3.332 0.492-1 0.852-1.887 1.074-2.645l-0.105-0.316c0.496-0.738 1.016-1.109 1.531-1.109h0.168c0.332 0 0.57 0.211 0.711 0.629 0.449 0.625 0.813 1.57 1.078 2.824l1.34 2.961c0.172 0.211 0.258 0.445 0.258 0.711 0.492 1.121 0.941 1.863 1.348 2.223h0.289c0.332 0 0.77-1.387 1.332-4.16 0.098 0 0.355-0.738 0.793-2.223v-0.113l-1.512-0.195-0.352 0.109h-0.457v-0.227l0.91-0.09h1.766c0.688-2.449 1.316-4.348 1.887-5.699 0.063-0.859 0.133-1.57 0.203-2.168-1.039-0.859-2.195-1.586-3.441-2.145-0.105 0.234-0.297 0.352-0.602 0.352v-0.195l0.555-0.184c-1.855-0.824-3.914-1.281-6.078-1.281m-2.863 1.77h2.414v0.203l-0.547 0.086-0.531-0.086-0.453 0.199-0.16-0.199h-0.719v-0.203m4.988 1.629h0.262v0.086c0 0.133-0.09 0.195-0.262 0.195l-0.102 0.113v0.113l-0.262-0.113v-0.195m-12.465 0.879c-2.664 2.707-4.316 6.426-4.316 10.527 0 8.281 6.723 14.996 15 14.996 8.281 0 15-6.715 15-14.996 0-3.352-1.094-6.445-2.938-8.938-0.406 0.477-0.797 1.383-1.188 2.719-0.172 1.383-0.469 2.668-0.883 3.844-0.367 1.215-0.551 2.336-0.551 3.363l-0.691 2.023c0 0.168 0.27 0.34 0.789 0.508-0.098 0.402-0.234 0.598-0.434 0.598v0.113h0.168v0.086c0 0.211-0.273 0.313-0.813 0.313l0.098 0.113v0.402h-0.164c0.109 0.398 0.344 0.594 0.711 0.594v0.203h-0.711v0.113c0.234 0 0.355 0.168 0.355 0.508l-1 0.398 0.098 0.113v0.09c0 0.133-0.121 0.195-0.359 0.195v0.113c0.301 0 0.453 0.066 0.453 0.199-0.426 0.172-0.992 1.02-1.695 2.539-0.715 1.348-1.336 2.02-1.852 2.02h-0.191c-0.398-0.305-0.723-1.313-0.98-3.02-1.02-2.605-1.527-4.133-1.527-4.586 0-1.18-0.332-2.43-0.984-3.762-0.172-0.59-0.289-1.332-0.352-2.227l-0.434-0.109c-1.086 1.957-1.648 3.484-1.695 4.586-0.301 0.648-0.539 1.426-0.715 2.34 0.652 0.203 0.977 0.402 0.977 0.598v0.105c-0.508-0.07-0.863-0.219-1.07-0.43-0.227 0.52-0.52 1.941-0.887 4.273-0.289 1.082-0.641 1.625-1.074 1.625-1.207-0.473-2.223-1.254-3.03-2.332-0.129 0-0.34-0.543-0.625-1.629-0.176 0-0.293-0.539-0.359-1.621-0.602-1.539-1.016-3.301-1.238-5.273v-2.961h-0.098l-0.43 0.113v-0.113c0-0.137 0.145-0.199 0.43-0.199l-0.094-1.707v-1.34l-0.695-4.27v-0.828m11.488 0.043v0.113c0 0.148-0.379 0.313-1.145 0.48v-0.203l0.527-0.277 0.094 0.082h0.074m-2.129 0.828v0.082c-0.332 0.309-0.879 0.582-1.625 0.832v-0.199c0.129 0 0.191-0.105 0.191-0.316l1.434-0.395m13.508 0.109-0.043 0.367h0.168l0.102-0.082c-0.074-0.098-0.152-0.195-0.23-0.289m-8.965 0.887 0.098 0.113v0.082l-0.168 0.23h-0.094l-0.191-0.23v-0.082m3.648 0h0.094v0.082l-0.16 0.23h-0.098v-0.113l0.164-0.195m-1.504 1.418 0.359 0.289c-0.063 0.207-0.242 0.313-0.527 0.313l-0.191-0.313c0-0.098 0.121-0.191 0.355-0.289m2.152 1.313 0.07 0.109v0.09l-0.07 0.113h-0.191v-0.113m-3.195 0.824v0.09l-0.453 0.426h-0.262v-0.113c0-0.168 0.238-0.305 0.715-0.398m-14.809 3.957h0.098v0.094c-0.238 0.625-0.445 1-0.617 1.137h-0.188v-0.434m12.391 3.965h0.094v0.195l-0.715 0.434-0.094-0.113v-0.199l0.715-0.313m-9.813 1.336h0.164l0.285 1.105h-0.191l-0.258-1.023v-0.086m9.551 1.313h0.07l0.285 0.316-0.094 0.086h-0.098l-0.164-0.285" fill="#f9f9f9"/>
</g>
</g>
</g>
<rect transform="matrix(.53239 0 0 .52166 2.2387 19.259)" x="2" y="-30" width="75.966" height="69.024" rx="3.957" ry="3.957" clip-path="url(#clipPath4156-4-1)" fill="url(#linearGradient4767)" opacity=".7"/>
<g transform="matrix(1.2284 -.16853 -.07231 1.2968 -4.1278 -4.645)" clip-path="url(#clipPath-210452366-5)">
<!-- color: #f3f3f3 --></g>
</svg>
