<?xml version="1.0" encoding="UTF-8"?>
<svg version="1.1" viewBox="0 0 48 48" xmlns="http://www.w3.org/2000/svg" xmlns:cc="http://creativecommons.org/ns#" xmlns:dc="http://purl.org/dc/elements/1.1/" xmlns:rdf="http://www.w3.org/1999/02/22-rdf-syntax-ns#" xmlns:xlink="http://www.w3.org/1999/xlink">
<metadata>
<rdf:RDF>
<cc:Work rdf:about="">
<dc:format>image/svg+xml</dc:format>
<dc:type rdf:resource="http://purl.org/dc/dcmitype/StillImage"/>
</cc:Work>
</rdf:RDF>
</metadata>
<defs>
<linearGradient id="linearGradient4071" x1="6" x2="90" y1="47" y2="47" gradientTransform="matrix(.55126 0 0 .55126 -2.4607 -1.9094)" gradientUnits="userSpaceOnUse">
<stop stop-color="#b2babc" offset="0"/>
<stop stop-color="#fff" offset=".25"/>
<stop stop-color="#96a1a4" offset=".5"/>
<stop stop-color="#fbf9f9" offset=".75"/>
<stop stop-color="#b2b9bc" offset="1"/>
</linearGradient>
<linearGradient id="linearGradient4129" x1="1.5" x2="94.5" y1="88.172" y2="88.172" gradientTransform="matrix(.49792 0 0 .49792 .099999 .1)" gradientUnits="userSpaceOnUse">
<stop offset="0"/>
<stop stop-opacity=".58824" offset=".1"/>
<stop stop-opacity=".58824" offset=".9"/>
<stop offset="1"/>
</linearGradient>
<radialGradient id="radialGradient7462" cx="13.948" cy="44.893" r="43.199" gradientTransform="matrix(.48554 0 0 .024493 16.979 40.016)" gradientUnits="userSpaceOnUse" xlink:href="#linearGradient3737"/>
<linearGradient id="linearGradient3737">
<stop stop-color="#fff" offset="0"/>
<stop stop-color="#fff" stop-opacity="0" offset="1"/>
</linearGradient>
<radialGradient id="radialGradient7464" cx="13.948" cy="44.893" r="43.199" gradientTransform="matrix(.44231 0 0 .024493 15.807 -44.996)" gradientUnits="userSpaceOnUse" xlink:href="#linearGradient3737"/>
<linearGradient id="linearGradient4767" x1="2.7714" x2="50.528" y1="-28.642" y2="14.514" gradientUnits="userSpaceOnUse" xlink:href="#linearGradient3737"/>
<clipPath id="clipPath4156-4-1">
<path d="m27.046-55.695-14.214 13.321h0.06127l15.653 21.771 10.231-10.546c-0.2169-1.1522-11.311-23.67-11.732-24.546zm-17.399 16.313-14.888 14.062 21.229 17.515 10.385-10.577zm31.491 12.951-9.7413 9.7136 8.9448 12.458 7.7808-7.555zm-49.84 4.3788-13.754 12.982 26.283 13.846 0.06127-0.0617-0.12253-0.0617 9.8332-10.053-22.301-16.652zm38.015 7.4008-9.8025 9.7753 11.579 9.5594 7.6276-7.4008-8.6691-11.009zm20.187 5.674-7.3825 7.2158 6.1878 8.5418 5.8202-6.1365zm-32.195 6.3215-9.5575 9.4977 13.662 7.185 7.9339-7.6784zm23.312 2.3744-7.1068 6.9383 8.3628 6.9074 5.3608-5.674-0.06127-0.0925-0.0919 0.12335-6.4635-8.2026zm-8.7304 8.5418-7.5051 7.3392 10.354 5.4581c1.3975-1.321 5.6751-6.1229 5.8509-6.3215z" fill="#fff" opacity=".6"/>
</clipPath>
<clipPath id="clipPath-700949347-3">
<g transform="translate(0 -1004.4)">
<path transform="matrix(15.333 0 0 11.5 415 878.86)" d="m-24 13c0 1.105-0.672 2-1.5 2s-1.5-0.895-1.5-2 0.672-2 1.5-2 1.5 0.895 1.5 2z" fill="#1890d0"/>
</g>
</clipPath>
<clipPath id="clipPath-708417192-5">
<g transform="translate(0 -1004.4)">
<path transform="matrix(15.333 0 0 11.5 415 878.86)" d="m-24 13c0 1.105-0.672 2-1.5 2s-1.5-0.895-1.5-2 0.672-2 1.5-2 1.5 0.895 1.5 2z" fill="#1890d0"/>
</g>
</clipPath>
</defs>
<path d="m44.486 0.1h-40.971c-1.8915 0-3.4143 1.5228-3.4143 3.4143v40.971c0 1.8915 1.5228 3.4143 3.4143 3.4143h40.971c1.8915 0 3.4143-1.5228 3.4143-3.4143v-40.971c0-1.8915-1.5228-3.4143-3.4143-3.4143z" opacity=".15"/>
<path d="m44.166 0.47344h-40.331c-1.862 0-3.3609 1.499-3.3609 3.3609v40.331c0 1.862 1.499 3.3609 3.3609 3.3609h40.331c1.862 0 3.3609-1.499 3.3609-3.3609v-40.331c0-1.862-1.499-3.3609-3.3609-3.3609z" opacity=".15"/>
<path d="m43.846 0.84687h-39.691c-1.8324 0-3.3076 1.4752-3.3076 3.3076v39.691c0 1.8324 1.4752 3.3076 3.3076 3.3076h39.691c1.8324 0 3.3076-1.4752 3.3076-3.3076v-39.691c0-1.8324-1.4752-3.3076-3.3076-3.3076z" fill="url(#linearGradient4071)"/>
<path d="m5.6972 3.2803c-1.4223 0-2.5514 1.153-2.5514 2.6055v34.556c0.54633 0.84876 1.4782 1.4167 2.5514 1.4167h37.521c1.0732 0 1.2236 0.01811 1.7699-0.83064v-35.142c0-1.4525-1.1291-2.6055-2.5514-2.6055z" fill="#3f535f" opacity=".98"/>
<path d="m4.9921 2.4549c-1.5518 0-2.8222 1.2645-2.8222 2.8112v34.495c0 1.5468 1.2704 2.8112 2.8222 2.8112h38.236c1.5518 0 2.8222-1.2645 2.8222-2.8112v-34.495c0-1.5468-1.2704-2.8112-2.8222-2.8112zm0 1.1549h38.236c0.94012 0 1.669 0.73696 1.669 1.6564v34.495c0 0.91939-0.72891 1.6564-1.669 1.6564h-38.236c-0.94012 0-1.669-0.73696-1.669-1.6564v-34.495c0-0.91939 0.72891-1.6564 1.669-1.6564z" color="#000000" fill="#1f2224" fill-opacity=".8087" style="text-decoration-line:none;text-indent:0;text-transform:none"/>
<path d="m0.84687 40.851v2.9875c0 1.8324 1.4819 3.3143 3.3143 3.3143h39.678c1.8324 0 3.3143-1.4819 3.3143-3.3143v-2.9875c0 1.8324-1.4819 3.3143-3.3143 3.3143h-39.678c-1.8324 0-3.3143-1.4819-3.3143-3.3143z" fill="url(#linearGradient4129)" opacity=".65818"/>
<rect x="2.7763" y="40.058" width="41.949" height="2.1161" rx="0" ry="2.1161" fill="url(#radialGradient7462)" opacity=".55"/>
<rect transform="rotate(90)" x="2.8684" y="-44.955" width="38.215" height="2.1161" rx="0" ry="2.1161" fill="url(#radialGradient7464)" opacity=".669"/>
<g transform="matrix(1.2275 0 0 1.2275 81.307 40.513)">
<g transform="translate(-71.186 -38.847)">
<g clip-path="url(#clipPath-700949347-3)">
<g transform="translate(1,1)">
<g opacity=".1">
<!-- color: #455b68 -->
<path d="m24 11c-4 1.172-8 2.348-12 3.523 0.293 8.723 2.531 19.363 12 22.477 9.57-3.02 11.594-13.848 12-22.477-4-1.176-8-2.352-12-3.523" fill-rule="evenodd"/>
</g>
</g>
</g>
<g clip-path="url(#clipPath-708417192-5)">
<!-- color: #455b68 -->
<g fill-rule="evenodd">
<path d="m24 11c-4 1.172-8 2.348-12 3.523 0.293 8.723 2.531 19.363 12 22.477 9.57-3.02 11.594-13.848 12-22.477-4-1.176-8-2.352-12-3.523" fill="#f4d68e"/>
<path d="m26.754 27.82h-4e-3l0.445-0.367c-0.184-0.148-0.52-0.594-0.746-1.059-0.207-0.051-0.633-0.188-0.813-0.344l-0.367 0.25-4e-3 4e-3 -0.371 0.242c0.145 0.184 0.215 0.555 0.234 0.734 0.5 0.281 0.953 0.648 1.086 0.828l0.527-0.285v4e-3l8e-3 -4e-3" fill="#2d2d2d"/>
<path d="m17.727 17.852c2.809 2.789 5.539 5.594 8.285 8.402 0.047 0.34 0.539 0.723 0.867 1.043l-0.777 0.523c-0.367-0.344-0.629-0.789-1.055-0.887-2.75-2.785-5.508-5.57-8.223-8.41-0.73-0.801-1.215-1.684-1.824-2.523 0.91 0.617 1.902 1.09 2.727 1.852" fill="#2d2d2d"/>
<path d="m29.82 30.04c-0.043-0.031-0.082-0.012-0.141-0.082-0.773-0.691-1.402-1.309-2.055-2.02-0.039-0.047-0.09-0.109-0.098-0.176l-0.5 0.32-0.484 0.336c0.078 0.023 0.145 0.078 0.191 0.117 0.691 0.68 1.285 1.32 1.941 2.09 0.063 0.066 0.035 0.094 0.063 0.133l0.531-0.367" fill="#2d2d2d"/>
<path d="m27.05 28.1 0.488-0.332s-0.152-0.055-0.125-0.129c0.023-0.074 0.453-0.34 0.602-0.426-0.031-0.066-0.137-0.152-0.211-0.203-0.285 0.215-0.895 0.012-1.266 0.352 8e-3 -0.117-0.109-0.281-0.293-0.344 0.051 0.164 0.145 0.383 0.129 0.418-0.047 8e-3 -0.262-0.125-0.441-0.199 0.031 0.16 0.199 0.289 0.34 0.309-0.477 0.23-0.367 0.766-0.68 0.953 0.043 0.07 0.129 0.176 0.195 0.211 0.133-0.102 0.535-0.391 0.629-0.395 0.09-8e-3 0.117 0.109 0.117 0.109l0.516-0.324" fill="#2d2d2d"/>
<path d="m29.797 30.03c0.031 0.043 0 0.07 0.066 0.133 0.277 0.27 0.543 0.211 0.98 0.641 0.617 0.637-0.746 1.617-1.398 1-0.473-0.457-0.332-0.715-0.582-0.973-0.063-0.07-0.102-0.047-0.145-0.078l0.547-0.355" fill="#2d2d2d"/>
<path d="m20.223 26.797 0.414 0.391c0.141-0.18 0.59-0.527 1.07-0.77 0.043-0.195 0.16-0.602 0.316-0.785l-0.285-0.328-4e-3 -4e-3 -0.281-0.332c-0.184 0.152-0.57 0.242-0.762 0.27-0.266 0.488-0.629 0.938-0.813 1.074l0.332 0.477 8e-3 8e-3" fill="#2d2d2d"/>
<path d="m30.21 17.68c-2.777 2.813-5.574 5.559-8.379 8.32-0.355 0.07-0.73 0.555-1.051 0.883l-0.594-0.695c0.336-0.363 0.793-0.641 0.871-1.047 2.77-2.762 5.551-5.531 8.387-8.266 0.805-0.738 1.707-1.25 2.559-1.875-0.602 0.895-1.039 1.859-1.793 2.684" fill="#2d2d2d"/>
<path d="m18.06 29.82c0.027-0.039 8e-3 -0.074 0.078-0.141 0.688-0.766 1.301-1.398 2-2.059 0.051-0.035 0.109-0.086 0.18-0.102l-0.371-0.445-0.379-0.434c-0.02 0.078-0.074 0.141-0.113 0.188-0.676 0.695-1.313 1.293-2.09 1.957-0.063 0.066-0.098 0.039-0.137 0.066l0.422 0.477 0.406 0.488" fill="#2d2d2d"/>
<path d="m19.945 27.09 0.379 0.441s0.051-0.148 0.129-0.129c0.078 0.016 0.387 0.402 0.484 0.535 0.063-0.031 0.152-0.137 0.199-0.211-0.242-0.254-0.066-0.84-0.445-1.164 0.129 0 0.293-0.121 0.348-0.293-0.168 0.055-0.395 0.16-0.43 0.145-8e-3 -0.043 0.117-0.25 0.184-0.426-0.168 0.039-0.297 0.203-0.309 0.34-0.27-0.43-0.824-0.297-1.043-0.578-0.074 0.047-0.18 0.137-0.215 0.195 0.113 0.121 0.445 0.48 0.457 0.566s-0.109 0.117-0.109 0.117 0.371 0.461 0.371 0.461" fill="#2d2d2d"/>
<path d="m18.07 29.797c-0.039 0.031-0.07 4e-3 -0.133 0.074-0.27 0.273-0.195 0.523-0.617 0.957-0.637 0.625-1.75-0.59-1.141-1.242 0.453-0.477 0.738-0.359 0.988-0.613 0.07-0.063 0.047-0.098 0.078-0.137l0.406 0.488" fill="#2d2d2d"/>
</g>
</g>
</g>
</g>
<rect transform="matrix(.53239 0 0 .52166 2.2387 19.259)" x="2" y="-30" width="75.966" height="69.024" rx="3.957" ry="3.957" clip-path="url(#clipPath4156-4-1)" fill="url(#linearGradient4767)" opacity=".7"/>
</svg>
