<?xml version="1.0" encoding="UTF-8"?>
<!-- Created with Inkscape (http://www.inkscape.org/) -->
<svg version="1.1" viewBox="0 0 96 96" xmlns="http://www.w3.org/2000/svg" xmlns:cc="http://creativecommons.org/ns#" xmlns:dc="http://purl.org/dc/elements/1.1/" xmlns:rdf="http://www.w3.org/1999/02/22-rdf-syntax-ns#" xmlns:xlink="http://www.w3.org/1999/xlink">
<defs>
<linearGradient id="linearGradient3904">
<stop stop-color="#fff" offset="0"/>
<stop stop-color="#fff" stop-opacity="0" offset="1"/>
</linearGradient>
<linearGradient id="ButtonShadow" x1="45.448" x2="45.448" y1="92.54" y2="7.0165" gradientTransform="scale(1.0059 .99417)" gradientUnits="userSpaceOnUse">
<stop offset="0"/>
<stop stop-opacity=".58824" offset="1"/>
</linearGradient>
<filter id="filter3174" color-interpolation-filters="sRGB">
<feGaussianBlur stdDeviation="1.71"/>
</filter>
<linearGradient id="linearGradient3665" x1="58.102" x2="58.102" y1="15.531" y2="61.944" gradientTransform="matrix(.75037 0 0 .88806 2.9573 -5.4302)" gradientUnits="userSpaceOnUse">
<stop stop-color="#009bde" stop-opacity=".74118" offset="0"/>
<stop stop-color="#77e2ff" stop-opacity="0" offset="1"/>
</linearGradient>
<linearGradient id="linearGradient3839" x1="45.448" x2="45.448" y1="92.54" y2="7.0165" gradientTransform="scale(1.0059 .99417)" gradientUnits="userSpaceOnUse" xlink:href="#ButtonShadow"/>
<linearGradient id="linearGradient3837" x1="2.7714" x2="50.528" y1="-28.642" y2="14.514" gradientUnits="userSpaceOnUse" xlink:href="#linearGradient3904"/>
<radialGradient id="radialGradient3833" cx="13.948" cy="44.893" r="43.199" gradientTransform="matrix(.88833 0 0 .049191 16.069 -98.752)" gradientUnits="userSpaceOnUse" xlink:href="#linearGradient3904"/>
<radialGradient id="radialGradient3831" cx="13.948" cy="44.893" r="43.199" gradientTransform="matrix(.97513 0 0 .049191 41.943 65.501)" gradientUnits="userSpaceOnUse" xlink:href="#linearGradient3904"/>
<linearGradient id="linearGradient3829" x1="1.5" x2="94.5" y1="88.172" y2="88.172" gradientTransform="translate(8.044 -14.666)" gradientUnits="userSpaceOnUse">
<stop offset="0"/>
<stop stop-opacity=".58824" offset=".1"/>
<stop stop-opacity=".58824" offset=".9"/>
<stop offset="1"/>
</linearGradient>
<radialGradient id="radialGradient3827" cx="48" cy="-27" r="42" gradientTransform="matrix(-1.0722 0 0 -.87502 199.46 -19.126)" gradientUnits="userSpaceOnUse">
<stop stop-color="#fff" offset="0"/>
<stop stop-color="#fff" offset=".8"/>
<stop stop-color="#fff" stop-opacity="0" offset="1"/>
</radialGradient>
<linearGradient id="linearGradient3825" x1="6" x2="90" y1="47" y2="47" gradientTransform="matrix(1.1071 0 0 1.1071 2.9011 -18.701)" gradientUnits="userSpaceOnUse">
<stop stop-color="#adb4c1" offset="0"/>
<stop stop-color="#fff" offset=".25"/>
<stop stop-color="#9095aa" offset=".5"/>
<stop stop-color="#fbf9f9" offset=".75"/>
<stop stop-color="#adb3c1" offset="1"/>
</linearGradient>
<filter id="filter3174-36" color-interpolation-filters="sRGB">
<feGaussianBlur stdDeviation="1.71"/>
</filter>
<filter id="filter3174-3" color-interpolation-filters="sRGB">
<feGaussianBlur stdDeviation="1.71"/>
</filter>
<clipPath id="clipPath4156-4">
<path d="m27.046-55.695-14.214 13.321h0.06127l15.653 21.771 10.231-10.546c-0.2169-1.1522-11.311-23.67-11.732-24.546zm-17.399 16.313-14.888 14.062 21.229 17.515 10.385-10.577-16.726-21zm31.491 12.951-9.7413 9.7136 8.9448 12.458 7.7808-7.555-6.9843-14.617zm-49.84 4.3788-13.754 12.982 26.283 13.846 0.06127-0.0617-0.12253-0.0617 9.8332-10.053-22.301-16.652zm38.015 7.4008-9.8025 9.7753 11.579 9.5594 7.6276-7.4008-8.6691-11.009-0.73519-0.9251zm20.187 5.674-7.3825 7.2158 6.1878 8.5418 5.8202-6.1365-4.6256-9.6211zm-32.195 6.3215-9.5575 9.4977 13.662 7.185 7.9339-7.6784-12.039-9.0043zm23.312 2.3744-7.1068 6.9383 8.3628 6.9074 5.3608-5.674-0.06127-0.0925-0.0919 0.12335-6.4635-8.2026zm-8.7304 8.5418-7.5051 7.3392 10.354 5.4581c1.3975-1.321 5.6751-6.1229 5.8509-6.3215l-8.6997-6.4757z" fill="#fff" opacity=".6"/>
</clipPath>
<filter id="filter3174-6" color-interpolation-filters="sRGB">
<feGaussianBlur stdDeviation="1.71"/>
</filter>
<radialGradient id="radialGradient4133-4" cx="64.134" cy="88.987" r="39.753" gradientTransform="matrix(.73385 5.8171e-8 -5.941e-8 .74948 3.9161 -9.8943)" gradientUnits="userSpaceOnUse">
<stop stop-color="#15517e" offset="0"/>
<stop stop-color="#202528" offset="1"/>
</radialGradient>
<radialGradient id="radialGradient3709-7" cx="76.208" cy="81.276" r="2.7485" gradientTransform="matrix(2.0474 0 0 2.0474 -105.04 -140.31)" gradientUnits="userSpaceOnUse">
<stop stop-color="#c0ff67" offset="0"/>
<stop stop-color="#68b300" stop-opacity="0" offset="1"/>
</radialGradient>
<filter id="filter3737-9" x="-.12734" y="-.3069" width="1.2547" height="1.6138" color-interpolation-filters="sRGB">
<feGaussianBlur stdDeviation="0.75639026"/>
</filter>
</defs>
<metadata>
<rdf:RDF>
<cc:Work rdf:about="">
<dc:format>image/svg+xml</dc:format>
<dc:type rdf:resource="http://purl.org/dc/dcmitype/StillImage"/>
<dc:title/>
</cc:Work>
</rdf:RDF>
</metadata>
<g transform="translate(0,48)">
<g transform="translate(-.30841 -42.922)" enable-background="new">
<g transform="matrix(.99266 0 0 .9812 .3546 .80687)">
<g transform="matrix(1.0074 0 0 1.0192 -.046527 -5.998)">
<g display="none">
<rect x="5" y="7" width="86" height="85" rx="6" ry="6" fill="url(#linearGradient3839)" filter="url(#filter3174)" opacity=".9"/>
</g>
<g transform="translate(-1e-6,32)">
<g transform="translate(-8.044 -17.334)">
<path d="m97.187-14.666h-82.286c-3.7988 0-6.8571 3.0583-6.8571 6.8571v82.286c0 3.7989 3.0583 6.8571 6.8571 6.8571h82.286c3.7989 0 6.8571-3.0583 6.8571-6.8571v-82.286c0-3.7989-3.0583-6.8571-6.8571-6.8571z" opacity=".15"/>
<path d="m96.544-13.916h-81c-3.7395 0-6.75 3.0105-6.75 6.75v81c0 3.7395 3.0105 6.75 6.75 6.75h81c3.7395 0 6.75-3.0105 6.75-6.75v-81c0-3.7395-3.0105-6.75-6.75-6.75z" opacity=".15"/>
<path d="m95.901-13.166h-79.714c-3.6801 0-6.6429 2.9627-6.6429 6.6429v79.714c0 3.6801 2.9627 6.6429 6.6429 6.6429h79.714c3.6801 0 6.6429-2.9627 6.6429-6.6429v-79.714c0-3.6801-2.9627-6.6429-6.6429-6.6429z" fill="url(#linearGradient3825)"/>
<rect x="13.837" y="-8.0546" width="84.846" height="77.52" ry="4.25" fill="#cccccf" stroke="#fff" stroke-linecap="round" stroke-linejoin="round" stroke-width=".4"/>
<g transform="translate(7.9504 -16.522)">
<g transform="translate(-2.8872 2.8414)">
<path d="m85.768 45.02a34.787 34.787 0 0 1-69.575 0 34.787 34.787 0 1 1 69.575 0z" fill="url(#radialGradient4133-4)"/>
<path d="m50.981 10.222c-19.203 0-34.798 18.457-34.798 41.184 0 2.8805 0.27401 5.6947 0.75037 8.4088 3.2856-12.85 17.282-22.507 34.048-22.507 16.765 0 30.762 9.6565 34.048 22.507 0.47636-2.7141 0.75037-5.5283 0.75037-8.4088 0-22.726-15.596-41.184-34.798-41.184z" fill="url(#linearGradient3665)"/>
<path d="m56.608 26.087a5.6271 5.6271 0 0 1-11.254 0 5.6271 5.6271 0 1 1 11.254 0z" fill="url(#radialGradient3709-7)"/>
<path transform="matrix(.75037 0 0 .75037 31.074 1.1106)" d="m13.762 37.555c9.3442-5.0418 14.667-1.6964 14.23-4.2379-0.60149-3.5032-5.9365-1.2452-14.23 4.2379z" fill="#13e6ff" fill-rule="evenodd" filter="url(#filter3737-9)" opacity=".70656"/>
</g>
<g transform="matrix(.85793 0 0 .84803 -25.94 26.79)" enable-background="new">
<path d="m86.344-1.1553c-13.552 0-27.168 5.3761-37.508 16.055l7.0202 7.1472c16.841-17.394 44.135-17.394 60.976 0l6.9199-7.1472c-10.34-10.679-23.856-16.055-37.408-16.055zm0 14.087c-10.061 0-20.104 3.9835-27.78 11.912l6.6191 6.8364c11.671-12.054 30.651-12.054 42.322 0l6.619-6.8364c-7.6763-7.9284-17.719-11.912-27.78-11.912zm0 13.258c-6.7759 0-13.584 2.6362-18.754 7.9758l18.754 19.37 18.654-19.266c-0.0172-0.01751 0.0172-0.08604 0-0.10359-5.1698-5.3396-11.878-7.9758-18.654-7.9758z" fill="#fff" fill-opacity=".71583"/>
</g>
</g>
<g transform="matrix(1.1071 0 0 1.1071 -107.81 -18.148)">
<path d="m112 4.5c-3.324 0-6 2.676-6 6v15h1v-15c0-2.7873 2.2127-5 5-5h72c2.7873 0 5 2.2127 5 5v15h1v-15c0-3.324-2.676-6-6-6h-72z" fill="url(#radialGradient3827)" opacity=".45"/>
</g>
<path d="m9.544 67.178v6c0 3.6801 2.9761 6.6562 6.6562 6.6562h79.688c3.6801 0 6.6563-2.9761 6.6563-6.6562v-6c0 3.6801-2.9761 6.6562-6.6563 6.6562h-79.688c-3.6801 0-6.6562-2.9761-6.6562-6.6562z" fill="url(#linearGradient3829)" opacity=".89091"/>
<rect x="13.419" y="65.584" width="84.25" height="4.25" rx="0" ry="4.25" fill="url(#radialGradient3831)" opacity=".55"/>
<rect transform="rotate(90)" x="-9.9156" y="-98.669" width="76.75" height="4.25" rx="0" ry="4.25" fill="url(#radialGradient3833)" opacity=".55"/>
<g transform="translate(251.29 -104.9)">
<g display="none">
<rect x="5" y="7" width="86" height="85" rx="6" ry="6" fill="url(#linearGradient3839)" filter="url(#filter3174-3)" opacity=".9"/>
</g>
</g>
<path d="m17.816-8.0221c-1.9934 0-3.6045 1.6493-3.6088 3.6845l-0.14822 69.961c1.9137 2.5211 1.6653 2.4108 4.8515 2.6791 1.8042-14.861 36.499-73.336 77.418-73.336 0.48808 0 0.96327 0.01986 1.4492 0.02901-0.30286-1.718-1.751-3.0172-3.5236-3.0172z" fill="#fff" opacity=".3"/>
<rect transform="matrix(.9093 0 0 .92838 12.389 19.829)" x="2" y="-30" width="92" height="92" rx="3.957" ry="3.957" clip-path="url(#clipPath4156-4)" fill="url(#linearGradient3837)"/>
<path d="m17.869-9.9361c-3.1166 0-5.668 2.5395-5.668 5.646v69.278c0 3.1065 2.5513 5.646 5.668 5.646h76.792c3.1166 0 5.668-2.5395 5.668-5.646v-69.278c0-3.1065-2.5513-5.646-5.668-5.646h-76.792zm0 2.3194h76.792c1.8881 0 3.352 1.4801 3.352 3.3266v69.278c0 1.8465-1.4639 3.3266-3.352 3.3266h-76.792c-1.8881 0-3.352-1.4801-3.352-3.3266v-69.278c0-1.8465 1.4639-3.3266 3.352-3.3266z" color="#000000" enable-background="accumulate" fill="#241f1f" fill-opacity=".63265" style="block-progression:tb;text-decoration-line:none;text-indent:0;text-transform:none"/>
</g>
</g>
<g display="none">
<rect x="5" y="7" width="86" height="85" rx="6" ry="6" fill="url(#linearGradient3839)" filter="url(#filter3174-36)" opacity=".9"/>
</g>
<g display="none">
<rect x="5" y="7" width="86" height="85" rx="6" ry="6" fill="url(#linearGradient3839)" filter="url(#filter3174-6)" opacity=".9"/>
</g>
</g>
</g>
</g>
</g>
</svg>
