<?xml version="1.0" encoding="UTF-8"?>
<!-- Created with Inkscape (http://www.inkscape.org/) -->
<svg version="1.1" viewBox="0 0 96 96" xmlns="http://www.w3.org/2000/svg" xmlns:cc="http://creativecommons.org/ns#" xmlns:dc="http://purl.org/dc/elements/1.1/" xmlns:rdf="http://www.w3.org/1999/02/22-rdf-syntax-ns#" xmlns:xlink="http://www.w3.org/1999/xlink">
<defs>
<linearGradient id="linearGradient3825" x1="6" x2="90" y1="47" y2="47" gradientTransform="matrix(1.1071 0 0 1.1071 2.9011 -18.701)" gradientUnits="userSpaceOnUse">
<stop stop-color="#adb4c1" offset="0"/>
<stop stop-color="#fff" offset=".25"/>
<stop stop-color="#9095aa" offset=".5"/>
<stop stop-color="#fbf9f9" offset=".75"/>
<stop stop-color="#adb3c1" offset="1"/>
</linearGradient>
<radialGradient id="radialGradient3827" cx="48" cy="-27" r="42" gradientTransform="matrix(-1.0722 0 0 -.87502 199.46 -19.126)" gradientUnits="userSpaceOnUse">
<stop stop-color="#fff" offset="0"/>
<stop stop-color="#fff" offset=".8"/>
<stop stop-color="#fff" stop-opacity="0" offset="1"/>
</radialGradient>
<linearGradient id="linearGradient3829" x1="1.5" x2="94.5" y1="88.172" y2="88.172" gradientTransform="translate(8.044 -14.666)" gradientUnits="userSpaceOnUse">
<stop offset="0"/>
<stop stop-opacity=".58824" offset=".1"/>
<stop stop-opacity=".58824" offset=".9"/>
<stop offset="1"/>
</linearGradient>
<linearGradient id="linearGradient3835" x1="45.448" x2="45.448" y1="92.54" y2="7.0165" gradientTransform="scale(1.0059 .99417)" gradientUnits="userSpaceOnUse">
<stop offset="0"/>
<stop stop-opacity=".58824" offset="1"/>
</linearGradient>
<filter id="filter3174-3" color-interpolation-filters="sRGB">
<feGaussianBlur stdDeviation="1.71"/>
</filter>
<clipPath id="clipPath4156-4-6">
<path d="m27.046-55.695-14.214 13.321h0.06127l15.653 21.771 10.231-10.546c-0.2169-1.1522-11.311-23.67-11.732-24.546zm-17.399 16.313-14.888 14.062 21.229 17.515 10.385-10.577-16.726-21zm31.491 12.951-9.7413 9.7136 8.9448 12.458 7.7808-7.555-6.9843-14.617zm-49.84 4.3788-13.754 12.982 26.283 13.846 0.06127-0.0617-0.12253-0.0617 9.8332-10.053-22.301-16.652zm38.015 7.4008-9.8025 9.7753 11.579 9.5594 7.6276-7.4008-8.6691-11.009-0.73519-0.9251zm20.187 5.674-7.3825 7.2158 6.1878 8.5418 5.8202-6.1365-4.6256-9.6211zm-32.195 6.3215-9.5575 9.4977 13.662 7.185 7.9339-7.6784-12.039-9.0043zm23.312 2.3744-7.1068 6.9383 8.3628 6.9074 5.3608-5.674-0.06127-0.0925-0.0919 0.12335-6.4635-8.2026zm-8.7304 8.5418-7.5051 7.3392 10.354 5.4581c1.3975-1.321 5.6751-6.1229 5.8509-6.3215l-8.6997-6.4757z" fill="#fff" opacity=".6"/>
</clipPath>
<linearGradient id="linearGradient4967" x1="2.7714" x2="50.528" y1="-28.642" y2="14.514" gradientUnits="userSpaceOnUse">
<stop stop-color="#fff" offset="0"/>
<stop stop-color="#fff" stop-opacity="0" offset="1"/>
</linearGradient>
<radialGradient id="radialGradient3833-1" cx="13.948" cy="44.893" r="43.199" gradientTransform="matrix(.88833 0 0 .049191 29.382 -89.635)" gradientUnits="userSpaceOnUse" xlink:href="#linearGradient4133-5"/>
<linearGradient id="linearGradient4133-5">
<stop stop-color="#fff" offset="0"/>
<stop stop-color="#fff" stop-opacity="0" offset="1"/>
</linearGradient>
<radialGradient id="radialGradient4992" cx="13.948" cy="44.893" r="43.199" gradientTransform="matrix(.97513 0 0 .049191 32.735 78.814)" gradientUnits="userSpaceOnUse" xlink:href="#linearGradient4133-5"/>
<radialGradient id="radialGradient5037" cx="48" cy="46" r="42.423" gradientTransform="matrix(1 0 0 .91365 0 3.9719)" gradientUnits="userSpaceOnUse">
<stop stop-color="#f6f6f6" offset="0"/>
<stop stop-color="#dcdcdc" offset="1"/>
</radialGradient>
<radialGradient id="radialGradient4333" cx="32" cy="32" r="8" gradientTransform="translate(40.367 94.075)" gradientUnits="userSpaceOnUse" xlink:href="#linearGradient4215"/>
<linearGradient id="linearGradient4215">
<stop stop-color="#ffb800" offset="0"/>
<stop stop-color="#ffb800" stop-opacity="0" offset="1"/>
</linearGradient>
<radialGradient id="radialGradient3556" cx="29.095" cy="31.602" r="7.2449" gradientTransform="rotate(30 -127.11 161.02)" gradientUnits="userSpaceOnUse" xlink:href="#linearGradient4223"/>
<linearGradient id="linearGradient4223">
<stop stop-color="#ffe375" offset="0"/>
<stop stop-color="#ffa600" offset="1"/>
</linearGradient>
<linearGradient id="linearGradient4238" x1="48" x2="55.078" y1="56" y2="56" gradientUnits="userSpaceOnUse">
<stop offset="0"/>
<stop stop-color="#a5a5a5" offset=".3"/>
<stop stop-color="#4c4c4c" offset=".6"/>
<stop offset="1"/>
</linearGradient>
<linearGradient id="linearGradient4240" x1="48" x2="56.154" y1="56" y2="56" gradientUnits="userSpaceOnUse" xlink:href="#linearGradient4654"/>
<linearGradient id="linearGradient4654">
<stop stop-color="#a5a5a5" offset="0"/>
<stop stop-color="#fff" offset=".3"/>
<stop stop-color="#a5a5a5" offset=".6"/>
<stop stop-color="#636363" offset="1"/>
</linearGradient>
<linearGradient id="linearGradient4242" x1="48" x2="55.869" y1="56" y2="56" gradientTransform="matrix(1,0,0,-1,0,112)" gradientUnits="userSpaceOnUse" xlink:href="#linearGradient4654"/>
</defs>
<metadata>
<rdf:RDF>
<cc:Work rdf:about="">
<dc:format>image/svg+xml</dc:format>
<dc:type rdf:resource="http://purl.org/dc/dcmitype/StillImage"/>
<dc:title/>
</cc:Work>
</rdf:RDF>
</metadata>
<g transform="translate(0,32)">
<g transform="translate(-8.044 -17.334)">
<path d="m97.187-14.666h-82.286c-3.7988 0-6.8571 3.0583-6.8571 6.8571v82.286c0 3.7989 3.0583 6.8571 6.8571 6.8571h82.286c3.7989 0 6.8571-3.0583 6.8571-6.8571v-82.286c0-3.7989-3.0583-6.8571-6.8571-6.8571z" opacity=".15"/>
<path d="m96.544-13.916h-81c-3.7395 0-6.75 3.0105-6.75 6.75v81c0 3.7395 3.0105 6.75 6.75 6.75h81c3.7395 0 6.75-3.0105 6.75-6.75v-81c0-3.7395-3.0105-6.75-6.75-6.75z" opacity=".15"/>
<path d="m95.901-13.166h-79.714c-3.6801 0-6.6429 2.9627-6.6429 6.6429v79.714c0 3.6801 2.9627 6.6429 6.6429 6.6429h79.714c3.6801 0 6.6429-2.9627 6.6429-6.6429v-79.714c0-3.6801-2.9627-6.6429-6.6429-6.6429z" fill="url(#linearGradient3825)"/>
<g transform="matrix(1.1071 0 0 1.1071 -107.81 -18.148)">
<path d="m112 4.5c-3.324 0-6 2.676-6 6v15h1v-15c0-2.7873 2.2127-5 5-5h72c2.7873 0 5 2.2127 5 5v15h1v-15c0-3.324-2.676-6-6-6z" fill="url(#radialGradient3827)" opacity=".45"/>
</g>
<path d="m9.544 67.178v6c0 3.6801 2.9761 6.6562 6.6562 6.6562h79.688c3.6801 0 6.6563-2.9761 6.6563-6.6562v-6c0 3.6801-2.9761 6.6562-6.6563 6.6562h-79.688c-3.6801 0-6.6562-2.9761-6.6562-6.6562z" fill="url(#linearGradient3829)" opacity=".89091"/>
<g transform="translate(251.29 -104.9)">
<g display="none">
<rect x="5" y="7" width="86" height="85" rx="6" ry="6" fill="url(#linearGradient3835)" filter="url(#filter3174-3)" opacity=".9"/>
</g>
</g>
</g>
</g>
<g>
<rect x="5.5768" y="7.2399" width="84.846" height="77.52" ry="4.25" fill="url(#radialGradient5037)"/>
<path d="m9.6041 5.715c-3.1166 0-5.668 2.5395-5.668 5.646v69.278c0 3.1065 2.5513 5.646 5.668 5.646h76.792c3.1166 0 5.668-2.5395 5.668-5.646v-69.278c0-3.1065-2.5514-5.646-5.668-5.646zm0 2.3194h76.792c1.8881 0 3.352 1.4801 3.352 3.3266v69.278c0 1.8465-1.4639 3.3266-3.352 3.3266h-76.792c-1.8881 0-3.352-1.4801-3.352-3.3266v-69.278c0-1.8465 1.4639-3.3266 3.352-3.3266z" color="#000000" fill="#241f1f" fill-opacity=".63265" style="text-decoration-line:none;text-indent:0;text-transform:none"/>
</g>
<g transform="matrix(2.1629 0 0 2.1629 -103.01 -2153.8)">
<g transform="matrix(1.3984 0 0 1.3984 9.2532 -432.28)">
<rect x="32.074" y="1025" width="10.414" height="10.414" ry="0" fill="#f04f21"/>
<rect x="44.132" y="1025" width="10.414" height="10.414" ry="0" fill="#7eb801"/>
<rect x="32.074" y="1037.5" width="10.414" height="10.414" ry="0" fill="#01a3ee"/>
<rect x="44.132" y="1037.5" width="10.414" height="10.414" ry="0" fill="#feb800"/>
</g>
</g>
<g transform="translate(-88.379 34.467)">
<g transform="matrix(.99681 0 0 .99681 56.975 -103.27)" enable-background="new">
<path d="m80.367 126.08a8 8 0 1 1-16 0 8 8 0 1 1 16 0z" color="#000000" enable-background="accumulate" fill="url(#radialGradient4333)"/>
<path d="m72.877 135.41-0.94647-7.4192-7.4192-0.94647 7.4192-0.94648 0.94647-7.4192 0.94647 7.4192 7.4192 0.94648-7.4192 0.94647z" color="#000000" enable-background="accumulate" fill="url(#radialGradient3556)"/>
</g>
<g transform="matrix(1.7197 0 0 1.7197 -13.372 -227.35)" enable-background="new">
<path d="m80.367 126.08a8 8 0 1 1-16 0 8 8 0 1 1 16 0z" color="#000000" enable-background="accumulate" fill="url(#radialGradient4333)"/>
<path d="m72.877 135.41-0.94647-7.4192-7.4192-0.94647 7.4192-0.94648 0.94647-7.4192 0.94647 7.4192 7.4192 0.94648-7.4192 0.94647z" color="#000000" enable-background="accumulate" fill="url(#radialGradient3556)"/>
</g>
<g transform="matrix(.92323 0 0 .92323 93.936 -113.81)" enable-background="new">
<path d="m80.367 126.08a8 8 0 1 1-16 0 8 8 0 1 1 16 0z" color="#000000" enable-background="accumulate" fill="url(#radialGradient4333)"/>
<path d="m72.877 135.41-0.94647-7.4192-7.4192-0.94647 7.4192-0.94648 0.94647-7.4192 0.94647 7.4192 7.4192 0.94648-7.4192 0.94647z" color="#000000" enable-background="accumulate" fill="url(#radialGradient3556)"/>
</g>
<g transform="matrix(.76402 -.44111 .44111 .76402 45.825 20.075)">
<g transform="translate(52.976 -3.5671)">
<g>
<rect x="48" y="16" width="8" height="80" rx="1" ry="1.5" color="#000000" fill="url(#linearGradient4238)"/>
<path d="m49 16c-0.554 0-1 0.669-1 1.5v12.5h8v-12.5c0-0.831-0.446-1.5-1-1.5z" color="#000000" fill="url(#linearGradient4240)"/>
<path d="m49 96c-0.554 0-1-0.669-1-1.5v-12.5h8v12.5c0 0.831-0.446 1.5-1 1.5z" color="#000000" fill="url(#linearGradient4242)"/>
</g>
</g>
</g>
</g>
<g transform="matrix(1.0076 0 0 1.0143 -1.0512 .60534)" opacity=".411">
<rect transform="matrix(.9093 0 0 .92838 5.0676 34.52)" x="2" y="-30" width="92" height="92" rx="3.957" ry="3.957" clip-path="url(#clipPath4156-4-6)" fill="url(#linearGradient4967)"/>
</g>
<rect x="4.211" y="78.898" width="84.25" height="4.25" rx="0" ry="4.25" fill="url(#radialGradient4992)" opacity=".55"/>
<rect transform="rotate(90)" x="3.3977" y="-89.552" width="76.75" height="4.25" rx="0" ry="4.25" fill="url(#radialGradient3833-1)" opacity=".55"/>
</svg>
