<?xml version="1.0" encoding="UTF-8"?>
<!-- Created with Inkscape (http://www.inkscape.org/) -->
<svg version="1.1" viewBox="0 0 96 96" xmlns="http://www.w3.org/2000/svg" xmlns:cc="http://creativecommons.org/ns#" xmlns:dc="http://purl.org/dc/elements/1.1/" xmlns:rdf="http://www.w3.org/1999/02/22-rdf-syntax-ns#" xmlns:xlink="http://www.w3.org/1999/xlink">
<defs>
<linearGradient id="a">
<stop stop-color="#518eb3" offset="0"/>
<stop stop-color="#bdddf2" offset=".18543"/>
<stop stop-color="#d8e4ec" offset="1"/>
</linearGradient>
<linearGradient id="e" x1="19.763" x2="27.69" y1="28.627" y2="31.443" gradientTransform="matrix(1.4907 0 0 1.4907 -6.837 -1.988)" gradientUnits="userSpaceOnUse" xlink:href="#a"/>
<linearGradient id="d" x1="34.947" x2="42.874" y1="43.686" y2="46.502" gradientTransform="matrix(1.4907 0 0 1.4907 -6.837 -1.988)" gradientUnits="userSpaceOnUse" xlink:href="#a"/>
<linearGradient id="c" x1="27.859" x2="96.941" y1="26.165" y2="63.247" gradientTransform="matrix(1.4907 0 0 1.4907 -27.633 -24.275)" gradientUnits="userSpaceOnUse">
<stop stop-color="#ac4796" offset="0"/>
<stop stop-color="#ac4796" offset=".14193"/>
<stop stop-color="#a93d9c" offset=".15398"/>
<stop stop-color="#7358c9" offset=".2978"/>
<stop stop-color="#f477bf" offset=".30795"/>
<stop stop-color="#fffbfe" offset=".44332"/>
<stop stop-color="#bd5270" offset=".46108"/>
<stop stop-color="#ac4796" offset=".55499"/>
<stop stop-color="#a83d9c" offset=".57255"/>
<stop stop-color="#7557c7" offset=".70284"/>
<stop stop-color="#f47ac0" offset=".71299"/>
<stop stop-color="#fffafd" offset=".8492"/>
<stop stop-color="#ac4796" offset=".86951"/>
<stop stop-color="#ac4796" offset="1"/>
</linearGradient>
<linearGradient id="linearGradient3737">
<stop stop-color="#fff" offset="0"/>
<stop stop-color="#fff" stop-opacity="0" offset="1"/>
</linearGradient>
<linearGradient id="linearGradient4071-3" x1="6" x2="90" y1="47" y2="47" gradientTransform="matrix(1.1071 0 0 1.1071 -5.1429 -4.0357)" gradientUnits="userSpaceOnUse">
<stop stop-color="#b2babc" offset="0"/>
<stop stop-color="#fff" offset=".25"/>
<stop stop-color="#96a1a4" offset=".5"/>
<stop stop-color="#fbf9f9" offset=".75"/>
<stop stop-color="#b2b9bc" offset="1"/>
</linearGradient>
<linearGradient id="linearGradient4129-6" x1="1.5" x2="94.5" y1="88.172" y2="88.172" gradientTransform="translate(-2.95e-6,2.6e-5)" gradientUnits="userSpaceOnUse">
<stop offset="0"/>
<stop stop-opacity=".58824" offset=".1"/>
<stop stop-opacity=".58824" offset=".9"/>
<stop offset="1"/>
</linearGradient>
<radialGradient id="radialGradient7462-7" cx="13.948" cy="44.893" r="43.199" gradientTransform="matrix(.97513 0 0 .049191 33.899 80.167)" gradientUnits="userSpaceOnUse" xlink:href="#linearGradient3737"/>
<radialGradient id="radialGradient7464-3" cx="13.948" cy="44.893" r="43.199" gradientTransform="matrix(.88833 0 0 .049191 31.545 -90.168)" gradientUnits="userSpaceOnUse" xlink:href="#linearGradient3737"/>
<clipPath id="clipPath4156-4-1-6">
<path d="m27.046-55.695-14.214 13.321h0.06127l15.653 21.771 10.231-10.546c-0.2169-1.1522-11.311-23.67-11.732-24.546zm-17.399 16.313-14.888 14.062 21.229 17.515 10.385-10.577zm31.491 12.951-9.7413 9.7136 8.9448 12.458 7.7808-7.555zm-49.84 4.3788-13.754 12.982 26.283 13.846 0.06127-0.0617-0.12253-0.0617 9.8332-10.053-22.301-16.652zm38.015 7.4008-9.8025 9.7753 11.579 9.5594 7.6276-7.4008-8.6691-11.009zm20.187 5.674-7.3825 7.2158 6.1878 8.5418 5.8202-6.1365zm-32.195 6.3215-9.5575 9.4977 13.662 7.185 7.9339-7.6784zm23.312 2.3744-7.1068 6.9383 8.3628 6.9074 5.3608-5.674-0.06127-0.0925-0.0919 0.12335-6.4635-8.2026zm-8.7304 8.5418-7.5051 7.3392 10.354 5.4581c1.3975-1.321 5.6751-6.1229 5.8509-6.3215z" fill="#fff" opacity=".6"/>
</clipPath>
<linearGradient id="linearGradient1130" x1="2.7714" x2="50.528" y1="-28.642" y2="14.514" gradientUnits="userSpaceOnUse" xlink:href="#linearGradient3737"/>
</defs>
<metadata>
<rdf:RDF>
<cc:Work rdf:about="">
<dc:format>image/svg+xml</dc:format>
<dc:type rdf:resource="http://purl.org/dc/dcmitype/StillImage"/>
<dc:title/>
</cc:Work>
</rdf:RDF>
</metadata>
<path d="m89.143 2.6e-5h-82.286c-3.7988 0-6.8571 3.0583-6.8571 6.8571v82.286c0 3.7989 3.0583 6.8571 6.8571 6.8571h82.286c3.7989 0 6.8571-3.0583 6.8571-6.8571v-82.286c0-3.7989-3.0583-6.8571-6.8571-6.8571z" opacity=".15"/>
<path d="m88.5 0.75003h-81c-3.7395 0-6.75 3.0105-6.75 6.75v81c0 3.7395 3.0105 6.75 6.75 6.75h81c3.7395 0 6.75-3.0105 6.75-6.75v-81c0-3.7395-3.0105-6.75-6.75-6.75z" opacity=".15"/>
<path d="m87.857 1.5h-79.714c-3.6801 0-6.6429 2.9627-6.6429 6.6429v79.714c0 3.6801 2.9627 6.6429 6.6429 6.6429h79.714c3.6801 0 6.6429-2.9627 6.6429-6.6429v-79.714c0-3.6801-2.9627-6.6429-6.6429-6.6429z" fill="url(#linearGradient4071-3)"/>
<path d="m11.241 6.3872c-2.8565 0-5.1241 2.2884-5.1241 5.171v68.58c1.0972 1.6845 1.7885 2.8117 3.9438 2.8117h77.197c2.1553 0 1.7973-1.1272 2.8945-2.8117v-68.58c0-2.8826-2.2676-5.171-5.1241-5.171z" fill="#a0c9f1" opacity=".96"/>
<path d="m9.8251 4.7295c-3.1166 0-5.668 2.5395-5.668 5.646v69.278c0 3.1065 2.5513 5.646 5.668 5.646h76.792c3.1166 0 5.668-2.5395 5.668-5.646v-69.278c0-3.1065-2.5513-5.646-5.668-5.646zm0 2.3194h76.792c1.8881 0 3.352 1.4801 3.352 3.3266v69.278c0 1.8465-1.4639 3.3266-3.352 3.3266h-76.792c-1.8881 0-3.352-1.4801-3.352-3.3266v-69.278c0-1.8465 1.4639-3.3266 3.352-3.3266z" color="#000000" fill="#202223" fill-opacity=".93689" style="text-decoration-line:none;text-indent:0;text-transform:none"/>
<path d="m1.5 81.844v6c0 3.6801 2.9761 6.6562 6.6562 6.6562h79.688c3.6801 0 6.6563-2.9761 6.6563-6.6562v-6c0 3.6801-2.9761 6.6562-6.6563 6.6562h-79.688c-3.6801 0-6.6562-2.9761-6.6562-6.6562z" fill="url(#linearGradient4129-6)" opacity=".65818"/>
<rect x="5.375" y="80.25" width="84.25" height="4.25" rx="0" ry="4.25" fill="url(#radialGradient7462-7)" opacity=".55"/>
<rect transform="rotate(90)" x="5.56" y="-90.085" width="76.75" height="4.25" rx="0" ry="4.25" fill="url(#radialGradient7464-3)" opacity=".669"/>
<g transform="translate(-1.6406 -1.3826)">
<g transform="matrix(1.4907 0 0 1.4907 -6.837 -.4973)" fill="#025" shape-rendering="auto">
<path d="m14.54 7.1279v30.24h19.744v19.744h30.24l-7.8721-7.8721h-14.496v-14.496l-5.248-5.248h-14.496v-14.496z" color="#000000" color-rendering="auto" dominant-baseline="auto" fill-opacity=".0039216" image-rendering="auto" solid-color="#000000" style="font-feature-settings:normal;font-variant-alternates:normal;font-variant-caps:normal;font-variant-ligatures:normal;font-variant-numeric:normal;font-variant-position:normal;isolation:auto;mix-blend-mode:normal;paint-order:normal;shape-padding:0;text-decoration-color:#000000;text-decoration-line:none;text-decoration-style:solid;text-indent:0;text-orientation:mixed;text-transform:none;white-space:normal"/>
<path d="m13.951 8.9512v23.049h15.049v15.049h23.049l-6-6h-11.049v-11.049l-4-4h-11.049v-11.049z" color="#000000" color-rendering="auto" dominant-baseline="auto" fill-opacity=".039216" image-rendering="auto" solid-color="#000000" style="font-feature-settings:normal;font-variant-alternates:normal;font-variant-caps:normal;font-variant-ligatures:normal;font-variant-numeric:normal;font-variant-position:normal;isolation:auto;mix-blend-mode:normal;paint-order:normal;shape-padding:0;text-decoration-color:#000000;text-decoration-line:none;text-decoration-style:solid;text-indent:0;text-orientation:mixed;text-transform:none;white-space:normal"/>
<path d="m13.951 8.9512v23.049h15.049v15.049h23.049l-6-6h-11.049v-11.049l-4-4h-11.049v-11.049l-6-6" color="#000000" color-rendering="auto" dominant-baseline="auto" fill-opacity=".039216" image-rendering="auto" solid-color="#000000" style="font-feature-settings:normal;font-variant-alternates:normal;font-variant-caps:normal;font-variant-ligatures:normal;font-variant-numeric:normal;font-variant-position:normal;isolation:auto;mix-blend-mode:normal;paint-order:normal;shape-padding:0;text-decoration-color:#000000;text-decoration-line:none;text-decoration-style:solid;text-indent:0;text-orientation:mixed;text-transform:none;white-space:normal"/>
<path d="m13.965 8.9095v23.213h15.156v15.156h23.213l-6.0428-6.0428h-11.127v-11.127s-6e-5 -5.9e-5 -1.79e-4 -1.78e-4l-4.0284-4.0284h-11.127v-11.127s-8.9e-5 -8.9e-5 -2.68e-4 -2.67e-4c-0.04544-0.04545-6.0426-6.0426-6.0426-6.0426" color="#000000" color-rendering="auto" dominant-baseline="auto" fill-opacity=".038408" image-rendering="auto" solid-color="#000000" style="font-feature-settings:normal;font-variant-alternates:normal;font-variant-caps:normal;font-variant-ligatures:normal;font-variant-numeric:normal;font-variant-position:normal;isolation:auto;mix-blend-mode:normal;paint-order:normal;shape-padding:0;text-decoration-color:#000000;text-decoration-line:none;text-decoration-style:solid;text-indent:0;text-orientation:mixed;text-transform:none;white-space:normal"/>
<path d="m13.98 8.8617v23.402h15.279v15.279h23.402s-6e-6 -6e-6 -1.8e-5 -1.7e-5l-6.0918-6.0918h-11.217v-11.217s-5.8e-5 -5.8e-5 -1.73e-4 -1.74e-4c-0.02949-0.02948-4.061-4.061-4.061-4.061h-11.217v-11.217l-6.0919-6.0919" color="#000000" color-rendering="auto" dominant-baseline="auto" fill-opacity=".037485" image-rendering="auto" solid-color="#000000" style="font-feature-settings:normal;font-variant-alternates:normal;font-variant-caps:normal;font-variant-ligatures:normal;font-variant-numeric:normal;font-variant-position:normal;isolation:auto;mix-blend-mode:normal;paint-order:normal;shape-padding:0;text-decoration-color:#000000;text-decoration-line:none;text-decoration-style:solid;text-indent:0;text-orientation:mixed;text-transform:none;white-space:normal"/>
<path d="m13.996 8.8115v23.6h15.409v15.409h23.6s-9e-6 -9e-6 -2.7e-5 -2.8e-5l-6.1434-6.1434h-11.312v-11.312l-4.0957-4.0957h-11.312v-11.312l-6.1435-6.1435" color="#000000" color-rendering="auto" dominant-baseline="auto" fill-opacity=".036512" image-rendering="auto" solid-color="#000000" style="font-feature-settings:normal;font-variant-alternates:normal;font-variant-caps:normal;font-variant-ligatures:normal;font-variant-numeric:normal;font-variant-position:normal;isolation:auto;mix-blend-mode:normal;paint-order:normal;shape-padding:0;text-decoration-color:#000000;text-decoration-line:none;text-decoration-style:solid;text-indent:0;text-orientation:mixed;text-transform:none;white-space:normal"/>
<path d="m14.013 8.7595v23.805h15.542v15.542h23.805l-6.1968-6.1968h-11.411v-11.411s-5.4e-5 -5.5e-5 -1.63e-4 -1.63e-4l-4.1311-4.1311h-11.411v-11.411l-6.1968-6.1968" color="#000000" color-rendering="auto" dominant-baseline="auto" fill-opacity=".035505" image-rendering="auto" solid-color="#000000" style="font-feature-settings:normal;font-variant-alternates:normal;font-variant-caps:normal;font-variant-ligatures:normal;font-variant-numeric:normal;font-variant-position:normal;isolation:auto;mix-blend-mode:normal;paint-order:normal;shape-padding:0;text-decoration-color:#000000;text-decoration-line:none;text-decoration-style:solid;text-indent:0;text-orientation:mixed;text-transform:none;white-space:normal"/>
<path d="m14.03 8.7061v24.015h15.68v15.68h24.015l-6.2515-6.2515h-11.512v-11.512l-4.1678-4.1678h-11.512v-11.512l-6.2516-6.2516" color="#000000" color-rendering="auto" dominant-baseline="auto" fill-opacity=".034472" image-rendering="auto" solid-color="#000000" style="font-feature-settings:normal;font-variant-alternates:normal;font-variant-caps:normal;font-variant-ligatures:normal;font-variant-numeric:normal;font-variant-position:normal;isolation:auto;mix-blend-mode:normal;paint-order:normal;shape-padding:0;text-decoration-color:#000000;text-decoration-line:none;text-decoration-style:solid;text-indent:0;text-orientation:mixed;text-transform:none;white-space:normal"/>
<path d="m14.048 8.6517v24.23h15.82v15.82h24.23l-6.3075-6.3075h-11.615v-11.615l-4.205-4.205h-11.615v-11.615s-7.7e-5 -7.6e-5 -2.29e-4 -2.29e-4l-6.3072-6.3072" color="#000000" color-rendering="auto" dominant-baseline="auto" fill-opacity=".033419" image-rendering="auto" solid-color="#000000" style="font-feature-settings:normal;font-variant-alternates:normal;font-variant-caps:normal;font-variant-ligatures:normal;font-variant-numeric:normal;font-variant-position:normal;isolation:auto;mix-blend-mode:normal;paint-order:normal;shape-padding:0;text-decoration-color:#000000;text-decoration-line:none;text-decoration-style:solid;text-indent:0;text-orientation:mixed;text-transform:none;white-space:normal"/>
<path d="m14.066 8.5996v24.448h15.962v15.962h24.448s-2.4e-5 -2.3e-5 -7e-5 -7e-5l-6.3962-6.3962h-11.719v-11.719l-4.2428-4.2428h-11.719v-11.719s-7.3e-5 -7.4e-5 -2.2e-4 -2.2e-4l-6.3961-6.3961" color="#000000" color-rendering="auto" dominant-baseline="auto" fill-opacity=".032348" image-rendering="auto" solid-color="#000000" style="font-feature-settings:normal;font-variant-alternates:normal;font-variant-caps:normal;font-variant-ligatures:normal;font-variant-numeric:normal;font-variant-position:normal;isolation:auto;mix-blend-mode:normal;paint-order:normal;shape-padding:0;text-decoration-color:#000000;text-decoration-line:none;text-decoration-style:solid;text-indent:0;text-orientation:mixed;text-transform:none;white-space:normal"/>
<path d="m14.084 8.5403v24.67h16.107v16.107h24.67l-6.4219-6.4219h-11.825v-11.825l-4.2812-4.2812h-11.825v-11.825s-7.1e-5 -7e-5 -2.12e-4 -2.12e-4l-6.4217-6.4217" color="#000000" color-rendering="auto" dominant-baseline="auto" fill-opacity=".031261" image-rendering="auto" solid-color="#000000" style="font-feature-settings:normal;font-variant-alternates:normal;font-variant-caps:normal;font-variant-ligatures:normal;font-variant-numeric:normal;font-variant-position:normal;isolation:auto;mix-blend-mode:normal;paint-order:normal;shape-padding:0;text-decoration-color:#000000;text-decoration-line:none;text-decoration-style:solid;text-indent:0;text-orientation:mixed;text-transform:none;white-space:normal"/>
<path d="m14.102 8.4834v24.894h16.253v16.253h24.894s-3.1e-5 -3.1e-5 -9.3e-5 -9.2e-5c-0.01565-0.01566-6.4802-6.4802-6.4802-6.4802h-11.933v-11.933s-4.5e-5 -4.6e-5 -1.36e-4 -1.36e-4l-4.32-4.32h-11.933v-11.933l-6.4803-6.4803" color="#000000" color-rendering="auto" dominant-baseline="auto" fill-opacity=".030161" image-rendering="auto" solid-color="#000000" style="font-feature-settings:normal;font-variant-alternates:normal;font-variant-caps:normal;font-variant-ligatures:normal;font-variant-numeric:normal;font-variant-position:normal;isolation:auto;mix-blend-mode:normal;paint-order:normal;shape-padding:0;text-decoration-color:#000000;text-decoration-line:none;text-decoration-style:solid;text-indent:0;text-orientation:mixed;text-transform:none;white-space:normal"/>
<path d="m14.121 8.4259v25.12h16.401v16.401h25.12s-3.5e-5 -3.4e-5 -1.03e-4 -1.03e-4l-6.5392-6.5392h-12.042v-12.042l-1.3e-4 -1.3e-4c-0.02208-0.02207-4.3594-4.3594-4.3594-4.3594h-12.042v-12.042l-6.5393-6.5393" color="#000000" color-rendering="auto" dominant-baseline="auto" fill-opacity=".029048" image-rendering="auto" solid-color="#000000" style="font-feature-settings:normal;font-variant-alternates:normal;font-variant-caps:normal;font-variant-ligatures:normal;font-variant-numeric:normal;font-variant-position:normal;isolation:auto;mix-blend-mode:normal;paint-order:normal;shape-padding:0;text-decoration-color:#000000;text-decoration-line:none;text-decoration-style:solid;text-indent:0;text-orientation:mixed;text-transform:none;white-space:normal"/>
<path d="m14.139 8.3679v25.349h16.551v16.551h25.349l-6.5989-6.5989h-12.151v-12.151l-4.3992-4.3992h-12.151v-12.151s-6.2e-5 -6.2e-5 -1.86e-4 -1.87e-4l-6.5987-6.5987" color="#000000" color-rendering="auto" dominant-baseline="auto" fill-opacity=".027925" image-rendering="auto" solid-color="#000000" style="font-feature-settings:normal;font-variant-alternates:normal;font-variant-caps:normal;font-variant-ligatures:normal;font-variant-numeric:normal;font-variant-position:normal;isolation:auto;mix-blend-mode:normal;paint-order:normal;shape-padding:0;text-decoration-color:#000000;text-decoration-line:none;text-decoration-style:solid;text-indent:0;text-orientation:mixed;text-transform:none;white-space:normal"/>
<path d="m14.158 8.3093v25.581h16.702v16.702h25.58l-6.659-6.659h-12.262v-12.262s-4e-5 -4e-5 -1.19e-4 -1.18e-4l-4.4393-4.4393h-12.262v-12.262s-5.9e-5 -6e-5 -1.78e-4 -1.78e-4l-6.6589-6.6589" color="#000000" color-rendering="auto" dominant-baseline="auto" fill-opacity=".02679" image-rendering="auto" solid-color="#000000" style="font-feature-settings:normal;font-variant-alternates:normal;font-variant-caps:normal;font-variant-ligatures:normal;font-variant-numeric:normal;font-variant-position:normal;isolation:auto;mix-blend-mode:normal;paint-order:normal;shape-padding:0;text-decoration-color:#000000;text-decoration-line:none;text-decoration-style:solid;text-indent:0;text-orientation:mixed;text-transform:none;white-space:normal"/>
<path d="m14.177 8.2502v25.814h16.854v16.854h25.813l-6.7197-6.7197h-12.374v-12.374s-3.8e-5 -3.7e-5 -1.12e-4 -1.12e-4l-4.4797-4.4797h-12.374v-12.374l-6.7197-6.7197" color="#000000" color-rendering="auto" dominant-baseline="auto" fill-opacity=".025967" image-rendering="auto" solid-color="#000000" style="font-feature-settings:normal;font-variant-alternates:normal;font-variant-caps:normal;font-variant-ligatures:normal;font-variant-numeric:normal;font-variant-position:normal;isolation:auto;mix-blend-mode:normal;paint-order:normal;shape-padding:0;text-decoration-color:#000000;text-decoration-line:none;text-decoration-style:solid;text-indent:0;text-orientation:mixed;text-transform:none;white-space:normal"/>
<path d="m14.197 8.1907v26.048h17.007v17.007h26.048s-5.1e-5 -5e-5 -1.5e-4 -1.5e-4l-6.7807-6.7807h-12.486v-12.486s-3.5e-5 -3.6e-5 -1.06e-4 -1.07e-4l-4.5205-4.5205h-12.486v-12.486l-6.7809-6.7809" color="#000000" color-rendering="auto" dominant-baseline="auto" fill-opacity=".024494" image-rendering="auto" solid-color="#000000" style="font-feature-settings:normal;font-variant-alternates:normal;font-variant-caps:normal;font-variant-ligatures:normal;font-variant-numeric:normal;font-variant-position:normal;isolation:auto;mix-blend-mode:normal;paint-order:normal;shape-padding:0;text-decoration-color:#000000;text-decoration-line:none;text-decoration-style:solid;text-indent:0;text-orientation:mixed;text-transform:none;white-space:normal"/>
<path d="m14.216 8.1307v26.285h17.161v17.161h26.285s-5.4e-5 -5.4e-5 -1.61e-4 -1.62e-4l-6.8422-6.8422h-12.6v-12.6l-4.5616-4.5616h-12.6v-12.6s-5.1e-5 -5e-5 -1.51e-4 -1.51e-4l-6.8423-6.8423" color="#000000" color-rendering="auto" dominant-baseline="auto" fill-opacity=".023334" image-rendering="auto" solid-color="#000000" style="font-feature-settings:normal;font-variant-alternates:normal;font-variant-caps:normal;font-variant-ligatures:normal;font-variant-numeric:normal;font-variant-position:normal;isolation:auto;mix-blend-mode:normal;paint-order:normal;shape-padding:0;text-decoration-color:#000000;text-decoration-line:none;text-decoration-style:solid;text-indent:0;text-orientation:mixed;text-transform:none;white-space:normal"/>
<path d="m14.235 8.0704v26.523h17.317v17.317h26.523s-5.8e-5 -5.8e-5 -1.73e-4 -1.74e-4l-6.9042-6.9042h-12.714v-12.714l-4.6029-4.6029h-12.714v-12.714s-4.7e-5 -4.8e-5 -1.42e-4 -1.42e-4l-6.9042-6.9042" color="#000000" color-rendering="auto" dominant-baseline="auto" fill-opacity=".022165" image-rendering="auto" solid-color="#000000" style="font-feature-settings:normal;font-variant-alternates:normal;font-variant-caps:normal;font-variant-ligatures:normal;font-variant-numeric:normal;font-variant-position:normal;isolation:auto;mix-blend-mode:normal;paint-order:normal;shape-padding:0;text-decoration-color:#000000;text-decoration-line:none;text-decoration-style:solid;text-indent:0;text-orientation:mixed;text-transform:none;white-space:normal"/>
<path d="m14.255 8.0096v26.763h17.473v17.473h26.762s-6.2e-5 -6.2e-5 -1.86e-4 -1.85e-4l-6.9666-6.9666h-12.829v-12.829s-3e-5 -2.9e-5 -8.9e-5 -8.8e-5l-4.9644-4.9644h-12.829v-12.829l-6.9667-6.9667" color="#000000" color-rendering="auto" dominant-baseline="auto" fill-opacity=".020989" image-rendering="auto" solid-color="#000000" style="font-feature-settings:normal;font-variant-alternates:normal;font-variant-caps:normal;font-variant-ligatures:normal;font-variant-numeric:normal;font-variant-position:normal;isolation:auto;mix-blend-mode:normal;paint-order:normal;shape-padding:0;text-decoration-color:#000000;text-decoration-line:none;text-decoration-style:solid;text-indent:0;text-orientation:mixed;text-transform:none;white-space:normal"/>
<path d="m14.275 7.9485v27.004h17.63v17.63h27.003l-7.0295-7.0295h-12.944v-12.944l-4.6863-4.6863h-12.944v-12.944s-4.1e-5 -4.2e-5 -1.23e-4 -1.24e-4l-7.0294-7.0294" color="#000000" color-rendering="auto" dominant-baseline="auto" fill-opacity=".019807" image-rendering="auto" solid-color="#000000" style="font-feature-settings:normal;font-variant-alternates:normal;font-variant-caps:normal;font-variant-ligatures:normal;font-variant-numeric:normal;font-variant-position:normal;isolation:auto;mix-blend-mode:normal;paint-order:normal;shape-padding:0;text-decoration-color:#000000;text-decoration-line:none;text-decoration-style:solid;text-indent:0;text-orientation:mixed;text-transform:none;white-space:normal"/>
<path d="m14.295 7.8871v27.246h17.79v17.79h27.246s-7.1e-5 -7e-5 -2.1e-4 -2.1e-4l-7.0924-7.0924h-13.061v-13.061s-2.5e-5 -2.6e-5 -7.6e-5 -7.6e-5l-4.7283-4.7283h-13.061v-13.061l-7.0926-7.0926" color="#000000" color-rendering="auto" dominant-baseline="auto" fill-opacity=".018617" image-rendering="auto" solid-color="#000000" style="font-feature-settings:normal;font-variant-alternates:normal;font-variant-caps:normal;font-variant-ligatures:normal;font-variant-numeric:normal;font-variant-position:normal;isolation:auto;mix-blend-mode:normal;paint-order:normal;shape-padding:0;text-decoration-color:#000000;text-decoration-line:none;text-decoration-style:solid;text-indent:0;text-orientation:mixed;text-transform:none;white-space:normal"/>
<path d="m14.314 7.8253v27.49h17.949v17.949h27.489s-7.5e-5 -7.4e-5 -2.22e-4 -2.22e-4l-7.1558-7.1558h-13.177v-13.177s-2.3e-5 -2.3e-5 -7e-5 -6.9e-5l-4.7706-4.7706h-13.177v-13.177s-3.5e-5 -3.5e-5 -1.04e-4 -1.05e-4l-7.1559-7.1559" color="#000000" color-rendering="auto" dominant-baseline="auto" fill-opacity=".017422" image-rendering="auto" solid-color="#000000" style="font-feature-settings:normal;font-variant-alternates:normal;font-variant-caps:normal;font-variant-ligatures:normal;font-variant-numeric:normal;font-variant-position:normal;isolation:auto;mix-blend-mode:normal;paint-order:normal;shape-padding:0;text-decoration-color:#000000;text-decoration-line:none;text-decoration-style:solid;text-indent:0;text-orientation:mixed;text-transform:none;white-space:normal"/>
<path d="m14.335 7.7633v27.734h18.108v18.108h27.734l-7.2197-7.2197h-13.295v-13.295s-2.2e-5 -2.1e-5 -6.4e-5 -6.4e-5l-4.8131-4.8131h-13.295v-13.295l-7.2197-7.2197" color="#000000" color-rendering="auto" dominant-baseline="auto" fill-opacity=".01622" image-rendering="auto" solid-color="#000000" style="font-feature-settings:normal;font-variant-alternates:normal;font-variant-caps:normal;font-variant-ligatures:normal;font-variant-numeric:normal;font-variant-position:normal;isolation:auto;mix-blend-mode:normal;paint-order:normal;shape-padding:0;text-decoration-color:#000000;text-decoration-line:none;text-decoration-style:solid;text-indent:0;text-orientation:mixed;text-transform:none;white-space:normal"/>
<path d="m14.355 7.7009v27.98h18.269v18.269h27.98s-8.2e-5 -8.3e-5 -2.46e-4 -2.47e-4l-7.2835-7.2835h-13.413v-13.413l-4.8559-4.8559h-13.413v-13.413l-7.2838-7.2838" color="#000000" color-rendering="auto" dominant-baseline="auto" fill-opacity=".015013" image-rendering="auto" solid-color="#000000" style="font-feature-settings:normal;font-variant-alternates:normal;font-variant-caps:normal;font-variant-ligatures:normal;font-variant-numeric:normal;font-variant-position:normal;isolation:auto;mix-blend-mode:normal;paint-order:normal;shape-padding:0;text-decoration-color:#000000;text-decoration-line:none;text-decoration-style:solid;text-indent:0;text-orientation:mixed;text-transform:none;white-space:normal"/>
<path d="m14.375 7.6382v28.228h18.43v18.43h28.227s-8.6e-5 -8.7e-5 -2.58e-4 -2.59e-4l-7.3478-7.3478h-13.531v-13.531l-4.8988-4.8988h-13.531v-13.531l-7.3481-7.3481" color="#000000" color-rendering="auto" dominant-baseline="auto" fill-opacity=".0138" image-rendering="auto" solid-color="#000000" style="font-feature-settings:normal;font-variant-alternates:normal;font-variant-caps:normal;font-variant-ligatures:normal;font-variant-numeric:normal;font-variant-position:normal;isolation:auto;mix-blend-mode:normal;paint-order:normal;shape-padding:0;text-decoration-color:#000000;text-decoration-line:none;text-decoration-style:solid;text-indent:0;text-orientation:mixed;text-transform:none;white-space:normal"/>
<path d="m14.395 7.5753v28.476h18.592v18.592h28.475s-9.1e-5 -9e-5 -2.71e-4 -2.71e-4l-7.4124-7.4124h-13.65v-13.65l-4.9418-4.9418h-13.65v-13.65l-7.4127-7.4127" color="#000000" color-rendering="auto" dominant-baseline="auto" fill-opacity=".012582" image-rendering="auto" solid-color="#000000" style="font-feature-settings:normal;font-variant-alternates:normal;font-variant-caps:normal;font-variant-ligatures:normal;font-variant-numeric:normal;font-variant-position:normal;isolation:auto;mix-blend-mode:normal;paint-order:normal;shape-padding:0;text-decoration-color:#000000;text-decoration-line:none;text-decoration-style:solid;text-indent:0;text-orientation:mixed;text-transform:none;white-space:normal"/>
<path d="m14.416 7.5121v28.725h18.755v18.755h28.725l-7.4776-7.4776h-13.77v-13.77l-4.985-4.985h-13.77v-13.77s-2e-5 -1.9e-5 -5.8e-5 -5.7e-5l-7.4775-7.4775" color="#000000" color-rendering="auto" dominant-baseline="auto" fill-opacity=".011358" image-rendering="auto" solid-color="#000000" style="font-feature-settings:normal;font-variant-alternates:normal;font-variant-caps:normal;font-variant-ligatures:normal;font-variant-numeric:normal;font-variant-position:normal;isolation:auto;mix-blend-mode:normal;paint-order:normal;shape-padding:0;text-decoration-color:#000000;text-decoration-line:none;text-decoration-style:solid;text-indent:0;text-orientation:mixed;text-transform:none;white-space:normal"/>
<path d="m14.436 7.4487v28.975h18.918v18.918h28.975s-9.9e-5 -9.9e-5 -2.97e-4 -2.96e-4l-7.5424-7.5424h-13.89v-13.89l-5.0285-5.0285h-13.89v-13.89s-1.7e-5 -1.6e-5 -4.9e-5 -4.8e-5l-7.5427-7.5427" color="#000000" color-rendering="auto" dominant-baseline="auto" fill-opacity=".01013" image-rendering="auto" solid-color="#000000" style="font-feature-settings:normal;font-variant-alternates:normal;font-variant-caps:normal;font-variant-ligatures:normal;font-variant-numeric:normal;font-variant-position:normal;isolation:auto;mix-blend-mode:normal;paint-order:normal;shape-padding:0;text-decoration-color:#000000;text-decoration-line:none;text-decoration-style:solid;text-indent:0;text-orientation:mixed;text-transform:none;white-space:normal"/>
<path d="m14.457 7.385v29.226h19.082v19.082h29.226s-1.03e-4 -1.04e-4 -3.09e-4 -3.09e-4l-7.6078-7.6078h-14.01v-14.01s-9e-6 -8e-6 -2.6e-5 -2.6e-5l-5.0721-5.0721h-14.01v-14.01s-1.3e-5 -1.3e-5 -3.9e-5 -3.8e-5l-7.6081-7.6081" color="#000000" color-rendering="auto" dominant-baseline="auto" fill-opacity=".0088974" image-rendering="auto" solid-color="#000000" style="font-feature-settings:normal;font-variant-alternates:normal;font-variant-caps:normal;font-variant-ligatures:normal;font-variant-numeric:normal;font-variant-position:normal;isolation:auto;mix-blend-mode:normal;paint-order:normal;shape-padding:0;text-decoration-color:#000000;text-decoration-line:none;text-decoration-style:solid;text-indent:0;text-orientation:mixed;text-transform:none;white-space:normal"/>
<path d="m14.477 7.3211v29.479h19.247v19.247h29.478s-1.07e-4 -1.08e-4 -3.21e-4 -3.22e-4l-7.6734-7.6734h-14.131v-14.131s-6e-6 -7e-6 -1.9e-5 -2e-5l-5.1158-5.1158h-14.131v-14.131l-7.6737-7.6737" color="#000000" color-rendering="auto" dominant-baseline="auto" fill-opacity=".00766" image-rendering="auto" solid-color="#000000" style="font-feature-settings:normal;font-variant-alternates:normal;font-variant-caps:normal;font-variant-ligatures:normal;font-variant-numeric:normal;font-variant-position:normal;isolation:auto;mix-blend-mode:normal;paint-order:normal;shape-padding:0;text-decoration-color:#000000;text-decoration-line:none;text-decoration-style:solid;text-indent:0;text-orientation:mixed;text-transform:none;white-space:normal"/>
<path d="m14.498 7.2569v29.732h19.412v19.412h29.731l-7.7396-7.7396h-14.252v-14.252l-5.1597-5.1597h-14.252v-14.252l-7.7396-7.7396" color="#000000" color-rendering="auto" dominant-baseline="auto" fill-opacity=".0096181" image-rendering="auto" solid-color="#000000" style="font-feature-settings:normal;font-variant-alternates:normal;font-variant-caps:normal;font-variant-ligatures:normal;font-variant-numeric:normal;font-variant-position:normal;isolation:auto;mix-blend-mode:normal;paint-order:normal;shape-padding:0;text-decoration-color:#000000;text-decoration-line:none;text-decoration-style:solid;text-indent:0;text-orientation:mixed;text-transform:none;white-space:normal"/>
<path d="m14.519 7.1925v29.986h19.578v19.578h29.985l-7.8057-7.8057h-14.374v-14.374l-5.2038-5.2038h-14.374v-14.374s-3e-6 -3e-6 -1e-5 -9e-6l-7.8057-7.8057" color="#000000" color-rendering="auto" dominant-baseline="auto" fill-opacity=".0051719" image-rendering="auto" solid-color="#000000" style="font-feature-settings:normal;font-variant-alternates:normal;font-variant-caps:normal;font-variant-ligatures:normal;font-variant-numeric:normal;font-variant-position:normal;isolation:auto;mix-blend-mode:normal;paint-order:normal;shape-padding:0;text-decoration-color:#000000;text-decoration-line:none;text-decoration-style:solid;text-indent:0;text-orientation:mixed;text-transform:none;white-space:normal"/>
<path d="m14.54 7.1279v30.24h19.744v19.744h30.24l-7.8721-7.8721h-14.496v-14.496l-5.248-5.248h-14.496v-14.496l-7.8721-7.8721" color="#000000" color-rendering="auto" dominant-baseline="auto" fill-opacity=".0039216" image-rendering="auto" solid-color="#000000" style="font-feature-settings:normal;font-variant-alternates:normal;font-variant-caps:normal;font-variant-ligatures:normal;font-variant-numeric:normal;font-variant-position:normal;isolation:auto;mix-blend-mode:normal;paint-order:normal;shape-padding:0;text-decoration-color:#000000;text-decoration-line:none;text-decoration-style:solid;text-indent:0;text-orientation:mixed;text-transform:none;white-space:normal"/>
</g>
<path d="m13.959 12.846v34.358h22.433v22.433h34.358l-8.944-8.944h-16.47v-16.47l-5.9627-5.9627h-16.47v-16.47z" color="#000000" color-rendering="auto" dominant-baseline="auto" fill="#883c52" image-rendering="auto" shape-rendering="auto" solid-color="#000000" stroke-width="1.4907" style="font-feature-settings:normal;font-variant-alternates:normal;font-variant-caps:normal;font-variant-ligatures:normal;font-variant-numeric:normal;font-variant-position:normal;isolation:auto;mix-blend-mode:normal;paint-order:normal;shape-padding:0;text-decoration-color:#000000;text-decoration-line:none;text-decoration-style:solid;text-indent:0;text-orientation:mixed;text-transform:none;white-space:normal"/>
<path d="m13.959 11.355v5.9627l8.944 8.944v-5.9627z" color="#000000" color-rendering="auto" dominant-baseline="auto" fill="#518eb3" image-rendering="auto" shape-rendering="auto" solid-color="#000000" stroke-width="1.4907" style="font-feature-settings:normal;font-variant-alternates:normal;font-variant-caps:normal;font-variant-ligatures:normal;font-variant-numeric:normal;font-variant-position:normal;isolation:auto;mix-blend-mode:normal;paint-order:normal;shape-padding:0;text-decoration-color:#000000;text-decoration-line:none;text-decoration-style:solid;text-indent:0;text-orientation:mixed;text-transform:none;white-space:normal"/>
<path d="m39.374 42.732 5.9627 5.9627v-5.9627l-5.9627-5.9627z" color="#000000" color-rendering="auto" dominant-baseline="auto" fill="#518eb3" image-rendering="auto" shape-rendering="auto" solid-color="#000000" stroke-width="1.4907" style="font-feature-settings:normal;font-variant-alternates:normal;font-variant-caps:normal;font-variant-ligatures:normal;font-variant-numeric:normal;font-variant-position:normal;isolation:auto;mix-blend-mode:normal;paint-order:normal;shape-padding:0;text-decoration-color:#000000;text-decoration-line:none;text-decoration-style:solid;text-indent:0;text-orientation:mixed;text-transform:none;white-space:normal"/>
<path d="m45.336 59.202v5.9627h16.47l3e-6 -5.9627z" color="#000000" color-rendering="auto" dominant-baseline="auto" fill="url(#d)" image-rendering="auto" shape-rendering="auto" solid-color="#000000" stroke-width="1.4907" style="font-feature-settings:normal;font-variant-alternates:normal;font-variant-caps:normal;font-variant-ligatures:normal;font-variant-numeric:normal;font-variant-position:normal;isolation:auto;mix-blend-mode:normal;paint-order:normal;shape-padding:0;text-decoration-color:#000000;text-decoration-line:none;text-decoration-style:solid;text-indent:0;text-orientation:mixed;text-transform:none;white-space:normal"/>
<path d="m61.807 65.165 8.8713 5.8899 0.07279-2.9086-8.944-8.944z" color="#000000" color-rendering="auto" dominant-baseline="auto" fill="#518eb3" image-rendering="auto" shape-rendering="auto" solid-color="#000000" stroke-width="1.4907" style="font-feature-settings:normal;font-variant-alternates:normal;font-variant-caps:normal;font-variant-ligatures:normal;font-variant-numeric:normal;font-variant-position:normal;isolation:auto;mix-blend-mode:normal;paint-order:normal;shape-padding:0;text-decoration-color:#000000;text-decoration-line:none;text-decoration-style:solid;text-indent:0;text-orientation:mixed;text-transform:none;white-space:normal"/>
<path d="m39.374 42.732v-5.9627h-16.47l0.07279 5.9627z" fill="url(#e)" stroke-width="1.4907" style="paint-order:normal"/>
<path d="m13.959 14.336v34.358h22.433v22.433h34.358l-8.944-8.944h-16.47v-16.47l-5.9627-5.9627h-16.47v-16.47z" color="#000000" color-rendering="auto" dominant-baseline="auto" fill="#d42044" image-rendering="auto" shape-rendering="auto" solid-color="#000000" stroke-width="1.4907" style="font-feature-settings:normal;font-variant-alternates:normal;font-variant-caps:normal;font-variant-ligatures:normal;font-variant-numeric:normal;font-variant-position:normal;isolation:auto;mix-blend-mode:normal;paint-order:normal;shape-padding:0;text-decoration-color:#000000;text-decoration-line:none;text-decoration-style:solid;text-indent:0;text-orientation:mixed;text-transform:none;white-space:normal"/>
<path d="m13.959 13.591v2.9813l7.4533 7.4533v16.47h16.47l5.9627 5.9627v16.47h16.47l7.4533 7.4533h2.9813l-8.944-8.944h-16.47v-16.47l-5.9627-5.9627h-16.47v-16.47z" color="#000000" color-rendering="auto" dominant-baseline="auto" fill="url(#c)" image-rendering="auto" shape-rendering="auto" solid-color="#000000" stroke-width="1.4907" style="font-feature-settings:normal;font-variant-alternates:normal;font-variant-caps:normal;font-variant-ligatures:normal;font-variant-numeric:normal;font-variant-position:normal;isolation:auto;mix-blend-mode:normal;paint-order:normal;shape-padding:0;text-decoration-color:#000000;text-decoration-line:none;text-decoration-style:solid;text-indent:0;text-orientation:mixed;text-transform:none;white-space:normal"/>
</g>
<rect transform="matrix(1.0692 0 0 1.0477 4.2952 38.479)" x="2" y="-30" width="75.966" height="69.024" rx="3.957" ry="3.957" clip-path="url(#clipPath4156-4-1-6)" fill="url(#linearGradient1130)" opacity=".318"/>
</svg>
