<?xml version="1.0" encoding="UTF-8"?>
<!-- Created with Inkscape (http://www.inkscape.org/) -->
<svg version="1.1" viewBox="0 0 96 96" xmlns="http://www.w3.org/2000/svg" xmlns:cc="http://creativecommons.org/ns#" xmlns:dc="http://purl.org/dc/elements/1.1/" xmlns:rdf="http://www.w3.org/1999/02/22-rdf-syntax-ns#" xmlns:xlink="http://www.w3.org/1999/xlink">
<defs>
<linearGradient id="linearGradient4071" x1="6" x2="90" y1="47" y2="47" gradientTransform="matrix(1.1071 0 0 1.1071 -4.9939 -3.6207)" gradientUnits="userSpaceOnUse">
<stop stop-color="#b4b9ba" offset="0"/>
<stop stop-color="#fff" offset=".25"/>
<stop stop-color="#98a0a2" offset=".5"/>
<stop stop-color="#fbf9f9" offset=".75"/>
<stop stop-color="#b4b8ba" offset="1"/>
</linearGradient>
<linearGradient id="linearGradient4129" x1="1.5" x2="94.5" y1="88.172" y2="88.172" gradientTransform="translate(.14895 .41503)" gradientUnits="userSpaceOnUse">
<stop offset="0"/>
<stop stop-opacity=".58824" offset=".1"/>
<stop stop-opacity=".58824" offset=".9"/>
<stop offset="1"/>
</linearGradient>
<radialGradient id="radialGradient7462" cx="13.948" cy="44.893" r="43.199" gradientTransform="matrix(.97513 0 0 .049191 34.048 80.582)" gradientUnits="userSpaceOnUse" xlink:href="#linearGradient3737"/>
<linearGradient id="linearGradient3737">
<stop stop-color="#fff" offset="0"/>
<stop stop-color="#fff" stop-opacity="0" offset="1"/>
</linearGradient>
<radialGradient id="radialGradient7464" cx="13.948" cy="44.893" r="43.199" gradientTransform="matrix(.88833 0 0 .049191 31.96 -90.317)" gradientUnits="userSpaceOnUse" xlink:href="#linearGradient3737"/>
<linearGradient id="linearGradient4767" x1="2.7714" x2="50.528" y1="-28.642" y2="14.514" gradientUnits="userSpaceOnUse" xlink:href="#linearGradient3737"/>
<clipPath id="clipPath4156-4-1">
<path d="m27.046-55.695-14.214 13.321h0.06127l15.653 21.771 10.231-10.546c-0.2169-1.1522-11.311-23.67-11.732-24.546zm-17.399 16.313-14.888 14.062 21.229 17.515 10.385-10.577zm31.491 12.951-9.7413 9.7136 8.9448 12.458 7.7808-7.555zm-49.84 4.3788-13.754 12.982 26.283 13.846 0.06127-0.0617-0.12253-0.0617 9.8332-10.053-22.301-16.652zm38.015 7.4008-9.8025 9.7753 11.579 9.5594 7.6276-7.4008-8.6691-11.009zm20.187 5.674-7.3825 7.2158 6.1878 8.5418 5.8202-6.1365zm-32.195 6.3215-9.5575 9.4977 13.662 7.185 7.9339-7.6784zm23.312 2.3744-7.1068 6.9383 8.3628 6.9074 5.3608-5.674-0.06127-0.0925-0.0919 0.12335-6.4635-8.2026zm-8.7304 8.5418-7.5051 7.3392 10.354 5.4581c1.3975-1.321 5.6751-6.1229 5.8509-6.3215z" fill="#fff" opacity=".6"/>
</clipPath>
<radialGradient id="radialGradient5867" cx="13.948" cy="44.893" r="43.199" gradientTransform="matrix(1.0354 0 0 .057363 3.985 117.73)" gradientUnits="userSpaceOnUse" xlink:href="#linearGradient3737"/>
<linearGradient id="linearGradient5871" x1="93.398" x2="2.2661" y1="-18.925" y2="-19.958" gradientTransform="matrix(1.0005 0 0 .95226 -29.066 -62.927)" gradientUnits="userSpaceOnUse" spreadMethod="reflect">
<stop stop-color="#ebeced" offset="0"/>
<stop stop-color="#edf0f0" offset=".67519"/>
<stop stop-color="#50bdff" stop-opacity=".78073" offset=".6891"/>
<stop stop-color="#18627a" stop-opacity=".78405" offset="1"/>
</linearGradient>
<linearGradient id="linearGradient5875" x1="2.5" x2="93.5" y1="11.141" y2="11.141" gradientTransform="matrix(1.0114 0 0 .82381 -29.59 31.583)" gradientUnits="userSpaceOnUse">
<stop stop-opacity="0" offset="0"/>
<stop stop-opacity=".96471" offset=".031756"/>
<stop stop-opacity="0" offset=".094256"/>
<stop stop-opacity="0" offset=".49595"/>
<stop stop-opacity="0" offset=".90526"/>
<stop stop-opacity=".98824" offset=".96241"/>
<stop stop-opacity="0" offset="1"/>
</linearGradient>
<radialGradient id="radialGradient4210" cx="-48.732" cy="35.074" r="29.024" gradientTransform="matrix(1.5317 0 0 .047105 122.51 14.195)" gradientUnits="userSpaceOnUse" xlink:href="#linearGradient3737"/>
<radialGradient id="radialGradient3333-6" cx="48.308" cy="47.141" r="14.161" gradientTransform="matrix(1.0596 .89583 -2.027 2.5206 121.3 -89.213)" gradientUnits="userSpaceOnUse">
<stop stop-opacity=".22265" offset="0"/>
<stop stop-opacity=".067818" offset=".5"/>
<stop stop-opacity=".024312" offset="1"/>
</radialGradient>
<linearGradient id="linearGradient3341-2" x1="48.992" x2="37" y1="46.125" y2="36" gradientTransform="matrix(1.3242 0 0 1.3242 15.706 7.1359)" gradientUnits="userSpaceOnUse">
<stop stop-color="#cfcfcf" offset="0"/>
<stop stop-color="#b7b7b7" offset=".20986"/>
<stop stop-color="#c9c9c9" offset="1"/>
</linearGradient>
<radialGradient id="radialGradient4374-8" cx="63.938" cy="95.866" r="20.688" gradientTransform="matrix(-.053171 -.09209 -.53811 .31066 99.6 22.779)" gradientUnits="userSpaceOnUse" xlink:href="#linearGradient3192-7"/>
<linearGradient id="linearGradient3192-7">
<stop stop-color="#404040" offset="0"/>
<stop stop-color="#b7b7b7" offset=".5"/>
<stop stop-color="#404040" offset="1"/>
</linearGradient>
<linearGradient id="linearGradient4376-7" x1="40.113" x2="40.113" y1="2.6025" y2="75.04" gradientTransform="matrix(-.50229 -.13459 -.13458 .50226 90.326 20.584)" gradientUnits="userSpaceOnUse">
<stop stop-color="#5496b4" stop-opacity=".78431" offset="0"/>
<stop stop-color="#dfecf2" stop-opacity=".50196" offset="1"/>
</linearGradient>
<linearGradient id="linearGradient4378-3" x1="12.75" x2="63.25" y1="11.75" y2="64" gradientTransform="matrix(-.50229 -.13459 -.13458 .50226 90.326 20.584)" gradientUnits="userSpaceOnUse" xlink:href="#linearGradient3192-7"/>
<linearGradient id="linearGradient4380-9" x1="34.796" x2="26.033" y1="2.4125" y2="49.633" gradientTransform="matrix(-.50229 -.13459 -.13458 .50226 91.144 19.815)" gradientUnits="userSpaceOnUse" xlink:href="#linearGradient3737"/>
<linearGradient id="linearGradient4382-2" x1="124.34" x2="10.007" y1="42.894" y2="21.098" gradientTransform="matrix(-.50578 -.13552 -.13551 .50575 91.473 19.626)" gradientUnits="userSpaceOnUse" xlink:href="#linearGradient3737"/>
<radialGradient id="radialGradient4384-6" cx="31.357" cy="22.818" r="7.357" gradientTransform="matrix(-.72619 -.19458 -.14026 .52345 101.5 19.775)" gradientUnits="userSpaceOnUse" xlink:href="#linearGradient3737"/>
<linearGradient id="linearGradient4388-2" x1="72" x2="55.941" y1="129.12" y2="129.12" gradientTransform="matrix(.51011 0 0 .51011 -95.341 -59.711)" gradientUnits="userSpaceOnUse">
<stop stop-color="#492711" offset="0"/>
<stop stop-color="#cc6b2e" offset=".0625"/>
<stop stop-color="#853d1c" offset=".125"/>
<stop stop-color="#f3d9c7" offset=".25"/>
<stop stop-color="#7c3a17" offset=".5"/>
<stop stop-color="#351b08" offset="1"/>
</linearGradient>
<linearGradient id="linearGradient4390-0" x1="64.414" x2="64.414" y1="87.406" y2="75.818" gradientTransform="matrix(-.25507 -.44176 -.44178 .25505 107.72 71.318)" gradientUnits="userSpaceOnUse" xlink:href="#linearGradient3737"/>
<filter id="filter3439-0" x="-.09373" y="-.16673" width="1.1875" height="1.3335" color-interpolation-filters="sRGB">
<feGaussianBlur stdDeviation="0.31930287"/>
</filter>
</defs>
<metadata>
<rdf:RDF>
<cc:Work rdf:about="">
<dc:format>image/svg+xml</dc:format>
<dc:type rdf:resource="http://purl.org/dc/dcmitype/StillImage"/>
<dc:title/>
<dc:date>2017</dc:date>
<dc:creator>
<cc:Agent>
<dc:title>Cristian Pozzessere "ilnanny"</dc:title>
</cc:Agent>
</dc:creator>
<dc:subject>
<rdf:Bag>
<rdf:li>Global language</rdf:li>
</rdf:Bag>
</dc:subject>
<dc:description>Playing with Inkscape on Gnu/Linux O. S.</dc:description>
<dc:contributor>
<cc:Agent>
<dc:title>In the night, alone like a dog.</dc:title>
</cc:Agent>
</dc:contributor>
<cc:license rdf:resource="http://creativecommons.org/licenses/by-sa/4.0/"/>
</cc:Work>
<cc:License rdf:about="http://creativecommons.org/licenses/by-sa/4.0/">
<cc:permits rdf:resource="http://creativecommons.org/ns#Reproduction"/>
<cc:permits rdf:resource="http://creativecommons.org/ns#Distribution"/>
<cc:requires rdf:resource="http://creativecommons.org/ns#Notice"/>
<cc:requires rdf:resource="http://creativecommons.org/ns#Attribution"/>
<cc:permits rdf:resource="http://creativecommons.org/ns#DerivativeWorks"/>
<cc:requires rdf:resource="http://creativecommons.org/ns#ShareAlike"/>
</cc:License>
</rdf:RDF>
</metadata>
<g transform="translate(0 -1026.5)">
<g transform="translate(-.14896 1026.1)">
<path d="m89.292 0.41503h-82.286c-3.7988 0-6.8571 3.0583-6.8571 6.8571v82.286c0 3.7989 3.0583 6.8571 6.8571 6.8571h82.286c3.7989 0 6.8571-3.0583 6.8571-6.8571v-82.286c0-3.7989-3.0583-6.8571-6.8571-6.8571z" opacity=".15"/>
<path d="m88.649 1.165h-81c-3.7395 0-6.75 3.0105-6.75 6.75v81c0 3.7395 3.0105 6.75 6.75 6.75h81c3.7395 0 6.75-3.0105 6.75-6.75v-81c0-3.7395-3.0105-6.75-6.75-6.75z" opacity=".15"/>
<path d="m88.006 1.915h-79.714c-3.6801 0-6.6429 2.9627-6.6429 6.6429v79.714c0 3.6801 2.9627 6.6429 6.6429 6.6429h79.714c3.6801 0 6.6429-2.9627 6.6429-6.6429v-79.714c0-3.6801-2.9627-6.6429-6.6429-6.6429z" fill="url(#linearGradient4071)"/>
<g transform="matrix(.92364 0 0 .89617 3.201 1.1682)">
<rect transform="translate(29.042 -28.287)" x="-26.301" y="117.83" width="89.456" height="4.9561" rx="0" ry="4.9561" fill="url(#radialGradient5867)" opacity=".55"/>
<rect transform="matrix(1 0 0 -1 29.042 -28.287)" x="-27.065" y="-121.97" width="92.045" height="87.608" rx="3.9589" ry="3.7681" fill="url(#linearGradient5871)" stroke="#738589" stroke-width=".98032"/>
<path d="m33.829 35.387h4.311v-1.638h-0.468l-0.153 1.08-0.126 0.144h-2.034v-5.085l0.153-0.126 0.513-0.054v-0.36h-2.196v0.36l0.567 0.054 0.153 0.126v4.959l-0.153 0.126-0.567 0.045v0.369"/>
<path d="m40.683 30.968c-1.215 0-2.088 0.909-2.088 2.25 0 1.332 0.882 2.25 2.088 2.25 1.206 0 2.097-0.918 2.097-2.25 0-1.332-0.882-2.25-2.097-2.25m0 0.387c0.729 0 1.251 0.702 1.251 1.863 0 1.17-0.522 1.863-1.251 1.863-0.72 0-1.242-0.702-1.242-1.863 0-1.17 0.513-1.863 1.242-1.863"/>
<path d="m43.383 35.387h2.169v-0.324l-0.63-0.045-0.153-0.144v-2.574c0.369-0.432 0.684-0.657 0.981-0.657 0.189 0 0.342 0.072 0.459 0.216h0.288v-0.774c-0.189-0.081-0.36-0.117-0.54-0.117-0.072 0-0.153 0-0.225 0.018-0.324 0.261-0.648 0.549-0.963 0.873v-0.846h-0.342l-1.044 0.324v0.279h0.639v3.258l-0.162 0.144-0.477 0.045v0.324"/>
<path d="m50.59 34.433c-0.513 0.342-0.963 0.522-1.413 0.522-0.909 0-1.512-0.684-1.512-1.836v-0.099h2.916c9e-3 -0.099 9e-3 -0.189 9e-3 -0.279 0-1.107-0.639-1.773-1.62-1.773-1.206 0-2.079 0.927-2.079 2.286 0 1.323 0.819 2.214 2.007 2.214 0.567 0 1.152-0.18 1.692-0.54v-0.495m-0.801-1.791h-2.079c0.054-0.765 0.567-1.269 1.143-1.269 0.603 0 0.936 0.396 0.936 1.125v0.144"/>
<path transform="translate(29.042 -28.287)" d="m-23.094 38.517c-2.1932 0-3.9707 1.7693-3.9707 3.9525v3.9837c0-2.1832 1.7774-3.9525 3.9707-3.9525h84.103c2.1932 0 3.9707 1.7693 3.9707 3.9525v-3.9837c0-2.1832-1.7774-3.9525-3.9707-3.9525z" fill="#e4e8e8" stroke="#738589" stroke-width="1.0003"/>
<path transform="translate(29.042 -28.287)" d="m-23.094 34.534c-2.1932 0-3.9707 1.7693-3.9707 3.9525v3.9837c0-2.1832 1.7774-3.9525 3.9707-3.9525h84.103c2.1932 0 3.9707 1.7693 3.9707 3.9525v-3.9837c0-2.1832-1.7774-3.9525-3.9707-3.9525z" fill="#e4e8e8" stroke="#738589" stroke-width="1.0003"/>
<path transform="translate(29.042 -28.287)" d="m-23.11 33.797c-2.1933 0-3.9508 1.4354-3.9508 3.218v10.71c0-1.7826 2.1111-3.9416 4.3043-3.9379l83.96 0.14397c2.1932 0.0038 3.774 2.0113 3.774 3.7939v-10.71c0-1.7826-1.7576-3.218-3.9508-3.218z" fill="url(#linearGradient5875)" opacity=".25818"/>
<path d="m3.4166 14.48h88.911v2.7344h-88.911z" fill="url(#radialGradient4210)" stroke-width="1.4387"/>
<path d="m89.581 56.896 4.5106 4.6249v28.906h-31.938z" fill="url(#radialGradient3333-6)" stroke-width="1.3242"/>
<path d="m60.728 91.882 34.428-41.049c-3.0834 3.6764-5.7752 3.9725-14.566 3.9725h-15.89v19.862c0 8.7978 0.05875 12.408-3.9725 17.214z" fill="url(#linearGradient3341-2)" stroke-width="1.3242"/>
<path d="m95.024 50.9c-3.0834 3.6764-5.7752 3.9725-14.566 3.9725h-15.89v19.862c0 8.7978 0.05875 12.408-3.9725 17.214 5.2966-6.6208 5.2971-11.066 5.2966-17.214v-18.538h14.566c6.6208 0 10.648-0.50567 14.566-5.2966z" fill="#fff" fill-opacity=".7712" stroke-width="1.3242"/>
<path d="m33.707 37.294 52.452 0.093" fill="none" stroke="#172438" stroke-width=".74865"/>
<path d="m33.742 44.571 52.452 0.093" fill="none" stroke="#172438" stroke-width=".74865"/>
<path d="m33.848 66.399 29.088 0.26373" fill="none" stroke="#172438" stroke-width=".74688"/>
<path d="m33.885 74.058 29.088 0.26373" fill="none" stroke="#172438" stroke-width=".74688"/>
<path d="m33.922 81.716 28.826 0.26516" fill="none" stroke="#172438" stroke-width=".74554"/>
<path d="m33.778 51.847 52.464 0.11531" fill="none" stroke="#172438" stroke-width=".74865"/>
<path d="m33.814 59.504 29.001 0.26421" fill="none" stroke="#172438" stroke-width=".74644"/>
<path d="m57.964 50.856s-6.5664-5.6334-12.862-1.999l-2.1914-3.6679c6.3592-3.6713 4.7548-12.169 4.7548-12.169 0.23035 3.5495 0.0745 5.74 2.7035 10.293 2.6449 4.5808 7.5949 7.543 7.5949 7.543z" fill="url(#radialGradient4374-8)" fill-rule="evenodd" stroke="#404141" stroke-width="1px"/>
<path d="m47.95 29.551a18.85 18.849 14.996 1 0 36.416 9.7576 18.85 18.849 14.996 1 0-36.416-9.7576z" fill="url(#linearGradient4376-7)" stroke="url(#linearGradient4378-3)" stroke-width="2"/>
<path d="m71.657 16.197c8.4033 2.2517 13.772 10.079 13.324 18.426a0.23304 0.23303 14.999 0 1-0.1784 0.22323c-4.7321 1.09-10.825 0.97858-17.202-0.73015-7.0443-1.8875-12.827-5.3032-16.316-9.0303a0.23304 0.23303 14.999 0 1-0.02707-0.27828c3.9509-7.0184 12.253-10.793 20.399-8.6106z" fill="url(#linearGradient4380-9)" stroke="url(#linearGradient4382-2)"/>
<path d="m70.182 24.185a5.5311 3.9869 15 1 0 10.685 2.8631 5.5311 3.9869 15 1 0-10.685-2.8631z" fill="url(#radialGradient4384-6)" opacity=".6"/>
<rect transform="matrix(-.50002 -.86601 -.86604 .49998 0 0)" x="-66.52" y="-14.566" width="7.6517" height="36.218" rx="1.0202" ry="1.0202" fill="url(#linearGradient4388-2)" stroke="#391f08" stroke-width=".7"/>
<path d="m53.046 65.772 3.4413-1.9346s1.2298-1.7525-0.21005-4.2012c-1.1247 3.4866-4.0421 4.7633-4.0421 4.7633z" fill="url(#linearGradient4390-0)" fill-rule="evenodd"/>
<path transform="matrix(-.25507 -.44176 .44178 -.25505 -10.28 116.02)" d="m62.358 89.065 8.1759 0.04419s-2.9027 0.51644-3.403 4.552c-0.35355-4.0659-4.773-4.5962-4.773-4.5962z" fill="#fff" fill-rule="evenodd" filter="url(#filter3439-0)" opacity=".4"/>
<path d="m54.859 26.044c-0.50586 0-0.91688 0.39521-0.91688 0.91688 0 0.50586 0.41101 0.90107 0.91688 0.90107 0.50586 0 0.91688-0.3952 0.91688-0.90107 0-0.50586-0.41101-0.91688-0.91688-0.91688m-0.06323 3.5094-1.8179 0.56909v0.49006h1.1066v5.7226l-0.26874 0.25293-0.83784 0.07904v0.5691h3.5568v-0.5691l-0.85364-0.07904-0.28455-0.25293v-6.7817h-0.60071"/>
<path d="m57.203 40.683h3.7149v-0.5691l-1.0117-0.07904-0.26874-0.25293v-2.64c0.5849 0.09485 1.075 0.14227 1.4702 0.14227 2.3396 0 3.8888-1.6124 3.8888-4.1101 0-2.2131-1.2963-3.6991-3.0352-3.6991-0.74299 0-1.486 0.31617-2.3238 0.94849v-0.86945h-0.60071l-1.8338 0.5691v0.49005h1.1224v9.1688l-0.26874 0.25293-0.85364 0.07904v0.5691m2.4345-4.3631v-5.3116c0.60071-0.34778 1.1224-0.53748 1.6599-0.53748 1.3753 0 2.308 1.0908 2.308 2.9087 0 1.9444-1.075 3.1933-2.6242 3.1933-0.3794 0-0.82203-0.07904-1.3437-0.25293"/>
<path d="m70.984 29.822c-0.53748-0.23712-1.154-0.34778-1.8496-0.34778-1.8021 0-2.7981 0.82203-2.7981 2.2131 0 1.0592 0.69556 1.565 2.0393 2.1657 1.0433 0.47425 1.6124 0.7588 1.6124 1.5808 0 0.74298-0.5691 1.2805-1.486 1.2805-0.45844 0-0.90107-0.12647-1.3437-0.3794l-0.1897-1.3437h-0.75879v2.0551c0.55329 0.20551 1.2488 0.33197 2.0551 0.33197 1.8654 0 2.9561-0.90107 2.9561-2.3712 0-0.5849-0.22131-1.0592-0.60071-1.3595-0.52167-0.42682-1.1224-0.64814-1.6757-0.91688-0.88526-0.42682-1.3437-0.75879-1.3437-1.4385 0-0.71137 0.47425-1.1382 1.3121-1.1382 0.3794 0 0.75879 0.11066 1.1698 0.33197l0.12646 1.1224h0.7746v-1.7863"/>
<path d="m74.121 29.475-1.8338 0.5849v0.49005h1.1224v4.4263c0 1.5808 0.7588 2.4187 2.1183 2.4187 0.7746 0 1.6124-0.36359 2.5609-1.0433v0.88526h2.3396v-0.5691l-0.74298-0.07904-0.28455-0.25293v-6.8608h-0.60071l-1.8338 0.5849v0.49005h1.1224v5.359c-0.64814 0.31616-1.2488 0.47425-1.8338 0.47425-1.0591 0-1.5334-0.53748-1.5334-1.6757v-5.2325h-0.60071"/>
</g>
<path d="m9.974 5.1445c-3.1166 0-5.668 2.5395-5.668 5.646v69.278c0 3.1065 2.5513 5.646 5.668 5.646h76.792c3.1166 0 5.668-2.5395 5.668-5.646v-69.278c0-3.1065-2.5513-5.646-5.668-5.646zm0 2.3194h76.792c1.8881 0 3.352 1.4801 3.352 3.3266v69.278c0 1.8465-1.4639 3.3266-3.352 3.3266h-76.792c-1.8881 0-3.352-1.4801-3.352-3.3266v-69.278c0-1.8465 1.4639-3.3266 3.352-3.3266z" color="#000000" fill="#222121" fill-opacity=".9402" style="text-decoration-line:none;text-indent:0;text-transform:none"/>
<path d="m1.649 82.259v6c0 3.6801 2.9761 6.6562 6.6562 6.6562h79.687c3.6801 0 6.6563-2.9761 6.6563-6.6562v-6c0 3.6801-2.9761 6.6562-6.6563 6.6562h-79.687c-3.6801 0-6.6562-2.9761-6.6562-6.6562z" fill="url(#linearGradient4129)" opacity=".65818"/>
<rect x="5.524" y="80.665" width="84.25" height="4.25" rx="0" ry="4.25" fill="url(#radialGradient7462)" opacity=".55"/>
<rect transform="rotate(90)" x="5.975" y="-90.234" width="76.75" height="4.25" rx="0" ry="4.25" fill="url(#radialGradient7464)" opacity=".669"/>
<rect transform="matrix(1.0692 0 0 1.0477 4.4442 38.894)" x="2" y="-30" width="75.966" height="69.024" rx="3.957" ry="3.957" clip-path="url(#clipPath4156-4-1)" fill="url(#linearGradient4767)" opacity=".50781"/>
</g>
</g>
</svg>
