<?xml version="1.0" encoding="UTF-8"?>
<!-- Created with Inkscape (http://www.inkscape.org/) -->
<svg enable-background="new" version="1.1" viewBox="0 0 16 16" xmlns="http://www.w3.org/2000/svg" xmlns:cc="http://creativecommons.org/ns#" xmlns:dc="http://purl.org/dc/elements/1.1/" xmlns:osb="http://www.openswatchbook.org/uri/2009/osb" xmlns:rdf="http://www.w3.org/1999/02/22-rdf-syntax-ns#">
<metadata>
<rdf:RDF>
<cc:Work rdf:about="">
<dc:format>image/svg+xml</dc:format>
<dc:type rdf:resource="http://purl.org/dc/dcmitype/StillImage"/>
<dc:title>Paper Symbolic Icon Theme</dc:title>
</cc:Work>
</rdf:RDF>
</metadata>
<title>Paper Symbolic Icon Theme</title>
<defs>
<filter color-interpolation-filters="sRGB">
<feBlend in2="BackgroundImage" mode="darken"/>
</filter>
</defs>
<g transform="translate(-805 287)">
<path d="m811.5-286c-0.831 0-1.5 0.669-1.5 1.5v1.5h-3c-0.554 0-1 0.446-1 1v3h1.5c0.831 0 1.5 0.669 1.5 1.5s-0.669 1.5-1.5 1.5h-1.5v3c0 0.554 0.446 1 1 1h3v-1.5c0-0.831 0.669-1.5 1.5-1.5s1.5 0.669 1.5 1.5v1.5h3c0.554 0 1-0.446 1-1v-3h1.5c0.831 0 1.5-0.669 1.5-1.5s-0.669-1.5-1.5-1.5h-1.5v-3c0-0.554-0.446-1-1-1h-3v-1.5c0-0.831-0.669-1.5-1.5-1.5z" fill="#555"/>
</g>
</svg>
