<?xml version="1.0" encoding="UTF-8"?>
<!-- Created with Inkscape (http://www.inkscape.org/) -->
<svg version="1.1" viewBox="0 0 96 96" xmlns="http://www.w3.org/2000/svg" xmlns:cc="http://creativecommons.org/ns#" xmlns:dc="http://purl.org/dc/elements/1.1/" xmlns:rdf="http://www.w3.org/1999/02/22-rdf-syntax-ns#" xmlns:xlink="http://www.w3.org/1999/xlink">
<defs>
<linearGradient id="linearGradient4071" x1="6" x2="90" y1="47" y2="47" gradientTransform="matrix(1.1014 0 0 1.1014 -4.9671 -3.0997)" gradientUnits="userSpaceOnUse">
<stop stop-color="#b0b9be" offset="0"/>
<stop stop-color="#fff" offset=".25"/>
<stop stop-color="#93a2a7" offset=".5"/>
<stop stop-color="#f9fbfb" offset=".75"/>
<stop stop-color="#b0b8be" offset="1"/>
</linearGradient>
<linearGradient id="linearGradient4129" x1="1.5" x2="94.5" y1="88.172" y2="88.172" gradientTransform="matrix(.99479 0 0 .99479 .14895 .91503)" gradientUnits="userSpaceOnUse">
<stop offset="0"/>
<stop stop-opacity=".58824" offset=".1"/>
<stop stop-opacity=".58824" offset=".9"/>
<stop offset="1"/>
</linearGradient>
<radialGradient id="radialGradient7462" cx="13.948" cy="44.893" r="43.199" gradientTransform="matrix(.97005 0 0 .048935 33.871 80.664)" gradientUnits="userSpaceOnUse" xlink:href="#linearGradient4050"/>
<linearGradient id="linearGradient4050">
<stop stop-color="#fff" offset="0"/>
<stop stop-color="#fff" stop-opacity="0" offset="1"/>
</linearGradient>
<radialGradient id="radialGradient7464" cx="13.948" cy="44.893" r="43.199" gradientTransform="matrix(.8837 0 0 .048935 32.295 -89.848)" gradientUnits="userSpaceOnUse" xlink:href="#linearGradient4050"/>
<radialGradient id="radialGradient4543" cx="48" cy="-16.128" r="44.544" gradientTransform="matrix(1 0 0 .048851 -16.372 -3.8618)" gradientUnits="userSpaceOnUse" xlink:href="#linearGradient4050"/>
<linearGradient id="linearGradient4388" x1="2.5" x2="93.5" y1="54.297" y2="54.297" gradientTransform="translate(-17.652 -22.602)" gradientUnits="userSpaceOnUse" xlink:href="#linearGradient4160"/>
<linearGradient id="linearGradient4160">
<stop stop-opacity="0" offset="0"/>
<stop stop-opacity=".96471" offset=".031756"/>
<stop stop-opacity="0" offset=".094256"/>
<stop stop-opacity="0" offset=".49595"/>
<stop stop-opacity="0" offset=".90526"/>
<stop stop-opacity=".98824" offset=".96241"/>
<stop stop-opacity="0" offset="1"/>
</linearGradient>
<linearGradient id="linearGradient4369" x1="2.5" x2="93.5" y1="11.141" y2="11.141" gradientTransform="translate(-17.652 -22.602)" gradientUnits="userSpaceOnUse" xlink:href="#linearGradient4160"/>
<linearGradient id="linearGradient4767-6" x1="2.7714" x2="50.528" y1="-28.642" y2="14.514" gradientUnits="userSpaceOnUse" xlink:href="#linearGradient4050"/>
<clipPath id="clipPath4156-4-1-2">
<path d="m27.046-55.695-14.214 13.321h0.06127l15.653 21.771 10.231-10.546c-0.2169-1.1522-11.311-23.67-11.732-24.546zm-17.399 16.313-14.888 14.062 21.229 17.515 10.385-10.577zm31.491 12.951-9.7413 9.7136 8.9448 12.458 7.7808-7.555zm-49.84 4.3788-13.754 12.982 26.283 13.846 0.06127-0.0617-0.12253-0.0617 9.8332-10.053-22.301-16.652zm38.015 7.4008-9.8025 9.7753 11.579 9.5594 7.6276-7.4008-8.6691-11.009zm20.187 5.674-7.3825 7.2158 6.1878 8.5418 5.8202-6.1365zm-32.195 6.3215-9.5575 9.4977 13.662 7.185 7.9339-7.6784zm23.312 2.3744-7.1068 6.9383 8.3628 6.9074 5.3608-5.674-0.06127-0.0925-0.0919 0.12335-6.4635-8.2026zm-8.7304 8.5418-7.5051 7.3392 10.354 5.4581c1.3975-1.321 5.6751-6.1229 5.8509-6.3215z" fill="#fff" opacity=".6"/>
</clipPath>
</defs>
<metadata>
<rdf:RDF>
<cc:Work rdf:about="">
<dc:format>image/svg+xml</dc:format>
<dc:type rdf:resource="http://purl.org/dc/dcmitype/StillImage"/>
<dc:title/>
<dc:date>2017</dc:date>
<dc:creator>
<cc:Agent>
<dc:title>Cristian Pozzessere "ilnanny"</dc:title>
</cc:Agent>
</dc:creator>
<dc:subject>
<rdf:Bag>
<rdf:li>Global language</rdf:li>
</rdf:Bag>
</dc:subject>
<dc:description>Playing with Inkscape on Gnu/Linux O. S.</dc:description>
<dc:contributor>
<cc:Agent>
<dc:title>In the night, alone like a dog.</dc:title>
</cc:Agent>
</dc:contributor>
<cc:license rdf:resource="http://creativecommons.org/licenses/by-sa/4.0/"/>
</cc:Work>
<cc:License rdf:about="http://creativecommons.org/licenses/by-sa/4.0/">
<cc:permits rdf:resource="http://creativecommons.org/ns#Reproduction"/>
<cc:permits rdf:resource="http://creativecommons.org/ns#Distribution"/>
<cc:requires rdf:resource="http://creativecommons.org/ns#Notice"/>
<cc:requires rdf:resource="http://creativecommons.org/ns#Attribution"/>
<cc:permits rdf:resource="http://creativecommons.org/ns#DerivativeWorks"/>
<cc:requires rdf:resource="http://creativecommons.org/ns#ShareAlike"/>
</cc:License>
</rdf:RDF>
</metadata>
<g transform="translate(0 -1026.5)">
<g transform="translate(-.14896 1026.1)">
<g transform="translate(.25 -.25003)">
<path d="m88.828 0.91503h-81.857c-3.7791 0-6.8214 3.0424-6.8214 6.8214v81.857c0 3.7791 3.0424 6.8214 6.8214 6.8214h81.857c3.7791 0 6.8214-3.0424 6.8214-6.8214v-81.857c0-3.7791-3.0424-6.8214-6.8214-6.8214z" opacity=".15"/>
<path d="m88.188 1.6611h-80.578c-3.72 0-6.7148 2.9948-6.7148 6.7148v80.578c0 3.72 2.9948 6.7148 6.7148 6.7148h80.578c3.72 0 6.7148-2.9948 6.7148-6.7148v-80.578c0-3.72-2.9948-6.7148-6.7148-6.7148z" opacity=".15"/>
<path d="m87.549 2.4072h-79.299c-3.661 0-6.6083 2.9473-6.6083 6.6083v79.299c0 3.661 2.9473 6.6083 6.6083 6.6083h79.299c3.661 0 6.6083-2.9473 6.6083-6.6083v-79.299c0-3.661-2.9473-6.6083-6.6083-6.6083z" fill="url(#linearGradient4071)"/>
<path d="m9.9229 5.6199c-3.1004 0-5.6384 2.5263-5.6384 5.6166v68.917c0 3.0903 2.5381 5.6166 5.6384 5.6166h76.392c3.1004 0 5.6384-2.5263 5.6384-5.6166v-68.917c0-3.0903-2.5381-5.6166-5.6384-5.6166zm0 2.3074h76.392c1.8783 0 3.3346 1.4724 3.3346 3.3092v68.917c0 1.8369-1.4563 3.3092-3.3346 3.3092h-76.392c-1.8783 0-3.3346-1.4724-3.3346-3.3092v-68.917c0-1.8369 1.4563-3.3092 3.3346-3.3092z" color="#000000" fill="#212122" style="text-decoration-line:none;text-indent:0;text-transform:none"/>
<path d="m1.6411 82.333v5.9688c0 3.661 2.9606 6.6216 6.6216 6.6216h79.272c3.661 0 6.6216-2.9606 6.6216-6.6216v-5.9688c0 3.661-2.9606 6.6216-6.6216 6.6216h-79.272c-3.661 0-6.6216-2.9606-6.6216-6.6216z" fill="url(#linearGradient4129)" opacity=".65818"/>
<rect x="5.496" y="80.747" width="83.811" height="4.2279" rx="0" ry="4.2279" fill="url(#radialGradient7462)" opacity=".55"/>
<rect transform="rotate(90)" x="6.4461" y="-89.765" width="76.35" height="4.2279" rx="0" ry="4.2279" fill="url(#radialGradient7464)" opacity=".669"/>
<g transform="matrix(.90822 0 0 .84005 20.183 24.361)">
<path d="m-11.246-7.5079c-2.1685 0-3.9062 1.7424-3.9062 3.9062v70.594c0 2.1638 1.7377 3.9062 3.9062 3.9062h83.188c2.1685 0 3.9062-1.7424 3.9062-3.9062v-70.594c0-2.1638-1.7377-3.9062-3.9062-3.9062z" fill="#ebedee"/>
<rect x="-12.916" y="-6.8257" width="89.088" height="4.352" rx="3.957" ry="3.0577" fill="url(#radialGradient4543)" opacity=".65091"/>
<path d="m-11.246-7.5079c-2.1685 0-3.9062 1.7424-3.9062 3.9062v70.594c0 2.1638 1.7377 3.9062 3.9062 3.9062h83.188c2.1685 0 3.9062-1.7424 3.9062-3.9062v-70.594c0-2.1638-1.7377-3.9062-3.9062-3.9062z" fill="url(#linearGradient4388)" opacity=".28"/>
<g transform="matrix(1.0066 0 0 1.0883 -17.988 11.355)">
<path d="m18.068-8.4952c-1.3847 0-2.4803 1.0961-2.4803 2.4802v56.74c0 1.3842 1.0957 2.4769 2.4803 2.4769h56.736c1.3847 0 2.4804-1.0928 2.4804-2.4769v-56.74c0-1.3842-1.0957-2.4802-2.4804-2.4802zm3.6561 3.8872h49.662c1.2528 0 2.2494 0.99688 2.2494 2.2493l-0.0011 28.98h-7.3216l-9.0879-27.545-6.5205 18.638-6.4268-18.862-7.9866 30.528-5.0477-16.71h-11.768v-15.028c0-1.2525 0.99657-2.2491 2.2494-2.2491zm35.363 17.505 5.9682 17.858 10.579 0.03322 0.0011 16.279c8.5e-5 1.2522-0.9966 2.246-2.2494 2.246h-49.662c-1.2528 0-2.2494-0.99356-2.2494-2.246v-30.432l8.3707 0.07357 8.7197 29.152 8.2176-31.676 5.831 17.443 6.4737-18.728z" fill="#000102" fill-opacity=".6982"/>
<path d="m21.568-12.195c-1.3847 0-2.4803 1.0961-2.4803 2.4802v56.74c0 1.3842 1.0957 2.4769 2.4803 2.4769h56.736c1.3847 0 2.4804-1.0928 2.4804-2.4769v-56.74c0-1.3842-1.0957-2.4802-2.4804-2.4802zm3.6561 3.8872h49.662c1.2528 0 2.2494 0.99688 2.2494 2.2493l-0.0011 28.98h-7.3216l-9.0879-27.545-6.5205 18.638-6.4268-18.862-7.9866 30.528-5.0477-16.71h-11.768v-15.028c0-1.2525 0.99657-2.2491 2.2494-2.2491zm35.363 17.505 5.9682 17.858 10.579 0.03322 0.0011 16.279c8.4e-5 1.2522-0.9966 2.246-2.2494 2.246h-49.662c-1.2528 0-2.2494-0.99356-2.2494-2.246v-30.432l8.3707 0.07357 8.7197 29.152 8.2176-31.676 5.831 17.443 6.4737-18.728z" fill="#aaecff"/>
<path d="m19.568-10.195c-1.3847 0-2.4803 1.0961-2.4803 2.4802v56.74c0 1.3842 1.0957 2.4769 2.4803 2.4769h56.736c1.3847 0 2.4804-1.0928 2.4804-2.4769v-56.74c0-1.3842-1.0957-2.4802-2.4804-2.4802zm3.6561 3.8872h49.662c1.2528 0 2.2494 0.99688 2.2494 2.2493l-0.0011 28.98h-7.3216l-9.0879-27.545-6.5205 18.638-6.4268-18.862-7.9866 30.528-5.0477-16.71h-11.768v-15.028c0-1.2525 0.99657-2.2491 2.2494-2.2491zm35.363 17.505 5.9682 17.858 10.579 0.03322 0.0011 16.279c8.4e-5 1.2522-0.9966 2.246-2.2494 2.246h-49.662c-1.2528 0-2.2494-0.99356-2.2494-2.246v-30.432l8.3707 0.07357 8.7197 29.152 8.2176-31.676 5.831 17.443 6.4737-18.728z" fill="#4184ef"/>
</g>
<path d="m-11.527-20.414c-2.1827 0-3.9375 1.7548-3.9375 3.9375v12c0-2.1827 1.7548-3.9375 3.9375-3.9375h83.75c2.1827 0 3.9375 1.7548 3.9375 3.9375v-12c0-2.1827-1.7548-3.9375-3.9375-3.9375z" opacity="0"/>
<path d="m-11.23-20.105c-2.1685 0-3.9259 1.7614-3.9259 3.9349v3.9658c0-2.1734 1.7574-3.9349 3.9259-3.9349h83.155c2.1685 0 3.9259 1.7614 3.9259 3.9349v-3.9658c0-2.1734-1.7574-3.9349-3.9259-3.9349z" fill="#e4e8e8" stroke="#738589" stroke-width=".99243"/>
<path d="m-11.23-12.175c-2.1685 0-3.9259 1.7614-3.9259 3.9349v3.9658c0-2.1734 1.7574-3.9349 3.9259-3.9349h83.155c2.1685 0 3.9259 1.7614 3.9259 3.9349v-3.9658c0-2.1734-1.7574-3.9349-3.9259-3.9349z" fill="#e4e8e8" stroke="#738589" stroke-width=".99243"/>
<path d="m-11.23-16.14c-2.1685 0-3.9259 1.7614-3.9259 3.9349v3.9658c0-2.1734 1.7574-3.9349 3.9259-3.9349h83.155c2.1685 0 3.9259 1.7614 3.9259 3.9349v-3.9658c0-2.1734-1.7574-3.9349-3.9259-3.9349z" fill="#e4e8e8" stroke="#738589" stroke-width=".99243"/>
<path d="m-11.246-19.914c-2.1685 0-3.9062 1.7424-3.9062 3.9062v13c0-2.1638 2.0873-4.7846 4.2558-4.7801l83.013 0.17476c2.1685 0.00457 3.7315 2.4415 3.7315 4.6053v-13c0-2.1638-1.7377-3.9062-3.9062-3.9062z" fill="url(#linearGradient4369)" opacity=".25818"/>
<rect transform="matrix(1.2146 0 0 1.3114 -18.089 19.372)" x="2" y="-30" width="75.966" height="69.024" rx="3.957" ry="3.957" clip-path="url(#clipPath4156-4-1-2)" fill="url(#linearGradient4767-6)" opacity=".50781"/>
</g>
</g>
</g>
</g>
</svg>
