<?xml version="1.0" encoding="UTF-8"?>
<!-- Created with Inkscape (http://www.inkscape.org/) -->
<svg version="1.1" viewBox="0 0 96 96" xmlns="http://www.w3.org/2000/svg" xmlns:cc="http://creativecommons.org/ns#" xmlns:dc="http://purl.org/dc/elements/1.1/" xmlns:rdf="http://www.w3.org/1999/02/22-rdf-syntax-ns#" xmlns:xlink="http://www.w3.org/1999/xlink">
<title>Lila-HD-Icon-Theme</title>
<script xlink:href=""/>
<defs>
<linearGradient id="linearGradient6161" x1="6" x2="90" y1="47" y2="47" gradientTransform="matrix(1.1393 0 0 1.1393 -6.6857 -37.546)" gradientUnits="userSpaceOnUse">
<stop stop-color="#b7b7b7" offset="0"/>
<stop stop-color="#fff" offset=".25"/>
<stop stop-color="#9d9d9d" offset=".5"/>
<stop stop-color="#fafafa" offset=".75"/>
<stop stop-color="#b7b7b7" offset="1"/>
</linearGradient>
<radialGradient id="radialGradient6163" cx="158" cy="6.2132" r="41" gradientTransform="matrix(0 1.8467 -2.3222 0 62.428 -313.86)" gradientUnits="userSpaceOnUse">
<stop stop-color="#fff" offset="0"/>
<stop stop-color="#fff" stop-opacity="0" offset="1"/>
</radialGradient>
<radialGradient id="radialGradient6165" cx="48" cy="-27" r="42" gradientTransform="matrix(-1.2215 0 0 -.9969 106.63 -58.766)" gradientUnits="userSpaceOnUse">
<stop stop-color="#fff" offset="0"/>
<stop stop-color="#fff" offset=".8"/>
<stop stop-color="#fff" stop-opacity="0" offset="1"/>
</radialGradient>
<linearGradient id="linearGradient6167" x1="-94" x2="-10.188" y1="82.984" y2="82.984" gradientTransform="matrix(1.1393 0 0 1.0129 107.24 -26.788)" gradientUnits="userSpaceOnUse">
<stop offset="0"/>
<stop stop-opacity=".58824" offset=".1"/>
<stop stop-opacity=".58824" offset=".9"/>
<stop offset="1"/>
</linearGradient>
<linearGradient id="linearGradient6169" x1="2.4652" x2="59.378" y1=".27862" y2=".27862" gradientTransform="matrix(1.0034 0 0 1.005 33.489 9.4732)" gradientUnits="userSpaceOnUse">
<stop stop-color="#fff" offset="0"/>
<stop stop-color="#fff" stop-opacity="0" offset="1"/>
</linearGradient>
<linearGradient id="linearGradient6171" x1="6" x2="90" y1="47" y2="47" gradientTransform="matrix(1.1393 0 0 1.1393 -6.6857 -37.546)" gradientUnits="userSpaceOnUse">
<stop stop-color="#fff" stop-opacity="0" offset="0"/>
<stop stop-color="#fff" stop-opacity=".85135" offset=".036815"/>
<stop stop-color="#fff" stop-opacity="0" offset=".065061"/>
<stop stop-color="#fff" stop-opacity="0" offset=".94494"/>
<stop stop-color="#fff" stop-opacity=".85135" offset=".96582"/>
<stop stop-color="#fff" stop-opacity="0" offset="1"/>
</linearGradient>
</defs>
<metadata>
<rdf:RDF>
<cc:Work rdf:about="">
<dc:format>image/svg+xml</dc:format>
<dc:type rdf:resource="http://purl.org/dc/dcmitype/StillImage"/>
<dc:title>Lila-HD-Icon-Theme</dc:title>
<dc:date>2015-2019</dc:date>
<dc:creator>
<cc:Agent>
<dc:title>Cristian Pozzessere  == ilnanny ==</dc:title>
</cc:Agent>
</dc:creator>
<dc:subject>
<rdf:Bag>
<rdf:li>ilnanny</rdf:li>
<rdf:li>lila_hd</rdf:li>
<rdf:li>lila-hd</rdf:li>
<rdf:li>lila hd icon theme</rdf:li>
<rdf:li>Lila-HD-Icon-Theme lila hd icon lila icon</rdf:li>
</rdf:Bag>
</dc:subject>
<dc:coverage>CC-BY-SA</dc:coverage>
<dc:description>Playing with Inkscape on Gnu/Linux O. S.</dc:description>
<dc:contributor>
<cc:Agent>
<dc:title>In the night, alone like a dog.</dc:title>
</cc:Agent>
</dc:contributor>
<cc:license rdf:resource="http://creativecommons.org/licenses/by-sa/4.0/"/>
</cc:Work>
<cc:License rdf:about="http://creativecommons.org/licenses/by-sa/4.0/">
<cc:permits rdf:resource="http://creativecommons.org/ns#Reproduction"/>
<cc:permits rdf:resource="http://creativecommons.org/ns#Distribution"/>
<cc:requires rdf:resource="http://creativecommons.org/ns#Notice"/>
<cc:requires rdf:resource="http://creativecommons.org/ns#Attribution"/>
<cc:permits rdf:resource="http://creativecommons.org/ns#DerivativeWorks"/>
<cc:requires rdf:resource="http://creativecommons.org/ns#ShareAlike"/>
</cc:License>
</rdf:RDF>
</metadata>
<g transform="translate(0,32)">
<path d="m89.014-31.85h-82.029c-3.787 0-6.8357 3.0487-6.8357 6.8357v82.029c0 3.787 3.0487 6.8357 6.8357 6.8357h82.029c3.787 0 6.8357-3.0487 6.8357-6.8357v-82.029c0-3.787-3.0487-6.8357-6.8357-6.8357z" fill="url(#linearGradient6161)"/>
<path d="m6.9857-30.711c-3.1755 0-5.6964 2.5209-5.6964 5.6964v75.549c1.2198 1.8556 3.3004 3.0974 5.6964 3.0974h82.029c2.396 0 4.4766-1.2418 5.6964-3.0974v-75.549c0-3.1755-2.5209-5.6964-5.6964-5.6964z" fill="url(#radialGradient6163)" opacity=".2"/>
<path d="m6.9857-31.85c-3.787 0-6.8357 3.0487-6.8357 6.8357v17.089h1.1393v-17.089c0-3.1755 2.5209-5.6964 5.6964-5.6964h82.029c3.1755 0 5.6964 2.5209 5.6964 5.6964v17.089h1.1393v-17.089c0-3.787-3.0487-6.8357-6.8357-6.8357z" fill="url(#radialGradient6165)" opacity=".45"/>
<path d="m0.15 50.682v7.0902c0 3.3669 3.0487 6.0773 6.8357 6.0773h82.029c3.787 0 6.8357-2.7105 6.8357-6.0773v-7.0902c0 3.3669-3.0487 6.0773-6.8357 6.0773h-82.029c-3.787 0-6.8357-2.7105-6.8357-6.0773z" fill="url(#linearGradient6167)" opacity=".46965"/>
<ellipse cx="29.716" cy="52.709" rx="3.4436" ry="3.1329" fill="#1c1c1c" opacity=".71"/>
<ellipse cx="29.716" cy="52.501" rx="2.8653" ry="2.6822" fill="#fff"/>
<ellipse cx="29.716" cy="52.501" rx="1.9422" ry="1.8181" fill="#114751"/>
<ellipse cx="63.833" cy="52.709" rx="3.4436" ry="3.1329" fill="#1c1c1c" opacity=".71"/>
<ellipse cx="63.833" cy="52.501" rx="2.8653" ry="2.6822" fill="#fff"/>
<ellipse cx="63.833" cy="52.501" rx="1.9422" ry="1.8181" fill="#114751"/>
<rect x="40.657" y="51.658" width="12.718" height="3.252" rx="1.1521" ry="1.1538" fill="#0c2f31" fill-opacity=".90455" opacity=".75097" stroke="#fff" stroke-width=".502"/>
<path d="m7.7809 26.132c-1.8851 0-3.6495 0.91815-4.7591 2.2718v15.089c0 2.4045 2.1226 4.3402 4.7591 4.3402h80.905c2.6365 0 4.7591-1.9357 4.7591-4.3402v-15.089c-1.1096-1.3537-2.874-2.2718-4.7591-2.2718zm0 3.2552h80.905c1.3594 0 2.3796 0.93033 2.3796 2.1701v11.936c0 1.2398-1.0201 2.1701-2.3796 2.1701h-80.905c-1.3594 0-2.3796-0.93033-2.3796-2.1701v-11.936c0-1.2398 1.0201-2.1701 2.3796-2.1701z" color="#000000" opacity=".02" style="text-decoration-line:none;text-indent:0;text-transform:none"/>
<path d="m7.7809-28.121h80.905c2.6365 0 4.7591 1.9357 4.7591 4.3402v67.273c0 2.4045-2.1226 4.3402-4.7591 4.3402h-80.905c-2.6365 0-4.7591-1.9357-4.7591-4.3402v-67.273c0-2.4045 2.1226-4.3402 4.7591-4.3402z" color="#000000" fill="#0079c1"/>
<path d="m44.452-19.465-5.3539 1.4266 4.5656 11.615 1.6494 0.94725c8.2107-1.7206 17.211 3.2212 19.947 11.159 0.04271 0.11687 0.07081 0.23685 0.11093 0.35373l2.0513 1.1755 12.403-1.8756-1.4351-5.3224-10.444-1.4952-4.1103-4.611 3.1993-9.4082-5.09-2.9218-6.5938 7.4604-6.0697-1.2326-4.8296-7.2702zm-16.716 7.7839-3.9188 3.8957 3.9188 9.7394-1.9594 5.8436-9.7971 1.9479v5.8436l9.7971 1.9479 1.9594 5.8436-3.9188 7.7915 3.9188 3.8957 7.8377-9.7394v-2.0164c-2.257-2.4808-3.8215-5.5721-4.267-8.9479-0.91583-5.1356 0.86942-10.411 4.267-14.263v-2.0429zm39.882 27.864-2.2733 1.3049c-2.2982 6.3345-8.3749 11.295-15.273 11.661-1.5645 0.15778-3.1241 0.06037-4.6383-0.23199l-1.5729 0.90167-4.5656 11.615 5.3539 1.4266 6.5251-8.2442 6.0697-1.2326 6.5977 7.4604 5.09-2.9218-3.2033-9.4082 4.114-4.611 8.7447-0.52126 1.4351-5.3224-12.403-1.8756z" fill="#00141f" opacity=".56" stroke-width="1.0262"/>
<path d="m44.452-21.405-5.3531 1.4266 4.5654 11.615 1.6479 0.94861c8.2119-1.7219 17.212 3.2198 19.947 11.157 0.04302 0.11686 0.0705 0.23764 0.11174 0.35451l2.0515 1.1746 12.403-1.8758-1.4362-5.3216-10.444-1.496-4.1089-4.6106 3.1978-9.4082-5.0886-2.9216-6.5934 7.4602-6.0703-1.233-4.83-7.2697zm-16.716 7.7839-3.9188 3.8958 3.9188 9.7394-1.9594 5.8436-9.7975 1.9479v5.8436l9.7975 1.9479 1.9594 5.8436-3.9188 7.7915 3.9188 3.8958 7.8377-9.7394v-2.016c-2.2572-2.4816-3.8209-5.5729-4.2676-8.9485-0.91505-5.1346 0.86998-10.411 4.2676-14.262v-2.0433zm39.88 27.864-2.2729 1.3051c-2.2984 6.3345-8.3745 11.294-15.274 11.66-1.5636 0.15777-3.1233 0.06037-4.6379-0.2318l-1.5734 0.90186-4.5654 11.615 5.3551 1.4258 6.5249-8.2434 6.0683-1.233 6.5993 7.4603 5.0886-2.9218-3.2036-9.4082 4.1148-4.6106 8.7449-0.52202 1.4343-5.3216z" fill="#fff" stroke-width="1.0262"/>
<path d="m8.7251-27.32h79.017c2.575 0 4.648 1.8912 4.648 4.2405v65.727c0 2.3492-2.073 4.2405-4.648 4.2405h-79.017c-2.575 0-4.648-1.8912-4.648-4.2405v-65.727c0-2.3492 2.073-4.2405 4.648-4.2405z" color="#000000" fill="none" stroke="#000" stroke-opacity=".7758" stroke-width="2.2904"/>
<path d="m35.963-28.224c8.3294 26.184 16.985 51.751 25.766 75.954h26.584c2.6365 0 4.7591-1.9357 4.7591-4.3402v-67.273c0-2.4045-2.1225-4.3402-4.7591-4.3402z" color="#000000" fill="url(#linearGradient6169)" opacity=".30882"/>
<path d="m89.014-31.85h-82.029c-3.787 0-6.8357 3.0487-6.8357 6.8357v82.029c0 3.787 3.0487 6.8357 6.8357 6.8357h82.029c3.787 0 6.8357-3.0487 6.8357-6.8357v-82.029c0-3.787-3.0487-6.8357-6.8357-6.8357z" fill="url(#linearGradient6171)" opacity=".72794"/>
</g>
</svg>
