<?xml version="1.0" encoding="UTF-8"?>
<!-- Created with Inkscape (http://www.inkscape.org/) -->
<svg version="1.1" viewBox="0 0 96 96" xmlns="http://www.w3.org/2000/svg" xmlns:cc="http://creativecommons.org/ns#" xmlns:dc="http://purl.org/dc/elements/1.1/" xmlns:rdf="http://www.w3.org/1999/02/22-rdf-syntax-ns#" xmlns:xlink="http://www.w3.org/1999/xlink">
<script xlink:href=""/>
<defs>
<linearGradient id="linearGradient5187" x1="6" x2="90" y1="47" y2="47" gradientTransform="matrix(1.1393 0 0 1.1393 -8.3221 -17.728)" gradientUnits="userSpaceOnUse">
<stop stop-color="#b7b7b7" offset="0"/>
<stop stop-color="#fff" offset=".25"/>
<stop stop-color="#9d9d9d" offset=".5"/>
<stop stop-color="#fafafa" offset=".75"/>
<stop stop-color="#b7b7b7" offset="1"/>
</linearGradient>
<radialGradient id="radialGradient5189" cx="158" cy="6.2132" r="41" gradientTransform="matrix(0 1.6209 -2.0383 0 160.66 -243.04)" gradientUnits="userSpaceOnUse">
<stop stop-color="#fff" offset="0"/>
<stop stop-color="#fff" stop-opacity="0" offset="1"/>
</radialGradient>
<radialGradient id="radialGradient5191" cx="48" cy="-27" r="42" gradientTransform="matrix(-1.0722 0 0 -.87502 199.46 -19.126)" gradientUnits="userSpaceOnUse">
<stop stop-color="#fff" offset="0"/>
<stop stop-color="#fff" offset=".8"/>
<stop stop-color="#fff" stop-opacity="0" offset="1"/>
</radialGradient>
<linearGradient id="linearGradient5193" x1="-94" x2="-10.188" y1="82.984" y2="82.984" gradientTransform="matrix(1 0 0 .88906 200 8.9432)" gradientUnits="userSpaceOnUse">
<stop offset="0"/>
<stop stop-opacity=".58824" offset=".1"/>
<stop stop-opacity=".58824" offset=".9"/>
<stop offset="1"/>
</linearGradient>
<linearGradient id="linearGradient5195" x1="-2.7963" x2="87.627" y1="8.4013" y2="8.4013" gradientTransform="translate(4.1818 21.273)" gradientUnits="userSpaceOnUse">
<stop stop-color="#0a47d6" stop-opacity=".99608" offset="0"/>
<stop stop-color="#296aed" offset="1"/>
</linearGradient>
<linearGradient id="linearGradient5197" x1="6" x2="90" y1="47" y2="47" gradientTransform="matrix(1.1393 0 0 1.1393 -8.3221 -17.728)" gradientUnits="userSpaceOnUse">
<stop stop-color="#fff" stop-opacity="0" offset="0"/>
<stop stop-color="#fff" stop-opacity=".85135" offset=".036815"/>
<stop stop-color="#fff" stop-opacity="0" offset=".065061"/>
<stop stop-color="#fff" stop-opacity="0" offset=".94494"/>
<stop stop-color="#fff" stop-opacity=".85135" offset=".96582"/>
<stop stop-color="#fff" stop-opacity="0" offset="1"/>
</linearGradient>
<linearGradient id="linearGradient5199" x1="2.4652" x2="59.378" y1=".27862" y2=".27862" gradientTransform="matrix(1.0034 0 0 1.005 31.853 29.291)" gradientUnits="userSpaceOnUse">
<stop stop-color="#fff" offset="0"/>
<stop stop-color="#fff" stop-opacity="0" offset="1"/>
</linearGradient>
<linearGradient id="linearGradient5201" x1="409.57" x2="409.57" y1="539.21" y2="508.38" gradientUnits="userSpaceOnUse">
<stop stop-color="#bccffc" stop-opacity=".99608" offset="0"/>
<stop stop-color="#f6f9fe" offset="1"/>
</linearGradient>
</defs>
<metadata>
<rdf:RDF>
<cc:Work rdf:about="">
<dc:format>image/svg+xml</dc:format>
<dc:type rdf:resource="http://purl.org/dc/dcmitype/StillImage"/>
<dc:title/>
</cc:Work>
</rdf:RDF>
</metadata>
<g transform="translate(0,32)">
<g transform="translate(1.6364 -19.818)">
<path d="m87.378-12.032h-82.029c-3.787 0-6.8357 3.0487-6.8357 6.8357v82.029c0 3.787 3.0487 6.8357 6.8357 6.8357h82.029c3.787 0 6.8357-3.0487 6.8357-6.8357v-82.029c0-3.787-3.0487-6.8357-6.8357-6.8357z" fill="url(#linearGradient5187)"/>
<g transform="matrix(1.1393 0 0 1.1393 -122.25 -17.159)">
<path d="m112 5.5c-2.7873 0-5 2.2127-5 5v20.719 7 38.594c1.0707 1.6288 2.8969 2.7188 5 2.7188h4 64 4c2.1031 0 3.9293-1.09 5-2.7188v-38.594-7-20.719c0-2.7873-2.2127-5-5-5z" fill="url(#radialGradient5189)" opacity=".2"/>
<path d="m112 4.5c-3.324 0-6 2.676-6 6v15h1v-15c0-2.7873 2.2127-5 5-5h72c2.7873 0 5 2.2127 5 5v15h1v-15c0-3.324-2.676-6-6-6h-72z" fill="url(#radialGradient5191)" opacity=".45"/>
<path d="m106 76.942v0.88906 0.88906 0.88906 1.7781 1.7781c0 2.9552 2.676 5.3344 6 5.3344h72c3.324 0 6-2.3791 6-5.3344v-1.7781-1.7781-0.88906-0.88906-0.88906c0 2.9552-2.676 5.3344-6 5.3344h-72c-3.324 0-6-2.3791-6-5.3344z" fill="url(#linearGradient5193)" opacity=".46965"/>
</g>
<g transform="matrix(.98961 0 0 1.0556 -4.7238 -9.4619)">
<path transform="matrix(1.2467 0 0 1.0634 -54.59 -6.5568)" d="m73.164 79.209c0 1.5415-1.2496 2.791-2.791 2.791-1.5415 0-2.791-1.2496-2.791-2.791 0-1.5415 1.2496-2.791 2.791-2.791 1.5415 0 2.791 1.2496 2.791 2.791z" fill="#1c1c1c" opacity=".71"/>
<path transform="matrix(1.0374 0 0 .91042 -39.857 5.3629)" d="m73.164 79.209c0 1.5415-1.2496 2.791-2.791 2.791-1.5415 0-2.791-1.2496-2.791-2.791 0-1.5415 1.2496-2.791 2.791-2.791 1.5415 0 2.791 1.2496 2.791 2.791z" fill="#fff"/>
<path transform="matrix(.70317 0 0 .6171 -16.336 28.596)" d="m73.164 79.209c0 1.5415-1.2496 2.791-2.791 2.791-1.5415 0-2.791-1.2496-2.791-2.791 0-1.5415 1.2496-2.791 2.791-2.791 1.5415 0 2.791 1.2496 2.791 2.791z" fill="#114751"/>
<path transform="matrix(1.2467 0 0 1.0634 -20.114 -6.5568)" d="m73.164 79.209c0 1.5415-1.2496 2.791-2.791 2.791-1.5415 0-2.791-1.2496-2.791-2.791 0-1.5415 1.2496-2.791 2.791-2.791 1.5415 0 2.791 1.2496 2.791 2.791z" fill="#1c1c1c" opacity=".71"/>
<path transform="matrix(1.0374 0 0 .91042 -5.3813 5.3629)" d="m73.164 79.209c0 1.5415-1.2496 2.791-2.791 2.791-1.5415 0-2.791-1.2496-2.791-2.791 0-1.5415 1.2496-2.791 2.791-2.791 1.5415 0 2.791 1.2496 2.791 2.791z" fill="#fff"/>
<path transform="matrix(.70317 0 0 .6171 18.139 28.596)" d="m73.164 79.209c0 1.5415-1.2496 2.791-2.791 2.791-1.5415 0-2.791-1.2496-2.791-2.791 0-1.5415 1.2496-2.791 2.791-2.791 1.5415 0 2.791 1.2496 2.791 2.791z" fill="#114751"/>
<rect transform="matrix(1.014 0 0 .95205 3.1886 -2.9106)" x="40.449" y="83.596" width="12.674" height="3.236" rx="1.1481" ry="1.1481" fill="#0c2f31" fill-opacity=".90455" opacity=".75097" stroke="#fff" stroke-width=".4999"/>
</g>
<path d="m6.1446 45.95c-1.8851 0-3.6495 0.91815-4.7591 2.2718v15.089c0 2.4045 2.1226 4.3402 4.7591 4.3402h80.905c2.6365 0 4.7591-1.9357 4.7591-4.3402v-15.089c-1.1096-1.3537-2.874-2.2718-4.7591-2.2718h-80.905zm0 3.2552h80.905c1.3594 0 2.3796 0.93033 2.3796 2.1701v11.936c0 1.2398-1.0201 2.1701-2.3796 2.1701h-80.905c-1.3594 0-2.3796-0.93033-2.3796-2.1701v-11.936c0-1.2398 1.0201-2.1701 2.3796-2.1701z" color="#000000" opacity=".02" style="block-progression:tb;text-indent:0;text-transform:none"/>
<path d="m6.1446-8.3028h80.905c2.6365 0 4.7591 1.9357 4.7591 4.3402v67.273c0 2.4045-2.1226 4.3402-4.7591 4.3402h-80.905c-2.6365 0-4.7591-1.9357-4.7591-4.3402v-67.273c0-2.4045 2.1226-4.3402 4.7591-4.3402z" color="#000000" fill="url(#linearGradient5195)" opacity=".73115"/>
<path d="m7.0887-7.5016h79.017c2.575 0 4.648 1.8912 4.648 4.2405v65.727c0 2.3492-2.073 4.2405-4.648 4.2405h-79.017c-2.575 0-4.648-1.8912-4.648-4.2405v-65.727c0-2.3492 2.073-4.2405 4.648-4.2405z" color="#000000" fill="none" stroke="#000" stroke-opacity=".7758" stroke-width="2.2904"/>
<path d="m87.378-12.032h-82.029c-3.787 0-6.8357 3.0487-6.8357 6.8357v82.029c0 3.787 3.0487 6.8357 6.8357 6.8357h82.029c3.787 0 6.8357-3.0487 6.8357-6.8357v-82.029c0-3.787-3.0487-6.8357-6.8357-6.8357z" fill="url(#linearGradient5197)" opacity=".72794"/>
<path d="m34.327-8.4053c8.3294 26.184 16.985 51.751 25.766 75.954h26.584c2.6365 0 4.7591-1.9357 4.7591-4.3402v-67.273c0-2.4045-2.1225-4.3402-4.7591-4.3402h-52.35z" color="#000000" fill="url(#linearGradient5199)" opacity=".30882"/>
<g transform="matrix(2.1023 0 0 2.1023 -812.56 -1071.7)">
<path d="m407.26 540.3c-8.3974-0.68937-14.705-8.1154-14.021-16.508 0.20377-2.5001 0.9299-4.7869 2.1573-6.794 4.8304-7.8991 15.394-9.8139 22.686-4.1121 5.0639 3.9599 7.1293 10.829 5.0881 16.921-1.7536 5.2342-6.1136 9.1302-11.451 10.233-0.71212 0.14709-2.9735 0.3829-3.3594 0.3503-0.0849-7e-3 -0.57969-0.0479-1.0996-0.0906zm-1.703-5.8557c2.2567-0.50436 4.0164-1.1311 6.4036-2.2807 3.313-1.5955 5.489-3.1168 5.9144-4.1349 0.66358-1.5882-0.90269-3.4604-3.771-4.5076-1.0813-0.39478-3.3086-0.9473-4.7156-1.1698-0.59416-0.094-1.2192-0.20368-1.389-0.24378l-0.30866-0.0729-0.0691-1.3339c-0.13414-2.5877-0.63236-3.7204-1.717-3.9037-0.58461-0.0988-1.377 0.31627-1.659 0.86891-0.27783 0.54462-0.27389 1.6261 0.0107 2.9498 0.36025 1.6754 0.35617 1.6031 0.0883 1.5635-0.26919-0.0398-0.22296 0.0336-0.98848-1.5696-1.0159-2.1276-1.9052-2.7531-2.8537-2.0071-0.75446 0.59346-0.90691 1.72-0.47481 3.5085l0.24045 0.99526-0.42308 1.2746c-0.82051 2.4719-1.1152 5.0915-0.75508 6.7115 0.29931 1.3464 1.1504 2.523 2.1864 3.0223 1.1125 0.53625 2.7811 0.66474 4.2806 0.32961zm9.4421-11.813c0.5985-0.42559 3.393-5.9653 3.1817-6.3072-0.0889-0.14381-0.33243-0.11589-0.61727 0.0707-0.51577 0.33795-2.1106 2.8195-2.7695 4.3094-0.34849 0.78799-0.51865 1.6655-0.36003 1.8566 0.13313 0.1604 0.393 0.19282 0.56505 0.0705zm-1.9299-0.66718c0.51591-0.63198 1.2031-5.7892 0.85751-6.435-0.38541-0.72014-0.72969 0.19951-1.1888 3.1754-0.27955 1.8122-0.32554 2.6957-0.16264 3.1242 0.10787 0.28373 0.32432 0.34302 0.49388 0.13531z" fill-opacity=".058824"/>
<path d="m407.26 539.9c-8.3974-0.68937-14.705-8.1154-14.021-16.508 0.20377-2.5001 0.9299-4.7869 2.1573-6.794 4.8304-7.8991 15.394-9.8139 22.686-4.1121 5.0639 3.9599 7.1293 10.829 5.0881 16.921-1.7536 5.2342-6.1136 9.1302-11.451 10.233-0.71212 0.14709-2.9735 0.3829-3.3594 0.3503-0.0849-7e-3 -0.57969-0.0479-1.0996-0.0906zm-1.703-5.8557c2.2567-0.50436 4.0164-1.1311 6.4036-2.2807 3.313-1.5955 5.489-3.1168 5.9144-4.1349 0.66358-1.5882-0.90269-3.4604-3.771-4.5076-1.0813-0.39478-3.3086-0.9473-4.7156-1.1698-0.59416-0.094-1.2192-0.20368-1.389-0.24378l-0.30866-0.0729-0.0691-1.3339c-0.13414-2.5877-0.63236-3.7204-1.717-3.9037-0.58461-0.0988-1.377 0.31627-1.659 0.86891-0.27783 0.54462-0.27389 1.6261 0.0107 2.9498 0.36025 1.6754 0.35617 1.6031 0.0883 1.5635-0.26919-0.0398-0.22296 0.0336-0.98848-1.5696-1.0159-2.1276-1.9052-2.7531-2.8537-2.0071-0.75446 0.59346-0.90691 1.72-0.47481 3.5085l0.24045 0.99526-0.42308 1.2746c-0.82051 2.4719-1.1152 5.0915-0.75508 6.7115 0.29931 1.3464 1.1504 2.523 2.1864 3.0223 1.1125 0.53625 2.7811 0.66474 4.2806 0.32961zm9.4421-11.813c0.5985-0.42559 3.393-5.9653 3.1817-6.3072-0.0889-0.14381-0.33243-0.11589-0.61727 0.0707-0.51577 0.33795-2.1106 2.8195-2.7695 4.3094-0.34849 0.78799-0.51865 1.6655-0.36003 1.8566 0.13313 0.1604 0.393 0.19282 0.56505 0.0705zm-1.9299-0.66718c0.51591-0.63198 1.2031-5.7892 0.85751-6.435-0.38541-0.72014-0.72969 0.19951-1.1888 3.1754-0.27955 1.8122-0.32554 2.6957-0.16264 3.1242 0.10787 0.28373 0.32432 0.34302 0.49388 0.13531z" fill-opacity=".11765"/>
<path d="m407.26 539.5c-8.3974-0.68937-14.705-8.1154-14.021-16.508 0.20377-2.5001 0.9299-4.7869 2.1573-6.794 4.8304-7.8991 15.394-9.8139 22.686-4.1121 5.0639 3.9599 7.1293 10.829 5.0881 16.921-1.7536 5.2342-6.1136 9.1302-11.451 10.233-0.71212 0.14709-2.9735 0.3829-3.3594 0.3503-0.0849-7e-3 -0.57969-0.0479-1.0996-0.0906zm-1.703-5.8557c2.2567-0.50436 4.0164-1.1311 6.4036-2.2807 3.313-1.5955 5.489-3.1168 5.9144-4.1349 0.66358-1.5882-0.90269-3.4604-3.771-4.5076-1.0813-0.39478-3.3086-0.9473-4.7156-1.1698-0.59416-0.094-1.2192-0.20368-1.389-0.24378l-0.30866-0.0729-0.0691-1.3339c-0.13414-2.5877-0.63236-3.7204-1.717-3.9037-0.58461-0.0988-1.377 0.31627-1.659 0.86891-0.27783 0.54462-0.27389 1.6261 0.0107 2.9498 0.36025 1.6754 0.35617 1.6031 0.0883 1.5635-0.26919-0.0398-0.22296 0.0336-0.98848-1.5696-1.0159-2.1276-1.9052-2.7531-2.8537-2.0071-0.75446 0.59346-0.90691 1.72-0.47481 3.5085l0.24045 0.99526-0.42308 1.2746c-0.82051 2.4719-1.1152 5.0915-0.75508 6.7115 0.29931 1.3464 1.1504 2.523 2.1864 3.0223 1.1125 0.53625 2.7811 0.66474 4.2806 0.32961zm9.4421-11.813c0.5985-0.42559 3.393-5.9653 3.1817-6.3072-0.0889-0.14381-0.33243-0.11589-0.61727 0.0707-0.51577 0.33795-2.1106 2.8195-2.7695 4.3094-0.34849 0.78799-0.51865 1.6655-0.36003 1.8566 0.13313 0.1604 0.393 0.19282 0.56505 0.0705zm-1.9299-0.66718c0.51591-0.63198 1.2031-5.7892 0.85751-6.435-0.38541-0.72014-0.72969 0.19951-1.1888 3.1754-0.27955 1.8122-0.32554 2.6957-0.16264 3.1242 0.10787 0.28373 0.32432 0.34302 0.49388 0.13531z" fill-opacity=".23529"/>
<path d="m407.26 539.1c-8.3974-0.68937-14.705-8.1154-14.021-16.508 0.20377-2.5001 0.9299-4.7869 2.1573-6.794 4.8304-7.8991 15.394-9.8139 22.686-4.1121 5.0639 3.9599 7.1293 10.829 5.0881 16.921-1.7536 5.2342-6.1136 9.1302-11.451 10.233-0.71212 0.14709-2.9735 0.3829-3.3594 0.3503-0.0849-7e-3 -0.57969-0.0479-1.0996-0.0906zm-1.703-5.8557c2.2567-0.50436 4.0164-1.1311 6.4036-2.2807 3.313-1.5955 5.489-3.1168 5.9144-4.1349 0.66358-1.5882-0.90269-3.4604-3.771-4.5076-1.0813-0.39478-3.3086-0.9473-4.7156-1.1698-0.59416-0.094-1.2192-0.20368-1.389-0.24378l-0.30866-0.0729-0.0691-1.3339c-0.13414-2.5877-0.63236-3.7204-1.717-3.9037-0.58461-0.0988-1.377 0.31627-1.659 0.86891-0.27783 0.54462-0.27389 1.6261 0.0107 2.9498 0.36025 1.6754 0.35617 1.6031 0.0883 1.5635-0.26919-0.0398-0.22296 0.0336-0.98848-1.5696-1.0159-2.1276-1.9052-2.7531-2.8537-2.0071-0.75446 0.59346-0.90691 1.72-0.47481 3.5085l0.24045 0.99526-0.42308 1.2746c-0.82051 2.4719-1.1152 5.0915-0.75508 6.7115 0.29931 1.3464 1.1504 2.523 2.1864 3.0223 1.1125 0.53625 2.7811 0.66474 4.2806 0.32961zm9.4421-11.813c0.5985-0.42559 3.393-5.9653 3.1817-6.3072-0.0889-0.14381-0.33243-0.11589-0.61727 0.0707-0.51577 0.33795-2.1106 2.8195-2.7695 4.3094-0.34849 0.78799-0.51865 1.6655-0.36003 1.8566 0.13313 0.1604 0.393 0.19282 0.56505 0.0705zm-1.9299-0.66718c0.51591-0.63198 1.2031-5.7892 0.85751-6.435-0.38541-0.72014-0.72969 0.19951-1.1888 3.1754-0.27955 1.8122-0.32554 2.6957-0.16264 3.1242 0.10787 0.28373 0.32432 0.34302 0.49388 0.13531z" fill="url(#linearGradient5201)"/>
<path transform="translate(384.57 499.8)" d="m29.074 13.51c-0.28094 0.09434-0.56 1.1704-0.9043 3.4023-0.21956 1.4233-0.291 2.2605-0.23438 2.7676 0.03036-0.49168 0.10221-1.112 0.23438-1.9688 0.45906-2.9759 0.80209-3.8959 1.1875-3.1758 0.04164 0.07781 0.06632 0.22888 0.08008 0.42188 0.02568-0.59756 0.0077-1.0568-0.08008-1.2207-0.09635-0.18004-0.18956-0.25801-0.2832-0.22656zm4.3027 0.93164c-0.1076 0.01233-0.24039 0.06686-0.38281 0.16016-0.51577 0.33795-2.1107 2.8187-2.7695 4.3086-0.34849 0.78799-0.518 1.6663-0.35938 1.8574 0.0033 4e-3 0.0083 6e-3 0.01172 0.0098 0.07008-0.32552 0.18683-0.70275 0.34766-1.0664 0.65888-1.4899 2.2538-3.9706 2.7695-4.3086 0.16514-0.10818 0.31245-0.15729 0.42773-0.15625 0.1385-0.36384 0.22922-0.65049 0.18945-0.71484-0.04445-0.0719-0.12678-0.10217-0.23438-0.08984zm-12.041 0.5625c-0.58461-0.0988-1.3763 0.3165-1.6582 0.86914-0.17414 0.34136-0.22471 0.90896-0.17773 1.5996 0.02714-0.32049 0.07794-0.60517 0.17773-0.80078 0.28194-0.55264 1.0736-0.96794 1.6582-0.86914 1.0846 0.18324 1.5827 1.3166 1.7168 3.9043l0.06836 1.334 0.30859 0.07227c0.16976 0.0401 0.79646 0.15014 1.3906 0.24414 1.4071 0.22253 3.6335 0.77514 4.7148 1.1699 2.2077 0.80601 3.6312 2.1011 3.873 3.3789 0.3394-1.5113-1.2001-3.2038-3.873-4.1797-1.0813-0.39478-3.3078-0.94739-4.7148-1.1699-0.59416-0.094-1.2209-0.20209-1.3906-0.24219l-0.30859-0.07422-0.06836-1.334c-0.13414-2.5877-0.63219-3.7191-1.7168-3.9023zm-4.6992 1.5039c-0.23262 0.01302-0.46602 0.11428-0.70312 0.30078-0.5584 0.43924-0.78548 1.1725-0.69141 2.248 0.05986-0.64887 0.28513-1.1277 0.69141-1.4473 0.94842-0.74602 1.8376-0.1217 2.8535 2.0059 0.76552 1.6032 0.71909 1.5305 0.98828 1.5703 0.19576 0.02893 0.18776-0.16582 0.0625-0.79688-0.02203-0.0028-0.03466 2.09e-4 -0.0625-0.0039-0.26919-0.0398-0.22276 0.03485-0.98828-1.5684-0.7619-1.5957-1.4525-2.3477-2.1504-2.3086zm-1.0488 5.1406-0.3125 0.93945c-0.63972 1.9272-0.95521 3.9369-0.89453 5.5 0.05207-1.4195 0.35945-3.0891 0.89453-4.7012l0.42383-1.2734-0.11133-0.46484zm23.777 2.0098c-0.04231 1.4627-0.28626 2.9305-0.76367 4.3555-1.7536 5.2342-6.1134 9.1299-11.451 10.232-0.71212 0.14709-2.9734 0.38416-3.3594 0.35156-0.0849-7e-3 -0.57974-0.0491-1.0996-0.0918-7.7916-0.63963-13.773-7.0814-14.051-14.711-0.12868 7.9747 5.9884 14.85 14.051 15.512 0.51987 0.0427 1.0147 0.08284 1.0996 0.08984 0.38594 0.0326 2.6473-0.20252 3.3594-0.34961 5.3378-1.1026 9.6976-4.9982 11.451-10.232 0.56462-1.6853 0.804-3.4302 0.76367-5.1562z" fill="#0c49d8" fill-opacity=".31373"/>
<path transform="translate(384.57 499.8)" d="m24.404 8.6055c-5.2995-0.13679-10.557 2.4615-13.576 7.3984-1.2274 2.0071-1.9544 4.2948-2.1582 6.7949-0.04608 0.56536-0.05494 1.1249-0.039063 1.6797-1e-3 -0.42414 0.00402-0.8493 0.039063-1.2793 0.20377-2.5001 0.93081-4.7878 2.1582-6.7949 4.8304-7.8991 15.394-9.8131 22.686-4.1113 3.7308 2.9174 5.8249 7.4139 5.8574 12.016 0.09052-4.7401-2.0184-9.414-5.8574-12.416-2.7343-2.1382-5.9297-3.205-9.1094-3.2871zm9.1543 7.082c-0.40518 1.3006-2.6058 5.5792-3.1289 5.9512-0.17205 0.12232-0.43132 0.09009-0.56445-0.07031-0.01965-0.02368-0.01945-0.08563-0.0293-0.12891-0.0324 0.24728-0.0343 0.45072 0.0293 0.52734 0.13313 0.1604 0.3924 0.19263 0.56445 0.07031 0.5985-0.42559 3.393-5.9647 3.1816-6.3066-0.01252-0.02025-0.0344-0.02949-0.05273-0.04297zm-4.1172 0.03711c-0.07165 1.7525-0.55447 4.7721-0.94141 5.2461-0.16956 0.20771-0.38627 0.14896-0.49414-0.13476-0.05628-0.14804-0.07664-0.37809-0.08203-0.6543-0.02673 0.505 1.95e-4 0.83944 0.08203 1.0547 0.10787 0.28373 0.32458 0.34248 0.49414 0.13477 0.42118-0.51594 0.94706-4.0155 0.94141-5.6465zm-9.957 2.3398c-0.0205 0.54275 0.0408 1.202 0.20312 1.957 0.14802 0.68839 0.19654 0.9501 0.22852 1.1719 0.10652-0.03252 0.0475-0.28862-0.22852-1.5723-0.12426-0.57797-0.18597-1.0956-0.20312-1.5566zm-4.252 1.5527c-0.02507 0.52588 0.04583 1.1523 0.22656 1.9004l0.18359 0.76367 0.05664-0.16797-0.24024-0.99609c-0.13715-0.56768-0.20775-1.0616-0.22656-1.5zm18.199 6.9492c-0.0233 0.15798-0.0608 0.31509-0.125 0.46875-0.42539 1.0181-2.6011 2.5393-5.9141 4.1348-2.3871 1.1496-4.1476 1.7769-6.4043 2.2812-1.4994 0.33513-3.1687 0.20617-4.2812-0.33008-1.0359-0.49931-1.8862-1.6751-2.1855-3.0215-0.08463-0.38071-0.13055-0.82066-0.14453-1.2969-0.0058 0.63143 0.03699 1.2116 0.14453 1.6953 0.29931 1.3464 1.1496 2.5241 2.1855 3.0234 1.1125 0.53625 2.7818 0.66521 4.2812 0.33008 2.2567-0.50436 4.0172-1.1316 6.4043-2.2812 3.313-1.5955 5.4887-3.1167 5.9141-4.1348 0.11789-0.28216 0.14267-0.57528 0.125-0.86914z" fill="#fff" fill-opacity=".23529"/>
</g>
</g>
</g>
</svg>
