<?xml version="1.0" encoding="UTF-8"?>
<svg version="1.1" viewBox="0 0 96 96" xmlns="http://www.w3.org/2000/svg" xmlns:cc="http://creativecommons.org/ns#" xmlns:dc="http://purl.org/dc/elements/1.1/" xmlns:rdf="http://www.w3.org/1999/02/22-rdf-syntax-ns#" xmlns:xlink="http://www.w3.org/1999/xlink">
<title>Lila-HD-Icon-Theme</title>
<metadata>
<rdf:RDF>
<cc:Work rdf:about="">
<dc:format>image/svg+xml</dc:format>
<dc:type rdf:resource="http://purl.org/dc/dcmitype/StillImage"/>
<dc:title>Lila-HD-Icon-Theme</dc:title>
<dc:date>2015-2019</dc:date>
<dc:creator>
<cc:Agent>
<dc:title>Cristian Pozzessere  == ilnanny ==</dc:title>
</cc:Agent>
</dc:creator>
<dc:description>Playing with Inkscape on Gnu/Linux O. S.</dc:description>
<dc:subject>
<rdf:Bag>
<rdf:li>ilnanny</rdf:li>
<rdf:li>lila_hd</rdf:li>
<rdf:li>lila-hd</rdf:li>
<rdf:li>lila hd icon theme</rdf:li>
<rdf:li>Lila-HD-Icon-Theme lila hd icon lila icon</rdf:li>
</rdf:Bag>
</dc:subject>
<dc:coverage>CC-BY-SA</dc:coverage>
<dc:contributor>
<cc:Agent>
<dc:title>In the night, alone like a dog.</dc:title>
</cc:Agent>
</dc:contributor>
<cc:license rdf:resource="http://creativecommons.org/licenses/by-sa/4.0/"/>
</cc:Work>
<cc:License rdf:about="http://creativecommons.org/licenses/by-sa/4.0/">
<cc:permits rdf:resource="http://creativecommons.org/ns#Reproduction"/>
<cc:permits rdf:resource="http://creativecommons.org/ns#Distribution"/>
<cc:requires rdf:resource="http://creativecommons.org/ns#Notice"/>
<cc:requires rdf:resource="http://creativecommons.org/ns#Attribution"/>
<cc:permits rdf:resource="http://creativecommons.org/ns#DerivativeWorks"/>
<cc:requires rdf:resource="http://creativecommons.org/ns#ShareAlike"/>
</cc:License>
</rdf:RDF>
</metadata>
<defs>
<linearGradient id="linearGradient3816">
<stop stop-color="#fff" offset="0"/>
<stop stop-color="#fff" stop-opacity="0" offset="1"/>
</linearGradient>
<linearGradient id="linearGradient19504" x1="-94" x2="-10.188" y1="82.984" y2="82.984" gradientTransform="matrix(1 0 0 .88906 200 8.9432)" gradientUnits="userSpaceOnUse">
<stop offset="0"/>
<stop stop-opacity=".58824" offset=".1"/>
<stop stop-opacity=".58824" offset=".9"/>
<stop offset="1"/>
</linearGradient>
<linearGradient id="linearGradient18209" x1="2.4652" x2="59.378" y1=".27862" y2=".27862" gradientTransform="matrix(1.0034 0 0 1.005 33.489 41.473)" gradientUnits="userSpaceOnUse" xlink:href="#linearGradient3816"/>
<linearGradient id="linearGradient20287" x1="6" x2="90" y1="47" y2="47" gradientTransform="matrix(1.1393 0 0 1.1393 -6.6857 -5.5464)" gradientUnits="userSpaceOnUse">
<stop stop-color="#b7b7b7" offset="0"/>
<stop stop-color="#fff" offset=".25"/>
<stop stop-color="#9d9d9d" offset=".5"/>
<stop stop-color="#fafafa" offset=".75"/>
<stop stop-color="#b7b7b7" offset="1"/>
</linearGradient>
<radialGradient id="radialGradient20577" cx="158" cy="6.2132" r="41" gradientTransform="matrix(0 1.6209 -2.0383 0 160.66 -243.04)" gradientUnits="userSpaceOnUse" xlink:href="#linearGradient3816"/>
<radialGradient id="radialGradient20579" cx="48" cy="-27" r="42" gradientTransform="matrix(-1.0722 0 0 -.87502 199.46 -19.126)" gradientUnits="userSpaceOnUse">
<stop stop-color="#fff" offset="0"/>
<stop stop-color="#fff" offset=".8"/>
<stop stop-color="#fff" stop-opacity="0" offset="1"/>
</radialGradient>
<linearGradient id="linearGradient20587" x1="6" x2="90" y1="47" y2="47" gradientTransform="matrix(1.1393 0 0 1.1393 -6.6857 -5.5464)" gradientUnits="userSpaceOnUse">
<stop stop-color="#fff" stop-opacity="0" offset="0"/>
<stop stop-color="#fff" stop-opacity=".85135" offset=".036815"/>
<stop stop-color="#fff" stop-opacity="0" offset=".065061"/>
<stop stop-color="#fff" stop-opacity="0" offset=".94494"/>
<stop stop-color="#fff" stop-opacity=".85135" offset=".96582"/>
<stop stop-color="#fff" stop-opacity="0" offset="1"/>
</linearGradient>
</defs>
<path d="m89.014 0.15001h-82.029c-3.787 0-6.8357 3.0487-6.8357 6.8357v82.029c0 3.787 3.0487 6.8357 6.8357 6.8357h82.029c3.787 0 6.8357-3.0487 6.8357-6.8357v-82.029c0-3.787-3.0487-6.8357-6.8357-6.8357z" fill="url(#linearGradient20287)"/>
<g transform="matrix(1.1393 0 0 1.1393 -120.61 -4.9768)">
<path d="m112 5.5c-2.7873 0-5 2.2127-5 5v66.312c1.0707 1.6288 2.8969 2.7188 5 2.7188h72c2.1031 0 3.9293-1.09 5-2.7188v-66.312c0-2.7873-2.2127-5-5-5z" fill="url(#radialGradient20577)" opacity=".2"/>
<path d="m112 4.5c-3.324 0-6 2.676-6 6v15h1v-15c0-2.7873 2.2127-5 5-5h72c2.7873 0 5 2.2127 5 5v15h1v-15c0-3.324-2.676-6-6-6z" fill="url(#radialGradient20579)" opacity=".45"/>
<path d="m106 76.942v6.2234c0 2.9552 2.676 5.3344 6 5.3344h72c3.324 0 6-2.3791 6-5.3344v-6.2234c0 2.9552-2.676 5.3344-6 5.3344h-72c-3.324 0-6-2.3791-6-5.3344z" fill="url(#linearGradient19504)" opacity=".46965"/>
</g>
<g transform="matrix(.98961 0 0 1.0556 -3.0874 2.7199)">
<circle transform="matrix(1.2467 0 0 1.0634 -54.59 -6.5568)" cx="70.373" cy="79.209" r="2.791" fill="#1c1c1c" opacity=".71"/>
<circle transform="matrix(1.0374 0 0 .91042 -39.857 5.3629)" cx="70.373" cy="79.209" r="2.791" fill="#fff"/>
<circle transform="matrix(.70317 0 0 .6171 -16.336 28.596)" cx="70.373" cy="79.209" r="2.791" fill="#114751"/>
<circle transform="matrix(1.2467 0 0 1.0634 -20.114 -6.5568)" cx="70.373" cy="79.209" r="2.791" fill="#1c1c1c" opacity=".71"/>
<circle transform="matrix(1.0374 0 0 .91042 -5.3813 5.3629)" cx="70.373" cy="79.209" r="2.791" fill="#fff"/>
<circle transform="matrix(.70317 0 0 .6171 18.139 28.596)" cx="70.373" cy="79.209" r="2.791" fill="#114751"/>
<rect transform="matrix(1.014 0 0 .95205 3.1886 -2.9106)" x="40.449" y="83.596" width="12.674" height="3.236" rx="1.1481" ry="1.1481" fill="#0c2f31" fill-opacity=".90455" opacity=".75097" stroke="#fff" stroke-width=".4999"/>
</g>
<path d="m7.7809 58.132c-1.8851 0-3.6495 0.91815-4.7591 2.2718v15.089c0 2.4045 2.1226 4.3402 4.7591 4.3402h80.905c2.6366 0 4.7591-1.9357 4.7591-4.3402v-15.089c-1.1096-1.3537-2.874-2.2718-4.7591-2.2718zm0 3.2552h80.905c1.3594 0 2.3796 0.93033 2.3796 2.1701v11.936c0 1.2398-1.0201 2.1701-2.3796 2.1701h-80.905c-1.3594 0-2.3796-0.93034-2.3796-2.1701v-11.936c0-1.2398 1.0201-2.1701 2.3796-2.1701z" color="#000000" opacity=".02" style="text-decoration-line:none;text-indent:0;text-transform:none"/>
<path d="m7.7809 3.879h80.905c2.6366 0 4.7591 1.9357 4.7591 4.3402v67.273c0 2.4045-2.1226 4.3402-4.7591 4.3402h-80.905c-2.6365 0-4.7591-1.9357-4.7591-4.3402v-67.273c0-2.4045 2.1226-4.3402 4.7591-4.3402z" color="#000000" fill="#ff9300" opacity=".82115"/>
<path d="m8.4917 4.6959h79.017c2.575 0 4.648 1.8912 4.648 4.2405v65.727c0 2.3492-2.073 4.2405-4.648 4.2405h-79.017c-2.575 0-4.648-1.8912-4.648-4.2405v-65.727c0-2.3492 2.073-4.2405 4.648-4.2405z" color="#000000" fill="none" stroke="#000" stroke-opacity=".7758" stroke-width="2.2904"/>
<path d="m35.963 3.7765c8.3294 26.184 16.985 51.751 25.766 75.954h26.584c2.6365 0 4.7591-1.9357 4.7591-4.3402v-67.273c0-2.4045-2.1225-4.3402-4.7591-4.3402z" color="#000000" fill="url(#linearGradient18209)" opacity=".30882"/>
<path d="m89.014 0.15h-82.029c-3.787 0-6.8357 3.0487-6.8357 6.8357v82.029c0 3.787 3.0487 6.8357 6.8357 6.8357h82.029c3.787 0 6.8357-3.0487 6.8357-6.8357v-82.029c0-3.787-3.0487-6.8357-6.8357-6.8357z" fill="url(#linearGradient20587)" opacity=".72794"/>
<path d="m83.625 23.038-0.3837 0.70075c-0.76838 1.4028-1.5362 2.5242-2.2986 3.3867-0.73303 0.83264-1.5249 1.4882-2.3833 1.9779-7.03e-4 4.02e-4 -0.0011 0.0014-0.0018 0.0018-0.82983 0.46203-1.7858 0.80051-2.866 1.0034-1.0812 0.17964-2.3465 0.27562-3.8064 0.27562-1.0776 0-2.0367-0.05473-2.8642-0.15672l-0.05765-0.0072h-0.02522c-0.01698-0.0028-0.24967-0.03617-0.48098-0.07206-0.25106-0.03878-0.49136-0.07509-0.87909-0.14591h-0.0018c-3.9027-0.72123-6.6903 0.29372-8.4756 1.7294-1.7856 1.4359-2.5899 3.2157-2.8895 4.0153-0.09242 0.24568-0.14411 0.41793-0.14411 0.41793l-8.0667 22.489-8.0721-22.512-9e-3 -0.02342c-0.0058-0.01754-0.04969-0.1488-0.1333-0.37109h0.0018c-0.29957-0.79962-1.1039-2.5795-2.8895-4.0153-1.7856-1.4359-4.5755-2.4513-8.4792-1.7294h-0.0018c-0.38674 0.07227-0.62211 0.10617-0.87729 0.14592-0.2313 0.03587-0.46298 0.06942-0.47737 0.07206h-0.02882l-0.05585 0.0072c-0.82754 0.102-1.7885 0.15672-2.866 0.15672-1.4606 0-2.7249-0.09581-3.8064-0.27562-1.0793-0.20086-2.0318-0.54118-2.8642-1.0052-0.85998-0.49303-1.6545-1.148-2.3851-1.9779-0.73999-0.83915-1.4873-1.9439-2.2337-3.2912a0.92241 0.92241 0 0 0-1.0682-0.56744 0.92241 0.92241 0 0 0-0.0092 0.0018 0.92241 0.92241 0 0 0-0.05765 0.01621 0.92241 0.92241 0 0 0-0.06124 0.01981 0.92241 0.92241 0 0 0-0.05764 0.02162l-3.329 1.2448 0.35487 0.87729c0.94377 2.3315 1.9484 4.3455 3.021 6.0419 4.8e-4 7.76e-4 9.23e-4 1e-3 0.0018 0.0018 1.0528 1.7068 2.2487 3.1427 3.5902 4.2802l0.0036 0.0036 0.0054 0.0036c1.3459 1.1129 2.8592 1.9344 4.5251 2.4607 1.6677 0.52687 3.5235 0.7674 5.5646 0.7674 1.373 0 2.4865-0.07012 3.4875-0.18915 0.65906 0.32364 1.7892 1.7174 2.8498 3.9559 1.0951 2.3112 2.2056 5.3902 3.3128 8.735 2.1542 6.5078 4.2975 13.933 6.5337 19.064l-0.70435 1.0574h13.287l0.24499-0.54401c2.3057-5.1336 4.5051-12.875 6.7211-19.567 1.108-3.3459 2.2188-6.4257 3.3146-8.7368 1.0616-2.2391 2.1937-3.633 2.8516-3.9541 1.0004 0.1191 2.1121 0.19095 3.4857 0.19095 2.0397 0 3.8994-0.24292 5.5664-0.7674l0.0018-0.0018c1.6664-0.52645 3.1763-1.3466 4.5215-2.4589l0.0036-0.0036 0.0054-0.0036c1.3406-1.1366 2.5362-2.5713 3.5884-4.2765 1.0756-1.6974 2.082-3.7163 3.0264-6.0473l0.35668-0.87909zm-72.033 2.25c0.67825 1.1511 1.3598 2.2396 2.0806 3.057 0.85342 0.96917 1.8084 1.7615 2.857 2.3616l0.0054 0.0036 0.0036 0.0018c1.0223 0.57045 2.1736 0.97993 3.4389 1.2142l9e-3 0.0018h0.0072c1.2105 0.20174 2.5765 0.30084 4.118 0.30084 1.1385 0 2.1703-0.05763 3.0912-0.17113l-0.11169 0.0072h0.05044l0.03423-0.0018c0.2298-0.01703 0.42016-0.05644 0.64851-0.09187 0.2409-0.03752 0.51297-0.07675 0.93133-0.15492 3.4621-0.64024 5.577 0.21994 6.9859 1.3529 1.4089 1.1329 2.0894 2.615 2.3184 3.2263 0.07778 0.20678 0.11529 0.32065 0.11529 0.32065l0.0036 0.01261 9.8213 27.389 9.8267-27.401 0.0072-0.02342s0.03018-0.0997 0.10448-0.29723c0.22903-0.61134 0.90955-2.0934 2.3184-3.2263 1.4089-1.1329 3.5238-1.9931 6.9859-1.3529h0.0018c0.41194 0.07528 0.68095 0.11652 0.92953 0.15492 0.21708 0.03368 0.40439 0.06839 0.61968 0.08647 0.01193 1e-3 0.02212 0.0045 0.03423 0.0054l0.03423 0.0018h0.04504c0.89492 0.10527 1.8811 0.16393 2.9777 0.16393 1.5415 0 2.9075-0.09909 4.118-0.30084h9e-3l9e-3 -0.0018c1.2629-0.23597 2.4183-0.64265 3.4425-1.2142l0.0072-0.0036c1.0519-0.59982 2.0031-1.3955 2.8552-2.3634 0.72074-0.81545 1.3999-1.9004 2.0752-3.0462l0.86648 0.32245c-0.79039 1.8362-1.5972 3.5584-2.4499 4.9034l-0.0072 0.0108c-0.96629 1.5671-2.0396 2.8449-3.2083 3.837-1.1672 0.96469-2.4525 1.6629-3.9001 2.1203-1.4473 0.45514-3.12 0.68274-5.0115 0.68274-1.4746 0-2.6784-0.06343-3.6172-0.19455l-0.24139-0.03243-0.22698 0.08827c-1.6699 0.66342-2.7581 2.5091-3.9181 4.9557-1.1599 2.4466-2.2821 5.5739-3.3993 8.9476-2.1669 6.5435-4.3183 13.933-6.4527 18.846h-9.6734c-2.1349-4.9159-4.2861-12.312-6.4528-18.857-1.1164-3.3726-2.2383-6.4993-3.3975-8.9458-1.1592-2.4465-2.2467-4.291-3.9145-4.9575l-0.22698-0.09007-0.24319 0.03243c-0.93846 0.13108-2.1463 0.19455-3.6208 0.19455-1.895 0-3.561-0.2256-5.0079-0.68274-1.4466-0.45703-2.7363-1.1557-3.9019-2.1185-1.1694-0.99228-2.2451-2.2709-3.2119-3.8388l-0.0018-0.0054-0.0036-0.0036c-0.85118-1.3452-1.6601-3.0666-2.45-4.9035z" color="#000000" color-rendering="auto" dominant-baseline="auto" fill="none" image-rendering="auto" shape-rendering="auto" solid-color="#000000" stroke="#000" stroke-linecap="round" stroke-linejoin="bevel" stroke-opacity=".35926" stroke-width="1.3" style="font-feature-settings:normal;font-variant-alternates:normal;font-variant-caps:normal;font-variant-ligatures:normal;font-variant-numeric:normal;font-variant-position:normal;isolation:auto;mix-blend-mode:normal;paint-order:stroke fill markers;shape-padding:0;text-decoration-color:#000000;text-decoration-line:none;text-decoration-style:solid;text-indent:0;text-orientation:mixed;text-transform:none;white-space:normal"/>
<path d="m11.948 24.065-2.4987 0.93318c0.92912 2.2953 1.9131 4.2654 2.95 5.904 1.0104 1.6387 2.1469 2.9968 3.4034 4.0621 1.2564 1.0389 2.6593 1.7993 4.2166 2.2913 1.5573 0.492 3.318 0.72581 5.286 0.72581 1.5004 0 2.7447-0.06302 3.749-0.20331 4.6293 1.8501 8.9577 22.777 13.461 32.814l-0.0081 0.0122h10.968c4.5053-10.031 8.8378-30.974 13.469-32.814 1.0043 0.14028 2.2445 0.20331 3.7449 0.20331 1.966 0 3.7327-0.23584 5.2901-0.72581 1.5573-0.492 2.9561-1.2524 4.2125-2.2913 1.2564-1.0653 2.3929-2.4234 3.4034-4.0621 1.0389-1.6387 2.0249-3.6107 2.9541-5.904l-2.5007-0.93318c-0.7929 1.4475-1.5939 2.6247-2.4153 3.5538-0.7929 0.90065-1.6651 1.6265-2.6206 2.1713-0.92911 0.51843-1.9863 0.89252-3.1614 1.1121-1.1467 0.19111-2.4641 0.28666-3.9665 0.28666-1.108 0-2.1042-0.0549-2.9785-0.16265h-0.0122c-0.11182-0.0081-0.34359-0.04676-0.57943-0.08336-0.25007-0.03863-0.5042-0.07725-0.90472-0.15045-7.3658-1.3622-9.8076 3.751-10.336 5.162-0.08336 0.2216-0.12402 0.35782-0.12402 0.35782l-8.9496 24.956-8.9496-24.956s-0.04472-0.13622-0.12808-0.35782c-0.5286-1.411-2.9703-6.5241-10.336-5.162-0.40255 0.07523-0.65668 0.11182-0.90472 0.15045-0.23584 0.0366-0.46557 0.07522-0.57536 0.08336h-0.01626c-0.87422 0.10775-1.8704 0.16265-2.9785 0.16265-1.5024 0-2.8199-0.09556-3.9665-0.28666-1.1752-0.21754-2.2283-0.59366-3.1574-1.1121-0.95554-0.5469-1.8318-1.2707-2.6247-2.1713-0.81933-0.92912-1.6224-2.1063-2.4153-3.5538" fill-opacity=".628" stroke-width="2.0331"/>
</svg>
