<?xml version="1.0" encoding="UTF-8"?>
<!-- Created with Inkscape (http://www.inkscape.org/) -->
<svg version="1.1" viewBox="0 0 96 96" xmlns="http://www.w3.org/2000/svg" xmlns:cc="http://creativecommons.org/ns#" xmlns:dc="http://purl.org/dc/elements/1.1/" xmlns:rdf="http://www.w3.org/1999/02/22-rdf-syntax-ns#" xmlns:xlink="http://www.w3.org/1999/xlink">
<title>Folder-Lila-HD-I</title>
<defs>
<linearGradient id="linearGradient4125">
<stop stop-color="#fff" offset="0"/>
<stop stop-color="#fff" stop-opacity="0" offset="1"/>
</linearGradient>
<linearGradient id="linearGradient3891" x1="6.25" x2="89.75" y1="80.625" y2="80.625" gradientTransform="matrix(1.115 0 0 1.1151 6.5966 1043.4)" gradientUnits="userSpaceOnUse">
<stop stop-color="#fff" stop-opacity="0" offset="0"/>
<stop stop-color="#fff" offset=".15"/>
<stop stop-color="#fff" offset=".85"/>
<stop stop-color="#fff" stop-opacity="0" offset="1"/>
</linearGradient>
<linearGradient id="linearGradient3893" x1="1.1209" x2="95.496" y1="84.063" y2="84.063" gradientTransform="matrix(.99266 0 0 .9812 12.165 1055.3)" gradientUnits="userSpaceOnUse">
<stop stop-color="#fff" stop-opacity=".031373" offset="0"/>
<stop stop-color="#fff" offset=".05"/>
<stop stop-color="#fff" stop-opacity=".023529" offset=".1"/>
<stop stop-color="#fff" stop-opacity=".28058" offset=".5"/>
<stop stop-color="#fefefe" stop-opacity=".015686" offset=".9"/>
<stop stop-color="#fff" offset=".95"/>
<stop stop-color="#fdfdfd" stop-opacity="0" offset="1"/>
</linearGradient>
<linearGradient id="linearGradient3391" x1="44.726" x2="22.635" y1="59.746" y2="34.832" gradientTransform="matrix(.99266 0 0 .9812 11.828 1054.9)" gradientUnits="userSpaceOnUse" xlink:href="#linearGradient4125"/>
<linearGradient id="linearGradient3889" x1="6.076" x2="89.924" y1="47.473" y2="47.473" gradientTransform="matrix(1.115 0 0 .76292 -5.522 27.037)" gradientUnits="userSpaceOnUse">
<stop stop-color="#d8d8d8" stop-opacity="0" offset="0"/>
<stop stop-color="#fff" offset=".05"/>
<stop stop-color="#d8d8d8" stop-opacity="0" offset=".1"/>
<stop stop-color="#d8d8d8" stop-opacity="0" offset=".5"/>
<stop stop-color="#d8d8d8" stop-opacity="0" offset=".9"/>
<stop stop-color="#fff" offset=".95"/>
<stop stop-color="#d8d8d8" stop-opacity="0" offset="1"/>
</linearGradient>
<radialGradient id="radialGradient3885" cx="44.659" cy="-187.51" r="36.916" gradientTransform="matrix(1.6991 .0049754 -9.9579e-5 .015749 -31.242 -184.91)" gradientUnits="userSpaceOnUse" xlink:href="#linearGradient4125"/>
</defs>
<metadata>
<rdf:RDF>
<cc:Work rdf:about="">
<dc:format>image/svg+xml</dc:format>
<dc:type rdf:resource="http://purl.org/dc/dcmitype/StillImage"/>
<dc:title>Folder-Lila-HD-I</dc:title>
<dc:date>2017</dc:date>
<dc:creator>
<cc:Agent>
<dc:title>Cristian Pozzessere "ilnanny"</dc:title>
</cc:Agent>
</dc:creator>
<dc:subject>
<rdf:Bag>
<rdf:li>Global language</rdf:li>
</rdf:Bag>
</dc:subject>
<dc:description>Playing with Inkscape on Gnu/Linux O. S.</dc:description>
<dc:contributor>
<cc:Agent>
<dc:title>In the night, alone like a dog.</dc:title>
</cc:Agent>
</dc:contributor>
<cc:license rdf:resource="http://creativecommons.org/licenses/by-sa/4.0/"/>
</cc:Work>
<cc:License rdf:about="http://creativecommons.org/licenses/by-sa/4.0/">
<cc:permits rdf:resource="http://creativecommons.org/ns#Reproduction"/>
<cc:permits rdf:resource="http://creativecommons.org/ns#Distribution"/>
<cc:requires rdf:resource="http://creativecommons.org/ns#Notice"/>
<cc:requires rdf:resource="http://creativecommons.org/ns#Attribution"/>
<cc:permits rdf:resource="http://creativecommons.org/ns#DerivativeWorks"/>
<cc:requires rdf:resource="http://creativecommons.org/ns#ShareAlike"/>
</cc:License>
</rdf:RDF>
</metadata>
<g transform="translate(0 -1026.5)">
<g transform="translate(-12.119 -22.917)">
<path d="m101.26 1049.4h-82.286c-3.7989 0-6.8571 3.0583-6.8571 6.8571v82.286c0 3.7988 3.0583 6.8571 6.8571 6.8571h82.286c3.7989 0 6.8571-3.0583 6.8571-6.8571v-82.286c0-3.7988-3.0583-6.8571-6.8571-6.8571z" enable-background="new" opacity=".15"/>
<path d="m100.83 1049.9h-81.429c-3.7593 0-6.7857 3.0264-6.7857 6.7857v81.429c0 3.7593 3.0264 6.7857 6.7857 6.7857h81.429c3.7593 0 6.7857-3.0264 6.7857-6.7857v-81.429c0-3.7593-3.0264-6.7857-6.7857-6.7857z" enable-background="new" opacity=".25"/>
</g>
</g>
<path d="m88.142 1.1657h-80.283c-3.7064 0-6.6903 2.984-6.6903 6.6906v80.287c0 3.7066 2.9839 6.6906 6.6903 6.6906h80.283c3.7064 0 6.6903-2.984 6.6903-6.6906v-80.287c0-3.7066-2.9839-6.6906-6.6903-6.6906z" enable-background="new" fill="#2e8d13" stroke="#6d6d6d" stroke-width=".33452"/>
<g transform="matrix(0 -1.0859 1.115 0 -.94838 206.75)" enable-background="new">
<path d="m117.22 6.0979c-3.921 0-7.125 3.204-7.125 7.125v60.562c0 3.921 3.204 7.125 7.125 7.125h61.562c3.921 0 7.125-3.204 7.125-7.125v-60.562c0-3.921-3.204-7.125-7.125-7.125z" color="#000000" enable-background="accumulate" opacity=".13718" style="text-decoration-line:none;text-indent:0;text-transform:none"/>
<path d="m117.22 6.8133c-3.3794 0-6.125 2.7457-6.125 6.125v61.562c0 3.3793 2.7456 6.125 6.125 6.125h61.562c3.3794 0 6.125-2.7457 6.125-6.125v-61.562c0-3.3793-2.7456-6.125-6.125-6.125z" color="#000000" enable-background="accumulate" opacity=".24549" style="text-decoration-line:none;text-indent:0;text-transform:none"/>
<path d="m183.43 12.925c0-2.8428-2.5714-5.1189-5.7647-5.1189h-35.236c3.1933 0 5.7647 2.2761 5.7647 5.1189v61.594c0 2.8428-2.5714 5.1189-5.7647 5.1189h35.236c3.1933 0 5.7647-2.2761 5.7647-5.1189z" fill="#fdffec" opacity=".963" stroke="#b4b4b4" stroke-width=".46843"/>
<path d="m115.71 79.154v1c0.26183 2.5937 2.46 4.5938 5.125 4.5938h61.562c2.665 0 4.8632-2.0001 5.125-4.5938v-1c-0.26183 2.5937-2.46 4.5938-5.125 4.5938h-61.562c-2.665 0-4.8632-2.0001-5.125-4.5938z" fill="#fff" opacity=".4"/>
<path d="m116.69 7.8133c-2.5937 0.26183-4.5938 2.46-4.5938 5.125v0.46875c0.26183-2.5937 2.46-4.5938 5.125-4.5938h61.562c2.665 0 4.8632 2.0001 5.125 4.5938v-0.46875c0-2.8426-2.2824-5.125-5.125-5.125h-61.562c-0.17767 0-0.35834-0.017455-0.53125 0z" fill="#fff" opacity=".5"/>
<path d="m115.71 8.6425v-1c0.26183-2.5937 2.46-4.5938 5.125-4.5938h61.562c2.665 0 4.8632 2.0001 5.125 4.5938v1c-0.26183-2.5937-2.46-4.5938-5.125-4.5938h-61.562c-2.665 0-4.8632 2.0001-5.125 4.5938z" fill="#fff" opacity=".4"/>
<rect transform="rotate(90)" x="7.7431" y="-188.16" width="73.831" height="1.0404" fill="url(#radialGradient3885)" opacity=".867"/>
<path d="m183.46 12.934c0-2.8428-2.5714-5.1189-5.7647-5.1189h-6.2181c3.1933 0 5.7647 2.2761 5.7647 5.1189v61.594c0 2.8428-2.5714 5.1189-5.7647 5.1189h6.2181c3.1933 0 5.7647-2.2761 5.7647-5.1189z" fill="#e9ffdb" opacity=".867" stroke="#b4b4b4" stroke-width=".46843"/>
<path d="m179.24 12.896c0-2.842-2.5714-5.1174-5.7647-5.1174h-6.2181c3.1933 0 5.7647 2.2755 5.7647 5.1174v61.576c0 2.842-2.5714 5.1174-5.7647 5.1174h6.2181c3.1933 0 5.7647-2.2755 5.7647-5.1174z" fill="#ffecfe" opacity=".867" stroke="#b4b4b4" stroke-width=".46836"/>
<path d="m127.62 73.032v1.4688c0 2.8426 1.789 5.125 4.0171 5.125h48.254c2.2282 0 4.0171-2.2824 4.0171-5.125v-1.4688c-0.20523 2.5937-1.9282 4.5938-4.0171 4.5938h-48.254c-2.0889 0-3.8119-2.0001-4.0171-4.5938z" opacity=".138"/>
<path d="m112.09 13.748v-1.4688c0-2.8426 2.2824-5.125 5.125-5.125h61.562c2.8426 0 5.125 2.2824 5.125 5.125v1.4688c-0.26183-2.5937-2.46-4.5938-5.125-4.5938h-61.562c-2.665 0-4.8632 2.0001-5.125 4.5938z" opacity=".169"/>
</g>
<path d="m1.411 86.699c0 1.9872 3.0408 3.587 6.8179 3.587h79.542c3.7771 0 6.8179-1.5998 6.8179-3.587v-37.065c0-1.9872-3.0408-3.587-6.8179-3.587h-43.393l-4.6873-4.1101c-1.1519-1.1183-3.4044-1.8682-6.0012-1.8682h-25.461c-3.7771 0-6.8179 1.5998-6.8179 3.587z" enable-background="new" fill="#2e8d13" stroke="#6d6d6d" stroke-width=".25251"/>
<g>
<g transform="matrix(1 0 0 .93315 0 6.3272)">
<g transform="matrix(1 0 0 .73607 -11.94 -747.6)">
<path d="m13.566 1129v2.2302c0 3.4905 3.0556 6.2725 6.8296 6.2725h79.447c3.774 0 6.8296-2.782 6.8296-6.2725v-2.2302c0 3.4905-3.0556 6.2724-6.8296 6.2724h-79.447c-3.774 0-6.8296-2.7819-6.8296-6.2724z" enable-background="new" fill="url(#linearGradient3891)" opacity=".83103"/>
<path d="m18.476 1132.6h83.286" enable-background="new" fill="none" opacity=".375" stroke="#000" stroke-width="1.7273px"/>
<path d="m18.476 1131.8h83.286" enable-background="new" fill="none" opacity=".435" stroke="#fff" stroke-width="1.7273px"/>
<path d="m18.476 1128.5h83.286" enable-background="new" fill="none" opacity=".375" stroke="#000" stroke-width="1.7273px"/>
<path d="m18.476 1127.7h83.286" enable-background="new" fill="none" opacity=".435" stroke="#fff" stroke-width="1.7273px"/>
<path d="m13.277 1131.4v6.2378c0 3.6782 2.9941 6.6333 6.7005 6.6333h80.281c3.7064 0 6.7004-2.9551 6.7004-6.6333v-6.2378c0 3.6782-2.994 6.6637-6.7004 6.6637h-80.281c-3.7064 0-6.7005-2.9855-6.7005-6.6637z" enable-background="new" opacity=".3"/>
<path d="m13.277 1131.4v6.2378c0 3.6782 2.9941 6.6333 6.7005 6.6333h80.281c3.7064 0 6.7004-2.9551 6.7004-6.6333v-6.2378c0 3.6782-2.994 6.6637-6.7004 6.6637h-80.281c-3.7064 0-6.7005-2.9855-6.7005-6.6637z" enable-background="new" fill="url(#linearGradient3893)" opacity=".95052"/>
<path d="m13.193 1132.3c0 2.895 3.0408 5.2256 6.8179 5.2256 49.601-40.026 39.172-32.106 79.542-64.449h-43.393l-4.6873-5.9877c-1.1519-1.6292-3.4044-2.7216-6.0012-2.7216h-25.461c-3.7771 0-6.8179 2.3306-6.8179 5.2256z" enable-background="new" fill="url(#linearGradient3391)" opacity=".332"/>
</g>
<path d="m1.411 86.333c0 2.1309 3.0408 3.8464 6.8179 3.8464h79.542c3.7771 0 6.8179-1.7155 6.8179-3.8464v-39.746c0-2.1309-3.0408-3.8465-6.8179-3.8465h-43.393l-4.6873-4.4073c-1.1519-1.1992-3.4044-2.0034-6.0012-2.0034h-25.461c-3.7771 0-6.8179 1.7155-6.8179 3.8464z" enable-background="new" fill="url(#linearGradient3889)" opacity=".381"/>
</g>
</g>
</svg>
