<?xml version="1.0" encoding="UTF-8"?>
<!-- Created with Inkscape (http://www.inkscape.org/) -->
<svg version="1.1" viewBox="0 0 96 96" xmlns="http://www.w3.org/2000/svg" xmlns:cc="http://creativecommons.org/ns#" xmlns:dc="http://purl.org/dc/elements/1.1/" xmlns:rdf="http://www.w3.org/1999/02/22-rdf-syntax-ns#" xmlns:xlink="http://www.w3.org/1999/xlink">
<title>Folder-Lila-HD-I</title>
<defs>
<linearGradient id="linearGradient4125">
<stop stop-color="#fff" offset="0"/>
<stop stop-color="#fff" stop-opacity="0" offset="1"/>
</linearGradient>
<linearGradient id="linearGradient3891" x1="6.25" x2="89.75" y1="80.625" y2="80.625" gradientTransform="matrix(1.115 0 0 1.1151 6.5966 1043.4)" gradientUnits="userSpaceOnUse">
<stop stop-color="#fff" stop-opacity="0" offset="0"/>
<stop stop-color="#fff" offset=".15"/>
<stop stop-color="#fff" offset=".85"/>
<stop stop-color="#fff" stop-opacity="0" offset="1"/>
</linearGradient>
<linearGradient id="linearGradient3893" x1="1.1209" x2="95.496" y1="84.063" y2="84.063" gradientTransform="matrix(.99266 0 0 .9812 12.165 1055.3)" gradientUnits="userSpaceOnUse">
<stop stop-color="#fff" stop-opacity=".031373" offset="0"/>
<stop stop-color="#fff" offset=".05"/>
<stop stop-color="#fff" stop-opacity=".023529" offset=".1"/>
<stop stop-color="#fff" stop-opacity=".28058" offset=".5"/>
<stop stop-color="#fefefe" stop-opacity=".015686" offset=".9"/>
<stop stop-color="#fff" offset=".95"/>
<stop stop-color="#fdfdfd" stop-opacity="0" offset="1"/>
</linearGradient>
<linearGradient id="linearGradient3391" x1="44.726" x2="22.635" y1="59.746" y2="34.832" gradientTransform="matrix(.99266 0 0 .9812 11.828 1054.9)" gradientUnits="userSpaceOnUse" xlink:href="#linearGradient4125"/>
<linearGradient id="linearGradient3889" x1="6.076" x2="89.924" y1="47.473" y2="47.473" gradientTransform="matrix(1.115 0 0 1.0365 -5.522 2.796)" gradientUnits="userSpaceOnUse">
<stop stop-color="#d8d8d8" stop-opacity="0" offset="0"/>
<stop stop-color="#fff" offset=".05"/>
<stop stop-color="#d8d8d8" stop-opacity="0" offset=".1"/>
<stop stop-color="#d8d8d8" stop-opacity="0" offset=".5"/>
<stop stop-color="#d8d8d8" stop-opacity="0" offset=".9"/>
<stop stop-color="#fff" offset=".95"/>
<stop stop-color="#d8d8d8" stop-opacity="0" offset="1"/>
</linearGradient>
<radialGradient id="radialGradient3885" cx="44.659" cy="-187.51" r="36.916" gradientTransform="matrix(1.6991 .0043381 -9.9579e-5 .013731 -31.242 -184.99)" gradientUnits="userSpaceOnUse" xlink:href="#linearGradient4125"/>
</defs>
<metadata>
<rdf:RDF>
<cc:Work rdf:about="">
<dc:format>image/svg+xml</dc:format>
<dc:type rdf:resource="http://purl.org/dc/dcmitype/StillImage"/>
<dc:title>Folder-Lila-HD-I</dc:title>
<dc:date>2017</dc:date>
<dc:creator>
<cc:Agent>
<dc:title>Cristian Pozzessere "ilnanny"</dc:title>
</cc:Agent>
</dc:creator>
<dc:subject>
<rdf:Bag>
<rdf:li>Global language</rdf:li>
</rdf:Bag>
</dc:subject>
<dc:description>Playing with Inkscape on Gnu/Linux O. S.</dc:description>
<dc:contributor>
<cc:Agent>
<dc:title>In the night, alone like a dog.</dc:title>
</cc:Agent>
</dc:contributor>
<cc:license rdf:resource="http://creativecommons.org/licenses/by-sa/4.0/"/>
</cc:Work>
<cc:License rdf:about="http://creativecommons.org/licenses/by-sa/4.0/">
<cc:permits rdf:resource="http://creativecommons.org/ns#Reproduction"/>
<cc:permits rdf:resource="http://creativecommons.org/ns#Distribution"/>
<cc:requires rdf:resource="http://creativecommons.org/ns#Notice"/>
<cc:requires rdf:resource="http://creativecommons.org/ns#Attribution"/>
<cc:permits rdf:resource="http://creativecommons.org/ns#DerivativeWorks"/>
<cc:requires rdf:resource="http://creativecommons.org/ns#ShareAlike"/>
</cc:License>
</rdf:RDF>
</metadata>
<g transform="translate(0 -1026.5)">
<g transform="translate(-12.119 -22.917)">
<path d="m101.26 1049.4h-82.286c-3.7989 0-6.8571 3.0583-6.8571 6.8571v82.286c0 3.7988 3.0583 6.8571 6.8571 6.8571h82.286c3.7989 0 6.8571-3.0583 6.8571-6.8571v-82.286c0-3.7988-3.0583-6.8571-6.8571-6.8571z" enable-background="new" opacity=".15"/>
<path d="m100.83 1049.9h-81.429c-3.7593 0-6.7857 3.0264-6.7857 6.7857v81.429c0 3.7593 3.0264 6.7857 6.7857 6.7857h81.429c3.7593 0 6.7857-3.0264 6.7857-6.7857v-81.429c0-3.7593-3.0264-6.7857-6.7857-6.7857z" enable-background="new" opacity=".25"/>
</g>
</g>
<path d="m88.142 1.1657h-80.283c-3.7064 0-6.6903 2.984-6.6903 6.6906v80.287c0 3.7066 2.9839 6.6906 6.6903 6.6906h80.283c3.7064 0 6.6903-2.984 6.6903-6.6906v-80.287c0-3.7066-2.9839-6.6906-6.6903-6.6906z" enable-background="new" fill="#2e8d13" stroke="#6d6d6d" stroke-width=".33452"/>
<g transform="matrix(0 -1.0859 1.115 0 -.94838 206.75)" enable-background="new">
<path d="m117.22 6.0979c-3.921 0-7.125 3.204-7.125 7.125v60.562c0 3.921 3.204 7.125 7.125 7.125h61.562c3.921 0 7.125-3.204 7.125-7.125v-60.562c0-3.921-3.204-7.125-7.125-7.125z" color="#000000" enable-background="accumulate" opacity=".13718" style="text-decoration-line:none;text-indent:0;text-transform:none"/>
<path d="m117.22 6.8133c-3.3794 0-6.125 2.7457-6.125 6.125v61.562c0 3.3793 2.7456 6.125 6.125 6.125h61.562c3.3794 0 6.125-2.7457 6.125-6.125v-61.562c0-3.3793-2.7456-6.125-6.125-6.125z" color="#000000" enable-background="accumulate" opacity=".24549" style="text-decoration-line:none;text-indent:0;text-transform:none"/>
<path d="m183.7 12.925c0-2.8428-2.242-5.1189-5.0262-5.1189h-30.722c2.7842 0 5.0262 2.2761 5.0262 5.1189v61.594c0 2.8428-2.242 5.1189-5.0262 5.1189h30.722c2.7842 0 5.0262-2.2761 5.0262-5.1189z" fill="#f9fbe5" fill-opacity=".95017" stroke="#b4b4b4" stroke-width=".4374"/>
<path d="m115.71 79.154v1c0.26183 2.5937 2.46 4.5938 5.125 4.5938h61.562c2.665 0 4.8632-2.0001 5.125-4.5938v-1c-0.26183 2.5937-2.46 4.5938-5.125 4.5938h-61.562c-2.665 0-4.8632-2.0001-5.125-4.5938z" fill="#fff" opacity=".4"/>
<path d="m116.69 7.8133c-2.5937 0.26183-4.5938 2.46-4.5938 5.125v0.46875c0.26183-2.5937 2.46-4.5938 5.125-4.5938h61.562c2.665 0 4.8632 2.0001 5.125 4.5938v-0.46875c0-2.8426-2.2824-5.125-5.125-5.125h-61.562c-0.17767 0-0.35834-0.017455-0.53125 0z" fill="#fff" opacity=".5"/>
<path d="m115.71 8.6425v-1c0.26183-2.5937 2.46-4.5938 5.125-4.5938h61.562c2.665 0 4.8632 2.0001 5.125 4.5938v1c-0.26183-2.5937-2.46-4.5938-5.125-4.5938h-61.562c-2.665 0-4.8632 2.0001-5.125 4.5938z" fill="#fff" opacity=".4"/>
<rect transform="rotate(90)" x="7.7431" y="-187.83" width="73.831" height=".90709" fill="url(#radialGradient3885)" opacity=".42599"/>
<path d="m183.73 12.934c0-2.8428-2.242-5.1189-5.0262-5.1189h-5.4216c2.7842 0 5.0262 2.2761 5.0262 5.1189v61.594c0 2.8428-2.242 5.1189-5.0262 5.1189h5.4216c2.7842 0 5.0262-2.2761 5.0262-5.1189z" fill="#e9ffdb" stroke="#b4b4b4" stroke-width=".4374"/>
<path d="m180.05 12.896c0-2.842-2.242-5.1174-5.0262-5.1174h-5.4216c2.7842 0 5.0262 2.2755 5.0262 5.1174v61.576c0 2.842-2.242 5.1174-5.0262 5.1174h5.4216c2.7842 0 5.0262-2.2755 5.0262-5.1174z" fill="#ffecfe" stroke="#b4b4b4" stroke-width=".43734"/>
<path d="m127.62 73.032v1.4688c0 2.8426 1.789 5.125 4.0171 5.125h48.254c2.2282 0 4.0171-2.2824 4.0171-5.125v-1.4688c-0.20523 2.5937-1.9282 4.5938-4.0171 4.5938h-48.254c-2.0889 0-3.8119-2.0001-4.0171-4.5938z" opacity=".138"/>
<path d="m112.09 13.748v-1.4688c0-2.8426 2.2824-5.125 5.125-5.125h61.562c2.8426 0 5.125 2.2824 5.125 5.125v1.4688c-0.26183-2.5937-2.46-4.5938-5.125-4.5938h-61.562c-2.665 0-4.8632 2.0001-5.125 4.5938z" opacity=".169"/>
</g>
<path d="m1.411 83.85c0 2.6997 3.0408 4.8731 6.8179 4.8731h79.542c3.7771 0 6.8179-2.1734 6.8179-4.8731v-50.355c0-2.6997-3.0408-4.8731-6.8179-4.8731h-43.393l-4.6873-5.5838c-1.1519-1.5193-3.4044-2.5381-6.0012-2.5381h-25.461c-3.7771 0-6.8179 2.1734-6.8179 4.8731z" enable-background="new" fill="#2e8d13" stroke="#6d6d6d" stroke-width=".29432"/>
<g transform="matrix(.96785 0 0 .95668 3.6365 6.6551)" enable-background="new">
<path d="m46.392 26.079c-14.115 0-25.558 11.577-25.558 25.857 0 14.279 11.444 25.857 25.558 25.857 1.7273 0 3.4142-0.17442 5.0456-0.50422-0.65813-0.31889-0.72841-2.7042-0.0788-4.066 0.72415-1.5148 2.9946-5.3524 0.74971-6.6409-2.2449-1.2885-1.623-1.8682-2.9946-3.3592-1.3716-1.4911-0.81148-1.713-0.8988-2.0966-0.30031-1.3122 1.3226-3.2817 1.3972-3.4842 0.07455-0.20254 0.07455-0.95884 0.04898-1.1872-0.02556-0.2284-1.0223-0.8339-1.2737-0.85759-0.25132-0.0237-0.37486 0.40509-0.72416 0.42879-0.3493 0.0237-1.8721-0.93514-2.1959-1.1872s-0.47496-0.85759-0.92436-1.3122c-0.4494-0.45464-0.49839-0.10127-1.1991-0.37924-0.70073-0.27796-2.9456-1.1118-4.6665-1.8186-1.7209-0.70677-1.8722-1.6979-1.8977-2.3982-0.02556-0.70028-1.0479-1.7173-1.5292-2.4499-0.47922-0.7326-0.56868-1.7432-0.74332-1.5148-0.17466 0.2284 0.8988 2.8787 0.72415 2.9541-0.17466 0.07548-0.5495-0.73262-1.0479-1.3898s0.52395-0.30381-1.0734-3.4842c-1.5974-3.1804 0.49839-4.8029 0.59849-6.4642 0.10011-1.6613 1.3482 0.60547 0.6986-0.45466-0.64961-1.0601 0.04898-3.2817-0.4494-4.0897-0.49839-0.80804-3.3439 0.90929-3.3439 0.90929 0.07455-0.78216 2.4962-2.1203 4.2427-3.3592 1.7465-1.239 2.8135-0.27798 4.2171 0.17675 1.4036 0.45464 1.4973 0.30382 1.0223-0.15074-0.47496-0.45466 0.20022-0.68091 1.2971-0.50422 1.0969 0.17675 1.3972 1.5148 3.0691 1.3898 1.6719-0.12495 0.17466 0.32752 0.40042 0.75846 0.22576 0.43096-0.2492 0.37925-1.3482 1.1356-1.099 0.7563 0.02556 0.75846 1.9723 2.1978 1.9467 1.4394 1.3482-0.95884 1.148-2.0211-0.20022-1.0623 1.4227-0.22624 1.4227-0.22624 1.1991 0.80802 0.97761 0.04525 1.8509 0.3232 0.87324 0.27796 3.2417 2.3034 3.2417 2.3034-2.9712 1.6419-1.099 1.8186-0.59849 2.1978 0.50052 0.37923-1.0223 1.1118-1.0223 1.1118-0.62405-0.63133-0.72416 0.02579-1.1224 0.2521-0.39828 0.22626-0.02556 0.80804-0.02556 0.80804-2.066 0.32752-1.5974 2.5253-1.5718 3.0554 0.02556 0.53006-1.3226 1.3381-1.6719 2.0966-0.3493 0.75846 0.8988 2.3982 0.24919 2.4995-0.64961 0.10127-1.2971-2.4736-4.7922-1.5148-1.0543 0.28874-3.395 1.5148-2.1469 4.0143 1.2481 2.4995 3.3205-0.70677 4.019-0.35339 0.6986 0.35339-0.2002 1.9436-0.04898 1.9694 0.15123 0.02579 1.9723 0.06893 2.0724 2.2215 0.10011 2.1526 2.771 1.9694 3.3439 2.0211 0.57293 0.05183 2.4962-1.5902 2.771-1.6656 0.27475-0.07544 1.3738-1.0106 3.7699 0.37923 2.3961 1.3898 3.6186 1.1873 4.4429 1.7669 0.82426 0.57962 0.2492 1.7432 1.0223 2.1203 0.77314 0.3771 3.8678-0.12706 4.6431 1.1614 0.77527 1.2885-3.1948 7.7527-4.4429 8.4595-1.2481 0.70674-1.821 2.3228-3.0691 3.3592-1.2481 1.0364-2.9946 2.3163-4.6431 3.3075-1.459 0.87698-1.7209 2.4478-2.3705 2.9455 11.437-2.5706 19.991-12.896 19.991-25.241 0-14.279-11.444-25.857-25.558-25.857zm5.9913 24.267c-0.3493 0.10127-1.0734 0.75848-2.8455-0.30381-1.772-1.0623-2.9946-0.85757-3.1458-1.0343 0 0-0.1491-0.42879 0.62405-0.5042 1.5889-0.15518 3.5952 1.4889 4.0425 1.5148 0.44727 0.02579 0.67304-0.45464 1.4717-0.19388 0.7987 0.2607 0.20022 0.42232-0.1491 0.52143zm-8.3618-21.692c-0.17466-0.12706 0.14482-0.2758 0.33439-0.53006 0.10863-0.14652 0.0277-0.39217 0.16614-0.53008 0.37486-0.37923 2.2214-0.90929 1.8594 0.12707-0.36208 1.0364-2.0851 1.1356-2.3599 0.93516zm4.4663 3.2838c-0.62405-0.02579-2.0937-0.18309-1.821-0.45464 1.0543-1.0601-0.40041-1.364-1.2971-1.4394-0.89667-0.07548-1.2737-0.58179-0.82426-0.63135 0.4494-0.04947 2.247 0.02579 2.5452 0.27798 0.29818 0.2521 1.9211 0.90929 2.0212 1.3898 0.10011 0.4805 0 0.88345-0.62405 0.85759zm5.4162-0.17675c-0.49839 0.40509-3.0116-1.4501-3.4951-1.8682-2.0958-1.8186-3.2204-1.2131-3.6591-1.5148-0.43875-0.30166-0.28327-0.70677 0.38976-1.3122 0.67304-0.60547 2.5707 0.20254 3.6698 0.32752 1.099 0.12495 2.3705 0.98472 2.3961 2.0061 0.02556 1.0213 1.1991 1.9586 0.6986 2.3638z" fill="#1c2422" fill-opacity=".27755"/>
<path d="m45.284 25.366c-14.115 0-25.558 11.577-25.558 25.857 0 14.279 11.444 25.857 25.558 25.857 1.7273 0 3.4142-0.17442 5.0456-0.50422-0.65813-0.31889-0.72841-2.7042-0.0788-4.066 0.72415-1.5148 2.9946-5.3524 0.74971-6.6409-2.2449-1.2885-1.623-1.8682-2.9946-3.3592-1.3716-1.4911-0.81148-1.713-0.8988-2.0966-0.30031-1.3122 1.3226-3.2817 1.3972-3.4842 0.07455-0.20254 0.07455-0.95884 0.04898-1.1872-0.02556-0.2284-1.0223-0.8339-1.2737-0.85759-0.25132-0.0237-0.37486 0.40509-0.72416 0.42879-0.3493 0.0237-1.8721-0.93514-2.1959-1.1872s-0.47496-0.85759-0.92436-1.3122c-0.4494-0.45464-0.49839-0.10127-1.1991-0.37924-0.70073-0.27796-2.9456-1.1118-4.6665-1.8186-1.7209-0.70677-1.8722-1.6979-1.8977-2.3982-0.02556-0.70028-1.0479-1.7173-1.5292-2.4499-0.47922-0.7326-0.56868-1.7432-0.74332-1.5148-0.17466 0.2284 0.8988 2.8787 0.72415 2.9541-0.17466 0.07548-0.5495-0.73262-1.0479-1.3898s0.52395-0.30381-1.0734-3.4842c-1.5974-3.1804 0.49839-4.8029 0.59849-6.4642 0.10011-1.6613 1.3482 0.60547 0.6986-0.45466-0.64961-1.0601 0.04898-3.2817-0.4494-4.0897-0.49839-0.80804-3.3439 0.90929-3.3439 0.90929 0.07455-0.78216 2.4962-2.1203 4.2427-3.3592 1.7465-1.239 2.8135-0.27798 4.2171 0.17675 1.4036 0.45464 1.4973 0.30382 1.0223-0.15074-0.47496-0.45466 0.20022-0.68091 1.2971-0.50422 1.0969 0.17675 1.3972 1.5148 3.0691 1.3898 1.6719-0.12495 0.17466 0.32752 0.40042 0.75846 0.22576 0.43096-0.2492 0.37925-1.3482 1.1356-1.099 0.7563 0.02556 0.75846 1.9723 2.1978 1.9467 1.4394 1.3482-0.95884 1.148-2.0211-0.20022-1.0623 1.4227-0.22624 1.4227-0.22624 1.1991 0.80802 0.97761 0.04525 1.8509 0.3232 0.87324 0.27796 3.2417 2.3034 3.2417 2.3034-2.9712 1.6419-1.099 1.8186-0.59849 2.1978 0.50052 0.37923-1.0223 1.1118-1.0223 1.1118-0.62405-0.63133-0.72416 0.02579-1.1224 0.2521-0.39828 0.22626-0.02556 0.80804-0.02556 0.80804-2.066 0.32752-1.5974 2.5253-1.5718 3.0554 0.02556 0.53006-1.3226 1.3381-1.6719 2.0966-0.3493 0.75846 0.8988 2.3982 0.24919 2.4995-0.64961 0.10127-1.2971-2.4736-4.7922-1.5148-1.0543 0.28874-3.395 1.5148-2.1469 4.0143 1.2481 2.4995 3.3205-0.70677 4.019-0.35339 0.6986 0.35339-0.2002 1.9436-0.04898 1.9694 0.15123 0.02579 1.9723 0.06893 2.0724 2.2215 0.10011 2.1526 2.771 1.9694 3.3439 2.0211 0.57293 0.05183 2.4962-1.5902 2.771-1.6656 0.27475-0.07544 1.3738-1.0106 3.7699 0.37923 2.3961 1.3898 3.6186 1.1873 4.4429 1.7669 0.82426 0.57962 0.2492 1.7432 1.0223 2.1203 0.77314 0.3771 3.8678-0.12706 4.6431 1.1614 0.77527 1.2885-3.1948 7.7527-4.4429 8.4595-1.2481 0.70674-1.821 2.3228-3.0691 3.3592-1.2481 1.0364-2.9946 2.3163-4.6431 3.3075-1.459 0.87698-1.7209 2.4478-2.3705 2.9455 11.437-2.5706 19.991-12.896 19.991-25.241 0-14.279-11.444-25.857-25.558-25.857zm5.9913 24.267c-0.3493 0.10127-1.0734 0.75848-2.8455-0.30381-1.772-1.0623-2.9946-0.85757-3.1458-1.0343 0 0-0.1491-0.42879 0.62405-0.5042 1.5889-0.15518 3.5952 1.4889 4.0425 1.5148 0.44727 0.02579 0.67304-0.45464 1.4717-0.19388 0.7987 0.2607 0.20022 0.42232-0.1491 0.52143zm-8.3618-21.692c-0.17466-0.12706 0.14482-0.2758 0.33439-0.53006 0.10863-0.14652 0.0277-0.39217 0.16614-0.53008 0.37486-0.37923 2.2214-0.90929 1.8594 0.12707-0.36208 1.0364-2.0851 1.1356-2.3599 0.93516zm4.4663 3.2838c-0.62405-0.02579-2.0937-0.18309-1.821-0.45464 1.0543-1.0601-0.40041-1.364-1.2971-1.4394-0.89667-0.07548-1.2737-0.58179-0.82426-0.63135 0.4494-0.04947 2.247 0.02579 2.5452 0.27798 0.29818 0.2521 1.9211 0.90929 2.0212 1.3898 0.10011 0.4805 0 0.88345-0.62405 0.85759zm5.4162-0.17675c-0.49839 0.40509-3.0116-1.4501-3.4951-1.8682-2.0958-1.8186-3.2204-1.2131-3.6591-1.5148-0.43875-0.30166-0.28327-0.70677 0.38976-1.3122 0.67304-0.60547 2.5707 0.20254 3.6698 0.32752 1.099 0.12495 2.3705 0.98472 2.3961 2.0061 0.02556 1.0213 1.1991 1.9586 0.6986 2.3638z" fill="#f9f9f9"/>
<path d="m58.199 40.667h9.4251c1.2629 2.841 2.0173 5.953 2.1467 9.2402h-10.814c-0.04555-3.4734-0.32984-6.5338-0.75809-9.2402zm-4.1185-13.075c5.4068 2.1257 9.8442 6.1484 12.625 11.228h-8.8128c-1.0005-5.1713-2.5203-8.8475-3.8123-11.228zm-7.8907 11.228v-12.898c1.9426 0.08665 3.8305 0.3982 5.6346 0.90889 1.3667 2.3285 3.1326 6.2166 4.246 11.989zm-11.989 22.175c-0.42642-2.7083-0.72164-5.7502-0.7672-9.2402h10.93v9.2402zm-0.01822-20.328h10.181v9.2402h-10.941c0.04555-3.477 0.33349-6.5319 0.75991-9.2402zm4.5722-13.877c1.7986-0.49041 3.672-0.80196 5.6091-0.86466v12.894h-9.8807c1.1207-5.8037 2.8993-9.7066 4.2715-12.03zm-15.175 12.03c2.8264-5.1621 7.4023-9.2051 12.931-11.303-1.303 2.3782-2.841 6.0747-3.8524 11.303zm8.0164 11.087h-11.043c0.12028-3.2835 0.85103-6.4047 2.1103-9.2402h9.6875c-0.4246 2.7083-0.71071 5.7668-0.75444 9.2402zm0.77813 11.087h-9.6401c-1.2647-2.8447-2.0756-5.9438-2.1941-9.2402h11.063c0.04375 3.49 0.3426 6.5282 0.77084 9.2402zm0.29886 1.8473c1.0187 5.2801 2.5804 8.9729 3.8888 11.323-5.549-2.0888-10.127-6.1484-12.957-11.323zm11.69 0v12.894c-1.9171-0.06078-3.7668-0.36689-5.549-0.84807-1.3759-2.2787-3.1636-6.2001-4.2934-12.046zm11.672 0c-1.1244 5.8111-2.9011 9.7177-4.2715 12.006-1.7841 0.49962-3.6556 0.77063-5.5745 0.85728v-12.863zm-9.846-11.087h10.93c-0.04191 3.49-0.3426 6.5301-0.76902 9.2402h-10.161v-9.2402zm10.941-1.8473h-10.941v-9.2402h10.18c0.42825 2.7083 0.71617 5.7631 0.76173 9.2402zm1.8187 1.8473h10.799c-0.12029 3.2945-0.9221 6.3936-2.1813 9.2402h-9.3886c0.42642-2.7119 0.72529-5.7502 0.77084-9.2402zm7.7413 11.087c-2.7718 5.0994-7.2292 9.124-12.66 11.246 1.303-2.3525 2.8447-6.0212 3.8506-11.246z" fill="#080808" fill-opacity=".12245"/>
</g>
<g>
<g transform="matrix(1 0 0 .93315 0 6.3272)">
<g transform="translate(-11.94 -1049.6)">
<path d="m13.566 1129v2.2302c0 3.4905 3.0556 6.2725 6.8296 6.2725h79.447c3.774 0 6.8296-2.782 6.8296-6.2725v-2.2302c0 3.4905-3.0556 6.2724-6.8296 6.2724h-79.447c-3.774 0-6.8296-2.7819-6.8296-6.2724z" enable-background="new" fill="url(#linearGradient3891)" opacity=".83103"/>
<path d="m18.476 1132.6h83.286" enable-background="new" fill="none" opacity=".375" stroke="#000" stroke-width="1.7273px"/>
<path d="m18.476 1131.8h83.286" enable-background="new" fill="none" opacity=".435" stroke="#fff" stroke-width="1.7273px"/>
<path d="m18.476 1128.5h83.286" enable-background="new" fill="none" opacity=".375" stroke="#000" stroke-width="1.7273px"/>
<path d="m18.476 1127.7h83.286" enable-background="new" fill="none" opacity=".435" stroke="#fff" stroke-width="1.7273px"/>
<path d="m13.277 1131.4v6.2378c0 3.6782 2.9941 6.6333 6.7005 6.6333h80.281c3.7064 0 6.7004-2.9551 6.7004-6.6333v-6.2378c0 3.6782-2.994 6.6637-6.7004 6.6637h-80.281c-3.7064 0-6.7005-2.9855-6.7005-6.6637z" enable-background="new" opacity=".3"/>
<path d="m13.277 1131.4v6.2378c0 3.6782 2.9941 6.6333 6.7005 6.6333h80.281c3.7064 0 6.7004-2.9551 6.7004-6.6333v-6.2378c0 3.6782-2.994 6.6637-6.7004 6.6637h-80.281c-3.7064 0-6.7005-2.9855-6.7005-6.6637z" enable-background="new" fill="url(#linearGradient3893)" opacity=".95052"/>
<path d="m13.193 1132.3c0 2.895 3.0408 5.2256 6.8179 5.2256 49.601-40.026 39.172-32.106 79.542-64.449h-43.393l-4.6873-5.9877c-1.1519-1.6292-3.4044-2.7216-6.0012-2.7216h-25.461c-3.7771 0-6.8179 2.3306-6.8179 5.2256z" enable-background="new" fill="url(#linearGradient3391)" opacity=".332"/>
</g>
<path d="m1.411 83.354c0 2.895 3.0408 5.2256 6.8179 5.2256h79.542c3.7771 0 6.8179-2.3306 6.8179-5.2256v-53.998c0-2.895-3.0408-5.2257-6.8179-5.2257h-43.393l-4.6873-5.9876c-1.1519-1.6292-3.4044-2.7217-6.0012-2.7217h-25.461c-3.7771 0-6.8179 2.3306-6.8179 5.2256z" enable-background="new" fill="url(#linearGradient3889)" opacity=".381"/>
</g>
</g>
</svg>
